<svg
   xmlns:xlink="http://www.w3.org/1999/xlink"
   xmlns:svg="http://www.w3.org/2000/svg"
   xmlns="http://www.w3.org/2000/svg"
   xmlns:mingh="http://www.minghworld.com"
   width="300px"
   height="300px" >
   
	<g>
		<!-- Birth -->
		<path id="birth" style="fill:#00f;stroke:none;"
         d="M 153.96,162.46 C 154.03,164.43 152.32,166.27 150.35,166.35 C 148.62,166.5 146.87,165.34 146.37,163.68 C 145.9,162.26 146.31,160.58 147.44,159.58 C 148.67,158.44 150.64,158.23 152.07,159.11 C 153.23,159.8 154.01,161.11 153.96,162.46 z" />
		 
		<!-- Diamond -->
		<path id="diamond" style="fill:none;stroke:#000;stroke-width:0.25px;"
         d="M 152.81,162.47 C 152.87,163.96 151.46,165.32 149.97,165.21 C 148.46,165.18 147.16,163.7 147.35,162.2 C 147.46,160.77 148.88,159.57 150.32,159.74 C 151.67,159.84 152.88,161.09 152.81,162.47 z" />

		<!-- Shape -->
		<path id="shape" style="fill:none;stroke:#000;stroke-width:0.25px;"
			d="M 149.41,128.44 C 148.96,128.44 148.49,128.46 148.03,128.5 C 144.39,128.8 141.34,130.3 138.88,133.0 C 133.5,138.87 130.51,145.76 129.88,153.69 C 129.63,156.68 130.29,159.46 131.84,162.03 C 133.4,164.61 135.55,166.51 138.31,167.69 C 145.01,170.55 151.9,171.25 159.03,169.81 C 162.42,169.13 165.18,167.42 167.31,164.69 C 169.43,161.96 170.42,158.86 170.25,155.41 C 170.02,150.69 168.79,146.26 166.63,142.06 C 164.46,137.88 161.52,134.32 157.81,131.41 C 155.29,129.44 152.51,128.45 149.41,128.44 z M 149.84,130.41 C 150.24,130.36 150.65,130.42 151.0,130.63 C 151.6,130.96 152.01,131.65 152.0,132.34 C 152.03,133.35 151.14,134.27 150.13,134.28 C 149.27,134.32 148.43,133.76 148.19,132.94 C 147.96,132.22 148.17,131.37 148.75,130.88 C 149.05,130.6 149.44,130.45 149.84,130.41 z" />
		
		<text id="txt1" transform="matrix(1 0 0 1 150 155)" style="stroke:none;fill:#f00;font-family:z_swan;font-size:20px;text-anchor:middle;"></text>

		<!-- Prism Reference -->
		<cam mingh:cam="--verb EditSelectAll --verb SelectionUnGroup --verb EditSelectAll --verb ObjectToPath --verb EditSelectAll --verb SelectionGroup --verb ZoomSelection --verb FileSave " /> 
	 </g>

</svg>
