<svg
   xmlns:xlink="http://www.w3.org/1999/xlink"
   xmlns:svg="http://www.w3.org/2000/svg"
   xmlns="http://www.w3.org/2000/svg"
   xmlns:mingh="http://www.minghworld.com"
   width="300px"
   height="300px" >
   
	<g>
		<!-- Birth -->
		<path id="birth" style="fill:#00f;stroke:none;"
         d="M 153.94,144.77 C 154.04,147.07 151.67,149.09 149.4,148.64 C 147.24,148.31 145.61,145.94 146.23,143.81 C 146.72,141.82 148.93,140.43 150.94,140.97 C 152.64,141.38 154.01,143.0 153.94,144.77 z" />
		 
		<!-- Diamond -->
		<path id="diamond" style="fill:none;stroke:#000;stroke-width:0.25px;"
         d="M 152.73,144.77 C 152.8,146.37 151.16,147.76 149.59,147.45 C 148.09,147.22 146.97,145.58 147.39,144.11 C 147.73,142.73 149.27,141.77 150.66,142.14 C 151.84,142.42 152.78,143.55 152.73,144.77 z" />

		<!-- Shape -->
		<path id="shape" style="fill:none;stroke:#000;stroke-width:0.25px;"
			d="M 150.34,128.66 C 149.59,128.65 148.84,128.72 148.06,128.84 C 146.6,129.07 145.2,129.51 143.84,130.16 C 142.46,130.81 141.14,131.68 139.88,132.75 C 138.66,133.77 137.51,134.97 136.41,136.38 C 135.22,137.89 134.17,139.53 133.25,141.28 C 132.45,142.8 131.66,144.65 130.88,146.78 C 129.96,149.26 129.32,151.44 128.91,153.34 C 128.6,154.74 128.37,156.3 128.25,158.06 C 128.15,159.59 128.13,160.88 128.19,161.91 C 128.23,162.53 128.31,163.17 128.44,163.84 C 128.49,164.15 128.63,164.4 128.88,164.59 C 129.39,165.02 129.93,165.4 130.47,165.75 C 131.32,166.3 132.42,166.92 133.81,167.59 C 135.4,168.35 136.91,168.92 138.28,169.34 C 140.11,169.9 142.33,170.41 144.97,170.84 C 147.2,171.2 149.17,171.39 150.91,171.44 C 152.9,171.5 154.84,171.39 156.72,171.09 C 158.5,170.82 160.12,170.4 161.59,169.84 C 163.14,169.26 164.56,168.54 165.81,167.66 C 167.06,166.77 168.13,165.76 169.03,164.63 C 170.0,163.39 170.71,162.05 171.19,160.66 C 171.64,159.33 171.87,157.95 171.88,156.5 C 171.88,154.98 171.66,153.53 171.19,152.16 C 170.69,150.72 169.92,149.41 168.91,148.22 C 167.94,147.09 166.88,146.22 165.72,145.63 C 165.11,145.32 164.38,145.06 163.53,144.81 C 163.11,144.7 162.82,144.52 162.69,144.28 C 162.55,144.05 162.56,143.7 162.66,143.28 C 162.86,142.43 162.97,141.68 163.0,141.0 C 163.05,139.7 162.83,138.36 162.31,136.97 C 161.78,135.5 161.01,134.18 160.0,133.03 C 159.04,131.94 157.87,131.05 156.53,130.31 C 155.24,129.6 153.92,129.12 152.56,128.88 C 151.84,128.74 151.09,128.66 150.34,128.66 z M 149.31,130.66 C 149.86,130.61 150.45,130.76 150.84,131.16 C 151.24,131.51 151.45,132.06 151.44,132.59 C 151.45,133.15 151.2,133.67 150.78,134.03 C 150.1,134.66 148.95,134.67 148.25,134.06 C 147.79,133.69 147.51,133.12 147.53,132.53 C 147.53,131.91 147.89,131.31 148.41,130.97 C 148.68,130.78 148.98,130.68 149.31,130.66 z" />
		
		<text id="txt1" transform="matrix(1 0 0 1 150 160)" style="stroke:none;fill:#f00;font-family:z_swan;font-size:20px;text-anchor:middle;"></text>

		<!-- Prism Reference -->
		<cam mingh:cam="--verb EditSelectAll --verb SelectionUnGroup --verb EditSelectAll --verb ObjectToPath --verb EditSelectAll --verb SelectionGroup --verb ZoomSelection --verb FileSave " /> 
	 </g>

</svg>
