<svg
   xmlns:xlink="http://www.w3.org/1999/xlink"
   xmlns:svg="http://www.w3.org/2000/svg"
   xmlns="http://www.w3.org/2000/svg"
   xmlns:mingh="http://www.minghworld.com"
   width="300px"
   height="300px" >
    
	 <g>
		<!-- Paths -->
		<path id="shape" transform="matrix(-1 0 0 1 300 0)" style="fill:#ff0;stroke:none;"
			d="M 119.88,143.44 C 119.6,143.44 119.42,143.46 119.34,143.47 C 119.01,143.53 118.72,143.7 118.5,143.97 C 118.27,144.23 118.16,144.53 118.16,144.88 L 118.16,154.56 C 118.16,155.12 118.18,155.47 118.25,155.63 C 118.39,156.02 118.67,156.29 119.06,156.44 C 119.23,156.5 119.4,156.56 119.59,156.56 L 179.44,156.56 C 180.16,156.56 180.55,156.54 180.59,156.53 C 180.96,156.49 181.26,156.36 181.5,156.09 C 181.74,155.83 181.84,155.49 181.84,155.13 L 181.84,145.28 C 181.84,144.77 181.78,144.4 181.66,144.19 C 181.45,143.81 181.14,143.58 180.72,143.5 C 180.62,143.47 180.19,143.44 179.44,143.44 L 119.88,143.44 z M 178.03,148.06 C 178.22,148.07 178.39,148.1 178.56,148.16 C 179.34,148.41 179.93,149.17 179.91,150.0 C 179.93,151.0 179.06,151.92 178.06,151.94 C 177.3,151.99 176.51,151.55 176.19,150.84 C 175.85,150.14 175.98,149.22 176.53,148.66 C 176.91,148.25 177.48,148.04 178.03,148.06 z" />

		<!-- Text -->
		<text id="txtTwo" dy="2.8" transform="matrix(1 0 0 1 150 150)" style="stroke:none;fill:#f00;font-family:'Eras Medium ITC';font-size:10px;text-anchor:middle" >

		</text>
		<!-- Prism Reference -->
		<cam mingh:cam=" --verb EditSelectAll --verb SelectionGroup --verb ZoomSelection --verb FileSave "/> 
	 </g>

</svg>