<svg
   xmlns:xlink="http://www.w3.org/1999/xlink"
   xmlns:svg="http://www.w3.org/2000/svg"
   xmlns="http://www.w3.org/2000/svg"
   xmlns:mingh="http://www.minghworld.com"
   width="300px"
   height="300px" >
    
	<g>
		<!-- Birth -->
		<path id="birth" style="fill:#00f;stroke:none;"
         d="M 124.7,153.89 C 122.75,153.96 120.93,152.3 120.81,150.35 C 120.66,148.79 121.54,147.2 122.95,146.51 C 124.33,145.81 126.12,146.02 127.27,147.07 C 128.44,148.07 128.9,149.79 128.4,151.24 C 127.9,152.79 126.35,153.94 124.7,153.89 z" />
		<!-- Diamond -->
		<path id="diamond" style="fill:none;stroke:#000;stroke-width:0.25px;"
         d="M 127.44,150.01 C 127.48,151.41 126.24,152.71 124.83,152.74 C 123.76,152.81 122.67,152.18 122.22,151.19 C 121.74,150.19 121.92,148.91 122.7,148.12 C 123.41,147.35 124.57,147.05 125.56,147.39 C 126.65,147.76 127.47,148.84 127.44,150.01 z" />
		
		<!-- Shape -->
		<path id="shape" style="fill:none;stroke:#000;stroke-width:0.25px;"
			d="M 119.88,143.44 C 119.6,143.44 119.42,143.46 119.34,143.47 C 119.01,143.53 118.72,143.7 118.5,143.97 C 118.27,144.23 118.16,144.53 118.16,144.88 L 118.16,154.56 C 118.16,155.12 118.18,155.47 118.25,155.63 C 118.39,156.02 118.67,156.29 119.06,156.44 C 119.23,156.5 119.4,156.56 119.59,156.56 L 179.44,156.56 C 180.16,156.56 180.55,156.54 180.59,156.53 C 180.96,156.49 181.26,156.36 181.5,156.09 C 181.74,155.83 181.84,155.49 181.84,155.13 L 181.84,145.28 C 181.84,144.77 181.78,144.4 181.66,144.19 C 181.45,143.81 181.14,143.58 180.72,143.5 C 180.62,143.47 180.19,143.44 179.44,143.44 L 119.88,143.44 z M 178.03,148.06 C 178.22,148.07 178.39,148.1 178.56,148.16 C 179.34,148.41 179.93,149.17 179.91,150.0 C 179.93,151.0 179.06,151.92 178.06,151.94 C 177.3,151.99 176.51,151.55 176.19,150.84 C 175.85,150.14 175.98,149.22 176.53,148.66 C 176.91,148.25 177.48,148.04 178.03,148.06 z" />
		
		<text id="txt1" style="stroke:none;fill:#f00;font-family:z_swan;font-size:20px;text-anchor:start;" transform="matrix(1 0 0 1 135 152.5)"></text>

		<!-- Prism Reference -->
		<cam mingh:cam="--verb EditSelectAll --verb SelectionUnGroup --verb EditSelectAll --verb ObjectToPath --verb EditSelectAll --verb SelectionGroup --verb ZoomSelection --verb FileSave" /> 
	 </g>

</svg>
