<svg
   xmlns:xlink="http://www.w3.org/1999/xlink"
   xmlns:svg="http://www.w3.org/2000/svg"
   xmlns="http://www.w3.org/2000/svg"
   xmlns:mingh="http://www.minghworld.com"
   width="300px"
   height="300px" >
	
	 <g>
		
		<!-- Paths -->
		<path transform="matrix(-1 0 0 1 300 0)" style="fill:#ff0;stroke:none;"
		 d="M 150.0,126.72 C 149.76,126.72 149.51,126.74 149.28,126.78 C 148.82,126.87 148.37,127.04 147.97,127.28 C 147.56,127.53 147.2,127.85 146.91,128.22 C 146.62,128.59 146.42,129.02 146.28,129.47 C 146.14,129.92 146.09,130.4 146.13,130.88 C 146.16,131.35 146.27,131.79 146.47,132.22 C 146.67,132.65 146.94,133.04 147.28,133.38 C 147.62,133.71 148.0,134.0 148.44,134.19 C 148.44,134.19 148.46,134.18 148.47,134.19 C 148.48,134.19 148.5,134.21 148.5,134.22 C 148.5,134.23 148.5,134.24 148.5,134.25 C 148.5,134.26 148.5,134.27 148.5,134.28 C 148.5,134.29 148.5,134.31 148.5,134.31 C 148.5,134.32 148.51,134.34 148.5,134.34 C 148.5,134.35 148.47,134.34 148.47,134.34 C 148.46,134.35 148.48,134.37 148.47,134.38 C 148.46,134.38 148.45,134.37 148.44,134.38 C 148.43,134.38 148.41,134.37 148.41,134.38 C 145.76,134.59 143.18,135.38 140.84,136.63 C 138.51,137.87 136.4,139.58 134.75,141.66 C 133.1,143.73 131.88,146.13 131.19,148.69 C 130.49,151.24 130.34,153.97 130.72,156.59 C 131.1,159.22 132.02,161.74 133.41,164.0 C 134.79,166.26 136.64,168.23 138.81,169.75 C 140.98,171.27 143.47,172.37 146.06,172.91 C 148.66,173.44 151.34,173.44 153.94,172.91 C 156.53,172.37 159.02,171.27 161.19,169.75 C 163.36,168.23 165.21,166.26 166.59,164.0 C 167.98,161.74 168.9,159.22 169.28,156.59 C 169.66,153.97 169.51,151.24 168.81,148.69 C 168.12,146.13 166.9,143.73 165.25,141.66 C 163.6,139.58 161.49,137.87 159.16,136.63 C 156.82,135.38 154.24,134.59 151.59,134.38 C 151.59,134.37 151.57,134.38 151.56,134.38 C 151.55,134.37 151.54,134.38 151.53,134.38 C 151.52,134.37 151.54,134.35 151.53,134.34 C 151.53,134.34 151.51,134.35 151.5,134.34 C 151.5,134.34 151.5,134.32 151.5,134.31 C 151.5,134.3 151.5,134.29 151.5,134.28 C 151.5,134.27 151.5,134.26 151.5,134.25 C 151.5,134.24 151.5,134.23 151.5,134.22 C 151.51,134.21 151.52,134.19 151.53,134.19 C 151.54,134.18 151.56,134.19 151.56,134.19 C 152.0,134.0 152.38,133.71 152.72,133.38 C 153.06,133.04 153.33,132.65 153.53,132.22 C 153.73,131.79 153.84,131.35 153.88,130.88 C 153.91,130.4 153.86,129.92 153.72,129.47 C 153.58,129.02 153.38,128.59 153.09,128.22 C 152.8,127.85 152.44,127.53 152.03,127.28 C 151.63,127.04 151.18,126.87 150.72,126.78 C 150.49,126.74 150.24,126.72 150.0,126.72 z M 150.0,128.66 C 150.26,128.66 150.51,128.71 150.75,128.81 C 150.99,128.91 151.19,129.04 151.38,129.22 C 151.56,129.4 151.71,129.61 151.81,129.84 C 151.91,130.08 151.94,130.34 151.94,130.59 C 151.94,130.85 151.91,131.11 151.81,131.34 C 151.71,131.58 151.56,131.79 151.38,131.97 C 151.19,132.15 150.99,132.31 150.75,132.41 C 150.51,132.5 150.26,132.56 150.0,132.56 C 149.75,132.56 149.49,132.5 149.25,132.41 C 149.01,132.31 148.81,132.15 148.63,131.97 C 148.44,131.79 148.29,131.58 148.19,131.34 C 148.09,131.11 148.06,130.85 148.06,130.59 C 148.06,130.34 148.09,130.08 148.19,129.84 C 148.29,129.61 148.44,129.4 148.63,129.22 C 148.81,129.04 149.01,128.91 149.25,128.81 C 149.49,128.71 149.74,128.66 150.0,128.66 z" />
		
		
		<text id="txtTwo" transform="matrix(1 0 0 1 150 160)" style="stroke:none;fill:#f00;font-family:'Eras Medium ITC';font-size:20px;text-anchor:middle"  >

		</text>
		<!-- Prism Reference -->
		<cam mingh:cam=" --verb EditSelectAll --verb ZoomSelection --verb FileSave "/> 
	 </g>

</svg>