<svg
   xmlns:xlink="http://www.w3.org/1999/xlink"
   xmlns:svg="http://www.w3.org/2000/svg"
   xmlns="http://www.w3.org/2000/svg"
   xmlns:mingh="http://www.minghworld.com"
   width="300px"
   height="300px" >
	
	 <g>
		
		<!-- Paths -->
		<path transform="matrix(-1 0 0 1 300 0)" style="fill:#ff0;stroke:none;"
		 d="M 149.78,123.15 C 148.94,123.2 148.1,123.53 147.43,124.12 C 146.1,125.3 145.72,127.25 146.53,128.84 C 146.94,129.65 147.62,130.29 148.47,130.65 C 148.49,130.66 148.53,130.67 148.56,130.68 C 148.64,130.72 148.58,130.78 148.5,130.78 L 148.15,130.78 L 147.4,130.78 L 145.97,130.78 L 145.25,130.78 L 144.87,130.78 C 144.85,130.78 144.7,130.75 144.68,130.78 C 144.66,130.82 144.68,130.86 144.68,130.9 L 144.68,131.03 L 144.68,132.87 L 144.68,140.34 L 144.68,142.18 L 144.68,143.12 C 144.68,143.22 144.62,143.18 144.56,143.18 L 144.37,143.18 L 144.03,143.18 L 141.15,143.18 L 135.5,143.18 L 132.68,143.18 L 132.34,143.18 C 132.27,143.18 132.28,143.3 132.28,143.34 L 132.28,143.5 L 132.28,144.22 L 132.28,145.65 L 132.28,151.37 L 132.28,152.81 L 132.28,153.53 L 132.28,153.68 C 132.28,153.76 132.27,153.81 132.37,153.81 L 132.72,153.81 L 135.53,153.81 L 140.43,153.81 L 142.87,153.81 L 144.12,153.81 L 144.4,153.81 L 144.56,153.81 C 144.61,153.81 144.68,153.76 144.68,153.84 L 144.68,154.65 L 144.68,167.37 L 144.68,173.81 L 144.68,175.43 L 144.68,176.22 L 144.68,176.62 L 144.68,176.75 C 144.68,176.78 144.67,176.81 144.68,176.84 C 144.7,176.87 144.82,176.84 144.84,176.84 L 147.34,176.84 L 152.37,176.84 L 154.87,176.84 L 155.18,176.84 C 155.22,176.84 155.31,176.87 155.31,176.81 L 155.31,176.59 L 155.31,175.81 L 155.31,174.18 L 155.31,162.47 L 155.31,156.62 L 155.31,155.15 L 155.31,154.43 L 155.31,154.06 L 155.31,153.87 C 155.31,153.85 155.3,153.81 155.34,153.81 L 155.4,153.81 L 157.68,153.81 L 163.31,153.81 L 166.12,153.81 L 167.56,153.81 C 167.58,153.81 167.7,153.84 167.72,153.81 C 167.73,153.78 167.72,153.74 167.72,153.72 L 167.72,153.62 L 167.72,153.28 L 167.72,152.56 L 167.72,146.84 L 167.72,143.97 L 167.72,143.25 C 167.72,143.22 167.73,143.18 167.68,143.18 L 167.59,143.18 L 167.43,143.18 L 167.09,143.18 L 165.65,143.18 L 155.75,143.18 L 155.43,143.18 C 155.36,143.18 155.31,143.19 155.31,143.09 L 155.31,142.9 L 155.31,142.09 L 155.31,140.47 L 155.31,137.25 L 155.31,130.81 C 155.31,130.77 155.27,130.78 155.25,130.78 L 155.15,130.78 L 155.0,130.78 L 154.65,130.78 L 153.97,130.78 L 152.59,130.78 L 151.87,130.78 L 151.53,130.78 C 151.47,130.78 151.4,130.8 151.43,130.72 C 151.45,130.67 151.47,130.67 151.5,130.65 C 151.7,130.57 151.91,130.45 152.09,130.34 C 152.82,129.88 153.36,129.22 153.65,128.4 C 154.26,126.73 153.69,124.84 152.22,123.84 C 151.48,123.34 150.62,123.1 149.78,123.15 z M 150.0,125.12 C 150.25,125.12 150.51,125.15 150.75,125.25 C 150.98,125.34 151.19,125.5 151.37,125.68 C 151.55,125.86 151.71,126.07 151.81,126.31 C 151.91,126.54 151.97,126.8 151.97,127.06 C 151.97,127.31 151.91,127.57 151.81,127.81 C 151.71,128.04 151.55,128.25 151.37,128.43 C 151.19,128.61 150.98,128.77 150.75,128.87 C 150.51,128.97 150.25,129.0 150.0,129.0 C 149.74,129.0 149.48,128.97 149.25,128.87 C 149.01,128.77 148.8,128.61 148.62,128.43 C 148.44,128.25 148.31,128.04 148.22,127.81 C 148.12,127.57 148.06,127.31 148.06,127.06 C 148.06,126.8 148.12,126.54 148.22,126.31 C 148.31,126.07 148.44,125.86 148.62,125.68 C 148.8,125.5 149.01,125.34 149.25,125.25 C 149.48,125.15 149.74,125.12 150.0,125.12 z" />
		
		
		<text id="txtTwo" transform="matrix(1 0 0 1 150 160)" style="stroke:none;fill:#f00;font-family:'Eras Medium ITC';font-size:20px;text-anchor:middle"  >

		</text>
		<!-- Prism Reference -->
		<cam mingh:cam="--verb EditSelectAll --verb ZoomSelection --verb FileSave "/> 
	 </g>

</svg>