<svg
   xmlns:xlink="http://www.w3.org/1999/xlink"
   xmlns:svg="http://www.w3.org/2000/svg"
   xmlns="http://www.w3.org/2000/svg"
   xmlns:mingh="http://www.minghworld.com"
   width="300px"
   height="300px" >
	
	 <g>
		<!-- Paths -->
		<path style="fill:none;stroke:#000;stroke-width:0.25px;"
			d="M 149.76,125.5 C 149.48,125.51 149.22,125.55 148.94,125.62 C 146.72,126.19 145.33,128.41 145.79,130.66 C 145.97,131.56 146.44,132.38 147.13,133.0 C 147.23,133.09 147.36,133.18 147.44,133.28 C 147.48,133.33 147.5,133.37 147.51,133.44 C 147.52,133.52 147.46,133.49 147.41,133.5 C 145.76,133.74 144.08,134.2 142.66,135.16 C 141.25,136.1 140.14,137.45 139.32,138.91 C 138.47,140.4 137.96,141.96 137.6,143.62 C 137.26,145.15 137.07,146.71 136.82,148.25 C 136.76,148.62 136.7,149.0 136.63,149.37 C 136.59,149.55 136.55,149.73 136.51,149.91 C 136.46,150.09 136.44,150.26 136.29,150.41 C 135.69,150.95 134.63,150.63 134.04,150.44 C 133.66,150.31 133.31,150.13 132.94,149.97 C 132.85,149.93 132.75,149.91 132.66,149.87 C 132.64,149.86 132.62,149.85 132.6,149.84 C 132.59,149.84 132.55,149.79 132.54,149.81 C 132.52,149.86 132.49,149.92 132.47,149.97 C 132.4,150.15 132.34,150.32 132.29,150.5 C 132.05,151.25 131.9,152.0 131.88,152.78 C 131.85,154.31 132.3,155.97 133.26,157.22 C 134.21,158.47 135.63,159.13 137.1,159.47 C 137.48,159.56 137.87,159.62 138.26,159.66 C 138.49,159.68 138.71,159.71 138.94,159.72 C 138.97,159.72 138.97,159.73 138.97,159.75 L 138.97,159.81 L 138.97,159.91 L 138.97,160.12 L 138.97,160.5 L 138.97,162.81 C 138.97,164.31 138.96,165.81 138.97,167.31 C 138.99,168.83 139.12,170.38 140.19,171.66 C 141.2,172.85 142.73,173.3 144.22,173.12 C 144.6,173.08 144.96,173.0 145.32,172.87 C 145.49,172.81 145.65,172.74 145.82,172.66 C 145.9,172.61 145.99,172.58 146.07,172.53 C 146.11,172.51 146.15,172.49 146.19,172.47 C 146.23,172.45 146.21,172.48 146.22,172.5 C 146.24,172.52 146.27,172.54 146.29,172.56 C 146.82,173.22 147.39,173.73 148.16,174.09 C 149.74,174.83 151.44,174.55 152.79,173.5 C 153.11,173.24 153.4,172.97 153.66,172.66 C 153.69,172.62 153.72,172.57 153.76,172.53 C 153.77,172.51 153.77,172.49 153.79,172.47 C 153.79,172.46 153.8,172.43 153.82,172.44 C 153.83,172.44 153.84,172.46 153.85,172.47 C 153.93,172.52 154.02,172.55 154.1,172.59 C 154.26,172.68 154.43,172.78 154.6,172.84 C 155.34,173.13 156.03,173.22 156.82,173.16 C 158.57,173.02 159.91,172.03 160.57,170.41 C 161.12,169.03 161.04,167.42 161.04,166.03 L 161.04,161.59 L 161.04,160.44 L 161.04,160.06 L 161.04,159.84 L 161.04,159.72 C 161.04,159.68 161.11,159.72 161.13,159.72 C 161.36,159.71 161.56,159.68 161.79,159.66 C 162.55,159.58 163.29,159.42 164.01,159.16 C 165.54,158.59 166.65,157.66 167.38,156.16 C 168.07,154.74 168.28,153.1 168.01,151.56 C 167.94,151.18 167.84,150.8 167.72,150.44 C 167.66,150.25 167.58,150.08 167.51,149.91 C 167.5,149.88 167.51,149.86 167.51,149.84 C 167.49,149.81 167.46,149.83 167.44,149.84 C 167.4,149.86 167.33,149.86 167.29,149.87 C 167.19,149.91 167.13,149.96 167.04,150.0 C 166.32,150.33 165.63,150.65 164.82,150.72 C 164.45,150.75 163.94,150.69 163.66,150.37 C 163.52,150.22 163.51,150.02 163.47,149.84 C 163.43,149.66 163.42,149.49 163.38,149.31 C 163.23,148.56 163.12,147.79 163.01,147.03 C 162.55,143.9 162.08,140.94 160.26,138.16 C 159.41,136.87 158.32,135.7 156.97,134.91 C 155.63,134.11 154.08,133.72 152.57,133.5 C 152.41,133.48 152.56,133.29 152.63,133.22 C 152.72,133.13 152.82,133.05 152.91,132.97 C 153.32,132.59 153.64,132.19 153.88,131.69 C 154.36,130.69 154.44,129.52 154.1,128.47 C 153.48,126.58 151.67,125.39 149.76,125.5 z M 150.01,127.66 C 150.29,127.66 150.56,127.7 150.82,127.81 C 151.08,127.92 151.34,128.08 151.54,128.28 C 151.74,128.48 151.9,128.71 152.01,128.97 C 152.11,129.23 152.16,129.53 152.16,129.81 C 152.16,130.09 152.11,130.36 152.01,130.62 C 151.9,130.88 151.74,131.11 151.54,131.31 C 151.34,131.51 151.08,131.67 150.82,131.78 C 150.56,131.89 150.29,131.94 150.01,131.94 C 149.72,131.94 149.45,131.89 149.19,131.78 C 148.93,131.67 148.67,131.51 148.47,131.31 C 148.28,131.11 148.11,130.88 148.01,130.62 C 147.9,130.36 147.85,130.09 147.85,129.81 C 147.85,129.53 147.9,129.23 148.01,128.97 C 148.11,128.71 148.28,128.48 148.47,128.28 C 148.67,128.08 148.93,127.92 149.19,127.81 C 149.45,127.7 149.72,127.66 150.01,127.66 z"
		 />
		<path style="fill:#f00;stroke:none;"
			d="M 159.14,152.83 C 159.31,152.86 159.38,152.97 159.37,153.14 C 159.37,153.31 159.29,153.42 159.17,153.52 C 158.92,153.72 158.61,153.7 158.34,153.58 C 158.05,153.46 157.84,153.29 157.65,153.05 C 157.47,152.81 157.29,152.58 157.09,152.36 C 156.99,152.26 156.89,152.15 156.79,152.04 C 156.74,151.99 156.69,151.94 156.64,151.89 C 156.61,151.86 156.58,151.84 156.56,151.81 C 156.54,151.8 156.53,151.79 156.51,151.78 C 156.49,151.76 156.53,151.75 156.54,151.74 C 156.78,151.57 157.0,151.38 157.23,151.19 C 157.68,150.81 158.09,150.4 158.46,149.93 C 158.5,149.88 158.55,149.82 158.59,149.76 C 158.6,149.75 158.62,149.73 158.63,149.72 C 158.63,149.71 158.64,149.7 158.64,149.69 C 158.65,149.68 158.65,149.71 158.65,149.72 C 158.66,149.76 158.67,149.79 158.68,149.83 C 158.72,149.97 158.78,150.1 158.85,150.23 C 159.01,150.5 159.19,150.7 159.46,150.85 C 159.97,151.14 160.65,151.13 161.12,150.75 C 161.59,150.39 161.78,149.73 161.63,149.16 C 161.58,148.97 161.39,148.54 161.14,148.48 C 160.81,148.4 160.56,148.78 160.77,149.05 C 160.86,149.17 160.93,149.28 160.95,149.44 C 160.97,149.59 160.96,149.73 160.9,149.87 C 160.78,150.18 160.55,150.34 160.22,150.33 C 159.56,150.33 159.25,149.63 159.33,149.06 C 159.37,148.76 159.49,148.49 159.61,148.22 C 159.72,147.95 159.83,147.68 159.93,147.4 C 160.02,147.12 160.13,146.85 160.22,146.57 C 160.32,146.29 160.39,146.01 160.46,145.72 C 160.58,145.15 160.66,144.57 160.68,143.98 C 160.7,143.69 160.7,143.39 160.68,143.1 C 160.67,142.95 160.66,142.81 160.64,142.66 C 160.63,142.59 160.63,142.51 160.61,142.44 C 160.61,142.43 160.61,142.42 160.61,142.41 C 160.61,142.4 160.62,142.43 160.62,142.44 C 160.62,142.46 160.63,142.47 160.63,142.49 C 160.64,142.53 160.65,142.56 160.66,142.6 C 160.99,143.73 161.21,144.88 161.39,146.04 C 161.57,147.2 161.71,148.37 161.94,149.52 C 162.04,150.03 162.14,150.73 162.48,151.18 C 162.83,151.66 163.39,151.96 163.95,152.08 C 164.55,152.22 165.1,152.15 165.69,152.02 C 165.98,151.96 166.26,151.88 166.54,151.78 C 166.59,151.77 166.57,151.82 166.58,151.85 C 166.58,151.89 166.59,151.93 166.6,151.96 C 166.61,152.04 166.62,152.11 166.63,152.18 C 166.64,152.33 166.66,152.47 166.66,152.62 C 166.72,153.76 166.46,155.01 165.84,155.99 C 165.18,157.05 164.16,157.62 163.02,157.96 C 162.45,158.12 161.88,158.23 161.29,158.26 C 160.99,158.27 160.7,158.28 160.41,158.29 C 160.26,158.29 160.11,158.29 159.97,158.3 C 159.89,158.3 159.82,158.3 159.75,158.3 C 159.71,158.31 159.67,158.31 159.64,158.31 C 159.63,158.31 159.62,158.31 159.61,158.31 C 159.6,158.31 159.59,158.3 159.59,158.32 C 159.59,158.33 159.59,158.35 159.59,158.37 C 159.59,160.72 159.59,163.07 159.59,165.42 C 159.59,166.07 159.6,167.63 159.55,168.29 C 159.48,169.21 159.25,170.2 158.55,170.91 C 157.84,171.61 156.82,171.82 155.89,171.69 C 155.4,171.63 154.97,171.48 154.55,171.21 C 154.45,171.14 154.35,171.08 154.25,171.01 C 154.22,171.0 154.2,170.98 154.17,170.97 C 154.12,170.93 154.15,170.89 154.15,170.85 C 154.15,170.75 154.15,170.66 154.15,170.56 C 154.15,170.16 154.15,169.77 154.15,169.38 C 154.15,167.72 154.15,166.05 154.15,164.39 C 154.15,163.52 154.15,162.64 154.15,161.76 C 154.15,161.31 154.15,160.85 154.15,160.4 C 154.15,160.17 154.15,159.94 154.15,159.71 C 154.15,159.6 154.15,159.48 154.15,159.37 C 154.15,159.31 154.15,159.25 154.15,159.19 C 154.15,159.17 154.15,159.14 154.15,159.11 C 154.15,159.09 154.14,159.04 154.16,159.05 C 155.09,159.26 156.05,159.33 156.95,159.69 C 157.41,159.88 157.8,160.09 158.12,160.5 C 158.4,160.89 158.51,161.39 158.48,161.86 C 158.43,162.44 158.15,163.03 157.63,163.33 C 157.14,163.61 156.44,163.64 155.92,163.43 C 155.62,163.32 155.41,163.18 155.3,162.85 C 155.23,162.65 155.19,162.19 155.4,162.02 C 155.53,161.91 155.65,161.89 155.81,161.92 C 155.99,161.95 156.06,162.04 156.11,162.2 C 156.17,162.34 156.21,162.47 156.34,162.56 C 156.48,162.66 156.61,162.68 156.77,162.65 C 157.07,162.58 157.26,162.28 157.18,161.98 C 157.1,161.68 156.97,161.44 156.75,161.22 C 156.32,160.8 155.64,160.73 155.1,160.95 C 153.91,161.43 153.9,163.1 154.73,163.94 C 154.95,164.15 155.19,164.3 155.47,164.42 C 155.6,164.47 155.74,164.52 155.88,164.55 C 155.9,164.56 155.92,164.56 155.94,164.57 C 155.94,164.57 155.97,164.56 155.96,164.57 C 155.95,164.58 155.94,164.58 155.94,164.59 C 155.91,164.61 155.88,164.64 155.85,164.66 C 155.8,164.71 155.74,164.76 155.69,164.8 C 155.24,165.21 154.88,165.64 154.6,166.18 C 154.04,167.25 154.06,168.5 154.78,169.52 C 155.48,170.51 156.74,170.94 157.9,170.51 C 159.01,170.09 159.84,168.92 159.36,167.71 C 159.15,167.16 158.67,166.73 158.08,166.61 C 157.51,166.48 156.86,166.69 156.54,167.21 C 156.37,167.49 156.33,167.74 156.39,168.06 C 156.44,168.32 156.57,168.65 156.88,168.74 C 157.18,168.82 157.49,168.63 157.55,168.33 C 157.58,168.17 157.53,168.04 157.47,167.91 C 157.4,167.73 157.58,167.66 157.73,167.65 C 158.03,167.64 158.29,167.89 158.38,168.16 C 158.47,168.46 158.39,168.75 158.21,168.99 C 157.86,169.46 157.21,169.68 156.64,169.56 C 156.03,169.42 155.61,168.97 155.41,168.4 C 155.2,167.81 155.27,167.25 155.55,166.7 C 155.82,166.15 156.22,165.75 156.69,165.37 C 156.8,165.28 156.92,165.2 157.04,165.11 C 157.1,165.07 157.16,165.02 157.22,164.98 C 157.24,164.97 157.23,165.0 157.23,165.01 C 157.23,165.03 157.23,165.05 157.23,165.07 C 157.23,165.1 157.23,165.14 157.24,165.18 C 157.26,165.45 157.37,165.77 157.55,165.99 C 157.95,166.45 158.69,166.46 159.14,166.06 C 159.38,165.84 159.48,165.6 159.51,165.28 C 159.52,165.17 159.52,164.96 159.45,164.86 C 159.38,164.72 159.23,164.65 159.08,164.68 C 158.92,164.71 158.81,164.83 158.79,164.99 C 158.77,165.13 158.81,165.27 158.73,165.41 C 158.58,165.7 158.17,165.7 158.03,165.4 C 157.88,165.08 157.95,164.85 158.12,164.57 C 158.28,164.31 158.46,164.09 158.67,163.88 C 159.54,163.05 159.78,161.73 159.39,160.62 C 159.18,160.03 158.85,159.6 158.35,159.23 C 158.29,159.19 158.23,159.15 158.17,159.11 C 158.15,159.1 158.14,159.09 158.12,159.08 C 158.11,159.07 158.08,159.06 158.1,159.05 C 158.14,159.04 158.17,159.02 158.2,159.0 C 158.33,158.94 158.45,158.85 158.56,158.75 C 158.79,158.54 158.94,158.32 159.01,158.01 C 159.14,157.43 158.96,156.79 158.45,156.45 C 157.97,156.13 157.22,156.17 156.84,156.63 C 156.67,156.82 156.44,157.17 156.69,157.41 C 156.8,157.52 156.96,157.54 157.09,157.48 C 157.25,157.4 157.27,157.25 157.35,157.13 C 157.53,156.88 157.94,156.92 158.13,157.12 C 158.34,157.33 158.38,157.68 158.27,157.95 C 158.16,158.22 157.88,158.4 157.6,158.45 C 157.3,158.51 157.01,158.47 156.72,158.43 C 156.43,158.39 156.14,158.33 155.85,158.27 C 155.57,158.21 155.28,158.16 154.99,158.11 C 154.0,157.93 152.56,157.55 151.83,156.7 C 151.05,155.8 150.89,154.45 151.47,153.4 C 152.05,152.37 153.37,151.85 154.49,152.0 C 155.09,152.08 155.61,152.36 156.02,152.8 C 156.4,153.21 156.71,153.8 156.66,154.39 C 156.62,154.96 156.28,155.55 155.71,155.75 C 155.18,155.95 154.42,155.81 154.22,155.2 C 154.19,155.09 154.15,154.89 154.23,154.77 C 154.3,154.64 154.48,154.6 154.62,154.66 C 154.75,154.71 154.85,154.82 154.99,154.87 C 155.15,154.92 155.28,154.91 155.43,154.82 C 155.7,154.66 155.78,154.31 155.61,154.05 C 155.47,153.85 155.09,153.66 154.88,153.6 C 154.3,153.44 153.66,153.67 153.33,154.17 C 153.0,154.67 153.06,155.35 153.33,155.85 C 153.93,156.95 155.37,157.19 156.41,156.62 C 156.94,156.33 157.32,155.86 157.55,155.31 C 157.57,155.24 157.6,155.18 157.62,155.11 C 157.63,155.07 157.64,155.04 157.65,155.0 C 157.66,154.98 157.66,154.96 157.67,154.95 C 157.67,154.93 157.66,154.88 157.68,154.9 C 157.77,155.02 157.86,155.13 157.95,155.25 C 158.14,155.48 158.33,155.7 158.54,155.91 C 159.38,156.76 160.37,157.37 161.62,157.44 C 162.77,157.51 164.01,157.13 164.68,156.07 C 165.27,155.13 165.29,153.65 164.49,152.78 C 163.71,151.94 162.21,151.76 161.24,152.36 C 160.73,152.68 160.41,153.22 160.41,153.83 C 160.41,154.42 160.73,154.99 161.26,155.28 C 161.78,155.56 162.47,155.52 162.88,155.05 C 163.09,154.81 163.17,154.56 163.17,154.24 C 163.17,153.92 163.02,153.65 162.67,153.61 C 162.36,153.58 162.09,153.82 162.08,154.13 C 162.08,154.2 162.12,154.26 162.07,154.33 C 162.03,154.39 161.9,154.37 161.86,154.36 C 161.69,154.31 161.61,154.22 161.54,154.07 C 161.41,153.79 161.53,153.46 161.78,153.3 C 162.05,153.12 162.31,153.08 162.62,153.09 C 163.23,153.11 163.79,153.39 163.97,154.02 C 164.12,154.58 164.01,155.24 163.63,155.69 C 163.23,156.15 162.62,156.33 162.05,156.36 C 161.43,156.4 160.91,156.28 160.36,155.98 C 159.83,155.68 159.42,155.29 159.03,154.84 C 158.93,154.73 158.84,154.62 158.74,154.5 C 158.72,154.47 158.7,154.45 158.67,154.42 C 158.67,154.41 158.66,154.4 158.66,154.4 C 158.65,154.39 158.67,154.39 158.67,154.39 C 158.69,154.39 158.71,154.39 158.73,154.39 C 158.8,154.39 158.87,154.39 158.95,154.38 C 159.26,154.33 159.5,154.21 159.72,153.99 C 160.15,153.57 160.25,152.86 159.81,152.4 C 159.66,152.24 159.26,152.02 159.02,152.16 C 158.73,152.33 158.8,152.77 159.14,152.83 z M 149.64,156.34 C 149.64,157.12 149.64,157.9 149.64,158.68 C 149.64,159.39 149.65,160.1 149.63,160.81 C 149.62,161.27 149.59,161.73 149.5,162.18 C 149.46,162.41 149.4,162.62 149.26,162.82 C 149.13,163.0 148.9,163.13 148.67,163.12 C 148.36,163.11 148.1,162.87 148.06,162.56 C 148.01,162.22 148.23,161.98 148.45,161.79 C 148.94,161.36 149.28,160.97 149.28,160.26 C 149.28,159.94 149.2,159.68 149.02,159.41 C 148.88,159.21 148.57,158.93 148.32,158.86 C 147.98,158.77 147.72,159.17 147.95,159.44 C 148.0,159.5 148.06,159.53 148.13,159.56 C 148.19,159.6 148.26,159.64 148.31,159.69 C 148.44,159.8 148.5,159.92 148.54,160.07 C 148.6,160.36 148.52,160.64 148.36,160.87 C 148.19,161.1 147.95,161.25 147.76,161.45 C 147.37,161.87 147.21,162.47 147.44,163.01 C 147.67,163.54 148.2,163.88 148.78,163.84 C 149.08,163.82 149.31,163.73 149.55,163.54 C 149.58,163.52 149.6,163.5 149.63,163.48 C 149.66,163.45 149.64,163.51 149.64,163.53 C 149.64,163.56 149.64,163.59 149.64,163.62 C 149.64,163.74 149.64,163.86 149.64,163.98 C 149.64,164.22 149.64,164.45 149.64,164.69 C 149.64,165.37 149.67,166.05 149.6,166.73 C 149.57,167.09 149.44,168.06 149.0,168.29 C 148.39,168.6 147.81,167.92 148.16,167.34 C 148.24,167.2 148.35,167.12 148.49,167.06 C 148.55,167.03 148.62,167.01 148.69,166.99 C 148.76,166.97 148.83,166.96 148.89,166.92 C 149.17,166.74 149.07,166.31 148.74,166.26 C 148.53,166.24 148.14,166.41 147.98,166.51 C 147.74,166.67 147.58,166.86 147.46,167.12 C 147.24,167.63 147.31,168.21 147.69,168.63 C 148.07,169.05 148.65,169.19 149.17,169.0 C 149.3,168.95 149.42,168.89 149.53,168.8 C 149.55,168.78 149.58,168.76 149.61,168.74 C 149.62,168.73 149.64,168.68 149.64,168.71 C 149.64,168.74 149.64,168.77 149.64,168.8 C 149.64,168.91 149.64,169.03 149.64,169.14 C 149.64,169.6 149.64,170.06 149.64,170.52 C 149.64,171.29 149.64,172.06 149.64,172.84 C 149.64,172.89 149.64,172.93 149.64,172.98 C 149.64,173.0 149.66,173.04 149.63,173.03 C 149.62,173.03 149.6,173.03 149.59,173.03 C 149.53,173.02 149.47,173.01 149.42,173.0 C 149.31,172.97 149.2,172.94 149.09,172.9 C 148.87,172.83 148.67,172.73 148.47,172.61 C 148.07,172.37 147.75,172.07 147.45,171.71 C 147.42,171.67 147.38,171.62 147.34,171.58 C 147.27,171.48 147.29,171.48 147.29,171.37 C 147.29,171.19 147.29,171.0 147.29,170.82 C 147.29,170.44 147.29,170.06 147.29,169.69 C 147.29,167.28 147.29,164.87 147.29,162.47 C 147.29,161.63 147.29,160.78 147.29,159.94 C 147.29,159.51 147.29,159.08 147.29,158.65 C 147.29,158.59 147.28,158.59 147.34,158.56 C 147.36,158.55 147.39,158.54 147.41,158.53 C 147.47,158.5 147.52,158.48 147.57,158.45 C 147.67,158.4 147.77,158.35 147.87,158.3 C 148.71,157.83 149.26,157.25 149.64,156.34 z M 150.36,156.34 C 150.74,157.25 151.29,157.83 152.13,158.3 C 152.23,158.35 152.33,158.4 152.43,158.45 C 152.48,158.48 152.53,158.5 152.59,158.52 C 152.61,158.54 152.64,158.55 152.66,158.56 C 152.72,158.58 152.71,158.59 152.71,158.64 C 152.71,159.07 152.71,159.51 152.71,159.94 C 152.71,160.78 152.71,161.62 152.71,162.47 C 152.71,164.87 152.71,167.28 152.71,169.69 C 152.71,170.06 152.71,170.44 152.71,170.82 C 152.71,171.0 152.71,171.19 152.71,171.38 C 152.71,171.49 152.73,171.49 152.66,171.58 C 152.62,171.62 152.58,171.67 152.55,171.71 C 152.25,172.07 151.93,172.37 151.53,172.61 C 151.33,172.73 151.13,172.83 150.91,172.9 C 150.8,172.94 150.69,172.97 150.58,173.0 C 150.53,173.01 150.47,173.02 150.41,173.03 C 150.4,173.03 150.39,173.03 150.37,173.03 C 150.34,173.04 150.36,173.0 150.36,172.98 C 150.36,172.93 150.36,172.88 150.36,172.84 C 150.36,172.06 150.36,171.29 150.36,170.52 C 150.36,170.06 150.36,169.6 150.36,169.14 C 150.36,169.03 150.36,168.91 150.36,168.8 C 150.36,168.77 150.36,168.74 150.36,168.71 C 150.36,168.68 150.38,168.73 150.4,168.74 C 150.42,168.76 150.45,168.78 150.47,168.8 C 150.58,168.89 150.7,168.95 150.83,169.0 C 151.35,169.19 151.93,169.05 152.31,168.64 C 152.69,168.22 152.77,167.63 152.54,167.12 C 152.42,166.86 152.26,166.67 152.02,166.52 C 151.87,166.41 151.47,166.24 151.27,166.26 C 150.94,166.31 150.84,166.74 151.11,166.92 C 151.17,166.96 151.24,166.97 151.31,166.99 C 151.38,167.01 151.45,167.03 151.51,167.06 C 151.65,167.12 151.76,167.2 151.84,167.33 C 152.19,167.91 151.61,168.6 151.0,168.29 C 150.56,168.06 150.43,167.09 150.4,166.73 C 150.33,166.05 150.36,165.37 150.36,164.69 C 150.36,164.46 150.36,164.22 150.36,163.98 C 150.36,163.86 150.36,163.74 150.36,163.62 C 150.36,163.59 150.36,163.56 150.36,163.53 C 150.36,163.51 150.34,163.45 150.37,163.48 C 150.4,163.5 150.42,163.52 150.45,163.54 C 150.69,163.73 150.92,163.82 151.22,163.84 C 151.8,163.88 152.33,163.54 152.56,163.01 C 152.79,162.47 152.63,161.87 152.25,161.45 C 152.05,161.25 151.81,161.1 151.64,160.87 C 151.48,160.64 151.4,160.36 151.47,160.08 C 151.5,159.92 151.56,159.8 151.69,159.69 C 151.75,159.64 151.81,159.6 151.87,159.56 C 151.94,159.53 152.0,159.5 152.05,159.44 C 152.28,159.17 152.02,158.77 151.68,158.86 C 151.43,158.93 151.12,159.21 150.98,159.41 C 150.8,159.68 150.73,159.94 150.72,160.26 C 150.72,160.97 151.06,161.36 151.55,161.79 C 151.77,161.98 151.99,162.22 151.94,162.56 C 151.9,162.87 151.64,163.11 151.33,163.12 C 151.1,163.13 150.87,163.0 150.74,162.82 C 150.6,162.62 150.55,162.41 150.5,162.18 C 150.41,161.73 150.38,161.27 150.37,160.81 C 150.35,160.1 150.36,159.39 150.36,158.68 C 150.36,157.9 150.36,157.12 150.36,156.34 z M 150.0,136.38 C 149.96,136.24 149.9,136.1 149.82,135.97 C 149.71,135.77 149.57,135.59 149.4,135.44 C 149.23,135.29 149.04,135.17 148.84,135.07 C 148.65,134.98 148.44,134.91 148.23,134.87 C 148.2,134.86 148.18,134.86 148.16,134.85 C 148.77,134.78 149.39,134.75 150.0,134.75 C 150.0,134.75 150.0,134.75 150.0,134.75 C 150.0,134.75 150.0,134.75 150.0,134.75 C 150.62,134.75 151.23,134.78 151.84,134.85 C 151.82,134.86 151.8,134.86 151.77,134.87 C 151.56,134.91 151.35,134.98 151.16,135.07 C 150.96,135.17 150.77,135.29 150.6,135.44 C 150.43,135.59 150.29,135.77 150.18,135.97 C 150.1,136.1 150.05,136.24 150.0,136.38 z M 150.0,137.77 C 150.01,137.82 150.03,137.86 150.04,137.9 C 150.12,138.1 150.22,138.3 150.34,138.47 C 150.45,138.64 150.58,138.79 150.72,138.94 C 150.85,139.07 150.98,139.19 151.12,139.32 C 151.25,139.44 151.39,139.56 151.52,139.68 C 151.26,139.89 151.0,140.11 150.74,140.33 C 150.49,140.55 150.24,140.77 150.0,141.0 C 149.76,140.77 149.51,140.55 149.26,140.33 C 149.0,140.11 148.74,139.89 148.48,139.68 C 148.61,139.56 148.75,139.44 148.88,139.32 C 149.02,139.19 149.15,139.07 149.28,138.94 C 149.42,138.79 149.55,138.64 149.66,138.47 C 149.78,138.3 149.88,138.1 149.96,137.9 C 149.97,137.86 149.99,137.82 150.0,137.77 z M 152.8,137.28 C 152.82,136.93 152.5,136.66 152.16,136.73 C 151.76,136.81 151.68,137.16 151.74,137.51 C 151.87,138.2 152.59,138.57 153.25,138.44 C 153.92,138.31 154.37,137.68 154.41,137.03 C 154.45,136.37 154.12,135.71 153.62,135.3 C 153.56,135.25 153.49,135.2 153.42,135.16 C 153.39,135.14 153.35,135.11 153.31,135.09 C 153.27,135.07 153.37,135.1 153.39,135.1 C 153.55,135.14 153.71,135.18 153.87,135.22 C 154.19,135.3 154.5,135.39 154.81,135.5 C 155.44,135.72 156.02,136.0 156.57,136.38 C 157.66,137.11 158.55,138.14 159.22,139.24 C 159.31,139.38 159.39,139.53 159.47,139.67 C 159.51,139.74 159.55,139.81 159.59,139.88 C 159.59,139.89 159.6,139.9 159.6,139.9 C 159.59,139.89 159.58,139.88 159.58,139.87 C 159.56,139.86 159.55,139.84 159.54,139.82 C 159.51,139.79 159.49,139.76 159.46,139.73 C 159.25,139.47 159.02,139.25 158.76,139.05 C 158.22,138.63 157.65,138.36 157.0,138.18 C 156.36,138.0 155.73,137.93 155.05,137.97 C 154.36,138.02 153.79,138.28 153.2,138.59 C 153.06,138.66 152.91,138.74 152.77,138.83 C 152.7,138.87 152.63,138.91 152.56,138.95 C 152.53,138.98 152.49,139.0 152.46,139.02 C 152.44,139.03 152.43,139.04 152.41,139.02 C 152.39,139.01 152.38,139.0 152.36,138.98 C 152.12,138.76 151.87,138.55 151.63,138.32 C 151.16,137.87 150.76,137.27 151.08,136.57 C 151.35,135.99 152.22,135.72 152.77,136.03 C 153.06,136.19 153.28,136.48 153.33,136.81 C 153.35,136.99 153.33,137.12 153.21,137.27 C 153.15,137.34 153.1,137.38 153.0,137.38 C 152.94,137.38 152.8,137.38 152.8,137.28 z M 159.37,141.81 C 158.87,140.74 157.76,140.22 156.61,140.41 C 156.33,140.46 156.07,140.54 155.82,140.68 C 155.7,140.75 155.59,140.82 155.48,140.91 C 155.42,140.95 155.37,141.0 155.32,141.04 C 155.31,141.05 155.3,141.1 155.28,141.07 C 155.27,141.06 155.26,141.04 155.25,141.03 C 155.24,141.0 155.22,140.97 155.2,140.94 C 155.04,140.7 154.84,140.51 154.61,140.35 C 154.46,140.24 154.08,140.0 153.88,139.97 C 153.59,139.94 153.33,140.14 153.28,140.43 C 153.26,140.59 153.29,140.7 153.38,140.83 C 153.47,140.95 153.6,141.0 153.72,141.06 C 153.97,141.19 154.18,141.34 154.34,141.6 C 154.5,141.87 154.47,142.13 154.44,142.41 C 154.41,142.66 154.33,142.89 154.28,143.14 C 154.23,143.38 154.2,143.62 154.18,143.87 C 154.18,143.9 154.18,143.93 154.18,143.96 C 154.18,143.99 154.16,143.95 154.15,143.94 C 154.14,143.93 154.13,143.91 154.12,143.89 C 154.07,143.83 154.03,143.77 153.98,143.71 C 153.88,143.59 153.78,143.48 153.67,143.37 C 153.44,143.14 153.21,142.94 152.94,142.75 C 152.44,142.4 151.92,142.16 151.33,142.0 C 151.18,141.96 151.04,141.93 150.9,141.91 C 150.83,141.89 150.75,141.88 150.68,141.87 C 150.67,141.87 150.66,141.87 150.66,141.87 C 150.64,141.87 150.66,141.86 150.67,141.86 C 150.68,141.85 150.69,141.84 150.7,141.83 C 150.72,141.81 150.74,141.79 150.76,141.77 C 150.93,141.61 151.11,141.45 151.28,141.29 C 152.12,140.55 152.98,139.88 154.01,139.39 C 154.64,139.1 154.91,139.01 155.61,139.05 C 156.18,139.08 156.71,139.18 157.23,139.4 C 158.3,139.85 159.04,140.71 159.37,141.81 z M 159.6,143.2 C 159.69,144.96 159.23,146.55 158.4,148.06 C 157.99,148.82 157.49,149.48 156.86,150.07 C 156.55,150.36 156.23,150.63 155.89,150.88 C 155.8,150.94 155.72,151.01 155.63,151.07 C 155.61,151.08 155.59,151.1 155.57,151.11 C 155.56,151.12 155.54,151.13 155.53,151.14 C 155.52,151.14 155.52,151.16 155.5,151.15 C 155.45,151.13 155.4,151.12 155.35,151.1 C 155.15,151.03 154.95,150.98 154.74,150.94 C 154.38,150.88 154.02,150.88 153.66,150.91 C 153.57,150.92 153.49,150.94 153.4,150.95 C 153.35,150.96 153.31,150.96 153.27,150.97 C 153.26,150.98 153.25,150.98 153.24,150.98 C 153.23,150.98 153.19,151.0 153.21,150.99 C 153.23,150.97 153.25,150.95 153.27,150.93 C 153.44,150.79 153.61,150.64 153.76,150.47 C 154.4,149.79 154.83,148.95 155.03,148.04 C 155.08,147.79 155.11,147.54 155.13,147.28 C 155.13,147.25 155.13,147.22 155.14,147.19 C 155.14,147.17 155.14,147.16 155.14,147.14 C 155.14,147.13 155.15,147.15 155.16,147.15 C 155.19,147.19 155.22,147.23 155.25,147.27 C 155.32,147.35 155.39,147.42 155.46,147.5 C 155.75,147.79 156.07,148.03 156.44,148.22 C 156.56,148.28 156.86,148.41 157.0,148.42 C 157.22,148.43 157.42,148.32 157.52,148.13 C 157.61,147.94 157.59,147.72 157.46,147.55 C 157.32,147.37 157.12,147.35 156.94,147.26 C 156.18,146.89 155.64,146.11 155.41,145.32 C 155.18,144.5 155.21,143.63 155.48,142.83 C 155.61,142.45 155.81,142.03 156.14,141.76 C 156.47,141.5 156.94,141.41 157.34,141.47 C 158.22,141.61 158.77,142.57 158.45,143.4 C 158.3,143.79 157.95,144.17 157.48,143.99 C 157.27,143.91 157.17,143.69 157.25,143.47 C 157.34,143.22 157.5,143.21 157.43,142.88 C 157.33,142.41 156.73,142.31 156.45,142.7 C 156.19,143.05 156.09,143.46 156.17,143.9 C 156.34,144.8 157.25,145.27 158.11,145.07 C 158.96,144.86 159.51,144.02 159.6,143.2 z M 148.73,151.95 C 149.38,152.12 150.01,152.15 150.69,152.06 C 150.87,152.04 151.04,152.0 151.22,151.96 C 151.24,151.96 151.29,151.93 151.27,151.95 C 151.25,151.97 151.24,151.98 151.23,151.99 C 151.2,152.01 151.17,152.04 151.15,152.06 C 151.1,152.11 151.05,152.17 151.0,152.22 C 150.77,152.47 150.6,152.74 150.45,153.03 C 150.3,153.33 150.2,153.64 150.13,153.97 C 150.12,154.01 150.1,154.16 150.05,154.19 C 150.01,154.22 149.97,154.22 149.94,154.18 C 149.9,154.15 149.9,154.11 149.89,154.07 C 149.86,153.91 149.82,153.75 149.78,153.59 C 149.57,152.93 149.25,152.41 148.73,151.95 z M 144.49,151.16 C 142.95,150.09 142.04,149.07 141.24,147.35 C 140.88,146.57 140.63,145.79 140.5,144.94 C 140.43,144.52 140.39,144.1 140.39,143.67 C 140.39,143.57 140.39,143.46 140.39,143.36 C 140.39,143.33 140.39,143.3 140.39,143.28 C 140.4,143.26 140.4,143.25 140.4,143.24 C 140.4,143.23 140.4,143.19 140.4,143.21 C 140.4,143.26 140.41,143.31 140.42,143.36 C 140.46,143.57 140.52,143.77 140.62,143.97 C 141.0,144.76 141.78,145.28 142.68,145.07 C 143.57,144.86 144.08,143.98 143.77,143.11 C 143.72,142.96 143.58,142.69 143.45,142.58 C 143.28,142.44 143.04,142.42 142.84,142.52 C 142.65,142.63 142.54,142.84 142.56,143.05 C 142.58,143.16 142.62,143.25 142.68,143.34 C 142.75,143.43 142.78,143.52 142.78,143.63 C 142.76,143.88 142.59,144.0 142.36,144.03 C 142.11,144.05 141.96,143.97 141.79,143.8 C 141.5,143.48 141.41,143.02 141.49,142.61 C 141.68,141.69 142.58,141.25 143.45,141.54 C 144.29,141.82 144.6,142.89 144.7,143.6 C 144.82,144.41 144.69,145.33 144.28,146.06 C 144.07,146.44 143.81,146.75 143.46,147.01 C 143.29,147.14 143.11,147.25 142.91,147.33 C 142.71,147.41 142.53,147.47 142.45,147.72 C 142.32,148.14 142.71,148.53 143.13,148.4 C 143.51,148.28 143.84,148.09 144.16,147.84 C 144.32,147.72 144.46,147.58 144.6,147.44 C 144.66,147.37 144.73,147.29 144.79,147.22 C 144.81,147.2 144.82,147.18 144.84,147.16 C 144.85,147.15 144.85,147.14 144.86,147.13 C 144.88,147.11 144.86,147.16 144.86,147.17 C 144.87,147.23 144.87,147.29 144.87,147.35 C 144.91,147.86 145.02,148.33 145.2,148.81 C 145.38,149.27 145.61,149.68 145.9,150.07 C 146.05,150.26 146.2,150.44 146.37,150.61 C 146.45,150.69 146.54,150.77 146.63,150.85 C 146.67,150.88 146.71,150.92 146.76,150.96 C 146.77,150.97 146.78,150.98 146.79,150.98 C 146.81,151.0 146.77,150.98 146.77,150.98 C 146.74,150.98 146.72,150.97 146.7,150.97 C 145.97,150.83 145.19,150.87 144.49,151.16 z M 145.97,140.01 C 145.47,140.23 145.0,140.59 144.72,141.07 C 144.71,141.09 144.71,141.07 144.7,141.06 C 144.69,141.05 144.69,141.05 144.68,141.04 C 144.67,141.03 144.66,141.02 144.64,141.01 C 144.62,140.98 144.59,140.96 144.56,140.94 C 144.51,140.9 144.45,140.85 144.4,140.81 C 144.28,140.74 144.16,140.67 144.04,140.61 C 143.78,140.49 143.52,140.42 143.23,140.39 C 142.68,140.33 142.12,140.42 141.63,140.71 C 141.38,140.85 141.18,141.03 140.99,141.24 C 140.9,141.35 140.82,141.46 140.75,141.58 C 140.71,141.64 140.68,141.7 140.65,141.76 C 140.64,141.78 140.63,141.8 140.63,141.81 C 140.62,141.83 140.63,141.79 140.63,141.79 C 140.64,141.78 140.64,141.77 140.64,141.76 C 140.65,141.73 140.66,141.7 140.68,141.66 C 141.05,140.57 141.82,139.75 142.91,139.34 C 143.45,139.14 143.98,139.05 144.54,139.04 C 145.24,139.03 145.53,139.16 146.13,139.46 C 147.16,139.96 148.0,140.65 148.84,141.4 C 149.01,141.55 149.18,141.71 149.34,141.87 C 149.37,141.89 149.31,141.87 149.3,141.88 C 149.28,141.88 149.26,141.88 149.25,141.88 C 149.21,141.89 149.18,141.89 149.14,141.9 C 149.07,141.91 149.0,141.93 148.93,141.94 C 148.79,141.97 148.64,142.01 148.51,142.05 C 147.93,142.23 147.41,142.48 146.93,142.85 C 146.67,143.04 146.44,143.25 146.22,143.49 C 146.11,143.6 146.01,143.72 145.92,143.84 C 145.89,143.88 145.87,143.91 145.85,143.94 C 145.84,143.95 145.82,143.99 145.82,143.97 C 145.82,143.95 145.82,143.94 145.82,143.92 C 145.82,143.86 145.81,143.8 145.8,143.73 C 145.78,143.48 145.74,143.24 145.69,142.99 C 145.66,142.87 145.63,142.75 145.59,142.63 C 145.56,142.51 145.56,142.38 145.55,142.26 C 145.54,141.96 145.55,141.72 145.75,141.47 C 145.94,141.25 146.17,141.12 146.42,140.99 C 146.69,140.86 146.8,140.55 146.67,140.28 C 146.55,140.02 146.24,139.9 145.97,140.01 z M 147.2,137.28 C 147.2,137.38 147.06,137.38 147.0,137.38 C 146.9,137.38 146.85,137.34 146.79,137.27 C 146.67,137.12 146.65,136.99 146.67,136.81 C 146.72,136.48 146.94,136.19 147.23,136.03 C 147.78,135.72 148.65,135.99 148.92,136.57 C 149.24,137.28 148.84,137.87 148.37,138.32 C 148.13,138.55 147.88,138.76 147.64,138.98 C 147.62,139.0 147.61,139.01 147.59,139.03 C 147.57,139.04 147.56,139.03 147.54,139.02 C 147.51,139.0 147.47,138.98 147.44,138.95 C 147.37,138.91 147.3,138.87 147.23,138.83 C 147.09,138.74 146.94,138.66 146.8,138.59 C 146.21,138.28 145.64,138.02 144.95,137.97 C 144.28,137.93 143.64,138.0 143.0,138.18 C 142.35,138.36 141.78,138.63 141.24,139.05 C 140.98,139.25 140.75,139.48 140.54,139.73 C 140.51,139.76 140.49,139.79 140.46,139.82 C 140.45,139.84 140.44,139.86 140.42,139.87 C 140.42,139.88 140.41,139.89 140.4,139.9 C 140.4,139.9 140.41,139.89 140.41,139.89 C 140.45,139.81 140.49,139.74 140.53,139.67 C 140.61,139.53 140.69,139.38 140.78,139.24 C 141.45,138.14 142.34,137.11 143.43,136.38 C 143.98,136.0 144.56,135.73 145.19,135.5 C 145.5,135.39 145.81,135.3 146.13,135.22 C 146.29,135.18 146.45,135.14 146.61,135.11 C 146.63,135.1 146.73,135.07 146.69,135.09 C 146.65,135.11 146.62,135.14 146.58,135.16 C 146.51,135.2 146.44,135.25 146.38,135.3 C 145.88,135.71 145.55,136.37 145.59,137.03 C 145.63,137.68 146.08,138.31 146.75,138.44 C 147.41,138.57 148.13,138.2 148.26,137.51 C 148.32,137.16 148.24,136.81 147.84,136.73 C 147.5,136.66 147.18,136.94 147.2,137.28 z M 140.87,152.83 C 141.2,152.77 141.27,152.33 140.98,152.16 C 140.74,152.02 140.34,152.24 140.19,152.4 C 139.75,152.86 139.85,153.57 140.28,153.99 C 140.5,154.21 140.74,154.33 141.05,154.38 C 141.13,154.39 141.2,154.39 141.27,154.39 C 141.29,154.39 141.31,154.39 141.33,154.39 C 141.33,154.39 141.35,154.39 141.34,154.4 C 141.34,154.4 141.33,154.41 141.33,154.42 C 141.3,154.45 141.28,154.47 141.26,154.5 C 141.17,154.62 141.07,154.73 140.97,154.84 C 140.58,155.29 140.17,155.68 139.64,155.98 C 139.09,156.28 138.57,156.4 137.95,156.36 C 137.38,156.33 136.77,156.15 136.37,155.69 C 135.99,155.24 135.88,154.58 136.04,154.02 C 136.21,153.39 136.77,153.11 137.38,153.09 C 137.69,153.08 137.95,153.12 138.22,153.3 C 138.47,153.46 138.59,153.79 138.46,154.07 C 138.39,154.22 138.31,154.31 138.14,154.36 C 138.1,154.37 137.97,154.39 137.93,154.33 C 137.88,154.26 137.92,154.2 137.92,154.13 C 137.91,153.82 137.64,153.58 137.33,153.61 C 136.98,153.65 136.83,153.92 136.83,154.24 C 136.83,154.56 136.91,154.81 137.12,155.05 C 137.53,155.52 138.22,155.56 138.74,155.28 C 139.27,154.99 139.59,154.42 139.59,153.83 C 139.59,153.22 139.27,152.68 138.76,152.36 C 137.79,151.76 136.29,151.94 135.51,152.78 C 134.71,153.65 134.73,155.13 135.32,156.07 C 135.99,157.13 137.23,157.51 138.39,157.44 C 139.63,157.37 140.62,156.76 141.46,155.91 C 141.67,155.7 141.86,155.48 142.05,155.25 C 142.14,155.13 142.23,155.02 142.32,154.9 C 142.34,154.88 142.33,154.93 142.34,154.95 C 142.34,154.96 142.34,154.98 142.35,155.0 C 142.36,155.04 142.37,155.07 142.38,155.11 C 142.4,155.18 142.43,155.24 142.46,155.31 C 142.68,155.86 143.06,156.33 143.59,156.62 C 144.63,157.19 146.07,156.95 146.67,155.85 C 146.94,155.35 147.0,154.67 146.67,154.17 C 146.34,153.67 145.7,153.44 145.12,153.6 C 144.91,153.66 144.53,153.85 144.39,154.05 C 144.22,154.31 144.3,154.66 144.57,154.82 C 144.72,154.91 144.85,154.92 145.01,154.87 C 145.15,154.82 145.25,154.71 145.38,154.66 C 145.52,154.61 145.7,154.64 145.77,154.77 C 145.85,154.89 145.81,155.09 145.78,155.2 C 145.58,155.81 144.82,155.95 144.29,155.75 C 143.72,155.55 143.38,154.96 143.34,154.39 C 143.29,153.8 143.6,153.21 143.98,152.8 C 144.39,152.36 144.91,152.08 145.51,152.0 C 146.63,151.85 147.95,152.37 148.53,153.4 C 149.11,154.45 148.95,155.8 148.17,156.7 C 147.44,157.55 146.0,157.93 145.01,158.11 C 144.72,158.17 144.43,158.21 144.15,158.27 C 143.86,158.33 143.57,158.39 143.28,158.43 C 142.99,158.47 142.7,158.51 142.4,158.45 C 142.12,158.4 141.84,158.22 141.73,157.95 C 141.62,157.68 141.66,157.33 141.87,157.12 C 142.07,156.92 142.47,156.88 142.65,157.13 C 142.73,157.25 142.75,157.4 142.91,157.48 C 143.04,157.54 143.2,157.52 143.31,157.41 C 143.56,157.17 143.33,156.82 143.16,156.63 C 142.78,156.17 142.03,156.13 141.56,156.45 C 141.04,156.79 140.86,157.43 140.99,158.01 C 141.07,158.32 141.21,158.54 141.44,158.75 C 141.55,158.85 141.67,158.94 141.8,159.0 C 141.83,159.02 141.86,159.04 141.9,159.05 C 141.92,159.06 141.89,159.07 141.88,159.08 C 141.86,159.09 141.85,159.1 141.83,159.11 C 141.77,159.15 141.71,159.19 141.65,159.23 C 141.15,159.6 140.82,160.03 140.61,160.62 C 140.23,161.73 140.47,163.05 141.33,163.88 C 141.54,164.09 141.73,164.31 141.88,164.57 C 142.05,164.85 142.12,165.08 141.97,165.4 C 141.84,165.7 141.42,165.7 141.27,165.41 C 141.19,165.27 141.23,165.13 141.21,164.99 C 141.19,164.84 141.08,164.71 140.93,164.68 C 140.78,164.65 140.62,164.72 140.55,164.85 C 140.48,164.96 140.48,165.17 140.49,165.28 C 140.52,165.6 140.62,165.83 140.86,166.06 C 141.31,166.46 142.04,166.45 142.45,165.99 C 142.63,165.78 142.74,165.45 142.77,165.18 C 142.77,165.14 142.77,165.11 142.77,165.07 C 142.77,165.05 142.77,165.03 142.77,165.01 C 142.77,165.0 142.76,164.97 142.78,164.98 C 142.84,165.02 142.9,165.07 142.96,165.11 C 143.08,165.19 143.19,165.28 143.31,165.37 C 143.78,165.75 144.17,166.15 144.45,166.69 C 144.73,167.25 144.8,167.8 144.59,168.4 C 144.4,168.96 143.97,169.42 143.37,169.55 C 142.8,169.69 142.15,169.46 141.79,168.99 C 141.61,168.75 141.53,168.47 141.62,168.16 C 141.71,167.9 141.96,167.64 142.27,167.65 C 142.41,167.65 142.6,167.73 142.53,167.9 C 142.5,167.97 142.47,168.03 142.45,168.1 C 142.43,168.17 142.43,168.25 142.45,168.32 C 142.51,168.63 142.82,168.82 143.12,168.74 C 143.43,168.66 143.55,168.32 143.61,168.06 C 143.67,167.74 143.63,167.49 143.46,167.21 C 143.14,166.69 142.5,166.48 141.92,166.61 C 141.34,166.73 140.86,167.16 140.64,167.71 C 140.15,168.91 140.98,170.09 142.1,170.5 C 143.26,170.94 144.51,170.52 145.22,169.52 C 145.94,168.51 145.96,167.26 145.4,166.18 C 145.13,165.64 144.76,165.21 144.32,164.81 C 144.26,164.76 144.21,164.71 144.15,164.66 C 144.12,164.64 144.09,164.62 144.07,164.59 C 144.06,164.59 144.05,164.58 144.04,164.58 C 144.04,164.57 144.05,164.57 144.06,164.57 C 144.08,164.56 144.1,164.56 144.11,164.55 C 144.26,164.52 144.4,164.47 144.53,164.42 C 144.81,164.3 145.05,164.15 145.26,163.94 C 146.1,163.1 146.09,161.44 144.9,160.95 C 144.37,160.73 143.69,160.8 143.26,161.22 C 143.03,161.44 142.91,161.68 142.82,161.97 C 142.74,162.27 142.93,162.58 143.23,162.65 C 143.39,162.68 143.52,162.66 143.65,162.56 C 143.79,162.47 143.83,162.34 143.89,162.2 C 143.94,162.05 144.01,161.95 144.19,161.92 C 144.35,161.89 144.47,161.91 144.6,162.02 C 144.81,162.19 144.77,162.65 144.7,162.85 C 144.59,163.18 144.38,163.32 144.08,163.43 C 143.56,163.64 142.87,163.61 142.38,163.33 C 141.85,163.03 141.57,162.44 141.52,161.86 C 141.49,161.4 141.6,160.89 141.88,160.51 C 142.19,160.09 142.59,159.88 143.05,159.69 C 143.95,159.33 144.91,159.26 145.84,159.05 C 145.87,159.04 145.85,159.08 145.85,159.1 C 145.85,159.13 145.85,159.16 145.85,159.19 C 145.85,159.25 145.85,159.31 145.85,159.37 C 145.85,159.48 145.85,159.6 145.85,159.71 C 145.85,159.94 145.85,160.17 145.85,160.4 C 145.85,160.85 145.85,161.3 145.85,161.75 C 145.85,162.63 145.85,163.51 145.85,164.39 C 145.85,166.05 145.85,167.71 145.85,169.37 C 145.85,169.77 145.85,170.16 145.85,170.56 C 145.85,170.65 145.85,170.75 145.85,170.85 C 145.85,170.89 145.88,170.93 145.83,170.97 C 145.8,170.98 145.78,171.0 145.75,171.01 C 145.65,171.08 145.55,171.14 145.45,171.21 C 145.03,171.48 144.6,171.62 144.11,171.69 C 143.18,171.82 142.16,171.61 141.45,170.91 C 140.75,170.2 140.52,169.21 140.45,168.29 C 140.4,167.63 140.41,166.07 140.41,165.42 C 140.41,163.07 140.41,160.72 140.41,158.37 C 140.41,158.35 140.41,158.33 140.41,158.32 C 140.41,158.3 140.4,158.31 140.39,158.31 C 140.38,158.31 140.37,158.31 140.36,158.31 C 140.33,158.31 140.29,158.31 140.25,158.3 C 140.18,158.3 140.11,158.3 140.03,158.3 C 139.89,158.29 139.74,158.29 139.59,158.29 C 139.3,158.28 139.01,158.27 138.71,158.26 C 138.12,158.23 137.55,158.12 136.98,157.96 C 135.84,157.62 134.82,157.05 134.16,155.99 C 133.54,155.01 133.28,153.76 133.34,152.62 C 133.34,152.47 133.36,152.33 133.37,152.18 C 133.38,152.11 133.39,152.04 133.4,151.96 C 133.41,151.93 133.41,151.89 133.42,151.85 C 133.43,151.82 133.41,151.77 133.46,151.78 C 133.74,151.88 134.02,151.96 134.31,152.02 C 134.9,152.15 135.45,152.22 136.05,152.08 C 136.61,151.96 137.17,151.66 137.53,151.18 C 137.86,150.73 137.96,150.03 138.06,149.52 C 138.29,148.37 138.43,147.2 138.61,146.04 C 138.79,144.88 139.01,143.73 139.34,142.6 C 139.35,142.56 139.36,142.53 139.37,142.49 C 139.37,142.47 139.38,142.46 139.38,142.44 C 139.38,142.43 139.39,142.4 139.39,142.41 C 139.39,142.42 139.39,142.43 139.39,142.44 C 139.37,142.51 139.37,142.59 139.36,142.66 C 139.34,142.81 139.33,142.95 139.32,143.1 C 139.3,143.39 139.3,143.69 139.32,143.98 C 139.34,144.57 139.42,145.15 139.54,145.72 C 139.61,146.01 139.68,146.29 139.78,146.57 C 139.87,146.85 139.98,147.12 140.07,147.4 C 140.17,147.68 140.28,147.95 140.39,148.22 C 140.51,148.49 140.62,148.76 140.67,149.06 C 140.75,149.63 140.44,150.33 139.78,150.33 C 139.45,150.33 139.22,150.18 139.1,149.87 C 139.04,149.73 139.03,149.59 139.05,149.44 C 139.07,149.28 139.14,149.17 139.23,149.05 C 139.44,148.78 139.19,148.4 138.86,148.48 C 138.61,148.54 138.42,148.97 138.37,149.16 C 138.22,149.73 138.41,150.39 138.88,150.75 C 139.35,151.13 140.03,151.14 140.54,150.85 C 140.81,150.7 140.99,150.5 141.15,150.23 C 141.22,150.1 141.28,149.97 141.32,149.83 C 141.33,149.79 141.34,149.76 141.35,149.72 C 141.35,149.71 141.35,149.68 141.36,149.69 C 141.36,149.7 141.37,149.71 141.37,149.72 C 141.38,149.73 141.4,149.75 141.41,149.76 C 141.45,149.82 141.5,149.88 141.54,149.93 C 141.91,150.4 142.32,150.81 142.77,151.19 C 143.0,151.38 143.22,151.56 143.46,151.74 C 143.47,151.75 143.51,151.76 143.49,151.78 C 143.47,151.79 143.46,151.8 143.44,151.81 C 143.42,151.84 143.39,151.86 143.36,151.89 C 143.31,151.94 143.26,151.99 143.21,152.04 C 143.11,152.15 143.01,152.25 142.91,152.36 C 142.71,152.58 142.53,152.81 142.35,153.05 C 142.16,153.29 141.95,153.46 141.66,153.58 C 141.39,153.7 141.08,153.72 140.83,153.52 C 140.7,153.42 140.63,153.31 140.63,153.14 C 140.62,152.97 140.69,152.86 140.87,152.83 z"
		 />
		<path style="fill:#00f;stroke:none;"
			d="M 153.99,146.97 C 153.99,147.49 153.88,148.01 153.68,148.49 C 153.48,148.98 153.19,149.42 152.82,149.79 C 152.45,150.16 152.01,150.45 151.53,150.65 C 151.04,150.85 150.52,150.95 150.0,150.95 C 149.48,150.95 148.96,150.85 148.47,150.65 C 147.99,150.45 147.55,150.16 147.18,149.79 C 146.81,149.42 146.52,148.98 146.32,148.49 C 146.12,148.01 146.01,147.49 146.01,146.97 C 146.01,146.45 146.12,145.92 146.32,145.44 C 146.52,144.96 146.81,144.52 147.18,144.15 C 147.55,143.78 147.99,143.48 148.47,143.29 C 148.96,143.09 149.48,142.98 150.0,142.98 C 150.52,142.98 151.04,143.09 151.53,143.29 C 152.01,143.48 152.45,143.78 152.82,144.15 C 153.19,144.52 153.48,144.96 153.68,145.44 C 153.88,145.92 153.99,146.45 153.99,146.97 z"
		 />
		
		
		<!-- Prism Reference -->
		<cam mingh:cam="--verb EditSelectAll  --verb EditUnlinkClone --verb EditDeselect  --verb EditSelectAll --verb ZoomSelection --verb FileSave "/> 
	 </g>

</svg>
