<svg
   xmlns:xlink="http://www.w3.org/1999/xlink"
   xmlns:svg="http://www.w3.org/2000/svg"
   xmlns="http://www.w3.org/2000/svg"
   xmlns:mingh="http://www.minghworld.com"
   width="300px"
   height="300px" >
	
	 <g>
		
		<!-- Paths -->
		<path style="fill:none;stroke:#000;stroke-width:0.25px;"
			d="M 150.0,126.72 C 149.76,126.72 149.51,126.74 149.28,126.78 C 148.82,126.87 148.37,127.04 147.97,127.28 C 147.56,127.53 147.2,127.85 146.91,128.22 C 146.62,128.59 146.42,129.02 146.28,129.47 C 146.14,129.92 146.09,130.4 146.13,130.88 C 146.16,131.35 146.27,131.79 146.47,132.22 C 146.67,132.65 146.94,133.04 147.28,133.38 C 147.62,133.71 148.0,134.0 148.44,134.19 C 148.44,134.19 148.46,134.18 148.47,134.19 C 148.48,134.19 148.5,134.21 148.5,134.22 C 148.5,134.23 148.5,134.24 148.5,134.25 C 148.5,134.26 148.5,134.27 148.5,134.28 C 148.5,134.29 148.5,134.31 148.5,134.31 C 148.5,134.32 148.51,134.34 148.5,134.34 C 148.5,134.35 148.47,134.34 148.47,134.34 C 148.46,134.35 148.48,134.37 148.47,134.38 C 148.46,134.38 148.45,134.37 148.44,134.38 C 148.43,134.38 148.41,134.37 148.41,134.38 C 145.76,134.59 143.18,135.38 140.84,136.63 C 138.51,137.87 136.4,139.58 134.75,141.66 C 133.1,143.73 131.88,146.13 131.19,148.69 C 130.49,151.24 130.34,153.97 130.72,156.59 C 131.1,159.22 132.02,161.74 133.41,164.0 C 134.79,166.26 136.64,168.23 138.81,169.75 C 140.98,171.27 143.47,172.37 146.06,172.91 C 148.66,173.44 151.34,173.44 153.94,172.91 C 156.53,172.37 159.02,171.27 161.19,169.75 C 163.36,168.23 165.21,166.26 166.59,164.0 C 167.98,161.74 168.9,159.22 169.28,156.59 C 169.66,153.97 169.51,151.24 168.81,148.69 C 168.12,146.13 166.9,143.73 165.25,141.66 C 163.6,139.58 161.49,137.87 159.16,136.63 C 156.82,135.38 154.24,134.59 151.59,134.38 C 151.59,134.37 151.57,134.38 151.56,134.38 C 151.55,134.37 151.54,134.38 151.53,134.38 C 151.52,134.37 151.54,134.35 151.53,134.34 C 151.53,134.34 151.51,134.35 151.5,134.34 C 151.5,134.34 151.5,134.32 151.5,134.31 C 151.5,134.3 151.5,134.29 151.5,134.28 C 151.5,134.27 151.5,134.26 151.5,134.25 C 151.5,134.24 151.5,134.23 151.5,134.22 C 151.51,134.21 151.52,134.19 151.53,134.19 C 151.54,134.18 151.56,134.19 151.56,134.19 C 152.0,134.0 152.38,133.71 152.72,133.38 C 153.06,133.04 153.33,132.65 153.53,132.22 C 153.73,131.79 153.84,131.35 153.88,130.88 C 153.91,130.4 153.86,129.92 153.72,129.47 C 153.58,129.02 153.38,128.59 153.09,128.22 C 152.8,127.85 152.44,127.53 152.03,127.28 C 151.63,127.04 151.18,126.87 150.72,126.78 C 150.49,126.74 150.24,126.72 150.0,126.72 z M 150.0,128.66 C 150.26,128.66 150.51,128.71 150.75,128.81 C 150.99,128.91 151.19,129.04 151.38,129.22 C 151.56,129.4 151.71,129.61 151.81,129.84 C 151.91,130.08 151.94,130.34 151.94,130.59 C 151.94,130.85 151.91,131.11 151.81,131.34 C 151.71,131.58 151.56,131.79 151.38,131.97 C 151.19,132.15 150.99,132.31 150.75,132.41 C 150.51,132.5 150.26,132.56 150.0,132.56 C 149.75,132.56 149.49,132.5 149.25,132.41 C 149.01,132.31 148.81,132.15 148.63,131.97 C 148.44,131.79 148.29,131.58 148.19,131.34 C 148.09,131.11 148.06,130.85 148.06,130.59 C 148.06,130.34 148.09,130.08 148.19,129.84 C 148.29,129.61 148.44,129.4 148.63,129.22 C 148.81,129.04 149.01,128.91 149.25,128.81 C 149.49,128.71 149.74,128.66 150.0,128.66 z"
		 />
		<path style="fill:#00f;stroke:none;"
			d="M 153.9,145.13 C 153.9,144.62 153.8,144.11 153.61,143.64 C 153.41,143.16 153.12,142.73 152.76,142.37 C 152.4,142.01 151.97,141.72 151.49,141.52 C 151.02,141.33 150.51,141.23 150.0,141.23 C 149.49,141.23 148.98,141.33 148.51,141.52 C 148.03,141.72 147.6,142.01 147.24,142.37 C 146.88,142.73 146.59,143.16 146.39,143.64 C 146.2,144.11 146.1,144.62 146.1,145.13 C 146.1,145.64 146.2,146.15 146.39,146.62 C 146.59,147.09 146.88,147.53 147.24,147.89 C 147.6,148.25 148.03,148.54 148.51,148.73 C 148.98,148.93 149.49,149.03 150.0,149.03 C 150.51,149.03 151.02,148.93 151.49,148.73 C 151.97,148.54 152.4,148.25 152.76,147.89 C 153.12,147.53 153.41,147.09 153.61,146.62 C 153.8,146.15 153.9,145.64 153.9,145.13 z"
		 />
		 <path style="fill:#f00;stroke:none;"
			d="M 142.45,159.63 C 140.89,159.21 139.37,158.47 138.17,157.35 C 137.57,156.78 137.07,156.15 136.62,155.46 C 136.39,155.12 136.18,154.78 136.08,154.36 C 135.99,153.96 136.1,153.54 136.4,153.24 C 136.55,153.08 136.7,152.99 136.92,152.95 C 136.97,152.94 137.02,152.94 137.07,152.94 C 137.14,152.94 137.15,153.0 137.19,153.04 C 137.25,153.12 137.31,153.2 137.37,153.28 C 137.63,153.6 137.9,153.9 138.18,154.19 C 138.74,154.78 139.34,155.34 139.98,155.85 C 140.46,156.24 140.96,156.59 141.49,156.92 C 141.55,156.96 141.62,157.0 141.69,157.03 C 141.72,157.05 141.75,157.07 141.79,157.09 C 141.8,157.1 141.81,157.1 141.81,157.12 C 141.81,157.14 141.81,157.17 141.81,157.19 C 141.8,157.23 141.8,157.28 141.8,157.33 C 141.79,157.74 141.85,158.12 141.97,158.51 C 142.03,158.71 142.1,158.89 142.18,159.08 C 142.23,159.17 142.27,159.26 142.32,159.35 C 142.34,159.39 142.37,159.43 142.39,159.48 C 142.41,159.5 142.42,159.52 142.43,159.54 C 142.45,159.57 142.5,159.64 142.45,159.63 z M 147.5,163.69 C 145.55,163.96 143.46,163.75 141.61,163.06 C 140.65,162.7 139.83,162.2 139.06,161.51 C 138.69,161.18 138.36,160.83 138.11,160.37 C 137.88,159.95 137.74,159.41 137.88,158.93 C 137.92,158.79 137.98,158.67 138.08,158.57 C 138.13,158.52 138.19,158.48 138.25,158.44 C 138.28,158.43 138.31,158.4 138.35,158.43 C 138.37,158.44 138.4,158.46 138.42,158.48 C 138.61,158.63 138.81,158.76 139.01,158.89 C 139.42,159.16 139.84,159.39 140.28,159.59 C 141.19,160.02 142.13,160.32 143.12,160.51 C 143.16,160.52 143.2,160.51 143.23,160.54 C 143.25,160.56 143.27,160.58 143.3,160.61 C 143.34,160.65 143.39,160.69 143.43,160.73 C 143.53,160.81 143.62,160.89 143.72,160.97 C 143.92,161.12 144.12,161.26 144.34,161.38 C 144.77,161.63 145.22,161.82 145.7,161.97 C 146.12,162.1 146.54,162.2 146.98,162.29 C 147.07,162.31 147.16,162.31 147.25,162.35 C 147.25,162.35 147.25,162.35 147.25,162.35 C 147.25,162.35 147.26,162.35 147.26,162.36 C 147.26,162.37 147.26,162.37 147.26,162.38 C 147.25,162.48 147.25,162.58 147.26,162.68 C 147.27,162.88 147.31,163.07 147.36,163.26 C 147.39,163.35 147.42,163.45 147.46,163.54 C 147.48,163.58 147.51,163.62 147.52,163.67 C 147.52,163.68 147.52,163.69 147.51,163.69 z M 147.96,164.34 C 147.97,164.34 147.97,164.34 147.97,164.35 C 148.02,164.37 148.04,164.42 148.08,164.45 C 148.46,164.83 148.87,165.05 149.39,165.17 C 151.6,165.67 153.43,163.43 152.5,161.37 C 151.65,159.46 149.07,159.17 147.81,160.83 C 147.67,161.02 147.55,161.23 147.46,161.45 C 147.43,161.51 147.42,161.58 147.39,161.64 C 147.39,161.64 147.39,161.64 147.38,161.64 C 147.38,161.65 147.38,161.65 147.38,161.65 C 147.38,161.65 147.37,161.65 147.37,161.65 C 147.37,161.65 147.37,161.65 147.37,161.65 C 147.0,161.57 146.63,161.49 146.26,161.39 C 144.96,161.04 143.82,160.42 143.07,159.23 C 142.73,158.68 142.5,158.02 142.51,157.36 C 142.51,157.02 142.57,156.72 142.73,156.41 C 142.8,156.26 142.89,156.12 142.99,155.99 C 143.04,155.93 143.09,155.86 143.15,155.8 C 143.16,155.79 143.16,155.77 143.18,155.79 C 143.18,155.79 143.19,155.8 143.19,155.8 C 143.2,155.81 143.21,155.82 143.22,155.84 C 144.61,157.28 148.51,158.53 150.23,159.03 C 150.86,159.21 151.47,159.36 152.01,159.77 C 152.53,160.15 152.94,160.69 153.17,161.3 C 153.63,162.53 153.33,163.96 152.39,164.89 C 151.61,165.66 150.26,165.95 149.4,166.48 C 149.28,166.56 149.16,166.63 149.04,166.72 C 148.99,166.76 148.93,166.81 148.88,166.85 C 148.86,166.87 148.74,166.99 148.71,166.99 C 148.32,167.06 147.94,167.12 147.55,167.16 C 146.78,167.23 146.01,167.25 145.23,167.19 C 143.95,167.08 142.6,166.72 141.55,165.9 C 141.01,165.48 140.59,165.01 140.26,164.41 C 140.1,164.12 139.98,163.83 139.97,163.49 C 139.96,163.4 139.96,163.32 139.97,163.24 C 139.98,163.2 139.99,163.16 139.99,163.12 C 140.0,163.1 140.0,163.08 140.02,163.09 C 140.03,163.1 140.05,163.11 140.06,163.11 C 140.17,163.17 140.28,163.23 140.4,163.28 C 142.78,164.44 145.37,164.75 147.96,164.34 z M 139.26,163.59 C 138.96,163.49 138.66,163.38 138.37,163.27 C 138.08,163.15 137.79,163.02 137.51,162.88 C 137.23,162.74 136.95,162.59 136.68,162.42 C 136.42,162.26 136.16,162.08 135.91,161.89 C 135.66,161.7 135.42,161.49 135.19,161.28 C 134.96,161.06 134.74,160.83 134.54,160.59 C 134.34,160.35 134.15,160.1 133.98,159.84 C 133.81,159.57 133.65,159.3 133.52,159.01 C 133.39,158.72 133.29,158.43 133.21,158.12 C 133.13,157.82 133.09,157.5 133.07,157.19 C 133.06,156.87 133.07,156.56 133.1,156.25 C 133.13,155.93 133.19,155.62 133.32,155.33 C 133.47,155.59 133.64,155.85 133.81,156.1 C 133.99,156.35 134.17,156.59 134.37,156.82 C 134.56,157.06 134.77,157.28 134.98,157.5 C 135.19,157.72 135.41,157.93 135.64,158.13 C 135.87,158.33 136.11,158.51 136.36,158.69 C 136.61,158.87 136.86,159.04 137.12,159.19 C 137.1,159.43 137.12,159.68 137.17,159.92 C 137.23,160.15 137.31,160.38 137.42,160.6 C 137.53,160.81 137.67,161.01 137.81,161.21 C 137.96,161.4 138.13,161.58 138.29,161.75 C 138.46,161.92 138.64,162.09 138.83,162.25 C 139.01,162.4 139.2,162.55 139.4,162.69 C 139.37,162.76 139.34,162.83 139.31,162.9 C 139.29,162.98 139.27,163.05 139.26,163.13 C 139.25,163.2 139.25,163.28 139.25,163.36 C 139.24,163.43 139.25,163.51 139.26,163.59 z M 139.48,164.39 C 140.05,165.72 141.14,166.66 142.42,167.23 C 143.72,167.8 145.13,167.96 146.52,167.93 C 146.98,167.92 147.44,167.89 147.89,167.83 C 147.95,167.83 148.01,167.82 148.06,167.81 C 148.1,167.81 148.09,167.85 148.07,167.87 C 148.06,167.9 148.05,167.92 148.03,167.95 C 148.01,168.01 147.98,168.07 147.96,168.13 C 147.87,168.37 147.81,168.61 147.79,168.86 C 147.74,169.39 147.81,169.86 148.03,170.34 C 148.12,170.53 148.22,170.7 148.34,170.86 C 148.37,170.9 148.4,170.94 148.43,170.98 C 148.44,170.99 148.53,171.07 148.52,171.1 C 148.5,171.13 148.48,171.11 148.45,171.1 C 148.43,171.1 148.42,171.1 148.4,171.1 C 148.25,171.08 148.1,171.07 147.95,171.05 C 147.65,171.01 147.35,170.97 147.05,170.92 C 146.46,170.82 145.87,170.69 145.29,170.52 C 142.59,169.76 140.11,168.36 138.07,166.43 C 137.23,165.63 135.95,164.33 135.88,162.97 C 135.88,162.92 135.88,162.88 135.88,162.84 C 135.88,162.82 135.86,162.73 135.9,162.76 C 135.93,162.78 135.97,162.81 136.0,162.83 C 136.08,162.88 136.15,162.92 136.22,162.97 C 136.36,163.06 136.51,163.15 136.66,163.23 C 136.95,163.4 137.25,163.55 137.56,163.7 C 138.19,163.98 138.82,164.21 139.48,164.39 z M 136.34,152.41 C 136.16,152.19 135.99,151.97 135.82,151.74 C 135.66,151.5 135.51,151.27 135.37,151.02 C 135.23,150.77 135.11,150.52 135.0,150.26 C 134.88,150.0 134.79,149.74 134.7,149.47 C 134.62,149.2 134.55,148.92 134.5,148.64 C 134.44,148.37 134.4,148.09 134.38,147.81 C 134.36,147.52 134.35,147.24 134.37,146.96 C 134.39,146.68 134.43,146.4 134.5,146.12 C 134.57,145.85 134.68,145.58 134.83,145.34 C 134.97,145.1 135.16,144.88 135.37,144.69 C 135.57,144.5 135.8,144.33 136.04,144.19 C 136.29,144.04 136.54,143.92 136.8,143.81 C 136.76,144.08 136.72,144.34 136.7,144.61 C 136.67,144.88 136.65,145.15 136.65,145.41 C 136.64,145.68 136.65,145.95 136.66,146.22 C 136.68,146.49 136.7,146.75 136.74,147.02 C 136.78,147.28 136.83,147.55 136.9,147.81 C 136.96,148.07 137.04,148.32 137.14,148.58 C 136.92,148.67 136.72,148.8 136.55,148.96 C 136.38,149.13 136.25,149.34 136.17,149.56 C 136.09,149.78 136.07,150.02 136.07,150.26 C 136.08,150.49 136.11,150.73 136.17,150.96 C 136.22,151.19 136.29,151.42 136.38,151.63 C 136.47,151.85 136.57,152.07 136.69,152.28 C 136.66,152.28 136.63,152.29 136.6,152.3 C 136.57,152.31 136.54,152.32 136.51,152.33 C 136.48,152.34 136.45,152.35 136.43,152.37 C 136.4,152.38 136.37,152.39 136.34,152.41 z M 142.69,155.25 C 142.61,155.34 142.54,155.42 142.47,155.51 C 142.4,155.59 142.33,155.69 142.27,155.78 C 142.21,155.87 142.15,155.97 142.1,156.07 C 142.05,156.17 142.01,156.27 141.97,156.38 C 141.74,156.24 141.52,156.1 141.3,155.95 C 141.08,155.8 140.87,155.64 140.65,155.48 C 140.44,155.32 140.24,155.15 140.04,154.98 C 139.83,154.81 139.63,154.63 139.44,154.45 C 139.25,154.26 139.06,154.08 138.87,153.89 C 138.69,153.7 138.5,153.5 138.33,153.31 C 138.15,153.11 137.98,152.9 137.81,152.69 C 137.65,152.48 137.5,152.26 137.37,152.04 C 137.23,151.81 137.11,151.57 137.02,151.32 C 136.92,151.07 136.85,150.82 136.81,150.55 C 136.77,150.28 136.75,150.0 136.85,149.76 C 136.95,149.52 137.17,149.32 137.42,149.23 C 137.57,149.55 137.75,149.86 137.95,150.15 C 138.15,150.45 138.37,150.73 138.61,151.0 C 138.85,151.26 139.11,151.51 139.38,151.74 C 139.65,151.97 139.94,152.18 140.24,152.37 C 140.54,152.57 140.86,152.74 141.18,152.89 C 141.5,153.05 141.83,153.19 142.17,153.3 C 142.17,153.44 142.19,153.57 142.21,153.7 C 142.23,153.84 142.25,153.97 142.29,154.1 C 142.32,154.23 142.36,154.36 142.4,154.48 C 142.44,154.61 142.49,154.73 142.55,154.86 C 142.61,154.98 142.67,155.1 142.74,155.21 C 142.74,155.21 142.73,155.22 142.73,155.22 C 142.73,155.22 142.72,155.23 142.72,155.23 C 142.71,155.23 142.71,155.24 142.7,155.24 C 142.7,155.25 142.7,155.25 142.69,155.25 z M 142.17,152.55 C 140.68,151.98 139.36,151.04 138.47,149.67 C 137.56,148.26 137.28,146.74 137.37,145.11 C 137.45,143.6 137.88,141.89 138.89,140.67 C 139.84,139.52 141.48,138.59 142.87,138.16 C 143.24,138.04 143.62,137.95 144.0,137.89 C 144.19,137.85 144.38,137.83 144.58,137.81 C 144.67,137.8 144.77,137.8 144.87,137.79 C 144.89,137.79 144.91,137.79 144.94,137.79 C 144.95,137.78 144.96,137.78 144.98,137.78 C 144.99,137.78 145.01,137.78 145.01,137.8 C 145.01,137.83 144.9,137.88 144.88,137.89 C 144.19,138.32 143.57,138.82 143.01,139.42 C 141.92,140.59 141.17,142.03 140.87,143.61 C 140.57,145.19 140.75,146.81 141.37,148.29 C 141.61,148.87 141.91,149.41 142.27,149.93 C 142.36,150.05 142.46,150.18 142.55,150.3 C 142.6,150.36 142.65,150.42 142.7,150.48 C 142.71,150.5 142.73,150.51 142.74,150.53 C 142.75,150.53 142.75,150.54 142.76,150.55 C 142.76,150.55 142.77,150.55 142.76,150.56 C 142.76,150.57 142.76,150.57 142.76,150.58 C 142.73,150.63 142.71,150.67 142.68,150.72 C 142.59,150.91 142.51,151.11 142.44,151.31 C 142.3,151.71 142.21,152.12 142.17,152.55 z M 149.69,171.17 C 149.14,170.81 148.64,170.23 148.52,169.55 C 148.4,168.88 148.63,168.15 149.08,167.65 C 149.57,167.1 150.18,166.85 150.82,166.58 C 151.45,166.32 152.08,166.08 152.63,165.63 C 153.69,164.75 154.24,163.34 154.06,161.97 C 153.88,160.59 153.02,159.38 151.74,158.8 C 151.11,158.52 150.45,158.36 149.79,158.16 C 149.14,157.95 148.49,157.74 147.85,157.51 C 146.72,157.1 145.15,156.46 144.17,155.71 C 143.64,155.3 143.27,154.86 143.06,154.21 C 142.84,153.57 142.81,152.96 142.92,152.3 C 142.97,151.98 143.05,151.67 143.17,151.37 C 143.2,151.3 143.23,151.23 143.26,151.15 C 143.27,151.14 143.28,151.11 143.3,151.13 C 143.31,151.14 143.33,151.16 143.35,151.18 C 143.38,151.21 143.42,151.24 143.45,151.28 C 143.59,151.41 143.74,151.53 143.89,151.66 C 144.49,152.15 145.13,152.55 145.83,152.89 C 147.17,153.52 148.35,153.71 149.8,153.81 C 151.39,153.92 152.29,153.92 153.8,154.57 C 156.35,155.67 158.34,157.77 159.03,160.52 C 159.71,163.25 158.93,166.07 157.04,168.13 C 156.09,169.18 155.03,169.9 153.73,170.44 C 153.09,170.7 152.45,170.89 151.77,171.01 C 151.44,171.07 151.1,171.12 150.77,171.14 C 150.6,171.16 150.43,171.16 150.26,171.17 C 150.17,171.17 150.09,171.17 150.0,171.17 C 149.95,171.17 149.9,171.17 149.85,171.17 C 149.82,171.17 149.8,171.17 149.77,171.17 C 149.74,171.17 149.72,171.18 149.69,171.17 z M 137.3,158.47 C 137.03,158.31 136.77,158.12 136.52,157.93 C 136.27,157.73 136.03,157.53 135.8,157.31 C 135.57,157.09 135.35,156.86 135.14,156.63 C 134.93,156.39 134.73,156.14 134.54,155.89 C 134.35,155.63 134.17,155.37 134.01,155.1 C 133.84,154.83 133.69,154.55 133.55,154.26 C 133.41,153.98 133.29,153.68 133.19,153.38 C 133.08,153.08 133.0,152.78 132.94,152.46 C 132.89,152.15 132.85,151.84 132.85,151.52 C 132.84,151.2 132.87,150.88 132.92,150.57 C 132.98,150.26 133.07,149.95 133.21,149.67 C 133.36,149.39 133.57,149.14 133.84,148.96 C 133.89,149.2 133.95,149.44 134.02,149.67 C 134.1,149.9 134.18,150.13 134.27,150.36 C 134.36,150.59 134.46,150.81 134.57,151.03 C 134.68,151.24 134.8,151.46 134.93,151.67 C 135.06,151.87 135.19,152.08 135.34,152.27 C 135.48,152.47 135.63,152.66 135.79,152.85 C 135.64,153.03 135.52,153.23 135.44,153.45 C 135.36,153.68 135.33,153.94 135.35,154.19 C 135.36,154.43 135.43,154.67 135.51,154.89 C 135.6,155.12 135.71,155.33 135.83,155.54 C 135.95,155.75 136.08,155.94 136.22,156.14 C 136.54,156.59 136.88,157.03 137.26,157.43 C 137.42,157.6 137.58,157.76 137.75,157.92 C 137.7,157.96 137.66,157.99 137.61,158.04 C 137.57,158.08 137.53,158.12 137.49,158.17 C 137.45,158.21 137.42,158.26 137.39,158.31 C 137.36,158.37 137.33,158.42 137.3,158.47 z"
		 />
		<!-- Prism Reference -->
		<cam mingh:cam="--verb EditSelectAll  --verb EditUnlinkClone --verb EditDeselect  --verb EditSelectAll --verb ZoomSelection --verb FileSave"/> 
	 </g>

</svg>
