<svg
   xmlns:xlink="http://www.w3.org/1999/xlink"
   xmlns:svg="http://www.w3.org/2000/svg"
   xmlns="http://www.w3.org/2000/svg"
   xmlns:mingh="http://www.minghworld.com"
   width="300px"
   height="300px" >
	
	 <g>
		
		<!-- Paths -->
		<path transform="matrix(-1 0 0 1 300 0)" style="fill:#ff0;stroke:none;"
		 d="M 152.13,130.16 C 151.15,130.23 150.19,130.65 149.5,131.41 C 148.39,132.62 148.17,134.39 148.94,135.84 C 149.7,137.29 151.28,138.13 152.91,137.91 C 153.09,137.88 153.29,137.83 153.47,137.78 C 153.57,137.75 153.67,137.71 153.78,137.72 C 154.01,137.73 154.17,137.82 154.31,138.0 C 154.59,138.35 154.47,138.76 154.16,139.03 C 152.91,140.11 151.37,140.55 149.75,140.47 C 148.28,140.39 146.8,139.92 145.63,139.0 C 145.39,138.82 145.18,138.64 144.94,138.47 C 144.64,138.25 144.24,138.03 143.84,138.13 C 143.36,138.24 143.14,138.62 143.25,139.09 C 143.29,139.29 143.4,139.46 143.5,139.63 C 143.57,139.74 143.66,139.85 143.72,139.97 C 143.94,140.46 143.71,141.05 143.22,141.28 C 142.95,141.41 142.75,141.41 142.47,141.31 C 142.35,141.27 142.21,141.21 142.09,141.16 C 141.97,141.1 141.87,141.02 141.75,140.97 C 139.83,140.16 137.44,140.27 135.56,141.06 C 134.58,141.47 133.8,142.05 133.06,142.81 C 132.39,143.51 131.49,144.66 130.97,145.47 C 130.7,145.89 130.45,146.3 130.28,146.78 C 130.08,147.37 130.13,147.56 130.41,148.09 C 130.88,149.0 131.28,149.92 131.72,150.84 C 131.84,151.09 131.94,151.35 132.06,151.59 C 132.15,151.78 132.33,152.16 132.5,152.31 C 132.71,152.49 133.05,152.51 133.22,152.25 C 133.28,152.16 133.5,151.53 133.53,151.44 C 133.93,150.39 134.45,149.5 135.25,148.69 C 136.62,147.3 139.09,146.12 141.16,146.69 C 141.65,146.82 142.16,147.1 142.5,147.5 C 142.87,147.94 143.04,148.57 142.88,149.13 C 142.72,149.63 142.31,150.09 141.91,150.41 C 141.46,150.75 140.96,150.96 140.44,151.16 C 139.92,151.35 139.41,151.48 138.88,151.59 C 138.65,151.64 138.23,151.69 138.25,152.03 C 138.26,152.24 138.45,152.64 138.53,152.81 C 138.73,153.25 138.94,153.67 139.16,154.09 C 139.42,154.6 139.69,155.07 139.97,155.56 C 140.11,155.8 140.24,156.04 140.38,156.28 C 140.44,156.4 140.69,156.88 140.81,156.97 C 141.05,157.14 141.34,157.03 141.53,156.88 C 141.74,156.71 141.96,156.55 142.19,156.41 C 143.11,155.81 144.15,155.62 145.22,155.97 C 146.29,156.32 146.97,157.24 147.28,158.25 C 147.61,159.31 147.49,160.4 146.97,161.38 C 146.47,162.31 145.61,163.07 144.69,163.53 C 143.68,164.04 142.65,164.24 141.53,164.31 C 139.32,164.47 136.86,163.98 134.84,163.09 C 133.91,162.67 133.04,162.18 132.22,161.56 C 131.81,161.26 131.43,160.91 131.06,160.56 C 130.93,160.44 130.11,159.61 129.97,159.5 C 129.57,159.18 128.92,159.26 128.66,159.72 C 128.53,159.94 128.49,160.23 128.56,160.47 C 128.64,160.72 128.8,160.91 128.94,161.13 C 129.47,161.99 130.03,162.82 130.69,163.59 C 132.13,165.3 133.78,166.58 135.72,167.66 C 137.88,168.86 140.39,169.68 142.88,169.84 C 145.31,170.01 147.54,169.53 149.59,168.13 C 151.23,167.0 152.65,165.2 153.22,163.28 C 153.37,162.76 153.45,162.23 153.5,161.69 C 153.51,161.55 153.53,161.42 153.53,161.28 C 153.54,161.15 153.54,161.0 153.59,160.88 C 153.69,160.62 153.92,160.44 154.19,160.41 C 154.46,160.37 154.71,160.5 154.88,160.72 C 154.96,160.83 155.01,160.94 155.06,161.06 C 155.12,161.18 155.18,161.29 155.25,161.41 C 155.52,161.88 155.84,162.3 156.22,162.69 C 157.78,164.3 159.98,164.89 162.13,164.72 C 164.42,164.54 166.41,163.54 168.0,161.91 C 169.54,160.33 170.51,158.32 171.03,156.22 C 172.04,152.15 171.43,147.2 167.88,144.31 C 166.39,143.11 164.47,142.35 162.53,142.38 C 162.05,142.38 161.6,142.46 161.13,142.56 C 160.89,142.61 160.64,142.68 160.41,142.75 C 160.17,142.82 159.92,142.77 159.72,142.63 C 159.3,142.33 159.28,141.72 159.66,141.38 C 160.0,141.06 160.38,140.79 160.72,140.47 C 161.04,140.17 161.54,139.7 161.28,139.16 C 161.16,138.91 160.98,138.83 160.78,138.69 C 160.59,138.55 160.38,138.39 160.19,138.25 C 159.42,137.68 158.67,137.11 157.94,136.5 C 157.74,136.33 157.09,135.71 156.78,135.66 C 156.66,135.64 156.52,135.67 156.44,135.78 C 156.35,135.88 156.28,135.97 156.13,135.94 C 156.0,135.91 155.93,135.81 155.94,135.69 C 155.94,135.6 156.0,135.51 156.03,135.44 C 156.07,135.33 156.09,135.23 156.13,135.13 C 156.68,133.21 155.72,131.19 153.88,130.44 C 153.31,130.21 152.71,130.11 152.13,130.16 z M 152.38,132.09 C 152.63,132.09 152.89,132.12 153.13,132.22 C 153.36,132.32 153.57,132.48 153.75,132.66 C 153.93,132.84 154.09,133.05 154.19,133.28 C 154.29,133.52 154.34,133.78 154.34,134.03 C 154.34,134.29 154.29,134.55 154.19,134.78 C 154.09,135.02 153.93,135.23 153.75,135.41 C 153.57,135.59 153.36,135.75 153.13,135.84 C 152.89,135.94 152.63,135.97 152.38,135.97 C 152.12,135.97 151.89,135.94 151.66,135.84 C 151.42,135.75 151.18,135.59 151.0,135.41 C 150.82,135.23 150.69,135.02 150.59,134.78 C 150.5,134.55 150.44,134.29 150.44,134.03 C 150.44,133.78 150.5,133.52 150.59,133.28 C 150.69,133.05 150.82,132.84 151.0,132.66 C 151.18,132.48 151.42,132.32 151.66,132.22 C 151.89,132.12 152.12,132.09 152.38,132.09 z M 146.19,142.59 C 146.31,142.6 146.41,142.64 146.53,142.69 C 146.6,142.72 147.09,142.99 147.16,143.03 C 147.37,143.15 147.59,143.27 147.81,143.38 C 148.73,143.81 149.69,144.1 150.69,144.28 C 152.64,144.63 154.55,144.47 156.38,143.63 C 156.85,143.41 157.4,143.75 157.38,144.28 C 157.36,144.56 157.2,144.72 157.03,144.91 C 156.87,145.08 156.71,145.26 156.56,145.44 C 155.95,146.17 155.37,146.92 154.81,147.69 C 154.3,148.39 153.74,149.08 152.75,149.19 C 152.24,149.24 151.86,149.09 151.44,148.84 C 151.15,148.68 150.88,148.55 150.53,148.53 C 150.17,148.51 149.84,148.63 149.63,148.94 C 149.29,149.42 149.53,150.19 149.72,150.63 C 149.92,151.07 150.16,151.48 150.41,151.91 C 150.9,152.74 151.45,153.48 152.25,154.06 C 153.03,154.63 153.93,154.9 154.91,154.69 C 155.96,154.46 156.58,153.87 157.22,153.09 C 157.84,152.34 158.38,151.54 158.91,150.72 C 159.44,149.9 159.91,149.06 160.69,148.41 C 161.44,147.78 162.43,147.41 163.41,147.38 C 164.4,147.34 165.37,147.64 166.19,148.19 C 168.03,149.41 168.58,151.3 168.16,153.38 C 167.76,155.31 166.54,156.99 164.88,158.03 C 163.31,159.01 161.36,159.42 159.53,159.13 C 158.64,158.98 157.76,158.66 157.09,158.0 C 156.72,157.64 156.48,157.22 156.28,156.75 C 156.17,156.49 156.07,156.26 155.84,156.06 C 155.56,155.82 155.09,155.87 154.81,156.06 C 154.51,156.27 154.41,156.62 154.38,156.94 C 154.35,157.19 154.34,157.41 154.13,157.59 C 153.74,157.93 153.14,157.81 152.94,157.34 C 152.68,156.75 152.66,156.62 152.31,156.06 C 152.07,155.67 151.79,155.33 151.47,155.0 C 150.15,153.67 148.09,152.82 146.31,152.5 C 145.81,152.41 145.3,152.35 144.78,152.38 C 144.72,152.38 144.66,152.4 144.59,152.41 C 144.6,152.4 144.59,152.38 144.59,152.38 C 144.61,152.35 144.64,152.34 144.66,152.31 C 144.74,152.22 144.8,152.13 144.88,152.03 C 145.03,151.84 145.17,151.64 145.31,151.44 C 145.87,150.64 146.21,149.83 146.31,148.84 C 146.41,147.9 146.3,146.79 146.06,145.88 C 145.94,145.4 145.78,144.94 145.56,144.5 C 145.34,144.05 145.02,143.7 145.31,143.13 C 145.49,142.79 145.83,142.59 146.19,142.59 z" />
		
		
		<text id="txtTwo" transform="matrix(1 0 0 1 150 160)" style="stroke:none;fill:#f00;font-family:'Eras Medium ITC';font-size:20px;text-anchor:middle"  >

		</text>
		<!-- Prism Reference -->
		<cam mingh:cam=" --verb EditSelectAll --verb ZoomSelection --verb FileSave "/> 
	 </g>

</svg>