<svg
   xmlns:xlink="http://www.w3.org/1999/xlink"
   xmlns:svg="http://www.w3.org/2000/svg"
   xmlns="http://www.w3.org/2000/svg"
   xmlns:mingh="http://www.minghworld.com"
   width="300px"
   height="300px" >
	 <g>
		
		<!-- Paths -->
		<path transform="matrix(-1 0 0 1 300 0)" style="fill:#ff0;stroke:none;"
		 d="M 149.75,131.09 C 147.42,131.24 145.56,133.52 146.25,136.03 C 146.47,136.83 146.94,137.55 147.59,138.06 C 147.67,138.12 147.76,138.16 147.84,138.22 C 147.88,138.25 147.9,138.29 147.94,138.31 C 147.95,138.32 148.0,138.34 147.97,138.34 C 147.89,138.35 147.8,138.36 147.72,138.38 C 147.56,138.4 147.41,138.41 147.25,138.44 C 146.61,138.55 145.97,138.7 145.34,138.88 C 144.09,139.22 142.85,139.67 141.66,140.19 C 139.27,141.23 137.09,142.55 135.0,144.09 C 132.66,145.82 130.55,147.73 128.44,149.72 C 127.39,150.71 126.35,151.72 125.31,152.72 C 125.05,152.97 124.79,153.22 124.53,153.47 C 124.52,153.48 124.48,153.52 124.47,153.53 C 124.46,153.54 124.42,153.55 124.44,153.56 C 124.47,153.59 124.5,153.63 124.53,153.66 L 124.72,153.84 C 124.85,153.97 125.0,154.09 125.13,154.22 C 125.64,154.72 126.17,155.22 126.69,155.72 C 130.78,159.64 135.06,163.7 140.28,166.28 C 142.75,167.5 145.75,168.57 148.53,168.84 C 151.49,169.14 154.29,168.5 157.0,167.47 C 162.65,165.32 166.91,161.76 171.19,157.75 C 172.24,156.76 173.27,155.78 174.31,154.78 C 174.57,154.53 174.84,154.28 175.09,154.03 C 175.22,153.91 175.34,153.78 175.47,153.66 C 175.48,153.64 175.52,153.61 175.53,153.59 C 175.54,153.58 175.58,153.58 175.56,153.56 C 175.53,153.53 175.5,153.5 175.47,153.47 L 175.28,153.28 C 174.76,152.78 174.24,152.28 173.72,151.78 C 171.63,149.78 169.54,147.79 167.31,145.94 C 165.08,144.09 162.77,142.43 160.19,141.09 C 157.74,139.83 154.76,138.71 152.0,138.34 C 153.28,137.57 154.01,136.14 153.88,134.66 C 153.74,133.18 152.79,131.88 151.41,131.34 C 150.85,131.13 150.29,131.06 149.75,131.09 z M 150.0,133.03 C 150.26,133.03 150.51,133.09 150.75,133.19 C 150.99,133.29 151.19,133.44 151.38,133.63 C 151.56,133.81 151.71,134.01 151.81,134.25 C 151.91,134.49 151.94,134.74 151.94,135.0 C 151.94,135.26 151.91,135.51 151.81,135.75 C 151.71,135.99 151.56,136.19 151.38,136.38 C 151.19,136.56 150.99,136.68 150.75,136.78 C 150.51,136.88 150.26,136.94 150.0,136.94 C 149.75,136.94 149.49,136.88 149.25,136.78 C 149.01,136.68 148.81,136.56 148.63,136.38 C 148.44,136.19 148.29,135.99 148.19,135.75 C 148.09,135.51 148.06,135.26 148.06,135.0 C 148.06,134.75 148.09,134.49 148.19,134.25 C 148.29,134.01 148.44,133.81 148.63,133.63 C 148.81,133.44 149.01,133.29 149.25,133.19 C 149.49,133.09 149.74,133.03 150.0,133.03 z M 155.06,145.97 C 158.64,147.41 161.53,149.57 164.38,152.06 C 164.73,152.37 165.06,152.69 165.41,153.0 C 165.58,153.16 165.77,153.31 165.94,153.47 L 166.0,153.53 C 166.01,153.54 166.05,153.55 166.03,153.56 C 166.02,153.57 166.01,153.58 166.0,153.59 C 165.96,153.63 165.92,153.68 165.88,153.72 C 165.79,153.8 165.68,153.86 165.59,153.94 C 164.91,154.57 164.21,155.18 163.5,155.78 C 162.07,156.99 160.62,158.13 159.03,159.13 C 158.24,159.62 157.43,160.06 156.59,160.47 C 156.18,160.67 155.74,160.85 155.31,161.03 C 155.26,161.05 155.21,161.1 155.16,161.13 C 155.16,161.12 155.15,161.1 155.16,161.09 C 155.25,161.03 155.34,160.98 155.44,160.91 C 155.63,160.77 155.82,160.59 156.0,160.44 C 157.42,159.21 158.42,157.57 158.88,155.75 C 159.8,152.02 158.26,148.11 155.06,145.97 z M 144.84,146.0 C 144.84,146.0 144.85,146.03 144.84,146.03 C 144.75,146.1 144.66,146.15 144.56,146.22 C 144.37,146.36 144.18,146.5 144.0,146.66 C 142.58,147.89 141.58,149.52 141.13,151.34 C 140.2,155.08 141.71,159.02 144.91,161.16 C 141.33,159.72 138.47,157.52 135.63,155.03 C 135.27,154.72 134.94,154.44 134.59,154.13 C 134.42,153.97 134.23,153.81 134.06,153.66 L 134.0,153.59 C 133.99,153.59 133.95,153.58 133.97,153.56 C 133.98,153.55 133.99,153.54 134.0,153.53 C 134.04,153.49 134.08,153.45 134.13,153.41 C 134.21,153.33 134.32,153.23 134.41,153.16 C 135.09,152.53 135.79,151.91 136.5,151.31 C 137.93,150.11 139.38,148.99 140.97,148.0 C 141.76,147.51 142.57,147.03 143.41,146.63 C 143.82,146.42 144.26,146.24 144.69,146.06 C 144.74,146.04 144.79,146.02 144.84,146.0 z" />
		
		
		<text id="txtTwo" transform="matrix(1 0 0 1 150 160)" style="stroke:none;fill:#f00;font-family:'Eras Medium ITC';font-size:20px;text-anchor:middle"  >

		</text>
		<!-- Prism Reference -->
		<cam mingh:cam=" --verb EditSelectAll --verb ZoomSelection --verb FileSave "/> 
	 </g>
</svg>