<svg
   xmlns:xlink="http://www.w3.org/1999/xlink"
   xmlns:svg="http://www.w3.org/2000/svg"
   xmlns="http://www.w3.org/2000/svg"
   xmlns:mingh="http://www.minghworld.com"
   width="300px"
   height="300px" >
	
	 <g>
		
		<!-- Paths -->
		<path style="fill:none;stroke:#000;stroke-width:0.25px;"
		 d="M 150.66,119.88 C 150.62,119.89 150.61,119.93 150.59,119.94 C 150.51,120.02 150.42,120.13 150.34,120.22 C 150.19,120.42 150.06,120.62 149.94,120.84 C 149.72,121.25 149.54,121.65 149.41,122.09 C 149.19,122.79 149.02,123.51 148.84,124.22 C 148.81,124.36 148.78,124.51 148.75,124.66 C 148.74,124.69 148.73,124.72 148.72,124.75 L 148.72,124.81 C 148.72,124.83 148.69,124.79 148.69,124.78 C 148.68,124.77 148.66,124.77 148.66,124.75 C 148.59,124.62 148.52,124.5 148.44,124.38 C 148.08,123.84 147.65,123.44 147.09,123.13 C 144.81,121.85 141.97,123.13 141.41,125.69 C 140.84,128.27 142.93,130.65 145.56,130.41 C 145.87,130.38 146.18,130.32 146.47,130.22 C 146.61,130.17 146.74,130.09 146.88,130.03 C 146.91,130.02 146.94,130.02 146.97,130.0 C 146.97,130.0 146.99,130.01 147.0,130.0 C 146.99,130.03 146.95,130.06 146.94,130.09 C 146.83,130.35 146.74,130.62 146.63,130.88 C 146.42,131.35 146.2,131.83 146.0,132.31 C 145.64,133.16 145.41,134.02 145.19,134.91 C 145.09,135.31 145.0,135.75 144.91,136.16 C 144.77,136.75 144.51,137.3 144.0,137.69 C 143.11,138.36 141.41,138.38 140.44,138.31 C 141.15,138.68 141.85,138.82 142.66,138.78 C 142.84,138.77 143.03,138.75 143.22,138.72 C 143.31,138.7 143.41,138.71 143.5,138.69 C 143.53,138.68 143.48,138.71 143.47,138.72 C 143.45,138.73 143.46,138.73 143.44,138.75 C 143.4,138.78 143.35,138.81 143.31,138.84 C 143.02,139.09 142.72,139.32 142.41,139.53 C 141.77,139.96 141.1,140.31 140.38,140.56 C 140.02,140.69 139.65,140.8 139.28,140.88 C 139.1,140.91 138.91,140.94 138.72,140.97 C 138.67,140.98 138.64,140.99 138.59,141.0 C 138.69,141.01 138.78,141.02 138.88,141.03 C 139.64,141.11 140.37,141.09 141.13,140.97 C 141.17,140.96 141.2,140.95 141.25,140.94 C 141.27,140.93 141.32,140.94 141.34,140.94 C 141.28,141.0 141.22,141.07 141.16,141.13 C 141.01,141.25 140.87,141.38 140.72,141.5 C 140.42,141.74 140.08,141.95 139.75,142.16 C 139.42,142.36 139.1,142.53 138.75,142.69 C 138.58,142.77 138.4,142.84 138.22,142.91 C 138.13,142.94 138.06,143.0 137.97,143.03 C 137.95,143.04 137.93,143.02 137.91,143.03 C 137.9,143.03 137.91,143.06 137.91,143.06 C 137.95,143.07 138.02,143.06 138.06,143.06 C 138.84,143.1 139.55,142.97 140.28,142.69 C 140.3,142.68 140.32,142.7 140.34,142.69 C 140.32,142.7 140.3,142.73 140.28,142.75 C 140.21,142.81 140.14,142.87 140.06,142.94 C 139.91,143.07 139.76,143.2 139.63,143.34 C 139.34,143.63 139.1,143.92 138.88,144.25 C 138.4,144.94 138.06,145.71 137.78,146.5 C 137.46,147.4 137.31,147.97 136.78,148.78 C 136.67,148.95 136.53,149.12 136.41,149.28 C 136.34,149.36 136.28,149.45 136.22,149.53 C 136.19,149.57 136.16,149.62 136.13,149.66 C 136.08,149.71 136.19,149.64 136.22,149.63 C 136.59,149.51 136.95,149.36 137.28,149.16 C 137.62,148.95 137.9,148.67 138.19,148.41 C 138.47,148.14 138.79,147.91 139.09,147.66 C 139.13,147.63 139.16,147.62 139.19,147.59 C 139.13,147.68 139.05,147.76 139.0,147.84 C 138.89,148.02 138.79,148.2 138.69,148.38 C 138.48,148.74 138.32,149.12 138.16,149.5 C 137.49,151.1 137.18,152.83 137.28,154.56 C 137.31,155.01 137.36,155.44 137.44,155.88 C 137.47,156.09 137.51,156.32 137.56,156.53 C 137.59,156.64 137.6,156.74 137.63,156.84 C 137.63,156.85 137.65,156.84 137.66,156.84 C 137.66,156.82 137.65,156.81 137.66,156.78 C 137.66,156.73 137.68,156.65 137.69,156.59 C 137.82,155.73 138.03,154.93 138.38,154.13 C 138.7,153.35 139.1,152.61 139.56,151.91 C 139.78,151.57 140.0,151.27 140.28,150.97 C 140.42,150.82 140.57,150.67 140.72,150.53 C 140.76,150.5 140.78,150.47 140.81,150.44 C 140.82,150.43 140.83,150.41 140.84,150.41 C 140.85,150.4 140.88,150.39 140.88,150.41 C 140.87,150.43 140.85,150.44 140.84,150.47 C 140.81,150.57 140.79,150.65 140.75,150.75 C 140.19,152.27 139.7,153.84 139.19,155.38 C 138.88,156.32 138.59,157.01 138.56,158.03 C 138.55,158.71 138.6,159.39 138.66,160.06 C 138.74,160.96 138.85,161.84 139.03,162.72 C 139.39,164.5 139.96,166.14 140.88,167.72 C 141.29,168.43 141.74,169.1 142.25,169.75 C 142.37,169.91 142.5,170.06 142.63,170.22 C 142.66,170.26 142.72,170.31 142.75,170.34 C 142.77,170.36 142.77,170.39 142.78,170.41 C 142.81,170.44 142.78,170.36 142.78,170.34 C 142.77,170.25 142.76,170.13 142.75,170.03 C 142.7,169.67 142.65,169.3 142.63,168.94 C 142.58,168.09 142.57,167.28 142.69,166.44 C 142.86,165.22 143.17,164.86 143.78,163.84 C 143.98,163.52 144.16,163.18 144.34,162.84 C 144.47,162.61 144.57,162.39 144.69,162.16 C 144.73,162.08 144.88,161.77 144.81,161.94 C 144.79,162.01 144.78,162.06 144.75,162.13 C 144.47,162.84 144.18,163.56 143.94,164.28 C 143.77,164.77 143.62,165.27 143.53,165.78 C 143.47,166.15 143.46,166.51 143.44,166.88 C 143.4,167.73 143.42,168.58 143.5,169.44 C 143.53,169.82 143.58,170.21 143.63,170.59 C 143.66,170.87 143.68,171.14 143.78,171.41 C 144.02,172.04 144.87,172.66 145.34,173.03 C 145.91,173.47 146.5,173.87 147.13,174.22 C 147.75,174.56 148.38,174.83 149.06,175.03 C 149.4,175.13 149.75,175.22 150.09,175.31 C 150.26,175.36 150.45,175.42 150.63,175.47 C 150.67,175.48 150.71,175.49 150.75,175.5 C 150.77,175.51 150.79,175.53 150.81,175.53 C 150.82,175.53 150.83,175.53 150.84,175.53 C 150.86,175.54 150.85,175.51 150.84,175.5 C 150.83,175.41 150.79,175.31 150.78,175.22 C 150.57,173.75 150.55,172.3 150.66,170.81 C 150.68,170.44 150.7,170.08 150.75,169.72 C 150.75,169.68 150.78,169.66 150.78,169.63 C 150.79,169.72 150.8,169.78 150.81,169.88 C 150.83,170.06 150.85,170.26 150.88,170.44 C 150.97,171.16 151.11,171.88 151.25,172.59 C 151.39,173.31 151.51,174.01 151.69,174.72 C 151.77,175.07 151.87,175.43 151.97,175.78 C 151.98,175.82 151.99,175.86 152.0,175.91 C 152.02,175.96 152.06,175.95 152.09,175.97 C 152.17,176.0 152.27,176.03 152.34,176.06 C 152.5,176.14 152.66,176.23 152.81,176.31 C 153.11,176.49 153.37,176.71 153.66,176.91 C 153.94,177.11 154.23,177.27 154.53,177.44 C 155.13,177.77 155.75,178.12 156.34,178.47 C 156.77,178.71 157.16,179.0 157.56,179.28 C 157.66,179.35 157.74,179.43 157.84,179.5 C 157.9,179.53 157.95,179.56 158.0,179.59 C 158.03,179.61 158.07,179.64 158.09,179.66 C 158.1,179.66 158.12,179.65 158.13,179.66 C 158.07,179.49 158.0,179.32 157.94,179.16 C 157.7,178.51 157.45,177.87 157.16,177.25 C 156.87,176.63 156.56,176.03 156.22,175.44 C 156.05,175.14 155.87,174.85 155.69,174.56 C 155.6,174.42 155.53,174.27 155.44,174.13 C 156.04,174.95 156.63,175.8 157.16,176.69 C 157.49,177.25 157.81,177.82 158.09,178.41 C 158.24,178.71 158.37,179.01 158.5,179.31 C 158.57,179.47 158.63,179.62 158.69,179.78 C 158.69,179.79 158.71,179.84 158.72,179.84 L 158.78,179.84 C 158.83,179.85 158.89,179.84 158.94,179.84 C 159.03,179.85 159.12,179.87 159.22,179.88 C 160.48,179.98 161.73,180.25 163.03,180.09 C 163.11,180.08 163.17,180.07 163.25,180.06 C 163.36,180.05 163.48,180.02 163.59,180.0 C 163.65,179.99 163.72,179.98 163.78,179.97 C 163.81,179.96 163.85,179.94 163.88,179.94 C 163.9,179.93 163.85,179.92 163.84,179.91 C 163.84,179.89 163.85,179.89 163.84,179.88 C 163.63,179.44 163.38,179.0 163.06,178.63 C 162.91,178.44 162.76,178.26 162.63,178.06 C 162.56,177.96 162.51,177.85 162.44,177.75 C 162.45,177.76 162.46,177.75 162.47,177.75 C 162.51,177.76 162.55,177.8 162.59,177.81 C 162.76,177.87 162.93,177.91 163.09,177.97 C 163.13,177.98 163.18,177.99 163.22,178.0 C 163.24,178.01 163.26,178.02 163.28,178.03 C 163.29,178.04 163.33,178.05 163.31,178.03 C 163.3,178.02 163.29,177.98 163.28,177.97 C 163.25,177.92 163.22,177.86 163.19,177.81 C 162.93,177.37 162.84,176.94 162.81,176.44 C 162.79,175.95 162.78,175.45 162.66,174.97 C 162.54,174.5 162.35,174.06 162.16,173.63 C 161.77,172.76 161.36,171.94 160.81,171.16 C 160.54,170.77 160.23,170.41 159.91,170.06 C 159.89,170.04 159.9,170.02 159.88,170.0 C 159.86,169.99 159.85,169.98 159.84,169.97 C 159.83,169.95 159.83,169.94 159.84,169.94 C 159.9,169.91 159.97,169.9 160.03,169.88 C 160.15,169.83 160.27,169.77 160.38,169.69 C 160.59,169.51 160.71,169.34 160.75,169.06 C 160.77,168.94 160.74,168.81 160.72,168.69 C 160.71,168.66 160.73,168.65 160.72,168.63 C 160.72,168.63 160.69,168.65 160.69,168.66 C 160.67,168.72 160.65,168.76 160.63,168.81 C 160.5,169.06 160.24,169.15 160.0,169.16 C 159.51,169.18 159.01,168.97 158.75,168.53 C 158.51,168.13 158.48,167.68 158.34,167.25 C 158.2,166.79 157.95,166.47 157.56,166.19 C 157.19,165.91 156.78,165.74 156.38,165.53 C 155.96,165.33 155.56,165.11 155.16,164.91 C 154.74,164.7 154.32,164.49 153.91,164.28 C 153.86,164.26 153.82,164.24 153.78,164.22 L 153.84,164.22 C 153.91,164.22 153.99,164.21 154.06,164.22 C 154.2,164.23 154.33,164.24 154.47,164.25 C 155.04,164.31 155.56,164.47 156.09,164.69 C 156.61,164.9 157.09,165.15 157.56,165.44 C 157.78,165.57 157.98,165.7 158.19,165.84 C 158.3,165.92 158.39,166.01 158.5,166.09 C 158.51,166.1 158.52,166.09 158.53,166.09 C 158.52,166.07 158.51,166.02 158.5,166.0 C 158.47,165.95 158.43,165.92 158.41,165.88 C 158.38,165.83 158.37,165.77 158.34,165.72 C 158.33,165.69 158.29,165.65 158.28,165.63 C 158.29,165.63 158.31,165.62 158.31,165.63 C 159.02,166.03 159.67,166.44 160.53,166.53 C 160.79,166.56 161.05,166.56 161.31,166.56 C 161.64,166.57 161.98,166.6 162.31,166.59 C 162.42,166.59 162.51,166.6 162.63,166.56 C 162.77,166.51 162.59,166.44 162.5,166.41 C 161.97,166.23 161.35,166.17 160.84,165.88 C 160.49,165.67 160.22,165.4 159.97,165.09 C 159.7,164.77 159.45,164.43 159.16,164.13 C 158.55,163.49 157.88,162.95 157.44,162.16 C 157.22,161.76 157.12,161.33 157.0,160.91 C 156.88,160.45 156.72,160.02 156.53,159.59 C 156.35,159.18 156.15,158.78 155.91,158.41 C 155.79,158.24 155.67,158.09 155.53,157.94 C 155.43,157.83 155.32,157.72 155.22,157.63 C 155.19,157.6 155.18,157.56 155.16,157.53 C 155.55,157.8 155.86,158.13 156.16,158.5 C 156.45,158.86 156.69,159.24 156.94,159.63 C 157.18,160.0 157.42,160.39 157.63,160.78 C 157.65,160.82 157.67,160.84 157.69,160.88 C 157.69,160.85 157.72,160.81 157.72,160.78 C 157.72,160.67 157.72,160.58 157.72,160.47 C 157.72,160.25 157.73,160.0 157.72,159.78 C 157.68,158.88 157.56,158.03 157.31,157.16 C 157.21,156.81 157.1,156.48 156.94,156.16 C 156.9,156.08 156.86,155.98 156.81,155.91 C 156.8,155.89 156.79,155.89 156.78,155.88 C 156.78,155.87 156.76,155.85 156.75,155.84 C 156.75,155.83 156.73,155.81 156.75,155.81 C 156.82,155.83 156.89,155.83 156.97,155.84 C 157.28,155.88 157.57,155.88 157.88,155.84 C 158.53,155.76 159.02,155.52 159.25,154.84 C 159.3,154.7 159.32,154.53 159.34,154.38 C 159.35,154.3 159.37,154.23 159.38,154.16 C 159.37,154.17 159.35,154.18 159.34,154.19 C 159.26,154.36 159.16,154.49 159.03,154.63 C 158.79,154.88 158.44,155.18 158.03,155.06 C 157.94,155.04 157.83,154.99 157.75,154.94 C 157.71,154.91 157.69,154.87 157.66,154.84 C 157.65,154.84 157.64,154.82 157.63,154.81 C 157.64,154.81 157.64,154.78 157.66,154.78 C 157.85,154.74 158.02,154.69 158.19,154.59 C 158.83,154.22 159.17,153.43 159.16,152.72 C 159.14,152.02 158.77,151.29 158.16,150.91 C 157.84,150.71 157.45,150.59 157.06,150.63 C 156.87,150.65 156.68,150.72 156.5,150.81 C 156.41,150.86 156.33,150.88 156.25,150.94 C 156.21,150.97 156.19,151.0 156.16,151.03 C 156.14,151.05 156.11,151.08 156.09,151.09 C 156.08,151.1 156.07,151.09 156.06,151.09 C 156.06,151.1 156.04,151.12 156.06,151.13 C 156.68,151.2 157.64,151.6 157.78,152.34 C 157.85,152.72 157.7,153.07 157.41,153.31 C 157.09,153.57 156.7,153.66 156.31,153.59 C 155.91,153.53 155.61,153.33 155.31,153.06 C 154.99,152.77 154.81,152.45 154.72,152.03 C 154.52,151.11 154.75,150.18 154.22,149.28 C 154.02,148.94 153.77,148.68 153.44,148.47 C 153.27,148.36 153.09,148.28 152.91,148.22 C 152.82,148.19 152.72,148.15 152.63,148.13 C 152.6,148.12 152.59,148.13 152.56,148.13 C 152.56,148.12 152.57,148.1 152.56,148.09 C 152.61,148.09 152.67,148.09 152.72,148.09 C 153.61,148.09 154.11,148.63 154.59,149.25 C 154.82,149.54 155.03,149.85 155.19,150.19 C 155.23,150.27 155.25,150.35 155.28,150.44 C 155.29,150.47 155.28,150.39 155.28,150.38 C 155.28,150.35 155.28,150.34 155.28,150.31 C 155.28,150.27 155.29,150.23 155.28,150.19 C 155.27,150.01 155.22,149.8 155.19,149.63 C 155.07,148.89 154.88,148.2 154.56,147.53 C 154.22,146.82 153.81,146.27 153.16,145.81 C 153.17,145.82 153.2,145.81 153.22,145.81 C 153.31,145.85 153.38,145.89 153.47,145.94 C 153.64,146.03 153.78,146.14 153.94,146.25 C 154.25,146.48 154.52,146.76 154.75,147.06 C 155.15,147.58 155.43,148.12 155.59,148.75 C 155.63,148.89 155.66,149.01 155.69,149.16 C 155.69,149.12 155.71,149.1 155.72,149.06 C 155.73,148.99 155.74,148.89 155.75,148.81 C 155.78,148.5 155.8,148.22 155.78,147.91 C 155.72,146.61 155.19,145.41 154.41,144.41 C 153.99,143.88 153.54,143.42 153.0,143.03 C 152.73,142.84 152.45,142.66 152.16,142.5 C 152.01,142.42 151.84,142.35 151.69,142.28 C 151.58,142.23 151.82,142.33 151.88,142.34 C 151.96,142.36 152.04,142.39 152.13,142.41 C 152.45,142.48 152.76,142.51 153.09,142.53 C 153.26,142.54 153.43,142.54 153.59,142.53 C 153.63,142.53 153.68,142.53 153.72,142.53 C 153.74,142.53 153.7,142.51 153.69,142.5 C 153.67,142.49 153.64,142.48 153.63,142.47 C 153.6,142.45 153.59,142.45 153.56,142.44 C 153.45,142.38 153.33,142.31 153.22,142.25 C 152.33,141.73 151.53,141.11 150.78,140.41 C 150.02,139.7 149.36,138.99 148.94,138.0 C 148.6,137.21 148.53,136.72 148.53,135.88 C 148.53,134.99 148.64,133.8 148.81,132.94 C 148.96,132.17 149.23,131.47 149.59,130.78 C 150.16,129.71 151.02,128.57 151.91,127.75 C 152.16,127.51 152.44,127.33 152.72,127.13 C 153.08,126.87 152.9,126.42 152.72,126.13 C 152.49,125.75 152.21,125.46 151.97,125.09 C 151.73,124.73 151.5,124.36 151.31,123.97 C 151.0,123.29 150.88,122.61 150.81,121.88 C 150.78,121.57 150.78,121.25 150.78,120.94 C 150.78,120.76 150.78,120.59 150.78,120.41 C 150.78,120.35 150.81,119.93 150.75,119.88 C 150.73,119.86 150.69,119.86 150.66,119.88 z M 145.13,124.56 C 145.38,124.55 145.64,124.6 145.88,124.69 C 146.11,124.78 146.34,124.92 146.53,125.09 C 146.72,125.27 146.86,125.46 146.97,125.69 C 147.08,125.92 147.15,126.18 147.16,126.44 C 147.17,126.69 147.12,126.95 147.03,127.19 C 146.94,127.43 146.8,127.66 146.63,127.84 C 146.45,128.03 146.26,128.17 146.03,128.28 C 145.8,128.39 145.54,128.46 145.28,128.47 C 145.03,128.48 144.77,128.43 144.53,128.34 C 144.29,128.26 144.06,128.14 143.88,127.97 C 143.69,127.8 143.54,127.58 143.44,127.34 C 143.33,127.11 143.26,126.85 143.25,126.59 C 143.24,126.34 143.29,126.08 143.38,125.84 C 143.46,125.6 143.61,125.38 143.78,125.19 C 143.95,125.0 144.14,124.86 144.38,124.75 C 144.61,124.64 144.87,124.57 145.13,124.56 z M 146.59,140.0 C 145.87,143.01 145.6,146.22 145.75,149.41 C 145.81,150.56 145.89,151.68 146.06,152.78 C 146.23,153.88 146.48,154.95 146.75,155.91 C 147.05,156.98 147.41,157.94 147.81,158.88 C 148.22,159.81 148.68,160.7 149.16,161.69 C 149.55,162.51 149.95,163.4 150.41,164.28 C 150.87,165.16 151.37,166.04 151.94,166.88 C 153.11,168.6 154.55,170.1 156.09,171.41 C 154.41,170.4 152.8,169.17 151.5,167.63 C 150.65,166.61 149.95,165.48 149.31,164.31 C 148.68,163.15 148.12,161.95 147.59,160.81 C 147.05,159.62 146.51,158.5 146.06,157.34 C 145.62,156.18 145.27,154.96 145.03,153.66 C 144.79,152.33 144.69,150.89 144.72,149.41 C 144.75,147.92 144.88,146.41 145.16,144.94 C 145.48,143.21 145.96,141.57 146.59,140.0 z"
		 />
		 <path style="fill:#f00;stroke:none;"
		 d="M 140.72,167.13 C 140.63,166.94 140.53,166.76 140.45,166.57 C 140.4,166.48 140.36,166.39 140.32,166.29 C 140.29,166.25 140.27,166.2 140.25,166.15 C 140.24,166.13 140.22,166.11 140.22,166.08 C 140.23,166.06 140.23,166.03 140.23,166.0 C 140.26,165.59 140.34,165.19 140.49,164.8 C 140.78,164.01 141.27,163.36 141.69,162.65 C 142.12,161.94 142.45,161.2 142.75,160.42 C 142.89,160.04 143.03,159.65 143.16,159.26 C 143.23,159.07 143.29,158.87 143.35,158.68 C 143.4,158.54 143.45,158.22 143.66,158.17 C 143.78,158.15 143.85,158.18 143.92,158.28 C 144.0,158.38 143.98,158.47 143.94,158.57 C 143.88,158.77 143.82,158.97 143.76,159.16 C 143.63,159.56 143.49,159.94 143.35,160.33 C 143.06,161.1 142.75,161.86 142.34,162.58 C 141.94,163.3 141.44,163.95 141.1,164.71 C 140.93,165.1 140.82,165.48 140.77,165.9 C 140.75,166.1 140.74,166.31 140.74,166.51 C 140.74,166.62 140.75,166.72 140.75,166.82 C 140.75,166.93 140.78,167.02 140.72,167.13 z M 146.24,158.12 C 146.09,159.05 145.86,159.95 145.54,160.84 C 145.47,161.06 145.38,161.28 145.29,161.5 C 145.25,161.61 145.2,161.72 145.15,161.82 C 145.1,161.93 145.09,162.04 144.96,162.11 C 144.94,162.12 144.88,162.16 144.9,162.12 C 144.91,162.08 144.92,162.05 144.93,162.02 C 144.95,161.97 144.99,161.92 144.98,161.85 C 144.97,161.76 144.87,161.7 144.79,161.74 C 144.73,161.76 144.71,161.81 144.69,161.86 C 144.67,161.89 144.66,161.92 144.64,161.95 C 144.63,161.97 144.63,161.98 144.62,162.0 C 144.62,162.0 144.61,162.01 144.61,162.01 C 144.6,162.0 144.6,161.99 144.6,161.98 C 144.52,161.83 144.61,161.73 144.67,161.61 C 145.05,160.74 145.33,159.86 145.54,158.94 C 145.64,158.48 145.72,158.02 145.78,157.55 C 145.8,157.44 145.78,157.33 145.84,157.21 C 145.85,157.2 145.86,157.19 145.87,157.18 C 145.87,157.16 145.87,157.19 145.87,157.2 C 145.88,157.2 145.88,157.21 145.88,157.22 C 145.89,157.24 145.9,157.27 145.91,157.3 C 145.93,157.35 145.95,157.41 145.98,157.46 C 146.06,157.68 146.15,157.9 146.24,158.12 z M 148.97,174.86 C 148.76,174.79 148.56,174.72 148.35,174.65 C 148.3,174.63 148.24,174.63 148.22,174.57 C 148.19,174.52 148.17,174.47 148.15,174.42 C 148.12,174.32 148.08,174.21 148.06,174.11 C 147.95,173.67 147.95,173.24 147.95,172.8 C 147.96,172.37 147.98,171.93 148.03,171.5 C 148.04,171.35 148.17,170.36 148.29,170.22 C 148.45,170.03 148.77,170.15 148.76,170.4 C 148.76,170.51 148.71,170.61 148.69,170.72 C 148.67,170.82 148.65,170.93 148.63,171.04 C 148.55,171.47 148.51,171.9 148.5,172.34 C 148.48,172.77 148.47,173.21 148.52,173.65 C 148.54,173.87 148.59,174.07 148.67,174.28 C 148.71,174.38 148.76,174.48 148.81,174.58 C 148.86,174.67 148.94,174.75 148.97,174.86 z M 141.2,154.64 C 141.27,154.44 141.55,154.41 141.67,154.59 C 141.73,154.69 141.71,154.77 141.68,154.87 C 141.64,154.96 141.61,155.06 141.58,155.15 C 141.45,155.52 141.31,155.89 141.19,156.26 C 140.93,157.0 140.67,157.75 140.43,158.5 C 140.18,159.24 139.92,159.99 139.69,160.74 C 139.43,161.58 139.34,162.18 139.4,163.06 C 139.41,163.17 139.42,163.26 139.35,163.35 C 139.31,163.4 139.31,163.28 139.3,163.25 C 139.29,163.2 139.28,163.15 139.27,163.11 C 139.23,162.91 139.19,162.72 139.15,162.53 C 139.11,162.34 139.08,162.14 139.05,161.95 C 139.03,161.85 139.01,161.75 139.0,161.66 C 138.98,161.56 138.95,161.47 138.98,161.37 C 139.14,160.59 139.42,159.86 139.66,159.11 C 140.16,157.61 140.66,156.13 141.2,154.64 z M 146.56,167.96 C 146.68,167.63 147.18,167.82 147.05,168.16 C 146.96,168.42 146.87,168.69 146.8,168.96 C 146.65,169.51 146.55,170.05 146.51,170.62 C 146.48,171.19 146.53,171.74 146.59,172.3 C 146.62,172.58 146.65,172.86 146.68,173.14 C 146.7,173.28 146.72,173.42 146.78,173.55 C 146.81,173.61 146.84,173.68 146.88,173.73 C 146.92,173.79 146.98,173.84 147.01,173.9 C 147.03,173.93 147.04,173.96 147.05,174.0 C 147.05,174.01 147.05,174.02 147.05,174.02 C 147.05,174.04 147.03,174.02 147.03,174.01 C 147.01,174.0 147.0,174.0 146.98,173.99 C 146.92,173.95 146.86,173.92 146.8,173.88 C 146.68,173.81 146.56,173.73 146.44,173.66 C 146.38,173.62 146.32,173.58 146.27,173.54 C 146.24,173.52 146.21,173.51 146.2,173.47 C 146.19,173.43 146.19,173.4 146.18,173.36 C 146.16,173.23 146.14,173.09 146.12,172.95 C 146.06,172.39 145.99,171.83 145.97,171.27 C 145.94,170.1 146.16,169.05 146.56,167.96 z M 161.31,179.94 C 161.15,179.93 160.99,179.91 160.83,179.89 C 160.79,179.89 160.75,179.89 160.71,179.88 C 160.69,179.88 160.66,179.79 160.65,179.78 C 160.62,179.71 160.59,179.63 160.55,179.56 C 160.42,179.27 160.28,178.97 160.14,178.68 C 160.01,178.39 159.87,178.09 159.74,177.8 C 159.67,177.66 159.6,177.51 159.53,177.36 C 159.47,177.23 159.35,177.07 159.46,176.91 C 159.55,176.76 159.76,176.74 159.88,176.87 C 159.92,176.92 160.07,177.26 160.09,177.3 C 160.23,177.6 160.36,177.89 160.5,178.18 C 160.77,178.77 161.04,179.36 161.31,179.94 z M 156.98,155.69 C 156.83,155.68 156.53,155.59 156.6,155.82 C 156.62,155.9 156.67,155.95 156.71,156.02 C 156.72,156.04 156.73,156.05 156.74,156.07 C 156.75,156.1 156.71,156.08 156.69,156.07 C 156.64,156.07 156.61,156.05 156.57,156.02 C 156.5,155.97 156.46,155.89 156.4,155.83 C 156.34,155.77 156.28,155.72 156.21,155.66 C 156.08,155.55 155.94,155.46 155.79,155.37 C 155.2,155.03 154.56,154.8 153.94,154.51 C 152.71,153.94 151.56,153.29 150.48,152.45 C 149.4,151.6 148.53,150.63 147.78,149.48 C 147.09,148.41 146.44,147.07 146.06,145.85 C 146.03,145.77 145.99,145.7 145.99,145.61 C 145.99,145.51 146.03,145.44 146.11,145.39 C 146.26,145.29 146.46,145.36 146.51,145.53 C 146.61,145.85 146.72,146.17 146.85,146.48 C 147.09,147.11 147.38,147.72 147.7,148.31 C 148.36,149.51 149.13,150.56 150.16,151.48 C 151.18,152.4 152.3,153.09 153.51,153.71 C 154.11,154.01 154.73,154.28 155.34,154.55 C 155.65,154.69 155.95,154.84 156.23,155.02 C 156.42,155.14 156.87,155.48 156.98,155.69 z M 158.54,165.58 C 158.46,165.54 158.26,165.38 158.16,165.47 C 158.1,165.53 158.11,165.58 158.14,165.64 C 158.15,165.66 158.12,165.63 158.11,165.63 C 158.11,165.62 158.1,165.62 158.09,165.61 C 158.07,165.6 158.06,165.59 158.04,165.58 C 158.01,165.55 157.97,165.53 157.94,165.51 C 157.67,165.33 157.39,165.16 157.1,165.0 C 156.96,164.92 156.82,164.85 156.67,164.78 C 156.6,164.74 156.53,164.71 156.45,164.67 C 156.38,164.64 156.3,164.62 156.24,164.57 C 155.98,164.36 155.74,164.15 155.5,163.93 C 154.57,163.07 153.76,162.11 152.95,161.15 C 151.91,159.92 151.49,159.55 150.09,158.73 C 149.55,158.42 149.0,158.11 148.49,157.73 C 148.24,157.55 148.0,157.34 147.78,157.12 C 147.67,157.01 147.56,156.89 147.46,156.77 C 147.4,156.68 147.23,156.51 147.24,156.37 C 147.25,156.2 147.41,156.08 147.58,156.13 C 147.69,156.16 147.84,156.39 147.9,156.46 C 148.1,156.7 148.33,156.92 148.57,157.12 C 149.06,157.52 149.6,157.83 150.15,158.15 C 151.49,158.93 152.05,159.3 153.08,160.48 C 154.08,161.63 154.5,162.23 155.6,163.29 C 156.05,163.72 156.52,164.14 157.03,164.51 C 157.29,164.7 157.55,164.87 157.82,165.03 C 157.95,165.12 158.09,165.19 158.22,165.27 C 158.37,165.34 158.53,165.37 158.54,165.58 z M 153.11,145.62 C 153.04,145.58 152.95,145.6 152.92,145.68 C 152.87,145.78 152.93,145.83 153.0,145.88 C 153.05,145.91 153.09,145.94 153.13,145.97 C 153.14,145.98 153.17,145.98 153.15,145.99 C 153.14,146.0 153.13,146.0 153.12,146.0 C 153.09,146.01 153.06,146.01 153.03,146.01 C 152.91,146.0 152.84,145.92 152.74,145.86 C 152.36,145.63 151.96,145.46 151.55,145.3 C 150.79,145.01 150.02,144.74 149.32,144.31 C 147.81,143.38 146.98,142.12 146.81,140.34 C 146.8,140.23 146.8,140.14 146.9,140.06 C 146.99,139.98 147.07,139.97 147.18,140.02 C 147.37,140.1 147.35,140.43 147.37,140.57 C 147.43,140.98 147.53,141.36 147.69,141.75 C 148.02,142.55 148.53,143.11 149.22,143.61 C 149.9,144.1 150.64,144.39 151.41,144.68 C 151.79,144.82 152.17,144.97 152.54,145.15 C 152.72,145.23 152.9,145.33 153.07,145.44 C 153.16,145.49 153.25,145.53 153.3,145.64 C 153.31,145.66 153.32,145.69 153.32,145.71 C 153.32,145.74 153.3,145.7 153.29,145.7 C 153.27,145.69 153.26,145.69 153.25,145.68 C 153.21,145.66 153.16,145.64 153.11,145.62 z M 162.51,175.03 C 161.91,174.76 161.31,174.49 160.71,174.22 C 160.41,174.08 160.11,173.95 159.81,173.81 C 159.76,173.79 159.4,173.63 159.36,173.6 C 159.22,173.49 159.24,173.27 159.39,173.17 C 159.55,173.07 159.72,173.19 159.85,173.25 C 160.0,173.32 160.15,173.38 160.3,173.45 C 160.6,173.58 160.9,173.72 161.2,173.86 C 161.5,173.99 161.8,174.13 162.1,174.26 C 162.14,174.28 162.17,174.29 162.21,174.31 C 162.23,174.32 162.25,174.33 162.27,174.34 C 162.29,174.34 162.31,174.34 162.32,174.37 C 162.35,174.44 162.38,174.52 162.41,174.6 C 162.43,174.68 162.46,174.75 162.48,174.83 C 162.5,174.87 162.51,174.91 162.52,174.95 C 162.52,174.97 162.53,174.99 162.53,175.01 C 162.53,175.02 162.55,175.04 162.54,175.04 C 162.53,175.04 162.52,175.03 162.51,175.03 z M 153.76,164.06 C 153.64,164.05 153.54,164.16 153.61,164.27 C 153.66,164.33 153.72,164.35 153.78,164.38 C 153.82,164.39 153.85,164.41 153.89,164.43 C 153.9,164.44 153.88,164.45 153.87,164.46 C 153.86,164.47 153.84,164.48 153.82,164.48 C 153.67,164.54 153.59,164.46 153.48,164.39 C 153.37,164.32 153.27,164.25 153.17,164.18 C 152.76,163.88 152.36,163.58 152.0,163.23 C 151.78,163.02 152.02,162.66 152.3,162.8 C 152.34,162.82 152.55,163.01 152.58,163.04 C 152.68,163.12 152.77,163.2 152.87,163.28 C 153.07,163.44 153.27,163.59 153.47,163.74 C 153.57,163.81 153.67,163.88 153.78,163.95 C 153.83,163.99 153.89,164.01 153.93,164.06 C 153.94,164.08 153.91,164.07 153.9,164.07 C 153.88,164.07 153.87,164.07 153.85,164.07 C 153.82,164.07 153.79,164.06 153.76,164.06 z M 153.61,175.1 C 153.49,174.59 153.39,174.09 153.31,173.58 C 153.29,173.43 153.12,172.21 153.16,172.04 C 153.25,171.73 153.67,171.8 153.69,172.12 C 153.71,172.38 153.73,172.63 153.76,172.89 C 153.82,173.4 153.9,173.91 154.0,174.41 C 154.22,175.43 154.52,176.41 154.92,177.36 C 154.93,177.39 154.95,177.42 154.96,177.45 C 154.96,177.47 154.96,177.48 154.96,177.5 C 154.97,177.52 154.95,177.5 154.94,177.5 C 154.88,177.47 154.82,177.44 154.77,177.4 C 154.66,177.34 154.54,177.28 154.43,177.22 C 154.38,177.18 154.32,177.15 154.27,177.12 C 154.24,177.1 154.19,176.97 154.18,176.95 C 154.14,176.83 154.1,176.7 154.05,176.58 C 153.88,176.09 153.74,175.6 153.61,175.1 z M 155.17,157.76 C 155.06,157.78 154.99,157.74 154.91,157.67 C 154.84,157.62 154.76,157.56 154.69,157.51 C 154.55,157.39 154.4,157.29 154.24,157.19 C 153.94,156.98 153.62,156.79 153.3,156.6 C 152.98,156.42 152.66,156.24 152.34,156.05 C 152.18,155.96 151.97,155.89 152.03,155.65 C 152.1,155.43 152.3,155.42 152.48,155.52 C 153.12,155.89 153.77,156.24 154.39,156.64 C 154.7,156.85 155.0,157.05 155.28,157.3 C 155.32,157.33 155.34,157.36 155.36,157.41 C 155.37,157.43 155.37,157.46 155.37,157.48 C 155.37,157.49 155.38,157.51 155.37,157.5 C 155.36,157.5 155.35,157.49 155.34,157.48 C 155.27,157.43 155.22,157.35 155.1,157.35 C 155.0,157.36 154.94,157.46 154.98,157.56 C 155.02,157.65 155.1,157.69 155.17,157.76 z M 143.52,152.82 C 143.57,152.68 143.72,152.61 143.87,152.66 C 144.02,152.72 144.06,152.87 144.02,153.02 C 143.92,153.29 143.83,153.56 143.74,153.83 C 143.55,154.37 143.36,154.91 143.16,155.45 C 142.76,156.52 142.32,157.58 141.86,158.63 C 141.61,159.21 140.73,161.19 140.51,161.78 C 140.07,162.96 139.93,163.9 140.01,165.15 C 140.01,165.23 140.03,165.29 140.0,165.37 C 139.99,165.39 139.97,165.47 139.95,165.42 C 139.94,165.39 139.93,165.35 139.92,165.32 C 139.87,165.19 139.82,165.05 139.77,164.92 C 139.68,164.64 139.6,164.37 139.52,164.1 C 139.5,164.03 139.48,163.96 139.48,163.89 C 139.49,163.82 139.49,163.74 139.5,163.67 C 139.52,163.53 139.53,163.39 139.56,163.25 C 139.6,162.96 139.67,162.69 139.74,162.41 C 140.06,161.3 140.57,160.27 141.02,159.22 C 142.11,156.75 142.66,155.39 143.52,152.82 z"
		 />
		<!-- Prism Reference -->
		<cam mingh:cam=" --verb EditSelectAll --verb ZoomSelection --verb FileSave "/> 
	 </g>

</svg>
