<svg
   xmlns:xlink="http://www.w3.org/1999/xlink"
   xmlns:svg="http://www.w3.org/2000/svg"
   xmlns="http://www.w3.org/2000/svg"
   xmlns:mingh="http://www.minghworld.com"
   width="300px"
   height="300px" >
	
	 <g>
		
		<!-- Paths -->
		<path style="fill:none;stroke:#000;stroke-width:0.25px;"
		 	d="M 150.0,124.13 C 149.83,124.12 149.64,124.14 149.47,124.16 C 148.04,124.28 146.74,125.16 146.19,126.5 C 146.12,126.66 146.07,126.81 146.03,126.97 C 146.02,127.01 146.01,127.05 146.0,127.09 C 145.99,127.12 145.99,127.14 145.97,127.16 C 145.93,127.18 145.88,127.22 145.84,127.25 C 145.71,127.36 145.61,127.46 145.5,127.59 C 145.28,127.87 145.1,128.19 144.94,128.5 C 144.7,128.96 144.51,129.41 144.38,129.91 C 144.36,129.95 144.28,130.24 144.25,130.28 C 144.18,130.39 144.13,130.49 144.06,130.59 C 143.93,130.81 143.8,131.02 143.69,131.25 C 143.22,132.2 142.99,133.13 142.97,134.19 C 142.95,135.25 143.16,136.18 143.63,137.13 C 143.85,137.58 144.11,138.01 144.44,138.41 C 144.6,138.6 144.78,138.8 144.97,138.97 C 145.02,139.02 144.91,138.93 144.88,138.91 C 144.83,138.88 144.79,138.87 144.75,138.84 C 144.67,138.79 144.58,138.71 144.5,138.66 C 144.34,138.55 144.18,138.45 144.03,138.34 C 143.15,137.71 142.41,136.99 141.75,136.13 C 141.19,135.38 140.81,134.6 140.59,133.69 C 140.39,132.84 140.23,131.57 140.5,130.69 C 140.62,130.3 141.02,129.7 140.78,129.22 C 140.45,128.56 139.89,128.93 139.47,129.28 C 138.76,129.87 138.32,130.81 138.09,131.66 C 137.85,132.6 137.8,133.48 138.0,134.44 C 138.02,134.55 138.06,134.67 138.09,134.78 C 138.11,134.84 138.11,134.91 138.13,134.97 C 138.13,135.0 138.15,135.0 138.16,135.03 C 138.16,135.06 138.2,135.08 138.16,135.09 C 137.93,135.18 137.76,135.32 137.59,135.5 C 137.27,135.84 137.11,136.33 137.06,136.78 C 137.01,137.27 137.05,137.7 137.25,138.16 C 137.34,138.37 137.46,138.56 137.59,138.75 C 137.63,138.8 137.65,138.86 137.69,138.91 C 137.71,138.93 137.73,138.95 137.75,138.97 C 137.76,138.98 137.77,138.99 137.78,139.0 C 137.79,139.02 137.76,139.09 137.75,139.09 C 137.6,139.28 137.44,139.46 137.31,139.66 C 137.15,139.91 137.02,140.14 136.97,140.44 C 136.93,140.66 136.93,140.9 136.94,141.13 C 136.94,141.59 137.0,142.02 137.22,142.44 C 137.65,143.25 138.61,143.72 139.38,144.03 C 139.43,144.05 139.51,144.07 139.56,144.09 C 139.59,144.1 139.6,144.11 139.63,144.13 C 139.64,144.13 139.64,144.15 139.66,144.16 C 139.68,144.17 139.67,144.18 139.66,144.19 C 139.64,144.21 139.61,144.23 139.59,144.25 C 139.35,144.54 139.16,144.84 139.06,145.22 C 138.96,145.64 139.08,146.03 139.31,146.38 C 139.67,146.9 140.21,147.1 140.78,147.22 C 140.9,147.24 141.0,147.26 141.13,147.28 L 141.19,147.28 C 141.2,147.28 141.23,147.26 141.22,147.28 C 141.21,147.31 141.19,147.35 141.19,147.38 C 141.17,147.43 141.15,147.51 141.16,147.56 C 141.17,147.82 141.3,148.01 141.41,148.22 C 141.62,148.64 141.83,149.06 142.0,149.5 C 142.34,150.4 142.59,151.52 142.31,152.5 C 142.0,153.6 141.27,154.23 140.5,154.94 C 140.18,155.23 139.68,155.71 139.53,156.16 C 139.34,156.72 139.59,157.2 140.13,157.41 C 141.13,157.8 142.3,157.31 143.16,157.0 C 144.12,156.66 145.07,156.29 146.03,155.94 C 146.99,155.59 147.94,155.25 148.88,154.84 C 149.11,154.74 149.36,154.64 149.59,154.53 C 149.69,154.49 149.78,154.45 149.88,154.41 C 149.82,154.44 149.77,154.47 149.72,154.5 C 149.29,154.77 148.85,155.04 148.44,155.34 C 147.61,155.95 146.82,156.63 146.03,157.28 C 145.25,157.92 144.52,158.58 143.91,159.41 C 143.6,159.82 143.31,160.24 143.0,160.66 C 142.68,161.1 142.37,161.54 142.88,162.03 C 143.08,162.23 143.29,162.28 143.56,162.28 C 143.85,162.28 144.12,162.26 144.41,162.25 C 144.78,162.24 145.53,162.22 145.78,162.66 C 146.03,163.09 145.86,163.82 145.75,164.22 C 145.6,164.73 145.37,165.2 145.16,165.69 C 144.95,166.15 144.81,166.58 144.75,167.09 C 144.7,167.57 144.73,168.17 145.09,168.56 C 145.28,168.76 145.5,168.91 145.75,169.0 C 145.78,169.01 145.81,169.02 145.84,169.03 C 145.86,169.04 145.86,169.03 145.88,169.03 C 145.89,169.04 145.88,169.05 145.88,169.06 C 145.83,169.11 145.79,169.17 145.75,169.22 C 145.67,169.31 145.59,169.41 145.5,169.5 C 145.16,169.88 144.79,170.23 144.44,170.59 C 143.73,171.32 142.99,172.02 142.22,172.69 C 142.03,172.85 141.85,173.02 141.66,173.19 C 141.56,173.27 141.44,173.36 141.34,173.44 C 141.33,173.45 141.29,173.47 141.31,173.5 C 141.33,173.52 141.35,173.54 141.38,173.56 C 141.42,173.61 141.46,173.67 141.5,173.72 C 141.85,174.1 142.24,174.39 142.69,174.66 C 144.47,175.71 146.71,175.9 148.66,175.88 C 150.71,175.85 152.74,175.68 154.78,175.53 C 155.8,175.46 156.82,175.4 157.84,175.31 C 158.36,175.27 158.86,175.18 159.38,175.13 C 159.89,175.07 160.39,175.02 160.91,175.03 C 161.16,175.04 161.43,175.09 161.69,175.13 C 161.95,175.16 162.17,175.17 162.44,175.09 C 163.06,174.9 163.17,174.41 162.97,173.84 C 162.79,173.35 162.52,172.94 162.25,172.5 C 161.98,172.06 161.74,171.63 161.53,171.16 C 161.1,170.19 160.95,169.19 160.84,168.16 C 160.74,167.13 160.68,166.09 160.66,165.06 C 160.63,164.04 160.62,163.03 160.63,162.0 C 160.63,160.97 160.62,159.93 160.5,158.91 C 160.3,157.19 159.65,154.53 159.22,152.88 C 158.96,151.88 158.69,150.92 158.38,149.94 C 158.22,149.45 158.07,148.95 157.91,148.47 C 157.74,147.98 157.55,147.51 157.38,147.03 C 157.91,146.93 158.33,146.54 158.56,146.06 C 158.74,145.69 158.87,145.09 158.94,144.69 C 159.1,143.73 159.08,142.8 159.03,141.84 C 159.01,141.37 158.97,140.88 158.91,140.41 C 158.89,140.29 158.87,140.18 158.88,140.06 C 158.88,139.92 158.95,139.83 159.0,139.72 C 159.1,139.49 159.11,139.27 159.13,139.03 C 159.15,138.54 159.11,138.06 158.97,137.59 C 158.9,137.36 158.81,137.14 158.66,136.94 C 158.51,136.75 158.25,136.55 158.0,136.5 C 157.71,136.44 157.46,136.57 157.28,136.78 C 157.28,136.78 157.25,136.78 157.25,136.78 C 157.23,136.76 157.21,136.74 157.19,136.72 C 157.15,136.69 157.11,136.68 157.06,136.66 C 156.98,136.62 156.9,136.61 156.81,136.63 C 156.64,136.66 156.5,136.73 156.38,136.84 C 155.87,137.32 155.66,138.34 155.63,138.97 C 155.61,139.22 155.62,139.45 155.72,139.69 C 155.81,139.91 155.98,140.09 156.0,140.34 C 156.01,140.47 155.99,140.6 155.97,140.72 C 155.96,140.78 155.95,140.82 155.94,140.88 C 155.93,140.89 155.91,140.92 155.91,140.94 C 155.9,140.95 155.92,140.98 155.91,140.97 C 155.88,140.95 155.84,140.92 155.81,140.91 C 155.6,140.77 155.38,140.67 155.16,140.56 C 154.47,140.23 153.39,139.29 153.03,138.59 C 152.81,138.17 152.71,137.69 152.91,137.22 C 152.93,137.16 152.97,137.08 153.0,137.03 C 153.01,137.01 153.01,136.99 153.03,136.97 C 153.05,136.93 153.1,136.94 153.13,136.94 C 153.25,136.92 153.38,136.9 153.5,136.88 C 153.78,136.81 153.97,136.74 154.0,136.41 C 154.01,136.31 154.0,136.24 153.97,136.16 C 153.94,136.08 153.89,135.99 153.88,135.91 C 153.86,135.84 153.92,135.5 153.94,135.44 C 153.97,135.27 154.08,135.12 154.09,134.94 C 154.1,134.8 153.92,134.57 153.88,134.47 C 153.84,134.39 153.83,134.33 153.81,134.25 C 153.81,134.23 153.79,134.21 153.81,134.19 C 153.83,134.17 153.86,134.14 153.88,134.13 C 153.91,134.09 153.94,134.07 153.97,134.03 C 154.1,133.88 154.17,133.72 154.22,133.53 C 154.32,133.13 154.26,132.84 154.03,132.5 C 153.83,132.21 153.57,131.99 153.28,131.78 C 152.96,131.55 152.61,131.46 152.22,131.56 C 152.21,131.57 152.17,131.59 152.16,131.59 C 152.14,131.6 152.14,131.61 152.13,131.59 C 152.11,131.58 152.11,131.57 152.09,131.56 C 152.06,131.54 152.01,131.52 151.97,131.5 C 151.89,131.45 151.81,131.41 151.72,131.38 C 151.62,131.34 151.54,131.31 151.44,131.28 C 151.42,131.28 151.42,131.25 151.41,131.25 C 151.45,131.23 151.49,131.21 151.53,131.19 C 151.61,131.15 151.7,131.11 151.78,131.06 C 152.41,130.71 152.94,130.2 153.28,129.56 C 153.93,128.37 153.83,126.93 153.06,125.81 C 152.35,124.78 151.22,124.18 150.0,124.13 z M 149.81,126.0 C 150.06,126.0 150.3,126.04 150.53,126.13 C 150.76,126.21 151.01,126.36 151.19,126.53 C 151.37,126.7 151.49,126.9 151.59,127.13 C 151.69,127.35 151.75,127.59 151.75,127.84 C 151.75,128.09 151.7,128.33 151.59,128.56 C 151.49,128.79 151.37,129.02 151.19,129.19 C 151.01,129.36 150.76,129.47 150.53,129.56 C 150.3,129.65 150.06,129.72 149.81,129.72 C 149.56,129.72 149.33,129.65 149.09,129.56 C 148.86,129.47 148.65,129.36 148.47,129.19 C 148.29,129.02 148.13,128.79 148.03,128.56 C 147.93,128.33 147.88,128.09 147.88,127.84 C 147.88,127.59 147.93,127.35 148.03,127.13 C 148.13,126.9 148.29,126.7 148.47,126.53 C 148.65,126.36 148.86,126.21 149.09,126.13 C 149.33,126.04 149.56,126.0 149.81,126.0 z M 146.44,129.75 C 146.44,129.76 146.47,129.75 146.47,129.75 C 146.85,130.36 147.3,130.76 147.94,131.09 C 148.31,131.29 148.71,131.43 149.13,131.5 C 149.17,131.51 149.2,131.52 149.25,131.53 C 149.24,131.54 149.23,131.56 149.22,131.56 C 149.18,131.59 149.13,131.63 149.09,131.66 C 149.02,131.71 148.94,131.75 148.88,131.81 C 148.58,132.1 148.45,132.45 148.34,132.84 C 148.07,133.89 148.38,134.87 149.03,135.69 C 148.63,136.03 148.38,136.46 148.38,137.0 C 148.37,137.57 148.61,137.98 148.91,138.41 C 148.98,138.51 149.08,138.59 149.16,138.69 C 149.2,138.74 149.24,138.8 149.28,138.84 C 149.3,138.86 149.28,138.86 149.28,138.88 C 149.28,138.89 149.28,138.92 149.28,138.94 C 149.28,138.97 149.28,139.0 149.28,139.03 C 149.27,139.28 149.19,139.49 149.09,139.72 C 149.04,139.83 149.0,139.95 148.97,140.06 C 148.97,140.07 148.94,140.08 148.94,140.09 C 148.93,140.08 148.92,140.07 148.91,140.06 C 148.87,140.01 148.82,139.98 148.78,139.94 C 148.7,139.84 148.61,139.76 148.5,139.69 C 148.47,139.67 148.46,139.66 148.44,139.63 C 148.41,139.59 148.4,139.53 148.38,139.5 C 148.33,139.43 148.27,139.38 148.22,139.31 C 148.04,139.07 147.85,138.85 147.66,138.63 C 147.56,138.51 147.45,138.38 147.34,138.28 C 147.29,138.23 147.24,138.23 147.22,138.16 C 147.2,138.1 147.17,138.05 147.16,138.0 C 147.02,137.58 146.89,137.15 146.78,136.72 C 146.52,135.73 146.33,134.74 146.25,133.72 C 146.17,132.7 146.25,131.7 146.34,130.69 C 146.36,130.52 146.39,130.35 146.41,130.19 C 146.41,130.11 146.4,130.02 146.41,129.94 C 146.41,129.9 146.43,129.85 146.44,129.81 C 146.44,129.79 146.44,129.8 146.44,129.78 C 146.44,129.77 146.44,129.76 146.44,129.75 z M 150.88,145.63 C 150.71,146.01 150.69,146.45 150.78,146.81 C 150.85,147.09 151.0,147.32 151.22,147.5 C 151.21,147.61 151.21,147.73 151.22,147.84 C 151.24,148.08 151.28,148.32 151.38,148.53 C 151.55,148.93 151.88,149.26 152.31,149.44 C 152.43,149.49 152.56,149.54 152.69,149.56 C 152.48,149.76 152.23,149.91 151.97,150.03 C 151.28,150.34 150.52,150.45 149.75,150.5 C 148.65,150.58 147.5,150.51 146.53,150.06 C 145.75,149.7 145.11,149.09 144.47,148.5 C 144.06,148.12 143.64,147.73 143.22,147.34 C 143.78,147.32 144.37,147.27 144.94,147.06 C 145.01,147.08 145.08,147.09 145.16,147.09 C 145.25,147.1 145.34,147.11 145.44,147.09 C 145.58,147.3 145.75,147.47 145.94,147.59 C 146.3,147.82 146.73,147.85 147.13,147.72 C 147.45,147.61 147.77,147.39 148.03,147.13 C 148.17,147.26 148.36,147.35 148.56,147.38 C 148.91,147.42 149.25,147.34 149.56,147.16 C 150.06,146.87 150.45,146.4 150.88,145.63 z"
		 />
		 <path style="fill:#f00;stroke:none;"
		 d="M 151.32,131.12 C 151.18,131.18 151.16,131.31 151.3,131.38 C 151.34,131.4 151.38,131.4 151.42,131.41 C 151.44,131.42 151.46,131.43 151.48,131.43 C 151.49,131.43 151.5,131.44 151.51,131.44 C 151.51,131.44 151.54,131.44 151.53,131.45 C 151.46,131.5 151.4,131.52 151.31,131.49 C 151.04,131.42 150.78,131.4 150.51,131.42 C 150.23,131.44 149.97,131.5 149.71,131.6 C 149.65,131.62 149.59,131.65 149.52,131.67 C 149.46,131.7 149.41,131.74 149.34,131.77 C 149.31,131.78 149.28,131.78 149.24,131.78 C 149.22,131.77 149.21,131.77 149.19,131.77 C 149.18,131.76 149.17,131.76 149.18,131.76 C 149.18,131.75 149.19,131.75 149.2,131.74 C 149.25,131.7 149.32,131.67 149.37,131.63 C 149.47,131.55 149.45,131.43 149.32,131.4 C 149.27,131.38 149.22,131.38 149.17,131.37 C 149.16,131.37 149.14,131.37 149.13,131.36 C 149.11,131.36 149.07,131.37 149.09,131.35 C 149.1,131.34 149.12,131.33 149.13,131.32 C 149.19,131.28 149.26,131.25 149.32,131.22 C 149.57,131.1 149.82,131.03 150.09,130.98 C 150.36,130.92 150.63,130.9 150.9,130.92 C 151.04,130.93 151.17,130.95 151.31,130.98 C 151.37,131.0 151.44,131.0 151.5,131.04 C 151.53,131.05 151.48,131.05 151.46,131.06 C 151.45,131.07 151.43,131.08 151.42,131.08 C 151.39,131.1 151.35,131.11 151.32,131.12 z M 146.28,129.9 C 146.19,129.83 146.19,129.75 146.21,129.64 C 146.22,129.55 146.23,129.45 146.25,129.36 C 146.28,129.17 146.31,128.98 146.36,128.8 C 146.4,128.61 146.45,128.43 146.51,128.25 C 146.58,128.07 146.65,127.89 146.7,127.7 C 146.75,127.54 146.77,127.3 146.65,127.15 C 146.6,127.08 146.43,127.17 146.38,127.19 C 146.3,127.23 146.21,127.28 146.13,127.33 C 146.09,127.36 146.05,127.38 146.0,127.38 C 145.98,127.38 145.95,127.38 145.93,127.37 C 145.89,127.36 145.95,127.34 145.96,127.33 C 146.0,127.3 146.04,127.27 146.08,127.24 C 146.12,127.21 146.13,127.17 146.14,127.12 C 146.16,127.03 146.18,126.93 146.21,126.84 C 146.22,126.82 146.23,126.8 146.23,126.77 C 146.24,126.76 146.24,126.75 146.24,126.74 C 146.25,126.73 146.24,126.71 146.26,126.71 C 146.3,126.69 146.35,126.67 146.39,126.66 C 146.85,126.54 147.13,126.81 147.21,127.24 C 147.3,127.66 147.14,127.98 147.01,128.35 C 146.87,128.71 146.79,129.08 146.73,129.46 C 146.72,129.55 146.7,129.65 146.69,129.75 C 146.69,129.77 146.69,129.84 146.67,129.8 C 146.65,129.77 146.62,129.73 146.6,129.69 C 146.57,129.65 146.55,129.6 146.5,129.57 C 146.42,129.53 146.37,129.55 146.33,129.63 C 146.28,129.72 146.29,129.81 146.28,129.9 z M 143.67,141.5 C 143.63,141.54 143.59,141.59 143.55,141.63 C 143.46,141.74 143.39,141.85 143.33,141.97 C 143.29,142.05 143.25,142.14 143.23,142.22 C 143.21,142.29 143.19,142.36 143.18,142.43 C 143.17,142.49 143.16,142.56 143.16,142.62 C 143.17,142.68 143.17,142.74 143.19,142.8 C 143.2,142.85 143.22,142.9 143.24,142.94 C 143.27,142.98 143.29,143.01 143.32,143.04 C 143.39,143.12 143.47,143.18 143.56,143.23 C 143.68,143.3 143.81,143.34 143.95,143.36 C 144.07,143.38 144.19,143.38 144.31,143.37 C 144.45,143.36 144.59,143.34 144.72,143.3 C 144.87,143.27 145.01,143.22 145.15,143.16 C 145.13,143.15 145.1,143.13 145.08,143.11 C 145.0,143.04 144.94,142.97 144.88,142.9 C 144.75,142.74 144.66,142.55 144.61,142.36 C 144.57,142.25 144.55,142.13 144.54,142.01 C 144.54,141.99 144.53,141.96 144.53,141.93 C 144.38,141.89 144.23,141.83 144.09,141.75 C 143.94,141.68 143.8,141.59 143.67,141.5 z M 145.32,143.63 C 145.16,143.69 145.0,143.75 144.84,143.79 C 144.68,143.83 144.51,143.86 144.35,143.87 C 144.19,143.88 144.03,143.88 143.87,143.85 C 143.84,143.85 143.8,143.84 143.76,143.83 C 143.72,143.88 143.68,143.92 143.65,143.97 C 143.59,144.05 143.55,144.13 143.51,144.22 C 143.47,144.3 143.45,144.37 143.43,144.45 C 143.42,144.53 143.41,144.6 143.41,144.68 C 143.42,144.75 143.43,144.82 143.44,144.89 C 143.48,145.02 143.55,145.14 143.63,145.24 C 143.71,145.34 143.81,145.42 143.92,145.48 C 143.97,145.51 144.03,145.53 144.08,145.55 C 144.14,145.57 144.2,145.58 144.26,145.59 C 144.43,145.61 144.6,145.6 144.77,145.56 C 144.98,145.52 145.18,145.45 145.37,145.36 C 145.41,145.33 145.45,145.31 145.49,145.28 C 145.49,145.28 145.49,145.28 145.48,145.27 C 145.32,145.12 145.2,144.93 145.14,144.72 C 145.1,144.6 145.09,144.47 145.09,144.35 C 145.1,144.21 145.13,144.07 145.17,143.93 C 145.21,143.83 145.26,143.73 145.32,143.63 z M 146.88,145.58 C 146.94,145.64 147.01,145.7 147.08,145.75 C 147.17,145.81 147.26,145.85 147.36,145.89 C 147.48,145.93 147.6,145.95 147.72,145.96 C 147.92,145.98 148.12,145.95 148.3,145.89 C 148.45,145.84 148.58,145.76 148.7,145.67 C 148.7,145.67 148.7,145.67 148.71,145.67 C 148.69,145.63 148.67,145.6 148.65,145.56 C 148.61,145.48 148.58,145.38 148.56,145.29 C 148.55,145.24 148.55,145.19 148.55,145.15 C 148.54,145.15 148.53,145.15 148.52,145.15 C 148.45,145.17 148.38,145.18 148.31,145.19 C 148.28,145.19 148.24,145.19 148.21,145.2 C 148.13,145.2 148.06,145.2 147.99,145.19 C 147.91,145.18 147.83,145.16 147.75,145.14 C 147.73,145.13 147.71,145.12 147.69,145.11 C 147.69,145.11 147.69,145.11 147.69,145.11 C 147.61,145.19 147.53,145.26 147.44,145.32 C 147.35,145.37 147.27,145.42 147.18,145.46 C 147.08,145.51 146.98,145.55 146.88,145.58 z M 145.99,140.31 C 145.86,140.13 145.71,139.96 145.56,139.8 C 145.43,139.66 145.3,139.52 145.16,139.4 C 145.04,139.31 144.91,139.22 144.77,139.15 C 144.69,139.12 144.61,139.09 144.53,139.07 C 144.47,139.05 144.41,139.04 144.34,139.03 C 144.26,139.01 144.17,139.01 144.08,139.01 C 144.0,139.02 143.91,139.04 143.83,139.08 C 143.8,139.09 143.78,139.1 143.75,139.12 C 143.72,139.14 143.68,139.16 143.65,139.19 C 143.58,139.24 143.52,139.3 143.46,139.37 C 143.36,139.48 143.29,139.61 143.24,139.75 C 143.21,139.85 143.2,139.97 143.21,140.08 C 143.22,140.18 143.24,140.28 143.28,140.38 C 143.31,140.46 143.35,140.54 143.41,140.61 C 143.46,140.68 143.52,140.75 143.59,140.81 C 143.69,140.9 143.8,140.99 143.92,141.07 C 144.04,141.16 144.17,141.24 144.31,141.31 C 144.4,141.36 144.49,141.39 144.58,141.43 C 144.59,141.4 144.6,141.38 144.61,141.36 C 144.65,141.21 144.73,141.06 144.83,140.94 C 144.98,140.74 145.19,140.59 145.43,140.5 C 145.55,140.45 145.67,140.42 145.8,140.41 C 145.88,140.4 145.96,140.39 146.04,140.39 C 146.02,140.36 146.0,140.34 145.99,140.31 z M 147.91,142.23 C 147.88,142.26 147.85,142.3 147.83,142.34 C 147.79,142.41 147.75,142.49 147.74,142.57 C 147.73,142.6 147.73,142.63 147.74,142.67 C 147.74,142.7 147.75,142.73 147.76,142.76 C 147.78,142.82 147.81,142.88 147.85,142.94 C 147.87,142.96 147.89,142.98 147.91,143.0 C 147.95,143.02 147.98,143.04 148.02,143.06 C 148.07,143.08 148.11,143.09 148.16,143.09 C 148.22,143.1 148.28,143.1 148.34,143.1 C 148.41,143.09 148.48,143.08 148.54,143.07 C 148.65,143.06 148.75,143.03 148.85,143.0 C 149.03,142.95 149.2,142.88 149.36,142.79 C 149.46,142.74 149.55,142.67 149.64,142.6 C 149.64,142.59 149.63,142.59 149.63,142.58 C 149.52,142.46 149.42,142.34 149.32,142.22 C 149.28,142.23 149.24,142.24 149.2,142.24 C 149.08,142.27 148.97,142.29 148.85,142.3 C 148.75,142.32 148.65,142.32 148.55,142.33 C 148.47,142.33 148.38,142.33 148.3,142.32 C 148.17,142.3 148.04,142.27 147.91,142.23 z M 147.53,143.34 C 147.45,143.36 147.37,143.39 147.29,143.41 C 147.14,143.45 146.99,143.48 146.83,143.49 C 146.66,143.51 146.49,143.51 146.32,143.5 C 146.27,143.5 146.21,143.49 146.15,143.49 C 146.13,143.5 146.1,143.52 146.08,143.54 C 146.0,143.6 145.92,143.67 145.85,143.75 C 145.8,143.8 145.76,143.86 145.72,143.93 C 145.69,143.98 145.66,144.04 145.64,144.1 C 145.61,144.18 145.59,144.27 145.59,144.36 C 145.59,144.44 145.6,144.51 145.62,144.58 C 145.65,144.71 145.73,144.82 145.82,144.91 C 145.9,144.98 145.99,145.04 146.08,145.08 C 146.17,145.11 146.27,145.13 146.37,145.14 C 146.47,145.15 146.57,145.14 146.67,145.12 C 146.77,145.1 146.87,145.06 146.97,145.01 C 147.03,144.98 147.1,144.95 147.16,144.91 C 147.22,144.87 147.27,144.83 147.31,144.79 C 147.27,144.71 147.23,144.63 147.2,144.55 C 147.16,144.45 147.15,144.34 147.15,144.23 C 147.15,144.11 147.17,143.99 147.21,143.87 C 147.26,143.74 147.33,143.61 147.41,143.49 C 147.45,143.44 147.49,143.39 147.53,143.34 z M 148.0,143.57 C 147.93,143.63 147.87,143.7 147.82,143.78 C 147.76,143.86 147.71,143.94 147.68,144.04 C 147.66,144.1 147.64,144.17 147.64,144.24 C 147.64,144.29 147.65,144.34 147.67,144.39 C 147.68,144.44 147.71,144.48 147.73,144.52 C 147.76,144.56 147.79,144.59 147.82,144.62 C 147.85,144.64 147.89,144.66 147.92,144.67 C 147.96,144.69 148.0,144.69 148.04,144.7 C 148.09,144.7 148.13,144.7 148.18,144.7 C 148.26,144.7 148.34,144.68 148.42,144.67 C 148.55,144.64 148.68,144.6 148.81,144.54 C 148.93,144.49 149.04,144.42 149.15,144.35 C 149.27,144.27 149.37,144.19 149.47,144.09 C 149.65,143.93 149.81,143.76 149.94,143.57 C 150.02,143.46 150.09,143.34 150.16,143.23 C 150.1,143.17 150.04,143.12 149.98,143.07 C 149.96,143.05 149.94,143.03 149.92,143.01 C 149.82,143.09 149.71,143.16 149.6,143.22 C 149.41,143.33 149.2,143.42 148.99,143.48 C 148.87,143.51 148.75,143.54 148.62,143.56 C 148.54,143.58 148.45,143.59 148.37,143.59 C 148.28,143.6 148.19,143.59 148.1,143.58 C 148.07,143.58 148.03,143.57 148.0,143.57 z M 146.39,140.93 C 145.75,140.78 145.07,141.03 145.03,141.76 C 145.01,142.06 145.1,142.39 145.29,142.62 C 145.5,142.87 145.83,142.94 146.12,142.98 C 146.43,143.03 146.72,143.02 147.03,142.96 C 147.11,142.95 147.18,142.93 147.25,142.91 C 147.26,142.9 147.28,142.91 147.28,142.9 C 147.28,142.89 147.27,142.88 147.27,142.87 C 147.27,142.85 147.26,142.83 147.26,142.81 C 147.25,142.78 147.24,142.74 147.24,142.7 C 147.23,142.54 147.26,142.4 147.32,142.25 C 147.35,142.17 147.39,142.1 147.44,142.03 C 147.45,142.02 147.46,142.0 147.47,141.98 C 147.48,141.97 147.44,141.95 147.43,141.94 C 147.4,141.92 147.37,141.89 147.34,141.86 C 147.29,141.81 147.12,141.59 147.06,141.54 C 146.99,141.49 146.91,141.47 146.84,141.43 C 146.77,141.39 146.73,141.33 146.68,141.27 C 146.57,141.16 146.48,141.05 146.39,140.93 z M 150.52,143.59 C 150.47,143.68 150.41,143.77 150.35,143.86 C 150.19,144.08 150.01,144.28 149.81,144.46 C 149.69,144.57 149.57,144.67 149.43,144.76 C 149.31,144.84 149.18,144.92 149.04,144.98 C 149.04,145.01 149.04,145.05 149.04,145.08 C 149.04,145.12 149.04,145.16 149.05,145.2 C 149.06,145.25 149.08,145.3 149.1,145.35 C 149.12,145.39 149.15,145.44 149.18,145.47 C 149.2,145.5 149.23,145.52 149.26,145.54 C 149.3,145.56 149.33,145.58 149.37,145.59 C 149.41,145.6 149.46,145.61 149.5,145.61 C 149.56,145.62 149.61,145.62 149.66,145.62 C 149.74,145.62 149.81,145.61 149.89,145.59 C 149.96,145.58 150.04,145.56 150.12,145.53 C 150.27,145.49 150.42,145.42 150.56,145.35 C 150.62,145.31 150.68,145.28 150.73,145.24 C 150.78,145.2 150.82,145.17 150.87,145.13 C 150.89,145.1 150.91,145.07 150.93,145.04 C 150.92,145.01 150.9,144.98 150.89,144.95 C 150.86,144.89 150.83,144.83 150.81,144.76 C 150.79,144.7 150.77,144.64 150.76,144.57 C 150.74,144.45 150.72,144.32 150.71,144.19 C 150.7,144.12 150.69,144.05 150.68,143.98 C 150.67,143.92 150.65,143.86 150.63,143.8 C 150.63,143.78 150.61,143.75 150.6,143.73 C 150.59,143.7 150.58,143.68 150.56,143.66 C 150.55,143.63 150.54,143.61 150.52,143.59 z M 152.4,144.01 C 152.64,143.92 152.88,143.85 153.13,143.8 C 153.44,143.74 153.74,143.71 154.05,143.71 C 154.15,143.71 154.24,143.71 154.33,143.71 C 154.2,143.46 154.08,143.22 153.97,142.96 C 153.83,142.64 153.7,142.32 153.59,141.98 C 153.46,141.6 153.35,141.2 153.2,140.83 C 153.13,140.65 153.05,140.47 152.95,140.3 C 152.88,140.18 152.79,140.06 152.71,139.95 C 152.62,139.84 152.52,139.73 152.43,139.63 C 152.34,139.53 152.24,139.44 152.15,139.35 C 152.05,139.26 151.96,139.17 151.86,139.09 C 151.77,139.02 151.68,138.95 151.59,138.88 C 151.51,138.83 151.44,138.79 151.36,138.75 C 151.32,138.74 151.28,138.72 151.25,138.71 C 151.22,138.7 151.19,138.7 151.16,138.69 C 151.15,138.69 151.13,138.69 151.12,138.69 C 151.11,138.75 151.1,138.8 151.09,138.86 C 151.08,138.93 151.06,139.0 151.03,139.07 C 151.01,139.13 150.99,139.2 150.96,139.26 C 150.91,139.38 150.86,139.5 150.8,139.61 C 150.8,139.62 150.8,139.62 150.8,139.63 C 150.79,139.74 150.78,139.84 150.78,139.95 C 150.77,140.09 150.76,140.22 150.76,140.36 C 150.76,140.49 150.76,140.62 150.78,140.75 C 150.79,140.89 150.81,141.03 150.85,141.18 C 150.92,141.48 151.04,141.77 151.21,142.03 C 151.27,142.13 151.34,142.23 151.41,142.32 C 151.48,142.42 151.56,142.52 151.63,142.62 C 151.7,142.72 151.77,142.82 151.84,142.93 C 151.89,143.02 151.95,143.11 152.0,143.2 C 152.05,143.29 152.1,143.38 152.14,143.48 C 152.19,143.57 152.24,143.67 152.29,143.77 C 152.33,143.85 152.37,143.93 152.4,144.01 z M 150.35,141.24 C 150.35,141.28 150.34,141.32 150.33,141.36 C 150.3,141.46 150.27,141.55 150.24,141.64 C 150.2,141.75 150.15,141.86 150.12,141.97 C 150.1,142.02 150.09,142.07 150.08,142.12 C 150.07,142.16 150.06,142.21 150.07,142.26 C 150.07,142.3 150.08,142.35 150.09,142.39 C 150.11,142.44 150.13,142.49 150.16,142.53 C 150.21,142.6 150.26,142.65 150.32,142.71 C 150.39,142.77 150.47,142.83 150.54,142.9 C 150.65,142.99 150.75,143.09 150.84,143.19 C 150.9,143.26 150.95,143.33 150.99,143.4 C 151.03,143.48 151.07,143.56 151.1,143.64 C 151.16,143.8 151.18,143.97 151.2,144.14 C 151.22,144.25 151.23,144.37 151.25,144.48 C 151.26,144.52 151.27,144.57 151.28,144.61 C 151.28,144.62 151.29,144.64 151.3,144.65 C 151.38,144.58 151.47,144.51 151.57,144.44 C 151.69,144.36 151.82,144.28 151.95,144.21 C 151.92,144.13 151.88,144.06 151.84,143.99 C 151.75,143.8 151.66,143.62 151.56,143.44 C 151.52,143.36 151.47,143.27 151.42,143.19 C 151.36,143.1 151.29,143.0 151.23,142.92 C 151.15,142.81 151.08,142.72 151.0,142.61 C 150.93,142.51 150.85,142.4 150.78,142.29 C 150.59,141.98 150.45,141.64 150.37,141.29 C 150.36,141.28 150.36,141.26 150.35,141.24 z M 142.67,142.58 C 142.67,142.21 142.78,141.91 142.97,141.59 C 143.02,141.52 143.07,141.45 143.12,141.38 C 143.15,141.34 143.17,141.31 143.2,141.28 C 143.22,141.26 143.3,141.21 143.26,141.18 C 143.13,141.06 143.02,140.94 142.92,140.78 C 142.88,140.7 142.8,140.67 142.73,140.62 C 142.65,140.57 142.58,140.52 142.51,140.47 C 142.36,140.38 142.22,140.28 142.08,140.18 C 141.79,139.98 141.51,139.77 141.23,139.56 C 140.09,138.68 139.19,137.7 138.5,136.42 C 138.33,136.11 138.18,135.8 138.05,135.47 C 138.04,135.43 138.02,135.39 138.01,135.35 C 138.0,135.32 138.03,135.32 138.05,135.31 C 138.07,135.3 138.09,135.29 138.11,135.28 C 138.15,135.27 138.3,135.22 138.32,135.17 C 138.35,135.11 138.29,134.97 138.28,134.92 C 138.27,134.91 138.27,134.9 138.27,134.89 C 138.26,134.88 138.24,134.86 138.26,134.86 C 138.28,134.87 138.3,134.88 138.32,134.89 C 138.36,134.92 138.38,134.95 138.4,134.99 C 138.44,135.07 138.46,135.15 138.49,135.23 C 138.52,135.32 138.56,135.4 138.59,135.48 C 138.66,135.64 138.73,135.8 138.81,135.95 C 138.97,136.26 139.15,136.56 139.34,136.86 C 140.2,138.16 141.08,138.87 142.33,139.75 C 142.4,139.8 142.48,139.85 142.55,139.9 C 142.58,139.93 142.62,139.95 142.66,139.98 C 142.67,139.99 142.69,140.0 142.71,140.01 C 142.73,140.02 142.71,139.99 142.71,139.98 C 142.71,139.97 142.71,139.96 142.71,139.95 C 142.72,139.77 142.76,139.61 142.83,139.44 C 142.96,139.14 143.23,138.84 143.52,138.68 C 143.68,138.59 143.84,138.54 144.02,138.52 C 144.04,138.52 144.11,138.58 144.13,138.59 C 144.16,138.61 144.2,138.64 144.23,138.66 C 144.31,138.71 144.38,138.76 144.45,138.81 C 144.6,138.9 144.74,139.0 144.89,139.09 C 145.01,139.17 145.17,139.1 145.13,138.95 C 145.1,138.86 145.03,138.83 144.97,138.78 C 144.94,138.75 144.91,138.72 144.88,138.69 C 144.87,138.67 144.8,138.63 144.84,138.64 C 144.86,138.65 144.88,138.66 144.9,138.67 C 144.94,138.68 144.98,138.7 145.02,138.72 C 145.04,138.73 145.06,138.74 145.08,138.75 C 145.09,138.76 145.1,138.76 145.11,138.77 C 145.11,138.77 145.12,138.78 145.12,138.77 C 145.12,138.76 145.11,138.76 145.11,138.75 C 145.07,138.68 145.03,138.6 145.0,138.52 C 144.85,138.2 144.71,137.88 144.59,137.55 C 144.34,136.9 144.14,136.23 144.0,135.54 C 143.72,134.14 143.67,132.79 143.84,131.37 C 143.84,131.33 143.85,131.28 143.85,131.24 C 143.86,131.19 143.89,131.16 143.91,131.12 C 143.95,131.05 144.0,130.97 144.04,130.9 C 144.13,130.74 144.22,130.59 144.32,130.45 C 144.36,130.38 144.42,130.31 144.44,130.22 C 144.45,130.18 144.46,130.14 144.47,130.09 C 144.47,130.09 144.48,130.08 144.48,130.09 C 144.49,130.1 144.5,130.1 144.5,130.11 C 144.51,130.13 144.52,130.15 144.53,130.17 C 144.55,130.25 144.46,130.63 144.44,130.69 C 144.31,131.38 144.26,132.07 144.25,132.77 C 144.23,134.2 144.42,135.54 144.88,136.89 C 144.99,137.23 145.12,137.55 145.25,137.87 C 145.32,138.03 145.39,138.19 145.47,138.35 C 145.49,138.39 145.5,138.43 145.52,138.47 C 145.53,138.49 145.54,138.51 145.55,138.53 C 145.56,138.54 145.56,138.55 145.57,138.56 C 145.57,138.57 145.57,138.54 145.57,138.53 C 145.58,138.44 145.6,138.36 145.62,138.28 C 145.74,137.89 146.01,137.72 146.4,137.68 C 146.58,137.66 146.74,137.67 146.92,137.72 C 146.94,137.72 146.96,137.82 146.97,137.83 C 146.98,137.88 146.99,137.92 147.01,137.96 C 147.03,138.04 147.06,138.12 147.09,138.21 C 147.12,138.3 147.2,138.34 147.26,138.4 C 147.27,138.4 147.28,138.41 147.29,138.42 C 147.3,138.43 147.27,138.43 147.26,138.43 C 147.24,138.43 147.22,138.43 147.2,138.43 C 147.15,138.42 147.11,138.4 147.08,138.38 C 146.93,138.26 146.8,138.18 146.61,138.17 C 146.1,138.14 146.04,138.4 146.06,138.84 C 146.08,139.2 146.18,139.52 146.32,139.85 C 146.39,140.01 146.47,140.16 146.56,140.31 C 146.61,140.39 146.66,140.46 146.71,140.53 C 146.72,140.55 146.73,140.56 146.75,140.58 C 146.76,140.6 146.78,140.65 146.78,140.62 C 146.78,140.57 146.78,140.53 146.78,140.49 C 146.81,140.12 147.01,139.82 147.28,139.6 C 147.42,139.48 147.56,139.4 147.73,139.34 C 147.82,139.32 147.9,139.3 147.99,139.3 C 148.01,139.3 148.03,139.29 148.05,139.31 C 148.06,139.33 148.07,139.35 148.09,139.36 C 148.11,139.4 148.14,139.43 148.16,139.47 C 148.21,139.54 148.26,139.61 148.31,139.69 C 148.36,139.75 148.42,139.79 148.48,139.83 C 148.5,139.84 148.51,139.86 148.53,139.87 C 148.53,139.87 148.55,139.88 148.54,139.88 C 148.53,139.89 148.52,139.89 148.51,139.89 C 148.46,139.9 148.42,139.9 148.38,139.88 C 148.29,139.86 148.22,139.81 148.13,139.79 C 147.8,139.75 147.42,140.06 147.31,140.34 C 147.19,140.66 147.37,141.09 147.54,141.33 C 147.74,141.62 148.06,141.81 148.42,141.83 C 148.6,141.84 148.77,141.82 148.94,141.79 C 148.96,141.78 148.98,141.78 149.0,141.78 C 149.01,141.77 149.03,141.78 149.02,141.76 C 149.02,141.75 149.01,141.75 149.01,141.74 C 148.99,141.7 148.96,141.66 148.95,141.62 C 148.91,141.54 148.87,141.46 148.84,141.38 C 148.71,141.04 148.64,140.72 148.67,140.36 C 148.68,140.27 148.69,140.18 148.71,140.1 C 148.71,140.09 148.71,140.08 148.72,140.07 C 148.72,140.05 148.73,140.07 148.73,140.07 C 148.74,140.08 148.75,140.1 148.76,140.11 C 148.78,140.14 148.8,140.17 148.82,140.2 C 148.93,140.37 149.05,140.33 149.1,140.14 C 149.11,140.1 149.12,140.06 149.14,140.02 C 149.14,140.01 149.14,139.98 149.15,139.99 C 149.16,140.0 149.16,140.01 149.17,140.02 C 149.18,140.04 149.19,140.06 149.19,140.08 C 149.22,140.17 149.18,140.25 149.17,140.34 C 149.15,140.52 149.16,140.68 149.2,140.86 C 149.27,141.22 149.43,141.51 149.63,141.8 C 149.64,141.81 149.64,141.82 149.65,141.81 C 149.65,141.8 149.66,141.79 149.66,141.78 C 149.67,141.76 149.67,141.74 149.68,141.72 C 149.7,141.68 149.71,141.64 149.73,141.6 C 149.76,141.52 149.79,141.43 149.82,141.35 C 149.87,141.18 149.9,141.01 149.91,140.84 C 149.94,140.49 149.98,140.15 150.13,139.82 C 150.28,139.5 150.47,139.21 150.58,138.87 C 150.72,138.43 150.57,138.25 150.57,137.84 C 150.57,137.37 150.83,137.25 151.09,136.97 C 151.21,136.83 151.29,136.7 151.29,136.5 C 151.28,136.46 151.28,136.41 151.26,136.37 C 151.26,136.36 151.26,136.35 151.26,136.34 C 151.25,136.33 151.25,136.29 151.24,136.31 C 151.23,136.33 151.23,136.35 151.21,136.37 C 151.17,136.45 151.12,136.52 151.07,136.59 C 150.84,136.88 150.55,137.04 150.25,137.22 C 149.99,137.37 149.61,137.59 149.52,137.94 C 149.48,138.11 149.49,138.28 149.5,138.46 C 149.51,138.55 149.55,138.88 149.49,138.98 C 149.48,139.0 149.46,139.02 149.44,139.03 C 149.43,139.04 149.42,139.07 149.42,139.05 C 149.42,139.04 149.42,139.03 149.42,139.01 C 149.42,138.97 149.42,138.92 149.42,138.87 C 149.42,138.75 149.33,138.71 149.27,138.63 C 149.21,138.56 149.15,138.48 149.1,138.41 C 149.07,138.37 149.04,138.33 149.02,138.29 C 148.98,138.24 148.99,138.2 149.0,138.15 C 149.01,137.72 149.16,137.43 149.48,137.15 C 149.77,136.89 150.13,136.74 150.44,136.51 C 150.83,136.21 150.87,135.97 150.92,135.51 C 150.97,135.13 151.02,134.76 151.16,134.39 C 151.3,134.03 151.52,133.71 151.7,133.37 C 151.86,133.07 152.0,132.59 151.7,132.3 C 151.42,132.02 150.93,131.98 150.68,132.31 C 150.47,132.58 150.51,133.16 150.52,133.44 C 150.53,133.82 150.54,134.2 150.44,134.58 C 150.34,135.0 150.11,135.24 149.76,135.47 C 149.6,135.57 149.43,135.67 149.28,135.79 C 149.2,135.84 149.15,135.92 149.03,135.93 C 149.02,135.93 149.01,135.93 149.0,135.93 C 148.99,135.92 148.96,135.93 148.97,135.92 C 148.99,135.9 149.01,135.88 149.03,135.87 C 149.06,135.83 149.1,135.8 149.13,135.77 C 149.22,135.67 149.15,135.61 149.09,135.54 C 149.06,135.5 149.03,135.46 149.01,135.42 C 149.0,135.41 148.99,135.4 148.98,135.39 C 148.97,135.38 149.0,135.38 149.0,135.37 C 149.02,135.36 149.04,135.34 149.06,135.33 C 149.22,135.22 149.39,135.12 149.55,135.02 C 149.71,134.9 149.84,134.79 149.92,134.59 C 149.99,134.41 150.01,134.22 150.02,134.03 C 150.04,133.64 150.0,133.26 150.02,132.88 C 150.04,132.49 150.12,132.11 150.44,131.84 C 150.75,131.58 151.15,131.52 151.53,131.64 C 151.54,131.64 151.59,131.67 151.6,131.66 C 151.62,131.64 151.64,131.62 151.66,131.6 C 151.68,131.58 151.71,131.56 151.73,131.54 C 151.76,131.52 151.77,131.55 151.79,131.56 C 151.87,131.59 151.94,131.64 152.01,131.68 C 152.05,131.71 152.08,131.74 152.13,131.74 C 152.18,131.74 152.22,131.72 152.27,131.71 C 152.29,131.7 152.31,131.7 152.34,131.69 C 152.35,131.69 152.38,131.67 152.37,131.69 C 152.36,131.7 152.36,131.71 152.35,131.72 C 152.33,131.77 152.29,131.8 152.25,131.82 C 152.18,131.85 152.11,131.88 152.05,131.92 C 152.03,131.94 152.07,131.93 152.08,131.92 C 152.11,131.92 152.13,131.92 152.15,131.92 C 152.2,131.91 152.25,131.92 152.3,131.92 C 152.51,131.96 152.64,132.07 152.78,132.22 C 152.92,132.35 153.03,132.51 153.18,132.64 C 153.32,132.77 153.5,132.85 153.66,132.95 C 153.83,133.07 153.94,133.2 154.01,133.4 C 154.02,133.44 154.04,133.49 154.05,133.53 C 154.06,133.59 154.03,133.63 154.02,133.67 C 153.98,133.76 153.93,133.84 153.87,133.92 C 153.84,133.96 153.81,133.99 153.77,134.03 C 153.74,134.06 153.7,134.08 153.68,134.13 C 153.65,134.19 153.69,134.35 153.71,134.4 C 153.72,134.44 153.68,134.4 153.66,134.39 C 153.64,134.37 153.62,134.36 153.61,134.34 C 153.58,134.3 153.56,134.26 153.56,134.2 C 153.55,134.11 153.56,134.01 153.57,133.92 C 153.58,133.74 153.59,133.52 153.41,133.39 C 153.26,133.27 153.08,133.2 152.93,133.08 C 152.78,132.96 152.65,132.81 152.53,132.67 C 152.49,132.63 152.46,132.6 152.43,132.56 C 152.41,132.55 152.39,132.53 152.38,132.51 C 152.37,132.5 152.36,132.5 152.35,132.49 C 152.35,132.49 152.34,132.47 152.34,132.48 C 152.34,132.49 152.34,132.49 152.34,132.5 C 152.36,132.59 152.37,132.69 152.37,132.79 C 152.36,133.2 152.2,133.52 151.99,133.86 C 151.8,134.19 151.61,134.52 151.52,134.9 C 151.47,135.09 151.45,135.28 151.43,135.47 C 151.42,135.52 151.42,135.57 151.41,135.62 C 151.41,135.64 151.41,135.66 151.4,135.69 C 151.4,135.71 151.42,135.7 151.43,135.71 C 151.44,135.72 151.44,135.73 151.45,135.74 C 151.52,135.8 151.58,135.88 151.63,135.96 C 151.73,136.14 151.78,136.31 151.78,136.51 C 151.78,136.56 151.78,136.61 151.77,136.65 C 151.76,136.74 151.77,136.72 151.84,136.74 C 151.94,136.77 152.03,136.77 152.13,136.78 C 152.48,136.79 152.84,136.8 153.19,136.77 C 153.2,136.77 153.2,136.77 153.2,136.77 C 153.23,136.8 153.17,136.8 153.15,136.8 C 153.07,136.81 152.98,136.8 152.92,136.89 C 152.88,136.96 152.84,137.04 152.8,137.12 C 152.79,137.13 152.76,137.23 152.74,137.23 C 152.7,137.23 152.66,137.24 152.61,137.24 C 152.53,137.25 152.44,137.25 152.35,137.26 C 152.18,137.27 152.01,137.28 151.84,137.25 C 151.75,137.23 151.67,137.21 151.58,137.18 C 151.56,137.17 151.55,137.18 151.54,137.2 C 151.52,137.22 151.51,137.24 151.5,137.25 C 151.47,137.29 151.44,137.32 151.41,137.35 C 151.34,137.43 151.1,137.61 151.07,137.74 C 151.05,137.83 151.07,137.91 151.08,138.0 C 151.08,138.04 151.09,138.08 151.09,138.13 C 151.1,138.15 151.1,138.17 151.1,138.19 C 151.11,138.21 151.16,138.2 151.17,138.2 C 151.55,138.23 151.81,138.42 152.09,138.64 C 152.59,139.04 153.15,139.62 153.46,140.19 C 153.8,140.82 153.94,141.5 154.18,142.15 C 154.3,142.48 154.43,142.8 154.58,143.11 C 154.66,143.27 154.74,143.42 154.82,143.57 C 154.84,143.61 154.86,143.65 154.88,143.69 C 154.9,143.7 154.91,143.72 154.92,143.74 C 154.93,143.77 154.96,143.75 154.98,143.76 C 155.06,143.77 155.15,143.78 155.24,143.79 C 155.41,143.82 155.58,143.85 155.75,143.9 C 155.76,143.9 155.79,143.92 155.8,143.89 C 155.81,143.87 155.81,143.85 155.82,143.83 C 155.83,143.79 155.85,143.75 155.86,143.71 C 155.89,143.62 155.91,143.54 155.94,143.46 C 155.99,143.29 156.06,143.13 156.07,142.96 C 156.09,142.78 156.12,142.61 156.15,142.44 C 156.21,142.08 156.25,141.77 156.02,141.44 C 156.01,141.42 156.0,141.4 155.98,141.38 C 155.98,141.38 155.97,141.37 155.96,141.36 C 155.96,141.35 155.94,141.35 155.95,141.33 C 155.96,141.29 155.97,141.25 155.98,141.21 C 156.01,141.13 156.03,141.04 156.05,140.96 C 156.07,140.92 156.08,140.87 156.08,140.83 C 156.09,140.82 156.09,140.81 156.09,140.8 C 156.09,140.79 156.11,140.8 156.11,140.8 C 156.13,140.82 156.14,140.83 156.16,140.85 C 156.23,140.9 156.29,140.97 156.34,141.03 C 156.45,141.17 156.54,141.32 156.6,141.48 C 156.61,141.5 156.61,141.54 156.62,141.52 C 156.63,141.5 156.64,141.48 156.65,141.46 C 156.67,141.42 156.68,141.38 156.7,141.34 C 156.73,141.26 156.77,141.18 156.8,141.1 C 156.98,140.69 157.01,140.54 157.06,140.09 C 157.08,139.91 157.02,139.75 156.96,139.59 C 156.9,139.42 156.84,139.26 156.77,139.1 C 156.63,138.77 156.53,138.47 156.6,138.1 C 156.63,137.92 156.69,137.76 156.74,137.59 C 156.78,137.43 156.8,137.25 156.85,137.09 C 156.88,137.0 156.91,136.92 156.95,136.84 C 156.96,136.82 156.97,136.81 156.98,136.79 C 157.0,136.76 157.01,136.78 157.03,136.79 C 157.07,136.81 157.1,136.84 157.14,136.87 C 157.2,136.93 157.25,137.0 157.3,137.07 C 157.32,137.11 157.36,137.13 157.34,137.19 C 157.33,137.23 157.31,137.27 157.3,137.31 C 157.27,137.48 157.24,137.65 157.19,137.82 C 157.14,137.99 157.07,138.14 157.07,138.32 C 157.06,138.59 157.3,139.09 157.39,139.31 C 157.55,139.74 157.59,139.85 157.53,140.32 C 157.46,140.8 157.44,140.88 157.25,141.32 C 156.97,141.96 156.73,142.61 156.52,143.27 C 156.31,143.94 156.15,144.6 155.74,145.2 C 155.54,145.49 155.35,145.75 155.33,146.14 C 155.32,146.34 155.33,146.48 155.55,146.56 C 155.71,146.62 155.89,146.64 156.05,146.68 C 156.39,146.76 156.73,146.83 157.08,146.81 C 157.09,146.81 157.14,146.79 157.15,146.81 C 157.15,146.83 157.16,146.85 157.17,146.87 C 157.18,146.91 157.19,146.95 157.21,146.99 C 157.24,147.07 157.27,147.16 157.3,147.24 C 157.3,147.25 157.33,147.28 157.3,147.29 C 157.28,147.29 157.26,147.29 157.23,147.29 C 157.19,147.3 157.15,147.3 157.1,147.3 C 157.02,147.31 156.93,147.31 156.84,147.31 C 156.76,147.3 156.67,147.3 156.58,147.29 C 156.57,147.29 156.58,147.3 156.58,147.31 C 156.59,147.32 156.59,147.33 156.59,147.34 C 156.6,147.36 156.6,147.39 156.61,147.41 C 156.62,147.45 156.62,147.49 156.63,147.53 C 156.67,147.7 156.7,147.87 156.73,148.04 C 156.79,148.39 156.82,148.73 156.84,149.08 C 156.88,149.78 156.85,150.46 156.73,151.15 C 156.49,152.54 155.89,153.81 155.06,154.93 C 154.22,156.05 153.15,156.94 152.24,157.99 C 151.78,158.52 151.38,159.06 151.05,159.69 C 150.89,160.0 150.76,160.32 150.66,160.66 C 150.57,160.99 150.5,161.33 150.43,161.67 C 150.29,162.35 150.13,163.02 149.86,163.67 C 149.59,164.31 149.26,164.92 148.89,165.51 C 148.15,166.69 147.31,167.78 146.4,168.84 C 146.37,168.87 146.34,168.91 146.31,168.94 C 146.3,168.95 146.3,168.99 146.27,168.98 C 146.25,168.98 146.22,168.97 146.2,168.97 C 146.12,168.95 146.03,168.93 145.95,168.91 C 145.91,168.9 145.87,168.88 145.83,168.87 C 145.81,168.86 145.79,168.85 145.77,168.85 C 145.76,168.84 145.74,168.84 145.75,168.83 C 145.75,168.82 145.76,168.82 145.77,168.81 C 145.83,168.74 145.88,168.68 145.94,168.61 C 146.17,168.35 146.39,168.08 146.61,167.82 C 147.05,167.28 147.47,166.73 147.87,166.16 C 148.67,165.0 149.38,163.86 149.75,162.46 C 149.92,161.79 150.01,161.09 150.22,160.42 C 150.43,159.74 150.75,159.14 151.16,158.56 C 151.97,157.4 153.04,156.5 153.97,155.46 C 154.94,154.39 155.65,153.28 156.06,151.87 C 156.44,150.53 156.44,149.06 156.17,147.72 C 156.13,147.55 156.09,147.38 156.05,147.21 C 156.04,147.18 156.02,147.18 156.0,147.18 C 155.98,147.17 155.96,147.16 155.94,147.16 C 155.89,147.15 155.85,147.14 155.81,147.13 C 155.76,147.12 155.72,147.11 155.68,147.1 C 155.66,147.1 155.66,147.15 155.66,147.16 C 155.65,147.18 155.65,147.2 155.65,147.22 C 155.57,147.57 155.47,147.89 155.3,148.21 C 155.26,148.29 155.22,148.36 155.17,148.44 C 155.15,148.47 155.13,148.51 155.12,148.55 C 155.11,148.6 155.11,148.64 155.1,148.68 C 155.07,148.85 155.03,149.02 154.98,149.19 C 154.89,149.53 154.77,149.86 154.63,150.18 C 154.06,151.51 153.13,152.53 151.98,153.36 C 151.41,153.77 150.81,154.12 150.21,154.48 C 150.14,154.53 150.07,154.58 149.97,154.58 C 149.95,154.58 149.93,154.57 149.91,154.57 C 149.9,154.56 149.88,154.56 149.89,154.55 C 149.9,154.55 149.91,154.54 149.92,154.54 C 149.96,154.51 150.0,154.49 150.03,154.47 C 150.15,154.4 150.18,154.24 150.03,154.19 C 149.94,154.16 149.89,154.22 149.83,154.25 C 149.81,154.26 149.79,154.27 149.77,154.28 C 149.76,154.29 149.75,154.29 149.74,154.3 C 149.72,154.31 149.74,154.28 149.75,154.27 C 149.76,154.22 149.78,154.19 149.81,154.15 C 149.88,154.09 149.96,154.06 150.03,154.01 C 150.11,153.97 150.18,153.92 150.26,153.88 C 151.47,153.15 152.6,152.42 153.46,151.23 C 153.67,150.95 153.85,150.65 154.01,150.33 C 154.09,150.18 154.16,150.02 154.23,149.85 C 154.26,149.77 154.29,149.69 154.32,149.61 C 154.34,149.57 154.35,149.53 154.37,149.49 C 154.37,149.47 154.38,149.44 154.39,149.42 C 154.39,149.41 154.43,149.35 154.4,149.37 C 154.12,149.61 153.83,149.75 153.46,149.82 C 153.29,149.85 153.12,149.85 152.94,149.84 C 152.85,149.83 152.76,149.82 152.68,149.81 C 152.67,149.81 152.66,149.8 152.65,149.8 C 152.64,149.8 152.61,149.8 152.62,149.79 C 152.64,149.78 152.66,149.76 152.68,149.75 C 152.71,149.72 152.74,149.69 152.77,149.66 C 152.82,149.62 152.87,149.55 152.83,149.48 C 152.77,149.4 152.68,149.41 152.61,149.39 C 152.59,149.39 152.57,149.38 152.54,149.38 C 152.54,149.37 152.52,149.37 152.53,149.36 C 152.54,149.36 152.54,149.35 152.55,149.34 C 152.59,149.32 152.63,149.31 152.68,149.31 C 152.77,149.31 152.85,149.34 152.94,149.34 C 153.32,149.37 153.62,149.32 153.94,149.1 C 154.46,148.75 154.94,147.96 155.1,147.39 C 155.12,147.3 155.14,147.22 155.16,147.13 C 155.17,147.09 155.18,147.04 155.19,147.0 C 155.19,146.99 155.21,146.95 155.2,146.94 C 155.18,146.93 155.16,146.91 155.14,146.9 C 154.99,146.79 154.91,146.66 154.86,146.47 C 154.84,146.38 154.83,146.3 154.83,146.21 C 154.83,146.2 154.83,146.19 154.83,146.18 C 154.83,146.17 154.84,146.16 154.83,146.16 C 154.83,146.17 154.82,146.17 154.82,146.18 C 154.81,146.19 154.8,146.21 154.79,146.23 C 154.76,146.27 154.74,146.3 154.71,146.34 C 154.62,146.49 154.52,146.63 154.42,146.78 C 154.0,147.35 153.49,147.83 152.78,148.03 C 152.43,148.13 152.1,148.14 151.74,148.05 C 151.66,148.03 151.57,148.0 151.49,147.96 C 151.45,147.95 151.41,147.93 151.37,147.91 C 151.35,147.9 151.35,147.8 151.35,147.79 C 151.35,147.7 151.35,147.61 151.35,147.52 C 151.35,147.43 151.29,147.39 151.23,147.34 C 151.21,147.32 151.19,147.3 151.16,147.27 C 151.14,147.25 151.2,147.26 151.21,147.26 C 151.24,147.26 151.26,147.27 151.28,147.27 C 151.37,147.3 151.43,147.37 151.5,147.41 C 151.66,147.51 151.81,147.56 151.99,147.59 C 152.37,147.66 152.68,147.58 153.01,147.41 C 153.7,147.06 154.03,146.48 154.42,145.88 C 154.61,145.59 154.81,145.31 155.08,145.07 C 155.14,145.01 155.21,144.96 155.28,144.91 C 155.32,144.88 155.36,144.87 155.39,144.83 C 155.41,144.79 155.44,144.76 155.46,144.72 C 155.5,144.64 155.54,144.56 155.58,144.48 C 155.59,144.46 155.59,144.44 155.6,144.42 C 155.61,144.41 155.64,144.38 155.61,144.37 C 155.57,144.36 155.52,144.35 155.48,144.34 C 154.24,144.07 152.53,144.12 151.51,145.13 C 151.39,145.26 151.28,145.39 151.19,145.55 C 151.15,145.63 151.13,145.71 151.07,145.78 C 151.04,145.82 151.01,145.84 150.96,145.85 C 150.94,145.86 150.96,145.83 150.96,145.81 C 150.97,145.8 150.98,145.78 150.98,145.76 C 151.0,145.69 151.05,145.64 151.02,145.56 C 150.99,145.49 150.96,145.47 150.89,145.47 C 150.8,145.47 150.77,145.53 150.74,145.59 C 150.7,145.67 150.65,145.74 150.61,145.82 C 150.54,145.93 150.52,145.92 150.4,145.96 C 150.32,145.99 150.24,146.02 150.15,146.04 C 149.98,146.09 149.81,146.12 149.63,146.12 C 149.45,146.12 149.29,146.1 149.12,146.03 C 149.1,146.02 149.09,146.0 149.06,146.02 C 149.05,146.03 149.03,146.04 149.01,146.06 C 148.98,146.09 148.94,146.11 148.91,146.14 C 148.84,146.19 148.76,146.23 148.68,146.27 C 148.52,146.35 148.36,146.4 148.18,146.43 C 148.17,146.44 148.07,146.43 148.07,146.46 C 148.06,146.51 148.06,146.55 148.06,146.6 C 148.06,146.69 148.07,146.77 148.11,146.85 C 148.15,146.93 148.23,146.98 148.26,147.07 C 148.26,147.09 148.27,147.11 148.27,147.13 C 148.27,147.16 148.24,147.13 148.23,147.13 C 148.19,147.1 148.16,147.08 148.12,147.05 C 148.05,146.98 147.99,146.97 147.92,147.04 C 147.89,147.07 147.86,147.1 147.82,147.13 C 147.81,147.15 147.79,147.16 147.78,147.18 C 147.77,147.19 147.76,147.19 147.75,147.2 C 147.74,147.21 147.74,147.19 147.73,147.18 C 147.62,147.03 147.58,146.87 147.56,146.69 C 147.56,146.65 147.56,146.6 147.56,146.56 C 147.56,146.54 147.59,146.45 147.55,146.44 C 147.46,146.43 147.38,146.41 147.29,146.39 C 147.21,146.36 147.13,146.33 147.05,146.3 C 147.03,146.29 147.01,146.27 146.99,146.3 C 146.98,146.32 146.96,146.33 146.95,146.35 C 146.92,146.39 146.89,146.43 146.86,146.46 C 146.74,146.61 146.6,146.74 146.45,146.86 C 146.29,146.98 146.13,147.08 145.95,147.17 C 145.9,147.19 145.86,147.21 145.81,147.23 C 145.8,147.23 145.75,147.26 145.74,147.25 C 145.73,147.23 145.71,147.21 145.7,147.2 C 145.64,147.13 145.59,147.06 145.54,146.99 C 145.46,146.89 145.38,146.95 145.29,146.96 C 145.27,146.96 145.25,146.96 145.22,146.96 C 145.19,146.96 145.24,146.92 145.25,146.91 C 145.28,146.88 145.32,146.86 145.36,146.84 C 145.51,146.8 145.65,146.76 145.79,146.69 C 146.08,146.54 146.31,146.35 146.52,146.1 C 146.54,146.07 146.57,146.04 146.59,146.01 C 146.6,145.99 146.59,145.99 146.58,145.98 C 146.57,145.97 146.57,145.97 146.56,145.96 C 146.54,145.94 146.53,145.93 146.51,145.91 C 146.46,145.85 146.41,145.77 146.36,145.7 C 146.35,145.68 146.34,145.66 146.33,145.64 C 146.33,145.63 146.31,145.63 146.3,145.63 C 146.29,145.63 146.28,145.63 146.27,145.63 C 146.23,145.63 146.18,145.62 146.14,145.61 C 146.1,145.6 146.06,145.59 146.01,145.58 C 145.99,145.57 145.98,145.56 145.95,145.57 C 145.94,145.59 145.92,145.6 145.9,145.61 C 145.61,145.83 145.31,145.96 144.95,146.04 C 144.78,146.07 144.61,146.1 144.43,146.1 C 144.42,146.1 144.39,146.08 144.39,146.11 C 144.39,146.13 144.4,146.14 144.4,146.16 C 144.4,146.19 144.41,146.23 144.42,146.26 C 144.44,146.32 144.47,146.38 144.5,146.43 C 144.58,146.56 144.68,146.65 144.8,146.72 C 144.86,146.76 144.93,146.79 145.0,146.81 C 145.04,146.82 145.07,146.84 145.11,146.88 C 145.12,146.89 145.13,146.91 145.14,146.93 C 145.15,146.94 145.17,146.96 145.15,146.95 C 145.14,146.95 145.13,146.95 145.12,146.95 C 145.03,146.94 144.95,146.89 144.85,146.93 C 144.76,146.96 144.67,146.99 144.58,147.01 C 144.54,147.02 144.49,147.04 144.45,147.05 C 144.38,147.06 144.36,147.01 144.32,146.98 C 144.24,146.91 144.17,146.83 144.1,146.74 C 143.98,146.55 143.92,146.36 143.89,146.15 C 143.89,146.13 143.9,146.01 143.87,146.01 C 143.83,145.99 143.79,145.97 143.75,145.96 C 143.67,145.92 143.6,145.87 143.53,145.82 C 143.46,145.77 143.39,145.72 143.33,145.65 C 143.3,145.62 143.27,145.59 143.24,145.56 C 143.21,145.52 143.17,145.52 143.13,145.51 C 142.96,145.47 142.79,145.43 142.62,145.39 C 141.94,145.22 141.28,144.99 140.62,144.76 C 140.46,144.7 140.29,144.65 140.13,144.59 C 140.05,144.56 139.96,144.53 139.88,144.5 C 139.84,144.49 139.8,144.47 139.76,144.46 C 139.74,144.45 139.72,144.44 139.7,144.43 C 139.68,144.43 139.64,144.43 139.66,144.4 C 139.71,144.34 139.78,144.28 139.82,144.2 C 139.87,144.12 139.83,144.07 139.75,144.04 C 139.71,144.02 139.67,144.0 139.63,143.99 C 139.61,143.98 139.59,143.97 139.57,143.96 C 139.56,143.96 139.54,143.96 139.55,143.95 C 139.56,143.95 139.57,143.94 139.58,143.94 C 139.67,143.89 139.74,143.92 139.83,143.95 C 140.48,144.2 141.14,144.42 141.81,144.64 C 142.14,144.74 142.47,144.84 142.81,144.93 C 142.85,144.94 142.9,144.95 142.94,144.96 C 142.97,144.96 142.95,144.93 142.94,144.91 C 142.94,144.89 142.94,144.87 142.93,144.84 C 142.92,144.76 142.92,144.67 142.92,144.58 C 142.93,144.41 142.97,144.24 143.03,144.08 C 143.07,143.99 143.11,143.92 143.15,143.84 C 143.17,143.8 143.19,143.77 143.22,143.73 C 143.23,143.71 143.24,143.69 143.26,143.68 C 143.26,143.67 143.27,143.66 143.28,143.65 C 143.29,143.64 143.27,143.64 143.26,143.63 C 143.11,143.54 142.98,143.43 142.87,143.28 C 142.85,143.25 142.83,143.21 142.8,143.17 C 142.78,143.12 142.73,143.13 142.69,143.12 C 142.61,143.09 142.53,143.06 142.45,143.03 C 142.28,142.97 142.12,142.91 141.96,142.84 C 141.31,142.56 140.72,142.22 140.15,141.79 C 139.59,141.37 139.1,140.89 138.62,140.37 C 138.39,140.12 138.16,139.85 137.93,139.59 C 137.87,139.52 137.82,139.46 137.76,139.39 C 137.75,139.38 137.75,139.37 137.74,139.36 C 137.73,139.35 137.71,139.35 137.72,139.34 C 137.73,139.32 137.75,139.3 137.76,139.29 C 137.79,139.25 137.81,139.22 137.84,139.18 C 137.89,139.12 137.98,139.08 137.92,138.97 C 137.9,138.93 137.87,138.9 137.85,138.87 C 137.83,138.85 137.82,138.83 137.81,138.81 C 137.8,138.8 137.79,138.79 137.79,138.79 C 137.78,138.78 137.79,138.78 137.8,138.78 C 137.91,138.78 137.96,138.84 138.01,138.91 C 138.07,138.98 138.12,139.05 138.18,139.12 C 138.29,139.25 138.4,139.38 138.52,139.51 C 138.75,139.78 138.98,140.04 139.22,140.29 C 140.22,141.34 141.29,142.1 142.67,142.59 z M 141.44,147.37 C 141.43,147.41 141.41,147.44 141.39,147.46 C 141.37,147.48 141.36,147.49 141.34,147.5 C 141.33,147.5 141.31,147.52 141.31,147.5 C 141.31,147.42 141.35,147.36 141.36,147.28 C 141.38,147.12 141.15,147.14 141.05,147.12 C 141.04,147.12 141.01,147.13 141.02,147.11 C 141.03,147.09 141.03,147.07 141.04,147.06 C 141.06,147.03 141.08,147.0 141.1,146.97 C 141.14,146.91 141.18,146.86 141.23,146.81 C 141.33,146.71 141.44,146.64 141.57,146.58 C 142.14,146.35 142.68,146.57 143.11,146.93 C 143.17,146.98 143.22,147.03 143.28,147.08 C 143.31,147.1 143.33,147.13 143.36,147.15 C 143.37,147.16 143.38,147.17 143.38,147.17 C 143.39,147.18 143.42,147.19 143.4,147.19 C 143.38,147.19 143.36,147.2 143.34,147.2 C 143.24,147.2 143.02,147.18 143.04,147.34 C 143.05,147.41 143.11,147.45 143.15,147.49 C 143.18,147.51 143.21,147.54 143.23,147.56 C 143.24,147.57 143.24,147.57 143.25,147.58 C 143.26,147.59 143.25,147.59 143.24,147.59 C 143.22,147.59 143.21,147.59 143.19,147.59 C 143.07,147.58 142.92,147.42 142.84,147.36 C 142.63,147.17 142.42,147.01 142.12,146.99 C 141.83,146.97 141.55,147.08 141.44,147.37 z" />

		<!-- Prism Reference -->
		<cam mingh:cam="--verb EditSelectAll --verb EditSelectAll --verb ZoomSelection --verb FileSave"/> 
	 </g>

</svg>
