<svg
   xmlns:xlink="http://www.w3.org/1999/xlink"
   xmlns:svg="http://www.w3.org/2000/svg"
   xmlns="http://www.w3.org/2000/svg"
   xmlns:mingh="http://www.minghworld.com"
   width="300px"
   height="300px" >
	 <g>
		<!-- Paths -->
		<path transform="matrix(-1 0 0 1 300 0)" style="fill:#ff0;stroke:none;"
		 d="M 149.66,128.47 C 148.28,128.45 146.98,129.14 146.25,130.34 C 145.42,131.71 145.48,133.44 146.44,134.72 C 146.76,135.15 147.16,135.48 147.63,135.75 C 147.73,135.81 147.83,135.89 147.94,135.94 C 147.99,135.96 148.14,135.97 148.16,136.06 C 148.17,136.17 148.11,136.18 148.03,136.19 C 147.94,136.2 147.84,136.21 147.75,136.22 C 147.04,136.29 146.35,136.4 145.66,136.56 C 144.17,136.9 142.79,137.39 141.44,138.09 C 138.64,139.55 136.27,141.74 134.59,144.41 C 131.19,149.81 130.96,156.63 134.0,162.25 C 137.04,167.88 142.88,171.41 149.28,171.53 C 155.68,171.65 161.6,168.33 164.84,162.81 C 165.28,162.07 165.13,161.14 164.47,160.59 C 163.81,160.05 162.86,160.06 162.22,160.63 C 162.1,160.73 162.01,160.85 161.91,160.97 C 161.89,160.99 161.86,161.01 161.84,161.03 C 161.83,161.04 161.82,161.05 161.81,161.06 C 161.81,161.07 161.78,161.06 161.78,161.06 C 161.78,160.96 161.75,160.85 161.75,160.75 C 161.74,160.34 161.73,159.94 161.72,159.53 C 161.69,158.71 161.65,157.91 161.63,157.09 C 161.62,156.87 161.6,156.63 161.59,156.41 C 161.59,156.23 161.56,156.08 161.63,155.91 C 161.68,155.75 161.81,155.69 161.94,155.63 C 162.16,155.51 162.39,155.41 162.63,155.31 C 163.37,154.98 164.13,154.64 164.88,154.31 C 165.62,153.98 166.38,153.67 167.13,153.34 C 167.34,153.25 167.57,153.13 167.78,153.03 C 167.88,152.98 168.02,152.94 168.09,152.84 C 168.15,152.77 168.06,152.72 168.0,152.69 C 167.83,152.6 167.68,152.55 167.5,152.5 C 165.86,152.02 164.21,151.56 162.56,151.09 C 162.34,151.03 161.58,150.86 161.38,150.72 C 161.23,150.62 161.24,150.49 161.22,150.34 C 161.18,150.09 161.15,149.82 161.13,149.56 C 161.04,148.72 160.96,147.87 160.88,147.03 C 160.83,146.61 160.79,146.2 160.75,145.78 C 160.74,145.73 160.72,145.68 160.72,145.63 C 160.72,145.61 160.72,145.61 160.72,145.59 C 160.72,145.6 160.74,145.59 160.75,145.59 C 160.8,145.63 160.86,145.68 160.91,145.72 C 161.0,145.8 161.09,145.88 161.19,145.97 C 161.56,146.32 161.9,146.69 162.22,147.09 C 162.32,147.23 162.43,147.36 162.56,147.47 C 162.73,147.61 162.92,147.71 163.13,147.78 C 163.54,147.92 163.98,147.9 164.38,147.72 C 165.18,147.35 165.59,146.42 165.28,145.59 C 165.11,145.14 164.31,143.98 164.03,143.59 C 163.57,142.94 163.08,142.31 162.53,141.72 C 161.42,140.53 160.2,139.53 158.81,138.69 C 157.47,137.87 156.07,137.25 154.56,136.81 C 153.85,136.6 153.14,136.46 152.41,136.34 C 152.05,136.29 151.7,136.22 151.34,136.19 C 151.32,136.19 151.09,136.17 151.06,136.16 C 151.0,136.13 151.0,136.04 151.06,136.0 C 151.11,135.97 151.17,135.96 151.22,135.94 C 151.28,135.91 151.32,135.87 151.38,135.84 C 151.49,135.79 151.61,135.73 151.72,135.66 C 153.08,134.78 153.76,133.18 153.44,131.59 C 153.11,130.01 151.84,128.77 150.25,128.5 C 150.05,128.47 149.85,128.47 149.66,128.47 z M 149.59,130.44 C 149.85,130.44 150.11,130.46 150.34,130.56 C 150.58,130.66 150.79,130.82 150.97,131.0 C 151.15,131.18 151.31,131.39 151.41,131.63 C 151.5,131.86 151.53,132.12 151.53,132.38 C 151.53,132.63 151.5,132.89 151.41,133.13 C 151.31,133.36 151.15,133.57 150.97,133.75 C 150.79,133.93 150.58,134.09 150.34,134.19 C 150.11,134.29 149.85,134.31 149.59,134.31 C 149.34,134.31 149.08,134.29 148.84,134.19 C 148.61,134.09 148.4,133.93 148.22,133.75 C 148.04,133.57 147.88,133.36 147.78,133.13 C 147.68,132.89 147.66,132.63 147.66,132.38 C 147.66,132.12 147.68,131.86 147.78,131.63 C 147.88,131.39 148.04,131.18 148.22,131.0 C 148.4,130.82 148.61,130.66 148.84,130.56 C 149.08,130.46 149.34,130.44 149.59,130.44 z M 153.03,143.09 C 155.29,142.92 157.56,143.48 159.53,144.72 C 159.02,145.48 158.51,146.24 158.0,147.0 C 157.74,147.38 157.48,147.74 157.22,148.13 C 157.12,148.28 156.57,149.15 156.44,149.28 C 156.32,149.4 156.19,149.43 156.03,149.41 C 155.75,149.37 155.49,149.31 155.22,149.25 C 154.77,149.15 154.32,149.03 153.88,148.94 C 152.98,148.74 152.05,148.57 151.16,148.38 C 150.65,148.27 150.16,148.15 149.66,148.06 C 149.57,148.05 149.49,148.03 149.41,148.03 C 149.36,148.03 149.32,148.02 149.28,148.06 C 149.22,148.14 149.37,148.33 149.41,148.38 C 149.7,148.8 150.03,149.19 150.34,149.59 C 150.64,149.97 150.92,150.34 151.22,150.72 C 151.81,151.48 152.41,152.24 153.0,153.0 C 153.16,153.2 153.34,153.37 153.47,153.59 C 153.56,153.75 153.54,153.88 153.47,154.03 C 153.35,154.29 153.21,154.53 153.06,154.78 C 152.94,154.99 152.81,155.2 152.69,155.41 C 152.21,156.23 151.73,157.05 151.25,157.88 C 151.01,158.29 150.77,158.71 150.53,159.13 C 150.4,159.35 150.24,159.57 150.13,159.81 C 150.1,159.87 150.03,160.03 150.13,160.06 C 150.18,160.08 150.23,160.07 150.28,160.06 C 150.38,160.04 150.47,160.0 150.56,159.97 C 150.82,159.88 151.09,159.78 151.34,159.69 C 151.79,159.52 152.24,159.35 152.69,159.19 C 153.58,158.86 154.48,158.55 155.38,158.22 C 155.65,158.12 155.91,158.01 156.19,157.91 C 156.33,157.86 156.48,157.82 156.63,157.78 C 156.71,157.76 156.78,157.76 156.88,157.78 C 156.98,157.81 157.05,157.87 157.13,157.94 C 157.26,158.07 157.37,158.2 157.5,158.34 C 157.69,158.55 157.88,158.76 158.06,158.97 C 158.81,159.8 159.54,160.63 160.28,161.47 C 160.37,161.57 160.47,161.68 160.56,161.78 C 160.61,161.83 160.67,161.92 160.72,161.97 C 160.74,161.99 160.76,162.01 160.78,162.03 C 160.79,162.04 160.76,162.06 160.75,162.06 C 160.62,162.17 160.48,162.3 160.34,162.41 C 160.07,162.61 159.79,162.79 159.5,162.97 C 158.93,163.32 158.34,163.6 157.72,163.84 C 154.24,165.19 150.32,164.66 147.34,162.41 C 144.36,160.15 142.78,156.53 143.13,152.81 C 143.47,149.09 145.71,145.84 149.06,144.19 C 150.32,143.57 151.68,143.2 153.03,143.09 z" />
		<text id="txtTwo" transform="matrix(1 0 0 1 150 160)" style="stroke:none;fill:#f00;font-family:'Eras Medium ITC';font-size:20px;text-anchor:middle"  >
		</text>
		<!-- Prism Reference -->
		<cam mingh:cam=" --verb EditSelectAll --verb ZoomSelection --verb FileSave"/> 
	 </g>

</svg>