<svg
   xmlns:xlink="http://www.w3.org/1999/xlink"
   xmlns:svg="http://www.w3.org/2000/svg"
   xmlns="http://www.w3.org/2000/svg"
   xmlns:mingh="http://www.minghworld.com"
   width="300px"
   height="300px" >
	 <g>	
		<!-- Paths -->
		<path style="fill:none;stroke:#000;stroke-width:0.25px;"
		 d="M 153.02,153.54 C 152.66,154.0 152.34,154.47 152.05,154.93 C 151.4,155.98 150.97,156.97 150.65,158.59 C 150.28,160.45 150.07,163.14 149.75,163.0 C 149.49,162.88 149.17,160.92 149.16,159.42 C 149.14,157.74 149.51,156.64 149.97,155.43 C 150.4,154.31 150.91,153.09 151.44,151.93 C 152.27,150.14 153.16,148.48 154.37,146.88 C 155.0,146.04 155.72,145.21 156.77,144.88 C 157.51,144.64 158.42,144.66 158.96,145.06 C 159.48,145.44 159.67,146.19 159.77,146.97 C 159.86,147.68 159.87,148.43 159.46,148.85 C 159.21,149.12 158.78,149.26 158.35,149.31 C 157.66,149.4 156.95,149.26 156.46,149.6 C 156.04,149.88 155.78,150.5 155.82,151.07 C 155.87,151.7 156.31,152.26 156.83,152.54 C 157.71,153.0 158.84,152.64 159.79,152.14 C 160.77,151.63 161.58,150.99 162.12,150.15 C 162.88,148.97 163.13,147.42 162.95,145.94 C 162.81,144.76 162.4,143.62 161.61,142.82 C 160.81,142.0 159.6,141.54 158.41,141.48 C 157.09,141.43 155.8,141.88 154.71,142.58 C 153.58,143.3 152.65,144.29 151.83,145.34 C 150.85,146.6 150.02,147.94 149.27,149.33 C 148.34,151.05 147.54,152.84 146.94,154.71 C 146.18,157.12 145.75,159.68 146.13,162.21 C 146.32,163.44 146.69,164.67 147.51,165.63 C 148.07,166.27 148.82,166.79 149.64,166.92 C 150.2,167.01 150.78,166.92 151.33,166.7 C 152.02,166.43 152.64,165.98 153.06,165.41 C 153.89,164.29 153.95,162.72 153.96,161.24 C 153.97,159.46 153.91,157.8 153.63,156.13 C 153.48,155.27 153.28,154.4 153.02,153.54 z M 149.61,145.37 C 149.1,144.82 148.56,144.3 148.0,143.81 C 147.01,142.95 145.95,142.18 144.7,141.69 C 143.5,141.21 142.11,140.98 140.94,141.38 C 139.82,141.77 138.9,142.73 138.29,143.79 C 137.71,144.81 137.42,145.93 137.41,147.09 C 137.39,148.16 137.6,149.26 138.18,150.15 C 138.67,150.93 139.44,151.55 140.27,151.92 C 141.06,152.28 141.91,152.42 142.84,152.46 C 143.47,152.49 144.14,152.48 144.58,152.09 C 144.79,151.91 144.96,151.64 145.0,151.35 C 145.06,150.96 144.9,150.54 144.63,150.25 C 144.33,149.92 143.89,149.76 143.46,149.7 C 143.04,149.64 142.63,149.69 142.19,149.68 C 141.86,149.68 141.51,149.64 141.25,149.46 C 140.97,149.28 140.8,148.93 140.7,148.58 C 140.52,147.93 140.59,147.27 140.82,146.67 C 141.07,146.0 141.52,145.42 142.03,145.06 C 142.38,144.81 142.76,144.67 143.14,144.63 C 143.72,144.57 144.33,144.75 144.9,145.05 C 145.91,145.6 146.8,146.54 147.86,147.94 C 148.15,147.43 148.47,146.93 148.81,146.44 C 149.06,146.07 149.33,145.72 149.61,145.37 z M 151.11,132.85 C 151.11,131.77 150.23,130.9 149.16,130.9 C 148.08,130.9 147.21,131.77 147.21,132.85 C 147.21,133.92 148.08,134.79 149.16,134.79 C 150.23,134.79 151.11,133.92 151.11,132.85 z M 157.79,131.93 C 162.09,135.29 165.47,139.69 167.63,144.71 C 168.74,147.31 169.49,149.94 169.91,152.74 C 170.08,153.9 170.25,155.54 170.24,156.72 C 170.24,158.05 170.05,159.32 169.67,160.59 C 168.88,163.28 167.3,165.67 165.14,167.45 C 164.08,168.32 162.94,169.01 161.68,169.54 C 160.37,170.09 159.32,170.33 157.93,170.56 C 152.55,171.47 147.03,171.12 141.81,169.52 C 140.51,169.13 139.24,168.68 138.0,168.12 C 136.78,167.57 135.69,166.88 134.68,166.01 C 132.56,164.21 131.02,161.81 130.27,159.13 C 129.91,157.83 129.74,156.54 129.76,155.19 C 129.77,154.02 129.99,152.35 130.18,151.2 C 130.65,148.44 131.42,145.83 132.52,143.27 C 133.63,140.68 135.01,138.31 136.7,136.07 C 137.41,135.13 138.48,133.82 139.32,132.99 C 140.26,132.06 141.28,131.3 142.45,130.66 C 147.36,127.98 153.38,128.48 157.79,131.93 z"
		 />
		<!-- Prism Reference -->
		<cam mingh:cam="--verb EditSelectAll --verb EditSelectAll --verb ZoomSelection --verb FileSave"/> 
	 </g>

</svg>
