<svg
   xmlns:xlink="http://www.w3.org/1999/xlink"
   xmlns:svg="http://www.w3.org/2000/svg"
   xmlns="http://www.w3.org/2000/svg"
   xmlns:mingh="http://www.minghworld.com"
   width="300px"
   height="300px" >
	 <g>
		
		<!-- Paths -->
		<path style="fill:none;stroke:#000;stroke-width:0.25px;"
		 d="M 149.91,128.13 C 147.59,128.34 145.8,130.65 146.53,133.13 C 146.74,133.83 147.14,134.45 147.69,134.94 C 147.75,134.99 147.84,135.04 147.91,135.09 C 147.93,135.11 147.99,135.15 147.94,135.16 C 147.92,135.16 147.9,135.15 147.88,135.16 C 147.79,135.17 147.74,135.21 147.66,135.22 C 147.49,135.24 147.32,135.25 147.16,135.28 C 146.51,135.39 145.88,135.52 145.25,135.69 C 143.98,136.03 142.77,136.5 141.59,137.09 C 139.26,138.27 137.19,139.88 135.5,141.88 C 133.65,144.05 132.3,146.6 131.53,149.34 C 130.77,152.05 130.59,155.0 131.0,157.78 C 131.45,160.86 132.57,163.44 134.28,166.0 C 135.11,167.24 135.99,168.41 137.13,169.41 C 137.6,169.82 138.11,170.16 138.69,170.41 C 139.23,170.64 139.81,170.85 140.38,171.03 C 140.62,171.11 140.92,171.21 141.19,171.16 C 141.31,171.13 141.38,171.1 141.44,171.0 C 141.53,170.85 141.51,170.66 141.66,170.53 C 141.75,170.45 141.86,170.46 141.97,170.5 C 142.15,170.56 142.3,170.65 142.47,170.72 C 142.61,170.78 142.78,170.83 142.91,170.69 C 143.06,170.51 142.96,170.3 142.91,170.13 C 142.89,170.07 142.86,169.94 142.94,169.91 C 143.0,169.88 143.04,169.92 143.09,169.94 C 143.2,169.97 143.3,169.99 143.41,170.03 C 143.83,170.2 144.23,170.42 144.66,170.59 C 145.7,171.03 146.98,171.39 148.09,171.59 C 150.63,172.06 153.23,171.96 155.72,171.31 C 161.32,169.85 165.84,165.76 167.94,160.38 C 170.03,154.99 169.45,148.95 166.44,144.03 C 163.42,139.11 158.32,135.85 152.59,135.16 C 155.15,133.28 154.51,129.3 151.5,128.31 C 151.13,128.19 150.74,128.14 150.38,128.13 C 150.22,128.12 150.06,128.11 149.91,128.13 z M 150.28,130.06 C 150.41,130.06 150.53,130.1 150.66,130.13 C 150.91,130.17 151.13,130.26 151.34,130.41 C 151.56,130.55 151.76,130.73 151.91,130.94 C 152.05,131.15 152.14,131.38 152.19,131.63 C 152.24,131.88 152.24,132.16 152.19,132.41 C 152.14,132.66 152.05,132.88 151.91,133.09 C 151.76,133.31 151.59,133.48 151.38,133.63 C 151.16,133.77 150.91,133.89 150.66,133.94 C 150.41,133.99 150.16,133.99 149.91,133.94 C 149.66,133.89 149.4,133.8 149.19,133.66 C 148.98,133.51 148.8,133.31 148.66,133.09 C 148.51,132.88 148.43,132.66 148.38,132.41 C 148.32,132.16 148.33,131.91 148.38,131.66 C 148.42,131.41 148.51,131.15 148.66,130.94 C 148.8,130.73 148.98,130.55 149.19,130.41 C 149.4,130.26 149.66,130.18 149.91,130.13 C 150.03,130.1 150.15,130.06 150.28,130.06 z M 151.5,143.09 C 151.82,143.1 152.15,143.13 152.47,143.16 C 153.12,143.22 153.77,143.33 154.41,143.5 C 155.05,143.68 155.65,143.9 156.25,144.19 C 156.85,144.47 157.42,144.83 157.97,145.22 C 158.52,145.61 159.06,146.05 159.53,146.53 C 160.01,147.02 160.43,147.53 160.81,148.09 C 161.2,148.66 161.56,149.28 161.84,149.91 C 162.13,150.54 162.36,151.17 162.53,151.84 C 162.71,152.52 162.82,153.24 162.88,153.94 C 162.93,154.64 162.94,155.36 162.88,156.06 C 162.81,156.78 162.66,157.47 162.47,158.16 C 162.27,158.85 162.03,159.54 161.72,160.19 C 161.4,160.85 161.02,161.47 160.59,162.06 C 160.16,162.66 159.68,163.24 159.16,163.75 C 158.62,164.27 158.05,164.74 157.44,165.16 C 156.82,165.58 156.15,165.94 155.47,166.25 C 154.78,166.56 154.06,166.82 153.34,167.0 C 152.62,167.19 151.89,167.28 151.28,167.34 C 150.59,167.41 150.05,167.43 149.59,167.41 C 148.57,167.34 147.96,167.18 147.47,167.06 C 146.93,166.93 146.53,166.83 146.38,166.69 C 146.22,166.55 146.29,166.35 146.38,166.13 C 146.42,166.01 146.49,165.92 146.44,165.81 C 146.34,165.59 145.88,165.37 145.66,165.16 C 145.43,164.94 145.42,164.7 145.75,164.63 C 145.92,164.59 146.17,164.61 146.34,164.56 C 146.68,164.47 146.74,164.21 146.09,163.41 C 145.99,163.28 145.86,163.12 145.75,162.97 C 145.48,162.62 145.22,162.21 144.81,161.72 C 144.67,161.55 144.53,161.4 144.34,161.22 C 144.22,161.1 144.1,160.96 143.97,160.84 C 143.81,160.7 143.64,160.58 143.56,160.5 C 143.47,160.41 143.47,160.41 143.47,160.41 C 143.03,159.93 142.75,159.57 142.41,159.13 C 142.4,159.12 142.2,158.84 142.03,158.56 C 141.87,158.29 141.73,158.04 141.59,157.75 C 141.48,157.5 141.38,157.23 141.28,156.97 C 141.18,156.7 141.1,156.43 141.03,156.16 C 140.88,155.6 140.77,155.01 140.72,154.44 C 140.67,153.85 140.67,153.27 140.72,152.69 C 140.77,152.09 140.88,151.51 141.03,150.94 C 141.19,150.36 141.4,149.76 141.66,149.22 C 141.91,148.67 142.21,148.15 142.56,147.66 C 142.92,147.15 143.31,146.68 143.75,146.25 C 144.19,145.81 144.68,145.39 145.19,145.03 C 145.7,144.67 146.24,144.36 146.81,144.09 C 147.39,143.83 148.01,143.63 148.63,143.47 C 149.25,143.31 149.86,143.18 150.5,143.13 C 150.82,143.1 151.18,143.09 151.5,143.09 z"
		 />
		 <path style="fill:#f00;stroke:none;"
		 d="M 151.79,169.2 C 151.27,169.23 150.76,169.21 150.24,169.2 C 149.72,169.2 149.2,169.15 148.68,169.13 C 148.55,169.12 148.42,169.11 148.29,169.15 C 148.22,169.17 148.08,169.24 148.13,169.33 C 148.17,169.41 148.37,169.46 148.44,169.49 C 148.61,169.54 148.78,169.59 148.95,169.63 C 149.46,169.75 149.96,169.85 150.48,169.88 C 151.36,169.93 152.71,169.9 153.58,169.7 C 153.88,169.62 154.42,169.42 153.98,169.24 C 153.77,169.15 153.56,169.16 153.34,169.17 C 152.81,169.17 152.33,169.18 151.79,169.2 z M 164.1,163.34 C 164.38,163.03 164.7,162.76 164.93,162.4 C 165.06,162.2 165.44,161.54 165.5,161.31 C 165.52,161.25 165.53,161.2 165.53,161.14 C 165.54,161.11 165.53,161.09 165.54,161.06 C 165.55,161.04 165.56,161.02 165.57,161.0 C 165.62,160.91 165.66,160.83 165.7,160.75 C 165.78,160.59 165.85,160.44 165.93,160.28 C 166.02,160.07 166.11,159.86 166.19,159.65 C 166.22,159.6 166.24,159.54 166.26,159.48 C 166.26,159.47 166.27,159.46 166.27,159.45 C 166.28,159.44 166.31,159.36 166.28,159.34 C 166.22,159.3 166.11,159.36 166.07,159.4 C 166.0,159.48 165.96,159.58 165.9,159.68 C 165.83,159.81 165.74,159.92 165.65,160.04 C 165.59,160.12 165.52,160.21 165.46,160.3 C 165.42,160.35 165.38,160.41 165.34,160.46 C 165.32,160.49 165.3,160.52 165.28,160.55 C 165.26,160.57 165.22,160.52 165.2,160.51 C 165.18,160.5 165.15,160.49 165.12,160.48 C 165.1,160.47 165.06,160.48 165.07,160.45 C 165.08,160.43 165.08,160.41 165.09,160.39 C 165.1,160.36 165.11,160.33 165.12,160.29 C 165.14,160.23 165.16,160.16 165.18,160.09 C 165.21,159.98 165.25,159.86 165.29,159.75 C 165.37,159.5 165.46,159.26 165.56,159.02 C 165.67,158.76 165.77,158.49 165.94,158.26 C 165.98,158.19 166.02,158.14 166.09,158.1 C 166.16,158.07 166.21,158.06 166.24,158.14 C 166.26,158.21 166.26,158.27 166.27,158.34 C 166.27,158.41 166.25,158.58 166.28,158.66 C 166.29,158.69 166.3,158.72 166.34,158.7 C 166.41,158.67 166.43,158.61 166.46,158.55 C 166.56,158.35 166.63,158.14 166.7,157.92 C 166.92,157.19 167.09,156.45 167.17,155.69 C 167.18,155.55 167.2,155.41 167.21,155.28 C 167.22,155.19 167.24,155.1 167.22,155.01 C 167.2,154.95 167.16,154.93 167.11,154.97 C 167.07,155.01 167.06,155.05 167.05,155.1 C 167.03,155.19 167.02,155.29 167.0,155.38 C 166.97,155.58 166.94,155.78 166.84,155.97 C 166.77,156.11 166.69,156.09 166.65,155.95 C 166.62,155.84 166.63,155.74 166.64,155.63 C 166.65,155.5 166.65,155.36 166.66,155.23 C 166.67,154.91 166.66,154.6 166.71,154.29 C 166.73,154.17 166.72,154.06 166.87,154.01 C 166.93,153.99 166.92,153.84 166.92,153.8 C 166.94,153.59 166.95,153.38 166.95,153.17 C 166.95,152.28 166.85,151.41 166.69,150.53 C 166.53,149.64 166.3,148.77 166.01,147.92 C 165.73,147.07 165.35,146.28 164.87,145.52 C 164.4,144.79 163.9,144.09 163.35,143.41 C 163.11,143.1 162.85,142.81 162.58,142.52 C 162.47,142.41 162.36,142.31 162.24,142.21 C 162.19,142.17 162.15,142.15 162.09,142.19 C 161.76,142.38 161.44,142.6 161.09,142.76 C 160.98,142.81 160.89,142.84 160.77,142.8 C 160.58,142.72 160.43,142.59 160.27,142.47 C 159.81,142.13 159.36,141.78 158.87,141.49 C 157.76,140.83 156.59,140.42 155.36,140.07 C 154.24,139.76 153.12,139.56 151.96,139.49 C 151.25,139.45 150.54,139.42 149.83,139.43 C 149.64,139.43 149.46,139.44 149.27,139.4 C 149.2,139.39 149.31,139.33 149.34,139.31 C 149.39,139.28 149.43,139.26 149.48,139.24 C 149.57,139.21 149.66,139.19 149.75,139.16 C 150.02,139.08 150.3,139.03 150.58,138.99 C 151.2,138.92 152.08,138.94 152.7,138.98 C 153.28,139.03 153.85,139.11 154.41,139.22 C 155.29,139.39 156.14,139.64 156.97,139.95 C 157.93,140.31 158.85,140.74 159.72,141.28 C 160.06,141.49 160.37,141.73 160.69,141.97 C 160.77,142.02 160.88,142.12 160.98,142.02 C 161.03,141.97 161.07,141.93 161.04,141.85 C 161.01,141.76 160.95,141.71 160.89,141.65 C 160.72,141.47 160.53,141.33 160.33,141.18 C 159.13,140.3 157.86,139.68 156.45,139.23 C 155.39,138.88 154.32,138.63 153.22,138.45 C 152.59,138.35 151.97,138.29 151.34,138.27 C 150.72,138.25 150.12,138.35 149.51,138.44 C 149.12,138.49 148.74,138.56 148.35,138.64 C 148.06,138.7 147.77,138.79 147.49,138.87 C 146.97,139.01 146.47,139.16 145.97,139.35 C 145.43,139.54 144.91,139.75 144.41,140.04 C 144.28,140.12 144.16,140.18 144.1,140.34 C 144.04,140.5 143.94,140.6 143.81,140.7 C 143.11,141.23 142.32,141.62 141.63,142.18 C 141.43,142.34 141.07,142.61 140.94,142.87 C 140.92,142.91 140.91,142.94 140.92,142.99 C 140.92,143.03 140.96,143.05 140.97,143.09 C 140.99,143.19 141.01,143.29 141.02,143.4 C 141.02,143.58 140.93,143.7 140.83,143.83 C 140.7,143.99 140.55,144.14 140.42,144.3 C 140.28,144.47 140.15,144.66 140.03,144.84 C 139.81,145.17 139.42,145.78 139.09,146.04 C 138.89,146.19 138.88,146.06 138.92,145.85 C 138.97,145.57 139.17,144.95 139.28,144.69 C 139.35,144.51 139.45,144.36 139.55,144.2 C 139.68,144.01 139.83,143.82 139.93,143.61 C 140.01,143.43 139.98,143.26 139.78,143.37 C 139.56,143.49 139.43,143.68 139.26,143.84 C 139.23,143.86 139.15,143.92 139.15,143.87 C 139.15,143.84 139.16,143.83 139.17,143.81 C 139.2,143.75 139.23,143.69 139.26,143.63 C 139.47,143.28 139.7,142.95 139.95,142.62 C 140.48,141.93 141.01,141.43 141.7,140.9 C 142.19,140.51 142.69,140.12 143.22,139.78 C 143.94,139.32 144.69,138.96 145.5,138.67 C 146.41,138.35 147.34,138.09 148.27,137.83 C 148.69,137.71 149.1,137.62 149.53,137.57 C 150.21,137.5 150.89,137.49 151.57,137.49 C 152.32,137.49 153.25,137.55 153.98,137.7 C 154.92,137.9 156.84,138.41 157.74,138.76 C 157.96,138.84 158.18,138.94 158.4,139.05 C 158.6,139.15 158.79,139.28 159.02,139.34 C 159.14,139.37 159.23,139.36 159.34,139.32 C 159.43,139.28 159.52,139.23 159.6,139.18 C 159.66,139.14 159.71,139.1 159.77,139.06 C 159.8,139.04 159.83,139.01 159.87,138.99 C 159.88,138.97 159.9,138.96 159.92,138.94 C 159.93,138.94 159.96,138.9 159.97,138.91 C 160.23,139.07 160.49,139.25 160.74,139.43 C 161.76,140.15 162.67,140.97 163.52,141.89 C 163.9,142.29 164.24,142.71 164.57,143.15 C 165.53,144.43 166.31,145.78 166.9,147.27 C 167.45,148.66 167.8,150.07 168.0,151.55 C 168.19,152.97 168.19,154.35 168.01,155.77 C 167.77,157.65 167.32,159.4 166.48,161.12 C 166.03,162.04 165.53,162.92 164.94,163.75 C 163.89,165.23 162.55,166.54 161.11,167.62 C 160.61,167.99 160.1,168.34 159.55,168.63 C 158.7,169.08 157.46,169.64 156.57,169.98 C 156.07,170.16 155.56,170.32 155.04,170.43 C 154.75,170.49 154.45,170.54 154.16,170.59 C 153.5,170.7 152.84,170.8 152.18,170.86 C 151.39,170.92 150.6,170.92 149.81,170.86 C 149.35,170.83 148.49,170.76 148.04,170.54 C 148.01,170.53 147.82,170.43 147.85,170.37 C 147.86,170.33 147.94,170.33 147.97,170.33 C 148.08,170.33 148.19,170.34 148.3,170.35 C 148.6,170.39 148.89,170.44 149.19,170.48 C 149.28,170.5 149.38,170.51 149.48,170.51 C 149.52,170.52 149.56,170.52 149.61,170.51 C 149.67,170.5 149.59,170.46 149.56,170.44 C 149.45,170.39 149.35,170.36 149.24,170.33 C 148.91,170.22 148.58,170.14 148.24,170.06 C 147.86,169.97 147.48,169.89 147.1,169.79 C 147.06,169.78 147.04,169.77 147.0,169.77 C 146.96,169.77 147.03,169.8 147.05,169.81 C 147.16,169.89 147.42,170.05 147.47,170.21 C 147.5,170.34 147.33,170.36 147.24,170.37 C 146.99,170.39 146.76,170.34 146.52,170.26 C 146.38,170.21 146.23,170.16 146.09,170.1 C 145.98,170.06 145.87,170.0 145.75,170.0 C 145.71,170.0 145.67,170.02 145.64,170.03 C 145.56,170.06 145.51,170.02 145.45,170.0 C 145.07,169.88 144.72,169.72 144.37,169.54 C 144.25,169.48 144.07,169.4 144.04,169.23 C 144.02,169.08 144.08,168.99 144.15,168.87 C 144.17,168.84 144.19,168.81 144.22,168.8 C 144.33,168.74 144.42,168.78 144.53,168.79 C 144.74,168.82 144.94,168.86 145.15,168.89 C 145.35,168.92 145.56,168.95 145.76,168.94 C 145.82,168.94 145.97,168.93 145.93,168.85 C 145.89,168.75 145.59,168.6 145.52,168.56 C 145.38,168.48 145.2,168.35 145.27,168.16 C 145.36,167.92 145.76,168.04 145.92,168.08 C 146.23,168.17 146.53,168.27 146.83,168.38 C 146.88,168.4 146.93,168.43 146.98,168.45 C 147.11,168.5 147.24,168.53 147.38,168.56 C 147.51,168.58 147.63,168.59 147.76,168.58 C 147.8,168.58 147.89,168.57 147.84,168.53 C 147.75,168.46 147.65,168.45 147.55,168.42 C 147.38,168.36 147.21,168.31 147.04,168.24 C 147.0,168.22 146.96,168.2 146.92,168.19 C 146.87,168.16 146.82,168.14 146.76,168.12 C 146.56,168.04 146.35,167.96 146.14,167.88 C 145.91,167.78 145.67,167.69 145.48,167.5 C 145.33,167.36 145.34,167.2 145.45,167.04 C 145.51,166.94 145.59,166.92 145.71,166.93 C 145.94,166.95 146.14,167.05 146.35,167.12 C 146.61,167.2 146.86,167.27 147.12,167.34 C 147.26,167.38 147.41,167.41 147.55,167.44 C 147.73,167.48 147.91,167.51 148.08,167.57 C 148.31,167.64 148.55,167.68 148.78,167.72 C 148.92,167.75 149.06,167.77 149.2,167.79 C 149.41,167.81 149.62,167.83 149.84,167.84 C 150.27,167.87 150.7,167.87 151.13,167.85 C 152.16,167.81 153.16,167.69 154.17,167.42 C 154.51,167.33 154.85,167.24 155.19,167.16 C 155.31,167.14 155.42,167.09 155.54,167.06 C 155.63,167.03 155.73,167.01 155.82,166.98 C 155.96,166.94 156.1,166.91 156.24,166.89 C 156.29,166.88 156.39,166.86 156.44,166.9 C 156.49,166.93 156.44,167.0 156.43,167.03 C 156.4,167.08 156.37,167.12 156.34,167.15 C 156.31,167.19 156.26,167.2 156.22,167.22 C 156.13,167.27 156.04,167.31 155.95,167.36 C 155.86,167.4 155.77,167.45 155.68,167.51 C 155.64,167.54 155.59,167.56 155.56,167.61 C 155.52,167.67 155.52,167.75 155.47,167.82 C 155.36,167.95 154.9,168.06 154.76,168.1 C 154.65,168.14 154.53,168.18 154.42,168.22 C 154.39,168.23 154.37,168.24 154.34,168.26 C 154.33,168.26 154.32,168.27 154.3,168.27 C 154.3,168.27 154.27,168.28 154.29,168.28 C 154.38,168.26 154.46,168.25 154.55,168.23 C 155.02,168.12 155.48,167.99 155.93,167.84 C 156.9,167.54 157.84,167.17 158.76,166.73 C 158.9,166.67 159.04,166.59 159.19,166.54 C 159.35,166.49 159.21,166.7 159.17,166.79 C 159.0,167.15 158.92,167.32 158.53,167.5 C 158.43,167.54 158.34,167.58 158.27,167.67 C 158.24,167.7 158.23,167.73 158.22,167.77 C 158.19,167.93 158.03,168.01 157.92,168.09 C 157.73,168.22 157.54,168.34 157.34,168.46 C 157.2,168.54 157.05,168.62 156.91,168.71 C 156.9,168.72 156.85,168.75 156.87,168.77 C 156.9,168.8 156.93,168.79 156.96,168.79 C 157.22,168.8 157.43,168.7 157.66,168.61 C 159.29,167.94 160.65,167.02 161.92,165.81 C 162.72,165.05 163.44,164.23 164.1,163.34 z M 162.03,163.98 C 161.66,164.43 161.21,164.85 160.61,165.11 C 160.55,165.02 160.76,164.74 160.83,164.61 C 161.0,164.33 160.55,164.76 160.18,165.08 C 159.65,165.55 159.32,165.79 159.03,166.0 C 158.47,166.41 158.12,166.67 158.0,166.72 C 157.57,166.92 157.15,166.92 156.82,166.96 C 156.76,166.81 156.77,166.8 156.78,166.8 C 157.0,166.67 157.23,166.55 157.52,166.38 C 157.67,166.29 157.83,166.19 158.02,166.06 C 158.11,165.99 158.22,165.92 158.32,165.84 C 158.42,165.77 158.52,165.69 158.61,165.62 C 158.98,165.34 159.19,165.17 159.38,165.0 C 159.58,164.83 159.75,164.67 159.88,164.54 C 160.02,164.4 160.12,164.3 160.24,164.17 C 160.49,163.9 160.84,163.51 161.15,163.12 C 161.3,162.92 161.45,162.72 161.63,162.45 C 161.81,162.18 162.02,161.85 162.19,161.57 C 162.27,161.43 162.34,161.31 162.39,161.22 C 162.44,161.13 162.46,161.08 162.49,161.03 C 162.58,160.83 162.65,160.7 162.69,160.64 C 162.74,160.57 162.77,160.59 162.79,160.59 C 162.83,160.61 162.83,160.61 162.89,160.54 C 162.92,160.5 162.96,160.45 163.01,160.38 C 163.06,160.32 163.12,160.24 163.17,160.12 C 163.22,160.0 163.26,159.83 163.3,159.58 C 163.33,159.33 163.37,159.0 163.44,158.7 C 163.5,158.4 163.61,158.13 163.71,157.93 C 163.81,157.73 163.9,157.59 163.94,157.51 C 163.97,157.42 163.95,157.38 163.96,157.31 C 163.96,157.28 163.97,157.24 163.97,157.22 C 163.97,157.2 163.97,157.19 163.98,157.14 C 163.99,157.03 164.03,156.73 164.06,156.48 C 164.1,156.22 164.13,156.02 164.16,155.86 C 164.2,155.71 164.24,155.61 164.28,155.49 C 164.3,155.43 164.31,155.36 164.33,155.27 C 164.34,155.18 164.35,155.07 164.36,154.98 C 164.38,154.8 164.4,154.67 164.41,154.57 C 164.43,154.46 164.45,154.37 164.48,154.29 C 164.5,154.22 164.53,154.16 164.54,154.2 C 164.55,154.21 164.55,154.25 164.55,154.33 C 164.56,154.36 164.56,154.41 164.56,154.44 C 164.56,154.46 164.56,154.47 164.56,154.59 C 164.56,154.71 164.56,154.95 164.55,155.16 C 164.55,155.38 164.54,155.56 164.52,155.75 C 164.49,156.13 164.45,156.54 164.39,156.95 C 164.33,157.37 164.24,157.79 164.15,158.24 C 164.1,158.47 164.04,158.7 163.97,158.93 C 163.91,159.16 163.82,159.38 163.74,159.58 C 163.59,159.96 163.47,160.21 163.35,160.45 C 163.22,160.69 163.1,160.92 162.99,161.12 C 162.79,161.51 162.67,161.75 162.73,161.81 C 162.8,161.86 163.0,161.63 163.25,161.18 C 163.38,160.95 163.52,160.66 163.69,160.29 C 163.85,159.91 164.04,159.45 164.16,159.1 C 164.22,158.92 164.26,158.78 164.3,158.61 C 164.35,158.45 164.4,158.28 164.45,158.09 C 164.55,157.71 164.65,157.28 164.73,156.81 C 164.9,155.89 165.0,154.84 165.01,153.93 C 164.74,153.12 164.57,153.67 163.93,153.68 C 163.79,152.15 163.26,150.32 162.56,148.94 C 162.22,148.24 161.84,147.66 161.33,146.97 C 161.17,146.77 161.01,146.56 160.7,146.22 C 160.39,145.88 159.94,145.42 159.53,145.05 C 158.98,144.56 158.5,144.24 158.03,143.95 C 157.55,143.66 157.07,143.4 156.66,143.2 C 156.25,143.01 155.91,142.87 155.6,142.76 C 154.97,142.54 154.44,142.41 153.98,142.3 C 153.75,142.25 153.54,142.2 153.07,142.15 C 152.83,142.12 152.53,142.08 152.43,142.06 C 152.38,142.05 152.38,142.05 152.38,142.04 C 152.4,141.62 153.33,141.19 156.68,142.57 C 157.09,142.74 157.54,142.93 157.82,142.73 C 158.25,142.92 158.73,143.18 159.29,143.55 C 159.44,143.65 159.59,143.76 159.8,143.94 C 160.08,144.17 160.45,144.52 160.83,144.9 C 161.14,144.86 161.34,145.1 161.51,145.34 C 161.7,145.58 161.87,145.82 162.02,146.04 C 162.29,146.43 162.51,146.79 162.69,147.12 C 162.99,147.64 163.22,148.08 163.4,148.47 C 163.78,149.25 164.03,149.87 164.25,150.56 C 164.38,150.96 164.5,151.38 164.78,152.19 C 164.98,152.76 165.14,152.79 165.15,152.64 C 165.19,151.51 164.84,150.41 164.59,149.66 C 164.34,148.9 164.19,148.48 164.01,148.03 C 163.82,147.59 163.6,147.12 163.42,146.77 C 163.24,146.42 163.1,146.18 162.86,145.68 C 162.53,145.02 162.0,143.9 162.5,144.26 C 163.25,144.79 163.82,145.71 163.98,145.96 C 164.0,146.01 164.02,146.03 164.04,146.07 C 164.12,146.21 164.29,146.52 164.52,146.98 C 164.76,147.44 165.06,148.04 165.33,149.01 C 165.42,149.33 165.51,149.69 165.61,150.4 C 165.66,150.76 165.72,151.2 165.76,151.66 C 165.8,152.12 165.83,152.6 165.84,153.11 C 165.84,153.62 165.83,154.15 165.8,154.7 C 165.78,154.97 165.76,155.25 165.74,155.52 C 165.72,155.66 165.71,155.8 165.69,155.93 C 165.68,156.0 165.67,156.07 165.66,156.14 C 165.66,156.18 165.65,156.22 165.65,156.25 C 165.64,156.27 165.64,156.29 165.64,156.31 C 165.59,156.62 165.56,156.84 165.52,157.05 C 165.49,157.26 165.44,157.47 165.4,157.66 C 165.32,158.05 165.24,158.39 165.15,158.69 C 164.98,159.29 164.79,159.73 164.63,160.11 C 164.54,160.3 164.47,160.47 164.34,160.71 C 164.34,160.71 164.34,160.71 164.33,160.72 C 164.25,160.77 164.17,160.83 164.11,160.89 C 163.8,161.19 163.59,161.68 163.2,162.33 C 163.03,162.62 162.82,162.93 162.6,163.21 C 162.4,163.48 162.19,163.72 162.03,163.98 z M 160.0,166.38 C 160.11,166.18 160.92,165.49 161.78,164.75 C 161.77,164.88 161.8,165.0 161.88,165.04 C 161.92,165.06 161.98,165.06 162.05,165.04 C 161.2,166.07 160.3,166.8 160.11,166.78 C 159.92,166.76 159.87,166.59 160.0,166.38 z M 150.27,141.95 C 150.02,142.01 149.77,142.08 149.52,142.14 C 149.12,142.24 148.6,142.34 148.37,142.34 C 147.95,142.34 147.95,142.33 148.47,142.14 C 148.75,142.03 149.28,141.94 149.63,141.95 C 149.84,141.95 150.05,141.94 150.27,141.95 z M 135.11,148.75 C 135.36,147.5 135.1,147.18 134.5,147.41 C 134.44,147.44 134.38,147.47 134.32,147.53 C 134.26,147.59 134.21,147.69 134.11,147.9 C 134.06,148.0 134.0,148.14 133.86,148.5 C 133.72,148.85 133.49,149.44 133.23,150.38 C 133.12,150.82 132.99,151.33 132.89,152.01 C 132.69,153.45 132.61,155.63 132.77,157.94 C 132.77,157.98 132.77,158.02 132.78,158.05 C 132.88,159.38 133.24,161.16 133.63,162.7 C 132.98,161.53 132.41,159.78 132.14,158.15 C 132.1,157.86 132.06,157.57 132.02,157.27 C 131.81,155.4 131.83,153.47 132.05,151.94 C 132.23,150.66 132.56,149.65 132.81,148.9 C 132.96,148.47 133.08,148.13 133.23,147.73 C 133.37,147.38 133.52,146.99 133.59,146.85 C 133.61,146.79 133.62,146.77 133.63,146.75 C 133.91,146.2 134.27,145.45 135.01,144.29 C 135.35,144.56 135.4,144.6 136.14,143.77 C 136.52,143.34 137.09,142.69 137.44,142.38 C 137.59,142.24 137.8,142.04 137.86,141.77 C 138.02,141.32 137.36,141.81 137.35,141.45 C 138.59,140.29 140.91,137.98 145.77,136.65 C 146.21,136.53 146.68,136.42 148.1,136.22 C 149.55,136.07 146.86,136.76 144.83,137.57 C 143.48,138.11 142.42,138.7 141.43,139.29 C 141.04,139.52 140.66,139.76 140.47,139.97 C 140.29,140.16 140.26,140.34 140.33,140.5 C 139.98,140.77 139.63,141.06 139.33,141.34 C 139.04,141.62 138.81,141.9 138.64,142.1 C 138.47,142.29 138.37,142.41 138.38,142.43 C 138.39,142.44 138.43,142.42 138.51,142.38 C 138.55,142.35 138.59,142.33 138.65,142.29 C 138.68,142.27 138.71,142.25 138.74,142.23 C 138.76,142.22 138.78,142.2 138.79,142.2 C 138.81,142.19 138.81,142.19 138.81,142.19 C 138.98,142.08 138.97,142.3 137.51,143.05 C 137.4,143.18 137.32,143.32 137.22,143.42 C 137.16,143.47 137.11,143.5 137.03,143.54 C 136.96,143.57 136.86,143.62 136.73,143.74 C 136.66,143.81 136.58,143.89 136.51,143.98 C 136.44,144.06 136.37,144.15 136.31,144.24 C 136.25,144.32 136.2,144.41 136.15,144.52 C 136.09,144.62 136.04,144.73 136.01,144.82 C 135.93,145.01 135.9,145.1 135.83,145.15 C 135.77,145.2 135.66,145.22 135.55,145.33 C 135.43,145.45 135.3,145.66 135.22,145.82 C 135.14,145.97 135.11,146.08 135.16,146.08 C 135.24,146.08 135.6,145.66 135.75,145.82 C 135.45,146.16 135.56,146.52 135.69,146.65 C 135.75,146.72 135.82,146.73 135.9,146.68 C 135.94,146.65 135.98,146.61 136.03,146.55 C 136.07,146.49 136.12,146.41 136.15,146.36 C 136.22,146.25 136.23,146.23 136.24,146.19 C 136.26,146.16 136.29,146.11 136.31,146.07 C 136.35,145.99 136.38,145.95 136.4,145.92 C 136.41,145.89 136.43,145.87 136.5,145.77 C 136.54,145.72 136.59,145.64 136.67,145.54 C 136.74,145.43 136.84,145.29 136.96,145.13 C 137.09,144.97 137.24,144.8 137.33,144.71 C 137.43,144.63 137.47,144.62 137.48,144.66 C 137.49,144.7 137.46,144.78 137.4,144.93 C 137.33,145.08 137.23,145.3 137.14,145.48 C 136.97,145.84 136.89,146.04 136.8,146.22 C 136.76,146.31 136.71,146.4 136.65,146.5 C 136.59,146.61 136.52,146.73 136.46,146.84 C 136.34,147.06 136.26,147.23 136.19,147.39 C 136.15,147.47 136.11,147.56 136.09,147.61 C 136.07,147.67 136.06,147.69 136.05,147.73 C 135.99,147.89 135.81,148.26 135.61,148.64 C 135.41,149.02 135.19,149.43 135.07,149.59 C 134.83,149.91 135.01,149.25 135.11,148.75 z M 140.03,156.57 C 139.46,156.59 139.31,155.93 139.19,155.12 C 139.14,154.71 139.09,154.27 139.08,153.79 C 139.08,153.55 139.08,153.3 139.1,153.05 C 139.11,152.93 139.12,152.8 139.13,152.68 C 139.15,152.56 139.16,152.44 139.18,152.34 C 139.22,152.15 139.25,152.04 139.27,151.96 C 139.3,151.89 139.32,151.83 139.35,151.79 C 139.41,151.71 139.52,151.67 139.59,151.68 C 139.65,151.69 139.67,151.75 139.7,151.77 C 139.72,151.78 139.74,151.78 139.74,151.84 C 139.74,151.89 139.73,152.01 139.69,152.28 C 139.67,152.42 139.65,152.6 139.64,152.76 C 139.62,152.93 139.62,153.08 139.61,153.23 C 139.61,153.53 139.61,153.8 139.62,154.05 C 139.65,154.55 139.69,154.95 139.75,155.31 C 139.87,156.02 140.02,156.51 140.03,156.57 z M 143.36,144.11 C 144.23,143.5 144.49,143.36 146.16,143.24 C 145.67,143.49 145.2,143.72 144.13,144.49 C 144.02,144.57 143.94,144.64 143.85,144.71 C 142.37,145.94 141.15,147.46 140.3,149.71 C 140.28,149.76 140.02,150.57 140.02,150.57 C 139.99,150.7 139.94,150.85 139.68,150.13 C 139.55,149.79 139.65,149.43 139.83,148.97 C 140.62,147.0 142.07,145.05 143.36,144.11 z"
		 />
		 
		
		<!-- Prism Reference -->
		<cam mingh:cam="--verb EditSelectAll --verb EditSelectAll --verb ZoomSelection --verb FileSave "/> 
	 </g>

</svg>
