<svg
   xmlns:xlink="http://www.w3.org/1999/xlink"
   xmlns:svg="http://www.w3.org/2000/svg"
   xmlns="http://www.w3.org/2000/svg"
   xmlns:mingh="http://www.minghworld.com"
   width="300px"
   height="300px" >
	
	 <g>
		
		<!-- Paths -->
		<path style="fill:none;stroke:#000;stroke-width:0.25px;"
		 d="M 149.75,131.09 C 147.42,131.24 145.56,133.52 146.25,136.03 C 146.47,136.83 146.94,137.55 147.59,138.06 C 147.67,138.12 147.76,138.16 147.84,138.22 C 147.88,138.25 147.9,138.29 147.94,138.31 C 147.95,138.32 148.0,138.34 147.97,138.34 C 147.89,138.35 147.8,138.36 147.72,138.38 C 147.56,138.4 147.41,138.41 147.25,138.44 C 146.61,138.55 145.97,138.7 145.34,138.88 C 144.09,139.22 142.85,139.67 141.66,140.19 C 139.27,141.23 137.09,142.55 135.0,144.09 C 132.66,145.82 130.55,147.73 128.44,149.72 C 127.39,150.71 126.35,151.72 125.31,152.72 C 125.05,152.97 124.79,153.22 124.53,153.47 C 124.52,153.48 124.48,153.52 124.47,153.53 C 124.46,153.54 124.42,153.55 124.44,153.56 C 124.47,153.59 124.5,153.63 124.53,153.66 L 124.72,153.84 C 124.85,153.97 125.0,154.09 125.13,154.22 C 125.64,154.72 126.17,155.22 126.69,155.72 C 130.78,159.64 135.06,163.7 140.28,166.28 C 142.75,167.5 145.75,168.57 148.53,168.84 C 151.49,169.14 154.29,168.5 157.0,167.47 C 162.65,165.32 166.91,161.76 171.19,157.75 C 172.24,156.76 173.27,155.78 174.31,154.78 C 174.57,154.53 174.84,154.28 175.09,154.03 C 175.22,153.91 175.34,153.78 175.47,153.66 C 175.48,153.64 175.52,153.61 175.53,153.59 C 175.54,153.58 175.58,153.58 175.56,153.56 C 175.53,153.53 175.5,153.5 175.47,153.47 L 175.28,153.28 C 174.76,152.78 174.24,152.28 173.72,151.78 C 171.63,149.78 169.54,147.79 167.31,145.94 C 165.08,144.09 162.77,142.43 160.19,141.09 C 157.74,139.83 154.76,138.71 152.0,138.34 C 153.28,137.57 154.01,136.14 153.88,134.66 C 153.74,133.18 152.79,131.88 151.41,131.34 C 150.85,131.13 150.29,131.06 149.75,131.09 z M 150.0,133.03 C 150.26,133.03 150.51,133.09 150.75,133.19 C 150.99,133.29 151.19,133.44 151.38,133.63 C 151.56,133.81 151.71,134.01 151.81,134.25 C 151.91,134.49 151.94,134.74 151.94,135.0 C 151.94,135.26 151.91,135.51 151.81,135.75 C 151.71,135.99 151.56,136.19 151.38,136.38 C 151.19,136.56 150.99,136.68 150.75,136.78 C 150.51,136.88 150.26,136.94 150.0,136.94 C 149.75,136.94 149.49,136.88 149.25,136.78 C 149.01,136.68 148.81,136.56 148.63,136.38 C 148.44,136.19 148.29,135.99 148.19,135.75 C 148.09,135.51 148.06,135.26 148.06,135.0 C 148.06,134.75 148.09,134.49 148.19,134.25 C 148.29,134.01 148.44,133.81 148.63,133.63 C 148.81,133.44 149.01,133.29 149.25,133.19 C 149.49,133.09 149.74,133.03 150.0,133.03 z M 155.06,145.97 C 158.64,147.41 161.53,149.57 164.38,152.06 C 164.73,152.37 165.06,152.69 165.41,153.0 C 165.58,153.16 165.77,153.31 165.94,153.47 L 166.0,153.53 C 166.01,153.54 166.05,153.55 166.03,153.56 C 166.02,153.57 166.01,153.58 166.0,153.59 C 165.96,153.63 165.92,153.68 165.88,153.72 C 165.79,153.8 165.68,153.86 165.59,153.94 C 164.91,154.57 164.21,155.18 163.5,155.78 C 162.07,156.99 160.62,158.13 159.03,159.13 C 158.24,159.62 157.43,160.06 156.59,160.47 C 156.18,160.67 155.74,160.85 155.31,161.03 C 155.26,161.05 155.21,161.1 155.16,161.13 C 155.16,161.12 155.15,161.1 155.16,161.09 C 155.25,161.03 155.34,160.98 155.44,160.91 C 155.63,160.77 155.82,160.59 156.0,160.44 C 157.42,159.21 158.42,157.57 158.88,155.75 C 159.8,152.02 158.26,148.11 155.06,145.97 z M 144.84,146.0 C 144.84,146.0 144.85,146.03 144.84,146.03 C 144.75,146.1 144.66,146.15 144.56,146.22 C 144.37,146.36 144.18,146.5 144.0,146.66 C 142.58,147.89 141.58,149.52 141.13,151.34 C 140.2,155.08 141.71,159.02 144.91,161.16 C 141.33,159.72 138.47,157.52 135.63,155.03 C 135.27,154.72 134.94,154.44 134.59,154.13 C 134.42,153.97 134.23,153.81 134.06,153.66 L 134.0,153.59 C 133.99,153.59 133.95,153.58 133.97,153.56 C 133.98,153.55 133.99,153.54 134.0,153.53 C 134.04,153.49 134.08,153.45 134.13,153.41 C 134.21,153.33 134.32,153.23 134.41,153.16 C 135.09,152.53 135.79,151.91 136.5,151.31 C 137.93,150.11 139.38,148.99 140.97,148.0 C 141.76,147.51 142.57,147.03 143.41,146.63 C 143.82,146.42 144.26,146.24 144.69,146.06 C 144.74,146.04 144.79,146.02 144.84,146.0 z"
		 />
		 <path style="fill:#f00;stroke:none;"
		 d="M 150.0,147.13 C 149.16,147.13 148.31,147.27 147.53,147.59 C 146.75,147.92 146.03,148.4 145.44,149.0 C 144.84,149.6 144.39,150.32 144.06,151.09 C 143.74,151.87 143.56,152.72 143.56,153.56 C 143.56,154.41 143.74,155.25 144.06,156.03 C 144.39,156.81 144.84,157.53 145.44,158.13 C 146.03,158.72 146.75,159.18 147.53,159.5 C 148.31,159.82 149.16,160.0 150.0,160.0 C 150.84,160.0 151.69,159.82 152.47,159.5 C 153.25,159.18 153.97,158.72 154.56,158.13 C 155.16,157.53 155.62,156.81 155.94,156.03 C 156.26,155.25 156.44,154.41 156.44,153.56 C 156.44,152.72 156.26,151.87 155.94,151.09 C 155.62,150.32 155.16,149.6 154.56,149.0 C 153.97,148.4 153.25,147.92 152.47,147.59 C 151.69,147.27 150.84,147.13 150.0,147.13 z M 150.0,148.78 C 150.63,148.78 151.27,148.89 151.84,149.13 C 152.42,149.36 152.93,149.74 153.38,150.19 C 153.82,150.63 154.17,151.14 154.41,151.72 C 154.65,152.3 154.78,152.94 154.78,153.56 C 154.78,154.19 154.65,154.8 154.41,155.38 C 154.17,155.95 153.82,156.49 153.38,156.94 C 152.93,157.38 152.42,157.73 151.84,157.97 C 151.27,158.21 150.63,158.34 150.0,158.34 C 149.37,158.34 148.73,158.21 148.16,157.97 C 147.58,157.73 147.07,157.38 146.63,156.94 C 146.18,156.49 145.83,155.95 145.59,155.38 C 145.35,154.8 145.22,154.19 145.22,153.56 C 145.22,152.94 145.35,152.3 145.59,151.72 C 145.83,151.14 146.18,150.63 146.63,150.19 C 147.07,149.74 147.58,149.36 148.16,149.13 C 148.73,148.89 149.37,148.78 150.0,148.78 z M 150.66,167.28 C 151.04,167.78 151.49,168.23 152.01,168.65 C 151.91,168.66 151.81,168.68 151.71,168.69 C 151.14,168.75 150.57,168.79 150.0,168.79 C 149.43,168.79 148.86,168.75 148.29,168.69 C 148.19,168.68 148.09,168.66 147.99,168.65 C 148.51,168.23 148.96,167.78 149.34,167.28 C 149.59,166.94 149.81,166.58 150.0,166.19 C 150.19,166.58 150.41,166.94 150.66,167.28 z M 150.66,139.84 C 150.41,140.17 150.19,140.53 150.0,140.92 C 149.81,140.53 149.59,140.17 149.34,139.84 C 148.96,139.33 148.51,138.88 147.99,138.46 C 148.09,138.45 148.19,138.44 148.29,138.43 C 148.86,138.36 149.43,138.33 150.0,138.33 C 150.57,138.33 151.14,138.36 151.71,138.43 C 151.81,138.44 151.91,138.45 152.01,138.46 C 151.49,138.88 151.04,139.33 150.66,139.84 z M 154.91,139.09 C 154.88,139.1 154.87,139.11 154.84,139.13 C 154.73,139.16 154.61,139.21 154.5,139.25 C 153.72,139.54 152.96,139.88 152.25,140.31 C 151.7,140.65 151.21,141.01 150.78,141.5 C 150.61,141.7 150.47,141.92 150.34,142.16 C 150.28,142.27 150.23,142.35 150.19,142.47 C 150.17,142.53 150.14,142.6 150.13,142.66 C 150.1,142.73 150.11,142.81 150.0,142.81 C 149.89,142.81 149.9,142.73 149.88,142.66 C 149.86,142.6 149.83,142.53 149.81,142.47 C 149.77,142.35 149.72,142.27 149.66,142.16 C 149.53,141.92 149.39,141.7 149.22,141.5 C 148.79,141.01 148.27,140.65 147.72,140.31 C 147.01,139.88 146.28,139.54 145.5,139.25 C 145.39,139.21 145.27,139.16 145.16,139.13 C 145.14,139.12 145.11,139.13 145.09,139.13 C 145.12,139.16 145.13,139.22 145.16,139.25 C 145.25,139.39 145.33,139.51 145.41,139.66 C 145.57,139.98 145.71,140.31 145.81,140.66 C 146.04,141.39 146.11,142.11 146.03,142.88 C 146.01,143.06 145.97,143.22 145.94,143.41 C 145.92,143.5 145.9,143.6 145.88,143.69 C 145.87,143.72 145.81,143.91 145.78,143.94 C 145.74,143.98 145.7,143.98 145.66,143.94 C 145.62,143.91 145.64,143.88 145.63,143.84 C 145.61,143.79 145.58,143.74 145.56,143.69 C 145.52,143.57 145.46,143.45 145.41,143.34 C 144.81,142.25 143.6,141.73 142.53,141.41 C 142.14,141.29 141.74,141.2 141.34,141.13 C 141.12,141.08 140.91,141.03 140.69,141.0 C 140.63,140.99 140.56,140.98 140.5,140.97 C 140.47,140.96 140.44,140.97 140.41,140.97 C 140.38,140.97 140.31,140.94 140.34,140.97 C 140.4,141.03 140.45,141.09 140.5,141.16 C 140.96,141.72 141.3,142.31 141.53,143.0 C 141.77,143.73 141.86,144.46 141.81,145.22 C 141.81,145.31 141.79,145.41 141.78,145.5 C 141.77,145.56 141.79,145.7 141.69,145.72 C 141.57,145.74 141.56,145.66 141.53,145.59 C 141.5,145.54 141.47,145.49 141.44,145.44 C 141.31,145.22 141.18,145.02 141.0,144.84 C 140.08,143.93 138.67,143.68 137.5,143.59 C 137.06,143.56 136.62,143.56 136.19,143.56 L 136.0,143.56 C 135.94,143.56 136.04,143.61 136.06,143.63 C 136.12,143.68 136.19,143.72 136.25,143.78 C 136.37,143.9 136.48,144.03 136.59,144.16 C 137.09,144.73 137.44,145.35 137.69,146.06 C 137.81,146.41 137.88,146.73 137.94,147.09 C 137.96,147.27 137.99,147.44 138.0,147.63 C 138.01,147.71 138.03,147.82 138.03,147.91 C 138.03,147.95 138.04,147.99 138.03,148.03 C 138.02,148.09 138.0,148.12 137.94,148.13 C 137.84,148.13 137.82,148.03 137.78,147.97 C 137.75,147.92 137.72,147.89 137.69,147.84 C 137.62,147.75 137.52,147.65 137.44,147.56 C 137.26,147.39 137.09,147.25 136.88,147.13 C 135.76,146.46 134.29,146.47 133.09,146.56 C 132.88,146.58 132.68,146.6 132.47,146.63 C 132.36,146.64 132.24,146.64 132.13,146.66 C 132.1,146.66 132.06,146.68 132.03,146.69 C 132.06,146.7 132.07,146.73 132.09,146.75 C 132.37,146.94 132.64,147.15 132.88,147.38 C 133.4,147.88 133.79,148.45 134.09,149.13 C 134.24,149.46 134.35,149.77 134.44,150.13 C 134.48,150.3 134.53,150.48 134.56,150.66 C 134.57,150.73 134.63,150.87 134.53,150.91 C 134.43,150.95 134.39,150.87 134.34,150.81 C 134.01,150.43 133.63,150.18 133.16,150.0 C 131.91,149.52 130.42,149.65 129.19,149.88 C 128.97,149.91 128.75,149.98 128.53,150.03 C 128.48,150.04 128.43,150.05 128.38,150.06 C 128.35,150.07 128.31,150.06 128.28,150.06 C 128.26,150.07 128.22,150.08 128.25,150.09 C 128.32,150.13 128.4,150.15 128.47,150.19 C 128.77,150.35 129.04,150.55 129.31,150.75 C 129.99,151.25 130.57,151.84 131.13,152.47 C 131.26,152.62 131.4,152.75 131.53,152.91 C 131.59,152.97 131.63,153.06 131.69,153.13 C 131.75,153.2 131.81,153.27 131.69,153.31 C 131.64,153.33 131.47,153.24 131.44,153.22 C 131.35,153.18 131.27,153.13 131.19,153.09 C 131.02,153.02 130.86,152.97 130.69,152.91 C 130.03,152.66 129.36,152.51 128.66,152.47 C 127.19,152.39 125.85,152.82 124.63,153.56 C 125.85,154.3 127.19,154.74 128.66,154.66 C 129.36,154.62 130.0,154.47 130.66,154.22 C 130.83,154.15 131.02,154.08 131.19,154.0 C 131.27,153.96 131.35,153.92 131.44,153.88 C 131.47,153.86 131.64,153.76 131.69,153.78 C 131.81,153.82 131.75,153.92 131.69,154.0 C 131.63,154.07 131.59,154.12 131.53,154.19 C 131.4,154.34 131.26,154.51 131.13,154.66 C 130.57,155.29 129.99,155.87 129.31,156.38 C 129.04,156.58 128.77,156.75 128.47,156.91 C 128.41,156.94 128.34,157.0 128.28,157.03 C 128.31,157.04 128.35,157.06 128.38,157.06 C 128.43,157.08 128.48,157.08 128.53,157.09 C 128.75,157.14 128.97,157.18 129.19,157.22 C 130.42,157.44 131.91,157.61 133.16,157.13 C 133.63,156.94 134.01,156.7 134.34,156.31 C 134.39,156.26 134.43,156.18 134.53,156.22 C 134.63,156.26 134.57,156.37 134.56,156.44 C 134.53,156.62 134.48,156.79 134.44,156.97 C 134.35,157.32 134.24,157.67 134.09,158.0 C 133.79,158.67 133.4,159.24 132.88,159.75 C 132.64,159.98 132.37,160.19 132.09,160.38 C 132.07,160.39 132.06,160.42 132.03,160.44 C 132.06,160.44 132.1,160.46 132.13,160.47 C 132.24,160.48 132.36,160.49 132.47,160.5 C 132.68,160.53 132.88,160.55 133.09,160.56 C 134.29,160.66 135.76,160.66 136.88,160.0 C 137.09,159.87 137.26,159.71 137.44,159.53 C 137.52,159.45 137.62,159.38 137.69,159.28 C 137.72,159.23 137.75,159.17 137.78,159.13 C 137.82,159.07 137.84,159.0 137.94,159.0 C 138.0,159.0 138.02,159.01 138.03,159.06 C 138.04,159.11 138.03,159.17 138.03,159.22 C 138.03,159.31 138.01,159.38 138.0,159.47 C 137.99,159.65 137.96,159.85 137.94,160.03 C 137.88,160.39 137.81,160.72 137.69,161.06 C 137.44,161.78 137.09,162.4 136.59,162.97 C 136.48,163.1 136.37,163.19 136.25,163.31 C 136.19,163.37 136.12,163.45 136.06,163.5 C 136.04,163.52 135.94,163.56 136.0,163.56 C 136.06,163.56 136.13,163.56 136.19,163.56 C 136.62,163.57 137.06,163.56 137.5,163.53 C 138.67,163.44 140.08,163.2 141.0,162.28 C 141.18,162.1 141.31,161.91 141.44,161.69 C 141.47,161.63 141.5,161.59 141.53,161.53 C 141.56,161.46 141.57,161.35 141.69,161.38 C 141.79,161.4 141.78,161.56 141.78,161.63 C 141.79,161.72 141.78,161.81 141.78,161.91 C 141.83,162.67 141.77,163.36 141.53,164.09 C 141.3,164.79 140.96,165.4 140.5,165.97 C 140.45,166.03 140.4,166.1 140.34,166.16 C 140.31,166.19 140.38,166.16 140.41,166.16 C 140.44,166.15 140.47,166.13 140.5,166.13 C 140.56,166.12 140.63,166.13 140.69,166.13 C 140.91,166.09 141.12,166.04 141.34,166.0 C 141.74,165.92 142.14,165.84 142.53,165.72 C 143.6,165.4 144.81,164.87 145.41,163.78 C 145.46,163.67 145.52,163.55 145.56,163.44 C 145.58,163.38 145.61,163.31 145.63,163.25 C 145.64,163.21 145.62,163.18 145.66,163.16 C 145.7,163.12 145.74,163.12 145.78,163.16 C 145.81,163.19 145.87,163.4 145.88,163.44 C 145.9,163.53 145.92,163.6 145.94,163.69 C 145.97,163.87 146.01,164.06 146.03,164.25 C 146.11,165.01 146.04,165.73 145.81,166.47 C 145.71,166.81 145.57,167.12 145.41,167.44 C 145.33,167.59 145.25,167.73 145.16,167.88 C 145.13,167.91 145.12,167.94 145.09,167.97 C 145.11,167.96 145.14,167.97 145.16,167.97 C 145.27,167.93 145.39,167.92 145.5,167.88 C 146.28,167.58 147.01,167.24 147.72,166.81 C 148.27,166.48 148.79,166.12 149.22,165.63 C 149.39,165.42 149.53,165.2 149.66,164.97 C 149.72,164.86 149.77,164.74 149.81,164.63 C 149.83,164.57 149.86,164.53 149.88,164.47 C 149.9,164.4 149.89,164.28 150.0,164.28 C 150.11,164.28 150.1,164.4 150.13,164.47 C 150.14,164.53 150.17,164.57 150.19,164.63 C 150.23,164.74 150.28,164.86 150.34,164.97 C 150.47,165.2 150.61,165.42 150.78,165.63 C 151.21,166.12 151.7,166.48 152.25,166.81 C 152.96,167.24 153.72,167.58 154.5,167.88 C 154.61,167.92 154.73,167.93 154.84,167.97 C 154.87,167.98 154.88,167.99 154.91,168.0 C 154.9,168.0 154.91,167.97 154.91,167.97 C 154.88,167.94 154.87,167.91 154.84,167.88 C 154.75,167.73 154.67,167.59 154.59,167.44 C 154.43,167.12 154.29,166.81 154.19,166.47 C 153.96,165.73 153.89,165.01 153.97,164.25 C 153.99,164.06 154.03,163.87 154.06,163.69 C 154.08,163.6 154.1,163.53 154.13,163.44 C 154.13,163.4 154.19,163.19 154.22,163.16 C 154.26,163.12 154.3,163.12 154.34,163.16 C 154.38,163.18 154.36,163.21 154.38,163.25 C 154.39,163.31 154.42,163.38 154.44,163.44 C 154.48,163.55 154.54,163.67 154.59,163.78 C 155.19,164.87 156.4,165.4 157.47,165.72 C 157.86,165.84 158.26,165.92 158.66,166.0 C 158.88,166.04 159.09,166.09 159.31,166.13 C 159.37,166.13 159.44,166.12 159.5,166.13 C 159.53,166.13 159.56,166.15 159.59,166.16 C 159.62,166.16 159.69,166.19 159.66,166.16 C 159.6,166.1 159.55,166.03 159.5,165.97 C 159.04,165.4 158.7,164.79 158.47,164.09 C 158.23,163.36 158.14,162.67 158.19,161.91 C 158.19,161.81 158.21,161.72 158.22,161.63 C 158.23,161.56 158.21,161.4 158.31,161.38 C 158.43,161.35 158.44,161.46 158.47,161.53 C 158.5,161.59 158.53,161.63 158.56,161.69 C 158.69,161.91 158.82,162.1 159.0,162.28 C 159.92,163.2 161.33,163.44 162.5,163.53 C 162.94,163.56 163.38,163.57 163.81,163.56 L 163.97,163.56 C 164.03,163.56 163.96,163.52 163.94,163.5 C 163.88,163.45 163.81,163.37 163.75,163.31 C 163.63,163.19 163.52,163.1 163.41,162.97 C 162.92,162.4 162.56,161.78 162.31,161.06 C 162.19,160.72 162.12,160.39 162.06,160.03 C 162.04,159.85 162.01,159.65 162.0,159.47 C 161.99,159.38 161.97,159.31 161.97,159.22 C 161.97,159.17 161.96,159.11 161.97,159.06 C 161.98,159.01 162.01,159.0 162.06,159.0 C 162.16,159.0 162.18,159.07 162.22,159.13 C 162.25,159.17 162.28,159.23 162.31,159.28 C 162.38,159.38 162.48,159.45 162.56,159.53 C 162.74,159.71 162.91,159.87 163.13,160.0 C 164.24,160.66 165.71,160.66 166.91,160.56 C 167.12,160.55 167.32,160.53 167.53,160.5 C 167.64,160.49 167.76,160.48 167.88,160.47 C 167.9,160.46 167.91,160.44 167.94,160.44 C 167.95,160.44 167.99,160.44 168.0,160.44 C 167.97,160.42 167.94,160.4 167.91,160.38 C 167.63,160.19 167.36,159.98 167.13,159.75 C 166.6,159.24 166.21,158.67 165.91,158.0 C 165.76,157.67 165.62,157.32 165.53,156.97 C 165.49,156.79 165.47,156.62 165.44,156.44 C 165.43,156.37 165.37,156.26 165.47,156.22 C 165.57,156.18 165.61,156.26 165.66,156.31 C 165.99,156.7 166.37,156.94 166.84,157.13 C 168.09,157.61 169.58,157.44 170.81,157.22 C 171.03,157.18 171.22,157.14 171.44,157.09 C 171.49,157.08 171.57,157.08 171.63,157.06 C 171.65,157.06 171.66,157.04 171.69,157.03 C 171.7,157.03 171.78,157.04 171.75,157.03 C 171.68,157.0 171.6,156.94 171.53,156.91 C 171.23,156.75 170.93,156.58 170.66,156.38 C 169.98,155.87 169.43,155.29 168.88,154.66 C 168.74,154.51 168.6,154.34 168.47,154.19 C 168.41,154.12 168.37,154.07 168.31,154.0 C 168.25,153.92 168.19,153.82 168.31,153.78 C 168.36,153.76 168.53,153.86 168.56,153.88 C 168.65,153.92 168.73,153.96 168.81,154.0 C 168.98,154.08 169.14,154.15 169.31,154.22 C 169.97,154.47 170.64,154.62 171.34,154.66 C 172.8,154.74 174.12,154.29 175.34,153.56 C 175.34,153.56 175.35,153.53 175.34,153.53 C 175.33,153.53 175.32,153.54 175.31,153.53 C 175.29,153.52 175.27,153.48 175.25,153.47 C 175.21,153.44 175.17,153.43 175.13,153.41 C 175.04,153.36 174.96,153.33 174.88,153.28 C 174.71,153.19 174.55,153.11 174.38,153.03 C 174.05,152.89 173.69,152.78 173.34,152.69 C 172.68,152.51 172.04,152.43 171.34,152.47 C 170.64,152.51 169.97,152.66 169.31,152.91 C 169.14,152.97 168.98,153.02 168.81,153.09 C 168.73,153.13 168.65,153.18 168.56,153.22 C 168.53,153.24 168.36,153.33 168.31,153.31 C 168.19,153.27 168.25,153.2 168.31,153.13 C 168.37,153.06 168.41,152.97 168.47,152.91 C 168.6,152.75 168.74,152.62 168.88,152.47 C 169.43,151.84 170.01,151.25 170.69,150.75 C 170.96,150.55 171.23,150.35 171.53,150.19 C 171.6,150.15 171.68,150.13 171.75,150.09 C 171.78,150.08 171.7,150.07 171.69,150.06 C 171.66,150.06 171.65,150.07 171.63,150.06 C 171.57,150.05 171.49,150.04 171.44,150.03 C 171.22,149.98 171.03,149.91 170.81,149.88 C 169.58,149.65 168.09,149.52 166.84,150.0 C 166.37,150.18 165.99,150.43 165.66,150.81 C 165.61,150.87 165.57,150.94 165.47,150.91 C 165.37,150.87 165.43,150.73 165.44,150.66 C 165.47,150.48 165.49,150.33 165.53,150.16 C 165.62,149.8 165.76,149.46 165.91,149.13 C 166.21,148.45 166.6,147.88 167.13,147.38 C 167.36,147.15 167.63,146.94 167.91,146.75 C 167.94,146.73 167.97,146.71 168.0,146.69 L 167.94,146.69 C 167.91,146.68 167.9,146.66 167.88,146.66 C 167.76,146.64 167.64,146.64 167.53,146.63 C 167.32,146.6 167.12,146.58 166.91,146.56 C 165.71,146.47 164.24,146.46 163.13,147.13 C 162.91,147.25 162.74,147.39 162.56,147.56 C 162.48,147.65 162.38,147.75 162.31,147.84 C 162.28,147.89 162.25,147.92 162.22,147.97 C 162.18,148.03 162.16,148.13 162.06,148.13 C 162.01,148.12 161.98,148.09 161.97,148.03 C 161.96,147.99 161.97,147.95 161.97,147.91 C 161.97,147.82 161.99,147.71 162.0,147.63 C 162.01,147.44 162.04,147.27 162.06,147.09 C 162.12,146.73 162.19,146.41 162.31,146.06 C 162.56,145.35 162.92,144.73 163.41,144.16 C 163.52,144.03 163.63,143.9 163.75,143.78 C 163.81,143.72 163.88,143.68 163.94,143.63 C 163.96,143.61 164.06,143.56 164.0,143.56 C 163.94,143.56 163.87,143.56 163.81,143.56 C 163.38,143.56 162.94,143.56 162.5,143.59 C 161.33,143.68 159.92,143.93 159.0,144.84 C 158.82,145.02 158.69,145.22 158.56,145.44 C 158.53,145.49 158.5,145.54 158.47,145.59 C 158.44,145.66 158.43,145.74 158.31,145.72 C 158.21,145.7 158.22,145.56 158.22,145.5 C 158.21,145.41 158.19,145.31 158.19,145.22 C 158.14,144.46 158.23,143.73 158.47,143.0 C 158.7,142.31 159.04,141.72 159.5,141.16 C 159.55,141.09 159.6,141.03 159.66,140.97 C 159.69,140.94 159.62,140.97 159.59,140.97 C 159.56,140.97 159.53,140.96 159.5,140.97 C 159.44,140.98 159.37,140.99 159.31,141.0 C 159.09,141.03 158.88,141.08 158.66,141.13 C 158.26,141.2 157.86,141.29 157.47,141.41 C 156.4,141.73 155.19,142.25 154.59,143.34 C 154.54,143.45 154.48,143.57 154.44,143.69 C 154.42,143.74 154.39,143.79 154.38,143.84 C 154.36,143.88 154.38,143.94 154.34,143.97 C 154.3,144.01 154.26,143.98 154.22,143.94 C 154.19,143.91 154.13,143.72 154.13,143.69 C 154.1,143.6 154.08,143.5 154.06,143.41 C 154.03,143.22 153.99,143.06 153.97,142.88 C 153.89,142.11 153.96,141.39 154.19,140.66 C 154.29,140.31 154.43,139.98 154.59,139.66 C 154.67,139.51 154.75,139.39 154.84,139.25 C 154.87,139.22 154.88,139.16 154.91,139.13 C 154.91,139.12 154.93,139.13 154.94,139.13 C 154.94,139.12 154.93,139.1 154.94,139.09 C 154.94,139.08 154.91,139.09 154.91,139.09 z M 150.0,143.47 C 150.58,143.47 151.15,143.53 151.72,143.63 C 152.36,143.73 153.0,143.88 153.63,144.06 C 153.96,144.16 154.3,144.26 154.63,144.38 C 155.06,144.53 155.48,144.7 155.91,144.88 C 156.86,145.27 157.79,145.74 158.69,146.25 C 159.36,146.63 160.02,147.04 160.66,147.47 C 161.32,147.92 161.96,148.39 162.59,148.88 C 163.25,149.38 163.9,149.93 164.53,150.47 C 165.18,151.02 165.8,151.58 166.44,152.16 C 166.94,152.62 167.47,153.09 167.97,153.56 C 167.47,154.03 166.94,154.51 166.44,154.97 C 165.8,155.55 165.18,156.1 164.53,156.66 C 163.9,157.19 163.25,157.71 162.59,158.22 C 161.96,158.71 161.32,159.18 160.66,159.63 C 160.02,160.06 159.36,160.46 158.69,160.84 C 157.79,161.35 156.86,161.82 155.91,162.22 C 155.48,162.4 155.06,162.56 154.63,162.72 C 154.3,162.84 153.96,162.96 153.63,163.06 C 153.0,163.25 152.36,163.39 151.72,163.5 C 151.15,163.59 150.58,163.66 150.0,163.66 C 149.42,163.66 148.85,163.59 148.28,163.5 C 147.64,163.39 147.0,163.25 146.38,163.06 C 146.04,162.96 145.7,162.84 145.38,162.72 C 144.94,162.56 144.52,162.4 144.09,162.22 C 143.14,161.82 142.21,161.35 141.31,160.84 C 140.64,160.46 139.98,160.06 139.34,159.63 C 138.68,159.18 138.04,158.71 137.41,158.22 C 136.75,157.71 136.1,157.19 135.47,156.66 C 134.82,156.1 134.2,155.55 133.56,154.97 C 133.06,154.51 132.53,154.03 132.03,153.56 C 132.53,153.09 133.06,152.62 133.56,152.16 C 134.2,151.58 134.82,151.02 135.47,150.47 C 136.1,149.93 136.75,149.38 137.41,148.88 C 138.04,148.39 138.68,147.92 139.34,147.47 C 139.98,147.04 140.64,146.63 141.31,146.25 C 142.21,145.74 143.14,145.27 144.09,144.88 C 144.52,144.7 144.94,144.53 145.38,144.38 C 145.7,144.26 146.04,144.16 146.38,144.06 C 147.0,143.88 147.64,143.73 148.28,143.63 C 148.85,143.53 149.42,143.47 150.0,143.47 z"
		 />
		 <path style="fill:#00f;stroke:none;"
		 d="M 153.9,153.56 C 153.9,154.07 153.79,154.58 153.6,155.05 C 153.4,155.52 153.12,155.95 152.75,156.31 C 152.39,156.67 151.96,156.96 151.49,157.16 C 151.02,157.35 150.51,157.45 150.0,157.45 C 149.49,157.45 148.98,157.35 148.51,157.16 C 148.04,156.96 147.6,156.67 147.24,156.31 C 146.88,155.95 146.59,155.52 146.4,155.05 C 146.2,154.58 146.1,154.07 146.1,153.56 C 146.1,153.05 146.2,152.54 146.4,152.07 C 146.59,151.59 146.88,151.16 147.24,150.8 C 147.6,150.44 148.04,150.15 148.51,149.96 C 148.98,149.76 149.49,149.66 150.0,149.66 C 150.51,149.66 151.02,149.76 151.49,149.96 C 151.96,150.15 152.39,150.44 152.75,150.8 C 153.12,151.16 153.4,151.59 153.6,152.07 C 153.79,152.54 153.9,153.05 153.9,153.56 z"
		 />
		
		<!-- Prism Reference -->
		<cam mingh:cam="--verb EditSelectAll --verb ZoomSelection --verb FileSave "/> 
	 </g>

</svg>
