<svg
   xmlns:xlink="http://www.w3.org/1999/xlink"
   xmlns:svg="http://www.w3.org/2000/svg"
   xmlns="http://www.w3.org/2000/svg"
   xmlns:mingh="http://www.minghworld.com"
   width="300px"
   height="300px" >
	
	 <g>
		
		<!-- Paths -->
		<path style="fill:none;stroke:#000;stroke-width:0.25px;"
		 d="M 150.19,123.34 C 149.95,123.33 149.71,123.34 149.47,123.38 C 147.55,123.63 146.11,125.28 146.09,127.22 C 146.08,128.18 146.43,129.12 147.06,129.84 C 147.37,130.2 147.74,130.46 148.16,130.69 C 148.34,130.79 148.58,130.84 148.59,131.13 C 148.6,131.26 148.53,131.36 148.47,131.47 C 148.4,131.58 148.35,131.67 148.28,131.78 C 147.35,133.39 146.43,135.01 145.5,136.63 C 145.03,137.43 144.56,138.23 144.09,139.03 C 143.86,139.43 143.64,139.85 143.41,140.25 C 143.29,140.45 143.18,140.64 143.06,140.84 C 143.03,140.89 143.0,140.95 142.97,141.0 C 142.95,141.02 142.83,141.03 142.81,141.03 L 142.44,141.03 L 136.88,141.03 C 136.31,141.03 131.87,141.02 131.31,141.03 C 130.94,141.04 130.36,141.06 130.0,141.25 C 129.51,141.51 129.59,141.98 129.75,142.41 C 129.94,142.93 130.79,144.34 131.06,144.81 C 132.0,146.44 132.93,148.09 133.88,149.72 C 134.35,150.53 134.81,151.34 135.28,152.16 C 135.4,152.36 135.54,152.55 135.66,152.75 C 135.72,152.85 135.75,152.96 135.81,153.06 C 135.84,153.11 135.88,153.17 135.91,153.22 C 135.91,153.23 135.91,153.24 135.91,153.25 C 135.9,153.26 135.88,153.24 135.88,153.25 C 135.87,153.26 135.88,153.27 135.88,153.28 C 135.86,153.31 135.83,153.35 135.81,153.38 C 135.58,153.78 135.36,154.19 135.13,154.59 C 134.18,156.22 133.22,157.84 132.28,159.47 C 131.81,160.28 131.35,161.12 130.88,161.94 C 130.59,162.43 129.77,163.74 129.66,164.34 C 129.55,164.89 129.8,165.18 130.31,165.31 C 130.75,165.43 131.18,165.43 131.63,165.44 C 132.57,165.44 133.53,165.44 134.47,165.44 L 140.09,165.44 L 142.94,165.44 C 142.97,165.44 142.99,165.44 143.0,165.47 C 143.01,165.49 143.02,165.54 143.03,165.56 L 143.13,165.69 L 143.28,166.0 C 143.4,166.2 143.54,166.42 143.66,166.63 C 143.89,167.03 144.11,167.44 144.34,167.84 C 145.28,169.47 146.25,171.09 147.19,172.72 C 147.66,173.53 148.12,174.37 148.59,175.19 C 148.82,175.57 149.03,175.95 149.34,176.28 C 149.69,176.65 150.06,176.79 150.5,176.44 C 150.87,176.15 151.06,175.76 151.28,175.38 C 151.52,174.97 151.77,174.59 152.0,174.19 C 152.47,173.37 152.94,172.56 153.41,171.75 C 154.35,170.12 155.28,168.47 156.22,166.84 C 156.45,166.44 156.7,166.03 156.94,165.63 L 157.03,165.47 C 157.05,165.44 157.03,165.44 157.06,165.44 L 157.16,165.44 L 157.53,165.44 L 158.22,165.44 L 161.06,165.44 L 166.69,165.44 C 167.22,165.44 168.91,165.46 169.44,165.38 C 170.74,165.17 170.44,164.26 169.94,163.34 C 169.7,162.91 167.37,158.93 167.13,158.5 C 166.18,156.87 165.25,155.22 164.31,153.59 C 164.25,153.49 164.18,153.38 164.13,153.28 C 164.12,153.27 164.09,153.23 164.09,153.22 C 164.11,153.19 164.11,153.15 164.13,153.13 C 164.15,153.07 164.19,153.05 164.22,153.0 C 164.34,152.8 164.48,152.58 164.59,152.38 C 164.83,151.97 165.05,151.56 165.28,151.16 C 165.75,150.34 166.22,149.53 166.69,148.72 C 167.63,147.09 168.59,145.44 169.53,143.81 C 169.76,143.42 169.97,143.04 170.16,142.63 C 170.31,142.29 170.53,141.72 170.19,141.38 C 169.9,141.08 169.29,141.05 168.94,141.03 C 168.48,141.01 168.02,141.03 167.56,141.03 L 161.97,141.03 L 159.16,141.03 L 157.78,141.03 L 157.06,141.03 C 157.02,141.03 157.01,140.99 157.0,140.97 C 156.99,140.94 156.98,140.9 156.97,140.88 C 156.94,140.82 156.9,140.77 156.88,140.72 C 156.82,140.62 156.78,140.54 156.72,140.44 C 155.79,138.82 154.84,137.21 153.91,135.59 L 152.5,133.16 L 151.81,131.94 C 151.7,131.74 151.59,131.55 151.47,131.34 C 151.35,131.15 151.37,130.91 151.59,130.81 C 153.35,130.02 154.28,128.05 153.75,126.19 C 153.28,124.56 151.83,123.42 150.19,123.34 z M 150.0,125.31 C 150.26,125.31 150.51,125.34 150.75,125.44 C 150.99,125.54 151.19,125.69 151.38,125.88 C 151.56,126.06 151.71,126.26 151.81,126.5 C 151.91,126.74 151.94,126.99 151.94,127.25 C 151.94,127.51 151.91,127.76 151.81,128.0 C 151.71,128.24 151.56,128.44 151.38,128.63 C 151.19,128.81 150.99,128.96 150.75,129.06 C 150.51,129.16 150.26,129.19 150.0,129.19 C 149.74,129.19 149.49,129.16 149.25,129.06 C 149.01,128.96 148.81,128.81 148.63,128.63 C 148.44,128.44 148.29,128.24 148.19,128.0 C 148.09,127.76 148.06,127.51 148.06,127.25 C 148.06,126.99 148.09,126.74 148.19,126.5 C 148.29,126.26 148.44,126.06 148.63,125.88 C 148.81,125.69 149.01,125.54 149.25,125.44 C 149.49,125.34 149.75,125.31 150.0,125.31 z M 150.0,138.41 C 150.03,138.45 150.07,138.51 150.13,138.59 C 150.23,138.77 150.39,139.06 150.63,139.47 C 150.93,139.99 151.23,140.51 151.53,141.03 L 148.47,141.03 C 148.77,140.51 149.07,139.99 149.38,139.47 C 149.61,139.06 149.77,138.77 149.88,138.59 C 149.93,138.51 149.97,138.45 150.0,138.41 z M 137.16,145.81 C 137.21,145.81 137.31,145.81 137.41,145.81 C 137.61,145.81 137.91,145.81 138.38,145.81 L 140.19,145.81 C 139.68,146.69 139.16,147.56 138.66,148.44 C 138.36,147.92 138.08,147.4 137.78,146.88 C 137.55,146.47 137.38,146.18 137.28,146.0 C 137.23,145.91 137.18,145.86 137.16,145.81 z M 145.72,145.81 L 154.28,145.81 L 158.56,153.22 L 154.28,160.63 L 145.72,160.63 L 141.44,153.22 L 145.72,145.81 z M 159.81,145.81 C 160.41,145.81 161.02,145.81 161.63,145.81 C 162.09,145.81 162.39,145.81 162.59,145.81 C 162.69,145.81 162.79,145.81 162.84,145.81 C 162.82,145.86 162.77,145.91 162.72,146.0 C 162.62,146.18 162.45,146.47 162.22,146.88 C 161.92,147.4 161.64,147.92 161.34,148.44 C 160.84,147.56 160.32,146.69 159.81,145.81 z M 138.66,158.0 C 139.16,158.88 139.68,159.75 140.19,160.63 L 138.38,160.63 C 137.91,160.63 137.61,160.63 137.41,160.63 C 137.31,160.62 137.21,160.63 137.16,160.63 C 137.18,160.58 137.23,160.53 137.28,160.44 C 137.38,160.26 137.55,159.97 137.78,159.56 C 138.08,159.04 138.36,158.52 138.66,158.0 z M 161.34,158.0 C 161.64,158.52 161.92,159.04 162.22,159.56 C 162.45,159.97 162.62,160.26 162.72,160.44 C 162.77,160.53 162.82,160.58 162.84,160.63 C 162.79,160.63 162.69,160.62 162.59,160.63 C 162.39,160.63 162.09,160.62 161.63,160.63 L 159.81,160.63 C 160.32,159.75 160.84,158.88 161.34,158.0 z M 148.47,165.44 L 151.53,165.44 C 151.23,165.96 150.93,166.48 150.63,167.0 C 150.39,167.41 150.23,167.67 150.13,167.84 C 150.07,167.93 150.03,167.99 150.0,168.03 C 149.97,167.99 149.93,167.93 149.88,167.84 C 149.77,167.67 149.61,167.41 149.38,167.0 C 149.07,166.48 148.77,165.96 148.47,165.44 z"
		 />
		 <path style="fill:#f00;stroke:none;"
		 d="M 136.96,143.01 C 137.19,143.08 137.39,143.09 137.63,143.02 C 137.84,142.96 138.05,142.83 138.11,142.59 C 138.17,142.36 138.06,142.14 137.91,141.98 C 137.74,141.81 137.55,141.71 137.32,141.65 C 137.09,141.59 136.88,141.58 136.65,141.65 C 136.44,141.71 136.23,141.84 136.17,142.07 C 136.1,142.31 136.22,142.53 136.37,142.69 C 136.54,142.86 136.73,142.95 136.96,143.02 z M 139.52,143.63 C 139.75,143.68 139.96,143.68 140.19,143.6 C 140.4,143.53 140.6,143.39 140.65,143.15 C 140.7,142.91 140.58,142.7 140.42,142.55 C 140.24,142.39 140.05,142.3 139.82,142.25 C 139.58,142.2 139.37,142.2 139.15,142.28 C 138.94,142.35 138.73,142.49 138.68,142.73 C 138.63,142.97 138.76,143.18 138.92,143.33 C 139.1,143.5 139.29,143.58 139.52,143.63 z M 133.1,141.16 C 133.25,141.16 133.41,141.16 133.56,141.16 C 133.6,141.16 133.64,141.16 133.68,141.16 C 133.7,141.16 133.72,141.16 133.74,141.16 C 133.75,141.16 133.74,141.18 133.73,141.19 C 133.71,141.23 133.69,141.27 133.68,141.32 C 133.62,141.58 133.76,141.82 133.94,141.98 C 134.3,142.32 135.09,142.52 135.48,142.1 C 135.64,141.94 135.66,141.72 135.58,141.52 C 135.53,141.39 135.45,141.29 135.35,141.2 C 135.33,141.19 135.32,141.18 135.31,141.17 C 135.29,141.15 135.33,141.16 135.34,141.16 C 135.38,141.16 135.42,141.16 135.46,141.16 C 135.53,141.16 135.61,141.16 135.68,141.16 C 135.98,141.16 136.28,141.16 136.58,141.16 C 136.73,141.16 136.87,141.16 137.02,141.16 C 137.18,141.16 137.33,141.15 137.48,141.18 C 138.55,141.41 139.62,141.6 140.69,141.77 C 140.97,141.82 141.24,141.86 141.51,141.9 C 141.58,141.91 141.64,141.91 141.71,141.92 C 141.73,141.93 141.75,141.93 141.76,141.93 C 141.78,141.93 141.82,141.91 141.81,141.94 C 141.79,141.97 141.77,142.0 141.76,142.03 C 141.69,142.15 141.62,142.26 141.55,142.38 C 141.28,142.85 141.01,143.32 140.74,143.79 C 140.66,143.92 140.59,144.05 140.51,144.19 C 140.47,144.25 140.44,144.32 140.4,144.38 C 140.38,144.42 140.36,144.45 140.34,144.48 C 140.34,144.49 140.33,144.5 140.33,144.51 C 140.32,144.51 140.32,144.53 140.31,144.52 C 140.29,144.52 140.28,144.52 140.26,144.51 C 140.0,144.45 139.75,144.39 139.49,144.32 C 138.98,144.19 138.48,144.05 137.97,143.9 C 136.93,143.59 135.9,143.25 134.88,142.86 C 133.86,142.47 132.85,142.05 131.86,141.59 C 131.61,141.48 131.36,141.36 131.11,141.23 C 131.08,141.22 131.05,141.2 131.02,141.19 C 131.01,141.18 131.0,141.18 130.99,141.18 C 130.99,141.18 130.98,141.17 130.98,141.17 C 130.99,141.17 130.99,141.17 131.0,141.17 C 131.02,141.17 131.03,141.17 131.05,141.17 C 131.13,141.17 131.2,141.16 131.27,141.16 C 131.35,141.16 131.42,141.16 131.49,141.16 C 131.51,141.16 131.53,141.16 131.55,141.16 C 131.57,141.16 131.58,141.18 131.59,141.19 C 131.62,141.21 131.65,141.24 131.68,141.25 C 132.05,141.5 132.82,141.64 133.1,141.16 z M 152.64,144.66 C 152.87,144.65 153.08,144.6 153.28,144.46 C 153.46,144.34 153.62,144.15 153.61,143.91 C 153.59,143.66 153.42,143.49 153.22,143.39 C 153.01,143.28 152.8,143.24 152.56,143.25 C 152.33,143.27 152.13,143.32 151.92,143.45 C 151.74,143.58 151.58,143.77 151.6,144.01 C 151.61,144.25 151.79,144.43 151.98,144.53 C 152.19,144.64 152.4,144.68 152.64,144.66 z M 155.27,144.46 C 155.5,144.43 155.7,144.37 155.9,144.22 C 156.07,144.09 156.22,143.89 156.2,143.65 C 156.17,143.41 155.98,143.24 155.78,143.15 C 155.56,143.05 155.36,143.03 155.12,143.05 C 154.89,143.08 154.69,143.14 154.49,143.29 C 154.32,143.42 154.17,143.62 154.19,143.86 C 154.22,144.1 154.4,144.27 154.61,144.36 C 154.82,144.46 155.03,144.48 155.27,144.46 z M 157.88,144.11 C 158.12,144.07 158.31,144.0 158.5,143.85 C 158.67,143.71 158.81,143.5 158.77,143.26 C 158.73,143.02 158.54,142.86 158.33,142.78 C 158.11,142.69 157.9,142.68 157.66,142.72 C 157.43,142.76 157.23,142.83 157.05,142.98 C 156.88,143.13 156.74,143.33 156.78,143.57 C 156.82,143.81 157.01,143.97 157.22,144.05 C 157.44,144.14 157.65,144.15 157.88,144.11 z M 160.48,143.63 C 160.71,143.58 160.9,143.5 161.08,143.33 C 161.24,143.18 161.37,142.97 161.32,142.73 C 161.27,142.49 161.06,142.35 160.85,142.28 C 160.63,142.2 160.42,142.2 160.19,142.25 C 159.95,142.3 159.76,142.39 159.59,142.55 C 159.42,142.7 159.3,142.91 159.35,143.15 C 159.4,143.39 159.6,143.53 159.81,143.6 C 160.04,143.68 160.25,143.68 160.48,143.63 z M 163.04,143.01 C 163.27,142.95 163.46,142.86 163.63,142.69 C 163.78,142.53 163.9,142.31 163.83,142.07 C 163.77,141.84 163.56,141.7 163.35,141.65 C 163.12,141.58 162.91,141.59 162.68,141.65 C 162.45,141.71 162.26,141.81 162.1,141.98 C 161.94,142.14 161.83,142.36 161.89,142.59 C 161.95,142.83 162.16,142.96 162.37,143.02 C 162.61,143.09 162.82,143.08 163.04,143.01 z M 150.0,144.73 C 150.24,144.73 150.44,144.69 150.65,144.57 C 150.84,144.45 151.01,144.27 151.01,144.03 C 151.01,143.78 150.84,143.6 150.65,143.49 C 150.44,143.37 150.24,143.32 150.0,143.32 C 149.76,143.32 149.56,143.37 149.35,143.49 C 149.16,143.6 148.99,143.78 148.99,144.03 C 148.99,144.27 149.16,144.45 149.35,144.57 C 149.56,144.69 149.76,144.73 150.0,144.73 z M 166.9,141.16 C 167.15,141.58 167.8,141.51 168.16,141.34 C 168.21,141.32 168.27,141.29 168.32,141.25 C 168.35,141.24 168.37,141.22 168.4,141.2 C 168.42,141.18 168.44,141.16 168.48,141.16 C 168.61,141.16 168.74,141.16 168.87,141.17 C 168.91,141.17 168.94,141.17 168.97,141.17 C 168.99,141.17 169.04,141.16 169.01,141.17 C 169.0,141.18 168.98,141.19 168.97,141.2 C 168.9,141.23 168.84,141.26 168.77,141.29 C 168.65,141.35 168.52,141.41 168.39,141.47 C 167.36,141.96 166.32,142.4 165.26,142.81 C 163.26,143.57 161.23,144.19 159.14,144.65 C 157.05,145.11 154.96,145.42 152.82,145.56 C 151.75,145.64 150.68,145.67 149.61,145.66 C 149.08,145.65 148.55,145.64 148.02,145.61 C 147.76,145.6 147.49,145.58 147.23,145.57 C 147.1,145.56 146.97,145.55 146.83,145.54 C 146.77,145.53 146.7,145.53 146.64,145.52 C 146.6,145.52 146.57,145.52 146.54,145.51 C 146.53,145.51 146.49,145.53 146.5,145.5 C 146.51,145.49 146.52,145.47 146.53,145.46 C 146.68,145.2 146.83,144.94 146.98,144.68 C 146.99,144.66 147.01,144.6 147.04,144.61 C 147.07,144.62 147.1,144.63 147.13,144.63 C 147.19,144.65 147.26,144.66 147.32,144.66 C 147.44,144.67 147.57,144.67 147.69,144.64 C 148.1,144.57 148.56,144.23 148.36,143.77 C 148.26,143.55 148.04,143.41 147.83,143.33 C 147.81,143.33 147.8,143.32 147.78,143.32 C 147.76,143.31 147.78,143.29 147.78,143.28 C 147.8,143.25 147.82,143.22 147.84,143.18 C 147.88,143.12 147.92,143.05 147.95,142.99 C 148.03,142.86 148.1,142.73 148.18,142.6 C 148.2,142.57 148.21,142.54 148.23,142.5 C 148.24,142.49 148.25,142.47 148.27,142.47 C 148.29,142.47 148.31,142.47 148.33,142.47 C 148.41,142.48 148.49,142.48 148.56,142.48 C 148.72,142.48 148.87,142.49 149.03,142.49 C 149.34,142.49 149.65,142.5 149.97,142.5 C 152.1,142.5 154.23,142.39 156.35,142.16 C 157.41,142.05 158.46,141.91 159.52,141.74 C 160.04,141.66 160.57,141.56 161.1,141.47 C 161.36,141.42 161.62,141.37 161.88,141.31 C 162.02,141.29 162.15,141.26 162.28,141.23 C 162.41,141.21 162.53,141.16 162.66,141.16 C 163.26,141.16 163.86,141.16 164.45,141.16 C 164.53,141.16 164.6,141.16 164.68,141.16 C 164.69,141.16 164.71,141.15 164.7,141.16 C 164.69,141.17 164.68,141.17 164.68,141.18 C 164.66,141.19 164.65,141.2 164.64,141.22 C 164.61,141.24 164.59,141.26 164.57,141.29 C 164.48,141.39 164.42,141.49 164.39,141.62 C 164.34,141.84 164.42,142.04 164.59,142.17 C 165.03,142.5 165.77,142.3 166.11,141.94 C 166.27,141.78 166.39,141.54 166.32,141.3 C 166.31,141.26 166.29,141.21 166.26,141.17 C 166.25,141.15 166.28,141.16 166.29,141.16 C 166.31,141.16 166.33,141.16 166.34,141.16 C 166.38,141.16 166.42,141.16 166.46,141.16 C 166.6,141.16 166.75,141.16 166.9,141.16 z M 142.65,148.98 C 142.77,148.77 142.83,148.57 142.83,148.33 C 142.83,148.11 142.75,147.87 142.54,147.75 C 142.33,147.63 142.09,147.68 141.9,147.79 C 141.69,147.91 141.55,148.07 141.43,148.27 C 141.31,148.48 141.25,148.68 141.25,148.92 C 141.25,149.14 141.33,149.37 141.54,149.49 C 141.75,149.62 141.99,149.56 142.18,149.45 C 142.39,149.34 142.53,149.18 142.65,148.98 z M 147.68,136.82 C 147.75,136.59 147.76,136.38 147.69,136.15 C 147.63,135.94 147.5,135.73 147.26,135.67 C 147.03,135.6 146.81,135.72 146.65,135.87 C 146.48,136.04 146.38,136.23 146.32,136.46 C 146.26,136.69 146.25,136.89 146.32,137.13 C 146.38,137.34 146.51,137.55 146.74,137.61 C 146.98,137.67 147.2,137.56 147.36,137.4 C 147.53,137.24 147.62,137.05 147.69,136.82 z M 146.94,139.35 C 147.01,139.13 147.03,138.92 146.98,138.68 C 146.93,138.47 146.81,138.25 146.58,138.18 C 146.34,138.1 146.12,138.2 145.95,138.35 C 145.77,138.51 145.67,138.69 145.59,138.92 C 145.52,139.14 145.5,139.35 145.55,139.58 C 145.6,139.8 145.72,140.02 145.95,140.09 C 146.18,140.17 146.41,140.06 146.58,139.92 C 146.76,139.76 146.86,139.58 146.94,139.35 z M 146.05,141.84 C 146.14,141.62 146.17,141.41 146.13,141.17 C 146.1,140.95 145.98,140.73 145.76,140.65 C 145.53,140.56 145.3,140.65 145.13,140.79 C 144.94,140.94 144.82,141.11 144.74,141.33 C 144.65,141.55 144.62,141.76 144.66,142.0 C 144.7,142.22 144.81,142.44 145.04,142.52 C 145.26,142.61 145.49,142.52 145.67,142.38 C 145.86,142.23 145.97,142.06 146.05,141.84 z M 145.04,144.28 C 145.14,144.06 145.18,143.85 145.16,143.62 C 145.13,143.4 145.03,143.17 144.81,143.07 C 144.59,142.97 144.35,143.05 144.17,143.18 C 143.98,143.32 143.85,143.49 143.76,143.7 C 143.66,143.92 143.62,144.12 143.64,144.36 C 143.67,144.58 143.77,144.81 143.99,144.91 C 144.21,145.01 144.45,144.93 144.63,144.8 C 144.83,144.66 144.95,144.49 145.04,144.28 z M 143.91,146.66 C 144.02,146.45 144.07,146.24 144.06,146.0 C 144.04,145.78 143.95,145.55 143.74,145.44 C 143.52,145.33 143.28,145.4 143.1,145.51 C 142.89,145.64 142.76,145.81 142.65,146.02 C 142.54,146.23 142.49,146.43 142.51,146.67 C 142.52,146.89 142.61,147.12 142.82,147.23 C 143.04,147.34 143.28,147.28 143.47,147.16 C 143.67,147.03 143.8,146.87 143.91,146.66 z M 148.01,132.55 C 148.49,132.55 148.76,131.95 148.79,131.56 C 148.8,131.5 148.8,131.43 148.8,131.37 C 148.8,131.34 148.79,131.31 148.79,131.28 C 148.79,131.25 148.78,131.22 148.8,131.19 C 148.86,131.07 148.93,130.96 149.0,130.85 C 149.02,130.82 149.03,130.79 149.05,130.77 C 149.06,130.75 149.08,130.7 149.08,130.73 C 149.07,130.75 149.07,130.77 149.07,130.78 C 149.07,130.85 149.06,130.93 149.06,131.0 C 149.05,131.14 149.03,131.28 149.02,131.42 C 148.93,132.55 148.79,133.68 148.61,134.8 C 148.27,136.91 147.79,138.98 147.15,141.02 C 146.51,143.06 145.72,145.03 144.78,146.95 C 144.31,147.91 143.8,148.85 143.25,149.78 C 142.99,150.23 142.71,150.68 142.42,151.13 C 142.28,151.35 142.13,151.57 141.99,151.79 C 141.91,151.9 141.84,152.01 141.76,152.12 C 141.73,152.17 141.69,152.23 141.65,152.28 C 141.63,152.31 141.62,152.34 141.6,152.36 C 141.59,152.38 141.58,152.42 141.57,152.39 C 141.56,152.38 141.55,152.36 141.54,152.34 C 141.39,152.09 141.24,151.83 141.09,151.57 C 141.08,151.55 141.04,151.5 141.06,151.48 C 141.09,151.46 141.11,151.43 141.13,151.41 C 141.17,151.36 141.21,151.31 141.25,151.26 C 141.32,151.16 141.38,151.05 141.42,150.93 C 141.56,150.54 141.5,149.97 141.0,149.92 C 140.76,149.89 140.52,150.01 140.35,150.16 C 140.34,150.17 140.33,150.18 140.31,150.19 C 140.3,150.21 140.29,150.18 140.28,150.17 C 140.27,150.14 140.25,150.1 140.23,150.07 C 140.19,150.01 140.15,149.94 140.12,149.88 C 140.04,149.75 139.97,149.62 139.89,149.49 C 139.87,149.46 139.86,149.42 139.84,149.39 C 139.83,149.38 139.82,149.36 139.83,149.34 C 139.84,149.33 139.85,149.31 139.86,149.29 C 139.9,149.23 139.94,149.16 139.98,149.09 C 140.06,148.96 140.14,148.83 140.22,148.69 C 140.38,148.43 140.54,148.16 140.7,147.89 C 141.77,146.04 142.73,144.14 143.6,142.19 C 144.03,141.22 144.44,140.23 144.82,139.24 C 145.01,138.74 145.19,138.24 145.37,137.73 C 145.46,137.48 145.54,137.23 145.63,136.97 C 145.67,136.85 145.71,136.72 145.76,136.59 C 145.8,136.47 145.82,136.34 145.89,136.22 C 146.19,135.71 146.48,135.19 146.78,134.67 C 146.82,134.61 146.86,134.54 146.89,134.48 C 146.9,134.47 146.9,134.45 146.91,134.46 C 146.91,134.47 146.91,134.48 146.91,134.49 C 146.91,134.51 146.92,134.52 146.92,134.54 C 146.93,134.57 146.94,134.61 146.95,134.64 C 147.0,134.76 147.05,134.87 147.15,134.96 C 147.31,135.11 147.52,135.14 147.72,135.06 C 148.23,134.84 148.42,134.11 148.29,133.63 C 148.22,133.41 148.08,133.19 147.84,133.13 C 147.79,133.12 147.74,133.11 147.7,133.11 C 147.68,133.11 147.69,133.09 147.7,133.08 C 147.71,133.07 147.72,133.05 147.73,133.04 C 147.75,133.0 147.76,132.97 147.78,132.94 C 147.86,132.81 147.93,132.68 148.01,132.55 z M 136.46,157.5 C 136.62,157.32 136.72,157.14 136.77,156.91 C 136.81,156.69 136.79,156.44 136.61,156.28 C 136.43,156.12 136.18,156.12 135.97,156.19 C 135.74,156.26 135.57,156.38 135.41,156.56 C 135.25,156.73 135.15,156.91 135.1,157.15 C 135.05,157.37 135.08,157.61 135.26,157.78 C 135.44,157.94 135.69,157.94 135.9,157.87 C 136.13,157.8 136.3,157.68 136.46,157.5 z M 134.64,159.41 C 134.81,159.25 134.92,159.07 134.98,158.84 C 135.04,158.62 135.03,158.37 134.85,158.2 C 134.68,158.03 134.43,158.02 134.22,158.08 C 133.99,158.14 133.81,158.25 133.64,158.42 C 133.48,158.58 133.36,158.76 133.3,158.99 C 133.25,159.21 133.26,159.46 133.43,159.63 C 133.6,159.8 133.85,159.81 134.06,159.76 C 134.3,159.7 134.47,159.58 134.64,159.41 z M 131.1,161.83 C 131.18,161.69 131.26,161.56 131.34,161.43 C 131.36,161.39 131.37,161.36 131.39,161.33 C 131.4,161.31 131.41,161.29 131.42,161.27 C 131.43,161.26 131.44,161.28 131.44,161.29 C 131.47,161.34 131.5,161.37 131.54,161.41 C 131.73,161.59 132.01,161.58 132.24,161.51 C 132.71,161.37 133.28,160.78 133.11,160.23 C 133.05,160.02 132.87,159.89 132.66,159.86 C 132.52,159.84 132.4,159.86 132.26,159.9 C 132.25,159.91 132.23,159.91 132.21,159.92 C 132.19,159.93 132.22,159.89 132.23,159.88 C 132.25,159.85 132.26,159.82 132.28,159.78 C 132.32,159.72 132.36,159.66 132.4,159.59 C 132.54,159.33 132.69,159.07 132.84,158.81 C 132.92,158.69 132.99,158.56 133.07,158.43 C 133.14,158.3 133.21,158.16 133.31,158.04 C 134.04,157.23 134.75,156.4 135.43,155.56 C 135.61,155.34 135.78,155.13 135.95,154.91 C 135.99,154.86 136.03,154.8 136.07,154.75 C 136.08,154.74 136.09,154.72 136.11,154.71 C 136.12,154.7 136.12,154.65 136.14,154.67 C 136.15,154.7 136.17,154.73 136.19,154.76 C 136.26,154.88 136.32,155.0 136.39,155.12 C 136.66,155.59 136.93,156.06 137.21,156.53 C 137.28,156.66 137.36,156.79 137.43,156.92 C 137.47,156.99 137.51,157.05 137.55,157.12 C 137.57,157.15 137.58,157.18 137.6,157.22 C 137.61,157.22 137.61,157.23 137.62,157.24 C 137.62,157.25 137.63,157.25 137.62,157.26 C 137.61,157.28 137.6,157.29 137.59,157.3 C 137.41,157.49 137.23,157.68 137.04,157.87 C 136.67,158.25 136.3,158.61 135.92,158.98 C 135.13,159.73 134.31,160.45 133.47,161.14 C 132.62,161.83 131.75,162.48 130.86,163.11 C 130.63,163.27 130.41,163.43 130.18,163.59 C 130.15,163.6 130.12,163.62 130.09,163.64 C 130.08,163.65 130.08,163.65 130.07,163.66 C 130.07,163.66 130.06,163.67 130.06,163.66 C 130.06,163.66 130.06,163.66 130.07,163.65 C 130.07,163.64 130.08,163.62 130.09,163.6 C 130.12,163.54 130.16,163.47 130.2,163.41 C 130.23,163.34 130.27,163.28 130.3,163.22 C 130.31,163.2 130.32,163.18 130.33,163.17 C 130.34,163.15 130.36,163.15 130.38,163.15 C 130.41,163.13 130.45,163.12 130.48,163.1 C 130.87,162.9 131.38,162.31 131.1,161.83 z M 142.65,157.46 C 142.53,157.26 142.39,157.1 142.18,156.98 C 141.99,156.88 141.75,156.82 141.54,156.94 C 141.33,157.07 141.25,157.3 141.25,157.52 C 141.25,157.76 141.31,157.96 141.43,158.17 C 141.55,158.37 141.69,158.53 141.9,158.65 C 142.09,158.76 142.33,158.81 142.54,158.69 C 142.75,158.57 142.83,158.33 142.83,158.11 C 142.83,157.87 142.77,157.67 142.65,157.46 z M 134.64,147.03 C 134.47,146.86 134.3,146.74 134.06,146.68 C 133.85,146.63 133.6,146.64 133.43,146.81 C 133.26,146.98 133.25,147.23 133.3,147.45 C 133.36,147.68 133.48,147.86 133.64,148.02 C 133.81,148.19 133.99,148.3 134.22,148.36 C 134.43,148.42 134.68,148.41 134.85,148.24 C 135.03,148.06 135.04,147.82 134.98,147.6 C 134.92,147.37 134.81,147.19 134.64,147.03 z M 136.46,148.94 C 136.3,148.76 136.13,148.64 135.9,148.57 C 135.69,148.5 135.44,148.5 135.26,148.66 C 135.08,148.83 135.05,149.07 135.1,149.29 C 135.15,149.53 135.25,149.71 135.41,149.88 C 135.57,150.06 135.74,150.18 135.97,150.25 C 136.18,150.32 136.43,150.32 136.61,150.16 C 136.79,150.0 136.81,149.75 136.77,149.53 C 136.72,149.3 136.62,149.12 136.46,148.94 z M 138.17,150.95 C 138.02,150.76 137.86,150.63 137.63,150.55 C 137.43,150.47 137.18,150.46 136.99,150.61 C 136.8,150.76 136.76,151.01 136.8,151.22 C 136.83,151.46 136.93,151.65 137.07,151.83 C 137.22,152.02 137.39,152.15 137.61,152.23 C 137.82,152.31 138.07,152.32 138.26,152.17 C 138.44,152.02 138.48,151.77 138.45,151.55 C 138.41,151.32 138.32,151.13 138.17,150.95 z M 139.78,153.04 C 139.64,152.85 139.48,152.71 139.26,152.61 C 139.06,152.52 138.81,152.5 138.61,152.64 C 138.42,152.78 138.37,153.03 138.39,153.25 C 138.41,153.49 138.5,153.68 138.64,153.87 C 138.78,154.06 138.93,154.2 139.15,154.3 C 139.35,154.38 139.6,154.41 139.8,154.27 C 139.99,154.13 140.04,153.88 140.02,153.66 C 140.0,153.42 139.92,153.23 139.78,153.04 z M 141.27,155.21 C 141.14,155.02 140.99,154.87 140.78,154.76 C 140.58,154.66 140.34,154.62 140.13,154.75 C 139.93,154.89 139.87,155.13 139.87,155.35 C 139.88,155.59 139.96,155.78 140.09,155.98 C 140.22,156.18 140.37,156.33 140.58,156.44 C 140.78,156.53 141.02,156.57 141.23,156.44 C 141.43,156.31 141.49,156.07 141.49,155.85 C 141.48,155.61 141.4,155.41 141.27,155.21 z M 131.1,144.61 C 131.35,144.19 130.96,143.66 130.64,143.43 C 130.59,143.4 130.53,143.37 130.48,143.34 C 130.45,143.32 130.42,143.31 130.39,143.3 C 130.36,143.28 130.33,143.28 130.32,143.25 C 130.25,143.13 130.19,143.02 130.12,142.9 C 130.11,142.87 130.09,142.85 130.08,142.82 C 130.07,142.8 130.04,142.76 130.06,142.78 C 130.08,142.79 130.09,142.8 130.11,142.81 C 130.16,142.85 130.22,142.89 130.28,142.93 C 130.4,143.01 130.52,143.09 130.64,143.17 C 131.57,143.82 132.47,144.5 133.35,145.21 C 135.02,146.56 136.56,148.01 138.01,149.59 C 139.46,151.17 140.77,152.83 141.96,154.61 C 142.56,155.5 143.12,156.41 143.65,157.34 C 143.91,157.8 144.16,158.27 144.4,158.74 C 144.52,158.97 144.64,159.21 144.76,159.45 C 144.82,159.57 144.87,159.68 144.93,159.8 C 144.96,159.86 144.99,159.92 145.02,159.98 C 145.03,160.01 145.04,160.04 145.06,160.07 C 145.06,160.08 145.09,160.11 145.07,160.11 C 145.05,160.11 145.03,160.11 145.01,160.11 C 144.71,160.11 144.42,160.11 144.12,160.11 C 144.1,160.11 144.03,160.12 144.02,160.09 C 144.01,160.06 144.01,160.03 144.0,160.0 C 143.98,159.94 143.96,159.88 143.93,159.82 C 143.87,159.71 143.81,159.6 143.73,159.51 C 143.46,159.19 142.93,158.96 142.64,159.37 C 142.5,159.56 142.48,159.82 142.52,160.05 C 142.53,160.06 142.53,160.08 142.53,160.09 C 142.54,160.12 142.51,160.11 142.5,160.11 C 142.46,160.11 142.43,160.11 142.39,160.11 C 142.31,160.11 142.24,160.11 142.16,160.11 C 142.01,160.11 141.87,160.11 141.72,160.11 C 141.68,160.11 141.64,160.11 141.6,160.11 C 141.59,160.11 141.57,160.11 141.56,160.09 C 141.55,160.07 141.54,160.06 141.53,160.04 C 141.49,159.97 141.46,159.9 141.42,159.83 C 141.34,159.7 141.27,159.56 141.19,159.43 C 141.04,159.15 140.89,158.88 140.73,158.61 C 139.66,156.76 138.51,154.98 137.25,153.25 C 136.62,152.39 135.97,151.55 135.3,150.72 C 134.96,150.3 134.62,149.89 134.27,149.49 C 134.1,149.29 133.92,149.08 133.75,148.88 C 133.66,148.78 133.57,148.68 133.48,148.58 C 133.39,148.48 133.29,148.4 133.22,148.28 C 132.93,147.77 132.63,147.25 132.33,146.73 C 132.29,146.67 132.25,146.6 132.22,146.54 C 132.21,146.53 132.2,146.52 132.21,146.52 C 132.22,146.52 132.23,146.53 132.24,146.53 C 132.25,146.53 132.27,146.54 132.29,146.55 C 132.32,146.56 132.35,146.56 132.39,146.57 C 132.52,146.59 132.63,146.6 132.76,146.56 C 132.97,146.49 133.11,146.33 133.13,146.11 C 133.2,145.56 132.66,145.03 132.18,144.91 C 131.96,144.85 131.7,144.87 131.52,145.05 C 131.49,145.08 131.46,145.12 131.44,145.16 C 131.43,145.18 131.42,145.16 131.41,145.14 C 131.4,145.13 131.39,145.11 131.38,145.1 C 131.37,145.06 131.35,145.03 131.33,145.0 C 131.25,144.87 131.18,144.74 131.1,144.61 z M 146.94,167.09 C 146.86,166.86 146.76,166.68 146.58,166.52 C 146.41,166.38 146.18,166.27 145.95,166.35 C 145.72,166.42 145.6,166.64 145.55,166.86 C 145.5,167.09 145.52,167.3 145.59,167.52 C 145.67,167.75 145.77,167.93 145.95,168.09 C 146.12,168.24 146.34,168.34 146.58,168.26 C 146.81,168.19 146.93,167.97 146.98,167.76 C 147.03,167.52 147.01,167.31 146.94,167.09 z M 147.68,169.62 C 147.62,169.39 147.53,169.2 147.36,169.03 C 147.2,168.88 146.98,168.77 146.74,168.83 C 146.51,168.89 146.37,169.1 146.32,169.31 C 146.25,169.55 146.26,169.75 146.32,169.98 C 146.38,170.21 146.48,170.4 146.65,170.57 C 146.81,170.72 147.03,170.84 147.26,170.77 C 147.5,170.71 147.63,170.5 147.69,170.29 C 147.76,170.06 147.75,169.85 147.68,169.62 z M 148.01,173.89 C 147.93,173.75 147.85,173.62 147.77,173.49 C 147.76,173.45 147.74,173.42 147.72,173.39 C 147.71,173.37 147.7,173.35 147.69,173.34 C 147.68,173.32 147.7,173.33 147.71,173.33 C 147.76,173.33 147.81,173.32 147.86,173.3 C 148.11,173.23 148.25,172.98 148.3,172.75 C 148.41,172.27 148.19,171.48 147.63,171.35 C 147.41,171.3 147.21,171.39 147.08,171.56 C 146.99,171.67 146.95,171.79 146.92,171.92 C 146.91,171.94 146.91,171.95 146.91,171.97 C 146.9,172.0 146.89,171.95 146.88,171.94 C 146.86,171.91 146.85,171.88 146.83,171.85 C 146.79,171.78 146.75,171.72 146.72,171.65 C 146.57,171.39 146.42,171.13 146.27,170.88 C 146.19,170.75 146.12,170.62 146.04,170.49 C 145.97,170.36 145.88,170.23 145.83,170.08 C 145.5,169.05 145.13,168.02 144.74,167.0 C 144.64,166.75 144.54,166.49 144.44,166.24 C 144.41,166.17 144.39,166.11 144.36,166.05 C 144.35,166.03 144.35,166.01 144.34,166.0 C 144.34,165.98 144.3,165.95 144.33,165.95 C 144.36,165.95 144.4,165.95 144.43,165.95 C 144.57,165.95 144.7,165.95 144.84,165.95 C 145.38,165.95 145.92,165.95 146.47,165.95 C 146.62,165.95 146.77,165.95 146.92,165.95 C 147.0,165.95 147.07,165.95 147.15,165.95 C 147.19,165.95 147.22,165.95 147.26,165.95 C 147.27,165.95 147.28,165.95 147.29,165.95 C 147.3,165.95 147.31,165.95 147.31,165.96 C 147.32,165.98 147.32,165.99 147.33,166.01 C 147.4,166.26 147.48,166.51 147.55,166.77 C 147.69,167.27 147.82,167.78 147.94,168.29 C 148.2,169.35 148.41,170.42 148.59,171.5 C 148.76,172.57 148.9,173.65 149.0,174.74 C 149.02,175.02 149.05,175.29 149.07,175.57 C 149.07,175.61 149.07,175.64 149.07,175.67 C 149.07,175.68 149.07,175.69 149.07,175.7 C 149.07,175.7 149.08,175.72 149.07,175.71 C 149.07,175.71 149.07,175.7 149.07,175.7 C 149.06,175.68 149.05,175.67 149.04,175.65 C 149.0,175.59 148.96,175.53 148.92,175.47 C 148.88,175.4 148.85,175.34 148.81,175.28 C 148.8,175.26 148.79,175.24 148.78,175.23 C 148.77,175.21 148.78,175.19 148.79,175.17 C 148.79,175.14 148.79,175.1 148.8,175.07 C 148.82,174.62 148.56,173.89 148.01,173.89 z M 150.0,161.71 C 149.76,161.71 149.56,161.75 149.35,161.87 C 149.16,161.99 148.99,162.17 148.99,162.41 C 148.99,162.65 149.16,162.84 149.35,162.95 C 149.56,163.07 149.76,163.12 150.0,163.12 C 150.24,163.12 150.44,163.07 150.65,162.95 C 150.84,162.84 151.01,162.65 151.01,162.41 C 151.01,162.17 150.84,161.99 150.65,161.87 C 150.44,161.75 150.24,161.71 150.0,161.71 z M 136.96,163.42 C 136.73,163.49 136.54,163.58 136.37,163.75 C 136.22,163.91 136.1,164.13 136.17,164.37 C 136.23,164.6 136.44,164.73 136.65,164.79 C 136.88,164.86 137.09,164.85 137.32,164.79 C 137.55,164.73 137.74,164.63 137.91,164.46 C 138.06,164.3 138.17,164.08 138.11,163.85 C 138.05,163.61 137.84,163.48 137.63,163.42 C 137.39,163.35 137.19,163.36 136.96,163.42 z M 139.52,162.81 C 139.29,162.86 139.1,162.94 138.92,163.11 C 138.76,163.26 138.63,163.47 138.68,163.71 C 138.73,163.94 138.94,164.09 139.15,164.16 C 139.37,164.24 139.58,164.24 139.82,164.19 C 140.05,164.14 140.24,164.05 140.42,163.89 C 140.58,163.74 140.7,163.53 140.65,163.29 C 140.6,163.05 140.4,162.91 140.19,162.84 C 139.96,162.76 139.75,162.76 139.52,162.81 z M 142.12,162.33 C 141.88,162.36 141.69,162.44 141.5,162.59 C 141.33,162.73 141.19,162.94 141.23,163.18 C 141.27,163.42 141.46,163.58 141.67,163.66 C 141.89,163.75 142.1,163.76 142.34,163.72 C 142.57,163.68 142.77,163.61 142.95,163.45 C 143.12,163.31 143.26,163.11 143.22,162.87 C 143.18,162.63 142.99,162.47 142.78,162.39 C 142.56,162.3 142.35,162.29 142.12,162.33 z M 144.73,161.98 C 144.5,162.01 144.3,162.07 144.1,162.22 C 143.93,162.35 143.78,162.55 143.81,162.79 C 143.83,163.03 144.02,163.2 144.22,163.29 C 144.44,163.39 144.64,163.41 144.88,163.39 C 145.12,163.36 145.31,163.3 145.51,163.15 C 145.69,163.02 145.83,162.82 145.81,162.58 C 145.78,162.34 145.6,162.17 145.4,162.08 C 145.18,161.98 144.97,161.96 144.73,161.98 z M 147.36,161.78 C 147.13,161.79 146.92,161.84 146.72,161.98 C 146.54,162.1 146.38,162.29 146.39,162.53 C 146.41,162.78 146.58,162.95 146.78,163.05 C 146.99,163.16 147.2,163.2 147.44,163.18 C 147.67,163.17 147.88,163.12 148.08,162.98 C 148.26,162.86 148.42,162.67 148.4,162.43 C 148.39,162.19 148.22,162.01 148.02,161.91 C 147.81,161.8 147.6,161.76 147.36,161.78 z M 133.1,165.28 C 132.85,164.86 132.2,164.93 131.84,165.09 C 131.79,165.12 131.73,165.15 131.68,165.19 C 131.65,165.2 131.63,165.22 131.6,165.24 C 131.58,165.26 131.56,165.28 131.52,165.28 C 131.39,165.28 131.26,165.28 131.13,165.27 C 131.09,165.27 131.06,165.27 131.03,165.27 C 131.01,165.27 130.96,165.28 130.99,165.27 C 131.0,165.26 131.02,165.25 131.03,165.24 C 131.1,165.21 131.16,165.18 131.23,165.15 C 131.36,165.09 131.48,165.03 131.61,164.96 C 132.64,164.48 133.68,164.04 134.74,163.63 C 136.74,162.87 138.77,162.25 140.86,161.79 C 142.95,161.32 145.05,161.02 147.18,160.88 C 148.25,160.8 149.32,160.77 150.39,160.78 C 150.92,160.79 151.45,160.8 151.98,160.83 C 152.25,160.84 152.51,160.86 152.77,160.87 C 152.9,160.88 153.04,160.89 153.17,160.9 C 153.23,160.91 153.3,160.91 153.36,160.92 C 153.4,160.92 153.43,160.92 153.46,160.92 C 153.48,160.93 153.51,160.91 153.5,160.94 C 153.49,160.95 153.48,160.97 153.47,160.98 C 153.32,161.24 153.17,161.5 153.02,161.76 C 153.02,161.77 152.99,161.84 152.96,161.83 C 152.93,161.82 152.9,161.81 152.87,161.81 C 152.81,161.79 152.74,161.78 152.68,161.78 C 152.56,161.77 152.43,161.77 152.31,161.8 C 151.9,161.87 151.44,162.21 151.64,162.67 C 151.74,162.89 151.96,163.03 152.17,163.11 C 152.19,163.11 152.2,163.12 152.22,163.12 C 152.24,163.13 152.22,163.15 152.22,163.16 C 152.2,163.19 152.18,163.22 152.16,163.26 C 152.12,163.32 152.08,163.39 152.05,163.45 C 151.97,163.58 151.9,163.71 151.82,163.84 C 151.8,163.87 151.79,163.9 151.77,163.94 C 151.76,163.95 151.75,163.97 151.73,163.97 C 151.71,163.97 151.69,163.97 151.67,163.96 C 151.59,163.96 151.52,163.96 151.44,163.96 C 151.28,163.95 151.13,163.95 150.97,163.95 C 150.66,163.94 150.35,163.94 150.03,163.94 C 147.9,163.94 145.77,164.05 143.65,164.28 C 142.59,164.39 141.54,164.53 140.48,164.7 C 139.96,164.78 139.43,164.87 138.9,164.97 C 138.64,165.02 138.38,165.07 138.12,165.13 C 137.98,165.15 137.85,165.18 137.72,165.21 C 137.59,165.23 137.47,165.28 137.34,165.28 C 136.74,165.28 136.14,165.28 135.55,165.28 C 135.47,165.28 135.4,165.28 135.32,165.28 C 135.31,165.28 135.29,165.29 135.3,165.28 C 135.31,165.27 135.32,165.27 135.32,165.26 C 135.34,165.25 135.35,165.24 135.36,165.22 C 135.39,165.2 135.41,165.17 135.43,165.15 C 135.52,165.05 135.58,164.95 135.61,164.82 C 135.66,164.6 135.58,164.4 135.41,164.27 C 134.97,163.94 134.24,164.14 133.89,164.5 C 133.73,164.66 133.61,164.9 133.68,165.14 C 133.7,165.18 133.71,165.23 133.74,165.27 C 133.75,165.29 133.72,165.28 133.71,165.28 C 133.69,165.28 133.68,165.28 133.66,165.28 C 133.62,165.28 133.58,165.28 133.54,165.28 C 133.4,165.28 133.25,165.28 133.1,165.28 z M 160.48,162.81 C 160.25,162.76 160.04,162.76 159.81,162.84 C 159.6,162.91 159.4,163.05 159.35,163.29 C 159.3,163.53 159.42,163.74 159.59,163.89 C 159.76,164.05 159.95,164.14 160.19,164.19 C 160.42,164.24 160.63,164.24 160.85,164.16 C 161.06,164.09 161.27,163.94 161.32,163.71 C 161.37,163.47 161.24,163.26 161.08,163.11 C 160.9,162.94 160.71,162.86 160.48,162.81 z M 163.04,163.42 C 162.82,163.36 162.61,163.35 162.37,163.42 C 162.16,163.48 161.95,163.61 161.89,163.85 C 161.83,164.08 161.94,164.3 162.1,164.46 C 162.26,164.63 162.45,164.73 162.68,164.79 C 162.91,164.85 163.12,164.86 163.35,164.79 C 163.56,164.73 163.77,164.6 163.83,164.37 C 163.9,164.13 163.78,163.91 163.63,163.75 C 163.46,163.58 163.27,163.49 163.04,163.42 z M 166.9,165.28 C 166.75,165.28 166.59,165.28 166.44,165.28 C 166.4,165.28 166.36,165.28 166.32,165.28 C 166.3,165.28 166.28,165.28 166.26,165.28 C 166.25,165.28 166.26,165.26 166.27,165.25 C 166.29,165.21 166.31,165.17 166.32,165.12 C 166.39,164.86 166.24,164.62 166.07,164.46 C 165.7,164.12 164.91,163.92 164.52,164.34 C 164.36,164.5 164.34,164.72 164.42,164.92 C 164.47,165.05 164.55,165.15 164.65,165.24 C 164.67,165.25 164.68,165.26 164.69,165.27 C 164.71,165.29 164.67,165.28 164.66,165.28 C 164.62,165.28 164.58,165.28 164.54,165.28 C 164.47,165.28 164.39,165.28 164.32,165.28 C 164.02,165.28 163.72,165.28 163.42,165.28 C 163.28,165.28 163.13,165.28 162.98,165.28 C 162.82,165.28 162.67,165.29 162.52,165.26 C 161.45,165.03 160.38,164.83 159.31,164.67 C 159.04,164.62 158.76,164.58 158.49,164.54 C 158.42,164.53 158.36,164.53 158.29,164.52 C 158.27,164.51 158.25,164.51 158.24,164.51 C 158.22,164.51 158.18,164.52 158.19,164.5 C 158.21,164.47 158.23,164.44 158.24,164.41 C 158.31,164.29 158.38,164.18 158.45,164.06 C 158.72,163.59 158.99,163.12 159.26,162.65 C 159.34,162.52 159.41,162.38 159.49,162.25 C 159.53,162.19 159.56,162.12 159.6,162.06 C 159.62,162.02 159.64,161.99 159.66,161.96 C 159.66,161.95 159.67,161.94 159.67,161.93 C 159.68,161.93 159.68,161.91 159.69,161.92 C 159.71,161.92 159.72,161.92 159.74,161.93 C 160.0,161.99 160.25,162.05 160.51,162.12 C 161.02,162.25 161.52,162.39 162.03,162.54 C 163.07,162.85 164.1,163.19 165.12,163.58 C 166.14,163.97 167.15,164.39 168.14,164.85 C 168.39,164.96 168.64,165.08 168.89,165.2 C 168.92,165.22 168.95,165.24 168.98,165.25 C 168.99,165.25 169.0,165.26 169.01,165.26 C 169.01,165.26 169.02,165.27 169.02,165.27 C 169.01,165.27 169.01,165.27 169.0,165.27 C 168.98,165.27 168.97,165.27 168.95,165.27 C 168.87,165.27 168.8,165.28 168.73,165.28 C 168.65,165.28 168.58,165.28 168.51,165.28 C 168.49,165.28 168.47,165.28 168.45,165.28 C 168.43,165.28 168.42,165.26 168.41,165.25 C 168.38,165.22 168.35,165.2 168.32,165.18 C 167.95,164.94 167.18,164.8 166.9,165.28 z M 157.35,157.46 C 157.23,157.67 157.17,157.87 157.17,158.11 C 157.17,158.33 157.25,158.57 157.46,158.69 C 157.67,158.81 157.91,158.76 158.1,158.65 C 158.31,158.53 158.45,158.37 158.57,158.17 C 158.69,157.96 158.75,157.76 158.75,157.52 C 158.75,157.3 158.67,157.07 158.46,156.94 C 158.25,156.82 158.01,156.88 157.82,156.98 C 157.61,157.1 157.47,157.26 157.35,157.46 z M 152.32,169.62 C 152.25,169.85 152.24,170.06 152.31,170.29 C 152.37,170.5 152.5,170.71 152.74,170.77 C 152.97,170.84 153.19,170.72 153.35,170.57 C 153.52,170.4 153.62,170.21 153.68,169.98 C 153.74,169.75 153.75,169.55 153.68,169.31 C 153.63,169.1 153.49,168.89 153.26,168.83 C 153.02,168.77 152.8,168.88 152.64,169.03 C 152.47,169.2 152.38,169.39 152.31,169.62 z M 153.07,167.09 C 152.99,167.31 152.97,167.52 153.02,167.76 C 153.07,167.97 153.19,168.19 153.42,168.26 C 153.66,168.34 153.88,168.24 154.05,168.09 C 154.23,167.93 154.33,167.75 154.41,167.52 C 154.48,167.3 154.5,167.09 154.45,166.86 C 154.4,166.64 154.28,166.42 154.05,166.35 C 153.82,166.27 153.59,166.38 153.42,166.52 C 153.24,166.68 153.14,166.86 153.07,167.09 z M 153.95,164.6 C 153.86,164.82 153.83,165.03 153.87,165.27 C 153.91,165.48 154.02,165.71 154.24,165.79 C 154.47,165.88 154.7,165.79 154.87,165.65 C 155.06,165.5 155.18,165.33 155.26,165.11 C 155.35,164.89 155.38,164.68 155.34,164.44 C 155.3,164.22 155.19,164.0 154.96,163.91 C 154.74,163.83 154.51,163.92 154.33,164.06 C 154.15,164.2 154.03,164.38 153.95,164.6 z M 154.96,162.16 C 154.86,162.38 154.82,162.59 154.84,162.82 C 154.87,163.04 154.97,163.27 155.19,163.37 C 155.41,163.47 155.65,163.39 155.83,163.26 C 156.02,163.12 156.15,162.95 156.24,162.74 C 156.34,162.52 156.38,162.32 156.36,162.08 C 156.33,161.86 156.23,161.63 156.01,161.53 C 155.79,161.43 155.55,161.51 155.37,161.64 C 155.18,161.78 155.05,161.95 154.96,162.16 z M 156.09,159.78 C 155.98,159.99 155.93,160.2 155.95,160.44 C 155.96,160.66 156.05,160.89 156.26,161.0 C 156.48,161.11 156.72,161.04 156.91,160.93 C 157.11,160.8 157.24,160.63 157.35,160.42 C 157.46,160.21 157.51,160.01 157.49,159.77 C 157.48,159.55 157.39,159.32 157.18,159.21 C 156.96,159.1 156.72,159.16 156.53,159.28 C 156.33,159.41 156.2,159.57 156.09,159.78 z M 151.99,173.89 C 151.51,173.89 151.24,174.49 151.21,174.88 C 151.2,174.94 151.2,175.01 151.2,175.07 C 151.2,175.1 151.21,175.13 151.21,175.16 C 151.21,175.19 151.22,175.22 151.2,175.25 C 151.14,175.37 151.07,175.48 151.0,175.59 C 150.99,175.62 150.97,175.65 150.95,175.67 C 150.94,175.69 150.92,175.74 150.93,175.71 C 150.93,175.69 150.93,175.67 150.93,175.66 C 150.93,175.59 150.94,175.51 150.94,175.44 C 150.96,175.3 150.97,175.16 150.98,175.02 C 151.07,173.88 151.21,172.76 151.39,171.64 C 151.73,169.53 152.21,167.46 152.85,165.42 C 153.49,163.38 154.28,161.41 155.22,159.49 C 155.69,158.53 156.2,157.59 156.75,156.66 C 157.02,156.21 157.29,155.75 157.58,155.31 C 157.72,155.09 157.87,154.87 158.01,154.65 C 158.09,154.54 158.16,154.43 158.24,154.32 C 158.27,154.26 158.31,154.21 158.35,154.16 C 158.37,154.13 158.38,154.1 158.4,154.08 C 158.41,154.06 158.42,154.02 158.43,154.05 C 158.44,154.06 158.45,154.08 158.46,154.09 C 158.61,154.35 158.76,154.61 158.91,154.87 C 158.92,154.89 158.96,154.94 158.94,154.96 C 158.91,154.98 158.89,155.01 158.87,155.03 C 158.83,155.08 158.79,155.13 158.75,155.18 C 158.68,155.28 158.62,155.39 158.58,155.51 C 158.45,155.9 158.5,156.47 159.0,156.52 C 159.24,156.55 159.48,156.43 159.65,156.28 C 159.66,156.27 159.67,156.26 159.69,156.25 C 159.7,156.23 159.71,156.26 159.72,156.27 C 159.73,156.3 159.75,156.34 159.77,156.37 C 159.81,156.43 159.85,156.5 159.88,156.56 C 159.96,156.69 160.03,156.82 160.11,156.95 C 160.13,156.98 160.15,157.01 160.16,157.05 C 160.17,157.06 160.18,157.08 160.17,157.1 C 160.16,157.11 160.15,157.13 160.14,157.15 C 160.1,157.21 160.06,157.28 160.02,157.34 C 159.94,157.48 159.86,157.61 159.78,157.74 C 159.62,158.01 159.46,158.28 159.3,158.55 C 158.23,160.4 157.27,162.3 156.4,164.25 C 155.97,165.22 155.56,166.21 155.18,167.2 C 154.99,167.7 154.81,168.2 154.63,168.71 C 154.54,168.96 154.46,169.21 154.37,169.47 C 154.33,169.59 154.29,169.72 154.24,169.85 C 154.2,169.97 154.18,170.1 154.11,170.22 C 153.81,170.73 153.52,171.25 153.22,171.77 C 153.18,171.83 153.14,171.9 153.11,171.96 C 153.1,171.97 153.1,171.99 153.09,171.98 C 153.09,171.97 153.09,171.96 153.09,171.95 C 153.09,171.93 153.08,171.92 153.08,171.9 C 153.07,171.86 153.06,171.83 153.05,171.8 C 153.0,171.67 152.95,171.57 152.85,171.48 C 152.69,171.33 152.48,171.3 152.28,171.38 C 151.77,171.59 151.58,172.33 151.71,172.81 C 151.78,173.03 151.92,173.25 152.16,173.31 C 152.21,173.32 152.26,173.33 152.3,173.33 C 152.32,173.32 152.31,173.35 152.3,173.36 C 152.29,173.37 152.28,173.39 152.27,173.4 C 152.25,173.44 152.24,173.47 152.22,173.5 C 152.14,173.63 152.07,173.76 151.99,173.89 z M 163.54,148.94 C 163.38,149.12 163.28,149.3 163.23,149.53 C 163.19,149.75 163.21,150.0 163.39,150.16 C 163.57,150.32 163.82,150.32 164.03,150.25 C 164.26,150.18 164.43,150.06 164.59,149.88 C 164.75,149.71 164.85,149.53 164.9,149.29 C 164.95,149.07 164.92,148.83 164.74,148.66 C 164.56,148.5 164.31,148.5 164.1,148.57 C 163.87,148.64 163.7,148.76 163.54,148.94 z M 165.36,147.03 C 165.19,147.19 165.08,147.37 165.02,147.6 C 164.96,147.82 164.98,148.06 165.15,148.24 C 165.32,148.41 165.57,148.42 165.78,148.36 C 166.01,148.3 166.19,148.19 166.36,148.02 C 166.52,147.86 166.64,147.68 166.7,147.45 C 166.75,147.23 166.74,146.98 166.57,146.81 C 166.4,146.64 166.15,146.63 165.94,146.68 C 165.7,146.74 165.53,146.86 165.36,147.03 z M 168.9,144.61 C 168.82,144.75 168.74,144.88 168.66,145.01 C 168.65,145.05 168.63,145.08 168.61,145.11 C 168.6,145.13 168.59,145.15 168.58,145.16 C 168.57,145.18 168.56,145.16 168.56,145.15 C 168.53,145.1 168.5,145.07 168.46,145.03 C 168.27,144.85 167.99,144.86 167.76,144.93 C 167.29,145.07 166.72,145.66 166.89,146.21 C 166.95,146.42 167.13,146.55 167.34,146.58 C 167.48,146.6 167.6,146.58 167.74,146.54 C 167.75,146.53 167.77,146.53 167.79,146.52 C 167.81,146.51 167.78,146.55 167.77,146.56 C 167.75,146.59 167.74,146.62 167.72,146.65 C 167.68,146.72 167.64,146.78 167.6,146.85 C 167.46,147.11 167.31,147.37 167.16,147.62 C 167.08,147.75 167.01,147.88 166.93,148.01 C 166.86,148.14 166.79,148.28 166.69,148.4 C 165.96,149.21 165.25,150.04 164.57,150.88 C 164.39,151.1 164.22,151.31 164.05,151.53 C 164.01,151.58 163.97,151.64 163.93,151.69 C 163.92,151.7 163.91,151.72 163.89,151.73 C 163.89,151.74 163.88,151.79 163.86,151.76 C 163.85,151.74 163.83,151.71 163.81,151.68 C 163.75,151.56 163.68,151.44 163.61,151.32 C 163.34,150.85 163.07,150.38 162.8,149.91 C 162.72,149.78 162.64,149.65 162.57,149.52 C 162.53,149.45 162.49,149.39 162.45,149.32 C 162.43,149.29 162.42,149.26 162.4,149.22 C 162.39,149.22 162.39,149.21 162.38,149.2 C 162.38,149.19 162.37,149.19 162.38,149.18 C 162.39,149.16 162.4,149.15 162.41,149.14 C 162.59,148.95 162.77,148.76 162.96,148.57 C 163.33,148.19 163.7,147.82 164.08,147.46 C 164.87,146.71 165.69,145.99 166.53,145.3 C 167.38,144.61 168.25,143.96 169.14,143.33 C 169.37,143.17 169.59,143.01 169.82,142.85 C 169.85,142.83 169.88,142.82 169.91,142.8 C 169.92,142.79 169.92,142.79 169.93,142.78 C 169.94,142.78 169.94,142.77 169.94,142.78 C 169.94,142.78 169.94,142.78 169.94,142.79 C 169.93,142.8 169.92,142.82 169.91,142.84 C 169.88,142.9 169.84,142.97 169.81,143.03 C 169.77,143.1 169.73,143.16 169.7,143.22 C 169.69,143.24 169.68,143.26 169.67,143.27 C 169.66,143.29 169.64,143.29 169.62,143.29 C 169.59,143.31 169.56,143.32 169.52,143.34 C 169.13,143.54 168.62,144.13 168.9,144.61 z M 157.35,148.98 C 157.47,149.18 157.61,149.34 157.82,149.45 C 158.01,149.56 158.25,149.62 158.46,149.5 C 158.67,149.37 158.75,149.14 158.75,148.92 C 158.75,148.68 158.69,148.48 158.57,148.27 C 158.45,148.07 158.31,147.91 158.1,147.79 C 157.91,147.68 157.67,147.63 157.46,147.75 C 157.25,147.87 157.17,148.11 157.17,148.33 C 157.17,148.57 157.23,148.77 157.35,148.98 z M 165.36,159.41 C 165.53,159.58 165.7,159.7 165.94,159.76 C 166.15,159.81 166.4,159.8 166.57,159.63 C 166.74,159.46 166.75,159.21 166.7,158.99 C 166.64,158.76 166.52,158.58 166.36,158.42 C 166.19,158.25 166.01,158.14 165.78,158.08 C 165.57,158.02 165.32,158.03 165.15,158.2 C 164.98,158.38 164.96,158.62 165.02,158.84 C 165.08,159.07 165.19,159.25 165.36,159.41 z M 163.54,157.5 C 163.7,157.68 163.87,157.8 164.1,157.87 C 164.31,157.94 164.56,157.94 164.74,157.78 C 164.92,157.61 164.95,157.37 164.9,157.15 C 164.85,156.91 164.75,156.73 164.59,156.56 C 164.43,156.38 164.26,156.26 164.03,156.19 C 163.82,156.12 163.57,156.12 163.39,156.28 C 163.21,156.44 163.19,156.69 163.23,156.91 C 163.28,157.14 163.38,157.32 163.54,157.5 z M 161.83,155.49 C 161.98,155.68 162.14,155.81 162.37,155.89 C 162.57,155.97 162.82,155.98 163.01,155.83 C 163.2,155.68 163.24,155.43 163.21,155.21 C 163.17,154.98 163.08,154.79 162.93,154.61 C 162.78,154.42 162.61,154.29 162.39,154.21 C 162.18,154.13 161.93,154.11 161.74,154.27 C 161.56,154.42 161.52,154.67 161.55,154.88 C 161.59,155.12 161.68,155.31 161.83,155.49 z M 160.22,153.4 C 160.36,153.59 160.52,153.73 160.74,153.83 C 160.94,153.92 161.19,153.94 161.39,153.8 C 161.58,153.66 161.63,153.41 161.61,153.19 C 161.59,152.95 161.5,152.76 161.36,152.57 C 161.23,152.38 161.07,152.24 160.85,152.14 C 160.65,152.06 160.4,152.03 160.2,152.17 C 160.01,152.31 159.96,152.56 159.98,152.78 C 160.0,153.02 160.08,153.21 160.22,153.4 z M 158.73,151.23 C 158.86,151.42 159.01,151.57 159.22,151.68 C 159.42,151.78 159.67,151.82 159.87,151.69 C 160.07,151.55 160.14,151.31 160.13,151.09 C 160.12,150.85 160.04,150.66 159.91,150.46 C 159.78,150.26 159.63,150.11 159.42,150.0 C 159.22,149.91 158.98,149.87 158.77,150.0 C 158.57,150.13 158.51,150.37 158.52,150.59 C 158.53,150.83 158.6,151.03 158.73,151.23 z M 168.9,161.83 C 168.65,162.25 169.04,162.78 169.36,163.01 C 169.41,163.04 169.47,163.07 169.52,163.1 C 169.55,163.12 169.58,163.13 169.61,163.14 C 169.64,163.15 169.67,163.16 169.68,163.19 C 169.75,163.31 169.81,163.42 169.88,163.54 C 169.89,163.57 169.91,163.59 169.92,163.62 C 169.93,163.64 169.96,163.68 169.94,163.66 C 169.93,163.65 169.91,163.64 169.9,163.63 C 169.84,163.59 169.78,163.55 169.72,163.51 C 169.6,163.43 169.48,163.35 169.37,163.27 C 168.43,162.62 167.53,161.94 166.65,161.23 C 164.99,159.88 163.44,158.43 161.99,156.85 C 160.55,155.27 159.23,153.61 158.04,151.83 C 157.44,150.94 156.88,150.03 156.36,149.1 C 156.09,148.64 155.84,148.17 155.6,147.7 C 155.48,147.46 155.36,147.23 155.24,146.99 C 155.18,146.87 155.13,146.76 155.07,146.64 C 155.04,146.58 155.01,146.52 154.99,146.46 C 154.97,146.43 154.96,146.4 154.94,146.37 C 154.94,146.36 154.91,146.33 154.93,146.33 C 154.95,146.33 154.97,146.33 154.99,146.33 C 155.29,146.33 155.59,146.33 155.88,146.33 C 155.9,146.33 155.97,146.32 155.98,146.35 C 155.99,146.38 155.99,146.41 156.0,146.44 C 156.02,146.5 156.05,146.56 156.07,146.62 C 156.13,146.73 156.19,146.84 156.27,146.93 C 156.54,147.25 157.07,147.48 157.36,147.07 C 157.5,146.88 157.52,146.62 157.48,146.39 C 157.47,146.38 157.47,146.36 157.47,146.35 C 157.46,146.32 157.49,146.33 157.5,146.33 C 157.54,146.33 157.58,146.33 157.61,146.33 C 157.69,146.33 157.76,146.33 157.84,146.33 C 157.99,146.33 158.14,146.33 158.28,146.33 C 158.32,146.33 158.36,146.33 158.4,146.33 C 158.42,146.33 158.43,146.33 158.44,146.35 C 158.45,146.37 158.46,146.38 158.47,146.4 C 158.51,146.47 158.54,146.54 158.58,146.6 C 158.66,146.74 158.73,146.88 158.81,147.01 C 158.96,147.29 159.11,147.56 159.27,147.83 C 160.34,149.68 161.49,151.46 162.75,153.19 C 163.38,154.05 164.03,154.89 164.7,155.72 C 165.04,156.14 165.38,156.55 165.73,156.95 C 165.9,157.15 166.08,157.36 166.25,157.56 C 166.34,157.66 166.43,157.76 166.52,157.86 C 166.61,157.96 166.71,158.04 166.78,158.16 C 167.08,158.67 167.37,159.19 167.67,159.71 C 167.71,159.77 167.75,159.84 167.78,159.9 C 167.79,159.91 167.8,159.92 167.79,159.92 C 167.78,159.92 167.77,159.91 167.77,159.91 C 167.75,159.9 167.73,159.9 167.72,159.89 C 167.68,159.88 167.65,159.88 167.61,159.87 C 167.48,159.84 167.37,159.84 167.24,159.88 C 167.03,159.95 166.89,160.11 166.87,160.33 C 166.8,160.88 167.34,161.41 167.82,161.53 C 168.04,161.59 168.3,161.57 168.48,161.39 C 168.51,161.36 168.54,161.32 168.56,161.28 C 168.57,161.26 168.58,161.28 168.59,161.29 C 168.6,161.31 168.61,161.33 168.62,161.34 C 168.64,161.38 168.65,161.41 168.67,161.44 C 168.75,161.57 168.82,161.7 168.9,161.83 z M 153.07,139.35 C 153.14,139.58 153.24,139.76 153.42,139.92 C 153.59,140.06 153.82,140.17 154.05,140.09 C 154.28,140.02 154.4,139.8 154.45,139.58 C 154.5,139.35 154.48,139.14 154.41,138.92 C 154.33,138.69 154.23,138.51 154.05,138.35 C 153.88,138.2 153.66,138.1 153.42,138.18 C 153.19,138.25 153.07,138.47 153.02,138.68 C 152.97,138.92 152.99,139.13 153.07,139.35 z M 152.32,136.82 C 152.38,137.05 152.47,137.24 152.64,137.4 C 152.8,137.56 153.02,137.67 153.26,137.61 C 153.49,137.55 153.63,137.34 153.69,137.13 C 153.75,136.89 153.74,136.69 153.68,136.46 C 153.62,136.23 153.52,136.04 153.35,135.87 C 153.19,135.72 152.97,135.6 152.74,135.67 C 152.5,135.73 152.37,135.94 152.31,136.15 C 152.24,136.38 152.26,136.59 152.32,136.82 z M 151.99,132.55 C 152.07,132.69 152.15,132.82 152.23,132.95 C 152.25,132.99 152.26,133.02 152.28,133.05 C 152.29,133.07 152.3,133.09 152.31,133.1 C 152.32,133.12 152.3,133.11 152.29,133.11 C 152.24,133.11 152.19,133.12 152.14,133.13 C 151.89,133.21 151.75,133.46 151.7,133.69 C 151.59,134.17 151.81,134.96 152.37,135.09 C 152.59,135.14 152.79,135.05 152.92,134.88 C 153.01,134.77 153.05,134.65 153.08,134.52 C 153.09,134.5 153.09,134.49 153.09,134.47 C 153.1,134.44 153.11,134.49 153.12,134.5 C 153.14,134.53 153.15,134.56 153.17,134.59 C 153.21,134.66 153.25,134.72 153.29,134.79 C 153.43,135.05 153.58,135.31 153.73,135.56 C 153.81,135.69 153.88,135.82 153.96,135.95 C 154.03,136.08 154.12,136.21 154.17,136.36 C 154.5,137.39 154.87,138.42 155.26,139.44 C 155.36,139.69 155.46,139.95 155.56,140.2 C 155.59,140.27 155.61,140.33 155.64,140.39 C 155.65,140.41 155.65,140.43 155.66,140.44 C 155.66,140.46 155.7,140.49 155.67,140.49 C 155.64,140.49 155.6,140.49 155.57,140.49 C 155.43,140.49 155.3,140.49 155.16,140.49 C 154.62,140.49 154.08,140.49 153.53,140.49 C 153.38,140.49 153.23,140.49 153.08,140.49 C 153.0,140.49 152.93,140.49 152.85,140.49 C 152.81,140.49 152.78,140.49 152.74,140.49 C 152.73,140.49 152.72,140.49 152.71,140.49 C 152.7,140.49 152.69,140.49 152.69,140.48 C 152.68,140.46 152.68,140.45 152.67,140.43 C 152.6,140.18 152.52,139.93 152.45,139.67 C 152.31,139.17 152.18,138.66 152.06,138.15 C 151.8,137.08 151.59,136.02 151.41,134.94 C 151.24,133.87 151.1,132.79 151.0,131.7 C 150.98,131.42 150.96,131.15 150.94,130.87 C 150.93,130.83 150.93,130.8 150.93,130.77 C 150.93,130.76 150.93,130.75 150.93,130.74 C 150.93,130.74 150.92,130.72 150.93,130.73 C 150.93,130.73 150.93,130.74 150.93,130.74 C 150.94,130.76 150.95,130.77 150.96,130.79 C 151.0,130.85 151.04,130.91 151.08,130.97 C 151.12,131.04 151.16,131.1 151.19,131.16 C 151.2,131.18 151.21,131.2 151.22,131.21 C 151.23,131.23 151.22,131.25 151.21,131.26 C 151.21,131.3 151.21,131.34 151.2,131.37 C 151.18,131.82 151.44,132.55 151.99,132.55 z"
		 />
		 		
		<!-- Prism Reference -->
		<cam mingh:cam="--verb EditSelectAll --verb EditSelectAll --verb ZoomSelection --verb FileSave"/> 
	 </g>

</svg>
