<svg
   xmlns:xlink="http://www.w3.org/1999/xlink"
   xmlns:svg="http://www.w3.org/2000/svg"
   xmlns="http://www.w3.org/2000/svg"
   xmlns:mingh="http://www.minghworld.com"
   width="300px"
   height="300px" >
	
	 <g>
		
		<!-- Paths -->
		<path style="fill:none;stroke:#000;stroke-width:0.25px;"
		 d="M 151.11,132.85 C 151.11,131.77 150.23,130.9 149.16,130.9 C 148.08,130.9 147.21,131.77 147.21,132.85 C 147.21,133.92 148.08,134.79 149.16,134.79 C 150.23,134.79 151.11,133.92 151.11,132.85 z M 137.12,161.0 C 137.4,159.89 138.0,159.09 138.66,158.3 C 139.37,157.44 140.13,156.59 141.01,155.91 C 142.06,155.09 143.27,154.51 144.56,154.06 C 145.37,153.77 146.2,153.54 146.99,153.48 C 147.63,153.43 148.24,153.49 149.0,153.67 C 149.22,153.72 149.46,153.78 149.54,153.9 C 149.69,154.11 149.38,154.48 149.12,154.83 C 148.48,155.67 148.15,156.3 147.73,156.91 C 146.93,158.07 145.81,159.18 145.03,160.81 C 144.77,161.34 144.55,161.94 144.8,162.35 C 145.01,162.72 145.6,162.95 146.07,162.89 C 146.69,162.82 147.09,162.25 147.5,161.73 C 148.39,160.6 149.33,159.69 150.0,158.61 C 150.55,157.74 150.91,156.76 151.47,155.75 C 151.6,155.53 151.73,155.3 151.9,155.17 C 152.49,154.72 153.51,155.6 154.17,156.41 C 154.98,157.4 155.27,158.28 155.52,159.26 C 155.78,160.25 155.99,161.34 156.68,162.2 C 157.24,162.89 158.11,163.43 159.0,163.28 C 159.69,163.16 160.4,162.62 160.58,162.04 C 160.86,161.15 159.86,160.19 159.38,159.15 C 158.95,158.22 158.94,157.22 158.34,156.32 C 157.63,155.24 156.07,154.31 155.2,153.66 C 154.81,153.36 154.55,153.12 154.5,152.89 C 154.47,152.73 154.54,152.57 154.62,152.35 C 154.7,152.11 154.8,151.8 154.94,151.47 C 155.27,150.7 155.79,149.85 156.24,149.11 C 156.62,148.49 156.94,147.95 157.34,147.07 C 157.58,146.57 157.84,145.95 157.93,146.24 C 157.96,146.35 157.97,146.6 158.0,146.8 C 158.04,147.08 158.13,147.25 158.29,147.39 C 158.48,147.56 158.78,147.69 159.09,147.81 C 159.61,148.0 160.16,148.16 160.5,147.98 C 160.97,147.74 161.07,146.89 161.13,146.18 C 161.21,145.29 161.23,144.62 161.21,144.05 C 161.18,143.46 161.1,142.97 160.99,142.33 C 160.91,141.91 160.82,141.42 160.71,140.88 C 160.64,140.54 160.57,140.17 160.48,139.76 C 160.34,139.12 160.16,138.37 159.85,138.24 C 159.68,138.17 159.47,138.28 159.27,138.41 C 158.39,138.99 157.59,140.06 156.74,141.07 C 155.46,142.58 154.04,143.92 152.07,144.92 C 151.23,145.34 150.29,145.71 150.08,146.52 C 149.97,146.98 150.08,147.57 150.42,147.92 C 150.82,148.32 151.53,148.36 152.07,148.25 C 152.63,148.14 153.01,147.86 153.55,147.37 C 154.13,146.85 154.89,146.09 154.94,146.18 C 154.99,146.27 154.52,146.98 154.14,147.53 C 153.66,148.24 153.33,148.68 152.98,149.18 C 152.67,149.62 152.34,150.11 152.07,150.71 C 151.97,150.94 151.88,151.19 151.71,151.3 C 151.48,151.46 151.09,151.35 150.73,151.25 C 149.62,150.93 148.74,150.69 147.78,150.55 C 146.21,150.33 144.44,150.42 142.79,150.89 C 140.49,151.54 138.46,152.92 136.9,154.69 C 135.96,155.76 135.19,156.98 134.63,158.28 C 134.33,158.96 134.09,159.66 134.08,160.43 C 134.08,160.66 134.1,160.9 134.19,161.1 C 134.4,161.58 134.99,161.79 135.63,161.93 C 136.07,162.02 136.53,162.09 136.77,161.87 C 136.97,161.7 137.03,161.34 137.12,161.0 z M 157.79,131.93 C 162.09,135.29 165.47,139.69 167.63,144.71 C 168.74,147.31 169.49,149.94 169.91,152.74 C 170.08,153.9 170.25,155.54 170.24,156.72 C 170.24,158.05 170.05,159.32 169.67,160.59 C 168.88,163.28 167.3,165.67 165.14,167.45 C 164.08,168.32 162.94,169.01 161.68,169.54 C 160.37,170.09 159.32,170.33 157.93,170.56 C 152.55,171.47 147.03,171.12 141.81,169.52 C 140.51,169.13 139.24,168.68 138.0,168.12 C 136.78,167.57 135.69,166.88 134.68,166.01 C 132.56,164.21 131.02,161.81 130.27,159.13 C 129.91,157.83 129.74,156.54 129.76,155.19 C 129.77,154.02 129.99,152.35 130.18,151.2 C 130.65,148.44 131.42,145.84 132.52,143.27 C 133.63,140.68 135.01,138.32 136.7,136.07 C 137.41,135.13 138.48,133.83 139.32,132.99 C 140.26,132.06 141.28,131.3 142.45,130.66 C 147.36,127.98 153.38,128.47 157.79,131.93 z"
		 />

		<!-- Prism Reference -->
		<cam mingh:cam="--verb EditSelectAll --verb EditSelectAll --verb ZoomSelection --verb FileSave"/> 
	 </g>

</svg>
