<svg
   xmlns:xlink="http://www.w3.org/1999/xlink"
   xmlns:svg="http://www.w3.org/2000/svg"
   xmlns="http://www.w3.org/2000/svg"
   xmlns:mingh="http://www.minghworld.com"
   width="300px"
   height="300px" >
	
	 <g>
		<!-- Paths -->
		<path style="fill:none;stroke:#000;stroke-width:0.25px;"
		 d="M 134.92,149.5 C 135.09,149.32 135.24,149.13 135.4,148.95 C 135.7,148.65 136.04,148.42 136.45,148.2 C 137.01,147.89 137.68,147.59 138.18,147.75 C 138.79,147.96 139.13,148.9 139.22,149.72 C 139.34,150.89 138.98,151.83 138.85,152.85 C 138.71,153.95 138.85,155.14 139.06,156.23 C 139.2,156.98 139.37,157.68 139.18,158.56 C 139.07,159.09 138.83,159.69 139.02,159.95 C 139.21,160.21 139.83,160.15 140.39,160.1 C 141.04,160.05 141.63,160.03 141.94,159.75 C 142.48,159.28 142.2,158.05 142.11,157.01 C 141.99,155.78 142.13,154.8 142.32,153.79 C 142.52,152.75 142.79,151.68 143.02,150.57 C 143.16,149.88 143.29,149.17 143.9,148.73 C 144.25,148.47 144.76,148.3 145.04,148.4 C 145.56,148.59 145.25,149.72 145.1,150.62 C 144.92,151.73 144.98,152.49 145.07,153.33 C 145.16,154.17 145.28,155.07 145.19,156.04 C 145.12,156.79 144.92,157.57 145.25,158.12 C 145.47,158.49 145.93,158.76 146.43,158.86 C 147.02,158.98 147.67,158.88 148.04,158.56 C 148.72,157.97 148.44,156.65 148.28,155.54 C 148.12,154.42 148.07,153.5 148.12,152.49 C 148.16,151.47 148.29,150.36 148.69,149.48 C 148.91,148.98 149.23,148.56 149.63,148.03 C 149.96,147.58 150.35,147.06 150.71,147.08 C 151.1,147.1 151.46,147.75 151.62,148.34 C 151.98,149.61 151.47,150.61 151.29,151.67 C 151.09,152.87 151.31,154.14 151.36,155.44 C 151.41,156.76 151.29,158.11 151.88,159.21 C 152.32,160.05 153.17,160.75 154.12,161.01 C 155.17,161.31 156.33,161.07 157.27,160.56 C 158.41,159.93 159.21,158.87 159.94,157.72 C 160.58,156.72 161.16,155.64 161.75,154.84 C 162.16,154.29 162.57,153.86 163.02,152.86 C 163.26,152.32 163.51,151.61 163.59,151.73 C 163.64,151.81 163.62,152.17 163.65,152.47 C 163.69,152.86 163.78,153.14 163.97,153.36 C 164.19,153.63 164.56,153.81 164.98,153.91 C 165.45,154.02 165.98,154.03 166.24,153.79 C 166.54,153.51 166.42,152.85 166.31,152.29 C 166.17,151.56 166.02,150.98 165.94,150.35 C 165.85,149.63 165.86,148.83 165.76,148.1 C 165.67,147.4 165.49,146.76 165.27,146.02 C 165.1,145.46 164.91,144.84 164.47,144.62 C 164.12,144.45 163.62,144.52 163.21,144.69 C 162.73,144.9 162.38,145.24 162.1,145.64 C 161.76,146.13 161.55,146.71 161.16,147.16 C 160.72,147.67 160.07,148.01 159.48,148.31 C 159.03,148.53 158.62,148.73 158.12,149.07 C 157.68,149.37 157.17,149.77 157.21,150.12 C 157.25,150.42 157.69,150.68 158.08,150.92 C 158.5,151.18 158.87,151.41 159.25,151.43 C 159.56,151.45 159.88,151.32 160.27,151.15 C 160.67,150.98 161.15,150.78 161.3,150.82 C 161.56,150.91 160.81,151.75 160.31,152.43 C 159.74,153.19 159.5,153.72 159.18,154.24 C 158.71,155.02 158.06,155.76 157.24,156.79 C 156.37,157.86 155.31,159.24 154.74,159.03 C 154.21,158.83 154.12,157.18 154.11,155.89 C 154.1,154.58 154.17,153.65 154.35,152.62 C 154.52,151.59 154.81,150.46 154.8,149.36 C 154.79,148.28 154.5,147.22 153.93,146.25 C 153.42,145.38 152.69,144.58 151.78,144.32 C 150.83,144.06 149.69,144.38 148.84,144.83 C 148.19,145.18 147.71,145.6 147.31,146.5 C 147.06,147.05 146.84,147.78 146.74,147.76 C 146.63,147.74 146.66,146.9 146.47,146.33 C 146.15,145.37 145.21,145.16 144.32,145.16 C 143.36,145.15 142.45,145.39 141.98,146.35 C 141.69,146.95 141.58,147.85 141.44,147.9 C 141.28,147.97 141.08,146.86 140.81,146.06 C 140.5,145.13 140.09,144.61 139.45,144.25 C 138.79,143.88 137.87,143.67 137.14,143.87 C 136.09,144.15 135.42,145.24 134.7,146.15 C 134.09,146.91 133.45,147.55 133.3,148.59 C 133.24,149.07 133.27,149.63 133.61,149.84 C 133.82,149.97 134.14,149.97 134.39,149.87 C 134.6,149.8 134.77,149.66 134.92,149.5 z M 151.11,132.85 C 151.11,131.77 150.23,130.9 149.16,130.9 C 148.08,130.9 147.21,131.77 147.21,132.85 C 147.21,133.92 148.08,134.79 149.16,134.79 C 150.23,134.79 151.11,133.92 151.11,132.85 z M 157.79,131.93 C 162.09,135.29 165.47,139.69 167.63,144.71 C 168.74,147.31 169.49,149.94 169.91,152.74 C 170.08,153.9 170.25,155.54 170.24,156.72 C 170.24,158.05 170.05,159.32 169.67,160.59 C 168.88,163.28 167.3,165.67 165.14,167.45 C 164.08,168.32 162.94,169.01 161.68,169.54 C 160.37,170.09 159.32,170.33 157.93,170.56 C 152.55,171.47 147.03,171.12 141.81,169.52 C 140.51,169.13 139.24,168.68 138.0,168.12 C 136.78,167.57 135.69,166.88 134.68,166.01 C 132.56,164.21 131.02,161.81 130.27,159.13 C 129.91,157.83 129.74,156.54 129.76,155.19 C 129.77,154.02 129.99,152.35 130.18,151.2 C 130.65,148.44 131.42,145.84 132.52,143.27 C 133.63,140.68 135.01,138.32 136.7,136.07 C 137.41,135.13 138.48,133.83 139.32,132.99 C 140.26,132.06 141.28,131.3 142.45,130.66 C 147.36,127.98 153.38,128.47 157.79,131.93 z"
		 />
		 
		<!-- Prism Reference -->
		<cam mingh:cam="--verb EditSelectAll --verb ZoomSelection --verb FileSave "/> 
	 </g>

</svg>
