<svg
   xmlns:xlink="http://www.w3.org/1999/xlink"
   xmlns:svg="http://www.w3.org/2000/svg"
   xmlns="http://www.w3.org/2000/svg"
   xmlns:mingh="http://www.minghworld.com"
   width="300px"
   height="300px" >
	
	 <g>
		
		<!-- Paths -->
		<path transform="matrix(-1 0 0 1 300 0)" style="fill:#ff0;stroke:none;"
		 d="M 151.11,132.85 C 151.11,131.77 150.23,130.9 149.16,130.9 C 148.08,130.9 147.21,131.77 147.21,132.85 C 147.21,133.92 148.08,134.79 149.16,134.79 C 150.23,134.79 151.11,133.92 151.11,132.85 z M 133.36,150.1 C 133.18,150.49 132.99,150.9 133.07,151.25 C 133.17,151.72 133.74,152.08 134.3,152.24 C 134.73,152.36 135.17,152.36 135.5,152.2 C 136.03,151.94 136.31,151.25 136.69,150.71 C 137.62,149.44 139.16,149.05 140.65,148.45 C 141.82,147.97 142.97,147.36 144.11,147.42 C 145.01,147.47 145.92,147.95 146.82,148.33 C 148.3,148.95 149.79,149.31 151.23,149.85 C 152.39,150.28 153.52,150.82 154.73,151.21 C 156.22,151.69 157.83,151.93 159.34,151.54 C 160.55,151.23 161.7,150.5 162.47,149.56 C 162.96,148.97 163.31,148.29 163.83,147.67 C 164.36,147.05 165.06,146.49 165.07,145.69 C 165.07,145.19 164.8,144.59 164.41,144.37 C 163.84,144.06 163.02,144.57 162.39,145.11 C 161.43,145.95 160.93,146.87 160.08,147.46 C 159.13,148.13 157.75,148.37 156.46,148.33 C 154.73,148.27 153.16,147.7 151.64,147.05 C 149.88,146.29 148.2,145.4 146.33,144.7 C 145.28,144.31 144.17,143.97 143.12,144.13 C 142.35,144.24 141.61,144.62 140.89,144.99 C 139.51,145.71 138.22,146.43 136.78,147.05 C 135.97,147.4 135.11,147.72 134.51,148.29 C 134.01,148.75 133.69,149.39 133.36,150.1 z M 146.63,156.09 C 147.63,156.44 148.61,156.77 149.6,157.23 C 151.92,158.32 154.27,160.11 156.65,159.72 C 157.22,159.63 157.79,159.41 158.36,159.23 C 160.03,158.7 161.73,158.48 163.33,157.72 C 164.53,157.16 165.67,156.3 165.9,154.83 C 165.99,154.2 165.92,153.46 165.61,153.2 C 165.14,152.8 164.1,153.55 163.21,154.06 C 161.89,154.8 160.88,155.03 159.75,155.52 C 158.7,155.97 157.55,156.65 156.45,156.62 C 155.38,156.6 154.35,155.91 153.35,155.28 C 151.21,153.93 149.15,152.82 146.83,152.18 C 145.84,151.91 144.8,151.72 143.78,151.73 C 141.68,151.76 139.69,152.65 137.71,153.61 C 136.51,154.19 135.31,154.8 134.77,156.09 C 134.5,156.75 134.4,157.59 134.73,158.05 C 135.18,158.67 136.41,158.62 137.34,158.29 C 138.6,157.85 139.29,156.9 140.27,156.26 C 141.21,155.64 142.42,155.32 143.57,155.36 C 144.63,155.4 145.64,155.75 146.63,156.09 z M 157.79,131.93 C 162.09,135.29 165.47,139.69 167.63,144.71 C 168.74,147.31 169.49,149.94 169.91,152.74 C 170.08,153.9 170.25,155.54 170.24,156.72 C 170.24,158.05 170.05,159.32 169.67,160.59 C 168.88,163.28 167.3,165.67 165.14,167.45 C 164.08,168.32 162.94,169.01 161.68,169.54 C 160.37,170.09 159.32,170.33 157.93,170.56 C 152.55,171.47 147.03,171.12 141.81,169.52 C 140.51,169.13 139.24,168.68 138.0,168.12 C 136.78,167.57 135.69,166.88 134.68,166.01 C 132.56,164.21 131.02,161.81 130.27,159.13 C 129.91,157.83 129.74,156.54 129.76,155.19 C 129.77,154.02 129.99,152.35 130.18,151.2 C 130.65,148.44 131.42,145.84 132.52,143.27 C 133.64,140.68 135.01,138.32 136.7,136.07 C 137.41,135.13 138.48,133.83 139.32,132.99 C 140.26,132.06 141.28,131.3 142.45,130.66 C 147.36,127.98 153.38,128.47 157.79,131.93 z" />
		
		
		<text id="txtTwo" transform="matrix(1 0 0 1 150 160)" style="stroke:none;fill:#f00;font-family:'Eras Medium ITC';font-size:20px;text-anchor:middle"  >

		</text>
		<!-- Prism Reference -->
		<cam mingh:cam=" --verb EditSelectAll --verb ZoomSelection --verb FileSave"/> 
	 </g>

</svg>