<svg
   xmlns:xlink="http://www.w3.org/1999/xlink"
   xmlns:svg="http://www.w3.org/2000/svg"
   xmlns="http://www.w3.org/2000/svg"
   xmlns:mingh="http://www.minghworld.com"
   width="300px"
   height="300px" >
	 <g>
		<!-- Paths -->
		<path style="fill:none;stroke:#000;stroke-width:0.25px;"
		 d="M 151.03,132.69 C 151.03,131.66 150.19,130.82 149.16,130.82 C 148.13,130.82 147.29,131.66 147.29,132.69 C 147.29,133.72 148.13,134.56 149.16,134.56 C 150.19,134.56 151.03,133.72 151.03,132.69 z M 148.78,161.53 C 148.98,162.34 149.37,163.11 149.86,163.82 C 150.39,164.59 151.04,165.3 151.84,165.71 C 152.93,166.26 154.3,166.24 155.56,165.89 C 156.93,165.5 158.16,164.71 158.98,163.73 C 159.79,162.75 160.17,161.58 160.5,160.0 C 160.63,159.38 160.75,158.7 160.55,158.43 C 160.25,158.03 159.28,158.49 158.3,158.79 C 157.48,159.04 156.65,159.19 156.6,159.69 C 156.56,159.96 156.77,160.35 156.86,160.72 C 157.11,161.68 156.63,162.55 155.97,163.33 C 155.61,163.75 155.19,164.15 154.75,164.22 C 154.08,164.33 153.35,163.66 152.82,162.97 C 152.03,161.93 151.69,160.83 151.66,159.73 C 151.6,157.79 152.53,155.84 153.41,153.94 C 154.51,151.56 155.53,149.28 156.69,147.11 C 157.5,145.59 158.38,144.13 158.89,142.26 C 159.31,140.67 159.46,138.77 158.62,137.73 C 157.75,136.65 155.82,136.49 154.13,136.42 C 151.92,136.35 150.11,136.45 148.06,136.92 C 147.03,137.15 145.94,137.48 145.28,138.18 C 144.39,139.1 144.26,140.67 144.29,142.13 C 144.33,144.15 144.67,145.96 144.92,147.74 C 145.13,149.2 145.27,150.65 145.01,152.37 C 144.89,153.13 144.69,153.95 144.2,154.25 C 143.63,154.61 142.68,154.29 141.87,153.94 C 141.09,153.61 140.44,153.26 139.98,152.73 C 139.21,151.84 138.97,150.46 139.04,149.09 C 139.07,148.38 139.18,147.68 139.62,147.25 C 139.9,146.97 140.31,146.81 140.74,146.75 C 141.35,146.68 142.02,146.82 142.45,146.48 C 142.83,146.19 143.03,145.53 142.9,145.05 C 142.72,144.41 141.95,144.08 141.24,143.97 C 140.2,143.81 139.28,144.13 138.45,144.64 C 137.39,145.3 136.49,146.3 136.07,147.43 C 135.6,148.73 135.77,150.21 136.16,151.65 C 136.56,153.14 137.19,154.57 138.32,155.47 C 139.92,156.73 142.52,156.9 144.52,156.05 C 145.78,155.51 146.81,154.56 147.43,153.4 C 148.17,152.04 148.36,150.39 148.33,148.86 C 148.29,146.91 147.88,145.16 147.48,143.03 C 147.18,141.43 146.88,139.62 147.79,138.63 C 148.32,138.06 149.23,137.75 150.13,137.68 C 151.44,137.58 152.72,138.0 153.63,138.85 C 154.21,139.38 154.64,140.09 154.84,140.83 C 155.21,142.17 154.82,143.63 154.35,145.0 C 153.74,146.76 153.0,148.37 152.24,149.99 C 151.57,151.41 150.87,152.85 150.22,154.3 C 149.62,155.62 149.06,156.95 148.78,158.39 C 148.58,159.43 148.53,160.52 148.78,161.53 z M 157.79,131.93 C 162.09,135.29 165.47,139.69 167.63,144.71 C 168.74,147.31 169.49,149.94 169.91,152.74 C 170.08,153.9 170.25,155.54 170.24,156.72 C 170.24,158.05 170.05,159.32 169.67,160.59 C 168.88,163.28 167.3,165.67 165.14,167.45 C 164.08,168.32 162.94,169.01 161.68,169.54 C 160.37,170.09 159.32,170.33 157.93,170.56 C 152.55,171.47 147.03,171.12 141.81,169.52 C 140.51,169.13 139.24,168.68 138.0,168.12 C 136.78,167.57 135.69,166.88 134.68,166.01 C 132.56,164.21 131.02,161.81 130.27,159.13 C 129.91,157.83 129.74,156.54 129.76,155.19 C 129.77,154.02 129.99,152.35 130.18,151.2 C 130.65,148.44 131.42,145.84 132.52,143.27 C 133.63,140.68 135.01,138.31 136.7,136.07 C 137.41,135.13 138.48,133.82 139.32,132.99 C 140.26,132.06 141.28,131.3 142.45,130.66 C 147.36,127.98 153.38,128.48 157.79,131.93 z"
		 />
		<!-- Prism Reference -->
		<cam mingh:cam="--verb EditSelectAll --verb EditSelectAll --verb ZoomSelection --verb FileSave "/> 
	 </g>

</svg>
