<svg
   xmlns:xlink="http://www.w3.org/1999/xlink"
   xmlns:svg="http://www.w3.org/2000/svg"
   xmlns="http://www.w3.org/2000/svg"
   xmlns:mingh="http://www.minghworld.com"
   width="300px"
   height="300px" >
	
	 <g>
		
		<!-- Paths -->
		<path transform="matrix(-1 0 0 1 300 0)" style="fill:#ff0;stroke:none;"
		 d="M 151.11,132.85 C 151.11,131.77 150.23,130.9 149.16,130.9 C 148.08,130.9 147.21,131.77 147.21,132.85 C 147.21,133.92 148.08,134.79 149.16,134.79 C 150.23,134.79 151.11,133.92 151.11,132.85 z M 148.45,149.15 C 148.16,148.19 147.73,147.26 147.26,146.34 C 146.27,144.42 145.13,142.61 143.85,140.94 C 142.96,139.78 142.0,138.68 140.36,138.17 C 139.64,137.95 138.8,137.85 138.41,138.22 C 137.95,138.65 138.12,139.72 138.5,140.49 C 138.98,141.47 139.82,141.95 140.63,142.49 C 141.96,143.36 143.23,144.41 144.08,145.75 C 144.59,146.57 144.95,147.49 145.13,148.43 C 145.17,148.68 145.21,148.94 145.23,149.19 C 144.38,149.14 143.53,149.09 142.76,149.43 C 142.5,149.55 142.25,149.71 142.08,149.93 C 141.66,150.49 141.82,151.41 142.17,152.11 C 142.55,152.85 143.13,153.35 143.81,153.7 C 144.26,153.93 144.74,154.09 145.24,154.19 C 145.29,155.38 145.34,156.57 145.1,157.56 C 144.86,158.61 144.31,159.43 143.63,160.27 C 143.0,161.06 142.26,161.87 141.29,162.68 C 140.89,163.03 140.44,163.37 140.34,163.82 C 140.25,164.21 140.44,164.68 140.7,165.09 C 141.16,165.79 141.83,166.29 142.57,166.4 C 143.51,166.56 144.54,166.07 145.33,165.41 C 146.89,164.11 147.5,162.14 147.82,160.42 C 148.13,158.8 148.18,157.39 148.41,155.67 C 148.48,155.11 148.58,154.52 148.66,153.93 C 149.52,153.7 150.37,153.4 151.25,153.2 C 151.36,153.18 151.47,153.15 151.57,153.13 C 151.57,153.15 151.57,153.18 151.57,153.2 C 151.48,155.61 152.09,158.05 152.79,159.95 C 153.28,161.27 153.82,162.34 154.72,163.7 C 154.94,164.04 155.17,164.36 155.53,164.66 C 156.62,165.52 158.87,166.1 159.21,165.34 C 159.41,164.88 158.92,163.93 158.39,163.25 C 157.8,162.48 157.15,162.03 156.77,161.52 C 156.33,160.92 156.26,160.23 156.14,159.44 C 155.95,158.18 155.64,156.68 155.52,155.11 C 155.46,154.35 155.45,153.57 155.49,152.8 C 155.7,152.79 155.91,152.79 156.11,152.79 C 156.82,152.79 157.5,152.79 158.34,152.93 C 158.83,153.01 159.39,153.14 159.65,152.97 C 160.07,152.71 159.76,151.7 159.56,150.88 C 159.4,150.24 159.31,149.72 159.02,149.34 C 158.52,148.71 157.46,148.48 156.47,148.39 C 156.43,148.38 156.38,148.38 156.34,148.38 C 156.39,148.21 156.46,148.05 156.52,147.89 C 156.86,147.05 157.28,146.25 157.56,145.35 C 157.87,144.39 158.01,143.3 158.7,142.67 C 159.2,142.22 159.97,142.0 160.42,141.49 C 160.92,140.92 161.03,139.99 160.74,139.22 C 160.49,138.54 159.93,137.99 159.29,137.81 C 158.6,137.62 157.8,137.87 157.16,138.26 C 156.14,138.89 155.49,139.9 154.98,140.94 C 154.1,142.72 153.58,144.59 153.02,146.48 C 152.82,147.19 152.6,147.9 152.4,148.61 C 151.84,148.7 151.28,148.8 150.71,148.89 C 149.97,149.0 149.21,149.09 148.45,149.15 z M 157.79,131.93 C 162.09,135.29 165.47,139.69 167.63,144.71 C 168.74,147.31 169.49,149.94 169.91,152.74 C 170.08,153.9 170.25,155.54 170.24,156.72 C 170.24,158.05 170.05,159.32 169.67,160.59 C 168.88,163.28 167.3,165.67 165.14,167.45 C 164.08,168.32 162.94,169.01 161.68,169.54 C 160.37,170.09 159.32,170.33 157.93,170.56 C 152.55,171.47 147.03,171.12 141.81,169.52 C 140.51,169.13 139.24,168.68 138.0,168.12 C 136.78,167.57 135.69,166.88 134.68,166.01 C 132.56,164.21 131.02,161.81 130.27,159.13 C 129.91,157.83 129.74,156.54 129.76,155.19 C 129.77,154.02 129.99,152.35 130.18,151.2 C 130.65,148.44 131.42,145.84 132.52,143.27 C 133.63,140.68 135.01,138.32 136.7,136.07 C 137.41,135.13 138.48,133.83 139.32,132.99 C 140.26,132.06 141.28,131.3 142.45,130.66 C 147.36,127.98 153.38,128.48 157.79,131.93 z" />
		
		
		<text id="txtTwo" transform="matrix(1 0 0 1 150 160)" style="stroke:none;fill:#f00;font-family:'Eras Medium ITC';font-size:20px;text-anchor:middle"  >

		</text>
		<!-- Prism Reference -->
		<cam mingh:cam=" --verb EditSelectAll --verb ZoomSelection --verb FileSave "/> 
	 </g>

</svg>