<svg
   xmlns:xlink="http://www.w3.org/1999/xlink"
   xmlns:svg="http://www.w3.org/2000/svg"
   xmlns="http://www.w3.org/2000/svg"
   xmlns:mingh="http://www.minghworld.com"
   width="300px"
   height="300px" >
	 <g>
		<!-- Paths -->
		<path style="fill:none;stroke:#000;stroke-width:0.25px;"
		 d="M 157.42,145.63 C 157.61,145.28 157.81,144.97 158.07,144.62 C 158.48,144.07 159.03,143.44 159.61,143.5 C 159.96,143.54 160.33,143.82 160.55,144.14 C 161.11,144.92 160.87,145.95 160.6,146.89 C 160.25,148.08 159.85,149.13 159.35,150.16 C 158.72,151.46 157.93,152.73 157.1,153.96 C 155.99,155.61 154.79,157.18 153.57,158.71 C 152.39,160.18 151.18,161.62 150.01,163.15 C 149.47,163.84 148.95,164.55 148.84,165.45 C 148.77,166.04 148.88,166.7 149.3,167.06 C 149.57,167.28 149.97,167.38 150.31,167.34 C 150.87,167.28 151.32,166.87 151.72,166.44 C 153.31,164.76 154.26,162.86 155.43,161.04 C 156.68,159.09 158.18,157.23 159.52,155.35 C 160.69,153.71 161.74,152.05 162.62,150.12 C 163.47,148.26 164.17,146.15 163.56,144.34 C 163.25,143.39 162.58,142.53 161.74,141.9 C 160.9,141.26 159.88,140.86 158.88,140.87 C 158.14,140.87 157.4,141.12 156.75,141.68 C 156.18,142.18 155.68,142.93 155.13,142.89 C 154.75,142.86 154.34,142.44 153.9,142.21 C 153.34,141.91 152.72,141.89 152.16,142.03 C 151.59,142.18 151.09,142.5 150.62,142.93 C 150.19,143.33 149.79,143.82 149.28,143.9 C 148.92,143.96 148.52,143.81 148.14,143.63 C 147.52,143.34 147.0,142.97 146.38,142.86 C 145.91,142.78 145.38,142.85 144.91,143.0 C 144.35,143.17 143.85,143.44 143.5,144.05 C 143.3,144.41 143.14,144.88 142.89,144.89 C 142.72,144.89 142.52,144.69 142.32,144.51 C 141.63,143.9 141.04,143.54 140.4,143.15 C 139.79,142.77 139.13,142.35 138.36,142.14 C 137.62,141.93 136.79,141.91 136.19,142.36 C 135.77,142.67 135.47,143.21 135.53,143.72 C 135.59,144.21 135.98,144.68 136.43,144.86 C 136.99,145.1 137.62,144.89 138.25,144.73 C 138.59,144.64 138.93,144.57 139.24,144.64 C 139.67,144.75 140.05,145.14 140.25,145.57 C 140.49,146.07 140.47,146.63 140.51,147.17 C 140.6,148.31 140.95,149.41 141.11,150.53 C 141.25,151.6 141.22,152.68 141.33,153.76 C 141.39,154.43 141.51,155.09 141.83,155.68 C 142.06,156.1 142.4,156.48 142.87,156.64 C 143.27,156.78 143.78,156.76 144.1,156.55 C 144.64,156.2 144.64,155.3 144.65,154.51 C 144.66,153.4 144.69,152.49 144.71,151.54 C 144.74,150.43 144.75,149.27 144.95,148.07 C 145.07,147.42 145.24,146.75 145.81,146.38 C 146.08,146.2 146.45,146.1 146.69,146.18 C 147.09,146.32 147.17,146.99 147.22,147.57 C 147.29,148.53 147.28,149.26 147.33,150.03 C 147.38,150.97 147.53,151.98 147.48,153.04 C 147.44,154.04 147.22,155.09 147.72,155.89 C 148.0,156.34 148.5,156.71 149.06,156.77 C 149.61,156.83 150.21,156.59 150.51,156.2 C 150.92,155.68 150.77,154.87 150.69,154.11 C 150.53,152.58 150.63,151.24 150.71,149.87 C 150.77,148.82 150.81,147.76 151.37,146.67 C 151.68,146.06 152.14,145.45 152.68,145.46 C 153.01,145.46 153.36,145.7 153.56,146.01 C 153.92,146.55 153.76,147.29 153.74,147.98 C 153.73,148.9 153.97,149.75 153.98,150.6 C 154.0,151.14 153.91,151.69 153.98,152.29 C 154.03,152.67 154.13,153.08 154.4,153.28 C 154.71,153.51 155.22,153.46 155.63,153.28 C 156.3,152.99 156.67,152.34 156.84,151.68 C 157.01,151.04 156.99,150.39 156.93,149.74 C 156.86,148.99 156.72,148.24 156.81,147.48 C 156.89,146.84 157.13,146.19 157.42,145.63 z M 151.11,132.85 C 151.11,131.77 150.23,130.9 149.16,130.9 C 148.08,130.9 147.21,131.77 147.21,132.85 C 147.21,133.92 148.08,134.79 149.16,134.79 C 150.23,134.79 151.11,133.92 151.11,132.85 z M 157.79,131.93 C 162.09,135.29 165.47,139.69 167.63,144.71 C 168.74,147.31 169.49,149.94 169.91,152.74 C 170.08,153.9 170.25,155.54 170.24,156.72 C 170.24,158.05 170.05,159.32 169.67,160.59 C 168.88,163.28 167.3,165.67 165.14,167.45 C 164.08,168.32 162.94,169.01 161.68,169.54 C 160.37,170.09 159.32,170.33 157.93,170.56 C 152.55,171.47 147.03,171.12 141.81,169.52 C 140.51,169.13 139.24,168.68 138.0,168.12 C 136.78,167.57 135.69,166.88 134.68,166.01 C 132.56,164.21 131.02,161.81 130.27,159.13 C 129.91,157.83 129.74,156.54 129.76,155.19 C 129.77,154.02 129.99,152.35 130.18,151.2 C 130.65,148.44 131.42,145.84 132.52,143.27 C 133.64,140.68 135.01,138.31 136.7,136.07 C 137.41,135.13 138.48,133.82 139.32,132.99 C 140.26,132.06 141.28,131.3 142.45,130.66 C 147.36,127.98 153.38,128.48 157.79,131.93 z"
		 />

		<!-- Prism Reference -->
		<cam mingh:cam="--verb EditSelectAll --verb EditSelectAll --verb ZoomSelection --verb FileSave"/> 
	 </g>

</svg>
