<svg
   xmlns:xlink="http://www.w3.org/1999/xlink"
   xmlns:svg="http://www.w3.org/2000/svg"
   xmlns="http://www.w3.org/2000/svg"
   xmlns:mingh="http://www.minghworld.com"
   width="300px"
   height="300px" >
	 <g>
		<!-- Paths -->
		<path id="shape" transform="matrix(-1 0 0 1 300 0)" style="fill:#ff0;stroke:none;"
			d="M 149.49,131.37 C 148.37,131.43 147.25,131.72 146.24,132.24 143.5,133.6 141.68,136.58 141.71,139.65 139.3,138.85 136.52,139.26 134.43,140.71 131.86,142.44 130.46,145.68 130.93,148.74 131.34,151.81 133.6,154.53 136.56,155.46 135.05,157.51 134.6,160.24 135.34,162.68 136.19,165.66 138.81,168.03 141.87,168.52 144.92,169.08 148.2,167.73 149.99,165.21 151.48,167.28 153.95,168.56 156.49,168.62 159.59,168.73 162.65,166.93 164.06,164.18 165.53,161.45 165.28,157.95 163.43,155.46 165.86,154.69 167.85,152.74 168.68,150.34 169.75,147.43 168.99,143.97 166.81,141.77 164.67,139.53 161.24,138.66 158.31,139.65 158.32,137.01 156.99,134.42 154.84,132.9 153.31,131.78 151.38,131.26 149.49,131.37 z M 149.99,133.27 C 150.88,133.27 151.59,133.98 151.59,134.87 151.59,135.75 150.88,136.49 149.99,136.49 149.11,136.49 148.4,135.75 148.4,134.87 148.4,133.98 149.11,133.27 149.99,133.27 z" />
		<!-- Text -->
		<text id="txtTwo" dy="2.8" transform="matrix(1 0 0 1 150 150)" style="stroke:none;fill:#f00;font-family:'Eras Medium ITC';font-size:10px;text-anchor:middle" >

		</text>
		<!-- Prism Reference -->
		<cam mingh:cam=" --verb EditSelectAll --verb SelectionUnGroup --verb EditDeselect --select=txtOne --verb SelectionUnion --verb EditDeselect --verb EditSelectAll --verb SelectionUnGroup --verb EditDeselect --verb EditSelectAll --verb ZoomSelection --verb SelectionGroup  --verb FileSave "/> 
	 </g>

</svg>