<svg
   xmlns:xlink="http://www.w3.org/1999/xlink"
   xmlns:svg="http://www.w3.org/2000/svg"
   xmlns="http://www.w3.org/2000/svg"
   xmlns:mingh="http://www.minghworld.com"
   width="300px"
   height="300px" >
	 <g>	
		<!-- Paths -->
		<path transform="matrix(-1 0 0 1 300 0)" style="fill:#ff0;stroke:none;"
		 d="M 152.5,127.63 C 151.24,127.64 150.01,128.26 149.28,129.34 C 148.31,130.79 148.44,132.7 149.56,134.03 C 149.72,134.22 149.88,134.38 150.06,134.53 C 150.15,134.6 150.25,134.69 150.34,134.75 C 150.4,134.79 150.57,134.85 150.59,134.94 C 150.64,135.07 150.55,135.13 150.44,135.19 C 150.34,135.23 150.26,135.3 150.19,135.38 C 150.04,135.52 149.94,135.68 149.72,135.75 C 149.51,135.82 149.3,135.82 149.09,135.81 C 148.89,135.81 148.7,135.81 148.5,135.84 C 148.08,135.91 147.7,136.04 147.31,136.22 C 145.84,136.89 144.4,138.12 144.31,139.94 C 144.3,140.15 144.32,140.35 144.34,140.56 C 144.35,140.67 144.36,140.77 144.38,140.88 C 144.38,140.89 144.4,140.93 144.38,140.94 C 144.35,140.95 144.34,140.96 144.31,140.97 C 144.26,140.99 144.2,141.01 144.16,141.03 C 143.96,141.11 143.78,141.19 143.59,141.28 C 143.5,141.33 143.41,141.36 143.31,141.41 C 143.27,141.43 143.2,141.47 143.16,141.5 C 143.14,141.51 143.14,141.49 143.13,141.5 C 143.11,141.51 143.11,141.55 143.09,141.53 C 143.08,141.51 143.08,141.49 143.06,141.47 C 142.85,141.11 142.63,140.73 142.34,140.41 C 142.22,140.26 142.08,140.16 141.94,140.03 C 141.75,139.86 141.62,139.61 141.47,139.41 C 141.43,139.35 141.37,139.25 141.31,139.34 C 141.25,139.44 141.24,139.55 141.22,139.66 C 141.18,139.87 141.09,140.09 141.0,140.28 C 140.99,140.3 140.97,140.37 140.94,140.34 C 140.89,140.3 140.89,140.24 140.88,140.19 C 140.85,140.08 140.82,139.98 140.78,139.88 C 140.75,139.78 140.7,139.69 140.66,139.59 C 140.61,139.5 140.54,139.34 140.47,139.47 C 140.41,139.57 140.38,139.67 140.34,139.78 C 140.34,139.8 140.32,139.89 140.28,139.88 C 140.24,139.86 140.2,139.78 140.19,139.75 C 140.08,139.55 139.9,139.46 139.72,139.34 C 139.29,139.07 139.06,138.99 138.56,138.94 C 138.19,138.9 137.81,138.84 137.44,138.78 C 137.19,138.74 136.74,138.7 136.5,138.88 C 136.4,138.95 136.35,139.06 136.28,139.16 C 136.22,139.23 136.15,139.3 136.06,139.34 C 135.9,139.42 135.77,139.44 135.59,139.44 C 135.28,139.44 134.97,139.41 134.66,139.5 C 134.35,139.59 134.09,139.74 133.81,139.88 C 133.54,140.01 133.27,140.11 132.97,140.16 C 132.69,140.2 132.41,140.22 132.13,140.25 C 132.03,140.26 131.94,140.27 131.84,140.28 C 131.81,140.28 131.56,140.31 131.53,140.34 C 131.49,140.38 131.57,140.45 131.59,140.47 C 131.63,140.5 131.65,140.53 131.69,140.56 C 131.73,140.6 131.77,140.65 131.81,140.69 C 131.98,140.85 132.17,141.0 132.34,141.16 C 132.48,141.28 132.79,141.7 132.91,141.84 C 133.32,142.39 133.52,142.85 133.38,143.56 C 133.31,143.87 133.22,144.16 133.16,144.47 C 133.09,144.76 133.05,145.06 132.97,145.34 C 132.79,146.04 132.75,146.67 132.94,147.38 C 133.04,147.76 133.21,148.07 133.47,148.38 C 133.53,148.45 133.59,148.55 133.66,148.63 C 133.8,148.8 133.95,148.99 134.06,149.19 C 134.23,149.48 134.35,149.73 134.25,150.09 C 134.23,150.18 134.2,150.25 134.19,150.34 C 134.18,150.42 134.19,150.44 134.25,150.41 C 134.35,150.36 134.59,150.18 134.66,150.09 C 134.71,150.02 134.76,149.95 134.81,149.88 C 134.86,149.81 134.85,149.92 134.84,149.97 C 134.83,150.15 134.79,150.34 134.84,150.53 C 134.93,150.87 135.28,151.32 135.5,151.56 C 135.79,151.87 136.1,152.15 136.41,152.44 C 136.56,152.57 136.72,152.69 136.88,152.81 C 136.97,152.89 137.06,152.97 137.13,153.06 C 137.23,153.2 137.24,153.08 137.28,152.97 C 137.32,152.86 137.35,152.73 137.38,152.63 C 137.41,152.49 137.49,152.64 137.53,152.72 C 137.64,152.91 137.76,153.1 137.91,153.25 C 138.48,153.84 139.35,154.22 140.16,154.34 C 140.21,154.35 140.26,154.37 140.31,154.38 C 140.31,154.38 140.31,154.4 140.31,154.41 C 140.3,154.43 140.29,154.48 140.28,154.5 C 140.25,154.6 140.22,154.68 140.19,154.78 C 140.13,154.98 140.08,155.2 140.03,155.41 C 139.93,155.81 139.86,156.22 139.75,156.63 C 139.55,157.37 139.19,158.27 139.59,159.09 C 139.79,159.49 140.15,159.7 140.41,160.03 C 140.68,160.39 140.79,160.79 140.84,161.22 C 140.96,162.12 140.96,162.81 141.56,163.59 C 142.03,164.2 142.94,164.76 143.63,165.03 C 144.53,165.39 145.38,165.24 146.22,164.81 C 146.63,164.6 146.98,164.35 147.34,164.06 C 147.52,163.92 147.71,163.78 147.88,163.63 C 147.89,163.61 147.92,163.61 147.94,163.59 C 147.94,163.61 147.96,163.61 147.97,163.63 C 148.0,163.67 148.03,163.73 148.06,163.78 C 148.12,163.88 148.16,163.97 148.22,164.06 C 149.19,165.57 150.52,166.84 152.44,167.13 C 153.38,167.26 154.19,167.14 155.06,166.75 C 155.11,166.73 155.14,166.71 155.19,166.69 C 155.21,166.68 155.26,166.67 155.28,166.66 C 155.3,166.65 155.34,166.71 155.34,166.72 C 155.41,166.81 155.46,166.88 155.53,166.97 C 155.68,167.14 155.86,167.29 156.03,167.44 C 156.23,167.61 156.87,168.09 157.09,168.22 C 157.28,168.33 157.52,168.4 157.75,168.31 C 157.83,168.28 158.24,168.07 158.31,168.03 C 158.42,167.97 158.52,167.88 158.63,167.81 C 158.69,167.77 158.82,167.67 158.91,167.66 C 158.94,167.65 158.92,167.67 158.91,167.69 C 158.88,167.73 158.84,167.8 158.81,167.84 C 158.73,167.96 158.63,168.06 158.56,168.19 C 158.51,168.29 158.49,168.42 158.47,168.53 C 158.45,168.63 158.39,168.76 158.53,168.81 C 158.68,168.87 158.75,168.8 158.84,168.72 C 158.87,168.69 158.9,168.65 158.94,168.63 C 159.03,168.57 159.08,168.6 159.16,168.66 C 159.21,168.69 159.26,168.75 159.28,168.81 C 159.29,168.83 159.28,168.85 159.28,168.88 C 159.28,169.0 159.29,169.1 159.34,169.22 C 159.39,169.32 159.44,169.26 159.5,169.22 C 159.57,169.17 159.65,169.14 159.72,169.09 C 159.84,169.02 159.96,168.95 160.06,168.84 C 160.13,168.77 160.15,168.68 160.19,168.59 C 160.2,168.56 160.23,168.54 160.25,168.5 C 160.25,168.49 160.27,168.46 160.28,168.47 C 160.31,168.49 160.28,168.64 160.28,168.66 C 160.28,168.75 160.27,168.84 160.28,168.94 C 160.33,169.22 160.56,169.48 160.75,169.66 C 160.94,169.84 161.15,169.95 161.41,170.03 C 161.48,170.06 161.58,170.07 161.66,170.09 C 161.93,170.16 162.22,170.23 162.5,170.28 C 163.09,170.39 163.64,170.54 164.19,170.78 C 164.64,170.98 165.39,171.32 165.78,171.63 C 165.9,171.72 165.99,171.83 166.09,171.94 C 166.19,172.05 166.29,172.15 166.41,172.25 C 166.5,172.32 166.56,172.39 166.69,172.38 C 166.73,172.37 166.78,172.37 166.81,172.34 C 166.97,172.24 167.0,171.99 167.03,171.84 C 167.12,171.41 167.25,170.97 167.34,170.53 C 167.56,169.52 167.68,168.03 167.38,167.0 C 167.29,166.71 167.15,166.44 167.0,166.19 C 166.86,165.96 166.71,165.68 166.75,165.38 C 166.8,164.99 166.96,164.96 167.16,164.69 C 167.19,164.65 167.2,164.61 167.22,164.56 C 167.26,164.45 167.28,164.36 167.22,164.25 C 167.17,164.16 167.08,164.14 167.0,164.13 C 166.91,164.11 166.83,164.1 166.75,164.06 C 166.69,164.04 166.66,164.01 166.69,163.94 C 166.74,163.83 166.94,163.68 167.03,163.63 C 167.16,163.55 167.3,163.52 167.44,163.47 C 167.6,163.41 167.65,163.36 167.59,163.19 C 167.56,163.07 167.52,162.96 167.47,162.84 C 167.43,162.76 167.38,162.68 167.34,162.59 C 167.3,162.5 167.26,162.41 167.22,162.31 C 166.93,161.68 166.58,161.08 166.22,160.5 C 166.09,160.3 165.97,160.11 165.84,159.91 C 165.81,159.86 165.78,159.8 165.75,159.75 C 165.73,159.72 165.73,159.71 165.72,159.69 C 165.71,159.67 165.66,159.61 165.69,159.59 C 165.78,159.52 165.88,159.45 165.97,159.38 C 166.35,159.07 166.66,158.74 166.88,158.28 C 167.32,157.33 166.99,156.4 167.19,155.47 C 167.24,155.23 167.32,155.03 167.44,154.81 C 167.55,154.6 167.68,154.4 167.78,154.19 C 167.96,153.82 168.03,153.39 167.84,153.0 C 167.66,152.61 167.37,152.31 167.09,152.0 C 167.0,151.89 166.91,151.79 166.81,151.69 C 166.76,151.63 166.71,151.56 166.66,151.5 C 166.65,151.49 166.6,151.49 166.63,151.47 C 166.64,151.46 166.67,151.45 166.69,151.44 C 166.72,151.42 166.75,151.39 166.78,151.38 C 166.96,151.27 167.13,151.14 167.28,151.0 C 169.08,149.38 168.5,147.62 167.69,145.78 C 167.46,145.27 167.43,145.12 167.41,144.56 C 167.39,144.12 167.33,143.76 167.09,143.38 C 166.65,142.65 165.88,142.15 165.13,141.84 C 164.73,141.68 164.31,141.57 163.88,141.53 C 163.66,141.51 163.46,141.51 163.25,141.53 C 163.23,141.53 163.21,141.57 163.19,141.53 C 163.18,141.51 163.17,141.49 163.16,141.47 C 163.13,141.42 163.09,141.36 163.06,141.31 C 163.01,141.22 162.97,141.12 162.91,141.03 C 162.79,140.85 162.64,140.72 162.47,140.59 C 162.3,140.47 162.14,140.35 162.03,140.16 C 161.84,139.79 161.82,139.35 161.47,139.03 C 160.87,138.49 159.88,138.27 159.13,138.22 C 158.27,138.16 157.46,138.23 156.63,138.41 C 156.52,138.43 156.41,138.47 156.31,138.5 C 156.26,138.51 156.21,138.52 156.16,138.53 C 156.13,138.54 156.12,138.52 156.09,138.53 C 156.06,138.54 156.04,138.52 156.03,138.5 C 155.94,138.31 155.86,138.12 155.75,137.94 C 155.53,137.57 155.29,137.25 155.0,136.94 C 154.71,136.63 154.4,136.35 154.06,136.09 C 153.89,135.97 153.72,135.85 153.53,135.75 C 153.47,135.72 153.32,135.64 153.28,135.56 C 153.23,135.46 153.3,135.35 153.41,135.31 C 155.11,134.92 156.33,133.44 156.41,131.69 C 156.49,129.94 155.41,128.36 153.75,127.81 C 153.34,127.68 152.92,127.62 152.5,127.63 z M 152.53,129.56 C 152.79,129.56 153.05,129.62 153.28,129.72 C 153.52,129.82 153.73,129.94 153.91,130.13 C 154.09,130.31 154.25,130.55 154.34,130.78 C 154.44,131.02 154.47,131.28 154.47,131.53 C 154.47,131.79 154.41,132.05 154.31,132.28 C 154.21,132.52 154.09,132.73 153.91,132.91 C 153.73,133.09 153.52,133.22 153.28,133.31 C 153.05,133.41 152.79,133.47 152.53,133.47 C 152.28,133.47 152.02,133.41 151.78,133.31 C 151.55,133.21 151.34,133.06 151.16,132.88 C 150.98,132.69 150.82,132.49 150.72,132.25 C 150.62,132.01 150.56,131.76 150.56,131.5 C 150.56,131.24 150.62,130.99 150.72,130.75 C 150.82,130.51 150.98,130.3 151.16,130.13 C 151.34,129.95 151.55,129.82 151.78,129.72 C 152.02,129.62 152.28,129.56 152.53,129.56 z" />
		
		
		<text id="txtTwo" transform="matrix(1 0 0 1 150 160)" style="stroke:none;fill:#f00;font-family:'Eras Medium ITC';font-size:20px;text-anchor:middle"  >

		</text>
		<!-- Prism Reference -->
		<cam mingh:cam=" --verb EditSelectAll --verb ZoomSelection --verb FileSave "/> 
	 </g>

</svg>