<svg
   xmlns:xlink="http://www.w3.org/1999/xlink"
   xmlns:svg="http://www.w3.org/2000/svg"
   xmlns="http://www.w3.org/2000/svg"
   xmlns:mingh="http://www.minghworld.com"
   width="300px"
   height="300px" >
	 <g>
			<!-- Paths -->
		<path transform="matrix(-1 0 0 1 300 0)" style="fill:#ff0;stroke:none;"
		 d="M 151.66,116.84 C 150.14,116.89 148.74,117.84 148.16,119.28 C 147.49,120.93 148.01,122.81 149.44,123.88 C 149.79,124.13 150.15,124.34 150.56,124.47 C 150.66,124.5 150.78,124.51 150.88,124.53 C 150.91,124.54 150.9,124.67 150.91,124.69 C 150.93,124.78 150.96,124.87 150.97,124.97 C 150.98,125.11 150.95,125.39 150.78,125.47 C 150.66,125.53 150.53,125.5 150.41,125.5 C 150.31,125.5 150.25,125.5 150.19,125.59 C 150.14,125.67 150.1,125.73 150.06,125.81 C 150.01,125.92 149.99,126.02 149.94,126.13 C 149.83,126.36 149.69,126.61 149.59,126.84 C 149.4,127.31 149.51,127.62 150.03,127.72 C 150.43,127.79 150.87,127.61 150.72,128.22 C 150.62,128.61 150.61,128.73 150.66,129.13 C 150.69,129.43 150.75,129.74 150.81,130.03 C 150.88,130.33 150.98,130.6 151.13,130.88 C 151.27,131.15 151.36,131.4 151.38,131.72 C 151.39,132.03 151.4,132.32 151.28,132.63 C 151.16,132.92 150.96,133.15 150.75,133.38 C 150.54,133.6 150.33,133.81 150.03,133.94 C 149.54,134.15 149.08,134.08 148.59,134.03 C 147.98,133.97 147.4,134.01 146.81,134.22 C 146.22,134.42 145.78,134.72 145.38,135.19 C 145.05,135.57 144.83,136.02 144.56,136.44 C 144.04,137.27 143.31,137.9 142.63,138.56 C 141.82,139.34 141.37,139.74 140.44,140.38 C 139.52,141.0 139.01,141.36 138.28,142.22 C 137.96,142.59 137.64,142.97 137.31,143.34 C 136.96,143.74 136.56,144.1 136.19,144.47 C 135.83,144.83 135.5,145.17 135.25,145.63 C 135.05,145.99 134.91,146.4 134.75,146.78 C 134.6,147.14 134.5,147.47 134.56,147.88 C 134.64,148.38 134.84,148.86 134.97,149.34 C 135.0,149.45 135.01,149.55 135.03,149.66 C 135.05,149.77 135.07,149.95 135.19,150.03 C 135.3,150.11 135.47,150.06 135.53,149.94 C 135.55,149.9 135.56,149.88 135.56,149.84 C 135.57,149.89 135.59,149.92 135.59,149.97 C 135.6,150.09 135.55,150.3 135.69,150.38 C 135.7,150.38 135.75,150.38 135.75,150.41 C 135.75,150.42 135.75,150.43 135.75,150.44 C 135.75,150.46 135.75,150.48 135.75,150.5 C 135.76,150.55 135.76,150.61 135.78,150.66 C 135.87,150.87 136.03,150.96 136.22,151.06 C 136.69,151.32 137.15,151.52 137.69,151.59 C 137.93,151.62 138.17,151.62 138.41,151.66 C 138.58,151.68 138.99,151.73 139.06,151.97 C 139.13,152.19 138.94,152.41 138.84,152.56 C 138.71,152.79 138.91,152.98 139.13,153.03 C 139.45,153.11 139.71,152.98 140.0,152.88 C 140.29,152.77 140.56,152.65 140.88,152.63 C 140.99,152.62 141.19,152.61 141.28,152.72 C 141.37,152.82 141.35,152.96 141.28,153.06 C 141.21,153.17 141.09,153.24 141.09,153.41 C 141.1,153.54 141.21,153.65 141.31,153.72 C 141.43,153.8 141.57,153.84 141.69,153.91 C 141.81,153.97 141.92,154.03 142.06,154.06 C 142.36,154.12 142.64,154.04 142.94,154.06 C 143.5,154.11 143.94,154.76 144.19,155.13 C 144.53,155.62 144.79,156.06 145.5,156.09 C 145.57,156.1 145.65,156.1 145.72,156.09 C 145.75,156.09 145.78,156.07 145.81,156.06 C 145.83,156.06 145.81,156.09 145.81,156.09 C 145.81,156.1 145.81,156.12 145.81,156.13 L 145.84,156.16 C 145.87,156.26 145.88,156.37 145.91,156.47 C 145.96,156.68 146.01,156.89 146.06,157.09 C 146.17,157.51 146.27,157.92 146.38,158.34 C 146.64,159.42 146.77,159.7 147.13,160.75 C 147.26,161.14 147.4,161.51 147.53,161.91 C 147.67,162.32 147.76,162.76 147.84,163.19 C 147.89,163.4 148.1,164.38 148.13,164.59 C 148.18,165.08 148.11,165.56 148.06,166.03 C 147.96,167.0 148.01,167.92 148.19,168.88 C 148.23,169.11 148.29,169.33 148.34,169.56 C 148.4,169.79 148.41,170.02 148.44,170.25 C 148.49,170.68 148.54,171.11 148.59,171.53 C 148.69,172.26 148.81,173.5 148.72,174.25 C 148.7,174.44 148.65,174.61 148.56,174.78 C 148.51,174.88 148.46,174.98 148.38,175.06 C 148.26,175.17 148.11,175.24 147.97,175.28 C 147.6,175.4 147.23,175.46 146.91,175.72 C 146.67,175.91 146.61,176.12 146.63,176.41 C 146.64,176.81 146.93,177.29 147.09,177.63 C 147.3,178.05 147.49,178.48 147.59,178.94 C 147.72,179.48 147.49,179.91 147.41,180.41 C 147.33,180.89 147.34,181.36 147.41,181.84 C 147.44,182.07 147.47,182.28 147.56,182.5 C 147.68,182.79 148.03,182.9 148.28,182.94 C 148.91,183.03 149.53,182.9 149.94,182.34 C 149.95,182.47 149.98,182.6 150.0,182.72 C 150.01,182.8 150.02,182.86 150.06,182.94 C 150.18,183.14 150.41,183.12 150.59,183.13 C 150.89,183.14 151.17,183.17 151.47,183.16 C 151.68,183.15 151.89,183.14 152.09,183.06 C 152.66,182.85 152.67,181.09 152.69,180.72 C 152.72,180.17 152.76,179.64 152.88,179.09 C 152.94,178.78 153.03,178.46 153.13,178.16 C 153.2,177.9 153.28,177.66 153.34,177.41 C 153.41,177.16 153.46,176.92 153.44,176.66 C 153.42,176.42 153.3,176.11 153.09,175.97 C 152.93,175.86 152.71,175.92 152.59,175.69 C 152.5,175.51 152.44,175.32 152.41,175.13 C 152.33,174.68 152.37,174.25 152.38,173.81 C 152.39,173.22 152.41,172.63 152.44,172.03 C 152.46,171.48 152.46,170.93 152.5,170.38 C 152.52,170.04 152.59,169.68 152.63,169.34 C 152.68,168.87 152.66,168.41 152.59,167.94 C 152.55,167.67 152.5,167.42 152.44,167.16 C 152.37,166.9 152.28,166.66 152.22,166.41 C 152.15,166.12 152.21,165.84 152.22,165.56 C 152.23,165.28 152.24,165.0 152.31,164.72 C 152.42,164.31 152.73,163.52 152.88,163.13 C 153.07,162.61 153.12,162.44 153.41,161.97 C 153.63,161.6 153.82,161.23 153.97,160.81 C 154.27,159.97 154.37,159.11 154.56,158.25 C 154.75,157.38 154.93,156.51 155.06,155.63 C 155.1,155.4 155.13,155.19 155.16,154.97 C 155.16,154.92 155.23,154.96 155.25,154.97 C 155.28,154.99 155.31,155.01 155.34,155.03 C 155.41,155.07 155.45,155.1 155.53,155.13 C 155.67,155.16 155.8,155.23 155.94,155.28 C 156.3,155.41 156.98,155.75 157.44,155.53 C 157.74,155.39 157.79,155.21 157.75,154.91 C 157.72,154.64 157.68,154.39 157.84,154.13 C 158.03,153.83 158.23,153.81 158.47,154.06 C 158.65,154.25 158.76,154.49 158.88,154.72 C 158.94,154.84 159.01,154.97 159.06,155.09 C 159.1,155.2 159.15,155.34 159.28,155.38 C 159.4,155.41 159.57,155.37 159.66,155.28 C 159.76,155.17 159.76,155.04 159.78,154.91 C 159.83,154.64 159.92,154.4 160.09,154.19 C 160.28,153.96 160.48,153.89 160.78,153.91 C 161.04,153.92 161.27,154.0 161.53,154.0 C 161.75,154.0 162.15,154.01 162.16,153.69 C 162.16,153.42 162.01,153.15 161.84,152.97 C 161.67,152.78 161.44,152.64 161.28,152.44 C 161.1,152.22 161.06,151.99 161.25,151.75 C 161.42,151.54 161.58,151.34 161.66,151.06 C 161.66,151.05 161.66,150.97 161.69,150.97 L 161.78,151.0 C 161.85,151.01 161.9,151.0 161.97,151.0 C 162.1,151.01 162.24,151.03 162.38,151.03 C 162.64,151.03 162.89,151.02 163.16,150.97 C 163.67,150.87 164.08,150.65 164.47,150.31 C 164.86,149.98 165.14,149.63 165.31,149.13 C 165.63,148.17 165.28,147.09 164.97,146.25 C 164.65,145.4 164.1,144.42 163.56,143.69 C 162.81,142.65 162.34,142.53 161.44,141.69 C 160.71,141.01 160.12,140.24 159.59,139.41 C 159.17,138.74 158.53,137.58 157.81,137.09 C 157.4,136.81 156.95,136.66 156.53,136.41 C 156.11,136.15 155.73,135.84 155.38,135.5 C 154.93,135.07 154.81,134.92 154.47,134.41 C 154.32,134.19 154.34,133.82 154.34,133.59 C 154.34,133.26 154.32,133.11 154.69,133.25 C 154.87,133.32 155.04,133.38 155.25,133.34 C 155.44,133.31 155.6,133.26 155.72,133.09 C 155.83,132.94 155.78,132.76 155.84,132.59 C 155.92,132.39 156.11,132.28 156.25,132.16 C 156.53,131.91 156.68,131.57 156.66,131.19 C 156.65,131.0 156.61,130.83 156.56,130.66 C 156.55,130.61 156.54,130.58 156.53,130.53 C 156.53,130.5 156.55,130.53 156.56,130.53 C 156.58,130.54 156.58,130.53 156.59,130.53 C 156.62,130.54 156.66,130.56 156.69,130.56 C 156.8,130.58 156.92,130.58 157.03,130.56 C 157.17,130.54 157.34,130.49 157.44,130.38 C 157.51,130.29 157.43,130.26 157.34,130.25 C 157.18,130.23 157.03,130.22 156.88,130.16 C 156.83,130.14 156.79,130.12 156.75,130.09 C 156.73,130.08 156.68,130.05 156.66,130.03 C 156.64,130.02 156.64,130.01 156.63,130.0 C 156.61,129.99 156.65,129.98 156.66,129.97 C 156.71,129.9 156.76,129.83 156.81,129.75 C 157.02,129.42 157.03,129.11 157.03,128.75 C 157.03,128.4 157.06,128.04 156.97,127.69 C 156.87,127.31 156.59,127.12 156.38,126.84 C 156.15,126.56 156.0,126.23 155.75,125.97 C 155.62,125.83 155.5,125.75 155.31,125.72 C 155.19,125.7 154.85,125.66 154.75,125.53 C 154.64,125.39 154.86,124.93 154.88,124.81 C 154.91,124.57 154.82,124.45 154.63,124.34 C 154.45,124.25 154.3,124.21 154.09,124.25 C 154.04,124.26 154.0,124.29 153.94,124.28 C 153.87,124.27 153.81,124.22 153.81,124.16 C 153.81,124.04 153.9,124.02 153.97,123.97 C 154.07,123.9 154.16,123.83 154.25,123.75 C 155.05,123.1 155.55,122.18 155.66,121.16 C 155.87,119.06 154.4,117.16 152.31,116.88 C 152.09,116.85 151.87,116.84 151.66,116.84 z M 151.78,118.81 C 152.04,118.81 152.3,118.84 152.53,118.94 C 152.77,119.04 152.98,119.19 153.16,119.38 C 153.34,119.56 153.46,119.76 153.56,120.0 C 153.66,120.24 153.72,120.49 153.72,120.75 C 153.72,121.01 153.66,121.26 153.56,121.5 C 153.46,121.74 153.34,121.94 153.16,122.13 C 152.98,122.31 152.77,122.46 152.53,122.56 C 152.3,122.66 152.04,122.69 151.78,122.69 C 151.53,122.69 151.27,122.66 151.03,122.56 C 150.8,122.46 150.59,122.31 150.41,122.13 C 150.23,121.94 150.07,121.74 149.97,121.5 C 149.87,121.26 149.81,121.01 149.81,120.75 C 149.81,120.49 149.87,120.24 149.97,120.0 C 150.07,119.76 150.23,119.56 150.41,119.38 C 150.59,119.19 150.8,119.04 151.03,118.94 C 151.27,118.84 151.53,118.81 151.78,118.81 z M 147.16,137.63 C 147.35,137.66 147.41,137.92 147.44,138.16 C 147.48,138.49 147.47,138.82 147.47,139.16 C 147.47,139.47 147.48,139.78 147.5,140.09 C 147.55,140.69 147.66,141.26 147.78,141.84 C 147.91,142.46 148.04,143.06 148.13,143.69 C 148.17,144.0 148.2,144.31 148.22,144.63 C 148.23,144.75 148.25,144.88 148.25,145.0 C 148.25,145.08 148.25,145.14 148.22,145.22 C 148.18,145.31 148.02,145.21 147.97,145.19 C 147.68,145.04 147.44,144.84 147.19,144.66 C 146.94,144.47 146.68,144.3 146.41,144.16 C 145.87,143.86 145.3,143.62 144.72,143.41 C 144.19,143.21 143.58,143.0 143.0,143.31 C 142.7,143.47 142.51,143.66 142.38,143.97 C 142.24,144.28 142.26,144.62 142.19,144.94 C 142.13,145.2 141.93,145.45 141.63,145.47 C 141.38,145.49 141.02,145.23 140.84,145.13 C 140.41,144.85 139.65,144.25 139.06,144.22 C 139.58,143.91 140.05,143.58 140.53,143.22 C 141.05,142.83 141.54,142.42 141.97,141.94 C 142.38,141.47 142.78,141.0 143.28,140.63 C 143.53,140.44 143.78,140.27 144.03,140.09 C 144.29,139.92 144.54,139.73 144.78,139.53 C 145.27,139.14 145.72,138.74 146.19,138.31 C 146.29,138.22 146.77,137.75 146.91,137.69 C 147.0,137.65 147.09,137.61 147.16,137.63 z M 156.19,139.66 C 156.23,139.64 156.28,139.64 156.34,139.66 C 156.47,139.7 156.65,139.83 156.78,139.94 C 157.06,140.18 157.17,140.35 157.31,140.53 C 157.63,140.92 158.11,141.37 158.56,141.78 C 159.24,142.4 159.85,142.93 160.25,143.25 C 160.72,143.63 160.87,143.71 161.28,144.19 C 161.63,144.59 162.18,145.29 162.63,145.91 C 162.93,146.34 163.19,146.73 163.41,147.03 C 163.51,147.18 163.59,147.3 163.69,147.47 C 163.73,147.54 163.8,147.64 163.81,147.72 C 163.82,147.77 163.82,147.81 163.78,147.84 C 163.73,147.89 163.6,147.88 163.5,147.91 C 163.35,147.94 163.24,148.03 163.13,148.09 C 162.99,148.17 162.87,148.24 162.72,148.28 C 162.57,148.32 162.41,148.34 162.25,148.34 C 162.14,148.35 162.01,148.35 161.88,148.41 C 161.77,148.45 161.65,148.53 161.63,148.66 C 161.6,148.76 161.65,148.9 161.72,149.0 C 161.81,149.14 161.98,149.18 162.13,149.22 C 162.33,149.28 162.52,149.31 162.72,149.28 C 162.95,149.24 163.19,149.12 163.38,149.03 C 163.56,148.94 163.67,148.86 163.66,148.91 C 163.63,148.97 163.4,149.22 163.22,149.41 C 163.04,149.58 162.92,149.69 162.75,149.78 C 162.59,149.87 162.38,149.94 162.19,149.97 C 162.02,149.99 161.87,149.98 161.69,149.97 C 161.6,149.96 161.5,149.94 161.41,149.94 C 161.39,149.91 161.39,149.9 161.38,149.88 C 161.19,149.53 160.99,149.18 160.69,148.97 C 160.46,148.81 160.18,148.72 159.91,148.63 C 159.69,148.55 159.47,148.48 159.28,148.34 C 159.14,148.25 159.01,148.15 158.97,148.0 C 158.93,147.88 158.97,147.73 159.0,147.59 C 159.03,147.46 159.06,147.32 159.06,147.19 C 159.07,147.05 159.06,146.91 159.0,146.78 C 158.93,146.63 158.79,146.5 158.66,146.41 C 158.46,146.27 158.23,146.19 158.0,146.13 C 157.67,146.03 157.37,145.96 157.06,145.91 C 156.71,145.84 156.38,145.81 156.03,145.81 C 155.77,145.81 155.51,145.84 155.16,145.84 C 154.97,145.85 154.77,145.84 154.56,145.88 C 154.52,145.88 154.46,145.9 154.44,145.88 C 154.42,145.85 154.43,145.77 154.44,145.72 C 154.46,145.52 154.46,145.4 154.47,145.28 C 154.5,144.98 154.53,144.72 154.56,144.44 C 154.61,144.02 154.72,143.61 154.91,143.22 C 155.09,142.84 155.33,142.48 155.59,142.13 C 155.79,141.86 155.99,141.59 156.06,141.28 C 156.11,141.09 156.1,140.86 156.06,140.63 C 156.03,140.44 155.99,140.25 156.0,140.06 C 156.01,139.93 156.03,139.8 156.09,139.72 C 156.12,139.69 156.15,139.67 156.19,139.66 z M 137.94,144.91 C 137.94,144.9 137.96,144.91 137.97,144.91 C 137.97,144.92 137.97,144.95 137.97,144.97 C 137.89,145.4 138.04,145.92 138.31,146.25 C 138.46,146.43 138.63,146.57 138.81,146.72 C 139.0,146.87 139.22,147.0 139.41,147.16 C 139.54,147.27 139.53,147.37 139.34,147.41 C 139.2,147.44 139.08,147.41 138.94,147.41 C 138.64,147.4 138.27,147.39 138.0,147.59 C 137.69,147.83 137.52,148.37 137.47,148.72 C 137.43,149.0 137.47,149.62 137.16,149.84 C 136.97,149.98 136.77,149.96 136.56,149.94 C 136.42,149.92 136.31,149.87 136.16,149.91 C 136.16,149.53 136.08,149.18 136.0,148.81 C 135.94,148.55 135.78,148.0 135.78,147.72 C 135.78,147.53 135.85,147.34 136.03,147.25 C 136.29,147.13 136.5,147.38 136.5,147.63 C 136.5,147.78 136.46,147.91 136.44,148.06 C 136.41,148.22 136.39,148.37 136.41,148.53 C 136.42,148.71 136.46,148.86 136.66,148.91 C 136.72,148.92 136.78,148.91 136.84,148.91 C 136.89,148.9 136.93,148.89 136.97,148.88 C 136.99,148.87 137.0,148.85 137.0,148.84 L 137.0,148.75 C 137.01,148.67 137.02,148.61 137.03,148.53 C 137.04,148.48 137.02,148.43 137.03,148.38 C 137.08,148.03 137.15,147.84 137.31,147.53 C 137.41,147.35 137.42,147.19 137.38,147.0 C 137.35,146.91 137.34,146.81 137.31,146.72 C 137.29,146.63 137.28,146.55 137.25,146.47 C 137.21,146.36 137.13,146.27 137.09,146.16 C 137.06,146.07 137.09,145.99 137.13,145.91 C 137.19,145.74 137.29,145.6 137.41,145.47 C 137.51,145.35 137.61,145.23 137.72,145.13 C 137.77,145.08 137.82,145.01 137.88,144.97 C 137.9,144.95 137.91,144.93 137.94,144.91 z" />
		
		
		<text id="txtTwo" transform="matrix(1 0 0 1 150 160)" style="stroke:none;fill:#f00;font-family:'Eras Medium ITC';font-size:20px;text-anchor:middle"  >

		</text>
		<!-- Prism Reference -->
		<cam mingh:cam=" --verb EditSelectAll --verb ZoomSelection --verb FileSave "/> 
	 </g>

</svg>