<svg
   xmlns:xlink="http://www.w3.org/1999/xlink"
   xmlns:svg="http://www.w3.org/2000/svg"
   xmlns="http://www.w3.org/2000/svg"
   xmlns:mingh="http://www.minghworld.com"
   width="300px"
   height="300px" >
	 <g>
		<!-- Paths -->
		<path style="fill:none;stroke:#000;stroke-width:0.25px;"
			d="M 136.71875 129.84375 C 135.71842 129.84647 134.70055 130.04154 133.78125 130.46875 C 131.91675 131.33533 130.52042 132.98858 129.90625 134.9375 C 129.26825 136.962 129.61508 139.01133 130.46875 140.875 C 131.33092 142.75725 132.64801 144.3185 134.28125 145.5625 C 135.08975 146.17834 135.94116 146.69291 136.84375 147.15625 C 137.30025 147.39058 137.77867 147.60975 138.25 147.8125 C 138.4875 147.91467 138.72842 147.99845 138.96875 148.09375 C 138.99885 148.10565 139.0323 148.14445 139.0625 148.15625 C 139.0832 148.16425 139.1675 148.1785 139.125 148.1875 C 139.06617 148.2001 138.9963 148.20605 138.9375 148.21875 C 138.81908 148.24425 138.68083 148.25555 138.5625 148.28125 C 137.817 148.44275 133.49175 149.41492 132.75 149.59375 C 131.77133 149.82967 130.816 150.07266 129.875 150.4375 C 129.479 150.591 128.85325 150.79566 128.59375 151.21875 C 128.31183 151.67825 128.401 152.24291 128.71875 152.65625 C 129.005 153.02841 129.41575 153.26616 129.6875 153.65625 C 129.97666 154.07116 130.10945 154.50341 130.15625 155 C 130.20225 155.48775 130.12225 155.94317 130 156.40625 C 129.8776 156.86984 129.76709 157.2855 129.90625 157.78125 C 130.0735 158.37691 130.46225 158.45175 131 158.25 C 131.46033 158.07725 131.7725 157.77275 132.125 157.46875 C 132.82817 156.86233 133.53441 156.24308 134.28125 155.6875 C 135.1945 155.00808 136.15625 154.44267 137.15625 153.90625 C 138.38792 153.24567 139.63275 152.63642 140.90625 152.0625 C 141.551 151.772 142.19333 151.49642 142.84375 151.21875 C 142.8843 151.20145 142.92815 151.17355 142.96875 151.15625 C 142.98905 151.14765 143.01095 151.134 143.03125 151.125 C 143.04135 151.1211 143.0523 151.129 143.0625 151.125 C 143.0687 151.122 143.09383 151.1128 143.09375 151.125 C 143.09375 151.17002 143.09275 151.205 143.09375 151.25 C 143.09665 151.34025 143.115 151.44155 143.125 151.53125 C 143.1449 151.71158 143.17105 151.8875 143.21875 152.0625 C 143.40025 152.72934 143.75867 153.32908 144.28125 153.78125 C 144.56917 154.03033 144.88425 154.24092 145.1875 154.46875 C 145.45508 154.66975 145.7325 154.8615 146 155.0625 C 146.66841 155.56467 147.47741 155.8048 148.3125 155.75 C 148.53283 155.73563 148.75508 155.71185 148.96875 155.65625 C 148.99515 155.64935 149.00495 155.632 149.03125 155.625 C 149.04425 155.6216 149.08065 155.629 149.09375 155.625 C 149.11555 155.6185 149.09475 155.64485 149.09375 155.65625 C 149.09175 155.66955 149.0645 155.6742 149.0625 155.6875 C 149.0497 155.79383 149.04435 155.89367 149.03125 156 C 149.00495 156.21292 148.99605 156.44358 148.96875 156.65625 C 148.85916 157.50975 148.7285 158.36883 148.59375 159.21875 C 148.34242 160.80416 148.06266 162.35683 147.625 163.90625 C 147.30216 165.049 146.86975 166.14391 146.375 167.21875 C 146.24433 167.50266 145.7863 168.4505 145.6875 168.75 C 145.5938 169.03391 145.53405 169.29192 145.59375 169.59375 C 145.66059 169.9315 145.81409 170.0763 146.15625 170.125 C 146.7705 170.21234 147.28316 169.90325 147.75 169.625 C 148.26341 169.31908 148.7645 169.0929 149.375 169.0625 C 149.91983 169.03533 150.37292 169.15717 150.84375 169.4375 C 151.28175 169.69834 151.664 170.0008 152.25 169.9375 C 152.80042 169.878 153.16225 169.495 153.28125 168.96875 C 153.3615 168.61408 153.42 167.82775 153.4375 167.46875 C 153.52333 165.70741 153.33134 163.21591 153.21875 161.46875 C 153.18685 160.97333 153.12655 160.46409 153.09375 159.96875 C 153.07755 159.72425 153.0793 159.4945 153.0625 159.25 C 153.0541 159.12883 153.04025 158.99617 153.03125 158.875 C 153.02755 158.81475 153.03525 158.7477 153.03125 158.6875 C 153.03619 158.69395 153.0575 158.68105 153.0625 158.6875 C 153.69158 159.50408 154.35942 160.27467 155.09375 161 C 156.573 162.46116 158.14809 163.55625 160.125 164.28125 C 161.99575 164.96725 164.177 165.25059 166.15625 164.71875 C 168.1265 164.18934 169.80867 162.83658 170.75 161.03125 C 171.72217 159.16675 171.82125 157.109 171.0625 155.15625 C 170.31641 153.23633 168.91409 151.85459 167.15625 150.875 C 164.79484 149.559 161.90733 149.04695 159.28125 148.96875 C 157.88292 148.92716 156.51175 149.005 155.125 149.1875 C 154.95867 149.2094 154.79093 149.2248 154.625 149.25 C 154.54284 149.2625 154.4571 149.26805 154.375 149.28125 C 154.3597 149.28325 154.3055 149.30995 154.3125 149.28125 C 154.3155 149.26685 154.34075 149.2645 154.34375 149.25 C 154.35015 149.2208 154.33775 149.18555 154.34375 149.15625 C 154.39055 148.91567 154.41025 148.6825 154.40625 148.4375 C 154.39742 147.93 154.31009 147.45916 154.09375 147 C 153.89092 146.56966 153.60358 146.22433 153.25 145.90625 C 153.06683 145.7415 152.88358 145.61608 152.6875 145.46875 C 152.387 145.243 152.08167 145.00692 151.78125 144.78125 C 151.55759 144.61317 151.34075 144.44875 151.09375 144.3125 C 150.67142 144.07942 150.22991 143.95495 149.75 143.90625 C 149.24408 143.85492 148.79475 143.90133 148.3125 144.0625 C 148.197 144.10113 148.0795 144.1371 147.96875 144.1875 C 147.91409 144.2125 147.8658 144.25355 147.8125 144.28125 C 147.786 144.29505 147.74485 144.2981 147.71875 144.3125 C 147.66225 144.3437 147.6925 144.2919 147.6875 144.25 C 147.64641 143.91667 147.6167 143.5815 147.5625 143.25 C 147.3525 141.96434 147.0245 140.70891 146.625 139.46875 C 146.52417 139.15575 146.426 138.87108 146.3125 138.5625 C 146.3021 138.534 146.32995 138.5565 146.34375 138.5625 C 146.35945 138.5697 146.39045 138.58675 146.40625 138.59375 C 146.43795 138.60765 146.4678 138.6119 146.5 138.625 C 146.56508 138.6516 146.6211 138.6646 146.6875 138.6875 C 146.8235 138.7346 146.98467 138.7808 147.125 138.8125 C 147.41675 138.8786 147.70075 138.90825 148 138.90625 C 149.19266 138.89992 150.29641 138.34558 151.03125 137.40625 C 152.58891 135.41491 151.86691 132.5085 149.5625 131.46875 C 147.27133 130.43508 144.63809 131.81434 144.15625 134.28125 C 143.02784 132.64959 141.52533 131.17425 139.625 130.40625 C 138.70196 130.03344 137.71908 129.84103 136.71875 129.84375 z M 147.96875 133.0625 C 148.22375 133.0625 148.48308 133.12115 148.71875 133.21875 C 148.95441 133.31634 149.16341 133.47592 149.34375 133.65625 C 149.52408 133.83667 149.68365 134.04558 149.78125 134.28125 C 149.87889 134.51692 149.9375 134.77617 149.9375 135.03125 C 149.9375 135.28625 149.87885 135.51434 149.78125 135.75 C 149.68367 135.98567 149.52408 136.22592 149.34375 136.40625 C 149.16341 136.58659 148.95441 136.7149 148.71875 136.8125 C 148.48316 136.91003 148.22383 136.96875 147.96875 136.96875 C 147.71366 136.96875 147.45441 136.9101 147.21875 136.8125 C 146.98308 136.71492 146.77408 136.58667 146.59375 136.40625 C 146.41341 136.22584 146.2851 135.98559 146.1875 135.75 C 146.08987 135.51442 146.03125 135.28634 146.03125 135.03125 C 146.03125 134.77617 146.0899 134.51692 146.1875 134.28125 C 146.28508 134.04558 146.41341 133.83667 146.59375 133.65625 C 146.77408 133.47592 146.98308 133.31635 147.21875 133.21875 C 147.45433 133.12112 147.71375 133.0625 147.96875 133.0625 z M 137.875 135.5 C 138.04675 135.5003 138.20775 135.50445 138.375 135.53125 C 138.45925 135.54475 138.5427 135.57355 138.625 135.59375 C 138.71659 135.61615 138.81785 135.6567 138.90625 135.6875 C 139.09258 135.75233 139.26784 135.81035 139.4375 135.90625 C 139.63035 136.01525 139.82858 136.14358 140 136.28125 C 140.1975 136.43983 140.359 136.62791 140.53125 136.8125 C 140.727 137.02225 140.92525 137.23659 141.09375 137.46875 C 141.28067 137.72609 141.43475 138.00508 141.59375 138.28125 C 141.80134 138.64183 141.98833 139.024 142.15625 139.40625 C 142.30434 139.7435 142.4405 140.0885 142.5625 140.4375 C 142.68818 140.79692 142.8055 141.16258 142.90625 141.53125 C 143.08008 142.16742 143.20884 142.8125 143.3125 143.46875 C 143.40091 144.02875 143.4636 144.5865 143.5 145.15625 C 142.66975 144.95367 141.86634 144.71008 141.0625 144.4375 C 140.56334 144.26825 140.07275 144.08683 139.59375 143.875 C 139.15291 143.68008 138.72433 143.46233 138.3125 143.21875 C 137.935 142.99541 137.55708 142.74342 137.21875 142.46875 C 136.90275 142.21225 136.60875 141.93183 136.34375 141.625 C 136.07909 141.31858 135.85692 141.00917 135.65625 140.65625 C 135.5565 140.48083 135.4564 140.279 135.375 140.09375 C 135.29775 139.91767 135.2451 139.74717 135.1875 139.5625 C 135.08778 139.24258 135.0153 138.90341 135 138.5625 C 134.9938 138.4235 134.9854 138.29633 135 138.15625 C 135.0076 138.08267 135.01715 138.0108 135.03125 137.9375 C 135.04715 137.85475 135.07015 137.7691 135.09375 137.6875 C 135.143 137.51709 135.20205 137.349 135.28125 137.1875 C 135.361 137.025 135.45517 136.86683 135.5625 136.71875 C 135.68067 136.55567 135.82042 136.41933 135.96875 136.28125 C 136.13625 136.12542 136.33366 135.95833 136.53125 135.84375 C 136.67308 135.7615 136.8155 135.71015 136.96875 135.65625 C 137.03683 135.63225 137.08675 135.61125 137.15625 135.59375 C 137.22891 135.57545 137.3015 135.54315 137.375 135.53125 C 137.53767 135.50495 137.71258 135.5 137.875 135.5 z M 158.34375 153.125 C 158.72592 153.1191 159.11983 153.13565 159.5 153.15625 C 159.86917 153.17628 160.22859 153.2016 160.59375 153.25 C 161.00767 153.30492 161.40842 153.36975 161.8125 153.46875 C 162.122 153.54467 162.45075 153.64217 162.75 153.75 C 163.01992 153.84725 163.27525 153.96408 163.53125 154.09375 C 163.7565 154.20783 163.98016 154.32325 164.1875 154.46875 C 164.3675 154.595 164.52917 154.75142 164.6875 154.90625 C 164.82692 155.0425 164.94834 155.18284 165.0625 155.34375 C 165.1167 155.42009 165.17165 155.4808 165.21875 155.5625 C 165.26114 155.63592 165.30735 155.7352 165.34375 155.8125 C 165.41607 155.96567 165.48325 156.11634 165.53125 156.28125 C 165.57675 156.43725 165.605 156.5865 165.625 156.75 C 165.6339 156.82392 165.65325 156.89395 165.65625 156.96875 C 165.65925 157.04042 165.66025 157.1155 165.65625 157.1875 C 165.64705 157.34975 165.602 157.52842 165.5625 157.6875 C 165.5074 157.90917 165.41558 158.10825 165.3125 158.3125 C 165.22116 158.49342 165.12374 158.68483 165 158.84375 C 164.88758 158.98808 164.75892 159.097 164.625 159.21875 C 164.492 159.33975 164.36866 159.4678 164.21875 159.5625 C 164.14691 159.60785 164.075 159.6492 164 159.6875 C 163.93358 159.7214 163.84985 159.75345 163.78125 159.78125 C 163.65075 159.83415 163.51025 159.87355 163.375 159.90625 C 163.04333 159.98647 162.71008 160.007 162.375 160 C 162.18158 159.9961 162.00308 159.99395 161.8125 159.96875 C 161.61191 159.94215 161.415 159.89065 161.21875 159.84375 C 160.82392 159.74934 160.43049 159.63766 160.0625 159.46875 C 159.69409 159.29958 159.33425 159.07583 159 158.84375 C 158.642 158.59525 158.3195 158.33159 158 158.03125 C 157.65141 157.70359 157.30992 157.33783 157 156.96875 C 156.66325 156.56767 156.36408 156.15109 156.0625 155.71875 C 155.577 155.02267 155.11316 154.30366 154.6875 153.5625 C 155.24491 153.43883 155.81259 153.3207 156.375 153.25 C 157.03417 153.1668 157.68434 153.1351 158.34375 153.125 z"
		 />
		 <path style="fill:#f00;stroke:none;"
			d="M 146.25,138.36 C 145.9,137.45 145.51,136.58 145.05,135.73 C 144.81,135.31 144.57,134.9 144.3,134.49 C 144.29,134.47 144.25,134.47 144.26,134.43 C 144.27,134.41 144.27,134.38 144.28,134.36 C 144.29,134.29 144.3,134.22 144.32,134.15 C 144.34,134.06 144.36,133.97 144.39,133.89 C 144.41,133.84 144.42,133.8 144.43,133.76 C 144.44,133.74 144.43,133.71 144.46,133.72 C 144.47,133.72 144.49,133.72 144.5,133.72 C 144.7,133.75 144.81,133.98 144.9,134.11 C 145.43,134.92 145.89,135.76 146.29,136.64 C 146.5,137.08 146.68,137.52 146.86,137.97 C 146.9,138.1 147.04,138.37 146.99,138.53 C 146.98,138.56 146.97,138.58 146.96,138.6 C 146.95,138.61 146.95,138.62 146.94,138.63 C 146.93,138.64 146.89,138.61 146.88,138.61 C 146.79,138.58 146.71,138.56 146.62,138.52 C 146.49,138.47 146.37,138.42 146.25,138.36 z M 142.38,151.26 C 142.36,150.42 142.59,149.6 143.04,148.89 C 143.06,148.85 143.1,148.83 143.1,148.77 C 143.09,148.73 143.09,148.7 143.08,148.66 C 143.07,148.59 143.06,148.51 143.05,148.44 C 143.03,148.29 143.01,148.14 143.0,148.0 C 142.98,147.85 142.96,147.7 142.94,147.55 C 142.93,147.52 142.93,147.48 142.92,147.44 C 142.92,147.43 142.91,147.44 142.9,147.44 C 142.9,147.44 142.89,147.44 142.88,147.44 C 142.86,147.45 142.84,147.45 142.83,147.45 C 142.76,147.46 142.69,147.47 142.62,147.49 C 141.93,147.6 141.25,147.73 140.57,147.87 C 140.22,147.94 139.87,148.01 139.52,148.08 C 139.48,148.09 139.44,148.1 139.39,148.11 C 139.38,148.12 139.27,148.07 139.26,148.07 C 139.17,148.03 139.08,148.0 139.0,147.97 C 138.82,147.9 138.65,147.83 138.47,147.75 C 138.31,147.68 138.14,147.61 137.98,147.54 C 137.97,147.53 137.96,147.53 137.95,147.53 C 137.95,147.52 137.93,147.52 137.94,147.52 C 137.94,147.52 137.95,147.52 137.96,147.52 C 137.98,147.51 138.0,147.51 138.02,147.5 C 138.07,147.49 138.11,147.48 138.15,147.47 C 138.24,147.45 138.33,147.44 138.41,147.42 C 138.76,147.34 139.11,147.27 139.46,147.19 C 140.16,147.04 140.86,146.9 141.56,146.77 C 141.91,146.71 142.26,146.65 142.61,146.59 C 142.66,146.58 142.7,146.57 142.75,146.57 C 142.76,146.57 142.81,146.58 142.81,146.55 C 142.8,146.53 142.8,146.51 142.8,146.49 C 142.79,146.4 142.77,146.31 142.76,146.22 C 142.74,146.04 142.72,145.87 142.69,145.69 C 142.67,145.51 142.64,145.34 142.62,145.16 C 142.61,145.12 142.61,145.07 142.6,145.03 C 142.6,145.01 142.62,145.03 142.63,145.04 C 142.64,145.04 142.65,145.04 142.66,145.05 C 142.69,145.05 142.71,145.06 142.73,145.07 C 142.81,145.09 142.9,145.12 142.98,145.14 C 143.15,145.2 143.33,145.25 143.5,145.3 C 143.56,145.31 143.54,145.36 143.55,145.4 C 143.55,145.45 143.56,145.49 143.56,145.53 C 143.58,145.62 143.59,145.71 143.6,145.8 C 143.69,146.45 143.77,147.11 143.86,147.76 C 143.86,147.8 143.88,147.74 143.89,147.73 C 143.91,147.71 143.92,147.69 143.94,147.67 C 143.97,147.63 144.0,147.59 144.02,147.56 C 144.08,147.48 144.14,147.4 144.2,147.33 C 144.31,147.17 144.43,147.02 144.54,146.87 C 144.77,146.56 145.0,146.25 145.23,145.95 C 145.45,145.66 145.66,145.38 145.87,145.1 C 146.12,144.77 146.36,144.46 146.67,144.19 C 146.83,144.05 147.0,143.92 147.19,143.81 C 147.28,143.75 147.37,143.7 147.46,143.65 C 147.48,143.64 147.47,143.66 147.47,143.67 C 147.47,143.68 147.47,143.69 147.47,143.7 C 147.47,143.72 147.48,143.74 147.48,143.76 C 147.48,143.8 147.49,143.83 147.5,143.87 C 147.52,144.02 147.54,144.17 147.55,144.33 C 147.56,144.36 147.59,144.39 147.54,144.42 C 147.52,144.43 147.5,144.45 147.47,144.47 C 147.42,144.5 147.38,144.53 147.33,144.56 C 147.05,144.77 146.82,145.01 146.61,145.29 C 146.39,145.58 146.18,145.87 145.96,146.16 C 145.53,146.74 145.09,147.31 144.66,147.89 C 144.42,148.21 143.67,149.17 143.49,149.53 C 143.32,149.83 143.22,150.15 143.15,150.49 C 143.13,150.57 143.12,150.66 143.11,150.75 C 143.11,150.79 143.1,150.84 143.1,150.88 C 143.1,150.91 143.09,150.93 143.09,150.95 C 143.09,150.96 143.03,150.98 143.02,150.99 C 142.81,151.08 142.59,151.17 142.38,151.26 z M 149.23,155.57 C 149.95,155.32 150.46,154.92 150.91,154.32 C 151.34,153.74 151.78,153.17 152.21,152.59 C 152.63,152.03 153.05,151.47 153.47,150.91 C 153.67,150.64 153.88,150.38 154.03,150.08 C 154.11,149.92 154.18,149.77 154.23,149.6 C 154.25,149.56 154.26,149.52 154.27,149.48 C 154.28,149.45 154.31,149.45 154.33,149.44 C 154.36,149.44 154.39,149.43 154.42,149.43 C 154.54,149.41 154.65,149.39 154.77,149.37 C 154.84,149.36 154.91,149.35 154.98,149.34 C 155.0,149.34 155.02,149.34 155.04,149.34 C 155.05,149.34 155.04,149.35 155.03,149.36 C 155.03,149.36 155.03,149.37 155.03,149.37 C 155.03,149.39 155.02,149.4 155.02,149.41 C 155.01,149.46 155.0,149.51 154.99,149.56 C 154.93,149.75 154.87,149.94 154.79,150.13 C 154.64,150.5 154.43,150.82 154.19,151.13 C 153.79,151.67 153.39,152.2 152.98,152.74 C 152.75,153.05 152.51,153.37 152.27,153.68 C 152.22,153.76 152.16,153.84 152.1,153.92 C 152.09,153.92 152.09,153.93 152.09,153.93 C 152.08,153.94 152.06,153.95 152.08,153.95 C 152.09,153.95 152.1,153.95 152.11,153.94 C 152.13,153.94 152.15,153.94 152.17,153.93 C 152.21,153.93 152.25,153.92 152.29,153.91 C 152.46,153.89 152.63,153.86 152.8,153.84 C 153.13,153.79 153.47,153.74 153.8,153.69 C 153.97,153.66 154.14,153.63 154.31,153.61 C 154.34,153.61 154.52,153.55 154.55,153.59 C 154.59,153.66 154.64,153.74 154.69,153.81 C 154.78,153.96 154.88,154.11 154.98,154.26 C 155.0,154.29 155.03,154.33 155.05,154.37 C 155.06,154.38 155.08,154.39 155.06,154.39 C 155.05,154.39 155.04,154.4 155.03,154.4 C 155.0,154.4 154.98,154.4 154.96,154.41 C 154.87,154.42 154.78,154.43 154.7,154.45 C 154.34,154.5 153.99,154.55 153.64,154.61 C 153.61,154.61 153.59,154.61 153.57,154.62 C 153.56,154.62 153.55,154.62 153.54,154.62 C 153.53,154.62 153.54,154.63 153.54,154.64 C 153.54,154.64 153.54,154.65 153.54,154.65 C 153.55,154.7 153.55,154.74 153.56,154.79 C 153.57,154.88 153.58,154.96 153.59,155.05 C 153.61,155.23 153.63,155.41 153.65,155.58 C 153.69,155.94 153.72,156.29 153.75,156.65 C 153.81,157.36 153.87,158.07 153.92,158.78 C 153.93,158.96 153.94,159.14 153.95,159.32 C 153.96,159.36 153.96,159.41 153.96,159.45 C 153.96,159.47 153.96,159.5 153.97,159.52 C 153.97,159.53 153.97,159.54 153.97,159.55 C 153.97,159.56 153.97,159.57 153.97,159.56 C 153.96,159.56 153.96,159.55 153.96,159.55 C 153.9,159.48 153.84,159.41 153.78,159.35 C 153.56,159.07 153.34,158.79 153.12,158.51 C 153.09,158.47 153.06,158.43 153.03,158.39 C 153.02,158.38 153.0,158.36 152.99,158.34 C 152.99,158.31 152.99,158.29 152.99,158.27 C 152.98,158.18 152.98,158.09 152.97,158.0 C 152.96,157.82 152.94,157.64 152.93,157.47 C 152.9,157.11 152.87,156.76 152.84,156.41 C 152.81,156.06 152.77,155.71 152.73,155.37 C 152.71,155.19 152.69,155.02 152.67,154.84 C 152.67,154.82 152.67,154.8 152.66,154.78 C 152.66,154.75 152.64,154.76 152.62,154.76 C 152.57,154.77 152.52,154.78 152.48,154.78 C 152.38,154.8 152.29,154.81 152.2,154.83 C 151.9,154.87 151.61,154.92 151.32,154.96 C 151.3,154.96 151.23,155.05 151.22,155.06 C 151.19,155.1 151.15,155.14 151.12,155.18 C 151.05,155.25 150.97,155.32 150.9,155.39 C 150.74,155.53 150.58,155.66 150.41,155.77 C 150.05,156.01 149.69,156.18 149.29,156.3 C 149.26,156.3 149.24,156.31 149.21,156.32 C 149.2,156.32 149.19,156.32 149.18,156.33 C 149.17,156.33 149.16,156.33 149.16,156.33 C 149.15,156.34 149.14,156.35 149.14,156.34 C 149.14,156.3 149.15,156.26 149.15,156.23 C 149.16,156.16 149.17,156.08 149.18,156.01 C 149.2,155.86 149.22,155.72 149.23,155.57 z"
		 />
		 <path style="fill:#00f;stroke:none;"
			d="M 152.65,149.82 C 152.65,147.66 150.91,145.92 148.75,145.92 C 146.6,145.92 144.85,147.66 144.85,149.82 C 144.85,151.97 146.6,153.72 148.75,153.72 C 150.91,153.72 152.65,151.97 152.65,149.82 z"
		 />
		
		<!-- Prism Reference -->
		<cam mingh:cam=" --verb EditSelectAll --verb ZoomSelection --verb FileSave "/> 
	 </g>

</svg>
