<svg
   xmlns:xlink="http://www.w3.org/1999/xlink"
   xmlns:svg="http://www.w3.org/2000/svg"
   xmlns="http://www.w3.org/2000/svg"
   xmlns:mingh="http://www.minghworld.com"
   width="300px"
   height="300px" >
	
	 <g>
		
		<!-- Paths -->
		<path transform="matrix(-1 0 0 1 300 0)" style="fill:#ff0;stroke:none;"
		 d="M 145.22,124.22 C 144.54,124.25 143.85,124.45 143.22,124.88 C 140.66,126.6 141.01,130.46 143.84,131.69 C 142.52,133.96 141.19,136.75 140.22,139.19 C 139.19,141.77 138.37,144.39 137.72,147.09 C 137.1,149.68 136.54,152.63 136.5,155.31 C 136.48,156.71 136.56,158.09 136.72,159.47 C 136.85,160.63 137.06,162.4 137.59,163.5 C 137.9,164.12 138.37,164.65 139.06,164.84 C 139.23,164.89 139.42,164.93 139.59,164.94 C 139.68,164.94 139.76,164.94 139.84,164.94 C 139.87,164.94 139.88,164.94 139.91,164.94 C 139.92,164.94 139.93,164.94 139.94,164.94 C 139.95,164.94 139.94,164.96 139.94,164.97 C 139.94,165.01 139.96,165.05 139.97,165.09 C 140.02,165.43 140.06,165.79 140.13,166.13 C 140.37,167.48 140.69,168.8 141.09,170.13 C 141.46,171.33 141.98,172.89 142.81,173.91 C 143.7,174.99 145.09,175.67 146.47,175.78 C 149.24,176.01 152.03,173.99 153.69,172.16 C 155.54,170.11 156.8,167.51 157.72,164.97 C 158.19,163.67 158.57,162.35 158.88,161.0 C 159.17,159.71 159.35,158.42 159.34,157.09 C 159.34,156.44 159.31,155.81 159.25,155.16 C 159.18,154.37 159.06,153.59 158.88,152.81 C 158.85,152.69 158.81,152.56 158.78,152.44 C 158.77,152.41 158.76,152.37 158.75,152.34 C 158.75,152.33 158.75,152.33 158.75,152.31 C 158.75,152.3 158.75,152.29 158.75,152.28 C 158.75,152.27 158.7,152.25 158.72,152.25 C 158.77,152.24 158.83,152.23 158.88,152.22 C 159.05,152.18 159.21,152.15 159.38,152.09 C 159.69,151.99 160.0,151.85 160.28,151.69 C 160.89,151.34 161.3,150.88 161.66,150.28 C 162.23,149.31 162.88,147.52 163.16,146.44 C 163.49,145.13 163.67,143.66 163.34,142.31 C 163.0,140.91 162.1,139.81 161.09,138.88 C 160.06,137.92 158.93,137.13 157.72,136.44 C 155.64,135.25 153.45,134.36 151.25,133.47 C 150.15,133.02 149.04,132.58 147.94,132.16 C 147.66,132.05 147.37,131.95 147.09,131.84 C 147.02,131.82 146.98,131.78 146.91,131.75 C 146.89,131.74 146.86,131.76 146.84,131.75 C 146.83,131.74 146.87,131.72 146.88,131.72 C 146.89,131.71 146.89,131.73 146.91,131.72 C 146.97,131.69 147.03,131.66 147.09,131.63 C 147.36,131.5 147.62,131.34 147.84,131.16 C 148.81,130.38 149.36,129.2 149.31,127.97 C 149.23,125.68 147.26,124.13 145.22,124.22 z M 145.41,126.16 C 145.66,126.16 145.92,126.21 146.16,126.31 C 146.39,126.41 146.6,126.57 146.78,126.75 C 146.96,126.93 147.12,127.14 147.22,127.38 C 147.32,127.61 147.34,127.87 147.34,128.13 C 147.34,128.38 147.32,128.61 147.22,128.84 C 147.12,129.08 146.96,129.32 146.78,129.5 C 146.6,129.68 146.39,129.81 146.16,129.91 C 145.92,130.0 145.66,130.06 145.41,130.06 C 145.15,130.06 144.89,130.0 144.66,129.91 C 144.42,129.81 144.21,129.68 144.03,129.5 C 143.85,129.32 143.69,129.08 143.59,128.84 C 143.5,128.61 143.47,128.38 143.47,128.13 C 143.47,127.87 143.5,127.61 143.59,127.38 C 143.69,127.14 143.85,126.93 144.03,126.75 C 144.21,126.57 144.42,126.41 144.66,126.31 C 144.89,126.21 145.15,126.16 145.41,126.16 z M 147.09,133.53 C 148.06,133.9 149.04,134.3 150.0,134.69 C 150.84,135.02 151.67,135.37 152.5,135.72 C 153.37,136.09 154.21,136.46 155.06,136.88 C 155.79,137.23 156.52,137.59 157.22,138.0 C 157.49,138.16 157.77,138.36 158.03,138.53 C 158.13,138.6 158.22,138.67 158.31,138.75 C 158.45,138.87 158.6,138.99 158.72,139.13 C 158.83,139.24 158.91,139.37 159.0,139.5 C 159.08,139.62 159.16,139.72 159.22,139.84 C 159.24,139.89 159.26,139.92 159.28,139.97 C 159.32,140.05 159.36,140.16 159.38,140.25 C 159.39,140.33 159.41,140.41 159.41,140.5 C 159.41,140.61 159.4,140.71 159.38,140.81 C 159.35,140.91 159.32,141.0 159.28,141.09 C 159.26,141.14 159.25,141.18 159.22,141.22 C 159.18,141.27 159.14,141.33 159.09,141.38 C 159.02,141.44 158.91,141.5 158.81,141.53 C 158.73,141.56 158.65,141.59 158.56,141.59 C 158.45,141.6 158.36,141.57 158.25,141.56 C 157.93,141.53 157.62,141.48 157.31,141.38 C 157.23,141.35 157.15,141.31 157.06,141.28 C 156.86,141.21 156.66,141.11 156.47,141.03 C 156.0,140.83 155.54,140.61 155.09,140.38 C 154.64,140.13 154.19,139.88 153.75,139.63 C 153.16,139.28 152.57,138.93 152.0,138.56 C 151.43,138.2 150.88,137.79 150.34,137.38 C 149.82,136.97 149.32,136.53 148.84,136.06 C 148.7,135.88 148.55,135.69 148.41,135.5 C 148.23,135.26 148.07,135.03 147.91,134.78 C 147.74,134.54 147.59,134.31 147.44,134.06 C 147.33,133.89 147.2,133.71 147.09,133.53 z M 146.06,136.19 C 146.2,136.38 146.33,136.56 146.47,136.75 C 147.01,137.47 147.59,138.17 148.19,138.84 C 148.33,139.28 148.42,139.74 148.5,140.19 C 148.52,140.32 148.54,140.46 148.56,140.59 C 147.92,139.78 147.34,138.93 146.78,138.06 C 146.57,137.74 146.38,137.4 146.19,137.06 C 146.17,136.94 146.14,136.84 146.13,136.72 C 146.1,136.55 146.08,136.36 146.06,136.19 z M 149.66,140.44 C 149.92,140.71 150.19,140.96 150.47,141.22 C 150.86,141.59 151.27,141.97 151.66,142.34 C 151.99,142.66 152.33,142.99 152.63,143.34 C 152.97,143.75 153.25,144.18 153.47,144.66 C 153.61,144.96 153.72,145.27 153.78,145.59 C 153.53,145.42 153.28,145.25 153.03,145.06 C 152.64,144.76 152.28,144.45 151.91,144.13 C 151.52,143.79 151.14,143.42 150.78,143.06 C 150.53,142.81 150.27,142.57 150.03,142.31 C 150.0,142.05 149.99,141.76 149.94,141.5 C 149.87,141.14 149.76,140.79 149.66,140.44 z M 144.56,140.91 C 144.69,141.46 144.85,142.02 145.0,142.56 C 145.16,143.12 145.31,143.67 145.5,144.22 C 145.67,144.71 145.85,145.18 146.06,145.66 C 146.26,146.1 146.48,146.52 146.72,146.94 C 146.93,147.31 147.14,147.67 147.38,148.03 C 147.57,148.33 147.79,148.61 148.0,148.91 C 148.16,149.13 148.31,149.37 148.47,149.59 C 148.57,149.74 148.68,149.91 148.78,150.06 C 148.85,150.16 148.91,150.24 148.97,150.34 C 149.01,150.41 149.04,150.49 149.06,150.56 C 149.09,150.63 149.12,150.68 149.13,150.75 C 149.13,150.81 149.13,150.87 149.13,150.94 C 149.12,151.01 149.13,151.08 149.13,151.16 C 149.11,151.27 149.08,151.41 149.06,151.53 C 149.03,151.73 148.98,151.9 148.94,152.09 C 148.87,152.39 148.8,152.68 148.72,152.97 C 148.65,153.2 148.58,153.43 148.5,153.66 C 148.19,153.52 147.87,153.35 147.59,153.16 C 147.15,152.84 146.78,152.47 146.47,152.03 C 146.09,151.5 145.81,150.9 145.59,150.28 C 145.38,149.68 145.21,149.07 145.09,148.5 C 144.93,147.72 144.85,147.02 144.78,146.31 C 144.68,145.26 144.62,144.16 144.56,140.91 z M 146.97,141.06 C 147.12,141.26 147.28,141.46 147.44,141.66 C 147.86,142.19 148.29,142.71 148.75,143.22 C 148.74,143.43 148.7,143.63 148.66,143.84 C 148.62,144.01 148.56,144.19 148.5,144.34 C 148.47,144.42 148.44,144.49 148.41,144.56 C 148.38,144.61 148.37,144.67 148.34,144.72 C 148.31,144.78 148.28,144.82 148.25,144.88 C 148.24,144.86 148.23,144.86 148.22,144.84 C 148.03,144.42 147.87,143.97 147.72,143.53 C 147.55,143.05 147.39,142.55 147.25,142.06 C 147.15,141.73 147.05,141.4 146.97,141.06 z M 154.19,141.66 C 154.24,141.69 154.32,141.72 154.38,141.75 C 154.86,142.01 155.34,142.25 155.84,142.47 C 156.06,142.56 156.28,142.67 156.5,142.75 C 156.55,142.77 156.6,142.76 156.66,142.78 C 156.75,142.82 156.84,142.86 156.94,142.91 C 157.25,143.05 157.57,143.21 157.88,143.38 C 158.18,143.54 158.47,143.73 158.75,143.94 C 159.01,144.13 159.24,144.35 159.47,144.59 C 159.59,144.73 159.72,144.85 159.81,145.0 C 159.89,145.13 159.96,145.29 160.0,145.44 C 160.02,145.52 160.02,145.6 160.03,145.69 C 160.04,145.78 160.07,145.88 160.06,145.97 C 160.06,146.07 160.02,146.15 160.0,146.25 C 159.98,146.34 159.97,146.44 159.94,146.53 C 159.89,146.66 159.85,146.79 159.78,146.91 C 159.75,146.96 159.69,147.01 159.66,147.06 C 159.62,147.1 159.6,147.15 159.56,147.19 C 159.52,147.23 159.48,147.25 159.44,147.28 C 159.39,147.31 159.33,147.35 159.28,147.38 C 159.18,147.43 159.08,147.47 158.97,147.5 C 158.85,147.53 158.74,147.52 158.63,147.53 C 158.51,147.54 158.4,147.57 158.28,147.56 C 158.03,147.55 157.78,147.5 157.53,147.44 C 157.17,147.35 156.81,147.23 156.47,147.09 C 156.33,147.04 156.2,146.97 156.06,146.91 C 156.06,146.9 156.06,146.88 156.06,146.88 C 156.12,146.48 156.12,146.09 156.09,145.69 C 156.07,145.29 156.01,144.89 155.91,144.5 C 155.82,144.2 155.72,143.91 155.59,143.63 C 155.47,143.34 155.29,143.07 155.13,142.81 C 154.98,142.58 154.83,142.37 154.66,142.16 C 154.51,141.98 154.34,141.82 154.19,141.66 z M 142.59,142.25 C 142.59,142.41 142.59,142.56 142.59,142.72 C 142.6,143.87 142.66,145.04 142.78,146.19 C 142.68,146.71 142.59,147.22 142.47,147.75 C 142.19,149.02 141.86,150.31 141.16,151.34 C 141.2,150.86 141.26,150.36 141.31,149.88 C 141.59,147.31 142.01,144.76 142.59,142.25 z M 150.03,144.53 C 150.77,145.25 151.54,145.92 152.38,146.53 C 152.79,146.84 153.23,147.13 153.63,147.47 C 153.65,147.49 153.6,147.55 153.59,147.56 C 153.58,147.59 153.55,147.6 153.53,147.63 C 153.5,147.68 153.48,147.73 153.44,147.78 C 153.36,147.88 153.26,147.98 153.16,148.06 C 152.96,148.23 152.75,148.36 152.5,148.44 C 151.99,148.6 151.44,148.51 150.97,148.31 C 150.73,148.21 150.53,148.09 150.31,147.94 C 150.21,147.87 150.09,147.8 150.0,147.72 C 149.9,147.63 149.83,147.51 149.75,147.41 C 149.68,147.3 149.6,147.2 149.53,147.09 C 149.49,147.04 149.44,146.99 149.41,146.94 C 149.4,146.92 149.42,146.92 149.41,146.91 C 149.39,146.89 149.4,146.86 149.41,146.84 C 149.42,146.81 149.43,146.78 149.44,146.75 C 149.54,146.51 149.64,146.28 149.72,146.03 C 149.87,145.54 149.97,145.05 150.03,144.53 z M 139.97,147.5 C 139.71,149.31 139.54,151.12 139.44,152.94 C 139.27,153.05 139.08,153.16 138.91,153.25 C 138.94,152.97 138.99,152.69 139.03,152.41 C 139.14,151.62 139.25,150.84 139.41,150.06 C 139.57,149.2 139.76,148.35 139.97,147.5 z M 155.19,149.19 C 155.24,149.27 155.29,149.32 155.34,149.41 C 155.43,149.54 155.52,149.68 155.59,149.81 C 155.65,149.91 155.7,150.03 155.75,150.13 C 155.84,150.31 155.89,150.49 155.94,150.69 C 155.96,150.79 155.99,150.87 156.0,150.97 C 156.02,151.09 156.03,151.23 156.03,151.34 C 156.03,151.47 156.02,151.6 156.0,151.72 C 155.99,151.8 155.96,151.86 155.94,151.94 C 155.91,152.04 155.87,152.16 155.81,152.25 C 155.77,152.33 155.72,152.4 155.66,152.47 C 155.6,152.52 155.53,152.58 155.47,152.63 C 155.39,152.67 155.33,152.68 155.25,152.72 C 155.16,152.76 155.04,152.79 154.94,152.81 C 154.83,152.84 154.73,152.86 154.63,152.88 C 154.52,152.89 154.42,152.88 154.31,152.88 C 154.21,152.87 154.13,152.89 154.03,152.88 C 153.85,152.85 153.64,152.79 153.47,152.72 C 153.33,152.67 153.21,152.61 153.09,152.53 C 153.04,152.5 152.98,152.45 152.94,152.41 C 152.89,152.36 152.86,152.33 152.81,152.28 C 152.76,152.23 152.7,152.18 152.66,152.13 C 152.51,151.97 152.36,151.79 152.22,151.63 C 151.97,151.34 151.74,151.07 151.5,150.78 C 151.6,150.8 151.68,150.83 151.78,150.84 C 152.11,150.88 152.46,150.87 152.78,150.81 C 153.11,150.76 153.42,150.66 153.72,150.5 C 153.88,150.42 154.04,150.29 154.19,150.19 C 154.34,150.07 154.49,149.95 154.63,149.81 C 154.77,149.67 154.91,149.54 155.03,149.38 C 155.08,149.31 155.14,149.25 155.19,149.19 z M 143.63,150.31 C 143.63,150.34 143.65,150.38 143.66,150.41 C 143.81,151.19 143.9,151.96 143.97,152.75 C 144.0,153.09 144.04,153.44 144.06,153.78 C 144.08,154.04 144.09,154.3 144.09,154.56 C 144.1,154.82 144.1,155.08 144.09,155.34 C 144.09,155.61 144.08,155.89 144.06,156.16 C 144.05,156.43 144.02,156.69 144.0,156.97 C 143.97,157.25 143.95,157.54 143.91,157.81 C 143.87,158.02 143.83,158.23 143.78,158.44 C 143.75,158.56 143.73,158.66 143.69,158.78 C 143.64,158.92 143.57,159.07 143.5,159.19 C 143.46,159.25 143.43,159.32 143.38,159.38 C 143.35,159.4 143.34,159.42 143.31,159.44 C 143.26,159.48 143.19,159.51 143.13,159.53 C 143.05,159.56 142.98,159.59 142.91,159.59 C 142.83,159.6 142.76,159.57 142.69,159.56 C 142.62,159.55 142.56,159.56 142.5,159.53 C 142.47,159.52 142.43,159.49 142.41,159.47 C 142.35,159.43 142.29,159.4 142.25,159.34 C 142.22,159.31 142.21,159.25 142.19,159.22 C 142.15,159.16 142.1,159.1 142.06,159.03 C 142.01,158.93 141.98,158.85 141.94,158.75 C 141.88,158.6 141.82,158.44 141.78,158.28 C 141.73,158.06 141.69,157.85 141.66,157.63 C 141.62,157.38 141.59,157.15 141.56,156.91 C 141.5,156.38 141.48,155.84 141.44,155.31 C 141.4,154.77 141.35,154.26 141.34,153.72 C 141.4,153.66 141.47,153.59 141.53,153.53 C 142.16,152.86 142.71,152.09 143.16,151.28 C 143.33,150.97 143.48,150.64 143.63,150.31 z M 151.03,153.25 C 151.14,153.4 151.24,153.54 151.34,153.69 C 151.67,154.16 152.0,154.64 152.34,155.09 C 152.61,155.44 152.89,155.78 153.16,156.13 C 153.36,156.39 153.56,156.64 153.75,156.91 C 153.91,157.12 154.07,157.34 154.22,157.56 C 154.34,157.75 154.45,157.94 154.56,158.13 C 154.71,158.36 154.85,158.6 154.97,158.84 C 155.12,159.14 155.24,159.44 155.34,159.75 C 155.43,160.01 155.51,160.26 155.56,160.53 C 155.61,160.76 155.64,161.02 155.66,161.25 C 155.67,161.46 155.66,161.67 155.63,161.88 C 155.6,162.06 155.57,162.23 155.5,162.41 C 155.43,162.58 155.3,162.75 155.19,162.91 C 155.07,163.07 154.94,163.22 154.78,163.34 C 154.63,163.47 154.46,163.58 154.28,163.66 C 154.11,163.73 153.93,163.76 153.75,163.78 C 153.61,163.8 153.48,163.82 153.34,163.81 C 153.19,163.8 153.02,163.76 152.88,163.72 C 152.71,163.68 152.56,163.63 152.41,163.56 C 152.19,163.47 151.98,163.37 151.78,163.25 C 151.44,163.05 151.11,162.79 150.81,162.53 C 150.47,162.23 150.14,161.91 149.84,161.56 C 149.67,161.36 149.53,161.15 149.38,160.94 C 149.22,160.72 149.07,160.51 148.94,160.28 C 148.72,159.92 148.52,159.53 148.34,159.16 C 148.35,159.15 148.37,159.16 148.38,159.16 C 148.7,158.68 149.0,158.17 149.28,157.66 C 149.55,157.16 149.81,156.67 150.03,156.16 C 150.24,155.68 150.42,155.18 150.59,154.69 C 150.75,154.24 150.88,153.8 151.0,153.34 C 151.01,153.31 151.02,153.28 151.03,153.25 z M 146.5,154.69 C 146.9,155.0 147.33,155.24 147.78,155.47 C 147.76,155.51 147.74,155.55 147.72,155.59 C 147.57,155.92 147.43,156.28 147.25,156.59 C 147.13,156.31 147.02,156.0 146.91,155.72 C 146.77,155.37 146.64,155.04 146.5,154.69 z M 139.34,155.34 C 139.3,157.72 139.39,160.09 139.63,162.44 C 139.6,162.37 139.59,162.32 139.56,162.25 C 139.52,162.13 139.47,162.0 139.44,161.88 C 139.39,161.68 139.35,161.48 139.31,161.28 C 139.26,161.03 139.22,160.79 139.19,160.53 C 139.14,160.21 139.1,159.88 139.06,159.56 C 139.02,159.2 138.97,158.84 138.94,158.47 C 138.9,158.06 138.87,157.63 138.84,157.22 C 138.82,156.78 138.79,156.34 138.78,155.91 C 138.78,155.83 138.78,155.76 138.78,155.69 C 138.97,155.58 139.16,155.46 139.34,155.34 z M 145.41,156.22 C 145.42,156.24 145.43,156.26 145.44,156.28 C 145.69,156.92 145.95,157.56 146.22,158.19 C 145.98,158.51 145.74,158.82 145.47,159.13 C 145.18,159.45 144.86,159.77 144.53,160.06 C 144.58,159.99 144.64,159.92 144.69,159.84 C 144.8,159.64 144.9,159.44 144.97,159.22 C 145.02,159.06 145.06,158.88 145.09,158.72 C 145.15,158.48 145.18,158.24 145.22,158.0 C 145.26,157.7 145.32,157.4 145.34,157.09 C 145.37,156.8 145.39,156.51 145.41,156.22 z M 147.28,160.56 C 147.37,160.75 147.45,160.93 147.53,161.13 C 147.8,161.72 148.09,162.32 148.38,162.91 C 148.61,163.37 148.85,163.82 149.09,164.28 C 149.33,164.72 149.55,165.15 149.78,165.59 C 150.0,166.01 150.19,166.44 150.38,166.88 C 150.47,167.1 150.57,167.33 150.66,167.56 C 150.7,167.69 150.74,167.81 150.78,167.94 C 150.85,168.15 150.92,168.37 150.97,168.59 C 151.02,168.81 151.05,169.03 151.06,169.25 C 151.08,169.46 151.06,169.66 151.03,169.88 C 151.01,170.02 150.98,170.17 150.94,170.31 C 150.91,170.42 150.89,170.55 150.84,170.66 C 150.8,170.76 150.75,170.84 150.69,170.94 C 150.63,171.02 150.57,171.11 150.5,171.19 C 150.44,171.25 150.38,171.29 150.31,171.34 C 150.18,171.45 150.04,171.53 149.88,171.59 C 149.78,171.63 149.66,171.66 149.56,171.69 C 149.38,171.73 149.19,171.75 149.0,171.75 C 148.9,171.75 148.81,171.76 148.72,171.75 C 148.62,171.74 148.53,171.74 148.44,171.72 C 148.26,171.68 148.08,171.63 147.91,171.56 C 147.74,171.49 147.59,171.38 147.44,171.28 C 147.27,171.18 147.11,171.06 146.97,170.94 C 146.89,170.87 146.82,170.82 146.75,170.75 C 146.57,170.58 146.41,170.38 146.25,170.19 C 146.07,169.97 145.88,169.73 145.72,169.5 C 145.55,169.25 145.4,169.01 145.25,168.75 C 145.09,168.47 144.93,168.19 144.78,167.91 C 144.58,167.53 144.37,167.14 144.19,166.75 C 143.82,165.99 143.5,165.19 143.19,164.41 C 143.11,164.22 143.04,164.03 142.97,163.84 C 143.19,163.74 143.41,163.65 143.63,163.53 C 144.02,163.32 144.41,163.07 144.78,162.81 C 145.23,162.5 145.63,162.17 146.03,161.81 C 146.46,161.43 146.87,161.03 147.25,160.59 C 147.26,160.58 147.27,160.57 147.28,160.56 z M 141.94,160.75 C 142.11,160.82 142.29,160.88 142.47,160.91 C 142.66,160.93 142.87,160.93 143.06,160.91 C 143.25,160.89 143.42,160.85 143.59,160.78 C 143.63,160.77 143.68,160.77 143.72,160.75 C 143.48,160.93 143.23,161.09 142.97,161.25 C 142.72,161.4 142.48,161.53 142.22,161.66 C 142.13,161.36 142.02,161.05 141.94,160.75 z" />
		
		
		<text id="txtTwo" transform="matrix(1 0 0 1 150 160)" style="stroke:none;fill:#f00;font-family:'Eras Medium ITC';font-size:20px;text-anchor:middle"  >

		</text>
		<!-- Prism Reference -->
		<cam mingh:cam=" --verb EditSelectAll --verb ZoomSelection --verb FileSave "/> 
	 </g>

</svg>