<svg
   xmlns:xlink="http://www.w3.org/1999/xlink"
   xmlns:svg="http://www.w3.org/2000/svg"
   xmlns="http://www.w3.org/2000/svg"
   xmlns:mingh="http://www.minghworld.com"
   width="300px"
   height="300px" >
	
	 <g>
		<!-- Paths -->
		<path style="fill:none;stroke:#000;stroke-width:0.25px;"
			d="M 151.57,137.4 C 151.98,136.34 152.17,134.84 151.97,133.7 C 151.86,133.05 151.61,132.51 151.02,132.14 C 150.48,131.8 149.8,131.75 149.22,132.01 C 148.63,132.27 148.2,132.79 148.08,133.42 C 147.95,134.11 148.18,134.66 148.58,135.18 C 149.28,136.1 150.51,136.98 151.57,137.4 z M 147.93,152.64 C 148.31,153.26 148.74,153.83 149.18,154.41 C 149.56,154.91 149.94,155.4 150.42,155.78 C 150.69,155.99 150.98,156.16 151.29,156.31 C 151.85,156.57 152.47,156.74 153.11,156.66 C 153.35,156.63 153.6,156.57 153.76,156.42 C 153.93,156.25 154.0,155.98 154.01,155.72 C 154.02,155.42 153.93,155.13 153.79,154.86 C 153.68,154.64 153.53,154.44 153.38,154.24 C 153.25,154.07 153.13,153.91 153.0,153.75 C 152.66,153.86 152.32,153.93 151.97,153.95 C 151.63,153.97 151.29,153.95 150.95,153.89 C 150.3,153.77 149.67,153.52 149.07,153.23 C 148.68,153.05 148.3,152.86 147.93,152.64 z M 154.32,139.25 C 154.84,140.07 155.43,140.88 156.1,141.61 C 156.96,142.56 157.94,143.39 159.0,144.28 C 159.6,144.77 160.23,145.28 160.83,145.72 C 161.2,146.0 161.57,146.25 161.94,146.54 C 162.13,146.69 162.32,146.85 162.4,147.07 C 162.44,147.18 162.45,147.31 162.44,147.43 C 162.41,147.62 162.31,147.79 162.17,147.92 C 162.02,148.06 161.83,148.15 161.63,148.23 C 161.38,148.33 161.13,148.42 160.86,148.47 C 160.69,148.49 160.52,148.5 160.34,148.49 C 160.19,148.48 160.04,148.44 159.89,148.39 C 159.67,148.32 159.46,148.22 159.26,148.11 C 158.99,147.98 158.73,147.84 158.45,147.69 C 158.03,147.46 157.57,147.19 157.15,146.95 C 156.77,146.73 156.43,146.54 156.09,146.34 C 155.75,146.14 155.4,145.93 155.06,145.72 C 155.29,145.97 155.51,146.24 155.71,146.52 C 155.9,146.78 156.08,147.05 156.24,147.34 C 156.35,147.55 156.45,147.78 156.45,148.01 C 156.45,148.25 156.33,148.49 156.18,148.69 C 156.02,148.89 155.83,149.04 155.64,149.19 C 155.35,149.4 155.04,149.6 154.72,149.77 C 154.59,149.84 154.45,149.91 154.32,149.97 C 154.42,150.16 154.51,150.35 154.57,150.56 C 154.7,151.01 154.67,151.5 154.68,151.98 C 154.69,152.3 154.7,152.61 154.71,152.92 C 154.86,153.05 155.01,153.19 155.16,153.33 C 155.49,153.66 155.8,154.01 156.04,154.41 C 156.29,154.83 156.46,155.31 156.45,155.79 C 156.45,156.07 156.38,156.35 156.26,156.6 C 156.14,156.87 155.96,157.12 155.77,157.35 C 155.36,157.86 154.87,158.32 154.32,158.66 C 154.57,159.59 154.89,161.17 155.02,161.76 C 155.06,161.92 155.08,162.01 155.17,162.21 C 155.2,162.27 155.23,162.34 155.27,162.4 C 155.32,162.47 155.38,162.54 155.44,162.6 C 155.64,162.79 155.86,162.94 156.08,163.1 C 156.44,163.36 156.79,163.62 157.16,163.88 C 158.0,164.49 158.88,165.07 159.71,165.68 C 160.37,166.18 160.99,166.69 161.6,167.34 C 161.99,167.75 162.38,168.22 162.37,168.75 C 162.37,169.11 162.2,169.49 161.92,169.74 C 161.66,169.96 161.33,170.07 160.99,170.09 C 160.38,170.14 159.77,169.93 159.21,169.66 C 158.7,169.41 158.22,169.13 157.76,168.81 C 157.01,168.29 156.33,167.69 155.69,167.04 C 155.2,166.54 154.74,166.03 154.31,165.49 C 153.8,164.88 153.33,164.25 152.88,163.59 C 152.6,163.45 152.31,163.3 152.02,163.15 C 151.58,162.93 151.14,162.72 150.7,162.51 C 150.39,162.36 150.08,162.22 149.77,162.07 C 149.04,161.74 148.29,161.41 147.54,161.11 C 146.71,160.77 145.88,160.46 145.0,160.15 C 144.19,159.88 143.34,159.61 142.58,159.41 C 142.19,159.3 141.82,159.22 141.39,159.15 C 141.11,159.11 140.81,159.08 140.74,159.21 C 140.67,159.34 140.82,159.61 140.96,159.85 C 141.29,160.39 141.61,160.76 142.01,161.14 C 142.44,161.54 142.99,161.96 143.53,162.33 C 144.13,162.74 144.74,163.09 145.37,163.39 C 145.99,163.68 146.64,163.93 147.29,164.15 C 147.81,164.32 148.33,164.48 148.86,164.61 C 148.67,164.43 148.54,164.22 148.41,163.98 C 148.28,163.74 148.17,163.48 148.24,163.22 C 148.28,163.07 148.39,162.92 148.53,162.86 C 148.72,162.78 148.95,162.84 149.15,162.94 C 149.58,163.17 149.82,163.57 150.13,163.92 C 150.45,164.29 150.85,164.59 151.27,164.86 C 151.6,165.07 151.95,165.27 152.26,165.51 C 152.53,165.72 152.78,165.96 152.94,166.28 C 153.1,166.63 153.16,167.09 153.0,167.39 C 152.78,167.79 152.2,167.93 151.69,167.99 C 151.21,168.04 150.79,168.03 150.36,167.99 C 149.09,167.89 147.75,167.66 146.47,167.29 C 145.28,166.95 144.14,166.49 143.08,165.88 C 142.52,165.55 141.98,165.18 141.47,164.77 C 140.61,164.07 139.85,163.23 139.19,162.33 C 138.71,161.67 138.27,160.98 137.94,160.23 C 137.77,159.83 137.62,159.42 137.57,158.97 C 137.51,158.39 137.63,157.76 137.98,157.3 C 138.2,157.02 138.51,156.81 138.83,156.67 C 139.89,156.2 141.15,156.53 142.32,156.87 C 143.43,157.18 144.45,157.5 145.5,157.83 C 146.14,158.04 146.8,158.25 147.42,158.5 C 148.2,158.81 148.93,159.16 149.74,159.56 C 150.1,159.74 150.47,159.93 150.66,160.02 C 150.69,160.04 150.72,160.05 150.77,160.05 C 150.82,160.06 150.9,160.05 150.96,160.01 C 151.02,159.98 151.07,159.91 151.1,159.85 C 151.15,159.73 151.11,159.63 151.06,159.52 C 150.96,159.25 150.83,158.91 150.7,158.66 C 150.31,158.46 149.92,158.25 149.54,158.02 C 148.99,157.68 148.45,157.32 147.96,156.91 C 147.34,156.4 146.8,155.8 146.36,155.11 C 145.9,154.41 145.56,153.61 145.51,152.78 C 145.49,152.48 145.51,152.17 145.62,151.87 C 145.75,151.51 146.02,151.17 146.37,151.03 C 146.61,150.93 146.89,150.94 147.14,150.99 C 147.21,150.9 147.29,150.83 147.37,150.76 C 147.5,150.65 147.66,150.57 147.83,150.51 C 148.12,150.4 148.44,150.38 148.75,150.39 C 149.28,150.41 149.79,150.52 150.3,150.65 C 150.64,150.74 150.99,150.84 151.32,150.97 C 151.29,150.83 151.24,150.69 151.18,150.56 C 151.13,150.46 151.08,150.36 151.01,150.27 C 150.92,150.15 150.82,150.05 150.7,149.97 C 150.23,149.62 149.76,149.25 149.3,148.88 C 148.53,148.26 147.76,147.63 147.05,146.93 C 146.75,146.64 146.46,146.33 146.2,146.01 C 146.04,145.82 145.9,145.62 145.77,145.41 C 145.64,145.2 145.52,144.97 145.5,144.73 C 145.49,144.56 145.52,144.39 145.58,144.23 C 145.63,144.08 145.71,143.95 145.8,143.82 C 145.94,143.62 146.13,143.43 146.36,143.34 C 146.53,143.27 146.72,143.25 146.89,143.27 C 147.11,143.3 147.31,143.38 147.5,143.47 C 147.82,143.62 148.12,143.79 148.42,143.97 C 148.81,144.22 149.18,144.49 149.54,144.79 C 149.95,145.13 150.33,145.5 150.7,145.89 C 151.01,146.22 151.31,146.56 151.61,146.9 C 151.71,147.02 151.81,147.13 151.91,147.25 C 152.08,147.3 152.24,147.35 152.41,147.41 C 152.12,146.91 151.8,146.43 151.46,145.97 C 151.07,145.43 150.64,144.93 150.2,144.44 C 149.75,143.94 149.28,143.47 148.79,143.02 C 148.38,142.64 147.94,142.27 147.5,141.92 C 147.2,141.69 146.91,141.45 146.59,141.23 C 146.36,141.07 146.12,140.91 145.93,140.73 C 145.81,140.6 145.71,140.47 145.63,140.24 C 145.53,140.01 145.46,139.66 145.53,139.35 C 145.57,139.14 145.68,138.94 145.8,138.81 C 145.97,138.64 146.17,138.6 146.36,138.59 C 146.67,138.58 146.92,138.66 147.18,138.76 C 147.52,138.89 147.89,139.04 148.24,139.23 C 148.69,139.46 149.12,139.75 149.51,140.0 C 149.87,140.24 150.2,140.45 150.56,140.68 C 150.87,140.88 151.21,141.09 151.54,141.3 C 151.67,141.38 151.81,141.46 151.94,141.54 C 152.04,141.6 152.14,141.65 152.25,141.72 C 152.29,141.74 152.33,141.77 152.38,141.78 C 152.43,141.79 152.48,141.78 152.53,141.76 C 152.57,141.73 152.61,141.7 152.63,141.65 C 152.65,141.59 152.65,141.52 152.62,141.46 C 152.59,141.39 152.54,141.33 152.48,141.27 C 152.24,141.02 152.04,140.75 151.82,140.49 C 151.59,140.21 151.34,139.94 151.09,139.68 C 150.96,139.54 150.83,139.39 150.7,139.25 C 150.56,139.13 150.4,139.03 150.24,138.94 C 150.15,138.89 150.05,138.84 149.96,138.8 C 149.83,138.73 149.7,138.65 149.58,138.58 C 149.36,138.45 149.15,138.31 148.94,138.16 C 148.57,137.9 148.22,137.62 147.89,137.3 C 147.58,137.02 147.29,136.71 147.04,136.38 C 146.79,136.06 146.58,135.72 146.42,135.35 C 146.18,134.79 146.07,134.17 146.1,133.56 C 146.15,132.85 146.4,132.14 146.81,131.56 C 147.11,131.12 147.5,130.75 147.95,130.48 C 148.41,130.19 148.93,130.01 149.47,129.93 C 150.12,129.84 150.8,129.92 151.42,130.17 C 152.22,130.49 152.93,131.09 153.36,131.82 C 153.74,132.49 153.91,133.26 153.97,134.02 C 154.03,134.67 154.0,135.31 153.92,136.02 C 153.89,136.29 153.84,136.57 153.81,136.81 C 153.8,136.91 153.79,136.99 153.79,137.08 C 153.75,137.49 153.78,137.94 153.9,138.36 C 153.97,138.6 154.07,138.83 154.19,139.04 C 154.23,139.11 154.27,139.18 154.32,139.25 z"
		 />

		<!-- Prism Reference -->
		<cam mingh:cam=" --verb EditSelectAll --verb ZoomSelection --verb FileSave"/> 
	 </g>

</svg>
