<svg
   xmlns:xlink="http://www.w3.org/1999/xlink"
   xmlns:svg="http://www.w3.org/2000/svg"
   xmlns="http://www.w3.org/2000/svg"
   xmlns:mingh="http://www.minghworld.com"
   width="300px"
   height="300px" >
	
	 <g>
		
		<!-- Paths -->
		<path transform="matrix(-1 0 0 1 300 0)" style="fill:#ff0;stroke:none;"
		 d="M 149.43,156.44 C 149.73,157.14 150.07,157.82 150.41,158.49 C 150.81,159.26 151.22,160.02 151.71,160.74 C 151.99,161.16 152.3,161.57 152.69,161.9 C 153.01,162.18 153.39,162.41 153.81,162.5 C 154.14,162.57 154.51,162.55 154.82,162.39 C 154.89,162.35 154.96,162.3 155.01,162.24 C 155.05,162.18 155.08,162.1 155.09,162.02 C 155.1,161.84 155.0,161.68 154.9,161.52 C 154.64,161.14 154.38,160.81 154.09,160.49 C 153.69,160.04 153.24,159.59 152.79,159.16 C 152.3,158.71 151.81,158.27 151.3,157.86 C 150.7,157.36 150.07,156.89 149.43,156.44 z M 150.7,123.26 C 150.11,123.52 149.69,124.04 149.56,124.67 C 149.43,125.35 149.66,125.9 150.05,126.43 C 150.75,127.35 151.99,128.23 153.05,128.65 C 153.06,128.66 153.05,128.64 153.06,128.63 C 153.06,128.63 153.06,128.62 153.06,128.61 C 153.07,128.6 153.08,128.58 153.08,128.56 C 153.09,128.53 153.1,128.5 153.12,128.47 C 153.14,128.4 153.16,128.33 153.18,128.26 C 153.23,128.12 153.27,127.97 153.3,127.82 C 153.38,127.49 153.44,127.16 153.48,126.83 C 153.55,126.2 153.56,125.58 153.45,124.95 C 153.34,124.3 153.09,123.76 152.5,123.39 C 151.96,123.05 151.29,123.0 150.7,123.26 z M 147.88,144.94 C 147.9,145.13 147.91,145.31 147.93,145.49 C 147.95,145.7 147.97,145.91 148.02,146.12 C 148.06,146.26 148.12,146.41 148.13,146.56 C 148.14,146.68 148.13,146.8 148.08,146.91 C 148.05,146.97 148.02,147.02 147.98,147.06 C 147.86,147.18 147.69,147.24 147.54,147.25 C 147.47,147.26 147.4,147.26 147.34,147.25 C 147.35,147.27 147.35,147.28 147.36,147.3 C 147.37,147.36 147.38,147.42 147.4,147.49 C 147.41,147.53 147.42,147.57 147.45,147.6 C 147.47,147.62 147.49,147.64 147.52,147.65 C 147.55,147.67 147.58,147.68 147.61,147.68 C 147.66,147.69 147.7,147.68 147.75,147.67 C 147.83,147.65 147.9,147.63 147.97,147.61 C 148.1,147.59 148.23,147.6 148.36,147.62 C 148.53,147.65 148.69,147.7 148.84,147.75 C 149.21,147.89 149.56,148.09 149.89,148.31 C 150.48,148.69 151.01,149.14 151.52,149.62 C 151.74,149.84 151.96,150.06 152.18,150.29 C 152.47,150.6 152.76,150.91 153.13,151.16 C 153.3,151.27 153.5,151.37 153.7,151.37 C 153.87,151.37 154.05,151.3 154.16,151.18 C 154.27,151.06 154.32,150.89 154.32,150.72 C 154.32,150.46 154.19,150.22 154.04,150.0 C 153.85,149.73 153.65,149.49 153.44,149.26 C 153.2,148.99 152.94,148.73 152.7,148.47 C 152.52,148.29 152.35,148.1 152.18,147.92 C 151.92,147.73 151.47,147.4 150.93,147.02 C 150.05,146.41 148.96,145.66 147.88,144.94 z M 152.18,153.98 C 150.6,153.14 149.79,152.54 148.48,151.33 C 147.91,150.79 147.42,150.28 147.18,149.49 C 147.15,149.39 147.12,149.3 147.1,149.21 C 147.08,149.12 147.07,149.03 146.97,148.97 C 146.79,148.85 146.58,149.0 146.43,149.06 C 146.1,149.17 145.61,149.04 145.32,148.92 C 144.69,148.65 143.92,148.06 143.76,147.33 C 143.57,146.52 144.08,145.75 144.91,145.66 C 145.11,145.63 145.29,145.65 145.48,145.69 C 145.51,145.69 145.53,145.7 145.55,145.7 C 145.57,145.71 145.56,145.69 145.55,145.68 C 145.55,145.67 145.54,145.66 145.54,145.64 C 145.52,145.59 145.51,145.54 145.49,145.49 C 145.46,145.39 145.44,145.29 145.42,145.18 C 145.33,144.75 145.31,144.33 145.3,143.89 C 145.3,143.78 145.29,143.68 145.29,143.57 C 145.29,143.51 145.29,143.46 145.29,143.41 C 145.29,143.38 145.29,143.35 145.29,143.32 C 145.29,143.32 145.3,143.26 145.29,143.25 C 145.14,143.15 145.0,143.05 144.85,142.95 C 144.56,142.73 144.28,142.51 144.0,142.28 C 143.51,141.88 142.93,141.49 142.73,140.8 C 142.64,140.46 142.61,140.02 142.77,139.68 C 143.0,139.2 143.33,139.24 143.76,139.38 C 144.13,139.5 144.45,139.69 144.76,139.9 C 144.92,140.01 145.07,140.12 145.23,140.23 C 145.26,140.25 145.3,140.28 145.34,140.31 C 145.36,140.32 145.38,140.34 145.4,140.35 C 145.41,140.36 145.41,140.34 145.41,140.33 C 145.41,140.31 145.41,140.3 145.41,140.29 C 145.42,140.18 145.43,140.07 145.44,139.97 C 145.47,139.54 145.52,139.11 145.57,138.68 C 145.57,138.62 145.58,138.57 145.59,138.52 C 145.59,138.49 145.59,138.46 145.6,138.44 C 145.6,138.42 145.6,138.41 145.6,138.4 C 145.61,138.38 145.62,138.4 145.63,138.41 C 145.71,138.45 145.79,138.5 145.87,138.54 C 146.01,138.62 146.14,138.7 146.28,138.79 C 146.68,139.03 147.07,139.3 147.43,139.6 C 147.67,139.8 147.9,140.01 148.13,140.22 C 148.14,140.24 148.14,140.36 148.14,140.38 C 148.13,140.43 148.13,140.48 148.13,140.54 C 148.12,140.65 148.12,140.75 148.11,140.86 C 148.1,141.08 148.09,141.29 148.07,141.51 C 148.06,141.61 148.05,141.72 148.04,141.83 C 148.03,141.88 148.02,141.94 148.02,141.99 C 148.02,142.02 148.01,142.04 148.01,142.07 C 148.01,142.1 148.03,142.11 148.04,142.12 C 148.19,142.23 148.34,142.33 148.49,142.44 C 148.8,142.65 149.1,142.87 149.41,143.07 C 150.03,143.48 150.67,143.86 151.32,144.23 C 151.94,144.57 152.56,144.89 153.24,145.11 C 154.54,145.51 154.61,145.05 154.11,143.9 C 153.8,143.18 153.4,142.53 152.97,141.89 C 152.78,141.6 152.58,141.32 152.37,141.04 C 152.32,140.97 152.26,140.9 152.21,140.83 C 152.15,140.76 152.07,140.72 151.99,140.67 C 151.83,140.57 151.67,140.47 151.51,140.38 C 150.24,139.58 148.96,138.8 147.67,138.04 C 146.37,137.28 145.05,136.58 143.76,135.82 C 143.05,135.4 142.36,134.96 141.69,134.49 C 141.4,134.28 141.02,134.01 140.88,133.64 C 140.76,133.32 140.75,132.91 140.84,132.58 C 140.91,132.33 141.06,131.99 141.34,131.88 C 141.53,131.81 141.69,131.84 141.88,131.87 C 142.13,131.91 142.38,131.99 142.63,132.07 C 143.43,132.34 144.15,132.74 144.86,133.17 C 145.51,133.55 146.14,133.96 146.77,134.36 C 147.41,134.76 148.05,135.14 148.69,135.53 C 149.33,135.91 149.97,136.29 150.6,136.68 C 151.03,136.94 151.45,137.2 151.89,137.44 C 151.94,137.46 152.09,137.56 152.16,137.51 C 152.24,137.47 152.08,137.35 152.04,137.32 C 151.82,137.11 151.58,136.93 151.34,136.75 C 151.02,136.51 150.7,136.27 150.38,136.02 C 149.6,135.4 147.38,133.67 147.05,132.54 C 146.92,132.09 146.98,131.78 147.31,131.44 C 147.61,131.11 147.96,130.92 148.36,130.76 C 148.73,130.62 149.18,130.55 149.56,130.7 C 149.9,130.83 150.34,131.19 150.62,131.39 C 151.05,131.69 151.47,131.98 151.9,132.27 C 152.19,132.47 152.54,132.72 152.85,132.89 C 153.04,132.99 153.19,133.07 153.37,132.87 C 153.54,132.67 153.46,132.52 153.34,132.34 C 153.14,132.02 152.97,131.68 152.77,131.36 C 152.67,131.2 152.57,131.04 152.46,130.89 C 152.39,130.79 152.21,130.52 152.11,130.45 C 151.81,130.22 151.46,130.07 151.14,129.88 C 150.49,129.49 149.89,129.05 149.34,128.53 C 148.22,127.47 147.38,126.19 147.61,124.53 C 147.82,122.98 148.92,121.71 150.44,121.29 C 151.96,120.87 153.56,121.41 154.54,122.64 C 155.48,123.83 155.56,125.57 155.43,126.94 C 155.36,127.69 155.18,128.42 155.29,129.19 C 155.35,129.57 155.46,129.91 155.64,130.25 C 155.73,130.42 155.84,130.57 155.93,130.74 C 156.03,130.9 156.13,131.07 156.22,131.23 C 156.61,131.88 157.02,132.52 157.36,133.2 C 157.63,133.72 158.04,134.65 157.89,135.3 C 157.81,135.69 157.6,135.97 157.22,136.11 C 156.87,136.25 156.37,136.27 156.01,136.26 C 155.46,136.23 154.5,136.03 153.99,135.82 C 153.77,135.73 153.56,135.62 153.34,135.52 C 153.32,135.51 153.25,135.47 153.28,135.51 C 153.32,135.56 153.37,135.59 153.41,135.63 C 153.81,135.96 154.23,136.25 154.66,136.53 C 155.25,136.92 155.9,137.22 156.48,137.62 C 156.93,137.93 157.77,138.62 157.91,139.23 C 157.99,139.61 157.82,140.06 157.54,140.31 C 157.26,140.56 156.8,140.64 156.47,140.7 C 156.27,140.73 156.07,140.76 155.87,140.78 C 155.85,140.78 155.84,140.78 155.83,140.79 C 155.82,140.79 155.79,140.78 155.8,140.8 C 155.81,140.81 155.83,140.83 155.84,140.85 C 155.86,140.88 155.89,140.92 155.91,140.95 C 155.96,141.02 156.0,141.09 156.05,141.17 C 156.23,141.45 156.4,141.74 156.55,142.04 C 156.87,142.65 157.14,143.27 157.39,143.91 C 157.65,144.57 157.9,145.21 157.93,145.94 C 157.96,146.74 157.72,147.45 156.88,147.73 C 156.69,147.8 156.51,147.84 156.31,147.87 C 156.22,147.88 156.12,147.9 156.03,147.9 C 155.98,147.91 155.93,147.91 155.88,147.91 C 155.86,147.91 155.83,147.92 155.81,147.92 C 155.78,147.92 155.83,147.94 155.84,147.96 C 156.12,148.23 156.37,148.51 156.61,148.82 C 157.03,149.35 157.58,150.13 157.79,150.8 C 157.91,151.18 157.97,151.54 157.9,151.94 C 157.84,152.26 157.67,152.74 157.45,153.0 C 157.18,153.31 156.84,153.47 156.49,153.66 C 156.32,153.75 156.15,153.84 155.97,153.91 C 155.93,153.93 155.89,153.95 155.84,153.97 C 155.83,153.97 155.82,153.97 155.81,153.98 C 155.79,153.98 155.81,153.99 155.81,154.0 C 155.83,154.02 155.84,154.03 155.86,154.05 C 155.92,154.11 155.97,154.18 156.03,154.24 C 156.49,154.78 156.86,155.37 157.19,156.0 C 157.36,156.31 157.51,156.64 157.65,156.96 C 157.79,157.29 157.93,157.6 157.93,157.97 C 157.94,158.32 157.8,158.68 157.53,158.92 C 157.28,159.14 156.93,159.22 156.61,159.22 C 156.31,159.21 156.03,159.14 155.75,159.06 C 155.67,159.04 155.6,159.02 155.53,159.0 C 155.52,159.0 155.51,158.99 155.5,158.99 C 155.48,158.98 155.51,159.0 155.52,159.01 C 155.53,159.03 155.55,159.04 155.57,159.06 C 155.6,159.09 155.63,159.12 155.66,159.15 C 155.79,159.27 155.92,159.39 156.05,159.5 C 156.44,159.85 157.23,160.5 157.53,160.94 C 157.93,161.5 158.1,162.36 157.76,163.01 C 157.45,163.58 156.74,164.12 156.23,164.44 C 156.16,164.49 156.08,164.54 156.0,164.58 C 155.97,164.6 155.93,164.62 155.89,164.65 C 155.87,164.66 155.85,164.67 155.83,164.68 C 155.82,164.68 155.81,164.69 155.81,164.69 C 155.79,164.7 155.8,164.71 155.81,164.72 C 155.92,164.91 155.97,165.11 156.0,165.32 C 156.05,165.78 155.96,166.15 155.73,166.54 C 155.52,166.9 155.21,167.14 154.92,167.41 C 154.62,167.7 154.35,168.0 154.14,168.36 C 154.04,168.54 153.94,168.72 153.86,168.91 C 153.86,168.93 153.85,168.94 153.85,168.95 C 153.84,168.97 153.86,168.97 153.87,168.97 C 153.89,168.99 153.91,169.01 153.93,169.02 C 153.96,169.05 154.0,169.08 154.04,169.12 C 154.11,169.18 154.18,169.24 154.25,169.3 C 154.55,169.56 154.83,169.82 155.12,170.08 C 156.25,171.12 157.33,172.22 158.33,173.4 C 158.81,173.97 159.26,174.55 159.67,175.17 C 159.97,175.62 160.59,176.56 160.41,177.21 C 160.31,177.59 159.99,177.95 159.68,178.17 C 159.51,178.29 159.35,178.37 159.13,178.33 C 158.94,178.3 158.78,178.21 158.61,178.12 C 157.95,177.76 157.37,177.32 156.83,176.8 C 156.29,176.26 155.86,175.69 155.57,174.97 C 155.43,174.62 155.34,174.27 155.29,173.9 C 155.28,173.85 155.28,173.81 155.27,173.76 C 155.27,173.7 155.23,173.69 155.19,173.66 C 155.12,173.59 155.06,173.53 154.99,173.47 C 154.85,173.34 154.71,173.22 154.57,173.1 C 154.02,172.6 153.46,172.12 152.88,171.66 C 152.87,171.64 152.83,171.59 152.84,171.63 C 152.84,171.65 152.84,171.67 152.84,171.7 C 152.84,171.74 152.85,171.79 152.85,171.84 C 152.85,171.93 152.86,172.02 152.86,172.11 C 152.87,172.3 152.89,172.48 152.9,172.67 C 152.92,173.04 152.94,173.41 152.95,173.78 C 152.97,174.16 153.01,174.53 152.98,174.91 C 152.94,175.34 152.83,175.84 152.44,176.12 C 152.04,176.4 151.72,176.19 151.38,176.02 C 151.15,175.91 150.62,175.63 150.43,175.44 C 150.22,175.22 150.13,174.79 150.07,174.52 C 150.01,174.28 149.97,174.03 149.94,173.79 C 149.85,173.22 149.79,172.64 149.75,172.07 C 149.72,171.72 149.69,171.37 149.67,171.02 C 149.66,170.85 149.65,170.69 149.64,170.53 C 149.63,170.4 149.62,170.27 149.61,170.14 C 149.61,170.05 149.6,169.96 149.59,169.87 C 149.59,169.81 149.54,169.81 149.51,169.78 C 149.47,169.76 149.44,169.73 149.41,169.71 C 148.73,169.2 148.05,168.7 147.35,168.24 C 146.73,167.83 146.1,167.46 145.43,167.13 C 145.1,166.96 144.76,166.79 144.42,166.65 C 144.25,166.57 144.08,166.51 143.89,166.48 C 143.65,166.45 143.54,166.54 143.45,166.75 C 143.29,167.09 143.3,167.41 143.35,167.77 C 143.4,168.1 143.46,168.43 143.54,168.76 C 143.69,169.5 143.88,170.24 144.08,170.97 C 144.25,171.59 144.43,172.21 144.6,172.82 C 144.67,173.07 144.74,173.32 144.81,173.57 C 144.82,173.61 144.83,173.65 144.84,173.69 C 144.84,173.71 144.85,173.73 144.85,173.75 C 144.86,173.77 144.86,173.78 144.86,173.79 C 144.86,173.79 144.87,173.81 144.87,173.8 C 144.87,173.8 144.87,173.79 144.87,173.79 C 144.89,173.69 144.93,173.6 144.98,173.52 C 145.09,173.34 145.22,173.23 145.44,173.21 C 145.9,173.15 146.11,173.56 146.2,173.92 C 146.29,174.3 146.35,174.68 146.45,175.05 C 146.54,175.42 146.64,175.78 146.77,176.14 C 146.89,176.5 147.07,176.84 147.19,177.2 C 147.32,177.57 147.35,177.96 147.12,178.31 C 146.91,178.64 146.55,178.84 146.16,178.85 C 145.46,178.87 144.57,178.42 144.0,178.14 C 143.3,177.79 142.68,177.41 142.13,176.83 C 141.87,176.55 141.64,176.24 141.45,175.91 C 141.25,175.57 141.13,175.22 141.04,174.84 C 140.6,172.94 140.4,172.31 140.09,170.38 C 139.85,168.88 139.64,167.38 139.57,165.85 C 139.56,165.47 139.55,165.09 139.56,164.71 C 139.58,164.33 139.6,163.95 139.68,163.57 C 139.85,162.78 140.27,162.14 141.13,161.97 C 141.93,161.81 142.73,162.06 143.43,162.37 C 144.16,162.68 144.87,163.02 145.57,163.39 C 146.27,163.76 146.95,164.15 147.62,164.56 C 147.97,164.77 148.32,164.99 148.66,165.21 C 148.85,165.34 149.04,165.46 149.23,165.58 C 149.27,165.62 149.32,165.65 149.37,165.68 C 149.38,165.69 149.4,165.72 149.4,165.7 C 149.4,165.69 149.4,165.68 149.4,165.68 C 149.4,165.66 149.4,165.65 149.39,165.63 C 149.39,165.57 149.38,165.52 149.38,165.46 C 149.35,165.16 149.32,164.87 149.29,164.57 C 149.29,164.47 149.28,164.36 149.27,164.26 C 149.27,164.23 149.27,164.21 149.27,164.18 C 149.26,164.14 149.3,164.17 149.32,164.18 C 149.37,164.19 149.41,164.2 149.46,164.22 C 149.64,164.27 149.83,164.33 150.01,164.39 C 150.41,164.53 150.77,164.72 151.17,164.85 C 151.36,164.91 151.54,164.95 151.75,164.92 C 151.85,164.9 151.94,164.87 152.02,164.82 C 152.07,164.8 152.11,164.77 152.14,164.73 C 152.16,164.72 152.19,164.71 152.16,164.68 C 152.15,164.67 152.13,164.65 152.11,164.64 C 151.09,163.61 150.17,162.52 149.31,161.37 C 148.44,160.19 147.75,158.98 147.29,157.58 C 147.12,157.09 146.8,156.04 147.09,155.47 C 147.24,155.19 147.61,154.9 147.88,154.75 C 148.19,154.58 148.55,154.45 148.92,154.57 C 149.11,154.63 149.24,154.73 149.34,154.89 C 149.4,154.97 149.44,155.05 149.47,155.13 C 149.48,155.17 149.5,155.13 149.52,155.12 C 149.54,155.11 149.56,155.1 149.58,155.09 C 149.62,155.08 149.67,155.06 149.71,155.04 C 150.05,154.9 150.35,154.76 150.75,154.82 C 151.13,154.89 151.41,155.1 151.71,155.3 C 152.0,155.5 152.29,155.71 152.59,155.92 C 152.74,156.02 152.88,156.12 153.03,156.23 C 153.18,156.34 153.31,156.45 153.51,156.45 C 153.67,156.45 153.87,156.34 153.89,156.16 C 153.91,156.01 153.77,155.84 153.69,155.75 C 153.57,155.6 153.44,155.46 153.32,155.31 C 153.2,155.15 153.08,155.0 152.96,154.85 C 152.71,154.55 152.45,154.26 152.18,153.98 z" />
		
		
		<text id="txtTwo" transform="matrix(1 0 0 1 150 160)" style="stroke:none;fill:#f00;font-family:'Eras Medium ITC';font-size:20px;text-anchor:middle"  >

		</text>
		<!-- Prism Reference -->
		<cam mingh:cam="--verb EditSelectAll --verb ZoomSelection --verb FileSave "/> 
	 </g>

</svg>