<svg
   xmlns:xlink="http://www.w3.org/1999/xlink"
   xmlns:svg="http://www.w3.org/2000/svg"
   xmlns="http://www.w3.org/2000/svg"
   xmlns:mingh="http://www.minghworld.com"
   width="300px"
   height="300px" >
	
	 <g>
		<!-- Paths -->
		<path transform="matrix(-1 0 0 1 300 0)" style="fill:#ff0;stroke:none;"
		 d="M 150.14,123.53 C 148.68,123.48 147.28,124.2 146.45,125.44 C 145.51,126.86 145.49,128.67 146.42,130.1 C 146.65,130.45 146.92,130.76 147.23,131.03 C 147.31,131.1 147.4,131.16 147.48,131.22 C 147.49,131.22 147.48,131.25 147.48,131.25 C 147.44,131.26 147.37,131.28 147.33,131.28 C 147.14,131.31 146.95,131.32 146.76,131.35 C 146.0,131.46 145.24,131.63 144.48,131.81 C 142.89,132.21 141.39,132.74 139.92,133.47 C 136.83,135.0 134.15,137.24 132.05,139.97 C 127.93,145.31 126.42,152.17 127.89,158.75 C 129.36,165.32 133.65,170.9 139.64,173.97 C 145.63,177.04 152.7,177.3 158.89,174.66 C 165.09,172.02 169.77,166.74 171.7,160.28 C 173.64,153.83 172.61,146.87 168.89,141.25 C 165.16,135.63 159.15,131.98 152.45,131.25 C 153.85,130.26 154.51,128.55 154.14,126.88 C 153.77,125.21 152.44,123.91 150.76,123.6 C 150.56,123.56 150.35,123.54 150.14,123.53 z M 149.98,125.85 C 150.24,125.85 150.5,125.87 150.73,125.97 C 150.97,126.07 151.21,126.23 151.39,126.41 C 151.57,126.59 151.7,126.8 151.8,127.03 C 151.89,127.27 151.95,127.53 151.95,127.78 C 151.95,128.04 151.89,128.3 151.8,128.53 C 151.7,128.77 151.57,128.98 151.39,129.16 C 151.21,129.34 150.97,129.5 150.73,129.6 C 150.5,129.69 150.24,129.72 149.98,129.72 C 149.73,129.72 149.5,129.69 149.26,129.6 C 149.03,129.5 148.79,129.34 148.61,129.16 C 148.43,128.98 148.3,128.77 148.2,128.53 C 148.1,128.3 148.05,128.04 148.05,127.78 C 148.05,127.53 148.1,127.27 148.2,127.03 C 148.3,126.8 148.43,126.59 148.61,126.41 C 148.79,126.23 149.03,126.07 149.26,125.97 C 149.5,125.87 149.73,125.85 149.98,125.85 z M 147.39,133.81 C 147.45,133.81 147.49,133.8 147.55,133.81 C 147.6,133.83 147.68,133.87 147.73,133.91 C 147.79,133.95 147.82,133.98 147.86,134.03 C 148.3,134.55 148.98,135.32 149.86,136.35 C 150.73,137.37 151.38,138.14 151.83,138.66 C 152.26,139.17 152.71,139.68 153.14,140.19 C 153.17,140.23 153.2,140.25 153.23,140.28 L 153.23,140.5 C 153.23,140.57 153.22,140.65 153.2,140.72 C 153.19,140.78 153.14,140.83 153.11,140.88 C 153.08,140.93 153.03,140.97 152.98,141.0 C 152.93,141.04 152.89,141.07 152.83,141.1 C 152.76,141.12 152.68,141.15 152.61,141.16 C 152.55,141.16 152.51,141.14 152.45,141.13 C 152.39,141.11 152.31,141.1 152.26,141.06 C 152.21,141.03 152.19,140.99 152.14,140.94 C 152.01,140.78 150.68,139.22 148.17,136.28 C 147.71,135.74 147.23,135.21 146.76,134.66 L 146.76,134.44 C 146.76,134.37 146.78,134.29 146.8,134.22 C 146.81,134.16 146.86,134.11 146.89,134.06 C 146.92,134.02 146.94,133.97 146.98,133.94 C 147.04,133.9 147.11,133.87 147.17,133.85 C 147.24,133.82 147.32,133.82 147.39,133.81 z M 152.45,133.81 C 152.63,133.79 152.89,133.81 153.05,133.94 C 153.26,134.12 153.23,134.44 153.23,134.66 L 153.23,136.0 L 153.23,137.38 L 153.23,138.56 C 153.23,138.58 153.21,138.58 153.2,138.6 C 153.2,138.61 153.21,138.62 153.2,138.63 C 153.17,138.65 153.14,138.65 153.11,138.63 C 152.82,138.28 152.53,137.91 152.23,137.56 C 152.16,137.47 152.06,137.37 151.98,137.28 C 151.98,137.28 151.98,137.26 151.98,137.25 C 151.97,136.93 151.98,136.61 151.98,136.28 L 151.98,134.94 C 151.98,134.76 151.98,134.58 151.98,134.41 C 151.99,134.31 151.98,134.22 152.01,134.13 C 152.1,133.91 152.24,133.84 152.45,133.81 z M 146.83,136.31 C 146.84,136.31 146.84,136.31 146.86,136.31 C 146.87,136.32 146.88,136.34 146.89,136.35 C 146.99,136.47 147.1,136.6 147.2,136.72 C 147.47,137.03 147.75,137.34 148.01,137.66 C 148.05,137.7 148.01,137.74 148.01,137.78 L 148.01,140.5 C 148.01,140.72 147.97,140.98 147.73,141.1 C 147.56,141.18 147.25,141.18 147.08,141.1 C 146.91,141.02 146.83,140.92 146.8,140.75 C 146.78,140.67 146.76,140.58 146.76,140.5 L 146.76,139.85 L 146.76,137.1 L 146.76,136.47 C 146.76,136.44 146.76,136.38 146.76,136.35 C 146.78,136.33 146.81,136.32 146.83,136.31 z M 141.73,137.97 C 141.02,138.91 140.29,139.88 139.58,140.81 C 139.49,140.93 139.39,141.04 139.3,141.16 C 139.21,141.28 139.1,141.36 139.17,141.53 C 139.29,141.81 139.4,142.07 139.51,142.35 C 139.74,142.88 139.95,143.44 140.17,143.97 C 140.16,143.97 140.15,143.97 140.14,143.97 C 140.12,143.96 140.13,143.95 140.11,143.94 C 140.07,143.93 140.02,143.92 139.98,143.91 C 139.92,143.88 139.86,143.84 139.8,143.81 C 139.66,143.76 139.53,143.72 139.39,143.66 C 139.12,143.54 138.85,143.43 138.58,143.31 C 138.3,143.2 138.01,143.09 137.73,142.97 C 137.56,142.9 137.48,143.01 137.36,143.1 C 137.24,143.19 137.13,143.25 137.01,143.35 C 136.09,144.05 135.16,144.76 134.23,145.47 C 134.24,145.46 134.25,145.42 134.26,145.41 C 134.29,145.38 134.3,145.37 134.33,145.35 C 134.37,145.29 134.41,145.22 134.45,145.16 C 134.54,145.04 134.64,144.93 134.73,144.81 C 134.91,144.58 135.09,144.33 135.26,144.1 C 135.62,143.63 136.0,143.16 136.36,142.69 C 136.45,142.57 136.52,142.46 136.61,142.35 C 136.7,142.23 136.81,142.15 136.73,141.97 C 136.62,141.7 136.5,141.4 136.39,141.13 C 136.16,140.58 135.93,140.05 135.7,139.5 C 135.7,139.48 135.72,139.5 135.73,139.5 C 135.74,139.51 135.76,139.53 135.76,139.53 C 135.78,139.54 135.81,139.53 135.83,139.53 C 135.86,139.55 135.89,139.58 135.92,139.6 C 135.99,139.62 136.04,139.66 136.11,139.69 C 136.24,139.75 136.38,139.79 136.51,139.85 C 136.79,139.96 137.09,140.07 137.36,140.19 C 137.63,140.3 137.9,140.42 138.17,140.53 C 138.35,140.61 138.43,140.5 138.55,140.41 C 138.67,140.32 138.77,140.22 138.89,140.13 C 139.83,139.41 140.79,138.69 141.73,137.97 z M 158.36,138.06 C 158.39,138.09 158.42,138.1 158.45,138.13 C 158.51,138.17 158.58,138.21 158.64,138.25 C 158.76,138.34 158.87,138.44 158.98,138.53 C 159.22,138.71 159.44,138.88 159.67,139.06 C 160.14,139.42 160.64,139.77 161.11,140.13 C 161.23,140.22 161.33,140.32 161.45,140.41 C 161.57,140.5 161.65,140.61 161.83,140.53 C 162.1,140.42 162.37,140.3 162.64,140.19 C 163.17,139.97 163.73,139.76 164.26,139.53 C 164.26,139.54 164.27,139.56 164.26,139.56 C 164.26,139.58 164.24,139.58 164.23,139.6 C 164.22,139.63 164.22,139.69 164.2,139.72 C 164.17,139.79 164.14,139.84 164.11,139.91 C 164.05,140.04 164.01,140.18 163.95,140.31 C 163.84,140.59 163.72,140.85 163.61,141.13 C 163.49,141.4 163.38,141.7 163.26,141.97 C 163.19,142.15 163.3,142.23 163.39,142.35 C 163.48,142.46 163.55,142.57 163.64,142.69 C 164.36,143.63 165.08,144.56 165.8,145.5 C 164.86,144.78 163.92,144.06 162.98,143.35 C 162.86,143.25 162.76,143.19 162.64,143.1 C 162.52,143.01 162.41,142.9 162.23,142.97 C 161.96,143.09 161.69,143.2 161.42,143.31 C 160.88,143.54 160.34,143.77 159.8,144.0 C 159.78,144.01 159.79,143.98 159.8,143.97 C 159.8,143.96 159.82,143.95 159.83,143.94 C 159.83,143.92 159.82,143.89 159.83,143.88 C 159.84,143.84 159.88,143.82 159.89,143.78 C 159.92,143.71 159.92,143.66 159.95,143.6 C 160.01,143.46 160.08,143.33 160.14,143.19 C 160.25,142.92 160.37,142.62 160.48,142.35 C 160.6,142.07 160.71,141.81 160.83,141.53 C 160.9,141.36 160.79,141.28 160.7,141.16 C 160.61,141.04 160.51,140.93 160.42,140.81 C 159.73,139.91 159.05,138.97 158.36,138.06 z M 149.98,142.31 C 150.05,142.31 150.16,142.31 150.2,142.38 C 150.23,142.42 150.23,142.49 150.23,142.53 C 150.25,142.74 150.25,142.92 150.26,143.13 C 150.39,144.57 150.55,146.0 150.7,147.44 C 150.78,148.16 150.84,148.88 150.92,149.6 C 150.93,149.66 150.95,149.72 150.95,149.78 C 150.95,149.8 150.98,149.82 150.95,149.81 C 150.93,149.81 150.91,149.82 150.89,149.81 C 150.84,149.8 150.78,149.79 150.73,149.78 C 150.55,149.75 150.36,149.73 150.17,149.72 C 149.78,149.7 149.42,149.72 149.05,149.81 C 149.22,148.38 149.38,146.94 149.51,145.5 C 149.58,144.78 149.64,144.07 149.7,143.35 C 149.72,143.14 149.75,142.96 149.76,142.75 C 149.77,142.66 149.76,142.57 149.76,142.47 C 149.77,142.46 149.79,142.42 149.8,142.41 C 149.82,142.33 149.92,142.32 149.98,142.31 z M 142.01,145.6 C 142.07,145.59 142.14,145.59 142.2,145.63 C 143.83,146.49 145.45,147.35 147.08,148.22 C 147.12,148.25 147.16,148.29 147.2,148.31 C 147.23,148.33 147.27,148.31 147.26,148.35 C 147.26,148.38 147.27,148.43 147.26,148.47 C 147.25,148.62 147.22,148.76 147.2,148.91 C 147.2,148.95 147.18,149.0 147.17,149.03 C 147.17,149.04 147.17,149.06 147.17,149.06 C 147.17,149.06 147.15,149.07 147.14,149.06 C 147.09,149.04 147.03,149.03 146.98,149.0 C 146.89,148.95 146.8,148.9 146.7,148.85 C 146.33,148.65 145.98,148.45 145.61,148.25 C 145.24,148.05 144.85,147.86 144.48,147.66 C 144.3,147.56 144.11,147.44 143.92,147.35 C 143.83,147.3 143.74,147.27 143.64,147.22 C 143.53,147.17 143.4,147.25 143.39,147.38 C 143.39,147.46 143.45,147.5 143.48,147.56 C 143.92,148.38 144.33,149.19 144.76,150.0 C 144.86,150.19 144.98,150.35 145.08,150.53 C 145.13,150.63 145.18,150.72 145.23,150.81 C 145.25,150.84 145.25,150.88 145.26,150.91 C 145.27,150.92 145.26,150.93 145.26,150.94 C 145.27,150.95 145.32,150.97 145.3,150.97 C 145.22,150.98 145.15,150.99 145.08,151.0 C 144.93,151.02 144.76,151.01 144.61,151.03 C 144.58,151.04 144.54,151.07 144.51,151.03 C 144.5,151.01 144.5,150.99 144.48,150.97 C 144.46,150.92 144.45,150.86 144.42,150.81 C 144.32,150.63 144.21,150.44 144.11,150.25 C 143.68,149.44 143.26,148.63 142.83,147.81 C 142.64,147.47 142.45,147.13 142.26,146.78 C 142.17,146.61 142.08,146.46 141.98,146.28 C 141.94,146.2 141.9,146.09 141.86,146.0 C 141.76,145.82 141.85,145.63 142.01,145.6 z M 157.95,145.6 C 158.13,145.61 158.24,145.81 158.14,146.0 C 157.27,147.63 156.41,149.25 155.55,150.88 C 155.52,150.92 155.51,150.96 155.48,151.0 C 155.47,151.03 155.46,151.07 155.42,151.06 C 155.38,151.06 155.36,151.04 155.33,151.03 L 154.86,150.97 C 154.82,150.97 154.8,150.98 154.76,150.97 C 154.76,150.97 154.74,150.97 154.73,150.97 C 154.74,150.96 154.73,150.95 154.73,150.94 C 154.76,150.89 154.77,150.83 154.8,150.78 C 154.85,150.69 154.9,150.59 154.95,150.5 C 155.15,150.13 155.35,149.75 155.55,149.38 C 155.74,149.01 155.94,148.65 156.14,148.28 C 156.24,148.1 156.32,147.91 156.42,147.72 C 156.47,147.63 156.53,147.54 156.58,147.44 C 156.63,147.33 156.55,147.2 156.42,147.19 C 156.34,147.19 156.3,147.25 156.23,147.28 C 155.42,147.72 154.61,148.13 153.8,148.56 C 153.61,148.66 153.42,148.78 153.23,148.88 C 153.14,148.93 153.05,148.95 152.95,149.0 C 152.93,149.01 152.91,149.05 152.89,149.06 C 152.88,149.07 152.87,149.06 152.86,149.06 C 152.85,149.07 152.83,149.09 152.83,149.06 C 152.82,148.99 152.81,148.92 152.8,148.85 C 152.78,148.7 152.75,148.56 152.73,148.41 C 152.73,148.38 152.72,148.34 152.76,148.31 C 152.79,148.3 152.8,148.3 152.83,148.28 C 152.87,148.26 152.91,148.25 152.95,148.22 C 153.14,148.12 153.33,148.01 153.51,147.91 C 154.33,147.48 155.14,147.03 155.95,146.6 C 156.3,146.41 156.64,146.25 156.98,146.06 C 157.16,145.97 157.34,145.88 157.51,145.78 C 157.6,145.74 157.68,145.7 157.76,145.66 C 157.83,145.62 157.89,145.59 157.95,145.6 z M 130.86,150.13 C 131.32,150.15 131.36,150.62 131.42,150.94 C 131.55,151.61 131.67,152.3 131.8,152.97 C 131.92,153.64 132.04,154.3 132.17,154.97 C 132.23,155.31 132.29,155.64 132.36,155.97 C 132.39,156.15 132.45,156.33 132.48,156.5 C 132.5,156.59 132.5,156.69 132.51,156.78 C 132.52,156.8 132.56,156.82 132.55,156.85 C 132.54,156.86 132.52,156.89 132.51,156.91 C 132.51,156.94 132.49,156.94 132.48,156.97 C 132.4,157.34 132.22,157.45 131.86,157.44 C 131.33,157.42 131.28,157.02 131.2,156.63 L 130.83,154.63 L 130.45,152.6 C 130.38,152.19 130.31,151.78 130.23,151.38 C 130.2,151.19 130.17,151.0 130.14,150.81 C 130.12,150.73 130.1,150.68 130.11,150.6 C 130.15,150.24 130.57,150.11 130.86,150.13 z M 133.33,150.13 C 133.61,150.09 133.89,150.18 134.01,150.47 C 134.09,150.66 134.12,150.84 134.17,151.03 C 134.24,151.31 134.29,151.6 134.36,151.88 C 134.54,152.61 134.72,153.36 134.89,154.1 C 135.06,154.83 135.22,155.55 135.39,156.28 C 135.46,156.59 135.65,156.93 135.39,157.25 C 135.24,157.43 135.0,157.46 134.8,157.44 C 134.56,157.42 134.42,157.32 134.33,157.1 C 134.28,156.99 134.29,156.89 134.26,156.78 C 134.22,156.57 134.16,156.37 134.11,156.16 C 134.01,155.74 133.89,155.33 133.8,154.91 C 133.74,154.67 133.7,154.43 133.64,154.19 C 133.61,154.07 133.57,153.93 133.55,153.81 C 133.53,153.76 133.52,153.72 133.45,153.72 C 133.36,153.72 133.37,153.78 133.36,153.85 C 133.35,153.88 133.34,153.93 133.33,153.97 C 133.31,154.06 133.29,154.14 133.26,154.22 C 133.25,154.27 133.25,154.33 133.23,154.38 C 133.22,154.43 133.2,154.44 133.14,154.44 C 133.06,154.44 133.09,154.4 133.08,154.35 C 132.93,153.6 132.78,152.84 132.64,152.1 C 132.62,152.01 132.59,151.96 132.58,151.88 C 132.56,151.77 132.58,151.66 132.61,151.56 C 132.66,151.37 132.72,151.17 132.76,150.97 C 132.85,150.63 132.85,150.19 133.33,150.13 z M 135.98,150.13 C 136.07,150.11 136.18,150.13 136.33,150.16 C 136.5,150.19 136.68,150.26 136.76,150.44 C 136.87,150.67 136.81,150.85 136.76,151.06 C 136.69,151.46 136.62,151.86 136.55,152.25 C 136.47,152.64 136.37,153.02 136.3,153.41 C 136.24,153.71 136.2,154.01 136.14,154.31 C 136.14,154.33 136.12,154.36 136.11,154.38 C 136.1,154.39 136.1,154.37 136.08,154.38 C 136.0,154.38 135.97,154.35 135.95,154.28 C 135.77,153.51 135.58,152.74 135.39,151.97 C 135.38,151.91 135.37,151.84 135.36,151.78 C 135.35,151.73 135.38,151.71 135.39,151.66 C 135.41,151.56 135.43,151.47 135.45,151.38 C 135.49,151.19 135.51,150.97 135.55,150.78 C 135.62,150.41 135.71,150.17 135.98,150.13 z M 163.98,150.13 C 164.12,150.12 164.25,150.13 164.36,150.13 L 164.95,150.13 C 165.21,150.13 165.27,150.05 165.33,150.35 C 165.35,150.48 165.33,150.62 165.33,150.75 C 165.33,150.89 165.33,151.02 165.3,151.16 C 165.29,151.2 165.28,151.22 165.26,151.25 C 165.26,151.27 165.23,151.35 165.2,151.35 L 165.11,151.35 L 164.89,151.35 C 164.83,151.35 164.75,151.32 164.7,151.38 C 164.65,151.43 164.7,151.79 164.7,151.85 L 164.7,152.94 C 164.7,153.02 164.65,153.19 164.8,153.19 L 164.92,153.19 L 165.2,153.19 C 165.23,153.19 165.26,153.27 165.26,153.28 C 165.28,153.32 165.29,153.37 165.3,153.41 C 165.3,153.45 165.32,153.49 165.33,153.53 C 165.33,153.6 165.33,153.65 165.33,153.72 C 165.33,153.85 165.34,154.0 165.33,154.13 C 165.32,154.17 165.31,154.21 165.3,154.25 C 165.29,154.29 165.27,154.44 165.2,154.44 L 164.98,154.44 C 164.96,154.44 164.76,154.43 164.73,154.44 C 164.7,154.46 164.7,154.5 164.7,154.53 C 164.7,154.6 164.7,154.65 164.7,154.72 L 164.7,155.13 L 164.7,155.91 C 164.7,156.07 164.64,156.19 164.86,156.19 L 165.08,156.19 C 165.15,156.19 165.22,156.16 165.26,156.25 C 165.36,156.48 165.35,156.87 165.33,157.1 C 165.32,157.14 165.31,157.2 165.3,157.25 C 165.29,157.3 165.29,157.33 165.26,157.38 C 165.23,157.44 165.19,157.44 165.14,157.44 L 164.39,157.44 C 163.92,157.44 163.46,157.48 163.45,156.85 C 163.44,156.02 163.45,155.2 163.45,154.38 L 163.45,151.91 L 163.45,150.78 C 163.45,150.69 163.47,150.62 163.48,150.53 C 163.51,150.42 163.52,150.33 163.61,150.25 C 163.71,150.16 163.85,150.14 163.98,150.13 z M 166.45,150.13 C 166.46,150.11 166.47,150.13 166.48,150.13 L 166.64,150.13 L 166.95,150.13 L 169.08,150.13 C 169.45,150.13 169.74,150.44 169.7,150.81 C 169.66,151.24 169.28,151.34 168.92,151.35 C 168.22,151.36 167.5,151.35 166.8,151.35 C 166.69,151.35 166.56,151.36 166.45,151.35 C 166.43,151.34 166.39,151.27 166.39,151.25 C 166.36,151.16 166.37,151.07 166.36,150.97 C 166.35,150.87 166.32,150.76 166.33,150.66 C 166.33,150.55 166.34,150.45 166.36,150.35 C 166.37,150.27 166.39,150.19 166.45,150.13 z M 153.95,152.81 C 155.39,152.98 156.83,153.14 158.26,153.28 C 158.98,153.35 159.7,153.44 160.42,153.5 C 160.63,153.52 160.84,153.52 161.05,153.53 C 161.14,153.54 161.23,153.56 161.33,153.56 C 161.34,153.57 161.35,153.56 161.36,153.56 C 161.44,153.59 161.45,153.69 161.45,153.75 C 161.46,153.82 161.46,153.95 161.39,154.0 C 161.35,154.03 161.31,154.0 161.26,154.0 C 161.06,154.02 160.84,154.05 160.64,154.06 C 159.2,154.19 157.76,154.32 156.33,154.47 C 155.61,154.55 154.89,154.64 154.17,154.72 C 154.11,154.73 154.05,154.74 153.98,154.75 C 153.97,154.75 153.95,154.78 153.95,154.75 C 153.96,154.73 153.98,154.68 153.98,154.66 C 153.99,154.61 154.01,154.58 154.01,154.53 C 154.05,154.34 154.07,154.16 154.08,153.97 C 154.09,153.58 154.04,153.19 153.95,152.81 z M 145.83,152.85 C 145.89,152.84 145.95,152.85 146.01,152.85 C 146.03,152.84 146.05,152.82 146.05,152.85 C 146.04,152.87 146.02,152.88 146.01,152.91 C 146.0,152.95 145.99,152.99 145.98,153.03 C 145.95,153.22 145.93,153.44 145.92,153.63 C 145.9,154.01 145.95,154.38 146.05,154.75 C 144.61,154.58 143.17,154.42 141.73,154.28 C 141.01,154.21 140.3,154.16 139.58,154.1 C 139.37,154.08 139.16,154.05 138.95,154.03 C 138.86,154.03 138.77,154.01 138.67,154.0 C 138.66,154.0 138.65,154.01 138.64,154.0 C 138.56,153.98 138.55,153.88 138.55,153.81 C 138.54,153.75 138.54,153.64 138.61,153.6 C 138.65,153.57 138.69,153.57 138.73,153.56 C 138.94,153.55 139.12,153.52 139.33,153.5 C 140.77,153.38 142.23,153.25 143.67,153.1 C 144.39,153.02 145.11,152.93 145.83,152.85 z M 166.58,153.19 L 166.98,153.19 L 167.89,153.19 L 168.45,153.19 C 168.58,153.19 168.68,153.22 168.8,153.28 C 168.92,153.35 168.99,153.44 169.05,153.56 C 169.13,153.75 169.14,153.88 169.05,154.06 C 168.98,154.19 168.92,154.3 168.8,154.38 C 168.63,154.47 168.47,154.44 168.3,154.44 L 166.45,154.44 C 166.42,154.44 166.4,154.37 166.39,154.35 C 166.38,154.31 166.37,154.29 166.36,154.25 C 166.35,154.18 166.36,154.08 166.36,154.0 C 166.35,153.85 166.34,153.72 166.36,153.56 C 166.37,153.48 166.36,153.4 166.39,153.31 C 166.4,153.28 166.41,153.25 166.45,153.22 C 166.49,153.19 166.54,153.19 166.58,153.19 z M 166.48,156.19 C 166.5,156.19 166.53,156.19 166.55,156.19 C 166.84,156.19 167.13,156.19 167.42,156.19 L 168.55,156.19 C 168.81,156.19 169.07,156.18 169.33,156.19 C 169.44,156.19 169.54,156.23 169.64,156.28 C 169.94,156.44 169.98,157.04 169.76,157.28 C 169.67,157.39 169.55,157.42 169.42,157.44 C 169.17,157.47 168.95,157.44 168.7,157.44 L 166.45,157.44 C 166.42,157.44 166.4,157.37 166.39,157.35 C 166.38,157.31 166.37,157.26 166.36,157.22 C 166.35,157.15 166.36,157.07 166.36,157.0 C 166.35,156.91 166.35,156.84 166.36,156.75 C 166.37,156.62 166.35,156.47 166.39,156.35 C 166.4,156.29 166.42,156.26 166.45,156.22 C 166.46,156.21 166.47,156.19 166.48,156.19 z M 155.42,156.5 C 155.43,156.5 155.44,156.51 155.45,156.53 C 155.46,156.56 155.5,156.6 155.51,156.63 C 155.54,156.67 155.55,156.71 155.58,156.75 C 155.68,156.94 155.79,157.13 155.89,157.31 C 156.32,158.13 156.74,158.94 157.17,159.75 C 157.36,160.1 157.55,160.44 157.73,160.78 C 157.83,160.96 157.92,161.14 158.01,161.31 C 158.06,161.4 158.09,161.48 158.14,161.56 C 158.27,161.81 158.05,162.08 157.8,161.94 C 156.17,161.07 154.54,160.21 152.92,159.35 C 152.87,159.32 152.84,159.31 152.8,159.28 C 152.77,159.27 152.73,159.26 152.73,159.22 C 152.74,159.18 152.73,159.13 152.73,159.1 C 152.75,158.95 152.78,158.81 152.8,158.66 C 152.8,158.62 152.82,158.57 152.83,158.53 C 152.83,158.52 152.81,158.49 152.83,158.5 C 152.84,158.51 152.85,158.5 152.86,158.5 C 152.91,158.53 152.97,158.57 153.01,158.6 C 153.11,158.65 153.17,158.67 153.26,158.72 C 153.64,158.92 154.02,159.15 154.39,159.35 L 155.51,159.91 C 155.7,160.01 155.86,160.12 156.05,160.22 C 156.14,160.27 156.23,160.33 156.33,160.38 C 156.44,160.43 156.57,160.35 156.58,160.22 C 156.58,160.14 156.55,160.09 156.51,160.03 C 156.08,159.22 155.67,158.41 155.23,157.6 C 155.13,157.41 155.02,157.22 154.92,157.03 C 154.87,156.94 154.81,156.84 154.76,156.75 C 154.75,156.73 154.75,156.71 154.73,156.69 C 154.73,156.68 154.71,156.67 154.7,156.66 C 154.7,156.65 154.68,156.63 154.7,156.63 C 154.78,156.62 154.85,156.6 154.92,156.6 C 155.07,156.58 155.24,156.55 155.39,156.53 C 155.41,156.53 155.41,156.51 155.42,156.5 z M 144.58,156.53 C 144.61,156.54 144.63,156.53 144.67,156.53 L 145.14,156.6 C 145.18,156.6 145.2,156.59 145.23,156.6 C 145.24,156.6 145.26,156.63 145.26,156.63 C 145.26,156.63 145.27,156.65 145.26,156.66 C 145.24,156.7 145.23,156.74 145.2,156.78 C 145.15,156.88 145.1,156.97 145.05,157.06 C 144.85,157.44 144.65,157.82 144.45,158.19 L 143.86,159.28 C 143.76,159.47 143.68,159.66 143.58,159.85 C 143.53,159.94 143.47,160.03 143.42,160.13 C 143.37,160.24 143.45,160.37 143.58,160.38 C 143.66,160.38 143.7,160.35 143.76,160.31 C 144.58,159.88 145.39,159.43 146.2,159.0 C 146.39,158.9 146.58,158.82 146.76,158.72 C 146.86,158.67 146.95,158.61 147.05,158.56 C 147.07,158.55 147.09,158.55 147.11,158.53 C 147.12,158.53 147.13,158.51 147.14,158.5 C 147.15,158.5 147.17,158.48 147.17,158.5 C 147.18,158.58 147.19,158.65 147.2,158.72 C 147.22,158.87 147.25,159.04 147.26,159.19 C 147.27,159.22 147.27,159.23 147.23,159.25 C 147.21,159.26 147.19,159.27 147.17,159.28 C 147.12,159.31 147.09,159.35 147.05,159.38 C 146.86,159.48 146.67,159.56 146.48,159.66 C 145.67,160.09 144.86,160.54 144.05,160.97 C 143.7,161.15 143.36,161.35 143.01,161.53 C 142.84,161.63 142.66,161.69 142.48,161.78 C 142.4,161.83 142.32,161.89 142.23,161.94 C 141.99,162.07 141.69,161.85 141.83,161.6 C 142.69,159.97 143.59,158.34 144.45,156.72 C 144.48,156.67 144.49,156.61 144.51,156.56 C 144.53,156.54 144.54,156.53 144.58,156.53 z M 149.05,157.75 C 149.07,157.76 149.09,157.78 149.11,157.78 C 149.15,157.79 149.22,157.77 149.26,157.78 C 149.45,157.82 149.64,157.84 149.83,157.85 C 150.21,157.86 150.58,157.84 150.95,157.75 C 150.78,159.19 150.62,160.63 150.48,162.06 C 150.41,162.78 150.36,163.5 150.3,164.22 C 150.28,164.43 150.25,164.64 150.23,164.85 C 150.23,164.94 150.24,165.03 150.23,165.13 C 150.23,165.14 150.21,165.14 150.2,165.16 C 150.18,165.23 150.08,165.25 150.01,165.25 C 149.95,165.26 149.84,165.25 149.8,165.19 C 149.77,165.15 149.77,165.11 149.76,165.06 C 149.75,164.86 149.75,164.64 149.73,164.44 C 149.61,163.0 149.45,161.56 149.3,160.13 C 149.22,159.41 149.16,158.69 149.08,157.97 C 149.07,157.91 149.05,157.85 149.05,157.78 C 149.04,157.77 149.02,157.75 149.05,157.75 z M 134.2,162.06 C 135.14,162.78 136.08,163.5 137.01,164.22 C 137.13,164.31 137.24,164.41 137.36,164.5 C 137.48,164.59 137.56,164.7 137.73,164.63 C 138.01,164.51 138.3,164.4 138.58,164.28 C 139.11,164.06 139.64,163.85 140.17,163.63 C 140.16,163.64 140.18,163.67 140.17,163.69 C 140.16,163.72 140.12,163.75 140.11,163.78 C 140.08,163.85 140.04,163.93 140.01,164.0 C 139.96,164.14 139.92,164.27 139.86,164.41 C 139.74,164.68 139.63,164.95 139.51,165.22 C 139.4,165.49 139.29,165.76 139.17,166.03 C 139.1,166.21 139.21,166.29 139.3,166.41 C 139.39,166.53 139.49,166.66 139.58,166.78 C 140.29,167.71 140.99,168.64 141.7,169.56 C 141.69,169.56 141.68,169.57 141.67,169.56 C 141.66,169.55 141.65,169.54 141.64,169.53 C 141.61,169.51 141.58,169.49 141.55,169.47 C 141.49,169.43 141.42,169.36 141.36,169.31 C 141.24,169.22 141.13,169.15 141.01,169.06 C 140.78,168.88 140.53,168.68 140.3,168.5 C 139.83,168.14 139.36,167.8 138.89,167.44 C 138.77,167.35 138.67,167.25 138.55,167.16 C 138.43,167.07 138.35,166.96 138.17,167.03 C 137.9,167.15 137.63,167.26 137.36,167.38 C 136.83,167.6 136.27,167.81 135.73,168.03 C 135.74,168.02 135.76,167.99 135.76,167.97 C 135.78,167.94 135.78,167.91 135.8,167.88 C 135.82,167.81 135.86,167.73 135.89,167.66 C 135.95,167.52 135.99,167.39 136.05,167.25 L 136.39,166.44 C 136.5,166.17 136.62,165.9 136.73,165.63 C 136.81,165.45 136.7,165.37 136.61,165.25 C 136.52,165.13 136.45,165.0 136.36,164.88 C 135.64,163.94 134.92,163.0 134.2,162.06 z M 165.76,162.1 C 165.75,162.11 165.74,162.14 165.73,162.16 C 165.71,162.19 165.69,162.22 165.67,162.25 C 165.63,162.31 165.59,162.35 165.55,162.41 C 165.46,162.53 165.35,162.67 165.26,162.78 C 165.09,163.02 164.91,163.24 164.73,163.47 C 164.37,163.94 164.0,164.41 163.64,164.88 C 163.55,165.0 163.48,165.13 163.39,165.25 C 163.3,165.37 163.19,165.45 163.26,165.63 C 163.38,165.9 163.49,166.17 163.61,166.44 C 163.84,166.98 164.07,167.52 164.3,168.06 C 164.3,168.08 164.27,168.07 164.26,168.06 C 164.26,168.06 164.24,168.07 164.23,168.06 C 164.22,168.06 164.19,168.04 164.17,168.03 C 164.14,168.02 164.11,168.02 164.08,168.0 C 164.01,167.97 163.96,167.94 163.89,167.91 C 163.75,167.85 163.59,167.78 163.45,167.72 C 163.18,167.61 162.91,167.49 162.64,167.38 C 162.37,167.26 162.1,167.15 161.83,167.03 C 161.65,166.96 161.57,167.07 161.45,167.16 C 161.33,167.25 161.23,167.35 161.11,167.44 C 160.17,168.16 159.2,168.88 158.26,169.6 C 158.98,168.66 159.7,167.72 160.42,166.78 C 160.51,166.66 160.61,166.53 160.7,166.41 C 160.79,166.29 160.9,166.21 160.83,166.03 C 160.71,165.76 160.6,165.49 160.48,165.22 C 160.25,164.68 160.03,164.14 159.8,163.6 C 159.79,163.58 159.82,163.59 159.83,163.6 C 159.84,163.6 159.85,163.59 159.86,163.6 C 159.88,163.6 159.87,163.62 159.89,163.63 C 159.92,163.64 159.95,163.64 159.98,163.66 C 160.05,163.69 160.13,163.72 160.2,163.75 C 160.34,163.81 160.47,163.88 160.61,163.94 C 160.88,164.05 161.15,164.17 161.42,164.28 C 161.69,164.4 161.96,164.51 162.23,164.63 C 162.41,164.7 162.52,164.59 162.64,164.5 C 162.76,164.41 162.86,164.31 162.98,164.22 C 163.91,163.51 164.84,162.8 165.76,162.1 z M 149.11,166.72 C 149.17,166.71 149.21,166.69 149.26,166.75 C 149.35,166.85 149.38,167.07 149.39,167.19 C 149.4,167.31 149.4,167.45 149.39,167.56 C 149.38,167.66 149.38,167.94 149.23,167.97 C 149.03,168.01 148.8,168.05 148.61,168.13 C 148.31,168.24 148.05,168.43 148.01,168.78 C 147.99,169.04 148.14,169.28 148.36,169.41 C 148.66,169.59 149.04,169.61 149.36,169.63 C 149.98,169.67 150.62,169.72 151.23,169.81 C 151.74,169.9 152.19,170.01 152.61,170.35 C 153.14,170.78 153.32,171.41 153.2,172.06 C 153.11,172.59 152.87,172.95 152.45,173.28 C 152.29,173.41 152.11,173.51 151.92,173.6 C 151.71,173.69 151.52,173.76 151.3,173.81 C 151.12,173.86 150.94,173.91 150.76,173.94 C 150.72,173.95 150.68,173.94 150.64,173.94 C 150.48,173.94 150.43,173.6 150.42,173.5 C 150.41,173.37 150.4,173.25 150.42,173.13 C 150.44,173.02 150.45,172.94 150.48,172.85 C 150.51,172.79 150.54,172.74 150.61,172.72 C 150.68,172.71 150.72,172.66 150.8,172.66 C 150.87,172.66 150.92,172.64 150.98,172.63 C 151.11,172.59 151.24,172.56 151.36,172.5 C 151.55,172.42 151.73,172.3 151.86,172.13 C 152.0,171.93 152.06,171.66 151.92,171.44 C 151.84,171.31 151.71,171.24 151.58,171.19 C 151.33,171.09 151.09,171.04 150.83,171.0 C 150.45,170.94 150.05,170.9 149.67,170.88 C 149.43,170.86 149.19,170.87 148.95,170.85 C 148.51,170.81 147.95,170.65 147.58,170.38 C 146.61,169.65 146.49,168.27 147.39,167.44 C 147.75,167.11 148.3,166.88 148.76,166.78 C 148.88,166.76 149.0,166.74 149.11,166.72 z M 150.58,166.72 C 150.6,166.71 150.64,166.72 150.67,166.72 C 150.87,166.75 151.07,166.79 151.26,166.85 C 151.58,166.93 151.87,167.03 152.14,167.22 C 152.41,167.41 152.63,167.62 152.8,167.91 C 152.97,168.2 153.08,168.49 152.86,168.81 C 152.79,168.91 152.59,169.0 152.48,169.03 C 152.33,169.07 152.14,169.03 152.01,168.94 C 151.91,168.87 151.86,168.76 151.8,168.66 C 151.66,168.42 151.63,168.37 151.39,168.22 C 151.21,168.11 151.03,168.05 150.83,168.0 C 150.72,167.97 150.59,168.0 150.51,167.88 C 150.36,167.63 150.38,167.2 150.45,166.94 C 150.47,166.88 150.48,166.83 150.51,166.78 C 150.53,166.75 150.55,166.73 150.58,166.72 z M 147.33,171.6 C 147.4,171.59 147.47,171.61 147.55,171.63 C 147.75,171.67 147.85,171.78 147.95,171.94 C 148.16,172.28 148.27,172.44 148.67,172.56 C 148.85,172.62 149.02,172.66 149.2,172.69 C 149.32,172.71 149.38,172.95 149.39,173.03 C 149.41,173.19 149.41,173.34 149.39,173.5 C 149.38,173.57 149.38,173.65 149.36,173.72 C 149.34,173.78 149.3,173.95 149.2,173.94 C 148.59,173.87 147.89,173.7 147.39,173.28 C 147.13,173.07 146.93,172.85 146.83,172.5 C 146.79,172.37 146.76,172.27 146.8,172.13 C 146.81,172.09 146.81,172.04 146.83,172.0 C 146.88,171.84 146.96,171.73 147.11,171.66 C 147.18,171.62 147.26,171.6 147.33,171.6 z" />
		
		
		<text id="txtTwo" transform="matrix(1 0 0 1 150 160)" style="stroke:none;fill:#f00;font-family:'Eras Medium ITC';font-size:20px;text-anchor:middle"  >

		</text>
		<!-- Prism Reference -->
		<cam mingh:cam="--verb EditSelectAll --verb ZoomSelection --verb FileSave "/> 
	 </g>

</svg>