<svg
   xmlns:xlink="http://www.w3.org/1999/xlink"
   xmlns:svg="http://www.w3.org/2000/svg"
   xmlns="http://www.w3.org/2000/svg"
   xmlns:mingh="http://www.minghworld.com"
   width="300px"
   height="300px" >
	
	 <g>
		
		<!-- Paths -->
		<path transform="matrix(-1 0 0 1 300 0)" style="fill:#ff0;stroke:none;"
		 d="M 151.04,153.88 C 151.42,154.49 151.85,155.07 152.3,155.65 C 152.67,156.14 153.05,156.64 153.53,157.02 C 153.8,157.23 154.09,157.4 154.4,157.54 C 154.97,157.81 155.58,157.97 156.22,157.9 C 156.46,157.87 156.71,157.81 156.87,157.65 C 157.04,157.49 157.11,157.22 157.12,156.96 C 157.13,156.65 157.04,156.36 156.9,156.1 C 156.79,155.88 156.64,155.68 156.49,155.48 C 156.36,155.31 156.24,155.15 156.11,154.99 C 155.77,155.1 155.43,155.17 155.08,155.19 C 154.74,155.21 154.4,155.18 154.06,155.12 C 153.41,155.0 152.78,154.75 152.18,154.47 C 151.79,154.29 151.41,154.1 151.04,153.88 z M 154.68,131.16 C 155.09,130.09 155.28,128.59 155.08,127.45 C 154.97,126.81 154.72,126.26 154.13,125.9 C 153.59,125.56 152.91,125.51 152.33,125.77 C 151.74,126.02 151.31,126.55 151.19,127.18 C 151.06,127.86 151.29,128.41 151.69,128.93 C 152.39,129.86 153.62,130.73 154.68,131.16 z M 153.68,139.07 C 153.63,138.87 153.58,138.67 153.51,138.48 C 153.38,138.06 153.21,137.65 153.01,137.26 C 152.82,136.91 152.61,136.57 152.37,136.25 C 152.11,135.91 151.82,135.59 151.53,135.31 C 151.32,135.11 151.1,134.92 150.81,134.8 C 150.65,134.73 150.47,134.69 150.34,134.77 C 150.27,134.81 150.22,134.89 150.19,134.98 C 150.15,135.13 150.19,135.29 150.24,135.44 C 150.34,135.74 150.46,135.99 150.6,136.25 C 150.83,136.68 151.11,137.1 151.43,137.5 C 151.85,138.0 152.34,138.45 152.91,138.76 C 153.16,138.88 153.42,138.99 153.68,139.07 z M 156.01,144.77 C 157.32,145.54 157.84,146.0 158.34,146.49 C 158.69,146.84 159.03,147.2 159.26,147.63 C 159.43,147.94 159.53,148.28 159.56,148.64 C 159.6,149.07 159.52,149.53 159.3,149.87 C 159.09,150.19 158.76,150.42 158.43,150.64 C 158.1,150.85 157.78,151.05 157.43,151.21 C 157.53,151.39 157.62,151.59 157.68,151.79 C 157.81,152.25 157.78,152.74 157.79,153.22 C 157.8,153.54 157.82,153.85 157.82,154.16 C 157.97,154.29 158.12,154.43 158.27,154.57 C 158.6,154.9 158.91,155.25 159.15,155.65 C 159.4,156.07 159.57,156.55 159.56,157.02 C 159.56,157.3 159.49,157.58 159.37,157.84 C 159.25,158.11 159.07,158.36 158.88,158.59 C 158.47,159.1 157.98,159.55 157.43,159.9 C 157.55,160.06 157.67,160.22 157.79,160.38 C 158.13,160.84 158.5,161.28 158.77,161.79 C 158.92,162.07 159.04,162.38 159.09,162.7 C 159.13,162.95 159.13,163.2 159.1,163.45 C 159.06,163.76 158.98,164.06 158.89,164.36 C 158.62,165.23 158.3,166.08 158.06,166.96 C 157.89,167.58 157.76,168.2 157.64,168.83 C 157.47,169.66 157.3,170.49 157.28,171.34 C 157.27,171.82 157.3,172.3 157.42,172.76 C 157.55,173.3 157.81,173.8 158.01,174.32 C 158.07,174.5 158.13,174.68 158.18,174.87 C 158.23,175.06 158.26,175.26 158.25,175.46 C 158.24,175.65 158.19,175.85 158.08,176.0 C 157.96,176.15 157.79,176.26 157.6,176.31 C 157.43,176.36 157.25,176.35 157.09,176.31 C 156.84,176.25 156.63,176.11 156.41,175.97 C 156.17,175.81 155.93,175.66 155.69,175.51 C 155.38,175.32 155.08,175.12 154.8,174.89 C 154.59,174.72 154.4,174.53 154.24,174.31 C 154.11,174.13 154.01,173.93 153.92,173.73 C 153.83,173.51 153.75,173.27 153.69,173.04 C 153.61,172.7 153.56,172.36 153.52,172.02 C 153.5,171.8 153.47,171.57 153.46,171.35 C 153.45,171.19 153.45,171.03 153.45,170.87 C 152.41,170.18 151.38,169.49 150.35,168.78 C 149.27,168.03 148.2,167.27 147.15,166.48 C 146.27,165.82 145.4,165.15 144.56,164.45 C 143.96,163.94 143.37,163.43 142.81,162.88 C 142.45,162.53 142.1,162.17 141.77,161.8 C 141.48,161.46 141.2,161.11 140.95,160.73 C 140.72,160.37 140.5,159.99 140.45,159.58 C 140.4,159.24 140.45,158.87 140.62,158.57 C 140.74,158.35 140.91,158.17 141.12,158.05 C 141.4,157.89 141.74,157.86 142.08,157.88 C 142.59,157.91 143.06,158.06 143.53,158.24 C 144.08,158.44 144.62,158.67 145.16,158.91 C 145.72,159.17 146.28,159.45 146.83,159.74 C 147.24,159.96 147.65,160.17 148.05,160.4 C 148.21,160.25 148.37,160.1 148.52,159.95 C 148.84,160.2 149.15,160.46 149.45,160.73 C 149.92,161.15 150.37,161.59 150.75,162.07 C 150.94,162.31 151.1,162.55 151.25,162.84 C 151.39,163.12 151.52,163.44 151.43,163.73 C 151.36,163.95 151.15,164.16 150.92,164.26 C 150.6,164.4 150.24,164.36 149.9,164.29 C 149.43,164.2 148.99,164.05 148.57,163.87 C 147.88,163.58 147.23,163.21 146.58,162.83 C 145.99,162.48 145.4,162.12 144.83,161.74 C 144.92,161.84 145.01,161.94 145.1,162.03 C 146.29,163.27 147.74,164.24 149.14,165.24 C 150.13,165.95 151.09,166.67 152.07,167.38 C 152.56,167.73 153.06,168.08 153.56,168.43 C 153.6,167.83 153.68,167.23 153.81,166.65 C 153.94,166.05 154.13,165.46 154.3,164.87 C 154.49,164.21 154.66,163.54 154.86,162.88 C 154.93,162.66 155.0,162.45 155.03,162.22 C 155.04,162.1 155.05,161.96 155.03,161.84 C 155.0,161.67 154.94,161.52 154.87,161.36 C 154.74,161.11 154.58,160.87 154.41,160.64 C 154.23,160.38 154.03,160.13 153.81,159.9 C 153.42,159.7 153.03,159.48 152.65,159.25 C 152.1,158.92 151.56,158.56 151.07,158.15 C 150.45,157.63 149.91,157.04 149.47,156.35 C 149.01,155.65 148.67,154.85 148.62,154.02 C 148.6,153.72 148.62,153.41 148.73,153.11 C 148.86,152.75 149.13,152.4 149.48,152.27 C 149.72,152.17 150.0,152.17 150.25,152.22 C 150.32,152.14 150.39,152.07 150.48,152.0 C 150.61,151.89 150.77,151.8 150.94,151.74 C 151.23,151.64 151.55,151.62 151.86,151.63 C 152.39,151.65 152.9,151.76 153.41,151.89 C 153.75,151.98 154.1,152.08 154.43,152.21 C 154.4,152.07 154.35,151.93 154.29,151.8 C 154.24,151.69 154.19,151.59 154.12,151.5 C 154.03,151.39 153.93,151.29 153.81,151.21 C 152.9,150.54 150.21,148.48 149.24,147.57 C 149.09,147.44 148.99,147.33 148.89,147.15 C 148.76,146.91 148.64,146.54 148.61,146.11 C 148.58,145.78 148.6,145.42 148.82,145.23 C 148.95,145.1 149.16,145.05 149.35,145.03 C 149.65,144.99 149.9,145.03 150.17,145.11 C 150.72,145.28 151.33,145.62 151.89,145.96 C 152.53,146.33 153.11,146.7 153.65,147.13 C 153.9,147.33 154.13,147.54 154.36,147.77 C 154.59,147.99 154.8,148.22 155.0,148.46 C 155.24,148.53 155.44,148.56 155.73,148.62 C 156.02,148.67 156.4,148.76 156.47,148.67 C 156.55,148.57 156.28,148.25 156.05,148.0 C 155.63,147.51 155.38,147.22 155.04,146.87 C 154.92,146.75 154.78,146.61 154.65,146.48 C 154.3,146.43 153.95,146.35 153.61,146.23 C 153.12,146.05 152.67,145.78 152.22,145.5 C 151.36,144.96 150.52,144.38 149.65,143.62 C 149.32,143.34 148.98,143.03 148.81,142.67 C 148.6,142.26 148.61,141.79 148.72,141.44 C 148.85,141.02 149.13,140.77 149.63,140.83 C 150.24,140.91 151.17,141.47 151.92,141.88 C 152.5,142.2 152.98,142.43 153.32,142.61 C 153.5,142.7 153.64,142.78 153.79,142.85 C 153.84,142.87 153.89,142.89 153.95,142.91 C 153.98,142.91 154.01,142.92 154.04,142.91 C 154.09,142.9 154.14,142.87 154.17,142.82 C 154.2,142.79 154.21,142.75 154.22,142.71 C 154.23,142.63 154.21,142.55 154.19,142.48 C 154.15,142.29 154.08,142.12 153.99,141.97 C 153.93,141.87 153.87,141.78 153.81,141.7 C 153.04,141.28 152.31,140.77 151.66,140.18 C 151.05,139.62 150.51,139.0 150.03,138.32 C 149.55,137.63 149.13,136.9 148.87,136.11 C 148.69,135.56 148.59,134.99 148.61,134.38 C 148.63,133.96 148.7,133.52 148.96,133.21 C 149.24,132.87 149.74,132.7 150.2,132.69 C 150.89,132.68 151.5,133.05 152.02,133.46 C 152.82,134.1 153.42,134.84 153.96,135.66 C 154.52,136.51 155.02,137.44 155.52,138.65 C 155.67,138.66 155.83,138.65 155.99,138.6 C 156.18,138.54 156.37,138.43 156.48,138.27 C 156.67,138.0 156.62,137.59 156.53,137.23 C 156.37,136.59 156.11,136.07 155.81,135.55 C 155.27,134.64 154.6,133.74 153.81,133.01 C 153.66,132.89 153.51,132.79 153.35,132.7 C 153.26,132.65 153.16,132.6 153.07,132.55 C 152.94,132.48 152.81,132.41 152.69,132.33 C 152.47,132.2 152.26,132.06 152.05,131.92 C 151.68,131.66 151.33,131.37 151.0,131.06 C 150.69,130.77 150.4,130.47 150.15,130.13 C 149.9,129.81 149.69,129.47 149.53,129.11 C 149.29,128.55 149.18,127.93 149.21,127.32 C 149.26,126.6 149.51,125.9 149.92,125.31 C 150.22,124.88 150.61,124.51 151.06,124.23 C 151.52,123.95 152.04,123.76 152.58,123.69 C 153.23,123.6 153.91,123.68 154.53,123.93 C 155.33,124.25 156.03,124.84 156.47,125.58 C 156.85,126.24 157.02,127.02 157.08,127.77 C 157.14,128.43 157.11,129.07 157.03,129.78 C 157.0,130.05 156.95,130.33 156.92,130.57 C 156.91,130.66 156.9,130.75 156.89,130.84 C 156.86,131.25 156.89,131.7 157.01,132.12 C 157.08,132.36 157.18,132.58 157.3,132.8 C 157.34,132.87 157.38,132.94 157.43,133.01 C 157.64,133.35 157.85,133.69 158.05,134.03 C 158.41,134.66 158.76,135.29 159.03,135.99 C 159.39,136.92 159.62,137.95 159.55,138.9 C 159.51,139.42 159.39,139.92 159.11,140.36 C 158.74,140.95 158.1,141.42 157.43,141.7 C 157.5,141.96 157.54,142.12 157.56,142.3 C 157.65,142.95 157.56,143.78 156.01,144.77 z" />
		
		
		<text id="txtTwo" transform="matrix(1 0 0 1 150 160)" style="stroke:none;fill:#f00;font-family:'Eras Medium ITC';font-size:20px;text-anchor:middle"  >

		</text>
		<!-- Prism Reference -->
		<cam mingh:cam=" --verb EditSelectAll --verb ZoomSelection --verb FileSave "/> 
	 </g>

</svg>