<svg
   xmlns:xlink="http://www.w3.org/1999/xlink"
   xmlns:svg="http://www.w3.org/2000/svg"
   xmlns="http://www.w3.org/2000/svg"
   xmlns:mingh="http://www.minghworld.com"
   width="300px"
   height="300px" >
	
	 <g>
		
		<!-- Paths -->
		<path transform="matrix(-1 0 0 1 300 0)" style="fill:#ff0;stroke:none;"
		 d="M 147.19,126.94 C 146.9,126.94 146.61,127.0 146.31,127.06 C 144.06,127.57 142.69,129.83 143.28,132.06 C 143.56,133.14 144.25,134.05 145.22,134.59 C 145.73,134.88 146.24,135.04 146.81,135.09 C 147.08,135.12 147.36,135.12 147.63,135.09 C 147.69,135.09 147.75,135.07 147.81,135.06 C 147.83,135.06 147.84,135.11 147.84,135.13 C 147.88,135.18 147.94,135.26 147.97,135.31 C 148.24,135.76 148.47,136.21 148.75,136.66 C 149.03,137.1 149.34,137.55 149.66,137.97 C 149.97,138.39 150.3,138.8 150.66,139.19 C 151.01,139.57 151.37,139.93 151.69,140.34 C 152.36,141.22 152.55,142.24 152.91,143.22 C 153.35,144.44 153.8,144.89 154.66,145.81 C 154.83,146.01 155.0,146.17 155.13,146.41 C 155.28,146.69 155.16,146.93 155.09,147.19 C 154.92,147.83 155.3,148.13 155.63,148.56 C 155.84,148.84 155.86,148.97 155.78,149.31 C 155.72,149.57 155.63,149.79 155.66,150.06 C 155.7,150.62 156.1,151.03 156.41,151.41 C 156.08,151.34 155.76,151.24 155.44,151.19 C 155.18,151.15 154.73,151.12 154.47,151.16 C 154.07,151.21 153.92,151.44 153.75,151.75 C 153.67,151.9 153.59,152.03 153.41,152.09 C 153.25,152.15 153.1,152.17 152.94,152.22 C 152.55,152.34 152.48,152.66 152.31,152.94 C 152.13,153.23 151.78,153.38 151.47,153.44 C 150.87,153.55 150.1,153.35 149.53,153.25 C 148.88,153.14 148.24,153.01 147.63,152.72 C 147.02,152.43 146.47,152.09 145.94,151.69 C 145.09,151.04 143.87,149.63 143.22,148.81 C 142.39,147.78 141.64,146.72 140.78,145.72 C 140.35,145.22 139.91,144.71 139.44,144.25 C 138.97,143.79 138.48,143.33 138.06,142.81 C 137.85,142.56 137.64,142.32 137.44,142.06 C 137.23,141.81 137.03,141.56 136.81,141.31 C 136.59,141.07 136.39,140.79 136.19,140.53 C 135.98,140.26 135.72,140.03 135.34,140.19 C 135.0,140.33 134.83,140.65 135.0,141.0 C 135.15,141.31 135.4,141.52 135.59,141.78 C 135.79,142.05 135.96,142.33 136.16,142.59 C 136.35,142.86 136.6,143.07 136.75,143.38 C 136.91,143.7 136.81,144.02 136.88,144.34 C 136.95,144.69 137.12,144.96 137.34,145.22 C 137.45,145.34 137.55,145.47 137.66,145.59 C 137.79,145.76 137.84,145.82 137.84,146.03 C 137.84,146.44 137.91,146.61 138.16,146.94 C 138.65,147.59 138.84,147.87 138.94,148.72 C 138.97,149.05 138.97,149.37 139.13,149.69 C 139.2,149.84 139.31,149.95 139.44,150.06 C 139.56,150.18 139.69,150.28 139.72,150.47 C 139.73,150.51 139.75,150.57 139.69,150.56 C 139.65,150.56 139.6,150.54 139.56,150.53 C 139.48,150.52 139.4,150.52 139.31,150.53 C 139.11,150.57 139.03,150.67 138.97,150.84 C 138.91,151.0 138.91,151.18 138.91,151.34 C 138.9,151.51 138.89,151.68 138.84,151.84 C 138.82,151.92 138.68,151.88 138.63,151.88 C 138.54,151.87 138.46,151.85 138.38,151.84 C 138.21,151.83 138.07,151.85 137.91,151.91 C 137.75,151.96 137.61,152.04 137.47,152.13 C 137.32,152.21 137.18,152.25 137.0,152.25 C 136.66,152.24 136.35,152.11 136.03,152.03 C 135.71,151.95 135.4,151.91 135.06,151.94 C 134.4,151.99 133.78,152.25 133.13,152.34 C 132.79,152.39 132.45,152.36 132.13,152.31 C 131.8,152.26 131.5,152.22 131.16,152.28 C 130.82,152.34 130.53,152.5 130.22,152.59 C 129.89,152.7 129.59,152.7 129.25,152.66 C 128.59,152.57 127.97,152.33 127.31,152.25 C 126.65,152.17 125.97,152.21 125.31,152.22 C 124.65,152.22 124.0,152.17 123.34,152.16 C 123.18,152.15 123.01,152.17 122.84,152.19 C 122.7,152.21 122.52,152.23 122.47,152.41 C 122.42,152.58 122.55,152.72 122.66,152.81 C 122.78,152.92 122.92,153.01 123.06,153.09 C 124.34,153.85 125.38,154.07 126.81,154.28 C 127.47,154.38 128.11,154.53 128.75,154.72 C 129.38,154.91 129.99,155.13 130.63,155.31 C 131.9,155.69 133.2,155.91 134.5,156.13 C 135.8,156.34 137.11,156.59 138.41,156.84 C 139.05,156.97 139.7,157.09 140.34,157.22 C 140.99,157.35 141.64,157.49 142.28,157.63 C 143.86,157.97 144.57,158.26 145.88,159.22 C 146.41,159.61 146.94,159.98 147.53,160.28 C 147.68,160.36 147.82,160.42 147.97,160.5 C 147.99,160.51 148.01,160.52 148.03,160.53 C 148.04,160.53 148.03,160.56 148.03,160.56 C 147.99,160.56 147.95,160.56 147.91,160.56 C 147.82,160.56 147.77,160.56 147.69,160.56 C 147.35,160.59 147.03,160.72 146.72,160.81 C 146.44,160.9 146.06,160.99 145.91,161.31 C 145.83,161.47 145.79,161.62 145.78,161.78 C 145.77,161.91 145.78,162.15 145.66,162.25 C 145.29,162.56 144.14,162.36 144.0,163.09 C 143.97,163.26 143.98,163.43 144.0,163.59 C 144.01,163.71 144.03,163.97 143.97,164.09 C 143.92,164.2 143.61,164.28 143.53,164.31 C 143.37,164.39 143.25,164.48 143.19,164.66 C 143.13,164.82 143.15,164.96 143.13,165.13 C 143.11,165.24 143.09,165.3 142.97,165.31 C 142.89,165.32 142.8,165.29 142.72,165.28 C 142.46,165.26 142.03,165.15 141.75,165.25 C 141.44,165.36 141.26,165.78 141.06,165.97 C 140.81,166.21 140.51,166.31 140.19,166.41 C 139.55,166.6 138.91,166.65 138.25,166.72 C 137.02,166.85 135.57,166.96 134.41,167.56 C 133.82,167.87 133.3,168.28 132.72,168.59 C 132.13,168.92 131.5,169.13 130.84,169.28 C 130.2,169.43 129.57,169.5 128.94,169.72 C 128.3,169.94 127.73,170.26 127.16,170.59 C 126.58,170.93 126.05,171.29 125.66,171.88 C 125.13,172.64 125.54,173.13 126.44,173.03 C 126.82,172.99 127.97,172.65 128.34,172.56 C 128.99,172.42 129.65,172.34 130.31,172.28 C 131.63,172.16 132.93,172.1 134.25,172.03 C 135.57,171.97 136.9,171.88 138.22,171.78 C 141.61,171.52 142.72,171.45 146.13,171.59 C 147.44,171.65 148.75,171.7 150.06,171.78 C 151.38,171.86 152.69,171.95 154.0,172.06 C 154.66,172.12 155.3,172.16 155.97,172.03 C 156.3,171.97 156.6,171.86 156.91,171.72 C 157.27,171.55 157.46,171.49 157.88,171.47 C 158.2,171.45 158.52,171.42 158.84,171.38 C 159.17,171.33 159.49,171.27 159.81,171.19 C 160.45,171.02 161.08,170.82 161.69,170.56 C 162.31,170.3 162.84,169.96 163.31,169.47 C 163.78,168.98 164.18,168.5 164.91,168.34 C 165.23,168.27 165.58,168.24 165.91,168.19 C 166.23,168.14 166.55,168.07 166.88,168.0 C 167.52,167.85 168.12,167.66 168.72,167.38 C 169.81,166.87 171.14,166.08 172.06,165.28 C 172.56,164.85 173.03,164.33 173.5,163.88 C 173.98,163.42 174.47,163.0 174.94,162.53 C 175.23,162.24 175.34,162.13 175.75,162.0 C 175.91,161.95 176.07,161.88 176.22,161.81 C 176.37,161.74 176.49,161.67 176.66,161.63 C 176.82,161.58 176.99,161.6 177.16,161.59 C 177.3,161.59 177.54,161.58 177.56,161.38 C 177.58,161.2 177.36,161.09 177.25,161.03 C 177.11,160.95 176.96,160.86 176.81,160.78 C 176.52,160.62 176.23,160.49 175.97,160.28 C 175.68,160.06 175.55,159.79 175.44,159.47 C 175.19,158.75 175.02,158.32 174.41,157.81 C 173.32,156.92 171.94,156.86 170.66,157.09 C 170.3,157.16 169.09,157.46 168.69,157.22 C 168.47,157.09 168.36,156.5 168.31,156.31 C 168.23,155.99 168.15,155.69 168.19,155.34 C 168.23,155.01 168.32,154.7 168.38,154.38 C 168.43,154.04 168.44,153.71 168.41,153.38 C 168.34,152.7 168.17,152.1 167.84,151.5 C 167.52,150.91 167.09,150.43 166.69,149.91 C 166.28,149.39 165.89,148.85 165.47,148.34 C 163.86,146.39 162.73,145.42 160.84,143.75 C 160.03,143.03 159.23,142.3 158.47,141.53 C 157.42,140.47 157.28,140.21 156.09,139.28 C 155.24,138.61 154.35,137.99 153.5,137.31 C 153.08,136.97 152.66,136.63 152.25,136.28 C 152.05,136.11 151.86,135.92 151.66,135.75 C 151.49,135.61 151.31,135.48 151.16,135.31 C 150.97,135.11 150.79,134.88 150.63,134.66 C 150.52,134.52 150.42,134.39 150.31,134.25 C 150.25,134.17 150.22,134.11 150.16,134.03 C 150.14,134.01 150.11,133.99 150.09,133.97 C 150.09,133.96 150.1,133.94 150.09,133.94 C 150.1,133.93 150.09,133.91 150.09,133.91 C 150.14,133.86 150.21,133.8 150.25,133.75 C 151.03,132.88 151.39,131.73 151.25,130.56 C 151.0,128.46 149.21,126.92 147.19,126.94 z M 147.0,129.09 C 147.13,129.08 147.25,129.08 147.38,129.09 C 147.63,129.12 147.9,129.19 148.13,129.31 C 148.35,129.43 148.55,129.59 148.72,129.78 C 148.88,129.98 148.99,130.19 149.06,130.44 C 149.14,130.68 149.18,130.93 149.16,131.19 C 149.13,131.44 149.06,131.71 148.94,131.94 C 148.82,132.16 148.66,132.37 148.47,132.53 C 148.27,132.7 148.06,132.8 147.81,132.88 C 147.57,132.95 147.29,132.99 147.03,132.97 C 146.78,132.95 146.54,132.87 146.31,132.75 C 146.09,132.63 145.88,132.48 145.72,132.28 C 145.55,132.09 145.42,131.87 145.34,131.63 C 145.27,131.38 145.26,131.1 145.28,130.84 C 145.3,130.59 145.38,130.35 145.5,130.13 C 145.62,129.9 145.77,129.7 145.97,129.53 C 146.16,129.37 146.38,129.23 146.63,129.16 C 146.75,129.12 146.87,129.11 147.0,129.09 z" />
		
		
		<text id="txtTwo" transform="matrix(1 0 0 1 150 160)" style="stroke:none;fill:#f00;font-family:'Eras Medium ITC';font-size:20px;text-anchor:middle"  >

		</text>
		<!-- Prism Reference -->
		<cam mingh:cam="--verb EditSelectAll --verb ZoomSelection --verb FileSave"/> 
	 </g>

</svg>