<svg
   xmlns:xlink="http://www.w3.org/1999/xlink"
   xmlns:svg="http://www.w3.org/2000/svg"
   xmlns="http://www.w3.org/2000/svg"
   xmlns:mingh="http://www.minghworld.com"
   width="300px"
   height="300px" >
   
	<g>	
		<!-- Paths -->
		<path style="fill:none;stroke:#000;stroke-width:0.25px;"
		 d="M 148.54,151.45 C 148.86,149.44 147.49,147.54 145.47,147.22 C 143.45,146.9 141.56,148.27 141.24,150.29 C 140.92,152.31 142.29,154.2 144.31,154.52 C 146.33,154.84 148.22,153.47 148.54,151.45 z M 172.88,129.0 C 172.72,129.01 172.59,129.03 172.44,129.06 C 171.82,129.19 171.25,129.52 170.84,130.0 C 170.65,130.22 170.49,130.45 170.38,130.72 C 170.37,130.73 170.35,130.72 170.34,130.72 C 170.33,130.71 170.3,130.72 170.28,130.72 C 170.25,130.71 170.22,130.69 170.19,130.69 C 170.12,130.68 170.04,130.69 169.97,130.69 C 169.82,130.68 169.68,130.67 169.53,130.69 C 168.9,130.74 168.31,131.01 167.84,131.44 C 167.61,131.65 167.46,131.88 167.31,132.16 C 167.24,132.28 167.17,132.43 167.13,132.56 C 167.1,132.63 167.08,132.68 167.06,132.75 C 167.05,132.78 167.02,132.81 167.06,132.84 C 167.08,132.86 167.1,132.86 167.13,132.88 C 167.3,133.01 167.49,133.12 167.69,133.22 C 167.89,133.31 168.1,133.38 168.31,133.44 C 168.52,133.5 168.75,133.59 168.81,133.84 C 168.87,134.09 168.72,134.31 168.53,134.44 C 168.31,134.59 168.13,134.52 167.91,134.5 C 167.67,134.47 167.45,134.47 167.25,134.63 C 166.87,134.92 166.88,135.48 166.94,135.88 C 166.97,136.1 167.01,136.29 167.09,136.5 C 167.11,136.55 167.16,136.61 167.19,136.66 C 167.2,136.68 167.21,136.73 167.22,136.75 C 167.22,136.76 167.21,136.77 167.22,136.78 C 167.23,136.8 167.2,136.81 167.19,136.81 C 167.08,136.87 166.99,136.91 166.88,136.97 C 166.43,137.19 165.98,137.41 165.53,137.63 C 164.63,138.06 163.71,138.5 162.81,138.94 C 160.68,139.98 158.57,141.02 156.44,142.06 C 155.37,142.58 154.28,143.1 153.22,143.63 C 153.15,143.66 153.1,143.72 153.03,143.75 C 153.0,143.77 152.97,143.76 152.94,143.78 C 152.92,143.79 152.89,143.8 152.88,143.81 C 152.85,143.82 152.88,143.79 152.88,143.78 C 152.83,143.7 152.77,143.61 152.72,143.53 C 152.61,143.37 152.49,143.22 152.38,143.06 C 152.13,142.73 151.88,142.42 151.59,142.13 C 150.42,140.9 148.96,140.15 147.25,140.0 C 146.43,139.93 145.67,139.99 144.88,140.22 C 144.5,140.33 144.16,140.48 143.81,140.66 C 143.77,140.68 143.7,140.7 143.66,140.72 C 143.64,140.73 143.61,140.74 143.59,140.75 C 143.6,140.74 143.59,140.73 143.59,140.72 C 143.67,140.48 143.73,140.22 143.75,139.97 C 143.8,139.42 143.73,138.9 143.56,138.38 C 143.07,136.86 141.71,135.83 140.13,135.72 C 138.53,135.61 137.03,136.47 136.34,137.91 C 135.65,139.35 135.92,141.08 137.0,142.25 C 137.54,142.84 138.25,143.24 139.03,143.41 C 139.41,143.49 139.8,143.5 140.19,143.47 C 140.28,143.46 140.35,143.45 140.44,143.44 C 140.45,143.44 140.52,143.42 140.5,143.44 C 140.49,143.44 140.47,143.46 140.47,143.47 C 140.46,143.48 140.45,143.49 140.44,143.5 C 140.39,143.55 140.36,143.58 140.31,143.63 C 139.61,144.32 138.83,145.09 137.84,145.44 C 136.83,145.8 135.65,145.75 134.63,145.56 C 133.67,145.39 132.76,145.11 131.81,144.94 C 130.79,144.75 129.76,144.67 128.72,144.72 C 126.7,144.81 124.84,145.37 123.31,146.81 C 121.82,148.22 120.63,150.64 120.47,152.69 C 120.31,154.75 121.12,156.51 121.94,158.25 C 122.77,160.02 123.66,161.78 124.59,163.5 C 125.06,164.36 125.54,165.19 126.03,166.03 C 126.52,166.87 127.02,167.68 127.69,168.41 C 128.41,169.19 129.21,169.77 130.19,170.19 C 131.29,170.66 132.37,170.9 133.56,170.97 C 135.69,171.1 137.56,170.51 139.19,169.09 C 140.02,168.37 140.69,167.55 141.28,166.63 C 141.86,165.72 142.3,164.78 142.69,163.78 C 143.05,162.85 143.41,161.93 144.0,161.09 C 144.57,160.29 145.19,159.69 146.13,159.31 C 147.01,158.95 147.95,158.84 148.88,158.69 C 149.86,158.52 150.83,158.34 151.78,158.0 C 153.84,157.26 155.32,155.58 155.84,153.47 C 156.24,151.89 155.99,150.35 155.44,148.88 C 155.41,148.79 155.38,148.71 155.34,148.63 C 155.33,148.58 155.33,148.54 155.31,148.5 C 155.3,148.48 155.29,148.46 155.28,148.44 C 155.27,148.41 155.33,148.38 155.34,148.38 C 155.59,148.24 155.85,148.1 156.09,147.97 C 156.59,147.7 157.07,147.43 157.56,147.16 C 158.56,146.61 159.57,146.07 160.56,145.53 C 162.55,144.45 164.51,143.37 166.5,142.28 C 167.0,142.01 167.5,141.74 168.0,141.47 C 168.25,141.33 168.5,141.2 168.75,141.06 C 168.87,140.99 169.0,140.91 169.13,140.84 C 169.16,140.83 169.19,140.8 169.22,140.78 C 169.24,140.77 169.3,140.72 169.31,140.75 C 169.34,140.81 169.34,140.88 169.38,140.94 C 169.61,141.33 170.02,141.76 170.47,141.94 C 170.71,142.03 170.99,142.04 171.22,141.91 C 171.47,141.76 171.53,141.53 171.66,141.31 C 171.9,140.9 172.58,140.87 172.69,141.38 C 172.74,141.62 172.64,141.79 172.56,142.0 C 172.48,142.21 172.43,142.44 172.41,142.66 C 172.39,142.76 172.41,142.86 172.41,142.97 C 172.41,143.02 172.4,143.07 172.41,143.13 C 172.41,143.15 172.4,143.2 172.44,143.22 C 172.47,143.23 172.5,143.24 172.53,143.25 C 172.81,143.34 173.08,143.37 173.38,143.38 C 174.0,143.39 174.59,143.21 175.09,142.84 C 175.34,142.67 175.54,142.47 175.72,142.22 C 175.8,142.1 175.87,142.0 175.94,141.88 C 175.97,141.81 176.0,141.75 176.03,141.69 C 176.04,141.66 176.11,141.68 176.13,141.69 C 176.16,141.69 176.19,141.68 176.22,141.69 C 176.81,141.78 177.44,141.68 177.97,141.41 C 178.51,141.12 178.95,140.68 179.22,140.13 C 179.28,140.0 179.3,139.85 179.34,139.72 C 179.35,139.69 179.37,139.66 179.38,139.63 C 179.38,139.6 179.41,139.59 179.38,139.56 C 179.33,139.53 179.29,139.5 179.25,139.47 C 179.07,139.34 178.89,139.2 178.69,139.13 C 178.3,138.98 177.73,138.89 177.94,138.31 C 178.17,137.67 178.74,138.18 179.13,137.97 C 179.38,137.83 179.48,137.5 179.5,137.25 C 179.52,137.01 179.53,136.77 179.53,136.53 C 179.53,136.04 179.48,135.58 179.38,135.09 C 178.95,133.13 177.72,131.42 175.97,130.44 C 175.74,130.32 175.42,130.19 175.16,130.34 C 174.97,130.45 174.85,130.79 174.75,130.94 C 174.58,131.18 174.41,131.19 174.16,131.09 C 173.9,131.0 173.82,130.86 173.84,130.59 C 173.86,130.37 173.95,130.18 174.0,129.97 C 174.05,129.75 174.04,129.54 174.03,129.31 C 174.03,129.28 174.03,129.25 174.03,129.22 C 174.03,129.17 174.0,129.2 173.97,129.19 C 173.9,129.16 173.82,129.14 173.75,129.13 C 173.61,129.09 173.49,129.05 173.34,129.03 C 173.19,129.01 173.03,128.99 172.88,129.0 z M 171.0,131.75 C 171.07,131.73 171.14,131.75 171.22,131.78 L 171.25,131.78 C 171.54,131.91 171.78,131.93 172.09,131.88 C 172.12,131.87 172.14,131.84 172.16,131.88 C 172.17,131.91 172.2,131.94 172.22,131.97 C 172.25,132.04 172.28,132.12 172.31,132.19 C 172.38,132.32 172.46,132.46 172.53,132.59 C 172.57,132.67 172.62,132.74 172.66,132.81 C 172.68,132.85 172.7,132.87 172.72,132.91 C 172.72,132.92 172.71,132.93 172.72,132.94 C 172.73,132.95 172.73,132.96 172.72,132.97 C 172.7,132.98 172.67,132.96 172.66,132.97 C 172.54,133.03 172.43,133.09 172.31,133.16 C 172.05,133.29 171.8,133.43 171.53,133.56 C 171.4,133.63 171.23,133.69 171.09,133.75 C 171.02,133.78 170.98,133.81 170.91,133.84 C 170.89,133.85 170.86,133.87 170.84,133.88 C 170.82,133.88 170.82,133.89 170.81,133.88 L 170.78,133.78 C 170.65,133.52 170.51,133.26 170.38,133.0 C 170.35,132.96 170.34,132.92 170.31,132.88 C 170.3,132.86 170.26,132.83 170.28,132.81 C 170.29,132.8 170.33,132.79 170.34,132.78 C 170.39,132.73 170.43,132.68 170.47,132.63 C 170.55,132.52 170.64,132.38 170.69,132.25 C 170.74,132.12 170.72,131.99 170.81,131.88 C 170.86,131.81 170.93,131.77 171.0,131.75 z M 175.47,132.75 C 176.0,132.72 176.36,133.26 176.09,133.72 C 175.96,133.96 175.71,134.05 175.5,134.16 C 175.29,134.27 175.09,134.36 174.88,134.47 C 174.85,134.48 174.81,134.52 174.78,134.53 C 174.76,134.54 174.79,134.51 174.78,134.5 L 174.72,134.41 C 174.69,134.36 174.68,134.33 174.66,134.28 C 174.61,134.18 174.55,134.07 174.5,133.97 C 174.39,133.76 174.27,133.56 174.16,133.34 C 174.37,133.23 174.6,133.11 174.81,133.0 C 174.99,132.91 175.25,132.76 175.47,132.75 z M 173.19,133.84 L 173.81,135.03 L 171.94,136.0 L 171.31,134.81 L 173.19,133.84 z M 176.81,135.28 C 176.92,135.27 177.03,135.31 177.16,135.38 C 177.62,135.63 177.6,136.29 177.13,136.53 C 176.91,136.64 176.71,136.77 176.5,136.88 C 176.43,136.91 176.35,136.93 176.28,136.97 C 176.24,136.99 176.19,137.01 176.16,137.03 C 176.14,137.04 176.11,137.05 176.09,137.06 C 176.08,137.07 176.1,137.04 176.09,137.03 C 176.06,136.96 176.01,136.89 175.97,136.81 C 175.86,136.6 175.77,136.4 175.66,136.19 C 175.62,136.11 175.57,136.05 175.53,135.97 C 175.52,135.95 175.51,135.93 175.5,135.91 C 175.49,135.88 175.52,135.88 175.53,135.88 C 175.55,135.86 175.57,135.85 175.59,135.84 C 175.67,135.8 175.73,135.76 175.81,135.72 C 176.02,135.61 176.26,135.49 176.47,135.38 C 176.59,135.31 176.7,135.29 176.81,135.28 z M 170.34,135.31 C 170.53,135.68 170.72,136.07 170.91,136.44 C 170.92,136.46 170.93,136.48 170.94,136.5 C 170.96,136.54 170.93,136.52 170.91,136.53 C 170.86,136.56 170.8,136.6 170.75,136.63 C 170.66,136.67 170.56,136.7 170.47,136.75 C 170.28,136.85 170.14,136.96 169.91,136.94 C 169.46,136.9 169.17,136.45 169.34,136.03 C 169.43,135.81 169.59,135.72 169.78,135.63 C 169.97,135.53 170.16,135.41 170.34,135.31 z M 174.5,136.41 L 175.13,137.56 L 173.25,138.56 L 172.63,137.38 L 174.5,136.41 z M 139.84,137.66 C 140.1,137.66 140.36,137.68 140.59,137.78 C 140.83,137.88 141.04,138.04 141.22,138.22 C 141.4,138.4 141.56,138.61 141.66,138.84 C 141.75,139.08 141.81,139.34 141.81,139.59 C 141.81,139.85 141.75,140.11 141.66,140.34 C 141.56,140.58 141.4,140.79 141.22,140.97 C 141.04,141.15 140.83,141.31 140.59,141.41 C 140.36,141.5 140.1,141.53 139.84,141.53 C 139.59,141.53 139.36,141.5 139.13,141.41 C 138.89,141.31 138.65,141.15 138.47,140.97 C 138.29,140.79 138.16,140.58 138.06,140.34 C 137.96,140.11 137.91,139.85 137.91,139.59 C 137.91,139.34 137.96,139.08 138.06,138.84 C 138.16,138.61 138.29,138.4 138.47,138.22 C 138.65,138.04 138.89,137.88 139.13,137.78 C 139.36,137.68 139.59,137.66 139.84,137.66 z M 171.63,137.88 C 171.64,137.87 171.65,137.89 171.66,137.91 C 171.67,137.93 171.68,137.95 171.69,137.97 C 171.71,138.01 171.76,138.05 171.78,138.09 C 171.88,138.28 171.97,138.44 172.06,138.63 C 172.11,138.71 172.14,138.82 172.19,138.91 C 172.21,138.95 172.23,138.99 172.25,139.03 C 172.26,139.06 172.23,139.09 172.22,139.09 C 172.19,139.11 172.15,139.11 172.13,139.13 C 171.94,139.22 171.78,139.31 171.59,139.41 C 171.2,139.61 170.71,139.38 170.63,138.94 C 170.59,138.73 170.64,138.53 170.78,138.38 C 170.89,138.26 171.18,138.1 171.31,138.03 C 171.41,137.98 171.5,137.96 171.59,137.91 C 171.6,137.9 171.61,137.88 171.63,137.88 z M 175.53,138.5 C 175.55,138.49 175.55,138.51 175.56,138.5 C 175.57,138.5 175.59,138.5 175.59,138.5 C 175.61,138.54 175.64,138.59 175.66,138.63 C 175.69,138.7 175.74,138.77 175.78,138.84 C 175.85,138.98 175.93,139.12 176.0,139.25 C 176.03,139.32 176.06,139.37 176.09,139.44 C 176.11,139.47 176.14,139.53 176.16,139.56 C 176.17,139.6 176.14,139.61 176.13,139.63 C 175.9,139.84 175.75,140.07 175.69,140.38 C 175.65,140.54 175.51,140.65 175.34,140.66 C 175.2,140.66 175.1,140.59 174.97,140.56 C 174.83,140.53 174.7,140.49 174.56,140.5 C 174.49,140.5 174.41,140.52 174.34,140.53 C 174.33,140.53 174.33,140.53 174.31,140.53 C 174.28,140.54 174.26,140.52 174.25,140.5 C 174.23,140.46 174.21,140.42 174.19,140.38 C 174.05,140.11 173.92,139.86 173.78,139.59 C 173.77,139.57 173.76,139.53 173.75,139.5 C 173.74,139.49 173.73,139.48 173.75,139.47 C 173.77,139.46 173.76,139.45 173.78,139.44 C 173.85,139.4 173.93,139.38 174.0,139.34 C 174.13,139.27 174.24,139.17 174.38,139.09 C 174.63,138.95 174.89,138.82 175.16,138.69 C 175.28,138.63 175.41,138.56 175.53,138.5 z"
		 />
		 <path style="fill:#f00;stroke:none;"
		 d="M 168.91,136.5 C 168.76,136.52 168.68,136.6 168.56,136.66 C 168.32,136.78 168.08,136.91 167.84,137.03 C 167.37,137.28 166.88,137.51 166.41,137.75 C 165.46,138.24 164.51,138.73 163.56,139.22 L 157.84,142.16 C 155.94,143.13 154.06,144.09 152.16,145.06 C 151.68,145.31 151.19,145.57 150.72,145.81 C 150.48,145.93 150.24,146.07 150.0,146.19 C 149.88,146.25 149.78,146.28 149.66,146.34 C 149.6,146.37 149.53,146.41 149.47,146.44 C 149.46,146.44 149.46,146.49 149.44,146.47 C 149.43,146.46 149.42,146.45 149.41,146.44 C 149.38,146.42 149.34,146.4 149.31,146.38 C 148.54,145.62 147.61,145.06 146.56,144.78 C 144.44,144.21 142.16,144.78 140.56,146.28 C 139.75,147.04 139.17,148.0 138.84,149.06 C 138.68,149.59 138.58,150.14 138.56,150.69 C 138.55,150.95 138.57,151.21 138.59,151.47 C 138.6,151.6 138.61,151.72 138.63,151.84 C 138.63,151.88 138.65,151.91 138.66,151.94 C 138.66,151.95 138.65,151.95 138.66,151.97 C 138.66,151.99 138.64,151.99 138.63,152.0 C 138.57,152.03 138.5,152.06 138.44,152.09 C 136.6,153.04 134.78,153.99 132.94,154.94 C 132.02,155.41 131.11,155.87 130.19,156.34 C 130.13,156.37 130.06,156.41 130.0,156.44 C 129.99,156.44 129.98,156.43 129.97,156.44 C 129.95,156.45 129.94,156.45 129.94,156.44 C 129.93,156.43 129.94,156.42 129.94,156.41 C 129.92,156.37 129.89,156.32 129.88,156.28 C 129.8,156.14 129.73,156.02 129.66,155.88 C 129.51,155.59 129.37,155.31 129.22,155.03 C 129.1,154.79 128.98,154.57 128.75,154.41 C 128.51,154.24 128.29,154.17 128.0,154.19 C 127.5,154.21 127.07,154.56 126.91,155.03 C 126.82,155.29 126.8,155.52 126.88,155.78 C 126.94,155.99 127.15,156.34 127.25,156.53 C 127.82,157.63 128.4,158.72 128.97,159.81 C 129.25,160.36 129.53,160.92 129.81,161.47 C 129.95,161.74 130.08,162.01 130.22,162.28 C 130.34,162.51 130.44,162.76 130.66,162.94 C 131.53,163.67 132.86,162.91 132.66,161.78 C 132.61,161.5 132.47,161.27 132.34,161.03 C 132.2,160.76 132.05,160.49 131.91,160.22 C 131.87,160.15 131.85,160.07 131.81,160.0 C 131.79,159.97 131.77,159.94 131.75,159.91 C 131.74,159.89 131.73,159.86 131.72,159.84 C 131.71,159.82 131.74,159.85 131.75,159.84 C 131.86,159.79 131.98,159.71 132.09,159.66 L 132.75,159.31 C 133.64,158.85 134.52,158.37 135.41,157.91 C 136.29,157.44 137.21,157.0 138.09,156.53 L 139.41,155.81 L 140.09,155.47 C 140.15,155.44 140.19,155.4 140.25,155.38 C 140.28,155.36 140.32,155.36 140.34,155.34 C 140.36,155.34 140.36,155.33 140.38,155.34 C 140.39,155.35 140.4,155.36 140.41,155.38 C 140.49,155.46 140.56,155.54 140.66,155.63 C 144.17,158.79 149.8,157.13 151.03,152.56 C 151.17,152.03 151.25,151.49 151.25,150.94 C 151.25,150.68 151.25,150.42 151.22,150.16 C 151.2,150.03 151.18,149.91 151.16,149.78 C 151.15,149.75 151.13,149.72 151.13,149.69 C 151.12,149.66 151.21,149.66 151.22,149.66 C 151.28,149.63 151.32,149.59 151.38,149.56 C 152.32,149.07 153.28,148.59 154.22,148.09 C 156.1,147.11 157.96,146.11 159.84,145.13 C 161.74,144.13 163.64,143.15 165.53,142.16 C 166.48,141.66 167.43,141.15 168.38,140.66 C 168.85,140.41 169.31,140.19 169.78,139.94 C 169.85,139.9 170.41,139.6 170.47,139.53 C 170.56,139.43 170.59,139.28 170.53,139.16 C 170.47,139.03 170.44,138.9 170.28,138.84 C 170.13,138.79 170.03,138.87 169.91,138.94 C 169.79,139.0 169.65,139.03 169.53,139.09 C 169.29,139.22 169.08,139.34 168.84,139.47 L 167.41,140.22 C 166.46,140.71 165.51,141.22 164.56,141.72 C 162.67,142.71 160.8,143.7 158.91,144.69 C 157.2,145.58 155.48,146.45 153.78,147.34 C 152.93,147.79 152.1,148.24 151.25,148.69 C 151.14,148.74 151.01,148.79 150.91,148.84 C 150.89,148.85 150.91,148.82 150.91,148.81 C 150.9,148.8 150.88,148.8 150.88,148.78 C 150.86,148.75 150.85,148.72 150.84,148.69 C 150.82,148.63 150.8,148.59 150.78,148.53 C 150.76,148.48 150.74,148.43 150.72,148.38 C 150.71,148.36 150.7,148.32 150.72,148.31 C 150.73,148.3 150.73,148.32 150.75,148.31 C 150.78,148.3 150.84,148.27 150.88,148.25 C 151.0,148.18 151.12,148.13 151.25,148.06 C 151.76,147.8 152.27,147.51 152.78,147.25 C 156.85,145.14 160.93,143.05 165.0,140.94 C 165.96,140.44 166.92,139.93 167.88,139.44 C 168.35,139.19 168.83,138.94 169.31,138.69 C 169.43,138.63 169.54,138.56 169.66,138.5 C 169.77,138.44 169.9,138.43 170.0,138.34 C 170.22,138.17 170.14,137.9 170.0,137.72 C 169.8,137.46 169.56,137.61 169.34,137.72 C 169.1,137.84 168.86,137.97 168.63,138.09 C 168.15,138.34 167.67,138.6 167.19,138.84 C 166.23,139.34 165.27,139.85 164.31,140.34 C 160.48,142.33 156.64,144.3 152.81,146.28 C 152.26,146.57 151.71,146.87 151.16,147.16 C 150.88,147.3 150.59,147.45 150.31,147.59 C 150.29,147.61 150.29,147.58 150.28,147.56 C 150.27,147.55 150.26,147.51 150.25,147.5 C 150.23,147.47 150.24,147.47 150.22,147.44 C 150.18,147.38 150.13,147.34 150.09,147.28 C 150.07,147.25 150.05,147.21 150.03,147.19 C 150.02,147.17 149.97,147.14 150.0,147.13 C 150.06,147.1 150.13,147.06 150.19,147.03 C 151.12,146.55 152.07,146.07 153.0,145.59 C 154.87,144.64 156.73,143.68 158.59,142.72 C 160.46,141.76 162.32,140.8 164.19,139.84 C 165.12,139.37 166.07,138.88 167.0,138.41 C 167.47,138.17 167.94,137.93 168.41,137.69 C 168.64,137.57 168.86,137.46 169.09,137.34 C 169.22,137.28 169.33,137.22 169.38,137.06 C 169.42,136.9 169.32,136.81 169.25,136.69 C 169.18,136.57 169.05,136.48 168.91,136.5 z M 144.78,146.13 C 145.1,146.12 145.42,146.13 145.75,146.19 C 148.36,146.66 150.1,149.14 149.63,151.75 C 149.15,154.36 146.67,156.1 144.06,155.63 C 141.45,155.15 139.71,152.67 140.19,150.06 C 140.6,147.78 142.55,146.18 144.78,146.13 z M 138.88,152.81 C 138.92,152.97 138.97,153.13 139.03,153.28 C 139.05,153.32 139.05,153.34 139.06,153.38 C 139.07,153.38 139.09,153.4 139.09,153.41 C 139.1,153.43 139.07,153.43 139.06,153.44 C 139.04,153.45 139.0,153.46 138.97,153.47 C 138.86,153.52 138.76,153.6 138.66,153.66 C 138.23,153.87 137.83,154.09 137.41,154.31 L 135.13,155.47 L 132.84,156.66 C 132.47,156.85 132.1,157.05 131.72,157.25 C 131.53,157.35 131.35,157.43 131.16,157.53 C 131.06,157.58 130.97,157.64 130.88,157.69 C 130.83,157.71 130.77,157.73 130.72,157.75 C 130.7,157.76 130.68,157.77 130.66,157.78 C 130.62,157.8 130.64,157.77 130.63,157.75 C 130.57,157.64 130.5,157.52 130.44,157.41 C 130.41,157.35 130.37,157.31 130.34,157.25 C 130.33,157.23 130.3,157.21 130.34,157.19 C 130.37,157.18 130.38,157.17 130.41,157.16 C 130.59,157.06 130.76,156.97 130.94,156.88 C 131.3,156.69 131.67,156.5 132.03,156.31 C 132.79,155.92 133.55,155.55 134.31,155.16 C 135.83,154.38 137.36,153.59 138.88,152.81 z M 139.44,154.16 C 139.45,154.15 139.46,154.14 139.47,154.16 C 139.47,154.17 139.46,154.18 139.47,154.19 C 139.49,154.22 139.51,154.25 139.53,154.28 C 139.62,154.42 139.71,154.56 139.81,154.69 C 138.3,155.48 136.79,156.27 135.28,157.06 C 134.53,157.46 133.79,157.86 133.03,158.25 C 132.67,158.44 132.3,158.62 131.94,158.81 L 131.41,159.09 C 131.38,159.11 131.37,159.11 131.34,159.13 C 131.32,159.14 131.29,159.08 131.28,159.06 C 131.25,159.01 131.25,158.96 131.22,158.91 C 131.16,158.8 131.09,158.67 131.03,158.56 C 131.03,158.55 131.01,158.54 131.0,158.53 C 130.99,158.52 131.02,158.51 131.03,158.5 C 131.05,158.49 131.07,158.48 131.09,158.47 C 131.14,158.44 131.2,158.43 131.25,158.41 C 131.34,158.36 131.44,158.3 131.53,158.25 C 131.72,158.15 131.9,158.04 132.09,157.94 C 132.47,157.74 132.84,157.57 133.22,157.38 C 133.98,156.98 134.74,156.58 135.5,156.19 C 136.26,155.8 137.03,155.39 137.78,155.0 C 138.2,154.78 138.61,154.56 139.03,154.34 L 139.34,154.19 C 139.37,154.17 139.41,154.17 139.44,154.16 z M 169.97,132.61 C 170.21,133.08 170.45,133.55 170.7,134.02 C 170.8,134.21 170.99,134.49 170.93,134.75 C 170.87,135.02 170.61,135.2 170.34,135.17 C 170.0,135.14 169.92,134.91 169.79,134.66 C 169.67,134.42 169.55,134.19 169.43,133.96 C 169.3,133.71 169.17,133.46 169.04,133.21 C 169.04,133.2 169.01,133.13 168.99,133.13 C 168.96,133.13 168.93,133.13 168.9,133.13 C 168.84,133.14 168.77,133.13 168.71,133.13 C 168.59,133.12 168.47,133.11 168.35,133.08 C 168.07,133.02 167.83,132.93 167.59,132.79 C 167.56,132.77 167.43,132.72 167.45,132.67 C 167.47,132.61 167.5,132.55 167.52,132.5 C 167.58,132.38 167.64,132.27 167.71,132.16 C 168.0,131.71 168.43,131.37 168.93,131.18 C 169.19,131.08 169.45,131.03 169.73,131.03 C 169.86,131.02 169.99,131.03 170.12,131.05 C 170.18,131.06 170.24,131.07 170.31,131.08 C 170.34,131.09 170.37,131.09 170.4,131.1 C 170.41,131.1 170.47,131.11 170.47,131.13 C 170.47,131.67 170.29,132.18 169.97,132.61 z M 172.16,131.47 C 171.63,131.49 171.1,131.34 170.66,131.03 C 170.64,131.02 170.68,130.96 170.68,130.95 C 170.69,130.92 170.71,130.89 170.72,130.87 C 170.74,130.81 170.77,130.75 170.8,130.69 C 170.86,130.58 170.93,130.47 171.01,130.36 C 171.18,130.14 171.37,129.96 171.6,129.8 C 172.04,129.5 172.56,129.34 173.1,129.36 C 173.23,129.37 173.35,129.38 173.48,129.41 C 173.54,129.42 173.6,129.44 173.66,129.45 C 173.72,129.47 173.68,129.6 173.68,129.63 C 173.66,129.91 173.59,130.16 173.48,130.42 C 173.43,130.53 173.38,130.64 173.31,130.75 C 173.28,130.8 173.25,130.85 173.21,130.9 C 173.19,130.93 173.17,130.95 173.16,130.97 C 173.14,130.99 173.18,131.05 173.19,131.06 C 173.32,131.31 173.45,131.56 173.57,131.81 C 173.7,132.04 173.82,132.28 173.94,132.51 C 174.07,132.76 174.21,132.96 174.04,133.26 C 173.91,133.5 173.61,133.6 173.36,133.5 C 173.1,133.39 172.99,133.08 172.89,132.88 C 172.65,132.41 172.4,131.94 172.16,131.47 z M 176.47,139.79 C 176.23,139.32 175.98,138.85 175.74,138.38 C 175.64,138.18 175.44,137.91 175.51,137.64 C 175.57,137.37 175.82,137.19 176.1,137.22 C 176.44,137.26 176.52,137.49 176.65,137.74 C 176.77,137.97 176.89,138.21 177.01,138.44 C 177.14,138.69 177.27,138.94 177.4,139.19 C 177.4,139.2 177.43,139.27 177.45,139.26 C 177.48,139.26 177.51,139.26 177.54,139.26 C 177.6,139.26 177.66,139.26 177.72,139.27 C 177.85,139.27 177.97,139.29 178.09,139.32 C 178.36,139.37 178.61,139.47 178.85,139.61 C 178.87,139.63 179.0,139.67 178.99,139.73 C 178.96,139.79 178.94,139.84 178.92,139.9 C 178.86,140.02 178.8,140.13 178.73,140.24 C 178.44,140.69 178.01,141.03 177.51,141.21 C 177.25,141.31 176.99,141.36 176.71,141.37 C 176.58,141.37 176.45,141.37 176.32,141.35 C 176.26,141.34 176.19,141.33 176.13,141.32 C 176.1,141.31 176.07,141.3 176.04,141.3 C 176.03,141.29 175.96,141.29 175.96,141.26 C 175.97,140.73 176.15,140.21 176.47,139.79 z M 174.28,140.93 C 174.81,140.91 175.33,141.06 175.77,141.36 C 175.8,141.38 175.76,141.43 175.75,141.45 C 175.74,141.47 175.73,141.5 175.72,141.53 C 175.69,141.59 175.67,141.65 175.64,141.7 C 175.58,141.82 175.51,141.93 175.43,142.03 C 175.26,142.26 175.07,142.44 174.84,142.6 C 174.4,142.9 173.87,143.05 173.34,143.03 C 173.21,143.03 173.08,143.01 172.96,142.99 C 172.9,142.98 172.83,142.96 172.77,142.94 C 172.72,142.93 172.76,142.79 172.76,142.76 C 172.78,142.49 172.84,142.23 172.95,141.98 C 173.0,141.86 173.06,141.75 173.13,141.65 C 173.16,141.6 173.19,141.55 173.23,141.5 C 173.25,141.47 173.26,141.45 173.28,141.42 C 173.29,141.41 173.25,141.34 173.25,141.33 C 173.12,141.08 172.99,140.84 172.86,140.59 C 172.74,140.35 172.62,140.12 172.5,139.89 C 172.37,139.64 172.22,139.44 172.39,139.14 C 172.53,138.9 172.82,138.8 173.08,138.9 C 173.33,139.0 173.44,139.32 173.55,139.52 C 173.79,139.99 174.03,140.46 174.28,140.93 z"
		 />

		<!-- Prism Reference -->
		<cam mingh:cam=" --verb EditSelectAll --verb ZoomSelection --verb FileSave" /> 
	</g>

</svg>
