<svg
   xmlns:xlink="http://www.w3.org/1999/xlink"
   xmlns:svg="http://www.w3.org/2000/svg"
   xmlns="http://www.w3.org/2000/svg"
   xmlns:mingh="http://www.minghworld.com"
   width="300px"
   height="300px" >
	
	 <g>
		<!-- Paths -->
		<path style="fill:none;stroke:#000;stroke-width:0.25px;"
		 d="M 162.42,162.06 C 165.12,157.98 165.65,152.84 163.84,148.3 C 162.03,143.75 158.11,140.39 153.34,139.29 C 153.1,139.24 152.86,139.19 152.62,139.14 C 152.5,139.12 152.38,139.1 152.26,139.09 C 152.2,139.08 152.14,139.07 152.08,139.06 C 152.05,139.05 152.02,139.05 151.99,139.05 C 151.99,139.05 151.98,139.04 151.97,139.04 C 151.96,139.04 151.95,139.03 151.95,139.04 C 151.95,139.06 151.95,139.08 151.95,139.1 C 151.95,139.74 151.95,140.37 151.95,141.01 C 151.95,142.28 151.95,143.55 151.95,144.81 C 151.95,146.01 151.95,147.21 151.95,148.41 C 151.95,149.01 151.95,149.6 151.95,150.2 C 151.95,150.5 151.95,150.8 151.95,151.1 C 151.95,151.25 151.95,151.4 151.95,151.55 C 151.95,151.59 151.97,151.61 152.0,151.64 C 152.03,151.67 152.05,151.69 152.08,151.72 C 152.14,151.78 152.19,151.83 152.24,151.88 C 155.63,155.27 159.02,158.67 162.42,162.06 z M 148.05,139.04 C 143.2,139.68 138.98,142.66 136.74,147.01 C 134.51,151.36 134.55,156.53 136.86,160.84 C 137.03,161.16 137.21,161.47 137.41,161.78 C 137.45,161.85 137.5,161.93 137.55,162.0 C 137.56,162.01 137.56,162.02 137.57,162.03 C 137.58,162.04 137.58,162.06 137.59,162.05 C 137.63,162.02 137.66,161.98 137.69,161.95 C 137.76,161.88 137.83,161.81 137.9,161.75 C 138.16,161.48 138.42,161.22 138.69,160.95 C 139.68,159.96 140.68,158.97 141.67,157.97 C 143.36,156.28 145.06,154.58 146.76,152.89 C 146.98,152.66 147.2,152.44 147.43,152.21 C 147.54,152.1 147.65,152.0 147.75,151.89 C 147.81,151.83 147.86,151.78 147.91,151.73 C 147.94,151.7 147.97,151.68 147.99,151.65 C 148.02,151.62 148.05,151.61 148.05,151.56 C 148.05,150.97 148.05,150.38 148.05,149.79 C 148.05,148.6 148.05,147.42 148.05,146.23 C 148.05,143.84 148.05,141.44 148.05,139.04 z M 140.15,165.0 C 142.13,166.74 144.54,167.93 147.13,168.44 C 147.4,168.49 147.67,168.53 147.94,168.57 C 147.97,168.58 148.01,168.58 148.04,168.59 C 148.07,168.59 148.05,168.56 148.05,168.54 C 148.05,168.52 148.05,168.5 148.05,168.47 C 148.05,168.39 148.05,168.3 148.05,168.21 C 148.05,168.04 148.05,167.86 148.05,167.69 C 148.05,166.99 148.05,166.29 148.05,165.59 C 148.05,164.28 148.05,162.97 148.05,161.66 C 148.05,160.35 148.05,159.04 148.05,157.73 C 148.05,157.58 148.05,157.44 148.05,157.29 C 148.05,157.26 148.05,157.22 148.05,157.18 C 148.05,157.17 148.05,157.15 148.05,157.13 C 148.05,157.12 148.06,157.09 148.05,157.1 C 148.05,157.11 148.04,157.11 148.03,157.12 C 147.98,157.17 147.93,157.23 147.88,157.28 C 147.66,157.5 147.43,157.72 147.21,157.94 C 146.71,158.44 146.22,158.94 145.72,159.44 C 143.86,161.29 142.01,163.15 140.15,165.0 z M 151.95,168.59 C 154.56,168.24 157.04,167.21 159.12,165.6 C 159.28,165.48 159.42,165.36 159.57,165.24 C 159.64,165.18 159.71,165.12 159.79,165.05 C 159.8,165.04 159.82,165.02 159.84,165.01 C 159.86,164.99 159.81,164.96 159.8,164.96 C 159.79,164.94 159.77,164.92 159.75,164.9 C 159.67,164.82 159.59,164.74 159.51,164.66 C 158.92,164.07 158.32,163.48 157.73,162.88 C 156.8,161.95 155.88,161.03 154.95,160.1 C 154.02,159.17 153.1,158.25 152.17,157.32 C 152.11,157.26 152.05,157.2 151.99,157.14 C 151.98,157.14 151.98,157.13 151.97,157.12 C 151.96,157.12 151.95,157.09 151.95,157.1 C 151.95,157.12 151.95,157.15 151.95,157.17 C 151.95,157.21 151.95,157.25 151.95,157.29 C 151.95,157.45 151.95,157.62 151.95,157.78 C 151.95,158.11 151.95,158.43 151.95,158.76 C 151.95,159.42 151.95,160.07 151.95,160.72 C 151.95,163.35 151.95,165.97 151.95,168.59 z M 151.95,131.28 C 151.95,130.21 151.08,129.33 150.0,129.33 C 148.92,129.33 148.05,130.21 148.05,131.28 C 148.05,132.36 148.92,133.23 150.0,133.23 C 151.08,133.23 151.95,132.36 151.95,131.28 z M 148.5,135.08 C 148.62,135.06 148.61,134.93 148.5,134.88 C 148.34,134.81 148.19,134.74 148.04,134.65 C 147.72,134.47 147.44,134.25 147.19,133.98 C 146.67,133.44 146.31,132.75 146.17,132.01 C 145.9,130.55 146.47,129.07 147.64,128.18 C 148.82,127.28 150.4,127.13 151.73,127.79 C 153.06,128.45 153.9,129.8 153.9,131.3 C 153.89,132.59 153.25,133.8 152.17,134.52 C 152.04,134.61 151.92,134.68 151.78,134.75 C 151.75,134.77 151.46,134.88 151.44,134.92 C 151.41,134.96 151.41,134.99 151.43,135.03 C 151.46,135.07 151.49,135.07 151.53,135.08 C 151.6,135.08 151.67,135.09 151.74,135.1 C 152.03,135.12 152.31,135.16 152.6,135.19 C 153.78,135.36 154.93,135.63 156.06,136.02 C 158.48,136.84 160.7,138.15 162.6,139.86 C 166.92,143.76 169.18,149.41 168.75,155.21 C 168.31,161.02 165.23,166.28 160.37,169.49 C 155.52,172.7 149.47,173.49 143.96,171.62 C 138.45,169.75 134.12,165.44 132.23,159.93 C 130.33,154.44 131.08,148.39 134.27,143.53 C 137.45,138.65 142.69,135.54 148.5,135.08 z"
		 />

		<!-- Prism Reference -->
		<cam mingh:cam=" --verb EditSelectAll --verb ZoomSelection --verb FileSave" /> 
	 </g>

</svg>
