<svg
   xmlns:xlink="http://www.w3.org/1999/xlink"
   xmlns:svg="http://www.w3.org/2000/svg"
   xmlns="http://www.w3.org/2000/svg"
   xmlns:mingh="http://www.minghworld.com"
   width="300px"
   height="300px" >
	
	 <g>
		<!-- Paths -->
		<path style="fill:none;stroke:#000;stroke-width:0.25px;"
		 d="M 150.78,127.09 C 149.12,127.08 147.51,128.15 147.0,129.97 C 146.8,130.69 146.8,131.31 147.0,132.03 C 147.09,132.37 147.22,132.7 147.41,133.0 C 147.49,133.14 147.58,133.27 147.69,133.41 C 147.73,133.46 147.94,133.67 147.97,133.75 C 148.0,133.84 147.96,133.96 147.88,134.0 C 147.78,134.05 147.68,133.98 147.59,133.97 C 147.42,133.95 147.27,133.94 147.09,133.94 C 146.75,133.94 146.4,134.01 146.06,134.06 C 144.72,134.27 143.37,134.58 142.31,135.56 C 142.09,135.77 141.86,135.99 141.69,136.25 C 141.53,136.49 141.48,136.71 141.72,136.94 C 141.94,137.14 142.24,137.24 142.53,137.22 C 142.8,137.19 143.04,137.09 143.31,137.06 C 143.65,137.03 144.64,137.1 144.97,137.16 C 145.51,137.24 146.02,137.49 146.34,137.97 C 146.68,138.46 146.67,139.02 146.41,139.53 C 146.13,140.06 145.69,140.37 145.22,140.69 C 144.31,141.29 143.3,141.71 142.38,142.28 C 140.65,143.34 138.78,145.15 137.47,146.66 C 135.96,148.4 134.93,150.05 134.0,152.16 C 133.56,153.16 133.17,154.2 132.84,155.25 C 132.47,156.45 132.33,157.17 132.13,158.41 C 131.97,159.35 131.71,160.69 130.88,161.41 C 130.42,161.8 129.9,161.86 129.38,162.0 C 128.84,162.14 128.34,162.3 127.84,162.53 C 125.89,163.42 124.15,165.07 123.16,166.97 C 122.74,167.76 122.18,169.21 122.22,170.16 C 122.24,170.77 122.49,171.24 122.97,171.63 C 123.38,171.96 123.96,172.24 124.47,171.88 C 124.71,171.71 124.88,171.47 125.06,171.25 C 125.25,171.04 125.44,170.84 125.66,170.66 C 126.05,170.33 126.6,170.01 127.09,169.88 C 127.67,169.72 128.15,169.85 128.69,169.97 C 129.23,170.09 129.79,170.16 130.34,170.13 C 131.15,170.08 131.37,169.74 131.72,169.09 C 131.78,168.98 131.81,168.84 131.91,168.75 C 131.98,168.68 132.04,168.77 132.06,168.84 C 132.17,169.13 132.19,169.43 132.41,169.69 C 132.68,170.01 133.48,170.31 133.84,170.41 C 134.38,170.54 134.93,170.5 135.47,170.59 C 136.06,170.7 136.48,170.91 136.84,171.41 C 137.12,171.79 137.33,172.45 137.81,172.72 C 138.26,172.97 138.97,172.93 139.41,172.72 C 139.93,172.47 140.29,172.01 140.44,171.47 C 140.7,170.54 140.57,169.12 140.28,168.22 C 140.11,167.68 139.84,167.25 139.5,166.81 C 139.16,166.38 138.81,165.97 138.41,165.59 C 138.0,165.21 137.54,164.91 137.09,164.59 C 136.75,164.35 136.11,163.87 136.0,163.38 C 135.89,162.88 136.31,162.19 136.56,161.84 C 136.88,161.4 137.25,161.02 137.63,160.63 C 139.29,158.86 140.55,157.6 142.44,156.06 C 144.05,154.75 145.99,153.32 147.91,152.44 C 148.92,151.97 149.98,151.66 151.03,151.31 C 151.54,151.15 152.06,150.96 152.56,150.75 C 153.06,150.54 153.54,150.35 154.09,150.28 C 154.41,150.24 154.72,150.22 155.03,150.28 C 155.26,150.33 155.58,150.44 155.53,150.75 C 155.47,151.17 154.89,151.87 154.59,152.13 C 153.8,152.79 152.5,153.09 151.5,152.72 C 151.12,152.58 150.43,152.15 149.94,152.31 C 149.46,152.47 149.01,153.15 149.06,153.66 C 149.13,154.23 149.81,154.56 150.22,154.75 C 150.76,155.0 151.31,155.22 151.88,155.41 C 152.91,155.75 153.91,155.85 155.0,155.75 C 156.12,155.65 157.11,155.35 158.13,154.88 C 159.12,154.4 160.02,153.82 160.84,153.09 C 161.66,152.37 162.3,151.5 163.22,150.88 C 164.3,150.13 165.12,150.1 166.34,150.47 C 167.41,150.79 168.39,151.26 169.34,151.81 C 171.32,152.97 172.91,154.13 175.19,154.78 C 175.69,154.92 176.27,155.06 176.81,154.88 C 177.34,154.7 177.78,154.25 177.78,153.66 C 177.79,153.16 177.53,152.48 177.31,152.06 C 177.06,151.57 176.75,151.13 176.44,150.69 C 176.11,150.23 175.82,149.77 175.66,149.22 C 175.49,148.66 175.57,148.17 175.69,147.63 C 175.83,147.0 175.89,146.62 175.84,145.97 C 175.8,145.41 175.68,144.9 175.5,144.38 C 174.77,142.3 173.13,140.52 171.34,139.34 C 169.58,138.19 167.23,137.41 165.22,136.94 C 162.74,136.36 161.19,136.38 158.69,136.47 C 157.44,136.51 156.64,136.46 155.44,136.06 C 154.92,135.89 154.41,135.68 153.91,135.47 C 153.65,135.36 153.38,135.26 153.13,135.16 C 152.87,135.05 152.65,134.96 152.38,134.91 C 152.28,134.87 152.23,134.78 152.25,134.69 C 152.26,134.64 152.27,134.59 152.31,134.56 C 152.37,134.52 152.47,134.5 152.53,134.47 C 152.84,134.31 153.09,134.14 153.34,133.91 C 153.9,133.41 154.25,132.84 154.47,132.13 C 154.88,130.78 154.53,129.33 153.56,128.31 C 152.78,127.49 151.78,127.1 150.78,127.09 z M 150.75,129.06 C 151.01,129.06 151.26,129.09 151.5,129.19 C 151.74,129.29 151.94,129.44 152.13,129.63 C 152.31,129.81 152.46,130.01 152.56,130.25 C 152.66,130.49 152.69,130.74 152.69,131.0 C 152.69,131.26 152.66,131.51 152.56,131.75 C 152.46,131.99 152.31,132.19 152.13,132.38 C 151.94,132.56 151.74,132.71 151.5,132.81 C 151.26,132.91 151.01,132.94 150.75,132.94 C 150.5,132.94 150.24,132.91 150.0,132.81 C 149.76,132.71 149.56,132.56 149.38,132.38 C 149.19,132.19 149.04,131.99 148.94,131.75 C 148.84,131.51 148.81,131.26 148.81,131.0 C 148.81,130.74 148.84,130.49 148.94,130.25 C 149.04,130.01 149.19,129.81 149.38,129.63 C 149.56,129.44 149.76,129.29 150.0,129.19 C 150.24,129.09 150.49,129.06 150.75,129.06 z"
		 />
		 <path style="fill:#f00;stroke:none;"
		 d="M 172.28,144.13 C 172.16,144.25 172.01,144.34 171.85,144.41 C 171.68,144.48 171.5,144.52 171.31,144.55 C 171.22,144.57 171.12,144.58 171.02,144.59 C 170.86,144.6 170.69,144.6 170.53,144.59 C 170.33,144.58 170.14,144.55 169.95,144.51 C 169.77,144.47 169.59,144.41 169.41,144.34 C 169.29,144.28 169.18,144.23 169.07,144.16 C 168.96,144.08 168.85,143.99 168.75,143.89 C 168.67,143.81 168.59,143.71 168.52,143.61 C 168.49,143.58 168.47,143.54 168.44,143.5 C 168.41,143.45 168.37,143.39 168.34,143.33 C 168.33,143.32 168.32,143.3 168.31,143.28 C 168.34,143.28 168.37,143.29 168.39,143.29 C 168.45,143.3 168.5,143.32 168.56,143.33 C 168.59,143.33 168.62,143.34 168.65,143.34 C 168.74,143.35 168.83,143.35 168.92,143.35 C 169.11,143.33 169.29,143.29 169.46,143.23 C 169.53,143.2 169.61,143.16 169.68,143.12 C 169.74,143.08 169.8,143.04 169.86,142.99 C 169.96,142.89 170.05,142.78 170.11,142.66 C 170.15,142.58 170.18,142.5 170.2,142.42 C 170.23,142.34 170.24,142.25 170.25,142.16 C 170.26,141.98 170.24,141.8 170.19,141.64 C 170.16,141.53 170.12,141.43 170.08,141.34 C 169.99,141.16 169.88,140.99 169.79,140.81 C 169.77,140.75 169.74,140.69 169.72,140.63 C 169.71,140.6 169.7,140.56 169.69,140.52 C 169.69,140.5 169.68,140.48 169.68,140.45 C 169.68,140.44 169.68,140.43 169.68,140.42 C 169.7,140.41 169.73,140.41 169.75,140.41 C 169.77,140.41 169.79,140.42 169.81,140.42 C 169.84,140.43 169.87,140.43 169.9,140.44 C 169.91,140.44 169.93,140.44 169.94,140.45 C 170.02,140.47 170.11,140.5 170.19,140.53 C 170.38,140.6 170.57,140.7 170.75,140.81 C 170.94,140.92 171.13,141.05 171.3,141.18 C 171.51,141.34 171.7,141.5 171.87,141.68 C 172.05,141.86 172.2,142.06 172.32,142.27 C 172.38,142.37 172.43,142.48 172.48,142.58 C 172.55,142.75 172.61,142.93 172.63,143.12 C 172.65,143.2 172.65,143.29 172.65,143.38 C 172.64,143.46 172.63,143.55 172.6,143.63 C 172.57,143.73 172.53,143.82 172.47,143.9 C 172.42,143.98 172.36,144.06 172.28,144.13 z M 161.23,141.11 C 161.15,140.99 161.07,140.87 160.99,140.75 C 160.91,140.63 160.83,140.51 160.76,140.38 C 160.73,140.31 160.69,140.25 160.66,140.18 C 160.61,140.07 160.56,139.95 160.51,139.84 C 160.46,139.69 160.41,139.53 160.38,139.37 C 160.34,139.21 160.33,139.04 160.33,138.88 C 160.34,138.75 160.35,138.62 160.38,138.49 C 160.41,138.37 160.45,138.25 160.51,138.13 C 160.57,138.03 160.64,137.93 160.73,137.84 C 160.82,137.76 160.92,137.69 161.03,137.63 C 161.14,137.57 161.25,137.53 161.38,137.51 C 161.43,137.5 161.48,137.49 161.54,137.49 C 161.59,137.49 161.63,137.49 161.67,137.49 C 161.76,137.5 161.83,137.51 161.9,137.52 C 161.98,137.54 162.06,137.57 162.14,137.61 C 162.23,137.65 162.31,137.71 162.38,137.78 C 162.44,137.84 162.48,137.91 162.51,137.98 C 162.54,138.04 162.56,138.11 162.56,138.18 C 162.57,138.25 162.58,138.31 162.57,138.38 C 162.56,138.45 162.55,138.52 162.53,138.58 C 162.49,138.69 162.43,138.78 162.35,138.87 C 162.31,138.91 162.27,138.95 162.22,138.99 C 162.18,139.02 162.13,139.06 162.09,139.09 C 162.01,139.14 161.93,139.18 161.85,139.23 C 161.81,139.26 161.77,139.29 161.73,139.32 C 161.69,139.36 161.65,139.4 161.62,139.44 C 161.55,139.51 161.5,139.6 161.46,139.7 C 161.42,139.79 161.39,139.88 161.36,139.98 C 161.34,140.08 161.32,140.18 161.3,140.27 C 161.28,140.4 161.27,140.53 161.25,140.66 C 161.24,140.81 161.23,140.96 161.23,141.11 z M 167.82,146.93 C 168.07,147.14 168.32,147.35 168.57,147.56 C 168.67,147.64 168.77,147.72 168.88,147.79 C 168.98,147.87 169.08,147.94 169.19,148.01 C 169.45,148.19 169.73,148.34 170.01,148.49 C 170.32,148.65 170.63,148.8 170.96,148.92 C 171.31,149.06 171.66,149.18 172.02,149.3 C 172.37,149.41 172.71,149.52 173.04,149.65 C 173.42,149.8 173.8,149.98 174.15,150.19 C 174.5,150.4 174.82,150.64 175.12,150.92 C 175.31,151.09 175.49,151.27 175.64,151.47 C 175.81,151.69 175.95,151.92 176.06,152.17 C 176.09,152.25 176.12,152.34 176.15,152.43 C 176.18,152.51 176.2,152.59 176.21,152.68 C 176.21,152.75 176.21,152.83 176.2,152.9 C 176.19,152.97 176.16,153.04 176.12,153.09 C 176.12,153.1 176.11,153.11 176.11,153.12 C 176.07,153.16 176.03,153.2 175.99,153.24 C 175.94,153.28 175.88,153.32 175.82,153.35 C 175.76,153.39 175.69,153.42 175.62,153.45 C 175.55,153.47 175.47,153.49 175.4,153.5 C 175.32,153.51 175.24,153.51 175.16,153.5 C 175.09,153.49 175.01,153.48 174.93,153.46 C 174.78,153.42 174.63,153.35 174.48,153.28 C 174.31,153.19 174.13,153.09 173.97,152.99 C 173.81,152.89 173.66,152.79 173.52,152.67 C 173.24,152.46 172.98,152.22 172.71,151.99 C 171.86,151.22 171.02,150.45 170.19,149.65 C 169.81,149.29 169.44,148.92 169.08,148.54 C 168.91,148.35 168.74,148.17 168.58,147.97 C 168.43,147.79 168.28,147.61 168.14,147.42 C 168.03,147.26 167.92,147.09 167.82,146.93 z M 168.82,146.55 C 168.52,146.29 168.23,146.0 167.96,145.7 C 167.71,145.42 167.46,145.14 167.23,144.84 C 167.16,144.76 167.1,144.68 167.03,144.59 C 166.97,144.51 166.91,144.43 166.86,144.34 C 166.8,144.25 166.75,144.15 166.71,144.05 C 166.65,143.93 166.61,143.81 166.57,143.69 C 166.54,143.6 166.51,143.51 166.48,143.42 C 166.46,143.32 166.44,143.23 166.42,143.14 C 166.41,143.09 166.4,143.04 166.4,142.99 C 166.42,143.01 166.44,143.04 166.46,143.06 C 166.55,143.16 166.64,143.27 166.73,143.38 C 166.8,143.46 166.87,143.55 166.94,143.63 C 167.03,143.72 167.12,143.81 167.21,143.9 C 167.31,143.99 167.41,144.07 167.52,144.15 C 167.67,144.26 167.83,144.37 167.99,144.47 C 168.16,144.57 168.34,144.67 168.51,144.76 C 168.72,144.87 168.93,144.97 169.15,145.06 C 169.36,145.15 169.59,145.22 169.81,145.28 C 169.93,145.31 170.04,145.33 170.16,145.35 C 170.28,145.37 170.41,145.38 170.53,145.38 C 170.77,145.39 171.02,145.37 171.26,145.35 C 171.38,145.33 171.5,145.32 171.62,145.3 C 171.73,145.28 171.85,145.27 171.96,145.25 C 172.16,145.22 172.36,145.2 172.56,145.2 C 172.75,145.2 172.95,145.23 173.13,145.29 C 173.31,145.35 173.49,145.45 173.64,145.57 C 173.8,145.69 173.94,145.84 174.04,146.0 C 174.14,146.16 174.21,146.34 174.24,146.53 C 174.27,146.72 174.26,146.91 174.23,147.1 C 174.2,147.29 174.14,147.47 174.05,147.64 C 173.97,147.79 173.86,147.94 173.74,148.07 C 173.63,148.18 173.51,148.27 173.37,148.34 C 173.28,148.38 173.19,148.42 173.09,148.44 C 172.9,148.49 172.7,148.5 172.49,148.48 C 172.39,148.48 172.29,148.46 172.18,148.45 C 171.99,148.41 171.8,148.36 171.61,148.3 C 171.37,148.21 171.13,148.1 170.9,147.98 C 170.78,147.92 170.66,147.85 170.54,147.78 C 170.43,147.72 170.31,147.64 170.19,147.57 C 169.96,147.42 169.72,147.26 169.5,147.1 C 169.26,146.93 169.04,146.74 168.82,146.55 z M 161.4,143.35 C 161.21,143.24 161.02,143.13 160.83,143.02 C 160.67,142.93 160.52,142.84 160.36,142.74 C 160.25,142.67 160.14,142.59 160.03,142.52 C 159.86,142.4 159.7,142.28 159.54,142.16 C 159.19,141.9 158.85,141.62 158.52,141.33 C 158.35,141.19 158.19,141.04 158.02,140.89 C 157.94,140.82 157.87,140.76 157.79,140.69 C 157.68,140.58 157.56,140.47 157.45,140.35 C 157.24,140.13 157.05,139.9 156.9,139.63 C 156.82,139.5 156.76,139.36 156.71,139.22 C 156.67,139.1 156.63,138.98 156.61,138.85 C 156.59,138.73 156.58,138.61 156.57,138.49 C 156.57,138.37 156.58,138.25 156.59,138.13 C 156.61,138.02 156.64,137.91 156.68,137.81 C 156.72,137.72 156.77,137.63 156.83,137.55 C 156.93,137.43 157.06,137.33 157.2,137.25 C 157.24,137.22 157.29,137.2 157.34,137.18 C 157.45,137.13 157.57,137.09 157.69,137.07 C 157.86,137.04 158.04,137.03 158.21,137.05 C 158.44,137.08 158.67,137.16 158.87,137.28 C 159.05,137.4 159.21,137.54 159.33,137.71 C 159.39,137.79 159.44,137.87 159.48,137.95 C 159.53,138.03 159.57,138.11 159.6,138.2 C 159.62,138.28 159.64,138.37 159.66,138.45 C 159.67,138.53 159.67,138.62 159.67,138.7 C 159.68,138.89 159.66,139.07 159.65,139.25 C 159.64,139.46 159.63,139.66 159.64,139.87 C 159.64,139.97 159.65,140.08 159.66,140.18 C 159.67,140.32 159.7,140.45 159.73,140.59 C 159.81,140.91 159.92,141.23 160.07,141.53 C 160.18,141.75 160.3,141.97 160.43,142.17 C 160.52,142.31 160.62,142.44 160.72,142.57 C 160.82,142.69 160.92,142.81 161.02,142.92 C 161.14,143.07 161.27,143.21 161.4,143.35 z M 155.45,139.44 C 155.82,139.79 156.23,140.21 156.56,140.56 C 156.65,140.66 156.73,140.75 156.8,140.83 C 156.69,140.76 156.58,140.68 156.47,140.61 C 156.13,140.38 155.78,140.15 155.43,139.95 C 155.1,139.76 154.76,139.59 154.41,139.46 C 154.1,139.34 153.77,139.24 153.45,139.16 C 153.29,139.13 153.13,139.09 152.96,139.06 C 152.78,139.02 152.6,138.98 152.42,138.94 C 152.04,138.87 151.66,138.8 151.28,138.73 C 150.95,138.67 150.62,138.61 150.29,138.55 C 150.16,138.53 150.03,138.51 149.9,138.48 C 149.78,138.45 149.66,138.42 149.54,138.39 C 149.43,138.35 149.32,138.3 149.21,138.25 C 149.1,138.19 149.0,138.13 148.91,138.05 C 148.83,137.99 148.76,137.91 148.7,137.84 C 148.65,137.77 148.6,137.7 148.55,137.62 C 148.51,137.55 148.47,137.47 148.45,137.39 C 148.42,137.32 148.41,137.25 148.4,137.18 C 148.4,137.11 148.4,137.05 148.42,136.99 C 148.44,136.94 148.46,136.89 148.49,136.84 C 148.53,136.79 148.57,136.75 148.62,136.71 C 148.67,136.66 148.72,136.62 148.78,136.59 C 148.84,136.55 148.91,136.52 148.98,136.49 C 149.06,136.45 149.14,136.42 149.23,136.4 C 149.34,136.37 149.46,136.35 149.57,136.34 C 149.69,136.33 149.81,136.33 149.92,136.34 C 150.04,136.35 150.16,136.37 150.28,136.4 C 150.4,136.43 150.52,136.46 150.63,136.5 C 150.73,136.53 150.82,136.56 150.92,136.59 C 151.08,136.65 151.25,136.72 151.41,136.79 C 151.73,136.93 152.04,137.09 152.35,137.26 C 152.5,137.34 152.65,137.43 152.8,137.51 C 152.96,137.61 153.13,137.7 153.29,137.8 C 153.47,137.91 153.64,138.01 153.81,138.12 C 153.98,138.24 154.15,138.36 154.32,138.48 C 154.72,138.78 155.09,139.1 155.45,139.44 z M 151.03,135.65 C 150.9,135.61 150.76,135.57 150.62,135.55 C 150.51,135.53 150.39,135.52 150.27,135.51 C 149.98,135.49 149.69,135.48 149.41,135.5 C 149.15,135.51 148.89,135.55 148.64,135.62 C 148.44,135.67 148.24,135.73 148.05,135.81 C 147.85,135.9 147.65,136.01 147.46,136.13 C 147.3,136.24 147.14,136.37 146.98,136.49 C 146.9,136.55 146.83,136.6 146.75,136.65 C 146.67,136.7 146.59,136.74 146.5,136.77 C 146.35,136.83 146.17,136.86 146.0,136.86 C 145.82,136.87 145.64,136.85 145.47,136.81 C 145.34,136.78 145.22,136.73 145.1,136.68 C 145.0,136.62 144.9,136.55 144.82,136.47 C 144.75,136.38 144.7,136.28 144.66,136.18 C 144.63,136.08 144.61,135.97 144.62,135.86 C 144.62,135.85 144.62,135.85 144.62,135.84 C 144.63,135.8 144.64,135.75 144.65,135.71 C 144.68,135.65 144.71,135.59 144.74,135.53 C 144.82,135.4 144.93,135.29 145.05,135.2 C 145.12,135.14 145.2,135.08 145.28,135.03 C 145.45,134.92 145.63,134.83 145.81,134.77 C 145.99,134.7 146.19,134.65 146.38,134.61 C 146.57,134.57 146.77,134.55 146.97,134.54 C 147.17,134.53 147.37,134.52 147.56,134.52 C 147.67,134.53 147.77,134.53 147.88,134.53 C 148.02,134.54 148.16,134.54 148.3,134.55 C 148.56,134.57 148.82,134.6 149.08,134.65 C 149.32,134.69 149.55,134.75 149.78,134.84 C 149.99,134.91 150.19,135.01 150.38,135.13 C 150.61,135.28 150.83,135.46 151.03,135.65 z M 162.72,149.74 C 162.63,149.79 162.53,149.86 162.44,149.92 C 162.24,150.05 162.05,150.19 161.86,150.33 C 161.65,150.48 161.44,150.64 161.23,150.81 C 160.86,151.11 160.5,151.43 160.14,151.75 C 159.79,152.06 159.44,152.36 159.07,152.64 C 158.74,152.88 158.39,153.11 158.03,153.31 C 157.67,153.52 157.28,153.7 156.89,153.86 C 156.62,153.97 156.34,154.07 156.06,154.16 C 155.78,154.25 155.5,154.32 155.21,154.38 C 154.94,154.44 154.66,154.49 154.38,154.52 C 154.12,154.54 153.87,154.56 153.61,154.54 C 153.5,154.54 153.39,154.53 153.28,154.51 C 153.17,154.5 153.06,154.47 152.95,154.44 C 152.82,154.41 152.7,154.37 152.58,154.32 C 152.44,154.26 152.29,154.2 152.15,154.13 C 152.01,154.06 151.86,153.98 151.72,153.9 C 151.71,153.9 151.7,153.89 151.7,153.89 C 151.8,153.89 151.9,153.89 152.0,153.9 C 152.27,153.91 152.54,153.9 152.8,153.88 C 153.1,153.86 153.4,153.81 153.7,153.74 C 153.93,153.68 154.16,153.6 154.38,153.5 C 154.54,153.43 154.69,153.35 154.84,153.25 C 154.99,153.15 155.12,153.03 155.25,152.91 C 155.36,152.81 155.46,152.7 155.55,152.59 C 155.64,152.47 155.73,152.35 155.81,152.22 C 155.88,152.1 155.95,151.98 156.0,151.85 C 156.03,151.8 156.05,151.75 156.08,151.7 C 156.08,151.69 156.09,151.67 156.1,151.66 C 156.11,151.65 156.12,151.64 156.13,151.63 C 156.13,151.63 156.13,151.63 156.14,151.63 C 156.14,151.63 156.15,151.63 156.16,151.63 C 156.19,151.62 156.22,151.63 156.25,151.63 C 156.27,151.64 156.29,151.64 156.31,151.65 C 156.33,151.65 156.34,151.65 156.36,151.66 C 156.47,151.68 156.58,151.7 156.69,151.71 C 156.9,151.74 157.12,151.75 157.33,151.74 C 157.52,151.72 157.72,151.68 157.9,151.63 C 158.16,151.55 158.4,151.43 158.62,151.29 C 158.84,151.16 159.05,151.01 159.26,150.86 C 159.47,150.71 159.69,150.56 159.91,150.43 C 160.15,150.29 160.4,150.17 160.65,150.07 C 160.93,149.97 161.22,149.89 161.51,149.84 C 161.63,149.82 161.74,149.8 161.85,149.78 C 161.97,149.77 162.08,149.76 162.19,149.75 C 162.27,149.74 162.35,149.74 162.43,149.74 C 162.53,149.73 162.63,149.73 162.72,149.74 z M 152.65,144.42 C 152.43,144.58 152.22,144.76 152.03,144.95 C 151.85,145.13 151.69,145.33 151.54,145.53 C 151.46,145.64 151.38,145.74 151.31,145.85 C 151.23,145.97 151.16,146.08 151.08,146.2 C 150.93,146.45 150.8,146.71 150.7,146.98 C 150.65,147.11 150.6,147.25 150.57,147.4 C 150.55,147.48 150.54,147.57 150.52,147.65 C 150.5,147.8 150.49,147.95 150.48,148.09 C 150.47,148.24 150.46,148.38 150.45,148.53 C 150.44,148.66 150.43,148.79 150.4,148.92 C 150.38,149.05 150.34,149.17 150.3,149.29 C 150.22,149.46 150.12,149.61 150.0,149.75 C 149.86,149.89 149.7,150.01 149.52,150.09 C 149.4,150.15 149.28,150.18 149.15,150.2 C 149.01,150.22 148.86,150.21 148.71,150.18 C 148.61,150.16 148.52,150.12 148.43,150.07 C 148.4,150.05 148.37,150.03 148.34,150.0 C 148.3,149.97 148.26,149.93 148.23,149.88 C 148.19,149.82 148.15,149.75 148.13,149.68 C 148.06,149.52 148.04,149.35 148.04,149.18 C 148.03,149.09 148.04,148.99 148.05,148.9 C 148.07,148.76 148.1,148.63 148.15,148.51 C 148.2,148.38 148.26,148.26 148.33,148.14 C 148.4,148.02 148.48,147.9 148.56,147.79 C 148.65,147.68 148.74,147.57 148.84,147.46 C 148.9,147.39 148.97,147.32 149.04,147.25 C 149.2,147.08 149.37,146.92 149.55,146.76 C 149.89,146.44 150.25,146.14 150.62,145.85 C 150.81,145.71 150.99,145.57 151.17,145.43 C 151.3,145.33 151.43,145.23 151.56,145.13 C 151.91,144.87 152.26,144.62 152.65,144.42 z M 146.23,152.47 C 146.15,152.53 146.07,152.57 145.98,152.6 C 145.89,152.63 145.79,152.65 145.7,152.64 C 145.59,152.64 145.48,152.61 145.38,152.57 C 145.3,152.52 145.22,152.47 145.16,152.4 C 145.14,152.36 145.12,152.33 145.1,152.29 C 145.08,152.25 145.07,152.21 145.06,152.17 C 145.04,152.08 145.04,151.99 145.05,151.89 C 145.06,151.84 145.07,151.79 145.09,151.74 C 145.13,151.57 145.2,151.41 145.29,151.26 C 145.43,151.0 145.61,150.77 145.79,150.54 C 145.97,150.33 146.15,150.12 146.34,149.92 C 146.56,149.69 146.78,149.46 147.0,149.24 C 146.98,149.28 146.97,149.32 146.95,149.36 C 146.93,149.41 146.91,149.46 146.89,149.52 C 146.85,149.63 146.82,149.75 146.79,149.87 C 146.77,149.98 146.75,150.1 146.74,150.21 C 146.73,150.29 146.72,150.37 146.72,150.45 C 146.72,150.57 146.73,150.69 146.74,150.8 C 146.75,150.92 146.76,151.03 146.76,151.14 C 146.76,151.21 146.75,151.27 146.75,151.34 C 146.74,151.42 146.73,151.51 146.71,151.59 C 146.68,151.76 146.62,151.93 146.54,152.09 C 146.5,152.17 146.46,152.24 146.41,152.3 C 146.35,152.37 146.3,152.42 146.23,152.47 z M 143.17,146.01 C 143.02,146.0 142.87,145.99 142.71,145.97 C 142.57,145.94 142.43,145.91 142.29,145.87 C 142.16,145.83 142.04,145.77 141.92,145.7 C 141.81,145.63 141.7,145.54 141.62,145.43 C 141.51,145.29 141.44,145.1 141.41,144.92 C 141.4,144.83 141.4,144.73 141.41,144.64 C 141.41,144.58 141.43,144.53 141.44,144.47 C 141.47,144.38 141.51,144.29 141.56,144.21 C 141.61,144.12 141.67,144.03 141.74,143.96 C 141.81,143.87 141.89,143.8 141.96,143.72 C 142.01,143.68 142.06,143.64 142.12,143.59 C 142.21,143.51 142.31,143.44 142.41,143.37 C 142.62,143.23 142.84,143.11 143.07,143.01 C 143.32,142.9 143.58,142.82 143.84,142.75 C 144.15,142.67 144.46,142.61 144.77,142.56 C 144.87,142.54 144.96,142.53 145.05,142.52 C 145.09,142.51 145.13,142.51 145.17,142.51 C 145.14,142.56 145.11,142.6 145.07,142.65 C 144.98,142.79 144.88,142.92 144.81,143.07 C 144.74,143.22 144.71,143.38 144.71,143.54 C 144.72,143.68 144.75,143.82 144.82,143.94 C 144.86,144.02 144.92,144.09 144.98,144.16 C 145.04,144.22 145.11,144.27 145.18,144.32 C 145.33,144.41 145.49,144.47 145.66,144.51 C 145.95,144.57 146.24,144.58 146.53,144.56 C 146.85,144.54 147.17,144.49 147.49,144.43 C 147.84,144.37 148.18,144.31 148.53,144.26 C 148.61,144.24 148.7,144.23 148.78,144.22 C 148.67,144.29 148.56,144.35 148.44,144.41 C 148.26,144.5 148.08,144.6 147.89,144.68 C 147.7,144.77 147.51,144.86 147.32,144.95 C 147.07,145.06 146.82,145.17 146.57,145.28 C 146.36,145.37 146.14,145.45 145.92,145.52 C 145.72,145.59 145.52,145.65 145.31,145.71 C 145.1,145.77 144.89,145.81 144.68,145.86 C 144.44,145.9 144.2,145.95 143.95,145.97 C 143.69,146.0 143.43,146.02 143.17,146.01 z M 148.36,145.38 C 148.93,145.12 149.47,144.89 150.14,144.67 C 150.32,144.61 150.52,144.55 150.68,144.5 C 150.58,144.58 150.49,144.65 150.39,144.72 C 150.25,144.83 150.11,144.93 149.98,145.03 C 149.65,145.27 149.32,145.53 149.01,145.79 C 148.73,146.02 148.46,146.26 148.2,146.51 C 147.92,146.77 147.64,147.05 147.37,147.33 C 147.07,147.63 146.78,147.94 146.49,148.24 C 146.15,148.61 145.8,148.98 145.45,149.34 C 144.77,150.07 144.09,150.79 143.44,151.54 C 143.31,151.69 143.17,151.84 143.04,151.98 C 142.92,152.11 142.81,152.23 142.68,152.35 C 142.56,152.46 142.44,152.56 142.31,152.65 C 142.18,152.74 142.05,152.81 141.91,152.86 C 141.78,152.91 141.64,152.95 141.49,152.96 C 141.37,152.97 141.24,152.96 141.12,152.94 C 140.86,152.89 140.61,152.8 140.39,152.66 C 140.28,152.59 140.19,152.51 140.1,152.42 C 140.06,152.38 140.02,152.33 139.99,152.28 C 139.95,152.24 139.92,152.19 139.9,152.14 C 139.85,152.03 139.81,151.92 139.79,151.81 C 139.77,151.68 139.77,151.56 139.77,151.44 C 139.78,151.31 139.8,151.18 139.83,151.05 C 139.86,150.92 139.9,150.79 139.95,150.66 C 140.02,150.48 140.1,150.3 140.2,150.14 C 140.35,149.88 140.53,149.65 140.74,149.44 C 140.94,149.22 141.16,149.03 141.4,148.85 C 141.77,148.57 142.17,148.31 142.59,148.08 C 143.03,147.84 143.48,147.62 143.94,147.4 C 144.42,147.18 144.9,146.96 145.39,146.74 C 146.38,146.28 147.37,145.82 148.36,145.38 z M 139.06,150.15 C 138.99,150.25 138.93,150.34 138.86,150.44 C 138.81,150.53 138.75,150.62 138.7,150.71 C 138.61,150.88 138.53,151.04 138.44,151.21 C 138.33,151.4 138.21,151.59 138.08,151.76 C 138.0,151.86 137.92,151.95 137.83,152.03 C 137.74,152.12 137.65,152.19 137.54,152.26 C 137.45,152.32 137.34,152.37 137.23,152.41 C 137.12,152.45 137.01,152.47 136.9,152.49 C 136.79,152.5 136.68,152.5 136.57,152.49 C 136.46,152.47 136.35,152.45 136.25,152.41 C 136.15,152.38 136.05,152.33 135.97,152.27 C 135.89,152.2 135.81,152.13 135.75,152.04 C 135.68,151.94 135.64,151.83 135.6,151.72 C 135.56,151.6 135.54,151.47 135.54,151.34 C 135.53,151.22 135.54,151.1 135.57,150.97 C 135.59,150.86 135.63,150.76 135.68,150.66 C 135.72,150.6 135.76,150.54 135.82,150.49 C 135.86,150.45 135.91,150.41 135.96,150.38 C 136.08,150.31 136.21,150.27 136.34,150.24 C 136.42,150.22 136.5,150.2 136.58,150.19 C 136.74,150.17 136.9,150.15 137.07,150.14 C 137.24,150.13 137.41,150.12 137.58,150.11 C 137.72,150.1 137.86,150.08 138.0,150.05 C 138.13,150.03 138.25,150.0 138.38,149.96 C 138.5,149.93 138.63,149.88 138.75,149.83 C 139.01,149.72 139.26,149.59 139.5,149.45 C 139.61,149.39 139.72,149.32 139.82,149.26 C 139.82,149.27 139.81,149.28 139.8,149.29 C 139.56,149.55 139.28,149.87 139.06,150.15 z M 139.02,157.44 C 138.73,157.59 138.43,157.72 138.12,157.83 C 137.81,157.94 137.5,158.03 137.19,158.11 C 136.98,158.16 136.77,158.2 136.56,158.24 C 136.41,158.27 136.25,158.29 136.09,158.31 C 135.94,158.32 135.78,158.33 135.63,158.33 C 135.48,158.32 135.33,158.31 135.18,158.29 C 135.03,158.26 134.89,158.22 134.75,158.16 C 134.62,158.11 134.49,158.04 134.37,157.97 C 134.13,157.81 133.91,157.6 133.74,157.36 C 133.65,157.24 133.58,157.12 133.52,156.99 C 133.43,156.79 133.38,156.57 133.36,156.36 C 133.33,156.04 133.37,155.71 133.47,155.41 C 133.57,155.11 133.72,154.83 133.92,154.59 C 134.03,154.45 134.15,154.32 134.28,154.21 C 134.41,154.1 134.56,154.0 134.71,153.91 C 134.85,153.83 135.0,153.76 135.16,153.71 C 135.31,153.66 135.46,153.63 135.62,153.61 C 135.75,153.6 135.89,153.61 136.02,153.64 C 136.14,153.66 136.27,153.7 136.38,153.75 C 136.63,153.85 136.86,154.0 137.09,154.15 C 137.21,154.23 137.33,154.31 137.46,154.39 C 137.65,154.52 137.85,154.64 138.05,154.75 C 138.26,154.85 138.48,154.94 138.71,154.99 C 138.83,155.02 138.95,155.03 139.07,155.04 C 139.19,155.05 139.31,155.05 139.42,155.04 C 139.68,155.03 139.94,154.99 140.19,154.93 C 140.5,154.85 140.81,154.75 141.11,154.64 C 141.48,154.5 141.85,154.35 142.21,154.18 C 142.55,154.03 142.88,153.87 143.21,153.71 C 143.39,153.62 143.57,153.53 143.75,153.44 C 143.67,153.53 143.6,153.61 143.52,153.7 C 143.42,153.8 143.33,153.9 143.24,153.99 C 143.03,154.22 142.81,154.44 142.59,154.66 C 142.36,154.89 142.12,155.12 141.88,155.34 C 141.58,155.62 141.28,155.88 140.97,156.14 C 140.65,156.4 140.33,156.64 139.99,156.87 C 139.68,157.08 139.36,157.27 139.02,157.44 z M 134.66,163.81 C 134.68,163.65 134.72,163.48 134.77,163.32 C 134.82,163.17 134.89,163.02 134.97,162.88 C 135.04,162.77 135.13,162.66 135.22,162.56 C 135.25,162.53 135.28,162.49 135.32,162.46 C 135.37,162.41 135.42,162.36 135.48,162.31 C 135.47,162.35 135.46,162.39 135.45,162.43 C 135.41,162.58 135.37,162.73 135.35,162.89 C 135.33,163.04 135.32,163.19 135.32,163.34 C 135.33,163.49 135.35,163.64 135.39,163.78 C 135.43,163.94 135.49,164.09 135.56,164.24 C 135.64,164.38 135.73,164.52 135.84,164.65 C 135.92,164.75 136.02,164.85 136.12,164.93 C 136.22,165.01 136.32,165.08 136.43,165.14 C 136.48,165.18 136.53,165.2 136.59,165.23 C 136.62,165.25 136.65,165.26 136.68,165.28 C 136.73,165.3 136.78,165.32 136.82,165.34 C 136.9,165.37 136.98,165.41 137.05,165.46 C 137.08,165.48 137.11,165.5 137.13,165.52 C 137.16,165.55 137.18,165.57 137.2,165.6 C 137.25,165.67 137.28,165.75 137.3,165.82 C 137.31,165.91 137.32,165.99 137.31,166.08 C 137.3,166.16 137.28,166.24 137.24,166.32 C 137.21,166.4 137.16,166.47 137.1,166.54 C 137.04,166.61 136.96,166.67 136.87,166.73 C 136.78,166.78 136.68,166.83 136.57,166.86 C 136.45,166.89 136.33,166.9 136.22,166.9 C 136.05,166.89 135.89,166.85 135.74,166.8 C 135.59,166.74 135.45,166.65 135.32,166.55 C 135.18,166.44 135.05,166.29 134.96,166.14 C 134.85,165.97 134.78,165.78 134.73,165.59 C 134.67,165.39 134.64,165.19 134.62,164.99 C 134.6,164.79 134.59,164.59 134.6,164.39 C 134.61,164.2 134.63,164.0 134.66,163.81 z M 137.84,159.1 C 137.37,159.32 136.91,159.56 136.47,159.84 C 136.07,160.09 135.68,160.39 135.34,160.72 C 135.18,160.86 135.03,161.02 134.89,161.18 C 134.78,161.31 134.67,161.45 134.56,161.6 C 134.35,161.9 134.18,162.22 134.05,162.56 C 133.99,162.74 133.94,162.92 133.91,163.1 C 133.89,163.19 133.88,163.29 133.87,163.38 C 133.86,163.52 133.85,163.66 133.84,163.8 C 133.84,163.94 133.83,164.08 133.82,164.22 C 133.8,164.35 133.79,164.47 133.76,164.59 C 133.73,164.7 133.69,164.81 133.63,164.91 C 133.58,165.01 133.5,165.1 133.41,165.18 C 133.32,165.27 133.21,165.34 133.1,165.39 C 132.98,165.45 132.85,165.49 132.73,165.52 C 132.6,165.54 132.47,165.55 132.33,165.53 C 132.21,165.52 132.09,165.49 131.98,165.44 C 131.89,165.41 131.8,165.36 131.73,165.3 C 131.65,165.23 131.58,165.16 131.52,165.08 C 131.49,165.04 131.46,165.0 131.44,164.96 C 131.42,164.91 131.39,164.86 131.38,164.8 C 131.34,164.68 131.31,164.55 131.3,164.42 C 131.29,164.28 131.29,164.14 131.3,164.01 C 131.3,163.93 131.31,163.85 131.31,163.77 C 131.32,163.68 131.33,163.59 131.35,163.5 C 131.38,163.33 131.42,163.17 131.47,163.01 C 131.52,162.86 131.58,162.72 131.65,162.57 C 131.77,162.32 131.93,162.07 132.1,161.85 C 132.24,161.66 132.39,161.49 132.56,161.32 C 132.83,161.04 133.14,160.78 133.46,160.56 C 133.78,160.34 134.12,160.14 134.48,159.97 C 134.65,159.89 134.82,159.82 135.0,159.74 C 135.16,159.68 135.32,159.62 135.49,159.56 C 135.84,159.44 136.2,159.35 136.57,159.27 C 136.99,159.19 137.41,159.14 137.84,159.1 z M 130.69,162.32 C 130.81,162.21 130.94,162.09 131.06,161.99 C 131.09,161.97 131.11,161.94 131.14,161.92 C 131.06,162.04 130.99,162.16 130.92,162.28 C 130.85,162.41 130.78,162.54 130.72,162.67 C 130.65,162.82 130.59,162.98 130.54,163.14 C 130.48,163.32 130.44,163.51 130.41,163.7 C 130.35,164.06 130.34,164.43 130.36,164.8 C 130.36,164.93 130.37,165.05 130.38,165.18 C 130.39,165.25 130.39,165.31 130.4,165.38 C 130.41,165.51 130.43,165.64 130.46,165.76 C 130.48,165.89 130.52,166.01 130.56,166.13 C 130.61,166.25 130.66,166.37 130.73,166.47 C 130.8,166.56 130.87,166.65 130.96,166.72 C 131.02,166.78 131.1,166.84 131.17,166.89 C 131.24,166.94 131.31,167.0 131.37,167.05 C 131.43,167.1 131.48,167.16 131.53,167.22 C 131.57,167.28 131.61,167.35 131.63,167.42 C 131.66,167.5 131.67,167.58 131.68,167.67 C 131.68,167.76 131.68,167.85 131.67,167.94 C 131.65,168.04 131.63,168.13 131.59,168.22 C 131.56,168.3 131.52,168.38 131.46,168.45 C 131.41,168.52 131.35,168.57 131.29,168.62 C 131.22,168.67 131.14,168.71 131.07,168.75 C 130.98,168.78 130.9,168.81 130.81,168.83 C 130.72,168.84 130.63,168.86 130.54,168.86 C 130.38,168.87 130.22,168.85 130.06,168.8 C 129.88,168.75 129.7,168.67 129.55,168.57 C 129.42,168.48 129.3,168.37 129.2,168.25 C 129.11,168.14 129.04,168.03 128.98,167.9 C 128.92,167.78 128.87,167.65 128.83,167.51 C 128.78,167.38 128.75,167.24 128.73,167.1 C 128.7,166.89 128.68,166.68 128.68,166.47 C 128.68,166.08 128.72,165.7 128.82,165.33 C 128.91,164.97 129.04,164.62 129.2,164.29 C 129.37,163.94 129.57,163.6 129.81,163.29 C 130.07,162.94 130.38,162.62 130.69,162.32 z M 164.09,148.9 C 164.05,148.88 164.0,148.87 163.96,148.85 C 163.75,148.76 163.54,148.68 163.32,148.6 C 162.96,148.47 162.59,148.35 162.21,148.24 C 161.75,148.11 161.28,148.0 160.8,147.91 C 160.39,147.84 159.97,147.78 159.55,147.75 C 159.19,147.71 158.82,147.7 158.46,147.71 C 158.13,147.71 157.8,147.74 157.47,147.79 C 157.17,147.83 156.88,147.89 156.58,147.95 C 156.31,147.99 156.04,148.04 155.77,148.05 C 155.53,148.07 155.29,148.06 155.06,148.03 C 154.85,147.99 154.66,147.94 154.46,147.87 C 154.3,147.8 154.14,147.72 153.99,147.62 C 153.86,147.53 153.75,147.43 153.64,147.32 C 153.56,147.23 153.48,147.12 153.42,147.01 C 153.37,146.92 153.33,146.82 153.3,146.72 C 153.27,146.62 153.25,146.53 153.25,146.43 C 153.24,146.33 153.24,146.23 153.25,146.14 C 153.26,146.04 153.28,145.94 153.32,145.85 C 153.36,145.74 153.42,145.63 153.5,145.54 C 153.59,145.42 153.71,145.32 153.84,145.23 C 154.01,145.12 154.19,145.04 154.38,144.97 C 154.61,144.89 154.85,144.84 155.09,144.81 C 155.37,144.78 155.66,144.79 155.94,144.82 C 156.25,144.85 156.55,144.91 156.86,144.97 C 157.18,145.04 157.5,145.11 157.82,145.19 C 158.23,145.3 158.63,145.41 159.02,145.55 C 159.46,145.71 159.9,145.9 160.32,146.11 C 160.74,146.32 161.14,146.55 161.54,146.81 C 161.77,146.96 161.99,147.12 162.21,147.28 C 162.3,147.35 162.39,147.42 162.48,147.49 C 163.04,147.93 163.58,148.4 164.09,148.9 z M 162.4,149.08 C 162.17,149.06 161.95,149.04 161.73,149.03 C 161.53,149.02 161.33,149.02 161.13,149.03 C 160.95,149.04 160.78,149.06 160.6,149.08 C 160.41,149.11 160.22,149.13 160.03,149.17 C 159.74,149.22 159.46,149.28 159.18,149.37 C 158.91,149.47 158.65,149.6 158.43,149.78 C 158.32,149.87 158.21,149.99 158.11,150.1 C 158.0,150.2 157.9,150.31 157.79,150.4 C 157.67,150.49 157.53,150.57 157.38,150.62 C 157.24,150.68 157.08,150.71 156.93,150.71 C 156.84,150.71 156.75,150.7 156.67,150.68 C 156.58,150.66 156.5,150.63 156.43,150.59 C 156.35,150.56 156.29,150.51 156.23,150.46 C 156.17,150.41 156.12,150.35 156.08,150.28 C 156.03,150.19 156.0,150.08 155.99,149.97 C 155.99,149.86 156.0,149.75 156.03,149.65 C 156.04,149.6 156.06,149.54 156.09,149.49 C 156.13,149.42 156.17,149.37 156.22,149.31 C 156.27,149.26 156.33,149.21 156.39,149.16 C 156.45,149.12 156.52,149.07 156.59,149.04 C 156.66,149.0 156.74,148.96 156.81,148.93 C 157.03,148.83 157.26,148.76 157.49,148.71 C 157.74,148.65 158.0,148.62 158.26,148.6 C 158.4,148.59 158.54,148.59 158.68,148.59 C 158.87,148.58 159.06,148.59 159.25,148.59 C 159.64,148.6 160.02,148.63 160.4,148.67 C 160.58,148.69 160.76,148.71 160.94,148.74 C 161.06,148.75 161.19,148.77 161.31,148.79 C 161.48,148.82 161.65,148.86 161.82,148.9 C 162.01,148.95 162.21,149.01 162.4,149.08 M 163.41,145.3 C 162.96,144.73 162.6,144.0 162.36,143.32 C 162.08,142.5 161.97,141.74 162.16,140.87 C 162.33,140.08 162.77,139.18 163.48,138.7 C 164.21,138.21 165.21,138.22 165.98,138.55 C 166.74,138.87 167.38,139.52 167.86,140.15 C 168.11,140.48 168.32,140.82 168.51,141.19 C 168.6,141.38 168.68,141.57 168.75,141.76 C 168.82,141.95 168.92,142.32 168.64,142.2 C 168.55,142.16 168.23,141.86 168.17,141.81 C 168.0,141.68 167.84,141.57 167.64,141.48 C 167.24,141.3 166.87,141.26 166.43,141.36 C 165.58,141.55 164.98,142.3 164.91,143.15 C 164.84,144.0 165.2,144.84 165.61,145.53 C 165.92,146.06 166.64,147.08 167.01,147.57 C 167.52,148.23 168.09,148.82 168.71,149.36 C 169.33,149.91 169.95,150.46 170.56,151.01 C 170.87,151.29 171.18,151.57 171.49,151.85 C 171.64,151.98 171.79,152.12 171.95,152.26 C 172.02,152.33 172.1,152.4 172.17,152.47 C 172.21,152.51 172.25,152.54 172.29,152.58 C 172.31,152.59 172.27,152.57 172.26,152.56 C 172.25,152.56 172.24,152.55 172.23,152.55 C 172.2,152.53 172.18,152.52 172.16,152.51 C 171.42,152.12 170.7,151.72 169.98,151.31 C 168.54,150.48 167.13,149.62 165.74,148.7 C 165.05,148.25 164.36,147.78 163.67,147.33 C 162.97,146.88 162.27,146.43 161.58,145.98 C 160.07,144.99 158.89,144.29 157.19,143.66 C 155.58,143.07 154.03,142.8 152.31,142.94 C 151.48,143.01 150.67,143.16 149.83,143.19 C 149.42,143.21 149.01,143.21 148.59,143.17 C 148.2,143.13 147.76,143.05 147.45,142.75 C 147.15,142.46 147.0,142.01 147.07,141.61 C 147.14,141.19 147.39,140.82 147.74,140.59 C 148.39,140.13 149.43,140.13 150.14,140.15 C 151.84,140.21 153.4,140.58 154.99,141.15 C 157.13,141.91 159.1,142.9 161.0,144.15 C 161.44,144.44 161.88,144.75 162.31,145.06 C 162.54,145.24 162.77,145.43 163.01,145.6 C 163.05,145.63 163.1,145.65 163.15,145.66 C 163.37,145.69 163.56,145.49 163.41,145.3 z"
		 />
		 
		<!-- Prism Reference -->
		<cam mingh:cam=" --verb EditSelectAll --verb ZoomSelection --verb FileSave"/> 
	 </g>

</svg>
