<svg
   xmlns:xlink="http://www.w3.org/1999/xlink"
   xmlns:svg="http://www.w3.org/2000/svg"
   xmlns="http://www.w3.org/2000/svg"
   xmlns:mingh="http://www.minghworld.com"
   width="300px"
   height="300px" >
	 <g>
		<!-- Paths -->
		<path transform="matrix(-1 0 0 1 300 0)" style="fill:#ff0;stroke:none;"
		 d="M 146.75,124.09 C 145.95,124.1 145.15,124.35 144.44,124.91 C 142.14,126.69 142.53,130.29 145.16,131.53 C 145.75,131.81 146.34,131.9 147.0,131.88 C 147.29,131.86 147.56,131.83 147.84,131.78 C 148.01,131.75 148.31,131.67 148.25,131.94 C 148.12,132.48 148.05,133.04 148.0,133.59 C 147.95,134.16 147.92,134.72 147.94,135.28 C 147.95,135.57 147.97,135.84 148.0,136.13 C 148.01,136.2 147.99,136.27 148.0,136.34 C 148.0,136.38 148.03,136.4 148.03,136.44 C 148.03,136.46 148.03,136.51 148.0,136.5 C 147.98,136.5 147.98,136.48 147.97,136.47 C 147.85,136.38 147.74,136.26 147.63,136.16 C 147.2,135.78 146.83,135.36 146.53,134.88 C 146.15,134.27 146.01,133.81 145.75,133.16 C 145.63,132.86 145.53,132.77 145.38,133.09 C 145.21,133.44 145.11,133.82 145.03,134.19 C 144.9,134.81 144.84,135.4 144.91,136.03 C 145.01,137.07 145.52,138.16 146.09,139.0 C 146.49,139.58 146.96,140.11 147.47,140.59 C 147.54,140.66 147.61,140.74 147.69,140.81 C 147.71,140.83 147.7,140.83 147.72,140.84 C 147.74,140.86 147.78,140.87 147.78,140.91 C 147.78,140.94 147.74,140.94 147.72,140.94 L 147.66,140.94 C 147.48,140.95 147.3,140.94 147.13,140.91 C 146.82,140.86 146.55,140.74 146.28,140.59 C 145.63,140.24 145.11,139.75 144.53,139.31 C 144.29,139.13 144.02,138.96 143.91,139.34 C 143.82,139.64 143.87,140.12 143.91,140.41 C 144.09,141.92 144.7,143.08 145.63,144.25 C 146.12,144.87 146.65,145.42 147.22,145.97 C 147.36,146.11 147.51,146.27 147.66,146.41 C 147.73,146.47 147.8,146.53 147.88,146.59 C 147.89,146.61 147.92,146.61 147.94,146.63 C 147.96,146.64 147.99,146.65 147.97,146.69 C 147.95,146.71 147.92,146.67 147.91,146.66 L 147.84,146.63 C 147.47,146.35 147.07,146.07 146.69,145.81 C 145.27,144.86 143.8,144.0 142.38,143.06 C 141.03,142.18 139.77,141.23 138.66,140.06 C 138.01,139.39 137.45,138.66 136.91,137.91 C 136.35,137.14 135.53,135.94 135.16,135.06 C 134.94,134.56 134.78,134.03 134.63,133.5 C 134.5,133.07 134.39,132.66 134.22,132.25 C 134.12,132.01 134.0,131.71 133.75,131.97 C 133.56,132.17 133.35,132.6 133.25,132.84 C 132.73,134.18 132.68,136.22 132.78,137.59 C 132.91,139.3 133.34,140.61 134.25,142.06 C 134.46,142.4 134.7,142.71 134.94,143.03 C 135.0,143.11 135.03,143.2 135.09,143.28 C 135.14,143.34 135.31,143.52 135.19,143.47 C 135.02,143.39 134.85,143.31 134.69,143.22 C 134.03,142.84 133.48,142.36 132.94,141.84 C 132.64,141.56 132.36,141.27 132.09,140.97 C 131.94,140.79 131.8,140.62 131.66,140.44 C 131.51,140.26 131.36,140.07 131.19,139.91 C 130.85,139.58 130.79,140.04 130.78,140.38 C 130.76,140.91 130.82,141.41 130.91,141.94 C 131.18,143.63 131.86,144.75 132.97,146.0 C 133.5,146.6 134.05,147.14 134.69,147.63 C 135.05,147.91 135.46,148.19 135.84,148.44 C 136.05,148.57 136.25,148.69 136.47,148.81 C 136.58,148.88 136.7,148.94 136.81,149.0 C 136.84,149.02 136.88,149.05 136.91,149.06 C 136.92,149.07 136.92,149.09 136.94,149.09 C 136.88,149.11 136.81,149.14 136.75,149.16 C 136.11,149.33 135.48,149.46 134.81,149.53 C 134.42,149.57 134.02,149.61 133.63,149.63 C 133.38,149.64 133.15,149.62 132.91,149.63 C 132.66,149.63 132.41,149.63 132.16,149.69 C 131.79,149.77 131.81,150.01 132.0,150.28 C 132.26,150.66 132.59,150.93 132.94,151.22 C 133.66,151.81 134.42,152.29 135.25,152.72 C 136.66,153.45 138.4,154.03 139.94,154.38 C 139.99,154.39 140.04,154.39 140.09,154.41 C 140.12,154.41 140.16,154.45 140.19,154.47 C 139.98,154.51 139.8,154.56 139.59,154.59 C 139.18,154.66 138.76,154.69 138.34,154.72 C 137.66,154.77 136.97,154.81 136.28,154.81 C 135.88,154.82 135.47,154.79 135.06,154.81 C 134.96,154.82 134.68,154.82 134.63,154.97 C 134.57,155.11 134.74,155.32 134.81,155.41 C 135.02,155.65 135.27,155.84 135.53,156.03 C 136.27,156.58 137.08,156.94 137.94,157.25 C 138.82,157.57 139.72,157.79 140.66,157.88 C 140.76,157.88 140.86,157.9 140.97,157.91 C 141.02,157.91 141.07,157.9 141.13,157.91 C 141.14,157.91 141.18,157.92 141.19,157.94 C 141.21,157.98 141.08,157.99 141.06,158.0 C 140.64,158.17 140.2,158.29 139.75,158.38 C 139.19,158.48 138.63,158.52 138.06,158.53 C 137.89,158.53 137.71,158.52 137.53,158.53 C 137.42,158.54 137.29,158.53 137.19,158.56 C 136.99,158.63 137.16,158.83 137.25,158.94 C 137.68,159.46 138.27,159.74 138.91,159.91 C 139.57,160.08 140.23,160.12 140.91,160.09 C 141.08,160.09 141.24,160.08 141.41,160.06 C 141.49,160.06 141.6,160.04 141.69,160.03 C 141.7,160.03 141.8,160.01 141.81,160.03 C 141.84,160.07 141.77,160.05 141.75,160.06 C 141.66,160.1 141.56,160.15 141.47,160.19 C 141.34,160.24 141.22,160.29 141.09,160.34 C 140.75,160.5 140.44,160.69 140.13,160.88 C 139.91,161.0 139.71,161.14 139.5,161.28 C 139.36,161.37 139.21,161.44 139.09,161.56 C 139.04,161.62 138.98,161.72 139.0,161.81 C 139.02,161.9 139.12,161.94 139.19,161.97 C 139.35,162.03 139.52,162.07 139.69,162.09 C 140.44,162.19 141.6,161.97 142.31,161.78 C 142.8,161.65 143.28,161.49 143.75,161.31 C 143.82,161.29 143.9,161.25 143.97,161.22 C 144.0,161.21 144.07,161.21 144.03,161.25 C 144.0,161.28 143.97,161.32 143.94,161.34 C 143.83,161.45 143.71,161.56 143.59,161.66 C 143.39,161.83 143.21,161.99 143.0,162.16 C 142.75,162.36 142.39,162.61 142.19,162.88 C 142.03,163.08 142.15,163.18 142.38,163.22 C 143.03,163.34 144.17,163.14 144.78,162.97 C 145.4,162.8 145.97,162.55 146.5,162.19 C 146.5,162.2 146.51,162.21 146.5,162.22 C 146.48,162.23 146.46,162.27 146.44,162.28 C 146.4,162.31 146.38,162.34 146.34,162.38 C 146.27,162.44 146.2,162.5 146.13,162.56 C 145.98,162.69 145.83,162.82 145.69,162.94 C 145.39,163.18 145.09,163.43 144.78,163.66 C 144.16,164.12 143.55,164.55 142.88,164.94 C 141.44,165.76 140.17,166.12 138.53,166.25 C 137.76,166.31 136.99,166.32 136.22,166.28 C 135.84,166.26 135.47,166.23 135.09,166.19 C 134.9,166.17 134.72,166.15 134.53,166.13 C 134.42,166.11 134.3,166.1 134.19,166.09 C 134.16,166.09 134.12,166.09 134.09,166.09 C 134.07,166.1 134.07,166.11 134.06,166.13 C 134.04,166.19 134.06,166.25 134.06,166.31 C 134.02,167.95 134.59,169.31 135.69,170.5 C 135.82,170.64 135.95,170.77 136.09,170.91 C 136.18,170.99 136.48,171.21 136.53,171.34 C 136.58,171.47 136.52,171.59 136.38,171.59 C 136.26,171.6 136.17,171.58 136.06,171.56 C 135.88,171.53 135.71,171.46 135.53,171.41 C 135.33,171.34 135.15,171.24 134.94,171.19 C 134.8,171.15 134.64,171.17 134.69,171.34 C 134.73,171.48 134.82,171.58 134.91,171.69 C 135.14,171.99 135.38,172.27 135.66,172.53 C 136.24,173.08 136.85,173.55 137.56,173.91 C 138.31,174.29 139.01,174.49 139.88,174.38 C 140.27,174.32 140.64,174.2 141.0,174.03 C 141.09,173.99 141.16,173.96 141.25,173.91 C 141.32,173.86 141.41,173.8 141.5,173.78 C 141.58,173.77 141.58,173.88 141.59,173.94 C 141.63,174.15 141.66,174.36 141.75,174.56 C 141.91,174.94 142.16,175.19 142.5,175.41 C 142.67,175.51 142.82,175.58 143.0,175.66 C 143.15,175.72 143.51,175.89 143.69,175.88 C 143.79,175.87 143.79,175.79 143.78,175.72 C 143.77,175.64 143.73,175.58 143.72,175.5 C 143.7,175.41 143.7,175.31 143.69,175.22 C 143.66,175.0 143.6,174.7 143.66,174.47 C 143.69,174.32 143.83,174.37 143.91,174.47 C 143.99,174.57 144.07,174.68 144.16,174.78 C 144.3,174.94 144.43,175.09 144.59,175.22 C 144.74,175.34 144.93,175.44 145.09,175.53 C 145.19,175.59 145.28,175.64 145.38,175.69 C 145.46,175.73 145.56,175.79 145.66,175.81 C 145.73,175.83 145.79,175.81 145.78,175.72 C 145.77,175.62 145.73,175.55 145.69,175.47 C 145.66,175.41 145.62,175.34 145.59,175.28 C 145.55,175.19 145.5,175.1 145.47,175.0 C 145.4,174.82 145.36,174.63 145.31,174.44 C 145.1,173.53 145.29,172.94 145.63,172.13 C 145.96,171.31 146.21,170.77 146.16,169.84 C 146.15,169.75 146.17,169.63 146.16,169.53 C 146.14,169.37 146.05,169.23 146.06,169.06 C 146.07,168.94 146.17,168.97 146.25,169.0 C 146.34,169.04 146.41,169.09 146.5,169.13 C 146.6,169.16 146.68,169.19 146.78,169.22 C 147.16,169.33 147.55,169.42 147.94,169.47 C 148.76,169.57 149.56,169.54 150.38,169.41 C 150.78,169.34 151.17,169.25 151.56,169.13 C 151.76,169.06 151.93,168.98 152.13,168.91 C 152.22,168.87 152.31,168.85 152.41,168.81 C 152.45,168.79 152.52,168.77 152.56,168.75 C 152.61,168.73 152.63,168.69 152.69,168.69 C 152.73,168.68 152.7,168.73 152.69,168.75 C 152.67,168.77 152.67,168.79 152.66,168.81 C 152.63,168.86 152.62,168.89 152.59,168.94 C 152.55,169.03 152.51,169.13 152.47,169.22 C 152.39,169.4 152.32,169.56 152.25,169.75 C 152.1,170.13 151.89,170.47 151.63,170.78 C 151.48,170.95 150.95,171.48 150.84,171.69 C 150.71,171.95 150.9,172.02 151.13,172.06 C 151.32,172.1 151.52,172.11 151.72,172.16 C 152.51,172.33 153.29,172.38 154.09,172.34 C 154.9,172.31 155.66,172.18 156.44,171.94 C 157.12,171.73 158.02,171.36 158.59,170.91 C 158.92,170.65 159.16,170.34 159.34,169.97 C 159.39,169.88 159.4,169.81 159.44,169.72 C 159.45,169.7 159.46,169.65 159.47,169.63 C 159.48,169.6 159.51,169.56 159.53,169.59 C 159.56,169.64 159.55,169.7 159.56,169.75 C 159.62,169.94 159.67,170.13 159.75,170.31 C 160.07,171.06 160.56,171.7 161.03,172.34 C 161.69,173.25 162.0,173.58 162.81,172.59 C 163.32,171.97 163.78,171.31 164.16,170.59 C 164.53,169.88 164.83,169.14 165.0,168.34 C 165.08,167.95 165.13,167.56 165.13,167.16 C 165.12,166.96 165.09,166.76 165.06,166.56 C 165.05,166.46 165.02,166.38 165.0,166.28 C 165.0,166.27 164.95,166.14 164.97,166.13 C 164.98,166.11 164.99,166.15 165.0,166.16 C 165.01,166.17 165.02,166.15 165.03,166.16 C 165.05,166.17 165.08,166.2 165.09,166.22 C 165.69,166.8 166.34,167.22 167.09,167.56 C 167.32,167.67 167.95,167.95 168.25,167.88 C 168.65,167.78 168.78,167.17 168.84,166.88 C 169.02,166.08 169.13,165.31 169.19,164.5 C 169.24,163.68 169.23,162.87 169.09,162.06 C 168.96,161.24 168.73,160.5 168.28,159.78 C 167.87,159.12 167.24,158.48 166.47,158.22 C 166.07,158.09 165.65,158.1 165.25,158.06 C 164.78,158.02 164.53,157.91 164.22,157.53 C 164.2,157.5 164.22,157.43 164.22,157.41 C 164.22,157.36 164.21,157.3 164.22,157.25 C 164.23,157.15 164.24,157.04 164.25,156.94 C 164.27,156.74 164.27,156.55 164.28,156.34 C 164.3,155.94 164.31,155.53 164.31,155.13 C 164.3,153.48 164.11,151.9 163.69,150.31 C 163.48,149.53 163.2,148.76 162.91,148.0 C 162.76,147.62 162.6,147.25 162.44,146.88 C 162.36,146.69 162.27,146.5 162.19,146.31 C 162.13,146.18 162.12,146.18 162.03,146.31 C 161.97,146.4 161.9,146.48 161.84,146.56 C 161.61,146.9 161.37,147.2 161.13,147.53 C 161.07,147.61 161.0,147.7 160.94,147.78 C 160.91,147.82 160.91,147.87 160.88,147.91 C 160.83,147.96 160.85,147.99 160.88,148.03 C 160.98,148.21 161.09,148.38 161.19,148.56 C 161.58,149.28 161.88,150.02 162.09,150.81 C 162.31,151.6 162.44,152.41 162.53,153.22 C 162.54,153.32 162.55,153.4 162.56,153.5 C 162.57,153.55 162.56,153.61 162.56,153.66 C 162.57,153.68 162.59,153.69 162.59,153.72 C 162.59,153.73 162.59,153.77 162.59,153.78 C 162.6,153.8 162.58,153.81 162.56,153.81 C 162.53,153.82 162.52,153.79 162.5,153.78 C 162.48,153.77 162.46,153.76 162.44,153.75 C 162.4,153.73 162.36,153.71 162.31,153.69 C 162.23,153.65 162.15,153.62 162.06,153.59 C 161.67,153.47 161.28,153.45 160.88,153.47 C 160.86,153.47 160.82,153.5 160.81,153.47 C 160.81,153.44 160.81,153.4 160.81,153.38 C 160.81,153.33 160.79,153.27 160.78,153.22 C 160.77,153.12 160.77,153.04 160.75,152.94 C 160.7,152.74 160.63,152.55 160.53,152.38 C 160.31,152.0 160.04,151.76 159.66,151.56 C 158.92,151.19 158.01,151.27 157.28,151.53 C 156.9,151.67 156.56,151.85 156.22,152.06 C 156.05,152.17 155.88,152.29 155.72,152.41 C 155.64,152.47 155.55,152.53 155.47,152.59 C 155.43,152.62 155.41,152.66 155.38,152.69 C 155.36,152.7 155.33,152.7 155.31,152.72 C 155.31,152.72 155.29,152.71 155.28,152.72 C 155.3,152.7 155.29,152.67 155.31,152.66 C 155.35,152.62 155.4,152.57 155.44,152.53 C 155.51,152.46 155.56,152.39 155.63,152.31 C 155.76,152.17 155.9,152.03 156.03,151.88 C 156.29,151.57 156.55,151.24 156.78,150.91 C 157.68,149.6 158.35,148.05 158.59,146.47 C 158.85,144.82 158.64,143.31 157.91,141.81 C 157.1,140.17 156.11,139.33 154.81,138.16 C 153.56,137.02 152.72,136.06 152.06,134.47 C 151.46,133.01 151.22,131.32 151.63,129.75 C 151.72,129.39 151.87,129.06 152.03,128.72 C 152.11,128.55 152.2,128.36 152.28,128.19 C 152.35,128.05 152.4,127.85 152.31,127.69 C 152.21,127.5 152.0,127.46 151.81,127.5 C 151.58,127.55 151.34,127.71 151.22,127.91 C 151.16,128.01 151.12,128.11 151.03,128.19 C 150.94,128.27 150.81,128.28 150.75,128.16 C 150.73,128.12 150.72,128.1 150.72,128.06 C 150.72,127.99 150.72,127.92 150.72,127.84 C 150.71,127.63 150.67,127.4 150.63,127.19 C 150.22,125.24 148.52,124.07 146.75,124.09 z M 146.81,126.03 C 147.07,126.03 147.33,126.09 147.56,126.19 C 147.8,126.29 148.01,126.44 148.19,126.63 C 148.37,126.81 148.53,127.01 148.63,127.25 C 148.72,127.49 148.75,127.74 148.75,128.0 C 148.75,128.26 148.72,128.51 148.63,128.75 C 148.53,128.99 148.37,129.19 148.19,129.38 C 148.01,129.56 147.8,129.68 147.56,129.78 C 147.33,129.88 147.07,129.94 146.81,129.94 C 146.56,129.94 146.3,129.88 146.06,129.78 C 145.83,129.68 145.62,129.56 145.44,129.38 C 145.26,129.19 145.13,128.99 145.03,128.75 C 144.93,128.51 144.88,128.26 144.88,128.0 C 144.88,127.75 144.93,127.49 145.03,127.25 C 145.13,127.01 145.26,126.81 145.44,126.63 C 145.62,126.44 145.83,126.29 146.06,126.19 C 146.3,126.09 146.56,126.03 146.81,126.03 z M 162.53,154.75 C 162.55,154.74 162.6,154.76 162.63,154.75 C 162.63,154.75 162.65,154.75 162.66,154.75 C 162.66,154.85 162.68,154.96 162.69,155.06 C 162.71,155.47 162.75,155.87 162.75,156.28 C 162.75,156.48 162.72,156.67 162.72,156.88 C 162.72,156.98 162.72,157.09 162.72,157.19 C 162.72,157.24 162.73,157.29 162.72,157.34 C 162.71,157.39 162.68,157.36 162.66,157.34 C 162.63,157.33 162.62,157.29 162.59,157.28 C 161.87,156.85 161.12,156.62 160.28,156.53 C 160.08,156.51 159.89,156.5 159.69,156.5 L 159.59,156.5 C 159.57,156.5 159.52,156.51 159.53,156.47 C 159.55,156.42 159.59,156.39 159.63,156.34 C 159.68,156.26 159.75,156.17 159.81,156.09 C 159.94,155.93 160.05,155.78 160.19,155.63 C 160.25,155.55 160.34,155.48 160.41,155.41 C 160.44,155.37 160.46,155.32 160.5,155.28 C 160.52,155.26 160.54,155.27 160.56,155.25 C 160.58,155.23 160.59,155.19 160.63,155.19 C 161.03,155.15 161.41,155.07 161.81,154.97 C 162.01,154.92 162.21,154.88 162.41,154.81 C 162.45,154.8 162.49,154.77 162.53,154.75 z M 162.5,158.88 C 162.51,158.87 162.53,158.89 162.53,158.91 C 162.53,158.93 162.51,158.94 162.5,158.97 C 162.48,159.06 162.49,159.19 162.47,159.28 C 162.43,159.47 162.36,159.66 162.31,159.84 C 162.21,160.24 162.1,160.62 161.97,161.0 C 161.9,161.2 161.86,161.4 161.78,161.59 C 161.75,161.68 161.69,161.76 161.66,161.84 C 161.64,161.89 161.64,161.93 161.63,161.97 C 161.62,161.99 161.6,162.01 161.59,162.03 C 161.58,162.07 161.52,162.05 161.5,162.03 C 160.84,161.53 160.16,161.16 159.34,160.97 C 159.35,160.95 159.41,160.91 159.44,160.91 C 159.49,160.89 159.55,160.89 159.59,160.88 C 159.69,160.85 159.78,160.82 159.88,160.78 C 160.07,160.71 160.26,160.62 160.44,160.53 C 160.8,160.34 161.12,160.13 161.44,159.88 C 161.75,159.62 162.06,159.35 162.34,159.06 C 162.39,159.02 162.43,158.95 162.47,158.91 C 162.48,158.9 162.49,158.88 162.5,158.88 z M 163.91,159.28 C 163.91,159.28 163.93,159.26 163.94,159.28 C 163.98,159.41 164.03,159.56 164.06,159.69 C 164.19,160.14 164.27,160.59 164.28,161.06 C 164.3,161.53 164.23,161.98 164.16,162.44 C 164.09,162.9 164.03,163.34 164.03,163.81 C 164.03,163.93 164.02,164.04 164.03,164.16 C 164.04,164.21 164.05,164.29 164.06,164.34 C 164.07,164.37 164.06,164.43 164.03,164.41 C 164.01,164.39 163.99,164.36 163.97,164.34 C 163.8,164.18 163.62,164.02 163.44,163.88 C 163.25,163.73 163.08,163.6 162.94,163.41 C 162.87,163.31 162.8,163.2 162.75,163.09 C 162.73,163.04 162.71,162.99 162.69,162.94 C 162.68,162.91 162.67,162.9 162.66,162.88 C 162.65,162.87 162.65,162.79 162.66,162.78 C 163.11,161.96 163.44,161.09 163.69,160.19 C 163.75,159.98 163.79,159.77 163.84,159.56 C 163.86,159.51 163.86,159.46 163.88,159.41 C 163.88,159.37 163.89,159.29 163.91,159.28 z M 161.66,164.22 C 161.69,164.21 161.69,164.26 161.69,164.28 C 161.68,164.33 161.66,164.36 161.66,164.41 C 161.59,164.79 161.48,165.13 161.28,165.47 C 161.09,165.8 160.84,166.09 160.59,166.38 C 160.35,166.66 160.11,166.93 159.91,167.25 C 159.79,167.43 159.69,167.63 159.59,167.81 C 159.59,167.83 159.59,167.88 159.56,167.88 C 159.53,167.87 159.54,167.83 159.53,167.81 C 159.52,167.77 159.51,167.73 159.5,167.69 C 159.48,167.61 159.49,167.55 159.47,167.47 C 159.43,167.29 159.37,167.09 159.34,166.91 C 159.33,166.81 159.32,166.72 159.31,166.63 L 159.31,166.5 C 159.31,166.48 159.31,166.43 159.31,166.41 C 159.31,166.39 159.31,166.39 159.31,166.38 C 159.31,166.36 159.3,166.36 159.31,166.34 C 159.89,165.85 160.48,165.4 161.03,164.88 C 161.17,164.75 161.31,164.61 161.44,164.47 C 161.5,164.4 161.56,164.35 161.63,164.28 C 161.64,164.26 161.63,164.23 161.66,164.22 z M 159.38,164.81 C 159.39,164.81 159.39,164.82 159.41,164.81 C 159.4,164.83 159.39,164.86 159.38,164.88 C 159.34,164.91 159.31,164.94 159.28,164.97 C 159.15,165.11 159.03,165.23 158.91,165.38 C 158.84,165.45 158.78,165.52 158.72,165.59 C 158.68,165.63 158.64,165.67 158.59,165.69 C 158.55,165.71 158.51,165.73 158.47,165.75 C 158.12,165.92 157.75,166.05 157.38,166.16 C 157.0,166.26 156.63,166.31 156.25,166.38 C 156.06,166.41 155.87,166.45 155.69,166.5 C 155.64,166.51 155.61,166.52 155.56,166.53 C 155.54,166.54 155.52,166.52 155.5,166.53 C 155.47,166.54 155.45,166.52 155.47,166.5 C 155.53,166.43 155.6,166.36 155.66,166.28 C 155.89,165.98 156.11,165.67 156.31,165.34 C 156.33,165.32 156.42,165.34 156.44,165.34 C 156.48,165.35 156.55,165.37 156.59,165.38 C 156.69,165.39 156.78,165.37 156.88,165.38 C 157.07,165.38 157.25,165.39 157.44,165.38 C 157.83,165.35 158.19,165.31 158.56,165.19 C 158.75,165.13 158.95,165.05 159.13,164.97 C 159.21,164.93 159.29,164.86 159.38,164.81 z" />

		<text id="txtTwo" transform="matrix(1 0 0 1 150 160)" style="stroke:none;fill:#f00;font-family:'Eras Medium ITC';font-size:20px;text-anchor:middle"  >
		</text>
		<!-- Prism Reference -->
		<cam mingh:cam="--verb EditSelectAll --verb ZoomSelection --verb FileSave "/> 
	 </g>

</svg>