<svg
   xmlns:xlink="http://www.w3.org/1999/xlink"
   xmlns:svg="http://www.w3.org/2000/svg"
   xmlns="http://www.w3.org/2000/svg"
   xmlns:mingh="http://www.minghworld.com"
   width="300px"
   height="300px" >
	 <g>
		<!-- Paths -->
		<path style="fill:none;stroke:#000;stroke-width:0.25px;"
		 d="M 153.13,116.19 C 152.05,116.15 151.0,116.55 150.22,117.34 C 149.17,118.4 148.82,119.97 149.31,121.38 C 149.77,122.68 151.02,123.84 152.09,124.56 C 152.39,124.76 152.68,124.96 153.0,125.13 C 153.16,125.21 153.32,125.27 153.47,125.38 C 153.54,125.43 153.63,125.49 153.69,125.56 C 153.75,125.63 153.82,125.68 153.88,125.75 C 154.13,126.06 154.95,127.09 155.09,127.5 C 155.16,127.69 155.07,127.87 154.91,127.97 C 154.74,128.07 154.56,128.03 154.41,127.94 C 154.26,127.86 153.69,127.45 153.56,127.34 C 152.91,126.81 152.32,126.18 151.59,125.72 C 151.28,125.52 150.99,125.38 150.59,125.44 C 150.24,125.49 149.89,125.59 149.56,125.72 C 149.28,125.83 148.9,126.02 148.69,126.25 C 148.39,126.58 148.45,126.89 148.69,127.22 C 149.07,127.76 149.98,128.58 150.44,129.03 C 150.95,129.53 151.46,130.04 151.97,130.53 C 152.09,130.65 152.22,130.79 152.34,130.91 C 152.4,130.96 152.44,131.04 152.5,131.09 C 152.46,131.07 152.44,131.05 152.41,131.03 C 152.1,130.87 151.76,130.7 151.44,130.56 C 150.76,130.27 150.22,130.0 149.44,130.31 C 148.68,130.61 148.36,131.24 148.59,132.03 C 148.81,132.76 149.26,133.23 149.75,133.75 C 150.23,134.26 150.76,134.72 151.28,135.19 C 151.41,135.3 151.52,135.42 151.66,135.53 C 151.72,135.59 151.78,135.66 151.84,135.72 C 151.57,135.54 151.31,135.37 151.03,135.22 C 150.35,134.85 149.58,134.93 149.25,135.72 C 148.95,136.42 149.17,137.13 149.69,137.66 C 149.95,137.92 150.26,138.09 150.56,138.28 C 150.85,138.47 151.12,138.65 151.41,138.84 C 151.98,139.23 152.57,139.6 153.16,139.97 C 153.32,140.07 153.49,140.18 153.66,140.28 C 153.71,140.31 154.02,140.68 154.06,140.72 C 154.32,141.01 154.57,141.29 154.81,141.59 C 154.93,141.75 155.06,141.88 155.19,142.03 C 155.27,142.13 155.4,142.32 155.41,142.47 C 155.41,142.64 155.21,142.77 155.06,142.78 C 154.85,142.8 154.71,142.71 154.56,142.59 C 154.36,142.44 153.04,141.5 152.81,141.38 C 152.48,141.18 152.18,141.07 151.78,141.16 C 151.6,141.2 151.45,141.28 151.28,141.34 C 151.2,141.38 151.11,141.4 151.03,141.44 C 151.02,141.44 151.01,141.46 151.0,141.47 C 150.99,141.47 150.97,141.48 150.97,141.47 C 150.96,141.45 150.95,141.43 150.94,141.41 C 150.92,141.37 150.9,141.32 150.88,141.28 C 150.68,140.94 150.35,140.82 149.97,140.88 C 149.63,140.93 149.25,141.13 149.0,141.34 C 148.7,141.59 148.53,141.84 148.5,142.25 C 148.47,142.62 148.54,142.96 148.63,143.31 C 148.97,144.65 149.66,146.04 150.44,147.16 C 151.26,148.34 152.17,149.43 153.16,150.47 C 153.65,150.99 154.17,151.47 154.63,152.03 C 155.08,152.59 155.46,153.19 155.81,153.81 C 156.1,154.33 156.51,155.23 156.47,155.88 C 156.44,156.29 156.19,156.52 155.81,156.63 C 155.72,156.65 155.65,156.65 155.56,156.66 C 155.52,156.66 155.48,156.66 155.44,156.66 C 155.41,156.65 155.38,156.65 155.38,156.63 L 155.34,156.53 C 155.26,156.34 155.18,156.16 155.09,155.97 C 154.54,154.75 153.75,153.39 152.84,152.38 C 152.4,151.88 151.94,151.47 151.38,151.13 C 150.78,150.76 150.13,150.56 149.44,150.81 C 148.66,151.1 148.52,151.75 148.5,152.47 C 148.48,153.16 148.6,153.77 148.84,154.41 C 149.29,155.58 150.17,156.83 151.03,157.72 C 151.5,158.2 152.02,158.61 152.56,159.0 C 152.83,159.19 153.09,159.39 153.38,159.56 C 153.45,159.6 153.52,159.62 153.59,159.66 C 153.67,159.7 153.72,159.75 153.78,159.81 C 153.91,159.95 154.06,160.08 154.19,160.22 C 154.61,160.66 155.61,161.7 155.88,162.28 C 155.92,162.38 155.95,162.47 155.94,162.59 C 155.92,162.72 155.79,162.76 155.69,162.75 C 155.46,162.73 155.15,162.56 154.97,162.47 C 154.53,162.24 154.13,161.99 153.72,161.72 C 153.42,161.53 153.13,161.34 152.88,161.09 C 152.61,160.85 152.38,160.56 152.09,160.34 C 151.79,160.11 151.5,159.95 151.09,159.94 C 150.78,159.93 150.29,160.04 150.0,160.16 C 149.62,160.31 149.37,160.46 149.25,160.88 C 149.14,161.25 149.17,161.63 149.22,162.0 C 149.26,162.36 149.33,162.7 149.38,163.06 C 149.4,163.24 149.44,163.41 149.47,163.59 C 149.47,163.62 149.46,163.67 149.47,163.69 C 149.46,163.68 149.45,163.69 149.44,163.69 C 149.39,163.68 149.36,163.66 149.31,163.66 C 149.22,163.65 149.12,163.67 149.03,163.69 C 148.64,163.78 148.44,164.15 148.5,164.53 C 148.56,164.91 148.74,165.2 148.97,165.5 C 149.4,166.07 149.91,166.54 150.5,166.94 C 149.22,166.33 147.7,166.03 146.28,166.16 C 144.78,166.29 143.47,166.85 142.41,167.94 C 141.33,169.03 140.81,170.33 140.63,171.81 C 140.44,173.28 140.57,174.66 140.88,176.09 C 141.17,177.51 141.61,178.85 142.16,180.19 C 142.65,181.4 143.35,182.93 144.75,183.5 C 145.34,183.74 146.17,183.87 146.81,183.78 C 147.22,183.72 147.38,183.54 147.47,183.16 C 147.57,182.73 147.52,182.34 147.41,181.94 C 147.26,181.43 146.79,180.39 146.59,179.91 C 146.32,179.24 146.07,178.56 145.88,177.88 C 145.78,177.55 145.7,177.24 145.63,176.91 C 145.62,176.86 145.6,176.82 145.59,176.78 C 145.59,176.76 145.57,176.74 145.56,176.72 C 145.56,176.7 145.59,176.71 145.59,176.72 C 145.6,176.72 145.62,176.74 145.63,176.75 C 145.64,176.76 145.67,176.77 145.69,176.78 L 145.78,176.84 C 145.99,176.99 146.2,177.14 146.41,177.28 C 146.63,177.44 146.84,177.6 147.06,177.75 C 147.63,178.14 148.21,178.53 148.78,178.91 C 149.93,179.66 151.1,180.35 152.31,181.0 C 153.42,181.59 154.86,182.31 156.13,182.56 C 156.71,182.68 157.48,182.76 158.06,182.47 C 158.71,182.15 159.02,181.27 159.13,180.66 C 159.2,180.2 159.18,179.74 159.16,179.28 C 159.13,178.63 159.08,177.99 159.03,177.34 C 158.91,175.72 158.75,174.08 158.53,172.47 C 158.35,171.15 158.1,169.5 157.53,168.25 C 157.47,168.12 157.41,168.0 157.34,167.88 C 157.26,167.73 157.2,167.56 157.13,167.41 C 156.97,167.08 156.78,166.78 156.56,166.5 C 156.02,165.81 155.36,165.36 154.63,164.91 C 154.18,164.63 153.73,164.39 153.22,164.25 C 153.1,164.22 152.97,164.18 152.84,164.16 C 152.81,164.15 152.78,164.13 152.75,164.13 C 152.72,164.12 152.7,164.13 152.69,164.09 C 152.67,164.04 152.65,164.02 152.63,163.97 C 152.54,163.76 152.46,163.55 152.38,163.34 C 152.34,163.27 152.34,163.17 152.31,163.09 C 152.34,163.11 152.38,163.14 152.41,163.16 C 152.46,163.19 152.51,163.21 152.56,163.25 C 152.78,163.4 153.03,163.55 153.25,163.69 C 153.7,163.97 154.15,164.25 154.63,164.5 C 155.41,164.91 156.22,165.33 157.16,165.34 C 157.82,165.35 158.63,165.2 159.09,164.63 C 159.57,164.04 159.48,163.24 159.28,162.59 C 159.06,161.89 158.66,161.32 158.22,160.75 C 158.0,160.47 157.78,160.22 157.53,159.97 C 157.47,159.91 157.41,159.81 157.34,159.75 C 157.34,159.74 157.35,159.73 157.34,159.72 C 157.35,159.71 157.33,159.69 157.34,159.69 C 157.38,159.67 157.43,159.67 157.47,159.66 C 157.62,159.59 157.77,159.49 157.91,159.41 C 158.44,159.07 158.9,158.63 159.16,158.03 C 159.67,156.86 159.36,155.31 158.97,154.22 C 158.75,153.6 158.48,153.01 158.16,152.44 C 158.0,152.16 157.82,151.87 157.66,151.59 C 157.57,151.46 157.49,151.32 157.41,151.19 C 157.38,151.15 157.37,151.13 157.34,151.09 C 157.33,151.08 157.32,151.05 157.31,151.03 C 157.32,151.03 157.34,151.0 157.34,151.0 C 157.41,150.96 157.46,150.92 157.53,150.88 C 158.09,150.54 158.61,150.17 159.03,149.66 C 159.52,149.06 159.57,148.44 159.31,147.75 C 159.08,147.13 158.61,146.76 158.16,146.34 C 157.91,146.12 157.65,145.91 157.41,145.69 C 157.29,145.58 157.18,145.49 157.06,145.38 C 157.05,145.36 157.01,145.33 157.0,145.31 C 156.98,145.29 157.05,145.31 157.06,145.31 C 157.1,145.32 157.12,145.33 157.16,145.34 C 157.22,145.36 157.28,145.39 157.34,145.41 C 157.87,145.55 158.54,145.69 159.03,145.25 C 159.28,145.03 159.43,144.67 159.44,144.34 C 159.45,143.99 159.32,143.69 159.19,143.38 C 158.92,142.75 158.64,142.17 158.28,141.59 C 158.11,141.31 157.93,141.04 157.72,140.78 C 157.62,140.65 157.49,140.53 157.38,140.41 C 157.36,140.39 157.36,140.36 157.34,140.34 L 157.31,140.34 C 157.31,140.34 157.29,140.31 157.31,140.31 C 157.39,140.31 157.45,140.29 157.53,140.28 C 157.67,140.27 157.8,140.27 157.94,140.25 C 158.31,140.2 158.65,140.13 158.97,139.88 C 159.26,139.64 159.44,139.25 159.44,138.88 C 159.44,138.44 159.26,138.19 158.94,137.94 C 158.64,137.7 158.31,137.52 157.97,137.34 C 157.3,136.99 156.63,136.66 156.0,136.22 C 155.4,135.8 154.84,135.32 154.28,134.84 C 154.21,134.78 154.13,134.72 154.06,134.66 C 154.05,134.64 154.05,134.61 154.03,134.59 C 154.19,134.68 154.34,134.76 154.5,134.84 C 154.83,135.01 155.16,135.2 155.5,135.34 C 155.94,135.53 157.09,135.94 157.56,136.03 C 158.24,136.16 159.18,136.09 159.38,135.25 C 159.46,134.9 159.4,134.47 159.22,134.16 C 159.03,133.83 158.76,133.62 158.47,133.41 C 158.17,133.19 157.87,132.99 157.56,132.78 C 157.26,132.57 156.97,132.36 156.69,132.13 C 156.12,131.66 155.55,131.16 155.0,130.69 C 154.86,130.57 154.73,130.47 154.59,130.34 C 154.55,130.3 154.66,130.36 154.69,130.38 C 154.73,130.39 154.77,130.42 154.81,130.44 C 154.9,130.48 154.98,130.49 155.06,130.53 C 155.4,130.68 155.72,130.84 156.06,130.97 C 156.74,131.22 157.47,131.45 158.22,131.22 C 158.95,130.99 159.43,130.38 159.44,129.59 C 159.45,128.74 159.22,128.28 158.78,127.59 C 158.4,126.99 157.98,126.41 157.53,125.84 C 157.25,125.49 157.14,125.33 156.97,124.91 C 156.84,124.57 156.77,124.24 156.75,123.88 C 156.72,123.28 156.93,122.3 156.97,121.72 C 157.02,121.0 157.01,120.28 156.88,119.56 C 156.59,118.08 155.7,116.9 154.22,116.41 C 153.87,116.29 153.48,116.2 153.13,116.19 z M 153.0,118.13 C 153.35,118.13 153.69,118.25 154.0,118.44 C 154.59,118.81 154.86,119.35 154.97,120.0 C 155.08,120.63 155.04,121.24 154.97,121.88 C 154.93,122.21 154.89,122.55 154.81,122.88 C 154.78,123.02 154.73,123.17 154.69,123.31 C 154.67,123.38 154.65,123.43 154.63,123.5 C 154.61,123.53 154.61,123.56 154.59,123.59 C 154.59,123.61 154.57,123.64 154.56,123.66 C 154.56,123.66 154.57,123.68 154.56,123.69 C 153.5,123.26 152.26,122.39 151.56,121.47 C 151.17,120.95 150.93,120.4 151.06,119.72 C 151.19,119.09 151.63,118.57 152.22,118.31 C 152.37,118.25 152.5,118.18 152.66,118.16 C 152.77,118.14 152.88,118.12 153.0,118.13 z M 150.94,142.78 C 151.58,143.23 152.21,143.69 152.81,144.19 C 153.32,144.61 153.8,145.04 154.28,145.5 C 154.73,145.93 155.19,146.36 155.59,146.81 C 155.88,147.14 156.15,147.46 156.41,147.84 C 156.51,148.0 156.61,148.17 156.59,148.34 C 156.59,148.42 156.55,148.5 156.5,148.56 C 156.45,148.63 156.38,148.68 156.31,148.72 C 156.01,148.88 155.65,148.88 155.31,148.81 C 154.89,148.72 154.51,148.5 154.19,148.22 C 153.8,147.88 153.5,147.48 153.22,147.06 C 152.73,146.34 152.3,145.58 151.91,144.81 C 151.56,144.14 151.24,143.47 150.94,142.78 z M 150.44,152.75 C 150.52,152.76 150.61,152.78 150.69,152.81 C 150.98,152.93 151.19,153.11 151.41,153.31 C 151.7,153.6 152.0,153.91 152.25,154.25 C 152.49,154.57 152.69,154.93 152.88,155.28 C 153.08,155.67 153.24,156.08 153.38,156.5 C 153.44,156.7 153.51,156.89 153.56,157.09 C 153.3,157.01 153.03,156.91 152.78,156.78 C 152.21,156.48 151.73,156.01 151.31,155.5 C 150.99,155.11 150.7,154.68 150.47,154.25 C 150.33,154.0 150.22,153.77 150.13,153.47 C 150.08,153.32 150.02,153.15 150.06,153.0 C 150.09,152.92 150.15,152.82 150.22,152.78 C 150.28,152.74 150.36,152.74 150.44,152.75 z M 153.03,167.03 C 153.23,167.14 153.5,167.56 153.63,167.72 C 153.65,167.75 153.67,167.8 153.69,167.84 C 153.7,167.88 153.74,167.9 153.75,167.94 C 153.78,168.01 153.79,168.09 153.81,168.16 C 153.87,168.3 153.93,168.41 153.97,168.56 C 154.0,168.69 154.02,168.89 153.91,169.0 C 153.79,169.12 153.61,169.11 153.5,169.0 C 153.28,168.79 153.06,168.59 152.81,168.41 C 152.57,168.22 152.31,168.05 152.06,167.88 C 151.94,167.79 151.82,167.68 151.69,167.59 C 151.62,167.55 151.53,167.51 151.47,167.47 C 151.44,167.45 151.43,167.42 151.41,167.41 C 152.01,167.63 152.62,167.62 153.03,167.03 z M 148.16,169.16 C 148.71,169.14 149.26,169.24 149.75,169.41 C 150.75,169.75 151.51,170.38 152.19,171.09 C 153.06,172.0 153.82,173.04 154.38,174.09 C 154.89,175.07 155.25,176.1 155.47,177.13 C 155.57,177.62 155.63,178.09 155.47,178.69 C 155.41,178.91 155.31,179.15 155.13,179.22 C 154.96,179.28 154.72,179.23 154.5,179.16 C 154.25,179.06 154.03,178.96 153.81,178.84 C 153.51,178.69 153.21,178.51 152.91,178.34 C 152.36,178.04 151.82,177.74 151.28,177.44 C 150.59,177.05 149.9,176.63 149.34,176.28 C 148.66,175.85 148.19,175.54 147.47,175.06 C 147.17,174.87 146.83,174.66 146.47,174.47 C 146.32,174.39 146.16,174.32 146.0,174.28 C 145.85,174.25 145.71,174.24 145.56,174.25 C 145.39,174.27 145.23,174.29 145.06,174.34 C 144.94,173.84 144.85,173.3 144.81,172.81 C 144.77,172.33 144.75,171.93 144.88,171.5 C 145.03,170.96 145.37,170.39 145.97,169.94 C 146.41,169.6 146.99,169.33 147.59,169.22 C 147.78,169.18 147.97,169.16 148.16,169.16 z"
		 />
		 
		<!-- Prism Reference -->
		<cam mingh:cam=" --verb EditSelectAll --verb ZoomSelection --verb FileSave "/> 
	 </g>

</svg>
