<svg
   xmlns:xlink="http://www.w3.org/1999/xlink"
   xmlns:svg="http://www.w3.org/2000/svg"
   xmlns="http://www.w3.org/2000/svg"
   xmlns:mingh="http://www.minghworld.com"
   width="300px"
   height="300px" >
	 <g>
		<!-- Paths -->
		<path style="fill:none;stroke:#000;stroke-width:0.25px;"
		 d="M 152.91,123.88 C 151.45,123.83 150.09,124.6 149.38,125.91 C 148.56,127.4 148.81,129.25 150.0,130.47 C 149.65,130.47 148.96,130.53 148.72,130.91 C 148.6,131.1 148.6,131.28 148.72,131.47 C 148.83,131.64 148.96,131.79 149.06,131.97 C 149.28,132.33 149.4,132.71 149.47,133.13 C 149.53,133.53 149.54,133.93 149.5,134.34 C 149.46,134.76 149.37,135.12 149.19,135.5 C 149.01,135.87 148.83,136.23 148.59,136.56 C 148.13,137.23 147.55,137.78 147.38,138.66 C 147.34,138.86 147.34,139.07 147.38,139.28 C 147.41,139.49 147.5,139.65 147.56,139.84 C 147.63,140.08 147.54,140.23 147.41,140.41 C 147.28,140.57 147.13,140.72 147.0,140.88 C 146.75,141.16 146.54,141.57 146.5,141.97 C 146.46,142.44 146.63,142.71 146.88,143.06 C 147.11,143.39 147.38,143.73 147.63,144.06 C 147.99,144.55 148.0,144.52 148.44,144.94 C 148.73,145.22 148.93,145.57 149.31,145.78 C 149.71,146.0 150.07,146.03 150.5,145.94 C 150.9,145.85 151.28,145.67 151.69,145.59 C 151.86,145.56 152.11,145.52 152.28,145.63 C 152.45,145.72 152.53,145.98 152.53,146.16 C 152.53,146.57 152.09,146.92 151.81,147.09 C 151.46,147.32 151.1,147.49 150.72,147.66 C 149.96,147.99 149.16,148.19 148.38,148.44 C 147.59,148.69 146.83,149.01 146.09,149.38 C 144.76,150.04 143.09,151.07 141.91,151.97 C 140.68,152.89 139.31,154.15 138.41,155.41 C 137.93,156.08 137.53,156.81 137.13,157.53 C 136.72,158.25 136.31,158.95 136.0,159.72 C 135.23,161.65 135.58,162.65 135.53,164.59 C 135.51,165.61 135.49,166.02 135.59,167.03 C 135.68,167.85 135.82,168.66 135.97,169.47 C 136.12,170.28 136.25,171.1 136.41,171.91 C 136.49,172.31 136.59,172.69 136.69,173.09 C 136.78,173.49 136.87,173.91 136.97,174.31 C 137.04,174.6 137.19,175.21 137.44,175.44 C 137.64,175.63 138.37,175.72 138.59,175.75 C 139.41,175.86 140.24,175.89 141.06,175.94 C 143.01,176.04 144.05,176.04 146.0,175.97 C 147.64,175.91 149.29,175.9 150.94,175.91 C 151.76,175.91 152.55,175.9 153.38,175.88 C 153.79,175.86 154.22,175.87 154.63,175.81 C 154.94,175.77 155.52,175.64 155.81,175.5 C 155.89,175.46 156.23,175.19 156.34,175.19 C 156.44,175.19 156.53,175.34 156.56,175.41 C 156.61,175.5 156.65,175.58 156.72,175.66 C 157.0,175.95 157.45,176.1 157.84,176.13 C 158.49,176.17 158.44,175.94 159.03,175.84 C 159.16,175.82 159.5,175.86 159.59,175.69 C 159.65,175.59 159.65,175.5 159.69,175.41 C 159.73,175.3 159.79,175.22 159.88,175.16 C 160.17,174.95 160.68,174.83 161.03,174.81 C 161.21,174.8 162.09,174.88 162.25,174.66 C 162.35,174.51 162.18,174.18 162.13,174.06 C 162.03,173.88 161.93,173.73 161.81,173.56 C 161.57,173.23 161.31,172.9 161.0,172.63 C 160.85,172.49 160.69,172.35 160.53,172.22 C 160.45,172.15 160.36,172.09 160.28,172.03 C 160.2,171.97 160.1,171.92 160.03,171.84 C 159.87,171.68 159.82,171.5 159.81,171.28 C 159.8,171.08 159.83,170.89 159.81,170.69 C 159.76,169.87 159.65,169.04 159.63,168.22 C 159.56,166.39 159.77,165.12 160.44,163.41 C 161.15,161.58 162.14,160.97 162.69,159.03 C 162.8,158.64 162.89,158.24 163.0,157.84 C 163.11,157.45 163.25,157.05 163.38,156.66 C 163.62,155.87 163.83,155.09 164.0,154.28 C 164.63,151.21 164.63,147.55 164.22,144.47 C 163.82,141.47 162.92,137.88 160.72,135.5 C 160.16,134.89 159.53,134.41 158.84,133.97 C 158.16,133.53 157.46,133.12 156.72,132.78 C 156.35,132.61 155.96,132.48 155.56,132.38 C 155.16,132.26 154.78,132.26 154.38,132.22 C 154.16,132.2 153.92,132.17 153.72,132.06 C 153.59,131.99 153.49,131.93 153.38,131.84 C 153.32,131.8 153.27,131.74 153.22,131.69 C 153.2,131.68 153.17,131.67 153.16,131.66 C 153.16,131.66 153.18,131.63 153.19,131.63 C 153.21,131.62 153.23,131.63 153.25,131.63 C 153.65,131.58 154.04,131.48 154.41,131.31 C 155.96,130.62 156.85,129.0 156.66,127.31 C 156.46,125.62 155.2,124.26 153.53,123.94 C 153.32,123.9 153.11,123.88 152.91,123.88 z M 152.81,125.81 C 153.07,125.81 153.3,125.87 153.53,125.97 C 153.77,126.07 154.01,126.19 154.19,126.38 C 154.37,126.56 154.5,126.76 154.59,127.0 C 154.69,127.24 154.75,127.49 154.75,127.75 C 154.75,128.01 154.69,128.26 154.59,128.5 C 154.5,128.74 154.37,128.94 154.19,129.13 C 154.01,129.31 153.77,129.46 153.53,129.56 C 153.3,129.66 153.07,129.72 152.81,129.72 C 152.56,129.72 152.3,129.66 152.06,129.56 C 151.83,129.46 151.59,129.31 151.41,129.13 C 151.23,128.94 151.1,128.74 151.0,128.5 C 150.9,128.26 150.84,128.01 150.84,127.75 C 150.84,127.49 150.9,127.24 151.0,127.0 C 151.1,126.76 151.23,126.56 151.41,126.38 C 151.59,126.19 151.83,126.07 152.06,125.97 C 152.3,125.87 152.56,125.81 152.81,125.81 z"
		 />
		 <path style="fill:#f00;stroke:none;"
		 d="M 149.97,130.63 C 149.82,130.63 149.68,130.63 149.53,130.66 C 149.37,130.68 149.21,130.71 149.06,130.78 C 149.0,130.81 148.98,130.83 148.97,130.91 C 148.96,130.94 148.94,130.99 148.94,131.03 C 148.92,131.21 148.95,131.36 149.0,131.53 C 149.14,131.95 149.49,132.37 149.81,132.66 C 149.99,132.81 150.17,132.94 150.38,133.06 C 150.49,133.13 150.6,133.2 150.72,133.25 C 150.79,133.28 150.88,133.3 150.84,133.41 C 150.81,133.5 150.73,133.46 150.66,133.47 C 150.42,133.5 150.2,133.55 149.97,133.63 C 149.91,133.64 149.84,133.67 149.78,133.69 C 149.75,133.7 149.75,133.71 149.72,133.72 C 149.67,133.74 149.66,133.77 149.66,133.81 C 149.66,133.98 149.67,134.15 149.66,134.31 C 149.65,134.39 149.64,134.45 149.63,134.53 C 149.62,134.57 149.63,134.62 149.63,134.66 C 149.62,134.67 149.58,134.76 149.59,134.78 C 149.63,134.83 149.66,134.77 149.69,134.75 C 149.71,134.73 149.76,134.71 149.78,134.69 C 149.83,134.65 149.87,134.59 149.94,134.66 C 150.11,134.83 150.29,135.01 150.47,135.19 C 150.49,135.21 150.51,135.23 150.53,135.25 C 150.55,135.27 150.59,135.3 150.59,135.34 C 150.6,135.37 150.48,135.49 150.47,135.5 C 150.38,135.59 150.3,135.66 150.22,135.75 C 150.13,135.84 150.05,135.94 149.97,136.03 C 149.94,136.06 149.92,136.09 149.88,136.06 C 149.85,136.04 149.81,136.02 149.78,136.0 C 149.73,135.96 149.68,135.94 149.63,135.91 C 149.52,135.83 149.44,135.76 149.34,135.69 C 149.29,135.65 149.27,135.68 149.25,135.72 C 149.23,135.76 149.21,135.81 149.19,135.84 C 149.15,135.92 149.13,135.99 149.09,136.06 C 149.05,136.13 149.01,136.18 148.97,136.25 C 148.93,136.32 148.87,136.39 148.84,136.47 C 148.83,136.52 148.91,136.57 148.94,136.59 C 148.98,136.63 149.02,136.66 149.06,136.69 C 149.46,136.95 149.88,137.1 150.34,137.19 C 150.46,137.21 150.57,137.21 150.69,137.22 C 150.73,137.22 150.84,137.22 150.88,137.28 C 150.92,137.37 150.85,137.4 150.78,137.44 C 150.56,137.55 150.36,137.67 150.16,137.81 C 149.8,138.07 149.53,138.37 149.31,138.75 C 149.22,138.91 149.14,139.07 149.09,139.25 C 149.07,139.33 149.04,139.42 149.03,139.5 C 149.03,139.55 149.04,139.6 148.97,139.59 C 148.93,139.59 148.88,139.57 148.84,139.56 C 148.49,139.53 148.21,139.45 147.91,139.25 C 147.76,139.16 147.61,139.03 147.5,138.91 C 147.5,138.93 147.5,138.95 147.5,138.97 C 147.5,139.01 147.5,139.05 147.5,139.09 C 147.51,139.17 147.51,139.24 147.53,139.31 C 147.57,139.46 147.64,139.6 147.69,139.75 C 147.71,139.82 147.75,139.92 147.75,140.0 C 147.75,140.04 147.73,140.06 147.72,140.09 C 147.71,140.11 147.72,140.14 147.72,140.16 C 147.72,140.17 147.72,140.18 147.72,140.19 C 147.72,140.2 147.7,140.22 147.72,140.22 C 147.89,140.25 148.04,140.26 148.22,140.28 C 148.31,140.29 148.36,140.36 148.31,140.44 C 148.26,140.52 148.19,140.59 148.13,140.66 C 148.01,140.78 147.89,140.92 147.78,141.06 C 147.41,141.55 147.11,142.15 147.06,142.78 C 147.05,142.93 147.08,143.06 147.16,143.19 C 147.24,143.32 147.35,143.44 147.44,143.56 C 147.62,143.81 147.77,144.08 147.97,144.31 C 148.27,144.66 148.39,144.73 148.84,144.81 C 149.23,144.88 149.6,144.9 150.0,144.84 C 150.24,144.81 150.48,144.72 150.72,144.69 C 150.76,144.68 150.78,144.68 150.81,144.72 C 150.88,144.79 150.85,144.84 150.81,144.91 C 150.77,144.99 150.72,145.1 150.69,145.19 C 150.63,145.33 150.59,145.46 150.59,145.63 C 150.6,145.81 150.81,145.69 150.91,145.66 C 151.07,145.6 151.24,145.55 151.41,145.5 C 151.45,145.49 151.46,145.49 151.5,145.47 C 151.53,145.45 151.53,145.43 151.53,145.41 C 151.54,145.36 151.55,145.33 151.56,145.28 C 151.6,145.1 151.64,144.92 151.72,144.75 C 151.74,144.71 151.76,144.67 151.78,144.63 C 151.81,144.57 151.84,144.5 151.91,144.53 C 151.99,144.57 152.07,144.63 152.16,144.66 C 152.59,144.79 152.98,144.74 153.41,144.63 C 153.65,144.56 153.87,144.49 154.09,144.38 C 154.21,144.32 154.35,144.26 154.47,144.19 C 154.53,144.15 154.56,144.1 154.63,144.06 C 154.7,144.02 154.79,144.11 154.75,144.19 C 154.38,144.95 154.12,146.01 154.59,146.84 C 154.61,146.88 154.63,146.9 154.66,146.94 C 154.7,147.0 154.69,147.02 154.63,147.06 C 154.56,147.11 154.48,147.15 154.41,147.19 C 154.26,147.27 154.13,147.33 153.97,147.38 C 153.64,147.47 153.34,147.48 153.0,147.41 C 152.85,147.37 152.7,147.32 152.56,147.25 C 152.5,147.22 152.44,147.2 152.38,147.16 C 152.31,147.12 152.25,147.03 152.19,147.0 C 152.15,146.98 152.02,147.11 152.0,147.13 C 151.94,147.17 151.88,147.21 151.81,147.25 C 151.68,147.33 151.54,147.4 151.41,147.47 C 151.27,147.54 151.14,147.62 151.0,147.69 C 150.93,147.72 150.85,147.75 150.78,147.78 C 150.75,147.8 150.72,147.8 150.69,147.81 C 150.65,147.83 150.6,147.85 150.63,147.91 C 151.25,149.04 152.63,148.95 153.63,148.53 C 153.78,148.47 153.95,148.39 154.09,148.31 C 154.17,148.27 154.24,148.2 154.31,148.16 C 154.34,148.14 154.53,148.04 154.56,148.03 C 154.66,148.02 154.7,148.1 154.69,148.19 C 154.68,148.28 154.66,148.38 154.66,148.47 C 154.64,148.64 154.62,148.8 154.63,148.97 C 154.64,149.57 154.8,150.21 155.16,150.72 C 155.74,151.57 156.69,151.71 157.59,151.31 C 158.12,151.08 158.5,150.77 158.88,150.34 C 158.98,150.23 159.07,150.09 159.16,149.97 C 159.21,149.9 159.27,149.88 159.34,149.94 C 159.39,149.97 159.43,150.11 159.44,150.16 C 159.5,150.44 159.57,150.7 159.69,150.97 C 160.72,153.31 163.0,153.14 164.0,150.84 C 164.23,150.32 164.31,149.78 164.34,149.22 C 164.36,148.96 164.35,148.7 164.34,148.44 C 164.34,148.4 164.34,148.38 164.34,148.34 C 164.32,148.38 164.27,148.4 164.25,148.44 C 164.22,148.48 164.21,148.55 164.19,148.59 C 164.17,148.62 164.17,148.63 164.16,148.66 C 164.15,148.66 164.14,148.67 164.13,148.66 C 164.12,148.65 164.1,148.63 164.09,148.63 C 163.95,148.48 163.83,148.33 163.69,148.19 C 163.62,148.12 163.54,148.04 163.47,147.97 C 163.43,147.93 163.41,147.91 163.38,147.88 C 163.36,147.86 163.33,147.83 163.31,147.81 C 163.3,147.8 163.29,147.79 163.28,147.78 C 163.27,147.77 163.31,147.76 163.31,147.75 L 163.69,147.28 C 163.75,147.2 163.81,147.14 163.88,147.06 C 163.89,147.04 163.89,147.02 163.91,147.0 C 163.93,146.97 163.95,147.02 163.97,147.03 C 164.01,147.06 164.05,147.09 164.09,147.13 C 164.13,147.16 164.18,147.16 164.22,147.19 C 164.24,147.2 164.26,147.23 164.28,147.25 C 164.29,147.25 164.31,147.25 164.31,147.25 C 164.31,147.12 164.32,147.01 164.31,146.88 C 164.31,146.81 164.29,146.75 164.28,146.69 L 164.28,146.59 L 164.28,146.53 C 164.28,146.52 164.28,146.51 164.28,146.5 C 164.14,146.52 163.98,146.51 163.84,146.53 C 163.29,146.6 162.75,146.64 162.19,146.63 C 161.05,146.6 159.98,146.42 158.91,146.06 C 154.99,144.77 152.13,141.49 151.28,137.47 C 150.86,135.49 150.95,133.42 151.56,131.5 C 151.45,131.47 151.33,131.45 151.22,131.41 L 150.31,131.88 L 149.63,130.88 L 150.09,130.72 C 150.06,130.69 150.03,130.65 150.0,130.63 C 149.99,130.62 149.97,130.63 149.97,130.63 z M 153.56,132.13 C 153.54,132.11 153.54,132.14 153.53,132.16 C 153.52,132.19 153.51,132.25 153.5,132.28 C 153.46,132.41 153.44,132.52 153.41,132.66 C 153.33,132.92 153.27,133.2 153.22,133.47 C 153.12,134.01 153.04,134.54 153.03,135.09 C 153.02,136.22 153.19,137.25 153.56,138.31 C 155.08,142.66 159.53,145.28 164.06,144.5 C 163.99,143.92 163.89,143.33 163.78,142.75 C 163.75,142.61 163.75,142.46 163.72,142.31 C 163.7,142.24 163.67,142.17 163.66,142.09 C 163.65,142.06 163.66,142.03 163.63,142.0 C 163.6,141.98 163.59,141.96 163.56,141.94 C 163.37,141.76 163.2,141.57 163.03,141.38 C 162.95,141.28 162.86,141.2 162.78,141.09 C 162.74,141.04 162.69,140.99 162.66,140.94 C 162.65,140.95 162.63,140.93 162.63,140.94 C 162.61,140.96 162.58,140.97 162.56,141.0 C 162.43,141.22 162.29,141.43 162.13,141.63 C 161.76,142.06 161.32,142.43 160.91,142.81 C 160.66,143.04 160.43,143.27 160.19,143.5 C 160.13,143.55 160.1,143.59 160.03,143.63 C 159.99,143.65 159.98,143.63 159.97,143.59 C 159.96,143.56 159.95,143.5 159.94,143.47 C 159.9,143.31 159.85,143.16 159.81,143.0 C 159.67,142.43 159.49,141.86 159.38,141.28 C 159.33,141.04 159.3,140.81 159.28,140.56 C 159.27,140.44 159.25,140.31 159.25,140.19 C 159.25,140.13 159.25,140.06 159.25,140.0 L 159.25,139.91 C 159.24,139.91 159.23,139.9 159.22,139.91 C 158.76,140.1 158.27,140.24 157.78,140.31 C 157.2,140.4 156.62,140.43 156.03,140.5 C 155.88,140.52 155.72,140.54 155.56,140.56 C 155.45,140.58 155.5,140.51 155.53,140.44 C 155.56,140.37 155.6,140.29 155.63,140.22 C 155.75,139.92 155.88,139.62 156.0,139.31 C 156.19,138.83 156.35,138.34 156.59,137.88 C 156.71,137.67 156.83,137.47 156.97,137.28 C 157.0,137.23 157.06,137.2 157.09,137.16 C 157.1,137.14 157.12,137.11 157.13,137.09 C 157.14,137.07 157.11,137.1 157.09,137.09 C 157.06,137.09 157.03,137.07 157.0,137.06 C 156.88,137.03 156.77,137.01 156.66,136.97 C 156.18,136.82 155.74,136.61 155.31,136.38 C 154.78,136.08 154.26,135.76 153.72,135.47 C 153.63,135.42 153.76,135.37 153.81,135.34 C 153.88,135.3 153.94,135.26 154.0,135.22 C 154.14,135.13 154.27,135.06 154.41,134.97 C 154.66,134.81 154.93,134.63 155.19,134.47 C 155.61,134.2 156.01,133.97 156.47,133.78 C 156.57,133.74 156.68,133.69 156.78,133.66 C 156.83,133.64 156.88,133.61 156.94,133.59 C 156.95,133.59 156.99,133.6 157.0,133.59 C 157.01,133.59 157.04,133.58 157.03,133.56 C 157.01,133.54 156.99,133.52 156.97,133.5 C 156.82,133.33 156.68,133.15 156.56,132.97 C 156.55,132.95 156.55,132.93 156.53,132.91 C 156.52,132.88 156.5,132.86 156.47,132.84 C 156.41,132.82 156.34,132.81 156.28,132.78 C 156.16,132.73 156.06,132.67 155.94,132.63 C 155.88,132.6 155.81,132.58 155.75,132.56 C 155.74,132.56 155.71,132.55 155.72,132.56 C 155.73,132.58 155.74,132.61 155.75,132.63 C 155.76,132.66 155.77,132.71 155.78,132.75 C 155.82,132.91 155.8,133.06 155.75,133.22 C 155.56,133.87 154.78,134.1 154.25,133.69 C 154.0,133.49 153.89,133.19 153.91,132.88 C 153.92,132.71 153.94,132.58 154.03,132.44 C 154.05,132.41 154.07,132.37 154.09,132.34 C 154.11,132.33 154.07,132.34 154.06,132.34 L 154.03,132.31 C 153.97,132.3 153.9,132.3 153.84,132.28 C 153.77,132.25 153.69,132.2 153.63,132.16 C 153.61,132.15 153.58,132.14 153.56,132.13 z M 157.53,133.38 C 157.59,133.43 157.66,133.48 157.72,133.53 C 157.84,133.65 157.96,133.75 158.09,133.84 C 158.22,133.93 158.36,134.03 158.5,134.09 C 158.6,134.14 158.71,134.19 158.81,134.22 C 158.89,134.24 158.96,134.24 159.03,134.25 C 158.78,134.08 158.51,133.93 158.25,133.78 C 158.09,133.68 157.95,133.59 157.78,133.5 C 157.7,133.45 157.61,133.42 157.53,133.38 z M 157.47,134.0 C 156.4,134.22 155.59,134.82 154.72,135.38 C 154.71,135.38 154.66,135.39 154.69,135.41 C 154.7,135.41 154.7,135.43 154.72,135.44 C 154.75,135.45 154.78,135.45 154.81,135.47 C 154.87,135.5 154.91,135.53 154.97,135.56 C 155.08,135.63 155.2,135.69 155.31,135.75 C 155.54,135.88 155.77,136.01 156.0,136.13 C 156.46,136.36 156.92,136.54 157.44,136.63 C 157.56,136.65 157.55,136.63 157.63,136.56 C 157.67,136.52 157.73,136.48 157.78,136.44 C 157.88,136.35 157.98,136.26 158.09,136.19 C 158.3,136.05 158.51,135.95 158.75,135.88 C 158.98,135.8 159.19,135.74 159.44,135.72 C 159.56,135.71 159.69,135.72 159.81,135.72 C 159.83,135.72 159.86,135.72 159.88,135.72 C 159.9,135.72 159.88,135.7 159.88,135.69 C 159.87,135.65 159.85,135.6 159.84,135.56 C 159.83,135.49 159.85,135.42 159.84,135.34 C 159.84,135.19 159.83,135.02 159.84,134.88 C 159.85,134.84 159.78,134.81 159.75,134.81 C 159.72,134.81 159.72,134.84 159.69,134.84 C 159.63,134.85 159.56,134.84 159.5,134.84 C 159.26,134.84 159.01,134.81 158.78,134.75 C 158.25,134.62 157.87,134.38 157.47,134.03 L 157.47,134.0 z M 157.09,134.91 C 157.19,134.9 157.27,134.89 157.38,134.94 C 157.56,135.03 157.71,135.23 157.72,135.44 C 157.73,135.65 157.61,135.86 157.44,135.97 C 157.24,136.1 157.05,136.04 156.84,136.0 C 156.43,135.91 156.07,135.78 155.72,135.56 C 155.7,135.55 155.74,135.54 155.75,135.53 C 155.76,135.52 155.77,135.51 155.78,135.5 C 155.8,135.49 155.82,135.48 155.84,135.47 C 155.88,135.44 155.93,135.4 155.97,135.38 C 156.06,135.32 156.12,135.27 156.22,135.22 C 156.4,135.12 156.59,135.03 156.78,134.97 C 156.88,134.93 157.0,134.91 157.09,134.91 z M 160.38,135.38 C 160.38,135.39 160.37,135.42 160.38,135.44 C 160.46,136.25 161.01,136.92 161.78,137.19 C 161.58,136.85 161.37,136.53 161.13,136.22 C 161.0,136.06 160.88,135.9 160.75,135.75 C 160.68,135.67 160.6,135.61 160.53,135.53 C 160.5,135.49 160.47,135.44 160.44,135.41 C 160.42,135.39 160.37,135.34 160.38,135.38 z M 159.38,136.25 C 158.98,136.3 158.63,136.43 158.28,136.69 C 157.83,137.01 157.51,137.41 157.22,137.88 C 156.94,138.34 156.73,138.85 156.53,139.34 C 156.48,139.47 156.45,139.59 156.41,139.72 C 156.38,139.78 156.34,139.84 156.31,139.91 C 156.31,139.92 156.32,139.92 156.31,139.94 C 156.31,139.96 156.33,139.94 156.34,139.94 C 156.38,139.93 156.4,139.94 156.44,139.94 C 156.7,139.91 156.95,139.87 157.22,139.84 C 157.75,139.78 158.27,139.72 158.78,139.53 C 159.9,139.12 160.59,138.5 160.84,137.28 C 160.63,137.11 160.47,136.94 160.31,136.72 C 160.24,136.61 160.15,136.5 160.09,136.38 C 160.08,136.35 160.08,136.31 160.06,136.28 C 160.04,136.24 160.0,136.25 159.97,136.25 C 159.9,136.25 159.85,136.25 159.78,136.25 C 159.64,136.25 159.51,136.23 159.38,136.25 z M 155.03,136.91 C 155.16,136.91 155.26,136.95 155.38,137.0 C 155.49,137.05 155.6,137.13 155.69,137.22 C 155.77,137.31 155.83,137.41 155.88,137.53 C 155.92,137.65 155.94,137.78 155.94,137.91 C 155.93,138.03 155.9,138.17 155.84,138.28 C 155.79,138.39 155.72,138.48 155.63,138.56 C 155.53,138.65 155.43,138.71 155.31,138.75 C 155.19,138.79 155.06,138.82 154.94,138.81 C 154.81,138.81 154.68,138.77 154.56,138.72 C 154.45,138.67 154.36,138.59 154.28,138.5 C 154.2,138.41 154.14,138.31 154.09,138.19 C 154.05,138.07 154.03,137.94 154.03,137.81 C 154.04,137.69 154.07,137.58 154.13,137.47 C 154.18,137.36 154.25,137.24 154.34,137.16 C 154.44,137.07 154.54,137.01 154.66,136.97 C 154.77,136.93 154.91,136.9 155.03,136.91 z M 159.03,137.13 C 159.26,137.06 159.53,137.1 159.69,137.31 L 159.72,137.31 C 159.88,137.52 159.81,137.79 159.69,138.0 C 159.55,138.23 159.35,138.33 159.13,138.44 C 158.67,138.64 158.21,138.74 157.72,138.81 C 157.72,138.81 157.75,138.79 157.75,138.78 C 157.76,138.77 157.75,138.76 157.75,138.75 C 157.76,138.72 157.77,138.71 157.78,138.69 C 157.81,138.63 157.85,138.58 157.88,138.53 C 157.93,138.41 158.0,138.3 158.06,138.19 C 158.19,137.98 158.31,137.75 158.47,137.56 C 158.63,137.37 158.77,137.2 159.03,137.13 z M 161.31,137.59 C 161.31,137.61 161.32,137.61 161.31,137.63 C 161.31,137.65 161.29,137.69 161.28,137.72 C 161.27,137.77 161.27,137.82 161.25,137.88 C 161.22,137.98 161.17,138.08 161.13,138.19 C 160.91,138.69 160.59,139.05 160.16,139.38 C 160.06,139.45 159.98,139.53 159.88,139.59 C 159.85,139.61 159.82,139.62 159.81,139.66 L 159.81,139.75 C 159.81,139.82 159.78,139.87 159.78,139.94 C 159.77,140.2 159.78,140.46 159.81,140.72 C 159.88,141.23 160.03,141.75 160.16,142.25 C 160.19,142.37 160.22,142.47 160.25,142.59 C 160.25,142.61 160.28,142.64 160.28,142.66 C 160.3,142.63 160.35,142.62 160.38,142.59 C 160.42,142.55 160.45,142.51 160.5,142.47 C 160.69,142.29 160.87,142.11 161.06,141.94 C 161.44,141.58 161.81,141.22 162.09,140.78 C 162.17,140.66 162.25,140.56 162.31,140.44 C 162.33,140.41 162.33,140.38 162.31,140.34 C 162.3,140.31 162.29,140.28 162.28,140.25 C 162.25,140.19 162.24,140.12 162.22,140.06 C 162.13,139.83 162.04,139.62 162.0,139.38 C 161.91,138.84 161.99,138.35 162.16,137.84 C 162.13,137.8 162.1,137.82 162.06,137.81 C 162.03,137.81 162.0,137.82 161.97,137.81 C 161.9,137.8 161.82,137.77 161.75,137.75 C 161.61,137.71 161.5,137.65 161.38,137.59 C 161.37,137.59 161.35,137.6 161.34,137.59 C 161.34,137.59 161.32,137.58 161.31,137.59 z M 162.53,138.59 C 162.53,138.63 162.5,138.65 162.5,138.69 C 162.49,138.79 162.5,138.89 162.5,139.0 C 162.5,139.11 162.51,139.24 162.53,139.34 C 162.56,139.49 162.6,139.64 162.66,139.78 C 162.71,139.94 162.8,140.1 162.88,140.25 C 163.02,140.53 163.17,140.79 163.38,141.03 C 163.32,140.83 163.28,140.61 163.22,140.41 C 163.03,139.79 162.8,139.18 162.53,138.59 z M 150.41,138.81 L 151.31,139.25 L 150.91,140.19 L 149.72,139.84 L 150.41,138.81 z M 160.81,139.78 C 160.91,139.76 160.99,139.75 161.09,139.78 C 161.29,139.84 161.45,139.98 161.5,140.19 C 161.55,140.42 161.46,140.6 161.34,140.78 C 161.12,141.14 160.85,141.43 160.53,141.69 C 160.51,141.7 160.53,141.67 160.53,141.66 C 160.53,141.65 160.53,141.64 160.53,141.63 C 160.52,141.6 160.51,141.59 160.5,141.56 C 160.49,141.51 160.48,141.45 160.47,141.41 C 160.44,141.3 160.42,141.2 160.41,141.09 C 160.37,140.89 160.34,140.67 160.34,140.47 C 160.35,140.25 160.36,140.07 160.53,139.91 C 160.61,139.83 160.71,139.81 160.81,139.78 z M 149.38,140.5 C 149.39,140.48 149.4,140.49 149.41,140.5 C 149.43,140.52 149.42,140.54 149.44,140.56 C 149.48,140.6 149.55,140.65 149.59,140.69 C 149.98,140.98 150.47,141.11 150.94,141.13 C 151.17,141.13 151.43,141.09 151.66,141.06 C 151.77,141.05 151.86,141.06 151.97,141.03 C 152.03,141.02 152.1,140.97 152.16,140.97 C 152.25,140.96 152.28,141.09 152.22,141.16 C 151.62,141.75 150.95,142.8 151.22,143.75 C 151.22,143.76 151.22,143.77 151.22,143.78 C 151.19,143.79 151.15,143.81 151.13,143.81 C 151.07,143.83 151.0,143.83 150.94,143.84 C 150.82,143.87 150.72,143.87 150.59,143.88 C 150.34,143.88 150.11,143.86 149.88,143.78 C 149.41,143.62 149.03,143.29 148.81,142.84 C 148.6,142.4 148.56,141.9 148.72,141.44 C 148.8,141.2 148.94,140.98 149.09,140.78 C 149.17,140.69 149.25,140.61 149.34,140.53 C 149.35,140.52 149.36,140.51 149.38,140.5 z M 157.81,140.81 C 157.94,140.79 158.07,140.82 158.19,140.84 C 158.31,140.87 158.43,140.9 158.53,140.97 C 158.63,141.04 158.71,141.15 158.78,141.25 C 158.85,141.35 158.88,141.47 158.91,141.59 C 158.93,141.72 158.93,141.85 158.91,141.97 C 158.88,142.09 158.85,142.21 158.78,142.31 C 158.71,142.42 158.6,142.49 158.5,142.56 C 158.4,142.63 158.28,142.7 158.16,142.72 C 158.03,142.74 157.9,142.71 157.78,142.69 C 157.66,142.66 157.54,142.63 157.44,142.56 C 157.33,142.49 157.26,142.39 157.19,142.28 C 157.12,142.18 157.05,142.06 157.03,141.94 C 157.01,141.81 157.04,141.68 157.06,141.56 C 157.09,141.44 157.12,141.32 157.19,141.22 C 157.26,141.12 157.36,141.04 157.47,140.97 C 157.57,140.9 157.69,140.84 157.81,140.81 z M 162.69,142.22 C 162.81,142.22 162.91,142.24 163.03,142.28 C 163.15,142.33 163.28,142.38 163.38,142.47 C 163.47,142.55 163.51,142.67 163.56,142.78 C 163.61,142.9 163.65,143.0 163.66,143.13 C 163.66,143.25 163.64,143.38 163.59,143.5 C 163.55,143.62 163.49,143.72 163.41,143.81 C 163.32,143.9 163.21,143.98 163.09,144.03 C 162.98,144.08 162.84,144.12 162.72,144.13 C 162.59,144.13 162.49,144.11 162.38,144.06 C 162.26,144.02 162.15,143.93 162.06,143.84 C 161.97,143.76 161.89,143.68 161.84,143.56 C 161.79,143.45 161.75,143.31 161.75,143.19 C 161.75,143.06 161.77,142.93 161.81,142.81 C 161.86,142.7 161.91,142.59 162.0,142.5 C 162.09,142.41 162.2,142.33 162.31,142.28 C 162.43,142.23 162.56,142.22 162.69,142.22 z M 152.25,142.59 L 153.28,142.72 L 153.19,143.72 L 151.97,143.78 L 152.25,142.59 z M 156.28,145.31 L 156.53,146.31 L 155.38,146.75 L 155.28,145.53 L 156.28,145.31 z M 158.13,146.13 C 158.16,146.14 158.16,146.21 158.16,146.25 C 158.06,147.09 158.2,148.3 159.0,148.88 C 159.01,148.88 159.02,148.9 159.03,148.91 C 159.04,148.91 159.04,148.93 159.03,148.94 C 159.03,148.94 159.0,148.93 159.0,148.94 C 158.98,148.96 158.99,149.01 158.97,149.03 C 158.93,149.08 158.88,149.11 158.84,149.16 C 158.76,149.25 158.69,149.33 158.59,149.41 C 158.4,149.56 158.17,149.7 157.94,149.78 C 157.47,149.94 156.98,149.9 156.53,149.69 C 156.09,149.47 155.76,149.08 155.59,148.63 C 155.51,148.39 155.47,148.16 155.47,147.91 C 155.47,147.79 155.48,147.68 155.5,147.56 C 155.5,147.55 155.5,147.51 155.5,147.5 C 155.5,147.48 155.55,147.5 155.56,147.5 C 155.59,147.5 155.6,147.53 155.63,147.53 C 155.68,147.54 155.75,147.53 155.81,147.53 C 156.3,147.52 156.78,147.28 157.16,147.0 C 157.34,146.86 157.5,146.73 157.66,146.56 C 157.74,146.48 157.83,146.37 157.91,146.28 C 157.94,146.24 157.96,146.2 158.0,146.16 C 158.03,146.13 158.09,146.11 158.13,146.13 z M 159.97,146.81 L 160.53,147.66 L 159.59,148.47 L 159.09,147.34 L 159.97,146.81 z M 161.97,146.97 C 162.01,146.97 162.02,146.99 162.03,147.03 C 162.21,147.86 162.74,149.0 163.69,149.28 C 163.7,149.29 163.74,149.28 163.75,149.28 C 163.76,149.28 163.75,149.31 163.75,149.31 C 163.74,149.34 163.73,149.38 163.72,149.41 C 163.7,149.46 163.68,149.51 163.66,149.56 C 163.61,149.68 163.56,149.8 163.5,149.91 C 163.37,150.12 163.2,150.28 163.0,150.44 C 162.62,150.74 162.15,150.9 161.66,150.84 C 161.17,150.79 160.72,150.54 160.41,150.16 C 160.25,149.96 160.15,149.74 160.06,149.5 C 160.02,149.39 159.99,149.28 159.97,149.16 C 159.97,149.14 159.97,149.14 159.97,149.13 C 159.96,149.1 159.99,149.1 160.0,149.09 C 160.03,149.09 160.07,149.1 160.09,149.09 C 160.15,149.08 160.19,149.05 160.25,149.03 C 160.71,148.86 161.08,148.51 161.34,148.13 C 161.48,147.93 161.59,147.71 161.69,147.5 C 161.74,147.39 161.77,147.3 161.81,147.19 C 161.83,147.13 161.85,147.08 161.88,147.03 C 161.9,146.99 161.93,146.96 161.97,146.97 z M 149.66,148.19 C 149.45,148.25 149.27,148.32 149.06,148.38 C 149.01,148.39 148.93,148.39 148.88,148.41 C 149.04,148.67 149.21,148.95 149.34,149.22 C 149.46,149.46 149.56,149.69 149.66,149.94 C 149.81,150.35 149.92,150.78 150.0,151.22 C 150.08,151.64 150.12,152.07 150.13,152.5 C 150.13,152.81 150.1,153.13 150.06,153.44 C 150.04,153.64 150.01,153.83 149.97,154.03 C 149.89,154.41 149.81,154.76 149.69,155.13 C 149.55,155.51 149.37,155.89 149.19,156.25 C 149.0,156.61 148.82,156.98 148.59,157.31 C 148.3,157.74 147.97,158.15 147.63,158.53 C 147.15,159.05 146.62,159.51 146.06,159.94 C 145.49,160.38 144.89,160.79 144.25,161.13 C 143.79,161.36 143.3,161.57 142.81,161.75 C 142.34,161.92 141.84,162.05 141.34,162.16 C 140.87,162.26 140.42,162.36 139.94,162.41 C 139.63,162.43 139.31,162.44 139.0,162.44 C 138.56,162.44 138.12,162.4 137.69,162.34 C 137.25,162.29 136.83,162.21 136.41,162.09 C 136.16,162.03 135.91,161.96 135.66,161.88 C 135.65,161.96 135.66,162.04 135.66,162.13 C 135.65,162.38 135.65,162.65 135.66,162.91 C 135.66,163.16 135.65,163.43 135.66,163.69 C 135.66,163.9 135.69,164.1 135.69,164.31 C 135.69,164.41 135.66,164.5 135.66,164.59 C 135.91,164.26 136.15,163.92 136.38,163.56 C 136.3,165.08 136.49,166.59 136.84,168.03 C 136.8,168.11 136.77,168.21 136.72,168.28 C 136.51,168.6 136.29,168.88 136.06,169.19 C 136.13,169.58 136.21,169.96 136.28,170.34 C 136.29,170.42 136.3,170.52 136.31,170.59 C 136.63,170.2 136.93,169.79 137.22,169.38 C 137.24,169.43 137.26,169.48 137.28,169.53 C 137.91,171.4 138.81,173.09 139.78,174.41 C 140.91,172.75 141.91,170.82 142.59,168.78 C 143.84,170.31 145.31,171.52 146.75,172.41 C 147.32,170.64 147.72,168.63 147.75,166.63 C 149.48,167.61 151.35,168.29 153.06,168.69 C 153.08,166.95 152.81,165.05 152.19,163.25 C 154.24,163.67 156.35,163.81 158.19,163.75 C 157.66,162.21 156.77,160.61 155.53,159.16 C 157.73,159.03 159.86,158.63 161.66,158.16 C 160.61,156.9 159.15,155.63 157.38,154.59 C 158.83,154.15 160.2,153.59 161.44,153.0 C 161.31,152.98 161.19,152.95 161.06,152.91 C 160.86,152.84 160.67,152.75 160.5,152.63 C 160.43,152.58 160.38,152.52 160.31,152.47 C 159.7,152.74 159.07,153.01 158.41,153.25 C 158.41,153.25 158.38,153.25 158.38,153.25 C 158.0,153.14 157.74,152.97 157.56,152.81 C 157.48,152.73 157.41,152.65 157.38,152.56 C 157.34,152.48 157.33,152.39 157.34,152.31 C 157.36,152.23 157.41,152.15 157.47,152.06 C 157.53,151.98 157.61,151.9 157.72,151.81 C 157.97,151.63 158.34,151.47 158.81,151.34 C 159.07,151.43 159.34,151.53 159.59,151.63 C 159.41,151.31 159.27,150.97 159.16,150.63 C 158.93,150.87 158.68,151.09 158.41,151.28 C 158.2,151.43 157.98,151.58 157.75,151.69 C 157.53,151.78 157.33,151.83 157.09,151.88 C 156.88,151.91 156.65,151.92 156.44,151.91 C 156.31,151.9 156.21,151.88 156.09,151.84 C 156.05,151.89 156.0,151.95 155.97,152.0 C 155.89,152.12 155.83,152.23 155.81,152.34 C 155.79,152.46 155.8,152.6 155.84,152.72 C 155.89,152.84 155.97,152.95 156.09,153.06 C 156.32,153.28 156.71,153.5 157.19,153.66 C 156.93,153.74 156.67,153.8 156.41,153.88 C 156.32,153.9 156.24,153.92 156.16,153.94 C 154.8,153.28 153.27,152.75 151.66,152.47 C 152.83,152.14 153.96,151.73 155.03,151.22 C 154.97,151.15 154.93,151.07 154.88,151.0 C 154.74,150.81 154.62,150.59 154.53,150.38 C 154.48,150.25 154.44,150.13 154.41,150.0 C 153.9,149.93 153.46,149.81 153.13,149.66 C 152.89,149.55 152.7,149.42 152.56,149.28 C 152.53,149.25 152.53,149.22 152.5,149.19 C 152.42,149.19 152.3,149.19 152.22,149.19 C 152.05,149.18 151.89,149.16 151.72,149.13 C 151.46,149.07 151.22,148.99 151.0,148.84 C 150.92,148.79 150.85,148.75 150.78,148.69 C 150.78,148.71 150.75,148.73 150.75,148.75 C 150.73,148.94 150.79,149.12 150.84,149.28 C 150.91,149.46 150.98,149.63 151.13,149.78 C 151.27,149.93 151.47,150.06 151.72,150.19 C 152.21,150.43 152.92,150.61 153.78,150.69 C 152.85,151.09 151.85,151.42 150.84,151.66 C 150.79,151.17 150.7,150.66 150.56,150.19 C 150.44,149.79 150.3,149.41 150.13,149.03 C 149.99,148.75 149.82,148.46 149.66,148.19 z M 148.47,148.56 C 148.35,148.6 148.22,148.65 148.09,148.69 C 147.66,148.84 147.23,149.0 146.81,149.19 C 146.41,149.37 146.02,149.54 145.63,149.75 C 145.27,150.15 144.89,150.67 144.47,151.31 C 145.71,151.7 146.59,151.85 147.31,151.84 C 147.66,151.84 147.98,151.78 148.34,151.63 C 148.57,151.53 148.81,151.39 149.0,151.19 C 149.19,150.98 149.33,150.73 149.28,150.5 C 149.25,150.34 149.12,150.19 148.97,150.09 C 148.74,149.96 148.44,149.93 148.16,149.97 C 148.41,149.82 148.62,149.6 148.72,149.34 C 148.79,149.17 148.82,148.96 148.75,148.81 C 148.7,148.7 148.59,148.63 148.47,148.56 z M 142.97,151.38 C 142.84,151.46 142.69,151.56 142.56,151.66 C 142.2,151.91 141.87,152.16 141.53,152.44 C 141.54,152.47 141.55,152.5 141.56,152.53 C 141.6,152.62 141.61,152.71 141.63,152.81 C 141.64,152.91 141.66,153.02 141.66,153.13 C 141.64,153.34 141.58,153.55 141.47,153.75 C 141.36,153.95 141.21,154.13 141.03,154.28 C 140.94,154.36 140.85,154.44 140.75,154.5 C 140.65,154.56 140.54,154.59 140.44,154.63 C 140.34,154.66 140.23,154.7 140.13,154.72 C 140.02,154.74 139.9,154.75 139.78,154.75 C 139.58,154.75 139.38,154.72 139.19,154.66 C 139.11,154.75 139.04,154.84 138.97,154.94 C 138.72,155.24 138.47,155.58 138.25,155.91 C 138.21,155.97 138.16,156.03 138.13,156.09 C 138.23,156.14 138.33,156.18 138.44,156.22 C 138.55,156.26 138.67,156.29 138.78,156.31 C 138.92,156.35 139.08,156.36 139.22,156.38 C 139.36,156.39 139.51,156.41 139.66,156.41 C 139.81,156.41 139.94,156.39 140.09,156.38 C 140.17,156.37 140.27,156.36 140.34,156.34 C 140.45,156.32 140.55,156.31 140.66,156.28 C 140.97,156.2 141.27,156.07 141.56,155.91 C 141.85,155.75 142.14,155.54 142.38,155.31 C 142.49,155.2 142.59,155.09 142.69,154.97 C 142.76,154.88 142.84,154.78 142.91,154.69 C 142.99,154.56 143.06,154.42 143.13,154.28 C 143.19,154.15 143.24,154.04 143.28,153.91 C 143.3,153.84 143.33,153.75 143.34,153.69 C 143.36,153.62 143.36,153.57 143.38,153.5 C 143.4,153.36 143.43,153.23 143.44,153.09 C 143.44,152.95 143.42,152.8 143.41,152.66 C 143.39,152.46 143.37,152.28 143.31,152.09 C 143.23,151.84 143.11,151.6 142.97,151.38 z M 163.69,152.63 C 163.68,152.59 163.67,152.64 163.66,152.66 C 163.58,152.73 163.49,152.81 163.41,152.88 C 163.05,153.14 162.69,153.29 162.25,153.38 C 162.23,153.38 162.2,153.38 162.19,153.41 C 162.17,153.42 162.17,153.45 162.16,153.47 C 162.13,153.5 162.1,153.53 162.06,153.56 C 161.99,153.63 161.9,153.67 161.81,153.72 C 161.32,153.97 160.79,154.17 160.28,154.38 C 160.01,154.49 159.74,154.58 159.47,154.69 C 159.4,154.71 159.35,154.76 159.28,154.78 C 159.25,154.79 159.19,154.8 159.16,154.81 C 159.13,154.82 159.18,154.84 159.19,154.84 C 159.2,154.85 159.2,154.87 159.22,154.88 C 159.33,154.95 159.45,155.04 159.56,155.13 C 159.98,155.44 160.39,155.77 160.78,156.13 C 161.08,156.4 161.38,156.67 161.66,156.97 C 161.89,157.22 162.11,157.47 162.31,157.75 C 162.47,157.96 162.62,158.26 162.47,158.53 C 162.4,158.66 162.31,158.71 162.19,158.78 C 161.95,158.91 161.69,158.97 161.44,159.03 C 160.57,159.25 159.7,159.42 158.81,159.56 C 158.34,159.64 157.88,159.72 157.41,159.78 C 157.29,159.8 157.15,159.8 157.03,159.81 C 157.01,159.81 157.06,159.84 157.06,159.84 C 157.07,159.85 157.06,159.86 157.06,159.88 C 157.08,159.9 157.11,159.92 157.13,159.94 C 157.15,159.98 157.19,160.02 157.22,160.06 C 157.33,160.24 157.45,160.42 157.56,160.59 C 157.98,161.28 158.32,161.97 158.63,162.72 C 158.75,163.02 158.89,163.34 158.97,163.66 C 159.01,163.81 159.01,163.94 158.97,164.09 C 158.88,164.4 158.58,164.51 158.31,164.53 C 158.01,164.56 157.71,164.53 157.41,164.53 C 157.04,164.53 156.68,164.54 156.31,164.53 C 155.55,164.5 154.82,164.43 154.06,164.34 C 153.87,164.32 153.66,164.31 153.47,164.28 C 153.42,164.27 153.36,164.26 153.31,164.25 C 153.28,164.24 153.31,164.29 153.31,164.31 C 153.32,164.33 153.34,164.35 153.34,164.38 C 153.37,164.46 153.39,164.54 153.41,164.63 C 153.49,164.97 153.54,165.34 153.59,165.69 C 153.71,166.37 153.78,167.05 153.81,167.75 C 153.83,168.07 153.85,168.4 153.84,168.72 C 153.84,168.86 153.8,168.99 153.75,169.13 C 153.66,169.36 153.49,169.46 153.25,169.47 C 153.07,169.48 152.89,169.45 152.72,169.41 C 152.39,169.33 152.05,169.22 151.72,169.13 C 151.03,168.92 150.35,168.71 149.69,168.44 C 149.35,168.3 149.02,168.15 148.69,168.0 C 148.65,167.98 148.6,167.96 148.56,167.94 C 148.54,167.92 148.47,167.85 148.47,167.91 C 148.46,168.0 148.45,168.09 148.44,168.19 C 148.42,168.37 148.4,168.57 148.38,168.75 C 148.28,169.48 148.17,170.19 148.0,170.91 C 147.92,171.25 147.82,171.6 147.72,171.94 C 147.64,172.22 147.58,172.51 147.47,172.78 C 147.39,172.99 147.25,173.2 147.0,173.25 C 146.69,173.31 146.41,173.11 146.19,172.97 C 145.63,172.61 145.08,172.23 144.56,171.81 C 144.01,171.37 143.49,170.91 143.0,170.41 C 142.97,170.37 142.94,170.34 142.91,170.31 C 142.89,170.3 142.89,170.25 142.88,170.28 C 142.87,170.3 142.85,170.32 142.84,170.34 C 142.81,170.44 142.76,170.53 142.72,170.63 C 142.64,170.81 142.58,170.98 142.5,171.16 C 142.34,171.51 142.15,171.87 141.97,172.22 C 141.52,173.08 141.04,173.91 140.5,174.72 C 140.33,174.97 140.1,175.32 139.72,175.28 C 139.56,175.26 139.46,175.19 139.34,175.09 C 139.12,174.9 138.97,174.67 138.81,174.44 C 138.32,173.71 137.88,172.95 137.5,172.16 C 137.4,171.95 137.31,171.74 137.22,171.53 C 137.17,171.42 137.14,171.33 137.09,171.22 C 137.07,171.16 137.05,171.12 137.03,171.06 C 137.02,171.04 137.0,170.97 136.97,171.0 C 136.95,171.02 136.96,171.04 136.94,171.06 C 136.83,171.2 136.68,171.32 136.53,171.41 C 136.52,171.41 136.46,171.41 136.47,171.44 C 136.48,171.48 136.49,171.55 136.5,171.59 C 136.52,171.68 136.51,171.76 136.53,171.84 C 136.57,172.02 136.62,172.2 136.66,172.38 C 136.74,172.73 136.83,173.09 136.91,173.44 C 136.92,173.48 136.93,173.52 136.94,173.56 C 136.96,173.66 137.01,173.73 137.06,173.81 C 137.18,174.01 137.32,174.24 137.44,174.44 C 137.67,174.82 137.92,175.17 138.19,175.53 C 139.04,175.68 139.89,175.73 140.75,175.78 C 140.86,175.79 140.99,175.81 141.09,175.81 C 141.11,175.81 141.11,175.81 141.13,175.81 C 141.14,175.81 141.14,175.83 141.16,175.81 C 141.17,175.79 141.2,175.77 141.22,175.75 C 141.25,175.7 141.28,175.64 141.31,175.59 C 141.63,175.15 141.91,174.71 142.19,174.25 C 142.5,173.72 142.82,173.17 143.09,172.63 C 143.13,172.56 143.15,172.48 143.19,172.41 C 143.2,172.37 143.23,172.35 143.25,172.31 C 143.26,172.3 143.28,172.29 143.28,172.28 C 143.29,172.29 143.31,172.28 143.31,172.28 C 143.42,172.37 143.52,172.47 143.63,172.56 C 143.84,172.74 144.06,172.9 144.28,173.06 C 144.71,173.38 145.14,173.69 145.59,173.97 C 145.81,174.11 146.04,174.24 146.28,174.34 C 146.62,174.49 146.93,174.57 147.31,174.5 C 147.66,174.43 147.88,174.27 148.09,174.0 C 148.43,173.59 148.57,173.14 148.72,172.66 C 148.99,171.77 149.21,170.85 149.38,169.94 C 149.4,169.82 149.42,169.71 149.44,169.59 C 149.44,169.57 149.46,169.59 149.47,169.59 C 149.48,169.6 149.49,169.62 149.5,169.63 C 149.53,169.64 149.57,169.65 149.59,169.66 C 149.65,169.68 149.7,169.7 149.75,169.72 C 149.96,169.8 150.19,169.86 150.41,169.94 C 150.83,170.08 151.26,170.22 151.69,170.34 C 152.22,170.49 152.72,170.66 153.28,170.69 C 153.58,170.7 153.85,170.69 154.13,170.56 C 154.69,170.31 154.9,169.76 154.97,169.22 C 155.0,169.01 155.0,168.77 155.0,168.56 C 155.0,168.13 155.0,167.71 154.97,167.28 C 154.94,166.84 154.9,166.41 154.84,165.97 C 154.83,165.86 154.8,165.74 154.78,165.63 C 154.78,165.59 154.83,165.62 154.84,165.63 C 154.87,165.63 154.91,165.62 154.94,165.63 C 155.0,165.63 155.07,165.62 155.13,165.63 C 155.36,165.64 155.58,165.68 155.81,165.69 C 156.33,165.71 156.86,165.72 157.38,165.72 C 157.76,165.72 158.12,165.72 158.5,165.69 C 158.86,165.66 159.2,165.59 159.53,165.41 C 159.56,165.39 159.71,165.33 159.72,165.28 C 159.74,165.19 159.76,165.06 159.78,164.97 C 159.83,164.78 159.88,164.59 159.94,164.41 C 159.99,164.22 160.06,164.03 160.13,163.84 C 160.14,163.8 160.14,163.76 160.16,163.72 C 160.17,163.67 160.17,163.61 160.16,163.56 C 160.13,163.46 160.12,163.38 160.09,163.28 C 159.85,162.48 159.42,161.58 159.03,160.84 C 159.02,160.82 159.01,160.81 159.0,160.78 C 158.99,160.77 158.98,160.73 158.97,160.72 C 158.96,160.71 158.99,160.72 159.0,160.72 C 159.01,160.72 159.02,160.72 159.03,160.72 C 159.1,160.71 159.15,160.7 159.22,160.69 C 159.35,160.66 159.49,160.65 159.63,160.63 C 159.89,160.58 160.15,160.52 160.41,160.47 C 160.9,160.36 161.41,160.25 161.91,160.13 C 161.97,160.11 162.0,160.08 162.06,160.06 C 162.1,160.05 162.16,160.05 162.19,160.0 C 162.21,159.96 162.2,159.92 162.22,159.88 C 162.26,159.79 162.31,159.69 162.34,159.59 C 162.41,159.41 162.48,159.22 162.53,159.03 C 162.64,158.65 162.74,158.28 162.84,157.91 C 162.9,157.7 162.97,157.52 163.03,157.31 C 163.06,157.21 163.09,157.1 163.13,157.0 C 163.13,156.97 163.12,156.93 163.13,156.91 C 163.13,156.88 163.08,156.8 163.06,156.78 C 162.98,156.68 162.9,156.59 162.81,156.5 C 162.46,156.1 162.08,155.74 161.69,155.38 C 161.64,155.33 161.58,155.3 161.53,155.25 C 161.51,155.23 161.49,155.18 161.47,155.16 C 161.45,155.14 161.49,155.13 161.5,155.13 C 161.52,155.12 161.51,155.13 161.53,155.13 C 161.66,155.07 161.8,155.0 161.94,154.94 C 162.11,154.86 162.27,154.78 162.44,154.69 C 163.01,154.38 163.55,153.91 163.69,153.22 C 163.71,153.08 163.73,152.92 163.72,152.78 C 163.72,152.75 163.72,152.72 163.72,152.69 C 163.72,152.67 163.69,152.64 163.69,152.63 z M 147.47,153.31 C 146.72,153.38 145.83,153.63 144.63,154.16 C 145.45,155.17 146.08,155.77 146.69,156.16 C 146.98,156.35 147.3,156.49 147.69,156.56 C 147.93,156.61 148.2,156.63 148.47,156.56 C 148.74,156.49 149.0,156.34 149.09,156.13 C 149.16,155.97 149.11,155.79 149.03,155.63 C 148.92,155.38 148.7,155.18 148.44,155.06 C 148.73,155.07 149.02,155.0 149.25,154.84 C 149.4,154.74 149.54,154.6 149.56,154.44 C 149.6,154.21 149.42,153.93 149.22,153.75 C 149.02,153.57 148.77,153.48 148.53,153.41 C 148.15,153.29 147.83,153.28 147.47,153.31 z M 150.88,153.38 C 151.85,153.5 152.79,153.73 153.69,154.03 C 152.91,154.16 152.27,154.37 151.81,154.63 C 151.58,154.75 151.4,154.88 151.25,155.03 C 151.1,155.18 150.98,155.34 150.91,155.5 C 150.83,155.67 150.8,155.86 150.81,156.06 C 150.82,156.26 150.87,156.47 150.97,156.69 C 151.17,157.13 151.59,157.62 152.19,158.09 C 151.22,157.99 150.29,157.81 149.38,157.53 C 149.49,157.35 149.58,157.16 149.69,156.97 C 149.95,156.51 150.16,156.06 150.34,155.56 C 150.51,155.11 150.66,154.63 150.75,154.16 C 150.8,153.9 150.85,153.63 150.88,153.38 z M 155.03,154.56 C 155.41,154.73 155.8,154.93 156.16,155.13 C 156.48,155.3 156.79,155.47 157.09,155.66 C 156.52,155.69 156.04,155.79 155.69,155.94 C 155.51,156.01 155.36,156.1 155.25,156.19 C 155.14,156.28 155.08,156.39 155.03,156.5 C 154.98,156.61 154.95,156.72 154.97,156.84 C 154.98,156.97 155.04,157.11 155.13,157.25 C 155.3,157.54 155.6,157.84 156.06,158.13 C 155.67,158.15 155.3,158.18 154.91,158.19 C 154.49,158.2 154.07,158.2 153.66,158.19 C 153.06,157.77 152.65,157.34 152.44,156.94 C 152.33,156.73 152.26,156.52 152.25,156.34 C 152.24,156.16 152.28,156.0 152.34,155.84 C 152.41,155.69 152.51,155.57 152.66,155.44 C 152.8,155.3 152.96,155.18 153.19,155.06 C 153.64,154.84 154.27,154.65 155.03,154.56 z M 163.78,154.63 C 163.71,154.71 163.64,154.8 163.56,154.88 C 163.34,155.07 163.08,155.23 162.81,155.38 C 163.02,155.58 163.21,155.81 163.41,156.03 C 163.41,156.02 163.43,156.01 163.44,156.0 C 163.53,155.68 163.61,155.35 163.69,155.03 C 163.72,154.9 163.75,154.76 163.78,154.63 z M 158.03,156.28 C 158.63,156.71 159.2,157.19 159.69,157.66 C 158.93,157.81 158.13,157.94 157.31,158.03 C 157.31,158.03 157.29,158.0 157.28,158.0 C 156.95,157.8 156.72,157.61 156.59,157.41 C 156.53,157.31 156.48,157.18 156.47,157.09 C 156.46,157.0 156.5,156.95 156.53,156.88 C 156.57,156.8 156.61,156.72 156.69,156.66 C 156.77,156.59 156.87,156.52 157.0,156.47 C 157.26,156.37 157.61,156.3 158.03,156.28 z M 142.84,156.56 C 142.79,157.86 142.88,158.72 143.09,159.38 C 143.2,159.69 143.34,159.98 143.59,160.25 C 143.75,160.41 143.94,160.58 144.19,160.66 C 144.44,160.74 144.76,160.71 144.97,160.56 C 145.12,160.46 145.23,160.31 145.28,160.13 C 145.35,159.86 145.28,159.55 145.16,159.31 C 145.37,159.47 145.66,159.59 145.94,159.56 C 146.12,159.55 146.31,159.47 146.44,159.34 C 146.62,159.16 146.66,158.86 146.63,158.59 C 146.59,158.33 146.48,158.09 146.34,157.91 C 146.12,157.61 145.86,157.44 145.56,157.28 C 144.95,156.96 144.13,156.73 142.84,156.56 z M 139.91,157.66 C 139.06,158.74 138.59,159.56 138.34,160.25 C 138.22,160.58 138.16,160.88 138.19,161.25 C 138.2,161.48 138.24,161.74 138.38,161.94 C 138.52,162.14 138.75,162.29 139.0,162.28 C 139.18,162.27 139.38,162.2 139.53,162.06 C 139.75,161.86 139.88,161.56 139.94,161.28 C 140.0,161.54 140.15,161.78 140.38,161.91 C 140.53,161.99 140.73,162.02 140.91,161.97 C 141.16,161.9 141.36,161.69 141.5,161.44 C 141.63,161.19 141.68,160.95 141.69,160.72 C 141.7,160.35 141.63,160.04 141.5,159.75 C 141.24,159.15 140.78,158.51 139.91,157.66 z M 137.09,157.88 C 137.08,157.9 137.05,157.94 137.03,157.97 C 136.94,158.14 136.84,158.3 136.75,158.47 C 136.57,158.81 136.4,159.15 136.25,159.5 C 136.18,159.65 136.12,159.81 136.06,159.97 C 136.01,160.12 135.95,160.28 135.91,160.44 C 135.88,160.54 135.87,160.62 135.84,160.72 C 135.88,160.71 135.9,160.7 135.94,160.69 C 136.19,160.58 136.38,160.39 136.53,160.22 C 136.77,159.94 136.89,159.68 136.97,159.38 C 137.07,158.97 137.12,158.48 137.09,157.88 z M 149.34,158.63 C 150.87,159.02 152.47,159.18 154.06,159.19 C 154.12,159.24 154.17,159.29 154.22,159.34 C 154.37,159.51 154.51,159.67 154.66,159.84 C 154.15,159.75 153.7,159.76 153.34,159.84 C 153.16,159.89 153.0,159.96 152.88,160.03 C 152.75,160.11 152.67,160.21 152.59,160.31 C 152.51,160.42 152.44,160.51 152.41,160.66 C 152.37,160.8 152.38,160.98 152.41,161.16 C 152.46,161.51 152.64,161.92 152.94,162.34 C 152.61,162.28 152.29,162.2 151.97,162.13 C 151.89,162.11 151.8,162.11 151.72,162.09 C 151.15,160.85 150.37,159.66 149.34,158.63 z M 148.19,159.06 C 148.81,159.64 149.33,160.28 149.78,160.97 C 149.11,160.7 148.49,160.59 147.97,160.59 C 147.71,160.59 147.49,160.63 147.28,160.69 C 147.07,160.75 146.88,160.83 146.72,160.94 C 146.55,161.06 146.41,161.19 146.28,161.38 C 146.15,161.56 146.04,161.78 145.97,162.03 C 145.83,162.54 145.8,163.2 145.94,163.94 C 145.29,163.35 144.71,162.71 144.22,162.0 C 144.43,161.9 144.64,161.77 144.84,161.66 C 145.64,161.22 146.38,160.71 147.06,160.13 C 147.45,159.79 147.84,159.44 148.19,159.06 z M 154.78,160.69 C 154.96,160.7 155.17,160.73 155.38,160.78 C 155.83,161.42 156.21,162.09 156.53,162.75 C 155.72,162.72 154.9,162.65 154.06,162.53 C 154.05,162.52 154.04,162.51 154.03,162.5 C 153.81,162.2 153.67,161.91 153.63,161.66 C 153.6,161.53 153.6,161.41 153.63,161.31 C 153.65,161.21 153.69,161.11 153.75,161.03 C 153.81,160.96 153.88,160.9 153.97,160.84 C 154.06,160.79 154.18,160.75 154.31,160.72 C 154.46,160.69 154.6,160.68 154.78,160.69 z M 161.63,160.97 C 161.5,161.0 161.38,161.03 161.25,161.06 C 160.88,161.15 160.5,161.24 160.13,161.31 C 160.32,161.72 160.5,162.14 160.66,162.56 C 160.77,162.34 160.9,162.12 161.03,161.91 C 161.22,161.6 161.43,161.27 161.63,160.97 z M 148.38,161.66 C 148.49,161.65 148.63,161.65 148.75,161.66 C 149.24,161.68 149.84,161.83 150.47,162.13 C 150.64,162.46 150.8,162.81 150.94,163.16 C 151.06,163.47 151.15,163.8 151.25,164.13 C 150.79,163.88 150.37,163.72 150.0,163.69 C 149.82,163.67 149.64,163.69 149.5,163.72 C 149.36,163.75 149.23,163.8 149.13,163.88 C 149.01,163.95 148.92,164.06 148.84,164.19 C 148.77,164.31 148.72,164.45 148.69,164.63 C 148.63,164.98 148.66,165.44 148.81,165.94 C 148.5,165.77 148.21,165.6 147.91,165.41 C 147.59,165.21 147.27,164.97 146.97,164.75 C 146.81,164.06 146.79,163.45 146.91,162.97 C 146.96,162.73 147.04,162.55 147.16,162.38 C 147.27,162.2 147.41,162.05 147.56,161.94 C 147.71,161.84 147.87,161.77 148.06,161.72 C 148.16,161.69 148.26,161.67 148.38,161.66 z M 142.31,162.72 C 142.4,163.57 142.38,164.47 142.28,165.34 C 141.96,164.73 141.57,164.28 141.19,164.0 C 140.99,163.86 140.82,163.75 140.63,163.69 C 140.43,163.63 140.25,163.58 140.06,163.59 C 139.86,163.6 139.65,163.66 139.44,163.75 C 139.23,163.84 138.99,164.0 138.78,164.19 C 138.36,164.56 137.96,165.13 137.59,165.88 C 137.48,164.97 137.45,164.04 137.53,163.13 C 137.72,163.15 137.93,163.17 138.13,163.19 C 138.41,163.21 138.69,163.22 138.97,163.22 C 139.17,163.22 139.36,163.2 139.56,163.19 C 139.79,163.18 139.99,163.18 140.22,163.16 C 140.53,163.12 140.85,163.06 141.16,163.0 C 141.55,162.92 141.93,162.83 142.31,162.72 z M 143.47,162.94 C 144.34,164.12 145.44,165.09 146.63,165.91 C 146.63,165.99 146.62,166.08 146.63,166.16 C 146.64,166.55 146.65,166.94 146.63,167.34 C 146.26,166.94 145.88,166.66 145.53,166.5 C 145.36,166.42 145.21,166.39 145.06,166.38 C 144.92,166.36 144.78,166.37 144.66,166.41 C 144.53,166.44 144.39,166.5 144.28,166.59 C 144.17,166.69 144.09,166.81 144.0,166.97 C 143.83,167.28 143.71,167.72 143.69,168.25 C 143.5,168.03 143.33,167.83 143.16,167.59 C 143.11,167.53 143.04,167.47 143.0,167.41 C 143.38,165.93 143.56,164.41 143.47,162.94 z M 150.63,164.81 C 150.89,164.84 151.2,164.97 151.53,165.16 C 151.69,165.85 151.81,166.56 151.88,167.25 C 151.19,167.03 150.49,166.75 149.81,166.44 C 149.81,166.43 149.81,166.41 149.81,166.41 C 149.7,166.05 149.68,165.75 149.72,165.5 C 149.74,165.37 149.76,165.24 149.81,165.16 C 149.86,165.07 149.92,164.99 150.0,164.94 C 150.08,164.88 150.18,164.87 150.28,164.84 C 150.38,164.82 150.49,164.8 150.63,164.81 z M 140.03,165.0 C 140.21,164.99 140.35,165.0 140.53,165.06 C 140.71,165.13 140.92,165.23 141.09,165.38 C 141.45,165.67 141.78,166.13 142.06,166.75 C 141.97,167.16 141.84,167.56 141.72,167.97 C 141.61,168.33 141.51,168.7 141.38,169.06 C 141.2,168.57 140.97,168.17 140.72,167.94 C 140.6,167.82 140.47,167.74 140.34,167.69 C 140.22,167.64 140.09,167.62 139.97,167.63 C 139.84,167.63 139.7,167.68 139.56,167.75 C 139.43,167.82 139.29,167.92 139.16,168.06 C 138.89,168.35 138.64,168.82 138.44,169.38 C 138.32,169.04 138.2,168.66 138.09,168.31 C 137.99,167.94 137.89,167.6 137.81,167.22 C 138.13,166.5 138.49,165.93 138.88,165.56 C 139.07,165.38 139.28,165.25 139.47,165.16 C 139.66,165.06 139.85,165.01 140.03,165.0 z M 155.72,166.44 C 155.71,166.44 155.68,166.44 155.69,166.47 C 155.69,166.48 155.69,166.48 155.69,166.5 C 155.7,166.62 155.71,166.75 155.72,166.88 C 155.76,167.37 155.78,167.85 155.78,168.34 C 155.78,168.49 155.78,168.64 155.78,168.78 C 155.78,168.79 155.78,168.8 155.78,168.81 C 155.79,168.81 155.81,168.82 155.81,168.81 C 155.83,168.79 155.85,168.77 155.88,168.75 C 155.92,168.71 155.99,168.69 156.03,168.66 C 156.22,168.52 156.39,168.39 156.59,168.28 C 157.47,167.81 158.48,167.6 159.47,167.69 C 159.47,167.44 159.49,167.19 159.5,166.94 C 159.51,166.81 159.49,166.69 159.5,166.56 C 159.5,166.53 159.53,166.5 159.53,166.47 C 159.53,166.45 159.48,166.44 159.47,166.44 C 159.45,166.44 159.45,166.44 159.44,166.44 C 159.38,166.43 159.34,166.44 159.28,166.44 C 158.78,166.42 158.27,166.46 157.78,166.56 C 157.29,166.66 156.83,166.79 156.38,167.0 C 156.35,167.01 156.31,167.05 156.28,167.06 C 156.26,167.07 156.25,167.1 156.22,167.06 C 156.18,167.01 156.16,166.96 156.13,166.91 C 156.05,166.81 155.97,166.7 155.91,166.59 C 155.89,166.57 155.89,166.56 155.88,166.53 C 155.86,166.51 155.86,166.47 155.81,166.47 C 155.78,166.47 155.75,166.44 155.72,166.44 z M 145.13,167.69 C 145.21,167.66 145.3,167.67 145.41,167.69 C 145.51,167.7 145.63,167.72 145.75,167.78 C 146.0,167.9 146.28,168.11 146.53,168.41 C 146.45,169.15 146.32,169.89 146.16,170.59 C 145.58,170.15 145.01,169.67 144.47,169.13 C 144.47,169.1 144.47,169.06 144.47,169.03 C 144.48,168.66 144.54,168.32 144.66,168.09 C 144.72,167.98 144.8,167.91 144.88,167.84 C 144.95,167.78 145.03,167.71 145.13,167.69 z M 158.56,168.19 C 158.32,168.19 158.13,168.38 158.13,168.63 C 158.13,168.87 158.32,169.06 158.56,169.06 C 158.81,169.06 159.0,168.87 159.0,168.63 C 159.0,168.38 158.81,168.19 158.56,168.19 z M 156.88,168.84 C 156.86,168.84 156.88,168.87 156.88,168.88 C 156.87,168.89 156.88,168.9 156.88,168.91 C 156.87,168.93 156.85,168.95 156.84,168.97 C 156.84,169.01 156.85,169.05 156.84,169.09 C 156.83,169.18 156.82,169.26 156.81,169.34 C 156.79,169.69 156.82,170.0 156.91,170.34 C 156.99,170.68 157.09,170.99 157.28,171.28 C 157.3,171.32 157.35,171.37 157.38,171.41 C 157.41,171.45 157.31,171.39 157.28,171.38 C 157.2,171.35 157.11,171.34 157.03,171.31 C 156.87,171.27 156.7,171.21 156.53,171.19 C 156.18,171.15 155.87,171.18 155.53,171.25 C 155.36,171.28 155.19,171.32 155.03,171.38 C 154.95,171.4 154.89,171.43 154.81,171.47 C 154.8,171.47 154.79,171.5 154.78,171.5 C 154.77,171.5 154.74,171.49 154.75,171.5 C 154.76,171.52 154.77,171.55 154.78,171.56 C 154.8,171.6 154.85,171.62 154.88,171.66 C 155.27,172.22 155.82,172.63 156.47,172.84 C 156.55,172.87 156.64,172.89 156.72,172.91 C 156.76,172.92 156.8,172.93 156.84,172.94 C 156.86,172.94 156.89,172.96 156.91,172.97 C 156.75,173.04 156.58,173.13 156.44,173.22 C 156.14,173.41 155.91,173.63 155.69,173.91 C 155.47,174.18 155.31,174.46 155.19,174.78 C 155.18,174.8 155.16,174.82 155.16,174.84 C 155.15,174.86 155.13,174.87 155.16,174.88 C 155.2,174.88 155.24,174.9 155.28,174.91 C 155.36,174.92 155.45,174.93 155.53,174.94 C 155.7,174.96 155.86,174.98 156.03,174.97 C 156.42,174.95 156.8,174.85 157.16,174.69 C 157.33,174.61 157.5,174.51 157.66,174.41 C 157.68,174.39 157.67,174.39 157.69,174.38 C 157.71,174.36 157.69,174.42 157.69,174.44 C 157.67,174.48 157.67,174.52 157.66,174.56 C 157.63,174.65 157.58,174.75 157.56,174.84 C 157.52,175.03 157.48,175.21 157.47,175.41 C 157.46,175.5 157.47,175.59 157.47,175.69 C 157.47,175.74 157.46,175.76 157.47,175.81 L 157.5,175.91 C 157.5,175.93 157.48,175.93 157.5,175.94 C 157.72,176.0 157.96,176.01 158.19,175.97 C 158.33,175.95 158.46,175.9 158.59,175.84 C 158.66,175.82 158.71,175.8 158.78,175.78 C 158.82,175.77 158.87,175.76 158.91,175.75 C 158.92,175.75 158.92,175.72 158.94,175.72 C 158.97,175.71 158.99,175.68 159.0,175.66 C 159.11,175.44 159.16,175.24 159.22,175.0 C 159.23,174.97 159.24,174.94 159.25,174.91 C 159.25,174.88 159.26,174.8 159.28,174.84 C 159.3,174.9 159.32,174.95 159.34,175.0 C 159.4,175.11 159.47,175.21 159.53,175.31 C 159.53,175.31 159.56,175.32 159.56,175.31 C 159.57,175.3 159.58,175.3 159.59,175.28 C 159.61,175.25 159.6,175.22 159.63,175.19 C 159.67,175.13 159.72,175.07 159.78,175.03 C 159.9,174.95 160.05,174.89 160.19,174.84 C 160.46,174.74 160.74,174.7 161.03,174.69 C 160.95,174.48 160.85,174.28 160.72,174.09 C 160.73,174.1 160.77,174.09 160.78,174.09 C 160.83,174.11 160.88,174.11 160.94,174.13 C 161.04,174.16 161.14,174.2 161.25,174.22 C 161.48,174.26 161.71,174.29 161.94,174.28 C 161.97,174.28 162.0,174.28 162.03,174.28 C 162.05,174.28 162.05,174.28 162.06,174.28 C 162.08,174.28 162.07,174.26 162.06,174.25 C 162.05,174.22 162.05,174.19 162.03,174.16 C 162.0,174.1 161.97,174.03 161.94,173.97 C 161.66,173.5 161.3,173.11 160.91,172.75 C 160.66,172.52 160.41,172.29 160.13,172.09 C 159.8,171.87 159.7,171.63 159.69,171.25 C 159.67,170.57 159.58,169.9 159.53,169.22 L 159.53,169.13 C 159.53,169.11 159.53,169.11 159.53,169.09 C 159.53,169.08 159.51,169.09 159.5,169.09 C 159.44,169.16 159.4,169.24 159.34,169.31 C 159.24,169.46 159.17,169.59 159.09,169.75 C 159.02,169.91 158.93,170.08 158.88,170.25 C 158.85,170.33 158.83,170.42 158.81,170.5 C 158.81,170.53 158.79,170.56 158.78,170.59 C 158.77,170.57 158.76,170.54 158.75,170.53 C 158.46,169.89 157.96,169.36 157.34,169.03 C 157.19,168.95 157.03,168.9 156.88,168.84 z M 139.94,169.13 C 140.03,169.12 140.1,169.15 140.19,169.19 C 140.28,169.23 140.38,169.29 140.47,169.38 C 140.64,169.55 140.79,169.82 140.91,170.19 C 140.58,170.93 140.24,171.65 139.84,172.34 C 139.49,171.74 139.14,171.1 138.84,170.41 C 138.85,170.4 138.87,170.41 138.88,170.41 C 139.02,170.01 139.19,169.68 139.38,169.47 C 139.47,169.36 139.56,169.27 139.66,169.22 C 139.75,169.17 139.85,169.13 139.94,169.13 z M 155.84,169.72 C 155.79,169.72 155.71,169.73 155.66,169.75 C 155.64,169.76 155.66,169.77 155.66,169.78 C 155.65,169.79 155.63,169.8 155.63,169.81 C 155.62,169.84 155.63,169.88 155.63,169.91 C 155.61,169.96 155.58,170.01 155.56,170.06 C 155.52,170.17 155.46,170.28 155.41,170.38 C 155.66,170.87 156.43,170.52 156.22,170.0 C 156.15,169.84 156.01,169.73 155.84,169.72 z M 150.75,170.88 C 150.69,170.86 150.64,170.89 150.59,170.91 C 150.51,170.95 150.45,171.0 150.38,171.06 C 150.01,171.4 149.98,171.97 150.31,172.34 C 150.65,172.71 151.22,172.76 151.59,172.44 C 151.97,172.11 152.01,171.54 151.69,171.16 C 151.46,171.09 151.23,171.04 151.0,170.97 C 150.91,170.94 150.84,170.9 150.75,170.88 z M 154.09,171.38 C 154.06,171.38 154.03,171.4 154.0,171.41 C 153.87,171.43 153.76,171.46 153.63,171.47 C 153.5,171.48 153.35,171.48 153.22,171.47 C 153.15,171.47 153.1,171.44 153.03,171.44 C 153.0,171.43 152.97,171.44 152.94,171.44 C 152.92,171.44 152.85,171.41 152.84,171.44 C 152.79,171.68 152.77,171.94 152.75,172.19 C 152.71,172.65 152.72,173.1 152.78,173.56 L 152.78,173.59 C 152.78,173.6 152.78,173.62 152.78,173.63 C 152.75,173.63 152.72,173.65 152.69,173.66 C 152.63,173.68 152.59,173.7 152.53,173.72 C 152.41,173.75 152.28,173.79 152.16,173.81 C 151.91,173.87 151.69,173.92 151.44,173.94 C 150.95,173.97 150.48,173.93 150.0,173.84 C 149.76,173.8 149.54,173.73 149.31,173.66 C 149.28,173.65 149.25,173.63 149.22,173.63 C 149.19,173.62 149.19,173.7 149.19,173.72 C 149.16,173.77 149.12,173.82 149.09,173.88 C 149.04,173.98 149.0,174.09 148.94,174.19 C 148.91,174.23 148.87,174.27 148.84,174.31 C 148.83,174.34 148.86,174.34 148.88,174.34 C 148.91,174.35 148.94,174.36 148.97,174.38 C 149.03,174.4 149.12,174.42 149.19,174.44 C 149.32,174.48 149.43,174.5 149.56,174.53 C 149.57,174.53 149.56,174.56 149.56,174.56 C 149.55,174.57 149.55,174.58 149.53,174.59 C 149.5,174.61 149.46,174.64 149.44,174.66 C 149.38,174.7 149.33,174.74 149.28,174.78 C 149.07,174.95 148.85,175.12 148.66,175.31 C 148.56,175.41 148.47,175.49 148.38,175.59 C 148.33,175.64 148.3,175.7 148.25,175.75 C 148.23,175.77 148.27,175.75 148.28,175.75 C 148.29,175.75 148.3,175.75 148.31,175.75 C 148.55,175.75 148.79,175.75 149.03,175.75 L 149.22,175.75 C 149.25,175.75 149.28,175.75 149.31,175.75 C 149.35,175.75 149.35,175.74 149.38,175.72 C 149.46,175.64 149.56,175.58 149.66,175.5 C 150.03,175.19 150.41,174.93 150.84,174.72 C 151.53,174.74 152.19,174.64 152.84,174.44 C 152.86,174.43 152.89,174.44 152.91,174.44 C 152.92,174.43 152.93,174.41 152.94,174.41 C 152.95,174.4 152.96,174.39 152.97,174.41 C 152.97,174.42 152.96,174.42 152.97,174.44 C 152.98,174.47 152.99,174.5 153.0,174.53 C 153.02,174.59 153.04,174.66 153.06,174.72 C 153.1,174.84 153.14,174.97 153.19,175.09 C 153.24,175.21 153.29,175.32 153.34,175.44 C 153.37,175.5 153.41,175.57 153.44,175.63 C 153.45,175.65 153.45,175.69 153.47,175.72 C 153.49,175.76 153.53,175.72 153.56,175.72 C 153.82,175.71 154.06,175.71 154.31,175.69 C 154.44,175.68 154.56,175.67 154.69,175.66 C 154.72,175.65 154.75,175.63 154.78,175.63 C 154.79,175.62 154.83,175.63 154.84,175.63 C 154.82,175.58 154.81,175.54 154.78,175.5 C 154.67,175.33 154.56,175.15 154.47,174.97 C 154.05,174.11 153.9,173.14 154.0,172.19 C 154.02,171.98 154.05,171.77 154.09,171.56 C 154.11,171.51 154.11,171.46 154.13,171.41 C 154.13,171.39 154.12,171.39 154.13,171.38 C 154.13,171.35 154.11,171.37 154.09,171.38 z M 159.06,171.75 C 159.19,171.76 159.32,171.79 159.44,171.84 C 159.55,171.9 159.66,171.97 159.75,172.06 C 159.84,172.16 159.9,172.29 159.94,172.41 C 159.98,172.53 160.01,172.65 160.0,172.78 C 159.99,172.91 159.96,173.04 159.91,173.16 C 159.85,173.27 159.78,173.35 159.69,173.44 C 159.59,173.52 159.46,173.58 159.34,173.63 C 159.22,173.67 159.1,173.69 158.97,173.69 C 158.84,173.68 158.74,173.65 158.63,173.59 C 158.51,173.54 158.4,173.47 158.31,173.38 C 158.23,173.28 158.17,173.18 158.13,173.06 C 158.08,172.94 158.06,172.81 158.06,172.69 C 158.07,172.56 158.1,172.43 158.16,172.31 C 158.21,172.2 158.28,172.09 158.38,172.0 C 158.47,171.91 158.57,171.86 158.69,171.81 C 158.81,171.77 158.94,171.74 159.06,171.75 z M 154.94,172.75 C 154.69,172.75 154.5,172.94 154.5,173.19 C 154.5,173.43 154.69,173.63 154.94,173.63 C 155.18,173.63 155.38,173.43 155.38,173.19 C 155.38,172.94 155.18,172.75 154.94,172.75 z M 143.53,173.47 C 143.3,173.89 143.06,174.31 142.81,174.72 C 142.58,175.1 142.34,175.48 142.09,175.84 C 142.34,175.85 142.57,175.87 142.81,175.88 C 143.03,175.88 143.25,175.88 143.47,175.88 C 143.58,175.7 143.7,175.53 143.81,175.34 C 143.84,175.3 143.85,175.23 143.88,175.19 C 144.1,175.34 144.36,175.51 144.59,175.66 C 144.7,175.72 144.79,175.78 144.91,175.84 C 145.24,175.83 145.6,175.82 145.94,175.81 C 146.41,175.8 146.84,175.79 147.31,175.78 C 147.33,175.78 147.36,175.78 147.38,175.78 C 147.41,175.61 147.49,175.43 147.66,175.25 C 147.66,175.24 147.68,175.23 147.69,175.22 C 147.52,175.27 147.33,175.3 147.16,175.31 C 146.95,175.32 146.74,175.29 146.53,175.25 C 146.32,175.2 146.13,175.15 145.94,175.06 C 145.83,175.02 145.73,174.96 145.63,174.91 C 145.52,174.85 145.41,174.78 145.31,174.72 C 145.0,174.53 144.71,174.34 144.41,174.13 C 144.11,173.91 143.82,173.7 143.53,173.47 z M 151.72,175.56 C 151.48,175.59 151.22,175.65 151.03,175.78 C 151.33,175.78 151.64,175.78 151.94,175.78 C 152.25,175.78 152.56,175.76 152.88,175.75 C 152.75,175.69 152.63,175.66 152.5,175.63 C 152.25,175.56 151.99,175.54 151.72,175.56 z"
		 />
		 
		<!-- Prism Reference -->
		<cam mingh:cam=" --verb EditSelectAll --verb ZoomSelection --verb FileSave "/> 
	 </g>

</svg>
