<svg
   xmlns:xlink="http://www.w3.org/1999/xlink"
   xmlns:svg="http://www.w3.org/2000/svg"
   xmlns="http://www.w3.org/2000/svg"
   xmlns:mingh="http://www.minghworld.com"
   width="300px"
   height="300px" >
	 <g>
		<!-- Paths -->
		<path transform="matrix(-1 0 0 1 300 0)" style="fill:#ff0;stroke:none;"
		 d="M 153.06,124.97 C 152.9,124.97 152.76,124.98 152.59,125.0 C 152.06,125.07 151.52,125.28 151.06,125.56 C 150.61,125.84 150.21,126.19 149.91,126.63 C 149.5,127.21 149.26,127.91 149.22,128.63 C 149.18,129.24 149.29,129.85 149.53,130.41 C 149.69,130.77 149.91,131.12 150.16,131.44 C 150.41,131.77 150.69,132.09 151.0,132.38 C 151.33,132.69 151.69,132.96 152.06,133.22 C 152.27,133.36 152.47,133.52 152.69,133.66 C 152.81,133.73 152.93,133.81 153.06,133.88 C 153.15,133.92 153.25,133.95 153.34,134.0 C 153.51,134.09 153.67,134.19 153.81,134.31 C 154.61,135.05 155.27,135.96 155.81,136.88 C 156.12,137.39 156.38,137.89 156.53,138.53 C 156.62,138.9 156.66,139.32 156.47,139.59 C 156.36,139.75 156.19,139.85 156.0,139.91 C 155.85,139.95 155.69,139.98 155.53,139.97 C 155.03,138.76 154.53,137.82 153.97,136.97 C 153.43,136.15 152.84,135.42 152.03,134.78 C 151.51,134.37 150.88,133.99 150.19,134.0 C 149.73,134.01 149.25,134.19 148.97,134.53 C 148.71,134.84 148.64,135.26 148.63,135.69 C 148.6,136.3 148.69,136.89 148.88,137.44 C 149.13,138.22 149.55,138.94 150.03,139.63 C 150.51,140.31 151.04,140.94 151.66,141.5 C 152.31,142.09 153.04,142.61 153.81,143.03 C 153.88,143.11 153.95,143.19 154.0,143.28 C 154.09,143.44 154.14,143.6 154.19,143.78 C 154.21,143.86 154.23,143.96 154.22,144.03 C 154.21,144.07 154.21,144.09 154.19,144.13 C 154.16,144.17 154.08,144.21 154.03,144.22 C 154.0,144.22 153.97,144.22 153.94,144.22 C 153.88,144.21 153.83,144.18 153.78,144.16 C 153.63,144.09 153.48,144.03 153.31,143.94 C 152.97,143.76 152.52,143.51 151.94,143.19 C 151.19,142.78 150.24,142.23 149.63,142.16 C 149.13,142.09 148.85,142.33 148.72,142.75 C 148.61,143.1 148.61,143.59 148.81,144.0 C 148.99,144.35 149.32,144.65 149.66,144.94 C 150.53,145.69 151.36,146.28 152.22,146.81 C 152.67,147.09 153.13,147.35 153.63,147.53 C 153.96,147.65 154.3,147.73 154.66,147.78 C 154.79,147.91 154.91,148.06 155.03,148.19 C 155.37,148.54 155.64,148.82 156.06,149.31 C 156.29,149.57 156.55,149.9 156.47,150.0 C 156.4,150.1 156.01,150.0 155.72,149.94 C 155.43,149.88 155.24,149.85 155.0,149.78 C 154.8,149.54 154.6,149.31 154.38,149.09 C 154.15,148.87 153.91,148.64 153.66,148.44 C 153.12,148.01 152.54,147.66 151.91,147.28 C 151.34,146.95 150.71,146.6 150.16,146.44 C 149.89,146.36 149.64,146.31 149.34,146.34 C 149.15,146.37 148.95,146.41 148.81,146.53 C 148.6,146.72 148.6,147.11 148.63,147.44 C 148.66,147.87 148.77,148.22 148.91,148.47 C 149.0,148.64 149.1,148.74 149.25,148.88 C 150.22,149.78 152.9,151.87 153.81,152.53 C 153.98,152.72 154.17,152.88 154.34,153.06 C 154.59,153.32 154.82,153.61 155.06,153.88 C 155.28,154.11 155.47,154.32 155.66,154.59 C 155.81,154.81 155.97,155.05 155.97,155.31 C 155.97,155.48 155.89,155.66 155.78,155.78 C 155.67,155.91 155.51,155.97 155.34,155.97 C 155.14,155.97 154.92,155.87 154.75,155.75 C 154.38,155.5 154.11,155.21 153.81,154.91 C 153.6,154.68 153.38,154.44 153.16,154.22 C 152.65,153.74 152.11,153.29 151.53,152.91 C 151.2,152.69 150.84,152.48 150.47,152.34 C 150.31,152.29 150.17,152.25 150.0,152.22 C 149.87,152.2 149.72,152.19 149.59,152.22 C 149.52,152.23 149.45,152.26 149.38,152.28 C 149.33,152.29 149.29,152.29 149.25,152.28 C 149.22,152.28 149.19,152.27 149.16,152.25 C 149.13,152.24 149.08,152.21 149.06,152.19 C 149.04,152.16 149.04,152.13 149.03,152.09 C 149.02,152.03 149.02,151.97 149.0,151.91 C 148.95,151.72 148.84,151.54 148.72,151.38 C 148.58,151.2 148.42,151.05 148.25,150.91 C 147.94,150.64 147.58,150.41 147.19,150.31 C 147.0,150.27 146.81,150.24 146.63,150.25 C 146.49,150.26 146.34,150.3 146.22,150.34 C 145.99,150.43 145.78,150.55 145.63,150.75 C 145.48,150.93 145.41,151.18 145.38,151.41 C 145.34,151.62 145.34,151.85 145.41,152.06 C 145.46,152.25 145.57,152.41 145.69,152.56 C 145.85,152.78 146.06,152.96 146.28,153.13 C 146.69,153.43 147.17,153.66 147.69,153.69 C 147.81,153.7 147.92,153.69 148.03,153.66 C 148.12,153.63 148.22,153.6 148.31,153.56 C 148.36,153.55 148.39,153.53 148.44,153.53 C 148.47,153.53 148.5,153.52 148.53,153.53 C 148.56,153.54 148.6,153.55 148.63,153.56 C 148.65,153.58 148.64,153.61 148.66,153.63 C 148.67,153.64 148.71,153.66 148.72,153.69 C 148.73,153.71 148.71,153.73 148.72,153.75 C 148.73,153.79 148.74,153.83 148.75,153.88 C 148.78,153.99 148.8,154.11 148.84,154.22 C 148.97,154.56 149.18,154.9 149.41,155.19 C 149.7,155.55 150.03,155.85 150.38,156.16 C 150.82,156.56 151.27,156.96 151.75,157.31 C 152.09,157.56 152.46,157.78 152.81,158.0 C 153.14,158.2 153.47,158.41 153.81,158.59 C 154.03,158.82 154.22,159.06 154.41,159.31 C 154.57,159.54 154.75,159.8 154.88,160.06 C 154.95,160.21 155.01,160.37 155.03,160.53 C 155.05,160.66 155.05,160.78 155.03,160.91 C 155.0,161.13 154.94,161.35 154.88,161.56 C 154.67,162.22 154.5,162.9 154.31,163.56 C 154.14,164.15 153.95,164.74 153.81,165.34 C 153.68,165.93 153.61,166.53 153.56,167.13 C 153.07,166.78 152.55,166.42 152.06,166.06 C 151.08,165.36 150.14,164.64 149.16,163.94 C 147.75,162.93 146.29,161.96 145.09,160.72 C 145.0,160.62 144.93,160.53 144.84,160.44 C 145.42,160.82 146.0,161.15 146.59,161.5 C 147.24,161.88 147.88,162.27 148.56,162.56 C 148.99,162.74 149.44,162.87 149.91,162.97 C 150.25,163.04 150.59,163.08 150.91,162.94 C 151.14,162.83 151.37,162.64 151.44,162.41 C 151.52,162.13 151.39,161.81 151.25,161.53 C 151.1,161.25 150.93,160.98 150.75,160.75 C 150.37,160.27 149.9,159.82 149.44,159.41 C 149.14,159.13 148.85,158.87 148.53,158.63 C 148.37,158.78 148.22,158.94 148.06,159.09 C 147.66,158.87 147.25,158.65 146.84,158.44 C 146.29,158.15 145.72,157.85 145.16,157.59 C 144.62,157.35 144.08,157.11 143.53,156.91 C 143.06,156.73 142.57,156.59 142.06,156.56 C 141.73,156.54 141.41,156.59 141.13,156.75 C 140.92,156.87 140.74,157.04 140.63,157.25 C 140.46,157.56 140.39,157.91 140.44,158.25 C 140.5,158.67 140.7,159.05 140.94,159.41 C 141.19,159.79 141.49,160.13 141.78,160.47 C 142.11,160.84 142.45,161.22 142.81,161.56 C 143.38,162.11 143.96,162.62 144.56,163.13 C 145.4,163.83 146.28,164.5 147.16,165.16 C 148.21,165.94 149.26,166.72 150.34,167.47 C 151.37,168.18 152.43,168.88 153.47,169.56 C 153.47,169.72 153.46,169.87 153.47,170.03 C 153.48,170.25 153.51,170.5 153.53,170.72 C 153.57,171.06 153.61,171.39 153.69,171.72 C 153.75,171.96 153.81,172.18 153.91,172.41 C 153.99,172.61 154.12,172.82 154.25,173.0 C 154.41,173.22 154.57,173.39 154.78,173.56 C 155.06,173.79 155.38,173.99 155.69,174.19 C 155.93,174.34 156.16,174.5 156.41,174.66 C 156.62,174.79 156.85,174.94 157.09,175.0 C 157.26,175.04 157.42,175.05 157.59,175.0 C 157.78,174.95 157.95,174.84 158.06,174.69 C 158.18,174.53 158.24,174.35 158.25,174.16 C 158.26,173.96 158.24,173.75 158.19,173.56 C 158.14,173.38 158.07,173.18 158.0,173.0 C 157.81,172.48 157.54,171.97 157.41,171.44 C 157.29,170.98 157.27,170.51 157.28,170.03 C 157.31,169.18 157.46,168.33 157.63,167.5 C 157.75,166.87 157.89,166.27 158.06,165.66 C 158.3,164.78 158.61,163.9 158.88,163.03 C 158.97,162.73 159.06,162.43 159.09,162.13 C 159.12,161.87 159.14,161.62 159.09,161.38 C 159.04,161.06 158.93,160.76 158.78,160.47 C 158.51,159.96 158.13,159.52 157.78,159.06 C 157.66,158.9 157.56,158.75 157.44,158.59 C 157.76,158.48 158.04,158.33 158.34,158.16 C 158.63,157.99 158.93,157.79 159.13,157.53 C 159.24,157.38 159.34,157.22 159.41,157.03 C 159.49,156.82 159.54,156.6 159.56,156.38 C 159.57,156.31 159.56,156.23 159.56,156.16 C 159.56,156.07 159.54,155.99 159.53,155.91 C 159.5,155.69 159.45,155.46 159.38,155.25 C 159.21,154.81 158.96,154.42 158.69,154.03 C 158.4,153.62 158.09,153.21 157.75,152.84 C 157.65,152.73 157.55,152.64 157.44,152.53 C 157.79,152.37 158.11,152.15 158.44,151.94 C 158.77,151.72 159.11,151.51 159.31,151.19 C 159.54,150.84 159.6,150.4 159.56,149.97 C 159.53,149.61 159.42,149.25 159.25,148.94 C 159.02,148.51 158.69,148.16 158.34,147.81 C 157.84,147.32 157.31,146.86 156.0,146.09 C 157.56,145.1 157.65,144.28 157.56,143.63 C 157.54,143.45 157.51,143.29 157.44,143.03 C 158.11,142.75 158.75,142.25 159.13,141.66 C 159.4,141.22 159.53,140.75 159.56,140.22 C 159.63,139.28 159.39,138.24 159.03,137.31 C 158.76,136.61 158.42,135.97 158.06,135.34 C 157.86,135.0 157.65,134.65 157.44,134.31 C 157.39,134.24 157.35,134.2 157.31,134.13 C 157.19,133.91 157.07,133.67 157.0,133.44 C 156.88,133.01 156.87,132.57 156.91,132.16 C 156.91,132.07 156.93,131.97 156.94,131.88 C 156.97,131.63 157.0,131.36 157.03,131.09 C 157.12,130.39 157.15,129.75 157.09,129.09 C 157.03,128.34 156.86,127.57 156.47,126.91 C 156.04,126.17 155.33,125.57 154.53,125.25 C 154.07,125.06 153.56,124.96 153.06,124.97 z M 153.13,126.91 C 153.47,126.91 153.82,127.03 154.13,127.22 C 154.72,127.59 154.98,128.13 155.09,128.78 C 155.29,129.92 155.09,131.4 154.69,132.47 C 153.63,132.04 152.39,131.17 151.69,130.25 C 151.29,129.73 151.05,129.18 151.19,128.5 C 151.31,127.87 151.72,127.35 152.31,127.09 C 152.46,127.03 152.63,126.96 152.78,126.94 C 152.9,126.92 153.01,126.9 153.13,126.91 z M 150.56,136.03 C 150.64,136.04 150.73,136.09 150.81,136.13 C 151.11,136.25 151.32,136.42 151.53,136.63 C 151.83,136.91 152.12,137.23 152.38,137.56 C 152.62,137.88 152.82,138.24 153.0,138.59 C 153.2,138.98 153.36,139.37 153.5,139.78 C 153.56,139.98 153.64,140.18 153.69,140.38 C 153.42,140.29 153.15,140.19 152.91,140.06 C 152.33,139.76 151.85,139.32 151.44,138.81 C 151.11,138.42 150.83,137.99 150.59,137.56 C 150.46,137.31 150.35,137.05 150.25,136.75 C 150.2,136.6 150.14,136.43 150.19,136.28 C 150.21,136.2 150.28,136.14 150.34,136.09 C 150.41,136.05 150.48,136.02 150.56,136.03 z" />
		<text id="txtTwo" transform="matrix(1 0 0 1 150 160)" style="stroke:none;fill:#f00;font-family:'Eras Medium ITC';font-size:20px;text-anchor:middle">
		</text>
		<!-- Prism Reference -->
		<cam mingh:cam="--verb EditSelectAll --verb ZoomSelection --verb FileSave "/> 
	 </g>

</svg>