<svg
   xmlns:xlink="http://www.w3.org/1999/xlink"
   xmlns:svg="http://www.w3.org/2000/svg"
   xmlns="http://www.w3.org/2000/svg"
   xmlns:mingh="http://www.minghworld.com"
   width="300px"
   height="300px" >
	 <g>
		<!-- Paths -->
		<path transform="matrix(-1 0 0 1 300 0)" style="fill:#ff0;stroke:none;"
		 d="M 149.94,123.28 C 149.15,123.29 148.34,123.55 147.66,124.06 C 145.83,125.43 145.58,128.04 147.09,129.75 C 147.27,129.95 147.47,130.15 147.69,130.31 C 147.79,130.39 147.89,130.43 148.0,130.5 C 148.05,130.53 148.1,130.56 148.16,130.59 C 148.18,130.61 148.16,130.74 148.16,130.75 L 148.16,131.94 L 148.16,133.13 L 148.16,133.19 C 148.16,133.21 148.16,133.26 148.13,133.25 C 148.09,133.23 148.07,133.2 148.03,133.19 C 147.96,133.16 147.89,133.16 147.81,133.13 C 147.66,133.06 147.49,133.0 147.34,132.94 C 146.75,132.69 146.16,132.43 145.56,132.19 C 145.41,132.13 145.27,132.09 145.13,132.03 C 145.05,132.0 144.96,131.94 144.88,131.94 C 144.71,131.93 144.6,132.01 144.47,132.09 C 143.76,132.57 143.27,133.82 143.28,134.63 C 143.28,134.81 143.28,134.98 143.38,135.16 C 143.45,135.29 143.55,135.35 143.69,135.41 C 144.09,135.57 144.5,135.74 144.91,135.91 C 145.71,136.24 146.54,136.58 147.34,136.91 C 147.55,136.99 147.74,137.07 147.94,137.16 C 147.99,137.18 148.04,137.2 148.09,137.22 C 148.12,137.23 148.16,137.21 148.16,137.25 L 148.16,137.34 L 148.16,137.75 L 148.16,138.56 L 148.16,138.75 L 148.16,138.84 C 148.16,138.89 148.12,138.85 148.09,138.84 C 147.99,138.8 147.89,138.76 147.78,138.72 C 146.94,138.38 146.1,138.03 145.25,137.69 C 144.87,137.53 144.71,137.41 144.31,137.69 C 143.94,137.95 143.65,138.41 143.47,138.81 C 143.26,139.28 143.13,139.73 143.16,140.25 C 143.16,140.43 143.18,140.62 143.28,140.78 C 143.36,140.92 143.49,140.95 143.63,141.0 C 144.99,141.56 146.32,142.16 147.63,142.84 C 147.65,142.86 147.63,143.02 147.63,143.03 L 147.63,143.22 L 147.63,143.63 C 147.63,143.66 147.65,143.69 147.63,143.72 C 147.61,143.73 147.58,143.77 147.56,143.78 C 147.53,143.81 147.5,143.84 147.47,143.88 C 147.4,143.94 147.35,144.0 147.28,144.06 C 146.98,144.33 146.67,144.58 146.34,144.81 C 145.97,145.08 145.57,145.32 145.16,145.53 C 144.78,145.72 144.4,145.88 144.0,146.03 C 143.78,146.11 143.57,146.19 143.34,146.25 C 143.29,146.27 143.24,146.3 143.19,146.31 C 143.16,146.32 143.12,146.3 143.09,146.28 C 143.06,146.26 143.04,146.27 143.0,146.25 C 142.86,146.17 142.71,146.08 142.56,146.0 C 142.53,145.98 142.5,145.96 142.47,145.94 C 142.44,145.92 142.37,145.9 142.38,145.84 C 142.38,145.79 142.37,145.77 142.38,145.72 C 142.38,145.62 142.4,145.51 142.41,145.41 C 142.42,145.19 142.42,144.96 142.44,144.75 C 142.5,143.83 142.6,142.92 142.72,142.0 C 142.73,141.89 142.81,141.42 142.81,141.31 C 142.82,141.13 142.69,140.95 142.56,140.84 C 142.15,140.47 141.45,140.3 140.94,140.25 C 140.49,140.21 139.74,140.22 139.34,140.56 C 139.18,140.71 139.15,140.87 139.13,141.06 C 139.09,141.34 139.04,141.63 139.0,141.91 C 138.92,142.46 138.86,143.0 138.78,143.56 C 138.76,143.7 138.74,143.86 138.72,144.0 C 138.71,144.07 138.7,144.15 138.69,144.22 C 138.68,144.25 138.69,144.28 138.69,144.31 C 138.69,144.33 138.68,144.36 138.66,144.34 L 138.59,144.31 C 138.31,144.15 138.04,143.98 137.75,143.81 L 137.31,143.56 C 137.29,143.55 137.3,143.54 137.28,143.53 C 137.26,143.52 137.25,143.52 137.25,143.5 C 137.25,143.47 137.28,143.41 137.28,143.38 C 137.29,143.31 137.3,143.25 137.31,143.19 C 137.35,142.92 137.37,142.64 137.41,142.38 C 137.48,141.84 137.55,141.31 137.63,140.78 C 137.7,140.25 137.77,139.72 137.84,139.19 C 137.86,139.05 137.89,138.91 137.91,138.78 C 137.92,138.69 137.93,138.62 137.91,138.53 C 137.86,138.33 137.68,138.17 137.53,138.06 C 137.06,137.74 136.36,137.58 135.81,137.56 C 135.5,137.55 135.21,137.57 134.91,137.66 C 134.69,137.72 134.53,137.78 134.38,137.97 C 134.33,138.03 134.29,138.08 134.28,138.16 C 134.25,138.35 134.21,138.55 134.19,138.75 C 134.13,139.14 134.09,139.54 134.03,139.94 C 133.98,140.33 133.93,140.73 133.88,141.13 C 133.86,141.22 133.83,141.31 133.81,141.41 C 133.81,141.43 133.82,141.48 133.81,141.5 C 133.81,141.51 133.81,141.52 133.81,141.53 C 133.81,141.55 133.79,141.54 133.78,141.53 C 133.73,141.5 133.68,141.47 133.63,141.44 C 133.41,141.32 133.21,141.18 133.0,141.06 C 132.58,140.82 132.14,140.59 131.72,140.34 C 131.51,140.22 131.3,140.09 131.09,139.97 C 131.03,139.93 130.95,139.91 130.88,139.91 C 130.63,139.91 130.46,140.02 130.28,140.16 C 130.03,140.34 129.84,140.59 129.66,140.84 C 129.34,141.29 129.03,141.93 129.0,142.5 C 128.99,142.68 129.03,142.9 129.16,143.06 C 129.24,143.17 129.36,143.22 129.47,143.28 C 129.68,143.4 129.88,143.53 130.09,143.66 C 130.52,143.9 130.95,144.13 131.38,144.38 C 131.48,144.44 131.58,144.5 131.69,144.56 C 131.74,144.59 131.79,144.63 131.84,144.66 C 131.87,144.67 131.88,144.67 131.91,144.69 C 131.92,144.7 131.96,144.71 131.97,144.72 C 131.99,144.73 131.95,144.74 131.94,144.75 C 131.78,144.87 131.63,145.0 131.47,145.13 C 130.84,145.61 130.22,146.11 129.59,146.59 C 129.48,146.68 129.31,146.77 129.22,146.88 C 129.16,146.94 129.14,147.01 129.13,147.09 C 129.07,147.35 129.11,147.55 129.19,147.78 C 129.37,148.34 129.79,148.89 130.22,149.28 C 130.44,149.47 130.66,149.65 130.94,149.75 C 131.1,149.81 131.3,149.87 131.47,149.78 C 131.6,149.71 132.57,148.9 132.69,148.81 C 133.54,148.15 134.4,147.51 135.25,146.84 C 135.28,146.82 135.32,146.8 135.34,146.78 C 135.36,146.77 135.36,146.76 135.38,146.75 C 135.38,146.75 135.4,146.71 135.41,146.72 C 135.48,146.76 135.55,146.8 135.63,146.84 L 136.06,147.09 C 136.21,147.18 136.36,147.26 136.5,147.34 C 136.57,147.39 136.62,147.43 136.69,147.47 C 136.72,147.49 136.78,147.51 136.81,147.53 C 136.81,147.53 136.82,147.56 136.81,147.56 C 136.8,147.57 136.8,147.58 136.78,147.59 C 136.34,147.94 135.88,148.28 135.44,148.63 C 134.97,148.99 134.49,149.36 134.03,149.72 C 133.65,150.01 133.95,150.7 134.09,151.0 C 134.36,151.54 134.83,152.14 135.34,152.47 C 135.56,152.61 135.76,152.72 136.03,152.72 C 136.26,152.72 136.37,152.56 136.53,152.44 C 137.3,151.84 138.1,151.27 138.91,150.72 C 139.27,150.47 139.63,150.24 140.0,150.0 C 140.02,149.99 140.12,150.03 140.13,150.03 C 140.16,150.05 140.18,150.07 140.22,150.09 C 140.29,150.14 140.36,150.18 140.44,150.22 C 140.51,150.26 140.58,150.3 140.66,150.34 C 140.67,150.35 140.78,150.42 140.78,150.44 C 140.79,150.46 140.77,150.47 140.78,150.5 C 140.84,150.73 140.9,150.98 140.94,151.22 C 141.03,151.76 141.07,152.29 141.09,152.84 C 141.11,153.14 141.09,153.45 141.06,153.75 C 141.04,154.02 141.04,154.29 141.0,154.56 C 140.96,154.81 140.9,155.04 140.84,155.28 C 140.83,155.34 140.83,155.38 140.81,155.44 C 140.81,155.47 140.79,155.5 140.78,155.53 C 140.78,155.54 140.79,155.55 140.78,155.56 C 140.78,155.58 140.77,155.61 140.75,155.63 C 140.6,155.71 140.46,155.79 140.31,155.88 C 140.24,155.92 140.17,155.96 140.09,156.0 C 140.06,156.02 140.04,156.06 140.0,156.03 C 139.98,156.02 139.96,156.01 139.94,156.0 C 139.85,155.94 139.75,155.87 139.66,155.81 C 139.47,155.69 139.28,155.56 139.09,155.44 C 138.29,154.9 137.52,154.33 136.75,153.75 C 136.65,153.67 136.54,153.61 136.44,153.53 C 136.36,153.47 136.32,153.38 136.22,153.34 C 136.02,153.27 135.8,153.36 135.63,153.44 C 135.08,153.68 134.58,154.23 134.28,154.72 C 134.11,154.99 133.97,155.28 133.91,155.59 C 133.86,155.79 133.83,156.0 133.94,156.19 C 133.99,156.28 134.08,156.35 134.16,156.41 C 134.27,156.5 134.38,156.57 134.5,156.66 C 134.73,156.84 134.96,157.04 135.19,157.22 C 135.65,157.58 136.13,157.92 136.59,158.28 C 136.65,158.33 136.69,158.39 136.75,158.44 C 136.77,158.45 136.85,158.48 136.81,158.5 C 136.78,158.52 136.76,158.54 136.72,158.56 C 136.57,158.65 136.4,158.73 136.25,158.81 C 136.1,158.9 135.96,158.98 135.81,159.06 L 135.59,159.22 C 135.56,159.24 135.51,159.26 135.47,159.28 C 135.45,159.29 135.42,159.3 135.41,159.31 C 135.38,159.33 135.39,159.29 135.38,159.28 C 134.49,158.59 133.61,157.91 132.72,157.22 C 132.5,157.05 132.28,156.86 132.06,156.69 C 131.95,156.6 131.83,156.52 131.72,156.44 C 131.63,156.37 131.54,156.29 131.44,156.25 C 131.25,156.17 131.04,156.24 130.88,156.31 C 130.58,156.44 130.35,156.6 130.13,156.81 C 129.71,157.22 129.29,157.85 129.16,158.44 C 129.11,158.63 129.05,158.87 129.16,159.06 C 129.21,159.16 129.32,159.22 129.41,159.28 C 129.57,159.41 129.71,159.56 129.88,159.69 C 130.53,160.2 131.19,160.71 131.84,161.22 C 131.86,161.23 131.89,161.23 131.91,161.25 C 131.92,161.26 131.93,161.27 131.94,161.28 C 131.95,161.29 131.98,161.3 131.97,161.31 C 131.91,161.34 131.84,161.37 131.78,161.41 C 131.67,161.47 131.58,161.53 131.47,161.59 C 131.25,161.72 131.03,161.84 130.81,161.97 C 130.37,162.22 129.91,162.5 129.47,162.75 C 129.25,162.88 129.1,162.9 129.03,163.19 C 128.97,163.47 129.02,163.73 129.09,164.0 C 129.25,164.59 129.62,165.23 130.06,165.66 C 130.26,165.85 130.44,166.02 130.72,166.09 C 131.01,166.17 131.19,166.0 131.41,165.88 C 131.85,165.62 132.28,165.38 132.72,165.13 C 132.94,165.0 133.15,164.85 133.38,164.72 C 133.49,164.66 133.61,164.59 133.72,164.53 C 133.75,164.52 133.75,164.52 133.78,164.5 C 133.82,164.48 133.81,164.54 133.81,164.56 C 133.82,164.61 133.84,164.67 133.84,164.72 L 134.19,167.28 C 134.22,167.48 134.24,167.67 134.28,167.88 C 134.3,167.96 134.35,168.03 134.41,168.09 C 134.58,168.28 134.83,168.36 135.06,168.41 C 135.69,168.53 136.48,168.45 137.06,168.22 C 137.34,168.11 137.58,167.98 137.78,167.75 C 137.95,167.55 137.94,167.46 137.91,167.22 C 137.75,166.06 137.6,164.88 137.44,163.72 C 137.4,163.43 137.35,163.17 137.31,162.88 C 137.3,162.8 137.29,162.73 137.28,162.66 C 137.28,162.62 137.26,162.57 137.25,162.53 C 137.25,162.51 137.26,162.51 137.28,162.5 C 137.3,162.49 137.32,162.48 137.34,162.47 C 137.5,162.38 137.66,162.28 137.81,162.19 C 137.97,162.1 138.09,162.0 138.25,161.91 C 138.33,161.86 138.42,161.83 138.5,161.78 C 138.54,161.76 138.59,161.74 138.63,161.72 C 138.64,161.71 138.64,161.7 138.66,161.69 C 138.67,161.68 138.69,161.68 138.69,161.69 C 138.69,161.7 138.69,161.71 138.69,161.72 C 138.73,162.02 138.77,162.32 138.81,162.63 C 138.9,163.23 138.98,163.86 139.06,164.47 C 139.08,164.62 139.1,164.75 139.13,164.91 C 139.14,165.03 139.14,165.16 139.19,165.28 C 139.27,165.48 139.48,165.59 139.66,165.66 C 140.24,165.87 141.06,165.78 141.63,165.63 C 141.94,165.54 142.2,165.45 142.47,165.25 C 142.62,165.14 142.8,164.96 142.81,164.75 C 142.82,164.62 142.73,164.12 142.72,164.0 C 142.69,163.74 142.65,163.48 142.63,163.22 C 142.57,162.72 142.51,162.25 142.47,161.75 C 142.43,161.29 142.43,160.81 142.41,160.34 C 142.4,160.29 142.38,160.24 142.38,160.19 C 142.37,160.17 142.36,160.14 142.38,160.13 C 142.39,160.11 142.42,160.1 142.44,160.09 C 142.48,160.07 142.52,160.05 142.56,160.03 C 142.72,159.94 142.88,159.87 143.03,159.78 C 143.04,159.78 143.11,159.71 143.13,159.72 C 143.15,159.73 143.19,159.74 143.22,159.75 C 143.28,159.77 143.35,159.76 143.41,159.78 C 143.53,159.82 143.63,159.87 143.75,159.91 C 144.29,160.09 144.81,160.3 145.31,160.56 C 145.85,160.84 146.34,161.19 146.81,161.56 C 147.02,161.72 147.19,161.89 147.38,162.06 C 147.42,162.1 147.49,162.15 147.53,162.19 C 147.55,162.2 147.63,162.31 147.63,162.34 L 147.63,162.88 L 147.63,163.16 C 147.63,163.2 147.59,163.17 147.56,163.19 C 147.54,163.2 147.52,163.24 147.5,163.25 C 147.4,163.3 147.29,163.36 147.19,163.41 C 146.98,163.51 146.77,163.62 146.56,163.72 C 145.65,164.16 144.75,164.55 143.81,164.94 C 143.62,165.02 143.41,165.04 143.28,165.25 C 143.15,165.47 143.14,165.76 143.16,166.0 C 143.2,166.63 143.47,167.37 143.84,167.88 C 144.02,168.11 144.19,168.31 144.47,168.44 C 144.71,168.55 144.84,168.5 145.06,168.41 C 145.63,168.18 146.18,167.95 146.75,167.72 C 147.03,167.6 147.31,167.49 147.59,167.38 C 147.74,167.32 147.89,167.25 148.03,167.19 C 148.07,167.17 148.09,167.17 148.13,167.16 C 148.15,167.15 148.16,167.17 148.16,167.19 L 148.16,167.25 L 148.16,167.53 L 148.16,168.63 L 148.16,168.75 C 148.16,168.77 148.18,168.8 148.16,168.81 C 148.14,168.82 148.11,168.81 148.09,168.81 C 148.03,168.84 147.94,168.88 147.88,168.91 C 147.74,168.96 147.6,169.01 147.47,169.06 C 146.38,169.5 145.3,169.96 144.22,170.41 C 144.08,170.46 143.95,170.51 143.81,170.56 C 143.71,170.6 143.59,170.61 143.5,170.69 C 143.33,170.83 143.3,171.09 143.28,171.28 C 143.23,171.9 143.48,172.64 143.78,173.16 C 143.94,173.42 144.1,173.68 144.34,173.88 C 144.49,173.99 144.7,174.11 144.91,174.09 C 145.05,174.08 145.15,173.99 145.28,173.94 C 145.47,173.86 145.65,173.8 145.84,173.72 C 146.22,173.56 146.59,173.4 146.97,173.25 C 147.35,173.1 147.75,172.94 148.13,172.78 C 148.14,172.78 148.14,172.79 148.16,172.78 L 148.16,172.81 L 148.16,172.91 L 148.16,173.09 L 148.16,173.47 L 148.16,174.22 L 148.16,175.75 C 148.16,176.0 148.17,176.11 148.38,176.28 C 149.06,176.87 151.03,176.9 151.69,176.25 C 151.89,176.05 151.84,175.83 151.84,175.59 L 151.84,174.09 L 151.84,173.34 L 151.84,172.97 L 151.84,172.88 L 151.84,172.81 L 151.84,172.78 C 151.89,172.8 151.92,172.82 151.97,172.84 C 152.35,173.0 152.75,173.13 153.13,173.28 C 153.5,173.44 153.87,173.6 154.25,173.75 C 154.44,173.83 154.62,173.92 154.81,174.0 C 154.92,174.04 155.04,174.09 155.16,174.09 C 155.37,174.09 155.54,173.94 155.69,173.81 C 155.92,173.6 156.1,173.37 156.25,173.09 C 156.52,172.6 156.76,171.87 156.72,171.28 C 156.7,171.09 156.65,170.87 156.5,170.72 C 156.43,170.65 156.34,170.63 156.25,170.59 C 156.12,170.54 156.0,170.49 155.88,170.44 C 154.85,170.02 153.84,169.6 152.81,169.19 C 152.56,169.08 152.29,168.98 152.03,168.88 C 152.0,168.86 151.97,168.86 151.94,168.84 C 151.93,168.84 151.84,168.81 151.84,168.78 L 151.84,168.53 L 151.84,168.03 L 151.84,167.53 L 151.84,167.25 L 151.84,167.19 C 151.84,167.17 151.82,167.15 151.84,167.16 C 151.88,167.17 151.94,167.17 151.97,167.19 L 152.75,167.53 L 154.38,168.19 C 154.51,168.24 154.65,168.29 154.78,168.34 C 154.91,168.39 155.03,168.46 155.16,168.5 C 155.34,168.56 155.52,168.47 155.66,168.38 C 156.13,168.06 156.48,167.37 156.66,166.88 C 156.8,166.46 156.99,165.7 156.72,165.25 C 156.6,165.05 156.4,165.04 156.22,164.97 C 155.99,164.87 155.76,164.76 155.53,164.66 C 155.09,164.47 154.66,164.29 154.22,164.09 C 153.81,163.91 153.4,163.7 153.0,163.5 C 152.81,163.4 152.63,163.32 152.44,163.22 C 152.41,163.21 152.38,163.2 152.38,163.16 L 152.38,163.03 L 152.38,162.78 L 152.38,162.53 L 152.38,162.41 C 152.38,162.37 152.34,162.31 152.38,162.28 C 152.72,161.93 153.1,161.63 153.5,161.34 C 153.73,161.18 153.95,161.03 154.19,160.88 C 154.44,160.72 154.7,160.57 154.97,160.44 C 155.44,160.21 155.91,160.0 156.41,159.84 C 156.52,159.81 156.64,159.78 156.75,159.75 C 156.78,159.74 156.79,159.73 156.81,159.72 C 156.83,159.72 156.86,159.72 156.88,159.72 C 156.9,159.71 156.89,159.74 156.91,159.75 C 156.98,159.79 157.05,159.83 157.13,159.88 C 157.27,159.96 157.42,160.04 157.56,160.13 C 157.58,160.13 157.63,160.13 157.63,160.16 C 157.62,160.17 157.63,160.17 157.63,160.19 L 157.63,160.28 C 157.62,160.33 157.6,160.38 157.59,160.44 C 157.55,161.35 157.48,162.25 157.38,163.16 C 157.32,163.65 157.26,164.16 157.19,164.66 C 157.12,165.14 157.77,165.41 158.09,165.53 C 158.64,165.74 159.33,165.83 159.91,165.75 C 160.16,165.71 160.37,165.65 160.59,165.5 C 160.67,165.45 160.73,165.42 160.78,165.34 C 160.83,165.27 160.83,165.18 160.84,165.09 C 161.0,163.99 161.16,162.88 161.31,161.78 C 161.31,161.76 161.31,161.74 161.31,161.72 C 161.31,161.71 161.31,161.7 161.31,161.69 C 161.35,161.71 161.4,161.73 161.44,161.75 C 161.51,161.79 161.59,161.83 161.66,161.88 C 161.8,161.96 161.92,162.01 162.06,162.09 C 162.2,162.18 162.36,162.26 162.5,162.34 C 162.57,162.38 162.62,162.43 162.69,162.47 C 162.7,162.48 162.75,162.47 162.75,162.5 C 162.75,162.52 162.75,162.55 162.75,162.56 C 162.75,162.6 162.72,162.62 162.72,162.66 C 162.65,163.18 162.57,163.72 162.5,164.25 C 162.43,164.78 162.35,165.29 162.28,165.81 C 162.24,166.08 162.22,166.33 162.19,166.59 C 162.15,166.85 162.09,167.12 162.06,167.38 C 162.05,167.55 162.17,167.7 162.28,167.81 C 162.48,168.01 162.71,168.12 162.97,168.22 C 163.51,168.43 164.2,168.52 164.78,168.44 C 165.04,168.4 165.28,168.34 165.5,168.19 C 165.7,168.05 165.72,167.94 165.75,167.72 C 165.86,166.94 165.95,166.15 166.06,165.38 L 166.16,164.81 C 166.17,164.72 166.17,164.6 166.19,164.5 C 166.2,164.51 166.24,164.52 166.25,164.53 L 166.31,164.56 C 166.36,164.59 166.42,164.63 166.47,164.66 C 166.89,164.9 167.3,165.13 167.72,165.38 C 167.93,165.5 168.13,165.63 168.34,165.75 C 168.53,165.86 168.74,165.97 168.94,166.06 C 169.1,166.14 169.26,166.1 169.41,166.03 C 170.21,165.67 171.19,164.09 170.97,163.19 C 170.91,162.93 170.77,162.87 170.56,162.75 C 170.14,162.51 169.73,162.27 169.31,162.03 C 168.89,161.79 168.48,161.55 168.06,161.31 C 168.06,161.31 168.07,161.28 168.06,161.28 C 168.08,161.27 168.11,161.23 168.13,161.22 C 168.16,161.19 168.21,161.16 168.25,161.13 C 168.33,161.06 168.39,161.0 168.47,160.94 L 168.94,160.59 L 169.88,159.88 L 170.34,159.5 C 170.48,159.39 170.62,159.31 170.75,159.19 C 170.88,159.06 170.91,158.88 170.91,158.72 C 170.89,158.43 170.78,158.19 170.66,157.94 C 170.41,157.41 169.98,156.87 169.5,156.53 C 169.29,156.38 169.11,156.26 168.84,156.22 C 168.76,156.21 168.68,156.19 168.59,156.22 C 168.5,156.25 168.45,156.32 168.38,156.38 L 165.84,158.34 C 165.63,158.51 165.43,158.65 165.22,158.81 C 165.11,158.89 165.01,158.98 164.91,159.06 C 164.85,159.1 164.8,159.15 164.75,159.19 C 164.72,159.21 164.68,159.23 164.66,159.25 C 164.65,159.26 164.61,159.32 164.59,159.31 C 164.31,159.15 164.03,158.98 163.75,158.81 C 163.61,158.73 163.45,158.64 163.31,158.56 C 163.28,158.54 163.25,158.52 163.22,158.5 C 163.21,158.49 163.16,158.49 163.19,158.47 C 163.2,158.46 163.21,158.45 163.22,158.44 C 163.27,158.39 163.32,158.36 163.38,158.31 C 163.81,157.97 164.25,157.62 164.69,157.28 C 164.91,157.11 165.12,156.95 165.34,156.78 C 165.46,156.69 165.86,156.38 165.97,156.28 C 166.1,156.16 166.13,155.97 166.13,155.81 C 166.11,155.53 166.03,155.28 165.91,155.03 C 165.66,154.51 165.23,153.96 164.75,153.63 C 164.54,153.48 164.33,153.35 164.06,153.31 C 163.98,153.3 163.9,153.32 163.81,153.34 C 163.72,153.37 163.66,153.42 163.59,153.47 C 163.21,153.76 162.82,154.06 162.44,154.34 C 161.71,154.88 160.98,155.42 160.22,155.91 C 160.17,155.93 160.14,155.94 160.09,155.97 C 160.07,155.98 160.05,156.02 160.03,156.03 C 160.02,156.04 160.01,156.02 160.0,156.03 C 159.97,156.05 159.95,156.04 159.94,156.03 C 159.79,155.95 159.65,155.87 159.5,155.78 C 159.43,155.74 159.35,155.67 159.28,155.63 C 159.26,155.62 159.23,155.62 159.22,155.59 C 159.21,155.58 159.22,155.58 159.22,155.56 C 159.21,155.54 159.19,155.53 159.19,155.5 C 159.16,155.39 159.15,155.27 159.13,155.16 C 159.02,154.65 158.94,154.14 158.91,153.63 C 158.89,153.33 158.89,153.04 158.91,152.75 C 158.92,152.47 158.94,152.18 158.97,151.91 C 159.02,151.42 159.09,150.94 159.22,150.47 C 159.23,150.44 159.25,150.42 159.28,150.41 C 159.32,150.39 159.34,150.36 159.38,150.34 C 159.45,150.3 159.52,150.26 159.59,150.22 C 159.67,150.18 159.74,150.1 159.81,150.06 C 159.85,150.04 159.9,150.02 159.94,150.0 C 159.96,149.99 159.95,149.98 159.97,149.97 C 159.99,149.96 159.99,149.99 160.0,150.0 C 160.18,150.11 160.39,150.23 160.56,150.34 C 160.94,150.59 161.29,150.84 161.66,151.09 C 162.05,151.37 162.43,151.65 162.81,151.94 C 163.01,152.09 163.21,152.25 163.41,152.41 C 163.51,152.48 163.59,152.55 163.69,152.63 C 163.75,152.67 163.83,152.68 163.91,152.69 C 164.16,152.71 164.36,152.62 164.56,152.5 C 164.84,152.34 165.07,152.14 165.28,151.91 C 165.65,151.5 166.05,150.88 166.13,150.31 C 166.15,150.14 166.16,149.94 166.03,149.78 C 165.96,149.69 165.84,149.63 165.75,149.56 C 165.64,149.47 165.52,149.37 165.41,149.28 C 164.95,148.93 164.52,148.57 164.06,148.22 C 163.84,148.04 163.6,147.86 163.38,147.69 C 163.32,147.64 163.28,147.61 163.22,147.56 C 163.21,147.55 163.13,147.55 163.16,147.53 C 163.17,147.52 163.2,147.51 163.22,147.5 C 163.26,147.48 163.31,147.46 163.34,147.44 C 163.49,147.35 163.64,147.27 163.78,147.19 C 163.93,147.1 164.07,147.02 164.22,146.94 C 164.29,146.9 164.36,146.85 164.44,146.81 C 164.47,146.79 164.49,146.77 164.53,146.75 C 164.54,146.75 164.58,146.71 164.59,146.72 C 164.61,146.73 164.61,146.74 164.63,146.75 C 164.84,146.92 165.06,147.08 165.28,147.25 C 166.15,147.93 167.01,148.61 167.88,149.28 C 167.99,149.37 168.38,149.68 168.5,149.75 C 168.67,149.85 168.87,149.81 169.03,149.75 C 169.57,149.56 170.07,149.03 170.38,148.59 C 170.62,148.23 171.02,147.57 170.88,147.06 C 170.85,146.98 170.81,146.9 170.75,146.84 C 170.62,146.72 170.48,146.64 170.34,146.53 C 170.02,146.28 169.7,146.03 169.38,145.78 C 169.05,145.53 168.73,145.28 168.41,145.03 C 168.33,144.97 168.27,144.91 168.19,144.84 C 168.15,144.81 168.1,144.78 168.06,144.75 C 168.05,144.74 168.01,144.73 168.03,144.72 C 168.04,144.71 168.08,144.7 168.09,144.69 L 168.16,144.66 L 168.81,144.28 L 170.09,143.53 C 170.31,143.41 170.54,143.28 170.75,143.16 C 170.82,143.12 170.87,143.07 170.91,143.0 C 171.03,142.78 171.0,142.58 170.97,142.34 C 170.93,142.03 170.82,141.72 170.69,141.44 C 170.45,140.94 170.03,140.35 169.53,140.06 C 169.38,139.97 169.19,139.88 169.0,139.94 C 168.95,139.95 168.92,139.98 168.88,140.0 C 168.77,140.06 168.64,140.13 168.53,140.19 L 167.88,140.56 L 166.59,141.31 C 166.49,141.37 166.39,141.44 166.28,141.5 C 166.27,141.51 166.23,141.49 166.22,141.5 C 166.21,141.5 166.23,141.53 166.22,141.53 C 166.21,141.53 166.19,141.55 166.19,141.53 C 166.18,141.51 166.19,141.49 166.19,141.47 C 166.18,141.42 166.16,141.36 166.16,141.31 L 166.06,140.72 L 165.75,138.28 C 165.72,138.05 165.68,137.95 165.47,137.81 C 165.23,137.66 164.99,137.59 164.72,137.56 C 164.12,137.49 163.4,137.61 162.84,137.84 C 162.6,137.95 162.36,138.06 162.19,138.28 C 162.04,138.47 162.06,138.59 162.09,138.81 L 162.56,142.19 C 162.6,142.47 162.65,142.75 162.69,143.03 C 162.71,143.17 162.73,143.33 162.75,143.47 C 162.75,143.49 162.75,143.51 162.75,143.53 C 162.75,143.54 162.69,143.56 162.69,143.56 C 162.65,143.58 162.6,143.6 162.56,143.63 C 162.49,143.67 162.42,143.71 162.34,143.75 C 162.04,143.93 161.74,144.11 161.44,144.28 C 161.4,144.3 161.35,144.32 161.31,144.34 C 161.3,144.35 161.31,144.32 161.31,144.31 C 161.31,144.3 161.31,144.29 161.31,144.28 C 161.31,144.26 161.32,144.27 161.31,144.25 C 161.3,144.18 161.29,144.11 161.28,144.03 C 161.26,143.88 161.24,143.71 161.22,143.56 C 161.14,142.97 161.05,142.4 160.97,141.81 C 160.93,141.52 160.88,141.2 160.84,140.91 C 160.81,140.7 160.71,140.57 160.53,140.47 C 160.04,140.18 159.26,140.22 158.75,140.31 C 158.31,140.39 157.51,140.61 157.25,141.09 C 157.14,141.3 157.19,141.49 157.22,141.69 C 157.25,141.94 157.31,142.18 157.34,142.44 C 157.4,142.93 157.42,143.41 157.47,143.91 C 157.51,144.37 157.57,144.85 157.59,145.31 C 157.6,145.42 157.59,145.51 157.59,145.63 C 157.6,145.68 157.62,145.76 157.63,145.81 L 157.63,145.88 C 157.63,145.89 157.51,145.93 157.5,145.94 C 157.35,146.03 157.21,146.13 157.06,146.22 C 157.02,146.24 156.98,146.26 156.94,146.28 C 156.91,146.3 156.89,146.32 156.84,146.31 C 156.79,146.3 156.71,146.27 156.66,146.25 C 156.15,146.11 155.69,145.94 155.22,145.72 C 154.53,145.4 154.27,145.25 153.66,144.81 C 153.23,144.51 152.84,144.18 152.47,143.81 C 152.46,143.8 152.38,143.71 152.38,143.69 L 152.38,143.44 L 152.38,142.91 C 152.38,142.9 152.37,142.85 152.38,142.84 C 152.39,142.84 152.39,142.85 152.41,142.84 C 152.43,142.83 152.44,142.79 152.47,142.78 C 152.52,142.76 152.58,142.74 152.63,142.72 C 152.72,142.67 152.81,142.61 152.91,142.56 C 153.76,142.13 154.65,141.75 155.53,141.38 C 155.77,141.27 156.01,141.16 156.25,141.06 C 156.43,140.99 156.61,140.96 156.72,140.75 C 156.98,140.26 156.79,139.47 156.63,139.03 C 156.44,138.55 156.04,137.85 155.53,137.59 C 155.31,137.48 155.22,137.51 155.0,137.59 C 154.72,137.71 154.43,137.82 154.16,137.94 C 153.6,138.16 153.05,138.37 152.5,138.59 C 152.36,138.65 152.23,138.72 152.09,138.78 C 152.02,138.81 151.94,138.82 151.88,138.84 C 151.86,138.85 151.84,138.91 151.84,138.88 L 151.84,138.81 L 151.84,138.66 L 151.84,137.63 L 151.84,137.34 C 151.84,137.33 151.82,137.23 151.84,137.22 C 151.88,137.21 151.9,137.2 151.94,137.19 C 152.07,137.13 152.21,137.09 152.34,137.03 C 152.61,136.92 152.86,136.83 153.13,136.72 C 153.65,136.5 154.19,136.28 154.72,136.06 C 155.25,135.85 155.78,135.62 156.31,135.41 C 156.51,135.33 156.6,135.23 156.66,135.03 C 156.74,134.74 156.73,134.48 156.69,134.19 C 156.59,133.58 156.28,132.88 155.88,132.41 C 155.7,132.21 155.55,132.04 155.28,131.97 C 155.2,131.95 155.12,131.95 155.03,131.97 C 154.85,132.02 154.7,132.09 154.53,132.16 C 153.75,132.47 152.97,132.81 152.19,133.13 C 152.09,133.16 152.0,133.18 151.91,133.22 C 151.89,133.22 151.86,133.25 151.84,133.25 C 151.83,133.26 151.84,133.23 151.84,133.22 L 151.84,133.13 L 151.84,132.94 L 151.84,132.16 L 151.84,130.59 C 153.83,129.53 154.51,127.01 153.31,125.09 C 152.56,123.88 151.25,123.26 149.94,123.28 z M 150.0,125.22 C 150.26,125.22 150.51,125.28 150.75,125.38 C 150.99,125.47 151.19,125.6 151.38,125.78 C 151.56,125.96 151.71,126.2 151.81,126.44 C 151.91,126.67 151.94,126.9 151.94,127.16 C 151.94,127.41 151.91,127.67 151.81,127.91 C 151.71,128.14 151.56,128.38 151.38,128.56 C 151.19,128.74 150.99,128.87 150.75,128.97 C 150.51,129.07 150.26,129.13 150.0,129.13 C 149.74,129.13 149.49,129.07 149.25,128.97 C 149.01,128.87 148.81,128.74 148.63,128.56 C 148.44,128.38 148.29,128.14 148.19,127.91 C 148.09,127.67 148.06,127.41 148.06,127.16 C 148.06,126.9 148.09,126.67 148.19,126.44 C 148.29,126.2 148.44,125.96 148.63,125.78 C 148.81,125.6 149.01,125.47 149.25,125.38 C 149.49,125.28 149.74,125.22 150.0,125.22 z" />
		
		
		<text id="txtTwo" transform="matrix(1 0 0 1 150 160)" style="stroke:none;fill:#f00;font-family:'Eras Medium ITC';font-size:20px;text-anchor:middle"  >
		</text>
		<!-- Prism Reference -->
		<cam mingh:cam="--verb EditSelectAll --verb ZoomSelection --verb FileSave "/> 
	 </g>

</svg>