<svg
   xmlns:xlink="http://www.w3.org/1999/xlink"
   xmlns:svg="http://www.w3.org/2000/svg"
   xmlns="http://www.w3.org/2000/svg"
   xmlns:mingh="http://www.minghworld.com"
   width="300px"
   height="300px" >	
	 <g>
		
		<!-- Paths -->
		<path transform="matrix(-1 0 0 1 300 0)" style="fill:#ff0;stroke:none;"
		 d="M 167.78,126.66 C 167.57,126.67 167.36,126.7 167.16,126.75 C 166.6,126.89 166.13,127.1 165.69,127.47 C 165.48,127.65 165.32,127.87 165.16,128.09 C 165.08,128.21 164.97,128.32 164.91,128.44 C 164.89,128.47 164.86,128.39 164.84,128.38 C 164.82,128.35 164.81,128.33 164.78,128.31 C 164.73,128.27 164.68,128.23 164.63,128.19 C 163.72,127.54 162.37,127.59 161.59,128.44 C 161.22,128.85 161.02,129.36 160.97,129.91 C 160.97,129.92 160.97,129.95 160.97,129.97 C 160.97,129.98 160.96,130.01 160.94,130.0 C 160.9,129.99 160.88,129.98 160.84,129.97 C 160.78,129.95 160.69,129.95 160.63,129.94 C 160.49,129.91 160.36,129.89 160.22,129.88 C 159.94,129.85 159.68,129.85 159.41,129.88 C 158.88,129.92 158.32,130.04 157.88,130.38 C 157.43,130.71 157.13,131.21 157.03,131.75 C 156.98,132.03 156.98,132.29 157.03,132.56 C 157.06,132.7 157.11,132.84 157.16,132.97 C 157.18,133.03 157.22,133.09 157.25,133.16 C 157.26,133.17 157.23,133.16 157.22,133.16 C 157.2,133.15 157.17,133.16 157.16,133.16 C 157.13,133.15 157.09,133.16 157.06,133.16 C 156.59,133.12 156.15,133.13 155.69,133.25 C 155.66,133.26 155.65,133.27 155.63,133.28 C 155.58,133.29 155.59,133.21 155.59,133.19 C 155.6,133.13 155.62,133.09 155.63,133.03 C 155.63,132.8 155.6,132.57 155.56,132.34 C 155.49,131.85 155.34,131.41 155.09,130.97 C 154.62,130.12 153.85,129.45 152.94,129.13 C 151.07,128.45 148.99,129.26 148.03,131.0 C 147.07,132.75 147.52,134.91 149.09,136.13 C 149.88,136.73 150.86,137.04 151.84,136.97 C 152.33,136.94 152.77,136.82 153.22,136.63 C 153.32,136.58 153.43,136.52 153.53,136.47 C 153.55,136.46 153.56,136.49 153.56,136.5 C 153.57,136.51 153.56,136.52 153.56,136.53 C 153.58,136.59 153.6,136.66 153.63,136.72 C 153.67,136.83 153.72,136.93 153.78,137.03 C 153.81,137.08 153.84,137.11 153.88,137.16 C 153.89,137.18 153.92,137.2 153.94,137.22 C 153.94,137.22 153.93,137.25 153.94,137.25 L 153.88,137.25 C 153.6,137.23 153.33,137.24 153.06,137.31 C 152.53,137.45 152.06,137.79 151.75,138.25 C 151.27,138.96 151.25,139.98 151.75,140.69 C 151.81,140.78 151.9,140.86 151.97,140.94 C 152.01,140.98 152.02,141.02 152.06,141.06 C 152.08,141.08 152.11,141.07 152.13,141.09 C 152.13,141.1 152.14,141.12 152.13,141.13 C 152.11,141.13 152.11,141.12 152.09,141.13 C 151.89,141.19 151.68,141.26 151.47,141.31 C 151.05,141.42 150.64,141.49 150.22,141.56 C 148.53,141.84 146.81,141.89 145.13,141.44 C 144.29,141.21 143.49,140.88 142.69,140.56 C 141.88,140.25 141.08,140.02 140.22,139.91 C 139.33,139.79 138.54,139.85 137.69,140.16 C 136.7,140.52 136.33,140.91 135.5,141.5 C 135.41,141.56 135.32,141.62 135.22,141.66 C 135.13,141.69 135.13,141.66 135.09,141.59 C 135.07,141.55 135.06,141.52 135.03,141.47 C 134.93,141.28 134.84,141.07 134.75,140.88 C 134.56,140.48 134.35,140.12 134.03,139.81 C 133.36,139.17 132.53,139.03 131.66,139.06 C 130.73,139.1 130.0,139.32 129.31,140.0 C 128.67,140.64 128.34,141.35 128.0,142.16 C 127.7,142.87 127.38,143.84 126.53,144.22 C 126.17,144.38 125.68,144.46 125.28,144.41 C 125.13,144.39 124.79,144.34 124.75,144.13 C 124.73,144.0 124.79,143.93 124.88,143.84 C 124.97,143.75 125.05,143.77 125.16,143.78 C 125.27,143.79 125.37,143.81 125.47,143.72 C 125.56,143.63 125.55,143.5 125.5,143.41 C 125.39,143.2 125.26,143.08 125.03,143.0 C 124.61,142.85 124.14,143.01 123.84,143.31 C 123.18,143.99 123.41,145.0 124.09,145.56 C 124.26,145.7 124.43,145.82 124.63,145.91 C 124.72,145.95 124.84,145.97 124.94,146.0 C 124.97,146.01 124.91,146.05 124.91,146.06 C 124.89,146.09 124.89,146.13 124.88,146.16 C 124.85,146.2 124.84,146.23 124.81,146.28 C 124.63,146.67 124.47,147.06 124.34,147.47 C 124.1,148.3 123.97,149.1 124.0,149.97 C 124.03,150.91 124.25,151.58 124.69,152.41 C 124.89,152.78 125.09,153.14 125.31,153.5 C 125.53,153.86 125.77,154.2 126.0,154.56 C 126.22,154.91 126.43,155.37 126.09,155.75 C 125.95,155.91 125.77,156.0 125.63,156.16 C 125.47,156.31 125.36,156.5 125.25,156.69 C 125.03,157.07 124.88,157.42 124.88,157.88 C 124.87,158.29 124.98,158.75 125.28,159.06 C 125.66,159.47 125.96,159.42 126.41,159.66 C 126.82,159.87 126.97,160.28 127.06,160.69 C 127.07,160.74 127.08,160.79 127.09,160.84 C 127.1,160.87 127.11,160.88 127.09,160.91 C 127.08,160.93 127.05,160.95 127.03,160.97 C 126.96,161.05 126.88,161.14 126.81,161.22 C 126.68,161.38 126.54,161.53 126.41,161.69 C 126.13,162.01 125.89,162.33 125.66,162.69 C 125.19,163.38 124.82,164.21 125.0,165.09 C 125.18,165.99 125.94,166.53 126.81,166.63 C 127.68,166.72 128.54,166.34 128.78,165.44 C 128.79,165.39 128.8,165.33 128.81,165.28 C 128.82,165.26 128.81,165.21 128.81,165.19 C 128.81,165.17 128.84,165.17 128.84,165.16 C 128.84,165.14 128.82,165.11 128.84,165.13 C 129.0,165.21 129.15,165.28 129.31,165.34 C 129.47,165.4 129.62,165.43 129.78,165.47 C 129.84,165.48 130.2,165.54 130.25,165.56 C 130.36,165.6 130.44,165.67 130.5,165.78 C 130.55,165.88 130.59,166.02 130.44,166.0 C 130.32,165.98 130.26,165.88 130.16,165.84 C 130.05,165.8 129.95,165.82 129.84,165.84 C 129.74,165.86 129.63,165.88 129.53,165.91 C 129.43,165.93 129.32,165.95 129.22,165.97 C 128.99,166.02 128.83,166.13 128.69,166.31 C 128.44,166.65 128.38,167.02 128.31,167.41 C 128.23,167.85 128.18,168.3 128.16,168.75 C 128.13,169.23 128.1,169.71 128.13,170.19 C 128.13,170.35 128.16,170.51 128.25,170.66 C 128.39,170.89 128.53,170.93 128.78,170.84 C 129.06,170.75 129.65,170.36 129.91,170.22 C 130.73,169.76 131.45,169.74 131.63,168.56 C 131.72,167.95 131.74,167.89 131.97,167.31 C 132.13,166.91 132.21,166.49 132.38,166.09 C 132.46,165.89 132.56,165.71 132.63,165.5 C 132.66,165.4 132.7,165.29 132.72,165.19 C 132.73,165.13 132.71,165.08 132.72,165.03 C 132.72,165.01 132.86,164.94 132.88,164.94 C 133.26,164.74 133.61,164.53 133.97,164.28 C 134.32,164.04 134.66,163.75 135.03,163.53 C 135.34,163.35 135.85,163.09 136.25,163.28 C 136.44,163.37 136.59,163.55 136.66,163.75 C 136.73,163.99 136.66,164.17 136.56,164.38 C 136.38,164.77 136.11,165.1 135.94,165.5 C 135.74,165.95 135.73,166.31 135.97,166.75 C 136.17,167.11 136.53,167.44 136.94,167.56 C 137.79,167.81 138.74,167.28 139.0,166.44 C 139.02,166.39 139.05,166.33 139.06,166.28 C 139.07,166.26 139.04,166.18 139.06,166.22 C 139.07,166.24 139.08,166.26 139.09,166.28 C 139.14,166.38 139.21,166.49 139.25,166.59 C 139.33,166.79 139.38,166.99 139.47,167.19 C 139.65,167.59 139.89,167.95 140.41,167.94 C 140.43,167.94 140.47,167.94 140.5,167.94 C 140.52,167.94 140.57,167.94 140.56,167.97 C 140.56,168.03 140.54,168.05 140.5,168.09 C 140.42,168.17 140.34,168.25 140.25,168.31 C 140.16,168.38 140.07,168.42 139.97,168.47 C 139.87,168.52 139.78,168.56 139.69,168.63 C 139.54,168.73 139.48,168.85 139.47,169.03 C 139.45,169.18 139.44,169.35 139.44,169.5 C 139.42,170.43 139.46,171.33 139.63,172.25 C 139.67,172.49 139.72,172.73 139.78,172.97 C 139.84,173.16 139.88,173.42 140.16,173.34 C 140.19,173.34 140.2,173.33 140.22,173.31 C 140.27,173.27 140.32,173.2 140.38,173.16 C 140.55,173.01 140.73,172.87 140.91,172.72 C 141.35,172.33 141.78,171.92 142.19,171.5 C 142.32,171.36 142.47,171.24 142.59,171.09 C 142.7,170.97 142.73,170.81 142.75,170.66 C 142.85,169.8 142.87,168.96 142.88,168.09 C 142.89,166.99 143.01,166.6 142.22,165.69 C 141.83,165.24 141.7,165.22 141.41,164.69 C 141.2,164.31 140.98,163.91 140.78,163.53 C 140.58,163.15 140.4,162.78 140.25,162.38 C 140.17,162.17 140.11,161.96 140.06,161.75 C 140.05,161.7 140.01,161.65 140.0,161.59 C 139.99,161.56 140.04,161.57 140.06,161.56 C 140.09,161.56 140.13,161.54 140.16,161.53 C 140.26,161.51 140.37,161.5 140.47,161.47 C 140.89,161.33 141.24,161.13 141.59,160.88 C 141.95,160.63 142.29,160.35 142.66,160.13 C 142.84,160.01 143.04,159.93 143.25,159.88 C 143.36,159.85 143.45,159.83 143.56,159.84 C 143.62,159.85 143.67,159.85 143.72,159.88 C 143.75,159.89 143.73,159.92 143.72,159.94 C 143.71,159.96 143.7,159.98 143.69,160.0 C 143.39,160.39 143.17,160.63 143.06,161.13 C 142.98,161.52 143.06,162.02 143.25,162.38 C 143.47,162.78 143.84,162.99 144.28,163.06 C 145.25,163.23 145.94,162.62 146.09,161.69 C 146.12,161.55 146.11,161.19 146.22,161.06 C 146.36,160.9 146.62,160.87 146.78,161.03 C 146.94,161.2 146.82,161.46 146.69,161.59 C 146.61,161.68 146.55,161.75 146.44,161.78 C 146.33,161.81 146.21,161.83 146.13,161.91 C 145.96,162.06 145.96,162.31 146.13,162.47 C 146.25,162.59 146.57,162.62 146.72,162.63 C 147.14,162.63 147.59,162.53 147.94,162.28 C 148.66,161.76 148.88,160.73 148.41,159.97 C 147.91,159.17 146.88,159.1 146.13,159.53 C 145.93,159.64 145.79,159.76 145.66,159.94 C 145.52,160.11 145.41,160.33 145.28,160.5 C 145.23,160.58 145.14,160.66 145.03,160.66 C 144.98,160.65 144.91,160.61 144.91,160.56 C 144.9,160.5 144.93,160.45 144.97,160.41 C 145.12,160.25 145.27,160.1 145.38,159.91 C 145.62,159.47 145.42,159.06 145.0,158.84 C 144.66,158.67 144.15,158.56 143.78,158.53 C 143.57,158.52 143.34,158.51 143.13,158.53 C 143.11,158.53 143.11,158.53 143.09,158.53 C 143.11,158.52 143.11,158.48 143.13,158.47 C 143.16,158.43 143.18,158.41 143.22,158.38 C 143.29,158.3 143.38,158.21 143.44,158.13 C 143.67,157.8 143.89,157.36 143.88,156.94 C 143.86,156.5 143.61,156.08 143.31,155.78 C 143.3,155.77 143.29,155.79 143.28,155.78 C 143.28,155.78 143.29,155.76 143.28,155.75 C 143.29,155.73 143.3,155.7 143.31,155.69 C 143.35,155.65 143.37,155.6 143.41,155.56 C 143.47,155.48 143.53,155.37 143.59,155.28 C 143.72,155.11 143.85,154.96 143.97,154.78 C 144.09,154.6 144.19,154.4 144.25,154.19 C 144.31,153.98 144.31,153.77 144.38,153.56 C 144.42,153.43 144.56,153.08 144.75,153.06 C 144.84,153.05 145.29,153.14 145.38,153.16 C 146.23,153.27 147.08,153.27 147.94,153.34 C 148.79,153.42 149.64,153.53 150.5,153.59 C 152.22,153.72 153.94,153.66 155.66,153.69 C 156.08,153.7 156.51,153.71 156.94,153.69 C 157.15,153.68 157.35,153.66 157.56,153.63 C 157.77,153.59 158.0,153.54 158.22,153.53 C 158.69,153.51 159.02,153.68 159.41,153.88 C 159.79,154.07 160.2,154.24 160.59,154.41 C 161.63,154.84 161.92,155.0 162.91,155.53 C 163.89,156.05 164.18,156.2 165.22,156.59 C 165.47,156.69 166.16,156.95 166.38,157.16 C 166.53,157.31 166.58,157.55 166.5,157.75 C 166.41,157.96 166.23,158.11 166.06,158.25 C 165.41,158.81 164.78,159.38 164.03,159.81 C 163.66,160.03 163.28,160.2 162.88,160.34 C 162.47,160.49 162.04,160.57 161.66,160.78 C 161.46,160.89 161.31,161.0 161.19,161.19 C 161.13,161.28 161.1,161.37 161.06,161.47 C 161.04,161.52 161.02,161.57 161.0,161.63 C 161.0,161.64 161.0,161.64 161.0,161.66 C 161.0,161.67 160.98,161.7 160.97,161.69 C 160.95,161.67 160.95,161.65 160.94,161.63 C 160.8,161.44 160.62,161.35 160.41,161.28 C 160.2,161.21 159.99,161.16 159.78,161.13 C 159.56,161.08 159.37,161.07 159.16,161.16 C 158.95,161.24 158.77,161.37 158.59,161.5 C 158.25,161.76 157.97,162.05 157.69,162.38 C 157.4,162.7 157.15,163.06 156.94,163.44 C 156.79,163.7 156.49,164.3 156.41,164.59 C 156.23,165.18 156.4,165.38 157.0,165.44 C 157.43,165.48 157.85,165.45 158.28,165.44 C 158.71,165.43 159.13,165.45 159.56,165.44 C 160.01,165.42 160.39,165.41 160.75,165.06 C 161.19,164.65 161.23,164.6 161.75,164.28 C 161.94,164.17 162.11,164.08 162.34,164.09 C 162.64,164.11 162.71,164.06 162.94,163.88 C 163.27,163.61 163.62,163.38 163.97,163.13 C 164.31,162.87 164.64,162.58 164.97,162.31 C 165.78,161.64 166.17,161.4 167.09,160.91 C 167.42,160.73 167.78,160.59 168.13,160.47 C 168.63,160.29 169.09,160.05 169.53,159.75 C 169.43,160.16 169.33,160.58 169.28,161.0 C 169.26,161.21 169.21,162.04 169.22,162.25 C 169.23,162.52 169.34,162.65 169.63,162.59 C 169.84,162.55 170.03,162.45 170.22,162.34 C 170.59,162.14 170.89,161.87 171.25,161.66 C 171.61,161.44 172.0,161.28 172.31,160.97 C 172.39,160.89 172.45,160.81 172.5,160.72 C 172.53,160.67 172.55,160.65 172.56,160.59 C 172.57,160.57 172.58,160.59 172.59,160.59 C 172.61,160.6 172.61,160.59 172.63,160.59 C 172.65,160.6 172.69,160.6 172.72,160.59 C 172.83,160.58 172.92,160.54 173.0,160.47 C 173.08,160.4 173.14,160.31 173.19,160.22 C 173.38,159.84 173.63,159.5 173.88,159.16 C 174.12,158.82 174.36,158.46 174.63,158.13 C 174.88,157.79 175.17,157.53 175.34,157.13 C 175.55,156.65 175.45,156.33 175.34,155.88 C 175.14,155.05 175.06,154.23 175.09,153.38 C 175.11,152.95 175.17,152.55 175.19,152.13 C 175.2,151.84 175.12,151.16 175.19,150.88 C 175.21,150.77 175.29,150.65 175.28,150.53 C 175.27,150.38 175.2,150.26 175.16,150.13 C 175.13,150.05 175.11,149.95 175.06,149.88 C 174.94,149.69 174.78,149.58 174.63,149.44 C 174.32,149.15 174.03,148.85 173.72,148.56 C 173.56,148.42 173.39,148.28 173.22,148.16 C 173.13,148.1 173.03,148.05 172.94,148.0 C 172.76,147.91 172.59,147.89 172.41,147.88 C 172.15,147.85 171.93,147.92 171.69,148.0 C 171.49,148.06 171.26,148.13 171.06,148.19 C 170.24,148.44 169.43,148.52 168.59,148.59 C 167.76,148.67 166.9,148.77 166.06,148.88 C 165.85,148.9 165.65,148.92 165.44,148.94 C 165.39,148.94 165.33,148.96 165.28,148.97 C 165.26,148.97 165.24,148.97 165.22,148.97 C 165.21,148.97 165.17,148.97 165.16,148.97 C 165.14,148.97 165.18,148.95 165.19,148.94 C 165.22,148.84 165.22,148.76 165.25,148.66 C 165.35,148.24 165.43,147.84 165.41,147.41 C 165.38,146.98 165.28,146.57 165.19,146.16 C 165.1,145.79 164.98,145.31 165.13,144.91 C 165.17,144.78 165.59,143.9 165.66,143.78 C 165.89,143.34 166.03,143.1 166.09,142.59 C 166.16,142.1 166.14,140.58 166.25,140.09 C 166.3,139.88 166.38,139.67 166.53,139.5 C 166.59,139.43 166.67,139.34 166.78,139.38 C 166.88,139.4 166.97,139.5 167.0,139.59 C 167.04,139.71 167.01,140.1 167.0,140.22 C 166.99,140.43 167.0,140.64 167.06,140.84 C 167.12,141.05 167.22,141.26 167.28,141.47 C 167.34,141.68 167.32,141.88 167.31,142.09 C 167.3,142.4 167.22,142.45 167.0,142.63 C 166.82,142.77 166.73,142.92 166.69,143.16 C 166.62,143.52 166.88,144.08 167.0,144.38 C 167.06,144.53 167.19,144.82 167.31,144.94 C 167.45,145.07 167.7,145.19 167.91,145.16 C 167.96,145.15 168.01,145.12 168.06,145.09 C 168.07,145.09 168.08,145.1 168.09,145.09 C 168.11,145.09 168.11,145.04 168.13,145.06 C 168.14,145.08 168.14,145.13 168.16,145.16 C 168.21,145.25 168.29,145.32 168.34,145.41 C 168.46,145.59 168.59,145.75 168.78,145.88 C 169.13,146.1 169.64,146.06 170.0,145.94 C 170.27,145.85 170.32,145.76 170.5,145.56 C 170.66,145.39 170.86,145.32 171.06,145.25 C 171.54,145.09 171.7,144.72 171.72,144.25 C 171.74,143.72 171.68,143.49 171.88,142.97 C 172.03,142.57 172.29,142.21 172.41,141.78 C 172.46,141.57 172.48,141.37 172.53,141.16 C 172.58,140.94 172.66,140.76 172.75,140.56 C 172.93,140.17 173.07,139.78 173.22,139.38 C 173.37,138.96 173.57,138.58 173.88,138.25 C 174.24,137.86 174.35,137.67 174.41,137.13 C 174.45,136.7 174.38,136.27 174.47,135.84 C 174.49,135.74 174.53,135.63 174.56,135.53 C 174.58,135.48 174.61,135.43 174.63,135.38 C 174.64,135.32 174.65,135.29 174.69,135.25 C 174.83,135.08 174.94,134.89 175.06,134.72 C 175.19,134.54 175.3,134.39 175.53,134.31 C 175.58,134.29 175.63,134.29 175.69,134.31 C 175.72,134.33 175.72,134.35 175.72,134.38 C 175.71,134.4 175.72,134.41 175.72,134.44 C 175.71,134.55 175.76,134.65 175.88,134.66 C 176.06,134.67 176.3,134.4 176.38,134.28 C 176.5,134.09 176.55,133.91 176.56,133.69 C 176.58,133.27 176.4,132.79 176.0,132.59 C 175.62,132.41 175.09,132.47 174.75,132.72 C 174.73,132.73 174.7,132.74 174.69,132.75 C 174.69,132.74 174.69,132.73 174.69,132.72 C 174.68,132.67 174.69,132.62 174.69,132.56 C 174.68,132.46 174.66,132.33 174.66,132.22 C 174.66,132.0 174.69,131.8 174.75,131.59 C 174.81,131.38 174.88,131.2 175.03,131.03 C 175.17,130.87 175.35,130.75 175.5,130.59 C 175.65,130.43 175.76,130.26 175.63,130.03 C 175.5,129.82 175.27,129.79 175.06,129.84 C 174.84,129.9 174.68,130.04 174.5,130.16 C 174.47,130.18 174.44,130.17 174.41,130.19 C 174.47,130.1 174.52,130.02 174.59,129.94 C 174.74,129.78 174.88,129.62 174.91,129.38 C 174.93,129.13 174.78,128.97 174.56,128.91 C 174.12,128.77 173.7,129.02 173.38,129.22 C 173.28,129.27 173.19,129.35 173.09,129.41 C 173.05,129.43 172.98,129.44 172.94,129.47 C 172.94,129.46 172.94,129.45 172.94,129.44 C 172.93,129.41 172.91,129.37 172.91,129.34 C 172.87,129.13 172.82,128.95 172.72,128.75 C 172.52,128.37 172.18,128.03 171.78,127.88 C 171.33,127.7 170.97,127.77 170.53,127.94 C 170.51,127.95 170.49,127.96 170.47,127.97 C 170.43,127.98 170.42,127.93 170.41,127.91 C 170.37,127.86 170.35,127.82 170.31,127.78 C 170.25,127.7 170.17,127.61 170.09,127.53 C 169.95,127.37 169.8,127.25 169.63,127.13 C 169.07,126.73 168.42,126.61 167.78,126.66 z M 151.56,130.97 C 151.82,130.97 152.08,131.03 152.31,131.13 C 152.55,131.22 152.76,131.38 152.94,131.56 C 153.12,131.74 153.28,131.95 153.38,132.19 C 153.47,132.42 153.53,132.68 153.53,132.94 C 153.53,133.19 153.47,133.45 153.38,133.69 C 153.28,133.92 153.12,134.13 152.94,134.31 C 152.76,134.49 152.55,134.62 152.31,134.72 C 152.08,134.82 151.82,134.88 151.56,134.88 C 151.31,134.88 151.05,134.82 150.81,134.72 C 150.58,134.62 150.37,134.49 150.19,134.31 C 150.01,134.13 149.88,133.92 149.78,133.69 C 149.68,133.45 149.63,133.19 149.63,132.94 C 149.63,132.68 149.68,132.42 149.78,132.19 C 149.88,131.95 150.01,131.74 150.19,131.56 C 150.37,131.38 150.58,131.22 150.81,131.13 C 151.05,131.03 151.31,130.97 151.56,130.97 z M 133.16,143.31 C 133.24,143.32 133.3,143.36 133.38,143.41 C 133.4,143.42 133.42,143.44 133.44,143.47 C 133.45,143.49 133.47,143.51 133.47,143.53 C 133.47,143.56 133.48,143.59 133.47,143.63 C 133.46,143.68 133.43,143.73 133.41,143.78 C 133.39,143.81 133.36,143.85 133.34,143.88 C 133.2,144.06 133.08,144.26 132.97,144.47 C 132.83,144.71 132.7,144.96 132.59,145.22 C 132.5,145.46 132.43,145.72 132.38,145.97 C 132.29,146.34 132.22,146.69 132.22,147.06 C 132.22,147.4 132.27,147.76 132.34,148.09 C 132.44,148.49 132.58,148.88 132.75,149.25 C 132.94,149.66 133.19,150.05 133.44,150.44 C 133.62,150.73 133.82,151.01 134.03,151.28 C 133.48,151.21 132.94,151.07 132.47,150.78 C 132.01,150.5 131.6,150.08 131.38,149.59 C 131.15,149.11 131.08,148.55 131.09,148.0 C 131.09,147.91 131.09,147.84 131.09,147.75 C 131.1,147.6 131.14,147.46 131.16,147.31 C 131.18,147.14 131.18,146.96 131.22,146.78 C 131.38,145.98 131.67,145.19 132.0,144.44 C 132.04,144.34 132.08,144.25 132.13,144.16 C 132.17,144.06 132.22,143.96 132.28,143.88 C 132.37,143.75 132.48,143.64 132.59,143.53 C 132.68,143.45 132.79,143.38 132.91,143.34 C 132.99,143.32 133.07,143.3 133.16,143.31 z M 171.59,151.47 C 171.88,151.42 172.08,151.49 172.19,151.91 C 172.38,152.67 172.46,153.43 172.47,154.22 C 172.47,154.61 172.48,154.99 172.41,155.38 C 172.37,155.57 172.3,155.76 172.22,155.94 C 172.14,156.12 172.03,156.28 171.97,156.47 C 171.87,156.76 171.98,156.76 172.0,157.03 C 172.02,157.29 171.78,157.35 171.59,157.41 C 171.41,157.47 171.23,157.51 171.03,157.53 C 170.84,157.55 170.63,157.55 170.44,157.59 C 170.69,156.66 170.03,156.14 169.44,155.66 C 169.11,155.39 168.77,155.11 168.44,154.84 C 168.16,154.62 167.9,154.42 167.63,154.19 C 167.48,154.06 167.32,153.92 167.19,153.78 C 167.12,153.71 167.03,153.63 166.97,153.56 C 166.94,153.53 166.91,153.5 166.88,153.47 C 166.87,153.46 166.86,153.45 166.88,153.44 C 166.89,153.43 166.9,153.41 166.91,153.41 C 166.93,153.39 166.95,153.39 166.97,153.38 C 167.31,153.19 167.65,153.04 168.0,152.88 C 168.71,152.55 169.42,152.18 170.16,151.91 C 170.52,151.77 170.91,151.68 171.28,151.56 C 171.39,151.53 171.5,151.49 171.59,151.47 z M 127.56,155.66 C 127.68,155.73 127.81,155.79 127.94,155.84 C 128.16,155.95 128.39,156.03 128.63,156.09 C 128.77,156.68 128.73,157.32 128.63,157.94 C 128.53,158.49 128.38,159.01 128.16,159.5 C 128.06,159.33 127.93,159.18 127.78,159.06 C 127.59,158.9 127.37,158.79 127.06,158.66 C 126.82,158.55 126.52,158.44 126.38,158.28 C 126.22,158.11 126.23,157.91 126.34,157.72 C 126.55,157.38 127.06,157.08 127.31,156.72 C 127.44,156.55 127.5,156.38 127.53,156.19 C 127.56,156.01 127.58,155.83 127.56,155.66 z M 129.66,156.28 C 129.97,156.31 130.28,156.34 130.59,156.38 C 130.7,156.39 130.8,156.41 130.91,156.44 C 130.95,156.45 131.02,156.45 131.06,156.47 C 130.75,156.54 130.45,156.6 130.19,156.78 C 129.99,156.92 129.81,157.12 129.72,157.34 C 129.72,156.99 129.71,156.63 129.66,156.28 z M 136.5,157.44 C 136.41,157.53 136.32,157.64 136.25,157.75 C 136.05,158.05 135.94,158.42 135.94,158.78 C 135.94,158.95 135.96,159.12 136.0,159.28 C 136.06,159.51 136.16,159.73 136.28,159.94 C 136.35,160.05 136.42,160.15 136.5,160.25 C 136.36,160.39 136.2,160.52 136.09,160.69 C 136.02,160.81 135.97,160.95 135.97,161.09 C 135.97,161.21 135.99,161.33 136.03,161.44 C 135.77,161.44 135.51,161.47 135.25,161.53 C 135.0,161.59 134.74,161.7 134.5,161.81 C 134.22,161.94 133.98,162.09 133.75,162.28 C 133.35,162.61 133.01,163.02 132.69,163.31 C 132.65,163.35 132.6,163.37 132.56,163.41 C 132.54,162.93 132.54,162.47 132.53,162.0 C 132.53,161.91 132.53,161.84 132.53,161.75 C 132.61,161.73 132.67,161.68 132.75,161.66 C 132.97,161.58 133.18,161.45 133.34,161.28 C 133.48,161.13 133.59,160.97 133.66,160.78 C 133.71,160.64 133.74,160.49 133.78,160.34 C 133.81,160.22 133.84,160.08 133.91,159.97 C 133.96,159.87 134.06,159.75 134.16,159.69 C 134.24,159.63 134.34,159.59 134.44,159.59 C 134.51,159.59 134.56,159.61 134.63,159.66 C 134.66,159.68 134.7,159.72 134.72,159.75 C 134.73,159.77 134.75,159.79 134.75,159.81 C 134.75,159.84 134.76,159.85 134.75,159.88 C 134.74,159.91 134.71,159.94 134.69,159.97 C 134.65,160.02 134.59,160.06 134.53,160.09 C 134.47,160.12 134.43,160.13 134.38,160.16 C 134.34,160.17 134.28,160.19 134.25,160.22 C 134.21,160.25 134.2,160.3 134.19,160.34 C 134.17,160.39 134.14,160.45 134.16,160.5 C 134.17,160.56 134.23,160.62 134.28,160.66 C 134.34,160.71 134.42,160.74 134.5,160.75 C 134.77,160.8 135.06,160.66 135.25,160.44 C 135.43,160.23 135.51,159.96 135.5,159.69 C 135.5,159.55 135.49,159.41 135.44,159.28 C 135.38,159.16 135.28,159.06 135.19,158.97 C 135.01,158.8 134.77,158.69 134.53,158.66 C 134.39,158.64 134.27,158.66 134.13,158.69 C 134.08,158.7 134.02,158.7 133.97,158.72 C 134.42,158.44 134.88,158.17 135.34,157.94 C 135.72,157.75 136.11,157.59 136.5,157.44 z M 140.44,158.94 C 140.45,158.91 140.48,158.93 140.5,158.94 C 140.88,159.04 141.23,159.08 141.63,159.03 C 141.68,159.03 141.73,159.01 141.78,159.0 C 141.81,158.99 141.81,159.0 141.81,159.03 C 141.81,159.06 141.8,159.08 141.78,159.09 C 141.7,159.14 141.61,159.17 141.53,159.22 C 141.36,159.31 141.2,159.41 141.03,159.5 C 140.69,159.68 140.35,159.83 139.97,159.91 C 140.03,159.72 140.1,159.55 140.19,159.38 C 140.23,159.29 140.27,159.2 140.31,159.13 C 140.34,159.09 140.35,159.07 140.38,159.03 C 140.39,159.01 140.39,158.99 140.41,158.97 C 140.41,158.96 140.43,158.95 140.44,158.94 z M 133.44,159.06 C 133.31,159.21 133.21,159.39 133.19,159.56 C 133.17,159.7 133.18,159.82 133.16,159.94 C 133.14,160.02 133.12,160.1 133.06,160.16 C 132.97,160.24 132.83,160.3 132.69,160.31 C 132.77,159.98 132.88,159.63 133.09,159.38 C 133.19,159.26 133.31,159.16 133.44,159.06 z M 129.47,159.66 C 129.55,160.05 129.75,160.43 130.0,160.75 C 130.01,160.76 130.02,160.77 130.03,160.78 C 130.05,160.98 130.07,161.18 130.09,161.38 C 129.9,161.38 129.72,161.44 129.56,161.56 C 129.42,161.68 129.3,161.87 129.28,162.06 C 129.26,162.25 129.32,162.43 129.44,162.56 C 129.48,162.62 129.53,162.68 129.59,162.72 C 129.56,162.64 129.53,162.56 129.56,162.47 C 129.61,162.33 129.76,162.18 129.94,162.19 C 130.03,162.19 130.14,162.23 130.22,162.31 C 130.23,162.4 130.24,162.48 130.25,162.56 C 130.27,162.69 130.27,162.84 130.28,162.97 C 130.18,163.19 129.98,163.33 129.78,163.38 C 129.47,163.45 129.2,163.29 129.03,163.09 C 128.89,162.93 128.83,162.73 128.78,162.53 C 128.69,162.17 128.61,161.8 128.56,161.44 C 128.67,161.3 128.78,161.15 128.88,161.0 C 129.13,160.59 129.35,160.12 129.47,159.66 z M 127.34,162.66 C 127.37,163.0 127.44,163.34 127.59,163.66 C 127.64,163.75 127.69,163.82 127.75,163.91 C 127.56,163.93 127.39,164.05 127.25,164.19 C 127.36,164.19 127.47,164.24 127.56,164.31 C 127.66,164.4 127.73,164.52 127.75,164.66 C 127.77,164.86 127.68,165.06 127.53,165.19 C 127.33,165.36 127.0,165.41 126.75,165.31 C 126.53,165.23 126.38,165.01 126.31,164.78 C 126.17,164.31 126.34,163.78 126.63,163.38 C 126.83,163.09 127.09,162.87 127.34,162.66 z M 137.81,163.94 C 138.01,164.24 138.21,164.54 138.41,164.84 C 138.41,164.85 138.41,164.87 138.41,164.88 C 138.42,165.08 138.4,165.29 138.31,165.47 C 138.21,165.67 138.02,165.84 137.81,165.84 C 137.65,165.85 137.49,165.74 137.41,165.59 C 137.31,165.42 137.33,165.18 137.38,164.97 C 137.42,164.76 137.49,164.6 137.56,164.44 C 137.64,164.27 137.74,164.11 137.81,163.94 z" />
		
		
		<text id="txtTwo" transform="matrix(1 0 0 1 150 160)" style="stroke:none;fill:#f00;font-family:'Eras Medium ITC';font-size:20px;text-anchor:middle"  >
		</text>
		<!-- Prism Reference -->
		<cam mingh:cam=" --verb EditSelectAll --verb ZoomSelection --verb FileSave"/> 
	 </g>

</svg>