<svg
   xmlns:xlink="http://www.w3.org/1999/xlink"
   xmlns:svg="http://www.w3.org/2000/svg"
   xmlns="http://www.w3.org/2000/svg"
   xmlns:mingh="http://www.minghworld.com"
   width="300px"
   height="300px" >
	 <g>
		<!-- Paths -->
		<path style="fill:none;stroke:#000;stroke-width:0.25px;"
		 d="M 157.97,133.13 C 157.95,133.13 157.94,133.18 157.94,133.19 C 157.86,133.46 157.8,133.76 157.72,134.03 C 157.55,134.58 157.36,135.11 157.09,135.63 C 156.57,136.65 155.86,137.54 155.53,138.69 C 155.37,139.25 155.33,139.8 155.41,140.38 C 155.45,140.67 155.52,140.97 155.59,141.25 C 155.63,141.39 155.67,141.52 155.72,141.66 C 155.73,141.68 155.74,141.7 155.72,141.72 C 155.7,141.73 155.67,141.74 155.66,141.75 C 155.63,141.78 155.59,141.82 155.56,141.84 C 155.19,142.16 154.81,142.28 154.34,142.38 C 153.76,142.5 153.18,142.5 152.59,142.44 C 152.03,142.38 151.47,142.31 150.91,142.22 C 150.83,142.21 150.76,142.17 150.69,142.16 C 150.68,142.15 150.64,142.16 150.63,142.16 C 150.64,142.12 150.67,142.1 150.69,142.09 C 150.8,142.04 150.9,142.0 151.0,141.94 C 151.21,141.81 151.41,141.67 151.59,141.5 C 152.36,140.81 152.82,139.85 152.88,138.81 C 153.0,136.47 151.03,134.54 148.69,134.72 C 146.3,134.9 144.64,137.14 145.19,139.47 C 145.32,140.04 145.57,140.54 145.94,141.0 C 146.02,141.11 146.09,141.22 146.19,141.31 C 146.23,141.36 146.3,141.39 146.34,141.44 C 146.37,141.47 146.48,141.57 146.41,141.56 C 146.1,141.52 145.78,141.45 145.47,141.41 C 144.37,141.25 143.27,141.11 142.16,141.09 C 140.06,141.07 137.94,141.51 136.0,142.28 C 134.08,143.04 132.44,144.09 130.94,145.5 C 129.65,146.71 127.68,148.96 126.66,150.41 C 125.98,151.35 125.44,152.35 124.97,153.41 C 124.73,153.95 124.52,154.47 124.56,155.09 C 124.61,155.8 125.06,156.09 125.63,156.34 C 126.25,156.62 126.71,156.61 127.25,156.16 C 127.72,155.77 127.98,155.27 128.25,154.75 C 128.52,154.24 128.76,153.73 129.03,153.22 C 129.17,152.96 129.29,152.69 129.44,152.44 C 129.51,152.31 129.58,152.19 129.66,152.06 C 129.69,152.0 129.74,151.94 129.78,151.88 C 129.8,151.85 129.81,151.83 129.84,151.81 C 129.86,151.8 129.89,151.79 129.88,151.81 C 128.98,153.37 128.35,154.99 127.97,156.75 C 127.59,158.5 127.53,160.22 127.63,162.0 C 127.65,162.55 127.69,163.11 127.75,163.66 C 127.78,163.93 127.81,164.19 127.84,164.47 C 127.86,164.6 127.88,164.75 127.91,164.88 C 128.01,165.31 128.2,165.62 128.5,165.94 C 128.83,166.29 129.2,166.53 129.66,166.69 C 130.07,166.84 130.5,166.88 130.94,166.88 L 134.97,166.88 L 135.97,166.88 C 136.42,166.88 136.87,166.86 137.31,166.69 C 137.78,166.5 138.07,166.22 138.31,165.78 C 138.42,165.59 138.47,165.4 138.5,165.19 C 138.53,164.98 138.53,164.79 138.5,164.59 C 138.31,163.32 138.19,161.63 138.22,160.34 C 138.24,159.48 138.58,158.7 139.13,158.06 C 140.33,156.65 142.43,155.94 144.25,156.22 C 145.99,156.49 147.86,157.68 148.38,159.5 C 148.53,160.03 148.51,160.56 148.5,161.09 C 148.49,162.0 148.46,162.88 148.34,163.78 C 148.26,164.42 148.16,165.01 148.38,165.66 C 148.46,165.9 148.59,166.13 148.78,166.31 C 149.13,166.65 149.62,166.83 150.09,166.88 C 150.47,166.91 151.16,166.88 151.53,166.88 L 152.84,166.88 L 155.47,166.88 C 156.1,166.88 156.53,166.86 157.13,166.59 C 157.68,166.35 158.12,165.95 158.41,165.41 C 158.53,165.16 158.62,164.9 158.66,164.63 C 158.76,163.89 158.83,163.15 158.88,162.41 C 158.95,161.27 158.97,160.14 158.91,159.0 C 158.84,157.9 158.67,156.81 158.88,155.69 C 158.96,155.23 159.06,154.79 159.31,154.38 C 159.49,154.09 159.71,153.93 160.0,153.78 C 160.8,153.36 161.53,153.29 162.41,153.41 C 163.55,153.56 164.16,153.97 165.13,154.5 C 167.06,155.55 169.31,155.66 171.34,154.88 C 172.39,154.47 173.49,153.79 174.22,152.91 C 174.92,152.05 175.19,151.14 175.34,150.09 C 175.66,147.97 175.31,145.61 174.91,143.56 C 174.69,142.46 174.43,141.39 174.09,140.31 C 173.84,139.5 173.31,137.9 172.41,137.41 C 171.84,137.1 171.15,137.2 170.75,137.72 C 170.37,138.21 170.53,138.88 170.66,139.38 C 170.83,140.08 170.92,140.34 170.97,141.06 C 171.01,141.63 171.06,142.2 171.0,142.78 C 170.95,143.3 170.79,143.94 170.28,144.25 C 169.85,144.52 169.29,144.52 168.81,144.41 C 168.33,144.29 167.91,144.06 167.5,143.81 C 167.1,143.57 166.69,143.34 166.28,143.09 C 165.46,142.6 164.65,142.12 163.78,141.72 C 163.66,141.66 163.53,141.62 163.41,141.56 C 163.34,141.54 163.28,141.49 163.22,141.47 C 163.19,141.46 163.16,141.45 163.13,141.44 C 163.11,141.43 163.08,141.41 163.06,141.41 C 163.03,141.39 163.06,141.39 163.06,141.38 C 163.09,141.09 163.14,140.78 163.19,140.5 C 163.29,139.93 163.42,139.38 163.53,138.81 C 163.73,137.74 163.85,136.51 163.38,135.44 C 163.32,135.31 163.26,135.18 163.19,135.06 C 163.15,135.0 163.13,134.93 163.09,134.88 C 163.08,134.85 163.05,134.81 163.03,134.78 C 163.01,134.75 162.99,134.8 162.97,134.81 C 162.71,135.0 162.48,135.2 162.25,135.41 C 161.79,135.82 161.39,136.28 161.06,136.81 C 160.9,137.07 160.75,137.32 160.63,137.59 C 160.56,137.73 160.5,137.89 160.44,138.03 C 160.41,138.1 160.4,138.15 160.38,138.22 C 160.36,138.25 160.33,138.31 160.31,138.34 C 160.31,138.36 160.32,138.36 160.31,138.38 C 160.31,138.38 160.29,138.41 160.28,138.41 C 160.26,138.4 160.25,138.33 160.25,138.31 C 160.25,138.28 160.26,138.25 160.25,138.22 C 160.24,138.15 160.23,138.07 160.22,138.0 C 160.19,137.86 160.15,137.7 160.13,137.56 C 160.07,137.28 160.01,137.03 159.94,136.75 C 159.63,135.61 159.17,134.59 158.44,133.66 C 158.35,133.54 158.28,133.45 158.19,133.34 C 158.14,133.29 158.08,133.21 158.03,133.16 C 158.02,133.15 157.99,133.12 157.97,133.13 z M 149.0,136.66 C 149.26,136.66 149.51,136.68 149.75,136.78 C 149.99,136.88 150.19,137.04 150.38,137.22 C 150.56,137.4 150.68,137.61 150.78,137.84 C 150.88,138.08 150.94,138.34 150.94,138.59 C 150.94,138.85 150.88,139.11 150.78,139.34 C 150.68,139.58 150.56,139.79 150.38,139.97 C 150.19,140.15 149.99,140.31 149.75,140.41 C 149.51,140.5 149.26,140.53 149.0,140.53 C 148.75,140.53 148.49,140.5 148.25,140.41 C 148.01,140.31 147.81,140.15 147.63,139.97 C 147.44,139.79 147.29,139.58 147.19,139.34 C 147.09,139.11 147.03,138.85 147.03,138.59 C 147.03,138.34 147.09,138.08 147.19,137.84 C 147.29,137.61 147.44,137.4 147.63,137.22 C 147.81,137.04 148.01,136.88 148.25,136.78 C 148.49,136.68 148.74,136.66 149.0,136.66 z"
		 />
		 <path style="fill:#f00;stroke:none;"
		 d="M 158.86,155.17 C 158.83,155.25 158.82,155.09 158.81,155.04 C 158.81,154.98 158.81,154.92 158.8,154.87 C 158.79,154.75 158.79,154.63 158.78,154.52 C 158.76,154.29 158.73,154.06 158.7,153.83 C 158.65,153.37 158.57,152.91 158.48,152.45 C 158.3,151.54 158.07,150.64 157.76,149.76 C 157.45,148.88 157.07,148.05 156.58,147.24 C 156.34,146.84 156.09,146.46 155.81,146.09 C 155.74,145.99 155.67,145.9 155.6,145.81 C 155.56,145.77 155.51,145.73 155.49,145.67 C 155.45,145.59 155.57,145.71 155.61,145.74 C 155.77,145.91 155.94,146.07 156.1,146.24 C 157.4,147.6 158.48,149.07 159.38,150.72 C 159.82,151.54 160.21,152.38 160.56,153.24 C 160.57,153.27 160.58,153.3 160.59,153.32 C 160.6,153.35 160.6,153.37 160.57,153.38 C 160.51,153.4 160.46,153.42 160.4,153.44 C 160.29,153.48 160.19,153.53 160.08,153.58 C 159.87,153.68 159.67,153.79 159.5,153.95 C 159.12,154.3 158.98,154.7 158.86,155.17 z M 137.81,151.74 C 137.81,151.71 137.83,151.71 137.84,151.72 C 137.86,151.74 137.85,151.76 137.86,151.78 C 137.87,151.83 137.89,151.87 137.9,151.91 C 137.93,152.0 137.95,152.08 137.98,152.17 C 138.03,152.34 138.08,152.5 138.13,152.67 C 138.22,152.98 138.31,153.29 138.4,153.6 C 138.59,154.24 138.78,154.88 138.95,155.53 C 139.12,156.17 139.3,156.82 139.42,157.47 C 139.44,157.58 139.41,157.57 139.34,157.63 C 139.28,157.69 139.22,157.75 139.16,157.82 C 139.05,157.94 138.94,158.07 138.83,158.21 C 138.63,158.49 138.46,158.78 138.33,159.11 C 138.3,159.19 138.27,159.27 138.24,159.35 C 138.23,159.37 138.25,159.4 138.21,159.4 C 138.18,159.41 138.19,159.37 138.19,159.35 C 138.19,159.31 138.19,159.27 138.19,159.23 C 138.18,159.07 138.18,158.9 138.17,158.74 C 138.16,158.4 138.15,158.07 138.14,157.73 C 138.12,157.07 138.09,156.4 138.06,155.73 C 137.99,154.4 137.91,153.07 137.81,151.74 z M 149.13,151.88 C 149.0,153.23 148.89,154.58 148.79,155.92 C 148.74,156.6 148.69,157.27 148.64,157.94 C 148.62,158.28 148.6,158.62 148.58,158.96 C 148.57,159.13 148.56,159.29 148.55,159.46 C 148.55,159.48 148.56,159.51 148.53,159.51 C 148.49,159.5 148.51,159.47 148.5,159.45 C 148.49,159.41 148.48,159.37 148.46,159.33 C 148.44,159.25 148.41,159.17 148.37,159.09 C 148.11,158.44 147.72,157.93 147.2,157.46 C 147.16,157.42 147.12,157.39 147.07,157.35 C 147.04,157.32 147.05,157.29 147.07,157.26 C 147.08,157.2 147.1,157.14 147.12,157.08 C 147.17,156.95 147.22,156.81 147.26,156.68 C 147.39,156.32 147.52,155.96 147.65,155.61 C 147.89,154.98 148.13,154.35 148.37,153.72 C 148.49,153.41 148.61,153.11 148.73,152.8 C 148.79,152.64 148.86,152.48 148.92,152.31 C 148.95,152.23 148.99,152.14 149.02,152.06 C 149.04,152.02 149.05,151.97 149.07,151.93 C 149.08,151.91 149.08,151.89 149.1,151.87 C 149.11,151.86 149.13,151.86 149.13,151.88 z"
		 />
		<!-- Prism Reference -->
		<cam mingh:cam=" --verb EditSelectAll --verb ZoomSelection --verb FileSave " /> 
	 </g>

</svg>
