<svg
   xmlns:xlink="http://www.w3.org/1999/xlink"
   xmlns:svg="http://www.w3.org/2000/svg"
   xmlns="http://www.w3.org/2000/svg"
   xmlns:mingh="http://www.minghworld.com"
   width="300px"
   height="300px" >
	
	 <g>
		
		<!-- Paths -->
		<path transform="matrix(-1 0 0 1 300 0)" style="fill:#ff0;stroke:none;"
		 d="M 165.75,127.78 C 165.58,127.79 165.42,127.85 165.25,128.03 C 164.88,128.43 164.6,129.11 164.44,129.59 C 164.24,130.16 164.09,130.75 163.97,131.34 C 163.92,131.61 163.88,131.86 163.84,132.13 C 163.83,132.25 163.8,132.4 163.78,132.53 C 163.77,132.6 163.76,132.65 163.75,132.72 C 163.75,132.74 163.75,132.73 163.75,132.75 C 163.74,132.78 163.72,132.77 163.72,132.75 C 163.71,132.72 163.72,132.69 163.72,132.66 C 163.51,131.54 163.24,130.49 162.63,129.5 C 162.34,129.03 161.88,128.44 161.41,128.13 C 160.98,127.84 160.62,127.84 160.25,128.22 C 159.88,128.6 159.65,129.22 159.47,129.69 C 159.24,130.29 159.05,130.91 158.88,131.53 C 158.59,132.53 158.35,133.5 158.22,134.53 C 158.09,135.55 158.07,136.54 158.19,137.56 C 158.31,138.62 158.56,139.6 159.0,140.56 C 159.17,140.93 160.22,142.99 160.41,143.34 C 160.53,143.57 160.65,143.81 160.78,144.03 C 160.85,144.14 160.93,144.24 161.0,144.34 C 161.03,144.38 160.99,144.39 160.97,144.41 C 160.94,144.43 160.9,144.45 160.88,144.47 C 160.83,144.51 160.8,144.58 160.75,144.63 C 160.36,144.97 160.01,145.35 159.69,145.75 C 159.36,146.15 159.06,146.55 158.75,146.97 C 158.71,147.02 158.66,147.07 158.63,147.13 C 158.62,147.13 158.58,147.22 158.56,147.22 C 158.53,147.22 158.52,147.17 158.5,147.16 C 158.48,147.14 158.49,147.14 158.47,147.13 C 158.33,147.01 158.2,146.89 158.06,146.78 C 157.79,146.56 157.5,146.34 157.22,146.13 C 156.09,145.27 154.9,144.51 153.66,143.84 C 153.39,143.7 153.15,143.57 152.88,143.44 C 152.74,143.37 152.61,143.31 152.47,143.25 C 152.4,143.22 152.32,143.19 152.25,143.16 C 152.22,143.14 152.19,143.14 152.16,143.13 C 152.12,143.11 152.09,143.1 152.06,143.06 C 152.03,143.02 152.1,143.04 152.13,143.03 C 152.16,143.02 152.19,143.01 152.22,143.0 C 152.28,142.98 152.34,142.96 152.41,142.94 C 152.53,142.89 152.66,142.84 152.78,142.78 C 153.03,142.67 153.24,142.54 153.47,142.38 C 154.39,141.71 154.98,140.72 155.13,139.59 C 155.41,137.31 153.76,135.25 151.47,135.03 C 149.15,134.81 147.13,136.58 147.03,138.91 C 147.01,139.49 147.1,140.02 147.31,140.56 C 147.41,140.82 147.51,141.05 147.66,141.28 C 147.73,141.39 147.83,141.49 147.91,141.59 C 147.93,141.62 147.95,141.66 147.97,141.69 C 148.0,141.74 147.91,141.69 147.88,141.69 C 147.8,141.67 147.73,141.64 147.66,141.63 C 146.46,141.39 145.28,141.29 144.06,141.31 C 139.54,141.38 135.2,143.28 132.19,146.69 C 129.17,150.09 127.86,154.71 128.22,159.16 C 128.22,159.2 128.15,159.18 128.13,159.19 C 128.09,159.19 128.07,159.18 128.03,159.19 C 127.96,159.2 127.88,159.24 127.81,159.25 C 127.68,159.28 127.54,159.31 127.41,159.34 C 127.14,159.41 126.88,159.46 126.63,159.56 C 126.12,159.77 125.71,160.06 125.34,160.47 C 124.63,161.28 124.25,162.42 124.19,163.47 C 124.05,165.68 125.3,167.86 127.34,168.75 C 128.38,169.2 129.47,169.28 130.56,168.97 C 131.11,168.81 131.62,168.57 132.09,168.25 C 132.15,168.21 132.19,168.17 132.25,168.13 C 132.28,168.1 132.3,168.06 132.34,168.09 C 132.37,168.11 132.41,168.14 132.44,168.16 C 132.55,168.23 132.64,168.31 132.75,168.38 C 132.98,168.5 133.25,168.6 133.5,168.69 C 134.02,168.88 134.54,168.98 135.09,169.03 C 135.37,169.06 135.63,169.07 135.91,169.06 L 136.0,169.06 C 136.02,169.06 136.04,169.04 136.06,169.06 C 136.08,169.08 136.06,169.11 136.06,169.13 C 136.06,169.18 136.06,169.25 136.06,169.31 C 136.06,169.44 136.05,169.56 136.06,169.69 C 136.19,171.58 136.51,172.0 138.44,172.16 C 139.06,172.21 139.99,172.28 140.63,172.19 C 141.22,172.1 141.53,171.86 141.81,171.34 C 141.89,171.2 141.96,171.04 142.06,170.91 C 142.13,170.82 142.2,170.77 142.31,170.75 C 142.47,170.72 142.62,170.75 142.78,170.75 C 143.06,170.76 143.35,170.77 143.63,170.78 C 145.08,170.85 146.52,170.93 147.97,171.09 C 149.38,171.25 149.93,171.31 151.34,171.41 C 151.89,171.44 152.42,171.49 152.97,171.53 C 153.51,171.57 154.05,171.64 154.59,171.66 C 155.16,171.67 155.73,171.64 156.28,171.5 C 156.52,171.44 156.83,171.35 157.0,171.13 C 157.17,170.9 157.18,170.57 157.13,170.31 C 157.01,169.74 156.57,169.33 156.16,169.0 C 155.72,168.65 155.25,168.38 154.78,168.09 C 154.67,168.02 154.55,167.94 154.44,167.88 C 154.38,167.84 154.31,167.81 154.25,167.78 C 154.22,167.77 154.16,167.73 154.22,167.72 C 154.25,167.71 154.28,167.7 154.31,167.69 C 154.58,167.63 154.84,167.54 155.09,167.44 C 155.35,167.33 155.61,167.21 155.84,167.06 C 155.9,167.02 155.94,166.98 156.0,166.94 C 156.03,166.92 156.05,166.89 156.09,166.91 C 156.13,166.92 156.16,166.93 156.19,166.94 C 156.32,166.99 156.47,167.05 156.59,167.09 C 157.64,167.48 158.67,167.78 159.59,168.47 C 160.05,168.81 160.47,169.19 160.91,169.56 C 161.37,169.96 161.85,170.34 162.38,170.66 C 163.33,171.23 164.27,171.57 165.41,171.63 C 165.95,171.65 166.54,171.6 167.03,171.31 C 167.58,170.99 167.73,170.41 167.47,169.84 C 167.22,169.3 166.69,169.02 166.22,168.78 C 165.49,168.4 165.45,168.35 165.22,167.56 C 164.91,166.5 164.61,165.41 164.22,164.38 C 164.2,164.32 164.35,164.27 164.38,164.25 C 164.43,164.21 164.48,164.17 164.53,164.13 C 164.64,164.04 164.74,163.93 164.84,163.84 C 165.05,163.66 165.24,163.48 165.44,163.28 C 165.84,162.89 166.24,162.47 166.59,162.03 C 167.28,161.19 167.96,160.25 168.16,159.13 C 168.26,158.5 168.21,157.87 168.13,157.25 C 168.12,157.2 168.13,157.17 168.13,157.13 C 168.12,157.11 168.07,156.98 168.09,156.97 C 168.11,156.96 168.14,156.97 168.16,156.97 C 168.17,156.97 168.2,157.0 168.22,157.0 C 168.25,157.0 168.28,157.0 168.31,157.0 C 168.45,157.01 168.58,157.01 168.72,157.0 C 168.98,156.98 169.25,156.91 169.5,156.81 C 170.12,156.57 170.36,156.25 170.84,155.84 C 171.46,155.32 171.84,155.32 172.59,155.25 C 173.28,155.19 173.57,155.14 174.0,154.53 C 174.31,154.09 174.67,153.71 175.06,153.34 C 175.47,152.97 175.89,152.63 175.84,151.97 C 175.8,151.34 175.44,150.96 175.06,150.53 C 174.18,149.52 173.86,148.98 173.47,147.69 C 173.07,146.36 173.05,145.84 171.88,144.91 C 171.11,144.29 169.93,143.68 169.03,143.31 C 168.52,143.1 167.99,142.94 167.44,142.84 C 167.39,142.83 167.4,142.78 167.41,142.75 C 167.41,142.72 167.43,142.69 167.44,142.66 C 167.45,142.59 167.48,142.53 167.5,142.47 C 167.53,142.34 167.54,142.2 167.56,142.06 C 167.62,141.8 167.67,141.52 167.72,141.25 C 167.81,140.7 167.9,140.14 168.0,139.59 C 168.1,139.04 168.21,138.49 168.31,137.94 C 168.51,136.87 168.72,135.84 168.78,134.75 C 168.84,133.58 168.66,132.48 168.28,131.38 C 168.05,130.69 167.76,130.04 167.41,129.41 C 167.14,128.93 166.77,128.31 166.31,127.97 C 166.12,127.83 165.92,127.78 165.75,127.78 z M 151.09,137.31 C 151.33,137.31 151.57,137.35 151.78,137.44 C 152.0,137.53 152.18,137.65 152.34,137.81 C 152.51,137.98 152.63,138.19 152.72,138.41 C 152.81,138.62 152.88,138.83 152.88,139.06 C 152.88,139.29 152.81,139.54 152.72,139.75 C 152.63,139.96 152.51,140.18 152.34,140.34 C 152.18,140.51 152.0,140.63 151.78,140.72 C 151.57,140.81 151.33,140.84 151.09,140.84 C 150.86,140.84 150.62,140.81 150.41,140.72 C 150.19,140.63 150.01,140.51 149.84,140.34 C 149.68,140.18 149.56,139.96 149.47,139.75 C 149.38,139.54 149.31,139.29 149.31,139.06 C 149.31,138.83 149.38,138.62 149.47,138.41 C 149.56,138.19 149.68,137.98 149.84,137.81 C 150.01,137.65 150.19,137.53 150.41,137.44 C 150.62,137.35 150.86,137.31 151.09,137.31 z" />
		<text id="txtTwo" transform="matrix(1 0 0 1 150 160)" style="stroke:none;fill:#f00;font-family:'Eras Medium ITC';font-size:20px;text-anchor:middle"  >

		</text>
		<!-- Prism Reference -->
		<cam mingh:cam=" --verb EditSelectAll --verb ZoomSelection --verb FileSave"/> 
	 </g>

</svg>