<svg
   xmlns:xlink="http://www.w3.org/1999/xlink"
   xmlns:svg="http://www.w3.org/2000/svg"
   xmlns="http://www.w3.org/2000/svg"
   xmlns:mingh="http://www.minghworld.com"
   width="300px"
   height="300px" >
	 <g>
		<!-- Paths -->
		<path transform="matrix(-1 0 0 1 300 0)" style="fill:#ff0;stroke:none;"
		 d="M 149.84,130.47 C 149.64,130.47 149.42,130.5 149.22,130.53 C 147.6,130.79 146.34,132.05 146.03,133.66 C 145.72,135.27 146.44,136.88 147.84,137.72 C 147.87,137.74 147.91,137.76 147.94,137.78 C 147.96,137.79 148.01,137.78 148.0,137.81 C 148.0,137.84 147.92,137.84 147.91,137.84 C 147.86,137.86 147.8,137.86 147.75,137.88 C 147.65,137.9 147.57,137.94 147.47,137.97 C 147.27,138.03 147.07,138.11 146.88,138.19 C 146.48,138.35 146.09,138.55 145.72,138.75 C 144.97,139.16 144.32,139.63 143.72,140.25 C 142.54,141.48 141.92,143.18 142.5,144.88 C 142.64,145.28 142.83,145.64 143.06,146.0 C 143.12,146.09 143.19,146.2 143.25,146.28 C 143.28,146.32 143.31,146.36 143.34,146.41 C 143.4,146.48 143.38,146.54 143.38,146.63 C 143.34,147.0 143.03,147.27 142.66,147.28 C 142.42,147.29 142.23,147.18 142.03,147.09 C 141.89,147.04 141.77,146.99 141.63,146.94 C 141.33,146.84 141.02,146.75 140.72,146.69 C 139.44,146.41 138.35,146.48 137.13,146.97 C 135.65,147.56 134.44,148.77 134.03,150.34 C 133.86,151.02 133.79,152.0 133.78,152.69 C 133.77,153.49 133.83,154.26 134.06,155.03 C 134.3,155.81 134.68,156.48 135.16,157.13 C 135.81,158.01 135.97,158.11 136.69,158.94 C 137.94,160.38 137.78,161.73 138.06,163.38 C 138.32,164.89 138.96,166.28 140.03,167.41 C 140.56,167.96 141.15,168.42 141.81,168.81 C 142.49,169.21 143.18,169.45 143.97,169.5 C 145.47,169.6 147.06,169.18 148.25,168.22 C 148.87,167.72 149.29,167.14 149.59,166.41 C 149.74,166.05 149.84,165.71 149.94,165.34 C 149.97,165.22 149.99,165.08 150.06,164.97 C 150.17,164.81 150.31,164.73 150.5,164.69 C 150.68,164.65 150.81,164.69 150.97,164.78 C 151.05,164.83 151.1,164.87 151.16,164.94 C 151.18,164.97 151.29,165.14 151.28,165.19 C 151.0,166.87 151.97,168.33 153.53,168.91 C 154.88,169.41 156.86,169.36 158.22,169.06 C 159.58,168.77 161.38,167.91 162.25,166.72 C 163.22,165.39 163.19,163.58 162.0,162.38 C 161.44,161.81 160.82,161.49 160.06,161.28 C 159.7,161.18 159.32,161.13 158.94,161.09 C 158.76,161.08 158.65,160.91 158.63,160.75 C 158.6,160.57 158.68,160.39 158.84,160.31 C 158.95,160.26 159.08,160.29 159.19,160.28 C 159.29,160.28 159.37,160.26 159.47,160.25 C 160.27,160.2 161.01,160.02 161.75,159.72 C 162.3,159.49 163.37,159.0 163.88,158.69 C 165.3,157.8 166.12,156.35 166.22,154.69 C 166.3,153.33 166.03,151.53 164.41,151.09 C 163.67,150.9 162.81,151.03 162.09,151.16 C 161.14,151.32 160.2,151.56 159.28,151.88 C 158.98,151.98 158.65,151.81 158.66,151.47 C 158.66,151.15 158.89,151.1 159.13,151.0 C 159.44,150.87 159.73,150.72 160.03,150.56 C 160.63,150.26 161.2,149.9 161.72,149.47 C 162.25,149.02 162.73,148.55 163.13,147.97 C 163.55,147.34 163.74,146.77 163.59,146.0 C 163.44,145.18 162.94,144.28 162.41,143.66 C 161.87,143.04 161.25,142.6 160.5,142.28 C 159.05,141.68 157.62,141.8 156.22,142.38 C 155.53,142.65 154.92,143.04 154.34,143.5 C 154.06,143.73 153.79,143.96 153.53,144.22 C 153.4,144.35 153.28,144.49 153.16,144.63 C 153.13,144.66 153.09,144.68 153.06,144.72 C 153.01,144.78 152.95,144.8 152.88,144.81 C 152.72,144.83 152.55,144.75 152.47,144.63 C 152.42,144.56 152.41,144.49 152.41,144.41 C 152.41,144.37 152.41,144.34 152.44,144.31 C 152.46,144.29 152.48,144.27 152.5,144.25 C 152.57,144.16 152.62,144.06 152.69,143.97 C 152.82,143.79 152.97,143.6 153.09,143.41 C 153.31,143.06 153.49,142.7 153.63,142.31 C 153.84,141.66 153.87,141.1 153.66,140.44 C 153.45,139.79 153.08,139.33 152.59,138.88 C 152.33,138.63 152.06,138.4 151.75,138.22 C 151.67,138.17 151.61,138.13 151.53,138.09 C 151.49,138.07 151.45,138.05 151.41,138.03 C 151.38,138.02 151.35,138.03 151.34,138.0 C 151.33,137.96 151.42,137.95 151.44,137.94 C 152.01,137.69 152.44,137.35 152.84,136.88 C 153.89,135.63 154.05,133.88 153.25,132.47 C 152.54,131.23 151.24,130.46 149.84,130.47 z M 149.63,132.44 C 149.73,132.42 149.83,132.43 149.94,132.44 C 150.94,132.46 151.84,133.37 151.81,134.38 C 151.83,135.05 151.44,135.68 150.88,136.03 C 150.21,136.46 149.28,136.42 148.66,135.94 C 148.0,135.46 147.75,134.54 148.0,133.78 C 148.22,133.06 148.89,132.53 149.63,132.44 z" />
		<text id="txtTwo" transform="matrix(1 0 0 1 150 160)" style="stroke:none;fill:#f00;font-family:'Eras Medium ITC';font-size:20px;text-anchor:middle"  >

		</text>
		<!-- Prism Reference -->
		<cam mingh:cam=" --verb EditSelectAll --verb ZoomSelection --verb FileSave"/> 
	 </g>

</svg>