<svg
   xmlns:xlink="http://www.w3.org/1999/xlink"
   xmlns:svg="http://www.w3.org/2000/svg"
   xmlns="http://www.w3.org/2000/svg"
   xmlns:mingh="http://www.minghworld.com"
   width="300px"
   height="300px" >
	 <g>
		<!-- Paths -->
		<path style="fill:none;stroke:#000;stroke-width:0.25px;"
		 d="M 139.09,132.75 C 139.05,132.75 139.02,132.78 138.97,132.81 C 138.78,132.94 138.75,133.12 138.72,133.31 C 138.69,133.5 138.67,133.67 138.59,133.84 C 138.41,134.29 138.28,134.38 138.19,134.88 C 138.12,135.25 138.11,135.65 138.13,136.03 C 138.14,136.41 138.18,136.75 138.25,137.13 C 138.28,137.31 138.32,137.51 138.38,137.69 C 138.4,137.78 138.44,137.85 138.47,137.94 C 138.47,137.95 138.46,137.96 138.47,137.97 C 138.47,137.99 138.48,138.0 138.47,138.0 L 138.38,137.97 C 138.33,137.97 138.3,137.97 138.25,137.97 C 137.86,137.96 137.51,137.99 137.16,138.19 C 136.83,138.37 136.55,138.66 136.22,138.84 C 135.55,139.22 134.71,139.26 134.0,139.0 C 133.64,138.87 133.33,138.66 133.03,138.41 C 133.0,138.38 132.97,138.34 132.94,138.31 C 132.92,138.3 132.89,138.3 132.88,138.28 C 132.87,138.28 132.85,138.29 132.84,138.28 C 132.85,138.37 132.86,138.47 132.88,138.56 C 132.9,138.75 132.94,138.94 133.0,139.13 C 133.12,139.5 133.23,139.81 133.53,140.09 C 133.67,140.23 133.85,140.31 134.03,140.38 C 134.12,140.41 134.19,140.42 134.28,140.44 C 134.33,140.45 134.39,140.46 134.44,140.47 C 134.46,140.47 134.48,140.47 134.5,140.47 C 134.54,140.47 134.49,140.49 134.47,140.5 C 133.83,140.9 133.25,141.35 132.69,141.84 C 132.14,142.33 131.64,142.86 131.09,143.34 C 130.82,143.58 130.53,143.8 130.22,144.0 C 129.91,144.2 129.56,144.36 129.25,144.56 C 128.99,144.74 128.67,144.98 128.75,145.38 C 128.79,145.58 128.92,145.67 129.06,145.78 C 129.26,145.94 129.2,145.97 129.34,146.16 C 129.39,146.22 129.46,146.26 129.53,146.28 C 129.58,146.3 129.62,146.29 129.66,146.34 C 129.69,146.39 129.62,146.62 129.63,146.66 C 129.63,146.82 129.75,146.95 129.88,147.03 C 130.03,147.13 130.21,147.21 130.34,147.34 C 130.84,147.84 130.9,148.89 130.91,149.5 C 130.91,149.87 130.92,150.25 131.0,150.63 C 131.04,150.81 131.07,150.96 131.16,151.13 C 131.19,151.19 131.27,151.25 131.31,151.31 C 131.31,151.29 131.31,151.27 131.31,151.25 C 131.31,151.2 131.34,151.14 131.34,151.09 C 131.36,150.91 131.38,150.74 131.44,150.56 C 131.47,150.48 131.49,150.39 131.53,150.31 C 131.55,150.27 131.57,150.26 131.59,150.22 C 131.6,150.21 131.62,150.23 131.63,150.22 C 131.62,150.24 131.6,150.26 131.59,150.28 C 131.55,150.65 131.59,150.98 131.66,151.34 C 131.72,151.66 131.85,152.05 132.19,152.22 C 132.2,152.22 132.21,152.21 132.22,152.22 C 132.22,152.21 132.22,152.2 132.22,152.19 C 132.21,152.15 132.22,152.1 132.22,152.06 C 132.21,151.97 132.19,151.87 132.19,151.78 C 132.18,151.6 132.17,151.43 132.19,151.25 C 132.2,151.16 132.23,151.06 132.25,150.97 C 132.26,150.93 132.26,150.89 132.28,150.84 C 132.28,150.85 132.31,150.87 132.31,150.88 L 132.31,150.94 C 132.34,151.12 132.36,151.29 132.41,151.47 C 132.45,151.67 132.5,151.89 132.56,152.09 C 132.59,152.2 132.65,152.28 132.69,152.38 C 132.71,152.42 132.73,152.49 132.75,152.53 C 132.76,152.55 132.77,152.57 132.78,152.59 C 132.79,152.6 132.81,152.64 132.81,152.63 C 132.82,152.61 132.81,152.58 132.81,152.56 C 132.96,152.18 133.09,151.81 133.19,151.41 C 133.23,151.21 133.28,151.0 133.34,150.81 C 133.35,150.79 133.34,150.77 133.34,150.75 C 133.35,150.74 133.37,150.73 133.38,150.72 C 133.38,150.75 133.4,150.81 133.41,150.84 C 133.42,150.93 133.4,151.0 133.41,151.09 C 133.43,151.46 133.39,151.81 133.28,152.16 C 133.23,152.33 133.16,152.52 133.09,152.69 C 133.09,152.7 133.06,152.74 133.09,152.72 C 133.11,152.7 133.14,152.7 133.16,152.69 C 133.19,152.66 133.21,152.63 133.25,152.59 C 133.32,152.53 133.4,152.47 133.47,152.41 C 133.97,151.88 134.27,151.16 134.44,150.47 C 134.46,150.38 134.48,150.31 134.5,150.22 C 134.51,150.18 134.53,150.13 134.53,150.09 L 134.56,150.13 C 134.57,150.15 134.56,150.2 134.56,150.22 C 134.61,150.39 134.64,150.57 134.66,150.75 C 134.7,151.11 134.71,151.45 134.66,151.81 C 134.65,151.86 134.63,151.92 134.63,151.97 C 134.63,151.96 134.65,151.95 134.66,151.94 C 134.67,151.92 134.67,151.93 134.69,151.91 C 134.75,151.83 134.82,151.74 134.88,151.66 C 134.98,151.5 135.06,151.35 135.16,151.19 C 135.33,150.87 135.5,150.52 135.63,150.19 C 135.88,149.52 136.05,148.83 136.19,148.13 C 136.26,147.77 136.31,147.42 136.34,147.06 C 136.35,146.97 136.37,146.9 136.38,146.81 C 136.38,146.79 136.37,146.74 136.38,146.72 C 136.39,146.75 136.43,146.78 136.44,146.81 C 136.49,146.99 136.53,147.17 136.56,147.34 C 136.7,148.09 136.66,148.77 136.44,149.5 C 136.38,149.67 136.32,149.83 136.25,150.0 C 136.25,150.01 136.26,150.02 136.25,150.03 C 136.24,150.05 136.27,150.04 136.28,150.03 C 136.3,150.02 136.29,150.01 136.31,150.0 C 136.35,149.97 136.4,149.93 136.44,149.91 C 136.51,149.85 136.56,149.78 136.63,149.72 C 136.9,149.44 137.07,149.14 137.16,148.75 C 137.21,148.49 137.18,147.93 137.41,147.69 C 137.66,147.41 138.13,147.37 138.44,147.56 C 138.75,147.75 138.97,148.15 139.09,148.47 C 139.23,148.82 139.29,149.16 139.28,149.53 C 139.26,150.32 139.04,150.95 138.56,151.56 C 138.12,152.13 137.57,152.59 137.34,153.34 C 137.29,153.52 137.28,153.69 137.25,153.88 C 137.24,153.97 137.23,154.07 137.22,154.16 C 137.22,154.15 137.25,154.16 137.25,154.16 C 137.27,154.14 137.26,154.14 137.28,154.13 C 137.31,154.1 137.34,154.09 137.38,154.06 C 137.65,153.83 137.88,153.54 138.13,153.28 C 138.38,153.01 138.65,152.77 138.97,152.56 C 139.12,152.46 139.27,152.39 139.44,152.31 C 139.48,152.29 139.52,152.27 139.56,152.25 C 139.5,152.3 139.44,152.38 139.38,152.44 C 138.81,152.94 138.37,153.51 138.03,154.19 C 137.87,154.52 137.75,154.83 137.66,155.19 C 137.61,155.36 137.59,155.54 137.56,155.72 C 137.55,155.81 137.54,155.91 137.53,156.0 C 137.53,156.05 137.54,156.08 137.53,156.13 C 137.53,156.13 137.53,156.15 137.53,156.16 C 137.55,156.14 137.58,156.14 137.59,156.13 C 137.86,155.86 138.02,155.53 138.22,155.22 C 138.41,154.91 138.65,154.63 138.91,154.38 C 138.97,154.31 139.03,154.24 139.09,154.19 C 139.12,154.16 139.16,154.15 139.19,154.13 C 139.09,154.28 139.02,154.43 138.94,154.59 C 138.77,154.92 138.64,155.27 138.53,155.63 C 138.3,156.34 138.19,157.03 138.22,157.78 C 138.23,158.15 138.27,158.49 138.34,158.84 C 138.35,158.89 138.33,158.92 138.34,158.97 C 138.35,159.01 138.37,158.96 138.38,158.94 C 138.38,158.92 138.4,158.9 138.41,158.88 C 138.44,158.79 138.5,158.71 138.53,158.63 C 138.6,158.45 138.65,158.26 138.72,158.09 C 138.85,157.76 139.0,157.46 139.25,157.19 C 139.28,157.16 139.31,157.12 139.34,157.09 C 139.36,157.08 139.39,157.08 139.41,157.06 C 139.37,157.15 139.34,157.23 139.31,157.31 C 139.26,157.48 139.22,157.67 139.19,157.84 C 139.12,158.22 139.06,158.59 139.03,158.97 C 139.01,159.28 139.02,159.74 139.28,160.0 C 139.41,160.13 139.56,160.2 139.72,160.28 C 139.89,160.37 140.07,160.46 140.22,160.59 C 140.54,160.89 140.54,161.22 140.38,161.59 C 140.03,162.38 139.3,162.6 138.63,162.88 C 138.32,163.0 137.95,163.18 137.91,163.59 C 137.87,163.94 138.05,164.41 138.28,164.66 C 138.55,164.94 138.99,164.95 139.31,164.75 C 139.39,164.7 139.44,164.63 139.5,164.56 C 139.53,164.53 139.57,164.51 139.59,164.47 C 139.61,164.45 139.61,164.43 139.63,164.41 C 139.63,164.39 139.65,164.35 139.66,164.38 C 139.67,164.57 139.75,164.76 139.97,164.78 C 140.18,164.81 140.31,164.73 140.47,164.59 C 140.46,164.6 140.48,164.62 140.47,164.63 C 140.44,164.66 140.4,164.72 140.38,164.75 C 140.32,164.82 140.25,164.87 140.19,164.94 C 140.05,165.09 139.92,165.23 139.81,165.41 C 139.78,165.46 139.75,165.51 139.72,165.56 C 139.7,165.59 139.7,165.63 139.69,165.66 C 139.68,165.67 139.69,165.67 139.69,165.69 C 139.78,165.65 139.91,165.62 140.0,165.56 C 140.28,165.39 140.49,165.16 140.75,164.97 C 140.76,164.96 140.77,164.97 140.78,164.97 C 140.76,165.0 140.74,165.03 140.72,165.06 C 140.68,165.12 140.63,165.19 140.59,165.25 C 140.52,165.38 140.46,165.51 140.41,165.66 C 140.3,165.97 140.26,166.22 140.44,166.53 C 140.61,166.83 140.91,166.89 141.22,166.78 C 141.38,166.72 141.51,166.62 141.63,166.5 C 141.69,166.44 141.76,166.41 141.81,166.34 C 141.81,166.37 141.81,166.41 141.81,166.44 C 141.81,166.49 141.81,166.51 141.81,166.56 C 141.83,166.92 142.06,167.11 142.41,167.09 C 142.75,167.07 143.0,166.8 143.19,166.56 C 143.22,166.53 143.25,166.51 143.28,166.47 C 143.29,166.45 143.3,166.43 143.31,166.41 C 143.32,166.39 143.33,166.31 143.34,166.34 C 143.37,166.43 143.4,166.54 143.44,166.63 C 143.51,166.78 143.62,166.91 143.75,167.03 C 144.23,167.45 144.92,167.2 145.34,166.88 C 145.58,166.69 145.81,166.49 146.0,166.25 C 146.09,166.13 146.17,166.0 146.25,165.88 L 146.28,165.94 C 146.29,165.98 146.28,165.99 146.28,166.03 C 146.29,166.11 146.32,166.2 146.31,166.28 C 146.3,166.64 146.11,166.83 145.84,167.03 C 145.81,167.05 145.78,167.07 145.75,167.09 C 145.74,167.1 145.76,167.12 145.75,167.13 C 145.77,167.12 145.79,167.13 145.81,167.13 C 145.89,167.12 145.96,167.1 146.03,167.09 C 146.18,167.07 146.33,167.05 146.47,167.0 C 146.76,166.89 146.96,166.74 147.13,166.47 C 147.21,166.32 147.29,166.14 147.34,165.97 C 147.38,165.87 147.41,165.79 147.44,165.69 C 147.44,165.7 147.46,165.71 147.47,165.72 C 147.49,165.74 147.51,165.73 147.53,165.75 C 147.56,165.78 147.59,165.81 147.63,165.84 C 147.86,166.06 148.18,165.98 148.41,165.81 C 148.62,165.65 148.79,165.39 148.84,165.13 C 148.88,164.93 148.85,164.72 148.81,164.53 C 148.81,164.49 148.79,164.47 148.78,164.44 C 148.78,164.42 148.79,164.39 148.78,164.38 C 148.77,164.34 148.8,164.39 148.81,164.41 C 148.86,164.46 148.89,164.51 148.94,164.56 C 149.0,164.64 149.07,164.7 149.16,164.75 C 149.37,164.88 149.78,164.9 150.0,164.81 C 150.14,164.76 150.16,164.65 150.22,164.53 C 150.23,164.51 150.24,164.46 150.25,164.44 C 150.26,164.42 150.28,164.35 150.31,164.38 C 150.36,164.41 150.39,164.47 150.44,164.5 C 150.52,164.55 150.61,164.58 150.69,164.63 C 150.96,164.78 151.23,164.81 151.53,164.81 C 151.77,164.81 152.19,164.83 152.13,164.47 C 152.12,164.46 152.13,164.45 152.13,164.44 C 152.16,164.45 152.21,164.46 152.25,164.47 C 152.32,164.49 152.4,164.48 152.47,164.5 C 152.62,164.53 152.76,164.56 152.91,164.56 C 153.58,164.58 154.06,164.36 154.56,163.97 C 154.68,163.88 154.79,163.78 154.91,163.69 C 154.94,163.67 154.97,163.65 155.0,163.63 C 154.96,163.67 154.94,163.73 154.91,163.78 C 154.83,163.93 154.77,164.08 154.78,164.25 C 154.78,164.29 154.8,164.3 154.81,164.34 C 154.82,164.36 154.84,164.39 154.84,164.41 C 154.88,164.35 154.97,164.34 155.0,164.28 C 155.37,163.71 155.81,163.55 156.44,163.47 C 157.14,163.38 157.53,163.32 158.03,162.75 C 158.23,162.52 158.41,162.29 158.56,162.03 C 158.58,162.0 158.61,161.97 158.63,161.94 C 158.62,161.96 158.63,161.98 158.63,162.0 C 158.62,162.03 158.63,162.06 158.63,162.09 C 158.62,162.14 158.6,162.2 158.59,162.25 C 158.59,162.28 158.57,162.29 158.56,162.31 C 158.53,162.46 158.48,162.59 158.41,162.72 C 158.31,162.88 158.19,163.02 158.06,163.16 C 157.99,163.23 157.92,163.31 157.84,163.38 C 157.83,163.39 157.83,163.39 157.81,163.41 C 157.84,163.4 157.88,163.41 157.91,163.41 C 157.96,163.4 158.01,163.39 158.06,163.38 C 158.14,163.36 158.21,163.35 158.28,163.31 C 158.41,163.24 158.5,163.11 158.59,163.0 C 158.99,162.54 159.16,161.95 159.56,161.5 C 159.59,161.47 159.62,161.44 159.66,161.41 C 159.67,161.39 159.67,161.39 159.69,161.38 C 159.67,161.44 159.67,161.53 159.66,161.59 C 159.61,161.77 159.59,161.95 159.56,162.13 C 159.54,162.3 159.51,162.48 159.5,162.66 C 159.5,162.69 159.5,162.8 159.53,162.75 C 159.55,162.71 159.57,162.66 159.59,162.63 C 159.64,162.55 159.67,162.48 159.72,162.41 C 160.04,161.89 160.54,161.05 161.09,160.69 C 161.43,160.47 161.74,160.44 162.13,160.47 L 162.19,160.47 C 162.21,160.47 162.26,160.47 162.25,160.5 C 162.24,160.54 162.21,160.58 162.19,160.63 C 162.15,160.71 162.1,160.78 162.03,160.84 C 161.89,160.97 161.71,161.05 161.56,161.16 C 161.53,161.18 161.5,161.19 161.47,161.22 C 161.45,161.24 161.35,161.3 161.41,161.31 C 161.5,161.33 161.59,161.31 161.69,161.31 C 161.89,161.31 162.04,161.25 162.19,161.13 C 162.36,160.98 162.41,160.91 162.66,160.88 C 162.76,160.86 162.83,160.84 162.91,160.78 C 162.98,160.72 163.04,160.67 163.13,160.75 C 163.2,160.82 163.28,160.89 163.38,160.94 C 163.46,160.98 163.54,160.98 163.56,161.09 C 163.61,161.35 163.32,161.32 163.16,161.34 C 162.97,161.37 162.77,161.41 162.59,161.47 C 162.39,161.53 162.34,161.65 162.28,161.84 C 162.23,162.02 162.12,162.19 162.03,162.34 C 161.94,162.5 161.86,162.65 161.84,162.84 C 161.83,163.01 161.9,163.22 162.06,163.31 C 162.22,163.4 162.44,163.39 162.59,163.34 C 162.64,163.33 162.68,163.33 162.72,163.31 C 162.74,163.3 162.76,163.29 162.78,163.28 C 162.8,163.27 162.86,163.22 162.84,163.25 C 162.82,163.29 162.81,163.33 162.81,163.38 C 162.81,163.4 162.8,163.5 162.84,163.5 C 163.03,163.5 163.2,163.45 163.38,163.41 C 163.46,163.38 163.57,163.38 163.66,163.34 C 163.64,163.36 163.63,163.39 163.63,163.41 C 163.61,163.45 163.6,163.48 163.59,163.53 C 163.59,163.55 163.59,163.6 163.59,163.63 C 163.6,163.66 163.64,163.62 163.66,163.63 C 163.7,163.63 163.74,163.65 163.78,163.66 C 163.87,163.67 163.97,163.69 164.06,163.69 C 164.44,163.7 164.77,163.63 165.13,163.5 C 165.35,163.42 165.9,163.16 166.09,163.0 C 166.17,162.94 166.21,162.87 166.25,162.78 C 166.29,162.69 166.26,162.59 166.28,162.5 C 166.31,162.37 166.44,162.45 166.47,162.56 C 166.49,162.66 166.49,162.72 166.47,162.81 C 166.43,163.01 166.34,163.17 166.25,163.34 C 166.21,163.43 166.16,163.51 166.13,163.59 C 166.11,163.63 166.11,163.65 166.09,163.69 C 166.09,163.69 166.1,163.72 166.09,163.72 C 166.12,163.72 166.16,163.73 166.19,163.72 C 166.44,163.61 166.74,162.92 166.81,162.72 C 166.81,162.74 166.84,162.73 166.84,162.75 C 166.85,162.81 166.84,162.88 166.84,162.94 C 166.85,163.04 166.84,163.14 166.84,163.25 C 166.84,163.47 166.83,163.69 166.81,163.91 C 166.8,164.06 166.77,164.3 166.63,164.41 C 166.53,164.48 166.23,164.52 166.13,164.56 C 165.75,164.71 165.58,165.05 165.63,165.44 C 165.65,165.62 165.73,165.79 165.75,165.97 C 165.76,166.06 165.74,166.16 165.72,166.25 C 165.71,166.29 165.7,166.33 165.69,166.38 C 165.68,166.39 165.67,166.4 165.69,166.41 C 165.7,166.41 165.71,166.43 165.72,166.44 C 165.74,166.45 165.76,166.46 165.78,166.47 C 165.86,166.51 165.92,166.55 166.0,166.59 C 166.03,166.61 166.04,166.57 166.06,166.56 C 166.08,166.55 166.1,166.57 166.13,166.56 C 166.17,166.55 166.2,166.51 166.25,166.5 C 166.5,166.47 166.57,166.64 166.63,166.84 C 166.64,166.89 166.65,166.92 166.66,166.97 C 166.66,166.99 166.65,167.01 166.66,167.03 C 166.66,167.04 166.69,167.02 166.69,167.03 C 166.73,166.95 166.77,166.86 166.81,166.78 C 166.88,166.64 166.93,166.4 167.16,166.41 C 167.35,166.42 167.5,166.59 167.59,166.72 C 167.69,166.84 167.82,167.07 168.03,166.97 C 168.13,166.92 168.17,166.85 168.19,166.75 C 168.2,166.7 168.19,166.67 168.19,166.63 C 168.19,166.64 168.21,166.64 168.22,166.66 C 168.32,166.84 168.46,166.95 168.69,166.94 C 169.06,166.92 169.35,166.55 169.59,166.38 C 169.89,166.16 170.19,166.0 170.44,165.72 C 170.77,165.36 170.73,165.11 170.63,164.69 C 170.54,164.32 170.5,164.0 170.63,163.63 C 170.74,163.28 170.94,162.97 171.06,162.63 C 171.28,161.99 171.19,161.21 171.03,160.59 C 170.81,159.73 170.6,159.44 170.22,158.66 C 170.07,158.34 169.93,158.05 169.94,157.69 C 169.94,157.51 169.97,157.35 170.03,157.19 C 170.06,157.11 170.09,157.02 170.13,156.94 C 170.13,156.92 170.15,156.93 170.16,156.91 C 170.17,156.89 170.19,156.93 170.19,156.94 C 170.19,156.95 170.19,156.96 170.19,156.97 C 170.2,157.01 170.21,157.05 170.22,157.09 C 170.31,157.43 170.42,157.73 170.59,158.03 C 170.64,158.11 170.67,158.18 170.72,158.25 C 170.74,158.29 170.76,158.34 170.78,158.38 C 170.79,158.39 170.83,158.39 170.84,158.41 C 170.85,158.4 170.87,158.41 170.88,158.41 C 170.93,158.24 170.95,158.08 170.97,157.91 C 171.03,157.27 170.76,156.45 170.5,155.91 C 170.43,155.75 170.34,155.62 170.25,155.47 C 170.26,155.47 170.28,155.47 170.28,155.47 C 170.3,155.48 170.32,155.49 170.34,155.5 C 170.39,155.52 170.43,155.51 170.47,155.53 C 170.56,155.58 170.64,155.63 170.72,155.69 C 170.9,155.84 171.01,156.03 171.09,156.25 C 171.14,156.37 171.16,156.5 171.19,156.63 C 171.19,156.61 171.22,156.63 171.22,156.63 C 171.23,156.59 171.21,156.57 171.22,156.53 C 171.23,156.46 171.24,156.38 171.25,156.31 C 171.3,155.88 171.24,155.52 171.06,155.13 C 170.9,154.77 170.69,154.53 170.38,154.31 C 170.14,154.15 169.76,153.91 169.69,153.56 C 169.64,153.31 169.75,152.75 169.75,152.5 C 169.76,152.16 169.69,151.83 169.41,151.59 C 169.12,151.35 168.75,151.27 168.44,151.09 C 168.08,150.89 168.05,150.57 168.16,150.22 C 168.23,149.98 168.53,149.51 168.66,149.31 C 168.86,148.98 169.09,148.66 169.28,148.31 C 169.31,148.26 169.35,148.21 169.38,148.16 C 169.38,148.14 169.37,148.11 169.38,148.09 C 169.39,148.07 169.36,148.12 169.34,148.13 C 169.32,148.14 169.31,148.14 169.28,148.16 C 169.18,148.21 169.06,148.25 168.97,148.31 C 168.8,148.42 168.65,148.56 168.5,148.69 C 168.43,148.75 168.34,148.81 168.28,148.88 C 168.36,148.76 168.42,148.62 168.5,148.5 C 168.69,148.2 168.85,147.89 169.0,147.56 C 169.08,147.39 169.15,147.21 169.22,147.03 C 169.26,146.93 169.31,146.83 169.34,146.72 C 169.35,146.69 169.32,146.71 169.31,146.72 C 169.3,146.73 169.26,146.74 169.25,146.75 C 169.22,146.76 169.21,146.77 169.19,146.78 C 169.14,146.81 169.11,146.84 169.06,146.88 C 168.8,147.07 168.55,147.3 168.38,147.56 C 168.41,147.48 168.44,147.42 168.47,147.34 C 168.53,147.19 168.59,147.03 168.66,146.88 C 168.78,146.55 168.9,146.24 169.0,145.91 C 169.04,145.76 169.08,145.61 169.13,145.47 C 169.13,145.44 169.11,145.49 169.09,145.5 C 169.08,145.51 169.05,145.52 169.03,145.53 C 169.0,145.55 169.0,145.57 168.97,145.59 C 168.92,145.63 168.86,145.68 168.81,145.72 C 168.68,145.84 168.58,145.99 168.47,146.13 C 168.41,146.19 168.37,146.25 168.31,146.31 C 168.29,146.35 168.24,146.37 168.22,146.41 C 168.33,146.19 168.44,145.97 168.53,145.75 C 168.78,145.13 168.94,144.4 168.66,143.72 C 168.65,143.73 168.63,143.74 168.63,143.75 C 168.62,143.77 168.63,143.8 168.63,143.81 C 168.61,143.85 168.58,143.87 168.56,143.91 C 168.53,143.99 168.5,144.07 168.47,144.16 C 168.41,144.34 168.36,144.51 168.28,144.69 C 168.23,144.79 168.18,144.9 168.13,145.0 C 168.09,145.07 168.07,145.12 168.03,145.19 C 168.01,145.23 167.96,145.27 167.94,145.31 C 167.93,145.33 167.92,145.35 167.91,145.38 C 167.95,145.21 167.98,145.02 168.0,144.84 C 168.13,143.78 167.83,143.38 167.56,142.44 C 167.46,142.09 167.36,141.73 167.28,141.38 C 167.27,141.4 167.26,141.42 167.25,141.44 C 167.23,141.48 167.2,141.52 167.19,141.56 C 167.15,141.66 167.13,141.78 167.09,141.88 C 167.0,142.15 166.92,142.41 166.84,142.69 C 166.83,142.76 166.8,142.81 166.78,142.88 C 166.78,142.82 166.78,142.75 166.78,142.69 C 166.77,142.51 166.75,142.33 166.72,142.16 C 166.66,141.8 166.55,141.46 166.41,141.13 C 166.26,140.79 166.09,140.49 165.84,140.22 C 165.72,140.09 165.61,139.98 165.47,139.88 C 165.4,139.82 165.33,139.77 165.25,139.72 C 165.21,139.7 165.16,139.68 165.13,139.66 C 165.08,139.63 165.07,139.73 165.06,139.75 C 165.02,139.83 164.96,139.9 164.91,139.97 C 164.85,140.04 164.78,140.08 164.72,140.16 C 164.59,140.33 164.65,140.51 164.75,140.66 C 165.01,141.04 165.28,141.09 164.91,141.56 C 163.58,143.22 164.82,144.13 165.16,145.59 C 165.32,146.3 165.28,147.03 164.84,147.66 C 164.74,147.81 164.63,147.94 164.5,148.06 C 164.44,148.13 164.35,148.19 164.28,148.25 C 164.27,148.26 164.21,148.33 164.19,148.31 C 164.15,148.29 164.1,148.27 164.06,148.25 C 163.74,148.09 163.41,147.97 163.06,147.88 C 162.35,147.69 161.65,147.72 160.94,147.81 C 160.23,147.91 159.55,148.02 158.84,148.13 C 157.32,148.36 155.8,148.59 154.25,148.63 C 153.53,148.64 152.83,148.62 152.13,148.47 C 151.63,148.36 150.98,148.14 150.63,147.72 C 152.76,148.03 154.73,146.54 155.03,144.41 C 155.34,142.25 153.82,140.27 151.66,140.0 C 149.49,139.73 147.54,141.27 147.31,143.44 C 147.26,143.96 147.29,144.47 147.44,144.97 C 147.45,145.0 147.46,145.0 147.47,145.03 C 147.47,145.05 147.45,145.03 147.44,145.03 C 147.43,145.03 147.42,145.06 147.41,145.06 C 147.37,145.07 147.35,145.06 147.31,145.06 C 147.24,145.08 147.17,145.1 147.09,145.13 C 146.94,145.19 146.78,145.27 146.66,145.38 C 146.59,145.44 146.53,145.53 146.47,145.59 C 146.43,145.63 146.38,145.65 146.34,145.69 C 146.32,145.71 146.33,145.73 146.31,145.75 C 146.31,145.75 146.29,145.74 146.28,145.75 C 146.32,145.63 146.35,145.5 146.38,145.38 C 146.44,145.12 146.48,144.86 146.5,144.59 C 146.61,143.42 146.34,142.5 145.53,141.63 C 144.7,140.72 144.02,140.47 143.66,139.13 C 143.53,138.66 143.51,138.19 143.47,137.72 C 143.43,137.25 143.32,136.83 143.03,136.44 C 142.92,136.29 142.78,136.17 142.63,136.06 C 142.59,136.04 142.6,136.0 142.59,135.97 C 142.59,135.94 142.57,135.91 142.56,135.88 C 142.55,135.81 142.52,135.75 142.5,135.69 C 142.43,135.44 142.37,135.19 142.31,134.94 C 142.25,134.69 142.18,134.45 142.06,134.22 C 141.96,134.02 141.77,133.72 141.5,133.69 C 141.31,133.67 141.13,133.78 141.03,133.94 C 140.92,134.12 140.89,134.27 140.88,134.47 C 140.84,134.85 140.8,135.22 140.72,135.59 C 140.64,135.96 140.54,136.33 140.44,136.69 C 140.43,136.67 140.42,136.65 140.41,136.63 C 140.39,136.58 140.36,136.54 140.34,136.5 C 140.31,136.42 140.25,136.34 140.22,136.25 C 140.15,136.08 140.09,135.89 140.03,135.72 C 139.78,135.01 139.53,134.31 139.53,133.53 C 139.53,133.34 139.54,133.18 139.44,133.0 C 139.37,132.87 139.23,132.74 139.09,132.75 z M 151.19,141.91 C 151.44,141.91 151.67,141.96 151.91,142.06 C 152.14,142.16 152.38,142.29 152.56,142.47 C 152.74,142.65 152.87,142.86 152.97,143.09 C 153.07,143.33 153.13,143.59 153.13,143.84 C 153.13,144.1 153.07,144.36 152.97,144.59 C 152.87,144.83 152.74,145.04 152.56,145.22 C 152.38,145.4 152.14,145.56 151.91,145.66 C 151.67,145.75 151.44,145.81 151.19,145.81 C 150.93,145.81 150.67,145.75 150.44,145.66 C 150.2,145.56 149.99,145.4 149.81,145.22 C 149.63,145.04 149.47,144.83 149.38,144.59 C 149.28,144.36 149.22,144.1 149.22,143.84 C 149.22,143.59 149.28,143.33 149.38,143.09 C 149.47,142.86 149.63,142.65 149.81,142.47 C 149.99,142.29 150.2,142.16 150.44,142.06 C 150.67,141.96 150.93,141.91 151.19,141.91 z"
		 />
		 <path style="fill:#f00;stroke:none;"
		 d="M 140.16,136.56 C 139.65,136.93 139.13,137.34 138.56,137.75 C 138.58,137.82 138.6,137.87 138.63,137.94 C 138.67,138.07 138.6,138.14 138.47,138.13 C 138.33,138.11 138.2,138.12 138.06,138.13 C 137.58,138.48 137.1,138.81 136.63,139.16 C 136.57,139.06 136.52,138.98 136.47,138.88 C 136.45,138.89 136.43,138.89 136.41,138.91 C 136.09,139.11 135.75,139.23 135.38,139.28 C 135.27,139.3 135.17,139.28 135.06,139.28 C 135.07,139.39 135.08,139.52 135.09,139.63 C 134.5,139.6 133.9,139.56 133.31,139.53 C 133.35,139.6 133.37,139.66 133.41,139.72 C 133.48,139.83 133.56,139.95 133.66,140.03 C 133.74,140.1 133.84,140.14 133.94,140.19 C 134.03,140.23 134.12,140.26 134.22,140.28 C 134.32,140.3 134.43,140.34 134.53,140.34 C 134.7,140.35 134.74,140.5 134.59,140.59 C 134.45,140.68 134.3,140.78 134.16,140.88 C 134.14,140.89 134.11,140.89 134.09,140.91 C 134.3,141.0 134.51,141.1 134.72,141.19 L 133.47,143.09 C 133.06,143.72 132.7,144.32 132.34,144.88 C 132.88,144.49 133.43,144.07 134.03,143.63 C 134.65,143.17 135.26,142.73 135.88,142.28 C 136.22,142.96 136.59,143.63 136.94,144.31 C 137.28,144.98 137.57,145.6 137.88,146.19 C 137.81,145.53 137.74,144.83 137.66,144.09 C 137.57,143.34 137.49,142.57 137.41,141.81 C 138.17,141.85 138.93,141.9 139.69,141.94 C 140.43,141.97 141.15,142.0 141.81,142.03 C 141.21,141.76 140.56,141.49 139.88,141.19 C 139.18,140.88 138.48,140.56 137.78,140.25 C 138.19,139.61 138.62,138.98 139.03,138.34 C 139.44,137.72 139.8,137.12 140.16,136.56 z M 143.31,137.84 C 143.27,137.87 143.23,137.88 143.19,137.91 C 142.35,138.4 141.52,138.91 140.69,139.41 C 141.64,139.36 142.58,139.3 143.53,139.25 C 143.53,139.24 143.54,139.23 143.53,139.22 C 143.45,138.92 143.41,138.59 143.38,138.28 C 143.36,138.13 143.32,137.99 143.31,137.84 z M 164.47,142.75 C 164.46,142.78 164.47,142.78 164.47,142.81 C 164.46,142.91 164.43,143.03 164.44,143.13 C 164.44,143.21 164.45,143.26 164.47,143.34 C 164.5,143.51 164.56,143.69 164.63,143.84 C 164.69,144.01 164.77,144.18 164.84,144.34 C 164.99,144.38 165.11,144.41 165.25,144.44 C 165.49,144.49 165.76,144.53 166.0,144.56 C 166.32,144.61 166.64,144.64 166.97,144.66 C 167.27,144.68 167.57,144.69 167.88,144.69 C 167.89,144.46 167.91,144.22 167.88,144.0 C 167.85,143.8 167.78,143.63 167.72,143.44 C 167.7,143.38 167.68,143.31 167.66,143.25 C 167.42,143.25 167.18,143.24 166.94,143.22 C 166.79,143.21 166.65,143.21 166.5,143.19 C 166.36,143.17 166.23,143.15 166.09,143.13 C 165.87,143.09 165.63,143.05 165.41,143.0 C 165.18,142.95 164.97,142.88 164.75,142.81 C 164.66,142.79 164.56,142.78 164.47,142.75 z M 139.66,143.94 L 139.69,144.0 L 139.78,144.13 C 139.9,144.32 140.03,144.53 140.16,144.72 C 141.3,146.49 141.96,147.5 142.94,149.38 C 143.15,149.78 143.37,150.19 143.56,150.59 C 143.61,150.7 143.67,150.77 143.72,150.88 C 143.74,150.93 143.76,150.98 143.78,151.03 C 143.79,151.05 143.79,151.08 143.78,151.09 C 143.77,151.11 143.76,151.11 143.75,151.13 C 143.74,151.15 143.73,151.16 143.72,151.19 C 143.62,151.39 143.53,151.6 143.44,151.81 C 143.08,152.65 142.79,153.51 142.59,154.41 C 142.57,154.52 142.55,154.63 142.53,154.75 C 142.53,154.77 142.53,154.84 142.5,154.81 C 142.48,154.79 142.46,154.77 142.44,154.75 C 142.4,154.71 142.38,154.64 142.34,154.59 C 142.19,154.42 142.02,154.24 141.88,154.06 C 141.18,153.21 140.48,152.38 139.78,151.53 C 139.69,151.42 139.62,151.29 139.53,151.19 C 139.49,151.13 139.45,151.08 139.41,151.03 C 139.38,151.0 139.37,151.0 139.34,150.97 C 139.34,150.97 139.32,150.97 139.31,150.97 C 139.31,150.98 139.31,150.99 139.31,151.0 C 139.29,151.2 139.27,151.42 139.25,151.63 C 139.23,151.83 139.21,152.01 139.19,152.22 C 139.19,152.23 139.16,152.26 139.19,152.25 C 139.2,152.24 139.21,152.26 139.22,152.25 C 139.24,152.24 139.26,152.23 139.28,152.22 C 139.32,152.2 139.36,152.17 139.41,152.16 C 139.51,152.11 139.73,151.97 139.78,152.16 C 139.82,152.28 139.56,152.45 139.5,152.5 C 139.37,152.62 139.25,152.75 139.13,152.88 C 139.08,152.92 139.1,153.07 139.09,153.13 C 139.08,153.23 139.07,153.34 139.06,153.44 C 139.04,153.64 139.02,153.86 139.0,154.06 C 139.0,154.06 139.03,154.07 139.03,154.06 C 139.05,154.05 139.05,154.05 139.06,154.03 C 139.09,154.0 139.12,153.96 139.16,153.94 C 139.22,153.9 139.29,153.91 139.34,153.97 C 139.46,154.08 139.27,154.26 139.22,154.34 C 139.13,154.5 139.07,154.65 139.0,154.81 C 138.96,154.89 138.89,154.97 138.88,155.06 C 138.86,155.18 138.86,155.29 138.84,155.41 C 138.83,155.52 138.8,155.66 138.78,155.78 C 138.78,155.81 138.79,155.81 138.78,155.84 C 138.78,155.86 138.78,155.89 138.78,155.91 C 138.75,155.87 138.69,155.85 138.66,155.81 C 138.65,155.8 138.63,155.76 138.63,155.78 L 138.59,155.81 C 138.59,155.83 138.6,155.85 138.59,155.88 C 138.58,155.92 138.57,155.96 138.56,156.0 C 138.54,156.08 138.52,156.16 138.5,156.25 C 138.42,156.59 138.36,156.96 138.34,157.31 C 138.34,157.4 138.34,157.48 138.34,157.56 C 138.34,157.59 138.36,157.6 138.38,157.63 C 138.38,157.63 138.41,157.67 138.41,157.69 C 138.39,157.74 138.39,157.82 138.38,157.88 C 138.35,157.95 138.4,158.34 138.41,158.41 L 138.41,158.47 C 138.41,158.46 138.43,158.45 138.44,158.44 C 138.45,158.4 138.45,158.35 138.47,158.31 C 138.5,158.23 138.53,158.15 138.56,158.06 C 138.63,157.9 138.73,157.72 138.81,157.56 C 138.9,157.4 138.97,157.26 139.09,157.13 C 139.16,157.06 139.37,156.83 139.5,156.91 C 139.64,156.99 139.5,157.22 139.47,157.31 C 139.42,157.48 139.38,157.64 139.34,157.81 C 139.28,158.15 139.22,158.5 139.19,158.84 C 139.17,159.02 139.18,159.2 139.19,159.38 C 139.19,159.46 139.2,159.54 139.22,159.63 C 139.23,159.67 139.26,159.71 139.28,159.75 C 139.29,159.73 139.28,159.7 139.28,159.69 C 139.29,159.66 139.3,159.62 139.31,159.59 C 139.35,159.48 139.4,159.39 139.44,159.28 C 139.46,159.23 139.48,159.15 139.5,159.09 C 139.5,159.08 139.53,159.09 139.53,159.09 C 139.54,159.11 139.52,159.11 139.53,159.13 C 139.55,159.15 139.58,159.19 139.59,159.22 C 139.73,159.41 139.87,159.59 140.0,159.78 C 141.06,161.34 141.95,162.95 142.69,164.69 C 142.87,165.12 143.07,165.54 143.25,165.97 C 143.27,166.02 143.29,166.1 143.31,166.16 C 143.32,166.18 143.35,166.19 143.38,166.19 C 143.39,166.19 143.39,166.18 143.41,166.19 C 143.5,166.23 143.48,166.3 143.5,166.38 C 143.55,166.54 143.63,166.71 143.75,166.84 C 143.87,166.99 144.0,167.06 144.19,167.09 C 144.27,167.11 144.35,167.1 144.44,167.09 C 144.46,167.09 144.48,167.1 144.5,167.09 C 144.51,167.09 144.52,167.1 144.53,167.09 C 144.55,167.09 144.56,167.07 144.56,167.06 C 144.55,167.01 144.54,166.96 144.53,166.91 C 144.45,166.45 144.36,165.96 144.28,165.5 C 143.88,163.25 143.69,162.23 143.63,159.94 C 143.61,159.47 143.62,159.0 143.63,158.53 C 143.63,158.41 143.62,158.3 143.63,158.19 L 143.63,158.0 L 143.63,157.94 C 143.63,157.92 143.62,157.89 143.63,157.88 C 143.63,157.86 143.61,157.83 143.63,157.84 C 143.81,157.99 144.0,158.14 144.19,158.28 C 144.57,158.56 144.97,158.79 145.38,159.03 C 145.58,159.15 145.76,159.29 145.97,159.41 C 146.07,159.46 146.18,159.51 146.28,159.56 C 146.3,159.57 146.31,159.65 146.31,159.66 C 146.32,159.69 146.31,159.69 146.31,159.72 C 146.32,159.78 146.34,159.85 146.34,159.91 C 146.59,161.79 146.71,163.66 147.03,165.53 C 147.05,165.65 147.07,165.79 147.09,165.91 C 147.1,165.96 147.11,166.0 147.13,166.06 L 147.13,166.13 C 147.13,166.14 147.15,166.1 147.16,166.09 C 147.16,166.07 147.15,166.05 147.16,166.03 C 147.19,165.95 147.23,165.87 147.25,165.78 C 147.27,165.7 147.29,165.61 147.34,165.53 C 147.4,165.46 147.43,165.48 147.5,165.53 C 147.57,165.59 147.62,165.66 147.69,165.72 C 147.84,165.87 147.97,165.86 148.16,165.78 C 148.24,165.75 148.31,165.72 148.38,165.66 C 148.41,165.63 148.44,165.6 148.47,165.56 C 148.49,165.54 148.47,165.42 148.47,165.41 C 148.43,165.17 148.38,164.92 148.34,164.69 C 148.28,164.22 148.24,163.75 148.19,163.28 C 148.08,162.34 147.96,161.38 147.84,160.44 C 147.84,160.38 147.85,160.34 147.84,160.28 C 147.85,160.28 147.87,160.28 147.88,160.28 C 147.89,160.29 147.89,160.31 147.91,160.31 C 147.93,160.32 147.97,160.33 148.0,160.34 C 148.11,160.39 148.23,160.43 148.34,160.47 C 148.57,160.55 148.77,160.61 149.0,160.69 C 149.45,160.83 149.91,160.98 150.38,161.09 C 150.84,161.21 151.31,161.3 151.78,161.38 C 151.9,161.39 152.01,161.42 152.13,161.44 C 152.18,161.45 152.22,161.43 152.28,161.44 C 152.31,161.44 152.35,161.46 152.38,161.47 L 152.44,161.47 C 152.45,161.47 152.44,161.49 152.44,161.5 C 152.44,161.74 152.41,161.98 152.41,162.22 C 152.4,162.69 152.42,163.18 152.47,163.66 C 152.49,163.89 152.54,164.11 152.59,164.34 C 152.6,164.37 152.59,164.4 152.63,164.41 C 152.65,164.41 152.67,164.4 152.69,164.41 C 152.73,164.41 152.77,164.43 152.81,164.44 C 152.9,164.44 152.97,164.44 153.06,164.44 C 153.25,164.43 153.45,164.4 153.63,164.34 C 153.71,164.32 153.79,164.26 153.88,164.22 C 153.92,164.2 153.96,164.18 154.0,164.16 C 154.03,164.14 153.97,164.02 153.97,164.0 C 153.87,163.5 153.88,163.0 153.88,162.5 C 153.87,162.25 153.87,162.0 153.88,161.75 C 153.88,161.72 153.87,161.69 153.88,161.66 C 153.88,161.64 153.87,161.64 153.88,161.63 C 153.88,161.61 153.87,161.59 153.88,161.59 C 153.88,161.59 153.9,161.59 153.91,161.59 C 153.97,161.6 154.03,161.62 154.09,161.63 C 154.22,161.63 154.34,161.62 154.47,161.63 C 154.97,161.64 155.47,161.65 155.97,161.63 C 156.22,161.61 156.47,161.58 156.72,161.56 C 156.77,161.56 156.75,161.63 156.75,161.66 L 156.72,161.75 C 156.71,161.81 156.73,161.88 156.72,161.94 C 156.71,162.06 156.67,162.19 156.66,162.31 C 156.63,162.56 156.6,162.78 156.56,163.03 C 156.55,163.09 156.54,163.16 156.53,163.22 C 156.53,163.23 156.53,163.27 156.53,163.28 C 156.53,163.29 156.51,163.32 156.53,163.31 L 156.59,163.31 C 156.69,163.3 156.78,163.27 156.88,163.25 C 157.26,163.18 157.54,163.04 157.81,162.75 C 157.88,162.68 157.94,162.63 158.0,162.56 C 158.03,162.53 158.06,162.47 158.09,162.44 C 158.12,162.41 158.12,162.37 158.13,162.34 C 158.13,162.31 158.12,162.28 158.13,162.25 C 158.15,162.0 158.17,161.78 158.19,161.53 C 158.19,161.5 158.22,161.47 158.22,161.44 C 158.22,161.41 158.27,161.41 158.28,161.41 C 158.34,161.4 158.41,161.38 158.47,161.38 C 158.59,161.36 158.72,161.33 158.84,161.31 C 159.09,161.27 159.35,161.24 159.59,161.19 C 159.84,161.14 160.07,161.09 160.31,161.03 C 160.37,161.02 160.44,160.98 160.5,160.97 C 160.53,160.96 160.57,160.96 160.59,160.94 C 160.61,160.92 160.61,160.92 160.63,160.91 C 160.69,160.84 160.77,160.78 160.84,160.72 C 161.15,160.47 161.45,160.33 161.84,160.31 C 161.91,160.31 162.31,160.3 162.38,160.38 C 162.39,160.39 162.37,160.42 162.38,160.44 C 162.38,160.47 162.42,160.44 162.44,160.44 C 162.5,160.42 162.57,160.39 162.63,160.38 C 162.74,160.34 162.85,160.29 162.97,160.25 C 163.09,160.21 163.23,160.17 163.34,160.13 C 163.4,160.1 163.44,160.08 163.5,160.06 C 163.53,160.05 163.56,160.04 163.59,160.03 C 163.6,160.03 163.62,160.03 163.63,160.03 C 163.63,160.05 163.65,160.05 163.66,160.06 C 163.75,160.3 163.83,160.54 163.91,160.78 C 164.06,161.26 164.2,161.74 164.34,162.22 C 164.41,162.46 164.49,162.7 164.56,162.94 C 164.6,163.06 164.62,163.16 164.66,163.28 C 164.67,163.34 164.7,163.41 164.72,163.47 C 164.72,163.49 164.74,163.47 164.75,163.47 C 164.76,163.47 164.77,163.47 164.78,163.47 C 164.8,163.46 164.82,163.44 164.84,163.44 C 165.21,163.34 165.52,163.16 165.84,162.97 C 165.88,162.94 165.93,162.93 165.97,162.91 C 165.99,162.89 166.01,162.86 166.03,162.84 C 166.06,162.82 166.01,162.81 166.0,162.78 C 165.96,162.66 165.94,162.53 165.91,162.41 C 165.84,162.16 165.76,161.93 165.69,161.69 C 165.55,161.2 165.41,160.73 165.25,160.25 C 165.17,160.01 165.09,159.77 165.0,159.53 C 164.99,159.51 164.96,159.49 165.0,159.47 C 165.03,159.46 165.06,159.45 165.09,159.44 C 165.15,159.41 165.19,159.37 165.25,159.34 C 165.36,159.29 165.48,159.24 165.59,159.19 C 166.05,158.98 166.49,158.76 166.94,158.53 C 167.83,158.08 168.73,157.59 169.63,157.13 C 169.74,157.07 169.86,157.03 169.97,156.97 C 170.02,156.94 170.01,156.89 170.03,156.84 C 170.05,156.81 170.09,156.77 170.13,156.75 C 170.28,156.65 170.42,157.01 170.47,157.09 C 170.53,157.2 170.6,157.33 170.66,157.44 C 170.69,157.49 170.72,157.54 170.75,157.59 C 170.76,157.62 170.77,157.66 170.78,157.69 C 170.79,157.71 170.84,157.8 170.84,157.75 C 170.85,157.56 170.82,157.37 170.78,157.19 C 170.71,156.82 170.59,156.47 170.44,156.13 C 170.36,155.95 170.28,155.79 170.19,155.63 C 170.14,155.55 170.09,155.51 170.09,155.41 C 170.1,155.32 170.14,155.31 170.22,155.31 C 170.37,155.32 170.68,155.51 170.78,155.59 C 170.88,155.68 170.99,155.76 171.06,155.88 C 171.08,155.9 171.11,155.94 171.13,155.97 C 171.12,155.92 171.13,155.89 171.13,155.84 C 171.11,155.66 171.07,155.46 171.0,155.28 C 170.97,155.19 170.92,155.11 170.88,155.03 C 170.85,154.99 170.84,154.98 170.81,154.94 C 170.8,154.92 170.76,154.93 170.75,154.94 C 170.73,154.95 170.73,154.95 170.72,154.94 C 170.7,154.91 170.68,154.87 170.66,154.84 C 170.58,154.75 170.52,154.66 170.44,154.56 C 170.4,154.52 170.36,154.47 170.31,154.44 C 170.27,154.41 170.23,154.37 170.19,154.34 C 170.03,154.24 169.88,154.14 169.75,154.0 C 169.69,153.93 169.63,153.87 169.59,153.78 C 169.57,153.74 169.57,153.7 169.56,153.66 C 169.55,153.62 169.52,153.61 169.5,153.59 C 169.48,153.57 169.46,153.55 169.44,153.53 C 169.25,153.36 169.07,153.19 168.88,153.03 C 168.09,152.39 167.24,151.84 166.34,151.38 C 164.54,150.44 162.9,150.1 160.91,149.94 C 159.97,149.86 159.03,149.83 158.09,149.78 C 157.62,149.76 157.16,149.75 156.69,149.72 C 156.45,149.7 156.2,149.67 155.97,149.66 C 155.91,149.65 155.87,149.66 155.81,149.66 C 155.78,149.65 155.75,149.63 155.72,149.63 C 155.69,149.62 155.68,149.66 155.66,149.63 C 155.6,149.52 155.53,149.41 155.47,149.31 C 155.41,149.21 155.35,149.1 155.28,149.0 C 155.25,148.95 155.19,148.92 155.16,148.88 C 155.14,148.85 155.14,148.81 155.13,148.78 C 155.12,148.77 155.1,148.76 155.09,148.75 C 155.09,148.74 155.09,148.72 155.06,148.72 C 154.89,148.73 154.74,148.74 154.56,148.75 C 154.22,148.76 153.85,148.76 153.5,148.75 C 153.46,148.75 153.42,148.75 153.38,148.75 L 153.31,148.75 C 153.27,148.75 153.33,148.8 153.34,148.81 C 153.42,148.91 153.49,149.0 153.56,149.09 C 153.63,149.19 153.68,149.28 153.75,149.38 C 153.76,149.39 153.77,149.42 153.78,149.44 L 153.75,149.44 C 153.69,149.43 153.62,149.41 153.56,149.41 C 153.1,149.34 152.62,149.28 152.16,149.19 C 151.23,149.01 150.34,148.78 149.44,148.5 C 149.33,148.46 149.21,148.44 149.09,148.41 C 149.04,148.39 148.99,148.36 148.94,148.34 C 148.92,148.34 148.89,148.32 148.88,148.31 C 148.89,148.31 148.89,148.29 148.91,148.28 C 149.12,148.19 149.34,148.08 149.56,148.0 C 149.78,147.92 150.03,147.85 150.25,147.78 C 150.31,147.76 150.35,147.74 150.41,147.72 C 150.43,147.71 150.47,147.72 150.47,147.69 C 150.47,147.67 150.46,147.67 150.47,147.66 C 150.48,147.62 150.5,147.57 150.53,147.56 C 149.89,147.43 149.31,147.16 148.81,146.78 C 148.7,146.83 148.58,146.86 148.47,146.91 C 148.05,147.09 147.65,147.28 147.25,147.5 C 147.2,147.53 147.14,147.57 147.09,147.59 C 147.07,147.61 147.06,147.61 147.03,147.63 C 147.0,147.64 146.96,147.6 146.94,147.59 C 146.83,147.55 146.73,147.51 146.63,147.47 C 146.42,147.38 146.21,147.31 146.0,147.22 C 145.17,146.86 144.34,146.48 143.53,146.06 C 142.72,145.65 141.95,145.19 141.16,144.75 L 139.97,144.09 C 139.87,144.04 139.75,143.99 139.66,143.94 z M 168.63,144.13 C 168.58,144.25 168.57,144.38 168.53,144.5 C 168.51,144.56 168.49,144.6 168.47,144.66 C 168.46,144.67 168.44,144.68 168.44,144.69 C 168.51,144.68 168.59,144.66 168.66,144.66 C 168.67,144.54 168.67,144.4 168.66,144.28 C 168.65,144.24 168.66,144.2 168.66,144.16 C 168.65,144.14 168.63,144.14 168.63,144.13 z M 135.19,145.22 C 134.74,146.08 134.29,146.95 133.84,147.81 C 133.34,148.8 132.81,149.75 132.22,150.69 C 132.3,150.61 132.42,150.67 132.44,150.81 C 132.47,151.07 132.52,151.33 132.59,151.63 C 132.65,151.84 132.7,152.05 132.78,152.25 C 132.87,152.01 132.91,151.82 132.97,151.59 C 133.04,151.29 133.13,150.92 133.25,150.63 C 133.32,150.46 133.5,150.51 133.53,150.69 C 133.56,150.88 133.56,151.06 133.56,151.25 C 133.67,151.08 133.77,150.89 133.88,150.72 C 133.89,150.96 133.92,151.2 133.94,151.44 C 133.95,151.42 133.96,151.39 133.97,151.38 C 134.17,150.95 134.3,150.53 134.38,150.06 C 134.4,149.88 134.61,149.86 134.66,150.03 C 134.74,150.35 134.8,150.7 134.81,151.03 C 134.82,151.18 134.82,151.32 134.81,151.47 C 135.01,151.17 135.18,150.87 135.31,150.56 C 135.25,149.76 135.23,148.93 135.22,148.13 C 135.21,147.16 135.2,146.19 135.19,145.22 z M 165.25,147.13 C 165.21,147.23 165.18,147.34 165.13,147.44 C 165.04,147.6 164.96,147.77 164.84,147.91 C 165.69,148.21 166.5,148.51 167.34,148.81 C 167.58,148.9 167.83,149.0 168.06,149.09 C 168.03,149.05 168.02,148.97 168.06,148.91 C 168.37,148.49 168.64,148.04 168.88,147.53 C 168.79,147.53 168.71,147.51 168.63,147.5 C 168.54,147.6 168.47,147.73 168.41,147.84 C 168.31,148.01 168.08,147.86 168.16,147.69 C 168.19,147.62 168.22,147.54 168.25,147.47 C 168.06,147.45 167.87,147.46 167.69,147.44 C 166.88,147.34 166.06,147.22 165.25,147.13 z M 143.72,147.78 C 144.28,148.05 144.86,148.28 145.44,148.53 C 145.47,148.54 145.5,148.58 145.53,148.59 C 145.43,148.66 145.35,148.74 145.25,148.81 C 145.17,148.87 145.08,148.91 145.0,148.97 C 144.95,149.05 144.9,149.14 144.84,149.22 C 144.78,149.32 144.72,149.43 144.66,149.53 C 144.64,149.5 144.61,149.47 144.59,149.44 C 144.31,148.88 144.02,148.33 143.72,147.78 z M 169.03,148.47 C 168.94,148.53 168.86,148.56 168.78,148.63 C 168.58,148.78 168.43,148.94 168.28,149.09 C 168.26,149.12 168.22,149.12 168.19,149.13 C 168.3,149.17 168.39,149.24 168.5,149.28 C 168.55,149.2 168.61,149.11 168.66,149.03 C 168.78,148.84 168.91,148.67 169.03,148.47 z M 147.13,149.22 C 147.16,149.23 147.21,149.27 147.25,149.28 C 147.96,149.55 148.71,149.78 149.44,150.0 C 149.8,150.11 150.16,150.22 150.53,150.31 C 150.74,150.36 150.95,150.42 151.16,150.47 C 151.9,150.63 152.65,150.74 153.41,150.84 C 153.86,150.9 154.33,150.96 154.78,151.0 C 154.85,151.12 154.91,151.25 154.97,151.38 C 155.51,152.45 155.94,153.58 156.25,154.75 C 156.33,155.07 156.4,155.39 156.47,155.72 C 156.07,155.73 155.68,155.74 155.28,155.72 C 154.76,155.7 154.21,155.65 153.69,155.56 C 153.34,155.5 153.0,155.43 152.66,155.34 C 152.23,155.24 151.83,155.11 151.41,155.0 C 151.54,155.41 151.68,155.84 151.81,156.25 C 151.93,156.62 152.01,157.0 152.09,157.38 C 152.22,157.97 152.33,158.55 152.38,159.16 C 152.4,159.44 152.4,159.72 152.41,160.0 C 151.79,159.91 151.19,159.81 150.59,159.66 C 149.57,159.4 148.55,159.04 147.59,158.59 C 147.52,158.14 147.46,157.7 147.38,157.25 C 147.23,156.5 147.05,155.76 146.84,155.03 C 146.79,154.83 146.72,154.61 146.66,154.41 C 146.54,154.04 146.41,153.67 146.28,153.31 C 146.02,152.59 145.75,151.89 145.44,151.19 C 145.42,151.15 145.39,151.13 145.38,151.09 C 145.58,150.73 145.8,150.35 146.03,150.0 C 146.04,149.99 146.05,149.98 146.06,149.97 C 146.07,149.96 146.08,149.95 146.09,149.94 C 146.43,149.68 146.77,149.44 147.13,149.22 z M 132.16,150.78 C 132.04,150.96 131.93,151.16 131.81,151.34 C 131.83,151.42 131.85,151.49 131.88,151.56 C 131.9,151.66 131.92,151.76 131.97,151.84 C 131.99,151.87 132.01,151.91 132.03,151.94 C 132.04,151.94 132.06,151.93 132.06,151.94 C 132.04,151.7 132.04,151.46 132.06,151.22 C 132.08,151.08 132.1,150.92 132.16,150.78 z M 156.44,151.13 C 156.53,151.13 156.65,151.15 156.75,151.16 C 157.54,151.2 158.33,151.24 159.13,151.28 C 159.66,151.31 160.19,151.33 160.72,151.38 C 161.13,151.41 161.56,151.44 161.97,151.5 C 162.2,151.53 162.42,151.58 162.66,151.63 C 162.89,151.67 163.12,151.7 163.34,151.75 C 163.56,151.8 163.78,151.87 164.0,151.94 C 164.13,151.98 164.28,152.02 164.41,152.06 C 164.55,152.11 164.67,152.19 164.81,152.25 C 165.1,152.37 165.38,152.48 165.66,152.63 C 165.95,152.78 166.22,152.95 166.5,153.13 C 166.77,153.29 167.05,153.47 167.31,153.66 C 167.8,154.0 168.26,154.36 168.69,154.78 C 168.95,155.04 169.2,155.31 169.44,155.59 C 169.27,155.68 169.08,155.79 168.91,155.88 C 168.16,156.27 167.44,156.68 166.69,157.06 C 165.93,157.45 165.16,157.82 164.38,158.16 C 164.37,158.16 164.35,158.19 164.34,158.19 C 164.32,158.14 164.31,158.07 164.28,158.03 C 164.01,157.58 163.66,157.18 163.28,156.81 C 163.0,156.55 162.68,156.31 162.34,156.13 C 162.14,156.01 161.94,155.92 161.72,155.84 C 161.6,155.8 161.47,155.78 161.34,155.75 C 161.12,155.7 160.88,155.65 160.66,155.63 C 160.43,155.6 160.2,155.57 159.97,155.56 C 159.74,155.56 159.54,155.55 159.31,155.56 C 159.06,155.57 158.78,155.58 158.53,155.59 C 158.32,155.61 158.11,155.64 157.91,155.66 C 157.9,155.61 157.92,155.55 157.91,155.5 C 157.64,154.16 157.21,152.85 156.66,151.59 C 156.59,151.44 156.51,151.28 156.44,151.13 z M 144.56,152.84 C 144.65,153.05 144.73,153.26 144.81,153.47 C 144.93,153.79 145.05,154.11 145.16,154.44 C 145.24,154.69 145.33,154.94 145.41,155.19 C 145.6,155.83 145.74,156.5 145.88,157.16 C 145.92,157.35 145.96,157.55 146.0,157.75 C 145.99,157.75 145.98,157.72 145.97,157.72 C 145.58,157.48 145.21,157.24 144.84,156.97 C 144.47,156.69 144.13,156.37 143.78,156.06 C 143.81,155.81 143.86,155.57 143.91,155.31 C 143.95,155.07 143.98,154.84 144.03,154.59 C 144.1,154.29 144.19,153.98 144.28,153.69 C 144.37,153.4 144.45,153.13 144.56,152.84 z M 140.41,154.53 C 140.53,154.68 140.63,154.82 140.75,154.97 C 141.22,155.55 141.75,156.1 142.28,156.63 C 142.27,156.79 142.23,156.99 142.22,157.16 C 142.18,157.68 142.16,158.2 142.16,158.72 C 142.15,159.33 142.16,159.95 142.19,160.56 C 141.6,159.59 140.97,158.62 140.28,157.72 C 140.18,157.58 140.07,157.45 139.97,157.31 C 140.13,156.58 140.27,155.84 140.34,155.09 C 140.36,154.9 140.39,154.72 140.41,154.53 z M 137.84,155.06 C 137.78,155.29 137.72,155.54 137.69,155.78 C 137.74,155.72 137.8,155.63 137.84,155.56 C 137.92,155.46 137.99,155.36 138.06,155.25 C 138.0,155.19 137.94,155.12 137.88,155.06 C 137.87,155.06 137.85,155.07 137.84,155.06 z M 153.5,156.97 C 153.93,157.04 154.35,157.09 154.78,157.13 C 155.42,157.17 156.05,157.18 156.69,157.16 C 156.7,157.29 156.74,157.43 156.75,157.56 C 156.84,158.41 156.87,159.27 156.84,160.13 C 156.6,160.15 156.34,160.18 156.09,160.19 C 155.35,160.23 154.62,160.2 153.88,160.16 C 153.86,159.56 153.82,158.97 153.75,158.38 C 153.69,157.91 153.6,157.43 153.5,156.97 z M 159.88,157.0 C 160.04,157.0 160.18,157.02 160.34,157.03 C 160.5,157.05 160.66,157.06 160.81,157.09 C 160.99,157.13 161.17,157.19 161.34,157.25 C 161.47,157.29 161.57,157.34 161.69,157.41 C 161.89,157.52 162.08,157.66 162.25,157.81 C 162.5,158.05 162.75,158.31 162.94,158.59 C 162.96,158.63 162.98,158.68 163.0,158.72 C 162.8,158.79 162.61,158.87 162.41,158.94 C 161.53,159.24 160.62,159.49 159.72,159.69 C 159.24,159.79 158.77,159.86 158.28,159.94 C 158.29,159.51 158.27,159.08 158.25,158.66 C 158.23,158.12 158.19,157.59 158.13,157.06 C 158.33,157.05 158.55,157.04 158.75,157.03 C 159.12,157.01 159.5,156.99 159.88,157.0 z M 138.72,163.0 C 138.66,163.02 138.59,163.04 138.53,163.06 C 138.44,163.1 138.36,163.16 138.28,163.22 C 138.22,163.26 138.17,163.31 138.13,163.38 C 138.11,163.4 138.07,163.41 138.06,163.44 C 138.05,163.47 138.07,163.5 138.06,163.53 C 138.05,163.61 138.02,163.71 138.03,163.78 C 138.04,163.87 138.07,163.95 138.09,164.03 C 138.12,164.12 138.15,164.2 138.19,164.28 C 138.22,164.34 138.27,164.38 138.31,164.44 C 138.35,164.49 138.39,164.55 138.44,164.59 C 138.48,164.63 138.51,164.66 138.56,164.69 C 138.59,164.7 138.63,164.71 138.66,164.72 C 138.71,164.74 138.76,164.75 138.81,164.75 C 138.93,164.75 139.02,164.73 139.13,164.69 C 139.17,164.67 139.24,164.62 139.28,164.59 C 139.32,164.57 139.34,164.53 139.38,164.5 C 139.4,164.47 139.41,164.44 139.44,164.41 C 139.38,164.29 139.31,164.18 139.25,164.06 C 139.07,163.71 138.89,163.35 138.72,163.0 z M 166.53,164.59 C 166.48,164.61 166.42,164.62 166.38,164.63 C 166.32,164.64 166.24,164.67 166.19,164.69 C 166.1,164.72 166.01,164.74 165.94,164.81 C 165.9,164.85 165.87,164.92 165.84,164.97 C 165.81,165.03 165.8,165.09 165.78,165.16 C 165.77,165.23 165.75,165.3 165.75,165.38 C 165.75,165.42 165.77,165.46 165.78,165.5 C 165.81,165.63 165.85,165.77 165.88,165.91 C 165.89,165.98 165.88,166.05 165.88,166.13 C 165.87,166.2 165.86,166.27 165.84,166.34 C 165.9,166.38 165.94,166.4 166.0,166.44 C 166.04,166.42 166.09,166.42 166.13,166.41 C 166.17,166.39 166.21,166.38 166.25,166.38 C 166.28,166.37 166.31,166.37 166.34,166.38 C 166.38,166.38 166.43,166.39 166.47,166.41 C 166.5,166.42 166.53,166.42 166.56,166.44 C 166.59,166.46 166.6,166.48 166.63,166.5 C 166.65,166.53 166.67,166.56 166.69,166.59 C 166.7,166.61 166.71,166.64 166.72,166.66 C 166.73,166.62 166.73,166.6 166.75,166.56 C 166.78,166.5 166.83,166.45 166.88,166.41 C 166.9,166.38 166.93,166.33 166.97,166.31 C 167.01,166.29 167.05,166.29 167.09,166.28 C 167.14,166.27 167.17,166.27 167.22,166.28 C 167.26,166.29 167.31,166.29 167.34,166.31 C 167.38,166.33 167.43,166.35 167.47,166.38 C 167.5,166.4 167.53,166.44 167.56,166.47 C 167.65,166.56 167.7,166.65 167.78,166.75 C 167.79,166.76 167.83,166.8 167.84,166.81 C 167.9,166.81 167.98,166.79 168.03,166.78 C 168.04,166.77 168.03,166.76 168.03,166.75 C 168.04,166.72 168.03,166.69 168.03,166.66 C 168.03,166.63 168.06,166.62 168.06,166.59 C 168.06,166.41 168.24,166.36 168.31,166.53 C 168.34,166.59 168.36,166.64 168.41,166.69 C 168.42,166.7 168.45,166.74 168.47,166.75 C 168.66,166.73 168.84,166.69 169.03,166.66 C 169.07,166.63 169.12,166.59 169.16,166.56 C 169.21,166.51 169.26,166.45 169.31,166.41 C 169.35,166.38 169.37,166.34 169.41,166.31 C 169.48,166.25 169.58,166.21 169.66,166.16 C 169.81,166.05 169.95,165.96 170.09,165.84 C 170.2,165.76 170.29,165.67 170.38,165.56 C 170.44,165.48 170.5,165.41 170.53,165.31 C 170.55,165.26 170.56,165.21 170.56,165.16 C 170.56,165.1 170.54,165.05 170.53,165.0 C 170.52,164.94 170.51,164.87 170.5,164.81 C 170.23,164.89 169.96,164.97 169.69,165.03 C 169.38,165.11 169.09,165.17 168.78,165.22 C 168.54,165.26 168.3,165.32 168.06,165.34 C 167.71,165.38 167.36,165.37 167.0,165.38 C 166.95,165.38 166.89,165.38 166.84,165.38 C 166.83,165.34 166.82,165.32 166.81,165.28 C 166.73,165.05 166.67,164.83 166.59,164.59 C 166.57,164.6 166.55,164.59 166.53,164.59 z"
		 />
		<!-- Prism Reference -->
		<cam mingh:cam="--verb EditSelectAll --verb ZoomSelection --verb FileSave" /> 
	 </g>

</svg>
