<svg
   xmlns:xlink="http://www.w3.org/1999/xlink"
   xmlns:svg="http://www.w3.org/2000/svg"
   xmlns="http://www.w3.org/2000/svg"
   xmlns:mingh="http://www.minghworld.com"
   width="300px"
   height="300px" >
	 <g>
		
		<!-- Paths -->
		<path transform="matrix(-1 0 0 1 300 0)" style="fill:#ff0;stroke:none;"
		 d="M 163.03,127.03 C 162.76,127.02 162.38,127.28 162.19,127.41 C 161.7,127.73 161.24,128.09 160.84,128.53 C 160.49,128.93 160.21,129.34 159.97,129.81 C 159.73,130.28 159.52,130.76 159.44,131.28 C 159.4,131.53 159.39,131.78 159.41,132.03 C 159.42,132.16 159.44,132.28 159.47,132.41 C 159.49,132.48 159.51,132.55 159.53,132.63 C 159.54,132.66 159.61,132.78 159.56,132.81 C 159.52,132.85 159.38,132.82 159.34,132.81 C 159.27,132.81 159.17,132.81 159.09,132.81 C 158.96,132.82 158.84,132.84 158.72,132.88 C 158.45,132.94 158.22,133.05 157.97,133.16 C 157.47,133.37 157.01,133.62 156.63,134.03 C 155.87,134.83 155.46,136.01 155.06,136.97 C 154.97,137.18 154.77,137.65 154.63,137.84 C 154.44,138.08 154.23,138.12 153.97,138.16 C 153.72,138.19 152.94,138.19 152.69,138.16 C 152.39,138.12 151.89,137.96 151.56,138.13 C 150.8,138.51 150.89,139.13 151.13,139.81 C 151.21,140.06 151.3,140.3 151.44,140.53 C 151.47,140.59 151.57,140.66 151.53,140.75 C 151.5,140.82 151.41,140.88 151.38,140.94 C 151.33,141.01 151.33,141.07 151.34,141.16 C 151.38,141.39 151.55,141.61 151.69,141.78 C 151.92,142.06 152.18,142.28 152.5,142.47 C 152.86,142.68 153.23,142.77 153.63,142.84 C 153.8,142.87 153.98,142.93 154.16,142.94 C 154.49,142.96 154.82,142.91 155.16,142.94 C 155.5,142.96 155.66,143.05 155.97,143.19 C 156.2,143.29 156.41,143.35 156.66,143.41 C 156.9,143.46 157.16,143.51 157.41,143.5 C 157.61,143.5 157.93,143.43 157.91,143.75 C 157.89,143.95 157.8,144.26 157.69,144.44 C 157.49,144.76 157.18,144.81 156.84,144.78 C 156.53,144.75 156.24,144.68 155.94,144.59 C 155.55,144.49 155.16,144.35 154.78,144.22 C 154.04,143.96 153.32,143.67 152.63,143.31 C 151.92,142.96 151.26,142.58 150.63,142.13 C 149.99,141.67 149.4,141.18 148.72,140.78 C 148.55,140.68 148.36,140.59 148.19,140.5 C 148.1,140.46 148.03,140.42 147.94,140.38 C 147.89,140.35 147.86,140.33 147.81,140.31 C 147.79,140.3 147.74,140.29 147.72,140.28 C 147.73,140.28 147.71,140.25 147.72,140.25 C 148.13,140.22 148.52,140.13 148.91,139.97 C 149.66,139.65 150.3,139.11 150.72,138.41 C 151.58,136.96 151.41,135.12 150.28,133.88 C 149.15,132.63 147.33,132.25 145.81,132.97 C 144.29,133.68 143.42,135.33 143.66,137.0 C 143.77,137.81 144.14,138.54 144.72,139.13 C 144.75,139.16 144.78,139.22 144.81,139.25 C 144.83,139.27 144.86,139.26 144.88,139.28 C 144.88,139.29 144.87,139.31 144.88,139.31 C 144.78,139.29 144.69,139.27 144.59,139.25 C 144.4,139.2 144.19,139.14 144.0,139.09 C 143.45,138.97 142.9,138.89 142.34,138.78 C 141.71,138.66 141.07,138.53 140.44,138.41 C 140.06,138.33 139.69,138.27 139.31,138.22 C 138.7,138.14 138.09,138.14 137.47,138.16 C 136.72,138.18 136.01,138.24 135.28,138.44 C 134.87,138.55 134.46,138.69 134.06,138.84 C 133.74,138.97 133.43,139.14 133.06,139.16 C 132.77,139.17 132.51,139.03 132.56,138.69 C 132.61,138.4 132.74,138.18 132.88,137.94 C 133.05,137.62 133.25,137.31 133.44,137.0 C 134.0,136.06 134.45,134.98 134.28,133.81 C 134.22,133.35 134.09,132.97 133.75,132.63 C 133.3,132.17 132.69,132.09 132.09,132.16 C 131.47,132.23 130.27,132.55 129.78,133.03 C 129.38,133.43 129.65,133.75 129.75,134.16 C 129.94,134.91 129.95,136.03 129.53,136.75 C 129.21,137.31 128.67,137.82 128.25,138.28 C 128.11,138.43 127.99,138.61 127.88,138.78 C 127.78,138.93 127.71,139.07 127.69,139.25 C 127.65,139.56 127.7,139.93 127.91,140.19 C 128.18,140.53 128.73,140.71 129.09,140.81 C 129.51,140.93 129.93,141.0 130.34,141.13 C 130.6,141.2 131.17,141.35 131.28,141.69 C 131.34,141.88 131.32,142.15 131.31,142.34 C 131.3,142.57 131.3,142.81 131.31,143.03 C 131.36,144.14 131.35,144.95 131.69,146.03 C 131.8,146.4 131.95,146.77 132.09,147.13 C 132.19,147.37 132.3,147.61 132.34,147.88 C 132.45,148.55 131.8,149.05 131.28,149.28 C 130.47,149.64 130.2,149.49 129.38,149.72 C 128.65,149.92 128.04,150.12 127.63,150.84 C 127.24,151.51 127.36,152.27 127.47,152.94 C 127.68,154.27 127.87,155.58 127.81,156.94 C 127.78,157.66 127.58,159.59 127.5,160.31 C 127.45,160.82 127.4,161.34 127.31,161.84 C 127.25,162.19 127.05,162.41 126.84,162.66 C 126.56,162.99 126.25,163.29 125.94,163.59 C 125.59,163.93 125.23,164.21 124.88,164.53 C 124.61,164.76 124.17,165.15 124.06,165.53 C 123.98,165.83 124.13,166.21 124.22,166.47 C 124.36,166.86 124.56,167.2 124.84,167.5 C 125.14,167.82 125.47,168.08 125.84,168.31 C 126.27,168.58 126.78,168.71 127.28,168.66 C 127.75,168.61 128.14,168.46 128.53,168.22 C 128.8,168.05 129.03,167.82 129.22,167.56 C 129.8,166.78 130.27,165.96 130.66,165.06 C 130.79,164.75 130.99,164.49 131.22,164.25 C 131.47,163.98 131.76,163.74 131.97,163.44 C 132.42,162.78 132.4,161.9 132.38,161.19 C 132.36,160.66 132.36,160.15 132.41,159.63 C 132.44,159.24 132.48,158.83 132.5,158.44 C 132.53,157.83 132.54,157.26 132.53,156.66 C 132.53,156.43 132.53,156.19 132.53,155.97 C 132.53,155.88 132.52,155.78 132.53,155.69 C 132.54,155.64 132.51,155.6 132.56,155.56 C 132.6,155.53 132.64,155.57 132.66,155.59 C 132.7,155.65 132.72,155.72 132.75,155.78 C 132.84,155.96 132.92,156.13 133.0,156.31 C 133.2,156.8 133.43,157.3 133.66,157.78 C 134.35,159.27 135.03,160.77 135.81,162.22 C 136.55,163.58 137.51,165.59 138.44,166.84 C 138.73,167.23 139.17,167.73 139.28,168.25 C 139.34,168.51 139.32,168.78 139.31,169.03 C 139.3,169.35 139.29,169.68 139.31,170.0 C 139.37,170.69 139.61,171.6 140.38,171.94 C 140.78,172.11 141.17,172.14 141.59,172.16 C 142.02,172.17 142.43,172.17 142.84,172.03 C 142.97,171.99 143.1,171.94 143.22,171.88 C 143.28,171.84 143.32,171.82 143.38,171.78 C 143.4,171.76 143.41,171.74 143.44,171.72 C 143.46,171.7 143.49,171.73 143.5,171.75 C 143.53,171.81 143.53,171.85 143.56,171.91 C 143.6,171.97 143.64,172.01 143.69,172.06 C 143.89,172.27 144.08,172.49 144.34,172.63 C 144.79,172.86 145.34,172.87 145.81,172.91 C 146.1,172.93 146.71,173.0 147.0,172.97 C 147.29,172.94 147.46,172.81 147.56,172.53 C 147.68,172.22 147.83,171.42 147.91,171.09 C 147.99,170.69 148.12,170.3 148.25,169.91 C 148.42,169.41 148.63,168.94 148.84,168.47 C 149.46,167.12 150.04,165.74 150.69,164.41 C 150.86,164.05 151.07,163.73 151.25,163.38 C 151.33,163.22 151.41,163.04 151.47,162.88 C 151.49,162.81 151.5,162.75 151.53,162.69 C 151.62,162.5 151.77,162.39 151.94,162.28 C 152.42,161.98 152.85,161.8 153.19,161.28 C 153.43,160.91 153.4,160.56 153.34,160.16 C 153.29,159.82 153.32,159.51 153.41,159.19 C 153.57,158.6 154.01,157.66 154.28,157.13 C 154.67,156.36 154.75,156.26 155.06,155.47 C 155.09,155.41 155.15,155.28 155.19,155.38 C 155.24,155.49 155.24,155.6 155.25,155.72 C 155.28,155.97 155.3,156.22 155.31,156.47 C 155.37,157.31 155.41,157.52 155.56,158.34 C 155.71,159.12 155.86,159.89 156.06,160.66 C 156.35,161.74 156.58,162.57 156.75,163.69 C 156.88,164.55 156.99,165.41 157.06,166.28 C 157.11,166.82 157.16,167.35 157.28,167.88 C 157.45,168.59 157.76,169.41 158.38,169.91 C 158.6,170.09 158.83,170.22 159.09,170.31 C 159.46,170.44 159.86,170.52 160.25,170.53 C 160.85,170.56 161.24,170.31 161.41,169.72 C 161.51,169.36 161.52,168.8 161.5,168.44 C 161.46,167.63 161.34,166.83 161.25,166.03 C 161.17,165.32 161.11,164.61 160.97,163.91 C 160.91,163.63 160.85,163.36 160.75,163.09 C 160.64,162.79 160.5,162.52 160.38,162.22 C 160.32,162.09 160.26,161.95 160.22,161.81 C 160.19,161.72 160.15,161.64 160.16,161.53 C 160.16,161.32 160.23,161.11 160.28,160.91 C 160.35,160.65 160.47,160.43 160.5,160.16 C 160.55,159.79 160.55,159.4 160.5,159.03 C 160.45,158.69 160.38,158.37 160.31,158.03 C 160.22,157.62 160.14,157.23 160.06,156.81 C 159.99,156.4 159.91,155.98 159.88,155.56 C 159.83,155.07 159.84,154.58 159.84,154.09 C 159.85,153.54 159.84,153.01 160.0,152.47 C 160.12,152.06 160.35,151.76 160.66,151.47 C 161.29,150.86 161.81,150.54 162.31,149.78 C 162.67,149.25 162.87,148.67 163.03,148.06 C 163.19,147.47 163.31,146.89 163.38,146.28 C 163.41,145.93 163.42,145.57 163.44,145.22 C 163.46,144.86 163.47,144.52 163.66,144.19 C 163.77,143.99 163.96,143.79 164.19,143.72 C 164.46,143.63 164.76,143.68 165.03,143.56 C 165.39,143.41 165.61,143.07 165.78,142.75 C 165.87,142.58 165.94,142.4 166.0,142.22 C 166.02,142.17 166.05,141.99 166.13,141.97 C 166.23,141.94 166.36,142.01 166.44,142.06 C 166.52,142.13 166.58,142.21 166.66,142.28 C 166.73,142.36 166.81,142.41 166.91,142.47 C 167.09,142.58 167.28,142.69 167.47,142.78 C 167.86,142.97 168.27,143.14 168.69,143.25 C 169.57,143.47 170.38,143.46 171.25,143.25 C 172.09,143.05 172.81,142.68 173.53,142.22 C 174.17,141.81 174.71,141.38 175.13,140.72 C 175.46,140.2 175.8,139.45 175.94,138.84 C 175.98,138.65 176.03,138.47 175.78,138.44 C 175.6,138.41 175.43,138.42 175.25,138.44 C 174.9,138.47 174.54,138.5 174.19,138.5 C 173.83,138.5 173.48,138.5 173.13,138.56 C 172.72,138.63 172.51,138.77 172.06,138.66 C 171.5,138.51 170.56,138.27 169.97,138.25 C 169.6,138.24 169.26,138.31 168.91,138.38 C 168.73,138.41 168.56,138.44 168.38,138.44 C 168.23,138.44 168.23,138.41 168.25,138.28 C 168.26,138.18 168.25,138.1 168.25,138.0 C 168.29,136.82 167.36,135.23 166.69,134.41 C 166.25,133.87 165.63,133.22 165.0,132.88 C 164.92,132.83 164.83,132.79 164.75,132.75 C 164.67,132.72 164.6,132.7 164.53,132.66 C 164.42,132.59 164.39,132.45 164.41,132.34 C 164.44,132.03 164.6,131.76 164.63,131.44 C 164.66,130.89 164.34,130.59 164.09,130.19 C 163.86,129.81 163.67,129.42 163.59,128.97 C 163.52,128.52 163.54,128.04 163.44,127.59 C 163.4,127.41 163.31,127.04 163.03,127.03 z M 147.41,134.5 C 147.66,134.5 147.92,134.53 148.16,134.63 C 148.39,134.72 148.6,134.88 148.78,135.06 C 148.96,135.24 149.12,135.45 149.22,135.69 C 149.32,135.92 149.37,136.15 149.38,136.41 C 149.38,136.66 149.34,136.92 149.25,137.16 C 149.16,137.39 148.99,137.63 148.81,137.81 C 148.63,138.0 148.42,138.15 148.19,138.25 C 147.95,138.35 147.72,138.4 147.47,138.41 C 147.21,138.41 146.96,138.34 146.72,138.25 C 146.48,138.16 146.25,138.02 146.06,137.84 C 145.88,137.67 145.73,137.45 145.63,137.22 C 145.52,136.98 145.47,136.72 145.47,136.47 C 145.47,136.21 145.53,135.96 145.63,135.72 C 145.72,135.48 145.85,135.28 146.03,135.09 C 146.21,134.91 146.42,134.76 146.66,134.66 C 146.89,134.56 147.15,134.5 147.41,134.5 z M 141.31,151.19 C 141.39,151.19 141.48,151.2 141.56,151.22 C 142.01,151.33 142.89,151.88 143.28,152.09 C 143.86,152.41 144.32,152.6 144.97,152.75 C 145.56,152.89 146.12,153.0 146.72,153.09 C 147.56,153.23 148.39,153.28 149.25,153.19 C 149.56,153.15 149.85,153.08 150.16,153.03 C 150.39,152.99 150.56,152.92 150.69,153.19 C 150.95,153.74 150.92,154.12 150.75,154.69 C 150.6,155.18 150.37,155.62 150.13,156.06 C 149.87,156.52 149.6,156.99 149.38,157.47 C 149.11,158.02 148.93,158.6 148.78,159.19 C 148.66,159.68 148.56,160.17 148.41,160.66 C 148.29,161.02 148.13,161.34 147.94,161.66 C 147.64,162.14 147.34,162.63 147.06,163.13 C 146.53,164.11 145.99,165.44 145.72,166.53 C 145.63,166.89 145.55,167.27 145.44,167.63 C 145.3,168.07 145.07,168.47 144.81,168.84 C 144.62,169.13 144.39,169.38 144.22,169.69 C 144.22,169.66 144.22,169.63 144.22,169.59 C 144.22,169.53 144.22,169.47 144.22,169.41 C 144.21,169.29 144.2,169.18 144.19,169.06 C 144.13,168.6 144.04,168.13 143.91,167.69 C 143.73,167.11 143.51,167.0 143.16,166.56 C 142.75,166.07 142.55,165.84 142.34,165.22 C 142.13,164.57 142.12,164.23 141.75,163.63 C 141.52,163.25 141.22,162.92 141.0,162.53 C 140.8,162.18 140.66,161.81 140.5,161.44 C 140.25,160.85 140.0,160.27 139.75,159.69 C 139.45,159.0 139.14,158.31 138.84,157.63 C 138.63,157.12 138.4,156.61 138.22,156.09 C 138.09,155.72 138.03,155.34 138.06,154.94 C 138.1,154.54 138.24,154.27 138.5,153.97 C 138.7,153.73 138.94,153.5 139.16,153.28 C 139.42,153.01 139.67,152.75 139.91,152.47 C 140.19,152.14 140.41,151.76 140.75,151.47 C 140.94,151.3 141.09,151.19 141.31,151.19 z" />
		
		
		<text id="txtTwo" transform="matrix(1 0 0 1 150 160)" style="stroke:none;fill:#f00;font-family:'Eras Medium ITC';font-size:20px;text-anchor:middle"  >

		</text>
		<!-- Prism Reference -->
		<cam mingh:cam="--verb EditSelectAll --verb ZoomSelection --verb FileSave"/> 
	 </g>

</svg>