<svg
   xmlns:xlink="http://www.w3.org/1999/xlink"
   xmlns:svg="http://www.w3.org/2000/svg"
   xmlns="http://www.w3.org/2000/svg"
   xmlns:mingh="http://www.minghworld.com"
   width="300px"
   height="300px" >
   
	 <g>
		<!-- Paths -->
		<path style="fill:none;stroke:#000;stroke-width:0.25px;"
		 d="M 147.84,126.47 C 146.51,126.5 145.23,127.19 144.53,128.41 C 144.07,129.21 143.92,130.15 144.09,131.06 C 144.18,131.5 144.31,131.92 144.53,132.31 C 144.54,132.32 144.56,132.33 144.56,132.34 C 144.55,132.34 144.51,132.35 144.5,132.34 C 144.47,132.34 144.47,132.32 144.44,132.31 C 144.39,132.3 144.33,132.29 144.28,132.28 C 143.86,132.2 143.61,132.27 143.22,132.41 C 143.01,132.48 142.79,132.54 142.56,132.56 C 142.25,132.59 141.98,132.53 141.69,132.47 C 141.09,132.34 140.5,132.18 139.91,132.03 C 139.47,131.92 139.02,131.82 138.59,131.66 C 138.0,131.42 137.73,131.14 137.25,130.75 C 137.1,130.63 136.93,130.52 136.78,130.41 C 136.74,130.37 136.7,130.34 136.66,130.31 C 136.61,130.28 136.58,130.29 136.53,130.31 C 136.17,130.46 135.03,131.22 134.75,131.5 C 134.52,131.73 134.32,132.02 134.13,132.28 C 133.98,132.49 133.8,132.68 133.69,132.91 C 133.63,133.02 133.61,133.13 133.69,133.25 C 133.74,133.32 133.85,133.47 133.94,133.5 C 134.06,133.55 134.17,133.44 134.25,133.38 C 134.56,133.1 134.8,132.75 135.13,132.5 C 135.2,132.44 135.28,132.38 135.41,132.41 C 135.59,132.45 135.49,132.7 135.44,132.81 C 135.3,133.13 135.08,133.38 134.84,133.63 C 134.66,133.82 134.45,134.01 134.28,134.22 C 134.15,134.38 134.04,134.53 133.94,134.72 C 133.83,134.92 133.77,135.13 133.69,135.34 C 133.56,135.69 133.42,136.04 133.28,136.38 C 133.16,136.66 133.06,137.02 132.75,137.19 C 132.63,137.25 132.5,137.28 132.38,137.31 C 132.13,137.38 131.89,137.44 131.66,137.53 C 131.3,137.66 131.06,137.82 130.97,138.22 C 130.91,138.46 130.91,138.69 130.91,138.94 C 130.9,139.32 130.9,139.71 130.91,140.09 C 130.91,140.65 130.91,141.22 131.34,141.69 C 131.59,141.95 131.86,142.13 132.16,142.31 C 132.64,142.61 133.16,142.88 133.66,143.16 C 133.9,143.29 134.15,143.4 134.41,143.5 C 134.76,143.64 135.11,143.75 135.47,143.88 C 136.05,144.07 136.66,144.25 137.22,144.53 C 137.34,144.59 137.35,144.58 137.38,144.72 C 137.41,144.88 137.41,145.06 137.41,145.22 C 137.4,145.89 137.27,146.39 137.0,147.0 C 136.69,147.69 136.33,148.34 135.97,149.0 C 135.66,149.56 135.34,150.12 135.06,150.69 C 134.89,151.04 134.74,151.4 134.63,151.78 C 134.46,152.34 134.5,152.69 134.72,153.22 C 134.87,153.58 134.97,153.97 135.06,154.34 C 135.22,154.99 135.36,155.63 135.5,156.28 C 135.69,157.16 135.89,158.05 136.03,158.94 C 136.15,159.68 136.2,160.41 136.22,161.16 C 136.23,161.78 136.22,163.63 136.19,164.25 C 136.15,165.02 136.03,165.51 135.66,166.19 C 135.33,166.78 134.93,167.32 134.59,167.91 C 134.47,168.12 134.37,168.34 134.28,168.56 C 134.22,168.73 134.16,168.87 134.22,169.06 C 134.31,169.35 134.6,169.51 134.84,169.59 C 135.29,169.75 135.75,169.79 136.22,169.78 C 137.02,169.76 137.83,169.48 138.28,168.72 C 138.52,168.31 138.67,167.8 138.78,167.34 C 138.98,166.55 139.15,165.74 139.28,164.94 C 139.43,164.02 139.5,163.11 139.63,162.19 C 139.72,161.48 139.86,160.76 140.0,160.06 C 140.13,159.42 140.26,158.79 140.44,158.16 C 140.49,157.98 140.54,157.79 140.63,157.63 C 140.67,157.53 140.71,157.48 140.81,157.44 C 141.08,157.32 141.43,157.47 141.66,157.56 C 142.2,157.8 142.67,158.11 143.16,158.44 C 143.24,158.49 143.33,158.54 143.41,158.59 C 143.51,158.67 143.61,158.74 143.72,158.81 C 143.94,158.96 144.16,159.13 144.38,159.28 C 144.48,159.36 144.58,159.43 144.69,159.5 C 144.75,159.54 144.81,159.53 144.88,159.53 C 144.94,159.54 145.0,159.53 145.06,159.53 C 145.32,159.54 145.58,159.58 145.84,159.59 C 146.37,159.62 146.91,159.63 147.44,159.66 C 147.57,159.66 147.68,159.68 147.81,159.69 C 147.88,159.69 147.97,159.68 148.03,159.69 C 148.04,159.69 148.03,159.71 148.03,159.72 C 148.04,159.73 148.05,159.77 148.06,159.78 C 148.08,159.81 148.11,159.82 148.13,159.84 C 148.19,159.96 148.24,160.08 148.31,160.19 C 148.35,160.24 148.4,160.29 148.44,160.34 C 148.54,160.51 148.61,160.7 148.69,160.88 C 148.93,161.45 149.04,162.02 149.13,162.63 C 149.25,163.58 149.36,164.54 149.44,165.5 C 149.5,166.32 149.55,167.12 149.56,167.94 C 149.57,168.2 149.57,168.46 149.5,168.72 C 149.46,168.87 149.41,169.02 149.34,169.16 C 149.15,169.58 148.93,169.98 148.69,170.38 C 148.4,170.84 148.08,171.25 147.84,171.75 C 147.7,172.07 147.63,172.4 147.63,172.75 C 147.62,172.81 147.63,172.85 147.63,172.91 C 147.62,173.0 147.63,173.09 147.63,173.19 C 147.62,173.28 147.63,173.37 147.63,173.47 C 147.63,173.48 147.63,173.49 147.63,173.5 C 147.63,173.51 147.6,173.53 147.63,173.53 L 147.69,173.53 L 147.84,173.53 L 148.41,173.53 C 149.2,173.53 149.97,173.59 150.75,173.28 C 151.27,173.07 151.68,172.73 152.09,172.38 C 152.13,172.34 152.15,172.31 152.19,172.28 C 152.21,172.27 152.23,172.27 152.25,172.25 C 152.26,172.24 152.27,172.23 152.28,172.22 C 152.29,172.21 152.28,172.21 152.28,172.19 L 152.31,171.63 C 152.32,171.25 152.31,170.85 152.31,170.47 C 152.33,168.95 152.36,167.45 152.38,165.94 C 152.39,164.42 152.39,162.89 152.41,161.38 C 152.41,160.62 152.43,159.85 152.44,159.09 C 152.44,158.71 152.43,158.35 152.44,157.97 L 152.47,157.41 C 152.47,157.38 152.52,157.41 152.53,157.41 L 152.59,157.41 L 152.72,157.41 L 152.88,157.41 C 152.93,157.41 152.98,157.4 153.03,157.41 C 153.22,157.42 153.36,157.47 153.5,157.59 C 153.75,157.81 153.92,158.1 154.03,158.41 C 154.22,158.94 154.21,159.45 154.13,160.0 C 154.04,160.59 153.86,161.01 153.66,161.56 C 153.57,161.79 153.52,162.04 153.47,162.28 C 153.44,162.4 153.37,162.56 153.53,162.63 C 154.0,162.83 155.44,162.69 155.88,162.44 C 156.33,162.17 156.44,161.72 156.56,161.28 C 156.71,160.75 156.83,160.21 156.88,159.66 C 156.9,159.37 156.94,158.96 156.78,158.69 C 156.51,158.2 156.2,157.76 155.97,157.25 C 155.82,156.93 155.69,156.62 155.66,156.25 C 155.59,155.48 156.13,155.07 156.84,155.03 C 157.35,155.0 157.81,155.09 158.28,155.25 C 158.89,155.46 159.46,155.78 160.0,156.13 C 161.3,156.96 162.66,158.28 163.63,159.47 C 164.43,160.46 165.38,161.81 165.72,163.09 C 165.81,163.44 165.84,163.77 165.78,164.13 C 165.75,164.32 165.7,164.5 165.66,164.69 C 165.59,164.93 165.54,165.17 165.47,165.41 C 165.41,165.59 165.32,165.77 165.34,165.97 C 165.36,166.12 165.44,166.18 165.53,166.28 C 165.75,166.53 166.14,166.59 166.44,166.63 C 167.21,166.71 168.05,166.62 168.75,166.25 C 169.11,166.06 169.11,165.81 169.09,165.47 C 169.07,165.1 168.96,164.79 168.78,164.47 C 168.72,164.36 168.65,164.24 168.59,164.13 C 168.48,163.89 168.38,163.65 168.28,163.41 C 168.0,162.68 167.76,161.93 167.53,161.19 C 167.33,160.53 167.11,159.89 166.97,159.22 C 166.89,158.85 166.83,158.49 166.78,158.13 C 166.72,157.72 166.69,157.32 166.66,156.91 C 166.62,156.44 166.56,155.99 166.47,155.53 C 166.31,154.76 165.97,154.09 165.69,153.38 C 165.6,153.14 165.5,152.9 165.44,152.66 C 165.42,152.59 165.41,152.51 165.41,152.44 C 165.4,152.4 165.41,152.4 165.44,152.38 C 165.52,152.31 165.59,152.3 165.69,152.28 C 165.84,152.25 166.0,152.22 166.16,152.22 C 166.75,152.2 167.27,152.15 167.78,151.78 C 167.89,151.71 168.01,151.63 168.09,151.53 C 168.13,151.49 168.16,151.43 168.19,151.38 C 168.24,151.27 168.1,151.28 168.03,151.28 C 167.43,151.26 166.86,151.4 166.25,151.34 C 166.03,151.32 165.82,151.25 165.63,151.16 C 165.34,151.01 165.11,150.87 164.88,150.66 C 164.34,150.16 163.95,149.57 163.56,148.97 C 162.86,147.89 162.57,147.39 161.69,146.44 C 161.13,145.84 160.49,145.22 159.72,144.88 C 158.89,144.51 158.07,144.17 157.16,144.03 C 156.06,143.87 154.85,143.9 153.75,143.84 C 153.11,143.81 152.46,143.79 151.84,143.56 C 151.06,143.27 150.4,142.86 149.78,142.28 C 148.79,141.36 148.04,140.13 147.41,138.97 C 147.23,138.65 147.07,138.32 146.91,138.0 C 146.81,137.82 146.72,137.65 146.63,137.47 C 146.61,137.45 146.61,137.43 146.59,137.41 C 146.59,137.4 146.58,137.36 146.59,137.34 C 146.63,137.31 146.65,137.29 146.69,137.25 C 146.75,137.17 146.81,137.08 146.88,137.0 C 146.94,136.92 147.0,136.86 147.06,136.78 C 147.1,136.74 147.15,136.69 147.19,136.66 C 147.2,136.64 147.2,136.64 147.22,136.63 C 147.61,136.18 147.99,135.74 148.25,135.19 C 148.33,135.02 148.41,134.82 148.41,134.63 C 148.41,134.44 148.32,134.36 148.19,134.25 C 150.04,134.13 151.54,132.72 151.78,130.88 C 152.03,129.03 150.95,127.26 149.19,126.66 C 148.75,126.51 148.29,126.46 147.84,126.47 z M 147.94,128.41 C 148.19,128.41 148.42,128.46 148.66,128.56 C 148.89,128.66 149.13,128.79 149.31,128.97 C 149.49,129.15 149.62,129.39 149.72,129.63 C 149.82,129.86 149.88,130.09 149.88,130.34 C 149.88,130.6 149.82,130.86 149.72,131.09 C 149.62,131.33 149.49,131.57 149.31,131.75 C 149.13,131.93 148.89,132.06 148.66,132.16 C 148.42,132.25 148.19,132.31 147.94,132.31 C 147.68,132.31 147.42,132.25 147.19,132.16 C 146.95,132.06 146.71,131.93 146.53,131.75 C 146.35,131.57 146.22,131.33 146.13,131.09 C 146.03,130.86 145.97,130.6 145.97,130.34 C 145.97,130.09 146.03,129.86 146.13,129.63 C 146.22,129.39 146.35,129.15 146.53,128.97 C 146.71,128.79 146.95,128.66 147.19,128.56 C 147.42,128.46 147.68,128.41 147.94,128.41 z"
		 />
		 
		 <path style="fill:#f00;stroke:none;"
		 d="M 138.18,131.62 C 138.21,131.79 138.25,131.96 138.28,132.14 C 138.42,132.89 138.57,133.63 138.71,134.38 C 139.43,134.12 140.14,133.86 140.86,133.6 C 141.56,133.35 142.21,133.11 142.84,132.89 C 142.34,133.32 141.81,133.78 141.25,134.27 C 140.67,134.77 140.1,135.26 139.52,135.76 C 140.1,136.25 140.69,136.74 141.27,137.23 C 141.84,137.71 142.37,138.16 142.88,138.59 C 142.25,138.38 141.59,138.15 140.89,137.91 C 140.17,137.66 139.45,137.41 138.73,137.16 C 138.6,137.91 138.46,138.66 138.33,139.4 C 138.2,140.14 138.08,140.82 137.96,141.48 C 137.83,140.82 137.7,140.14 137.56,139.41 C 137.41,138.66 137.27,137.91 137.13,137.17 C 136.41,137.43 135.7,137.69 134.98,137.95 C 134.28,138.2 133.63,138.44 133.0,138.66 C 133.5,138.22 134.03,137.77 134.59,137.28 C 135.17,136.78 135.74,136.28 136.32,135.79 C 135.73,135.3 135.15,134.81 134.57,134.32 C 134.53,134.29 134.5,134.26 134.47,134.23 C 134.48,134.21 134.49,134.2 134.51,134.18 C 134.62,134.05 134.74,133.92 134.86,133.8 C 134.91,133.75 134.96,133.71 135.0,133.66 C 135.7,133.9 136.41,134.15 137.11,134.39 C 137.24,133.64 137.37,132.89 137.51,132.14 C 137.56,131.85 137.61,131.56 137.66,131.28 C 137.69,131.31 137.72,131.33 137.75,131.35 C 137.85,131.43 137.95,131.49 138.06,131.56 C 138.1,131.58 138.14,131.6 138.18,131.62 z M 133.88,133.27 C 133.94,133.29 134.0,133.32 134.06,133.34 C 134.05,133.35 134.04,133.35 134.02,133.36 C 134.02,133.36 134.01,133.36 134.0,133.36 C 133.99,133.36 133.98,133.36 133.97,133.35 C 133.95,133.34 133.93,133.32 133.91,133.3 C 133.9,133.29 133.89,133.28 133.88,133.27 z M 148.09,134.36 C 148.12,134.38 148.15,134.41 148.18,134.44 C 148.2,134.46 148.22,134.47 148.23,134.49 C 148.25,134.52 148.26,134.55 148.26,134.59 C 148.27,134.63 148.26,134.68 148.25,134.73 C 148.24,134.8 148.22,134.87 148.2,134.94 C 148.17,135.02 148.13,135.1 148.09,135.18 C 148.04,135.28 147.98,135.38 147.92,135.47 C 147.86,135.58 147.78,135.69 147.71,135.79 C 147.52,136.04 147.33,136.28 147.12,136.52 C 147.04,136.62 146.95,136.71 146.86,136.81 C 146.37,136.67 145.87,136.54 145.37,136.42 C 144.43,136.19 143.49,135.97 142.55,135.74 C 143.49,135.5 144.42,135.26 145.36,135.02 C 146.26,134.79 147.14,134.53 148.02,134.24 C 148.02,134.28 148.05,134.32 148.09,134.36 z M 156.12,162.04 C 155.57,162.03 155.02,162.0 154.47,161.95 C 154.22,161.92 153.97,161.9 153.72,161.87 C 153.77,161.71 153.83,161.55 153.89,161.39 C 154.01,161.09 154.11,160.78 154.19,160.47 C 154.32,160.48 154.45,160.5 154.58,160.51 C 155.25,160.57 155.92,160.6 156.59,160.61 C 156.56,160.73 156.53,160.85 156.5,160.96 C 156.46,161.12 156.42,161.29 156.37,161.44 C 156.35,161.53 156.32,161.61 156.29,161.69 C 156.26,161.76 156.24,161.83 156.2,161.89 C 156.18,161.94 156.15,162.0 156.12,162.04 z M 134.42,168.57 C 134.39,168.66 134.36,168.75 134.33,168.84 C 134.33,168.82 134.34,168.8 134.35,168.78 C 134.37,168.71 134.39,168.64 134.42,168.57 z M 132.95,142.6 C 133.18,142.37 133.41,142.14 133.63,141.9 C 134.3,141.2 134.97,140.5 135.63,139.8 C 135.37,140.73 135.11,141.66 134.85,142.6 C 134.77,142.87 134.7,143.15 134.63,143.43 C 134.62,143.42 134.6,143.42 134.59,143.41 C 134.43,143.35 134.26,143.28 134.1,143.21 C 134.03,143.18 133.97,143.15 133.91,143.12 C 133.86,143.1 133.81,143.08 133.77,143.05 C 133.5,142.9 133.22,142.75 132.95,142.6 z M 135.39,131.17 C 135.45,131.37 135.52,131.58 135.58,131.78 C 135.43,131.64 135.29,131.49 135.15,131.34 C 135.22,131.29 135.3,131.23 135.38,131.18 C 135.38,131.18 135.39,131.17 135.39,131.17 z M 148.62,128.39 C 148.87,128.05 149.12,127.72 149.37,127.39 C 149.43,127.3 149.5,127.21 149.57,127.12 C 149.59,127.1 149.61,127.07 149.63,127.04 C 149.63,127.03 149.64,127.03 149.64,127.02 C 149.66,127.01 149.69,127.04 149.7,127.05 C 149.72,127.06 149.73,127.07 149.75,127.08 C 149.79,127.1 149.83,127.12 149.87,127.15 C 150.02,127.24 150.17,127.34 150.3,127.45 C 150.41,127.54 150.52,127.64 150.62,127.74 C 150.67,127.79 150.71,127.84 150.76,127.89 C 150.77,127.91 150.78,127.91 150.77,127.93 C 150.75,127.95 150.73,127.97 150.72,127.99 C 150.68,128.04 150.65,128.08 150.62,128.12 C 150.55,128.21 150.49,128.3 150.42,128.38 C 150.4,128.41 150.38,128.44 150.35,128.48 C 150.34,128.49 150.37,128.48 150.38,128.47 C 150.39,128.47 150.4,128.47 150.41,128.47 C 150.43,128.47 150.45,128.47 150.46,128.46 C 150.54,128.45 150.62,128.44 150.69,128.43 C 150.77,128.42 150.84,128.41 150.92,128.4 C 150.96,128.39 151.0,128.39 151.03,128.38 C 151.05,128.38 151.07,128.38 151.09,128.38 C 151.13,128.37 151.13,128.41 151.15,128.43 C 151.2,128.52 151.25,128.6 151.29,128.69 C 151.38,128.87 151.45,129.05 151.51,129.25 C 151.54,129.34 151.57,129.44 151.59,129.53 C 151.6,129.58 151.61,129.63 151.62,129.68 C 151.62,129.7 151.63,129.73 151.63,129.75 C 151.63,129.76 151.64,129.76 151.63,129.77 C 151.59,129.77 151.55,129.77 151.51,129.78 C 151.1,129.83 150.69,129.89 150.28,129.94 C 150.21,129.95 150.14,129.96 150.07,129.97 C 150.05,129.97 150.04,129.98 150.02,129.98 C 150.01,129.98 149.98,130.01 149.98,129.98 C 149.98,129.97 149.98,129.96 149.97,129.95 C 149.96,129.91 149.96,129.86 149.94,129.82 C 149.92,129.74 149.89,129.65 149.86,129.57 C 149.8,129.41 149.71,129.26 149.61,129.12 C 149.34,128.76 149.04,128.53 148.62,128.39 z M 150.56,133.04 C 150.7,132.58 150.87,132.13 151.06,131.69 C 151.16,131.47 151.26,131.25 151.36,131.04 C 151.41,130.94 151.46,130.83 151.52,130.73 C 151.54,130.68 151.57,130.63 151.6,130.58 C 151.61,130.56 151.63,130.53 151.64,130.51 C 151.65,130.49 151.65,130.48 151.66,130.47 C 151.66,130.46 151.67,130.46 151.67,130.45 C 151.67,130.45 151.67,130.44 151.68,130.44 C 151.68,130.42 151.68,130.46 151.68,130.47 C 151.65,131.44 151.25,132.36 150.56,133.04 z M 148.54,134.06 C 148.76,133.99 148.98,133.91 149.2,133.83 C 149.31,133.79 149.42,133.75 149.53,133.71 C 149.58,133.69 149.64,133.66 149.69,133.64 C 149.72,133.63 149.74,133.62 149.77,133.61 C 149.79,133.61 149.8,133.6 149.81,133.6 C 149.82,133.59 149.87,133.57 149.85,133.58 C 149.44,133.83 149.01,133.99 148.54,134.06 z M 136.85,152.75 C 136.91,152.91 136.97,153.07 137.03,153.23 C 137.44,154.29 137.78,155.38 138.07,156.48 C 138.21,155.88 138.37,155.29 138.55,154.7 C 138.7,154.2 138.87,153.71 139.05,153.21 C 139.11,153.05 139.17,152.9 139.23,152.74 C 138.87,152.08 138.54,151.41 138.25,150.72 C 138.17,150.54 138.1,150.37 138.02,150.19 C 137.95,150.37 137.88,150.55 137.8,150.72 C 137.52,151.42 137.2,152.1 136.85,152.75 z M 140.84,152.62 C 141.13,153.09 141.44,153.54 141.77,153.98 C 142.0,154.28 142.25,154.57 142.5,154.85 C 142.52,154.65 142.54,154.45 142.56,154.25 C 142.61,153.58 142.64,152.9 142.64,152.23 C 142.64,151.96 142.63,151.7 142.62,151.44 C 142.61,151.1 142.59,150.76 142.56,150.42 C 142.55,150.19 142.53,149.96 142.5,149.74 C 142.32,149.98 142.15,150.23 141.98,150.48 C 141.81,150.73 141.66,151.0 141.51,151.26 C 141.39,151.48 141.27,151.7 141.16,151.92 C 141.05,152.16 140.94,152.39 140.84,152.62 z M 144.62,145.92 C 144.59,145.9 144.57,145.88 144.54,145.86 C 144.06,145.46 143.58,145.05 143.12,144.63 C 143.26,145.24 143.38,145.86 143.49,146.47 C 143.5,146.51 143.51,146.54 143.51,146.57 C 143.6,146.49 143.69,146.41 143.78,146.33 C 143.86,146.27 143.93,146.21 144.01,146.15 C 144.1,146.11 144.19,146.08 144.28,146.04 C 144.39,146.0 144.5,145.96 144.62,145.92 z M 152.81,150.84 C 152.39,150.67 151.97,150.49 151.55,150.31 C 150.85,150.0 150.17,149.66 149.5,149.3 C 149.31,149.19 149.12,149.09 148.94,148.98 C 148.61,148.79 148.28,148.59 147.96,148.38 C 147.32,147.97 146.69,147.53 146.08,147.07 C 146.05,147.05 146.02,147.02 145.98,147.0 C 145.58,147.11 145.18,147.25 144.79,147.39 C 144.77,147.4 144.76,147.4 144.75,147.41 C 144.74,147.42 144.73,147.43 144.72,147.44 C 144.39,147.71 144.08,147.99 143.78,148.29 C 143.79,148.33 143.79,148.37 143.8,148.41 C 143.9,149.17 143.98,149.93 144.03,150.69 C 144.05,151.07 144.07,151.45 144.07,151.83 C 144.08,152.05 144.08,152.26 144.08,152.48 C 144.07,153.24 144.03,154.0 143.96,154.76 C 143.92,155.22 143.86,155.67 143.81,156.12 C 143.91,156.21 144.01,156.3 144.11,156.38 C 145.04,157.15 146.05,157.82 147.11,158.38 C 147.41,158.54 147.72,158.68 148.03,158.82 C 148.1,158.55 148.16,158.27 148.22,158.0 C 148.34,157.4 148.43,156.8 148.47,156.2 C 148.5,155.81 148.5,155.42 148.49,155.04 C 148.48,154.6 148.47,154.17 148.46,153.73 C 148.83,153.95 149.21,154.18 149.58,154.4 C 149.88,154.58 150.19,154.75 150.51,154.9 C 150.99,155.13 151.48,155.33 151.97,155.5 C 152.35,155.62 152.73,155.74 153.12,155.84 C 153.14,155.5 153.16,155.16 153.17,154.82 C 153.2,153.62 153.11,152.41 152.89,151.23 C 152.87,151.1 152.84,150.97 152.82,150.84 z M 152.34,149.08 C 152.21,148.72 152.08,148.36 151.93,148.01 C 151.72,147.51 151.47,147.02 151.21,146.54 C 150.95,146.52 150.69,146.5 150.44,146.48 C 150.19,146.47 149.94,146.46 149.69,146.46 C 149.39,146.46 149.08,146.47 148.77,146.49 C 148.47,146.51 148.17,146.54 147.88,146.59 C 148.06,146.72 148.25,146.84 148.44,146.97 C 148.72,147.16 149.01,147.34 149.3,147.52 C 149.53,147.66 149.75,147.79 149.98,147.92 C 150.57,148.25 151.17,148.55 151.79,148.83 C 151.97,148.92 152.15,149.0 152.34,149.08 z M 150.63,143.13 C 150.69,143.2 150.75,143.27 150.81,143.35 C 151.27,143.94 151.7,144.56 152.09,145.19 C 152.26,145.22 152.42,145.24 152.59,145.27 C 153.72,145.44 154.83,145.7 155.92,146.0 C 155.48,145.58 155.05,145.14 154.63,144.69 C 154.41,144.46 154.2,144.23 153.99,143.99 C 154.0,143.99 154.01,143.99 154.02,143.99 C 154.29,144.0 154.56,144.01 154.83,144.02 C 155.12,144.03 155.42,144.04 155.71,144.05 C 155.82,144.06 155.92,144.06 156.03,144.07 C 156.29,144.34 156.55,144.6 156.82,144.86 C 157.07,145.1 157.32,145.34 157.58,145.57 C 157.94,145.9 158.31,146.22 158.69,146.53 C 159.04,146.81 159.39,147.09 159.76,147.35 C 160.78,148.09 161.79,148.84 162.81,149.58 C 163.29,149.78 163.78,149.99 164.26,150.19 C 164.28,150.21 164.3,150.24 164.31,150.26 C 164.47,150.45 164.64,150.64 164.83,150.8 C 164.99,150.94 165.16,151.06 165.34,151.17 C 165.47,151.25 165.6,151.32 165.74,151.37 C 165.86,151.42 165.99,151.46 166.12,151.48 C 166.28,151.51 166.43,151.51 166.58,151.51 C 166.68,151.5 166.77,151.5 166.87,151.49 C 166.98,151.48 167.1,151.47 167.21,151.46 C 167.25,151.46 167.28,151.46 167.32,151.45 C 167.39,151.48 167.46,151.5 167.52,151.53 C 167.61,151.56 167.7,151.58 167.78,151.61 C 167.75,151.64 167.72,151.66 167.68,151.68 C 167.56,151.77 167.42,151.84 167.27,151.9 C 167.12,151.96 166.95,152.01 166.78,152.04 C 166.61,152.07 166.43,152.09 166.24,152.09 C 166.13,152.09 166.02,152.09 165.9,152.1 C 165.81,152.11 165.73,152.13 165.64,152.14 C 165.6,152.15 165.55,152.16 165.51,152.18 C 165.49,152.19 165.46,152.2 165.43,152.21 C 165.43,152.21 165.43,152.21 165.43,152.21 C 164.46,151.5 163.49,150.79 162.53,150.08 C 161.37,149.59 160.21,149.09 159.05,148.6 C 158.64,148.42 158.22,148.26 157.8,148.1 C 157.34,147.94 156.87,147.78 156.41,147.64 C 156.07,147.54 155.74,147.44 155.4,147.35 C 154.94,147.22 154.47,147.11 154.0,147.0 C 153.66,146.93 153.31,146.85 152.96,146.79 C 153.14,147.16 153.3,147.53 153.45,147.92 C 153.68,148.52 153.88,149.14 154.04,149.77 C 154.09,149.78 154.14,149.8 154.19,149.82 C 154.86,150.07 155.54,150.32 156.22,150.55 C 156.84,150.77 157.46,150.98 158.08,151.2 C 158.57,151.38 159.07,151.56 159.55,151.76 C 159.83,151.87 160.12,151.99 160.4,152.12 C 160.84,152.33 161.28,152.55 161.7,152.8 C 161.91,152.93 162.12,153.06 162.32,153.2 C 162.59,153.39 162.85,153.58 163.11,153.79 C 163.63,154.22 164.12,154.69 164.57,155.19 C 164.79,155.44 165.0,155.7 165.21,155.96 C 165.41,156.21 165.6,156.47 165.78,156.73 C 166.1,157.21 166.4,157.72 166.66,158.24 C 166.68,158.4 166.7,158.56 166.73,158.72 C 166.75,158.85 166.78,158.98 166.8,159.11 C 166.82,159.23 166.85,159.34 166.88,159.45 C 166.89,159.52 166.91,159.59 166.93,159.66 C 166.98,159.83 167.02,160.0 167.07,160.17 C 167.17,160.51 167.26,160.84 167.36,161.17 C 167.46,161.48 167.56,161.79 167.66,162.09 C 167.73,162.32 167.81,162.54 167.89,162.77 C 167.91,162.82 167.93,162.87 167.94,162.92 C 168.02,163.7 168.03,164.49 167.99,165.27 C 167.97,165.65 167.94,166.03 167.89,166.41 C 167.87,166.41 167.84,166.42 167.82,166.43 C 167.61,166.47 167.4,166.49 167.19,166.51 C 167.02,166.52 166.86,166.52 166.69,166.51 C 166.6,166.51 166.52,166.5 166.43,166.49 C 166.46,166.28 166.48,166.06 166.5,165.84 C 166.54,165.45 166.56,165.06 166.57,164.67 C 166.58,163.89 166.54,163.11 166.42,162.34 C 166.34,161.8 166.23,161.26 166.08,160.74 C 166.08,160.74 166.08,160.74 166.07,160.74 C 165.68,160.82 165.28,160.9 164.89,160.98 C 164.79,160.82 164.68,160.66 164.58,160.5 C 164.39,160.22 164.19,159.95 163.99,159.69 C 164.52,159.58 165.05,159.47 165.59,159.37 C 165.44,159.03 165.28,158.69 165.1,158.37 C 164.81,157.85 164.47,157.36 164.11,156.89 C 163.91,156.64 163.71,156.39 163.49,156.16 C 163.27,155.91 163.05,155.68 162.81,155.45 C 162.58,155.24 162.35,155.03 162.11,154.84 C 161.99,154.74 161.87,154.65 161.75,154.56 C 161.64,154.48 161.52,154.4 161.41,154.32 C 161.22,154.2 161.03,154.08 160.83,153.97 C 160.63,153.85 160.42,153.74 160.21,153.63 C 160.0,153.53 159.79,153.43 159.57,153.33 C 159.19,153.16 158.8,153.0 158.41,152.86 C 157.91,152.67 157.41,152.49 156.91,152.31 C 156.16,152.05 155.41,151.8 154.66,151.53 C 154.57,151.5 154.48,151.47 154.39,151.43 C 154.42,151.6 154.44,151.76 154.46,151.92 C 154.64,153.28 154.66,154.66 154.55,156.02 C 154.54,156.07 154.54,156.12 154.53,156.17 C 154.74,156.22 154.94,156.26 155.14,156.31 C 155.27,156.34 155.41,156.37 155.54,156.4 C 155.54,156.4 155.54,156.41 155.54,156.41 C 155.57,156.55 155.61,156.69 155.66,156.83 C 155.74,157.04 155.83,157.26 155.93,157.46 C 156.04,157.68 156.15,157.89 156.26,158.1 C 156.18,158.07 156.1,158.05 156.02,158.02 C 155.67,157.91 155.3,157.82 154.94,157.74 C 154.74,157.7 154.54,157.65 154.34,157.61 C 154.3,157.88 154.25,158.16 154.19,158.43 C 154.12,158.23 154.04,158.04 153.92,157.87 C 153.86,157.77 153.78,157.68 153.7,157.59 C 153.64,157.52 153.57,157.45 153.48,157.39 C 153.41,157.34 153.32,157.31 153.23,157.28 C 153.14,157.26 153.04,157.25 152.94,157.25 C 152.9,157.25 152.86,157.25 152.82,157.25 C 152.24,157.1 151.67,156.93 151.12,156.72 C 150.71,156.57 150.31,156.4 149.91,156.21 C 149.88,156.68 149.83,157.15 149.75,157.62 C 149.66,158.21 149.53,158.8 149.37,159.37 C 149.5,159.42 149.62,159.46 149.75,159.51 C 150.56,159.78 151.39,160.0 152.23,160.17 C 152.25,160.11 152.27,160.06 152.29,160.0 C 152.27,161.32 152.26,162.64 152.24,163.95 C 151.9,164.64 151.53,165.32 151.13,165.97 C 150.96,166.24 150.79,166.51 150.61,166.78 C 150.78,166.89 150.94,167.0 151.11,167.1 C 151.35,167.25 151.59,167.4 151.84,167.54 C 151.96,167.61 152.08,167.68 152.2,167.74 C 152.2,168.29 152.19,168.84 152.18,169.38 C 151.98,169.27 151.78,169.16 151.58,169.05 C 151.28,168.88 150.98,168.71 150.69,168.53 C 150.38,168.35 150.08,168.16 149.78,167.96 C 149.77,167.98 149.75,168.01 149.73,168.04 C 149.72,168.05 149.71,168.06 149.7,168.07 C 149.7,167.96 149.7,167.84 149.7,167.73 C 149.69,167.48 149.68,167.24 149.67,166.99 C 149.65,166.7 149.63,166.42 149.61,166.13 C 149.6,165.99 149.59,165.85 149.58,165.72 C 149.74,165.48 149.89,165.24 150.03,164.99 C 150.54,164.15 150.99,163.28 151.39,162.38 C 151.51,162.1 151.63,161.82 151.74,161.54 C 151.32,161.45 150.9,161.35 150.49,161.24 C 149.98,161.1 149.47,160.94 148.97,160.76 C 148.95,160.84 148.93,160.92 148.9,160.99 C 148.88,160.92 148.85,160.85 148.82,160.79 C 148.75,160.64 148.68,160.49 148.59,160.35 C 148.44,160.11 148.29,159.86 148.14,159.61 C 148.11,159.57 148.08,159.55 148.03,159.55 C 147.48,159.52 146.93,159.49 146.39,159.46 C 146.28,159.46 146.17,159.45 146.06,159.45 C 145.33,159.04 144.62,158.59 143.95,158.09 C 143.82,157.99 143.69,157.89 143.56,157.79 C 143.54,157.89 143.53,157.98 143.51,158.07 C 143.49,158.21 143.47,158.34 143.44,158.47 C 143.4,158.44 143.36,158.41 143.31,158.38 C 143.14,158.26 142.97,158.14 142.79,158.03 C 142.64,157.93 142.49,157.84 142.33,157.75 C 142.26,157.71 142.19,157.67 142.12,157.63 C 142.17,157.36 142.21,157.1 142.25,156.83 C 142.26,156.78 142.26,156.73 142.27,156.68 C 141.8,156.23 141.36,155.75 140.95,155.25 C 140.69,154.94 140.44,154.61 140.2,154.28 C 140.09,154.61 139.98,154.95 139.88,155.29 C 139.74,155.75 139.62,156.22 139.5,156.68 C 139.42,157.02 139.34,157.36 139.26,157.7 C 139.16,158.18 139.07,158.66 138.99,159.14 C 138.92,159.58 138.86,160.03 138.81,160.48 C 138.68,161.73 138.54,162.98 138.41,164.23 C 138.52,165.14 138.63,166.04 138.74,166.94 C 138.72,167.02 138.7,167.11 138.68,167.19 C 138.64,167.37 138.59,167.55 138.54,167.72 C 138.5,167.87 138.45,168.01 138.4,168.15 C 138.36,168.27 138.31,168.38 138.26,168.5 C 138.22,168.57 138.18,168.65 138.13,168.72 C 138.05,168.86 137.94,168.99 137.81,169.09 C 137.69,169.2 137.55,169.29 137.39,169.37 C 137.33,169.4 137.27,169.42 137.21,169.45 C 137.22,169.4 137.23,169.35 137.23,169.3 C 137.32,168.84 137.38,168.38 137.43,167.91 C 137.56,166.69 137.7,165.46 137.83,164.24 C 137.68,162.99 137.53,161.74 137.38,160.49 C 137.32,160.04 137.26,159.6 137.18,159.15 C 137.09,158.67 137.0,158.19 136.89,157.72 C 136.81,157.38 136.72,157.04 136.63,156.7 C 136.51,156.24 136.38,155.78 136.24,155.32 C 136.13,154.98 136.02,154.64 135.9,154.31 C 135.73,154.55 135.55,154.8 135.37,155.03 C 135.33,154.88 135.3,154.73 135.26,154.58 C 135.19,154.31 135.13,154.04 135.05,153.77 C 135.02,153.67 135.0,153.58 134.97,153.48 C 134.95,153.42 134.92,153.35 134.9,153.29 C 134.89,153.27 134.88,153.25 134.88,153.24 C 135.0,153.05 135.12,152.86 135.24,152.66 C 135.13,152.43 135.02,152.2 134.91,151.97 C 134.86,151.89 134.82,151.81 134.78,151.73 C 134.78,151.71 134.79,151.69 134.79,151.68 C 134.84,151.54 134.89,151.41 134.95,151.28 C 135.02,151.11 135.09,150.95 135.17,150.79 C 135.27,150.59 135.37,150.4 135.47,150.2 C 135.48,150.18 135.5,150.15 135.51,150.12 C 135.71,150.43 135.9,150.76 136.07,151.09 C 136.21,150.79 136.34,150.48 136.47,150.18 C 136.98,148.93 137.49,147.69 137.99,146.44 C 138.52,147.68 139.05,148.92 139.57,150.16 C 139.7,150.46 139.84,150.76 139.98,151.06 C 140.17,150.69 140.38,150.32 140.6,149.97 C 140.89,149.49 141.21,149.04 141.56,148.6 C 141.78,148.32 142.01,148.05 142.25,147.79 C 141.98,146.02 141.59,144.27 141.09,142.55 C 140.81,141.62 140.54,140.69 140.26,139.77 C 140.94,140.46 141.62,141.15 142.29,141.84 C 143.54,143.12 144.89,144.32 146.3,145.42 C 146.64,145.34 146.99,145.27 147.34,145.21 C 147.89,145.12 148.45,145.06 149.01,145.03 C 149.42,145.01 149.84,145.01 150.26,145.03 C 150.07,144.76 149.87,144.49 149.67,144.23 C 148.84,143.17 148.02,142.11 147.19,141.04 C 147.68,141.1 148.16,141.16 148.65,141.22 C 148.77,141.38 148.89,141.54 149.02,141.7 C 149.33,142.07 149.67,142.41 150.05,142.71 C 150.22,142.85 150.4,142.98 150.59,143.1 C 150.6,143.11 150.62,143.12 150.63,143.13 z"
		 />
		 
		<!-- Prism Reference -->
		<cam mingh:cam=" --verb EditSelectAll --verb ZoomSelection --verb FileSave" /> 
	 </g>

</svg>
