<svg
   xmlns:xlink="http://www.w3.org/1999/xlink"
   xmlns:svg="http://www.w3.org/2000/svg"
   xmlns="http://www.w3.org/2000/svg"
   xmlns:mingh="http://www.minghworld.com"
   width="300px"
   height="300px" >
	 <g>
		
		<!-- Paths -->
		<path style="fill:none;stroke:#000;stroke-width:0.25px;"
		 d="M 149.19,130.06 C 148.41,130.0 147.63,130.16 146.91,130.59 C 144.96,131.76 144.41,134.33 145.72,136.19 C 146.04,136.64 146.43,136.99 146.91,137.28 C 147.02,137.35 147.13,137.41 147.25,137.47 C 147.31,137.5 147.35,137.54 147.41,137.56 C 147.44,137.57 147.47,137.58 147.5,137.59 C 147.51,137.6 147.56,137.61 147.56,137.63 C 147.57,137.64 147.57,137.65 147.56,137.66 C 147.55,137.67 147.55,137.65 147.53,137.66 C 147.5,137.67 147.44,137.7 147.41,137.72 C 147.34,137.75 147.28,137.78 147.22,137.81 C 147.09,137.88 147.0,137.96 146.88,138.03 C 145.87,138.66 145.16,139.43 144.59,140.47 C 144.32,140.98 144.11,141.51 143.94,142.06 C 143.92,142.13 143.89,142.21 143.88,142.28 C 143.87,142.31 143.87,142.35 143.84,142.38 C 143.83,142.39 143.76,142.38 143.75,142.38 C 143.63,142.35 143.53,142.3 143.41,142.28 C 143.17,142.24 142.93,142.21 142.69,142.19 C 141.61,142.08 140.56,142.14 139.5,142.28 C 137.29,142.57 135.03,143.19 133.09,144.38 C 131.12,145.58 129.66,147.13 128.28,148.94 C 126.94,150.69 125.51,152.95 124.66,155.0 C 124.35,155.73 123.96,156.77 123.94,157.59 C 123.93,157.99 124.01,158.28 124.31,158.56 C 124.65,158.88 125.15,159.09 125.59,159.13 C 126.47,159.2 127.14,158.64 127.63,158.03 C 127.88,157.71 128.1,157.34 128.28,156.97 C 128.3,156.92 128.32,156.89 128.34,156.84 C 128.35,156.83 128.36,156.83 128.38,156.84 C 128.38,156.85 128.38,156.87 128.38,156.88 C 128.37,156.91 128.35,156.93 128.34,156.97 C 128.28,157.24 128.24,157.51 128.19,157.78 C 128.08,158.32 127.98,158.89 127.91,159.44 C 127.61,161.56 127.53,163.64 127.66,165.78 C 127.69,166.32 127.72,166.87 127.78,167.41 C 127.81,167.67 127.84,167.92 127.88,168.19 C 127.89,168.28 127.91,168.38 127.94,168.47 C 128.06,168.89 128.26,169.19 128.59,169.47 C 129.29,170.04 129.98,169.94 130.75,169.94 L 132.91,169.94 L 135.03,169.94 C 135.28,169.94 135.94,169.96 136.19,169.91 C 136.62,169.82 136.98,169.57 137.22,169.19 C 137.41,168.88 137.48,168.54 137.41,168.19 C 137.34,167.88 137.19,167.62 137.06,167.34 C 136.83,166.83 136.67,166.33 136.56,165.78 C 136.36,164.71 136.38,163.69 136.66,162.63 C 137.19,160.55 138.71,158.69 140.91,158.19 C 142.97,157.71 144.94,158.6 146.19,160.22 C 147.53,161.96 147.88,164.33 147.28,166.41 C 147.19,166.73 147.08,167.04 146.94,167.34 C 146.78,167.68 146.56,167.97 146.53,168.38 C 146.51,168.81 146.68,169.21 147.0,169.5 C 147.36,169.84 147.74,169.94 148.22,169.94 L 152.53,169.94 L 153.59,169.94 C 153.97,169.94 154.35,169.96 154.72,169.84 C 155.14,169.71 155.45,169.51 155.72,169.16 C 155.85,168.99 155.93,168.82 156.0,168.63 C 156.09,168.37 156.12,168.11 156.16,167.84 C 156.29,166.77 156.38,165.7 156.41,164.63 C 156.42,164.1 156.39,163.58 156.38,163.06 C 156.36,162.33 156.41,161.6 156.47,160.88 C 156.55,159.83 156.68,158.83 156.97,157.81 C 157.14,157.22 157.34,156.68 157.69,156.16 C 158.06,155.6 158.52,155.12 159.03,154.69 C 159.26,154.49 159.5,154.3 159.75,154.13 C 160.14,153.85 160.58,153.63 161.0,153.41 C 162.29,152.72 163.6,152.22 165.03,151.88 C 166.04,151.63 167.07,151.44 168.06,151.13 C 169.0,150.83 169.89,150.46 170.75,149.97 C 172.3,149.08 173.73,147.85 174.69,146.31 C 175.72,144.66 176.09,142.87 176.06,140.97 C 176.03,138.72 175.47,136.72 174.56,134.69 C 174.4,134.32 174.27,133.98 173.88,133.75 C 173.4,133.48 172.75,133.54 172.28,133.66 C 171.65,133.81 171.09,134.05 170.56,134.44 C 169.97,134.88 169.95,135.2 170.13,135.88 C 170.28,136.47 170.54,137.04 170.72,137.63 C 170.89,138.18 171.03,138.74 171.13,139.31 C 171.29,140.26 171.36,141.38 171.13,142.34 C 170.89,143.3 170.35,143.94 169.63,144.56 C 168.73,145.32 167.64,145.84 166.47,146.0 C 166.43,146.01 166.44,145.99 166.44,145.97 C 166.44,145.93 166.44,145.88 166.44,145.84 C 166.44,145.77 166.44,145.7 166.44,145.63 C 166.44,145.48 166.44,145.33 166.44,145.19 C 166.43,144.9 166.42,144.63 166.38,144.34 C 166.29,143.77 166.13,143.23 165.91,142.69 C 165.48,141.66 164.81,140.73 163.91,140.06 C 162.14,138.75 159.77,138.53 157.75,139.28 C 157.5,139.38 157.24,139.5 157.0,139.63 C 156.94,139.66 156.87,139.69 156.81,139.72 C 156.78,139.74 156.78,139.73 156.75,139.75 C 156.73,139.76 156.7,139.81 156.69,139.78 C 156.63,139.66 156.57,139.52 156.5,139.41 C 156.24,138.93 155.92,138.51 155.5,138.16 C 154.66,137.44 153.59,137.06 152.53,136.91 C 152.25,136.86 151.97,136.86 151.69,136.84 C 151.65,136.84 151.6,136.84 151.56,136.84 C 151.54,136.84 151.54,136.83 151.56,136.81 C 151.61,136.77 151.65,136.73 151.69,136.69 C 151.77,136.6 151.83,136.5 151.91,136.41 C 152.24,136.0 152.47,135.59 152.63,135.09 C 152.92,134.12 152.82,133.06 152.34,132.16 C 151.7,130.91 150.48,130.16 149.19,130.06 z M 148.94,132.0 C 149.19,132.0 149.42,132.06 149.66,132.16 C 149.89,132.26 150.1,132.41 150.28,132.59 C 150.46,132.78 150.62,132.98 150.72,133.22 C 150.81,133.46 150.85,133.71 150.84,133.97 C 150.84,134.22 150.79,134.48 150.69,134.72 C 150.59,134.95 150.43,135.17 150.25,135.34 C 150.07,135.52 149.86,135.66 149.63,135.75 C 149.39,135.84 149.13,135.91 148.88,135.91 C 148.62,135.9 148.36,135.85 148.13,135.75 C 147.89,135.65 147.68,135.5 147.5,135.31 C 147.32,135.13 147.19,134.89 147.09,134.66 C 147.0,134.42 146.93,134.19 146.94,133.94 C 146.94,133.68 146.99,133.42 147.09,133.19 C 147.19,132.95 147.35,132.74 147.53,132.56 C 147.71,132.38 147.95,132.22 148.19,132.13 C 148.42,132.03 148.68,132.0 148.94,132.0 z"
		 />
		 <path style="fill:#f00;stroke:none;"
		 d="M 143.79,142.54 C 143.38,144.16 143.31,146.02 143.61,147.67 C 143.92,149.38 144.63,150.97 145.72,152.33 C 146.86,153.75 148.17,154.69 149.83,155.38 C 150.65,155.72 151.48,155.96 152.35,156.13 C 152.46,156.15 152.56,156.17 152.67,156.18 C 152.73,156.19 152.78,156.2 152.83,156.21 C 152.88,156.22 152.94,156.21 152.99,156.23 C 153.04,156.25 152.96,156.27 152.93,156.26 C 152.87,156.26 152.82,156.26 152.77,156.26 C 152.66,156.26 152.55,156.25 152.44,156.24 C 152.01,156.22 151.58,156.17 151.15,156.11 C 147.82,155.58 144.48,153.7 142.85,150.56 C 142.06,149.03 141.68,147.28 141.64,145.58 C 141.62,144.96 141.65,144.36 141.72,143.75 C 141.75,143.45 141.8,143.15 141.85,142.85 C 141.88,142.7 141.91,142.55 141.94,142.4 C 141.95,142.35 141.93,142.28 142.01,142.29 C 142.05,142.29 142.08,142.29 142.12,142.29 C 142.4,142.31 142.69,142.33 142.97,142.37 C 143.11,142.39 143.25,142.41 143.39,142.44 C 143.46,142.45 143.53,142.46 143.6,142.48 C 143.63,142.48 143.67,142.49 143.7,142.5 C 143.73,142.5 143.81,142.49 143.79,142.54 z"
		 />

		<!-- Prism Reference -->
		<cam mingh:cam="--verb EditSelectAll --verb ZoomSelection --verb FileSave " /> 
	 </g>

</svg>
