<svg
   xmlns:xlink="http://www.w3.org/1999/xlink"
   xmlns:svg="http://www.w3.org/2000/svg"
   xmlns="http://www.w3.org/2000/svg"
   xmlns:mingh="http://www.minghworld.com"
   width="300px"
   height="300px" >
	
	 <g>
		
		<!-- Paths -->
		<path style="fill:none;stroke:#000;stroke-width:0.25px;"
		 d="M 165.75,127.78 C 165.58,127.79 165.42,127.85 165.25,128.03 C 164.88,128.43 164.6,129.11 164.44,129.59 C 164.24,130.16 164.09,130.75 163.97,131.34 C 163.92,131.61 163.88,131.86 163.84,132.13 C 163.83,132.25 163.8,132.4 163.78,132.53 C 163.77,132.6 163.76,132.65 163.75,132.72 C 163.75,132.74 163.75,132.73 163.75,132.75 C 163.74,132.78 163.72,132.77 163.72,132.75 C 163.71,132.72 163.72,132.69 163.72,132.66 C 163.51,131.54 163.24,130.49 162.63,129.5 C 162.34,129.03 161.88,128.44 161.41,128.13 C 160.98,127.84 160.62,127.84 160.25,128.22 C 159.88,128.6 159.65,129.22 159.47,129.69 C 159.24,130.29 159.05,130.91 158.88,131.53 C 158.59,132.53 158.35,133.5 158.22,134.53 C 158.09,135.55 158.07,136.54 158.19,137.56 C 158.31,138.62 158.56,139.6 159.0,140.56 C 159.17,140.93 160.22,142.99 160.41,143.34 C 160.53,143.57 160.65,143.81 160.78,144.03 C 160.85,144.14 160.93,144.24 161.0,144.34 C 161.03,144.38 160.99,144.39 160.97,144.41 C 160.94,144.43 160.9,144.45 160.88,144.47 C 160.83,144.51 160.8,144.58 160.75,144.63 C 160.36,144.97 160.01,145.35 159.69,145.75 C 159.36,146.15 159.06,146.55 158.75,146.97 C 158.71,147.02 158.66,147.07 158.63,147.13 C 158.62,147.13 158.58,147.22 158.56,147.22 C 158.53,147.22 158.52,147.17 158.5,147.16 C 158.48,147.14 158.49,147.14 158.47,147.13 C 158.33,147.01 158.2,146.89 158.06,146.78 C 157.79,146.56 157.5,146.34 157.22,146.13 C 156.09,145.27 154.9,144.51 153.66,143.84 C 153.39,143.7 153.15,143.57 152.88,143.44 C 152.74,143.37 152.61,143.31 152.47,143.25 C 152.4,143.22 152.32,143.19 152.25,143.16 C 152.22,143.14 152.19,143.14 152.16,143.13 C 152.12,143.11 152.09,143.1 152.06,143.06 C 152.03,143.02 152.1,143.04 152.13,143.03 C 152.16,143.02 152.19,143.01 152.22,143.0 C 152.28,142.98 152.34,142.96 152.41,142.94 C 152.53,142.89 152.66,142.84 152.78,142.78 C 153.03,142.67 153.24,142.54 153.47,142.38 C 154.39,141.71 154.98,140.72 155.13,139.59 C 155.41,137.31 153.76,135.25 151.47,135.03 C 149.15,134.81 147.13,136.58 147.03,138.91 C 147.01,139.49 147.1,140.02 147.31,140.56 C 147.41,140.82 147.51,141.05 147.66,141.28 C 147.73,141.39 147.83,141.49 147.91,141.59 C 147.93,141.62 147.95,141.66 147.97,141.69 C 148.0,141.74 147.91,141.69 147.88,141.69 C 147.8,141.67 147.73,141.64 147.66,141.63 C 146.46,141.39 145.28,141.29 144.06,141.31 C 139.54,141.38 135.2,143.28 132.19,146.69 C 129.17,150.09 127.86,154.71 128.22,159.16 C 128.22,159.2 128.15,159.18 128.13,159.19 C 128.09,159.19 128.07,159.18 128.03,159.19 C 127.96,159.2 127.88,159.24 127.81,159.25 C 127.68,159.28 127.54,159.31 127.41,159.34 C 127.14,159.41 126.88,159.46 126.63,159.56 C 126.12,159.77 125.71,160.06 125.34,160.47 C 124.63,161.28 124.25,162.42 124.19,163.47 C 124.05,165.68 125.3,167.86 127.34,168.75 C 128.38,169.2 129.47,169.28 130.56,168.97 C 131.11,168.81 131.62,168.57 132.09,168.25 C 132.15,168.21 132.19,168.17 132.25,168.13 C 132.28,168.1 132.3,168.06 132.34,168.09 C 132.37,168.11 132.41,168.14 132.44,168.16 C 132.55,168.23 132.64,168.31 132.75,168.38 C 132.98,168.5 133.25,168.6 133.5,168.69 C 134.02,168.88 134.54,168.98 135.09,169.03 C 135.37,169.06 135.63,169.07 135.91,169.06 L 136.0,169.06 C 136.02,169.06 136.04,169.04 136.06,169.06 C 136.08,169.08 136.06,169.11 136.06,169.13 C 136.06,169.18 136.06,169.25 136.06,169.31 C 136.06,169.44 136.05,169.56 136.06,169.69 C 136.19,171.58 136.51,172.0 138.44,172.16 C 139.06,172.21 139.99,172.28 140.63,172.19 C 141.22,172.1 141.53,171.86 141.81,171.34 C 141.89,171.2 141.96,171.04 142.06,170.91 C 142.13,170.82 142.2,170.77 142.31,170.75 C 142.47,170.72 142.62,170.75 142.78,170.75 C 143.06,170.76 143.35,170.77 143.63,170.78 C 145.08,170.85 146.52,170.93 147.97,171.09 C 149.38,171.25 149.93,171.31 151.34,171.41 C 151.89,171.44 152.42,171.49 152.97,171.53 C 153.51,171.57 154.05,171.64 154.59,171.66 C 155.16,171.67 155.73,171.64 156.28,171.5 C 156.52,171.44 156.83,171.35 157.0,171.13 C 157.17,170.9 157.18,170.57 157.13,170.31 C 157.01,169.74 156.57,169.33 156.16,169.0 C 155.72,168.65 155.25,168.38 154.78,168.09 C 154.67,168.02 154.55,167.94 154.44,167.88 C 154.38,167.84 154.31,167.81 154.25,167.78 C 154.22,167.77 154.16,167.73 154.22,167.72 C 154.25,167.71 154.28,167.7 154.31,167.69 C 154.58,167.63 154.84,167.54 155.09,167.44 C 155.35,167.33 155.61,167.21 155.84,167.06 C 155.9,167.02 155.94,166.98 156.0,166.94 C 156.03,166.92 156.05,166.89 156.09,166.91 C 156.13,166.92 156.16,166.93 156.19,166.94 C 156.32,166.99 156.47,167.05 156.59,167.09 C 157.64,167.48 158.67,167.78 159.59,168.47 C 160.05,168.81 160.47,169.19 160.91,169.56 C 161.37,169.96 161.85,170.34 162.38,170.66 C 163.33,171.23 164.27,171.57 165.41,171.63 C 165.95,171.65 166.54,171.6 167.03,171.31 C 167.58,170.99 167.73,170.41 167.47,169.84 C 167.22,169.3 166.69,169.02 166.22,168.78 C 165.49,168.4 165.45,168.35 165.22,167.56 C 164.91,166.5 164.61,165.41 164.22,164.38 C 164.2,164.32 164.35,164.27 164.38,164.25 C 164.43,164.21 164.48,164.17 164.53,164.13 C 164.64,164.04 164.74,163.93 164.84,163.84 C 165.05,163.66 165.24,163.48 165.44,163.28 C 165.84,162.89 166.24,162.47 166.59,162.03 C 167.28,161.19 167.96,160.25 168.16,159.13 C 168.26,158.5 168.21,157.87 168.13,157.25 C 168.12,157.2 168.13,157.17 168.13,157.13 C 168.12,157.11 168.07,156.98 168.09,156.97 C 168.11,156.96 168.14,156.97 168.16,156.97 C 168.17,156.97 168.2,157.0 168.22,157.0 C 168.25,157.0 168.28,157.0 168.31,157.0 C 168.45,157.01 168.58,157.01 168.72,157.0 C 168.98,156.98 169.25,156.91 169.5,156.81 C 170.12,156.57 170.36,156.25 170.84,155.84 C 171.46,155.32 171.84,155.32 172.59,155.25 C 173.28,155.19 173.57,155.14 174.0,154.53 C 174.31,154.09 174.67,153.71 175.06,153.34 C 175.47,152.97 175.89,152.63 175.84,151.97 C 175.8,151.34 175.44,150.96 175.06,150.53 C 174.18,149.52 173.86,148.98 173.47,147.69 C 173.07,146.36 173.05,145.84 171.88,144.91 C 171.11,144.29 169.93,143.68 169.03,143.31 C 168.52,143.1 167.99,142.94 167.44,142.84 C 167.39,142.83 167.4,142.78 167.41,142.75 C 167.41,142.72 167.43,142.69 167.44,142.66 C 167.45,142.59 167.48,142.53 167.5,142.47 C 167.53,142.34 167.54,142.2 167.56,142.06 C 167.62,141.8 167.67,141.52 167.72,141.25 C 167.81,140.7 167.9,140.14 168.0,139.59 C 168.1,139.04 168.21,138.49 168.31,137.94 C 168.51,136.87 168.72,135.84 168.78,134.75 C 168.84,133.58 168.66,132.48 168.28,131.38 C 168.05,130.69 167.76,130.04 167.41,129.41 C 167.14,128.93 166.77,128.31 166.31,127.97 C 166.12,127.83 165.92,127.78 165.75,127.78 z M 151.09,137.31 C 151.33,137.31 151.57,137.35 151.78,137.44 C 152.0,137.53 152.18,137.65 152.34,137.81 C 152.51,137.98 152.63,138.19 152.72,138.41 C 152.81,138.62 152.88,138.83 152.88,139.06 C 152.88,139.29 152.81,139.54 152.72,139.75 C 152.63,139.96 152.51,140.18 152.34,140.34 C 152.18,140.51 152.0,140.63 151.78,140.72 C 151.57,140.81 151.33,140.84 151.09,140.84 C 150.86,140.84 150.62,140.81 150.41,140.72 C 150.19,140.63 150.01,140.51 149.84,140.34 C 149.68,140.18 149.56,139.96 149.47,139.75 C 149.38,139.54 149.31,139.29 149.31,139.06 C 149.31,138.83 149.38,138.62 149.47,138.41 C 149.56,138.19 149.68,137.98 149.84,137.81 C 150.01,137.65 150.19,137.53 150.41,137.44 C 150.62,137.35 150.86,137.31 151.09,137.31 z"
		 />
		 <path style="fill:#f00;stroke:none;"
		 d="M 156.05,166.74 C 156.04,166.73 155.98,166.78 155.97,166.79 C 155.95,166.81 155.92,166.82 155.9,166.84 C 155.85,166.88 155.8,166.91 155.74,166.95 C 155.64,167.01 155.54,167.07 155.43,167.13 C 155.21,167.25 154.99,167.34 154.76,167.42 C 154.7,167.44 154.64,167.46 154.58,167.47 C 154.56,167.48 154.55,167.48 154.53,167.49 C 154.52,167.49 154.49,167.51 154.5,167.49 C 154.51,167.49 154.52,167.48 154.52,167.47 C 154.55,167.43 154.58,167.4 154.61,167.37 C 154.67,167.31 154.73,167.24 154.8,167.19 C 155.06,166.95 155.35,166.77 155.69,166.65 C 156.02,166.53 156.36,166.48 156.71,166.49 C 156.89,166.5 157.06,166.52 157.23,166.55 C 157.28,166.56 157.32,166.57 157.36,166.58 C 157.38,166.58 157.41,166.59 157.43,166.59 C 157.44,166.59 157.47,166.61 157.45,166.6 C 157.45,166.59 157.44,166.59 157.43,166.58 C 157.35,166.54 157.28,166.49 157.21,166.44 C 156.46,165.91 155.99,165.12 155.98,164.19 C 155.98,163.28 156.41,162.45 157.16,161.93 C 157.9,161.43 158.87,161.34 159.69,161.68 C 160.12,161.86 160.45,162.11 160.75,162.45 C 160.83,162.54 160.89,162.63 160.96,162.72 C 160.99,162.76 161.02,162.81 161.05,162.86 C 161.06,162.88 161.08,162.9 161.09,162.93 C 161.1,162.93 161.1,162.94 161.1,162.95 C 161.11,162.95 161.1,162.94 161.1,162.94 C 161.1,162.92 161.1,162.91 161.09,162.89 C 161.04,162.68 161.01,162.46 161.0,162.24 C 160.93,160.32 162.78,158.88 164.61,159.55 C 165.34,159.82 165.94,160.43 166.21,161.16 C 166.28,161.35 166.32,161.54 166.35,161.73 C 166.36,161.83 166.37,161.93 166.38,162.02 C 166.38,162.08 166.33,162.11 166.3,162.15 C 166.25,162.2 166.21,162.26 166.16,162.31 C 166.06,162.42 165.97,162.53 165.87,162.64 C 165.84,162.67 165.82,162.69 165.79,162.72 C 165.79,162.73 165.79,162.71 165.79,162.7 C 165.79,162.7 165.78,162.69 165.78,162.69 C 165.77,162.66 165.77,162.64 165.76,162.61 C 165.74,162.56 165.72,162.52 165.7,162.47 C 165.66,162.37 165.62,162.28 165.57,162.19 C 165.47,162.02 165.35,161.86 165.2,161.72 C 164.58,161.11 163.56,160.98 162.77,161.32 C 161.89,161.7 161.48,162.61 161.46,163.51 C 161.46,163.56 161.46,163.62 161.46,163.67 C 161.46,163.7 161.46,163.73 161.46,163.76 C 161.47,163.78 161.49,163.86 161.46,163.82 C 161.39,163.74 161.32,163.66 161.24,163.58 C 161.07,163.42 160.89,163.29 160.68,163.17 C 160.27,162.93 159.88,162.81 159.39,162.84 C 158.53,162.88 157.73,163.55 157.45,164.35 C 157.18,165.11 157.42,165.89 157.88,166.49 C 158.0,166.64 158.13,166.78 158.27,166.91 C 158.29,166.93 158.31,166.94 158.33,166.96 C 158.35,166.98 158.29,166.96 158.28,166.96 C 158.23,166.96 158.18,166.96 158.14,166.95 C 158.04,166.95 157.95,166.95 157.85,166.96 C 157.65,166.98 157.46,167.01 157.27,167.06 C 157.22,167.08 157.18,167.09 157.13,167.11 C 157.12,167.11 157.11,167.11 157.1,167.12 C 157.07,167.13 157.05,167.11 157.02,167.1 C 156.96,167.08 156.89,167.05 156.83,167.03 C 156.57,166.93 156.31,166.83 156.05,166.74 z M 164.06,164.29 C 164.03,164.32 164.08,164.4 164.09,164.42 C 164.11,164.46 164.12,164.51 164.14,164.55 C 164.17,164.63 164.2,164.72 164.23,164.81 C 164.29,164.98 164.35,165.15 164.41,165.32 C 164.45,165.44 164.48,165.55 164.52,165.66 C 164.53,165.69 164.53,165.72 164.54,165.74 C 164.54,165.75 164.56,165.8 164.55,165.81 C 164.54,165.82 164.53,165.82 164.52,165.83 C 164.47,165.87 164.42,165.9 164.37,165.93 C 164.27,165.99 164.16,166.04 164.04,166.07 C 163.29,166.27 162.53,165.81 162.35,165.06 C 162.18,164.31 162.65,163.56 163.41,163.4 C 163.77,163.33 164.14,163.4 164.45,163.6 C 164.52,163.65 164.59,163.7 164.65,163.76 C 164.65,163.77 164.66,163.78 164.67,163.78 C 164.69,163.81 164.65,163.82 164.64,163.83 C 164.57,163.88 164.51,163.94 164.45,163.99 C 164.32,164.09 164.19,164.19 164.06,164.29 z M 149.17,156.61 C 149.05,156.48 148.95,156.33 148.88,156.16 C 148.81,156.0 148.77,155.82 148.77,155.64 C 148.77,155.46 148.81,155.28 148.88,155.11 C 148.95,154.95 149.05,154.79 149.17,154.67 C 149.3,154.54 149.45,154.44 149.62,154.37 C 149.78,154.3 149.96,154.27 150.14,154.27 C 150.32,154.27 150.5,154.3 150.67,154.37 C 150.83,154.44 150.99,154.54 151.11,154.67 C 151.24,154.79 151.34,154.95 151.41,155.11 C 151.48,155.28 151.51,155.46 151.51,155.64 C 151.51,155.82 151.48,156.0 151.41,156.16 C 151.34,156.33 151.24,156.48 151.11,156.61 C 150.99,156.73 150.83,156.84 150.67,156.9 C 150.5,156.97 150.32,157.01 150.14,157.01 C 149.96,157.01 149.78,156.97 149.62,156.9 C 149.45,156.84 149.3,156.73 149.17,156.61 z M 145.63,156.94 C 145.63,156.76 145.67,156.58 145.74,156.41 C 145.81,156.25 145.91,156.09 146.04,155.97 C 146.16,155.84 146.31,155.74 146.48,155.67 C 146.65,155.6 146.83,155.57 147.01,155.57 C 147.18,155.57 147.36,155.6 147.53,155.67 C 147.7,155.74 147.85,155.84 147.98,155.97 C 148.1,156.09 148.2,156.25 148.27,156.41 C 148.34,156.58 148.38,156.76 148.38,156.94 C 148.38,157.12 148.34,157.3 148.27,157.46 C 148.2,157.63 148.1,157.78 147.98,157.91 C 147.85,158.03 147.7,158.14 147.53,158.2 C 147.36,158.27 147.18,158.31 147.01,158.31 C 146.83,158.31 146.65,158.27 146.48,158.2 C 146.31,158.14 146.16,158.03 146.04,157.91 C 145.91,157.78 145.81,157.63 145.74,157.46 C 145.67,157.3 145.63,157.12 145.63,156.94 z M 142.9,154.67 C 143.02,154.54 143.18,154.44 143.34,154.37 C 143.51,154.3 143.69,154.27 143.87,154.27 C 144.05,154.27 144.23,154.3 144.39,154.37 C 144.56,154.44 144.71,154.54 144.84,154.67 C 144.96,154.79 145.07,154.95 145.13,155.11 C 145.2,155.28 145.24,155.46 145.24,155.64 C 145.24,155.82 145.2,156.0 145.13,156.16 C 145.07,156.33 144.96,156.48 144.84,156.61 C 144.71,156.73 144.56,156.84 144.39,156.9 C 144.23,156.97 144.05,157.01 143.87,157.01 C 143.69,157.01 143.51,156.97 143.34,156.9 C 143.18,156.84 143.02,156.73 142.9,156.61 C 142.77,156.48 142.67,156.33 142.6,156.16 C 142.53,156.0 142.5,155.82 142.5,155.64 C 142.5,155.46 142.53,155.28 142.6,155.11 C 142.67,154.95 142.77,154.79 142.9,154.67 z M 142.57,151.13 C 142.75,151.13 142.93,151.16 143.09,151.23 C 143.26,151.3 143.41,151.4 143.54,151.53 C 143.66,151.66 143.77,151.81 143.83,151.97 C 143.9,152.14 143.94,152.32 143.94,152.5 C 143.94,152.68 143.9,152.86 143.83,153.02 C 143.77,153.19 143.66,153.34 143.54,153.47 C 143.41,153.6 143.26,153.7 143.09,153.77 C 142.93,153.83 142.75,153.87 142.57,153.87 C 142.39,153.87 142.21,153.83 142.04,153.77 C 141.88,153.7 141.72,153.6 141.6,153.47 C 141.47,153.34 141.37,153.19 141.3,153.02 C 141.23,152.86 141.2,152.68 141.2,152.5 C 141.2,152.32 141.23,152.14 141.3,151.97 C 141.37,151.81 141.47,151.66 141.6,151.53 C 141.72,151.4 141.88,151.3 142.04,151.23 C 142.21,151.16 142.39,151.13 142.57,151.13 z M 144.84,148.39 C 144.96,148.52 145.07,148.67 145.13,148.84 C 145.2,149.0 145.24,149.18 145.24,149.36 C 145.24,149.54 145.2,149.72 145.13,149.89 C 145.07,150.05 144.96,150.2 144.84,150.33 C 144.71,150.46 144.56,150.56 144.39,150.63 C 144.23,150.7 144.05,150.73 143.87,150.73 C 143.69,150.73 143.51,150.7 143.34,150.63 C 143.18,150.56 143.02,150.46 142.9,150.33 C 142.77,150.2 142.67,150.05 142.6,149.89 C 142.53,149.72 142.5,149.54 142.5,149.36 C 142.5,149.18 142.53,149.0 142.6,148.84 C 142.67,148.67 142.77,148.52 142.9,148.39 C 143.02,148.26 143.18,148.16 143.34,148.09 C 143.51,148.03 143.69,147.99 143.87,147.99 C 144.05,147.99 144.23,148.03 144.39,148.09 C 144.56,148.16 144.71,148.26 144.84,148.39 z M 148.38,148.06 C 148.38,148.24 148.34,148.42 148.27,148.59 C 148.2,148.75 148.1,148.9 147.98,149.03 C 147.85,149.16 147.7,149.26 147.53,149.33 C 147.36,149.4 147.18,149.43 147.01,149.43 C 146.83,149.43 146.65,149.4 146.48,149.33 C 146.31,149.26 146.16,149.16 146.04,149.03 C 145.91,148.9 145.81,148.75 145.74,148.59 C 145.67,148.42 145.63,148.24 145.63,148.06 C 145.63,147.88 145.67,147.7 145.74,147.54 C 145.81,147.37 145.91,147.22 146.04,147.09 C 146.16,146.96 146.31,146.86 146.48,146.79 C 146.65,146.73 146.83,146.69 147.01,146.69 C 147.18,146.69 147.36,146.73 147.53,146.79 C 147.7,146.86 147.85,146.96 147.98,147.09 C 148.1,147.22 148.2,147.37 148.27,147.54 C 148.34,147.7 148.38,147.88 148.38,148.06 z M 151.11,150.33 C 150.99,150.46 150.83,150.56 150.67,150.63 C 150.5,150.7 150.32,150.73 150.14,150.73 C 149.96,150.73 149.78,150.7 149.62,150.63 C 149.45,150.56 149.3,150.46 149.17,150.33 C 149.05,150.2 148.95,150.05 148.88,149.89 C 148.81,149.72 148.77,149.54 148.77,149.36 C 148.77,149.18 148.81,149.0 148.88,148.84 C 148.95,148.67 149.05,148.52 149.17,148.39 C 149.3,148.26 149.45,148.16 149.62,148.09 C 149.78,148.03 149.96,147.99 150.14,147.99 C 150.32,147.99 150.5,148.03 150.67,148.09 C 150.83,148.16 150.99,148.26 151.11,148.39 C 151.24,148.52 151.34,148.67 151.41,148.84 C 151.48,149.0 151.51,149.18 151.51,149.36 C 151.51,149.54 151.48,149.72 151.41,149.89 C 151.34,150.05 151.24,150.2 151.11,150.33 z M 151.44,153.87 C 151.26,153.87 151.08,153.83 150.92,153.77 C 150.75,153.7 150.6,153.6 150.47,153.47 C 150.35,153.34 150.25,153.19 150.18,153.02 C 150.11,152.86 150.07,152.68 150.07,152.5 C 150.07,152.32 150.11,152.14 150.18,151.97 C 150.25,151.81 150.35,151.66 150.47,151.53 C 150.6,151.4 150.75,151.3 150.92,151.23 C 151.08,151.16 151.26,151.13 151.44,151.13 C 151.62,151.13 151.8,151.16 151.97,151.23 C 152.13,151.3 152.29,151.4 152.41,151.53 C 152.54,151.66 152.64,151.81 152.71,151.97 C 152.78,152.14 152.81,152.32 152.81,152.5 C 152.81,152.68 152.78,152.86 152.71,153.02 C 152.64,153.19 152.54,153.34 152.41,153.47 C 152.29,153.6 152.13,153.7 151.97,153.77 C 151.8,153.83 151.62,153.87 151.44,153.87 z M 145.7,152.17 C 145.74,152.0 145.82,151.84 145.93,151.7 C 146.03,151.55 146.17,151.43 146.32,151.34 C 146.47,151.25 146.64,151.19 146.81,151.17 C 146.98,151.14 147.16,151.15 147.33,151.19 C 147.51,151.24 147.67,151.31 147.81,151.42 C 147.95,151.53 148.07,151.66 148.16,151.81 C 148.25,151.96 148.31,152.13 148.34,152.3 C 148.36,152.48 148.35,152.66 148.31,152.83 C 148.27,153.0 148.19,153.16 148.08,153.3 C 147.98,153.44 147.85,153.56 147.69,153.65 C 147.54,153.74 147.37,153.8 147.2,153.83 C 147.03,153.86 146.85,153.85 146.68,153.8 C 146.51,153.76 146.34,153.68 146.2,153.58 C 146.06,153.47 145.94,153.34 145.85,153.19 C 145.76,153.04 145.7,152.87 145.67,152.69 C 145.65,152.52 145.66,152.34 145.7,152.17 z M 149.22,147.15 C 149.27,146.65 149.18,146.08 148.94,145.61 C 148.75,145.24 148.47,144.93 148.12,144.73 C 147.79,144.54 147.4,144.45 147.01,144.45 C 146.62,144.45 146.22,144.54 145.89,144.73 C 145.54,144.93 145.26,145.24 145.07,145.61 C 144.83,146.08 144.74,146.65 144.79,147.15 C 144.47,146.76 144.0,146.42 143.5,146.26 C 143.11,146.13 142.69,146.12 142.31,146.22 C 141.93,146.32 141.59,146.53 141.32,146.81 C 141.04,147.09 140.83,147.43 140.73,147.8 C 140.62,148.18 140.64,148.6 140.77,149.0 C 140.93,149.5 141.27,149.96 141.65,150.28 C 141.16,150.24 140.58,150.32 140.12,150.56 C 139.75,150.75 139.44,151.04 139.24,151.38 C 139.05,151.72 138.96,152.11 138.96,152.5 C 138.96,152.89 139.05,153.28 139.24,153.62 C 139.44,153.96 139.75,154.25 140.12,154.43 C 140.58,154.67 141.16,154.76 141.65,154.72 C 141.27,155.03 140.93,155.5 140.77,156.0 C 140.64,156.4 140.62,156.82 140.73,157.2 C 140.83,157.57 141.04,157.91 141.32,158.19 C 141.59,158.46 141.93,158.68 142.31,158.78 C 142.69,158.88 143.11,158.87 143.5,158.74 C 144.0,158.58 144.47,158.23 144.79,157.85 C 144.74,158.35 144.83,158.92 145.07,159.39 C 145.26,159.76 145.54,160.07 145.89,160.26 C 146.22,160.46 146.62,160.54 147.01,160.54 C 147.4,160.54 147.79,160.46 148.12,160.26 C 148.47,160.07 148.75,159.76 148.94,159.39 C 149.18,158.92 149.27,158.35 149.22,157.85 C 149.54,158.23 150.01,158.58 150.51,158.74 C 150.9,158.87 151.32,158.88 151.71,158.78 C 152.08,158.68 152.42,158.46 152.69,158.19 C 152.97,157.91 153.18,157.57 153.29,157.2 C 153.39,156.82 153.37,156.4 153.24,156.0 C 153.08,155.5 152.74,155.03 152.36,154.72 C 152.85,154.76 153.43,154.67 153.89,154.43 C 154.27,154.25 154.57,153.96 154.77,153.62 C 154.96,153.28 155.05,152.89 155.05,152.5 C 155.05,152.11 154.96,151.72 154.77,151.38 C 154.57,151.04 154.27,150.75 153.89,150.56 C 153.43,150.32 152.85,150.24 152.36,150.28 C 152.74,149.96 153.08,149.5 153.24,149.0 C 153.37,148.6 153.39,148.18 153.29,147.8 C 153.18,147.43 152.97,147.09 152.69,146.81 C 152.42,146.53 152.08,146.32 151.71,146.22 C 151.32,146.12 150.9,146.13 150.51,146.26 C 150.01,146.42 149.54,146.76 149.22,147.15 z M 144.42,146.27 C 144.36,146.01 144.32,145.74 144.32,145.48 C 144.31,145.06 144.4,144.63 144.58,144.25 C 144.83,143.72 145.26,143.28 145.78,143.01 C 146.15,142.82 146.55,142.71 146.97,142.71 C 146.99,142.71 147.01,142.71 147.02,142.71 C 147.46,142.72 147.87,142.82 148.25,143.02 C 148.75,143.28 149.18,143.73 149.43,144.25 C 149.61,144.63 149.7,145.06 149.7,145.48 C 149.69,145.74 149.65,146.01 149.59,146.27 C 149.72,146.04 149.88,145.82 150.07,145.63 C 150.36,145.33 150.72,145.09 151.12,144.95 C 151.67,144.75 152.3,144.75 152.85,144.92 C 153.24,145.04 153.6,145.26 153.9,145.56 C 153.91,145.57 153.93,145.58 153.94,145.59 C 154.25,145.9 154.46,146.27 154.59,146.67 C 154.76,147.22 154.75,147.84 154.55,148.39 C 154.41,148.78 154.17,149.14 153.87,149.44 C 153.68,149.62 153.47,149.78 153.24,149.92 C 153.49,149.85 153.76,149.81 154.03,149.81 C 154.45,149.81 154.87,149.89 155.25,150.07 C 155.78,150.32 156.23,150.76 156.5,151.27 C 156.69,151.64 156.79,152.04 156.79,152.47 C 156.79,152.48 156.79,152.5 156.79,152.51 C 156.79,152.95 156.69,153.37 156.49,153.74 C 156.22,154.25 155.78,154.68 155.25,154.93 C 154.87,155.11 154.45,155.19 154.03,155.19 C 153.76,155.19 153.49,155.15 153.24,155.08 C 153.47,155.21 153.68,155.37 153.87,155.56 C 154.17,155.86 154.41,156.22 154.55,156.61 C 154.75,157.17 154.76,157.79 154.58,158.34 C 154.46,158.74 154.25,159.1 153.95,159.4 C 153.94,159.41 153.93,159.42 153.92,159.43 C 153.6,159.74 153.24,159.96 152.83,160.08 C 152.28,160.25 151.67,160.24 151.12,160.05 C 150.72,159.91 150.36,159.67 150.07,159.36 C 149.88,159.17 149.72,158.96 149.59,158.73 C 149.65,158.99 149.69,159.25 149.7,159.52 C 149.7,159.94 149.61,160.37 149.43,160.75 C 149.18,161.28 148.75,161.72 148.23,161.99 C 147.87,162.18 147.46,162.28 147.04,162.29 C 147.02,162.29 147.01,162.29 146.99,162.29 C 146.55,162.28 146.14,162.18 145.76,161.98 C 145.26,161.71 144.83,161.27 144.58,160.74 C 144.4,160.37 144.31,159.94 144.32,159.52 C 144.32,159.25 144.36,158.99 144.42,158.73 C 144.29,158.96 144.13,159.17 143.94,159.36 C 143.65,159.67 143.29,159.91 142.89,160.05 C 142.34,160.24 141.71,160.25 141.16,160.08 C 140.77,159.95 140.41,159.74 140.11,159.44 C 140.1,159.43 140.08,159.42 140.07,159.41 C 139.77,159.1 139.55,158.73 139.42,158.33 C 139.25,157.78 139.26,157.16 139.46,156.61 C 139.6,156.22 139.84,155.86 140.14,155.56 C 140.33,155.37 140.54,155.21 140.77,155.08 C 140.52,155.15 140.25,155.19 139.99,155.19 C 139.56,155.19 139.14,155.11 138.76,154.93 C 138.23,154.67 137.78,154.24 137.51,153.72 C 137.32,153.36 137.22,152.95 137.22,152.53 C 137.22,152.51 137.22,152.5 137.22,152.48 C 137.22,152.04 137.33,151.63 137.52,151.26 C 137.79,150.75 138.23,150.32 138.76,150.07 C 139.14,149.89 139.56,149.8 139.99,149.81 C 140.25,149.81 140.52,149.85 140.77,149.92 C 140.54,149.78 140.33,149.62 140.14,149.44 C 139.84,149.14 139.6,148.78 139.46,148.38 C 139.26,147.83 139.25,147.21 139.43,146.65 C 139.55,146.26 139.77,145.9 140.06,145.6 C 140.07,145.59 140.08,145.58 140.1,145.57 C 140.41,145.26 140.77,145.04 141.18,144.92 C 141.73,144.75 142.34,144.75 142.89,144.95 C 143.29,145.09 143.65,145.33 143.94,145.63 C 144.13,145.82 144.29,146.04 144.42,146.27 z M 151.01,171.26 C 150.74,171.24 150.48,171.22 150.21,171.2 C 150.08,171.19 149.95,171.17 149.81,171.16 C 149.72,171.15 149.63,171.14 149.54,171.14 C 149.52,171.13 149.44,171.14 149.48,171.12 C 149.49,171.12 149.5,171.11 149.51,171.1 C 149.99,170.85 150.59,170.91 151.01,171.26 z M 137.48,171.87 C 137.41,171.85 137.34,171.83 137.27,171.81 C 137.14,171.77 137.01,171.71 136.9,171.64 C 136.8,171.58 136.7,171.51 136.63,171.42 C 136.61,171.39 136.59,171.37 136.57,171.34 C 136.79,171.29 137.01,171.22 137.21,171.12 C 137.58,170.93 137.89,170.64 138.09,170.3 C 138.28,169.96 138.37,169.57 138.37,169.18 C 138.37,168.79 138.28,168.4 138.09,168.06 C 137.89,167.72 137.58,167.43 137.21,167.25 C 136.74,167.01 136.17,166.92 135.67,166.96 C 136.06,166.64 136.4,166.18 136.56,165.68 C 136.69,165.28 136.71,164.86 136.6,164.48 C 136.5,164.11 136.29,163.77 136.01,163.49 C 135.74,163.22 135.4,163.0 135.02,162.9 C 134.64,162.8 134.22,162.81 133.82,162.94 C 133.33,163.1 132.86,163.45 132.54,163.83 C 132.59,163.33 132.5,162.76 132.26,162.29 C 132.07,161.92 131.78,161.61 131.44,161.42 C 131.1,161.22 130.71,161.14 130.32,161.14 C 129.93,161.14 129.54,161.22 129.21,161.42 C 128.86,161.61 128.58,161.92 128.39,162.29 C 128.15,162.76 128.06,163.33 128.11,163.83 C 127.79,163.45 127.32,163.1 126.82,162.94 C 126.42,162.81 126.01,162.8 125.62,162.9 C 125.25,163.0 124.91,163.22 124.63,163.49 C 124.51,163.62 124.4,163.75 124.3,163.9 C 124.3,163.61 124.32,163.31 124.36,163.02 C 124.42,162.65 124.52,162.28 124.65,161.93 C 124.7,161.79 124.76,161.65 124.83,161.52 C 125.28,161.44 125.77,161.48 126.21,161.63 C 126.6,161.77 126.96,162.01 127.26,162.32 C 127.45,162.51 127.61,162.72 127.74,162.95 C 127.67,162.69 127.64,162.43 127.63,162.16 C 127.63,161.74 127.71,161.31 127.9,160.93 C 128.15,160.4 128.58,159.96 129.1,159.69 C 129.46,159.5 129.87,159.4 130.29,159.39 C 130.31,159.39 130.32,159.39 130.34,159.39 C 130.78,159.4 131.19,159.5 131.56,159.7 C 132.07,159.97 132.5,160.41 132.75,160.94 C 132.93,161.31 133.02,161.74 133.01,162.16 C 133.01,162.43 132.97,162.69 132.9,162.95 C 133.04,162.72 133.2,162.51 133.38,162.32 C 133.68,162.01 134.04,161.77 134.44,161.63 C 134.99,161.44 135.61,161.43 136.17,161.6 C 136.56,161.73 136.92,161.94 137.22,162.24 C 137.23,162.25 137.24,162.26 137.25,162.27 C 137.56,162.58 137.78,162.95 137.91,163.35 C 138.07,163.9 138.07,164.52 137.87,165.07 C 137.73,165.46 137.49,165.82 137.19,166.12 C 137.0,166.31 136.78,166.47 136.55,166.6 C 136.81,166.53 137.08,166.49 137.34,166.49 C 137.77,166.49 138.19,166.57 138.57,166.75 C 139.1,167.01 139.55,167.44 139.81,167.96 C 140.01,168.32 140.11,168.73 140.11,169.15 C 140.11,169.16 140.11,169.18 140.11,169.2 C 140.11,169.64 140.0,170.05 139.81,170.42 C 139.54,170.93 139.1,171.36 138.57,171.61 C 138.23,171.77 137.86,171.86 137.48,171.87 z M 154.22,167.91 C 154.35,167.99 154.48,168.06 154.6,168.14 C 154.73,168.22 154.86,168.29 154.98,168.37 C 155.2,168.5 155.41,168.63 155.61,168.77 C 155.63,168.78 155.65,168.8 155.67,168.81 C 155.65,168.93 155.64,169.06 155.64,169.18 C 155.64,169.57 155.73,169.96 155.92,170.3 C 156.12,170.64 156.43,170.93 156.8,171.12 C 156.8,171.12 156.8,171.12 156.81,171.12 C 156.75,171.16 156.69,171.2 156.63,171.23 C 156.53,171.28 156.42,171.31 156.31,171.34 C 156.29,171.35 156.26,171.35 156.23,171.36 C 156.12,171.39 156.01,171.41 155.89,171.43 C 155.68,171.47 155.46,171.49 155.24,171.5 C 154.8,171.25 154.44,170.86 154.2,170.42 C 154.01,170.05 153.9,169.64 153.9,169.2 C 153.9,169.18 153.9,169.17 153.9,169.15 C 153.9,168.73 154.01,168.32 154.2,167.96 C 154.2,167.94 154.21,167.93 154.22,167.91 z M 129.01,152.78 C 129.11,152.45 129.21,152.12 129.33,151.79 C 129.35,151.75 129.42,151.5 129.46,151.47 C 129.48,151.45 129.51,151.43 129.53,151.41 C 129.59,151.37 129.64,151.34 129.7,151.31 C 129.82,151.24 129.95,151.2 130.09,151.17 C 130.81,151.05 131.51,151.52 131.64,152.25 C 131.78,152.97 131.31,153.67 130.59,153.82 C 129.87,153.96 129.16,153.5 129.01,152.78 z M 136.11,168.92 C 135.6,168.95 135.11,168.93 134.61,168.84 C 134.36,168.8 134.12,168.74 133.88,168.67 C 133.8,168.65 133.73,168.62 133.65,168.6 C 133.63,168.59 133.61,168.58 133.59,168.58 C 133.58,168.57 133.57,168.57 133.56,168.57 C 133.56,168.56 133.53,168.57 133.54,168.56 C 133.54,168.55 133.55,168.54 133.55,168.53 C 133.57,168.5 133.59,168.46 133.61,168.43 C 133.66,168.36 133.71,168.3 133.77,168.24 C 134.54,167.43 135.9,167.83 136.11,168.92 z M 130.4,149.43 C 130.59,149.08 130.8,148.75 131.02,148.42 C 131.13,148.25 131.24,148.09 131.36,147.93 C 131.42,147.85 131.47,147.78 131.53,147.7 C 131.56,147.67 131.58,147.63 131.61,147.59 C 131.62,147.58 131.62,147.6 131.62,147.61 C 131.62,147.61 131.62,147.62 131.62,147.63 C 131.64,147.67 131.65,147.72 131.66,147.76 C 131.85,148.59 131.25,149.38 130.4,149.43 z M 128.37,156.33 C 128.38,156.14 128.4,155.95 128.42,155.76 C 128.43,155.67 128.44,155.57 128.45,155.48 C 128.46,155.42 128.47,155.37 128.47,155.31 C 128.48,155.28 128.48,155.25 128.49,155.23 C 128.49,155.22 128.49,155.21 128.49,155.22 C 128.49,155.22 128.49,155.22 128.49,155.23 C 128.61,155.6 128.56,156.0 128.37,156.33 z M 160.62,169.13 C 160.33,168.88 160.05,168.62 159.74,168.39 C 159.59,168.27 159.43,168.16 159.26,168.06 C 159.19,168.02 159.11,167.97 159.04,167.93 C 159.0,167.91 158.96,167.89 158.92,167.87 C 158.92,167.87 158.89,167.86 158.9,167.85 C 158.91,167.85 158.91,167.85 158.92,167.85 C 158.96,167.84 159.0,167.83 159.05,167.82 C 159.86,167.7 160.59,168.31 160.62,169.13 z M 127.03,168.43 C 126.88,168.35 126.73,168.26 126.58,168.16 C 126.51,168.1 126.44,168.05 126.37,168.0 C 126.33,167.97 126.29,167.94 126.25,167.9 C 126.23,167.89 126.21,167.87 126.19,167.86 C 126.18,167.85 126.16,167.84 126.17,167.84 C 126.18,167.84 126.18,167.84 126.18,167.84 C 126.53,167.92 126.84,168.13 127.03,168.43 z M 131.46,168.46 C 131.02,168.69 130.57,168.84 130.08,168.93 C 129.84,168.98 129.6,169.0 129.36,169.01 C 129.28,169.01 129.21,169.01 129.13,169.01 C 129.09,169.0 129.06,169.0 129.02,169.0 C 129.0,169.0 128.99,169.0 128.99,168.98 C 129.0,168.94 129.01,168.9 129.01,168.87 C 129.03,168.79 129.06,168.72 129.09,168.65 C 129.52,167.65 130.88,167.55 131.46,168.46 z M 142.57,167.81 C 142.75,167.81 142.93,167.85 143.09,167.91 C 143.26,167.98 143.41,168.08 143.54,168.21 C 143.66,168.34 143.77,168.49 143.83,168.66 C 143.9,168.82 143.94,169.0 143.94,169.18 C 143.94,169.36 143.9,169.54 143.83,169.71 C 143.77,169.87 143.66,170.02 143.54,170.15 C 143.41,170.28 143.26,170.38 143.09,170.45 C 142.93,170.52 142.75,170.55 142.57,170.55 C 142.39,170.55 142.21,170.52 142.04,170.45 C 141.88,170.38 141.72,170.28 141.6,170.15 C 141.47,170.02 141.37,169.87 141.3,169.71 C 141.23,169.54 141.2,169.36 141.2,169.18 C 141.2,169.0 141.23,168.82 141.3,168.66 C 141.37,168.49 141.47,168.34 141.6,168.21 C 141.72,168.08 141.88,167.98 142.04,167.91 C 142.21,167.85 142.39,167.81 142.57,167.81 z M 144.84,165.07 C 144.96,165.2 145.07,165.35 145.13,165.52 C 145.2,165.68 145.24,165.86 145.24,166.04 C 145.24,166.22 145.2,166.4 145.13,166.57 C 145.07,166.73 144.96,166.89 144.84,167.01 C 144.71,167.14 144.56,167.24 144.39,167.31 C 144.23,167.38 144.05,167.41 143.87,167.41 C 143.69,167.41 143.51,167.38 143.34,167.31 C 143.18,167.24 143.02,167.14 142.9,167.01 C 142.77,166.89 142.67,166.73 142.6,166.57 C 142.53,166.4 142.5,166.22 142.5,166.04 C 142.5,165.86 142.53,165.68 142.6,165.52 C 142.67,165.35 142.77,165.2 142.9,165.07 C 143.02,164.95 143.18,164.84 143.34,164.78 C 143.51,164.71 143.69,164.67 143.87,164.67 C 144.05,164.67 144.23,164.71 144.39,164.78 C 144.56,164.84 144.71,164.95 144.84,165.07 z M 148.38,164.74 C 148.38,164.92 148.34,165.1 148.27,165.27 C 148.2,165.43 148.1,165.59 147.98,165.71 C 147.85,165.84 147.7,165.94 147.53,166.01 C 147.36,166.08 147.18,166.11 147.01,166.11 C 146.83,166.11 146.65,166.08 146.48,166.01 C 146.31,165.94 146.16,165.84 146.04,165.71 C 145.91,165.59 145.81,165.43 145.74,165.27 C 145.67,165.1 145.63,164.92 145.63,164.74 C 145.63,164.56 145.67,164.38 145.74,164.22 C 145.81,164.05 145.91,163.9 146.04,163.77 C 146.16,163.65 146.31,163.55 146.48,163.48 C 146.65,163.41 146.83,163.37 147.01,163.37 C 147.18,163.37 147.36,163.41 147.53,163.48 C 147.7,163.55 147.85,163.65 147.98,163.77 C 148.1,163.9 148.2,164.05 148.27,164.22 C 148.34,164.38 148.38,164.56 148.38,164.74 z M 151.11,167.01 C 150.99,167.14 150.83,167.24 150.67,167.31 C 150.5,167.38 150.32,167.41 150.14,167.41 C 149.96,167.41 149.78,167.38 149.62,167.31 C 149.45,167.24 149.3,167.14 149.17,167.01 C 149.05,166.89 148.95,166.73 148.88,166.57 C 148.81,166.4 148.77,166.22 148.77,166.04 C 148.77,165.86 148.81,165.68 148.88,165.52 C 148.95,165.35 149.05,165.2 149.17,165.07 C 149.3,164.95 149.45,164.84 149.62,164.78 C 149.78,164.71 149.96,164.67 150.14,164.67 C 150.32,164.67 150.5,164.71 150.67,164.78 C 150.83,164.84 150.99,164.95 151.11,165.07 C 151.24,165.2 151.34,165.35 151.41,165.52 C 151.48,165.68 151.51,165.86 151.51,166.04 C 151.51,166.22 151.48,166.4 151.41,166.57 C 151.34,166.73 151.24,166.89 151.11,167.01 z M 151.44,170.55 C 151.26,170.55 151.08,170.52 150.92,170.45 C 150.75,170.38 150.6,170.28 150.47,170.15 C 150.35,170.02 150.25,169.87 150.18,169.71 C 150.11,169.54 150.07,169.36 150.07,169.18 C 150.07,169.0 150.11,168.82 150.18,168.66 C 150.25,168.49 150.35,168.34 150.47,168.21 C 150.6,168.08 150.75,167.98 150.92,167.91 C 151.08,167.85 151.26,167.81 151.44,167.81 C 151.62,167.81 151.8,167.85 151.97,167.91 C 152.13,167.98 152.29,168.08 152.41,168.21 C 152.54,168.34 152.64,168.49 152.71,168.66 C 152.78,168.82 152.81,169.0 152.81,169.18 C 152.81,169.36 152.78,169.54 152.71,169.71 C 152.64,169.87 152.54,170.02 152.41,170.15 C 152.29,170.28 152.13,170.38 151.97,170.45 C 151.8,170.52 151.62,170.55 151.44,170.55 z M 145.7,168.85 C 145.74,168.68 145.82,168.52 145.93,168.38 C 146.03,168.24 146.17,168.12 146.32,168.03 C 146.47,167.94 146.64,167.88 146.81,167.85 C 146.98,167.82 147.16,167.83 147.33,167.88 C 147.51,167.92 147.67,168.0 147.81,168.1 C 147.95,168.21 148.07,168.34 148.16,168.49 C 148.25,168.64 148.31,168.81 148.34,168.99 C 148.36,169.16 148.35,169.34 148.31,169.51 C 148.27,169.68 148.19,169.84 148.08,169.98 C 147.98,170.13 147.85,170.25 147.69,170.34 C 147.54,170.43 147.37,170.49 147.2,170.51 C 147.03,170.54 146.85,170.53 146.68,170.49 C 146.51,170.44 146.34,170.37 146.2,170.26 C 146.06,170.15 145.94,170.02 145.85,169.87 C 145.76,169.72 145.7,169.55 145.67,169.38 C 145.65,169.2 145.66,169.02 145.7,168.85 z M 159.58,167.01 C 159.45,166.89 159.35,166.73 159.28,166.57 C 159.21,166.4 159.18,166.22 159.18,166.04 C 159.18,165.86 159.21,165.68 159.28,165.52 C 159.35,165.35 159.45,165.2 159.58,165.07 C 159.71,164.95 159.86,164.84 160.02,164.78 C 160.19,164.71 160.37,164.67 160.55,164.67 C 160.73,164.67 160.91,164.71 161.07,164.78 C 161.24,164.84 161.39,164.95 161.52,165.07 C 161.65,165.2 161.75,165.35 161.82,165.52 C 161.89,165.68 161.92,165.86 161.92,166.04 C 161.92,166.22 161.89,166.4 161.82,166.57 C 161.75,166.73 161.65,166.89 161.52,167.01 C 161.39,167.14 161.24,167.24 161.07,167.31 C 160.91,167.38 160.73,167.41 160.55,167.41 C 160.37,167.41 160.19,167.38 160.02,167.31 C 159.86,167.24 159.71,167.14 159.58,167.01 z M 163.36,167.88 C 163.53,167.83 163.71,167.82 163.88,167.85 C 164.06,167.88 164.23,167.94 164.38,168.03 C 164.53,168.12 164.66,168.24 164.77,168.38 C 164.87,168.52 164.95,168.68 164.99,168.85 C 165.04,169.02 165.04,169.2 165.02,169.38 C 164.99,169.55 164.93,169.72 164.84,169.87 C 164.75,170.02 164.63,170.15 164.49,170.26 C 164.35,170.37 164.19,170.44 164.02,170.49 C 163.85,170.53 163.67,170.54 163.49,170.51 C 163.32,170.49 163.15,170.43 163.0,170.34 C 162.85,170.25 162.71,170.13 162.61,169.98 C 162.5,169.84 162.43,169.68 162.38,169.51 C 162.34,169.34 162.33,169.16 162.36,168.99 C 162.38,168.81 162.44,168.64 162.53,168.49 C 162.62,168.34 162.74,168.21 162.88,168.1 C 163.03,168.0 163.19,167.92 163.36,167.88 z M 134.43,167.01 C 134.3,167.14 134.15,167.24 133.99,167.31 C 133.82,167.38 133.64,167.41 133.46,167.41 C 133.28,167.41 133.1,167.38 132.94,167.31 C 132.77,167.24 132.62,167.14 132.49,167.01 C 132.36,166.89 132.26,166.73 132.19,166.57 C 132.13,166.4 132.09,166.22 132.09,166.04 C 132.09,165.86 132.13,165.68 132.19,165.52 C 132.26,165.35 132.36,165.2 132.49,165.07 C 132.62,164.95 132.77,164.84 132.94,164.78 C 133.1,164.71 133.28,164.67 133.46,164.67 C 133.64,164.67 133.82,164.71 133.99,164.78 C 134.15,164.84 134.3,164.95 134.43,165.07 C 134.56,165.2 134.66,165.35 134.73,165.52 C 134.8,165.68 134.83,165.86 134.83,166.04 C 134.83,166.22 134.8,166.4 134.73,166.57 C 134.66,166.73 134.56,166.89 134.43,167.01 z M 128.15,165.07 C 128.28,165.2 128.38,165.35 128.45,165.52 C 128.52,165.68 128.56,165.86 128.56,166.04 C 128.56,166.22 128.52,166.4 128.45,166.57 C 128.38,166.73 128.28,166.89 128.15,167.01 C 128.03,167.14 127.88,167.24 127.71,167.31 C 127.54,167.38 127.36,167.41 127.18,167.41 C 127.01,167.41 126.83,167.38 126.66,167.31 C 126.49,167.24 126.34,167.14 126.22,167.01 C 126.09,166.89 125.99,166.73 125.92,166.57 C 125.85,166.4 125.81,166.22 125.81,166.04 C 125.81,165.86 125.85,165.68 125.92,165.52 C 125.99,165.35 126.09,165.2 126.22,165.07 C 126.34,164.95 126.49,164.84 126.66,164.78 C 126.83,164.71 127.01,164.67 127.18,164.67 C 127.36,164.67 127.54,164.71 127.71,164.78 C 127.88,164.84 128.03,164.95 128.15,165.07 z M 131.69,164.74 C 131.69,164.92 131.66,165.1 131.59,165.27 C 131.52,165.43 131.42,165.59 131.29,165.71 C 131.17,165.84 131.01,165.94 130.85,166.01 C 130.68,166.08 130.5,166.11 130.32,166.11 C 130.14,166.11 129.96,166.08 129.8,166.01 C 129.63,165.94 129.48,165.84 129.35,165.71 C 129.23,165.59 129.12,165.43 129.06,165.27 C 128.99,165.1 128.95,164.92 128.95,164.74 C 128.95,164.56 128.99,164.38 129.06,164.22 C 129.12,164.05 129.23,163.9 129.35,163.77 C 129.48,163.65 129.63,163.55 129.8,163.48 C 129.96,163.41 130.14,163.37 130.32,163.37 C 130.5,163.37 130.68,163.41 130.85,163.48 C 131.01,163.55 131.17,163.65 131.29,163.77 C 131.42,163.9 131.52,164.05 131.59,164.22 C 131.66,164.38 131.69,164.56 131.69,164.74 z M 128.95,156.94 C 128.95,156.76 128.99,156.58 129.06,156.41 C 129.12,156.25 129.23,156.09 129.35,155.97 C 129.48,155.84 129.63,155.74 129.8,155.67 C 129.96,155.6 130.14,155.57 130.32,155.57 C 130.5,155.57 130.68,155.6 130.85,155.67 C 131.01,155.74 131.17,155.84 131.29,155.97 C 131.42,156.09 131.52,156.25 131.59,156.41 C 131.66,156.58 131.69,156.76 131.69,156.94 C 131.69,157.12 131.66,157.3 131.59,157.46 C 131.52,157.63 131.42,157.78 131.29,157.91 C 131.17,158.03 131.01,158.14 130.85,158.2 C 130.68,158.27 130.5,158.31 130.32,158.31 C 130.14,158.31 129.96,158.27 129.8,158.2 C 129.63,158.14 129.48,158.03 129.35,157.91 C 129.23,157.78 129.12,157.63 129.06,157.46 C 128.99,157.3 128.95,157.12 128.95,156.94 z M 132.49,156.61 C 132.36,156.48 132.26,156.33 132.19,156.16 C 132.13,156.0 132.09,155.82 132.09,155.64 C 132.09,155.46 132.13,155.28 132.19,155.11 C 132.26,154.95 132.36,154.79 132.49,154.67 C 132.62,154.54 132.77,154.44 132.94,154.37 C 133.1,154.3 133.28,154.27 133.46,154.27 C 133.64,154.27 133.82,154.3 133.99,154.37 C 134.15,154.44 134.3,154.54 134.43,154.67 C 134.56,154.79 134.66,154.95 134.73,155.11 C 134.8,155.28 134.83,155.46 134.83,155.64 C 134.83,155.82 134.8,156.0 134.73,156.16 C 134.66,156.33 134.56,156.48 134.43,156.61 C 134.3,156.73 134.15,156.84 133.99,156.9 C 133.82,156.97 133.64,157.01 133.46,157.01 C 133.28,157.01 133.1,156.97 132.94,156.9 C 132.77,156.84 132.62,156.73 132.49,156.61 z M 134.76,153.87 C 134.58,153.87 134.4,153.83 134.24,153.77 C 134.07,153.7 133.92,153.6 133.79,153.47 C 133.66,153.34 133.56,153.19 133.49,153.02 C 133.43,152.86 133.39,152.68 133.39,152.5 C 133.39,152.32 133.43,152.14 133.49,151.97 C 133.56,151.81 133.66,151.66 133.79,151.53 C 133.92,151.4 134.07,151.3 134.24,151.23 C 134.4,151.16 134.58,151.13 134.76,151.13 C 134.94,151.13 135.12,151.16 135.29,151.23 C 135.45,151.3 135.6,151.4 135.73,151.53 C 135.86,151.66 135.96,151.81 136.03,151.97 C 136.1,152.14 136.13,152.32 136.13,152.5 C 136.13,152.68 136.1,152.86 136.03,153.02 C 135.96,153.19 135.86,153.34 135.73,153.47 C 135.6,153.6 135.45,153.7 135.29,153.77 C 135.12,153.83 134.94,153.87 134.76,153.87 z M 134.43,150.33 C 134.3,150.46 134.15,150.56 133.99,150.63 C 133.82,150.7 133.64,150.73 133.46,150.73 C 133.28,150.73 133.1,150.7 132.94,150.63 C 132.77,150.56 132.62,150.46 132.49,150.33 C 132.36,150.2 132.26,150.05 132.19,149.89 C 132.13,149.72 132.09,149.54 132.09,149.36 C 132.09,149.18 132.13,149.0 132.19,148.84 C 132.26,148.67 132.36,148.52 132.49,148.39 C 132.62,148.26 132.77,148.16 132.94,148.09 C 133.1,148.03 133.28,147.99 133.46,147.99 C 133.64,147.99 133.82,148.03 133.99,148.09 C 134.15,148.16 134.3,148.26 134.43,148.39 C 134.56,148.52 134.66,148.67 134.73,148.84 C 134.8,149.0 134.83,149.18 134.83,149.36 C 134.83,149.54 134.8,149.72 134.73,149.89 C 134.66,150.05 134.56,150.2 134.43,150.33 z"
		 />

		<!-- Prism Reference -->
		<cam mingh:cam=" --verb EditSelectAll --verb ZoomSelection --verb FileSave " /> 
	 </g>

</svg>
