<svg
   xmlns:xlink="http://www.w3.org/1999/xlink"
   xmlns:svg="http://www.w3.org/2000/svg"
   xmlns="http://www.w3.org/2000/svg"
   xmlns:mingh="http://www.minghworld.com"
   width="300px"
   height="300px" >
	 <g>
		<!-- Paths -->
		<path transform="matrix(-1 0 0 1 300 0)" style="fill:#ff0;stroke:none;"
		 d="M 152.19,128.94 C 150.62,128.99 149.17,129.98 148.63,131.5 C 148.0,133.24 148.7,135.19 150.28,136.16 C 151.06,136.63 151.98,136.82 152.88,136.69 C 152.98,136.67 153.08,136.65 153.19,136.63 C 153.26,136.61 153.2,136.71 153.19,136.75 C 153.16,136.84 153.12,136.94 153.09,137.03 C 153.05,137.22 153.0,137.41 152.97,137.59 C 152.67,139.25 152.95,141.05 153.66,142.56 C 154.47,144.3 155.95,145.96 157.34,147.22 C 157.91,147.73 158.5,148.22 159.09,148.69 C 159.58,149.07 160.08,149.42 160.56,149.81 C 161.43,150.52 162.24,151.27 162.94,152.16 C 163.28,152.59 163.58,153.02 163.84,153.5 C 163.99,153.76 164.1,154.04 164.22,154.31 C 164.3,154.5 164.37,154.68 164.44,154.88 C 164.47,154.98 164.51,155.08 164.53,155.19 C 164.54,155.23 164.56,155.3 164.56,155.34 C 164.56,155.36 164.55,155.36 164.53,155.34 C 164.46,155.28 164.45,155.2 164.41,155.13 C 164.35,155.03 164.28,154.94 164.22,154.84 C 164.1,154.67 163.97,154.52 163.84,154.34 C 163.63,154.04 163.42,153.72 163.19,153.44 C 162.76,152.92 162.28,152.47 161.78,152.03 C 160.84,151.21 159.85,150.54 158.69,150.06 C 157.4,149.53 156.1,149.2 154.72,149.03 C 151.83,148.67 149.74,149.2 146.91,149.34 C 145.5,149.42 144.16,149.33 142.78,148.97 C 141.51,148.63 140.36,148.15 139.25,147.44 C 138.18,146.75 137.29,145.89 136.5,144.91 C 136.18,144.51 135.65,143.8 135.41,143.34 C 135.33,143.2 135.29,143.07 135.19,142.94 C 135.08,142.81 134.91,142.75 134.75,142.81 C 134.45,142.94 134.41,143.41 134.41,143.66 C 134.4,144.22 134.64,145.03 134.84,145.53 C 135.09,146.13 135.41,146.69 135.78,147.22 C 136.16,147.75 136.55,148.21 137.06,148.63 C 137.31,148.83 137.58,149.01 137.84,149.19 C 138.13,149.38 138.28,149.71 138.09,150.03 C 137.9,150.37 137.54,150.35 137.22,150.25 C 136.91,150.16 136.62,150.09 136.31,150.0 C 135.7,149.82 135.07,149.65 134.47,149.44 C 133.86,149.22 133.32,148.92 132.78,148.56 C 132.51,148.38 132.23,148.21 131.91,148.13 C 131.55,148.03 131.24,148.05 131.13,148.47 C 131.05,148.75 131.14,149.21 131.22,149.47 C 131.32,149.81 131.48,150.06 131.69,150.34 C 132.05,150.82 132.67,151.41 133.16,151.75 C 133.63,152.09 134.11,152.36 134.66,152.56 C 134.98,152.68 135.33,152.7 135.66,152.81 C 135.92,152.9 136.04,153.08 135.78,153.25 C 135.42,153.48 134.88,153.47 134.5,153.47 C 134.23,153.47 133.96,153.43 133.69,153.44 C 133.48,153.44 133.29,153.46 133.09,153.56 C 132.75,153.74 132.68,154.17 132.75,154.5 C 132.83,154.87 132.99,155.16 133.25,155.44 C 134.21,156.45 135.67,156.61 136.91,156.66 C 137.17,156.67 137.45,156.69 137.72,156.69 C 137.91,156.69 138.09,156.66 138.28,156.69 C 138.36,156.7 138.48,156.75 138.41,156.84 C 138.31,156.97 138.1,157.06 137.97,157.13 C 137.39,157.44 136.79,157.7 136.16,157.91 C 135.99,157.96 135.83,157.99 135.66,158.03 C 135.5,158.06 135.34,158.06 135.19,158.09 C 134.89,158.15 134.65,158.48 134.69,158.78 C 134.72,159.09 134.93,159.32 135.22,159.41 C 135.59,159.52 136.13,159.48 136.5,159.47 C 136.73,159.46 136.96,159.44 137.19,159.44 C 137.34,159.44 137.5,159.44 137.66,159.47 C 137.87,159.51 137.87,159.62 137.72,159.75 C 137.47,159.96 137.1,160.12 136.81,160.25 C 136.36,160.45 135.91,160.62 135.44,160.75 C 134.61,160.98 133.77,161.08 132.91,161.09 C 132.32,161.1 131.42,161.04 130.84,160.91 C 130.51,160.83 130.23,160.75 129.94,160.56 C 129.67,160.39 129.45,160.15 129.13,160.03 C 128.39,159.77 127.87,160.45 128.03,161.16 C 128.16,161.72 128.63,162.38 128.97,162.81 C 129.57,163.58 130.82,165.06 131.5,165.75 C 132.41,166.68 133.39,167.43 134.53,168.06 C 138.8,170.43 144.88,171.03 149.5,171.06 C 152.08,171.08 154.66,170.96 157.22,170.66 C 159.68,170.37 162.4,169.94 164.75,169.03 C 167.09,168.12 169.47,166.57 170.81,164.31 C 172.18,162.01 172.32,159.26 171.53,156.78 C 170.73,154.23 169.01,152.24 167.16,150.47 C 165.01,148.42 163.48,147.42 161.06,145.75 C 159.14,144.42 156.66,142.7 156.06,140.06 C 155.78,138.81 155.95,137.36 156.94,136.41 C 157.87,135.51 159.25,135.08 160.53,135.31 C 161.17,135.43 161.72,135.69 162.28,135.97 C 162.85,136.25 163.41,136.5 164.06,136.56 C 164.38,136.59 164.66,136.56 164.97,136.47 C 165.11,136.43 165.25,136.35 165.38,136.28 C 165.45,136.24 165.67,136.1 165.78,136.16 C 165.85,136.19 165.93,136.32 165.97,136.38 C 166.07,136.5 166.18,136.62 166.31,136.72 C 166.56,136.9 166.84,137.0 167.13,137.09 C 167.46,137.2 167.78,137.27 168.13,137.31 C 168.66,137.38 169.18,137.4 169.72,137.41 C 170.13,137.41 170.86,137.45 171.25,137.19 C 171.59,136.96 171.64,136.5 171.28,136.25 C 171.02,136.07 170.76,136.05 170.47,136.0 C 170.13,135.95 169.8,135.9 169.47,135.81 C 169.01,135.69 168.59,135.51 168.19,135.25 C 167.94,135.08 167.71,134.9 167.47,134.72 C 167.33,134.61 166.77,134.17 166.66,134.03 C 166.6,133.97 166.57,133.91 166.63,133.84 C 166.68,133.77 166.77,133.78 166.84,133.78 C 167.04,133.78 167.19,133.68 167.16,133.47 C 167.11,133.16 166.9,132.83 166.72,132.59 C 166.38,132.16 165.97,131.88 165.5,131.63 C 164.57,131.12 163.48,130.88 162.44,130.84 C 161.42,130.81 160.04,130.95 159.06,131.22 C 158.54,131.37 158.02,131.57 157.53,131.81 C 157.3,131.93 157.07,132.06 156.84,132.19 C 156.73,132.25 156.64,132.31 156.53,132.38 C 156.48,132.41 156.4,132.43 156.34,132.47 C 156.32,132.49 156.31,132.51 156.28,132.53 C 156.26,132.55 156.19,132.62 156.19,132.56 C 156.06,130.73 154.67,129.23 152.84,128.97 C 152.62,128.94 152.41,128.93 152.19,128.94 z M 152.31,130.88 C 152.57,130.88 152.83,130.93 153.06,131.03 C 153.3,131.13 153.51,131.26 153.69,131.44 C 153.87,131.62 154.0,131.86 154.09,132.09 C 154.19,132.33 154.25,132.56 154.25,132.81 C 154.25,133.07 154.19,133.33 154.09,133.56 C 154.0,133.8 153.87,134.01 153.69,134.19 C 153.51,134.37 153.3,134.53 153.06,134.63 C 152.83,134.72 152.57,134.78 152.31,134.78 C 152.06,134.78 151.8,134.72 151.56,134.63 C 151.33,134.53 151.12,134.37 150.94,134.19 C 150.76,134.01 150.6,133.8 150.5,133.56 C 150.4,133.33 150.34,133.07 150.34,132.81 C 150.34,132.56 150.4,132.33 150.5,132.09 C 150.6,131.86 150.76,131.62 150.94,131.44 C 151.12,131.26 151.33,131.13 151.56,131.03 C 151.8,130.93 152.06,130.88 152.31,130.88 z" />
		<text id="txtTwo" transform="matrix(1 0 0 1 150 160)" style="stroke:none;fill:#f00;font-family:'Eras Medium ITC';font-size:20px;text-anchor:middle"  >
		</text>
		<!-- Prism Reference -->
		<cam mingh:cam=" --verb EditSelectAll --verb ZoomSelection --verb FileSave"/> 
	 </g>

</svg>