<svg
   xmlns:xlink="http://www.w3.org/1999/xlink"
   xmlns:svg="http://www.w3.org/2000/svg"
   xmlns="http://www.w3.org/2000/svg"
   xmlns:mingh="http://www.minghworld.com"
   width="300px"
   height="300px" >
   
	 <g>
		<!-- Paths -->
		<path style="fill:none;stroke:#000;stroke-width:0.25px;"
		 d="M 164.97,125.94 C 164.57,125.95 164.19,126.08 163.88,126.41 C 163.49,126.8 163.34,127.37 163.47,127.91 C 163.54,128.18 163.65,128.42 163.84,128.63 C 163.86,128.65 163.89,128.65 163.88,128.69 C 163.86,128.73 163.86,128.77 163.84,128.81 C 163.82,128.89 163.77,128.95 163.75,129.03 C 163.7,129.19 163.64,129.37 163.59,129.53 C 163.41,130.15 163.25,130.75 163.09,131.38 C 163.08,131.45 163.05,131.52 163.03,131.59 C 163.02,131.63 163.04,131.65 163.03,131.69 C 163.03,131.7 162.99,131.75 162.97,131.75 C 162.95,131.75 162.94,131.7 162.94,131.69 C 162.93,131.65 162.92,131.6 162.91,131.56 C 162.88,131.49 162.87,131.44 162.84,131.38 C 162.73,131.07 162.59,130.77 162.47,130.47 C 162.34,130.15 162.2,129.82 162.06,129.5 C 161.99,129.34 161.92,129.19 161.84,129.03 C 161.83,129.01 161.85,128.99 161.84,128.97 C 161.84,128.95 161.81,128.93 161.81,128.91 C 161.82,128.87 161.86,128.87 161.88,128.84 C 161.92,128.79 161.96,128.74 162.0,128.69 C 162.31,128.22 162.33,127.63 162.09,127.13 C 161.59,126.06 160.15,125.88 159.41,126.78 C 158.65,127.69 159.13,129.06 160.28,129.34 C 160.32,129.35 160.31,129.57 160.31,129.59 C 160.33,129.68 160.33,129.79 160.34,129.88 C 160.37,130.05 160.41,130.23 160.44,130.41 C 160.49,130.75 160.54,131.09 160.59,131.44 C 160.64,131.75 160.7,132.06 160.75,132.38 C 160.75,132.39 160.77,132.46 160.75,132.47 C 160.73,132.47 160.69,132.42 160.69,132.41 C 160.65,132.35 160.6,132.28 160.56,132.22 C 160.48,132.1 160.41,131.98 160.31,131.88 C 159.53,130.98 158.38,130.59 157.22,130.88 C 156.69,131.0 156.13,131.3 155.84,131.81 C 155.56,132.33 155.59,132.98 155.78,133.5 C 156.01,134.1 156.36,134.47 156.94,134.75 C 157.2,134.88 157.47,134.97 157.75,135.03 C 157.89,135.06 158.02,135.08 158.16,135.09 C 158.23,135.1 158.31,135.12 158.38,135.13 C 158.41,135.13 158.43,135.12 158.47,135.13 C 158.5,135.13 158.53,135.11 158.56,135.13 C 158.59,135.14 158.57,135.2 158.56,135.22 C 158.55,135.25 158.52,135.28 158.5,135.31 C 158.47,135.37 158.44,135.44 158.41,135.5 C 158.34,135.62 158.28,135.72 158.22,135.84 C 158.09,136.09 157.97,136.35 157.84,136.59 C 157.59,137.07 157.31,137.51 157.03,137.97 C 156.51,138.85 155.96,139.7 155.38,140.53 C 154.79,141.37 154.18,142.18 153.53,142.97 C 153.44,143.08 153.34,143.2 153.25,143.31 C 153.2,143.37 153.17,143.41 153.13,143.47 C 153.07,143.54 153.09,143.39 153.09,143.34 C 153.11,143.02 153.06,142.72 153.0,142.41 C 152.86,141.72 152.59,141.16 152.13,140.63 C 150.37,138.59 147.15,138.88 145.81,141.22 C 144.46,143.6 145.89,146.59 148.59,147.0 C 148.9,147.05 149.22,147.06 149.53,147.03 C 149.61,147.02 149.68,147.04 149.75,147.03 C 149.77,147.03 149.82,146.99 149.81,147.03 C 149.8,147.07 149.77,147.08 149.75,147.09 C 149.66,147.17 149.56,147.24 149.47,147.31 C 149.11,147.6 148.75,147.87 148.38,148.13 C 147.61,148.64 146.8,149.07 145.97,149.47 C 145.1,149.88 144.21,150.23 143.31,150.56 C 142.16,150.98 141.0,151.41 139.88,151.91 C 137.85,152.8 135.79,153.85 134.16,155.44 C 132.69,156.87 131.59,158.74 130.88,160.63 C 130.44,161.77 130.13,162.94 129.94,164.16 C 129.85,164.68 129.81,165.19 129.84,165.72 C 129.85,165.85 129.85,166.13 129.94,166.25 C 130.08,166.45 130.45,166.51 130.66,166.53 C 130.97,166.57 131.34,166.53 131.63,166.38 C 131.93,166.21 131.93,166.06 131.97,165.75 C 132.03,165.25 132.1,164.75 132.19,164.25 C 132.28,163.76 132.39,163.26 132.53,162.78 C 132.55,162.72 132.58,162.65 132.59,162.59 C 132.6,162.57 132.61,162.54 132.63,162.56 C 132.63,162.58 132.6,162.73 132.59,162.75 C 132.56,163.01 132.55,163.27 132.53,163.53 C 132.49,164.14 132.5,164.76 132.5,165.38 C 132.51,167.75 132.56,170.13 132.75,172.5 C 132.79,173.03 133.01,173.47 133.47,173.78 C 133.94,174.11 134.29,174.06 134.81,174.06 L 136.22,174.06 L 137.66,174.06 C 137.89,174.06 138.11,174.09 138.34,174.0 C 138.58,173.91 138.76,173.8 138.91,173.59 C 139.04,173.39 139.08,173.18 139.06,172.94 C 139.05,172.71 138.95,172.52 138.88,172.31 C 138.69,171.84 138.58,171.37 138.5,170.88 C 138.34,169.91 138.31,168.7 138.41,167.72 C 138.5,166.79 138.72,165.94 139.13,165.09 C 139.47,164.37 139.94,163.67 140.59,163.19 C 141.1,162.81 141.7,162.59 142.34,162.59 C 143.06,162.6 143.69,162.9 144.22,163.34 C 144.91,163.93 145.4,164.74 145.72,165.56 C 146.08,166.51 146.26,167.46 146.28,168.47 C 146.31,169.55 146.19,170.89 145.88,171.94 C 145.8,172.17 145.72,172.4 145.63,172.63 C 145.53,172.87 145.51,173.09 145.59,173.34 C 145.78,173.87 146.27,174.06 146.78,174.06 L 149.84,174.06 C 150.41,174.06 150.8,174.09 151.28,173.69 C 151.49,173.51 151.65,173.32 151.75,173.06 C 151.8,172.95 151.82,172.84 151.84,172.72 C 151.87,172.54 151.89,172.34 151.91,172.16 C 151.93,171.86 151.95,171.55 151.97,171.25 C 152.06,169.82 152.1,168.4 152.13,166.97 C 152.14,166.41 152.14,165.87 152.16,165.31 C 152.21,163.22 152.33,160.52 152.66,158.44 C 153.03,156.09 153.69,154.25 154.72,152.13 C 155.56,150.4 157.12,147.66 158.06,146.0 C 159.19,144.02 160.32,142.03 161.63,140.16 C 161.77,139.95 161.92,139.77 162.06,139.56 C 162.1,139.51 162.15,139.46 162.19,139.41 C 162.21,139.38 162.2,139.37 162.22,139.34 C 162.24,139.32 162.24,139.36 162.25,139.38 C 162.26,139.39 162.27,139.39 162.28,139.41 C 162.35,139.53 162.42,139.66 162.5,139.78 C 162.8,140.26 163.15,140.71 163.53,141.13 C 164.24,141.91 165.1,142.8 166.16,143.19 C 167.21,143.57 168.56,143.56 169.38,142.63 C 170.17,141.72 170.33,140.48 170.09,139.38 C 169.87,138.29 169.27,137.18 168.66,136.28 C 168.34,135.82 167.98,135.37 167.63,134.94 C 167.54,134.83 167.47,134.73 167.38,134.63 C 167.33,134.57 167.26,134.52 167.22,134.47 C 167.2,134.44 167.17,134.41 167.16,134.38 C 167.15,134.35 167.2,134.35 167.22,134.34 C 167.48,134.24 167.76,134.11 168.0,133.97 C 168.51,133.68 168.93,133.32 169.28,132.84 C 169.64,132.35 169.9,131.73 170.0,131.13 C 170.08,130.63 170.07,130.0 169.53,129.72 C 169.01,129.45 168.26,129.55 167.75,129.69 C 167.18,129.84 166.71,130.09 166.28,130.5 C 166.18,130.59 166.09,130.68 166.0,130.78 C 165.96,130.83 165.92,130.88 165.88,130.94 C 165.85,130.96 165.83,130.97 165.81,131.0 C 165.81,131.01 165.76,131.06 165.75,131.06 C 165.72,131.06 165.75,130.98 165.75,130.97 C 165.75,130.93 165.75,130.89 165.75,130.84 C 165.75,130.76 165.75,130.68 165.75,130.59 C 165.75,130.42 165.75,130.26 165.75,130.09 C 165.75,129.76 165.73,129.4 165.72,129.06 C 165.72,129.04 165.72,129.02 165.72,129.0 C 165.72,128.99 165.7,128.98 165.72,128.97 C 165.74,128.95 165.79,128.95 165.81,128.94 C 165.87,128.91 165.92,128.85 165.97,128.81 C 166.08,128.73 166.16,128.64 166.25,128.53 C 166.6,128.1 166.71,127.52 166.53,127.0 C 166.29,126.29 165.63,125.92 164.97,125.94 z M 149.19,141.22 C 149.44,141.22 149.7,141.28 149.94,141.38 C 150.17,141.47 150.38,141.6 150.56,141.78 C 150.74,141.96 150.9,142.17 151.0,142.41 C 151.1,142.64 151.13,142.9 151.13,143.16 C 151.13,143.41 151.1,143.67 151.0,143.91 C 150.9,144.14 150.74,144.35 150.56,144.53 C 150.38,144.71 150.17,144.87 149.94,144.97 C 149.7,145.07 149.44,145.09 149.19,145.09 C 148.93,145.09 148.67,145.07 148.44,144.97 C 148.2,144.87 147.99,144.71 147.81,144.53 C 147.63,144.35 147.47,144.14 147.38,143.91 C 147.28,143.67 147.25,143.41 147.25,143.16 C 147.25,142.9 147.28,142.64 147.38,142.41 C 147.47,142.17 147.63,141.96 147.81,141.78 C 147.99,141.6 148.2,141.47 148.44,141.38 C 148.67,141.28 148.93,141.22 149.19,141.22 z"
		 />
		 <path style="fill:#f00;stroke:none;"
		 d="M 159.02,134.35 C 159.01,134.36 158.93,134.34 158.92,134.33 C 158.88,134.32 158.84,134.31 158.79,134.3 C 158.71,134.28 158.63,134.25 158.56,134.22 C 158.4,134.16 158.25,134.08 158.11,133.98 C 157.82,133.79 157.62,133.55 157.44,133.26 C 156.91,132.41 157.29,132.06 158.23,132.1 C 158.95,132.13 159.5,132.34 160.03,132.83 C 160.06,132.86 160.09,132.89 160.12,132.92 C 160.15,132.94 160.18,132.96 160.15,132.99 C 160.09,133.05 160.02,133.11 159.96,133.17 C 159.84,133.3 159.73,133.42 159.62,133.55 C 159.4,133.8 159.2,134.07 159.02,134.35 z M 165.66,132.86 C 165.64,132.85 165.69,132.77 165.7,132.76 C 165.72,132.72 165.74,132.68 165.76,132.64 C 165.81,132.57 165.85,132.49 165.9,132.42 C 165.99,132.27 166.1,132.13 166.22,132.0 C 166.46,131.74 166.73,131.54 167.05,131.38 C 167.36,131.22 167.68,131.1 168.02,131.02 C 168.47,130.93 168.81,130.96 168.58,131.47 C 168.35,131.98 167.71,132.74 167.29,133.09 C 167.16,133.2 167.02,133.3 166.87,133.4 C 166.8,133.44 166.72,133.49 166.64,133.53 C 166.6,133.55 166.56,133.58 166.52,133.6 C 166.48,133.62 166.46,133.59 166.43,133.56 C 166.19,133.31 165.94,133.08 165.66,132.86 z"
		 />

		<!-- Prism Reference -->
		<cam mingh:cam=" --verb EditSelectAll --verb ZoomSelection --verb FileSave " /> 
	 </g>

</svg>
