<svg
   xmlns:xlink="http://www.w3.org/1999/xlink"
   xmlns:svg="http://www.w3.org/2000/svg"
   xmlns="http://www.w3.org/2000/svg"
   xmlns:mingh="http://www.minghworld.com"
   width="300px"
   height="300px" >
   
	 <g>
		<!-- Paths -->
		<path style="fill:none;stroke:#000;stroke-width:0.25px;"
		 d="M 152.19,128.94 C 150.62,128.99 149.17,129.98 148.63,131.5 C 148.0,133.24 148.7,135.19 150.28,136.16 C 151.06,136.63 151.98,136.82 152.88,136.69 C 152.98,136.67 153.08,136.65 153.19,136.63 C 153.26,136.61 153.2,136.71 153.19,136.75 C 153.16,136.84 153.12,136.94 153.09,137.03 C 153.05,137.22 153.0,137.41 152.97,137.59 C 152.67,139.25 152.95,141.05 153.66,142.56 C 154.47,144.3 155.95,145.96 157.34,147.22 C 157.91,147.73 158.5,148.22 159.09,148.69 C 159.58,149.07 160.08,149.42 160.56,149.81 C 161.43,150.52 162.24,151.27 162.94,152.16 C 163.28,152.59 163.58,153.02 163.84,153.5 C 163.99,153.76 164.1,154.04 164.22,154.31 C 164.3,154.5 164.37,154.68 164.44,154.88 C 164.47,154.98 164.51,155.08 164.53,155.19 C 164.54,155.23 164.56,155.3 164.56,155.34 C 164.56,155.36 164.55,155.36 164.53,155.34 C 164.46,155.28 164.45,155.2 164.41,155.13 C 164.35,155.03 164.28,154.94 164.22,154.84 C 164.1,154.67 163.97,154.52 163.84,154.34 C 163.63,154.04 163.42,153.72 163.19,153.44 C 162.76,152.92 162.28,152.47 161.78,152.03 C 160.84,151.21 159.85,150.54 158.69,150.06 C 157.4,149.53 156.1,149.2 154.72,149.03 C 151.83,148.67 149.74,149.2 146.91,149.34 C 145.5,149.42 144.16,149.33 142.78,148.97 C 141.51,148.63 140.36,148.15 139.25,147.44 C 138.18,146.75 137.29,145.89 136.5,144.91 C 136.18,144.51 135.65,143.8 135.41,143.34 C 135.33,143.2 135.29,143.07 135.19,142.94 C 135.08,142.81 134.91,142.75 134.75,142.81 C 134.45,142.94 134.41,143.41 134.41,143.66 C 134.4,144.22 134.64,145.03 134.84,145.53 C 135.09,146.13 135.41,146.69 135.78,147.22 C 136.16,147.75 136.55,148.21 137.06,148.63 C 137.31,148.83 137.58,149.01 137.84,149.19 C 138.13,149.38 138.28,149.71 138.09,150.03 C 137.9,150.37 137.54,150.35 137.22,150.25 C 136.91,150.16 136.62,150.09 136.31,150.0 C 135.7,149.82 135.07,149.65 134.47,149.44 C 133.86,149.22 133.32,148.92 132.78,148.56 C 132.51,148.38 132.23,148.21 131.91,148.13 C 131.55,148.03 131.24,148.05 131.13,148.47 C 131.05,148.75 131.14,149.21 131.22,149.47 C 131.32,149.81 131.48,150.06 131.69,150.34 C 132.05,150.82 132.67,151.41 133.16,151.75 C 133.63,152.09 134.11,152.36 134.66,152.56 C 134.98,152.68 135.33,152.7 135.66,152.81 C 135.92,152.9 136.04,153.08 135.78,153.25 C 135.42,153.48 134.88,153.47 134.5,153.47 C 134.23,153.47 133.96,153.43 133.69,153.44 C 133.48,153.44 133.29,153.46 133.09,153.56 C 132.75,153.74 132.68,154.17 132.75,154.5 C 132.83,154.87 132.99,155.16 133.25,155.44 C 134.21,156.45 135.67,156.61 136.91,156.66 C 137.17,156.67 137.45,156.69 137.72,156.69 C 137.91,156.69 138.09,156.66 138.28,156.69 C 138.36,156.7 138.48,156.75 138.41,156.84 C 138.31,156.97 138.1,157.06 137.97,157.13 C 137.39,157.44 136.79,157.7 136.16,157.91 C 135.99,157.96 135.83,157.99 135.66,158.03 C 135.5,158.06 135.34,158.06 135.19,158.09 C 134.89,158.15 134.65,158.48 134.69,158.78 C 134.72,159.09 134.93,159.32 135.22,159.41 C 135.59,159.52 136.13,159.48 136.5,159.47 C 136.73,159.46 136.96,159.44 137.19,159.44 C 137.34,159.44 137.5,159.44 137.66,159.47 C 137.87,159.51 137.87,159.62 137.72,159.75 C 137.47,159.96 137.1,160.12 136.81,160.25 C 136.36,160.45 135.91,160.62 135.44,160.75 C 134.61,160.98 133.77,161.08 132.91,161.09 C 132.32,161.1 131.42,161.04 130.84,160.91 C 130.51,160.83 130.23,160.75 129.94,160.56 C 129.67,160.39 129.45,160.15 129.13,160.03 C 128.39,159.77 127.87,160.45 128.03,161.16 C 128.16,161.72 128.63,162.38 128.97,162.81 C 129.57,163.58 130.82,165.06 131.5,165.75 C 132.41,166.68 133.39,167.43 134.53,168.06 C 138.8,170.43 144.88,171.03 149.5,171.06 C 152.08,171.08 154.66,170.96 157.22,170.66 C 159.68,170.37 162.4,169.94 164.75,169.03 C 167.09,168.12 169.47,166.57 170.81,164.31 C 172.18,162.01 172.32,159.26 171.53,156.78 C 170.73,154.23 169.01,152.24 167.16,150.47 C 165.01,148.42 163.48,147.42 161.06,145.75 C 159.14,144.42 156.66,142.7 156.06,140.06 C 155.78,138.81 155.95,137.36 156.94,136.41 C 157.87,135.51 159.25,135.08 160.53,135.31 C 161.17,135.43 161.72,135.69 162.28,135.97 C 162.85,136.25 163.41,136.5 164.06,136.56 C 164.38,136.59 164.66,136.56 164.97,136.47 C 165.11,136.43 165.25,136.35 165.38,136.28 C 165.45,136.24 165.67,136.1 165.78,136.16 C 165.85,136.19 165.93,136.32 165.97,136.38 C 166.07,136.5 166.18,136.62 166.31,136.72 C 166.56,136.9 166.84,137.0 167.13,137.09 C 167.46,137.2 167.78,137.27 168.13,137.31 C 168.66,137.38 169.18,137.4 169.72,137.41 C 170.13,137.41 170.86,137.45 171.25,137.19 C 171.59,136.96 171.64,136.5 171.28,136.25 C 171.02,136.07 170.76,136.05 170.47,136.0 C 170.13,135.95 169.8,135.9 169.47,135.81 C 169.01,135.69 168.59,135.51 168.19,135.25 C 167.94,135.08 167.71,134.9 167.47,134.72 C 167.33,134.61 166.77,134.17 166.66,134.03 C 166.6,133.97 166.57,133.91 166.63,133.84 C 166.68,133.77 166.77,133.78 166.84,133.78 C 167.04,133.78 167.19,133.68 167.16,133.47 C 167.11,133.16 166.9,132.83 166.72,132.59 C 166.38,132.16 165.97,131.88 165.5,131.63 C 164.57,131.12 163.48,130.88 162.44,130.84 C 161.42,130.81 160.04,130.95 159.06,131.22 C 158.54,131.37 158.02,131.57 157.53,131.81 C 157.3,131.93 157.07,132.06 156.84,132.19 C 156.73,132.25 156.64,132.31 156.53,132.38 C 156.48,132.41 156.4,132.43 156.34,132.47 C 156.32,132.49 156.31,132.51 156.28,132.53 C 156.26,132.55 156.19,132.62 156.19,132.56 C 156.06,130.73 154.67,129.23 152.84,128.97 C 152.62,128.94 152.41,128.93 152.19,128.94 z M 152.31,130.88 C 152.57,130.88 152.83,130.93 153.06,131.03 C 153.3,131.13 153.51,131.26 153.69,131.44 C 153.87,131.62 154.0,131.86 154.09,132.09 C 154.19,132.33 154.25,132.56 154.25,132.81 C 154.25,133.07 154.19,133.33 154.09,133.56 C 154.0,133.8 153.87,134.01 153.69,134.19 C 153.51,134.37 153.3,134.53 153.06,134.63 C 152.83,134.72 152.57,134.78 152.31,134.78 C 152.06,134.78 151.8,134.72 151.56,134.63 C 151.33,134.53 151.12,134.37 150.94,134.19 C 150.76,134.01 150.6,133.8 150.5,133.56 C 150.4,133.33 150.34,133.07 150.34,132.81 C 150.34,132.56 150.4,132.33 150.5,132.09 C 150.6,131.86 150.76,131.62 150.94,131.44 C 151.12,131.26 151.33,131.13 151.56,131.03 C 151.8,130.93 152.06,130.88 152.31,130.88 z"
		 />
		 <path style="fill:#f00;stroke:none;"
		 d="M 166.56,133.72 C 166.6,133.73 166.56,133.75 166.55,133.77 C 166.53,133.79 166.51,133.82 166.5,133.85 C 166.49,133.89 166.51,133.96 166.44,133.92 C 166.37,133.88 166.3,133.85 166.22,133.83 C 166.07,133.78 165.93,133.78 165.78,133.8 C 165.65,133.82 165.53,133.85 165.4,133.88 C 165.21,133.92 165.01,133.93 164.81,133.93 C 164.48,133.92 164.17,133.88 163.86,133.75 C 163.55,133.63 163.3,133.37 163.37,133.0 C 163.45,132.64 163.81,132.5 164.11,132.45 C 164.44,132.38 164.74,132.39 165.07,132.5 C 165.4,132.62 165.64,132.79 165.86,133.06 C 165.95,133.18 166.03,133.32 166.15,133.42 C 166.28,133.54 166.41,133.64 166.56,133.72 z M 160.84,169.96 C 160.78,169.97 160.73,169.96 160.67,169.96 C 160.61,169.96 160.56,169.96 160.5,169.96 C 160.39,169.96 160.28,169.96 160.18,169.96 C 159.97,169.96 159.76,169.96 159.55,169.95 C 159.17,169.94 158.78,169.92 158.4,169.89 C 157.7,169.83 157.01,169.72 156.32,169.55 C 155.0,169.22 153.82,168.69 152.67,167.95 C 150.43,166.51 148.6,164.55 145.95,163.62 C 144.67,163.16 143.42,163.03 142.08,163.09 C 141.77,163.11 141.47,163.12 141.17,163.17 C 140.97,163.19 140.78,163.23 140.58,163.27 C 140.45,163.3 140.31,163.33 140.17,163.37 C 140.13,163.38 139.9,163.43 139.88,163.5 C 139.87,163.56 140.08,163.62 140.11,163.63 C 140.23,163.67 140.34,163.71 140.46,163.76 C 140.62,163.84 140.78,163.92 140.92,164.03 C 141.18,164.24 141.3,164.44 141.27,164.78 C 141.18,165.55 140.3,165.55 139.74,165.47 C 139.07,165.37 138.11,165.03 137.62,164.5 C 137.12,163.95 137.21,163.29 137.79,162.85 C 138.34,162.44 139.23,162.29 139.85,162.19 C 142.55,161.77 145.68,161.97 148.26,163.01 C 149.58,163.55 150.5,164.17 151.65,164.97 C 152.92,165.86 153.75,166.4 155.18,167.02 C 156.33,167.52 157.5,167.92 158.72,168.18 C 159.55,168.36 160.38,168.49 161.22,168.58 C 161.58,168.61 161.94,168.66 162.31,168.63 C 162.58,168.6 162.86,168.46 162.6,168.24 C 162.43,168.09 162.05,167.98 161.86,167.91 C 161.6,167.82 161.34,167.72 161.08,167.62 C 160.67,167.46 160.27,167.28 159.87,167.08 C 159.29,166.79 158.74,166.45 158.19,166.1 C 157.17,165.44 156.18,164.78 155.38,163.82 C 154.93,163.29 154.57,162.73 154.31,162.07 C 154.14,161.68 153.82,160.7 154.3,160.32 C 154.53,160.13 154.93,160.06 155.21,160.06 C 155.51,160.05 155.79,160.12 156.08,160.21 C 156.81,160.41 157.45,160.7 158.03,161.21 C 158.32,161.46 158.63,161.81 158.7,162.22 C 158.76,162.58 158.64,162.96 158.3,163.15 C 158.13,163.24 157.95,163.25 157.78,163.28 C 157.57,163.31 157.55,163.48 157.6,163.65 C 157.68,163.95 158.01,164.31 158.22,164.51 C 159.19,165.46 160.49,166.23 161.75,166.71 C 162.98,167.18 164.51,167.46 165.84,167.23 C 166.55,167.11 167.11,166.88 167.6,166.31 C 167.99,165.85 168.42,164.98 168.56,164.4 C 168.57,164.37 168.61,164.26 168.59,164.22 C 168.58,164.19 168.56,164.23 168.55,164.25 C 168.52,164.28 168.5,164.31 168.47,164.34 C 168.34,164.49 168.19,164.57 167.99,164.59 C 167.57,164.63 167.31,164.39 167.22,164.0 C 167.06,163.3 167.38,162.43 168.07,162.12 C 168.4,161.97 168.81,161.95 169.15,162.08 C 169.54,162.22 169.71,162.5 169.77,162.9 C 169.84,163.34 169.76,163.75 169.67,164.17 C 169.64,164.29 169.6,164.42 169.58,164.55 C 169.58,164.56 169.57,164.6 169.59,164.59 C 169.62,164.56 169.63,164.53 169.64,164.5 C 170.24,163.33 170.48,161.71 170.32,160.41 C 170.27,160.08 170.18,159.54 169.98,159.24 C 169.83,159.02 169.81,159.24 169.79,159.42 C 169.77,159.64 169.76,159.86 169.66,160.07 C 169.52,160.34 169.24,160.42 168.96,160.39 C 168.6,160.35 168.37,160.2 168.13,159.94 C 167.63,159.38 167.48,158.53 167.68,157.82 C 167.9,157.07 168.47,156.61 169.27,156.65 C 170.02,156.69 170.45,157.19 170.77,157.78 C 171.07,158.35 171.22,158.95 171.33,159.58 C 171.44,160.27 171.53,160.94 171.52,161.64 C 171.52,161.83 171.51,162.02 171.49,162.21 C 171.47,162.49 171.48,162.49 171.38,162.76 C 171.27,163.08 171.14,163.4 170.99,163.7 C 170.35,164.99 169.48,165.96 168.37,166.84 C 166.15,168.59 163.53,169.45 160.84,169.96 z M 128.56,162.01 C 128.55,161.99 128.56,161.97 128.58,161.98 C 128.6,161.99 128.6,162.0 128.61,162.01 C 128.63,162.04 128.65,162.06 128.67,162.09 C 128.7,162.13 128.74,162.18 128.78,162.23 C 128.85,162.33 128.93,162.42 129.01,162.52 C 129.17,162.71 129.34,162.9 129.5,163.09 C 129.84,163.46 130.18,163.82 130.54,164.16 C 131.24,164.84 131.97,165.46 132.78,166.0 C 134.33,167.05 136.31,167.94 138.15,168.33 C 139.07,168.52 139.98,168.59 140.91,168.56 C 141.83,168.53 143.07,168.49 143.89,167.86 C 143.91,167.84 143.94,167.82 143.97,167.79 C 143.98,167.78 144.01,167.77 143.99,167.76 C 143.96,167.73 143.92,167.74 143.88,167.73 C 143.82,167.73 143.76,167.72 143.69,167.7 C 143.42,167.63 143.18,167.4 143.03,167.19 C 142.78,166.84 142.65,166.32 142.94,165.93 C 143.24,165.53 143.87,165.49 144.29,165.54 C 144.86,165.61 145.44,165.88 145.89,166.22 C 146.23,166.49 146.61,166.84 146.63,167.34 C 146.65,167.75 146.46,168.16 146.21,168.46 C 145.87,168.88 145.33,169.22 144.86,169.44 C 144.37,169.67 143.87,169.78 143.33,169.84 C 142.37,169.96 141.41,169.99 140.44,169.93 C 140.33,169.92 139.8,169.89 139.69,169.86 C 139.45,169.8 139.21,169.74 138.97,169.68 C 138.49,169.55 138.02,169.4 137.55,169.24 C 135.71,168.61 133.91,167.72 132.42,166.43 C 131.67,165.79 131.02,165.06 130.38,164.32 C 129.92,163.78 128.93,162.62 128.56,162.01 z M 137.5,150.49 C 137.47,150.49 137.5,150.46 137.52,150.46 C 137.55,150.46 137.57,150.46 137.6,150.46 C 137.64,150.46 137.69,150.45 137.74,150.44 C 137.83,150.42 137.92,150.39 138.0,150.33 C 138.17,150.21 138.26,150.07 138.3,149.86 C 138.34,149.65 138.31,149.49 138.19,149.31 C 138.18,149.29 138.15,149.29 138.15,149.25 C 138.15,149.22 138.19,149.25 138.21,149.26 C 138.24,149.28 138.28,149.31 138.32,149.33 C 138.4,149.38 138.48,149.43 138.56,149.48 C 139.22,149.86 139.89,150.16 140.61,150.39 C 142.1,150.88 143.56,151.03 145.11,151.0 C 146.63,150.97 148.13,150.79 149.64,150.67 C 151.15,150.54 152.66,150.45 154.18,150.51 C 157.1,150.63 160.28,151.28 162.58,153.42 C 163.63,154.39 164.6,155.77 165.0,157.18 C 165.42,158.65 165.26,160.26 164.28,161.52 C 163.8,162.14 163.23,162.58 162.54,162.94 C 162.45,162.99 162.39,163.05 162.28,162.99 C 162.19,162.94 162.16,162.83 162.21,162.75 C 162.26,162.66 162.34,162.61 162.41,162.55 C 162.47,162.48 162.54,162.41 162.59,162.33 C 162.84,162.03 162.99,161.7 163.1,161.33 C 163.55,159.9 163.32,158.21 162.73,156.88 C 162.06,155.37 161.06,154.45 159.66,153.65 C 158.39,152.93 156.84,152.39 155.41,152.09 C 152.23,151.44 149.5,151.8 146.36,152.0 C 144.71,152.11 143.12,152.15 141.48,151.78 C 140.11,151.46 138.82,150.93 137.5,150.49 z"
		 />
		 
		<!-- Prism Reference -->
		<cam mingh:cam=" --verb EditSelectAll --verb ZoomSelection --verb FileSave" /> 
	 </g>

</svg>
