<svg
   xmlns:xlink="http://www.w3.org/1999/xlink"
   xmlns:svg="http://www.w3.org/2000/svg"
   xmlns="http://www.w3.org/2000/svg"
   xmlns:mingh="http://www.minghworld.com"
   width="300px"
   height="300px" >
	 <g>
			<!-- Paths -->
		<path transform="matrix(-1 0 0 1 300 0)" style="fill:#ff0;stroke:none;"
		 d="M 150.0,121.91 C 149.26,121.91 148.51,122.14 147.91,122.56 C 147.3,122.99 146.85,123.59 146.59,124.28 C 146.34,124.98 146.31,125.75 146.5,126.47 C 146.55,126.66 146.58,126.84 146.63,127.03 C 146.67,127.22 146.73,127.4 146.78,127.59 C 146.26,127.13 145.74,126.68 145.22,126.22 C 144.7,125.75 144.17,125.28 143.66,124.81 C 143.41,124.59 143.11,124.41 142.78,124.34 C 142.45,124.27 142.1,124.3 141.78,124.41 C 141.46,124.51 141.16,124.72 140.94,124.97 C 140.71,125.22 140.54,125.51 140.47,125.84 C 140.4,126.17 140.43,126.52 140.53,126.84 C 140.64,127.17 140.84,127.46 141.09,127.69 C 142.23,128.71 143.36,129.73 144.5,130.75 C 145.64,131.77 146.8,132.82 147.94,133.84 L 147.94,134.72 L 147.94,135.59 C 147.23,134.96 146.52,134.32 145.81,133.69 C 145.1,133.05 144.37,132.42 143.66,131.78 C 143.41,131.55 143.11,131.41 142.78,131.34 C 142.45,131.27 142.1,131.27 141.78,131.38 C 141.46,131.48 141.16,131.69 140.94,131.94 C 140.71,132.19 140.54,132.51 140.47,132.84 C 140.4,133.17 140.43,133.52 140.53,133.84 C 140.64,134.17 140.84,134.43 141.09,134.66 C 142.23,135.68 143.36,136.73 144.5,137.75 C 145.64,138.77 146.8,139.79 147.94,140.81 L 147.94,141.69 L 147.94,142.56 C 147.23,141.93 146.52,141.29 145.81,140.66 C 145.1,140.02 144.37,139.39 143.66,138.75 C 143.41,138.52 143.11,138.38 142.78,138.31 C 142.45,138.24 142.1,138.24 141.78,138.34 C 141.46,138.45 141.16,138.65 140.94,138.91 C 140.71,139.16 140.54,139.48 140.47,139.81 C 140.4,140.14 140.43,140.49 140.53,140.81 C 140.64,141.13 140.84,141.43 141.09,141.66 C 142.23,142.68 143.36,143.7 144.5,144.72 C 145.64,145.74 146.8,146.76 147.94,147.78 L 147.94,158.59 L 147.94,169.41 C 147.38,168.91 146.81,168.41 146.25,167.91 C 145.69,167.41 145.12,166.91 144.56,166.41 C 144.22,166.09 143.8,165.9 143.34,165.81 C 142.89,165.72 142.41,165.75 141.97,165.91 C 141.53,166.06 141.14,166.33 140.84,166.69 C 140.55,167.05 140.36,167.48 140.28,167.94 C 140.2,168.4 140.2,168.87 140.34,169.31 C 140.48,169.76 140.75,170.19 141.09,170.5 C 142.45,171.71 143.8,172.91 145.16,174.13 C 146.51,175.34 147.86,176.57 149.22,177.78 C 149.29,177.85 149.39,177.89 149.47,177.94 C 149.55,177.99 149.63,178.03 149.72,178.06 C 149.81,178.09 149.9,178.09 150.0,178.09 C 150.1,178.09 150.19,178.09 150.28,178.06 C 150.37,178.03 150.45,177.99 150.53,177.94 C 150.61,177.89 150.71,177.85 150.78,177.78 C 152.14,176.57 153.49,175.34 154.84,174.13 C 156.2,172.91 157.55,171.71 158.91,170.5 C 159.25,170.19 159.52,169.76 159.66,169.31 C 159.8,168.87 159.8,168.4 159.72,167.94 C 159.64,167.48 159.45,167.05 159.16,166.69 C 158.86,166.33 158.47,166.06 158.03,165.91 C 157.59,165.75 157.11,165.72 156.66,165.81 C 156.2,165.9 155.78,166.09 155.44,166.41 C 154.88,166.91 154.31,167.41 153.75,167.91 C 153.19,168.41 152.62,168.91 152.06,169.41 L 152.06,158.59 L 152.06,147.78 C 153.2,146.76 154.36,145.74 155.5,144.72 C 156.64,143.7 157.77,142.68 158.91,141.66 C 159.16,141.43 159.36,141.13 159.47,140.81 C 159.57,140.49 159.6,140.14 159.53,139.81 C 159.46,139.48 159.29,139.16 159.06,138.91 C 158.84,138.65 158.54,138.45 158.22,138.34 C 157.9,138.24 157.55,138.24 157.22,138.31 C 156.89,138.38 156.59,138.52 156.34,138.75 C 155.63,139.39 154.9,140.02 154.19,140.66 C 153.48,141.29 152.77,141.93 152.06,142.56 L 152.06,141.69 L 152.06,140.81 C 153.2,139.79 154.36,138.77 155.5,137.75 C 156.64,136.73 157.77,135.68 158.91,134.66 C 159.16,134.43 159.36,134.17 159.47,133.84 C 159.57,133.52 159.6,133.17 159.53,132.84 C 159.46,132.51 159.29,132.19 159.06,131.94 C 158.84,131.69 158.54,131.48 158.22,131.38 C 157.9,131.27 157.55,131.27 157.22,131.34 C 156.89,131.41 156.59,131.55 156.34,131.78 C 155.63,132.42 154.9,133.05 154.19,133.69 C 153.48,134.32 152.77,134.96 152.06,135.59 L 152.06,134.72 L 152.06,133.84 C 153.2,132.82 154.36,131.77 155.5,130.75 C 156.64,129.73 157.77,128.71 158.91,127.69 C 159.16,127.46 159.36,127.17 159.47,126.84 C 159.57,126.52 159.6,126.17 159.53,125.84 C 159.46,125.51 159.29,125.22 159.06,124.97 C 158.84,124.72 158.54,124.51 158.22,124.41 C 157.9,124.3 157.55,124.27 157.22,124.34 C 156.89,124.41 156.59,124.59 156.34,124.81 L 154.78,126.22 L 153.22,127.59 C 153.27,127.4 153.33,127.22 153.38,127.03 C 153.42,126.84 153.45,126.66 153.5,126.47 C 153.69,125.75 153.66,124.98 153.41,124.28 C 153.15,123.59 152.7,122.99 152.09,122.56 C 151.49,122.14 150.74,121.91 150.0,121.91 z M 150.0,124.03 C 150.2,124.03 150.38,124.05 150.56,124.13 C 150.74,124.2 150.92,124.33 151.06,124.47 C 151.2,124.61 151.33,124.76 151.41,124.94 C 151.48,125.12 151.5,125.33 151.5,125.53 C 151.5,125.73 151.48,125.91 151.41,126.09 C 151.33,126.28 151.2,126.45 151.06,126.59 C 150.92,126.73 150.74,126.83 150.56,126.91 C 150.38,126.98 150.2,127.03 150.0,127.03 C 149.8,127.03 149.62,126.98 149.44,126.91 C 149.26,126.83 149.08,126.73 148.94,126.59 C 148.8,126.45 148.67,126.28 148.59,126.09 C 148.52,125.91 148.5,125.73 148.5,125.53 C 148.5,125.33 148.52,125.12 148.59,124.94 C 148.67,124.76 148.8,124.61 148.94,124.47 C 149.08,124.33 149.26,124.2 149.44,124.13 C 149.62,124.05 149.8,124.03 150.0,124.03 z M 148.56,171.28 C 148.74,171.28 148.92,171.31 149.09,171.38 C 149.26,171.44 149.43,171.53 149.56,171.66 C 149.7,171.78 149.8,171.93 149.88,172.09 C 149.95,172.26 149.99,172.44 150.0,172.63 C 150.01,172.44 150.05,172.26 150.13,172.09 C 150.2,171.93 150.31,171.78 150.44,171.66 C 150.57,171.53 150.74,171.44 150.91,171.38 C 151.08,171.31 151.26,171.28 151.44,171.28 C 151.62,171.29 151.8,171.33 151.97,171.41 C 152.13,171.48 152.28,171.59 152.41,171.72 C 152.53,171.85 152.62,171.99 152.69,172.16 C 152.76,172.32 152.81,172.51 152.81,172.69 C 152.81,172.87 152.76,173.05 152.69,173.22 C 152.62,173.39 152.53,173.56 152.41,173.69 C 152.01,174.05 151.59,174.39 151.19,174.75 L 150.0,175.84 C 149.6,175.49 149.21,175.11 148.81,174.75 C 148.41,174.39 147.99,174.05 147.59,173.69 C 147.47,173.56 147.38,173.39 147.31,173.22 C 147.24,173.05 147.19,172.87 147.19,172.69 C 147.19,172.51 147.24,172.32 147.31,172.16 C 147.38,171.99 147.47,171.85 147.59,171.72 C 147.72,171.59 147.87,171.48 148.03,171.41 C 148.2,171.33 148.38,171.29 148.56,171.28 z" />

		<text id="txtTwo" transform="matrix(1 0 0 1 150 160)" style="stroke:none;fill:#f00;font-family:'Eras Medium ITC';font-size:20px;text-anchor:middle"  >

		</text>
		<!-- Prism Reference -->
		<cam mingh:cam="--verb EditSelectAll --verb ZoomSelection --verb FileSave"/> 
	 </g>
</svg>