<svg
   xmlns:xlink="http://www.w3.org/1999/xlink"
   xmlns:svg="http://www.w3.org/2000/svg"
   xmlns="http://www.w3.org/2000/svg"
   xmlns:mingh="http://www.minghworld.com"
   width="300px"
   height="300px" >
	 <g>
		
		<!-- Paths -->
		<path transform="matrix(-1 0 0 1 300 0)" style="fill:#ff0;stroke:none;"
		 d="M 138.5,129.31 C 137.65,129.37 136.83,129.7 136.16,130.31 C 134.84,131.51 134.48,133.46 135.31,135.03 C 136.15,136.61 137.95,137.39 139.69,136.97 C 139.89,136.92 140.09,136.86 140.28,136.78 C 140.33,136.76 140.36,136.74 140.41,136.72 C 140.43,136.71 140.41,136.77 140.41,136.78 C 140.4,136.8 140.39,136.79 140.38,136.81 C 140.33,136.89 140.29,136.96 140.25,137.03 C 140.09,137.33 139.95,137.66 139.81,137.97 C 139.54,138.59 139.32,139.22 139.16,139.88 C 138.9,140.9 138.61,142.77 139.31,143.81 C 139.79,144.51 140.5,144.48 141.19,144.16 C 141.86,143.84 142.37,143.39 142.84,142.84 C 142.9,142.78 142.94,142.69 143.0,142.63 C 143.02,142.6 143.07,142.59 143.09,142.56 C 143.1,142.58 143.12,142.61 143.13,142.63 C 143.14,142.75 143.14,142.87 143.16,143.0 C 143.2,143.26 143.26,143.53 143.31,143.78 C 143.33,143.84 143.33,143.91 143.34,143.97 C 143.35,144.0 143.37,144.03 143.38,144.06 C 143.38,144.08 143.4,144.08 143.41,144.09 C 143.41,144.1 143.4,144.12 143.41,144.13 C 143.41,144.16 143.39,144.17 143.38,144.19 C 142.77,145.13 142.3,146.12 141.88,147.16 C 140.78,149.84 140.06,152.82 139.56,155.66 C 138.89,159.46 138.57,163.27 138.47,167.13 C 138.46,167.59 138.44,168.06 138.44,168.53 C 138.43,168.76 138.44,168.99 138.44,169.22 C 138.44,169.28 138.44,169.32 138.44,169.38 C 138.44,169.38 138.42,169.44 138.44,169.44 L 138.47,169.44 L 138.69,169.44 L 139.13,169.44 L 139.56,169.44 C 139.61,169.44 139.59,169.5 139.59,169.53 C 139.6,169.56 139.62,169.57 139.63,169.59 C 139.67,169.72 139.75,169.82 139.84,169.91 C 140.16,170.19 140.52,170.29 140.91,170.41 C 141.49,170.58 142.08,170.66 142.69,170.69 C 143.56,170.73 144.42,170.67 145.28,170.47 C 145.59,170.39 145.87,170.33 146.16,170.19 C 146.36,170.09 146.57,169.96 146.72,169.78 C 146.77,169.72 146.81,169.67 146.84,169.59 C 146.86,169.56 146.87,169.54 146.88,169.5 C 146.88,169.49 146.87,169.48 146.88,169.47 C 146.88,169.44 146.89,169.44 146.91,169.44 L 147.06,169.44 L 147.66,169.44 L 147.72,169.44 C 147.73,169.44 147.75,169.46 147.75,169.47 C 147.75,169.49 147.75,169.51 147.75,169.53 C 147.76,169.57 147.77,169.59 147.78,169.63 C 147.87,169.81 148.0,169.93 148.16,170.03 C 148.39,170.19 148.64,170.29 148.91,170.38 C 150.29,170.82 152.4,170.81 153.78,170.38 C 154.05,170.29 154.32,170.19 154.56,170.03 C 154.73,169.93 154.85,169.84 154.94,169.66 C 154.95,169.62 154.99,169.57 155.0,169.53 C 155.0,169.51 155.0,169.52 155.0,169.5 C 155.0,169.49 155.0,169.48 155.0,169.47 C 155.0,169.44 155.02,169.44 155.03,169.44 L 155.66,169.44 L 155.94,169.44 L 156.09,169.44 L 156.16,169.44 C 156.16,169.4 156.16,169.35 156.16,169.31 C 156.16,169.23 156.16,169.17 156.16,169.09 L 156.16,168.63 C 156.15,167.99 156.14,167.35 156.13,166.72 C 156.12,166.58 156.1,166.45 156.13,166.31 C 156.13,166.27 156.16,166.23 156.19,166.19 C 156.29,166.04 156.46,165.98 156.63,166.06 C 158.19,166.84 159.86,166.43 161.25,165.63 C 162.58,164.85 163.69,163.66 164.38,162.28 C 165.07,160.89 165.27,159.41 165.03,157.88 C 164.8,156.39 164.14,154.97 163.09,153.88 C 161.79,152.5 159.89,151.68 158.06,151.41 C 157.09,151.26 156.13,151.25 155.16,151.41 C 154.92,151.44 154.67,151.5 154.44,151.56 C 154.38,151.58 154.34,151.58 154.28,151.59 C 154.25,151.6 154.22,151.62 154.19,151.63 C 154.18,151.63 154.16,151.63 154.16,151.63 C 154.15,151.59 154.14,151.54 154.13,151.5 C 154.11,151.43 154.11,151.36 154.09,151.28 C 154.06,151.14 154.01,150.99 153.97,150.84 C 153.67,149.76 153.31,148.71 152.91,147.66 C 152.56,146.76 152.18,145.87 151.72,145.03 C 151.62,144.85 151.51,144.68 151.41,144.5 C 151.35,144.41 151.3,144.34 151.25,144.25 C 151.24,144.23 151.23,144.21 151.22,144.19 C 151.21,144.17 151.18,144.15 151.19,144.13 C 151.2,144.07 151.24,144.02 151.25,143.97 C 151.3,143.76 151.34,143.55 151.38,143.34 C 151.4,143.2 151.42,143.05 151.44,142.91 C 151.45,142.84 151.46,142.79 151.47,142.72 C 151.47,142.68 151.5,142.63 151.5,142.59 C 151.5,142.58 151.5,142.58 151.5,142.56 C 151.5,142.57 151.53,142.56 151.53,142.56 C 151.78,142.87 152.02,143.14 152.31,143.41 C 152.8,143.86 153.64,144.47 154.41,144.38 C 155.3,144.27 155.6,143.34 155.69,142.63 C 155.79,141.82 155.69,141.06 155.53,140.28 C 155.22,138.79 154.56,137.23 153.72,135.97 C 153.28,135.31 152.8,134.7 152.19,134.19 C 151.68,133.76 150.8,133.19 150.03,133.44 C 149.66,133.56 149.49,133.8 149.31,134.13 C 149.3,134.14 149.29,134.17 149.28,134.19 C 149.28,134.2 149.26,134.18 149.25,134.19 C 149.25,134.2 149.27,134.23 149.25,134.22 C 149.22,134.19 149.19,134.18 149.16,134.16 C 149.09,134.11 149.01,134.07 148.94,134.03 C 148.79,133.95 148.66,133.87 148.5,133.81 C 147.84,133.55 147.12,133.49 146.44,133.69 C 146.11,133.78 145.79,133.93 145.5,134.13 C 145.47,134.15 145.44,134.16 145.41,134.19 C 145.39,134.2 145.39,134.21 145.38,134.22 C 145.36,134.23 145.35,134.23 145.34,134.22 C 145.34,134.21 145.35,134.2 145.34,134.19 C 145.31,134.11 145.27,134.04 145.22,133.97 C 145.12,133.82 144.99,133.69 144.84,133.59 C 144.23,133.17 143.46,133.48 142.94,133.81 C 142.87,133.86 142.79,133.92 142.72,133.97 C 142.68,133.99 142.66,134.01 142.63,134.03 C 142.61,134.04 142.58,134.05 142.56,134.06 C 142.53,134.09 142.56,134.05 142.56,134.03 C 142.61,133.83 142.65,133.61 142.66,133.41 C 142.68,132.96 142.63,132.52 142.5,132.09 C 142.25,131.23 141.71,130.48 140.97,129.97 C 140.22,129.46 139.35,129.26 138.5,129.31 z M 138.75,131.25 C 138.88,131.25 139.0,131.26 139.13,131.28 C 139.38,131.33 139.63,131.42 139.84,131.56 C 140.06,131.7 140.23,131.88 140.38,132.09 C 140.52,132.31 140.64,132.56 140.69,132.81 C 140.74,133.06 140.74,133.31 140.69,133.56 C 140.64,133.81 140.52,134.07 140.38,134.28 C 140.23,134.49 140.06,134.67 139.84,134.81 C 139.63,134.96 139.41,135.04 139.16,135.09 C 138.91,135.14 138.66,135.14 138.41,135.09 C 138.16,135.04 137.9,134.95 137.69,134.81 C 137.47,134.67 137.3,134.49 137.16,134.28 C 137.01,134.07 136.89,133.84 136.84,133.59 C 136.79,133.34 136.8,133.06 136.84,132.81 C 136.89,132.56 137.02,132.34 137.16,132.13 C 137.3,131.91 137.48,131.74 137.69,131.59 C 137.9,131.45 138.13,131.33 138.38,131.28 C 138.5,131.26 138.62,131.25 138.75,131.25 z M 157.84,154.81 C 158.67,154.82 159.55,155.11 160.16,155.53 C 161.06,156.16 161.66,157.14 161.84,158.22 C 162.02,159.28 161.78,160.43 161.31,161.38 C 160.79,162.42 160.03,163.09 158.97,163.53 C 158.5,163.73 158.05,163.87 157.53,163.91 C 157.26,163.92 156.98,163.92 156.72,163.88 C 156.57,163.85 156.45,163.79 156.31,163.75 C 156.13,163.69 155.98,163.63 155.97,163.41 C 155.82,161.23 155.59,159.09 155.25,156.94 C 155.21,156.66 155.17,156.4 155.13,156.13 C 155.11,156.06 155.11,155.97 155.09,155.91 C 155.1,155.9 155.11,155.91 155.13,155.91 C 155.17,155.89 155.21,155.86 155.25,155.84 C 155.34,155.8 155.45,155.77 155.53,155.72 C 155.7,155.62 155.84,155.51 156.0,155.41 C 156.33,155.19 156.68,155.0 157.06,154.91 C 157.31,154.85 157.57,154.81 157.84,154.81 z" />
		<text id="txtTwo" transform="matrix(1 0 0 1 150 160)" style="stroke:none;fill:#f00;font-family:'Eras Medium ITC';font-size:20px;text-anchor:middle"  >

		</text>
		<!-- Prism Reference -->
		<cam mingh:cam=" --verb EditSelectAll --verb ZoomSelection --verb FileSave"/> 
	 </g>

</svg>