<svg
   xmlns:xlink="http://www.w3.org/1999/xlink"
   xmlns:svg="http://www.w3.org/2000/svg"
   xmlns="http://www.w3.org/2000/svg"
   xmlns:mingh="http://www.minghworld.com"
   width="300px"
   height="300px" >
	 <g>
		<!-- Paths -->
		<path transform="matrix(-1 0 0 1 300 0)" style="fill:#ff0;stroke:none;"
		 d="M 149.97,121.75 C 148.97,121.76 147.98,122.14 147.22,122.91 C 146.51,123.63 146.1,124.61 146.09,125.63 C 146.09,126.16 146.2,126.66 146.41,127.16 C 146.51,127.39 146.64,127.63 146.78,127.84 C 146.92,128.04 147.07,128.19 147.22,128.38 C 147.3,128.48 147.31,128.65 147.22,128.75 C 147.12,128.86 147.0,128.83 146.88,128.84 C 146.64,128.87 146.42,128.9 146.19,128.94 C 145.72,129.01 145.24,129.09 144.78,129.19 C 137.76,130.69 131.75,135.16 128.28,141.44 C 124.81,147.71 124.24,155.17 126.69,161.91 C 129.13,168.65 134.37,174.01 141.06,176.59 C 147.75,179.17 155.22,178.72 161.56,175.38 C 167.91,172.03 172.48,166.14 174.13,159.16 C 175.77,152.17 174.34,144.83 170.16,139.0 C 168.02,136.02 165.24,133.53 162.03,131.75 C 160.49,130.9 158.9,130.23 157.22,129.72 C 156.42,129.48 155.63,129.29 154.81,129.13 C 154.41,129.05 154.0,128.97 153.59,128.91 C 153.4,128.88 153.2,128.84 153.0,128.81 C 152.88,128.8 152.81,128.81 152.75,128.69 C 152.7,128.59 152.7,128.46 152.78,128.38 C 154.28,126.85 154.27,124.38 152.75,122.88 C 151.98,122.11 150.97,121.74 149.97,121.75 z M 150.0,123.69 C 151.08,123.69 151.94,124.58 151.94,125.66 C 151.94,126.73 151.08,127.59 150.0,127.59 C 148.92,127.59 148.06,126.73 148.06,125.66 C 148.06,124.58 148.92,123.69 150.0,123.69 z M 149.88,130.94 C 150.38,130.93 150.87,130.97 151.38,131.0 C 151.63,131.02 151.9,131.04 152.16,131.06 C 152.28,131.07 152.41,131.08 152.53,131.09 C 152.62,131.1 152.83,131.12 152.91,131.19 C 153.01,131.27 153.04,131.42 152.97,131.53 C 152.9,131.64 152.69,131.68 152.59,131.72 C 152.31,131.84 152.04,132.01 151.78,132.19 C 151.27,132.54 150.84,132.94 150.47,133.44 C 149.71,134.47 149.38,135.69 149.53,136.97 C 149.68,138.22 150.25,139.35 151.19,140.19 C 152.19,141.09 152.97,141.22 154.16,141.69 C 156.25,142.52 158.21,144.47 157.94,146.97 C 157.88,147.5 157.76,147.95 157.44,148.41 C 157.08,148.91 156.62,149.32 156.16,149.72 C 155.13,150.6 154.03,151.35 153.0,152.22 C 152.72,152.42 152.43,152.61 152.13,152.78 C 151.91,152.9 151.7,153.02 151.44,153.03 C 151.0,153.05 150.54,152.59 150.34,152.28 C 149.76,151.38 149.6,149.25 149.59,148.28 C 149.59,147.62 149.62,147.01 149.88,146.38 C 150.08,145.86 150.43,145.32 150.91,145.0 C 151.35,144.7 152.06,144.47 152.59,144.47 C 153.15,144.47 153.68,144.66 154.09,145.03 C 154.44,145.34 154.6,145.7 154.69,146.16 C 154.76,146.54 154.75,146.97 154.53,147.31 C 154.13,147.94 153.1,148.24 152.44,147.84 C 152.32,147.77 152.22,147.7 152.16,147.56 C 152.13,147.51 152.1,147.46 152.09,147.41 C 152.08,147.26 152.13,147.16 152.28,147.13 C 152.49,147.07 152.57,147.22 152.69,147.31 C 152.81,147.42 152.93,147.47 153.09,147.5 C 153.41,147.55 153.74,147.43 153.94,147.19 C 154.05,147.05 154.1,146.92 154.13,146.75 C 154.19,146.31 154.06,145.88 153.75,145.56 C 153.29,145.09 152.6,144.99 152.0,145.16 C 150.98,145.44 150.31,146.34 150.34,147.41 C 150.37,148.15 150.69,148.78 151.28,149.22 C 151.78,149.58 152.39,149.76 153.0,149.78 C 154.16,149.82 155.39,149.28 156.03,148.28 C 156.68,147.28 156.64,145.94 156.16,144.91 C 155.68,143.87 154.72,143.13 153.63,142.84 C 153.13,142.71 152.64,142.66 152.13,142.72 C 152.0,142.73 151.87,142.76 151.75,142.78 C 151.64,142.8 151.56,142.85 151.44,142.84 C 151.32,142.84 151.24,142.79 151.19,142.69 C 151.13,142.58 151.19,142.48 151.19,142.38 C 151.19,141.83 151.09,141.34 150.84,140.84 C 150.57,140.29 150.13,139.8 149.53,139.59 C 148.9,139.38 148.15,139.47 147.59,139.84 C 147.26,140.07 147.02,140.4 146.91,140.78 C 146.84,141.01 146.8,141.23 146.84,141.47 C 146.88,141.66 146.94,141.81 147.06,141.97 C 147.26,142.23 147.57,142.42 147.91,142.41 C 148.25,142.4 148.55,142.27 148.75,141.97 C 148.78,141.93 148.79,141.89 148.81,141.84 C 148.85,141.75 148.87,141.66 148.88,141.56 C 148.88,141.46 148.99,141.38 149.09,141.41 C 149.17,141.43 149.18,141.47 149.22,141.53 C 149.35,141.75 149.4,141.97 149.41,142.22 C 149.43,142.77 149.3,143.3 149.13,143.81 C 149.03,144.08 148.91,144.34 148.78,144.59 C 148.63,144.91 148.46,145.21 148.31,145.53 C 148.23,145.71 148.15,145.91 148.09,146.09 C 148.07,146.18 148.07,146.25 148.0,146.31 C 147.93,146.38 147.87,146.39 147.78,146.38 C 147.59,146.35 147.53,146.16 147.47,146.03 C 147.4,145.88 147.32,145.74 147.25,145.59 C 146.98,145.01 146.71,144.43 146.44,143.84 C 146.18,143.31 145.93,142.79 145.78,142.22 C 145.67,141.78 145.58,141.41 145.81,140.97 C 146.05,140.51 146.55,140.07 146.91,139.72 C 147.42,139.21 147.9,138.69 148.28,138.06 C 148.99,136.89 149.21,135.45 148.81,134.13 C 148.59,133.38 148.25,132.82 147.66,132.31 C 147.37,132.07 147.06,131.87 146.72,131.72 C 146.65,131.69 146.58,131.66 146.53,131.59 C 146.49,131.53 146.48,131.48 146.5,131.41 C 146.54,131.23 146.66,131.21 146.81,131.19 C 147.82,131.04 148.85,130.94 149.88,130.94 z M 141.72,132.56 C 141.87,132.57 142.0,132.69 141.97,132.88 C 141.95,132.96 141.82,133.12 141.78,133.19 C 141.71,133.31 141.65,133.43 141.59,133.56 C 141.48,133.82 141.42,134.1 141.38,134.38 C 141.25,135.15 141.37,135.94 141.78,136.63 C 142.22,137.35 142.96,137.89 143.81,138.0 C 144.71,138.11 145.6,137.74 146.16,137.03 C 146.45,136.66 146.6,136.28 146.66,135.81 C 146.72,135.33 146.64,134.76 146.34,134.34 C 146.02,133.91 145.54,133.7 145.0,133.72 C 144.45,133.74 143.92,134.01 143.69,134.53 C 143.56,134.82 143.54,135.1 143.59,135.41 C 143.61,135.52 143.55,135.63 143.44,135.66 C 143.32,135.68 143.23,135.61 143.19,135.5 C 143.16,135.44 143.14,135.38 143.13,135.31 C 143.01,134.73 143.18,134.1 143.63,133.69 C 144.53,132.84 146.23,133.0 146.88,134.09 C 147.21,134.67 147.31,135.43 147.19,136.06 C 147.05,136.83 146.67,137.39 146.16,137.94 C 145.5,138.64 144.76,139.21 144.28,140.09 C 143.97,140.68 143.88,141.22 143.94,141.88 C 143.96,142.15 143.99,142.42 144.06,142.69 C 144.09,142.81 144.12,142.89 144.03,143.0 C 143.96,143.09 143.86,143.14 143.75,143.09 C 142.55,142.62 141.77,142.65 140.53,142.69 C 139.63,142.71 138.74,142.72 137.84,142.53 C 137.05,142.36 136.44,142.05 135.94,141.38 C 135.51,140.81 135.22,140.08 135.34,139.34 C 135.5,138.4 136.31,137.5 137.19,137.16 C 137.65,136.97 138.07,136.95 138.56,137.06 C 138.97,137.16 139.45,137.38 139.72,137.72 C 139.99,138.07 140.07,138.58 140.06,139.0 C 140.06,139.43 139.97,139.72 139.63,140.0 C 139.3,140.27 138.91,140.38 138.5,140.31 C 138.3,140.28 138.11,140.21 137.94,140.09 C 137.9,140.07 137.67,139.88 137.69,139.81 C 137.63,139.66 137.79,139.58 137.91,139.69 C 138.0,139.78 138.13,139.83 138.25,139.88 C 138.51,139.96 138.8,139.93 139.03,139.78 C 139.15,139.71 139.21,139.62 139.28,139.5 C 139.47,139.17 139.56,138.78 139.44,138.41 C 139.31,137.99 138.97,137.69 138.56,137.56 C 138.26,137.47 137.98,137.51 137.69,137.59 C 136.87,137.82 136.2,138.38 135.97,139.22 C 135.71,140.16 136.18,141.01 136.94,141.53 C 137.66,142.03 138.6,142.19 139.44,142.0 C 140.33,141.8 141.07,141.25 141.5,140.44 C 141.9,139.68 141.9,138.77 141.72,137.97 C 141.52,137.1 141.06,136.41 140.31,135.91 C 139.86,135.61 139.4,135.42 138.88,135.31 C 138.61,135.26 138.36,135.22 138.09,135.22 C 137.96,135.22 137.82,135.24 137.69,135.25 C 137.57,135.26 137.49,135.26 137.41,135.16 C 137.34,135.07 137.32,134.94 137.38,134.84 C 137.43,134.75 137.51,134.71 137.59,134.66 C 137.75,134.55 137.9,134.47 138.06,134.38 C 138.38,134.18 138.7,133.99 139.03,133.81 C 139.69,133.45 140.34,133.11 141.03,132.81 C 141.2,132.74 141.39,132.66 141.56,132.59 C 141.62,132.57 141.67,132.56 141.72,132.56 z M 158.25,132.56 C 158.35,132.55 158.64,132.69 158.72,132.72 C 159.02,132.85 159.32,132.98 159.63,133.13 C 160.23,133.41 160.83,133.69 161.41,134.03 C 161.98,134.37 162.52,134.74 163.06,135.13 C 163.33,135.32 163.61,135.51 163.88,135.72 C 163.94,135.77 164.01,135.8 164.06,135.88 C 164.13,135.96 164.14,136.06 164.09,136.16 C 163.99,136.39 163.74,136.3 163.56,136.28 C 162.26,136.13 160.75,136.44 159.66,137.19 C 158.5,137.97 157.8,139.21 157.44,140.5 C 157.41,140.6 157.4,140.71 157.38,140.81 C 157.35,140.91 157.32,141.0 157.28,141.09 C 157.2,141.31 157.01,141.31 156.84,141.19 C 156.52,140.95 156.17,140.73 155.81,140.53 C 155.03,140.1 154.54,139.98 153.72,139.66 C 152.59,139.22 151.7,138.46 151.38,137.22 C 151.2,136.55 151.23,135.87 151.5,135.22 C 151.76,134.59 152.28,134.01 152.84,133.63 C 153.91,132.91 155.6,132.87 156.53,133.88 C 157.01,134.4 157.26,135.2 157.13,135.91 C 156.99,136.6 156.47,137.16 155.81,137.41 C 155.21,137.63 154.42,137.57 153.94,137.09 C 153.72,136.89 153.63,136.67 153.63,136.38 C 153.62,136.25 153.66,136.14 153.72,136.03 C 153.76,135.94 153.8,135.87 153.91,135.84 C 153.97,135.83 154.01,135.83 154.06,135.88 C 154.15,135.94 154.17,136.04 154.19,136.13 C 154.29,136.54 154.61,136.82 155.03,136.91 C 155.35,136.97 155.59,136.94 155.88,136.78 C 156.23,136.59 156.45,136.22 156.53,135.84 C 156.67,135.21 156.43,134.53 155.94,134.13 C 155.12,133.44 154.0,133.56 153.16,134.09 C 151.88,134.9 151.47,136.48 152.25,137.78 C 152.95,138.95 154.38,139.46 155.66,139.28 C 157.04,139.09 158.21,138.13 158.69,136.81 C 159.15,135.52 158.88,134.05 158.06,132.97 C 157.94,132.81 158.05,132.59 158.25,132.56 z M 163.03,138.0 C 163.29,138.01 163.54,138.07 163.78,138.13 C 164.78,138.38 165.48,139.03 165.81,140.0 C 166.19,141.12 165.97,142.41 165.06,143.22 C 164.25,143.95 162.99,144.19 162.06,143.47 C 161.65,143.15 161.43,142.7 161.41,142.19 C 161.39,141.7 161.55,141.14 161.91,140.78 C 162.22,140.47 162.71,140.31 163.16,140.41 C 163.31,140.44 163.41,140.48 163.5,140.63 C 163.56,140.72 163.61,140.81 163.59,140.94 C 163.56,141.14 163.34,141.24 163.16,141.16 C 162.87,141.02 162.55,141.05 162.28,141.22 C 162.23,141.25 162.15,141.39 162.13,141.44 C 162.06,141.55 162.03,141.65 162.0,141.78 C 161.92,142.13 161.96,142.39 162.16,142.69 C 162.38,143.04 162.78,143.24 163.19,143.28 C 163.74,143.34 164.33,143.1 164.72,142.72 C 165.08,142.36 165.31,141.91 165.38,141.41 C 165.51,140.45 165.08,139.43 164.22,138.94 C 163.44,138.49 162.49,138.52 161.69,138.84 C 159.61,139.69 159.02,142.48 160.34,144.22 C 160.98,145.06 161.97,145.56 163.0,145.66 C 164.01,145.75 164.99,145.45 165.81,144.88 C 166.86,144.14 167.53,143.05 167.72,141.78 C 167.76,141.47 167.79,141.15 167.78,140.84 C 167.77,140.69 167.72,140.56 167.72,140.41 C 167.71,140.28 167.81,140.15 167.94,140.13 C 168.1,140.1 168.17,140.17 168.25,140.28 C 168.32,140.37 168.37,140.47 168.44,140.56 C 168.57,140.75 168.72,140.93 168.84,141.13 C 169.35,141.89 169.78,142.71 170.19,143.53 C 170.39,143.94 170.57,144.36 170.75,144.78 C 170.77,144.84 170.99,145.35 171.0,145.41 C 171.02,145.54 170.97,145.68 170.84,145.72 C 170.67,145.78 170.58,145.65 170.47,145.56 C 169.42,144.79 168.05,144.56 166.81,145.0 C 165.64,145.42 164.62,146.33 164.19,147.53 C 163.83,148.51 163.86,149.54 163.59,150.53 C 163.51,150.83 163.39,151.23 163.16,151.47 C 163.08,151.55 163.01,151.59 162.91,151.63 C 162.76,151.67 162.62,151.69 162.47,151.69 C 161.89,151.67 161.13,151.48 160.56,151.41 C 159.84,151.31 159.13,151.26 158.41,151.31 C 158.22,151.32 158.06,151.35 157.88,151.38 C 157.79,151.39 157.69,151.42 157.59,151.41 C 157.5,151.4 157.46,151.37 157.41,151.28 C 157.36,151.2 157.34,151.12 157.38,151.03 C 157.41,150.95 157.5,150.9 157.56,150.84 C 157.69,150.73 157.81,150.59 157.94,150.47 C 158.43,150.0 158.84,149.49 159.34,149.03 C 159.74,148.67 160.15,148.36 160.69,148.22 C 160.88,148.17 161.05,148.17 161.25,148.22 C 161.36,148.24 161.47,148.26 161.53,148.38 C 161.62,148.53 161.58,148.7 161.41,148.78 C 161.3,148.83 161.23,148.8 161.13,148.78 C 160.78,148.71 160.42,148.87 160.22,149.16 C 159.99,149.47 159.99,149.88 160.22,150.19 C 160.34,150.35 160.47,150.44 160.66,150.5 C 160.98,150.61 161.29,150.62 161.63,150.56 C 163.02,150.31 163.78,148.83 163.13,147.56 C 162.83,147.0 162.26,146.6 161.66,146.47 C 161.11,146.35 160.62,146.41 160.09,146.56 C 159.99,146.59 159.89,146.58 159.81,146.5 C 159.73,146.42 159.75,146.35 159.75,146.25 C 159.75,146.04 159.74,145.81 159.72,145.59 C 159.68,145.17 159.6,144.78 159.5,144.38 C 159.35,143.78 159.14,143.2 159.03,142.59 C 158.94,142.07 158.99,141.6 159.13,141.09 C 159.37,140.14 159.87,139.11 160.78,138.56 C 161.41,138.19 162.25,137.97 163.03,138.0 z M 133.44,138.34 C 133.56,138.35 133.66,138.44 133.69,138.56 C 133.71,138.66 133.64,138.89 133.63,138.97 C 133.6,139.12 133.57,139.26 133.56,139.41 C 133.49,140.37 133.77,141.3 134.28,142.09 C 134.81,142.93 135.46,143.5 136.38,143.91 C 136.58,144.0 136.78,144.09 137.0,144.16 C 137.11,144.19 137.24,144.19 137.34,144.22 C 137.44,144.24 137.54,144.24 137.63,144.31 C 137.84,144.5 137.63,144.71 137.53,144.88 C 137.4,145.08 137.31,145.27 137.22,145.5 C 136.85,146.42 136.81,147.44 137.16,148.38 C 137.49,149.27 138.1,149.96 138.97,150.38 C 139.74,150.75 140.69,150.88 141.53,150.75 C 142.43,150.61 143.31,150.15 143.88,149.41 C 144.52,148.56 144.63,147.45 144.16,146.5 C 143.74,145.66 142.99,145.13 142.06,145.0 C 141.13,144.87 140.19,145.2 139.63,146.0 C 139.22,146.58 139.09,147.13 139.47,147.78 C 139.71,148.19 140.08,148.46 140.56,148.47 C 140.79,148.47 140.99,148.44 141.19,148.31 C 141.46,148.14 141.61,147.85 141.59,147.53 C 141.59,147.38 141.55,147.23 141.47,147.09 C 141.43,147.03 141.39,147.0 141.41,146.91 C 141.42,146.81 141.47,146.76 141.56,146.75 C 141.95,146.7 142.28,146.85 142.5,147.19 C 142.7,147.5 142.76,147.9 142.56,148.22 C 142.32,148.61 141.86,148.87 141.44,148.97 C 140.95,149.08 140.34,149.03 139.88,148.84 C 138.91,148.47 138.53,147.39 138.78,146.44 C 139.05,145.41 140.06,144.64 141.06,144.47 C 142.9,144.16 144.63,145.42 145.63,146.75 C 146.9,148.46 147.13,150.32 147.44,152.28 C 147.47,152.51 147.52,152.74 147.56,152.97 C 147.58,153.08 147.61,153.19 147.56,153.31 C 147.52,153.42 147.43,153.48 147.31,153.47 C 147.17,153.46 147.1,153.35 147.0,153.28 C 146.9,153.2 146.79,153.13 146.69,153.06 C 146.48,152.92 146.26,152.81 146.03,152.69 C 145.17,152.23 144.27,151.9 143.34,151.66 C 142.36,151.39 141.43,151.26 140.41,151.38 C 139.94,151.43 139.46,151.54 139.0,151.63 C 138.64,151.7 138.28,151.74 137.91,151.72 C 137.29,151.68 136.71,151.27 136.44,150.72 C 136.29,150.41 136.29,150.13 136.31,149.81 C 136.34,149.34 136.41,148.85 136.44,148.38 C 136.5,147.2 136.24,146.09 135.47,145.16 C 134.71,144.24 133.56,143.68 132.38,143.63 C 131.76,143.6 131.2,143.67 130.63,143.91 C 130.49,143.96 130.38,144.05 130.25,144.13 C 130.17,144.17 129.97,144.27 129.88,144.28 C 129.75,144.29 129.63,144.24 129.59,144.13 C 129.55,144.0 129.64,143.88 129.69,143.78 C 130.05,143.01 130.46,142.28 130.91,141.56 C 131.36,140.84 131.82,140.17 132.34,139.5 C 132.61,139.17 132.88,138.85 133.16,138.53 C 133.23,138.44 133.3,138.34 133.44,138.34 z M 132.38,145.38 C 132.87,145.42 133.36,145.62 133.75,145.94 C 134.29,146.38 134.58,146.97 134.66,147.66 C 134.76,148.56 134.47,149.45 134.53,150.34 C 134.61,151.59 135.44,152.62 136.53,153.16 C 138.21,153.97 139.63,153.1 141.19,153.13 C 142.36,153.15 143.97,153.66 145.0,154.16 C 146.12,154.7 146.99,155.51 147.38,156.75 C 147.47,157.05 147.52,157.35 147.56,157.66 C 147.58,157.77 147.63,158.01 147.53,158.13 C 147.46,158.21 147.39,158.24 147.28,158.22 C 147.14,158.19 147.02,158.17 146.88,158.16 C 146.33,158.1 145.87,158.21 145.38,158.44 C 145.0,158.61 144.65,158.84 144.31,159.06 C 143.63,159.51 142.96,159.84 142.13,159.94 C 141.43,160.02 140.64,159.9 140.03,159.5 C 138.84,158.71 138.65,157.03 139.69,156.03 C 140.18,155.56 140.77,155.39 141.44,155.56 C 141.93,155.69 142.52,156.16 142.56,156.72 C 142.58,156.93 142.49,157.19 142.34,157.34 C 142.26,157.43 142.17,157.49 142.06,157.53 C 141.81,157.63 141.63,157.48 141.72,157.22 C 141.87,156.75 141.63,156.27 141.16,156.13 C 140.9,156.05 140.7,156.06 140.47,156.19 C 140.08,156.4 139.77,156.79 139.66,157.22 C 139.53,157.71 139.63,158.24 139.94,158.66 C 140.24,159.06 140.65,159.27 141.13,159.34 C 141.8,159.45 142.57,159.31 143.16,158.94 C 143.81,158.53 144.23,157.85 144.31,157.09 C 144.39,156.36 144.16,155.64 143.72,155.06 C 142.9,153.99 141.53,153.53 140.22,153.81 C 138.94,154.09 137.9,155.07 137.47,156.28 C 137.28,156.8 137.22,157.29 137.25,157.84 C 137.26,157.98 137.26,158.12 137.28,158.25 C 137.29,158.32 137.3,158.37 137.31,158.44 C 137.32,158.45 137.34,158.5 137.31,158.5 C 137.3,158.5 137.3,158.47 137.28,158.47 C 137.25,158.46 137.22,158.47 137.19,158.47 C 136.93,158.43 136.67,158.4 136.41,158.41 C 135.49,158.43 134.65,158.7 133.78,158.91 C 132.46,159.22 131.05,159.4 129.97,158.22 C 129.09,157.26 129.02,155.81 129.84,154.78 C 130.61,153.83 132.04,153.51 133.0,154.38 C 133.36,154.69 133.52,155.01 133.5,155.5 C 133.49,155.91 133.32,156.29 132.97,156.53 C 132.69,156.72 132.21,156.87 131.88,156.72 C 131.79,156.68 131.65,156.57 131.63,156.47 C 131.6,156.38 131.66,156.3 131.75,156.28 C 131.84,156.27 131.92,156.31 132.0,156.31 C 132.19,156.31 132.35,156.26 132.5,156.16 C 132.79,155.96 132.94,155.59 132.88,155.25 C 132.79,154.82 132.48,154.61 132.09,154.5 C 131.35,154.3 130.7,154.6 130.25,155.19 C 129.88,155.68 129.75,156.32 129.91,156.91 C 130.21,158.07 131.35,158.62 132.47,158.53 C 133.44,158.45 134.34,157.94 134.84,157.09 C 135.28,156.36 135.38,155.42 135.16,154.59 C 134.93,153.76 134.35,153.1 133.63,152.66 C 132.19,151.79 130.4,151.97 129.13,153.0 C 128.82,153.25 128.54,153.52 128.31,153.84 C 128.2,154.0 128.09,154.17 128.0,154.34 C 127.92,154.49 127.76,154.54 127.63,154.44 C 127.5,154.34 127.5,154.16 127.5,154.03 C 127.5,153.89 127.5,153.73 127.5,153.59 C 127.5,153.31 127.49,153.03 127.5,152.75 C 127.53,151.62 127.67,150.52 127.88,149.41 C 127.9,149.29 127.9,149.17 127.97,149.06 C 128.04,148.95 128.16,148.91 128.28,148.97 C 128.41,149.03 128.47,149.24 128.53,149.34 C 128.62,149.5 128.73,149.64 128.84,149.78 C 129.31,150.35 129.94,150.69 130.66,150.81 C 131.37,150.94 132.1,150.83 132.72,150.44 C 133.29,150.07 133.81,149.41 134.0,148.75 C 134.21,148.0 134.09,147.05 133.5,146.47 C 132.76,145.73 131.53,145.71 130.84,146.53 C 130.64,146.77 130.54,147.03 130.5,147.34 C 130.48,147.52 130.48,147.67 130.53,147.84 C 130.61,148.1 130.79,148.3 131.03,148.41 C 131.26,148.5 131.52,148.51 131.75,148.41 C 131.87,148.35 131.98,148.29 132.06,148.19 C 132.11,148.14 132.14,148.07 132.22,148.09 C 132.28,148.11 132.33,148.19 132.31,148.25 C 132.26,148.47 132.05,148.74 131.88,148.88 C 131.66,149.04 131.42,149.1 131.16,149.09 C 130.57,149.09 130.15,148.74 129.97,148.19 C 129.55,146.9 130.63,145.57 131.91,145.41 C 132.07,145.38 132.21,145.36 132.38,145.38 z M 167.84,146.56 C 168.44,146.48 169.12,146.72 169.56,147.13 C 169.98,147.5 170.24,148.18 170.16,148.75 C 170.07,149.32 169.62,149.67 169.09,149.78 C 168.84,149.84 168.61,149.84 168.38,149.72 C 168.27,149.67 168.2,149.59 168.13,149.5 C 168.1,149.47 168.05,149.45 168.03,149.41 C 167.98,149.3 168.01,149.17 168.09,149.09 C 168.2,149.0 168.3,149.05 168.41,149.06 C 168.52,149.08 168.64,149.06 168.75,149.03 C 168.99,148.97 169.15,148.87 169.28,148.66 C 169.53,148.27 169.46,147.75 169.09,147.47 C 168.95,147.36 168.79,147.3 168.63,147.25 C 168.34,147.16 168.07,147.16 167.78,147.22 C 167.28,147.32 166.83,147.67 166.56,148.09 C 166.06,148.9 166.13,149.93 166.75,150.66 C 167.28,151.28 168.09,151.59 168.91,151.56 C 169.63,151.54 170.39,151.25 170.94,150.78 C 171.24,150.52 171.48,150.24 171.66,149.88 C 171.73,149.73 171.77,149.58 171.97,149.59 C 172.13,149.6 172.2,149.7 172.22,149.84 C 172.3,150.33 172.36,150.82 172.41,151.31 C 172.45,151.8 172.49,152.29 172.5,152.78 C 172.51,153.04 172.53,153.99 172.5,154.25 C 172.49,154.39 172.36,154.5 172.22,154.5 C 172.03,154.5 172.01,154.38 171.94,154.25 C 171.77,153.96 171.57,153.68 171.34,153.44 C 170.87,152.93 170.37,152.58 169.72,152.34 C 168.41,151.87 166.94,152.08 165.88,153.0 C 164.73,153.98 164.37,155.55 165.06,156.91 C 165.74,158.25 167.55,158.97 168.94,158.28 C 170.25,157.62 170.6,155.93 169.5,154.91 C 169.17,154.6 168.83,154.44 168.38,154.44 C 168.07,154.44 167.72,154.53 167.47,154.72 C 167.14,154.96 167.04,155.38 167.19,155.75 C 167.34,156.13 167.72,156.36 168.13,156.31 C 168.23,156.3 168.29,156.25 168.34,156.38 C 168.37,156.44 168.38,156.48 168.34,156.53 C 168.31,156.59 168.24,156.65 168.19,156.69 C 167.84,156.91 167.29,156.74 167.0,156.53 C 166.61,156.25 166.45,155.74 166.5,155.28 C 166.56,154.76 166.91,154.37 167.34,154.13 C 168.38,153.54 169.65,154.01 170.28,154.94 C 170.9,155.86 170.87,157.07 170.22,157.97 C 169.5,158.97 168.4,159.27 167.25,159.13 C 165.75,158.93 164.4,158.21 162.78,158.47 C 162.75,158.47 162.71,158.5 162.69,158.5 C 162.65,158.51 162.68,158.46 162.69,158.44 C 162.7,158.38 162.71,158.31 162.72,158.25 C 162.74,158.14 162.74,158.02 162.75,157.91 C 162.77,157.68 162.77,157.45 162.75,157.22 C 162.7,156.75 162.58,156.33 162.38,155.91 C 161.98,155.07 161.27,154.36 160.41,154.0 C 159.24,153.51 157.83,153.69 156.84,154.5 C 156.34,154.91 155.92,155.48 155.75,156.13 C 155.57,156.82 155.68,157.55 156.06,158.16 C 156.46,158.79 157.06,159.17 157.78,159.31 C 158.5,159.46 159.37,159.4 159.94,158.81 C 160.3,158.44 160.44,157.95 160.38,157.44 C 160.31,156.93 160.07,156.54 159.66,156.25 C 159.24,155.96 158.66,156.04 158.38,156.47 C 158.23,156.69 158.2,156.87 158.25,157.13 C 158.26,157.18 158.26,157.26 158.28,157.31 C 158.3,157.36 158.36,157.38 158.38,157.44 C 158.39,157.51 158.35,157.57 158.28,157.59 C 158.24,157.61 158.2,157.6 158.16,157.59 C 157.91,157.55 157.74,157.47 157.59,157.25 C 157.27,156.76 157.53,156.24 157.91,155.91 C 158.35,155.51 159.1,155.39 159.66,155.59 C 160.26,155.82 160.74,156.39 160.91,157.0 C 161.09,157.66 160.99,158.34 160.59,158.91 C 160.17,159.51 159.54,159.83 158.84,159.94 C 158.08,160.05 157.32,159.91 156.63,159.59 C 156.24,159.42 155.88,159.17 155.53,158.94 C 155.05,158.62 154.58,158.35 154.0,158.22 C 153.75,158.16 153.48,158.11 153.22,158.13 C 153.08,158.13 152.95,158.15 152.81,158.19 C 152.71,158.21 152.64,158.25 152.53,158.19 C 152.44,158.14 152.38,158.07 152.38,157.97 C 152.37,157.88 152.39,157.83 152.41,157.75 C 152.43,157.59 152.46,157.44 152.5,157.28 C 152.63,156.7 152.81,156.16 153.16,155.66 C 153.81,154.71 155.12,154.01 156.13,153.63 C 157.35,153.16 158.54,152.99 159.84,153.09 C 160.53,153.15 161.2,153.32 161.88,153.41 C 162.9,153.54 163.87,153.41 164.59,152.53 C 165.27,151.71 165.44,150.57 165.56,149.59 C 165.65,148.91 165.71,148.13 166.19,147.53 C 166.57,147.05 167.22,146.64 167.84,146.56 z M 148.69,158.78 C 148.79,158.74 148.93,158.78 149.03,158.84 C 149.13,158.9 149.19,159.0 149.25,159.09 C 149.31,159.19 149.39,159.27 149.44,159.38 C 149.49,159.48 149.53,159.61 149.56,159.72 C 149.6,159.83 149.63,159.93 149.66,160.03 C 149.69,160.14 149.72,160.24 149.75,160.38 C 149.78,160.51 149.78,160.67 149.84,160.69 C 149.9,160.7 150.01,160.55 150.09,160.44 C 150.17,160.33 150.24,160.27 150.31,160.19 C 150.39,160.11 150.46,160.0 150.53,159.91 C 150.61,159.82 150.69,159.73 150.78,159.66 C 150.87,159.58 150.96,159.53 151.06,159.47 C 151.16,159.41 151.26,159.36 151.38,159.34 C 151.49,159.33 151.61,159.36 151.69,159.44 C 151.77,159.51 151.8,159.63 151.81,159.75 C 151.83,159.87 151.83,159.98 151.81,160.09 C 151.8,160.21 151.76,160.33 151.72,160.44 C 151.68,160.55 151.65,160.65 151.59,160.75 C 151.54,160.85 151.5,160.93 151.44,161.03 C 151.38,161.13 151.31,161.25 151.25,161.34 C 151.19,161.44 151.1,161.53 151.03,161.63 C 150.96,161.72 150.91,161.82 150.84,161.91 C 150.77,162.0 150.7,162.07 150.63,162.16 C 150.55,162.24 150.45,162.32 150.38,162.41 C 150.3,162.49 150.21,162.58 150.13,162.66 C 150.04,162.74 149.96,162.81 149.84,162.91 C 149.72,163.01 149.57,163.14 149.47,163.22 C 149.37,163.3 149.32,163.36 149.28,163.34 C 149.24,163.33 149.21,163.24 149.16,163.13 C 149.1,163.01 149.04,162.85 148.97,162.72 C 148.9,162.58 148.83,162.48 148.78,162.38 C 148.74,162.27 148.7,162.17 148.66,162.06 C 148.62,161.95 148.59,161.83 148.56,161.72 C 148.53,161.61 148.5,161.49 148.47,161.38 C 148.44,161.26 148.43,161.18 148.41,161.06 C 148.38,160.95 148.36,160.83 148.34,160.72 C 148.33,160.61 148.29,160.49 148.28,160.38 C 148.27,160.26 148.26,160.15 148.25,160.03 C 148.24,159.92 148.24,159.8 148.25,159.69 C 148.26,159.57 148.28,159.45 148.31,159.34 C 148.34,159.23 148.38,159.13 148.44,159.03 C 148.5,158.93 148.58,158.82 148.69,158.78 z M 128.69,159.56 C 128.74,159.56 128.79,159.59 128.84,159.63 C 128.95,159.7 129.05,159.79 129.16,159.88 C 129.26,159.96 129.36,160.05 129.47,160.13 C 129.93,160.44 130.43,160.65 130.97,160.78 C 132.02,161.04 132.95,160.92 133.97,160.69 C 134.5,160.57 135.03,160.42 135.56,160.31 C 136.01,160.22 136.44,160.15 136.91,160.22 C 137.38,160.29 137.8,160.48 138.22,160.69 C 138.75,160.95 139.25,161.21 139.81,161.41 C 140.87,161.78 141.84,161.85 142.94,161.59 C 144.03,161.34 144.68,160.91 145.59,160.31 C 145.91,160.11 146.22,159.92 146.63,159.91 C 146.82,159.9 146.93,159.93 147.0,160.13 C 147.05,160.26 147.01,160.39 147.03,160.53 C 147.05,160.64 147.1,160.77 147.13,160.88 C 147.16,161.01 147.2,161.14 147.22,161.28 C 147.26,161.57 147.21,161.84 147.19,162.13 C 147.17,162.37 147.13,162.59 147.03,162.81 C 146.93,163.04 146.9,163.14 146.94,163.41 C 146.97,163.61 146.96,163.8 146.88,164.0 C 146.84,164.08 146.79,164.17 146.75,164.25 C 146.71,164.35 146.67,164.46 146.63,164.56 C 146.57,164.67 146.5,164.75 146.44,164.84 C 146.37,164.94 146.31,165.05 146.25,165.16 C 146.13,165.36 146.03,165.58 145.91,165.78 C 145.78,165.98 145.65,166.16 145.5,166.34 C 145.38,166.49 144.97,166.63 144.81,166.66 C 144.53,166.71 144.28,166.69 144.0,166.63 C 143.74,166.56 143.49,166.43 143.25,166.31 C 142.72,166.06 142.28,165.92 141.69,166.16 C 141.2,166.35 140.91,166.75 140.53,167.06 C 140.14,167.39 139.73,167.63 139.25,167.81 C 138.28,168.19 137.13,168.23 136.13,168.22 C 135.14,168.21 134.23,168.15 133.31,167.69 C 133.03,167.55 132.75,167.37 132.5,167.19 C 132.37,167.09 131.76,166.61 131.66,166.47 C 131.42,166.15 131.21,165.81 131.0,165.47 C 129.89,163.71 129.03,161.9 128.44,159.91 C 128.38,159.72 128.53,159.57 128.69,159.56 z M 171.38,159.56 C 171.49,159.6 171.56,159.73 171.56,159.84 C 171.56,159.96 171.22,160.9 171.19,161.0 C 170.85,161.96 170.47,162.88 170.0,163.78 C 169.77,164.23 169.51,164.66 169.25,165.09 C 169.12,165.31 168.98,165.54 168.84,165.75 C 168.78,165.86 168.7,165.96 168.63,166.06 C 168.58,166.13 168.48,166.3 168.41,166.34 C 167.39,166.89 166.51,167.12 165.41,167.38 C 164.32,167.63 163.65,167.71 162.53,167.78 C 162.03,167.81 161.51,167.82 161.0,167.84 C 160.75,167.85 160.5,167.88 160.25,167.91 C 160.0,167.93 159.75,168.01 159.5,168.03 C 159.08,168.06 158.42,167.83 158.03,167.75 C 157.54,167.64 157.02,167.56 156.53,167.44 C 155.95,167.29 155.41,167.13 154.88,166.84 C 154.27,166.52 154.07,166.22 153.78,165.63 C 153.66,165.37 153.23,164.43 153.16,164.16 C 153.1,163.96 153.09,163.77 153.09,163.56 C 153.09,163.42 153.11,163.27 153.09,163.13 C 153.08,162.96 153.02,162.82 152.97,162.66 C 152.9,162.43 152.83,162.2 152.78,161.97 C 152.7,161.59 152.72,161.25 152.84,160.88 C 152.92,160.65 152.98,160.6 152.97,160.34 C 152.97,160.27 152.98,160.2 153.0,160.13 C 153.04,160.02 153.07,159.97 153.19,159.94 C 153.36,159.88 153.59,159.91 153.75,159.97 C 154.04,160.07 154.28,160.24 154.53,160.41 C 154.87,160.63 155.2,160.84 155.56,161.03 C 156.51,161.52 157.45,161.79 158.53,161.75 C 159.59,161.71 160.46,161.34 161.38,160.88 C 162.27,160.42 162.89,160.06 163.97,160.22 C 165.07,160.38 166.13,160.8 167.25,160.91 C 168.37,161.01 169.44,160.8 170.41,160.19 C 170.64,160.04 170.86,159.88 171.06,159.69 C 171.16,159.6 171.23,159.52 171.38,159.56 z M 143.59,168.88 C 143.73,168.88 143.88,168.91 144.03,168.94 C 144.28,168.99 144.5,169.1 144.75,169.13 C 144.86,169.14 144.96,169.12 145.06,169.09 C 145.16,169.06 145.27,169.04 145.38,169.06 C 145.53,169.09 145.76,169.14 145.75,169.34 C 145.74,169.55 145.67,169.71 145.5,169.84 C 145.36,169.95 145.19,169.96 145.06,170.09 C 144.91,170.24 144.81,170.45 144.66,170.59 C 144.46,170.77 144.27,170.87 144.03,170.97 C 143.8,171.06 143.55,171.18 143.31,171.25 C 143.19,171.29 143.06,171.28 142.94,171.28 C 142.81,171.28 142.69,171.31 142.56,171.34 C 142.32,171.4 142.08,171.48 141.84,171.56 C 141.6,171.64 141.38,171.75 141.13,171.78 C 140.88,171.82 140.62,171.78 140.38,171.88 C 140.18,171.95 139.92,172.16 139.97,172.41 C 140.01,172.65 140.67,172.7 140.81,172.72 C 141.1,172.77 141.38,172.82 141.69,172.78 C 141.8,172.77 141.89,172.74 142.0,172.72 C 142.08,172.7 142.14,172.71 142.22,172.75 C 142.28,172.78 142.32,172.81 142.38,172.84 C 142.45,172.9 142.54,172.95 142.63,172.97 C 142.85,173.02 143.08,173.02 143.31,173.03 C 143.55,173.04 143.77,173.04 144.0,172.97 C 144.23,172.9 144.44,172.79 144.66,172.69 C 144.87,172.59 145.11,172.52 145.31,172.41 C 145.43,172.34 145.47,172.23 145.53,172.13 C 145.59,172.02 145.67,171.92 145.72,171.81 C 145.81,171.63 145.92,171.36 146.13,171.25 C 146.24,171.19 146.36,171.22 146.47,171.19 C 146.59,171.15 146.66,171.05 146.75,170.97 C 146.94,170.81 147.15,170.73 147.38,170.66 C 147.61,170.58 147.81,170.51 148.06,170.59 C 148.63,170.79 148.72,171.26 148.63,171.78 C 148.58,172.03 148.57,172.28 148.53,172.53 C 148.49,172.82 148.4,172.86 148.25,173.09 C 148.12,173.3 148.14,173.5 148.16,173.72 C 148.18,173.98 148.17,174.21 148.09,174.47 C 148.02,174.71 147.97,174.94 147.91,175.19 C 147.87,175.31 147.82,175.44 147.78,175.56 C 147.73,175.69 147.7,175.8 147.53,175.81 C 147.4,175.82 146.32,175.65 146.19,175.63 C 142.43,174.98 138.91,173.38 135.94,171.0 C 135.84,170.92 135.79,170.8 135.84,170.69 C 135.91,170.55 136.03,170.54 136.16,170.53 C 136.39,170.51 136.61,170.49 136.84,170.47 C 137.32,170.43 137.81,170.38 138.28,170.34 C 139.23,170.28 140.17,170.21 141.09,169.94 C 141.35,169.86 141.56,169.77 141.78,169.63 C 142.0,169.48 142.18,169.32 142.41,169.19 C 142.81,168.95 143.18,168.85 143.59,168.88 z M 152.22,169.5 C 152.34,169.48 152.42,169.54 152.5,169.63 C 153.0,170.15 152.76,170.79 152.84,171.34 C 152.89,171.66 153.04,171.61 153.28,171.66 C 153.48,171.7 153.61,171.81 153.75,171.94 C 153.94,172.1 154.15,172.21 154.38,172.31 C 154.62,172.42 154.85,172.53 155.09,172.66 C 155.63,172.94 155.96,173.05 156.56,173.13 C 156.71,173.14 157.85,173.22 158.0,173.22 C 158.14,173.21 158.27,173.17 158.41,173.13 C 158.57,173.07 158.74,173.04 158.91,173.0 C 159.15,172.94 159.62,172.84 159.75,172.53 C 159.85,172.3 159.73,172.2 159.5,172.16 C 159.31,172.12 159.12,172.11 158.94,172.09 C 158.7,172.07 158.49,172.01 158.25,172.0 C 157.94,171.98 157.8,172.02 157.5,171.88 C 157.27,171.77 157.09,171.63 156.88,171.5 C 156.66,171.37 156.45,171.27 156.25,171.13 C 156.05,170.98 155.91,170.84 155.84,170.59 C 155.77,170.33 155.73,169.97 155.91,169.72 C 156.11,169.42 156.35,169.53 156.63,169.59 C 156.86,169.65 157.1,169.7 157.34,169.72 C 157.81,169.76 158.28,169.81 158.75,169.88 C 159.16,169.93 159.56,169.97 159.97,170.0 C 161.11,170.07 162.24,170.05 163.38,169.91 C 163.64,169.87 163.89,169.83 164.16,169.78 C 164.29,169.76 164.43,169.74 164.56,169.72 C 164.6,169.71 164.93,169.62 164.97,169.63 C 165.11,169.63 165.22,169.76 165.22,169.91 C 165.22,170.07 165.1,170.13 165.0,170.22 C 164.82,170.38 164.65,170.53 164.47,170.69 C 163.72,171.32 162.95,171.88 162.13,172.41 C 158.71,174.59 154.74,175.81 150.69,175.94 C 150.56,175.94 150.43,175.85 150.41,175.72 C 150.39,175.63 150.48,175.45 150.5,175.38 C 150.58,175.14 150.64,174.89 150.75,174.66 C 150.87,174.41 151.1,174.27 151.25,174.06 C 151.41,173.85 151.34,173.59 151.28,173.38 C 151.12,172.79 151.0,172.51 151.09,171.88 C 151.17,171.36 151.35,170.91 151.63,170.47 C 151.7,170.35 151.78,170.23 151.81,170.09 C 151.85,169.96 151.82,169.82 151.88,169.69 C 151.93,169.57 152.11,169.52 152.22,169.5 z" />
	
		
		<text id="txtTwo" transform="matrix(1 0 0 1 150 160)" style="stroke:none;fill:#f00;font-family:'Eras Medium ITC';font-size:20px;text-anchor:middle"  >
		</text>
		<!-- Prism Reference -->
		<cam mingh:cam=" --verb EditSelectAll --verb ZoomSelection --verb FileSave "/> 
	 </g>

</svg>