<svg
   xmlns:xlink="http://www.w3.org/1999/xlink"
   xmlns:svg="http://www.w3.org/2000/svg"
   xmlns="http://www.w3.org/2000/svg"
   xmlns:mingh="http://www.minghworld.com"
   width="300px"
   height="300px" >
	 <g>
		<!-- Paths -->
		<path transform="matrix(-1 0 0 1 300 0)" style="fill:#ff0;stroke:none;"
		 d="M 153.22,124.44 C 152.93,124.43 152.65,124.45 152.34,124.47 C 151.36,124.54 150.24,124.77 149.25,125.22 C 147.97,125.8 146.87,126.71 146.0,127.69 C 144.06,129.88 143.23,132.39 143.16,134.97 C 143.05,138.62 144.43,142.38 146.31,146.34 C 146.83,147.44 147.41,148.58 147.97,149.69 C 147.09,150.57 146.21,151.43 145.38,152.31 C 142.36,155.5 139.87,158.66 138.84,162.16 C 138.12,164.63 138.11,167.29 139.28,169.97 C 139.8,171.17 140.56,172.37 141.59,173.31 C 142.4,174.04 143.37,174.62 144.28,175.0 C 144.85,175.23 145.38,175.38 145.94,175.47 C 146.49,175.55 147.05,175.58 147.66,175.53 C 148.64,175.46 149.76,175.23 150.75,174.78 C 152.03,174.2 153.13,173.29 154.0,172.31 C 155.94,170.12 156.77,167.61 156.84,165.03 C 156.95,161.38 155.57,157.62 153.69,153.66 C 153.17,152.56 152.59,151.42 152.03,150.31 C 152.91,149.43 153.79,148.57 154.63,147.69 C 157.64,144.5 160.13,141.34 161.16,137.84 C 161.88,135.37 161.89,132.71 160.72,130.03 C 160.2,128.83 159.44,127.63 158.41,126.69 C 157.6,125.96 156.63,125.38 155.72,125.0 C 155.15,124.77 154.62,124.62 154.06,124.53 C 153.79,124.49 153.51,124.45 153.22,124.44 z M 150.13,126.97 C 150.22,126.96 150.34,126.98 150.44,127.0 C 150.63,127.03 150.8,127.08 150.97,127.19 C 151.14,127.29 151.29,127.43 151.41,127.59 C 151.52,127.75 151.61,127.93 151.66,128.13 C 151.7,128.32 151.72,128.52 151.69,128.72 C 151.66,128.91 151.57,129.11 151.47,129.28 C 151.37,129.45 151.22,129.57 151.06,129.69 C 150.9,129.8 150.72,129.89 150.53,129.94 C 150.34,129.98 150.16,130.0 149.97,129.97 C 149.77,129.94 149.57,129.85 149.41,129.75 C 149.24,129.65 149.08,129.53 148.97,129.38 C 148.85,129.22 148.76,129.04 148.72,128.84 C 148.67,128.65 148.69,128.44 148.72,128.25 C 148.75,128.06 148.8,127.86 148.91,127.69 C 149.01,127.52 149.15,127.37 149.31,127.25 C 149.47,127.13 149.65,127.08 149.84,127.03 C 149.94,127.01 150.03,126.97 150.13,126.97 z M 152.06,131.25 C 152.31,131.25 152.59,131.28 152.97,131.34 C 153.72,131.46 154.14,131.63 154.47,131.78 C 155.38,132.19 155.73,132.51 156.03,132.81 C 157.78,134.61 157.67,136.65 156.78,138.78 C 155.96,140.75 154.47,142.78 152.56,144.91 C 151.9,145.65 151.18,146.39 150.44,147.16 C 149.97,146.2 149.53,145.26 149.13,144.34 C 147.98,141.73 147.2,139.34 147.03,137.22 C 146.85,134.92 147.41,132.95 149.63,131.78 C 150.0,131.58 150.44,131.42 151.44,131.31 C 151.62,131.29 151.82,131.25 152.06,131.25 z M 149.56,152.84 C 150.03,153.8 150.47,154.74 150.88,155.66 C 152.02,158.27 152.8,160.66 152.97,162.78 C 153.15,165.08 152.59,167.05 150.38,168.22 C 150.0,168.42 149.56,168.58 148.56,168.69 C 148.2,168.73 147.78,168.77 147.03,168.66 C 146.28,168.54 145.86,168.37 145.53,168.22 C 144.62,167.81 144.27,167.49 143.97,167.19 C 142.22,165.39 142.33,163.35 143.22,161.22 C 144.04,159.25 145.53,157.22 147.44,155.09 C 148.1,154.35 148.82,153.61 149.56,152.84 z" />
		<text id="txtTwo" transform="matrix(1 0 0 1 150 160)" style="stroke:none;fill:#f00;font-family:'Eras Medium ITC';font-size:20px;text-anchor:middle"  >
		</text>
		<!-- Prism Reference -->
		<cam mingh:cam=" --verb EditSelectAll --verb ZoomSelection --verb FileSave "/> 
	 </g>

</svg>