<svg
   xmlns:xlink="http://www.w3.org/1999/xlink"
   xmlns:svg="http://www.w3.org/2000/svg"
   xmlns="http://www.w3.org/2000/svg"
   xmlns:mingh="http://www.minghworld.com"
   width="300px"
   height="300px" >
   
	 <g>
		<!-- Paths -->
		<path style="fill:none;stroke:#000;stroke-width:0.25px;"
		 d="M 138.5,129.31 C 137.65,129.37 136.83,129.7 136.16,130.31 C 134.84,131.51 134.48,133.46 135.31,135.03 C 136.15,136.61 137.95,137.39 139.69,136.97 C 139.89,136.92 140.09,136.86 140.28,136.78 C 140.33,136.76 140.36,136.74 140.41,136.72 C 140.43,136.71 140.41,136.77 140.41,136.78 C 140.4,136.8 140.39,136.79 140.38,136.81 C 140.33,136.89 140.29,136.96 140.25,137.03 C 140.09,137.33 139.95,137.66 139.81,137.97 C 139.54,138.59 139.32,139.22 139.16,139.88 C 138.9,140.9 138.61,142.77 139.31,143.81 C 139.79,144.51 140.5,144.48 141.19,144.16 C 141.86,143.84 142.37,143.39 142.84,142.84 C 142.9,142.78 142.94,142.69 143.0,142.63 C 143.02,142.6 143.07,142.59 143.09,142.56 C 143.1,142.58 143.12,142.61 143.13,142.63 C 143.14,142.75 143.14,142.87 143.16,143.0 C 143.2,143.26 143.26,143.53 143.31,143.78 C 143.33,143.84 143.33,143.91 143.34,143.97 C 143.35,144.0 143.37,144.03 143.38,144.06 C 143.38,144.08 143.4,144.08 143.41,144.09 C 143.41,144.1 143.4,144.12 143.41,144.13 C 143.41,144.16 143.39,144.17 143.38,144.19 C 142.77,145.13 142.3,146.12 141.88,147.16 C 140.78,149.84 140.06,152.82 139.56,155.66 C 138.89,159.46 138.57,163.27 138.47,167.13 C 138.46,167.59 138.44,168.06 138.44,168.53 C 138.43,168.76 138.44,168.99 138.44,169.22 C 138.44,169.28 138.44,169.32 138.44,169.38 C 138.44,169.38 138.42,169.44 138.44,169.44 L 138.47,169.44 L 138.69,169.44 L 139.13,169.44 L 139.56,169.44 C 139.61,169.44 139.59,169.5 139.59,169.53 C 139.6,169.56 139.62,169.57 139.63,169.59 C 139.67,169.72 139.75,169.82 139.84,169.91 C 140.16,170.19 140.52,170.29 140.91,170.41 C 141.49,170.58 142.08,170.66 142.69,170.69 C 143.56,170.73 144.42,170.67 145.28,170.47 C 145.59,170.39 145.87,170.33 146.16,170.19 C 146.36,170.09 146.57,169.96 146.72,169.78 C 146.77,169.72 146.81,169.67 146.84,169.59 C 146.86,169.56 146.87,169.54 146.88,169.5 C 146.88,169.49 146.87,169.48 146.88,169.47 C 146.88,169.44 146.89,169.44 146.91,169.44 L 147.06,169.44 L 147.66,169.44 L 147.72,169.44 C 147.73,169.44 147.75,169.46 147.75,169.47 C 147.75,169.49 147.75,169.51 147.75,169.53 C 147.76,169.57 147.77,169.59 147.78,169.63 C 147.87,169.81 148.0,169.93 148.16,170.03 C 148.39,170.19 148.64,170.29 148.91,170.38 C 150.29,170.82 152.4,170.81 153.78,170.38 C 154.05,170.29 154.32,170.19 154.56,170.03 C 154.73,169.93 154.85,169.84 154.94,169.66 C 154.95,169.62 154.99,169.57 155.0,169.53 C 155.0,169.51 155.0,169.52 155.0,169.5 C 155.0,169.49 155.0,169.48 155.0,169.47 C 155.0,169.44 155.02,169.44 155.03,169.44 L 155.66,169.44 L 155.94,169.44 L 156.09,169.44 L 156.16,169.44 C 156.16,169.4 156.16,169.35 156.16,169.31 C 156.16,169.23 156.16,169.17 156.16,169.09 L 156.16,168.63 C 156.15,167.99 156.14,167.35 156.13,166.72 C 156.12,166.58 156.1,166.45 156.13,166.31 C 156.13,166.27 156.16,166.23 156.19,166.19 C 156.29,166.04 156.46,165.98 156.63,166.06 C 158.19,166.84 159.86,166.43 161.25,165.63 C 162.58,164.85 163.69,163.66 164.38,162.28 C 165.07,160.89 165.27,159.41 165.03,157.88 C 164.8,156.39 164.14,154.97 163.09,153.88 C 161.79,152.5 159.89,151.68 158.06,151.41 C 157.09,151.26 156.13,151.25 155.16,151.41 C 154.92,151.44 154.67,151.5 154.44,151.56 C 154.38,151.58 154.34,151.58 154.28,151.59 C 154.25,151.6 154.22,151.62 154.19,151.63 C 154.18,151.63 154.16,151.63 154.16,151.63 C 154.15,151.59 154.14,151.54 154.13,151.5 C 154.11,151.43 154.11,151.36 154.09,151.28 C 154.06,151.14 154.01,150.99 153.97,150.84 C 153.67,149.76 153.31,148.71 152.91,147.66 C 152.56,146.76 152.18,145.87 151.72,145.03 C 151.62,144.85 151.51,144.68 151.41,144.5 C 151.35,144.41 151.3,144.34 151.25,144.25 C 151.24,144.23 151.23,144.21 151.22,144.19 C 151.21,144.17 151.18,144.15 151.19,144.13 C 151.2,144.07 151.24,144.02 151.25,143.97 C 151.3,143.76 151.34,143.55 151.38,143.34 C 151.4,143.2 151.42,143.05 151.44,142.91 C 151.45,142.84 151.46,142.79 151.47,142.72 C 151.47,142.68 151.5,142.63 151.5,142.59 C 151.5,142.58 151.5,142.58 151.5,142.56 C 151.5,142.57 151.53,142.56 151.53,142.56 C 151.78,142.87 152.02,143.14 152.31,143.41 C 152.8,143.86 153.64,144.47 154.41,144.38 C 155.3,144.27 155.6,143.34 155.69,142.63 C 155.79,141.82 155.69,141.06 155.53,140.28 C 155.22,138.79 154.56,137.23 153.72,135.97 C 153.28,135.31 152.8,134.7 152.19,134.19 C 151.68,133.76 150.8,133.19 150.03,133.44 C 149.66,133.56 149.49,133.8 149.31,134.13 C 149.3,134.14 149.29,134.17 149.28,134.19 C 149.28,134.2 149.26,134.18 149.25,134.19 C 149.25,134.2 149.27,134.23 149.25,134.22 C 149.22,134.19 149.19,134.18 149.16,134.16 C 149.09,134.11 149.01,134.07 148.94,134.03 C 148.79,133.95 148.66,133.87 148.5,133.81 C 147.84,133.55 147.12,133.49 146.44,133.69 C 146.11,133.78 145.79,133.93 145.5,134.13 C 145.47,134.15 145.44,134.16 145.41,134.19 C 145.39,134.2 145.39,134.21 145.38,134.22 C 145.36,134.23 145.35,134.23 145.34,134.22 C 145.34,134.21 145.35,134.2 145.34,134.19 C 145.31,134.11 145.27,134.04 145.22,133.97 C 145.12,133.82 144.99,133.69 144.84,133.59 C 144.23,133.17 143.46,133.48 142.94,133.81 C 142.87,133.86 142.79,133.92 142.72,133.97 C 142.68,133.99 142.66,134.01 142.63,134.03 C 142.61,134.04 142.58,134.05 142.56,134.06 C 142.53,134.09 142.56,134.05 142.56,134.03 C 142.61,133.83 142.65,133.61 142.66,133.41 C 142.68,132.96 142.63,132.52 142.5,132.09 C 142.25,131.23 141.71,130.48 140.97,129.97 C 140.22,129.46 139.35,129.26 138.5,129.31 z M 138.75,131.25 C 138.88,131.25 139.0,131.26 139.13,131.28 C 139.38,131.33 139.63,131.42 139.84,131.56 C 140.06,131.7 140.23,131.88 140.38,132.09 C 140.52,132.31 140.64,132.56 140.69,132.81 C 140.74,133.06 140.74,133.31 140.69,133.56 C 140.64,133.81 140.52,134.07 140.38,134.28 C 140.23,134.49 140.06,134.67 139.84,134.81 C 139.63,134.96 139.41,135.04 139.16,135.09 C 138.91,135.14 138.66,135.14 138.41,135.09 C 138.16,135.04 137.9,134.95 137.69,134.81 C 137.47,134.67 137.3,134.49 137.16,134.28 C 137.01,134.07 136.89,133.84 136.84,133.59 C 136.79,133.34 136.8,133.06 136.84,132.81 C 136.89,132.56 137.02,132.34 137.16,132.13 C 137.3,131.91 137.48,131.74 137.69,131.59 C 137.9,131.45 138.13,131.33 138.38,131.28 C 138.5,131.26 138.62,131.25 138.75,131.25 z M 157.84,154.81 C 158.67,154.82 159.55,155.11 160.16,155.53 C 161.06,156.16 161.66,157.14 161.84,158.22 C 162.02,159.28 161.78,160.43 161.31,161.38 C 160.79,162.42 160.03,163.09 158.97,163.53 C 158.5,163.73 158.05,163.87 157.53,163.91 C 157.26,163.92 156.98,163.92 156.72,163.88 C 156.57,163.85 156.45,163.79 156.31,163.75 C 156.13,163.69 155.98,163.63 155.97,163.41 C 155.82,161.23 155.59,159.09 155.25,156.94 C 155.21,156.66 155.17,156.4 155.13,156.13 C 155.11,156.06 155.11,155.97 155.09,155.91 C 155.1,155.9 155.11,155.91 155.13,155.91 C 155.17,155.89 155.21,155.86 155.25,155.84 C 155.34,155.8 155.45,155.77 155.53,155.72 C 155.7,155.62 155.84,155.51 156.0,155.41 C 156.33,155.19 156.68,155.0 157.06,154.91 C 157.31,154.85 157.57,154.81 157.84,154.81 z"
		 />
		 <path style="fill:#f00;stroke:none;"
		 d="M 142.61,145.85 C 142.73,145.61 142.85,145.38 142.97,145.15 C 143.12,144.87 143.28,144.59 143.45,144.33 C 143.54,144.68 143.64,145.02 143.76,145.36 C 143.92,145.83 144.11,146.29 144.34,146.72 C 144.54,147.11 144.77,147.48 145.04,147.81 C 145.27,148.09 145.52,148.35 145.8,148.56 C 146.04,148.74 146.3,148.88 146.57,148.98 C 146.8,149.06 147.05,149.11 147.3,149.11 C 147.55,149.11 147.79,149.06 148.03,148.98 C 148.3,148.88 148.56,148.74 148.8,148.56 C 149.08,148.35 149.33,148.09 149.56,147.81 C 149.82,147.48 150.06,147.11 150.26,146.72 C 150.49,146.29 150.68,145.83 150.84,145.36 C 150.96,145.02 151.06,144.68 151.15,144.32 C 151.43,144.78 151.71,145.29 151.99,145.85 C 151.9,146.08 151.81,146.31 151.72,146.54 C 151.56,146.91 151.38,147.28 151.18,147.63 C 150.98,147.96 150.77,148.28 150.53,148.58 C 150.31,148.85 150.08,149.1 149.82,149.33 C 149.57,149.54 149.31,149.73 149.03,149.89 C 148.76,150.04 148.47,150.16 148.17,150.23 C 147.89,150.31 147.59,150.35 147.3,150.35 C 147.01,150.35 146.71,150.31 146.43,150.23 C 146.13,150.16 145.84,150.04 145.57,149.89 C 145.29,149.73 145.02,149.54 144.78,149.33 C 144.52,149.1 144.29,148.85 144.07,148.58 C 143.83,148.28 143.62,147.96 143.42,147.63 C 143.22,147.28 143.04,146.91 142.88,146.54 C 142.78,146.31 142.7,146.08 142.61,145.85 z M 140.62,169.28 C 140.67,169.3 140.71,169.32 140.75,169.34 C 140.89,169.41 141.04,169.46 141.19,169.5 C 141.4,169.56 141.61,169.61 141.82,169.64 C 142.03,169.68 142.25,169.71 142.47,169.72 C 142.69,169.74 142.92,169.75 143.15,169.76 C 143.39,169.76 143.63,169.75 143.86,169.73 C 143.97,169.73 144.07,169.72 144.17,169.71 C 144.26,169.7 144.36,169.69 144.45,169.67 C 144.51,169.66 144.57,169.66 144.64,169.64 C 144.7,169.63 144.76,169.62 144.81,169.61 C 144.95,169.59 145.08,169.56 145.21,169.52 C 145.3,169.5 145.39,169.47 145.47,169.44 C 145.54,169.42 145.61,169.39 145.67,169.36 C 145.73,169.34 145.78,169.31 145.83,169.29 C 145.83,169.28 145.84,169.28 145.84,169.28 C 145.84,169.14 145.82,168.99 145.8,168.85 C 145.77,168.65 145.72,168.44 145.66,168.24 C 145.59,168.04 145.51,167.85 145.4,167.66 C 145.31,167.48 145.19,167.3 145.06,167.14 C 144.93,166.99 144.79,166.85 144.64,166.73 C 144.49,166.62 144.34,166.52 144.17,166.44 C 143.88,166.3 143.56,166.22 143.23,166.22 C 142.91,166.22 142.58,166.3 142.29,166.44 C 142.13,166.52 141.97,166.62 141.83,166.73 C 141.67,166.85 141.53,166.99 141.41,167.14 C 141.27,167.3 141.16,167.48 141.06,167.66 C 140.96,167.85 140.88,168.04 140.81,168.24 C 140.74,168.44 140.7,168.65 140.67,168.85 C 140.64,168.99 140.63,169.14 140.62,169.28 z M 146.76,169.44 C 146.75,169.47 146.75,169.49 146.74,169.52 C 146.73,169.54 146.72,169.57 146.71,169.59 C 146.68,169.66 146.63,169.72 146.58,169.77 C 146.54,169.81 146.5,169.84 146.46,169.87 C 146.43,169.89 146.41,169.91 146.38,169.93 C 146.33,169.96 146.28,169.99 146.22,170.02 C 146.08,170.1 145.93,170.16 145.78,170.22 C 145.6,170.28 145.41,170.33 145.22,170.38 C 145.11,170.4 145.0,170.43 144.89,170.45 C 144.77,170.47 144.64,170.49 144.52,170.51 C 144.32,170.53 144.12,170.55 143.92,170.57 C 143.69,170.58 143.46,170.59 143.23,170.59 C 143.0,170.59 142.77,170.58 142.55,170.57 C 142.35,170.55 142.15,170.53 141.95,170.51 C 141.71,170.47 141.47,170.43 141.24,170.38 C 141.05,170.33 140.87,170.28 140.68,170.22 C 140.53,170.16 140.39,170.1 140.24,170.02 C 140.16,169.98 140.08,169.93 140.01,169.87 C 139.96,169.84 139.92,169.81 139.89,169.77 C 139.86,169.74 139.84,169.72 139.82,169.69 C 139.79,169.66 139.77,169.63 139.75,169.59 C 139.74,169.57 139.73,169.54 139.72,169.52 C 139.72,169.49 139.71,169.47 139.71,169.44 C 139.71,169.4 139.71,169.35 139.71,169.31 C 139.72,169.07 139.73,168.84 139.75,168.6 C 139.78,168.31 139.83,168.02 139.89,167.73 C 139.92,167.59 139.96,167.45 139.99,167.31 C 140.03,167.16 140.08,167.02 140.13,166.88 C 140.22,166.6 140.34,166.33 140.47,166.08 C 140.6,165.82 140.74,165.59 140.9,165.37 C 141.06,165.15 141.23,164.96 141.41,164.79 C 141.61,164.6 141.83,164.44 142.06,164.32 C 142.43,164.12 142.83,164.01 143.23,164.01 C 143.64,164.01 144.04,164.12 144.41,164.32 C 144.64,164.44 144.85,164.6 145.05,164.79 C 145.24,164.96 145.41,165.15 145.56,165.37 C 145.73,165.59 145.87,165.82 146.0,166.08 C 146.13,166.33 146.24,166.6 146.34,166.88 C 146.39,167.02 146.43,167.16 146.47,167.31 C 146.51,167.45 146.55,167.59 146.58,167.73 C 146.64,168.02 146.68,168.31 146.71,168.6 C 146.74,168.84 146.75,169.07 146.75,169.31 C 146.75,169.35 146.76,169.4 146.76,169.44 z M 153.98,169.28 C 153.97,169.14 153.96,169.0 153.94,168.85 C 153.9,168.65 153.86,168.44 153.79,168.24 C 153.73,168.04 153.64,167.85 153.54,167.66 C 153.44,167.48 153.33,167.3 153.19,167.14 C 153.07,166.99 152.93,166.85 152.77,166.73 C 152.63,166.62 152.47,166.52 152.31,166.44 C 152.02,166.3 151.69,166.22 151.37,166.22 C 151.04,166.22 150.72,166.3 150.43,166.44 C 150.26,166.52 150.11,166.62 149.96,166.73 C 149.81,166.85 149.67,166.99 149.54,167.15 C 149.41,167.3 149.3,167.48 149.2,167.66 C 149.1,167.85 149.01,168.04 148.95,168.24 C 148.88,168.44 148.83,168.65 148.8,168.85 C 148.78,169.0 148.77,169.14 148.76,169.28 C 148.76,169.28 148.77,169.28 148.77,169.29 C 148.82,169.31 148.87,169.34 148.93,169.36 C 148.99,169.39 149.06,169.42 149.13,169.44 C 149.21,169.47 149.3,169.5 149.39,169.52 C 149.52,169.56 149.65,169.59 149.79,169.61 C 149.85,169.62 149.91,169.63 149.97,169.64 C 150.03,169.66 150.09,169.66 150.15,169.67 C 150.24,169.69 150.34,169.7 150.43,169.71 C 150.53,169.72 150.64,169.73 150.74,169.73 C 150.97,169.75 151.21,169.76 151.45,169.76 C 151.68,169.75 151.91,169.74 152.14,169.72 C 152.35,169.71 152.57,169.68 152.78,169.64 C 152.99,169.61 153.2,169.56 153.41,169.5 C 153.56,169.46 153.71,169.41 153.85,169.34 C 153.89,169.32 153.94,169.3 153.98,169.28 z M 147.85,169.44 C 147.85,169.4 147.85,169.35 147.85,169.31 C 147.85,169.07 147.87,168.84 147.89,168.6 C 147.92,168.31 147.96,168.02 148.03,167.73 C 148.06,167.59 148.09,167.45 148.13,167.31 C 148.17,167.16 148.22,167.02 148.26,166.88 C 148.36,166.6 148.47,166.33 148.6,166.08 C 148.73,165.82 148.88,165.59 149.04,165.37 C 149.19,165.15 149.37,164.96 149.55,164.79 C 149.75,164.6 149.97,164.44 150.19,164.32 C 150.56,164.12 150.97,164.01 151.37,164.01 C 151.77,164.01 152.17,164.12 152.54,164.32 C 152.77,164.44 152.99,164.6 153.19,164.79 C 153.37,164.96 153.54,165.15 153.7,165.37 C 153.86,165.59 154.01,165.82 154.13,166.08 C 154.26,166.33 154.38,166.6 154.47,166.88 C 154.52,167.02 154.57,167.16 154.61,167.31 C 154.65,167.45 154.68,167.59 154.71,167.73 C 154.77,168.02 154.82,168.31 154.85,168.6 C 154.87,168.84 154.89,169.07 154.89,169.31 C 154.89,169.35 154.89,169.4 154.89,169.44 C 154.89,169.47 154.89,169.49 154.88,169.52 C 154.87,169.54 154.86,169.57 154.85,169.59 C 154.83,169.63 154.81,169.66 154.79,169.69 C 154.76,169.72 154.74,169.74 154.72,169.77 C 154.68,169.81 154.64,169.84 154.6,169.87 C 154.52,169.93 154.44,169.98 154.36,170.02 C 154.22,170.1 154.07,170.16 153.92,170.22 C 153.74,170.28 153.55,170.33 153.36,170.38 C 153.13,170.43 152.89,170.47 152.66,170.51 C 152.46,170.53 152.26,170.55 152.06,170.57 C 151.83,170.58 151.6,170.59 151.37,170.59 C 151.14,170.59 150.91,170.58 150.68,170.57 C 150.48,170.55 150.28,170.53 150.08,170.51 C 149.96,170.49 149.83,170.47 149.71,170.45 C 149.6,170.43 149.49,170.4 149.38,170.38 C 149.19,170.33 149.0,170.28 148.82,170.22 C 148.67,170.16 148.52,170.1 148.38,170.02 C 148.32,169.99 148.27,169.96 148.22,169.93 C 148.19,169.91 148.17,169.89 148.14,169.87 C 148.1,169.84 148.06,169.81 148.02,169.77 C 147.97,169.72 147.92,169.66 147.89,169.59 C 147.88,169.57 147.87,169.54 147.86,169.52 C 147.85,169.49 147.85,169.47 147.85,169.44 z M 139.93,141.95 C 139.92,141.38 140.02,140.79 140.16,140.22 C 140.37,139.38 140.68,138.58 141.05,137.81 C 141.36,137.16 141.72,136.53 142.19,135.97 C 142.49,135.61 142.83,135.28 143.26,135.1 C 143.53,134.98 143.84,134.92 144.14,134.95 C 144.36,134.98 144.58,135.05 144.78,135.24 C 145.67,136.11 146.1,139.31 145.73,138.72 C 145.56,138.47 145.25,137.49 144.79,137.2 C 144.52,137.03 144.2,137.11 143.97,137.26 C 143.55,137.54 143.41,138.07 143.29,138.58 C 143.07,139.62 142.96,140.6 142.51,141.45 C 142.34,141.79 142.11,142.1 141.85,142.39 C 141.62,142.65 141.37,142.88 141.05,143.08 C 140.95,143.14 140.84,143.2 140.73,143.23 C 140.54,143.27 140.35,143.23 140.22,143.1 C 140.06,142.94 140.0,142.65 139.97,142.4 C 139.95,142.24 139.94,142.1 139.93,141.95 z M 154.67,141.95 C 154.66,142.1 154.65,142.24 154.63,142.4 C 154.6,142.65 154.54,142.94 154.38,143.1 C 154.25,143.23 154.06,143.27 153.87,143.23 C 153.76,143.2 153.65,143.14 153.55,143.08 C 153.23,142.88 152.98,142.65 152.75,142.39 C 152.49,142.1 152.26,141.79 152.09,141.45 C 151.64,140.6 151.53,139.62 151.31,138.58 C 151.19,138.07 151.05,137.54 150.63,137.26 C 150.4,137.11 150.08,137.03 149.81,137.2 C 149.36,137.49 149.04,138.47 148.87,138.72 C 148.5,139.31 148.93,136.11 149.82,135.24 C 150.02,135.05 150.24,134.98 150.46,134.95 C 150.76,134.92 151.07,134.98 151.34,135.1 C 151.77,135.28 152.11,135.61 152.41,135.97 C 152.88,136.53 153.24,137.16 153.55,137.81 C 153.93,138.58 154.23,139.38 154.44,140.22 C 154.58,140.79 154.68,141.38 154.67,141.95 z M 154.59,151.63 C 154.58,151.84 154.45,151.98 154.26,152.03 C 154.08,152.09 153.91,152.15 153.74,152.23 C 153.39,152.39 153.1,152.59 152.86,152.89 C 152.38,153.49 152.4,154.37 152.87,154.96 C 153.33,155.55 154.18,155.78 154.89,155.54 C 155.05,155.49 155.18,155.47 155.33,155.58 C 155.35,155.6 155.42,155.63 155.38,155.65 C 155.34,155.67 155.31,155.69 155.28,155.71 C 155.21,155.74 155.14,155.77 155.06,155.8 C 155.03,155.82 154.99,155.82 154.98,155.86 C 154.97,155.88 154.97,155.89 154.97,155.91 C 154.98,156.02 155.0,156.12 155.02,156.23 C 155.03,156.27 155.03,156.31 155.04,156.34 C 155.04,156.35 155.05,156.37 155.03,156.37 C 155.02,156.37 155.01,156.37 155.01,156.38 C 154.99,156.38 154.97,156.39 154.95,156.39 C 154.91,156.4 154.87,156.41 154.84,156.42 C 154.68,156.45 154.53,156.47 154.37,156.47 C 152.78,156.51 151.51,155.21 151.69,153.6 C 151.77,152.83 152.23,152.2 152.85,151.78 C 153.11,151.59 153.39,151.46 153.69,151.35 C 153.76,151.32 153.84,151.29 153.91,151.27 C 153.92,151.26 153.93,151.26 153.94,151.26 C 153.95,151.26 153.95,151.26 153.96,151.25 C 153.97,151.25 153.97,151.29 153.97,151.29 C 153.97,151.31 153.98,151.33 153.98,151.35 C 154.01,151.45 154.03,151.56 154.07,151.67 C 154.08,151.7 154.09,151.73 154.13,151.74 C 154.17,151.75 154.33,151.7 154.36,151.69 C 154.43,151.67 154.51,151.65 154.59,151.63 z"
		 />

		<!-- Prism Reference -->
		<cam mingh:cam=" --verb EditSelectAll --verb ZoomSelection --verb FileSave" /> 
	 </g>

</svg>
