<svg
   xmlns:xlink="http://www.w3.org/1999/xlink"
   xmlns:svg="http://www.w3.org/2000/svg"
   xmlns="http://www.w3.org/2000/svg"
   xmlns:mingh="http://www.minghworld.com"
   width="300px"
   height="300px" >
	 <g>
		
		<!-- Paths -->
		<path style="fill:none;stroke:#000;stroke-width:0.25px;"
		 d="M 144.41,128.94 C 143.77,128.99 143.12,129.2 142.53,129.59 C 140.37,131.05 140.21,134.15 142.22,135.81 C 143.19,136.62 144.5,136.92 145.72,136.59 C 145.79,136.58 145.87,136.55 145.94,136.53 C 145.97,136.52 146.0,136.51 146.03,136.5 C 146.05,136.49 146.08,136.47 146.09,136.47 C 146.11,136.46 146.09,136.49 146.09,136.5 C 146.09,136.51 146.09,136.52 146.09,136.53 C 146.09,136.77 146.09,136.99 146.13,137.22 C 146.2,137.8 146.37,138.36 146.56,138.91 C 147.04,140.27 147.72,141.49 148.5,142.69 C 148.2,143.81 148.22,144.99 148.59,146.09 C 148.78,146.65 149.06,147.18 149.41,147.66 C 149.57,147.89 149.74,148.08 149.94,148.28 C 149.95,148.29 149.96,148.3 149.97,148.31 L 149.97,148.34 C 149.96,148.35 149.94,148.37 149.94,148.38 C 149.93,148.39 149.95,148.39 149.94,148.41 C 149.9,148.45 149.85,148.48 149.81,148.53 C 149.67,148.73 149.54,148.92 149.41,149.13 C 149.11,149.57 148.81,150.03 148.56,150.5 C 148.28,151.02 148.05,151.56 147.81,152.09 C 147.8,152.11 147.79,152.11 147.78,152.13 C 147.78,152.13 147.79,152.15 147.78,152.16 C 147.78,152.16 147.75,152.16 147.75,152.16 C 147.74,152.15 147.73,152.16 147.72,152.16 C 147.7,152.15 147.71,152.13 147.69,152.13 C 147.65,152.11 147.6,152.11 147.56,152.09 C 146.48,151.71 145.06,151.61 143.94,151.72 C 142.69,151.84 141.55,152.14 140.44,152.72 C 139.05,153.44 138.0,154.43 137.25,155.81 C 136.53,157.15 136.23,158.71 136.38,160.22 C 136.52,161.73 137.14,163.14 138.09,164.31 C 139.0,165.43 140.33,166.43 141.78,166.75 C 142.62,166.93 143.44,166.88 144.22,166.5 C 144.37,166.43 144.54,166.44 144.66,166.56 C 144.72,166.63 144.74,166.69 144.75,166.78 C 144.76,166.95 144.73,167.11 144.72,167.28 C 144.71,167.53 144.7,167.78 144.69,168.03 C 144.67,168.53 144.66,169.03 144.66,169.53 C 144.66,169.59 144.66,169.66 144.66,169.72 L 144.66,169.81 C 144.66,169.82 144.67,169.84 144.69,169.84 L 144.72,169.84 L 144.78,169.84 L 145.09,169.84 L 145.69,169.84 C 145.72,169.84 145.78,169.8 145.78,169.84 C 145.78,169.86 145.78,169.89 145.78,169.91 C 145.79,169.94 145.8,169.97 145.81,170.0 C 145.98,170.37 146.46,170.57 146.78,170.69 C 147.47,170.94 148.15,171.03 148.88,171.06 C 149.68,171.1 150.49,171.07 151.28,170.91 C 151.77,170.8 152.34,170.65 152.75,170.31 C 152.87,170.21 152.98,170.1 153.03,169.94 C 153.04,169.91 153.03,169.88 153.03,169.84 C 153.03,169.81 153.08,169.84 153.09,169.84 L 153.16,169.84 L 153.31,169.84 L 153.91,169.84 L 155.13,169.84 L 155.28,169.84 C 155.3,169.84 155.31,169.84 155.31,169.84 C 155.31,169.85 155.31,169.87 155.31,169.88 C 155.32,169.91 155.33,169.94 155.34,169.97 C 155.37,170.04 155.39,170.1 155.44,170.16 C 155.62,170.38 155.84,170.48 156.09,170.59 C 156.48,170.76 156.9,170.86 157.31,170.94 C 158.31,171.11 159.47,171.13 160.47,170.97 C 160.89,170.9 161.29,170.79 161.69,170.63 C 161.95,170.52 162.21,170.41 162.41,170.19 C 162.47,170.11 162.5,170.03 162.53,169.94 C 162.54,169.92 162.56,169.9 162.56,169.88 C 162.57,169.85 162.56,169.84 162.59,169.84 L 163.0,169.84 L 163.38,169.84 L 163.59,169.84 L 163.63,169.84 L 163.66,169.84 C 163.67,169.84 163.66,169.82 163.66,169.81 C 163.66,169.79 163.66,169.77 163.66,169.75 C 163.66,169.71 163.66,169.67 163.66,169.63 C 163.65,169.3 163.66,168.98 163.66,168.66 C 163.59,165.95 163.35,163.29 162.91,160.63 C 162.48,158.03 161.89,155.52 160.94,153.06 C 160.54,152.04 160.08,151.05 159.53,150.09 C 159.3,149.68 159.06,149.29 158.78,148.91 C 158.66,148.73 158.51,148.55 158.38,148.38 C 158.36,148.36 158.35,148.34 158.38,148.31 C 158.39,148.3 158.4,148.29 158.41,148.28 C 158.77,147.9 159.09,147.47 159.34,147.0 C 159.86,146.05 160.09,144.99 160.03,143.91 C 160.02,143.59 159.97,143.28 159.91,142.97 C 159.89,142.89 159.89,142.82 159.88,142.75 C 159.87,142.73 159.85,142.71 159.84,142.69 C 159.84,142.66 159.93,142.55 159.94,142.53 C 160.02,142.4 160.11,142.29 160.19,142.16 C 160.51,141.63 160.82,141.09 161.09,140.53 C 161.57,139.56 161.96,138.58 162.16,137.5 C 162.27,136.87 162.34,136.09 162.03,135.47 C 161.4,134.19 159.75,134.8 158.84,135.28 C 157.85,135.81 157.01,136.49 156.19,137.25 C 155.96,137.46 155.72,137.65 155.5,137.88 C 155.39,137.99 155.29,138.11 155.19,138.22 C 155.16,138.25 155.12,138.28 155.09,138.31 C 155.08,138.33 155.08,138.33 155.06,138.34 C 155.06,138.35 155.07,138.37 155.06,138.38 C 155.06,138.38 155.04,138.41 155.03,138.41 C 155.01,138.4 154.99,138.38 154.97,138.38 C 154.81,138.35 154.66,138.35 154.5,138.34 C 154.3,138.33 154.11,138.33 153.91,138.34 C 153.81,138.35 153.69,138.33 153.59,138.34 C 153.54,138.35 153.49,138.37 153.44,138.38 C 153.41,138.38 153.4,138.37 153.38,138.38 C 153.37,138.38 153.32,138.38 153.31,138.38 C 152.35,137.33 151.17,136.27 149.94,135.53 C 149.46,135.24 148.98,135.0 148.44,134.84 C 148.33,134.81 148.23,134.77 148.13,134.75 C 148.08,134.74 148.11,134.71 148.13,134.69 C 148.14,134.65 148.17,134.6 148.19,134.56 C 148.26,134.42 148.32,134.3 148.38,134.16 C 148.61,133.5 148.67,132.87 148.56,132.19 C 148.22,130.08 146.33,128.79 144.41,128.94 z M 144.69,130.88 C 144.82,130.87 144.97,130.88 145.09,130.91 C 145.34,130.96 145.57,131.05 145.78,131.19 C 145.99,131.33 146.17,131.51 146.31,131.72 C 146.46,131.93 146.57,132.19 146.63,132.44 C 146.68,132.69 146.67,132.94 146.63,133.19 C 146.58,133.44 146.48,133.69 146.34,133.91 C 146.2,134.12 146.02,134.29 145.81,134.44 C 145.6,134.58 145.34,134.67 145.09,134.72 C 144.84,134.77 144.59,134.77 144.34,134.72 C 144.09,134.67 143.84,134.58 143.63,134.44 C 143.41,134.3 143.24,134.12 143.09,133.91 C 142.95,133.69 142.86,133.47 142.81,133.22 C 142.76,132.97 142.73,132.69 142.78,132.44 C 142.83,132.19 142.95,131.96 143.09,131.75 C 143.23,131.54 143.41,131.36 143.63,131.22 C 143.84,131.08 144.06,130.96 144.31,130.91 C 144.44,130.88 144.56,130.88 144.69,130.88 z M 143.81,155.22 C 144.08,155.23 144.36,155.27 144.59,155.34 C 144.94,155.46 145.23,155.62 145.53,155.81 C 145.68,155.91 145.84,156.01 146.0,156.09 C 146.08,156.14 146.14,156.18 146.22,156.22 C 146.26,156.24 146.3,156.27 146.34,156.28 C 146.34,156.31 146.35,156.35 146.34,156.38 C 146.33,156.43 146.29,156.45 146.28,156.5 C 146.25,156.6 146.25,156.71 146.22,156.81 C 146.17,157.02 146.11,157.23 146.06,157.44 C 145.56,159.54 145.23,161.67 145.0,163.81 C 144.98,164.04 144.81,164.1 144.63,164.16 C 144.49,164.2 144.36,164.22 144.22,164.25 C 143.96,164.3 143.7,164.31 143.44,164.28 C 142.93,164.23 142.48,164.07 142.03,163.84 C 141.0,163.33 140.32,162.6 139.91,161.53 C 139.52,160.54 139.4,159.39 139.66,158.34 C 139.91,157.29 140.53,156.35 141.47,155.78 C 142.08,155.41 143.0,155.19 143.81,155.22 z"
		 />
		 <path style="fill:#f00;stroke:none;"
		 d="M 150.08,148.44 C 151.43,149.74 153.32,150.33 155.17,150.01 C 156.12,149.84 156.92,149.5 157.69,148.92 C 157.81,148.83 157.93,148.74 158.04,148.64 C 158.09,148.59 158.14,148.54 158.2,148.49 C 158.21,148.48 158.22,148.47 158.24,148.46 C 158.24,148.45 158.25,148.45 158.26,148.44 C 158.27,148.43 158.28,148.46 158.28,148.47 C 158.29,148.48 158.3,148.5 158.31,148.51 C 158.33,148.54 158.35,148.56 158.38,148.59 C 158.42,148.64 158.46,148.7 158.5,148.75 C 158.65,148.96 158.8,149.17 158.94,149.39 C 158.95,149.4 159.0,149.44 158.98,149.46 C 158.95,149.49 158.92,149.51 158.9,149.54 C 158.84,149.58 158.79,149.63 158.73,149.68 C 158.62,149.77 158.51,149.86 158.39,149.94 C 156.89,151.05 155.01,151.53 153.16,151.26 C 152.22,151.13 151.38,150.83 150.56,150.35 C 150.3,150.2 150.04,150.02 149.79,149.83 C 149.68,149.74 149.56,149.64 149.45,149.54 C 149.42,149.52 149.39,149.5 149.37,149.47 C 149.35,149.45 149.36,149.44 149.37,149.43 C 149.39,149.39 149.41,149.36 149.43,149.33 C 149.48,149.27 149.52,149.2 149.56,149.14 C 149.73,148.9 149.9,148.67 150.08,148.44 z M 146.8,169.66 C 146.84,169.68 146.88,169.7 146.92,169.72 C 147.07,169.79 147.21,169.84 147.36,169.88 C 147.57,169.94 147.78,169.99 147.99,170.02 C 148.21,170.06 148.42,170.08 148.64,170.1 C 148.87,170.12 149.1,170.13 149.33,170.13 C 149.56,170.14 149.8,170.13 150.03,170.11 C 150.14,170.11 150.24,170.1 150.34,170.09 C 150.44,170.08 150.53,170.07 150.62,170.05 C 150.68,170.04 150.75,170.03 150.81,170.02 C 150.87,170.01 150.93,170.0 150.99,169.99 C 151.12,169.96 151.25,169.93 151.39,169.9 C 151.47,169.87 151.56,169.85 151.65,169.82 C 151.71,169.8 151.78,169.77 151.85,169.74 C 151.9,169.72 151.95,169.69 152.0,169.66 C 152.01,169.66 152.01,169.66 152.01,169.66 C 152.01,169.52 151.99,169.37 151.97,169.23 C 151.94,169.03 151.89,168.82 151.83,168.62 C 151.76,168.42 151.68,168.23 151.58,168.04 C 151.48,167.86 151.36,167.68 151.23,167.52 C 151.11,167.37 150.96,167.23 150.81,167.11 C 150.67,167.0 150.51,166.9 150.34,166.82 C 150.05,166.68 149.73,166.6 149.4,166.6 C 149.08,166.6 148.76,166.68 148.46,166.82 C 148.3,166.9 148.14,167.0 148.0,167.11 C 147.85,167.23 147.7,167.37 147.58,167.52 C 147.45,167.68 147.33,167.86 147.23,168.04 C 147.13,168.23 147.05,168.42 146.98,168.62 C 146.92,168.82 146.87,169.03 146.84,169.23 C 146.82,169.37 146.8,169.52 146.8,169.66 z M 152.93,169.82 C 152.93,169.85 152.92,169.87 152.91,169.89 C 152.91,169.92 152.9,169.95 152.88,169.97 C 152.85,170.04 152.8,170.1 152.75,170.15 C 152.71,170.19 152.67,170.22 152.63,170.25 C 152.61,170.27 152.58,170.29 152.56,170.3 C 152.5,170.34 152.45,170.37 152.39,170.4 C 152.25,170.48 152.1,170.54 151.95,170.59 C 151.77,170.66 151.58,170.71 151.4,170.76 C 151.29,170.78 151.17,170.81 151.06,170.83 C 150.94,170.85 150.81,170.87 150.69,170.88 C 150.49,170.91 150.29,170.93 150.09,170.95 C 149.86,170.96 149.63,170.97 149.4,170.97 C 149.18,170.97 148.95,170.96 148.72,170.95 C 148.52,170.93 148.32,170.91 148.12,170.88 C 147.88,170.85 147.65,170.81 147.41,170.76 C 147.22,170.71 147.04,170.66 146.86,170.59 C 146.71,170.54 146.56,170.48 146.42,170.4 C 146.33,170.36 146.25,170.31 146.18,170.25 C 146.14,170.22 146.1,170.19 146.06,170.15 C 146.03,170.12 146.01,170.1 145.99,170.07 C 145.96,170.04 145.94,170.01 145.93,169.97 C 145.91,169.95 145.9,169.92 145.89,169.89 C 145.89,169.87 145.88,169.85 145.88,169.82 C 145.88,169.77 145.88,169.73 145.88,169.68 C 145.89,169.45 145.9,169.22 145.93,168.98 C 145.96,168.69 146.0,168.4 146.06,168.11 C 146.09,167.97 146.13,167.83 146.17,167.69 C 146.21,167.54 146.25,167.4 146.3,167.26 C 146.4,166.98 146.51,166.71 146.64,166.46 C 146.77,166.2 146.91,165.97 147.07,165.75 C 147.23,165.53 147.4,165.34 147.59,165.17 C 147.79,164.98 148.0,164.82 148.23,164.7 C 148.6,164.5 149.0,164.39 149.4,164.39 C 149.81,164.39 150.21,164.5 150.58,164.7 C 150.81,164.82 151.02,164.98 151.22,165.17 C 151.41,165.34 151.58,165.53 151.74,165.75 C 151.9,165.97 152.04,166.2 152.17,166.46 C 152.3,166.71 152.41,166.98 152.51,167.26 C 152.56,167.4 152.6,167.54 152.64,167.69 C 152.68,167.83 152.72,167.97 152.75,168.11 C 152.81,168.4 152.85,168.69 152.88,168.98 C 152.91,169.22 152.92,169.45 152.93,169.68 C 152.93,169.73 152.93,169.77 152.93,169.82 z M 161.54,169.66 C 161.53,169.52 161.52,169.37 161.5,169.23 C 161.47,169.03 161.42,168.82 161.35,168.62 C 161.29,168.42 161.2,168.23 161.1,168.04 C 161.0,167.86 160.89,167.68 160.76,167.52 C 160.63,167.37 160.49,167.23 160.34,167.11 C 160.19,167.0 160.04,166.9 159.87,166.82 C 159.58,166.68 159.25,166.6 158.93,166.6 C 158.61,166.6 158.28,166.68 157.99,166.82 C 157.83,166.9 157.67,167.0 157.53,167.11 C 157.37,167.23 157.23,167.37 157.1,167.52 C 156.97,167.68 156.86,167.86 156.76,168.04 C 156.66,168.23 156.57,168.42 156.51,168.62 C 156.44,168.82 156.4,169.03 156.36,169.23 C 156.34,169.37 156.33,169.52 156.32,169.66 C 156.33,169.66 156.33,169.66 156.33,169.66 C 156.38,169.69 156.44,169.72 156.49,169.74 C 156.56,169.77 156.62,169.8 156.69,169.82 C 156.78,169.85 156.86,169.87 156.95,169.9 C 157.08,169.93 157.21,169.96 157.35,169.99 C 157.41,170.0 157.47,170.01 157.53,170.02 C 157.59,170.03 157.65,170.04 157.71,170.05 C 157.81,170.07 157.9,170.08 157.99,170.09 C 158.1,170.1 158.2,170.11 158.3,170.11 C 158.54,170.13 158.77,170.14 159.01,170.13 C 159.24,170.13 159.47,170.12 159.7,170.1 C 159.91,170.08 160.13,170.06 160.34,170.02 C 160.56,169.99 160.77,169.94 160.97,169.88 C 161.12,169.84 161.27,169.79 161.41,169.72 C 161.45,169.7 161.5,169.68 161.54,169.66 z M 155.41,169.82 C 155.41,169.77 155.41,169.73 155.41,169.68 C 155.41,169.45 155.43,169.22 155.45,168.98 C 155.48,168.69 155.53,168.4 155.59,168.11 C 155.62,167.97 155.65,167.83 155.69,167.69 C 155.73,167.54 155.78,167.4 155.83,167.26 C 155.92,166.98 156.04,166.71 156.17,166.46 C 156.29,166.2 156.44,165.97 156.6,165.75 C 156.76,165.53 156.93,165.34 157.11,165.17 C 157.31,164.98 157.53,164.82 157.76,164.7 C 158.13,164.5 158.53,164.39 158.93,164.39 C 159.33,164.39 159.74,164.5 160.11,164.7 C 160.33,164.82 160.55,164.98 160.75,165.17 C 160.93,165.34 161.11,165.53 161.26,165.75 C 161.42,165.97 161.57,166.2 161.7,166.46 C 161.83,166.71 161.94,166.98 162.04,167.26 C 162.08,167.4 162.13,167.54 162.17,167.68 C 162.21,167.83 162.24,167.97 162.27,168.11 C 162.34,168.4 162.38,168.69 162.41,168.98 C 162.43,169.22 162.45,169.45 162.45,169.68 C 162.45,169.73 162.45,169.77 162.45,169.82 C 162.45,169.85 162.45,169.87 162.44,169.89 C 162.43,169.92 162.42,169.95 162.41,169.97 C 162.39,170.01 162.37,170.04 162.35,170.07 C 162.33,170.1 162.3,170.12 162.28,170.15 C 162.24,170.19 162.2,170.22 162.16,170.25 C 162.08,170.31 162.0,170.36 161.92,170.4 C 161.78,170.48 161.63,170.54 161.48,170.59 C 161.3,170.66 161.11,170.71 160.92,170.76 C 160.69,170.81 160.45,170.85 160.22,170.88 C 160.02,170.91 159.82,170.93 159.62,170.95 C 159.39,170.96 159.16,170.97 158.93,170.97 C 158.7,170.97 158.47,170.96 158.24,170.95 C 158.04,170.93 157.84,170.91 157.65,170.88 C 157.52,170.87 157.4,170.85 157.27,170.83 C 157.16,170.81 157.05,170.78 156.94,170.76 C 156.75,170.71 156.57,170.66 156.38,170.59 C 156.23,170.54 156.08,170.48 155.94,170.4 C 155.89,170.37 155.83,170.34 155.78,170.3 C 155.75,170.29 155.73,170.27 155.71,170.25 C 155.66,170.22 155.62,170.19 155.59,170.15 C 155.53,170.1 155.49,170.04 155.45,169.97 C 155.44,169.95 155.43,169.92 155.42,169.89 C 155.41,169.87 155.41,169.85 155.41,169.82 z M 156.71,138.91 C 157.26,138.26 158.04,137.49 158.83,137.11 C 160.08,136.5 160.49,137.28 160.14,138.5 C 160.02,138.96 159.83,139.38 159.6,139.79 C 159.49,140.0 159.37,140.2 159.24,140.41 C 159.18,140.5 159.12,140.6 159.05,140.7 C 159.03,140.72 159.02,140.74 159.0,140.77 C 158.99,140.78 158.98,140.79 158.98,140.8 C 158.97,140.82 158.96,140.8 158.95,140.79 C 158.92,140.74 158.89,140.7 158.85,140.66 C 158.27,139.88 157.59,139.33 156.71,138.91 z M 151.62,138.91 C 150.75,139.33 150.07,139.88 149.48,140.66 C 149.45,140.7 149.42,140.74 149.38,140.79 C 149.38,140.8 149.37,140.82 149.36,140.8 C 149.35,140.79 149.34,140.78 149.34,140.77 C 149.32,140.74 149.3,140.72 149.29,140.7 C 149.22,140.6 149.16,140.5 149.09,140.41 C 148.96,140.2 148.84,140.0 148.73,139.79 C 148.51,139.38 148.32,138.96 148.19,138.5 C 147.85,137.28 148.25,136.5 149.51,137.11 C 150.29,137.49 151.08,138.26 151.62,138.91 z M 146.05,156.01 C 146.17,155.86 146.35,155.84 146.53,155.9 C 146.7,155.96 146.86,156.0 147.04,156.01 C 147.42,156.04 147.73,155.96 148.06,155.79 C 148.71,155.44 149.05,154.73 148.94,154.01 C 148.89,153.63 148.72,153.36 148.45,153.1 C 148.33,152.97 148.19,152.86 148.04,152.77 C 147.89,152.68 147.72,152.62 147.57,152.53 C 147.43,152.46 147.35,152.32 147.35,152.16 C 147.35,152.11 147.41,152.15 147.44,152.16 C 147.47,152.18 147.51,152.19 147.54,152.2 C 147.61,152.23 147.68,152.26 147.75,152.28 C 147.79,152.29 147.81,152.29 147.84,152.27 C 147.85,152.25 147.86,152.24 147.87,152.22 C 147.91,152.14 147.94,152.06 147.98,151.97 C 147.99,151.95 148.0,151.93 148.01,151.9 C 148.01,151.89 148.02,151.88 148.03,151.87 C 148.03,151.86 148.03,151.85 148.03,151.85 C 148.04,151.84 148.03,151.83 148.04,151.83 C 148.05,151.84 148.06,151.84 148.07,151.84 C 148.08,151.85 148.1,151.86 148.12,151.87 C 148.15,151.88 148.19,151.9 148.22,151.92 C 148.35,151.98 148.48,152.06 148.6,152.14 C 149.19,152.54 149.64,153.12 149.76,153.84 C 149.88,154.53 149.7,155.28 149.27,155.84 C 148.84,156.4 148.16,156.75 147.47,156.83 C 147.17,156.87 146.88,156.85 146.59,156.79 C 146.52,156.77 146.45,156.75 146.38,156.73 C 146.34,156.72 146.36,156.69 146.37,156.67 C 146.39,156.61 146.4,156.55 146.42,156.49 C 146.44,156.42 146.46,156.36 146.47,156.28 C 146.48,156.25 146.47,156.22 146.44,156.2 C 146.38,156.15 146.31,156.14 146.24,156.11 C 146.17,156.08 146.11,156.04 146.05,156.01 z"
		 />
		 
		<!-- Prism Reference -->
		<cam mingh:cam=" --verb EditSelectAll --verb ZoomSelection --verb FileSave" /> 
	 </g>

</svg>
