<svg xmlns="http://www.w3.org/2000/svg" 
xmlns:mingh="http://www.minghworld.com" 
xmlns:svg="http://www.w3.org/2000/svg" 
xmlns:xlink="http://www.w3.org/1999/xlink" 
height="300px" width="300px">

	
	 <g>
		<!-- Shape -->
		<path d="M 149.53,124.25 C 148.99,124.25 148.45,124.36 147.93,124.59 146.56,125.22 145.67,126.59 145.65,128.09 145.64,128.87 145.84,129.52 146.25,130.18 146.43,130.48 146.64,130.75 146.81,131.06 147.01,131.42 147.11,131.73 147.0,132.15 146.66,132.03 146.33,131.9 146.0,131.78 143.85,136.54 143.33,141.89 144.53,146.96 143.06,149.07 141.6,151.18 140.12,153.28 135.97,155.91 131.57,158.32 128.03,160.62 127.49,161.12 127.61,161.91 127.75,162.5 128.04,163.74 128.95,165.4 129.93,166.25 130.37,166.62 130.83,166.87 131.43,166.71 135.02,165.15 138.4,163.4 141.62,161.87 141.78,161.81 142.03,161.72 142.22,161.81 142.53,161.96 142.43,162.65 142.4,162.87 142.08,166.13 141.74,169.28 141.47,172.31 141.44,172.65 141.4,172.97 141.37,173.31 141.35,173.6 141.37,173.85 141.5,174.12 141.76,174.69 142.42,175.02 142.93,175.21 144.08,175.66 146.01,175.96 147.25,175.59 147.85,175.41 148.17,175.12 148.34,174.5 149.07,171.13 149.74,167.53 150.31,164.59 150.63,164.86 150.87,164.91 151.28,164.96 151.63,165.01 151.99,165.01 152.34,165.0 151.83,165.34 151.38,165.8 151.12,166.37 150.87,166.94 150.83,167.62 151.03,168.21 151.43,169.43 152.86,170.12 154.06,169.93 155.36,169.73 156.3,168.68 156.78,167.56 157.03,166.98 157.2,166.36 157.34,165.75 157.49,165.13 157.64,164.52 157.75,163.9 L 158.81,164.62 C 160.63,161.88 160.97,158.45 160.75,155.25 160.5,152.12 159.34,149.04 157.18,146.71 157.32,146.2 157.48,145.67 157.62,145.15 160.26,145.46 162.81,144.11 164.03,141.75 165.24,142.27 166.45,142.69 167.75,142.96 168.77,143.18 170.57,143.44 171.62,142.9 172.29,142.56 172.52,141.95 172.28,141.25 172.08,140.65 171.59,140.1 171.15,139.68 170.24,138.81 169.01,138.04 167.9,137.46 168.11,134.62 165.52,132.58 163.43,131.46 162.25,130.84 161.06,130.34 159.75,130.06 158.53,129.8 157.06,129.73 155.84,130.15 155.74,129.62 155.27,129.25 154.78,129.12 154.4,129.02 153.65,129.12 153.28,129.15 153.68,127.7 153.17,126.16 152.03,125.18 151.31,124.57 150.43,124.24 149.53,124.25 z M 149.65,126.06 C 150.74,126.06 151.62,126.94 151.62,128.03 151.62,129.11 150.74,130.0 149.65,130.0 148.57,130.0 147.68,129.11 147.68,128.03 147.68,126.94 148.57,126.06 149.65,126.06 z M 153.43,131.9 C 153.32,132.05 153.21,132.21 153.12,132.37 153.0,132.59 152.9,132.82 152.81,133.06 152.61,133.55 152.46,134.09 152.37,134.62 152.35,134.77 152.39,134.84 152.53,134.9 152.73,135.0 152.95,135.12 153.15,135.21 151.81,137.13 151.63,139.62 152.68,141.71 152.33,141.96 151.97,142.22 151.62,142.46 149.94,139.81 149.81,136.43 151.28,133.65 150.94,133.53 150.61,133.43 150.28,133.31 150.56,132.55 150.53,132.16 151.5,132.06 152.14,131.99 152.8,132.0 153.43,131.9 z M 154.31,156.25 C 154.76,157.96 154.72,159.8 154.22,161.5 154.22,161.51 154.21,161.54 154.22,161.56 154.56,161.79 154.9,162.01 155.25,162.25 155.05,162.55 154.88,162.89 154.53,163.03 154.25,163.1 153.96,163.01 153.68,162.96 152.82,162.77 151.91,162.63 151.03,162.78 150.91,162.79 150.76,162.82 150.65,162.81 150.78,162.18 150.91,161.56 151.03,160.93 152.1,159.36 153.22,157.81 154.31,156.25 z" id="shape" style="stroke:none;fill:#ff0" transform="matrix(-1 0 0 1 300 0)"/>
		<!-- Text -->
		<text dy="0" style="stroke:none;fill:#f00;font-family:'Eras Medium ITC';text-anchor:middle;font-size:6.5px;letter-spacing:0.1" transform="matrix(1 0 0 1 150 165)">
			
		</text>
		
		<!-- Prism Reference -->
		<cam mingh:cam="--verb EditSelectAll --verb SelectionUnGroup --verb EditDeselect --select=txtOne --verb SelectionUnion --verb EditDeselect --verb EditSelectAll --verb SelectionUnGroup --verb EditDeselect --verb EditSelectAll --verb ZoomSelection --verb SelectionGroup  --verb FileSave "/> 
	 </g>

</svg>
