<svg
   xmlns:xlink="http://www.w3.org/1999/xlink"
   xmlns:svg="http://www.w3.org/2000/svg"
   xmlns="http://www.w3.org/2000/svg"
   xmlns:mingh="http://www.minghworld.com"
   width="300px"
   height="300px" >
	 <g>
		<!-- Paths -->
		<path transform="matrix(-1 0 0 1 300 0)" style="fill:#ff0;stroke:none;"
		 d="M 144.41,128.94 C 143.77,128.99 143.12,129.2 142.53,129.59 C 140.37,131.05 140.21,134.15 142.22,135.81 C 143.19,136.62 144.5,136.92 145.72,136.59 C 145.79,136.58 145.87,136.55 145.94,136.53 C 145.97,136.52 146.0,136.51 146.03,136.5 C 146.05,136.49 146.08,136.47 146.09,136.47 C 146.11,136.46 146.09,136.49 146.09,136.5 C 146.09,136.51 146.09,136.52 146.09,136.53 C 146.09,136.77 146.09,136.99 146.13,137.22 C 146.2,137.8 146.37,138.36 146.56,138.91 C 147.04,140.27 147.72,141.49 148.5,142.69 C 148.2,143.81 148.22,144.99 148.59,146.09 C 148.78,146.65 149.06,147.18 149.41,147.66 C 149.57,147.89 149.74,148.08 149.94,148.28 C 149.95,148.29 149.96,148.3 149.97,148.31 L 149.97,148.34 C 149.96,148.35 149.94,148.37 149.94,148.38 C 149.93,148.39 149.95,148.39 149.94,148.41 C 149.9,148.45 149.85,148.48 149.81,148.53 C 149.67,148.73 149.54,148.92 149.41,149.13 C 149.11,149.57 148.81,150.03 148.56,150.5 C 148.28,151.02 148.05,151.56 147.81,152.09 C 147.8,152.11 147.79,152.11 147.78,152.13 C 147.78,152.13 147.79,152.15 147.78,152.16 C 147.78,152.16 147.75,152.16 147.75,152.16 C 147.74,152.15 147.73,152.16 147.72,152.16 C 147.7,152.15 147.71,152.13 147.69,152.13 C 147.65,152.11 147.6,152.11 147.56,152.09 C 146.48,151.71 145.06,151.61 143.94,151.72 C 142.69,151.84 141.55,152.14 140.44,152.72 C 139.05,153.44 138.0,154.43 137.25,155.81 C 136.53,157.15 136.23,158.71 136.38,160.22 C 136.52,161.73 137.14,163.14 138.09,164.31 C 139.0,165.43 140.33,166.43 141.78,166.75 C 142.62,166.93 143.44,166.88 144.22,166.5 C 144.37,166.43 144.54,166.44 144.66,166.56 C 144.72,166.63 144.74,166.69 144.75,166.78 C 144.76,166.95 144.73,167.11 144.72,167.28 C 144.71,167.53 144.7,167.78 144.69,168.03 C 144.67,168.53 144.66,169.03 144.66,169.53 C 144.66,169.59 144.66,169.66 144.66,169.72 L 144.66,169.81 C 144.66,169.82 144.67,169.84 144.69,169.84 L 144.72,169.84 L 144.78,169.84 L 145.09,169.84 L 145.69,169.84 C 145.72,169.84 145.78,169.8 145.78,169.84 C 145.78,169.86 145.78,169.89 145.78,169.91 C 145.79,169.94 145.8,169.97 145.81,170.0 C 145.98,170.37 146.46,170.57 146.78,170.69 C 147.47,170.94 148.15,171.03 148.88,171.06 C 149.68,171.1 150.49,171.07 151.28,170.91 C 151.77,170.8 152.34,170.65 152.75,170.31 C 152.87,170.21 152.98,170.1 153.03,169.94 C 153.04,169.91 153.03,169.88 153.03,169.84 C 153.03,169.81 153.08,169.84 153.09,169.84 L 153.16,169.84 L 153.31,169.84 L 153.91,169.84 L 155.13,169.84 L 155.28,169.84 C 155.3,169.84 155.31,169.84 155.31,169.84 C 155.31,169.85 155.31,169.87 155.31,169.88 C 155.32,169.91 155.33,169.94 155.34,169.97 C 155.37,170.04 155.39,170.1 155.44,170.16 C 155.62,170.38 155.84,170.48 156.09,170.59 C 156.48,170.76 156.9,170.86 157.31,170.94 C 158.31,171.11 159.47,171.13 160.47,170.97 C 160.89,170.9 161.29,170.79 161.69,170.63 C 161.95,170.52 162.21,170.41 162.41,170.19 C 162.47,170.11 162.5,170.03 162.53,169.94 C 162.54,169.92 162.56,169.9 162.56,169.88 C 162.57,169.85 162.56,169.84 162.59,169.84 L 163.0,169.84 L 163.38,169.84 L 163.59,169.84 L 163.63,169.84 L 163.66,169.84 C 163.67,169.84 163.66,169.82 163.66,169.81 C 163.66,169.79 163.66,169.77 163.66,169.75 C 163.66,169.71 163.66,169.67 163.66,169.63 C 163.65,169.3 163.66,168.98 163.66,168.66 C 163.59,165.95 163.35,163.29 162.91,160.63 C 162.48,158.03 161.89,155.52 160.94,153.06 C 160.54,152.04 160.08,151.05 159.53,150.09 C 159.3,149.68 159.06,149.29 158.78,148.91 C 158.66,148.73 158.51,148.55 158.38,148.38 C 158.36,148.36 158.35,148.34 158.38,148.31 C 158.39,148.3 158.4,148.29 158.41,148.28 C 158.77,147.9 159.09,147.47 159.34,147.0 C 159.86,146.05 160.09,144.99 160.03,143.91 C 160.02,143.59 159.97,143.28 159.91,142.97 C 159.89,142.89 159.89,142.82 159.88,142.75 C 159.87,142.73 159.85,142.71 159.84,142.69 C 159.84,142.66 159.93,142.55 159.94,142.53 C 160.02,142.4 160.11,142.29 160.19,142.16 C 160.51,141.63 160.82,141.09 161.09,140.53 C 161.57,139.56 161.96,138.58 162.16,137.5 C 162.27,136.87 162.34,136.09 162.03,135.47 C 161.4,134.19 159.75,134.8 158.84,135.28 C 157.85,135.81 157.01,136.49 156.19,137.25 C 155.96,137.46 155.72,137.65 155.5,137.88 C 155.39,137.99 155.29,138.11 155.19,138.22 C 155.16,138.25 155.12,138.28 155.09,138.31 C 155.08,138.33 155.08,138.33 155.06,138.34 C 155.06,138.35 155.07,138.37 155.06,138.38 C 155.06,138.38 155.04,138.41 155.03,138.41 C 155.01,138.4 154.99,138.38 154.97,138.38 C 154.81,138.35 154.66,138.35 154.5,138.34 C 154.3,138.33 154.11,138.33 153.91,138.34 C 153.81,138.35 153.69,138.33 153.59,138.34 C 153.54,138.35 153.49,138.37 153.44,138.38 C 153.41,138.38 153.4,138.37 153.38,138.38 C 153.37,138.38 153.32,138.38 153.31,138.38 C 152.35,137.33 151.17,136.27 149.94,135.53 C 149.46,135.24 148.98,135.0 148.44,134.84 C 148.33,134.81 148.23,134.77 148.13,134.75 C 148.08,134.74 148.11,134.71 148.13,134.69 C 148.14,134.65 148.17,134.6 148.19,134.56 C 148.26,134.42 148.32,134.3 148.38,134.16 C 148.61,133.5 148.67,132.87 148.56,132.19 C 148.22,130.08 146.33,128.79 144.41,128.94 z M 144.69,130.88 C 144.82,130.87 144.97,130.88 145.09,130.91 C 145.34,130.96 145.57,131.05 145.78,131.19 C 145.99,131.33 146.17,131.51 146.31,131.72 C 146.46,131.93 146.57,132.19 146.63,132.44 C 146.68,132.69 146.67,132.94 146.63,133.19 C 146.58,133.44 146.48,133.69 146.34,133.91 C 146.2,134.12 146.02,134.29 145.81,134.44 C 145.6,134.58 145.34,134.67 145.09,134.72 C 144.84,134.77 144.59,134.77 144.34,134.72 C 144.09,134.67 143.84,134.58 143.63,134.44 C 143.41,134.3 143.24,134.12 143.09,133.91 C 142.95,133.69 142.86,133.47 142.81,133.22 C 142.76,132.97 142.73,132.69 142.78,132.44 C 142.83,132.19 142.95,131.96 143.09,131.75 C 143.23,131.54 143.41,131.36 143.63,131.22 C 143.84,131.08 144.06,130.96 144.31,130.91 C 144.44,130.88 144.56,130.88 144.69,130.88 z M 143.81,155.22 C 144.08,155.23 144.36,155.27 144.59,155.34 C 144.94,155.46 145.23,155.62 145.53,155.81 C 145.68,155.91 145.84,156.01 146.0,156.09 C 146.08,156.14 146.14,156.18 146.22,156.22 C 146.26,156.24 146.3,156.27 146.34,156.28 C 146.34,156.31 146.35,156.35 146.34,156.38 C 146.33,156.43 146.29,156.45 146.28,156.5 C 146.25,156.6 146.25,156.71 146.22,156.81 C 146.17,157.02 146.11,157.23 146.06,157.44 C 145.56,159.54 145.23,161.67 145.0,163.81 C 144.98,164.04 144.81,164.1 144.63,164.16 C 144.49,164.2 144.36,164.22 144.22,164.25 C 143.96,164.3 143.7,164.31 143.44,164.28 C 142.93,164.23 142.48,164.07 142.03,163.84 C 141.0,163.33 140.32,162.6 139.91,161.53 C 139.52,160.54 139.4,159.39 139.66,158.34 C 139.91,157.29 140.53,156.35 141.47,155.78 C 142.08,155.41 143.0,155.19 143.81,155.22 z" />

		<text id="txtTwo" transform="matrix(1 0 0 1 150 160)" style="stroke:none;fill:#f00;font-family:'Eras Medium ITC';font-size:20px;text-anchor:middle"  >

		</text>
		<!-- Prism Reference -->
		<cam mingh:cam=" --verb EditSelectAll --verb ZoomSelection --verb FileSave "/> 
	 </g>

</svg>