<svg 
	xmlns="http://www.w3.org/2000/svg" 
	xmlns:mingh="http://www.minghworld.com" 
	xmlns:svg="http://www.w3.org/2000/svg"
	xmlns:xlink="http://www.w3.org/1999/xlink" 
	height="300px" 
	width="300px" >
 
	<defs>
		<path d="M 143.22,158.85 C 143.36,158.17 143.51,157.47 143.65,156.76 143.68,156.58 143.51,156.44 143.33,156.51 141.41,157.71 139.5,158.92 137.59,160.12 137.09,160.41 136.95,161.01 137.27,161.47 137.55,161.93 138.15,162.07 138.62,161.79 140.19,160.82 141.57,159.96 143.12,158.99 143.19,158.95 143.19,158.92 143.22,158.85 z M 140.92,162.07 C 141.73,162.64 142.55,163.21 143.36,163.77 143.26,164.16 143.19,164.55 143.12,164.94 143.01,165.47 143.33,166.01 143.86,166.11 144.43,166.22 144.92,165.9 145.06,165.33 145.7,162.32 146.34,159.27 146.98,156.26 147.15,155.38 146.2,154.74 145.45,155.2 145.35,155.27 145.24,155.34 145.1,155.41 144.64,157.61 144.18,159.8 143.72,162.04 143.26,161.68 142.76,161.36 142.3,161.01 142.19,160.97 142.12,160.97 142.05,161.01 141.7,161.26 141.31,161.47 140.92,161.72 140.81,161.79 140.81,161.97 140.92,162.07 z" id="A" style="fill:none;stroke:#000;stroke-width:0.25px"/>
	
		<path d="M 144.45,156.22 C 144.84,155.9 145.14,155.46 145.3,154.98 145.32,154.89 145.34,154.77 145.27,154.69 144.85,154.4 144.42,154.1 144.0,153.8 143.55,153.49 142.93,153.6 142.62,154.05 140.98,156.38 139.35,158.72 137.71,161.05 137.4,161.5 137.51,162.12 137.96,162.43 138.38,162.73 138.8,163.03 139.23,163.32 139.34,163.37 139.46,163.29 139.55,163.22 139.94,162.9 140.23,162.46 140.39,161.99 140.42,161.89 140.44,161.77 140.37,161.7 140.21,161.59 140.06,161.48 139.91,161.38 140.4,160.68 140.88,159.99 141.37,159.3 141.52,159.4 141.67,159.51 141.82,159.61 141.94,159.66 142.06,159.58 142.14,159.51 142.53,159.2 142.82,158.76 142.98,158.29 143.01,158.2 143.03,158.08 142.95,158.0 142.8,157.89 142.65,157.79 142.5,157.68 142.5,157.68 143.34,156.48 143.67,156.0 143.83,156.11 143.98,156.22 144.13,156.32 144.25,156.37 144.36,156.29 144.45,156.22 z M 144.07,159.1 C 143.69,159.43 143.4,159.85 143.22,160.32 143.2,160.41 143.17,160.52 143.23,160.6 143.66,160.9 144.1,161.19 144.51,161.51 144.84,161.79 145.14,162.14 145.24,162.57 145.32,162.99 145.05,163.4 144.73,163.64 144.5,163.82 144.19,163.88 143.9,163.81 143.35,163.69 142.83,163.44 142.38,163.1 142.18,162.96 141.97,162.82 141.77,162.68 141.66,162.64 141.56,162.73 141.47,162.8 141.09,163.13 140.8,163.56 140.62,164.03 140.6,164.12 140.57,164.23 140.63,164.31 140.85,164.46 141.06,164.6 141.27,164.75 142.07,165.31 143.08,165.77 144.08,165.83 145.19,165.9 146.04,165.29 146.66,164.47 147.25,163.61 147.37,162.7 146.97,161.73 147.59,161.6 148.11,161.2 148.47,160.69 148.96,159.89 149.21,158.99 148.82,158.05 148.67,157.69 148.32,157.19 148.08,156.88 147.78,156.52 147.45,156.22 147.06,155.95 146.93,155.86 146.81,155.77 146.68,155.68 146.56,155.64 146.46,155.73 146.38,155.8 145.99,156.13 145.71,156.56 145.53,157.03 145.5,157.12 145.47,157.23 145.54,157.31 145.95,157.59 146.38,157.89 146.66,158.32 146.83,158.57 147.02,158.86 146.98,159.18 146.94,159.53 146.65,159.89 146.27,159.88 145.91,159.88 145.58,159.73 145.26,159.58 144.94,159.41 144.66,159.19 144.36,158.98 144.25,158.94 144.15,159.03 144.07,159.1 z" id="B" style="fill:none;stroke:#000;stroke-width:0.25px"/>
	
		<path d="M 140.55,163.42 C 140.95,163.09 141.25,162.64 141.42,162.15 141.44,162.06 141.46,161.94 141.39,161.86 140.72,160.99 140.58,159.76 141.0,158.75 141.31,157.95 141.9,157.23 142.68,156.85 143.4,156.5 144.25,156.43 145.0,156.7 145.1,156.76 145.21,156.68 145.29,156.62 145.57,156.42 145.78,156.13 145.96,155.84 146.08,155.63 146.2,155.42 146.22,155.18 146.22,155.13 146.22,155.07 146.17,155.04 144.68,154.31 142.83,154.41 141.41,155.28 139.86,156.23 138.85,158.0 138.78,159.81 138.74,161.18 139.24,162.57 140.22,163.54 140.34,163.58 140.46,163.5 140.55,163.42 z M 144.74,162.88 C 145.1,162.78 145.51,162.89 145.74,163.19 146.0,163.52 146.08,164.03 145.82,164.39 145.65,164.64 145.37,164.79 145.08,164.86 144.17,165.13 143.19,165.07 142.3,164.78 142.07,164.7 141.84,164.64 141.63,164.51 141.56,164.3 141.7,164.08 141.78,163.89 141.99,163.51 142.26,163.13 142.63,162.89 142.85,162.78 143.08,162.99 143.32,162.99 143.79,163.09 144.29,163.06 144.74,162.88 z M 148.17,156.64 C 148.7,157.33 149.03,158.18 149.12,159.05 149.13,159.42 148.93,159.81 148.57,159.96 148.16,160.14 147.62,160.06 147.34,159.68 147.12,159.41 147.15,159.04 147.04,158.72 146.92,158.33 146.72,157.96 146.43,157.66 146.36,157.45 146.49,157.23 146.58,157.04 146.79,156.66 147.05,156.29 147.42,156.05 147.61,155.91 147.73,156.16 147.86,156.27 147.97,156.39 148.07,156.51 148.17,156.64 z" id="C" style="fill:none;stroke:#000;stroke-width:0.25px"/>

		<path d="M 143.99,153.54 C 143.54,153.23 142.92,153.34 142.61,153.79 140.98,156.12 139.53,158.18 137.7,160.79 137.39,161.24 137.5,161.86 137.95,162.17 138.49,162.56 139.04,162.94 139.58,163.32 139.7,163.37 139.82,163.29 139.9,163.21 140.3,162.9 140.59,162.46 140.75,161.98 140.78,161.89 140.8,161.77 140.72,161.69 140.45,161.5 140.18,161.31 139.9,161.12 141.16,159.32 142.41,157.53 143.67,155.74 143.94,155.93 144.21,156.12 144.49,156.32 144.61,156.36 144.73,156.28 144.82,156.2 145.21,155.88 145.51,155.44 145.66,154.95 145.68,154.87 145.7,154.76 145.63,154.69 145.08,154.31 144.54,153.93 143.99,153.54 z M 144.73,164.86 C 145.99,164.48 147.02,163.68 147.77,162.62 148.51,161.55 148.91,160.31 148.84,158.99 148.76,157.61 148.08,156.56 147.05,155.71 146.93,155.66 146.82,155.75 146.73,155.82 146.33,156.14 146.04,156.58 145.88,157.07 145.86,157.16 145.84,157.27 145.91,157.34 146.42,157.79 146.84,158.41 146.85,159.1 146.93,160.32 146.32,161.52 145.4,162.29 144.86,162.72 144.2,163.05 143.49,163.06 143.03,163.06 142.58,162.89 142.18,162.67 142.05,162.63 141.94,162.71 141.85,162.79 141.45,163.11 141.16,163.55 141.0,164.04 140.98,164.12 140.96,164.23 141.03,164.31 142.18,164.98 143.4,165.26 144.73,164.86 z" id="D" style="fill:none;stroke:#000;stroke-width:0.25px"/>

		<path d="M 145.2,165.7 C 145.12,166.08 144.79,166.4 144.41,166.46 144.15,166.51 143.88,166.44 143.66,166.29 142.58,165.54 141.5,164.78 140.42,164.03 140.26,163.91 140.52,163.42 140.57,163.32 140.7,163.09 140.85,162.89 141.02,162.7 141.12,162.59 141.23,162.5 141.36,162.43 141.5,162.35 141.54,162.39 141.66,162.47 L 144.8,164.67 C 145.12,164.89 145.29,165.32 145.2,165.7 z M 143.85,158.93 C 143.57,159.03 143.28,159.42 143.13,159.64 143.05,159.75 142.64,160.42 142.85,160.56 143.62,161.1 144.4,161.65 145.09,162.13 145.78,162.62 146.63,162.25 146.73,161.51 146.77,161.16 146.64,160.82 146.37,160.6 L 143.98,158.93 C 143.95,158.93 143.88,158.92 143.85,158.93 z M 149.46,157.5 C 148.38,156.74 147.44,156.08 146.47,155.4 146.3,155.28 145.96,155.66 145.88,155.75 145.71,155.93 145.58,156.13 145.46,156.35 145.41,156.45 145.16,156.91 145.32,157.02 146.25,157.67 147.18,158.32 148.1,158.97 148.34,159.13 148.55,159.29 148.86,159.3 149.15,159.31 149.42,159.19 149.62,158.98 150.03,158.54 149.95,157.84 149.46,157.5 z M 139.29,162.94 C 139.57,162.73 139.78,162.44 139.96,162.14 140.07,161.95 140.17,161.75 140.18,161.52 140.18,161.48 140.17,161.43 140.13,161.4 139.96,161.28 139.8,161.17 139.63,161.05 140.06,160.44 140.49,159.82 140.92,159.21 141.08,159.33 141.25,159.44 141.42,159.56 141.52,159.62 141.63,159.53 141.72,159.48 141.99,159.27 142.2,158.99 142.38,158.69 142.49,158.5 142.59,158.3 142.61,158.08 142.61,158.03 142.6,157.97 142.56,157.94 142.39,157.82 142.22,157.7 142.05,157.58 L 142.05,157.58 C 142.5,156.94 142.95,156.31 143.39,155.67 143.56,155.79 143.73,155.91 143.9,156.02 144.0,156.08 144.11,156.0 144.19,155.94 144.47,155.73 144.69,155.44 144.87,155.14 144.97,154.95 145.08,154.74 145.09,154.52 145.09,154.48 145.08,154.43 145.04,154.4 144.62,154.11 144.19,153.8 143.72,153.48 143.27,153.16 142.65,153.27 142.33,153.72 140.7,156.05 139.07,158.39 137.43,160.72 137.12,161.17 137.23,161.79 137.67,162.11 138.12,162.42 138.56,162.73 138.99,163.03 139.1,163.09 139.2,163.0 139.29,162.94 z" id="E" style="fill:none;stroke:#000;stroke-width:0.25px"/>

		<path d="M 141.79,160.57 C 141.66,160.48 141.79,160.19 141.83,160.1 141.94,159.82 142.1,159.59 142.29,159.36 142.42,159.2 142.55,159.06 142.74,158.96 142.79,158.94 142.84,158.92 142.9,158.93 143.63,159.42 144.41,159.98 145.04,160.43 145.25,160.57 145.44,160.69 145.57,160.92 145.79,161.35 145.68,161.86 145.31,162.16 145.11,162.32 144.91,162.39 144.65,162.38 144.41,162.37 144.23,162.28 144.04,162.15 143.25,161.59 142.47,161.04 141.79,160.57 z M 144.41,156.52 C 144.43,156.43 144.46,156.35 144.5,156.27 144.57,156.1 144.67,155.95 144.77,155.8 144.88,155.65 144.99,155.51 145.12,155.38 145.19,155.32 145.26,155.26 145.33,155.21 145.39,155.17 145.51,155.1 145.59,155.15 146.89,156.06 148.18,156.97 149.48,157.88 150.07,158.29 150.04,159.17 149.43,159.54 149.14,159.72 148.79,159.74 148.49,159.59 147.1,158.65 145.69,157.64 144.45,156.78 144.37,156.73 144.4,156.59 144.41,156.52 z M 144.39,154.32 C 142.37,157.17 140.67,159.76 138.83,162.25 138.67,162.47 138.45,162.54 138.18,162.56 137.67,162.59 137.22,162.24 137.13,161.74 137.08,161.46 137.12,161.24 137.29,161.0 138.87,158.74 140.45,156.49 141.96,154.34 142.22,153.96 142.4,153.61 142.95,153.57 143.13,153.56 143.28,153.59 143.44,153.67 143.79,153.88 144.1,154.11 144.39,154.32 z" id="F" style="fill:none;stroke:#000;stroke-width:0.25px"/>

		<path d="M 146.74,159.23 C 146.77,159.48 146.82,159.74 147.0,159.93 147.3,160.31 147.9,160.39 148.3,160.11 148.64,159.89 148.81,159.46 148.73,159.07 148.61,158.19 148.18,157.38 147.59,156.72 147.36,156.46 147.11,156.22 146.83,156.01 146.71,155.96 146.59,156.04 146.51,156.12 146.11,156.44 145.82,156.88 145.66,157.37 145.64,157.46 145.62,157.56 145.69,157.64 146.18,158.05 146.62,158.59 146.74,159.23 z M 140.78,164.33 C 140.88,163.97 141.09,163.66 141.33,163.38 141.47,163.22 141.62,163.06 141.82,162.98 141.86,162.96 141.91,162.96 141.95,162.99 142.59,163.34 143.35,163.47 144.06,163.3 L 144.06,163.3 C 144.3,162.96 144.54,162.62 144.78,162.28 144.21,161.88 143.65,161.49 143.08,161.09 142.63,160.78 142.52,160.16 142.84,159.71 143.15,159.26 143.77,159.15 144.22,159.46 145.05,160.04 145.88,160.62 146.71,161.2 146.76,161.25 146.82,161.29 146.87,161.34 146.92,161.39 146.97,161.44 147.01,161.5 147.1,161.62 147.15,161.77 147.17,161.92 147.18,162.05 147.16,162.19 147.12,162.31 147.08,162.43 147.02,162.54 146.95,162.64 146.48,163.3 146.02,163.97 145.56,164.63 145.48,164.73 145.4,164.83 145.3,164.91 145.18,165.02 145.03,165.09 144.87,165.13 144.12,165.37 143.36,165.42 142.58,165.28 141.94,165.17 141.35,164.95 140.8,164.62 140.72,164.55 140.76,164.42 140.78,164.33 z M 139.98,163.54 C 140.39,163.2 140.7,162.74 140.87,162.24 140.9,162.15 140.92,162.03 140.85,161.95 140.3,161.08 140.23,159.92 140.68,158.98 141.05,158.13 141.76,157.41 142.64,157.11 143.18,156.92 143.77,156.85 144.34,156.96 144.45,157.02 144.56,156.93 144.65,156.87 144.94,156.64 145.16,156.34 145.35,156.02 145.46,155.82 145.57,155.61 145.59,155.38 145.6,155.33 145.59,155.27 145.54,155.25 143.61,154.5 141.28,155.09 139.89,156.62 138.75,157.85 138.15,159.62 138.49,161.29 138.66,162.16 139.06,163.0 139.65,163.66 139.78,163.71 139.89,163.62 139.98,163.54 z" id="G" style="fill:none;stroke:#000;stroke-width:0.25px"/>

		<path d="M 145.01,162.47 143.22,165.03 C 143.03,165.3 142.97,165.62 143.08,165.94 143.31,166.6 144.12,166.83 144.66,166.38 144.8,166.26 145.13,165.77 145.23,165.62 146.77,163.43 148.21,161.36 149.65,159.31 149.84,159.04 149.97,158.79 149.9,158.43 149.77,157.74 148.99,157.4 148.39,157.77 148.16,157.92 147.94,158.29 147.8,158.5 147.25,159.28 146.67,160.1 146.15,160.84 145.14,160.14 144.08,159.39 143.2,158.78 143.13,158.74 143.09,158.77 143.03,158.79 142.83,158.89 142.63,159.11 142.5,159.28 142.33,159.49 142.19,159.72 142.09,159.97 142.05,160.06 141.95,160.33 142.07,160.41 143.1,161.12 144.15,161.86 145.01,162.47 z M 141.8,157.8 143.81,154.92 C 143.95,154.67 143.97,154.45 143.91,154.18 143.78,153.67 143.27,153.35 142.76,153.45 142.49,153.5 142.31,153.61 142.15,153.83 L 137.41,160.59 C 137.27,160.8 137.12,160.98 137.06,161.24 137.01,161.52 137.05,161.74 137.21,161.98 137.5,162.41 138.07,162.55 138.53,162.29 138.76,162.16 138.88,161.96 139.02,161.76 L 140.66,159.42 140.88,159.57 C 140.98,159.59 141.07,159.51 141.15,159.46 141.38,159.31 141.54,159.07 141.7,158.85 141.85,158.63 141.97,158.4 142.03,158.15 142.04,158.07 142.05,157.98 141.98,157.93 141.93,157.89 141.86,157.84 141.8,157.8 z" id="H" style="fill:none;stroke:#000;stroke-width:0.25px"/>

		<path d="M 145.97,157.83 C 146.7,158.34 147.42,158.85 148.15,159.36 148.6,159.67 149.22,159.56 149.53,159.12 149.85,158.67 149.74,158.05 149.29,157.73 147.29,156.34 145.3,154.94 143.31,153.54 142.86,153.23 142.24,153.34 141.92,153.79 141.61,154.24 141.72,154.86 142.17,155.17 142.89,155.68 143.62,156.19 144.34,156.7 143.09,158.49 141.84,160.28 140.58,162.07 139.85,161.56 139.13,161.06 138.4,160.55 137.95,160.23 137.33,160.34 137.02,160.79 136.71,161.24 136.81,161.86 137.26,162.17 139.26,163.57 141.25,164.97 143.25,166.36 143.7,166.68 144.31,166.57 144.63,166.12 144.94,165.67 144.83,165.05 144.38,164.74 143.66,164.23 142.93,163.72 142.21,163.21 143.46,161.42 144.72,159.63 145.97,157.83 z" id="I" style="fill:none;stroke:#000;stroke-width:0.25px"/>

		<path d="M 139.65,159.22 C 139.86,158.8 139.74,158.21 139.32,157.96 139.07,157.79 138.74,157.73 138.45,157.83 138.15,157.92 137.93,158.17 137.8,158.45 137.42,159.18 137.35,160.04 137.54,160.83 137.68,161.41 137.92,161.97 138.27,162.45 138.5,162.5 138.67,162.26 138.82,162.12 139.14,161.77 139.41,161.38 139.56,160.93 139.65,160.74 139.5,160.58 139.48,160.4 139.37,160.0 139.42,159.56 139.65,159.22 z M 139.31,163.23 C 139.41,162.9 139.6,162.61 139.81,162.35 139.96,162.17 140.12,162.0 140.33,161.9 140.38,161.88 140.44,161.86 140.48,161.9 140.61,162.0 140.74,162.09 140.89,162.19 141.42,162.52 141.98,162.69 142.56,162.72 143.3,162.75 143.83,162.53 144.15,162.08 145.02,160.82 145.9,159.57 146.78,158.32 145.95,157.73 145.11,157.15 144.28,156.57 144.05,156.41 143.92,156.19 143.88,155.91 143.84,155.64 143.89,155.4 144.04,155.19 144.2,154.96 144.41,154.82 144.67,154.78 144.95,154.72 145.2,154.77 145.43,154.93 146.49,155.67 147.55,156.41 148.61,157.15 148.85,157.32 149.01,157.55 149.07,157.82 149.16,158.12 149.13,158.39 148.99,158.63 147.91,160.16 146.83,161.7 145.76,163.24 145.14,164.14 144.2,164.63 142.94,164.71 141.86,164.77 140.82,164.49 139.82,163.85 139.65,163.75 139.49,163.64 139.33,163.52 139.26,163.45 139.29,163.33 139.31,163.23 z" id="J" style="fill:none;stroke:#000;stroke-width:0.25px"/>

		<path d="M 142.95,158.21 C 142.46,158.92 141.96,159.62 141.47,160.33 141.36,160.49 141.34,160.62 141.4,160.8 141.96,162.53 142.52,164.26 143.08,165.99 143.24,166.51 143.8,166.8 144.33,166.63 144.85,166.46 145.13,165.9 144.97,165.38 144.45,163.8 143.94,162.22 143.43,160.64 143.32,160.31 143.57,159.96 143.92,159.95 145.58,159.89 147.23,159.83 148.89,159.77 149.44,159.75 149.87,159.29 149.85,158.74 149.83,158.19 149.37,157.76 148.82,157.78 147.0,157.85 145.19,157.92 143.37,157.98 143.14,157.99 143.04,158.09 142.95,158.21 z M 142.13,153.92 C 142.44,153.48 143.06,153.37 143.51,153.68 143.96,154.0 144.07,154.61 143.76,155.06 142.12,157.4 140.49,159.73 138.85,162.07 138.54,162.52 137.92,162.63 137.47,162.31 137.02,162.0 136.91,161.38 137.23,160.93 138.86,158.59 140.49,156.26 142.13,153.92 z" id="K" style="fill:none;stroke:#000;stroke-width:0.25px"/>

		<path d="M 141.7,163.15 C 141.5,163.3 141.35,163.51 141.2,163.71 141.06,163.92 140.93,164.15 140.86,164.4 140.85,164.44 140.85,164.49 140.85,164.53 140.84,164.61 140.88,164.65 140.94,164.7 141.68,165.22 142.42,165.73 143.15,166.25 L 143.15,166.25 C 144.03,166.86 145.13,165.84 144.57,164.93 144.44,164.7 144.23,164.58 144.03,164.44 143.34,163.96 142.67,163.49 142.03,163.04 141.92,163.04 141.78,163.1 141.7,163.15 z M 139.99,163.71 C 140.29,163.48 140.51,163.16 140.7,162.83 140.78,162.67 140.86,162.49 140.86,162.31 140.86,162.27 140.85,162.22 140.82,162.19 140.64,162.06 140.45,161.93 140.28,161.81 141.62,159.9 144.36,155.99 144.36,155.99 144.5,155.78 144.68,155.59 144.75,155.33 144.91,154.79 144.59,154.23 144.05,154.09 143.78,154.02 143.5,154.07 143.26,154.22 143.03,154.36 142.91,154.59 142.77,154.8 141.25,156.96 139.6,159.32 138.24,161.26 138.09,161.47 137.94,161.66 137.91,161.94 137.88,162.22 137.96,162.49 138.14,162.7 138.65,163.12 139.18,163.47 139.68,163.82 139.79,163.86 139.9,163.78 139.99,163.71 z" id="L" style="fill:none;stroke:#000;stroke-width:0.25px"/>

		<path d="M 144.06,161.69 C 144.65,160.86 145.23,160.02 145.82,159.18 145.94,159.01 145.75,158.78 145.56,158.87 144.9,159.17 144.25,159.46 143.59,159.76 143.73,157.93 143.86,156.11 144.0,154.28 144.07,153.28 142.77,152.83 142.2,153.65 142.15,153.72 142.09,153.8 142.04,153.87 141.94,155.17 141.85,156.46 141.75,157.75 141.66,158.93 141.57,160.1 141.48,161.28 141.43,162.03 142.2,162.57 142.88,162.26 z M 140.41,159.67 C 139.91,160.38 139.42,161.08 138.92,161.79 138.61,162.24 137.99,162.35 137.54,162.04 137.09,161.72 136.98,161.1 137.29,160.65 138.29,159.23 139.29,157.8 140.29,156.37 140.42,156.19 140.69,156.29 140.68,156.51 140.6,157.53 140.52,158.54 140.45,159.56 140.44,159.6 140.42,159.63 140.41,159.67 z M 148.6,157.5 C 149.51,157.1 150.38,158.16 149.81,158.98 148.17,161.31 146.54,163.65 144.9,165.98 144.59,166.43 143.97,166.54 143.52,166.23 143.07,165.91 142.96,165.29 143.28,164.84 L 148.34,157.62 C 148.42,157.58 148.51,157.54 148.6,157.5 z" id="M" style="fill:none;stroke:#000;stroke-width:0.25px"/>

		<path d="M 145.11,165.41 C 145.04,165.51 144.97,165.61 144.9,165.71 144.37,166.46 143.19,166.15 143.1,165.23 142.7,161.08 141.99,153.68 141.99,153.68 142.06,153.58 142.13,153.48 142.2,153.38 142.73,152.62 143.91,152.93 144.0,153.85 z M 141.21,158.25 C 140.45,159.34 139.68,160.43 138.92,161.52 138.61,161.97 137.99,162.08 137.54,161.76 137.09,161.45 136.98,160.83 137.29,160.38 138.41,158.79 139.52,157.2 140.63,155.61 140.74,155.45 141.0,155.52 141.02,155.71 141.09,156.51 141.17,157.31 141.25,158.11 141.24,158.16 141.22,158.2 141.21,158.25 z M 145.85,160.97 C 145.85,160.92 145.86,160.88 145.89,160.83 146.65,159.74 147.42,158.65 148.18,157.56 148.49,157.12 149.11,157.01 149.56,157.32 150.01,157.64 150.12,158.25 149.81,158.7 148.69,160.29 147.58,161.88 146.47,163.47 146.36,163.63 146.12,163.6 146.1,163.4 146.0,162.56 145.92,161.7 145.85,160.97 z" id="N" style="fill:none;stroke:#000;stroke-width:0.25px"/>

		<path d="M 138.8,158.93 C 139.29,157.19 140.46,155.56 142.15,154.82 143.39,154.24 144.88,154.26 146.08,154.92 146.19,155.04 146.1,155.22 146.06,155.35 145.89,155.77 145.61,156.14 145.28,156.44 145.18,156.51 145.05,156.62 144.93,156.56 144.28,156.29 143.53,156.35 142.9,156.66 141.94,157.1 141.28,158.0 140.88,158.96 140.58,159.68 140.51,160.53 140.85,161.25 140.94,161.47 141.08,161.67 141.23,161.84 141.32,161.92 141.28,162.05 141.25,162.15 141.15,162.49 140.95,162.79 140.73,163.06 140.58,163.23 140.43,163.4 140.23,163.49 140.18,163.51 140.13,163.53 140.08,163.49 138.81,162.38 138.35,160.53 138.8,158.93 z M 141.93,162.56 C 141.68,162.73 141.49,162.97 141.32,163.22 141.17,163.44 141.03,163.69 140.98,163.96 140.97,164.03 140.96,164.11 141.02,164.16 142.61,165.01 144.65,164.68 146.02,163.57 147.41,162.49 148.44,160.84 148.46,159.05 148.48,157.76 147.98,156.47 147.02,155.59 146.87,155.53 146.74,155.68 146.62,155.76 146.28,156.07 146.02,156.46 145.86,156.88 145.83,156.99 145.77,157.15 145.86,157.25 146.55,158.05 146.63,159.24 146.22,160.19 145.9,160.96 145.34,161.61 144.67,162.11 143.97,162.61 143.0,162.82 142.18,162.5 M 142.18,162.5 C 142.1,162.45 141.98,162.52 141.93,162.56" id="O" style="fill:none;stroke:#000;stroke-width:0.25px"/>

		<path d="M 145.46,156.75 C 145.56,156.42 145.76,156.12 145.98,155.84 146.13,155.68 146.28,155.51 146.49,155.42 146.53,155.41 146.58,155.4 146.62,155.43 147.56,156.09 148.5,156.91 148.92,158.06 149.33,159.2 149.19,160.46 148.51,161.46 147.81,162.49 146.72,163.05 145.48,163.01 144.27,162.98 143.16,162.34 142.24,161.69 142.15,161.62 142.19,161.49 142.21,161.39 142.31,161.06 142.51,160.76 142.73,160.49 142.87,160.33 143.02,160.16 143.22,160.07 143.27,160.05 143.33,160.04 143.37,160.07 143.96,160.48 144.61,160.88 145.33,161.01 145.87,161.09 146.48,160.9 146.8,160.43 147.13,160.03 147.22,159.49 147.12,158.99 147.0,158.39 146.56,157.93 146.12,157.54 145.92,157.37 145.7,157.21 145.48,157.06 145.39,156.98 145.44,156.85 145.46,156.75 z M 141.08,160.62 C 141.38,160.39 141.61,160.08 141.79,159.76 141.89,159.57 141.99,159.38 141.99,159.17 141.99,159.13 141.97,159.08 141.94,159.06 L 141.49,158.75 C 141.49,158.75 142.89,156.74 143.6,155.74 143.75,155.84 143.9,155.95 144.04,156.05 144.15,156.11 144.25,156.02 144.34,155.97 144.62,155.76 144.83,155.48 145.01,155.18 145.11,154.99 145.22,154.79 145.24,154.57 145.24,154.52 145.23,154.46 145.18,154.43 144.76,154.13 144.34,153.84 143.92,153.54 143.47,153.23 142.85,153.34 142.54,153.79 140.8,156.27 139.29,158.43 137.74,160.64 137.65,160.77 137.56,160.88 137.51,161.03 137.3,161.63 137.69,162.26 138.32,162.34 138.62,162.39 138.92,162.29 139.14,162.08 139.57,161.51 139.98,160.91 140.35,160.38 L 140.8,160.69 C 140.9,160.74 141.0,160.67 141.08,160.62 z" id="P" style="fill:none;stroke:#000;stroke-width:0.25px"/>

		<path d="M 138.9,158.61 C 139.48,156.9 140.71,155.32 142.43,154.66 143.52,154.23 144.76,154.28 145.82,154.77 145.93,154.9 145.83,155.08 145.79,155.22 145.62,155.64 145.34,156.02 145.0,156.32 144.9,156.39 144.77,156.51 144.64,156.45 143.94,156.23 143.16,156.42 142.55,156.82 141.69,157.38 141.11,158.29 140.78,159.25 140.52,160.02 140.57,160.92 141.04,161.6 141.15,161.74 141.05,161.92 141.0,162.07 140.82,162.5 140.53,162.88 140.18,163.18 140.09,163.24 139.97,163.34 139.86,163.28 138.67,162.08 138.34,160.19 138.9,158.61 z M 141.3,164.28 C 141.21,164.2 141.26,164.06 141.29,163.96 141.4,163.6 141.62,163.28 141.86,162.99 142.0,162.83 142.16,162.67 142.36,162.57 142.55,162.6 142.67,162.62 142.89,162.63 142.87,162.4 142.85,162.17 142.83,161.95 142.79,161.4 143.19,160.92 143.74,160.88 144.29,160.83 144.77,161.24 144.81,161.79 144.82,161.86 144.82,161.93 144.83,162.01 145.68,161.31 146.37,160.32 146.44,159.19 146.48,158.61 146.37,158.0 146.05,157.5 145.93,157.37 146.04,157.19 146.08,157.05 146.26,156.62 146.54,156.24 146.88,155.94 146.98,155.87 147.11,155.75 147.24,155.8 148.11,156.74 148.52,158.04 148.42,159.31 148.33,160.91 147.45,162.37 146.26,163.4 145.89,163.72 145.47,164.0 145.01,164.18 145.03,164.47 145.05,164.77 145.08,165.06 145.12,165.6 144.72,166.08 144.17,166.13 143.62,166.17 143.14,165.77 143.1,165.22 143.08,165.02 143.07,164.82 143.05,164.62 142.69,164.62 142.33,164.58 141.97,164.5 141.74,164.44 141.52,164.37 141.3,164.28" id="Q" style="fill:none;stroke:#000;stroke-width:0.25px"/>

		<path d="M 147.0,155.7 C 147.68,156.18 148.4,156.88 148.81,157.64 149.22,158.42 149.36,159.37 149.12,160.23 148.9,161.05 148.3,161.88 147.56,162.32 146.74,162.81 145.86,162.85 144.97,162.6 145.12,163.53 145.27,164.46 145.41,165.4 145.5,165.94 145.13,166.45 144.59,166.53 144.04,166.62 143.54,166.24 143.45,165.7 143.21,164.19 142.98,162.67 142.74,161.16 142.86,160.65 143.18,160.27 143.5,159.96 143.57,159.89 143.79,159.68 143.92,159.77 144.3,160.04 144.67,160.32 145.06,160.56 145.52,160.81 146.14,160.89 146.6,160.58 146.9,160.35 147.14,160.01 147.23,159.64 147.33,159.12 147.13,158.59 146.8,158.19 146.49,157.81 146.11,157.49 145.71,157.22 145.62,157.14 145.66,157.01 145.68,156.91 145.79,156.58 145.98,156.28 146.2,156.02 146.34,155.85 146.49,155.68 146.69,155.59 146.74,155.57 146.8,155.56 146.85,155.59 146.9,155.62 146.95,155.66 147.0,155.7 z M 145.6,155.16 C 145.44,155.58 145.16,155.95 144.83,156.24 144.73,156.31 144.6,156.41 144.48,156.36 144.19,156.15 143.89,155.95 143.6,155.74 143.0,156.59 142.4,157.45 141.81,158.3 142.1,158.5 142.4,158.71 142.69,158.92 142.8,159.04 142.72,159.21 142.67,159.34 142.51,159.76 142.23,160.13 141.9,160.42 141.8,160.49 141.67,160.6 141.55,160.54 141.26,160.34 140.96,160.13 140.67,159.92 140.2,160.59 139.73,161.26 139.26,161.93 138.95,162.38 138.32,162.49 137.87,162.17 137.42,161.84 137.32,161.22 137.65,160.77 L 137.65,160.77 C 139.28,158.44 140.91,156.12 142.54,153.79 142.85,153.34 143.47,153.23 143.92,153.54 144.49,153.94 145.06,154.34 145.62,154.73 145.73,154.86 145.65,155.02 145.6,155.16 z" id="R" style="fill:none;stroke:#000;stroke-width:0.25px"/>

		<path d="M 142.25,154.15 C 141.03,154.58 140.22,155.96 140.49,157.24 140.68,158.32 141.52,159.13 142.35,159.76 143.13,160.37 143.89,161.0 144.53,161.76 144.78,162.04 144.84,162.51 144.53,162.77 144.02,163.2 143.3,163.02 142.75,162.79 142.63,162.74 142.51,162.69 142.39,162.63 142.26,162.58 142.12,162.66 142.01,162.73 141.71,162.93 141.48,163.23 141.32,163.55 141.24,163.73 141.16,163.93 141.17,164.13 141.18,164.2 141.22,164.27 141.28,164.31 142.21,164.77 143.25,165.15 144.3,165.0 145.55,164.82 146.63,163.75 146.72,162.47 146.81,161.44 146.17,160.52 145.46,159.83 144.69,159.08 143.87,158.4 143.03,157.75 142.67,157.44 142.28,156.92 142.52,156.43 142.72,155.99 143.26,155.87 143.69,156.0 143.98,156.07 144.26,156.18 144.52,156.3 144.78,156.34 144.98,156.14 145.15,155.98 145.42,155.7 145.64,155.34 145.71,154.96 145.72,154.84 145.72,154.71 145.62,154.64 144.6,154.1 143.37,153.72 142.25,154.15 z M 139.63,163.16 C 139.85,163.29 140.08,163.08 140.24,162.95 140.56,162.64 140.83,162.25 140.9,161.81 140.95,161.57 140.72,161.44 140.59,161.28 140.32,161.0 140.01,160.68 140.01,160.26 139.98,159.85 140.11,159.37 139.83,159.02 139.52,158.6 138.87,158.5 138.45,158.82 138.03,159.14 137.91,159.72 137.95,160.23 138.01,161.11 138.48,161.91 139.05,162.56 139.24,162.77 139.43,162.97 139.63,163.16 z M 147.25,155.78 C 147.04,155.64 146.81,155.84 146.65,155.97 146.33,156.27 146.07,156.66 146.0,157.09 145.94,157.35 146.2,157.48 146.33,157.66 146.65,158.0 146.92,158.46 146.83,158.94 146.78,159.24 146.79,159.56 146.98,159.81 147.25,160.24 147.87,160.38 148.3,160.11 148.6,159.95 148.77,159.62 148.8,159.28 148.95,158.34 148.65,157.36 148.05,156.62 147.81,156.31 147.54,156.04 147.25,155.78 z" id="S" style="fill:none;stroke:#000;stroke-width:0.25px"/>

		<path d="M 148.0,156.22 148.0,156.22 M 148.42,158.95 C 148.87,159.26 149.49,159.15 149.81,158.7 150.12,158.25 150.01,157.64 149.56,157.32 149.04,156.96 148.52,156.59 148.0,156.22 147.88,156.18 147.77,156.26 147.68,156.33 147.3,156.63 147.03,157.04 146.85,157.49 146.82,157.6 146.78,157.76 146.85,157.84 147.38,158.22 147.9,158.58 148.42,158.95 z M 144.4,155.69 C 144.74,155.39 145.0,155.0 145.15,154.59 145.18,154.48 145.24,154.32 145.15,154.23 144.6,153.84 144.03,153.45 143.58,153.13 143.13,152.82 142.51,152.93 142.2,153.38 141.88,153.83 141.99,154.44 142.44,154.76 142.96,155.12 143.49,155.49 144.01,155.86 144.16,155.92 144.29,155.77 144.4,155.69 z M 141.91,163.61 C 141.6,164.06 140.98,164.17 140.53,163.86 140.08,163.54 139.97,162.92 140.28,162.47 142.05,159.95 143.63,157.7 145.19,155.47 145.29,155.32 145.41,155.18 145.54,155.05 145.6,154.99 145.67,154.93 145.75,154.88 145.81,154.85 145.93,154.78 146.0,154.83 146.38,155.09 146.76,155.36 147.14,155.63 147.21,155.68 147.19,155.82 147.18,155.88 147.16,155.97 147.12,156.06 147.09,156.14 147.01,156.31 146.92,156.46 146.82,156.61 145.21,158.9 143.55,161.27 141.91,163.61 z" id="T" style="fill:none;stroke:#000;stroke-width:0.25px"/>

		<path d="M 147.0,162.72 C 146.08,164.03 144.55,164.77 142.95,164.69 142.87,164.63 142.94,164.44 142.96,164.38 143.0,164.28 143.04,164.18 143.09,164.08 143.19,163.88 143.3,163.7 143.42,163.51 143.66,163.14 143.91,162.8 144.24,162.5 144.72,162.29 145.07,162.01 145.37,161.58 146.31,160.24 147.24,158.9 148.18,157.57 148.49,157.12 149.11,157.01 149.56,157.32 150.01,157.64 150.13,158.23 149.82,158.68 148.84,160.09 147.84,161.52 147.0,162.72 z M 141.63,163.97 C 141.93,163.72 142.21,163.23 142.34,162.82 142.35,162.75 142.38,162.61 142.3,162.56 140.65,161.97 140.01,159.97 141.01,158.53 141.95,157.19 142.89,155.85 143.82,154.52 144.14,154.07 144.03,153.45 143.58,153.13 143.13,152.82 142.51,152.93 142.2,153.38 141.26,154.71 140.32,156.05 139.39,157.39 137.75,159.73 138.55,162.97 141.12,164.22 141.33,164.3 141.49,164.08 141.63,163.97 z" id="U" style="fill:none;stroke:#000;stroke-width:0.25px"/>

		<path d="M 143.9,160.21 C 143.75,160.92 143.6,161.62 143.45,162.33 143.41,162.51 143.61,162.65 143.77,162.55 145.69,161.36 147.6,160.17 149.52,158.98 149.98,158.69 150.13,158.08 149.84,157.61 149.55,157.14 148.93,157.0 148.47,157.29 L 143.99,160.07 z M 142.0,163.57 143.98,154.15 C 144.1,153.61 143.75,153.09 143.22,152.97 142.68,152.86 142.15,153.2 142.04,153.74 141.4,156.77 140.76,159.81 140.13,162.84 139.95,163.7 140.88,164.35 141.62,163.89 141.62,163.89 141.9,163.7 142.0,163.57 z" id="V" style="fill:none;stroke:#000;stroke-width:0.25px"/>

		<path d="M 139.96,162.52 C 140.01,162.48 140.06,162.43 140.11,162.38 141.33,159.67 142.55,156.96 143.77,154.25 144.0,153.75 143.77,153.16 143.27,152.94 142.77,152.71 142.19,152.94 141.96,153.44 140.77,156.08 139.58,158.73 138.39,161.37 137.95,162.35 139.15,163.24 139.96,162.52 z M 142.54,159.79 C 142.4,160.08 142.71,160.31 142.94,160.09 143.14,159.92 143.34,159.74 143.53,159.57 142.97,160.99 142.4,162.42 141.83,163.84 141.44,164.83 142.68,165.66 143.45,164.92 143.5,164.87 143.55,164.82 143.6,164.77 144.71,161.98 145.82,159.19 146.93,156.41 147.31,155.43 146.12,154.6 145.34,155.3 144.91,155.69 144.47,156.08 144.03,156.46 143.53,157.57 143.03,158.68 142.54,159.79 z M 145.9,162.08 C 145.77,162.39 146.09,162.6 146.32,162.36 147.49,161.22 148.66,160.09 149.83,158.95 150.22,158.56 150.23,157.94 149.85,157.54 149.47,157.15 148.84,157.14 148.44,157.52 L 147.25,158.69 z" id="W" style="fill:none;stroke:#000;stroke-width:0.25px"/>

		<path d="M 145.08,165.04 C 145.13,165.59 144.73,166.07 144.18,166.13 143.64,166.18 143.15,165.78 143.1,165.23 L 142.02,154.04 C 141.97,153.5 142.37,153.01 142.92,152.96 143.46,152.9 143.95,153.3 144.0,153.85 z M 141.52,160.91 C 141.47,160.38 141.41,159.86 141.36,159.33 141.35,159.2 141.23,159.12 141.1,159.15 140.02,159.43 138.94,159.71 137.86,159.99 137.33,160.13 137.01,160.67 137.15,161.2 137.28,161.73 137.82,162.05 138.36,161.91 139.36,161.65 140.36,161.39 141.36,161.13 141.46,161.11 141.53,161.01 141.52,160.91 z M 146.0,159.93 C 147.08,159.65 148.16,159.38 149.24,159.1 149.77,158.96 150.09,158.42 149.95,157.89 149.82,157.36 149.28,157.04 148.74,157.17 147.74,157.43 146.74,157.69 145.74,157.95 145.64,157.98 145.57,158.07 145.58,158.17 145.63,158.7 145.69,159.22 145.74,159.75 145.75,159.88 145.87,159.97 146.0,159.93 z" id="X" style="fill:none;stroke:#000;stroke-width:0.25px"/>

		<path d="M 144.64,160.46 C 144.77,159.94 144.75,159.39 144.59,158.88 144.56,158.79 144.51,158.69 144.41,158.67 144.3,158.71 144.19,158.74 144.08,158.78 144.06,157.09 144.03,155.38 144.0,153.94 144.0,153.39 143.55,152.94 143.0,152.95 142.44,152.96 142.01,153.42 142.02,153.97 142.05,155.93 142.08,157.9 142.11,159.86 141.5,160.73 140.89,161.6 140.28,162.47 139.97,162.92 140.08,163.54 140.53,163.86 140.98,164.17 141.6,164.06 141.91,163.61 142.52,162.74 143.13,161.87 143.74,161.0 143.97,160.92 144.21,160.84 144.44,160.76 144.57,160.72 144.62,160.58 144.64,160.46 z M 145.92,159.61 C 145.85,159.15 145.84,158.66 146.0,158.21 146.03,158.15 146.09,158.09 146.15,158.07 146.99,157.78 147.83,157.49 148.66,157.2 149.18,157.01 149.75,157.29 149.93,157.81 150.11,158.33 149.83,158.9 149.31,159.08 148.27,159.44 147.23,159.8 146.19,160.16 145.98,160.08 145.97,159.8 145.92,159.61 z" id="Y" style="fill:none;stroke:#000;stroke-width:0.25px"/>

		<path d="M 149.56,157.32 C 150.26,157.81 150.06,158.88 149.24,159.1 L 137.91,162.03 C 137.91,162.03 137.66,161.85 137.54,161.76 136.84,161.28 137.04,160.2 137.86,159.99 L 149.19,157.06 C 149.19,157.06 149.44,157.23 149.56,157.32 z M 145.5,156.81 147.49,156.3 C 147.67,156.25 147.71,156.02 147.56,155.92 146.23,154.99 144.91,154.06 143.58,153.13 143.13,152.82 142.51,152.93 142.2,153.38 141.88,153.83 141.99,154.44 142.44,154.76 143.4,155.43 145.33,156.78 145.33,156.78 145.38,156.8 145.44,156.82 145.5,156.81 z M 141.6,162.27 C 140.94,162.44 140.27,162.62 139.61,162.79 139.43,162.83 139.39,163.06 139.54,163.17 140.87,164.09 142.19,165.02 143.52,165.95 143.97,166.27 144.59,166.16 144.9,165.71 145.22,165.26 145.11,164.64 144.66,164.32 143.7,163.65 142.74,162.98 141.77,162.3 141.72,162.28 141.67,162.26 141.6,162.27 z" id="Z" style="fill:none;stroke:#000;stroke-width:0.25px"/>	
	</defs>
		
	<g>
		<path d="M 145.66,124.81 C 144.89,124.85 144.13,125.12 143.47,125.66 142.44,126.44 141.9,127.67 141.97,128.91 142.0,129.58 142.22,130.16 142.5,130.69 142.78,131.18 143.19,131.8 142.94,132.44 142.62,132.3 142.29,132.18 141.97,132.0 141.08,134.02 140.45,136.21 140.34,138.44 140.17,142.26 141.57,146.23 143.66,149.56 141.78,150.55 139.92,151.67 138.19,152.88 134.85,155.21 131.33,158.36 128.44,161.72 130.0,163.28 131.67,164.74 133.41,166.13 132.7,167.93 132.02,169.72 131.34,171.53 131.24,171.81 131.34,171.99 131.44,172.19 131.85,172.82 132.43,173.32 133.03,173.78 133.8,174.32 134.59,174.86 135.5,175.13 135.78,175.19 136.1,175.28 136.38,175.03 137.83,173.79 139.29,172.52 140.78,171.28 142.66,172.42 144.61,173.48 146.59,174.44 147.9,172.13 149.05,169.76 149.97,167.28 150.08,167.85 150.65,168.2 151.22,168.13 151.79,168.02 152.29,167.78 152.75,167.5 152.47,168.03 152.28,168.67 152.31,169.31 152.38,169.95 152.7,170.54 153.16,170.97 154.08,171.85 155.67,171.74 156.63,171.0 157.69,170.19 158.01,168.8 157.91,167.59 157.84,166.96 157.68,166.35 157.5,165.75 157.32,165.15 157.18,164.54 156.97,163.94 157.39,163.97 157.86,164.03 158.28,164.06 159.52,158.82 158.46,153.33 155.34,148.94 155.66,148.05 155.94,147.19 156.22,146.34 158.95,146.8 161.67,145.56 163.13,143.19 163.44,143.75 164.01,143.61 164.44,143.22 164.76,143.29 165.09,143.39 165.41,143.5 164.91,144.46 165.32,145.64 166.28,146.06 167.27,146.49 168.42,146.05 168.84,145.06 169.87,145.56 171.11,145.04 171.47,143.94 171.82,142.84 171.1,141.71 169.97,141.5 170.22,140.47 169.56,139.4 168.5,139.22 167.44,139.01 166.39,139.75 166.25,140.81 L 165.28,140.5 C 165.17,139.9 164.73,139.46 164.09,139.81 164.2,135.03 159.43,131.7 155.0,133.44 155.11,132.73 154.58,132.46 153.94,132.56 153.72,132.28 153.49,132.03 153.28,131.75 154.24,131.25 154.59,130.05 154.06,129.13 153.5,128.17 152.29,127.87 151.41,128.47 151.02,127.83 150.31,127.46 149.56,127.53 149.0,125.75 147.33,124.73 145.66,124.81 z M 145.88,126.84 C 146.95,126.84 147.81,127.73 147.81,128.81 147.81,129.89 146.95,130.75 145.88,130.75 144.8,130.75 143.91,129.89 143.91,128.81 143.91,127.73 144.8,126.84 145.88,126.84 z M 147.34,132.78 C 147.57,132.78 147.78,132.81 147.94,132.81 148.4,134.12 150.1,134.5 151.09,133.47 151.27,133.72 151.48,134.0 151.66,134.25 151.44,134.78 151.48,135.39 152.16,135.5 150.42,137.66 150.18,140.62 151.56,143.03 150.89,143.6 150.18,144.18 149.47,144.75 146.28,142.23 145.61,137.95 147.06,134.38 146.74,134.23 146.41,134.08 146.09,133.91 146.24,133.62 146.36,133.08 146.72,132.91 146.88,132.82 147.12,132.79 147.34,132.78 z M 152.75,157.41 C 152.86,157.94 152.93,158.5 153.0,159.06 153.14,160.55 153.04,162.07 152.72,163.56 L 154.0,163.66 C 153.96,164.05 153.98,164.53 153.63,164.81 153.41,164.99 152.72,165.15 152.47,165.22 151.76,165.43 150.88,165.78 150.31,166.31 150.74,165.18 151.09,164.01 151.41,162.84 151.73,161.67 151.97,160.49 152.25,159.28 152.43,158.68 152.57,158.04 152.75,157.41 z" fill="none" id="shape" style="stroke:#000;stroke-width:0.25px"/>
		
        <path d="M 148.47,147.16 C 148.67,147.14 148.87,147.18 149.06,147.25 149.9,147.52 150.48,148.4 150.34,149.28 150.32,149.52 150.24,149.77 150.16,150.0 150.78,149.44 151.77,149.17 152.53,149.59 153.26,149.93 153.64,150.82 153.41,151.59 153.24,152.33 152.57,152.81 151.88,153.0 150.84,153.31 149.74,153.1 148.69,153.34 148.33,153.41 148.0,153.48 147.66,153.59 147.62,152.55 147.35,151.53 146.97,150.56 146.73,149.77 146.61,148.85 147.03,148.09 147.33,147.58 147.88,147.19 148.47,147.16 z" id="hrt" style="fill:none;stroke:#000;stroke-width:0.25px"/>
			
		<path d="M 153.68,150.53 C 153.68,152.78 151.86,154.6 149.61,154.6 147.36,154.6 145.53,152.78 145.53,150.53 145.53,148.28 147.36,146.45 149.61,146.45 151.86,146.45 153.68,148.28 153.68,150.53 z" id="birth" style="stroke:none;fill:#00f"/>
		
		<path d="M 152.43,150.53 C 152.43,152.08 151.16,153.35 149.61,153.35 148.05,153.35 146.79,152.08 146.79,150.53 146.79,148.97 148.05,147.71 149.61,147.71 151.16,147.71 152.43,148.97 152.43,150.53 z" id="diamond" style="fill:none;stroke:#000;stroke-width:0.25px"/> 
		
		<!-- Prism Reference -->
		<cam mingh:cam=" --verb EditSelectAll --verb ZoomSelection --verb SelectionGroup --verb FileVacuum --verb FileSave" /> 
	</g>

</svg>
