<svg
   xmlns:xlink="http://www.w3.org/1999/xlink"
   xmlns:svg="http://www.w3.org/2000/svg"
   xmlns="http://www.w3.org/2000/svg"
   xmlns:mingh="http://www.minghworld.com"
   width="300px"
   height="300px" >
	 <g>
		
		<!-- Paths -->
		<path transform="matrix(-1 0 0 1 300 0)" style="fill:#ff0;stroke:none;"
		 d="M 147.91,128.91 C 145.45,129.06 143.62,131.55 144.47,134.06 C 144.71,134.77 145.08,135.3 145.66,135.78 C 145.92,136.0 146.22,136.2 146.53,136.34 C 146.57,136.36 146.59,136.36 146.63,136.38 C 146.64,136.38 146.67,136.4 146.69,136.41 C 146.7,136.41 146.71,136.4 146.72,136.41 C 146.73,136.41 146.77,136.43 146.75,136.44 C 146.68,136.47 146.6,136.5 146.53,136.53 C 146.39,136.6 146.23,136.65 146.09,136.72 C 145.05,137.23 144.13,137.85 143.31,138.69 C 142.08,139.97 141.32,141.49 140.97,143.22 C 140.71,144.51 140.67,145.73 140.94,147.03 C 141.2,148.33 141.72,149.48 142.38,150.63 C 142.84,151.45 143.35,152.22 143.94,152.97 C 144.03,153.08 144.13,153.2 144.22,153.31 C 144.24,153.34 144.26,153.35 144.28,153.38 C 144.29,153.39 144.3,153.42 144.31,153.44 C 144.32,153.45 144.37,153.45 144.34,153.47 C 144.28,153.53 144.22,153.6 144.16,153.66 C 143.86,153.95 143.57,154.26 143.28,154.56 C 142.33,155.54 141.41,156.54 140.5,157.56 C 139.41,158.79 138.34,160.02 137.41,161.38 C 136.62,162.51 135.79,164.1 135.53,165.5 C 135.31,166.71 135.51,167.69 136.28,168.66 C 137.13,169.73 138.4,170.32 139.63,170.72 C 140.85,171.12 142.04,171.19 143.31,171.03 C 144.81,170.84 146.38,170.27 147.69,169.53 C 150.18,168.11 152.1,165.79 152.81,162.97 C 153.14,161.66 153.22,160.4 153.06,159.06 C 152.94,157.97 152.68,156.95 152.25,155.94 C 151.95,155.23 151.6,154.53 151.25,153.84 C 151.16,153.66 151.04,153.42 151.06,153.19 C 151.08,152.99 151.16,152.83 151.28,152.69 C 151.62,152.29 151.98,151.93 152.34,151.56 C 153.08,150.81 153.84,150.07 154.59,149.34 C 155.15,148.8 155.72,148.29 156.31,147.78 C 156.69,147.45 157.08,147.13 157.47,146.81 C 157.92,146.44 158.35,146.05 158.78,145.66 C 159.25,145.24 159.72,144.83 160.09,144.31 C 160.26,144.08 160.38,143.86 160.47,143.59 C 160.56,143.34 160.6,143.08 160.59,142.81 C 160.59,142.67 160.55,142.52 160.53,142.38 C 160.53,142.34 160.54,142.33 160.56,142.31 C 160.59,142.28 160.62,142.26 160.66,142.25 C 160.77,142.21 160.91,142.19 161.03,142.16 C 161.33,142.07 161.58,141.94 161.78,141.69 C 161.87,141.58 161.94,141.51 162.03,141.41 C 162.15,141.27 162.27,141.14 162.38,141.0 C 162.61,140.69 162.82,140.36 163.03,140.03 C 163.28,139.63 163.52,139.23 163.75,138.81 C 164.05,138.27 164.31,137.73 164.47,137.13 C 164.56,136.75 164.6,136.4 164.47,136.03 C 164.35,135.71 164.15,135.48 163.88,135.28 C 163.48,134.99 162.95,134.88 162.5,134.81 C 162.04,134.74 161.59,134.71 161.13,134.69 C 160.49,134.65 159.85,134.64 159.22,134.63 C 156.58,134.58 153.99,134.68 151.38,135.13 L 151.31,135.13 C 151.28,135.13 151.3,135.11 151.31,135.09 C 151.34,135.06 151.38,135.03 151.41,135.0 C 151.45,134.94 151.49,134.85 151.53,134.78 C 151.61,134.64 151.69,134.52 151.75,134.38 C 151.89,134.07 151.98,133.74 152.03,133.41 C 152.14,132.71 152.06,132.1 151.81,131.44 C 151.35,130.19 150.3,129.28 149.0,129.0 C 148.63,128.92 148.26,128.88 147.91,128.91 z M 148.19,130.84 C 149.26,130.84 150.13,131.74 150.13,132.81 C 150.13,133.89 149.26,134.75 148.19,134.75 C 147.11,134.75 146.22,133.89 146.22,132.81 C 146.22,131.74 147.11,130.84 148.19,130.84 z M 153.66,141.72 C 154.71,141.67 155.78,141.72 156.88,141.84 C 157.15,141.87 157.32,141.91 157.34,141.97 C 157.34,142.02 157.22,142.12 157.0,142.31 C 156.92,142.4 156.62,142.67 156.13,143.13 C 155.52,143.71 154.56,144.55 153.22,145.63 C 151.79,146.81 150.8,147.68 150.25,148.19 C 149.62,148.78 149.15,149.15 148.88,149.34 C 148.68,149.48 148.55,149.53 148.47,149.53 C 148.39,149.51 148.29,149.38 148.13,149.16 C 147.62,148.36 147.36,148.01 147.38,148.03 C 147.03,147.46 146.82,146.92 146.72,146.44 C 146.53,145.67 146.6,144.97 146.91,144.34 C 147.24,143.64 147.89,143.08 148.91,142.63 C 149.53,142.33 150.28,142.1 151.13,141.97 C 151.81,141.84 152.65,141.76 153.66,141.72 z M 146.91,157.19 C 146.96,157.19 147.02,157.31 147.09,157.53 C 147.28,157.94 147.42,158.3 147.5,158.63 C 147.87,159.99 147.87,161.28 147.53,162.5 C 147.25,163.53 146.7,164.43 145.91,165.19 C 145.49,165.57 145.09,165.88 144.66,166.09 C 143.89,166.47 143.01,166.64 142.03,166.69 C 141.38,166.71 140.89,166.62 140.56,166.38 C 140.29,166.21 140.15,166.0 140.13,165.75 C 140.1,165.62 140.18,165.39 140.38,165.06 C 140.54,164.76 140.67,164.5 140.81,164.28 C 141.25,163.58 141.85,162.79 142.59,161.91 C 143.31,161.01 144.24,159.93 145.34,158.69 C 145.75,158.23 146.11,157.82 146.47,157.44 C 146.66,157.25 146.82,157.16 146.91,157.19 z" />
		<text id="txtTwo" transform="matrix(1 0 0 1 150 160)" style="stroke:none;fill:#f00;font-family:'Eras Medium ITC';font-size:20px;text-anchor:middle"  >
		</text>
		<!-- Prism Reference -->
		<cam mingh:cam=" --verb EditSelectAll --verb ZoomSelection --verb FileSave"/> 
	 </g>

</svg>