<svg
   xmlns:xlink="http://www.w3.org/1999/xlink"
   xmlns:svg="http://www.w3.org/2000/svg"
   xmlns="http://www.w3.org/2000/svg"
   xmlns:mingh="http://www.minghworld.com"
   width="300px"
   height="300px" >
	 <g>

		<!-- Paths -->
		<path style="fill:none;stroke:#000;stroke-width:0.25px;"
		 d="M 148.31,130.63 C 147.92,130.64 147.51,130.7 147.13,130.84 C 145.58,131.41 144.55,132.88 144.56,134.53 C 144.57,136.18 145.63,137.64 147.19,138.19 C 147.27,138.22 147.35,138.26 147.44,138.28 C 147.48,138.29 147.52,138.3 147.56,138.31 C 147.54,138.32 147.52,138.33 147.5,138.34 C 147.36,138.43 147.23,138.53 147.09,138.63 C 146.84,138.79 146.61,138.97 146.38,139.16 C 145.96,139.49 145.59,139.84 145.25,140.25 C 145.23,140.27 145.21,140.29 145.19,140.31 C 145.17,140.33 145.13,140.42 145.13,140.38 C 145.12,140.35 145.13,140.31 145.13,140.28 C 145.12,140.23 145.13,140.18 145.13,140.13 C 145.11,140.01 145.08,139.92 145.06,139.81 C 145.01,139.57 144.93,139.3 144.84,139.06 C 144.49,138.02 143.97,137.19 143.25,136.38 C 143.08,136.19 142.9,136.01 142.72,135.84 C 142.71,135.83 142.7,135.82 142.69,135.81 C 142.66,135.79 142.64,135.8 142.63,135.81 C 142.57,135.85 142.52,135.9 142.47,135.94 C 142.36,136.02 142.24,136.1 142.13,136.19 C 141.91,136.36 141.68,136.55 141.47,136.72 C 140.64,137.39 139.84,138.05 139.06,138.78 C 138.11,139.67 136.12,141.79 135.28,142.78 C 135.01,143.1 134.76,143.42 134.5,143.75 C 134.44,143.83 134.37,143.89 134.31,143.97 C 134.29,144.0 134.28,144.03 134.28,144.06 L 134.31,144.22 C 134.33,144.31 134.36,144.41 134.38,144.5 C 134.43,144.87 134.47,145.25 134.53,145.63 C 134.59,146.0 134.66,146.38 134.72,146.75 L 134.78,147.31 C 134.78,147.34 134.81,147.35 134.81,147.38 C 134.82,147.37 134.84,147.38 134.84,147.38 C 134.86,147.36 134.89,147.33 134.91,147.31 C 134.95,147.27 134.99,147.26 135.03,147.22 C 135.36,146.91 135.68,146.6 136.03,146.31 C 136.55,145.89 137.07,145.48 137.59,145.06 C 137.9,144.82 138.23,144.58 138.53,144.34 C 138.68,144.23 138.82,144.12 138.97,144.0 C 139.01,143.97 139.06,143.94 139.09,143.91 C 139.13,143.88 139.1,143.95 139.09,143.97 C 139.08,144.0 139.04,144.06 139.03,144.09 C 138.98,144.23 138.93,144.36 138.88,144.5 C 137.92,146.96 137.04,149.44 136.28,151.97 C 135.91,153.22 135.54,154.48 135.25,155.75 C 134.95,157.08 134.71,158.4 134.53,159.75 C 134.31,161.42 134.11,163.15 134.25,164.84 C 134.29,165.27 134.32,165.71 134.44,166.13 C 134.56,166.54 134.78,166.88 135.03,167.22 C 135.79,168.23 136.78,168.68 137.91,169.06 C 138.35,169.21 138.8,169.35 139.28,169.38 C 139.55,169.39 139.78,169.36 140.03,169.25 C 140.25,169.15 140.41,169.02 140.53,168.81 C 140.59,168.72 140.63,168.64 140.66,168.53 C 140.67,168.48 140.68,168.4 140.69,168.34 C 140.69,168.31 140.69,168.28 140.69,168.25 C 140.69,168.23 140.69,168.23 140.69,168.22 C 140.69,168.2 140.71,168.21 140.72,168.22 C 140.74,168.23 140.73,168.24 140.75,168.25 C 141.4,168.61 142.09,168.83 142.81,168.97 C 143.76,169.15 144.73,169.21 145.69,169.19 C 147.45,169.15 149.12,168.87 150.81,168.38 C 152.46,167.89 154.2,167.16 155.69,166.31 C 157.54,165.26 159.39,163.78 160.72,162.09 C 161.81,160.71 162.61,159.11 162.78,157.31 C 162.91,155.97 162.64,154.7 161.88,153.56 C 161.25,152.62 160.33,151.94 159.31,151.5 C 158.36,151.09 157.4,150.85 156.38,150.72 C 155.95,150.67 155.52,150.64 155.09,150.63 C 154.99,150.62 154.89,150.63 154.78,150.63 C 154.73,150.63 154.68,150.62 154.63,150.63 C 154.59,150.63 154.43,150.65 154.5,150.63 C 154.63,150.58 154.78,150.55 154.91,150.5 C 155.14,150.41 155.37,150.31 155.59,150.22 C 155.77,150.15 155.94,150.07 156.13,150.0 C 156.39,149.9 156.64,149.8 156.91,149.69 C 157.19,149.57 157.5,149.47 157.78,149.34 C 158.18,149.16 158.59,148.98 159.0,148.81 C 159.59,148.57 160.18,148.31 160.75,148.03 C 161.92,147.46 162.97,146.8 163.91,145.88 C 164.81,144.99 165.38,144.07 165.66,142.81 C 165.93,141.59 165.82,140.23 165.41,139.06 C 164.97,137.83 164.19,136.8 163.03,136.16 C 161.65,135.38 159.86,135.16 158.34,135.22 C 157.38,135.26 156.45,135.41 155.5,135.59 C 154.25,135.83 153.03,136.13 151.81,136.5 C 152.66,135.08 152.52,133.3 151.47,132.03 C 150.68,131.08 149.5,130.58 148.31,130.63 z M 148.47,132.56 C 149.54,132.56 150.41,133.42 150.41,134.5 C 150.41,135.58 149.55,136.47 148.47,136.47 C 147.39,136.47 146.5,135.58 146.5,134.5 C 146.5,133.42 147.39,132.56 148.47,132.56 z M 160.06,140.41 C 160.61,140.4 161.04,140.5 161.34,140.66 C 161.67,140.83 161.88,141.0 161.94,141.19 C 161.99,141.36 161.94,141.6 161.81,141.88 C 161.66,142.23 161.44,142.56 161.19,142.88 C 160.61,143.52 159.62,144.18 158.22,144.91 C 156.96,145.58 155.73,146.16 154.5,146.66 C 153.95,146.87 152.34,147.45 149.66,148.38 C 148.75,148.69 147.96,148.97 147.34,149.22 C 146.82,149.42 146.44,149.6 146.22,149.78 C 145.97,150.0 145.77,150.3 145.59,150.66 C 145.38,151.09 145.25,151.64 145.13,152.31 C 145.01,153.01 144.94,153.69 144.94,154.34 C 144.96,154.97 145.06,155.42 145.28,155.69 C 145.43,155.86 145.64,155.95 145.84,155.97 C 145.97,156.0 146.12,155.99 146.31,155.94 C 146.43,155.89 146.65,155.85 146.94,155.75 C 147.67,155.44 148.47,155.19 149.34,155.0 C 150.05,154.84 150.91,154.7 151.91,154.59 C 152.95,154.48 153.9,154.41 154.78,154.38 C 155.74,154.35 156.48,154.43 157.06,154.59 C 157.56,154.72 157.94,154.92 158.16,155.19 C 158.32,155.44 158.39,155.69 158.41,155.94 C 158.39,156.17 158.31,156.42 158.16,156.72 C 157.9,157.16 157.5,157.64 157.0,158.13 C 156.3,158.81 155.51,159.43 154.59,160.0 C 153.86,160.44 153.04,160.86 152.19,161.22 C 151.29,161.61 150.43,161.93 149.56,162.19 C 148.72,162.42 147.87,162.58 147.03,162.69 C 146.29,162.78 145.63,162.79 145.09,162.75 C 144.76,162.72 144.49,162.68 144.25,162.59 C 144.17,162.56 144.08,162.52 144.03,162.5 C 143.93,162.47 143.88,162.42 143.88,162.38 C 143.87,162.35 143.87,162.3 143.91,162.22 C 144.03,162.02 144.11,161.78 144.13,161.5 C 144.15,161.17 144.1,160.94 144.0,160.78 C 143.84,160.58 143.62,160.47 143.31,160.44 C 142.95,160.42 142.53,160.54 142.09,160.81 C 141.84,160.95 141.61,161.13 141.38,161.34 C 140.88,161.8 140.45,162.3 140.09,162.84 C 140.23,161.77 140.45,160.52 140.75,159.09 C 141.23,156.67 141.85,154.03 142.63,151.19 C 142.8,150.53 143.35,148.55 144.28,145.28 C 144.34,145.1 144.39,144.95 144.44,144.78 C 144.74,145.37 145.14,145.79 145.66,146.06 C 145.88,146.18 146.11,146.24 146.34,146.25 C 146.55,146.3 146.88,146.3 147.38,146.22 C 149.02,145.94 149.83,145.8 149.78,145.81 C 150.42,145.69 150.89,145.52 151.22,145.34 C 151.62,145.13 151.85,144.89 151.91,144.63 C 151.99,144.34 151.91,144.09 151.72,143.81 C 151.53,143.54 151.26,143.35 150.88,143.28 C 150.82,143.27 150.73,143.25 150.59,143.22 C 150.44,143.22 150.3,143.19 150.22,143.16 C 150.01,143.11 149.91,143.09 149.91,143.06 C 149.9,143.01 149.99,142.95 150.16,142.84 C 150.41,142.7 150.69,142.56 150.97,142.44 C 151.94,142.04 153.06,141.67 154.38,141.34 C 155.92,140.93 157.63,140.62 159.47,140.44 C 159.68,140.42 159.88,140.41 160.06,140.41 z"
		 />
		<!-- Prism Reference -->
		<cam mingh:cam="--verb EditSelectAll --verb ZoomSelection --verb FileSave" /> 
	 </g>

</svg>
