<svg
   xmlns:xlink="http://www.w3.org/1999/xlink"
   xmlns:svg="http://www.w3.org/2000/svg"
   xmlns="http://www.w3.org/2000/svg"
   xmlns:mingh="http://www.minghworld.com"
   width="300px"
   height="300px" >
   
	 <g>
		<!-- Paths -->
		<path style="fill:none;stroke:#000;stroke-width:0.25px;"
		 d="M 155.63,130.38 C 153.63,130.39 151.61,130.98 149.94,132.06 C 147.71,133.51 146.06,135.88 145.22,138.34 C 144.78,139.63 144.56,140.92 144.56,142.28 C 144.56,142.95 144.62,143.59 144.72,144.25 C 144.77,144.58 144.83,144.92 144.91,145.25 C 144.91,145.27 144.93,145.29 144.94,145.31 C 144.94,145.32 144.94,145.33 144.94,145.34 C 144.9,145.34 144.85,145.35 144.81,145.34 C 144.73,145.33 144.64,145.29 144.56,145.28 C 144.4,145.26 144.23,145.24 144.06,145.22 C 141.33,144.9 138.77,145.43 136.38,146.78 C 134.05,148.1 132.12,150.08 131.19,152.66 C 130.29,155.15 130.35,158.02 131.41,160.47 C 132.47,162.93 134.47,164.92 136.66,166.34 C 141.25,169.34 146.83,169.92 152.03,169.47 C 154.73,169.23 157.35,168.72 159.97,168.06 C 161.28,167.74 162.59,167.39 163.88,167.0 C 164.52,166.8 165.14,166.58 165.78,166.38 C 166.4,166.17 166.89,165.78 167.06,165.13 C 168.39,160.18 169.52,154.57 169.44,149.38 C 169.36,144.13 168.06,138.66 164.34,134.56 C 162.56,132.6 160.29,131.05 157.59,130.56 C 156.94,130.44 156.29,130.37 155.63,130.38 z M 152.78,132.97 C 153.03,132.96 153.27,133.01 153.5,133.09 C 153.73,133.18 153.95,133.3 154.13,133.47 C 154.3,133.64 154.46,133.84 154.56,134.06 C 154.66,134.29 154.71,134.54 154.72,134.78 C 154.73,135.03 154.68,135.27 154.59,135.5 C 154.51,135.73 154.36,135.95 154.19,136.13 C 154.02,136.3 153.82,136.46 153.59,136.56 C 153.37,136.66 153.12,136.71 152.88,136.72 C 152.63,136.73 152.39,136.68 152.16,136.59 C 151.93,136.51 151.71,136.39 151.53,136.22 C 151.35,136.05 151.23,135.82 151.13,135.59 C 151.02,135.37 150.98,135.15 150.97,134.91 C 150.96,134.66 151.01,134.39 151.09,134.16 C 151.18,133.93 151.3,133.74 151.47,133.56 C 151.64,133.38 151.84,133.23 152.06,133.13 C 152.29,133.02 152.54,132.98 152.78,132.97 z"
		 />
		 
		 <path style="fill:#f00;stroke:none;"
		 d="M 152.78,132.82 C 154.87,132.09 157.2,132.17 159.22,133.09 C 161.22,134.0 162.9,135.65 164.12,137.4 C 165.41,139.27 166.22,141.23 166.76,143.42 C 166.79,143.53 166.81,143.65 166.84,143.77 C 166.86,143.83 166.87,143.88 166.88,143.94 C 166.89,143.97 166.89,144.0 166.9,144.03 C 166.9,144.04 166.91,144.07 166.9,144.05 C 166.9,144.04 166.89,144.02 166.88,144.0 C 166.77,143.73 166.64,143.46 166.5,143.2 C 166.2,142.67 165.85,142.17 165.45,141.71 C 165.24,141.47 165.02,141.24 164.79,141.03 C 164.68,140.92 164.56,140.83 164.45,140.71 C 164.37,140.63 164.29,140.55 164.21,140.47 C 163.86,140.16 163.47,139.89 163.08,139.64 C 162.62,139.35 162.15,139.06 161.71,138.74 C 161.26,138.41 160.86,138.06 160.54,137.6 C 159.8,136.57 159.9,135.53 160.45,134.47 C 160.47,134.44 160.49,134.4 160.5,134.37 C 160.51,134.36 160.49,134.38 160.48,134.38 C 160.47,134.39 160.47,134.39 160.46,134.4 C 160.44,134.4 160.42,134.41 160.41,134.42 C 160.34,134.46 160.28,134.5 160.22,134.54 C 160.09,134.62 159.96,134.71 159.85,134.81 C 159.6,135.0 159.4,135.22 159.22,135.47 C 158.91,135.92 158.69,136.5 158.75,137.06 C 158.78,137.32 158.85,137.55 158.98,137.78 C 159.04,137.89 159.11,137.99 159.19,138.09 C 159.23,138.14 159.27,138.19 159.31,138.24 C 159.32,138.25 159.37,138.28 159.34,138.27 C 159.32,138.26 159.31,138.26 159.29,138.26 C 159.26,138.25 159.23,138.24 159.2,138.23 C 158.69,138.09 158.19,137.97 157.7,137.75 C 156.65,137.25 155.86,136.41 156.05,135.14 C 156.13,134.57 156.37,134.11 156.68,133.64 C 156.83,133.42 156.99,133.2 157.16,132.99 C 157.24,132.89 157.33,132.79 157.41,132.7 C 157.45,132.66 157.49,132.62 157.53,132.57 C 157.55,132.55 157.49,132.58 157.48,132.59 C 157.46,132.59 157.44,132.6 157.42,132.61 C 157.37,132.62 157.33,132.64 157.29,132.65 C 156.68,132.88 156.14,133.18 155.66,133.63 C 155.47,133.81 155.31,134.0 155.17,134.22 C 155.11,134.32 155.05,134.42 155.0,134.53 C 154.97,134.58 154.94,134.64 154.92,134.69 C 154.91,134.72 154.9,134.74 154.89,134.77 C 154.88,134.79 154.86,134.87 154.86,134.83 C 154.85,133.69 153.91,132.79 152.78,132.82 z M 149.33,143.78 C 149.01,144.75 148.84,145.29 148.73,145.78 C 148.56,146.54 148.52,147.21 148.48,148.02 C 148.45,148.89 148.43,149.94 148.62,150.93 C 148.92,152.41 149.71,153.75 150.48,154.65 C 151.15,155.45 151.81,155.91 152.83,156.33 C 153.12,156.46 153.44,156.58 153.79,156.69 C 153.78,156.24 153.78,155.79 153.75,155.34 C 153.74,155.11 153.72,154.89 153.69,154.67 C 153.67,154.47 153.64,154.27 153.6,154.07 C 153.57,153.93 153.54,153.79 153.5,153.66 C 153.15,153.56 152.82,153.43 152.5,153.25 C 151.66,152.76 150.92,151.91 150.4,150.91 C 149.66,149.51 149.36,147.82 149.31,146.23 C 149.29,145.5 149.32,144.79 149.33,143.78 z M 148.22,148.71 C 148.07,148.72 147.93,148.74 147.79,148.75 C 146.98,148.82 146.32,148.9 145.57,149.12 C 145.08,149.26 144.56,149.45 143.61,149.83 C 144.61,149.76 145.32,149.69 146.05,149.67 C 146.77,149.65 147.5,149.69 148.23,149.79 C 148.21,149.43 148.21,149.07 148.22,148.71 z M 151.96,136.66 C 149.49,136.57 147.55,139.52 148.59,141.76 C 149.08,142.83 150.09,143.65 151.21,143.98 C 151.76,144.13 152.3,144.18 152.87,144.15 C 153.14,144.13 153.4,144.09 153.66,144.03 C 153.79,144.0 153.91,143.97 154.04,143.93 C 154.05,143.93 154.06,143.92 154.06,143.92 C 154.07,143.92 154.07,143.93 154.06,143.93 C 154.05,143.94 154.05,143.96 154.04,143.98 C 154.02,144.01 154.0,144.04 153.98,144.07 C 153.95,144.13 153.92,144.2 153.89,144.26 C 153.66,144.78 153.6,145.35 153.87,145.88 C 154.1,146.36 154.56,146.78 155.01,147.02 C 155.13,147.09 155.26,147.14 155.38,147.19 C 155.4,147.2 155.42,147.2 155.43,147.21 C 155.45,147.22 155.45,147.2 155.45,147.18 C 155.44,147.15 155.44,147.11 155.44,147.08 C 155.44,147.01 155.44,146.93 155.44,146.86 C 155.45,146.58 155.49,146.3 155.57,146.02 C 155.73,145.45 156.02,145.0 156.42,144.57 C 157.15,143.79 158.34,143.15 159.35,142.88 C 160.57,142.56 161.54,142.82 162.63,143.32 C 163.58,143.76 164.74,144.45 165.54,145.14 C 165.97,145.5 166.35,145.91 166.7,146.36 C 166.87,146.58 167.04,146.81 167.19,147.05 C 167.21,147.1 167.39,147.36 167.39,147.42 C 167.4,147.56 167.41,147.7 167.42,147.84 C 167.44,148.13 167.46,148.41 167.47,148.69 C 167.47,148.83 167.48,148.97 167.48,149.11 C 167.48,149.15 167.48,149.18 167.48,149.22 C 167.48,149.24 167.48,149.25 167.48,149.27 C 167.48,149.29 167.47,149.25 167.47,149.24 C 167.44,149.17 167.42,149.11 167.39,149.04 C 167.18,148.51 166.91,148.03 166.56,147.58 C 165.88,146.69 164.9,145.92 163.9,145.44 C 162.81,144.92 161.64,144.72 160.43,144.97 C 159.82,145.1 159.29,145.32 158.77,145.67 C 158.28,146.0 157.87,146.43 157.41,146.79 C 156.95,147.15 156.46,147.46 155.94,147.73 C 155.27,148.08 154.82,148.27 154.03,148.1 C 153.77,148.05 153.45,147.92 153.29,147.68 C 153.14,147.43 153.19,147.08 153.21,146.84 C 153.23,146.54 153.23,146.28 153.07,146.01 C 152.92,145.76 152.67,145.59 152.38,145.54 C 151.77,145.43 151.3,145.88 151.17,146.44 C 151.03,147.0 151.23,147.58 151.58,148.01 C 151.97,148.48 152.43,148.7 152.99,148.87 C 153.6,149.04 154.17,149.07 154.79,148.95 C 155.47,148.82 156.0,148.52 156.52,148.09 C 156.74,147.91 156.94,147.72 157.14,147.53 C 157.16,147.52 157.17,147.51 157.18,147.5 C 157.19,147.49 157.19,147.49 157.19,147.49 C 157.2,147.48 157.19,147.49 157.19,147.5 C 157.18,147.5 157.18,147.51 157.18,147.52 C 157.16,147.55 157.15,147.59 157.13,147.62 C 157.1,147.68 157.08,147.75 157.05,147.82 C 157.0,147.95 156.96,148.09 156.93,148.23 C 156.64,149.4 156.92,150.53 157.65,151.47 C 158.35,152.37 159.43,153.06 160.63,153.03 C 161.74,153.0 162.99,152.36 163.22,151.14 C 163.45,149.89 162.25,148.89 161.09,149.45 C 160.84,149.56 160.6,149.75 160.51,150.02 C 160.44,150.21 160.42,150.64 160.21,150.79 C 159.98,150.95 159.57,150.77 159.4,150.64 C 159.14,150.45 158.98,150.22 158.86,149.93 C 158.62,149.37 158.67,148.85 158.98,148.33 C 159.25,147.89 159.67,147.49 160.12,147.23 C 161.1,146.67 162.24,146.74 163.24,147.07 C 164.32,147.41 165.25,148.07 165.9,149.0 C 166.46,149.8 166.92,151.11 167.19,152.02 C 167.22,152.13 167.38,152.69 167.37,152.82 C 167.35,153.09 167.33,153.36 167.3,153.63 C 167.27,153.91 167.24,154.18 167.21,154.45 C 167.2,154.59 167.18,154.72 167.16,154.86 C 167.15,154.93 167.15,155.0 167.14,155.06 C 167.13,155.11 167.13,155.3 167.11,155.21 C 167.0,154.66 166.84,154.14 166.63,153.63 C 166.41,153.07 166.13,152.6 165.64,152.22 C 165.01,151.72 164.3,151.61 163.63,152.14 C 163.3,152.4 163.08,152.8 163.11,153.24 C 163.14,153.6 163.36,153.98 163.75,154.08 C 164.09,154.16 164.43,154.06 164.77,154.13 C 165.05,154.19 165.26,154.32 165.47,154.5 C 165.84,154.83 166.12,155.37 166.29,155.81 C 166.46,156.26 166.58,156.71 166.64,157.19 C 166.67,157.43 166.69,157.66 166.7,157.9 C 166.7,157.96 166.68,158.01 166.67,158.07 C 166.66,158.13 166.65,158.19 166.63,158.24 C 166.61,158.36 166.59,158.47 166.57,158.59 C 166.48,159.05 166.39,159.5 166.29,159.96 C 166.29,159.99 166.28,160.02 166.28,160.05 C 166.27,160.06 166.27,160.03 166.27,160.02 C 166.27,160.01 166.27,159.99 166.27,159.98 C 166.27,159.92 166.26,159.86 166.26,159.8 C 166.25,159.68 166.23,159.57 166.22,159.45 C 166.19,159.22 166.15,158.99 166.09,158.76 C 165.66,156.83 164.66,155.29 162.8,154.44 C 161.89,154.02 160.97,153.83 159.98,153.77 C 159.45,153.73 158.93,153.73 158.4,153.75 C 158.12,153.75 157.85,153.76 157.58,153.78 C 157.44,153.78 157.31,153.79 157.17,153.8 C 157.15,153.8 157.08,153.77 157.09,153.81 C 157.1,153.84 157.11,153.87 157.12,153.9 C 157.14,153.95 157.16,154.01 157.17,154.06 C 157.47,154.96 157.63,155.86 157.65,156.81 C 157.65,156.87 157.65,156.93 157.65,156.99 C 157.65,157.02 157.65,157.05 157.65,157.07 C 157.65,157.09 157.65,157.1 157.65,157.12 C 157.65,157.14 157.67,157.13 157.68,157.13 C 157.81,157.11 157.94,157.1 158.07,157.09 C 158.32,157.06 158.57,157.03 158.82,157.0 C 159.32,156.95 159.81,156.91 160.31,156.92 C 162.38,156.95 164.05,157.96 164.92,159.88 C 165.3,160.73 165.43,161.59 165.49,162.5 C 165.51,162.73 165.52,162.96 165.53,163.19 C 165.53,163.31 165.49,163.41 165.46,163.53 C 165.44,163.58 165.43,163.64 165.41,163.7 C 165.41,163.73 165.4,163.75 165.39,163.78 C 165.39,163.79 165.38,163.78 165.38,163.77 C 165.37,163.76 165.36,163.74 165.35,163.73 C 165.33,163.7 165.32,163.68 165.3,163.65 C 165.26,163.59 165.23,163.54 165.2,163.49 C 164.77,162.81 164.38,162.12 163.99,161.43 C 163.76,161.01 163.54,160.59 163.25,160.21 C 162.77,159.57 162.31,159.57 161.61,159.44 C 161.09,159.35 160.59,159.22 160.09,159.05 C 159.73,158.92 159.38,158.77 159.04,158.61 C 158.99,158.59 158.94,158.56 158.89,158.54 C 158.88,158.54 158.87,158.53 158.85,158.52 C 158.84,158.52 158.85,158.54 158.86,158.54 C 158.87,158.57 158.89,158.59 158.9,158.62 C 158.95,158.71 159.0,158.8 159.05,158.9 C 159.14,159.07 159.22,159.24 159.3,159.42 C 159.54,159.94 159.73,160.47 159.87,161.03 C 159.95,161.37 160.01,161.72 160.13,162.05 C 160.24,162.34 160.4,162.55 160.64,162.73 C 160.99,163.0 161.38,163.18 161.77,163.37 C 162.43,163.69 163.09,164.01 163.74,164.36 C 163.95,164.48 164.17,164.6 164.38,164.72 C 164.41,164.73 164.5,164.75 164.44,164.77 C 164.43,164.77 164.42,164.78 164.4,164.78 C 164.37,164.79 164.35,164.8 164.32,164.81 C 164.21,164.85 164.1,164.88 163.98,164.92 C 163.83,164.96 162.77,164.93 162.62,164.92 C 161.69,164.87 160.84,164.7 160.0,164.27 C 158.94,163.72 158.18,162.92 157.72,161.81 C 157.25,160.66 157.28,159.54 157.34,158.36 C 157.42,156.95 157.47,156.07 157.1,154.67 C 156.83,153.68 156.37,152.51 155.77,151.65 C 155.19,150.81 154.45,150.25 153.58,149.75 C 152.47,149.12 151.38,148.74 150.09,148.67 C 150.05,148.66 150.01,148.66 149.97,148.66 C 149.95,148.66 149.93,148.66 149.91,148.66 C 149.9,148.66 149.89,148.66 149.88,148.66 C 149.87,148.66 149.85,148.64 149.85,148.66 C 149.87,148.72 149.88,148.79 149.9,148.86 C 149.93,148.99 149.97,149.12 150.01,149.26 C 150.08,149.52 150.17,149.78 150.27,150.04 C 150.3,150.1 150.32,150.17 150.35,150.23 C 150.36,150.26 150.38,150.3 150.39,150.33 C 150.4,150.35 150.42,150.35 150.44,150.35 C 150.45,150.36 150.47,150.37 150.49,150.37 C 150.62,150.43 150.75,150.48 150.88,150.54 C 151.13,150.66 151.38,150.8 151.62,150.95 C 152.49,151.5 153.24,152.23 153.62,153.23 C 154.01,154.25 154.02,155.5 154.03,156.55 C 154.05,157.81 154.01,159.06 154.22,160.32 C 154.6,162.66 155.76,164.52 158.1,165.38 C 158.63,165.58 159.17,165.71 159.72,165.78 C 160.0,165.82 160.28,165.84 160.55,165.85 C 160.62,165.85 160.69,165.85 160.76,165.85 C 160.77,165.85 160.8,165.85 160.78,165.85 C 160.77,165.86 160.77,165.86 160.76,165.86 C 160.74,165.87 160.72,165.87 160.71,165.87 C 160.67,165.88 160.64,165.89 160.61,165.9 C 160.47,165.94 160.34,165.97 160.21,166.01 C 159.94,166.08 159.67,166.14 159.41,166.21 C 159.32,166.23 158.69,166.39 158.6,166.39 C 158.03,166.41 157.48,166.35 156.93,166.21 C 156.4,166.08 155.91,165.9 155.46,165.58 C 155.25,165.43 155.08,165.25 154.94,165.03 C 154.77,164.74 154.74,164.45 154.73,164.13 C 154.73,163.73 154.7,163.43 154.3,163.2 C 153.93,162.99 153.48,163.04 153.13,163.26 C 152.79,163.49 152.53,163.89 152.46,164.29 C 152.39,164.68 152.48,164.98 152.68,165.31 C 153.0,165.86 153.52,166.22 154.09,166.45 C 154.61,166.66 155.15,166.81 155.7,166.91 C 155.77,166.92 155.84,166.93 155.91,166.94 C 155.94,166.94 155.98,166.95 156.01,166.95 C 156.04,166.96 155.99,166.96 155.98,166.96 C 155.96,166.97 155.94,166.97 155.93,166.97 C 155.79,167.0 155.65,167.02 155.52,167.05 C 155.24,167.1 154.97,167.14 154.69,167.19 C 154.42,167.23 154.14,167.27 153.86,167.31 C 153.8,167.32 153.73,167.33 153.66,167.34 C 153.59,167.35 153.52,167.34 153.45,167.33 C 153.31,167.31 153.18,167.29 153.04,167.26 C 152.16,167.07 150.68,166.63 149.88,166.17 C 148.87,165.6 148.14,164.72 147.7,163.66 C 147.29,162.67 147.12,161.5 147.61,160.47 C 147.86,159.95 148.18,159.57 148.65,159.24 C 149.15,158.88 149.68,158.79 150.26,159.0 C 150.56,159.11 150.8,159.25 151.01,159.5 C 151.15,159.68 151.36,160.08 151.19,160.32 C 151.04,160.53 150.62,160.57 150.43,160.66 C 150.16,160.78 149.99,161.04 149.89,161.3 C 149.43,162.53 150.58,163.64 151.81,163.26 C 153.01,162.9 153.55,161.56 153.45,160.43 C 153.35,159.23 152.53,158.19 151.55,157.59 C 150.53,156.95 149.33,156.82 148.2,157.26 C 148.07,157.31 147.93,157.37 147.8,157.44 C 147.79,157.45 147.77,157.46 147.75,157.47 C 147.75,157.47 147.74,157.48 147.74,157.47 C 147.75,157.46 147.75,157.46 147.76,157.45 C 147.78,157.42 147.8,157.4 147.83,157.37 C 147.87,157.32 147.92,157.26 147.96,157.21 C 148.14,156.99 148.32,156.76 148.48,156.52 C 148.89,155.87 149.08,155.35 149.1,154.57 C 149.13,153.52 148.68,152.16 147.62,151.64 C 147.12,151.4 146.48,151.36 145.99,151.69 C 145.48,152.03 145.34,152.68 145.72,153.17 C 145.9,153.4 146.17,153.53 146.45,153.56 C 146.74,153.58 147.02,153.49 147.3,153.48 C 147.63,153.48 147.82,153.59 148.0,153.86 C 148.18,154.14 148.23,154.43 148.26,154.75 C 148.32,155.45 148.04,155.99 147.74,156.57 C 147.48,157.08 147.18,157.56 146.85,158.01 C 146.49,158.5 146.1,158.94 145.83,159.49 C 145.55,160.05 145.41,160.62 145.36,161.24 C 145.27,162.48 145.62,163.6 146.27,164.64 C 146.87,165.59 147.7,166.46 148.69,167.04 C 148.93,167.19 149.18,167.31 149.44,167.42 C 149.58,167.47 149.71,167.52 149.84,167.57 C 149.91,167.59 149.98,167.61 150.05,167.64 C 150.06,167.64 150.12,167.65 150.09,167.65 C 150.07,167.65 150.05,167.65 150.04,167.65 C 150.0,167.65 149.97,167.65 149.93,167.65 C 149.36,167.67 148.8,167.67 148.23,167.66 C 148.14,167.66 147.54,167.29 147.48,167.26 C 147.24,167.1 147.0,166.94 146.78,166.77 C 146.32,166.42 145.92,166.04 145.55,165.61 C 144.9,164.85 144.09,163.61 143.67,162.7 C 143.15,161.59 143.02,160.61 143.38,159.41 C 143.7,158.36 144.27,157.24 145.15,156.52 C 145.62,156.14 146.1,155.91 146.69,155.8 C 146.83,155.78 146.97,155.76 147.11,155.75 C 147.19,155.75 147.26,155.75 147.33,155.75 C 147.34,155.75 147.38,155.77 147.37,155.74 C 147.36,155.72 147.36,155.71 147.35,155.69 C 147.34,155.66 147.32,155.63 147.31,155.6 C 147.19,155.35 147.04,155.13 146.86,154.92 C 146.51,154.53 146.01,154.16 145.46,154.11 C 145.17,154.08 144.9,154.13 144.63,154.23 C 144.49,154.27 144.36,154.33 144.23,154.41 C 144.17,154.44 144.11,154.48 144.05,154.52 C 144.04,154.53 144.02,154.54 144.01,154.55 C 143.98,154.57 144.01,154.52 144.01,154.51 C 144.02,154.48 144.03,154.45 144.04,154.41 C 144.29,153.37 144.18,152.14 143.68,151.18 C 143.16,150.16 142.12,149.24 140.96,149.02 C 138.55,148.58 135.98,151.05 136.77,153.46 C 136.95,154.0 137.32,154.51 137.86,154.74 C 138.43,154.97 139.06,154.86 139.39,154.29 C 139.55,154.01 139.57,153.76 139.49,153.45 C 139.43,153.2 139.25,152.89 138.96,152.82 C 138.81,152.78 138.68,152.84 138.54,152.86 C 138.38,152.88 138.27,152.75 138.26,152.6 C 138.24,152.33 138.52,152.04 138.72,151.92 C 139.23,151.63 139.88,151.82 140.31,152.13 C 140.75,152.46 141.1,152.98 141.31,153.47 C 141.53,154.0 141.64,154.54 141.66,155.11 C 141.68,155.68 141.61,156.22 141.51,156.77 C 141.41,157.32 141.28,157.87 141.21,158.43 C 141.13,158.98 141.11,159.53 141.18,160.1 C 141.24,160.66 141.37,161.2 141.56,161.73 C 141.66,162.0 141.77,162.25 141.89,162.5 C 141.96,162.63 142.02,162.75 142.09,162.87 C 142.12,162.93 142.16,162.99 142.2,163.05 C 142.2,163.07 142.21,163.08 142.22,163.1 C 142.23,163.11 142.23,163.11 142.24,163.12 C 142.24,163.13 142.23,163.11 142.22,163.11 C 142.2,163.08 142.18,163.06 142.15,163.03 C 141.27,162.05 140.95,161.36 140.63,160.1 C 140.35,159.0 140.14,157.94 139.39,156.99 C 138.71,156.11 137.56,155.48 136.42,155.5 C 135.31,155.52 134.23,156.08 133.6,157.0 C 133.39,157.3 133.23,157.61 133.09,157.95 C 133.02,158.13 132.95,158.3 132.9,158.49 C 132.89,158.53 132.88,158.57 132.87,158.62 C 132.86,158.63 132.88,158.61 132.89,158.6 C 132.9,158.59 132.91,158.58 132.92,158.57 C 132.96,158.53 133.0,158.49 133.05,158.44 C 133.44,158.05 133.86,157.7 134.34,157.41 C 135.39,156.78 136.53,156.74 137.43,157.68 C 137.86,158.11 138.12,158.6 138.33,159.16 C 138.42,159.43 138.51,159.69 138.6,159.96 C 138.61,159.99 138.62,160.02 138.63,160.05 C 138.63,160.07 138.64,160.09 138.65,160.1 C 138.65,160.11 138.66,160.13 138.65,160.12 C 138.64,160.12 138.64,160.11 138.63,160.11 C 138.58,160.06 138.52,160.02 138.47,159.98 C 138.36,159.9 138.24,159.84 138.12,159.78 C 137.57,159.52 137.01,159.56 136.47,159.79 C 135.82,160.07 135.41,160.49 135.05,161.08 C 135.01,161.15 134.97,161.22 134.93,161.29 C 134.91,161.32 134.89,161.36 134.87,161.4 C 134.87,161.41 134.86,161.43 134.85,161.45 C 134.84,161.46 134.84,161.47 134.83,161.48 C 134.83,161.48 134.81,161.51 134.83,161.5 C 134.96,161.41 135.1,161.34 135.24,161.27 C 135.51,161.13 135.79,161.02 136.1,160.96 C 136.67,160.85 137.16,160.91 137.69,161.16 C 138.71,161.63 139.43,162.66 140.03,163.51 C 140.35,163.95 140.66,164.4 141.05,164.79 C 141.15,164.89 141.24,164.98 141.34,165.07 C 141.48,165.18 141.6,165.31 141.72,165.43 C 141.99,165.69 142.27,165.92 142.57,166.14 C 143.14,166.57 143.74,166.92 144.4,167.19 C 144.48,167.22 144.56,167.25 144.64,167.28 C 144.68,167.3 144.72,167.31 144.76,167.33 C 144.78,167.34 144.89,167.37 144.83,167.36 C 144.7,167.34 144.56,167.31 144.42,167.29 C 144.15,167.24 143.87,167.19 143.6,167.13 C 141.35,166.64 139.2,165.78 137.3,164.45 C 135.47,163.17 133.77,161.38 133.0,159.2 C 132.22,157.03 132.38,154.54 133.39,152.47 C 134.41,150.39 136.37,148.84 138.43,147.94 C 139.51,147.46 140.59,147.21 141.76,147.14 C 142.61,147.1 144.37,147.14 145.22,147.16 C 145.51,147.17 145.8,147.18 146.08,147.2 C 146.23,147.21 146.37,147.21 146.51,147.22 C 146.58,147.23 146.65,147.23 146.73,147.24 C 146.76,147.24 146.8,147.24 146.83,147.24 C 146.85,147.24 146.87,147.25 146.89,147.25 C 146.9,147.25 146.91,147.25 146.91,147.25 C 146.92,147.25 146.94,147.27 146.94,147.25 C 146.87,146.68 146.81,146.11 146.76,145.54 C 146.68,144.69 146.55,142.94 146.55,142.09 C 146.55,140.91 146.74,139.82 147.16,138.71 C 147.57,137.61 148.11,136.63 148.83,135.7 C 149.18,135.24 149.57,134.82 150.01,134.44 C 150.22,134.24 150.45,134.06 150.68,133.9 C 150.8,133.81 150.92,133.73 151.04,133.66 C 151.1,133.62 151.16,133.58 151.23,133.54 C 151.26,133.52 151.29,133.51 151.32,133.49 C 151.33,133.48 151.34,133.48 151.34,133.47 C 151.35,133.47 151.35,133.47 151.35,133.47 C 151.35,133.47 151.34,133.48 151.34,133.48 C 151.33,133.5 151.32,133.51 151.3,133.52 C 150.44,134.53 150.76,136.09 151.96,136.66 z M 152.89,136.86 C 153.27,136.85 153.58,136.76 153.9,136.56 C 154.05,136.46 154.19,136.35 154.31,136.22 C 154.37,136.16 154.43,136.09 154.48,136.02 C 154.51,135.98 154.53,135.94 154.55,135.91 C 154.56,135.89 154.58,135.87 154.59,135.85 C 154.59,135.84 154.6,135.83 154.6,135.83 C 154.61,135.82 154.62,135.78 154.62,135.8 C 154.54,136.5 154.67,137.09 154.98,137.72 C 155.67,139.07 156.84,139.68 158.22,140.0 C 159.82,140.38 160.64,140.3 162.06,141.32 C 162.2,141.42 162.34,141.53 162.47,141.63 C 162.49,141.65 162.5,141.66 162.52,141.67 C 162.52,141.68 162.53,141.68 162.53,141.68 C 162.54,141.69 162.52,141.68 162.52,141.68 C 162.51,141.67 162.5,141.67 162.49,141.66 C 162.45,141.64 162.42,141.62 162.38,141.6 C 162.3,141.56 162.23,141.53 162.15,141.49 C 161.84,141.34 161.52,141.22 161.2,141.12 C 160.53,140.91 159.88,140.79 159.18,140.78 C 157.56,140.76 156.7,141.3 155.15,141.5 C 154.45,141.59 153.8,141.57 153.12,141.37 C 152.5,141.2 151.82,140.84 151.41,140.3 C 151.0,139.77 150.84,138.94 151.43,138.45 C 151.54,138.35 151.73,138.25 151.9,138.3 C 152.13,138.37 152.08,138.54 152.05,138.73 C 151.99,139.11 152.32,139.36 152.64,139.45 C 153.35,139.65 154.06,139.15 154.06,138.4 C 154.07,137.67 153.51,137.12 152.89,136.86 z"
		 />

		<!-- Prism Reference -->
		<cam mingh:cam=" --verb EditSelectAll --verb ZoomSelection --verb FileSave " /> 
	 </g>

</svg>
