<svg
   xmlns:xlink="http://www.w3.org/1999/xlink"
   xmlns:svg="http://www.w3.org/2000/svg"
   xmlns="http://www.w3.org/2000/svg"
   xmlns:mingh="http://www.minghworld.com"
   width="300px"
   height="300px" >
	 <g>
		<!-- Paths -->
		<path transform="matrix(-1 0 0 1 300 0)" style="fill:#ff0;stroke:none;"
		 d="M 155.63,130.38 C 153.63,130.39 151.61,130.98 149.94,132.06 C 147.71,133.51 146.06,135.88 145.22,138.34 C 144.78,139.63 144.56,140.92 144.56,142.28 C 144.56,142.95 144.62,143.59 144.72,144.25 C 144.77,144.58 144.83,144.92 144.91,145.25 C 144.91,145.27 144.93,145.29 144.94,145.31 C 144.94,145.32 144.94,145.33 144.94,145.34 C 144.9,145.34 144.85,145.35 144.81,145.34 C 144.73,145.33 144.64,145.29 144.56,145.28 C 144.4,145.26 144.23,145.24 144.06,145.22 C 141.33,144.9 138.77,145.43 136.38,146.78 C 134.05,148.1 132.12,150.08 131.19,152.66 C 130.29,155.15 130.35,158.02 131.41,160.47 C 132.47,162.93 134.47,164.92 136.66,166.34 C 141.25,169.34 146.83,169.92 152.03,169.47 C 154.73,169.23 157.35,168.72 159.97,168.06 C 161.28,167.74 162.59,167.39 163.88,167.0 C 164.52,166.8 165.14,166.58 165.78,166.38 C 166.4,166.17 166.89,165.78 167.06,165.13 C 168.39,160.18 169.52,154.57 169.44,149.38 C 169.36,144.13 168.06,138.66 164.34,134.56 C 162.56,132.6 160.29,131.05 157.59,130.56 C 156.94,130.44 156.29,130.37 155.63,130.38 z M 152.78,132.97 C 153.03,132.96 153.27,133.01 153.5,133.09 C 153.73,133.18 153.95,133.3 154.13,133.47 C 154.3,133.64 154.46,133.84 154.56,134.06 C 154.66,134.29 154.71,134.54 154.72,134.78 C 154.73,135.03 154.68,135.27 154.59,135.5 C 154.51,135.73 154.36,135.95 154.19,136.13 C 154.02,136.3 153.82,136.46 153.59,136.56 C 153.37,136.66 153.12,136.71 152.88,136.72 C 152.63,136.73 152.39,136.68 152.16,136.59 C 151.93,136.51 151.71,136.39 151.53,136.22 C 151.35,136.05 151.23,135.82 151.13,135.59 C 151.02,135.37 150.98,135.15 150.97,134.91 C 150.96,134.66 151.01,134.39 151.09,134.16 C 151.18,133.93 151.3,133.74 151.47,133.56 C 151.64,133.38 151.84,133.23 152.06,133.13 C 152.29,133.02 152.54,132.98 152.78,132.97 z" />
		
		<text id="txtTwo" transform="matrix(1 0 0 1 150 160)" style="stroke:none;fill:#f00;font-family:'Eras Medium ITC';font-size:20px;text-anchor:middle"  >

		</text>
		<!-- Prism Reference -->
		<cam mingh:cam="--verb EditSelectAll --verb ZoomSelection --verb FileSave"/> 
	 </g>

</svg>