<svg
   xmlns:xlink="http://www.w3.org/1999/xlink"
   xmlns:svg="http://www.w3.org/2000/svg"
   xmlns="http://www.w3.org/2000/svg"
   xmlns:mingh="http://www.minghworld.com"
   width="300px"
   height="300px" >
	
	 <g>
		
		<!-- Paths -->
		<path transform="matrix(-1 0 0 1 300 0)" style="fill:#ff0;stroke:none;"
		 d="M 148.5,122.06 C 146.81,122.27 145.44,123.55 145.13,125.22 C 144.81,126.89 145.63,128.57 147.13,129.38 C 147.26,129.45 147.39,129.51 147.53,129.56 C 147.6,129.59 147.65,129.6 147.72,129.63 C 147.74,129.63 147.76,129.65 147.78,129.66 C 147.77,129.66 147.76,129.68 147.75,129.69 C 147.61,129.75 147.48,129.81 147.34,129.88 C 147.08,130.01 146.84,130.18 146.59,130.34 C 146.13,130.66 145.7,131.0 145.34,131.44 C 145.19,131.63 145.06,131.85 144.94,132.06 C 144.83,132.26 144.77,132.45 144.69,132.66 C 144.61,132.83 144.5,133.0 144.28,133.0 C 144.09,133.0 143.89,132.84 143.75,132.75 C 142.87,132.16 141.72,132.03 140.72,132.09 C 139.56,132.16 138.33,132.51 137.31,133.09 C 136.38,133.63 135.65,134.32 135.22,135.34 C 134.77,136.41 134.76,137.62 135.0,138.72 C 135.26,139.9 135.83,141.0 136.63,141.91 C 137.14,142.5 137.7,143.01 138.28,143.53 C 139.05,144.21 139.84,144.85 140.66,145.47 C 140.76,145.55 140.86,145.64 140.97,145.72 C 141.04,145.77 141.12,145.82 141.16,145.91 C 141.22,146.06 141.18,146.25 141.06,146.38 C 140.91,146.53 140.78,146.5 140.59,146.44 C 140.34,146.35 140.07,146.3 139.81,146.22 C 138.86,145.92 137.88,145.63 136.91,145.41 C 135.6,145.1 134.37,144.9 133.0,145.13 C 130.87,145.48 128.59,146.85 128.19,149.22 C 127.83,151.32 128.82,154.04 130.41,155.44 C 130.77,155.76 131.16,155.98 131.63,156.16 C 131.79,156.22 131.99,156.31 132.06,156.5 C 132.15,156.73 132.05,156.86 131.94,157.03 C 131.67,157.43 131.47,157.84 131.34,158.31 C 131.2,158.86 131.17,159.41 131.19,159.97 C 131.24,161.98 132.17,164.58 134.19,165.56 C 136.3,166.6 139.01,165.86 140.72,164.5 C 140.96,164.31 141.18,164.09 141.41,163.88 C 141.47,163.81 141.56,163.75 141.63,163.69 C 141.65,163.66 141.69,163.65 141.72,163.63 C 141.63,163.75 141.55,163.87 141.47,164.0 C 141.14,164.51 140.82,165.03 140.53,165.56 C 139.94,166.65 139.44,167.77 139.03,168.94 C 138.24,171.19 137.63,174.01 137.38,176.38 L 137.34,176.38 C 137.27,177.02 137.65,177.61 138.25,177.84 C 138.56,177.97 138.88,177.97 139.19,177.97 L 140.09,177.97 L 141.03,177.97 C 141.35,177.97 141.67,177.96 141.97,177.81 C 142.27,177.67 142.45,177.49 142.59,177.19 C 142.75,176.86 142.72,176.52 142.72,176.19 C 142.73,173.59 142.94,171.05 143.47,168.5 C 143.58,167.94 143.69,167.4 143.84,166.84 C 143.92,166.58 144.01,166.32 144.09,166.06 C 144.11,166.0 144.14,165.94 144.16,165.88 C 144.16,165.86 144.18,165.86 144.19,165.84 C 144.17,165.99 144.14,166.14 144.13,166.28 C 144.05,167.46 144.28,168.71 144.78,169.78 C 145.25,170.78 145.98,171.66 146.97,172.22 C 147.92,172.75 148.92,172.87 149.97,172.75 C 151.17,172.61 152.41,172.15 153.41,171.47 C 153.89,171.14 154.32,170.77 154.69,170.31 C 154.85,170.11 154.98,169.91 155.09,169.69 C 155.2,169.49 155.27,169.26 155.38,169.06 C 155.47,168.88 155.63,168.76 155.84,168.81 C 156.06,168.87 156.19,169.05 156.38,169.16 C 156.83,169.43 157.32,169.57 157.84,169.66 C 159.03,169.85 160.35,169.68 161.47,169.28 C 163.81,168.45 165.25,166.84 165.13,164.22 C 165.07,162.97 164.62,161.69 163.94,160.66 C 163.57,160.1 163.13,159.62 162.66,159.16 C 161.97,158.48 161.24,157.86 160.5,157.25 C 160.1,156.92 159.72,156.63 159.31,156.31 C 159.21,156.23 159.1,156.14 159.0,156.06 C 158.93,156.01 158.87,155.95 158.84,155.88 C 158.78,155.72 158.82,155.55 158.94,155.44 C 159.08,155.29 159.22,155.28 159.41,155.34 C 159.65,155.43 159.91,155.52 160.16,155.59 C 160.64,155.75 161.13,155.9 161.63,156.03 C 162.47,156.26 163.29,156.47 164.16,156.63 C 164.76,156.73 165.35,156.79 165.97,156.78 C 168.09,156.74 170.56,155.71 171.5,153.59 C 172.38,151.62 171.61,148.95 170.47,147.34 C 170.16,146.91 169.8,146.52 169.38,146.19 C 169.19,146.04 168.99,145.92 168.78,145.81 C 168.59,145.71 168.38,145.65 168.19,145.56 C 168.02,145.48 167.89,145.37 167.91,145.16 C 167.92,144.94 168.05,144.82 168.16,144.66 C 168.43,144.25 168.58,143.81 168.69,143.34 C 169.11,141.45 168.51,139.05 167.34,137.53 C 166.06,135.86 164.09,135.46 162.16,135.91 C 161.13,136.14 160.11,136.62 159.28,137.28 C 158.8,137.66 158.39,138.09 157.97,138.53 C 157.39,139.14 156.84,139.79 156.31,140.44 C 156.02,140.8 155.72,141.19 155.44,141.56 C 155.35,141.68 155.19,141.94 155.06,142.03 C 154.94,142.11 154.76,142.1 154.63,142.03 C 154.49,141.96 154.41,141.84 154.41,141.69 C 154.4,141.53 154.52,141.23 154.56,141.09 C 154.71,140.65 154.87,140.2 155.0,139.75 C 155.23,138.94 155.42,138.13 155.59,137.31 C 155.72,136.72 155.84,136.11 155.88,135.5 C 155.97,133.96 155.53,132.3 154.63,131.03 C 154.2,130.43 153.74,129.97 153.09,129.59 C 152.8,129.43 152.48,129.28 152.16,129.19 C 152.0,129.14 151.85,129.12 151.69,129.09 C 151.61,129.08 151.52,129.07 151.44,129.06 C 151.42,129.06 151.4,129.06 151.38,129.06 L 151.34,129.03 C 151.42,128.97 151.49,128.91 151.56,128.84 C 152.83,127.71 153.23,125.89 152.53,124.34 C 151.83,122.8 150.19,121.86 148.5,122.06 z M 148.97,124.0 C 149.22,124.0 149.48,124.06 149.72,124.16 C 149.95,124.26 150.16,124.38 150.34,124.56 C 150.52,124.74 150.69,124.98 150.78,125.22 C 150.88,125.46 150.91,125.71 150.91,125.97 C 150.9,126.22 150.85,126.45 150.75,126.69 C 150.65,126.92 150.53,127.16 150.34,127.34 C 150.16,127.52 149.92,127.65 149.69,127.75 C 149.45,127.85 149.22,127.91 148.97,127.91 C 148.71,127.9 148.45,127.85 148.22,127.75 C 147.98,127.65 147.77,127.49 147.59,127.31 C 147.41,127.13 147.25,126.92 147.16,126.69 C 147.06,126.45 147.03,126.19 147.03,125.94 C 147.03,125.68 147.09,125.42 147.19,125.19 C 147.29,124.95 147.41,124.74 147.59,124.56 C 147.78,124.38 147.98,124.22 148.22,124.13 C 148.46,124.03 148.71,124.0 148.97,124.0 z" />
		
		
		<text id="txtTwo" transform="matrix(1 0 0 1 150 160)" style="stroke:none;fill:#f00;font-family:'Eras Medium ITC';font-size:20px;text-anchor:middle"  >

		</text>
		<!-- Prism Reference -->
		<cam mingh:cam="--verb EditSelectAll --verb ZoomSelection --verb FileSave "/> 
	 </g>

</svg>