<svg
   xmlns:xlink="http://www.w3.org/1999/xlink"
   xmlns:svg="http://www.w3.org/2000/svg"
   xmlns="http://www.w3.org/2000/svg"
   xmlns:mingh="http://www.minghworld.com"
   width="300px"
   height="300px" >
	
	 <g>
		
		<!-- Paths -->
		<path style="fill:none;stroke:#000;stroke-width:0.25px;"
		 d="M 141.97,126.22 C 140.82,126.26 139.71,126.78 138.97,127.78 C 137.59,129.63 138.11,132.28 140.09,133.47 C 140.57,133.75 141.05,133.9 141.59,133.97 C 141.63,133.97 141.66,134.0 141.69,134.0 C 141.68,134.01 141.67,134.02 141.66,134.03 C 141.61,134.08 141.57,134.14 141.53,134.19 C 141.44,134.29 141.35,134.39 141.28,134.5 C 141.13,134.74 141.05,135.0 141.0,135.28 C 140.9,135.82 140.97,136.37 141.25,136.84 C 141.44,137.17 141.84,137.66 142.06,137.97 C 138.86,140.49 135.44,143.05 133.09,146.56 C 130.71,150.12 129.55,154.08 130.13,158.41 C 130.38,160.37 130.95,162.15 131.88,163.91 C 131.99,164.12 132.1,164.35 132.22,164.56 C 132.28,164.67 132.34,164.77 132.41,164.88 C 132.41,164.89 132.43,164.9 132.41,164.91 C 132.4,164.91 132.38,164.9 132.38,164.91 C 132.36,164.91 132.36,164.93 132.34,164.94 C 132.2,165.01 132.07,165.07 131.94,165.16 C 131.64,165.35 131.51,165.74 131.66,166.06 C 131.71,166.19 132.14,166.73 132.22,166.84 C 132.6,167.36 133.0,167.87 133.44,168.34 C 135.21,170.28 137.39,171.78 139.81,172.78 C 140.41,173.03 141.0,173.26 141.63,173.44 C 141.93,173.53 142.25,173.61 142.56,173.69 C 142.89,173.77 143.16,173.9 143.5,173.66 C 143.79,173.44 143.82,173.18 143.84,172.88 C 143.85,172.84 143.84,172.79 143.84,172.75 C 143.84,172.73 143.84,172.71 143.84,172.69 C 143.85,172.67 143.84,172.62 143.88,172.63 C 144.11,172.67 144.35,172.72 144.59,172.75 C 148.65,173.27 152.86,172.24 156.19,169.84 C 157.97,168.56 159.39,167.05 160.63,165.25 C 161.84,163.48 162.7,161.6 163.44,159.59 C 164.03,157.97 164.54,156.31 165.03,154.66 C 165.09,154.45 165.16,154.24 165.22,154.03 L 165.28,153.75 C 165.28,153.74 165.29,153.71 165.31,153.72 C 165.33,153.72 165.33,153.71 165.34,153.72 C 165.37,153.73 165.41,153.74 165.44,153.75 C 165.49,153.76 165.54,153.77 165.59,153.78 C 166.04,153.9 166.67,154.1 167.16,154.06 C 167.77,154.02 168.32,153.72 168.72,153.25 C 168.91,153.02 169.03,152.78 169.13,152.5 C 169.23,152.18 169.3,151.85 169.38,151.53 C 169.45,151.21 169.52,150.91 169.59,150.59 C 169.69,150.16 169.79,149.72 169.88,149.28 C 169.93,149.02 169.98,148.74 170.0,148.47 C 170.03,148.11 170.01,147.78 169.88,147.44 C 169.71,147.02 169.46,146.76 169.09,146.53 C 168.58,146.2 168.0,146.08 167.44,145.91 C 166.8,145.71 166.14,145.53 165.5,145.34 C 165.03,145.21 164.57,145.06 164.09,144.94 C 163.35,144.74 162.29,144.66 161.53,144.94 C 160.66,145.26 160.17,146.16 159.91,146.94 C 159.59,147.86 159.31,148.82 159.03,149.75 C 158.4,151.9 157.69,154.45 156.94,156.56 C 156.25,158.48 155.41,160.25 154.16,161.88 C 152.9,163.5 151.31,164.93 149.25,165.53 C 147.16,166.14 144.95,165.79 143.0,165.0 C 141.99,164.59 141.12,164.06 140.31,163.31 C 139.47,162.53 138.77,161.68 138.19,160.69 C 137.15,158.9 136.77,156.95 137.19,154.91 C 137.58,152.98 138.66,151.08 139.84,149.56 C 141.05,148.01 142.46,146.76 143.97,145.53 C 145.72,144.1 147.52,142.73 149.28,141.31 C 149.6,141.05 149.93,140.8 150.25,140.53 C 150.53,140.3 150.78,140.07 151.0,139.78 C 151.7,138.89 151.75,138.13 151.34,137.09 C 151.16,136.63 150.95,136.21 150.66,135.81 C 150.32,135.35 149.95,134.92 149.59,134.47 C 149.11,133.85 148.64,133.24 148.16,132.63 C 147.79,132.17 147.41,131.77 146.84,131.53 C 146.51,131.39 146.2,131.34 145.84,131.41 C 145.82,131.41 145.8,131.43 145.78,131.44 C 145.77,131.44 145.74,131.46 145.75,131.44 C 145.77,131.38 145.79,131.31 145.81,131.25 C 145.85,131.13 145.88,131.0 145.91,130.88 C 145.96,130.61 145.97,130.33 145.97,130.06 C 145.95,128.96 145.49,127.92 144.66,127.19 C 144.01,126.63 143.25,126.29 142.47,126.22 C 142.31,126.2 142.13,126.21 141.97,126.22 z M 142.09,128.16 C 142.35,128.16 142.61,128.21 142.84,128.31 C 143.08,128.41 143.29,128.54 143.47,128.72 C 143.65,128.9 143.81,129.11 143.91,129.34 C 144.0,129.58 144.03,129.84 144.03,130.09 C 144.03,130.35 144.0,130.61 143.91,130.84 C 143.81,131.08 143.65,131.29 143.47,131.47 C 143.29,131.65 143.08,131.81 142.84,131.91 C 142.61,132.0 142.35,132.06 142.09,132.06 C 141.84,132.06 141.58,132.0 141.34,131.91 C 141.11,131.81 140.9,131.65 140.72,131.47 C 140.54,131.29 140.38,131.08 140.28,130.84 C 140.18,130.61 140.16,130.35 140.16,130.09 C 140.16,129.84 140.18,129.58 140.28,129.34 C 140.38,129.11 140.54,128.9 140.72,128.72 C 140.9,128.54 141.11,128.41 141.34,128.31 C 141.58,128.21 141.84,128.16 142.09,128.16 z M 139.97,143.22 C 140.26,143.22 140.56,143.31 140.78,143.53 C 141.07,143.83 141.14,144.27 141.06,144.66 C 140.97,145.07 140.77,145.36 140.47,145.66 C 140.17,145.95 139.86,146.14 139.44,146.22 C 139.05,146.29 138.64,146.24 138.34,145.94 C 138.05,145.64 137.98,145.2 138.06,144.81 C 138.15,144.4 138.36,144.11 138.66,143.81 C 138.96,143.52 139.27,143.33 139.69,143.25 C 139.78,143.23 139.87,143.22 139.97,143.22 z M 136.56,147.09 C 136.76,147.1 136.95,147.17 137.13,147.28 C 137.48,147.51 137.62,147.92 137.63,148.31 C 137.63,148.74 137.51,149.05 137.28,149.41 C 137.05,149.76 136.77,150.02 136.38,150.19 C 136.01,150.34 135.6,150.35 135.25,150.13 C 134.9,149.9 134.75,149.49 134.75,149.09 C 134.75,148.67 134.86,148.35 135.09,148.0 C 135.32,147.65 135.58,147.39 135.97,147.22 C 136.15,147.14 136.37,147.09 136.56,147.09 z M 134.09,151.72 C 134.19,151.72 134.31,151.72 134.41,151.75 C 134.81,151.86 135.06,152.19 135.19,152.56 C 135.32,152.97 135.33,153.35 135.22,153.75 C 135.11,154.15 134.92,154.47 134.59,154.75 C 134.29,155.01 133.9,155.14 133.5,155.03 C 133.1,154.92 132.84,154.59 132.72,154.22 C 132.58,153.81 132.58,153.47 132.69,153.06 C 132.8,152.66 132.99,152.34 133.31,152.06 C 133.54,151.87 133.8,151.73 134.09,151.72 z M 133.63,156.88 C 133.92,156.91 134.2,157.07 134.41,157.28 C 134.71,157.59 134.86,157.93 134.94,158.34 C 135.01,158.76 134.98,159.11 134.81,159.5 C 134.66,159.86 134.38,160.17 133.97,160.25 C 133.56,160.33 133.15,160.13 132.88,159.84 C 132.58,159.54 132.45,159.23 132.38,158.81 C 132.3,158.4 132.3,158.05 132.47,157.66 C 132.62,157.29 132.93,156.98 133.34,156.91 C 133.45,156.89 133.53,156.86 133.63,156.88 z M 160.28,156.88 C 160.38,156.88 160.5,156.93 160.59,156.97 C 160.98,157.13 161.2,157.49 161.28,157.88 C 161.37,158.29 161.29,158.64 161.13,159.03 C 160.96,159.42 160.76,159.7 160.41,159.94 C 160.08,160.16 159.67,160.29 159.28,160.13 C 158.89,159.96 158.67,159.57 158.59,159.19 C 158.51,158.77 158.56,158.42 158.72,158.03 C 158.88,157.64 159.11,157.36 159.47,157.13 C 159.72,156.96 159.99,156.85 160.28,156.88 z M 157.91,161.56 C 158.1,161.57 158.3,161.63 158.47,161.75 C 158.81,161.99 158.95,162.39 158.94,162.78 C 158.93,163.21 158.8,163.56 158.56,163.91 C 158.32,164.25 158.05,164.47 157.66,164.63 C 157.29,164.77 156.87,164.77 156.53,164.53 C 156.19,164.29 156.05,163.89 156.06,163.5 C 156.07,163.07 156.2,162.75 156.44,162.41 C 156.68,162.06 156.95,161.81 157.34,161.66 C 157.53,161.59 157.71,161.55 157.91,161.56 z M 154.28,165.5 C 154.68,165.48 155.06,165.6 155.31,165.94 C 155.57,166.27 155.57,166.69 155.44,167.06 C 155.3,167.47 155.08,167.75 154.75,168.0 C 154.42,168.25 154.08,168.38 153.66,168.41 C 153.26,168.43 152.85,168.33 152.59,168.0 C 152.34,167.67 152.34,167.22 152.47,166.84 C 152.61,166.44 152.85,166.19 153.19,165.94 C 153.52,165.68 153.86,165.52 154.28,165.5 z M 149.63,167.84 C 149.82,167.86 149.99,167.89 150.19,167.97 C 150.55,168.12 150.86,168.43 150.94,168.84 C 151.02,169.26 150.84,169.63 150.56,169.91 C 150.26,170.21 149.94,170.36 149.53,170.44 C 149.12,170.52 148.77,170.51 148.38,170.34 C 148.01,170.19 147.67,169.91 147.59,169.5 C 147.51,169.09 147.72,168.69 148.0,168.41 C 148.3,168.1 148.62,167.96 149.03,167.88 C 149.24,167.83 149.43,167.83 149.63,167.84 z"
		 />
		 <path style="fill:#f00;stroke:none;"
		 d="M 142.88,135.27 C 142.73,135.48 142.7,135.77 142.79,136.02 C 142.89,136.27 143.1,136.47 143.28,136.69 C 143.47,136.91 143.62,137.13 143.78,137.35 C 143.94,137.58 144.11,137.8 144.28,138.02 C 144.45,138.24 144.61,138.46 144.78,138.68 C 144.94,138.9 145.11,139.13 145.27,139.35 C 145.44,139.57 145.6,139.78 145.77,140.01 C 145.93,140.24 146.09,140.48 146.32,140.62 C 146.55,140.76 146.86,140.79 147.12,140.72 C 147.38,140.64 147.6,140.46 147.82,140.28 C 148.03,140.1 148.25,139.93 148.46,139.76 C 148.68,139.59 148.89,139.41 149.1,139.23 C 149.32,139.05 149.55,138.87 149.68,138.64 C 149.81,138.41 149.85,138.13 149.79,137.87 C 149.74,137.61 149.6,137.36 149.44,137.12 C 149.29,136.89 149.12,136.67 148.95,136.45 C 148.78,136.23 148.61,136.01 148.44,135.8 C 148.27,135.58 148.1,135.37 147.93,135.15 C 147.76,134.93 147.59,134.71 147.42,134.5 C 147.24,134.29 147.07,134.09 146.9,133.85 C 146.73,133.6 146.57,133.32 146.35,133.23 C 146.13,133.14 145.86,133.26 145.62,133.4 C 145.37,133.53 145.15,133.69 144.92,133.85 C 144.7,134.01 144.46,134.16 144.24,134.32 C 144.02,134.48 143.81,134.65 143.56,134.8 C 143.31,134.94 143.03,135.07 142.88,135.27 z M 141.9,134.02 C 142.16,133.81 142.44,133.64 142.71,133.45 C 142.98,133.26 143.25,133.07 143.52,132.88 C 144.06,132.51 144.58,132.12 145.17,131.81 C 145.79,131.49 146.41,131.41 147.05,131.78 C 147.66,132.13 148.0,132.67 148.41,133.19 C 148.82,133.7 149.23,134.22 149.64,134.74 C 149.91,135.08 150.59,135.94 150.82,136.32 C 151.13,136.83 151.43,137.54 151.46,138.16 C 151.5,138.86 151.12,139.45 150.69,139.92 C 150.3,140.36 149.83,140.7 149.38,141.07 C 149.15,141.25 148.93,141.43 148.7,141.61 C 148.32,141.91 148.03,142.12 147.54,142.26 C 146.93,142.43 146.27,142.37 145.69,142.09 C 144.97,141.74 144.7,141.25 144.26,140.66 C 143.48,139.6 142.68,138.56 141.9,137.5 C 141.49,136.94 141.12,136.55 141.09,135.78 C 141.06,135.1 141.36,134.44 141.9,134.02 z M 167.49,151.95 C 167.62,151.73 167.63,151.42 167.68,151.14 C 167.72,150.86 167.8,150.6 167.87,150.33 C 167.93,150.06 167.99,149.79 168.05,149.52 C 168.11,149.25 168.18,148.99 168.22,148.71 C 168.26,148.43 168.26,148.14 168.1,147.97 C 167.94,147.8 167.61,147.75 167.32,147.68 C 167.04,147.62 166.79,147.53 166.53,147.45 C 166.27,147.36 166.0,147.29 165.74,147.21 C 165.47,147.13 165.21,147.05 164.94,146.97 C 164.68,146.9 164.41,146.82 164.14,146.74 C 163.88,146.67 163.62,146.59 163.34,146.54 C 163.07,146.48 162.78,146.44 162.51,146.49 C 162.25,146.54 162.01,146.67 161.84,146.88 C 161.68,147.09 161.59,147.36 161.5,147.63 C 161.42,147.9 161.33,148.16 161.25,148.42 C 161.17,148.69 161.1,148.95 161.01,149.22 C 160.93,149.49 160.83,149.76 160.86,150.03 C 160.89,150.3 161.04,150.57 161.25,150.73 C 161.47,150.9 161.75,150.96 162.02,151.02 C 162.29,151.09 162.55,151.16 162.82,151.24 C 163.09,151.31 163.35,151.38 163.62,151.45 C 163.89,151.52 164.16,151.59 164.42,151.67 C 164.69,151.74 164.96,151.82 165.22,151.88 C 165.49,151.95 165.76,152.01 166.02,152.1 C 166.29,152.19 166.56,152.31 166.83,152.3 C 167.09,152.3 167.35,152.16 167.49,151.95 z M 169.02,152.39 C 168.82,153.05 168.33,153.57 167.68,153.79 C 166.95,154.05 166.46,153.86 165.79,153.68 C 164.51,153.35 163.25,153.0 161.98,152.66 C 161.26,152.47 160.71,152.4 160.12,151.86 C 159.64,151.43 159.35,150.84 159.27,150.2 C 159.22,149.71 159.31,149.36 159.45,148.89 C 159.53,148.62 159.61,148.34 159.7,148.06 C 159.87,147.5 160.01,146.94 160.27,146.42 C 160.56,145.84 160.96,145.28 161.62,145.05 C 162.21,144.85 162.98,144.86 163.58,144.96 C 164.01,145.03 165.06,145.35 165.48,145.47 C 166.11,145.66 166.74,145.85 167.37,146.03 C 168.01,146.22 168.63,146.35 169.19,146.78 C 169.77,147.23 169.93,147.84 169.86,148.53 C 169.79,149.19 169.62,149.83 169.47,150.47 C 169.4,150.79 169.32,151.11 169.25,151.43 C 169.17,151.75 169.11,152.07 169.02,152.39 z M 135.45,164.98 C 135.0,164.4 134.23,164.16 133.53,164.38 C 133.36,164.43 133.2,164.51 133.04,164.59 C 132.96,164.63 132.87,164.68 132.79,164.72 C 132.75,164.74 132.7,164.76 132.66,164.78 C 132.64,164.79 132.62,164.8 132.6,164.81 C 132.59,164.82 132.58,164.82 132.57,164.83 C 132.54,164.84 132.55,164.81 132.54,164.8 C 132.3,164.41 132.08,164.01 131.87,163.59 C 131.85,163.56 131.84,163.53 131.82,163.5 C 131.8,163.46 131.85,163.46 131.87,163.44 C 131.93,163.42 131.98,163.39 132.04,163.36 C 132.16,163.3 132.27,163.25 132.38,163.19 C 132.72,163.02 133.06,162.87 133.44,162.8 C 134.35,162.64 135.29,162.85 136.03,163.4 C 136.45,163.71 136.73,164.12 137.06,164.5 C 137.29,164.76 137.52,165.01 137.77,165.25 C 138.27,165.74 138.8,166.18 139.37,166.58 C 139.97,167.01 140.6,167.37 141.27,167.69 C 141.6,167.84 141.93,167.98 142.27,168.1 C 142.44,168.17 142.61,168.23 142.78,168.28 C 143.04,168.36 143.3,168.43 143.54,168.54 C 144.33,168.9 144.95,169.56 145.26,170.37 C 145.54,171.1 145.49,171.66 145.43,172.4 C 145.42,172.45 145.42,172.5 145.41,172.55 C 145.41,172.58 145.41,172.6 145.41,172.63 C 145.41,172.65 145.42,172.69 145.38,172.68 C 145.27,172.68 145.16,172.67 145.04,172.65 C 144.82,172.63 144.6,172.6 144.37,172.57 C 144.26,172.56 144.15,172.54 144.04,172.52 C 143.98,172.51 143.93,172.5 143.87,172.49 C 143.84,172.49 143.87,172.44 143.87,172.43 C 143.87,172.4 143.87,172.38 143.88,172.36 C 143.89,172.17 143.91,171.99 143.92,171.8 C 143.98,171.07 143.7,170.4 143.04,170.02 C 142.87,169.92 142.68,169.87 142.49,169.81 C 142.31,169.76 142.13,169.7 141.95,169.63 C 141.59,169.51 141.23,169.37 140.88,169.21 C 140.17,168.9 139.49,168.53 138.84,168.1 C 137.53,167.24 136.42,166.22 135.45,164.98 z"
		 />
		 
		<!-- Prism Reference -->
		<cam mingh:cam="--verb EditSelectAll --verb ZoomSelection --verb FileSave" /> 
	 </g>

</svg>
