<svg
   xmlns:xlink="http://www.w3.org/1999/xlink"
   xmlns:svg="http://www.w3.org/2000/svg"
   xmlns="http://www.w3.org/2000/svg"
   xmlns:mingh="http://www.minghworld.com"
   width="300px"
   height="300px" >
	 <g>
		<!-- Paths -->
		<path transform="matrix(-1 0 0 1 300 0)" style="fill:#ff0;stroke:none;"
		 d="M 141.97,126.22 C 140.82,126.26 139.71,126.78 138.97,127.78 C 137.59,129.63 138.11,132.28 140.09,133.47 C 140.57,133.75 141.05,133.9 141.59,133.97 C 141.63,133.97 141.66,134.0 141.69,134.0 C 141.68,134.01 141.67,134.02 141.66,134.03 C 141.61,134.08 141.57,134.14 141.53,134.19 C 141.44,134.29 141.35,134.39 141.28,134.5 C 141.13,134.74 141.05,135.0 141.0,135.28 C 140.9,135.82 140.97,136.37 141.25,136.84 C 141.44,137.17 141.84,137.66 142.06,137.97 C 138.86,140.49 135.44,143.05 133.09,146.56 C 130.71,150.12 129.55,154.08 130.13,158.41 C 130.38,160.37 130.95,162.15 131.88,163.91 C 131.99,164.12 132.1,164.35 132.22,164.56 C 132.28,164.67 132.34,164.77 132.41,164.88 C 132.41,164.89 132.43,164.9 132.41,164.91 C 132.4,164.91 132.38,164.9 132.38,164.91 C 132.36,164.91 132.36,164.93 132.34,164.94 C 132.2,165.01 132.07,165.07 131.94,165.16 C 131.64,165.35 131.51,165.74 131.66,166.06 C 131.71,166.19 132.14,166.73 132.22,166.84 C 132.6,167.36 133.0,167.87 133.44,168.34 C 135.21,170.28 137.39,171.78 139.81,172.78 C 140.41,173.03 141.0,173.26 141.63,173.44 C 141.93,173.53 142.25,173.61 142.56,173.69 C 142.89,173.77 143.16,173.9 143.5,173.66 C 143.79,173.44 143.82,173.18 143.84,172.88 C 143.85,172.84 143.84,172.79 143.84,172.75 C 143.84,172.73 143.84,172.71 143.84,172.69 C 143.85,172.67 143.84,172.62 143.88,172.63 C 144.11,172.67 144.35,172.72 144.59,172.75 C 148.65,173.27 152.86,172.24 156.19,169.84 C 157.97,168.56 159.39,167.05 160.63,165.25 C 161.84,163.48 162.7,161.6 163.44,159.59 C 164.03,157.97 164.54,156.31 165.03,154.66 C 165.09,154.45 165.16,154.24 165.22,154.03 L 165.28,153.75 C 165.28,153.74 165.29,153.71 165.31,153.72 C 165.33,153.72 165.33,153.71 165.34,153.72 C 165.37,153.73 165.41,153.74 165.44,153.75 C 165.49,153.76 165.54,153.77 165.59,153.78 C 166.04,153.9 166.67,154.1 167.16,154.06 C 167.77,154.02 168.32,153.72 168.72,153.25 C 168.91,153.02 169.03,152.78 169.13,152.5 C 169.23,152.18 169.3,151.85 169.38,151.53 C 169.45,151.21 169.52,150.91 169.59,150.59 C 169.69,150.16 169.79,149.72 169.88,149.28 C 169.93,149.02 169.98,148.74 170.0,148.47 C 170.03,148.11 170.01,147.78 169.88,147.44 C 169.71,147.02 169.46,146.76 169.09,146.53 C 168.58,146.2 168.0,146.08 167.44,145.91 C 166.8,145.71 166.14,145.53 165.5,145.34 C 165.03,145.21 164.57,145.06 164.09,144.94 C 163.35,144.74 162.29,144.66 161.53,144.94 C 160.66,145.26 160.17,146.16 159.91,146.94 C 159.59,147.86 159.31,148.82 159.03,149.75 C 158.4,151.9 157.69,154.45 156.94,156.56 C 156.25,158.48 155.41,160.25 154.16,161.88 C 152.9,163.5 151.31,164.93 149.25,165.53 C 147.16,166.14 144.95,165.79 143.0,165.0 C 141.99,164.59 141.12,164.06 140.31,163.31 C 139.47,162.53 138.77,161.68 138.19,160.69 C 137.15,158.9 136.77,156.95 137.19,154.91 C 137.58,152.98 138.66,151.08 139.84,149.56 C 141.05,148.01 142.46,146.76 143.97,145.53 C 145.72,144.1 147.52,142.73 149.28,141.31 C 149.6,141.05 149.93,140.8 150.25,140.53 C 150.53,140.3 150.78,140.07 151.0,139.78 C 151.7,138.89 151.75,138.13 151.34,137.09 C 151.16,136.63 150.95,136.21 150.66,135.81 C 150.32,135.35 149.95,134.92 149.59,134.47 C 149.11,133.85 148.64,133.24 148.16,132.63 C 147.79,132.17 147.41,131.77 146.84,131.53 C 146.51,131.39 146.2,131.34 145.84,131.41 C 145.82,131.41 145.8,131.43 145.78,131.44 C 145.77,131.44 145.74,131.46 145.75,131.44 C 145.77,131.38 145.79,131.31 145.81,131.25 C 145.85,131.13 145.88,131.0 145.91,130.88 C 145.96,130.61 145.97,130.33 145.97,130.06 C 145.95,128.96 145.49,127.92 144.66,127.19 C 144.01,126.63 143.25,126.29 142.47,126.22 C 142.31,126.2 142.13,126.21 141.97,126.22 z M 142.09,128.16 C 142.35,128.16 142.61,128.21 142.84,128.31 C 143.08,128.41 143.29,128.54 143.47,128.72 C 143.65,128.9 143.81,129.11 143.91,129.34 C 144.0,129.58 144.03,129.84 144.03,130.09 C 144.03,130.35 144.0,130.61 143.91,130.84 C 143.81,131.08 143.65,131.29 143.47,131.47 C 143.29,131.65 143.08,131.81 142.84,131.91 C 142.61,132.0 142.35,132.06 142.09,132.06 C 141.84,132.06 141.58,132.0 141.34,131.91 C 141.11,131.81 140.9,131.65 140.72,131.47 C 140.54,131.29 140.38,131.08 140.28,130.84 C 140.18,130.61 140.16,130.35 140.16,130.09 C 140.16,129.84 140.18,129.58 140.28,129.34 C 140.38,129.11 140.54,128.9 140.72,128.72 C 140.9,128.54 141.11,128.41 141.34,128.31 C 141.58,128.21 141.84,128.16 142.09,128.16 z M 139.97,143.22 C 140.26,143.22 140.56,143.31 140.78,143.53 C 141.07,143.83 141.14,144.27 141.06,144.66 C 140.97,145.07 140.77,145.36 140.47,145.66 C 140.17,145.95 139.86,146.14 139.44,146.22 C 139.05,146.29 138.64,146.24 138.34,145.94 C 138.05,145.64 137.98,145.2 138.06,144.81 C 138.15,144.4 138.36,144.11 138.66,143.81 C 138.96,143.52 139.27,143.33 139.69,143.25 C 139.78,143.23 139.87,143.22 139.97,143.22 z M 136.56,147.09 C 136.76,147.1 136.95,147.17 137.13,147.28 C 137.48,147.51 137.62,147.92 137.63,148.31 C 137.63,148.74 137.51,149.05 137.28,149.41 C 137.05,149.76 136.77,150.02 136.38,150.19 C 136.01,150.34 135.6,150.35 135.25,150.13 C 134.9,149.9 134.75,149.49 134.75,149.09 C 134.75,148.67 134.86,148.35 135.09,148.0 C 135.32,147.65 135.58,147.39 135.97,147.22 C 136.15,147.14 136.37,147.09 136.56,147.09 z M 134.09,151.72 C 134.19,151.72 134.31,151.72 134.41,151.75 C 134.81,151.86 135.06,152.19 135.19,152.56 C 135.32,152.97 135.33,153.35 135.22,153.75 C 135.11,154.15 134.92,154.47 134.59,154.75 C 134.29,155.01 133.9,155.14 133.5,155.03 C 133.1,154.92 132.84,154.59 132.72,154.22 C 132.58,153.81 132.58,153.47 132.69,153.06 C 132.8,152.66 132.99,152.34 133.31,152.06 C 133.54,151.87 133.8,151.73 134.09,151.72 z M 133.63,156.88 C 133.92,156.91 134.2,157.07 134.41,157.28 C 134.71,157.59 134.86,157.93 134.94,158.34 C 135.01,158.76 134.98,159.11 134.81,159.5 C 134.66,159.86 134.38,160.17 133.97,160.25 C 133.56,160.33 133.15,160.13 132.88,159.84 C 132.58,159.54 132.45,159.23 132.38,158.81 C 132.3,158.4 132.3,158.05 132.47,157.66 C 132.62,157.29 132.93,156.98 133.34,156.91 C 133.45,156.89 133.53,156.86 133.63,156.88 z M 160.28,156.88 C 160.38,156.88 160.5,156.93 160.59,156.97 C 160.98,157.13 161.2,157.49 161.28,157.88 C 161.37,158.29 161.29,158.64 161.13,159.03 C 160.96,159.42 160.76,159.7 160.41,159.94 C 160.08,160.16 159.67,160.29 159.28,160.13 C 158.89,159.96 158.67,159.57 158.59,159.19 C 158.51,158.77 158.56,158.42 158.72,158.03 C 158.88,157.64 159.11,157.36 159.47,157.13 C 159.72,156.96 159.99,156.85 160.28,156.88 z M 157.91,161.56 C 158.1,161.57 158.3,161.63 158.47,161.75 C 158.81,161.99 158.95,162.39 158.94,162.78 C 158.93,163.21 158.8,163.56 158.56,163.91 C 158.32,164.25 158.05,164.47 157.66,164.63 C 157.29,164.77 156.87,164.77 156.53,164.53 C 156.19,164.29 156.05,163.89 156.06,163.5 C 156.07,163.07 156.2,162.75 156.44,162.41 C 156.68,162.06 156.95,161.81 157.34,161.66 C 157.53,161.59 157.71,161.55 157.91,161.56 z M 154.28,165.5 C 154.68,165.48 155.06,165.6 155.31,165.94 C 155.57,166.27 155.57,166.69 155.44,167.06 C 155.3,167.47 155.08,167.75 154.75,168.0 C 154.42,168.25 154.08,168.38 153.66,168.41 C 153.26,168.43 152.85,168.33 152.59,168.0 C 152.34,167.67 152.34,167.22 152.47,166.84 C 152.61,166.44 152.85,166.19 153.19,165.94 C 153.52,165.68 153.86,165.52 154.28,165.5 z M 149.63,167.84 C 149.82,167.86 149.99,167.89 150.19,167.97 C 150.55,168.12 150.86,168.43 150.94,168.84 C 151.02,169.26 150.84,169.63 150.56,169.91 C 150.26,170.21 149.94,170.36 149.53,170.44 C 149.12,170.52 148.77,170.51 148.38,170.34 C 148.01,170.19 147.67,169.91 147.59,169.5 C 147.51,169.09 147.72,168.69 148.0,168.41 C 148.3,168.1 148.62,167.96 149.03,167.88 C 149.24,167.83 149.43,167.83 149.63,167.84 z" />
		<text id="txtTwo" transform="matrix(1 0 0 1 150 160)" style="stroke:none;fill:#f00;font-family:'Eras Medium ITC';font-size:20px;text-anchor:middle"  >
		</text>
		<!-- Prism Reference -->
		<cam mingh:cam=" --verb EditSelectAll --verb ZoomSelection --verb FileSave "/> 
	 </g>

</svg>