<svg
   xmlns:xlink="http://www.w3.org/1999/xlink"
   xmlns:svg="http://www.w3.org/2000/svg"
   xmlns="http://www.w3.org/2000/svg"
   xmlns:mingh="http://www.minghworld.com"
   width="300px"
   height="300px" >
   
	 <g>
		<!-- Paths -->
		<path style="fill:none;stroke:#000;stroke-width:0.25px;"
		 d="M 148.47,120.09 C 148.12,120.1 147.77,120.14 147.41,120.25 C 146.09,120.64 145.1,121.68 144.75,123.0 C 144.57,123.71 144.55,124.36 144.75,125.06 C 144.76,125.11 144.8,125.15 144.81,125.19 C 144.82,125.2 144.83,125.27 144.81,125.28 C 144.79,125.3 144.77,125.33 144.75,125.34 C 144.7,125.37 144.67,125.38 144.63,125.41 C 144.53,125.47 144.43,125.56 144.34,125.63 C 143.64,126.17 143.14,126.8 142.66,127.53 C 141.76,128.89 141.23,130.29 141.03,131.91 C 140.72,134.41 141.29,137.02 142.19,139.31 C 142.7,140.62 143.34,141.86 144.06,143.06 C 144.45,143.71 144.86,144.32 145.28,144.94 C 145.5,145.26 145.71,145.59 145.94,145.91 C 145.97,145.95 146.0,145.99 146.03,146.03 C 146.06,146.07 146.12,146.06 146.09,146.13 C 146.05,146.21 146.01,146.29 145.97,146.38 C 145.89,146.54 145.8,146.71 145.72,146.88 C 145.64,147.04 145.55,147.18 145.47,147.34 C 145.46,147.36 145.45,147.39 145.44,147.41 C 145.43,147.4 145.42,147.38 145.41,147.38 C 145.37,147.36 145.32,147.33 145.28,147.31 C 145.2,147.28 145.11,147.25 145.03,147.22 C 144.7,147.08 144.38,146.99 144.03,146.94 C 143.76,146.89 143.5,146.86 143.22,146.94 C 143.05,146.99 142.92,147.03 142.84,147.22 C 142.77,147.42 142.82,147.58 142.91,147.75 C 143.04,148.02 143.25,148.24 143.47,148.44 C 143.74,148.68 144.0,148.86 144.31,149.03 C 144.39,149.07 144.49,149.12 144.56,149.16 C 144.58,149.17 144.54,149.21 144.53,149.22 C 144.52,149.24 144.51,149.26 144.5,149.28 C 144.48,149.32 144.46,149.37 144.44,149.41 C 144.42,149.45 144.4,149.46 144.38,149.5 C 144.36,149.52 144.35,149.54 144.34,149.56 C 144.33,149.59 144.33,149.57 144.31,149.56 C 144.23,149.52 144.14,149.5 144.06,149.47 C 143.55,149.24 142.78,148.97 142.19,149.09 C 141.78,149.18 141.62,149.44 141.78,149.84 C 142.0,150.4 142.63,150.88 143.09,151.16 C 143.17,151.2 143.27,151.24 143.34,151.28 C 143.38,151.3 143.4,151.32 143.44,151.34 C 143.46,151.36 143.45,151.36 143.44,151.38 L 143.41,151.44 C 143.33,151.6 143.27,151.78 143.19,151.94 C 143.03,152.26 142.85,152.58 142.69,152.91 C 140.61,157.04 138.52,161.15 136.44,165.28 C 135.4,167.35 134.35,169.43 133.31,171.5 C 133.05,172.02 132.79,172.54 132.53,173.06 C 132.16,173.81 131.83,174.34 132.0,175.25 C 132.36,177.22 134.77,177.95 136.19,176.53 C 136.59,176.13 136.79,175.64 137.03,175.16 C 137.13,174.95 137.24,174.77 137.34,174.56 C 137.39,174.46 137.45,174.35 137.5,174.25 C 137.53,174.2 137.54,174.14 137.56,174.09 C 137.58,174.07 137.58,174.06 137.59,174.03 C 137.6,174.02 137.62,174.01 137.63,174.0 C 137.63,173.99 137.62,173.97 137.63,173.97 C 137.63,173.95 137.65,173.96 137.66,173.97 C 137.67,173.97 137.71,173.99 137.72,174.0 C 137.74,174.01 137.76,174.02 137.78,174.03 C 138.17,174.23 138.55,174.43 138.94,174.63 C 139.13,174.72 139.34,174.81 139.53,174.91 C 139.58,174.93 139.64,174.98 139.69,175.0 C 139.7,175.01 139.71,174.99 139.72,175.0 C 139.72,175.0 139.71,175.03 139.72,175.03 C 139.72,175.03 139.75,175.04 139.75,175.03 C 139.75,175.03 139.75,175.0 139.75,175.0 C 139.76,174.98 139.77,174.98 139.78,174.97 C 139.84,174.84 139.91,174.72 139.97,174.59 C 140.1,174.34 140.22,174.09 140.34,173.84 C 140.47,173.59 140.59,173.34 140.72,173.09 C 140.84,172.85 140.94,172.59 141.19,172.41 C 141.66,172.05 142.32,172.24 142.5,172.81 C 142.59,173.12 142.51,173.36 142.38,173.63 C 142.25,173.88 142.13,174.12 142.0,174.38 C 141.87,174.63 141.75,174.87 141.63,175.13 L 141.44,175.5 C 141.41,175.56 141.38,175.62 141.34,175.69 C 141.33,175.72 141.3,175.75 141.28,175.78 C 141.26,175.81 141.36,175.83 141.38,175.84 C 141.9,176.11 142.41,176.36 142.94,176.63 C 145.04,177.68 147.12,178.76 149.22,179.81 C 149.28,179.85 149.37,179.87 149.44,179.91 C 149.5,179.94 149.48,179.89 149.5,179.84 C 149.52,179.8 149.54,179.79 149.56,179.75 C 149.64,179.59 149.73,179.44 149.81,179.28 C 149.97,178.97 150.12,178.66 150.28,178.34 C 150.59,177.72 150.91,177.09 151.22,176.47 C 151.53,175.86 151.52,175.07 151.0,174.56 C 150.51,174.08 149.77,174.1 149.22,174.47 C 148.81,174.74 148.64,175.12 148.44,175.53 C 148.33,175.74 148.23,175.95 148.13,176.16 C 148.02,176.36 147.93,176.56 147.81,176.75 C 147.52,177.22 146.74,176.97 146.69,176.44 C 146.67,176.23 146.83,175.97 146.91,175.81 C 147.01,175.61 147.12,175.42 147.22,175.22 C 147.42,174.81 147.64,174.38 147.84,173.97 C 147.94,173.77 148.07,173.58 148.09,173.34 C 148.12,173.06 148.05,172.87 147.88,172.66 C 147.71,172.46 147.52,172.35 147.28,172.28 C 147.12,172.23 146.96,172.19 146.78,172.22 C 146.6,172.25 146.42,172.44 146.31,172.56 C 146.05,172.86 145.86,173.21 145.59,173.5 C 145.4,173.71 145.09,174.02 144.75,174.0 C 144.39,173.98 144.39,173.57 144.41,173.31 C 144.45,172.67 144.75,171.95 145.0,171.38 C 145.3,170.68 145.65,170.02 146.09,169.41 C 146.28,169.15 146.48,168.91 146.72,168.69 C 146.86,168.55 146.98,168.43 147.19,168.38 C 147.46,168.31 147.62,168.59 147.66,168.81 C 147.72,169.19 147.61,169.5 147.5,169.84 C 147.41,170.12 147.18,170.79 147.28,171.13 C 147.32,171.27 147.43,171.34 147.53,171.44 C 147.71,171.6 147.88,171.73 148.13,171.78 C 148.4,171.84 148.6,171.8 148.84,171.66 C 149.06,171.53 149.18,171.33 149.28,171.13 C 149.49,170.72 149.7,170.32 149.91,169.91 C 150.01,169.7 150.08,169.49 150.19,169.28 C 150.22,169.21 150.47,168.75 150.53,168.69 C 150.89,168.27 151.62,168.62 151.59,169.16 C 151.59,169.3 151.37,169.63 151.31,169.75 C 151.21,169.95 151.13,170.17 151.03,170.38 C 150.88,170.68 150.68,170.95 150.59,171.28 C 150.5,171.64 150.51,171.97 150.66,172.31 C 150.91,172.92 151.54,173.28 152.19,173.16 C 152.56,173.09 152.81,172.93 153.06,172.66 C 153.3,172.4 153.41,172.08 153.56,171.78 C 153.87,171.17 154.19,170.55 154.5,169.94 C 154.66,169.63 154.81,169.31 154.97,169.0 C 155.01,168.92 155.06,168.86 155.09,168.78 C 155.1,168.77 155.11,168.76 155.09,168.75 C 155.09,168.75 155.07,168.75 155.06,168.75 C 155.05,168.74 155.02,168.73 155.0,168.72 C 154.97,168.7 154.94,168.67 154.91,168.66 C 154.78,168.59 154.66,168.53 154.53,168.47 C 154.01,168.21 153.49,167.95 152.97,167.69 C 151.93,167.17 150.88,166.65 149.84,166.13 C 149.32,165.86 148.83,165.6 148.31,165.34 C 148.05,165.21 147.79,165.07 147.53,164.94 C 147.4,164.87 147.25,164.82 147.13,164.75 C 147.06,164.72 147.0,164.69 146.94,164.66 C 146.92,164.65 146.92,164.63 146.91,164.66 C 146.9,164.67 146.88,164.67 146.88,164.69 C 146.86,164.72 146.83,164.75 146.81,164.78 C 146.56,165.28 146.31,165.78 146.06,166.28 C 146.0,166.41 145.94,166.53 145.88,166.66 C 145.81,166.78 145.76,166.88 145.69,167.0 C 145.54,167.24 145.29,167.41 145.0,167.44 C 144.41,167.49 144.0,166.94 144.13,166.38 C 144.16,166.21 144.4,165.77 144.47,165.63 C 144.59,165.38 144.72,165.12 144.84,164.88 C 144.97,164.63 145.09,164.37 145.22,164.13 C 145.25,164.06 145.28,164.0 145.31,163.94 C 145.33,163.91 145.36,163.87 145.38,163.84 C 145.38,163.83 145.35,163.85 145.34,163.84 C 145.33,163.84 145.32,163.82 145.31,163.81 C 145.29,163.8 145.24,163.79 145.22,163.78 C 145.17,163.76 145.14,163.74 145.09,163.72 C 145.0,163.67 144.91,163.61 144.81,163.56 C 144.43,163.37 144.04,163.19 143.66,163.0 C 143.56,162.95 143.44,162.89 143.34,162.84 C 143.32,162.83 143.31,162.82 143.28,162.81 C 143.28,162.81 143.29,162.78 143.28,162.78 C 143.29,162.76 143.3,162.71 143.31,162.69 L 143.91,161.5 C 145.16,159.0 146.43,156.5 147.69,154.0 C 147.73,153.92 147.77,153.83 147.81,153.75 C 147.83,153.71 147.86,153.7 147.88,153.66 C 147.88,153.64 147.9,153.61 147.91,153.59 C 147.92,153.56 147.92,153.59 147.94,153.59 C 148.09,153.67 148.25,153.75 148.41,153.81 C 148.73,153.94 149.07,154.02 149.41,154.06 C 149.72,154.1 150.34,154.17 150.5,153.75 C 150.57,153.56 150.52,153.42 150.44,153.25 C 150.31,152.99 150.15,152.79 149.94,152.59 C 149.68,152.36 149.39,152.17 149.09,152.0 C 149.02,151.96 148.95,151.91 148.88,151.88 C 148.84,151.86 148.78,151.84 148.81,151.78 C 148.83,151.74 148.82,151.73 148.84,151.69 C 148.88,151.61 148.93,151.52 148.97,151.44 C 148.98,151.42 148.97,151.39 149.0,151.41 C 149.02,151.42 149.04,151.43 149.06,151.44 C 149.1,151.46 149.15,151.45 149.19,151.47 C 149.71,151.71 150.43,151.97 151.03,151.91 C 151.39,151.87 151.72,151.67 151.63,151.25 C 151.57,151.0 151.41,150.84 151.25,150.66 C 151.03,150.4 150.78,150.19 150.5,150.0 C 150.36,149.9 150.22,149.8 150.06,149.72 C 150.03,149.7 149.97,149.68 149.94,149.66 C 149.92,149.65 149.89,149.63 149.88,149.63 C 149.85,149.61 149.9,149.6 149.91,149.59 C 149.95,149.52 149.99,149.42 150.03,149.34 C 150.19,149.03 150.34,148.72 150.5,148.41 C 150.51,148.39 150.52,148.36 150.53,148.34 C 150.55,148.32 150.57,148.34 150.59,148.34 C 150.64,148.34 150.67,148.34 150.72,148.34 L 151.0,148.34 C 151.19,148.34 151.4,148.32 151.59,148.31 C 151.97,148.3 152.32,148.3 152.69,148.28 C 153.4,148.24 154.13,148.18 154.84,148.09 C 156.18,147.93 157.46,147.69 158.75,147.31 C 160.95,146.67 163.2,145.6 164.91,144.0 C 165.78,143.18 166.45,142.26 167.0,141.19 C 167.55,140.1 168.02,138.71 168.03,137.47 C 168.05,136.11 167.56,134.76 166.81,133.66 C 166.07,132.55 165.09,131.68 163.88,131.13 C 161.37,129.99 158.69,130.48 156.31,131.38 C 155.84,129.72 155.16,128.11 154.0,126.78 C 153.72,126.47 153.42,126.18 153.09,125.91 C 152.94,125.77 152.79,125.65 152.63,125.53 C 152.54,125.47 152.43,125.4 152.34,125.34 C 152.3,125.32 152.26,125.31 152.22,125.28 C 152.21,125.27 152.18,125.27 152.19,125.25 C 152.2,125.21 152.24,125.16 152.25,125.13 C 152.27,125.05 152.29,124.99 152.31,124.91 C 152.92,122.35 150.91,120.05 148.47,120.09 z M 148.66,122.03 C 148.91,122.05 149.15,122.14 149.38,122.25 C 149.6,122.36 149.83,122.53 150.0,122.72 C 150.17,122.91 150.29,123.13 150.38,123.38 C 150.46,123.62 150.49,123.87 150.47,124.13 C 150.45,124.38 150.36,124.65 150.25,124.88 C 150.14,125.1 149.97,125.3 149.78,125.47 C 149.59,125.64 149.37,125.76 149.13,125.84 C 148.88,125.92 148.63,125.96 148.38,125.94 C 148.12,125.92 147.85,125.83 147.63,125.72 C 147.4,125.6 147.2,125.44 147.03,125.25 C 146.86,125.06 146.74,124.84 146.66,124.59 C 146.58,124.35 146.54,124.1 146.56,123.84 C 146.58,123.59 146.67,123.35 146.78,123.13 C 146.9,122.9 147.06,122.67 147.25,122.5 C 147.44,122.33 147.66,122.21 147.91,122.13 C 148.15,122.05 148.4,122.01 148.66,122.03 z"
		 />
		 
		 <path style="fill:#f00;stroke:none;"
		 d="M 155.89,140.23 C 155.7,140.09 155.5,139.97 155.29,139.88 C 154.75,139.66 154.14,139.63 153.57,139.77 C 153.0,139.91 152.47,140.22 152.13,140.73 C 151.71,141.35 151.58,142.28 152.06,142.89 C 152.33,143.25 152.8,143.5 153.23,143.44 C 153.54,143.4 153.83,143.2 153.97,142.93 C 154.09,142.72 154.12,142.48 153.99,142.26 C 153.9,142.11 153.74,141.97 153.77,141.85 C 153.8,141.73 154.02,141.62 154.22,141.64 C 154.62,141.69 154.89,142.27 154.96,142.81 C 155.05,143.49 154.82,144.11 154.53,144.59 C 153.9,145.65 153.02,146.06 152.06,146.22 C 151.4,146.25 150.75,146.26 150.1,146.25 C 151.18,145.65 151.71,145.43 151.71,145.05 C 151.72,144.59 150.96,143.88 150.8,142.29 C 149.43,143.11 148.41,142.92 148.05,143.2 C 147.74,143.44 147.88,143.99 148.04,145.21 C 147.65,144.69 147.27,144.16 146.9,143.63 C 146.45,142.76 146.26,141.8 146.74,140.67 C 146.95,140.15 147.31,139.59 147.91,139.26 C 148.38,138.99 149.01,138.87 149.29,139.16 C 149.42,139.31 149.47,139.55 149.39,139.64 C 149.31,139.73 149.1,139.69 148.93,139.71 C 148.68,139.74 148.5,139.91 148.4,140.12 C 148.27,140.4 148.28,140.75 148.43,141.03 C 148.64,141.4 149.12,141.63 149.57,141.64 C 150.34,141.66 151.01,141.01 151.27,140.3 C 151.47,139.72 151.4,139.11 151.17,138.56 C 150.95,138.02 150.57,137.55 150.06,137.25 C 149.86,137.14 149.65,137.04 149.42,136.98 C 148.92,136.87 148.38,136.99 147.9,137.2 C 147.46,137.39 147.08,137.65 146.74,137.97 C 146.33,138.38 145.98,138.87 145.81,139.42 C 145.67,139.86 145.65,140.33 145.69,140.8 C 145.74,141.38 145.89,141.94 146.14,142.46 C 145.82,141.95 145.6,141.38 145.48,140.79 C 145.4,140.43 145.37,140.05 145.4,139.69 C 145.46,139.13 145.66,138.59 145.98,138.13 C 146.56,137.28 147.52,136.69 148.53,136.49 C 148.53,136.49 148.53,136.48 148.54,136.48 C 148.93,136.4 149.34,136.38 149.76,136.43 C 150.76,136.54 151.81,137.03 152.49,137.99 C 152.65,137.46 152.64,136.94 152.33,136.47 C 152.18,136.25 151.97,136.03 151.72,135.84 C 151.9,135.77 152.07,135.67 152.23,135.56 C 152.89,135.1 153.32,134.35 153.5,133.62 C 153.61,133.14 153.61,132.68 153.46,132.24 C 153.28,131.72 152.89,131.25 152.41,130.95 C 151.97,130.68 151.45,130.56 150.97,130.63 C 150.63,130.69 150.31,130.84 150.07,131.08 C 149.82,131.32 149.65,131.67 149.65,132.02 C 149.64,132.33 149.76,132.65 150.0,132.85 C 150.19,133.01 150.46,133.1 150.69,133.03 C 150.9,132.98 151.08,132.82 151.14,132.62 C 151.16,132.55 151.17,132.48 151.15,132.41 C 151.14,132.34 151.11,132.28 151.07,132.22 C 151.03,132.16 150.98,132.11 150.98,132.05 C 150.97,131.99 151.01,131.92 151.07,131.88 C 151.15,131.83 151.29,131.85 151.4,131.89 C 151.57,131.96 151.69,132.08 151.78,132.21 C 151.92,132.41 151.98,132.66 151.99,132.9 C 152.0,133.46 151.67,133.99 151.25,134.33 C 151.0,134.54 150.72,134.68 150.43,134.78 C 150.01,134.93 149.56,134.99 149.12,135.04 C 148.19,135.09 147.31,135.45 146.64,135.99 C 146.11,136.42 145.71,136.96 145.41,137.55 C 145.42,137.51 145.44,137.47 145.45,137.43 C 145.61,136.9 145.87,136.37 146.11,135.94 C 146.33,135.55 146.52,135.24 146.82,134.88 C 147.19,134.42 147.73,133.88 148.21,133.29 C 148.5,132.94 148.77,132.56 149.0,132.18 C 149.4,131.52 149.69,130.83 149.78,130.12 C 149.91,129.17 149.69,128.19 149.02,127.48 C 148.6,127.04 148.01,126.7 147.46,126.47 C 147.49,126.46 147.52,126.46 147.56,126.45 C 147.92,126.38 148.29,126.35 148.65,126.36 C 149.0,126.36 149.36,126.4 149.7,126.48 C 149.9,126.52 150.09,126.58 150.28,126.64 C 150.47,126.71 150.65,126.79 150.83,126.88 C 151.19,127.06 151.52,127.29 151.83,127.56 C 152.16,127.84 152.45,128.17 152.71,128.51 C 153.0,128.89 153.25,129.3 153.46,129.72 C 153.55,129.9 153.63,130.07 153.71,130.25 C 153.78,130.44 153.86,130.63 153.93,130.82 C 154.07,131.19 154.19,131.56 154.3,131.94 C 154.73,133.45 155.56,133.87 157.03,133.32 C 157.4,133.18 157.78,133.05 158.15,132.94 C 158.35,132.89 158.54,132.83 158.74,132.79 C 158.93,132.74 159.12,132.7 159.31,132.67 C 159.78,132.58 160.25,132.54 160.73,132.54 C 161.16,132.55 161.6,132.59 162.02,132.69 C 162.42,132.78 162.8,132.91 163.16,133.09 C 163.34,133.18 163.51,133.28 163.68,133.39 C 163.85,133.5 164.01,133.62 164.16,133.75 C 164.42,133.98 164.66,134.24 164.88,134.52 C 165.1,134.81 165.29,135.13 165.46,135.46 C 165.47,135.49 165.49,135.52 165.5,135.55 C 164.99,135.25 164.36,134.97 163.76,134.9 C 162.79,134.79 161.87,135.19 161.19,135.85 C 160.67,136.35 160.29,137.0 160.0,137.71 C 159.82,138.13 159.69,138.56 159.57,139.01 C 159.39,139.75 159.27,140.5 159.13,141.08 C 159.02,141.53 158.89,141.87 158.7,142.28 C 158.5,142.72 158.23,143.25 157.9,143.69 C 157.87,143.73 157.85,143.76 157.82,143.79 C 158.11,143.2 158.31,142.56 158.34,141.88 C 158.38,141.02 158.14,140.1 157.62,139.32 C 157.4,138.93 157.19,138.54 157.05,138.11 C 156.97,137.82 156.91,137.51 156.93,137.19 C 156.95,136.64 157.18,136.07 157.64,135.74 C 157.83,135.6 158.07,135.51 158.32,135.5 C 158.48,135.49 158.64,135.52 158.8,135.62 C 158.9,135.68 158.99,135.78 159.0,135.87 C 159.01,135.94 158.97,136.01 158.92,136.05 C 158.87,136.08 158.8,136.07 158.73,136.08 C 158.66,136.08 158.59,136.09 158.53,136.12 C 158.47,136.15 158.41,136.2 158.37,136.26 C 158.24,136.43 158.22,136.67 158.3,136.86 C 158.39,137.09 158.62,137.25 158.86,137.31 C 159.16,137.38 159.49,137.29 159.74,137.1 C 160.02,136.88 160.2,136.55 160.25,136.2 C 160.29,135.86 160.22,135.52 160.06,135.21 C 159.84,134.78 159.44,134.43 158.95,134.24 C 158.43,134.03 157.81,134.0 157.29,134.17 C 156.85,134.31 156.48,134.59 156.16,134.96 C 155.68,135.54 155.33,136.33 155.36,137.13 C 155.36,137.33 155.39,137.52 155.43,137.71 C 155.13,137.62 154.84,137.58 154.57,137.6 C 154.0,137.63 153.58,137.93 153.25,138.37 C 154.43,138.34 155.44,138.9 156.13,139.63 C 156.42,139.94 156.65,140.29 156.81,140.65 C 156.82,140.65 156.82,140.66 156.82,140.66 C 157.25,141.59 157.35,142.71 157.02,143.68 C 156.83,144.22 156.52,144.7 156.11,145.08 C 155.84,145.32 155.52,145.52 155.18,145.67 C 154.63,145.93 154.04,146.09 153.44,146.13 C 154.01,146.02 154.55,145.81 155.05,145.51 C 155.44,145.26 155.81,144.96 156.08,144.59 C 156.42,144.13 156.61,143.55 156.69,142.98 C 156.75,142.51 156.73,142.05 156.62,141.59 C 156.5,141.08 156.27,140.57 155.89,140.24 z M 140.48,164.45 C 140.85,163.72 141.34,162.78 141.86,162.14 C 141.93,162.06 142.0,161.98 142.09,161.91 C 142.12,161.88 142.15,161.84 142.21,161.87 C 142.32,161.92 142.23,162.22 142.21,162.29 C 142.05,162.95 141.71,163.68 141.42,164.29 C 141.22,164.72 141.0,165.15 140.78,165.58 C 139.7,167.73 138.62,169.87 137.55,172.01 C 137.18,172.74 136.69,173.68 136.16,174.32 C 136.1,174.4 136.03,174.48 135.94,174.55 C 135.9,174.58 135.88,174.62 135.82,174.59 C 135.71,174.54 135.8,174.23 135.82,174.17 C 135.97,173.54 136.28,172.87 136.55,172.29 C 136.77,171.81 137.01,171.34 137.25,170.87 C 138.33,168.73 139.41,166.59 140.48,164.45 z M 142.57,155.18 C 142.88,154.56 143.22,153.94 143.6,153.36 C 143.73,153.16 143.87,152.96 144.03,152.78 C 144.08,152.73 144.17,152.6 144.27,152.6 C 144.35,152.6 144.34,152.72 144.34,152.76 C 144.33,152.95 144.27,153.13 144.21,153.31 C 144.01,153.95 143.73,154.56 143.44,155.16 C 143.03,156.02 142.59,156.87 142.16,157.72 C 141.7,158.63 141.25,159.53 140.79,160.43 C 139.02,163.95 137.26,167.46 135.49,170.98 C 135.17,171.6 134.84,172.21 134.45,172.8 C 134.32,173.0 134.19,173.2 134.03,173.37 C 133.98,173.43 133.88,173.56 133.78,173.56 C 133.71,173.56 133.71,173.44 133.71,173.39 C 133.73,173.2 133.78,173.03 133.84,172.85 C 134.05,172.21 134.32,171.6 134.61,171.0 C 134.86,170.49 137.01,166.23 137.26,165.72 C 139.03,162.21 140.8,158.7 142.57,155.18 z M 161.21,139.84 C 161.22,139.78 161.23,139.73 161.24,139.68 C 161.4,138.72 161.55,137.83 162.13,137.1 C 162.7,136.38 163.7,135.82 165.56,135.69 C 165.67,135.93 165.76,136.19 165.83,136.45 C 165.91,136.77 165.95,137.09 165.95,137.41 C 165.95,137.69 165.92,137.97 165.87,138.24 C 165.81,138.55 165.72,138.85 165.62,139.14 C 165.52,139.43 165.41,139.72 165.28,139.99 C 165.16,140.26 165.02,140.51 164.87,140.76 C 164.57,141.24 164.23,141.69 163.84,142.1 C 163.45,142.52 163.01,142.89 162.55,143.23 C 162.07,143.58 161.56,143.9 161.02,144.17 C 160.61,144.39 160.18,144.59 159.75,144.76 C 159.36,144.92 158.96,145.06 158.56,145.19 C 158.57,145.18 158.59,145.17 158.6,145.16 C 158.94,144.86 159.26,144.52 159.55,144.15 C 159.62,144.08 159.68,144.0 159.75,143.92 C 160.27,143.29 160.58,142.47 161.06,141.75 C 161.37,141.27 161.75,140.84 162.23,140.56 C 162.65,140.33 163.13,140.21 163.67,140.28 C 164.03,140.33 164.41,140.45 164.76,140.62 C 164.51,140.25 164.18,139.89 163.78,139.65 C 163.3,139.35 162.73,139.22 162.25,139.28 C 161.83,139.34 161.49,139.55 161.21,139.84 z M 143.85,137.79 C 143.56,136.95 143.34,136.08 143.2,135.2 C 143.1,134.61 143.05,134.01 143.04,133.41 C 143.04,132.84 143.08,132.27 143.18,131.71 C 143.28,131.15 143.44,130.61 143.65,130.08 C 143.76,129.81 143.88,129.55 144.02,129.29 C 144.17,129.02 144.33,128.76 144.5,128.51 C 144.68,128.26 144.87,128.01 145.08,127.78 C 145.27,127.57 145.47,127.38 145.69,127.22 C 145.95,127.02 146.24,126.87 146.54,126.75 C 146.79,126.64 147.05,126.56 147.31,126.5 C 148.31,128.08 148.46,129.21 148.22,130.1 C 147.98,131.0 147.36,131.65 146.68,132.35 C 146.64,132.39 146.61,132.43 146.57,132.47 C 146.63,132.08 146.6,131.68 146.39,131.3 C 146.16,130.88 145.71,130.5 145.19,130.29 C 144.76,130.12 144.28,130.06 143.83,130.09 C 144.17,130.27 144.5,130.5 144.75,130.76 C 145.12,131.15 145.32,131.61 145.38,132.08 C 145.44,132.63 145.32,133.2 145.13,133.73 C 144.83,134.55 144.36,135.28 144.16,136.08 C 144.14,136.18 144.12,136.28 144.1,136.38 C 143.97,136.83 143.89,137.28 143.85,137.73 C 143.85,137.75 143.85,137.77 143.85,137.79 z M 149.18,148.27 C 149.18,149.03 148.56,149.65 147.79,149.65 C 147.03,149.65 146.41,149.03 146.41,148.27 C 146.41,147.5 147.03,146.89 147.79,146.89 C 148.56,146.89 149.18,147.5 149.18,148.27 z"
		 />
		 
		<!-- Prism Reference -->
		<cam mingh:cam="--verb EditSelectAll --verb ZoomSelection --verb FileSave" /> 
	 </g>

</svg>
