<svg
   xmlns:xlink="http://www.w3.org/1999/xlink"
   xmlns:svg="http://www.w3.org/2000/svg"
   xmlns="http://www.w3.org/2000/svg"
   xmlns:mingh="http://www.minghworld.com"
   width="300px"
   height="300px" >
	 <g>
		<!-- Paths -->
		<path transform="matrix(-1 0 0 1 300 0)" style="fill:#ff0;stroke:none;"
		 d="M 150.94,127.94 C 149.33,128.08 147.88,129.23 147.47,130.91 C 147.21,131.95 147.41,133.04 148.0,133.94 C 148.32,134.42 148.7,134.81 149.19,135.13 C 149.42,135.27 149.65,135.37 149.91,135.47 C 150.03,135.51 150.16,135.56 150.28,135.59 C 150.39,135.62 150.49,135.62 150.59,135.66 C 150.88,135.75 150.94,136.15 150.69,136.31 C 150.63,136.35 150.35,136.42 150.28,136.44 C 150.14,136.48 150.01,136.54 149.88,136.59 C 149.33,136.82 148.94,137.15 149.03,137.81 C 149.1,138.3 149.87,139.44 150.16,139.78 C 150.4,140.07 150.68,140.32 150.94,140.59 C 151.07,140.73 151.19,140.89 151.31,141.03 C 151.44,141.18 151.51,141.34 151.72,141.41 C 151.93,141.48 152.1,141.4 152.28,141.31 C 152.45,141.23 152.61,141.15 152.78,141.06 C 153.12,140.9 153.47,140.74 153.81,140.59 C 154.51,140.29 155.21,140.04 155.91,139.75 C 156.26,139.61 156.62,139.43 156.97,139.28 C 157.32,139.13 157.66,138.97 158.03,138.88 C 158.33,138.8 158.81,138.8 159.06,139.06 C 159.21,139.21 159.23,139.47 159.19,139.66 C 159.13,139.87 159.01,139.97 158.84,140.09 C 157.99,140.69 155.63,141.53 154.69,141.91 C 153.46,142.39 151.71,143.12 150.38,143.31 C 149.99,143.37 149.6,143.39 149.22,143.31 C 148.84,143.23 148.49,143.1 148.13,143.0 C 147.74,142.89 147.39,142.85 147.06,143.16 C 146.91,143.3 146.84,143.47 146.78,143.66 C 146.72,143.85 146.67,144.0 146.44,144.06 C 146.24,144.11 146.07,144.13 145.88,144.06 C 145.68,143.99 145.59,143.86 145.47,143.72 C 145.2,143.42 144.87,143.18 144.53,142.97 C 144.18,142.76 143.84,142.58 143.47,142.41 C 143.29,142.32 143.11,142.24 142.94,142.16 C 142.76,142.07 142.61,141.98 142.47,141.84 C 141.91,141.29 141.9,140.38 142.19,139.72 C 142.26,139.54 142.34,139.35 142.44,139.19 C 142.54,139.03 142.67,138.9 142.78,138.75 C 143.01,138.44 143.15,138.13 143.22,137.75 C 143.29,137.36 143.32,136.95 143.31,136.56 C 143.3,136.17 143.25,135.83 143.03,135.5 C 142.7,135.0 141.78,134.27 141.31,133.94 C 140.68,133.48 140.05,133.16 139.28,132.97 C 138.91,132.88 138.54,132.85 138.16,132.84 C 137.72,132.84 137.28,132.83 136.84,132.84 C 136.66,132.85 136.47,132.85 136.28,132.91 C 136.15,132.95 136.06,133.03 135.94,133.09 C 135.77,133.18 135.6,133.26 135.44,133.34 C 135.28,133.43 135.12,133.52 134.94,133.56 C 134.76,133.6 134.49,133.57 134.47,133.84 C 134.45,134.08 134.61,134.21 134.72,134.38 C 134.93,134.69 135.1,135.02 135.34,135.31 C 135.84,135.91 136.44,136.36 137.0,136.88 C 137.56,137.38 138.12,137.9 138.69,138.41 C 138.97,138.66 139.23,138.91 139.5,139.19 C 139.57,139.26 139.64,139.32 139.69,139.41 C 139.74,139.49 139.78,139.57 139.81,139.66 C 139.88,139.84 139.9,140.05 139.91,140.25 C 139.92,141.02 139.63,141.8 139.13,142.38 C 138.84,142.69 137.68,143.57 137.34,143.81 C 136.72,144.25 136.08,144.64 135.41,145.0 C 134.06,145.72 132.65,146.27 131.22,146.78 C 130.5,147.04 129.78,147.3 129.06,147.56 C 128.9,147.62 128.64,147.67 128.72,147.91 C 128.75,148.0 128.79,148.1 128.81,148.19 C 128.84,148.28 128.85,148.35 128.88,148.44 C 128.99,148.8 129.13,149.15 129.28,149.5 C 129.44,149.86 129.58,150.25 129.78,150.59 C 129.99,150.96 130.25,151.2 130.66,151.34 C 131.15,151.51 131.36,151.34 131.78,151.16 C 132.14,151.0 132.47,150.84 132.81,150.66 C 133.5,150.29 134.16,149.86 134.81,149.44 C 135.14,149.23 135.47,149.01 135.78,148.78 C 135.91,148.69 136.13,148.53 136.31,148.53 C 136.42,148.53 136.47,148.63 136.5,148.72 C 136.54,148.83 136.52,148.91 136.47,149.0 C 136.38,149.15 136.2,149.37 136.09,149.5 C 135.86,149.81 135.64,150.13 135.41,150.44 C 134.94,151.06 134.45,151.67 133.97,152.28 C 133.0,153.5 132.0,154.68 131.0,155.88 C 130.0,157.07 128.96,158.25 128.0,159.47 C 127.75,159.78 127.52,160.09 127.28,160.41 C 127.05,160.71 126.81,161.04 126.84,161.47 C 126.87,161.78 127.02,162.07 127.31,162.22 C 127.69,162.41 128.05,162.3 128.38,162.13 C 129.26,161.66 134.91,156.92 135.66,156.31 C 135.8,156.2 135.95,156.05 136.09,155.94 C 136.26,155.8 136.38,155.76 136.59,155.88 C 136.79,155.99 136.78,156.12 136.78,156.31 C 136.78,156.47 136.78,156.62 136.78,156.78 C 136.79,157.61 136.81,158.45 136.81,159.28 C 136.82,161.23 136.83,163.17 136.84,165.13 C 136.85,165.87 136.87,166.63 136.88,167.38 C 136.88,167.61 136.86,167.85 136.88,168.09 C 136.9,168.52 136.96,168.69 137.09,169.09 C 137.38,169.94 137.56,170.37 138.22,171.0 C 138.48,171.25 138.77,171.47 139.06,171.69 C 139.2,171.79 139.32,171.89 139.47,171.97 C 139.63,172.06 139.78,172.12 139.97,172.06 C 140.12,172.01 140.2,171.93 140.25,171.78 C 140.31,171.61 140.36,171.42 140.41,171.25 C 140.52,170.8 140.61,170.36 140.72,169.91 C 140.81,169.52 140.92,169.12 141.06,168.75 C 141.11,168.63 141.16,168.52 141.16,168.38 C 141.15,167.94 141.15,167.5 141.13,167.06 C 141.08,166.24 141.01,165.45 140.97,164.63 C 140.85,162.6 140.74,160.56 140.63,158.53 C 140.58,157.71 140.54,156.89 140.5,156.06 C 140.47,155.56 140.43,155.04 140.44,154.53 C 140.44,154.07 140.43,153.97 140.91,154.16 C 141.26,154.3 141.54,154.52 141.81,154.78 C 142.09,155.05 142.35,155.35 142.63,155.63 C 142.89,155.89 143.17,156.14 143.44,156.41 C 143.57,156.54 143.71,156.79 143.91,156.56 C 144.1,156.33 144.05,156.27 144.38,156.19 C 144.78,156.08 145.12,156.15 145.5,156.28 C 145.69,156.35 145.84,156.38 145.97,156.56 C 146.08,156.73 146.12,156.92 146.19,157.09 C 146.26,157.28 146.38,157.45 146.47,157.63 C 146.56,157.8 146.61,157.95 146.69,158.13 C 146.99,158.83 147.27,159.57 147.56,160.28 C 147.85,160.99 148.13,161.67 148.44,162.38 C 148.74,163.08 149.05,163.81 149.31,164.53 C 149.44,164.89 149.57,165.24 149.72,165.59 C 149.87,165.96 150.08,166.25 149.88,166.69 C 149.66,167.13 149.31,167.01 149.28,167.63 C 149.26,168.09 149.45,168.33 149.78,168.59 C 150.23,168.94 151.14,169.71 151.75,169.84 C 152.17,169.94 152.5,169.77 152.81,169.53 C 153.12,169.3 153.45,169.1 153.78,168.91 C 154.46,168.52 155.15,168.25 155.88,168.0 C 156.6,167.75 157.33,167.51 158.09,167.38 C 158.47,167.31 158.84,167.21 159.22,167.16 C 159.61,167.1 159.99,167.14 160.38,167.16 C 161.14,167.18 161.92,167.21 162.69,167.16 C 162.87,167.14 163.06,167.13 163.25,167.13 C 163.3,167.13 163.48,167.13 163.53,167.16 C 163.57,167.18 163.59,167.41 163.59,167.44 C 163.65,167.82 163.72,168.19 163.78,168.56 C 163.84,168.93 163.88,169.32 163.94,169.69 C 163.96,169.81 164.0,170.13 164.06,170.25 C 164.17,170.44 164.41,170.43 164.56,170.31 C 164.72,170.19 164.82,170.0 164.97,169.88 C 165.12,169.75 165.27,169.66 165.44,169.56 C 165.77,169.37 166.1,169.19 166.41,168.97 C 167.04,168.51 167.58,168.02 168.0,167.34 C 168.41,166.68 168.6,165.97 168.84,165.25 C 169.09,164.53 169.36,163.81 169.59,163.09 C 169.83,162.37 170.06,161.65 170.31,160.94 C 170.64,160.02 171.67,157.59 172.09,156.72 C 172.43,156.03 172.87,155.4 173.06,154.63 C 173.16,154.22 173.2,153.85 173.09,153.44 C 172.99,153.03 172.73,152.81 172.44,152.56 C 171.64,151.88 171.6,151.67 170.66,151.16 C 170.16,150.88 169.1,150.43 168.56,150.25 C 167.8,150.0 167.1,149.95 166.31,150.13 C 165.55,150.3 164.9,150.66 164.22,151.0 C 163.53,151.34 162.82,151.57 162.09,151.78 C 161.36,151.99 160.63,152.23 159.91,152.47 C 158.49,152.93 157.06,153.41 155.63,153.84 C 155.27,153.95 154.92,154.05 154.56,154.16 C 154.19,154.26 153.86,154.35 153.47,154.28 C 152.69,154.14 152.3,153.18 152.31,152.5 C 152.32,152.03 152.43,151.83 152.75,151.5 C 153.02,151.22 153.32,150.99 153.66,150.81 C 154.25,150.5 155.14,150.34 155.78,150.22 C 156.48,150.08 157.19,149.97 157.91,149.97 C 158.69,149.97 159.46,150.08 160.25,150.0 C 161.17,149.9 162.06,149.47 162.31,148.47 C 162.41,148.06 162.36,147.68 162.38,147.28 C 162.39,146.88 162.53,146.55 162.75,146.22 C 162.97,145.89 163.2,145.65 163.53,145.44 C 163.86,145.24 164.23,145.18 164.56,145.0 C 164.9,144.81 165.17,144.54 165.44,144.28 C 165.71,144.02 165.92,143.72 166.09,143.38 C 166.53,142.5 166.73,142.16 166.0,141.34 C 165.5,140.79 165.04,140.22 164.38,139.81 C 163.97,139.57 163.79,139.53 163.34,139.41 C 163.19,139.37 162.39,139.14 162.25,139.06 C 161.91,138.87 161.79,138.41 161.72,138.09 C 161.66,137.84 161.57,137.28 161.72,137.0 C 161.89,136.81 162.0,136.49 162.03,136.25 C 162.08,135.95 161.98,135.72 161.84,135.47 C 161.58,134.97 161.21,134.63 160.78,134.28 C 160.36,133.94 159.94,133.57 159.53,133.22 C 159.32,133.03 159.13,132.88 158.81,132.88 C 158.51,132.87 158.3,132.99 158.06,133.16 C 157.84,133.31 157.63,133.5 157.44,133.69 C 157.25,133.88 157.07,134.04 156.84,134.19 C 156.38,134.49 155.89,134.68 155.38,134.88 C 155.12,134.97 154.85,135.09 154.59,135.19 C 154.47,135.24 154.35,135.26 154.22,135.31 C 154.09,135.36 153.97,135.47 153.81,135.44 C 153.68,135.41 153.57,135.3 153.56,135.16 C 153.55,134.94 153.72,134.86 153.84,134.75 C 154.26,134.39 154.58,133.97 154.81,133.47 C 155.79,131.38 154.74,128.92 152.56,128.16 C 152.02,127.97 151.47,127.89 150.94,127.94 z M 151.28,129.88 C 151.54,129.88 151.8,129.93 152.03,130.03 C 152.27,130.13 152.48,130.26 152.66,130.44 C 152.84,130.62 152.96,130.83 153.06,131.06 C 153.16,131.3 153.22,131.56 153.22,131.81 C 153.22,132.07 153.16,132.33 153.06,132.56 C 152.96,132.8 152.84,133.01 152.66,133.19 C 152.48,133.37 152.27,133.53 152.03,133.63 C 151.8,133.72 151.54,133.78 151.28,133.78 C 151.03,133.78 150.77,133.72 150.53,133.63 C 150.3,133.53 150.09,133.37 149.91,133.19 C 149.73,133.01 149.57,132.8 149.47,132.56 C 149.37,132.33 149.31,132.07 149.31,131.81 C 149.31,131.56 149.37,131.3 149.47,131.06 C 149.57,130.83 149.73,130.62 149.91,130.44 C 150.09,130.26 150.3,130.13 150.53,130.03 C 150.77,129.93 151.03,129.88 151.28,129.88 z M 159.09,142.34 C 159.14,142.34 159.19,142.33 159.22,142.34 C 159.29,142.39 159.29,142.51 159.28,142.63 C 159.27,142.87 159.26,143.05 159.25,143.25 C 159.23,143.64 159.18,144.12 159.06,144.56 C 158.94,145.01 158.75,145.41 158.47,145.75 C 158.08,146.21 157.5,146.56 156.94,146.81 C 156.19,147.15 155.42,147.35 154.66,147.59 C 154.26,147.72 153.86,147.87 153.47,148.03 C 153.27,148.11 153.08,148.18 152.88,148.22 C 152.71,148.25 152.56,148.24 152.41,148.19 C 152.28,148.14 152.17,148.09 152.06,148.0 C 151.9,147.86 151.77,147.68 151.66,147.5 C 151.49,147.23 151.36,146.93 151.19,146.66 C 151.08,146.48 150.95,146.3 150.84,146.13 C 150.81,146.07 150.78,146.03 150.75,145.97 C 150.72,145.91 150.7,145.84 150.72,145.78 C 150.73,145.74 150.78,145.71 150.81,145.69 C 150.89,145.63 150.98,145.59 151.06,145.56 C 151.57,145.38 152.03,145.13 152.53,144.91 C 153.3,144.56 154.1,144.3 154.88,144.0 C 155.73,143.67 156.58,143.3 157.47,142.97 C 157.89,142.81 158.31,142.64 158.69,142.47 C 158.77,142.43 158.87,142.41 158.97,142.38 C 159.02,142.36 159.05,142.35 159.09,142.34 z M 146.56,146.13 C 146.7,146.12 146.81,146.16 146.94,146.19 C 147.61,146.33 147.68,146.7 147.91,147.22 C 148.31,148.15 148.71,149.1 149.03,150.06 C 149.19,150.55 149.28,151.05 149.47,151.53 C 149.56,151.77 149.7,152.01 149.84,152.22 C 149.99,152.43 150.17,152.6 150.31,152.81 C 150.61,153.27 150.75,153.71 150.78,154.25 C 150.82,154.87 150.69,155.21 150.31,155.69 C 150.18,155.83 150.02,156.14 150.0,156.34 C 149.96,156.68 150.19,156.78 150.44,156.88 C 150.68,156.96 150.91,157.08 151.16,157.16 C 151.28,157.2 151.42,157.24 151.53,157.31 C 151.64,157.38 151.71,157.47 151.84,157.5 C 152.26,157.59 152.96,157.1 153.25,156.94 C 153.7,156.69 154.17,156.52 154.63,156.28 C 154.85,156.16 155.07,156.02 155.31,155.94 C 155.72,155.79 155.73,155.87 155.81,156.25 C 155.87,156.5 155.92,156.75 155.97,157.0 C 156.02,157.25 156.09,157.5 156.16,157.75 C 156.22,158.0 156.32,158.24 156.34,158.5 C 156.38,158.85 156.09,158.87 155.84,158.94 C 155.12,159.13 155.1,159.12 154.41,159.41 C 153.93,159.6 153.45,159.79 152.97,159.97 C 152.73,160.06 152.49,160.14 152.25,160.22 C 151.9,160.34 151.79,160.27 151.63,159.97 C 151.5,159.74 151.42,159.48 151.31,159.25 C 151.21,159.02 151.08,158.79 150.97,158.56 C 150.74,158.1 150.5,157.67 150.25,157.22 C 149.67,156.18 149.16,155.68 148.16,155.06 C 147.94,154.93 147.72,154.8 147.5,154.69 C 147.38,154.63 147.28,154.58 147.16,154.53 C 147.03,154.48 146.92,154.39 146.78,154.5 C 146.73,154.54 146.71,154.62 146.66,154.66 C 146.6,154.7 146.54,154.71 146.47,154.72 C 146.33,154.73 146.23,154.7 146.13,154.59 C 146.01,154.47 145.78,154.05 145.72,153.91 C 145.61,153.66 145.55,153.41 145.47,153.16 C 145.39,152.9 145.27,152.71 145.09,152.5 C 144.75,152.09 144.35,151.86 143.88,151.66 C 143.41,151.46 142.93,151.33 142.44,151.25 C 142.31,151.23 142.19,151.2 142.06,151.19 C 141.93,151.17 141.78,151.2 141.66,151.16 C 141.4,151.07 141.25,150.81 141.25,150.53 C 141.25,150.24 141.42,150.06 141.56,149.84 C 141.7,149.63 141.83,149.43 141.97,149.22 C 142.24,148.79 142.51,148.37 142.81,147.97 C 143.13,147.55 143.43,147.17 143.91,146.91 C 144.14,146.78 144.38,146.7 144.63,146.63 C 144.88,146.54 145.12,146.46 145.38,146.38 C 145.71,146.27 146.16,146.13 146.56,146.13 z M 166.31,152.75 C 166.37,152.73 166.41,152.73 166.44,152.75 C 166.48,152.79 166.46,152.94 166.44,153.06 C 166.38,153.38 166.39,153.61 166.38,153.84 C 166.33,154.59 166.15,155.45 166.0,156.28 C 165.9,156.83 165.79,157.36 165.72,157.91 C 165.69,158.16 165.65,158.4 165.63,158.66 C 165.61,158.76 165.62,158.88 165.53,158.97 C 165.49,159.01 165.43,159.04 165.41,159.03 C 165.36,159.02 165.38,158.9 165.38,158.81 C 165.37,158.64 165.28,158.54 165.19,158.44 C 164.89,158.14 164.62,157.81 164.28,157.53 C 163.99,157.29 163.65,157.09 163.28,156.97 C 162.85,156.83 162.38,156.8 161.94,156.84 C 161.61,156.88 161.29,156.97 160.97,157.03 C 160.83,157.06 160.67,157.07 160.53,157.06 C 160.45,157.06 160.38,157.04 160.31,157.0 C 160.24,156.96 160.15,156.89 160.09,156.81 C 159.83,156.47 159.64,156.1 159.41,155.75 C 159.26,155.52 159.1,155.32 158.94,155.09 C 158.85,154.97 158.77,154.83 158.72,154.69 C 158.7,154.63 158.7,154.58 158.72,154.53 C 158.73,154.48 158.77,154.43 158.81,154.41 C 158.89,154.36 158.97,154.37 159.06,154.38 C 159.64,154.41 160.16,154.22 160.69,154.06 C 161.27,153.88 161.87,153.74 162.47,153.63 C 163.02,153.52 163.57,153.45 164.13,153.31 C 164.62,153.2 165.11,153.04 165.56,152.97 C 165.74,152.94 165.9,152.93 166.13,152.84 C 166.19,152.82 166.26,152.77 166.31,152.75 z M 164.94,159.75 C 165.07,159.75 165.21,159.78 165.28,159.88 C 165.33,159.94 165.37,160.03 165.38,160.13 C 165.39,160.25 165.34,160.38 165.31,160.5 C 165.25,160.76 165.2,161.02 165.16,161.28 C 165.09,161.68 165.03,162.1 164.94,162.5 C 164.89,162.71 164.85,162.89 164.81,163.09 C 164.8,163.19 164.76,163.28 164.75,163.38 C 164.74,163.45 164.75,163.53 164.72,163.59 C 164.69,163.64 164.64,163.69 164.59,163.72 C 164.53,163.77 164.46,163.79 164.41,163.81 C 164.35,163.83 164.32,163.84 164.28,163.84 C 163.63,163.85 160.42,163.86 160.16,163.81 C 160.15,163.81 160.14,163.79 160.13,163.78 C 160.11,163.77 160.09,163.78 160.06,163.75 C 160.02,163.69 159.99,163.59 159.97,163.5 C 159.9,163.21 159.92,162.93 159.94,162.66 C 159.96,162.27 159.94,161.88 160.0,161.5 C 160.04,161.24 160.12,161.0 160.25,160.78 C 160.39,160.54 160.6,160.37 160.81,160.25 C 161.02,160.13 161.23,160.05 161.5,160.0 C 161.83,159.94 162.25,159.89 162.66,159.88 C 163.29,159.85 163.87,159.89 164.44,159.81 C 164.62,159.79 164.77,159.75 164.94,159.75 z M 156.34,161.13 C 156.39,161.13 156.45,161.16 156.5,161.19 C 156.54,161.21 156.57,161.24 156.59,161.28 C 156.64,161.36 156.65,161.44 156.66,161.53 C 156.66,161.76 156.66,162.05 156.66,162.31 C 156.65,163.15 156.56,163.79 156.41,164.34 C 156.37,164.47 156.31,164.6 156.28,164.75 C 156.27,164.85 156.28,164.97 156.25,165.09 C 156.23,165.17 156.2,165.23 156.16,165.28 C 156.12,165.32 156.1,165.36 156.06,165.38 C 156.0,165.4 155.98,165.4 155.94,165.41 C 155.55,165.47 153.79,165.69 153.16,165.78 C 153.06,165.8 153.01,165.8 152.97,165.78 C 152.93,165.76 152.89,165.72 152.88,165.66 C 152.83,165.47 152.81,165.11 152.78,164.78 C 152.74,164.38 152.72,164.05 152.69,163.72 C 152.68,163.6 152.66,163.48 152.66,163.34 C 152.65,163.2 152.64,163.04 152.69,162.94 C 152.7,162.91 152.73,162.89 152.75,162.88 C 152.8,162.83 152.82,162.81 152.88,162.78 C 153.13,162.66 153.66,162.43 154.09,162.22 C 154.56,161.99 154.95,161.79 155.44,161.53 C 155.71,161.39 156.0,161.22 156.19,161.16 C 156.24,161.14 156.29,161.12 156.34,161.13 z" />
		
		<text id="txtTwo" transform="matrix(1 0 0 1 150 160)" style="stroke:none;fill:#f00;font-family:'Eras Medium ITC';font-size:20px;text-anchor:middle"  >

		</text>
		<!-- Prism Reference -->
		<cam mingh:cam=" --verb EditSelectAll --verb ZoomSelection --verb FileSave "/> 
	 </g>

</svg>