<svg
   xmlns:xlink="http://www.w3.org/1999/xlink"
   xmlns:svg="http://www.w3.org/2000/svg"
   xmlns="http://www.w3.org/2000/svg"
   xmlns:mingh="http://www.minghworld.com"
   width="300px"
   height="300px" >
	
	 <g>
		<!-- Paths -->
		<path style="fill:none;stroke:#000;stroke-width:0.25px;"
			d="M 150.03,127.78 C 149.47,127.78 148.91,127.88 148.38,128.13 C 146.96,128.77 146.06,130.2 146.09,131.75 C 146.09,131.78 146.05,131.78 146.03,131.78 C 146.01,131.79 145.96,131.81 145.94,131.81 C 145.89,131.83 145.83,131.83 145.78,131.84 C 145.68,131.87 145.57,131.91 145.47,131.94 C 145.26,131.99 145.08,132.06 144.88,132.13 C 144.46,132.26 144.03,132.4 143.63,132.56 C 141.01,133.63 138.66,135.42 137.19,137.91 C 136.54,139.0 136.12,140.09 135.91,141.34 C 135.86,141.63 135.8,141.93 135.78,142.22 C 135.77,142.36 135.76,142.49 135.75,142.63 C 135.75,142.69 135.75,142.77 135.75,142.84 C 135.75,142.86 135.77,142.86 135.75,142.88 C 135.73,142.88 135.7,142.9 135.69,142.91 C 135.66,142.92 135.62,142.95 135.59,142.97 C 135.09,143.27 134.63,143.59 134.19,143.97 C 133.1,144.9 132.24,146.03 131.72,147.38 C 131.25,148.6 131.01,150.05 130.97,151.34 C 130.89,153.86 131.51,156.22 132.66,158.44 C 135.1,163.16 139.45,166.58 143.84,169.13 C 144.96,169.77 146.09,170.37 147.25,170.94 C 147.86,171.24 148.48,171.53 149.09,171.81 C 149.25,171.88 149.41,171.96 149.56,172.03 C 149.64,172.07 149.7,172.09 149.78,172.13 C 149.82,172.14 149.87,172.17 149.91,172.19 C 149.95,172.2 149.98,172.24 150.03,172.22 C 150.35,172.08 150.65,171.93 150.97,171.78 C 153.32,170.7 155.6,169.51 157.78,168.13 C 160.1,166.65 162.22,165.04 164.09,163.0 C 165.76,161.19 167.25,159.05 168.13,156.72 C 169.01,154.36 169.23,151.92 168.81,149.44 C 168.58,148.05 168.17,146.83 167.34,145.66 C 166.54,144.52 165.45,143.57 164.25,142.88 C 164.23,140.41 163.27,138.13 161.69,136.28 C 159.83,134.12 157.26,132.68 154.56,131.94 C 154.36,131.88 154.15,131.83 153.94,131.78 C 153.88,131.77 153.91,131.72 153.91,131.69 C 153.91,131.64 153.91,131.58 153.91,131.53 C 153.9,131.44 153.89,131.34 153.88,131.25 C 153.85,131.06 153.83,130.9 153.78,130.72 C 153.59,129.98 153.19,129.29 152.63,128.78 C 151.9,128.13 150.97,127.79 150.03,127.78 z M 150.0,129.72 C 150.26,129.72 150.51,129.78 150.75,129.88 C 150.99,129.97 151.19,130.13 151.38,130.31 C 151.56,130.49 151.71,130.7 151.81,130.94 C 151.91,131.17 151.94,131.43 151.94,131.69 C 151.94,131.94 151.91,132.2 151.81,132.44 C 151.71,132.67 151.56,132.88 151.38,133.06 C 151.19,133.24 150.99,133.37 150.75,133.47 C 150.51,133.57 150.26,133.63 150.0,133.63 C 149.75,133.63 149.49,133.57 149.25,133.47 C 149.01,133.37 148.81,133.24 148.63,133.06 C 148.44,132.88 148.29,132.67 148.19,132.44 C 148.09,132.2 148.06,131.94 148.06,131.69 C 148.06,131.43 148.09,131.17 148.19,130.94 C 148.29,130.7 148.44,130.49 148.63,130.31 C 148.81,130.13 149.01,129.97 149.25,129.88 C 149.49,129.78 149.74,129.72 150.0,129.72 z M 149.16,135.59 C 149.44,135.58 149.72,135.59 150.0,135.59 C 150.57,135.59 151.13,135.61 151.69,135.69 C 152.27,135.76 152.84,135.88 153.41,136.03 C 153.97,136.19 154.53,136.39 155.06,136.63 C 155.58,136.86 156.09,137.13 156.56,137.44 C 157.01,137.73 157.45,138.04 157.84,138.41 C 158.03,138.58 158.18,138.78 158.34,138.97 C 158.5,139.14 158.64,139.31 158.78,139.5 C 159.07,139.89 159.34,140.33 159.53,140.78 C 159.64,141.04 159.74,141.29 159.81,141.56 C 157.33,141.46 154.88,142.35 152.75,143.94 C 151.72,144.71 150.77,145.66 150.0,146.5 C 149.23,145.66 148.28,144.71 147.25,143.94 C 145.12,142.35 142.67,141.46 140.19,141.56 C 140.26,141.29 140.36,141.04 140.47,140.78 C 140.66,140.33 140.93,139.89 141.22,139.5 C 141.5,139.11 141.8,138.74 142.16,138.41 C 142.55,138.04 142.99,137.73 143.44,137.44 C 143.91,137.13 144.42,136.86 144.94,136.63 C 145.21,136.51 145.47,136.41 145.75,136.31 C 146.03,136.21 146.31,136.11 146.59,136.03 C 147.16,135.88 147.73,135.76 148.31,135.69 C 148.59,135.65 148.87,135.61 149.16,135.59 z M 149.91,152.69 C 150.58,152.69 151.1,152.86 151.59,153.34 C 152.0,153.74 152.22,154.28 152.25,154.84 C 152.28,155.4 152.1,155.94 151.75,156.38 C 151.58,156.58 151.39,156.77 151.16,156.91 C 150.82,157.1 150.54,157.24 150.47,157.69 C 150.42,157.97 150.47,158.24 150.53,158.5 C 150.6,158.8 150.68,159.08 150.75,159.38 L 151.16,161.16 C 151.3,161.8 151.45,162.45 151.59,163.09 C 151.6,163.11 151.63,163.13 151.59,163.13 L 151.56,163.13 L 151.44,163.13 L 151.25,163.13 L 150.88,163.13 L 150.09,163.13 L 148.53,163.13 L 148.44,163.13 C 148.42,163.13 148.4,163.15 148.41,163.13 C 148.41,163.1 148.4,163.08 148.41,163.06 C 148.42,162.98 148.45,162.89 148.47,162.81 C 148.51,162.65 148.53,162.51 148.56,162.34 C 148.64,162.02 148.74,161.67 148.81,161.34 L 149.19,159.59 C 149.25,159.34 149.56,158.17 149.56,157.91 C 149.57,157.48 149.4,157.23 149.06,157.0 C 148.77,156.81 148.62,156.76 148.38,156.5 C 148.0,156.11 147.77,155.61 147.75,155.06 C 147.7,153.82 148.66,152.74 149.91,152.69 z"
		 />
		 
		 <path style="fill:#f00;stroke:none;"
			d="M 146.94,163.94 C 146.87,164.21 146.96,164.36 147.24,164.38 C 147.47,164.39 147.7,164.38 147.93,164.38 C 148.39,164.38 148.85,164.38 149.3,164.38 C 150.22,164.38 151.13,164.38 152.04,164.38 C 152.27,164.38 152.5,164.38 152.73,164.38 C 153.01,164.37 153.12,164.25 153.07,163.97 C 152.96,163.39 152.81,162.83 152.68,162.26 C 152.41,161.11 152.15,159.97 151.89,158.82 C 151.86,158.68 151.83,158.54 151.79,158.39 C 151.78,158.32 151.76,158.25 151.74,158.18 C 151.74,158.14 151.73,158.11 151.72,158.07 C 151.71,158.04 151.69,158.01 151.73,157.99 C 151.94,157.86 152.14,157.72 152.33,157.56 C 152.73,157.2 153.01,156.8 153.22,156.3 C 153.62,155.36 153.58,154.29 153.12,153.37 C 152.64,152.43 151.77,151.76 150.73,151.54 C 150.61,151.51 150.49,151.49 150.37,151.48 C 150.31,151.47 150.25,151.47 150.19,151.46 C 150.18,151.46 150.15,151.48 150.16,151.46 C 150.16,151.44 150.17,151.43 150.17,151.41 C 150.19,151.39 150.2,151.36 150.21,151.33 C 150.32,151.1 150.43,150.88 150.55,150.66 C 150.79,150.22 151.05,149.79 151.33,149.38 C 152.46,147.74 154.02,146.29 155.79,145.35 C 157.66,144.38 159.6,144.08 161.64,144.79 C 163.67,145.51 165.04,146.96 165.73,148.97 C 166.4,150.9 166.29,153.0 165.73,154.91 C 165.14,156.92 164.05,158.72 162.73,160.31 C 162.72,160.31 162.72,160.32 162.72,160.32 C 162.72,160.32 162.72,160.31 162.72,160.31 C 162.73,160.31 162.73,160.3 162.74,160.29 C 162.75,160.28 162.76,160.27 162.76,160.25 C 162.78,160.23 162.8,160.2 162.82,160.18 C 162.85,160.12 162.89,160.07 162.92,160.02 C 162.99,159.91 163.05,159.8 163.11,159.69 C 163.23,159.47 163.34,159.24 163.44,159.01 C 163.63,158.53 163.76,158.04 163.83,157.53 C 163.91,157.02 163.9,156.52 163.9,156.01 C 163.9,155.6 163.83,155.22 163.75,154.83 C 163.59,154.02 163.37,153.25 163.5,152.4 C 163.65,151.44 164.21,150.84 165.09,150.5 C 165.2,150.45 165.32,150.41 165.45,150.38 C 165.46,150.37 165.48,150.37 165.49,150.36 C 165.5,150.36 165.53,150.36 165.51,150.35 C 165.48,150.34 165.45,150.33 165.42,150.33 C 165.36,150.31 165.3,150.3 165.23,150.28 C 164.98,150.23 164.72,150.21 164.46,150.22 C 163.97,150.25 163.46,150.42 163.07,150.73 C 162.7,151.02 162.51,151.33 162.44,151.79 C 162.43,151.84 162.42,151.89 162.42,151.95 C 162.42,151.96 162.42,151.97 162.42,151.98 C 162.42,151.99 162.42,152.0 162.42,152.0 C 162.42,152.01 162.41,151.99 162.41,151.99 C 162.39,151.96 162.38,151.94 162.36,151.91 C 162.3,151.81 162.24,151.71 162.18,151.61 C 162.06,151.41 161.95,151.22 161.85,151.01 C 161.41,150.16 161.21,149.35 161.52,148.39 C 161.73,147.75 162.09,147.23 162.53,146.73 C 162.67,146.57 162.81,146.41 162.97,146.26 C 163.01,146.22 163.05,146.18 163.09,146.14 C 163.1,146.13 163.11,146.12 163.12,146.11 C 163.13,146.11 163.11,146.11 163.1,146.11 C 163.09,146.11 163.07,146.12 163.05,146.12 C 162.99,146.13 162.92,146.14 162.86,146.15 C 162.58,146.2 162.31,146.27 162.04,146.36 C 160.93,146.74 160.22,147.48 159.96,148.65 C 159.72,149.77 160.03,150.93 160.46,151.93 C 160.69,152.47 160.97,152.97 161.26,153.48 C 161.49,153.9 161.72,154.31 161.89,154.76 C 161.96,154.96 162.03,155.16 162.08,155.36 C 162.1,155.42 162.12,155.47 162.13,155.53 C 162.14,155.55 162.15,155.58 162.15,155.61 C 162.16,155.63 162.18,155.7 162.17,155.67 C 162.13,155.54 162.09,155.42 162.04,155.3 C 161.86,154.8 161.61,154.35 161.27,153.93 C 160.92,153.49 160.53,153.13 160.04,152.84 C 159.6,152.57 159.12,152.38 158.66,152.15 C 157.73,151.69 156.82,151.02 156.64,149.86 C 156.55,149.33 156.68,148.77 157.08,148.38 C 157.29,148.17 157.57,148.03 157.89,148.09 C 158.03,148.11 158.17,148.2 158.13,148.37 C 158.11,148.47 157.93,148.58 157.88,148.64 C 157.69,148.84 157.72,149.13 157.85,149.34 C 157.99,149.57 158.22,149.7 158.49,149.71 C 159.04,149.74 159.46,149.33 159.61,148.84 C 159.76,148.35 159.63,147.81 159.33,147.41 C 159.02,147.0 158.56,146.74 158.06,146.64 C 157.02,146.43 155.85,146.94 155.25,147.82 C 154.64,148.72 154.67,150.04 155.03,150.99 C 155.13,151.27 155.26,151.52 155.43,151.76 C 155.52,151.88 155.61,151.99 155.71,152.1 C 155.76,152.15 155.81,152.21 155.87,152.26 C 155.89,152.28 155.92,152.31 155.95,152.33 C 155.98,152.36 155.91,152.36 155.89,152.37 C 155.42,152.55 155.03,152.76 154.73,153.18 C 154.46,153.56 154.37,153.93 154.35,154.38 C 154.35,154.39 154.35,154.41 154.35,154.42 C 154.35,154.43 154.34,154.46 154.36,154.45 C 154.39,154.42 154.42,154.4 154.45,154.38 C 154.51,154.34 154.57,154.3 154.63,154.26 C 154.75,154.18 154.88,154.11 155.01,154.04 C 155.26,153.92 155.52,153.82 155.8,153.74 C 156.79,153.48 157.92,153.56 158.86,153.98 C 159.82,154.4 160.4,155.01 160.88,155.91 C 161.35,156.79 161.6,157.68 161.73,158.66 C 161.84,159.49 161.88,160.6 161.55,161.42 C 161.51,161.53 161.46,161.64 161.4,161.74 C 161.38,161.78 161.17,161.98 161.14,162.01 C 160.96,162.18 160.78,162.35 160.59,162.52 C 160.5,162.6 160.41,162.69 160.31,162.77 C 160.27,162.81 160.22,162.85 160.17,162.89 C 160.17,162.9 160.14,162.92 160.15,162.91 C 160.16,162.89 160.17,162.88 160.18,162.87 C 160.2,162.84 160.22,162.82 160.23,162.79 C 160.37,162.59 160.48,162.38 160.58,162.16 C 160.95,161.32 161.07,160.42 160.96,159.51 C 160.84,158.54 160.44,157.52 159.81,156.75 C 159.1,155.88 158.16,155.42 157.06,155.32 C 156.09,155.24 155.07,155.45 154.35,156.18 C 153.73,156.79 153.51,157.68 153.66,158.52 C 153.83,159.42 154.45,160.13 155.37,160.3 C 155.83,160.38 156.27,160.29 156.62,159.98 C 156.96,159.68 157.17,159.23 156.99,158.77 C 156.84,158.37 156.43,158.05 155.99,158.25 C 155.81,158.34 155.6,158.48 155.52,158.2 C 155.44,157.92 155.58,157.7 155.82,157.57 C 156.36,157.27 157.13,157.38 157.65,157.63 C 158.12,157.86 158.57,158.26 158.88,158.67 C 159.44,159.42 159.55,160.27 159.47,161.15 C 159.39,162.08 159.13,162.87 158.65,163.66 C 158.41,164.05 158.14,164.39 157.81,164.7 C 157.63,164.87 157.43,165.0 157.23,165.13 C 157.02,165.27 156.81,165.4 156.61,165.54 C 155.78,166.07 154.93,166.57 154.06,167.06 C 153.85,167.18 153.63,167.29 153.41,167.41 C 153.36,167.44 153.3,167.47 153.25,167.5 C 153.24,167.51 153.22,167.52 153.21,167.52 C 153.21,167.52 153.2,167.53 153.2,167.53 C 153.21,167.52 153.22,167.52 153.22,167.51 C 153.25,167.5 153.28,167.48 153.31,167.47 C 153.42,167.4 153.53,167.34 153.64,167.27 C 154.08,167.02 154.52,166.75 154.93,166.44 C 155.73,165.82 156.39,165.08 156.62,164.04 C 156.84,163.01 156.62,161.96 155.66,161.36 C 155.19,161.07 154.74,160.95 154.19,160.98 C 153.94,161.0 153.7,161.05 153.46,161.14 C 153.34,161.18 153.23,161.23 153.11,161.28 C 153.06,161.31 153.0,161.33 152.95,161.36 C 152.94,161.37 152.92,161.38 152.91,161.39 C 152.89,161.39 152.92,161.39 152.93,161.4 C 152.94,161.4 152.95,161.4 152.96,161.41 C 152.97,161.42 152.99,161.42 153.01,161.43 C 153.08,161.46 153.14,161.49 153.21,161.52 C 153.92,161.88 154.47,162.33 154.62,163.19 C 154.72,163.77 154.66,164.3 154.47,164.85 C 154.1,165.95 153.25,166.9 152.42,167.62 C 152.0,167.98 151.57,168.3 151.11,168.6 C 151.05,168.64 150.51,168.89 150.44,168.92 C 150.44,168.92 150.43,168.93 150.42,168.93 C 150.4,168.94 150.44,168.9 150.45,168.89 C 150.47,168.86 150.48,168.83 150.5,168.81 C 150.54,168.75 150.57,168.7 150.61,168.64 C 150.67,168.54 150.74,168.44 150.8,168.34 C 150.91,168.18 151.03,168.02 151.14,167.85 C 151.29,167.64 151.44,167.44 151.55,167.2 C 151.61,167.06 151.65,166.94 151.55,166.79 C 151.44,166.63 151.28,166.54 151.13,166.43 C 150.88,166.25 150.66,166.06 150.45,165.84 C 150.31,165.7 150.19,165.54 150.08,165.38 C 150.06,165.36 150.05,165.33 150.03,165.31 C 150.02,165.29 150.01,165.25 149.99,165.28 C 149.96,165.32 149.93,165.37 149.9,165.41 C 149.84,165.5 149.78,165.58 149.71,165.66 C 149.5,165.91 149.27,166.13 149.01,166.33 C 148.84,166.46 148.66,166.56 148.51,166.72 C 148.4,166.84 148.37,166.94 148.41,167.1 C 148.48,167.32 148.61,167.49 148.74,167.68 C 148.97,168.01 149.19,168.33 149.41,168.66 C 149.44,168.72 149.48,168.77 149.51,168.82 C 149.53,168.85 149.55,168.88 149.56,168.91 C 149.57,168.91 149.58,168.93 149.57,168.93 C 149.56,168.92 149.56,168.92 149.55,168.92 C 149.49,168.89 149.44,168.87 149.39,168.84 C 149.28,168.79 149.17,168.74 149.06,168.68 C 148.83,168.57 148.63,168.43 148.43,168.28 C 147.54,167.65 146.64,166.83 146.04,165.9 C 145.74,165.42 145.51,164.93 145.4,164.37 C 145.3,163.86 145.3,163.21 145.52,162.71 C 145.67,162.36 145.9,162.11 146.2,161.89 C 146.39,161.74 146.61,161.62 146.83,161.51 C 146.89,161.48 146.96,161.45 147.02,161.42 C 147.05,161.41 147.12,161.4 147.08,161.38 C 147.07,161.37 147.06,161.37 147.04,161.36 C 146.99,161.33 146.93,161.3 146.88,161.28 C 146.42,161.06 145.97,160.94 145.45,160.99 C 144.43,161.07 143.55,161.76 143.35,162.79 C 143.16,163.79 143.51,164.81 144.14,165.57 C 144.81,166.36 145.64,166.85 146.51,167.36 C 146.56,167.39 146.61,167.42 146.67,167.45 C 146.69,167.47 146.72,167.48 146.75,167.5 C 146.76,167.5 146.77,167.51 146.79,167.52 C 146.79,167.52 146.81,167.53 146.8,167.53 C 146.8,167.52 146.79,167.52 146.78,167.52 C 146.68,167.46 146.57,167.4 146.46,167.34 C 146.25,167.23 146.04,167.11 145.83,166.99 C 145.41,166.76 144.99,166.52 144.57,166.27 C 144.16,166.02 143.75,165.76 143.34,165.5 C 143.14,165.37 142.94,165.24 142.74,165.1 C 142.54,164.97 142.35,164.85 142.17,164.68 C 141.51,164.05 141.09,163.34 140.8,162.47 C 140.55,161.71 140.42,160.76 140.57,159.95 C 140.74,158.99 141.34,158.2 142.18,157.72 C 142.71,157.42 143.37,157.28 143.98,157.48 C 144.21,157.56 144.47,157.71 144.5,158.0 C 144.52,158.21 144.44,158.44 144.19,158.34 C 144.0,158.26 143.83,158.15 143.59,158.21 C 143.36,158.27 143.23,158.39 143.11,158.58 C 142.85,158.98 142.91,159.42 143.2,159.78 C 143.84,160.61 144.97,160.41 145.67,159.78 C 146.33,159.18 146.51,158.19 146.31,157.36 C 146.08,156.42 145.4,155.78 144.51,155.48 C 143.51,155.15 142.26,155.3 141.34,155.79 C 139.54,156.74 138.73,159.19 139.09,161.07 C 139.17,161.53 139.32,161.97 139.53,162.39 C 139.59,162.5 139.65,162.61 139.72,162.71 C 139.75,162.76 139.79,162.82 139.82,162.87 C 139.83,162.88 139.84,162.9 139.85,162.91 C 139.86,162.93 139.83,162.9 139.82,162.89 C 139.8,162.87 139.78,162.85 139.75,162.83 C 139.56,162.66 139.37,162.49 139.18,162.31 C 138.99,162.14 138.81,161.96 138.62,161.78 C 138.53,161.68 138.37,161.22 138.34,161.11 C 138.21,160.64 138.19,160.18 138.2,159.7 C 138.23,158.0 138.83,155.55 140.36,154.42 C 141.2,153.81 142.27,153.54 143.29,153.6 C 143.87,153.63 144.4,153.76 144.93,154.01 C 145.07,154.08 145.2,154.15 145.32,154.23 C 145.39,154.27 145.45,154.31 145.51,154.35 C 145.55,154.37 145.58,154.4 145.61,154.42 C 145.62,154.43 145.64,154.44 145.65,154.45 C 145.67,154.46 145.65,154.44 145.65,154.43 C 145.65,154.43 145.65,154.42 145.65,154.41 C 145.64,154.19 145.61,153.97 145.55,153.75 C 145.41,153.29 145.17,152.98 144.77,152.7 C 144.55,152.55 144.32,152.44 144.06,152.35 C 144.05,152.35 144.05,152.35 144.04,152.34 C 144.02,152.34 144.05,152.33 144.06,152.33 C 144.07,152.31 144.09,152.3 144.1,152.29 C 144.13,152.26 144.15,152.24 144.18,152.21 C 144.23,152.16 144.29,152.1 144.34,152.05 C 144.44,151.94 144.53,151.82 144.61,151.7 C 145.23,150.78 145.42,149.41 145.03,148.36 C 144.64,147.32 143.56,146.61 142.47,146.59 C 141.41,146.58 140.33,147.26 140.33,148.42 C 140.33,148.93 140.61,149.48 141.13,149.66 C 141.38,149.74 141.67,149.74 141.9,149.6 C 142.12,149.46 142.28,149.19 142.25,148.93 C 142.24,148.79 142.19,148.69 142.08,148.6 C 141.99,148.51 141.84,148.48 141.87,148.3 C 141.89,148.12 142.08,148.08 142.23,148.08 C 142.39,148.08 142.53,148.11 142.68,148.19 C 143.18,148.48 143.41,149.08 143.39,149.62 C 143.37,150.16 143.12,150.69 142.79,151.1 C 142.44,151.51 142.03,151.79 141.57,152.04 C 140.43,152.64 139.84,152.69 138.92,153.71 C 138.56,154.11 138.28,154.54 138.07,155.03 C 138.01,155.15 137.97,155.27 137.92,155.39 C 137.9,155.45 137.88,155.51 137.86,155.57 C 137.85,155.6 137.84,155.63 137.83,155.67 C 137.83,155.67 137.83,155.69 137.83,155.68 C 137.83,155.67 137.83,155.66 137.84,155.66 C 137.84,155.64 137.84,155.63 137.85,155.61 C 137.9,155.4 137.96,155.19 138.03,154.98 C 138.36,154.0 138.96,153.18 139.39,152.26 C 139.85,151.29 140.23,150.12 140.1,149.0 C 139.97,147.89 139.39,146.98 138.34,146.51 C 138.08,146.39 137.81,146.3 137.54,146.23 C 137.4,146.2 137.27,146.17 137.13,146.15 C 137.07,146.14 137.01,146.13 136.94,146.12 C 136.92,146.12 136.91,146.11 136.89,146.11 C 136.86,146.11 136.91,146.14 136.92,146.15 C 136.96,146.19 137.0,146.23 137.04,146.27 C 137.56,146.79 138.01,147.32 138.32,148.0 C 138.75,148.93 138.72,149.77 138.31,150.69 C 138.13,151.11 137.89,151.49 137.66,151.88 C 137.65,151.9 137.63,151.93 137.62,151.95 C 137.61,151.97 137.6,151.98 137.59,151.99 C 137.59,152.0 137.59,152.0 137.59,152.0 C 137.59,151.99 137.59,151.98 137.59,151.98 C 137.58,151.93 137.58,151.88 137.57,151.83 C 137.55,151.73 137.53,151.63 137.5,151.54 C 137.44,151.33 137.35,151.16 137.21,150.99 C 136.91,150.63 136.44,150.39 135.99,150.28 C 135.74,150.23 135.48,150.21 135.22,150.23 C 135.09,150.23 134.97,150.25 134.84,150.27 C 134.78,150.28 134.72,150.29 134.65,150.31 C 134.62,150.32 134.59,150.32 134.56,150.33 C 134.55,150.34 134.53,150.34 134.52,150.34 C 134.51,150.35 134.47,150.35 134.49,150.36 C 135.37,150.59 136.13,151.07 136.42,152.02 C 136.66,152.82 136.49,153.68 136.33,154.44 C 136.25,154.83 136.16,155.21 136.12,155.61 C 136.1,155.8 136.1,156.0 136.11,156.19 C 136.11,156.32 136.1,156.45 136.1,156.58 C 136.1,156.72 136.11,156.85 136.11,156.98 C 136.18,158.04 136.45,158.96 137.0,159.87 C 137.06,159.98 137.12,160.08 137.19,160.18 C 137.2,160.2 137.22,160.23 137.24,160.25 C 137.25,160.27 137.26,160.28 137.26,160.29 C 137.27,160.3 137.29,160.33 137.28,160.31 C 137.24,160.27 137.2,160.22 137.16,160.17 C 137.0,159.98 136.85,159.78 136.7,159.59 C 136.4,159.19 136.12,158.78 135.86,158.37 C 135.33,157.52 134.89,156.66 134.54,155.72 C 133.87,153.9 133.59,151.84 134.01,149.9 C 134.44,147.92 135.54,146.21 137.38,145.23 C 139.21,144.24 141.22,144.15 143.15,144.88 C 144.98,145.57 146.68,146.91 147.91,148.39 C 148.55,149.15 149.09,149.96 149.55,150.85 C 149.61,150.96 149.66,151.07 149.71,151.18 C 149.74,151.23 149.77,151.29 149.79,151.34 C 149.81,151.37 149.82,151.4 149.83,151.43 C 149.84,151.44 149.87,151.46 149.84,151.46 C 149.83,151.46 149.81,151.46 149.8,151.46 C 149.56,151.48 149.32,151.52 149.08,151.58 C 148.57,151.72 148.14,151.95 147.74,152.29 C 146.1,153.68 146.1,156.21 147.73,157.6 C 147.82,157.68 147.92,157.76 148.02,157.83 C 148.07,157.86 148.12,157.89 148.17,157.92 C 148.19,157.94 148.22,157.95 148.24,157.97 C 148.27,157.98 148.3,157.99 148.29,158.03 C 148.23,158.31 148.16,158.59 148.1,158.87 C 147.97,159.44 147.84,160.0 147.71,160.56 C 147.45,161.69 147.2,162.82 146.94,163.94 z M 159.95,141.56 C 159.87,141.26 159.76,140.96 159.63,140.66 C 160.08,140.67 160.53,140.71 160.97,140.78 C 161.47,140.86 161.97,140.97 162.45,141.13 C 162.99,141.29 163.52,141.5 164.02,141.75 C 164.07,142.1 164.09,142.44 164.1,142.79 C 163.33,142.37 162.53,142.04 161.71,141.84 C 161.13,141.69 160.54,141.6 159.95,141.56 z M 140.37,140.66 C 140.24,140.96 140.13,141.26 140.05,141.56 C 139.46,141.6 138.87,141.69 138.28,141.84 C 137.47,142.04 136.67,142.37 135.9,142.79 C 135.91,142.44 135.93,142.1 135.98,141.75 C 136.48,141.5 137.01,141.29 137.55,141.13 C 138.03,140.97 138.53,140.86 139.03,140.78 C 139.47,140.71 139.92,140.67 140.37,140.66 z M 160.77,137.6 C 160.9,137.84 161.01,138.08 161.07,138.36 C 161.12,138.66 161.1,138.99 160.72,138.93 C 160.27,138.85 159.68,138.25 159.41,137.97 C 158.52,137.1 157.92,136.57 156.84,135.94 C 154.94,134.83 152.75,134.26 150.57,134.17 C 148.4,134.09 146.16,134.49 144.17,135.41 C 143.16,135.88 142.26,136.45 141.42,137.18 C 141.0,137.54 140.63,137.94 140.23,138.32 C 140.03,138.51 139.83,138.69 139.58,138.82 C 139.33,138.95 138.98,139.06 138.92,138.68 C 138.84,138.22 139.27,137.5 139.49,137.17 C 139.81,136.71 140.2,136.35 140.63,135.99 C 141.48,135.28 142.38,134.7 143.38,134.22 C 144.36,133.74 145.37,133.4 146.43,133.15 C 146.96,133.03 147.48,132.93 148.02,132.87 C 148.09,132.86 148.15,132.85 148.22,132.84 C 148.24,132.84 148.25,132.83 148.27,132.85 C 148.28,132.87 148.29,132.88 148.3,132.89 C 148.32,132.92 148.34,132.95 148.36,132.98 C 148.45,133.09 148.55,133.19 148.66,133.29 C 148.89,133.48 149.14,133.61 149.43,133.69 C 149.99,133.85 150.59,133.77 151.08,133.47 C 151.34,133.32 151.54,133.13 151.71,132.89 C 151.72,132.87 151.73,132.86 151.74,132.85 C 151.75,132.82 151.77,132.84 151.78,132.84 C 151.82,132.85 151.85,132.85 151.88,132.86 C 151.95,132.86 152.02,132.87 152.08,132.88 C 152.21,132.9 152.35,132.92 152.48,132.94 C 153.54,133.11 154.56,133.37 155.57,133.76 C 156.6,134.16 157.56,134.66 158.47,135.29 C 158.92,135.61 159.34,135.95 159.75,136.32 C 160.16,136.7 160.5,137.11 160.77,137.6 z"
		 />

		<!-- Prism Reference -->
		<cam mingh:cam=" --verb EditSelectAll --verb ZoomSelection --verb FileSave " /> 
	 </g>

</svg>
