<svg
   xmlns:xlink="http://www.w3.org/1999/xlink"
   xmlns:svg="http://www.w3.org/2000/svg"
   xmlns="http://www.w3.org/2000/svg"
   xmlns:mingh="http://www.minghworld.com"
   width="300px"
   height="300px" >
	 <g>	
		<!-- Paths -->
		<path transform="matrix(-1 0 0 1 300 0)" style="fill:#ff0;stroke:none;"
		 d="M 150.03,127.78 C 149.47,127.78 148.91,127.88 148.38,128.13 C 146.96,128.77 146.06,130.2 146.09,131.75 C 146.09,131.78 146.05,131.78 146.03,131.78 C 146.01,131.79 145.96,131.81 145.94,131.81 C 145.89,131.83 145.83,131.83 145.78,131.84 C 145.68,131.87 145.57,131.91 145.47,131.94 C 145.26,131.99 145.08,132.06 144.88,132.13 C 144.46,132.26 144.03,132.4 143.63,132.56 C 141.01,133.63 138.66,135.42 137.19,137.91 C 136.54,139.0 136.12,140.09 135.91,141.34 C 135.86,141.63 135.8,141.93 135.78,142.22 C 135.77,142.36 135.76,142.49 135.75,142.63 C 135.75,142.69 135.75,142.77 135.75,142.84 C 135.75,142.86 135.77,142.86 135.75,142.88 C 135.73,142.88 135.7,142.9 135.69,142.91 C 135.66,142.92 135.62,142.95 135.59,142.97 C 135.09,143.27 134.63,143.59 134.19,143.97 C 133.1,144.9 132.24,146.03 131.72,147.38 C 131.25,148.6 131.01,150.05 130.97,151.34 C 130.89,153.86 131.51,156.22 132.66,158.44 C 135.1,163.16 139.45,166.58 143.84,169.13 C 144.96,169.77 146.09,170.37 147.25,170.94 C 147.86,171.24 148.48,171.53 149.09,171.81 C 149.25,171.88 149.41,171.96 149.56,172.03 C 149.64,172.07 149.7,172.09 149.78,172.13 C 149.82,172.14 149.87,172.17 149.91,172.19 C 149.95,172.2 149.98,172.24 150.03,172.22 C 150.35,172.08 150.65,171.93 150.97,171.78 C 153.32,170.7 155.6,169.51 157.78,168.13 C 160.1,166.65 162.22,165.04 164.09,163.0 C 165.76,161.19 167.25,159.05 168.13,156.72 C 169.01,154.36 169.23,151.92 168.81,149.44 C 168.58,148.05 168.17,146.83 167.34,145.66 C 166.54,144.52 165.45,143.57 164.25,142.88 C 164.23,140.41 163.27,138.13 161.69,136.28 C 159.83,134.12 157.26,132.68 154.56,131.94 C 154.36,131.88 154.15,131.83 153.94,131.78 C 153.88,131.77 153.91,131.72 153.91,131.69 C 153.91,131.64 153.91,131.58 153.91,131.53 C 153.9,131.44 153.89,131.34 153.88,131.25 C 153.85,131.06 153.83,130.9 153.78,130.72 C 153.59,129.98 153.19,129.29 152.63,128.78 C 151.9,128.13 150.97,127.79 150.03,127.78 z M 150.0,129.72 C 150.26,129.72 150.51,129.78 150.75,129.88 C 150.99,129.97 151.19,130.13 151.38,130.31 C 151.56,130.49 151.71,130.7 151.81,130.94 C 151.91,131.17 151.94,131.43 151.94,131.69 C 151.94,131.94 151.91,132.2 151.81,132.44 C 151.71,132.67 151.56,132.88 151.38,133.06 C 151.19,133.24 150.99,133.37 150.75,133.47 C 150.51,133.57 150.26,133.63 150.0,133.63 C 149.75,133.63 149.49,133.57 149.25,133.47 C 149.01,133.37 148.81,133.24 148.63,133.06 C 148.44,132.88 148.29,132.67 148.19,132.44 C 148.09,132.2 148.06,131.94 148.06,131.69 C 148.06,131.43 148.09,131.17 148.19,130.94 C 148.29,130.7 148.44,130.49 148.63,130.31 C 148.81,130.13 149.01,129.97 149.25,129.88 C 149.49,129.78 149.74,129.72 150.0,129.72 z M 149.16,135.59 C 149.44,135.58 149.72,135.59 150.0,135.59 C 150.57,135.59 151.13,135.61 151.69,135.69 C 152.27,135.76 152.84,135.88 153.41,136.03 C 153.97,136.19 154.53,136.39 155.06,136.63 C 155.58,136.86 156.09,137.13 156.56,137.44 C 157.01,137.73 157.45,138.04 157.84,138.41 C 158.03,138.58 158.18,138.78 158.34,138.97 C 158.5,139.14 158.64,139.31 158.78,139.5 C 159.07,139.89 159.34,140.33 159.53,140.78 C 159.64,141.04 159.74,141.29 159.81,141.56 C 157.33,141.46 154.88,142.35 152.75,143.94 C 151.72,144.71 150.77,145.66 150.0,146.5 C 149.23,145.66 148.28,144.71 147.25,143.94 C 145.12,142.35 142.67,141.46 140.19,141.56 C 140.26,141.29 140.36,141.04 140.47,140.78 C 140.66,140.33 140.93,139.89 141.22,139.5 C 141.5,139.11 141.8,138.74 142.16,138.41 C 142.55,138.04 142.99,137.73 143.44,137.44 C 143.91,137.13 144.42,136.86 144.94,136.63 C 145.21,136.51 145.47,136.41 145.75,136.31 C 146.03,136.21 146.31,136.11 146.59,136.03 C 147.16,135.88 147.73,135.76 148.31,135.69 C 148.59,135.65 148.87,135.61 149.16,135.59 z M 149.91,152.69 C 150.58,152.69 151.1,152.86 151.59,153.34 C 152.0,153.74 152.22,154.28 152.25,154.84 C 152.28,155.4 152.1,155.94 151.75,156.38 C 151.58,156.58 151.39,156.77 151.16,156.91 C 150.82,157.1 150.54,157.24 150.47,157.69 C 150.42,157.97 150.47,158.24 150.53,158.5 C 150.6,158.8 150.68,159.08 150.75,159.38 L 151.16,161.16 C 151.3,161.8 151.45,162.45 151.59,163.09 C 151.6,163.11 151.63,163.13 151.59,163.13 L 151.56,163.13 L 151.44,163.13 L 151.25,163.13 L 150.88,163.13 L 150.09,163.13 L 148.53,163.13 L 148.44,163.13 C 148.42,163.13 148.4,163.15 148.41,163.13 C 148.41,163.1 148.4,163.08 148.41,163.06 C 148.42,162.98 148.45,162.89 148.47,162.81 C 148.51,162.65 148.53,162.51 148.56,162.34 C 148.64,162.02 148.74,161.67 148.81,161.34 L 149.19,159.59 C 149.25,159.34 149.56,158.17 149.56,157.91 C 149.57,157.48 149.4,157.23 149.06,157.0 C 148.77,156.81 148.62,156.76 148.38,156.5 C 148.0,156.11 147.77,155.61 147.75,155.06 C 147.7,153.82 148.66,152.74 149.91,152.69 z" />
		<text id="txtTwo" transform="matrix(1 0 0 1 150 160)" style="stroke:none;fill:#f00;font-family:'Eras Medium ITC';font-size:20px;text-anchor:middle"  >

		</text>
		<!-- Prism Reference -->
		<cam mingh:cam=" --verb EditSelectAll --verb ZoomSelection --verb FileSave"/> 
	 </g>

</svg>