<svg
   xmlns:xlink="http://www.w3.org/1999/xlink"
   xmlns:svg="http://www.w3.org/2000/svg"
   xmlns="http://www.w3.org/2000/svg"
   xmlns:mingh="http://www.minghworld.com"
   width="300px"
   height="300px" >
	
	 <g>
		<!-- Paths -->
		<path style="fill:none;stroke:#000;stroke-width:0.25px;"
			d="M 150.0,130.13 C 148.16,130.13 146.54,131.35 146.06,133.13 C 145.58,134.9 146.35,136.76 147.94,137.69 C 148.05,137.75 148.07,137.92 147.97,138.0 C 146.89,138.85 146.04,139.96 145.44,141.19 C 145.42,141.23 145.39,141.24 145.34,141.22 C 143.38,140.36 141.17,140.1 139.09,140.78 C 139.05,140.8 139.02,140.83 139.0,140.88 C 137.97,142.81 137.84,145.01 138.34,147.09 C 138.36,147.14 138.33,147.14 138.28,147.16 C 136.23,147.76 134.41,148.98 133.25,150.84 C 133.22,150.89 133.21,150.92 133.22,150.97 C 133.67,153.11 134.96,154.89 136.69,156.16 C 136.73,156.18 136.75,156.21 136.72,156.25 C 135.53,158.03 134.91,160.14 135.22,162.31 C 135.23,162.36 135.24,162.41 135.28,162.44 C 137.0,163.79 139.14,164.32 141.28,164.19 C 141.33,164.18 141.37,164.2 141.38,164.25 C 141.61,166.38 142.5,168.38 144.13,169.84 C 144.16,169.88 144.2,169.88 144.25,169.88 C 146.44,169.8 148.39,168.85 149.94,167.38 C 149.97,167.34 150.03,167.34 150.06,167.38 C 151.61,168.85 153.56,169.8 155.75,169.88 C 155.8,169.88 155.84,169.88 155.88,169.84 C 157.5,168.38 158.39,166.38 158.63,164.25 C 158.63,164.2 158.67,164.18 158.72,164.19 C 160.86,164.32 163.0,163.79 164.72,162.44 C 164.76,162.41 164.77,162.36 164.78,162.31 C 165.09,160.14 164.47,158.03 163.28,156.25 C 163.25,156.21 163.27,156.18 163.31,156.16 C 165.04,154.89 166.33,153.11 166.78,150.97 C 166.79,150.92 166.78,150.89 166.75,150.84 C 165.59,148.98 163.77,147.76 161.72,147.16 C 161.67,147.14 161.64,147.14 161.66,147.09 C 162.16,145.01 162.03,142.81 161.0,140.88 C 160.98,140.83 160.95,140.8 160.91,140.78 C 158.83,140.1 156.62,140.36 154.66,141.22 C 154.61,141.24 154.58,141.23 154.56,141.19 C 153.96,139.96 153.11,138.85 152.03,138.0 C 151.93,137.92 151.95,137.75 152.06,137.69 C 153.65,136.76 154.42,134.9 153.94,133.13 C 153.46,131.35 151.84,130.13 150.0,130.13 z M 150.0,132.25 C 151.08,132.25 151.94,133.11 151.94,134.19 C 151.94,135.26 151.08,136.13 150.0,136.13 C 148.92,136.13 148.06,135.26 148.06,134.19 C 148.06,133.11 148.92,132.25 150.0,132.25 z M 145.75,142.19 C 145.79,142.17 145.83,142.17 145.88,142.19 C 146.33,142.39 146.77,142.64 147.16,142.97 C 147.82,143.53 148.33,144.34 148.69,145.16 C 148.72,145.22 148.66,145.3 148.59,145.31 C 147.49,145.49 146.53,145.83 145.56,146.41 C 145.5,146.44 145.43,146.41 145.41,146.34 C 145.15,145.49 145.04,144.55 145.19,143.69 C 145.27,143.19 145.44,142.73 145.66,142.28 C 145.68,142.24 145.71,142.2 145.75,142.19 z M 154.13,142.19 C 154.21,142.15 154.3,142.2 154.34,142.28 C 154.56,142.73 154.73,143.19 154.81,143.69 C 154.96,144.55 154.85,145.49 154.59,146.34 C 154.57,146.41 154.5,146.44 154.44,146.41 C 153.47,145.83 152.51,145.49 151.41,145.31 C 151.34,145.3 151.28,145.22 151.31,145.16 C 151.67,144.34 152.18,143.53 152.84,142.97 C 153.23,142.64 153.67,142.39 154.13,142.19 z M 140.81,147.34 C 141.68,147.35 142.6,147.63 143.41,148.03 C 143.47,148.06 143.48,148.13 143.44,148.19 C 142.71,149.04 142.18,149.94 141.81,151.0 C 141.79,151.07 141.71,151.1 141.66,151.06 C 140.91,150.57 140.19,149.91 139.75,149.16 C 139.49,148.72 139.34,148.27 139.22,147.78 C 139.2,147.69 139.25,147.59 139.34,147.56 C 139.82,147.42 140.31,147.34 140.81,147.34 z M 159.19,147.34 C 159.69,147.34 160.18,147.42 160.66,147.56 C 160.75,147.59 160.8,147.69 160.78,147.78 C 160.66,148.27 160.51,148.72 160.25,149.16 C 159.81,149.91 159.09,150.57 158.34,151.06 C 158.29,151.1 158.21,151.07 158.19,151.0 C 157.82,149.94 157.29,149.04 156.56,148.19 C 156.52,148.13 156.53,148.06 156.59,148.03 C 157.4,147.63 158.32,147.35 159.19,147.34 z M 141.19,153.66 C 141.25,153.64 141.31,153.68 141.31,153.75 C 141.3,154.87 141.48,155.89 141.88,156.94 C 141.9,157.0 141.85,157.09 141.78,157.09 C 140.89,157.19 139.95,157.13 139.13,156.84 C 138.65,156.68 138.22,156.45 137.81,156.16 C 137.74,156.1 137.73,155.99 137.78,155.91 C 138.06,155.49 138.39,155.1 138.78,154.78 C 139.45,154.23 140.32,153.87 141.19,153.66 z M 158.72,153.66 C 158.74,153.64 158.78,153.65 158.81,153.66 C 159.68,153.87 160.55,154.23 161.22,154.78 C 161.61,155.1 161.94,155.49 162.22,155.91 C 162.27,155.99 162.26,156.1 162.19,156.16 C 161.78,156.45 161.35,156.68 160.88,156.84 C 160.05,157.13 159.11,157.19 158.22,157.09 C 158.15,157.09 158.1,157.0 158.13,156.94 C 158.52,155.89 158.7,154.87 158.69,153.75 C 158.69,153.72 158.69,153.68 158.72,153.66 z M 143.19,159.31 C 143.22,159.31 143.26,159.32 143.28,159.34 C 143.99,160.21 144.77,160.89 145.75,161.44 C 145.81,161.47 145.83,161.57 145.78,161.63 C 145.16,162.27 144.41,162.85 143.59,163.16 C 143.12,163.33 142.62,163.4 142.13,163.44 C 142.03,163.44 141.95,163.38 141.94,163.28 C 141.88,162.79 141.88,162.28 141.97,161.78 C 142.13,160.92 142.56,160.1 143.09,159.38 C 143.11,159.35 143.16,159.31 143.19,159.31 z M 156.81,159.31 C 156.84,159.31 156.89,159.35 156.91,159.38 C 157.44,160.1 157.87,160.92 158.03,161.78 C 158.12,162.28 158.12,162.79 158.06,163.28 C 158.05,163.38 157.97,163.44 157.88,163.44 C 157.38,163.4 156.88,163.33 156.41,163.16 C 155.59,162.85 154.84,162.27 154.22,161.63 C 154.17,161.57 154.19,161.47 154.25,161.44 C 155.23,160.89 156.01,160.21 156.72,159.34 C 156.74,159.32 156.78,159.31 156.81,159.31 z M 148.38,162.41 C 149.48,162.62 150.52,162.62 151.63,162.41 C 151.69,162.39 151.75,162.43 151.75,162.5 C 151.7,163.39 151.49,164.34 151.06,165.09 C 150.81,165.53 150.48,165.9 150.13,166.25 C 150.06,166.32 149.94,166.32 149.88,166.25 C 149.52,165.9 149.19,165.53 148.94,165.09 C 148.51,164.34 148.3,163.39 148.25,162.5 C 148.25,162.43 148.31,162.39 148.38,162.41 z"
		 />
		 
		 <path style="fill:#f00;stroke:none;"
			d="M 156.38,166.92 C 155.46,166.32 154.77,165.56 154.15,164.66 C 154.0,164.44 153.85,164.21 153.71,163.98 C 153.7,163.95 153.68,163.92 153.66,163.9 C 153.65,163.88 153.65,163.87 153.64,163.85 C 153.63,163.85 153.62,163.82 153.63,163.83 C 153.63,163.84 153.63,163.85 153.63,163.86 C 153.64,163.93 153.65,163.99 153.66,164.06 C 153.69,164.19 153.7,164.33 153.72,164.46 C 153.79,164.98 153.82,165.51 153.8,166.04 C 153.79,166.44 153.75,166.83 153.68,167.22 C 153.65,167.41 153.61,167.6 153.56,167.78 C 153.55,167.82 153.53,167.87 153.52,167.91 C 153.52,167.93 153.51,167.94 153.51,167.95 C 153.51,167.96 153.51,167.98 153.5,167.97 C 153.49,167.97 153.48,167.96 153.47,167.96 C 153.43,167.94 153.39,167.92 153.34,167.9 C 153.02,167.76 152.71,167.6 152.4,167.41 C 152.03,167.17 151.67,166.91 151.34,166.62 C 151.3,166.58 151.25,166.55 151.21,166.51 C 151.2,166.5 151.19,166.49 151.18,166.48 C 151.18,166.48 151.14,166.47 151.15,166.45 C 151.18,166.42 151.21,166.39 151.23,166.36 C 151.34,166.23 151.44,166.1 151.53,165.97 C 151.72,165.69 151.89,165.4 152.03,165.1 C 152.49,164.13 152.7,163.06 152.62,161.99 C 152.6,161.73 152.56,161.47 152.51,161.21 C 152.51,161.2 152.49,161.17 152.5,161.16 C 152.52,161.16 152.54,161.15 152.55,161.15 C 152.58,161.14 152.62,161.12 152.65,161.11 C 152.68,161.1 152.71,161.09 152.74,161.08 C 152.76,161.07 152.77,161.06 152.78,161.08 C 152.79,161.09 152.8,161.11 152.8,161.12 C 152.87,161.24 152.93,161.35 153.0,161.46 C 153.29,161.92 153.63,162.33 154.03,162.7 C 154.82,163.42 155.78,163.93 156.83,164.18 C 156.92,164.2 157.01,164.22 157.11,164.23 C 157.13,164.24 157.15,164.24 157.17,164.25 C 157.18,164.25 157.21,164.24 157.21,164.25 C 157.21,164.26 157.2,164.27 157.2,164.28 C 157.2,164.31 157.2,164.34 157.19,164.37 C 157.17,164.5 157.15,164.63 157.13,164.75 C 157.08,165.0 157.02,165.25 156.95,165.5 C 156.81,166.0 156.62,166.47 156.38,166.92 z M 162.5,162.13 C 162.43,162.01 162.36,161.88 162.28,161.76 C 161.87,161.13 161.27,160.52 160.58,159.98 C 161.39,160.3 162.22,160.52 162.97,160.56 C 163.12,160.57 163.26,160.57 163.4,160.57 C 163.44,160.92 163.45,161.27 163.42,161.62 C 163.13,161.81 162.82,161.99 162.5,162.13 z M 163.28,159.77 C 162.18,159.9 161.17,159.76 160.11,159.47 C 159.86,159.4 159.6,159.32 159.35,159.23 C 159.31,159.22 159.28,159.21 159.25,159.2 C 159.23,159.19 159.22,159.18 159.2,159.18 C 159.2,159.18 159.17,159.16 159.18,159.17 C 159.19,159.18 159.2,159.18 159.2,159.19 C 159.25,159.23 159.31,159.28 159.36,159.32 C 159.46,159.41 159.56,159.5 159.66,159.59 C 160.05,159.95 160.4,160.33 160.73,160.75 C 160.98,161.06 161.21,161.39 161.4,161.73 C 161.5,161.9 161.59,162.07 161.67,162.24 C 161.69,162.28 161.7,162.32 161.72,162.37 C 161.73,162.38 161.73,162.39 161.74,162.4 C 161.74,162.41 161.76,162.42 161.74,162.42 C 161.73,162.43 161.72,162.43 161.71,162.43 C 161.67,162.45 161.63,162.46 161.58,162.47 C 161.24,162.57 160.9,162.65 160.54,162.7 C 160.1,162.76 159.66,162.79 159.22,162.78 C 159.16,162.78 159.11,162.78 159.05,162.77 C 159.04,162.77 159.03,162.77 159.01,162.77 C 159.0,162.77 158.97,162.78 158.97,162.77 C 158.97,162.73 158.97,162.69 158.97,162.65 C 158.97,162.48 158.96,162.32 158.95,162.15 C 158.92,161.82 158.86,161.49 158.78,161.17 C 158.51,160.13 157.97,159.18 157.22,158.41 C 157.04,158.22 156.84,158.04 156.64,157.88 C 156.63,157.87 156.6,157.86 156.61,157.85 C 156.61,157.83 156.62,157.82 156.63,157.8 C 156.65,157.77 156.67,157.75 156.68,157.72 C 156.7,157.69 156.72,157.66 156.73,157.63 C 156.74,157.62 156.74,157.59 156.76,157.6 C 156.78,157.61 156.79,157.62 156.81,157.62 C 156.93,157.67 157.05,157.71 157.18,157.75 C 157.7,157.92 158.22,158.01 158.76,158.04 C 159.83,158.09 160.9,157.86 161.86,157.38 C 161.94,157.33 162.02,157.29 162.11,157.24 C 162.13,157.23 162.15,157.22 162.17,157.21 C 162.17,157.2 162.19,157.18 162.2,157.19 C 162.2,157.2 162.2,157.21 162.21,157.21 C 162.23,157.24 162.24,157.27 162.26,157.29 C 162.33,157.4 162.39,157.51 162.45,157.62 C 162.58,157.85 162.69,158.08 162.8,158.31 C 163.01,158.78 163.17,159.26 163.28,159.77 z M 154.27,168.23 C 154.29,168.1 154.32,167.95 154.34,167.81 C 154.43,167.06 154.36,166.21 154.18,165.35 C 154.59,166.12 155.09,166.82 155.64,167.33 C 155.74,167.43 155.85,167.53 155.96,167.61 C 155.77,167.91 155.54,168.18 155.3,168.43 C 154.95,168.4 154.6,168.33 154.27,168.23 z M 163.96,149.85 C 163.2,150.66 162.34,151.2 161.35,151.66 C 161.1,151.77 160.86,151.87 160.6,151.97 C 160.57,151.98 160.54,151.99 160.51,152.0 C 160.49,152.01 160.48,152.02 160.46,152.02 C 160.45,152.02 160.43,152.03 160.44,152.03 C 160.45,152.03 160.46,152.03 160.47,152.03 C 160.54,152.03 160.6,152.03 160.67,152.03 C 160.8,152.03 160.94,152.04 161.07,152.04 C 161.6,152.07 162.12,152.13 162.64,152.24 C 163.03,152.32 163.41,152.42 163.79,152.56 C 163.97,152.63 164.14,152.7 164.32,152.78 C 164.36,152.8 164.4,152.82 164.44,152.84 C 164.45,152.85 164.46,152.85 164.47,152.86 C 164.48,152.86 164.5,152.86 164.49,152.87 C 164.49,152.88 164.48,152.89 164.47,152.9 C 164.45,152.94 164.43,152.98 164.4,153.01 C 164.2,153.31 163.99,153.59 163.75,153.85 C 163.45,154.19 163.13,154.49 162.79,154.77 C 162.75,154.8 162.7,154.84 162.66,154.87 C 162.65,154.88 162.64,154.89 162.63,154.9 C 162.62,154.9 162.6,154.93 162.59,154.92 C 162.57,154.89 162.54,154.86 162.51,154.82 C 162.41,154.7 162.3,154.58 162.18,154.46 C 161.94,154.23 161.69,154.01 161.41,153.82 C 160.54,153.2 159.52,152.81 158.45,152.7 C 158.19,152.68 157.93,152.67 157.66,152.67 C 157.65,152.67 157.62,152.69 157.62,152.67 C 157.61,152.65 157.61,152.64 157.61,152.62 C 157.6,152.59 157.6,152.55 157.59,152.52 C 157.59,152.49 157.58,152.46 157.57,152.42 C 157.57,152.41 157.56,152.39 157.58,152.38 C 157.6,152.38 157.61,152.37 157.63,152.37 C 157.75,152.33 157.87,152.28 158.0,152.23 C 158.5,152.02 158.96,151.76 159.39,151.43 C 160.25,150.78 160.92,149.92 161.34,148.94 C 161.37,148.85 161.41,148.76 161.44,148.67 C 161.45,148.65 161.46,148.63 161.47,148.61 C 161.47,148.6 161.46,148.57 161.48,148.58 C 161.49,148.58 161.49,148.58 161.5,148.58 C 161.53,148.59 161.56,148.6 161.59,148.61 C 161.71,148.65 161.83,148.7 161.95,148.74 C 162.19,148.83 162.43,148.93 162.66,149.05 C 163.12,149.27 163.55,149.54 163.96,149.85 z M 160.31,142.99 C 160.17,143.04 160.04,143.09 159.9,143.15 C 159.21,143.44 158.5,143.93 157.86,144.51 C 158.31,143.77 158.67,142.99 158.84,142.26 C 158.87,142.11 158.9,141.97 158.92,141.83 C 159.27,141.86 159.62,141.91 159.96,142.0 C 160.1,142.32 160.22,142.65 160.31,142.99 z M 158.11,141.82 C 158.05,142.92 157.74,143.9 157.27,144.88 C 157.16,145.12 157.03,145.36 156.9,145.6 C 156.88,145.63 156.87,145.66 156.85,145.69 C 156.84,145.7 156.83,145.72 156.83,145.73 C 156.82,145.74 156.81,145.76 156.82,145.75 C 156.82,145.74 156.83,145.74 156.84,145.73 C 156.89,145.69 156.94,145.65 156.99,145.6 C 157.1,145.52 157.2,145.43 157.31,145.35 C 157.73,145.03 158.17,144.75 158.64,144.49 C 158.99,144.3 159.35,144.14 159.72,144.0 C 159.9,143.94 160.08,143.88 160.27,143.83 C 160.31,143.82 160.36,143.81 160.4,143.8 C 160.41,143.8 160.43,143.79 160.44,143.79 C 160.44,143.79 160.46,143.78 160.46,143.79 C 160.46,143.8 160.46,143.81 160.47,143.82 C 160.47,143.87 160.48,143.91 160.48,143.96 C 160.52,144.31 160.53,144.66 160.52,145.02 C 160.51,145.46 160.46,145.9 160.37,146.34 C 160.36,146.39 160.35,146.45 160.34,146.5 C 160.34,146.51 160.33,146.53 160.33,146.54 C 160.33,146.55 160.34,146.58 160.32,146.58 C 160.28,146.57 160.24,146.56 160.2,146.56 C 160.04,146.53 159.88,146.51 159.71,146.5 C 159.38,146.47 159.04,146.47 158.71,146.49 C 157.64,146.58 156.61,146.94 155.72,147.54 C 155.51,147.69 155.3,147.85 155.1,148.03 C 155.09,148.03 155.08,148.07 155.06,148.05 C 155.05,148.04 155.04,148.03 155.03,148.02 C 155.0,148.0 154.97,147.98 154.95,147.96 C 154.92,147.94 154.9,147.91 154.87,147.89 C 154.86,147.88 154.84,147.88 154.85,147.86 C 154.86,147.84 154.87,147.83 154.88,147.82 C 154.94,147.7 155.01,147.59 155.07,147.47 C 155.32,146.99 155.51,146.5 155.63,145.96 C 155.86,144.92 155.82,143.83 155.51,142.8 C 155.48,142.71 155.45,142.62 155.42,142.53 C 155.42,142.51 155.41,142.49 155.4,142.47 C 155.4,142.46 155.38,142.44 155.39,142.44 C 155.4,142.43 155.4,142.43 155.41,142.43 C 155.44,142.42 155.47,142.4 155.5,142.39 C 155.62,142.34 155.74,142.3 155.86,142.26 C 156.1,142.17 156.35,142.1 156.6,142.04 C 157.1,141.91 157.6,141.84 158.11,141.82 z M 148.47,139.42 C 149.13,140.31 149.52,141.25 149.79,142.31 C 149.86,142.57 149.92,142.83 149.97,143.1 C 149.98,143.13 149.98,143.16 149.99,143.2 C 149.99,143.21 149.99,143.23 150.0,143.25 C 150.0,143.25 150.0,143.28 150.0,143.27 C 150.0,143.26 150.0,143.25 150.0,143.24 C 150.02,143.18 150.03,143.11 150.04,143.04 C 150.07,142.91 150.09,142.78 150.12,142.65 C 150.24,142.13 150.39,141.63 150.59,141.14 C 150.74,140.76 150.91,140.41 151.11,140.06 C 151.2,139.9 151.3,139.74 151.41,139.58 C 151.44,139.54 151.47,139.51 151.5,139.47 C 151.5,139.46 151.51,139.45 151.52,139.44 C 151.52,139.43 151.52,139.41 151.54,139.42 C 151.54,139.43 151.55,139.44 151.56,139.45 C 151.59,139.48 151.62,139.51 151.66,139.54 C 151.91,139.78 152.15,140.05 152.37,140.33 C 152.65,140.68 152.89,141.04 153.1,141.43 C 153.13,141.48 153.16,141.53 153.18,141.58 C 153.19,141.59 153.2,141.6 153.2,141.61 C 153.21,141.62 153.23,141.64 153.22,141.65 C 153.18,141.67 153.15,141.69 153.11,141.71 C 152.97,141.79 152.83,141.88 152.7,141.98 C 152.43,142.17 152.17,142.39 151.93,142.62 C 151.17,143.37 150.61,144.31 150.32,145.34 C 150.25,145.6 150.19,145.86 150.15,146.12 C 150.15,146.13 150.16,146.16 150.14,146.16 C 150.12,146.16 150.11,146.16 150.09,146.16 C 150.06,146.16 150.02,146.16 149.99,146.16 C 149.96,146.16 149.92,146.16 149.89,146.16 C 149.87,146.16 149.85,146.17 149.85,146.15 C 149.85,146.13 149.85,146.11 149.84,146.1 C 149.82,145.97 149.8,145.84 149.77,145.71 C 149.66,145.18 149.48,144.68 149.23,144.2 C 148.74,143.24 148.01,142.43 147.11,141.85 C 147.03,141.8 146.95,141.75 146.87,141.7 C 146.85,141.69 146.83,141.68 146.81,141.66 C 146.8,141.66 146.77,141.66 146.78,141.65 C 146.78,141.64 146.79,141.63 146.79,141.63 C 146.81,141.6 146.82,141.57 146.84,141.54 C 146.9,141.43 146.96,141.32 147.02,141.21 C 147.16,140.99 147.3,140.77 147.45,140.57 C 147.75,140.15 148.09,139.77 148.47,139.42 z M 146.5,167.97 C 146.18,166.91 146.14,165.89 146.24,164.8 C 146.27,164.54 146.3,164.27 146.34,164.0 C 146.35,163.97 146.36,163.94 146.36,163.9 C 146.36,163.89 146.37,163.87 146.37,163.85 C 146.37,163.85 146.38,163.82 146.37,163.83 C 146.37,163.84 146.36,163.85 146.36,163.86 C 146.33,163.91 146.29,163.97 146.26,164.03 C 146.19,164.15 146.12,164.26 146.04,164.37 C 145.76,164.82 145.44,165.24 145.09,165.63 C 144.83,165.93 144.55,166.21 144.24,166.47 C 144.09,166.59 143.94,166.7 143.78,166.81 C 143.75,166.84 143.71,166.87 143.67,166.89 C 143.66,166.9 143.65,166.9 143.64,166.91 C 143.63,166.91 143.62,166.93 143.62,166.92 C 143.61,166.91 143.61,166.9 143.6,166.89 C 143.58,166.85 143.56,166.81 143.54,166.77 C 143.38,166.45 143.25,166.13 143.14,165.79 C 143.0,165.36 142.9,164.94 142.83,164.5 C 142.82,164.44 142.81,164.39 142.8,164.33 C 142.8,164.32 142.8,164.31 142.8,164.29 C 142.8,164.28 142.78,164.26 142.8,164.25 C 142.84,164.25 142.88,164.24 142.92,164.23 C 143.08,164.2 143.24,164.16 143.4,164.12 C 143.72,164.03 144.03,163.92 144.34,163.78 C 145.31,163.33 146.16,162.64 146.78,161.77 C 146.94,161.56 147.08,161.34 147.2,161.1 C 147.21,161.1 147.22,161.06 147.23,161.07 C 147.25,161.07 147.26,161.08 147.28,161.08 C 147.31,161.1 147.34,161.11 147.37,161.12 C 147.4,161.13 147.44,161.14 147.47,161.15 C 147.48,161.16 147.5,161.16 147.5,161.18 C 147.49,161.19 147.49,161.21 147.49,161.23 C 147.46,161.36 147.44,161.48 147.42,161.61 C 147.35,162.15 147.35,162.68 147.42,163.22 C 147.55,164.29 147.96,165.3 148.61,166.15 C 148.66,166.23 148.72,166.3 148.78,166.38 C 148.8,166.4 148.81,166.41 148.83,166.43 C 148.83,166.44 148.86,166.45 148.85,166.46 C 148.84,166.46 148.83,166.47 148.83,166.47 C 148.8,166.5 148.78,166.52 148.76,166.54 C 148.66,166.62 148.56,166.71 148.46,166.79 C 148.27,166.95 148.06,167.1 147.85,167.25 C 147.42,167.53 146.98,167.78 146.5,167.97 z M 144.04,167.61 C 144.15,167.53 144.26,167.43 144.36,167.33 C 144.91,166.82 145.41,166.12 145.82,165.35 C 145.64,166.21 145.57,167.06 145.66,167.81 C 145.68,167.95 145.71,168.1 145.73,168.23 C 145.4,168.33 145.05,168.4 144.7,168.43 C 144.46,168.18 144.23,167.91 144.04,167.61 z M 138.25,162.42 C 138.69,161.41 139.32,160.6 140.09,159.83 C 140.28,159.64 140.48,159.46 140.69,159.28 C 140.71,159.26 140.74,159.24 140.76,159.22 C 140.78,159.21 140.79,159.2 140.8,159.19 C 140.81,159.18 140.83,159.17 140.82,159.17 C 140.81,159.17 140.8,159.18 140.79,159.18 C 140.73,159.2 140.67,159.23 140.6,159.25 C 140.47,159.29 140.35,159.33 140.22,159.37 C 139.71,159.53 139.2,159.65 138.68,159.73 C 138.28,159.78 137.89,159.82 137.49,159.82 C 137.3,159.81 137.11,159.81 136.92,159.79 C 136.87,159.78 136.83,159.78 136.78,159.77 C 136.77,159.77 136.76,159.77 136.75,159.77 C 136.74,159.77 136.72,159.78 136.72,159.76 C 136.72,159.75 136.73,159.74 136.73,159.73 C 136.74,159.69 136.75,159.64 136.76,159.6 C 136.84,159.25 136.95,158.92 137.08,158.59 C 137.25,158.18 137.45,157.78 137.68,157.4 C 137.7,157.35 137.73,157.31 137.76,157.26 C 137.77,157.25 137.78,157.24 137.78,157.22 C 137.79,157.22 137.79,157.18 137.81,157.19 C 137.84,157.21 137.88,157.23 137.91,157.25 C 138.06,157.33 138.2,157.41 138.35,157.48 C 138.66,157.62 138.97,157.73 139.29,157.82 C 140.33,158.11 141.42,158.12 142.46,157.86 C 142.71,157.79 142.96,157.71 143.21,157.61 C 143.22,157.61 143.24,157.59 143.25,157.6 C 143.26,157.62 143.27,157.63 143.28,157.65 C 143.29,157.68 143.31,157.71 143.33,157.73 C 143.34,157.76 143.36,157.79 143.38,157.82 C 143.39,157.83 143.4,157.85 143.39,157.86 C 143.37,157.87 143.36,157.88 143.35,157.89 C 143.24,157.97 143.15,158.06 143.05,158.15 C 142.64,158.51 142.3,158.92 142.01,159.37 C 141.43,160.28 141.09,161.31 141.04,162.38 C 141.03,162.48 141.03,162.57 141.03,162.67 C 141.03,162.69 141.03,162.71 141.03,162.74 C 141.03,162.74 141.04,162.77 141.03,162.77 C 141.02,162.77 141.01,162.77 141.0,162.77 C 140.97,162.77 140.94,162.77 140.91,162.78 C 140.78,162.78 140.65,162.78 140.52,162.78 C 140.26,162.77 140.01,162.76 139.75,162.73 C 139.24,162.68 138.74,162.58 138.25,162.42 z M 136.6,160.57 C 136.74,160.57 136.88,160.57 137.03,160.56 C 137.77,160.52 138.61,160.3 139.42,159.98 C 138.73,160.52 138.13,161.13 137.72,161.76 C 137.64,161.88 137.57,162.01 137.5,162.13 C 137.18,161.99 136.87,161.81 136.58,161.62 C 136.55,161.27 136.56,160.92 136.6,160.57 z M 135.5,152.87 C 136.49,152.37 137.49,152.16 138.58,152.07 C 138.85,152.05 139.12,152.03 139.39,152.03 C 139.42,152.03 139.45,152.03 139.49,152.03 C 139.5,152.03 139.52,152.03 139.54,152.03 C 139.54,152.03 139.57,152.03 139.56,152.03 C 139.55,152.03 139.54,152.02 139.53,152.02 C 139.47,152.0 139.41,151.97 139.34,151.95 C 139.22,151.9 139.09,151.85 138.97,151.8 C 138.48,151.59 138.01,151.36 137.56,151.08 C 137.22,150.87 136.9,150.64 136.59,150.38 C 136.45,150.26 136.31,150.13 136.18,150.0 C 136.14,149.96 136.11,149.93 136.08,149.9 C 136.07,149.89 136.06,149.88 136.05,149.87 C 136.05,149.86 136.03,149.86 136.04,149.85 C 136.05,149.84 136.06,149.84 136.07,149.83 C 136.1,149.8 136.14,149.78 136.17,149.75 C 136.46,149.54 136.76,149.35 137.07,149.18 C 137.47,148.97 137.87,148.8 138.29,148.65 C 138.34,148.63 138.39,148.62 138.45,148.6 C 138.46,148.6 138.47,148.59 138.49,148.59 C 138.49,148.58 138.52,148.56 138.52,148.58 C 138.54,148.62 138.55,148.65 138.57,148.69 C 138.62,148.85 138.69,149.0 138.76,149.15 C 138.9,149.45 139.07,149.74 139.26,150.02 C 139.87,150.9 140.69,151.61 141.66,152.08 C 141.9,152.19 142.14,152.29 142.39,152.37 C 142.4,152.38 142.44,152.38 142.43,152.39 C 142.43,152.41 142.43,152.43 142.42,152.44 C 142.42,152.47 142.41,152.51 142.4,152.54 C 142.4,152.57 142.39,152.61 142.39,152.64 C 142.39,152.66 142.39,152.68 142.37,152.68 C 142.35,152.67 142.34,152.67 142.32,152.67 C 142.19,152.67 142.06,152.67 141.93,152.68 C 141.38,152.7 140.86,152.79 140.34,152.95 C 139.32,153.27 138.39,153.85 137.66,154.63 C 137.6,154.7 137.53,154.77 137.47,154.84 C 137.46,154.86 137.44,154.88 137.43,154.9 C 137.42,154.9 137.41,154.93 137.4,154.92 C 137.4,154.91 137.39,154.91 137.38,154.91 C 137.36,154.89 137.33,154.87 137.31,154.85 C 137.21,154.77 137.11,154.69 137.01,154.6 C 136.82,154.43 136.63,154.26 136.45,154.07 C 136.1,153.7 135.78,153.31 135.5,152.87 z M 135.43,150.38 C 135.53,150.48 135.64,150.57 135.76,150.66 C 136.36,151.11 137.14,151.48 137.96,151.75 C 137.09,151.72 136.24,151.8 135.52,152.02 C 135.38,152.06 135.25,152.11 135.11,152.16 C 134.96,151.85 134.84,151.52 134.74,151.18 C 134.94,150.9 135.18,150.63 135.43,150.38 z M 139.54,143.79 C 140.62,144.04 141.52,144.52 142.41,145.15 C 142.63,145.3 142.84,145.47 143.05,145.64 C 143.08,145.66 143.1,145.68 143.13,145.7 C 143.14,145.71 143.16,145.72 143.17,145.73 C 143.17,145.74 143.19,145.76 143.18,145.75 C 143.18,145.74 143.18,145.73 143.17,145.73 C 143.14,145.67 143.1,145.61 143.07,145.55 C 143.01,145.43 142.94,145.31 142.88,145.19 C 142.64,144.72 142.43,144.24 142.27,143.74 C 142.14,143.36 142.04,142.98 141.97,142.58 C 141.94,142.39 141.92,142.21 141.9,142.02 C 141.9,141.97 141.89,141.92 141.89,141.88 C 141.89,141.86 141.89,141.85 141.89,141.84 C 141.89,141.83 141.87,141.82 141.89,141.82 C 141.9,141.82 141.91,141.82 141.92,141.82 C 141.97,141.82 142.01,141.82 142.06,141.83 C 142.41,141.85 142.76,141.9 143.11,141.97 C 143.55,142.06 143.97,142.19 144.38,142.35 C 144.43,142.37 144.49,142.39 144.54,142.41 C 144.55,142.41 144.56,142.42 144.58,142.42 C 144.58,142.43 144.62,142.42 144.61,142.44 C 144.6,142.48 144.58,142.52 144.57,142.55 C 144.51,142.71 144.47,142.87 144.42,143.02 C 144.34,143.35 144.28,143.68 144.25,144.01 C 144.15,145.08 144.32,146.16 144.76,147.13 C 144.87,147.38 145.0,147.61 145.13,147.83 C 145.14,147.84 145.16,147.86 145.15,147.87 C 145.14,147.88 145.13,147.89 145.11,147.91 C 145.09,147.93 145.06,147.95 145.04,147.97 C 145.01,147.99 144.98,148.01 144.96,148.04 C 144.95,148.04 144.94,148.06 144.92,148.05 C 144.91,148.04 144.9,148.03 144.89,148.02 C 144.79,147.93 144.69,147.85 144.58,147.77 C 144.15,147.43 143.69,147.17 143.19,146.96 C 142.2,146.54 141.12,146.39 140.06,146.52 C 139.96,146.53 139.87,146.54 139.78,146.56 C 139.75,146.56 139.73,146.57 139.71,146.57 C 139.7,146.57 139.68,146.59 139.68,146.58 C 139.67,146.57 139.67,146.56 139.67,146.55 C 139.66,146.52 139.66,146.49 139.65,146.46 C 139.62,146.33 139.6,146.21 139.58,146.08 C 139.54,145.83 139.51,145.57 139.49,145.32 C 139.46,144.8 139.47,144.3 139.54,143.79 z M 141.08,141.83 C 141.1,141.97 141.13,142.11 141.16,142.26 C 141.33,142.99 141.69,143.77 142.14,144.51 C 141.5,143.93 140.79,143.44 140.1,143.15 C 139.96,143.09 139.83,143.04 139.69,142.99 C 139.78,142.65 139.9,142.32 140.04,142.0 C 140.38,141.91 140.73,141.86 141.08,141.83 z M 150.9,138.91 C 150.83,139.03 150.76,139.16 150.69,139.29 C 150.35,139.96 150.12,140.79 150.0,141.65 C 149.88,140.79 149.65,139.96 149.31,139.29 C 149.24,139.16 149.17,139.03 149.1,138.91 C 149.38,138.71 149.68,138.53 150.0,138.37 C 150.32,138.53 150.62,138.71 150.9,138.91 z M 164.89,152.16 C 164.75,152.11 164.62,152.06 164.48,152.02 C 163.76,151.8 162.91,151.72 162.04,151.75 C 162.86,151.48 163.64,151.11 164.24,150.66 C 164.36,150.57 164.47,150.48 164.57,150.38 C 164.82,150.63 165.06,150.9 165.26,151.18 C 165.16,151.52 165.04,151.85 164.89,152.16 z"
		 />
		 
		 <path style="fill:#00f;stroke:none;"
			d="M 157.26,153.87 C 157.26,157.88 154.01,161.13 150.0,161.13 C 145.99,161.13 142.74,157.88 142.74,153.87 C 142.74,149.86 145.99,146.61 150.0,146.61 C 154.01,146.61 157.26,149.86 157.26,153.87 z"
		 />
		
		<!-- Prism Reference -->
		<cam mingh:cam="--verb EditSelectAll --verb ZoomSelection --verb FileSave" /> 
	 </g>

</svg>
