<svg
   xmlns:xlink="http://www.w3.org/1999/xlink"
   xmlns:svg="http://www.w3.org/2000/svg"
   xmlns="http://www.w3.org/2000/svg"
   xmlns:mingh="http://www.minghworld.com"
   width="300px"
   height="300px" >
	 <g>
		<!-- Paths -->
		<path transform="matrix(-1 0 0 1 300 0)" style="fill:#ff0;stroke:none;"
		 d="M 150.0,122.94 C 148.42,122.94 146.98,123.88 146.31,125.31 C 145.64,126.75 145.86,128.44 146.88,129.66 C 147.23,130.07 147.22,130.67 146.84,131.06 C 146.82,131.09 146.77,131.13 146.75,131.16 C 146.56,131.36 146.41,131.56 146.25,131.78 C 145.94,132.23 145.68,132.73 145.5,133.25 C 145.33,133.73 145.2,134.24 145.16,134.75 C 145.15,134.87 145.16,134.98 145.16,135.09 C 145.15,135.21 145.15,135.35 145.16,135.47 C 145.16,135.7 145.17,135.93 145.19,136.16 C 145.21,136.37 145.21,136.57 145.25,136.78 C 145.28,136.97 145.33,137.16 145.38,137.34 C 145.46,137.66 145.58,137.95 145.72,138.25 C 145.96,138.79 146.25,139.27 146.63,139.72 C 146.69,139.79 146.75,139.86 146.81,139.94 C 146.92,140.07 147.03,140.2 147.13,140.31 C 147.32,140.56 147.49,140.82 147.66,141.28 C 147.76,141.58 147.87,141.94 147.78,142.31 C 147.71,142.6 147.51,142.9 147.34,143.06 C 147.19,143.21 147.05,143.23 146.88,143.19 C 146.68,143.14 146.45,143.03 146.25,142.88 C 145.99,142.67 145.79,142.43 145.63,142.19 C 145.49,141.99 145.37,141.8 145.28,141.59 C 145.24,141.51 145.22,141.4 145.19,141.31 C 145.11,141.11 145.05,140.9 145.0,140.69 C 144.94,140.46 144.89,140.23 144.84,140.0 C 144.79,139.75 144.74,139.5 144.69,139.25 C 144.63,138.97 144.57,138.68 144.5,138.41 C 144.42,138.1 144.31,137.8 144.22,137.5 C 144.12,137.17 144.0,136.85 143.88,136.53 C 143.8,136.34 143.73,136.13 143.63,135.94 C 143.27,135.3 142.66,134.71 141.97,134.25 C 141.27,133.79 140.48,133.49 139.72,133.47 C 139.42,133.46 139.12,133.47 138.84,133.53 C 138.43,133.62 138.05,133.77 137.69,133.97 C 137.34,134.16 137.03,134.41 136.75,134.69 C 136.47,134.96 136.2,135.26 136.0,135.59 C 135.79,135.93 135.64,136.32 135.5,136.69 C 135.36,137.06 135.27,137.42 135.19,137.81 C 135.14,138.05 135.09,138.32 135.06,138.56 C 135.02,138.9 135.0,139.22 135.0,139.56 C 135.0,140.23 135.05,140.9 135.13,141.56 C 135.19,142.17 135.27,142.79 135.34,143.41 C 135.45,144.31 135.51,145.11 135.53,145.91 C 135.59,148.61 135.29,151.16 134.53,153.91 C 133.99,155.85 133.2,157.9 132.34,159.69 C 131.49,161.48 130.59,163.02 129.78,163.97 C 129.78,163.97 129.75,163.96 129.75,163.97 C 129.68,164.09 129.61,164.24 129.56,164.38 C 129.52,164.48 129.5,164.58 129.5,164.69 C 129.5,164.75 129.48,164.82 129.5,164.88 C 129.51,164.92 129.54,164.96 129.56,165.0 C 129.59,165.04 129.62,165.06 129.66,165.09 C 129.69,165.12 129.71,165.14 129.75,165.16 C 129.79,165.18 129.83,165.2 129.88,165.22 C 129.96,165.24 130.07,165.28 130.16,165.28 C 130.26,165.29 130.37,165.26 130.47,165.25 C 130.58,165.24 130.67,165.23 130.78,165.22 C 130.89,165.2 131.01,165.21 131.13,165.19 C 131.19,165.18 131.25,165.14 131.31,165.13 C 131.44,165.1 131.56,165.09 131.69,165.06 C 131.94,165.0 132.19,164.91 132.44,164.81 C 132.68,164.71 132.91,164.58 133.13,164.44 C 133.33,164.3 133.51,164.14 133.69,163.97 C 133.84,163.83 134.0,163.69 134.13,163.53 C 134.17,163.47 134.27,163.49 134.28,163.56 C 134.29,163.61 134.3,163.67 134.31,163.72 C 134.34,163.82 134.36,163.91 134.41,164.0 C 134.45,164.09 134.52,164.15 134.59,164.22 C 134.66,164.28 134.73,164.34 134.81,164.38 C 134.92,164.42 135.04,164.44 135.16,164.44 C 135.26,164.44 135.37,164.4 135.47,164.38 C 135.58,164.34 135.68,164.3 135.78,164.25 C 135.92,164.18 136.06,164.09 136.19,164.0 C 136.42,163.82 136.62,163.63 136.81,163.41 C 137.05,163.13 137.28,162.84 137.47,162.53 C 137.66,162.24 137.81,161.91 137.97,161.59 C 138.0,161.52 138.1,161.55 138.13,161.63 C 138.13,161.64 138.15,161.65 138.16,161.66 C 138.19,161.76 138.22,161.85 138.28,161.94 C 138.34,162.02 138.41,162.1 138.5,162.16 C 138.59,162.21 138.68,162.21 138.78,162.22 C 138.89,162.22 138.99,162.22 139.09,162.19 C 139.21,162.15 139.31,162.1 139.41,162.03 C 139.46,161.99 139.51,161.95 139.56,161.91 C 139.62,161.86 139.67,161.8 139.72,161.75 C 139.83,161.64 139.94,161.53 140.03,161.41 C 140.14,161.27 140.22,161.12 140.31,160.97 C 140.42,160.8 140.54,160.62 140.63,160.44 C 140.82,160.06 140.96,159.68 141.09,159.28 C 141.11,159.22 141.2,159.17 141.25,159.22 C 141.26,159.23 141.27,159.24 141.28,159.25 C 141.34,159.31 141.4,159.36 141.47,159.41 C 141.54,159.45 141.61,159.5 141.69,159.53 C 141.76,159.56 141.86,159.56 141.94,159.56 C 142.01,159.57 142.08,159.58 142.16,159.56 C 142.23,159.54 142.28,159.48 142.34,159.44 C 142.4,159.4 142.45,159.36 142.5,159.31 C 142.56,159.25 142.64,159.19 142.69,159.13 C 142.74,159.05 142.77,158.96 142.81,158.88 C 142.87,158.77 142.92,158.68 142.97,158.56 C 143.06,158.34 143.15,158.1 143.22,157.88 C 143.3,157.62 143.37,157.36 143.44,157.09 C 143.51,156.8 143.56,156.51 143.63,156.22 C 143.71,155.83 143.8,155.45 143.88,155.06 C 144.05,154.19 144.21,153.31 144.38,152.44 C 144.46,151.98 144.54,151.52 144.63,151.06 C 144.66,150.9 144.71,150.73 144.75,150.56 C 144.79,150.42 144.82,150.29 144.88,150.16 C 144.93,150.03 144.98,149.89 145.06,149.78 C 145.11,149.71 145.19,149.65 145.25,149.59 C 145.31,149.54 145.37,149.48 145.44,149.44 C 145.5,149.4 145.55,149.36 145.63,149.34 C 145.69,149.33 145.75,149.34 145.81,149.34 C 145.87,149.35 145.92,149.36 145.97,149.38 C 146.02,149.39 146.08,149.44 146.13,149.47 C 146.17,149.5 146.21,149.52 146.25,149.56 C 146.3,149.62 146.35,149.68 146.38,149.75 C 146.41,149.83 146.43,149.91 146.44,150.0 C 146.45,150.1 146.44,150.18 146.44,150.28 C 146.44,150.33 146.44,150.39 146.44,150.44 C 146.44,150.45 146.44,150.49 146.44,150.5 C 146.43,150.8 146.39,151.08 146.38,151.38 C 146.33,152.14 146.27,152.92 146.19,153.69 C 146.02,155.16 145.77,156.61 145.47,158.06 C 145.17,159.53 144.81,161.0 144.41,162.44 C 144.02,163.82 143.6,165.17 143.16,166.53 C 143.01,166.97 142.87,167.41 142.72,167.84 C 142.43,168.7 142.09,169.56 141.75,170.41 C 141.62,170.74 141.49,171.08 141.34,171.41 C 141.22,171.68 141.1,171.95 140.97,172.22 C 140.72,172.73 140.46,173.22 140.19,173.72 C 140.15,173.79 140.15,173.81 140.19,173.88 C 140.46,174.31 140.82,174.72 141.22,175.03 C 141.43,175.2 141.67,175.34 141.91,175.47 C 142.15,175.6 142.42,175.69 142.69,175.78 C 142.97,175.88 143.24,175.94 143.53,175.97 C 143.68,175.98 143.85,175.98 144.0,175.97 C 144.16,175.95 144.32,175.92 144.47,175.88 C 144.63,175.82 144.79,175.75 144.94,175.66 C 145.1,175.56 145.24,175.45 145.38,175.31 C 145.5,175.19 145.62,175.04 145.72,174.91 C 145.79,174.81 145.87,174.73 145.94,174.63 C 145.98,174.55 146.09,174.55 146.13,174.63 C 146.2,174.79 146.25,174.97 146.34,175.13 C 146.46,175.32 146.61,175.51 146.75,175.69 C 146.88,175.85 147.0,175.99 147.16,176.13 C 147.3,176.25 147.49,176.37 147.66,176.47 C 147.83,176.58 147.99,176.68 148.19,176.75 C 148.38,176.82 148.58,176.89 148.78,176.94 C 149.18,177.02 149.59,177.06 150.0,177.06 C 150.41,177.06 150.82,177.02 151.22,176.94 C 151.42,176.89 151.62,176.82 151.81,176.75 C 152.01,176.68 152.17,176.58 152.34,176.47 C 152.51,176.37 152.7,176.25 152.84,176.13 C 153.0,175.99 153.12,175.85 153.25,175.69 C 153.39,175.51 153.54,175.32 153.66,175.13 C 153.75,174.97 153.8,174.79 153.88,174.63 C 153.91,174.55 154.02,174.55 154.06,174.63 C 154.13,174.73 154.21,174.81 154.28,174.91 C 154.38,175.04 154.5,175.19 154.63,175.31 C 154.76,175.45 154.9,175.56 155.06,175.66 C 155.21,175.75 155.37,175.82 155.53,175.88 C 155.68,175.92 155.84,175.95 156.0,175.97 C 156.15,175.98 156.32,175.98 156.47,175.97 C 156.76,175.94 157.03,175.88 157.31,175.78 C 157.58,175.69 157.85,175.6 158.09,175.47 C 158.33,175.34 158.57,175.2 158.78,175.03 C 159.18,174.72 159.54,174.31 159.81,173.88 C 159.85,173.81 159.85,173.79 159.81,173.72 C 159.54,173.22 159.28,172.73 159.03,172.22 C 158.9,171.95 158.78,171.68 158.66,171.41 C 158.51,171.08 158.38,170.74 158.25,170.41 C 157.91,169.56 157.57,168.7 157.28,167.84 C 157.13,167.41 156.99,166.97 156.84,166.53 C 156.4,165.17 155.98,163.82 155.59,162.44 C 155.19,161.0 154.83,159.53 154.53,158.06 C 154.23,156.61 153.98,155.16 153.81,153.69 C 153.73,152.92 153.67,152.14 153.63,151.38 C 153.61,151.06 153.57,150.75 153.56,150.44 C 153.56,150.39 153.56,150.33 153.56,150.28 C 153.56,150.18 153.55,150.1 153.56,150.0 C 153.57,149.91 153.59,149.83 153.63,149.75 C 153.65,149.68 153.7,149.62 153.75,149.56 C 153.79,149.52 153.83,149.5 153.88,149.47 C 153.97,149.41 154.08,149.35 154.19,149.34 C 154.25,149.34 154.31,149.33 154.38,149.34 C 154.45,149.36 154.5,149.4 154.56,149.44 C 154.63,149.48 154.69,149.54 154.75,149.59 C 154.81,149.65 154.89,149.71 154.94,149.78 C 155.02,149.89 155.07,150.03 155.13,150.16 C 155.18,150.29 155.21,150.42 155.25,150.56 C 155.29,150.73 155.34,150.9 155.38,151.06 C 155.46,151.52 155.54,151.98 155.63,152.44 C 155.78,153.31 155.95,154.19 156.13,155.06 C 156.2,155.45 156.29,155.83 156.38,156.22 C 156.44,156.51 156.49,156.8 156.56,157.09 C 156.63,157.36 156.7,157.62 156.78,157.88 C 156.85,158.1 156.94,158.34 157.03,158.56 C 157.08,158.68 157.13,158.77 157.19,158.88 C 157.23,158.96 157.26,159.05 157.31,159.13 C 157.36,159.19 157.44,159.25 157.5,159.31 C 157.55,159.36 157.6,159.4 157.66,159.44 C 157.72,159.48 157.77,159.54 157.84,159.56 C 157.92,159.58 157.99,159.57 158.06,159.56 C 158.14,159.56 158.24,159.56 158.31,159.53 C 158.39,159.5 158.46,159.45 158.53,159.41 C 158.6,159.36 158.66,159.31 158.72,159.25 C 158.73,159.24 158.74,159.23 158.75,159.22 C 158.8,159.17 158.89,159.22 158.91,159.28 C 159.04,159.68 159.18,160.06 159.38,160.44 C 159.54,160.77 159.74,161.11 159.97,161.41 C 160.06,161.53 160.17,161.64 160.28,161.75 C 160.33,161.8 160.38,161.86 160.44,161.91 C 160.49,161.95 160.54,161.99 160.59,162.03 C 160.69,162.1 160.79,162.15 160.91,162.19 C 161.01,162.22 161.11,162.22 161.22,162.22 C 161.32,162.21 161.41,162.21 161.5,162.16 C 161.54,162.13 161.59,162.1 161.63,162.06 C 161.66,162.03 161.69,161.98 161.72,161.94 C 161.78,161.85 161.81,161.76 161.84,161.66 C 161.85,161.65 161.87,161.64 161.88,161.63 C 161.9,161.55 162.0,161.52 162.03,161.59 C 162.19,161.91 162.34,162.24 162.53,162.53 C 162.72,162.84 162.95,163.13 163.19,163.41 C 163.38,163.63 163.58,163.82 163.81,164.0 C 163.94,164.09 164.08,164.18 164.22,164.25 C 164.32,164.3 164.42,164.34 164.53,164.38 C 164.63,164.4 164.74,164.44 164.84,164.44 C 164.91,164.44 164.97,164.42 165.03,164.41 C 165.08,164.4 165.14,164.39 165.19,164.38 C 165.27,164.34 165.34,164.28 165.41,164.22 C 165.48,164.15 165.55,164.09 165.59,164.0 C 165.64,163.91 165.66,163.82 165.69,163.72 C 165.7,163.67 165.71,163.61 165.72,163.56 C 165.73,163.49 165.83,163.47 165.88,163.53 C 166.0,163.69 166.16,163.83 166.31,163.97 C 166.49,164.14 166.67,164.3 166.88,164.44 C 167.09,164.58 167.32,164.71 167.56,164.81 C 167.81,164.91 168.06,165.0 168.31,165.06 C 168.44,165.09 168.56,165.1 168.69,165.13 C 168.75,165.14 168.81,165.18 168.88,165.19 C 168.99,165.21 169.11,165.2 169.22,165.22 C 169.33,165.23 169.42,165.24 169.53,165.25 C 169.63,165.26 169.74,165.29 169.84,165.28 C 169.93,165.28 170.04,165.24 170.13,165.22 C 170.17,165.2 170.21,165.18 170.25,165.16 C 170.29,165.14 170.31,165.12 170.34,165.09 C 170.38,165.06 170.41,165.04 170.44,165.0 C 170.46,164.96 170.49,164.92 170.5,164.88 C 170.52,164.82 170.5,164.75 170.5,164.69 C 170.5,164.58 170.48,164.48 170.44,164.38 C 170.39,164.24 170.32,164.09 170.25,163.97 C 170.25,163.96 170.22,163.97 170.22,163.97 C 169.41,163.02 168.51,161.48 167.66,159.69 C 166.8,157.9 166.01,155.85 165.47,153.91 C 164.71,151.16 164.41,148.61 164.47,145.91 C 164.49,145.11 164.55,144.31 164.66,143.41 C 164.69,143.11 164.71,142.8 164.75,142.5 C 164.79,142.19 164.84,141.88 164.88,141.56 C 164.95,140.9 165.01,140.23 165.0,139.56 C 165.0,139.22 164.98,138.9 164.94,138.56 C 164.91,138.32 164.86,138.05 164.81,137.81 C 164.73,137.42 164.64,137.06 164.5,136.69 C 164.36,136.32 164.21,135.93 164.0,135.59 C 163.8,135.26 163.53,134.96 163.25,134.69 C 162.97,134.41 162.66,134.16 162.31,133.97 C 161.95,133.77 161.57,133.62 161.16,133.53 C 160.88,133.47 160.58,133.46 160.28,133.47 C 159.52,133.49 158.73,133.79 158.03,134.25 C 157.34,134.71 156.73,135.3 156.38,135.94 C 156.27,136.13 156.2,136.34 156.13,136.53 C 156.0,136.85 155.88,137.17 155.78,137.5 C 155.69,137.8 155.58,138.1 155.5,138.41 C 155.43,138.68 155.37,138.97 155.31,139.25 C 155.26,139.5 155.21,139.75 155.16,140.0 C 155.11,140.23 155.06,140.46 155.0,140.69 C 154.95,140.9 154.89,141.11 154.81,141.31 C 154.78,141.4 154.76,141.51 154.72,141.59 C 154.63,141.8 154.51,142.0 154.38,142.19 C 154.21,142.43 154.01,142.67 153.75,142.88 C 153.55,143.03 153.32,143.14 153.13,143.19 C 152.95,143.23 152.81,143.21 152.66,143.06 C 152.49,142.9 152.29,142.6 152.22,142.31 C 152.13,141.94 152.24,141.58 152.34,141.28 C 152.51,140.82 152.68,140.56 152.88,140.31 C 152.97,140.2 153.08,140.07 153.19,139.94 C 153.25,139.86 153.31,139.79 153.38,139.72 C 153.75,139.27 154.04,138.79 154.28,138.25 C 154.42,137.95 154.54,137.66 154.63,137.34 C 154.67,137.16 154.72,136.97 154.75,136.78 C 154.79,136.57 154.79,136.37 154.81,136.16 C 154.83,135.93 154.84,135.7 154.84,135.47 C 154.85,135.35 154.85,135.21 154.84,135.09 C 154.84,134.98 154.85,134.87 154.84,134.75 C 154.8,134.24 154.67,133.73 154.5,133.25 C 154.41,132.99 154.31,132.74 154.19,132.5 C 154.06,132.25 153.91,132.01 153.75,131.78 C 153.59,131.56 153.44,131.36 153.25,131.16 C 153.23,131.13 153.18,131.09 153.16,131.06 C 152.78,130.67 152.77,130.07 153.13,129.66 C 154.14,128.44 154.36,126.75 153.69,125.31 C 153.02,123.88 151.58,122.94 150.0,122.94 z M 150.0,125.06 C 151.08,125.06 151.94,125.95 151.94,127.03 C 151.94,128.11 151.08,128.97 150.0,128.97 C 148.92,128.97 148.06,128.11 148.06,127.03 C 148.06,125.95 148.92,125.06 150.0,125.06 z" />
		
		
		<text id="txtTwo" transform="matrix(1 0 0 1 150 160)" style="stroke:none;fill:#f00;font-family:'Eras Medium ITC';font-size:20px;text-anchor:middle"  >

		</text>
		<!-- Prism Reference -->
		<cam mingh:cam="--verb EditSelectAll --verb ZoomSelection --verb FileSave"/> 
	 </g>

</svg>