<svg
   xmlns:xlink="http://www.w3.org/1999/xlink"
   xmlns:svg="http://www.w3.org/2000/svg"
   xmlns="http://www.w3.org/2000/svg"
   xmlns:mingh="http://www.minghworld.com"
   width="300px"
   height="300px" >
	
	 <g>
		
		<!-- Paths -->
		<path transform="matrix(-1 0 0 1 300 0)" style="fill:#ff0;stroke:none;"
		 d="M 151.66,122.88 C 149.77,122.78 148.05,124.03 147.53,125.84 C 147.01,127.66 147.79,129.57 149.44,130.5 C 149.55,130.56 149.57,130.73 149.47,130.81 C 147.9,132.08 146.35,133.33 144.78,134.59 C 144.74,134.63 144.68,134.63 144.63,134.63 C 144.11,134.54 143.61,134.46 143.09,134.38 C 142.06,135.01 141.0,135.67 139.97,136.31 C 139.89,136.36 139.84,136.43 139.78,136.5 C 135.39,141.7 130.99,146.87 126.59,152.06 C 126.25,152.47 126.32,153.07 126.72,153.41 C 135.97,161.23 145.21,169.05 154.47,176.88 C 154.87,177.22 155.47,177.18 155.81,176.78 C 160.2,171.59 164.61,166.38 169.0,161.19 C 169.06,161.12 169.12,161.05 169.16,160.97 C 169.18,160.91 169.2,160.84 169.22,160.78 C 169.23,160.75 169.26,160.74 169.28,160.72 C 170.61,159.64 171.95,158.58 173.28,157.5 C 173.69,157.17 173.74,156.54 173.41,156.13 C 171.49,153.76 169.57,151.4 167.66,149.03 C 167.64,149.01 167.63,148.99 167.63,148.97 L 163.84,137.69 L 157.75,136.72 C 157.7,136.71 157.66,136.69 157.63,136.66 C 156.09,134.76 154.57,132.87 153.03,130.97 C 152.96,130.88 152.99,130.73 153.09,130.69 C 154.82,129.92 155.78,128.07 155.44,126.22 C 155.09,124.36 153.54,122.97 151.66,122.88 z M 151.44,125.0 C 152.51,125.0 153.41,125.89 153.41,126.97 C 153.41,128.05 152.51,128.91 151.44,128.91 C 150.36,128.91 149.5,128.05 149.5,126.97 C 149.5,125.89 150.36,125.0 151.44,125.0 z M 144.09,155.81 C 144.32,155.78 144.56,155.79 144.78,155.84 C 145.68,156.04 146.49,156.89 145.84,158.94 C 147.76,157.96 148.72,158.62 149.06,159.47 C 149.41,160.32 149.16,161.35 148.25,162.19 C 147.34,163.02 145.78,163.68 142.47,162.97 C 141.22,159.82 141.58,158.16 142.25,157.13 C 142.75,156.35 143.41,155.9 144.09,155.81 z" />
		
		
		<text id="txtTwo" transform="matrix(1 0 0 1 150 160)" style="stroke:none;fill:#f00;font-family:'Eras Medium ITC';font-size:20px;text-anchor:middle"  >

		</text>
		<!-- Prism Reference -->
		<cam mingh:cam=" --verb EditSelectAll --verb ZoomSelection --verb FileSave "/> 
	 </g>

</svg>