<svg
   xmlns:xlink="http://www.w3.org/1999/xlink"
   xmlns:svg="http://www.w3.org/2000/svg"
   xmlns="http://www.w3.org/2000/svg"
   xmlns:mingh="http://www.minghworld.com"
   width="300px"
   height="300px" >	
   
	 <g>
		<!-- Paths -->
		<path style="fill:none;stroke:#000;stroke-width:0.25px;"
		 d="M 150.0,137.38 C 147.24,137.37 145.29,140.06 146.13,142.69 C 146.17,142.84 145.98,142.98 145.84,142.91 C 144.52,142.16 143.06,141.81 141.22,142.13 C 139.9,142.35 138.39,142.92 137.28,143.75 C 136.54,144.31 135.98,144.98 135.47,145.69 C 133.94,147.83 132.95,150.24 131.06,151.72 C 129.81,152.7 128.16,153.28 126.5,153.41 C 125.02,153.52 123.53,153.27 122.78,151.88 C 122.58,151.5 122.44,151.03 122.44,150.53 C 122.44,150.05 122.56,149.55 122.78,149.06 C 122.94,148.71 123.15,148.36 123.22,148.03 C 123.36,147.33 122.87,146.66 122.13,146.28 C 121.63,146.03 121.04,145.92 120.28,146.06 C 119.7,146.17 119.03,146.42 118.5,146.81 C 117.73,147.37 117.23,148.22 116.97,149.09 C 116.57,150.4 116.67,151.8 117.03,153.06 C 117.37,154.24 117.93,155.28 118.5,156.09 C 119.2,157.09 119.93,157.72 120.66,158.28 C 122.94,160.05 125.34,161.04 127.59,161.66 C 129.52,162.19 131.33,162.45 133.31,162.56 C 135.42,162.68 137.71,162.62 139.91,162.22 C 141.4,161.95 142.87,161.53 144.19,160.91 C 146.49,159.82 148.38,158.14 149.88,156.25 C 149.95,156.16 150.05,156.16 150.13,156.25 C 151.62,158.14 153.51,159.82 155.81,160.91 C 157.13,161.53 158.6,161.95 160.09,162.22 C 162.29,162.62 164.58,162.68 166.69,162.56 C 168.67,162.45 170.48,162.19 172.41,161.66 C 174.66,161.04 177.06,160.05 179.34,158.28 C 180.07,157.72 180.8,157.09 181.5,156.09 C 182.07,155.28 182.63,154.24 182.97,153.06 C 183.33,151.8 183.43,150.4 183.03,149.09 C 182.77,148.22 182.27,147.37 181.5,146.81 C 180.97,146.42 180.3,146.17 179.72,146.06 C 178.96,145.92 178.37,146.03 177.88,146.28 C 177.13,146.66 176.64,147.33 176.78,148.03 C 176.85,148.36 177.06,148.71 177.22,149.06 C 177.44,149.55 177.56,150.05 177.56,150.53 C 177.56,151.03 177.42,151.5 177.22,151.88 C 176.47,153.27 174.98,153.52 173.5,153.41 C 171.84,153.28 170.19,152.7 168.94,151.72 C 167.05,150.24 166.06,147.83 164.53,145.69 C 164.02,144.98 163.46,144.31 162.72,143.75 C 161.61,142.92 160.1,142.35 158.78,142.13 C 156.94,141.81 155.45,142.16 154.13,142.91 C 153.98,142.99 153.83,142.84 153.88,142.69 C 154.72,140.06 152.76,137.38 150.0,137.38 z M 150.0,139.5 C 151.08,139.5 151.94,140.36 151.94,141.44 C 151.94,142.51 151.08,143.41 150.0,143.41 C 148.92,143.41 148.03,142.51 148.03,141.44 C 148.03,140.36 148.92,139.5 150.0,139.5 z"
		 />
		 
		 <path style="fill:#f00;stroke:none;"
		 d="M 146.53,143.31 C 146.42,143.1 146.32,142.89 146.25,142.66 C 146.21,142.55 146.18,142.43 146.16,142.32 C 146.15,142.3 146.15,142.29 146.15,142.27 C 146.15,142.27 146.14,142.26 146.14,142.25 C 146.14,142.25 146.14,142.24 146.14,142.24 C 146.14,142.24 146.15,142.25 146.15,142.25 C 146.18,142.26 146.21,142.28 146.23,142.29 C 146.29,142.32 146.34,142.35 146.39,142.38 C 146.82,142.64 147.22,142.92 147.6,143.22 C 148.37,143.84 149.03,144.52 149.63,145.29 C 149.7,145.39 149.77,145.49 149.85,145.58 C 149.88,145.63 149.92,145.68 149.95,145.73 C 149.96,145.74 149.97,145.76 149.98,145.77 C 149.98,145.77 149.99,145.78 149.99,145.79 C 149.99,145.79 150.0,145.8 150.0,145.79 C 150.02,145.77 150.04,145.74 150.06,145.72 C 150.2,145.52 150.34,145.33 150.49,145.14 C 150.79,144.76 151.12,144.4 151.46,144.06 C 152.16,143.37 152.9,142.78 153.76,142.3 C 153.79,142.28 153.81,142.27 153.84,142.25 C 153.85,142.25 153.84,142.26 153.84,142.27 C 153.84,142.28 153.84,142.29 153.83,142.29 C 153.83,142.31 153.83,142.32 153.82,142.34 C 153.81,142.4 153.8,142.45 153.78,142.51 C 153.75,142.63 153.71,142.74 153.67,142.85 C 153.62,142.97 153.58,143.08 153.52,143.18 C 153.52,143.2 153.46,143.32 153.44,143.33 C 153.42,143.34 153.41,143.36 153.39,143.37 C 153.25,143.47 153.11,143.57 152.97,143.68 C 152.69,143.9 152.42,144.13 152.16,144.37 C 151.45,145.04 150.85,145.78 150.32,146.6 C 150.25,146.7 150.19,146.81 150.13,146.91 C 150.09,146.96 150.06,147.01 150.03,147.07 C 150.03,147.08 150.02,147.09 150.01,147.11 C 150.01,147.11 150.01,147.14 150.0,147.12 C 150.0,147.12 149.99,147.11 149.99,147.1 C 149.97,147.08 149.96,147.05 149.94,147.03 C 149.82,146.82 149.69,146.61 149.56,146.41 C 149.29,146.0 149.0,145.62 148.68,145.25 C 148.04,144.51 147.34,143.87 146.53,143.31 z M 138.22,150.77 C 138.6,150.61 138.97,150.43 139.3,150.17 C 139.88,149.71 140.32,149.0 140.91,147.7 C 141.03,148.1 141.11,148.57 141.07,149.06 C 141.01,149.73 140.74,150.44 140.39,151.03 C 140.69,150.9 141.0,150.73 141.27,150.52 C 141.93,150.02 142.43,149.29 142.7,148.61 C 142.87,148.91 142.85,149.32 142.79,149.73 C 142.73,150.12 142.63,150.52 142.5,150.91 C 143.27,150.53 143.95,149.9 144.35,149.34 C 144.59,149.0 144.73,148.68 144.83,148.0 C 144.97,148.27 145.16,148.52 145.38,148.73 C 145.7,149.04 146.11,149.27 146.56,149.41 C 146.8,148.83 146.85,148.23 146.66,147.71 C 146.6,147.53 146.5,147.37 146.41,147.2 C 146.16,146.78 145.86,146.36 145.48,146.03 C 144.75,145.4 143.7,145.1 142.63,145.1 C 141.43,145.09 140.2,145.47 139.11,146.27 C 138.23,146.93 137.46,147.86 136.71,148.96 C 136.25,149.65 135.8,150.4 135.29,151.32 C 135.94,150.97 136.6,150.56 137.24,150.1 C 137.69,149.79 138.12,149.46 138.62,149.01 C 138.66,149.3 138.66,149.6 138.6,149.88 C 138.54,150.2 138.4,150.5 138.22,150.77 z M 161.78,150.77 C 161.6,150.5 161.46,150.2 161.4,149.88 C 161.34,149.6 161.34,149.3 161.38,149.01 C 161.88,149.46 162.31,149.79 162.76,150.1 C 163.4,150.56 164.06,150.97 164.71,151.32 C 164.2,150.4 163.75,149.65 163.29,148.96 C 162.54,147.86 161.77,146.93 160.89,146.27 C 159.8,145.47 158.57,145.09 157.37,145.1 C 156.3,145.1 155.25,145.4 154.52,146.03 C 154.14,146.36 153.84,146.78 153.59,147.2 C 153.5,147.37 153.4,147.53 153.34,147.71 C 153.15,148.23 153.2,148.83 153.44,149.41 C 153.89,149.27 154.3,149.04 154.62,148.73 C 154.84,148.52 155.03,148.27 155.17,148.0 C 155.27,148.68 155.41,149.0 155.65,149.34 C 156.05,149.9 156.73,150.53 157.5,150.91 C 157.37,150.52 157.27,150.12 157.21,149.73 C 157.15,149.32 157.13,148.91 157.3,148.61 C 157.57,149.29 158.07,150.02 158.73,150.52 C 159.0,150.73 159.31,150.9 159.61,151.03 C 159.26,150.44 158.99,149.73 158.93,149.06 C 158.89,148.57 158.97,148.1 159.09,147.7 C 159.68,149.0 160.12,149.71 160.7,150.17 C 161.03,150.43 161.4,150.61 161.78,150.77 z M 167.32,158.59 C 166.74,158.31 165.97,157.8 165.18,156.34 C 165.0,156.79 165.05,157.23 165.34,157.66 C 164.69,157.13 164.45,156.77 164.22,156.4 C 163.83,155.79 163.47,155.16 163.14,154.49 C 162.94,155.34 162.87,156.22 162.96,157.09 C 163.02,157.68 163.15,158.26 163.34,158.81 C 162.74,158.52 162.17,158.14 161.66,157.7 C 161.06,157.18 160.54,156.56 160.13,155.89 C 159.82,156.36 159.6,156.91 159.53,157.48 C 159.49,157.76 159.49,158.05 159.53,158.34 C 159.01,157.89 158.51,157.41 158.05,156.91 C 157.4,156.21 156.81,155.47 156.27,154.7 C 156.08,155.13 155.95,155.6 155.93,156.07 C 155.92,156.45 155.97,156.83 156.07,157.2 C 155.53,156.82 155.01,156.4 154.52,155.95 C 154.09,155.55 153.68,155.12 153.29,154.67 C 153.61,155.75 154.15,156.8 154.92,157.63 C 155.55,158.33 156.34,158.88 157.19,159.28 C 157.06,158.95 156.98,158.59 156.97,158.23 C 156.95,157.84 157.01,157.44 157.13,157.06 C 157.53,157.69 158.02,158.28 158.58,158.78 C 159.36,159.49 160.27,160.04 161.24,160.43 C 160.91,160.05 160.64,159.59 160.5,159.1 C 160.35,158.58 160.34,158.03 160.44,157.5 C 160.96,158.17 161.57,158.77 162.27,159.26 C 162.92,159.71 163.63,160.07 164.38,160.34 C 164.24,159.96 164.13,159.58 164.06,159.18 C 164.0,158.81 163.96,158.43 163.97,158.06 C 164.61,158.6 165.33,159.06 166.11,159.39 C 167.22,159.86 168.45,160.05 169.64,160.02 C 169.17,159.78 168.75,159.44 168.42,159.03 C 168.18,158.73 167.99,158.39 167.86,158.04 C 168.44,158.39 169.06,158.69 169.71,158.92 C 170.44,159.18 171.19,159.34 171.95,159.43 C 171.76,159.3 171.59,159.15 171.44,158.98 C 171.35,158.88 171.27,158.78 171.2,158.68 C 172.34,158.74 173.49,158.65 174.6,158.43 C 174.42,158.37 174.25,158.29 174.09,158.18 C 173.67,157.89 173.37,157.43 173.21,156.96 C 173.88,157.07 174.56,157.1 175.24,157.04 C 176.63,156.9 177.99,156.36 179.12,155.57 C 177.8,156.05 176.38,156.3 174.96,156.26 C 173.9,156.23 172.84,156.03 171.84,155.7 C 171.88,156.09 171.99,156.47 172.15,156.83 C 172.25,157.05 172.37,157.26 172.51,157.46 C 171.79,157.53 171.06,157.52 170.34,157.41 C 169.21,157.25 168.11,156.84 167.13,156.27 C 167.05,156.73 167.03,157.21 167.09,157.67 C 167.14,157.98 167.21,158.29 167.32,158.59 z M 132.68,158.59 C 132.79,158.29 132.86,157.98 132.91,157.67 C 132.97,157.21 132.95,156.73 132.87,156.27 C 131.89,156.84 130.79,157.25 129.66,157.41 C 128.94,157.52 128.21,157.53 127.49,157.46 C 127.63,157.26 127.75,157.05 127.85,156.83 C 128.01,156.47 128.12,156.09 128.16,155.7 C 127.16,156.03 126.1,156.23 125.04,156.26 C 123.62,156.3 122.2,156.05 120.88,155.57 C 122.01,156.36 123.37,156.9 124.76,157.04 C 125.44,157.1 126.12,157.07 126.79,156.96 C 126.63,157.43 126.32,157.89 125.91,158.18 C 125.75,158.29 125.58,158.37 125.4,158.43 C 126.51,158.65 127.66,158.74 128.8,158.68 C 128.73,158.78 128.65,158.88 128.56,158.98 C 128.41,159.15 128.24,159.3 128.05,159.43 C 128.81,159.34 129.56,159.18 130.29,158.92 C 130.94,158.69 131.56,158.39 132.14,158.04 C 132.01,158.39 131.82,158.73 131.58,159.03 C 131.25,159.44 130.83,159.78 130.36,160.02 C 131.55,160.05 132.78,159.86 133.89,159.39 C 134.67,159.06 135.39,158.6 136.03,158.06 C 136.04,158.43 136.0,158.81 135.94,159.18 C 135.87,159.58 135.76,159.96 135.62,160.34 C 136.37,160.07 137.08,159.71 137.73,159.26 C 138.43,158.77 139.04,158.17 139.56,157.5 C 139.66,158.03 139.65,158.58 139.5,159.1 C 139.36,159.59 139.09,160.05 138.76,160.43 C 139.73,160.04 140.64,159.49 141.42,158.78 C 141.98,158.28 142.47,157.69 142.87,157.06 C 142.99,157.44 143.05,157.84 143.03,158.23 C 143.02,158.59 142.94,158.95 142.81,159.28 C 143.66,158.88 144.45,158.33 145.08,157.63 C 145.85,156.8 146.39,155.75 146.71,154.67 C 146.32,155.12 145.91,155.55 145.48,155.95 C 144.99,156.4 144.47,156.82 143.93,157.2 C 144.03,156.83 144.08,156.45 144.07,156.07 C 144.05,155.6 143.92,155.13 143.73,154.7 C 143.19,155.47 142.6,156.21 141.95,156.91 C 141.49,157.41 140.99,157.89 140.47,158.34 C 140.51,158.05 140.51,157.76 140.47,157.48 C 140.4,156.91 140.18,156.36 139.87,155.89 C 139.46,156.56 138.94,157.18 138.34,157.7 C 137.83,158.14 137.26,158.52 136.66,158.81 C 136.85,158.26 136.98,157.68 137.04,157.09 C 137.13,156.22 137.06,155.34 136.86,154.49 C 136.53,155.16 136.17,155.79 135.78,156.4 C 135.55,156.77 135.31,157.13 134.66,157.66 C 134.95,157.23 135.0,156.79 134.82,156.34 C 134.03,157.8 133.26,158.31 132.68,158.59 z M 148.68,147.67 C 149.17,148.5 150.28,148.68 151.0,148.05 C 151.17,147.9 151.29,147.72 151.4,147.53 C 151.52,147.34 151.64,147.15 151.77,146.97 C 152.03,146.6 152.3,146.26 152.6,145.93 C 153.79,144.63 155.32,143.57 157.18,143.44 C 158.86,143.32 160.88,144.0 162.14,145.11 C 162.83,145.71 163.34,146.42 163.83,147.17 C 164.32,147.92 164.77,148.69 165.24,149.45 C 165.72,150.21 166.22,150.95 166.82,151.63 C 167.43,152.31 168.09,152.89 168.86,153.37 C 170.37,154.32 172.18,154.85 173.97,154.85 C 175.79,154.85 177.57,154.25 178.49,152.49 C 178.91,151.69 179.07,150.81 178.89,149.91 C 178.8,149.46 178.63,149.04 178.48,148.6 C 178.37,148.3 178.15,147.73 178.57,147.51 C 178.94,147.33 179.52,147.43 179.87,147.54 C 180.31,147.69 180.67,147.91 180.99,148.26 C 181.6,148.92 181.84,149.85 181.87,150.71 C 181.93,152.47 181.12,154.32 180.06,155.65 C 179.49,156.36 178.83,156.94 178.09,157.47 C 177.37,157.99 176.61,158.45 175.81,158.86 C 174.19,159.68 172.53,160.23 170.77,160.61 C 167.46,161.32 163.45,161.45 160.11,160.79 C 158.32,160.44 156.7,159.86 155.14,158.89 C 153.59,157.92 152.33,156.76 151.21,155.33 C 151.15,155.24 151.08,155.15 151.01,155.06 C 150.94,154.97 150.88,154.88 150.81,154.79 C 150.65,154.61 150.48,154.5 150.24,154.45 C 150.01,154.39 149.81,154.41 149.59,154.5 C 149.37,154.59 149.23,154.74 149.09,154.93 C 148.56,155.65 147.98,156.32 147.33,156.95 C 146.06,158.19 144.57,159.19 142.93,159.89 C 139.75,161.22 135.69,161.4 132.38,161.09 C 128.86,160.75 125.32,159.79 122.33,157.76 C 120.78,156.71 119.61,155.55 118.81,153.81 C 118.43,152.98 118.19,152.15 118.14,151.23 C 118.09,150.38 118.22,149.42 118.7,148.67 C 118.95,148.27 119.25,147.98 119.66,147.75 C 120.04,147.54 120.52,147.4 120.96,147.41 C 121.44,147.43 121.75,147.6 121.66,148.12 C 121.61,148.44 121.33,149.12 121.24,149.42 C 120.97,150.31 120.96,151.15 121.3,152.03 C 121.63,152.89 122.2,153.6 122.98,154.09 C 124.51,155.04 126.61,154.97 128.22,154.59 C 129.99,154.17 131.57,153.29 132.85,151.99 C 134.13,150.68 134.94,149.1 135.9,147.59 C 136.94,145.95 137.8,144.78 139.71,143.99 C 141.4,143.3 143.19,143.18 144.89,143.99 C 146.46,144.74 147.82,146.22 148.68,147.67 z"
		 />

		<!-- Prism Reference -->
		<cam mingh:cam="--verb EditSelectAll --verb ZoomSelection --verb FileSave " /> 
	 </g>

</svg>
