<svg
   xmlns:xlink="http://www.w3.org/1999/xlink"
   xmlns:svg="http://www.w3.org/2000/svg"
   xmlns="http://www.w3.org/2000/svg"
   xmlns:mingh="http://www.minghworld.com"
   width="300px"
   height="300px" >
	
	 <g>
		
		<!-- Paths -->
		<path transform="matrix(-1 0 0 1 300 0)" style="fill:#ff0;stroke:none;"
		 d="M 149.75,130.63 C 149.07,130.67 148.37,130.89 147.78,131.28 C 147.16,131.68 146.66,132.24 146.34,132.91 C 146.19,133.22 146.1,133.56 146.03,133.91 C 146.0,134.07 145.98,134.24 145.97,134.41 C 145.97,134.41 145.95,134.41 145.94,134.41 C 145.92,134.4 145.89,134.38 145.88,134.38 C 145.84,134.36 145.79,134.33 145.75,134.31 C 145.68,134.28 145.63,134.25 145.56,134.22 C 144.42,133.69 143.24,133.32 142.0,133.09 C 139.26,132.6 136.52,133.08 134.13,134.5 C 131.77,135.9 129.94,138.13 129.03,140.72 C 128.13,143.31 128.17,146.2 128.75,148.81 C 129.35,151.52 130.52,153.98 132.13,156.22 C 135.34,160.7 139.89,164.02 144.53,166.72 C 145.72,167.41 146.92,168.06 148.16,168.66 C 148.46,168.81 148.78,168.95 149.09,169.09 C 149.4,169.23 149.67,169.39 150.03,169.38 C 150.39,169.36 150.69,169.2 151.0,169.06 C 151.31,168.92 151.6,168.78 151.91,168.63 C 154.22,167.49 156.87,165.94 159.0,164.5 C 163.35,161.55 167.7,157.58 169.97,152.59 C 171.09,150.14 171.73,147.37 171.66,144.66 C 171.58,141.85 170.73,139.28 168.91,137.09 C 167.14,134.97 164.69,133.54 161.97,133.06 C 159.2,132.57 156.48,133.2 154.03,134.41 C 153.94,132.94 153.07,131.67 151.75,131.03 C 151.11,130.72 150.43,130.58 149.75,130.63 z M 150.0,132.75 C 150.52,132.75 151.02,132.93 151.41,133.34 C 152.18,134.17 152.08,135.48 151.19,136.19 C 150.77,136.52 150.38,136.87 150.0,137.25 C 149.98,137.27 149.98,137.26 149.97,137.25 C 149.96,137.24 149.95,137.23 149.94,137.22 C 149.91,137.19 149.9,137.15 149.88,137.13 C 149.83,137.08 149.77,137.05 149.72,137.0 C 149.62,136.91 149.54,136.81 149.44,136.72 C 149.24,136.54 149.02,136.38 148.81,136.22 C 147.93,135.51 147.79,134.23 148.56,133.38 C 148.94,132.96 149.48,132.75 150.0,132.75 z" />
		
		
		<text id="txtTwo" transform="matrix(1 0 0 1 150 160)" style="stroke:none;fill:#f00;font-family:'Eras Medium ITC';font-size:20px;text-anchor:middle"  >

		</text>
		<!-- Prism Reference -->
			<cam mingh:cam=" --verb EditSelectAll --verb ZoomSelection --verb FileSave "/> 
	 </g>

</svg>