<svg
   xmlns:xlink="http://www.w3.org/1999/xlink"
   xmlns:svg="http://www.w3.org/2000/svg"
   xmlns="http://www.w3.org/2000/svg"
   xmlns:mingh="http://www.minghworld.com"
   width="300px"
   height="300px" >
	
	 <g>
		
		<!-- Paths -->
		<path style="fill:none;stroke:#000;stroke-width:0.25px;"
		 d="M 149.75,130.63 C 149.07,130.67 148.37,130.89 147.78,131.28 C 147.16,131.68 146.66,132.24 146.34,132.91 C 146.19,133.22 146.1,133.56 146.03,133.91 C 146.0,134.07 145.98,134.24 145.97,134.41 C 145.97,134.41 145.95,134.41 145.94,134.41 C 145.92,134.4 145.89,134.38 145.88,134.38 C 145.84,134.36 145.79,134.33 145.75,134.31 C 145.68,134.28 145.63,134.25 145.56,134.22 C 144.42,133.69 143.24,133.32 142.0,133.09 C 139.26,132.6 136.52,133.08 134.13,134.5 C 131.77,135.9 129.94,138.13 129.03,140.72 C 128.13,143.31 128.17,146.2 128.75,148.81 C 129.35,151.52 130.52,153.98 132.13,156.22 C 135.34,160.7 139.89,164.02 144.53,166.72 C 145.72,167.41 146.92,168.06 148.16,168.66 C 148.46,168.81 148.78,168.95 149.09,169.09 C 149.4,169.23 149.67,169.39 150.03,169.38 C 150.39,169.36 150.69,169.2 151.0,169.06 C 151.31,168.92 151.6,168.78 151.91,168.63 C 154.22,167.49 156.87,165.94 159.0,164.5 C 163.35,161.55 167.7,157.58 169.97,152.59 C 171.09,150.14 171.73,147.37 171.66,144.66 C 171.58,141.85 170.73,139.28 168.91,137.09 C 167.14,134.97 164.69,133.54 161.97,133.06 C 159.2,132.57 156.48,133.2 154.03,134.41 C 153.94,132.94 153.07,131.67 151.75,131.03 C 151.11,130.72 150.43,130.58 149.75,130.63 z M 150.0,132.75 C 150.52,132.75 151.02,132.93 151.41,133.34 C 152.18,134.17 152.08,135.48 151.19,136.19 C 150.77,136.52 150.38,136.87 150.0,137.25 C 149.98,137.27 149.98,137.26 149.97,137.25 C 149.96,137.24 149.95,137.23 149.94,137.22 C 149.91,137.19 149.9,137.15 149.88,137.13 C 149.83,137.08 149.77,137.05 149.72,137.0 C 149.62,136.91 149.54,136.81 149.44,136.72 C 149.24,136.54 149.02,136.38 148.81,136.22 C 147.93,135.51 147.79,134.23 148.56,133.38 C 148.94,132.96 149.48,132.75 150.0,132.75 z"
		 />
		 <path style="fill:#f00;stroke:none;"
		 d="M 148.43,139.33 C 148.37,139.23 148.33,139.12 148.36,139.11 C 148.38,139.09 148.45,139.17 148.51,139.28 C 148.65,139.53 148.59,139.57 148.43,139.33 z M 141.91,145.68 C 141.87,145.68 141.84,145.67 141.83,145.66 C 141.83,145.64 141.87,145.61 141.91,145.59 C 141.95,145.57 141.98,145.58 141.98,145.62 C 141.99,145.66 141.95,145.69 141.91,145.68 z M 137.32,148.25 C 137.28,148.25 137.24,148.22 137.24,148.18 C 137.24,148.14 137.27,148.11 137.31,148.12 C 137.35,148.12 137.39,148.14 137.39,148.18 C 137.39,148.22 137.36,148.25 137.32,148.25 z M 166.83,148.99 C 166.75,149.05 166.74,149.05 166.79,148.95 C 166.82,148.89 166.87,148.85 166.89,148.87 C 166.91,148.89 166.88,148.94 166.83,148.99 z M 154.73,160.18 C 154.76,160.15 154.74,160.1 154.71,160.08 C 154.61,160.03 154.4,160.11 154.45,160.18 C 154.5,160.26 154.68,160.26 154.73,160.18 z M 154.64,160.33 C 154.57,160.37 154.19,160.07 154.19,159.98 C 154.19,159.94 154.1,159.9 154.0,159.87 C 153.82,159.83 153.76,159.69 153.89,159.62 C 153.94,159.59 153.95,159.55 153.93,159.52 C 153.91,159.49 154.06,159.48 154.25,159.49 C 154.61,159.5 154.62,159.5 154.84,159.19 C 155.34,158.5 155.81,158.35 156.23,158.74 C 156.36,158.85 156.44,158.97 156.42,159.0 C 156.4,159.02 156.42,159.07 156.46,159.09 C 156.56,159.14 156.56,159.45 156.46,159.45 C 156.42,159.45 156.4,159.47 156.4,159.5 C 156.43,159.58 156.31,159.85 156.25,159.85 C 156.22,159.85 156.12,159.91 156.04,159.98 C 155.95,160.05 155.87,160.09 155.87,160.07 C 155.87,160.05 155.8,160.07 155.71,160.13 C 155.61,160.18 155.35,160.24 155.12,160.26 C 154.89,160.28 154.67,160.31 154.64,160.33 z M 142.09,145.63 C 142.07,145.63 142.09,145.57 142.13,145.5 C 142.17,145.43 142.22,145.38 142.24,145.38 C 142.26,145.38 142.25,145.44 142.21,145.5 C 142.16,145.57 142.11,145.63 142.09,145.63 z M 138.41,150.77 C 138.39,150.81 138.37,150.77 138.37,150.68 C 138.36,150.59 138.38,150.56 138.4,150.6 C 138.42,150.65 138.43,150.72 138.41,150.77 z M 140.97,146.63 C 140.88,146.63 141.1,146.31 141.36,146.09 C 141.48,145.98 141.54,145.94 141.51,145.99 C 141.47,146.05 141.35,146.21 141.24,146.36 C 141.13,146.51 141.01,146.63 140.97,146.63 z M 162.21,151.26 C 162.06,151.15 162.22,151.01 162.43,151.06 C 162.54,151.08 162.6,151.05 162.64,150.95 C 162.68,150.84 162.72,150.82 162.78,150.87 C 162.83,150.93 162.79,151.0 162.63,151.15 C 162.38,151.37 162.37,151.37 162.21,151.26 z M 161.57,151.01 C 161.55,151.01 161.62,150.94 161.72,150.85 C 161.82,150.76 161.92,150.68 161.94,150.68 C 161.96,150.68 161.89,150.76 161.79,150.85 C 161.69,150.94 161.59,151.01 161.57,151.01 z M 140.86,159.43 C 140.69,159.51 140.53,159.48 140.4,159.33 C 140.26,159.17 140.29,158.97 140.49,158.7 C 140.6,158.56 140.64,158.48 140.59,158.5 C 140.53,158.53 140.55,158.49 140.62,158.42 C 140.69,158.35 140.73,158.27 140.7,158.24 C 140.67,158.22 140.72,158.14 140.8,158.07 C 140.9,157.99 140.97,157.97 140.99,158.02 C 141.0,158.06 141.07,158.07 141.15,158.05 C 141.23,158.02 141.26,157.96 141.24,157.9 C 141.19,157.79 141.46,157.67 141.81,157.64 C 141.94,157.64 142.13,157.61 142.24,157.58 C 142.39,157.54 142.45,157.55 142.48,157.63 C 142.53,157.74 142.18,158.33 142.02,158.38 C 141.97,158.4 141.94,158.43 141.96,158.46 C 141.98,158.49 141.93,158.57 141.85,158.65 C 141.76,158.73 141.72,158.79 141.76,158.79 C 141.84,158.8 141.19,159.33 141.09,159.35 C 141.04,159.35 140.94,159.39 140.86,159.43 z M 138.21,149.71 C 138.19,149.76 138.17,149.74 138.16,149.67 C 138.15,149.6 138.17,149.56 138.19,149.58 C 138.22,149.6 138.23,149.66 138.21,149.71 z M 151.8,148.45 C 151.79,148.4 151.78,148.32 151.76,148.27 C 151.63,147.8 151.61,147.7 151.67,147.73 C 151.73,147.76 151.95,148.35 151.95,148.47 C 151.95,148.56 151.8,148.53 151.8,148.45 z M 151.51,147.2 C 151.43,147.2 151.33,146.9 151.39,146.85 C 151.41,146.83 151.46,146.9 151.5,147.01 C 151.55,147.12 151.55,147.2 151.51,147.2 z M 163.14,150.59 C 163.1,150.61 163.07,150.58 163.07,150.53 C 163.07,150.47 163.11,150.41 163.15,150.39 C 163.19,150.37 163.22,150.39 163.22,150.45 C 163.22,150.5 163.18,150.56 163.14,150.59 z M 166.11,138.18 C 166.04,138.22 165.99,138.21 165.96,138.14 C 165.93,138.08 165.93,138.04 165.94,138.05 C 165.96,138.05 166.06,138.06 166.18,138.07 C 166.29,138.07 166.4,138.12 166.42,138.16 C 166.44,138.2 166.4,138.21 166.33,138.17 C 166.26,138.14 166.16,138.14 166.11,138.18 z M 132.42,142.17 C 132.3,142.07 132.43,141.5 132.66,140.93 C 132.89,140.37 133.01,139.96 132.85,140.29 C 132.82,140.37 132.77,140.42 132.75,140.4 C 132.73,140.38 132.79,140.25 132.88,140.1 C 132.98,139.95 133.1,139.72 133.16,139.6 C 133.23,139.46 133.29,139.41 133.3,139.45 C 133.36,139.6 133.57,139.36 133.62,139.09 C 133.65,138.95 133.69,138.84 133.72,138.85 C 133.75,138.86 133.82,138.76 133.89,138.62 C 133.97,138.45 134.05,138.37 134.15,138.35 C 134.23,138.34 134.32,138.28 134.35,138.21 C 134.37,138.15 134.45,138.08 134.52,138.05 C 134.59,138.02 134.65,137.94 134.65,137.86 C 134.65,137.68 134.88,137.64 134.88,137.82 C 134.88,137.99 134.56,138.86 134.29,139.36 C 134.18,139.58 134.09,139.77 134.09,139.8 C 134.09,139.87 133.73,140.57 133.66,140.62 C 133.64,140.65 133.61,140.7 133.61,140.74 C 133.61,140.82 133.29,141.36 133.0,141.72 C 132.82,141.96 132.47,142.21 132.42,142.17 z M 133.59,138.01 C 133.5,138.1 133.5,138.1 133.56,137.98 C 133.6,137.9 133.66,137.85 133.67,137.86 C 133.69,137.88 133.66,137.94 133.59,138.01 z M 133.83,137.76 C 133.77,137.79 133.78,137.76 133.86,137.66 C 134.04,137.47 134.14,137.42 134.02,137.58 C 133.97,137.66 133.88,137.73 133.83,137.76 z M 152.63,142.24 C 152.56,142.25 152.44,142.1 152.49,142.06 C 152.52,142.04 152.46,142.03 152.37,142.05 C 152.28,142.07 152.2,142.06 152.18,142.02 C 152.16,141.99 152.23,141.95 152.34,141.94 C 152.54,141.92 152.64,141.85 152.56,141.8 C 152.53,141.78 152.42,141.8 152.31,141.85 C 152.09,141.94 151.84,141.87 151.84,141.73 C 151.84,141.69 151.78,141.61 151.71,141.56 C 151.58,141.46 151.57,141.46 151.48,141.56 C 151.39,141.66 151.39,141.66 151.35,141.55 C 151.3,141.41 151.43,141.06 151.52,141.1 C 151.56,141.12 151.68,141.08 151.8,141.01 C 152.11,140.85 152.27,140.83 152.22,140.99 C 152.19,141.1 152.2,141.1 152.32,141.03 C 152.39,140.99 152.46,140.92 152.46,140.89 C 152.46,140.78 153.05,139.92 153.27,139.67 C 153.74,139.17 154.33,139.24 154.61,139.87 C 154.73,140.13 154.68,140.69 154.54,140.82 C 154.48,140.87 154.45,140.92 154.46,140.92 C 154.52,140.96 154.37,141.21 154.29,141.2 C 154.24,141.19 154.2,141.21 154.2,141.24 C 154.22,141.38 154.16,141.46 153.88,141.65 C 153.63,141.82 153.5,141.86 153.2,141.88 C 152.85,141.9 152.84,141.91 152.97,141.98 C 153.12,142.06 153.03,142.09 152.77,142.05 C 152.57,142.01 152.48,142.07 152.59,142.17 C 152.63,142.2 152.65,142.24 152.63,142.24 z M 151.78,142.86 C 151.75,142.89 151.54,142.76 151.29,142.57 C 151.05,142.39 150.87,142.22 150.89,142.2 C 150.92,142.18 151.03,142.24 151.13,142.34 C 151.32,142.53 151.35,142.55 151.65,142.72 C 151.75,142.78 151.81,142.84 151.78,142.86 z M 157.94,137.92 C 157.9,137.94 157.87,137.86 157.87,137.75 C 157.88,137.63 157.89,137.53 157.91,137.53 C 157.92,137.52 157.95,137.6 157.97,137.71 C 157.99,137.81 157.97,137.91 157.94,137.92 z M 138.43,142.93 C 138.53,142.91 139.03,142.87 139.57,142.85 C 140.16,142.83 140.56,142.79 140.6,142.72 C 140.63,142.65 140.67,142.39 140.69,142.14 C 140.74,141.38 140.99,140.36 141.1,140.46 C 141.15,140.51 141.17,140.5 141.13,140.42 C 140.96,140.08 141.91,138.42 142.23,138.56 C 142.35,138.59 142.36,138.71 142.44,140.51 C 142.43,140.87 142.43,141.51 142.42,141.94 C 142.42,142.59 142.42,142.74 142.42,142.79 C 142.43,142.84 142.43,142.86 142.7,142.87 C 142.89,142.88 143.06,142.92 143.08,142.97 C 143.1,143.01 143.14,143.02 143.17,142.99 C 143.19,142.96 144.19,143.02 144.43,143.0 C 144.58,142.99 144.73,142.97 144.88,142.96 C 144.88,142.68 144.88,142.41 144.89,142.15 C 144.96,141.71 144.96,141.31 144.92,141.23 C 144.84,141.03 145.21,139.52 145.34,139.54 C 145.39,139.55 145.41,139.53 145.38,139.5 C 145.34,139.47 145.38,139.39 145.47,139.32 C 145.56,139.25 145.58,139.18 145.53,139.17 C 145.47,139.16 145.43,139.18 145.43,139.21 C 145.42,139.25 145.36,139.28 145.28,139.28 C 145.09,139.29 145.2,139.13 145.46,139.01 C 145.63,138.93 145.64,138.93 145.63,139.04 C 145.63,139.12 145.66,139.14 145.74,139.09 C 145.83,139.05 145.83,139.01 145.75,138.91 C 145.64,138.79 145.66,138.79 145.93,138.92 C 146.23,138.99 146.36,138.99 146.43,139.12 C 146.5,139.25 146.5,139.51 146.52,139.73 C 146.34,139.66 146.31,139.68 146.35,139.71 C 146.38,139.73 146.45,139.8 146.45,139.83 C 146.45,139.86 146.6,139.9 146.6,139.91 C 146.61,139.92 146.57,141.72 146.58,142.15 C 146.58,142.57 146.77,142.66 146.96,141.16 C 147.08,141.17 147.17,141.14 147.17,140.1 C 147.17,140.07 147.2,140.07 147.28,140.11 C 147.29,141.19 147.28,141.37 147.24,141.53 C 147.16,141.83 147.12,142.09 147.15,142.11 C 147.18,142.13 147.21,142.12 147.21,142.09 C 147.2,142.05 147.3,141.96 147.41,141.89 C 147.74,141.77 147.76,141.7 147.7,141.33 C 147.62,141.03 148.0,140.67 148.06,141.27 C 148.24,141.16 148.3,141.22 148.36,141.28 C 148.34,141.14 148.32,141.01 148.3,140.87 C 148.27,140.61 148.29,140.37 148.34,140.41 C 148.39,140.44 148.44,140.42 148.44,140.37 C 148.43,140.29 148.46,140.3 148.51,140.38 C 148.58,140.44 148.63,140.66 148.64,141.17 C 148.65,141.37 148.68,141.49 148.72,141.46 C 148.75,141.42 148.82,141.45 148.85,141.53 C 148.88,141.61 148.87,141.5 148.84,141.28 C 148.81,141.06 148.71,140.43 148.71,139.91 C 148.7,139.4 148.65,139.21 148.67,139.16 C 148.69,139.1 148.67,139.07 148.62,139.08 C 148.56,139.1 148.44,139.01 148.34,138.87 C 148.24,138.73 148.04,138.54 147.89,138.45 C 147.63,138.28 147.63,138.28 147.83,138.47 C 148.1,138.75 148.03,138.75 147.51,138.44 C 147.26,138.3 146.95,138.07 146.68,137.94 C 146.41,137.82 146.18,137.68 146.17,137.64 C 146.17,137.61 146.37,137.65 146.63,137.74 C 146.79,137.79 146.94,137.85 147.09,137.91 C 147.0,137.65 146.3,136.96 145.76,136.86 C 145.65,136.84 145.03,136.85 144.08,137.75 C 144.0,137.82 143.92,137.88 143.84,137.95 C 143.79,137.83 143.74,137.71 143.69,137.59 C 143.6,137.39 143.47,137.11 143.4,136.98 C 143.34,136.84 143.25,136.66 143.21,136.58 C 142.96,136.08 141.72,135.27 141.53,135.62 C 141.48,135.7 141.36,135.71 141.28,135.66 C 141.19,135.6 141.09,135.62 141.04,135.69 C 140.93,135.85 140.75,135.66 140.81,135.45 C 140.84,135.32 140.81,135.3 140.63,135.34 C 140.51,135.36 140.34,135.42 140.26,135.46 C 140.04,135.57 140.0,135.28 140.2,135.0 C 140.26,134.92 140.31,134.84 140.37,134.76 C 140.31,134.79 140.25,134.82 140.2,134.85 C 140.01,134.93 139.54,135.59 139.54,135.74 C 139.54,135.79 139.48,135.92 139.41,136.03 C 139.33,136.14 139.22,136.35 139.16,136.49 C 138.97,136.94 138.7,137.69 138.72,137.69 C 138.77,137.7 138.63,138.56 138.56,138.67 C 138.52,138.75 138.51,138.8 138.53,138.81 C 138.56,138.81 138.53,138.96 138.48,139.15 C 138.31,139.74 138.05,142.79 138.16,142.89 C 138.21,142.93 138.34,142.95 138.43,142.93 z M 148.74,142.32 C 148.8,142.45 148.83,142.42 148.84,142.25 C 148.84,142.17 148.81,142.13 148.77,142.17 C 148.74,142.2 148.72,142.27 148.74,142.32 z M 148.76,142.03 C 148.81,142.03 148.86,141.96 148.85,141.86 C 148.85,141.71 148.83,141.69 148.75,141.76 C 148.7,141.81 148.66,141.89 148.66,141.93 C 148.66,141.98 148.7,142.02 148.76,142.03 z M 148.33,142.38 C 148.52,141.86 148.4,141.54 148.16,141.62 C 148.08,141.67 148.1,142.79 148.19,142.82 C 148.26,142.85 148.28,142.78 148.33,142.38 z M 147.82,142.58 C 147.85,142.53 147.84,142.47 147.81,142.44 C 147.77,142.41 147.75,142.45 147.76,142.52 C 147.76,142.61 147.79,142.63 147.82,142.58 z M 147.73,142.12 C 147.79,142.11 147.84,142.09 147.84,142.06 C 147.84,141.98 147.69,141.98 147.66,142.06 C 147.64,142.1 147.67,142.13 147.73,142.12 z M 147.64,142.46 C 147.7,142.29 147.62,142.14 147.44,142.12 C 147.3,142.1 147.25,142.43 147.38,142.53 C 147.5,142.62 147.59,142.59 147.64,142.46 z M 147.06,161.24 C 147.08,161.24 147.1,161.08 147.1,160.89 C 147.12,159.04 147.39,159.08 147.86,159.18 C 148.34,159.28 148.19,160.84 148.14,161.08 C 148.11,161.23 148.42,161.28 149.31,161.27 C 149.49,161.21 149.49,161.2 149.53,161.1 C 149.55,161.06 149.56,161.04 149.54,161.04 C 149.53,161.04 149.54,160.94 149.56,160.82 C 149.58,160.7 149.62,160.42 149.69,159.82 C 149.74,159.59 149.77,159.34 149.77,159.26 C 149.76,159.18 149.78,159.12 149.8,159.12 C 149.82,159.12 149.85,159.07 149.86,159.02 C 149.88,158.95 149.89,158.94 149.89,159.0 C 149.89,159.04 149.9,159.07 149.92,159.06 C 150.56,159.0 150.51,159.45 150.57,160.02 C 150.57,160.05 150.6,160.0 150.64,159.9 C 150.69,159.77 150.7,159.94 150.68,160.53 C 150.64,161.23 150.65,161.31 150.86,161.16 C 150.92,161.05 150.95,160.74 150.96,160.35 C 150.96,159.77 150.97,159.74 151.24,159.95 C 151.34,160.17 151.34,160.16 151.35,159.77 C 151.35,159.55 151.45,158.94 151.49,159.0 C 151.51,159.03 151.63,159.28 151.68,159.48 C 151.67,159.66 151.75,160.05 151.79,160.05 C 151.98,159.78 152.0,159.15 151.91,158.97 C 151.87,158.89 151.85,158.75 151.87,158.66 C 151.89,158.57 151.88,158.5 151.85,158.5 C 151.81,158.5 151.78,158.44 151.78,158.25 C 151.78,158.15 151.46,157.85 151.31,157.79 C 151.23,157.76 151.19,157.78 151.19,157.84 C 151.19,157.91 151.12,157.92 150.85,157.9 C 150.63,157.88 150.41,157.84 150.35,157.81 C 150.3,157.77 150.22,157.76 150.19,157.78 C 150.15,157.79 150.16,157.78 150.2,157.75 C 150.23,157.72 150.37,157.68 150.5,157.66 C 150.63,157.64 150.52,157.63 150.26,157.62 C 149.86,157.61 149.71,157.65 149.51,157.81 C 149.38,157.92 149.26,158.05 149.24,158.1 C 149.23,158.15 149.18,158.19 149.15,158.18 C 149.01,158.16 148.93,158.06 148.96,157.96 C 148.98,157.91 148.97,157.88 148.94,157.9 C 148.91,157.92 148.88,157.9 148.86,157.85 C 148.82,157.72 148.69,157.61 148.47,157.61 C 148.36,157.61 148.22,157.58 148.15,157.54 C 148.07,157.5 148.02,157.5 147.99,157.54 C 147.97,157.58 147.86,157.61 147.74,157.61 C 147.62,157.61 147.5,157.64 147.48,157.68 C 147.46,157.72 147.38,157.74 147.32,157.72 C 147.25,157.7 147.2,157.71 147.2,157.73 C 147.2,157.76 147.15,157.78 147.1,157.78 C 147.04,157.78 146.99,157.74 146.99,157.69 C 146.99,157.64 146.91,157.61 146.81,157.61 C 146.71,157.61 146.62,157.64 146.62,157.68 C 146.62,157.73 146.59,157.73 146.51,157.67 C 146.41,157.6 146.41,157.57 146.52,157.47 C 146.68,157.31 146.61,157.31 146.36,157.45 C 146.27,157.51 146.18,157.6 146.18,157.65 C 146.18,157.71 146.15,157.73 146.1,157.7 C 146.05,157.67 146.03,157.68 146.07,157.73 C 146.1,157.77 146.04,157.94 145.93,158.11 C 145.83,158.28 145.74,158.46 145.74,158.52 C 145.74,158.59 145.71,158.66 145.68,158.7 C 145.56,158.81 145.45,161.07 145.55,161.21 C 145.58,161.26 146.91,161.28 147.06,161.24 z M 151.87,160.62 C 151.86,160.48 151.84,160.47 151.76,160.55 C 151.71,160.6 151.69,160.69 151.71,160.75 C 151.77,160.91 151.88,160.81 151.87,160.62 z M 151.84,160.34 C 151.88,160.34 151.91,160.3 151.91,160.24 C 151.91,160.19 151.88,160.14 151.84,160.14 C 151.81,160.14 151.78,160.19 151.78,160.24 C 151.78,160.3 151.81,160.34 151.84,160.34 z M 159.36,137.68 C 159.36,137.53 159.23,137.47 159.14,137.57 C 159.09,137.62 159.08,137.7 159.1,137.74 C 159.15,137.86 159.35,137.8 159.36,137.68 z M 161.21,141.64 C 161.67,141.3 161.95,140.94 162.15,140.43 C 162.23,140.23 162.32,140.09 162.36,140.12 C 162.39,140.15 162.41,140.12 162.38,140.03 C 162.36,139.95 162.4,139.82 162.47,139.73 C 162.54,139.65 162.65,139.35 162.71,139.07 C 162.77,138.78 162.87,138.3 162.94,137.99 C 163.07,137.35 163.09,136.93 162.99,136.91 C 162.95,136.9 162.9,136.74 162.87,136.56 C 162.85,136.38 162.77,136.19 162.71,136.15 C 162.64,136.11 162.46,135.95 162.3,135.81 C 162.14,135.66 161.94,135.54 161.85,135.53 C 161.63,135.5 161.46,135.38 161.51,135.26 C 161.53,135.21 161.52,135.16 161.49,135.16 C 161.38,135.15 161.05,135.88 160.9,136.42 C 160.66,137.37 160.21,138.56 160.15,138.51 C 160.11,138.48 160.1,138.52 160.12,138.59 C 160.13,138.67 160.06,138.84 159.95,138.99 C 159.71,139.29 159.57,139.22 159.51,138.77 C 159.47,138.47 159.11,137.94 158.97,137.98 C 158.92,137.99 158.9,137.89 158.94,137.69 C 159.09,136.74 159.09,136.72 159.01,136.97 C 158.94,137.18 158.93,137.16 158.94,136.86 C 158.94,136.63 158.9,136.52 158.83,136.55 C 158.72,136.58 158.73,136.28 158.85,135.97 C 158.88,135.87 158.86,135.86 158.77,135.94 C 158.7,136.01 158.63,136.07 158.61,136.08 C 158.59,136.08 158.58,136.2 158.57,136.33 C 158.57,136.55 158.56,136.56 158.43,136.43 C 158.3,136.31 158.29,136.32 158.24,136.67 C 158.21,136.87 158.16,137.01 158.14,136.98 C 158.11,136.95 158.04,137.06 157.99,137.21 C 157.89,137.46 157.89,137.44 157.94,137.02 C 157.97,136.72 157.96,136.56 157.91,136.59 C 157.86,136.6 157.82,136.78 157.82,136.97 C 157.81,137.17 157.77,137.38 157.73,137.45 C 157.61,137.69 157.59,139.32 157.69,139.84 C 157.75,140.1 157.79,140.41 157.78,140.51 C 157.78,140.62 157.85,140.79 157.93,140.89 C 158.01,141.0 158.11,141.14 158.16,141.21 C 158.28,141.4 158.87,141.8 159.18,141.9 C 159.33,141.95 159.63,142.01 159.84,142.03 C 160.38,142.09 160.77,141.98 161.21,141.64 z M 158.17,136.25 C 158.23,136.23 158.27,136.16 158.24,136.11 C 158.22,136.06 158.17,136.03 158.13,136.05 C 158.09,136.07 158.06,136.13 158.06,136.19 C 158.05,136.25 158.11,136.28 158.17,136.25 z M 150.71,166.31 C 150.83,166.28 150.96,166.25 151.01,166.25 C 151.06,166.24 151.1,166.22 151.1,166.2 C 151.1,166.18 151.25,166.11 151.44,166.05 C 151.62,165.99 151.85,165.9 151.95,165.85 C 152.05,165.8 152.16,165.75 152.2,165.74 C 152.24,165.73 152.33,165.66 152.41,165.59 C 152.53,165.48 152.68,165.44 152.93,165.44 C 152.97,165.44 153.0,165.4 152.98,165.36 C 152.96,165.32 153.05,165.23 153.18,165.16 C 153.48,165.0 153.56,164.93 154.32,164.31 C 154.67,164.03 155.05,163.79 155.17,163.77 C 155.58,163.68 156.39,163.34 156.49,163.21 C 156.54,163.13 156.62,163.09 156.66,163.11 C 156.7,163.14 156.72,163.13 156.69,163.1 C 156.66,163.07 156.71,162.97 156.8,162.87 C 156.89,162.77 156.94,162.67 156.91,162.65 C 156.89,162.63 156.87,162.64 156.87,162.68 C 156.87,162.73 156.77,162.75 156.66,162.75 C 156.55,162.74 156.21,162.82 155.92,162.93 C 155.62,163.03 155.36,163.12 155.34,163.12 C 155.32,163.11 155.31,163.04 155.32,162.94 C 155.32,162.85 155.31,162.65 155.29,162.51 C 155.23,162.16 154.77,161.78 154.23,161.63 C 153.62,161.46 152.64,161.44 152.06,161.58 C 151.44,161.73 150.49,162.27 149.97,162.77 C 149.84,162.89 149.71,163.01 149.59,163.14 C 149.5,163.08 149.42,163.03 149.34,162.98 C 148.94,162.71 148.4,162.7 147.32,162.91 C 147.15,162.95 147.12,162.94 147.21,162.88 C 147.3,162.82 147.3,162.81 147.17,162.83 C 147.09,162.84 147.03,162.89 147.04,162.93 C 147.06,162.99 146.71,163.13 146.45,163.17 C 146.41,163.18 146.33,163.2 146.28,163.23 C 146.23,163.26 145.9,163.14 145.55,162.98 C 145.33,162.88 145.12,162.78 144.9,162.68 C 145.01,162.68 145.13,162.68 145.24,162.68 C 145.43,162.68 145.64,162.67 145.7,162.64 C 145.82,162.6 145.86,162.31 145.76,162.18 C 145.69,162.09 143.98,161.87 143.59,161.9 C 143.35,161.92 143.28,161.96 143.15,162.16 C 143.1,162.24 143.05,162.32 143.0,162.4 C 143.13,162.56 143.26,162.72 143.39,162.87 C 143.6,163.13 143.84,163.38 143.92,163.41 C 143.99,163.45 144.05,163.52 144.05,163.58 C 144.05,163.63 144.09,163.66 144.13,163.64 C 144.18,163.61 144.25,163.64 144.3,163.69 C 144.35,163.74 144.46,163.8 144.55,163.82 C 144.71,163.86 144.72,163.84 144.69,163.66 C 144.67,163.55 144.58,163.39 144.5,163.31 C 144.42,163.23 144.35,163.13 144.35,163.09 C 144.35,163.05 144.31,163.01 144.27,163.01 C 144.23,163.01 144.2,162.96 144.2,162.9 C 144.21,162.79 144.21,162.79 144.3,162.9 C 144.36,162.96 144.43,163.01 144.46,163.01 C 144.58,163.01 145.22,163.43 145.19,163.47 C 145.16,163.52 145.17,163.54 145.21,163.53 C 145.24,163.52 145.44,163.58 145.65,163.67 C 145.91,163.77 146.04,163.86 146.05,163.94 C 146.06,164.16 146.17,164.41 146.29,164.48 C 146.34,164.51 146.34,164.54 146.29,164.58 C 146.25,164.61 146.21,164.69 146.21,164.77 C 146.21,164.87 146.26,164.9 146.36,164.89 C 146.45,164.89 146.6,164.96 146.7,165.05 C 146.8,165.15 147.01,165.31 147.17,165.42 C 147.33,165.52 147.48,165.63 147.5,165.65 C 147.59,165.75 147.96,165.78 148.02,165.69 C 148.06,165.63 148.11,165.64 148.23,165.75 C 148.31,165.83 148.43,165.9 148.48,165.9 C 148.54,165.9 148.64,165.91 148.71,165.93 C 148.79,165.94 148.72,165.9 148.57,165.84 C 148.41,165.77 148.26,165.69 148.24,165.66 C 148.21,165.63 148.07,165.55 147.92,165.49 C 147.77,165.43 147.65,165.35 147.65,165.31 C 147.65,165.28 147.74,165.29 147.85,165.35 C 147.92,165.38 148.02,165.44 148.03,165.44 C 148.03,165.44 147.93,165.37 147.87,165.33 C 147.52,165.1 147.36,164.94 147.25,164.7 C 147.13,164.44 147.19,164.35 147.42,164.46 C 147.67,164.58 148.24,164.73 148.52,164.75 C 148.75,164.76 148.81,164.74 148.89,164.6 C 148.97,164.46 148.97,164.43 148.85,164.35 C 148.77,164.3 148.63,164.24 148.53,164.22 C 148.43,164.2 148.16,164.1 147.94,164.01 C 147.72,163.92 147.5,163.84 147.44,163.83 C 147.25,163.8 147.13,163.66 147.22,163.56 C 147.35,163.42 147.83,163.32 148.11,163.36 C 148.41,163.41 149.0,163.85 149.06,164.06 C 149.15,164.4 149.96,164.43 150.25,164.12 C 150.33,164.04 150.38,163.95 150.36,163.94 C 150.31,163.89 150.57,163.55 150.89,163.28 C 151.58,162.68 152.45,162.33 153.07,162.39 C 153.28,162.41 153.47,162.46 153.51,162.49 C 153.55,162.53 153.64,162.56 153.69,162.56 C 153.85,162.55 154.06,162.74 154.06,162.88 C 154.06,162.94 154.03,162.99 154.0,162.99 C 153.96,162.99 153.93,163.05 153.92,163.11 C 153.9,163.28 153.45,163.84 153.09,164.16 C 152.52,164.66 151.26,165.46 151.1,165.38 C 151.06,165.36 151.04,165.37 151.05,165.4 C 151.07,165.47 150.61,165.87 150.41,165.93 C 150.25,165.98 150.18,166.11 150.32,166.1 C 150.35,166.1 150.37,166.14 150.35,166.19 C 150.32,166.26 150.36,166.27 150.51,166.25 C 150.67,166.21 150.69,166.22 150.6,166.29 C 150.52,166.35 150.54,166.36 150.71,166.31 z M 154.35,143.26 C 154.78,143.16 155.24,142.91 155.41,142.71 C 155.45,142.66 155.58,142.52 155.69,142.4 C 155.8,142.27 155.95,142.07 156.02,141.94 C 156.09,141.82 156.18,141.73 156.21,141.74 C 156.25,141.76 156.26,141.74 156.24,141.71 C 156.22,141.67 156.26,141.54 156.33,141.43 C 156.4,141.31 156.54,140.97 156.65,140.67 C 156.89,140.03 156.96,139.12 156.8,138.67 C 156.75,138.52 156.72,138.38 156.74,138.38 C 156.8,138.35 156.36,137.51 156.22,137.4 C 156.04,137.26 155.67,137.08 155.61,137.11 C 155.59,137.12 155.48,137.09 155.37,137.04 C 155.14,136.94 154.51,136.96 154.02,137.07 C 153.62,137.18 152.65,137.75 152.26,138.06 C 152.13,138.17 151.99,138.24 151.94,138.21 C 151.9,138.19 151.88,138.2 151.91,138.24 C 151.95,138.27 151.84,138.43 151.69,138.57 C 151.53,138.71 151.24,139.04 151.04,139.27 C 150.84,139.51 150.63,139.72 150.56,139.77 C 150.5,139.82 150.48,139.84 150.53,139.82 C 150.6,139.79 150.61,139.85 150.58,140.03 C 150.55,140.19 150.57,140.26 150.63,140.27 C 150.69,140.27 150.71,140.32 150.69,140.4 C 150.66,140.47 150.68,140.54 150.71,140.56 C 150.75,140.58 150.73,140.7 150.67,140.81 C 150.57,141.01 150.57,141.02 150.71,141.09 C 150.83,141.14 150.86,141.14 150.86,141.06 C 150.86,141.01 150.88,140.97 150.91,140.96 C 151.39,140.9 151.54,140.92 151.33,141.08 C 151.28,141.12 151.22,141.14 151.22,141.11 C 151.21,141.08 151.19,141.12 151.16,141.21 C 151.13,141.29 151.14,141.41 151.18,141.49 C 151.28,141.67 151.18,141.71 151.0,141.55 C 150.95,141.51 150.9,141.46 150.85,141.42 C 150.86,141.47 150.87,141.53 150.89,141.59 C 150.91,141.69 150.95,141.82 150.98,141.89 C 151.01,141.99 150.99,142.02 150.87,142.02 C 150.76,142.02 150.68,141.95 150.61,141.81 C 150.39,141.41 150.41,141.66 150.63,142.08 C 150.67,142.16 150.74,142.25 150.79,142.27 C 150.85,142.3 150.85,142.32 150.78,142.36 C 150.7,142.39 150.71,142.41 150.81,142.41 C 150.88,142.41 150.93,142.44 150.93,142.49 C 150.93,142.63 151.38,142.9 151.98,143.12 C 152.3,143.23 152.54,143.35 152.53,143.37 C 152.51,143.39 152.61,143.41 152.75,143.41 C 152.89,143.41 153.02,143.42 153.04,143.43 C 153.09,143.48 153.86,143.39 154.35,143.26 z M 150.64,141.38 C 150.68,141.38 150.71,141.34 150.71,141.29 C 150.71,141.24 150.68,141.22 150.64,141.24 C 150.6,141.26 150.56,141.3 150.56,141.33 C 150.56,141.36 150.6,141.38 150.64,141.38 z M 135.41,144.29 C 135.44,144.1 135.64,144.08 135.83,144.28 C 135.92,144.37 135.95,144.33 136.02,144.02 C 136.11,143.62 136.29,143.51 136.3,143.85 C 136.31,144.0 136.33,144.03 136.37,143.94 C 136.4,143.88 136.41,143.29 136.4,142.64 C 136.38,141.99 136.39,141.43 136.41,141.39 C 136.42,141.35 136.46,141.0 136.5,140.62 C 136.54,140.23 136.62,139.57 136.69,139.14 C 136.83,138.22 136.93,137.48 136.97,137.05 C 136.98,136.94 136.99,136.84 137.0,136.73 C 136.82,136.73 136.64,136.74 136.47,136.75 C 136.17,136.77 135.83,136.82 135.7,136.85 C 135.58,136.88 135.4,136.9 135.31,136.89 C 135.19,136.88 135.17,136.9 135.2,137.01 C 135.22,137.08 135.21,137.16 135.17,137.17 C 135.13,137.18 135.12,137.22 135.14,137.26 C 135.19,137.36 135.04,137.46 134.81,137.49 C 134.75,137.49 134.69,137.5 134.62,137.51 C 134.68,137.46 134.73,137.41 134.78,137.37 C 134.84,137.32 134.89,137.27 134.95,137.22 C 134.89,137.22 134.84,137.22 134.79,137.23 C 134.7,137.23 134.59,137.29 134.55,137.35 C 134.46,137.48 134.21,137.52 134.21,137.41 C 134.21,137.31 134.57,137.04 134.69,137.06 C 134.73,137.06 134.8,137.01 134.83,136.93 C 134.86,136.83 134.79,136.85 134.53,137.02 C 134.34,137.14 134.11,137.29 134.03,137.35 C 133.94,137.4 133.85,137.49 133.83,137.54 C 133.81,137.59 133.74,137.66 133.69,137.71 C 133.54,137.81 133.19,138.35 133.22,138.41 C 133.26,138.48 132.96,138.97 132.91,138.93 C 132.89,138.91 132.87,138.94 132.86,138.99 C 132.86,139.04 132.79,139.12 132.71,139.16 C 132.63,139.2 132.54,139.3 132.52,139.38 C 132.5,139.45 132.44,139.53 132.4,139.56 C 132.35,139.58 132.23,139.78 132.11,139.99 C 132.0,140.2 131.88,140.36 131.85,140.36 C 131.82,140.35 131.81,140.37 131.83,140.41 C 131.85,140.44 131.84,140.52 131.8,140.59 C 131.76,140.65 131.65,140.97 131.54,141.29 C 131.25,142.12 131.15,143.19 131.38,143.58 C 131.54,143.87 131.78,143.99 132.2,143.97 C 132.5,143.96 133.25,143.52 133.6,143.1 C 134.08,142.55 134.44,142.03 134.6,141.73 C 134.64,141.64 134.69,141.54 134.74,141.45 C 134.73,141.68 134.72,141.91 134.71,142.13 C 134.69,142.88 134.76,143.45 134.86,143.37 C 134.9,143.33 134.93,143.39 134.93,143.48 C 134.94,143.58 135.01,143.84 135.09,144.06 C 135.26,144.51 135.36,144.59 135.41,144.29 z M 133.05,138.67 C 133.09,138.65 133.14,138.59 133.16,138.53 C 133.18,138.47 133.17,138.44 133.14,138.46 C 133.11,138.48 133.06,138.54 133.03,138.6 C 133.01,138.65 133.02,138.68 133.05,138.67 z M 167.58,139.07 C 167.53,138.96 167.51,138.93 167.46,138.96 C 167.42,138.99 167.42,139.03 167.5,139.12 C 167.61,139.27 167.64,139.26 167.58,139.07 z M 166.8,139.63 C 166.81,139.49 166.74,139.39 166.66,139.45 C 166.6,139.49 166.61,139.53 166.69,139.62 C 166.75,139.7 166.79,139.7 166.8,139.63 z M 164.97,142.98 C 164.97,142.87 165.02,142.82 165.11,142.83 C 165.23,142.85 165.25,142.79 165.26,142.55 C 165.28,141.78 165.89,140.36 166.39,139.94 C 166.49,139.85 166.5,139.82 166.42,139.78 C 166.3,139.73 166.29,139.62 166.41,139.56 C 166.46,139.53 166.49,139.45 166.47,139.38 C 166.44,139.22 166.81,139.19 166.98,139.34 C 167.06,139.4 167.08,139.4 167.05,139.34 C 167.03,139.29 167.04,139.24 167.08,139.25 C 167.13,139.25 167.13,139.22 167.05,139.12 C 166.86,138.87 167.11,139.08 167.34,139.36 C 167.46,139.51 167.58,139.62 167.6,139.61 C 167.61,139.6 167.7,139.7 167.78,139.82 C 167.98,140.11 167.98,140.0 167.78,139.69 C 167.66,139.51 167.62,139.47 167.59,139.52 C 167.57,139.56 167.52,139.51 167.39,139.3 C 167.29,139.14 167.19,139.0 167.15,138.98 C 167.12,138.96 167.1,138.9 167.12,138.86 C 167.14,138.77 166.9,138.49 166.84,138.53 C 166.83,138.54 166.77,138.48 166.72,138.39 C 166.66,138.3 166.59,138.23 166.56,138.23 C 166.52,138.24 166.51,138.22 166.54,138.18 C 166.56,138.15 166.65,138.17 166.76,138.24 C 166.86,138.3 166.92,138.33 166.9,138.29 C 166.84,138.18 166.32,137.84 166.32,137.91 C 166.32,137.95 166.29,137.94 166.26,137.89 C 166.22,137.84 166.09,137.82 165.97,137.86 C 165.84,137.9 165.71,137.92 165.68,137.9 C 165.64,137.88 165.61,137.91 165.62,137.95 C 165.62,138.0 165.58,138.01 165.53,137.99 C 165.49,137.96 165.39,137.98 165.31,138.03 C 165.15,138.13 164.94,138.0 164.93,137.77 C 164.93,137.56 164.74,137.12 164.58,136.92 C 164.49,136.81 164.46,136.8 164.5,136.89 C 164.57,137.08 164.29,136.9 164.16,136.67 C 164.04,136.46 164.03,136.45 163.97,136.59 C 163.88,136.76 163.73,136.72 163.64,136.47 C 163.59,136.32 163.57,136.31 163.55,136.42 C 163.49,136.69 163.44,137.29 163.45,137.73 C 163.46,137.98 163.43,138.51 163.39,138.9 C 163.13,141.24 162.99,142.55 163.1,142.47 C 163.19,142.41 163.46,142.6 163.45,142.73 C 163.45,142.88 163.72,142.98 164.2,143.02 C 164.37,143.04 164.6,143.08 164.69,143.12 C 164.9,143.22 164.97,143.18 164.97,142.98 z M 167.79,139.32 C 167.82,139.34 167.84,139.32 167.84,139.28 C 167.83,139.24 167.8,139.21 167.77,139.21 C 167.75,139.21 167.72,139.23 167.73,139.25 C 167.73,139.26 167.76,139.29 167.79,139.32 z M 167.3,138.87 C 167.34,138.89 167.36,138.87 167.35,138.83 C 167.35,138.8 167.32,138.75 167.29,138.72 C 167.26,138.7 167.23,138.72 167.24,138.76 C 167.24,138.8 167.27,138.85 167.3,138.87 z M 161.04,144.06 C 161.07,143.99 161.07,143.91 161.04,143.88 C 161.02,143.85 161.0,143.91 161.0,144.01 C 161.0,144.11 161.02,144.14 161.04,144.06 z M 134.61,155.33 C 134.61,155.26 134.62,155.18 134.63,155.11 C 134.64,154.93 134.67,154.9 134.72,154.97 C 134.77,155.04 134.78,154.97 134.73,154.77 C 134.62,154.22 134.65,152.81 134.79,152.13 C 134.97,151.29 135.22,150.42 135.31,150.42 C 135.35,150.42 135.36,150.39 135.34,150.36 C 135.31,150.33 135.34,150.27 135.4,150.22 C 135.45,150.18 135.48,150.12 135.46,150.08 C 135.43,150.05 135.5,149.87 135.61,149.68 C 135.72,149.49 135.82,149.25 135.84,149.16 C 135.86,149.06 135.91,148.94 135.96,148.89 C 136.01,148.84 136.06,148.75 136.07,148.67 C 136.07,148.6 136.12,148.52 136.17,148.49 C 136.21,148.47 136.22,148.44 136.2,148.44 C 136.17,148.44 136.17,148.35 136.21,148.23 C 136.44,147.38 136.5,147.11 136.53,146.73 C 136.62,145.61 136.05,144.83 135.14,144.82 C 134.85,144.82 134.33,145.0 134.16,145.16 C 134.09,145.23 134.0,145.27 133.97,145.25 C 133.93,145.23 133.88,145.25 133.85,145.29 C 133.82,145.34 133.83,145.35 133.88,145.32 C 134.01,145.25 133.99,145.34 133.84,145.48 C 133.77,145.55 133.6,145.84 133.46,146.12 C 133.38,146.29 133.29,146.46 133.21,146.63 C 133.13,146.55 133.04,146.47 132.96,146.39 C 132.7,146.14 132.13,145.83 132.14,145.94 C 132.14,145.97 132.09,146.0 132.03,146.0 C 131.86,146.0 131.28,146.57 131.29,146.72 C 131.29,146.79 131.27,146.87 131.23,146.89 C 131.13,146.95 131.31,148.52 131.46,148.97 C 131.53,149.17 131.59,149.45 131.6,149.59 C 131.61,149.73 131.67,149.93 131.74,150.02 C 131.86,150.2 132.29,151.34 132.26,151.43 C 132.25,151.45 132.28,151.48 132.32,151.48 C 132.36,151.48 132.4,151.53 132.4,151.6 C 132.4,151.69 132.45,151.73 132.55,151.72 C 132.72,151.71 132.73,151.68 132.6,151.43 C 132.43,151.09 132.36,150.88 132.44,150.92 C 132.53,150.96 132.53,150.96 132.42,150.69 C 132.37,150.56 132.19,149.91 132.0,149.24 C 131.65,147.93 131.6,147.45 131.8,147.02 C 131.89,146.84 131.94,146.8 132.09,146.82 C 132.34,146.86 132.42,146.92 132.53,147.11 C 132.67,147.38 132.87,148.04 132.85,148.17 C 132.84,148.23 132.89,148.35 132.98,148.43 C 133.09,148.55 133.17,148.57 133.32,148.54 C 133.49,148.5 133.54,148.43 133.64,148.02 C 133.71,147.76 133.78,147.52 133.8,147.49 C 133.83,147.45 133.85,147.37 133.86,147.3 C 133.88,147.09 134.31,146.37 134.4,146.38 C 134.44,146.39 134.46,146.36 134.44,146.32 C 134.35,146.13 134.85,145.78 135.06,145.88 C 135.14,145.92 135.21,145.93 135.2,145.9 C 135.2,145.88 135.25,145.9 135.32,145.94 C 135.4,146.0 135.45,146.15 135.47,146.46 C 135.5,146.92 135.42,147.65 135.33,147.65 C 135.31,147.65 135.28,147.71 135.28,147.77 C 135.28,147.84 135.16,148.16 135.01,148.48 C 134.86,148.8 134.73,149.08 134.73,149.1 C 134.72,149.12 134.69,149.19 134.65,149.27 C 134.49,149.54 134.08,151.01 133.95,151.67 C 133.88,152.05 133.82,152.68 133.81,153.06 C 133.8,153.65 133.82,153.85 134.0,154.44 C 134.11,154.81 134.2,155.13 134.2,155.14 C 134.2,155.16 134.23,155.17 134.27,155.17 C 134.31,155.17 134.32,155.12 134.3,155.05 C 134.27,154.99 134.33,155.03 134.43,155.13 C 134.49,155.2 134.55,155.27 134.61,155.33 z M 133.37,153.29 C 133.29,153.2 133.2,153.15 133.18,153.17 C 133.15,153.19 133.21,153.28 133.3,153.36 C 133.52,153.55 133.57,153.51 133.37,153.29 z M 160.07,152.53 C 160.13,152.53 160.18,152.5 160.18,152.46 C 160.19,152.43 160.14,152.4 160.08,152.4 C 160.01,152.4 159.96,152.43 159.96,152.46 C 159.96,152.5 160.01,152.53 160.07,152.53 z M 149.72,166.12 C 149.8,166.12 149.82,166.1 149.76,166.08 C 149.71,166.06 149.65,166.07 149.62,166.09 C 149.6,166.11 149.64,166.13 149.72,166.12 z M 163.59,149.7 C 163.65,149.7 163.71,149.23 163.65,149.19 C 163.62,149.18 163.59,149.28 163.58,149.43 C 163.57,149.58 163.57,149.7 163.59,149.7 z M 150.62,144.96 C 150.66,144.96 150.7,144.93 150.7,144.9 C 150.7,144.87 150.66,144.85 150.62,144.85 C 150.58,144.85 150.54,144.87 150.54,144.9 C 150.54,144.93 150.58,144.96 150.62,144.96 z M 163.55,157.01 C 163.58,156.98 163.55,156.95 163.49,156.95 C 163.43,156.95 163.33,156.93 163.26,156.91 C 163.2,156.89 163.15,156.9 163.15,156.94 C 163.15,156.99 163.18,157.0 163.22,156.98 C 163.26,156.96 163.29,156.97 163.29,157.01 C 163.29,157.1 163.49,157.1 163.55,157.01 z M 149.28,165.88 C 149.26,165.84 149.16,165.82 149.08,165.82 C 148.95,165.82 148.94,165.84 149.03,165.89 C 149.17,165.97 149.34,165.96 149.28,165.88 z M 143.26,144.58 C 143.32,144.56 143.37,144.52 143.37,144.5 C 143.37,144.47 143.32,144.44 143.25,144.44 C 143.19,144.43 143.14,144.47 143.14,144.52 C 143.14,144.57 143.19,144.6 143.26,144.58 z M 158.86,161.03 C 159.19,161.03 159.87,160.91 159.9,160.83 C 159.92,160.8 159.97,160.77 160.02,160.77 C 160.08,160.77 160.16,160.66 160.21,160.52 C 160.34,160.19 160.54,159.9 160.61,159.96 C 160.65,159.99 160.65,159.98 160.62,159.93 C 160.59,159.88 160.68,159.72 160.86,159.52 C 161.03,159.35 161.16,159.18 161.16,159.15 C 161.16,159.07 161.78,158.54 161.84,158.57 C 161.87,158.59 161.89,158.58 161.88,158.55 C 161.87,158.52 161.91,158.43 161.96,158.34 C 162.04,158.21 162.04,158.19 161.96,158.24 C 161.91,158.27 161.95,158.19 162.04,158.07 C 162.14,157.95 162.23,157.88 162.25,157.92 C 162.3,158.05 162.4,158.01 162.43,157.85 C 162.44,157.76 162.5,157.71 162.58,157.72 C 162.66,157.72 162.7,157.71 162.68,157.7 C 162.62,157.64 163.02,157.34 163.12,157.37 C 163.27,157.42 163.24,157.3 163.07,157.14 C 162.98,157.06 162.87,157.02 162.81,157.04 C 162.76,157.06 162.69,157.05 162.67,157.01 C 162.63,156.95 162.73,156.92 162.87,156.94 C 162.9,156.94 162.93,156.92 162.93,156.88 C 162.93,156.85 162.8,156.82 162.63,156.82 C 162.47,156.82 162.34,156.85 162.34,156.88 C 162.34,156.92 162.28,156.95 162.21,156.95 C 162.14,156.95 162.0,157.01 161.9,157.1 C 161.71,157.25 161.3,157.5 161.24,157.5 C 161.22,157.5 161.16,157.54 161.11,157.58 C 160.97,157.7 160.82,157.63 160.73,157.4 C 160.67,157.23 160.64,157.21 160.51,157.28 C 160.41,157.32 160.31,157.33 160.22,157.28 C 160.15,157.25 160.05,157.25 159.99,157.28 C 159.94,157.31 159.83,157.32 159.75,157.31 C 159.65,157.29 159.59,157.34 159.54,157.48 C 159.49,157.59 159.43,157.67 159.39,157.67 C 159.35,157.67 159.34,157.7 159.36,157.73 C 159.41,157.8 159.11,158.73 158.71,159.74 C 158.27,160.84 158.25,160.89 158.46,160.96 C 158.55,160.99 158.73,161.02 158.86,161.03 z M 138.01,145.67 C 138.08,145.65 138.17,145.63 138.2,145.63 C 138.24,145.63 138.27,145.58 138.27,145.53 C 138.26,145.46 138.22,145.43 138.15,145.46 C 138.06,145.49 138.04,145.44 138.06,145.16 C 138.08,144.97 138.11,144.79 138.13,144.75 C 138.15,144.71 138.11,144.75 138.04,144.83 C 137.95,144.92 137.9,145.1 137.9,145.34 C 137.89,145.66 137.91,145.71 138.01,145.67 z M 161.5,156.12 C 162.17,156.09 163.25,155.8 164.11,155.4 C 164.4,155.27 164.63,155.19 164.63,155.22 C 164.63,155.24 164.65,155.24 164.68,155.2 C 164.71,155.16 164.87,155.05 165.03,154.94 C 165.36,154.74 166.15,154.02 166.47,153.65 C 166.58,153.52 166.7,153.41 166.72,153.39 C 166.84,153.3 167.89,151.63 167.91,151.51 C 167.91,151.45 167.94,151.41 167.97,151.41 C 168.0,151.41 168.03,151.34 168.04,151.26 C 168.13,150.6 168.21,150.13 168.28,149.82 C 168.36,149.45 168.29,149.24 168.16,149.48 C 168.11,149.57 168.09,149.56 168.01,149.38 C 167.92,149.14 167.96,149.0 168.1,149.08 C 168.15,149.1 168.17,149.1 168.14,149.07 C 168.05,148.97 167.88,148.98 167.83,149.07 C 167.8,149.12 167.71,149.19 167.61,149.24 C 167.45,149.31 167.44,149.31 167.51,149.07 C 167.57,148.85 167.56,148.83 167.47,148.94 C 167.41,149.01 167.33,149.17 167.29,149.28 C 167.26,149.4 167.14,149.65 167.02,149.84 C 166.91,150.03 166.71,150.37 166.59,150.59 C 166.47,150.8 166.26,151.08 166.11,151.21 C 165.97,151.34 165.79,151.55 165.71,151.67 C 165.56,151.92 164.62,152.73 164.48,152.73 C 164.43,152.73 164.36,152.77 164.33,152.82 C 164.24,152.95 163.32,153.38 162.72,153.56 C 162.03,153.78 161.04,153.84 160.55,153.69 C 160.11,153.56 159.77,153.21 159.62,152.72 C 159.45,152.18 159.5,152.07 159.98,151.91 C 160.38,151.78 160.38,151.77 160.17,151.74 C 160.05,151.71 159.9,151.73 159.84,151.77 C 159.76,151.82 159.74,151.82 159.79,151.75 C 159.82,151.71 159.8,151.66 159.74,151.64 C 159.63,151.6 159.62,151.5 159.72,151.37 C 159.74,151.33 159.79,151.21 159.81,151.1 C 159.84,150.99 160.03,150.69 160.23,150.43 C 160.57,150.0 160.65,149.94 161.14,149.76 C 161.43,149.64 161.74,149.55 161.84,149.55 C 161.93,149.55 161.99,149.52 161.97,149.49 C 161.95,149.46 161.88,149.43 161.82,149.43 C 161.76,149.43 161.72,149.4 161.72,149.36 C 161.72,149.29 162.03,149.33 162.37,149.44 C 162.51,149.49 162.53,149.53 162.48,149.65 C 162.44,149.73 162.41,149.84 162.41,149.91 C 162.42,149.97 162.36,150.06 162.29,150.1 C 162.18,150.18 162.18,150.17 162.23,150.09 C 162.27,150.04 162.19,150.08 162.06,150.19 C 161.81,150.38 161.78,150.51 162.02,150.35 C 162.1,150.3 162.07,150.32 161.96,150.4 C 161.55,150.71 161.44,150.82 161.44,150.93 C 161.45,151.02 161.39,151.05 161.23,151.05 C 161.1,151.05 160.99,151.08 160.97,151.11 C 160.96,151.15 160.79,151.24 160.61,151.32 C 160.5,151.37 160.39,151.41 160.28,151.46 C 160.37,151.49 160.46,151.52 160.56,151.54 C 160.71,151.59 160.88,151.65 160.93,151.69 C 160.99,151.74 161.02,151.72 161.02,151.63 C 161.02,151.56 161.12,151.46 161.23,151.4 C 161.35,151.34 161.52,151.23 161.61,151.15 C 161.71,151.07 161.79,151.04 161.82,151.08 C 161.88,151.18 161.63,151.49 161.51,151.45 C 161.46,151.44 161.42,151.46 161.42,151.51 C 161.41,151.64 161.52,151.63 161.75,151.48 C 162.0,151.3 162.07,151.31 162.06,151.51 C 162.06,151.6 162.08,151.68 162.11,151.68 C 162.14,151.68 162.22,151.69 162.29,151.71 C 162.36,151.72 162.42,151.71 162.41,151.68 C 162.39,151.52 162.45,151.41 162.52,151.45 C 162.57,151.48 162.58,151.47 162.56,151.42 C 162.53,151.39 162.66,151.24 162.85,151.11 C 163.04,150.98 163.19,150.85 163.19,150.83 C 163.18,150.69 163.22,150.63 163.32,150.66 C 163.38,150.68 163.43,150.66 163.43,150.62 C 163.44,150.58 163.4,150.56 163.36,150.59 C 163.32,150.61 163.29,150.59 163.29,150.56 C 163.29,150.52 163.32,150.49 163.35,150.49 C 163.44,150.48 163.61,150.15 163.61,149.96 C 163.62,149.8 163.62,149.8 163.54,149.94 C 163.41,150.2 163.31,150.11 163.33,149.74 C 163.35,149.43 163.27,148.93 163.15,148.63 C 163.07,148.44 163.28,148.55 163.42,148.76 C 163.51,148.9 163.53,148.91 163.54,148.82 C 163.55,148.67 163.29,148.18 163.19,148.18 C 163.16,148.18 163.03,148.11 162.9,148.03 C 162.77,147.94 162.51,147.84 162.32,147.79 C 162.12,147.74 161.95,147.68 161.93,147.65 C 161.83,147.5 160.45,147.8 159.98,148.07 C 159.86,148.14 159.76,148.18 159.76,148.16 C 159.77,148.14 159.67,148.2 159.55,148.3 C 159.28,148.51 158.74,148.81 158.66,148.79 C 158.63,148.78 158.62,148.8 158.64,148.83 C 158.66,148.86 158.61,148.93 158.54,148.99 C 158.35,149.15 158.26,149.24 158.06,149.55 C 157.95,149.7 157.84,149.83 157.8,149.83 C 157.77,149.83 157.76,149.86 157.78,149.89 C 157.8,149.93 157.75,150.07 157.66,150.21 C 157.32,150.78 157.2,151.32 157.21,152.23 C 157.22,153.38 157.22,153.37 157.62,154.16 C 157.93,154.78 158.64,155.48 159.11,155.65 C 159.29,155.71 159.51,155.79 159.59,155.82 C 159.77,155.89 160.23,156.01 160.62,156.08 C 160.78,156.11 161.17,156.13 161.5,156.12 z M 137.4,147.19 C 137.45,147.2 137.46,147.17 137.43,147.13 C 137.4,147.09 137.37,147.06 137.35,147.06 C 137.33,147.06 137.32,147.09 137.32,147.13 C 137.32,147.17 137.36,147.19 137.4,147.19 z M 147.06,154.18 C 147.11,154.18 147.12,154.15 147.1,154.11 C 147.07,154.08 147.04,154.05 147.02,154.05 C 147.0,154.05 146.99,154.08 146.99,154.11 C 146.99,154.15 147.02,154.18 147.06,154.18 z M 166.17,149.56 C 166.21,149.56 166.27,149.53 166.3,149.5 C 166.32,149.46 166.31,149.43 166.27,149.43 C 166.23,149.43 166.17,149.46 166.15,149.5 C 166.12,149.53 166.13,149.56 166.17,149.56 z M 144.9,151.43 C 144.92,151.42 145.16,151.41 145.44,151.4 C 145.71,151.4 145.93,151.37 145.93,151.34 C 145.93,151.29 146.31,151.21 146.56,151.21 C 146.64,151.21 146.78,151.16 146.87,151.11 C 146.97,151.05 147.08,151.03 147.13,151.05 C 147.17,151.08 147.19,151.07 147.16,151.03 C 147.14,150.99 147.16,150.92 147.23,150.88 C 147.32,150.81 147.36,150.81 147.4,150.87 C 147.44,150.93 147.53,150.91 147.72,150.79 C 147.87,150.7 148.0,150.63 148.01,150.64 C 148.02,150.65 148.03,150.64 148.02,150.62 C 147.99,150.58 148.3,150.41 148.35,150.44 C 148.39,150.48 149.25,149.7 149.26,149.62 C 149.26,149.6 149.3,149.54 149.36,149.49 C 149.53,149.33 150.06,148.32 150.19,147.92 C 150.25,147.71 150.3,147.42 150.3,147.28 C 150.31,146.83 149.89,145.75 149.7,145.67 C 149.65,145.65 149.64,145.61 149.66,145.58 C 149.68,145.55 149.67,145.52 149.63,145.52 C 149.59,145.52 149.47,145.42 149.34,145.29 C 149.1,145.03 148.23,144.49 147.89,144.38 C 147.77,144.34 147.67,144.29 147.67,144.27 C 147.67,144.22 147.23,144.13 146.71,144.06 C 146.4,144.02 146.32,144.02 146.22,144.1 C 146.16,144.15 146.14,144.16 146.17,144.11 C 146.21,144.05 146.2,144.05 146.11,144.09 C 146.05,144.13 145.8,144.15 145.54,144.15 C 145.29,144.15 145.04,144.18 144.98,144.21 C 144.93,144.25 144.85,144.26 144.81,144.25 C 144.78,144.23 144.75,144.29 144.76,144.39 C 144.77,144.49 144.82,144.56 144.89,144.56 C 144.95,144.57 144.97,144.54 144.94,144.5 C 144.9,144.46 144.91,144.45 144.96,144.47 C 145.08,144.53 144.92,144.85 144.75,144.88 C 144.56,144.92 144.59,144.99 144.9,145.18 C 145.12,145.31 145.16,145.36 145.09,145.43 C 145.05,145.47 144.95,145.51 144.88,145.51 C 144.78,145.51 144.79,145.52 144.91,145.6 C 145.0,145.65 145.14,145.68 145.22,145.67 C 145.31,145.65 145.59,145.73 145.88,145.83 C 146.15,145.94 146.46,146.06 146.55,146.1 C 146.65,146.13 146.73,146.19 146.73,146.23 C 146.73,146.27 146.82,146.36 146.92,146.42 C 147.16,146.57 147.28,146.84 147.29,147.23 C 147.29,147.61 147.27,147.68 147.13,147.92 C 146.73,148.57 145.54,149.0 144.12,149.0 C 143.6,149.0 143.32,148.97 143.24,148.91 C 143.17,148.87 143.12,148.85 143.12,148.87 C 143.12,148.97 142.66,148.7 142.48,148.5 C 142.32,148.32 142.28,148.22 142.28,147.91 C 142.28,147.71 142.26,147.54 142.22,147.54 C 142.19,147.54 142.16,147.58 142.17,147.64 C 142.17,147.69 142.14,147.73 142.1,147.73 C 142.05,147.73 142.02,147.69 142.02,147.64 C 142.01,147.59 142.04,147.53 142.08,147.51 C 142.13,147.49 142.16,147.4 142.15,147.32 C 142.15,147.25 142.19,147.12 142.25,147.04 C 142.38,146.87 142.31,146.85 142.16,147.01 C 142.06,147.11 142.06,147.11 142.13,146.99 C 142.17,146.92 142.36,146.73 142.56,146.56 C 142.76,146.39 142.93,146.22 142.93,146.18 C 142.93,146.13 142.94,146.14 142.99,146.19 C 143.03,146.25 143.11,146.24 143.29,146.15 C 143.42,146.08 143.51,146.0 143.49,145.97 C 143.46,145.94 143.51,145.88 143.6,145.84 C 143.76,145.77 143.76,145.76 143.63,145.69 C 143.45,145.58 143.53,145.55 144.21,145.43 C 144.74,145.34 144.74,145.34 144.48,145.29 C 144.12,145.21 143.95,145.23 143.71,145.36 C 143.6,145.42 143.49,145.47 143.47,145.47 C 143.37,145.47 143.42,145.28 143.52,145.25 C 143.59,145.23 143.64,145.19 143.63,145.16 C 143.63,145.13 143.57,145.11 143.5,145.14 C 143.43,145.16 143.34,145.18 143.3,145.18 C 143.25,145.19 143.14,145.25 143.04,145.32 C 142.9,145.42 142.83,145.43 142.68,145.38 C 142.57,145.35 142.46,145.34 142.42,145.36 C 142.38,145.37 142.35,145.38 142.35,145.36 C 142.34,145.28 142.95,145.03 143.07,145.07 C 143.18,145.1 143.19,145.09 143.1,145.05 C 143.02,145.0 143.02,144.97 143.14,144.92 C 143.26,144.87 143.26,144.86 143.1,144.87 C 143.01,144.87 142.93,144.89 142.93,144.91 C 142.94,144.93 142.8,144.99 142.64,145.05 C 142.47,145.11 142.3,145.19 142.26,145.23 C 142.21,145.28 142.11,145.31 142.04,145.31 C 141.96,145.31 141.88,145.36 141.86,145.43 C 141.84,145.5 141.79,145.54 141.76,145.53 C 141.72,145.51 141.64,145.55 141.57,145.61 C 141.5,145.68 141.41,145.72 141.37,145.7 C 141.34,145.68 141.33,145.71 141.35,145.76 C 141.38,145.81 141.35,145.87 141.28,145.89 C 141.22,145.91 141.17,145.95 141.17,145.99 C 141.17,146.05 140.65,146.73 140.53,146.82 C 140.51,146.84 140.41,146.98 140.31,147.14 C 140.16,147.39 140.14,147.51 140.16,148.05 C 140.18,148.65 140.21,148.81 140.36,149.04 C 140.39,149.1 140.45,149.24 140.49,149.37 C 140.58,149.69 140.8,150.02 141.07,150.26 C 141.19,150.38 141.31,150.5 141.33,150.54 C 141.34,150.59 141.44,150.63 141.53,150.65 C 141.63,150.67 141.87,150.77 142.06,150.88 C 142.26,150.99 142.48,151.08 142.55,151.08 C 142.62,151.08 142.74,151.11 142.82,151.15 C 143.02,151.24 143.66,151.35 144.3,151.4 C 144.61,151.43 144.88,151.44 144.9,151.43 z M 151.23,145.6 C 151.23,145.54 151.19,145.52 151.11,145.54 C 151.04,145.56 150.96,145.58 150.93,145.58 C 150.91,145.58 150.93,145.6 151.0,145.64 C 151.16,145.71 151.23,145.7 151.23,145.6 z M 154.87,161.38 C 155.1,161.37 155.34,161.35 155.57,161.33 C 155.95,161.3 156.39,161.25 156.53,161.2 C 156.67,161.16 156.81,161.13 156.84,161.14 C 156.87,161.15 156.89,161.13 156.88,161.11 C 156.87,161.08 156.89,161.05 156.93,161.03 C 156.97,161.02 157.05,160.96 157.11,160.9 C 157.18,160.82 157.19,160.82 157.15,160.89 C 157.12,160.95 157.18,160.92 157.28,160.83 C 157.38,160.74 157.45,160.65 157.44,160.64 C 157.42,160.62 157.48,160.55 157.55,160.48 C 157.63,160.4 157.79,160.19 157.91,160.0 C 158.03,159.81 158.14,159.66 158.16,159.68 C 158.22,159.73 158.18,158.5 158.12,158.37 C 158.0,158.07 157.76,157.67 157.71,157.67 C 157.62,157.67 157.23,157.32 157.26,157.26 C 157.27,157.23 157.24,157.22 157.2,157.24 C 157.14,157.28 156.73,157.12 156.61,157.01 C 156.48,156.9 155.5,156.9 155.1,157.01 C 154.62,157.16 153.67,157.81 153.67,158.01 C 153.67,158.04 153.64,158.07 153.61,158.07 C 153.53,158.07 153.27,158.6 153.3,158.69 C 153.37,158.92 153.37,159.06 153.31,159.06 C 153.27,159.06 153.23,159.09 153.23,159.13 C 153.23,159.17 153.27,159.18 153.32,159.15 C 153.37,159.12 153.38,159.13 153.35,159.18 C 153.28,159.29 153.23,159.72 153.29,159.72 C 153.32,159.72 153.39,159.63 153.44,159.52 C 153.5,159.4 153.58,159.33 153.68,159.34 C 153.83,159.35 153.86,159.42 153.75,159.49 C 153.71,159.51 153.67,159.6 153.67,159.69 C 153.67,159.82 153.64,159.85 153.56,159.82 C 153.47,159.79 153.46,159.83 153.48,160.01 C 153.52,160.26 153.42,160.32 153.34,160.11 C 153.32,160.04 153.27,159.99 153.23,160.01 C 153.15,160.05 153.22,160.31 153.35,160.44 C 153.4,160.5 153.43,160.56 153.41,160.58 C 153.34,160.64 153.62,160.81 154.25,161.1 C 154.46,161.19 154.66,161.29 154.87,161.38 z M 133.01,152.24 C 133.03,152.21 133.0,152.16 132.95,152.12 C 132.88,152.05 132.87,152.06 132.91,152.15 C 132.94,152.22 132.99,152.26 133.01,152.24 z M 137.66,146.15 C 137.75,146.15 137.75,146.11 137.69,145.94 C 137.64,145.82 137.6,145.72 137.6,145.71 C 137.6,145.7 137.55,145.71 137.49,145.73 C 137.43,145.75 137.41,145.81 137.43,145.87 C 137.46,145.93 137.5,146.02 137.52,146.07 C 137.53,146.11 137.6,146.15 137.66,146.15 z M 150.84,156.55 C 150.97,156.46 150.99,156.42 150.89,156.42 C 150.86,156.42 150.81,156.47 150.78,156.53 C 150.74,156.62 150.75,156.62 150.84,156.55 z M 133.25,152.81 C 133.28,152.72 133.11,152.44 133.06,152.48 C 133.04,152.5 133.07,152.59 133.13,152.69 C 133.18,152.79 133.24,152.84 133.25,152.81 z M 150.88,156.31 C 150.93,156.27 151.02,156.25 151.08,156.27 C 151.13,156.29 151.18,156.29 151.18,156.27 C 151.18,156.17 150.96,156.18 150.87,156.28 C 150.8,156.37 150.8,156.37 150.88,156.31 z M 132.92,152.52 C 132.96,152.48 132.72,151.87 132.66,151.87 C 132.63,151.87 132.72,152.16 132.82,152.39 C 132.86,152.48 132.91,152.53 132.92,152.52 z M 137.68,157.34 C 137.84,157.26 138.02,157.22 138.07,157.24 C 138.12,157.25 138.21,157.23 138.26,157.17 C 138.3,157.12 138.38,157.08 138.42,157.08 C 138.55,157.08 139.46,156.7 139.91,156.46 C 140.27,156.27 141.75,155.75 141.97,155.74 C 142.06,155.73 142.12,155.7 142.12,155.67 C 142.1,155.6 142.61,155.35 142.8,155.33 C 142.86,155.32 143.01,155.28 143.13,155.24 C 143.65,155.04 144.06,154.96 144.82,154.9 C 145.49,154.85 145.64,154.82 145.74,154.71 C 145.81,154.62 145.94,154.58 146.14,154.57 C 146.3,154.56 146.51,154.54 146.6,154.53 C 146.75,154.5 146.76,154.49 146.65,154.3 C 146.59,154.19 146.57,154.11 146.62,154.11 C 146.66,154.11 146.69,154.07 146.69,154.01 C 146.69,153.96 146.78,153.9 146.89,153.87 C 147.2,153.81 147.24,153.77 147.09,153.67 C 147.02,153.63 146.98,153.57 147.0,153.55 C 147.02,153.53 146.98,153.45 146.9,153.38 C 146.71,153.21 146.72,153.13 146.93,153.12 C 147.14,153.11 147.14,153.11 147.3,153.16 C 147.42,153.2 147.43,153.19 147.34,153.07 C 147.23,152.91 146.74,152.73 146.44,152.73 C 146.33,152.73 146.24,152.69 146.24,152.65 C 146.24,152.61 146.22,152.59 146.2,152.61 C 146.17,152.63 146.02,152.61 145.85,152.56 C 145.5,152.45 144.99,152.44 143.95,152.56 C 143.4,152.62 143.15,152.62 143.07,152.57 C 142.99,152.52 142.98,152.52 143.02,152.57 C 143.05,152.62 142.99,152.66 142.88,152.69 C 142.77,152.71 142.55,152.79 142.38,152.86 C 142.1,152.97 141.2,153.28 141.2,153.26 C 141.2,153.25 140.48,153.53 139.94,153.76 C 139.81,153.81 139.69,153.88 139.67,153.91 C 139.65,153.94 139.47,154.01 139.28,154.08 C 139.09,154.14 138.86,154.24 138.78,154.3 C 138.58,154.45 138.19,154.64 138.03,154.67 C 137.9,154.69 137.9,154.66 138.06,154.06 C 138.16,153.71 138.24,153.2 138.24,152.93 C 138.25,152.38 138.28,152.23 138.46,151.6 C 138.62,151.08 138.6,150.31 138.44,150.43 C 138.36,150.49 138.34,150.42 138.34,149.99 C 138.33,149.62 138.36,149.47 138.43,149.45 C 138.5,149.42 138.52,149.44 138.48,149.51 C 138.44,149.57 138.45,149.57 138.5,149.53 C 138.54,149.49 138.61,149.37 138.65,149.25 C 138.73,149.06 138.72,149.01 138.62,148.93 C 138.47,148.8 138.33,148.86 138.34,149.04 C 138.35,149.11 138.31,149.17 138.27,149.17 C 138.22,149.17 138.2,149.12 138.23,149.05 C 138.25,148.99 138.28,148.75 138.29,148.51 C 138.29,148.28 138.33,148.06 138.36,148.02 C 138.4,147.99 138.42,147.86 138.41,147.74 C 138.4,147.61 138.44,147.53 138.49,147.52 C 138.56,147.52 138.56,147.51 138.48,147.47 C 138.42,147.44 138.37,147.33 138.36,147.24 C 138.35,147.11 138.31,147.07 138.21,147.07 C 138.05,147.07 138.03,146.99 138.12,146.67 C 138.21,146.37 138.23,145.8 138.15,146.0 C 138.12,146.07 138.06,146.16 138.02,146.18 C 137.98,146.2 137.93,146.42 137.92,146.67 C 137.91,146.92 137.87,147.11 137.83,147.09 C 137.8,147.07 137.76,147.0 137.76,146.93 C 137.75,146.86 137.72,146.8 137.68,146.8 C 137.64,146.8 137.6,147.02 137.58,147.28 C 137.56,147.54 137.53,147.74 137.5,147.72 C 137.48,147.7 137.39,147.73 137.32,147.79 C 137.2,147.87 137.19,147.87 137.25,147.79 C 137.29,147.73 137.29,147.54 137.26,147.36 C 137.24,147.25 137.22,147.14 137.2,147.03 C 137.18,147.17 137.17,147.31 137.16,147.46 C 137.14,147.69 137.13,147.91 137.14,147.93 C 137.14,147.96 137.12,147.98 137.08,147.98 C 137.04,147.98 137.01,148.06 137.02,148.16 C 137.05,148.51 136.85,150.24 136.76,150.51 C 136.71,150.66 136.63,151.08 136.57,151.44 C 136.52,151.8 136.41,152.22 136.35,152.37 C 136.16,152.77 136.09,153.03 135.95,153.78 C 135.7,155.09 135.61,155.66 135.59,156.16 C 135.57,156.62 135.59,156.69 135.79,156.97 C 135.91,157.14 136.03,157.28 136.07,157.28 C 136.1,157.28 136.11,157.31 136.09,157.34 C 136.06,157.38 136.09,157.39 136.15,157.37 C 136.21,157.35 136.28,157.37 136.3,157.4 C 136.39,157.53 137.35,157.49 137.68,157.34 z M 153.67,153.95 C 154.28,153.85 154.7,153.54 154.87,153.07 C 154.92,152.94 155.02,152.78 155.1,152.72 C 155.18,152.66 155.25,152.48 155.29,152.27 C 155.32,152.04 155.39,151.9 155.48,151.85 C 155.56,151.81 155.62,151.7 155.62,151.61 C 155.62,151.44 155.79,150.96 155.98,150.57 C 156.07,150.4 156.07,150.35 156.0,150.35 C 155.94,150.35 155.94,150.32 156.02,150.27 C 156.14,150.19 156.49,149.53 156.49,149.38 C 156.5,149.34 156.53,149.3 156.56,149.3 C 156.6,149.3 156.69,149.12 156.77,148.9 C 156.88,148.57 157.33,147.9 157.53,147.74 C 157.56,147.72 157.64,147.62 157.72,147.52 C 157.79,147.42 157.89,147.36 157.93,147.38 C 157.97,147.4 157.98,147.38 157.96,147.33 C 157.94,147.28 157.98,147.2 158.05,147.16 C 158.11,147.11 158.17,147.03 158.17,146.99 C 158.17,146.94 158.22,146.87 158.28,146.82 C 158.34,146.77 158.51,146.59 158.67,146.41 C 158.98,146.05 160.07,145.32 160.22,145.37 C 160.27,145.39 160.3,145.38 160.28,145.34 C 160.23,145.27 160.44,145.13 160.52,145.19 C 160.55,145.22 160.53,145.18 160.46,145.11 C 160.35,144.99 160.36,144.98 160.56,144.83 C 160.68,144.75 160.77,144.69 160.77,144.7 C 160.77,144.71 160.82,144.7 160.89,144.68 C 160.98,144.65 160.99,144.62 160.91,144.53 C 160.75,144.31 160.74,144.23 160.84,144.04 C 160.9,143.91 160.91,143.83 160.86,143.82 C 160.82,143.81 160.81,143.77 160.84,143.73 C 160.87,143.7 160.86,143.68 160.82,143.7 C 160.78,143.72 160.67,143.69 160.57,143.63 C 160.42,143.54 160.41,143.51 160.51,143.42 C 160.57,143.36 160.67,143.33 160.77,143.35 C 160.87,143.37 160.86,143.34 160.72,143.28 C 160.56,143.21 160.42,143.2 160.19,143.24 C 160.02,143.27 159.74,143.31 159.57,143.33 C 159.4,143.36 159.15,143.41 159.01,143.45 C 158.87,143.49 158.73,143.51 158.69,143.49 C 158.64,143.47 158.63,143.49 158.64,143.54 C 158.67,143.6 158.04,144.0 157.89,144.01 C 157.87,144.01 157.77,144.07 157.68,144.14 C 157.59,144.21 157.32,144.41 157.08,144.58 C 156.56,144.96 155.22,146.26 154.88,146.71 C 154.63,147.05 154.33,147.53 154.08,148.04 C 153.77,148.65 153.78,148.65 153.75,148.84 C 153.74,148.97 153.59,148.85 153.6,148.71 C 153.6,148.63 153.52,148.43 153.42,148.25 C 153.21,147.89 153.23,147.76 153.48,147.75 C 153.63,147.75 153.64,147.74 153.54,147.68 C 153.46,147.63 153.45,147.61 153.53,147.58 C 153.65,147.54 153.37,147.31 153.2,147.31 C 153.06,147.31 153.07,147.5 153.22,147.64 C 153.32,147.74 153.32,147.76 153.23,147.76 C 153.14,147.76 153.12,147.8 153.15,147.93 C 153.2,148.22 153.08,148.05 152.98,147.7 C 152.93,147.52 152.91,147.39 152.95,147.41 C 152.99,147.43 152.97,147.37 152.91,147.27 C 152.85,147.17 152.8,147.03 152.81,146.96 C 152.81,146.88 152.78,146.82 152.74,146.82 C 152.7,146.82 152.65,146.78 152.63,146.72 C 152.6,146.66 152.62,146.64 152.67,146.67 C 152.79,146.73 152.69,146.26 152.56,146.18 C 152.51,146.15 152.45,146.05 152.42,145.97 C 152.4,145.88 152.32,145.82 152.26,145.82 C 152.2,145.82 152.15,145.83 152.16,145.85 C 152.19,146.16 152.01,146.02 151.96,145.71 C 151.94,145.58 151.91,145.37 151.88,145.23 C 151.86,145.15 151.84,145.07 151.83,144.98 C 151.8,145.05 151.77,145.11 151.74,145.18 C 151.68,145.3 151.67,145.44 151.71,145.57 C 151.74,145.68 151.79,145.85 151.81,145.95 C 151.83,146.01 151.84,146.07 151.85,146.13 C 151.79,146.08 151.73,146.04 151.67,145.99 C 151.41,145.81 151.37,145.88 151.53,146.23 C 151.66,146.52 151.66,146.55 151.54,146.66 C 151.44,146.75 151.4,146.75 151.33,146.69 C 151.21,146.59 151.12,146.2 151.22,146.25 C 151.26,146.27 151.3,146.26 151.3,146.22 C 151.3,146.18 151.25,146.16 151.18,146.18 C 151.12,146.2 151.07,146.19 151.07,146.15 C 151.07,146.11 151.05,146.1 151.03,146.11 C 151.01,146.13 151.04,146.32 151.1,146.54 C 151.16,146.76 151.19,146.98 151.17,147.04 C 151.14,147.1 151.17,147.18 151.26,147.23 C 151.36,147.3 151.38,147.33 151.31,147.37 C 151.21,147.42 151.25,147.57 151.53,148.37 C 151.6,148.55 151.66,148.8 151.68,148.92 C 151.7,149.04 151.72,149.14 151.72,149.14 C 151.73,149.14 151.78,149.53 151.8,149.83 C 151.81,149.88 151.78,149.98 151.75,150.05 C 151.71,150.13 151.73,150.17 151.84,150.2 C 152.01,150.24 152.21,150.85 152.21,151.31 C 152.21,151.46 152.28,151.82 152.37,152.1 C 152.45,152.39 152.53,152.66 152.54,152.7 C 152.55,152.73 152.59,152.82 152.63,152.89 C 152.67,152.97 152.75,153.13 152.79,153.26 C 152.84,153.38 152.99,153.6 153.14,153.74 C 153.38,153.97 153.43,153.99 153.67,153.95 z M 163.62,157.39 C 163.6,157.33 163.53,157.27 163.47,157.25 C 163.36,157.21 163.39,157.3 163.55,157.45 C 163.65,157.55 163.68,157.52 163.62,157.39 z M 165.86,149.9 C 165.95,149.81 166.0,149.72 165.98,149.7 C 165.93,149.66 165.71,149.89 165.7,149.99 C 165.7,150.03 165.77,149.99 165.86,149.9 z M 165.01,150.85 C 165.08,150.78 165.14,150.7 165.14,150.67 C 165.14,150.64 165.17,150.62 165.2,150.64 C 165.23,150.66 165.26,150.58 165.28,150.47 C 165.29,150.36 165.34,150.24 165.39,150.19 C 165.43,150.15 165.45,150.09 165.42,150.07 C 165.4,150.04 165.41,150.03 165.46,150.03 C 165.5,150.03 165.54,149.96 165.54,149.88 C 165.55,149.8 165.58,149.52 165.61,149.27 C 165.71,148.35 165.65,147.55 165.43,146.92 C 165.39,146.78 165.28,146.36 165.2,145.99 C 165.06,145.35 165.06,145.13 165.22,145.21 C 165.31,145.26 165.49,145.68 165.48,145.83 C 165.46,146.17 165.73,146.37 166.42,146.5 C 166.63,146.54 166.7,146.47 166.78,146.12 C 166.8,146.01 166.9,145.74 166.99,145.52 C 167.09,145.3 167.18,145.07 167.2,144.99 C 167.26,144.76 167.53,144.29 167.68,144.17 C 167.92,143.97 168.12,143.97 168.19,144.17 C 168.23,144.27 168.25,144.42 168.25,144.52 C 168.24,144.62 168.27,144.68 168.3,144.66 C 168.44,144.59 168.18,146.12 167.9,146.82 C 167.82,147.02 167.71,147.19 167.66,147.19 C 167.56,147.2 167.39,147.39 167.38,147.52 C 167.38,147.56 167.42,147.58 167.46,147.55 C 167.51,147.53 167.41,147.67 167.24,147.86 C 167.07,148.06 166.85,148.3 166.76,148.41 C 166.66,148.52 166.54,148.65 166.49,148.69 C 166.41,148.76 166.41,148.82 166.45,148.91 C 166.49,148.98 166.49,149.03 166.46,149.02 C 166.42,149.01 166.22,149.13 166.02,149.28 C 165.81,149.44 165.69,149.56 165.75,149.56 C 165.81,149.56 165.97,149.46 166.12,149.34 C 166.26,149.21 166.41,149.12 166.44,149.14 C 166.47,149.16 166.52,149.14 166.55,149.1 C 166.62,149.01 166.76,149.02 166.69,149.12 C 166.66,149.16 166.82,149.04 167.04,148.85 C 167.44,148.49 167.84,147.96 167.93,147.64 C 167.96,147.55 168.04,147.43 168.1,147.37 C 168.28,147.22 168.68,146.58 168.72,146.37 C 168.74,146.26 168.79,146.1 168.83,146.01 C 168.88,145.92 168.92,145.37 168.91,144.76 C 168.88,143.6 168.84,143.51 168.78,143.55 C 168.7,143.6 168.54,143.26 168.59,143.18 C 168.63,143.12 168.61,143.12 168.54,143.18 C 168.45,143.25 168.4,143.24 168.26,143.11 C 168.1,142.96 168.09,142.96 167.73,143.06 C 167.44,143.14 167.29,143.24 167.01,143.51 C 166.67,143.84 166.29,144.46 166.28,144.74 C 166.28,144.81 166.24,144.83 166.16,144.81 C 166.1,144.79 166.07,144.76 166.08,144.74 C 166.13,144.7 165.73,144.33 165.64,144.33 C 165.6,144.33 165.53,144.29 165.5,144.23 C 165.42,144.11 165.32,144.08 164.81,144.04 C 164.53,144.01 164.42,144.04 164.21,144.16 C 163.95,144.31 163.95,144.32 163.9,144.83 C 163.86,145.3 163.88,145.43 164.19,146.42 C 164.49,147.37 164.6,147.87 164.66,148.45 C 164.69,148.74 164.6,150.12 164.54,150.26 C 164.5,150.35 164.52,150.43 164.59,150.49 C 164.71,150.57 164.74,150.72 164.62,150.65 C 164.59,150.63 164.53,150.65 164.5,150.69 C 164.46,150.74 164.47,150.75 164.53,150.72 C 164.58,150.7 164.62,150.71 164.61,150.74 C 164.61,150.78 164.69,150.79 164.8,150.78 C 164.95,150.75 164.97,150.77 164.93,150.86 C 164.89,150.97 164.9,150.96 165.01,150.85 z M 151.71,144.81 C 151.75,144.79 151.76,144.75 151.74,144.72 C 151.71,144.69 151.66,144.68 151.62,144.7 C 151.58,144.72 151.56,144.76 151.59,144.79 C 151.61,144.82 151.67,144.82 151.71,144.81 z M 161.45,151.87 C 161.61,151.79 161.53,151.74 161.29,151.79 C 161.18,151.8 161.11,151.85 161.13,151.88 C 161.18,151.95 161.31,151.95 161.45,151.87 z M 160.65,152.19 C 160.85,152.17 160.9,152.14 160.92,151.99 C 160.94,151.89 160.93,151.8 160.91,151.8 C 160.82,151.8 160.42,152.09 160.41,152.15 C 160.41,152.18 160.52,152.2 160.65,152.19 z M 151.45,144.95 C 151.51,144.95 151.37,144.58 151.24,144.42 C 151.12,144.26 151.1,144.25 151.09,144.35 C 151.09,144.41 151.14,144.55 151.2,144.65 C 151.26,144.76 151.28,144.84 151.25,144.84 C 151.22,144.84 151.25,144.87 151.31,144.9 C 151.38,144.93 151.44,144.95 151.45,144.95 z M 143.77,144.54 C 143.98,144.5 144.07,144.41 143.98,144.33 C 143.86,144.24 143.59,144.33 143.6,144.46 C 143.6,144.56 143.64,144.57 143.77,144.54 z M 137.51,146.54 C 137.55,146.54 137.58,146.5 137.57,146.44 C 137.57,146.39 137.53,146.34 137.49,146.34 C 137.45,146.34 137.42,146.39 137.42,146.44 C 137.43,146.5 137.46,146.54 137.51,146.54 z M 149.39,166.14 C 149.43,166.14 149.46,166.1 149.46,166.07 C 149.46,166.03 149.43,166.02 149.39,166.04 C 149.35,166.06 149.32,166.1 149.32,166.11 C 149.32,166.13 149.35,166.14 149.39,166.14 z M 151.21,145.24 C 151.2,145.09 150.94,144.98 150.88,145.09 C 150.85,145.14 150.85,145.22 150.88,145.26 C 150.94,145.39 151.22,145.37 151.21,145.24 z M 143.88,161.46 C 143.96,161.36 144.01,161.35 144.11,161.41 C 144.21,161.46 144.26,161.44 144.37,161.32 C 144.48,161.19 144.53,161.18 144.57,161.24 C 144.68,161.39 144.74,161.25 144.66,161.05 C 144.53,160.75 144.47,160.01 144.48,158.78 C 144.49,157.51 144.52,157.59 144.06,157.51 C 144.0,157.49 143.94,157.48 143.93,157.47 C 143.9,157.45 143.84,157.44 143.47,157.38 C 143.3,157.35 143.04,157.29 142.9,157.24 C 142.67,157.15 142.66,157.15 142.66,157.28 C 142.66,157.37 142.61,157.41 142.47,157.41 C 142.32,157.41 142.29,157.38 142.33,157.29 C 142.36,157.18 142.34,157.17 142.15,157.19 C 142.03,157.2 141.91,157.18 141.89,157.14 C 141.84,157.08 141.94,157.05 142.13,157.07 C 142.18,157.08 142.22,157.06 142.22,157.02 C 142.22,156.92 142.07,156.9 141.51,156.92 C 141.05,156.93 140.94,156.97 140.5,157.2 C 140.24,157.35 140.01,157.45 140.01,157.43 C 140.01,157.41 139.96,157.43 139.89,157.49 C 139.82,157.55 139.68,157.61 139.59,157.64 C 139.49,157.66 139.43,157.7 139.46,157.72 C 139.48,157.74 139.4,157.92 139.29,158.13 C 139.11,158.45 139.08,158.56 139.09,159.07 C 139.1,159.26 139.1,159.45 139.1,159.64 C 139.22,159.77 139.33,159.9 139.45,160.03 C 139.63,160.25 139.77,160.45 139.74,160.48 C 139.71,160.51 139.72,160.51 139.77,160.49 C 139.81,160.46 140.01,160.49 140.2,160.55 C 140.67,160.69 141.55,160.64 142.0,160.45 C 142.59,160.19 142.66,160.15 142.66,160.07 C 142.66,160.03 142.71,159.98 142.77,159.96 C 142.85,159.93 142.89,159.99 142.92,160.16 C 142.98,160.55 143.1,160.9 143.16,160.9 C 143.19,160.9 143.34,161.06 143.5,161.24 C 143.76,161.56 143.79,161.58 143.88,161.46 z M 150.1,156.72 C 150.12,156.68 149.91,156.39 149.63,156.09 C 149.35,155.78 149.13,155.51 149.12,155.48 C 149.12,155.45 148.99,155.24 148.83,155.01 C 148.13,154.02 147.97,153.43 148.34,153.14 C 148.59,152.95 148.69,152.95 148.96,153.16 C 149.18,153.33 149.44,153.82 149.54,154.28 C 149.56,154.37 149.58,154.45 149.6,154.54 C 149.79,154.55 149.97,154.55 150.16,154.56 C 150.34,154.57 150.53,154.57 150.71,154.58 C 150.74,154.49 150.78,154.39 150.81,154.3 C 151.04,153.59 151.47,152.93 151.71,152.93 C 151.73,152.93 151.79,153.07 151.85,153.24 C 151.9,153.41 151.98,153.57 152.02,153.6 C 152.11,153.65 151.93,154.39 151.84,154.34 C 151.76,154.3 151.75,154.31 151.73,154.65 C 151.72,154.78 151.6,155.1 151.45,155.36 C 151.31,155.61 151.22,155.83 151.25,155.83 C 151.34,155.83 151.77,155.26 151.77,155.14 C 151.77,155.09 151.8,155.03 151.83,155.01 C 151.87,154.99 151.93,154.87 151.95,154.75 C 151.98,154.64 152.1,154.29 152.22,153.98 C 152.53,153.12 152.39,152.74 151.74,152.72 C 150.99,152.69 150.74,152.78 150.45,153.17 C 150.38,153.27 150.3,153.37 150.23,153.46 C 150.16,153.37 150.1,153.28 150.03,153.19 C 149.76,152.82 149.48,152.7 148.89,152.71 C 148.32,152.71 147.95,152.85 147.77,153.12 C 147.6,153.38 147.62,153.7 147.84,154.26 C 148.27,155.33 148.89,156.2 149.49,156.59 C 149.82,156.81 150.04,156.85 150.1,156.72 z M 137.36,145.56 C 137.41,145.56 137.44,145.51 137.43,145.46 C 137.43,145.4 137.39,145.37 137.35,145.39 C 137.31,145.42 137.28,145.46 137.28,145.5 C 137.29,145.53 137.32,145.56 137.36,145.56 z M 144.39,144.96 C 144.43,144.96 144.46,144.93 144.46,144.9 C 144.46,144.87 144.43,144.84 144.38,144.84 C 144.34,144.84 144.31,144.86 144.31,144.89 C 144.31,144.93 144.35,144.95 144.39,144.96 z M 151.38,160.62 C 151.39,160.52 151.37,160.48 151.33,160.51 C 151.29,160.54 151.27,160.62 151.27,160.69 C 151.28,160.76 151.26,160.81 151.23,160.8 C 151.2,160.78 151.19,160.87 151.2,160.99 C 151.23,161.4 151.32,161.21 151.38,160.62 z M 150.0,139.67 C 151.17,138.04 152.79,136.79 154.58,135.88 C 156.38,134.97 158.36,134.4 160.35,134.46 C 162.33,134.52 164.31,135.21 165.93,136.4 C 167.54,137.59 168.79,139.26 169.47,141.13 C 170.15,143.0 170.25,145.07 169.98,147.06 C 169.72,149.05 169.09,150.97 168.18,152.75 C 167.27,154.52 166.07,156.15 164.72,157.63 C 163.37,159.11 161.87,160.45 160.29,161.67 C 158.7,162.88 157.02,163.98 155.3,165.0 C 153.59,166.03 151.82,166.98 150.0,167.8 C 148.18,166.98 146.41,166.03 144.7,165.0 C 142.98,163.98 141.3,162.88 139.71,161.67 C 138.13,160.45 136.63,159.11 135.28,157.63 C 133.93,156.15 132.73,154.52 131.82,152.75 C 130.91,150.97 130.28,149.05 130.02,147.06 C 129.75,145.07 129.85,143.0 130.53,141.13 C 131.21,139.26 132.46,137.59 134.07,136.4 C 135.69,135.21 137.67,134.52 139.65,134.46 C 141.64,134.4 143.62,134.97 145.42,135.88 C 147.21,136.79 148.83,138.04 150.0,139.67 z M 148.09,138.93 C 148.05,138.87 148.04,138.81 148.07,138.79 C 148.09,138.78 148.14,138.83 148.17,138.91 C 148.23,139.07 148.18,139.09 148.09,138.93 z"
		 />

		<!-- Prism Reference -->
		<cam mingh:cam=" --verb EditSelectAll --verb ZoomSelection --verb FileSave" /> 
	 </g>

</svg>
