<svg
   xmlns:xlink="http://www.w3.org/1999/xlink"
   xmlns:svg="http://www.w3.org/2000/svg"
   xmlns="http://www.w3.org/2000/svg"
   xmlns:mingh="http://www.minghworld.com"
   width="300px"
   height="300px" >
	
	 <g>
		
		<!-- Paths -->
		<path transform="matrix(-1 0 0 1 300 0)" style="fill:#ff0;stroke:none;"
		 d="M 147.47,128.31 C 145.67,128.47 144.18,129.8 143.81,131.56 C 143.45,133.33 144.29,135.11 145.88,135.97 C 146.03,136.05 145.98,136.29 145.81,136.31 C 145.45,136.35 145.08,136.4 144.72,136.47 C 144.23,136.57 143.76,136.71 143.31,136.94 C 142.89,137.16 142.49,137.46 142.16,137.81 C 141.65,138.34 141.26,138.97 140.88,139.59 C 140.54,140.13 140.22,140.69 139.84,141.19 C 139.34,141.86 138.78,142.46 138.44,143.25 C 138.25,143.67 138.14,144.16 138.22,144.59 C 138.3,145.06 138.62,145.46 139.03,145.75 C 139.34,145.97 139.69,146.12 140.03,146.09 C 140.41,146.07 140.78,145.84 141.13,145.63 C 141.7,145.27 142.23,144.95 142.81,144.69 C 143.62,144.32 144.49,144.06 145.38,143.88 C 146.66,143.6 147.98,143.45 149.28,143.41 C 150.44,143.37 151.6,143.4 152.75,143.47 C 153.2,143.49 153.65,143.52 154.09,143.56 C 154.25,143.58 154.31,143.78 154.19,143.88 C 153.08,144.75 151.99,145.68 150.94,146.63 C 149.04,148.35 147.25,150.19 145.56,152.13 C 143.65,154.32 141.85,156.64 140.38,159.13 C 139.3,160.93 138.4,162.82 137.59,164.81 C 137.19,165.81 136.81,166.83 136.81,167.88 C 136.81,168.6 137.0,169.33 137.34,170.0 C 137.61,170.51 137.99,170.99 138.47,171.28 C 138.9,171.54 139.4,171.68 139.91,171.69 C 140.66,171.71 141.4,171.49 142.09,171.22 C 143.31,170.74 144.41,170.05 145.5,169.34 C 146.15,168.92 146.79,168.5 147.41,168.03 C 147.62,167.87 147.84,167.69 148.03,167.5 C 148.1,167.43 148.17,167.37 148.22,167.28 C 148.25,167.23 148.29,167.18 148.28,167.13 C 148.28,167.06 148.21,166.97 148.16,166.91 C 148.04,166.77 147.95,166.66 147.84,166.53 C 147.68,166.33 147.52,166.11 147.34,165.91 C 147.27,165.82 147.17,165.75 147.06,165.69 C 147.0,165.65 146.93,165.61 146.88,165.59 C 146.81,165.58 146.78,165.59 146.72,165.59 C 146.61,165.61 146.44,165.66 146.31,165.72 C 146.18,165.78 146.09,165.85 145.97,165.91 L 145.94,165.91 C 145.8,165.97 145.67,165.83 145.72,165.69 C 146.0,164.88 146.38,164.04 146.78,163.22 C 147.69,161.39 148.61,159.65 149.66,157.97 C 150.9,155.97 152.34,154.07 153.84,152.22 C 155.11,150.67 156.43,149.16 157.81,147.78 C 158.69,146.9 159.59,146.06 160.59,145.22 C 161.24,144.68 161.92,144.13 162.41,143.47 C 162.78,142.96 163.03,142.38 163.13,141.78 C 163.26,140.94 163.08,140.08 162.84,139.22 C 162.61,138.39 162.34,137.58 161.97,136.66 C 161.91,136.51 161.82,136.36 161.78,136.28 C 161.75,136.23 161.74,136.2 161.69,136.19 C 161.58,136.16 161.36,136.15 161.16,136.13 C 160.61,136.07 160.14,136.04 159.66,136.0 C 158.56,135.92 157.45,135.84 156.34,135.81 C 154.8,135.77 153.25,135.78 151.72,135.84 C 151.29,135.86 150.87,135.88 150.44,135.91 C 150.26,135.92 150.18,135.7 150.31,135.59 C 151.73,134.48 152.26,132.55 151.59,130.88 C 150.93,129.2 149.26,128.16 147.47,128.31 z M 147.81,130.44 C 148.89,130.44 149.75,131.3 149.75,132.38 C 149.75,133.45 148.89,134.34 147.81,134.34 C 146.74,134.34 145.84,133.45 145.84,132.38 C 145.84,131.3 146.74,130.44 147.81,130.44 z" />
		
		
		<text id="txtTwo" transform="matrix(1 0 0 1 150 160)" style="stroke:none;fill:#f00;font-family:'Eras Medium ITC';font-size:20px;text-anchor:middle"  >

		</text>
		<!-- Prism Reference -->
		<cam mingh:cam=" --verb EditSelectAll --verb SelectionGroup --verb ZoomSelection --verb FileSave"/> 
	 </g>

</svg>