<svg
   xmlns:xlink="http://www.w3.org/1999/xlink"
   xmlns:svg="http://www.w3.org/2000/svg"
   xmlns="http://www.w3.org/2000/svg"
   xmlns:mingh="http://www.minghworld.com"
   width="300px"
   height="300px" >
	
	 <g>
		<!-- Paths -->
		<path style="fill:none;stroke:#000;stroke-width:0.25px;"
			d="M 147.19,128.91 C 146.65,128.91 146.12,129.01 145.63,129.22 C 145.13,129.42 144.69,129.75 144.31,130.13 C 143.94,130.5 143.61,130.94 143.41,131.44 C 143.2,131.93 143.13,132.47 143.13,133.0 C 143.13,133.37 143.15,133.74 143.25,134.09 C 143.28,134.22 143.19,134.33 143.06,134.31 C 142.99,134.3 142.94,134.3 142.88,134.31 C 142.72,134.33 142.55,134.39 142.41,134.47 C 142.12,134.62 141.88,134.81 141.63,135.0 C 140.84,135.57 140.03,136.11 139.25,136.69 C 138.22,137.45 137.23,138.29 136.28,139.16 C 135.5,139.87 134.74,140.61 134.0,141.34 C 133.74,141.6 133.47,141.84 133.22,142.13 C 133.1,142.26 132.99,142.43 132.94,142.59 C 132.89,142.73 132.9,142.88 132.91,143.03 C 132.92,143.35 132.94,143.65 132.97,143.97 C 132.99,144.25 133.0,144.56 133.03,144.84 C 133.06,145.15 133.13,145.46 133.13,145.78 C 133.12,145.95 133.08,146.12 133.16,146.28 C 133.19,146.36 133.26,146.44 133.34,146.47 C 133.45,146.51 133.58,146.49 133.69,146.44 C 133.85,146.36 133.96,146.23 134.09,146.13 C 134.42,145.86 134.78,145.64 135.13,145.41 C 135.79,144.95 136.43,144.51 137.09,144.06 C 137.17,144.01 137.24,143.96 137.31,143.91 C 137.46,143.8 137.67,143.96 137.59,144.13 C 136.98,145.4 136.38,146.67 135.81,147.97 C 134.89,150.07 134.02,152.2 133.28,154.38 C 132.61,156.36 132.02,158.39 131.59,160.44 C 131.4,161.38 131.25,162.33 131.13,163.28 C 131.0,164.25 130.92,165.22 131.0,166.19 C 131.02,166.48 131.08,166.77 131.16,167.06 C 131.31,167.67 131.59,168.25 132.0,168.72 C 132.42,169.21 132.96,169.6 133.5,169.94 C 134.14,170.34 134.81,170.69 135.56,170.91 C 136.23,171.1 136.94,171.19 137.53,170.88 C 137.8,170.73 138.05,170.49 138.19,170.22 C 138.34,169.92 138.39,169.59 138.38,169.25 C 138.35,168.88 138.26,168.51 138.16,168.16 C 138.03,167.75 137.89,167.35 137.84,166.94 C 137.8,166.55 137.85,166.15 137.91,165.75 C 137.93,165.57 137.94,165.4 137.97,165.22 C 137.98,165.15 138.01,165.1 138.06,165.06 C 138.12,165.02 138.18,164.99 138.25,165.0 C 138.32,165.01 138.39,165.04 138.44,165.09 C 138.48,165.14 138.5,165.21 138.5,165.28 C 138.47,165.8 138.51,166.3 138.69,166.78 C 139.03,167.71 139.83,168.49 140.72,169.09 C 141.95,169.93 143.39,170.42 144.84,170.59 C 146.61,170.8 148.37,170.55 150.03,170.0 C 151.93,169.38 153.7,168.34 155.03,166.94 C 155.94,165.98 156.66,164.85 157.13,163.63 C 157.57,162.45 157.78,161.2 157.78,159.94 C 157.78,158.47 157.47,156.99 156.91,155.63 C 156.68,155.06 156.4,154.52 156.13,154.0 C 156.0,153.76 155.88,153.53 155.75,153.28 C 155.66,153.11 155.55,152.93 155.56,152.75 C 155.57,152.57 155.66,152.4 155.78,152.25 C 155.99,151.97 156.24,151.73 156.47,151.5 C 156.83,151.15 157.18,150.8 157.53,150.44 C 158.29,149.66 159.09,148.93 159.84,148.22 C 160.57,147.53 161.26,146.84 162.19,145.91 C 162.59,145.5 163.04,145.07 163.22,144.88 C 163.25,144.84 163.28,144.81 163.31,144.78 C 163.43,144.67 163.63,144.52 163.84,144.34 C 164.12,144.12 164.4,143.89 164.63,143.59 C 164.81,143.35 164.95,143.08 165.03,142.78 C 165.09,142.55 165.13,142.3 165.09,142.06 C 165.08,142.0 165.05,141.94 165.03,141.88 C 165.02,141.84 165.05,141.79 165.09,141.78 C 165.24,141.75 165.37,141.72 165.5,141.66 C 165.8,141.52 166.08,141.27 166.31,141.03 C 166.63,140.71 166.91,140.37 167.16,140.0 C 167.45,139.56 167.71,139.09 167.97,138.63 C 168.22,138.18 168.48,137.73 168.69,137.25 C 168.87,136.83 169.01,136.4 169.0,135.94 C 168.99,135.52 168.86,135.1 168.59,134.78 C 168.18,134.29 167.5,134.07 166.84,133.94 C 165.54,133.68 164.29,133.72 163.03,133.75 C 161.28,133.79 159.51,133.84 157.72,134.0 C 155.34,134.21 152.94,134.61 150.78,135.56 C 150.62,135.63 150.46,135.43 150.56,135.28 C 150.72,135.05 150.83,134.82 150.94,134.56 C 151.14,134.07 151.25,133.53 151.25,133.0 C 151.25,132.47 151.14,131.93 150.94,131.44 C 150.73,130.94 150.44,130.5 150.06,130.13 C 149.69,129.75 149.24,129.42 148.75,129.22 C 148.26,129.01 147.72,128.91 147.19,128.91 z M 147.19,131.03 C 148.22,131.02 149.2,131.96 149.16,133.0 C 149.19,133.72 148.75,134.42 148.09,134.72 C 147.39,135.08 146.46,134.98 145.88,134.44 C 145.39,134.03 145.19,133.37 145.28,132.75 C 145.36,131.81 146.26,131.03 147.19,131.03 z M 144.91,136.44 C 144.93,136.42 144.97,136.42 145.0,136.44 C 145.2,136.57 145.4,136.66 145.63,136.75 C 146.12,136.95 146.65,137.06 147.19,137.06 C 147.51,137.06 147.84,137.01 148.16,136.94 C 148.23,136.92 148.28,137.02 148.22,137.06 C 147.63,137.53 147.09,138.07 146.63,138.66 C 146.33,139.03 146.04,139.43 145.81,139.84 C 145.78,139.91 145.69,139.89 145.69,139.81 C 145.71,139.11 145.62,138.38 145.41,137.72 C 145.27,137.3 145.08,136.92 144.88,136.53 C 144.86,136.5 144.88,136.46 144.91,136.44 z M 159.03,141.31 C 159.71,141.32 160.42,141.34 161.09,141.44 C 161.09,141.74 160.57,141.93 160.38,142.19 C 158.29,143.96 156.18,145.71 154.16,147.56 C 153.65,148.01 153.15,148.47 152.59,148.84 C 152.27,148.48 152.12,148.02 151.88,147.59 C 151.4,146.65 150.87,145.59 151.09,144.5 C 151.35,143.33 152.38,142.51 153.47,142.13 C 155.25,141.47 157.15,141.34 159.03,141.31 z M 144.56,144.53 C 144.59,144.54 144.59,144.59 144.59,144.63 C 144.59,145.33 144.67,146.03 144.78,146.72 C 145.04,148.29 145.59,149.8 146.47,151.13 C 146.69,151.45 146.92,151.77 147.16,152.06 C 147.33,152.28 147.5,152.49 147.69,152.75 C 147.75,152.83 147.82,152.89 147.81,152.97 C 147.81,153.06 147.71,153.14 147.63,153.22 C 147.2,153.63 146.87,153.96 146.5,154.31 C 145.84,154.95 145.13,155.63 144.44,156.31 C 143.22,157.51 142.05,158.71 141.0,160.0 C 140.21,160.97 139.47,161.99 139.0,163.16 C 138.97,163.23 138.92,163.31 138.84,163.34 C 138.77,163.38 138.67,163.37 138.59,163.34 C 138.52,163.32 138.45,163.29 138.41,163.22 C 138.36,163.15 138.36,163.05 138.38,162.97 C 138.38,162.96 138.37,162.94 138.38,162.94 C 138.76,161.11 139.3,159.32 139.88,157.53 C 140.77,154.73 141.7,151.96 142.72,149.22 C 143.29,147.68 143.91,146.15 144.47,144.59 C 144.48,144.56 144.53,144.53 144.56,144.53 z M 150.72,157.0 C 151.05,157.11 151.03,157.7 151.19,158.0 C 151.48,159.02 151.67,160.1 151.44,161.16 C 151.24,162.31 150.73,163.46 149.84,164.25 C 148.98,165.09 147.81,165.56 146.63,165.72 C 145.82,165.85 144.91,165.95 144.22,165.41 C 143.75,165.14 143.95,164.61 144.22,164.28 C 144.44,163.88 144.76,163.53 145.03,163.16 C 145.39,162.74 145.7,162.27 146.09,161.88 C 146.69,161.2 147.33,160.57 147.91,159.88 C 148.73,159.08 149.53,158.25 150.31,157.41 C 150.46,157.27 150.58,157.14 150.72,157.0 z"
		 />

		<!-- Prism Reference -->
		<cam mingh:cam=" --verb EditSelectAll --verb ZoomSelection --verb FileSave" /> 
	 </g>

</svg>
