<svg
   xmlns:xlink="http://www.w3.org/1999/xlink"
   xmlns:svg="http://www.w3.org/2000/svg"
   xmlns="http://www.w3.org/2000/svg"
   xmlns:mingh="http://www.minghworld.com"
   width="300px"
   height="300px" >
	
	 <g>
		<!-- Paths -->
		<path style="fill:none;stroke:#000;stroke-width:0.25px;"
			d="M 150.16,128.31 C 149.62,128.31 149.09,128.42 148.59,128.63 C 148.1,128.83 147.66,129.12 147.28,129.5 C 146.9,129.88 146.61,130.32 146.41,130.81 C 146.2,131.31 146.09,131.84 146.09,132.38 C 146.09,132.91 146.2,133.44 146.41,133.94 C 146.61,134.43 146.9,134.87 147.28,135.25 C 147.66,135.63 148.1,135.95 148.59,136.16 C 148.61,136.16 148.64,136.15 148.66,136.16 C 148.8,136.21 148.79,136.4 148.66,136.47 C 147.86,136.9 147.08,137.37 146.31,137.84 C 145.75,138.19 145.21,138.54 144.66,138.91 C 144.22,139.19 143.64,139.13 143.28,138.75 C 143.25,138.72 143.24,138.69 143.22,138.66 C 143.2,138.63 143.2,138.62 143.19,138.59 C 143.18,138.57 143.16,138.55 143.16,138.53 C 143.15,138.5 143.13,138.44 143.13,138.41 C 143.11,138.33 143.1,138.27 143.09,138.19 C 143.09,138.14 143.07,138.08 143.06,138.03 C 143.05,137.95 143.05,137.86 143.03,137.78 C 143.0,137.61 142.96,137.44 142.91,137.28 C 142.85,137.12 142.79,136.97 142.72,136.81 C 142.65,136.66 142.58,136.49 142.5,136.34 C 142.41,136.18 142.32,136.03 142.22,135.88 C 142.04,135.59 141.84,135.32 141.63,135.06 C 141.41,134.81 141.19,134.56 140.94,134.34 C 140.69,134.12 140.43,133.94 140.16,133.75 C 139.86,133.55 139.54,133.35 139.22,133.19 C 139.07,133.11 138.93,133.04 138.78,132.97 C 138.63,132.9 138.47,132.84 138.31,132.78 C 138.14,132.71 137.96,132.63 137.78,132.56 C 137.64,132.5 137.48,132.44 137.34,132.38 C 137.22,132.32 137.09,132.26 136.97,132.19 C 136.92,132.16 136.89,132.13 136.84,132.09 C 136.81,132.07 136.75,132.06 136.72,132.03 C 136.68,132.0 136.66,131.97 136.63,131.94 C 136.6,131.91 136.59,131.88 136.56,131.84 C 136.53,131.8 136.5,131.76 136.47,131.72 C 136.43,131.66 136.38,131.59 136.34,131.53 C 136.31,131.47 136.29,131.41 136.25,131.34 C 136.2,131.27 136.15,131.19 136.09,131.13 C 136.04,131.06 135.97,131.02 135.91,130.97 C 135.86,130.93 135.8,130.87 135.75,130.84 C 135.71,130.82 135.67,130.8 135.63,130.78 C 135.58,130.76 135.52,130.75 135.47,130.75 C 135.41,130.75 135.37,130.76 135.31,130.78 C 135.25,130.8 135.2,130.84 135.16,130.88 C 135.12,130.91 135.09,130.96 135.06,131.0 C 135.04,131.04 135.02,131.08 135.0,131.13 C 134.98,131.17 134.95,131.21 134.94,131.25 C 134.92,131.33 134.91,131.39 134.91,131.47 C 134.9,131.55 134.91,131.63 134.91,131.72 C 134.91,131.83 134.89,131.95 134.91,132.06 C 134.92,132.17 134.95,132.27 134.97,132.38 C 135.01,132.6 135.05,132.81 135.09,133.03 C 135.12,133.15 135.13,133.28 135.16,133.41 C 135.18,133.51 135.23,133.62 135.25,133.72 C 135.29,133.88 135.33,134.03 135.38,134.19 C 135.43,134.39 135.47,134.62 135.53,134.81 C 135.6,135.01 135.67,135.18 135.75,135.38 C 135.83,135.57 135.91,135.78 136.0,135.97 C 136.09,136.16 136.18,136.35 136.28,136.53 C 136.38,136.71 136.51,136.89 136.63,137.06 C 136.86,137.41 137.12,137.75 137.41,138.06 C 137.55,138.22 137.68,138.36 137.84,138.5 C 138.01,138.64 138.16,138.79 138.34,138.91 C 138.46,138.98 138.6,139.03 138.72,139.09 C 138.81,139.15 138.9,139.21 139.0,139.25 C 139.15,139.32 139.31,139.35 139.47,139.41 C 139.67,139.47 139.89,139.54 140.09,139.59 C 140.22,139.63 140.32,139.65 140.44,139.69 C 140.5,139.7 140.56,139.73 140.63,139.75 C 141.45,139.99 141.67,141.05 141.0,141.59 C 140.48,142.02 140.0,142.46 139.5,142.91 C 137.41,144.78 135.49,146.89 134.06,149.28 C 133.14,150.84 132.4,152.5 131.94,154.28 C 131.39,156.36 131.21,158.59 131.78,160.66 C 132.14,161.97 132.83,163.2 133.75,164.22 C 134.34,164.87 134.94,165.53 135.53,166.19 C 135.72,166.4 135.91,166.59 136.13,166.78 C 137.3,167.82 138.79,168.5 140.31,168.81 C 143.26,169.41 146.32,168.64 149.22,167.63 C 151.85,166.71 154.34,165.59 156.66,164.19 C 157.1,163.92 157.54,163.63 157.97,163.34 C 158.04,163.29 158.13,163.34 158.19,163.41 C 158.61,163.92 159.04,164.42 159.47,164.94 C 160.67,166.4 161.87,167.88 163.06,169.28 C 163.6,169.9 164.16,170.5 164.88,171.06 C 165.3,171.4 165.76,171.73 166.28,171.69 C 166.64,171.66 167.03,171.48 167.38,171.25 C 167.68,171.04 167.97,170.8 168.19,170.53 C 168.42,170.24 168.56,169.9 168.56,169.53 C 168.56,169.14 168.4,168.71 168.22,168.34 C 167.95,167.8 167.66,167.41 167.38,167.0 C 166.4,165.58 165.28,164.16 164.19,162.75 C 163.54,161.91 162.92,161.09 162.28,160.25 C 162.22,160.18 162.21,160.06 162.28,160.0 L 162.34,159.97 C 163.89,158.62 165.41,157.15 166.5,155.5 C 166.69,155.22 166.84,154.93 167.0,154.63 C 167.39,153.89 167.7,153.09 167.84,152.22 C 167.99,151.31 167.96,150.34 167.47,149.69 C 167.44,149.65 167.41,149.6 167.38,149.56 L 165.59,147.59 C 165.34,147.32 165.0,147.12 164.59,147.0 C 164.27,146.9 163.88,146.85 163.53,146.84 C 162.81,146.82 162.21,146.95 161.53,147.09 C 161.37,147.13 161.24,146.94 161.34,146.81 C 161.47,146.66 161.61,146.51 161.75,146.38 C 162.04,146.1 162.35,145.85 162.66,145.63 C 163.94,144.65 165.13,143.74 165.91,142.38 C 166.35,141.59 166.65,140.66 166.72,139.75 C 166.78,138.92 166.64,138.1 166.22,137.38 C 166.08,137.14 165.91,136.93 165.72,136.72 C 165.12,136.07 164.53,135.4 163.94,134.75 C 163.81,134.61 163.68,134.5 163.53,134.38 C 162.86,133.81 162.05,133.47 161.22,133.28 C 159.83,132.97 158.35,133.05 156.97,133.28 C 156.02,133.44 155.11,133.67 154.22,133.97 C 154.08,134.02 153.95,133.89 154.0,133.75 C 154.16,133.31 154.25,132.84 154.25,132.38 C 154.25,131.84 154.14,131.31 153.94,130.81 C 153.73,130.32 153.41,129.88 153.03,129.5 C 152.65,129.12 152.21,128.83 151.72,128.63 C 151.23,128.42 150.69,128.31 150.16,128.31 z M 150.16,130.44 C 150.41,130.44 150.67,130.5 150.91,130.59 C 151.14,130.69 151.35,130.82 151.53,131.0 C 151.71,131.18 151.87,131.39 151.97,131.63 C 152.07,131.86 152.13,132.12 152.13,132.38 C 152.13,132.63 152.07,132.89 151.97,133.13 C 151.87,133.36 151.71,133.57 151.53,133.75 C 151.35,133.93 151.14,134.09 150.91,134.19 C 150.67,134.29 150.41,134.31 150.16,134.31 C 149.9,134.31 149.64,134.29 149.41,134.19 C 149.17,134.09 148.96,133.93 148.78,133.75 C 148.6,133.57 148.47,133.36 148.38,133.13 C 148.28,132.89 148.22,132.63 148.22,132.38 C 148.22,132.12 148.28,131.86 148.38,131.63 C 148.47,131.39 148.6,131.18 148.78,131.0 C 148.96,130.82 149.17,130.69 149.41,130.59 C 149.64,130.5 149.9,130.44 150.16,130.44 z M 162.88,151.09 C 162.99,151.09 163.06,151.17 163.03,151.28 C 162.62,153.14 160.72,155.13 159.41,156.25 C 159.33,156.31 159.22,156.33 159.16,156.25 C 158.5,155.42 157.83,154.6 157.16,153.78 C 157.09,153.7 157.1,153.59 157.19,153.53 C 158.63,152.48 160.95,151.16 162.88,151.09 z M 153.38,157.56 C 153.43,157.56 153.46,157.58 153.5,157.63 C 153.84,158.06 154.19,158.48 154.53,158.91 C 154.61,159.0 154.55,159.15 154.44,159.19 C 153.86,159.38 153.3,159.51 152.69,159.53 C 152.57,159.54 152.48,159.43 152.5,159.31 C 152.64,158.69 152.9,158.16 153.22,157.63 C 153.25,157.57 153.32,157.57 153.38,157.56 z"
		 />
		 
		 <path style="fill:#f00;stroke:none;"
			d="M 138.71,137.62 C 138.69,137.51 138.59,137.36 138.5,137.22 C 138.42,137.08 138.35,136.95 138.29,136.82 C 138.22,136.69 138.16,136.55 138.1,136.4 C 138.05,136.26 137.99,136.1 138.02,135.95 C 138.05,135.8 138.16,135.64 138.29,135.64 C 138.42,135.64 138.56,135.8 138.68,135.9 C 138.81,136.01 138.91,136.07 139.07,136.17 C 139.24,136.26 139.46,136.39 139.52,136.36 C 139.57,136.33 139.45,136.13 139.34,135.99 C 139.24,135.85 139.14,135.75 139.04,135.65 C 138.94,135.54 138.85,135.43 138.73,135.31 C 138.61,135.19 138.46,135.08 138.46,134.94 C 138.46,134.81 138.6,134.66 138.77,134.59 C 138.94,134.53 139.13,134.55 139.29,134.59 C 139.46,134.63 139.59,134.68 139.76,134.76 C 139.93,134.84 140.14,134.95 140.21,134.95 C 140.28,134.94 140.22,134.82 140.12,134.72 C 140.02,134.62 139.88,134.53 139.73,134.45 C 139.59,134.37 139.45,134.3 139.3,134.23 C 139.16,134.17 139.01,134.1 138.86,134.04 C 138.7,133.98 138.55,133.93 138.4,133.87 C 138.24,133.81 138.09,133.74 137.94,133.68 C 137.8,133.61 137.65,133.55 137.51,133.47 C 137.36,133.4 137.21,133.33 137.08,133.25 C 136.95,133.18 136.83,133.1 136.66,133.02 C 136.49,132.94 136.27,132.86 136.2,132.93 C 136.12,132.99 136.19,133.21 136.24,133.39 C 136.29,133.56 136.32,133.69 136.35,133.83 C 136.39,133.97 136.43,134.12 136.48,134.27 C 136.53,134.42 136.58,134.56 136.63,134.7 C 136.68,134.84 136.74,134.98 136.8,135.12 C 136.87,135.26 136.93,135.39 137.0,135.53 C 137.07,135.66 137.14,135.8 137.22,135.93 C 137.29,136.06 137.37,136.19 137.45,136.32 C 137.53,136.44 137.61,136.57 137.7,136.7 C 137.79,136.82 137.88,136.95 137.97,137.06 C 138.06,137.18 138.16,137.28 138.26,137.42 C 138.36,137.55 138.48,137.71 138.57,137.76 C 138.66,137.8 138.73,137.73 138.71,137.62 z M 142.53,140.57 C 142.54,140.69 142.54,140.8 142.56,140.91 C 142.62,141.33 142.84,141.77 143.1,142.26 C 143.2,142.45 143.3,142.65 143.48,142.78 C 143.56,142.71 143.63,142.64 143.69,142.57 C 143.82,142.42 143.92,142.26 144.05,142.11 C 144.21,141.91 144.41,141.73 144.62,141.56 C 144.69,141.51 144.76,141.45 144.84,141.4 C 144.67,141.17 144.48,140.94 144.32,140.76 C 144.02,140.4 143.79,140.2 143.4,139.86 C 143.25,140.0 143.09,140.13 142.94,140.25 C 142.8,140.36 142.66,140.47 142.53,140.57 z M 155.34,151.61 C 156.27,150.93 157.23,150.34 158.29,149.87 C 159.13,149.5 160.13,149.16 161.08,149.12 C 161.65,149.1 162.31,149.18 162.74,149.64 C 162.92,149.82 163.01,150.02 163.07,150.26 C 163.1,150.4 163.12,150.53 163.12,150.67 C 163.12,150.69 163.13,150.72 163.11,150.72 C 163.09,150.72 163.07,150.72 163.06,150.72 C 163.02,150.72 162.98,150.72 162.95,150.72 C 162.88,150.72 162.81,150.73 162.73,150.73 C 161.62,150.8 160.42,151.25 159.45,151.73 C 158.93,151.99 158.43,152.27 157.94,152.58 C 157.7,152.73 157.46,152.89 157.23,153.06 C 157.11,153.14 156.99,153.23 156.87,153.31 C 156.82,153.35 156.76,153.4 156.7,153.44 C 156.67,153.46 156.64,153.48 156.61,153.51 C 156.6,153.52 156.59,153.53 156.57,153.54 C 156.56,153.54 156.56,153.55 156.55,153.55 C 156.55,153.56 156.54,153.56 156.54,153.56 C 156.54,153.56 156.52,153.56 156.53,153.57 C 157.15,154.31 157.76,155.06 158.36,155.81 C 158.51,155.99 158.65,156.16 158.8,156.34 C 158.83,156.39 158.87,156.43 158.9,156.48 C 158.92,156.5 158.94,156.52 158.96,156.55 C 158.97,156.56 158.98,156.57 158.99,156.58 C 158.99,156.59 158.99,156.59 159.0,156.6 C 159.01,156.61 158.97,156.63 158.97,156.63 C 158.7,156.85 158.42,157.05 158.14,157.25 C 157.85,157.46 157.55,157.65 157.25,157.84 C 157.1,157.94 156.95,158.03 156.79,158.12 C 156.71,158.16 156.64,158.21 156.56,158.25 C 156.54,158.26 156.52,158.27 156.5,158.28 C 156.49,158.29 156.48,158.29 156.47,158.3 C 156.46,158.3 156.45,158.32 156.44,158.31 C 156.43,158.29 156.41,158.28 156.4,158.26 C 156.18,157.98 155.96,157.7 155.75,157.42 C 154.01,155.2 152.29,152.95 150.59,150.7 C 149.63,149.42 148.67,148.14 147.71,146.85 C 147.24,146.21 146.76,145.56 146.29,144.92 C 146.05,144.6 145.81,144.27 145.58,143.95 C 145.52,143.88 145.47,143.81 145.42,143.73 C 145.41,143.72 145.4,143.71 145.39,143.7 C 145.35,143.67 145.32,143.67 145.28,143.68 C 145.16,143.71 145.02,143.82 144.95,143.9 C 144.89,143.96 144.81,144.06 144.87,144.15 C 144.95,144.28 145.04,144.41 145.13,144.53 C 145.25,144.7 145.36,144.86 145.48,145.03 C 145.71,145.36 145.94,145.69 146.17,146.01 C 147.09,147.33 148.02,148.63 148.96,149.93 C 150.58,152.17 152.23,154.39 153.9,156.58 C 154.32,157.13 154.74,157.68 155.16,158.23 C 155.27,158.36 155.38,158.5 155.48,158.64 C 155.51,158.67 155.53,158.7 155.56,158.74 C 155.58,158.76 155.54,158.76 155.53,158.76 C 155.51,158.77 155.49,158.78 155.47,158.79 C 155.43,158.81 155.39,158.82 155.36,158.84 C 155.28,158.87 155.2,158.91 155.13,158.94 C 155.11,158.94 155.04,158.99 155.02,158.97 C 155.01,158.95 155.0,158.93 154.98,158.92 C 154.82,158.71 154.65,158.5 154.49,158.29 C 154.15,157.86 153.81,157.43 153.47,156.99 C 153.45,156.96 153.42,156.93 153.39,156.89 C 153.38,156.87 153.37,156.86 153.35,156.84 C 153.35,156.83 153.34,156.82 153.33,156.81 C 153.32,156.8 153.32,156.82 153.32,156.83 C 153.27,156.9 153.22,156.98 153.17,157.05 C 153.06,157.23 152.94,157.41 152.83,157.6 C 152.61,157.98 152.42,158.37 152.28,158.79 C 152.22,158.96 152.17,159.12 152.14,159.29 C 152.13,159.33 152.12,159.37 152.12,159.42 C 152.11,159.43 152.11,159.45 152.11,159.47 C 152.1,159.49 152.11,159.52 152.08,159.52 C 151.99,159.51 151.91,159.49 151.82,159.47 C 151.52,159.39 151.27,159.28 151.05,159.06 C 150.58,158.6 150.59,157.94 150.71,157.37 C 150.81,156.91 150.99,156.5 151.21,156.09 C 151.34,155.84 151.48,155.61 151.63,155.38 C 151.65,155.35 151.67,155.32 151.69,155.29 C 151.7,155.27 151.71,155.27 151.7,155.25 C 151.69,155.24 151.69,155.23 151.68,155.23 C 151.66,155.19 151.64,155.16 151.61,155.13 C 151.57,155.07 151.52,155.01 151.47,154.94 C 151.09,154.44 150.72,153.93 150.35,153.43 C 148.72,151.21 147.14,148.95 145.55,146.71 C 145.14,146.13 144.73,145.56 144.28,145.0 C 144.21,144.91 144.13,144.82 144.05,144.73 C 143.98,144.66 143.91,144.6 143.88,144.5 C 143.85,144.38 143.86,144.26 143.86,144.15 C 143.86,144.01 143.85,143.88 143.8,143.75 C 143.68,143.4 143.23,143.41 143.0,143.27 C 142.77,143.12 142.6,142.79 142.47,142.57 C 142.33,142.34 142.2,142.1 142.13,141.84 C 142.05,141.55 142.02,141.25 141.99,140.95 C 141.95,140.64 141.91,140.35 141.77,140.06 C 141.64,139.81 141.48,139.63 141.22,139.51 C 140.98,139.39 140.72,139.33 140.46,139.27 C 139.99,139.15 139.25,138.95 138.81,138.74 C 138.31,138.49 137.84,138.03 137.48,137.62 C 137.1,137.17 136.78,136.69 136.51,136.17 C 136.23,135.65 136.01,135.11 135.83,134.55 C 135.73,134.22 135.64,133.89 135.56,133.55 C 135.49,133.22 135.43,132.88 135.36,132.55 C 135.28,132.18 135.19,131.83 135.26,131.44 C 135.35,130.98 135.58,131.05 135.83,131.38 C 136.05,131.67 136.2,132.01 136.48,132.27 C 136.74,132.52 137.05,132.64 137.36,132.78 C 137.99,133.05 138.64,133.27 139.24,133.6 C 140.43,134.25 141.51,135.22 142.14,136.45 C 142.3,136.76 142.42,137.07 142.5,137.41 C 142.62,137.86 142.59,138.01 142.66,138.47 C 142.78,139.39 143.47,139.54 144.18,139.76 C 144.65,139.9 145.06,140.13 145.46,140.4 C 145.65,140.53 145.91,140.7 145.99,140.95 C 146.07,141.2 145.99,141.46 146.16,141.7 C 146.25,141.83 146.44,141.9 146.59,141.93 C 146.73,141.96 146.88,141.97 147.01,142.06 C 147.12,142.14 147.17,142.25 147.24,142.35 C 147.32,142.47 147.4,142.57 147.49,142.68 C 147.85,143.11 148.23,143.52 148.6,143.94 C 149.35,144.78 150.1,145.62 150.85,146.47 C 152.36,148.17 153.86,149.88 155.34,151.61 z M 143.67,142.27 C 143.65,142.31 143.54,142.2 143.45,142.11 C 143.29,141.94 143.18,141.84 143.12,141.71 C 143.03,141.55 143.01,141.35 142.93,141.08 C 142.87,140.89 142.79,140.68 142.83,140.65 C 142.87,140.62 143.02,140.75 143.13,140.88 C 143.27,141.06 143.33,141.23 143.39,141.4 C 143.48,141.61 143.58,141.81 143.65,142.11 C 143.67,142.17 143.68,142.25 143.67,142.27 z M 152.21,141.9 C 152.93,141.57 153.52,141.07 153.99,140.4 C 154.3,139.95 154.32,139.73 154.08,139.43 C 153.83,139.11 153.77,138.89 153.77,138.33 C 153.77,138.07 153.73,137.75 153.68,137.61 C 153.59,137.36 153.56,137.33 153.15,137.19 C 152.74,137.05 152.69,137.04 152.28,137.12 C 151.75,137.21 151.56,137.32 150.89,137.92 C 150.21,138.53 150.14,138.57 149.45,138.71 C 148.76,138.86 148.47,139.01 148.12,139.41 C 147.82,139.76 147.67,140.03 147.61,140.36 C 147.49,140.99 147.76,141.09 148.82,140.79 C 149.81,140.52 149.92,140.57 150.07,141.36 C 150.11,141.6 150.16,141.84 150.18,141.89 C 150.24,142.04 150.53,142.2 150.79,142.22 C 151.08,142.25 151.77,142.09 152.21,141.9 z M 150.58,143.22 C 150.23,143.15 149.97,142.89 149.8,142.43 C 149.72,142.2 149.58,141.9 149.5,141.76 C 149.45,141.68 149.39,141.59 149.34,141.51 C 149.14,141.54 148.93,141.58 148.73,141.61 C 147.5,141.81 147.04,141.51 147.17,140.56 C 147.28,139.7 147.85,138.87 148.67,138.39 C 148.92,138.24 149.05,138.2 149.52,138.11 C 150.19,137.99 150.29,137.93 150.91,137.36 C 151.16,137.12 151.49,136.87 151.63,136.78 C 152.37,136.36 153.44,136.39 153.91,136.84 C 154.13,137.06 154.17,137.22 154.18,137.91 C 154.19,138.21 154.21,138.54 154.24,138.63 C 154.26,138.73 154.45,138.96 154.67,139.17 C 155.13,139.59 155.17,139.72 154.93,140.23 C 154.61,140.89 153.69,141.88 152.91,142.38 C 151.97,142.98 151.04,143.32 150.58,143.22 z M 151.31,141.1 C 151.46,141.12 151.6,141.11 151.8,141.03 C 151.99,140.95 152.14,140.86 152.28,140.72 C 152.48,140.53 152.49,140.5 152.49,140.31 C 152.49,140.2 152.46,140.08 152.42,140.05 C 152.36,140.0 152.33,140.02 152.11,140.19 C 151.76,140.45 151.38,140.61 151.31,140.5 C 151.18,140.27 151.13,140.25 151.02,140.37 C 150.8,140.62 150.96,141.02 151.31,141.1 z M 151.82,138.51 C 151.99,138.66 152.34,138.59 152.59,138.38 C 152.74,138.24 152.75,138.21 152.72,138.1 C 152.7,138.03 152.62,137.97 152.55,137.96 C 152.38,137.95 152.03,138.11 151.84,138.28 C 151.79,138.32 151.74,138.36 151.69,138.41 C 151.73,138.44 151.77,138.48 151.82,138.51 z M 151.93,141.29 C 151.68,141.42 151.39,141.54 151.16,141.53 C 150.94,141.51 150.79,141.36 150.7,141.14 C 150.6,140.91 150.57,140.61 150.42,140.39 C 150.27,140.17 150.0,140.03 149.71,140.06 C 149.41,140.08 149.07,140.27 148.81,140.33 C 148.55,140.39 148.36,140.31 148.34,140.12 C 148.32,139.93 148.47,139.62 148.73,139.45 C 149.0,139.29 149.36,139.28 149.69,139.25 C 150.02,139.21 150.3,139.15 150.54,139.03 C 150.79,138.91 150.99,138.73 151.19,138.54 C 151.38,138.36 151.57,138.18 151.8,138.02 C 152.03,137.86 152.29,137.73 152.54,137.74 C 152.79,137.75 153.03,137.9 153.1,138.13 C 153.17,138.35 153.09,138.66 153.14,138.93 C 153.2,139.2 153.4,139.44 153.44,139.67 C 153.48,139.9 153.37,140.12 153.21,140.33 C 153.05,140.53 152.84,140.73 152.63,140.88 C 152.41,141.04 152.19,141.17 151.93,141.29 z M 160.44,139.65 C 160.94,139.33 161.33,139.02 161.64,138.7 C 161.93,138.41 162.2,138.01 162.18,137.92 C 162.17,137.89 162.03,137.82 161.87,137.78 C 161.53,137.68 161.41,137.57 161.4,137.38 C 161.4,137.2 161.5,137.04 161.82,136.68 C 162.11,136.35 162.22,136.15 162.15,136.04 C 162.08,135.92 161.71,135.78 161.41,135.76 C 160.89,135.73 160.29,135.87 159.56,136.19 C 158.23,136.77 156.97,137.75 156.53,138.52 C 156.39,138.77 156.27,139.14 156.31,139.21 C 156.32,139.22 156.47,139.22 156.64,139.2 C 157.33,139.13 157.78,139.22 158.02,139.46 C 158.12,139.56 158.15,139.65 158.21,139.94 C 158.28,140.27 158.3,140.31 158.4,140.36 C 158.54,140.43 158.65,140.44 158.82,140.41 C 159.04,140.37 160.09,139.87 160.44,139.65 z M 159.12,141.1 C 158.32,141.32 157.87,141.1 157.75,140.44 C 157.71,140.27 157.68,140.1 157.67,140.06 C 157.64,139.94 157.37,139.9 156.87,139.93 C 156.29,139.96 156.02,139.9 155.87,139.73 C 155.72,139.57 155.68,139.38 155.72,139.07 C 155.84,138.27 156.72,137.31 158.2,136.39 C 158.75,136.05 159.73,135.61 160.25,135.47 C 161.72,135.06 162.72,135.41 162.77,136.37 C 162.78,136.63 162.7,136.78 162.43,136.99 C 162.31,137.09 162.19,137.2 162.16,137.24 C 162.1,137.32 162.12,137.32 162.32,137.33 C 162.81,137.33 163.01,137.46 163.08,137.79 C 163.24,138.55 160.69,140.68 159.12,141.1 z M 157.87,138.69 C 157.76,138.71 157.57,138.7 157.44,138.66 C 157.13,138.55 157.18,138.37 157.65,137.95 C 157.94,137.69 158.06,137.63 158.23,137.66 C 158.41,137.68 158.44,137.72 158.45,137.9 C 158.46,138.1 158.3,138.44 158.14,138.58 C 158.1,138.61 157.97,138.66 157.87,138.69 z M 159.29,139.63 C 158.92,139.54 158.63,139.0 158.95,139.12 C 159.54,139.25 159.56,139.32 160.62,138.55 C 161.03,138.26 161.31,138.07 161.32,138.09 C 161.33,138.1 161.35,138.19 161.31,138.31 C 161.23,138.58 160.7,139.13 160.44,139.33 C 160.11,139.58 159.6,139.72 159.29,139.63 z M 143.84,164.1 C 143.95,164.03 144.24,163.79 144.48,163.58 C 145.39,162.79 145.59,162.7 146.24,162.81 C 146.38,162.84 146.53,162.87 146.68,162.89 C 146.87,162.83 147.06,162.76 147.25,162.7 C 147.93,162.47 148.51,162.14 149.03,161.69 C 149.52,161.26 149.79,160.74 149.67,160.44 C 149.59,160.22 149.47,160.23 148.66,160.46 C 148.26,160.58 147.87,160.67 147.81,160.66 C 147.6,160.65 147.33,160.41 146.98,159.93 C 146.47,159.23 146.16,159.09 145.49,159.25 C 144.72,159.44 143.78,160.15 143.49,160.77 C 143.35,161.06 143.35,161.3 143.52,161.71 C 143.65,162.05 143.66,162.07 143.6,162.29 C 143.54,162.53 143.38,162.78 142.93,163.31 C 142.66,163.63 142.47,164.06 142.49,164.3 C 142.52,164.61 143.27,164.5 143.84,164.1 z M 142.9,165.21 C 142.42,165.24 142.03,165.03 141.94,164.69 C 141.8,164.17 141.9,163.89 142.58,162.96 C 142.82,162.63 143.04,162.29 143.07,162.2 C 143.15,161.98 143.12,161.82 142.92,161.45 C 142.83,161.27 142.74,161.06 142.74,160.98 C 142.69,160.44 143.36,159.59 144.3,158.99 C 145.28,158.36 146.09,158.25 146.75,158.66 C 147.02,158.82 147.36,159.24 147.44,159.53 C 147.48,159.64 147.54,159.69 147.76,159.75 C 148.22,159.89 148.42,159.88 148.99,159.69 C 149.87,159.4 150.08,159.49 150.37,160.3 C 150.41,160.43 150.46,160.55 150.5,160.68 C 150.47,160.77 150.43,160.86 150.4,160.95 C 150.35,161.1 150.16,161.43 149.99,161.69 C 149.44,162.51 148.69,163.05 147.75,163.31 C 147.29,163.45 147.23,163.45 146.9,163.39 C 146.4,163.31 146.26,163.36 145.59,163.89 C 144.82,164.49 144.43,164.71 143.69,164.97 C 143.35,165.09 143.0,165.2 142.9,165.21 z M 144.91,161.24 C 145.1,160.96 145.29,160.51 145.27,160.37 C 145.27,160.31 145.24,160.31 145.14,160.36 C 144.84,160.55 144.56,161.05 144.55,161.46 C 144.54,161.68 144.54,161.69 144.63,161.61 C 144.68,161.56 144.8,161.4 144.91,161.24 z M 143.6,163.59 C 143.47,163.54 143.4,163.38 143.44,163.23 C 143.45,163.16 143.59,162.92 143.73,162.7 C 144.1,162.12 144.12,162.05 144.09,161.33 C 144.07,160.86 144.08,160.68 144.13,160.57 C 144.27,160.27 144.78,159.92 145.4,159.71 C 145.73,159.6 145.83,159.59 146.03,159.63 C 146.35,159.68 146.43,159.78 146.56,160.21 C 146.8,161.01 146.96,161.1 147.81,160.91 C 148.48,160.77 148.92,160.87 148.95,161.17 C 148.98,161.52 148.65,161.8 147.9,162.07 C 147.26,162.3 146.82,162.37 146.29,162.31 C 145.61,162.25 145.44,162.32 144.56,163.03 C 143.96,163.51 143.73,163.65 143.6,163.59 z M 137.62,160.72 C 138.16,160.58 138.89,160.31 139.34,160.08 C 139.6,159.94 139.81,159.8 140.04,159.58 C 140.6,159.06 140.69,158.78 140.45,158.39 C 140.15,157.92 140.28,157.7 141.16,157.13 C 141.66,156.81 141.82,156.67 141.94,156.48 C 142.07,156.27 142.06,156.21 141.88,156.16 C 141.72,156.11 141.69,156.11 140.93,156.3 C 140.49,156.4 140.33,156.35 139.93,155.99 C 139.48,155.57 139.27,155.51 138.53,155.6 C 137.9,155.67 137.58,155.76 136.42,156.2 C 135.56,156.52 134.86,156.83 134.52,157.03 C 133.72,157.49 133.23,158.07 133.05,158.75 C 133.03,158.83 133.01,158.91 132.99,158.98 C 133.17,158.95 133.36,158.92 133.54,158.89 C 134.42,158.74 134.96,158.79 135.25,159.06 C 135.46,159.25 135.52,159.45 135.5,159.9 C 135.48,160.49 135.59,160.69 135.99,160.81 C 136.36,160.93 136.9,160.9 137.62,160.72 z M 136.69,161.67 C 135.95,161.66 135.42,161.51 135.11,161.22 C 134.85,160.97 134.78,160.74 134.83,160.22 C 134.84,160.08 134.85,159.94 134.87,159.8 C 134.82,159.79 134.77,159.77 134.72,159.76 C 134.58,159.72 134.01,159.7 133.42,159.72 C 132.82,159.74 132.46,159.58 132.4,159.27 C 132.35,159.06 132.47,158.56 132.64,158.25 C 132.87,157.83 133.23,157.36 133.53,157.1 C 134.4,156.35 135.71,155.62 136.96,155.21 C 137.66,154.97 138.7,154.83 139.19,154.9 C 139.69,154.98 140.03,155.13 140.31,155.41 C 140.39,155.49 140.47,155.56 140.55,155.64 C 140.75,155.62 140.95,155.6 141.15,155.59 C 142.23,155.48 142.66,155.71 142.57,156.33 C 142.51,156.76 142.32,156.97 141.55,157.45 C 141.3,157.6 141.1,157.74 141.09,157.77 C 141.09,157.79 141.18,157.97 141.29,158.16 C 141.51,158.55 141.53,158.69 141.45,159.06 C 141.2,160.16 139.53,161.27 137.64,161.58 C 137.3,161.64 136.9,161.68 136.69,161.67 z M 136.38,157.58 C 136.51,157.45 136.8,157.32 137.47,157.08 C 137.65,157.02 137.86,156.93 137.92,156.88 C 138.06,156.78 138.23,156.56 138.19,156.52 C 138.14,156.47 137.24,156.64 136.85,156.77 C 136.09,157.01 135.21,157.46 134.96,157.72 C 134.81,157.88 134.92,157.89 135.62,157.8 C 136.24,157.71 136.26,157.71 136.38,157.58 z M 136.92,160.22 C 136.15,160.11 135.84,159.76 135.94,159.12 C 136.0,158.75 135.94,158.63 135.64,158.53 C 135.51,158.49 135.13,158.44 134.79,158.42 C 134.1,158.39 133.99,158.37 133.89,158.28 C 133.64,158.03 134.31,157.36 135.28,156.91 C 136.16,156.5 137.32,156.14 138.22,156.01 C 138.81,155.92 138.94,155.96 139.32,156.31 C 139.47,156.46 139.64,156.59 139.69,156.61 C 139.74,156.63 139.96,156.64 140.19,156.64 C 140.62,156.63 140.78,156.68 140.83,156.87 C 140.87,157.04 140.73,157.19 140.35,157.41 C 139.79,157.72 139.73,157.84 139.8,158.42 C 139.83,158.66 139.82,158.74 139.75,158.91 C 139.57,159.34 138.98,159.81 138.32,160.03 C 137.93,160.16 137.19,160.26 136.92,160.22 z M 140.39,152.86 C 141.11,152.59 141.89,152.04 142.29,151.51 C 142.49,151.24 142.5,151.21 142.51,150.49 C 142.52,150.07 142.73,149.84 143.49,149.41 C 144.3,148.97 144.51,148.76 144.57,148.36 C 144.65,147.81 144.11,147.57 143.21,147.75 C 142.99,147.79 142.78,147.85 142.74,147.87 C 142.69,147.89 142.63,147.85 142.58,147.76 C 142.36,147.4 141.62,147.24 140.75,147.36 C 139.89,147.48 138.85,147.89 138.28,148.34 C 138.02,148.54 138.0,148.63 138.09,148.92 C 138.13,149.03 138.14,149.17 138.12,149.22 C 138.06,149.37 137.68,149.63 136.89,150.06 C 136.06,150.51 135.82,150.66 135.58,150.9 C 135.18,151.28 135.09,151.53 135.27,151.7 C 135.54,151.94 136.03,151.91 137.21,151.56 C 138.14,151.29 138.57,151.23 138.83,151.32 C 139.04,151.4 139.17,151.58 139.21,151.85 C 139.24,152.02 139.13,152.62 139.03,152.88 C 138.99,153.0 139.0,153.02 139.13,153.06 C 139.34,153.12 139.95,153.02 140.39,152.86 z M 139.16,153.94 C 138.87,153.9 138.66,153.74 138.55,153.47 C 138.45,153.23 138.46,153.13 138.65,152.45 C 138.73,152.17 138.7,152.05 138.54,151.99 C 138.34,151.91 137.91,151.97 137.28,152.18 C 136.11,152.55 135.38,152.53 134.82,152.11 C 134.76,152.07 134.7,152.02 134.64,151.98 C 134.66,151.86 134.69,151.73 134.71,151.61 C 134.85,150.9 135.24,150.46 136.17,149.94 C 137.23,149.35 137.58,149.12 137.58,149.06 C 137.57,149.03 137.58,148.88 137.58,148.75 C 137.62,148.05 138.39,147.46 139.81,147.04 C 140.41,146.87 141.44,146.71 141.77,146.74 C 142.15,146.78 142.53,146.93 142.73,147.12 C 142.79,147.18 142.84,147.24 142.9,147.29 C 143.06,147.26 143.22,147.22 143.38,147.18 C 143.93,147.04 144.33,147.03 144.51,147.16 C 144.57,147.2 144.68,147.33 144.76,147.45 C 145.07,147.96 145.07,148.71 144.77,149.15 C 144.55,149.47 144.12,149.85 143.64,150.15 C 143.41,150.29 143.18,150.44 143.12,150.49 C 143.08,150.52 143.04,150.55 143.01,150.58 C 143.04,150.7 143.07,150.83 143.1,150.95 C 143.26,151.62 143.13,151.95 142.51,152.53 C 141.59,153.38 140.0,154.04 139.16,153.94 z M 139.17,150.08 C 139.2,150.06 139.26,149.96 139.29,149.86 C 139.37,149.6 139.59,149.3 139.82,149.13 C 139.99,149.0 140.34,148.84 140.81,148.66 C 140.86,148.64 140.92,148.62 140.97,148.6 C 140.94,148.58 140.9,148.57 140.87,148.55 C 140.71,148.49 140.08,148.58 139.75,148.72 C 139.35,148.89 139.26,148.98 139.2,149.27 C 139.15,149.46 139.1,149.55 138.92,149.76 C 138.69,150.03 138.65,150.12 138.74,150.15 C 138.82,150.17 139.11,150.13 139.17,150.08 z M 139.82,152.56 C 139.64,152.48 139.62,152.4 139.73,152.04 C 139.92,151.4 139.88,150.9 139.63,150.74 C 139.53,150.68 139.45,150.68 139.06,150.74 C 138.81,150.78 138.31,150.89 137.95,150.99 C 136.95,151.27 136.42,151.33 136.2,151.18 C 136.12,151.12 136.12,151.11 136.21,150.99 C 136.34,150.79 136.68,150.53 136.98,150.39 C 137.12,150.33 137.41,150.19 137.62,150.1 C 138.01,149.91 138.34,149.68 138.52,149.45 C 138.63,149.33 138.63,149.32 138.55,149.19 C 138.4,148.89 138.56,148.57 139.0,148.31 C 139.42,148.06 140.9,147.55 141.16,147.56 C 141.44,147.58 141.85,147.67 141.9,147.73 C 141.92,147.76 141.96,147.89 141.97,148.01 C 141.97,148.09 141.98,148.17 141.99,148.24 C 142.1,148.22 142.22,148.21 142.33,148.19 C 142.52,148.16 142.88,148.1 143.12,148.06 C 143.67,147.96 143.84,148.01 143.89,148.28 C 143.97,148.65 143.67,148.99 142.74,149.61 C 142.44,149.81 142.15,150.03 142.07,150.1 C 142.03,150.15 141.98,150.19 141.94,150.24 C 141.97,150.32 141.99,150.4 142.02,150.49 C 142.11,150.8 142.08,151.03 141.92,151.3 C 141.74,151.6 141.44,151.84 140.81,152.2 C 140.18,152.56 139.99,152.63 139.82,152.56 z M 165.45,136.95 C 166.32,137.91 166.5,139.07 166.29,140.28 C 166.08,141.49 165.53,142.53 164.7,143.42 C 164.3,143.86 163.85,144.25 163.38,144.62 C 162.92,144.99 162.43,145.33 161.97,145.7 C 161.48,146.1 161.06,146.54 160.72,147.08 C 160.68,147.15 160.64,147.21 160.6,147.28 C 160.59,147.29 160.5,147.31 160.49,147.31 C 160.45,147.32 160.42,147.32 160.38,147.33 C 160.23,147.35 160.09,147.36 159.94,147.34 C 159.68,147.32 159.41,147.24 159.21,147.06 C 158.77,146.66 158.91,145.96 159.13,145.51 C 159.41,144.95 159.88,144.46 160.35,144.07 C 160.82,143.68 161.32,143.33 161.8,142.95 C 162.25,142.59 162.69,142.22 163.09,141.79 C 163.5,141.37 163.85,140.92 164.13,140.41 C 164.44,139.87 164.65,139.31 164.79,138.71 C 164.92,138.14 164.98,137.59 164.92,137.01 C 164.9,136.73 164.85,136.46 164.76,136.2 C 164.76,136.18 164.78,136.21 164.78,136.22 C 164.79,136.23 164.8,136.23 164.81,136.24 C 164.82,136.26 164.83,136.27 164.85,136.29 C 164.88,136.32 164.91,136.35 164.94,136.38 C 164.99,136.45 165.05,136.51 165.11,136.57 C 165.22,136.7 165.34,136.83 165.45,136.95 z M 159.54,162.23 C 159.38,162.35 159.22,162.47 159.06,162.59 C 158.98,162.65 158.9,162.71 158.82,162.77 C 158.81,162.77 158.8,162.78 158.79,162.79 C 158.77,162.8 158.79,162.81 158.79,162.82 C 158.81,162.84 158.83,162.86 158.85,162.89 C 158.89,162.93 158.92,162.98 158.96,163.03 C 159.26,163.4 159.56,163.77 159.87,164.13 C 160.43,164.83 161.0,165.51 161.58,166.2 C 162.15,166.88 162.73,167.56 163.36,168.2 C 163.75,168.6 164.14,168.97 164.64,169.24 C 164.94,169.42 165.24,169.54 165.6,169.55 C 165.8,169.57 165.96,169.55 166.13,169.43 C 166.17,169.4 166.22,169.36 166.26,169.33 C 166.28,169.32 166.29,169.31 166.3,169.29 C 166.31,169.29 166.32,169.28 166.31,169.28 C 166.3,169.28 166.29,169.28 166.28,169.29 C 166.25,169.3 166.22,169.3 166.18,169.3 C 166.06,169.3 165.95,169.26 165.83,169.21 C 165.41,169.02 165.04,168.7 164.71,168.39 C 164.06,167.77 163.5,167.08 162.92,166.4 C 161.78,165.02 160.66,163.63 159.54,162.23 z M 135.58,165.73 C 139.64,168.15 144.3,166.8 148.1,165.42 C 152.46,163.83 155.73,161.99 159.32,159.05 C 160.9,157.76 162.71,156.15 163.99,154.53 C 164.66,153.69 165.22,152.83 165.63,151.82 C 165.83,151.31 165.98,150.79 166.07,150.24 C 166.11,149.97 166.14,149.7 166.14,149.42 C 166.14,149.28 166.14,149.15 166.13,149.01 C 166.12,148.95 166.11,148.88 166.1,148.81 C 166.1,148.78 166.1,148.75 166.09,148.72 C 166.09,148.71 166.09,148.7 166.09,148.69 C 166.08,148.68 166.1,148.7 166.1,148.71 C 166.12,148.72 166.13,148.74 166.15,148.76 C 166.34,148.97 166.53,149.18 166.72,149.39 C 166.85,149.53 167.16,149.86 167.27,150.03 C 167.55,150.48 167.59,151.08 167.56,151.59 C 167.5,152.65 167.12,153.72 166.61,154.64 C 165.59,156.46 163.9,158.12 162.38,159.47 C 162.17,159.65 161.97,159.82 161.76,160.0 C 161.74,160.02 161.71,160.04 161.69,160.07 C 161.68,160.08 161.7,160.08 161.7,160.09 C 161.71,160.09 161.71,160.1 161.72,160.11 C 161.73,160.12 161.74,160.13 161.75,160.15 C 161.79,160.2 161.83,160.25 161.87,160.31 C 161.95,160.41 162.03,160.52 162.11,160.63 C 162.44,161.06 162.77,161.49 163.1,161.92 C 163.76,162.78 164.42,163.63 165.09,164.48 C 165.75,165.34 166.41,166.2 167.02,167.09 C 167.33,167.53 167.63,167.98 167.87,168.47 C 167.99,168.71 168.1,168.95 168.16,169.22 C 168.23,169.5 168.23,169.74 168.09,170.01 C 167.87,170.47 167.33,170.87 166.92,171.1 C 166.33,171.44 165.98,171.42 165.41,171.04 C 164.55,170.47 163.76,169.55 163.11,168.78 C 161.71,167.13 160.35,165.44 158.97,163.77 C 158.8,163.57 158.63,163.36 158.46,163.15 C 158.37,163.05 158.28,162.94 158.2,162.84 C 158.19,162.82 158.18,162.81 158.16,162.8 C 158.15,162.79 158.13,162.81 158.12,162.82 C 158.1,162.84 158.07,162.86 158.04,162.88 C 157.98,162.91 157.93,162.95 157.87,162.99 C 157.42,163.29 156.97,163.58 156.51,163.87 C 155.58,164.43 154.63,164.94 153.66,165.41 C 151.81,166.3 149.57,167.17 147.62,167.77 C 145.6,168.38 143.39,168.85 141.24,168.61 C 140.14,168.48 139.13,168.2 138.14,167.71 C 137.65,167.47 137.2,167.19 136.76,166.86 C 136.33,166.52 135.95,166.14 135.58,165.73 z"
		 />

		<!-- Prism Reference -->
		<cam mingh:cam="--verb EditSelectAll --verb ZoomSelection --verb FileSave" /> 
	 </g>

</svg>
