<svg
   xmlns:xlink="http://www.w3.org/1999/xlink"
   xmlns:svg="http://www.w3.org/2000/svg"
   xmlns="http://www.w3.org/2000/svg"
   xmlns:mingh="http://www.minghworld.com"
   width="300px"
   height="300px" >
	
	 <g>
		
		<!-- Paths -->
		<path style="fill:none;stroke:#000;stroke-width:0.25px;"
			d="M 151.63,128.81 C 151.09,128.81 150.56,128.92 150.06,129.13 C 149.57,129.33 149.13,129.65 148.75,130.03 C 148.37,130.41 148.05,130.85 147.84,131.34 C 147.64,131.84 147.53,132.37 147.53,132.91 C 147.53,133.44 147.64,133.98 147.84,134.47 C 148.05,134.96 148.37,135.4 148.75,135.78 C 148.87,135.9 148.96,136.02 149.09,136.13 C 149.23,136.23 149.17,136.43 149.0,136.44 C 148.28,136.45 147.58,136.57 146.84,136.81 C 145.81,137.16 144.74,137.73 143.84,138.63 C 142.62,139.84 141.69,141.64 141.56,143.09 C 141.56,143.12 141.55,143.13 141.53,143.16 C 141.34,143.45 141.19,143.78 141.09,144.13 C 140.87,144.91 140.91,145.76 141.09,146.59 C 141.19,147.02 141.33,147.44 141.5,147.88 C 141.52,147.92 141.49,147.98 141.47,148.03 C 138.05,155.28 134.64,162.5 131.22,169.75 C 131.13,169.94 131.11,170.13 131.19,170.34 C 131.26,170.54 131.35,170.67 131.5,170.81 C 131.65,170.95 131.8,171.06 132.0,171.13 C 132.21,171.2 132.37,171.16 132.56,171.06 C 139.72,167.45 146.88,163.86 154.03,160.25 C 154.08,160.23 154.14,160.23 154.19,160.25 C 154.63,160.4 155.04,160.51 155.47,160.59 C 156.31,160.75 157.16,160.77 157.94,160.53 C 158.46,160.37 158.93,160.08 159.31,159.69 C 159.5,159.5 159.65,159.32 159.78,159.09 C 159.81,159.04 159.85,159.01 159.91,159.0 C 164.32,158.15 166.83,153.47 165.13,149.31 C 165.09,149.24 165.12,149.14 165.19,149.09 C 168.63,146.69 169.84,142.16 168.03,138.38 C 167.94,138.18 167.82,138.0 167.72,137.81 C 167.5,137.44 167.27,137.06 167.0,136.72 C 166.67,136.31 166.3,135.94 165.91,135.59 C 165.49,135.23 165.04,134.9 164.56,134.63 C 164.12,134.37 163.66,134.17 163.19,134.0 C 160.63,133.08 157.79,133.42 155.53,134.94 C 155.38,135.04 155.2,134.88 155.28,134.72 C 155.32,134.64 155.34,134.55 155.38,134.47 C 155.58,133.98 155.69,133.44 155.69,132.91 C 155.69,132.37 155.58,131.84 155.38,131.34 C 155.17,130.85 154.88,130.41 154.5,130.03 C 154.12,129.65 153.68,129.33 153.19,129.13 C 152.69,128.92 152.16,128.81 151.63,128.81 z M 151.63,130.94 C 152.7,130.94 153.56,131.83 153.56,132.91 C 153.56,133.98 152.7,134.84 151.63,134.84 C 150.55,134.84 149.66,133.98 149.66,132.91 C 149.66,131.83 150.55,130.94 151.63,130.94 z"
		 />
		 <path style="fill:#f00;stroke:none;"
			d="M 137.1,164.89 C 137.13,164.92 137.16,164.95 137.19,164.98 L 137.19,164.98 C 137.22,165.01 137.25,165.04 137.29,165.07 C 137.32,165.1 137.35,165.15 137.35,165.19 C 137.35,165.21 137.35,165.23 137.35,165.25 C 137.34,165.26 137.34,165.27 137.34,165.27 C 137.33,165.28 137.32,165.29 137.32,165.3 C 136.82,165.76 136.31,166.21 135.81,166.67 C 135.81,166.68 135.8,166.68 135.8,166.68 C 135.79,166.68 135.79,166.69 135.78,166.69 C 135.77,166.69 135.76,166.69 135.75,166.69 C 135.72,166.69 135.7,166.68 135.68,166.66 C 135.67,166.66 135.67,166.65 135.67,166.65 C 135.65,166.64 135.64,166.62 135.62,166.6 L 135.62,166.6 C 135.6,166.58 135.58,166.56 135.56,166.54 C 135.56,166.54 135.56,166.54 135.56,166.54 C 135.54,166.52 135.53,166.5 135.52,166.47 C 135.52,166.46 135.52,166.44 135.52,166.43 C 135.53,166.43 135.53,166.42 135.53,166.42 C 135.53,166.41 135.53,166.41 135.54,166.41 C 135.98,165.89 136.43,165.38 136.87,164.87 C 136.88,164.86 136.89,164.85 136.9,164.85 C 136.9,164.84 136.91,164.84 136.92,164.83 C 136.94,164.83 136.96,164.82 136.98,164.83 C 137.02,164.83 137.07,164.86 137.1,164.89 z M 138.39,165.99 C 138.42,166.01 138.45,166.04 138.48,166.06 L 138.48,166.06 C 138.51,166.08 138.54,166.1 138.57,166.12 C 138.61,166.15 138.63,166.18 138.64,166.22 C 138.64,166.23 138.63,166.25 138.63,166.26 C 138.62,166.27 138.62,166.28 138.61,166.28 C 138.6,166.29 138.6,166.3 138.59,166.3 C 138.0,166.7 137.42,167.09 136.83,167.49 C 136.82,167.49 136.82,167.49 136.81,167.5 C 136.81,167.5 136.8,167.5 136.8,167.5 C 136.78,167.51 136.77,167.51 136.76,167.51 C 136.73,167.51 136.7,167.5 136.68,167.48 C 136.68,167.48 136.68,167.48 136.68,167.48 C 136.66,167.47 136.64,167.46 136.62,167.44 L 136.62,167.44 C 136.6,167.43 136.58,167.41 136.56,167.4 C 136.56,167.4 136.56,167.4 136.56,167.4 C 136.54,167.38 136.53,167.36 136.52,167.34 C 136.52,167.33 136.52,167.32 136.53,167.31 C 136.53,167.31 136.53,167.3 136.53,167.3 C 136.54,167.29 136.54,167.29 136.55,167.29 C 137.07,166.85 137.6,166.41 138.13,165.98 C 138.14,165.97 138.15,165.97 138.15,165.96 C 138.16,165.96 138.17,165.95 138.18,165.95 C 138.2,165.94 138.23,165.94 138.25,165.94 C 138.3,165.95 138.35,165.96 138.39,165.99 z M 139.61,166.71 C 139.63,166.72 139.66,166.73 139.69,166.74 L 139.69,166.74 C 139.71,166.75 139.74,166.76 139.76,166.77 C 139.79,166.79 139.81,166.8 139.8,166.83 C 139.8,166.84 139.79,166.85 139.78,166.86 C 139.78,166.87 139.77,166.87 139.76,166.88 C 139.75,166.88 139.75,166.89 139.74,166.89 C 139.08,167.25 138.42,167.62 137.76,167.98 C 137.75,167.98 137.75,167.98 137.74,167.98 C 137.73,167.99 137.73,167.99 137.72,167.99 C 137.71,168.0 137.69,168.0 137.68,168.0 C 137.66,168.0 137.63,168.0 137.61,168.0 C 137.61,168.0 137.61,168.0 137.61,168.0 C 137.6,167.99 137.58,167.98 137.56,167.98 L 137.56,167.98 C 137.55,167.97 137.53,167.96 137.51,167.96 C 137.51,167.96 137.51,167.96 137.51,167.96 C 137.49,167.95 137.48,167.94 137.49,167.92 C 137.49,167.91 137.49,167.91 137.5,167.9 C 137.5,167.9 137.5,167.89 137.5,167.89 C 137.51,167.89 137.51,167.88 137.52,167.88 C 138.13,167.5 138.74,167.12 139.35,166.74 C 139.36,166.73 139.37,166.73 139.38,166.72 C 139.39,166.72 139.4,166.71 139.41,166.71 C 139.43,166.7 139.46,166.7 139.48,166.7 C 139.53,166.69 139.57,166.7 139.61,166.71 z M 140.52,166.91 C 140.54,166.91 140.55,166.91 140.57,166.9 L 140.57,166.9 C 140.59,166.9 140.6,166.9 140.62,166.89 C 140.64,166.89 140.64,166.89 140.62,166.9 C 140.61,166.9 140.6,166.91 140.59,166.92 C 140.58,166.92 140.57,166.93 140.56,166.93 C 140.55,166.94 140.54,166.94 140.53,166.95 C 139.82,167.31 139.12,167.68 138.41,168.04 C 138.4,168.04 138.4,168.05 138.39,168.05 C 138.38,168.05 138.38,168.05 138.37,168.06 C 138.36,168.06 138.35,168.07 138.34,168.07 C 138.31,168.08 138.3,168.09 138.28,168.09 C 138.28,168.09 138.28,168.09 138.28,168.09 C 138.27,168.1 138.26,168.1 138.25,168.1 L 138.25,168.1 C 138.24,168.1 138.23,168.1 138.22,168.11 C 138.22,168.11 138.22,168.11 138.22,168.11 C 138.21,168.11 138.21,168.1 138.22,168.1 C 138.22,168.09 138.23,168.09 138.23,168.08 C 138.24,168.08 138.24,168.08 138.25,168.08 C 138.25,168.07 138.26,168.07 138.26,168.07 C 138.94,167.71 139.62,167.35 140.3,166.99 C 140.31,166.99 140.32,166.98 140.33,166.98 C 140.34,166.97 140.35,166.97 140.36,166.96 C 140.38,166.95 140.4,166.94 140.42,166.94 C 140.47,166.92 140.5,166.91 140.52,166.91 z M 135.1,161.93 C 134.76,162.62 134.42,163.31 134.08,163.99 C 134.08,164.0 134.07,164.0 134.07,164.01 C 134.07,164.01 134.07,164.02 134.06,164.02 C 134.06,164.03 134.06,164.04 134.05,164.04 C 134.04,164.05 134.04,164.04 134.04,164.03 C 134.04,164.03 134.04,164.03 134.04,164.03 C 134.04,164.02 134.04,164.01 134.05,164.0 C 134.05,164.0 134.05,164.0 134.05,164.0 C 134.05,163.99 134.05,163.98 134.05,163.97 C 134.05,163.97 134.05,163.97 134.05,163.97 C 134.05,163.96 134.06,163.94 134.07,163.92 C 134.08,163.91 134.08,163.89 134.09,163.88 C 134.09,163.88 134.09,163.87 134.1,163.86 C 134.1,163.86 134.1,163.85 134.1,163.85 C 134.45,163.13 134.79,162.41 135.14,161.69 C 135.14,161.68 135.15,161.67 135.15,161.67 C 135.16,161.66 135.16,161.65 135.17,161.64 C 135.17,161.63 135.18,161.61 135.18,161.6 C 135.19,161.59 135.2,161.59 135.19,161.61 C 135.19,161.62 135.19,161.64 135.18,161.65 L 135.18,161.65 C 135.18,161.67 135.18,161.69 135.18,161.7 C 135.18,161.72 135.17,161.76 135.15,161.8 C 135.15,161.82 135.14,161.85 135.13,161.87 C 135.12,161.88 135.12,161.89 135.11,161.9 C 135.11,161.91 135.11,161.92 135.1,161.93 z M 135.38,162.87 C 135.01,163.49 134.65,164.11 134.28,164.73 C 134.28,164.74 134.28,164.74 134.28,164.74 C 134.27,164.75 134.27,164.75 134.27,164.75 C 134.26,164.76 134.25,164.76 134.25,164.77 C 134.23,164.77 134.22,164.76 134.21,164.74 C 134.21,164.74 134.21,164.74 134.21,164.74 C 134.2,164.72 134.19,164.71 134.19,164.69 H 134.18744 C 134.18,164.67 134.17,164.66 134.17,164.64 C 134.17,164.64 134.17,164.64 134.17,164.64 C 134.16,164.62 134.16,164.6 134.16,164.57 C 134.16,164.56 134.17,164.54 134.17,164.53 C 134.17,164.53 134.17,164.52 134.18,164.51 C 134.18,164.51 134.18,164.5 134.18,164.5 C 134.53,163.83 134.87,163.16 135.21,162.49 C 135.22,162.48 135.22,162.47 135.23,162.46 C 135.24,162.45 135.24,162.45 135.25,162.44 C 135.26,162.43 135.27,162.42 135.28,162.42 C 135.3,162.41 135.32,162.43 135.33,162.46 C 135.34,162.48 135.35,162.51 135.36,162.54 L 135.36,162.54 C 135.38,162.56 135.39,162.59 135.4,162.61 C 135.41,162.65 135.42,162.69 135.42,162.74 C 135.42,162.76 135.41,162.79 135.41,162.81 C 135.4,162.82 135.4,162.83 135.4,162.84 C 135.39,162.85 135.39,162.86 135.38,162.87 z M 136.17,164.07 C 135.75,164.61 135.33,165.15 134.9,165.69 C 134.9,165.69 134.9,165.7 134.89,165.7 C 134.89,165.7 134.89,165.7 134.88,165.71 C 134.87,165.71 134.86,165.71 134.85,165.71 C 134.83,165.71 134.81,165.7 134.79,165.68 C 134.79,165.68 134.79,165.68 134.79,165.68 C 134.78,165.66 134.76,165.64 134.75,165.62 L 134.75,165.62 C 134.73,165.6 134.72,165.58 134.71,165.56 C 134.7,165.56 134.7,165.56 134.7,165.56 C 134.69,165.54 134.68,165.51 134.68,165.48 C 134.68,165.47 134.68,165.46 134.68,165.44 C 134.68,165.44 134.68,165.43 134.69,165.43 C 134.69,165.42 134.69,165.41 134.69,165.41 C 135.07,164.81 135.45,164.22 135.83,163.62 C 135.84,163.61 135.85,163.6 135.85,163.6 C 135.86,163.59 135.87,163.59 135.87,163.58 C 135.89,163.57 135.9,163.57 135.92,163.57 C 135.95,163.57 135.99,163.59 136.01,163.63 C 136.04,163.66 136.06,163.69 136.08,163.72 L 136.08,163.72 C 136.11,163.75 136.13,163.78 136.15,163.81 C 136.18,163.85 136.2,163.9 136.2,163.95 C 136.2,163.97 136.2,163.99 136.2,164.02 C 136.2,164.03 136.19,164.04 136.19,164.04 C 136.18,164.05 136.18,164.06 136.17,164.07 z M 136.46,162.65 C 136.72,162.24 136.98,161.84 137.24,161.43 C 137.31,161.31 137.39,161.19 137.47,161.06 C 137.53,160.98 137.57,160.88 137.69,160.96 C 137.72,160.98 137.88,161.2 137.9,161.24 C 137.98,161.33 138.07,161.41 138.07,161.56 C 138.07,161.61 138.06,161.65 138.03,161.69 C 137.99,161.74 137.95,161.79 137.91,161.84 C 137.83,161.94 137.75,162.04 137.67,162.14 C 137.52,162.33 137.37,162.52 137.23,162.71 C 137.14,162.82 137.06,162.92 136.98,163.03 C 136.94,163.08 136.9,163.13 136.86,163.18 C 136.83,163.22 136.8,163.23 136.75,163.23 C 136.65,163.22 136.55,163.05 136.5,162.99 C 136.43,162.89 136.39,162.76 136.46,162.65 z M 135.78,161.4 C 136.0,160.98 136.21,160.56 136.43,160.14 C 136.46,160.07 136.71,159.58 136.75,159.51 C 136.84,159.37 136.88,159.52 136.93,159.62 C 136.98,159.75 137.05,159.85 137.03,160.01 C 137.01,160.13 136.75,160.53 136.7,160.62 C 136.58,160.83 136.46,161.03 136.34,161.23 C 136.22,161.43 136.1,161.64 135.98,161.84 C 135.96,161.88 135.91,161.93 135.86,161.91 C 135.82,161.89 135.79,161.81 135.78,161.78 C 135.76,161.72 135.73,161.67 135.73,161.61 C 135.73,161.53 135.75,161.47 135.78,161.4 z M 135.7,160.52 C 135.9,160.11 136.1,159.69 136.3,159.28 C 136.4,159.07 136.5,158.86 136.6,158.66 C 136.64,158.58 136.67,158.49 136.72,158.42 C 136.74,158.38 136.72,158.46 136.71,158.48 C 136.7,158.52 136.7,158.56 136.7,158.6 C 136.69,158.67 136.67,158.74 136.64,158.81 C 136.58,158.97 136.41,159.28 136.34,159.43 C 136.24,159.63 136.13,159.84 136.03,160.05 C 135.93,160.25 135.83,160.46 135.73,160.66 C 135.69,160.74 135.56,161.0 135.58,160.85 C 135.6,160.73 135.65,160.63 135.7,160.52 z M 141.44,166.47 C 141.4,166.48 141.27,166.51 141.33,166.46 C 141.38,166.41 141.45,166.39 141.51,166.35 C 141.61,166.3 141.7,166.25 141.79,166.2 C 142.0,166.1 142.2,165.99 142.4,165.88 C 142.61,165.77 142.81,165.67 143.01,165.56 C 143.15,165.49 143.28,165.4 143.43,165.35 C 143.5,165.32 143.57,165.32 143.65,165.3 C 143.69,165.3 143.83,165.24 143.76,165.28 C 143.61,165.38 143.44,165.45 143.28,165.53 C 143.08,165.64 142.87,165.74 142.67,165.85 C 142.46,165.95 142.26,166.06 142.06,166.16 C 141.93,166.23 141.8,166.3 141.67,166.36 C 141.59,166.4 141.52,166.45 141.44,166.47 z M 140.52,166.34 C 140.48,166.33 140.29,166.27 140.29,166.21 C 140.29,166.15 140.35,166.12 140.39,166.09 C 140.47,166.05 140.55,166.0 140.62,165.95 C 140.82,165.82 141.02,165.7 141.22,165.58 C 141.42,165.45 141.62,165.33 141.82,165.2 C 141.92,165.14 142.06,165.03 142.19,165.01 C 142.29,165.0 142.37,165.03 142.47,165.07 C 142.51,165.09 142.56,165.11 142.61,165.13 C 142.64,165.14 142.71,165.15 142.72,165.19 C 142.74,165.23 142.68,165.27 142.66,165.29 C 142.57,165.34 142.49,165.38 142.4,165.43 C 142.19,165.54 141.99,165.65 141.78,165.77 C 141.58,165.88 141.37,165.99 141.16,166.11 C 141.04,166.17 140.92,166.25 140.79,166.31 C 140.72,166.34 140.6,166.37 140.52,166.34 z M 139.24,165.64 C 139.18,165.61 139.0,165.49 138.97,165.42 C 138.94,165.36 138.95,165.33 138.99,165.28 C 139.04,165.23 139.1,165.19 139.16,165.14 C 139.34,164.99 139.53,164.83 139.71,164.68 C 139.9,164.53 140.08,164.37 140.27,164.22 C 140.34,164.16 140.47,164.02 140.58,164.01 C 140.71,164.01 140.79,164.08 140.88,164.15 C 140.93,164.18 140.99,164.22 141.04,164.26 C 141.09,164.29 141.14,164.32 141.19,164.37 C 141.22,164.41 141.24,164.44 141.22,164.5 C 141.21,164.52 141.19,164.54 141.17,164.55 C 141.14,164.58 141.1,164.6 141.06,164.62 C 140.87,164.76 140.67,164.89 140.47,165.03 C 140.27,165.16 140.07,165.29 139.87,165.43 C 139.76,165.51 139.65,165.59 139.53,165.66 C 139.44,165.71 139.32,165.7 139.24,165.64 z M 137.85,164.5 C 137.8,164.46 137.63,164.3 137.6,164.23 C 137.53,164.09 137.62,164.02 137.7,163.92 C 137.86,163.74 138.02,163.56 138.18,163.38 C 138.34,163.19 138.49,163.01 138.65,162.83 C 138.69,162.78 138.84,162.58 138.92,162.56 C 139.05,162.54 139.14,162.65 139.21,162.72 C 139.3,162.81 139.4,162.9 139.49,162.99 C 139.57,163.07 139.6,163.19 139.5,163.28 C 139.33,163.44 139.15,163.61 138.97,163.77 C 138.79,163.93 138.61,164.1 138.44,164.26 C 138.33,164.35 138.23,164.45 138.13,164.54 C 138.05,164.61 137.92,164.57 137.85,164.5 z M 146.57,163.68 C 146.58,163.67 146.59,163.67 146.59,163.67 C 146.6,163.66 146.61,163.66 146.61,163.66 C 146.62,163.65 146.63,163.65 146.63,163.65 C 146.64,163.64 146.65,163.64 146.66,163.64 C 146.66,163.63 146.67,163.63 146.68,163.63 C 146.69,163.62 146.7,163.62 146.7,163.62 C 146.71,163.61 146.72,163.61 146.73,163.61 C 146.74,163.6 146.74,163.6 146.75,163.6 C 146.76,163.6 146.77,163.59 146.78,163.59 C 146.78,163.59 146.79,163.59 146.8,163.58 C 146.81,163.58 146.81,163.58 146.82,163.58 C 146.83,163.58 146.83,163.57 146.84,163.57 C 146.85,163.57 146.85,163.57 146.86,163.57 C 146.86,163.57 146.87,163.57 146.88,163.56 C 146.88,163.56 146.89,163.56 146.89,163.56 C 146.9,163.56 146.9,163.56 146.9,163.56 C 146.91,163.56 146.91,163.56 146.91,163.56 C 146.97,163.56 147.02,163.55 147.07,163.54 L 147.07,163.54 C 147.12,163.53 147.17,163.52 147.21,163.5 C 147.21,163.5 147.22,163.5 147.22,163.5 C 147.22,163.5 147.22,163.5 147.22,163.5 C 147.23,163.5 147.23,163.5 147.23,163.5 C 147.23,163.5 147.23,163.5 147.23,163.5 C 147.23,163.5 147.23,163.5 147.23,163.5 C 147.23,163.5 147.23,163.5 147.23,163.5 C 147.23,163.5 147.22,163.5 147.22,163.5 C 147.22,163.5 147.22,163.51 147.22,163.51 C 147.21,163.51 147.21,163.51 147.21,163.51 C 147.2,163.51 147.2,163.52 147.19,163.52 C 147.19,163.52 147.19,163.52 147.18,163.53 C 147.18,163.53 147.17,163.53 147.17,163.53 C 147.16,163.54 147.16,163.54 147.15,163.54 C 147.14,163.55 147.14,163.55 147.13,163.55 C 147.13,163.55 147.12,163.56 147.11,163.56 C 147.11,163.56 147.1,163.57 147.1,163.57 C 147.09,163.57 147.08,163.58 147.08,163.58 C 146.43,163.91 145.78,164.25 145.13,164.58 C 145.13,164.58 145.12,164.59 145.11,164.59 C 145.11,164.59 145.1,164.6 145.09,164.6 C 145.09,164.6 145.08,164.61 145.07,164.61 C 145.07,164.61 145.06,164.62 145.05,164.62 C 145.05,164.63 145.04,164.63 145.03,164.63 C 145.02,164.64 145.02,164.64 145.01,164.64 C 145.0,164.65 144.99,164.65 144.99,164.65 C 144.98,164.66 144.97,164.66 144.97,164.67 C 144.96,164.67 144.95,164.67 144.94,164.68 C 144.94,164.68 144.93,164.68 144.92,164.68 C 144.92,164.69 144.91,164.69 144.91,164.69 C 144.9,164.7 144.89,164.7 144.89,164.7 C 144.88,164.7 144.88,164.71 144.87,164.71 C 144.87,164.71 144.86,164.71 144.86,164.71 C 144.86,164.72 144.85,164.72 144.85,164.72 C 144.84,164.72 144.84,164.72 144.84,164.72 C 144.83,164.72 144.83,164.72 144.83,164.73 C 144.8,164.74 144.76,164.74 144.73,164.75 C 144.7,164.76 144.66,164.76 144.62,164.76 C 144.62,164.76 144.62,164.76 144.62,164.76 C 144.61,164.76 144.61,164.76 144.61,164.76 C 144.61,164.76 144.6,164.76 144.6,164.76 C 144.6,164.76 144.6,164.76 144.6,164.76 C 144.6,164.76 144.6,164.76 144.6,164.76 C 144.6,164.76 144.6,164.75 144.6,164.75 C 144.6,164.75 144.6,164.75 144.6,164.75 C 144.6,164.74 144.6,164.74 144.6,164.74 C 144.6,164.74 144.61,164.74 144.61,164.73 C 144.61,164.73 144.61,164.73 144.62,164.73 C 144.62,164.72 144.62,164.72 144.63,164.72 C 144.63,164.71 144.63,164.71 144.64,164.71 C 144.64,164.7 144.65,164.7 144.65,164.7 C 144.66,164.69 144.66,164.69 144.67,164.69 C 144.67,164.69 144.68,164.68 144.68,164.68 C 144.69,164.68 144.69,164.67 144.7,164.67 C 144.7,164.67 144.71,164.66 144.72,164.66 C 145.34,164.33 145.96,164.0 146.57,163.68 z M 137.32,157.45 C 137.31,157.46 137.31,157.46 137.31,157.47 C 137.3,157.47 137.3,157.48 137.3,157.49 C 137.3,157.49 137.29,157.5 137.29,157.5 C 137.29,157.51 137.28,157.51 137.28,157.52 C 137.28,157.52 137.27,157.53 137.27,157.53 C 137.27,157.53 137.27,157.54 137.26,157.54 C 137.26,157.55 137.26,157.55 137.25,157.55 C 137.25,157.56 137.25,157.56 137.25,157.56 C 137.24,157.56 137.24,157.57 137.24,157.57 C 137.24,157.57 137.23,157.57 137.23,157.57 C 137.23,157.57 137.23,157.57 137.23,157.57 C 137.23,157.57 137.22,157.57 137.22,157.57 C 137.22,157.57 137.22,157.57 137.22,157.57 C 137.22,157.57 137.22,157.57 137.22,157.57 C 137.22,157.57 137.22,157.56 137.22,157.56 C 137.21,157.56 137.21,157.56 137.21,157.55 C 137.21,157.55 137.21,157.55 137.21,157.55 C 137.22,157.51 137.22,157.47 137.23,157.44 C 137.23,157.41 137.24,157.37 137.25,157.34 C 137.25,157.34 137.25,157.34 137.25,157.33 C 137.25,157.33 137.25,157.33 137.25,157.32 C 137.26,157.32 137.26,157.31 137.26,157.31 C 137.26,157.31 137.26,157.3 137.26,157.3 C 137.27,157.29 137.27,157.29 137.27,157.28 C 137.27,157.27 137.28,157.27 137.28,157.26 C 137.28,157.26 137.28,157.25 137.29,157.24 C 137.29,157.24 137.29,157.23 137.3,157.22 C 137.3,157.22 137.3,157.21 137.31,157.2 C 137.31,157.2 137.31,157.19 137.32,157.18 C 137.32,157.17 137.32,157.17 137.33,157.16 C 137.33,157.15 137.33,157.14 137.34,157.14 C 137.34,157.13 137.34,157.12 137.35,157.11 C 137.35,157.11 137.35,157.1 137.36,157.09 C 137.36,157.09 137.36,157.08 137.37,157.07 C 137.37,157.07 137.37,157.06 137.38,157.05 C 137.38,157.05 137.38,157.04 137.38,157.03 C 137.7,156.38 138.02,155.72 138.33,155.06 C 138.34,155.06 138.34,155.05 138.34,155.04 C 138.35,155.04 138.35,155.03 138.35,155.03 C 138.36,155.02 138.36,155.01 138.36,155.01 C 138.36,155.0 138.37,155.0 138.37,154.99 C 138.37,154.98 138.38,154.98 138.38,154.97 C 138.38,154.97 138.38,154.96 138.39,154.96 C 138.39,154.95 138.39,154.95 138.39,154.94 C 138.39,154.94 138.4,154.94 138.4,154.93 C 138.4,154.93 138.4,154.93 138.4,154.92 C 138.4,154.92 138.41,154.92 138.41,154.92 C 138.41,154.91 138.41,154.91 138.41,154.91 C 138.41,154.91 138.41,154.91 138.41,154.91 C 138.41,154.91 138.41,154.91 138.41,154.91 C 138.41,154.91 138.41,154.91 138.41,154.91 C 138.41,154.91 138.41,154.91 138.41,154.91 C 138.41,154.92 138.41,154.92 138.41,154.92 C 138.41,154.92 138.41,154.92 138.41,154.93 C 138.39,154.97 138.38,155.02 138.38,155.07 L 138.38,155.07 C 138.37,155.12 138.36,155.17 138.36,155.23 C 138.36,155.23 138.36,155.23 138.36,155.24 C 138.36,155.24 138.36,155.24 138.36,155.25 C 138.36,155.25 138.36,155.26 138.36,155.26 C 138.35,155.27 138.35,155.28 138.35,155.28 C 138.35,155.29 138.35,155.29 138.35,155.3 C 138.35,155.31 138.35,155.31 138.34,155.32 C 138.34,155.33 138.34,155.33 138.34,155.34 C 138.34,155.35 138.33,155.36 138.33,155.36 C 138.33,155.37 138.33,155.38 138.32,155.39 C 138.32,155.4 138.32,155.4 138.32,155.41 C 138.31,155.42 138.31,155.43 138.31,155.44 C 138.3,155.45 138.3,155.45 138.3,155.46 C 138.3,155.47 138.29,155.48 138.29,155.49 C 138.29,155.49 138.28,155.5 138.28,155.51 C 138.28,155.52 138.27,155.52 138.27,155.53 C 138.27,155.54 138.26,155.54 138.26,155.55 C 138.26,155.56 138.25,155.56 138.25,155.57 C 137.94,156.2 137.63,156.82 137.32,157.45 z M 141.01,160.12 C 141.01,160.12 141.01,160.11 141.02,160.11 C 141.02,160.11 141.03,160.1 141.03,160.1 C 141.04,160.09 141.04,160.09 141.05,160.09 C 141.05,160.08 141.06,160.08 141.07,160.08 C 141.07,160.08 141.08,160.07 141.09,160.07 C 141.09,160.07 141.1,160.07 141.11,160.07 C 141.11,160.07 141.12,160.07 141.13,160.06 C 141.14,160.06 141.14,160.06 141.15,160.07 C 141.16,160.07 141.17,160.07 141.17,160.07 C 141.18,160.07 141.19,160.07 141.2,160.07 C 141.21,160.08 141.21,160.08 141.22,160.08 C 141.23,160.08 141.24,160.09 141.25,160.09 C 141.25,160.09 141.26,160.1 141.27,160.1 C 141.27,160.11 141.28,160.11 141.29,160.11 C 141.3,160.12 141.3,160.12 141.31,160.13 C 141.32,160.13 141.32,160.14 141.33,160.15 C 141.33,160.15 141.34,160.16 141.34,160.16 C 141.44,160.25 141.53,160.35 141.62,160.44 L 141.62,160.44 C 141.71,160.53 141.81,160.62 141.9,160.7 C 141.91,160.71 141.91,160.72 141.92,160.72 C 141.92,160.73 141.93,160.73 141.93,160.74 C 141.94,160.75 141.94,160.75 141.95,160.76 C 141.95,160.77 141.96,160.77 141.96,160.78 C 141.97,160.79 141.97,160.79 141.98,160.8 C 141.98,160.81 141.98,160.82 141.99,160.82 C 141.99,160.83 141.99,160.84 141.99,160.85 C 142.0,160.86 142.0,160.86 142.0,160.87 C 142.0,160.88 142.0,160.89 142.0,160.89 C 142.0,160.9 142.0,160.91 142.0,160.92 C 142.0,160.93 142.0,160.93 142.0,160.94 C 142.0,160.95 142.0,160.95 142.0,160.96 C 142.0,160.97 141.99,160.97 141.99,160.98 C 141.99,160.99 141.99,160.99 141.98,161.0 C 141.98,161.0 141.98,161.01 141.97,161.01 C 141.97,161.02 141.97,161.03 141.96,161.03 C 141.96,161.03 141.95,161.04 141.95,161.04 C 141.49,161.46 141.03,161.88 140.57,162.3 C 140.56,162.3 140.56,162.31 140.55,162.31 C 140.55,162.31 140.54,162.32 140.54,162.32 C 140.53,162.32 140.53,162.33 140.52,162.33 C 140.52,162.33 140.51,162.33 140.5,162.34 C 140.5,162.34 140.49,162.34 140.48,162.34 C 140.48,162.34 140.47,162.34 140.46,162.34 C 140.45,162.34 140.45,162.35 140.44,162.35 C 140.43,162.35 140.42,162.35 140.41,162.34 C 140.41,162.34 140.4,162.34 140.39,162.34 C 140.38,162.34 140.37,162.34 140.37,162.34 C 140.36,162.34 140.35,162.33 140.34,162.33 C 140.34,162.33 140.33,162.32 140.32,162.32 C 140.31,162.32 140.3,162.31 140.3,162.31 C 140.29,162.31 140.28,162.3 140.28,162.3 C 140.27,162.29 140.26,162.29 140.26,162.29 C 140.25,162.28 140.24,162.28 140.24,162.27 C 140.23,162.27 140.23,162.26 140.22,162.26 C 140.15,162.19 140.09,162.13 140.03,162.07 C 139.96,162.01 139.9,161.95 139.84,161.88 C 139.83,161.88 139.83,161.87 139.82,161.87 C 139.82,161.86 139.81,161.86 139.81,161.85 C 139.8,161.84 139.8,161.84 139.79,161.83 C 139.79,161.82 139.78,161.82 139.78,161.81 C 139.78,161.8 139.77,161.79 139.77,161.79 C 139.77,161.78 139.76,161.77 139.76,161.76 C 139.76,161.75 139.75,161.75 139.75,161.74 C 139.75,161.73 139.75,161.72 139.75,161.72 C 139.75,161.71 139.74,161.7 139.74,161.69 C 139.74,161.68 139.74,161.68 139.74,161.67 C 139.74,161.66 139.74,161.65 139.74,161.64 C 139.74,161.64 139.74,161.63 139.75,161.62 C 139.75,161.62 139.75,161.61 139.75,161.6 C 139.75,161.6 139.76,161.59 139.76,161.58 C 139.76,161.58 139.76,161.57 139.77,161.57 C 139.77,161.56 139.77,161.56 139.78,161.55 C 139.78,161.55 139.78,161.54 139.79,161.54 C 140.19,161.07 140.6,160.59 141.01,160.12 z M 143.02,161.94 C 143.03,161.94 143.03,161.94 143.04,161.93 C 143.04,161.93 143.05,161.92 143.05,161.92 C 143.06,161.92 143.07,161.92 143.07,161.91 C 143.08,161.91 143.09,161.91 143.09,161.9 C 143.1,161.9 143.11,161.9 143.12,161.9 C 143.12,161.9 143.13,161.9 143.14,161.89 C 143.15,161.89 143.16,161.89 143.17,161.89 C 143.17,161.89 143.18,161.89 143.19,161.89 C 143.2,161.89 143.21,161.89 143.22,161.89 C 143.23,161.89 143.24,161.9 143.24,161.9 C 143.25,161.9 143.26,161.9 143.27,161.9 C 143.28,161.9 143.29,161.91 143.3,161.91 C 143.3,161.91 143.31,161.92 143.32,161.92 C 143.33,161.92 143.34,161.93 143.34,161.93 C 143.35,161.93 143.36,161.94 143.37,161.94 C 143.37,161.94 143.38,161.95 143.39,161.95 C 143.39,161.96 143.4,161.96 143.4,161.96 C 143.5,162.04 143.6,162.11 143.7,162.18 L 143.7,162.18 C 143.79,162.24 143.89,162.31 143.98,162.38 C 143.99,162.38 144.0,162.38 144.0,162.39 C 144.01,162.39 144.01,162.4 144.02,162.4 C 144.02,162.41 144.03,162.41 144.03,162.42 C 144.04,162.42 144.04,162.43 144.04,162.43 C 144.05,162.44 144.05,162.44 144.06,162.45 C 144.06,162.45 144.06,162.46 144.06,162.46 C 144.07,162.47 144.07,162.48 144.07,162.48 C 144.07,162.49 144.07,162.49 144.08,162.5 C 144.08,162.51 144.08,162.51 144.08,162.52 C 144.08,162.52 144.08,162.53 144.08,162.54 C 144.07,162.54 144.07,162.55 144.07,162.55 C 144.07,162.56 144.07,162.57 144.07,162.57 C 144.06,162.58 144.06,162.58 144.06,162.59 C 144.05,162.59 144.05,162.6 144.05,162.6 C 144.04,162.61 144.04,162.61 144.03,162.61 C 144.03,162.62 144.02,162.62 144.02,162.63 C 144.01,162.63 144.01,162.63 144.0,162.64 C 143.47,163.0 142.93,163.36 142.39,163.72 C 142.39,163.72 142.38,163.73 142.38,163.73 C 142.37,163.73 142.36,163.74 142.36,163.74 C 142.35,163.74 142.34,163.75 142.34,163.75 C 142.33,163.75 142.32,163.75 142.32,163.75 C 142.31,163.76 142.3,163.76 142.29,163.76 C 142.29,163.76 142.28,163.76 142.27,163.76 C 142.26,163.77 142.25,163.77 142.25,163.77 C 142.24,163.77 142.23,163.77 142.22,163.77 C 142.21,163.77 142.2,163.77 142.19,163.77 C 142.19,163.77 142.18,163.77 142.17,163.77 C 142.16,163.76 142.15,163.76 142.14,163.76 C 142.14,163.76 142.13,163.76 142.12,163.76 C 142.11,163.75 142.1,163.75 142.1,163.75 C 142.09,163.75 142.08,163.74 142.07,163.74 C 142.07,163.74 142.06,163.74 142.05,163.73 C 142.05,163.73 142.04,163.73 142.03,163.72 C 142.03,163.72 142.02,163.71 142.02,163.71 C 141.95,163.67 141.88,163.62 141.82,163.57 C 141.75,163.53 141.69,163.48 141.62,163.43 C 141.61,163.43 141.61,163.42 141.6,163.42 C 141.6,163.41 141.59,163.41 141.59,163.4 C 141.58,163.4 141.58,163.39 141.57,163.39 C 141.57,163.38 141.56,163.38 141.56,163.37 C 141.56,163.36 141.55,163.36 141.55,163.35 C 141.54,163.35 141.54,163.34 141.54,163.33 C 141.54,163.33 141.53,163.32 141.53,163.31 C 141.53,163.31 141.53,163.3 141.53,163.29 C 141.52,163.29 141.52,163.28 141.52,163.27 C 141.52,163.27 141.52,163.26 141.52,163.26 C 141.52,163.25 141.52,163.24 141.52,163.24 C 141.53,163.23 141.53,163.22 141.53,163.22 C 141.53,163.21 141.53,163.21 141.54,163.2 C 141.54,163.2 141.54,163.19 141.54,163.19 C 141.55,163.18 141.55,163.18 141.55,163.17 C 141.56,163.17 141.56,163.16 141.57,163.16 C 141.57,163.15 141.57,163.15 141.58,163.15 C 142.06,162.75 142.54,162.34 143.02,161.94 z M 134.9,169.51 C 135.49,169.14 136.09,168.76 136.68,168.39 C 136.74,168.36 136.79,168.32 136.87,168.35 C 136.89,168.36 136.97,168.38 136.94,168.42 C 136.92,168.46 136.77,168.52 136.74,168.54 C 136.66,168.58 136.58,168.63 136.5,168.67 C 136.18,168.85 135.86,169.02 135.54,169.19 C 135.37,169.29 135.2,169.38 135.03,169.47 C 135.01,169.48 134.99,169.49 134.96,169.51 C 134.95,169.51 134.92,169.52 134.94,169.52 C 134.94,169.53 134.95,169.53 134.95,169.53 C 134.96,169.53 134.97,169.54 134.98,169.54 C 135.01,169.56 135.05,169.57 135.09,169.58 C 135.1,169.59 135.12,169.59 135.14,169.6 C 135.14,169.6 135.13,169.6 135.13,169.6 C 135.12,169.61 135.1,169.62 135.09,169.62 C 135.06,169.64 135.04,169.65 135.01,169.66 C 134.96,169.69 134.91,169.71 134.86,169.74 C 134.75,169.79 134.65,169.85 134.54,169.9 C 134.34,170.0 134.13,170.11 133.92,170.21 C 133.82,170.26 133.71,170.32 133.61,170.37 C 133.58,170.38 133.56,170.4 133.53,170.41 C 133.52,170.41 133.52,170.42 133.51,170.42 C 133.51,170.41 133.5,170.41 133.5,170.41 C 133.38,170.37 133.27,170.31 133.16,170.24 C 132.91,170.08 132.68,169.88 132.47,169.67 C 132.28,169.47 132.11,169.27 131.97,169.03 C 131.94,168.98 131.91,168.93 131.89,168.88 C 131.88,168.85 131.87,168.83 131.86,168.81 C 131.85,168.79 131.86,168.79 131.87,168.78 C 131.88,168.74 131.9,168.71 131.92,168.67 C 131.95,168.6 131.98,168.53 132.02,168.46 C 132.08,168.31 132.15,168.17 132.22,168.03 C 132.35,167.74 132.49,167.45 132.62,167.17 C 132.63,167.16 132.63,167.15 132.63,167.16 C 132.63,167.16 132.63,167.16 132.63,167.16 C 132.64,167.17 132.64,167.17 132.64,167.18 C 132.64,167.18 132.64,167.19 132.65,167.2 C 132.65,167.21 132.66,167.23 132.66,167.25 C 132.68,167.28 132.69,167.31 132.71,167.34 C 132.71,167.35 132.71,167.35 132.71,167.36 C 132.72,167.37 132.72,167.34 132.72,167.34 C 132.73,167.33 132.73,167.32 132.74,167.31 C 132.75,167.29 132.76,167.27 132.77,167.25 C 132.81,167.17 132.85,167.09 132.89,167.01 C 132.97,166.85 133.05,166.7 133.13,166.54 C 133.24,166.32 133.36,166.09 133.47,165.87 C 133.53,165.75 133.59,165.64 133.65,165.53 C 133.67,165.47 133.7,165.42 133.73,165.36 C 133.74,165.34 133.77,165.29 133.79,165.32 C 133.82,165.35 133.83,165.38 133.83,165.41 C 133.85,165.45 133.84,165.49 133.82,165.54 C 133.77,165.64 133.7,165.74 133.64,165.85 C 133.52,166.06 133.39,166.26 133.27,166.47 C 133.15,166.68 133.02,166.89 132.9,167.1 C 132.87,167.15 132.84,167.21 132.81,167.26 C 132.79,167.29 132.78,167.31 132.76,167.34 C 132.76,167.34 132.73,167.39 132.73,167.4 C 132.74,167.41 132.74,167.42 132.75,167.43 C 132.78,167.49 132.81,167.54 132.84,167.59 C 132.88,167.66 132.92,167.73 132.96,167.79 C 132.99,167.82 133.01,167.86 133.03,167.89 C 133.05,167.91 133.06,167.92 133.07,167.94 C 133.08,167.95 133.08,167.94 133.08,167.94 C 133.09,167.92 133.1,167.91 133.11,167.89 C 133.13,167.86 133.15,167.83 133.17,167.8 C 133.21,167.74 133.24,167.68 133.28,167.62 C 133.58,167.14 133.89,166.66 134.19,166.18 C 134.22,166.13 134.26,166.13 134.3,166.17 C 134.33,166.22 134.37,166.25 134.38,166.31 C 134.39,166.38 134.35,166.42 134.31,166.46 C 134.27,166.52 134.22,166.57 134.18,166.63 C 134.01,166.85 133.84,167.06 133.67,167.28 C 133.56,167.42 133.45,167.56 133.34,167.7 C 133.28,167.77 133.23,167.84 133.17,167.91 C 133.16,167.93 133.15,167.94 133.13,167.96 C 133.12,167.97 133.12,167.98 133.11,167.99 C 133.11,167.99 133.11,167.99 133.11,167.99 C 133.12,168.0 133.12,168.0 133.12,168.01 C 133.16,168.05 133.19,168.1 133.23,168.14 C 133.3,168.22 133.37,168.31 133.45,168.39 C 133.48,168.43 133.52,168.46 133.56,168.5 C 133.58,168.52 133.6,168.54 133.61,168.56 C 133.62,168.56 133.62,168.57 133.63,168.57 C 133.64,168.59 133.65,168.57 133.66,168.56 C 133.72,168.5 133.77,168.43 133.83,168.36 C 134.06,168.09 134.29,167.83 134.52,167.56 C 134.64,167.42 134.75,167.29 134.87,167.16 C 134.91,167.11 134.96,167.01 135.04,167.04 C 135.08,167.06 135.18,167.16 135.19,167.2 C 135.21,167.27 135.1,167.34 135.07,167.37 C 135.0,167.43 134.94,167.49 134.87,167.55 C 134.75,167.66 134.62,167.78 134.49,167.9 C 134.23,168.13 133.97,168.37 133.71,168.6 C 133.7,168.61 133.67,168.62 133.69,168.64 C 133.7,168.64 133.7,168.65 133.71,168.65 C 133.72,168.66 133.73,168.67 133.74,168.68 C 133.76,168.7 133.78,168.71 133.79,168.73 C 133.83,168.77 133.87,168.8 133.92,168.84 C 134.0,168.91 134.08,168.98 134.17,169.05 C 134.19,169.07 134.21,169.08 134.24,169.1 C 134.25,169.11 134.26,169.12 134.27,169.12 C 134.27,169.13 134.28,169.13 134.28,169.14 C 134.29,169.14 134.29,169.14 134.29,169.14 C 134.31,169.13 134.33,169.11 134.35,169.1 C 134.62,168.87 134.89,168.64 135.16,168.42 C 135.29,168.31 135.42,168.2 135.56,168.09 C 135.62,168.04 135.69,167.98 135.75,167.93 C 135.8,167.89 135.86,167.81 135.94,167.83 C 135.97,167.83 136.08,167.9 136.1,167.93 C 136.14,168.0 136.03,168.04 135.99,168.07 C 135.84,168.17 135.7,168.26 135.55,168.36 C 135.26,168.56 134.97,168.75 134.68,168.94 C 134.61,168.99 134.54,169.04 134.46,169.09 C 134.43,169.11 134.39,169.14 134.35,169.16 C 134.35,169.17 134.33,169.17 134.34,169.18 C 134.34,169.18 134.35,169.18 134.35,169.18 C 134.37,169.2 134.39,169.21 134.41,169.23 C 134.57,169.33 134.73,169.43 134.9,169.51 z M 137.75,158.82 C 137.75,158.82 137.75,158.83 137.74,158.83 C 137.74,158.84 137.74,158.84 137.73,158.85 C 137.73,158.85 137.72,158.86 137.72,158.86 C 137.72,158.87 137.71,158.87 137.71,158.87 C 137.7,158.88 137.7,158.88 137.69,158.88 C 137.69,158.89 137.69,158.89 137.68,158.89 C 137.68,158.89 137.67,158.9 137.67,158.9 C 137.66,158.9 137.66,158.9 137.65,158.9 C 137.65,158.9 137.64,158.9 137.64,158.9 C 137.64,158.9 137.63,158.9 137.63,158.9 C 137.62,158.9 137.62,158.9 137.61,158.9 C 137.61,158.89 137.61,158.89 137.6,158.89 C 137.6,158.89 137.59,158.89 137.59,158.88 C 137.59,158.88 137.58,158.88 137.58,158.87 C 137.58,158.87 137.57,158.87 137.57,158.86 C 137.57,158.86 137.56,158.85 137.56,158.85 C 137.56,158.84 137.56,158.84 137.55,158.83 C 137.53,158.78 137.5,158.72 137.48,158.67 C 137.45,158.61 137.43,158.56 137.41,158.51 C 137.41,158.5 137.41,158.5 137.41,158.49 C 137.41,158.49 137.4,158.48 137.4,158.47 C 137.4,158.47 137.4,158.46 137.4,158.46 C 137.4,158.45 137.4,158.44 137.4,158.44 C 137.4,158.43 137.4,158.42 137.4,158.42 C 137.4,158.41 137.4,158.4 137.4,158.39 C 137.4,158.39 137.4,158.38 137.4,158.37 C 137.4,158.36 137.4,158.35 137.4,158.35 C 137.4,158.34 137.4,158.33 137.4,158.32 C 137.4,158.31 137.41,158.3 137.41,158.3 C 137.41,158.29 137.41,158.28 137.41,158.27 C 137.41,158.26 137.42,158.26 137.42,158.25 C 137.42,158.24 137.42,158.23 137.43,158.22 C 137.43,158.22 137.43,158.21 137.43,158.2 C 137.44,158.2 137.44,158.19 137.44,158.18 C 137.44,158.18 137.45,158.17 137.45,158.16 C 137.45,158.16 137.46,158.15 137.46,158.14 C 137.77,157.53 138.09,156.92 138.4,156.3 C 138.41,156.3 138.41,156.29 138.41,156.29 C 138.42,156.28 138.42,156.28 138.42,156.27 C 138.43,156.27 138.43,156.26 138.43,156.26 C 138.44,156.25 138.44,156.25 138.44,156.24 C 138.45,156.24 138.45,156.23 138.46,156.23 C 138.46,156.22 138.46,156.22 138.47,156.22 C 138.47,156.21 138.48,156.21 138.48,156.21 C 138.48,156.21 138.49,156.2 138.49,156.2 C 138.49,156.2 138.5,156.2 138.5,156.2 C 138.51,156.2 138.51,156.2 138.51,156.2 C 138.52,156.2 138.52,156.2 138.52,156.2 C 138.53,156.2 138.53,156.2 138.53,156.2 C 138.54,156.21 138.54,156.21 138.54,156.21 C 138.55,156.21 138.55,156.22 138.55,156.22 C 138.55,156.22 138.56,156.23 138.56,156.23 C 138.56,156.23 138.56,156.24 138.57,156.24 C 138.57,156.25 138.57,156.25 138.57,156.26 C 138.6,156.33 138.63,156.41 138.67,156.49 L 138.67,156.49 C 138.7,156.57 138.74,156.65 138.78,156.74 C 138.78,156.74 138.79,156.75 138.79,156.75 C 138.79,156.76 138.79,156.76 138.79,156.77 C 138.8,156.78 138.8,156.78 138.8,156.79 C 138.8,156.8 138.8,156.8 138.8,156.81 C 138.81,156.82 138.81,156.83 138.81,156.83 C 138.81,156.84 138.81,156.85 138.81,156.86 C 138.81,156.87 138.81,156.88 138.81,156.88 C 138.81,156.89 138.81,156.9 138.81,156.91 C 138.81,156.92 138.81,156.93 138.81,156.94 C 138.81,156.95 138.81,156.96 138.81,156.96 C 138.81,156.97 138.8,156.98 138.8,156.99 C 138.8,157.0 138.8,157.01 138.8,157.02 C 138.8,157.02 138.79,157.03 138.79,157.04 C 138.79,157.05 138.79,157.05 138.78,157.06 C 138.78,157.07 138.78,157.08 138.78,157.08 C 138.77,157.09 138.77,157.1 138.77,157.1 C 138.76,157.11 138.76,157.11 138.76,157.12 C 138.42,157.68 138.09,158.25 137.75,158.82 z M 138.91,160.55 C 138.91,160.55 138.9,160.56 138.9,160.56 C 138.9,160.57 138.89,160.57 138.89,160.57 C 138.88,160.58 138.88,160.58 138.87,160.58 C 138.87,160.59 138.86,160.59 138.86,160.59 C 138.85,160.6 138.85,160.6 138.84,160.6 C 138.84,160.6 138.83,160.6 138.82,160.6 C 138.82,160.61 138.81,160.61 138.8,160.61 C 138.8,160.61 138.79,160.61 138.78,160.61 C 138.78,160.61 138.77,160.61 138.77,160.61 C 138.76,160.6 138.75,160.6 138.75,160.6 C 138.74,160.6 138.73,160.6 138.73,160.59 C 138.72,160.59 138.71,160.59 138.71,160.58 C 138.7,160.58 138.7,160.58 138.69,160.57 C 138.68,160.57 138.68,160.57 138.67,160.56 C 138.67,160.56 138.66,160.55 138.66,160.55 C 138.65,160.54 138.65,160.54 138.64,160.53 C 138.64,160.53 138.63,160.52 138.63,160.51 C 138.58,160.45 138.53,160.38 138.48,160.32 C 138.43,160.26 138.38,160.19 138.34,160.13 C 138.33,160.12 138.33,160.12 138.32,160.11 C 138.32,160.1 138.32,160.1 138.31,160.09 C 138.31,160.08 138.31,160.08 138.3,160.07 C 138.3,160.06 138.3,160.05 138.3,160.05 C 138.29,160.04 138.29,160.03 138.29,160.02 C 138.29,160.02 138.28,160.01 138.28,160.0 C 138.28,159.99 138.28,159.98 138.28,159.97 C 138.28,159.97 138.27,159.96 138.27,159.95 C 138.27,159.94 138.27,159.93 138.27,159.92 C 138.27,159.91 138.27,159.91 138.27,159.9 C 138.27,159.89 138.27,159.88 138.28,159.87 C 138.28,159.87 138.28,159.86 138.28,159.85 C 138.28,159.84 138.28,159.83 138.28,159.83 C 138.29,159.82 138.29,159.81 138.29,159.81 C 138.29,159.8 138.3,159.79 138.3,159.79 C 138.3,159.78 138.3,159.77 138.31,159.77 C 138.31,159.76 138.31,159.76 138.32,159.75 C 138.66,159.21 139.01,158.66 139.36,158.11 C 139.36,158.1 139.36,158.1 139.37,158.09 C 139.37,158.09 139.37,158.09 139.38,158.08 C 139.38,158.08 139.39,158.07 139.39,158.07 C 139.4,158.06 139.4,158.06 139.41,158.06 C 139.41,158.05 139.42,158.05 139.42,158.05 C 139.43,158.05 139.43,158.04 139.44,158.04 C 139.44,158.04 139.45,158.04 139.46,158.04 C 139.46,158.04 139.47,158.04 139.47,158.04 C 139.48,158.03 139.49,158.04 139.49,158.04 C 139.5,158.04 139.5,158.04 139.51,158.04 C 139.52,158.04 139.52,158.04 139.53,158.05 C 139.53,158.05 139.54,158.05 139.55,158.05 C 139.55,158.06 139.56,158.06 139.56,158.06 C 139.57,158.07 139.57,158.07 139.58,158.08 C 139.58,158.08 139.59,158.09 139.59,158.09 C 139.6,158.1 139.6,158.1 139.61,158.11 C 139.61,158.11 139.62,158.12 139.62,158.12 C 139.69,158.22 139.75,158.31 139.83,158.41 L 139.83,158.41 C 139.9,158.5 139.97,158.6 140.04,158.69 C 140.05,158.7 140.05,158.7 140.06,158.71 C 140.06,158.72 140.07,158.72 140.07,158.73 C 140.07,158.74 140.08,158.74 140.08,158.75 C 140.09,158.76 140.09,158.77 140.09,158.77 C 140.1,158.78 140.1,158.79 140.1,158.8 C 140.11,158.81 140.11,158.82 140.11,158.82 C 140.11,158.83 140.12,158.84 140.12,158.85 C 140.12,158.86 140.12,158.87 140.12,158.88 C 140.12,158.89 140.12,158.89 140.12,158.9 C 140.12,158.91 140.12,158.92 140.12,158.93 C 140.12,158.94 140.12,158.95 140.12,158.95 C 140.12,158.96 140.12,158.97 140.12,158.98 C 140.12,158.99 140.12,158.99 140.11,159.0 C 140.11,159.01 140.11,159.01 140.11,159.02 C 140.1,159.03 140.1,159.03 140.1,159.04 C 140.09,159.05 140.09,159.05 140.09,159.06 C 140.08,159.06 140.08,159.07 140.08,159.07 C 139.69,159.56 139.3,160.06 138.91,160.55 z M 141.11,157.76 C 141.1,157.76 141.1,157.77 141.09,157.77 C 141.09,157.78 141.08,157.79 141.07,157.79 C 141.07,157.8 141.06,157.8 141.05,157.81 C 141.05,157.81 141.04,157.82 141.03,157.82 C 141.02,157.82 141.01,157.83 141.01,157.83 C 141.0,157.83 140.99,157.84 140.98,157.84 C 140.97,157.84 140.96,157.84 140.95,157.84 C 140.94,157.84 140.93,157.84 140.92,157.84 C 140.91,157.84 140.9,157.84 140.89,157.84 C 140.88,157.84 140.87,157.83 140.87,157.83 C 140.86,157.83 140.85,157.83 140.84,157.82 C 140.83,157.82 140.82,157.81 140.81,157.81 C 140.8,157.8 140.79,157.8 140.78,157.79 C 140.77,157.79 140.77,157.78 140.76,157.77 C 140.75,157.77 140.74,157.76 140.73,157.75 C 140.73,157.75 140.72,157.74 140.71,157.73 C 140.7,157.72 140.7,157.71 140.69,157.71 C 140.63,157.62 140.56,157.54 140.5,157.45 L 140.5,157.45 C 140.43,157.37 140.37,157.28 140.31,157.2 C 140.31,157.19 140.3,157.18 140.3,157.18 C 140.29,157.17 140.29,157.16 140.28,157.15 C 140.28,157.14 140.27,157.13 140.27,157.12 C 140.26,157.11 140.26,157.1 140.25,157.09 C 140.25,157.07 140.25,157.06 140.24,157.05 C 140.24,157.04 140.24,157.03 140.23,157.02 C 140.23,157.0 140.23,156.99 140.23,156.98 C 140.23,156.97 140.22,156.95 140.22,156.94 C 140.22,156.93 140.22,156.92 140.22,156.9 C 140.22,156.89 140.22,156.88 140.22,156.87 C 140.22,156.85 140.22,156.84 140.22,156.83 C 140.23,156.82 140.23,156.81 140.23,156.8 C 140.23,156.78 140.24,156.77 140.24,156.76 C 140.24,156.75 140.24,156.74 140.25,156.73 C 140.25,156.72 140.25,156.71 140.26,156.7 C 140.26,156.69 140.27,156.68 140.27,156.68 C 140.28,156.67 140.28,156.66 140.28,156.65 C 140.55,156.24 140.81,155.82 141.07,155.4 C 141.07,155.39 141.08,155.39 141.08,155.38 C 141.09,155.37 141.1,155.37 141.1,155.36 C 141.11,155.35 141.11,155.35 141.12,155.34 C 141.13,155.33 141.13,155.33 141.14,155.32 C 141.15,155.32 141.16,155.31 141.16,155.31 C 141.17,155.31 141.18,155.3 141.19,155.3 C 141.2,155.3 141.21,155.3 141.21,155.29 C 141.22,155.29 141.23,155.29 141.24,155.29 C 141.25,155.29 141.26,155.29 141.27,155.29 C 141.28,155.29 141.28,155.29 141.29,155.3 C 141.3,155.3 141.31,155.3 141.32,155.31 C 141.33,155.31 141.34,155.31 141.35,155.32 C 141.35,155.32 141.36,155.33 141.37,155.33 C 141.38,155.34 141.39,155.35 141.39,155.35 C 141.4,155.36 141.41,155.37 141.42,155.37 C 141.42,155.38 141.43,155.39 141.44,155.4 C 141.44,155.4 141.45,155.41 141.45,155.42 C 141.53,155.53 141.61,155.64 141.7,155.75 C 141.78,155.86 141.86,155.97 141.95,156.09 C 141.96,156.09 141.96,156.1 141.97,156.11 C 141.98,156.12 141.98,156.13 141.99,156.14 C 142.0,156.15 142.0,156.16 142.01,156.17 C 142.01,156.18 142.02,156.2 142.02,156.21 C 142.03,156.22 142.03,156.23 142.04,156.24 C 142.04,156.25 142.04,156.27 142.05,156.28 C 142.05,156.29 142.05,156.31 142.06,156.32 C 142.06,156.33 142.06,156.34 142.06,156.36 C 142.07,156.37 142.07,156.38 142.07,156.4 C 142.07,156.41 142.07,156.42 142.07,156.43 C 142.07,156.45 142.07,156.46 142.07,156.47 C 142.06,156.48 142.06,156.49 142.06,156.51 C 142.06,156.52 142.05,156.53 142.05,156.54 C 142.05,156.55 142.04,156.56 142.04,156.57 C 142.04,156.58 142.03,156.59 142.03,156.6 C 142.02,156.61 142.02,156.61 142.01,156.62 C 142.01,156.63 142.0,156.64 142.0,156.64 C 141.7,157.01 141.41,157.38 141.11,157.76 z M 139.65,155.6 C 139.65,155.61 139.64,155.62 139.64,155.63 C 139.63,155.63 139.63,155.64 139.62,155.65 C 139.61,155.65 139.61,155.66 139.6,155.67 C 139.6,155.67 139.59,155.68 139.58,155.68 C 139.58,155.69 139.57,155.69 139.57,155.7 C 139.56,155.7 139.55,155.71 139.55,155.71 C 139.54,155.71 139.53,155.71 139.53,155.72 C 139.52,155.72 139.51,155.72 139.51,155.72 C 139.5,155.72 139.49,155.72 139.49,155.72 C 139.48,155.72 139.47,155.72 139.47,155.72 C 139.46,155.72 139.45,155.72 139.45,155.72 C 139.44,155.71 139.44,155.71 139.43,155.71 C 139.42,155.7 139.42,155.7 139.41,155.69 C 139.41,155.69 139.4,155.69 139.4,155.68 C 139.39,155.68 139.39,155.67 139.38,155.66 C 139.38,155.66 139.37,155.65 139.37,155.64 C 139.37,155.64 139.36,155.63 139.36,155.62 C 139.32,155.55 139.29,155.48 139.26,155.41 L 139.26,155.41 C 139.23,155.34 139.2,155.27 139.17,155.2 C 139.17,155.19 139.17,155.18 139.17,155.18 C 139.16,155.17 139.16,155.16 139.16,155.15 C 139.16,155.14 139.16,155.13 139.16,155.13 C 139.15,155.12 139.15,155.11 139.15,155.1 C 139.15,155.09 139.15,155.08 139.15,155.07 C 139.15,155.06 139.15,155.04 139.15,155.03 C 139.15,155.02 139.15,155.01 139.15,155.0 C 139.15,154.99 139.15,154.98 139.16,154.96 C 139.16,154.95 139.16,154.94 139.16,154.93 C 139.16,154.92 139.17,154.9 139.17,154.89 C 139.17,154.88 139.17,154.87 139.18,154.86 C 139.18,154.84 139.18,154.83 139.19,154.82 C 139.19,154.81 139.19,154.8 139.2,154.79 C 139.2,154.78 139.2,154.77 139.21,154.75 C 139.21,154.74 139.21,154.73 139.22,154.72 C 139.22,154.71 139.23,154.71 139.23,154.7 C 139.24,154.69 139.24,154.68 139.24,154.67 C 139.48,154.2 139.72,153.74 139.96,153.27 C 139.96,153.26 139.97,153.25 139.97,153.25 C 139.98,153.24 139.98,153.23 139.99,153.22 C 139.99,153.21 140.0,153.2 140.0,153.2 C 140.01,153.19 140.01,153.18 140.02,153.18 C 140.02,153.17 140.03,153.16 140.04,153.16 C 140.04,153.15 140.05,153.15 140.05,153.14 C 140.06,153.14 140.06,153.13 140.07,153.13 C 140.08,153.13 140.08,153.12 140.09,153.12 C 140.09,153.12 140.1,153.12 140.1,153.12 C 140.11,153.11 140.11,153.11 140.12,153.11 C 140.13,153.11 140.13,153.12 140.14,153.12 C 140.14,153.12 140.15,153.12 140.15,153.12 C 140.15,153.13 140.16,153.13 140.16,153.13 C 140.17,153.14 140.17,153.14 140.18,153.14 C 140.18,153.15 140.18,153.15 140.19,153.16 C 140.19,153.17 140.19,153.17 140.2,153.18 C 140.2,153.18 140.2,153.19 140.2,153.2 C 140.24,153.29 140.28,153.38 140.32,153.47 C 140.36,153.57 140.4,153.66 140.45,153.76 C 140.45,153.77 140.46,153.77 140.46,153.78 C 140.46,153.79 140.47,153.8 140.47,153.81 C 140.47,153.82 140.47,153.83 140.48,153.84 C 140.48,153.85 140.48,153.86 140.48,153.87 C 140.49,153.88 140.49,153.89 140.49,153.9 C 140.49,153.92 140.49,153.93 140.49,153.94 C 140.49,153.95 140.5,153.96 140.5,153.98 C 140.5,153.99 140.5,154.0 140.5,154.02 C 140.49,154.03 140.49,154.04 140.49,154.06 C 140.49,154.07 140.49,154.08 140.49,154.09 C 140.49,154.11 140.49,154.12 140.48,154.13 C 140.48,154.15 140.48,154.16 140.47,154.17 C 140.47,154.18 140.47,154.19 140.47,154.2 C 140.46,154.22 140.46,154.23 140.45,154.24 C 140.45,154.25 140.45,154.26 140.44,154.27 C 140.44,154.28 140.43,154.29 140.43,154.3 C 140.42,154.31 140.42,154.31 140.41,154.32 C 140.16,154.75 139.9,155.18 139.65,155.6 z M 139.08,153.89 C 139.08,153.9 139.08,153.91 139.07,153.92 C 139.07,153.92 139.06,153.93 139.06,153.94 C 139.05,153.95 139.05,153.96 139.04,153.96 C 139.04,153.97 139.04,153.98 139.03,153.99 C 139.03,153.99 139.02,154.0 139.02,154.01 C 139.01,154.01 139.01,154.02 139.0,154.02 C 139.0,154.03 139.0,154.03 138.99,154.04 C 138.99,154.04 138.98,154.05 138.98,154.05 C 138.98,154.05 138.97,154.06 138.97,154.06 C 138.97,154.06 138.96,154.06 138.96,154.07 C 138.96,154.07 138.95,154.07 138.95,154.07 C 138.95,154.07 138.95,154.07 138.95,154.07 C 138.94,154.07 138.94,154.07 138.94,154.06 C 138.94,154.06 138.94,154.06 138.94,154.06 C 138.94,154.06 138.93,154.05 138.93,154.05 C 138.93,154.05 138.93,154.04 138.93,154.04 C 138.93,154.03 138.93,154.03 138.93,154.03 C 138.94,153.98 138.94,153.93 138.95,153.89 L 138.95,153.89 C 138.95,153.84 138.96,153.8 138.98,153.76 C 138.98,153.76 138.98,153.75 138.98,153.75 C 138.98,153.74 138.98,153.74 138.99,153.73 C 138.99,153.73 138.99,153.72 138.99,153.71 C 138.99,153.71 139.0,153.7 139.0,153.69 C 139.0,153.69 139.01,153.68 139.01,153.67 C 139.01,153.66 139.02,153.65 139.02,153.65 C 139.03,153.64 139.03,153.63 139.03,153.62 C 139.04,153.61 139.04,153.6 139.05,153.59 C 139.05,153.58 139.06,153.57 139.06,153.56 C 139.07,153.55 139.07,153.54 139.08,153.53 C 139.08,153.52 139.09,153.51 139.09,153.49 C 139.1,153.48 139.1,153.47 139.11,153.46 C 139.11,153.45 139.12,153.44 139.12,153.43 C 139.13,153.42 139.13,153.41 139.14,153.4 C 139.14,153.39 139.15,153.38 139.15,153.37 C 139.16,153.36 139.16,153.35 139.17,153.34 C 139.17,153.33 139.17,153.32 139.18,153.31 C 139.42,152.81 139.66,152.31 139.9,151.82 C 139.9,151.81 139.91,151.8 139.91,151.79 C 139.92,151.78 139.92,151.77 139.93,151.76 C 139.93,151.75 139.93,151.74 139.94,151.73 C 139.94,151.72 139.95,151.72 139.95,151.71 C 139.96,151.7 139.96,151.69 139.96,151.68 C 139.97,151.68 139.97,151.67 139.97,151.66 C 139.98,151.65 139.98,151.65 139.98,151.64 C 139.99,151.63 139.99,151.63 139.99,151.62 C 140.0,151.62 140.0,151.61 140.0,151.61 C 140.0,151.61 140.0,151.6 140.01,151.6 C 140.01,151.6 140.01,151.59 140.01,151.59 C 140.01,151.59 140.01,151.59 140.01,151.59 C 140.01,151.59 140.01,151.59 140.01,151.59 C 140.01,151.59 140.01,151.59 140.01,151.59 C 140.01,151.59 140.01,151.59 140.01,151.6 C 140.01,151.6 140.01,151.6 140.01,151.6 C 140.01,151.61 140.01,151.61 140.01,151.61 C 139.99,151.67 139.98,151.72 139.97,151.78 C 139.96,151.84 139.95,151.9 139.95,151.96 C 139.95,151.97 139.95,151.97 139.95,151.98 C 139.95,151.98 139.95,151.99 139.95,152.0 C 139.95,152.0 139.95,152.01 139.94,152.02 C 139.94,152.03 139.94,152.04 139.94,152.04 C 139.94,152.05 139.94,152.06 139.93,152.07 C 139.93,152.08 139.93,152.09 139.93,152.1 C 139.92,152.11 139.92,152.12 139.92,152.13 C 139.92,152.15 139.91,152.16 139.91,152.17 C 139.91,152.18 139.9,152.19 139.9,152.2 C 139.89,152.22 139.89,152.23 139.89,152.24 C 139.88,152.25 139.88,152.26 139.87,152.28 C 139.87,152.29 139.87,152.3 139.86,152.31 C 139.86,152.32 139.85,152.33 139.85,152.35 C 139.84,152.36 139.84,152.37 139.83,152.38 C 139.83,152.39 139.82,152.4 139.82,152.41 C 139.82,152.42 139.81,152.43 139.81,152.44 C 139.8,152.45 139.8,152.46 139.79,152.47 C 139.56,152.94 139.32,153.42 139.08,153.89 z M 149.63,162.05 C 149.64,162.05 149.65,162.04 149.66,162.04 C 149.67,162.04 149.68,162.03 149.69,162.03 C 149.7,162.02 149.71,162.02 149.72,162.01 C 149.73,162.01 149.74,162.0 149.75,162.0 C 149.77,161.99 149.78,161.99 149.79,161.98 C 149.8,161.98 149.81,161.97 149.82,161.97 C 149.84,161.96 149.85,161.96 149.86,161.95 C 149.87,161.95 149.88,161.95 149.9,161.94 C 149.91,161.94 149.92,161.93 149.93,161.93 C 149.94,161.93 149.95,161.92 149.96,161.92 C 149.97,161.92 149.99,161.91 150.0,161.91 C 150.01,161.91 150.02,161.91 150.03,161.9 C 150.03,161.9 150.04,161.9 150.05,161.9 C 150.06,161.89 150.07,161.89 150.08,161.89 C 150.08,161.89 150.09,161.89 150.1,161.89 C 150.11,161.89 150.11,161.88 150.12,161.88 C 150.12,161.88 150.13,161.88 150.13,161.88 C 150.2,161.88 150.26,161.87 150.32,161.86 C 150.37,161.85 150.43,161.83 150.48,161.82 C 150.48,161.82 150.49,161.81 150.49,161.81 C 150.49,161.81 150.5,161.81 150.5,161.81 C 150.5,161.81 150.5,161.81 150.51,161.81 C 150.51,161.81 150.51,161.81 150.51,161.81 C 150.51,161.81 150.51,161.81 150.51,161.81 C 150.51,161.81 150.51,161.81 150.5,161.81 C 150.5,161.81 150.5,161.82 150.5,161.82 C 150.49,161.82 150.49,161.82 150.49,161.82 C 150.48,161.83 150.48,161.83 150.47,161.83 C 150.47,161.83 150.46,161.84 150.46,161.84 C 150.45,161.84 150.44,161.85 150.44,161.85 C 150.43,161.86 150.42,161.86 150.41,161.86 C 150.41,161.87 150.4,161.87 150.39,161.88 C 150.38,161.88 150.37,161.88 150.36,161.89 C 150.35,161.89 150.35,161.9 150.34,161.9 C 150.33,161.91 150.32,161.91 150.31,161.92 C 150.3,161.92 150.29,161.93 150.28,161.93 C 149.79,162.18 149.3,162.44 148.81,162.69 C 148.8,162.69 148.79,162.7 148.78,162.7 C 148.77,162.71 148.76,162.71 148.75,162.72 C 148.74,162.72 148.73,162.73 148.72,162.73 C 148.71,162.74 148.7,162.75 148.69,162.75 C 148.68,162.76 148.67,162.76 148.66,162.77 C 148.65,162.77 148.64,162.78 148.63,162.78 C 148.61,162.79 148.6,162.79 148.59,162.8 C 148.58,162.8 148.57,162.81 148.56,162.81 C 148.55,162.82 148.54,162.82 148.53,162.83 C 148.52,162.83 148.51,162.84 148.5,162.84 C 148.49,162.85 148.49,162.85 148.48,162.86 C 148.47,162.86 148.46,162.86 148.45,162.87 C 148.44,162.87 148.44,162.87 148.43,162.88 C 148.42,162.88 148.41,162.88 148.41,162.89 C 148.4,162.89 148.4,162.89 148.39,162.89 C 148.38,162.9 148.38,162.9 148.38,162.9 C 148.37,162.9 148.37,162.9 148.36,162.9 C 148.32,162.92 148.28,162.93 148.24,162.94 L 148.24,162.94 C 148.19,162.94 148.15,162.95 148.1,162.95 C 148.09,162.95 148.09,162.96 148.09,162.96 C 148.08,162.95 148.08,162.95 148.07,162.95 C 148.07,162.95 148.07,162.95 148.07,162.95 C 148.06,162.95 148.06,162.95 148.06,162.95 C 148.06,162.95 148.06,162.95 148.06,162.94 C 148.06,162.94 148.06,162.94 148.06,162.94 C 148.06,162.93 148.06,162.93 148.06,162.93 C 148.06,162.93 148.06,162.92 148.06,162.92 C 148.07,162.92 148.07,162.91 148.07,162.91 C 148.08,162.9 148.08,162.9 148.08,162.9 C 148.09,162.89 148.09,162.89 148.1,162.88 C 148.1,162.88 148.11,162.87 148.12,162.87 C 148.12,162.87 148.13,162.86 148.14,162.86 C 148.14,162.85 148.15,162.85 148.16,162.84 C 148.17,162.84 148.17,162.83 148.18,162.83 C 148.19,162.82 148.2,162.82 148.2,162.81 C 148.21,162.81 148.22,162.8 148.23,162.8 C 148.7,162.55 149.17,162.3 149.63,162.05 z M 147.76,161.48 C 147.77,161.48 147.78,161.47 147.79,161.47 C 147.8,161.46 147.81,161.46 147.82,161.45 C 147.83,161.45 147.84,161.44 147.85,161.44 C 147.86,161.43 147.87,161.43 147.88,161.43 C 147.89,161.42 147.9,161.42 147.91,161.42 C 147.93,161.41 147.94,161.41 147.95,161.41 C 147.96,161.41 147.98,161.4 147.99,161.4 C 148.0,161.4 148.01,161.4 148.03,161.4 C 148.04,161.39 148.05,161.39 148.07,161.39 C 148.08,161.39 148.09,161.39 148.11,161.39 C 148.12,161.39 148.13,161.39 148.14,161.39 C 148.16,161.39 148.17,161.39 148.18,161.39 C 148.19,161.4 148.2,161.4 148.21,161.4 C 148.22,161.4 148.24,161.4 148.25,161.41 C 148.26,161.41 148.27,161.41 148.27,161.41 C 148.28,161.42 148.29,161.42 148.3,161.42 C 148.31,161.43 148.32,161.43 148.33,161.43 C 148.42,161.48 148.52,161.52 148.62,161.56 C 148.71,161.59 148.8,161.63 148.89,161.66 C 148.9,161.66 148.91,161.67 148.91,161.67 C 148.92,161.67 148.93,161.67 148.93,161.68 C 148.94,161.68 148.94,161.69 148.95,161.69 C 148.95,161.69 148.96,161.7 148.96,161.7 C 148.96,161.7 148.97,161.71 148.97,161.71 C 148.97,161.72 148.97,161.72 148.98,161.73 C 148.98,161.73 148.98,161.74 148.98,161.74 C 148.98,161.75 148.98,161.75 148.98,161.76 C 148.98,161.77 148.98,161.77 148.97,161.78 C 148.97,161.78 148.97,161.79 148.96,161.79 C 148.96,161.8 148.96,161.81 148.95,161.81 C 148.95,161.82 148.94,161.82 148.94,161.83 C 148.93,161.84 148.93,161.84 148.92,161.85 C 148.91,161.85 148.91,161.86 148.9,161.86 C 148.89,161.87 148.88,161.87 148.88,161.88 C 148.87,161.89 148.86,161.89 148.85,161.9 C 148.84,161.9 148.83,161.91 148.83,161.91 C 148.37,162.16 147.91,162.41 147.45,162.66 C 147.44,162.66 147.43,162.67 147.42,162.67 C 147.41,162.68 147.4,162.68 147.39,162.69 C 147.38,162.69 147.37,162.7 147.36,162.7 C 147.35,162.7 147.34,162.71 147.33,162.71 C 147.32,162.72 147.31,162.72 147.3,162.72 C 147.29,162.73 147.27,162.73 147.26,162.73 C 147.25,162.74 147.24,162.74 147.23,162.74 C 147.21,162.75 147.2,162.75 147.19,162.75 C 147.18,162.75 147.17,162.75 147.15,162.76 C 147.14,162.76 147.13,162.76 147.12,162.76 C 147.11,162.76 147.1,162.76 147.09,162.76 C 147.07,162.76 147.06,162.76 147.05,162.76 C 147.04,162.76 147.03,162.76 147.02,162.76 C 147.01,162.76 147.0,162.76 146.99,162.76 C 146.98,162.76 146.98,162.76 146.97,162.76 C 146.96,162.75 146.95,162.75 146.94,162.75 C 146.94,162.75 146.93,162.75 146.92,162.74 C 146.85,162.72 146.78,162.69 146.71,162.66 L 146.71,162.66 C 146.64,162.63 146.56,162.6 146.49,162.57 C 146.48,162.57 146.48,162.56 146.47,162.56 C 146.46,162.56 146.46,162.55 146.45,162.55 C 146.44,162.54 146.44,162.54 146.43,162.53 C 146.43,162.53 146.42,162.52 146.42,162.52 C 146.41,162.51 146.41,162.51 146.41,162.5 C 146.4,162.5 146.4,162.49 146.4,162.48 C 146.39,162.48 146.39,162.47 146.39,162.47 C 146.39,162.46 146.39,162.45 146.39,162.45 C 146.39,162.44 146.39,162.43 146.39,162.43 C 146.39,162.42 146.39,162.41 146.39,162.41 C 146.39,162.4 146.4,162.39 146.4,162.39 C 146.4,162.38 146.41,162.37 146.41,162.37 C 146.42,162.36 146.42,162.35 146.42,162.35 C 146.43,162.34 146.44,162.33 146.44,162.33 C 146.45,162.32 146.45,162.32 146.46,162.31 C 146.47,162.3 146.47,162.3 146.48,162.29 C 146.49,162.29 146.5,162.28 146.5,162.28 C 146.92,162.01 147.34,161.75 147.76,161.48 z M 145.4,159.96 C 145.41,159.95 145.41,159.95 145.42,159.94 C 145.43,159.94 145.44,159.93 145.45,159.93 C 145.46,159.92 145.46,159.92 145.47,159.91 C 145.48,159.91 145.49,159.91 145.5,159.9 C 145.51,159.9 145.53,159.9 145.54,159.89 C 145.55,159.89 145.56,159.89 145.57,159.89 C 145.58,159.89 145.6,159.88 145.61,159.88 C 145.62,159.88 145.63,159.88 145.65,159.88 C 145.66,159.88 145.67,159.88 145.69,159.89 C 145.7,159.89 145.71,159.89 145.72,159.89 C 145.74,159.89 145.75,159.9 145.76,159.9 C 145.78,159.9 145.79,159.91 145.8,159.91 C 145.81,159.91 145.83,159.92 145.84,159.92 C 145.85,159.93 145.86,159.93 145.87,159.94 C 145.88,159.94 145.89,159.95 145.9,159.95 C 145.91,159.96 145.92,159.97 145.93,159.97 C 145.94,159.98 145.95,159.98 145.96,159.99 C 146.07,160.08 146.19,160.16 146.3,160.24 C 146.41,160.32 146.53,160.4 146.64,160.47 C 146.65,160.48 146.65,160.48 146.66,160.49 C 146.67,160.49 146.68,160.5 146.69,160.51 C 146.69,160.52 146.7,160.52 146.71,160.53 C 146.71,160.54 146.72,160.54 146.73,160.55 C 146.73,160.56 146.74,160.57 146.74,160.58 C 146.75,160.59 146.75,160.59 146.76,160.6 C 146.76,160.61 146.76,160.62 146.77,160.63 C 146.77,160.64 146.77,160.65 146.77,160.65 C 146.77,160.66 146.77,160.67 146.77,160.68 C 146.77,160.69 146.77,160.7 146.77,160.71 C 146.77,160.72 146.77,160.72 146.77,160.73 C 146.76,160.74 146.76,160.75 146.76,160.76 C 146.75,160.77 146.75,160.77 146.74,160.78 C 146.74,160.79 146.73,160.79 146.73,160.8 C 146.72,160.81 146.72,160.82 146.71,160.82 C 146.7,160.83 146.7,160.83 146.69,160.84 C 146.68,160.85 146.67,160.85 146.67,160.86 C 146.26,161.13 145.85,161.4 145.44,161.67 C 145.43,161.68 145.42,161.68 145.41,161.69 C 145.41,161.69 145.4,161.7 145.39,161.7 C 145.38,161.7 145.37,161.71 145.36,161.71 C 145.35,161.72 145.34,161.72 145.33,161.72 C 145.32,161.72 145.31,161.73 145.3,161.73 C 145.28,161.73 145.27,161.73 145.26,161.74 C 145.25,161.74 145.24,161.74 145.22,161.74 C 145.21,161.74 145.2,161.74 145.19,161.74 C 145.17,161.74 145.16,161.74 145.15,161.74 C 145.14,161.74 145.12,161.74 145.11,161.74 C 145.1,161.74 145.09,161.73 145.08,161.73 C 145.06,161.73 145.05,161.73 145.04,161.72 C 145.03,161.72 145.02,161.72 145.0,161.71 C 144.99,161.71 144.98,161.71 144.97,161.7 C 144.96,161.7 144.95,161.69 144.94,161.69 C 144.93,161.68 144.92,161.68 144.91,161.67 C 144.9,161.67 144.9,161.66 144.89,161.66 C 144.8,161.6 144.72,161.54 144.63,161.48 L 144.63,161.48 C 144.55,161.42 144.46,161.36 144.37,161.29 C 144.36,161.29 144.36,161.28 144.35,161.27 C 144.34,161.27 144.33,161.26 144.33,161.25 C 144.32,161.24 144.31,161.24 144.3,161.23 C 144.3,161.22 144.29,161.21 144.28,161.2 C 144.28,161.2 144.27,161.19 144.27,161.18 C 144.26,161.17 144.26,161.16 144.25,161.15 C 144.25,161.14 144.25,161.13 144.24,161.12 C 144.24,161.11 144.24,161.1 144.24,161.09 C 144.23,161.08 144.23,161.07 144.23,161.07 C 144.23,161.06 144.23,161.05 144.23,161.04 C 144.23,161.03 144.23,161.02 144.23,161.01 C 144.24,161.0 144.24,160.99 144.24,160.98 C 144.24,160.97 144.25,160.97 144.25,160.96 C 144.25,160.95 144.26,160.94 144.26,160.93 C 144.27,160.93 144.27,160.92 144.28,160.91 C 144.28,160.91 144.29,160.9 144.29,160.89 C 144.3,160.89 144.31,160.88 144.31,160.88 C 144.68,160.57 145.04,160.27 145.4,159.96 z M 143.01,157.79 C 143.02,157.78 143.02,157.78 143.03,157.77 C 143.04,157.76 143.04,157.76 143.05,157.75 C 143.06,157.75 143.07,157.74 143.07,157.74 C 143.08,157.73 143.09,157.73 143.1,157.72 C 143.11,157.72 143.12,157.72 143.13,157.71 C 143.14,157.71 143.15,157.71 143.16,157.71 C 143.17,157.71 143.18,157.7 143.19,157.7 C 143.2,157.7 143.21,157.7 143.22,157.7 C 143.24,157.71 143.25,157.71 143.26,157.71 C 143.27,157.71 143.28,157.71 143.29,157.72 C 143.31,157.72 143.32,157.72 143.33,157.73 C 143.34,157.73 143.35,157.74 143.36,157.74 C 143.37,157.75 143.38,157.75 143.39,157.76 C 143.41,157.76 143.42,157.77 143.43,157.78 C 143.44,157.78 143.45,157.79 143.46,157.8 C 143.46,157.81 143.47,157.81 143.48,157.82 C 143.49,157.83 143.5,157.84 143.51,157.85 C 143.61,157.95 143.72,158.06 143.83,158.17 C 143.94,158.27 144.05,158.38 144.16,158.48 C 144.17,158.49 144.18,158.5 144.18,158.51 C 144.19,158.51 144.2,158.52 144.21,158.53 C 144.22,158.54 144.22,158.55 144.23,158.56 C 144.24,158.57 144.24,158.58 144.25,158.59 C 144.26,158.6 144.26,158.61 144.27,158.62 C 144.27,158.64 144.28,158.65 144.28,158.66 C 144.29,158.67 144.29,158.68 144.3,158.69 C 144.3,158.7 144.3,158.71 144.3,158.73 C 144.31,158.74 144.31,158.75 144.31,158.76 C 144.31,158.77 144.31,158.78 144.31,158.79 C 144.31,158.8 144.31,158.82 144.31,158.83 C 144.31,158.84 144.3,158.85 144.3,158.86 C 144.3,158.87 144.3,158.88 144.29,158.89 C 144.29,158.9 144.28,158.9 144.28,158.91 C 144.28,158.92 144.27,158.93 144.27,158.94 C 144.26,158.94 144.25,158.95 144.25,158.96 C 144.24,158.96 144.24,158.97 144.23,158.98 C 143.88,159.29 143.53,159.61 143.18,159.92 C 143.17,159.93 143.16,159.93 143.16,159.94 C 143.15,159.94 143.14,159.95 143.13,159.95 C 143.12,159.96 143.12,159.96 143.11,159.97 C 143.1,159.97 143.09,159.97 143.08,159.98 C 143.07,159.98 143.06,159.98 143.05,159.98 C 143.04,159.99 143.03,159.99 143.02,159.99 C 143.01,159.99 143.0,159.99 142.98,159.99 C 142.97,159.99 142.96,159.99 142.95,159.99 C 142.94,159.99 142.93,159.99 142.92,159.99 C 142.9,159.98 142.89,159.98 142.88,159.98 C 142.87,159.98 142.86,159.97 142.85,159.97 C 142.83,159.97 142.82,159.96 142.81,159.96 C 142.8,159.95 142.79,159.95 142.78,159.94 C 142.77,159.94 142.76,159.93 142.75,159.92 C 142.74,159.92 142.73,159.91 142.72,159.9 C 142.71,159.9 142.7,159.89 142.69,159.88 C 142.68,159.88 142.67,159.87 142.66,159.86 C 142.58,159.78 142.5,159.7 142.41,159.62 L 142.41,159.62 C 142.33,159.54 142.25,159.46 142.17,159.38 C 142.16,159.37 142.15,159.36 142.15,159.35 C 142.14,159.34 142.13,159.33 142.12,159.33 C 142.12,159.32 142.11,159.31 142.1,159.3 C 142.1,159.29 142.09,159.28 142.08,159.27 C 142.08,159.25 142.07,159.24 142.07,159.23 C 142.06,159.22 142.06,159.21 142.05,159.2 C 142.05,159.19 142.05,159.18 142.04,159.16 C 142.04,159.15 142.04,159.14 142.04,159.13 C 142.03,159.12 142.03,159.11 142.03,159.09 C 142.03,159.08 142.03,159.07 142.03,159.06 C 142.03,159.05 142.03,159.04 142.03,159.03 C 142.03,159.02 142.03,159.01 142.03,159.0 C 142.04,158.98 142.04,158.97 142.04,158.97 C 142.04,158.96 142.05,158.95 142.05,158.94 C 142.06,158.93 142.06,158.92 142.06,158.91 C 142.07,158.9 142.07,158.9 142.08,158.89 C 142.08,158.88 142.09,158.87 142.09,158.87 C 142.4,158.51 142.71,158.15 143.01,157.79 z M 147.92,147.78 C 147.83,147.61 147.56,147.54 147.42,147.65 C 147.34,147.71 147.29,147.83 147.32,147.92 C 147.38,148.12 147.79,148.21 147.91,148.07 C 147.97,148.0 147.97,147.88 147.92,147.78 z M 147.91,148.31 C 147.69,148.49 147.36,148.64 147.0,148.54 C 146.47,148.38 145.86,147.66 145.95,147.29 C 146.03,146.97 146.68,146.93 147.17,146.99 C 147.76,147.07 148.12,147.27 148.22,147.54 C 148.31,147.78 148.21,148.06 147.91,148.31 z M 150.86,145.3 C 150.91,145.44 151.49,145.45 151.53,145.27 C 151.55,145.19 151.48,145.09 151.38,145.05 C 151.17,144.96 150.82,145.18 150.86,145.3 z M 151.32,144.41 C 151.57,144.58 151.76,144.85 151.76,145.07 C 151.76,145.36 151.43,145.55 151.01,145.64 C 150.44,145.76 149.73,145.66 149.64,145.22 C 149.61,145.04 149.67,144.8 149.78,144.62 C 150.1,144.11 150.81,144.05 151.32,144.41 z M 145.53,143.3 C 145.66,143.38 145.86,143.35 145.96,143.23 C 146.08,143.06 146.0,142.71 145.82,142.65 C 145.65,142.59 145.4,142.82 145.38,143.03 C 145.38,143.14 145.43,143.25 145.53,143.3 z M 145.52,143.86 C 145.07,143.41 144.79,142.51 145.05,142.27 C 145.25,142.08 145.76,142.27 146.26,142.49 C 146.8,142.73 147.33,142.99 147.3,143.36 C 147.28,143.62 146.98,143.93 146.68,144.08 C 146.28,144.28 145.85,144.19 145.52,143.86 z M 145.92,139.18 C 145.93,139.06 145.26,139.13 145.26,139.31 C 145.27,139.38 145.35,139.46 145.42,139.48 C 145.54,139.53 145.64,139.44 145.76,139.34 C 145.84,139.28 145.92,139.22 145.92,139.18 z M 146.3,139.85 C 146.23,139.92 146.17,139.98 146.1,140.03 C 145.91,140.17 145.65,140.21 145.35,140.18 C 144.99,140.15 144.57,140.01 144.47,139.83 C 144.32,139.54 144.99,139.17 145.69,138.93 C 146.3,138.72 146.94,138.62 147.0,138.84 C 147.06,139.04 146.61,139.54 146.3,139.85 z M 149.87,140.13 C 149.79,140.0 149.6,139.98 149.39,140.02 C 149.16,140.07 148.91,140.2 148.93,140.34 C 148.94,140.43 149.08,140.53 149.23,140.59 C 149.44,140.69 149.67,140.72 149.8,140.58 C 149.9,140.47 149.94,140.25 149.87,140.13 z M 150.24,141.26 C 149.97,141.62 149.53,141.78 149.07,141.73 C 148.56,141.68 148.03,141.37 147.91,140.96 C 147.77,140.47 148.19,139.85 148.76,139.57 C 149.31,139.29 150.01,139.33 150.32,139.72 C 150.63,140.11 150.56,140.82 150.24,141.26 z M 155.43,143.42 C 155.45,143.37 155.28,143.29 155.15,143.32 C 155.07,143.33 155.0,143.39 155.01,143.43 C 155.01,143.51 155.41,143.49 155.43,143.42 z M 155.27,142.69 C 155.49,142.87 155.67,143.28 155.57,143.49 C 155.47,143.7 155.08,143.71 154.69,143.64 C 154.18,143.54 153.67,143.3 153.78,143.09 C 153.84,142.97 154.07,142.86 154.29,142.77 C 154.67,142.59 155.0,142.46 155.27,142.69 z M 141.6,148.16 C 143.31,152.29 147.86,156.78 151.58,158.99 C 152.08,159.3 152.6,159.57 153.14,159.82 C 153.26,159.88 153.39,159.93 153.52,159.99 C 153.59,160.01 153.65,160.04 153.71,160.07 C 153.74,160.08 153.78,160.09 153.81,160.1 C 153.82,160.11 153.84,160.12 153.86,160.12 C 153.86,160.13 153.87,160.13 153.88,160.13 C 153.88,160.13 153.89,160.14 153.89,160.14 C 153.9,160.14 153.89,160.14 153.88,160.15 C 153.78,160.2 153.67,160.25 153.57,160.3 C 153.52,160.33 153.46,160.36 153.41,160.38 C 153.39,160.39 153.31,160.44 153.28,160.44 C 153.25,160.44 153.22,160.44 153.2,160.44 C 153.19,160.44 153.18,160.44 153.18,160.44 C 153.15,160.44 153.05,160.51 153.03,160.52 C 152.92,160.57 152.82,160.62 152.72,160.68 C 152.49,160.79 152.26,160.91 152.03,161.03 C 151.93,161.08 151.82,161.15 151.7,161.19 C 151.57,161.24 151.44,161.26 151.3,161.26 C 151.19,161.27 151.31,161.17 151.36,161.14 C 151.56,161.02 151.77,160.92 151.97,160.81 C 152.11,160.74 152.25,160.66 152.39,160.59 C 152.47,160.54 152.56,160.5 152.64,160.45 C 152.66,160.44 152.69,160.43 152.71,160.42 C 152.72,160.41 152.73,160.41 152.74,160.4 C 152.75,160.4 152.75,160.4 152.75,160.39 C 152.74,160.39 152.73,160.39 152.72,160.39 C 152.65,160.38 152.59,160.36 152.52,160.35 C 152.37,160.31 152.21,160.27 152.06,160.21 C 152.04,160.21 152.02,160.2 152.0,160.19 C 151.99,160.19 151.98,160.2 151.97,160.21 C 151.96,160.21 151.94,160.22 151.93,160.23 C 151.9,160.24 151.88,160.26 151.85,160.27 C 151.74,160.33 151.64,160.38 151.53,160.44 C 151.32,160.56 151.11,160.67 150.89,160.79 C 150.71,160.88 150.55,161.0 150.33,161.04 C 150.16,161.08 150.09,161.05 149.93,161.0 C 149.81,160.95 149.7,160.91 149.59,160.86 C 149.53,160.83 149.31,160.75 149.27,160.67 C 149.2,160.53 149.44,160.42 149.52,160.37 C 149.71,160.24 149.91,160.12 150.1,160.0 C 150.29,159.87 150.49,159.75 150.68,159.62 C 150.69,159.62 150.7,159.61 150.69,159.61 C 150.68,159.6 150.68,159.6 150.67,159.6 C 150.66,159.59 150.65,159.59 150.64,159.58 C 150.61,159.57 150.59,159.55 150.57,159.54 C 150.52,159.51 150.47,159.49 150.42,159.46 C 150.22,159.35 150.03,159.23 149.84,159.11 C 149.79,159.08 149.74,159.05 149.69,159.02 C 149.66,159.0 149.64,158.99 149.61,158.97 C 149.6,158.96 149.59,158.95 149.57,158.95 C 149.56,158.94 149.52,158.97 149.51,158.98 C 149.32,159.1 149.13,159.23 148.94,159.35 C 148.77,159.46 148.6,159.57 148.43,159.68 C 148.29,159.78 148.17,159.88 147.98,159.88 C 147.8,159.88 147.69,159.81 147.56,159.72 C 147.43,159.63 147.31,159.55 147.19,159.46 C 147.07,159.37 146.94,159.29 146.82,159.19 C 146.73,159.1 146.67,158.96 146.74,158.84 C 146.79,158.77 147.09,158.53 147.15,158.48 C 147.3,158.35 147.45,158.23 147.6,158.1 C 147.67,158.03 147.74,157.97 147.82,157.91 C 147.85,157.87 147.89,157.84 147.93,157.81 C 147.94,157.8 147.97,157.79 147.95,157.77 C 147.94,157.76 147.93,157.75 147.92,157.75 C 147.83,157.68 147.74,157.61 147.66,157.53 C 147.48,157.39 147.31,157.25 147.14,157.1 C 147.06,157.03 146.97,156.96 146.89,156.88 C 146.85,156.85 146.81,156.81 146.77,156.77 C 146.76,156.77 146.75,156.74 146.73,156.75 C 146.72,156.76 146.7,156.78 146.68,156.79 C 146.64,156.83 146.61,156.86 146.57,156.89 C 146.28,157.14 145.99,157.4 145.7,157.66 C 145.58,157.76 145.48,157.87 145.29,157.83 C 145.11,157.79 145.01,157.67 144.89,157.56 C 144.81,157.48 144.26,156.95 144.19,156.85 C 144.12,156.73 144.08,156.56 144.17,156.43 C 144.22,156.35 144.29,156.29 144.35,156.21 C 144.41,156.14 144.48,156.06 144.54,155.99 C 144.67,155.84 144.79,155.69 144.92,155.54 C 144.98,155.46 145.04,155.38 145.11,155.31 C 145.12,155.29 145.14,155.27 145.15,155.25 C 145.16,155.25 145.16,155.24 145.16,155.24 C 145.17,155.23 145.18,155.23 145.18,155.22 C 145.17,155.22 145.17,155.21 145.16,155.21 C 145.14,155.19 145.12,155.17 145.1,155.15 C 144.8,154.82 144.5,154.49 144.21,154.14 C 144.19,154.12 144.17,154.1 144.15,154.08 C 144.14,154.07 144.13,154.06 144.12,154.05 C 144.12,154.04 144.11,154.03 144.11,154.03 C 144.1,154.02 144.1,154.03 144.1,154.03 C 144.1,154.04 144.09,154.04 144.09,154.05 C 144.03,154.13 143.96,154.2 143.9,154.28 C 143.78,154.43 143.65,154.58 143.53,154.73 C 143.4,154.89 143.28,155.04 143.16,155.19 C 143.06,155.31 142.95,155.35 142.81,155.27 C 142.72,155.22 142.55,154.98 142.5,154.91 C 142.4,154.78 142.3,154.65 142.21,154.52 C 142.11,154.38 142.01,154.26 142.01,154.08 C 142.0,153.87 142.11,153.74 142.21,153.58 C 142.44,153.21 142.67,152.84 142.9,152.47 C 142.91,152.45 142.9,152.44 142.89,152.43 C 142.88,152.41 142.87,152.4 142.86,152.39 C 142.85,152.37 142.83,152.34 142.82,152.32 C 142.78,152.27 142.75,152.23 142.72,152.18 C 142.66,152.09 142.6,152.0 142.54,151.9 C 142.43,151.72 142.32,151.54 142.22,151.36 C 142.21,151.35 142.21,151.35 142.21,151.34 C 142.2,151.33 142.2,151.35 142.2,151.35 C 142.19,151.36 142.19,151.36 142.19,151.37 C 142.17,151.39 142.16,151.42 142.14,151.44 C 142.12,151.49 142.09,151.53 142.06,151.58 C 142.0,151.67 141.95,151.77 141.89,151.86 C 141.77,152.05 141.66,152.24 141.55,152.43 C 141.49,152.52 141.44,152.61 141.38,152.7 C 141.35,152.75 141.31,152.79 141.25,152.8 C 141.12,152.82 141.07,152.66 141.03,152.58 C 140.98,152.47 140.78,152.04 140.78,151.92 C 140.76,151.74 140.82,151.59 140.89,151.44 C 141.0,151.23 141.1,151.03 141.21,150.82 C 141.31,150.61 141.41,150.41 141.52,150.2 C 141.53,150.18 141.54,150.15 141.56,150.13 C 141.56,150.11 141.57,150.1 141.58,150.09 C 141.58,150.08 141.6,150.07 141.59,150.05 C 141.58,150.04 141.58,150.02 141.57,150.0 C 141.56,149.96 141.54,149.92 141.53,149.89 C 141.48,149.75 141.44,149.6 141.4,149.46 C 141.4,149.43 141.39,149.39 141.38,149.36 C 141.38,149.35 141.37,149.33 141.37,149.31 C 141.36,149.29 141.36,149.33 141.35,149.35 C 141.34,149.37 141.33,149.39 141.31,149.42 C 141.29,149.46 141.27,149.5 141.25,149.55 C 141.11,149.82 140.98,150.09 140.84,150.36 C 140.79,150.46 140.74,150.57 140.69,150.67 C 140.66,150.72 140.64,150.77 140.59,150.81 C 140.53,150.87 140.54,150.76 140.54,150.7 C 140.55,150.56 140.58,150.43 140.64,150.3 C 140.7,150.15 140.77,150.01 140.84,149.87 C 140.9,149.74 140.96,149.61 141.02,149.49 C 141.06,149.4 141.11,149.31 141.15,149.22 C 141.18,149.17 141.2,149.12 141.23,149.06 C 141.24,149.03 141.26,149.0 141.27,148.97 C 141.28,148.96 141.31,148.9 141.31,148.89 C 141.31,148.86 141.31,148.83 141.31,148.8 C 141.31,148.73 141.35,148.69 141.37,148.63 C 141.45,148.47 141.52,148.31 141.6,148.16 z M 147.97,136.69 C 148.07,136.67 148.17,136.66 148.28,136.64 C 148.51,136.61 148.74,136.6 148.97,136.59 C 148.97,136.59 148.97,136.59 148.97,136.59 C 148.87,136.72 149.46,137.2 149.59,137.13 C 149.68,137.08 149.54,136.75 149.32,136.62 C 149.3,136.61 149.28,136.6 149.25,136.59 C 149.26,136.59 149.26,136.59 149.27,136.59 C 149.43,136.59 149.59,136.6 149.75,136.62 C 149.79,136.68 149.82,136.76 149.83,136.85 C 149.88,137.17 149.72,137.66 149.4,137.8 C 149.07,137.94 148.56,137.72 148.26,137.37 C 148.09,137.16 147.99,136.92 147.97,136.69 z M 148.05,151.55 C 148.06,151.55 148.07,151.55 148.08,151.55 C 148.29,151.52 148.46,151.24 148.4,151.02 C 148.36,150.9 148.26,150.79 148.16,150.78 C 148.15,150.78 148.14,150.78 148.13,150.78 C 147.87,150.79 147.58,151.34 148.05,151.55 z M 147.72,152.13 C 147.65,152.16 147.59,152.14 147.53,152.1 C 147.46,152.05 147.39,151.98 147.33,151.9 C 147.02,151.44 147.19,150.67 147.43,150.09 C 147.47,150.0 147.51,149.91 147.6,149.85 C 147.71,149.81 147.82,149.79 147.93,149.78 C 148.39,149.74 148.71,149.9 148.83,150.2 C 148.96,150.55 148.8,151.08 148.19,151.76 C 148.12,151.83 148.05,151.91 147.97,151.98 C 147.88,152.05 147.8,152.11 147.72,152.13 z M 150.82,147.55 C 150.59,147.39 150.33,147.28 150.22,147.39 C 150.14,147.47 150.13,147.68 150.19,147.82 C 150.25,147.94 150.36,148.0 150.5,148.04 C 150.6,147.87 150.71,147.71 150.82,147.55 z M 154.39,138.81 C 154.33,138.85 154.42,139.09 154.59,139.19 C 154.69,139.25 154.81,139.26 154.84,139.22 C 154.92,139.12 154.49,138.76 154.39,138.81 z M 142.52,144.7 C 142.54,144.63 142.3,144.52 142.12,144.56 C 142.0,144.58 141.91,144.66 141.91,144.71 C 141.92,144.83 142.48,144.81 142.52,144.7 z M 164.77,148.65 C 163.18,146.18 160.2,144.69 157.26,144.94 C 155.77,145.07 154.53,145.62 153.39,146.58 C 152.32,147.48 151.48,148.64 150.86,149.88 C 150.45,150.71 150.15,151.56 149.92,152.46 C 149.87,152.66 149.84,152.86 149.85,153.07 C 149.86,153.22 149.88,153.34 149.97,153.47 C 150.16,153.72 150.51,153.67 150.75,153.61 C 151.09,153.51 151.78,153.22 151.8,153.8 C 151.82,154.19 151.55,154.82 151.44,155.16 C 151.34,155.46 151.23,155.83 151.32,156.15 C 151.38,156.38 151.5,156.48 151.72,156.56 C 152.09,156.69 152.8,156.63 153.17,156.68 C 153.76,156.75 154.02,157.04 154.0,157.64 C 154.0,157.82 153.97,158.01 153.96,158.19 C 153.95,158.29 153.93,158.5 154.03,158.58 C 154.14,158.68 154.37,158.54 154.46,158.49 C 154.71,158.35 154.95,158.18 155.19,158.01 C 155.45,157.83 155.71,157.65 155.99,157.49 C 156.15,157.4 156.41,157.24 156.61,157.26 C 156.83,157.28 156.83,157.53 156.82,157.69 C 156.8,157.94 156.71,158.36 156.85,158.63 C 157.14,159.15 158.31,159.12 158.73,159.1 C 158.9,159.1 159.08,159.09 159.25,159.07 C 159.32,159.07 159.39,159.06 159.46,159.05 C 159.5,159.05 159.53,159.05 159.56,159.04 C 159.58,159.04 159.59,159.04 159.61,159.04 C 159.61,159.04 159.62,159.03 159.62,159.04 C 159.62,159.05 159.61,159.05 159.61,159.06 C 159.51,159.23 159.39,159.38 159.25,159.53 C 159.12,159.67 158.97,159.8 158.81,159.92 C 158.71,159.99 158.51,160.14 158.37,160.16 C 158.19,160.19 158.02,160.21 157.84,160.2 C 156.83,160.2 155.77,159.8 154.89,159.4 C 152.3,158.21 149.64,156.09 147.64,154.13 C 146.63,153.14 145.69,152.1 144.81,151.0 C 144.38,150.45 143.97,149.89 143.58,149.31 C 143.39,149.04 143.21,148.76 143.04,148.47 C 142.96,148.34 142.88,148.2 142.8,148.06 C 142.78,148.03 142.76,147.99 142.74,147.96 C 142.73,147.94 142.72,147.93 142.71,147.91 C 142.71,147.9 142.71,147.9 142.7,147.9 C 142.7,147.89 142.7,147.88 142.7,147.89 C 142.69,147.89 142.67,147.89 142.66,147.9 C 142.57,147.93 142.48,147.95 142.39,147.97 C 142.2,148.0 142.03,148.0 141.85,147.9 C 141.76,147.86 141.69,147.8 141.63,147.72 C 141.57,147.65 141.54,147.57 141.51,147.48 C 141.49,147.4 141.46,147.31 141.43,147.23 C 141.4,147.14 141.39,147.05 141.38,146.96 C 141.37,146.77 141.37,146.58 141.38,146.4 C 141.39,146.02 141.41,145.65 141.39,145.28 C 141.37,144.9 141.32,144.53 141.27,144.16 C 141.26,144.07 141.42,143.72 141.45,143.66 C 141.47,143.62 141.49,143.58 141.51,143.54 C 141.52,143.52 141.53,143.5 141.54,143.48 C 141.54,143.47 141.55,143.47 141.55,143.46 C 141.55,143.46 141.55,143.47 141.55,143.47 C 141.55,143.48 141.55,143.49 141.55,143.5 C 141.55,143.57 141.56,143.64 141.56,143.71 C 141.57,143.85 141.58,144.0 141.6,144.14 C 141.61,144.21 141.62,144.29 141.63,144.36 C 141.63,144.38 141.63,144.4 141.63,144.42 C 141.64,144.45 141.67,144.42 141.69,144.41 C 141.75,144.38 141.8,144.36 141.85,144.33 C 142.16,144.2 142.63,143.96 143.01,144.09 C 143.39,144.21 143.68,144.75 143.7,145.11 C 143.74,145.72 142.95,145.65 142.55,145.58 C 142.39,145.56 142.24,145.53 142.09,145.48 C 142.01,145.46 141.94,145.44 141.86,145.41 C 141.83,145.4 141.79,145.39 141.76,145.38 C 141.75,145.37 141.72,145.34 141.72,145.37 C 141.72,145.38 141.72,145.39 141.72,145.41 C 141.73,145.65 141.72,145.9 141.71,146.15 C 141.7,146.41 141.69,146.67 141.71,146.93 C 141.72,147.11 141.75,147.35 141.87,147.51 C 142.01,147.68 142.2,147.68 142.38,147.64 C 142.69,147.57 142.96,147.43 143.24,147.3 C 143.53,147.17 143.81,147.02 144.12,146.94 C 144.3,146.89 144.53,146.85 144.69,147.02 C 144.83,147.19 144.85,147.47 144.86,147.66 C 144.88,147.96 144.86,148.26 144.85,148.57 C 144.83,148.86 144.81,149.16 144.84,149.46 C 144.86,149.64 144.9,149.9 145.06,150.04 C 145.32,150.26 145.91,150.07 146.15,150.0 C 146.35,149.95 146.56,149.89 146.76,150.01 C 146.86,150.08 146.95,150.18 146.96,150.31 C 146.97,150.42 146.93,150.52 146.91,150.63 C 146.88,150.76 146.87,150.89 146.86,151.03 C 146.85,151.15 146.84,151.27 146.85,151.39 C 146.87,151.66 146.94,151.89 147.1,152.12 C 147.2,152.27 147.31,152.37 147.47,152.44 C 147.62,152.5 147.86,152.55 148.02,152.55 C 148.17,152.54 148.3,152.51 148.43,152.46 C 148.52,152.43 148.6,152.4 148.68,152.37 C 148.71,152.36 148.73,152.35 148.75,152.34 C 148.77,152.33 148.79,152.33 148.79,152.31 C 148.8,152.28 148.81,152.25 148.81,152.23 C 148.87,152.02 148.93,151.82 149.0,151.61 C 149.22,150.9 149.45,150.2 149.74,149.52 C 149.82,149.34 149.89,149.18 149.97,149.01 C 150.01,148.92 150.05,148.84 150.1,148.76 C 150.12,148.72 150.14,148.67 150.16,148.63 C 150.17,148.61 150.18,148.59 150.19,148.57 C 150.2,148.56 150.2,148.55 150.21,148.54 C 150.22,148.53 150.2,148.52 150.19,148.52 C 149.9,148.26 149.62,147.83 149.49,147.47 C 149.39,147.2 149.33,146.86 149.71,146.81 C 149.9,146.78 150.07,146.82 150.25,146.87 C 150.49,146.92 150.71,147.01 150.94,147.11 C 150.97,147.12 151.0,147.13 151.03,147.15 C 151.05,147.15 151.06,147.16 151.08,147.17 C 151.08,147.17 151.09,147.18 151.1,147.17 C 151.1,147.17 151.1,147.16 151.11,147.16 C 151.14,147.12 151.16,147.08 151.19,147.05 C 151.25,146.98 151.31,146.9 151.37,146.83 C 151.49,146.69 151.61,146.55 151.74,146.42 C 152.0,146.15 152.26,145.89 152.55,145.65 C 153.68,144.68 155.02,143.98 156.52,143.77 C 156.7,143.74 156.89,143.73 157.07,143.72 C 157.17,143.71 157.26,143.71 157.35,143.71 C 157.37,143.71 157.41,143.72 157.4,143.69 C 157.4,143.67 157.4,143.66 157.39,143.64 C 157.39,143.6 157.38,143.57 157.37,143.53 C 157.32,143.24 157.25,142.96 157.17,142.67 C 157.0,142.09 156.77,141.53 156.48,140.99 C 156.17,140.4 155.8,139.86 155.36,139.36 C 155.33,139.33 155.3,139.3 155.28,139.27 C 155.27,139.26 155.26,139.25 155.25,139.25 C 155.25,139.24 155.25,139.22 155.23,139.23 C 155.21,139.25 155.19,139.26 155.17,139.28 C 155.09,139.35 155.01,139.4 154.91,139.45 C 154.71,139.54 154.51,139.58 154.29,139.58 C 153.88,139.59 153.37,139.4 153.11,139.06 C 152.84,138.7 153.1,138.36 153.38,138.13 C 153.48,138.05 153.57,137.99 153.68,137.93 C 153.69,137.92 153.7,137.91 153.72,137.91 C 153.73,137.9 153.71,137.9 153.71,137.9 C 153.7,137.9 153.7,137.89 153.69,137.89 C 153.68,137.88 153.66,137.87 153.64,137.86 C 153.62,137.84 153.61,137.83 153.59,137.82 C 153.59,137.82 153.58,137.82 153.58,137.81 C 153.57,137.81 153.56,137.81 153.57,137.8 C 153.57,137.79 153.58,137.79 153.58,137.78 C 153.68,137.63 153.77,137.49 153.87,137.36 C 154.29,136.78 154.76,136.29 155.32,135.85 C 157.55,134.05 160.58,133.6 163.24,134.66 C 165.99,135.76 167.9,138.28 168.21,141.22 C 168.52,144.14 167.2,147.0 164.77,148.65 z M 145.01,163.21 C 145.02,163.21 145.02,163.2 145.03,163.2 C 145.03,163.2 145.04,163.19 145.05,163.19 C 145.05,163.19 145.06,163.19 145.07,163.18 C 145.07,163.18 145.08,163.18 145.09,163.17 C 145.1,163.17 145.11,163.17 145.11,163.17 C 145.12,163.17 145.13,163.16 145.14,163.16 C 145.15,163.16 145.16,163.16 145.16,163.16 C 145.17,163.16 145.18,163.15 145.19,163.15 C 145.2,163.15 145.21,163.15 145.22,163.15 C 145.23,163.15 145.23,163.15 145.24,163.15 C 145.25,163.15 145.26,163.15 145.27,163.15 C 145.28,163.15 145.29,163.15 145.29,163.15 C 145.3,163.15 145.31,163.15 145.32,163.16 C 145.32,163.16 145.33,163.16 145.34,163.16 C 145.35,163.16 145.35,163.16 145.36,163.16 C 145.36,163.17 145.37,163.17 145.38,163.17 C 145.38,163.17 145.39,163.18 145.39,163.18 C 145.48,163.22 145.56,163.25 145.64,163.28 L 145.64,163.28 C 145.72,163.32 145.8,163.35 145.88,163.37 C 145.88,163.38 145.89,163.38 145.89,163.38 C 145.9,163.38 145.9,163.38 145.9,163.39 C 145.91,163.39 145.91,163.39 145.92,163.39 C 145.92,163.4 145.92,163.4 145.92,163.4 C 145.93,163.4 145.93,163.41 145.93,163.41 C 145.93,163.41 145.93,163.42 145.94,163.42 C 145.94,163.42 145.94,163.43 145.94,163.43 C 145.94,163.43 145.94,163.44 145.94,163.44 C 145.94,163.45 145.93,163.45 145.93,163.45 C 145.93,163.46 145.93,163.46 145.93,163.47 C 145.93,163.47 145.92,163.47 145.92,163.48 C 145.92,163.48 145.91,163.49 145.91,163.49 C 145.91,163.49 145.9,163.5 145.9,163.5 C 145.89,163.5 145.89,163.51 145.88,163.51 C 145.88,163.52 145.87,163.52 145.87,163.52 C 145.86,163.53 145.86,163.53 145.85,163.53 C 145.85,163.54 145.84,163.54 145.83,163.54 C 145.23,163.87 144.62,164.2 144.02,164.54 C 144.01,164.54 144.01,164.54 144.0,164.54 C 144.0,164.55 143.99,164.55 143.98,164.55 C 143.98,164.56 143.97,164.56 143.96,164.56 C 143.96,164.57 143.95,164.57 143.94,164.57 C 143.93,164.57 143.93,164.58 143.92,164.58 C 143.91,164.58 143.9,164.58 143.89,164.59 C 143.89,164.59 143.88,164.59 143.87,164.59 C 143.86,164.59 143.85,164.6 143.84,164.6 C 143.84,164.6 143.83,164.6 143.82,164.6 C 143.81,164.6 143.8,164.6 143.8,164.6 C 143.79,164.6 143.78,164.6 143.77,164.61 C 143.76,164.61 143.76,164.61 143.75,164.61 C 143.74,164.61 143.74,164.61 143.73,164.6 C 143.72,164.6 143.72,164.6 143.71,164.6 C 143.7,164.6 143.7,164.6 143.69,164.6 C 143.69,164.6 143.68,164.6 143.67,164.6 C 143.67,164.6 143.67,164.59 143.66,164.59 C 143.61,164.57 143.55,164.55 143.5,164.53 C 143.44,164.51 143.39,164.48 143.33,164.46 C 143.32,164.46 143.32,164.45 143.31,164.45 C 143.31,164.45 143.3,164.45 143.3,164.44 C 143.3,164.44 143.29,164.44 143.29,164.43 C 143.29,164.43 143.28,164.43 143.28,164.42 C 143.28,164.42 143.27,164.42 143.27,164.41 C 143.27,164.41 143.27,164.4 143.26,164.4 C 143.26,164.4 143.26,164.39 143.26,164.39 C 143.26,164.38 143.26,164.38 143.26,164.37 C 143.26,164.37 143.26,164.36 143.26,164.36 C 143.26,164.36 143.26,164.35 143.26,164.35 C 143.26,164.34 143.27,164.34 143.27,164.33 C 143.27,164.33 143.27,164.32 143.28,164.32 C 143.28,164.31 143.28,164.31 143.29,164.31 C 143.29,164.3 143.29,164.3 143.3,164.29 C 143.3,164.29 143.3,164.29 143.31,164.28 C 143.31,164.28 143.32,164.27 143.32,164.27 C 143.33,164.27 143.33,164.26 143.34,164.26 C 143.9,163.91 144.45,163.56 145.01,163.21 z"
		 />

		<!-- Prism Reference -->
		<cam mingh:cam="--verb EditSelectAll --verb ZoomSelection --verb FileSave " /> 
	 </g>

</svg>
