<svg
   xmlns:xlink="http://www.w3.org/1999/xlink"
   xmlns:svg="http://www.w3.org/2000/svg"
   xmlns="http://www.w3.org/2000/svg"
   xmlns:mingh="http://www.minghworld.com"
   width="300px"
   height="300px" >
	
	 <g>
		
		<!-- Paths -->
		<path style="fill:none;stroke:#000;stroke-width:0.25px;"
		 d="M 148.81,129.34 C 147.77,129.4 146.75,129.87 146.0,130.72 C 144.85,132.02 144.65,133.92 145.5,135.44 C 145.71,135.81 145.97,136.12 146.28,136.41 C 146.36,136.48 146.42,136.56 146.5,136.63 C 146.59,136.69 146.7,136.74 146.78,136.81 C 146.92,136.93 146.95,137.13 146.84,137.28 C 146.81,137.33 146.77,137.37 146.72,137.41 C 146.53,137.56 146.35,137.72 146.19,137.91 C 145.86,138.27 145.57,138.69 145.25,139.06 C 144.93,139.44 144.64,139.79 144.44,140.25 C 144.17,140.87 144.24,141.02 143.84,141.59 C 143.56,142.0 143.22,142.34 142.81,142.63 C 142.01,143.19 141.0,143.43 140.06,143.56 C 139.34,143.66 138.63,143.69 137.91,143.69 C 137.23,143.69 136.44,143.8 135.91,144.34 C 135.78,144.48 135.67,144.59 135.63,144.78 C 135.58,144.98 135.64,145.15 135.66,145.34 C 135.67,145.53 135.61,145.6 135.44,145.63 C 135.26,145.65 135.07,145.65 134.91,145.72 C 134.18,146.03 133.91,146.78 133.59,147.38 C 133.17,148.18 133.02,148.47 132.84,149.38 C 132.77,149.78 132.68,150.05 132.47,150.41 C 132.29,150.72 132.05,150.97 131.88,151.28 C 131.78,151.44 131.71,151.62 131.69,151.81 C 131.67,152.0 131.74,152.17 131.78,152.34 C 131.83,152.55 131.8,152.65 131.72,152.84 C 131.65,153.01 131.58,153.19 131.56,153.38 C 131.55,153.56 131.57,153.73 131.56,153.91 C 131.55,154.09 131.52,154.26 131.5,154.44 C 131.45,154.79 131.41,155.15 131.34,155.5 C 131.28,155.82 131.17,156.15 131.09,156.47 C 131.02,156.79 130.95,157.11 130.91,157.44 C 130.87,157.76 130.84,158.08 130.84,158.41 C 130.85,158.73 130.91,159.08 130.91,159.41 C 130.9,159.74 130.81,160.05 130.75,160.38 C 130.69,160.7 130.7,161.01 130.69,161.34 C 130.67,161.94 130.7,162.73 130.81,163.31 C 130.88,163.63 130.94,163.96 131.0,164.28 C 131.08,164.71 131.11,164.81 131.13,165.25 C 131.13,165.52 131.12,165.93 131.41,166.13 C 131.54,166.22 131.7,166.28 131.84,166.34 C 132.06,166.44 132.24,166.53 132.34,166.78 C 132.42,166.96 132.45,167.28 132.41,167.47 C 132.4,167.51 132.38,167.55 132.38,167.59 C 132.36,167.77 132.37,167.93 132.44,168.09 C 132.57,168.4 132.86,168.62 133.19,168.69 C 133.4,168.73 133.92,168.69 134.13,168.66 C 134.31,168.63 134.51,168.56 134.69,168.5 C 134.79,168.47 134.99,168.39 135.0,168.56 C 135.0,168.67 134.95,168.91 135.0,169.03 C 135.06,169.17 135.33,169.18 135.44,169.19 C 135.81,169.2 136.17,169.24 136.53,169.28 C 136.89,169.32 137.26,169.34 137.59,169.53 C 137.75,169.62 137.9,169.72 138.06,169.81 C 138.22,169.9 138.36,169.99 138.53,170.06 C 138.86,170.2 139.21,170.3 139.56,170.41 C 139.91,170.51 140.26,170.63 140.63,170.66 C 140.81,170.67 140.98,170.66 141.16,170.63 C 141.33,170.59 141.51,170.54 141.69,170.53 C 141.84,170.52 142.63,170.53 142.78,170.53 C 143.14,170.53 143.51,170.54 143.88,170.56 C 144.6,170.6 145.31,170.61 146.03,170.59 C 146.46,170.58 146.68,170.5 146.97,170.19 C 147.06,170.09 147.12,169.99 147.25,169.94 C 147.39,169.89 147.61,169.9 147.75,169.91 C 148.12,169.92 148.48,169.84 148.84,169.78 C 149.2,169.72 149.56,169.64 149.91,169.53 C 150.25,169.42 150.59,169.32 150.91,169.13 C 151.06,169.03 151.21,168.92 151.38,168.84 C 151.54,168.76 151.7,168.74 151.88,168.72 C 152.65,168.64 153.01,168.04 153.38,167.5 C 153.61,167.15 153.68,167.29 153.97,167.47 C 154.12,167.56 154.26,167.59 154.44,167.53 C 154.61,167.47 154.75,167.37 154.91,167.28 C 155.2,167.11 155.48,166.95 155.75,166.75 C 156.02,166.54 156.42,166.26 156.63,165.97 C 156.74,165.81 156.88,165.7 157.03,165.59 C 157.23,165.45 157.42,165.34 157.66,165.25 C 157.79,165.2 157.92,165.16 158.06,165.13 C 158.11,165.11 158.17,165.11 158.22,165.09 C 158.34,165.05 158.48,165.0 158.59,164.94 C 158.85,164.79 159.06,164.62 159.28,164.44 C 159.54,164.22 159.79,163.99 160.0,163.72 C 160.21,163.45 160.38,163.14 160.59,162.88 C 161.03,162.33 161.58,161.99 162.13,161.59 C 163.24,160.79 164.14,159.85 164.97,158.75 C 165.4,158.18 165.79,157.58 166.13,156.94 C 166.51,156.2 166.69,155.73 166.94,154.94 C 167.15,154.25 167.34,153.58 167.47,152.88 C 167.5,152.7 167.54,152.52 167.56,152.34 C 167.58,152.16 167.6,151.96 167.63,151.78 C 167.68,151.33 167.79,151.19 168.0,150.81 C 168.18,150.5 168.32,150.16 168.41,149.81 C 168.5,149.46 168.58,149.14 168.63,148.78 C 168.67,148.42 168.7,148.05 168.63,147.69 C 168.53,147.25 168.35,147.1 168.16,146.72 C 167.96,146.33 167.96,146.1 168.25,145.75 C 168.48,145.47 168.78,145.25 169.0,144.97 C 169.2,144.71 169.39,144.36 169.31,144.0 C 169.24,143.7 168.97,143.28 168.66,143.19 C 168.44,143.09 168.19,143.07 167.97,143.03 C 167.71,142.98 167.54,142.92 167.5,142.63 C 167.46,142.28 167.65,141.99 167.72,141.69 C 167.76,141.53 167.73,141.38 167.69,141.22 C 167.6,140.88 167.41,140.68 167.16,140.47 C 166.66,140.04 166.1,139.75 165.5,139.5 C 165.21,139.37 164.94,139.24 164.63,139.16 C 164.31,139.07 163.97,139.06 163.66,139.0 C 163.12,138.9 162.33,138.68 161.81,138.5 C 161.21,138.28 160.61,138.05 160.0,137.84 C 159.39,137.64 158.82,137.44 158.19,137.31 C 157.87,137.25 157.54,137.22 157.22,137.25 C 156.81,137.29 156.7,137.35 156.28,137.28 C 155.96,137.23 155.66,137.15 155.34,137.09 C 155.19,137.06 155.03,137.03 154.88,136.97 C 154.72,136.91 154.56,136.84 154.41,136.78 C 154.04,136.65 153.88,136.99 153.91,137.31 C 153.91,137.41 153.92,137.5 153.94,137.59 C 153.95,137.66 153.99,137.74 153.97,137.81 C 153.95,137.87 153.89,137.86 153.84,137.84 C 153.77,137.82 153.72,137.79 153.66,137.75 C 153.38,137.57 153.11,137.34 152.84,137.16 C 152.71,137.07 152.58,136.98 152.44,136.91 C 152.37,136.87 152.32,136.84 152.25,136.81 C 152.19,136.79 152.12,136.76 152.06,136.72 C 151.96,136.64 151.93,136.57 151.94,136.44 C 151.94,136.32 151.99,136.23 152.06,136.16 C 153.59,134.48 153.47,131.92 151.78,130.41 C 150.94,129.65 149.86,129.28 148.81,129.34 z M 149.16,131.47 C 149.33,131.48 149.49,131.51 149.66,131.56 C 149.98,131.67 150.27,131.87 150.5,132.13 C 150.73,132.38 150.9,132.7 150.97,133.03 C 151.04,133.36 151.01,133.71 150.91,134.03 C 150.8,134.35 150.6,134.65 150.34,134.88 C 150.09,135.1 149.77,135.27 149.44,135.34 C 149.1,135.41 148.76,135.39 148.44,135.28 C 148.11,135.17 147.82,134.97 147.59,134.72 C 147.37,134.46 147.19,134.15 147.13,133.81 C 147.06,133.48 147.08,133.14 147.19,132.81 C 147.29,132.49 147.5,132.19 147.75,131.97 C 148.0,131.74 148.32,131.57 148.66,131.5 C 148.82,131.47 148.99,131.46 149.16,131.47 z M 161.94,145.0 C 162.05,145.0 162.16,144.98 162.16,145.06 C 162.14,145.29 161.9,145.48 161.69,145.69 C 161.46,145.92 161.27,146.22 161.09,146.5 C 161.0,146.65 160.92,146.79 160.81,146.94 C 160.7,147.1 160.58,147.26 160.44,147.41 C 160.13,147.73 159.74,147.98 159.41,148.28 C 159.07,148.58 158.76,148.92 158.38,149.16 C 158.24,149.24 158.12,149.32 157.97,149.38 C 157.78,149.45 157.57,149.5 157.38,149.56 C 157.18,149.62 157.0,149.67 156.81,149.75 C 156.61,149.84 156.39,149.99 156.22,150.13 C 156.04,150.26 155.9,150.4 155.75,150.56 C 155.36,150.99 155.01,151.45 154.59,151.84 C 154.38,152.04 154.16,152.24 153.94,152.44 C 153.72,152.63 153.49,152.82 153.28,153.03 C 153.15,153.16 153.03,153.3 152.91,153.44 C 152.83,153.52 152.76,153.61 152.69,153.69 C 152.64,153.74 152.58,153.79 152.53,153.84 C 152.32,154.06 152.11,154.25 151.88,154.44 C 151.64,154.62 151.41,154.78 151.16,154.94 C 150.55,155.32 149.89,155.63 149.22,155.91 C 149.0,156.0 148.78,156.08 148.56,156.19 C 148.54,156.2 148.52,156.21 148.5,156.22 C 148.26,156.33 148.03,156.47 147.78,156.56 C 147.7,156.59 147.61,156.61 147.53,156.63 C 147.45,156.64 147.39,156.68 147.31,156.69 C 146.92,156.75 146.51,156.73 146.13,156.81 C 145.92,156.86 145.7,156.92 145.5,157.0 C 145.22,157.1 144.96,157.22 144.72,157.38 C 144.59,157.46 144.48,157.55 144.38,157.66 C 144.17,157.86 143.99,158.11 143.78,158.31 C 143.42,158.66 142.92,158.84 142.5,159.13 C 142.43,159.17 142.35,159.23 142.28,159.28 C 142.23,159.32 142.2,159.37 142.16,159.41 C 141.8,159.72 141.5,160.09 141.13,160.38 C 140.9,160.55 140.64,160.68 140.44,160.88 C 140.36,160.95 140.29,161.04 140.22,161.13 C 140.19,161.16 140.15,161.19 140.13,161.22 C 140.0,161.38 139.89,161.53 139.75,161.69 C 139.47,162.0 139.12,162.23 138.75,162.44 C 138.68,162.48 138.6,162.52 138.53,162.56 C 138.22,162.73 137.91,162.89 137.63,163.09 C 137.55,163.15 137.47,163.19 137.41,163.25 C 137.12,163.49 136.89,163.73 136.69,163.81 C 136.61,163.85 136.64,163.73 136.69,163.59 C 136.78,163.31 136.86,163.01 137.0,162.75 C 137.08,162.6 137.18,162.48 137.28,162.34 C 137.5,162.06 137.73,161.77 137.91,161.47 C 138.1,161.13 138.24,160.77 138.44,160.44 C 138.47,160.38 138.53,160.34 138.56,160.28 C 138.7,160.07 138.85,159.84 139.03,159.66 C 139.19,159.49 139.37,159.37 139.56,159.25 C 139.78,159.11 140.01,158.98 140.25,158.88 C 140.49,158.77 140.73,158.65 140.94,158.5 C 141.16,158.34 141.37,158.14 141.56,157.94 C 141.66,157.84 141.75,157.75 141.84,157.66 C 141.89,157.61 141.92,157.57 141.97,157.53 C 142.11,157.39 142.26,157.26 142.41,157.13 C 142.57,156.98 142.73,156.85 142.91,156.72 C 143.36,156.38 143.85,156.07 144.28,155.72 C 144.36,155.65 144.45,155.6 144.53,155.53 C 144.67,155.4 144.82,155.27 144.94,155.13 C 144.96,155.1 144.98,155.06 145.0,155.03 C 145.08,154.92 145.15,154.78 145.22,154.66 C 145.39,154.32 145.51,153.97 145.66,153.63 C 145.73,153.45 145.8,153.28 145.91,153.13 C 146.05,152.91 146.22,152.74 146.41,152.56 C 146.78,152.22 147.2,151.93 147.63,151.66 C 147.93,151.46 148.23,151.26 148.56,151.13 C 148.74,151.06 148.94,151.01 149.13,150.97 C 149.59,150.87 150.05,150.84 150.53,150.81 C 150.81,150.8 151.11,150.79 151.38,150.72 C 151.58,150.67 151.78,150.57 151.97,150.47 C 152.4,150.24 152.77,149.9 153.16,149.59 C 153.54,149.29 153.94,149.0 154.34,148.72 C 154.74,148.43 155.14,148.15 155.53,147.84 C 155.92,147.54 156.29,147.22 156.72,146.97 C 157.35,146.6 158.08,146.4 158.72,146.03 C 158.92,145.91 159.12,145.79 159.31,145.66 C 159.51,145.53 159.7,145.39 159.91,145.28 C 159.97,145.25 160.03,145.25 160.09,145.22 C 160.16,145.19 160.25,145.14 160.31,145.13 C 160.48,145.07 160.64,145.05 160.81,145.03 C 161.18,144.99 161.56,145.01 161.94,145.0 z"
		 />
		 <path style="fill:#f00;stroke:none;"
		 d="M 160.62,150.96 C 160.05,150.33 159.76,149.92 159.77,149.67 C 159.78,149.54 159.85,149.46 160.02,149.4 C 160.19,149.33 160.45,149.28 160.73,149.31 C 161.01,149.35 161.3,149.46 161.55,149.65 C 161.81,149.85 162.03,150.14 162.2,150.43 C 162.37,150.73 162.49,151.02 162.47,151.27 C 162.45,151.52 162.29,151.72 162.17,151.8 C 162.05,151.89 161.98,151.85 161.87,151.81 C 161.76,151.77 161.62,151.72 161.48,151.65 C 161.2,151.51 160.9,151.26 160.62,150.96 z M 148.61,144.37 C 148.65,145.02 148.14,145.66 147.88,145.35 C 147.8,145.26 147.8,145.04 147.88,144.86 C 147.94,144.67 147.83,144.34 147.52,144.0 C 147.44,143.92 147.35,143.83 147.27,143.78 C 147.19,143.73 147.13,143.7 147.06,143.71 C 146.93,143.72 146.79,143.85 146.58,144.11 C 146.18,144.61 146.0,144.64 145.53,144.32 C 145.23,144.12 144.63,143.84 144.22,143.7 C 143.63,143.52 143.6,143.33 143.74,143.2 C 143.88,143.06 144.19,142.98 144.44,142.97 C 144.82,142.95 144.85,142.91 144.59,142.74 C 144.34,142.58 144.52,142.17 144.87,141.83 C 145.04,141.66 145.26,141.51 145.46,141.4 C 145.67,141.3 145.86,141.24 146.08,141.29 C 146.29,141.34 146.53,141.49 146.8,141.72 C 147.07,141.95 147.36,142.24 147.64,142.57 C 148.18,143.21 148.61,143.93 148.61,144.37 z M 165.12,152.61 C 164.72,152.48 165.03,151.87 165.48,151.54 C 165.92,151.21 166.51,151.16 166.71,151.4 C 166.9,151.64 166.71,152.18 166.36,152.46 C 166.0,152.74 165.49,152.76 165.12,152.61 z M 137.48,146.48 C 137.34,146.2 137.52,145.83 137.8,145.72 C 138.08,145.61 138.47,145.76 138.58,146.02 C 138.69,146.28 138.53,146.65 138.25,146.78 C 137.98,146.9 137.59,146.78 137.48,146.48 z M 142.27,145.93 C 141.91,145.58 141.71,145.09 141.81,144.89 C 141.91,144.7 142.3,144.81 142.68,145.22 C 142.87,145.43 143.05,145.71 143.15,146.01 C 143.24,146.3 143.23,146.61 143.11,147.19 C 143.04,147.48 142.95,147.83 142.84,148.09 C 142.72,148.35 142.59,148.51 142.43,148.61 C 142.11,148.81 141.68,148.75 141.07,148.45 C 139.98,147.89 139.83,146.86 140.9,147.43 C 141.36,147.66 141.85,147.58 142.28,147.18 C 142.39,147.08 142.49,146.96 142.56,146.86 C 142.63,146.75 142.65,146.66 142.65,146.57 C 142.65,146.38 142.52,146.18 142.27,145.93 z M 152.62,139.32 C 152.34,139.06 152.4,138.63 152.69,138.45 C 152.99,138.27 153.51,138.34 153.76,138.58 C 154.0,138.82 153.96,139.24 153.68,139.43 C 153.4,139.62 152.88,139.59 152.62,139.32 z M 157.69,139.14 C 157.14,138.75 156.82,138.53 156.76,138.34 C 156.71,138.16 156.91,138.01 157.26,138.05 C 157.6,138.1 158.09,138.34 158.49,138.69 C 158.69,138.87 158.86,139.07 158.94,139.23 C 159.02,139.39 158.99,139.5 158.95,139.57 C 158.86,139.7 158.69,139.64 158.46,139.54 C 158.24,139.45 157.96,139.32 157.69,139.14 z M 159.47,139.41 C 159.24,139.2 159.26,138.85 159.48,138.69 C 159.7,138.54 160.11,138.57 160.32,138.77 C 160.52,138.96 160.52,139.31 160.31,139.48 C 160.1,139.64 159.68,139.63 159.47,139.41 z M 150.43,137.47 C 150.72,137.35 151.18,137.49 151.52,137.73 C 151.86,137.98 152.1,138.34 152.13,138.6 C 152.17,138.87 152.01,139.04 151.78,139.07 C 151.54,139.09 151.24,138.97 150.81,138.71 C 149.81,138.1 149.38,138.29 149.85,139.13 C 150.24,139.83 149.86,140.27 149.3,139.78 C 149.08,139.58 148.41,139.24 147.82,138.99 C 146.33,138.38 146.5,137.85 148.28,137.77 C 149.13,137.73 150.1,137.6 150.43,137.47 z M 146.5,139.32 C 146.65,139.33 147.1,139.54 147.72,139.89 C 147.87,139.98 148.03,140.07 148.15,140.16 C 148.26,140.24 148.33,140.31 148.36,140.37 C 148.38,140.43 148.37,140.49 148.32,140.56 C 148.28,140.63 148.19,140.71 148.1,140.77 C 147.74,141.01 147.29,140.98 146.92,140.75 C 146.31,140.36 146.02,139.35 146.5,139.32 z M 164.04,156.35 C 164.02,156.74 163.9,157.08 163.76,157.49 C 163.61,157.9 163.45,158.37 163.19,158.5 C 162.94,158.63 162.6,158.42 162.55,158.12 C 162.5,157.82 162.74,157.43 162.84,157.05 C 162.94,156.67 162.91,156.29 162.84,155.92 C 162.78,155.56 162.69,155.21 162.58,154.88 C 162.46,154.55 162.32,154.23 162.05,153.86 C 161.78,153.5 161.39,153.08 161.49,152.96 C 161.58,152.84 162.17,153.03 162.58,153.26 C 162.99,153.49 163.21,153.76 163.4,154.08 C 163.59,154.4 163.74,154.76 163.86,155.15 C 163.98,155.54 164.06,155.96 164.04,156.35 z M 142.56,155.57 C 142.22,156.22 141.28,156.46 140.28,156.13 C 139.69,155.93 139.06,155.42 138.63,154.92 C 138.2,154.41 137.96,153.91 138.28,153.8 C 138.45,153.75 138.75,153.79 139.18,153.92 C 139.6,154.04 140.15,154.23 140.67,154.45 C 141.71,154.87 142.65,155.37 142.56,155.57 z M 137.44,152.46 C 137.89,152.64 138.14,152.84 138.09,153.12 C 138.05,153.4 137.72,153.76 137.39,153.99 C 136.73,154.44 136.08,154.33 135.32,154.01 C 133.94,153.35 133.38,151.04 134.06,150.51 C 134.37,150.25 134.35,149.87 133.97,149.51 C 133.8,149.35 133.69,149.13 133.59,148.93 C 133.5,148.74 133.43,148.56 133.58,148.37 C 133.65,148.28 133.79,148.18 133.97,148.24 C 134.15,148.3 134.39,148.52 134.6,148.77 C 135.01,149.29 135.3,149.94 135.19,150.5 C 135.13,150.91 135.06,151.18 135.13,151.37 C 135.19,151.57 135.39,151.69 135.55,151.75 C 135.87,151.89 136.04,151.79 135.91,151.59 C 135.78,151.41 135.86,151.05 136.05,150.95 C 136.24,150.85 136.54,150.99 136.65,151.44 C 136.76,151.87 137.11,152.34 137.44,152.46 z M 145.53,169.58 C 145.53,169.55 145.52,169.51 145.51,169.48 C 145.5,169.45 145.49,169.42 145.48,169.39 C 145.44,169.34 145.4,169.29 145.36,169.24 C 145.3,169.19 145.25,169.15 145.19,169.11 C 145.06,169.02 144.92,168.95 144.78,168.88 C 144.6,168.8 144.42,168.72 144.23,168.66 C 144.03,168.59 143.83,168.53 143.62,168.48 C 143.43,168.43 143.23,168.4 143.02,168.37 C 142.85,168.36 142.67,168.35 142.48,168.37 C 142.46,168.38 142.43,168.38 142.4,168.38 C 142.38,168.38 142.37,168.37 142.35,168.37 C 142.34,168.37 142.33,168.37 142.33,168.36 C 142.33,168.36 142.33,168.35 142.33,168.35 C 142.33,168.34 142.33,168.32 142.33,168.31 C 142.33,168.29 142.34,168.27 142.35,168.25 C 142.36,168.22 142.37,168.19 142.39,168.15 C 142.44,168.06 142.46,167.96 142.46,167.86 C 142.46,167.81 142.46,167.76 142.45,167.71 C 142.45,167.66 142.44,167.61 142.43,167.56 C 142.39,167.42 142.33,167.28 142.27,167.15 C 142.15,166.93 142.0,166.73 141.82,166.55 C 141.68,166.41 141.53,166.26 141.4,166.1 C 141.28,165.97 141.17,165.83 141.07,165.69 C 140.98,165.57 140.9,165.45 140.82,165.32 C 140.77,165.22 140.71,165.11 140.67,165.0 C 140.64,164.92 140.62,164.83 140.61,164.73 C 140.6,164.7 140.6,164.66 140.6,164.63 C 140.61,164.6 140.61,164.57 140.62,164.54 C 140.63,164.49 140.65,164.45 140.68,164.41 C 140.71,164.37 140.75,164.34 140.8,164.31 C 140.83,164.29 140.86,164.27 140.9,164.25 C 140.93,164.24 140.96,164.23 140.98,164.22 C 141.0,164.21 141.03,164.21 141.05,164.21 C 141.07,164.21 141.09,164.21 141.11,164.22 C 141.13,164.22 141.15,164.23 141.17,164.24 C 141.2,164.26 141.23,164.28 141.25,164.3 C 141.32,164.36 141.37,164.43 141.41,164.51 C 141.49,164.65 141.6,164.77 141.73,164.87 C 141.8,164.94 141.89,164.99 141.99,165.03 C 142.06,165.06 142.13,165.09 142.21,165.1 C 142.29,165.11 142.37,165.12 142.46,165.1 C 142.47,165.1 142.48,165.1 142.5,165.1 C 142.52,165.1 142.54,165.1 142.56,165.1 C 142.61,165.1 142.66,165.12 142.71,165.13 C 142.8,165.16 142.88,165.2 142.96,165.24 C 143.11,165.31 143.24,165.4 143.37,165.5 C 143.51,165.61 143.64,165.73 143.75,165.85 C 143.86,165.98 143.96,166.11 144.05,166.25 C 144.09,166.31 144.12,166.38 144.15,166.44 C 144.16,166.47 144.17,166.5 144.18,166.53 C 144.19,166.55 144.19,166.57 144.2,166.59 C 144.21,166.63 144.22,166.66 144.22,166.7 C 144.18,166.72 144.14,166.73 144.1,166.73 C 144.05,166.75 143.99,166.76 143.94,166.76 C 143.86,166.77 143.79,166.78 143.72,166.79 C 143.63,166.8 143.55,166.8 143.47,166.81 C 143.41,166.82 143.35,166.83 143.28,166.84 C 143.26,166.85 143.23,166.86 143.2,166.86 C 143.18,166.87 143.17,166.87 143.15,166.88 C 143.12,166.89 143.1,166.91 143.08,166.92 C 143.06,166.94 143.04,166.95 143.03,166.97 C 143.01,166.99 142.99,167.01 142.97,167.04 C 142.96,167.07 142.95,167.1 142.95,167.13 C 142.94,167.15 142.95,167.18 142.95,167.2 C 142.96,167.22 142.97,167.23 142.98,167.25 C 142.98,167.26 142.99,167.27 143.0,167.27 C 143.02,167.29 143.04,167.3 143.07,167.31 C 143.09,167.33 143.12,167.33 143.15,167.34 C 143.2,167.36 143.26,167.37 143.32,167.38 C 143.54,167.42 143.76,167.45 143.97,167.48 C 144.23,167.52 144.48,167.58 144.72,167.66 C 144.87,167.71 145.02,167.76 145.15,167.83 C 145.24,167.87 145.32,167.92 145.39,167.97 C 145.42,167.99 145.45,168.01 145.47,168.03 C 145.49,168.05 145.51,168.07 145.53,168.09 C 145.64,168.24 145.76,168.38 145.88,168.53 C 145.99,168.65 146.09,168.77 146.21,168.88 C 146.34,169.01 146.49,169.13 146.69,169.49 C 145.9,169.84 145.83,169.82 145.76,169.79 C 145.7,169.76 145.65,169.73 145.6,169.69 C 145.58,169.67 145.55,169.65 145.54,169.62 C 145.53,169.61 145.53,169.6 145.53,169.58 z M 156.12,153.16 C 155.69,153.24 155.54,153.15 155.64,152.92 C 155.69,152.8 155.79,152.65 156.0,152.45 C 156.2,152.25 156.49,152.0 156.73,151.8 C 157.21,151.4 157.46,151.21 157.74,151.32 C 157.87,151.38 158.02,151.51 158.18,151.71 C 158.34,151.91 158.53,152.18 158.83,152.65 C 158.97,152.88 159.15,153.17 159.28,153.42 C 159.42,153.67 159.51,153.89 159.58,154.08 C 159.72,154.47 159.76,154.77 159.69,154.97 C 159.55,155.38 158.99,155.39 158.03,154.95 C 157.44,154.69 156.91,154.15 156.86,153.75 C 156.8,153.34 156.5,153.08 156.12,153.16 z M 132.55,167.33 C 132.56,167.23 132.56,167.12 132.55,167.01 C 132.54,166.93 132.52,166.85 132.5,166.77 C 132.47,166.69 132.43,166.61 132.38,166.55 C 132.33,166.48 132.26,166.42 132.18,166.37 C 132.11,166.32 132.03,166.28 131.95,166.25 C 131.88,166.21 131.8,166.18 131.72,166.14 C 131.66,166.12 131.6,166.09 131.55,166.05 C 131.57,166.06 131.59,166.06 131.61,166.07 C 131.81,166.12 132.02,166.13 132.2,166.05 C 132.38,165.98 132.53,165.83 132.7,165.72 C 132.88,165.62 133.07,165.56 133.31,165.57 C 133.55,165.57 133.83,165.64 133.98,165.75 C 134.13,165.85 134.16,165.99 134.07,166.14 C 133.99,166.29 133.8,166.45 133.62,166.56 C 133.44,166.67 133.27,166.75 133.1,166.85 C 132.94,166.95 132.78,167.08 132.64,167.23 C 132.61,167.26 132.58,167.3 132.55,167.33 z M 157.84,165.04 C 157.38,165.18 156.93,165.42 156.59,165.78 C 156.63,165.69 156.66,165.6 156.69,165.51 C 156.73,165.41 156.76,165.3 156.76,165.19 C 156.76,165.11 156.75,165.04 156.73,164.96 C 156.7,164.86 156.67,164.77 156.63,164.67 C 156.62,164.64 156.61,164.62 156.6,164.59 C 156.57,164.49 156.54,164.4 156.51,164.3 C 156.47,164.15 156.44,163.99 156.4,163.84 C 156.39,163.78 156.37,163.72 156.35,163.65 C 156.34,163.62 156.33,163.59 156.31,163.56 C 156.26,163.45 156.2,163.36 156.13,163.27 C 156.09,163.22 156.04,163.17 155.99,163.11 C 155.93,163.04 155.86,162.96 155.79,162.89 C 155.7,162.79 155.61,162.69 155.52,162.58 C 155.48,162.53 155.43,162.47 155.39,162.42 C 155.38,162.4 155.36,162.37 155.35,162.35 C 155.34,162.34 155.34,162.33 155.33,162.31 C 155.33,162.3 155.32,162.29 155.32,162.27 C 155.31,162.25 155.31,162.24 155.31,162.22 C 155.31,162.2 155.32,162.19 155.32,162.18 C 155.32,162.17 155.32,162.17 155.33,162.16 C 155.33,162.14 155.34,162.13 155.35,162.12 C 155.37,162.1 155.4,162.08 155.42,162.07 C 155.44,162.07 155.46,162.07 155.47,162.06 C 155.49,162.06 155.5,162.07 155.52,162.07 C 155.54,162.07 155.56,162.08 155.58,162.09 C 155.6,162.09 155.62,162.1 155.64,162.12 C 155.69,162.14 155.74,162.17 155.78,162.2 C 155.89,162.28 155.99,162.36 156.09,162.46 C 156.2,162.56 156.31,162.68 156.42,162.8 C 156.53,162.92 156.64,163.05 156.73,163.19 C 156.83,163.33 156.92,163.47 156.99,163.61 C 157.06,163.76 157.12,163.9 157.18,164.05 C 157.21,164.13 157.24,164.21 157.26,164.3 C 157.28,164.36 157.31,164.43 157.33,164.49 C 157.37,164.6 157.41,164.7 157.46,164.8 C 157.5,164.87 157.54,164.94 157.6,164.97 C 157.65,165.01 157.71,165.02 157.77,165.03 C 157.79,165.03 157.82,165.04 157.84,165.04 z M 152.19,150.17 C 152.13,150.21 152.07,150.25 152.0,150.29 C 151.92,150.34 151.83,150.39 151.74,150.43 C 151.6,150.49 151.46,150.54 151.32,150.58 C 151.13,150.63 150.93,150.65 150.73,150.66 C 150.42,150.69 150.1,150.7 149.79,150.73 C 149.61,150.74 149.43,150.76 149.25,150.8 C 149.15,150.82 149.05,150.84 148.94,150.86 C 148.86,150.89 148.77,150.91 148.69,150.94 C 148.69,150.94 148.69,150.94 148.69,150.94 C 148.9,150.84 149.05,150.65 149.22,150.5 C 149.5,150.25 149.86,150.12 150.17,149.84 C 150.31,149.72 150.44,149.56 150.58,149.52 C 150.78,149.47 151.01,149.62 151.23,149.79 C 151.54,150.01 151.84,150.26 152.13,150.19 C 152.15,150.19 152.17,150.18 152.19,150.17 z M 148.53,151.0 C 148.53,151.0 148.52,151.0 148.52,151.0 C 148.27,151.1 148.03,151.23 147.8,151.37 C 147.67,151.45 147.54,151.53 147.42,151.61 C 147.26,151.71 147.1,151.82 146.95,151.93 C 146.8,152.05 146.65,152.16 146.51,152.29 C 146.4,152.38 146.3,152.47 146.2,152.56 C 146.09,152.67 145.98,152.79 145.89,152.91 C 145.97,152.75 146.01,152.56 146.0,152.37 C 146.0,152.16 145.95,151.95 145.88,151.77 C 145.77,151.51 145.62,151.32 145.51,150.97 C 145.4,150.6 145.35,150.05 145.42,150.04 C 145.5,150.03 145.7,150.6 146.0,150.8 C 146.16,150.9 146.34,150.91 146.49,150.84 C 146.64,150.78 146.76,150.64 146.82,150.49 C 146.93,150.2 146.81,149.86 146.69,149.57 C 146.43,148.95 146.16,148.54 145.82,147.79 C 145.51,147.12 145.15,146.17 145.35,146.09 C 145.52,146.03 146.09,146.58 146.5,147.02 C 146.92,147.46 147.17,147.8 147.37,148.22 C 147.58,148.67 147.72,149.22 147.75,149.76 C 147.76,150.07 147.74,150.38 147.87,150.66 C 147.92,150.79 148.0,150.9 148.11,150.97 C 148.23,151.03 148.38,151.04 148.53,151.0 z M 145.78,153.07 C 145.71,153.17 145.65,153.29 145.59,153.4 C 145.55,153.48 145.52,153.55 145.49,153.63 C 145.43,153.77 145.38,153.91 145.33,154.04 C 145.28,154.17 145.24,154.3 145.18,154.42 C 145.14,154.51 145.1,154.59 145.06,154.67 C 145.03,154.72 145.0,154.77 144.97,154.82 C 144.96,154.63 144.9,154.41 144.88,154.22 C 144.87,154.05 144.88,153.9 144.94,153.77 C 145.01,153.6 145.15,153.46 145.31,153.36 C 145.47,153.26 145.65,153.2 145.78,153.07 z M 161.45,146.2 C 161.45,146.2 161.46,146.19 161.46,146.18 C 161.53,146.08 161.6,145.99 161.67,145.9 C 161.73,145.84 161.78,145.78 161.84,145.73 C 161.93,145.64 162.02,145.56 162.1,145.47 C 162.14,145.43 162.17,145.39 162.2,145.35 C 162.24,145.3 162.26,145.25 162.28,145.19 C 162.29,145.17 162.29,145.14 162.3,145.11 C 162.3,145.09 162.3,145.08 162.3,145.07 C 162.3,145.04 162.3,145.02 162.29,145.0 C 162.27,144.95 162.23,144.91 162.19,144.88 C 162.15,144.87 162.12,144.86 162.08,144.86 C 162.03,144.85 161.99,144.85 161.94,144.86 C 161.66,144.86 161.37,144.86 161.08,144.87 C 160.9,144.88 160.72,144.9 160.54,144.94 C 160.43,144.96 160.32,144.98 160.22,145.02 C 160.16,145.03 160.11,145.05 160.06,145.07 C 160.01,145.09 159.96,145.12 159.91,145.14 C 159.87,145.16 159.83,145.18 159.8,145.2 C 159.72,145.24 159.64,145.28 159.57,145.33 C 159.42,145.42 159.27,145.52 159.13,145.62 C 158.98,145.72 158.83,145.82 158.67,145.91 C 158.46,146.04 158.22,146.14 157.99,146.24 C 157.73,146.35 157.46,146.45 157.2,146.57 C 157.08,146.63 156.95,146.68 156.83,146.75 C 156.73,146.8 156.63,146.86 156.53,146.92 C 156.37,147.02 156.22,147.13 156.07,147.24 C 155.91,147.37 155.76,147.49 155.6,147.62 C 155.46,147.73 155.31,147.84 155.17,147.95 C 154.86,148.19 154.54,148.42 154.21,148.64 C 153.92,148.86 153.62,149.07 153.32,149.29 C 153.18,149.41 153.03,149.52 152.89,149.64 C 152.78,149.73 152.67,149.82 152.55,149.9 C 153.06,149.42 153.43,148.89 153.62,148.28 C 153.75,147.87 153.81,147.43 153.8,146.99 C 153.79,146.32 153.63,145.64 153.35,145.09 C 153.16,144.72 152.92,144.41 152.78,143.91 C 152.68,143.57 152.62,143.13 152.75,143.0 C 152.94,142.8 153.56,143.32 153.94,143.75 C 154.24,144.1 154.39,144.39 154.49,144.73 C 154.65,145.31 154.67,146.02 154.63,146.59 C 154.61,146.86 154.57,147.1 154.55,147.47 C 154.54,147.68 154.53,147.93 154.59,147.96 C 154.65,148.01 154.81,147.73 154.93,147.47 C 155.01,147.31 155.07,147.15 155.14,147.15 C 155.25,147.16 155.38,147.5 155.55,147.51 C 155.61,147.52 155.68,147.48 155.74,147.43 C 155.94,147.25 155.87,146.95 155.73,146.63 C 155.61,146.36 155.43,146.07 155.46,145.98 C 155.51,145.85 155.96,146.11 156.37,146.35 C 156.66,146.52 156.94,146.68 157.01,146.61 C 157.07,146.54 156.94,146.26 156.8,145.97 C 156.63,145.62 156.44,145.27 156.52,145.21 C 156.6,145.15 156.98,145.4 157.28,145.57 C 157.42,145.65 157.54,145.72 157.58,145.83 C 157.6,145.91 157.58,146.02 157.63,146.1 C 157.67,146.17 157.76,146.22 157.85,146.23 C 157.98,146.24 158.09,146.14 158.19,146.04 C 158.46,145.79 158.64,145.56 158.81,145.2 C 158.88,145.04 158.95,144.86 159.1,144.85 C 159.2,144.84 159.35,144.92 159.42,144.9 C 159.57,144.83 159.21,144.13 159.35,144.1 C 159.4,144.09 159.52,144.17 159.61,144.26 C 159.69,144.35 159.73,144.45 159.76,144.55 C 159.79,144.68 159.82,144.81 159.93,144.92 C 160.0,144.98 160.08,145.03 160.14,145.01 C 160.19,144.99 160.22,144.89 160.24,144.8 C 160.26,144.68 160.28,144.58 160.28,144.48 C 160.29,144.23 160.24,143.99 160.15,143.66 C 160.03,143.2 159.82,142.58 159.85,142.53 C 159.89,142.47 160.29,143.32 160.47,143.86 C 160.54,144.11 160.58,144.29 160.65,144.43 C 160.68,144.5 160.73,144.55 160.82,144.58 C 160.89,144.6 161.01,144.59 161.11,144.57 C 161.23,144.56 161.34,144.53 161.45,144.5 C 161.5,144.48 161.54,144.47 161.59,144.48 C 161.67,144.49 161.73,144.59 161.8,144.62 C 161.9,144.66 162.02,144.58 162.16,144.51 C 162.63,144.28 163.38,144.2 163.49,144.34 C 163.62,144.52 162.83,145.01 162.58,145.51 C 162.51,145.66 162.48,145.8 162.37,145.9 C 162.21,146.02 161.89,146.05 161.65,146.12 C 161.57,146.15 161.51,146.17 161.45,146.2 z M 142.73,159.16 C 142.77,159.14 142.81,159.11 142.85,159.09 C 143.02,158.99 143.19,158.91 143.36,158.81 C 143.44,158.76 143.53,158.71 143.61,158.66 C 143.69,158.6 143.77,158.54 143.84,158.48 C 143.93,158.4 144.0,158.32 144.07,158.24 C 144.15,158.15 144.22,158.06 144.3,157.97 C 144.33,157.93 144.36,157.89 144.4,157.85 C 144.43,157.82 144.45,157.79 144.48,157.76 C 144.45,157.98 144.52,158.27 144.46,158.52 C 144.4,158.77 144.21,158.99 143.99,159.09 C 143.74,159.19 143.45,159.14 143.12,159.14 C 142.99,159.14 142.85,159.14 142.73,159.16 z M 140.44,161.06 C 140.46,161.04 140.49,161.02 140.51,161.0 C 140.57,160.94 140.64,160.88 140.71,160.83 C 140.8,160.76 140.89,160.7 140.98,160.64 C 141.08,160.57 141.18,160.5 141.27,160.42 C 141.41,160.31 141.55,160.19 141.67,160.06 C 141.78,159.96 141.88,159.86 141.99,159.76 C 141.92,159.96 141.86,160.19 141.83,160.42 C 141.8,160.61 141.78,160.79 141.67,160.93 C 141.58,161.04 141.42,161.11 141.27,161.14 C 141.09,161.16 140.91,161.12 140.67,161.08 C 140.6,161.07 140.52,161.06 140.44,161.06 z M 138.94,162.5 C 138.97,162.49 139.0,162.47 139.02,162.46 C 139.16,162.37 139.29,162.28 139.42,162.19 C 139.55,162.09 139.67,161.98 139.79,161.87 C 139.89,161.75 139.99,161.63 140.09,161.51 C 140.07,161.67 140.05,161.83 139.99,161.97 C 139.91,162.18 139.73,162.35 139.51,162.43 C 139.34,162.49 139.14,162.49 138.94,162.5 z M 138.1,160.8 C 138.06,160.87 138.02,160.95 137.98,161.02 C 137.92,161.15 137.85,161.27 137.78,161.4 C 137.67,161.59 137.54,161.77 137.41,161.95 C 137.41,161.95 137.41,161.95 137.41,161.95 C 137.49,161.78 137.48,161.6 137.43,161.42 C 137.37,161.24 137.26,161.07 137.1,160.99 C 136.98,160.94 136.85,160.93 136.78,160.83 C 136.71,160.74 136.71,160.57 136.78,160.49 C 136.86,160.4 137.01,160.4 137.14,160.42 C 137.31,160.45 137.44,160.53 137.61,160.63 C 137.76,160.72 137.94,160.82 138.07,160.8 C 138.08,160.8 138.09,160.8 138.1,160.8 z M 136.56,163.54 C 136.54,163.6 136.52,163.65 136.51,163.7 C 136.5,163.73 136.5,163.75 136.49,163.78 C 136.49,163.79 136.49,163.81 136.49,163.82 C 136.5,163.85 136.5,163.87 136.51,163.89 C 136.52,163.91 136.53,163.92 136.55,163.93 C 136.56,163.95 136.58,163.96 136.6,163.96 C 136.62,163.97 136.64,163.98 136.66,163.98 C 136.68,163.97 136.7,163.97 136.73,163.96 C 136.77,163.94 136.81,163.92 136.85,163.9 C 136.89,163.87 136.94,163.84 136.98,163.8 C 136.98,163.8 136.98,163.8 136.98,163.8 C 136.76,164.15 136.71,164.33 136.32,164.62 C 135.83,164.99 134.8,165.53 134.7,165.34 C 134.62,165.2 135.12,164.61 135.46,164.24 C 135.91,163.76 136.1,163.64 136.25,163.47 C 136.38,163.32 136.47,163.13 136.56,162.95 C 136.59,162.89 136.62,162.83 136.63,162.77 C 136.64,162.61 136.48,162.43 136.58,162.32 C 136.63,162.27 136.72,162.23 136.82,162.21 C 137.01,162.17 137.18,162.2 137.29,162.11 C 137.2,162.23 137.11,162.35 137.02,162.47 C 136.99,162.52 136.95,162.58 136.92,162.63 C 136.87,162.72 136.82,162.8 136.78,162.89 C 136.69,163.11 136.63,163.33 136.56,163.54 z M 141.55,157.75 C 141.46,157.84 141.37,157.93 141.28,158.02 C 141.21,158.09 141.14,158.16 141.06,158.23 C 140.99,158.29 140.91,158.35 140.83,158.41 C 140.7,158.5 140.55,158.58 140.4,158.65 C 140.41,158.59 140.39,158.53 140.36,158.47 C 140.29,158.35 140.16,158.24 140.03,158.14 C 139.68,157.87 139.36,157.69 139.06,157.54 C 138.71,157.36 138.39,157.22 137.91,156.99 C 137.57,156.82 137.15,156.6 137.14,156.48 C 137.14,156.31 137.88,156.32 138.36,156.45 C 138.77,156.55 138.99,156.74 139.26,156.92 C 139.43,157.04 139.61,157.15 139.78,157.27 C 139.94,157.39 140.08,157.51 140.25,157.6 C 140.39,157.67 140.54,157.73 140.7,157.75 C 140.85,157.78 141.0,157.78 141.18,157.77 C 141.3,157.77 141.43,157.77 141.55,157.75 z M 168.45,143.28 C 168.45,143.28 168.44,143.28 168.44,143.28 C 168.41,143.28 168.39,143.29 168.37,143.3 C 168.35,143.3 168.33,143.31 168.31,143.32 C 168.29,143.32 168.26,143.33 168.24,143.34 C 168.22,143.35 168.2,143.35 168.18,143.36 C 168.16,143.37 168.14,143.38 168.12,143.39 C 168.1,143.4 168.08,143.41 168.06,143.42 C 168.04,143.43 168.02,143.44 168.0,143.45 C 167.98,143.46 167.96,143.47 167.94,143.48 C 167.92,143.5 167.9,143.51 167.88,143.52 C 167.87,143.54 167.85,143.55 167.83,143.57 C 167.81,143.58 167.8,143.59 167.78,143.61 C 167.77,143.63 167.75,143.64 167.73,143.66 C 167.72,143.68 167.7,143.69 167.69,143.71 C 167.6,143.81 167.52,143.93 167.43,144.04 C 167.35,144.15 167.24,144.25 167.12,144.32 C 167.0,144.38 166.86,144.42 166.72,144.45 C 166.59,144.47 166.46,144.5 166.31,144.5 C 166.16,144.5 166.0,144.48 165.92,144.38 C 165.84,144.28 165.84,144.11 165.78,143.99 C 165.71,143.87 165.59,143.82 165.37,143.85 C 165.15,143.89 164.83,144.03 164.51,144.13 C 164.19,144.23 163.88,144.29 163.84,144.19 C 163.79,144.09 164.03,143.81 164.28,143.59 C 164.53,143.36 164.79,143.18 164.98,143.05 C 165.17,142.91 165.28,142.82 165.36,142.71 C 165.44,142.6 165.5,142.47 165.54,142.33 C 165.57,142.19 165.6,142.04 165.69,141.94 C 165.78,141.84 165.94,141.8 166.06,141.85 C 166.17,141.9 166.24,142.04 166.33,142.16 C 166.43,142.27 166.54,142.36 166.67,142.38 C 166.8,142.4 166.95,142.35 167.08,142.29 C 167.2,142.22 167.31,142.13 167.4,142.02 C 167.41,142.01 167.42,142.0 167.43,141.99 C 167.44,141.97 167.45,141.96 167.46,141.95 C 167.47,141.94 167.48,141.93 167.49,141.92 C 167.49,141.91 167.5,141.9 167.5,141.89 C 167.48,141.95 167.46,142.01 167.44,142.06 C 167.41,142.18 167.38,142.29 167.36,142.41 C 167.36,142.48 167.36,142.54 167.36,142.6 C 167.37,142.65 167.37,142.69 167.38,142.74 C 167.4,142.82 167.44,142.89 167.49,142.96 C 167.54,143.01 167.6,143.06 167.67,143.09 C 167.73,143.12 167.8,143.14 167.87,143.16 C 167.96,143.18 168.06,143.19 168.16,143.21 C 168.24,143.22 168.31,143.24 168.39,143.26 C 168.41,143.26 168.43,143.27 168.45,143.28 z M 153.1,153.44 C 153.11,153.51 153.14,153.57 153.18,153.62 C 153.26,153.71 153.4,153.76 153.51,153.8 C 153.72,153.86 153.89,153.87 154.05,153.91 C 154.18,153.95 154.31,154.01 154.43,154.09 C 154.63,154.23 154.8,154.41 155.0,154.65 C 155.48,155.26 156.12,156.22 156.51,157.62 C 156.84,158.77 157.0,160.22 156.85,160.3 C 156.68,160.38 156.13,158.72 155.44,157.49 C 155.19,157.03 154.92,156.63 154.71,156.34 C 154.44,155.96 154.27,155.75 154.07,155.57 C 153.85,155.36 153.6,155.2 153.32,155.07 C 152.94,154.89 152.52,154.77 152.1,154.81 C 151.87,154.83 151.64,154.9 151.47,155.04 C 151.3,155.2 151.19,155.44 151.18,155.67 C 151.17,155.87 151.24,156.05 151.33,156.22 C 151.43,156.4 151.56,156.56 151.69,156.72 C 151.96,157.05 152.24,157.37 152.48,157.73 C 152.67,158.01 152.84,158.31 152.82,158.69 C 152.81,158.83 152.79,158.97 152.71,159.04 C 152.58,159.15 152.32,159.05 152.13,158.94 C 151.91,158.82 151.77,158.68 151.66,158.51 C 151.52,158.28 151.44,157.98 151.28,157.75 C 151.13,157.51 150.91,157.33 150.69,157.16 C 150.34,156.88 149.99,156.63 149.57,156.41 C 149.37,156.31 149.15,156.22 148.94,156.18 C 148.96,156.17 148.97,156.17 148.99,156.16 C 149.1,156.12 149.2,156.07 149.31,156.03 C 149.55,155.93 149.8,155.82 150.04,155.7 C 150.29,155.59 150.53,155.47 150.77,155.34 C 150.96,155.23 151.14,155.12 151.33,155.01 C 151.51,154.88 151.7,154.75 151.87,154.61 C 152.05,154.48 152.22,154.33 152.38,154.18 C 152.49,154.08 152.59,153.98 152.69,153.88 C 152.8,153.77 152.9,153.65 153.01,153.54 C 153.04,153.5 153.07,153.47 153.1,153.44 z M 143.98,155.79 C 143.94,155.82 143.91,155.84 143.87,155.87 C 143.7,156.0 143.52,156.12 143.34,156.24 C 143.17,156.36 143.0,156.48 142.83,156.6 C 142.77,156.65 142.7,156.7 142.64,156.75 C 142.51,156.85 142.39,156.95 142.27,157.06 C 142.21,157.11 142.15,157.16 142.1,157.21 C 142.11,157.16 142.12,157.1 142.13,157.04 C 142.18,156.76 142.2,156.52 142.29,156.26 C 142.34,156.08 142.42,155.91 142.54,155.81 C 142.76,155.63 143.12,155.67 143.49,155.73 C 143.65,155.76 143.82,155.79 143.98,155.79 z M 149.76,160.58 C 149.65,161.97 148.84,163.27 148.62,162.35 C 148.46,161.6 148.33,161.15 148.18,160.94 C 148.1,160.84 148.02,160.79 147.92,160.8 C 147.82,160.8 147.7,160.87 147.6,160.93 C 147.2,161.18 147.1,161.43 147.19,161.56 C 147.3,161.68 147.09,161.89 146.73,162.02 C 146.27,162.18 145.99,162.16 145.86,161.94 C 145.8,161.83 145.77,161.67 145.79,161.41 C 145.8,161.15 145.85,160.79 145.93,160.48 C 146.08,159.86 146.34,159.43 146.57,159.31 C 146.81,159.18 147.04,159.36 147.13,159.88 C 147.28,160.66 148.24,159.9 148.57,158.75 C 148.77,158.09 148.97,157.71 149.2,157.61 C 149.31,157.56 149.43,157.58 149.56,157.67 C 149.62,157.72 149.68,157.78 149.75,157.86 C 149.79,157.9 149.82,157.95 149.85,157.99 C 149.88,158.03 149.9,158.07 149.92,158.1 C 150.25,158.62 150.3,158.92 150.16,158.97 C 150.0,159.0 149.81,159.74 149.76,160.58 z M 144.51,162.59 C 144.63,162.7 144.64,162.99 144.46,163.04 C 144.28,163.09 143.91,162.9 143.59,162.41 C 143.27,161.95 142.87,161.66 142.71,161.76 C 142.56,161.87 142.26,161.85 142.19,161.71 C 142.12,161.57 142.28,161.32 142.71,161.15 C 143.11,160.98 143.43,160.74 143.41,160.61 C 143.41,160.54 143.49,160.39 143.68,160.09 C 143.87,159.78 144.17,159.31 144.4,159.0 C 144.66,158.65 144.82,158.52 144.98,158.42 C 145.14,158.32 145.3,158.25 145.38,158.28 C 145.51,158.32 145.41,158.62 145.29,158.99 C 145.23,159.18 145.17,159.38 145.1,159.6 C 145.07,159.71 145.03,159.82 145.01,159.9 C 144.98,159.98 144.96,160.03 144.9,160.25 C 144.86,160.37 144.81,160.54 144.76,160.7 C 144.72,160.86 144.68,161.02 144.64,161.16 C 144.58,161.44 144.53,161.67 144.51,161.86 C 144.45,162.25 144.45,162.52 144.51,162.59 z M 141.13,169.45 C 140.32,168.82 139.72,168.31 139.36,167.8 C 139.01,167.3 138.9,166.81 138.92,166.5 C 138.94,166.18 139.09,166.04 139.4,166.18 C 139.55,166.25 139.74,166.4 140.05,166.65 C 140.35,166.91 140.77,167.27 141.13,167.6 C 141.84,168.25 142.32,168.74 142.53,169.1 C 142.75,169.45 142.71,169.68 142.57,169.8 C 142.43,169.91 142.18,169.91 141.92,169.84 C 141.66,169.77 141.38,169.64 141.13,169.45 z"
		 />

		<!-- Prism Reference -->
		<cam mingh:cam="--verb EditSelectAll --verb ZoomSelection --verb FileSave" /> 
	 </g>

</svg>
