<svg
   xmlns:xlink="http://www.w3.org/1999/xlink"
   xmlns:svg="http://www.w3.org/2000/svg"
   xmlns="http://www.w3.org/2000/svg"
   xmlns:mingh="http://www.minghworld.com"
   width="300px"
   height="300px" >
	
	 <g>
		
		<!-- Paths -->
		<path transform="matrix(-1 0 0 1 300 0)" style="fill:#ff0;stroke:none;"
		 d="M 150.16,128.31 C 149.62,128.31 149.09,128.42 148.59,128.63 C 148.1,128.83 147.66,129.12 147.28,129.5 C 146.9,129.88 146.61,130.32 146.41,130.81 C 146.2,131.31 146.09,131.84 146.09,132.38 C 146.09,132.91 146.2,133.44 146.41,133.94 C 146.61,134.43 146.9,134.87 147.28,135.25 C 147.66,135.63 148.1,135.95 148.59,136.16 C 148.61,136.16 148.64,136.15 148.66,136.16 C 148.8,136.21 148.79,136.4 148.66,136.47 C 147.86,136.9 147.08,137.37 146.31,137.84 C 145.75,138.19 145.21,138.54 144.66,138.91 C 144.22,139.19 143.64,139.13 143.28,138.75 C 143.25,138.72 143.24,138.69 143.22,138.66 C 143.2,138.63 143.2,138.62 143.19,138.59 C 143.18,138.57 143.16,138.55 143.16,138.53 C 143.15,138.5 143.13,138.44 143.13,138.41 C 143.11,138.33 143.1,138.27 143.09,138.19 C 143.09,138.14 143.07,138.08 143.06,138.03 C 143.05,137.95 143.05,137.86 143.03,137.78 C 143.0,137.61 142.96,137.44 142.91,137.28 C 142.85,137.12 142.79,136.97 142.72,136.81 C 142.65,136.66 142.58,136.49 142.5,136.34 C 142.41,136.18 142.32,136.03 142.22,135.88 C 142.04,135.59 141.84,135.32 141.63,135.06 C 141.41,134.81 141.19,134.56 140.94,134.34 C 140.69,134.12 140.43,133.94 140.16,133.75 C 139.86,133.55 139.54,133.35 139.22,133.19 C 139.07,133.11 138.93,133.04 138.78,132.97 C 138.63,132.9 138.47,132.84 138.31,132.78 C 138.14,132.71 137.96,132.63 137.78,132.56 C 137.64,132.5 137.48,132.44 137.34,132.38 C 137.22,132.32 137.09,132.26 136.97,132.19 C 136.92,132.16 136.89,132.13 136.84,132.09 C 136.81,132.07 136.75,132.06 136.72,132.03 C 136.68,132.0 136.66,131.97 136.63,131.94 C 136.6,131.91 136.59,131.88 136.56,131.84 C 136.53,131.8 136.5,131.76 136.47,131.72 C 136.43,131.66 136.38,131.59 136.34,131.53 C 136.31,131.47 136.29,131.41 136.25,131.34 C 136.2,131.27 136.15,131.19 136.09,131.13 C 136.04,131.06 135.97,131.02 135.91,130.97 C 135.86,130.93 135.8,130.87 135.75,130.84 C 135.71,130.82 135.67,130.8 135.63,130.78 C 135.58,130.76 135.52,130.75 135.47,130.75 C 135.41,130.75 135.37,130.76 135.31,130.78 C 135.25,130.8 135.2,130.84 135.16,130.88 C 135.12,130.91 135.09,130.96 135.06,131.0 C 135.04,131.04 135.02,131.08 135.0,131.13 C 134.98,131.17 134.95,131.21 134.94,131.25 C 134.92,131.33 134.91,131.39 134.91,131.47 C 134.9,131.55 134.91,131.63 134.91,131.72 C 134.91,131.83 134.89,131.95 134.91,132.06 C 134.92,132.17 134.95,132.27 134.97,132.38 C 135.01,132.6 135.05,132.81 135.09,133.03 C 135.12,133.15 135.13,133.28 135.16,133.41 C 135.18,133.51 135.23,133.62 135.25,133.72 C 135.29,133.88 135.33,134.03 135.38,134.19 C 135.43,134.39 135.47,134.62 135.53,134.81 C 135.6,135.01 135.67,135.18 135.75,135.38 C 135.83,135.57 135.91,135.78 136.0,135.97 C 136.09,136.16 136.18,136.35 136.28,136.53 C 136.38,136.71 136.51,136.89 136.63,137.06 C 136.86,137.41 137.12,137.75 137.41,138.06 C 137.55,138.22 137.68,138.36 137.84,138.5 C 138.01,138.64 138.16,138.79 138.34,138.91 C 138.46,138.98 138.6,139.03 138.72,139.09 C 138.81,139.15 138.9,139.21 139.0,139.25 C 139.15,139.32 139.31,139.35 139.47,139.41 C 139.67,139.47 139.89,139.54 140.09,139.59 C 140.22,139.63 140.32,139.65 140.44,139.69 C 140.5,139.7 140.56,139.73 140.63,139.75 C 141.45,139.99 141.67,141.05 141.0,141.59 C 140.48,142.02 140.0,142.46 139.5,142.91 C 137.41,144.78 135.49,146.89 134.06,149.28 C 133.14,150.84 132.4,152.5 131.94,154.28 C 131.39,156.36 131.21,158.59 131.78,160.66 C 132.14,161.97 132.83,163.2 133.75,164.22 C 134.34,164.87 134.94,165.53 135.53,166.19 C 135.72,166.4 135.91,166.59 136.13,166.78 C 137.3,167.82 138.79,168.5 140.31,168.81 C 143.26,169.41 146.32,168.64 149.22,167.63 C 151.85,166.71 154.34,165.59 156.66,164.19 C 157.1,163.92 157.54,163.63 157.97,163.34 C 158.04,163.29 158.13,163.34 158.19,163.41 C 158.61,163.92 159.04,164.42 159.47,164.94 C 160.67,166.4 161.87,167.88 163.06,169.28 C 163.6,169.9 164.16,170.5 164.88,171.06 C 165.3,171.4 165.76,171.73 166.28,171.69 C 166.64,171.66 167.03,171.48 167.38,171.25 C 167.68,171.04 167.97,170.8 168.19,170.53 C 168.42,170.24 168.56,169.9 168.56,169.53 C 168.56,169.14 168.4,168.71 168.22,168.34 C 167.95,167.8 167.66,167.41 167.38,167.0 C 166.4,165.58 165.28,164.16 164.19,162.75 C 163.54,161.91 162.92,161.09 162.28,160.25 C 162.22,160.18 162.21,160.06 162.28,160.0 L 162.34,159.97 C 163.89,158.62 165.41,157.15 166.5,155.5 C 166.69,155.22 166.84,154.93 167.0,154.63 C 167.39,153.89 167.7,153.09 167.84,152.22 C 167.99,151.31 167.96,150.34 167.47,149.69 C 167.44,149.65 167.41,149.6 167.38,149.56 L 165.59,147.59 C 165.34,147.32 165.0,147.12 164.59,147.0 C 164.27,146.9 163.88,146.85 163.53,146.84 C 162.81,146.82 162.21,146.95 161.53,147.09 C 161.37,147.13 161.24,146.94 161.34,146.81 C 161.47,146.66 161.61,146.51 161.75,146.38 C 162.04,146.1 162.35,145.85 162.66,145.63 C 163.94,144.65 165.13,143.74 165.91,142.38 C 166.35,141.59 166.65,140.66 166.72,139.75 C 166.78,138.92 166.64,138.1 166.22,137.38 C 166.08,137.14 165.91,136.93 165.72,136.72 C 165.12,136.07 164.53,135.4 163.94,134.75 C 163.81,134.61 163.68,134.5 163.53,134.38 C 162.86,133.81 162.05,133.47 161.22,133.28 C 159.83,132.97 158.35,133.05 156.97,133.28 C 156.02,133.44 155.11,133.67 154.22,133.97 C 154.08,134.02 153.95,133.89 154.0,133.75 C 154.16,133.31 154.25,132.84 154.25,132.38 C 154.25,131.84 154.14,131.31 153.94,130.81 C 153.73,130.32 153.41,129.88 153.03,129.5 C 152.65,129.12 152.21,128.83 151.72,128.63 C 151.23,128.42 150.69,128.31 150.16,128.31 z M 150.16,130.44 C 150.41,130.44 150.67,130.5 150.91,130.59 C 151.14,130.69 151.35,130.82 151.53,131.0 C 151.71,131.18 151.87,131.39 151.97,131.63 C 152.07,131.86 152.13,132.12 152.13,132.38 C 152.13,132.63 152.07,132.89 151.97,133.13 C 151.87,133.36 151.71,133.57 151.53,133.75 C 151.35,133.93 151.14,134.09 150.91,134.19 C 150.67,134.29 150.41,134.31 150.16,134.31 C 149.9,134.31 149.64,134.29 149.41,134.19 C 149.17,134.09 148.96,133.93 148.78,133.75 C 148.6,133.57 148.47,133.36 148.38,133.13 C 148.28,132.89 148.22,132.63 148.22,132.38 C 148.22,132.12 148.28,131.86 148.38,131.63 C 148.47,131.39 148.6,131.18 148.78,131.0 C 148.96,130.82 149.17,130.69 149.41,130.59 C 149.64,130.5 149.9,130.44 150.16,130.44 z M 162.88,151.09 C 162.99,151.09 163.06,151.17 163.03,151.28 C 162.62,153.14 160.72,155.13 159.41,156.25 C 159.33,156.31 159.22,156.33 159.16,156.25 C 158.5,155.42 157.83,154.6 157.16,153.78 C 157.09,153.7 157.1,153.59 157.19,153.53 C 158.63,152.48 160.95,151.16 162.88,151.09 z M 153.38,157.56 C 153.43,157.56 153.46,157.58 153.5,157.63 C 153.84,158.06 154.19,158.48 154.53,158.91 C 154.61,159.0 154.55,159.15 154.44,159.19 C 153.86,159.38 153.3,159.51 152.69,159.53 C 152.57,159.54 152.48,159.43 152.5,159.31 C 152.64,158.69 152.9,158.16 153.22,157.63 C 153.25,157.57 153.32,157.57 153.38,157.56 z" />
		
		
		<text id="txtTwo" transform="matrix(1 0 0 1 150 160)" style="stroke:none;fill:#f00;font-family:'Eras Medium ITC';font-size:20px;text-anchor:middle"  >

		</text>
		<!-- Prism Reference -->
			<cam mingh:cam=" --verb EditSelectAll --verb ZoomSelection --verb FileSave"/> 
	 </g>

</svg>