<svg
   xmlns:xlink="http://www.w3.org/1999/xlink"
   xmlns:svg="http://www.w3.org/2000/svg"
   xmlns="http://www.w3.org/2000/svg"
   xmlns:mingh="http://www.minghworld.com"
   width="300px"
   height="300px" >
	
	 <g>
		
		<!-- Paths -->
		<path transform="matrix(-1 0 0 1 300 0)" style="fill:#ff0;stroke:none;"
		 d="M 148.81,129.34 C 147.77,129.4 146.75,129.87 146.0,130.72 C 144.85,132.02 144.65,133.92 145.5,135.44 C 145.71,135.81 145.97,136.12 146.28,136.41 C 146.36,136.48 146.42,136.56 146.5,136.63 C 146.59,136.69 146.7,136.74 146.78,136.81 C 146.92,136.93 146.95,137.13 146.84,137.28 C 146.81,137.33 146.77,137.37 146.72,137.41 C 146.53,137.56 146.35,137.72 146.19,137.91 C 145.86,138.27 145.57,138.69 145.25,139.06 C 144.93,139.44 144.64,139.79 144.44,140.25 C 144.17,140.87 144.24,141.02 143.84,141.59 C 143.56,142.0 143.22,142.34 142.81,142.63 C 142.01,143.19 141.0,143.43 140.06,143.56 C 139.34,143.66 138.63,143.69 137.91,143.69 C 137.23,143.69 136.44,143.8 135.91,144.34 C 135.78,144.48 135.67,144.59 135.63,144.78 C 135.58,144.98 135.64,145.15 135.66,145.34 C 135.67,145.53 135.61,145.6 135.44,145.63 C 135.26,145.65 135.07,145.65 134.91,145.72 C 134.18,146.03 133.91,146.78 133.59,147.38 C 133.17,148.18 133.02,148.47 132.84,149.38 C 132.77,149.78 132.68,150.05 132.47,150.41 C 132.29,150.72 132.05,150.97 131.88,151.28 C 131.78,151.44 131.71,151.62 131.69,151.81 C 131.67,152.0 131.74,152.17 131.78,152.34 C 131.83,152.55 131.8,152.65 131.72,152.84 C 131.65,153.01 131.58,153.19 131.56,153.38 C 131.55,153.56 131.57,153.73 131.56,153.91 C 131.55,154.09 131.52,154.26 131.5,154.44 C 131.45,154.79 131.41,155.15 131.34,155.5 C 131.28,155.82 131.17,156.15 131.09,156.47 C 131.02,156.79 130.95,157.11 130.91,157.44 C 130.87,157.76 130.84,158.08 130.84,158.41 C 130.85,158.73 130.91,159.08 130.91,159.41 C 130.9,159.74 130.81,160.05 130.75,160.38 C 130.69,160.7 130.7,161.01 130.69,161.34 C 130.67,161.94 130.7,162.73 130.81,163.31 C 130.88,163.63 130.94,163.96 131.0,164.28 C 131.08,164.71 131.11,164.81 131.13,165.25 C 131.13,165.52 131.12,165.93 131.41,166.13 C 131.54,166.22 131.7,166.28 131.84,166.34 C 132.06,166.44 132.24,166.53 132.34,166.78 C 132.42,166.96 132.45,167.28 132.41,167.47 C 132.4,167.51 132.38,167.55 132.38,167.59 C 132.36,167.77 132.37,167.93 132.44,168.09 C 132.57,168.4 132.86,168.62 133.19,168.69 C 133.4,168.73 133.92,168.69 134.13,168.66 C 134.31,168.63 134.51,168.56 134.69,168.5 C 134.79,168.47 134.99,168.39 135.0,168.56 C 135.0,168.67 134.95,168.91 135.0,169.03 C 135.06,169.17 135.33,169.18 135.44,169.19 C 135.81,169.2 136.17,169.24 136.53,169.28 C 136.89,169.32 137.26,169.34 137.59,169.53 C 137.75,169.62 137.9,169.72 138.06,169.81 C 138.22,169.9 138.36,169.99 138.53,170.06 C 138.86,170.2 139.21,170.3 139.56,170.41 C 139.91,170.51 140.26,170.63 140.63,170.66 C 140.81,170.67 140.98,170.66 141.16,170.63 C 141.33,170.59 141.51,170.54 141.69,170.53 C 141.84,170.52 142.63,170.53 142.78,170.53 C 143.14,170.53 143.51,170.54 143.88,170.56 C 144.6,170.6 145.31,170.61 146.03,170.59 C 146.46,170.58 146.68,170.5 146.97,170.19 C 147.06,170.09 147.12,169.99 147.25,169.94 C 147.39,169.89 147.61,169.9 147.75,169.91 C 148.12,169.92 148.48,169.84 148.84,169.78 C 149.2,169.72 149.56,169.64 149.91,169.53 C 150.25,169.42 150.59,169.32 150.91,169.13 C 151.06,169.03 151.21,168.92 151.38,168.84 C 151.54,168.76 151.7,168.74 151.88,168.72 C 152.65,168.64 153.01,168.04 153.38,167.5 C 153.61,167.15 153.68,167.29 153.97,167.47 C 154.12,167.56 154.26,167.59 154.44,167.53 C 154.61,167.47 154.75,167.37 154.91,167.28 C 155.2,167.11 155.48,166.95 155.75,166.75 C 156.02,166.54 156.42,166.26 156.63,165.97 C 156.74,165.81 156.88,165.7 157.03,165.59 C 157.23,165.45 157.42,165.34 157.66,165.25 C 157.79,165.2 157.92,165.16 158.06,165.13 C 158.11,165.11 158.17,165.11 158.22,165.09 C 158.34,165.05 158.48,165.0 158.59,164.94 C 158.85,164.79 159.06,164.62 159.28,164.44 C 159.54,164.22 159.79,163.99 160.0,163.72 C 160.21,163.45 160.38,163.14 160.59,162.88 C 161.03,162.33 161.58,161.99 162.13,161.59 C 163.24,160.79 164.14,159.85 164.97,158.75 C 165.4,158.18 165.79,157.58 166.13,156.94 C 166.51,156.2 166.69,155.73 166.94,154.94 C 167.15,154.25 167.34,153.58 167.47,152.88 C 167.5,152.7 167.54,152.52 167.56,152.34 C 167.58,152.16 167.6,151.96 167.63,151.78 C 167.68,151.33 167.79,151.19 168.0,150.81 C 168.18,150.5 168.32,150.16 168.41,149.81 C 168.5,149.46 168.58,149.14 168.63,148.78 C 168.67,148.42 168.7,148.05 168.63,147.69 C 168.53,147.25 168.35,147.1 168.16,146.72 C 167.96,146.33 167.96,146.1 168.25,145.75 C 168.48,145.47 168.78,145.25 169.0,144.97 C 169.2,144.71 169.39,144.36 169.31,144.0 C 169.24,143.7 168.97,143.28 168.66,143.19 C 168.44,143.09 168.19,143.07 167.97,143.03 C 167.71,142.98 167.54,142.92 167.5,142.63 C 167.46,142.28 167.65,141.99 167.72,141.69 C 167.76,141.53 167.73,141.38 167.69,141.22 C 167.6,140.88 167.41,140.68 167.16,140.47 C 166.66,140.04 166.1,139.75 165.5,139.5 C 165.21,139.37 164.94,139.24 164.63,139.16 C 164.31,139.07 163.97,139.06 163.66,139.0 C 163.12,138.9 162.33,138.68 161.81,138.5 C 161.21,138.28 160.61,138.05 160.0,137.84 C 159.39,137.64 158.82,137.44 158.19,137.31 C 157.87,137.25 157.54,137.22 157.22,137.25 C 156.81,137.29 156.7,137.35 156.28,137.28 C 155.96,137.23 155.66,137.15 155.34,137.09 C 155.19,137.06 155.03,137.03 154.88,136.97 C 154.72,136.91 154.56,136.84 154.41,136.78 C 154.04,136.65 153.88,136.99 153.91,137.31 C 153.91,137.41 153.92,137.5 153.94,137.59 C 153.95,137.66 153.99,137.74 153.97,137.81 C 153.95,137.87 153.89,137.86 153.84,137.84 C 153.77,137.82 153.72,137.79 153.66,137.75 C 153.38,137.57 153.11,137.34 152.84,137.16 C 152.71,137.07 152.58,136.98 152.44,136.91 C 152.37,136.87 152.32,136.84 152.25,136.81 C 152.19,136.79 152.12,136.76 152.06,136.72 C 151.96,136.64 151.93,136.57 151.94,136.44 C 151.94,136.32 151.99,136.23 152.06,136.16 C 153.59,134.48 153.47,131.92 151.78,130.41 C 150.94,129.65 149.86,129.28 148.81,129.34 z M 149.16,131.47 C 149.33,131.48 149.49,131.51 149.66,131.56 C 149.98,131.67 150.27,131.87 150.5,132.13 C 150.73,132.38 150.9,132.7 150.97,133.03 C 151.04,133.36 151.01,133.71 150.91,134.03 C 150.8,134.35 150.6,134.65 150.34,134.88 C 150.09,135.1 149.77,135.27 149.44,135.34 C 149.1,135.41 148.76,135.39 148.44,135.28 C 148.11,135.17 147.82,134.97 147.59,134.72 C 147.37,134.46 147.19,134.15 147.13,133.81 C 147.06,133.48 147.08,133.14 147.19,132.81 C 147.29,132.49 147.5,132.19 147.75,131.97 C 148.0,131.74 148.32,131.57 148.66,131.5 C 148.82,131.47 148.99,131.46 149.16,131.47 z M 161.94,145.0 C 162.05,145.0 162.16,144.98 162.16,145.06 C 162.14,145.29 161.9,145.48 161.69,145.69 C 161.46,145.92 161.27,146.22 161.09,146.5 C 161.0,146.65 160.92,146.79 160.81,146.94 C 160.7,147.1 160.58,147.26 160.44,147.41 C 160.13,147.73 159.74,147.98 159.41,148.28 C 159.07,148.58 158.76,148.92 158.38,149.16 C 158.24,149.24 158.12,149.32 157.97,149.38 C 157.78,149.45 157.57,149.5 157.38,149.56 C 157.18,149.62 157.0,149.67 156.81,149.75 C 156.61,149.84 156.39,149.99 156.22,150.13 C 156.04,150.26 155.9,150.4 155.75,150.56 C 155.36,150.99 155.01,151.45 154.59,151.84 C 154.38,152.04 154.16,152.24 153.94,152.44 C 153.72,152.63 153.49,152.82 153.28,153.03 C 153.15,153.16 153.03,153.3 152.91,153.44 C 152.83,153.52 152.76,153.61 152.69,153.69 C 152.64,153.74 152.58,153.79 152.53,153.84 C 152.32,154.06 152.11,154.25 151.88,154.44 C 151.64,154.62 151.41,154.78 151.16,154.94 C 150.55,155.32 149.89,155.63 149.22,155.91 C 149.0,156.0 148.78,156.08 148.56,156.19 C 148.54,156.2 148.52,156.21 148.5,156.22 C 148.26,156.33 148.03,156.47 147.78,156.56 C 147.7,156.59 147.61,156.61 147.53,156.63 C 147.45,156.64 147.39,156.68 147.31,156.69 C 146.92,156.75 146.51,156.73 146.13,156.81 C 145.92,156.86 145.7,156.92 145.5,157.0 C 145.22,157.1 144.96,157.22 144.72,157.38 C 144.59,157.46 144.48,157.55 144.38,157.66 C 144.17,157.86 143.99,158.11 143.78,158.31 C 143.42,158.66 142.92,158.84 142.5,159.13 C 142.43,159.17 142.35,159.23 142.28,159.28 C 142.23,159.32 142.2,159.37 142.16,159.41 C 141.8,159.72 141.5,160.09 141.13,160.38 C 140.9,160.55 140.64,160.68 140.44,160.88 C 140.36,160.95 140.29,161.04 140.22,161.13 C 140.19,161.16 140.15,161.19 140.13,161.22 C 140.0,161.38 139.89,161.53 139.75,161.69 C 139.47,162.0 139.12,162.23 138.75,162.44 C 138.68,162.48 138.6,162.52 138.53,162.56 C 138.22,162.73 137.91,162.89 137.63,163.09 C 137.55,163.15 137.47,163.19 137.41,163.25 C 137.12,163.49 136.89,163.73 136.69,163.81 C 136.61,163.85 136.64,163.73 136.69,163.59 C 136.78,163.31 136.86,163.01 137.0,162.75 C 137.08,162.6 137.18,162.48 137.28,162.34 C 137.5,162.06 137.73,161.77 137.91,161.47 C 138.1,161.13 138.24,160.77 138.44,160.44 C 138.47,160.38 138.53,160.34 138.56,160.28 C 138.7,160.07 138.85,159.84 139.03,159.66 C 139.19,159.49 139.37,159.37 139.56,159.25 C 139.78,159.11 140.01,158.98 140.25,158.88 C 140.49,158.77 140.73,158.65 140.94,158.5 C 141.16,158.34 141.37,158.14 141.56,157.94 C 141.66,157.84 141.75,157.75 141.84,157.66 C 141.89,157.61 141.92,157.57 141.97,157.53 C 142.11,157.39 142.26,157.26 142.41,157.13 C 142.57,156.98 142.73,156.85 142.91,156.72 C 143.36,156.38 143.85,156.07 144.28,155.72 C 144.36,155.65 144.45,155.6 144.53,155.53 C 144.67,155.4 144.82,155.27 144.94,155.13 C 144.96,155.1 144.98,155.06 145.0,155.03 C 145.08,154.92 145.15,154.78 145.22,154.66 C 145.39,154.32 145.51,153.97 145.66,153.63 C 145.73,153.45 145.8,153.28 145.91,153.13 C 146.05,152.91 146.22,152.74 146.41,152.56 C 146.78,152.22 147.2,151.93 147.63,151.66 C 147.93,151.46 148.23,151.26 148.56,151.13 C 148.74,151.06 148.94,151.01 149.13,150.97 C 149.59,150.87 150.05,150.84 150.53,150.81 C 150.81,150.8 151.11,150.79 151.38,150.72 C 151.58,150.67 151.78,150.57 151.97,150.47 C 152.4,150.24 152.77,149.9 153.16,149.59 C 153.54,149.29 153.94,149.0 154.34,148.72 C 154.74,148.43 155.14,148.15 155.53,147.84 C 155.92,147.54 156.29,147.22 156.72,146.97 C 157.35,146.6 158.08,146.4 158.72,146.03 C 158.92,145.91 159.12,145.79 159.31,145.66 C 159.51,145.53 159.7,145.39 159.91,145.28 C 159.97,145.25 160.03,145.25 160.09,145.22 C 160.16,145.19 160.25,145.14 160.31,145.13 C 160.48,145.07 160.64,145.05 160.81,145.03 C 161.18,144.99 161.56,145.01 161.94,145.0 z" />
		
		
		<text id="txtTwo" transform="matrix(1 0 0 1 150 160)" style="stroke:none;fill:#f00;font-family:'Eras Medium ITC';font-size:20px;text-anchor:middle"  >

		</text>
		<!-- Prism Reference -->
		<cam mingh:cam=" --verb EditSelectAll --verb ZoomSelection --verb FileSave"/> 
	 </g>

</svg>