<svg
   xmlns:xlink="http://www.w3.org/1999/xlink"
   xmlns:svg="http://www.w3.org/2000/svg"
   xmlns="http://www.w3.org/2000/svg"
   xmlns:mingh="http://www.minghworld.com"
   width="300px"
   height="300px" >
	
	 <g>
		
		<!-- Paths -->
		<path transform="matrix(-1 0 0 1 300 0)" style="fill:#ff0;stroke:none;"
		 d="M 151.63,128.81 C 151.09,128.81 150.56,128.92 150.06,129.13 C 149.57,129.33 149.13,129.65 148.75,130.03 C 148.37,130.41 148.05,130.85 147.84,131.34 C 147.64,131.84 147.53,132.37 147.53,132.91 C 147.53,133.44 147.64,133.98 147.84,134.47 C 148.05,134.96 148.37,135.4 148.75,135.78 C 148.87,135.9 148.96,136.02 149.09,136.13 C 149.23,136.23 149.17,136.43 149.0,136.44 C 148.28,136.45 147.58,136.57 146.84,136.81 C 145.81,137.16 144.74,137.73 143.84,138.63 C 142.62,139.84 141.69,141.64 141.56,143.09 C 141.56,143.12 141.55,143.13 141.53,143.16 C 141.34,143.45 141.19,143.78 141.09,144.13 C 140.87,144.91 140.91,145.76 141.09,146.59 C 141.19,147.02 141.33,147.44 141.5,147.88 C 141.52,147.92 141.49,147.98 141.47,148.03 C 138.05,155.28 134.64,162.5 131.22,169.75 C 131.13,169.94 131.11,170.13 131.19,170.34 C 131.26,170.54 131.35,170.67 131.5,170.81 C 131.65,170.95 131.8,171.06 132.0,171.13 C 132.21,171.2 132.37,171.16 132.56,171.06 C 139.72,167.45 146.88,163.86 154.03,160.25 C 154.08,160.23 154.14,160.23 154.19,160.25 C 154.63,160.4 155.04,160.51 155.47,160.59 C 156.31,160.75 157.16,160.77 157.94,160.53 C 158.46,160.37 158.93,160.08 159.31,159.69 C 159.5,159.5 159.65,159.32 159.78,159.09 C 159.81,159.04 159.85,159.01 159.91,159.0 C 164.32,158.15 166.83,153.47 165.13,149.31 C 165.09,149.24 165.12,149.14 165.19,149.09 C 168.63,146.69 169.84,142.16 168.03,138.38 C 167.94,138.18 167.82,138.0 167.72,137.81 C 167.5,137.44 167.27,137.06 167.0,136.72 C 166.67,136.31 166.3,135.94 165.91,135.59 C 165.49,135.23 165.04,134.9 164.56,134.63 C 164.12,134.37 163.66,134.17 163.19,134.0 C 160.63,133.08 157.79,133.42 155.53,134.94 C 155.38,135.04 155.2,134.88 155.28,134.72 C 155.32,134.64 155.34,134.55 155.38,134.47 C 155.58,133.98 155.69,133.44 155.69,132.91 C 155.69,132.37 155.58,131.84 155.38,131.34 C 155.17,130.85 154.88,130.41 154.5,130.03 C 154.12,129.65 153.68,129.33 153.19,129.13 C 152.69,128.92 152.16,128.81 151.63,128.81 z M 151.63,130.94 C 152.7,130.94 153.56,131.83 153.56,132.91 C 153.56,133.98 152.7,134.84 151.63,134.84 C 150.55,134.84 149.66,133.98 149.66,132.91 C 149.66,131.83 150.55,130.94 151.63,130.94 z" />
		
		
		<text id="txtTwo" transform="matrix(1 0 0 1 150 160)" style="stroke:none;fill:#f00;font-family:'Eras Medium ITC';font-size:20px;text-anchor:middle"  >

		</text>
		<!-- Prism Reference -->
	<cam mingh:cam=" --verb EditSelectAll --verb ZoomSelection --verb FileSave"/> 
	 </g>

</svg>