<svg
   xmlns:xlink="http://www.w3.org/1999/xlink"
   xmlns:svg="http://www.w3.org/2000/svg"
   xmlns="http://www.w3.org/2000/svg"
   xmlns:mingh="http://www.minghworld.com"
   width="300px"
   height="300px" >
	
	 <g>
		
		<!-- Paths -->
		<path style="fill:none;stroke:#000;stroke-width:0.25px;"
		 d="M 160.66,128.09 C 160.49,128.1 160.34,128.17 160.22,128.28 C 160.09,128.4 160.02,128.58 160.0,128.75 C 159.99,128.86 159.99,128.99 160.0,129.09 C 160.02,129.25 160.04,129.41 160.06,129.56 C 160.2,130.65 160.18,131.75 160.03,132.84 C 159.97,133.27 159.88,133.7 159.78,134.13 C 159.76,134.23 159.63,134.23 159.59,134.13 C 159.55,134.0 159.48,133.87 159.44,133.75 C 159.28,133.32 159.09,132.91 158.88,132.5 C 158.65,132.08 158.4,131.67 158.13,131.28 C 157.63,130.56 157.08,129.9 156.5,129.25 C 156.46,129.2 156.43,129.16 156.38,129.13 C 156.24,129.03 156.06,128.96 155.91,128.94 C 155.81,128.92 155.72,128.96 155.63,128.97 C 155.5,128.99 155.39,129.03 155.28,129.09 C 155.17,129.16 155.08,129.24 155.0,129.34 C 154.94,129.42 154.9,129.5 154.88,129.59 C 154.85,129.67 154.82,129.76 154.81,129.84 C 154.81,129.93 154.82,130.0 154.84,130.09 C 154.86,130.15 154.88,130.23 154.91,130.28 C 155.24,130.96 155.55,131.66 155.78,132.38 C 155.98,133.0 156.13,133.64 156.22,134.28 C 156.27,134.64 156.31,134.99 156.31,135.34 C 156.31,135.53 156.29,135.72 156.28,135.91 C 156.26,136.27 156.22,136.61 156.16,136.97 C 156.15,137.0 156.13,137.04 156.13,137.06 C 156.1,137.17 155.98,137.19 155.94,137.09 C 155.85,136.86 155.73,136.63 155.63,136.41 C 155.46,136.04 155.27,135.66 155.06,135.31 C 154.64,134.62 154.16,133.96 153.63,133.34 C 153.36,133.04 153.1,132.76 152.81,132.47 C 152.71,132.37 152.61,132.25 152.5,132.16 C 152.48,132.14 152.46,132.14 152.44,132.13 C 152.36,132.06 152.27,132.0 152.19,131.97 C 152.1,131.93 152.02,131.92 151.94,131.91 C 151.88,131.9 151.84,131.9 151.78,131.91 C 151.7,131.91 151.6,131.92 151.53,131.94 C 151.35,131.99 151.18,132.13 151.06,132.28 C 151.01,132.35 150.97,132.42 150.94,132.5 C 150.9,132.59 150.91,132.68 150.91,132.78 C 150.9,132.88 150.91,132.99 150.94,133.09 C 150.97,133.19 151.0,133.29 151.06,133.38 C 151.51,134.01 151.92,134.69 152.22,135.41 C 152.36,135.76 152.47,136.13 152.56,136.5 C 152.66,136.87 152.74,137.25 152.78,137.63 C 152.83,138.05 152.84,138.48 152.81,138.91 C 152.8,139.13 152.78,139.34 152.75,139.56 C 152.74,139.66 152.62,139.7 152.56,139.63 C 152.2,139.16 151.78,138.75 151.31,138.41 C 150.99,138.17 150.64,137.95 150.28,137.78 C 150.21,137.75 150.14,137.72 150.06,137.69 C 149.97,137.65 149.93,137.56 149.97,137.47 C 150.15,137.0 150.25,136.5 150.25,136.0 C 150.25,135.29 150.04,134.58 149.69,133.97 C 149.33,133.35 148.83,132.82 148.22,132.47 C 147.6,132.11 146.87,131.94 146.16,131.94 C 145.45,131.94 144.74,132.11 144.13,132.47 C 143.51,132.82 142.98,133.35 142.63,133.97 C 142.27,134.58 142.09,135.29 142.09,136.0 C 142.09,136.71 142.27,137.45 142.63,138.06 C 142.98,138.68 143.51,139.18 144.13,139.53 C 144.13,139.54 144.15,139.56 144.16,139.56 C 144.31,139.65 144.26,139.86 144.09,139.88 C 143.66,139.92 143.24,140.03 142.81,140.13 C 142.55,140.19 142.29,140.24 142.03,140.31 C 141.77,140.38 141.51,140.45 141.25,140.53 C 140.24,140.85 139.23,141.22 138.25,141.63 C 137.27,142.03 136.32,142.48 135.38,142.97 C 134.43,143.46 133.49,143.99 132.59,144.56 C 132.14,144.85 131.69,145.13 131.25,145.44 C 130.81,145.74 130.39,146.06 129.97,146.38 C 129.54,146.69 129.13,147.01 128.72,147.34 C 128.51,147.51 128.3,147.67 128.09,147.84 C 127.89,148.01 127.67,148.2 127.47,148.38 C 127.06,148.72 126.66,149.06 126.28,149.44 C 125.9,149.81 125.56,150.22 125.25,150.66 C 125.1,150.87 124.94,151.11 124.81,151.34 C 124.68,151.57 124.57,151.79 124.47,152.03 C 124.26,152.52 124.11,153.02 124.0,153.53 C 123.89,154.04 123.83,154.55 123.81,155.06 C 123.79,155.58 123.8,156.12 123.84,156.63 C 123.89,157.13 123.99,157.63 124.09,158.13 C 124.19,158.62 124.29,159.11 124.44,159.59 C 124.72,160.56 125.09,161.5 125.53,162.41 C 125.97,163.31 126.49,164.18 127.06,165.0 C 127.64,165.82 128.3,166.62 129.0,167.34 C 129.7,168.07 130.44,168.71 131.25,169.31 C 131.66,169.61 132.07,169.89 132.5,170.16 C 132.93,170.42 133.38,170.69 133.84,170.91 C 134.31,171.13 134.79,171.31 135.28,171.47 C 135.77,171.62 136.3,171.74 136.81,171.81 C 137.33,171.88 137.85,171.9 138.38,171.88 C 138.64,171.86 138.9,171.85 139.16,171.81 C 139.42,171.77 139.68,171.69 139.94,171.63 C 140.45,171.48 140.92,171.29 141.41,171.06 C 141.89,170.83 142.38,170.58 142.84,170.31 C 143.08,170.18 143.3,170.04 143.53,169.91 C 143.76,169.77 143.99,169.64 144.22,169.5 C 144.67,169.22 145.12,168.95 145.56,168.66 C 146.01,168.37 146.47,168.06 146.91,167.75 C 147.34,167.44 147.77,167.14 148.19,166.81 C 148.61,166.49 149.03,166.16 149.44,165.81 C 149.84,165.47 150.23,165.11 150.63,164.75 C 151.41,164.03 152.16,163.28 152.88,162.5 C 153.59,161.72 154.26,160.91 154.91,160.06 C 155.07,159.85 155.22,159.62 155.38,159.41 C 155.53,159.19 155.7,158.97 155.84,158.75 C 156.13,158.3 156.4,157.82 156.63,157.34 C 156.73,157.11 156.82,156.87 156.91,156.63 C 156.99,156.38 157.05,156.12 157.09,155.88 C 157.19,155.37 157.21,154.9 157.19,154.41 C 157.17,153.91 157.13,153.39 157.03,152.91 C 156.93,152.43 156.78,151.96 156.63,151.5 C 156.54,151.25 156.44,151.0 156.34,150.75 C 156.26,150.54 156.18,150.33 156.09,150.13 C 156.06,150.04 156.13,149.95 156.22,149.97 C 156.92,150.14 157.6,150.38 158.28,150.66 C 158.67,150.82 159.06,151.02 159.44,151.22 C 159.82,151.42 160.2,151.63 160.56,151.88 C 161.07,152.22 161.57,152.62 162.03,153.03 C 162.09,153.08 162.12,153.12 162.19,153.16 C 162.26,153.19 162.33,153.21 162.41,153.22 C 162.48,153.23 162.55,153.26 162.63,153.25 C 162.7,153.24 162.78,153.19 162.84,153.16 C 162.91,153.12 162.95,153.08 163.0,153.03 C 163.05,152.98 163.1,152.91 163.13,152.84 C 163.15,152.78 163.15,152.7 163.16,152.63 C 163.16,152.55 163.14,152.48 163.13,152.41 C 163.05,152.05 162.96,151.69 162.81,151.34 C 162.64,150.93 162.41,150.56 162.16,150.19 C 161.96,149.9 161.73,149.61 161.5,149.34 C 161.32,149.14 161.13,148.94 160.94,148.75 C 160.9,148.72 160.88,148.69 160.84,148.66 C 160.77,148.58 160.84,148.45 160.94,148.47 C 161.18,148.51 161.41,148.54 161.66,148.59 C 162.51,148.78 163.34,149.06 164.16,149.41 C 164.57,149.58 164.98,149.77 165.38,150.0 C 165.76,150.22 166.14,150.47 166.5,150.75 C 166.75,150.95 167.02,151.15 167.25,151.38 C 167.31,151.43 167.35,151.5 167.41,151.56 C 167.51,151.68 167.62,151.81 167.72,151.94 C 167.82,152.07 167.92,152.2 168.0,152.34 C 168.03,152.4 168.06,152.47 168.09,152.53 C 168.11,152.57 168.13,152.59 168.16,152.63 C 168.17,152.65 168.17,152.7 168.19,152.72 C 168.21,152.75 168.23,152.75 168.25,152.78 C 168.27,152.81 168.32,152.85 168.34,152.88 C 168.37,152.9 168.41,152.92 168.44,152.94 C 168.49,152.98 168.53,153.04 168.59,153.06 C 168.63,153.08 168.68,153.08 168.72,153.09 C 168.78,153.11 168.82,153.09 168.88,153.09 C 168.92,153.09 168.99,153.1 169.03,153.09 C 169.08,153.08 169.11,153.08 169.16,153.06 C 169.2,153.04 169.24,153.0 169.28,152.97 C 169.32,152.94 169.38,152.91 169.41,152.88 C 169.43,152.84 169.45,152.82 169.47,152.78 C 169.49,152.74 169.51,152.7 169.53,152.66 C 169.55,152.6 169.58,152.56 169.59,152.5 C 169.6,152.46 169.59,152.42 169.59,152.38 C 169.6,152.33 169.62,152.29 169.63,152.25 C 169.63,152.17 169.63,152.08 169.63,152.0 C 169.62,151.92 169.61,151.83 169.59,151.75 C 169.58,151.66 169.55,151.59 169.53,151.5 C 169.51,151.4 169.5,151.31 169.47,151.22 C 169.35,150.84 169.2,150.46 169.03,150.09 C 168.93,149.88 168.84,149.67 168.72,149.47 C 168.6,149.27 168.48,149.06 168.34,148.88 C 168.31,148.82 168.26,148.77 168.22,148.72 C 168.18,148.66 168.21,148.58 168.28,148.56 C 168.43,148.52 168.57,148.45 168.69,148.34 C 168.73,148.3 168.78,148.24 168.81,148.19 C 169.05,147.82 169.21,147.44 169.31,147.03 C 169.33,146.97 169.38,146.95 169.44,146.97 C 169.66,147.04 169.91,147.11 170.13,147.19 C 170.55,147.35 170.96,147.52 171.38,147.72 C 171.8,147.92 172.21,148.14 172.63,148.38 C 172.72,148.43 172.8,148.48 172.91,148.5 C 173.01,148.52 173.12,148.52 173.22,148.5 C 173.32,148.48 173.42,148.43 173.5,148.38 C 173.58,148.32 173.67,148.25 173.72,148.16 C 173.77,148.07 173.8,147.98 173.81,147.88 C 173.82,147.77 173.81,147.64 173.78,147.53 C 173.75,147.42 173.69,147.31 173.63,147.22 C 173.61,147.2 173.61,147.18 173.59,147.16 C 173.58,147.13 173.55,147.11 173.53,147.09 C 173.48,147.04 173.43,146.99 173.38,146.94 C 173.32,146.88 173.27,146.81 173.22,146.75 C 173.0,146.52 172.79,146.28 172.56,146.06 C 172.31,145.81 172.07,145.58 171.81,145.34 C 171.53,145.09 171.23,144.83 170.94,144.59 C 170.59,144.31 170.24,144.04 169.88,143.78 C 169.48,143.5 169.07,143.24 168.66,143.0 C 168.65,142.99 168.64,143.01 168.63,143.0 C 168.61,142.99 168.6,142.95 168.59,142.94 C 168.45,142.7 168.29,142.47 168.13,142.25 C 168.1,142.22 168.09,142.19 168.06,142.16 C 168.02,142.1 168.03,142.03 168.09,142.0 C 168.7,141.77 169.36,141.58 170.0,141.41 C 170.81,141.19 171.62,140.98 172.28,140.88 C 172.94,140.77 173.43,140.77 174.19,140.75 C 174.95,140.73 175.96,140.7 176.16,140.28 C 176.35,139.86 175.73,139.03 175.03,138.5 C 174.41,138.03 173.75,137.79 173.09,137.69 C 172.36,137.58 171.66,137.65 170.94,137.75 C 170.85,137.76 170.77,137.77 170.69,137.78 C 169.99,137.88 169.31,137.96 168.63,138.13 C 167.94,138.29 167.23,138.53 166.53,138.78 C 166.38,138.83 166.24,138.88 166.09,138.94 C 165.99,138.97 165.9,138.87 165.97,138.78 C 166.01,138.73 166.05,138.68 166.09,138.63 C 166.75,137.76 167.34,136.85 167.69,135.84 C 167.78,135.58 167.85,135.3 167.91,135.03 C 168.1,134.12 168.11,133.16 167.91,132.25 C 167.79,131.73 167.6,131.19 167.34,130.69 C 167.2,130.4 167.03,130.13 166.78,129.88 C 166.66,129.76 166.52,129.66 166.38,129.59 C 166.08,129.46 165.74,129.5 165.53,129.69 C 165.32,129.88 165.26,130.23 165.28,130.53 C 165.29,130.7 165.32,130.84 165.34,131.0 C 165.37,131.2 165.37,131.39 165.38,131.59 C 165.38,132.04 165.32,132.55 165.16,133.09 C 164.93,133.82 164.53,134.62 164.16,135.25 C 164.13,135.29 164.11,135.34 164.09,135.38 C 164.04,135.47 163.9,135.42 163.91,135.31 C 163.98,134.11 163.79,132.83 163.38,131.69 C 163.04,130.75 162.53,129.89 161.94,129.03 C 161.74,128.74 161.55,128.47 161.25,128.28 C 161.08,128.17 160.86,128.08 160.66,128.09 z M 146.16,134.06 C 146.5,134.06 146.86,134.14 147.16,134.31 C 147.45,134.48 147.67,134.74 147.84,135.03 C 148.01,135.33 148.13,135.66 148.13,136.0 C 148.13,136.34 148.01,136.71 147.84,137.0 C 147.67,137.29 147.45,137.52 147.16,137.69 C 146.86,137.86 146.5,137.97 146.16,137.97 C 145.82,137.97 145.48,137.86 145.19,137.69 C 144.89,137.52 144.64,137.29 144.47,137.0 C 144.3,136.71 144.22,136.34 144.22,136.0 C 144.22,135.66 144.3,135.33 144.47,135.03 C 144.64,134.74 144.89,134.48 145.19,134.31 C 145.48,134.14 145.82,134.06 146.16,134.06 z"
		 />
		 <path style="fill:#f00;stroke:none;"
		 d="M 141.55,141.84 C 141.82,141.71 142.12,141.54 142.42,141.38 C 142.72,141.22 143.02,141.06 143.28,140.93 C 143.5,140.83 143.69,140.75 143.87,140.68 C 144.06,140.61 144.24,140.55 144.45,140.5 C 144.78,140.42 145.18,140.36 145.58,140.36 C 145.98,140.36 146.37,140.43 146.73,140.55 C 146.9,140.61 147.05,140.67 147.2,140.74 C 147.35,140.81 147.5,140.88 147.64,140.95 C 147.67,140.97 147.71,140.99 147.74,141.0 C 148.18,141.24 148.57,141.5 148.94,141.78 C 149.32,142.06 149.69,142.36 150.06,142.67 C 150.31,142.88 150.56,143.09 150.8,143.3 C 150.57,143.11 150.34,142.94 150.14,142.79 C 149.83,142.57 149.58,142.43 149.35,142.36 C 149.12,142.29 148.91,142.28 148.63,142.28 C 148.61,142.28 148.59,142.28 148.57,142.28 C 148.48,142.28 148.38,142.27 148.27,142.27 C 148.17,142.26 148.05,142.26 147.92,142.25 C 147.63,142.23 147.27,142.22 146.88,142.22 C 146.49,142.22 146.06,142.25 145.68,142.26 C 145.44,142.27 145.22,142.27 144.99,142.27 C 144.76,142.28 144.51,142.28 144.24,142.29 C 143.56,142.32 142.67,142.41 142.05,142.55 C 142.14,142.48 142.25,142.41 142.35,142.35 C 142.7,142.17 143.11,142.13 143.51,142.09 C 144.16,142.02 144.79,141.93 145.43,141.89 C 145.99,141.86 146.57,141.87 147.13,141.75 C 147.43,141.69 147.73,141.6 148.03,141.61 C 148.25,141.62 148.46,141.69 148.66,141.79 C 148.26,141.5 147.83,141.26 147.37,141.05 C 146.88,140.83 146.36,140.64 145.83,140.59 C 145.25,140.54 144.65,140.65 144.1,140.84 C 143.7,140.97 143.33,141.15 142.95,141.32 C 142.69,141.45 142.43,141.58 142.15,141.69 C 142.04,141.74 141.92,141.78 141.8,141.81 C 141.72,141.83 141.63,141.84 141.55,141.84 z M 138.0,141.9 C 137.82,141.97 137.64,142.05 137.47,142.13 C 137.3,142.21 137.12,142.29 136.96,142.36 C 136.46,142.6 136.03,142.83 135.65,143.08 C 135.26,143.33 134.92,143.59 134.51,143.89 C 134.48,143.92 134.45,143.94 134.42,143.97 C 134.16,144.16 133.88,144.37 133.56,144.58 C 132.87,145.05 132.02,145.54 131.38,145.91 C 131.18,146.03 131.0,146.13 130.82,146.24 C 130.63,146.34 130.44,146.45 130.23,146.58 C 129.71,146.9 129.04,147.36 128.54,147.74 C 128.69,147.61 128.96,147.39 129.22,147.2 C 129.61,146.9 129.95,146.67 130.27,146.45 C 130.73,146.15 131.14,145.88 131.68,145.53 C 132.2,145.19 132.84,144.77 133.29,144.45 C 133.48,144.31 133.64,144.19 133.77,144.09 C 133.92,143.98 134.03,143.9 134.2,143.79 C 134.33,143.7 134.5,143.61 134.68,143.5 C 134.78,143.44 134.9,143.38 135.01,143.32 C 135.81,142.89 136.64,142.49 137.47,142.13 C 137.6,142.07 137.74,142.01 137.87,141.95 C 137.91,141.93 137.96,141.92 138.0,141.9 z M 127.52,165.4 C 127.52,165.4 127.52,165.4 127.52,165.4 C 127.6,165.5 127.68,165.58 127.75,165.65 C 127.82,165.72 127.89,165.79 127.97,165.86 C 128.1,165.98 128.26,166.1 128.43,166.22 C 128.61,166.34 128.8,166.46 129.01,166.59 C 129.1,166.65 129.2,166.71 129.3,166.78 C 129.4,166.84 129.5,166.91 129.61,166.97 C 129.63,166.99 129.66,167.01 129.68,167.02 C 130.02,167.25 130.36,167.49 130.74,167.74 C 131.11,167.98 131.52,168.23 131.96,168.44 C 132.25,168.58 132.56,168.7 132.87,168.79 C 132.59,168.75 132.34,168.71 132.12,168.68 C 131.79,168.62 131.53,168.58 131.29,168.53 C 131.05,168.47 130.83,168.4 130.54,168.25 C 130.52,168.23 130.49,168.22 130.47,168.21 C 130.38,168.16 130.28,168.09 130.17,168.02 C 130.07,167.95 129.96,167.87 129.84,167.78 C 129.59,167.59 129.31,167.35 129.05,167.1 C 128.78,166.85 128.54,166.6 128.33,166.38 C 128.2,166.24 128.09,166.11 127.98,165.98 C 127.92,165.91 127.87,165.85 127.81,165.78 C 127.63,165.57 127.48,165.37 127.34,165.18 C 127.28,165.1 127.22,165.02 127.17,164.94 C 127.34,165.19 127.51,165.4 127.67,165.61 C 127.8,165.77 127.93,165.92 128.07,166.07 C 128.21,166.23 128.36,166.39 128.53,166.57 C 128.7,166.74 128.89,166.92 129.08,167.08 C 129.27,167.25 129.46,167.4 129.6,167.5 C 129.73,167.59 129.83,167.64 129.9,167.67 C 129.98,167.71 130.02,167.71 130.11,167.74 C 130.23,167.77 130.41,167.86 130.6,167.94 C 130.37,167.81 130.14,167.65 129.95,167.51 C 129.8,167.39 129.68,167.28 129.54,167.17 C 129.42,167.06 129.29,166.96 129.15,166.86 C 128.99,166.73 128.82,166.61 128.66,166.49 C 128.5,166.37 128.36,166.24 128.23,166.13 C 128.09,166.02 127.98,165.91 127.88,165.8 C 127.78,165.7 127.68,165.59 127.58,165.48 C 127.56,165.45 127.54,165.42 127.52,165.4 z M 129.06,166.94 C 128.98,166.89 128.9,166.82 128.83,166.77 C 128.76,166.71 128.7,166.66 128.64,166.62 C 128.53,166.53 128.43,166.44 128.28,166.29 C 128.14,166.14 127.95,165.93 127.8,165.75 C 127.7,165.64 127.62,165.54 127.55,165.45 C 127.53,165.43 127.52,165.42 127.51,165.4 C 127.44,165.31 127.37,165.22 127.3,165.12 C 127.26,165.07 127.21,165.0 127.17,164.94 C 127.21,165.0 127.26,165.06 127.3,165.12 C 127.45,165.32 127.56,165.47 127.73,165.65 C 127.85,165.78 128.0,165.94 128.14,166.08 C 128.29,166.23 128.42,166.36 128.56,166.5 C 128.64,166.57 128.71,166.65 128.8,166.72 C 128.88,166.79 128.97,166.87 129.06,166.94 z M 125.49,158.26 C 125.47,158.58 125.48,158.91 125.51,159.24 C 125.56,159.73 125.66,160.19 125.76,160.63 C 125.86,161.07 125.97,161.47 126.07,161.86 C 126.08,161.89 126.08,161.92 126.09,161.95 C 126.12,162.07 126.15,162.19 126.17,162.31 C 126.2,162.42 126.22,162.53 126.24,162.64 C 126.29,162.88 126.34,163.11 126.39,163.31 C 126.45,163.52 126.51,163.71 126.57,163.87 C 126.61,163.97 126.65,164.06 126.7,164.15 C 126.74,164.24 126.79,164.34 126.86,164.45 C 126.84,164.43 126.82,164.4 126.81,164.37 C 126.73,164.23 126.66,164.11 126.6,163.97 C 126.54,163.84 126.47,163.7 126.41,163.53 C 126.35,163.38 126.28,163.19 126.22,163.0 C 126.16,162.81 126.11,162.61 126.04,162.42 C 125.99,162.25 125.94,162.09 125.89,161.94 C 125.83,161.78 125.77,161.63 125.71,161.44 C 125.63,161.22 125.57,160.94 125.52,160.68 C 125.53,160.9 125.55,161.1 125.55,161.21 C 125.54,161.31 125.53,161.35 125.53,161.44 C 125.54,161.51 125.56,161.63 125.59,161.77 C 125.64,161.95 125.72,162.18 125.81,162.41 C 125.9,162.64 126.0,162.88 126.1,163.1 C 126.21,163.32 126.31,163.52 126.41,163.7 C 126.51,163.89 126.61,164.06 126.71,164.24 C 126.85,164.46 127.0,164.69 127.17,164.94 C 127.02,164.72 126.87,164.49 126.74,164.29 C 126.73,164.26 126.71,164.24 126.69,164.21 C 126.66,164.16 126.63,164.1 126.6,164.05 C 126.55,163.97 126.51,163.9 126.47,163.82 C 126.38,163.67 126.3,163.52 126.21,163.35 C 126.08,163.08 125.92,162.77 125.78,162.43 C 125.64,162.1 125.51,161.76 125.41,161.45 C 125.37,161.31 125.33,161.18 125.3,161.06 C 125.27,160.94 125.24,160.82 125.23,160.72 C 125.22,160.69 125.22,160.67 125.21,160.64 C 125.16,160.32 125.17,160.08 125.2,159.84 C 125.24,159.59 125.29,159.34 125.35,159.0 C 125.39,158.79 125.44,158.53 125.49,158.26 z M 142.58,154.14 C 142.26,154.27 141.89,154.34 141.55,154.28 C 141.27,154.24 141.01,154.1 140.73,154.02 C 140.48,153.95 140.21,153.92 139.95,153.95 C 139.32,154.03 138.69,154.46 138.23,154.88 C 137.75,155.31 137.44,155.73 137.14,156.25 C 136.93,156.62 136.72,157.05 136.38,157.43 C 136.17,157.68 135.9,157.91 135.62,157.84 C 136.02,157.33 136.42,156.49 136.71,155.85 C 136.96,155.32 137.13,154.92 137.4,154.51 C 137.83,153.84 138.52,153.12 139.31,152.78 C 139.67,152.63 140.05,152.56 140.42,152.54 C 140.47,152.54 140.52,152.54 140.57,152.54 C 141.17,152.53 141.78,152.64 142.38,152.7 C 142.98,152.76 143.59,152.77 144.16,152.66 C 144.55,152.58 144.91,152.44 145.26,152.27 C 144.98,152.54 144.73,152.84 144.52,153.17 C 144.21,153.67 144.02,154.24 143.87,154.83 C 143.72,155.42 143.62,156.02 143.4,156.59 C 143.39,156.63 143.37,156.68 143.35,156.72 C 143.2,157.07 143.01,157.4 142.74,157.69 C 142.16,158.31 141.25,158.71 140.47,158.89 C 139.99,159.0 139.56,159.03 138.97,159.08 C 138.27,159.13 137.34,159.22 136.72,159.43 C 136.76,159.14 137.07,158.97 137.37,158.85 C 137.85,158.66 138.32,158.61 138.74,158.54 C 139.33,158.44 139.83,158.29 140.41,157.98 C 140.95,157.69 141.57,157.25 141.86,156.68 C 141.98,156.45 142.04,156.19 142.06,155.93 C 142.08,155.64 142.05,155.35 142.1,155.07 C 142.16,154.73 142.36,154.41 142.58,154.14 z M 131.96,164.16 C 132.13,163.99 132.3,163.75 132.47,163.48 C 132.63,163.2 132.79,162.89 132.92,162.61 C 133.03,162.38 133.13,162.18 133.23,161.98 C 133.33,161.78 133.44,161.59 133.57,161.39 C 133.78,161.07 134.05,160.73 134.38,160.43 C 134.7,160.13 135.07,159.86 135.46,159.68 C 135.82,159.53 136.2,159.45 136.58,159.43 C 136.63,159.43 136.68,159.43 136.72,159.43 C 137.33,159.41 137.94,159.53 138.55,159.59 C 139.16,159.65 139.77,159.66 140.35,159.54 C 140.74,159.46 141.11,159.32 141.47,159.15 C 141.18,159.42 140.93,159.73 140.72,160.06 C 140.4,160.57 140.19,161.13 140.02,161.69 C 139.86,162.26 139.73,162.83 139.48,163.36 C 139.46,163.4 139.44,163.45 139.42,163.49 C 139.34,163.65 139.24,163.81 139.13,163.96 C 139.02,164.11 138.89,164.25 138.75,164.38 C 138.44,164.67 138.05,164.91 137.64,165.08 C 137.22,165.26 136.79,165.38 136.41,165.44 C 136.16,165.48 135.94,165.5 135.7,165.5 C 135.47,165.51 135.22,165.51 134.94,165.5 C 134.27,165.48 133.41,165.42 132.88,165.46 C 132.92,165.27 133.19,165.19 133.47,165.14 C 133.9,165.06 134.35,165.07 134.75,165.04 C 135.32,165.01 135.82,164.91 136.41,164.65 C 136.97,164.4 137.61,164.0 137.93,163.47 C 138.06,163.25 138.14,163.0 138.17,162.76 C 138.2,162.48 138.18,162.2 138.24,161.93 C 138.31,161.6 138.52,161.29 138.75,161.03 C 138.42,161.15 138.05,161.22 137.7,161.17 C 137.42,161.13 137.16,161.0 136.88,160.92 C 136.63,160.85 136.37,160.82 136.1,160.86 C 135.47,160.94 134.84,161.36 134.38,161.76 C 133.9,162.17 133.6,162.55 133.32,162.99 C 133.11,163.31 132.92,163.66 132.62,163.93 C 132.43,164.1 132.2,164.24 131.96,164.16 z M 129.54,160.7 C 129.54,160.45 129.76,160.28 129.98,160.16 C 130.34,159.98 130.73,159.91 131.1,159.83 C 131.61,159.71 132.07,159.56 132.62,159.25 C 133.15,158.95 133.77,158.51 134.06,157.94 C 134.18,157.7 134.25,157.44 134.27,157.18 C 134.29,156.9 134.26,156.61 134.31,156.33 C 134.38,155.99 134.58,155.66 134.8,155.4 C 134.48,155.52 134.11,155.61 133.78,155.57 C 133.51,155.53 133.25,155.41 132.98,155.35 C 132.74,155.29 132.49,155.28 132.23,155.33 C 131.62,155.44 131.02,155.92 130.6,156.36 C 130.15,156.82 129.89,157.25 129.66,157.78 C 129.5,158.15 129.35,158.57 129.14,158.95 C 128.99,159.19 128.82,159.42 128.63,159.4 C 128.85,158.91 129.09,158.08 129.3,157.44 C 129.39,157.18 129.47,156.95 129.56,156.73 C 129.64,156.51 129.74,156.3 129.86,156.09 C 130.05,155.74 130.3,155.38 130.61,155.05 C 130.92,154.73 131.28,154.44 131.65,154.25 C 131.83,154.16 132.0,154.09 132.18,154.03 C 132.36,153.98 132.54,153.95 132.72,153.92 C 132.77,153.92 132.81,153.91 132.86,153.91 C 133.44,153.85 134.02,153.93 134.61,153.97 C 135.2,154.0 135.8,154.0 136.38,153.88 C 136.77,153.79 137.14,153.65 137.5,153.48 C 137.21,153.75 136.96,154.06 136.75,154.4 C 136.43,154.9 136.24,155.48 136.09,156.07 C 135.94,156.67 135.84,157.27 135.62,157.84 C 135.6,157.89 135.58,157.93 135.56,157.98 C 135.41,158.32 135.21,158.66 134.94,158.94 C 134.65,159.25 134.27,159.51 133.87,159.71 C 133.47,159.91 133.06,160.05 132.69,160.14 C 132.46,160.19 132.25,160.23 132.02,160.25 C 131.8,160.28 131.57,160.3 131.32,160.33 C 131.01,160.36 130.67,160.4 130.35,160.46 C 130.04,160.52 129.75,160.6 129.54,160.7 z M 132.86,153.91 C 132.91,153.63 133.2,153.44 133.5,153.31 C 133.96,153.11 134.41,153.03 134.82,152.94 C 135.4,152.82 135.89,152.66 136.46,152.35 C 137.01,152.06 137.64,151.63 137.95,151.1 C 138.08,150.87 138.15,150.63 138.18,150.39 C 138.22,150.12 138.2,149.86 138.27,149.6 C 138.36,149.29 138.57,149.01 138.82,148.77 C 138.49,148.88 138.12,148.96 137.79,148.92 C 137.52,148.89 137.28,148.78 137.02,148.73 C 136.79,148.68 136.54,148.67 136.28,148.72 C 135.67,148.83 135.04,149.25 134.57,149.65 C 134.07,150.07 133.75,150.46 133.43,150.95 C 133.2,151.3 132.97,151.7 132.64,152.08 C 132.42,152.32 132.15,152.56 131.89,152.53 C 132.3,152.02 132.74,151.23 133.07,150.64 C 133.34,150.15 133.54,149.79 133.83,149.41 C 134.31,148.8 135.03,148.13 135.81,147.79 C 136.16,147.63 136.53,147.54 136.89,147.5 C 136.94,147.49 136.98,147.49 137.03,147.48 C 137.61,147.43 138.17,147.49 138.76,147.52 C 139.33,147.55 139.93,147.55 140.52,147.44 C 140.9,147.37 141.29,147.26 141.65,147.12 C 141.35,147.34 141.06,147.6 140.83,147.89 C 140.48,148.33 140.24,148.84 140.05,149.37 C 139.87,149.91 139.74,150.48 139.5,151.01 C 139.48,151.05 139.46,151.09 139.44,151.14 C 139.28,151.47 139.07,151.78 138.8,152.06 C 138.2,152.66 137.28,153.05 136.51,153.23 C 136.03,153.35 135.6,153.38 135.03,153.45 C 134.35,153.53 133.45,153.66 132.86,153.91 z M 146.35,159.52 C 146.04,159.67 145.7,159.78 145.38,159.75 C 145.11,159.73 144.87,159.62 144.61,159.56 C 144.37,159.51 144.12,159.5 143.86,159.54 C 143.25,159.65 142.64,160.09 142.17,160.51 C 141.69,160.94 141.37,161.35 141.06,161.85 C 140.83,162.2 140.61,162.6 140.26,162.97 C 140.03,163.2 139.76,163.42 139.48,163.36 C 139.91,162.89 140.34,162.09 140.65,161.48 C 140.91,160.97 141.09,160.58 141.36,160.17 C 141.8,159.5 142.48,158.77 143.25,158.42 C 143.6,158.25 143.97,158.17 144.33,158.13 C 144.38,158.13 144.43,158.12 144.47,158.12 C 145.06,158.08 145.63,158.15 146.2,158.16 C 146.77,158.17 147.33,158.11 147.86,157.93 C 148.21,157.81 148.55,157.63 148.87,157.43 C 148.61,157.72 148.37,158.04 148.17,158.38 C 147.87,158.89 147.67,159.45 147.5,160.01 C 147.32,160.57 147.19,161.12 146.94,161.64 C 146.92,161.69 146.9,161.73 146.88,161.77 C 146.72,162.09 146.51,162.4 146.24,162.68 C 145.65,163.3 144.77,163.75 144.04,163.98 C 143.58,164.13 143.17,164.2 142.62,164.29 C 141.95,164.39 141.06,164.53 140.45,164.74 C 140.51,164.49 140.82,164.32 141.12,164.2 C 141.59,164.01 142.05,163.93 142.45,163.84 C 143.02,163.71 143.51,163.54 144.07,163.21 C 144.61,162.9 145.22,162.46 145.53,161.92 C 145.66,161.7 145.74,161.46 145.77,161.23 C 145.81,160.96 145.79,160.7 145.85,160.43 C 145.93,160.11 146.13,159.79 146.35,159.52 z M 152.23,150.64 C 152.03,150.9 151.83,151.2 151.66,151.52 C 151.4,152.01 151.22,152.56 151.08,153.12 C 150.93,153.68 150.83,154.25 150.62,154.8 C 150.61,154.85 150.59,154.89 150.57,154.93 C 150.44,155.27 150.26,155.61 150.02,155.9 C 149.5,156.56 148.69,157.05 147.98,157.3 C 147.76,157.38 147.55,157.44 147.33,157.49 C 147.11,157.54 146.88,157.58 146.61,157.63 C 145.95,157.74 145.07,157.88 144.47,158.12 C 144.51,157.83 144.81,157.65 145.1,157.52 C 145.56,157.31 146.0,157.23 146.4,157.13 C 146.96,156.98 147.42,156.79 147.94,156.45 C 148.45,156.12 149.01,155.64 149.28,155.08 C 149.39,154.85 149.45,154.6 149.47,154.35 C 149.49,154.08 149.46,153.81 149.52,153.55 C 149.58,153.22 149.76,152.91 149.97,152.64 C 149.68,152.78 149.35,152.89 149.04,152.86 C 148.79,152.85 148.55,152.74 148.3,152.68 C 148.07,152.63 147.82,152.62 147.58,152.66 C 146.99,152.76 146.4,153.2 145.96,153.61 C 145.5,154.05 145.19,154.46 144.9,154.99 C 144.69,155.36 144.48,155.78 144.16,156.17 C 143.94,156.42 143.68,156.65 143.4,156.59 C 143.8,156.08 144.2,155.24 144.49,154.6 C 144.73,154.07 144.9,153.68 145.16,153.27 C 145.58,152.61 146.25,151.91 146.99,151.57 C 147.33,151.42 147.68,151.34 148.03,151.3 C 148.08,151.3 148.12,151.29 148.17,151.29 C 148.73,151.25 149.28,151.31 149.82,151.32 C 150.35,151.32 150.88,151.27 151.36,151.1 C 151.68,150.99 151.97,150.82 152.23,150.64 z M 140.57,152.54 C 140.61,152.26 140.91,152.09 141.22,151.98 C 141.7,151.8 142.17,151.75 142.58,151.68 C 143.18,151.58 143.67,151.44 144.24,151.15 C 144.78,150.88 145.39,150.47 145.69,149.96 C 145.81,149.74 145.88,149.51 145.91,149.28 C 145.95,149.02 145.93,148.76 145.99,148.52 C 146.08,148.22 146.29,147.95 146.52,147.72 C 146.2,147.82 145.84,147.88 145.52,147.83 C 145.25,147.79 145.0,147.68 144.74,147.6 C 144.5,147.54 144.25,147.51 143.99,147.54 C 143.38,147.6 142.74,147.96 142.25,148.32 C 141.75,148.7 141.41,149.07 141.09,149.54 C 140.85,149.88 140.63,150.27 140.28,150.63 C 140.05,150.86 139.78,151.07 139.5,151.01 C 139.92,150.53 140.36,149.75 140.69,149.17 C 140.83,148.94 140.94,148.73 141.07,148.54 C 141.19,148.35 141.31,148.17 141.46,147.99 C 141.94,147.41 142.68,146.82 143.47,146.55 C 143.84,146.43 144.21,146.38 144.58,146.37 C 144.62,146.36 144.67,146.36 144.72,146.36 C 145.31,146.36 145.88,146.46 146.46,146.52 C 147.03,146.57 147.61,146.59 148.15,146.51 C 148.51,146.47 148.86,146.38 149.18,146.28 C 148.92,146.46 148.66,146.68 148.45,146.93 C 148.12,147.33 147.89,147.81 147.71,148.31 C 147.53,148.82 147.4,149.36 147.17,149.88 C 147.16,149.92 147.14,149.96 147.12,150.0 C 146.97,150.31 146.77,150.62 146.51,150.89 C 145.94,151.47 145.05,151.85 144.29,152.02 C 143.81,152.13 143.38,152.16 142.81,152.2 C 142.11,152.25 141.18,152.34 140.57,152.54 z M 146.52,142.49 C 146.2,142.58 145.89,142.71 145.61,142.89 C 145.2,143.16 144.88,143.51 144.62,143.9 C 144.36,144.29 144.15,144.72 143.85,145.13 C 143.83,145.16 143.81,145.2 143.78,145.23 C 143.59,145.49 143.35,145.74 143.06,145.95 C 142.41,146.43 141.48,146.75 140.7,146.9 C 140.22,146.99 139.79,147.02 139.22,147.08 C 138.54,147.16 137.64,147.27 137.03,147.48 C 137.1,147.25 137.41,147.09 137.72,146.98 C 138.2,146.8 138.66,146.74 139.07,146.66 C 139.66,146.55 140.16,146.42 140.75,146.18 C 141.32,145.94 141.98,145.6 142.35,145.18 C 142.5,145.01 142.6,144.82 142.67,144.64 C 142.74,144.44 142.76,144.24 142.87,144.05 C 143.0,143.82 143.25,143.61 143.53,143.44 C 143.19,143.52 142.82,143.57 142.51,143.55 C 142.26,143.53 142.05,143.45 141.81,143.41 C 141.59,143.38 141.35,143.37 141.1,143.41 C 140.5,143.49 139.82,143.8 139.3,144.1 C 138.74,144.41 138.36,144.71 137.97,145.09 C 137.69,145.36 137.41,145.68 137.03,145.99 C 136.78,146.18 136.49,146.38 136.24,146.36 C 136.71,145.94 137.25,145.32 137.67,144.86 C 137.84,144.67 137.99,144.52 138.15,144.37 C 138.3,144.22 138.45,144.08 138.63,143.94 C 139.2,143.49 140.02,143.02 140.83,142.77 C 141.2,142.66 141.56,142.6 141.91,142.56 C 141.96,142.56 142.0,142.56 142.05,142.55 C 142.61,142.51 143.14,142.55 143.7,142.58 C 144.25,142.6 144.82,142.61 145.4,142.58 C 145.78,142.56 146.16,142.52 146.52,142.49 z M 144.98,140.29 C 144.62,140.32 144.26,140.39 143.93,140.48 C 143.43,140.62 143.01,140.83 142.64,141.06 C 142.26,141.3 141.94,141.56 141.55,141.84 C 141.52,141.86 141.49,141.88 141.45,141.91 C 141.2,142.08 140.92,142.26 140.59,142.43 C 139.86,142.79 138.93,143.11 138.19,143.31 C 137.96,143.38 137.74,143.43 137.53,143.48 C 137.31,143.53 137.08,143.59 136.82,143.65 C 136.2,143.81 135.39,144.06 134.81,144.32 C 134.94,144.16 135.25,144.0 135.55,143.87 C 136.01,143.67 136.42,143.55 136.8,143.42 C 137.34,143.25 137.82,143.09 138.43,142.85 C 139.0,142.63 139.69,142.33 140.15,142.04 C 140.34,141.92 140.49,141.81 140.6,141.7 C 140.73,141.58 140.82,141.47 140.98,141.35 C 141.17,141.22 141.48,141.08 141.79,140.96 C 141.46,141.05 141.11,141.13 140.84,141.16 C 140.63,141.2 140.47,141.2 140.28,141.23 C 140.1,141.26 139.9,141.3 139.68,141.37 C 139.13,141.53 138.43,141.82 137.87,142.07 C 137.29,142.33 136.85,142.55 136.39,142.83 C 136.05,143.02 135.71,143.24 135.28,143.5 C 135.01,143.66 134.71,143.83 134.51,143.89 C 135.03,143.55 135.71,143.12 136.23,142.81 C 136.45,142.68 136.64,142.58 136.82,142.48 C 137.01,142.38 137.2,142.29 137.4,142.19 C 138.06,141.87 138.96,141.5 139.74,141.22 C 140.1,141.09 140.44,140.99 140.75,140.9 C 140.79,140.89 140.83,140.87 140.86,140.86 C 141.36,140.73 141.8,140.64 142.29,140.56 C 142.76,140.48 143.28,140.42 143.85,140.36 C 144.22,140.33 144.6,140.3 144.98,140.29 z M 139.0,143.33 C 138.66,143.51 138.35,143.72 138.07,143.95 C 137.64,144.29 137.32,144.67 137.04,145.08 C 136.77,145.49 136.55,145.92 136.24,146.36 C 136.22,146.4 136.19,146.43 136.17,146.47 C 135.97,146.74 135.73,147.01 135.44,147.26 C 134.8,147.8 133.9,148.22 133.18,148.48 C 132.95,148.56 132.75,148.62 132.53,148.68 C 132.31,148.75 132.09,148.81 131.83,148.88 C 131.22,149.06 130.42,149.33 129.87,149.64 C 129.95,149.42 130.24,149.21 130.52,149.06 C 130.95,148.81 131.35,148.67 131.73,148.52 C 132.25,148.32 132.71,148.12 133.27,147.79 C 133.81,147.49 134.44,147.07 134.81,146.62 C 134.97,146.43 135.08,146.24 135.15,146.06 C 135.23,145.86 135.27,145.67 135.39,145.48 C 135.53,145.25 135.78,145.02 136.05,144.82 C 135.73,144.95 135.39,145.06 135.11,145.09 C 134.88,145.11 134.69,145.09 134.48,145.1 C 134.29,145.11 134.08,145.16 133.85,145.24 C 133.3,145.44 132.67,145.86 132.18,146.23 C 131.66,146.62 131.3,146.96 130.92,147.37 C 130.65,147.66 130.38,148.0 130.02,148.34 C 129.79,148.57 129.52,148.8 129.31,148.84 C 129.75,148.38 130.28,147.73 130.69,147.25 C 130.86,147.06 131.01,146.89 131.16,146.73 C 131.31,146.57 131.46,146.42 131.63,146.27 C 132.18,145.76 132.96,145.18 133.7,144.78 C 134.04,144.6 134.38,144.46 134.69,144.36 C 134.73,144.35 134.77,144.33 134.81,144.32 C 135.32,144.16 135.79,144.09 136.3,144.01 C 136.8,143.93 137.33,143.84 137.89,143.69 C 138.25,143.59 138.63,143.47 139.0,143.33 z M 131.37,150.49 C 131.06,150.65 130.73,150.77 130.44,150.79 C 130.2,150.81 129.99,150.75 129.76,150.75 C 129.56,150.74 129.34,150.78 129.11,150.87 C 128.84,150.97 128.56,151.15 128.29,151.36 C 128.03,151.57 127.78,151.81 127.58,152.05 C 127.36,152.29 127.2,152.52 127.05,152.76 C 126.91,153.0 126.79,153.24 126.68,153.51 C 126.52,153.9 126.39,154.33 126.22,154.78 C 126.11,155.07 125.98,155.37 125.85,155.43 C 125.93,155.13 126.01,154.77 126.11,154.4 C 126.21,154.03 126.32,153.65 126.42,153.33 C 126.51,153.07 126.6,152.85 126.69,152.63 C 126.78,152.42 126.88,152.22 127.01,152.02 C 127.21,151.69 127.47,151.33 127.78,151.01 C 128.08,150.68 128.43,150.38 128.79,150.15 C 128.95,150.04 129.11,149.95 129.27,149.88 C 129.43,149.8 129.59,149.73 129.75,149.68 C 129.79,149.66 129.83,149.65 129.87,149.64 C 130.38,149.48 130.87,149.43 131.39,149.36 C 131.9,149.29 132.44,149.2 132.98,149.02 C 133.34,148.89 133.7,148.73 134.05,148.55 C 133.75,148.81 133.48,149.09 133.25,149.4 C 132.9,149.86 132.66,150.37 132.47,150.9 C 132.28,151.44 132.14,151.99 131.89,152.53 C 131.87,152.57 131.85,152.61 131.83,152.65 C 131.75,152.82 131.66,152.98 131.56,153.14 C 131.45,153.3 131.33,153.45 131.2,153.6 C 130.91,153.91 130.54,154.19 130.17,154.42 C 129.8,154.66 129.42,154.85 129.09,154.99 C 128.88,155.08 128.69,155.15 128.5,155.22 C 128.31,155.29 128.12,155.36 127.91,155.45 C 127.65,155.56 127.37,155.69 127.13,155.85 C 126.88,156.01 126.67,156.2 126.52,156.38 C 126.51,156.12 126.67,155.87 126.84,155.67 C 127.11,155.36 127.43,155.19 127.73,155.02 C 127.94,154.9 128.15,154.78 128.37,154.65 C 128.59,154.51 128.81,154.36 129.07,154.17 C 129.31,153.99 129.58,153.78 129.82,153.55 C 130.07,153.31 130.3,153.06 130.45,152.79 C 130.58,152.56 130.66,152.32 130.71,152.1 C 130.75,151.84 130.75,151.6 130.83,151.35 C 130.92,151.05 131.14,150.75 131.37,150.49 z M 137.37,165.69 C 137.07,165.92 136.78,166.17 136.55,166.42 C 136.19,166.8 135.93,167.2 135.71,167.56 C 135.48,167.92 135.28,168.25 134.98,168.47 C 134.96,168.49 134.94,168.51 134.91,168.53 C 134.81,168.59 134.7,168.65 134.58,168.69 C 134.46,168.73 134.33,168.76 134.19,168.78 C 133.88,168.81 133.52,168.77 133.16,168.69 C 132.81,168.61 132.46,168.49 132.16,168.36 C 131.98,168.28 131.81,168.2 131.63,168.11 C 131.46,168.02 131.28,167.93 131.09,167.82 C 130.85,167.69 130.59,167.54 130.34,167.4 C 130.09,167.26 129.87,167.13 129.68,167.02 C 129.74,167.01 129.93,167.1 130.13,167.19 C 130.43,167.33 130.73,167.49 131.01,167.63 C 131.22,167.73 131.41,167.82 131.61,167.9 C 131.81,167.98 132.02,168.05 132.26,168.1 C 132.49,168.16 132.74,168.2 132.98,168.21 C 133.22,168.22 133.44,168.19 133.61,168.11 C 133.68,168.08 133.73,168.03 133.78,167.98 C 133.83,167.93 133.86,167.88 133.89,167.82 C 133.95,167.68 133.95,167.51 134.03,167.37 C 134.13,167.19 134.34,167.04 134.58,166.9 C 134.26,166.92 133.92,166.9 133.63,166.79 C 133.39,166.71 133.17,166.57 132.94,166.46 C 132.84,166.41 132.73,166.37 132.63,166.34 C 132.52,166.3 132.41,166.27 132.31,166.25 C 132.05,166.21 131.81,166.2 131.59,166.22 C 131.36,166.24 131.17,166.27 131.0,166.3 C 130.83,166.34 130.69,166.37 130.57,166.41 C 130.44,166.44 130.34,166.48 130.23,166.52 C 130.08,166.57 129.93,166.62 129.71,166.6 C 129.57,166.58 129.41,166.54 129.27,166.44 C 129.4,166.46 129.53,166.46 129.66,166.42 C 129.78,166.39 129.9,166.33 130.0,166.27 C 130.08,166.21 130.15,166.16 130.22,166.1 C 130.3,166.04 130.37,165.99 130.46,165.93 C 130.6,165.83 130.79,165.72 131.02,165.63 C 131.25,165.53 131.52,165.44 131.83,165.41 C 131.97,165.4 132.12,165.39 132.28,165.4 C 132.43,165.4 132.59,165.42 132.75,165.44 C 132.79,165.45 132.83,165.46 132.88,165.46 C 133.4,165.55 133.94,165.73 134.51,165.85 C 135.07,165.97 135.65,166.04 136.24,165.98 C 136.62,165.93 137.0,165.83 137.37,165.69 z M 131.22,162.1 C 130.95,162.19 130.66,162.24 130.4,162.18 C 130.18,162.13 129.98,162.02 129.78,161.95 C 129.69,161.92 129.6,161.9 129.51,161.89 C 129.42,161.88 129.34,161.88 129.25,161.89 C 129.05,161.92 128.88,162.02 128.73,162.14 C 128.58,162.27 128.47,162.42 128.37,162.55 C 128.28,162.7 128.21,162.83 128.16,162.97 C 128.11,163.1 128.07,163.24 128.03,163.38 C 127.98,163.58 127.94,163.79 127.86,163.95 C 127.8,164.06 127.73,164.14 127.64,164.11 C 127.68,164.01 127.72,163.87 127.75,163.7 C 127.78,163.53 127.8,163.33 127.82,163.15 C 127.83,163.0 127.85,162.86 127.86,162.73 C 127.88,162.59 127.9,162.46 127.93,162.32 C 127.99,162.09 128.07,161.84 128.2,161.6 C 128.33,161.35 128.5,161.12 128.72,160.97 C 128.82,160.9 128.94,160.84 129.06,160.8 C 129.18,160.75 129.31,160.73 129.44,160.71 C 129.47,160.71 129.51,160.7 129.54,160.7 C 129.98,160.67 130.46,160.75 130.98,160.81 C 131.49,160.86 132.04,160.88 132.59,160.77 C 132.95,160.69 133.31,160.56 133.66,160.39 C 133.38,160.66 133.14,160.96 132.94,161.27 C 132.65,161.75 132.48,162.27 132.35,162.77 C 132.23,163.28 132.14,163.76 131.96,164.16 C 131.95,164.19 131.93,164.22 131.92,164.25 C 131.86,164.37 131.79,164.48 131.71,164.58 C 131.63,164.68 131.53,164.77 131.43,164.84 C 131.21,164.99 130.93,165.08 130.66,165.12 C 130.39,165.15 130.12,165.14 129.89,165.11 C 129.75,165.1 129.62,165.07 129.48,165.04 C 129.35,165.01 129.21,164.97 129.07,164.94 C 128.89,164.9 128.7,164.85 128.53,164.82 C 128.36,164.79 128.22,164.77 128.11,164.78 C 128.11,164.68 128.22,164.64 128.33,164.63 C 128.51,164.6 128.73,164.64 128.93,164.66 C 129.07,164.68 129.21,164.69 129.36,164.68 C 129.5,164.68 129.65,164.66 129.82,164.62 C 129.98,164.58 130.16,164.52 130.33,164.43 C 130.5,164.33 130.65,164.2 130.75,164.02 C 130.79,163.95 130.82,163.87 130.84,163.78 C 130.86,163.69 130.87,163.6 130.87,163.5 C 130.87,163.29 130.83,163.06 130.86,162.84 C 130.9,162.58 131.04,162.32 131.22,162.1 z M 127.86,157.31 C 127.65,157.48 127.43,157.63 127.23,157.66 C 127.07,157.68 126.91,157.63 126.76,157.64 C 126.7,157.64 126.63,157.66 126.57,157.68 C 126.51,157.71 126.45,157.75 126.39,157.8 C 126.26,157.93 126.16,158.13 126.08,158.36 C 126.01,158.59 125.96,158.84 125.94,159.07 C 125.91,159.31 125.9,159.53 125.91,159.75 C 125.91,159.97 125.93,160.18 125.95,160.4 C 125.98,160.72 126.03,161.06 126.07,161.39 C 126.09,161.6 126.1,161.81 126.07,161.86 C 126.03,161.66 125.99,161.39 125.94,161.11 C 125.89,160.83 125.84,160.53 125.8,160.27 C 125.77,160.05 125.74,159.85 125.71,159.66 C 125.69,159.47 125.67,159.28 125.66,159.08 C 125.65,158.75 125.65,158.38 125.69,158.02 C 125.74,157.66 125.83,157.31 125.96,157.03 C 126.03,156.9 126.1,156.79 126.18,156.69 C 126.26,156.59 126.35,156.5 126.45,156.43 C 126.47,156.42 126.49,156.4 126.52,156.38 C 126.84,156.18 127.21,156.11 127.63,156.02 C 128.04,155.93 128.5,155.83 128.98,155.62 C 129.3,155.48 129.63,155.3 129.96,155.1 C 129.69,155.39 129.47,155.71 129.29,156.06 C 129.03,156.59 128.9,157.16 128.82,157.73 C 128.75,158.31 128.72,158.87 128.63,159.4 C 128.62,159.44 128.61,159.48 128.6,159.52 C 128.57,159.68 128.53,159.83 128.49,159.98 C 128.44,160.13 128.38,160.27 128.32,160.39 C 128.18,160.67 128.01,160.9 127.84,161.08 C 127.67,161.27 127.51,161.41 127.37,161.51 C 127.28,161.57 127.2,161.62 127.12,161.67 C 127.04,161.72 126.97,161.76 126.89,161.82 C 126.79,161.9 126.7,161.99 126.62,162.09 C 126.55,162.2 126.5,162.32 126.48,162.45 C 126.43,162.28 126.44,162.11 126.48,161.98 C 126.53,161.77 126.63,161.64 126.73,161.52 C 126.8,161.43 126.88,161.35 126.95,161.24 C 127.03,161.14 127.11,161.02 127.2,160.87 C 127.28,160.73 127.38,160.55 127.47,160.35 C 127.57,160.15 127.65,159.91 127.69,159.66 C 127.71,159.55 127.72,159.44 127.72,159.33 C 127.73,159.22 127.72,159.11 127.71,158.99 C 127.69,158.74 127.63,158.49 127.64,158.24 C 127.64,157.92 127.73,157.59 127.86,157.31 z M 125.39,153.79 C 125.24,154.04 125.1,154.29 124.97,154.43 C 124.87,154.54 124.78,154.58 124.69,154.68 C 124.66,154.73 124.62,154.78 124.59,154.85 C 124.55,154.92 124.52,155.0 124.49,155.09 C 124.42,155.31 124.38,155.59 124.35,155.89 C 124.33,156.19 124.33,156.51 124.34,156.79 C 124.35,157.09 124.38,157.36 124.42,157.62 C 124.45,157.88 124.49,158.13 124.54,158.39 C 124.62,158.77 124.71,159.17 124.81,159.6 C 124.88,159.88 124.95,160.18 124.98,160.3 C 124.81,159.76 124.62,158.99 124.49,158.39 C 124.43,158.15 124.39,157.93 124.35,157.72 C 124.32,157.5 124.29,157.3 124.26,157.07 C 124.22,156.71 124.18,156.29 124.19,155.87 C 124.19,155.45 124.23,155.03 124.3,154.65 C 124.33,154.48 124.38,154.33 124.42,154.18 C 124.47,154.03 124.53,153.9 124.58,153.77 C 124.6,153.74 124.61,153.71 124.63,153.68 C 124.82,153.3 125.06,153.04 125.35,152.77 C 125.64,152.51 125.99,152.23 126.39,151.91 C 126.65,151.69 126.94,151.46 127.23,151.21 C 126.97,151.51 126.74,151.83 126.56,152.16 C 126.29,152.67 126.14,153.22 126.05,153.76 C 125.95,154.31 125.91,154.86 125.85,155.43 C 125.84,155.47 125.84,155.52 125.83,155.56 C 125.81,155.73 125.79,155.91 125.76,156.09 C 125.73,156.26 125.7,156.44 125.67,156.6 C 125.59,156.98 125.51,157.33 125.43,157.65 C 125.36,157.96 125.29,158.25 125.24,158.48 C 125.21,158.63 125.19,158.75 125.17,158.88 C 125.15,159.01 125.13,159.14 125.12,159.29 C 125.1,159.48 125.1,159.7 125.11,159.94 C 125.13,160.17 125.17,160.42 125.21,160.64 C 125.15,160.45 125.09,160.18 125.05,159.94 C 125.0,159.58 124.99,159.3 125.0,159.04 C 125.0,158.86 125.01,158.68 125.02,158.49 C 125.03,158.29 125.05,158.08 125.07,157.84 C 125.09,157.6 125.13,157.33 125.16,157.04 C 125.19,156.76 125.23,156.46 125.24,156.16 C 125.25,156.04 125.25,155.92 125.25,155.81 C 125.25,155.69 125.25,155.57 125.24,155.47 C 125.23,155.22 125.2,155.01 125.2,154.76 C 125.21,154.46 125.29,154.1 125.39,153.79 z M 124.63,153.68 C 124.64,153.45 124.76,153.15 124.89,152.88 C 125.09,152.48 125.32,152.18 125.56,151.92 C 125.73,151.73 125.9,151.56 126.08,151.37 C 126.26,151.19 126.46,151.0 126.69,150.78 C 126.91,150.57 127.17,150.34 127.41,150.1 C 127.66,149.87 127.9,149.63 128.08,149.4 C 128.24,149.21 128.36,149.03 128.44,148.86 C 128.54,148.68 128.6,148.53 128.73,148.35 C 128.88,148.13 129.13,147.88 129.38,147.65 C 129.1,147.84 128.8,148.02 128.58,148.14 C 128.39,148.23 128.25,148.27 128.08,148.35 C 127.93,148.43 127.76,148.53 127.57,148.67 C 127.34,148.84 127.08,149.05 126.83,149.28 C 126.58,149.5 126.34,149.75 126.13,149.97 C 125.91,150.21 125.73,150.44 125.58,150.66 C 125.42,150.88 125.29,151.1 125.16,151.34 C 124.98,151.69 124.81,152.08 124.65,152.55 C 124.55,152.84 124.44,153.17 124.37,153.32 C 124.45,153.02 124.54,152.67 124.66,152.32 C 124.78,151.98 124.92,151.65 125.05,151.38 C 125.17,151.15 125.28,150.96 125.39,150.78 C 125.51,150.61 125.63,150.44 125.78,150.26 C 126.01,149.97 126.3,149.66 126.62,149.35 C 126.94,149.04 127.28,148.74 127.61,148.47 C 127.76,148.35 127.9,148.23 128.04,148.12 C 128.18,148.01 128.32,147.91 128.45,147.81 C 128.48,147.79 128.51,147.77 128.54,147.74 C 128.96,147.45 129.33,147.23 129.73,147.0 C 130.14,146.77 130.58,146.55 131.06,146.27 C 131.38,146.09 131.71,145.9 132.05,145.69 C 131.73,145.92 131.43,146.17 131.16,146.42 C 130.76,146.8 130.43,147.19 130.14,147.58 C 129.86,147.99 129.62,148.4 129.31,148.84 C 129.29,148.87 129.26,148.91 129.24,148.94 C 129.14,149.08 129.03,149.22 128.91,149.36 C 128.79,149.5 128.66,149.64 128.52,149.77 C 128.22,150.08 127.87,150.37 127.52,150.64 C 127.18,150.91 126.84,151.17 126.56,151.38 C 126.39,151.52 126.23,151.64 126.08,151.77 C 125.93,151.89 125.78,152.02 125.62,152.18 C 125.42,152.38 125.22,152.62 125.05,152.88 C 124.87,153.14 124.73,153.42 124.63,153.68 z M 144.31,149.04 C 144.21,149.16 144.1,149.27 144.01,149.39 C 143.92,149.52 143.86,149.66 143.81,149.81 C 143.71,150.11 143.67,150.44 143.46,150.68 C 143.25,150.9 142.89,151.04 142.55,151.1 C 142.1,151.18 141.69,151.12 141.27,151.2 C 140.85,151.29 140.42,151.51 140.04,151.76 C 140.42,151.5 140.79,151.2 141.03,150.86 C 141.27,150.52 141.37,150.14 141.62,149.77 C 141.81,149.5 142.09,149.24 142.39,149.15 C 142.7,149.05 143.03,149.14 143.36,149.17 C 143.52,149.19 143.68,149.18 143.85,149.16 C 144.0,149.13 144.16,149.08 144.31,149.04 z M 136.19,158.62 C 136.56,158.36 136.93,158.04 137.15,157.68 C 137.38,157.31 137.46,156.91 137.7,156.51 C 137.87,156.21 138.14,155.92 138.43,155.81 C 138.74,155.7 139.09,155.8 139.43,155.83 C 139.59,155.85 139.76,155.84 139.92,155.81 C 140.08,155.78 140.24,155.73 140.4,155.68 C 140.29,155.81 140.19,155.94 140.11,156.07 C 140.02,156.22 139.96,156.37 139.92,156.53 C 139.83,156.86 139.81,157.22 139.59,157.48 C 139.4,157.72 139.03,157.86 138.69,157.93 C 138.24,158.01 137.82,157.95 137.41,158.04 C 136.99,158.13 136.56,158.37 136.19,158.62 z M 147.97,154.26 C 147.88,154.4 147.78,154.53 147.7,154.66 C 147.62,154.81 147.57,154.96 147.52,155.11 C 147.44,155.43 147.41,155.78 147.21,156.04 C 147.02,156.28 146.68,156.45 146.36,156.54 C 145.93,156.66 145.54,156.62 145.14,156.73 C 144.74,156.83 144.33,157.08 143.96,157.35 C 144.32,157.08 144.68,156.75 144.9,156.38 C 145.12,156.02 145.2,155.62 145.44,155.22 C 145.61,154.92 145.86,154.63 146.14,154.51 C 146.44,154.39 146.76,154.47 147.08,154.48 C 147.23,154.48 147.38,154.47 147.54,154.43 C 147.68,154.39 147.82,154.33 147.97,154.26 z M 136.64,146.89 C 137.02,146.66 137.42,146.38 137.7,146.1 C 137.98,145.81 138.13,145.51 138.43,145.22 C 138.66,145.0 138.97,144.78 139.26,144.69 C 139.58,144.59 139.88,144.64 140.19,144.64 C 140.34,144.64 140.5,144.63 140.66,144.6 C 140.81,144.58 140.97,144.53 141.13,144.49 C 141.01,144.59 140.88,144.68 140.78,144.78 C 140.67,144.88 140.59,144.99 140.52,145.11 C 140.37,145.34 140.29,145.61 140.05,145.81 C 139.82,146.0 139.45,146.12 139.11,146.19 C 138.67,146.28 138.29,146.25 137.88,146.35 C 137.47,146.45 137.03,146.66 136.64,146.89 z M 132.38,153.19 C 132.75,152.91 133.11,152.59 133.34,152.24 C 133.58,151.88 133.68,151.51 133.93,151.13 C 134.12,150.85 134.39,150.57 134.67,150.45 C 134.98,150.33 135.3,150.39 135.62,150.4 C 135.78,150.4 135.94,150.39 136.1,150.35 C 136.25,150.32 136.41,150.26 136.57,150.21 C 136.46,150.33 136.35,150.45 136.26,150.58 C 136.17,150.72 136.1,150.86 136.05,151.01 C 135.95,151.32 135.91,151.65 135.69,151.9 C 135.49,152.13 135.13,152.29 134.8,152.37 C 134.35,152.47 133.97,152.44 133.56,152.55 C 133.16,152.67 132.75,152.92 132.38,153.19 z M 129.09,160.03 C 129.32,159.77 129.58,159.46 129.74,159.11 C 129.89,158.76 129.94,158.37 130.14,157.97 C 130.28,157.67 130.51,157.36 130.77,157.24 C 131.05,157.11 131.38,157.18 131.7,157.19 C 131.85,157.19 132.01,157.18 132.17,157.14 C 132.32,157.1 132.47,157.04 132.63,156.99 C 132.53,157.12 132.42,157.25 132.34,157.39 C 132.26,157.53 132.2,157.69 132.16,157.85 C 132.07,158.17 132.04,158.52 131.85,158.78 C 131.67,159.02 131.34,159.17 131.04,159.25 C 130.63,159.35 130.29,159.32 129.96,159.43 C 129.63,159.53 129.33,159.78 129.09,160.03 z M 136.51,162.53 C 136.4,162.66 136.29,162.78 136.21,162.9 C 136.11,163.04 136.05,163.18 136.0,163.33 C 135.9,163.64 135.85,163.97 135.64,164.18 C 135.43,164.39 135.07,164.5 134.74,164.53 C 134.29,164.58 133.91,164.49 133.53,164.52 C 133.14,164.54 132.76,164.68 132.44,164.81 C 132.75,164.67 133.09,164.47 133.3,164.2 C 133.52,163.93 133.6,163.59 133.84,163.25 C 134.01,162.99 134.27,162.73 134.56,162.65 C 134.86,162.55 135.21,162.65 135.54,162.68 C 135.7,162.69 135.87,162.69 136.03,162.66 C 136.19,162.63 136.35,162.58 136.51,162.53 z M 133.75,146.19 C 133.63,146.3 133.51,146.41 133.41,146.51 C 133.3,146.63 133.22,146.74 133.14,146.86 C 132.99,147.1 132.9,147.35 132.66,147.58 C 132.44,147.79 132.1,147.97 131.8,148.09 C 131.4,148.25 131.07,148.31 130.71,148.47 C 130.35,148.64 129.95,148.92 129.59,149.2 C 129.95,148.92 130.31,148.6 130.58,148.29 C 130.85,147.99 131.01,147.69 131.3,147.37 C 131.52,147.14 131.81,146.88 132.08,146.74 C 132.36,146.59 132.62,146.56 132.9,146.5 C 133.03,146.47 133.17,146.44 133.32,146.38 C 133.46,146.33 133.6,146.26 133.75,146.19 z M 126.18,155.87 C 126.34,155.51 126.53,155.11 126.66,154.72 C 126.73,154.52 126.78,154.33 126.83,154.14 C 126.89,153.94 126.95,153.75 127.04,153.54 C 127.11,153.39 127.19,153.23 127.29,153.09 C 127.39,152.95 127.51,152.83 127.62,152.74 C 127.87,152.56 128.14,152.56 128.42,152.5 C 128.55,152.48 128.69,152.44 128.83,152.37 C 128.97,152.32 129.11,152.24 129.25,152.16 C 129.15,152.3 129.04,152.42 128.96,152.55 C 128.87,152.7 128.81,152.84 128.75,152.99 C 128.65,153.28 128.6,153.6 128.42,153.87 C 128.33,154.0 128.21,154.12 128.08,154.22 C 127.96,154.32 127.82,154.41 127.7,154.48 C 127.53,154.58 127.38,154.64 127.23,154.71 C 127.09,154.78 126.96,154.85 126.83,154.95 C 126.57,155.16 126.34,155.52 126.18,155.87 z M 126.83,159.1 C 126.81,159.24 126.78,159.36 126.77,159.48 C 126.76,159.62 126.76,159.75 126.77,159.88 C 126.79,160.15 126.84,160.42 126.81,160.64 C 126.8,160.75 126.77,160.84 126.73,160.92 C 126.7,161.0 126.65,161.07 126.61,161.13 C 126.5,161.28 126.4,161.33 126.34,161.49 C 126.28,161.64 126.26,161.9 126.27,162.13 C 126.26,161.89 126.26,161.61 126.23,161.33 C 126.2,161.04 126.14,160.75 126.11,160.41 C 126.1,160.28 126.1,160.15 126.1,160.03 C 126.11,159.9 126.13,159.79 126.16,159.71 C 126.23,159.54 126.35,159.52 126.48,159.46 C 126.54,159.43 126.6,159.39 126.66,159.32 C 126.71,159.26 126.77,159.18 126.83,159.1 z M 132.69,144.67 C 132.58,144.75 132.47,144.82 132.37,144.88 C 132.35,144.9 132.32,144.91 132.3,144.93 C 132.17,145.01 132.06,145.09 131.96,145.16 C 131.75,145.32 131.57,145.46 131.31,145.65 C 131.07,145.83 130.75,146.04 130.49,146.22 C 130.15,146.46 129.9,146.63 129.58,146.87 C 129.51,146.92 129.44,146.98 129.36,147.04 C 129.1,147.24 128.81,147.47 128.54,147.69 C 128.81,147.47 129.08,147.25 129.36,147.03 C 129.92,146.6 130.48,146.18 131.05,145.77 C 131.48,145.47 131.92,145.17 132.37,144.88 C 132.47,144.81 132.58,144.74 132.69,144.67 z M 132.54,167.25 C 132.44,167.28 132.35,167.31 132.27,167.34 C 132.19,167.37 132.13,167.42 132.08,167.46 C 131.98,167.56 131.92,167.67 131.74,167.67 C 131.65,167.68 131.54,167.65 131.42,167.62 C 131.3,167.58 131.18,167.53 131.06,167.48 C 130.75,167.34 130.5,167.19 130.24,167.06 C 129.98,166.93 129.72,166.84 129.49,166.74 C 129.72,166.83 129.96,166.9 130.13,166.9 C 130.29,166.89 130.38,166.81 130.56,166.76 C 130.62,166.74 130.7,166.73 130.79,166.72 C 130.88,166.72 130.98,166.72 131.08,166.74 C 131.3,166.79 131.54,166.93 131.79,167.04 C 131.91,167.09 132.03,167.14 132.16,167.18 C 132.28,167.21 132.4,167.23 132.54,167.25 z M 139.28,141.86 C 139.14,141.93 139.0,142.0 138.88,142.06 C 138.75,142.14 138.64,142.21 138.54,142.28 C 138.34,142.44 138.18,142.6 137.91,142.75 C 137.65,142.9 137.29,143.04 136.98,143.14 C 136.56,143.28 136.25,143.34 135.87,143.48 C 135.49,143.63 135.06,143.85 134.66,144.07 C 135.06,143.84 135.48,143.6 135.8,143.39 C 136.13,143.17 136.36,142.98 136.72,142.77 C 136.99,142.61 137.33,142.44 137.61,142.33 C 137.91,142.21 138.15,142.17 138.42,142.11 C 138.55,142.08 138.68,142.04 138.84,142.0 C 138.98,141.96 139.13,141.91 139.28,141.86 z M 124.49,153.46 C 124.61,153.04 124.77,152.6 124.92,152.22 C 124.99,152.03 125.05,151.86 125.12,151.69 C 125.19,151.52 125.27,151.35 125.38,151.17 C 125.45,151.03 125.55,150.88 125.65,150.74 C 125.75,150.6 125.86,150.47 125.96,150.37 C 126.18,150.14 126.37,150.02 126.58,149.88 C 126.69,149.81 126.8,149.74 126.92,149.65 C 127.04,149.56 127.16,149.46 127.29,149.37 C 127.18,149.48 127.07,149.6 126.97,149.71 C 126.87,149.84 126.78,149.95 126.71,150.07 C 126.56,150.3 126.45,150.54 126.26,150.8 C 126.17,150.92 126.06,151.05 125.95,151.17 C 125.84,151.29 125.73,151.42 125.63,151.52 C 125.49,151.67 125.38,151.79 125.27,151.91 C 125.17,152.03 125.07,152.16 124.98,152.31 C 124.79,152.62 124.61,153.04 124.49,153.46 z M 125.08,160.44 C 124.99,160.08 124.9,159.68 124.82,159.32 C 124.73,158.95 124.65,158.64 124.58,158.23 C 124.53,157.93 124.49,157.57 124.49,157.32 C 124.49,157.06 124.54,156.93 124.59,156.76 C 124.61,156.68 124.64,156.59 124.66,156.47 C 124.69,156.37 124.71,156.24 124.74,156.11 C 124.73,156.27 124.73,156.42 124.73,156.57 C 124.73,156.72 124.74,156.86 124.76,157.01 C 124.79,157.29 124.85,157.57 124.87,157.86 C 124.88,158.0 124.88,158.14 124.88,158.27 C 124.88,158.41 124.88,158.53 124.87,158.65 C 124.87,158.94 124.85,159.12 124.88,159.41 C 124.91,159.69 124.99,160.08 125.08,160.44 z M 141.8,142.17 C 142.22,142.01 142.66,141.83 142.99,141.65 C 143.33,141.48 143.55,141.3 143.91,141.14 C 144.05,141.08 144.2,141.03 144.36,140.99 C 144.52,140.95 144.68,140.92 144.83,140.91 C 145.15,140.89 145.42,140.95 145.7,141.0 C 145.85,141.02 145.99,141.04 146.15,141.06 C 146.29,141.08 146.44,141.1 146.6,141.12 C 146.46,141.13 146.33,141.14 146.21,141.16 C 146.09,141.18 145.98,141.22 145.89,141.26 C 145.71,141.35 145.57,141.48 145.29,141.57 C 145.03,141.65 144.65,141.71 144.32,141.73 C 143.88,141.76 143.52,141.75 143.1,141.81 C 142.69,141.87 142.22,142.01 141.8,142.17 z M 141.84,170.15 C 141.71,170.24 141.57,170.32 141.45,170.4 C 141.33,170.49 141.22,170.56 141.12,170.64 C 140.91,170.79 140.73,170.93 140.45,171.06 C 140.31,171.12 140.16,171.18 139.99,171.22 C 139.83,171.27 139.65,171.31 139.5,171.33 C 139.29,171.37 139.1,171.38 138.92,171.39 C 138.73,171.4 138.55,171.4 138.35,171.41 C 137.95,171.41 137.47,171.41 137.04,171.38 C 137.47,171.41 137.93,171.39 138.29,171.32 C 138.46,171.28 138.61,171.23 138.76,171.17 C 138.91,171.12 139.06,171.05 139.25,170.98 C 139.38,170.92 139.53,170.86 139.69,170.79 C 139.84,170.73 140.0,170.67 140.15,170.63 C 140.46,170.54 140.72,170.52 140.99,170.46 C 141.12,170.43 141.26,170.39 141.41,170.33 C 141.54,170.28 141.69,170.21 141.84,170.15 z M 134.63,170.24 C 134.5,170.22 134.38,170.2 134.27,170.19 C 134.15,170.17 134.06,170.16 133.97,170.16 C 133.79,170.15 133.65,170.15 133.41,170.06 C 133.18,169.98 132.86,169.81 132.59,169.66 C 132.23,169.46 131.96,169.27 131.65,169.07 C 131.34,168.87 130.99,168.65 130.68,168.44 C 130.99,168.65 131.33,168.85 131.58,168.98 C 131.84,169.1 132.02,169.15 132.3,169.25 C 132.4,169.28 132.52,169.32 132.65,169.37 C 132.77,169.42 132.9,169.47 133.03,169.52 C 133.3,169.64 133.54,169.78 133.8,169.91 C 133.93,169.98 134.06,170.04 134.2,170.09 C 134.34,170.15 134.48,170.19 134.63,170.24 z M 153.57,158.97 C 153.86,158.63 154.15,158.24 154.35,157.87 C 154.55,157.51 154.66,157.16 154.84,156.76 C 154.98,156.45 155.16,156.11 155.33,155.9 C 155.51,155.67 155.67,155.59 155.82,155.44 C 155.89,155.37 155.96,155.28 156.03,155.17 C 156.09,155.07 156.14,154.95 156.2,154.83 C 156.17,154.98 156.13,155.13 156.1,155.27 C 156.06,155.43 156.03,155.57 156.01,155.71 C 155.96,155.99 155.92,156.27 155.79,156.56 C 155.73,156.7 155.65,156.84 155.56,156.98 C 155.46,157.11 155.36,157.24 155.26,157.35 C 154.99,157.63 154.74,157.78 154.46,158.03 C 154.18,158.28 153.86,158.63 153.57,158.97 z M 153.0,161.45 C 152.9,161.58 152.8,161.7 152.72,161.82 C 152.62,161.95 152.54,162.07 152.47,162.18 C 152.32,162.41 152.2,162.62 151.99,162.86 C 151.79,163.09 151.51,163.35 151.27,163.54 C 150.94,163.81 150.69,163.96 150.37,164.2 C 150.06,164.43 149.69,164.74 149.34,165.03 C 149.69,164.74 150.04,164.41 150.3,164.1 C 150.57,163.8 150.74,163.52 151.01,163.18 C 151.21,162.92 151.46,162.63 151.69,162.43 C 151.93,162.23 152.13,162.14 152.35,162.0 C 152.45,161.93 152.56,161.85 152.67,161.76 C 152.78,161.66 152.89,161.56 153.0,161.45 z M 147.04,165.16 C 146.92,165.28 146.81,165.39 146.71,165.51 C 146.61,165.63 146.52,165.74 146.45,165.86 C 146.3,166.1 146.19,166.34 145.95,166.55 C 145.72,166.75 145.39,166.94 145.09,167.06 C 144.69,167.23 144.36,167.28 143.98,167.43 C 143.6,167.57 143.18,167.81 142.79,168.04 C 143.17,167.8 143.57,167.53 143.85,167.24 C 144.13,166.96 144.3,166.67 144.59,166.35 C 144.8,166.11 145.09,165.85 145.36,165.71 C 145.65,165.57 145.93,165.57 146.2,165.51 C 146.34,165.48 146.48,165.44 146.62,165.37 C 146.75,165.32 146.89,165.24 147.04,165.16 z M 139.89,167.35 C 139.77,167.46 139.64,167.57 139.54,167.67 C 139.44,167.79 139.35,167.9 139.28,168.02 C 139.14,168.26 139.04,168.51 138.78,168.68 C 138.66,168.76 138.51,168.83 138.34,168.87 C 138.18,168.92 138.0,168.95 137.83,168.96 C 137.61,168.98 137.4,168.96 137.2,168.95 C 137.0,168.93 136.81,168.91 136.6,168.91 C 136.19,168.9 135.74,168.94 135.35,168.97 C 135.74,168.94 136.15,168.84 136.44,168.67 C 136.58,168.59 136.69,168.49 136.8,168.37 C 136.91,168.26 137.03,168.14 137.17,168.02 C 137.28,167.92 137.41,167.83 137.55,167.74 C 137.69,167.66 137.84,167.59 137.99,167.55 C 138.31,167.47 138.63,167.53 138.94,167.54 C 139.1,167.54 139.25,167.53 139.42,167.49 C 139.57,167.46 139.73,167.4 139.89,167.35 z M 148.63,144.02 C 148.53,144.07 148.42,144.12 148.33,144.18 C 148.24,144.25 148.16,144.33 148.1,144.42 C 147.98,144.6 147.91,144.83 147.68,144.98 C 147.47,145.13 147.11,145.22 146.79,145.25 C 146.35,145.3 145.96,145.24 145.55,145.3 C 145.13,145.36 144.69,145.53 144.3,145.73 C 144.69,145.53 145.08,145.29 145.36,145.03 C 145.63,144.77 145.78,144.49 146.07,144.23 C 146.18,144.14 146.31,144.05 146.45,143.98 C 146.59,143.91 146.74,143.86 146.88,143.84 C 147.19,143.8 147.48,143.9 147.78,143.96 C 147.92,143.99 148.06,144.01 148.21,144.01 C 148.35,144.02 148.49,144.02 148.63,144.02 z M 147.69,150.57 C 148.04,150.32 148.39,150.02 148.62,149.69 C 148.84,149.36 148.94,149.0 149.17,148.66 C 149.35,148.41 149.59,148.16 149.85,148.08 C 150.12,147.98 150.4,148.06 150.67,148.09 C 150.8,148.1 150.93,148.09 151.05,148.07 C 151.17,148.05 151.28,148.01 151.4,147.97 C 151.33,148.07 151.25,148.16 151.19,148.26 C 151.12,148.37 151.08,148.49 151.04,148.62 C 150.97,148.88 150.95,149.17 150.77,149.39 C 150.6,149.6 150.29,149.75 149.99,149.83 C 149.59,149.93 149.22,149.9 148.84,150.0 C 148.45,150.1 148.04,150.33 147.69,150.57 z M 154.17,151.92 C 154.12,152.06 154.07,152.19 154.03,152.32 C 153.99,152.46 153.96,152.6 153.93,152.75 C 153.89,153.04 153.88,153.36 153.74,153.63 C 153.67,153.76 153.57,153.88 153.46,153.99 C 153.35,154.09 153.22,154.18 153.09,154.25 C 152.75,154.44 152.44,154.49 152.1,154.65 C 151.76,154.82 151.4,155.12 151.08,155.42 C 151.4,155.11 151.71,154.75 151.91,154.38 C 152.11,154.01 152.19,153.63 152.38,153.24 C 152.52,152.94 152.72,152.63 152.94,152.48 C 153.16,152.32 153.39,152.34 153.61,152.28 C 153.71,152.26 153.82,152.22 153.91,152.15 C 154.0,152.09 154.08,152.01 154.17,151.92 z M 147.37,162.21 C 147.72,161.92 148.07,161.59 148.3,161.24 C 148.53,160.88 148.64,160.52 148.87,160.13 C 149.05,159.84 149.29,159.53 149.55,159.38 C 149.82,159.22 150.1,159.23 150.37,159.18 C 150.5,159.15 150.63,159.11 150.77,159.04 C 150.9,158.98 151.02,158.89 151.16,158.81 C 151.06,158.95 150.97,159.08 150.89,159.21 C 150.81,159.36 150.75,159.5 150.7,159.64 C 150.59,159.94 150.53,160.24 150.33,160.5 C 150.15,160.75 149.84,160.96 149.55,161.1 C 149.17,161.28 148.84,161.32 148.47,161.49 C 148.11,161.65 147.72,161.93 147.37,162.21 z M 144.22,161.15 C 144.12,161.28 144.01,161.4 143.93,161.53 C 143.84,161.67 143.77,161.82 143.72,161.97 C 143.62,162.27 143.57,162.6 143.35,162.84 C 143.14,163.07 142.79,163.23 142.46,163.31 C 142.02,163.41 141.63,163.38 141.22,163.48 C 140.81,163.58 140.38,163.81 139.99,164.06 C 140.37,163.8 140.75,163.5 140.99,163.17 C 141.24,162.83 141.34,162.45 141.59,162.07 C 141.78,161.79 142.05,161.5 142.33,161.39 C 142.64,161.27 142.97,161.35 143.3,161.36 C 143.45,161.36 143.61,161.35 143.77,161.31 C 143.92,161.27 144.07,161.21 144.22,161.15 z M 130.54,168.25 C 130.73,168.37 130.95,168.48 131.17,168.58 C 131.38,168.67 131.59,168.75 131.77,168.8 C 131.92,168.84 132.05,168.87 132.18,168.89 C 132.31,168.91 132.43,168.93 132.58,168.96 C 132.82,168.99 133.1,169.03 133.43,169.07 C 133.75,169.1 134.11,169.14 134.49,169.2 C 134.66,169.23 134.83,169.26 135.0,169.29 C 135.18,169.32 135.35,169.36 135.53,169.4 C 135.57,169.41 135.61,169.42 135.65,169.43 C 136.21,169.56 136.74,169.72 137.29,169.82 C 137.83,169.91 138.39,169.96 138.97,169.87 C 139.34,169.82 139.72,169.72 140.09,169.57 C 139.76,169.77 139.44,169.96 139.15,170.13 C 138.7,170.4 138.33,170.63 137.98,170.81 C 137.63,170.99 137.3,171.12 136.88,171.18 C 136.84,171.18 136.81,171.18 136.78,171.19 C 136.64,171.2 136.49,171.2 136.34,171.2 C 136.19,171.19 136.02,171.18 135.85,171.15 C 135.48,171.09 135.07,170.98 134.67,170.84 C 134.27,170.7 133.89,170.53 133.57,170.36 C 133.36,170.26 133.18,170.16 132.99,170.05 C 132.81,169.95 132.62,169.83 132.4,169.7 C 131.88,169.37 131.23,168.92 130.78,168.58 C 130.89,168.65 131.14,168.82 131.38,168.98 C 131.75,169.23 132.1,169.45 132.42,169.64 C 132.65,169.78 132.87,169.91 133.1,170.03 C 133.33,170.15 133.58,170.27 133.85,170.38 C 134.12,170.49 134.42,170.6 134.71,170.68 C 135.0,170.76 135.28,170.81 135.51,170.82 C 135.6,170.83 135.69,170.82 135.76,170.81 C 135.84,170.81 135.9,170.79 135.96,170.77 C 136.08,170.73 136.15,170.66 136.29,170.6 C 136.47,170.53 136.75,170.48 137.04,170.42 C 136.71,170.41 136.35,170.36 136.06,170.27 C 135.82,170.19 135.63,170.08 135.41,169.99 C 135.31,169.94 135.21,169.9 135.1,169.86 C 134.99,169.82 134.87,169.78 134.76,169.75 C 134.48,169.66 134.18,169.59 133.9,169.53 C 133.62,169.46 133.35,169.4 133.13,169.34 C 132.88,169.28 132.68,169.22 132.5,169.16 C 132.31,169.11 132.14,169.06 131.97,169.0 C 131.72,168.91 131.46,168.81 131.14,168.64 C 130.93,168.52 130.7,168.38 130.54,168.25 z M 144.17,168.78 C 143.87,168.93 143.55,169.08 143.29,169.15 C 143.08,169.21 142.91,169.21 142.71,169.24 C 142.53,169.27 142.32,169.31 142.08,169.39 C 141.81,169.49 141.5,169.63 141.19,169.78 C 140.89,169.93 140.58,170.09 140.31,170.23 C 140.03,170.37 139.78,170.49 139.54,170.6 C 139.31,170.71 139.09,170.81 138.85,170.91 C 138.52,171.04 138.17,171.16 137.72,171.2 C 137.43,171.24 137.1,171.24 136.88,171.18 C 137.16,171.17 137.47,171.13 137.78,171.06 C 138.08,170.98 138.38,170.88 138.63,170.76 C 138.83,170.66 139.01,170.57 139.18,170.47 C 139.35,170.36 139.51,170.26 139.7,170.14 C 140.0,169.95 140.35,169.73 140.72,169.5 C 141.1,169.27 141.49,169.03 141.88,168.85 C 142.06,168.77 142.23,168.69 142.4,168.63 C 142.58,168.57 142.74,168.51 142.91,168.47 C 142.95,168.45 142.99,168.44 143.03,168.43 C 143.55,168.29 144.02,168.21 144.49,168.08 C 144.96,167.95 145.44,167.77 145.94,167.52 C 146.26,167.35 146.6,167.15 146.92,166.94 C 146.62,167.18 146.32,167.43 146.04,167.66 C 145.62,168.02 145.25,168.36 144.9,168.66 C 144.55,168.97 144.22,169.24 143.8,169.53 C 143.76,169.55 143.73,169.57 143.7,169.59 C 143.56,169.68 143.42,169.77 143.27,169.87 C 143.12,169.96 142.96,170.06 142.8,170.16 C 142.43,170.37 142.03,170.59 141.63,170.79 C 141.23,170.98 140.84,171.15 140.49,171.27 C 140.27,171.34 140.07,171.4 139.86,171.45 C 139.66,171.49 139.44,171.53 139.19,171.56 C 138.88,171.6 138.52,171.62 138.16,171.61 C 137.8,171.61 137.44,171.58 137.13,171.54 C 137.3,171.53 137.64,171.54 137.95,171.54 C 138.44,171.55 138.87,171.53 139.26,171.48 C 139.53,171.44 139.78,171.39 140.04,171.32 C 140.31,171.25 140.58,171.16 140.87,171.03 C 141.16,170.92 141.47,170.77 141.77,170.61 C 142.07,170.45 142.36,170.28 142.59,170.12 C 142.79,169.99 142.95,169.87 143.07,169.75 C 143.2,169.62 143.29,169.51 143.44,169.36 C 143.62,169.19 143.9,168.97 144.17,168.78 z M 142.18,165.93 C 141.86,166.06 141.5,166.16 141.19,166.15 C 140.93,166.14 140.7,166.05 140.45,166.01 C 140.22,165.97 139.97,165.96 139.71,166.01 C 139.4,166.06 139.09,166.19 138.78,166.34 C 138.48,166.49 138.19,166.67 137.94,166.84 C 137.67,167.01 137.45,167.17 137.25,167.33 C 137.05,167.49 136.87,167.64 136.68,167.8 C 136.42,168.03 136.15,168.27 135.76,168.42 C 135.52,168.51 135.23,168.57 134.98,168.47 C 135.21,168.4 135.46,168.26 135.69,168.08 C 135.93,167.91 136.15,167.69 136.34,167.49 C 136.49,167.32 136.62,167.16 136.75,167.01 C 136.89,166.85 137.02,166.7 137.17,166.54 C 137.42,166.27 137.73,165.98 138.08,165.71 C 138.42,165.44 138.81,165.2 139.2,165.03 C 139.39,164.95 139.57,164.89 139.76,164.85 C 139.94,164.8 140.13,164.78 140.31,164.76 C 140.36,164.75 140.4,164.75 140.45,164.74 C 141.04,164.7 141.6,164.76 142.17,164.76 C 142.73,164.76 143.3,164.71 143.85,164.54 C 144.22,164.43 144.58,164.27 144.92,164.08 C 144.63,164.34 144.36,164.63 144.12,164.92 C 143.76,165.37 143.49,165.85 143.25,166.3 C 143.01,166.77 142.79,167.21 142.47,167.63 C 142.45,167.67 142.42,167.7 142.39,167.73 C 142.29,167.86 142.17,167.99 142.04,168.11 C 141.91,168.24 141.77,168.36 141.62,168.48 C 141.28,168.73 140.88,168.95 140.47,169.13 C 140.06,169.31 139.63,169.44 139.26,169.51 C 139.02,169.56 138.8,169.58 138.57,169.6 C 138.34,169.61 138.1,169.61 137.82,169.61 C 137.48,169.6 137.09,169.57 136.71,169.54 C 136.33,169.5 135.96,169.46 135.65,169.43 C 135.76,169.33 136.08,169.31 136.39,169.31 C 136.87,169.3 137.32,169.32 137.74,169.31 C 138.03,169.3 138.3,169.27 138.57,169.21 C 138.85,169.16 139.12,169.08 139.42,168.96 C 139.71,168.85 140.02,168.7 140.31,168.52 C 140.6,168.35 140.86,168.14 141.05,167.92 C 141.21,167.74 141.32,167.55 141.39,167.36 C 141.47,167.14 141.48,166.93 141.58,166.71 C 141.7,166.44 141.93,166.17 142.18,165.93 z M 142.47,167.63 C 142.95,167.22 143.47,166.57 143.85,166.05 C 144.01,165.83 144.14,165.64 144.28,165.46 C 144.41,165.28 144.54,165.1 144.69,164.92 C 145.18,164.33 145.88,163.63 146.61,163.22 C 146.94,163.03 147.28,162.9 147.61,162.8 C 147.65,162.79 147.69,162.78 147.73,162.77 C 148.24,162.63 148.73,162.57 149.21,162.45 C 149.68,162.33 150.16,162.16 150.62,161.88 C 150.93,161.69 151.23,161.46 151.52,161.21 C 151.27,161.51 151.02,161.82 150.8,162.14 C 150.47,162.61 150.21,163.08 149.96,163.52 C 149.71,163.97 149.48,164.39 149.16,164.81 C 149.13,164.84 149.11,164.87 149.08,164.91 C 148.87,165.17 148.63,165.43 148.35,165.69 C 147.72,166.26 146.9,166.79 146.24,167.13 C 146.03,167.24 145.84,167.33 145.64,167.41 C 145.44,167.5 145.24,167.58 144.99,167.67 C 144.41,167.9 143.61,168.17 143.03,168.43 C 143.14,168.25 143.45,168.08 143.74,167.94 C 144.19,167.72 144.59,167.57 144.96,167.42 C 145.48,167.21 145.92,166.98 146.46,166.63 C 146.98,166.29 147.59,165.84 147.96,165.4 C 148.12,165.21 148.23,165.03 148.31,164.85 C 148.4,164.66 148.44,164.47 148.54,164.27 C 148.66,164.01 148.88,163.73 149.11,163.47 C 148.83,163.66 148.53,163.82 148.26,163.87 C 148.04,163.91 147.85,163.88 147.64,163.89 C 147.44,163.9 147.23,163.94 147.0,164.02 C 146.45,164.22 145.84,164.67 145.37,165.07 C 144.87,165.48 144.52,165.84 144.15,166.27 C 143.89,166.57 143.62,166.9 143.24,167.22 C 143.0,167.43 142.71,167.63 142.47,167.63 z M 154.7,159.4 C 154.48,159.65 154.25,159.89 154.05,160.03 C 153.89,160.14 153.76,160.18 153.6,160.26 C 153.46,160.33 153.3,160.43 153.12,160.57 C 152.69,160.9 152.18,161.45 151.77,161.91 C 151.34,162.4 151.03,162.79 150.68,163.24 C 150.44,163.56 150.18,163.91 149.83,164.27 C 149.61,164.5 149.35,164.74 149.16,164.81 C 149.6,164.36 150.11,163.68 150.47,163.15 C 150.62,162.93 150.75,162.73 150.87,162.54 C 151.0,162.36 151.12,162.18 151.26,161.98 C 151.71,161.36 152.32,160.58 152.91,160.03 C 153.18,159.78 153.45,159.57 153.7,159.39 C 153.73,159.37 153.76,159.35 153.79,159.33 C 154.19,159.05 154.55,158.84 154.9,158.57 C 155.24,158.3 155.58,157.97 155.88,157.56 C 156.09,157.28 156.27,156.96 156.43,156.63 C 156.29,156.98 156.13,157.34 155.97,157.67 C 155.72,158.18 155.48,158.65 155.25,159.07 C 155.01,159.5 154.77,159.88 154.48,160.3 C 154.45,160.34 154.43,160.37 154.41,160.4 C 154.21,160.66 154.0,160.94 153.76,161.23 C 153.22,161.88 152.57,162.59 152.05,163.1 C 151.88,163.26 151.73,163.4 151.57,163.55 C 151.42,163.69 151.26,163.83 151.06,163.99 C 150.6,164.38 149.95,164.86 149.46,165.24 C 149.58,165.07 149.85,164.85 150.09,164.65 C 150.47,164.34 150.8,164.08 151.1,163.84 C 151.52,163.49 151.88,163.16 152.32,162.7 C 152.75,162.26 153.25,161.7 153.59,161.25 C 153.73,161.06 153.85,160.88 153.93,160.73 C 154.02,160.56 154.08,160.41 154.19,160.22 C 154.31,159.98 154.51,159.68 154.7,159.4 z M 152.71,147.06 C 152.54,147.11 152.33,147.14 152.13,147.09 C 151.96,147.05 151.79,146.95 151.61,146.88 C 151.53,146.85 151.44,146.83 151.35,146.81 C 151.27,146.79 151.18,146.78 151.08,146.78 C 150.86,146.78 150.63,146.84 150.39,146.95 C 150.16,147.05 149.93,147.2 149.73,147.35 C 149.51,147.51 149.33,147.67 149.16,147.86 C 148.99,148.04 148.84,148.23 148.68,148.46 C 148.47,148.77 148.25,149.15 147.92,149.49 C 147.7,149.72 147.44,149.93 147.17,149.88 C 147.58,149.41 148.0,148.66 148.32,148.12 C 148.45,147.9 148.56,147.71 148.67,147.53 C 148.78,147.36 148.89,147.2 149.03,147.04 C 149.24,146.79 149.5,146.54 149.78,146.36 C 150.06,146.17 150.35,146.05 150.65,145.99 C 150.78,145.97 150.91,145.96 151.04,145.96 C 151.17,145.97 151.29,145.98 151.42,146.0 C 151.45,146.0 151.48,146.01 151.51,146.01 C 151.9,146.08 152.25,146.21 152.56,146.3 C 152.88,146.38 153.16,146.42 153.39,146.4 C 153.55,146.39 153.68,146.35 153.78,146.3 C 153.7,146.39 153.62,146.5 153.55,146.64 C 153.46,146.85 153.4,147.13 153.37,147.45 C 153.34,147.78 153.34,148.15 153.28,148.54 C 153.27,148.57 153.27,148.6 153.26,148.63 C 153.24,148.75 153.21,148.88 153.16,149.0 C 153.12,149.12 153.07,149.24 153.0,149.36 C 152.85,149.61 152.63,149.85 152.36,150.05 C 152.09,150.24 151.77,150.41 151.46,150.52 C 151.27,150.59 151.08,150.64 150.88,150.69 C 150.68,150.73 150.46,150.77 150.21,150.82 C 149.59,150.93 148.74,151.07 148.17,151.29 C 148.21,151.02 148.49,150.85 148.78,150.73 C 149.22,150.53 149.64,150.45 150.02,150.36 C 150.28,150.29 150.51,150.22 150.74,150.12 C 150.97,150.02 151.19,149.91 151.41,149.76 C 151.63,149.62 151.84,149.45 152.02,149.27 C 152.19,149.08 152.33,148.89 152.41,148.68 C 152.44,148.59 152.46,148.5 152.48,148.41 C 152.49,148.32 152.5,148.23 152.5,148.15 C 152.49,147.95 152.46,147.76 152.48,147.59 C 152.5,147.38 152.6,147.19 152.71,147.06 z M 152.96,156.92 C 152.71,157.12 152.43,157.29 152.17,157.33 C 151.95,157.37 151.76,157.32 151.54,157.32 C 151.35,157.32 151.14,157.35 150.92,157.43 C 150.41,157.64 149.86,158.14 149.45,158.59 C 149.01,159.07 148.71,159.49 148.41,160.01 C 148.2,160.37 147.98,160.78 147.66,161.17 C 147.45,161.42 147.19,161.66 146.94,161.64 C 147.35,161.14 147.77,160.34 148.07,159.72 C 148.32,159.2 148.49,158.81 148.75,158.39 C 149.15,157.71 149.77,156.95 150.44,156.5 C 150.75,156.3 151.06,156.16 151.37,156.07 C 151.41,156.06 151.45,156.05 151.49,156.03 C 151.98,155.9 152.45,155.85 152.91,155.73 C 153.36,155.62 153.81,155.44 154.2,155.15 C 154.45,154.95 154.69,154.7 154.89,154.43 C 154.73,154.76 154.56,155.1 154.41,155.45 C 154.19,155.99 154.0,156.53 153.83,157.05 C 153.67,157.58 153.52,158.1 153.29,158.61 C 153.27,158.65 153.26,158.69 153.24,158.73 C 153.09,159.05 152.9,159.38 152.67,159.68 C 152.16,160.36 151.44,160.97 150.82,161.35 C 150.63,161.47 150.44,161.57 150.25,161.66 C 150.06,161.75 149.86,161.84 149.63,161.94 C 149.06,162.18 148.28,162.47 147.73,162.77 C 147.8,162.53 148.08,162.32 148.35,162.16 C 148.77,161.9 149.16,161.74 149.51,161.58 C 150.01,161.34 150.42,161.08 150.9,160.67 C 151.36,160.28 151.88,159.75 152.17,159.21 C 152.29,158.99 152.36,158.76 152.4,158.55 C 152.45,158.31 152.45,158.08 152.52,157.83 C 152.6,157.53 152.77,157.21 152.96,156.92 z M 149.88,165.21 C 149.72,165.35 149.57,165.47 149.45,165.57 C 149.29,165.69 149.17,165.77 149.02,165.86 C 148.88,165.95 148.71,166.06 148.52,166.19 C 148.06,166.51 147.45,166.96 146.96,167.34 C 146.44,167.72 146.05,168.02 145.6,168.34 C 145.29,168.57 144.96,168.81 144.54,169.08 C 144.27,169.26 143.97,169.44 143.8,169.53 C 144.33,169.19 144.98,168.72 145.46,168.34 C 145.66,168.19 145.83,168.04 145.99,167.91 C 146.15,167.77 146.31,167.64 146.49,167.49 C 147.06,167.01 147.81,166.38 148.49,165.89 C 148.8,165.67 149.09,165.48 149.36,165.3 C 149.39,165.28 149.42,165.26 149.46,165.24 C 149.88,164.96 150.24,164.73 150.61,164.45 C 150.97,164.17 151.34,163.84 151.73,163.46 C 151.86,163.33 151.99,163.2 152.13,163.06 C 152.26,162.92 152.39,162.78 152.52,162.64 C 152.49,162.68 152.46,162.71 152.43,162.74 C 152.33,162.85 152.23,162.95 152.13,163.06 C 151.5,163.72 150.84,164.35 150.16,164.97 C 150.07,165.05 149.97,165.13 149.88,165.21 z M 154.82,150.25 C 154.76,150.41 154.65,150.55 154.52,150.59 C 154.41,150.62 154.29,150.58 154.16,150.57 C 154.1,150.57 154.04,150.58 153.98,150.59 C 153.91,150.6 153.85,150.63 153.78,150.66 C 153.63,150.75 153.46,150.9 153.29,151.09 C 153.12,151.28 152.95,151.5 152.79,151.72 C 152.62,151.95 152.47,152.17 152.33,152.39 C 152.2,152.62 152.07,152.85 151.94,153.11 C 151.76,153.48 151.58,153.9 151.28,154.31 C 151.1,154.56 150.86,154.82 150.62,154.8 C 150.98,154.28 151.35,153.45 151.61,152.82 C 151.72,152.57 151.8,152.34 151.89,152.14 C 151.98,151.93 152.07,151.73 152.17,151.53 C 152.34,151.21 152.54,150.87 152.74,150.58 C 152.94,150.29 153.14,150.04 153.34,149.87 C 153.42,149.79 153.51,149.72 153.59,149.67 C 153.68,149.62 153.76,149.58 153.84,149.55 C 153.86,149.54 153.88,149.54 153.9,149.53 C 154.14,149.44 154.36,149.42 154.52,149.35 C 154.68,149.27 154.8,149.15 154.85,148.95 C 154.88,148.82 154.88,148.66 154.86,148.48 C 154.9,148.69 154.94,148.91 154.99,149.15 C 155.06,149.52 155.14,149.93 155.23,150.35 C 155.31,150.79 155.4,151.24 155.44,151.73 C 155.44,151.77 155.44,151.81 155.44,151.85 C 155.45,152.0 155.45,152.16 155.44,152.32 C 155.44,152.47 155.42,152.63 155.39,152.79 C 155.32,153.14 155.18,153.49 154.98,153.79 C 154.79,154.09 154.54,154.36 154.29,154.56 C 154.14,154.69 153.98,154.79 153.82,154.88 C 153.65,154.98 153.47,155.07 153.25,155.17 C 152.99,155.3 152.68,155.44 152.37,155.58 C 152.05,155.73 151.74,155.88 151.49,156.03 C 151.53,155.77 151.79,155.55 152.03,155.38 C 152.23,155.24 152.42,155.14 152.6,155.04 C 152.78,154.94 152.95,154.86 153.11,154.77 C 153.33,154.65 153.53,154.52 153.72,154.37 C 153.9,154.21 154.08,154.04 154.26,153.82 C 154.42,153.61 154.59,153.37 154.71,153.11 C 154.83,152.85 154.91,152.58 154.94,152.31 C 154.95,152.2 154.96,152.09 154.95,151.99 C 154.95,151.88 154.94,151.77 154.93,151.67 C 154.9,151.45 154.85,151.24 154.82,151.02 C 154.79,150.76 154.81,150.48 154.82,150.25 z M 152.1,144.55 C 151.95,144.47 151.79,144.41 151.66,144.4 C 151.46,144.37 151.3,144.44 151.18,144.57 C 151.05,144.7 150.96,144.89 150.79,145.09 C 150.78,145.11 150.76,145.12 150.75,145.14 C 150.69,145.2 150.63,145.27 150.55,145.33 C 150.47,145.39 150.39,145.45 150.28,145.5 C 150.05,145.63 149.75,145.73 149.4,145.82 C 149.06,145.91 148.68,145.98 148.32,146.03 C 148.1,146.06 147.88,146.07 147.66,146.09 C 147.43,146.1 147.19,146.1 146.91,146.12 C 146.24,146.15 145.33,146.21 144.72,146.36 C 144.78,146.13 145.1,146.0 145.41,145.91 C 145.89,145.78 146.35,145.75 146.75,145.7 C 147.04,145.67 147.3,145.63 147.56,145.58 C 147.82,145.53 148.08,145.47 148.35,145.39 C 148.61,145.31 148.88,145.22 149.12,145.13 C 149.35,145.03 149.55,144.93 149.68,144.81 C 149.74,144.76 149.79,144.71 149.82,144.66 C 149.86,144.6 149.88,144.55 149.9,144.49 C 149.94,144.37 149.94,144.24 150.01,144.15 C 150.08,144.04 150.26,143.98 150.43,143.98 C 150.21,143.91 149.94,143.83 149.7,143.71 C 149.51,143.62 149.33,143.5 149.13,143.39 C 149.04,143.34 148.94,143.3 148.84,143.26 C 148.74,143.22 148.64,143.19 148.53,143.16 C 148.27,143.1 147.98,143.08 147.7,143.1 C 147.42,143.13 147.13,143.2 146.88,143.29 C 146.62,143.38 146.39,143.48 146.18,143.61 C 145.98,143.73 145.79,143.88 145.59,144.04 C 145.46,144.16 145.32,144.29 145.17,144.43 C 145.02,144.57 144.85,144.71 144.66,144.84 C 144.41,145.02 144.12,145.18 143.85,145.13 C 144.09,144.95 144.34,144.7 144.58,144.46 C 144.82,144.22 145.06,143.97 145.27,143.77 C 145.44,143.6 145.58,143.46 145.73,143.34 C 145.88,143.21 146.03,143.1 146.2,143.0 C 146.47,142.84 146.81,142.69 147.16,142.61 C 147.51,142.54 147.88,142.52 148.23,142.58 C 148.39,142.6 148.55,142.64 148.7,142.68 C 148.85,142.73 149.0,142.79 149.14,142.85 C 149.18,142.86 149.21,142.88 149.25,142.89 C 149.7,143.09 150.09,143.33 150.47,143.56 C 150.84,143.79 151.2,144.0 151.52,144.19 C 151.73,144.32 151.93,144.43 152.1,144.55 z M 153.79,159.33 C 153.82,159.25 153.86,159.17 153.91,159.1 C 153.97,159.0 154.06,158.9 154.14,158.81 C 154.34,158.59 154.55,158.39 154.76,158.18 C 155.05,157.89 155.35,157.6 155.61,157.27 C 155.98,156.82 156.28,156.29 156.43,155.73 C 156.56,155.21 156.56,154.66 156.52,154.12 C 156.48,153.63 156.41,153.14 156.28,152.66 C 156.29,152.88 156.29,153.11 156.22,153.31 C 156.14,153.6 155.94,153.85 155.78,154.11 C 155.48,154.6 155.29,155.14 155.07,155.66 C 154.82,156.25 154.52,156.81 154.23,157.4 C 154.05,157.76 153.88,158.13 153.59,158.39 C 153.5,158.48 153.4,158.55 153.29,158.61 C 153.64,158.08 154.03,157.27 154.29,156.64 C 154.39,156.39 154.48,156.16 154.56,155.95 C 154.64,155.73 154.72,155.52 154.81,155.3 C 154.95,154.95 155.12,154.55 155.26,154.19 C 155.4,153.82 155.5,153.47 155.59,153.2 C 155.62,153.07 155.66,152.96 155.69,152.86 C 155.72,152.76 155.75,152.67 155.78,152.58 C 155.79,152.56 155.8,152.54 155.8,152.52 C 155.89,152.25 155.96,152.06 155.97,151.81 C 155.98,151.57 155.94,151.29 155.84,150.93 C 155.77,150.69 155.68,150.41 155.58,150.13 C 155.7,150.43 155.81,150.74 155.92,151.04 C 156.09,151.5 156.25,151.95 156.38,152.4 C 156.51,152.85 156.62,153.3 156.69,153.79 C 156.7,153.83 156.71,153.87 156.71,153.91 C 156.73,154.07 156.75,154.23 156.76,154.39 C 156.77,154.56 156.78,154.72 156.77,154.9 C 156.76,155.27 156.69,155.67 156.56,156.05 C 156.43,156.42 156.23,156.77 156.04,157.06 C 155.92,157.24 155.8,157.39 155.67,157.54 C 155.55,157.69 155.41,157.84 155.24,158.0 C 155.03,158.21 154.78,158.44 154.53,158.66 C 154.27,158.89 154.01,159.12 153.79,159.33 z M 149.31,141.8 C 149.0,141.56 148.69,141.33 148.35,141.12 C 147.61,140.69 146.79,140.39 145.94,140.26 C 145.09,140.14 144.22,140.19 143.37,140.3 C 142.52,140.42 141.68,140.61 140.86,140.86 C 141.68,140.57 142.52,140.36 143.37,140.22 C 144.23,140.08 145.11,140.0 145.95,140.14 C 146.8,140.27 147.62,140.63 148.35,141.09 C 148.68,141.31 149.0,141.55 149.31,141.8 z M 156.48,152.05 C 156.62,152.42 156.73,152.8 156.82,153.19 C 157.01,154.04 157.06,154.93 156.9,155.77 C 156.74,156.61 156.36,157.41 155.94,158.16 C 155.51,158.92 155.03,159.64 154.48,160.3 C 154.99,159.62 155.46,158.9 155.86,158.14 C 156.26,157.38 156.6,156.58 156.77,155.74 C 156.95,154.9 156.95,154.02 156.79,153.18 C 156.72,152.8 156.61,152.42 156.48,152.05 z M 168.59,143.31 C 168.55,143.22 168.5,143.13 168.46,143.05 C 168.72,143.2 168.98,143.36 169.23,143.52 C 169.44,143.66 169.64,143.8 169.84,143.94 C 169.9,144.12 169.96,144.31 170.0,144.49 C 170.08,144.81 170.13,145.13 170.16,145.45 C 170.18,145.75 170.19,146.06 170.16,146.36 C 170.15,146.57 170.12,146.79 170.07,147.0 C 170.07,147.01 170.07,147.02 170.07,147.03 C 169.78,146.92 169.49,146.82 169.2,146.73 C 169.24,146.52 169.26,146.3 169.27,146.08 C 169.27,145.95 169.27,145.81 169.26,145.68 C 169.25,145.51 169.23,145.34 169.21,145.17 C 169.16,144.83 169.07,144.5 168.96,144.18 C 168.86,143.88 168.74,143.59 168.59,143.31 z M 154.71,147.1 C 155.08,146.82 155.46,146.55 155.84,146.27 C 156.12,146.07 156.4,145.88 156.68,145.68 C 156.89,145.54 157.1,145.4 157.32,145.27 C 157.51,145.15 157.7,145.04 157.9,144.94 C 158.06,144.86 158.23,144.78 158.4,144.71 C 158.55,144.66 158.69,144.61 158.84,144.57 C 158.97,144.54 159.1,144.52 159.23,144.51 C 159.35,144.5 159.47,144.5 159.59,144.51 C 159.71,144.52 159.82,144.54 159.93,144.57 C 160.05,144.61 160.16,144.65 160.27,144.71 C 160.39,144.78 160.5,144.86 160.61,144.95 C 160.72,145.04 160.82,145.15 160.9,145.26 C 160.99,145.37 161.08,145.49 161.15,145.62 C 161.22,145.75 161.28,145.89 161.33,146.03 C 161.38,146.18 161.43,146.34 161.46,146.5 C 161.5,146.68 161.53,146.87 161.55,147.05 C 161.56,147.02 161.58,147.0 161.59,146.97 C 161.64,146.86 161.68,146.75 161.72,146.64 C 161.77,146.5 161.82,146.35 161.84,146.21 C 161.86,146.14 161.86,146.07 161.87,146.01 C 161.88,145.92 161.88,145.83 161.88,145.75 C 161.88,145.51 161.86,145.27 161.81,145.04 C 161.78,144.9 161.74,144.75 161.68,144.62 C 161.63,144.5 161.57,144.38 161.5,144.27 C 161.35,144.04 161.18,143.83 160.98,143.64 C 160.84,143.5 160.68,143.36 160.51,143.24 C 160.36,143.14 160.2,143.04 160.03,142.96 C 159.81,142.85 159.58,142.77 159.34,142.72 C 159.09,142.66 158.84,142.62 158.58,142.61 C 158.3,142.59 158.02,142.6 157.74,142.62 C 157.44,142.65 157.14,142.7 156.85,142.76 C 156.23,142.89 155.62,143.09 155.04,143.34 C 154.89,143.4 154.74,143.47 154.6,143.54 C 154.4,143.65 154.2,143.77 154.01,143.9 C 153.71,144.09 153.42,144.3 153.13,144.51 C 153.15,144.59 153.16,144.67 153.16,144.75 C 153.16,144.85 153.14,144.95 153.11,145.05 C 153.1,145.1 153.08,145.14 153.07,145.18 C 153.05,145.23 153.02,145.27 153.0,145.31 C 152.98,145.34 152.97,145.36 152.95,145.38 C 152.97,145.38 152.99,145.39 153.02,145.39 C 153.08,145.39 153.14,145.39 153.2,145.39 C 153.31,145.39 153.43,145.38 153.54,145.38 C 153.6,145.37 153.67,145.38 153.73,145.38 C 153.81,145.39 153.88,145.41 153.95,145.42 C 154.0,145.44 154.05,145.45 154.1,145.47 C 154.16,145.5 154.21,145.52 154.26,145.55 C 154.32,145.59 154.38,145.63 154.43,145.68 C 154.49,145.73 154.54,145.79 154.59,145.86 C 154.63,145.92 154.66,145.98 154.68,146.05 C 154.71,146.1 154.72,146.16 154.73,146.22 C 154.75,146.27 154.75,146.33 154.76,146.39 C 154.76,146.45 154.76,146.51 154.75,146.57 C 154.74,146.75 154.72,146.92 154.71,147.1 z M 160.69,147.52 C 160.66,147.36 160.65,147.21 160.63,147.06 C 160.61,146.9 160.59,146.75 160.55,146.6 C 160.48,146.3 160.37,146.03 160.16,145.78 C 160.05,145.66 159.94,145.57 159.8,145.49 C 159.65,145.42 159.51,145.4 159.35,145.41 C 159.03,145.43 158.76,145.54 158.48,145.67 C 158.34,145.74 158.2,145.81 158.07,145.88 C 158.05,145.89 158.03,145.9 158.02,145.91 C 158.01,145.91 158.01,145.92 158.0,145.92 C 158.0,145.92 157.98,145.92 157.99,145.93 C 158.0,145.93 158.01,145.93 158.02,145.94 C 158.05,145.95 158.09,145.97 158.13,145.98 C 158.2,146.01 158.27,146.04 158.34,146.07 C 158.62,146.2 158.89,146.33 159.16,146.48 C 159.71,146.78 160.21,147.11 160.69,147.52 z M 163.21,144.22 C 163.67,144.4 164.12,144.59 164.57,144.82 C 165.0,145.03 165.42,145.27 165.83,145.53 C 166.03,145.65 166.23,145.79 166.42,145.92 C 166.56,146.02 166.7,146.12 166.84,146.23 C 166.77,146.0 166.67,145.78 166.54,145.58 C 166.47,145.48 166.4,145.38 166.32,145.29 C 166.24,145.2 166.15,145.11 166.06,145.03 C 165.93,144.91 165.78,144.81 165.63,144.72 C 165.53,144.66 165.43,144.6 165.33,144.55 C 165.2,144.49 165.06,144.44 164.93,144.4 C 164.74,144.34 164.55,144.29 164.36,144.26 C 164.15,144.23 163.93,144.21 163.72,144.21 C 163.55,144.2 163.38,144.21 163.21,144.22 z M 168.44,149.28 C 168.12,149.35 167.83,149.38 167.5,149.27 C 167.2,149.17 166.95,148.96 166.82,148.66 C 166.69,148.34 166.7,148.05 166.77,147.73 C 166.79,147.64 166.81,147.56 166.83,147.47 C 166.84,147.45 166.85,147.44 166.83,147.42 C 166.82,147.41 166.81,147.39 166.79,147.38 C 166.76,147.35 166.73,147.33 166.7,147.3 C 166.58,147.2 166.46,147.1 166.34,147.0 C 165.4,146.25 164.17,145.57 163.06,145.14 C 162.98,145.11 162.91,145.08 162.84,145.05 C 162.82,145.05 162.8,145.04 162.78,145.03 C 162.77,145.03 162.76,145.03 162.75,145.02 C 162.75,145.02 162.73,145.01 162.73,145.02 C 162.74,145.06 162.75,145.1 162.75,145.14 C 162.77,145.3 162.79,145.45 162.79,145.61 C 162.8,145.93 162.77,146.24 162.7,146.55 C 162.62,146.86 162.51,147.15 162.37,147.44 C 162.25,147.7 162.08,148.01 161.78,148.15 C 161.71,148.18 161.63,148.2 161.55,148.21 C 161.53,148.22 161.51,148.22 161.49,148.22 C 161.48,148.22 161.47,148.22 161.46,148.22 C 161.46,148.22 161.43,148.21 161.44,148.22 C 161.47,148.25 161.5,148.28 161.53,148.31 C 161.56,148.34 161.59,148.36 161.61,148.39 C 161.63,148.41 161.64,148.42 161.66,148.43 C 161.66,148.44 161.67,148.45 161.68,148.46 C 161.68,148.46 161.7,148.47 161.69,148.47 C 161.68,148.46 161.68,148.46 161.67,148.46 C 161.59,148.45 161.52,148.43 161.44,148.41 C 161.13,148.35 160.82,148.3 160.51,148.26 C 160.43,148.25 160.35,148.25 160.27,148.24 C 160.23,148.23 160.19,148.23 160.15,148.23 C 160.13,148.22 160.12,148.22 160.1,148.21 C 160.08,148.2 160.07,148.18 160.05,148.17 C 159.93,148.07 159.81,147.97 159.68,147.88 C 159.42,147.7 159.16,147.53 158.89,147.37 C 158.34,147.05 157.77,146.8 157.17,146.59 C 157.14,146.57 157.1,146.56 157.06,146.55 C 157.04,146.54 157.02,146.55 157.01,146.56 C 156.99,146.57 156.97,146.58 156.96,146.6 C 156.89,146.64 156.82,146.69 156.75,146.74 C 156.62,146.83 156.48,146.93 156.35,147.03 C 156.21,147.13 156.07,147.23 155.93,147.33 C 155.85,147.39 155.77,147.44 155.7,147.5 C 155.66,147.53 155.62,147.56 155.57,147.59 C 155.55,147.6 155.53,147.62 155.51,147.63 C 155.5,147.64 155.52,147.65 155.52,147.65 C 155.53,147.66 155.54,147.67 155.55,147.67 C 155.77,147.89 155.91,148.2 155.96,148.51 C 155.98,148.66 155.98,148.82 155.97,148.98 C 155.96,149.13 155.95,149.29 155.94,149.45 C 155.94,149.53 155.93,149.6 155.92,149.68 C 155.91,149.7 155.91,149.72 155.9,149.74 C 155.9,149.75 155.91,149.76 155.89,149.76 C 155.88,149.76 155.87,149.75 155.86,149.75 C 155.82,149.74 155.79,149.73 155.75,149.72 C 155.59,149.69 155.44,149.65 155.29,149.62 C 155.25,149.61 155.21,149.6 155.17,149.59 C 155.16,149.59 155.15,149.58 155.15,149.58 C 155.13,149.58 155.13,149.56 155.13,149.55 C 155.12,149.51 155.12,149.48 155.12,149.44 C 155.1,149.33 155.09,149.22 155.08,149.11 C 155.07,148.98 155.07,148.86 155.06,148.73 C 155.06,148.63 155.04,148.55 155.0,148.46 C 154.98,148.41 154.92,148.29 154.84,148.3 C 154.73,148.3 154.72,148.37 154.72,148.46 C 154.72,148.61 154.75,148.79 154.58,148.89 C 154.45,148.97 154.26,148.94 154.13,148.89 C 153.72,148.75 153.78,148.43 153.78,148.11 C 153.79,147.79 153.78,147.48 153.79,147.16 C 153.8,147.01 153.82,146.85 153.83,146.69 C 153.84,146.62 153.85,146.54 153.85,146.46 C 153.85,146.34 153.81,146.33 153.71,146.3 C 153.55,146.26 153.4,146.29 153.24,146.3 C 153.08,146.3 152.93,146.3 152.77,146.27 C 152.46,146.22 152.16,146.1 151.96,145.84 C 151.78,145.6 151.62,145.22 151.93,145.0 C 151.99,144.95 152.07,144.92 152.14,144.89 C 152.23,144.86 152.26,144.79 152.24,144.7 C 152.21,144.53 152.09,144.42 151.99,144.3 C 151.96,144.27 151.94,144.24 151.91,144.21 C 151.89,144.18 151.88,144.14 151.86,144.1 C 151.83,144.03 151.8,143.95 151.77,143.88 C 151.7,143.73 151.64,143.59 151.57,143.44 C 151.51,143.3 151.45,143.15 151.38,143.01 C 151.32,142.86 151.27,142.71 151.21,142.57 C 151.15,142.42 151.08,142.27 151.02,142.13 C 151.01,142.11 151.0,142.09 150.99,142.07 C 150.99,142.07 150.98,142.06 150.98,142.05 C 150.97,142.03 150.99,142.06 150.99,142.06 C 151.02,142.09 151.05,142.12 151.08,142.14 C 151.14,142.2 151.2,142.25 151.25,142.31 C 151.49,142.53 151.72,142.74 151.96,142.96 C 152.31,143.26 152.34,143.3 152.63,143.65 C 152.64,143.66 152.66,143.68 152.67,143.69 C 152.67,143.7 152.67,143.7 152.68,143.7 C 152.68,143.71 152.68,143.72 152.69,143.71 C 152.7,143.71 152.7,143.7 152.71,143.7 C 152.74,143.67 152.78,143.65 152.81,143.63 C 152.87,143.58 152.94,143.53 153.0,143.49 C 153.13,143.39 153.27,143.3 153.4,143.21 C 153.53,143.12 153.67,143.03 153.8,142.95 C 153.84,142.93 153.87,142.91 153.91,142.89 C 153.92,142.88 153.94,142.87 153.96,142.86 C 153.96,142.86 153.97,142.85 153.97,142.85 C 153.97,142.85 153.98,142.85 153.98,142.84 C 153.98,142.83 153.98,142.83 153.97,142.82 C 153.95,142.74 153.93,142.67 153.91,142.6 C 153.72,142.02 153.5,141.47 153.21,140.94 C 153.14,140.81 153.07,140.67 152.99,140.55 C 152.95,140.48 152.91,140.42 152.87,140.35 C 152.85,140.32 152.83,140.29 152.81,140.26 C 152.78,140.22 152.8,140.18 152.81,140.15 C 152.87,139.83 152.91,139.51 152.93,139.19 C 152.94,139.11 152.95,139.03 152.95,138.95 C 152.95,138.95 152.95,138.94 152.95,138.94 C 152.95,138.93 152.96,138.95 152.96,138.95 C 152.97,138.96 152.97,138.96 152.98,138.97 C 152.99,138.99 153.0,139.0 153.02,139.02 C 153.04,139.05 153.07,139.08 153.09,139.11 C 153.19,139.24 153.29,139.36 153.38,139.49 C 153.57,139.75 153.74,140.02 153.9,140.3 C 154.22,140.86 154.47,141.44 154.68,142.05 C 154.71,142.13 154.73,142.2 154.76,142.28 C 154.77,142.31 154.78,142.35 154.79,142.39 C 154.8,142.41 154.8,142.42 154.81,142.44 C 154.81,142.46 154.82,142.44 154.83,142.44 C 154.84,142.44 154.85,142.43 154.86,142.43 C 155.0,142.37 155.15,142.31 155.3,142.26 C 155.59,142.16 155.89,142.06 156.19,141.98 C 156.22,141.97 156.26,141.96 156.3,141.95 C 156.32,141.95 156.34,141.94 156.36,141.94 C 156.37,141.94 156.36,141.89 156.36,141.88 C 156.37,141.81 156.38,141.73 156.38,141.65 C 156.39,141.49 156.4,141.34 156.4,141.18 C 156.41,140.87 156.41,140.56 156.39,140.25 C 156.36,139.62 156.28,139.01 156.14,138.4 C 156.12,138.33 156.11,138.25 156.09,138.17 C 156.08,138.14 156.07,138.1 156.06,138.06 C 156.05,138.04 156.05,138.02 156.04,138.01 C 156.04,137.98 156.05,137.97 156.05,137.95 C 156.1,137.8 156.14,137.65 156.18,137.5 C 156.25,137.2 156.31,136.89 156.36,136.58 C 156.37,136.51 156.38,136.43 156.39,136.35 C 156.39,136.33 156.39,136.31 156.39,136.29 C 156.39,136.29 156.4,136.28 156.4,136.28 C 156.4,136.27 156.4,136.29 156.4,136.29 C 156.4,136.3 156.41,136.31 156.41,136.32 C 156.43,136.36 156.44,136.39 156.46,136.43 C 156.51,136.57 156.57,136.72 156.63,136.86 C 156.74,137.16 156.83,137.45 156.92,137.75 C 157.0,138.05 157.07,138.36 157.12,138.66 C 157.13,138.68 157.13,138.7 157.13,138.72 C 157.14,138.74 157.14,138.7 157.15,138.7 C 157.15,138.69 157.16,138.68 157.16,138.67 C 157.19,138.64 157.21,138.6 157.23,138.56 C 157.27,138.49 157.31,138.42 157.35,138.35 C 157.43,138.21 157.51,138.07 157.58,137.92 C 158.2,136.76 158.67,135.56 159.0,134.28 C 159.03,134.12 159.07,133.97 159.1,133.81 C 159.12,133.74 159.14,133.66 159.15,133.59 C 159.16,133.55 159.17,133.51 159.18,133.47 C 159.18,133.47 159.18,133.45 159.18,133.46 C 159.18,133.47 159.18,133.47 159.18,133.47 C 159.19,133.48 159.19,133.49 159.2,133.5 C 159.2,133.52 159.21,133.54 159.22,133.55 C 159.33,133.84 159.43,134.12 159.52,134.42 C 159.56,134.56 159.6,134.71 159.64,134.86 C 159.65,134.93 159.67,135.01 159.69,135.08 C 159.69,135.1 159.69,135.12 159.7,135.14 C 159.7,135.16 159.69,135.18 159.69,135.2 C 159.67,135.23 159.66,135.27 159.65,135.31 C 159.55,135.63 159.45,135.94 159.33,136.25 C 158.87,137.5 158.27,138.66 157.55,139.78 C 157.5,139.85 157.46,139.92 157.41,139.98 C 157.39,140.02 157.36,140.05 157.34,140.09 C 157.33,140.1 157.32,140.12 157.31,140.14 C 157.29,140.16 157.3,140.18 157.3,140.2 C 157.31,140.36 157.31,140.52 157.32,140.69 C 157.32,140.85 157.32,141.02 157.31,141.18 C 157.31,141.26 157.31,141.34 157.3,141.43 C 157.3,141.44 157.3,141.45 157.3,141.46 C 157.3,141.46 157.3,141.47 157.3,141.47 C 157.31,141.46 157.31,141.46 157.32,141.46 C 157.33,141.45 157.35,141.43 157.36,141.42 C 157.39,141.4 157.42,141.38 157.45,141.35 C 157.94,140.98 158.4,140.59 158.86,140.19 C 159.77,139.38 160.62,138.51 161.43,137.6 C 161.85,137.13 162.25,136.65 162.64,136.16 C 163.03,135.66 163.37,135.14 163.69,134.6 C 163.71,134.57 163.73,134.53 163.75,134.5 C 163.75,134.49 163.76,134.48 163.76,134.47 C 163.77,134.46 163.76,134.48 163.76,134.49 C 163.76,134.49 163.76,134.5 163.76,134.5 C 163.76,134.52 163.76,134.54 163.76,134.56 C 163.77,134.64 163.77,134.72 163.77,134.79 C 163.77,134.95 163.76,135.11 163.75,135.26 C 163.73,135.58 163.7,135.89 163.64,136.2 C 163.64,136.23 163.63,136.27 163.62,136.31 C 163.61,136.35 163.61,136.39 163.58,136.42 C 163.54,136.48 163.49,136.55 163.44,136.61 C 163.34,136.73 163.25,136.85 163.15,136.97 C 162.95,137.22 162.75,137.46 162.55,137.69 C 161.72,138.67 160.85,139.59 159.91,140.46 C 159.67,140.68 159.43,140.9 159.19,141.11 C 159.06,141.22 158.94,141.32 158.81,141.43 C 158.75,141.48 158.69,141.53 158.63,141.58 C 158.59,141.61 158.56,141.64 158.53,141.66 C 158.52,141.67 158.47,141.69 158.5,141.69 C 158.52,141.69 158.54,141.69 158.56,141.7 C 159.2,141.73 159.79,141.84 160.38,142.12 C 160.66,142.25 160.91,142.4 161.15,142.59 C 161.27,142.68 161.39,142.78 161.5,142.88 C 161.53,142.9 161.56,142.93 161.58,142.96 C 161.6,142.97 161.61,142.98 161.62,143.0 C 161.64,143.01 161.65,143.03 161.67,143.01 C 161.73,142.96 161.79,142.91 161.85,142.85 C 162.34,142.43 162.82,141.99 163.29,141.54 C 163.75,141.09 164.19,140.62 164.62,140.14 C 164.73,140.02 164.83,139.89 164.94,139.77 C 164.99,139.71 165.04,139.65 165.09,139.59 C 165.12,139.56 165.15,139.53 165.17,139.5 C 165.19,139.48 165.2,139.47 165.21,139.45 C 165.22,139.43 165.23,139.41 165.25,139.4 C 165.53,139.3 165.82,139.19 166.1,139.09 C 166.24,139.03 166.38,138.98 166.53,138.93 C 166.6,138.91 166.67,138.88 166.74,138.86 C 166.78,138.84 166.81,138.83 166.85,138.82 C 166.85,138.82 166.86,138.82 166.86,138.81 C 166.87,138.81 166.86,138.82 166.86,138.82 C 166.85,138.83 166.84,138.84 166.84,138.85 C 166.83,138.86 166.82,138.88 166.8,138.89 C 166.61,139.15 166.42,139.4 166.22,139.65 C 166.2,139.68 166.17,139.71 166.14,139.74 C 166.13,139.76 166.12,139.77 166.11,139.79 C 166.1,139.8 166.12,139.8 166.13,139.8 C 166.14,139.81 166.15,139.81 166.15,139.82 C 166.23,139.85 166.31,139.88 166.38,139.92 C 166.53,139.99 166.68,140.07 166.82,140.15 C 167.11,140.31 167.38,140.5 167.63,140.7 C 167.89,140.91 168.13,141.14 168.36,141.38 C 168.41,141.44 168.47,141.5 168.52,141.57 C 168.55,141.6 168.57,141.63 168.6,141.66 C 168.61,141.68 168.57,141.68 168.56,141.68 C 168.54,141.69 168.52,141.69 168.51,141.7 C 168.36,141.75 168.22,141.8 168.08,141.85 C 168.01,141.88 167.94,141.91 167.87,141.93 C 167.83,141.95 167.8,141.96 167.76,141.98 C 167.74,141.98 167.73,141.99 167.71,142.0 C 167.69,142.01 167.68,141.99 167.67,141.97 C 167.56,141.86 167.46,141.76 167.35,141.65 C 167.12,141.45 166.89,141.26 166.63,141.1 C 166.37,140.93 166.09,140.78 165.81,140.66 C 165.74,140.63 165.67,140.6 165.61,140.57 C 165.58,140.56 165.55,140.55 165.52,140.54 C 165.51,140.54 165.5,140.54 165.49,140.53 C 165.48,140.53 165.48,140.54 165.47,140.54 C 165.46,140.56 165.45,140.58 165.43,140.59 C 165.32,140.72 165.21,140.84 165.1,140.96 C 164.65,141.46 164.19,141.93 163.71,142.4 C 163.47,142.63 163.23,142.85 162.98,143.08 C 162.92,143.13 162.86,143.19 162.8,143.24 C 162.76,143.27 162.73,143.3 162.7,143.32 C 162.69,143.34 162.67,143.35 162.66,143.37 C 162.65,143.37 162.65,143.37 162.64,143.38 C 162.64,143.38 162.65,143.38 162.65,143.38 C 162.66,143.37 162.67,143.37 162.68,143.37 C 162.84,143.35 162.99,143.33 163.15,143.32 C 163.78,143.26 164.38,143.3 165.0,143.47 C 166.2,143.8 167.27,144.63 167.67,145.87 C 167.87,146.47 167.88,147.1 167.71,147.71 C 167.67,147.86 167.63,148.01 167.63,148.17 C 167.64,148.25 167.64,148.32 167.72,148.37 C 167.74,148.39 167.75,148.39 167.77,148.4 C 167.79,148.41 167.81,148.41 167.82,148.42 C 167.85,148.45 167.87,148.49 167.9,148.52 C 168.09,148.76 168.27,149.02 168.44,149.28 z M 127.84,161.61 C 127.74,161.82 127.68,162.05 127.64,162.28 C 127.59,162.62 127.6,162.97 127.62,163.28 C 127.63,163.6 127.66,163.88 127.64,164.11 C 127.64,164.13 127.64,164.14 127.64,164.16 C 127.63,164.23 127.62,164.29 127.6,164.34 C 127.58,164.4 127.56,164.45 127.54,164.49 C 127.48,164.58 127.41,164.63 127.35,164.67 C 127.29,164.71 127.23,164.74 127.2,164.76 C 127.17,164.77 127.16,164.78 127.15,164.79 C 127.13,164.8 127.13,164.81 127.13,164.83 C 127.13,164.86 127.14,164.89 127.17,164.94 C 127.12,164.87 127.1,164.83 127.1,164.78 C 127.09,164.75 127.09,164.72 127.1,164.69 C 127.11,164.66 127.12,164.62 127.14,164.58 C 127.16,164.53 127.18,164.48 127.21,164.41 C 127.23,164.34 127.25,164.25 127.26,164.15 C 127.26,164.06 127.25,163.96 127.23,163.85 C 127.2,163.74 127.16,163.61 127.14,163.48 C 127.11,163.32 127.11,163.15 127.13,162.99 C 127.06,163.08 126.99,163.16 126.92,163.17 C 126.86,163.18 126.79,163.16 126.74,163.16 C 126.7,163.17 126.66,163.21 126.64,163.27 C 126.62,163.35 126.62,163.47 126.64,163.6 C 126.66,163.72 126.69,163.86 126.72,163.98 C 126.76,164.11 126.8,164.22 126.84,164.32 C 126.88,164.42 126.93,164.52 126.97,164.61 C 127.03,164.72 127.1,164.83 127.17,164.94 C 127.12,164.86 127.06,164.78 127.01,164.7 C 127.01,164.69 127.01,164.69 127.01,164.69 C 127.0,164.66 126.98,164.63 126.97,164.61 C 126.92,164.52 126.87,164.43 126.83,164.34 C 126.79,164.25 126.75,164.16 126.71,164.06 C 126.64,163.89 126.57,163.69 126.51,163.48 C 126.45,163.27 126.41,163.05 126.4,162.87 C 126.4,162.79 126.4,162.71 126.41,162.65 C 126.42,162.58 126.44,162.53 126.46,162.48 C 126.46,162.47 126.47,162.46 126.48,162.44 C 126.56,162.31 126.69,162.26 126.86,162.2 C 127.02,162.15 127.22,162.09 127.42,161.96 C 127.56,161.87 127.69,161.75 127.84,161.61 z M 127.17,164.94 C 127.2,164.98 127.23,165.01 127.25,165.01 C 127.27,165.02 127.29,165.02 127.3,165.01 C 127.32,165.0 127.33,164.99 127.35,164.97 C 127.38,164.95 127.42,164.91 127.48,164.86 C 127.54,164.82 127.61,164.77 127.72,164.75 C 127.76,164.74 127.82,164.73 127.87,164.74 C 127.93,164.74 127.99,164.75 128.06,164.76 C 128.08,164.77 128.09,164.77 128.11,164.78 C 128.33,164.84 128.59,164.96 128.88,165.09 C 129.17,165.21 129.49,165.34 129.83,165.4 C 130.06,165.45 130.29,165.47 130.53,165.45 C 130.34,165.53 130.18,165.62 130.05,165.72 C 129.86,165.87 129.74,166.03 129.63,166.16 C 129.53,166.3 129.43,166.41 129.27,166.44 C 129.26,166.44 129.25,166.45 129.24,166.45 C 129.19,166.45 129.13,166.45 129.06,166.43 C 129.0,166.42 128.93,166.4 128.85,166.37 C 128.69,166.3 128.5,166.18 128.32,166.06 C 128.14,165.93 127.97,165.79 127.84,165.67 C 127.76,165.6 127.68,165.53 127.61,165.46 C 127.55,165.39 127.48,165.32 127.41,165.24 C 127.32,165.14 127.24,165.04 127.17,164.94 C 127.24,165.04 127.33,165.14 127.41,165.24 C 127.48,165.31 127.56,165.38 127.64,165.46 C 127.72,165.53 127.81,165.61 127.91,165.68 C 128.02,165.76 128.13,165.84 128.25,165.9 C 128.36,165.96 128.48,166.0 128.56,166.0 C 128.62,166.01 128.67,165.99 128.69,165.95 C 128.71,165.9 128.71,165.83 128.74,165.78 C 128.78,165.72 128.88,165.67 128.99,165.64 C 128.83,165.61 128.67,165.55 128.53,165.47 C 128.41,165.4 128.31,165.32 128.21,165.26 C 128.12,165.2 128.03,165.15 127.94,165.13 C 127.84,165.09 127.76,165.09 127.68,165.09 C 127.61,165.08 127.55,165.09 127.5,165.09 C 127.45,165.09 127.41,165.09 127.38,165.09 C 127.35,165.08 127.32,165.07 127.29,165.06 C 127.25,165.04 127.21,165.0 127.17,164.94 z M 127.88,164.44 C 127.99,164.36 128.11,164.25 128.17,164.1 C 128.23,163.95 128.23,163.74 128.3,163.53 C 128.32,163.46 128.36,163.38 128.4,163.31 C 128.45,163.24 128.51,163.18 128.57,163.16 C 128.72,163.1 128.91,163.18 129.11,163.22 C 129.21,163.24 129.3,163.25 129.4,163.24 C 129.49,163.23 129.58,163.2 129.68,163.18 C 129.63,163.26 129.57,163.34 129.53,163.42 C 129.49,163.51 129.46,163.61 129.45,163.7 C 129.42,163.9 129.43,164.11 129.32,164.23 C 129.28,164.28 129.2,164.32 129.12,164.34 C 129.04,164.36 128.96,164.36 128.87,164.36 C 128.65,164.35 128.46,164.28 128.3,164.29 C 128.13,164.29 127.99,164.37 127.88,164.44 z M 151.09,142.65 C 151.07,142.6 151.05,142.55 151.03,142.51 C 150.9,142.21 150.76,141.91 150.61,141.62 C 150.45,141.33 150.29,141.03 150.12,140.75 C 149.98,140.5 149.84,140.26 149.7,140.02 C 149.56,139.8 149.42,139.58 149.28,139.36 C 149.22,139.28 149.16,139.2 149.11,139.12 C 149.05,139.03 148.92,139.02 148.85,139.08 C 148.65,139.26 148.43,139.41 148.21,139.54 C 147.91,139.72 147.58,139.85 147.25,139.94 C 147.08,139.99 147.07,140.21 147.23,140.28 C 147.27,140.29 147.31,140.31 147.35,140.33 C 147.81,140.52 148.25,140.74 148.68,141.0 C 149.09,141.26 149.48,141.55 149.87,141.85 C 150.04,142.0 150.22,142.14 150.39,142.29 C 150.57,142.45 150.75,142.61 150.92,142.77 C 151.0,142.84 151.13,142.75 151.09,142.65 z"
		 />

		<!-- Prism Reference -->
		<cam mingh:cam="--verb EditSelectAll --verb ZoomSelection --verb FileSave" /> 
	 </g>

</svg>
