<svg
   xmlns:xlink="http://www.w3.org/1999/xlink"
   xmlns:svg="http://www.w3.org/2000/svg"
   xmlns="http://www.w3.org/2000/svg"
   xmlns:mingh="http://www.minghworld.com"
   width="300px"
   height="300px" >
	
	 <g>
		
		<!-- Paths -->
		<path style="fill:none;stroke:#000;stroke-width:0.25px;"
		 d="M 149.75,123.97 C 149.57,123.97 149.37,124.0 149.19,124.03 C 148.82,124.09 148.49,124.18 148.16,124.34 C 147.82,124.5 147.5,124.7 147.22,124.94 C 146.93,125.17 146.68,125.44 146.47,125.78 C 146.36,125.95 146.27,126.14 146.19,126.31 C 146.16,126.38 146.12,126.44 146.09,126.5 C 146.05,126.6 146.03,126.72 146.0,126.81 C 145.97,126.9 145.94,126.98 145.88,127.03 C 145.74,127.15 145.48,127.09 145.22,127.06 C 145.04,127.04 144.89,127.04 144.72,127.06 C 144.52,127.09 144.34,127.14 144.19,127.25 C 143.91,127.46 143.74,127.85 143.53,128.16 C 143.43,128.31 143.31,128.45 143.22,128.5 C 143.18,128.52 143.13,128.54 143.09,128.56 C 143.04,128.6 143.0,128.67 142.94,128.75 C 142.51,129.29 141.93,130.32 141.63,130.91 C 141.47,131.2 141.39,131.38 141.25,131.69 C 140.88,132.49 140.13,134.19 139.84,134.72 C 139.8,134.8 139.78,134.86 139.72,134.94 C 139.64,135.04 139.54,135.17 139.41,135.25 C 139.28,135.33 139.13,135.36 139.0,135.38 C 138.73,135.41 138.5,135.41 138.19,135.44 C 137.26,135.51 135.83,135.63 134.56,135.72 C 133.3,135.81 132.2,135.89 130.94,136.03 C 129.68,136.17 128.27,136.37 127.38,136.56 C 127.08,136.63 126.83,136.69 126.59,136.81 C 126.36,136.94 126.16,137.13 126.0,137.44 C 125.84,137.74 125.76,138.16 125.72,138.56 C 125.67,138.96 125.65,139.35 125.81,139.66 C 125.98,139.96 126.32,140.19 126.63,140.34 C 126.71,140.39 126.79,140.43 126.88,140.47 C 126.97,140.51 127.06,140.55 127.16,140.56 C 127.24,140.58 127.33,140.55 127.38,140.59 C 127.4,140.62 127.42,140.65 127.41,140.69 C 127.37,140.81 127.03,140.95 126.81,141.06 C 126.77,141.09 126.73,141.1 126.69,141.13 C 126.52,141.23 126.27,141.4 126.16,141.53 C 126.02,141.69 126.09,141.78 126.16,141.88 C 126.23,141.98 126.3,142.1 126.44,142.16 C 126.59,142.22 126.84,142.23 127.09,142.19 C 127.28,142.16 127.48,142.11 127.69,142.06 C 127.97,142.0 128.29,141.95 128.53,141.91 C 128.71,141.88 128.86,141.85 128.94,141.91 C 128.97,141.93 129.0,141.98 129.06,141.97 C 129.11,141.96 129.17,141.9 129.22,141.88 C 129.26,141.85 129.29,141.85 129.31,141.84 C 129.4,141.79 129.48,141.77 129.59,141.75 C 130.22,141.63 131.66,141.46 133.09,141.34 C 134.53,141.23 135.96,141.18 136.63,141.16 C 136.69,141.15 136.74,141.15 136.84,141.16 C 136.94,141.16 137.05,141.17 137.16,141.19 C 137.27,141.2 137.35,141.23 137.41,141.25 C 137.45,141.27 137.5,141.28 137.5,141.31 C 137.5,141.34 137.49,141.37 137.47,141.41 C 137.45,141.45 137.41,141.52 137.38,141.59 C 137.35,141.66 137.34,141.72 137.31,141.78 C 137.25,141.92 137.22,141.97 137.19,142.03 C 136.69,142.9 134.33,147.69 133.81,148.63 C 133.77,148.7 133.76,148.74 133.72,148.84 C 133.67,148.95 133.58,149.14 133.53,149.38 C 133.5,149.49 133.49,149.62 133.5,149.72 C 133.51,149.81 133.53,149.87 133.59,149.91 C 133.63,149.93 133.67,149.91 133.72,149.91 C 133.77,149.9 133.81,149.87 133.84,149.88 C 133.87,149.88 133.89,149.91 133.91,149.94 C 133.92,149.96 133.93,150.0 133.94,150.03 C 133.97,150.11 133.99,150.19 134.0,150.28 C 134.01,150.37 134.03,150.48 134.06,150.56 C 134.13,150.74 134.3,150.87 134.47,150.97 C 134.58,151.03 134.69,151.07 134.81,151.09 C 134.89,151.11 134.96,151.12 135.03,151.13 C 135.2,151.15 135.37,151.15 135.53,151.16 C 135.89,151.17 136.27,151.15 136.63,151.03 C 136.98,150.91 137.31,150.72 137.56,150.47 C 137.72,150.31 137.85,150.13 137.97,149.94 C 138.05,149.81 138.13,149.7 138.25,149.5 C 138.38,149.28 138.55,148.97 138.66,148.94 C 138.8,148.9 138.94,148.99 138.97,149.09 C 139.0,149.19 138.96,149.3 138.88,149.47 C 138.79,149.64 138.66,149.86 138.56,150.06 C 138.44,150.3 138.34,150.5 138.25,150.69 C 138.19,150.82 138.14,150.93 138.09,151.06 C 137.97,151.39 137.87,151.79 137.81,152.16 C 137.75,152.53 137.72,152.88 137.72,153.25 C 137.72,153.62 137.74,153.98 137.78,154.34 C 137.83,154.71 137.9,155.08 138.0,155.44 C 138.1,155.79 138.24,156.14 138.41,156.47 C 138.57,156.8 138.78,157.1 139.0,157.41 C 139.22,157.71 139.43,158.02 139.66,158.31 C 139.88,158.61 140.1,158.9 140.34,159.19 C 140.58,159.47 140.85,159.75 141.16,159.94 C 141.47,160.13 141.83,160.22 142.19,160.31 C 142.55,160.41 142.92,160.48 143.28,160.56 C 143.65,160.65 144.01,160.75 144.34,160.81 C 144.64,160.87 144.89,160.91 145.25,160.97 C 145.31,160.98 145.37,160.99 145.44,161.0 C 145.54,161.02 145.67,161.04 145.78,161.06 C 145.9,161.08 146.0,161.08 146.09,161.09 C 146.15,161.1 146.2,161.12 146.25,161.13 C 146.43,161.14 146.51,161.15 146.53,161.25 C 146.54,161.29 146.56,161.34 146.53,161.38 C 146.49,161.44 146.38,161.45 146.25,161.5 C 146.24,161.5 146.23,161.5 146.22,161.5 C 146.13,161.53 146.01,161.55 145.91,161.59 C 145.82,161.63 145.76,161.68 145.69,161.72 C 145.63,161.75 145.55,161.78 145.5,161.81 C 145.22,162.01 145.1,162.27 145.0,162.56 C 144.88,162.9 144.81,163.27 144.78,163.66 C 144.76,164.04 144.8,164.42 145.06,164.72 C 145.22,164.9 145.45,165.04 145.66,165.16 C 145.74,165.21 145.83,165.27 145.91,165.31 C 145.95,165.33 145.99,165.36 146.03,165.38 C 146.06,165.39 146.1,165.39 146.13,165.41 C 146.22,165.46 146.26,165.61 146.22,165.72 C 146.21,165.75 146.21,165.76 146.19,165.78 C 146.15,165.83 146.07,165.87 146.0,165.91 C 145.93,165.95 145.86,165.98 145.78,166.03 C 145.69,166.09 145.59,166.16 145.5,166.22 C 145.36,166.31 145.25,166.4 145.22,166.5 C 145.19,166.59 145.22,166.7 145.28,166.78 C 145.38,166.93 145.52,167.04 145.75,167.06 C 145.89,167.08 146.05,167.06 146.22,167.03 C 146.65,166.96 147.08,166.87 147.44,166.81 C 147.54,166.8 147.61,166.8 147.72,166.78 C 147.82,166.77 147.93,166.75 148.0,166.78 C 148.04,166.8 148.05,166.83 148.09,166.84 C 148.13,166.85 148.18,166.86 148.22,166.84 C 148.28,166.82 148.34,166.76 148.41,166.72 C 148.51,166.66 148.64,166.61 148.72,166.59 C 148.8,166.58 148.83,166.57 148.88,166.56 C 149.31,166.48 151.06,166.28 152.0,166.19 C 152.38,166.15 152.62,166.14 152.88,166.13 C 153.13,166.11 153.4,166.08 153.84,166.06 C 154.53,166.04 155.65,166.05 156.19,166.06 C 156.35,166.07 156.44,166.07 156.5,166.09 C 156.58,166.13 156.6,166.2 156.53,166.38 C 156.49,166.49 156.41,166.67 156.34,166.81 C 156.28,166.95 156.22,167.08 156.16,167.19 C 156.06,167.36 155.97,167.49 155.88,167.66 C 155.55,168.19 155.15,169.07 154.78,169.81 C 154.42,170.55 154.11,171.16 153.75,171.88 C 153.39,172.59 152.96,173.39 152.75,173.91 C 152.72,173.99 152.68,174.05 152.66,174.16 C 152.63,174.25 152.61,174.37 152.59,174.47 C 152.59,174.54 152.6,174.61 152.63,174.66 C 152.64,174.69 152.65,174.73 152.69,174.75 C 152.74,174.78 152.82,174.79 152.88,174.78 C 152.92,174.77 152.96,174.76 153.0,174.81 C 153.03,174.87 153.07,174.98 153.09,175.09 C 153.12,175.22 153.13,175.31 153.16,175.38 C 153.18,175.45 153.21,175.51 153.25,175.56 C 153.31,175.64 153.38,175.71 153.47,175.78 C 153.56,175.85 153.66,175.9 153.78,175.94 C 153.91,175.98 154.07,176.02 154.22,176.03 C 154.34,176.04 154.45,176.03 154.56,176.03 C 154.7,176.03 154.84,176.04 154.97,176.03 C 155.1,176.02 155.25,176.02 155.38,176.0 C 155.74,175.94 156.06,175.8 156.34,175.59 C 156.63,175.39 156.87,175.11 157.06,174.84 C 157.25,174.58 157.4,174.32 157.56,174.03 C 157.88,173.45 158.29,172.66 158.66,171.94 C 159.02,171.21 159.36,170.55 159.69,169.81 C 160.02,169.07 160.36,168.24 160.59,167.63 C 160.71,167.32 160.79,167.07 160.91,166.75 C 160.96,166.6 161.01,166.43 161.06,166.28 C 161.09,166.2 161.14,166.13 161.19,166.09 C 161.23,166.06 161.29,166.06 161.38,166.06 C 161.7,166.08 162.31,166.13 162.72,166.16 C 163.13,166.19 163.34,166.18 163.63,166.22 C 164.19,166.29 165.06,166.43 165.94,166.56 C 166.82,166.7 167.7,166.84 168.28,166.97 C 168.57,167.03 168.77,167.08 169.09,167.16 C 169.74,167.32 170.84,167.59 171.56,167.72 C 171.92,167.78 172.19,167.81 172.53,167.84 C 172.88,167.88 173.3,167.89 173.66,167.84 C 173.78,167.83 173.89,167.81 174.0,167.75 C 174.12,167.69 174.23,167.6 174.28,167.47 C 174.31,167.39 174.32,167.3 174.31,167.22 C 174.3,167.11 174.25,167.02 174.22,166.91 C 174.2,166.81 174.19,166.68 174.19,166.56 C 174.19,166.5 174.19,166.43 174.19,166.38 C 174.19,166.27 174.18,166.19 174.19,166.09 C 174.22,165.7 174.36,165.3 174.31,165.0 C 174.29,164.84 174.21,164.73 174.06,164.56 C 173.99,164.48 173.9,164.39 173.81,164.31 C 173.75,164.25 173.69,164.2 173.63,164.13 C 173.49,163.99 173.3,163.8 173.16,163.66 C 173.05,163.55 172.97,163.48 172.91,163.41 C 172.84,163.32 172.79,163.24 172.81,163.16 C 172.83,163.1 172.87,163.04 172.91,163.0 C 172.97,162.94 173.01,162.93 173.13,162.94 C 173.2,162.94 173.32,162.95 173.38,162.94 C 173.45,162.93 173.44,162.91 173.38,162.88 C 173.33,162.85 173.27,162.8 173.22,162.78 C 173.17,162.76 173.14,162.77 173.09,162.75 C 173.02,162.72 172.92,162.68 172.84,162.66 C 172.82,162.65 172.77,162.66 172.75,162.66 C 172.66,162.63 172.61,162.59 172.5,162.56 C 172.01,162.44 170.82,162.16 170.41,162.06 C 170.32,162.04 170.26,162.02 170.19,162.0 C 169.57,161.87 167.49,161.49 166.47,161.31 C 166.13,161.25 165.9,161.22 165.63,161.16 C 165.35,161.1 165.01,161.01 164.59,160.94 C 164.45,160.91 164.29,160.87 164.16,160.84 C 164.01,160.82 163.89,160.82 163.81,160.78 C 163.76,160.76 163.71,160.7 163.69,160.66 C 163.65,160.58 163.67,160.49 163.69,160.34 C 163.71,160.22 163.74,160.06 163.78,159.91 C 163.81,159.81 163.84,159.72 163.88,159.63 C 164.01,159.21 164.1,158.83 164.16,158.5 C 164.18,158.39 164.18,158.29 164.22,158.19 C 164.27,158.06 164.36,157.91 164.47,157.81 C 164.52,157.77 164.57,157.73 164.63,157.69 C 164.88,157.47 165.13,157.11 165.31,156.75 C 165.49,156.39 165.63,156.05 165.72,155.69 C 165.81,155.33 165.85,154.96 165.88,154.59 C 165.9,154.23 165.87,153.86 165.84,153.47 C 165.83,153.34 165.84,153.22 165.81,153.09 C 165.75,152.82 165.6,152.53 165.47,152.38 C 165.38,152.27 165.31,152.22 165.19,152.16 C 165.11,152.11 165.01,152.06 164.91,152.0 C 164.81,151.94 164.72,151.89 164.63,151.81 C 164.52,151.72 164.43,151.61 164.34,151.5 C 164.25,151.38 164.16,151.26 164.09,151.16 C 164.02,151.04 163.95,150.93 163.91,150.91 C 163.85,150.88 163.85,150.95 163.78,151.06 C 163.75,151.11 163.7,151.15 163.66,151.22 C 163.56,151.38 163.45,151.6 163.34,151.78 C 163.27,151.91 163.21,152.01 163.16,152.13 C 163.08,152.28 163.01,152.43 162.94,152.56 C 162.88,152.66 162.82,152.76 162.75,152.81 C 162.65,152.88 162.53,152.87 162.44,152.81 C 162.36,152.77 162.3,152.68 162.28,152.59 C 162.27,152.53 162.27,152.46 162.31,152.38 C 162.38,152.25 162.54,152.08 162.63,151.97 C 162.66,151.92 162.68,151.88 162.69,151.84 C 162.7,151.79 162.72,151.73 162.72,151.66 C 162.72,151.56 162.73,151.45 162.72,151.34 C 162.71,151.16 162.68,150.99 162.63,150.78 C 162.58,150.59 162.52,150.35 162.47,150.16 C 162.37,149.74 162.34,149.39 162.25,149.03 C 162.16,148.67 162.02,148.34 161.88,148.0 C 161.73,147.66 161.54,147.31 161.34,147.0 C 161.15,146.69 160.95,146.38 160.72,146.09 C 160.49,145.81 160.22,145.55 159.97,145.28 C 159.71,145.01 159.46,144.75 159.19,144.5 C 158.91,144.25 158.61,144.03 158.31,143.81 C 158.01,143.59 157.72,143.39 157.34,143.19 C 156.97,142.99 156.51,142.78 156.19,142.75 C 156.05,142.73 155.94,142.74 155.81,142.72 C 155.65,142.69 155.47,142.61 155.34,142.47 C 155.19,142.3 155.12,142.04 155.09,141.78 C 155.08,141.65 155.08,141.51 155.09,141.38 C 155.11,141.15 155.16,140.96 155.19,140.75 C 155.21,140.59 155.24,140.42 155.22,140.28 C 155.2,140.12 155.12,139.99 155.03,139.84 C 154.94,139.69 154.83,139.51 154.66,139.34 C 154.53,139.22 154.36,139.1 154.22,138.97 C 154.0,138.77 153.8,138.57 153.69,138.44 C 153.67,138.42 153.66,138.39 153.66,138.38 C 153.64,138.33 153.64,138.27 153.66,138.22 C 153.67,138.15 153.73,138.13 153.78,138.09 C 153.8,138.08 153.8,138.06 153.84,138.06 C 153.87,138.06 153.91,138.06 153.94,138.06 C 154.18,138.08 154.25,138.09 154.28,138.06 C 154.3,138.05 154.3,138.01 154.22,137.97 C 154.18,137.95 154.14,137.92 154.09,137.91 C 154.05,137.89 154.03,137.89 154.0,137.88 C 153.84,137.81 153.68,137.79 153.53,137.75 C 152.97,137.6 152.27,137.42 151.5,137.25 C 150.34,137.0 149.04,136.72 147.69,136.47 C 146.57,136.26 145.4,136.07 144.94,135.97 C 144.84,135.95 144.77,135.9 144.69,135.81 C 144.66,135.78 144.64,135.76 144.63,135.72 C 144.59,135.65 144.58,135.58 144.59,135.5 C 144.67,135.08 144.98,133.89 145.06,133.47 C 145.09,133.34 145.09,133.27 145.22,133.13 C 145.34,132.99 145.57,132.79 145.75,132.59 C 145.9,132.43 146.0,132.26 146.09,132.09 C 146.2,131.9 146.3,131.69 146.38,131.5 C 146.44,131.33 146.52,131.17 146.56,131.06 C 146.58,131.01 146.6,130.97 146.63,130.94 C 146.64,130.92 146.67,130.92 146.69,130.91 C 146.72,130.88 146.74,130.88 146.78,130.88 C 146.85,130.88 146.95,130.91 147.03,130.97 C 147.11,131.02 147.18,131.1 147.28,131.19 C 147.45,131.33 147.68,131.47 147.91,131.59 C 148.26,131.79 148.61,131.92 148.97,132.0 C 149.32,132.08 149.69,132.11 150.06,132.09 C 150.43,132.08 150.81,132.02 151.16,131.91 C 151.51,131.79 151.85,131.64 152.16,131.44 C 152.46,131.23 152.73,130.97 152.97,130.69 C 153.21,130.41 153.41,130.08 153.56,129.75 C 153.72,129.42 153.85,129.08 153.91,128.72 C 153.97,128.35 153.98,127.96 153.94,127.59 C 153.9,127.23 153.79,126.87 153.66,126.53 C 153.52,126.19 153.35,125.86 153.13,125.56 C 152.9,125.27 152.64,125.0 152.34,124.78 C 152.05,124.56 151.72,124.39 151.38,124.25 C 151.03,124.11 150.68,124.01 150.31,123.97 C 150.13,123.95 149.93,123.96 149.75,123.97 z M 149.91,126.09 C 150.03,126.1 150.16,126.1 150.28,126.13 C 150.53,126.18 150.79,126.29 151.0,126.44 C 151.21,126.58 151.39,126.75 151.53,126.97 C 151.67,127.18 151.77,127.44 151.81,127.69 C 151.86,127.94 151.84,128.19 151.78,128.44 C 151.73,128.69 151.65,128.95 151.5,129.16 C 151.35,129.37 151.15,129.55 150.94,129.69 C 150.72,129.83 150.47,129.89 150.22,129.94 C 149.97,129.98 149.72,129.99 149.47,129.94 C 149.22,129.88 148.99,129.77 148.78,129.63 C 148.57,129.48 148.39,129.31 148.25,129.09 C 148.11,128.88 148.01,128.63 147.97,128.38 C 147.92,128.12 147.91,127.87 147.97,127.63 C 148.02,127.38 148.14,127.15 148.28,126.94 C 148.43,126.73 148.63,126.54 148.84,126.41 C 149.06,126.27 149.28,126.17 149.53,126.13 C 149.66,126.1 149.78,126.09 149.91,126.09 z M 135.69,136.91 C 135.75,136.9 135.76,136.91 135.78,136.91 C 135.83,136.9 135.89,136.91 135.94,136.91 C 136.11,136.9 136.4,136.9 136.72,136.91 C 137.13,136.91 137.57,136.89 137.91,136.94 C 138.02,136.95 138.11,136.98 138.19,137.0 C 138.23,137.01 138.26,137.02 138.28,137.03 C 138.29,137.04 138.31,137.05 138.31,137.06 C 138.32,137.08 138.3,137.11 138.31,137.13 C 138.32,137.14 138.35,137.16 138.38,137.16 C 138.4,137.15 138.41,137.14 138.44,137.13 C 138.48,137.1 138.5,137.08 138.53,137.06 C 138.57,137.04 138.61,137.01 138.66,137.0 C 138.82,136.96 139.04,136.98 139.19,137.09 C 139.27,137.15 139.32,137.23 139.34,137.31 C 139.37,137.39 139.38,137.45 139.34,137.5 C 139.3,137.55 139.22,137.58 139.13,137.59 C 139.04,137.61 138.93,137.6 138.84,137.59 C 138.65,137.58 138.51,137.55 138.34,137.53 C 138.18,137.51 138.01,137.52 137.84,137.53 C 137.67,137.54 137.48,137.54 137.31,137.56 C 137.14,137.58 136.99,137.63 136.78,137.63 C 136.67,137.62 136.56,137.62 136.47,137.59 C 136.39,137.57 136.32,137.52 136.28,137.44 C 136.27,137.42 136.26,137.39 136.25,137.38 C 136.23,137.35 136.21,137.38 136.19,137.38 C 136.17,137.38 136.17,137.36 136.16,137.38 C 136.14,137.39 136.11,137.44 136.09,137.47 C 136.05,137.53 135.99,137.55 135.94,137.56 C 135.87,137.58 135.82,137.58 135.75,137.59 C 135.67,137.61 135.58,137.64 135.5,137.66 C 135.36,137.68 135.25,137.68 135.13,137.69 C 134.76,137.72 134.11,137.8 133.53,137.84 C 132.95,137.89 132.44,137.93 131.91,137.97 C 131.37,138.0 130.82,138.04 130.31,138.06 C 129.98,138.08 129.65,138.08 129.31,138.06 C 129.15,138.06 128.97,138.03 128.81,138.0 C 128.71,137.98 128.62,137.95 128.63,137.91 C 128.63,137.88 128.68,137.87 128.72,137.84 C 128.84,137.77 129.01,137.71 129.19,137.66 C 129.53,137.56 129.86,137.49 130.19,137.44 C 130.69,137.35 131.25,137.29 131.81,137.22 C 132.38,137.15 132.95,137.07 133.5,137.03 C 133.87,137.01 134.22,136.98 134.5,137.0 C 134.55,137.0 134.61,137.01 134.69,137.03 C 134.77,137.05 134.85,137.11 134.94,137.13 C 134.98,137.14 135.04,137.13 135.06,137.13 C 135.06,137.11 135.07,137.07 135.06,137.06 C 135.05,137.04 135.05,137.04 135.06,137.03 C 135.08,137.02 135.11,137.03 135.16,137.03 C 135.23,137.04 135.34,137.07 135.44,137.09 C 135.51,137.11 135.59,137.1 135.63,137.09 C 135.61,137.08 135.6,137.02 135.56,137.0 C 135.54,136.99 135.51,136.98 135.5,136.97 C 135.49,136.95 135.5,136.95 135.53,136.94 C 135.56,136.93 135.64,136.91 135.69,136.91 z M 144.38,137.41 C 144.95,137.38 145.72,137.39 146.5,137.5 C 147.37,137.62 148.13,137.77 148.19,137.84 C 148.24,137.92 149.21,138.14 150.28,138.34 C 150.73,138.43 151.21,138.51 151.88,138.63 C 152.13,138.68 152.49,138.82 152.47,138.88 C 152.45,138.92 152.16,138.93 151.94,138.94 C 151.71,138.95 151.55,138.96 151.38,138.94 C 150.4,138.7 148.71,138.42 147.41,138.28 C 146.44,138.18 145.71,138.09 145.16,138.03 C 143.58,137.85 143.43,137.78 143.44,137.66 C 143.45,137.51 143.8,137.44 144.38,137.41 z M 134.75,139.59 C 135.37,139.55 135.63,139.58 135.44,139.69 C 135.26,139.78 134.95,139.86 134.75,139.84 C 134.55,139.83 133.95,139.89 133.41,139.97 C 132.86,140.05 132.38,140.04 132.34,140.0 C 132.31,139.95 132.21,139.97 132.13,140.03 C 131.83,140.23 129.27,140.54 129.28,140.38 C 129.28,140.28 129.27,140.3 129.25,140.34 C 129.23,140.41 129.18,140.55 128.69,140.47 C 128.66,140.46 128.63,140.44 128.63,140.41 C 128.62,140.37 128.61,140.34 128.72,140.28 C 128.83,140.22 129.04,140.16 129.19,140.13 C 129.33,140.09 129.42,140.08 129.5,140.06 C 129.6,140.04 129.68,140.02 129.84,140.0 C 129.98,139.98 130.19,139.96 130.41,139.94 C 131.85,139.78 133.51,139.69 133.56,139.69 C 133.64,139.68 134.21,139.63 134.75,139.59 z M 142.47,141.19 C 143.12,141.2 144.51,141.32 146.03,141.53 C 148.25,141.84 148.44,141.88 149.75,142.22 C 150.35,142.37 150.88,142.52 151.38,142.63 C 151.54,142.66 151.54,142.89 151.38,142.91 C 151.23,142.92 151.04,142.95 150.88,142.97 C 150.34,143.03 149.72,143.07 149.47,143.06 C 149.22,143.06 148.87,143.12 148.69,143.19 C 148.51,143.26 148.3,143.25 148.25,143.19 C 148.2,143.13 147.15,143.33 145.88,143.63 C 143.63,144.14 143.5,144.19 142.44,145.03 C 141.33,145.9 140.71,146.43 140.31,146.81 C 140.09,147.03 139.74,146.78 139.88,146.5 C 140.59,145.03 141.2,143.54 141.59,142.41 C 141.8,141.79 142.04,141.26 142.09,141.22 C 142.13,141.19 142.25,141.18 142.47,141.19 z M 154.69,143.59 C 154.75,143.58 154.78,143.58 154.84,143.59 C 154.97,143.62 155.12,143.72 155.19,143.81 C 155.25,143.88 155.87,143.98 156.34,144.13 C 157.23,144.39 157.58,144.8 157.78,145.0 C 157.64,145.13 157.56,145.16 157.47,145.16 C 157.42,145.15 157.35,145.14 157.31,145.13 C 157.29,145.12 157.28,145.11 157.25,145.09 C 157.25,145.09 157.26,145.09 157.0,145.0 C 156.74,144.91 156.19,144.72 155.88,144.63 C 155.56,144.53 155.44,144.53 155.34,144.53 C 155.15,144.54 154.97,144.55 154.78,144.56 C 154.4,144.58 154.07,144.58 153.75,144.59 C 153.23,144.61 152.7,144.63 152.41,144.59 C 152.37,144.59 152.34,144.6 152.31,144.59 C 152.29,144.59 152.26,144.56 152.25,144.56 C 152.23,144.56 152.21,144.56 152.19,144.56 C 152.16,144.56 152.13,144.56 152.09,144.56 C 151.8,144.57 151.38,144.56 151.06,144.53 C 150.87,144.52 150.71,144.51 150.59,144.5 C 150.56,144.5 150.55,144.5 150.53,144.5 C 150.51,144.5 150.48,144.5 150.47,144.5 C 150.44,144.5 150.45,144.52 150.44,144.53 C 150.42,144.54 150.38,144.53 150.34,144.53 C 150.29,144.54 150.24,144.56 150.13,144.56 C 149.93,144.57 149.62,144.59 149.31,144.59 C 149.0,144.6 148.66,144.58 148.41,144.59 C 148.15,144.6 147.98,144.63 147.94,144.66 C 147.42,144.67 147.06,144.67 146.81,144.69 C 146.62,144.7 146.49,144.71 146.41,144.72 C 146.37,144.72 146.33,144.72 146.31,144.72 C 146.3,144.72 146.29,144.72 146.28,144.72 C 146.26,144.71 146.28,144.71 146.28,144.69 C 146.28,144.68 146.29,144.68 146.31,144.66 C 146.33,144.64 146.37,144.61 146.41,144.59 C 146.6,144.48 146.83,144.41 147.09,144.34 C 147.75,144.18 148.57,144.11 149.25,144.06 C 149.76,144.03 150.21,144.01 150.53,144.0 C 150.69,143.99 150.8,143.99 150.88,144.0 C 150.95,144.01 150.98,144.01 151.0,144.03 C 151.03,144.07 151.03,144.08 151.03,144.09 C 151.04,144.11 151.08,144.12 151.09,144.13 C 151.11,144.13 151.11,144.14 151.13,144.13 C 151.14,144.11 151.16,144.08 151.19,144.06 C 151.24,144.02 151.33,143.96 151.44,143.91 C 151.55,143.86 151.69,143.83 151.81,143.81 C 151.9,143.8 152.0,143.8 152.06,143.81 C 152.13,143.83 152.15,143.87 152.22,143.81 C 152.22,143.81 152.24,143.79 152.25,143.78 C 152.26,143.78 152.27,143.79 152.28,143.78 C 152.31,143.76 152.32,143.73 152.34,143.72 C 152.39,143.69 152.45,143.67 152.5,143.66 C 152.55,143.64 152.63,143.63 152.69,143.63 C 152.74,143.62 152.79,143.62 152.88,143.63 C 153.04,143.64 153.29,143.69 153.47,143.72 C 153.64,143.75 153.74,143.77 153.84,143.78 C 154.05,143.79 154.28,143.72 154.5,143.66 C 154.56,143.64 154.63,143.6 154.69,143.59 z M 145.69,144.34 C 145.75,144.36 145.73,144.4 145.66,144.47 C 145.52,144.6 145.16,144.78 144.84,144.84 C 144.52,144.91 144.36,144.88 144.5,144.75 C 144.64,144.62 145.02,144.45 145.34,144.38 C 145.51,144.34 145.63,144.32 145.69,144.34 z M 151.06,145.94 C 151.22,145.94 151.34,145.97 151.34,146.0 C 151.34,146.02 151.26,146.05 151.13,146.09 C 150.97,146.14 150.75,146.19 150.5,146.25 C 150.12,146.33 149.66,146.42 149.25,146.5 C 147.44,146.84 146.36,146.94 144.81,147.72 C 143.9,148.17 142.82,148.88 142.16,149.28 C 141.96,149.4 141.8,149.48 141.69,149.53 C 141.6,149.58 141.57,149.61 141.56,149.59 C 141.55,149.58 141.57,149.53 141.63,149.47 C 141.71,149.37 141.86,149.24 142.06,149.06 C 142.63,148.57 143.58,147.82 144.41,147.31 C 145.99,146.34 147.14,146.18 149.13,146.03 C 149.56,146.0 150.04,145.99 150.44,145.97 C 150.69,145.96 150.9,145.93 151.06,145.94 z M 136.69,146.59 C 136.72,146.59 136.76,146.61 136.78,146.63 C 136.86,146.68 136.85,146.87 136.75,147.13 C 136.64,147.4 136.45,147.75 136.19,148.13 C 135.97,148.44 135.75,148.71 135.56,148.91 C 135.47,149.01 135.39,149.09 135.31,149.16 C 135.18,149.27 135.09,149.32 135.03,149.31 C 134.99,149.31 134.95,149.27 134.97,149.19 C 134.98,149.14 135.0,149.08 135.03,149.0 C 135.05,148.95 135.09,148.88 135.13,148.81 C 135.61,147.86 136.0,147.19 136.31,146.84 C 136.46,146.68 136.59,146.6 136.69,146.59 z M 151.0,147.22 C 151.45,147.22 151.84,147.3 152.13,147.44 C 153.15,147.92 155.15,148.24 155.41,147.97 C 155.51,147.85 156.46,148.38 156.47,148.56 C 156.47,148.66 156.64,148.81 156.84,148.88 C 157.14,148.97 157.3,149.18 157.63,149.91 C 158.33,151.49 158.31,151.6 156.69,152.84 C 155.18,154.0 153.65,154.67 151.53,155.16 C 148.97,155.74 145.14,155.8 143.56,155.28 C 142.27,154.85 141.71,154.27 141.72,153.38 C 141.73,152.4 142.23,150.88 142.78,150.19 C 143.17,149.71 143.47,149.53 144.66,149.03 C 147.56,147.82 149.65,147.21 151.0,147.22 z M 160.34,153.59 C 160.38,153.59 160.4,153.6 160.44,153.63 C 160.53,153.69 160.57,153.75 160.63,153.84 C 160.67,153.92 160.74,153.99 160.78,154.06 C 160.84,154.16 160.89,154.28 160.94,154.38 C 161.04,154.56 161.14,154.63 161.13,154.88 C 161.12,154.98 161.08,155.06 161.03,155.16 C 160.96,155.29 160.88,155.43 160.81,155.56 C 160.4,156.38 160.02,157.22 159.66,158.06 C 159.45,158.53 159.28,158.98 159.03,159.44 C 158.92,159.65 158.76,159.9 158.56,160.06 C 158.41,160.19 158.24,160.22 158.06,160.25 C 157.67,160.31 157.27,160.34 156.88,160.38 C 156.56,160.4 156.22,160.42 155.91,160.44 C 154.88,160.5 153.84,160.55 152.81,160.63 C 152.43,160.65 152.07,160.69 151.69,160.72 C 151.51,160.73 151.33,160.74 151.16,160.75 C 151.09,160.76 151.04,160.78 150.97,160.75 C 150.8,160.69 150.8,160.47 150.97,160.41 C 151.15,160.34 152.41,159.96 152.59,159.91 C 152.86,159.84 153.11,159.79 153.38,159.72 C 153.7,159.62 154.03,159.51 154.34,159.38 C 155.03,159.09 155.71,158.75 156.34,158.38 C 156.5,158.28 157.69,157.58 157.59,157.28 C 157.57,157.21 157.49,157.19 157.44,157.19 C 157.22,157.18 157.06,157.29 156.88,157.38 L 156.63,157.47 C 156.64,157.45 156.65,157.43 156.66,157.41 C 156.68,157.37 156.7,157.32 156.72,157.28 C 156.76,157.2 156.8,157.14 156.84,157.06 C 156.89,156.98 156.94,156.89 157.0,156.81 C 157.09,156.69 157.18,156.58 157.28,156.47 C 157.48,156.24 157.7,156.03 157.91,155.81 C 158.02,155.7 158.13,155.58 158.25,155.47 C 158.28,155.44 158.3,155.42 158.34,155.41 C 158.39,155.4 158.43,155.4 158.47,155.44 C 158.56,155.51 158.51,155.6 158.53,155.69 C 158.57,155.86 158.73,155.99 158.91,156.0 C 159.1,156.01 159.25,155.97 159.41,155.88 C 159.62,155.75 160.08,155.42 160.22,155.19 C 160.39,154.88 160.11,154.71 159.84,154.66 C 159.7,154.63 159.59,154.65 159.47,154.72 C 159.33,154.79 159.17,154.67 159.25,154.53 C 159.28,154.47 159.33,154.42 159.38,154.38 C 159.42,154.34 159.46,154.32 159.5,154.28 C 159.57,154.21 159.64,154.13 159.72,154.06 C 159.83,153.96 159.94,153.85 160.06,153.75 C 160.13,153.69 160.24,153.6 160.34,153.59 z M 153.88,155.34 C 153.96,155.34 154.01,155.33 154.03,155.34 C 154.35,155.55 153.62,156.15 152.69,156.53 C 152.48,156.62 152.28,156.67 152.09,156.72 C 151.92,156.77 151.78,156.82 151.66,156.84 C 151.08,156.96 150.74,156.91 150.59,156.72 C 150.39,156.46 150.42,156.37 151.28,156.06 C 151.5,155.99 151.76,155.9 152.03,155.81 C 152.24,155.74 152.36,155.7 152.5,155.66 C 153.09,155.48 153.62,155.37 153.88,155.34 z M 154.06,157.25 C 154.24,157.19 154.34,157.24 154.31,157.41 C 154.25,157.73 153.75,158.14 153.22,158.31 C 152.63,158.49 152.69,158.26 153.34,157.72 C 153.64,157.48 153.89,157.31 154.06,157.25 z M 154.69,161.78 C 154.9,161.76 155.35,161.77 156.19,161.78 C 156.86,161.79 157.41,161.85 157.41,161.94 C 157.4,162.03 157.48,162.06 157.59,161.97 C 157.71,161.88 157.96,161.83 158.13,161.88 C 158.37,161.94 158.61,162.28 158.41,162.41 C 158.27,162.49 157.93,162.51 157.69,162.44 C 157.44,162.37 156.83,162.37 156.34,162.44 C 155.82,162.51 155.45,162.48 155.41,162.34 C 155.36,162.2 155.26,162.21 155.19,162.34 C 155.1,162.5 154.38,162.61 151.91,162.78 C 151.27,162.83 150.51,162.85 149.63,162.91 C 148.87,162.95 148.36,162.95 148.06,162.91 C 147.7,162.85 147.65,162.73 148.0,162.59 C 148.12,162.55 148.31,162.52 148.53,162.47 C 148.53,162.47 148.53,162.44 148.53,162.44 C 148.74,162.39 148.99,162.36 149.28,162.31 C 151.39,161.95 153.56,161.77 153.94,161.94 C 154.12,162.02 154.21,162.05 154.16,161.97 C 154.1,161.89 154.27,161.87 154.5,161.94 C 154.73,162.0 154.8,162.01 154.66,161.94 C 154.5,161.86 154.47,161.8 154.69,161.78 z M 163.5,162.28 C 164.07,162.25 164.84,162.27 165.63,162.38 C 166.49,162.49 167.22,162.64 167.28,162.72 C 167.34,162.79 168.3,163.01 169.38,163.22 C 169.83,163.3 170.31,163.38 170.97,163.5 C 171.22,163.56 171.62,163.66 171.59,163.72 C 171.58,163.77 171.26,163.8 171.03,163.81 C 170.8,163.82 170.64,163.84 170.47,163.81 C 169.5,163.58 167.81,163.29 166.5,163.16 C 162.8,162.76 162.52,162.7 162.53,162.53 C 162.54,162.38 162.93,162.31 163.5,162.28 z M 153.88,164.47 C 154.5,164.42 154.73,164.45 154.53,164.56 C 154.36,164.66 154.07,164.73 153.88,164.72 C 153.67,164.71 153.05,164.77 152.5,164.84 C 151.96,164.92 151.47,164.92 151.44,164.88 C 151.4,164.83 151.31,164.85 151.22,164.91 C 150.92,165.11 148.4,165.39 148.41,165.22 C 148.41,165.13 148.36,165.17 148.34,165.22 C 148.32,165.28 148.27,165.42 147.78,165.34 C 147.75,165.34 147.72,165.32 147.72,165.28 C 147.71,165.25 147.74,165.18 147.84,165.13 C 147.95,165.07 148.14,165.04 148.28,165.0 C 148.43,164.96 148.52,164.95 148.59,164.94 C 148.7,164.92 148.77,164.89 148.94,164.88 C 149.08,164.86 149.28,164.84 149.5,164.81 C 150.94,164.66 152.6,164.57 152.66,164.56 C 152.74,164.56 153.33,164.51 153.88,164.47 z M 155.78,171.47 C 155.82,171.46 155.84,171.48 155.88,171.5 C 156.04,171.62 155.78,172.28 155.28,173.0 C 154.48,174.15 153.74,174.63 154.22,173.69 C 154.91,172.31 155.48,171.53 155.78,171.47 z"
		 />
		 <path style="fill:#f00;stroke:none;"
		 d="M 154.84,142.05 C 154.88,142.24 154.95,142.39 155.07,142.54 C 155.08,142.55 155.08,142.56 155.09,142.57 C 155.1,142.58 155.1,142.58 155.11,142.59 C 155.11,142.59 155.1,142.59 155.1,142.59 C 155.08,142.59 155.07,142.59 155.05,142.59 C 155.02,142.59 154.99,142.59 154.96,142.59 C 154.9,142.6 154.84,142.6 154.78,142.61 C 154.47,142.64 154.16,142.67 153.85,142.71 C 152.99,142.82 152.89,142.91 152.0,142.92 C 151.94,142.92 151.88,142.92 151.82,142.92 C 151.81,142.92 151.79,142.92 151.78,142.92 C 151.77,142.92 151.76,142.92 151.76,142.92 C 151.74,142.92 151.76,142.88 151.76,142.87 C 151.77,142.82 151.78,142.77 151.77,142.72 C 151.77,142.69 151.76,142.66 151.75,142.64 C 151.75,142.62 151.77,142.63 151.77,142.63 C 151.89,142.64 152.02,142.64 152.14,142.64 C 152.45,142.63 152.76,142.6 153.06,142.55 C 153.37,142.5 153.68,142.44 153.98,142.37 C 154.19,142.32 154.66,142.24 154.84,142.05 z M 146.82,161.35 C 146.83,161.29 146.83,161.23 146.81,161.16 C 146.81,161.15 146.79,161.13 146.8,161.13 C 146.81,161.13 146.81,161.13 146.82,161.13 C 146.83,161.13 146.84,161.13 146.85,161.13 C 146.88,161.12 146.92,161.12 146.95,161.12 C 147.02,161.11 147.1,161.1 147.17,161.09 C 147.31,161.07 147.45,161.04 147.6,161.01 C 147.93,160.94 148.27,160.85 148.6,160.78 C 148.94,160.71 149.28,160.66 149.62,160.62 C 149.78,160.6 149.94,160.58 150.1,160.55 C 150.18,160.54 150.26,160.53 150.34,160.52 C 150.38,160.51 150.42,160.5 150.46,160.49 C 150.48,160.49 150.5,160.49 150.52,160.48 C 150.53,160.48 150.54,160.48 150.55,160.48 C 150.56,160.48 150.56,160.48 150.56,160.48 C 150.55,160.49 150.55,160.5 150.55,160.51 C 150.55,160.53 150.55,160.55 150.55,160.57 C 150.54,160.63 150.55,160.68 150.57,160.74 C 150.58,160.77 150.6,160.79 150.61,160.82 C 150.62,160.83 150.64,160.84 150.62,160.84 C 150.62,160.84 150.61,160.84 150.61,160.84 C 150.57,160.85 150.54,160.86 150.51,160.86 C 150.44,160.88 150.37,160.89 150.3,160.9 C 150.17,160.93 150.03,160.96 149.9,160.99 C 149.56,161.06 149.23,161.14 148.88,161.18 C 148.2,161.28 147.51,161.25 146.82,161.35 z M 162.01,152.7 C 162.06,152.91 162.23,153.08 162.44,153.13 C 162.47,153.13 162.5,153.14 162.52,153.14 C 162.53,153.14 162.54,153.14 162.54,153.14 C 162.53,153.15 162.53,153.15 162.53,153.15 C 162.53,153.16 162.52,153.16 162.52,153.17 C 162.51,153.18 162.49,153.2 162.48,153.22 C 162.45,153.26 162.42,153.3 162.39,153.34 C 162.33,153.41 162.27,153.49 162.21,153.56 C 161.95,153.89 161.68,154.21 161.43,154.55 C 161.41,154.57 161.4,154.59 161.38,154.62 C 161.37,154.63 161.37,154.6 161.36,154.59 C 161.36,154.57 161.35,154.55 161.34,154.53 C 161.32,154.45 161.28,154.38 161.24,154.32 C 161.2,154.26 161.17,154.2 161.14,154.14 C 161.1,154.07 161.06,153.99 161.01,153.92 C 161.0,153.9 160.99,153.88 160.98,153.86 C 160.97,153.85 160.95,153.84 160.97,153.83 C 160.98,153.82 160.99,153.81 161.01,153.79 C 161.06,153.74 161.11,153.69 161.17,153.64 C 161.47,153.35 161.75,153.04 162.01,152.7 z M 139.17,148.88 C 139.09,148.76 139.0,148.7 138.86,148.67 C 138.83,148.66 138.8,148.65 138.76,148.65 C 138.76,148.65 138.74,148.65 138.75,148.64 C 138.75,148.64 138.75,148.63 138.76,148.63 C 138.77,148.6 138.78,148.58 138.79,148.56 C 138.89,148.38 138.98,148.21 139.08,148.03 C 139.27,147.67 139.45,147.31 139.64,146.95 C 139.64,146.94 139.64,146.94 139.64,146.93 C 139.65,146.91 139.66,146.94 139.67,146.95 C 139.69,146.98 139.71,147.0 139.74,147.03 C 139.78,147.07 139.84,147.1 139.9,147.13 C 139.93,147.14 139.96,147.15 140.0,147.16 C 140.0,147.16 140.01,147.16 140.02,147.16 C 140.03,147.16 140.05,147.15 140.04,147.17 C 140.04,147.17 140.03,147.18 140.03,147.18 C 140.02,147.21 140.0,147.23 139.99,147.25 C 139.88,147.42 139.78,147.6 139.69,147.78 C 139.51,148.14 139.35,148.52 139.17,148.88 z"
		 />

		<!-- Prism Reference -->
		<cam mingh:cam="--verb EditSelectAll --verb ZoomSelection --verb FileSave " /> 
	 </g>

</svg>
