<svg
   xmlns:xlink="http://www.w3.org/1999/xlink"
   xmlns:svg="http://www.w3.org/2000/svg"
   xmlns="http://www.w3.org/2000/svg"
   xmlns:mingh="http://www.minghworld.com"
   width="300px"
   height="300px" >
	
	 <g>
		
		<!-- Paths -->
		<path style="fill:none;stroke:#000;stroke-width:0.25px;"
		 d="M 146.53,126.44 C 146.0,126.4 145.44,126.46 144.94,126.63 C 144.43,126.79 143.97,127.09 143.56,127.44 C 143.16,127.79 142.83,128.21 142.59,128.69 C 142.35,129.16 142.19,129.69 142.16,130.22 C 142.12,130.75 142.21,131.28 142.38,131.78 C 142.54,132.29 142.81,132.78 143.16,133.19 C 143.38,133.45 143.62,133.65 143.91,133.84 C 144.02,133.92 143.98,134.12 143.84,134.13 C 142.15,134.16 140.46,134.3 138.84,134.59 C 138.73,134.62 138.64,134.53 138.66,134.41 C 138.66,134.35 138.68,134.28 138.69,134.22 C 138.7,134.11 138.64,133.98 138.56,133.91 C 138.49,133.83 138.38,133.82 138.28,133.84 C 137.71,133.98 137.15,134.14 136.59,134.31 C 136.37,134.37 136.16,134.57 136.09,134.81 C 135.31,137.41 134.81,140.11 134.72,142.59 C 134.7,142.83 134.88,143.07 135.09,143.13 C 135.46,143.24 135.83,143.37 136.19,143.5 C 136.29,143.54 136.43,143.52 136.53,143.47 C 136.63,143.41 136.72,143.33 136.75,143.22 C 136.77,143.14 136.79,143.08 136.81,143.0 C 136.84,142.9 136.94,142.84 137.03,142.88 C 137.83,143.18 138.6,143.52 139.38,143.91 C 139.45,143.94 139.49,144.01 139.47,144.09 C 139.42,144.3 139.39,144.48 139.34,144.66 C 139.18,145.34 139.06,145.83 138.91,146.31 C 138.71,146.95 138.46,147.6 138.03,148.19 C 137.61,148.78 136.99,149.32 136.34,149.91 C 135.7,150.49 135.02,151.11 134.44,151.81 C 133.85,152.52 133.38,153.29 132.91,154.22 C 132.44,155.14 132.01,156.2 131.66,157.19 C 131.65,157.21 131.64,157.23 131.63,157.25 C 131.16,157.84 130.64,158.46 130.5,159.19 C 130.4,159.68 130.48,160.2 130.69,160.66 C 130.94,161.2 131.41,161.64 131.75,162.13 C 132.27,162.86 132.49,163.71 132.75,164.59 C 133.01,165.45 133.3,166.35 133.5,167.22 C 133.57,167.51 133.61,167.8 133.66,168.09 C 133.66,168.11 133.66,168.11 133.66,168.13 C 133.65,168.16 133.66,168.19 133.66,168.22 C 133.66,168.42 133.76,168.59 133.91,168.78 C 134.06,168.98 134.26,169.23 134.5,169.41 C 134.86,169.67 135.34,169.83 135.53,169.81 C 135.54,169.81 135.56,169.81 135.56,169.81 C 135.61,169.8 135.65,169.78 135.69,169.75 C 135.72,169.72 135.76,169.71 135.78,169.75 C 135.86,169.88 135.94,170.01 136.03,170.13 C 137.2,171.61 139.2,172.61 141.09,172.66 C 141.25,172.66 141.41,172.67 141.56,172.66 C 141.6,172.65 141.63,172.68 141.63,172.72 C 141.62,172.77 141.64,172.83 141.66,172.88 C 141.66,172.88 141.68,172.87 141.69,172.88 C 141.78,173.04 142.19,173.34 142.63,173.47 C 142.91,173.56 143.22,173.56 143.47,173.56 C 143.71,173.56 143.9,173.55 144.06,173.44 C 144.09,173.42 144.1,173.4 144.13,173.38 C 144.14,173.36 144.14,173.35 144.16,173.34 C 144.42,173.21 144.69,173.09 144.97,172.97 C 145.79,172.6 146.66,172.31 147.5,172.0 C 148.37,171.68 149.2,171.34 150.09,171.31 C 150.68,171.3 151.32,171.43 151.91,171.31 C 152.4,171.21 152.85,170.93 153.19,170.56 C 153.69,170.01 153.87,169.23 154.06,168.5 C 154.07,168.48 154.08,168.49 154.09,168.47 C 154.68,167.59 155.26,166.58 155.72,165.66 C 156.18,164.72 156.54,163.89 156.75,163.0 C 156.96,162.11 157.04,161.18 157.13,160.31 C 157.21,159.45 157.28,158.63 157.5,157.94 C 157.72,157.24 158.08,156.7 158.47,156.16 C 158.77,155.74 159.09,155.32 159.53,154.78 C 159.64,154.64 159.77,154.5 159.91,154.34 C 159.96,154.28 160.05,154.28 160.13,154.31 C 160.9,154.7 161.62,155.1 162.34,155.56 C 162.43,155.62 162.47,155.73 162.41,155.81 C 162.36,155.88 162.3,155.94 162.25,156.0 C 162.18,156.1 162.17,156.23 162.19,156.34 C 162.2,156.46 162.25,156.57 162.34,156.63 C 162.66,156.83 163.0,157.06 163.31,157.28 C 163.48,157.42 163.79,157.41 163.97,157.25 C 165.91,155.69 167.76,153.71 169.38,151.53 C 169.53,151.34 169.58,151.03 169.5,150.81 C 169.3,150.26 169.08,149.7 168.84,149.16 C 168.8,149.06 168.73,148.98 168.63,148.97 C 168.52,148.95 168.39,149.01 168.31,149.09 C 168.27,149.13 168.23,149.18 168.19,149.22 C 168.1,149.3 167.96,149.26 167.91,149.16 C 166.68,146.69 165.03,144.32 163.13,142.19 C 163.07,142.12 163.07,142.01 163.13,141.94 C 163.18,141.87 163.23,141.81 163.28,141.75 C 163.44,141.59 163.42,141.25 163.25,141.09 C 162.76,140.57 162.24,140.05 161.72,139.56 C 161.64,139.49 161.55,139.46 161.44,139.47 C 161.34,139.48 161.25,139.55 161.19,139.63 C 161.17,139.64 161.15,139.64 161.13,139.66 C 160.26,140.16 159.7,140.2 159.16,140.16 C 157.82,140.06 156.57,139.5 155.38,138.91 C 153.84,138.15 152.41,137.36 151.47,136.38 C 151.23,136.12 151.01,135.84 150.84,135.5 C 150.69,135.19 150.59,134.82 150.53,134.34 C 150.53,134.32 150.52,134.3 150.53,134.28 C 150.56,134.19 150.55,134.09 150.5,134.0 C 150.44,133.9 150.33,133.83 150.22,133.81 C 149.87,133.75 149.54,133.68 149.19,133.63 C 149.07,133.61 149.01,133.49 149.09,133.41 C 149.4,133.1 149.68,132.74 149.88,132.34 C 150.11,131.87 150.24,131.34 150.28,130.81 C 150.32,130.28 150.26,129.72 150.09,129.22 C 149.93,128.71 149.66,128.25 149.31,127.84 C 148.96,127.44 148.54,127.11 148.06,126.88 C 147.59,126.64 147.06,126.48 146.53,126.44 z M 146.22,128.56 C 146.47,128.56 146.73,128.62 146.97,128.72 C 147.2,128.82 147.41,128.94 147.59,129.13 C 147.77,129.31 147.93,129.51 148.03,129.75 C 148.13,129.99 148.19,130.24 148.19,130.5 C 148.19,130.76 148.13,131.01 148.03,131.25 C 147.93,131.49 147.77,131.69 147.59,131.88 C 147.41,132.06 147.2,132.21 146.97,132.31 C 146.73,132.41 146.47,132.47 146.22,132.47 C 145.96,132.47 145.7,132.41 145.47,132.31 C 145.23,132.21 145.02,132.06 144.84,131.88 C 144.66,131.69 144.54,131.49 144.44,131.25 C 144.34,131.01 144.28,130.76 144.28,130.5 C 144.28,130.24 144.34,129.99 144.44,129.75 C 144.54,129.51 144.66,129.31 144.84,129.13 C 145.02,128.94 145.23,128.82 145.47,128.72 C 145.7,128.62 145.96,128.56 146.22,128.56 z M 144.03,154.66 C 144.21,154.62 144.39,154.63 144.56,154.66 C 144.85,154.69 145.14,154.8 145.38,154.97 C 145.6,155.12 145.78,155.32 145.91,155.56 C 146.0,155.75 146.07,155.97 146.06,156.19 C 146.06,156.25 146.07,156.31 146.06,156.38 C 146.05,156.43 146.12,156.44 146.16,156.41 C 146.2,156.36 146.23,156.32 146.28,156.28 C 146.45,156.15 146.67,156.07 146.88,156.03 C 147.15,155.99 147.43,156.04 147.69,156.13 C 147.96,156.22 148.2,156.35 148.41,156.56 C 148.65,156.82 148.83,157.15 148.88,157.5 C 148.92,157.87 148.83,158.25 148.66,158.56 C 148.48,158.89 148.22,159.13 147.94,159.34 C 147.27,159.85 146.44,160.16 145.63,160.41 C 145.09,160.57 144.55,160.71 144.0,160.81 C 143.92,160.83 143.85,160.79 143.81,160.72 C 143.56,160.22 143.35,159.69 143.16,159.16 C 142.87,158.35 142.62,157.52 142.63,156.69 C 142.63,156.33 142.69,155.99 142.84,155.66 C 142.99,155.33 143.24,155.03 143.56,154.84 C 143.71,154.76 143.86,154.69 144.03,154.66 z"
		 />
		 <path style="fill:#f00;stroke:none;"
		 d="M 148.19,132.97 C 148.06,132.95 147.91,132.97 147.78,133.0 C 147.66,133.03 147.54,133.08 147.44,133.16 C 147.34,133.23 147.26,133.3 147.19,133.41 C 147.13,133.49 147.09,133.59 147.06,133.69 C 147.0,133.68 146.94,133.69 146.88,133.69 C 146.84,133.86 146.78,134.03 146.72,134.19 C 146.96,134.2 147.2,134.23 147.44,134.25 C 147.45,134.25 147.46,134.25 147.47,134.25 C 147.51,134.12 147.54,133.99 147.56,133.88 C 147.59,133.65 147.87,133.46 148.09,133.5 C 148.29,133.52 148.49,133.54 148.69,133.56 C 148.72,133.53 148.78,133.5 148.81,133.47 C 148.95,133.35 149.07,133.23 149.19,133.09 C 148.85,133.05 148.53,133.01 148.19,132.97 z M 146.69,134.34 C 146.64,134.5 146.59,134.66 146.53,134.81 C 146.46,135.02 146.36,135.23 146.28,135.44 C 146.2,135.64 146.15,135.84 146.06,136.03 C 145.97,136.24 145.85,136.42 145.75,136.63 C 145.66,136.8 145.57,136.99 145.47,137.16 C 145.38,137.31 145.29,137.45 145.19,137.59 C 145.09,137.74 144.98,137.89 144.88,138.03 C 144.51,138.53 144.14,139.0 143.72,139.47 C 143.28,139.96 142.79,140.43 142.31,140.88 C 141.82,141.33 141.31,141.77 140.78,142.19 C 140.25,142.6 139.72,143.01 139.16,143.38 C 139.08,143.43 138.99,143.47 138.94,143.53 C 139.15,143.63 139.38,143.74 139.59,143.84 C 139.62,143.86 139.64,143.86 139.66,143.88 C 141.95,142.39 144.01,140.43 145.47,138.44 C 145.9,137.84 146.27,137.26 146.69,136.31 C 146.95,135.72 147.23,135.0 147.41,134.41 C 147.17,134.38 146.93,134.36 146.69,134.34 z M 139.5,134.63 C 139.19,134.67 138.9,134.72 138.59,134.78 C 138.22,137.45 137.64,140.15 136.91,142.66 C 137.18,142.76 137.44,142.89 137.72,143.0 C 137.73,142.98 137.74,142.96 137.75,142.94 C 137.89,142.48 138.0,142.0 138.13,141.53 C 138.25,141.07 138.39,140.59 138.5,140.13 C 138.73,139.17 138.92,138.21 139.09,137.25 C 139.18,136.77 139.27,136.3 139.34,135.81 C 139.41,135.42 139.45,135.02 139.5,134.63 z M 150.41,134.63 C 150.1,135.5 149.72,136.35 149.25,137.16 C 148.41,138.6 147.39,139.79 146.13,140.88 C 144.83,141.99 143.3,142.97 141.66,143.5 C 141.25,143.63 140.85,143.73 140.44,143.81 C 140.23,143.85 140.02,143.91 139.81,143.94 C 139.79,143.94 139.74,143.93 139.72,143.94 C 139.71,143.94 139.7,143.94 139.69,143.94 C 139.68,143.94 139.66,143.92 139.66,143.94 C 139.66,143.98 139.64,144.02 139.63,144.06 C 139.6,144.14 139.58,144.23 139.56,144.31 C 139.54,144.39 139.52,144.48 139.5,144.56 L 139.5,144.63 C 139.5,144.64 139.47,144.69 139.5,144.69 C 139.54,144.69 139.59,144.66 139.63,144.66 C 139.79,144.64 139.96,144.62 140.13,144.59 C 140.46,144.54 140.8,144.46 141.13,144.38 C 142.68,143.99 144.01,143.32 145.31,142.41 C 145.47,142.3 145.63,142.18 145.78,142.06 C 145.82,142.03 145.87,142.03 145.91,142.0 C 145.93,141.99 145.95,141.95 145.97,141.94 C 145.97,141.93 146.0,141.94 146.0,141.94 C 146.03,142.04 146.1,142.13 146.16,142.22 C 146.38,142.59 146.76,142.82 147.19,142.88 C 147.41,142.9 147.6,142.88 147.81,142.81 C 147.92,142.78 148.0,142.74 148.09,142.69 C 148.14,142.66 148.18,142.63 148.22,142.59 C 148.24,142.58 148.26,142.58 148.28,142.56 C 148.3,142.55 148.29,142.59 148.28,142.59 C 148.27,142.6 148.26,142.61 148.25,142.63 C 148.01,142.99 147.95,143.43 148.09,143.84 C 148.37,144.66 149.32,145.07 150.09,144.69 C 150.28,144.6 150.4,144.47 150.53,144.31 C 150.54,144.3 150.56,144.32 150.56,144.31 C 150.55,144.33 150.54,144.35 150.53,144.38 C 150.51,144.42 150.48,144.49 150.47,144.53 C 150.44,144.63 150.44,144.71 150.44,144.81 C 150.41,145.24 150.56,145.65 150.88,145.94 C 151.5,146.53 152.49,146.44 153.0,145.75 C 153.02,145.72 153.07,145.69 153.09,145.66 C 153.07,145.75 153.09,145.84 153.09,145.94 C 153.09,146.15 153.13,146.34 153.22,146.53 C 153.39,146.91 153.73,147.2 154.13,147.31 C 154.54,147.43 154.96,147.37 155.31,147.13 C 155.5,147.0 155.64,146.82 155.75,146.63 C 155.79,146.55 155.85,146.51 155.88,146.44 C 155.87,146.46 155.87,146.47 155.88,146.5 C 155.88,146.55 155.9,146.6 155.91,146.66 C 155.97,147.08 156.2,147.47 156.56,147.69 C 156.75,147.8 156.97,147.85 157.19,147.88 C 157.29,147.88 157.39,147.89 157.5,147.88 C 157.55,147.87 157.61,147.86 157.66,147.84 C 157.68,147.84 157.69,147.82 157.72,147.81 C 157.73,147.81 157.74,147.82 157.75,147.81 C 157.77,147.81 157.75,147.83 157.75,147.84 C 157.72,149.42 157.91,150.9 158.41,152.41 C 158.63,153.07 158.89,153.7 159.22,154.31 C 159.26,154.39 159.3,154.46 159.34,154.53 C 159.36,154.57 159.38,154.59 159.41,154.63 C 159.41,154.64 159.42,154.71 159.44,154.69 L 159.5,154.63 C 159.61,154.49 159.7,154.35 159.81,154.22 C 159.84,154.18 159.87,154.16 159.91,154.13 C 159.91,154.12 159.95,154.11 159.94,154.09 C 159.93,154.08 159.91,154.07 159.91,154.06 C 159.89,154.04 159.89,154.02 159.88,154.0 C 159.82,153.91 159.77,153.81 159.72,153.72 C 159.62,153.53 159.52,153.32 159.44,153.13 C 158.71,151.48 158.44,149.72 158.47,147.94 C 158.49,146.3 158.74,144.76 159.28,143.22 C 159.56,142.41 159.92,141.65 160.34,140.91 C 160.46,140.7 160.59,140.51 160.72,140.31 C 160.78,140.21 160.84,140.1 160.91,140.0 C 160.92,139.97 160.95,139.96 160.97,139.94 C 160.97,139.93 160.98,139.9 160.97,139.91 C 160.96,139.91 160.95,139.9 160.94,139.91 C 160.9,139.92 160.88,139.95 160.84,139.97 C 160.54,140.11 160.24,140.23 159.91,140.28 C 159.17,140.4 158.21,140.19 157.53,139.97 C 156.76,139.72 156.01,139.39 155.28,139.03 C 153.98,138.39 152.3,137.5 151.28,136.38 C 151.05,136.12 150.83,135.84 150.69,135.53 C 150.62,135.38 150.58,135.22 150.53,135.06 C 150.51,134.98 150.49,134.93 150.47,134.84 C 150.46,134.8 150.45,134.76 150.44,134.72 C 150.43,134.7 150.44,134.68 150.44,134.66 C 150.44,134.65 150.41,134.64 150.41,134.63 z M 148.91,138.97 C 150.4,140.73 152.24,142.09 154.41,142.91 C 155.49,143.32 156.6,143.57 157.75,143.69 C 157.88,143.7 158.03,143.71 158.16,143.72 C 158.22,143.72 158.28,143.75 158.34,143.75 C 158.35,143.75 158.37,143.75 158.38,143.75 C 158.37,143.77 158.38,143.76 158.38,143.78 C 158.36,143.82 158.35,143.87 158.34,143.91 C 158.26,144.19 158.19,144.46 158.13,144.75 C 158.06,145.04 158.02,145.33 157.97,145.63 C 157.96,145.7 157.95,145.77 157.94,145.84 C 157.93,145.86 157.91,145.89 157.91,145.91 C 157.9,145.92 157.88,145.91 157.88,145.91 C 157.84,145.9 157.82,145.91 157.78,145.91 C 157.64,145.9 157.48,145.89 157.34,145.88 C 155.06,145.67 152.85,144.91 150.91,143.69 C 149.93,143.07 149.06,142.39 148.25,141.56 C 148.06,141.36 147.87,141.15 147.69,140.94 C 147.64,140.89 147.58,140.83 147.53,140.78 C 147.51,140.75 147.49,140.71 147.47,140.69 C 147.46,140.67 147.45,140.67 147.44,140.66 C 147.42,140.63 147.46,140.64 147.47,140.63 C 147.57,140.52 147.68,140.42 147.78,140.31 C 148.18,139.89 148.56,139.43 148.91,138.97 z M 147.19,140.91 C 147.24,140.97 147.29,141.03 147.34,141.09 C 147.45,141.22 147.58,141.35 147.69,141.47 C 147.75,141.53 147.78,141.59 147.84,141.66 C 147.87,141.69 147.91,141.72 147.94,141.75 C 147.95,141.77 147.98,141.77 148.0,141.78 C 148.01,141.79 148.01,141.8 148.0,141.81 C 147.61,142.49 146.57,142.15 146.66,141.38 C 146.78,141.27 146.88,141.17 147.0,141.06 C 147.03,141.03 147.06,141.0 147.09,140.97 C 147.11,140.95 147.14,140.95 147.16,140.94 C 147.17,140.93 147.17,140.88 147.19,140.91 z M 162.94,142.19 C 162.57,142.69 162.16,143.34 161.84,143.91 C 161.33,144.81 161.09,145.48 160.88,146.19 C 160.15,148.55 159.79,151.37 159.97,154.09 C 159.99,154.09 160.03,154.11 160.06,154.13 C 160.27,154.23 160.48,154.33 160.69,154.44 C 160.7,154.36 160.69,154.28 160.69,154.19 C 160.64,153.51 160.64,152.83 160.66,152.16 C 160.67,151.48 160.71,150.79 160.78,150.13 C 160.85,149.47 160.96,148.83 161.09,148.19 C 161.22,147.58 161.35,146.97 161.53,146.38 C 161.58,146.21 161.66,146.04 161.72,145.88 C 161.78,145.71 161.84,145.54 161.91,145.38 C 161.98,145.19 162.04,145.02 162.13,144.84 C 162.23,144.64 162.36,144.45 162.47,144.25 C 162.57,144.06 162.67,143.87 162.78,143.69 C 162.9,143.5 163.03,143.31 163.16,143.13 C 163.25,142.99 163.34,142.85 163.44,142.72 C 163.28,142.54 163.1,142.37 162.94,142.19 z M 149.06,142.78 C 149.33,143.0 149.6,143.23 149.88,143.44 C 149.92,143.47 149.98,143.5 150.03,143.53 C 150.06,143.55 150.07,143.58 150.09,143.59 C 150.11,143.61 150.14,143.59 150.13,143.63 C 150.11,143.68 150.09,143.73 150.06,143.78 C 149.96,143.94 149.84,144.04 149.66,144.09 C 149.31,144.2 148.93,144.02 148.78,143.69 C 148.63,143.36 148.76,142.98 149.06,142.78 z M 151.34,144.41 C 151.37,144.38 151.39,144.4 151.41,144.41 C 151.43,144.42 151.47,144.42 151.5,144.44 C 151.55,144.47 151.6,144.5 151.66,144.53 C 151.96,144.69 152.28,144.86 152.59,145.0 C 152.55,145.36 152.24,145.62 151.88,145.63 C 151.51,145.63 151.22,145.39 151.16,145.03 C 151.13,144.84 151.15,144.69 151.25,144.53 C 151.28,144.48 151.3,144.45 151.34,144.41 z M 145.38,145.5 C 145.04,145.52 144.73,145.57 144.44,145.63 C 143.44,145.82 142.44,146.26 141.59,146.81 C 140.86,147.29 140.02,148.0 139.78,148.94 C 139.59,149.68 139.82,150.38 140.31,150.94 C 140.44,151.08 140.59,151.19 140.75,151.28 C 140.97,151.41 141.19,151.51 141.44,151.56 C 141.56,151.59 141.69,151.61 141.81,151.63 C 141.92,151.64 142.01,151.64 142.13,151.66 C 142.3,151.68 142.67,151.67 142.84,151.66 C 143.1,151.64 143.34,151.58 143.59,151.53 C 144.1,151.43 144.58,151.25 145.03,151.0 C 145.51,150.73 145.91,150.43 146.25,150.0 C 146.31,149.92 146.36,149.84 146.41,149.75 C 146.54,149.49 146.59,149.18 146.47,148.91 C 146.31,148.55 145.98,148.4 145.63,148.34 C 145.23,148.28 144.81,148.28 144.41,148.28 C 144.29,148.28 144.18,148.26 144.06,148.25 C 143.89,148.24 143.76,148.18 143.59,148.16 C 143.25,148.1 142.86,148.13 142.69,148.5 C 142.6,148.7 142.58,148.93 142.69,149.13 C 142.78,149.29 142.93,149.4 143.13,149.41 C 143.22,149.41 143.31,149.4 143.41,149.41 C 143.95,149.45 144.49,149.52 145.03,149.56 C 144.68,149.84 144.33,150.06 143.91,150.22 C 143.62,150.32 143.33,150.39 143.03,150.44 C 142.68,150.49 142.33,150.53 141.97,150.5 C 141.68,150.47 141.5,150.37 141.31,150.16 C 141.13,149.95 140.96,149.53 141.0,149.25 C 141.03,149.01 141.15,148.81 141.28,148.63 C 141.48,148.34 141.7,148.11 141.97,147.91 C 142.8,147.27 144.03,146.82 145.06,146.69 C 145.31,146.66 145.56,146.64 145.81,146.66 C 145.91,146.66 146.0,146.68 146.09,146.72 C 146.2,146.76 146.2,146.78 146.25,146.88 C 146.39,147.15 146.45,147.42 146.81,147.5 C 146.89,147.52 146.96,147.52 147.03,147.47 C 147.12,147.41 147.21,147.33 147.28,147.25 C 147.45,147.03 147.54,146.85 147.47,146.56 C 147.35,146.05 146.81,145.69 146.34,145.56 C 146.04,145.48 145.71,145.48 145.38,145.5 z M 153.91,145.53 C 153.93,145.5 153.95,145.52 153.97,145.53 C 154.0,145.54 154.03,145.55 154.06,145.56 C 154.12,145.58 154.19,145.61 154.25,145.63 C 154.58,145.73 154.88,145.8 155.22,145.88 C 155.24,146.23 155.01,146.58 154.66,146.66 C 154.3,146.73 153.97,146.53 153.84,146.19 C 153.78,146.01 153.78,145.86 153.84,145.69 C 153.86,145.63 153.87,145.58 153.91,145.53 z M 156.66,146.16 C 156.67,146.13 156.7,146.15 156.72,146.16 C 156.78,146.16 156.81,146.18 156.88,146.19 C 157.2,146.23 157.55,146.23 157.88,146.25 C 157.86,146.41 157.83,146.59 157.81,146.75 C 157.81,146.81 157.82,146.87 157.81,146.94 C 157.81,146.96 157.8,146.98 157.78,147.0 C 157.77,147.01 157.76,147.02 157.75,147.03 C 157.7,147.07 157.65,147.1 157.59,147.13 C 157.28,147.26 156.91,147.13 156.72,146.84 C 156.62,146.7 156.58,146.55 156.59,146.38 C 156.6,146.31 156.6,146.28 156.63,146.22 C 156.63,146.2 156.65,146.17 156.66,146.16 z M 149.31,147.5 C 149.22,147.51 149.13,147.54 149.03,147.59 C 148.9,147.67 148.81,147.79 148.72,147.91 C 148.69,147.95 148.65,147.98 148.63,148.03 C 148.51,148.24 148.54,148.39 148.63,148.59 C 148.79,148.97 149.38,148.96 149.69,148.84 C 149.88,148.77 150.04,148.62 150.13,148.44 C 150.21,148.25 150.22,148.04 150.03,147.91 C 149.96,147.69 149.87,147.53 149.63,147.5 C 149.52,147.49 149.41,147.49 149.31,147.5 z M 167.47,148.66 C 167.19,148.93 166.93,149.22 166.66,149.5 C 166.31,149.85 165.96,150.2 165.63,150.56 C 164.96,151.28 164.32,152.03 163.69,152.78 C 163.38,153.15 163.08,153.5 162.78,153.88 C 162.48,154.25 162.16,154.65 161.88,155.03 L 161.84,155.09 C 162.1,155.25 162.35,155.4 162.59,155.56 C 164.16,153.47 165.99,151.4 167.91,149.5 C 167.77,149.22 167.61,148.93 167.47,148.66 z M 156.22,149.25 C 156.16,149.25 156.09,149.26 156.03,149.28 C 155.66,149.43 155.47,149.92 155.31,150.22 C 154.44,151.42 153.56,152.61 152.69,153.81 C 152.4,154.21 152.09,154.6 151.84,155.03 C 151.71,155.27 151.64,155.47 151.72,155.75 C 151.77,155.94 151.88,156.1 152.06,156.19 C 152.37,156.33 152.62,156.16 152.81,155.94 C 152.93,155.8 153.02,155.66 153.09,155.5 C 153.12,155.44 153.16,155.4 153.19,155.34 C 153.2,155.32 153.2,155.28 153.22,155.25 C 153.6,154.61 154.03,154.01 154.47,153.41 C 154.9,152.81 155.35,152.23 155.78,151.63 C 156.11,151.17 156.45,150.71 156.78,150.25 C 156.8,150.22 156.83,150.19 156.84,150.16 C 156.93,150.01 156.91,149.9 156.84,149.75 C 156.8,149.64 156.74,149.55 156.66,149.47 C 156.53,149.34 156.39,149.25 156.22,149.25 z M 148.0,149.28 C 147.96,149.28 147.92,149.3 147.88,149.31 C 147.84,149.32 147.82,149.36 147.78,149.38 C 147.75,149.39 147.71,149.39 147.69,149.41 C 147.68,149.41 147.67,149.43 147.66,149.44 C 147.64,149.45 147.61,149.48 147.59,149.5 C 147.43,149.73 147.25,149.97 147.06,150.22 C 146.88,150.46 146.71,150.7 146.53,150.94 C 146.35,151.17 146.19,151.38 146.03,151.59 C 145.87,151.8 145.74,152.0 145.63,152.16 C 145.51,152.32 145.4,152.46 145.28,152.63 C 145.27,152.64 145.26,152.64 145.25,152.66 C 145.24,152.67 145.22,152.71 145.22,152.72 L 145.22,152.75 C 145.19,152.82 145.16,152.89 145.16,152.97 C 145.15,153.06 145.16,153.16 145.19,153.25 C 145.22,153.34 145.28,153.43 145.34,153.5 C 145.41,153.58 145.49,153.62 145.59,153.66 C 145.66,153.68 145.74,153.7 145.81,153.69 C 145.87,153.68 145.92,153.65 145.97,153.63 C 146.01,153.6 146.06,153.56 146.09,153.53 C 146.12,153.51 146.14,153.49 146.16,153.47 C 146.52,152.98 146.88,152.49 147.25,152.0 C 147.62,151.51 147.98,151.02 148.34,150.53 C 148.45,150.39 148.54,150.29 148.59,150.22 C 148.62,150.18 148.66,150.14 148.69,150.09 C 148.7,150.08 148.71,150.05 148.72,150.03 L 148.72,150.0 C 148.75,149.93 148.76,149.86 148.75,149.78 C 148.74,149.71 148.7,149.65 148.66,149.59 C 148.61,149.54 148.56,149.48 148.5,149.44 C 148.45,149.4 148.41,149.37 148.34,149.34 C 148.29,149.32 148.21,149.32 148.16,149.31 C 148.11,149.3 148.05,149.28 148.0,149.28 z M 150.47,149.91 C 150.39,149.9 150.3,149.92 150.22,149.97 C 149.99,150.11 149.78,150.5 149.69,150.72 C 149.67,150.76 149.67,150.8 149.66,150.84 C 149.64,150.89 149.59,150.93 149.56,150.97 C 149.51,151.05 149.46,151.11 149.41,151.19 C 149.29,151.36 149.18,151.55 149.06,151.72 C 148.67,152.31 148.26,152.87 147.88,153.47 C 147.78,153.6 147.72,153.74 147.72,153.91 C 147.71,154.1 147.78,154.26 147.94,154.38 C 148.08,154.48 148.29,154.53 148.47,154.5 C 148.69,154.46 148.78,154.34 148.88,154.16 C 148.94,154.03 149.01,153.88 149.06,153.75 C 149.08,153.72 149.17,153.62 149.19,153.59 C 149.23,153.53 149.27,153.47 149.31,153.41 C 149.4,153.29 149.47,153.18 149.56,153.06 C 149.73,152.84 149.9,152.63 150.06,152.41 C 150.08,152.38 150.12,152.33 150.16,152.31 C 150.18,152.3 150.2,152.29 150.22,152.28 C 150.27,152.25 150.32,152.22 150.38,152.19 C 150.48,152.13 150.57,152.08 150.69,152.03 C 150.91,151.93 151.13,151.84 151.38,151.81 C 151.48,151.8 151.59,151.79 151.69,151.81 C 151.73,151.82 151.78,151.83 151.81,151.84 C 151.83,151.85 151.81,151.86 151.81,151.88 C 151.82,151.94 151.83,152.03 151.84,152.09 C 151.89,152.3 152.0,152.41 152.16,152.53 C 152.31,152.64 152.44,152.68 152.63,152.63 C 152.77,152.58 152.87,152.49 152.97,152.38 C 153.01,152.32 153.04,152.28 153.06,152.22 C 153.12,152.07 153.14,151.94 153.13,151.78 C 153.08,151.37 152.87,151.14 152.56,150.91 C 152.25,150.67 151.97,150.62 151.59,150.66 C 151.47,150.67 151.37,150.69 151.25,150.72 C 151.19,150.73 151.12,150.76 151.06,150.78 C 151.03,150.79 151.0,150.8 150.97,150.81 C 150.97,150.81 150.97,150.79 150.97,150.78 C 151.02,150.63 151.04,150.5 151.0,150.34 C 150.96,150.16 150.85,150.05 150.69,149.97 C 150.62,149.93 150.55,149.91 150.47,149.91 z M 133.94,154.09 C 133.74,154.1 133.54,154.15 133.34,154.25 C 132.97,154.44 132.69,154.78 132.59,155.19 C 132.55,155.38 132.53,155.56 132.56,155.75 C 132.57,155.8 132.58,155.86 132.59,155.91 C 132.6,155.94 132.58,155.93 132.56,155.94 C 132.54,155.95 132.52,155.96 132.5,155.97 C 132.42,156.01 132.33,156.07 132.25,156.13 C 132.23,156.14 132.21,156.14 132.19,156.16 C 132.16,156.17 132.16,156.2 132.16,156.22 C 132.14,156.26 132.14,156.3 132.13,156.34 C 132.09,156.43 132.03,156.51 132.0,156.59 C 131.97,156.68 131.94,156.79 131.91,156.88 C 131.91,156.87 131.93,156.88 131.94,156.88 C 131.96,156.85 131.98,156.83 132.0,156.81 C 132.04,156.77 132.08,156.73 132.13,156.69 C 132.46,156.37 132.87,156.14 133.34,156.09 C 134.1,156.01 135.08,156.36 135.72,156.69 C 136.47,157.07 137.08,157.52 137.66,158.13 C 138.23,158.73 138.68,159.41 139.0,160.19 C 139.16,160.57 139.26,160.94 139.34,161.34 C 139.39,161.54 139.44,161.73 139.47,161.94 C 139.48,161.99 139.46,162.04 139.47,162.09 C 139.47,162.11 139.48,162.12 139.5,162.13 C 139.51,162.13 139.52,162.15 139.53,162.16 C 139.55,162.17 139.57,162.18 139.59,162.19 C 139.68,162.23 139.76,162.26 139.84,162.31 C 140.11,162.48 140.32,162.69 140.5,162.94 C 140.51,162.95 140.52,162.95 140.53,162.97 C 140.54,162.98 140.56,162.99 140.56,163.0 C 140.58,162.99 140.58,163.01 140.59,163.0 C 140.62,162.99 140.66,162.98 140.69,162.97 C 140.75,162.95 140.81,162.91 140.88,162.91 C 141.12,162.89 141.35,163.02 141.5,163.22 C 141.58,163.33 141.64,163.43 141.66,163.56 C 141.66,163.62 141.66,163.69 141.66,163.75 C 141.66,163.75 141.63,163.75 141.63,163.75 C 141.61,163.74 141.58,163.72 141.56,163.72 C 141.52,163.71 141.48,163.7 141.44,163.69 C 141.36,163.66 141.27,163.64 141.19,163.63 C 141.11,163.61 141.05,163.61 140.97,163.59 C 140.93,163.59 140.88,163.57 140.84,163.56 C 140.85,163.57 140.84,163.59 140.84,163.59 C 140.85,163.61 140.84,163.64 140.84,163.66 C 140.86,163.72 140.89,163.77 140.91,163.84 C 140.91,163.88 140.9,163.93 140.91,163.97 C 140.91,163.99 140.9,163.98 140.91,164.0 C 140.91,164.01 140.96,164.03 140.97,164.03 C 141.27,164.09 141.53,164.16 141.81,164.28 C 142.09,164.4 142.37,164.54 142.63,164.72 C 142.75,164.8 142.86,164.9 142.97,165.0 C 143.0,165.02 143.04,165.07 143.06,165.09 C 143.07,165.11 143.07,165.11 143.09,165.09 C 143.11,165.08 143.14,165.07 143.16,165.06 C 143.22,165.03 143.28,165.0 143.34,164.97 C 143.38,164.95 143.4,164.95 143.44,164.94 C 143.45,164.93 143.48,164.91 143.5,164.91 C 143.44,164.85 143.37,164.77 143.31,164.72 C 143.19,164.61 143.07,164.5 142.94,164.41 C 142.92,164.39 142.89,164.39 142.88,164.38 C 142.87,164.37 142.87,164.35 142.88,164.34 C 142.89,164.33 142.9,164.32 142.91,164.31 C 142.93,164.29 142.97,164.3 143.0,164.28 C 143.05,164.25 143.1,164.21 143.16,164.19 C 143.39,164.11 143.65,164.15 143.84,164.31 C 143.95,164.4 144.02,164.5 144.06,164.63 C 144.07,164.65 144.09,164.66 144.09,164.69 C 144.1,164.7 144.09,164.74 144.09,164.75 C 144.09,164.76 144.09,164.77 144.09,164.78 C 144.25,164.77 144.41,164.79 144.56,164.81 C 144.76,164.84 144.94,164.89 145.13,164.97 C 145.22,165.01 145.32,165.04 145.41,165.09 C 145.41,165.1 145.46,165.13 145.47,165.13 C 145.49,165.11 145.51,165.11 145.53,165.09 C 145.58,165.07 145.61,165.02 145.66,165.0 C 146.02,164.8 146.39,164.63 146.78,164.5 C 147.58,164.22 148.35,164.12 149.19,164.16 C 150.02,164.19 150.82,164.35 151.59,164.66 C 152.32,164.94 153.12,165.42 153.66,166.0 C 153.99,166.36 154.19,166.73 154.25,167.22 C 154.28,167.45 154.26,167.68 154.22,167.91 C 154.21,167.93 154.19,167.97 154.19,168.0 C 154.2,167.98 154.23,167.96 154.25,167.94 C 154.3,167.86 154.36,167.8 154.41,167.72 C 154.46,167.64 154.51,167.55 154.56,167.47 L 154.59,167.44 C 154.61,167.42 154.6,167.37 154.59,167.34 C 154.59,167.3 154.6,167.26 154.59,167.22 C 154.58,167.13 154.58,167.03 154.56,166.94 C 154.55,166.9 154.57,166.91 154.59,166.91 C 154.62,166.9 154.63,166.89 154.66,166.88 C 154.7,166.85 154.74,166.84 154.78,166.81 C 155.12,166.6 155.36,166.27 155.44,165.88 C 155.61,165.03 154.99,164.21 154.13,164.16 C 153.71,164.13 153.32,164.27 153.03,164.56 C 153.03,164.57 153.0,164.56 153.0,164.56 C 153.02,164.52 153.02,164.48 153.03,164.44 C 153.06,164.34 153.09,164.25 153.09,164.16 C 153.11,163.94 153.08,163.73 153.0,163.53 C 152.68,162.72 151.7,162.38 150.94,162.81 C 150.75,162.92 150.62,163.07 150.5,163.25 C 150.44,163.33 150.38,163.41 150.34,163.5 C 150.33,163.52 150.32,163.54 150.31,163.56 C 150.31,163.57 150.32,163.58 150.31,163.59 C 150.31,163.6 150.28,163.65 150.28,163.63 C 150.28,163.58 150.28,163.55 150.28,163.5 C 150.26,163.08 150.05,162.69 149.72,162.44 C 149.02,161.91 148.05,162.11 147.63,162.88 C 147.52,163.06 147.45,163.26 147.44,163.47 C 147.43,163.52 147.44,163.55 147.44,163.59 C 147.43,163.59 147.41,163.57 147.41,163.56 C 147.37,163.47 147.31,163.39 147.25,163.31 C 147.0,162.96 146.61,162.75 146.19,162.72 C 145.79,162.69 145.42,162.82 145.13,163.09 C 144.96,163.24 144.83,163.42 144.75,163.63 C 144.71,163.73 144.7,163.83 144.69,163.94 C 144.68,163.99 144.66,164.04 144.66,164.09 C 144.66,164.12 144.66,164.13 144.66,164.16 C 144.23,163.41 143.22,163.2 142.53,163.72 C 142.49,163.75 142.44,163.78 142.41,163.81 C 142.39,163.83 142.39,163.86 142.38,163.88 C 142.37,163.88 142.35,163.87 142.34,163.88 C 142.36,163.77 142.35,163.66 142.34,163.56 C 142.33,163.35 142.29,163.16 142.19,162.97 C 142.0,162.6 141.68,162.35 141.28,162.25 C 141.18,162.23 141.07,162.22 140.97,162.22 C 140.92,162.22 140.86,162.21 140.81,162.22 C 140.79,162.22 140.77,162.22 140.75,162.22 C 140.92,162.09 141.05,161.91 141.16,161.72 C 141.35,161.36 141.38,160.95 141.25,160.56 C 141.11,160.16 140.78,159.84 140.38,159.69 C 140.18,159.61 139.99,159.61 139.78,159.63 C 139.69,159.63 139.59,159.63 139.5,159.66 C 139.44,159.67 139.57,159.61 139.59,159.59 C 139.63,159.56 139.65,159.53 139.69,159.5 C 140.32,158.89 140.25,157.88 139.56,157.34 C 139.22,157.08 138.8,156.96 138.38,157.06 C 138.18,157.11 138.01,157.19 137.84,157.31 C 137.87,157.27 137.88,157.23 137.91,157.19 C 137.95,157.1 137.97,157.0 138.0,156.91 C 138.23,156.06 137.65,155.19 136.78,155.09 C 136.36,155.05 135.93,155.2 135.63,155.5 C 135.56,155.57 135.49,155.64 135.44,155.72 C 135.42,155.74 135.42,155.76 135.41,155.78 C 135.4,155.79 135.38,155.78 135.38,155.78 C 135.38,155.74 135.4,155.7 135.41,155.66 C 135.42,155.45 135.41,155.26 135.34,155.06 C 135.13,154.45 134.54,154.07 133.94,154.09 z M 133.94,154.81 C 134.2,154.8 134.45,154.92 134.59,155.16 C 134.69,155.32 134.72,155.47 134.69,155.66 C 134.68,155.72 134.65,155.79 134.63,155.84 C 134.62,155.86 134.63,155.86 134.63,155.88 C 134.62,155.88 134.57,155.88 134.56,155.88 C 134.55,155.87 134.55,155.85 134.53,155.84 C 134.47,155.83 134.41,155.83 134.34,155.81 C 134.0,155.74 133.64,155.71 133.28,155.75 C 133.17,155.4 133.35,155.03 133.69,154.88 C 133.77,154.84 133.85,154.82 133.94,154.81 z M 136.69,155.81 C 137.05,155.84 137.32,156.11 137.34,156.47 C 137.36,156.66 137.3,156.82 137.19,156.97 C 137.15,157.02 137.11,157.06 137.06,157.09 C 137.05,157.11 137.04,157.1 137.03,157.09 C 137.01,157.07 136.96,157.05 136.94,157.03 C 136.89,156.99 136.86,156.97 136.81,156.94 C 136.53,156.73 136.22,156.53 135.91,156.38 C 135.98,156.02 136.33,155.79 136.69,155.81 z M 138.75,157.75 C 138.84,157.76 138.92,157.77 139.0,157.81 C 139.33,157.96 139.48,158.34 139.38,158.69 C 139.32,158.87 139.22,158.99 139.06,159.09 C 139.01,159.13 138.96,159.14 138.91,159.16 C 138.9,159.16 138.88,159.15 138.88,159.16 C 138.85,159.16 138.88,159.14 138.88,159.13 C 138.86,159.1 138.83,159.09 138.81,159.06 C 138.78,159.01 138.75,158.96 138.72,158.91 C 138.53,158.62 138.33,158.35 138.09,158.09 C 138.24,157.86 138.49,157.73 138.75,157.75 z M 132.06,158.38 C 131.98,158.39 131.89,158.43 131.81,158.47 C 131.51,158.63 131.43,159.02 131.44,159.31 C 131.44,160.02 131.97,160.62 132.31,161.13 C 132.69,161.69 132.94,162.3 133.16,162.94 C 133.28,163.29 133.68,164.52 133.78,164.88 C 133.87,165.2 133.94,165.51 134.0,165.84 C 134.03,166.01 134.07,166.18 134.09,166.34 C 134.1,166.43 134.09,166.51 134.09,166.59 C 134.1,166.64 134.12,166.68 134.13,166.72 C 134.13,166.71 134.15,166.72 134.16,166.72 C 134.74,165.48 135.67,164.48 136.81,163.75 C 136.42,165.18 137.72,166.47 139.16,166.09 C 140.59,165.71 141.05,163.92 140.0,162.88 C 139.38,162.26 138.44,162.16 137.69,162.59 C 137.49,162.71 137.33,162.83 137.19,163.0 C 137.18,163.01 137.16,163.02 137.16,163.03 C 137.15,163.03 137.13,163.03 137.13,163.03 C 137.12,163.01 137.13,162.99 137.13,162.97 C 137.12,162.92 137.1,162.86 137.09,162.81 C 137.06,162.64 137.05,162.49 137.0,162.31 C 136.68,161.09 135.88,159.74 134.75,159.06 C 134.18,158.72 133.45,158.52 132.81,158.41 C 132.6,158.37 132.32,158.33 132.06,158.38 z M 139.97,160.31 C 140.14,160.33 140.32,160.43 140.44,160.56 C 140.68,160.83 140.67,161.22 140.44,161.5 C 140.32,161.65 140.19,161.72 140.0,161.75 C 139.94,161.76 139.87,161.76 139.81,161.75 C 139.79,161.75 139.78,161.73 139.78,161.72 C 139.78,161.69 139.79,161.66 139.78,161.63 C 139.77,161.56 139.76,161.5 139.75,161.44 C 139.69,161.1 139.58,160.77 139.47,160.44 C 139.62,160.33 139.8,160.29 139.97,160.31 z M 148.97,162.84 C 149.05,162.86 149.14,162.89 149.22,162.94 C 149.54,163.11 149.66,163.51 149.53,163.84 C 149.18,163.81 148.85,163.79 148.5,163.81 C 148.44,163.82 148.37,163.81 148.31,163.81 C 148.28,163.82 148.25,163.84 148.22,163.84 C 148.21,163.84 148.2,163.86 148.19,163.84 C 148.18,163.84 148.19,163.82 148.19,163.81 C 148.17,163.76 148.16,163.69 148.16,163.63 C 148.14,163.44 148.17,163.31 148.28,163.16 C 148.44,162.94 148.71,162.81 148.97,162.84 z M 138.69,163.28 C 139.22,163.31 139.65,163.78 139.63,164.31 C 139.6,164.85 139.13,165.25 138.59,165.22 C 138.06,165.19 137.66,164.72 137.69,164.19 C 137.71,163.65 138.15,163.25 138.69,163.28 z M 151.75,163.34 C 151.92,163.37 152.1,163.46 152.22,163.59 C 152.45,163.87 152.43,164.29 152.19,164.56 C 151.87,164.41 151.58,164.26 151.25,164.16 C 151.19,164.14 151.12,164.14 151.06,164.13 C 151.03,164.12 151.0,164.1 150.97,164.09 C 150.96,164.09 150.94,164.08 150.94,164.06 C 150.94,164.0 150.95,163.93 150.97,163.88 C 151.02,163.69 151.12,163.57 151.28,163.47 C 151.43,163.37 151.58,163.32 151.75,163.34 z M 145.91,163.44 C 145.99,163.41 146.07,163.43 146.16,163.44 C 146.52,163.47 146.8,163.76 146.81,164.13 C 146.48,164.23 146.16,164.35 145.84,164.5 C 145.79,164.53 145.74,164.57 145.69,164.59 C 145.66,164.61 145.62,164.64 145.59,164.66 C 145.58,164.66 145.58,164.67 145.56,164.66 C 145.56,164.65 145.57,164.63 145.56,164.63 C 145.52,164.58 145.47,164.55 145.44,164.5 C 145.35,164.33 145.33,164.19 145.38,164.0 C 145.44,163.74 145.66,163.51 145.91,163.44 z M 153.97,164.88 C 154.33,164.84 154.67,165.08 154.75,165.44 C 154.83,165.8 154.63,166.16 154.28,166.28 C 154.1,165.97 153.86,165.7 153.59,165.47 C 153.54,165.43 153.49,165.39 153.44,165.34 C 153.42,165.33 153.42,165.32 153.41,165.31 C 153.4,165.31 153.37,165.29 153.38,165.28 C 153.38,165.27 153.4,165.26 153.41,165.25 C 153.44,165.19 153.49,165.14 153.53,165.09 C 153.66,164.95 153.78,164.89 153.97,164.88 z M 144.0,165.16 C 142.8,165.31 141.99,166.58 142.47,167.78 C 143.02,169.16 144.87,169.42 145.78,168.25 C 145.88,169.61 145.62,170.95 144.97,172.16 C 144.97,172.15 145.0,172.16 145.0,172.16 C 145.04,172.13 145.06,172.12 145.09,172.09 C 145.16,172.05 145.24,172.01 145.31,171.97 C 145.46,171.89 145.6,171.82 145.75,171.75 C 146.05,171.6 146.37,171.46 146.69,171.34 C 147.04,171.21 148.24,170.8 148.59,170.69 C 149.23,170.48 149.89,170.32 150.56,170.28 C 151.17,170.25 151.93,170.29 152.5,169.88 C 152.74,169.7 153.02,169.41 152.97,169.06 C 152.92,168.73 152.62,168.45 152.41,168.25 C 151.93,167.81 151.36,167.35 150.75,167.09 C 149.53,166.59 147.98,166.75 146.81,167.22 C 146.65,167.29 146.47,167.36 146.31,167.44 C 146.27,167.46 146.26,167.48 146.22,167.5 C 146.2,167.51 146.18,167.55 146.16,167.56 C 146.15,167.57 146.13,167.56 146.13,167.56 C 146.11,167.57 146.12,167.54 146.13,167.53 C 146.13,167.52 146.12,167.51 146.13,167.5 C 146.18,167.28 146.18,167.07 146.16,166.84 C 146.06,165.98 145.39,165.28 144.53,165.16 C 144.35,165.13 144.17,165.13 144.0,165.16 z M 140.16,165.97 C 140.15,165.98 140.14,165.99 140.13,166.0 C 140.1,166.02 140.08,166.01 140.06,166.03 C 140.02,166.07 139.95,166.09 139.91,166.13 C 139.88,166.14 139.87,166.17 139.84,166.19 C 139.83,166.19 139.82,166.21 139.81,166.22 C 139.85,166.27 139.89,166.33 139.94,166.38 C 140.27,166.72 140.65,166.95 141.09,167.13 C 141.31,167.21 141.52,167.28 141.75,167.31 C 141.81,167.32 141.87,167.31 141.94,167.31 C 141.95,167.31 141.95,167.31 141.97,167.31 C 141.99,167.31 142.0,167.29 142.0,167.28 C 142.0,167.25 142.0,167.25 142.0,167.22 C 141.99,167.11 141.99,166.99 142.0,166.88 C 141.54,166.85 141.07,166.69 140.69,166.44 C 140.49,166.31 140.34,166.18 140.19,166.0 C 140.18,165.99 140.16,165.97 140.16,165.97 z M 137.19,166.0 C 137.17,166.02 137.14,166.05 137.13,166.06 C 137.09,166.1 137.06,166.12 137.03,166.16 C 136.97,166.23 136.93,166.3 136.88,166.38 C 136.76,166.52 136.64,166.69 136.53,166.84 C 136.31,167.16 136.1,167.48 135.97,167.84 C 135.83,168.22 135.81,168.58 135.81,168.97 C 135.81,169.06 135.81,169.15 135.81,169.25 C 135.81,169.29 135.78,169.36 135.78,169.41 C 135.78,169.42 135.77,169.48 135.78,169.5 C 135.89,169.68 136.03,169.87 136.16,170.03 C 136.39,169.72 136.34,169.24 136.34,168.91 C 136.34,168.51 136.39,168.14 136.56,167.78 C 136.73,167.43 136.98,167.12 137.22,166.81 C 137.33,166.67 137.41,166.54 137.53,166.41 C 137.56,166.37 137.59,166.34 137.63,166.31 C 137.63,166.31 137.64,166.29 137.63,166.28 C 137.61,166.28 137.61,166.29 137.59,166.28 C 137.57,166.27 137.55,166.23 137.53,166.22 C 137.44,166.16 137.34,166.13 137.25,166.06 C 137.24,166.05 137.23,166.04 137.22,166.03 C 137.21,166.02 137.2,165.99 137.19,166.0 z M 144.34,166.09 C 144.59,166.12 144.83,166.23 145.0,166.44 C 145.34,166.85 145.29,167.47 144.88,167.81 C 144.46,168.16 143.84,168.1 143.5,167.69 C 143.16,167.27 143.21,166.66 143.63,166.31 C 143.83,166.14 144.1,166.07 144.34,166.09 z M 143.22,169.09 C 143.2,169.09 143.22,169.12 143.22,169.13 C 143.21,169.17 143.2,169.2 143.19,169.25 C 143.11,169.63 143.01,170.01 142.88,170.38 C 142.74,170.74 142.58,171.08 142.31,171.38 C 142.05,171.66 141.69,171.83 141.41,172.09 C 141.33,172.16 141.27,172.23 141.22,172.31 C 141.19,172.35 141.18,172.42 141.16,172.47 C 141.15,172.48 141.16,172.49 141.16,172.5 C 141.15,172.51 141.11,172.53 141.13,172.53 C 141.15,172.53 141.2,172.53 141.22,172.53 C 141.41,172.53 141.59,172.52 141.78,172.5 C 141.91,172.37 142.04,172.26 142.19,172.16 C 142.35,172.04 142.52,171.93 142.66,171.78 C 142.93,171.49 143.13,171.17 143.28,170.81 C 143.43,170.46 143.53,170.09 143.63,169.72 C 143.64,169.64 143.67,169.55 143.69,169.47 C 143.7,169.43 143.71,169.38 143.72,169.34 C 143.72,169.32 143.71,169.3 143.72,169.28 C 143.7,169.28 143.67,169.25 143.66,169.25 C 143.54,169.22 143.45,169.2 143.34,169.16 C 143.32,169.14 143.28,169.11 143.25,169.09 C 143.24,169.09 143.23,169.1 143.22,169.09 z"
		 />

		<!-- Prism Reference -->
		<cam mingh:cam="--verb EditSelectAll --verb ZoomSelection --verb FileSave " /> 
	 </g>

</svg>
