<svg
   xmlns:xlink="http://www.w3.org/1999/xlink"
   xmlns:svg="http://www.w3.org/2000/svg"
   xmlns="http://www.w3.org/2000/svg"
   xmlns:mingh="http://www.minghworld.com"
   width="300px"
   height="300px" >
	
	 <g>
		
		<!-- Paths -->
		<path transform="matrix(-1 0 0 1 300 0)" style="fill:#ff0;stroke:none;"
		 d="M 146.84,119.84 C 146.23,119.9 145.64,120.1 145.09,120.44 C 143.63,121.33 142.88,123.04 143.22,124.72 C 143.56,126.4 144.9,127.68 146.59,127.94 C 146.75,127.96 146.81,128.16 146.69,128.25 C 145.58,129.09 144.61,129.94 143.78,130.81 C 143.72,130.88 143.63,130.89 143.56,130.84 C 142.51,130.14 141.33,129.55 139.94,129.09 C 137.79,128.39 135.17,127.98 134.03,129.41 C 133.2,130.45 133.16,132.5 133.91,133.75 C 134.43,134.62 135.31,135.09 136.34,135.38 C 136.43,135.4 136.52,135.5 136.5,135.59 C 135.99,138.43 135.7,139.94 135.41,141.47 C 134.95,143.86 134.51,146.25 134.38,148.69 C 134.3,150.03 134.29,151.39 134.41,152.69 C 134.58,154.63 134.99,156.44 135.53,158.81 C 136.16,161.54 136.99,165.01 137.75,168.34 C 137.86,169.03 138.05,169.69 138.28,170.34 C 138.69,171.5 139.23,172.59 139.75,173.69 C 140.44,175.13 141.13,176.56 141.84,178.06 C 142.12,178.64 142.39,179.22 142.88,179.63 C 143.26,179.95 143.78,180.17 144.28,180.16 C 144.77,180.15 145.25,179.92 145.66,179.63 C 146.48,179.02 147.01,178.13 147.38,177.19 C 147.62,176.57 147.77,175.93 147.84,175.28 C 147.88,174.96 147.9,174.64 147.91,174.31 C 147.93,172.88 147.75,171.43 147.59,170.0 C 147.45,168.63 147.33,167.26 147.28,165.88 C 147.24,164.9 147.22,163.93 147.38,162.97 C 147.54,161.98 147.89,160.99 148.22,160.03 C 148.55,159.07 148.88,158.13 149.31,157.22 C 149.49,156.85 149.65,156.48 149.84,156.13 C 150.05,155.74 150.27,155.37 150.5,155.0 C 150.58,154.87 150.76,154.89 150.81,155.03 C 150.84,155.11 150.88,155.18 150.91,155.25 C 151.14,155.86 151.35,156.44 151.56,156.97 C 151.79,157.56 152.0,158.1 152.28,158.72 C 152.5,159.19 152.76,159.7 153.03,160.22 C 153.25,160.64 153.5,161.07 153.75,161.47 C 154.07,161.98 154.41,162.46 154.78,162.94 C 155.3,163.61 155.84,164.25 156.41,164.88 C 157.13,165.77 157.93,166.79 158.81,167.66 C 159.29,168.12 159.8,168.56 160.28,168.84 C 160.38,168.9 160.49,168.94 160.63,168.97 C 160.75,169.0 160.89,169.01 161.03,169.0 C 161.19,168.99 161.36,168.94 161.5,168.91 C 162.47,168.68 163.43,168.48 164.38,168.13 C 165.01,167.88 165.62,167.58 166.13,167.13 C 166.21,167.05 166.31,166.97 166.38,166.88 C 166.55,166.63 166.61,166.3 166.63,166.0 C 166.64,165.63 166.6,165.27 166.56,164.91 C 166.45,163.91 166.35,162.91 166.22,161.91 C 166.09,160.96 165.92,160.01 165.66,159.09 C 165.59,158.87 165.52,158.66 165.44,158.44 C 165.34,158.19 165.24,157.93 165.13,157.72 C 164.95,157.37 164.76,157.07 164.53,156.72 C 164.33,156.4 164.09,156.04 163.88,155.69 C 163.64,155.31 163.45,154.97 163.28,154.59 C 163.09,154.15 162.91,153.67 162.72,153.22 C 162.4,152.46 162.07,151.76 161.81,151.13 C 161.51,150.39 161.3,149.79 161.06,148.97 C 160.85,148.25 160.61,147.35 160.47,146.44 C 160.36,145.74 160.33,145.04 160.31,144.34 C 160.3,143.65 160.31,142.96 160.19,142.25 C 160.13,141.89 160.02,141.53 159.88,141.22 C 159.73,140.9 159.54,140.65 159.31,140.41 C 158.98,140.05 158.59,139.73 158.19,139.44 C 157.83,139.18 157.46,138.96 157.09,138.72 C 156.74,138.49 156.31,138.13 156.0,137.78 C 155.69,137.43 155.48,137.06 155.31,136.72 C 155.15,136.38 155.02,136.08 154.88,135.69 C 154.73,135.29 154.57,134.83 154.47,134.44 C 154.37,134.04 154.34,133.68 154.31,133.16 C 154.29,132.77 154.28,132.29 154.13,130.41 C 154.12,130.34 154.14,130.29 154.19,130.25 C 154.74,129.76 155.19,129.22 155.44,128.63 C 156.02,127.23 155.54,125.52 154.38,125.03 C 153.59,124.7 152.48,124.93 151.28,125.44 C 151.14,125.5 151.01,125.36 151.06,125.22 C 151.61,123.6 151.09,121.82 149.75,120.75 C 148.91,120.08 147.87,119.76 146.84,119.84 z M 147.19,121.97 C 148.26,121.97 149.16,122.83 149.16,123.91 C 149.16,124.98 148.26,125.88 147.19,125.88 C 146.11,125.88 145.25,124.98 145.25,123.91 C 145.25,122.83 146.11,121.97 147.19,121.97 z M 146.47,135.63 C 146.57,135.61 146.64,135.68 146.66,135.78 C 146.72,136.31 146.79,136.86 146.84,137.41 C 146.94,138.34 147.02,139.27 147.03,140.19 C 147.04,141.46 146.92,142.65 147.16,144.03 C 147.25,144.57 147.4,145.16 147.56,145.59 C 147.65,145.84 147.74,146.03 147.84,146.25 C 147.92,146.41 147.99,146.57 148.06,146.75 C 148.1,146.83 148.02,146.93 147.94,146.91 C 147.59,146.8 147.25,146.7 146.94,146.56 C 146.78,146.5 146.63,146.42 146.5,146.34 C 145.43,145.74 145.46,145.29 145.47,144.41 C 145.48,143.39 145.49,141.82 146.06,135.84 C 146.07,135.76 146.14,135.67 146.22,135.66 C 146.3,135.65 146.38,135.64 146.47,135.63 z" />
		
		
		<text id="txtTwo" transform="matrix(1 0 0 1 150 160)" style="stroke:none;fill:#f00;font-family:'Eras Medium ITC';font-size:20px;text-anchor:middle"  >

		</text>
		<!-- Prism Reference -->
		<cam mingh:cam=" --verb EditSelectAll --verb ZoomSelection --verb FileSave "/> 
	 </g>

</svg>