<svg
   xmlns:xlink="http://www.w3.org/1999/xlink"
   xmlns:svg="http://www.w3.org/2000/svg"
   xmlns="http://www.w3.org/2000/svg"
   xmlns:mingh="http://www.minghworld.com"
   width="300px"
   height="300px" >
	
	 <g>
		
		<!-- Paths -->
		<path transform="matrix(-1 0 0 1 300 0)" style="fill:#ff0;stroke:none;"
		 d="M 149.88,129.31 C 149.34,129.31 148.81,129.42 148.31,129.63 C 147.82,129.83 147.38,130.15 147.0,130.53 C 146.62,130.91 146.33,131.35 146.13,131.84 C 145.92,132.34 145.81,132.87 145.81,133.41 C 145.81,133.94 145.92,134.48 146.13,134.97 C 146.33,135.46 146.62,135.9 147.0,136.28 C 147.21,136.49 147.44,136.68 147.69,136.84 C 147.83,136.93 147.79,137.13 147.63,137.16 C 143.39,137.82 139.17,138.5 134.94,139.16 C 133.88,139.32 133.12,140.25 133.16,141.31 C 133.39,147.74 133.64,154.16 133.88,160.59 C 133.9,161.21 134.09,161.63 134.56,162.03 C 137.68,164.73 140.79,167.43 143.91,170.13 C 144.46,170.6 145.23,170.78 145.94,170.59 C 152.13,169.0 158.31,167.41 164.5,165.81 C 165.4,165.58 166.03,164.8 166.06,163.88 L 166.84,143.84 C 166.88,142.96 166.4,142.12 165.59,141.75 C 161.82,139.99 158.03,138.23 154.25,136.47 C 153.89,136.3 153.55,136.23 153.16,136.28 C 153.0,136.3 152.9,136.12 153.0,136.0 C 153.26,135.68 153.47,135.35 153.63,134.97 C 153.83,134.48 153.94,133.94 153.94,133.41 C 153.94,132.87 153.83,132.34 153.63,131.84 C 153.42,131.35 153.13,130.91 152.75,130.53 C 152.37,130.15 151.93,129.83 151.44,129.63 C 150.94,129.42 150.41,129.31 149.88,129.31 z M 149.88,131.44 C 150.13,131.44 150.39,131.5 150.63,131.59 C 150.86,131.69 151.07,131.85 151.25,132.03 C 151.43,132.21 151.59,132.42 151.69,132.66 C 151.79,132.89 151.81,133.15 151.81,133.41 C 151.81,133.66 151.79,133.92 151.69,134.16 C 151.59,134.39 151.43,134.6 151.25,134.78 C 151.07,134.96 150.86,135.09 150.63,135.19 C 150.39,135.29 150.13,135.34 149.88,135.34 C 149.62,135.34 149.36,135.29 149.13,135.19 C 148.89,135.09 148.68,134.96 148.5,134.78 C 148.32,134.6 148.16,134.39 148.06,134.16 C 147.96,133.92 147.94,133.66 147.94,133.41 C 147.94,133.15 147.96,132.89 148.06,132.66 C 148.16,132.42 148.32,132.21 148.5,132.03 C 148.68,131.85 148.89,131.69 149.13,131.59 C 149.36,131.5 149.62,131.44 149.88,131.44 z" />
		
		
		<text id="txtTwo" transform="matrix(1 0 0 1 150 160)" style="stroke:none;fill:#f00;font-family:'Eras Medium ITC';font-size:20px;text-anchor:middle"  >

		</text>
		<!-- Prism Reference -->
		<cam mingh:cam="--verb EditSelectAll --verb ZoomSelection --verb FileSave"/> 
	 </g>

</svg>