<svg
   xmlns:xlink="http://www.w3.org/1999/xlink"
   xmlns:svg="http://www.w3.org/2000/svg"
   xmlns="http://www.w3.org/2000/svg"
   xmlns:mingh="http://www.minghworld.com"
   width="300px"
   height="300px" >
	
	 <g>
		
		<!-- Paths -->
		<path style="fill:none;stroke:#000;stroke-width:0.25px;"
		 d="M 149.88,129.31 C 149.34,129.31 148.81,129.42 148.31,129.63 C 147.82,129.83 147.38,130.15 147.0,130.53 C 146.62,130.91 146.33,131.35 146.13,131.84 C 145.92,132.34 145.81,132.87 145.81,133.41 C 145.81,133.94 145.92,134.48 146.13,134.97 C 146.33,135.46 146.62,135.9 147.0,136.28 C 147.21,136.49 147.44,136.68 147.69,136.84 C 147.83,136.93 147.79,137.13 147.63,137.16 C 143.39,137.82 139.17,138.5 134.94,139.16 C 133.88,139.32 133.12,140.25 133.16,141.31 C 133.39,147.74 133.64,154.16 133.88,160.59 C 133.9,161.21 134.09,161.63 134.56,162.03 C 137.68,164.73 140.79,167.43 143.91,170.13 C 144.46,170.6 145.23,170.78 145.94,170.59 C 152.13,169.0 158.31,167.41 164.5,165.81 C 165.4,165.58 166.03,164.8 166.06,163.88 L 166.84,143.84 C 166.88,142.96 166.4,142.12 165.59,141.75 C 161.82,139.99 158.03,138.23 154.25,136.47 C 153.89,136.3 153.55,136.23 153.16,136.28 C 153.0,136.3 152.9,136.12 153.0,136.0 C 153.26,135.68 153.47,135.35 153.63,134.97 C 153.83,134.48 153.94,133.94 153.94,133.41 C 153.94,132.87 153.83,132.34 153.63,131.84 C 153.42,131.35 153.13,130.91 152.75,130.53 C 152.37,130.15 151.93,129.83 151.44,129.63 C 150.94,129.42 150.41,129.31 149.88,129.31 z M 149.88,131.44 C 150.13,131.44 150.39,131.5 150.63,131.59 C 150.86,131.69 151.07,131.85 151.25,132.03 C 151.43,132.21 151.59,132.42 151.69,132.66 C 151.79,132.89 151.81,133.15 151.81,133.41 C 151.81,133.66 151.79,133.92 151.69,134.16 C 151.59,134.39 151.43,134.6 151.25,134.78 C 151.07,134.96 150.86,135.09 150.63,135.19 C 150.39,135.29 150.13,135.34 149.88,135.34 C 149.62,135.34 149.36,135.29 149.13,135.19 C 148.89,135.09 148.68,134.96 148.5,134.78 C 148.32,134.6 148.16,134.39 148.06,134.16 C 147.96,133.92 147.94,133.66 147.94,133.41 C 147.94,133.15 147.96,132.89 148.06,132.66 C 148.16,132.42 148.32,132.21 148.5,132.03 C 148.68,131.85 148.89,131.69 149.13,131.59 C 149.36,131.5 149.62,131.44 149.88,131.44 z"
		 />
		 <path style="fill:#f00;stroke:none;"
		 d="M 149.7,143.34 C 149.47,143.69 148.68,143.86 148.35,143.92 C 147.32,144.1 146.36,144.1 145.34,143.85 C 145.09,143.8 144.85,143.72 144.63,143.6 C 144.41,143.47 144.17,143.26 144.36,143.0 C 144.61,142.66 145.39,142.49 145.73,142.43 C 146.75,142.26 147.7,142.26 148.71,142.5 C 148.95,142.56 149.19,142.63 149.41,142.75 C 149.62,142.87 149.87,143.08 149.7,143.34 z M 149.52,137.8 C 149.68,137.48 150.49,137.34 150.75,137.3 C 151.65,137.15 152.51,137.16 153.41,137.34 C 153.63,137.39 153.85,137.44 154.06,137.54 C 154.21,137.6 154.54,137.78 154.44,138.01 C 154.29,138.33 153.49,138.48 153.24,138.52 C 152.32,138.67 151.45,138.66 150.54,138.48 C 150.31,138.43 150.1,138.37 149.89,138.28 C 149.73,138.21 149.4,138.03 149.52,137.8 z M 157.98,140.38 C 158.77,140.33 160.05,140.4 160.81,140.76 C 161.49,141.09 161.28,141.46 160.63,141.69 C 160.16,141.86 159.69,141.91 159.2,141.94 C 158.41,141.98 157.09,141.92 156.34,141.54 C 155.68,141.21 155.96,140.83 156.57,140.62 C 157.03,140.46 157.5,140.41 157.98,140.38 z M 150.61,154.19 C 149.16,154.65 147.96,153.66 147.95,152.16 C 147.95,150.86 148.86,149.52 150.13,149.13 C 151.6,148.67 152.8,149.68 152.79,151.19 C 152.78,152.48 151.87,153.8 150.61,154.19 z M 161.64,153.14 C 163.03,152.64 164.11,153.6 164.06,155.02 C 164.02,156.21 163.2,157.46 162.06,157.87 C 160.68,158.36 159.6,157.42 159.63,156.01 C 159.66,154.81 160.49,153.55 161.64,153.14 z M 150.62,160.5 C 149.2,160.98 147.98,160.09 147.98,158.6 C 147.97,157.32 148.88,156.02 150.1,155.61 C 151.53,155.12 152.75,156.04 152.74,157.54 C 152.73,158.81 151.83,160.09 150.62,160.5 z M 141.35,140.42 C 140.64,140.47 139.25,140.45 138.58,140.05 C 138.33,139.91 138.2,139.73 138.44,139.5 C 138.62,139.33 138.83,139.26 139.06,139.19 C 139.51,139.05 139.96,138.99 140.43,138.96 C 141.14,138.91 142.49,138.94 143.17,139.32 C 143.79,139.66 143.25,140.02 142.73,140.19 C 142.28,140.33 141.82,140.39 141.35,140.42 z M 159.8,149.48 C 159.94,148.29 160.86,147.02 162.11,146.78 C 163.58,146.49 164.41,147.76 164.25,149.12 C 164.1,150.3 163.2,151.55 161.97,151.81 C 160.49,152.13 159.63,150.86 159.8,149.48 z M 161.45,159.24 C 162.8,158.73 163.91,159.6 163.86,161.02 C 163.82,162.19 163.0,163.39 161.9,163.82 C 160.57,164.33 159.46,163.48 159.49,162.07 C 159.52,160.89 160.34,159.67 161.45,159.24 z M 138.55,152.84 C 139.08,153.61 139.35,154.81 139.38,155.71 C 139.39,156.23 139.41,156.69 139.09,157.16 C 138.7,157.73 138.2,157.27 137.91,156.84 C 137.39,156.07 137.12,154.89 137.09,154.0 C 137.08,153.48 137.06,153.01 137.37,152.53 C 137.76,151.95 138.26,152.4 138.55,152.84 z M 139.92,148.88 C 140.05,148.33 140.39,147.76 140.99,148.16 C 141.78,148.67 142.16,150.23 142.25,151.01 C 142.32,151.55 142.33,152.07 142.19,152.6 C 142.05,153.18 141.69,153.71 141.09,153.29 C 140.33,152.75 139.95,151.24 139.86,150.45 C 139.8,149.92 139.79,149.41 139.92,148.88 z M 136.66,160.3 C 136.55,160.85 136.25,161.33 135.72,160.88 C 135.08,160.35 134.74,159.03 134.64,158.31 C 134.58,157.83 134.55,157.37 134.65,156.9 C 134.75,156.35 135.01,155.84 135.57,156.28 C 136.22,156.79 136.57,158.16 136.66,158.87 C 136.73,159.35 136.75,159.82 136.66,160.3 z M 166.71,143.83 C 166.71,143.86 166.71,143.9 166.71,143.93 C 166.71,143.95 166.71,143.96 166.7,143.98 C 166.7,143.99 166.7,143.99 166.7,144.0 C 166.7,144.01 166.7,144.02 166.7,144.01 C 166.68,143.99 166.66,143.96 166.64,143.94 C 166.61,143.89 166.56,143.84 166.51,143.8 C 166.41,143.72 166.3,143.67 166.17,143.64 C 165.92,143.59 165.71,143.66 165.48,143.7 C 164.59,143.86 163.7,144.03 162.81,144.19 C 159.24,144.85 155.68,145.51 152.12,146.16 C 150.21,146.51 148.31,146.86 146.4,147.22 C 146.21,147.25 146.02,147.28 145.85,147.39 C 145.73,147.46 145.63,147.56 145.55,147.68 C 145.47,147.8 145.42,147.92 145.4,148.06 C 145.38,148.19 145.39,148.31 145.39,148.43 C 145.4,148.94 145.4,149.44 145.41,149.94 C 145.43,151.95 145.45,153.97 145.48,155.98 C 145.52,160.3 145.57,164.63 145.62,168.96 C 145.63,169.4 145.55,169.8 145.96,170.16 C 146.01,170.2 146.07,170.24 146.13,170.28 C 146.16,170.3 146.2,170.31 146.23,170.33 C 146.25,170.33 146.27,170.34 146.28,170.35 C 146.29,170.35 146.3,170.35 146.31,170.35 C 146.31,170.36 146.32,170.36 146.32,170.36 C 146.31,170.36 146.31,170.36 146.3,170.36 C 146.16,170.4 146.02,170.44 145.88,170.47 C 145.48,170.57 145.12,170.56 144.73,170.44 C 144.55,170.38 144.38,170.29 144.22,170.18 C 144.13,170.13 144.06,170.07 143.98,170.0 C 143.93,169.96 143.89,169.92 143.84,169.88 C 143.82,169.86 143.79,169.84 143.77,169.82 C 143.74,169.8 143.8,169.81 143.82,169.8 C 144.01,169.76 144.16,169.61 144.2,169.41 C 144.2,169.39 144.21,169.37 144.21,169.34 C 144.21,169.22 144.21,169.1 144.2,168.98 C 144.2,168.62 144.2,168.27 144.19,167.91 C 144.18,167.2 144.18,166.49 144.17,165.77 C 144.14,162.93 144.1,160.08 144.07,157.24 C 144.05,154.81 144.02,152.38 143.99,149.95 C 143.98,149.35 143.98,148.74 143.97,148.13 C 143.97,148.04 143.96,147.95 143.95,147.86 C 143.92,147.69 143.87,147.54 143.8,147.38 C 143.57,146.93 143.22,146.75 142.82,146.51 C 141.71,145.82 140.59,145.13 139.48,144.44 C 137.67,143.32 135.86,142.2 134.05,141.08 C 133.89,140.98 133.76,140.87 133.54,140.91 C 133.47,140.92 133.42,140.94 133.36,140.98 C 133.35,140.99 133.33,141.0 133.32,141.01 C 133.31,141.02 133.31,141.02 133.3,141.03 C 133.3,141.04 133.3,141.02 133.3,141.02 C 133.3,140.98 133.31,140.95 133.31,140.92 C 133.35,140.64 133.44,140.41 133.59,140.17 C 133.74,139.94 133.91,139.76 134.14,139.6 C 134.25,139.52 134.37,139.46 134.49,139.41 C 134.52,139.4 134.56,139.39 134.59,139.38 C 134.6,139.37 134.6,139.37 134.61,139.37 C 134.62,139.36 134.64,139.35 134.63,139.36 C 134.62,139.38 134.62,139.39 134.61,139.41 C 134.59,139.47 134.59,139.53 134.6,139.6 C 134.61,139.67 134.64,139.73 134.69,139.78 C 134.71,139.81 134.73,139.83 134.76,139.85 C 134.85,139.91 134.95,139.97 135.04,140.02 C 135.49,140.3 135.94,140.58 136.4,140.86 C 137.3,141.42 138.21,141.98 139.11,142.54 C 140.34,143.31 141.57,144.07 142.8,144.83 C 143.11,145.02 143.42,145.21 143.72,145.4 C 143.86,145.49 144.0,145.58 144.15,145.65 C 144.31,145.74 144.48,145.8 144.66,145.85 C 145.02,145.95 145.37,145.96 145.74,145.9 C 146.96,145.68 148.18,145.45 149.4,145.22 C 150.67,144.99 151.94,144.75 153.2,144.52 C 155.84,144.04 158.47,143.55 161.1,143.07 C 162.42,142.82 163.74,142.58 165.05,142.34 C 165.17,142.32 165.28,142.3 165.39,142.27 C 165.41,142.27 165.43,142.26 165.46,142.25 C 165.5,142.23 165.53,142.2 165.56,142.16 C 165.59,142.12 165.61,142.07 165.62,142.03 C 165.62,142.0 165.62,141.98 165.62,141.96 C 165.62,141.95 165.61,141.93 165.63,141.94 C 165.64,141.94 165.65,141.95 165.66,141.95 C 166.34,142.33 166.74,143.05 166.71,143.83 z M 152.68,163.99 C 152.55,165.21 151.58,166.41 150.36,166.71 C 148.9,167.08 147.86,166.0 148.02,164.55 C 148.16,163.31 149.14,162.1 150.37,161.82 C 151.82,161.48 152.84,162.56 152.68,163.99 z"
		 />

		<!-- Prism Reference -->
		<cam mingh:cam="--verb EditSelectAll --verb ZoomSelection --verb FileSave " /> 
	 </g>

</svg>
