<svg
   xmlns:xlink="http://www.w3.org/1999/xlink"
   xmlns:svg="http://www.w3.org/2000/svg"
   xmlns="http://www.w3.org/2000/svg"
   xmlns:mingh="http://www.minghworld.com"
   width="300px"
   height="300px" >
	
	 <g>
		
		<!-- Paths -->
		<path style="fill:none;stroke:#000;stroke-width:0.25px;"
		 d="M 149.84,130.13 C 149.52,130.14 149.17,130.19 148.84,130.28 C 146.24,131.04 145.1,134.09 146.56,136.38 C 146.66,136.53 146.5,136.71 146.34,136.63 C 145.32,136.1 144.36,135.97 143.22,136.13 C 142.17,136.27 141.1,136.68 140.22,137.25 C 138.33,138.46 137.2,140.27 136.84,142.47 C 136.83,142.56 136.75,142.64 136.66,142.63 C 135.73,142.49 134.87,142.62 134.06,143.13 C 133.35,143.57 132.52,144.4 132.13,145.16 C 131.74,145.91 131.57,146.85 131.59,147.69 C 131.6,148.09 131.66,148.49 131.75,148.88 C 131.8,149.09 131.86,149.29 131.91,149.5 C 131.94,149.63 131.97,149.81 131.78,149.75 C 131.47,149.65 130.99,149.12 130.81,148.88 C 130.56,148.53 130.43,148.19 130.34,147.78 C 130.26,147.38 130.21,146.98 130.22,146.56 C 130.22,146.35 130.24,146.12 130.22,145.91 C 130.19,145.64 129.95,145.57 129.72,145.63 C 129.31,145.72 128.82,146.29 128.63,146.59 C 128.37,146.98 128.22,147.37 128.09,147.81 C 127.86,148.65 127.85,149.41 128.06,150.25 C 128.13,150.52 128.24,150.8 128.34,151.06 C 128.41,151.24 128.48,151.38 128.53,151.56 C 128.63,151.91 128.4,152.01 128.09,151.94 C 127.81,151.87 127.58,151.72 127.34,151.56 C 127.02,151.34 126.74,151.09 126.47,150.81 C 125.95,150.28 125.51,149.71 125.16,149.06 C 125.01,148.8 124.89,148.53 124.78,148.25 C 124.73,148.13 124.71,147.99 124.66,147.88 C 124.62,147.78 124.56,147.71 124.47,147.66 C 124.34,147.58 124.17,147.57 124.06,147.69 C 123.96,147.8 123.92,147.95 123.88,148.09 C 123.71,148.6 123.64,149.09 123.66,149.63 C 123.68,150.54 123.94,151.24 124.38,152.03 C 124.47,152.21 124.56,152.36 124.66,152.53 C 124.69,152.6 124.87,152.87 124.84,152.97 C 124.81,153.07 124.68,153.1 124.59,153.06 C 124.51,153.02 124.45,152.96 124.38,152.91 C 124.28,152.84 124.19,152.76 124.09,152.69 C 123.98,152.6 123.89,152.5 123.78,152.41 C 123.69,152.33 123.59,152.27 123.5,152.19 C 123.4,152.1 123.32,152.01 123.19,152.09 C 123.02,152.19 123.06,152.34 123.06,152.5 C 123.07,152.62 123.07,152.73 123.09,152.84 C 123.14,153.07 123.21,153.31 123.28,153.53 C 123.36,153.77 123.45,154.0 123.56,154.22 C 123.69,154.46 123.83,154.67 124.0,154.88 C 124.37,155.31 124.81,155.67 125.22,156.06 C 125.37,156.21 126.07,156.92 126.09,157.19 C 126.1,157.29 126.03,157.32 125.94,157.31 C 125.83,157.31 125.76,157.28 125.66,157.25 C 125.48,157.19 125.31,157.12 125.16,157.03 C 125.0,156.94 124.76,156.79 124.56,156.81 C 124.29,156.85 124.29,157.06 124.38,157.28 C 124.43,157.43 124.49,157.58 124.56,157.72 C 124.62,157.83 124.68,157.93 124.75,158.03 C 124.87,158.21 125.01,158.37 125.16,158.53 C 125.46,158.87 125.81,159.17 126.16,159.47 C 126.49,159.76 126.83,160.02 127.16,160.31 C 127.44,160.57 127.79,160.93 127.94,161.31 C 127.99,161.44 128.02,161.58 128.03,161.72 C 128.04,161.82 128.02,161.88 127.91,161.88 C 127.73,161.87 127.61,161.79 127.47,161.72 C 127.29,161.62 127.12,161.53 126.94,161.44 C 126.78,161.36 126.6,161.26 126.44,161.19 C 126.34,161.15 126.26,161.11 126.16,161.13 C 126.05,161.14 125.93,161.22 125.88,161.31 C 125.81,161.43 125.86,161.56 125.91,161.66 C 125.99,161.85 126.08,162.04 126.19,162.22 C 126.55,162.85 126.96,163.42 127.41,164.0 C 127.77,164.47 128.17,164.9 128.59,165.31 C 129.48,166.17 130.45,166.87 131.53,167.47 C 134.44,169.07 138.21,169.92 141.5,169.88 C 143.23,169.85 144.77,169.54 146.31,168.72 C 147.95,167.85 149.18,166.59 149.88,164.84 C 149.92,164.72 150.08,164.72 150.13,164.84 C 150.82,166.59 152.05,167.85 153.69,168.72 C 155.23,169.54 156.77,169.85 158.5,169.88 C 161.79,169.92 165.56,169.07 168.47,167.47 C 169.55,166.87 170.52,166.17 171.41,165.31 C 171.83,164.9 172.23,164.47 172.59,164.0 C 173.04,163.42 173.45,162.85 173.81,162.22 C 173.92,162.04 174.01,161.85 174.09,161.66 C 174.14,161.56 174.18,161.43 174.13,161.31 C 174.07,161.21 173.94,161.14 173.84,161.13 C 173.74,161.11 173.66,161.11 173.56,161.16 C 173.4,161.23 173.22,161.32 173.06,161.41 C 172.88,161.5 172.71,161.59 172.53,161.69 C 172.39,161.76 172.27,161.87 172.09,161.88 C 171.99,161.88 171.96,161.82 171.97,161.72 C 171.97,161.58 172.01,161.47 172.06,161.34 C 172.21,160.96 172.56,160.57 172.84,160.31 C 173.17,160.02 173.51,159.76 173.84,159.47 C 174.19,159.17 174.54,158.87 174.84,158.53 C 174.99,158.37 175.13,158.21 175.25,158.03 C 175.32,157.93 175.38,157.83 175.44,157.72 C 175.51,157.58 175.57,157.43 175.63,157.28 C 175.71,157.06 175.71,156.85 175.44,156.81 C 175.24,156.79 175.0,156.94 174.84,157.03 C 174.69,157.12 174.52,157.19 174.34,157.25 C 174.24,157.28 174.17,157.31 174.06,157.31 C 173.97,157.32 173.9,157.29 173.91,157.19 C 173.93,156.92 174.63,156.21 174.78,156.06 C 175.19,155.67 175.63,155.31 176.0,154.88 C 176.17,154.67 176.31,154.46 176.44,154.22 C 176.55,154.0 176.64,153.77 176.72,153.53 C 176.79,153.31 176.86,153.07 176.91,152.84 C 176.93,152.73 176.93,152.62 176.94,152.5 C 176.94,152.34 176.98,152.2 176.81,152.09 C 176.68,152.01 176.6,152.07 176.5,152.16 C 176.41,152.23 176.31,152.33 176.22,152.41 C 176.11,152.5 176.02,152.6 175.91,152.69 C 175.81,152.76 175.72,152.84 175.63,152.91 C 175.55,152.96 175.49,153.02 175.41,153.06 C 175.32,153.11 175.19,153.07 175.16,152.97 C 175.13,152.87 175.31,152.59 175.34,152.53 C 175.44,152.36 175.53,152.21 175.63,152.03 C 176.06,151.24 176.32,150.54 176.34,149.63 C 176.36,149.09 176.29,148.6 176.13,148.09 C 176.08,147.95 176.07,147.81 175.97,147.69 C 175.86,147.57 175.69,147.58 175.56,147.66 C 175.47,147.71 175.42,147.78 175.38,147.88 C 175.32,147.99 175.27,148.13 175.22,148.25 C 175.11,148.53 174.99,148.8 174.84,149.06 C 174.49,149.71 174.05,150.28 173.53,150.81 C 173.26,151.09 172.98,151.34 172.66,151.56 C 172.42,151.72 172.19,151.87 171.91,151.94 C 171.6,152.01 171.37,151.91 171.47,151.56 C 171.52,151.38 171.59,151.24 171.66,151.06 C 171.76,150.8 171.87,150.52 171.94,150.25 C 172.15,149.41 172.14,148.65 171.91,147.81 C 171.78,147.37 171.63,146.98 171.38,146.59 C 171.18,146.29 170.69,145.72 170.28,145.63 C 170.05,145.57 169.81,145.64 169.78,145.91 C 169.76,146.12 169.78,146.35 169.78,146.56 C 169.79,146.98 169.74,147.38 169.66,147.78 C 169.57,148.19 169.44,148.53 169.19,148.88 C 169.01,149.12 168.53,149.64 168.22,149.75 C 168.03,149.81 168.06,149.64 168.09,149.5 C 168.14,149.29 168.2,149.09 168.25,148.88 C 168.34,148.49 168.4,148.12 168.41,147.72 C 168.43,146.88 168.26,145.91 167.88,145.16 C 167.49,144.4 166.65,143.57 165.94,143.13 C 165.13,142.62 164.27,142.49 163.34,142.63 C 163.25,142.64 163.17,142.56 163.16,142.47 C 162.8,140.27 161.67,138.46 159.78,137.25 C 158.9,136.68 157.83,136.27 156.78,136.13 C 155.64,135.97 154.68,136.1 153.66,136.63 C 153.5,136.71 153.34,136.53 153.44,136.38 C 153.86,135.72 154.06,134.96 154.06,134.19 C 154.06,131.81 152.09,130.03 149.84,130.13 z M 150.0,132.31 C 151.08,132.31 151.94,133.2 151.94,134.28 C 151.94,135.36 151.08,136.22 150.0,136.22 C 148.92,136.22 148.06,135.36 148.06,134.28 C 148.06,133.2 148.92,132.31 150.0,132.31 z M 148.41,138.0 C 148.44,137.99 148.49,137.98 148.53,138.0 C 149.47,138.36 150.53,138.36 151.47,138.0 C 151.64,137.94 151.77,138.14 151.66,138.28 C 151.39,138.62 151.17,138.93 151.03,139.34 C 150.96,139.55 150.95,139.75 150.97,139.97 C 150.99,140.18 151.04,140.37 150.97,140.59 C 150.9,140.81 150.76,140.94 150.63,141.09 C 150.48,141.26 150.37,141.45 150.31,141.66 C 150.26,141.85 150.25,142.06 150.34,142.25 C 150.44,142.44 150.63,142.58 150.84,142.59 C 150.95,142.6 151.02,142.71 151.0,142.81 C 150.92,143.33 150.8,143.84 150.66,144.34 C 150.45,145.07 150.39,145.11 150.13,145.81 C 150.08,145.94 149.92,145.94 149.88,145.81 C 149.61,145.11 149.55,145.07 149.34,144.34 C 149.2,143.84 149.08,143.33 149.0,142.81 C 148.98,142.71 149.05,142.6 149.16,142.59 C 149.37,142.58 149.56,142.44 149.66,142.25 C 149.75,142.06 149.74,141.85 149.69,141.66 C 149.63,141.45 149.52,141.26 149.38,141.09 C 149.24,140.94 149.1,140.81 149.03,140.59 C 148.96,140.37 149.01,140.18 149.03,139.97 C 149.05,139.75 149.04,139.55 148.97,139.34 C 148.83,138.93 148.61,138.62 148.34,138.28 C 148.26,138.18 148.3,138.04 148.41,138.0 z M 142.97,141.09 C 143.09,141.1 143.2,141.12 143.31,141.16 C 143.44,141.19 143.56,141.24 143.66,141.31 C 143.8,141.42 143.9,141.57 144.03,141.69 C 144.18,141.82 144.35,141.91 144.53,142.0 C 144.79,142.13 145.06,142.22 145.31,142.34 C 145.58,142.48 145.85,142.63 146.09,142.81 C 146.3,142.96 146.49,143.12 146.66,143.31 C 146.9,143.59 147.08,143.93 147.28,144.25 C 147.6,144.76 147.96,145.25 148.28,145.72 C 148.56,146.14 148.8,146.53 149.19,146.97 C 149.32,147.12 149.49,147.26 149.66,147.25 C 149.73,147.24 149.81,147.21 149.88,147.16 C 149.89,147.15 149.9,147.14 149.91,147.13 C 149.96,147.06 150.04,147.06 150.09,147.13 C 150.1,147.14 150.11,147.15 150.13,147.16 C 150.19,147.21 150.27,147.24 150.34,147.25 C 150.51,147.26 150.68,147.12 150.81,146.97 C 151.2,146.53 151.44,146.14 151.72,145.72 C 152.04,145.25 152.4,144.76 152.72,144.25 C 152.92,143.93 153.1,143.59 153.34,143.31 C 153.51,143.12 153.7,142.96 153.91,142.81 C 154.15,142.63 154.42,142.48 154.69,142.34 C 154.94,142.22 155.21,142.13 155.47,142.0 C 155.65,141.91 155.82,141.82 155.97,141.69 C 156.1,141.57 156.2,141.42 156.34,141.31 C 156.44,141.24 156.56,141.19 156.69,141.16 C 157.15,141.03 157.65,141.12 158.06,141.38 C 158.58,141.7 158.91,142.25 159.09,142.84 C 159.48,144.12 159.18,145.5 158.66,146.72 C 157.98,148.28 156.94,149.59 155.78,150.81 C 154.02,152.66 152.0,154.32 150.78,156.5 C 150.54,156.94 150.3,157.4 150.13,157.88 C 150.08,158.0 149.92,158.0 149.88,157.88 C 149.7,157.4 149.49,156.94 149.25,156.5 C 148.03,154.32 145.98,152.66 144.22,150.81 C 143.06,149.59 142.02,148.28 141.34,146.72 C 140.82,145.5 140.52,144.12 140.91,142.84 C 141.09,142.25 141.42,141.7 141.94,141.38 C 142.24,141.19 142.61,141.08 142.97,141.09 z M 136.5,143.44 C 136.6,143.37 136.75,143.44 136.75,143.56 C 136.74,143.79 136.74,144.02 136.75,144.25 C 136.8,145.8 137.24,147.3 137.94,148.66 C 138.73,150.2 139.85,151.57 141.91,153.31 C 142.51,153.82 143.2,154.36 143.81,154.94 C 144.49,155.58 145.07,156.27 145.44,156.81 C 145.8,157.36 145.94,157.74 146.0,158.09 C 146.07,158.49 146.03,158.92 145.91,159.28 C 145.84,159.47 145.75,159.64 145.59,159.81 C 145.47,159.95 145.33,160.08 145.19,160.06 C 145.05,160.05 144.93,159.88 144.84,159.72 C 144.64,159.36 144.58,159.03 144.47,158.69 C 144.32,158.21 144.07,157.74 143.78,157.31 C 142.77,155.82 141.27,154.98 139.69,154.03 C 138.84,153.52 137.96,152.99 137.22,152.31 C 136.01,151.21 135.13,149.73 134.81,148.19 C 134.56,146.94 134.69,145.66 135.34,144.66 C 135.64,144.19 136.03,143.77 136.5,143.44 z M 163.34,143.44 C 163.39,143.41 163.45,143.4 163.5,143.44 C 163.97,143.77 164.36,144.19 164.66,144.66 C 165.31,145.66 165.44,146.94 165.19,148.19 C 164.87,149.73 163.99,151.21 162.78,152.31 C 162.04,152.99 161.16,153.52 160.31,154.03 C 158.73,154.98 157.23,155.82 156.22,157.31 C 155.93,157.74 155.68,158.21 155.53,158.69 C 155.42,159.03 155.36,159.36 155.16,159.72 C 155.07,159.88 154.95,160.05 154.81,160.06 C 154.67,160.08 154.53,159.95 154.41,159.81 C 154.25,159.64 154.16,159.47 154.09,159.28 C 153.97,158.92 153.93,158.49 154.0,158.09 C 154.06,157.74 154.2,157.36 154.56,156.81 C 154.93,156.27 155.51,155.58 156.19,154.94 C 156.8,154.36 157.49,153.82 158.09,153.31 C 160.15,151.57 161.27,150.2 162.06,148.66 C 162.76,147.3 163.2,145.8 163.25,144.25 C 163.26,144.02 163.26,143.79 163.25,143.56 C 163.25,143.5 163.3,143.46 163.34,143.44 z"
		 />
		 <path style="fill:#f00;stroke:none;"
		 d="M 133.2,155.14 C 133.54,154.68 133.84,154.19 134.11,153.69 C 134.3,153.34 134.48,152.99 134.58,152.61 C 134.71,152.1 134.72,151.55 134.64,151.02 C 134.51,150.11 134.15,149.27 133.96,148.37 C 133.79,147.6 133.76,146.8 133.89,146.02 C 133.98,145.43 134.18,144.85 134.48,144.34 C 134.62,144.09 134.79,143.86 134.97,143.64 C 134.55,143.86 134.15,144.13 133.8,144.46 C 133.49,144.74 133.22,145.05 133.02,145.4 C 132.7,145.93 132.52,146.55 132.48,147.16 C 132.44,147.77 132.53,148.37 132.68,148.95 C 132.91,149.82 133.26,150.63 133.56,151.49 C 133.74,151.98 133.9,152.5 133.87,153.0 C 133.84,153.41 133.69,153.81 133.55,154.21 C 133.43,154.52 133.33,154.83 133.2,155.14 z M 124.4,153.92 C 124.64,154.22 124.91,154.52 125.22,154.79 C 125.65,155.18 126.15,155.53 126.58,155.89 C 127.36,156.54 127.88,157.23 128.38,157.94 C 128.58,158.22 128.77,158.51 128.98,158.84 C 128.9,158.39 128.82,158.02 128.74,157.65 C 128.66,157.27 128.57,156.9 128.36,156.52 C 128.06,156.0 127.53,155.47 126.94,155.1 C 126.42,154.78 125.86,154.58 125.33,154.35 C 125.01,154.21 124.7,154.06 124.4,153.92 z M 133.64,158.46 C 133.39,158.25 133.15,158.01 132.96,157.75 C 132.83,157.56 132.72,157.36 132.65,157.16 C 132.55,156.88 132.53,156.58 132.53,156.28 C 132.53,155.91 132.57,155.52 132.57,155.14 C 132.58,154.57 132.5,153.99 132.34,153.45 C 132.19,152.91 131.97,152.39 131.69,151.92 C 131.48,151.56 131.23,151.22 130.99,150.88 C 130.78,150.59 130.58,150.28 130.4,149.99 C 130.09,149.5 129.84,149.03 129.69,148.46 C 129.59,148.12 129.53,147.74 129.52,147.37 C 129.51,147.14 129.52,146.92 129.46,146.89 C 129.36,146.84 129.09,147.21 128.94,147.56 C 128.78,147.94 128.74,148.29 128.76,148.63 C 128.79,149.37 129.08,150.01 129.44,150.56 C 129.8,151.11 130.22,151.56 130.66,152.18 C 131.04,152.72 131.43,153.39 131.64,154.05 C 131.83,154.6 131.89,155.15 131.99,155.71 C 132.04,156.05 132.11,156.4 132.2,156.72 C 132.32,157.14 132.48,157.5 132.8,157.84 C 133.04,158.09 133.37,158.32 133.64,158.46 z M 127.09,162.3 C 127.22,162.51 127.36,162.73 127.51,162.94 C 127.92,163.52 128.36,164.09 128.87,164.58 C 129.6,165.29 130.48,165.86 131.45,166.17 C 132.57,166.54 133.8,166.56 134.92,166.23 C 136.31,165.82 137.52,164.87 138.38,163.71 C 138.88,163.03 139.3,162.25 139.59,161.37 C 140.3,159.26 140.28,156.51 138.78,154.89 C 138.33,154.41 137.76,154.03 137.13,153.86 C 136.43,153.68 135.66,153.75 135.01,154.05 C 134.48,154.29 134.03,154.69 133.72,155.2 C 133.35,155.82 133.18,156.62 133.41,157.27 C 133.6,157.79 134.04,158.22 134.57,158.48 C 134.97,158.66 135.41,158.75 135.82,158.65 C 136.01,158.61 136.19,158.52 136.36,158.39 C 136.5,158.28 136.63,158.15 136.71,158.0 C 136.8,157.85 136.84,157.7 136.82,157.53 C 136.8,157.41 136.75,157.27 136.65,157.17 C 136.53,157.04 136.33,156.96 136.16,156.97 C 136.02,156.97 135.89,157.03 135.79,157.1 C 135.74,157.15 135.69,157.21 135.65,157.27 C 135.59,157.34 135.55,157.42 135.48,157.47 C 135.4,157.54 135.29,157.58 135.18,157.57 C 135.04,157.57 134.92,157.52 134.82,157.44 C 134.61,157.26 134.53,156.96 134.52,156.67 C 134.5,156.27 134.61,155.89 134.82,155.57 C 135.01,155.3 135.28,155.08 135.58,154.94 C 135.91,154.79 136.28,154.73 136.64,154.77 C 137.01,154.8 137.37,154.93 137.67,155.13 C 137.98,155.35 138.23,155.67 138.43,156.02 C 138.73,156.55 138.91,157.16 139.02,157.86 C 139.18,158.92 139.15,160.16 138.72,161.24 C 138.69,161.32 138.65,161.41 138.6,161.48 C 138.34,161.25 138.16,160.99 138.0,160.71 C 137.78,160.32 137.59,159.88 137.47,159.42 C 137.59,160.09 137.6,160.78 137.49,161.47 C 137.35,162.36 137.01,163.25 136.42,163.92 C 135.85,164.56 135.05,165.0 134.21,165.2 C 133.05,165.48 131.8,165.31 130.72,164.84 C 129.82,164.45 129.03,163.85 128.26,163.25 C 127.86,162.94 127.47,162.63 127.09,162.3 z M 130.06,160.86 C 130.03,160.82 129.97,160.73 129.91,160.64 C 129.85,160.55 129.78,160.46 129.71,160.37 C 129.36,159.91 128.94,159.51 128.5,159.21 C 128.18,158.99 127.84,158.81 127.44,158.64 C 127.12,158.5 126.76,158.37 126.05,158.21 C 126.35,158.53 127.02,159.04 127.52,159.47 C 128.08,159.97 128.42,160.35 128.65,160.7 C 128.86,161.03 128.99,161.35 129.15,161.68 C 129.39,162.2 129.7,162.76 130.17,163.24 C 130.56,163.64 131.07,163.97 131.65,164.16 C 132.17,164.33 132.76,164.39 133.33,164.32 C 133.61,164.28 133.89,164.22 134.16,164.13 C 134.46,164.03 134.76,163.89 135.03,163.72 C 135.48,163.43 135.86,163.05 136.12,162.57 C 136.2,162.42 136.27,162.25 136.33,162.07 C 136.46,161.63 136.49,161.15 136.4,160.74 C 136.31,160.31 136.1,159.95 135.75,159.68 C 135.37,159.38 134.82,159.18 134.27,159.2 C 133.88,159.22 133.49,159.35 133.24,159.62 C 132.98,159.88 132.87,160.28 132.91,160.65 C 132.95,160.98 133.1,161.27 133.35,161.45 C 133.6,161.63 133.94,161.68 134.24,161.57 C 134.42,161.5 134.58,161.38 134.65,161.22 C 134.69,161.13 134.7,161.04 134.7,160.94 C 134.71,160.86 134.71,160.77 134.76,160.72 C 134.8,160.67 134.87,160.65 134.93,160.65 C 135.03,160.66 135.11,160.73 135.17,160.81 C 135.25,160.92 135.29,161.04 135.31,161.16 C 135.35,161.42 135.31,161.7 135.21,161.95 C 135.16,162.06 135.1,162.16 135.03,162.26 C 134.9,162.44 134.72,162.6 134.53,162.71 C 134.07,162.98 133.49,162.98 133.03,162.81 C 132.57,162.64 132.23,162.3 131.96,161.87 C 131.66,161.39 131.46,160.81 131.35,160.25 C 131.13,159.2 131.2,158.2 131.04,157.15 C 130.93,156.4 130.7,155.63 130.25,154.98 C 129.47,153.86 128.02,153.13 126.89,152.32 C 126.59,152.1 126.31,151.88 126.04,151.63 C 125.77,151.37 125.51,151.09 125.27,150.79 C 125.13,150.63 125.01,150.46 124.89,150.29 C 124.77,150.13 124.66,149.96 124.55,149.78 C 124.58,150.09 124.63,150.39 124.73,150.68 C 124.96,151.38 125.47,151.97 126.0,152.5 C 126.43,152.93 126.88,153.32 127.37,153.76 C 128.08,154.41 128.89,155.17 129.28,156.01 C 129.56,156.62 129.62,157.27 129.68,157.91 C 129.72,158.39 129.76,158.86 129.82,159.35 C 129.88,159.8 129.95,160.25 130.04,160.63 C 130.06,160.72 130.09,160.8 130.09,160.85 C 130.1,160.89 130.09,160.89 130.06,160.86 z M 153.96,142.61 C 153.88,142.67 153.8,142.72 153.73,142.78 C 153.63,142.85 153.54,142.93 153.45,143.01 C 153.34,143.11 153.23,143.23 153.14,143.35 C 152.98,143.54 152.85,143.75 152.72,143.96 C 152.53,144.27 152.34,144.57 152.14,144.86 C 151.92,145.2 151.69,145.53 151.46,145.87 C 151.25,146.17 151.04,146.47 150.81,146.75 C 150.74,146.83 150.68,146.91 150.61,146.98 C 150.57,147.02 150.53,147.05 150.49,147.08 C 150.45,147.1 150.42,147.12 150.38,147.12 C 150.36,147.13 150.34,147.12 150.32,147.11 C 150.26,147.09 150.21,147.05 150.18,147.0 C 150.16,146.96 150.14,146.93 150.13,146.89 C 150.1,146.8 150.09,146.7 150.1,146.6 C 150.1,146.48 150.12,146.37 150.15,146.25 C 150.19,146.07 150.25,145.9 150.32,145.73 C 150.38,145.58 150.44,145.43 150.5,145.28 C 150.55,145.13 150.6,144.99 150.62,145.0 C 150.64,145.0 150.57,145.21 150.49,145.42 C 150.42,145.62 150.34,145.81 150.29,146.01 C 150.24,146.18 150.2,146.34 150.22,146.53 C 150.22,146.59 150.23,146.65 150.26,146.71 C 150.27,146.76 150.3,146.81 150.33,146.84 C 150.36,146.86 150.4,146.88 150.43,146.87 C 150.46,146.86 150.49,146.83 150.51,146.8 C 150.61,146.67 150.69,146.55 150.8,146.41 C 151.07,146.03 151.47,145.47 151.75,145.06 C 151.92,144.81 152.05,144.61 152.19,144.39 C 152.34,144.16 152.5,143.9 152.66,143.64 C 152.81,143.4 152.97,143.17 153.13,142.94 C 153.21,142.81 153.3,142.69 153.38,142.57 C 153.41,142.53 153.42,142.48 153.41,142.43 C 153.4,142.38 153.37,142.34 153.33,142.32 C 152.83,141.99 152.28,141.62 151.77,141.29 C 151.72,141.25 151.64,141.25 151.58,141.29 C 151.53,141.32 151.49,141.39 151.5,141.46 C 151.51,141.52 151.52,141.57 151.52,141.63 C 151.54,141.72 151.54,141.83 151.53,141.93 C 151.56,141.94 151.59,141.95 151.63,141.96 C 151.68,141.99 151.72,142.04 151.74,142.09 C 151.79,142.21 151.73,142.36 151.72,142.49 C 151.71,142.62 151.74,142.74 151.74,142.87 C 151.75,142.99 151.73,143.12 151.69,143.22 C 151.65,143.35 151.59,143.45 151.47,143.58 C 151.4,143.66 151.32,143.76 151.27,143.73 C 151.23,143.7 151.21,143.58 151.21,143.49 C 151.19,143.31 151.22,143.21 151.22,143.09 C 151.23,142.92 151.22,142.74 151.22,142.56 C 151.22,142.51 151.23,142.46 151.23,142.4 C 151.17,142.44 151.1,142.47 151.03,142.48 C 150.95,142.5 150.86,142.49 150.78,142.46 C 150.69,142.43 150.61,142.36 150.56,142.28 C 150.51,142.19 150.49,142.08 150.5,141.98 C 150.51,141.88 150.55,141.78 150.61,141.69 C 150.68,141.59 150.77,141.51 150.87,141.44 C 150.97,141.35 151.07,141.27 151.16,141.18 C 151.24,141.11 151.31,141.02 151.37,140.92 C 151.41,140.84 151.44,140.76 151.45,140.67 C 151.47,140.57 151.48,140.46 151.53,140.39 C 151.57,140.33 151.65,140.28 151.72,140.25 C 151.86,140.2 152.01,140.19 152.15,140.16 C 152.28,140.14 152.4,140.1 152.51,140.04 C 152.58,140.0 152.63,139.96 152.69,139.92 C 152.63,139.79 152.61,139.66 152.63,139.52 C 152.64,139.4 152.69,139.28 152.75,139.17 C 152.84,139.02 152.96,138.9 153.09,138.79 C 153.37,138.55 153.7,138.32 154.06,138.14 C 154.54,137.89 155.07,137.74 155.5,137.67 C 155.86,137.62 156.15,137.62 156.37,137.63 C 156.73,137.65 156.94,137.69 157.07,137.72 C 157.21,137.75 157.27,137.76 157.3,137.77 C 157.33,137.78 157.34,137.79 157.35,137.79 C 157.36,137.8 157.37,137.81 157.38,137.81 C 157.38,137.82 157.36,137.83 157.3,137.82 C 157.24,137.82 157.14,137.8 156.74,137.76 C 156.7,137.76 156.65,137.75 156.59,137.75 C 156.52,137.75 156.44,137.75 156.34,137.75 C 156.16,137.76 155.94,137.78 155.71,137.83 C 155.29,137.91 154.82,138.08 154.49,138.37 C 154.34,138.51 154.21,138.67 154.17,138.86 C 154.13,139.06 154.18,139.29 154.19,139.5 C 154.19,139.62 154.19,139.73 154.16,139.83 C 154.12,139.98 154.03,140.11 153.92,140.21 C 153.78,140.33 153.59,140.39 153.41,140.39 C 153.35,140.39 153.29,140.39 153.23,140.37 C 153.19,140.78 153.22,141.2 153.35,141.59 C 153.48,141.97 153.69,142.32 153.96,142.61 z M 169.94,160.86 C 169.97,160.82 170.03,160.73 170.09,160.64 C 170.15,160.55 170.22,160.46 170.29,160.37 C 170.64,159.91 171.06,159.51 171.5,159.21 C 171.82,158.99 172.16,158.81 172.56,158.64 C 172.88,158.5 173.24,158.37 173.95,158.21 C 173.65,158.53 172.98,159.04 172.48,159.47 C 171.92,159.97 171.58,160.35 171.35,160.7 C 171.14,161.03 171.01,161.35 170.85,161.68 C 170.61,162.2 170.3,162.76 169.83,163.24 C 169.44,163.64 168.93,163.97 168.35,164.16 C 167.83,164.33 167.24,164.39 166.67,164.32 C 166.39,164.28 166.11,164.22 165.84,164.13 C 165.54,164.03 165.24,163.89 164.97,163.72 C 164.52,163.43 164.14,163.05 163.88,162.57 C 163.8,162.42 163.73,162.25 163.67,162.07 C 163.54,161.63 163.51,161.15 163.6,160.74 C 163.69,160.31 163.91,159.95 164.25,159.68 C 164.64,159.38 165.18,159.18 165.73,159.2 C 166.12,159.22 166.51,159.35 166.76,159.62 C 167.02,159.88 167.13,160.28 167.09,160.65 C 167.05,160.98 166.9,161.27 166.65,161.45 C 166.4,161.63 166.06,161.68 165.76,161.57 C 165.58,161.5 165.42,161.38 165.35,161.22 C 165.31,161.13 165.3,161.04 165.3,160.94 C 165.29,160.86 165.29,160.77 165.24,160.72 C 165.2,160.67 165.13,160.65 165.07,160.65 C 164.97,160.66 164.89,160.73 164.83,160.81 C 164.75,160.92 164.71,161.04 164.69,161.16 C 164.65,161.42 164.69,161.7 164.79,161.95 C 164.84,162.06 164.9,162.16 164.97,162.26 C 165.1,162.44 165.28,162.6 165.47,162.71 C 165.93,162.98 166.51,162.98 166.97,162.81 C 167.43,162.64 167.77,162.3 168.04,161.87 C 168.34,161.39 168.54,160.81 168.65,160.25 C 168.87,159.2 168.8,158.2 168.96,157.15 C 169.07,156.4 169.3,155.63 169.75,154.98 C 170.53,153.86 171.98,153.13 173.11,152.32 C 173.41,152.1 173.69,151.88 173.96,151.63 C 174.23,151.37 174.49,151.09 174.73,150.79 C 174.87,150.63 174.99,150.46 175.11,150.29 C 175.23,150.13 175.34,149.96 175.45,149.78 C 175.42,150.09 175.37,150.39 175.27,150.68 C 175.04,151.38 174.53,151.97 174.0,152.5 C 173.57,152.93 173.12,153.32 172.63,153.76 C 171.92,154.41 171.11,155.17 170.72,156.01 C 170.44,156.62 170.38,157.27 170.32,157.91 C 170.28,158.39 170.24,158.86 170.18,159.35 C 170.12,159.8 170.05,160.25 169.96,160.63 C 169.94,160.72 169.91,160.8 169.91,160.85 C 169.9,160.89 169.91,160.89 169.94,160.86 z M 172.91,162.3 C 172.78,162.51 172.64,162.73 172.49,162.94 C 172.08,163.52 171.64,164.09 171.13,164.58 C 170.4,165.29 169.52,165.86 168.55,166.17 C 167.43,166.54 166.2,166.56 165.08,166.23 C 163.69,165.82 162.48,164.87 161.62,163.71 C 161.12,163.03 160.7,162.25 160.41,161.37 C 159.7,159.26 159.72,156.51 161.22,154.89 C 161.67,154.41 162.24,154.03 162.87,153.86 C 163.57,153.68 164.34,153.75 164.99,154.05 C 165.52,154.29 165.97,154.69 166.28,155.2 C 166.65,155.82 166.82,156.62 166.59,157.27 C 166.4,157.79 165.96,158.22 165.43,158.48 C 165.03,158.66 164.59,158.75 164.18,158.65 C 163.99,158.61 163.81,158.52 163.64,158.39 C 163.5,158.28 163.37,158.15 163.29,158.0 C 163.2,157.85 163.16,157.7 163.18,157.53 C 163.2,157.41 163.25,157.27 163.35,157.17 C 163.47,157.04 163.67,156.96 163.84,156.97 C 163.98,156.97 164.11,157.03 164.21,157.1 C 164.26,157.15 164.31,157.21 164.35,157.27 C 164.41,157.34 164.45,157.42 164.52,157.47 C 164.6,157.54 164.71,157.58 164.82,157.57 C 164.96,157.57 165.08,157.52 165.18,157.44 C 165.39,157.26 165.47,156.96 165.48,156.67 C 165.5,156.27 165.39,155.89 165.18,155.57 C 164.99,155.3 164.72,155.08 164.42,154.94 C 164.09,154.79 163.72,154.73 163.36,154.77 C 162.99,154.8 162.63,154.93 162.33,155.13 C 162.02,155.35 161.77,155.67 161.57,156.02 C 161.27,156.55 161.09,157.16 160.98,157.86 C 160.82,158.92 160.85,160.16 161.28,161.24 C 161.31,161.32 161.35,161.41 161.4,161.48 C 161.66,161.25 161.84,160.99 162.0,160.71 C 162.22,160.32 162.42,159.88 162.53,159.42 C 162.41,160.09 162.4,160.78 162.51,161.47 C 162.65,162.36 162.99,163.25 163.58,163.92 C 164.15,164.56 164.95,165.0 165.79,165.2 C 166.95,165.48 168.2,165.31 169.28,164.84 C 170.18,164.45 170.97,163.85 171.74,163.25 C 172.14,162.94 172.53,162.63 172.91,162.3 z M 166.36,158.46 C 166.61,158.25 166.85,158.01 167.04,157.75 C 167.17,157.56 167.28,157.36 167.35,157.16 C 167.45,156.88 167.47,156.58 167.47,156.28 C 167.47,155.91 167.43,155.52 167.43,155.14 C 167.42,154.57 167.5,153.99 167.66,153.45 C 167.81,152.91 168.03,152.39 168.31,151.92 C 168.52,151.56 168.77,151.22 169.01,150.88 C 169.22,150.59 169.42,150.28 169.6,149.99 C 169.91,149.5 170.16,149.03 170.31,148.46 C 170.41,148.12 170.47,147.74 170.48,147.37 C 170.49,147.14 170.48,146.92 170.54,146.89 C 170.64,146.84 170.91,147.21 171.06,147.56 C 171.22,147.94 171.26,148.29 171.24,148.63 C 171.21,149.37 170.92,150.01 170.56,150.56 C 170.2,151.11 169.78,151.56 169.34,152.18 C 168.96,152.72 168.57,153.39 168.36,154.05 C 168.17,154.6 168.11,155.15 168.01,155.71 C 167.96,156.05 167.89,156.4 167.8,156.72 C 167.68,157.14 167.52,157.5 167.2,157.84 C 166.96,158.09 166.63,158.32 166.36,158.46 z M 175.6,153.92 C 175.36,154.22 175.09,154.52 174.78,154.79 C 174.35,155.18 173.85,155.53 173.42,155.89 C 172.64,156.54 172.12,157.23 171.62,157.94 C 171.42,158.22 171.23,158.51 171.02,158.84 C 171.1,158.39 171.18,158.02 171.26,157.65 C 171.34,157.27 171.43,156.9 171.64,156.52 C 171.94,156.0 172.47,155.47 173.06,155.1 C 173.58,154.78 174.14,154.58 174.67,154.35 C 174.99,154.21 175.3,154.06 175.6,153.92 z M 166.8,155.14 C 166.46,154.68 166.16,154.19 165.89,153.69 C 165.7,153.34 165.52,152.99 165.42,152.61 C 165.29,152.1 165.28,151.55 165.36,151.02 C 165.49,150.11 165.85,149.27 166.04,148.37 C 166.21,147.6 166.24,146.8 166.11,146.02 C 166.02,145.43 165.82,144.85 165.52,144.34 C 165.38,144.09 165.21,143.86 165.03,143.64 C 165.45,143.86 165.85,144.13 166.2,144.46 C 166.51,144.74 166.78,145.05 166.98,145.4 C 167.3,145.93 167.48,146.55 167.52,147.16 C 167.56,147.77 167.47,148.37 167.32,148.95 C 167.1,149.82 166.74,150.63 166.44,151.49 C 166.26,151.98 166.1,152.5 166.13,153.0 C 166.16,153.41 166.31,153.81 166.45,154.21 C 166.57,154.52 166.67,154.83 166.8,155.14 z M 165.03,143.64 C 165.36,143.81 165.68,144.02 165.97,144.26 C 166.35,144.57 166.7,144.93 166.96,145.35 C 167.24,145.82 167.42,146.35 167.49,146.89 C 167.59,147.6 167.49,148.34 167.3,149.03 C 167.11,149.69 166.83,150.3 166.63,150.96 C 166.31,152.02 166.18,153.18 166.47,154.24 C 166.55,154.55 166.67,154.85 166.8,155.14 C 166.59,154.86 166.39,154.57 166.22,154.27 C 165.85,153.64 165.57,152.95 165.45,152.23 C 165.35,151.58 165.39,150.91 165.52,150.26 C 165.7,149.32 166.07,148.43 166.17,147.49 C 166.25,146.75 166.18,145.98 165.93,145.27 C 165.73,144.68 165.42,144.13 165.03,143.64 z M 134.97,143.64 C 134.64,143.81 134.32,144.02 134.03,144.26 C 133.65,144.57 133.3,144.93 133.04,145.35 C 132.76,145.82 132.58,146.35 132.51,146.89 C 132.41,147.6 132.51,148.34 132.7,149.03 C 132.89,149.69 133.17,150.3 133.37,150.96 C 133.69,152.02 133.82,153.18 133.53,154.24 C 133.45,154.55 133.33,154.85 133.2,155.14 C 133.41,154.86 133.61,154.57 133.78,154.27 C 134.15,153.64 134.43,152.95 134.55,152.23 C 134.65,151.58 134.61,150.91 134.48,150.26 C 134.3,149.32 133.93,148.43 133.83,147.49 C 133.75,146.75 133.82,145.98 134.07,145.27 C 134.27,144.68 134.58,144.13 134.97,143.64 z M 157.76,137.9 C 157.94,137.95 158.11,138.01 158.27,138.08 C 158.69,138.25 159.08,138.5 159.44,138.78 C 160.28,139.44 160.93,140.33 161.37,141.3 C 161.67,141.99 161.87,142.72 161.95,143.48 C 162.14,145.14 161.78,146.9 161.0,148.38 C 160.54,149.27 159.92,150.06 159.24,150.78 C 158.62,151.43 157.95,152.03 157.27,152.61 C 156.94,152.9 156.6,153.18 156.27,153.47 C 155.81,153.88 155.35,154.29 154.91,154.73 C 154.5,155.14 154.11,155.57 153.75,156.05 C 153.44,156.45 153.16,156.89 152.98,157.36 C 152.74,157.95 152.68,158.6 152.73,159.22 C 152.77,159.69 152.87,160.15 153.1,160.57 C 153.35,161.02 153.74,161.42 154.2,161.74 C 154.55,161.99 154.95,162.18 155.36,162.29 C 155.87,162.42 156.38,162.42 156.86,162.28 C 157.23,162.17 157.59,161.97 157.87,161.7 C 158.09,161.48 158.27,161.23 158.38,160.93 C 158.48,160.64 158.51,160.31 158.4,160.03 C 158.31,159.81 158.13,159.62 157.9,159.53 C 157.66,159.44 157.38,159.45 157.19,159.6 C 157.06,159.7 156.97,159.87 156.96,160.04 C 156.96,160.21 157.04,160.37 157.16,160.48 C 157.27,160.58 157.4,160.64 157.54,160.64 C 157.63,160.64 157.72,160.61 157.79,160.56 C 157.86,160.51 157.92,160.43 157.95,160.35 C 157.97,160.47 157.97,160.6 157.92,160.72 C 157.87,160.86 157.77,160.98 157.64,161.06 C 157.47,161.16 157.27,161.2 157.08,161.18 C 156.84,161.15 156.63,161.02 156.48,160.85 C 156.33,160.68 156.24,160.47 156.2,160.24 C 156.16,159.96 156.2,159.65 156.3,159.38 C 156.44,159.02 156.7,158.71 157.04,158.54 C 157.44,158.35 157.96,158.35 158.38,158.49 C 158.83,158.63 159.17,158.93 159.36,159.31 C 159.59,159.76 159.62,160.31 159.5,160.81 C 159.38,161.31 159.09,161.75 158.74,162.12 C 158.46,162.41 158.13,162.65 157.77,162.83 C 157.2,163.1 156.55,163.22 155.92,163.17 C 155.33,163.13 154.75,162.94 154.27,162.62 C 154.13,162.53 154.0,162.42 153.88,162.31 C 153.81,162.78 153.9,163.28 154.09,163.7 C 153.86,163.61 153.63,163.48 153.42,163.34 C 152.7,162.81 152.33,161.97 152.1,161.04 C 151.88,160.14 151.8,159.16 152.0,158.27 C 151.84,158.65 151.7,159.04 151.6,159.43 C 151.48,159.95 151.42,160.48 151.4,161.03 C 151.39,161.59 151.42,162.18 151.54,162.72 C 151.66,163.27 151.86,163.79 152.14,164.2 C 152.42,164.6 152.77,164.9 153.19,165.08 C 153.53,165.23 153.91,165.3 154.32,165.25 C 154.71,165.2 155.13,165.04 155.41,164.76 C 155.53,164.64 155.63,164.48 155.69,164.27 C 155.74,164.11 155.76,163.92 155.76,163.75 C 156.17,163.91 156.4,164.21 156.51,164.51 C 156.65,164.88 156.61,165.25 156.45,165.57 C 156.21,166.03 155.72,166.36 155.18,166.48 C 155.04,166.51 154.89,166.53 154.75,166.54 C 154.6,166.55 154.46,166.55 154.35,166.55 C 154.26,166.55 154.19,166.54 154.18,166.56 C 154.17,166.57 154.22,166.6 154.33,166.66 C 154.41,166.7 154.51,166.76 154.62,166.81 C 154.72,166.86 154.83,166.92 154.95,166.97 C 155.53,167.23 156.19,167.44 156.95,167.53 C 157.3,167.57 157.67,167.58 158.0,167.56 C 158.5,167.53 158.92,167.42 159.31,167.25 C 159.82,167.02 160.26,166.66 160.52,166.22 C 160.75,165.83 160.84,165.36 160.73,164.93 C 160.64,164.59 160.42,164.26 160.11,164.11 C 159.83,163.97 159.47,163.98 159.18,164.1 C 159.03,164.16 158.9,164.25 158.79,164.36 C 158.86,164.36 158.92,164.36 158.98,164.36 C 159.06,164.37 159.13,164.38 159.2,164.41 C 159.32,164.45 159.43,164.51 159.51,164.59 C 159.64,164.71 159.72,164.88 159.74,165.05 C 159.77,165.24 159.73,165.45 159.64,165.62 C 159.53,165.84 159.34,166.02 159.1,166.12 C 158.88,166.21 158.62,166.22 158.4,166.14 C 158.15,166.05 157.94,165.86 157.82,165.62 C 157.65,165.28 157.68,164.86 157.82,164.5 C 157.98,164.11 158.27,163.8 158.64,163.59 C 159.14,163.3 159.78,163.21 160.32,163.39 C 160.8,163.55 161.2,163.93 161.43,164.39 C 161.69,164.89 161.73,165.5 161.58,166.06 C 161.38,166.81 160.83,167.47 160.13,167.91 C 159.55,168.28 158.86,168.5 158.03,168.54 C 157.6,168.56 157.12,168.53 156.69,168.47 C 155.8,168.35 155.09,168.11 154.43,167.78 C 153.99,167.56 153.58,167.31 153.2,167.03 C 152.29,166.35 151.6,165.48 151.17,164.52 C 150.72,163.52 150.54,162.42 150.55,161.32 C 150.56,160.6 150.65,159.88 150.83,159.18 C 151.08,158.25 151.48,157.35 152.0,156.54 C 152.47,155.8 153.03,155.12 153.62,154.49 C 154.55,153.48 155.57,152.57 156.54,151.64 C 157.17,151.05 157.78,150.45 158.32,149.84 C 158.97,149.12 159.53,148.4 159.95,147.42 C 160.98,145.01 161.18,141.06 159.41,139.08 C 159.07,138.7 158.66,138.39 158.22,138.16 C 158.07,138.08 157.92,138.01 157.76,137.95 C 157.75,137.95 157.74,137.94 157.73,137.94 C 157.72,137.93 157.71,137.93 157.69,137.92 C 157.68,137.91 157.67,137.9 157.67,137.9 C 157.67,137.89 157.69,137.89 157.71,137.89 C 157.73,137.89 157.75,137.89 157.76,137.9 z M 142.24,137.9 C 142.25,137.89 142.27,137.89 142.29,137.89 C 142.31,137.89 142.33,137.89 142.33,137.9 C 142.33,137.9 142.32,137.91 142.31,137.92 C 142.29,137.93 142.28,137.93 142.27,137.94 C 142.26,137.94 142.25,137.95 142.24,137.95 C 142.08,138.01 141.93,138.08 141.78,138.16 C 141.34,138.39 140.93,138.7 140.59,139.08 C 138.82,141.06 139.02,145.01 140.05,147.42 C 140.47,148.4 141.03,149.12 141.68,149.84 C 142.22,150.45 142.83,151.05 143.46,151.64 C 144.43,152.57 145.45,153.48 146.38,154.49 C 146.97,155.12 147.53,155.8 148.0,156.54 C 148.52,157.35 148.92,158.25 149.17,159.18 C 149.35,159.88 149.44,160.6 149.45,161.32 C 149.46,162.42 149.28,163.52 148.83,164.52 C 148.4,165.48 147.71,166.35 146.8,167.03 C 146.42,167.31 146.01,167.56 145.57,167.78 C 144.91,168.11 144.2,168.35 143.31,168.47 C 142.88,168.53 142.4,168.56 141.97,168.54 C 141.14,168.5 140.45,168.28 139.87,167.91 C 139.17,167.47 138.62,166.81 138.42,166.06 C 138.27,165.5 138.31,164.89 138.57,164.39 C 138.8,163.93 139.2,163.55 139.68,163.39 C 140.22,163.21 140.86,163.3 141.36,163.59 C 141.73,163.8 142.02,164.11 142.18,164.5 C 142.32,164.86 142.35,165.28 142.18,165.62 C 142.06,165.86 141.85,166.05 141.6,166.14 C 141.38,166.22 141.12,166.21 140.9,166.12 C 140.67,166.02 140.47,165.84 140.36,165.62 C 140.27,165.45 140.23,165.24 140.26,165.05 C 140.28,164.88 140.36,164.71 140.49,164.59 C 140.57,164.51 140.68,164.45 140.8,164.41 C 140.87,164.38 140.94,164.37 141.02,164.36 C 141.08,164.36 141.14,164.36 141.21,164.36 C 141.1,164.25 140.97,164.16 140.82,164.1 C 140.53,163.98 140.17,163.97 139.89,164.11 C 139.58,164.26 139.36,164.59 139.27,164.93 C 139.16,165.36 139.25,165.83 139.48,166.22 C 139.74,166.66 140.18,167.02 140.69,167.25 C 141.08,167.42 141.5,167.53 142.0,167.56 C 142.33,167.58 142.7,167.57 143.05,167.53 C 143.81,167.44 144.47,167.23 145.05,166.97 C 145.17,166.92 145.28,166.86 145.38,166.81 C 145.49,166.76 145.59,166.7 145.67,166.66 C 145.78,166.6 145.83,166.58 145.82,166.56 C 145.81,166.54 145.75,166.55 145.65,166.55 C 145.55,166.55 145.4,166.55 145.25,166.54 C 145.11,166.53 144.97,166.51 144.82,166.48 C 144.28,166.36 143.79,166.03 143.55,165.57 C 143.39,165.25 143.35,164.88 143.49,164.51 C 143.6,164.21 143.83,163.91 144.24,163.75 C 144.24,163.92 144.26,164.11 144.31,164.27 C 144.37,164.48 144.47,164.64 144.59,164.76 C 144.87,165.04 145.29,165.2 145.68,165.25 C 146.09,165.3 146.47,165.23 146.81,165.08 C 147.23,164.9 147.58,164.6 147.86,164.2 C 148.14,163.79 148.34,163.27 148.46,162.72 C 148.58,162.18 148.61,161.59 148.6,161.03 C 148.58,160.48 148.52,159.95 148.4,159.43 C 148.3,159.04 148.16,158.65 148.0,158.27 C 148.2,159.16 148.12,160.14 147.9,161.04 C 147.67,161.97 147.3,162.81 146.58,163.34 C 146.37,163.48 146.14,163.61 145.91,163.7 C 146.1,163.28 146.19,162.78 146.12,162.31 C 146.0,162.42 145.87,162.53 145.73,162.62 C 145.25,162.94 144.67,163.13 144.08,163.17 C 143.45,163.22 142.8,163.1 142.23,162.83 C 141.87,162.65 141.54,162.41 141.26,162.12 C 140.91,161.75 140.63,161.31 140.5,160.81 C 140.38,160.31 140.41,159.76 140.64,159.31 C 140.83,158.93 141.17,158.63 141.62,158.49 C 142.04,158.35 142.56,158.35 142.96,158.54 C 143.3,158.71 143.56,159.02 143.7,159.38 C 143.8,159.65 143.84,159.96 143.8,160.24 C 143.76,160.47 143.67,160.68 143.52,160.85 C 143.37,161.02 143.16,161.15 142.92,161.18 C 142.73,161.2 142.53,161.16 142.36,161.06 C 142.23,160.98 142.13,160.86 142.08,160.72 C 142.03,160.6 142.03,160.47 142.05,160.35 C 142.08,160.43 142.14,160.51 142.21,160.56 C 142.28,160.61 142.37,160.64 142.46,160.64 C 142.6,160.64 142.73,160.58 142.84,160.48 C 142.96,160.37 143.04,160.21 143.04,160.04 C 143.03,159.87 142.94,159.7 142.81,159.6 C 142.62,159.45 142.34,159.44 142.1,159.53 C 141.87,159.62 141.69,159.81 141.6,160.03 C 141.49,160.31 141.52,160.64 141.62,160.93 C 141.73,161.23 141.91,161.48 142.13,161.7 C 142.41,161.97 142.77,162.17 143.14,162.28 C 143.62,162.42 144.13,162.42 144.64,162.29 C 145.05,162.18 145.45,161.99 145.8,161.74 C 146.26,161.42 146.65,161.02 146.9,160.57 C 147.13,160.15 147.23,159.69 147.27,159.22 C 147.32,158.6 147.26,157.95 147.02,157.36 C 146.84,156.89 146.56,156.45 146.25,156.05 C 145.89,155.57 145.5,155.14 145.09,154.73 C 144.65,154.29 144.19,153.88 143.73,153.47 C 143.4,153.18 143.06,152.9 142.73,152.61 C 142.05,152.03 141.38,151.43 140.76,150.78 C 140.08,150.06 139.46,149.27 139.0,148.38 C 138.22,146.9 137.86,145.14 138.05,143.48 C 138.13,142.72 138.33,141.99 138.64,141.3 C 139.07,140.33 139.73,139.44 140.56,138.78 C 140.92,138.5 141.31,138.25 141.73,138.08 C 141.9,138.01 142.06,137.95 142.24,137.9 z M 146.04,142.61 C 146.12,142.67 146.2,142.72 146.27,142.78 C 146.37,142.85 146.46,142.93 146.55,143.01 C 146.66,143.11 146.77,143.23 146.86,143.35 C 147.02,143.54 147.15,143.75 147.28,143.96 C 147.47,144.27 147.66,144.57 147.86,144.86 C 148.08,145.2 148.31,145.53 148.54,145.87 C 148.75,146.17 148.96,146.47 149.19,146.75 C 149.26,146.83 149.32,146.91 149.39,146.98 C 149.43,147.02 149.47,147.05 149.51,147.08 C 149.55,147.1 149.58,147.12 149.62,147.12 C 149.64,147.13 149.66,147.12 149.68,147.11 C 149.74,147.09 149.79,147.05 149.82,147.0 C 149.84,146.96 149.86,146.93 149.87,146.89 C 149.9,146.8 149.91,146.7 149.9,146.6 C 149.9,146.48 149.88,146.37 149.85,146.25 C 149.81,146.07 149.75,145.9 149.68,145.73 C 149.62,145.58 149.56,145.43 149.5,145.28 C 149.45,145.13 149.4,144.99 149.38,145.0 C 149.36,145.0 149.43,145.21 149.51,145.42 C 149.58,145.62 149.66,145.81 149.71,146.01 C 149.76,146.18 149.8,146.34 149.78,146.53 C 149.78,146.59 149.77,146.65 149.74,146.71 C 149.73,146.76 149.7,146.81 149.67,146.84 C 149.64,146.86 149.6,146.88 149.57,146.87 C 149.54,146.86 149.51,146.83 149.49,146.8 C 149.39,146.67 149.31,146.55 149.2,146.41 C 148.93,146.03 148.53,145.47 148.25,145.06 C 148.08,144.81 147.95,144.61 147.81,144.39 C 147.66,144.16 147.5,143.9 147.34,143.64 C 147.19,143.4 147.03,143.17 146.87,142.94 C 146.79,142.81 146.7,142.69 146.62,142.57 C 146.59,142.53 146.58,142.48 146.59,142.43 C 146.6,142.38 146.63,142.34 146.67,142.32 C 147.17,141.99 147.72,141.62 148.23,141.29 C 148.28,141.25 148.36,141.25 148.42,141.29 C 148.47,141.32 148.51,141.39 148.5,141.46 C 148.49,141.52 148.48,141.57 148.48,141.63 C 148.46,141.72 148.46,141.83 148.47,141.93 C 148.44,141.94 148.41,141.95 148.37,141.96 C 148.32,141.99 148.28,142.04 148.26,142.09 C 148.21,142.21 148.27,142.36 148.28,142.49 C 148.29,142.62 148.26,142.74 148.26,142.87 C 148.25,142.99 148.27,143.12 148.31,143.22 C 148.35,143.35 148.41,143.45 148.53,143.58 C 148.6,143.66 148.68,143.76 148.73,143.73 C 148.77,143.7 148.79,143.58 148.79,143.49 C 148.81,143.31 148.79,143.21 148.78,143.09 C 148.77,142.92 148.78,142.74 148.78,142.56 C 148.78,142.51 148.77,142.46 148.77,142.4 C 148.83,142.44 148.9,142.47 148.97,142.48 C 149.05,142.5 149.14,142.49 149.22,142.46 C 149.31,142.43 149.39,142.36 149.44,142.28 C 149.49,142.19 149.51,142.08 149.5,141.98 C 149.49,141.88 149.45,141.78 149.39,141.69 C 149.32,141.59 149.23,141.51 149.13,141.44 C 149.03,141.35 148.93,141.27 148.84,141.18 C 148.76,141.11 148.69,141.02 148.63,140.92 C 148.59,140.84 148.56,140.76 148.55,140.67 C 148.53,140.57 148.52,140.46 148.47,140.39 C 148.43,140.33 148.35,140.28 148.28,140.25 C 148.14,140.2 147.99,140.19 147.85,140.16 C 147.72,140.14 147.6,140.1 147.49,140.04 C 147.42,140.0 147.37,139.96 147.31,139.92 C 147.37,139.79 147.39,139.66 147.37,139.52 C 147.36,139.4 147.31,139.28 147.25,139.17 C 147.16,139.02 147.04,138.9 146.91,138.79 C 146.63,138.55 146.3,138.32 145.94,138.14 C 145.46,137.89 144.93,137.74 144.5,137.67 C 144.14,137.62 143.85,137.62 143.63,137.63 C 143.27,137.65 143.06,137.69 142.93,137.72 C 142.79,137.75 142.73,137.76 142.7,137.77 C 142.67,137.78 142.66,137.79 142.65,137.79 C 142.64,137.8 142.63,137.81 142.62,137.81 C 142.62,137.82 142.64,137.83 142.7,137.82 C 142.76,137.82 142.86,137.8 143.26,137.76 C 143.3,137.76 143.35,137.75 143.41,137.75 C 143.48,137.75 143.56,137.75 143.66,137.75 C 143.84,137.76 144.06,137.78 144.29,137.83 C 144.71,137.91 145.18,138.08 145.51,138.37 C 145.66,138.51 145.79,138.67 145.83,138.86 C 145.87,139.06 145.82,139.29 145.81,139.5 C 145.81,139.62 145.81,139.73 145.84,139.83 C 145.88,139.98 145.97,140.11 146.08,140.21 C 146.22,140.33 146.41,140.39 146.59,140.39 C 146.65,140.39 146.71,140.39 146.77,140.37 C 146.81,140.78 146.78,141.2 146.65,141.59 C 146.52,141.97 146.31,142.32 146.04,142.61 z"
		 />

		<!-- Prism Reference -->
		<cam mingh:cam="--verb EditSelectAll --verb ZoomSelection --verb FileSave " /> 
	 </g>

</svg>
