<svg
   xmlns:xlink="http://www.w3.org/1999/xlink"
   xmlns:svg="http://www.w3.org/2000/svg"
   xmlns="http://www.w3.org/2000/svg"
   xmlns:mingh="http://www.minghworld.com"
   width="300px"
   height="300px" >
	
	 <g>
		
		<!-- Paths -->
		<path style="fill:none;stroke:#000;stroke-width:0.25px;"
		 d="M 146.84,119.84 C 146.23,119.9 145.64,120.1 145.09,120.44 C 143.63,121.33 142.88,123.04 143.22,124.72 C 143.56,126.4 144.9,127.68 146.59,127.94 C 146.75,127.96 146.81,128.16 146.69,128.25 C 145.58,129.09 144.61,129.94 143.78,130.81 C 143.72,130.88 143.63,130.89 143.56,130.84 C 142.51,130.14 141.33,129.55 139.94,129.09 C 137.79,128.39 135.17,127.98 134.03,129.41 C 133.2,130.45 133.16,132.5 133.91,133.75 C 134.43,134.62 135.31,135.09 136.34,135.38 C 136.43,135.4 136.52,135.5 136.5,135.59 C 135.99,138.43 135.7,139.94 135.41,141.47 C 134.95,143.86 134.51,146.25 134.38,148.69 C 134.3,150.03 134.29,151.39 134.41,152.69 C 134.58,154.63 134.99,156.44 135.53,158.81 C 136.16,161.54 136.99,165.01 137.75,168.34 C 137.86,169.03 138.05,169.69 138.28,170.34 C 138.69,171.5 139.23,172.59 139.75,173.69 C 140.44,175.13 141.13,176.56 141.84,178.06 C 142.12,178.64 142.39,179.22 142.88,179.63 C 143.26,179.95 143.78,180.17 144.28,180.16 C 144.77,180.15 145.25,179.92 145.66,179.63 C 146.48,179.02 147.01,178.13 147.38,177.19 C 147.62,176.57 147.77,175.93 147.84,175.28 C 147.88,174.96 147.9,174.64 147.91,174.31 C 147.93,172.88 147.75,171.43 147.59,170.0 C 147.45,168.63 147.33,167.26 147.28,165.88 C 147.24,164.9 147.22,163.93 147.38,162.97 C 147.54,161.98 147.89,160.99 148.22,160.03 C 148.55,159.07 148.88,158.13 149.31,157.22 C 149.49,156.85 149.65,156.48 149.84,156.13 C 150.05,155.74 150.27,155.37 150.5,155.0 C 150.58,154.87 150.76,154.89 150.81,155.03 C 150.84,155.11 150.88,155.18 150.91,155.25 C 151.14,155.86 151.35,156.44 151.56,156.97 C 151.79,157.56 152.0,158.1 152.28,158.72 C 152.5,159.19 152.76,159.7 153.03,160.22 C 153.25,160.64 153.5,161.07 153.75,161.47 C 154.07,161.98 154.41,162.46 154.78,162.94 C 155.3,163.61 155.84,164.25 156.41,164.88 C 157.13,165.77 157.93,166.79 158.81,167.66 C 159.29,168.12 159.8,168.56 160.28,168.84 C 160.38,168.9 160.49,168.94 160.63,168.97 C 160.75,169.0 160.89,169.01 161.03,169.0 C 161.19,168.99 161.36,168.94 161.5,168.91 C 162.47,168.68 163.43,168.48 164.38,168.13 C 165.01,167.88 165.62,167.58 166.13,167.13 C 166.21,167.05 166.31,166.97 166.38,166.88 C 166.55,166.63 166.61,166.3 166.63,166.0 C 166.64,165.63 166.6,165.27 166.56,164.91 C 166.45,163.91 166.35,162.91 166.22,161.91 C 166.09,160.96 165.92,160.01 165.66,159.09 C 165.59,158.87 165.52,158.66 165.44,158.44 C 165.34,158.19 165.24,157.93 165.13,157.72 C 164.95,157.37 164.76,157.07 164.53,156.72 C 164.33,156.4 164.09,156.04 163.88,155.69 C 163.64,155.31 163.45,154.97 163.28,154.59 C 163.09,154.15 162.91,153.67 162.72,153.22 C 162.4,152.46 162.07,151.76 161.81,151.13 C 161.51,150.39 161.3,149.79 161.06,148.97 C 160.85,148.25 160.61,147.35 160.47,146.44 C 160.36,145.74 160.33,145.04 160.31,144.34 C 160.3,143.65 160.31,142.96 160.19,142.25 C 160.13,141.89 160.02,141.53 159.88,141.22 C 159.73,140.9 159.54,140.65 159.31,140.41 C 158.98,140.05 158.59,139.73 158.19,139.44 C 157.83,139.18 157.46,138.96 157.09,138.72 C 156.74,138.49 156.31,138.13 156.0,137.78 C 155.69,137.43 155.48,137.06 155.31,136.72 C 155.15,136.38 155.02,136.08 154.88,135.69 C 154.73,135.29 154.57,134.83 154.47,134.44 C 154.37,134.04 154.34,133.68 154.31,133.16 C 154.29,132.77 154.28,132.29 154.13,130.41 C 154.12,130.34 154.14,130.29 154.19,130.25 C 154.74,129.76 155.19,129.22 155.44,128.63 C 156.02,127.23 155.54,125.52 154.38,125.03 C 153.59,124.7 152.48,124.93 151.28,125.44 C 151.14,125.5 151.01,125.36 151.06,125.22 C 151.61,123.6 151.09,121.82 149.75,120.75 C 148.91,120.08 147.87,119.76 146.84,119.84 z M 147.19,121.97 C 148.26,121.97 149.16,122.83 149.16,123.91 C 149.16,124.98 148.26,125.88 147.19,125.88 C 146.11,125.88 145.25,124.98 145.25,123.91 C 145.25,122.83 146.11,121.97 147.19,121.97 z M 146.47,135.63 C 146.57,135.61 146.64,135.68 146.66,135.78 C 146.72,136.31 146.79,136.86 146.84,137.41 C 146.94,138.34 147.02,139.27 147.03,140.19 C 147.04,141.46 146.92,142.65 147.16,144.03 C 147.25,144.57 147.4,145.16 147.56,145.59 C 147.65,145.84 147.74,146.03 147.84,146.25 C 147.92,146.41 147.99,146.57 148.06,146.75 C 148.1,146.83 148.02,146.93 147.94,146.91 C 147.59,146.8 147.25,146.7 146.94,146.56 C 146.78,146.5 146.63,146.42 146.5,146.34 C 145.43,145.74 145.46,145.29 145.47,144.41 C 145.48,143.39 145.49,141.82 146.06,135.84 C 146.07,135.76 146.14,135.67 146.22,135.66 C 146.3,135.65 146.38,135.64 146.47,135.63 z"
		 />
		 <path style="fill:#f00;stroke:none;"
		 d="M 146.78,135.6 C 148.04,135.42 149.28,135.19 150.54,134.91 C 151.78,134.64 153.02,134.33 154.24,133.97 C 154.25,134.04 154.27,134.12 154.28,134.2 C 152.0,136.38 150.81,137.69 149.64,139.02 C 148.68,140.11 147.74,141.22 147.16,142.69 C 147.16,142.63 147.16,142.57 147.16,142.51 C 147.15,142.05 147.16,141.58 147.16,141.11 C 147.16,141.09 147.16,141.07 147.17,141.05 C 147.21,141.09 147.26,141.12 147.3,141.16 C 147.57,140.71 147.87,140.28 148.19,139.87 C 148.55,139.41 148.93,138.96 149.31,138.52 C 149.06,138.34 148.81,138.16 148.57,137.97 C 147.97,137.49 147.41,136.96 146.88,136.4 C 146.85,136.13 146.82,135.86 146.78,135.6 C 146.78,135.6 146.78,135.6 146.78,135.6 z M 143.87,131.43 C 144.99,131.0 146.09,130.53 147.18,130.02 C 148.15,129.56 149.1,129.07 150.03,128.53 C 150.85,128.04 151.65,127.51 152.39,126.9 C 152.64,126.7 152.89,126.49 153.1,126.25 C 153.22,126.12 153.34,125.98 153.45,125.82 C 153.53,125.71 153.6,125.58 153.62,125.44 C 153.62,125.37 153.62,125.3 153.58,125.24 C 153.52,125.15 153.4,125.11 153.29,125.08 C 153.24,125.07 153.2,125.06 153.16,125.05 C 153.19,125.05 153.23,125.04 153.27,125.04 C 153.43,125.03 153.59,125.02 153.75,125.04 C 153.9,125.05 154.04,125.07 154.18,125.11 C 154.19,125.12 154.21,125.12 154.22,125.13 C 154.25,125.17 154.25,125.22 154.26,125.26 C 154.27,125.35 154.27,125.43 154.26,125.51 C 154.25,125.64 154.21,125.76 154.16,125.88 C 154.12,125.97 154.07,126.06 154.02,126.14 C 153.98,126.19 153.95,126.24 153.91,126.29 C 153.85,126.37 153.8,126.44 153.73,126.52 C 153.57,126.71 153.39,126.9 153.2,127.07 C 153.09,127.17 152.97,127.27 152.86,127.37 C 152.55,127.62 152.24,127.86 151.91,128.09 C 151.56,128.34 151.2,128.58 150.83,128.81 C 150.44,129.05 150.04,129.28 149.64,129.5 C 148.76,129.98 147.85,130.43 146.93,130.85 C 146.58,131.01 146.23,131.16 145.88,131.31 C 145.81,131.32 145.74,131.32 145.67,131.33 C 145.07,131.38 144.47,131.41 143.87,131.43 z M 141.42,157.75 C 141.24,158.17 141.07,158.6 140.89,159.02 C 140.43,160.08 139.96,161.12 139.4,162.14 C 138.83,163.17 138.17,164.19 137.86,165.32 C 137.69,165.94 137.62,166.59 137.63,167.24 C 137.24,165.53 136.84,163.82 136.45,162.11 C 136.23,161.17 136.02,160.23 135.8,159.29 C 135.63,158.56 135.46,157.83 135.3,157.09 C 135.16,156.46 135.03,155.83 134.91,155.19 C 134.8,154.6 134.71,154.0 134.63,153.4 C 134.61,153.22 134.59,153.04 134.58,152.87 C 134.77,153.13 135.06,153.47 135.27,153.71 C 135.87,154.39 136.21,154.7 136.68,155.06 C 137.6,155.76 138.99,156.64 140.51,157.35 C 140.81,157.49 141.11,157.63 141.42,157.75 z M 151.25,149.15 C 150.91,149.48 150.59,149.83 150.28,150.2 C 149.92,150.62 149.58,151.06 149.26,151.52 C 149.03,151.85 148.8,152.2 148.59,152.55 C 148.22,153.15 147.89,153.77 147.59,154.41 C 147.26,155.1 146.97,155.8 146.71,156.52 C 146.44,157.28 146.22,158.04 146.03,158.82 C 145.83,159.64 145.67,160.47 145.54,161.31 C 145.47,161.73 145.41,162.15 145.35,162.58 C 145.27,163.2 145.2,163.83 145.14,164.47 C 145.07,165.32 145.01,166.18 144.98,167.04 C 144.97,167.51 144.96,167.97 144.97,168.44 C 144.97,169.1 145.0,169.76 145.06,170.42 C 145.1,170.82 145.15,171.22 145.22,171.62 C 145.27,171.92 145.34,172.21 145.41,172.51 C 145.48,172.79 145.56,173.07 145.64,173.36 C 145.74,173.68 145.84,174.01 145.94,174.33 C 146.11,174.9 146.28,175.46 146.41,176.03 C 146.52,176.53 146.61,177.04 146.65,177.55 C 146.67,177.78 146.68,178.02 146.69,178.26 C 146.64,178.34 146.59,178.41 146.55,178.48 C 146.4,178.69 146.24,178.89 146.07,179.08 C 145.9,179.24 145.72,179.4 145.53,179.54 C 145.56,179.47 145.58,179.4 145.59,179.33 C 145.61,179.24 145.62,179.15 145.62,179.05 C 145.63,178.96 145.63,178.86 145.64,178.77 C 145.64,178.56 145.64,178.35 145.63,178.14 C 145.62,177.73 145.57,177.32 145.51,176.94 C 145.44,176.52 145.35,176.12 145.24,175.73 C 145.11,175.23 144.95,174.73 144.8,174.23 C 144.65,173.74 144.5,173.24 144.38,172.74 C 144.32,172.47 144.26,172.21 144.21,171.94 C 144.16,171.67 144.11,171.39 144.08,171.11 C 144.01,170.56 143.96,170.0 143.94,169.44 C 143.93,169.16 143.92,168.89 143.91,168.61 C 143.91,168.27 143.91,167.93 143.92,167.59 C 143.94,166.1 144.05,164.61 144.22,163.13 C 144.31,162.39 144.41,161.66 144.53,160.93 C 144.65,160.2 144.79,159.47 144.96,158.75 C 145.04,158.39 145.14,158.04 145.24,157.68 C 145.33,157.35 145.43,157.02 145.54,156.69 C 145.75,156.05 145.99,155.41 146.26,154.79 C 146.75,153.64 147.34,152.52 148.02,151.47 C 148.33,151.0 148.66,150.53 149.01,150.08 C 149.25,149.77 149.51,149.47 149.77,149.18 C 150.01,148.91 150.26,148.65 150.58,148.33 C 150.22,147.97 149.81,147.67 149.36,147.44 C 149.12,147.32 148.87,147.22 148.62,147.13 C 149.16,146.34 149.75,145.63 150.38,144.93 C 151.26,143.96 152.24,143.02 153.11,141.98 C 153.74,141.23 154.31,140.44 154.84,139.63 C 155.21,139.05 155.56,138.46 155.89,137.87 C 155.91,137.89 155.93,137.92 155.96,137.95 C 155.95,139.13 156.03,139.38 156.11,139.63 C 156.26,140.12 156.39,140.61 156.53,141.11 C 156.6,141.36 156.66,141.6 156.73,141.85 C 156.6,141.82 156.48,141.78 156.35,141.74 C 155.73,141.56 155.1,141.36 154.49,141.13 C 154.19,141.55 153.87,141.95 153.54,142.35 C 153.1,142.87 152.64,143.37 152.16,143.87 C 152.44,143.99 152.72,144.11 153.01,144.23 C 154.19,144.73 155.38,145.2 156.59,145.63 C 157.0,145.77 157.4,145.91 157.81,146.05 C 158.03,146.87 158.26,147.69 158.52,148.5 C 158.88,149.67 159.28,150.82 159.62,152.0 C 159.83,152.69 160.01,153.39 160.33,154.04 C 160.47,154.33 160.64,154.6 160.72,154.91 C 160.76,155.07 160.78,155.23 160.77,155.4 C 160.76,155.72 160.66,156.03 160.56,156.33 C 160.31,157.08 160.02,157.8 159.76,158.41 C 159.5,159.03 159.28,159.54 158.96,160.19 C 158.81,160.5 158.64,160.85 158.38,161.12 C 158.22,161.28 158.04,161.41 157.83,161.48 C 157.62,161.56 157.38,161.55 157.15,161.51 C 156.74,161.44 156.36,161.25 155.98,161.05 C 155.53,160.82 155.08,160.6 154.67,160.3 C 154.29,160.03 153.95,159.71 153.64,159.35 C 153.39,159.06 153.16,158.75 152.94,158.43 C 152.59,157.91 152.26,157.38 151.96,156.83 C 151.54,156.06 151.17,155.27 150.84,154.46 C 151.12,154.04 151.4,153.62 151.59,153.17 C 151.8,152.68 151.89,152.13 151.91,151.59 C 151.92,150.95 151.81,150.31 151.56,149.73 C 151.48,149.53 151.37,149.33 151.25,149.15 z M 142.69,154.4 C 142.3,154.25 141.91,154.08 141.53,153.89 C 140.77,153.51 140.05,153.06 139.33,152.6 C 138.25,151.91 137.21,151.21 136.2,150.34 C 135.66,149.88 135.14,149.38 134.62,148.69 C 134.58,148.65 134.55,148.6 134.51,148.56 C 134.52,148.5 134.52,148.44 134.53,148.38 C 134.87,148.19 135.22,148.02 135.57,147.85 C 137.0,147.17 138.49,146.66 140.01,146.19 C 141.6,145.69 143.21,145.24 144.86,145.13 C 145.02,145.12 145.18,145.11 145.34,145.11 C 145.35,145.21 145.37,145.32 145.4,145.42 C 145.44,145.55 145.51,145.68 145.59,145.79 C 145.68,145.92 145.8,146.03 145.92,146.13 C 145.95,146.16 145.99,146.19 146.02,146.21 C 146.01,146.22 146.0,146.23 145.99,146.24 C 145.85,146.37 145.68,146.69 145.53,146.99 C 144.91,148.22 144.59,149.0 144.28,149.8 C 143.81,151.05 143.4,152.36 142.95,153.65 C 142.86,153.9 142.78,154.15 142.69,154.4 z M 145.92,135.71 C 145.82,136.71 145.73,137.71 145.65,138.71 C 145.64,138.82 145.63,138.94 145.62,139.05 C 145.61,139.11 145.61,139.17 145.6,139.23 C 145.6,139.25 145.58,139.23 145.57,139.23 C 145.55,139.22 145.54,139.22 145.52,139.21 C 145.49,139.21 145.46,139.2 145.43,139.19 C 145.18,139.11 144.94,139.04 144.69,138.97 C 144.2,138.83 143.7,138.69 143.21,138.57 C 141.26,138.06 139.29,137.66 137.3,137.35 C 137.03,137.31 136.76,137.27 136.49,137.24 C 136.46,137.23 136.43,137.23 136.39,137.22 C 136.38,137.22 136.36,137.22 136.34,137.21 C 136.32,137.21 136.34,137.19 136.34,137.18 C 136.35,137.12 136.36,137.06 136.37,137.0 C 136.4,136.88 136.42,136.76 136.44,136.64 C 136.48,136.4 136.53,136.16 136.57,135.92 C 136.59,135.8 136.61,135.68 136.63,135.56 C 136.64,135.53 136.64,135.5 136.65,135.47 C 136.65,135.45 136.67,135.46 136.68,135.46 C 136.7,135.47 136.71,135.47 136.73,135.47 C 136.78,135.49 136.84,135.5 136.9,135.51 C 137.79,135.7 138.99,135.82 139.9,135.87 C 141.92,136.0 143.91,135.94 145.92,135.71 z M 153.98,130.34 C 154.0,130.56 154.02,130.78 154.03,131.0 C 152.91,131.25 151.78,131.49 150.64,131.68 C 149.54,131.88 148.43,132.03 147.32,132.15 C 146.88,132.2 146.43,132.25 145.99,132.28 C 145.58,132.32 145.17,132.34 144.76,132.37 C 144.24,132.39 143.72,132.41 143.19,132.41 C 142.59,132.41 141.99,132.4 141.4,132.36 C 140.81,132.33 140.22,132.27 139.64,132.2 C 139.06,132.12 138.47,132.02 137.9,131.89 C 137.6,131.82 137.3,131.75 137.01,131.68 C 136.83,131.63 136.65,131.58 136.47,131.53 C 136.22,131.45 135.96,131.37 135.72,131.27 C 135.48,131.17 135.24,131.06 135.02,130.93 C 134.95,130.9 134.88,130.86 134.82,130.82 C 134.68,130.73 134.54,130.64 134.41,130.53 C 134.29,130.43 134.18,130.32 134.08,130.19 C 134.0,130.09 133.93,129.98 133.9,129.85 C 133.97,129.72 134.04,129.6 134.13,129.48 C 134.21,129.38 134.3,129.29 134.4,129.21 C 134.36,129.42 134.47,129.67 134.68,129.89 C 134.86,130.08 135.12,130.25 135.37,130.39 C 135.92,130.69 136.4,130.84 136.88,130.97 C 138.14,131.32 139.31,131.52 140.51,131.64 C 141.74,131.76 142.99,131.79 144.25,131.74 C 145.1,131.71 145.96,131.64 146.82,131.55 C 147.98,131.44 149.14,131.28 150.29,131.09 C 151.53,130.88 152.76,130.62 153.98,130.34 z M 145.37,142.68 C 144.22,142.63 143.11,142.73 141.99,142.82 C 140.71,142.93 139.43,143.05 138.23,143.27 C 137.62,143.39 137.03,143.54 136.18,143.79 C 135.85,143.89 135.48,144.0 135.28,144.07 C 135.15,144.13 135.09,144.16 135.05,144.19 C 135.05,144.19 135.04,144.2 135.04,144.2 C 135.09,143.89 135.15,143.59 135.2,143.28 C 135.25,143.03 135.29,142.77 135.34,142.51 C 137.21,142.27 139.11,142.17 141.0,142.21 C 142.37,142.24 143.74,142.34 145.08,142.56 C 145.18,142.58 145.27,142.59 145.37,142.61 C 145.37,142.64 145.37,142.66 145.37,142.68 z"
		 />

		<!-- Prism Reference -->
		<cam mingh:cam="--verb EditSelectAll --verb ZoomSelection --verb FileSave" /> 
	 </g>

</svg>
