<svg
   xmlns:xlink="http://www.w3.org/1999/xlink"
   xmlns:svg="http://www.w3.org/2000/svg"
   xmlns="http://www.w3.org/2000/svg"
   xmlns:mingh="http://www.minghworld.com"
   width="300px"
   height="300px" >
	
	 <g>
		
		<!-- Paths -->
		<path style="fill:none;stroke:#000;stroke-width:0.25px;"
		 d="M 154.84,127.03 C 154.31,127.03 153.77,127.14 153.28,127.34 C 152.79,127.55 152.35,127.87 151.97,128.25 C 151.59,128.63 151.27,129.07 151.06,129.56 C 150.86,130.06 150.75,130.59 150.75,131.13 C 150.75,131.66 150.86,132.19 151.06,132.69 C 151.27,133.18 151.59,133.62 151.97,134.0 C 152.35,134.38 152.79,134.67 153.28,134.88 C 153.77,135.08 154.31,135.19 154.84,135.19 C 155.27,135.19 155.69,135.13 156.09,135.0 C 156.14,134.99 156.16,135.0 156.19,135.03 C 156.39,135.27 156.58,135.51 156.78,135.75 C 156.83,135.81 156.77,135.89 156.69,135.88 C 156.29,135.81 155.9,135.78 155.5,135.72 C 155.45,135.71 155.43,135.7 155.41,135.75 C 155.16,136.32 154.91,136.9 154.66,137.47 C 154.64,137.51 154.65,137.53 154.69,137.56 C 155.0,137.82 155.31,138.09 155.63,138.34 C 155.69,138.4 155.64,138.5 155.56,138.5 L 154.38,138.53 C 154.33,138.53 154.29,138.55 154.28,138.59 L 153.72,140.94 C 153.71,140.99 153.73,141.01 153.78,141.03 C 154.42,141.34 155.05,141.66 155.69,141.97 C 155.78,142.01 155.83,142.13 155.78,142.22 C 155.47,142.84 155.14,143.3 154.44,143.56 C 153.86,143.78 153.1,143.85 152.5,143.84 C 151.84,143.83 151.21,143.74 150.56,143.66 C 149.92,143.57 149.27,143.5 148.63,143.44 C 147.32,143.31 146.03,143.27 144.72,143.41 C 143.51,143.53 142.08,143.83 141.13,144.75 C 141.08,144.79 141.0,144.77 140.97,144.72 C 140.69,144.29 140.25,144.2 139.81,144.13 C 139.35,144.04 138.93,144.01 138.47,144.09 C 137.56,144.25 136.75,144.78 136.22,145.53 C 135.67,146.31 135.52,147.21 135.22,148.06 C 134.94,148.88 134.43,149.78 133.97,150.5 C 133.43,151.34 132.93,151.89 132.06,152.41 C 131.86,152.53 131.65,152.62 131.44,152.72 C 131.23,152.82 131.05,152.92 130.94,153.16 C 130.84,153.37 130.85,153.61 130.97,153.81 C 131.08,154.0 131.31,154.13 131.5,154.22 C 131.87,154.38 132.11,154.52 132.41,154.81 C 132.8,155.2 133.04,155.69 133.31,156.16 C 133.55,156.56 133.78,156.92 134.22,157.16 C 134.6,157.37 135.1,157.44 135.53,157.34 C 135.61,157.33 135.68,157.43 135.63,157.5 C 134.04,159.43 132.61,161.41 131.47,163.66 C 131.43,163.74 131.34,163.76 131.25,163.72 C 130.27,163.3 129.32,162.89 128.38,162.41 C 128.05,162.24 127.81,162.14 127.44,162.13 C 127.12,162.11 126.85,162.15 126.56,162.28 C 126.01,162.53 125.6,163.07 125.47,163.66 C 125.34,164.26 125.53,164.89 125.94,165.34 C 126.11,165.54 126.32,165.67 126.53,165.81 C 126.84,166.02 127.16,166.24 127.47,166.44 C 128.1,166.84 128.72,167.2 129.38,167.56 C 130.71,168.31 132.06,168.99 133.47,169.59 C 138.82,171.88 144.59,173.02 150.41,172.94 C 156.22,172.86 161.97,171.59 167.25,169.16 C 168.72,168.48 170.15,167.72 171.53,166.88 C 172.21,166.46 172.85,166.01 173.5,165.56 C 173.72,165.41 173.95,165.27 174.13,165.06 C 174.27,164.89 174.39,164.71 174.47,164.5 C 174.89,163.35 174.09,162.08 172.88,161.94 C 172.58,161.9 172.32,161.9 172.03,162.0 C 171.86,162.06 171.69,162.17 171.53,162.25 C 171.31,162.37 171.07,162.48 170.84,162.59 C 169.93,163.05 169.0,163.45 168.06,163.84 C 168.0,163.87 167.93,163.86 167.88,163.81 C 165.15,161.07 162.72,156.95 161.31,153.41 C 161.29,153.34 161.29,153.27 161.34,153.22 C 162.32,152.35 162.85,151.03 163.0,149.78 C 163.01,149.69 163.09,149.62 163.19,149.63 C 164.24,149.7 165.4,149.49 166.31,148.91 C 167.27,148.29 167.87,147.34 168.22,146.31 C 168.58,145.25 168.68,144.17 168.72,143.06 C 168.76,141.97 168.71,140.91 168.81,139.81 C 168.82,139.72 168.91,139.62 169.0,139.63 C 169.77,139.64 170.62,139.46 171.28,139.03 C 172.02,138.56 172.35,137.86 172.38,137.0 C 172.43,135.24 171.04,134.05 169.72,133.31 C 169.62,133.26 169.61,133.11 169.69,133.03 L 171.47,131.22 C 171.51,131.17 171.49,131.12 171.44,131.09 L 169.28,130.09 C 169.24,130.07 169.19,130.09 169.16,130.13 L 168.44,131.06 C 168.39,131.13 168.29,131.08 168.28,131.0 C 168.25,130.61 168.21,130.21 168.19,129.81 C 168.18,129.76 168.17,129.76 168.13,129.75 L 166.28,129.38 C 166.23,129.37 166.21,129.39 166.19,129.44 C 166.02,129.8 165.86,130.17 165.69,130.53 C 165.65,130.61 165.55,130.58 165.53,130.5 C 165.49,130.37 165.45,130.23 165.41,130.09 C 165.4,130.07 165.4,130.06 165.41,130.03 C 165.45,129.66 165.58,128.59 165.25,128.22 C 165.12,128.07 164.95,128.12 164.81,128.22 C 164.68,128.31 164.59,128.44 164.5,128.56 C 164.31,128.81 164.16,129.08 164.0,129.34 C 163.98,129.37 163.97,129.37 163.94,129.38 C 163.84,129.38 163.75,129.4 163.66,129.41 C 163.61,129.41 163.57,129.36 163.56,129.31 C 163.54,129.12 163.54,128.81 163.44,128.63 C 163.32,128.43 163.04,128.32 162.81,128.41 C 162.39,128.57 162.24,129.26 162.16,129.59 C 162.14,129.65 162.12,129.66 162.06,129.69 C 161.49,129.94 160.92,130.19 160.34,130.44 C 160.3,130.46 160.3,130.51 160.31,130.56 C 160.4,130.95 160.48,131.33 160.56,131.72 C 160.58,131.8 160.47,131.86 160.41,131.81 C 160.08,131.58 159.76,131.33 159.44,131.09 C 159.4,131.06 159.38,131.06 159.34,131.09 L 159.06,131.34 C 159.0,131.39 158.9,131.36 158.91,131.28 C 158.91,131.23 158.91,131.18 158.91,131.13 C 158.91,130.59 158.8,130.06 158.59,129.56 C 158.39,129.07 158.1,128.63 157.72,128.25 C 157.34,127.87 156.9,127.55 156.41,127.34 C 155.91,127.14 155.38,127.03 154.84,127.03 z M 154.84,129.16 C 155.1,129.16 155.36,129.21 155.59,129.31 C 155.83,129.41 156.04,129.57 156.22,129.75 C 156.4,129.93 156.53,130.14 156.63,130.38 C 156.72,130.61 156.78,130.87 156.78,131.13 C 156.78,131.38 156.72,131.64 156.63,131.88 C 156.53,132.11 156.4,132.32 156.22,132.5 C 156.04,132.68 155.83,132.81 155.59,132.91 C 155.36,133.0 155.1,133.06 154.84,133.06 C 154.59,133.06 154.33,133.0 154.09,132.91 C 153.86,132.81 153.65,132.68 153.47,132.5 C 153.29,132.32 153.13,132.11 153.03,131.88 C 152.93,131.64 152.88,131.38 152.88,131.13 C 152.88,130.87 152.93,130.61 153.03,130.38 C 153.13,130.14 153.29,129.93 153.47,129.75 C 153.65,129.57 153.86,129.41 154.09,129.31 C 154.33,129.21 154.59,129.16 154.84,129.16 z M 164.63,138.56 C 164.78,138.55 164.94,138.55 165.09,138.56 C 165.41,138.59 165.71,138.68 166.0,138.78 C 166.33,138.89 166.64,139.02 166.97,139.16 C 167.04,139.19 167.1,139.27 167.09,139.34 C 167.09,139.41 167.07,139.49 167.06,139.56 C 167.04,139.79 167.01,139.99 167.0,140.22 C 166.98,140.58 166.97,140.95 166.97,141.31 C 166.96,141.76 166.98,142.18 166.97,142.63 C 166.96,143.02 166.94,143.42 166.91,143.81 C 166.88,144.06 166.85,144.32 166.81,144.56 C 166.78,144.76 166.73,144.96 166.69,145.16 C 166.64,145.34 166.59,145.54 166.53,145.72 C 166.47,145.91 166.4,146.07 166.31,146.25 C 166.24,146.41 166.16,146.57 166.06,146.72 C 165.94,146.9 165.79,147.07 165.63,147.22 C 165.57,147.27 165.5,147.33 165.44,147.38 C 165.36,147.43 165.3,147.46 165.22,147.5 C 165.02,147.6 164.81,147.69 164.59,147.75 C 164.43,147.79 164.26,147.82 164.09,147.84 C 163.97,147.86 163.84,147.87 163.72,147.88 C 163.6,147.88 163.5,147.85 163.38,147.84 C 163.3,147.84 163.23,147.85 163.16,147.84 C 163.07,147.83 163.01,147.77 163.0,147.69 C 162.96,147.18 162.9,146.66 162.84,146.16 C 162.72,145.03 162.61,143.93 162.69,142.81 C 162.71,142.48 162.74,142.14 162.78,141.81 C 162.87,141.07 162.97,140.33 163.31,139.63 C 163.51,139.22 163.8,138.83 164.19,138.66 C 164.32,138.6 164.47,138.58 164.63,138.56 z M 140.13,145.94 C 140.19,145.94 140.21,146.01 140.19,146.06 C 139.72,147.04 139.51,148.18 139.53,149.25 C 139.55,150.27 139.79,151.52 140.25,152.44 C 140.29,152.51 140.28,152.6 140.22,152.66 C 139.12,153.65 138.09,154.68 137.09,155.78 C 137.03,155.85 136.91,155.81 136.94,155.72 C 137.07,155.29 137.16,154.85 137.22,154.41 C 137.28,153.96 137.33,153.5 137.41,153.06 C 137.57,152.18 137.78,151.32 137.94,150.44 C 138.04,149.84 138.28,148.37 138.44,147.78 C 138.56,147.34 138.72,146.94 139.0,146.56 C 139.26,146.22 139.64,145.88 140.13,145.94 z M 141.34,153.81 C 141.39,153.8 141.43,153.81 141.47,153.84 C 142.54,154.59 144.43,155.11 145.66,155.34 C 147.13,155.62 148.57,155.71 150.06,155.72 C 151.55,155.72 153.05,155.63 154.53,155.44 C 155.89,155.26 157.57,154.91 158.88,154.5 C 158.97,154.47 159.07,154.52 159.09,154.63 C 159.92,158.39 161.09,162.0 162.66,165.53 C 162.7,165.63 162.67,165.75 162.56,165.78 C 153.87,168.21 144.64,168.1 136.0,165.47 C 135.9,165.44 135.87,165.34 135.91,165.25 C 137.24,161.23 138.98,157.5 141.22,153.91 C 141.25,153.86 141.3,153.82 141.34,153.81 z"
		 />
		 <path style="fill:#f00;stroke:none;"
		 d="M 165.04,129.3 C 165.05,130.31 165.06,131.32 165.06,132.32 C 165.0,132.27 164.93,132.21 164.87,132.15 C 164.86,132.13 164.84,132.12 164.83,132.11 C 164.73,131.18 164.63,130.26 164.53,129.34 C 164.7,129.32 164.87,129.31 165.04,129.3 z M 164.7,134.21 C 164.78,134.1 164.92,134.06 165.04,134.09 C 165.18,134.12 165.29,134.25 165.44,134.38 C 165.65,134.57 165.94,134.74 166.22,134.8 C 166.47,134.86 166.72,134.84 166.95,134.66 C 167.22,134.45 167.48,134.03 167.67,133.77 C 167.83,133.57 167.96,133.47 168.12,133.5 C 168.22,133.51 168.33,133.58 168.39,133.67 C 168.47,133.78 168.45,133.95 168.4,134.12 C 168.37,134.21 168.33,134.31 168.29,134.4 C 168.15,134.71 167.91,135.04 167.64,135.26 C 167.46,135.41 167.26,135.5 167.05,135.57 C 166.63,135.71 166.15,135.73 165.67,135.57 C 165.48,135.5 165.29,135.41 165.1,135.25 C 164.9,135.07 164.71,134.81 164.65,134.59 C 164.61,134.43 164.64,134.3 164.7,134.21 z M 171.74,135.89 C 171.74,136.27 171.44,136.57 171.07,136.57 C 170.7,136.57 170.4,136.27 170.4,135.89 C 170.4,135.52 170.7,135.22 171.07,135.22 C 171.44,135.22 171.74,135.52 171.74,135.89 z M 142.39,169.07 C 142.42,168.85 142.64,168.71 142.85,168.78 C 142.97,168.83 143.03,168.89 143.07,169.01 C 143.11,169.11 143.07,169.21 143.08,169.31 C 143.1,169.42 143.18,169.5 143.29,169.52 C 143.39,169.54 143.5,169.48 143.58,169.42 C 143.75,169.28 143.82,169.07 143.81,168.86 C 143.81,168.43 143.48,168.07 143.08,167.95 C 142.66,167.82 142.22,167.98 141.95,168.31 C 141.7,168.64 141.59,169.09 141.59,169.49 C 141.59,169.94 141.71,170.3 141.97,170.67 C 142.49,171.38 143.33,171.68 144.18,171.55 C 145.02,171.42 145.77,170.92 146.12,170.12 C 146.27,169.78 146.39,169.28 146.25,168.9 C 146.19,168.73 146.04,168.5 145.84,168.45 C 145.6,168.4 145.44,168.59 145.44,168.82 C 145.44,168.93 145.47,169.02 145.52,169.12 C 145.58,169.22 145.6,169.31 145.56,169.42 C 145.48,169.63 145.23,169.73 145.04,169.61 C 144.89,169.52 144.79,169.22 144.76,169.07 C 144.72,168.86 144.72,168.66 144.79,168.45 C 144.92,168.04 145.28,167.75 145.72,167.74 C 146.17,167.72 146.53,167.98 146.76,168.34 C 147.22,169.07 147.0,170.06 146.61,170.72 C 146.17,171.46 145.46,171.96 144.64,172.18 C 143.82,172.39 142.96,172.3 142.22,171.85 C 141.5,171.4 141.0,170.67 140.9,169.81 C 140.81,169.02 141.05,168.07 141.73,167.55 C 142.43,167.02 143.39,167.09 144.02,167.71 C 144.63,168.31 144.74,169.35 144.05,169.95 C 143.31,170.6 142.24,170.06 142.39,169.07 z M 157.67,169.0 C 157.83,169.98 156.77,170.53 156.01,169.89 C 155.32,169.3 155.42,168.26 156.03,167.65 C 156.65,167.03 157.61,166.95 158.32,167.48 C 159.0,167.98 159.25,168.93 159.17,169.72 C 159.07,170.58 158.58,171.31 157.86,171.77 C 157.13,172.23 156.27,172.33 155.45,172.12 C 154.63,171.92 153.91,171.43 153.47,170.69 C 153.07,170.03 152.84,169.04 153.3,168.31 C 153.52,167.95 153.88,167.69 154.32,167.7 C 154.76,167.71 155.13,167.99 155.27,168.4 C 155.34,168.61 155.34,168.81 155.3,169.02 C 155.27,169.17 155.18,169.47 155.03,169.56 C 154.83,169.68 154.58,169.59 154.51,169.38 C 154.47,169.27 154.48,169.18 154.54,169.08 C 154.59,168.98 154.62,168.89 154.62,168.78 C 154.62,168.55 154.46,168.36 154.22,168.42 C 154.02,168.46 153.87,168.7 153.81,168.86 C 153.68,169.24 153.79,169.74 153.95,170.08 C 154.3,170.88 155.06,171.37 155.9,171.49 C 156.75,171.61 157.59,171.31 158.1,170.59 C 158.36,170.22 158.47,169.86 158.47,169.41 C 158.47,169.02 158.36,168.56 158.1,168.24 C 157.83,167.91 157.38,167.75 156.97,167.88 C 156.58,168.01 156.25,168.37 156.24,168.81 C 156.24,169.02 156.32,169.22 156.49,169.36 C 156.56,169.42 156.67,169.48 156.78,169.46 C 156.88,169.44 156.97,169.36 156.98,169.25 C 156.99,169.14 156.95,169.05 156.99,168.94 C 157.03,168.82 157.09,168.76 157.21,168.72 C 157.41,168.64 157.64,168.78 157.67,169.0 z M 139.78,170.21 C 139.56,170.44 139.17,170.28 139.17,169.96 C 139.17,169.9 139.2,169.85 139.2,169.79 C 139.2,169.72 139.04,169.7 138.99,169.71 C 138.85,169.73 138.75,169.87 138.71,169.99 C 138.63,170.28 138.8,170.59 139.1,170.62 C 139.41,170.65 139.65,170.47 139.78,170.21 z M 132.67,167.14 C 132.33,167.01 132.39,166.5 132.76,166.46 C 132.84,166.45 132.91,166.48 132.98,166.5 C 133.06,166.53 133.13,166.54 133.21,166.54 C 133.38,166.54 133.52,166.48 133.61,166.34 C 133.7,166.21 133.7,166.03 133.65,165.89 C 133.59,165.73 133.49,165.63 133.35,165.54 C 133.09,165.36 132.76,165.32 132.45,165.38 C 131.82,165.52 131.4,166.13 131.38,166.76 C 131.37,167.41 131.81,167.98 132.44,168.13 C 133.11,168.3 133.68,168.02 134.19,167.66 C 134.77,167.25 135.1,166.94 135.75,166.63 C 136.34,166.36 136.92,166.24 137.57,166.25 C 138.22,166.27 138.79,166.36 139.37,166.7 C 140.51,167.38 140.88,168.76 140.61,169.98 C 140.47,170.6 140.13,171.16 139.44,171.3 C 138.79,171.44 138.16,171.07 138.01,170.41 C 137.86,169.79 138.24,169.09 138.9,169.0 C 139.22,168.96 139.54,169.07 139.74,169.32 C 139.85,169.45 139.9,169.58 139.91,169.75 C 139.91,169.77 139.91,169.79 139.91,169.81 C 139.91,169.82 139.91,169.83 139.91,169.84 C 139.91,169.84 139.91,169.85 139.91,169.85 C 139.91,169.86 139.91,169.86 139.91,169.86 C 139.91,169.86 139.91,169.85 139.91,169.85 C 139.92,169.81 139.93,169.78 139.93,169.74 C 139.95,169.66 139.96,169.58 139.97,169.51 C 140.03,168.9 139.9,168.23 139.5,167.74 C 139.08,167.22 138.48,167.03 137.85,166.98 C 137.22,166.93 136.6,167.06 136.14,167.55 C 135.75,167.98 135.45,168.68 135.71,169.28 C 135.86,169.59 136.11,169.74 136.46,169.75 C 136.75,169.76 137.11,169.64 137.25,169.35 C 137.32,169.2 137.31,169.04 137.23,168.9 C 137.14,168.73 137.02,168.7 136.84,168.71 C 136.76,168.72 136.69,168.74 136.61,168.76 C 136.53,168.78 136.46,168.77 136.38,168.74 C 136.23,168.68 136.14,168.53 136.17,168.37 C 136.19,168.18 136.32,168.1 136.48,168.06 C 136.63,168.01 136.79,168.0 136.94,168.0 C 137.27,168.01 137.55,168.14 137.75,168.41 C 138.17,168.94 138.06,169.66 137.55,170.09 C 137.08,170.49 136.34,170.57 135.79,170.31 C 135.19,170.03 134.9,169.4 134.9,168.78 C 134.91,168.45 134.98,168.16 135.11,167.87 C 135.11,167.86 135.09,167.87 135.09,167.88 C 135.08,167.88 135.07,167.89 135.07,167.89 C 135.05,167.91 135.03,167.92 135.02,167.93 C 134.99,167.95 134.96,167.98 134.93,168.0 C 134.86,168.05 134.8,168.09 134.74,168.14 C 134.61,168.23 134.48,168.32 134.35,168.41 C 133.81,168.75 133.23,168.94 132.58,168.87 C 131.24,168.73 130.38,167.44 130.77,166.15 C 130.95,165.54 131.38,165.04 131.97,164.79 C 132.55,164.56 133.24,164.6 133.76,164.96 C 134.29,165.32 134.57,165.99 134.28,166.6 C 133.98,167.23 133.28,167.38 132.67,167.14 z M 160.29,170.12 C 160.42,170.37 160.67,170.55 160.97,170.51 C 161.27,170.48 161.44,170.17 161.36,169.88 C 161.32,169.76 161.22,169.62 161.07,169.6 C 161.03,169.6 160.86,169.61 160.86,169.69 C 160.87,169.75 160.89,169.8 160.89,169.86 C 160.9,170.18 160.51,170.34 160.29,170.12 z M 162.39,166.14 C 163.04,166.11 163.62,166.21 164.22,166.47 C 164.87,166.75 165.22,167.06 165.79,167.47 C 166.31,167.83 166.85,168.12 167.53,167.98 C 168.16,167.85 168.64,167.3 168.65,166.65 C 168.67,166.03 168.27,165.4 167.64,165.24 C 167.34,165.16 167.01,165.19 166.74,165.35 C 166.59,165.43 166.49,165.52 166.41,165.68 C 166.34,165.81 166.32,165.99 166.39,166.13 C 166.45,166.27 166.6,166.37 166.76,166.38 C 166.84,166.39 166.91,166.38 166.99,166.36 C 167.06,166.34 167.13,166.3 167.21,166.3 C 167.58,166.27 167.74,166.75 167.42,166.95 C 167.32,167.01 167.1,167.07 166.98,167.08 C 166.82,167.1 166.67,167.1 166.52,167.06 C 166.21,166.99 165.95,166.79 165.79,166.51 C 165.45,165.93 165.7,165.24 166.2,164.85 C 166.71,164.46 167.39,164.39 167.98,164.6 C 169.22,165.04 169.74,166.59 169.06,167.7 C 168.72,168.24 168.17,168.6 167.54,168.7 C 166.89,168.79 166.3,168.62 165.75,168.29 C 165.49,168.13 165.24,167.94 164.99,167.76 C 164.98,167.75 164.97,167.74 164.96,167.74 C 164.96,167.73 164.95,167.73 164.95,167.73 C 164.95,167.73 164.94,167.71 164.94,167.72 C 164.95,167.74 164.96,167.76 164.96,167.78 C 164.98,167.81 164.99,167.85 165.01,167.88 C 165.03,167.96 165.06,168.03 165.08,168.11 C 165.12,168.26 165.14,168.41 165.15,168.57 C 165.18,169.18 164.92,169.84 164.34,170.15 C 163.8,170.44 163.06,170.38 162.57,170.01 C 162.04,169.61 161.88,168.9 162.26,168.34 C 162.44,168.07 162.71,167.91 163.04,167.88 C 163.2,167.87 163.35,167.88 163.5,167.91 C 163.67,167.95 163.8,167.98 163.87,168.17 C 163.92,168.32 163.87,168.49 163.74,168.58 C 163.58,168.69 163.44,168.61 163.29,168.59 C 163.14,168.57 162.97,168.58 162.86,168.72 C 162.77,168.84 162.74,169.02 162.78,169.16 C 162.89,169.47 163.25,169.61 163.54,169.62 C 163.87,169.63 164.15,169.51 164.32,169.2 C 164.62,168.62 164.33,167.91 163.95,167.47 C 163.5,166.96 162.9,166.82 162.26,166.86 C 161.64,166.9 161.02,167.09 160.59,167.59 C 160.17,168.07 160.04,168.73 160.09,169.34 C 160.09,169.42 160.1,169.5 160.12,169.57 C 160.12,169.61 160.13,169.65 160.14,169.69 C 160.14,169.71 160.15,169.73 160.15,169.75 C 160.15,169.75 160.16,169.76 160.16,169.76 C 160.16,169.77 160.16,169.75 160.16,169.75 C 160.16,169.74 160.16,169.73 160.16,169.72 C 160.15,169.55 160.18,169.42 160.28,169.28 C 160.45,169.01 160.77,168.87 161.08,168.89 C 161.76,168.93 162.18,169.6 162.07,170.23 C 161.97,170.89 161.36,171.31 160.71,171.21 C 160.01,171.11 159.64,170.58 159.48,169.96 C 159.32,169.36 159.33,168.7 159.51,168.11 C 159.7,167.5 160.07,166.99 160.61,166.64 C 161.17,166.28 161.75,166.18 162.39,166.14 z M 127.62,164.45 C 127.67,164.79 127.59,165.11 127.31,165.33 C 127.05,165.54 126.7,165.61 126.38,165.48 C 125.7,165.19 125.65,164.35 126.01,163.79 C 126.36,163.23 127.0,162.9 127.64,162.8 C 128.29,162.7 128.96,162.81 129.52,163.17 C 130.06,163.51 130.52,164.07 130.73,164.68 C 130.94,165.3 130.86,166.02 130.37,166.51 C 129.91,166.97 129.15,167.13 128.55,166.89 C 127.94,166.64 127.53,165.95 127.65,165.3 C 127.71,164.98 127.91,164.68 128.2,164.52 C 128.49,164.36 128.85,164.35 129.14,164.51 C 129.43,164.67 129.61,164.99 129.6,165.32 C 129.59,165.5 129.54,165.64 129.43,165.78 C 129.35,165.88 129.19,166.03 129.03,166.04 C 128.86,166.05 128.71,165.94 128.67,165.78 C 128.64,165.69 128.65,165.61 128.69,165.53 C 128.73,165.45 128.8,165.41 128.85,165.35 C 128.89,165.32 128.9,165.29 128.89,165.25 C 128.87,165.2 128.86,165.17 128.82,165.14 C 128.75,165.1 128.66,165.09 128.58,165.12 C 128.43,165.18 128.34,165.36 128.34,165.51 C 128.33,165.84 128.57,166.16 128.88,166.25 C 129.18,166.34 129.56,166.27 129.81,166.07 C 130.06,165.85 130.16,165.49 130.12,165.18 C 130.07,164.83 129.93,164.56 129.72,164.29 C 129.29,163.74 128.72,163.45 128.01,163.47 C 127.67,163.49 127.37,163.56 127.08,163.73 C 126.83,163.88 126.52,164.16 126.5,164.48 C 126.49,164.57 126.5,164.65 126.54,164.72 C 126.58,164.79 126.67,164.85 126.75,164.83 C 126.82,164.82 126.91,164.76 126.92,164.68 C 126.93,164.6 126.9,164.52 126.92,164.44 C 126.99,164.05 127.55,164.06 127.62,164.45 z M 172.4,164.24 C 172.46,163.85 173.02,163.83 173.09,164.22 C 173.11,164.3 173.08,164.38 173.09,164.46 C 173.1,164.54 173.2,164.6 173.27,164.61 C 173.35,164.62 173.44,164.56 173.47,164.5 C 173.51,164.42 173.52,164.34 173.51,164.26 C 173.49,163.93 173.18,163.66 172.93,163.52 C 172.63,163.35 172.33,163.28 171.99,163.27 C 171.28,163.25 170.72,163.56 170.3,164.11 C 170.11,164.36 169.94,164.67 169.9,164.99 C 169.86,165.31 169.97,165.67 170.23,165.88 C 170.47,166.07 170.85,166.14 171.15,166.05 C 171.46,165.95 171.7,165.62 171.68,165.3 C 171.68,165.15 171.59,164.96 171.43,164.91 C 171.36,164.89 171.26,164.9 171.2,164.95 C 171.16,164.98 171.14,165.01 171.13,165.05 C 171.12,165.1 171.14,165.13 171.18,165.16 C 171.24,165.21 171.3,165.26 171.34,165.33 C 171.38,165.42 171.38,165.49 171.36,165.58 C 171.31,165.75 171.16,165.85 170.99,165.84 C 170.84,165.82 170.67,165.68 170.59,165.57 C 170.48,165.44 170.43,165.3 170.42,165.12 C 170.41,164.79 170.59,164.47 170.88,164.31 C 171.53,163.96 172.24,164.41 172.37,165.09 C 172.5,165.75 172.08,166.44 171.48,166.68 C 170.88,166.93 170.12,166.78 169.66,166.32 C 169.17,165.83 169.09,165.12 169.29,164.49 C 169.49,163.89 169.95,163.32 170.48,162.98 C 171.04,162.62 171.71,162.5 172.36,162.59 C 173.0,162.69 173.64,163.0 174.0,163.57 C 174.36,164.12 174.32,164.96 173.64,165.25 C 173.32,165.38 172.98,165.32 172.71,165.11 C 172.43,164.89 172.34,164.58 172.4,164.24 z M 151.29,170.42 C 151.22,170.65 151.13,170.87 151.0,171.08 C 150.94,171.18 150.87,171.28 150.79,171.38 C 150.76,171.43 150.72,171.47 150.68,171.52 C 150.66,171.54 150.64,171.57 150.62,171.59 C 150.59,171.61 150.66,171.63 150.67,171.64 C 151.03,171.84 151.61,172.08 152.06,171.96 C 152.53,171.83 152.87,171.24 152.55,170.81 C 152.4,170.61 152.17,170.51 151.91,170.56 C 151.8,170.58 151.7,170.66 151.57,170.64 C 151.44,170.62 151.34,170.53 151.29,170.42 M 150.03,168.41 C 150.01,168.41 150.0,168.41 149.99,168.41 C 149.97,168.41 149.95,168.42 149.93,168.43 C 149.89,168.44 149.85,168.46 149.81,168.48 C 149.77,168.51 149.73,168.54 149.69,168.58 C 149.65,168.63 149.61,168.67 149.58,168.72 C 149.55,168.78 149.51,168.85 149.49,168.91 C 149.44,169.03 149.4,169.16 149.38,169.29 C 149.35,169.48 149.35,169.68 149.38,169.87 C 149.4,170.04 149.44,170.2 149.51,170.36 C 149.55,170.48 149.61,170.59 149.67,170.7 C 149.77,170.87 149.9,171.03 150.04,171.17 C 150.18,171.03 150.3,170.87 150.4,170.7 C 150.47,170.59 150.52,170.47 150.57,170.36 C 150.63,170.2 150.67,170.03 150.69,169.86 C 150.72,169.67 150.72,169.47 150.68,169.28 C 150.66,169.15 150.62,169.03 150.57,168.9 C 150.54,168.84 150.51,168.78 150.48,168.72 C 150.44,168.67 150.41,168.62 150.37,168.58 C 150.33,168.54 150.29,168.51 150.24,168.48 C 150.2,168.46 150.16,168.44 150.12,168.42 C 150.1,168.42 150.09,168.41 150.07,168.41 C 150.05,168.41 150.04,168.41 150.03,168.41 M 149.48,171.6 C 149.31,171.43 149.16,171.24 149.04,171.02 C 148.98,170.92 148.92,170.81 148.88,170.7 C 148.85,170.64 148.83,170.58 148.81,170.53 C 148.8,170.5 148.79,170.47 148.78,170.44 C 148.78,170.42 148.77,170.45 148.76,170.46 C 148.76,170.47 148.75,170.49 148.74,170.5 C 148.67,170.6 148.55,170.66 148.43,170.66 C 148.37,170.65 148.31,170.63 148.26,170.61 C 148.2,170.58 148.15,170.57 148.08,170.57 C 147.83,170.55 147.61,170.69 147.48,170.9 C 147.22,171.35 147.63,171.91 148.1,171.99 C 148.56,172.06 149.12,171.82 149.48,171.6 z M 149.65,167.77 C 149.81,167.68 150.1,167.69 150.27,167.72 C 150.45,167.76 150.68,167.91 150.82,168.03 C 151.13,168.32 151.31,168.75 151.38,169.15 C 151.42,169.36 151.43,169.57 151.41,169.78 C 151.41,169.84 151.4,169.89 151.4,169.94 C 151.39,169.97 151.39,170.0 151.39,170.02 C 151.38,170.04 151.4,170.01 151.41,170.0 C 151.42,170.0 151.43,169.99 151.44,169.98 C 151.54,169.93 151.63,169.9 151.74,169.87 C 152.16,169.77 152.6,169.89 152.92,170.18 C 153.64,170.81 153.49,171.83 152.77,172.38 C 152.04,172.94 151.06,172.66 150.37,172.28 C 150.28,172.23 150.19,172.17 150.1,172.12 C 150.09,172.11 150.08,172.1 150.06,172.09 C 150.05,172.09 150.05,172.08 150.03,172.09 C 150.01,172.1 149.99,172.12 149.97,172.13 C 149.92,172.16 149.88,172.19 149.83,172.22 C 149.65,172.33 149.46,172.42 149.26,172.5 C 148.88,172.65 148.44,172.75 148.02,172.7 C 147.18,172.58 146.49,171.7 146.74,170.84 C 146.86,170.44 147.18,170.09 147.58,169.94 C 147.78,169.86 147.98,169.84 148.2,169.86 C 148.31,169.88 148.41,169.9 148.51,169.94 C 148.56,169.96 148.6,169.98 148.65,170.01 C 148.66,170.02 148.67,170.02 148.68,170.03 C 148.69,170.04 148.68,170.02 148.68,170.01 C 148.68,169.98 148.67,169.95 148.67,169.93 C 148.57,169.16 148.82,168.1 149.65,167.77 z M 167.82,163.96 C 166.73,164.41 165.63,164.82 164.51,165.18 C 164.23,165.27 163.95,165.36 163.67,165.45 C 163.53,165.49 163.39,165.53 163.25,165.57 C 163.17,165.6 163.1,165.62 163.03,165.64 C 163.0,165.65 162.96,165.66 162.93,165.67 C 162.92,165.67 162.91,165.67 162.9,165.67 C 162.89,165.68 162.89,165.67 162.88,165.66 C 162.88,165.65 162.87,165.63 162.86,165.61 C 162.62,165.08 162.39,164.54 162.17,163.99 C 162.14,163.93 162.12,163.87 162.09,163.81 C 162.08,163.78 162.07,163.75 162.05,163.72 C 162.05,163.7 162.09,163.7 162.1,163.7 C 162.12,163.69 162.13,163.69 162.15,163.68 C 162.3,163.64 162.44,163.6 162.59,163.55 C 162.87,163.47 163.16,163.38 163.45,163.29 C 164.01,163.11 164.57,162.93 165.12,162.73 C 165.41,162.62 165.7,162.52 165.98,162.41 C 166.05,162.38 166.12,162.35 166.19,162.32 C 166.23,162.31 166.27,162.3 166.3,162.28 C 166.31,162.28 166.33,162.31 166.33,162.32 C 166.34,162.33 166.36,162.34 166.37,162.36 C 166.45,162.46 166.54,162.56 166.62,162.67 C 167.01,163.11 167.4,163.55 167.82,163.96 z M 132.57,161.98 C 133.56,162.39 134.55,162.76 135.56,163.1 C 135.83,163.18 136.1,163.27 136.37,163.35 C 136.38,163.36 136.41,163.36 136.41,163.37 C 136.4,163.39 136.39,163.4 136.39,163.42 C 136.38,163.45 136.37,163.48 136.36,163.51 C 136.33,163.56 136.31,163.62 136.29,163.68 C 136.25,163.8 136.21,163.92 136.16,164.04 C 136.07,164.28 135.99,164.53 135.9,164.78 C 135.86,164.91 135.82,165.03 135.77,165.16 C 135.75,165.22 135.73,165.28 135.71,165.35 C 135.71,165.35 135.71,165.36 135.7,165.37 C 135.7,165.39 135.69,165.37 135.68,165.36 C 135.66,165.36 135.65,165.35 135.63,165.35 C 135.59,165.34 135.56,165.33 135.53,165.32 C 134.51,164.99 133.51,164.64 132.51,164.25 C 132.27,164.15 132.02,164.06 131.78,163.95 C 131.72,163.93 131.66,163.9 131.6,163.88 C 131.58,163.87 131.57,163.87 131.55,163.86 C 131.55,163.86 131.53,163.86 131.54,163.85 C 131.54,163.84 131.54,163.83 131.55,163.83 C 131.56,163.8 131.58,163.76 131.59,163.73 C 131.65,163.61 131.72,163.49 131.78,163.37 C 132.03,162.9 132.29,162.44 132.57,161.98 z M 147.46,143.49 C 148.07,143.52 148.67,143.57 149.26,143.64 C 149.29,143.64 149.33,143.63 149.35,143.66 C 149.36,143.67 149.37,143.68 149.38,143.69 C 149.4,143.71 149.41,143.72 149.43,143.74 C 149.46,143.78 149.49,143.82 149.51,143.85 C 149.56,143.92 149.6,143.99 149.62,144.07 C 149.66,144.16 149.67,144.28 149.6,144.37 C 149.53,144.47 149.4,144.49 149.29,144.48 C 149.2,144.48 149.12,144.47 149.03,144.45 C 148.99,144.43 148.94,144.42 148.9,144.4 C 148.89,144.4 148.87,144.4 148.86,144.39 C 148.86,144.39 148.85,144.39 148.84,144.38 C 148.84,144.38 148.83,144.37 148.83,144.38 C 148.82,144.4 148.82,144.43 148.81,144.46 C 148.78,144.65 148.62,145.22 148.33,145.1 C 148.21,145.05 148.15,144.93 148.1,144.83 C 148.06,144.75 148.04,144.67 148.02,144.58 C 148.0,144.54 147.99,144.49 147.98,144.44 C 147.98,144.43 147.98,144.42 147.98,144.41 C 147.98,144.4 147.99,144.37 147.97,144.38 C 147.95,144.39 147.93,144.4 147.9,144.4 C 147.67,144.49 147.16,144.59 147.15,144.23 C 147.15,144.08 147.2,143.98 147.28,143.87 C 147.32,143.8 147.38,143.74 147.43,143.68 C 147.46,143.64 147.5,143.61 147.53,143.58 C 147.54,143.57 147.55,143.57 147.54,143.56 C 147.53,143.55 147.52,143.54 147.51,143.53 C 147.5,143.52 147.48,143.5 147.46,143.49 z M 149.77,146.17 C 149.84,146.58 149.86,146.98 149.82,147.4 C 149.82,147.49 149.8,147.59 149.79,147.69 C 149.78,147.72 149.78,147.74 149.78,147.77 C 149.78,147.77 149.77,147.78 149.77,147.79 C 149.77,147.79 149.77,147.8 149.78,147.8 C 149.79,147.8 149.8,147.81 149.81,147.81 C 149.87,147.82 149.92,147.82 149.97,147.83 C 150.19,147.83 150.37,147.79 150.56,147.68 C 150.75,147.58 150.88,147.44 150.99,147.25 C 151.01,147.2 151.04,147.15 151.06,147.1 C 151.07,147.07 151.07,147.05 151.08,147.02 C 151.09,147.01 151.09,147.0 151.08,146.99 C 151.06,146.99 151.05,146.98 151.04,146.98 C 150.95,146.94 150.87,146.91 150.78,146.87 C 150.4,146.69 150.08,146.46 149.77,146.17 z M 147.03,146.17 C 146.73,146.46 146.4,146.69 146.02,146.87 C 145.94,146.91 145.85,146.94 145.76,146.98 C 145.75,146.98 145.74,146.99 145.73,146.99 C 145.71,147.0 145.72,147.01 145.72,147.02 C 145.73,147.05 145.74,147.07 145.75,147.1 C 145.76,147.15 145.79,147.2 145.81,147.25 C 145.92,147.44 146.05,147.58 146.24,147.68 C 146.43,147.79 146.61,147.83 146.83,147.83 C 146.88,147.82 146.94,147.82 146.99,147.81 C 147.0,147.81 147.01,147.8 147.03,147.8 C 147.04,147.8 147.03,147.77 147.02,147.77 C 147.02,147.74 147.02,147.72 147.01,147.69 C 147.0,147.59 146.99,147.49 146.98,147.4 C 146.94,146.98 146.96,146.58 147.03,146.17 z M 143.78,143.68 C 143.89,143.66 144.0,143.64 144.1,143.62 C 144.13,143.62 144.16,143.62 144.19,143.61 C 144.22,143.61 144.21,143.64 144.21,143.66 C 144.22,143.7 144.23,143.74 144.25,143.78 C 144.31,143.96 144.4,144.09 144.54,144.2 C 144.56,144.22 144.58,144.2 144.59,144.19 C 144.6,144.18 144.62,144.17 144.63,144.16 C 144.66,144.13 144.69,144.11 144.72,144.09 C 144.77,144.05 144.83,144.01 144.89,143.97 C 145.0,143.89 145.12,143.82 145.25,143.75 C 145.37,143.68 145.5,143.62 145.64,143.57 C 145.64,143.57 145.66,143.57 145.65,143.56 C 145.64,143.56 145.63,143.56 145.63,143.55 C 145.61,143.55 145.59,143.54 145.58,143.53 C 145.54,143.52 145.51,143.51 145.48,143.49 C 145.44,143.48 145.51,143.48 145.53,143.48 C 145.56,143.48 145.58,143.48 145.61,143.48 C 145.66,143.48 145.72,143.47 145.77,143.47 C 145.88,143.47 145.99,143.46 146.1,143.46 C 146.15,143.46 146.21,143.46 146.26,143.46 C 146.27,143.46 146.33,143.46 146.34,143.46 C 146.35,143.48 146.36,143.49 146.38,143.5 C 146.39,143.51 146.4,143.53 146.42,143.54 C 146.42,143.55 146.43,143.55 146.44,143.56 C 146.45,143.57 146.44,143.57 146.43,143.58 C 146.4,143.6 146.38,143.63 146.35,143.65 C 146.3,143.7 146.25,143.75 146.2,143.81 C 145.92,144.11 145.57,144.54 145.54,145.0 C 145.52,145.32 145.69,145.54 146.0,145.63 C 146.25,145.7 146.48,145.68 146.73,145.63 C 146.88,145.61 147.03,145.57 147.18,145.52 C 147.25,145.49 147.33,145.46 147.41,145.43 C 147.41,145.43 147.41,145.43 147.42,145.43 C 147.43,145.42 147.42,145.43 147.42,145.44 C 147.43,145.45 147.43,145.46 147.43,145.47 C 147.43,145.49 147.44,145.51 147.44,145.54 C 147.45,145.58 147.46,145.62 147.47,145.67 C 147.53,145.98 147.61,146.28 147.76,146.56 C 147.85,146.74 147.98,146.94 148.17,147.04 C 148.54,147.25 148.83,146.93 149.0,146.64 C 149.15,146.37 149.24,146.08 149.31,145.78 C 149.33,145.7 149.35,145.61 149.36,145.52 C 149.37,145.5 149.37,145.48 149.37,145.46 C 149.38,145.45 149.38,145.44 149.38,145.42 C 149.38,145.41 149.39,145.43 149.39,145.43 C 149.4,145.43 149.4,145.43 149.41,145.44 C 149.45,145.45 149.48,145.47 149.52,145.48 C 149.67,145.53 149.82,145.58 149.97,145.61 C 150.83,145.8 151.56,145.52 151.15,144.59 C 151.05,144.35 150.9,144.15 150.74,143.95 C 150.71,143.93 150.69,143.9 150.67,143.87 C 150.65,143.86 150.64,143.85 150.63,143.83 C 150.63,143.83 150.62,143.83 150.62,143.82 C 150.62,143.82 150.6,143.81 150.61,143.81 C 150.62,143.82 150.64,143.82 150.65,143.82 C 150.76,143.83 150.87,143.85 150.98,143.86 C 151.2,143.89 151.41,143.92 151.63,143.94 C 151.69,143.94 151.74,143.95 151.8,143.95 C 151.84,143.96 151.89,143.95 151.93,143.98 C 151.99,144.02 152.05,144.06 152.11,144.11 C 152.17,144.15 152.22,144.2 152.28,144.25 C 152.31,144.27 152.34,144.3 152.36,144.32 C 152.38,144.33 152.39,144.35 152.41,144.36 C 152.42,144.38 152.44,144.36 152.45,144.35 C 152.61,144.27 152.72,144.16 152.81,144.0 C 152.83,143.97 152.86,143.99 152.88,143.99 C 152.91,143.99 152.94,143.98 152.96,143.98 C 153.02,143.98 153.07,143.98 153.13,143.97 C 153.18,143.97 153.24,143.97 153.29,143.96 C 153.32,143.96 153.29,143.98 153.29,143.99 C 153.28,144.01 153.28,144.02 153.27,144.03 C 153.26,144.06 153.25,144.09 153.24,144.11 C 153.14,144.31 153.02,144.46 152.85,144.6 C 152.81,144.63 152.76,144.66 152.72,144.69 C 152.71,144.7 152.73,144.7 152.73,144.71 C 152.74,144.72 152.74,144.72 152.75,144.73 C 152.76,144.74 152.77,144.76 152.78,144.77 C 152.82,144.82 152.86,144.88 152.9,144.93 C 153.04,145.14 153.15,145.36 153.23,145.61 C 153.33,145.96 153.35,146.36 153.12,146.69 C 152.89,147.03 152.5,147.15 152.12,147.17 C 152.0,147.18 151.88,147.17 151.76,147.16 C 151.7,147.15 151.64,147.14 151.57,147.13 C 151.56,147.13 151.54,147.12 151.53,147.12 C 151.52,147.12 151.51,147.12 151.5,147.12 C 151.48,147.11 151.49,147.13 151.49,147.14 C 151.48,147.19 151.46,147.24 151.44,147.28 C 151.28,147.7 150.94,148.02 150.53,148.16 C 150.27,148.25 150.03,148.28 149.77,148.23 C 149.75,148.23 149.74,148.23 149.72,148.22 C 149.72,148.22 149.71,148.22 149.7,148.22 C 149.69,148.22 149.7,148.23 149.7,148.24 C 149.7,148.27 149.7,148.3 149.7,148.34 C 149.7,148.4 149.7,148.47 149.7,148.53 C 149.7,148.66 149.7,148.79 149.7,148.92 C 149.7,149.44 149.7,149.96 149.7,150.49 C 149.7,151.53 149.7,152.57 149.7,153.61 C 149.7,154.14 149.7,154.67 149.7,155.2 C 149.7,155.26 149.7,155.33 149.7,155.39 C 149.7,155.43 149.7,155.46 149.7,155.49 C 149.7,155.51 149.7,155.53 149.7,155.54 C 149.7,155.55 149.71,155.57 149.69,155.57 C 149.69,155.57 149.68,155.56 149.67,155.56 C 149.55,155.56 149.42,155.56 149.3,155.56 C 149.05,155.55 148.8,155.54 148.56,155.53 C 148.5,155.52 148.43,155.52 148.37,155.52 C 148.34,155.52 148.31,155.51 148.28,155.51 C 148.26,155.51 148.25,155.51 148.23,155.51 C 148.22,155.51 148.2,155.51 148.2,155.49 C 148.2,155.36 148.2,155.23 148.2,155.09 C 148.2,154.83 148.2,154.57 148.2,154.3 C 148.2,153.77 148.2,153.25 148.2,152.72 C 148.2,152.06 148.2,151.41 148.2,150.75 C 148.2,150.42 148.2,150.09 148.2,149.76 C 148.2,149.72 148.2,149.68 148.2,149.64 C 148.2,149.64 148.2,149.6 148.2,149.6 C 148.19,149.59 148.18,149.59 148.17,149.59 C 148.14,149.58 148.11,149.57 148.08,149.56 C 148.02,149.53 147.96,149.5 147.91,149.46 C 147.61,149.26 147.41,148.94 147.28,148.63 C 147.23,148.54 147.2,148.44 147.17,148.34 C 147.16,148.31 147.15,148.29 147.14,148.26 C 147.14,148.25 147.13,148.23 147.13,148.22 C 147.12,148.21 147.09,148.22 147.08,148.22 C 147.01,148.24 146.93,148.25 146.85,148.25 C 146.51,148.27 146.18,148.17 145.9,147.97 C 145.71,147.84 145.57,147.68 145.46,147.48 C 145.41,147.39 145.36,147.3 145.33,147.2 C 145.32,147.18 145.32,147.16 145.31,147.13 C 145.3,147.11 145.28,147.12 145.27,147.12 C 145.24,147.13 145.2,147.14 145.17,147.14 C 144.93,147.18 144.69,147.19 144.45,147.15 C 144.08,147.08 143.75,146.89 143.59,146.53 C 143.42,146.14 143.51,145.7 143.67,145.34 C 143.79,145.09 143.93,144.87 144.11,144.67 C 144.15,144.61 144.2,144.56 144.25,144.51 C 144.25,144.5 144.24,144.5 144.23,144.5 C 144.23,144.49 144.22,144.49 144.22,144.48 C 144.21,144.48 144.2,144.47 144.19,144.46 C 144.17,144.44 144.16,144.42 144.14,144.41 C 144.1,144.37 144.07,144.33 144.04,144.29 C 143.9,144.1 143.82,143.91 143.78,143.68 z M 168.27,136.9 C 168.1,136.95 168.01,137.13 168.06,137.29 C 168.11,137.46 168.29,137.56 168.45,137.5 C 168.62,137.45 168.72,137.28 168.67,137.11 C 168.61,136.94 168.44,136.85 168.27,136.9 z M 170.42,133.93 C 169.98,134.57 169.62,135.22 169.3,135.93 C 169.22,136.1 169.15,136.28 169.08,136.45 C 169.06,136.5 169.04,136.54 169.03,136.59 C 169.02,136.6 169.0,136.64 169.01,136.65 C 169.03,136.67 169.04,136.69 169.05,136.71 C 169.11,136.79 169.15,136.86 169.17,136.95 C 169.29,137.34 169.12,137.75 168.77,137.94 C 168.73,137.96 168.69,137.98 168.65,138.0 C 168.63,138.01 168.61,138.01 168.59,138.02 C 168.57,138.02 168.57,138.07 168.56,138.08 C 168.54,138.17 168.52,138.27 168.5,138.36 C 168.46,138.54 168.42,138.73 168.39,138.92 C 168.33,139.29 168.29,139.67 168.26,140.04 C 168.21,140.79 168.22,141.55 168.21,142.3 C 168.2,143.77 168.09,145.42 167.42,146.82 C 167.11,147.48 166.66,148.07 166.02,148.47 C 165.38,148.87 164.61,149.06 163.87,149.1 C 162.26,149.17 160.9,148.52 159.67,147.63 C 158.61,146.87 157.18,145.53 156.3,144.58 C 156.04,144.3 155.79,144.02 155.55,143.73 C 155.43,143.58 155.31,143.44 155.2,143.29 C 155.19,143.27 155.22,143.27 155.22,143.26 C 155.23,143.25 155.24,143.25 155.25,143.24 C 155.27,143.22 155.28,143.2 155.3,143.19 C 155.33,143.15 155.36,143.12 155.39,143.08 C 155.45,143.01 155.51,142.93 155.56,142.85 C 155.59,142.81 155.62,142.77 155.64,142.73 C 155.65,142.73 155.65,142.71 155.66,142.72 C 155.67,142.73 155.68,142.74 155.68,142.75 C 155.7,142.77 155.71,142.79 155.73,142.81 C 155.78,142.88 155.84,142.96 155.9,143.03 C 156.02,143.18 156.14,143.33 156.26,143.47 C 156.51,143.76 156.76,144.04 157.02,144.32 C 157.91,145.25 159.36,146.59 160.44,147.31 C 161.72,148.15 163.16,148.67 164.74,148.25 C 165.55,148.04 166.09,147.67 166.54,146.96 C 166.96,146.29 167.16,145.59 167.3,144.83 C 167.6,143.24 167.45,141.64 167.55,140.05 C 167.58,139.65 167.62,139.26 167.68,138.86 C 167.72,138.66 167.75,138.47 167.79,138.27 C 167.81,138.17 167.84,138.08 167.86,137.98 C 167.87,137.95 167.87,137.93 167.88,137.91 C 167.88,137.89 167.83,137.86 167.82,137.86 C 167.78,137.82 167.75,137.79 167.71,137.75 C 167.65,137.67 167.6,137.59 167.57,137.5 C 167.56,137.48 167.56,137.46 167.53,137.45 C 167.51,137.45 167.5,137.45 167.48,137.45 C 167.44,137.45 167.4,137.45 167.36,137.44 C 167.21,137.43 167.06,137.42 166.91,137.4 C 166.61,137.36 166.31,137.3 166.02,137.22 C 164.6,136.84 163.19,135.98 162.11,135.02 C 161.83,134.76 161.56,134.5 161.3,134.22 C 161.27,134.19 161.24,134.15 161.21,134.11 C 161.19,134.1 161.18,134.08 161.16,134.06 C 161.16,134.05 161.17,134.05 161.17,134.05 C 161.18,134.05 161.18,134.04 161.19,134.04 C 161.2,134.03 161.21,134.03 161.22,134.02 C 161.3,133.96 161.37,133.91 161.45,133.85 C 161.53,133.8 161.61,133.75 161.7,133.7 C 161.73,133.67 161.73,133.68 161.75,133.71 C 161.77,133.73 161.78,133.75 161.8,133.76 C 161.83,133.8 161.86,133.83 161.89,133.87 C 162.42,134.43 162.99,134.92 163.62,135.35 C 164.71,136.09 165.95,136.65 167.3,136.76 C 167.38,136.77 167.47,136.78 167.55,136.78 C 167.57,136.78 167.59,136.78 167.61,136.78 C 167.63,136.78 167.65,136.74 167.66,136.73 C 167.69,136.68 167.73,136.64 167.77,136.6 C 167.93,136.43 168.1,136.36 168.33,136.35 C 168.34,136.35 168.36,136.36 168.36,136.34 C 168.37,136.33 168.37,136.32 168.38,136.3 C 168.39,136.28 168.4,136.25 168.41,136.23 C 168.43,136.18 168.45,136.13 168.47,136.08 C 168.51,135.97 168.55,135.87 168.59,135.77 C 168.68,135.57 168.77,135.38 168.87,135.18 C 169.06,134.79 169.27,134.41 169.5,134.04 C 169.56,133.95 169.62,133.86 169.68,133.77 C 169.71,133.72 169.74,133.68 169.77,133.63 C 169.78,133.61 169.8,133.58 169.81,133.56 C 169.82,133.55 169.82,133.54 169.84,133.55 C 169.85,133.56 169.86,133.56 169.87,133.57 C 170.06,133.68 170.24,133.8 170.42,133.93 z M 154.0,140.37 C 154.72,140.72 155.44,141.06 156.16,141.4 C 156.08,141.57 156.0,141.74 155.92,141.91 C 155.91,141.92 155.91,141.92 155.91,141.93 C 155.23,141.6 154.55,141.27 153.87,140.93 C 153.91,140.75 153.96,140.56 154.0,140.37 z M 154.23,139.45 C 155.0,139.82 155.78,140.18 156.56,140.55 C 156.48,140.7 156.41,140.86 156.34,141.02 C 155.6,140.66 154.85,140.31 154.11,139.95 C 154.15,139.78 154.19,139.62 154.23,139.45 z M 154.75,138.67 C 155.48,139.02 156.21,139.38 156.94,139.73 C 156.87,139.87 156.8,140.02 156.73,140.16 C 155.93,139.79 155.13,139.41 154.33,139.03 C 154.36,138.91 154.39,138.8 154.41,138.68 C 154.53,138.68 154.64,138.67 154.75,138.67 z M 155.44,138.0 C 156.06,138.34 156.67,138.67 157.29,139.01 C 157.23,139.12 157.18,139.23 157.12,139.35 C 156.63,139.11 156.14,138.87 155.65,138.63 C 155.71,138.63 155.76,138.63 155.81,138.63 C 155.98,138.62 156.03,138.48 155.9,138.38 C 155.75,138.25 155.59,138.13 155.44,138.0 z M 155.13,136.77 C 155.97,137.27 156.82,137.78 157.67,138.28 C 157.6,138.4 157.54,138.51 157.48,138.63 C 156.63,138.16 155.78,137.7 154.92,137.24 C 154.99,137.08 155.06,136.93 155.13,136.77 z M 143.93,151.05 C 144.05,151.24 144.08,151.5 143.81,151.4 C 143.76,151.38 143.71,151.35 143.67,151.32 C 143.66,151.32 143.65,151.3 143.65,151.31 C 143.65,151.32 143.64,151.32 143.64,151.33 C 143.63,151.34 143.62,151.36 143.62,151.37 C 143.6,151.39 143.59,151.42 143.57,151.44 C 143.53,151.49 143.46,151.56 143.38,151.54 C 143.31,151.51 143.29,151.41 143.28,151.35 C 143.28,151.32 143.28,151.3 143.28,151.27 C 143.28,151.25 143.28,151.24 143.29,151.22 C 143.29,151.22 143.29,151.21 143.29,151.2 C 143.29,151.19 143.27,151.2 143.27,151.2 C 143.21,151.2 143.16,151.2 143.1,151.19 C 143.03,151.17 142.94,151.13 142.96,151.04 C 142.97,150.99 143.0,150.96 143.03,150.93 C 143.06,150.91 143.08,150.89 143.11,150.88 C 143.12,150.87 143.14,150.86 143.15,150.85 C 143.16,150.85 143.17,150.84 143.18,150.84 C 143.18,150.84 143.19,150.84 143.19,150.83 C 143.19,150.83 143.21,150.84 143.2,150.83 C 143.07,150.64 143.05,150.38 143.31,150.48 C 143.37,150.5 143.41,150.53 143.46,150.56 C 143.47,150.56 143.47,150.58 143.48,150.57 C 143.48,150.56 143.48,150.55 143.49,150.55 C 143.5,150.53 143.5,150.52 143.51,150.51 C 143.53,150.49 143.54,150.46 143.56,150.44 C 143.6,150.39 143.67,150.32 143.74,150.34 C 143.82,150.36 143.84,150.46 143.84,150.53 C 143.85,150.55 143.85,150.58 143.84,150.61 C 143.84,150.62 143.84,150.64 143.84,150.65 C 143.84,150.66 143.84,150.67 143.84,150.68 C 143.84,150.69 143.85,150.68 143.86,150.68 C 143.92,150.68 143.97,150.68 144.03,150.69 C 144.31,150.76 144.14,150.96 143.93,151.05 z M 157.05,135.85 C 157.54,136.19 158.03,136.53 158.51,136.88 C 158.44,136.99 158.36,137.1 158.29,137.21 C 157.66,136.8 157.04,136.4 156.41,135.99 C 156.57,136.01 156.74,136.04 156.91,136.07 C 157.07,136.09 157.14,135.97 157.05,135.85 z M 156.48,134.3 C 157.31,134.96 158.13,135.61 158.96,136.26 C 158.89,136.35 158.82,136.44 158.76,136.53 C 157.9,135.92 157.04,135.32 156.18,134.72 C 156.28,134.58 156.38,134.44 156.48,134.3 z M 157.03,133.55 C 157.82,134.27 158.61,134.99 159.39,135.72 C 159.33,135.79 159.28,135.86 159.22,135.93 C 158.39,135.27 157.56,134.62 156.73,133.96 C 156.83,133.82 156.93,133.69 157.03,133.55 z M 158.6,133.85 C 159.03,134.3 159.45,134.74 159.87,135.19 C 159.81,135.26 159.74,135.33 159.68,135.4 C 158.97,134.75 158.27,134.11 157.57,133.47 C 157.88,133.59 158.19,133.71 158.49,133.84 C 158.53,133.85 158.57,133.86 158.6,133.85 z M 158.3,132.18 C 159.0,133.02 159.69,133.85 160.39,134.69 C 160.32,134.76 160.24,134.82 160.18,134.89 C 159.55,134.24 158.93,133.58 158.31,132.93 C 158.22,132.75 158.14,132.57 158.05,132.4 C 158.13,132.32 158.22,132.25 158.3,132.18 z M 159.01,131.57 C 159.65,132.46 160.29,133.35 160.93,134.23 C 160.86,134.29 160.78,134.35 160.71,134.41 C 160.01,133.58 159.32,132.74 158.63,131.9 C 158.75,131.79 158.88,131.68 159.01,131.57 z M 160.33,131.92 C 160.73,132.55 161.12,133.18 161.51,133.81 C 161.43,133.87 161.35,133.92 161.27,133.98 C 160.63,133.08 159.98,132.19 159.34,131.29 C 159.36,131.27 159.38,131.25 159.4,131.24 C 159.71,131.46 160.02,131.69 160.33,131.92 z M 160.56,130.51 C 161.04,131.42 161.52,132.32 162.0,133.22 C 162.02,133.31 162.03,133.4 162.04,133.49 C 161.99,133.52 161.93,133.55 161.87,133.59 C 161.48,132.96 161.09,132.33 160.7,131.7 C 160.61,131.32 160.53,130.94 160.45,130.56 C 160.49,130.55 160.52,130.53 160.56,130.51 z M 161.41,130.14 C 161.58,130.54 161.75,130.93 161.91,131.32 C 161.9,131.6 161.9,131.87 161.91,132.14 C 161.59,131.54 161.27,130.94 160.95,130.34 C 161.1,130.28 161.26,130.21 161.41,130.14 z M 162.11,129.85 C 162.06,130.05 162.03,130.24 162.0,130.44 C 161.93,130.28 161.87,130.13 161.8,129.97 C 161.9,129.93 161.99,129.89 162.09,129.84 C 162.09,129.85 162.1,129.85 162.11,129.85 z M 164.11,129.43 C 164.18,130.12 164.26,130.82 164.34,131.51 C 164.25,131.39 164.18,131.27 164.11,131.14 C 164.0,130.96 163.91,130.77 163.83,130.56 C 163.76,130.22 163.68,129.88 163.61,129.54 C 163.74,129.53 163.86,129.52 163.99,129.51 C 164.04,129.51 164.07,129.49 164.1,129.45 C 164.1,129.44 164.11,129.44 164.11,129.43 z M 165.88,130.43 C 165.82,131.08 165.75,131.72 165.69,132.36 C 165.62,132.36 165.55,132.37 165.49,132.37 C 165.49,131.86 165.48,131.36 165.48,130.85 C 165.54,130.93 165.65,130.92 165.71,130.8 C 165.77,130.68 165.82,130.56 165.88,130.43 z M 166.89,129.65 C 166.7,130.55 166.5,131.45 166.31,132.35 C 166.26,132.35 166.21,132.35 166.16,132.35 C 166.15,132.35 166.13,132.35 166.11,132.35 C 166.21,131.41 166.3,130.48 166.4,129.55 C 166.56,129.59 166.73,129.62 166.89,129.65 z M 167.8,129.82 C 167.51,130.68 167.22,131.54 166.93,132.4 C 166.87,132.39 166.81,132.38 166.74,132.38 C 166.93,131.49 167.12,130.61 167.31,129.73 C 167.47,129.76 167.64,129.79 167.8,129.82 z M 168.15,131.22 C 167.95,131.65 167.75,132.07 167.55,132.5 C 167.49,132.48 167.42,132.47 167.36,132.46 C 167.6,131.74 167.85,131.02 168.09,130.3 C 168.11,130.61 168.13,130.91 168.15,131.22 z M 169.7,130.44 C 169.21,131.19 168.73,131.93 168.25,132.68 C 168.16,132.65 168.06,132.62 167.97,132.6 C 168.26,132.0 168.54,131.39 168.83,130.79 C 168.97,130.61 169.11,130.42 169.25,130.24 C 169.4,130.31 169.55,130.38 169.7,130.44 z M 170.4,130.76 C 169.85,131.46 169.29,132.16 168.74,132.85 C 168.72,132.84 168.69,132.83 168.66,132.82 C 169.14,132.09 169.61,131.36 170.09,130.62 C 170.19,130.67 170.3,130.72 170.4,130.76 z M 169.38,133.14 C 169.31,133.1 169.23,133.06 169.15,133.03 C 169.7,132.33 170.25,131.64 170.8,130.94 C 170.97,131.02 171.15,131.1 171.32,131.18 C 170.68,131.82 170.05,132.46 169.41,133.11 C 169.4,133.12 169.39,133.13 169.38,133.14 z M 162.74,141.1 C 162.73,141.21 162.71,141.32 162.7,141.43 C 162.69,141.47 162.71,141.51 162.66,141.52 C 162.64,141.53 162.63,141.53 162.61,141.54 C 162.58,141.55 162.54,141.57 162.51,141.58 C 162.49,141.59 162.48,141.59 162.46,141.6 C 162.45,141.61 162.44,141.61 162.43,141.61 C 162.43,141.62 162.42,141.63 162.41,141.62 C 162.38,141.48 162.33,141.35 162.26,141.23 C 162.19,141.09 162.06,140.89 161.86,140.88 C 161.68,140.88 161.57,141.07 161.52,141.2 C 161.47,141.33 161.44,141.46 161.42,141.59 C 161.42,141.63 161.42,141.67 161.41,141.7 C 161.41,141.71 161.42,141.72 161.4,141.72 C 161.39,141.72 161.39,141.71 161.38,141.71 C 161.36,141.71 161.34,141.7 161.32,141.7 C 161.25,141.68 161.18,141.67 161.11,141.66 C 160.37,141.58 160.26,142.03 160.81,142.5 C 160.84,142.53 160.88,142.56 160.91,142.58 C 160.93,142.6 160.95,142.61 160.97,142.62 C 160.98,142.63 161.0,142.63 160.99,142.64 C 160.98,142.65 160.97,142.66 160.97,142.67 C 160.9,142.73 160.84,142.8 160.79,142.88 C 160.7,143.0 160.63,143.11 160.6,143.27 C 160.56,143.5 160.7,143.62 160.92,143.63 C 161.03,143.64 161.14,143.62 161.25,143.59 C 161.32,143.57 161.38,143.55 161.44,143.52 C 161.48,143.51 161.51,143.49 161.54,143.48 C 161.55,143.48 161.58,143.45 161.58,143.47 C 161.59,143.48 161.59,143.5 161.6,143.52 C 161.66,143.72 161.76,143.98 161.94,144.12 C 162.06,144.22 162.19,144.23 162.31,144.13 C 162.39,144.06 162.43,143.99 162.47,143.9 C 162.48,143.87 162.49,143.85 162.5,143.82 C 162.5,143.8 162.51,143.79 162.51,143.77 C 162.52,143.77 162.52,143.76 162.52,143.75 C 162.53,143.73 162.52,143.77 162.52,143.78 C 162.52,143.8 162.52,143.81 162.52,143.82 C 162.53,144.04 162.53,144.25 162.55,144.46 C 162.56,144.65 162.57,144.84 162.58,145.03 C 162.59,145.07 162.59,145.12 162.6,145.17 C 162.6,145.19 162.6,145.2 162.58,145.22 C 162.57,145.24 162.55,145.25 162.53,145.27 C 162.47,145.32 162.4,145.35 162.32,145.37 C 162.14,145.4 161.99,145.33 161.86,145.22 C 161.51,144.91 161.38,144.32 161.41,143.89 C 161.41,143.88 161.41,143.86 161.41,143.84 C 161.41,143.81 161.39,143.86 161.38,143.87 C 161.35,143.89 161.33,143.92 161.3,143.94 C 161.24,143.99 161.19,144.04 161.13,144.08 C 161.01,144.16 160.88,144.24 160.74,144.29 C 160.51,144.39 160.21,144.46 159.95,144.38 C 159.42,144.22 159.57,143.64 159.84,143.28 C 160.01,143.05 160.21,142.88 160.46,142.74 C 160.49,142.73 160.52,142.71 160.56,142.7 C 160.56,142.69 160.57,142.69 160.58,142.68 C 160.58,142.68 160.59,142.68 160.59,142.68 C 160.58,142.68 160.58,142.68 160.57,142.68 C 160.56,142.67 160.54,142.67 160.52,142.66 C 160.46,142.64 160.39,142.62 160.33,142.6 C 160.2,142.55 160.08,142.48 159.96,142.41 C 159.66,142.21 159.17,141.71 159.45,141.3 C 159.72,140.9 160.41,141.03 160.76,141.16 C 160.88,141.21 161.0,141.27 161.11,141.35 C 161.12,141.35 161.14,141.36 161.15,141.37 C 161.16,141.38 161.16,141.38 161.17,141.39 C 161.18,141.4 161.17,141.38 161.17,141.37 C 161.16,141.34 161.15,141.3 161.14,141.27 C 161.13,141.21 161.12,141.14 161.11,141.07 C 161.07,140.8 161.09,140.54 161.17,140.28 C 161.32,139.82 161.72,139.5 162.13,139.86 C 162.35,140.05 162.47,140.34 162.54,140.6 C 162.57,140.74 162.59,140.88 162.59,141.03 C 162.59,141.1 162.59,141.17 162.58,141.25 C 162.58,141.26 162.59,141.24 162.6,141.24 C 162.61,141.23 162.61,141.22 162.62,141.22 C 162.63,141.2 162.65,141.19 162.66,141.18 C 162.69,141.15 162.71,141.13 162.74,141.1 z M 162.54,142.92 C 162.49,142.93 162.44,142.93 162.38,142.92 C 162.35,142.92 162.32,142.92 162.29,142.91 C 162.28,142.91 162.26,142.88 162.25,142.91 C 162.25,142.92 162.25,142.94 162.25,142.96 C 162.24,143.04 162.21,143.16 162.14,143.23 C 162.07,143.29 162.0,143.26 161.94,143.2 C 161.9,143.15 161.87,143.1 161.85,143.04 C 161.84,143.02 161.83,143.0 161.83,142.98 C 161.82,142.97 161.83,142.94 161.8,142.95 C 161.77,142.96 161.74,142.98 161.7,142.99 C 161.39,143.09 161.29,142.92 161.49,142.67 C 161.5,142.65 161.51,142.64 161.52,142.62 C 161.53,142.62 161.54,142.61 161.54,142.6 C 161.55,142.6 161.57,142.59 161.56,142.58 C 161.52,142.56 161.49,142.54 161.47,142.51 C 161.42,142.47 161.38,142.43 161.35,142.37 C 161.31,142.29 161.32,142.22 161.41,142.18 C 161.51,142.13 161.61,142.15 161.71,142.18 C 161.72,142.18 161.73,142.18 161.74,142.18 C 161.75,142.18 161.74,142.17 161.74,142.17 C 161.74,142.15 161.75,142.14 161.75,142.12 C 161.75,142.09 161.76,142.06 161.77,142.03 C 161.78,141.98 161.79,141.94 161.82,141.89 C 161.87,141.82 161.94,141.79 162.02,141.85 C 162.07,141.89 162.1,141.94 162.13,141.99 C 162.14,142.03 162.16,142.06 162.17,142.1 C 162.17,142.11 162.16,142.15 162.19,142.14 C 162.21,142.13 162.23,142.12 162.25,142.11 C 162.33,142.08 162.45,142.04 162.54,142.08 C 162.57,142.09 162.59,142.11 162.6,142.14 C 162.62,142.19 162.6,142.26 162.58,142.3 C 162.57,142.33 162.56,142.35 162.54,142.38 C 162.52,142.4 162.5,142.42 162.48,142.45 C 162.47,142.46 162.46,142.47 162.45,142.48 C 162.45,142.49 162.45,142.49 162.44,142.49 C 162.44,142.49 162.43,142.49 162.44,142.5 C 162.44,142.5 162.45,142.51 162.46,142.51 C 162.48,142.53 162.51,142.55 162.53,142.57 C 162.54,142.58 162.55,142.59 162.56,142.6 C 162.57,142.61 162.56,142.61 162.56,142.62 C 162.56,142.62 162.56,142.63 162.56,142.64 C 162.56,142.65 162.56,142.66 162.56,142.68 C 162.55,142.7 162.55,142.73 162.55,142.76 C 162.54,142.81 162.54,142.87 162.54,142.92 z M 135.49,157.88 C 135.58,157.77 135.67,157.66 135.76,157.55 C 135.81,157.49 135.86,157.44 135.9,157.38 C 135.94,157.33 135.99,157.29 135.98,157.22 C 135.98,157.2 135.96,157.18 135.99,157.16 C 136.0,157.15 136.02,157.15 136.03,157.14 C 136.06,157.12 136.08,157.1 136.11,157.08 C 136.16,157.04 136.21,156.99 136.26,156.94 C 136.36,156.84 136.44,156.74 136.52,156.62 C 136.57,156.54 136.62,156.45 136.67,156.36 C 136.68,156.34 136.69,156.32 136.7,156.29 C 136.71,156.28 136.72,156.3 136.73,156.3 C 136.74,156.3 136.75,156.3 136.76,156.3 C 136.78,156.3 136.8,156.3 136.82,156.29 C 136.87,156.26 137.02,156.08 137.05,156.05 C 137.14,155.94 137.24,155.84 137.33,155.74 C 137.38,155.69 137.42,155.64 137.47,155.59 C 137.49,155.56 137.52,155.53 137.54,155.51 C 137.55,155.5 137.57,155.46 137.57,155.48 C 137.56,155.5 137.56,155.52 137.55,155.53 C 137.39,156.07 137.21,156.58 136.87,157.04 C 136.54,157.49 136.07,157.83 135.49,157.88 z M 144.39,151.19 C 144.58,151.11 144.9,150.95 144.95,150.71 C 145.0,150.51 144.78,150.41 144.62,150.37 C 144.5,150.34 144.37,150.34 144.24,150.34 C 144.23,150.34 144.19,150.36 144.2,150.34 C 144.2,150.32 144.2,150.31 144.2,150.29 C 144.2,150.25 144.21,150.22 144.21,150.19 C 144.21,150.12 144.21,150.06 144.2,149.99 C 144.19,149.85 144.15,149.62 143.98,149.57 C 143.8,149.52 143.64,149.69 143.55,149.8 C 143.51,149.85 143.48,149.9 143.44,149.96 C 143.42,149.98 143.41,150.01 143.39,150.04 C 143.38,150.06 143.38,150.07 143.37,150.09 C 143.36,150.11 143.34,150.07 143.33,150.07 C 143.22,149.99 143.11,149.93 142.99,149.88 C 142.84,149.83 142.6,149.78 142.53,149.98 C 142.49,150.09 142.51,150.18 142.54,150.29 C 142.56,150.35 142.58,150.42 142.62,150.48 C 142.63,150.52 142.65,150.55 142.67,150.59 C 142.68,150.6 142.69,150.62 142.7,150.64 C 142.71,150.65 142.71,150.66 142.72,150.66 C 142.72,150.67 142.72,150.67 142.73,150.68 C 142.73,150.68 142.74,150.69 142.73,150.69 C 142.55,150.77 142.23,150.92 142.17,151.17 C 142.12,151.37 142.35,151.47 142.5,151.51 C 142.63,151.53 142.76,151.54 142.89,151.53 C 142.9,151.53 142.93,151.52 142.93,151.54 C 142.93,151.56 142.93,151.57 142.93,151.59 C 142.92,151.62 142.92,151.66 142.92,151.69 C 142.92,151.76 142.92,151.82 142.92,151.88 C 142.94,152.02 142.98,152.26 143.15,152.31 C 143.33,152.36 143.49,152.19 143.58,152.08 C 143.62,152.03 143.65,151.98 143.69,151.92 C 143.7,151.89 143.72,151.86 143.74,151.83 C 143.74,151.82 143.75,151.8 143.76,151.79 C 143.77,151.77 143.79,151.8 143.8,151.81 C 143.9,151.89 144.01,151.95 144.13,152.0 C 144.29,152.05 144.52,152.09 144.6,151.9 C 144.68,151.66 144.5,151.35 144.39,151.19 z M 144.73,151.29 C 145.05,151.52 145.45,152.03 145.36,152.48 C 145.27,152.94 144.77,152.87 144.45,152.7 C 144.24,152.58 144.08,152.44 143.93,152.25 C 143.91,152.23 143.9,152.2 143.88,152.18 C 143.87,152.17 143.86,152.16 143.86,152.14 C 143.85,152.14 143.85,152.13 143.84,152.12 C 143.84,152.12 143.84,152.13 143.84,152.14 C 143.83,152.2 143.82,152.25 143.81,152.31 C 143.79,152.42 143.75,152.53 143.71,152.63 C 143.59,152.91 143.25,153.4 142.86,153.28 C 142.47,153.16 142.45,152.57 142.51,152.27 C 142.53,152.16 142.56,152.05 142.6,151.95 C 142.62,151.89 142.64,151.84 142.67,151.79 C 142.67,151.78 142.68,151.77 142.68,151.77 C 142.67,151.78 142.66,151.78 142.65,151.78 C 142.64,151.79 142.63,151.79 142.61,151.8 C 142.59,151.81 142.56,151.82 142.53,151.83 C 142.31,151.9 142.09,151.94 141.86,151.92 C 141.49,151.89 141.04,151.66 141.21,151.24 C 141.3,151.03 141.5,150.87 141.69,150.78 C 141.8,150.72 141.91,150.68 142.04,150.64 C 142.09,150.63 142.15,150.62 142.21,150.61 C 142.24,150.6 142.27,150.6 142.31,150.6 C 142.32,150.59 142.34,150.59 142.35,150.59 C 142.36,150.59 142.37,150.59 142.38,150.59 C 142.38,150.59 142.38,150.59 142.39,150.59 C 142.39,150.59 142.41,150.59 142.4,150.59 C 142.08,150.36 141.68,149.84 141.77,149.39 C 141.86,148.94 142.36,149.01 142.68,149.18 C 142.89,149.3 143.05,149.44 143.2,149.63 C 143.21,149.65 143.23,149.67 143.25,149.7 C 143.25,149.71 143.26,149.72 143.27,149.73 C 143.28,149.74 143.28,149.75 143.28,149.75 C 143.29,149.76 143.29,149.74 143.29,149.74 C 143.29,149.68 143.3,149.62 143.32,149.57 C 143.34,149.46 143.37,149.35 143.42,149.25 C 143.54,148.96 143.88,148.48 144.27,148.6 C 144.66,148.72 144.67,149.3 144.62,149.61 C 144.6,149.72 144.57,149.83 144.53,149.93 C 144.51,149.99 144.48,150.04 144.46,150.09 C 144.45,150.09 144.44,150.11 144.45,150.1 C 144.46,150.1 144.47,150.1 144.47,150.1 C 144.49,150.09 144.5,150.08 144.51,150.08 C 144.54,150.07 144.57,150.06 144.59,150.05 C 144.82,149.97 145.03,149.94 145.27,149.96 C 145.63,149.99 146.09,150.21 145.92,150.64 C 145.74,151.07 145.12,151.27 144.73,151.29 z M 156.72,150.54 C 156.9,150.43 157.07,150.31 157.21,150.15 C 157.31,150.04 157.39,149.93 157.4,149.77 C 157.43,149.48 157.11,149.38 156.88,149.36 C 156.7,149.35 156.52,149.36 156.34,149.4 C 156.33,149.4 156.32,149.4 156.31,149.4 C 156.3,149.4 156.28,149.42 156.28,149.4 C 156.28,149.38 156.28,149.35 156.28,149.33 C 156.28,149.28 156.27,149.23 156.27,149.18 C 156.26,149.09 156.25,149.01 156.23,148.92 C 156.18,148.73 156.08,148.41 155.83,148.37 C 155.58,148.34 155.39,148.6 155.29,148.77 C 155.24,148.85 155.2,148.93 155.16,149.01 C 155.15,149.05 155.13,149.1 155.11,149.14 C 155.1,149.17 155.09,149.19 155.09,149.21 C 155.08,149.23 155.07,149.21 155.06,149.21 C 155.05,149.2 155.04,149.19 155.03,149.19 C 154.87,149.1 154.71,149.03 154.53,148.99 C 154.31,148.94 153.97,148.93 153.9,149.22 C 153.87,149.38 153.91,149.5 153.97,149.64 C 154.01,149.73 154.06,149.82 154.12,149.9 C 154.15,149.95 154.18,149.99 154.21,150.03 C 154.23,150.06 154.25,150.08 154.27,150.1 C 154.28,150.11 154.29,150.12 154.29,150.13 C 154.3,150.14 154.3,150.14 154.31,150.15 C 154.31,150.15 154.33,150.16 154.32,150.16 C 154.14,150.27 153.97,150.39 153.83,150.55 C 153.73,150.66 153.65,150.77 153.63,150.93 C 153.61,151.23 153.93,151.32 154.16,151.34 C 154.34,151.35 154.52,151.34 154.69,151.31 C 154.71,151.3 154.72,151.3 154.73,151.3 C 154.74,151.3 154.76,151.28 154.76,151.3 C 154.76,151.33 154.76,151.35 154.76,151.37 C 154.76,151.42 154.76,151.47 154.77,151.52 C 154.78,151.61 154.79,151.7 154.81,151.78 C 154.86,151.97 154.96,152.29 155.21,152.33 C 155.46,152.37 155.65,152.1 155.75,151.93 C 155.8,151.85 155.84,151.77 155.88,151.69 C 155.89,151.65 155.91,151.6 155.93,151.56 C 155.94,151.54 155.94,151.51 155.95,151.49 C 155.96,151.47 155.97,151.49 155.98,151.5 C 155.99,151.5 156.0,151.51 156.01,151.51 C 156.17,151.6 156.33,151.67 156.51,151.71 C 156.73,151.76 157.07,151.77 157.14,151.48 C 157.17,151.32 157.13,151.2 157.07,151.06 C 156.98,150.86 156.86,150.7 156.72,150.54 z M 157.2,150.62 C 157.69,150.87 158.35,151.51 158.31,152.15 C 158.27,152.8 157.56,152.8 157.08,152.62 C 156.77,152.5 156.52,152.33 156.28,152.1 C 156.25,152.07 156.22,152.04 156.19,152.01 C 156.18,152.0 156.17,151.98 156.15,151.97 C 156.15,151.96 156.14,151.95 156.13,151.94 C 156.12,151.93 156.13,151.96 156.13,151.96 C 156.13,152.05 156.13,152.13 156.12,152.21 C 156.11,152.37 156.08,152.52 156.04,152.67 C 155.93,153.09 155.55,153.82 154.99,153.73 C 154.42,153.64 154.29,152.83 154.31,152.4 C 154.32,152.24 154.34,152.09 154.37,151.93 C 154.39,151.85 154.42,151.78 154.44,151.7 C 154.44,151.69 154.46,151.67 154.45,151.68 C 154.44,151.68 154.43,151.69 154.42,151.69 C 154.4,151.7 154.39,151.71 154.37,151.72 C 154.33,151.74 154.3,151.76 154.26,151.78 C 153.96,151.93 153.67,152.01 153.34,152.03 C 152.83,152.06 152.15,151.84 152.31,151.21 C 152.39,150.9 152.65,150.65 152.89,150.48 C 153.03,150.38 153.18,150.3 153.34,150.23 C 153.42,150.2 153.5,150.17 153.58,150.15 C 153.63,150.14 153.67,150.12 153.71,150.11 C 153.73,150.11 153.75,150.1 153.77,150.1 C 153.79,150.1 153.8,150.09 153.81,150.09 C 153.81,150.09 153.82,150.09 153.82,150.09 C 153.83,150.09 153.85,150.09 153.84,150.09 C 153.35,149.83 152.69,149.19 152.73,148.55 C 152.77,147.9 153.48,147.9 153.96,148.08 C 154.27,148.2 154.52,148.37 154.76,148.6 C 154.79,148.63 154.82,148.66 154.84,148.69 C 154.86,148.71 154.87,148.72 154.89,148.74 C 154.89,148.74 154.9,148.75 154.91,148.76 C 154.91,148.77 154.91,148.75 154.91,148.74 C 154.91,148.66 154.91,148.58 154.92,148.5 C 154.93,148.34 154.95,148.18 155.0,148.03 C 155.11,147.62 155.48,146.88 156.05,146.97 C 156.62,147.06 156.75,147.87 156.73,148.3 C 156.72,148.46 156.7,148.62 156.66,148.77 C 156.65,148.85 156.62,148.93 156.6,149.0 C 156.59,149.01 156.58,149.03 156.59,149.03 C 156.6,149.02 156.61,149.01 156.62,149.01 C 156.64,149.0 156.65,148.99 156.67,148.98 C 156.71,148.96 156.74,148.94 156.78,148.92 C 157.07,148.77 157.37,148.69 157.7,148.67 C 158.21,148.64 158.88,148.87 158.72,149.49 C 158.56,150.12 157.74,150.52 157.2,150.62 z M 156.04,150.43 C 156.12,150.53 156.26,150.7 156.23,150.84 C 156.2,150.97 156.05,150.97 155.95,150.94 C 155.87,150.93 155.8,150.9 155.73,150.86 C 155.73,150.85 155.71,150.83 155.71,150.85 C 155.71,150.86 155.7,150.87 155.7,150.88 C 155.69,150.9 155.68,150.92 155.67,150.94 C 155.66,150.97 155.64,151.01 155.62,151.04 C 155.58,151.11 155.49,151.23 155.38,151.21 C 155.27,151.2 155.23,151.06 155.21,150.98 C 155.2,150.94 155.2,150.9 155.19,150.86 C 155.19,150.84 155.19,150.82 155.19,150.8 C 155.19,150.79 155.19,150.78 155.19,150.77 C 155.19,150.75 155.17,150.77 155.16,150.77 C 155.08,150.78 155.0,150.79 154.93,150.78 C 154.83,150.77 154.68,150.73 154.7,150.6 C 154.7,150.53 154.74,150.49 154.78,150.44 C 154.81,150.41 154.84,150.38 154.88,150.35 C 154.9,150.34 154.91,150.32 154.93,150.31 C 154.94,150.3 154.95,150.29 154.97,150.29 C 154.97,150.28 154.98,150.28 154.98,150.28 C 154.99,150.28 155.0,150.28 155.0,150.27 C 154.92,150.18 154.78,150.01 154.81,149.86 C 154.84,149.73 154.99,149.74 155.09,149.76 C 155.16,149.78 155.23,149.81 155.3,149.84 C 155.31,149.85 155.32,149.87 155.33,149.85 C 155.33,149.84 155.34,149.83 155.34,149.82 C 155.35,149.8 155.36,149.78 155.36,149.77 C 155.38,149.73 155.4,149.69 155.42,149.66 C 155.46,149.59 155.55,149.47 155.66,149.49 C 155.77,149.51 155.81,149.64 155.83,149.73 C 155.84,149.76 155.84,149.8 155.85,149.84 C 155.85,149.86 155.85,149.88 155.85,149.9 C 155.85,149.91 155.85,149.93 155.85,149.94 C 155.85,149.95 155.87,149.94 155.88,149.93 C 155.96,149.92 156.03,149.91 156.11,149.92 C 156.21,149.93 156.35,149.97 156.34,150.1 C 156.33,150.25 156.15,150.37 156.04,150.43 z M 165.41,132.59 C 165.35,132.6 165.28,132.61 165.22,132.61 C 164.72,132.68 164.22,132.79 163.75,132.95 C 163.26,133.12 162.79,133.32 162.34,133.56 C 162.26,133.61 162.17,133.66 162.09,133.71 C 162.06,133.56 162.03,133.41 162.01,133.26 C 162.05,133.24 162.08,133.22 162.12,133.2 C 162.59,132.94 163.08,132.73 163.59,132.56 C 164.03,132.41 164.49,132.29 164.95,132.22 C 165.1,132.36 165.25,132.48 165.41,132.59 z M 155.5,135.91 C 156.36,136.46 157.21,137.02 158.07,137.57 C 158.0,137.68 157.94,137.8 157.87,137.91 C 157.02,137.4 156.16,136.89 155.3,136.38 C 155.37,136.22 155.44,136.06 155.5,135.91 z"
		 />

		<!-- Prism Reference -->
		<cam mingh:cam="--verb EditSelectAll --verb ZoomSelection --verb FileSave" /> 
	 </g>

</svg>
