<svg
   xmlns:xlink="http://www.w3.org/1999/xlink"
   xmlns:svg="http://www.w3.org/2000/svg"
   xmlns="http://www.w3.org/2000/svg"
   xmlns:mingh="http://www.minghworld.com"
   width="300px"
   height="300px" >
	
	 <g>
		
		<!-- Paths -->
		<path transform="matrix(-1 0 0 1 300 0)" style="fill:#ff0;stroke:none;"
		 d="M 146.53,126.44 C 146.0,126.4 145.44,126.46 144.94,126.63 C 144.43,126.79 143.97,127.09 143.56,127.44 C 143.16,127.79 142.83,128.21 142.59,128.69 C 142.35,129.16 142.19,129.69 142.16,130.22 C 142.12,130.75 142.21,131.28 142.38,131.78 C 142.54,132.29 142.81,132.78 143.16,133.19 C 143.38,133.45 143.62,133.65 143.91,133.84 C 144.02,133.92 143.98,134.12 143.84,134.13 C 142.15,134.16 140.46,134.3 138.84,134.59 C 138.73,134.62 138.64,134.53 138.66,134.41 C 138.66,134.35 138.68,134.28 138.69,134.22 C 138.7,134.11 138.64,133.98 138.56,133.91 C 138.49,133.83 138.38,133.82 138.28,133.84 C 137.71,133.98 137.15,134.14 136.59,134.31 C 136.37,134.37 136.16,134.57 136.09,134.81 C 135.31,137.41 134.81,140.11 134.72,142.59 C 134.7,142.83 134.88,143.07 135.09,143.13 C 135.46,143.24 135.83,143.37 136.19,143.5 C 136.29,143.54 136.43,143.52 136.53,143.47 C 136.63,143.41 136.72,143.33 136.75,143.22 C 136.77,143.14 136.79,143.08 136.81,143.0 C 136.84,142.9 136.94,142.84 137.03,142.88 C 137.83,143.18 138.6,143.52 139.38,143.91 C 139.45,143.94 139.49,144.01 139.47,144.09 C 139.42,144.3 139.39,144.48 139.34,144.66 C 139.18,145.34 139.06,145.83 138.91,146.31 C 138.71,146.95 138.46,147.6 138.03,148.19 C 137.61,148.78 136.99,149.32 136.34,149.91 C 135.7,150.49 135.02,151.11 134.44,151.81 C 133.85,152.52 133.38,153.29 132.91,154.22 C 132.44,155.14 132.01,156.2 131.66,157.19 C 131.65,157.21 131.64,157.23 131.63,157.25 C 131.16,157.84 130.64,158.46 130.5,159.19 C 130.4,159.68 130.48,160.2 130.69,160.66 C 130.94,161.2 131.41,161.64 131.75,162.13 C 132.27,162.86 132.49,163.71 132.75,164.59 C 133.01,165.45 133.3,166.35 133.5,167.22 C 133.57,167.51 133.61,167.8 133.66,168.09 C 133.66,168.11 133.66,168.11 133.66,168.13 C 133.65,168.16 133.66,168.19 133.66,168.22 C 133.66,168.42 133.76,168.59 133.91,168.78 C 134.06,168.98 134.26,169.23 134.5,169.41 C 134.86,169.67 135.34,169.83 135.53,169.81 C 135.54,169.81 135.56,169.81 135.56,169.81 C 135.61,169.8 135.65,169.78 135.69,169.75 C 135.72,169.72 135.76,169.71 135.78,169.75 C 135.86,169.88 135.94,170.01 136.03,170.13 C 137.2,171.61 139.2,172.61 141.09,172.66 C 141.25,172.66 141.41,172.67 141.56,172.66 C 141.6,172.65 141.63,172.68 141.63,172.72 C 141.62,172.77 141.64,172.83 141.66,172.88 C 141.66,172.88 141.68,172.87 141.69,172.88 C 141.78,173.04 142.19,173.34 142.63,173.47 C 142.91,173.56 143.22,173.56 143.47,173.56 C 143.71,173.56 143.9,173.55 144.06,173.44 C 144.09,173.42 144.1,173.4 144.13,173.38 C 144.14,173.36 144.14,173.35 144.16,173.34 C 144.42,173.21 144.69,173.09 144.97,172.97 C 145.79,172.6 146.66,172.31 147.5,172.0 C 148.37,171.68 149.2,171.34 150.09,171.31 C 150.68,171.3 151.32,171.43 151.91,171.31 C 152.4,171.21 152.85,170.93 153.19,170.56 C 153.69,170.01 153.87,169.23 154.06,168.5 C 154.07,168.48 154.08,168.49 154.09,168.47 C 154.68,167.59 155.26,166.58 155.72,165.66 C 156.18,164.72 156.54,163.89 156.75,163.0 C 156.96,162.11 157.04,161.18 157.13,160.31 C 157.21,159.45 157.28,158.63 157.5,157.94 C 157.72,157.24 158.08,156.7 158.47,156.16 C 158.77,155.74 159.09,155.32 159.53,154.78 C 159.64,154.64 159.77,154.5 159.91,154.34 C 159.96,154.28 160.05,154.28 160.13,154.31 C 160.9,154.7 161.62,155.1 162.34,155.56 C 162.43,155.62 162.47,155.73 162.41,155.81 C 162.36,155.88 162.3,155.94 162.25,156.0 C 162.18,156.1 162.17,156.23 162.19,156.34 C 162.2,156.46 162.25,156.57 162.34,156.63 C 162.66,156.83 163.0,157.06 163.31,157.28 C 163.48,157.42 163.79,157.41 163.97,157.25 C 165.91,155.69 167.76,153.71 169.38,151.53 C 169.53,151.34 169.58,151.03 169.5,150.81 C 169.3,150.26 169.08,149.7 168.84,149.16 C 168.8,149.06 168.73,148.98 168.63,148.97 C 168.52,148.95 168.39,149.01 168.31,149.09 C 168.27,149.13 168.23,149.18 168.19,149.22 C 168.1,149.3 167.96,149.26 167.91,149.16 C 166.68,146.69 165.03,144.32 163.13,142.19 C 163.07,142.12 163.07,142.01 163.13,141.94 C 163.18,141.87 163.23,141.81 163.28,141.75 C 163.44,141.59 163.42,141.25 163.25,141.09 C 162.76,140.57 162.24,140.05 161.72,139.56 C 161.64,139.49 161.55,139.46 161.44,139.47 C 161.34,139.48 161.25,139.55 161.19,139.63 C 161.17,139.64 161.15,139.64 161.13,139.66 C 160.26,140.16 159.7,140.2 159.16,140.16 C 157.82,140.06 156.57,139.5 155.38,138.91 C 153.84,138.15 152.41,137.36 151.47,136.38 C 151.23,136.12 151.01,135.84 150.84,135.5 C 150.69,135.19 150.59,134.82 150.53,134.34 C 150.53,134.32 150.52,134.3 150.53,134.28 C 150.56,134.19 150.55,134.09 150.5,134.0 C 150.44,133.9 150.33,133.83 150.22,133.81 C 149.87,133.75 149.54,133.68 149.19,133.63 C 149.07,133.61 149.01,133.49 149.09,133.41 C 149.4,133.1 149.68,132.74 149.88,132.34 C 150.11,131.87 150.24,131.34 150.28,130.81 C 150.32,130.28 150.26,129.72 150.09,129.22 C 149.93,128.71 149.66,128.25 149.31,127.84 C 148.96,127.44 148.54,127.11 148.06,126.88 C 147.59,126.64 147.06,126.48 146.53,126.44 z M 146.22,128.56 C 146.47,128.56 146.73,128.62 146.97,128.72 C 147.2,128.82 147.41,128.94 147.59,129.13 C 147.77,129.31 147.93,129.51 148.03,129.75 C 148.13,129.99 148.19,130.24 148.19,130.5 C 148.19,130.76 148.13,131.01 148.03,131.25 C 147.93,131.49 147.77,131.69 147.59,131.88 C 147.41,132.06 147.2,132.21 146.97,132.31 C 146.73,132.41 146.47,132.47 146.22,132.47 C 145.96,132.47 145.7,132.41 145.47,132.31 C 145.23,132.21 145.02,132.06 144.84,131.88 C 144.66,131.69 144.54,131.49 144.44,131.25 C 144.34,131.01 144.28,130.76 144.28,130.5 C 144.28,130.24 144.34,129.99 144.44,129.75 C 144.54,129.51 144.66,129.31 144.84,129.13 C 145.02,128.94 145.23,128.82 145.47,128.72 C 145.7,128.62 145.96,128.56 146.22,128.56 z M 144.03,154.66 C 144.21,154.62 144.39,154.63 144.56,154.66 C 144.85,154.69 145.14,154.8 145.38,154.97 C 145.6,155.12 145.78,155.32 145.91,155.56 C 146.0,155.75 146.07,155.97 146.06,156.19 C 146.06,156.25 146.07,156.31 146.06,156.38 C 146.05,156.43 146.12,156.44 146.16,156.41 C 146.2,156.36 146.23,156.32 146.28,156.28 C 146.45,156.15 146.67,156.07 146.88,156.03 C 147.15,155.99 147.43,156.04 147.69,156.13 C 147.96,156.22 148.2,156.35 148.41,156.56 C 148.65,156.82 148.83,157.15 148.88,157.5 C 148.92,157.87 148.83,158.25 148.66,158.56 C 148.48,158.89 148.22,159.13 147.94,159.34 C 147.27,159.85 146.44,160.16 145.63,160.41 C 145.09,160.57 144.55,160.71 144.0,160.81 C 143.92,160.83 143.85,160.79 143.81,160.72 C 143.56,160.22 143.35,159.69 143.16,159.16 C 142.87,158.35 142.62,157.52 142.63,156.69 C 142.63,156.33 142.69,155.99 142.84,155.66 C 142.99,155.33 143.24,155.03 143.56,154.84 C 143.71,154.76 143.86,154.69 144.03,154.66 z" />
		
		
		<text id="txtTwo" transform="matrix(1 0 0 1 150 160)" style="stroke:none;fill:#f00;font-family:'Eras Medium ITC';font-size:20px;text-anchor:middle"  >

		</text>
		<!-- Prism Reference -->
		<cam mingh:cam="--verb EditSelectAll --verb ZoomSelection --verb FileSave"/> 
	 </g>

</svg>