<svg
   xmlns:xlink="http://www.w3.org/1999/xlink"
   xmlns:svg="http://www.w3.org/2000/svg"
   xmlns="http://www.w3.org/2000/svg"
   xmlns:mingh="http://www.minghworld.com"
   width="300px"
   height="300px" >
	
	 <g>
		
		<!-- Paths -->
		<path style="fill:none;stroke:#000;stroke-width:0.25px;"
		 d="M 150.0,128.47 C 149.47,128.47 148.93,128.58 148.44,128.78 C 147.94,128.99 147.5,129.31 147.13,129.69 C 146.75,130.06 146.45,130.51 146.25,131.0 C 146.05,131.49 145.94,132.03 145.94,132.56 C 145.94,133.1 146.05,133.63 146.25,134.13 C 146.29,134.22 146.33,134.31 146.38,134.41 C 146.53,134.7 146.21,135.01 145.91,134.88 C 143.51,133.81 141.01,133.46 138.41,133.91 C 135.87,134.34 133.49,135.51 131.63,137.28 C 127.82,140.9 126.73,146.62 127.97,151.5 C 129.23,156.49 133.08,160.7 136.75,163.81 C 140.71,167.17 144.98,169.81 149.94,171.5 C 149.98,171.51 150.02,171.51 150.06,171.5 C 155.02,169.81 159.29,167.17 163.25,163.81 C 166.92,160.7 170.77,156.48 172.03,151.5 C 173.27,146.62 172.18,140.93 168.38,137.31 C 166.51,135.54 164.13,134.34 161.59,133.91 C 158.99,133.47 156.49,133.81 154.09,134.88 C 153.79,135.01 153.47,134.7 153.63,134.41 C 153.67,134.31 153.71,134.22 153.75,134.13 C 153.95,133.63 154.06,133.1 154.06,132.56 C 154.06,132.03 153.95,131.49 153.75,131.0 C 153.55,130.51 153.25,130.06 152.88,129.69 C 152.5,129.31 152.06,128.99 151.56,128.78 C 151.07,128.58 150.53,128.47 150.0,128.47 z M 150.0,130.59 C 150.26,130.59 150.51,130.65 150.75,130.75 C 150.99,130.85 151.19,131.01 151.38,131.19 C 151.56,131.37 151.71,131.58 151.81,131.81 C 151.91,132.05 151.94,132.31 151.94,132.56 C 151.94,132.82 151.91,133.08 151.81,133.31 C 151.71,133.55 151.56,133.76 151.38,133.94 C 151.19,134.12 150.99,134.25 150.75,134.34 C 150.51,134.44 150.26,134.5 150.0,134.5 C 149.74,134.5 149.49,134.44 149.25,134.34 C 149.01,134.25 148.81,134.12 148.63,133.94 C 148.44,133.76 148.29,133.55 148.19,133.31 C 148.09,133.08 148.06,132.82 148.06,132.56 C 148.06,132.31 148.09,132.05 148.19,131.81 C 148.29,131.58 148.44,131.37 148.63,131.19 C 148.81,131.01 149.01,130.85 149.25,130.75 C 149.49,130.65 149.74,130.59 150.0,130.59 z M 147.31,148.94 C 147.62,148.96 147.91,149.06 148.19,149.16 C 148.81,149.38 149.35,149.7 149.88,150.13 C 149.94,150.18 150.06,150.18 150.13,150.13 C 150.65,149.7 151.19,149.38 151.81,149.16 C 152.37,148.96 152.98,148.83 153.63,149.09 C 154.1,149.28 154.62,149.67 154.88,150.16 C 155.18,150.73 155.15,151.46 155.0,152.06 C 154.83,152.73 154.48,153.25 154.09,153.72 C 153.48,154.47 152.78,155.06 152.0,155.56 C 151.39,155.95 150.73,156.27 150.06,156.59 C 150.01,156.62 149.99,156.62 149.94,156.59 C 149.27,156.27 148.61,155.95 148.0,155.56 C 147.22,155.06 146.52,154.47 145.91,153.72 C 145.52,153.25 145.17,152.73 145.0,152.06 C 144.85,151.46 144.82,150.73 145.13,150.16 C 145.38,149.67 145.9,149.28 146.38,149.09 C 146.7,148.96 147.01,148.92 147.31,148.94 z"
		 />
		 <path style="fill:#f00;stroke:none;"
		 d="M 146.63,135.23 C 146.74,135.13 146.81,135.03 146.87,134.9 C 146.89,134.83 146.91,134.77 146.92,134.7 C 146.93,134.66 146.93,134.62 146.93,134.59 C 146.93,134.57 146.95,134.59 146.96,134.6 C 146.96,134.6 146.97,134.6 146.98,134.61 C 147.11,134.67 147.24,134.74 147.37,134.81 C 147.63,134.95 147.88,135.09 148.13,135.25 C 148.73,135.61 149.31,136.0 149.87,136.41 C 149.9,136.44 149.94,136.47 149.97,136.49 C 149.98,136.5 149.99,136.51 150.0,136.51 C 150.0,136.52 150.01,136.51 150.01,136.51 C 150.02,136.5 150.02,136.5 150.02,136.5 C 150.04,136.48 150.06,136.47 150.08,136.46 C 150.15,136.4 150.22,136.35 150.29,136.3 C 150.43,136.2 150.57,136.1 150.71,136.0 C 151.0,135.8 151.29,135.6 151.59,135.42 C 151.86,135.25 152.13,135.09 152.41,134.94 C 152.54,134.86 152.68,134.78 152.82,134.71 C 152.89,134.67 152.96,134.64 153.04,134.6 C 153.04,134.6 153.05,134.59 153.06,134.59 C 153.07,134.58 153.07,134.6 153.07,134.61 C 153.07,134.61 153.07,134.62 153.07,134.63 C 153.07,134.67 153.08,134.71 153.09,134.75 C 153.1,134.83 153.13,134.9 153.16,134.96 C 153.2,135.03 153.24,135.09 153.29,135.15 C 153.3,135.16 153.32,135.18 153.33,135.19 C 153.34,135.2 153.34,135.2 153.35,135.21 C 153.36,135.21 153.38,135.22 153.37,135.23 C 153.35,135.23 153.33,135.24 153.31,135.25 C 153.24,135.29 153.17,135.33 153.1,135.37 C 152.96,135.44 152.81,135.52 152.67,135.6 C 152.39,135.76 152.11,135.92 151.84,136.1 C 151.25,136.47 150.68,136.88 150.13,137.31 C 150.1,137.33 150.06,137.36 150.03,137.39 C 150.02,137.4 150.01,137.4 150.0,137.41 C 150.0,137.41 149.99,137.41 149.99,137.4 C 149.99,137.4 149.98,137.4 149.98,137.39 C 149.96,137.38 149.94,137.37 149.93,137.35 C 149.86,137.3 149.79,137.24 149.72,137.19 C 149.58,137.08 149.44,136.98 149.3,136.88 C 149.02,136.67 148.73,136.47 148.44,136.28 C 147.86,135.89 147.26,135.54 146.63,135.23 z M 147.36,155.28 C 146.66,156.22 145.96,157.15 145.26,158.09 C 144.93,157.84 144.61,157.59 144.29,157.33 C 143.44,156.62 142.62,155.86 141.91,155.01 C 141.2,154.15 140.59,153.2 140.21,152.15 C 139.83,151.11 139.68,149.98 139.83,148.87 C 139.99,147.77 140.44,146.69 141.2,145.89 C 141.95,145.08 143.0,144.54 144.1,144.36 C 145.19,144.19 146.33,144.38 147.36,144.73 C 148.38,145.09 149.3,145.6 150.0,146.27 C 150.7,145.6 151.62,145.09 152.64,144.73 C 153.67,144.38 154.81,144.19 155.9,144.36 C 157.0,144.54 158.05,145.08 158.8,145.89 C 159.56,146.69 160.01,147.77 160.17,148.87 C 160.32,149.98 160.17,151.11 159.79,152.15 C 159.41,153.2 158.8,154.15 158.09,155.01 C 157.47,155.75 156.77,156.43 156.03,157.05 C 155.92,157.15 155.82,157.24 155.71,157.33 C 155.27,157.69 154.82,158.04 154.36,158.37 C 154.75,158.92 155.15,159.48 155.55,160.03 C 155.9,160.52 156.26,161.02 156.61,161.51 C 155.92,162.0 155.22,162.46 154.49,162.89 C 153.06,163.74 151.56,164.46 150.0,165.02 C 148.44,164.46 146.94,163.74 145.51,162.89 C 144.08,162.05 142.74,161.07 141.45,160.02 C 140.93,159.59 140.42,159.14 139.92,158.68 C 139.47,159.19 139.02,159.71 138.57,160.22 C 138.18,160.67 137.79,161.11 137.41,161.55 C 136.16,160.45 134.98,159.27 133.9,157.99 C 132.47,156.29 131.23,154.42 130.47,152.36 C 129.91,150.83 129.62,149.19 129.62,147.55 C 130.69,147.68 131.77,147.8 132.85,147.93 C 132.73,149.61 132.96,151.31 133.5,152.9 C 134.11,154.67 135.1,156.3 136.28,157.76 C 136.31,157.8 136.34,157.83 136.36,157.87 C 136.89,157.44 137.42,157.02 137.94,156.6 C 137.93,156.58 137.91,156.57 137.9,156.55 C 136.84,155.27 135.94,153.85 135.38,152.29 C 134.83,150.73 134.62,149.04 134.84,147.39 C 135.06,145.74 135.7,144.14 136.77,142.87 C 137.83,141.61 139.32,140.69 140.92,140.28 C 142.53,139.87 144.25,139.98 145.82,140.39 C 146.81,140.65 147.74,141.03 148.58,141.5 C 148.58,140.94 148.58,140.38 148.58,139.82 C 147.45,139.16 146.22,138.67 144.94,138.42 C 143.1,138.06 141.16,138.19 139.4,138.84 C 137.64,139.49 136.06,140.66 134.94,142.16 C 134.12,143.25 133.54,144.51 133.2,145.83 C 132.06,145.7 130.92,145.56 129.78,145.43 C 130.1,143.38 130.91,141.39 132.21,139.8 C 133.59,138.1 135.54,136.84 137.66,136.22 C 139.78,135.59 142.08,135.6 144.2,136.19 C 146.32,136.78 148.27,137.94 150.0,139.3 C 151.73,137.94 153.68,136.78 155.8,136.19 C 157.92,135.6 160.22,135.59 162.34,136.22 C 162.65,136.31 162.96,136.42 163.27,136.53 C 162.72,137.45 162.17,138.37 161.62,139.29 C 161.29,139.12 160.95,138.97 160.6,138.84 C 158.85,138.19 156.9,138.06 155.06,138.42 C 153.78,138.67 152.55,139.16 151.42,139.82 C 151.42,140.38 151.42,140.94 151.42,141.5 C 152.26,141.03 153.19,140.65 154.18,140.39 C 155.75,139.98 157.47,139.87 159.08,140.28 C 159.63,140.42 160.16,140.62 160.67,140.87 C 161.31,141.19 161.91,141.59 162.44,142.06 C 162.76,141.52 163.08,140.98 163.41,140.44 C 163.99,139.46 164.58,138.48 165.17,137.49 C 166.17,138.12 167.06,138.89 167.79,139.8 C 169.18,141.5 170.0,143.64 170.28,145.84 C 170.56,148.04 170.29,150.3 169.53,152.36 C 168.77,154.42 167.53,156.29 166.1,157.99 C 164.67,159.68 163.07,161.2 161.36,162.6 C 159.96,163.76 158.5,164.85 156.97,165.82 C 157.29,166.4 157.62,166.97 157.95,167.55 C 157.77,167.66 157.59,167.77 157.41,167.88 C 156.79,168.27 156.15,168.63 155.5,168.98 C 155.17,168.4 154.85,167.83 154.52,167.25 C 153.06,168.03 151.55,168.71 150.0,169.28 C 147.92,168.52 145.93,167.56 144.03,166.43 C 142.28,165.39 140.61,164.21 139.03,162.92 C 139.41,162.49 139.78,162.06 140.16,161.63 C 140.2,161.66 140.23,161.69 140.27,161.72 C 141.72,162.92 143.25,164.02 144.87,164.96 C 146.5,165.89 148.22,166.67 150.0,167.27 C 151.78,166.67 153.5,165.89 155.13,164.96 C 156.75,164.02 158.28,162.92 159.73,161.72 C 161.18,160.53 162.54,159.23 163.72,157.76 C 164.9,156.3 165.89,154.67 166.5,152.9 C 167.1,151.13 167.32,149.21 167.09,147.35 C 166.9,145.77 166.38,144.22 165.55,142.87 C 165.09,143.34 164.63,143.8 164.17,144.27 C 164.68,145.23 165.01,146.3 165.16,147.39 C 165.38,149.04 165.17,150.73 164.62,152.29 C 164.06,153.85 163.16,155.27 162.1,156.55 C 161.04,157.83 159.83,158.97 158.55,160.02 C 158.46,160.09 158.38,160.15 158.3,160.22 C 157.94,159.72 157.58,159.21 157.22,158.71 C 158.11,157.95 158.94,157.13 159.68,156.22 C 160.51,155.19 161.2,154.03 161.63,152.78 C 162.07,151.53 162.24,150.18 162.08,148.87 C 161.93,147.55 161.46,146.26 160.66,145.2 C 159.86,144.15 158.74,143.32 157.49,142.89 C 156.25,142.46 154.87,142.43 153.57,142.71 C 152.27,142.98 151.05,143.56 150.0,144.37 C 148.95,143.56 147.73,142.98 146.43,142.71 C 145.13,142.43 143.75,142.46 142.51,142.89 C 141.26,143.32 140.14,144.15 139.34,145.2 C 138.54,146.26 138.07,147.55 137.92,148.87 C 137.76,150.18 137.93,151.53 138.37,152.78 C 138.8,154.03 139.49,155.19 140.32,156.22 C 141.16,157.25 142.12,158.17 143.14,159.02 C 143.44,159.26 143.73,159.49 144.03,159.72 C 144.6,160.15 145.18,160.56 145.78,160.94 C 145.98,161.06 146.18,161.19 146.39,161.3 C 147.53,161.97 148.74,162.53 150.0,162.95 C 151.04,162.6 152.04,162.16 153.01,161.64 C 152.64,161.05 152.27,160.46 151.9,159.87 C 151.28,160.19 150.65,160.48 150.0,160.72 C 148.97,160.33 147.97,159.84 147.03,159.27 C 147.38,158.8 147.74,158.32 148.1,157.84 C 148.41,158.02 148.73,158.18 149.06,158.33 C 149.36,158.47 149.68,158.6 150.0,158.71 C 150.32,158.6 150.64,158.47 150.94,158.33 C 151.49,158.08 152.02,157.79 152.52,157.46 C 153.17,157.04 153.79,156.56 154.35,156.03 C 155.03,155.41 155.64,154.73 156.12,153.93 C 157.02,152.45 157.51,150.58 156.76,149.06 C 156.38,148.3 155.7,147.63 154.88,147.28 C 153.78,146.82 152.42,146.94 151.36,147.43 C 150.84,147.67 150.39,148.0 150.0,148.39 C 149.61,148.0 149.16,147.67 148.64,147.43 C 147.58,146.94 146.22,146.82 145.12,147.28 C 144.3,147.63 143.62,148.3 143.24,149.06 C 142.49,150.58 142.98,152.45 143.88,153.93 C 143.97,154.07 144.06,154.21 144.15,154.35 C 144.55,153.97 144.95,153.58 145.35,153.19 C 145.48,153.4 145.63,153.6 145.78,153.79 C 146.09,154.17 146.43,154.52 146.8,154.83 C 146.98,154.99 147.17,155.14 147.36,155.28 z"
		 />

		<!-- Prism Reference -->
		<cam mingh:cam="--verb EditSelectAll --verb ZoomSelection --verb FileSave" /> 
	 </g>

</svg>
