<svg
   xmlns:xlink="http://www.w3.org/1999/xlink"
   xmlns:svg="http://www.w3.org/2000/svg"
   xmlns="http://www.w3.org/2000/svg"
   xmlns:mingh="http://www.minghworld.com"
   width="300px"
   height="300px" >
	
	 <g>
		
		<!-- Paths -->
		<path transform="matrix(-1 0 0 1 300 0)" style="fill:#ff0;stroke:none;"
		 d="M 149.84,130.13 C 149.52,130.14 149.17,130.19 148.84,130.28 C 146.24,131.04 145.1,134.09 146.56,136.38 C 146.66,136.53 146.5,136.71 146.34,136.63 C 145.32,136.1 144.36,135.97 143.22,136.13 C 142.17,136.27 141.1,136.68 140.22,137.25 C 138.33,138.46 137.2,140.27 136.84,142.47 C 136.83,142.56 136.75,142.64 136.66,142.63 C 135.73,142.49 134.87,142.62 134.06,143.13 C 133.35,143.57 132.52,144.4 132.13,145.16 C 131.74,145.91 131.57,146.85 131.59,147.69 C 131.6,148.09 131.66,148.49 131.75,148.88 C 131.8,149.09 131.86,149.29 131.91,149.5 C 131.94,149.63 131.97,149.81 131.78,149.75 C 131.47,149.65 130.99,149.12 130.81,148.88 C 130.56,148.53 130.43,148.19 130.34,147.78 C 130.26,147.38 130.21,146.98 130.22,146.56 C 130.22,146.35 130.24,146.12 130.22,145.91 C 130.19,145.64 129.95,145.57 129.72,145.63 C 129.31,145.72 128.82,146.29 128.63,146.59 C 128.37,146.98 128.22,147.37 128.09,147.81 C 127.86,148.65 127.85,149.41 128.06,150.25 C 128.13,150.52 128.24,150.8 128.34,151.06 C 128.41,151.24 128.48,151.38 128.53,151.56 C 128.63,151.91 128.4,152.01 128.09,151.94 C 127.81,151.87 127.58,151.72 127.34,151.56 C 127.02,151.34 126.74,151.09 126.47,150.81 C 125.95,150.28 125.51,149.71 125.16,149.06 C 125.01,148.8 124.89,148.53 124.78,148.25 C 124.73,148.13 124.71,147.99 124.66,147.88 C 124.62,147.78 124.56,147.71 124.47,147.66 C 124.34,147.58 124.17,147.57 124.06,147.69 C 123.96,147.8 123.92,147.95 123.88,148.09 C 123.71,148.6 123.64,149.09 123.66,149.63 C 123.68,150.54 123.94,151.24 124.38,152.03 C 124.47,152.21 124.56,152.36 124.66,152.53 C 124.69,152.6 124.87,152.87 124.84,152.97 C 124.81,153.07 124.68,153.1 124.59,153.06 C 124.51,153.02 124.45,152.96 124.38,152.91 C 124.28,152.84 124.19,152.76 124.09,152.69 C 123.98,152.6 123.89,152.5 123.78,152.41 C 123.69,152.33 123.59,152.27 123.5,152.19 C 123.4,152.1 123.32,152.01 123.19,152.09 C 123.02,152.19 123.06,152.34 123.06,152.5 C 123.07,152.62 123.07,152.73 123.09,152.84 C 123.14,153.07 123.21,153.31 123.28,153.53 C 123.36,153.77 123.45,154.0 123.56,154.22 C 123.69,154.46 123.83,154.67 124.0,154.88 C 124.37,155.31 124.81,155.67 125.22,156.06 C 125.37,156.21 126.07,156.92 126.09,157.19 C 126.1,157.29 126.03,157.32 125.94,157.31 C 125.83,157.31 125.76,157.28 125.66,157.25 C 125.48,157.19 125.31,157.12 125.16,157.03 C 125.0,156.94 124.76,156.79 124.56,156.81 C 124.29,156.85 124.29,157.06 124.38,157.28 C 124.43,157.43 124.49,157.58 124.56,157.72 C 124.62,157.83 124.68,157.93 124.75,158.03 C 124.87,158.21 125.01,158.37 125.16,158.53 C 125.46,158.87 125.81,159.17 126.16,159.47 C 126.49,159.76 126.83,160.02 127.16,160.31 C 127.44,160.57 127.79,160.93 127.94,161.31 C 127.99,161.44 128.02,161.58 128.03,161.72 C 128.04,161.82 128.02,161.88 127.91,161.88 C 127.73,161.87 127.61,161.79 127.47,161.72 C 127.29,161.62 127.12,161.53 126.94,161.44 C 126.78,161.36 126.6,161.26 126.44,161.19 C 126.34,161.15 126.26,161.11 126.16,161.13 C 126.05,161.14 125.93,161.22 125.88,161.31 C 125.81,161.43 125.86,161.56 125.91,161.66 C 125.99,161.85 126.08,162.04 126.19,162.22 C 126.55,162.85 126.96,163.42 127.41,164.0 C 127.77,164.47 128.17,164.9 128.59,165.31 C 129.48,166.17 130.45,166.87 131.53,167.47 C 134.44,169.07 138.21,169.92 141.5,169.88 C 143.23,169.85 144.77,169.54 146.31,168.72 C 147.95,167.85 149.18,166.59 149.88,164.84 C 149.92,164.72 150.08,164.72 150.13,164.84 C 150.82,166.59 152.05,167.85 153.69,168.72 C 155.23,169.54 156.77,169.85 158.5,169.88 C 161.79,169.92 165.56,169.07 168.47,167.47 C 169.55,166.87 170.52,166.17 171.41,165.31 C 171.83,164.9 172.23,164.47 172.59,164.0 C 173.04,163.42 173.45,162.85 173.81,162.22 C 173.92,162.04 174.01,161.85 174.09,161.66 C 174.14,161.56 174.18,161.43 174.13,161.31 C 174.07,161.21 173.94,161.14 173.84,161.13 C 173.74,161.11 173.66,161.11 173.56,161.16 C 173.4,161.23 173.22,161.32 173.06,161.41 C 172.88,161.5 172.71,161.59 172.53,161.69 C 172.39,161.76 172.27,161.87 172.09,161.88 C 171.99,161.88 171.96,161.82 171.97,161.72 C 171.97,161.58 172.01,161.47 172.06,161.34 C 172.21,160.96 172.56,160.57 172.84,160.31 C 173.17,160.02 173.51,159.76 173.84,159.47 C 174.19,159.17 174.54,158.87 174.84,158.53 C 174.99,158.37 175.13,158.21 175.25,158.03 C 175.32,157.93 175.38,157.83 175.44,157.72 C 175.51,157.58 175.57,157.43 175.63,157.28 C 175.71,157.06 175.71,156.85 175.44,156.81 C 175.24,156.79 175.0,156.94 174.84,157.03 C 174.69,157.12 174.52,157.19 174.34,157.25 C 174.24,157.28 174.17,157.31 174.06,157.31 C 173.97,157.32 173.9,157.29 173.91,157.19 C 173.93,156.92 174.63,156.21 174.78,156.06 C 175.19,155.67 175.63,155.31 176.0,154.88 C 176.17,154.67 176.31,154.46 176.44,154.22 C 176.55,154.0 176.64,153.77 176.72,153.53 C 176.79,153.31 176.86,153.07 176.91,152.84 C 176.93,152.73 176.93,152.62 176.94,152.5 C 176.94,152.34 176.98,152.2 176.81,152.09 C 176.68,152.01 176.6,152.07 176.5,152.16 C 176.41,152.23 176.31,152.33 176.22,152.41 C 176.11,152.5 176.02,152.6 175.91,152.69 C 175.81,152.76 175.72,152.84 175.63,152.91 C 175.55,152.96 175.49,153.02 175.41,153.06 C 175.32,153.11 175.19,153.07 175.16,152.97 C 175.13,152.87 175.31,152.59 175.34,152.53 C 175.44,152.36 175.53,152.21 175.63,152.03 C 176.06,151.24 176.32,150.54 176.34,149.63 C 176.36,149.09 176.29,148.6 176.13,148.09 C 176.08,147.95 176.07,147.81 175.97,147.69 C 175.86,147.57 175.69,147.58 175.56,147.66 C 175.47,147.71 175.42,147.78 175.38,147.88 C 175.32,147.99 175.27,148.13 175.22,148.25 C 175.11,148.53 174.99,148.8 174.84,149.06 C 174.49,149.71 174.05,150.28 173.53,150.81 C 173.26,151.09 172.98,151.34 172.66,151.56 C 172.42,151.72 172.19,151.87 171.91,151.94 C 171.6,152.01 171.37,151.91 171.47,151.56 C 171.52,151.38 171.59,151.24 171.66,151.06 C 171.76,150.8 171.87,150.52 171.94,150.25 C 172.15,149.41 172.14,148.65 171.91,147.81 C 171.78,147.37 171.63,146.98 171.38,146.59 C 171.18,146.29 170.69,145.72 170.28,145.63 C 170.05,145.57 169.81,145.64 169.78,145.91 C 169.76,146.12 169.78,146.35 169.78,146.56 C 169.79,146.98 169.74,147.38 169.66,147.78 C 169.57,148.19 169.44,148.53 169.19,148.88 C 169.01,149.12 168.53,149.64 168.22,149.75 C 168.03,149.81 168.06,149.64 168.09,149.5 C 168.14,149.29 168.2,149.09 168.25,148.88 C 168.34,148.49 168.4,148.12 168.41,147.72 C 168.43,146.88 168.26,145.91 167.88,145.16 C 167.49,144.4 166.65,143.57 165.94,143.13 C 165.13,142.62 164.27,142.49 163.34,142.63 C 163.25,142.64 163.17,142.56 163.16,142.47 C 162.8,140.27 161.67,138.46 159.78,137.25 C 158.9,136.68 157.83,136.27 156.78,136.13 C 155.64,135.97 154.68,136.1 153.66,136.63 C 153.5,136.71 153.34,136.53 153.44,136.38 C 153.86,135.72 154.06,134.96 154.06,134.19 C 154.06,131.81 152.09,130.03 149.84,130.13 z M 150.0,132.31 C 151.08,132.31 151.94,133.2 151.94,134.28 C 151.94,135.36 151.08,136.22 150.0,136.22 C 148.92,136.22 148.06,135.36 148.06,134.28 C 148.06,133.2 148.92,132.31 150.0,132.31 z M 148.41,138.0 C 148.44,137.99 148.49,137.98 148.53,138.0 C 149.47,138.36 150.53,138.36 151.47,138.0 C 151.64,137.94 151.77,138.14 151.66,138.28 C 151.39,138.62 151.17,138.93 151.03,139.34 C 150.96,139.55 150.95,139.75 150.97,139.97 C 150.99,140.18 151.04,140.37 150.97,140.59 C 150.9,140.81 150.76,140.94 150.63,141.09 C 150.48,141.26 150.37,141.45 150.31,141.66 C 150.26,141.85 150.25,142.06 150.34,142.25 C 150.44,142.44 150.63,142.58 150.84,142.59 C 150.95,142.6 151.02,142.71 151.0,142.81 C 150.92,143.33 150.8,143.84 150.66,144.34 C 150.45,145.07 150.39,145.11 150.13,145.81 C 150.08,145.94 149.92,145.94 149.88,145.81 C 149.61,145.11 149.55,145.07 149.34,144.34 C 149.2,143.84 149.08,143.33 149.0,142.81 C 148.98,142.71 149.05,142.6 149.16,142.59 C 149.37,142.58 149.56,142.44 149.66,142.25 C 149.75,142.06 149.74,141.85 149.69,141.66 C 149.63,141.45 149.52,141.26 149.38,141.09 C 149.24,140.94 149.1,140.81 149.03,140.59 C 148.96,140.37 149.01,140.18 149.03,139.97 C 149.05,139.75 149.04,139.55 148.97,139.34 C 148.83,138.93 148.61,138.62 148.34,138.28 C 148.26,138.18 148.3,138.04 148.41,138.0 z M 142.97,141.09 C 143.09,141.1 143.2,141.12 143.31,141.16 C 143.44,141.19 143.56,141.24 143.66,141.31 C 143.8,141.42 143.9,141.57 144.03,141.69 C 144.18,141.82 144.35,141.91 144.53,142.0 C 144.79,142.13 145.06,142.22 145.31,142.34 C 145.58,142.48 145.85,142.63 146.09,142.81 C 146.3,142.96 146.49,143.12 146.66,143.31 C 146.9,143.59 147.08,143.93 147.28,144.25 C 147.6,144.76 147.96,145.25 148.28,145.72 C 148.56,146.14 148.8,146.53 149.19,146.97 C 149.32,147.12 149.49,147.26 149.66,147.25 C 149.73,147.24 149.81,147.21 149.88,147.16 C 149.89,147.15 149.9,147.14 149.91,147.13 C 149.96,147.06 150.04,147.06 150.09,147.13 C 150.1,147.14 150.11,147.15 150.13,147.16 C 150.19,147.21 150.27,147.24 150.34,147.25 C 150.51,147.26 150.68,147.12 150.81,146.97 C 151.2,146.53 151.44,146.14 151.72,145.72 C 152.04,145.25 152.4,144.76 152.72,144.25 C 152.92,143.93 153.1,143.59 153.34,143.31 C 153.51,143.12 153.7,142.96 153.91,142.81 C 154.15,142.63 154.42,142.48 154.69,142.34 C 154.94,142.22 155.21,142.13 155.47,142.0 C 155.65,141.91 155.82,141.82 155.97,141.69 C 156.1,141.57 156.2,141.42 156.34,141.31 C 156.44,141.24 156.56,141.19 156.69,141.16 C 157.15,141.03 157.65,141.12 158.06,141.38 C 158.58,141.7 158.91,142.25 159.09,142.84 C 159.48,144.12 159.18,145.5 158.66,146.72 C 157.98,148.28 156.94,149.59 155.78,150.81 C 154.02,152.66 152.0,154.32 150.78,156.5 C 150.54,156.94 150.3,157.4 150.13,157.88 C 150.08,158.0 149.92,158.0 149.88,157.88 C 149.7,157.4 149.49,156.94 149.25,156.5 C 148.03,154.32 145.98,152.66 144.22,150.81 C 143.06,149.59 142.02,148.28 141.34,146.72 C 140.82,145.5 140.52,144.12 140.91,142.84 C 141.09,142.25 141.42,141.7 141.94,141.38 C 142.24,141.19 142.61,141.08 142.97,141.09 z M 136.5,143.44 C 136.6,143.37 136.75,143.44 136.75,143.56 C 136.74,143.79 136.74,144.02 136.75,144.25 C 136.8,145.8 137.24,147.3 137.94,148.66 C 138.73,150.2 139.85,151.57 141.91,153.31 C 142.51,153.82 143.2,154.36 143.81,154.94 C 144.49,155.58 145.07,156.27 145.44,156.81 C 145.8,157.36 145.94,157.74 146.0,158.09 C 146.07,158.49 146.03,158.92 145.91,159.28 C 145.84,159.47 145.75,159.64 145.59,159.81 C 145.47,159.95 145.33,160.08 145.19,160.06 C 145.05,160.05 144.93,159.88 144.84,159.72 C 144.64,159.36 144.58,159.03 144.47,158.69 C 144.32,158.21 144.07,157.74 143.78,157.31 C 142.77,155.82 141.27,154.98 139.69,154.03 C 138.84,153.52 137.96,152.99 137.22,152.31 C 136.01,151.21 135.13,149.73 134.81,148.19 C 134.56,146.94 134.69,145.66 135.34,144.66 C 135.64,144.19 136.03,143.77 136.5,143.44 z M 163.34,143.44 C 163.39,143.41 163.45,143.4 163.5,143.44 C 163.97,143.77 164.36,144.19 164.66,144.66 C 165.31,145.66 165.44,146.94 165.19,148.19 C 164.87,149.73 163.99,151.21 162.78,152.31 C 162.04,152.99 161.16,153.52 160.31,154.03 C 158.73,154.98 157.23,155.82 156.22,157.31 C 155.93,157.74 155.68,158.21 155.53,158.69 C 155.42,159.03 155.36,159.36 155.16,159.72 C 155.07,159.88 154.95,160.05 154.81,160.06 C 154.67,160.08 154.53,159.95 154.41,159.81 C 154.25,159.64 154.16,159.47 154.09,159.28 C 153.97,158.92 153.93,158.49 154.0,158.09 C 154.06,157.74 154.2,157.36 154.56,156.81 C 154.93,156.27 155.51,155.58 156.19,154.94 C 156.8,154.36 157.49,153.82 158.09,153.31 C 160.15,151.57 161.27,150.2 162.06,148.66 C 162.76,147.3 163.2,145.8 163.25,144.25 C 163.26,144.02 163.26,143.79 163.25,143.56 C 163.25,143.5 163.3,143.46 163.34,143.44 z" />
		
		
		<text id="txtTwo" transform="matrix(1 0 0 1 150 160)" style="stroke:none;fill:#f00;font-family:'Eras Medium ITC';font-size:20px;text-anchor:middle"  >

		</text>
		<!-- Prism Reference -->
		<cam mingh:cam="--verb EditSelectAll --verb ZoomSelection --verb FileSave "/> 
	 </g>

</svg>