<svg
   xmlns:xlink="http://www.w3.org/1999/xlink"
   xmlns:svg="http://www.w3.org/2000/svg"
   xmlns="http://www.w3.org/2000/svg"
   xmlns:mingh="http://www.minghworld.com"
   width="300px"
   height="300px" >
	
	 <g>
		
		<!-- Paths -->
		<path style="fill:none;stroke:#000;stroke-width:0.25px;"
		 d="M 150.0,129.0 C 148.27,129.0 146.73,130.12 146.16,131.75 C 145.58,133.38 146.11,135.2 147.47,136.28 C 147.72,136.81 147.97,137.31 148.22,137.84 L 148.31,138.06 C 148.34,138.11 148.39,138.19 148.34,138.25 C 148.3,138.31 148.23,138.27 148.19,138.22 C 148.14,138.17 148.11,138.11 148.06,138.06 C 147.87,137.86 147.67,137.68 147.44,137.53 C 146.56,136.96 145.37,136.81 144.38,137.16 C 143.9,137.32 143.48,137.61 143.19,138.03 C 142.9,138.45 142.75,138.96 142.78,139.47 C 142.81,139.97 143.02,140.46 143.38,140.81 C 143.41,140.84 143.47,140.91 143.47,140.97 C 143.47,141.0 143.47,141.02 143.44,141.03 C 143.4,141.05 143.35,141.04 143.31,141.03 C 143.12,141.0 142.95,141.0 142.75,141.0 C 142.38,141.0 142.02,141.03 141.69,141.22 C 141.27,141.45 141.02,141.85 140.94,142.31 C 140.89,142.58 140.89,142.83 141.0,143.09 C 141.12,143.38 141.38,143.62 141.66,143.75 C 141.92,143.87 142.19,143.91 142.47,143.84 C 142.67,143.79 142.9,143.69 143.03,143.5 C 143.18,143.28 143.15,143.05 143.16,142.81 C 143.16,142.65 143.19,142.54 143.38,142.56 C 143.63,142.59 143.95,142.79 144.13,142.97 C 144.4,143.24 144.63,143.68 144.75,144.03 C 144.84,144.28 144.89,144.52 144.91,144.78 C 144.92,144.97 144.91,145.16 144.91,145.34 C 144.9,145.42 144.91,145.51 144.91,145.59 C 144.9,145.64 144.9,145.75 144.84,145.78 C 144.81,145.8 144.78,145.81 144.75,145.78 C 144.72,145.76 144.72,145.72 144.72,145.69 C 144.71,145.64 144.7,145.58 144.69,145.53 C 144.66,145.43 144.61,145.34 144.56,145.25 C 144.47,145.06 144.36,144.9 144.22,144.75 C 143.74,144.24 142.77,143.86 142.16,144.41 C 141.88,144.65 141.81,145.02 141.84,145.38 C 141.88,145.79 142.09,146.17 142.38,146.47 C 142.52,146.62 142.69,146.74 142.88,146.84 C 142.97,146.9 143.05,146.93 143.16,146.97 C 143.21,146.99 143.26,147.02 143.31,147.03 C 143.36,147.04 143.45,147.03 143.47,147.09 C 143.48,147.13 143.47,147.16 143.44,147.19 C 143.41,147.22 143.38,147.22 143.34,147.22 C 143.26,147.23 143.17,147.22 143.09,147.22 C 142.91,147.22 142.72,147.23 142.53,147.22 C 142.28,147.2 142.06,147.17 141.81,147.09 C 141.45,146.98 141.01,146.78 140.72,146.53 C 140.49,146.33 140.36,146.11 140.28,145.81 C 140.23,145.64 140.19,145.49 140.41,145.47 C 140.54,145.45 140.68,145.48 140.81,145.47 C 140.92,145.46 141.03,145.43 141.13,145.38 C 141.55,145.14 141.65,144.5 141.5,144.09 C 141.4,143.81 141.14,143.52 140.88,143.38 C 140.62,143.24 140.37,143.22 140.09,143.25 C 139.63,143.3 139.23,143.55 138.97,143.94 C 138.76,144.25 138.68,144.54 138.66,144.91 C 138.64,145.1 138.66,145.31 138.69,145.5 C 138.69,145.54 138.74,145.71 138.72,145.75 C 138.69,145.81 138.61,145.8 138.56,145.75 C 138.23,145.38 137.74,145.15 137.25,145.09 C 136.75,145.04 136.21,145.17 135.78,145.44 C 135.34,145.71 135.06,146.12 134.88,146.59 C 134.48,147.58 134.61,148.76 135.16,149.66 C 135.3,149.89 135.46,150.09 135.66,150.28 C 135.71,150.33 135.76,150.39 135.81,150.44 C 135.84,150.46 135.93,150.53 135.94,150.56 C 135.95,150.63 135.91,150.7 135.84,150.69 C 135.82,150.68 135.67,150.6 135.66,150.59 C 135.12,150.34 134.59,150.1 134.06,149.84 C 134.0,149.81 133.9,149.82 133.84,149.88 C 133.02,150.65 132.2,151.41 131.38,152.19 C 131.3,152.26 131.3,152.37 131.38,152.44 C 132.2,153.21 133.02,154.01 133.84,154.78 C 133.9,154.83 134.0,154.84 134.06,154.81 C 134.59,154.56 135.13,154.32 135.66,154.06 C 135.72,154.03 135.77,153.99 135.84,153.97 C 135.91,153.95 135.95,154.0 135.94,154.06 C 135.93,154.1 135.84,154.2 135.81,154.22 C 135.76,154.27 135.71,154.29 135.66,154.34 C 135.46,154.54 135.3,154.76 135.16,155.0 C 134.61,155.89 134.46,157.08 134.84,158.06 C 135.03,158.53 135.35,158.91 135.78,159.19 C 136.21,159.46 136.72,159.58 137.22,159.53 C 137.71,159.48 138.2,159.27 138.53,158.91 C 138.55,158.88 138.59,158.85 138.63,158.84 C 138.66,158.84 138.67,158.85 138.69,158.88 C 138.73,158.93 138.69,159.08 138.69,159.13 C 138.66,159.32 138.65,159.49 138.66,159.69 C 138.67,160.05 138.74,160.37 138.94,160.69 C 139.19,161.08 139.6,161.35 140.06,161.41 C 140.34,161.44 140.59,161.41 140.84,161.28 C 141.11,161.14 141.36,160.88 141.47,160.59 C 141.63,160.19 141.55,159.53 141.13,159.28 C 140.9,159.15 140.67,159.2 140.44,159.19 C 140.24,159.17 140.21,159.05 140.25,158.88 C 140.31,158.61 140.49,158.34 140.69,158.16 C 140.97,157.9 141.42,157.68 141.78,157.56 C 142.03,157.48 142.24,157.45 142.5,157.44 C 142.68,157.43 142.88,157.4 143.06,157.41 C 143.14,157.41 143.23,157.43 143.31,157.44 C 143.35,157.44 143.37,157.42 143.41,157.44 C 143.45,157.45 143.47,157.49 143.47,157.53 C 143.47,157.62 143.41,157.61 143.34,157.63 C 143.29,157.64 143.24,157.64 143.19,157.66 C 143.09,157.69 143.0,157.73 142.91,157.78 C 142.72,157.88 142.55,158.01 142.41,158.16 C 142.12,158.44 141.9,158.81 141.84,159.22 C 141.8,159.57 141.86,159.93 142.13,160.19 C 142.39,160.45 142.74,160.55 143.09,160.5 C 143.5,160.45 143.9,160.23 144.19,159.94 C 144.33,159.79 144.43,159.62 144.53,159.44 C 144.58,159.34 144.62,159.23 144.66,159.13 C 144.67,159.08 144.71,159.05 144.72,159.0 C 144.73,158.94 144.72,158.84 144.81,158.84 C 144.86,158.84 144.86,158.87 144.88,158.91 C 144.89,158.94 144.9,158.99 144.91,159.03 C 144.91,159.11 144.9,159.17 144.91,159.25 C 144.91,159.43 144.92,159.63 144.91,159.81 C 144.89,160.07 144.83,160.32 144.75,160.56 C 144.63,160.92 144.41,161.34 144.16,161.63 C 143.97,161.83 143.71,162.0 143.44,162.06 C 143.27,162.1 143.17,162.07 143.16,161.88 C 143.14,161.64 143.2,161.42 143.06,161.19 C 142.81,160.77 142.13,160.68 141.72,160.84 C 141.44,160.96 141.17,161.2 141.03,161.47 C 140.9,161.72 140.9,161.97 140.94,162.25 C 141.0,162.71 141.23,163.12 141.63,163.38 C 141.94,163.58 142.26,163.64 142.63,163.66 C 142.82,163.67 143.0,163.65 143.19,163.63 C 143.23,163.62 143.39,163.58 143.44,163.63 C 143.46,163.65 143.47,163.68 143.47,163.72 C 143.47,163.75 143.46,163.76 143.44,163.78 C 143.07,164.12 142.83,164.61 142.78,165.09 C 142.73,165.6 142.86,166.14 143.13,166.56 C 143.4,167.0 143.81,167.28 144.28,167.47 C 145.27,167.85 146.45,167.7 147.34,167.16 C 147.58,167.01 147.77,166.85 147.97,166.66 C 148.02,166.61 148.08,166.55 148.13,166.5 C 148.15,166.48 148.21,166.38 148.25,166.38 C 148.31,166.36 148.39,166.41 148.38,166.47 C 148.36,166.54 148.31,166.62 148.28,166.69 C 148.03,167.22 147.75,167.75 147.5,168.28 C 147.47,168.35 147.48,168.42 147.53,168.47 C 148.31,169.29 149.1,170.11 149.88,170.94 C 149.94,171.01 150.06,171.01 150.13,170.94 C 150.9,170.11 151.69,169.29 152.47,168.47 C 152.52,168.42 152.53,168.35 152.5,168.28 C 152.25,167.75 151.97,167.22 151.72,166.69 C 151.69,166.62 151.64,166.54 151.63,166.47 C 151.61,166.41 151.69,166.36 151.75,166.38 C 151.79,166.38 151.85,166.48 151.88,166.5 C 151.92,166.55 151.98,166.61 152.03,166.66 C 152.23,166.85 152.42,167.01 152.66,167.16 C 153.55,167.7 154.73,167.85 155.72,167.47 C 156.19,167.28 156.6,167.0 156.88,166.56 C 157.14,166.14 157.27,165.6 157.22,165.09 C 157.17,164.61 156.93,164.12 156.56,163.78 C 156.54,163.76 156.53,163.75 156.53,163.72 C 156.53,163.68 156.54,163.65 156.56,163.63 C 156.61,163.58 156.77,163.62 156.81,163.63 C 157.0,163.65 157.18,163.67 157.38,163.66 C 157.74,163.64 158.06,163.58 158.38,163.38 C 158.77,163.12 159.0,162.71 159.06,162.25 C 159.1,161.97 159.1,161.72 158.97,161.47 C 158.83,161.2 158.56,160.95 158.28,160.84 C 157.87,160.68 157.19,160.76 156.94,161.19 C 156.8,161.42 156.86,161.64 156.84,161.88 C 156.83,162.07 156.73,162.1 156.56,162.06 C 156.29,162.0 156.0,161.83 155.81,161.63 C 155.55,161.34 155.37,160.92 155.25,160.56 C 155.17,160.32 155.11,160.07 155.09,159.81 C 155.08,159.63 155.09,159.43 155.09,159.25 C 155.1,159.17 155.09,159.11 155.09,159.03 C 155.1,158.99 155.11,158.94 155.13,158.91 C 155.14,158.87 155.14,158.84 155.19,158.84 C 155.28,158.84 155.27,158.94 155.28,159.0 C 155.29,159.05 155.33,159.08 155.34,159.13 C 155.38,159.23 155.42,159.34 155.47,159.44 C 155.57,159.62 155.67,159.79 155.81,159.94 C 156.1,160.23 156.5,160.45 156.91,160.5 C 157.25,160.55 157.61,160.45 157.88,160.19 C 158.14,159.93 158.2,159.57 158.16,159.22 C 158.1,158.81 157.88,158.44 157.59,158.16 C 157.45,158.01 157.28,157.88 157.09,157.78 C 157.0,157.73 156.91,157.69 156.81,157.66 C 156.76,157.64 156.71,157.64 156.66,157.63 C 156.59,157.61 156.53,157.62 156.53,157.53 C 156.53,157.49 156.55,157.45 156.59,157.44 C 156.63,157.42 156.65,157.44 156.69,157.44 C 156.77,157.43 156.86,157.41 156.94,157.41 C 157.12,157.4 157.32,157.43 157.5,157.44 C 157.76,157.45 158.01,157.48 158.25,157.56 C 158.61,157.68 159.03,157.9 159.31,158.16 C 159.51,158.34 159.69,158.61 159.75,158.88 C 159.79,159.05 159.76,159.17 159.56,159.19 C 159.33,159.2 159.1,159.15 158.88,159.28 C 158.45,159.53 158.37,160.19 158.53,160.59 C 158.64,160.88 158.89,161.14 159.16,161.28 C 159.41,161.41 159.66,161.44 159.94,161.41 C 160.4,161.35 160.78,161.08 161.03,160.69 C 161.23,160.37 161.33,160.05 161.34,159.69 C 161.35,159.49 161.34,159.32 161.31,159.13 C 161.31,159.08 161.27,158.93 161.31,158.88 C 161.33,158.85 161.34,158.84 161.38,158.84 C 161.41,158.85 161.45,158.88 161.47,158.91 C 161.8,159.27 162.29,159.48 162.78,159.53 C 163.28,159.58 163.79,159.46 164.22,159.19 C 164.65,158.91 164.97,158.53 165.16,158.06 C 165.54,157.08 165.39,155.89 164.84,155.0 C 164.7,154.76 164.54,154.54 164.34,154.34 C 164.29,154.29 164.24,154.26 164.19,154.22 C 164.16,154.2 164.07,154.1 164.06,154.06 C 164.05,154.0 164.09,153.95 164.16,153.97 C 164.23,153.99 164.28,154.03 164.34,154.06 C 164.87,154.32 165.41,154.56 165.94,154.81 C 166.0,154.84 166.1,154.83 166.16,154.78 C 166.98,154.01 167.8,153.21 168.63,152.44 C 168.7,152.37 168.7,152.26 168.63,152.19 L 166.16,149.88 C 166.1,149.82 166.0,149.81 165.94,149.84 C 165.41,150.1 164.88,150.34 164.34,150.59 C 164.33,150.6 164.18,150.68 164.16,150.69 C 164.09,150.7 164.05,150.63 164.06,150.56 C 164.07,150.53 164.16,150.46 164.19,150.44 C 164.24,150.39 164.29,150.33 164.34,150.28 C 164.54,150.09 164.7,149.89 164.84,149.66 C 165.39,148.76 165.52,147.58 165.13,146.59 C 164.94,146.12 164.66,145.71 164.22,145.44 C 163.79,145.17 163.25,145.04 162.75,145.09 C 162.26,145.15 161.77,145.38 161.44,145.75 C 161.39,145.8 161.31,145.81 161.28,145.75 C 161.26,145.71 161.31,145.54 161.31,145.5 C 161.34,145.31 161.36,145.1 161.34,144.91 C 161.32,144.54 161.24,144.22 161.03,143.91 C 160.77,143.52 160.37,143.3 159.91,143.25 C 159.63,143.22 159.38,143.24 159.13,143.38 C 158.86,143.52 158.6,143.81 158.5,144.09 C 158.36,144.5 158.45,145.14 158.88,145.38 C 158.97,145.43 159.08,145.46 159.19,145.47 C 159.32,145.48 159.46,145.45 159.59,145.47 C 159.81,145.49 159.77,145.65 159.72,145.81 C 159.64,146.11 159.51,146.33 159.28,146.53 C 158.99,146.78 158.55,146.98 158.19,147.09 C 157.94,147.17 157.69,147.2 157.44,147.22 C 157.25,147.23 157.09,147.22 156.91,147.22 C 156.83,147.22 156.74,147.23 156.66,147.22 C 156.62,147.22 156.59,147.22 156.56,147.19 C 156.53,147.16 156.51,147.13 156.53,147.09 C 156.56,147.04 156.64,147.04 156.69,147.03 C 156.74,147.02 156.79,146.99 156.84,146.97 C 156.95,146.93 157.03,146.9 157.13,146.84 C 157.31,146.74 157.48,146.62 157.63,146.47 C 157.91,146.17 158.12,145.79 158.16,145.38 C 158.19,145.02 158.12,144.65 157.84,144.41 C 157.23,143.86 156.26,144.24 155.78,144.75 C 155.64,144.9 155.53,145.06 155.44,145.25 C 155.39,145.34 155.34,145.43 155.31,145.53 C 155.3,145.58 155.29,145.64 155.28,145.69 C 155.28,145.72 155.28,145.76 155.25,145.78 C 155.22,145.81 155.19,145.8 155.16,145.78 C 155.1,145.75 155.1,145.64 155.09,145.59 C 155.09,145.51 155.1,145.42 155.09,145.34 C 155.09,145.16 155.08,144.97 155.09,144.78 C 155.11,144.52 155.16,144.28 155.25,144.03 C 155.37,143.68 155.6,143.24 155.88,142.97 C 156.05,142.79 156.37,142.59 156.63,142.56 C 156.81,142.54 156.84,142.65 156.84,142.81 C 156.85,143.05 156.82,143.28 156.97,143.5 C 157.1,143.69 157.29,143.79 157.5,143.84 C 157.78,143.91 158.08,143.87 158.34,143.75 C 158.62,143.62 158.88,143.38 159.0,143.09 C 159.11,142.83 159.11,142.58 159.06,142.31 C 158.98,141.85 158.73,141.45 158.31,141.22 C 157.98,141.03 157.62,141.0 157.25,141.0 C 157.05,141.0 156.88,141.0 156.69,141.03 C 156.65,141.04 156.6,141.05 156.56,141.03 C 156.53,141.02 156.53,141.0 156.53,140.97 C 156.53,140.91 156.59,140.84 156.63,140.81 C 156.98,140.46 157.19,139.97 157.22,139.47 C 157.25,138.96 157.1,138.45 156.81,138.03 C 156.52,137.61 156.1,137.32 155.63,137.16 C 154.63,136.81 153.44,136.96 152.56,137.53 C 152.33,137.68 152.13,137.86 151.94,138.06 C 151.89,138.11 151.86,138.17 151.81,138.22 C 151.77,138.27 151.7,138.31 151.66,138.25 C 151.61,138.19 151.66,138.11 151.69,138.06 C 151.72,138.0 151.75,137.91 151.78,137.84 C 152.03,137.31 152.28,136.81 152.53,136.28 C 153.89,135.2 154.42,133.38 153.84,131.75 C 153.27,130.12 151.73,129.0 150.0,129.0 z M 150.0,131.13 C 151.08,131.13 151.94,132.02 151.94,133.09 C 151.94,134.17 151.08,135.03 150.0,135.03 C 148.92,135.03 148.06,134.17 148.06,133.09 C 148.06,132.02 148.92,131.13 150.0,131.13 z M 146.31,139.19 C 146.38,139.19 146.46,139.19 146.53,139.22 C 146.98,139.39 147.24,140.07 147.38,140.72 C 147.49,141.25 147.5,141.74 147.44,142.22 C 147.39,142.55 147.34,142.89 147.25,143.19 C 147.05,143.84 146.75,144.4 146.41,144.94 C 146.36,145.02 146.24,144.97 146.25,144.88 C 146.29,144.4 146.24,143.91 146.09,143.44 C 145.99,143.09 145.84,142.77 145.53,142.38 C 145.31,142.09 145.02,141.77 144.66,141.53 C 144.62,141.51 144.6,141.49 144.56,141.47 C 144.49,141.42 144.5,141.31 144.59,141.31 C 144.81,141.31 145.01,141.26 145.22,141.19 C 145.52,141.08 145.8,140.9 145.97,140.69 C 146.12,140.5 146.18,140.31 146.13,140.09 C 146.09,139.95 146.0,139.8 145.97,139.63 C 145.96,139.54 145.98,139.44 146.0,139.38 C 146.02,139.31 146.04,139.25 146.09,139.22 C 146.15,139.18 146.24,139.19 146.31,139.19 z M 153.69,139.19 C 153.76,139.19 153.85,139.18 153.91,139.22 C 153.96,139.25 153.98,139.31 154.0,139.38 C 154.02,139.44 154.04,139.54 154.03,139.63 C 154.0,139.8 153.91,139.95 153.88,140.09 C 153.82,140.31 153.88,140.5 154.03,140.69 C 154.2,140.9 154.48,141.08 154.78,141.19 C 154.99,141.26 155.19,141.31 155.41,141.31 C 155.5,141.31 155.51,141.42 155.44,141.47 C 155.4,141.49 155.38,141.51 155.34,141.53 C 154.98,141.77 154.69,142.09 154.47,142.38 C 154.16,142.77 154.01,143.09 153.91,143.44 C 153.76,143.91 153.71,144.4 153.75,144.88 C 153.76,144.97 153.64,145.02 153.59,144.94 C 153.25,144.4 152.95,143.84 152.75,143.19 C 152.66,142.89 152.61,142.55 152.56,142.22 C 152.5,141.74 152.51,141.25 152.63,140.72 C 152.76,140.07 153.02,139.39 153.47,139.22 C 153.54,139.19 153.62,139.19 153.69,139.19 z M 149.28,140.28 C 149.32,140.27 149.38,140.3 149.41,140.34 C 149.58,140.7 149.74,141.05 149.91,141.41 C 149.94,141.49 150.06,141.49 150.09,141.41 C 150.26,141.05 150.42,140.7 150.59,140.34 C 150.64,140.25 150.8,140.3 150.78,140.41 C 150.73,140.64 150.68,140.84 150.66,141.06 C 150.6,141.62 150.63,142.12 150.72,142.66 C 150.81,143.22 151.0,143.82 151.22,144.31 C 151.28,144.44 151.17,144.58 151.03,144.56 C 150.34,144.47 149.66,144.47 148.97,144.56 C 148.83,144.58 148.72,144.44 148.78,144.31 C 149.0,143.82 149.19,143.22 149.28,142.66 C 149.37,142.12 149.4,141.62 149.34,141.06 C 149.32,140.84 149.27,140.64 149.22,140.41 C 149.21,140.35 149.24,140.29 149.28,140.28 z M 139.03,146.84 C 139.07,146.83 139.13,146.84 139.16,146.88 C 139.18,146.91 139.17,146.94 139.19,146.97 C 139.43,147.33 139.75,147.62 140.03,147.84 C 140.43,148.15 140.78,148.33 141.13,148.44 C 141.6,148.59 142.09,148.6 142.56,148.56 C 142.65,148.55 142.7,148.7 142.63,148.75 C 142.09,149.09 141.5,149.36 140.84,149.56 C 140.54,149.66 140.24,149.74 139.91,149.78 C 139.43,149.84 138.91,149.83 138.38,149.72 C 137.73,149.58 137.08,149.29 136.91,148.84 C 136.85,148.7 136.83,148.56 136.91,148.44 C 136.94,148.38 136.99,148.34 137.06,148.31 C 137.13,148.29 137.2,148.27 137.28,148.28 C 137.46,148.31 137.61,148.4 137.75,148.44 C 137.97,148.5 138.19,148.43 138.38,148.28 C 138.59,148.11 138.77,147.86 138.88,147.56 C 138.95,147.36 138.97,147.12 138.97,146.91 C 138.97,146.86 139.0,146.85 139.03,146.84 z M 160.97,146.84 C 161.0,146.85 161.03,146.86 161.03,146.91 C 161.03,147.12 161.05,147.36 161.13,147.56 C 161.23,147.86 161.41,148.11 161.63,148.28 C 161.81,148.43 162.03,148.5 162.25,148.44 C 162.39,148.4 162.54,148.31 162.72,148.28 C 162.8,148.27 162.87,148.29 162.94,148.31 C 163.01,148.34 163.06,148.38 163.09,148.44 C 163.17,148.56 163.15,148.7 163.09,148.84 C 162.92,149.29 162.27,149.58 161.63,149.72 C 161.09,149.83 160.57,149.84 160.09,149.78 C 159.76,149.74 159.46,149.66 159.16,149.56 C 158.5,149.36 157.91,149.09 157.38,148.75 C 157.3,148.7 157.35,148.55 157.44,148.56 C 157.91,148.6 158.4,148.59 158.88,148.44 C 159.22,148.33 159.57,148.15 159.97,147.84 C 160.25,147.62 160.57,147.33 160.81,146.97 C 160.83,146.94 160.82,146.91 160.84,146.88 C 160.87,146.84 160.93,146.83 160.97,146.84 z M 142.0,151.09 C 142.13,151.04 142.27,151.14 142.25,151.28 C 142.16,151.97 142.16,152.65 142.25,153.34 C 142.27,153.48 142.13,153.59 142.0,153.53 C 141.5,153.31 140.91,153.16 140.34,153.06 C 139.81,152.97 139.3,152.95 138.75,153.0 C 138.53,153.02 138.29,153.05 138.06,153.09 C 137.96,153.12 137.91,152.98 138.0,152.94 C 138.36,152.77 138.71,152.58 139.06,152.41 C 139.14,152.37 139.14,152.26 139.06,152.22 C 138.71,152.05 138.36,151.89 138.0,151.72 C 137.91,151.67 137.96,151.54 138.06,151.56 C 138.29,151.61 138.53,151.64 138.75,151.66 C 139.3,151.71 139.81,151.68 140.34,151.59 C 140.91,151.5 141.5,151.31 142.0,151.09 z M 157.91,151.09 C 157.94,151.09 157.97,151.08 158.0,151.09 C 158.5,151.31 159.09,151.5 159.66,151.59 C 160.19,151.68 160.7,151.71 161.25,151.66 C 161.47,151.64 161.71,151.61 161.94,151.56 C 162.04,151.54 162.09,151.67 162.0,151.72 C 161.64,151.89 161.29,152.05 160.94,152.22 C 160.86,152.26 160.86,152.37 160.94,152.41 C 161.29,152.58 161.64,152.77 162.0,152.94 C 162.09,152.98 162.04,153.12 161.94,153.09 C 161.71,153.05 161.47,153.02 161.25,153.0 C 160.7,152.95 160.19,152.97 159.66,153.06 C 159.09,153.16 158.5,153.31 158.0,153.53 C 157.87,153.59 157.73,153.48 157.75,153.34 C 157.84,152.65 157.84,151.97 157.75,151.28 C 157.74,151.18 157.81,151.11 157.91,151.09 z M 139.16,154.84 C 139.41,154.84 139.67,154.84 139.91,154.88 C 140.24,154.92 140.54,155.0 140.84,155.09 C 141.5,155.3 142.09,155.57 142.63,155.91 C 142.7,155.96 142.65,156.07 142.56,156.06 C 142.09,156.02 141.6,156.07 141.13,156.22 C 140.78,156.33 140.43,156.51 140.03,156.81 C 139.75,157.03 139.43,157.32 139.19,157.69 C 139.17,157.72 139.18,157.75 139.16,157.78 C 139.11,157.86 138.97,157.81 138.97,157.72 C 138.97,157.51 138.95,157.3 138.88,157.09 C 138.77,156.8 138.59,156.51 138.38,156.34 C 138.19,156.19 137.97,156.13 137.75,156.19 C 137.61,156.23 137.46,156.32 137.28,156.34 C 137.2,156.36 137.13,156.37 137.06,156.34 C 136.99,156.32 136.94,156.27 136.91,156.22 C 136.83,156.1 136.85,155.95 136.91,155.81 C 137.08,155.37 137.73,155.07 138.38,154.94 C 138.64,154.88 138.9,154.85 139.16,154.84 z M 160.84,154.84 C 161.1,154.85 161.36,154.88 161.63,154.94 C 162.27,155.07 162.92,155.37 163.09,155.81 C 163.15,155.95 163.17,156.1 163.09,156.22 C 163.06,156.27 163.01,156.32 162.94,156.34 C 162.87,156.37 162.8,156.36 162.72,156.34 C 162.54,156.32 162.39,156.23 162.25,156.19 C 162.03,156.13 161.81,156.19 161.63,156.34 C 161.41,156.51 161.23,156.8 161.13,157.09 C 161.05,157.3 161.03,157.51 161.03,157.72 C 161.03,157.81 160.89,157.86 160.84,157.78 C 160.82,157.75 160.83,157.72 160.81,157.69 C 160.57,157.32 160.25,157.03 159.97,156.81 C 159.57,156.51 159.22,156.33 158.88,156.22 C 158.4,156.07 157.91,156.02 157.44,156.06 C 157.35,156.07 157.3,155.96 157.38,155.91 C 157.91,155.57 158.5,155.3 159.16,155.09 C 159.46,155.0 159.76,154.92 160.09,154.88 C 160.33,154.84 160.59,154.84 160.84,154.84 z M 146.31,159.69 C 146.35,159.68 146.38,159.68 146.41,159.72 C 146.75,160.25 147.05,160.82 147.25,161.47 C 147.34,161.77 147.39,162.07 147.44,162.41 C 147.5,162.88 147.49,163.4 147.38,163.94 C 147.24,164.58 146.98,165.27 146.53,165.44 C 146.39,165.49 146.21,165.48 146.09,165.41 C 146.04,165.37 146.02,165.35 146.0,165.28 C 145.98,165.21 145.96,165.11 145.97,165.03 C 146.0,164.85 146.09,164.7 146.13,164.56 C 146.18,164.35 146.12,164.13 145.97,163.94 C 145.8,163.73 145.52,163.54 145.22,163.44 C 145.01,163.37 144.81,163.34 144.59,163.34 C 144.5,163.34 144.49,163.23 144.56,163.19 C 144.6,163.17 144.62,163.15 144.66,163.13 C 145.02,162.89 145.31,162.57 145.53,162.28 C 145.84,161.88 145.99,161.53 146.09,161.19 C 146.24,160.71 146.29,160.22 146.25,159.75 C 146.25,159.7 146.28,159.7 146.31,159.69 z M 153.69,159.69 C 153.72,159.7 153.75,159.7 153.75,159.75 C 153.71,160.22 153.76,160.71 153.91,161.19 C 154.01,161.53 154.16,161.88 154.47,162.28 C 154.69,162.57 154.98,162.89 155.34,163.13 C 155.38,163.15 155.4,163.17 155.44,163.19 C 155.51,163.23 155.5,163.34 155.41,163.34 C 155.19,163.34 154.99,163.37 154.78,163.44 C 154.48,163.54 154.2,163.73 154.03,163.94 C 153.88,164.13 153.82,164.35 153.88,164.56 C 153.91,164.7 154.0,164.85 154.03,165.03 C 154.04,165.11 154.02,165.21 154.0,165.28 C 153.98,165.35 153.96,165.37 153.91,165.41 C 153.79,165.48 153.61,165.49 153.47,165.44 C 153.02,165.27 152.76,164.58 152.63,163.94 C 152.51,163.4 152.5,162.88 152.56,162.41 C 152.61,162.07 152.66,161.77 152.75,161.47 C 152.95,160.82 153.25,160.25 153.59,159.72 C 153.62,159.68 153.65,159.68 153.69,159.69 z M 148.97,160.06 C 149.66,160.15 150.34,160.15 151.03,160.06 C 151.17,160.04 151.28,160.19 151.22,160.31 C 151.0,160.81 150.81,161.41 150.72,161.97 C 150.63,162.51 150.6,163.01 150.66,163.56 C 150.68,163.78 150.73,164.02 150.78,164.25 C 150.8,164.35 150.64,164.41 150.59,164.31 C 150.42,163.96 150.26,163.61 150.09,163.25 C 150.06,163.17 149.94,163.17 149.91,163.25 C 149.74,163.61 149.58,163.96 149.41,164.31 C 149.36,164.41 149.2,164.35 149.22,164.25 C 149.27,164.02 149.32,163.78 149.34,163.56 C 149.4,163.01 149.37,162.51 149.28,161.97 C 149.19,161.41 149.0,160.81 148.78,160.31 C 148.72,160.19 148.83,160.04 148.97,160.06 z"
		 />
		 <path style="fill:#f00;stroke:none;"
		 d="M 138.64,158.78 C 138.56,158.77 138.52,158.82 138.48,158.87 C 138.44,158.9 138.41,158.94 138.37,158.97 C 138.3,159.03 138.22,159.09 138.14,159.15 C 138.1,159.18 138.05,159.2 138.01,159.23 C 138.0,159.23 137.98,159.24 137.97,159.25 C 137.96,159.25 137.96,159.23 137.97,159.22 C 137.97,159.2 137.97,159.17 137.97,159.14 C 137.98,159.04 138.0,158.94 138.02,158.83 C 138.09,158.41 138.21,158.02 138.41,157.63 C 138.51,157.45 138.62,157.27 138.75,157.1 C 138.75,157.09 138.76,157.08 138.77,157.07 C 138.77,157.06 138.78,157.04 138.78,157.05 C 138.78,157.06 138.79,157.06 138.79,157.07 C 138.8,157.1 138.81,157.12 138.81,157.15 C 138.83,157.2 138.84,157.25 138.86,157.3 C 138.88,157.4 138.9,157.5 138.9,157.61 C 138.91,157.66 138.9,157.71 138.91,157.75 C 138.91,157.79 138.93,157.82 138.96,157.85 C 138.99,157.87 138.97,157.9 138.97,157.92 C 138.96,158.02 138.94,158.12 138.92,158.22 C 138.86,158.43 138.77,158.61 138.64,158.78 z M 164.06,153.91 C 163.72,153.75 163.38,153.59 163.04,153.43 C 162.87,153.34 162.7,153.26 162.53,153.18 C 162.44,153.14 162.36,153.1 162.27,153.06 C 162.23,153.04 162.19,153.02 162.14,153.0 C 162.13,153.0 162.12,152.99 162.11,152.99 C 162.1,152.98 162.11,152.97 162.1,152.96 C 162.1,152.95 162.1,152.94 162.09,152.93 C 162.07,152.9 162.04,152.87 162.01,152.86 C 161.81,152.77 161.62,152.67 161.43,152.58 C 161.34,152.54 161.24,152.49 161.14,152.45 C 161.1,152.42 161.05,152.4 161.0,152.38 C 160.98,152.37 160.95,152.37 160.93,152.33 C 160.93,152.32 160.93,152.31 160.95,152.3 C 160.98,152.27 161.03,152.26 161.07,152.24 C 161.16,152.19 161.26,152.15 161.36,152.1 C 161.55,152.01 161.74,151.92 161.93,151.83 C 161.99,151.8 162.05,151.78 162.09,151.71 C 162.1,151.71 162.1,151.7 162.1,151.69 C 162.11,151.68 162.1,151.67 162.11,151.66 C 162.12,151.66 162.13,151.65 162.14,151.65 C 162.16,151.64 162.19,151.63 162.21,151.62 C 162.29,151.58 162.38,151.54 162.46,151.5 C 162.63,151.41 162.8,151.33 162.97,151.25 C 163.31,151.09 163.64,150.93 163.98,150.77 C 164.0,150.76 164.02,150.75 164.04,150.74 C 164.06,150.73 164.07,150.74 164.08,150.75 C 164.1,150.75 164.12,150.76 164.14,150.76 C 164.2,150.76 164.24,150.73 164.29,150.7 C 164.38,150.66 164.47,150.62 164.56,150.58 C 164.73,150.49 164.91,150.41 165.08,150.33 C 165.13,150.3 165.17,150.28 165.22,150.26 C 165.24,150.25 165.26,150.24 165.28,150.23 C 165.29,150.23 165.3,150.22 165.31,150.22 C 165.32,150.21 165.33,150.21 165.33,150.21 C 165.34,150.2 165.33,150.22 165.32,150.22 C 165.27,150.3 165.22,150.37 165.16,150.44 C 165.04,150.59 164.92,150.72 164.79,150.85 C 164.24,151.38 163.53,151.8 162.81,152.05 C 162.44,152.17 162.06,152.26 161.68,152.32 C 161.66,152.32 161.65,152.32 161.64,152.32 C 161.62,152.32 161.66,152.33 161.67,152.33 C 161.69,152.33 161.71,152.33 161.74,152.34 C 161.79,152.35 161.83,152.35 161.88,152.36 C 161.98,152.38 162.07,152.4 162.17,152.42 C 162.36,152.46 162.54,152.51 162.73,152.57 C 163.45,152.81 164.17,153.22 164.73,153.74 C 164.86,153.86 164.99,154.0 165.11,154.14 C 165.16,154.21 165.22,154.28 165.27,154.36 C 165.29,154.38 165.3,154.4 165.31,154.41 C 165.32,154.42 165.35,154.45 165.33,154.44 C 165.32,154.43 165.31,154.43 165.3,154.42 C 165.25,154.4 165.21,154.38 165.16,154.36 C 164.99,154.28 164.81,154.19 164.64,154.11 C 164.55,154.07 164.46,154.03 164.37,153.98 C 164.3,153.95 164.16,153.85 164.06,153.91 z M 161.36,158.78 C 161.23,158.61 161.14,158.43 161.08,158.22 C 161.06,158.12 161.04,158.02 161.03,157.92 C 161.03,157.9 161.02,157.87 161.04,157.85 C 161.07,157.82 161.09,157.79 161.09,157.75 C 161.1,157.71 161.09,157.66 161.1,157.61 C 161.1,157.5 161.12,157.4 161.14,157.3 C 161.16,157.25 161.17,157.2 161.19,157.15 C 161.19,157.12 161.2,157.1 161.21,157.07 C 161.21,157.06 161.22,157.06 161.22,157.05 C 161.22,157.04 161.23,157.06 161.23,157.07 C 161.24,157.08 161.25,157.09 161.26,157.1 C 161.38,157.27 161.49,157.45 161.59,157.63 C 161.79,158.02 161.91,158.41 161.98,158.83 C 162.0,158.94 162.02,159.04 162.03,159.14 C 162.03,159.17 162.03,159.2 162.03,159.22 C 162.04,159.23 162.04,159.25 162.03,159.25 C 162.02,159.24 162.0,159.23 161.99,159.23 C 161.95,159.2 161.9,159.18 161.86,159.15 C 161.78,159.09 161.7,159.03 161.63,158.97 C 161.59,158.94 161.56,158.9 161.52,158.87 C 161.48,158.82 161.44,158.77 161.36,158.78 z M 155.23,158.79 C 155.16,158.77 155.11,158.79 155.07,158.85 C 155.04,158.89 155.04,158.93 155.03,158.98 C 155.03,159.01 155.01,159.01 155.0,159.03 C 154.99,159.04 154.97,159.06 154.96,159.07 C 154.94,159.1 154.91,159.13 154.89,159.16 C 154.84,159.21 154.79,159.27 154.74,159.33 C 154.73,159.35 154.71,159.36 154.7,159.38 C 154.69,159.38 154.69,159.39 154.68,159.4 C 154.67,159.41 154.67,159.39 154.67,159.38 C 154.66,159.35 154.65,159.31 154.64,159.27 C 154.54,158.94 154.52,158.62 154.59,158.28 C 154.73,157.59 155.24,157.07 155.92,156.92 C 156.27,156.85 156.58,156.86 156.92,156.95 C 156.96,156.96 157.0,156.97 157.03,156.99 C 157.04,156.99 157.05,156.99 157.06,157.0 C 157.07,157.0 157.08,157.0 157.07,157.01 C 157.06,157.02 157.04,157.03 157.03,157.04 C 156.97,157.09 156.91,157.14 156.85,157.19 C 156.79,157.24 156.74,157.3 156.68,157.35 C 156.67,157.36 156.56,157.37 156.55,157.38 C 156.48,157.41 156.46,157.45 156.46,157.52 C 156.46,157.53 156.47,157.54 156.46,157.55 C 156.45,157.56 156.45,157.56 156.44,157.57 C 156.43,157.58 156.42,157.59 156.41,157.59 C 156.38,157.58 156.36,157.58 156.34,157.58 C 156.29,157.58 156.25,157.59 156.2,157.59 C 156.12,157.6 156.04,157.62 155.96,157.65 C 155.81,157.7 155.69,157.77 155.57,157.88 C 155.46,157.99 155.38,158.11 155.33,158.26 C 155.3,158.34 155.28,158.42 155.27,158.51 C 155.27,158.55 155.26,158.6 155.26,158.65 C 155.26,158.67 155.26,158.69 155.26,158.71 C 155.26,158.73 155.27,158.74 155.26,158.75 C 155.25,158.76 155.24,158.77 155.23,158.79 z M 156.46,163.68 C 156.45,163.76 156.49,163.8 156.54,163.85 C 156.58,163.88 156.61,163.91 156.65,163.95 C 156.71,164.02 156.77,164.1 156.82,164.18 C 156.85,164.22 156.88,164.27 156.91,164.32 C 156.91,164.33 156.92,164.34 156.92,164.35 C 156.93,164.36 156.91,164.36 156.9,164.36 C 156.87,164.36 156.85,164.35 156.82,164.35 C 156.72,164.34 156.61,164.33 156.51,164.31 C 156.09,164.23 155.69,164.11 155.31,163.91 C 155.12,163.82 154.94,163.71 154.77,163.58 C 154.76,163.57 154.75,163.56 154.74,163.55 C 154.74,163.55 154.72,163.55 154.73,163.54 C 154.74,163.54 154.74,163.54 154.75,163.54 C 154.77,163.53 154.8,163.52 154.82,163.51 C 154.87,163.49 154.92,163.48 154.97,163.47 C 155.08,163.44 155.18,163.43 155.29,163.42 C 155.33,163.42 155.38,163.42 155.43,163.41 C 155.47,163.41 155.5,163.39 155.52,163.36 C 155.55,163.34 155.57,163.35 155.6,163.35 C 155.7,163.36 155.8,163.38 155.89,163.41 C 156.1,163.46 156.28,163.55 156.46,163.68 z M 156.46,140.97 C 156.28,141.1 156.1,141.19 155.89,141.24 C 155.8,141.27 155.7,141.28 155.6,141.29 C 155.57,141.29 155.55,141.31 155.52,141.28 C 155.5,141.25 155.47,141.24 155.43,141.23 C 155.38,141.22 155.33,141.23 155.29,141.23 C 155.18,141.22 155.08,141.2 154.97,141.18 C 154.92,141.17 154.87,141.15 154.82,141.14 C 154.8,141.13 154.77,141.12 154.75,141.11 C 154.74,141.11 154.74,141.11 154.73,141.1 C 154.72,141.1 154.74,141.1 154.74,141.09 C 154.75,141.08 154.76,141.08 154.77,141.07 C 154.94,140.94 155.12,140.83 155.31,140.73 C 155.69,140.54 156.09,140.41 156.51,140.34 C 156.61,140.32 156.72,140.31 156.82,140.3 C 156.85,140.29 156.87,140.29 156.9,140.29 C 156.91,140.29 156.93,140.28 156.92,140.3 C 156.92,140.31 156.91,140.32 156.91,140.33 C 156.88,140.38 156.85,140.42 156.82,140.47 C 156.77,140.55 156.71,140.62 156.65,140.7 C 156.61,140.73 156.58,140.77 156.54,140.8 C 156.49,140.85 156.45,140.89 156.46,140.97 z M 156.67,147.29 C 156.79,147.4 156.92,147.51 157.05,147.62 C 157.06,147.63 157.07,147.63 157.07,147.64 C 157.09,147.65 157.06,147.65 157.06,147.65 C 157.04,147.66 157.02,147.67 157.0,147.67 C 156.96,147.68 156.92,147.69 156.88,147.7 C 156.79,147.73 156.71,147.74 156.63,147.75 C 156.28,147.8 155.97,147.77 155.64,147.64 C 154.98,147.37 154.59,146.77 154.55,146.07 C 154.55,145.9 154.56,145.74 154.59,145.57 C 154.61,145.49 154.63,145.41 154.65,145.33 C 154.66,145.31 154.66,145.29 154.67,145.27 C 154.67,145.26 154.67,145.24 154.68,145.25 C 154.69,145.26 154.7,145.26 154.7,145.27 C 154.73,145.3 154.76,145.34 154.78,145.37 C 154.84,145.43 154.89,145.5 154.95,145.56 C 154.96,145.58 154.98,145.59 154.99,145.61 C 155.01,145.63 155.03,145.63 155.03,145.66 C 155.04,145.72 155.04,145.77 155.08,145.81 C 155.11,145.84 155.13,145.85 155.16,145.86 C 155.19,145.86 155.22,145.85 155.24,145.88 C 155.26,145.89 155.26,145.9 155.26,145.92 C 155.26,145.94 155.26,145.95 155.26,145.97 C 155.26,146.03 155.26,146.09 155.27,146.14 C 155.32,146.49 155.5,146.78 155.82,146.94 C 155.94,147.0 156.06,147.04 156.19,147.05 C 156.27,147.06 156.34,147.06 156.41,147.06 C 156.43,147.06 156.46,147.08 156.46,147.1 C 156.46,147.15 156.46,147.18 156.49,147.22 C 156.54,147.29 156.6,147.28 156.67,147.29 z M 161.36,145.87 C 161.44,145.87 161.48,145.83 161.52,145.78 C 161.56,145.74 161.59,145.71 161.63,145.68 C 161.7,145.61 161.78,145.55 161.86,145.5 C 161.9,145.47 161.95,145.44 161.99,145.42 C 162.0,145.41 162.02,145.41 162.03,145.4 C 162.04,145.39 162.04,145.41 162.03,145.42 C 162.03,145.45 162.03,145.48 162.03,145.5 C 162.02,145.61 162.0,145.71 161.98,145.82 C 161.91,146.24 161.79,146.63 161.59,147.01 C 161.49,147.2 161.38,147.38 161.25,147.55 C 161.25,147.56 161.24,147.57 161.23,147.58 C 161.23,147.58 161.22,147.61 161.22,147.59 C 161.22,147.59 161.21,147.58 161.21,147.58 C 161.2,147.55 161.19,147.53 161.19,147.5 C 161.17,147.45 161.16,147.4 161.14,147.35 C 161.12,147.25 161.1,147.14 161.1,147.04 C 161.09,146.99 161.1,146.94 161.09,146.89 C 161.09,146.85 161.07,146.83 161.04,146.8 C 161.01,146.78 161.03,146.75 161.03,146.72 C 161.04,146.62 161.06,146.53 161.08,146.43 C 161.14,146.22 161.23,146.04 161.36,145.87 z M 138.64,145.87 C 138.77,146.04 138.86,146.22 138.92,146.43 C 138.94,146.53 138.96,146.62 138.97,146.72 C 138.97,146.75 138.98,146.78 138.96,146.8 C 138.93,146.83 138.91,146.85 138.91,146.89 C 138.9,146.94 138.91,146.99 138.9,147.04 C 138.9,147.14 138.88,147.25 138.86,147.35 C 138.84,147.4 138.83,147.45 138.81,147.5 C 138.81,147.53 138.8,147.55 138.79,147.58 C 138.79,147.58 138.78,147.59 138.78,147.59 C 138.78,147.61 138.77,147.58 138.77,147.58 C 138.76,147.57 138.75,147.56 138.75,147.55 C 138.62,147.38 138.51,147.2 138.41,147.01 C 138.21,146.63 138.09,146.24 138.02,145.82 C 138.0,145.71 137.98,145.61 137.97,145.5 C 137.97,145.48 137.97,145.45 137.97,145.42 C 137.97,145.41 137.96,145.39 137.97,145.4 C 137.98,145.41 138.0,145.41 138.01,145.42 C 138.05,145.44 138.1,145.47 138.14,145.5 C 138.22,145.55 138.3,145.61 138.37,145.68 C 138.41,145.71 138.44,145.74 138.48,145.78 C 138.52,145.83 138.56,145.87 138.64,145.87 z M 144.77,145.86 C 144.84,145.87 144.89,145.86 144.93,145.8 C 144.96,145.76 144.96,145.71 144.97,145.66 C 144.97,145.64 144.99,145.63 145.0,145.62 C 145.01,145.6 145.03,145.59 145.04,145.58 C 145.06,145.55 145.09,145.52 145.11,145.49 C 145.16,145.43 145.21,145.37 145.26,145.31 C 145.27,145.3 145.29,145.29 145.3,145.27 C 145.31,145.26 145.31,145.26 145.32,145.25 C 145.33,145.24 145.33,145.26 145.33,145.26 C 145.34,145.3 145.35,145.34 145.36,145.37 C 145.46,145.71 145.48,146.02 145.41,146.37 C 145.27,147.06 144.76,147.58 144.08,147.73 C 143.73,147.8 143.42,147.78 143.08,147.69 C 143.04,147.68 143.0,147.67 142.97,147.66 C 142.96,147.66 142.95,147.65 142.94,147.65 C 142.93,147.65 142.92,147.65 142.93,147.64 C 142.94,147.63 142.96,147.61 142.97,147.6 C 143.03,147.55 143.09,147.5 143.15,147.45 C 143.21,147.4 143.26,147.35 143.32,147.3 C 143.33,147.29 143.44,147.27 143.45,147.27 C 143.52,147.24 143.54,147.2 143.54,147.13 C 143.54,147.11 143.53,147.1 143.54,147.09 C 143.55,147.09 143.55,147.08 143.56,147.08 C 143.57,147.07 143.58,147.06 143.59,147.06 C 143.62,147.06 143.64,147.06 143.66,147.06 C 143.71,147.06 143.75,147.06 143.8,147.05 C 143.88,147.05 143.96,147.03 144.04,147.0 C 144.19,146.95 144.31,146.88 144.43,146.77 C 144.54,146.66 144.62,146.54 144.67,146.39 C 144.7,146.31 144.72,146.22 144.73,146.14 C 144.73,146.09 144.74,146.05 144.74,146.0 C 144.74,145.98 144.74,145.95 144.74,145.93 C 144.74,145.92 144.73,145.91 144.74,145.9 C 144.75,145.88 144.76,145.87 144.77,145.86 z M 143.54,140.97 C 143.55,140.89 143.51,140.85 143.46,140.8 C 143.42,140.77 143.39,140.73 143.35,140.7 C 143.29,140.62 143.23,140.55 143.18,140.47 C 143.15,140.42 143.12,140.38 143.09,140.33 C 143.09,140.32 143.08,140.31 143.08,140.3 C 143.07,140.28 143.09,140.29 143.1,140.29 C 143.13,140.29 143.15,140.29 143.18,140.3 C 143.28,140.31 143.39,140.32 143.49,140.34 C 143.91,140.41 144.31,140.54 144.69,140.73 C 144.88,140.83 145.06,140.94 145.23,141.07 C 145.24,141.08 145.25,141.08 145.26,141.09 C 145.26,141.1 145.28,141.1 145.27,141.1 C 145.26,141.11 145.26,141.11 145.25,141.11 C 145.23,141.12 145.2,141.13 145.18,141.14 C 145.13,141.15 145.08,141.17 145.03,141.18 C 144.92,141.2 144.82,141.22 144.71,141.23 C 144.67,141.23 144.62,141.22 144.57,141.23 C 144.53,141.24 144.5,141.25 144.48,141.28 C 144.45,141.31 144.43,141.29 144.4,141.29 C 144.3,141.28 144.2,141.27 144.11,141.24 C 143.9,141.19 143.72,141.1 143.54,140.97 z M 148.41,138.27 C 148.47,138.16 148.38,138.02 148.34,137.95 C 148.3,137.86 148.26,137.77 148.21,137.69 C 148.13,137.51 148.05,137.34 147.96,137.16 C 147.94,137.12 147.92,137.07 147.9,137.03 C 147.9,137.02 147.89,137.01 147.89,136.99 C 147.88,136.98 147.9,137.0 147.91,137.01 C 147.93,137.02 147.95,137.04 147.97,137.05 C 148.04,137.1 148.11,137.16 148.18,137.22 C 148.33,137.34 148.46,137.46 148.58,137.6 C 149.11,138.16 149.51,138.87 149.75,139.6 C 149.81,139.78 149.86,139.97 149.9,140.16 C 149.93,140.25 149.94,140.35 149.96,140.44 C 149.97,140.49 149.98,140.54 149.98,140.59 C 149.99,140.61 149.99,140.63 150.0,140.66 C 150.0,140.67 150.0,140.7 150.0,140.68 C 150.0,140.67 150.0,140.66 150.01,140.65 C 150.06,140.26 150.15,139.89 150.28,139.52 C 150.53,138.8 150.94,138.09 151.47,137.54 C 151.6,137.4 151.74,137.28 151.88,137.17 C 151.95,137.11 152.03,137.05 152.1,137.0 C 152.11,137.0 152.11,137.0 152.11,136.99 C 152.12,136.99 152.11,137.0 152.11,137.01 C 152.1,137.02 152.1,137.03 152.09,137.04 C 152.08,137.06 152.07,137.08 152.06,137.11 C 152.04,137.15 152.02,137.19 152.0,137.24 C 151.92,137.41 151.83,137.59 151.75,137.77 C 151.71,137.85 151.66,137.94 151.62,138.03 C 151.6,138.08 151.56,138.13 151.57,138.19 C 151.57,138.21 151.57,138.22 151.58,138.24 C 151.58,138.25 151.59,138.26 151.58,138.28 C 151.57,138.3 151.56,138.32 151.55,138.34 C 151.39,138.68 151.23,139.02 151.07,139.36 C 150.99,139.52 150.91,139.69 150.83,139.86 C 150.79,139.95 150.75,140.03 150.71,140.12 C 150.7,140.14 150.69,140.16 150.68,140.18 C 150.67,140.19 150.67,140.2 150.66,140.21 C 150.66,140.22 150.65,140.22 150.64,140.22 C 150.63,140.22 150.62,140.23 150.61,140.23 C 150.54,140.27 150.53,140.33 150.5,140.39 C 150.41,140.58 150.31,140.78 150.22,140.97 C 150.18,141.06 150.13,141.16 150.09,141.26 C 150.07,141.3 150.06,141.34 150.03,141.38 C 150.02,141.39 150.01,141.39 149.99,141.39 C 149.95,141.38 149.96,141.35 149.95,141.32 C 149.92,141.28 149.9,141.23 149.88,141.18 C 149.83,141.08 149.79,140.99 149.74,140.89 C 149.65,140.7 149.56,140.51 149.47,140.32 C 149.45,140.28 149.43,140.25 149.39,140.23 C 149.38,140.23 149.37,140.22 149.36,140.22 C 149.35,140.22 149.34,140.22 149.34,140.21 C 149.33,140.2 149.33,140.19 149.32,140.18 C 149.3,140.14 149.28,140.09 149.26,140.05 C 149.22,139.97 149.18,139.88 149.14,139.8 C 149.06,139.63 148.98,139.46 148.9,139.29 C 148.74,138.95 148.57,138.61 148.41,138.27 z M 148.41,166.38 C 148.57,166.04 148.74,165.7 148.9,165.36 C 148.98,165.19 149.06,165.02 149.14,164.85 C 149.18,164.76 149.22,164.68 149.26,164.59 C 149.28,164.55 149.3,164.51 149.32,164.47 C 149.33,164.46 149.33,164.45 149.34,164.44 C 149.34,164.42 149.35,164.43 149.36,164.43 C 149.37,164.42 149.38,164.42 149.39,164.41 C 149.43,164.4 149.45,164.37 149.47,164.33 C 149.56,164.14 149.65,163.95 149.74,163.75 C 149.79,163.66 149.83,163.56 149.88,163.47 C 149.9,163.42 149.92,163.37 149.95,163.32 C 149.96,163.3 149.95,163.27 149.99,163.26 C 150.01,163.25 150.02,163.26 150.03,163.27 C 150.06,163.31 150.07,163.35 150.09,163.39 C 150.13,163.49 150.18,163.58 150.22,163.68 C 150.31,163.87 150.41,164.06 150.5,164.25 C 150.53,164.31 150.54,164.38 150.61,164.41 C 150.62,164.42 150.63,164.42 150.64,164.43 C 150.65,164.43 150.66,164.42 150.66,164.44 C 150.67,164.45 150.67,164.46 150.68,164.47 C 150.69,164.49 150.7,164.51 150.71,164.53 C 150.75,164.61 150.79,164.7 150.83,164.78 C 150.91,164.95 150.99,165.12 151.07,165.29 C 151.23,165.63 151.39,165.97 151.55,166.31 C 151.56,166.33 151.57,166.35 151.58,166.37 C 151.59,166.38 151.58,166.39 151.58,166.41 C 151.57,166.42 151.57,166.44 151.57,166.46 C 151.56,166.52 151.6,166.57 151.62,166.62 C 151.66,166.7 151.71,166.79 151.75,166.88 C 151.83,167.06 151.91,167.23 152.0,167.41 C 152.02,167.45 152.04,167.49 152.06,167.54 C 152.07,167.56 152.08,167.58 152.09,167.6 C 152.1,167.62 152.1,167.63 152.11,167.64 C 152.11,167.64 152.11,167.65 152.12,167.65 C 152.12,167.66 152.11,167.65 152.1,167.65 C 152.03,167.59 151.95,167.54 151.88,167.48 C 151.74,167.37 151.6,167.24 151.47,167.11 C 150.94,166.56 150.53,165.85 150.28,165.13 C 150.15,164.76 150.06,164.39 150.01,164.0 C 150.0,163.99 150.0,163.98 150.0,163.96 C 150.0,163.95 150.0,163.98 150.0,163.99 C 149.99,164.01 149.99,164.04 149.98,164.06 C 149.98,164.11 149.97,164.16 149.96,164.2 C 149.94,164.3 149.92,164.39 149.9,164.49 C 149.86,164.68 149.81,164.87 149.75,165.05 C 149.51,165.77 149.11,166.49 148.58,167.05 C 148.46,167.18 148.33,167.31 148.18,167.43 C 148.11,167.49 148.04,167.54 147.97,167.6 C 147.95,167.61 147.93,167.62 147.91,167.64 C 147.9,167.64 147.88,167.67 147.89,167.65 C 147.89,167.64 147.9,167.63 147.9,167.62 C 147.92,167.57 147.94,167.53 147.96,167.49 C 148.05,167.31 148.13,167.14 148.21,166.96 C 148.26,166.87 148.3,166.78 148.34,166.7 C 148.38,166.62 148.47,166.48 148.41,166.38 z M 143.54,163.68 C 143.72,163.55 143.9,163.46 144.11,163.41 C 144.2,163.38 144.3,163.36 144.4,163.35 C 144.43,163.35 144.45,163.34 144.48,163.36 C 144.5,163.39 144.53,163.41 144.57,163.41 C 144.62,163.42 144.67,163.42 144.71,163.42 C 144.82,163.43 144.92,163.44 145.03,163.47 C 145.08,163.48 145.13,163.49 145.18,163.51 C 145.2,163.52 145.23,163.53 145.25,163.54 C 145.26,163.54 145.26,163.54 145.27,163.54 C 145.28,163.55 145.26,163.55 145.26,163.55 C 145.25,163.56 145.24,163.57 145.23,163.58 C 145.06,163.71 144.88,163.82 144.69,163.91 C 144.31,164.11 143.91,164.23 143.49,164.31 C 143.39,164.33 143.28,164.34 143.18,164.35 C 143.15,164.35 143.13,164.36 143.1,164.36 C 143.09,164.36 143.07,164.37 143.08,164.35 C 143.08,164.34 143.09,164.33 143.09,164.32 C 143.12,164.27 143.15,164.22 143.18,164.18 C 143.23,164.1 143.29,164.02 143.35,163.95 C 143.39,163.91 143.42,163.88 143.46,163.85 C 143.51,163.8 143.55,163.76 143.54,163.68 z M 143.33,157.36 C 143.21,157.24 143.08,157.13 142.95,157.03 C 142.94,157.02 142.93,157.01 142.93,157.01 C 142.91,157.0 142.94,157.0 142.94,156.99 C 142.96,156.99 142.98,156.98 143.0,156.97 C 143.04,156.96 143.08,156.95 143.12,156.94 C 143.21,156.92 143.29,156.91 143.37,156.89 C 143.72,156.85 144.03,156.88 144.36,157.01 C 145.02,157.27 145.41,157.88 145.45,158.57 C 145.45,158.74 145.44,158.91 145.41,159.07 C 145.39,159.16 145.37,159.24 145.35,159.32 C 145.34,159.34 145.34,159.36 145.33,159.38 C 145.33,159.39 145.33,159.41 145.32,159.4 C 145.31,159.39 145.3,159.38 145.3,159.37 C 145.27,159.34 145.24,159.31 145.22,159.28 C 145.16,159.21 145.11,159.15 145.05,159.08 C 145.04,159.07 145.02,159.05 145.01,159.04 C 144.99,159.02 144.97,159.01 144.97,158.99 C 144.96,158.93 144.96,158.88 144.92,158.83 C 144.89,158.81 144.87,158.79 144.84,158.79 C 144.81,158.78 144.78,158.79 144.76,158.77 C 144.74,158.76 144.74,158.74 144.74,158.72 C 144.74,158.71 144.74,158.69 144.74,158.68 C 144.74,158.62 144.74,158.56 144.73,158.5 C 144.68,158.16 144.5,157.86 144.18,157.7 C 144.06,157.64 143.94,157.61 143.81,157.59 C 143.73,157.58 143.66,157.58 143.59,157.59 C 143.57,157.59 143.54,157.56 143.54,157.54 C 143.54,157.5 143.54,157.47 143.51,157.43 C 143.46,157.36 143.4,157.36 143.33,157.36 z M 135.94,153.91 C 135.84,153.85 135.7,153.95 135.63,153.98 C 135.54,154.03 135.45,154.07 135.36,154.11 C 135.19,154.19 135.01,154.28 134.84,154.36 C 134.79,154.38 134.75,154.4 134.7,154.42 C 134.69,154.43 134.68,154.43 134.67,154.44 C 134.66,154.45 134.68,154.42 134.69,154.41 C 134.7,154.4 134.71,154.38 134.73,154.36 C 134.78,154.28 134.84,154.21 134.9,154.14 C 135.01,154.0 135.14,153.86 135.27,153.74 C 135.83,153.22 136.55,152.81 137.27,152.57 C 137.46,152.51 137.64,152.46 137.83,152.42 C 137.93,152.4 138.02,152.38 138.12,152.36 C 138.17,152.35 138.22,152.35 138.26,152.34 C 138.29,152.33 138.31,152.33 138.34,152.33 C 138.34,152.33 138.38,152.32 138.36,152.32 C 138.35,152.32 138.34,152.32 138.32,152.32 C 137.94,152.26 137.56,152.17 137.19,152.05 C 136.48,151.8 135.76,151.38 135.21,150.85 C 135.08,150.72 134.96,150.59 134.84,150.44 C 134.78,150.37 134.73,150.3 134.68,150.22 C 134.67,150.22 134.66,150.2 134.67,150.21 C 134.68,150.21 134.68,150.21 134.69,150.22 C 134.7,150.22 134.71,150.23 134.72,150.23 C 134.74,150.24 134.76,150.25 134.79,150.26 C 134.83,150.28 134.87,150.3 134.92,150.32 C 135.09,150.41 135.27,150.49 135.44,150.58 C 135.53,150.62 135.62,150.66 135.71,150.7 C 135.76,150.73 135.8,150.76 135.86,150.76 C 135.88,150.76 135.9,150.75 135.92,150.75 C 135.93,150.74 135.94,150.73 135.96,150.74 C 135.98,150.75 136.0,150.76 136.02,150.77 C 136.36,150.93 136.69,151.09 137.03,151.25 C 137.2,151.33 137.37,151.41 137.54,151.49 C 137.62,151.53 137.71,151.58 137.79,151.62 C 137.81,151.63 137.84,151.64 137.86,151.65 C 137.87,151.65 137.88,151.66 137.89,151.66 C 137.9,151.67 137.89,151.68 137.9,151.69 C 137.9,151.7 137.9,151.7 137.91,151.71 C 137.95,151.78 138.01,151.8 138.07,151.83 C 138.26,151.92 138.45,152.01 138.65,152.1 C 138.74,152.15 138.84,152.19 138.93,152.24 C 138.97,152.26 139.02,152.27 139.05,152.3 C 139.07,152.31 139.07,152.32 139.07,152.33 C 139.05,152.37 139.02,152.37 139.0,152.38 C 138.95,152.4 138.9,152.42 138.86,152.45 C 138.76,152.49 138.66,152.54 138.57,152.58 C 138.38,152.67 138.19,152.77 137.99,152.86 C 137.96,152.87 137.93,152.89 137.91,152.93 C 137.9,152.94 137.9,152.95 137.9,152.96 C 137.89,152.97 137.9,152.98 137.89,152.99 C 137.88,152.99 137.87,153.0 137.86,153.0 C 137.81,153.02 137.77,153.04 137.73,153.06 C 137.64,153.1 137.56,153.14 137.47,153.18 C 137.3,153.26 137.13,153.34 136.96,153.43 C 136.62,153.59 136.28,153.75 135.94,153.91 z"
		 />
		 <path style="fill:#00f;stroke:none;"
		 d="M 157.26,152.32 C 157.26,156.33 154.01,159.59 150.0,159.59 C 145.99,159.59 142.74,156.33 142.74,152.32 C 142.74,148.31 145.99,145.06 150.0,145.06 C 154.01,145.06 157.26,148.31 157.26,152.32 z"
		 />
		
		<!-- Prism Reference -->
		<cam mingh:cam="--verb EditSelectAll --verb ZoomSelection --verb FileSave " /> 
	 </g>

</svg>
