<svg
   xmlns:xlink="http://www.w3.org/1999/xlink"
   xmlns:svg="http://www.w3.org/2000/svg"
   xmlns="http://www.w3.org/2000/svg"
   xmlns:mingh="http://www.minghworld.com"
   width="300px"
   height="300px" >
	
	 <g>
		
		<!-- Paths -->
		<path transform="matrix(-1 0 0 1 300 0)" style="fill:#ff0;stroke:none;"
		 d="M 150.0,123.25 C 148.4,123.25 146.94,124.2 146.28,125.66 C 145.62,127.11 145.88,128.8 146.94,130.0 C 147.15,130.25 147.01,130.64 146.69,130.69 C 145.67,130.83 142.74,131.34 142.06,132.5 C 141.81,132.93 141.96,133.31 142.28,133.63 C 142.6,133.93 142.98,134.14 143.38,134.31 C 144.16,134.66 144.97,134.85 145.81,135.0 C 146.03,135.04 146.12,135.27 146.03,135.47 C 145.54,136.54 145.4,137.75 145.59,138.91 C 145.78,140.02 146.31,141.23 147.22,141.97 C 147.48,142.18 147.99,142.61 148.0,143.03 C 148.0,143.26 147.86,143.5 147.63,143.56 C 147.4,143.62 147.15,143.5 147.0,143.34 C 145.46,142.37 143.52,140.97 142.19,139.72 C 141.78,139.34 141.39,138.95 141.06,138.5 C 140.82,138.16 140.56,137.71 140.56,137.25 C 140.57,137.0 140.66,136.73 140.81,136.53 C 140.98,136.32 141.19,136.25 141.44,136.19 C 141.68,136.13 141.91,136.05 142.09,135.84 C 142.28,135.64 142.36,135.43 142.41,135.16 C 142.49,134.65 142.32,134.14 142.0,133.75 C 141.68,133.36 141.22,133.08 140.72,133.03 C 140.23,132.98 139.73,133.11 139.31,133.38 C 138.87,133.65 138.56,134.1 138.34,134.56 C 137.91,135.49 137.87,136.55 138.22,137.5 C 138.58,138.48 139.28,139.2 140.06,139.81 C 140.13,139.86 140.08,139.97 140.0,139.94 C 138.81,139.47 137.72,138.89 136.69,138.13 C 136.19,137.76 135.71,137.36 135.28,136.91 C 134.83,136.42 134.51,135.89 134.41,135.22 C 134.37,134.95 134.35,134.5 134.53,134.25 C 134.72,133.99 135.02,133.99 135.28,134.06 C 135.93,134.24 136.41,134.67 137.19,134.38 C 137.84,134.13 138.36,133.45 138.53,132.81 C 138.68,132.26 138.6,131.68 138.41,131.16 C 137.94,129.92 136.77,129.16 135.5,129.03 C 134.2,128.89 132.96,129.42 132.16,130.47 C 131.4,131.47 131.05,132.79 131.13,134.03 C 131.2,135.31 131.7,136.53 132.53,137.5 C 132.59,137.57 132.52,137.66 132.44,137.63 C 131.43,137.22 130.23,137.49 129.38,138.09 C 128.47,138.73 127.96,139.74 127.88,140.81 C 127.79,141.87 128.12,142.99 128.84,143.78 C 129.57,144.58 130.66,144.98 131.69,145.13 C 131.78,145.14 131.77,145.28 131.69,145.31 C 130.62,145.75 129.93,146.76 129.91,147.91 C 129.88,149.05 130.5,150.14 131.5,150.69 C 132.64,151.32 133.69,150.92 134.69,150.38 C 135.67,149.84 136.57,149.16 137.53,148.59 C 137.63,148.52 137.75,148.57 137.84,148.63 C 137.95,148.69 138.05,148.78 138.13,148.88 C 138.2,148.97 138.22,149.07 138.25,149.19 C 138.27,149.29 138.29,149.42 138.19,149.5 C 137.2,150.42 136.98,151.8 137.25,153.03 C 137.54,154.39 138.32,155.3 139.53,155.94 C 140.67,156.54 141.96,156.7 143.22,156.47 C 143.86,156.35 144.46,156.12 145.03,155.81 C 145.51,155.55 146.17,155.11 146.56,154.72 C 146.64,154.64 146.78,154.74 146.75,154.84 C 146.12,156.86 145.28,158.82 144.0,160.53 C 142.71,162.26 141.13,163.66 139.5,165.03 C 138.69,165.71 137.86,166.39 137.06,167.09 C 136.23,167.83 135.59,168.56 135.59,169.78 C 135.59,170.9 136.16,171.87 137.25,172.25 C 138.25,172.6 139.47,172.33 140.25,171.63 C 140.3,171.58 140.37,171.62 140.34,171.69 C 140.1,172.38 140.14,173.21 140.47,173.88 C 140.82,174.58 141.45,175.02 142.19,175.22 C 143.63,175.6 145.42,175.06 145.91,173.5 C 145.93,173.43 146.02,173.42 146.03,173.5 C 146.14,174.49 146.52,175.29 147.34,175.91 C 148.09,176.47 149.04,176.75 149.97,176.75 C 150.87,176.75 151.87,176.51 152.63,175.97 C 153.39,175.42 153.89,174.53 154.0,173.59 C 154.01,173.52 154.1,173.52 154.13,173.59 C 154.66,175.1 156.46,175.62 157.88,175.22 C 158.6,175.01 159.23,174.57 159.56,173.88 C 159.88,173.21 159.9,172.38 159.66,171.69 C 159.63,171.62 159.7,171.58 159.75,171.63 C 160.53,172.33 161.75,172.6 162.75,172.25 C 163.84,171.87 164.41,170.9 164.41,169.78 C 164.41,168.56 163.77,167.83 162.94,167.09 C 162.14,166.39 161.31,165.71 160.5,165.03 C 158.87,163.66 157.29,162.26 156.0,160.53 C 154.72,158.82 153.88,156.86 153.25,154.84 C 153.22,154.74 153.36,154.64 153.44,154.72 C 153.83,155.11 154.52,155.55 155.0,155.81 C 155.57,156.12 156.14,156.35 156.78,156.47 C 158.04,156.7 159.36,156.54 160.5,155.94 C 161.71,155.3 162.46,154.39 162.75,153.03 C 163.01,151.79 162.78,150.41 161.78,149.5 C 161.51,149.21 162.11,148.42 162.47,148.59 C 163.44,149.16 164.33,149.8 165.31,150.34 C 166.31,150.89 167.33,151.31 168.47,150.69 C 169.47,150.14 170.12,149.08 170.09,147.94 C 170.07,146.79 169.38,145.75 168.31,145.31 C 168.23,145.28 168.22,145.14 168.31,145.13 C 169.34,144.98 170.43,144.58 171.16,143.78 C 171.88,142.99 172.21,141.87 172.13,140.81 C 172.04,139.74 171.53,138.73 170.63,138.09 C 169.77,137.49 168.58,137.22 167.56,137.63 C 167.48,137.66 167.41,137.57 167.47,137.5 C 168.3,136.53 168.8,135.31 168.88,134.03 C 168.95,132.79 168.6,131.47 167.84,130.47 C 167.05,129.42 165.8,128.89 164.5,129.03 C 163.23,129.16 162.06,129.92 161.59,131.16 C 161.4,131.68 161.32,132.26 161.47,132.81 C 161.64,133.45 162.16,134.13 162.81,134.38 C 163.59,134.67 164.07,134.24 164.72,134.06 C 164.98,133.99 165.28,133.99 165.47,134.25 C 165.65,134.5 165.63,134.95 165.59,135.22 C 165.49,135.89 165.17,136.42 164.72,136.91 C 164.29,137.36 163.81,137.76 163.31,138.13 C 162.28,138.89 161.19,139.47 160.0,139.94 C 159.92,139.97 159.87,139.86 159.94,139.81 C 160.72,139.19 161.42,138.49 161.78,137.5 C 162.13,136.55 162.09,135.49 161.66,134.56 C 161.44,134.1 161.13,133.65 160.69,133.38 C 160.27,133.11 159.77,132.98 159.28,133.03 C 158.78,133.08 158.32,133.36 158.0,133.75 C 157.68,134.14 157.51,134.65 157.59,135.16 C 157.64,135.43 157.72,135.64 157.91,135.84 C 158.09,136.05 158.32,136.13 158.56,136.19 C 158.81,136.25 159.02,136.32 159.19,136.53 C 159.34,136.73 159.43,137.0 159.44,137.25 C 159.44,137.71 159.18,138.16 158.94,138.5 C 158.61,138.95 158.22,139.34 157.81,139.72 C 156.48,140.97 154.54,142.37 153.0,143.34 C 152.85,143.5 152.6,143.62 152.38,143.56 C 152.14,143.5 152.0,143.26 152.0,143.03 C 152.01,142.61 152.52,142.18 152.78,141.97 C 153.68,141.23 154.22,140.02 154.41,138.91 C 154.6,137.75 154.46,136.54 153.97,135.47 C 153.87,135.27 153.97,135.04 154.19,135.0 C 155.03,134.85 155.84,134.66 156.63,134.31 C 157.02,134.14 157.4,133.93 157.72,133.63 C 158.04,133.31 158.19,132.93 157.94,132.5 C 157.26,131.34 154.33,130.83 153.31,130.69 C 152.99,130.64 152.85,130.25 153.06,130.0 C 154.12,128.8 154.38,127.11 153.72,125.66 C 153.06,124.2 151.6,123.25 150.0,123.25 z M 150.0,125.38 C 150.26,125.38 150.51,125.43 150.75,125.53 C 150.99,125.63 151.19,125.76 151.38,125.94 C 151.56,126.12 151.71,126.36 151.81,126.59 C 151.91,126.83 151.94,127.09 151.94,127.34 C 151.94,127.6 151.91,127.83 151.81,128.06 C 151.71,128.3 151.56,128.54 151.38,128.72 C 151.19,128.9 150.99,129.03 150.75,129.13 C 150.51,129.22 150.26,129.28 150.0,129.28 C 149.74,129.28 149.49,129.22 149.25,129.13 C 149.01,129.03 148.81,128.9 148.63,128.72 C 148.44,128.54 148.29,128.3 148.19,128.06 C 148.09,127.83 148.06,127.6 148.06,127.34 C 148.06,127.09 148.09,126.83 148.19,126.59 C 148.29,126.36 148.44,126.12 148.63,125.94 C 148.81,125.76 149.01,125.63 149.25,125.53 C 149.49,125.43 149.74,125.38 150.0,125.38 z M 150.0,131.84 C 151.0,131.84 152.36,131.92 153.34,132.16 C 153.56,132.21 153.77,132.25 153.97,132.34 C 154.06,132.39 154.19,132.46 154.25,132.56 C 154.36,132.78 153.99,132.94 153.84,133.0 C 153.34,133.2 152.74,133.28 152.22,133.34 C 152.18,133.35 152.13,133.34 152.09,133.31 C 150.82,132.51 149.18,132.51 147.91,133.31 C 147.87,133.34 147.82,133.35 147.78,133.34 C 147.26,133.28 146.66,133.2 146.16,133.0 C 146.01,132.94 145.64,132.78 145.75,132.56 C 145.81,132.46 145.94,132.39 146.03,132.34 C 146.23,132.25 146.44,132.21 146.66,132.16 C 147.64,131.92 149.0,131.84 150.0,131.84 z M 133.66,138.66 C 133.69,138.63 133.75,138.63 133.78,138.66 C 133.89,138.74 133.99,138.83 134.09,138.91 C 135.22,139.74 136.34,140.35 137.56,140.94 C 138.65,141.46 139.81,141.95 140.97,142.53 C 141.24,142.67 141.51,142.82 141.78,142.97 C 141.85,143.01 141.8,143.11 141.72,143.09 C 140.89,142.91 140.01,142.83 139.13,142.81 C 137.72,142.78 136.34,142.85 134.91,142.91 C 134.21,142.93 133.5,142.96 132.78,142.84 C 132.52,142.8 132.26,142.73 132.06,142.56 C 131.89,142.41 131.75,142.2 131.75,141.97 C 131.75,141.74 131.89,141.49 132.06,141.34 C 132.28,141.16 132.58,141.12 132.84,141.0 C 133.04,140.91 133.2,140.79 133.34,140.63 C 133.51,140.43 133.63,140.16 133.69,139.91 C 133.78,139.52 133.76,139.14 133.63,138.78 C 133.61,138.74 133.63,138.68 133.66,138.66 z M 166.22,138.66 C 166.29,138.6 166.41,138.7 166.38,138.78 C 166.24,139.14 166.22,139.52 166.31,139.91 C 166.37,140.16 166.46,140.43 166.63,140.63 C 166.76,140.79 166.96,140.91 167.16,141.0 C 167.42,141.12 167.72,141.16 167.94,141.34 C 168.11,141.49 168.25,141.74 168.25,141.97 C 168.25,142.2 168.11,142.41 167.94,142.56 C 167.74,142.73 167.48,142.8 167.22,142.84 C 166.5,142.96 165.79,142.93 165.09,142.91 C 163.66,142.85 162.28,142.78 160.88,142.81 C 159.99,142.83 159.11,142.91 158.28,143.09 C 158.2,143.11 158.15,143.01 158.22,142.97 C 158.49,142.82 158.76,142.67 159.03,142.53 C 160.19,141.95 161.35,141.46 162.44,140.94 C 163.66,140.35 164.78,139.74 165.91,138.91 C 166.01,138.83 166.11,138.74 166.22,138.66 z M 139.44,144.84 C 140.37,144.87 141.32,144.98 142.25,145.28 C 142.61,145.4 142.96,145.55 143.31,145.72 C 143.4,145.76 143.34,145.87 143.25,145.84 C 143.18,145.82 143.1,145.8 143.03,145.78 C 142.42,145.6 141.84,145.49 141.25,145.5 C 140.4,145.51 139.57,145.77 138.81,146.06 C 138.03,146.36 137.31,146.69 136.59,147.13 C 135.75,147.63 134.88,148.25 133.88,148.63 C 133.72,148.68 133.56,148.76 133.41,148.72 C 133.29,148.69 133.21,148.58 133.16,148.47 C 133.1,148.35 133.1,148.21 133.16,148.09 C 133.22,147.94 133.36,147.83 133.5,147.75 C 133.67,147.65 133.85,147.58 134.0,147.47 C 134.07,147.41 134.14,147.36 134.19,147.28 C 134.24,147.19 134.26,147.1 134.28,147.0 C 134.31,146.88 134.32,146.75 134.31,146.63 C 134.3,146.49 134.3,146.35 134.25,146.22 C 134.13,145.87 133.87,145.57 133.56,145.38 C 133.49,145.33 133.54,145.19 133.63,145.19 C 134.34,145.16 135.05,145.09 135.75,145.03 C 137.01,144.92 138.22,144.81 139.44,144.84 z M 160.56,144.84 C 161.78,144.81 162.99,144.92 164.25,145.03 C 164.95,145.09 165.66,145.16 166.38,145.19 C 166.46,145.19 166.51,145.33 166.44,145.38 C 166.13,145.57 165.87,145.87 165.75,146.22 C 165.7,146.35 165.7,146.49 165.69,146.63 C 165.68,146.75 165.69,146.88 165.72,147.0 C 165.74,147.1 165.76,147.19 165.81,147.28 C 165.86,147.36 165.93,147.41 166.0,147.47 C 166.15,147.58 166.33,147.65 166.5,147.75 C 166.64,147.83 166.78,147.94 166.84,148.09 C 166.9,148.21 166.9,148.35 166.84,148.47 C 166.79,148.58 166.71,148.69 166.59,148.72 C 166.44,148.76 166.28,148.68 166.13,148.63 C 165.12,148.25 164.25,147.63 163.41,147.13 C 162.69,146.69 161.97,146.36 161.19,146.06 C 160.43,145.77 159.6,145.51 158.75,145.5 C 158.16,145.49 157.55,145.6 156.94,145.78 C 156.87,145.8 156.82,145.82 156.75,145.84 C 156.66,145.87 156.6,145.76 156.69,145.72 C 157.03,145.55 157.39,145.4 157.75,145.28 C 158.68,144.98 159.63,144.87 160.56,144.84 z M 140.63,147.44 C 141.69,147.34 142.88,147.74 143.5,148.69 C 144.01,149.48 144.24,150.95 144.19,151.84 C 144.16,152.37 144.04,152.87 143.78,153.34 C 143.51,153.85 143.07,154.27 142.56,154.53 C 141.61,155.03 140.32,154.93 139.5,154.19 C 139.1,153.83 138.82,153.27 138.88,152.72 C 138.93,152.16 139.33,151.69 139.88,151.53 C 140.51,151.34 141.01,151.72 141.53,151.91 C 141.79,152.0 142.02,152.02 142.28,151.88 C 142.53,151.74 142.66,151.56 142.78,151.31 C 143.02,150.82 143.0,150.2 142.75,149.72 C 142.49,149.22 142.02,148.89 141.5,148.72 C 140.72,148.47 139.82,148.58 139.09,148.91 C 138.87,149.01 138.65,148.63 138.59,148.47 C 138.56,148.36 138.54,148.21 138.59,148.09 C 138.61,148.05 138.64,148.02 138.69,148.0 C 138.75,147.97 138.81,147.93 138.88,147.91 C 139.44,147.67 140.01,147.49 140.63,147.44 z M 159.38,147.44 C 159.99,147.49 160.56,147.67 161.13,147.91 C 161.19,147.93 161.25,147.97 161.31,148.0 C 161.36,148.02 161.39,148.05 161.41,148.09 C 161.46,148.21 161.44,148.36 161.41,148.47 C 161.35,148.63 161.13,149.01 160.91,148.91 C 160.18,148.58 159.28,148.47 158.5,148.72 C 157.98,148.89 157.51,149.22 157.25,149.72 C 157.0,150.2 156.98,150.82 157.22,151.31 C 157.34,151.56 157.47,151.74 157.72,151.88 C 157.98,152.02 158.21,152.0 158.47,151.91 C 158.99,151.72 159.49,151.34 160.13,151.53 C 160.67,151.69 161.07,152.16 161.13,152.72 C 161.18,153.27 160.9,153.83 160.5,154.19 C 159.68,154.93 158.39,155.03 157.44,154.53 C 156.93,154.27 156.49,153.85 156.22,153.34 C 155.96,152.87 155.84,152.37 155.81,151.84 C 155.76,150.95 155.99,149.48 156.5,148.69 C 157.12,147.74 158.31,147.34 159.38,147.44 z" />
		
		
		<text id="txtTwo" transform="matrix(1 0 0 1 150 160)" style="stroke:none;fill:#f00;font-family:'Eras Medium ITC';font-size:20px;text-anchor:middle"  >

		</text>
		<!-- Prism Reference -->
		<cam mingh:cam=" --verb EditSelectAll --verb ZoomSelection --verb FileSave"/> 
	 </g>

</svg>