<svg
   xmlns:xlink="http://www.w3.org/1999/xlink"
   xmlns:svg="http://www.w3.org/2000/svg"
   xmlns="http://www.w3.org/2000/svg"
   xmlns:mingh="http://www.minghworld.com"
   width="300px"
   height="300px" >
	
	 <g>
		
		<!-- Paths -->
		<path transform="matrix(-1 0 0 1 300 0)" style="fill:#ff0;stroke:none;"
		 d="M 150.0,122.16 C 149.47,122.16 148.93,122.26 148.44,122.47 C 147.95,122.67 147.47,123.0 147.09,123.38 C 146.72,123.75 146.42,124.19 146.22,124.69 C 146.02,125.18 145.94,125.72 145.94,126.25 C 145.94,126.78 146.04,127.32 146.25,127.81 C 146.46,128.3 146.75,128.75 147.13,129.13 C 147.16,129.16 147.18,129.19 147.22,129.22 C 147.38,129.37 147.34,129.63 147.13,129.69 C 145.73,130.03 144.37,130.64 143.22,131.47 C 141.48,132.73 140.19,134.51 139.41,136.5 C 139.03,137.45 138.79,138.45 138.69,139.59 C 138.63,140.26 138.62,140.98 138.66,141.72 C 138.68,142.14 138.7,142.57 138.72,142.97 C 138.76,143.73 138.75,144.4 138.69,145.06 C 138.58,146.3 138.29,147.56 137.97,148.5 C 137.61,149.55 137.25,150.2 136.88,151.03 C 136.64,151.56 136.38,152.18 136.13,153.0 C 136.01,153.36 135.89,153.73 135.78,154.16 C 135.67,154.58 135.56,155.05 135.47,155.5 C 135.17,156.94 135.0,158.37 134.94,159.66 C 134.87,160.94 134.93,162.09 135.09,163.19 C 135.29,164.5 135.66,165.73 136.13,167.0 C 136.67,168.48 137.35,169.99 138.28,171.31 C 138.47,171.59 138.66,171.84 138.88,172.09 C 138.92,172.15 138.94,172.25 138.91,172.31 C 138.82,172.48 138.75,172.63 138.72,172.81 C 138.68,173.0 138.7,173.21 138.72,173.41 C 138.76,173.76 138.88,174.1 139.06,174.41 C 139.39,174.94 139.9,175.35 140.5,175.72 C 141.55,176.36 142.88,176.9 144.25,177.25 C 145.17,177.49 146.13,177.63 146.97,177.72 C 147.81,177.81 148.54,177.83 149.16,177.84 C 149.46,177.85 149.74,177.84 150.0,177.84 C 150.26,177.84 150.54,177.85 150.84,177.84 C 151.46,177.83 152.19,177.81 153.03,177.72 C 153.87,177.63 154.83,177.49 155.75,177.25 C 157.12,176.9 158.45,176.36 159.5,175.72 C 160.1,175.35 160.61,174.94 160.94,174.41 C 161.12,174.1 161.24,173.76 161.28,173.41 C 161.3,173.21 161.32,173.0 161.28,172.81 C 161.25,172.63 161.18,172.48 161.09,172.31 C 161.06,172.25 161.08,172.15 161.13,172.09 C 161.34,171.84 161.53,171.59 161.72,171.31 C 162.65,169.99 163.33,168.48 163.88,167.0 C 164.34,165.73 164.71,164.5 164.91,163.19 C 165.07,162.09 165.13,160.94 165.06,159.66 C 165.0,158.37 164.83,156.94 164.53,155.5 C 164.44,155.05 164.33,154.58 164.22,154.16 C 164.11,153.73 163.99,153.36 163.88,153.0 C 163.62,152.18 163.36,151.56 163.13,151.03 C 162.75,150.2 162.39,149.55 162.03,148.5 C 161.71,147.56 161.42,146.3 161.31,145.06 C 161.25,144.4 161.24,143.73 161.28,142.97 C 161.3,142.57 161.32,142.14 161.34,141.72 C 161.38,140.98 161.37,140.26 161.31,139.59 C 161.21,138.45 160.97,137.45 160.59,136.5 C 159.81,134.51 158.52,132.73 156.78,131.47 C 155.63,130.64 154.27,130.03 152.88,129.69 C 152.66,129.63 152.62,129.37 152.78,129.22 C 152.82,129.19 152.84,129.16 152.88,129.13 C 153.25,128.75 153.54,128.3 153.75,127.81 C 153.96,127.32 154.06,126.78 154.06,126.25 C 154.06,125.72 153.98,125.18 153.78,124.69 C 153.58,124.19 153.28,123.75 152.91,123.38 C 152.53,123.0 152.05,122.67 151.56,122.47 C 151.07,122.26 150.53,122.16 150.0,122.16 z M 150.0,124.28 C 150.26,124.28 150.51,124.34 150.75,124.44 C 150.99,124.53 151.19,124.66 151.38,124.84 C 151.56,125.02 151.71,125.23 151.81,125.47 C 151.91,125.7 151.94,125.96 151.94,126.22 C 151.94,126.47 151.91,126.73 151.81,126.97 C 151.72,127.2 151.55,127.41 151.38,127.59 C 151.2,127.77 150.99,127.93 150.75,128.03 C 150.51,128.13 150.26,128.19 150.0,128.19 C 149.74,128.19 149.49,128.13 149.25,128.03 C 149.01,127.93 148.81,127.8 148.63,127.63 C 148.44,127.45 148.29,127.2 148.19,126.97 C 148.09,126.73 148.06,126.51 148.06,126.25 C 148.06,125.99 148.09,125.74 148.19,125.5 C 148.28,125.26 148.45,125.02 148.63,124.84 C 148.8,124.66 149.01,124.54 149.25,124.44 C 149.49,124.34 149.74,124.28 150.0,124.28 z" />
		
		
		<text id="txtTwo" transform="matrix(1 0 0 1 150 160)" style="stroke:none;fill:#f00;font-family:'Eras Medium ITC';font-size:20px;text-anchor:middle"  >

		</text>
		<!-- Prism Reference -->
		<cam mingh:cam=" --verb EditSelectAll --verb ZoomSelection --verb FileSave "/> 
	 </g>

</svg>