<svg
   xmlns:xlink="http://www.w3.org/1999/xlink"
   xmlns:svg="http://www.w3.org/2000/svg"
   xmlns="http://www.w3.org/2000/svg"
   xmlns:mingh="http://www.minghworld.com"
   width="300px"
   height="300px" >
	
	 <g>
		
		<!-- Paths -->
		<path style="fill:none;stroke:#000;stroke-width:0.25px;"
		 d="M 149.5,124.56 C 149.17,124.6 148.84,124.69 148.53,124.81 C 148.22,124.93 147.93,125.09 147.66,125.28 C 147.38,125.47 147.12,125.72 146.91,125.97 C 146.69,126.22 146.53,126.48 146.38,126.78 C 146.22,127.08 146.11,127.39 146.03,127.72 C 145.96,128.04 145.93,128.39 145.94,128.72 C 145.94,129.05 145.98,129.37 146.06,129.69 C 146.15,130.01 146.28,130.33 146.44,130.63 C 146.6,130.92 146.8,131.16 147.03,131.41 C 147.17,131.56 147.08,131.8 146.88,131.84 C 144.7,132.15 142.58,132.83 140.59,133.78 C 138.5,134.78 136.55,136.09 134.88,137.69 C 133.2,139.29 131.78,141.17 130.69,143.22 C 129.59,145.26 128.84,147.47 128.44,149.75 C 128.03,152.03 127.98,154.36 128.31,156.66 C 128.64,158.95 129.35,161.21 130.38,163.28 C 131.4,165.36 132.75,167.26 134.38,168.91 C 136.0,170.56 137.91,171.97 139.97,173.03 C 142.03,174.09 144.24,174.82 146.53,175.19 C 148.82,175.55 151.18,175.55 153.47,175.19 C 155.76,174.82 157.97,174.09 160.03,173.03 C 162.09,171.97 164.0,170.56 165.63,168.91 C 167.25,167.26 168.6,165.36 169.63,163.28 C 170.65,161.21 171.36,158.95 171.69,156.66 C 172.02,154.36 171.97,152.03 171.56,149.75 C 171.16,147.47 170.41,145.26 169.31,143.22 C 168.22,141.17 166.8,139.29 165.13,137.69 C 163.45,136.09 161.5,134.78 159.41,133.78 C 157.42,132.83 155.3,132.15 153.13,131.84 C 152.92,131.8 152.83,131.56 152.97,131.41 C 153.2,131.16 153.4,130.92 153.56,130.63 C 153.72,130.33 153.85,130.01 153.94,129.69 C 154.02,129.37 154.06,129.05 154.06,128.72 C 154.07,128.39 154.04,128.04 153.97,127.72 C 153.89,127.39 153.78,127.08 153.63,126.78 C 153.47,126.48 153.31,126.22 153.09,125.97 C 152.88,125.72 152.62,125.47 152.34,125.28 C 152.07,125.09 151.78,124.93 151.47,124.81 C 151.16,124.69 150.83,124.6 150.5,124.56 C 150.17,124.52 149.83,124.52 149.5,124.56 z M 150.0,126.69 C 150.26,126.69 150.51,126.71 150.75,126.81 C 150.99,126.91 151.19,127.07 151.38,127.25 C 151.56,127.43 151.71,127.64 151.81,127.88 C 151.91,128.11 151.94,128.37 151.94,128.63 C 151.94,128.88 151.91,129.14 151.81,129.38 C 151.71,129.61 151.56,129.82 151.38,130.0 C 151.19,130.18 150.99,130.34 150.75,130.44 C 150.51,130.54 150.26,130.56 150.0,130.56 C 149.74,130.56 149.49,130.54 149.25,130.44 C 149.01,130.34 148.81,130.18 148.63,130.0 C 148.44,129.82 148.29,129.61 148.19,129.38 C 148.09,129.14 148.06,128.88 148.06,128.63 C 148.06,128.37 148.09,128.11 148.19,127.88 C 148.29,127.64 148.44,127.43 148.63,127.25 C 148.81,127.07 149.01,126.91 149.25,126.81 C 149.49,126.71 149.74,126.69 150.0,126.69 z M 150.0,133.84 C 150.64,133.84 151.27,133.88 151.94,133.94 C 152.2,133.96 152.46,133.96 152.69,134.0 C 152.98,134.05 153.22,134.14 153.66,134.19 C 153.81,134.21 154.0,134.21 154.0,134.25 C 154.0,134.29 153.8,134.33 153.66,134.38 C 153.52,134.42 153.42,134.45 153.31,134.47 C 153.18,134.49 153.04,134.49 152.91,134.44 C 152.8,134.39 152.7,134.3 152.59,134.25 C 152.42,134.17 152.19,134.19 152.0,134.22 C 151.87,134.24 151.76,134.24 151.63,134.25 C 151.47,134.26 151.3,134.28 151.19,134.34 C 151.1,134.4 151.05,134.49 150.97,134.59 C 150.91,134.68 150.82,134.79 150.75,134.78 C 150.69,134.77 150.66,134.65 150.63,134.56 C 150.6,134.48 150.58,134.42 150.53,134.38 C 150.49,134.34 150.44,134.32 150.38,134.31 C 150.27,134.31 150.16,134.35 150.06,134.38 C 149.87,134.43 149.67,134.44 149.47,134.44 C 149.37,134.44 149.28,134.43 149.19,134.47 C 149.13,134.49 149.06,134.53 149.0,134.56 C 148.93,134.6 148.86,134.63 148.78,134.63 C 148.68,134.62 148.57,134.57 148.47,134.53 C 148.38,134.5 148.31,134.47 148.22,134.47 C 148.15,134.47 148.07,134.49 148.0,134.5 C 147.8,134.52 147.6,134.52 147.41,134.56 C 147.27,134.59 147.11,134.64 146.97,134.69 C 146.87,134.72 146.78,134.76 146.69,134.75 C 146.62,134.75 146.57,134.71 146.5,134.69 C 146.45,134.67 146.39,134.68 146.34,134.69 C 146.27,134.7 146.21,134.75 146.16,134.81 C 146.11,134.88 146.06,134.96 146.06,135.03 C 146.06,135.08 146.07,135.11 146.09,135.16 C 146.11,135.18 146.13,135.22 146.13,135.25 C 146.12,135.26 146.1,135.27 146.09,135.28 C 146.07,135.3 146.04,135.28 146.0,135.28 C 145.96,135.29 145.91,135.31 145.88,135.34 C 145.83,135.38 145.84,135.45 145.81,135.5 C 145.79,135.55 145.76,135.59 145.72,135.63 C 145.68,135.65 145.62,135.67 145.56,135.66 C 145.51,135.65 145.47,135.6 145.47,135.56 C 145.47,135.54 145.48,135.52 145.5,135.5 C 145.52,135.47 145.53,135.46 145.53,135.44 C 145.54,135.41 145.52,135.35 145.5,135.31 C 145.48,135.27 145.47,135.26 145.44,135.25 C 145.4,135.24 145.36,135.25 145.31,135.25 C 145.27,135.25 145.24,135.25 145.22,135.22 C 145.2,135.19 145.19,135.12 145.22,135.09 C 145.25,135.06 145.31,135.08 145.34,135.09 C 145.39,135.11 145.4,135.13 145.44,135.16 C 145.48,135.19 145.54,135.22 145.59,135.22 C 145.64,135.22 145.69,135.19 145.72,135.16 C 145.76,135.11 145.78,135.04 145.78,134.97 C 145.78,134.9 145.73,134.85 145.69,134.81 C 145.65,134.79 145.6,134.77 145.56,134.75 C 145.53,134.73 145.5,134.71 145.47,134.69 C 145.43,134.66 145.39,134.63 145.34,134.63 C 145.27,134.62 145.19,134.67 145.13,134.72 C 145.09,134.74 145.07,134.75 145.03,134.75 C 145.01,134.75 144.99,134.76 144.97,134.75 C 144.93,134.74 144.91,134.72 144.88,134.72 C 144.84,134.72 144.81,134.75 144.78,134.78 C 144.74,134.82 144.72,134.86 144.72,134.91 C 144.72,134.97 144.75,135.02 144.78,135.09 C 144.8,135.14 144.8,135.2 144.78,135.22 C 144.76,135.24 144.72,135.23 144.69,135.22 C 144.65,135.21 144.62,135.17 144.59,135.16 C 144.54,135.13 144.49,135.1 144.44,135.09 C 144.39,135.09 144.32,135.13 144.25,135.16 C 144.21,135.18 144.17,135.18 144.16,135.16 C 144.15,135.14 144.15,135.15 144.16,135.13 C 144.16,135.1 144.18,135.08 144.19,135.06 C 144.2,135.02 144.2,134.98 144.19,134.94 C 144.16,134.86 144.08,134.76 144.09,134.72 C 144.11,134.67 144.22,134.67 144.31,134.66 C 144.45,134.63 144.56,134.59 144.66,134.56 C 145.23,134.39 145.89,134.24 146.56,134.13 C 147.73,133.92 148.87,133.84 150.0,133.84 z M 156.03,134.81 C 156.06,134.8 156.09,134.8 156.13,134.81 C 156.18,134.83 156.23,134.85 156.28,134.88 C 156.37,134.91 156.48,134.94 156.56,134.97 C 156.61,134.99 156.66,134.99 156.72,135.03 C 156.74,135.04 156.75,135.05 156.75,135.06 C 156.75,135.07 156.73,135.09 156.72,135.09 C 156.7,135.11 156.68,135.09 156.66,135.09 C 156.63,135.1 156.61,135.11 156.59,135.13 C 156.58,135.14 156.57,135.17 156.56,135.19 C 156.55,135.22 156.57,135.28 156.56,135.31 C 156.56,135.35 156.53,135.4 156.53,135.44 C 156.53,135.47 156.55,135.5 156.56,135.53 C 156.58,135.57 156.59,135.6 156.63,135.63 C 156.65,135.64 156.69,135.66 156.72,135.66 C 156.74,135.66 156.76,135.64 156.78,135.63 C 156.8,135.61 156.82,135.58 156.84,135.56 C 156.86,135.55 156.86,135.53 156.88,135.53 C 156.88,135.53 156.9,135.55 156.91,135.56 C 156.92,135.58 156.94,135.58 156.94,135.59 C 156.94,135.62 156.91,135.67 156.91,135.69 C 156.9,135.7 156.91,135.7 156.91,135.72 C 156.9,135.73 156.9,135.74 156.91,135.75 C 156.91,135.77 156.92,135.8 156.94,135.81 C 156.99,135.84 157.04,135.84 157.09,135.84 C 157.13,135.85 157.19,135.87 157.22,135.84 C 157.24,135.83 157.24,135.8 157.25,135.78 C 157.26,135.76 157.27,135.72 157.28,135.69 C 157.29,135.69 157.31,135.68 157.31,135.69 C 157.33,135.7 157.34,135.7 157.34,135.72 C 157.35,135.73 157.34,135.74 157.34,135.75 C 157.34,135.79 157.31,135.84 157.31,135.88 C 157.31,135.89 157.34,135.9 157.34,135.91 C 157.35,135.93 157.36,135.92 157.38,135.94 C 157.41,135.97 157.43,136.0 157.47,136.0 C 157.48,136.0 157.49,136.0 157.5,136.0 C 157.52,135.99 157.54,135.97 157.56,135.97 C 157.58,135.97 157.61,135.99 157.63,136.0 C 157.68,136.03 157.71,136.05 157.75,136.09 C 157.8,136.15 157.86,136.22 157.94,136.25 C 158.0,136.27 158.07,136.28 158.13,136.25 C 158.18,136.22 158.21,136.15 158.22,136.09 C 158.23,136.02 158.21,135.95 158.19,135.88 C 158.18,135.84 158.17,135.81 158.16,135.78 C 158.15,135.76 158.11,135.72 158.09,135.69 C 158.08,135.67 158.09,135.67 158.09,135.66 C 158.1,135.65 158.11,135.63 158.13,135.63 C 158.21,135.62 158.26,135.66 158.31,135.69 C 158.62,135.84 158.96,135.99 159.28,136.16 C 159.62,136.33 159.93,136.53 160.25,136.72 C 160.41,136.81 160.6,136.89 160.75,137.0 C 160.82,137.05 160.86,137.12 160.94,137.16 C 160.99,137.18 161.05,137.18 161.09,137.22 C 161.11,137.24 161.12,137.26 161.13,137.28 C 161.13,137.3 161.12,137.35 161.13,137.38 C 161.13,137.4 161.14,137.42 161.16,137.44 C 161.18,137.48 161.2,137.52 161.22,137.56 C 161.24,137.6 161.27,137.64 161.28,137.69 C 161.29,137.72 161.29,137.72 161.28,137.75 C 161.28,137.77 161.26,137.8 161.25,137.81 C 161.23,137.85 161.25,137.9 161.25,137.94 C 161.25,137.97 161.25,138.0 161.25,138.03 C 161.25,138.05 161.23,138.05 161.22,138.06 C 161.2,138.07 161.18,138.07 161.16,138.06 C 161.13,138.06 161.12,138.06 161.09,138.06 C 161.06,138.06 161.0,138.05 160.97,138.06 C 160.93,138.08 160.9,138.14 160.88,138.19 C 160.85,138.23 160.83,138.27 160.84,138.31 C 160.85,138.34 160.88,138.37 160.91,138.41 C 160.94,138.44 160.98,138.48 160.97,138.5 C 160.96,138.52 160.89,138.51 160.84,138.5 C 160.79,138.49 160.76,138.48 160.72,138.47 C 160.64,138.45 160.54,138.42 160.47,138.38 C 160.43,138.35 160.4,138.32 160.38,138.28 C 160.34,138.23 160.34,138.2 160.31,138.16 C 160.28,138.1 160.22,138.05 160.19,138.0 C 160.14,137.94 160.11,137.87 160.06,137.78 C 160.02,137.71 159.99,137.62 160.0,137.59 C 160.02,137.55 160.14,137.66 160.25,137.72 C 160.37,137.79 160.46,137.82 160.56,137.84 C 160.63,137.86 160.71,137.89 160.78,137.88 C 160.82,137.87 160.84,137.84 160.88,137.81 C 160.93,137.77 160.97,137.69 160.97,137.63 C 160.97,137.6 160.98,137.58 160.97,137.56 C 160.94,137.51 160.87,137.47 160.81,137.44 C 160.67,137.35 160.54,137.26 160.41,137.19 C 160.29,137.12 160.16,137.05 160.03,137.0 C 159.96,136.97 159.89,136.94 159.81,136.94 C 159.75,136.93 159.68,136.95 159.63,136.94 C 159.51,136.92 159.42,136.85 159.31,136.78 C 159.16,136.69 159.01,136.62 158.84,136.59 C 158.66,136.56 158.47,136.56 158.28,136.59 C 158.11,136.63 157.93,136.69 157.78,136.78 C 157.7,136.83 157.64,136.91 157.56,136.97 C 157.5,137.02 157.44,137.06 157.41,137.13 C 157.38,137.18 157.39,137.23 157.38,137.28 C 157.35,137.34 157.31,137.38 157.28,137.44 C 157.25,137.5 157.21,137.58 157.16,137.63 C 157.12,137.65 157.07,137.66 157.03,137.69 C 156.98,137.73 156.95,137.78 156.94,137.84 C 156.93,137.9 156.93,137.99 156.97,138.03 C 156.99,138.06 157.05,138.09 157.06,138.13 C 157.07,138.15 157.07,138.19 157.06,138.22 C 157.05,138.26 157.0,138.28 156.97,138.31 C 156.93,138.37 156.92,138.42 156.88,138.47 C 156.84,138.51 156.8,138.57 156.75,138.59 C 156.68,138.63 156.58,138.63 156.5,138.63 C 156.4,138.62 156.31,138.61 156.22,138.63 C 156.17,138.63 156.13,138.63 156.09,138.66 C 156.05,138.69 156.0,138.76 155.97,138.81 C 155.93,138.88 155.91,138.93 155.91,139.0 C 155.9,139.04 155.9,139.11 155.91,139.16 C 155.92,139.23 155.95,139.3 155.97,139.38 C 155.99,139.45 156.02,139.52 156.06,139.59 C 156.09,139.64 156.12,139.7 156.13,139.75 C 156.13,139.79 156.13,139.83 156.13,139.88 C 156.13,139.93 156.13,139.99 156.16,140.03 C 156.19,140.07 156.23,140.11 156.28,140.13 C 156.33,140.14 156.39,140.16 156.41,140.19 C 156.42,140.22 156.39,140.24 156.38,140.28 C 156.36,140.33 156.36,140.4 156.38,140.44 C 156.39,140.49 156.43,140.52 156.47,140.56 C 156.5,140.61 156.53,140.65 156.56,140.69 C 156.64,140.78 156.72,140.88 156.75,141.0 C 156.77,141.08 156.76,141.16 156.72,141.22 C 156.67,141.29 156.62,141.33 156.53,141.38 C 156.45,141.41 156.37,141.46 156.31,141.44 C 156.25,141.42 156.2,141.32 156.16,141.25 C 156.06,141.09 155.92,141.0 155.81,140.88 C 155.73,140.78 155.68,140.68 155.63,140.56 C 155.6,140.5 155.55,140.42 155.5,140.38 C 155.47,140.35 155.44,140.34 155.41,140.31 C 155.38,140.28 155.34,140.23 155.34,140.19 C 155.34,140.14 155.39,140.11 155.41,140.06 C 155.42,140.02 155.42,139.97 155.44,139.94 C 155.46,139.89 155.48,139.86 155.5,139.81 C 155.51,139.77 155.52,139.7 155.5,139.66 C 155.49,139.63 155.46,139.61 155.44,139.59 C 155.4,139.57 155.36,139.54 155.31,139.53 C 155.27,139.52 155.25,139.52 155.22,139.5 C 155.19,139.48 155.15,139.44 155.13,139.41 C 155.09,139.36 155.05,139.33 155.0,139.31 C 154.94,139.29 154.85,139.3 154.78,139.31 C 154.69,139.33 154.61,139.37 154.53,139.41 C 154.42,139.46 154.33,139.49 154.22,139.56 C 154.16,139.6 154.09,139.64 154.06,139.69 C 154.03,139.74 154.03,139.81 154.03,139.88 C 154.03,139.93 154.04,140.0 154.06,140.03 C 154.08,140.06 154.13,140.07 154.16,140.09 C 154.17,140.11 154.18,140.13 154.19,140.16 C 154.19,140.19 154.17,140.22 154.16,140.25 C 154.14,140.28 154.14,140.32 154.13,140.34 C 154.1,140.38 154.04,140.4 154.0,140.41 C 153.92,140.42 153.86,140.4 153.78,140.38 C 153.71,140.36 153.66,140.33 153.59,140.34 C 153.55,140.36 153.5,140.39 153.47,140.44 C 153.45,140.48 153.42,140.52 153.44,140.56 C 153.45,140.61 153.51,140.64 153.56,140.66 C 153.6,140.67 153.63,140.69 153.66,140.72 C 153.68,140.75 153.68,140.78 153.66,140.81 C 153.63,140.85 153.58,140.84 153.53,140.84 C 153.43,140.84 153.37,140.85 153.28,140.88 C 153.22,140.89 153.13,140.92 153.09,140.97 C 153.07,141.0 153.07,141.05 153.06,141.09 C 153.04,141.18 153.0,141.23 152.97,141.31 C 152.94,141.4 152.94,141.5 152.94,141.59 C 152.94,141.7 152.94,141.8 153.0,141.88 C 153.05,141.93 153.12,141.97 153.19,142.0 C 153.27,142.04 153.35,142.1 153.44,142.09 C 153.49,142.09 153.54,142.08 153.59,142.06 C 153.66,142.04 153.75,141.98 153.81,141.94 C 153.87,141.89 153.9,141.85 153.97,141.81 C 154.02,141.78 154.1,141.77 154.16,141.75 C 154.24,141.73 154.34,141.72 154.41,141.66 C 154.45,141.61 154.47,141.53 154.47,141.47 C 154.47,141.42 154.44,141.36 154.44,141.31 C 154.44,141.24 154.47,141.2 154.5,141.13 C 154.54,141.01 154.57,140.88 154.59,140.78 C 154.61,140.72 154.62,140.67 154.66,140.59 C 154.68,140.55 154.72,140.49 154.75,140.5 C 154.77,140.5 154.77,140.54 154.78,140.56 C 154.8,140.6 154.82,140.65 154.81,140.69 C 154.81,140.74 154.77,140.8 154.75,140.84 C 154.74,140.88 154.72,140.9 154.72,140.94 C 154.72,140.97 154.73,141.0 154.75,141.03 C 154.77,141.06 154.81,141.11 154.84,141.13 C 154.88,141.14 154.91,141.13 154.94,141.13 C 154.95,141.12 154.96,141.13 154.97,141.13 C 154.99,141.11 155.01,141.08 155.03,141.06 C 155.05,141.05 155.09,141.03 155.09,141.03 C 155.1,141.03 155.08,141.07 155.06,141.09 C 155.05,141.12 155.04,141.13 155.03,141.16 C 155.02,141.19 155.02,141.22 155.03,141.25 C 155.04,141.27 155.04,141.3 155.06,141.31 C 155.09,141.34 155.12,141.37 155.16,141.38 C 155.19,141.38 155.22,141.36 155.25,141.34 C 155.27,141.33 155.29,141.32 155.31,141.31 C 155.32,141.31 155.34,141.31 155.34,141.31 C 155.35,141.32 155.35,141.33 155.34,141.34 C 155.34,141.36 155.32,141.37 155.31,141.38 C 155.29,141.4 155.27,141.39 155.25,141.41 C 155.23,141.42 155.21,141.46 155.19,141.47 C 155.17,141.48 155.15,141.47 155.13,141.47 C 155.11,141.47 155.11,141.44 155.09,141.44 C 155.08,141.43 155.05,141.43 155.03,141.44 C 155.0,141.44 154.96,141.47 154.94,141.5 C 154.92,141.52 154.91,141.53 154.91,141.56 C 154.9,141.58 154.9,141.61 154.91,141.63 C 154.91,141.65 154.91,141.67 154.94,141.69 C 154.94,141.69 154.93,141.71 154.94,141.72 C 154.9,141.71 154.87,141.72 154.84,141.72 C 154.82,141.72 154.8,141.73 154.78,141.75 C 154.75,141.79 154.77,141.84 154.78,141.91 C 154.79,141.95 154.78,142.0 154.81,142.03 C 154.83,142.04 154.82,142.06 154.84,142.06 C 154.87,142.07 154.91,142.06 154.94,142.06 C 154.98,142.07 155.03,142.12 155.03,142.16 C 155.03,142.19 155.0,142.19 154.97,142.22 C 154.91,142.28 154.86,142.35 154.81,142.41 C 154.77,142.45 154.74,142.46 154.69,142.47 C 154.65,142.48 154.6,142.47 154.56,142.47 C 154.52,142.46 154.48,142.47 154.44,142.47 C 154.38,142.47 154.31,142.47 154.25,142.47 C 154.19,142.47 154.14,142.47 154.09,142.5 C 154.07,142.51 154.04,142.51 154.03,142.53 C 154.0,142.58 154.0,142.65 154.0,142.72 C 154.0,142.78 154.02,142.87 154.06,142.91 C 154.09,142.93 154.12,142.93 154.16,142.94 C 154.24,142.95 154.32,142.95 154.41,142.94 C 154.47,142.93 154.54,142.94 154.59,142.97 C 154.63,142.99 154.65,143.0 154.69,143.03 C 154.72,143.06 154.75,143.1 154.78,143.13 C 154.81,143.15 154.85,143.16 154.88,143.19 C 154.91,143.23 154.94,143.27 154.97,143.31 C 154.99,143.35 154.99,143.4 155.0,143.44 C 155.02,143.51 155.03,143.57 155.03,143.66 C 155.03,143.72 155.06,143.79 155.03,143.84 C 155.01,143.89 154.93,143.95 154.88,143.97 C 154.8,143.99 154.73,143.96 154.66,143.94 C 154.53,143.91 154.4,143.88 154.28,143.84 C 154.19,143.82 154.1,143.81 154.0,143.78 C 153.95,143.76 153.9,143.75 153.84,143.75 C 153.79,143.75 153.73,143.76 153.69,143.78 C 153.64,143.81 153.61,143.83 153.56,143.84 C 153.51,143.86 153.43,143.86 153.38,143.88 C 153.33,143.89 153.31,143.95 153.28,144.0 C 153.25,144.05 153.26,144.1 153.28,144.16 C 153.3,144.21 153.35,144.28 153.41,144.31 C 153.46,144.34 153.49,144.33 153.53,144.38 C 153.55,144.4 153.59,144.44 153.59,144.47 C 153.61,144.52 153.57,144.57 153.56,144.63 C 153.55,144.69 153.54,144.74 153.53,144.81 C 153.53,144.84 153.55,144.86 153.53,144.88 C 153.52,144.89 153.46,144.87 153.44,144.88 C 153.4,144.88 153.37,144.89 153.34,144.91 C 153.31,144.93 153.27,144.96 153.25,145.0 C 153.21,145.07 153.23,145.15 153.28,145.22 C 153.32,145.27 153.37,145.32 153.38,145.38 C 153.38,145.41 153.37,145.46 153.34,145.5 C 153.3,145.56 153.23,145.6 153.22,145.66 C 153.2,145.72 153.23,145.82 153.28,145.88 C 153.35,145.95 153.47,145.96 153.56,145.94 C 153.64,145.92 153.71,145.87 153.78,145.88 C 153.83,145.88 153.91,145.92 153.94,145.97 C 153.97,146.02 153.97,146.11 153.94,146.16 C 153.91,146.2 153.83,146.2 153.78,146.22 C 153.67,146.25 153.58,146.28 153.5,146.34 C 153.38,146.44 153.32,146.62 153.22,146.75 C 153.15,146.84 153.05,146.91 153.0,147.0 C 152.97,147.07 152.95,147.14 152.94,147.22 C 152.92,147.32 152.9,147.42 152.84,147.5 C 152.78,147.59 152.67,147.64 152.56,147.69 C 152.45,147.74 152.33,147.79 152.25,147.88 C 152.17,147.96 152.14,148.1 152.09,148.22 C 152.02,148.41 151.94,148.58 151.84,148.75 C 151.7,149.01 151.53,149.25 151.38,149.5 C 151.31,149.6 151.27,149.68 151.19,149.78 C 151.13,149.84 151.06,149.93 151.06,150.0 C 151.06,150.05 151.1,150.08 151.13,150.13 C 151.17,150.21 151.21,150.29 151.22,150.38 C 151.23,150.49 151.18,150.6 151.16,150.72 C 151.11,150.91 151.07,151.1 151.0,151.28 C 150.96,151.39 150.9,151.52 150.84,151.63 C 150.8,151.71 150.78,151.81 150.75,151.91 C 150.73,151.99 150.72,152.08 150.75,152.16 C 150.77,152.21 150.8,152.25 150.84,152.28 C 150.9,152.32 150.98,152.34 151.06,152.38 C 151.11,152.4 151.16,152.43 151.16,152.47 C 151.15,152.49 151.12,152.51 151.09,152.53 C 151.04,152.57 150.99,152.6 150.94,152.63 C 150.88,152.66 150.81,152.69 150.78,152.75 C 150.75,152.82 150.79,152.92 150.84,153.0 C 150.9,153.09 150.95,153.15 151.03,153.19 C 151.14,153.24 151.28,153.25 151.44,153.28 C 151.52,153.3 151.58,153.32 151.59,153.38 C 151.6,153.42 151.57,153.45 151.53,153.5 C 151.47,153.57 151.41,153.64 151.38,153.72 C 151.34,153.8 151.33,153.93 151.38,154.0 C 151.42,154.07 151.52,154.07 151.63,154.06 C 151.73,154.06 151.82,154.04 151.88,154.09 C 151.9,154.12 151.93,154.15 151.94,154.19 C 151.95,154.27 151.9,154.34 151.91,154.41 C 151.91,154.48 151.96,154.56 152.0,154.63 C 152.13,154.82 152.28,154.97 152.44,155.13 C 152.54,155.23 152.67,155.32 152.78,155.44 C 152.9,155.55 153.01,155.67 153.16,155.69 C 153.3,155.71 153.45,155.63 153.59,155.53 C 153.76,155.42 153.93,155.32 154.09,155.31 C 154.19,155.31 154.28,155.35 154.38,155.41 C 154.54,155.5 154.7,155.64 154.84,155.63 C 154.98,155.61 155.1,155.43 155.25,155.34 C 155.36,155.28 155.49,155.28 155.59,155.22 C 155.67,155.18 155.73,155.1 155.81,155.06 C 155.93,155.01 156.08,155.04 156.19,155.09 C 156.33,155.16 156.41,155.31 156.5,155.47 C 156.57,155.6 156.67,155.72 156.78,155.75 C 156.87,155.77 156.96,155.76 157.06,155.72 C 157.2,155.66 157.33,155.6 157.47,155.59 C 157.55,155.59 157.65,155.59 157.72,155.63 C 157.88,155.7 157.97,155.91 158.0,156.09 C 158.05,156.35 158.01,156.58 157.94,156.81 C 157.91,156.91 157.85,157.0 157.84,157.09 C 157.81,157.39 157.99,157.7 158.16,157.97 C 158.32,158.24 158.47,158.49 158.63,158.75 C 158.69,158.86 158.77,158.94 158.81,159.06 C 158.83,159.12 158.83,159.19 158.84,159.25 C 158.86,159.35 158.87,159.43 158.88,159.53 C 158.89,159.75 158.91,159.97 158.94,160.22 C 158.95,160.31 158.95,160.41 158.91,160.47 C 158.87,160.51 158.83,160.53 158.78,160.56 C 158.72,160.61 158.67,160.65 158.66,160.72 C 158.63,160.84 158.66,161.0 158.66,161.13 C 158.66,161.23 158.63,161.31 158.59,161.41 C 158.53,161.6 158.49,161.77 158.44,161.97 C 158.38,162.21 158.34,162.48 158.38,162.72 C 158.41,162.92 158.48,163.09 158.56,163.28 C 158.76,163.76 158.92,164.26 159.09,164.75 C 159.2,165.06 159.31,165.36 159.31,165.69 C 159.31,165.87 159.28,166.05 159.34,166.22 C 159.37,166.28 159.41,166.34 159.44,166.41 C 159.46,166.47 159.48,166.56 159.5,166.63 C 159.53,166.75 159.57,166.88 159.63,167.0 C 159.7,167.17 159.78,167.33 159.78,167.53 C 159.78,167.63 159.78,167.73 159.84,167.78 C 159.87,167.8 159.91,167.8 159.94,167.81 C 160.07,167.85 160.19,167.87 160.31,167.88 C 160.55,167.88 160.79,167.89 161.03,167.88 C 161.21,167.86 161.37,167.83 161.53,167.75 C 161.65,167.69 161.76,167.63 161.88,167.56 C 161.98,167.5 162.1,167.45 162.19,167.38 C 162.28,167.29 162.33,167.16 162.41,167.06 C 162.46,167.0 162.53,166.93 162.59,166.88 C 162.7,166.79 162.79,166.7 162.88,166.59 C 162.96,166.49 163.01,166.39 163.09,166.28 C 163.15,166.2 163.22,166.11 163.28,166.03 C 163.31,165.99 163.35,165.96 163.38,165.91 C 163.4,165.84 163.41,165.78 163.44,165.72 C 163.48,165.61 163.57,165.49 163.66,165.41 C 163.75,165.32 163.86,165.27 163.97,165.19 C 164.02,165.15 164.06,165.09 164.09,165.03 C 164.12,164.97 164.15,164.91 164.16,164.84 C 164.17,164.7 164.17,164.54 164.19,164.41 C 164.21,164.25 164.25,164.1 164.28,163.94 C 164.3,163.84 164.3,163.77 164.34,163.69 C 164.4,163.6 164.51,163.51 164.59,163.44 C 164.68,163.36 164.74,163.28 164.84,163.22 C 164.92,163.17 165.01,163.13 165.09,163.13 C 165.2,163.12 165.31,163.16 165.41,163.22 C 165.51,163.28 165.61,163.36 165.72,163.41 C 165.8,163.44 165.88,163.46 165.94,163.53 C 165.98,163.59 165.99,163.68 165.97,163.75 C 165.95,163.81 165.89,163.86 165.84,163.91 C 165.78,163.97 165.74,164.04 165.72,164.13 C 165.66,164.32 165.66,164.52 165.69,164.72 C 165.7,164.84 165.74,164.98 165.81,165.09 C 165.84,165.14 165.87,165.17 165.88,165.22 C 165.88,165.25 165.86,165.28 165.84,165.31 C 165.82,165.35 165.77,165.38 165.75,165.41 C 165.2,166.07 164.64,166.77 164.03,167.41 C 162.96,168.53 161.75,169.47 160.44,170.28 C 159.08,171.12 157.61,171.82 156.09,172.31 C 154.55,172.82 152.94,173.11 151.31,173.22 C 150.99,173.24 150.69,173.28 150.38,173.28 C 149.95,173.29 149.52,173.26 149.09,173.25 C 148.71,173.24 148.31,173.23 147.94,173.16 C 147.79,173.13 147.65,173.07 147.5,173.03 C 147.42,173.01 147.35,173.01 147.28,172.97 C 147.1,172.87 146.98,172.65 146.81,172.53 C 146.71,172.46 146.59,172.44 146.5,172.34 C 146.45,172.3 146.41,172.25 146.41,172.19 C 146.4,172.14 146.4,172.08 146.41,172.03 C 146.43,171.88 146.42,171.72 146.41,171.56 C 146.4,171.46 146.4,171.36 146.34,171.28 C 146.29,171.21 146.18,171.17 146.09,171.13 C 146.0,171.07 145.91,171.0 145.84,170.91 C 145.81,170.86 145.79,170.8 145.81,170.75 C 145.82,170.72 145.82,170.71 145.84,170.69 C 145.87,170.65 145.9,170.6 145.91,170.56 C 145.91,170.49 145.88,170.44 145.84,170.38 C 145.79,170.29 145.73,170.22 145.66,170.16 C 145.58,170.1 145.49,170.03 145.44,169.97 C 145.39,169.92 145.38,169.87 145.34,169.78 C 145.31,169.71 145.26,169.61 145.28,169.59 C 145.3,169.58 145.39,169.65 145.47,169.69 C 145.53,169.71 145.57,169.72 145.63,169.72 C 145.71,169.71 145.8,169.69 145.84,169.63 C 145.88,169.57 145.89,169.47 145.88,169.41 C 145.86,169.32 145.81,169.27 145.75,169.19 C 145.7,169.11 145.64,169.02 145.66,169.0 C 145.67,168.98 145.79,169.04 145.88,169.06 C 145.97,169.09 146.05,169.07 146.13,169.06 C 146.23,169.05 146.34,169.05 146.44,169.0 C 146.55,168.95 146.62,168.83 146.66,168.72 C 146.69,168.62 146.67,168.51 146.63,168.41 C 146.59,168.31 146.53,168.23 146.47,168.16 C 146.42,168.09 146.36,168.03 146.28,167.94 C 146.22,167.87 146.14,167.8 146.16,167.78 C 146.17,167.77 146.27,167.79 146.34,167.81 C 146.42,167.84 146.47,167.87 146.53,167.88 C 146.65,167.89 146.79,167.85 146.91,167.78 C 147.05,167.7 147.14,167.55 147.19,167.41 C 147.22,167.32 147.23,167.22 147.25,167.09 C 147.26,167.01 147.29,166.9 147.34,166.91 C 147.36,166.91 147.38,166.93 147.41,166.94 C 147.45,166.96 147.49,166.98 147.53,166.97 C 147.6,166.96 147.66,166.92 147.72,166.88 C 147.81,166.8 147.89,166.7 147.94,166.59 C 148.03,166.37 147.96,166.11 147.97,165.84 C 147.98,165.6 148.05,165.33 147.91,165.13 C 147.84,165.04 147.75,164.96 147.75,164.88 C 147.75,164.81 147.81,164.74 147.88,164.69 C 148.01,164.58 148.15,164.52 148.25,164.38 C 148.33,164.25 148.39,164.06 148.5,164.06 C 148.54,164.06 148.6,164.1 148.66,164.13 C 148.75,164.18 148.86,164.2 148.94,164.16 C 148.99,164.12 149.02,164.06 149.06,164.0 C 149.11,163.93 149.19,163.9 149.25,163.84 C 149.33,163.78 149.41,163.68 149.44,163.59 C 149.45,163.54 149.44,163.49 149.44,163.44 C 149.44,163.2 149.48,163.0 149.5,162.78 C 149.52,162.6 149.53,162.41 149.59,162.22 C 149.62,162.15 149.64,162.06 149.63,162.0 C 149.61,161.93 149.54,161.89 149.5,161.81 C 149.47,161.75 149.48,161.69 149.47,161.63 C 149.46,161.52 149.44,161.38 149.44,161.28 C 149.43,161.15 149.45,161.03 149.41,160.88 C 149.39,160.79 149.33,160.7 149.38,160.66 C 149.4,160.63 149.45,160.63 149.5,160.63 C 149.59,160.62 149.69,160.66 149.75,160.63 C 149.82,160.58 149.85,160.44 149.84,160.34 C 149.84,160.26 149.8,160.22 149.75,160.16 C 149.72,160.11 149.66,160.05 149.66,160.0 C 149.66,159.97 149.68,159.96 149.69,159.94 C 149.71,159.89 149.73,159.86 149.75,159.81 C 149.88,159.54 149.99,159.23 150.0,158.94 C 150.01,158.73 149.97,158.5 149.94,158.28 C 149.92,158.14 149.91,158.0 149.81,157.91 C 149.77,157.86 149.69,157.82 149.63,157.81 C 149.57,157.81 149.52,157.83 149.47,157.81 C 149.42,157.8 149.38,157.74 149.34,157.69 C 149.26,157.56 149.2,157.44 149.13,157.31 C 149.08,157.24 149.04,157.17 148.97,157.13 C 148.9,157.08 148.81,157.04 148.72,157.06 C 148.65,157.08 148.59,157.11 148.53,157.09 C 148.5,157.08 148.47,157.06 148.44,157.03 C 148.4,157.01 148.35,156.98 148.31,156.97 C 148.23,156.95 148.12,156.98 148.06,157.03 C 148.02,157.07 148.03,157.13 148.0,157.19 C 147.97,157.24 147.93,157.31 147.88,157.31 C 147.82,157.32 147.75,157.25 147.72,157.19 C 147.68,157.11 147.66,157.05 147.66,156.97 C 147.65,156.91 147.66,156.83 147.63,156.78 C 147.58,156.71 147.51,156.66 147.44,156.63 C 147.36,156.59 147.26,156.58 147.19,156.53 C 147.12,156.49 147.07,156.41 147.0,156.41 C 146.91,156.4 146.79,156.5 146.75,156.59 C 146.73,156.64 146.72,156.68 146.69,156.72 C 146.65,156.77 146.6,156.82 146.53,156.81 C 146.47,156.81 146.41,156.75 146.38,156.69 C 146.34,156.63 146.33,156.56 146.28,156.53 C 146.24,156.5 146.15,156.5 146.09,156.53 C 146.02,156.57 146.01,156.65 145.97,156.72 C 145.93,156.78 145.9,156.83 145.84,156.84 C 145.78,156.86 145.69,156.8 145.66,156.72 C 145.61,156.62 145.63,156.52 145.69,156.44 C 145.76,156.33 145.87,156.24 145.91,156.13 C 145.94,156.02 145.91,155.89 145.84,155.78 C 145.78,155.66 145.68,155.56 145.59,155.47 C 145.49,155.36 145.4,155.25 145.31,155.13 C 145.24,155.02 145.19,154.92 145.09,154.84 C 145.01,154.78 144.89,154.73 144.78,154.69 C 144.67,154.65 144.57,154.61 144.47,154.56 C 144.36,154.51 144.27,154.47 144.16,154.47 C 144.07,154.47 143.96,154.49 143.88,154.53 C 143.79,154.57 143.71,154.61 143.63,154.66 C 143.56,154.69 143.48,154.73 143.41,154.72 C 143.35,154.71 143.29,154.7 143.25,154.66 C 143.2,154.61 143.2,154.55 143.16,154.5 C 143.13,154.47 143.09,154.46 143.06,154.44 C 143.03,154.4 143.02,154.35 143.0,154.31 C 142.97,154.26 142.95,154.19 142.94,154.13 C 142.93,154.07 142.94,154.02 142.91,153.97 C 142.88,153.93 142.82,153.9 142.78,153.88 C 142.74,153.86 142.7,153.84 142.66,153.84 C 142.58,153.84 142.51,153.86 142.44,153.88 C 142.38,153.89 142.32,153.89 142.25,153.91 C 142.23,153.91 142.2,153.92 142.19,153.91 C 142.18,153.9 142.21,153.89 142.22,153.88 C 142.24,153.82 142.26,153.79 142.28,153.75 C 142.31,153.7 142.31,153.63 142.31,153.56 C 142.31,153.51 142.28,153.45 142.25,153.41 C 142.21,153.35 142.16,153.33 142.09,153.31 C 142.0,153.28 141.9,153.27 141.81,153.31 C 141.72,153.35 141.64,153.44 141.56,153.5 C 141.48,153.56 141.4,153.59 141.31,153.63 C 141.17,153.69 141.04,153.77 140.91,153.84 C 140.79,153.91 140.66,154.0 140.53,154.03 C 140.44,154.05 140.34,154.05 140.25,154.06 C 140.18,154.07 140.12,154.1 140.06,154.13 C 139.98,154.16 139.9,154.23 139.84,154.31 C 139.8,154.38 139.77,154.46 139.78,154.53 C 139.79,154.59 139.83,154.65 139.84,154.72 C 139.85,154.77 139.85,154.81 139.81,154.84 C 139.76,154.9 139.63,154.91 139.56,154.88 C 139.5,154.84 139.47,154.76 139.47,154.69 C 139.47,154.62 139.5,154.56 139.53,154.5 C 139.58,154.41 139.64,154.31 139.69,154.22 C 139.73,154.13 139.76,154.06 139.75,153.97 C 139.74,153.92 139.72,153.87 139.69,153.84 C 139.63,153.79 139.56,153.78 139.47,153.78 C 139.33,153.78 139.22,153.79 139.09,153.81 C 138.98,153.83 138.85,153.85 138.75,153.91 C 138.63,153.97 138.53,154.08 138.41,154.13 C 138.36,154.14 138.33,154.13 138.28,154.13 C 138.22,154.11 138.14,154.07 138.09,154.03 C 138.01,153.96 137.95,153.91 137.88,153.84 C 137.81,153.78 137.76,153.73 137.72,153.66 C 137.69,153.61 137.66,153.55 137.66,153.5 C 137.65,153.43 137.68,153.35 137.72,153.28 C 137.76,153.2 137.83,153.15 137.84,153.06 C 137.86,152.97 137.81,152.85 137.75,152.78 C 137.68,152.7 137.57,152.68 137.47,152.66 C 137.34,152.63 137.22,152.64 137.09,152.66 C 136.97,152.67 136.85,152.7 136.72,152.69 C 136.63,152.68 136.55,152.66 136.5,152.59 C 136.45,152.54 136.46,152.43 136.47,152.34 C 136.48,152.24 136.51,152.15 136.56,152.06 C 136.62,151.97 136.68,151.89 136.75,151.81 C 136.83,151.73 136.93,151.66 137.03,151.59 C 137.11,151.54 137.16,151.48 137.25,151.47 C 137.32,151.46 137.4,151.47 137.47,151.47 C 137.53,151.47 137.6,151.43 137.66,151.41 C 137.72,151.38 137.76,151.35 137.81,151.31 C 137.87,151.27 137.93,151.23 138.0,151.22 C 138.07,151.2 138.15,151.2 138.22,151.22 C 138.29,151.23 138.35,151.26 138.41,151.31 C 138.47,151.37 138.52,151.45 138.59,151.5 C 138.63,151.53 138.69,151.55 138.75,151.56 C 138.8,151.57 138.85,151.59 138.88,151.63 C 138.89,151.65 138.89,151.69 138.88,151.72 C 138.86,151.76 138.82,151.76 138.78,151.78 C 138.71,151.83 138.68,151.91 138.63,151.97 C 138.57,152.03 138.5,152.06 138.44,152.13 C 138.39,152.17 138.34,152.25 138.34,152.31 C 138.35,152.35 138.35,152.37 138.38,152.41 C 138.43,152.47 138.5,152.52 138.56,152.56 C 138.65,152.63 138.74,152.72 138.84,152.75 C 138.91,152.77 138.99,152.77 139.06,152.75 C 139.11,152.74 139.18,152.72 139.22,152.69 C 139.41,152.56 139.56,152.38 139.69,152.19 C 139.77,152.06 139.82,151.93 139.84,151.78 C 139.87,151.67 139.88,151.56 139.94,151.47 C 139.99,151.39 140.07,151.31 140.16,151.28 C 140.21,151.26 140.27,151.25 140.34,151.25 C 140.42,151.25 140.5,151.27 140.5,151.31 C 140.5,151.33 140.48,151.36 140.47,151.38 C 140.4,151.46 140.33,151.49 140.25,151.56 C 140.21,151.6 140.19,151.67 140.19,151.72 C 140.19,151.79 140.26,151.83 140.34,151.88 C 140.44,151.92 140.54,151.95 140.63,151.94 C 140.66,151.93 140.69,151.93 140.72,151.91 C 140.75,151.88 140.78,151.84 140.81,151.81 C 140.86,151.78 140.95,151.75 141.0,151.72 C 141.04,151.7 141.07,151.66 141.09,151.63 C 141.14,151.56 141.15,151.51 141.19,151.44 C 141.28,151.26 141.4,151.1 141.56,151.0 C 141.69,150.92 141.87,150.88 142.03,150.88 C 142.18,150.87 142.33,150.89 142.44,150.81 C 142.49,150.78 142.5,150.71 142.53,150.66 C 142.59,150.55 142.62,150.44 142.66,150.31 C 142.69,150.19 142.75,150.08 142.69,149.97 C 142.65,149.9 142.57,149.82 142.5,149.81 C 142.46,149.81 142.41,149.85 142.38,149.88 C 142.29,149.92 142.21,149.99 142.13,150.0 C 142.05,150.01 141.96,149.97 141.88,149.94 C 141.76,149.89 141.64,149.84 141.53,149.84 C 141.39,149.84 141.24,149.91 141.09,149.97 C 140.85,150.06 140.62,150.14 140.38,150.19 C 140.19,150.22 140.0,150.21 139.81,150.22 C 139.67,150.23 139.53,150.24 139.38,150.22 C 139.32,150.21 139.25,150.22 139.22,150.19 C 139.19,150.16 139.19,150.1 139.19,150.06 C 139.19,150.0 139.2,149.93 139.22,149.88 C 139.24,149.79 139.26,149.72 139.28,149.63 C 139.31,149.49 139.33,149.35 139.34,149.22 C 139.37,149.03 139.35,148.82 139.34,148.63 C 139.34,148.5 139.34,148.37 139.38,148.25 C 139.4,148.18 139.43,148.12 139.47,148.06 C 139.61,147.84 139.84,147.68 140.03,147.5 C 140.21,147.34 140.35,147.17 140.53,147.0 C 140.6,146.94 140.68,146.89 140.72,146.81 C 140.75,146.76 140.75,146.7 140.78,146.66 C 140.82,146.6 140.89,146.55 140.94,146.5 C 140.98,146.46 141.03,146.42 141.06,146.38 C 141.13,146.28 141.19,146.17 141.22,146.06 C 141.24,145.95 141.22,145.85 141.22,145.72 C 141.21,145.58 141.2,145.41 141.28,145.34 C 141.35,145.29 141.49,145.32 141.59,145.34 C 141.68,145.37 141.76,145.41 141.84,145.41 C 141.92,145.4 142.0,145.35 142.06,145.31 C 142.15,145.26 142.22,145.18 142.28,145.09 C 142.32,145.05 142.33,144.99 142.34,144.94 C 142.35,144.91 142.37,144.88 142.38,144.84 C 142.38,144.82 142.39,144.79 142.41,144.78 C 142.42,144.77 142.45,144.78 142.47,144.78 C 142.53,144.79 142.57,144.8 142.63,144.81 C 142.69,144.83 142.79,144.82 142.84,144.78 C 142.88,144.75 142.9,144.7 142.91,144.66 C 142.91,144.58 142.87,144.51 142.84,144.44 C 142.82,144.38 142.79,144.33 142.81,144.28 C 142.83,144.23 142.93,144.2 142.97,144.16 C 143.01,144.11 143.02,144.04 143.06,144.0 C 143.09,143.97 143.15,143.95 143.19,143.94 C 143.27,143.92 143.33,143.92 143.41,143.91 C 143.48,143.9 143.56,143.88 143.63,143.84 C 143.66,143.83 143.69,143.81 143.72,143.81 C 143.74,143.82 143.74,143.83 143.75,143.84 C 143.78,143.89 143.78,143.95 143.78,144.0 C 143.78,144.05 143.77,144.09 143.75,144.13 C 143.73,144.16 143.7,144.19 143.66,144.22 C 143.62,144.24 143.6,144.28 143.59,144.31 C 143.58,144.36 143.57,144.42 143.59,144.47 C 143.63,144.54 143.68,144.6 143.75,144.63 C 143.78,144.64 143.81,144.63 143.84,144.63 C 143.9,144.62 143.95,144.59 144.0,144.56 C 144.12,144.5 144.24,144.47 144.38,144.47 C 144.6,144.46 144.84,144.49 145.06,144.5 C 145.38,144.51 145.69,144.46 146.0,144.38 C 146.25,144.31 146.51,144.23 146.75,144.16 C 146.83,144.13 146.92,144.11 147.0,144.06 C 147.05,144.03 147.08,144.0 147.13,144.0 C 147.18,144.0 147.22,144.04 147.28,144.06 C 147.34,144.09 147.41,144.08 147.47,144.06 C 147.53,144.04 147.6,143.99 147.66,144.0 C 147.69,144.01 147.71,144.03 147.72,144.06 C 147.73,144.11 147.71,144.17 147.69,144.22 C 147.65,144.29 147.67,144.33 147.66,144.41 C 147.64,144.5 147.61,144.61 147.66,144.69 C 147.7,144.75 147.79,144.78 147.88,144.78 C 147.95,144.78 148.01,144.73 148.06,144.69 C 148.13,144.63 148.19,144.56 148.25,144.5 C 148.29,144.46 148.35,144.43 148.38,144.38 C 148.4,144.33 148.4,144.28 148.44,144.25 C 148.47,144.22 148.5,144.21 148.53,144.22 C 148.57,144.23 148.6,144.28 148.63,144.31 C 148.66,144.35 148.7,144.38 148.75,144.38 C 148.86,144.37 148.96,144.3 149.03,144.22 C 149.09,144.15 149.13,144.06 149.13,143.97 C 149.12,143.88 149.07,143.81 149.0,143.75 C 148.94,143.7 148.85,143.65 148.78,143.59 C 148.75,143.56 148.74,143.54 148.72,143.5 C 148.68,143.41 148.68,143.32 148.69,143.22 C 148.7,143.09 148.7,142.96 148.72,142.84 C 148.74,142.76 148.77,142.68 148.81,142.59 C 148.84,142.54 148.88,142.49 148.88,142.44 C 148.87,142.38 148.8,142.31 148.75,142.28 C 148.68,142.24 148.61,142.26 148.53,142.28 C 148.46,142.3 148.39,142.33 148.34,142.41 C 148.31,142.46 148.26,142.53 148.22,142.53 C 148.19,142.53 148.16,142.48 148.13,142.44 C 148.05,142.33 148.0,142.25 147.97,142.16 C 147.94,142.09 147.94,142.03 147.88,141.97 C 147.83,141.93 147.77,141.87 147.78,141.84 C 147.79,141.82 147.81,141.83 147.84,141.81 C 147.95,141.77 148.06,141.76 148.16,141.75 C 148.23,141.74 148.29,141.73 148.34,141.69 C 148.38,141.66 148.4,141.61 148.41,141.56 C 148.41,141.51 148.4,141.44 148.38,141.41 C 148.35,141.37 148.33,141.35 148.28,141.31 C 148.25,141.3 148.21,141.3 148.22,141.28 C 148.22,141.27 148.26,141.25 148.28,141.25 C 148.33,141.24 148.37,141.25 148.41,141.25 C 148.45,141.25 148.47,141.22 148.5,141.19 C 148.54,141.15 148.56,141.11 148.56,141.06 C 148.57,141.0 148.57,140.95 148.53,140.91 C 148.5,140.86 148.43,140.82 148.38,140.81 C 148.31,140.8 148.25,140.82 148.19,140.84 C 148.12,140.87 148.07,140.91 148.0,140.91 C 147.97,140.91 147.93,140.89 147.91,140.88 C 147.89,140.86 147.87,140.83 147.88,140.81 C 147.88,140.8 147.92,140.79 147.94,140.78 C 147.97,140.75 147.99,140.73 148.0,140.69 C 148.02,140.63 148.02,140.55 148.0,140.5 C 147.97,140.44 147.91,140.39 147.84,140.38 C 147.79,140.36 147.74,140.38 147.69,140.41 C 147.63,140.43 147.56,140.47 147.5,140.47 C 147.46,140.47 147.43,140.46 147.41,140.44 C 147.38,140.41 147.38,140.38 147.38,140.34 C 147.37,140.27 147.39,140.19 147.41,140.13 C 147.42,140.07 147.43,140.03 147.44,139.97 C 147.44,139.93 147.44,139.88 147.44,139.84 C 147.42,139.76 147.37,139.69 147.31,139.63 C 147.25,139.55 147.18,139.48 147.09,139.47 C 147.02,139.46 146.94,139.47 146.88,139.5 C 146.78,139.54 146.72,139.61 146.63,139.66 C 146.52,139.71 146.4,139.74 146.28,139.75 C 146.21,139.76 146.13,139.76 146.06,139.75 C 146.0,139.74 145.96,139.74 145.88,139.72 C 145.84,139.71 145.78,139.7 145.78,139.69 C 145.78,139.67 145.81,139.64 145.84,139.63 C 145.9,139.59 145.95,139.58 146.0,139.56 C 146.05,139.54 146.09,139.51 146.13,139.47 C 146.16,139.43 146.2,139.39 146.22,139.34 C 146.23,139.29 146.24,139.24 146.22,139.19 C 146.2,139.15 146.16,139.12 146.13,139.09 C 146.07,139.06 146.02,139.03 145.97,139.0 C 145.91,138.97 145.86,138.95 145.81,138.91 C 145.78,138.87 145.76,138.84 145.72,138.81 C 145.65,138.77 145.56,138.75 145.47,138.75 C 145.41,138.75 145.36,138.77 145.31,138.78 C 145.28,138.79 145.24,138.79 145.22,138.81 C 145.19,138.84 145.18,138.86 145.16,138.88 C 145.12,138.9 145.06,138.92 145.0,138.91 C 144.94,138.9 144.87,138.87 144.81,138.88 C 144.76,138.88 144.73,138.88 144.69,138.91 C 144.63,138.95 144.58,139.02 144.56,139.09 C 144.55,139.15 144.55,139.2 144.53,139.25 C 144.51,139.3 144.47,139.36 144.44,139.41 C 144.4,139.45 144.38,139.49 144.34,139.53 C 144.32,139.56 144.28,139.58 144.25,139.59 C 144.22,139.62 144.19,139.66 144.16,139.69 C 144.12,139.72 144.1,139.74 144.09,139.78 C 144.08,139.84 144.09,139.91 144.09,139.97 C 144.1,140.05 144.1,140.14 144.06,140.22 C 144.03,140.29 144.0,140.36 143.94,140.41 C 143.85,140.48 143.73,140.53 143.63,140.59 C 143.55,140.64 143.49,140.68 143.44,140.75 C 143.39,140.82 143.37,140.91 143.34,141.0 C 143.32,141.11 143.27,141.21 143.22,141.31 C 143.17,141.41 143.13,141.51 143.06,141.59 C 143.01,141.66 142.94,141.73 142.88,141.78 C 142.84,141.81 142.82,141.83 142.78,141.84 C 142.72,141.87 142.63,141.84 142.56,141.81 C 142.52,141.79 142.48,141.76 142.47,141.72 C 142.46,141.69 142.47,141.66 142.47,141.63 C 142.47,141.57 142.49,141.51 142.47,141.47 C 142.45,141.44 142.42,141.41 142.41,141.38 C 142.39,141.34 142.37,141.32 142.38,141.28 C 142.39,141.24 142.44,141.19 142.47,141.16 C 142.53,141.09 142.58,141.04 142.63,140.97 C 142.67,140.9 142.7,140.83 142.69,140.75 C 142.68,140.68 142.63,140.6 142.56,140.56 C 142.49,140.52 142.4,140.53 142.31,140.53 C 142.23,140.53 142.15,140.51 142.06,140.5 C 141.99,140.49 141.91,140.5 141.84,140.47 C 141.79,140.44 141.73,140.37 141.69,140.31 C 141.64,140.26 141.62,140.22 141.56,140.19 C 141.52,140.17 141.45,140.13 141.41,140.13 C 141.37,140.12 141.34,140.11 141.31,140.09 C 141.28,140.07 141.25,140.06 141.25,140.03 C 141.25,140.0 141.26,139.96 141.28,139.94 C 141.33,139.88 141.36,139.83 141.41,139.78 C 141.56,139.61 141.77,139.42 141.97,139.28 C 142.09,139.2 142.19,139.15 142.31,139.06 C 142.38,139.01 142.45,138.95 142.53,138.94 C 142.57,138.93 142.61,138.93 142.66,138.94 C 142.73,138.95 142.81,138.99 142.88,138.97 C 142.94,138.95 142.98,138.87 143.0,138.81 C 143.02,138.75 143.02,138.68 143.0,138.63 C 142.98,138.57 142.93,138.53 142.91,138.47 C 142.9,138.45 142.9,138.45 142.91,138.44 C 142.91,138.43 142.92,138.41 142.94,138.41 C 142.98,138.4 143.02,138.39 143.06,138.38 C 143.1,138.37 143.12,138.36 143.16,138.34 C 143.25,138.29 143.35,138.24 143.44,138.19 C 143.5,138.15 143.54,138.13 143.59,138.09 C 143.63,138.07 143.67,138.01 143.72,138.0 C 143.75,137.99 143.78,138.02 143.81,138.03 C 143.84,138.04 143.86,138.04 143.88,138.06 C 143.89,138.1 143.89,138.15 143.88,138.19 C 143.86,138.24 143.84,138.3 143.81,138.34 C 143.79,138.39 143.78,138.42 143.78,138.47 C 143.79,138.53 143.8,138.59 143.84,138.63 C 143.88,138.65 143.92,138.69 143.97,138.69 C 144.03,138.69 144.1,138.65 144.16,138.63 C 144.19,138.61 144.24,138.61 144.28,138.59 C 144.31,138.58 144.32,138.56 144.34,138.56 C 144.36,138.56 144.39,138.59 144.41,138.59 C 144.43,138.6 144.45,138.62 144.47,138.63 C 144.52,138.64 144.55,138.62 144.59,138.59 C 144.65,138.57 144.72,138.52 144.75,138.47 C 144.78,138.43 144.78,138.36 144.78,138.31 C 144.78,138.26 144.76,138.23 144.72,138.19 C 144.68,138.15 144.61,138.12 144.56,138.09 C 144.52,138.07 144.48,138.03 144.44,138.0 C 144.4,137.97 144.37,137.92 144.34,137.88 C 144.32,137.83 144.31,137.8 144.31,137.75 C 144.32,137.71 144.32,137.66 144.34,137.63 C 144.36,137.6 144.38,137.59 144.41,137.59 C 144.43,137.59 144.45,137.61 144.47,137.63 C 144.49,137.65 144.51,137.67 144.53,137.69 C 144.55,137.71 144.57,137.74 144.59,137.75 C 144.66,137.77 144.74,137.74 144.81,137.72 C 144.88,137.69 144.96,137.65 145.0,137.59 C 145.05,137.53 145.08,137.49 145.09,137.41 C 145.1,137.32 145.08,137.23 145.03,137.16 C 145.0,137.11 144.96,137.06 144.91,137.03 C 144.87,137.01 144.82,136.98 144.78,136.97 C 144.74,136.96 144.72,136.96 144.69,136.94 C 144.68,136.94 144.69,136.91 144.69,136.91 C 144.75,136.92 144.81,136.92 144.88,136.94 C 144.95,136.96 145.02,136.97 145.09,137.0 C 145.16,137.02 145.21,137.05 145.28,137.06 C 145.33,137.07 145.39,137.05 145.44,137.03 C 145.47,137.02 145.5,136.99 145.53,136.97 C 145.56,136.95 145.56,136.95 145.59,136.94 C 145.63,136.92 145.71,136.93 145.75,136.94 C 145.8,136.95 145.83,136.96 145.88,137.0 C 145.89,137.01 145.91,137.05 145.91,137.06 C 145.9,137.07 145.89,137.06 145.88,137.06 C 145.85,137.08 145.84,137.09 145.81,137.09 C 145.77,137.1 145.72,137.13 145.69,137.16 C 145.65,137.19 145.64,137.24 145.63,137.28 C 145.6,137.35 145.57,137.4 145.59,137.47 C 145.61,137.52 145.64,137.6 145.69,137.63 C 145.74,137.65 145.82,137.65 145.88,137.63 C 145.92,137.61 145.94,137.57 145.97,137.53 C 146.0,137.49 146.02,137.44 146.06,137.41 C 146.1,137.38 146.14,137.34 146.19,137.34 C 146.22,137.35 146.25,137.36 146.28,137.38 C 146.32,137.4 146.36,137.43 146.38,137.47 C 146.39,137.5 146.42,137.56 146.41,137.59 C 146.4,137.62 146.34,137.64 146.31,137.66 C 146.26,137.69 146.21,137.7 146.16,137.72 C 146.1,137.74 146.05,137.78 146.0,137.81 C 145.97,137.83 145.93,137.85 145.91,137.88 C 145.88,137.9 145.87,137.93 145.84,137.94 C 145.82,137.95 145.81,137.94 145.78,137.94 C 145.7,137.94 145.61,137.94 145.53,137.94 C 145.46,137.94 145.41,137.95 145.34,137.97 C 145.31,137.98 145.27,137.97 145.25,138.0 C 145.23,138.03 145.22,138.09 145.22,138.13 C 145.21,138.17 145.2,138.21 145.22,138.25 C 145.24,138.29 145.28,138.33 145.31,138.34 C 145.37,138.37 145.43,138.35 145.5,138.34 C 145.56,138.34 145.63,138.37 145.69,138.38 C 145.75,138.38 145.81,138.38 145.88,138.38 C 145.92,138.37 145.96,138.36 146.0,138.38 C 146.05,138.39 146.12,138.43 146.16,138.47 C 146.21,138.53 146.24,138.59 146.28,138.66 C 146.32,138.72 146.36,138.79 146.41,138.84 C 146.44,138.88 146.49,138.94 146.53,138.97 C 146.59,139.0 146.66,139.01 146.72,139.03 C 146.8,139.07 146.88,139.13 146.97,139.16 C 147.03,139.18 147.09,139.17 147.16,139.16 C 147.2,139.15 147.25,139.13 147.28,139.09 C 147.32,139.06 147.34,139.02 147.34,138.97 C 147.35,138.94 147.32,138.93 147.31,138.91 C 147.3,138.87 147.28,138.84 147.25,138.81 C 147.23,138.8 147.23,138.77 147.22,138.75 C 147.2,138.73 147.17,138.72 147.16,138.69 C 147.15,138.68 147.15,138.66 147.16,138.66 C 147.16,138.65 147.17,138.65 147.19,138.66 C 147.22,138.67 147.23,138.67 147.25,138.69 C 147.26,138.7 147.26,138.71 147.28,138.72 C 147.34,138.75 147.41,138.76 147.47,138.75 C 147.52,138.74 147.55,138.72 147.59,138.69 C 147.65,138.65 147.68,138.62 147.72,138.56 C 147.75,138.52 147.78,138.46 147.78,138.41 C 147.78,138.36 147.75,138.32 147.72,138.28 C 147.69,138.25 147.64,138.23 147.59,138.22 C 147.55,138.21 147.54,138.21 147.5,138.19 C 147.47,138.17 147.42,138.13 147.41,138.09 C 147.39,138.06 147.38,138.03 147.38,138.0 C 147.37,137.96 147.35,137.92 147.34,137.88 C 147.34,137.84 147.35,137.81 147.38,137.78 C 147.39,137.76 147.42,137.75 147.44,137.75 C 147.48,137.75 147.5,137.78 147.53,137.81 C 147.59,137.87 147.66,137.9 147.72,137.94 C 147.79,137.99 147.86,138.06 147.94,138.09 C 147.99,138.11 148.04,138.13 148.09,138.13 C 148.17,138.12 148.24,138.09 148.31,138.06 C 148.35,138.05 148.41,138.03 148.44,138.0 C 148.48,137.96 148.5,137.93 148.5,137.88 C 148.5,137.84 148.48,137.81 148.47,137.78 C 148.45,137.75 148.41,137.71 148.38,137.69 C 148.34,137.67 148.32,137.64 148.28,137.63 C 148.19,137.6 148.08,137.6 148.0,137.56 C 147.92,137.53 147.85,137.48 147.78,137.44 C 147.7,137.39 147.64,137.35 147.56,137.31 C 147.52,137.29 147.48,137.26 147.44,137.22 C 147.43,137.21 147.4,137.2 147.41,137.19 C 147.41,137.18 147.4,137.16 147.41,137.16 C 147.42,137.15 147.45,137.13 147.47,137.13 C 147.5,137.12 147.54,137.14 147.56,137.13 C 147.57,137.12 147.56,137.08 147.56,137.06 C 147.57,137.04 147.59,137.02 147.59,137.0 C 147.6,136.99 147.61,137.01 147.63,137.0 C 147.64,136.99 147.64,136.97 147.66,136.97 C 147.68,136.97 147.73,136.98 147.75,136.97 C 147.77,136.96 147.8,136.93 147.81,136.91 C 147.83,136.87 147.81,136.83 147.81,136.78 C 147.81,136.75 147.83,136.71 147.81,136.69 C 147.8,136.68 147.79,136.66 147.78,136.66 C 147.75,136.64 147.72,136.63 147.69,136.63 C 147.62,136.61 147.56,136.62 147.5,136.59 C 147.46,136.57 147.42,136.52 147.38,136.5 C 147.35,136.49 147.34,136.5 147.31,136.5 C 147.27,136.5 147.22,136.53 147.19,136.56 C 147.17,136.59 147.15,136.61 147.13,136.63 C 147.11,136.63 147.08,136.66 147.06,136.66 C 147.05,136.66 147.05,136.66 147.03,136.66 C 147.01,136.65 146.98,136.64 146.97,136.63 C 146.96,136.6 146.97,136.56 146.97,136.53 C 146.97,136.5 146.95,136.46 146.94,136.44 C 146.92,136.4 146.89,136.39 146.84,136.38 C 146.79,136.35 146.72,136.34 146.66,136.34 C 146.62,136.35 146.6,136.37 146.56,136.38 C 146.53,136.38 146.48,136.4 146.44,136.41 C 146.42,136.41 146.41,136.42 146.41,136.41 C 146.4,136.4 146.41,136.39 146.41,136.38 C 146.41,136.35 146.4,136.33 146.41,136.31 C 146.42,136.28 146.42,136.22 146.41,136.19 C 146.4,136.16 146.4,136.14 146.38,136.13 C 146.34,136.09 146.3,136.09 146.25,136.09 C 146.22,136.1 146.18,136.11 146.16,136.13 C 146.13,136.15 146.12,136.16 146.09,136.19 C 146.07,136.22 146.04,136.26 146.0,136.28 C 145.97,136.3 145.94,136.34 145.91,136.34 C 145.87,136.34 145.84,136.3 145.81,136.28 C 145.78,136.25 145.76,136.23 145.75,136.19 C 145.74,136.15 145.74,136.1 145.75,136.06 C 145.76,136.03 145.76,136.0 145.78,135.97 C 145.79,135.96 145.8,135.97 145.81,135.97 C 145.82,135.97 145.83,135.96 145.84,135.97 C 145.87,135.99 145.91,136.02 145.94,136.03 C 145.97,136.05 146.0,136.04 146.03,136.03 C 146.07,136.03 146.09,136.02 146.13,136.0 C 146.15,135.99 146.2,135.95 146.22,135.94 C 146.23,135.93 146.24,135.94 146.25,135.94 C 146.27,135.95 146.27,135.98 146.28,136.0 C 146.29,136.02 146.3,136.02 146.31,136.03 C 146.33,136.05 146.35,136.09 146.38,136.09 C 146.41,136.11 146.43,136.1 146.47,136.09 C 146.5,136.09 146.54,136.08 146.56,136.06 C 146.58,136.05 146.59,136.05 146.59,136.03 C 146.6,136.01 146.59,135.99 146.59,135.97 C 146.59,135.95 146.59,135.96 146.59,135.94 C 146.6,135.93 146.62,135.91 146.63,135.91 C 146.63,135.93 146.62,135.95 146.63,135.97 C 146.63,135.99 146.65,136.01 146.66,136.03 C 146.66,136.05 146.67,136.09 146.69,136.09 C 146.71,136.1 146.72,136.1 146.75,136.09 C 146.79,136.09 146.84,136.07 146.88,136.06 C 146.9,136.06 146.92,136.04 146.94,136.03 C 146.95,136.02 146.96,136.02 146.97,136.0 C 146.97,135.99 146.97,135.98 146.97,135.97 C 146.96,135.95 146.95,135.93 146.94,135.91 C 146.94,135.91 146.97,135.9 146.97,135.91 C 146.98,135.93 146.99,135.93 147.0,135.94 C 147.01,135.95 147.04,135.97 147.06,135.97 C 147.08,135.97 147.08,135.95 147.09,135.94 C 147.12,135.93 147.14,135.92 147.16,135.91 C 147.19,135.88 147.23,135.82 147.25,135.78 C 147.26,135.75 147.26,135.74 147.25,135.72 C 147.24,135.7 147.21,135.67 147.19,135.66 C 147.16,135.64 147.15,135.62 147.16,135.59 C 147.16,135.58 147.18,135.6 147.19,135.59 C 147.2,135.59 147.2,135.58 147.22,135.59 C 147.24,135.62 147.25,135.64 147.28,135.66 C 147.3,135.66 147.32,135.69 147.34,135.69 C 147.4,135.69 147.47,135.67 147.53,135.66 C 147.58,135.65 147.62,135.63 147.66,135.59 C 147.68,135.58 147.71,135.56 147.72,135.53 C 147.73,135.5 147.76,135.49 147.78,135.47 C 147.8,135.46 147.79,135.44 147.81,135.44 C 147.88,135.42 147.96,135.41 148.03,135.41 C 148.17,135.39 148.3,135.4 148.44,135.38 C 148.49,135.37 148.54,135.33 148.59,135.31 C 148.64,135.29 148.68,135.29 148.72,135.28 C 148.75,135.27 148.81,135.27 148.84,135.28 C 148.91,135.29 148.97,135.31 149.03,135.31 C 149.08,135.32 149.13,135.32 149.19,135.31 C 149.28,135.29 149.38,135.25 149.47,135.22 C 149.54,135.19 149.61,135.16 149.69,135.16 C 149.74,135.16 149.8,135.15 149.84,135.16 C 149.88,135.16 149.93,135.17 149.97,135.19 C 150.0,135.2 150.02,135.19 150.03,135.22 C 150.04,135.24 150.01,135.26 150.0,135.28 C 149.98,135.32 149.94,135.33 149.91,135.34 C 149.82,135.37 149.77,135.4 149.69,135.41 C 149.61,135.42 149.52,135.41 149.44,135.41 C 149.38,135.4 149.31,135.39 149.25,135.41 C 149.21,135.42 149.18,135.44 149.16,135.47 C 149.13,135.51 149.13,135.57 149.13,135.63 C 149.12,135.67 149.12,135.71 149.13,135.75 C 149.14,135.8 149.18,135.88 149.22,135.91 C 149.25,135.93 149.3,135.94 149.34,135.94 C 149.42,135.94 149.49,135.91 149.56,135.91 C 149.64,135.9 149.72,135.93 149.78,135.97 C 149.81,135.99 149.83,136.0 149.84,136.03 C 149.86,136.07 149.86,136.09 149.88,136.13 C 149.88,136.14 149.89,136.17 149.91,136.19 C 149.93,136.21 149.99,136.22 150.0,136.25 C 150.01,136.27 149.98,136.29 149.97,136.31 C 149.96,136.33 149.96,136.34 149.94,136.34 C 149.93,136.34 149.92,136.35 149.91,136.34 C 149.88,136.33 149.87,136.29 149.84,136.28 C 149.82,136.27 149.77,136.3 149.75,136.31 C 149.72,136.32 149.69,136.33 149.66,136.34 C 149.62,136.35 149.6,136.36 149.56,136.38 C 149.53,136.39 149.52,136.41 149.5,136.44 C 149.48,136.47 149.47,136.52 149.47,136.56 C 149.46,136.62 149.45,136.67 149.47,136.72 C 149.48,136.75 149.51,136.77 149.53,136.78 C 149.57,136.81 149.64,136.81 149.69,136.81 C 149.72,136.82 149.72,136.82 149.75,136.84 C 149.76,136.85 149.78,136.87 149.78,136.88 C 149.78,136.88 149.76,136.9 149.75,136.91 C 149.73,136.93 149.71,136.92 149.69,136.94 C 149.65,136.96 149.6,137.0 149.56,137.03 C 149.51,137.08 149.48,137.14 149.44,137.19 C 149.41,137.22 149.38,137.23 149.34,137.25 C 149.31,137.27 149.28,137.29 149.25,137.31 C 149.22,137.33 149.19,137.37 149.19,137.41 C 149.18,137.45 149.19,137.5 149.22,137.53 C 149.23,137.55 149.23,137.55 149.25,137.56 C 149.26,137.57 149.28,137.58 149.28,137.59 C 149.28,137.6 149.25,137.62 149.25,137.63 C 149.24,137.64 149.23,137.65 149.22,137.66 C 149.19,137.68 149.2,137.71 149.19,137.75 C 149.18,137.8 149.17,137.83 149.19,137.88 C 149.2,137.92 149.21,137.96 149.22,138.0 C 149.22,138.04 149.23,138.09 149.22,138.13 C 149.21,138.19 149.2,138.25 149.22,138.31 C 149.23,138.35 149.25,138.37 149.28,138.41 C 149.32,138.45 149.35,138.49 149.38,138.53 C 149.39,138.57 149.4,138.61 149.41,138.66 C 149.42,138.72 149.46,138.77 149.5,138.81 C 149.54,138.85 149.57,138.87 149.63,138.88 C 149.67,138.88 149.74,138.86 149.78,138.84 C 149.81,138.83 149.84,138.82 149.88,138.81 C 149.89,138.81 149.89,138.78 149.91,138.78 C 149.93,138.79 149.96,138.82 149.97,138.84 C 149.99,138.87 150.0,138.91 150.0,138.94 C 150.0,138.99 149.98,139.04 149.97,139.09 C 149.96,139.14 149.95,139.18 149.97,139.22 C 149.99,139.25 150.03,139.27 150.06,139.28 C 150.11,139.3 150.14,139.29 150.19,139.28 C 150.22,139.27 150.25,139.27 150.28,139.25 C 150.29,139.24 150.31,139.25 150.31,139.25 C 150.32,139.26 150.33,139.27 150.34,139.28 C 150.37,139.3 150.43,139.29 150.47,139.28 C 150.53,139.26 150.57,139.23 150.59,139.19 C 150.62,139.15 150.61,139.08 150.63,139.03 C 150.63,138.99 150.67,138.97 150.69,138.94 C 150.72,138.89 150.77,138.85 150.81,138.81 C 150.87,138.76 150.91,138.71 150.97,138.66 C 151.01,138.62 151.05,138.56 151.09,138.53 C 151.21,138.45 151.32,138.39 151.44,138.31 C 151.6,138.2 151.78,138.08 151.94,137.97 C 152.12,137.84 152.29,137.7 152.47,137.56 C 152.55,137.5 152.63,137.44 152.72,137.41 C 152.78,137.38 152.87,137.37 152.94,137.34 C 152.99,137.32 153.04,137.28 153.09,137.28 C 153.16,137.28 153.22,137.35 153.28,137.41 C 153.37,137.49 153.45,137.54 153.5,137.63 C 153.52,137.66 153.53,137.73 153.53,137.78 C 153.53,137.84 153.51,137.9 153.53,137.94 C 153.55,137.97 153.61,137.99 153.66,138.0 C 153.71,138.01 153.76,138.0 153.78,138.03 C 153.8,138.05 153.81,138.07 153.81,138.09 C 153.82,138.13 153.83,138.16 153.84,138.19 C 153.86,138.21 153.88,138.24 153.91,138.25 C 153.96,138.28 154.03,138.28 154.09,138.28 C 154.15,138.29 154.17,138.29 154.22,138.31 C 154.26,138.33 154.31,138.38 154.34,138.41 C 154.38,138.44 154.42,138.49 154.47,138.5 C 154.53,138.52 154.59,138.5 154.66,138.5 C 154.79,138.49 154.96,138.48 155.06,138.41 C 155.1,138.38 155.13,138.33 155.16,138.28 C 155.18,138.25 155.19,138.2 155.22,138.19 C 155.25,138.18 155.31,138.21 155.34,138.22 C 155.39,138.23 155.42,138.22 155.47,138.22 C 155.58,138.21 155.69,138.17 155.78,138.09 C 155.82,138.06 155.86,138.02 155.88,137.97 C 155.88,137.93 155.88,137.89 155.91,137.88 C 155.93,137.86 155.96,137.87 156.0,137.88 C 156.03,137.88 156.07,137.88 156.09,137.88 C 156.13,137.86 156.18,137.84 156.22,137.81 C 156.3,137.76 156.34,137.66 156.34,137.56 C 156.34,137.51 156.34,137.45 156.31,137.41 C 156.28,137.36 156.24,137.33 156.19,137.31 C 156.12,137.29 156.04,137.29 155.97,137.28 C 155.87,137.27 155.78,137.25 155.69,137.22 C 155.54,137.17 155.4,137.12 155.25,137.13 C 155.18,137.13 155.1,137.15 155.03,137.19 C 154.98,137.22 154.93,137.25 154.88,137.25 C 154.85,137.25 154.84,137.23 154.81,137.22 C 154.76,137.19 154.7,137.16 154.66,137.13 C 154.57,137.06 154.5,137.02 154.41,136.97 C 154.33,136.93 154.25,136.89 154.19,136.81 C 154.16,136.78 154.14,136.75 154.16,136.72 C 154.17,136.69 154.21,136.66 154.25,136.66 C 154.31,136.65 154.35,136.69 154.41,136.69 C 154.46,136.69 154.55,136.67 154.59,136.63 C 154.63,136.59 154.63,136.55 154.63,136.5 C 154.62,136.47 154.63,136.44 154.63,136.41 C 154.61,136.35 154.6,136.27 154.63,136.22 C 154.65,136.18 154.68,136.17 154.72,136.16 C 154.77,136.14 154.85,136.14 154.91,136.13 C 154.94,136.12 154.98,136.09 155.0,136.06 C 155.02,136.03 155.03,136.01 155.03,135.97 C 155.04,135.93 155.05,135.88 155.06,135.84 C 155.08,135.81 155.1,135.81 155.13,135.78 C 155.19,135.71 155.25,135.63 155.31,135.56 C 155.36,135.51 155.42,135.46 155.47,135.41 C 155.63,135.24 155.78,135.1 155.94,134.91 C 155.97,134.87 155.99,134.83 156.03,134.81 z M 143.25,135.5 C 143.28,135.49 143.3,135.49 143.31,135.5 C 143.32,135.51 143.32,135.54 143.31,135.56 C 143.3,135.6 143.28,135.63 143.28,135.66 C 143.28,135.67 143.3,135.7 143.31,135.72 C 143.33,135.75 143.37,135.74 143.41,135.75 C 143.43,135.76 143.44,135.78 143.47,135.78 C 143.5,135.78 143.53,135.77 143.56,135.75 C 143.58,135.74 143.6,135.72 143.63,135.72 C 143.65,135.72 143.67,135.74 143.69,135.75 C 143.72,135.77 143.78,135.78 143.81,135.78 C 143.84,135.79 143.88,135.77 143.91,135.75 C 143.94,135.72 143.96,135.67 143.97,135.69 C 143.98,135.7 143.99,135.73 144.0,135.75 C 144.02,135.77 144.03,135.78 144.06,135.78 C 144.09,135.78 144.13,135.78 144.16,135.78 C 144.19,135.78 144.23,135.77 144.25,135.75 C 144.26,135.74 144.24,135.73 144.25,135.72 C 144.26,135.71 144.27,135.69 144.28,135.69 C 144.29,135.68 144.3,135.71 144.31,135.72 C 144.33,135.74 144.32,135.76 144.31,135.78 C 144.3,135.82 144.28,135.85 144.25,135.88 C 144.23,135.89 144.21,135.89 144.19,135.91 C 144.16,135.93 144.12,135.97 144.09,136.0 C 144.07,136.02 144.06,136.05 144.03,136.06 C 143.99,136.08 143.95,136.07 143.91,136.06 C 143.86,136.06 143.82,136.03 143.78,136.03 C 143.73,136.04 143.7,136.07 143.66,136.09 C 143.59,136.13 143.51,136.17 143.44,136.19 C 143.38,136.2 143.34,136.18 143.28,136.19 C 143.21,136.19 143.14,136.21 143.06,136.22 C 143.01,136.22 142.93,136.23 142.88,136.25 C 142.81,136.27 142.75,136.29 142.69,136.31 C 142.59,136.34 142.5,136.36 142.41,136.41 C 142.36,136.43 142.31,136.46 142.28,136.5 C 142.25,136.55 142.27,136.6 142.28,136.66 C 142.3,136.72 142.33,136.76 142.38,136.81 C 142.41,136.86 142.45,136.89 142.47,136.94 C 142.51,137.03 142.5,137.15 142.5,137.25 C 142.5,137.31 142.48,137.39 142.44,137.44 C 142.43,137.45 142.42,137.44 142.41,137.44 C 142.39,137.44 142.39,137.42 142.38,137.41 C 142.35,137.38 142.33,137.38 142.31,137.34 C 142.29,137.29 142.26,137.24 142.22,137.22 C 142.18,137.2 142.14,137.18 142.09,137.19 C 142.05,137.19 142.0,137.19 141.97,137.22 C 141.95,137.24 141.95,137.28 141.94,137.31 C 141.93,137.34 141.91,137.38 141.91,137.41 C 141.9,137.45 141.9,137.47 141.88,137.5 C 141.86,137.52 141.83,137.55 141.81,137.56 C 141.78,137.58 141.75,137.59 141.72,137.59 C 141.61,137.61 141.51,137.59 141.41,137.59 C 141.28,137.59 141.16,137.6 141.03,137.63 C 140.97,137.64 140.9,137.67 140.84,137.69 C 140.79,137.71 140.73,137.72 140.69,137.75 C 140.64,137.78 140.61,137.83 140.56,137.88 C 140.54,137.9 140.5,137.92 140.47,137.94 C 140.44,137.95 140.41,137.94 140.38,137.94 C 140.31,137.94 140.25,137.95 140.19,137.94 C 140.13,137.93 140.09,137.91 140.03,137.91 C 139.98,137.9 139.92,137.92 139.88,137.91 C 139.85,137.9 139.83,137.89 139.81,137.88 C 139.79,137.86 139.76,137.83 139.75,137.81 C 139.75,137.8 139.75,137.79 139.75,137.78 C 139.75,137.76 139.77,137.76 139.78,137.75 C 139.8,137.73 139.81,137.71 139.81,137.69 C 139.82,137.65 139.82,137.6 139.81,137.56 C 139.8,137.51 139.78,137.45 139.75,137.41 C 139.73,137.38 139.72,137.36 139.69,137.34 C 139.66,137.33 139.63,137.34 139.59,137.34 C 139.55,137.35 139.5,137.35 139.47,137.34 C 139.43,137.33 139.39,137.29 139.38,137.25 C 139.36,137.22 139.37,137.19 139.38,137.16 C 139.39,137.12 139.41,137.09 139.44,137.06 C 139.49,137.03 139.54,137.0 139.59,136.97 C 139.64,136.94 139.67,136.92 139.72,136.91 C 139.75,136.9 139.81,136.88 139.84,136.88 C 139.88,136.87 139.91,136.88 139.94,136.88 C 139.98,136.87 140.01,136.85 140.06,136.84 C 140.1,136.84 140.16,136.85 140.19,136.88 C 140.21,136.9 140.22,136.93 140.22,136.97 C 140.22,137.0 140.21,137.04 140.19,137.06 C 140.16,137.09 140.13,137.09 140.09,137.09 C 140.05,137.1 140.0,137.1 139.97,137.13 C 139.93,137.16 139.94,137.23 139.94,137.28 C 139.94,137.34 139.94,137.4 139.97,137.44 C 140.0,137.48 140.07,137.51 140.13,137.53 C 140.2,137.56 140.27,137.57 140.34,137.56 C 140.41,137.56 140.47,137.53 140.53,137.5 C 140.59,137.47 140.63,137.42 140.69,137.38 C 140.73,137.34 140.8,137.32 140.84,137.31 C 140.91,137.3 140.97,137.32 141.03,137.34 C 141.09,137.37 141.13,137.41 141.19,137.44 C 141.22,137.45 141.25,137.46 141.28,137.47 C 141.35,137.49 141.45,137.48 141.5,137.44 C 141.54,137.41 141.56,137.34 141.56,137.28 C 141.57,137.24 141.57,137.21 141.59,137.19 C 141.61,137.16 141.65,137.14 141.69,137.13 C 141.73,137.11 141.76,137.1 141.78,137.06 C 141.81,137.02 141.83,136.96 141.84,136.91 C 141.86,136.86 141.88,136.82 141.91,136.78 C 141.94,136.72 141.96,136.65 142.0,136.59 C 142.02,136.56 142.06,136.54 142.06,136.5 C 142.06,136.46 142.03,136.41 142.0,136.38 C 141.96,136.33 141.89,136.31 141.84,136.28 C 141.81,136.26 141.79,136.26 141.75,136.25 C 141.73,136.25 141.71,136.24 141.69,136.25 C 141.66,136.26 141.64,136.28 141.63,136.31 C 141.61,136.35 141.59,136.41 141.56,136.44 C 141.54,136.46 141.52,136.47 141.5,136.47 C 141.48,136.47 141.46,136.47 141.44,136.47 C 141.41,136.47 141.38,136.48 141.38,136.47 C 141.37,136.46 141.39,136.43 141.41,136.41 C 141.44,136.33 141.45,136.27 141.47,136.22 C 141.48,136.17 141.5,136.13 141.53,136.09 C 141.57,136.05 141.63,136.03 141.69,136.0 C 141.72,135.98 141.75,135.95 141.78,135.94 C 141.8,135.93 141.85,135.92 141.88,135.91 C 141.89,135.9 141.9,135.9 141.91,135.91 C 141.91,135.91 141.91,135.95 141.91,135.97 C 141.9,136.0 141.87,136.01 141.88,136.03 C 141.88,136.06 141.91,136.1 141.94,136.13 C 141.97,136.16 141.99,136.18 142.03,136.19 C 142.07,136.2 142.12,136.2 142.16,136.19 C 142.21,136.17 142.27,136.13 142.31,136.09 C 142.35,136.06 142.39,136.02 142.44,136.0 C 142.49,135.98 142.53,136.0 142.59,136.0 C 142.66,136.0 142.72,135.99 142.78,135.97 C 142.85,135.95 142.91,135.89 142.97,135.84 C 143.0,135.81 143.04,135.79 143.06,135.75 C 143.08,135.72 143.11,135.69 143.13,135.66 C 143.14,135.62 143.13,135.59 143.16,135.56 C 143.18,135.54 143.21,135.51 143.25,135.5 z M 158.94,137.94 C 158.95,137.94 158.96,137.93 158.97,137.94 C 158.99,137.95 159.0,138.0 159.0,138.03 C 159.0,138.08 159.01,138.09 159.03,138.13 C 159.05,138.16 159.09,138.21 159.13,138.22 C 159.16,138.23 159.18,138.23 159.22,138.22 C 159.26,138.2 159.3,138.17 159.34,138.16 C 159.35,138.16 159.37,138.15 159.38,138.16 C 159.38,138.17 159.38,138.2 159.38,138.22 C 159.35,138.3 159.3,138.35 159.25,138.41 C 159.2,138.47 159.13,138.52 159.09,138.59 C 159.06,138.66 159.05,138.74 159.06,138.81 C 159.07,138.87 159.09,138.95 159.13,139.0 C 159.18,139.08 159.23,139.12 159.28,139.19 C 159.34,139.26 159.39,139.33 159.44,139.41 C 159.48,139.47 159.53,139.56 159.59,139.59 C 159.65,139.62 159.74,139.61 159.81,139.59 C 159.9,139.57 159.95,139.53 160.03,139.5 C 160.07,139.49 160.09,139.47 160.13,139.47 C 160.16,139.47 160.19,139.47 160.22,139.5 C 160.24,139.52 160.25,139.54 160.25,139.56 C 160.25,139.6 160.21,139.64 160.16,139.66 C 160.09,139.67 160.02,139.66 159.97,139.69 C 159.93,139.71 159.9,139.77 159.88,139.81 C 159.85,139.87 159.84,139.95 159.88,140.0 C 159.9,140.04 159.95,140.04 160.0,140.06 C 160.08,140.1 160.17,140.12 160.22,140.19 C 160.25,140.23 160.24,140.29 160.22,140.34 C 160.21,140.38 160.19,140.43 160.16,140.44 C 160.12,140.45 160.07,140.4 160.03,140.38 C 159.98,140.33 159.95,140.3 159.91,140.25 C 159.87,140.21 159.82,140.19 159.78,140.19 C 159.73,140.19 159.7,140.21 159.66,140.25 C 159.62,140.29 159.58,140.33 159.56,140.38 C 159.55,140.42 159.55,140.48 159.56,140.53 C 159.59,140.62 159.65,140.71 159.69,140.78 C 159.71,140.82 159.7,140.86 159.72,140.91 C 159.74,140.95 159.77,140.98 159.75,141.03 C 159.74,141.07 159.72,141.12 159.69,141.13 C 159.62,141.14 159.57,141.04 159.5,141.0 C 159.44,140.96 159.34,140.95 159.28,140.97 C 159.21,141.0 159.16,141.06 159.09,141.09 C 159.01,141.14 158.91,141.17 158.81,141.19 C 158.7,141.21 158.58,141.24 158.47,141.25 C 158.41,141.25 158.34,141.23 158.28,141.22 C 158.22,141.21 158.18,141.2 158.13,141.19 C 158.02,141.16 157.9,141.16 157.78,141.19 C 157.7,141.21 157.63,141.25 157.56,141.22 C 157.51,141.2 157.46,141.15 157.44,141.09 C 157.41,141.02 157.39,140.92 157.38,140.84 C 157.36,140.73 157.31,140.64 157.28,140.53 C 157.26,140.45 157.27,140.37 157.22,140.28 C 157.19,140.22 157.14,140.14 157.16,140.09 C 157.17,140.05 157.21,140.03 157.25,140.0 C 157.3,139.97 157.33,139.95 157.38,139.91 C 157.41,139.87 157.46,139.81 157.5,139.81 C 157.55,139.81 157.62,139.9 157.66,139.97 C 157.72,140.09 157.77,140.17 157.88,140.25 C 157.93,140.29 158.0,140.32 158.0,140.38 C 158.0,140.42 157.95,140.46 157.91,140.5 C 157.87,140.53 157.83,140.56 157.81,140.59 C 157.78,140.65 157.77,140.73 157.78,140.81 C 157.79,140.9 157.79,140.98 157.84,141.03 C 157.9,141.09 158.0,141.13 158.09,141.13 C 158.16,141.12 158.21,141.11 158.25,141.06 C 158.27,141.04 158.32,141.01 158.31,140.97 C 158.31,140.96 158.29,140.95 158.28,140.94 C 158.28,140.93 158.29,140.92 158.28,140.91 C 158.27,140.88 158.27,140.85 158.28,140.84 C 158.29,140.84 158.29,140.85 158.31,140.88 C 158.33,140.9 158.36,140.92 158.38,140.94 C 158.39,140.95 158.39,140.97 158.41,140.97 C 158.44,140.97 158.47,140.95 158.5,140.94 C 158.55,140.92 158.59,140.91 158.63,140.88 C 158.64,140.85 158.66,140.81 158.66,140.78 C 158.66,140.75 158.63,140.72 158.63,140.69 C 158.62,140.66 158.64,140.64 158.66,140.63 C 158.68,140.6 158.71,140.59 158.75,140.59 C 158.77,140.6 158.79,140.61 158.81,140.63 C 158.84,140.64 158.88,140.66 158.91,140.66 C 158.94,140.66 158.95,140.59 158.97,140.53 C 159.0,140.45 159.0,140.41 159.0,140.34 C 159.0,140.3 159.02,140.26 159.0,140.22 C 158.99,140.2 158.96,140.17 158.94,140.16 C 158.91,140.14 158.86,140.15 158.84,140.13 C 158.84,140.11 158.84,140.08 158.84,140.06 C 158.85,140.05 158.85,140.07 158.88,140.06 C 158.93,140.06 158.98,140.06 159.03,140.06 C 159.08,140.06 159.12,140.06 159.16,140.03 C 159.19,140.0 159.19,139.92 159.19,139.88 C 159.18,139.84 159.18,139.8 159.16,139.78 C 159.12,139.75 159.07,139.74 159.0,139.72 C 158.95,139.71 158.9,139.7 158.91,139.69 C 158.91,139.67 158.95,139.67 159.0,139.66 C 159.06,139.64 159.12,139.63 159.16,139.59 C 159.19,139.56 159.19,139.52 159.19,139.47 C 159.19,139.41 159.17,139.34 159.13,139.31 C 159.09,139.29 159.05,139.28 159.0,139.28 C 158.95,139.28 158.89,139.31 158.84,139.31 C 158.78,139.32 158.72,139.31 158.66,139.31 C 158.56,139.31 158.49,139.3 158.41,139.25 C 158.32,139.2 158.22,139.12 158.19,139.03 C 158.17,138.97 158.16,138.9 158.19,138.84 C 158.21,138.78 158.28,138.74 158.34,138.72 C 158.44,138.69 158.53,138.71 158.63,138.69 C 158.7,138.67 158.78,138.64 158.84,138.59 C 158.9,138.55 158.95,138.48 158.97,138.41 C 158.98,138.35 158.97,138.27 158.94,138.22 C 158.91,138.18 158.88,138.16 158.84,138.13 C 158.82,138.1 158.78,138.09 158.78,138.06 C 158.78,138.04 158.82,137.99 158.84,137.97 C 158.88,137.94 158.9,137.93 158.94,137.94 z M 147.22,141.88 C 147.24,141.87 147.27,141.86 147.28,141.88 C 147.29,141.88 147.28,141.89 147.28,141.91 C 147.28,141.94 147.29,141.97 147.28,142.0 C 147.25,142.08 147.24,142.16 147.22,142.25 C 147.2,142.35 147.19,142.46 147.19,142.56 C 147.19,142.62 147.17,142.66 147.16,142.72 C 147.15,142.76 147.12,142.79 147.09,142.81 C 147.05,142.86 147.0,142.89 146.94,142.91 C 146.77,142.96 146.6,143.0 146.44,143.03 C 146.14,143.09 145.83,143.08 145.56,143.06 C 145.4,143.05 145.24,143.05 145.0,143.0 C 144.91,142.98 144.8,142.97 144.81,142.91 C 144.82,142.89 144.83,142.86 144.84,142.84 C 144.87,142.82 144.88,142.8 144.91,142.78 C 144.98,142.73 145.07,142.67 145.09,142.59 C 145.11,142.54 145.09,142.47 145.06,142.41 C 145.04,142.34 145.02,142.28 144.97,142.25 C 144.93,142.23 144.86,142.22 144.81,142.22 C 144.77,142.22 144.76,142.24 144.72,142.22 C 144.7,142.21 144.66,142.18 144.66,142.16 C 144.66,142.14 144.67,142.11 144.69,142.09 C 144.75,142.04 144.84,142.04 144.91,142.03 C 145.08,142.01 145.26,142.02 145.44,142.03 C 145.71,142.05 145.95,142.13 146.22,142.13 C 146.36,142.12 146.54,142.1 146.69,142.06 C 146.8,142.04 146.9,142.01 147.0,141.97 C 147.07,141.94 147.14,141.91 147.22,141.88 z M 166.31,142.53 C 166.38,142.52 166.43,142.64 166.47,142.72 C 166.51,142.8 166.56,142.84 166.63,142.91 C 166.67,142.95 166.69,143.02 166.69,143.06 C 166.68,143.1 166.62,143.13 166.56,143.16 C 166.44,143.21 166.39,143.27 166.28,143.31 C 166.23,143.33 166.16,143.33 166.13,143.38 C 166.1,143.41 166.1,143.45 166.09,143.5 C 166.08,143.63 166.14,143.74 166.22,143.84 C 166.28,143.92 166.34,144.0 166.41,144.06 C 166.46,144.12 166.54,144.14 166.59,144.22 C 166.63,144.28 166.64,144.37 166.69,144.38 C 166.72,144.38 166.77,144.34 166.81,144.31 C 166.86,144.28 166.92,144.24 166.97,144.22 C 167.03,144.2 167.09,144.19 167.16,144.16 C 167.2,144.13 167.25,144.09 167.28,144.09 C 167.33,144.1 167.34,144.19 167.38,144.25 C 167.41,144.3 167.45,144.33 167.44,144.38 C 167.43,144.41 167.41,144.44 167.38,144.47 C 167.28,144.54 167.21,144.57 167.09,144.63 C 167.03,144.66 166.93,144.7 166.94,144.75 C 166.94,144.78 166.97,144.81 167.0,144.84 C 167.06,144.92 167.11,145.02 167.16,145.09 C 167.22,145.2 167.28,145.27 167.38,145.38 C 167.44,145.45 167.51,145.54 167.5,145.63 C 167.49,145.66 167.47,145.72 167.44,145.75 C 167.36,145.82 167.24,145.79 167.13,145.78 C 167.01,145.77 166.92,145.77 166.84,145.72 C 166.75,145.67 166.68,145.54 166.63,145.44 C 166.57,145.33 166.52,145.21 166.5,145.09 C 166.49,145.01 166.49,144.93 166.47,144.84 C 166.46,144.79 166.44,144.73 166.41,144.69 C 166.36,144.62 166.3,144.56 166.25,144.5 C 166.18,144.42 166.1,144.34 166.03,144.25 C 165.96,144.17 165.89,144.08 165.81,144.0 C 165.76,143.95 165.69,143.9 165.66,143.84 C 165.63,143.8 165.63,143.75 165.59,143.72 C 165.55,143.68 165.47,143.67 165.44,143.63 C 165.41,143.6 165.41,143.57 165.41,143.53 C 165.4,143.38 165.47,143.24 165.56,143.13 C 165.64,143.03 165.74,142.92 165.84,142.84 C 165.91,142.8 165.97,142.76 166.03,142.72 C 166.1,142.67 166.18,142.65 166.25,142.59 C 166.28,142.57 166.29,142.53 166.31,142.53 z M 162.03,143.06 C 162.06,143.07 162.06,143.15 162.09,143.19 C 162.14,143.23 162.2,143.24 162.22,143.28 C 162.24,143.32 162.24,143.35 162.22,143.41 C 162.19,143.49 162.18,143.58 162.22,143.63 C 162.25,143.65 162.29,143.68 162.34,143.69 C 162.44,143.69 162.53,143.68 162.59,143.63 C 162.64,143.59 162.65,143.53 162.66,143.47 C 162.66,143.41 162.66,143.35 162.69,143.31 C 162.71,143.28 162.76,143.29 162.81,143.28 C 162.92,143.27 163.0,143.25 163.09,143.19 C 163.15,143.15 163.22,143.08 163.25,143.09 C 163.29,143.11 163.26,143.23 163.25,143.31 C 163.24,143.38 163.24,143.41 163.22,143.47 C 163.2,143.53 163.2,143.61 163.22,143.66 C 163.24,143.71 163.31,143.75 163.38,143.78 C 163.51,143.84 163.6,143.89 163.72,143.94 C 163.84,143.98 163.97,144.03 164.06,144.13 C 164.12,144.18 164.17,144.23 164.19,144.31 C 164.21,144.4 164.2,144.49 164.16,144.56 C 164.1,144.66 163.97,144.72 163.84,144.72 C 163.76,144.72 163.7,144.71 163.63,144.69 C 163.47,144.64 163.28,144.56 163.13,144.5 C 162.99,144.45 162.87,144.4 162.72,144.38 C 162.58,144.35 162.44,144.32 162.31,144.38 C 162.24,144.4 162.17,144.47 162.13,144.53 C 162.09,144.58 162.07,144.64 162.03,144.69 C 161.99,144.73 161.93,144.76 161.88,144.78 C 161.79,144.81 161.71,144.83 161.63,144.84 C 161.56,144.86 161.5,144.87 161.44,144.91 C 161.41,144.93 161.38,144.97 161.38,145.0 C 161.37,145.03 161.36,145.06 161.38,145.09 C 161.39,145.13 161.42,145.18 161.44,145.22 C 161.46,145.27 161.46,145.32 161.47,145.38 C 161.48,145.44 161.5,145.5 161.53,145.56 C 161.56,145.62 161.58,145.68 161.63,145.72 C 161.65,145.74 161.68,145.74 161.72,145.75 C 161.75,145.75 161.8,145.77 161.81,145.78 C 161.82,145.79 161.81,145.79 161.81,145.81 C 161.82,145.85 161.85,145.88 161.88,145.91 C 161.9,145.93 161.93,145.96 161.97,145.97 C 162.04,145.99 162.1,146.0 162.16,145.97 C 162.19,145.95 162.24,145.91 162.25,145.88 C 162.27,145.83 162.25,145.79 162.28,145.78 C 162.3,145.78 162.33,145.77 162.34,145.78 C 162.37,145.8 162.39,145.84 162.41,145.88 C 162.42,145.91 162.42,145.94 162.44,145.97 C 162.46,146.0 162.5,146.02 162.53,146.03 C 162.58,146.04 162.65,146.03 162.69,146.0 C 162.72,145.97 162.75,145.91 162.78,145.88 C 162.81,145.85 162.84,145.85 162.88,145.84 C 162.91,145.84 162.96,145.83 163.0,145.84 C 163.03,145.85 163.05,145.85 163.06,145.88 C 163.07,145.89 163.06,145.92 163.06,145.94 C 163.06,145.96 163.07,146.01 163.06,146.03 C 163.05,146.12 163.06,146.19 163.06,146.28 C 163.06,146.39 163.06,146.49 163.03,146.59 C 163.02,146.66 163.0,146.72 162.97,146.78 C 162.92,146.88 162.81,146.97 162.72,147.03 C 162.6,147.1 162.48,147.13 162.34,147.16 C 162.16,147.2 161.97,147.23 161.78,147.19 C 161.66,147.16 161.56,147.1 161.5,147.0 C 161.48,146.96 161.46,146.91 161.44,146.88 C 161.43,146.86 161.43,146.85 161.41,146.84 C 161.36,146.83 161.24,146.86 161.16,146.88 C 161.04,146.9 160.93,146.9 160.88,146.88 C 160.86,146.87 160.85,146.86 160.84,146.84 C 160.84,146.82 160.82,146.81 160.81,146.78 C 160.8,146.73 160.78,146.66 160.75,146.63 C 160.72,146.6 160.69,146.58 160.66,146.56 C 160.6,146.54 160.53,146.52 160.47,146.53 C 160.43,146.54 160.4,146.57 160.38,146.59 C 160.31,146.65 160.31,146.75 160.31,146.84 C 160.31,146.99 160.32,147.11 160.28,147.28 C 160.26,147.36 160.23,147.44 160.19,147.44 C 160.15,147.44 160.11,147.38 160.06,147.34 C 160.01,147.29 159.96,147.27 159.91,147.25 C 159.77,147.19 159.61,147.14 159.47,147.06 C 159.38,147.01 159.27,146.96 159.19,146.91 C 159.06,146.83 158.95,146.78 158.81,146.72 C 158.76,146.7 158.7,146.68 158.66,146.66 C 158.6,146.63 158.55,146.58 158.5,146.53 C 158.48,146.52 158.47,146.52 158.47,146.5 C 158.47,146.49 158.46,146.48 158.47,146.47 C 158.48,146.43 158.49,146.38 158.5,146.34 C 158.51,146.31 158.52,146.28 158.5,146.25 C 158.49,146.23 158.45,146.21 158.44,146.19 C 158.43,146.17 158.43,146.15 158.44,146.13 C 158.44,146.09 158.45,146.06 158.47,146.03 C 158.49,145.99 158.52,145.92 158.5,145.88 C 158.49,145.84 158.47,145.82 158.44,145.81 C 158.41,145.8 158.37,145.8 158.34,145.78 C 158.33,145.77 158.32,145.77 158.31,145.75 C 158.31,145.74 158.31,145.73 158.31,145.72 C 158.33,145.68 158.36,145.63 158.38,145.59 C 158.39,145.54 158.38,145.49 158.38,145.44 C 158.37,145.37 158.36,145.31 158.34,145.25 C 158.32,145.17 158.26,145.07 158.22,145.0 C 158.19,144.96 158.2,144.92 158.19,144.88 C 158.18,144.82 158.17,144.77 158.16,144.72 C 158.14,144.68 158.13,144.64 158.09,144.63 C 158.05,144.6 157.99,144.61 157.94,144.63 C 157.86,144.65 157.8,144.67 157.75,144.72 C 157.69,144.77 157.64,144.86 157.63,144.94 C 157.61,145.03 157.64,145.14 157.69,145.22 C 157.72,145.27 157.75,145.33 157.78,145.38 C 157.8,145.4 157.82,145.43 157.81,145.47 C 157.81,145.49 157.8,145.52 157.78,145.53 C 157.75,145.56 157.7,145.56 157.66,145.56 C 157.59,145.57 157.56,145.59 157.5,145.63 C 157.46,145.65 157.42,145.69 157.38,145.69 C 157.33,145.69 157.26,145.67 157.22,145.66 C 157.15,145.64 157.1,145.6 157.03,145.59 C 156.92,145.58 156.8,145.58 156.69,145.59 C 156.59,145.6 156.48,145.64 156.41,145.69 C 156.35,145.72 156.3,145.77 156.25,145.81 C 156.2,145.86 156.17,145.89 156.09,145.91 C 156.0,145.92 155.86,145.91 155.78,145.88 C 155.75,145.86 155.71,145.84 155.72,145.81 C 155.72,145.79 155.75,145.78 155.78,145.75 C 155.83,145.71 155.88,145.64 155.91,145.59 C 155.94,145.53 155.96,145.47 156.0,145.41 C 156.02,145.38 156.03,145.37 156.06,145.34 C 156.09,145.32 156.12,145.28 156.13,145.25 C 156.13,145.22 156.11,145.19 156.09,145.16 C 156.06,145.1 156.03,145.05 156.03,145.0 C 156.03,144.97 156.05,144.93 156.06,144.91 C 156.09,144.85 156.15,144.83 156.19,144.78 C 156.23,144.73 156.24,144.67 156.28,144.63 C 156.32,144.58 156.39,144.54 156.44,144.5 C 156.49,144.46 156.53,144.42 156.56,144.38 C 156.61,144.32 156.64,144.24 156.66,144.16 C 156.67,144.1 156.69,144.05 156.72,144.03 C 156.76,144.0 156.84,144.03 156.91,144.06 C 156.99,144.1 157.05,144.15 157.13,144.16 C 157.19,144.17 157.25,144.17 157.31,144.16 C 157.38,144.14 157.45,144.07 157.5,144.03 C 157.58,143.98 157.66,143.93 157.75,143.88 C 157.8,143.85 157.83,143.84 157.88,143.84 C 157.95,143.84 158.01,143.91 158.06,143.97 C 158.12,144.03 158.18,144.09 158.22,144.16 C 158.27,144.24 158.33,144.32 158.41,144.38 C 158.44,144.4 158.49,144.45 158.53,144.47 C 158.59,144.49 158.66,144.5 158.72,144.53 C 158.76,144.55 158.78,144.57 158.81,144.59 C 158.87,144.63 158.92,144.68 158.97,144.72 C 159.03,144.76 159.08,144.79 159.13,144.84 C 159.18,144.9 159.23,144.98 159.25,145.06 C 159.26,145.12 159.28,145.18 159.25,145.22 C 159.23,145.25 159.16,145.26 159.13,145.28 C 159.08,145.3 159.05,145.31 159.0,145.31 C 158.98,145.31 158.96,145.32 158.94,145.31 C 158.91,145.3 158.9,145.28 158.88,145.28 C 158.86,145.28 158.83,145.3 158.81,145.31 C 158.78,145.33 158.74,145.34 158.72,145.38 C 158.7,145.4 158.69,145.44 158.69,145.47 C 158.69,145.51 158.71,145.56 158.75,145.59 C 158.82,145.65 158.9,145.67 158.97,145.72 C 159.03,145.76 159.09,145.8 159.16,145.81 C 159.2,145.82 159.23,145.83 159.28,145.81 C 159.34,145.8 159.41,145.79 159.44,145.75 C 159.46,145.72 159.46,145.67 159.47,145.63 C 159.47,145.6 159.48,145.58 159.5,145.56 C 159.51,145.55 159.52,145.54 159.53,145.53 C 159.57,145.52 159.62,145.52 159.66,145.5 C 159.69,145.48 159.7,145.44 159.72,145.41 C 159.74,145.37 159.77,145.35 159.78,145.31 C 159.79,145.28 159.8,145.23 159.78,145.19 C 159.76,145.14 159.71,145.07 159.72,145.06 C 159.73,145.05 159.8,145.09 159.84,145.13 C 159.89,145.16 159.93,145.19 159.97,145.19 C 160.0,145.19 160.03,145.15 160.06,145.13 C 160.09,145.1 160.11,145.07 160.13,145.03 C 160.14,144.99 160.16,144.98 160.16,144.94 C 160.15,144.89 160.1,144.82 160.06,144.78 C 159.99,144.71 159.9,144.67 159.81,144.63 C 159.76,144.6 159.7,144.6 159.66,144.56 C 159.63,144.54 159.61,144.5 159.59,144.47 C 159.57,144.43 159.53,144.41 159.5,144.38 C 159.46,144.34 159.4,144.33 159.34,144.31 C 159.26,144.29 159.19,144.26 159.13,144.22 C 159.07,144.18 159.02,144.12 158.97,144.06 C 158.9,143.98 158.83,143.9 158.78,143.81 C 158.73,143.73 158.69,143.64 158.66,143.53 C 158.64,143.49 158.64,143.47 158.66,143.44 C 158.67,143.41 158.68,143.39 158.72,143.38 C 158.76,143.36 158.81,143.36 158.84,143.38 C 158.87,143.39 158.9,143.43 158.91,143.47 C 158.91,143.51 158.91,143.55 158.94,143.56 C 158.96,143.57 158.97,143.57 159.0,143.56 C 159.03,143.55 159.07,143.53 159.09,143.53 C 159.12,143.53 159.13,143.57 159.16,143.59 C 159.2,143.63 159.22,143.65 159.25,143.69 C 159.29,143.72 159.36,143.75 159.41,143.78 C 159.54,143.86 159.63,143.97 159.75,144.06 C 159.86,144.15 159.97,144.23 160.09,144.31 C 160.14,144.35 160.2,144.39 160.22,144.44 C 160.23,144.48 160.21,144.52 160.22,144.56 C 160.22,144.61 160.26,144.65 160.28,144.69 C 160.33,144.77 160.36,144.85 160.41,144.94 C 160.45,145.02 160.48,145.13 160.5,145.22 C 160.51,145.3 160.53,145.36 160.53,145.44 C 160.53,145.5 160.53,145.57 160.53,145.63 C 160.54,145.69 160.56,145.76 160.59,145.81 C 160.62,145.85 160.67,145.89 160.72,145.91 C 160.78,145.93 160.86,145.91 160.91,145.88 C 160.94,145.85 160.96,145.85 160.97,145.81 C 160.97,145.8 160.97,145.76 160.97,145.75 C 160.97,145.73 160.96,145.73 160.97,145.72 C 160.98,145.71 161.0,145.7 161.03,145.72 C 161.05,145.73 161.07,145.75 161.09,145.75 C 161.14,145.75 161.17,145.73 161.19,145.69 C 161.22,145.64 161.23,145.56 161.22,145.5 C 161.21,145.44 161.17,145.38 161.13,145.34 C 161.09,145.31 161.04,145.31 161.0,145.28 C 160.97,145.26 160.92,145.23 160.91,145.19 C 160.88,145.11 160.92,145.03 160.94,144.94 C 160.95,144.88 160.97,144.82 161.0,144.78 C 161.04,144.74 161.1,144.73 161.16,144.72 C 161.27,144.7 161.39,144.7 161.5,144.69 C 161.62,144.68 161.73,144.67 161.81,144.59 C 161.85,144.56 161.89,144.53 161.91,144.47 C 161.92,144.41 161.94,144.32 161.91,144.28 C 161.88,144.26 161.85,144.24 161.81,144.22 C 161.76,144.2 161.7,144.17 161.69,144.13 C 161.68,144.08 161.69,144.05 161.72,144.0 C 161.76,143.92 161.8,143.83 161.81,143.75 C 161.82,143.68 161.84,143.6 161.84,143.53 C 161.84,143.42 161.85,143.35 161.91,143.22 C 161.94,143.15 161.99,143.05 162.03,143.06 z M 166.69,147.41 C 166.73,147.4 166.77,147.39 166.81,147.41 C 166.9,147.43 166.95,147.52 167.0,147.59 C 167.04,147.66 167.08,147.72 167.13,147.78 C 167.23,147.93 167.43,148.11 167.63,148.25 C 167.84,148.4 168.04,148.51 168.19,148.47 C 168.23,148.46 168.27,148.45 168.31,148.41 C 168.35,148.37 168.39,148.32 168.44,148.31 C 168.51,148.3 168.6,148.4 168.66,148.5 C 168.69,148.57 168.71,148.61 168.75,148.66 C 168.8,148.71 168.89,148.73 168.97,148.75 C 169.03,148.76 169.09,148.77 169.13,148.81 C 169.15,148.84 169.18,148.89 169.19,148.94 C 169.22,149.05 169.23,149.17 169.25,149.28 C 169.3,149.54 169.36,149.8 169.41,150.06 C 169.46,150.34 169.49,150.63 169.53,150.91 C 169.55,151.04 169.58,151.18 169.59,151.31 C 169.7,152.26 169.75,153.21 169.72,154.16 C 169.69,155.17 169.55,156.15 169.38,157.16 C 169.2,158.12 168.97,159.11 168.63,160.0 C 168.5,160.31 168.38,160.6 168.28,160.94 C 168.27,160.99 168.26,161.06 168.22,161.09 C 168.2,161.11 168.18,161.12 168.16,161.13 C 168.11,161.13 168.05,161.09 168.0,161.06 C 167.88,161.0 167.76,160.99 167.63,160.97 C 167.56,160.96 167.5,160.96 167.44,160.97 C 167.35,160.99 167.3,161.08 167.25,161.16 C 167.18,161.27 167.14,161.37 167.09,161.5 C 167.05,161.62 167.01,161.75 166.91,161.81 C 166.86,161.84 166.78,161.87 166.72,161.88 C 166.56,161.88 166.43,161.76 166.28,161.69 C 166.17,161.63 166.07,161.6 165.97,161.53 C 165.91,161.49 165.85,161.46 165.81,161.41 C 165.76,161.31 165.76,161.18 165.75,161.06 C 165.73,160.75 165.73,160.46 165.72,160.16 C 165.72,160.03 165.71,159.91 165.72,159.78 C 165.73,159.5 165.78,159.23 165.81,158.94 C 165.84,158.7 165.87,158.43 165.97,158.22 C 166.06,158.03 166.21,157.86 166.34,157.69 C 166.65,157.29 166.84,156.85 167.06,156.41 C 167.26,156.01 167.5,155.61 167.66,155.19 C 167.74,154.97 167.81,154.76 167.84,154.53 C 167.86,154.43 167.85,154.32 167.88,154.22 C 167.91,154.04 168.0,153.86 168.06,153.69 C 168.09,153.6 168.12,153.53 168.09,153.44 C 168.07,153.36 168.01,153.26 167.94,153.25 C 167.88,153.24 167.8,153.27 167.75,153.31 C 167.69,153.36 167.68,153.43 167.63,153.47 C 167.49,153.58 167.27,153.58 167.06,153.59 C 166.97,153.6 166.88,153.6 166.81,153.56 C 166.76,153.53 166.72,153.47 166.69,153.41 C 166.62,153.24 166.59,153.06 166.53,152.91 C 166.45,152.7 166.28,152.51 166.13,152.34 C 165.99,152.2 165.86,152.09 165.75,151.94 C 165.62,151.75 165.54,151.5 165.47,151.28 C 165.37,150.99 165.27,150.72 165.16,150.44 C 165.05,150.18 164.92,149.91 164.78,149.66 C 164.64,149.4 164.51,149.13 164.34,148.91 C 164.28,148.82 164.19,148.74 164.09,148.66 C 164.07,148.63 164.06,148.62 164.06,148.59 C 164.06,148.56 164.09,148.53 164.13,148.5 C 164.19,148.46 164.24,148.42 164.31,148.44 C 164.35,148.44 164.38,148.48 164.41,148.5 C 164.46,148.54 164.48,148.61 164.5,148.69 C 164.53,148.8 164.58,148.92 164.66,149.0 C 164.75,149.11 164.89,149.18 165.0,149.28 C 165.13,149.4 165.24,149.53 165.31,149.69 C 165.4,149.89 165.42,150.12 165.47,150.34 C 165.51,150.51 165.58,150.7 165.69,150.81 C 165.84,150.97 166.09,151.02 166.28,151.16 C 166.49,151.3 166.66,151.53 166.75,151.75 C 166.82,151.93 166.84,152.11 166.88,152.34 C 166.92,152.61 166.95,152.94 167.09,152.97 C 167.22,152.99 167.41,152.79 167.56,152.63 C 167.69,152.49 167.78,152.38 167.91,152.28 C 167.96,152.24 168.04,152.21 168.09,152.16 C 168.16,152.09 168.19,151.99 168.25,151.91 C 168.29,151.85 168.33,151.79 168.34,151.72 C 168.36,151.65 168.37,151.58 168.41,151.53 C 168.44,151.49 168.51,151.5 168.56,151.47 C 168.64,151.42 168.66,151.34 168.72,151.28 C 168.77,151.22 168.86,151.18 168.91,151.13 C 168.97,151.05 169.0,150.92 169.03,150.81 C 169.08,150.67 169.17,150.55 169.19,150.41 C 169.2,150.33 169.18,150.26 169.19,150.19 C 169.2,150.1 169.24,150.02 169.25,149.94 C 169.27,149.81 169.2,149.66 169.09,149.56 C 168.95,149.44 168.73,149.39 168.59,149.25 C 168.48,149.13 168.43,148.95 168.31,149.0 C 168.27,149.02 168.25,149.07 168.22,149.06 C 168.17,149.05 168.13,148.94 168.09,148.88 C 168.04,148.79 167.97,148.79 167.88,148.75 C 167.76,148.71 167.63,148.65 167.53,148.66 C 167.44,148.66 167.39,148.71 167.31,148.81 C 167.27,148.87 167.22,148.93 167.19,148.94 C 167.14,148.95 167.1,148.8 167.06,148.69 C 167.0,148.47 166.94,148.37 166.84,148.22 C 166.73,148.04 166.56,147.8 166.53,147.59 C 166.52,147.53 166.52,147.48 166.56,147.44 C 166.59,147.41 166.65,147.41 166.69,147.41 z M 131.41,148.13 C 131.46,148.1 131.51,148.1 131.56,148.13 C 131.6,148.14 131.64,148.18 131.66,148.22 C 131.69,148.3 131.67,148.38 131.66,148.47 C 131.63,148.62 131.64,148.79 131.63,148.94 C 131.62,149.01 131.59,149.08 131.59,149.16 C 131.6,149.29 131.69,149.41 131.75,149.53 C 131.83,149.69 131.9,149.84 131.97,150.0 C 132.07,150.23 132.15,150.44 132.19,150.69 C 132.21,150.85 132.21,151.03 132.25,151.19 C 132.29,151.34 132.38,151.47 132.47,151.59 C 132.62,151.8 132.82,151.98 133.03,152.13 C 133.21,152.25 133.38,152.36 133.56,152.47 C 133.66,152.53 133.75,152.61 133.84,152.69 C 133.92,152.75 134.0,152.83 134.09,152.84 C 134.13,152.85 134.18,152.82 134.22,152.81 C 134.28,152.8 134.32,152.8 134.38,152.81 C 134.43,152.82 134.49,152.86 134.53,152.91 C 134.61,152.99 134.67,153.06 134.72,153.16 C 134.78,153.27 134.85,153.4 134.94,153.5 C 135.11,153.7 135.33,153.84 135.53,154.0 C 135.63,154.08 135.72,154.19 135.81,154.28 C 135.87,154.34 135.93,154.39 135.97,154.47 C 136.0,154.54 136.03,154.62 136.06,154.69 C 136.1,154.78 136.17,154.85 136.22,154.94 C 136.26,155.0 136.29,155.08 136.31,155.16 C 136.35,155.28 136.37,155.43 136.44,155.53 C 136.51,155.64 136.65,155.71 136.78,155.78 C 136.92,155.86 137.06,155.92 137.22,155.91 C 137.28,155.9 137.34,155.89 137.38,155.84 C 137.41,155.81 137.42,155.74 137.44,155.69 C 137.46,155.63 137.49,155.59 137.53,155.56 C 137.57,155.54 137.61,155.53 137.66,155.53 C 137.73,155.54 137.81,155.56 137.88,155.59 C 137.91,155.61 137.95,155.65 137.97,155.69 C 137.98,155.72 137.98,155.74 137.97,155.78 C 137.94,155.87 137.88,155.94 137.81,156.0 C 137.75,156.05 137.68,156.1 137.63,156.16 C 137.6,156.19 137.58,156.21 137.56,156.25 C 137.54,156.31 137.54,156.37 137.53,156.44 C 137.53,156.48 137.52,156.52 137.5,156.56 C 137.47,156.63 137.41,156.69 137.38,156.75 C 137.33,156.82 137.31,156.89 137.31,156.97 C 137.31,157.12 137.37,157.24 137.44,157.38 C 137.49,157.47 137.56,157.59 137.59,157.69 C 137.63,157.78 137.64,157.85 137.63,157.94 C 137.6,158.04 137.51,158.15 137.47,158.25 C 137.42,158.37 137.45,158.52 137.44,158.66 C 137.43,158.77 137.38,158.86 137.41,158.97 C 137.42,159.03 137.45,159.11 137.5,159.16 C 137.55,159.21 137.62,159.25 137.69,159.25 C 137.75,159.25 137.8,159.2 137.84,159.16 C 137.85,159.15 137.86,159.13 137.88,159.13 C 137.88,159.12 137.9,159.12 137.91,159.13 C 137.91,159.13 137.93,159.15 137.94,159.16 C 137.95,159.18 137.94,159.19 137.94,159.22 C 137.94,159.26 137.92,159.3 137.91,159.34 C 137.9,159.38 137.89,159.4 137.88,159.44 C 137.87,159.46 137.84,159.51 137.84,159.53 C 137.84,159.56 137.86,159.6 137.88,159.63 C 137.9,159.66 137.95,159.68 137.97,159.72 C 137.98,159.75 137.99,159.81 138.0,159.84 C 138.02,159.9 138.05,159.93 138.09,159.97 C 138.18,160.04 138.29,160.09 138.38,160.16 C 138.53,160.28 138.65,160.44 138.78,160.59 C 139.03,160.9 139.24,161.22 139.5,161.5 C 139.7,161.72 139.95,161.92 140.19,162.09 C 140.37,162.22 140.56,162.32 140.75,162.44 C 140.81,162.48 140.88,162.52 140.94,162.56 C 140.97,162.58 141.01,162.63 141.03,162.66 C 141.06,162.69 141.07,162.71 141.09,162.75 C 141.27,163.1 141.42,163.47 141.53,163.84 C 141.65,164.26 141.71,164.68 141.84,165.09 C 141.95,165.4 142.11,165.69 142.22,166.0 C 142.39,166.48 142.49,166.99 142.66,167.47 C 142.8,167.89 142.99,168.3 143.16,168.72 C 143.24,168.94 143.33,169.16 143.47,169.34 C 143.56,169.46 143.68,169.57 143.78,169.69 C 143.89,169.81 143.97,169.92 144.03,170.06 C 144.12,170.26 144.17,170.47 144.25,170.69 C 144.28,170.76 144.29,170.84 144.28,170.91 C 144.28,170.94 144.27,170.97 144.25,171.0 C 144.22,171.05 144.19,171.11 144.19,171.16 C 144.18,171.21 144.21,171.26 144.25,171.31 C 144.34,171.44 144.4,171.54 144.47,171.66 C 144.51,171.73 144.58,171.83 144.63,171.91 C 144.69,172.03 144.72,172.15 144.81,172.25 C 144.86,172.29 144.92,172.33 144.97,172.38 C 144.99,172.39 145.02,172.42 145.03,172.44 C 145.04,172.45 145.06,172.45 145.06,172.47 C 145.07,172.5 145.05,172.54 145.03,172.56 C 145.01,172.58 144.97,172.6 144.94,172.59 C 144.87,172.59 144.8,172.58 144.75,172.56 C 144.21,172.42 143.64,172.24 143.06,172.03 C 142.02,171.65 141.06,171.17 140.13,170.63 C 139.23,170.1 138.37,169.5 137.56,168.84 C 136.71,168.15 135.91,167.39 135.19,166.56 C 134.38,165.64 133.66,164.65 133.03,163.59 C 132.14,162.08 131.43,160.44 130.97,158.75 C 130.62,157.47 130.4,156.17 130.31,154.84 C 130.23,153.71 130.27,152.57 130.41,151.44 C 130.45,151.04 130.48,150.64 130.56,150.25 C 130.59,150.11 130.63,149.98 130.66,149.84 C 130.67,149.79 130.67,149.73 130.72,149.69 C 130.73,149.68 130.74,149.66 130.75,149.66 C 130.76,149.66 130.77,149.68 130.78,149.69 C 130.81,149.73 130.81,149.77 130.81,149.81 C 130.82,149.9 130.86,149.97 130.88,150.06 C 130.89,150.14 130.91,150.24 130.94,150.31 C 130.96,150.36 130.97,150.41 131.0,150.44 C 131.04,150.47 131.1,150.49 131.16,150.5 C 131.27,150.52 131.39,150.54 131.47,150.47 C 131.51,150.44 131.56,150.36 131.56,150.31 C 131.57,150.23 131.51,150.17 131.47,150.09 C 131.41,149.98 131.37,149.87 131.34,149.75 C 131.31,149.61 131.3,149.45 131.28,149.31 C 131.25,149.09 131.23,148.88 131.22,148.66 C 131.21,148.52 131.22,148.37 131.28,148.25 C 131.31,148.2 131.35,148.15 131.41,148.13 z M 136.59,148.44 C 136.7,148.44 136.82,148.47 136.94,148.47 C 137.06,148.47 137.16,148.44 137.25,148.47 C 137.3,148.49 137.36,148.5 137.41,148.53 C 137.46,148.57 137.5,148.6 137.56,148.59 C 137.63,148.59 137.71,148.55 137.78,148.56 C 137.85,148.57 137.92,148.63 137.94,148.69 C 137.96,148.75 137.91,148.8 137.88,148.88 C 137.84,148.95 137.81,149.02 137.81,149.09 C 137.81,149.16 137.85,149.22 137.88,149.28 C 137.9,149.34 137.9,149.41 137.91,149.47 C 137.92,149.54 137.9,149.61 137.94,149.72 C 137.97,149.81 138.04,149.93 138.0,149.97 C 137.98,149.99 137.93,149.97 137.88,149.97 C 137.71,149.95 137.6,149.97 137.5,150.0 C 137.35,150.04 137.2,150.1 137.03,150.16 C 136.87,150.21 136.7,150.25 136.53,150.31 C 136.47,150.33 136.4,150.35 136.34,150.34 C 136.3,150.34 136.26,150.34 136.22,150.31 C 136.16,150.28 136.12,150.23 136.06,150.22 C 136.01,150.21 135.96,150.24 135.91,150.25 C 135.83,150.27 135.75,150.28 135.69,150.31 C 135.6,150.36 135.54,150.44 135.5,150.53 C 135.45,150.63 135.44,150.74 135.38,150.81 C 135.3,150.9 135.15,150.92 135.03,150.94 C 134.86,150.96 134.72,150.94 134.53,150.94 C 134.42,150.93 134.3,150.92 134.25,150.84 C 134.22,150.8 134.22,150.73 134.22,150.66 C 134.21,150.57 134.19,150.51 134.16,150.44 C 134.14,150.39 134.11,150.33 134.09,150.28 C 134.03,150.12 133.95,149.95 133.94,149.78 C 133.93,149.65 133.97,149.52 134.03,149.41 C 134.1,149.27 134.21,149.17 134.34,149.09 C 134.5,149.0 134.67,148.95 134.84,148.88 C 134.98,148.81 135.11,148.72 135.25,148.72 C 135.33,148.72 135.39,148.77 135.47,148.81 C 135.57,148.86 135.68,148.9 135.78,148.91 C 135.86,148.91 135.95,148.88 136.03,148.88 C 136.09,148.87 136.16,148.89 136.22,148.88 C 136.27,148.86 136.31,148.83 136.34,148.78 C 136.39,148.71 136.38,148.6 136.41,148.53 C 136.44,148.45 136.51,148.44 136.59,148.44 z"
		 />
		 <path style="fill:#f00;stroke:none;"
		 d="M 165.75,161.54 C 165.8,161.61 165.87,161.66 165.94,161.7 C 166.09,161.77 166.24,161.83 166.4,161.9 C 166.55,161.97 167.01,161.74 166.87,162.03 C 166.86,162.05 166.85,162.06 166.84,162.08 C 166.83,162.11 166.81,162.15 166.79,162.18 C 166.73,162.29 166.68,162.4 166.58,162.49 C 166.53,162.54 166.48,162.55 166.41,162.55 C 166.35,162.56 166.29,162.55 166.23,162.59 C 166.12,162.68 166.1,163.22 166.1,163.32 C 166.09,163.35 166.09,163.37 166.09,163.4 C 166.06,163.76 165.76,163.26 165.6,163.18 C 165.44,163.09 164.83,163.19 165.1,162.95 C 165.11,162.94 165.13,162.93 165.14,162.92 C 165.16,162.9 165.18,162.89 165.2,162.87 C 165.39,162.7 165.56,162.54 165.65,162.28 C 165.72,162.03 165.74,161.79 165.75,161.54 z"
		 />

		<!-- Prism Reference -->
		<cam mingh:cam="--verb EditSelectAll --verb ZoomSelection --verb FileSave " /> 
	 </g>

</svg>
