<svg
   xmlns:xlink="http://www.w3.org/1999/xlink"
   xmlns:svg="http://www.w3.org/2000/svg"
   xmlns="http://www.w3.org/2000/svg"
   xmlns:mingh="http://www.minghworld.com"
   width="300px"
   height="300px" >
	
	 <g>
		
		<!-- Paths -->
		<path style="fill:none;stroke:#000;stroke-width:0.25px;"
		 d="M 144.16,124.09 C 143.93,124.11 143.72,124.16 143.5,124.22 C 141.71,124.67 140.44,126.25 140.41,128.09 C 140.38,129.93 141.61,131.56 143.38,132.06 C 143.48,132.09 143.48,132.25 143.38,132.28 C 142.51,132.54 141.68,132.64 140.78,132.56 C 140.74,132.56 140.71,132.53 140.69,132.5 C 140.45,132.09 139.92,131.94 139.5,132.16 C 139.08,132.37 138.91,132.88 139.09,133.31 C 139.11,133.35 139.11,133.37 139.09,133.41 C 138.22,134.81 136.85,135.86 135.28,136.38 C 135.24,136.39 135.22,136.4 135.19,136.38 C 134.81,136.1 134.3,136.15 134.0,136.5 C 133.7,136.86 133.73,137.4 134.06,137.72 C 134.09,137.75 134.1,137.77 134.09,137.81 C 133.84,139.44 133.0,140.92 131.75,142.0 C 131.72,142.03 131.69,142.04 131.66,142.03 C 131.21,141.92 130.76,142.16 130.63,142.59 C 130.49,143.03 130.7,143.49 131.13,143.66 C 131.16,143.67 131.18,143.71 131.19,143.75 C 131.58,145.37 131.41,147.08 130.66,148.56 C 130.65,148.58 130.62,148.58 130.63,148.59 C 130.79,153.19 132.85,157.53 136.28,160.59 C 136.4,160.7 136.34,160.89 136.19,160.91 C 132.88,161.26 130.17,163.73 129.56,167.0 C 128.95,170.27 130.57,173.57 133.53,175.09 C 136.49,176.62 140.1,176.02 142.41,173.63 C 144.72,171.23 145.19,167.59 143.56,164.69 C 143.49,164.55 143.6,164.4 143.75,164.44 C 146.37,165.04 149.08,165.01 151.69,164.34 C 151.84,164.3 151.99,164.46 151.91,164.59 C 150.21,167.5 150.63,171.2 152.97,173.63 C 155.31,176.05 158.97,176.62 161.94,175.03 C 164.91,173.44 166.47,170.07 165.75,166.78 C 165.03,163.49 162.24,161.08 158.88,160.88 C 158.72,160.87 158.63,160.67 158.75,160.56 C 162.17,157.5 164.19,153.15 164.34,148.56 L 164.34,146.69 C 164.34,146.04 164.33,145.4 164.47,144.75 C 164.61,144.12 164.95,143.44 165.44,143.0 C 165.97,142.51 166.48,142.53 167.13,142.63 C 167.73,142.71 168.43,142.84 169.06,142.69 C 169.7,142.53 170.18,142.03 170.41,141.44 C 170.64,140.82 170.63,140.13 170.31,139.53 C 170.01,138.96 169.51,138.57 168.91,138.38 C 167.81,138.02 166.18,138.2 165.13,138.56 C 163.84,139.01 162.95,139.79 162.25,140.94 C 161.59,142.02 161.21,143.3 161.09,144.56 C 161.03,145.2 161.03,145.83 161.03,146.47 L 161.03,148.41 C 161.03,148.5 160.94,148.56 160.84,148.56 C 156.46,148.56 152.07,148.56 147.69,148.56 C 147.61,148.55 147.61,148.45 147.69,148.44 C 148.66,148.25 149.48,147.45 149.47,146.41 C 149.45,145.37 148.6,144.57 147.63,144.41 C 147.45,144.37 147.47,144.12 147.66,144.13 C 148.76,144.14 149.8,143.34 149.88,142.19 C 149.95,141.03 149.01,140.15 147.91,140.03 C 147.72,140.01 147.76,139.73 147.94,139.72 C 149.04,139.65 149.99,138.78 149.97,137.63 C 149.95,136.47 148.95,135.66 147.84,135.63 C 147.66,135.62 147.66,135.37 147.84,135.34 C 148.94,135.19 149.83,134.22 149.72,133.06 C 149.6,131.91 148.51,131.18 147.41,131.25 C 147.31,131.26 147.27,131.13 147.34,131.06 C 148.66,129.78 148.93,127.76 148.03,126.16 C 147.24,124.75 145.72,123.97 144.16,124.09 z M 144.5,126.22 C 144.76,126.22 145.01,126.25 145.25,126.34 C 145.49,126.44 145.69,126.6 145.88,126.78 C 146.06,126.96 146.18,127.17 146.28,127.41 C 146.38,127.64 146.44,127.9 146.44,128.16 C 146.44,128.41 146.38,128.67 146.28,128.91 C 146.18,129.14 146.06,129.35 145.88,129.53 C 145.69,129.71 145.49,129.87 145.25,129.97 C 145.01,130.07 144.76,130.09 144.5,130.09 C 144.24,130.09 143.99,130.07 143.75,129.97 C 143.51,129.87 143.31,129.71 143.13,129.53 C 142.94,129.35 142.79,129.14 142.69,128.91 C 142.59,128.67 142.53,128.41 142.53,128.16 C 142.53,127.9 142.59,127.64 142.69,127.41 C 142.79,127.17 142.94,126.96 143.13,126.78 C 143.31,126.6 143.51,126.44 143.75,126.34 C 143.99,126.25 144.24,126.22 144.5,126.22 z M 145.31,154.25 C 145.47,154.25 145.63,154.28 145.78,154.31 C 146.22,154.41 146.62,154.65 146.94,154.97 C 147.13,155.16 147.28,155.38 147.41,155.63 C 147.44,155.69 147.53,155.69 147.56,155.63 C 147.69,155.38 147.87,155.16 148.06,154.97 C 148.38,154.65 148.78,154.41 149.22,154.31 C 149.83,154.17 150.5,154.28 151.03,154.66 C 151.53,155.01 151.89,155.57 152.0,156.16 C 152.13,156.89 151.86,157.69 151.47,158.34 C 150.97,159.17 150.28,159.81 149.59,160.47 C 148.94,161.1 148.31,161.72 147.63,162.31 C 147.56,162.37 147.44,162.37 147.38,162.31 C 146.69,161.72 146.03,161.1 145.38,160.47 C 144.69,159.81 143.99,159.17 143.5,158.34 C 143.11,157.69 142.87,156.89 143.0,156.16 C 143.11,155.57 143.44,155.01 143.94,154.66 C 144.34,154.38 144.83,154.24 145.31,154.25 z M 136.41,162.75 C 136.47,162.74 136.5,162.81 136.5,162.88 L 136.5,166.78 C 136.5,166.83 136.48,166.83 136.44,166.84 C 136.38,166.86 136.34,166.91 136.28,166.94 C 136.24,166.96 136.22,166.94 136.19,166.91 L 133.41,164.16 C 133.36,164.11 133.36,164.04 133.41,164.0 C 134.26,163.31 135.32,162.86 136.41,162.75 z M 137.56,162.75 C 138.65,162.86 139.68,163.31 140.53,164.0 C 140.58,164.04 140.61,164.11 140.56,164.16 L 137.78,166.91 C 137.75,166.94 137.73,166.96 137.69,166.94 C 137.63,166.91 137.56,166.86 137.5,166.84 C 137.46,166.83 137.44,166.83 137.44,166.78 L 137.44,162.88 C 137.44,162.81 137.5,162.74 137.56,162.75 z M 157.81,162.75 C 157.88,162.74 157.94,162.81 157.94,162.88 L 157.94,166.78 C 157.94,166.83 157.92,166.83 157.88,166.84 C 157.82,166.86 157.74,166.91 157.69,166.94 C 157.65,166.96 157.63,166.94 157.59,166.91 L 154.84,164.16 C 154.8,164.11 154.79,164.04 154.84,164.0 C 155.69,163.31 156.72,162.86 157.81,162.75 z M 159.0,162.75 C 160.09,162.86 161.12,163.31 161.97,164.0 C 162.02,164.04 162.01,164.11 161.97,164.16 L 159.22,166.91 C 159.19,166.94 159.13,166.96 159.09,166.94 C 159.04,166.91 159.0,166.86 158.94,166.84 C 158.89,166.83 158.88,166.83 158.88,166.78 L 158.88,162.88 C 158.88,162.81 158.94,162.74 159.0,162.75 z M 132.66,164.78 C 132.69,164.78 132.73,164.79 132.75,164.81 L 135.5,167.59 C 135.53,167.63 135.55,167.65 135.53,167.69 C 135.5,167.74 135.49,167.78 135.47,167.84 C 135.45,167.89 135.42,167.91 135.38,167.91 L 131.47,167.91 C 131.41,167.91 131.34,167.84 131.34,167.78 C 131.46,166.69 131.9,165.66 132.59,164.81 C 132.61,164.79 132.63,164.78 132.66,164.78 z M 141.28,164.78 C 141.31,164.78 141.36,164.79 141.38,164.81 C 142.06,165.66 142.48,166.69 142.59,167.78 C 142.6,167.84 142.56,167.91 142.5,167.91 L 138.59,167.91 C 138.55,167.91 138.51,167.89 138.5,167.84 C 138.48,167.78 138.47,167.74 138.44,167.69 C 138.42,167.65 138.41,167.63 138.44,167.59 L 141.22,164.81 C 141.24,164.79 141.25,164.78 141.28,164.78 z M 154.09,164.78 C 154.12,164.78 154.13,164.79 154.16,164.81 L 156.94,167.59 C 156.97,167.63 156.96,167.65 156.94,167.69 C 156.91,167.74 156.9,167.78 156.88,167.84 C 156.86,167.89 156.83,167.91 156.78,167.91 L 152.88,167.91 C 152.81,167.91 152.77,167.84 152.78,167.78 C 152.9,166.69 153.31,165.66 154.0,164.81 C 154.02,164.79 154.06,164.78 154.09,164.78 z M 162.72,164.78 C 162.75,164.78 162.76,164.79 162.78,164.81 C 163.47,165.66 163.92,166.69 164.03,167.78 C 164.04,167.84 163.97,167.91 163.91,167.91 L 160.0,167.91 C 159.95,167.91 159.95,167.89 159.94,167.84 C 159.92,167.78 159.87,167.74 159.84,167.69 C 159.82,167.65 159.84,167.63 159.88,167.59 L 162.63,164.81 C 162.65,164.79 162.69,164.78 162.72,164.78 z M 136.97,167.56 C 137.43,167.56 137.81,167.92 137.81,168.38 C 137.81,168.83 137.43,169.22 136.97,169.22 C 136.51,169.22 136.16,168.83 136.16,168.38 C 136.16,167.92 136.51,167.56 136.97,167.56 z M 158.41,167.56 C 158.86,167.56 159.22,167.92 159.22,168.38 C 159.22,168.83 158.86,169.22 158.41,169.22 C 157.95,169.22 157.56,168.83 157.56,168.38 C 157.56,167.92 157.95,167.56 158.41,167.56 z M 131.47,168.84 L 135.38,168.84 C 135.42,168.84 135.45,168.86 135.47,168.91 C 135.49,168.97 135.5,169.04 135.53,169.09 C 135.55,169.13 135.53,169.16 135.5,169.19 L 132.75,171.94 C 132.71,171.98 132.63,171.99 132.59,171.94 C 131.9,171.09 131.46,170.06 131.34,168.97 C 131.34,168.91 131.41,168.84 131.47,168.84 z M 138.59,168.84 L 142.5,168.84 C 142.56,168.84 142.6,168.91 142.59,168.97 C 142.48,170.06 142.06,171.09 141.38,171.94 C 141.34,171.99 141.26,171.98 141.22,171.94 L 138.44,169.19 C 138.41,169.16 138.42,169.13 138.44,169.09 C 138.47,169.04 138.48,168.97 138.5,168.91 C 138.51,168.86 138.55,168.84 138.59,168.84 z M 152.88,168.84 L 156.78,168.84 C 156.83,168.84 156.86,168.86 156.88,168.91 C 156.9,168.97 156.91,169.04 156.94,169.09 C 156.96,169.13 156.97,169.16 156.94,169.19 L 154.16,171.94 C 154.11,171.98 154.04,171.99 154.0,171.94 C 153.31,171.09 152.89,170.06 152.78,168.97 C 152.77,168.91 152.81,168.84 152.88,168.84 z M 160.0,168.84 L 163.91,168.84 C 163.97,168.84 164.04,168.91 164.03,168.97 C 163.92,170.06 163.47,171.09 162.78,171.94 C 162.74,171.99 162.67,171.98 162.63,171.94 L 159.88,169.19 C 159.84,169.16 159.82,169.13 159.84,169.09 C 159.87,169.04 159.92,168.97 159.94,168.91 C 159.95,168.86 159.95,168.84 160.0,168.84 z M 136.19,169.84 C 136.22,169.81 136.24,169.82 136.28,169.84 C 136.34,169.87 136.38,169.89 136.44,169.91 C 136.48,169.92 136.5,169.95 136.5,170.0 L 136.5,173.91 C 136.5,173.97 136.47,174.01 136.41,174.0 C 135.32,173.89 134.26,173.47 133.41,172.78 C 133.36,172.74 133.36,172.67 133.41,172.63 L 136.19,169.84 z M 137.69,169.84 C 137.73,169.82 137.75,169.81 137.78,169.84 L 140.56,172.63 C 140.61,172.67 140.58,172.74 140.53,172.78 C 139.68,173.47 138.65,173.89 137.56,174.0 C 137.5,174.01 137.44,173.97 137.44,173.91 L 137.44,170.0 C 137.44,169.95 137.46,169.92 137.5,169.91 C 137.56,169.89 137.63,169.87 137.69,169.84 z M 157.59,169.84 C 157.63,169.81 157.65,169.82 157.69,169.84 C 157.74,169.87 157.82,169.89 157.88,169.91 C 157.92,169.92 157.94,169.95 157.94,170.0 L 157.94,173.91 C 157.94,173.97 157.88,174.01 157.81,174.0 C 156.72,173.89 155.69,173.47 154.84,172.78 C 154.79,172.74 154.8,172.67 154.84,172.63 L 157.59,169.84 z M 159.09,169.84 C 159.13,169.82 159.19,169.81 159.22,169.84 L 161.97,172.63 C 162.01,172.67 162.02,172.74 161.97,172.78 C 161.12,173.47 160.09,173.89 159.0,174.0 C 158.94,174.01 158.88,173.97 158.88,173.91 L 158.88,170.0 C 158.88,169.95 158.89,169.92 158.94,169.91 C 159.0,169.89 159.04,169.87 159.09,169.84 z"
		 />
		 <path style="fill:#f00;stroke:none;"
		 d="M 134.23,137.83 C 134.24,137.75 134.25,137.69 134.19,137.63 C 134.14,137.59 134.1,137.55 134.07,137.5 C 133.99,137.39 133.94,137.27 133.93,137.14 C 133.91,136.88 134.02,136.63 134.23,136.48 C 134.45,136.32 134.73,136.29 134.98,136.4 C 135.03,136.42 135.08,136.46 135.13,136.49 C 135.21,136.55 135.23,136.56 135.32,136.53 C 135.34,136.52 135.35,136.51 135.37,136.51 C 135.39,136.5 135.4,136.52 135.41,136.53 C 135.43,136.54 135.44,136.56 135.46,136.57 C 135.49,136.6 135.53,136.62 135.56,136.65 C 135.69,136.75 135.83,136.86 135.96,136.96 C 136.22,137.17 136.49,137.39 136.75,137.6 C 137.92,138.56 139.04,139.57 140.12,140.62 C 142.3,142.74 144.28,144.99 146.1,147.42 C 146.32,147.73 146.55,148.04 146.77,148.35 C 146.8,148.39 146.83,148.43 146.86,148.47 C 146.87,148.49 146.89,148.51 146.9,148.53 C 146.91,148.54 146.91,148.55 146.92,148.56 C 146.92,148.56 146.93,148.57 146.93,148.57 C 146.93,148.58 146.92,148.56 146.92,148.56 C 146.86,148.49 146.8,148.42 146.74,148.35 C 146.61,148.21 146.49,148.07 146.36,147.93 C 145.86,147.37 145.34,146.83 144.82,146.29 C 143.76,145.21 142.66,144.18 141.52,143.19 C 139.23,141.2 136.81,139.43 134.23,137.83 z M 139.2,133.48 C 139.24,133.42 139.27,133.37 139.23,133.29 C 139.2,133.23 139.19,133.17 139.17,133.11 C 139.14,132.97 139.15,132.85 139.19,132.72 C 139.27,132.47 139.48,132.28 139.73,132.22 C 140.0,132.15 140.28,132.24 140.47,132.44 C 140.51,132.48 140.55,132.53 140.58,132.59 C 140.62,132.68 140.64,132.68 140.74,132.69 C 140.76,132.69 140.78,132.69 140.8,132.7 C 140.81,132.7 140.82,132.73 140.82,132.74 C 140.83,132.75 140.84,132.77 140.85,132.79 C 140.88,132.83 140.9,132.87 140.92,132.9 C 141.0,133.05 141.09,133.2 141.17,133.36 C 141.34,133.66 141.5,133.96 141.66,134.26 C 142.39,135.63 143.05,137.01 143.66,138.43 C 144.88,141.27 145.85,144.16 146.6,147.17 C 146.69,147.55 146.78,147.93 146.87,148.31 C 146.88,148.35 146.89,148.4 146.9,148.45 C 146.91,148.47 146.91,148.5 146.92,148.52 C 146.92,148.53 146.93,148.54 146.93,148.56 C 146.93,148.56 146.94,148.58 146.93,148.57 C 146.93,148.57 146.93,148.56 146.93,148.56 C 146.9,148.46 146.87,148.37 146.83,148.28 C 146.77,148.1 146.71,147.92 146.65,147.74 C 146.39,147.02 146.13,146.3 145.84,145.59 C 145.28,144.16 144.65,142.76 143.96,141.38 C 142.59,138.61 141.0,135.99 139.2,133.48 z M 152.22,164.08 C 152.14,164.04 152.02,164.1 151.96,164.11 C 151.86,164.14 151.76,164.17 151.66,164.19 C 151.57,164.22 151.47,164.24 151.37,164.27 C 151.32,164.28 151.27,164.29 151.22,164.3 C 151.21,164.3 151.2,164.31 151.18,164.31 C 151.18,164.31 151.17,164.31 151.16,164.31 C 151.16,164.31 151.14,164.32 151.15,164.31 C 151.16,164.29 151.17,164.27 151.19,164.25 C 151.38,163.91 151.59,163.59 151.83,163.28 C 152.32,162.65 152.87,162.12 153.52,161.66 C 154.79,160.73 156.3,160.19 157.87,160.09 C 158.24,160.06 158.61,160.06 158.97,160.09 C 159.0,160.09 159.02,160.09 159.04,160.09 C 159.07,160.1 159.03,160.11 159.02,160.12 C 159.01,160.13 159.0,160.14 158.99,160.15 C 158.95,160.18 158.91,160.22 158.87,160.26 C 158.79,160.33 158.71,160.41 158.63,160.48 C 158.55,160.55 158.46,160.62 158.38,160.7 C 158.34,160.73 158.3,160.76 158.27,160.8 C 158.27,160.81 158.26,160.82 158.26,160.83 C 158.26,160.84 158.27,160.85 158.25,160.85 C 158.23,160.85 158.21,160.85 158.19,160.85 C 157.39,160.88 156.64,161.02 155.89,161.28 C 154.4,161.81 153.12,162.79 152.22,164.08 z M 136.75,160.86 C 136.73,160.78 136.59,160.67 136.54,160.63 C 136.45,160.56 136.37,160.48 136.28,160.4 C 136.2,160.33 136.11,160.25 136.03,160.17 C 136.02,160.16 136.01,160.15 136.0,160.14 C 136.0,160.14 135.98,160.13 135.99,160.13 C 135.99,160.13 136.0,160.13 136.01,160.13 C 136.03,160.12 136.06,160.12 136.08,160.12 C 136.13,160.11 136.18,160.11 136.23,160.1 C 136.61,160.07 136.99,160.06 137.38,160.08 C 138.21,160.12 139.0,160.27 139.78,160.56 C 141.34,161.11 142.69,162.12 143.67,163.45 C 143.79,163.61 143.91,163.78 144.02,163.96 C 144.07,164.04 144.13,164.13 144.18,164.22 C 144.2,164.26 144.23,164.31 144.25,164.35 C 144.26,164.37 144.3,164.41 144.27,164.4 C 144.24,164.4 144.21,164.39 144.19,164.39 C 143.98,164.35 143.77,164.3 143.56,164.25 C 143.5,164.24 143.33,164.18 143.26,164.2 C 143.26,164.2 143.25,164.21 143.24,164.2 C 143.23,164.19 143.23,164.18 143.22,164.17 C 143.21,164.15 143.19,164.13 143.18,164.11 C 143.15,164.07 143.13,164.03 143.1,164.0 C 142.61,163.31 142.05,162.75 141.37,162.26 C 140.03,161.3 138.4,160.81 136.75,160.86 z M 147.55,148.62 C 146.89,148.81 146.24,148.85 145.57,148.86 C 144.82,148.86 144.06,148.86 143.31,148.86 C 141.89,148.86 140.47,148.86 139.05,148.86 C 137.63,148.86 136.21,148.86 134.79,148.86 C 134.09,148.86 133.39,148.86 132.69,148.86 C 132.34,148.86 131.99,148.86 131.64,148.86 C 131.47,148.86 131.29,148.86 131.12,148.86 C 131.03,148.86 130.94,148.86 130.86,148.86 C 130.85,148.86 130.83,148.86 130.82,148.86 C 130.82,148.86 130.81,148.86 130.81,148.86 C 130.8,148.86 130.79,148.86 130.79,148.85 C 130.79,148.83 130.79,148.8 130.79,148.77 C 130.79,148.74 130.79,148.72 130.79,148.69 C 130.78,148.67 130.78,148.66 130.78,148.65 C 130.78,148.63 130.77,148.62 130.78,148.6 C 130.83,148.5 130.88,148.4 130.93,148.29 C 130.93,148.28 130.98,148.29 130.99,148.29 C 131.01,148.29 131.04,148.29 131.06,148.29 C 131.1,148.29 131.14,148.29 131.19,148.29 C 131.36,148.29 131.54,148.29 131.71,148.29 C 132.06,148.29 132.41,148.29 132.75,148.29 C 133.45,148.29 134.15,148.29 134.84,148.29 C 136.26,148.29 137.68,148.29 139.1,148.29 C 140.52,148.29 141.94,148.29 143.36,148.29 C 143.77,148.29 144.19,148.29 144.6,148.29 C 144.9,148.29 145.19,148.28 145.49,148.29 C 145.74,148.3 145.99,148.33 146.23,148.39 C 146.41,148.43 146.58,148.47 146.76,148.52 C 146.81,148.54 146.87,148.55 146.92,148.57 C 146.96,148.58 147.0,148.57 147.03,148.57 C 147.07,148.57 147.11,148.57 147.15,148.57 C 147.23,148.57 147.31,148.57 147.38,148.57 C 147.42,148.57 147.46,148.57 147.5,148.57 C 147.52,148.57 147.54,148.56 147.54,148.59 C 147.54,148.6 147.54,148.61 147.55,148.62 z M 147.12,131.38 C 147.55,134.47 147.74,137.55 147.67,140.67 C 147.63,142.22 147.53,143.77 147.37,145.31 C 147.29,146.09 147.19,146.86 147.08,147.63 C 147.05,147.83 147.02,148.02 146.99,148.21 C 146.97,148.31 146.96,148.41 146.94,148.51 C 146.94,148.52 146.94,148.53 146.94,148.54 C 146.94,148.55 146.93,148.59 146.93,148.57 C 146.93,148.54 146.94,148.52 146.94,148.5 C 146.94,148.45 146.94,148.4 146.94,148.35 C 146.97,147.97 146.98,147.59 147.0,147.2 C 147.11,144.08 146.95,141.01 146.54,137.91 C 146.34,136.37 146.07,134.85 145.74,133.33 C 145.62,132.77 145.5,132.22 145.36,131.67 C 145.35,131.61 145.33,131.54 145.32,131.48 C 145.32,131.44 145.33,131.41 145.33,131.38 C 145.33,131.31 145.35,131.25 145.37,131.18 C 145.46,130.91 145.67,130.7 145.94,130.61 C 146.49,130.43 147.07,130.81 147.12,131.38 z M 131.25,149.36 C 138.35,149.36 145.46,149.36 152.56,149.36 C 156.11,149.36 159.67,149.36 163.22,149.36 C 163.33,149.36 163.44,149.36 163.56,149.36 C 163.59,149.36 163.62,149.36 163.64,149.36 C 163.66,149.36 163.67,149.36 163.69,149.36 C 163.7,149.36 163.72,149.35 163.72,149.37 C 163.72,149.42 163.72,149.47 163.72,149.52 C 163.71,149.73 163.71,149.94 163.69,150.15 C 163.64,150.58 163.54,150.96 163.31,151.34 C 162.86,152.07 161.94,152.48 161.09,152.27 C 160.28,152.07 159.63,151.28 159.47,150.49 C 159.44,150.39 159.43,150.29 159.42,150.18 C 159.42,150.13 159.41,150.08 159.41,150.02 C 159.41,150.02 159.41,150.01 159.41,150.0 C 159.41,150.0 159.41,149.99 159.41,150.0 C 159.41,150.0 159.41,150.0 159.41,150.01 C 159.41,150.02 159.41,150.04 159.41,150.05 C 159.41,150.08 159.41,150.11 159.41,150.14 C 159.39,150.39 159.34,150.63 159.25,150.87 C 159.05,151.37 158.68,151.8 158.21,152.06 C 157.44,152.51 156.48,152.48 155.73,152.0 C 155.33,151.74 155.02,151.37 154.84,150.94 C 154.75,150.74 154.69,150.53 154.66,150.31 C 154.65,150.21 154.64,150.11 154.64,150.01 C 154.64,150.0 154.64,150.0 154.64,150.0 C 154.64,149.99 154.64,150.0 154.64,150.0 C 154.64,150.01 154.64,150.02 154.64,150.02 C 154.64,150.03 154.64,150.05 154.64,150.06 C 154.64,150.09 154.64,150.11 154.64,150.14 C 154.63,150.19 154.63,150.24 154.62,150.29 C 154.51,151.22 153.86,152.0 152.96,152.27 C 152.1,152.54 151.16,152.3 150.54,151.65 C 150.22,151.32 150.0,150.91 149.91,150.46 C 149.89,150.35 149.88,150.25 149.87,150.14 C 149.87,150.12 149.87,150.09 149.87,150.07 C 149.87,150.05 149.87,150.04 149.87,150.03 C 149.87,150.02 149.87,149.98 149.87,150.0 C 149.87,150.05 149.87,150.1 149.86,150.15 C 149.85,150.37 149.81,150.58 149.74,150.78 C 149.43,151.67 148.63,152.29 147.7,152.37 C 146.78,152.45 145.9,152.01 145.43,151.22 C 145.32,151.02 145.23,150.82 145.17,150.59 C 145.15,150.49 145.13,150.39 145.11,150.28 C 145.11,150.23 145.1,150.18 145.1,150.12 C 145.1,150.1 145.1,150.07 145.1,150.05 C 145.1,150.04 145.1,150.02 145.1,150.01 C 145.1,150.01 145.1,149.99 145.1,150.0 C 145.1,150.0 145.1,150.01 145.1,150.02 C 145.09,150.48 144.98,150.87 144.73,151.26 C 144.25,152.04 143.37,152.47 142.45,152.37 C 141.53,152.27 140.74,151.63 140.45,150.75 C 140.38,150.54 140.34,150.34 140.33,150.12 C 140.33,150.09 140.33,150.07 140.32,150.04 C 140.32,150.03 140.32,150.02 140.32,150.01 C 140.32,150.0 140.32,150.0 140.32,150.0 C 140.32,149.99 140.32,150.0 140.32,150.0 C 140.32,150.01 140.32,150.02 140.32,150.02 C 140.32,150.07 140.32,150.12 140.32,150.17 C 140.31,150.28 140.29,150.38 140.27,150.49 C 140.18,150.94 139.96,151.35 139.63,151.67 C 139.0,152.31 138.06,152.54 137.21,152.27 C 136.7,152.1 136.25,151.77 135.96,151.32 C 135.81,151.1 135.7,150.87 135.63,150.61 C 135.6,150.49 135.58,150.37 135.57,150.25 C 135.56,150.19 135.56,150.13 135.55,150.07 C 135.55,150.06 135.55,150.04 135.55,150.03 C 135.55,150.02 135.55,149.99 135.55,150.0 C 135.55,150.03 135.55,150.05 135.55,150.08 C 135.52,150.92 135.03,151.73 134.28,152.12 C 133.51,152.52 132.51,152.3 131.93,151.69 C 131.29,151.03 131.25,150.17 131.25,149.36 z M 131.34,143.71 C 131.32,143.64 131.31,143.58 131.23,143.55 C 131.17,143.53 131.12,143.51 131.07,143.48 C 130.95,143.41 130.87,143.32 130.81,143.2 C 130.69,142.98 130.7,142.71 130.83,142.49 C 130.96,142.27 131.21,142.13 131.48,142.14 C 131.54,142.14 131.59,142.15 131.65,142.17 C 131.74,142.19 131.76,142.19 131.83,142.12 C 131.85,142.11 131.86,142.1 131.88,142.09 C 131.89,142.08 131.9,142.09 131.91,142.09 C 131.93,142.1 131.95,142.1 131.97,142.11 C 132.01,142.12 132.05,142.13 132.09,142.14 C 132.25,142.18 132.41,142.23 132.58,142.27 C 132.9,142.36 133.22,142.46 133.54,142.55 C 134.96,142.98 136.36,143.46 137.74,144.0 C 140.51,145.08 143.16,146.36 145.74,147.86 C 146.06,148.05 146.38,148.24 146.71,148.43 C 146.75,148.46 146.79,148.48 146.83,148.51 C 146.85,148.52 146.87,148.53 146.89,148.55 C 146.9,148.55 146.91,148.56 146.92,148.56 C 146.92,148.57 146.93,148.57 146.93,148.57 C 146.94,148.58 146.92,148.57 146.92,148.57 C 146.83,148.53 146.75,148.49 146.67,148.45 C 146.5,148.37 146.33,148.29 146.17,148.21 C 145.5,147.9 144.82,147.61 144.14,147.32 C 142.77,146.75 141.39,146.24 139.98,145.78 C 137.14,144.86 134.28,144.18 131.34,143.71 z"
		 />

		<!-- Prism Reference -->
		<cam mingh:cam="--verb EditSelectAll --verb ZoomSelection --verb FileSave" /> 
	 </g>

</svg>
