<svg
   xmlns:xlink="http://www.w3.org/1999/xlink"
   xmlns:svg="http://www.w3.org/2000/svg"
   xmlns="http://www.w3.org/2000/svg"
   xmlns:mingh="http://www.minghworld.com"
   width="300px"
   height="300px" >
	
	 <g>
		
		<!-- Paths -->
		<path style="fill:none;stroke:#000;stroke-width:0.25px;"
		 d="M 150.72,121.5 C 150.5,121.52 150.31,121.57 150.09,121.63 C 148.38,122.09 147.14,123.63 147.06,125.41 C 146.99,127.18 148.08,128.8 149.75,129.41 C 149.16,129.98 148.71,130.69 148.56,131.47 C 148.35,132.6 148.75,133.85 149.34,134.84 C 149.39,134.92 149.38,135.01 149.31,135.06 C 148.47,135.74 147.74,136.55 147.16,137.47 C 146.39,138.67 145.88,140.05 145.69,141.47 C 145.64,141.84 145.6,142.22 145.59,142.59 C 145.59,142.7 145.51,142.76 145.41,142.75 C 144.94,142.7 144.47,142.68 144.0,142.66 C 143.69,142.64 143.4,142.62 143.09,142.63 C 142.8,142.63 142.51,142.64 142.22,142.66 C 142.01,142.67 141.8,142.7 141.59,142.72 C 141.31,142.74 141.03,142.75 140.75,142.78 C 140.18,142.85 139.62,142.97 139.06,143.09 C 138.5,143.22 137.95,143.35 137.41,143.53 C 136.86,143.71 136.31,143.94 135.78,144.19 C 135.52,144.31 135.26,144.42 135.0,144.56 C 134.86,144.64 134.73,144.73 134.59,144.81 C 134.33,144.97 134.06,145.13 133.81,145.31 C 133.55,145.5 133.3,145.69 133.06,145.91 C 132.81,146.13 132.59,146.4 132.38,146.66 C 132.17,146.91 131.98,147.16 131.81,147.44 C 131.7,147.62 131.59,147.81 131.5,148.0 C 131.36,148.29 131.24,148.59 131.16,148.91 C 131.1,149.14 131.05,149.38 131.03,149.63 C 131.02,149.75 131.03,149.87 131.03,150.0 C 131.04,150.19 131.08,150.38 131.13,150.56 C 131.17,150.76 131.23,150.94 131.31,151.13 C 131.39,151.3 131.46,151.49 131.56,151.66 C 131.67,151.81 131.81,151.95 131.94,152.09 C 132.07,152.24 132.19,152.38 132.34,152.5 C 132.51,152.63 132.69,152.74 132.88,152.84 C 133.06,152.95 133.24,153.05 133.44,153.13 C 133.83,153.27 134.24,153.33 134.66,153.38 C 134.96,153.41 135.29,153.42 135.59,153.41 C 135.68,153.4 135.73,153.49 135.69,153.56 C 135.57,153.78 135.48,154.0 135.38,154.22 C 135.34,154.3 135.24,154.37 135.16,154.34 C 134.84,154.26 134.51,154.18 134.19,154.16 C 132.74,154.05 131.25,154.59 130.09,155.5 C 128.34,156.89 127.4,159.16 127.38,161.44 C 127.35,163.42 128.0,165.41 129.31,166.81 C 130.01,167.55 130.9,168.14 131.88,168.44 C 133.25,168.85 134.83,168.69 136.13,168.06 C 136.49,167.89 136.84,167.68 137.16,167.44 C 137.23,167.38 137.31,167.38 137.38,167.44 C 138.22,168.25 139.14,168.97 140.13,169.59 C 141.11,170.22 142.16,170.77 143.25,171.19 C 143.33,171.22 143.39,171.29 143.38,171.38 C 143.29,171.77 143.25,172.19 143.25,172.59 C 143.24,174.04 143.75,175.5 144.72,176.56 C 145.4,177.32 146.31,177.87 147.28,178.19 C 149.11,178.78 151.19,178.53 152.97,177.66 C 155.02,176.66 156.68,174.83 157.19,172.66 C 157.52,171.22 157.34,169.64 156.63,168.38 C 156.46,168.09 156.27,167.81 156.06,167.56 C 156.01,167.5 156.01,167.41 156.06,167.34 C 156.22,167.16 156.38,166.98 156.53,166.78 C 156.58,166.72 156.69,166.71 156.72,166.78 C 156.84,167.07 156.97,167.36 157.13,167.63 C 157.34,167.98 157.61,168.3 157.91,168.59 C 158.06,168.74 158.21,168.88 158.38,169.0 C 158.54,169.12 158.75,169.22 158.94,169.31 C 159.12,169.4 159.28,169.47 159.47,169.53 C 159.65,169.59 159.84,169.63 160.03,169.66 C 160.22,169.68 160.4,169.69 160.59,169.69 C 160.79,169.68 160.99,169.67 161.19,169.63 C 161.37,169.58 161.57,169.51 161.75,169.44 C 161.87,169.39 161.98,169.34 162.09,169.28 C 162.3,169.16 162.5,169.03 162.69,168.88 C 162.94,168.67 163.17,168.41 163.38,168.16 C 163.51,167.99 163.6,167.83 163.72,167.66 C 163.9,167.39 164.08,167.11 164.22,166.81 C 164.36,166.51 164.46,166.2 164.56,165.88 C 164.66,165.57 164.75,165.25 164.81,164.94 C 164.87,164.64 164.91,164.34 164.94,164.03 C 164.95,163.87 164.96,163.72 164.97,163.56 C 164.99,163.27 164.97,162.98 164.97,162.69 C 164.97,162.11 164.95,161.51 164.88,160.94 C 164.81,160.37 164.69,159.81 164.56,159.25 C 164.44,158.69 164.3,158.14 164.13,157.59 C 164.04,157.32 163.94,157.05 163.84,156.78 C 163.77,156.59 163.7,156.41 163.63,156.22 C 163.52,155.95 163.37,155.67 163.25,155.41 C 163.12,155.12 162.99,154.87 162.84,154.59 C 162.63,154.18 162.4,153.78 162.16,153.38 C 162.1,153.29 162.13,153.17 162.22,153.13 C 162.55,152.96 162.88,152.76 163.19,152.56 C 164.38,151.78 165.42,150.74 166.19,149.53 C 166.77,148.62 167.18,147.62 167.44,146.56 C 167.46,146.48 167.54,146.4 167.63,146.41 C 168.78,146.51 170.07,146.37 171.0,145.69 C 171.94,145.0 172.52,143.8 172.63,142.59 C 172.73,141.35 172.33,140.1 171.59,139.13 C 170.98,138.33 170.14,137.72 169.19,137.41 C 168.51,137.18 167.79,137.1 167.09,137.22 C 166.64,137.3 166.19,137.47 165.78,137.69 C 165.7,137.73 165.58,137.7 165.53,137.63 C 165.5,137.58 165.47,137.55 165.44,137.5 C 164.58,136.36 163.52,135.39 162.31,134.63 C 161.11,133.86 159.74,133.29 158.34,133.0 C 158.28,132.99 158.25,132.98 158.19,132.97 C 158.1,132.95 158.03,132.87 158.03,132.78 C 158.05,132.32 158.0,131.85 157.88,131.41 C 157.69,130.72 157.34,130.08 156.84,129.56 C 156.17,128.85 155.24,128.37 154.28,128.16 C 155.41,126.79 155.52,124.83 154.56,123.34 C 153.72,122.04 152.23,121.34 150.72,121.5 z M 151.16,123.63 C 152.23,123.63 153.09,124.49 153.09,125.56 C 153.09,126.64 152.23,127.5 151.16,127.5 C 150.08,127.5 149.19,126.64 149.19,125.56 C 149.19,124.49 150.08,123.63 151.16,123.63 z"
		 />
		 <path style="fill:#f00;stroke:none;"
		 d="M 148.46,165.83 C 147.2,166.28 146.05,167.03 145.14,168.03 C 144.64,168.58 144.22,169.2 143.9,169.86 C 142.85,169.48 141.86,168.97 140.92,168.37 C 139.97,167.78 139.09,167.09 138.29,166.31 C 138.76,165.74 139.14,165.09 139.42,164.41 C 139.93,163.16 140.12,161.8 139.99,160.47 C 141.24,161.57 142.6,162.58 144.02,163.48 C 145.44,164.38 146.93,165.17 148.46,165.83 z M 155.53,165.68 C 155.32,165.97 155.11,166.24 154.88,166.51 C 154.46,166.22 154.0,165.99 153.53,165.81 C 152.56,165.44 151.52,165.32 150.5,165.4 C 148.48,164.62 146.52,163.62 144.67,162.45 C 142.82,161.27 141.08,159.93 139.51,158.44 C 139.14,157.48 138.58,156.59 137.84,155.87 C 137.48,155.52 137.07,155.21 136.63,154.96 C 136.78,154.64 136.93,154.32 137.1,154.01 C 139.32,156.88 142.18,159.38 145.34,161.38 C 148.51,163.39 151.99,164.9 155.53,165.68 z M 140.34,152.95 C 140.23,152.97 140.11,153.01 139.99,153.08 C 139.88,153.15 139.78,153.25 139.7,153.37 C 139.62,153.49 139.56,153.63 139.53,153.78 C 139.51,153.92 139.5,154.06 139.52,154.2 C 139.54,154.34 139.58,154.47 139.64,154.6 C 139.71,154.73 139.8,154.85 139.91,154.94 C 140.01,155.03 140.14,155.09 140.26,155.12 C 140.38,155.15 140.5,155.15 140.61,155.12 C 140.73,155.1 140.84,155.05 140.94,154.97 C 141.05,154.9 141.15,154.79 141.23,154.67 C 141.31,154.55 141.36,154.41 141.39,154.27 C 141.42,154.14 141.42,154.0 141.41,153.87 C 141.39,153.74 141.36,153.62 141.3,153.5 C 141.24,153.38 141.15,153.26 141.05,153.17 C 140.95,153.08 140.82,153.02 140.7,152.98 C 140.58,152.95 140.45,152.94 140.34,152.95 z M 144.24,156.6 C 144.12,156.63 144.0,156.69 143.9,156.77 C 143.79,156.85 143.69,156.95 143.62,157.08 C 143.55,157.2 143.51,157.35 143.49,157.49 C 143.48,157.63 143.49,157.76 143.53,157.89 C 143.56,158.02 143.62,158.14 143.7,158.25 C 143.78,158.37 143.89,158.47 144.01,158.54 C 144.14,158.62 144.27,158.66 144.41,158.67 C 144.54,158.69 144.67,158.68 144.79,158.64 C 144.91,158.6 145.02,158.55 145.13,158.46 C 145.23,158.38 145.33,158.26 145.39,158.14 C 145.46,158.01 145.5,157.87 145.51,157.74 C 145.52,157.6 145.51,157.47 145.47,157.35 C 145.44,157.23 145.38,157.11 145.3,157.0 C 145.22,156.9 145.12,156.8 145.0,156.72 C 144.88,156.65 144.75,156.61 144.61,156.59 C 144.48,156.57 144.35,156.58 144.24,156.6 z M 148.73,159.6 C 148.61,159.64 148.5,159.71 148.4,159.8 C 148.29,159.89 148.21,160.01 148.15,160.13 C 148.09,160.26 148.05,160.41 148.05,160.54 C 148.05,160.67 148.07,160.8 148.12,160.92 C 148.16,161.03 148.23,161.14 148.32,161.24 C 148.42,161.34 148.54,161.42 148.67,161.47 C 148.81,161.53 148.96,161.55 149.1,161.55 C 149.24,161.55 149.37,161.52 149.49,161.47 C 149.62,161.42 149.73,161.35 149.83,161.26 C 149.93,161.16 150.02,161.04 150.08,160.91 C 150.13,160.78 150.16,160.64 150.15,160.51 C 150.15,160.38 150.12,160.26 150.07,160.14 C 150.02,160.03 149.95,159.92 149.86,159.83 C 149.76,159.74 149.64,159.66 149.51,159.6 C 149.38,159.55 149.24,159.53 149.11,159.53 C 148.97,159.53 148.84,159.55 148.73,159.6 z M 153.61,161.82 C 153.5,161.88 153.39,161.96 153.3,162.07 C 153.2,162.17 153.12,162.29 153.07,162.42 C 153.02,162.56 153.0,162.7 153.0,162.82 C 153.01,162.95 153.04,163.06 153.1,163.17 C 153.15,163.27 153.22,163.36 153.33,163.44 C 153.43,163.52 153.56,163.58 153.7,163.61 C 153.84,163.64 154.0,163.64 154.14,163.62 C 154.29,163.6 154.42,163.55 154.54,163.48 C 154.67,163.42 154.78,163.34 154.87,163.23 C 154.97,163.12 155.05,163.0 155.09,162.86 C 155.14,162.73 155.15,162.59 155.14,162.46 C 155.12,162.34 155.08,162.22 155.02,162.12 C 154.96,162.02 154.88,161.93 154.77,161.85 C 154.67,161.78 154.54,161.72 154.4,161.69 C 154.13,161.63 153.83,161.69 153.61,161.82 z M 156.58,163.97 C 156.46,164.22 156.32,164.47 156.18,164.71 C 156.09,164.85 156.0,165.0 155.9,165.14 C 152.36,164.35 148.87,162.84 145.7,160.83 C 142.52,158.82 139.66,156.31 137.43,153.44 C 137.52,153.3 137.61,153.15 137.71,153.01 C 137.86,152.78 138.03,152.55 138.2,152.33 C 139.52,152.12 141.03,152.0 142.53,151.92 C 142.25,153.22 142.16,154.67 142.18,156.19 C 143.52,155.88 144.91,155.59 146.22,155.28 C 146.25,156.6 146.38,158.03 146.56,159.46 C 147.93,159.01 149.28,158.52 150.48,157.98 C 150.77,159.3 151.1,160.68 151.39,162.02 C 152.77,161.39 154.05,160.69 155.11,159.88 C 155.67,161.27 156.2,162.68 156.58,163.97 z M 152.36,158.01 C 152.4,158.12 152.45,158.23 152.53,158.33 C 152.6,158.43 152.71,158.52 152.82,158.58 C 152.93,158.64 153.06,158.68 153.18,158.68 C 153.3,158.69 153.41,158.67 153.52,158.63 C 153.62,158.59 153.72,158.53 153.8,158.44 C 153.89,158.36 153.96,158.25 154.0,158.12 C 154.04,158.0 154.06,157.86 154.06,157.74 C 154.05,157.61 154.02,157.49 153.98,157.38 C 153.94,157.28 153.88,157.17 153.8,157.08 C 153.72,156.99 153.62,156.91 153.52,156.86 C 153.41,156.81 153.3,156.78 153.19,156.77 C 153.09,156.77 152.99,156.79 152.89,156.82 C 152.8,156.86 152.71,156.91 152.62,156.99 C 152.54,157.07 152.46,157.17 152.41,157.28 C 152.31,157.51 152.29,157.79 152.36,158.01 z M 148.11,155.67 C 148.12,155.78 148.15,155.9 148.2,156.01 C 148.26,156.12 148.34,156.22 148.45,156.3 C 148.55,156.38 148.67,156.44 148.79,156.47 C 148.91,156.5 149.02,156.51 149.14,156.49 C 149.25,156.47 149.36,156.44 149.46,156.38 C 149.56,156.31 149.66,156.23 149.73,156.13 C 149.8,156.02 149.85,155.91 149.88,155.79 C 149.9,155.68 149.9,155.57 149.89,155.46 C 149.87,155.35 149.84,155.25 149.78,155.15 C 149.73,155.05 149.65,154.96 149.56,154.89 C 149.47,154.82 149.36,154.76 149.25,154.73 C 149.15,154.7 149.04,154.7 148.93,154.71 C 148.83,154.72 148.72,154.74 148.62,154.8 C 148.51,154.85 148.41,154.92 148.33,155.02 C 148.25,155.11 148.18,155.22 148.15,155.33 C 148.11,155.45 148.1,155.57 148.11,155.67 z M 144.35,152.63 C 144.33,152.73 144.33,152.85 144.36,152.97 C 144.39,153.08 144.45,153.2 144.54,153.29 C 144.62,153.39 144.73,153.47 144.84,153.52 C 144.96,153.57 145.08,153.6 145.19,153.6 C 145.31,153.61 145.43,153.6 145.55,153.56 C 145.67,153.52 145.79,153.46 145.89,153.38 C 145.99,153.29 146.07,153.19 146.13,153.09 C 146.19,152.99 146.22,152.89 146.23,152.78 C 146.25,152.68 146.24,152.58 146.22,152.47 C 146.19,152.37 146.14,152.27 146.06,152.18 C 145.99,152.09 145.89,152.02 145.79,151.97 C 145.69,151.92 145.58,151.89 145.46,151.87 C 145.35,151.86 145.23,151.86 145.11,151.89 C 144.98,151.92 144.85,151.97 144.74,152.04 C 144.63,152.11 144.54,152.21 144.47,152.31 C 144.4,152.41 144.36,152.52 144.35,152.63 z M 157.74,156.82 C 157.77,157.22 157.8,157.61 157.81,158.0 C 157.78,157.99 157.76,157.98 157.74,157.97 C 157.68,157.96 157.62,157.95 157.57,157.95 C 157.51,157.95 157.46,157.95 157.41,157.96 C 157.36,157.97 157.31,157.99 157.26,158.01 C 157.22,158.04 157.18,158.06 157.14,158.09 C 157.06,158.16 156.99,158.24 156.93,158.35 C 156.87,158.45 156.82,158.58 156.8,158.72 C 156.75,158.99 156.8,159.29 156.91,159.5 C 156.97,159.61 157.04,159.71 157.14,159.8 C 157.23,159.89 157.34,159.96 157.46,160.0 C 157.53,160.02 157.59,160.03 157.65,160.03 C 157.68,160.04 157.7,160.04 157.74,160.04 C 157.7,160.34 157.66,160.64 157.6,160.94 C 157.52,161.38 157.41,161.82 157.28,162.24 C 156.73,160.89 156.08,159.48 155.45,158.14 C 154.57,158.98 153.47,159.72 152.22,160.37 C 151.85,159.03 151.48,157.7 151.19,156.47 C 150.11,157.01 148.86,157.48 147.54,157.92 C 147.37,156.53 147.26,155.2 147.29,154.0 C 146.05,154.26 144.68,154.49 143.32,154.74 C 143.38,153.32 143.57,152.01 143.95,150.86 C 142.47,150.87 140.92,150.88 139.46,150.96 L 139.46,150.96 C 139.79,150.66 140.14,150.38 140.5,150.11 C 140.75,149.93 141.0,149.76 141.26,149.6 C 141.28,149.63 141.29,149.66 141.3,149.68 C 141.33,149.73 141.37,149.79 141.41,149.83 C 141.46,149.88 141.5,149.92 141.56,149.95 C 141.61,149.99 141.66,150.02 141.72,150.04 C 141.78,150.06 141.83,150.08 141.89,150.09 C 142.01,150.12 142.14,150.13 142.27,150.11 C 142.41,150.09 142.55,150.05 142.68,149.99 C 142.8,149.93 142.92,149.85 143.01,149.76 C 143.1,149.67 143.17,149.58 143.21,149.48 C 143.26,149.38 143.29,149.28 143.29,149.18 C 143.3,149.07 143.27,148.96 143.22,148.86 C 143.2,148.81 143.17,148.77 143.13,148.72 C 143.11,148.7 143.09,148.69 143.07,148.66 C 143.43,148.51 143.8,148.36 144.17,148.23 L 144.17,148.23 C 147.03,152.88 152.31,156.22 157.74,156.82 z M 145.16,147.91 C 145.66,147.76 146.17,147.63 146.68,147.53 C 147.01,148.23 147.42,148.9 147.89,149.52 C 148.75,150.66 149.82,151.64 151.03,152.4 C 152.24,153.17 153.58,153.72 154.97,154.01 C 155.74,154.17 156.52,154.25 157.3,154.26 C 157.42,154.76 157.52,155.27 157.6,155.78 C 152.56,155.42 147.65,152.31 145.16,147.91 z M 151.12,146.56 C 151.02,146.17 150.48,146.16 150.36,146.54 C 150.31,146.69 150.39,146.9 150.44,147.03 C 150.49,147.19 150.55,147.35 150.62,147.51 C 150.89,148.12 151.27,148.62 151.74,149.09 C 152.16,149.5 152.62,149.82 153.14,150.09 C 153.79,150.43 154.58,150.65 155.31,150.68 C 155.65,150.7 155.98,150.67 156.31,150.62 C 156.49,150.59 156.63,150.56 156.71,150.37 C 156.78,150.21 156.74,150.03 156.62,149.92 C 156.47,149.78 156.32,149.81 156.15,149.84 C 155.98,149.87 155.82,149.88 155.65,149.89 C 155.31,149.9 154.99,149.87 154.66,149.79 C 154.31,149.72 153.99,149.61 153.67,149.46 C 153.63,149.44 153.59,149.42 153.55,149.4 C 153.53,149.39 153.51,149.38 153.49,149.37 C 153.48,149.37 153.47,149.36 153.46,149.36 C 153.45,149.36 153.43,149.36 153.44,149.34 C 153.48,149.27 153.53,149.2 153.57,149.14 C 153.66,149.0 153.74,148.86 153.83,148.72 C 154.01,148.44 154.18,148.17 154.36,147.89 C 154.45,147.75 154.53,147.61 154.62,147.47 C 154.63,147.46 154.64,147.44 154.65,147.42 C 154.66,147.41 154.67,147.38 154.69,147.38 C 154.72,147.4 154.76,147.41 154.79,147.42 C 154.87,147.44 154.95,147.46 155.03,147.47 C 155.37,147.52 155.68,147.45 156.01,147.36 C 156.27,147.28 156.69,147.13 156.93,146.99 C 157.23,146.81 157.45,146.55 157.43,146.18 C 157.41,145.83 157.12,145.56 156.88,145.38 C 156.61,145.17 156.32,145.02 156.04,144.85 C 155.75,144.68 155.49,144.48 155.21,144.3 C 154.92,144.12 154.65,143.95 154.3,143.91 C 153.94,143.87 153.63,144.06 153.49,144.39 C 153.35,144.72 153.38,145.04 153.42,145.37 C 153.45,145.71 153.5,146.04 153.62,146.37 C 153.69,146.54 153.77,146.69 153.89,146.82 C 153.91,146.86 153.94,146.89 153.97,146.91 C 153.98,146.93 153.99,146.94 154.01,146.95 C 154.02,146.96 154.0,146.97 154.0,146.98 C 153.99,146.99 153.99,146.99 153.98,147.0 C 153.94,147.07 153.89,147.14 153.85,147.21 C 153.68,147.48 153.5,147.75 153.33,148.03 C 153.16,148.3 152.99,148.56 152.82,148.83 C 152.81,148.85 152.8,148.87 152.79,148.88 C 152.78,148.9 152.78,148.93 152.75,148.91 C 152.72,148.89 152.69,148.86 152.65,148.84 C 152.59,148.78 152.52,148.73 152.46,148.67 C 152.33,148.56 152.21,148.44 152.1,148.32 C 151.62,147.8 151.3,147.24 151.12,146.56 z M 149.74,149.46 C 149.54,149.12 149.37,148.77 149.24,148.4 C 148.9,147.42 148.82,146.34 149.15,145.35 C 149.45,144.46 150.08,143.65 150.9,143.2 C 151.4,142.94 151.96,142.8 152.51,142.78 C 153.85,142.73 155.15,143.32 156.31,144.06 C 157.48,144.79 158.57,145.72 159.09,146.95 C 159.31,147.46 159.43,148.03 159.4,148.59 C 159.35,149.52 158.89,150.44 158.21,151.09 C 157.46,151.8 156.45,152.2 155.42,152.31 C 155.03,152.35 154.63,152.35 154.24,152.31 C 153.39,152.04 152.57,151.66 151.81,151.17 C 151.05,150.69 150.35,150.12 149.74,149.46 z M 153.84,137.89 C 153.05,138.05 152.54,138.82 152.7,139.61 C 152.86,140.4 153.63,140.91 154.42,140.75 C 155.21,140.59 155.72,139.82 155.56,139.03 C 155.4,138.24 154.63,137.73 153.84,137.89 z M 162.95,143.66 C 162.76,142.88 161.97,142.4 161.19,142.59 C 160.4,142.78 159.92,143.57 160.12,144.35 C 160.31,145.14 161.1,145.62 161.88,145.42 C 162.66,145.23 163.14,144.44 162.95,143.66 z M 156.89,152.79 C 157.02,152.74 157.15,152.69 157.28,152.63 C 157.58,152.5 157.86,152.35 158.13,152.17 C 158.39,151.99 158.64,151.78 158.87,151.55 C 159.08,151.33 159.27,151.1 159.44,150.85 C 159.6,150.59 159.75,150.32 159.86,150.04 C 159.98,149.76 160.07,149.47 160.13,149.17 C 160.19,148.84 160.21,148.51 160.19,148.17 C 160.17,147.81 160.1,147.45 160.0,147.11 C 159.88,146.73 159.71,146.36 159.51,146.02 C 159.29,145.66 159.03,145.32 158.74,145.0 C 158.46,144.7 158.15,144.42 157.82,144.16 C 157.5,143.9 157.16,143.67 156.79,143.43 C 156.76,143.41 156.73,143.4 156.71,143.38 C 156.31,143.13 155.94,142.91 155.55,142.72 C 155.19,142.54 154.81,142.39 154.42,142.26 C 154.02,142.14 153.6,142.05 153.17,142.01 C 152.78,141.97 152.38,141.98 151.98,142.03 C 151.63,142.08 151.27,142.18 150.94,142.31 C 150.63,142.44 150.33,142.6 150.06,142.8 C 149.82,142.98 149.59,143.18 149.39,143.41 C 149.18,143.63 149.0,143.88 148.85,144.14 C 148.69,144.4 148.56,144.67 148.45,144.95 C 148.34,145.25 148.26,145.57 148.21,145.89 C 148.16,146.21 148.14,146.53 148.15,146.85 C 148.15,146.99 148.16,147.13 148.18,147.27 C 147.86,146.68 147.6,146.04 147.42,145.39 C 147.08,144.2 146.97,142.95 147.13,141.72 C 147.28,140.49 147.71,139.3 148.37,138.26 C 149.03,137.21 149.93,136.32 150.97,135.65 C 152.01,134.98 153.19,134.54 154.42,134.34 C 155.64,134.14 156.89,134.18 158.1,134.44 C 159.31,134.7 160.47,135.18 161.52,135.84 C 162.56,136.5 163.49,137.35 164.24,138.33 C 165.0,139.31 165.57,140.43 165.91,141.62 C 166.25,142.81 166.36,144.07 166.2,145.3 C 166.04,146.52 165.62,147.72 164.96,148.76 C 164.3,149.8 163.4,150.7 162.36,151.37 C 161.32,152.03 160.13,152.47 158.91,152.67 C 158.24,152.78 157.56,152.82 156.89,152.79 z M 157.68,165.01 C 158.0,164.43 158.27,163.83 158.5,163.21 C 158.96,161.91 159.21,160.54 159.26,159.16 C 159.3,158.21 159.25,157.25 159.14,156.31 C 159.06,155.59 158.94,154.87 158.77,154.16 C 158.93,154.14 159.08,154.12 159.23,154.1 C 159.72,154.01 160.21,153.89 160.68,153.74 C 161.49,155.04 161.95,155.98 162.34,156.96 C 162.75,158.0 163.08,159.08 163.28,160.18 C 163.49,161.28 163.57,162.4 163.5,163.52 C 163.43,164.64 163.21,165.76 162.57,166.79 C 162.21,167.36 161.71,167.9 161.15,168.12 C 160.7,168.3 160.2,168.27 159.75,168.1 C 158.78,167.73 158.05,166.68 157.68,165.01 z M 136.79,151.78 C 135.13,152.16 133.86,151.95 133.11,151.23 C 132.76,150.9 132.53,150.46 132.49,149.98 C 132.45,149.37 132.73,148.69 133.1,148.12 C 133.75,147.1 134.67,146.42 135.65,145.88 C 136.63,145.34 137.68,144.94 138.76,144.65 C 139.84,144.37 140.96,144.2 142.08,144.13 C 143.12,144.06 144.18,144.07 145.69,144.25 C 145.76,144.74 145.86,145.23 145.99,145.71 C 146.04,145.86 146.08,146.01 146.13,146.16 C 145.42,146.31 144.72,146.51 144.03,146.74 C 143.13,147.04 142.25,147.4 141.4,147.85 C 140.18,148.49 139.05,149.3 138.07,150.27 C 137.61,150.74 137.18,151.25 136.79,151.78 z M 136.83,156.92 C 137.03,157.12 137.22,157.33 137.39,157.56 C 137.56,157.79 137.71,158.03 137.84,158.28 C 137.98,158.54 138.1,158.81 138.2,159.08 C 138.33,159.46 138.43,159.85 138.49,160.24 C 138.61,160.98 138.6,161.73 138.47,162.46 C 138.41,162.83 138.32,163.2 138.19,163.55 C 138.11,163.77 138.02,163.99 137.91,164.21 C 137.75,164.54 137.57,164.85 137.36,165.15 C 137.15,165.43 136.92,165.7 136.66,165.95 C 136.41,166.18 136.14,166.39 135.85,166.57 C 135.59,166.72 135.31,166.85 135.02,166.95 C 134.74,167.05 134.45,167.12 134.16,167.16 C 133.87,167.2 133.58,167.22 133.29,167.2 C 133.0,167.19 132.72,167.15 132.44,167.07 C 132.24,167.02 132.04,166.95 131.85,166.86 C 131.47,166.7 131.13,166.48 130.81,166.21 C 130.64,166.07 130.49,165.92 130.34,165.76 C 130.07,165.46 129.83,165.14 129.64,164.79 C 129.43,164.42 129.27,164.04 129.14,163.65 C 129.01,163.24 128.92,162.82 128.87,162.39 C 128.81,161.94 128.8,161.48 128.84,161.03 C 128.88,160.53 128.97,160.03 129.11,159.55 C 129.25,159.08 129.44,158.62 129.68,158.2 C 129.91,157.79 130.19,157.41 130.52,157.07 C 130.67,156.91 130.84,156.76 131.01,156.62 C 131.13,156.52 131.26,156.44 131.38,156.36 C 131.64,156.19 131.91,156.05 132.19,155.94 C 132.46,155.82 132.75,155.74 133.04,155.68 C 133.32,155.63 133.6,155.6 133.89,155.61 C 134.15,155.61 134.41,155.65 134.67,155.71 C 134.93,155.77 135.19,155.86 135.44,155.97 C 135.7,156.09 135.94,156.23 136.17,156.39 C 136.41,156.54 136.63,156.72 136.83,156.92 z M 156.58,132.77 C 155.75,132.73 154.91,132.78 154.1,132.92 C 152.88,133.13 151.7,133.54 150.63,134.16 C 150.54,134.02 150.46,133.87 150.39,133.72 C 150.31,133.56 150.24,133.4 150.18,133.23 C 150.11,133.02 150.05,132.8 150.01,132.58 C 149.98,132.43 149.97,132.28 149.97,132.13 C 149.97,132.0 149.98,131.87 150.0,131.74 C 150.02,131.62 150.06,131.5 150.11,131.38 C 150.16,131.25 150.22,131.13 150.3,131.01 C 150.4,130.84 150.53,130.68 150.67,130.53 C 150.78,130.42 150.89,130.31 151.02,130.21 C 151.14,130.11 151.27,130.02 151.41,129.95 C 151.69,129.78 151.99,129.66 152.31,129.59 C 152.62,129.51 152.95,129.48 153.28,129.49 C 153.59,129.5 153.9,129.55 154.2,129.64 C 154.46,129.71 154.71,129.82 154.94,129.95 C 155.17,130.07 155.39,130.23 155.59,130.4 C 155.7,130.5 155.8,130.61 155.9,130.72 C 156.02,130.86 156.12,131.0 156.21,131.16 C 156.3,131.31 156.38,131.47 156.44,131.63 C 156.48,131.77 156.52,131.9 156.54,132.04 C 156.58,132.28 156.59,132.53 156.58,132.77 z M 167.7,144.96 C 167.79,143.74 167.66,142.49 167.33,141.3 C 167.11,140.5 166.8,139.73 166.4,139.0 C 166.62,138.88 166.85,138.78 167.09,138.72 C 167.22,138.68 167.36,138.65 167.49,138.64 C 167.67,138.62 167.84,138.62 168.02,138.64 C 168.2,138.65 168.38,138.68 168.55,138.73 C 168.69,138.77 168.83,138.82 168.97,138.87 C 169.21,138.98 169.45,139.11 169.66,139.27 C 169.88,139.42 170.08,139.61 170.26,139.81 C 170.46,140.04 170.64,140.3 170.78,140.57 C 170.93,140.86 171.04,141.18 171.11,141.5 C 171.18,141.81 171.2,142.14 171.17,142.46 C 171.16,142.62 171.13,142.77 171.1,142.93 C 171.06,143.08 171.01,143.23 170.96,143.38 C 170.88,143.57 170.79,143.75 170.68,143.92 C 170.61,144.04 170.52,144.15 170.43,144.25 C 170.34,144.34 170.25,144.43 170.15,144.5 C 170.04,144.58 169.93,144.64 169.81,144.7 C 169.67,144.76 169.53,144.81 169.39,144.85 C 169.17,144.91 168.95,144.95 168.73,144.97 C 168.55,144.99 168.37,145.0 168.19,144.99 C 168.02,144.99 167.86,144.98 167.7,144.96 z M 154.57,171.88 C 154.57,169.53 152.67,167.63 150.32,167.63 C 147.97,167.63 146.07,169.53 146.07,171.88 C 146.07,174.23 147.97,176.13 150.32,176.13 C 152.67,176.13 154.57,174.23 154.57,171.88 z M 153.02,167.17 C 153.28,167.27 153.54,167.39 153.78,167.54 C 154.02,167.68 154.25,167.84 154.47,168.02 C 154.68,168.2 154.87,168.39 155.04,168.6 C 155.2,168.81 155.35,169.03 155.46,169.27 C 155.59,169.52 155.69,169.79 155.76,170.07 C 155.83,170.36 155.87,170.65 155.89,170.95 C 155.91,171.25 155.9,171.55 155.86,171.86 C 155.84,172.0 155.81,172.15 155.78,172.3 C 155.73,172.52 155.66,172.73 155.58,172.94 C 155.42,173.38 155.19,173.8 154.92,174.18 C 154.64,174.58 154.31,174.95 153.94,175.27 C 153.57,175.61 153.16,175.9 152.72,176.15 C 152.33,176.38 151.91,176.56 151.48,176.71 C 151.07,176.84 150.65,176.94 150.23,177.0 C 149.81,177.05 149.4,177.07 148.98,177.04 C 148.58,177.01 148.18,176.94 147.8,176.82 C 147.59,176.75 147.39,176.68 147.19,176.58 C 146.82,176.41 146.47,176.19 146.16,175.93 C 146.0,175.79 145.85,175.64 145.71,175.48 C 145.53,175.26 145.37,175.02 145.24,174.77 C 145.1,174.51 144.99,174.24 144.9,173.96 C 144.81,173.68 144.75,173.39 144.72,173.1 C 144.69,172.8 144.69,172.49 144.72,172.18 C 144.75,171.84 144.83,171.51 144.93,171.19 C 145.04,170.85 145.19,170.52 145.36,170.21 C 145.53,169.89 145.74,169.59 145.97,169.31 C 146.12,169.12 146.28,168.94 146.44,168.77 C 146.71,168.51 147.0,168.27 147.3,168.06 C 147.91,167.63 148.59,167.3 149.3,167.09 C 149.69,166.98 150.08,166.9 150.48,166.86 C 150.77,166.83 151.06,166.82 151.35,166.84 C 151.64,166.85 151.92,166.88 152.2,166.94 C 152.48,166.99 152.75,167.07 153.02,167.17 z"
		 />
		 <path style="fill:#00f;stroke:none;"
		 d="M 153.86,171.88 C 153.89,173.45 152.74,174.94 151.21,175.31 C 149.84,175.68 148.28,175.13 147.45,173.97 C 146.6,172.81 146.55,171.13 147.35,169.94 C 148.09,168.8 149.5,168.15 150.84,168.37 C 152.22,168.56 153.43,169.64 153.75,171.0 C 153.83,171.28 153.86,171.58 153.86,171.88 z"
		 />
		
		<!-- Prism Reference -->
		<cam mingh:cam="--verb EditSelectAll --verb ZoomSelection --verb FileSave" /> 
	 </g>

</svg>
