<svg
   xmlns:xlink="http://www.w3.org/1999/xlink"
   xmlns:svg="http://www.w3.org/2000/svg"
   xmlns="http://www.w3.org/2000/svg"
   xmlns:mingh="http://www.minghworld.com"
   width="300px"
   height="300px" >
	
	 <g>
		
		<!-- Paths -->
		<path style="fill:none;stroke:#000;stroke-width:0.25px;"
		 d="M 146.53,126.44 C 146.0,126.4 145.44,126.46 144.94,126.63 C 144.43,126.79 143.97,127.09 143.56,127.44 C 143.16,127.79 142.83,128.21 142.59,128.69 C 142.35,129.16 142.19,129.69 142.16,130.22 C 142.12,130.75 142.21,131.28 142.38,131.78 C 142.54,132.29 142.81,132.78 143.16,133.19 C 143.42,133.49 143.73,133.72 144.06,133.94 C 144.14,133.98 144.09,134.12 144.0,134.13 C 142.25,134.15 140.51,134.29 138.84,134.59 C 138.73,134.62 138.64,134.53 138.66,134.41 C 138.66,134.35 138.68,134.28 138.69,134.22 C 138.7,134.11 138.64,133.98 138.56,133.91 C 138.49,133.83 138.38,133.82 138.28,133.84 C 137.71,133.98 137.15,134.14 136.59,134.31 C 136.37,134.37 136.16,134.57 136.09,134.81 C 135.31,137.41 134.81,140.11 134.72,142.59 C 134.7,142.83 134.88,143.07 135.09,143.13 C 135.46,143.24 135.83,143.37 136.19,143.5 C 136.29,143.54 136.43,143.52 136.53,143.47 C 136.63,143.41 136.72,143.33 136.75,143.22 C 136.77,143.14 136.79,143.08 136.81,143.0 C 136.84,142.9 136.94,142.84 137.03,142.88 C 137.83,143.18 138.6,143.52 139.38,143.91 C 139.45,143.94 139.49,144.01 139.47,144.09 C 139.42,144.3 139.39,144.48 139.34,144.66 C 139.18,145.34 139.06,145.83 138.91,146.31 C 138.71,146.95 138.46,147.6 138.03,148.19 C 137.61,148.78 136.99,149.32 136.34,149.91 C 135.7,150.49 135.02,151.11 134.44,151.81 C 133.85,152.52 133.38,153.29 132.91,154.22 C 132.44,155.14 132.01,156.2 131.66,157.19 C 131.65,157.21 131.64,157.23 131.63,157.25 C 131.16,157.84 130.64,158.46 130.5,159.19 C 130.4,159.68 130.48,160.2 130.69,160.66 C 130.94,161.2 131.41,161.64 131.75,162.13 C 132.27,162.86 132.49,163.71 132.75,164.59 C 133.01,165.45 133.3,166.35 133.5,167.22 C 133.57,167.51 133.61,167.8 133.66,168.09 C 133.66,168.11 133.66,168.11 133.66,168.13 C 133.65,168.16 133.66,168.19 133.66,168.22 C 133.66,168.42 133.76,168.59 133.91,168.78 C 134.06,168.98 134.26,169.23 134.5,169.41 C 134.86,169.67 135.34,169.83 135.53,169.81 C 135.54,169.81 135.56,169.81 135.56,169.81 C 135.6,169.81 135.62,169.78 135.66,169.75 C 135.7,169.72 135.75,169.74 135.78,169.78 C 135.86,169.9 135.94,170.01 136.03,170.13 C 137.2,171.61 139.2,172.61 141.09,172.66 C 141.24,172.66 141.39,172.66 141.53,172.66 C 141.58,172.65 141.62,172.7 141.63,172.75 C 141.63,172.79 141.64,172.84 141.66,172.88 C 141.66,172.88 141.68,172.87 141.69,172.88 C 141.78,173.04 142.19,173.34 142.63,173.47 C 142.91,173.56 143.22,173.56 143.47,173.56 C 143.71,173.56 143.9,173.55 144.06,173.44 C 144.09,173.42 144.1,173.4 144.13,173.38 C 144.14,173.36 144.14,173.35 144.16,173.34 C 144.42,173.21 144.69,173.09 144.97,172.97 C 145.79,172.6 146.66,172.31 147.5,172.0 C 148.37,171.68 149.2,171.34 150.09,171.31 C 150.68,171.3 151.32,171.43 151.91,171.31 C 152.4,171.21 152.85,170.93 153.19,170.56 C 153.69,170.01 153.87,169.23 154.06,168.5 C 154.07,168.48 154.08,168.49 154.09,168.47 C 154.68,167.59 155.26,166.58 155.72,165.66 C 156.18,164.72 156.54,163.89 156.75,163.0 C 156.96,162.11 157.04,161.18 157.13,160.31 C 157.21,159.45 157.28,158.63 157.5,157.94 C 157.72,157.24 158.08,156.7 158.47,156.16 C 158.77,155.74 159.09,155.32 159.53,154.78 C 159.64,154.64 159.77,154.5 159.91,154.34 C 159.96,154.28 160.05,154.28 160.13,154.31 C 160.9,154.7 161.62,155.1 162.34,155.56 C 162.43,155.62 162.47,155.73 162.41,155.81 C 162.36,155.88 162.3,155.94 162.25,156.0 C 162.18,156.1 162.17,156.23 162.19,156.34 C 162.2,156.46 162.25,156.57 162.34,156.63 C 162.66,156.83 163.0,157.06 163.31,157.28 C 163.48,157.42 163.79,157.41 163.97,157.25 C 165.91,155.69 167.76,153.71 169.38,151.53 C 169.53,151.34 169.58,151.03 169.5,150.81 C 169.3,150.26 169.08,149.7 168.84,149.16 C 168.8,149.06 168.73,148.98 168.63,148.97 C 168.52,148.95 168.39,149.01 168.31,149.09 C 168.27,149.13 168.23,149.18 168.19,149.22 C 168.1,149.3 167.96,149.26 167.91,149.16 C 166.68,146.69 165.03,144.32 163.13,142.19 C 163.07,142.12 163.07,142.01 163.13,141.94 C 163.18,141.87 163.23,141.81 163.28,141.75 C 163.44,141.59 163.42,141.25 163.25,141.09 C 162.76,140.57 162.24,140.05 161.72,139.56 C 161.64,139.49 161.55,139.46 161.44,139.47 C 161.34,139.48 161.25,139.55 161.19,139.63 C 161.17,139.64 161.15,139.64 161.13,139.66 C 160.26,140.16 159.7,140.2 159.16,140.16 C 157.82,140.06 156.57,139.5 155.38,138.91 C 153.84,138.15 152.41,137.36 151.47,136.38 C 151.23,136.12 151.01,135.84 150.84,135.5 C 150.69,135.19 150.59,134.82 150.53,134.34 C 150.53,134.32 150.52,134.3 150.53,134.28 C 150.56,134.19 150.55,134.09 150.5,134.0 C 150.44,133.9 150.33,133.83 150.22,133.81 C 149.84,133.75 149.45,133.68 149.06,133.63 C 148.99,133.61 148.98,133.52 149.03,133.47 C 149.38,133.14 149.66,132.77 149.88,132.34 C 150.11,131.87 150.24,131.34 150.28,130.81 C 150.32,130.28 150.26,129.72 150.09,129.22 C 149.93,128.71 149.66,128.25 149.31,127.84 C 148.96,127.44 148.54,127.11 148.06,126.88 C 147.59,126.64 147.06,126.48 146.53,126.44 z M 146.22,128.56 C 146.47,128.56 146.73,128.62 146.97,128.72 C 147.2,128.82 147.41,128.94 147.59,129.13 C 147.77,129.31 147.93,129.51 148.03,129.75 C 148.13,129.99 148.19,130.24 148.19,130.5 C 148.19,130.76 148.13,131.01 148.03,131.25 C 147.93,131.49 147.77,131.69 147.59,131.88 C 147.41,132.06 147.2,132.21 146.97,132.31 C 146.73,132.41 146.47,132.47 146.22,132.47 C 145.96,132.47 145.7,132.41 145.47,132.31 C 145.23,132.21 145.02,132.06 144.84,131.88 C 144.66,131.69 144.54,131.49 144.44,131.25 C 144.34,131.01 144.28,130.76 144.28,130.5 C 144.28,130.24 144.34,129.99 144.44,129.75 C 144.54,129.51 144.66,129.31 144.84,129.13 C 145.02,128.94 145.23,128.82 145.47,128.72 C 145.7,128.62 145.96,128.56 146.22,128.56 z M 139.0,152.84 C 139.02,152.84 139.05,152.86 139.06,152.88 C 139.37,153.2 139.67,153.52 139.97,153.84 C 140.02,153.9 140.06,153.89 140.13,153.88 C 140.56,153.79 141.0,153.71 141.44,153.63 C 141.48,153.62 141.49,153.65 141.47,153.69 C 141.26,154.07 141.06,154.49 140.84,154.88 C 140.81,154.94 140.81,154.97 140.84,155.03 C 141.06,155.42 141.28,155.8 141.5,156.19 C 141.52,156.23 141.48,156.26 141.44,156.25 C 141.0,156.17 140.59,156.11 140.16,156.03 C 140.09,156.02 140.02,156.01 139.97,156.06 C 139.67,156.39 139.39,156.74 139.09,157.06 C 139.06,157.1 139.01,157.08 139.0,157.03 C 138.94,156.59 138.87,156.16 138.81,155.72 C 138.8,155.65 138.78,155.59 138.72,155.56 C 138.32,155.38 137.9,155.21 137.5,155.03 C 137.46,155.01 137.46,154.96 137.5,154.94 C 137.9,154.75 138.32,154.53 138.72,154.34 C 138.78,154.31 138.8,154.29 138.81,154.22 C 138.86,153.78 138.92,153.34 138.97,152.91 C 138.97,152.88 138.98,152.85 139.0,152.84 z M 145.97,156.53 C 146.0,156.5 146.06,156.55 146.06,156.59 C 146.04,157.24 146.02,157.89 146.0,158.53 C 146.0,158.6 146.0,158.65 146.06,158.69 C 146.6,159.04 147.15,159.39 147.69,159.75 C 147.73,159.78 147.73,159.83 147.69,159.84 L 145.81,160.38 C 145.74,160.39 145.71,160.43 145.69,160.5 C 145.51,161.12 145.36,161.75 145.19,162.38 C 145.18,162.42 145.12,162.41 145.09,162.38 C 144.73,161.84 144.36,161.31 144.0,160.78 C 143.96,160.72 143.91,160.72 143.84,160.72 C 143.2,160.75 142.55,160.75 141.91,160.78 C 141.86,160.78 141.85,160.75 141.88,160.72 C 142.27,160.21 142.64,159.7 143.03,159.19 C 143.07,159.13 143.09,159.07 143.06,159.0 C 142.84,158.4 142.63,157.79 142.41,157.19 C 142.39,157.15 142.43,157.11 142.47,157.13 L 144.28,157.78 C 144.35,157.81 144.41,157.79 144.47,157.75 C 144.97,157.35 145.46,156.93 145.97,156.53 z M 151.06,158.44 C 151.08,158.44 151.12,158.45 151.13,158.47 C 151.31,158.87 151.5,159.29 151.69,159.69 C 151.72,159.75 151.74,159.77 151.81,159.78 C 152.25,159.83 152.69,159.89 153.13,159.94 C 153.17,159.94 153.19,160.0 153.16,160.03 C 152.83,160.33 152.54,160.64 152.22,160.94 C 152.17,160.99 152.14,161.02 152.16,161.09 L 152.41,162.41 C 152.42,162.45 152.38,162.46 152.34,162.44 C 151.96,162.22 151.57,162.03 151.19,161.81 C 151.13,161.78 151.06,161.78 151.0,161.81 C 150.62,162.03 150.23,162.25 149.84,162.47 C 149.8,162.49 149.77,162.45 149.78,162.41 C 149.86,161.97 149.95,161.53 150.03,161.09 C 150.04,161.02 150.02,160.99 149.97,160.94 C 149.64,160.64 149.32,160.36 149.0,160.06 C 148.97,160.03 148.99,159.97 149.03,159.97 L 150.34,159.78 C 150.41,159.77 150.44,159.75 150.47,159.69 C 150.65,159.29 150.85,158.87 151.03,158.47 C 151.04,158.45 151.04,158.44 151.06,158.44 z"
		 />
		 <path style="fill:#f00;stroke:none;"
		 d="M 148.19,132.97 C 148.06,132.95 147.91,132.97 147.78,133.0 C 147.66,133.03 147.54,133.08 147.44,133.16 C 147.34,133.23 147.26,133.3 147.19,133.41 C 147.13,133.49 147.09,133.59 147.06,133.69 C 146.85,133.67 146.62,133.67 146.41,133.66 C 146.34,133.84 146.23,134.0 146.16,134.16 C 146.58,134.18 147.02,134.21 147.44,134.25 L 147.47,134.25 C 147.51,134.12 147.54,133.99 147.56,133.88 C 147.59,133.65 147.87,133.46 148.09,133.5 C 148.29,133.52 148.49,133.54 148.69,133.56 C 148.72,133.53 148.78,133.5 148.81,133.47 C 148.95,133.35 149.07,133.23 149.19,133.09 C 148.85,133.05 148.53,133.01 148.19,132.97 z M 143.69,134.25 C 143.28,134.26 142.88,134.29 142.47,134.31 C 142.14,136.04 141.7,137.75 141.13,139.41 C 140.62,140.88 140.0,142.33 139.31,143.72 C 139.4,143.76 139.51,143.8 139.59,143.84 C 139.62,143.86 139.64,143.86 139.66,143.88 C 141.95,142.39 144.01,140.43 145.47,138.44 C 145.9,137.84 146.27,137.26 146.69,136.31 C 146.95,135.72 147.23,135.0 147.41,134.41 C 146.97,134.37 146.56,134.34 146.13,134.31 C 146.11,134.37 146.08,134.41 146.06,134.47 C 146.0,134.68 145.94,134.88 145.88,135.09 C 145.81,135.3 145.73,135.52 145.66,135.72 C 145.58,135.93 145.5,136.14 145.41,136.34 C 145.33,136.52 145.25,136.7 145.16,136.88 C 145.07,137.03 145.0,137.19 144.91,137.34 C 144.82,137.49 144.72,137.64 144.63,137.78 C 144.29,138.31 143.92,138.79 143.53,139.28 C 143.12,139.79 142.7,140.31 142.25,140.78 C 141.79,141.27 141.29,141.74 140.78,142.19 C 140.71,142.25 140.64,142.31 140.56,142.38 C 141.02,141.51 141.46,140.62 141.84,139.72 C 142.6,137.95 143.21,136.11 143.69,134.25 z M 139.5,134.63 C 139.19,134.67 138.9,134.72 138.59,134.78 C 138.22,137.45 137.64,140.15 136.91,142.66 C 137.18,142.76 137.44,142.89 137.72,143.0 C 137.73,142.98 137.74,142.96 137.75,142.94 C 137.89,142.48 138.0,142.0 138.13,141.53 C 138.25,141.07 138.39,140.59 138.5,140.13 C 138.73,139.17 138.92,138.21 139.09,137.25 C 139.18,136.77 139.27,136.3 139.34,135.81 C 139.41,135.42 139.45,135.02 139.5,134.63 z M 150.41,134.66 C 150.4,134.67 150.38,134.67 150.38,134.69 C 150.36,134.72 150.36,134.75 150.34,134.78 C 150.25,135.02 150.16,135.26 150.06,135.5 C 148.9,138.26 146.94,140.55 144.44,142.16 C 143.01,143.07 141.57,143.65 139.88,143.91 C 139.83,143.91 139.77,143.93 139.72,143.94 C 139.66,143.95 139.67,143.99 139.66,144.03 C 139.64,144.11 139.61,144.17 139.59,144.25 C 139.57,144.33 139.55,144.42 139.53,144.5 C 139.52,144.54 139.51,144.59 139.5,144.63 C 139.5,144.63 139.5,144.65 139.5,144.66 C 139.5,144.66 139.48,144.69 139.5,144.69 C 139.52,144.69 139.54,144.66 139.56,144.66 C 139.72,144.65 139.87,144.62 140.03,144.59 C 140.19,144.57 140.34,144.56 140.5,144.53 C 141.14,144.41 141.77,144.23 142.38,144.0 C 143.04,143.75 143.67,143.45 144.28,143.09 C 144.43,143.01 144.57,142.91 144.72,142.81 C 144.79,142.77 144.86,142.7 144.94,142.66 C 144.95,142.65 144.96,142.64 144.97,142.66 C 144.98,142.67 144.99,142.68 145.0,142.69 C 145.01,142.71 145.02,142.73 145.03,142.75 C 145.06,142.79 145.1,142.81 145.13,142.84 C 145.37,143.13 145.62,143.42 145.88,143.69 C 146.94,144.8 148.09,145.73 149.41,146.53 C 151.94,148.07 154.82,148.95 157.78,149.09 C 157.87,150.52 158.14,151.86 158.69,153.19 C 158.82,153.51 158.96,153.81 159.13,154.13 C 159.21,154.28 159.32,154.44 159.41,154.59 C 159.42,154.61 159.43,154.64 159.44,154.66 C 159.44,154.65 159.47,154.66 159.47,154.66 L 159.53,154.56 C 159.59,154.49 159.66,154.44 159.72,154.38 L 159.88,154.16 C 159.92,154.1 159.91,154.09 159.88,154.03 C 159.85,153.98 159.84,153.92 159.81,153.88 C 159.71,153.68 159.62,153.51 159.53,153.31 C 159.35,152.91 159.17,152.51 159.03,152.09 C 158.16,149.37 158.35,146.04 159.25,143.38 C 159.52,142.57 159.84,141.8 160.25,141.06 C 160.36,140.86 160.5,140.67 160.63,140.47 C 160.69,140.37 160.75,140.26 160.81,140.16 C 160.85,140.1 160.87,140.05 160.91,140.0 C 160.92,139.97 160.95,139.96 160.97,139.94 C 160.97,139.93 160.99,139.9 160.97,139.91 C 160.96,139.91 160.95,139.9 160.94,139.91 C 160.64,140.06 160.36,140.18 160.03,140.25 C 158.83,140.49 157.23,139.92 156.22,139.47 C 155.11,138.97 153.5,138.11 152.5,137.41 C 151.97,137.03 151.32,136.52 150.94,135.97 C 150.73,135.67 150.59,135.35 150.5,135.0 C 150.48,134.91 150.45,134.84 150.44,134.75 C 150.43,134.72 150.41,134.68 150.41,134.66 z M 148.91,138.97 C 148.93,138.99 148.95,139.04 148.97,139.06 C 149.05,139.16 149.1,139.22 149.19,139.31 C 149.35,139.5 149.54,139.7 149.72,139.88 C 150.54,140.69 151.41,141.39 152.41,141.97 C 153.41,142.55 154.45,142.97 155.56,143.28 C 156.1,143.43 156.64,143.55 157.19,143.63 C 157.47,143.67 157.75,143.7 158.03,143.72 C 158.1,143.72 158.18,143.71 158.25,143.72 C 158.29,143.72 158.34,143.75 158.38,143.75 C 158.37,143.76 158.38,143.77 158.38,143.78 C 158.37,143.8 158.38,143.82 158.38,143.84 C 158.33,144.0 158.29,144.13 158.25,144.28 C 158.18,144.56 158.09,144.84 158.03,145.13 C 158.0,145.27 157.99,145.42 157.97,145.56 C 157.96,145.63 157.95,145.71 157.94,145.78 C 157.93,145.82 157.91,145.84 157.91,145.88 C 157.9,145.9 157.89,145.91 157.88,145.91 C 157.86,145.91 157.83,145.91 157.81,145.91 C 157.25,145.88 156.71,145.82 156.16,145.72 C 155.02,145.52 153.94,145.18 152.88,144.72 C 150.77,143.81 148.9,142.43 147.44,140.66 C 147.88,140.22 148.3,139.74 148.69,139.25 C 148.74,139.19 148.77,139.12 148.81,139.06 C 148.82,139.05 148.83,139.05 148.84,139.03 C 148.85,139.02 148.87,139.01 148.88,139.0 C 148.88,139.0 148.9,138.96 148.91,138.97 z M 146.63,141.38 C 146.63,141.37 146.65,141.36 146.66,141.38 C 146.7,141.43 146.76,141.47 146.81,141.53 C 146.91,141.65 146.99,141.76 147.09,141.88 C 147.51,142.33 147.94,142.78 148.41,143.19 C 149.32,143.98 150.31,144.62 151.38,145.19 C 152.44,145.75 153.55,146.16 154.72,146.47 C 155.31,146.62 155.9,146.76 156.5,146.84 C 156.8,146.88 157.11,146.91 157.41,146.94 C 157.48,146.94 157.55,146.93 157.63,146.94 C 157.66,146.94 157.68,146.97 157.72,146.97 C 157.74,146.97 157.76,146.97 157.78,146.97 C 157.79,146.97 157.81,146.95 157.81,146.97 C 157.81,146.98 157.81,146.99 157.81,147.0 C 157.8,147.14 157.79,147.27 157.78,147.41 C 157.77,147.55 157.75,147.7 157.75,147.84 C 157.75,147.88 157.75,147.9 157.75,147.94 C 157.75,147.96 157.75,147.98 157.75,148.0 C 157.75,148.01 157.75,148.02 157.75,148.03 C 157.68,148.03 157.57,148.01 157.5,148.0 C 157.2,147.98 156.92,147.97 156.63,147.94 C 156.02,147.86 155.41,147.73 154.81,147.59 C 153.64,147.32 152.53,146.93 151.44,146.41 C 149.27,145.37 147.38,143.88 145.84,142.03 C 146.07,141.86 146.28,141.68 146.5,141.5 C 146.53,141.48 146.54,141.46 146.56,141.44 C 146.58,141.43 146.61,141.42 146.63,141.41 C 146.63,141.4 146.62,141.38 146.63,141.38 z M 162.94,142.19 C 162.57,142.69 162.16,143.34 161.84,143.91 C 161.33,144.81 161.09,145.48 160.88,146.19 C 160.15,148.55 159.82,151.37 160.0,154.09 C 160.02,154.09 160.03,154.11 160.06,154.13 C 160.15,154.17 160.23,154.21 160.31,154.25 C 161.01,152.87 161.81,151.51 162.69,150.22 C 163.68,148.77 164.78,147.39 165.97,146.09 C 165.75,145.75 165.52,145.43 165.28,145.09 C 164.07,146.59 162.96,148.18 162.0,149.84 C 161.51,150.69 161.08,151.55 160.66,152.44 C 160.66,152.34 160.65,152.25 160.66,152.16 C 160.71,151.49 160.82,150.82 160.94,150.16 C 161.05,149.51 161.18,148.85 161.34,148.22 C 161.5,147.62 161.69,147.02 161.91,146.44 C 161.97,146.27 162.03,146.13 162.09,145.97 C 162.16,145.8 162.23,145.63 162.31,145.47 C 162.4,145.29 162.5,145.14 162.59,144.97 C 162.71,144.77 162.81,144.57 162.94,144.38 C 163.05,144.2 163.19,144.02 163.31,143.84 C 163.44,143.66 163.55,143.49 163.69,143.31 C 163.72,143.27 163.78,143.2 163.81,143.16 C 163.54,142.82 163.23,142.51 162.94,142.19 z M 143.63,145.47 C 143.51,145.49 143.44,145.56 143.34,145.63 C 143.29,145.67 143.24,145.7 143.19,145.75 C 143.06,145.87 142.93,145.98 142.88,146.16 C 142.85,146.23 142.83,146.3 142.81,146.38 C 142.8,146.41 142.79,146.44 142.78,146.47 C 142.77,146.5 142.77,146.54 142.75,146.56 C 142.71,146.62 142.67,146.66 142.63,146.72 C 142.14,147.41 141.62,148.11 141.09,148.78 C 140.9,149.03 140.7,149.28 140.5,149.53 C 140.4,149.65 140.28,149.76 140.19,149.88 C 140.13,149.94 140.09,150.0 140.03,150.06 C 139.92,150.19 139.81,150.32 139.72,150.47 C 139.66,150.57 139.59,150.67 139.56,150.78 C 139.54,150.89 139.55,150.99 139.59,151.09 C 139.64,151.22 139.73,151.27 139.84,151.31 C 139.93,151.35 140.01,151.36 140.09,151.38 C 140.15,151.39 140.22,151.41 140.28,151.41 C 140.31,151.41 140.34,151.41 140.38,151.41 C 140.39,151.41 140.37,151.43 140.38,151.44 C 140.38,151.45 140.37,151.46 140.38,151.47 C 140.43,151.64 140.5,151.75 140.66,151.84 C 140.91,152.0 141.21,152.05 141.5,152.09 C 141.91,152.16 142.3,152.18 142.72,152.16 C 143.1,152.14 143.5,152.11 143.88,152.03 C 144.52,151.9 145.17,151.54 145.44,150.88 C 145.61,150.45 145.48,150.06 145.22,149.72 C 145.09,149.55 144.97,149.41 144.81,149.28 C 144.7,149.19 144.59,149.11 144.47,149.03 C 144.45,149.01 144.4,148.99 144.38,148.97 C 144.36,148.96 144.36,148.95 144.34,148.94 C 144.43,148.94 144.51,148.94 144.59,148.94 C 144.75,148.94 144.93,148.94 145.09,148.94 C 146.02,148.91 147.37,148.76 147.78,147.66 C 148.01,147.03 147.6,146.54 147.09,146.25 C 146.65,146.0 146.22,145.88 145.72,145.81 C 145.32,145.76 144.9,145.75 144.5,145.72 C 144.44,145.71 144.4,145.73 144.34,145.72 C 144.28,145.7 144.21,145.65 144.16,145.63 C 144.0,145.55 143.82,145.43 143.63,145.47 z M 144.53,146.91 C 144.92,146.89 145.9,146.98 146.25,147.25 C 146.43,147.39 146.39,147.52 146.22,147.66 C 146.12,147.74 146.0,147.77 145.88,147.81 C 145.78,147.84 145.69,147.86 145.59,147.88 C 145.4,147.9 145.2,147.92 145.0,147.94 C 144.41,147.98 143.84,147.99 143.25,147.97 C 143.36,147.83 143.49,147.7 143.59,147.56 C 143.63,147.52 143.65,147.48 143.69,147.44 C 143.71,147.41 143.73,147.39 143.75,147.38 C 143.77,147.35 143.79,147.34 143.81,147.31 C 143.9,147.22 143.98,147.13 144.06,147.03 C 144.09,147.0 144.11,146.95 144.16,146.94 C 144.28,146.9 144.41,146.91 144.53,146.91 z M 167.47,148.66 C 167.19,148.93 166.93,149.22 166.66,149.5 C 166.31,149.85 165.96,150.2 165.63,150.56 C 164.96,151.28 164.32,152.03 163.69,152.78 C 163.38,153.15 163.08,153.5 162.78,153.88 C 162.48,154.25 162.16,154.65 161.88,155.03 C 161.86,155.05 161.86,155.08 161.84,155.09 C 162.1,155.25 162.35,155.4 162.59,155.56 C 164.16,153.47 165.99,151.4 167.91,149.5 C 167.77,149.22 167.61,148.93 167.47,148.66 z M 142.38,149.09 C 142.41,149.06 142.43,149.07 142.47,149.09 C 142.53,149.13 142.56,149.18 142.63,149.22 C 142.75,149.3 142.87,149.36 143.0,149.44 C 143.27,149.6 143.55,149.77 143.81,149.94 C 143.95,150.03 144.19,150.2 144.25,150.38 C 144.29,150.5 144.21,150.61 144.13,150.69 C 143.86,150.91 143.56,150.92 143.25,150.94 C 142.93,150.96 142.6,150.96 142.28,150.94 C 141.96,150.91 141.67,150.87 141.38,150.72 C 141.35,150.71 141.34,150.7 141.31,150.69 C 141.3,150.68 141.26,150.66 141.25,150.66 C 141.23,150.65 141.2,150.65 141.22,150.63 C 141.37,150.42 141.54,150.24 141.69,150.03 C 141.87,149.77 142.05,149.5 142.25,149.25 C 142.29,149.2 142.33,149.14 142.38,149.09 z M 149.25,149.66 C 149.14,149.65 149.05,149.68 148.97,149.69 C 148.6,149.75 148.28,149.85 147.97,149.97 C 147.66,150.09 147.37,150.22 147.13,150.38 C 146.87,150.53 146.66,150.73 146.47,150.91 C 146.28,151.09 146.13,151.26 146.0,151.44 C 145.85,151.65 145.74,151.86 145.66,152.06 C 145.57,152.28 145.51,152.48 145.5,152.69 C 145.49,152.9 145.52,153.1 145.59,153.28 C 145.65,153.43 145.74,153.57 145.84,153.69 C 145.9,153.75 145.97,153.79 146.03,153.84 C 146.1,153.9 146.17,153.96 146.25,154.0 C 146.33,154.05 146.41,154.09 146.5,154.13 C 146.59,154.17 146.68,154.19 146.78,154.22 C 146.97,154.28 147.15,154.33 147.34,154.34 C 147.59,154.36 147.83,154.34 148.06,154.28 C 148.39,154.2 148.7,154.08 149.0,153.94 C 149.3,153.79 149.57,153.63 149.81,153.44 C 150.06,153.25 150.25,153.01 150.44,152.78 C 150.62,152.55 150.77,152.29 150.88,152.03 C 150.92,151.92 150.98,151.85 151.0,151.75 C 151.02,151.66 151.02,151.56 151.03,151.47 C 151.04,151.38 151.03,151.27 151.03,151.19 C 151.03,151.11 151.04,151.05 151.03,150.97 C 151.02,150.84 151.01,150.69 150.97,150.56 C 150.93,150.44 150.88,150.33 150.81,150.22 C 150.74,150.11 150.63,150.02 150.53,149.94 C 150.42,149.85 150.32,149.8 150.19,149.75 C 150.07,149.7 149.97,149.66 149.84,149.66 C 149.75,149.66 149.65,149.69 149.56,149.72 C 149.47,149.69 149.35,149.66 149.25,149.66 z M 153.06,150.94 C 152.84,150.95 152.65,151.06 152.53,151.25 C 152.49,151.31 152.47,151.38 152.44,151.44 C 152.4,151.51 152.36,151.59 152.31,151.66 C 152.05,152.04 151.8,152.44 151.56,152.84 C 151.4,153.13 151.18,153.52 151.09,153.84 C 151.01,154.16 151.04,154.41 151.16,154.72 C 151.27,155.0 151.42,155.2 151.69,155.34 C 151.94,155.48 152.17,155.49 152.44,155.44 C 152.56,155.41 152.69,155.35 152.81,155.31 C 152.88,155.29 152.94,155.27 153.0,155.25 C 153.03,155.24 153.06,155.23 153.09,155.22 C 152.74,155.55 152.38,155.83 151.94,156.03 C 151.49,156.23 151.06,156.39 150.56,156.41 C 150.4,156.41 150.22,156.4 150.06,156.38 C 149.92,156.35 149.78,156.31 149.63,156.34 C 149.43,156.39 149.3,156.52 149.22,156.69 C 149.17,156.79 149.16,156.89 149.16,157.0 C 149.15,157.21 149.22,157.41 149.44,157.5 C 150.01,157.73 150.63,157.62 151.19,157.5 C 151.88,157.35 152.52,157.15 153.13,156.75 C 153.76,156.34 154.21,155.78 154.69,155.22 C 155.05,154.79 155.43,154.38 155.78,153.94 C 155.93,153.75 156.31,153.26 156.41,153.03 C 156.56,152.66 156.43,152.29 156.06,152.13 C 155.92,152.06 155.78,152.03 155.63,152.06 C 155.55,152.08 155.49,152.1 155.44,152.16 C 155.42,152.17 155.39,152.2 155.38,152.22 C 155.31,152.31 155.26,152.41 155.19,152.5 C 155.06,152.67 154.95,152.81 154.81,152.97 C 154.52,153.32 154.18,153.64 153.78,153.88 C 153.43,154.08 152.97,154.23 152.56,154.28 C 152.51,154.29 152.46,154.29 152.41,154.28 C 152.32,154.27 152.32,154.27 152.31,154.19 C 152.3,154.07 152.33,153.98 152.38,153.88 C 152.45,153.69 152.55,153.53 152.66,153.38 C 152.81,153.15 152.96,152.91 153.13,152.69 C 153.22,152.56 153.29,152.45 153.41,152.34 C 153.46,152.29 153.51,152.21 153.56,152.16 C 153.71,151.98 153.76,151.88 153.78,151.66 C 153.8,151.5 153.78,151.32 153.66,151.19 C 153.52,151.05 153.26,150.92 153.06,150.94 z M 148.75,150.97 C 148.99,150.93 148.99,150.95 149.22,151.0 C 149.39,151.04 149.57,151.07 149.75,151.03 C 149.76,151.03 149.75,151.06 149.75,151.06 C 149.75,151.07 149.75,151.08 149.75,151.09 C 149.75,151.11 149.75,151.14 149.75,151.16 C 149.75,151.2 149.75,151.23 149.75,151.28 C 149.76,151.36 149.76,151.42 149.75,151.5 C 149.72,151.67 149.59,151.84 149.5,151.97 C 149.13,152.5 148.57,152.99 147.91,153.13 C 147.67,153.17 147.45,153.15 147.22,153.06 C 147.12,153.03 147.01,152.98 146.94,152.91 C 146.67,152.63 146.89,152.24 147.06,152.0 C 147.4,151.54 148.19,151.06 148.75,150.97 z M 133.34,155.56 C 133.19,155.57 133.02,155.62 132.88,155.66 C 132.69,155.71 132.52,155.75 132.34,155.84 C 132.33,155.85 132.33,155.87 132.31,155.88 C 132.28,155.96 132.22,156.04 132.19,156.13 C 132.09,156.38 132.0,156.65 131.91,156.91 C 131.99,156.81 132.09,156.71 132.19,156.63 C 132.42,156.42 132.7,156.24 133.0,156.16 C 133.48,156.02 134.01,156.09 134.5,156.22 C 135.49,156.47 136.36,156.96 137.13,157.63 C 137.85,158.25 138.47,159.04 138.88,159.91 C 139.18,160.54 139.38,161.24 139.47,161.94 C 139.56,161.97 139.64,161.98 139.72,162.03 C 139.77,162.06 139.8,162.12 139.84,162.16 C 139.87,162.18 139.91,162.2 139.94,162.22 C 139.97,162.25 140.0,162.25 140.03,162.28 C 140.0,161.89 139.93,161.48 139.84,161.09 C 139.73,160.61 139.59,160.14 139.38,159.69 C 139.16,159.22 138.88,158.78 138.56,158.38 C 138.25,157.97 137.91,157.62 137.53,157.28 C 137.13,156.93 136.69,156.61 136.22,156.34 C 135.74,156.08 135.21,155.86 134.69,155.72 C 134.39,155.64 134.12,155.58 133.81,155.56 C 133.66,155.55 133.5,155.55 133.34,155.56 z M 132.28,158.38 C 132.03,158.38 131.8,158.42 131.66,158.59 C 131.52,158.76 131.44,159.06 131.44,159.31 C 131.44,160.07 132.01,160.65 132.41,161.28 C 132.89,162.05 133.14,162.89 133.41,163.72 C 133.65,164.47 133.9,165.2 134.03,165.97 C 134.08,166.23 134.11,166.52 134.13,166.78 C 134.34,166.31 134.59,165.88 134.91,165.47 C 135.38,164.85 135.97,164.28 136.63,163.84 C 136.62,164.04 136.64,164.25 136.69,164.44 C 136.74,164.65 136.82,164.83 136.91,165.03 C 137.0,165.23 137.09,165.42 137.22,165.59 C 137.34,165.76 137.47,165.93 137.63,166.06 C 137.81,166.21 138.01,166.28 138.25,166.28 C 138.45,166.28 138.65,166.26 138.84,166.22 C 139.06,166.17 139.24,166.09 139.44,166.0 C 139.63,165.91 139.82,165.78 140.0,165.66 C 140.16,165.54 140.31,165.4 140.44,165.25 C 140.59,165.07 140.68,164.89 140.69,164.66 C 140.69,164.46 140.67,164.26 140.63,164.06 C 140.58,163.85 140.5,163.63 140.41,163.44 C 140.32,163.24 140.19,163.08 140.06,162.91 C 139.94,162.74 139.81,162.57 139.66,162.44 C 139.47,162.29 139.3,162.22 139.06,162.22 C 138.86,162.22 138.66,162.24 138.47,162.28 C 138.26,162.33 138.04,162.41 137.84,162.5 C 137.65,162.59 137.46,162.68 137.28,162.81 C 137.22,162.86 137.18,162.92 137.13,162.97 C 137.04,162.38 136.85,161.8 136.59,161.25 C 136.21,160.43 135.65,159.7 134.97,159.22 C 134.43,158.84 133.83,158.63 133.09,158.47 C 132.83,158.41 132.54,158.37 132.28,158.38 z M 139.06,163.19 C 139.44,163.5 139.73,164.16 139.72,164.66 C 139.72,164.68 139.7,164.68 139.69,164.69 C 139.68,164.7 139.67,164.71 139.66,164.72 C 139.64,164.74 139.62,164.76 139.59,164.78 C 139.54,164.83 139.49,164.87 139.44,164.91 C 139.31,165.0 139.2,165.06 139.06,165.13 C 138.8,165.24 138.54,165.32 138.25,165.31 C 138.23,165.31 138.23,165.29 138.22,165.28 C 138.21,165.27 138.2,165.26 138.19,165.25 C 138.17,165.23 138.15,165.21 138.13,165.19 C 138.08,165.14 138.04,165.09 138.0,165.03 C 137.91,164.91 137.84,164.8 137.78,164.66 C 137.66,164.4 137.59,164.13 137.59,163.84 C 137.59,163.82 137.62,163.82 137.63,163.81 C 137.63,163.8 137.62,163.79 137.63,163.78 C 137.65,163.76 137.7,163.74 137.72,163.72 C 137.77,163.67 137.79,163.63 137.84,163.59 C 137.97,163.5 138.11,163.44 138.25,163.38 C 138.51,163.26 138.77,163.18 139.06,163.19 z M 140.78,163.47 C 140.81,163.53 140.82,163.56 140.84,163.63 C 140.89,163.75 140.94,163.9 140.97,164.03 C 141.74,164.18 142.49,164.54 143.06,165.06 C 143.18,165.01 143.31,164.98 143.44,164.94 C 143.5,164.92 143.56,164.89 143.63,164.88 C 142.88,164.11 141.84,163.6 140.78,163.47 z M 149.0,163.63 C 148.49,163.62 147.97,163.68 147.47,163.78 C 146.98,163.88 146.52,164.02 146.06,164.22 C 145.69,164.38 145.34,164.57 145.0,164.78 C 145.04,164.79 145.08,164.8 145.13,164.81 C 145.16,164.82 145.19,164.83 145.22,164.84 C 145.27,164.86 145.32,164.89 145.38,164.91 C 145.46,164.94 145.55,164.98 145.63,165.03 C 146.24,164.69 146.93,164.42 147.63,164.28 C 148.56,164.09 149.53,164.11 150.47,164.31 C 151.45,164.53 152.39,164.95 153.19,165.59 C 153.59,165.91 153.95,166.28 154.13,166.75 C 154.24,167.04 154.28,167.37 154.25,167.69 C 154.24,167.82 154.21,167.94 154.19,168.06 C 154.34,167.83 154.48,167.61 154.63,167.38 C 154.67,167.3 154.7,167.24 154.75,167.16 C 154.75,167.14 154.75,167.11 154.75,167.09 C 154.72,166.9 154.67,166.71 154.59,166.53 C 154.48,166.25 154.32,165.98 154.13,165.75 C 153.93,165.52 153.71,165.31 153.47,165.13 C 153.04,164.79 152.56,164.5 152.06,164.28 C 151.57,164.06 151.06,163.92 150.53,163.81 C 150.03,163.71 149.51,163.63 149.0,163.63 z M 144.5,165.09 C 144.28,165.1 144.06,165.14 143.84,165.19 C 143.63,165.23 143.42,165.29 143.22,165.38 C 143.03,165.46 142.88,165.56 142.72,165.69 C 142.53,165.83 142.43,165.99 142.38,166.22 C 142.33,166.41 142.31,166.61 142.31,166.81 C 142.31,167.03 142.33,167.26 142.38,167.47 C 142.42,167.68 142.51,167.9 142.59,168.09 C 142.68,168.28 142.75,168.43 142.88,168.59 C 143.02,168.78 143.21,168.88 143.44,168.94 C 143.63,168.98 143.83,169.0 144.03,169.0 C 144.25,169.0 144.44,168.98 144.66,168.94 C 144.87,168.89 145.08,168.84 145.28,168.75 C 145.46,168.67 145.63,168.56 145.78,168.44 C 145.82,169.22 145.74,170.03 145.53,170.78 C 145.39,171.27 145.19,171.73 144.94,172.19 C 145.16,172.04 145.39,171.93 145.63,171.81 C 146.32,171.46 147.07,171.19 147.81,170.94 C 148.64,170.66 149.47,170.38 150.38,170.31 C 151.12,170.25 151.92,170.33 152.53,169.88 C 152.74,169.72 152.92,169.49 152.97,169.28 C 153.08,168.84 152.63,168.42 152.22,168.06 C 151.65,167.57 151.12,167.21 150.5,167.0 C 149.71,166.74 148.76,166.73 147.88,166.91 C 147.28,167.03 146.74,167.25 146.22,167.53 C 146.22,167.46 146.22,167.39 146.22,167.31 C 146.22,167.1 146.17,166.87 146.13,166.66 C 146.08,166.44 146.03,166.23 145.94,166.03 C 145.86,165.85 145.75,165.69 145.63,165.53 C 145.48,165.34 145.32,165.21 145.09,165.16 C 144.9,165.11 144.7,165.09 144.5,165.09 z M 140.19,166.0 C 140.07,166.09 139.94,166.15 139.81,166.22 C 140.33,166.85 141.18,167.27 142.0,167.31 C 141.98,167.17 141.97,167.02 141.97,166.88 C 141.31,166.83 140.62,166.5 140.19,166.0 z M 137.16,166.06 C 137.0,166.23 136.86,166.41 136.72,166.59 C 136.47,166.93 136.23,167.27 136.06,167.66 C 135.93,167.96 135.83,168.27 135.81,168.63 C 135.79,168.93 135.82,169.27 135.78,169.5 C 135.88,169.67 136.03,169.84 136.16,170.0 C 136.22,169.91 136.25,169.82 136.28,169.72 C 136.3,169.65 136.3,169.57 136.31,169.5 C 136.32,169.42 136.34,169.36 136.34,169.28 C 136.35,169.13 136.34,168.96 136.34,168.81 C 136.34,168.74 136.34,168.69 136.34,168.63 C 136.35,168.53 136.36,168.43 136.38,168.34 C 136.41,168.17 136.49,168.01 136.56,167.84 C 136.66,167.62 136.77,167.42 136.91,167.22 C 136.98,167.11 137.08,167.01 137.16,166.91 C 137.24,166.79 137.31,166.67 137.41,166.56 C 137.45,166.51 137.49,166.45 137.53,166.41 C 137.5,166.39 137.5,166.36 137.47,166.34 C 137.44,166.32 137.4,166.3 137.38,166.28 C 137.34,166.25 137.31,166.25 137.28,166.22 C 137.23,166.17 137.2,166.11 137.16,166.06 z M 144.47,166.06 C 144.6,166.06 144.73,166.06 144.88,166.09 C 145.18,166.48 145.33,167.21 145.22,167.69 C 145.21,167.71 145.2,167.68 145.19,167.69 C 145.18,167.7 145.17,167.71 145.16,167.72 C 145.13,167.74 145.09,167.77 145.06,167.78 C 145.0,167.82 144.97,167.85 144.91,167.88 C 144.77,167.94 144.62,167.97 144.47,168.0 C 144.19,168.06 143.94,168.1 143.66,168.03 C 143.64,168.03 143.63,168.01 143.63,168.0 C 143.62,167.99 143.6,167.95 143.59,167.94 C 143.58,167.91 143.55,167.9 143.53,167.88 C 143.5,167.82 143.5,167.75 143.47,167.69 C 143.41,167.55 143.34,167.43 143.31,167.28 C 143.25,167.0 143.25,166.72 143.31,166.44 C 143.32,166.42 143.33,166.41 143.34,166.41 C 143.36,166.4 143.36,166.41 143.38,166.41 C 143.4,166.39 143.41,166.36 143.44,166.34 C 143.5,166.31 143.56,166.28 143.63,166.25 C 143.77,166.19 143.91,166.16 144.06,166.13 C 144.2,166.09 144.33,166.07 144.47,166.06 z M 143.19,169.25 C 143.17,169.31 143.17,169.38 143.16,169.44 C 143.12,169.58 143.07,169.71 143.03,169.84 C 143.0,169.97 142.95,170.09 142.91,170.22 C 142.83,170.45 142.77,170.7 142.66,170.91 C 142.57,171.06 142.46,171.21 142.34,171.34 C 142.28,171.41 142.19,171.47 142.13,171.53 C 142.07,171.58 142.02,171.62 141.97,171.66 C 141.85,171.75 141.74,171.82 141.63,171.91 C 141.56,171.96 141.5,172.04 141.44,172.09 C 141.39,172.14 141.32,172.16 141.28,172.22 C 141.21,172.3 141.16,172.4 141.13,172.5 L 141.13,172.53 C 141.34,172.54 141.57,172.52 141.78,172.5 C 141.94,172.34 142.2,172.17 142.44,171.97 C 142.71,171.74 142.93,171.47 143.09,171.19 C 143.3,170.82 143.41,170.43 143.53,170.03 C 143.6,169.81 143.67,169.57 143.72,169.34 C 143.65,169.34 143.57,169.35 143.5,169.34 C 143.46,169.34 143.42,169.32 143.38,169.31 C 143.34,169.31 143.31,169.29 143.28,169.28 C 143.25,169.27 143.22,169.26 143.19,169.25 z"
		 />

		<!-- Prism Reference -->
		<cam mingh:cam="--verb EditSelectAll --verb ZoomSelection --verb FileSave" /> 
	 </g>

</svg>
