<svg
   xmlns:xlink="http://www.w3.org/1999/xlink"
   xmlns:svg="http://www.w3.org/2000/svg"
   xmlns="http://www.w3.org/2000/svg"
   xmlns:mingh="http://www.minghworld.com"
   width="300px"
   height="300px" >
	
	 <g>
		
		<!-- Paths -->
		<path transform="matrix(-1 0 0 1 300 0)" style="fill:#ff0;stroke:none;"
		 d="M 152.78,124.25 C 152.07,124.25 151.37,124.46 150.75,124.81 C 150.13,125.17 149.61,125.67 149.25,126.28 C 148.89,126.9 148.69,127.6 148.69,128.31 C 148.69,129.02 148.89,129.76 149.25,130.38 C 149.49,130.78 149.79,131.13 150.16,131.44 C 150.38,131.63 150.29,132.0 150.0,132.06 C 149.82,132.1 149.65,132.14 149.47,132.19 C 148.63,132.41 147.76,132.77 147.03,133.22 C 145.58,134.11 144.66,135.37 144.47,136.44 C 143.08,142.88 142.15,149.33 143.09,155.78 C 143.14,156.1 143.04,156.43 142.84,156.66 C 142.65,156.89 142.35,157.03 142.03,157.03 L 140.59,157.03 C 140.23,157.07 139.73,156.65 139.72,156.28 C 139.18,152.37 139.13,148.44 139.63,144.53 C 139.86,143.44 138.82,142.23 137.72,142.34 L 136.53,142.34 C 135.93,142.34 135.27,142.57 134.78,143.0 C 134.29,143.43 133.97,144.05 133.91,144.66 C 133.3,149.35 133.57,154.03 134.38,158.72 C 134.49,160.48 136.9,162.49 138.63,162.31 L 142.28,162.31 C 143.21,162.22 144.49,163.3 144.59,164.25 C 144.99,166.1 145.41,167.93 145.72,169.78 C 145.93,171.17 146.74,172.85 147.97,174.0 C 149.2,175.15 150.82,175.79 152.22,175.75 L 153.31,175.75 C 154.7,175.79 156.39,175.15 157.47,174.0 C 158.54,172.85 159.0,171.17 158.72,169.78 C 158.68,169.54 158.64,169.3 158.59,169.06 C 158.54,168.82 158.47,168.58 158.44,168.34 C 158.37,167.83 158.45,167.31 158.75,166.94 C 158.9,166.75 159.1,166.62 159.31,166.53 C 159.53,166.44 159.76,166.39 160.0,166.38 C 160.29,166.36 160.61,166.37 160.94,166.38 C 161.26,166.38 161.61,166.38 161.94,166.38 C 162.27,166.37 162.6,166.37 162.97,166.38 C 163.34,166.38 163.74,166.38 164.03,166.38 C 164.25,166.37 164.43,166.38 164.59,166.34 C 164.76,166.31 164.93,166.26 165.09,166.19 C 165.43,166.04 165.71,165.82 165.94,165.53 C 166.16,165.25 166.31,164.89 166.38,164.53 C 166.41,164.35 166.45,164.18 166.44,164.0 C 166.43,163.82 166.38,163.61 166.34,163.41 C 166.25,162.89 166.12,162.28 166.0,161.66 C 165.88,161.04 165.76,160.42 165.66,159.81 C 165.44,158.6 165.22,157.34 165.06,156.09 C 164.74,153.6 164.59,151.1 164.69,148.44 C 164.69,148.38 164.69,148.32 164.69,148.25 C 164.68,148.18 164.67,148.11 164.66,148.03 C 164.63,147.88 164.58,147.73 164.53,147.59 C 164.43,147.31 164.29,147.06 164.09,146.84 C 163.9,146.63 163.66,146.46 163.38,146.34 C 163.09,146.23 162.74,146.17 162.5,146.16 C 162.25,146.14 162.1,146.18 161.91,146.19 C 161.81,146.19 161.72,146.16 161.63,146.16 C 161.53,146.15 161.41,146.16 161.31,146.16 C 160.77,146.16 160.15,146.38 159.69,146.81 C 159.46,147.03 159.28,147.29 159.16,147.56 C 159.09,147.7 159.06,147.83 159.03,147.97 C 159.0,148.11 158.98,148.25 158.97,148.41 C 158.91,149.43 158.93,150.55 158.97,151.63 C 159.01,152.7 159.08,153.75 159.19,154.78 C 159.41,156.85 159.76,158.88 160.09,160.81 C 160.11,160.91 160.14,161.0 160.13,161.09 C 160.11,161.19 160.06,161.3 160.0,161.38 C 159.88,161.52 159.72,161.54 159.53,161.56 C 159.3,161.59 159.04,161.6 158.84,161.59 C 158.65,161.59 158.5,161.58 158.28,161.56 C 158.14,161.55 157.97,161.56 157.81,161.5 C 157.65,161.44 157.51,161.33 157.38,161.22 C 157.24,161.1 157.11,160.96 157.03,160.81 C 156.95,160.66 156.91,160.51 156.88,160.34 C 155.07,152.38 155.62,144.4 157.47,136.44 C 157.73,135.37 157.34,134.11 156.25,133.22 C 155.88,132.91 155.43,132.64 154.94,132.44 C 154.67,132.33 154.63,131.96 154.88,131.81 C 155.46,131.46 155.97,130.96 156.31,130.38 C 156.67,129.76 156.84,129.02 156.84,128.31 C 156.84,127.6 156.67,126.9 156.31,126.28 C 155.96,125.67 155.43,125.17 154.81,124.81 C 154.2,124.46 153.49,124.25 152.78,124.25 z M 152.78,126.38 C 153.12,126.38 153.46,126.46 153.75,126.63 C 154.04,126.8 154.3,127.05 154.47,127.34 C 154.64,127.64 154.72,127.97 154.72,128.31 C 154.72,128.65 154.64,129.02 154.47,129.31 C 154.3,129.61 154.04,129.83 153.75,130.0 C 153.46,130.17 153.12,130.28 152.78,130.28 C 152.44,130.28 152.11,130.17 151.81,130.0 C 151.52,129.83 151.26,129.61 151.09,129.31 C 150.92,129.02 150.81,128.65 150.81,128.31 C 150.81,127.97 150.92,127.64 151.09,127.34 C 151.26,127.05 151.52,126.8 151.81,126.63 C 152.11,126.46 152.44,126.38 152.78,126.38 z M 151.72,133.09 C 151.82,133.1 151.91,133.19 151.97,133.38 C 152.03,133.59 152.05,133.93 152.06,134.25 C 152.07,134.66 152.09,135.02 152.06,135.31 C 152.03,135.65 151.99,135.91 151.94,136.19 C 151.85,136.7 151.73,137.29 151.63,137.88 C 151.52,138.46 151.39,139.04 151.28,139.63 C 151.17,140.21 151.06,140.79 150.97,141.38 C 150.87,141.96 150.8,142.54 150.72,143.13 C 150.63,143.71 150.54,144.29 150.47,144.88 C 150.39,145.46 150.32,146.03 150.25,146.63 C 150.18,147.22 150.12,147.84 150.09,148.41 C 150.07,148.97 150.09,149.48 150.03,150.13 C 150.01,150.43 149.97,150.75 149.91,151.06 C 149.83,151.42 149.7,151.75 149.56,151.91 C 149.42,152.06 149.26,152.04 149.09,151.75 C 148.96,151.51 148.83,151.09 148.75,150.75 C 148.66,150.39 148.62,150.12 148.59,149.84 C 148.57,149.53 148.57,149.21 148.56,148.91 C 148.55,148.33 148.53,147.72 148.56,147.13 C 148.59,146.53 148.65,145.96 148.72,145.38 C 148.78,144.79 148.86,144.18 148.94,143.59 C 149.02,143.01 149.12,142.43 149.22,141.84 C 149.31,141.26 149.4,140.67 149.5,140.09 C 149.6,139.51 149.73,138.93 149.84,138.34 C 149.96,137.76 150.05,137.17 150.19,136.63 C 150.32,136.08 150.49,135.57 150.69,134.97 C 150.8,134.61 150.95,134.22 151.09,133.88 C 151.2,133.63 151.28,133.43 151.41,133.28 C 151.51,133.17 151.62,133.09 151.72,133.09 z M 154.22,134.0 C 154.32,134.02 154.5,134.14 154.63,134.28 C 154.72,134.38 154.77,134.51 154.84,134.63 C 154.9,134.72 154.98,134.8 155.03,134.91 C 155.14,135.13 155.22,135.36 155.28,135.59 C 155.34,135.83 155.39,136.1 155.41,136.34 C 155.42,136.59 155.41,136.82 155.38,137.06 C 155.34,137.31 155.27,137.57 155.22,137.81 C 155.17,138.05 155.11,138.29 155.06,138.53 C 155.01,138.77 154.98,139.01 154.94,139.25 C 154.89,139.49 154.82,139.73 154.78,139.97 C 154.74,140.21 154.7,140.44 154.66,140.69 C 154.62,140.93 154.6,141.19 154.56,141.44 C 154.53,141.68 154.48,141.91 154.44,142.16 C 154.4,142.4 154.36,142.63 154.31,142.88 C 154.27,143.12 154.22,143.35 154.16,143.59 C 154.1,143.83 154.01,144.09 153.94,144.31 C 153.86,144.54 153.8,144.74 153.69,145.0 C 153.65,145.09 153.61,145.19 153.56,145.28 C 153.48,145.44 153.37,145.57 153.28,145.63 C 153.18,145.69 153.07,145.66 153.0,145.47 C 152.97,145.39 152.96,145.28 152.94,145.19 C 152.87,144.86 152.85,144.64 152.84,144.41 C 152.84,144.17 152.84,143.9 152.84,143.66 C 152.85,143.41 152.89,143.18 152.91,142.94 C 152.92,142.69 152.94,142.43 152.97,142.19 C 152.99,141.94 153.03,141.71 153.06,141.47 C 153.1,141.23 153.12,140.96 153.16,140.72 C 153.19,140.48 153.24,140.24 153.28,140.0 C 153.32,139.76 153.36,139.52 153.41,139.28 C 153.45,139.04 153.51,138.8 153.56,138.56 C 153.61,138.32 153.64,138.08 153.69,137.84 C 153.74,137.6 153.79,137.33 153.84,137.09 C 153.9,136.85 153.96,136.62 154.0,136.38 C 154.04,136.13 154.07,135.9 154.09,135.66 C 154.12,135.42 154.14,135.18 154.13,134.84 C 154.12,134.67 154.13,134.46 154.13,134.31 C 154.12,134.17 154.12,134.07 154.16,134.03 C 154.18,134.01 154.19,133.99 154.22,134.0 z M 148.63,134.03 C 148.72,133.99 148.77,134.01 148.78,134.06 C 148.79,134.15 148.69,134.39 148.56,134.69 C 148.45,134.96 148.3,135.27 148.19,135.56 C 147.95,136.17 147.8,136.58 147.66,137.03 C 147.51,137.49 147.39,137.99 147.28,138.47 C 147.17,138.95 147.07,139.43 147.0,139.81 C 146.95,140.06 146.93,140.28 146.81,140.72 C 146.74,140.97 146.65,141.28 146.56,141.53 C 146.31,142.22 146.07,142.36 145.94,141.94 C 145.88,141.78 145.83,141.52 145.81,141.28 C 145.78,140.9 145.8,140.5 145.81,140.16 C 145.83,139.6 145.87,139.16 145.94,138.69 C 146.0,138.21 146.1,137.73 146.25,137.25 C 146.4,136.77 146.6,136.3 146.84,135.88 C 147.09,135.45 147.36,135.07 147.81,134.66 C 147.96,134.52 148.14,134.39 148.28,134.28 C 148.43,134.17 148.53,134.07 148.63,134.03 z M 146.03,143.22 C 146.13,143.23 146.22,143.38 146.28,143.59 C 146.32,143.73 146.35,143.89 146.38,144.03 C 146.43,144.4 146.42,144.67 146.41,144.97 C 146.4,145.27 146.4,145.62 146.38,145.94 C 146.35,146.25 146.31,146.56 146.28,146.88 C 146.25,147.19 146.24,147.5 146.22,147.81 C 146.2,148.13 146.17,148.44 146.16,148.75 C 146.15,149.06 146.13,149.37 146.13,149.69 C 146.12,150.0 146.15,150.31 146.16,150.63 C 146.16,150.94 146.17,151.25 146.19,151.56 C 146.2,151.88 146.2,152.19 146.22,152.5 C 146.24,152.81 146.29,153.16 146.31,153.47 C 146.34,153.78 146.34,154.09 146.38,154.41 C 146.41,154.72 146.46,155.03 146.5,155.34 C 146.54,155.66 146.58,155.97 146.63,156.28 C 146.67,156.59 146.7,156.88 146.75,157.19 C 146.8,157.5 146.85,157.82 146.91,158.13 C 146.96,158.43 147.01,158.75 147.06,159.06 C 147.12,159.37 147.19,159.69 147.25,160.0 C 147.31,160.31 147.35,160.6 147.41,160.91 C 147.46,161.22 147.51,161.53 147.56,161.84 C 147.62,162.15 147.67,162.47 147.72,162.78 C 147.76,163.1 147.81,163.42 147.84,163.72 C 147.88,164.02 147.91,164.29 147.91,164.66 C 147.9,165.02 147.88,165.47 147.72,165.53 C 147.55,165.59 147.24,165.27 147.03,164.97 C 146.83,164.67 146.71,164.4 146.59,164.13 C 146.48,163.85 146.36,163.54 146.22,163.25 C 146.08,162.96 145.94,162.69 145.75,162.44 C 145.56,162.19 145.34,161.98 145.09,161.78 C 144.85,161.58 144.6,161.4 144.31,161.28 C 144.02,161.16 143.68,161.08 143.41,161.03 C 143.13,160.98 142.91,160.97 142.5,160.97 C 142.31,160.97 142.09,160.96 141.91,160.97 C 141.7,160.98 141.54,161.0 141.44,160.94 C 141.25,160.83 141.22,160.49 141.44,160.38 C 141.53,160.32 141.68,160.32 141.88,160.31 C 142.01,160.31 142.15,160.31 142.28,160.31 C 142.38,160.31 142.48,160.31 142.56,160.31 C 142.9,160.31 143.21,160.27 143.53,160.25 C 143.85,160.23 144.2,160.22 144.53,160.13 C 144.67,160.08 144.82,160.04 144.91,159.97 C 144.97,159.92 144.98,159.87 145.0,159.81 C 145.02,159.76 145.04,159.68 145.0,159.63 C 144.88,159.43 144.42,159.35 144.06,159.28 C 143.7,159.21 143.43,159.17 143.13,159.16 C 142.82,159.14 142.51,159.13 142.19,159.13 C 141.87,159.12 141.56,159.12 141.25,159.13 C 140.94,159.13 140.63,159.13 140.31,159.13 C 140.0,159.12 139.66,159.11 139.34,159.06 C 139.03,159.02 138.74,158.96 138.47,158.81 C 138.19,158.66 137.96,158.43 137.81,158.16 C 137.66,157.88 137.61,157.57 137.56,157.25 C 137.52,156.93 137.48,156.62 137.47,156.31 C 137.46,156.01 137.49,155.68 137.5,155.34 C 137.51,155.0 137.52,154.62 137.59,154.28 C 137.62,154.17 137.65,154.09 137.69,154.03 C 137.73,153.96 137.79,153.94 137.84,154.0 C 137.89,154.04 137.94,154.13 137.97,154.22 C 138.08,154.53 138.12,154.94 138.16,155.28 C 138.19,155.63 138.22,155.91 138.25,156.22 C 138.28,156.52 138.32,156.85 138.41,157.16 C 138.49,157.46 138.61,157.73 138.84,157.94 C 139.07,158.14 139.41,158.26 139.72,158.31 C 140.03,158.36 140.34,158.35 140.66,158.34 C 140.97,158.34 141.28,158.37 141.59,158.38 C 141.91,158.38 142.22,158.36 142.53,158.34 C 142.85,158.33 143.17,158.31 143.47,158.22 C 143.77,158.12 144.05,157.96 144.28,157.75 C 144.52,157.54 144.71,157.28 144.84,157.0 C 144.98,156.72 145.07,156.41 145.09,156.09 C 145.12,155.78 145.07,155.47 145.03,155.16 C 145.0,154.84 144.97,154.53 144.94,154.22 C 144.9,153.91 144.87,153.59 144.84,153.28 C 144.82,152.97 144.8,152.66 144.78,152.34 C 144.76,152.03 144.73,151.72 144.72,151.41 C 144.7,151.09 144.7,150.78 144.69,150.47 C 144.68,150.15 144.66,149.81 144.66,149.5 C 144.65,149.19 144.68,148.88 144.69,148.56 C 144.69,148.25 144.7,147.94 144.72,147.63 C 144.74,147.31 144.77,147.0 144.81,146.69 C 144.86,146.38 144.93,146.06 145.0,145.75 C 145.07,145.44 145.14,145.13 145.22,144.84 C 145.3,144.55 145.36,144.28 145.5,143.94 C 145.56,143.8 145.64,143.66 145.72,143.53 C 145.82,143.35 145.93,143.21 146.03,143.22 z M 136.44,144.03 C 136.5,144.02 136.55,144.01 136.56,144.03 C 136.59,144.07 136.48,144.21 136.41,144.31 C 136.33,144.42 136.28,144.49 136.25,144.59 C 136.22,144.69 136.19,144.8 136.16,144.91 C 136.13,145.01 136.11,145.11 136.09,145.22 C 136.07,145.33 136.04,145.45 136.03,145.56 C 136.02,145.67 136.01,145.77 136.0,145.88 C 135.99,145.98 135.98,146.11 135.97,146.22 C 135.96,146.33 135.95,146.42 135.94,146.53 C 135.93,146.64 135.91,146.73 135.91,146.84 C 135.9,146.95 135.91,147.08 135.91,147.19 C 135.9,147.3 135.88,147.39 135.88,147.5 C 135.87,147.61 135.86,147.74 135.84,147.84 C 135.83,147.95 135.83,148.05 135.81,148.16 C 135.8,148.26 135.77,148.39 135.75,148.5 C 135.73,148.61 135.71,148.71 135.69,148.81 C 135.67,148.92 135.64,149.01 135.63,149.13 C 135.61,149.24 135.61,149.35 135.56,149.44 C 135.51,149.53 135.4,149.6 135.34,149.56 C 135.29,149.52 135.27,149.37 135.25,149.25 C 135.23,149.13 135.23,149.04 135.22,148.94 C 135.2,148.83 135.17,148.7 135.16,148.59 C 135.14,148.48 135.13,148.39 135.13,148.28 C 135.12,148.17 135.13,148.05 135.13,147.94 C 135.12,147.83 135.09,147.73 135.09,147.63 C 135.09,147.52 135.09,147.39 135.09,147.28 C 135.1,147.17 135.12,147.08 135.13,146.97 C 135.13,146.86 135.15,146.73 135.16,146.63 C 135.16,146.52 135.18,146.42 135.19,146.31 C 135.2,146.2 135.18,146.11 135.19,146.0 C 135.2,145.89 135.21,145.76 135.22,145.66 C 135.23,145.55 135.26,145.45 135.28,145.34 C 135.31,145.24 135.36,145.13 135.41,145.03 C 135.45,144.93 135.48,144.81 135.53,144.72 C 135.59,144.63 135.65,144.55 135.72,144.47 C 135.79,144.38 135.89,144.31 135.97,144.25 C 136.05,144.19 136.13,144.14 136.25,144.09 C 136.31,144.07 136.38,144.04 136.44,144.03 z M 137.16,144.03 C 137.22,143.98 137.45,144.06 137.59,144.16 C 137.74,144.25 137.81,144.37 137.88,144.5 C 137.94,144.63 138.0,144.76 138.03,144.91 C 138.06,145.05 138.07,145.22 138.06,145.38 C 138.06,145.53 138.04,145.66 138.03,145.81 C 138.02,145.96 138.01,146.13 138.0,146.28 C 137.99,146.43 137.98,146.57 137.97,146.72 C 137.96,146.87 137.95,147.01 137.94,147.16 C 137.93,147.31 137.92,147.47 137.91,147.63 C 137.9,147.78 137.88,147.91 137.88,148.06 C 137.87,148.21 137.88,148.38 137.88,148.53 C 137.87,148.68 137.85,148.82 137.84,148.97 C 137.84,149.12 137.85,149.29 137.84,149.44 C 137.84,149.59 137.84,149.72 137.84,149.88 C 137.84,150.03 137.84,150.16 137.84,150.31 C 137.84,150.46 137.85,150.63 137.84,150.78 C 137.84,150.93 137.82,151.07 137.81,151.22 C 137.8,151.37 137.8,151.54 137.78,151.69 C 137.77,151.84 137.73,151.98 137.72,152.13 C 137.7,152.27 137.7,152.39 137.66,152.56 C 137.61,152.73 137.53,152.95 137.47,152.94 C 137.4,152.93 137.35,152.71 137.31,152.53 C 137.27,152.35 137.24,152.23 137.22,152.09 C 137.2,151.95 137.17,151.78 137.16,151.63 C 137.14,151.47 137.14,151.34 137.13,151.19 C 137.11,151.04 137.1,150.87 137.09,150.72 C 137.08,150.57 137.07,150.43 137.06,150.28 C 137.06,150.13 137.06,149.99 137.06,149.84 C 137.06,149.69 137.06,149.53 137.06,149.38 C 137.06,149.22 137.06,149.09 137.06,148.94 C 137.07,148.79 137.06,148.62 137.06,148.47 C 137.07,148.32 137.09,148.18 137.09,148.03 C 137.1,147.88 137.12,147.71 137.13,147.56 C 137.13,147.41 137.15,147.28 137.16,147.13 C 137.17,146.97 137.18,146.81 137.19,146.66 C 137.2,146.51 137.21,146.37 137.22,146.22 C 137.23,146.07 137.24,145.93 137.25,145.78 C 137.26,145.63 137.28,145.46 137.28,145.31 C 137.29,145.16 137.28,145.02 137.28,144.88 C 137.28,144.73 137.3,144.57 137.25,144.41 C 137.2,144.24 137.1,144.08 137.16,144.03 z M 153.09,146.97 C 153.21,147.0 153.31,147.26 153.38,147.5 C 153.45,147.74 153.47,147.95 153.5,148.19 C 153.52,148.39 153.55,148.61 153.56,148.81 C 153.6,149.26 153.63,149.65 153.66,150.06 C 153.68,150.47 153.69,150.9 153.72,151.31 C 153.74,151.73 153.78,152.12 153.81,152.53 C 153.84,152.94 153.87,153.37 153.91,153.78 C 153.94,154.19 153.99,154.59 154.03,155.0 C 154.08,155.41 154.14,155.81 154.19,156.22 C 154.24,156.63 154.28,157.06 154.34,157.47 C 154.41,157.88 154.47,158.28 154.53,158.69 C 154.59,159.1 154.65,159.51 154.75,159.91 C 154.85,160.31 155.0,160.68 155.22,161.03 C 155.44,161.38 155.73,161.68 156.06,161.94 C 156.39,162.19 156.77,162.41 157.16,162.53 C 157.55,162.66 157.96,162.71 158.38,162.72 C 158.79,162.73 159.21,162.69 159.66,162.69 C 160.1,162.68 160.57,162.68 160.97,162.63 C 161.37,162.57 161.69,162.46 161.84,162.16 C 161.89,162.07 161.92,161.95 161.94,161.84 C 161.97,161.6 161.92,161.36 161.88,160.94 C 161.86,160.81 161.85,160.67 161.84,160.53 C 161.84,160.42 161.84,160.31 161.84,160.22 C 161.86,159.91 161.91,159.68 162.0,159.66 C 162.09,159.64 162.22,159.83 162.34,160.09 C 162.43,160.28 162.5,160.48 162.56,160.69 C 162.71,161.17 162.74,161.54 162.69,161.94 C 162.64,162.34 162.52,162.77 162.25,163.06 C 161.98,163.35 161.57,163.5 161.16,163.56 C 160.74,163.62 160.31,163.61 159.91,163.59 C 159.51,163.58 159.14,163.59 158.75,163.59 C 158.36,163.6 157.98,163.6 157.47,163.69 C 157.29,163.72 157.1,163.77 156.94,163.81 C 156.64,163.9 156.44,163.98 156.53,164.09 C 156.6,164.18 156.85,164.28 157.13,164.34 C 157.37,164.4 157.62,164.44 157.84,164.47 C 158.31,164.52 158.62,164.53 159.06,164.53 C 159.22,164.53 159.4,164.53 159.56,164.53 C 159.86,164.54 160.14,164.58 160.41,164.66 C 160.62,164.72 160.85,164.81 160.84,164.91 C 160.84,164.99 160.61,165.07 160.41,165.13 C 160.18,165.19 159.97,165.22 159.72,165.25 C 159.51,165.28 159.29,165.3 159.06,165.31 C 158.57,165.34 158.13,165.34 157.78,165.5 C 157.43,165.66 157.17,166.0 156.97,166.34 C 156.77,166.69 156.63,167.01 156.47,167.47 C 156.39,167.7 156.32,167.96 156.22,168.19 C 156.12,168.42 156.0,168.61 155.88,168.69 C 155.73,168.79 155.58,168.72 155.44,168.5 C 155.35,168.37 155.26,168.17 155.19,168.0 C 155.0,167.55 154.88,167.21 154.75,166.84 C 154.62,166.48 154.5,166.09 154.41,165.69 C 154.31,165.29 154.24,164.87 154.16,164.47 C 154.07,164.06 153.99,163.65 153.91,163.25 C 153.82,162.85 153.71,162.47 153.63,162.06 C 153.54,161.66 153.49,161.25 153.41,160.84 C 153.33,160.44 153.23,160.03 153.16,159.63 C 153.08,159.22 153.01,158.81 152.94,158.41 C 152.87,158.0 152.78,157.6 152.72,157.19 C 152.66,156.78 152.61,156.38 152.56,155.97 C 152.51,155.56 152.47,155.13 152.44,154.72 C 152.4,154.31 152.37,153.91 152.34,153.5 C 152.32,153.09 152.29,152.66 152.28,152.25 C 152.27,151.84 152.28,151.42 152.28,151.0 C 152.29,150.58 152.28,150.19 152.31,149.78 C 152.34,149.37 152.4,148.97 152.47,148.53 C 152.5,148.33 152.55,148.11 152.59,147.91 C 152.65,147.67 152.72,147.44 152.81,147.25 C 152.89,147.08 153.0,146.95 153.09,146.97 z M 161.59,148.38 C 161.67,148.36 161.76,148.37 161.78,148.41 C 161.8,148.44 161.67,148.6 161.66,148.63 C 161.6,148.73 161.56,148.85 161.53,148.97 C 161.43,149.33 161.41,149.72 161.41,150.09 C 161.4,150.62 161.42,151.13 161.44,151.66 C 161.47,152.55 161.55,153.42 161.63,154.31 C 161.7,155.2 161.82,156.08 161.91,156.97 C 161.94,157.29 161.95,157.61 161.97,157.94 C 161.97,158.07 161.97,158.18 161.97,158.31 C 161.97,158.4 161.99,158.48 161.97,158.56 C 161.93,158.7 161.83,158.59 161.78,158.5 C 161.66,158.26 161.61,158.0 161.53,157.75 C 161.27,156.89 161.06,156.04 160.94,155.16 C 160.75,153.87 160.56,151.12 160.66,149.81 C 160.67,149.61 160.69,149.42 160.75,149.22 C 160.82,149.01 160.91,148.88 161.06,148.72 C 161.17,148.6 161.26,148.5 161.41,148.44 C 161.43,148.43 161.52,148.39 161.59,148.38 z M 162.38,148.38 C 162.6,148.37 162.83,148.5 162.97,148.66 C 163.23,148.95 163.37,149.27 163.41,149.66 C 163.47,150.25 163.42,151.26 163.34,151.84 C 163.33,151.96 163.31,152.08 163.28,152.19 C 163.27,152.24 163.25,152.35 163.19,152.38 C 163.13,152.4 163.08,152.32 163.06,152.28 C 163.0,152.17 162.98,152.06 162.94,151.94 C 162.82,151.59 162.76,151.24 162.72,150.88 C 162.68,150.51 162.67,150.15 162.66,149.78 C 162.65,149.63 162.64,149.46 162.63,149.31 C 162.6,149.1 162.55,148.89 162.47,148.69 C 162.44,148.61 162.39,148.54 162.34,148.47 C 162.31,148.42 162.29,148.38 162.38,148.38 z M 135.47,150.72 C 135.55,150.71 135.66,150.99 135.72,151.22 C 135.78,151.45 135.79,151.62 135.81,151.81 C 135.83,152.0 135.83,152.21 135.84,152.41 C 135.86,152.61 135.89,152.8 135.91,153.0 C 135.92,153.2 135.92,153.4 135.94,153.59 C 135.95,153.79 135.98,153.99 136.0,154.19 C 136.02,154.39 136.04,154.58 136.06,154.78 C 136.08,154.98 136.1,155.18 136.13,155.38 C 136.15,155.57 136.2,155.77 136.22,155.97 C 136.24,156.17 136.26,156.37 136.28,156.56 C 136.3,156.76 136.32,156.96 136.34,157.16 C 136.37,157.35 136.4,157.52 136.44,157.72 C 136.48,157.91 136.55,158.13 136.63,158.31 C 136.7,158.5 136.77,158.68 136.88,158.84 C 136.98,159.01 137.11,159.14 137.25,159.28 C 137.39,159.42 137.55,159.55 137.72,159.66 C 137.89,159.76 138.06,159.83 138.25,159.91 C 138.44,159.98 138.65,160.05 138.84,160.09 C 139.04,160.14 139.21,160.17 139.41,160.19 C 139.61,160.2 139.81,160.2 140.0,160.28 C 140.19,160.36 140.37,160.53 140.34,160.66 C 140.32,160.79 140.11,160.89 139.91,160.94 C 139.7,160.99 139.51,161.0 139.31,161.0 C 139.11,161.0 138.92,160.96 138.72,160.94 C 138.52,160.91 138.32,160.9 138.13,160.84 C 137.93,160.79 137.77,160.69 137.59,160.59 C 137.42,160.5 137.25,160.4 137.09,160.28 C 136.94,160.16 136.76,160.02 136.63,159.88 C 136.49,159.73 136.37,159.6 136.25,159.44 C 136.13,159.28 136.03,159.12 135.94,158.94 C 135.85,158.76 135.78,158.56 135.72,158.38 C 135.66,158.19 135.6,157.98 135.56,157.78 C 135.52,157.59 135.5,157.42 135.47,157.22 C 135.44,157.02 135.43,156.82 135.41,156.63 C 135.39,156.43 135.36,156.23 135.34,156.03 C 135.33,155.83 135.33,155.64 135.31,155.44 C 135.3,155.24 135.26,155.04 135.25,154.84 C 135.24,154.65 135.23,154.45 135.22,154.25 C 135.21,154.05 135.19,153.86 135.19,153.66 C 135.18,153.46 135.19,153.23 135.19,153.03 C 135.19,152.83 135.18,152.64 135.19,152.44 C 135.2,152.24 135.2,152.03 135.22,151.84 C 135.23,151.66 135.24,151.49 135.28,151.25 C 135.32,151.01 135.39,150.73 135.47,150.72 z M 149.47,153.22 C 149.52,153.22 149.57,153.25 149.63,153.31 C 149.77,153.48 149.94,153.9 150.13,154.5 C 150.23,154.85 150.33,155.25 150.44,155.72 C 150.62,156.5 150.8,157.43 150.97,158.5 C 151.3,160.63 151.69,162.6 152.34,165.59 C 152.57,166.62 152.83,167.75 153.03,168.91 C 153.1,169.28 153.14,169.66 153.19,170.03 C 153.26,170.57 153.32,171.08 153.34,171.56 C 153.37,172.13 153.34,172.64 153.31,173.06 C 153.27,173.65 153.17,174.08 153.06,174.31 C 152.99,174.47 152.92,174.52 152.81,174.53 C 152.78,174.54 152.75,174.54 152.72,174.53 C 152.62,174.51 152.54,174.46 152.47,174.31 C 152.36,174.08 152.25,173.65 152.13,173.06 C 152.03,172.64 151.92,172.13 151.81,171.56 C 151.72,171.08 151.63,170.57 151.53,170.03 C 151.46,169.66 151.39,169.3 151.31,168.91 C 151.08,167.69 150.77,166.27 150.53,165.16 C 150.04,162.84 149.84,161.8 149.66,160.75 C 149.47,159.7 149.32,158.63 149.22,157.63 C 149.16,157.03 149.11,156.47 149.09,155.94 C 149.08,155.38 149.07,154.89 149.09,154.47 C 149.14,153.71 149.28,153.22 149.47,153.22 z M 163.19,153.34 C 163.19,153.34 163.21,153.34 163.22,153.34 C 163.29,153.37 163.39,153.6 163.47,153.84 C 163.53,154.05 163.59,154.3 163.63,154.5 C 163.7,154.93 163.73,155.22 163.78,155.56 C 163.83,155.9 163.89,156.29 163.94,156.66 C 163.99,157.02 164.04,157.36 164.09,157.72 C 164.15,158.08 164.23,158.45 164.28,158.81 C 164.34,159.17 164.38,159.55 164.44,159.91 C 164.5,160.27 164.58,160.61 164.66,160.97 C 164.74,161.32 164.82,161.68 164.91,162.03 C 164.99,162.38 165.07,162.72 165.09,163.09 C 165.11,163.47 165.08,163.87 164.91,164.19 C 164.82,164.35 164.7,164.49 164.56,164.59 C 164.42,164.7 164.25,164.77 164.06,164.84 C 163.91,164.9 163.76,164.96 163.59,165.0 C 163.36,165.06 163.13,165.06 162.91,165.03 C 162.73,165.01 162.56,164.96 162.56,164.88 C 162.56,164.79 162.74,164.69 162.94,164.59 C 163.15,164.49 163.38,164.39 163.56,164.28 C 163.7,164.2 163.82,164.12 163.91,164.0 C 164.12,163.73 164.13,163.29 164.13,162.91 C 164.12,162.52 164.08,162.17 164.03,161.81 C 163.98,161.46 163.92,161.11 163.84,160.75 C 163.77,160.39 163.69,160.05 163.63,159.69 C 163.56,159.33 163.49,158.95 163.44,158.59 C 163.38,158.23 163.34,157.86 163.28,157.5 C 163.23,157.14 163.17,156.8 163.13,156.44 C 163.08,156.07 163.04,155.69 163.0,155.34 C 162.96,155.0 162.94,154.69 162.97,154.25 C 162.98,154.13 162.98,154.02 163.0,153.91 C 163.04,153.61 163.1,153.35 163.19,153.34 z M 148.03,167.47 C 148.32,167.43 148.72,167.86 148.94,168.56 C 149.0,168.77 149.03,169.0 149.06,169.16 C 149.1,169.32 149.12,169.41 149.25,170.13 C 149.3,170.37 149.36,170.69 149.44,171.03 C 149.55,171.53 149.73,172.08 149.91,172.59 C 150.09,173.1 150.27,173.57 150.19,173.66 C 150.11,173.74 149.76,173.43 149.44,173.06 C 149.06,172.64 148.74,172.13 148.44,171.56 C 148.18,171.08 147.96,170.55 147.84,170.22 C 147.77,169.99 147.74,169.87 147.72,169.75 C 147.7,169.64 147.67,169.56 147.66,169.47 C 147.48,168.31 147.68,167.52 148.03,167.47 z M 155.97,170.53 C 156.02,170.53 156.05,170.54 156.09,170.56 C 156.16,170.6 156.21,170.68 156.25,170.75 C 156.29,170.82 156.35,170.89 156.38,170.97 C 156.43,171.13 156.46,171.25 156.47,171.41 C 156.48,171.56 156.44,171.72 156.41,171.88 C 156.37,172.03 156.34,172.17 156.28,172.31 C 156.22,172.45 156.14,172.61 156.06,172.75 C 155.99,172.89 155.9,173.01 155.81,173.13 C 155.72,173.24 155.63,173.33 155.5,173.47 C 155.44,173.53 155.38,173.6 155.31,173.66 C 155.23,173.73 155.14,173.78 155.09,173.78 C 155.03,173.78 155.04,173.7 155.06,173.63 C 155.07,173.59 155.08,173.57 155.09,173.5 C 155.1,173.49 155.09,173.48 155.09,173.47 C 155.15,173.23 155.22,173.09 155.25,172.94 C 155.28,172.79 155.29,172.62 155.31,172.47 C 155.33,172.31 155.36,172.19 155.38,172.03 C 155.39,171.88 155.38,171.71 155.41,171.56 C 155.43,171.41 155.48,171.25 155.53,171.09 C 155.56,171.01 155.59,170.95 155.63,170.88 C 155.66,170.8 155.7,170.71 155.75,170.66 C 155.81,170.58 155.88,170.53 155.97,170.53 z" />
		
		
		<text id="txtTwo" transform="matrix(1 0 0 1 150 160)" style="stroke:none;fill:#f00;font-family:'Eras Medium ITC';font-size:20px;text-anchor:middle"  >

		</text>
		<!-- Prism Reference -->
		<cam mingh:cam="--verb EditSelectAll --verb ZoomSelection --verb FileSave"/> 
	 </g>

</svg>