<svg
   xmlns:xlink="http://www.w3.org/1999/xlink"
   xmlns:svg="http://www.w3.org/2000/svg"
   xmlns="http://www.w3.org/2000/svg"
   xmlns:mingh="http://www.minghworld.com"
   width="300px"
   height="300px" >
	
	 <g>
		
		<!-- Paths -->
		<path style="fill:none;stroke:#000;stroke-width:0.25px;"
		 d="M 150.0,123.25 C 148.4,123.25 146.94,124.2 146.28,125.66 C 145.62,127.11 145.88,128.8 146.94,130.0 C 147.15,130.25 147.01,130.64 146.69,130.69 C 145.67,130.83 142.74,131.34 142.06,132.5 C 141.81,132.93 141.96,133.31 142.28,133.63 C 142.6,133.93 142.98,134.14 143.38,134.31 C 144.16,134.66 144.97,134.85 145.81,135.0 C 146.03,135.04 146.12,135.27 146.03,135.47 C 145.54,136.54 145.4,137.75 145.59,138.91 C 145.78,140.02 146.31,141.23 147.22,141.97 C 147.48,142.18 147.99,142.61 148.0,143.03 C 148.0,143.26 147.86,143.5 147.63,143.56 C 147.4,143.62 147.15,143.5 147.0,143.34 C 145.46,142.37 143.52,140.97 142.19,139.72 C 141.78,139.34 141.39,138.95 141.06,138.5 C 140.82,138.16 140.56,137.71 140.56,137.25 C 140.57,137.0 140.66,136.73 140.81,136.53 C 140.98,136.32 141.19,136.25 141.44,136.19 C 141.68,136.13 141.91,136.05 142.09,135.84 C 142.28,135.64 142.36,135.43 142.41,135.16 C 142.49,134.65 142.32,134.14 142.0,133.75 C 141.68,133.36 141.22,133.08 140.72,133.03 C 140.23,132.98 139.73,133.11 139.31,133.38 C 138.87,133.65 138.56,134.1 138.34,134.56 C 137.91,135.49 137.87,136.55 138.22,137.5 C 138.58,138.48 139.28,139.2 140.06,139.81 C 140.13,139.86 140.08,139.97 140.0,139.94 C 138.81,139.47 137.72,138.89 136.69,138.13 C 136.19,137.76 135.71,137.36 135.28,136.91 C 134.83,136.42 134.51,135.89 134.41,135.22 C 134.37,134.95 134.35,134.5 134.53,134.25 C 134.72,133.99 135.02,133.99 135.28,134.06 C 135.93,134.24 136.41,134.67 137.19,134.38 C 137.84,134.13 138.36,133.45 138.53,132.81 C 138.68,132.26 138.6,131.68 138.41,131.16 C 137.94,129.92 136.77,129.16 135.5,129.03 C 134.2,128.89 132.96,129.42 132.16,130.47 C 131.4,131.47 131.05,132.79 131.13,134.03 C 131.2,135.31 131.7,136.53 132.53,137.5 C 132.59,137.57 132.52,137.66 132.44,137.63 C 131.43,137.22 130.23,137.49 129.38,138.09 C 128.47,138.73 127.96,139.74 127.88,140.81 C 127.79,141.87 128.12,142.99 128.84,143.78 C 129.57,144.58 130.66,144.98 131.69,145.13 C 131.78,145.14 131.77,145.28 131.69,145.31 C 130.62,145.75 129.93,146.76 129.91,147.91 C 129.88,149.05 130.5,150.14 131.5,150.69 C 132.64,151.32 133.69,150.92 134.69,150.38 C 135.67,149.84 136.57,149.16 137.53,148.59 C 137.63,148.52 137.75,148.57 137.84,148.63 C 137.95,148.69 138.05,148.78 138.13,148.88 C 138.2,148.97 138.22,149.07 138.25,149.19 C 138.27,149.29 138.29,149.42 138.19,149.5 C 137.2,150.42 136.98,151.8 137.25,153.03 C 137.54,154.39 138.32,155.3 139.53,155.94 C 140.67,156.54 141.96,156.7 143.22,156.47 C 143.86,156.35 144.46,156.12 145.03,155.81 C 145.51,155.55 146.17,155.11 146.56,154.72 C 146.64,154.64 146.78,154.74 146.75,154.84 C 146.12,156.86 145.28,158.82 144.0,160.53 C 142.71,162.26 141.13,163.66 139.5,165.03 C 138.69,165.71 137.86,166.39 137.06,167.09 C 136.23,167.83 135.59,168.56 135.59,169.78 C 135.59,170.9 136.16,171.87 137.25,172.25 C 138.25,172.6 139.47,172.33 140.25,171.63 C 140.3,171.58 140.37,171.62 140.34,171.69 C 140.1,172.38 140.14,173.21 140.47,173.88 C 140.82,174.58 141.45,175.02 142.19,175.22 C 143.63,175.6 145.42,175.06 145.91,173.5 C 145.93,173.43 146.02,173.42 146.03,173.5 C 146.14,174.49 146.52,175.29 147.34,175.91 C 148.09,176.47 149.04,176.75 149.97,176.75 C 150.87,176.75 151.87,176.51 152.63,175.97 C 153.39,175.42 153.89,174.53 154.0,173.59 C 154.01,173.52 154.1,173.52 154.13,173.59 C 154.66,175.1 156.46,175.62 157.88,175.22 C 158.6,175.01 159.23,174.57 159.56,173.88 C 159.88,173.21 159.9,172.38 159.66,171.69 C 159.63,171.62 159.7,171.58 159.75,171.63 C 160.53,172.33 161.75,172.6 162.75,172.25 C 163.84,171.87 164.41,170.9 164.41,169.78 C 164.41,168.56 163.77,167.83 162.94,167.09 C 162.14,166.39 161.31,165.71 160.5,165.03 C 158.87,163.66 157.29,162.26 156.0,160.53 C 154.72,158.82 153.88,156.86 153.25,154.84 C 153.22,154.74 153.36,154.64 153.44,154.72 C 153.83,155.11 154.52,155.55 155.0,155.81 C 155.57,156.12 156.14,156.35 156.78,156.47 C 158.04,156.7 159.36,156.54 160.5,155.94 C 161.71,155.3 162.46,154.39 162.75,153.03 C 163.01,151.79 162.78,150.41 161.78,149.5 C 161.51,149.21 162.11,148.42 162.47,148.59 C 163.44,149.16 164.33,149.8 165.31,150.34 C 166.31,150.89 167.33,151.31 168.47,150.69 C 169.47,150.14 170.12,149.08 170.09,147.94 C 170.07,146.79 169.38,145.75 168.31,145.31 C 168.23,145.28 168.22,145.14 168.31,145.13 C 169.34,144.98 170.43,144.58 171.16,143.78 C 171.88,142.99 172.21,141.87 172.13,140.81 C 172.04,139.74 171.53,138.73 170.63,138.09 C 169.77,137.49 168.58,137.22 167.56,137.63 C 167.48,137.66 167.41,137.57 167.47,137.5 C 168.3,136.53 168.8,135.31 168.88,134.03 C 168.95,132.79 168.6,131.47 167.84,130.47 C 167.05,129.42 165.8,128.89 164.5,129.03 C 163.23,129.16 162.06,129.92 161.59,131.16 C 161.4,131.68 161.32,132.26 161.47,132.81 C 161.64,133.45 162.16,134.13 162.81,134.38 C 163.59,134.67 164.07,134.24 164.72,134.06 C 164.98,133.99 165.28,133.99 165.47,134.25 C 165.65,134.5 165.63,134.95 165.59,135.22 C 165.49,135.89 165.17,136.42 164.72,136.91 C 164.29,137.36 163.81,137.76 163.31,138.13 C 162.28,138.89 161.19,139.47 160.0,139.94 C 159.92,139.97 159.87,139.86 159.94,139.81 C 160.72,139.19 161.42,138.49 161.78,137.5 C 162.13,136.55 162.09,135.49 161.66,134.56 C 161.44,134.1 161.13,133.65 160.69,133.38 C 160.27,133.11 159.77,132.98 159.28,133.03 C 158.78,133.08 158.32,133.36 158.0,133.75 C 157.68,134.14 157.51,134.65 157.59,135.16 C 157.64,135.43 157.72,135.64 157.91,135.84 C 158.09,136.05 158.32,136.13 158.56,136.19 C 158.81,136.25 159.02,136.32 159.19,136.53 C 159.34,136.73 159.43,137.0 159.44,137.25 C 159.44,137.71 159.18,138.16 158.94,138.5 C 158.61,138.95 158.22,139.34 157.81,139.72 C 156.48,140.97 154.54,142.37 153.0,143.34 C 152.85,143.5 152.6,143.62 152.38,143.56 C 152.14,143.5 152.0,143.26 152.0,143.03 C 152.01,142.61 152.52,142.18 152.78,141.97 C 153.68,141.23 154.22,140.02 154.41,138.91 C 154.6,137.75 154.46,136.54 153.97,135.47 C 153.87,135.27 153.97,135.04 154.19,135.0 C 155.03,134.85 155.84,134.66 156.63,134.31 C 157.02,134.14 157.4,133.93 157.72,133.63 C 158.04,133.31 158.19,132.93 157.94,132.5 C 157.26,131.34 154.33,130.83 153.31,130.69 C 152.99,130.64 152.85,130.25 153.06,130.0 C 154.12,128.8 154.38,127.11 153.72,125.66 C 153.06,124.2 151.6,123.25 150.0,123.25 z M 150.0,125.38 C 150.26,125.38 150.51,125.43 150.75,125.53 C 150.99,125.63 151.19,125.76 151.38,125.94 C 151.56,126.12 151.71,126.36 151.81,126.59 C 151.91,126.83 151.94,127.09 151.94,127.34 C 151.94,127.6 151.91,127.83 151.81,128.06 C 151.71,128.3 151.56,128.54 151.38,128.72 C 151.19,128.9 150.99,129.03 150.75,129.13 C 150.51,129.22 150.26,129.28 150.0,129.28 C 149.74,129.28 149.49,129.22 149.25,129.13 C 149.01,129.03 148.81,128.9 148.63,128.72 C 148.44,128.54 148.29,128.3 148.19,128.06 C 148.09,127.83 148.06,127.6 148.06,127.34 C 148.06,127.09 148.09,126.83 148.19,126.59 C 148.29,126.36 148.44,126.12 148.63,125.94 C 148.81,125.76 149.01,125.63 149.25,125.53 C 149.49,125.43 149.74,125.38 150.0,125.38 z M 150.0,131.84 C 151.0,131.84 152.36,131.92 153.34,132.16 C 153.56,132.21 153.77,132.25 153.97,132.34 C 154.06,132.39 154.19,132.46 154.25,132.56 C 154.36,132.78 153.99,132.94 153.84,133.0 C 153.34,133.2 152.74,133.28 152.22,133.34 C 152.18,133.35 152.13,133.34 152.09,133.31 C 150.82,132.51 149.18,132.51 147.91,133.31 C 147.87,133.34 147.82,133.35 147.78,133.34 C 147.26,133.28 146.66,133.2 146.16,133.0 C 146.01,132.94 145.64,132.78 145.75,132.56 C 145.81,132.46 145.94,132.39 146.03,132.34 C 146.23,132.25 146.44,132.21 146.66,132.16 C 147.64,131.92 149.0,131.84 150.0,131.84 z M 133.66,138.66 C 133.69,138.63 133.75,138.63 133.78,138.66 C 133.89,138.74 133.99,138.83 134.09,138.91 C 135.22,139.74 136.34,140.35 137.56,140.94 C 138.65,141.46 139.81,141.95 140.97,142.53 C 141.24,142.67 141.51,142.82 141.78,142.97 C 141.85,143.01 141.8,143.11 141.72,143.09 C 140.89,142.91 140.01,142.83 139.13,142.81 C 137.72,142.78 136.34,142.85 134.91,142.91 C 134.21,142.93 133.5,142.96 132.78,142.84 C 132.52,142.8 132.26,142.73 132.06,142.56 C 131.89,142.41 131.75,142.2 131.75,141.97 C 131.75,141.74 131.89,141.49 132.06,141.34 C 132.28,141.16 132.58,141.12 132.84,141.0 C 133.04,140.91 133.2,140.79 133.34,140.63 C 133.51,140.43 133.63,140.16 133.69,139.91 C 133.78,139.52 133.76,139.14 133.63,138.78 C 133.61,138.74 133.63,138.68 133.66,138.66 z M 166.22,138.66 C 166.29,138.6 166.41,138.7 166.38,138.78 C 166.24,139.14 166.22,139.52 166.31,139.91 C 166.37,140.16 166.46,140.43 166.63,140.63 C 166.76,140.79 166.96,140.91 167.16,141.0 C 167.42,141.12 167.72,141.16 167.94,141.34 C 168.11,141.49 168.25,141.74 168.25,141.97 C 168.25,142.2 168.11,142.41 167.94,142.56 C 167.74,142.73 167.48,142.8 167.22,142.84 C 166.5,142.96 165.79,142.93 165.09,142.91 C 163.66,142.85 162.28,142.78 160.88,142.81 C 159.99,142.83 159.11,142.91 158.28,143.09 C 158.2,143.11 158.15,143.01 158.22,142.97 C 158.49,142.82 158.76,142.67 159.03,142.53 C 160.19,141.95 161.35,141.46 162.44,140.94 C 163.66,140.35 164.78,139.74 165.91,138.91 C 166.01,138.83 166.11,138.74 166.22,138.66 z M 139.44,144.84 C 140.37,144.87 141.32,144.98 142.25,145.28 C 142.61,145.4 142.96,145.55 143.31,145.72 C 143.4,145.76 143.34,145.87 143.25,145.84 C 143.18,145.82 143.1,145.8 143.03,145.78 C 142.42,145.6 141.84,145.49 141.25,145.5 C 140.4,145.51 139.57,145.77 138.81,146.06 C 138.03,146.36 137.31,146.69 136.59,147.13 C 135.75,147.63 134.88,148.25 133.88,148.63 C 133.72,148.68 133.56,148.76 133.41,148.72 C 133.29,148.69 133.21,148.58 133.16,148.47 C 133.1,148.35 133.1,148.21 133.16,148.09 C 133.22,147.94 133.36,147.83 133.5,147.75 C 133.67,147.65 133.85,147.58 134.0,147.47 C 134.07,147.41 134.14,147.36 134.19,147.28 C 134.24,147.19 134.26,147.1 134.28,147.0 C 134.31,146.88 134.32,146.75 134.31,146.63 C 134.3,146.49 134.3,146.35 134.25,146.22 C 134.13,145.87 133.87,145.57 133.56,145.38 C 133.49,145.33 133.54,145.19 133.63,145.19 C 134.34,145.16 135.05,145.09 135.75,145.03 C 137.01,144.92 138.22,144.81 139.44,144.84 z M 160.56,144.84 C 161.78,144.81 162.99,144.92 164.25,145.03 C 164.95,145.09 165.66,145.16 166.38,145.19 C 166.46,145.19 166.51,145.33 166.44,145.38 C 166.13,145.57 165.87,145.87 165.75,146.22 C 165.7,146.35 165.7,146.49 165.69,146.63 C 165.68,146.75 165.69,146.88 165.72,147.0 C 165.74,147.1 165.76,147.19 165.81,147.28 C 165.86,147.36 165.93,147.41 166.0,147.47 C 166.15,147.58 166.33,147.65 166.5,147.75 C 166.64,147.83 166.78,147.94 166.84,148.09 C 166.9,148.21 166.9,148.35 166.84,148.47 C 166.79,148.58 166.71,148.69 166.59,148.72 C 166.44,148.76 166.28,148.68 166.13,148.63 C 165.12,148.25 164.25,147.63 163.41,147.13 C 162.69,146.69 161.97,146.36 161.19,146.06 C 160.43,145.77 159.6,145.51 158.75,145.5 C 158.16,145.49 157.55,145.6 156.94,145.78 C 156.87,145.8 156.82,145.82 156.75,145.84 C 156.66,145.87 156.6,145.76 156.69,145.72 C 157.03,145.55 157.39,145.4 157.75,145.28 C 158.68,144.98 159.63,144.87 160.56,144.84 z M 140.63,147.44 C 141.69,147.34 142.88,147.74 143.5,148.69 C 144.01,149.48 144.24,150.95 144.19,151.84 C 144.16,152.37 144.04,152.87 143.78,153.34 C 143.51,153.85 143.07,154.27 142.56,154.53 C 141.61,155.03 140.32,154.93 139.5,154.19 C 139.1,153.83 138.82,153.27 138.88,152.72 C 138.93,152.16 139.33,151.69 139.88,151.53 C 140.51,151.34 141.01,151.72 141.53,151.91 C 141.79,152.0 142.02,152.02 142.28,151.88 C 142.53,151.74 142.66,151.56 142.78,151.31 C 143.02,150.82 143.0,150.2 142.75,149.72 C 142.49,149.22 142.02,148.89 141.5,148.72 C 140.72,148.47 139.82,148.58 139.09,148.91 C 138.87,149.01 138.65,148.63 138.59,148.47 C 138.56,148.36 138.54,148.21 138.59,148.09 C 138.61,148.05 138.64,148.02 138.69,148.0 C 138.75,147.97 138.81,147.93 138.88,147.91 C 139.44,147.67 140.01,147.49 140.63,147.44 z M 159.38,147.44 C 159.99,147.49 160.56,147.67 161.13,147.91 C 161.19,147.93 161.25,147.97 161.31,148.0 C 161.36,148.02 161.39,148.05 161.41,148.09 C 161.46,148.21 161.44,148.36 161.41,148.47 C 161.35,148.63 161.13,149.01 160.91,148.91 C 160.18,148.58 159.28,148.47 158.5,148.72 C 157.98,148.89 157.51,149.22 157.25,149.72 C 157.0,150.2 156.98,150.82 157.22,151.31 C 157.34,151.56 157.47,151.74 157.72,151.88 C 157.98,152.02 158.21,152.0 158.47,151.91 C 158.99,151.72 159.49,151.34 160.13,151.53 C 160.67,151.69 161.07,152.16 161.13,152.72 C 161.18,153.27 160.9,153.83 160.5,154.19 C 159.68,154.93 158.39,155.03 157.44,154.53 C 156.93,154.27 156.49,153.85 156.22,153.34 C 155.96,152.87 155.84,152.37 155.81,151.84 C 155.76,150.95 155.99,149.48 156.5,148.69 C 157.12,147.74 158.31,147.34 159.38,147.44 z"
		 />
		 <path style="fill:#f00;stroke:none;"
		 d="M 153.58,147.03 C 154.26,145.3 155.24,143.9 156.57,142.61 C 157.23,141.97 157.91,141.38 158.63,140.81 C 158.8,140.67 158.98,140.54 159.17,140.4 C 159.21,140.37 159.26,140.33 159.3,140.3 C 159.33,140.28 159.35,140.26 159.37,140.25 C 159.38,140.24 159.39,140.23 159.41,140.22 C 159.42,140.21 159.42,140.23 159.43,140.24 C 159.51,140.31 159.62,140.24 159.7,140.22 C 159.91,140.14 160.12,140.05 160.33,139.97 C 160.44,139.92 160.54,139.88 160.64,139.83 C 160.69,139.81 160.75,139.78 160.8,139.76 C 160.81,139.75 160.82,139.75 160.84,139.74 C 160.84,139.74 160.84,139.74 160.85,139.74 C 160.85,139.74 160.85,139.74 160.84,139.74 C 160.84,139.75 160.83,139.75 160.83,139.76 C 160.81,139.78 160.79,139.79 160.77,139.81 C 160.45,140.09 158.98,141.22 158.66,141.49 C 157.96,142.05 157.28,142.63 156.65,143.28 C 156.02,143.92 155.47,144.61 155.0,145.38 C 154.88,145.57 154.77,145.76 154.66,145.96 C 154.64,146.0 154.61,146.05 154.58,146.1 C 154.57,146.13 154.56,146.15 154.55,146.18 C 154.54,146.18 154.54,146.19 154.54,146.2 C 154.53,146.21 154.54,146.19 154.55,146.18 C 154.55,146.17 154.56,146.16 154.57,146.15 C 154.64,146.06 154.71,145.97 154.78,145.88 C 155.07,145.52 155.37,145.18 155.69,144.86 C 156.01,144.53 156.35,144.23 156.72,143.94 C 156.89,143.8 157.08,143.66 157.27,143.53 C 157.36,143.47 157.45,143.41 157.55,143.34 C 157.56,143.34 157.57,143.33 157.58,143.32 C 157.6,143.31 157.6,143.33 157.6,143.34 C 157.62,143.35 157.63,143.36 157.65,143.37 C 157.7,143.39 157.74,143.38 157.78,143.37 C 158.22,143.23 158.66,143.15 159.11,143.08 C 159.11,143.08 159.12,143.08 159.12,143.08 C 159.12,143.08 159.11,143.09 159.11,143.09 C 159.1,143.09 159.1,143.09 159.09,143.1 C 159.08,143.1 159.06,143.11 159.05,143.11 C 159.03,143.13 159.0,143.14 158.98,143.15 C 158.93,143.18 158.88,143.2 158.82,143.23 C 158.72,143.28 158.62,143.33 158.52,143.39 C 158.32,143.5 158.13,143.61 157.94,143.73 C 157.16,144.21 156.49,144.78 155.87,145.44 C 155.56,145.76 155.27,146.11 155.0,146.46 C 154.86,146.64 154.73,146.82 154.61,147.01 C 154.54,147.1 154.48,147.2 154.42,147.29 C 154.4,147.31 154.39,147.34 154.37,147.36 C 154.36,147.38 154.39,147.35 154.39,147.34 C 154.41,147.33 154.42,147.32 154.43,147.31 C 154.47,147.28 154.51,147.24 154.55,147.2 C 154.89,146.89 155.25,146.61 155.63,146.35 C 155.68,146.32 155.73,146.28 155.77,146.25 C 155.79,146.24 155.8,146.24 155.81,146.23 C 155.82,146.22 155.81,146.24 155.82,146.24 C 155.82,146.24 155.82,146.25 155.83,146.25 C 155.84,146.26 155.85,146.27 155.87,146.28 C 155.96,146.32 156.09,146.24 156.16,146.21 C 156.37,146.13 156.58,146.05 156.8,145.98 C 157.24,145.84 157.67,145.74 158.13,145.69 C 158.19,145.68 158.24,145.67 158.3,145.67 C 158.31,145.67 158.33,145.67 158.34,145.67 C 158.36,145.67 158.33,145.67 158.32,145.67 C 158.29,145.68 158.26,145.69 158.24,145.7 C 158.13,145.73 158.02,145.76 157.91,145.79 C 157.69,145.87 157.48,145.95 157.27,146.04 C 156.45,146.4 155.74,146.87 155.06,147.45 C 154.9,147.6 154.74,147.75 154.58,147.9 C 154.5,147.98 154.43,148.06 154.35,148.14 C 154.32,148.18 154.28,148.22 154.24,148.26 C 154.22,148.28 154.2,148.3 154.19,148.32 C 154.18,148.33 154.17,148.34 154.16,148.35 C 154.15,148.35 154.15,148.36 154.14,148.36 C 154.14,148.37 154.14,148.35 154.14,148.35 C 154.03,147.87 153.84,147.45 153.58,147.03 z M 146.42,147.03 C 146.16,147.45 145.97,147.87 145.86,148.35 C 145.86,148.35 145.86,148.37 145.86,148.36 C 145.85,148.36 145.85,148.35 145.84,148.35 C 145.83,148.34 145.82,148.33 145.81,148.32 C 145.8,148.3 145.78,148.28 145.76,148.26 C 145.72,148.22 145.68,148.18 145.65,148.14 C 145.57,148.06 145.5,147.98 145.42,147.9 C 145.26,147.75 145.1,147.6 144.94,147.45 C 144.26,146.87 143.55,146.4 142.73,146.04 C 142.52,145.95 142.31,145.86 142.09,145.79 C 141.98,145.76 141.87,145.73 141.76,145.7 C 141.74,145.69 141.71,145.68 141.68,145.67 C 141.67,145.67 141.64,145.67 141.66,145.67 C 141.67,145.67 141.69,145.67 141.7,145.67 C 141.76,145.67 141.81,145.68 141.87,145.69 C 142.33,145.74 142.76,145.84 143.2,145.98 C 143.42,146.05 143.63,146.13 143.84,146.21 C 143.91,146.24 144.04,146.32 144.13,146.28 C 144.15,146.27 144.16,146.26 144.17,146.25 C 144.18,146.25 144.18,146.24 144.18,146.24 C 144.19,146.24 144.18,146.22 144.19,146.23 C 144.2,146.24 144.21,146.24 144.23,146.25 C 144.27,146.28 144.32,146.32 144.37,146.35 C 144.75,146.61 145.11,146.89 145.45,147.2 C 145.49,147.24 145.53,147.28 145.57,147.31 C 145.58,147.32 145.59,147.33 145.6,147.34 C 145.61,147.35 145.64,147.38 145.63,147.36 C 145.61,147.34 145.6,147.31 145.58,147.29 C 145.52,147.2 145.46,147.1 145.39,147.01 C 145.27,146.82 145.14,146.64 145.0,146.46 C 144.73,146.11 144.44,145.76 144.13,145.44 C 143.51,144.78 142.84,144.21 142.06,143.73 C 141.87,143.61 141.67,143.5 141.48,143.39 C 141.38,143.33 141.28,143.28 141.17,143.23 C 141.12,143.2 141.07,143.18 141.02,143.15 C 141.0,143.14 140.97,143.13 140.95,143.11 C 140.93,143.11 140.92,143.1 140.91,143.1 C 140.9,143.09 140.9,143.09 140.89,143.09 C 140.89,143.08 140.87,143.08 140.88,143.08 C 140.88,143.08 140.89,143.08 140.89,143.08 C 141.34,143.15 141.78,143.23 142.22,143.37 C 142.27,143.38 142.3,143.39 142.35,143.37 C 142.37,143.36 142.38,143.35 142.4,143.34 C 142.43,143.31 142.43,143.33 142.45,143.34 C 142.55,143.41 142.64,143.47 142.74,143.53 C 142.92,143.66 143.11,143.8 143.29,143.94 C 143.65,144.23 143.99,144.53 144.31,144.86 C 144.63,145.18 144.93,145.52 145.22,145.88 C 145.29,145.97 145.36,146.06 145.43,146.15 C 145.44,146.16 145.45,146.17 145.45,146.18 C 145.46,146.19 145.47,146.2 145.46,146.19 C 145.46,146.19 145.46,146.18 145.45,146.17 C 145.44,146.15 145.43,146.13 145.41,146.1 C 145.39,146.05 145.36,146.0 145.33,145.95 C 145.23,145.76 145.12,145.57 145.0,145.38 C 144.52,144.61 143.98,143.92 143.35,143.28 C 142.72,142.63 142.04,142.05 141.34,141.49 C 141.02,141.22 139.55,140.09 139.23,139.81 C 139.21,139.79 139.19,139.78 139.17,139.76 C 139.17,139.75 139.16,139.75 139.16,139.74 C 139.15,139.74 139.15,139.74 139.15,139.74 C 139.16,139.74 139.16,139.74 139.16,139.74 C 139.18,139.75 139.19,139.75 139.2,139.76 C 139.25,139.78 139.3,139.81 139.36,139.83 C 139.46,139.88 139.56,139.92 139.67,139.97 C 139.88,140.05 140.09,140.14 140.3,140.22 C 140.38,140.24 140.49,140.31 140.57,140.24 C 140.58,140.23 140.58,140.21 140.59,140.22 C 140.61,140.23 140.62,140.24 140.63,140.25 C 140.65,140.26 140.67,140.28 140.7,140.3 C 140.74,140.33 140.79,140.37 140.83,140.4 C 141.02,140.54 141.2,140.67 141.37,140.81 C 142.09,141.38 142.77,141.97 143.43,142.61 C 144.76,143.9 145.74,145.3 146.42,147.03 z M 146.0,172.67 C 145.95,171.65 145.18,170.85 144.14,170.86 C 143.95,170.86 143.61,170.89 143.44,170.97 C 143.2,171.07 143.03,171.27 142.98,171.52 C 142.87,172.02 143.27,172.5 143.79,172.47 C 143.99,172.45 144.3,172.29 144.41,172.6 C 144.5,172.82 144.41,173.11 144.28,173.28 C 143.99,173.68 143.43,173.81 142.99,173.79 C 142.54,173.76 141.98,173.58 141.81,173.09 C 141.64,172.58 141.8,172.14 142.08,171.73 C 142.51,171.09 143.46,170.11 143.96,169.54 C 144.6,168.82 145.2,168.07 145.73,167.26 C 146.81,165.61 147.48,163.86 147.97,161.97 C 148.38,160.33 148.76,157.95 149.02,156.29 C 149.03,156.23 149.04,156.17 149.05,156.11 C 149.05,156.08 149.06,156.05 149.06,156.02 C 149.06,156.01 149.06,156.03 149.06,156.04 C 149.06,156.05 149.06,156.05 149.06,156.06 C 149.06,156.08 149.06,156.09 149.06,156.11 C 149.05,156.23 149.05,156.35 149.04,156.47 C 149.03,156.71 149.02,156.95 149.01,157.19 C 148.98,157.67 148.96,158.15 148.93,158.63 C 148.87,159.59 148.81,160.55 148.72,161.51 C 148.55,163.53 148.35,165.23 147.68,167.17 C 147.37,168.09 146.98,168.97 146.64,169.87 C 146.29,170.78 146.03,171.67 146.0,172.67 z M 154.0,172.89 C 153.87,171.85 153.2,170.95 152.23,170.52 C 151.28,170.11 150.14,170.19 149.31,170.87 C 148.91,171.19 148.61,171.64 148.49,172.14 C 148.38,172.64 148.42,173.19 148.69,173.64 C 149.24,174.57 150.61,174.7 151.38,173.97 C 151.79,173.59 151.73,172.94 151.22,172.68 C 150.97,172.56 150.68,172.58 150.45,172.72 C 150.33,172.8 150.31,172.89 150.13,172.88 C 150.04,172.87 150.02,172.86 150.0,172.77 C 149.99,172.7 149.99,172.64 150.0,172.57 C 150.03,172.31 150.23,172.1 150.44,171.98 C 150.69,171.84 150.91,171.81 151.19,171.84 C 151.72,171.9 152.16,172.23 152.36,172.73 C 152.56,173.23 152.44,173.77 152.16,174.21 C 151.86,174.67 151.42,174.91 150.91,175.06 C 150.44,175.19 149.88,175.23 149.38,175.14 C 148.91,175.05 148.37,174.82 148.03,174.45 C 147.66,174.05 147.58,173.5 147.56,173.01 C 147.54,172.48 147.61,171.99 147.75,171.48 C 147.97,170.65 148.52,169.38 148.83,168.59 C 149.68,166.38 149.95,164.91 150.19,162.57 C 150.24,162.06 150.29,161.55 150.33,161.04 C 150.35,160.78 150.37,160.52 150.39,160.26 C 150.39,160.2 150.4,160.14 150.4,160.07 C 150.4,160.04 150.4,160.01 150.41,159.98 C 150.41,159.96 150.41,159.94 150.41,159.93 C 150.41,159.91 150.41,159.86 150.41,159.89 C 150.43,160.01 150.44,160.14 150.45,160.27 C 150.56,161.3 150.7,162.31 150.94,163.32 C 151.21,164.46 151.5,165.16 151.98,166.23 C 152.2,166.7 152.4,167.16 152.49,167.68 C 152.53,167.91 152.55,168.21 152.41,168.43 C 152.28,168.65 152.03,168.8 151.79,168.86 C 151.33,168.99 150.65,168.9 150.5,168.34 C 150.44,168.13 150.46,167.77 150.66,167.62 C 150.72,167.58 150.77,167.57 150.84,167.59 C 150.92,167.6 150.94,167.66 150.98,167.71 C 151.05,167.83 151.14,167.91 151.27,167.95 C 151.52,168.04 151.8,167.95 151.94,167.72 C 152.1,167.46 152.02,167.22 151.86,166.99 C 151.55,166.55 151.02,166.36 150.5,166.48 C 149.97,166.59 149.6,167.01 149.44,167.5 C 149.27,167.99 149.31,168.54 149.54,169.0 C 150.05,169.98 151.28,170.24 152.24,169.91 C 152.72,169.75 153.16,169.42 153.42,168.97 C 153.68,168.49 153.69,167.97 153.6,167.46 C 153.42,166.41 152.87,165.54 152.51,164.58 C 152.13,163.6 151.92,162.61 151.76,161.58 C 151.68,161.08 151.62,160.56 151.57,160.05 C 151.56,159.92 151.54,159.79 151.53,159.67 C 151.53,159.63 151.53,159.6 151.52,159.57 C 151.52,159.55 151.53,159.59 151.53,159.6 C 151.53,159.61 151.53,159.63 151.54,159.65 C 151.55,159.71 151.56,159.77 151.57,159.84 C 151.62,160.09 151.67,160.34 151.72,160.59 C 152.14,162.64 152.7,164.56 153.75,166.41 C 154.26,167.31 154.86,168.14 155.52,168.94 C 156.18,169.73 156.91,170.46 157.56,171.26 C 157.86,171.62 158.24,172.07 158.25,172.61 C 158.28,173.22 157.98,173.57 157.4,173.73 C 156.94,173.85 156.32,173.8 155.92,173.49 C 155.72,173.33 155.57,173.1 155.55,172.84 C 155.55,172.7 155.55,172.59 155.66,172.48 C 155.76,172.39 155.93,172.41 156.03,172.43 C 156.32,172.49 156.53,172.48 156.76,172.28 C 156.96,172.11 157.06,171.86 157.03,171.61 C 157.01,171.34 156.84,171.1 156.59,170.98 C 156.41,170.89 156.05,170.85 155.85,170.86 C 154.71,170.86 153.95,171.79 154.0,172.89 z M 159.11,170.7 C 158.61,170.02 158.04,169.43 157.47,168.81 C 156.91,168.19 156.38,167.55 155.89,166.87 C 154.87,165.43 154.25,164.06 153.76,162.37 C 153.52,161.57 153.34,160.76 153.18,159.94 C 153.1,159.53 153.03,159.12 152.95,158.7 C 152.94,158.6 152.92,158.5 152.9,158.4 C 152.9,158.37 152.89,158.34 152.89,158.32 C 152.89,158.31 152.88,158.29 152.88,158.28 C 152.88,158.27 152.87,158.23 152.88,158.25 C 152.9,158.3 152.92,158.34 152.94,158.39 C 153.03,158.58 153.12,158.77 153.22,158.96 C 153.98,160.47 154.93,161.8 156.08,163.04 C 157.22,164.28 158.47,165.36 159.76,166.43 C 160.4,166.97 161.04,167.5 161.67,168.05 C 161.99,168.32 162.31,168.58 162.56,168.92 C 162.82,169.27 162.91,169.68 162.81,170.11 C 162.71,170.57 162.36,170.8 161.91,170.83 C 161.5,170.85 161.06,170.71 160.77,170.41 C 160.61,170.26 160.52,170.09 160.47,169.87 C 160.43,169.68 160.42,169.4 160.66,169.35 C 160.76,169.33 160.86,169.31 160.95,169.26 C 161.05,169.21 161.13,169.15 161.2,169.06 C 161.34,168.9 161.4,168.69 161.37,168.48 C 161.32,168.04 160.92,167.73 160.48,167.8 C 160.06,167.86 159.68,168.04 159.39,168.36 C 158.79,169.0 158.78,169.95 159.11,170.7 z M 131.96,137.64 C 132.05,137.66 132.13,137.68 132.22,137.71 C 132.26,137.72 132.3,137.74 132.34,137.76 C 132.39,137.77 132.43,137.79 132.47,137.78 C 132.55,137.78 132.6,137.75 132.64,137.69 C 132.69,137.63 132.7,137.58 132.68,137.5 C 132.68,137.49 132.67,137.47 132.67,137.46 C 132.66,137.45 132.65,137.43 132.66,137.44 C 132.67,137.45 132.68,137.45 132.68,137.46 C 132.71,137.5 132.74,137.53 132.77,137.57 C 132.84,137.63 132.9,137.7 132.96,137.77 C 133.14,137.94 133.32,138.11 133.5,138.26 C 133.57,138.32 133.64,138.38 133.7,138.44 C 133.74,138.46 133.77,138.49 133.81,138.52 C 133.81,138.52 133.84,138.54 133.82,138.53 C 133.79,138.52 133.76,138.51 133.73,138.51 C 133.66,138.51 133.6,138.53 133.55,138.58 C 133.46,138.68 133.48,138.76 133.52,138.87 C 133.54,138.91 133.55,138.96 133.56,139.0 C 133.57,139.05 133.58,139.1 133.59,139.14 C 133.59,139.15 133.59,139.16 133.59,139.18 C 133.59,139.19 133.61,139.21 133.59,139.2 C 133.57,139.19 133.56,139.17 133.54,139.16 C 133.34,139.01 133.16,138.86 132.97,138.7 C 132.6,138.37 132.26,138.03 131.96,137.64 z M 133.78,145.73 C 133.26,145.75 132.75,145.76 132.24,145.73 C 131.98,145.71 131.73,145.69 131.47,145.64 C 131.45,145.64 131.42,145.64 131.4,145.63 C 131.39,145.63 131.39,145.63 131.38,145.63 C 131.37,145.63 131.39,145.62 131.4,145.62 C 131.41,145.61 131.42,145.61 131.43,145.6 C 131.47,145.58 131.52,145.55 131.56,145.53 C 131.6,145.51 131.65,145.48 131.7,145.46 C 131.8,145.42 131.89,145.38 131.9,145.24 C 131.9,145.17 131.88,145.12 131.83,145.06 C 131.8,145.04 131.78,145.02 131.74,145.01 C 131.73,145.0 131.76,145.01 131.77,145.01 C 131.81,145.01 131.86,145.02 131.91,145.03 C 132.0,145.04 132.09,145.04 132.19,145.05 C 132.44,145.07 132.7,145.08 132.96,145.08 C 133.07,145.08 133.18,145.07 133.29,145.07 C 133.35,145.07 133.4,145.07 133.46,145.07 C 133.49,145.07 133.51,145.07 133.54,145.06 C 133.55,145.06 133.56,145.06 133.56,145.06 C 133.58,145.06 133.54,145.07 133.53,145.07 C 133.49,145.09 133.46,145.11 133.44,145.14 C 133.36,145.24 133.37,145.38 133.46,145.46 C 133.5,145.5 133.54,145.52 133.59,145.55 C 133.65,145.6 133.72,145.66 133.78,145.73 z M 166.22,145.73 C 166.74,145.75 167.25,145.76 167.76,145.73 C 168.02,145.71 168.27,145.69 168.53,145.64 C 168.55,145.64 168.58,145.64 168.6,145.63 C 168.61,145.63 168.61,145.63 168.62,145.63 C 168.63,145.63 168.61,145.62 168.6,145.62 C 168.59,145.61 168.58,145.61 168.57,145.6 C 168.53,145.58 168.48,145.55 168.44,145.53 C 168.39,145.51 168.35,145.48 168.3,145.46 C 168.2,145.42 168.11,145.38 168.1,145.24 C 168.1,145.17 168.12,145.12 168.17,145.06 C 168.2,145.04 168.22,145.02 168.26,145.01 C 168.27,145.0 168.24,145.01 168.23,145.01 C 168.19,145.01 168.14,145.02 168.09,145.03 C 168.0,145.04 167.91,145.04 167.81,145.05 C 167.56,145.07 167.3,145.08 167.04,145.08 C 166.93,145.08 166.82,145.07 166.71,145.07 C 166.65,145.07 166.6,145.07 166.54,145.07 C 166.51,145.07 166.49,145.07 166.46,145.06 C 166.45,145.06 166.44,145.06 166.44,145.06 C 166.42,145.06 166.46,145.07 166.47,145.07 C 166.51,145.09 166.54,145.11 166.56,145.14 C 166.64,145.24 166.63,145.38 166.54,145.46 C 166.5,145.5 166.46,145.52 166.41,145.55 C 166.35,145.6 166.28,145.66 166.22,145.73 z M 137.79,148.45 C 138.0,148.33 138.22,148.22 138.44,148.11 C 138.44,148.13 138.43,148.16 138.43,148.18 C 138.42,148.24 138.43,148.3 138.43,148.37 C 138.44,148.43 138.46,148.5 138.48,148.56 C 138.5,148.62 138.53,148.68 138.57,148.73 C 138.6,148.79 138.64,148.85 138.69,148.9 C 138.72,148.93 138.76,148.97 138.81,149.0 C 138.83,149.01 138.85,149.02 138.87,149.03 C 138.78,149.08 138.69,149.13 138.61,149.19 C 138.54,149.23 138.48,149.28 138.42,149.32 C 138.42,149.26 138.41,149.2 138.4,149.14 C 138.37,149.04 138.32,148.93 138.26,148.84 C 138.2,148.74 138.11,148.65 138.02,148.57 C 137.95,148.52 137.88,148.48 137.8,148.45 C 137.8,148.45 137.79,148.45 137.79,148.45 z M 162.21,148.45 C 162.0,148.33 161.78,148.22 161.56,148.11 C 161.56,148.13 161.57,148.16 161.57,148.18 C 161.58,148.24 161.57,148.3 161.57,148.37 C 161.56,148.43 161.54,148.5 161.52,148.56 C 161.5,148.62 161.47,148.68 161.43,148.73 C 161.4,148.79 161.36,148.85 161.31,148.9 C 161.28,148.93 161.24,148.97 161.19,149.0 C 161.17,149.01 161.15,149.02 161.13,149.03 C 161.22,149.08 161.31,149.13 161.39,149.19 C 161.46,149.23 161.52,149.28 161.58,149.32 C 161.58,149.26 161.59,149.2 161.6,149.14 C 161.63,149.04 161.68,148.93 161.74,148.84 C 161.8,148.74 161.89,148.65 161.98,148.57 C 162.05,148.52 162.12,148.48 162.2,148.45 C 162.2,148.45 162.21,148.45 162.21,148.45 z M 150.0,131.0 C 149.27,131.0 148.54,131.03 147.81,131.09 C 147.1,131.16 146.39,131.27 145.69,131.41 C 145.37,131.47 145.06,131.54 144.75,131.63 C 144.56,131.68 144.37,131.72 144.19,131.78 C 143.95,131.86 143.7,131.96 143.47,132.06 C 143.29,132.15 143.1,132.23 142.94,132.34 C 142.82,132.42 142.72,132.52 142.63,132.63 C 142.59,132.66 142.56,132.68 142.53,132.72 C 142.51,132.75 142.51,132.78 142.5,132.81 C 142.49,132.83 142.47,132.85 142.47,132.88 C 142.47,132.89 142.47,132.89 142.47,132.91 C 142.47,132.92 142.47,132.95 142.47,132.97 C 142.47,132.99 142.49,133.01 142.5,133.03 C 142.51,133.06 142.51,133.1 142.53,133.13 C 142.56,133.16 142.59,133.18 142.63,133.22 C 142.67,133.26 142.73,133.3 142.78,133.34 C 142.84,133.39 142.87,133.43 142.94,133.47 C 143.1,133.58 143.29,133.67 143.47,133.75 C 143.7,133.86 143.95,133.95 144.19,134.03 C 144.68,134.2 145.18,134.34 145.69,134.44 C 146.03,134.51 146.37,134.55 146.72,134.59 C 147.08,134.64 147.45,134.69 147.81,134.72 C 148.54,134.78 149.27,134.81 150.0,134.81 C 150.73,134.81 151.46,134.78 152.19,134.72 C 152.9,134.66 153.61,134.58 154.31,134.44 C 154.63,134.37 154.94,134.3 155.25,134.22 C 155.44,134.17 155.63,134.09 155.81,134.03 C 156.05,133.95 156.3,133.86 156.53,133.75 C 156.71,133.67 156.9,133.58 157.06,133.47 C 157.18,133.39 157.28,133.32 157.38,133.22 C 157.41,133.18 157.44,133.16 157.47,133.13 C 157.49,133.1 157.49,133.06 157.5,133.03 C 157.51,133.01 157.53,132.99 157.53,132.97 C 157.53,132.95 157.53,132.92 157.53,132.91 C 157.53,132.89 157.53,132.89 157.53,132.88 C 157.53,132.85 157.51,132.83 157.5,132.81 C 157.49,132.78 157.49,132.75 157.47,132.72 C 157.44,132.68 157.41,132.66 157.38,132.63 C 157.33,132.58 157.27,132.54 157.22,132.5 C 157.16,132.45 157.13,132.39 157.06,132.34 C 156.9,132.23 156.71,132.15 156.53,132.06 C 156.3,131.96 156.05,131.86 155.81,131.78 C 155.32,131.62 154.82,131.51 154.31,131.41 C 153.97,131.34 153.63,131.27 153.28,131.22 C 152.92,131.17 152.55,131.13 152.19,131.09 C 151.46,131.03 150.73,131.0 150.0,131.0 z M 150.0,131.5 C 150.4,131.5 150.79,131.51 151.19,131.53 C 151.58,131.55 151.98,131.58 152.38,131.63 C 152.55,131.65 152.73,131.66 152.91,131.69 C 153.07,131.71 153.22,131.78 153.38,131.81 C 153.51,131.84 153.65,131.86 153.78,131.91 C 153.89,131.94 154.02,131.98 154.13,132.03 C 154.22,132.07 154.3,132.12 154.38,132.19 C 154.43,132.23 154.46,132.29 154.5,132.34 C 154.53,132.39 154.58,132.42 154.59,132.47 C 154.61,132.52 154.63,132.6 154.63,132.66 C 154.63,132.72 154.61,132.76 154.59,132.81 C 154.58,132.86 154.53,132.92 154.5,132.97 C 154.46,133.02 154.43,133.08 154.38,133.13 C 154.3,133.19 154.22,133.24 154.13,133.28 C 154.02,133.33 153.89,133.37 153.78,133.41 C 153.65,133.45 153.51,133.47 153.38,133.5 C 153.22,133.54 153.07,133.57 152.91,133.59 C 152.73,133.62 152.55,133.67 152.38,133.69 C 151.98,133.74 151.58,133.76 151.19,133.78 C 150.79,133.8 150.4,133.81 150.0,133.81 C 149.6,133.81 149.21,133.8 148.81,133.78 C 148.42,133.76 148.02,133.74 147.63,133.69 C 147.45,133.67 147.27,133.62 147.09,133.59 C 146.93,133.57 146.78,133.54 146.63,133.5 C 146.49,133.47 146.35,133.45 146.22,133.41 C 146.11,133.37 145.98,133.33 145.88,133.28 C 145.78,133.24 145.7,133.19 145.63,133.13 C 145.57,133.08 145.54,133.02 145.5,132.97 C 145.47,132.92 145.42,132.86 145.41,132.81 C 145.39,132.76 145.38,132.72 145.38,132.66 C 145.38,132.6 145.39,132.52 145.41,132.47 C 145.42,132.42 145.47,132.39 145.5,132.34 C 145.54,132.29 145.57,132.23 145.63,132.19 C 145.7,132.12 145.78,132.07 145.88,132.03 C 145.98,131.98 146.11,131.94 146.22,131.91 C 146.35,131.86 146.49,131.84 146.63,131.81 C 146.78,131.78 146.93,131.71 147.09,131.69 C 147.27,131.66 147.45,131.65 147.63,131.63 C 148.02,131.58 148.42,131.55 148.81,131.53 C 149.21,131.51 149.6,131.5 150.0,131.5 z M 147.12,158.25 C 146.85,159.9 146.54,161.52 146.0,163.12 C 145.44,164.81 144.73,166.1 143.63,167.5 C 143.12,168.16 142.56,168.77 141.99,169.39 C 141.71,169.7 141.44,170.01 141.18,170.34 C 141.11,170.42 141.05,170.5 140.98,170.58 C 140.97,170.6 140.95,170.62 140.94,170.64 C 140.93,170.65 140.92,170.67 140.91,170.68 C 140.91,170.68 140.89,170.72 140.89,170.7 C 140.91,170.65 140.93,170.6 140.95,170.55 C 141.02,170.36 141.07,170.16 141.1,169.95 C 141.19,169.09 140.81,168.25 139.97,167.92 C 139.58,167.76 139.13,167.68 138.81,168.06 C 138.52,168.4 138.57,168.9 138.91,169.18 C 138.99,169.24 139.08,169.29 139.19,169.32 C 139.28,169.35 139.39,169.33 139.47,169.42 C 139.6,169.57 139.54,169.87 139.49,170.02 C 139.34,170.43 138.96,170.69 138.56,170.79 C 138.17,170.88 137.68,170.85 137.39,170.52 C 137.12,170.22 137.11,169.68 137.22,169.33 C 137.35,168.94 137.7,168.61 137.98,168.35 C 138.29,168.07 138.61,167.8 138.93,167.53 C 139.57,167.0 140.21,166.47 140.85,165.93 C 143.56,163.63 145.6,161.58 147.12,158.25 z"
		 />
		 <path style="fill:#00f;stroke:none;"
		 d="M 153.9,149.33 C 153.9,151.48 152.15,153.22 150.0,153.22 C 147.85,153.22 146.1,151.48 146.1,149.33 C 146.1,147.17 147.85,145.43 150.0,145.43 C 152.15,145.43 153.9,147.17 153.9,149.33 z"
		 />
		
		<!-- Prism Reference -->
		<cam mingh:cam="--verb EditSelectAll --verb ZoomSelection --verb FileSave " /> 
	 </g>

</svg>
