<svg
   xmlns:xlink="http://www.w3.org/1999/xlink"
   xmlns:svg="http://www.w3.org/2000/svg"
   xmlns="http://www.w3.org/2000/svg"
   xmlns:mingh="http://www.minghworld.com"
   width="300px"
   height="300px" >
	
	 <g>
		
		<!-- Paths -->
		<path transform="matrix(-1 0 0 1 300 0)" style="fill:#ff0;stroke:none;"
		 d="M 150.72,121.5 C 150.5,121.52 150.31,121.57 150.09,121.63 C 148.38,122.09 147.14,123.63 147.06,125.41 C 146.99,127.18 148.08,128.8 149.75,129.41 C 149.16,129.98 148.71,130.69 148.56,131.47 C 148.35,132.6 148.75,133.85 149.34,134.84 C 149.39,134.92 149.38,135.01 149.31,135.06 C 148.47,135.74 147.74,136.55 147.16,137.47 C 146.39,138.67 145.88,140.05 145.69,141.47 C 145.64,141.84 145.6,142.22 145.59,142.59 C 145.59,142.7 145.51,142.76 145.41,142.75 C 144.94,142.7 144.47,142.68 144.0,142.66 C 143.69,142.64 143.4,142.62 143.09,142.63 C 142.8,142.63 142.51,142.64 142.22,142.66 C 142.01,142.67 141.8,142.7 141.59,142.72 C 141.31,142.74 141.03,142.75 140.75,142.78 C 140.18,142.85 139.62,142.97 139.06,143.09 C 138.5,143.22 137.95,143.35 137.41,143.53 C 136.86,143.71 136.31,143.94 135.78,144.19 C 135.52,144.31 135.26,144.42 135.0,144.56 C 134.86,144.64 134.73,144.73 134.59,144.81 C 134.33,144.97 134.06,145.13 133.81,145.31 C 133.55,145.5 133.3,145.69 133.06,145.91 C 132.81,146.13 132.59,146.4 132.38,146.66 C 132.17,146.91 131.98,147.16 131.81,147.44 C 131.7,147.62 131.59,147.81 131.5,148.0 C 131.36,148.29 131.24,148.59 131.16,148.91 C 131.1,149.14 131.05,149.38 131.03,149.63 C 131.02,149.75 131.03,149.87 131.03,150.0 C 131.04,150.19 131.08,150.38 131.13,150.56 C 131.17,150.76 131.23,150.94 131.31,151.13 C 131.39,151.3 131.46,151.49 131.56,151.66 C 131.67,151.81 131.81,151.95 131.94,152.09 C 132.07,152.24 132.19,152.38 132.34,152.5 C 132.51,152.63 132.69,152.74 132.88,152.84 C 133.06,152.95 133.24,153.05 133.44,153.13 C 133.83,153.27 134.24,153.33 134.66,153.38 C 134.96,153.41 135.29,153.42 135.59,153.41 C 135.68,153.4 135.73,153.49 135.69,153.56 C 135.57,153.78 135.48,154.0 135.38,154.22 C 135.34,154.3 135.24,154.37 135.16,154.34 C 134.84,154.26 134.51,154.18 134.19,154.16 C 132.74,154.05 131.25,154.59 130.09,155.5 C 128.34,156.89 127.4,159.16 127.38,161.44 C 127.35,163.42 128.0,165.41 129.31,166.81 C 130.01,167.55 130.9,168.14 131.88,168.44 C 133.25,168.85 134.83,168.69 136.13,168.06 C 136.49,167.89 136.84,167.68 137.16,167.44 C 137.23,167.38 137.31,167.38 137.38,167.44 C 138.22,168.25 139.14,168.97 140.13,169.59 C 141.11,170.22 142.16,170.77 143.25,171.19 C 143.33,171.22 143.39,171.29 143.38,171.38 C 143.29,171.77 143.25,172.19 143.25,172.59 C 143.24,174.04 143.75,175.5 144.72,176.56 C 145.4,177.32 146.31,177.87 147.28,178.19 C 149.11,178.78 151.19,178.53 152.97,177.66 C 155.02,176.66 156.68,174.83 157.19,172.66 C 157.52,171.22 157.34,169.64 156.63,168.38 C 156.46,168.09 156.27,167.81 156.06,167.56 C 156.01,167.5 156.01,167.41 156.06,167.34 C 156.22,167.16 156.38,166.98 156.53,166.78 C 156.58,166.72 156.69,166.71 156.72,166.78 C 156.84,167.07 156.97,167.36 157.13,167.63 C 157.34,167.98 157.61,168.3 157.91,168.59 C 158.06,168.74 158.21,168.88 158.38,169.0 C 158.54,169.12 158.75,169.22 158.94,169.31 C 159.12,169.4 159.28,169.47 159.47,169.53 C 159.65,169.59 159.84,169.63 160.03,169.66 C 160.22,169.68 160.4,169.69 160.59,169.69 C 160.79,169.68 160.99,169.67 161.19,169.63 C 161.37,169.58 161.57,169.51 161.75,169.44 C 161.87,169.39 161.98,169.34 162.09,169.28 C 162.3,169.16 162.5,169.03 162.69,168.88 C 162.94,168.67 163.17,168.41 163.38,168.16 C 163.51,167.99 163.6,167.83 163.72,167.66 C 163.9,167.39 164.08,167.11 164.22,166.81 C 164.36,166.51 164.46,166.2 164.56,165.88 C 164.66,165.57 164.75,165.25 164.81,164.94 C 164.87,164.64 164.91,164.34 164.94,164.03 C 164.95,163.87 164.96,163.72 164.97,163.56 C 164.99,163.27 164.97,162.98 164.97,162.69 C 164.97,162.11 164.95,161.51 164.88,160.94 C 164.81,160.37 164.69,159.81 164.56,159.25 C 164.44,158.69 164.3,158.14 164.13,157.59 C 164.04,157.32 163.94,157.05 163.84,156.78 C 163.77,156.59 163.7,156.41 163.63,156.22 C 163.52,155.95 163.37,155.67 163.25,155.41 C 163.12,155.12 162.99,154.87 162.84,154.59 C 162.63,154.18 162.4,153.78 162.16,153.38 C 162.1,153.29 162.13,153.17 162.22,153.13 C 162.55,152.96 162.88,152.76 163.19,152.56 C 164.38,151.78 165.42,150.74 166.19,149.53 C 166.77,148.62 167.18,147.62 167.44,146.56 C 167.46,146.48 167.54,146.4 167.63,146.41 C 168.78,146.51 170.07,146.37 171.0,145.69 C 171.94,145.0 172.52,143.8 172.63,142.59 C 172.73,141.35 172.33,140.1 171.59,139.13 C 170.98,138.33 170.14,137.72 169.19,137.41 C 168.51,137.18 167.79,137.1 167.09,137.22 C 166.64,137.3 166.19,137.47 165.78,137.69 C 165.7,137.73 165.58,137.7 165.53,137.63 C 165.5,137.58 165.47,137.55 165.44,137.5 C 164.58,136.36 163.52,135.39 162.31,134.63 C 161.11,133.86 159.74,133.29 158.34,133.0 C 158.28,132.99 158.25,132.98 158.19,132.97 C 158.1,132.95 158.03,132.87 158.03,132.78 C 158.05,132.32 158.0,131.85 157.88,131.41 C 157.69,130.72 157.34,130.08 156.84,129.56 C 156.17,128.85 155.24,128.37 154.28,128.16 C 155.41,126.79 155.52,124.83 154.56,123.34 C 153.72,122.04 152.23,121.34 150.72,121.5 z M 151.16,123.63 C 152.23,123.63 153.09,124.49 153.09,125.56 C 153.09,126.64 152.23,127.5 151.16,127.5 C 150.08,127.5 149.19,126.64 149.19,125.56 C 149.19,124.49 150.08,123.63 151.16,123.63 z" />
		
		
		<text id="txtTwo" transform="matrix(1 0 0 1 150 160)" style="stroke:none;fill:#f00;font-family:'Eras Medium ITC';font-size:20px;text-anchor:middle"  >

		</text>
		<!-- Prism Reference -->
		<cam mingh:cam="--verb EditSelectAll --verb ZoomSelection --verb FileSave "/> 
	 </g>

</svg>