<svg
   xmlns:xlink="http://www.w3.org/1999/xlink"
   xmlns:svg="http://www.w3.org/2000/svg"
   xmlns="http://www.w3.org/2000/svg"
   xmlns:mingh="http://www.minghworld.com"
   width="300px"
   height="300px" >
	
	 <g>
		
		<!-- Paths -->
		<path transform="matrix(-1 0 0 1 300 0)" style="fill:#ff0;stroke:none;"
		 d="M 144.16,124.09 C 143.93,124.11 143.72,124.16 143.5,124.22 C 141.71,124.67 140.44,126.25 140.41,128.09 C 140.38,129.93 141.61,131.56 143.38,132.06 C 143.48,132.09 143.48,132.25 143.38,132.28 C 142.51,132.54 141.68,132.64 140.78,132.56 C 140.74,132.56 140.71,132.53 140.69,132.5 C 140.45,132.09 139.92,131.94 139.5,132.16 C 139.08,132.37 138.91,132.88 139.09,133.31 C 139.11,133.35 139.11,133.37 139.09,133.41 C 138.22,134.81 136.85,135.86 135.28,136.38 C 135.24,136.39 135.22,136.4 135.19,136.38 C 134.81,136.1 134.3,136.15 134.0,136.5 C 133.7,136.86 133.73,137.4 134.06,137.72 C 134.09,137.75 134.1,137.77 134.09,137.81 C 133.84,139.44 133.0,140.92 131.75,142.0 C 131.72,142.03 131.69,142.04 131.66,142.03 C 131.21,141.92 130.76,142.16 130.63,142.59 C 130.49,143.03 130.7,143.49 131.13,143.66 C 131.16,143.67 131.18,143.71 131.19,143.75 C 131.58,145.37 131.41,147.08 130.66,148.56 C 130.65,148.58 130.62,148.58 130.63,148.59 C 130.79,153.19 132.85,157.53 136.28,160.59 C 136.4,160.7 136.34,160.89 136.19,160.91 C 132.88,161.26 130.17,163.73 129.56,167.0 C 128.95,170.27 130.57,173.57 133.53,175.09 C 136.49,176.62 140.1,176.02 142.41,173.63 C 144.72,171.23 145.19,167.59 143.56,164.69 C 143.49,164.55 143.6,164.4 143.75,164.44 C 146.37,165.04 149.08,165.01 151.69,164.34 C 151.84,164.3 151.99,164.46 151.91,164.59 C 150.21,167.5 150.63,171.2 152.97,173.63 C 155.31,176.05 158.97,176.62 161.94,175.03 C 164.91,173.44 166.47,170.07 165.75,166.78 C 165.03,163.49 162.24,161.08 158.88,160.88 C 158.72,160.87 158.63,160.67 158.75,160.56 C 162.17,157.5 164.19,153.15 164.34,148.56 L 164.34,146.69 C 164.34,146.04 164.33,145.4 164.47,144.75 C 164.61,144.12 164.95,143.44 165.44,143.0 C 165.97,142.51 166.48,142.53 167.13,142.63 C 167.73,142.71 168.43,142.84 169.06,142.69 C 169.7,142.53 170.18,142.03 170.41,141.44 C 170.64,140.82 170.63,140.13 170.31,139.53 C 170.01,138.96 169.51,138.57 168.91,138.38 C 167.81,138.02 166.18,138.2 165.13,138.56 C 163.84,139.01 162.95,139.79 162.25,140.94 C 161.59,142.02 161.21,143.3 161.09,144.56 C 161.03,145.2 161.03,145.83 161.03,146.47 L 161.03,148.41 C 161.03,148.5 160.94,148.56 160.84,148.56 C 156.46,148.56 152.07,148.56 147.69,148.56 C 147.61,148.55 147.61,148.45 147.69,148.44 C 148.66,148.25 149.48,147.45 149.47,146.41 C 149.45,145.37 148.6,144.57 147.63,144.41 C 147.45,144.37 147.47,144.12 147.66,144.13 C 148.76,144.14 149.8,143.34 149.88,142.19 C 149.95,141.03 149.01,140.15 147.91,140.03 C 147.72,140.01 147.76,139.73 147.94,139.72 C 149.04,139.65 149.99,138.78 149.97,137.63 C 149.95,136.47 148.95,135.66 147.84,135.63 C 147.66,135.62 147.66,135.37 147.84,135.34 C 148.94,135.19 149.83,134.22 149.72,133.06 C 149.6,131.91 148.51,131.18 147.41,131.25 C 147.31,131.26 147.27,131.13 147.34,131.06 C 148.66,129.78 148.93,127.76 148.03,126.16 C 147.24,124.75 145.72,123.97 144.16,124.09 z M 144.5,126.22 C 144.76,126.22 145.01,126.25 145.25,126.34 C 145.49,126.44 145.69,126.6 145.88,126.78 C 146.06,126.96 146.18,127.17 146.28,127.41 C 146.38,127.64 146.44,127.9 146.44,128.16 C 146.44,128.41 146.38,128.67 146.28,128.91 C 146.18,129.14 146.06,129.35 145.88,129.53 C 145.69,129.71 145.49,129.87 145.25,129.97 C 145.01,130.07 144.76,130.09 144.5,130.09 C 144.24,130.09 143.99,130.07 143.75,129.97 C 143.51,129.87 143.31,129.71 143.13,129.53 C 142.94,129.35 142.79,129.14 142.69,128.91 C 142.59,128.67 142.53,128.41 142.53,128.16 C 142.53,127.9 142.59,127.64 142.69,127.41 C 142.79,127.17 142.94,126.96 143.13,126.78 C 143.31,126.6 143.51,126.44 143.75,126.34 C 143.99,126.25 144.24,126.22 144.5,126.22 z M 145.31,154.25 C 145.47,154.25 145.63,154.28 145.78,154.31 C 146.22,154.41 146.62,154.65 146.94,154.97 C 147.13,155.16 147.28,155.38 147.41,155.63 C 147.44,155.69 147.53,155.69 147.56,155.63 C 147.69,155.38 147.87,155.16 148.06,154.97 C 148.38,154.65 148.78,154.41 149.22,154.31 C 149.83,154.17 150.5,154.28 151.03,154.66 C 151.53,155.01 151.89,155.57 152.0,156.16 C 152.13,156.89 151.86,157.69 151.47,158.34 C 150.97,159.17 150.28,159.81 149.59,160.47 C 148.94,161.1 148.31,161.72 147.63,162.31 C 147.56,162.37 147.44,162.37 147.38,162.31 C 146.69,161.72 146.03,161.1 145.38,160.47 C 144.69,159.81 143.99,159.17 143.5,158.34 C 143.11,157.69 142.87,156.89 143.0,156.16 C 143.11,155.57 143.44,155.01 143.94,154.66 C 144.34,154.38 144.83,154.24 145.31,154.25 z M 136.41,162.75 C 136.47,162.74 136.5,162.81 136.5,162.88 L 136.5,166.78 C 136.5,166.83 136.48,166.83 136.44,166.84 C 136.38,166.86 136.34,166.91 136.28,166.94 C 136.24,166.96 136.22,166.94 136.19,166.91 L 133.41,164.16 C 133.36,164.11 133.36,164.04 133.41,164.0 C 134.26,163.31 135.32,162.86 136.41,162.75 z M 137.56,162.75 C 138.65,162.86 139.68,163.31 140.53,164.0 C 140.58,164.04 140.61,164.11 140.56,164.16 L 137.78,166.91 C 137.75,166.94 137.73,166.96 137.69,166.94 C 137.63,166.91 137.56,166.86 137.5,166.84 C 137.46,166.83 137.44,166.83 137.44,166.78 L 137.44,162.88 C 137.44,162.81 137.5,162.74 137.56,162.75 z M 157.81,162.75 C 157.88,162.74 157.94,162.81 157.94,162.88 L 157.94,166.78 C 157.94,166.83 157.92,166.83 157.88,166.84 C 157.82,166.86 157.74,166.91 157.69,166.94 C 157.65,166.96 157.63,166.94 157.59,166.91 L 154.84,164.16 C 154.8,164.11 154.79,164.04 154.84,164.0 C 155.69,163.31 156.72,162.86 157.81,162.75 z M 159.0,162.75 C 160.09,162.86 161.12,163.31 161.97,164.0 C 162.02,164.04 162.01,164.11 161.97,164.16 L 159.22,166.91 C 159.19,166.94 159.13,166.96 159.09,166.94 C 159.04,166.91 159.0,166.86 158.94,166.84 C 158.89,166.83 158.88,166.83 158.88,166.78 L 158.88,162.88 C 158.88,162.81 158.94,162.74 159.0,162.75 z M 132.66,164.78 C 132.69,164.78 132.73,164.79 132.75,164.81 L 135.5,167.59 C 135.53,167.63 135.55,167.65 135.53,167.69 C 135.5,167.74 135.49,167.78 135.47,167.84 C 135.45,167.89 135.42,167.91 135.38,167.91 L 131.47,167.91 C 131.41,167.91 131.34,167.84 131.34,167.78 C 131.46,166.69 131.9,165.66 132.59,164.81 C 132.61,164.79 132.63,164.78 132.66,164.78 z M 141.28,164.78 C 141.31,164.78 141.36,164.79 141.38,164.81 C 142.06,165.66 142.48,166.69 142.59,167.78 C 142.6,167.84 142.56,167.91 142.5,167.91 L 138.59,167.91 C 138.55,167.91 138.51,167.89 138.5,167.84 C 138.48,167.78 138.47,167.74 138.44,167.69 C 138.42,167.65 138.41,167.63 138.44,167.59 L 141.22,164.81 C 141.24,164.79 141.25,164.78 141.28,164.78 z M 154.09,164.78 C 154.12,164.78 154.13,164.79 154.16,164.81 L 156.94,167.59 C 156.97,167.63 156.96,167.65 156.94,167.69 C 156.91,167.74 156.9,167.78 156.88,167.84 C 156.86,167.89 156.83,167.91 156.78,167.91 L 152.88,167.91 C 152.81,167.91 152.77,167.84 152.78,167.78 C 152.9,166.69 153.31,165.66 154.0,164.81 C 154.02,164.79 154.06,164.78 154.09,164.78 z M 162.72,164.78 C 162.75,164.78 162.76,164.79 162.78,164.81 C 163.47,165.66 163.92,166.69 164.03,167.78 C 164.04,167.84 163.97,167.91 163.91,167.91 L 160.0,167.91 C 159.95,167.91 159.95,167.89 159.94,167.84 C 159.92,167.78 159.87,167.74 159.84,167.69 C 159.82,167.65 159.84,167.63 159.88,167.59 L 162.63,164.81 C 162.65,164.79 162.69,164.78 162.72,164.78 z M 136.97,167.56 C 137.43,167.56 137.81,167.92 137.81,168.38 C 137.81,168.83 137.43,169.22 136.97,169.22 C 136.51,169.22 136.16,168.83 136.16,168.38 C 136.16,167.92 136.51,167.56 136.97,167.56 z M 158.41,167.56 C 158.86,167.56 159.22,167.92 159.22,168.38 C 159.22,168.83 158.86,169.22 158.41,169.22 C 157.95,169.22 157.56,168.83 157.56,168.38 C 157.56,167.92 157.95,167.56 158.41,167.56 z M 131.47,168.84 L 135.38,168.84 C 135.42,168.84 135.45,168.86 135.47,168.91 C 135.49,168.97 135.5,169.04 135.53,169.09 C 135.55,169.13 135.53,169.16 135.5,169.19 L 132.75,171.94 C 132.71,171.98 132.63,171.99 132.59,171.94 C 131.9,171.09 131.46,170.06 131.34,168.97 C 131.34,168.91 131.41,168.84 131.47,168.84 z M 138.59,168.84 L 142.5,168.84 C 142.56,168.84 142.6,168.91 142.59,168.97 C 142.48,170.06 142.06,171.09 141.38,171.94 C 141.34,171.99 141.26,171.98 141.22,171.94 L 138.44,169.19 C 138.41,169.16 138.42,169.13 138.44,169.09 C 138.47,169.04 138.48,168.97 138.5,168.91 C 138.51,168.86 138.55,168.84 138.59,168.84 z M 152.88,168.84 L 156.78,168.84 C 156.83,168.84 156.86,168.86 156.88,168.91 C 156.9,168.97 156.91,169.04 156.94,169.09 C 156.96,169.13 156.97,169.16 156.94,169.19 L 154.16,171.94 C 154.11,171.98 154.04,171.99 154.0,171.94 C 153.31,171.09 152.89,170.06 152.78,168.97 C 152.77,168.91 152.81,168.84 152.88,168.84 z M 160.0,168.84 L 163.91,168.84 C 163.97,168.84 164.04,168.91 164.03,168.97 C 163.92,170.06 163.47,171.09 162.78,171.94 C 162.74,171.99 162.67,171.98 162.63,171.94 L 159.88,169.19 C 159.84,169.16 159.82,169.13 159.84,169.09 C 159.87,169.04 159.92,168.97 159.94,168.91 C 159.95,168.86 159.95,168.84 160.0,168.84 z M 136.19,169.84 C 136.22,169.81 136.24,169.82 136.28,169.84 C 136.34,169.87 136.38,169.89 136.44,169.91 C 136.48,169.92 136.5,169.95 136.5,170.0 L 136.5,173.91 C 136.5,173.97 136.47,174.01 136.41,174.0 C 135.32,173.89 134.26,173.47 133.41,172.78 C 133.36,172.74 133.36,172.67 133.41,172.63 L 136.19,169.84 z M 137.69,169.84 C 137.73,169.82 137.75,169.81 137.78,169.84 L 140.56,172.63 C 140.61,172.67 140.58,172.74 140.53,172.78 C 139.68,173.47 138.65,173.89 137.56,174.0 C 137.5,174.01 137.44,173.97 137.44,173.91 L 137.44,170.0 C 137.44,169.95 137.46,169.92 137.5,169.91 C 137.56,169.89 137.63,169.87 137.69,169.84 z M 157.59,169.84 C 157.63,169.81 157.65,169.82 157.69,169.84 C 157.74,169.87 157.82,169.89 157.88,169.91 C 157.92,169.92 157.94,169.95 157.94,170.0 L 157.94,173.91 C 157.94,173.97 157.88,174.01 157.81,174.0 C 156.72,173.89 155.69,173.47 154.84,172.78 C 154.79,172.74 154.8,172.67 154.84,172.63 L 157.59,169.84 z M 159.09,169.84 C 159.13,169.82 159.19,169.81 159.22,169.84 L 161.97,172.63 C 162.01,172.67 162.02,172.74 161.97,172.78 C 161.12,173.47 160.09,173.89 159.0,174.0 C 158.94,174.01 158.88,173.97 158.88,173.91 L 158.88,170.0 C 158.88,169.95 158.89,169.92 158.94,169.91 C 159.0,169.89 159.04,169.87 159.09,169.84 z" />
		
		
		<text id="txtTwo" transform="matrix(1 0 0 1 150 160)" style="stroke:none;fill:#f00;font-family:'Eras Medium ITC';font-size:20px;text-anchor:middle"  >

		</text>
		<!-- Prism Reference -->
		<cam mingh:cam=" --verb EditSelectAll --verb ZoomSelection --verb FileSave "/> 
	 </g>

</svg>