<svg
   xmlns:xlink="http://www.w3.org/1999/xlink"
   xmlns:svg="http://www.w3.org/2000/svg"
   xmlns="http://www.w3.org/2000/svg"
   xmlns:mingh="http://www.minghworld.com"
   width="300px"
   height="300px" >
	
	 <g>
		<!-- Paths -->
		<path style="fill:none;stroke:#000;stroke-width:0.25px;"
		 d="M 148.34,132.75 C 147.74,132.79 147.12,132.89 146.53,133.03 C 144.54,133.49 142.68,134.49 141.09,135.81 C 138.98,137.58 137.38,139.92 136.41,142.47 C 135.47,144.91 135.12,147.54 134.56,150.09 C 134.24,151.56 133.86,152.99 133.47,154.44 C 133.25,155.24 133.05,156.06 132.78,156.84 C 132.61,157.36 132.41,157.88 132.38,158.44 C 132.35,158.86 132.4,159.29 132.59,159.66 C 132.81,160.07 133.18,160.38 133.56,160.69 C 134.76,161.64 135.91,162.56 137.16,163.34 C 139.21,164.63 141.54,165.59 143.91,166.25 C 145.86,166.8 147.82,167.15 149.84,167.25 C 152.22,167.36 154.66,167.11 157.0,166.44 C 159.27,165.79 161.44,164.76 163.22,163.28 C 164.79,161.97 166.05,160.33 166.81,158.44 C 167.58,156.56 167.86,154.43 167.44,152.44 C 167.06,150.63 166.12,148.94 164.84,147.56 C 164.05,146.71 163.14,145.98 162.09,145.53 C 161.62,145.33 161.09,145.17 160.59,145.03 C 160.36,144.96 160.13,144.9 159.91,144.78 C 159.75,144.7 159.6,144.58 159.5,144.44 C 159.4,144.29 159.38,144.12 159.34,143.94 C 159.24,143.34 159.23,142.74 159.19,142.16 C 159.07,140.67 158.64,139.17 157.91,137.84 C 157.12,136.41 156.0,135.19 154.63,134.31 C 153.29,133.46 151.73,132.94 150.16,132.78 C 149.55,132.72 148.95,132.71 148.34,132.75 z M 149.31,136.94 C 149.81,136.93 150.32,136.97 150.81,137.09 C 151.88,137.36 152.86,137.98 153.63,138.84 C 154.3,139.61 154.78,140.59 155.0,141.59 C 155.15,142.15 155.26,142.73 155.31,143.31 C 155.39,144.28 154.47,145.02 153.53,144.75 C 151.31,144.11 148.94,144.98 147.66,146.91 C 146.37,148.83 146.46,151.38 147.91,153.19 C 149.35,154.99 151.81,155.64 153.97,154.81 C 156.13,153.98 157.51,151.84 157.38,149.53 C 157.32,148.66 158.18,148.05 159.0,148.34 C 160.1,148.74 161.11,149.34 161.91,150.16 C 161.98,150.22 162.05,150.27 162.13,150.34 C 162.9,151.11 163.37,152.22 163.53,153.28 C 163.65,154.03 163.59,154.75 163.44,155.47 C 163.24,156.36 162.87,157.26 162.38,158.0 C 161.54,159.27 160.35,160.11 159.0,160.72 C 157.29,161.48 155.29,161.85 153.34,161.97 C 151.03,162.11 148.8,161.89 146.69,161.13 C 144.91,160.48 143.24,159.46 141.97,158.06 C 141.41,157.45 140.91,156.77 140.53,156.03 C 140.35,155.67 140.2,155.3 140.09,154.91 C 140.01,154.6 139.97,154.29 139.94,153.97 C 139.85,153.04 139.87,152.09 139.91,151.16 C 139.98,149.52 140.1,147.9 140.47,146.31 C 140.89,144.5 141.62,142.75 142.63,141.16 C 143.25,140.17 143.97,139.21 144.88,138.5 C 145.72,137.84 146.75,137.37 147.81,137.13 C 148.3,137.01 148.81,136.95 149.31,136.94 z"
		 />
		 <path style="fill:#00f;stroke:none;"
		 d="M 155.97,149.86 C 155.97,152.01 154.22,153.76 152.07,153.76 C 149.91,153.76 148.17,152.01 148.17,149.86 C 148.17,147.71 149.91,145.96 152.07,145.96 C 154.22,145.96 155.97,147.71 155.97,149.86 z"
		 />

		<!-- Prism Reference -->
		<cam mingh:cam="--verb EditSelectAll --verb ZoomSelection --verb FileSave " /> 
	 </g>

</svg>
