<svg
   xmlns:xlink="http://www.w3.org/1999/xlink"
   xmlns:svg="http://www.w3.org/2000/svg"
   xmlns="http://www.w3.org/2000/svg"
   xmlns:mingh="http://www.minghworld.com"
   width="300px"
   height="300px" >
	
	 <g>
		<!-- Paths -->
		<path style="fill:none;stroke:#000;stroke-width:0.25px;"
		 d="M 146.31,120.5 C 145.78,120.5 145.24,120.61 144.75,120.81 C 144.26,121.02 143.81,121.31 143.44,121.69 C 143.06,122.06 142.77,122.51 142.56,123.0 C 142.36,123.49 142.25,124.03 142.25,124.56 C 142.25,125.1 142.36,125.63 142.56,126.13 C 142.57,126.13 142.56,126.15 142.56,126.16 C 142.61,126.28 142.54,126.41 142.41,126.41 C 141.58,126.36 140.5,126.55 139.72,126.75 C 138.84,126.98 138.02,127.31 137.22,127.75 C 136.41,128.19 135.71,128.68 135.09,129.38 C 134.47,130.08 134.01,130.77 133.91,131.75 C 133.81,132.65 134.05,133.58 134.66,134.28 C 134.95,134.63 135.31,134.87 135.66,135.16 C 135.88,135.35 135.91,135.47 135.91,135.75 C 135.9,135.98 135.88,136.21 135.91,136.44 C 135.96,136.88 136.2,137.32 136.5,137.63 C 136.84,137.97 137.19,138.15 137.66,138.25 C 137.81,138.28 138.85,138.44 139.0,138.47 C 139.52,138.56 139.8,138.67 140.28,138.88 C 140.39,138.92 140.42,139.06 140.34,139.16 C 139.76,139.89 139.18,140.62 138.59,141.34 C 138.0,142.08 137.47,142.85 137.03,143.69 C 136.15,145.37 135.62,147.13 136.03,149.09 C 136.42,150.92 137.58,152.59 139.28,153.44 C 140.73,154.16 143.18,154.59 144.75,154.69 C 144.84,154.69 144.91,154.78 144.91,154.88 L 144.91,160.81 C 144.91,160.89 144.89,160.93 144.81,160.97 C 143.54,161.56 143.31,162.84 144.56,163.59 C 144.62,163.63 144.61,163.68 144.56,163.72 C 143.91,164.25 143.28,164.79 142.63,165.31 C 142.31,165.57 141.96,165.82 141.66,166.09 C 141.5,166.24 141.37,166.36 141.28,166.56 C 141.19,166.76 141.11,166.98 141.03,167.19 C 140.43,168.84 140.39,170.46 140.97,172.13 C 141.25,172.93 141.64,173.67 142.13,174.38 C 142.26,174.56 142.51,174.63 142.72,174.53 C 142.82,174.48 142.87,174.4 142.94,174.31 C 143.0,174.23 143.06,174.15 143.13,174.06 C 143.37,173.73 143.57,173.38 143.75,173.0 C 144.51,171.41 144.42,169.69 143.84,168.09 C 143.83,168.05 143.84,168.03 143.88,168.0 C 144.18,167.75 144.48,167.53 144.78,167.28 C 144.84,167.23 144.91,167.27 144.91,167.34 L 144.91,176.13 C 144.91,176.19 144.84,176.25 144.78,176.22 C 143.68,175.65 142.29,175.79 141.22,176.22 C 140.62,176.46 140.08,176.81 139.56,177.19 C 139.46,177.26 138.95,177.63 138.88,177.75 C 138.8,177.87 138.83,178.04 138.91,178.16 C 138.98,178.27 139.15,178.35 139.25,178.41 C 140.31,179.01 141.54,179.4 142.75,179.5 C 144.03,179.6 145.17,179.38 146.34,178.88 C 146.53,178.79 146.72,178.71 146.91,178.63 C 147.05,178.56 147.18,178.47 147.31,178.38 C 147.51,178.23 147.65,178.09 147.72,177.84 C 147.8,177.58 147.81,177.33 147.81,177.06 C 147.81,176.7 147.81,176.3 147.81,175.94 L 147.81,172.28 L 147.81,164.91 C 147.81,164.85 147.83,164.82 147.88,164.78 C 149.47,163.49 151.06,162.19 152.66,160.91 C 152.69,160.88 152.73,160.87 152.78,160.88 C 153.32,160.9 153.89,160.79 154.38,160.53 C 154.86,160.27 155.25,159.85 155.34,159.28 C 155.43,158.71 155.17,158.19 154.78,157.81 C 154.39,157.43 153.87,157.18 153.34,157.06 C 153.3,157.05 153.28,157.04 153.25,157.0 C 152.51,156.0 151.74,155.03 151.0,154.03 C 150.93,153.93 150.98,153.79 151.09,153.75 C 153.08,153.07 154.92,152.18 156.75,151.19 C 157.21,150.94 157.67,150.66 158.13,150.41 C 158.58,150.15 159.02,149.9 159.47,149.63 C 159.91,149.36 160.33,149.09 160.72,148.75 C 161.11,148.41 161.44,147.99 161.81,147.63 C 162.02,147.42 162.24,147.23 162.5,147.09 C 162.76,146.96 163.04,146.87 163.28,146.69 C 163.75,146.34 163.98,145.78 164.47,145.44 C 164.69,145.28 164.93,145.2 165.19,145.13 C 165.42,145.05 165.68,144.99 165.91,144.91 C 166.06,144.85 166.17,144.8 166.06,144.63 C 165.94,144.42 165.68,144.2 165.5,144.06 C 165.05,143.71 164.61,143.36 164.19,142.97 C 163.83,142.64 163.48,142.29 163.13,141.97 C 162.36,141.27 161.53,140.69 160.66,140.16 C 158.86,139.05 157.0,138.23 154.94,137.72 C 153.05,137.25 150.73,137.05 148.81,137.75 C 147.79,138.12 146.99,138.74 146.22,139.47 C 145.46,140.18 144.78,140.94 144.09,141.72 C 142.45,143.59 141.55,144.45 140.44,146.75 C 140.4,146.83 140.29,146.81 140.28,146.72 C 140.19,145.86 140.23,145.05 140.47,144.22 C 140.72,143.32 141.13,142.73 141.72,142.03 C 142.8,140.74 144.03,139.62 145.06,138.28 C 146.09,136.96 146.92,135.44 147.19,133.75 C 147.45,132.1 147.12,130.33 146.22,128.91 C 146.15,128.79 146.24,128.63 146.38,128.63 C 146.89,128.62 147.4,128.51 147.88,128.31 C 148.37,128.11 148.81,127.81 149.19,127.44 C 149.56,127.06 149.89,126.62 150.09,126.13 C 150.3,125.63 150.41,125.1 150.41,124.56 C 150.41,124.03 150.3,123.49 150.09,123.0 C 149.89,122.51 149.56,122.06 149.19,121.69 C 148.81,121.31 148.37,121.02 147.88,120.81 C 147.38,120.61 146.85,120.5 146.31,120.5 z M 146.31,122.63 C 146.57,122.63 146.83,122.65 147.06,122.75 C 147.3,122.85 147.51,123.01 147.69,123.19 C 147.87,123.37 148.03,123.58 148.13,123.81 C 148.22,124.05 148.28,124.31 148.28,124.56 C 148.28,124.82 148.22,125.08 148.13,125.31 C 148.03,125.55 147.87,125.76 147.69,125.94 C 147.51,126.12 147.3,126.28 147.06,126.38 C 146.83,126.47 146.57,126.5 146.31,126.5 C 146.06,126.5 145.8,126.47 145.56,126.38 C 145.33,126.28 145.12,126.12 144.94,125.94 C 144.76,125.76 144.63,125.55 144.53,125.31 C 144.43,125.08 144.38,124.82 144.38,124.56 C 144.38,124.31 144.43,124.05 144.53,123.81 C 144.63,123.58 144.76,123.37 144.94,123.19 C 145.12,123.01 145.33,122.85 145.56,122.75 C 145.8,122.65 146.06,122.63 146.31,122.63 z M 141.44,130.0 C 141.78,129.95 142.06,130.01 142.28,130.09 C 142.5,130.18 142.66,130.3 142.78,130.41 C 142.85,130.46 142.88,130.53 142.94,130.59 C 143.05,130.72 143.16,130.86 143.25,131.03 C 143.34,131.2 143.41,131.38 143.47,131.56 C 143.59,131.94 143.66,132.33 143.66,132.72 C 143.65,133.02 143.62,133.33 143.56,133.63 C 143.5,133.93 143.39,134.24 143.28,134.53 C 143.17,134.83 143.05,135.12 142.91,135.41 C 142.76,135.7 142.58,135.97 142.41,136.25 C 142.11,136.74 141.81,137.2 141.44,137.72 C 141.35,137.84 141.26,137.96 141.19,138.06 C 141.11,138.17 140.97,138.14 140.91,138.03 C 140.9,138.02 140.88,138.04 140.88,138.03 C 140.82,137.94 140.75,137.81 140.69,137.72 C 140.57,137.54 140.48,137.38 140.34,137.22 C 140.27,137.13 140.17,137.05 140.09,136.97 C 140.02,136.89 139.93,136.8 139.84,136.72 C 139.7,136.58 139.56,136.47 139.41,136.34 C 139.34,136.28 139.26,136.22 139.19,136.16 C 139.1,136.07 139.02,135.97 138.94,135.88 C 138.85,135.78 138.76,135.7 138.69,135.59 C 138.66,135.56 138.65,135.51 138.63,135.47 C 138.6,135.43 138.58,135.38 138.56,135.34 C 138.56,135.33 138.53,135.32 138.53,135.31 C 138.53,135.31 138.53,135.29 138.53,135.28 C 138.53,135.27 138.53,135.26 138.53,135.25 C 138.53,135.23 138.53,135.24 138.53,135.22 C 138.55,135.16 138.58,135.09 138.59,135.03 C 138.62,134.94 138.64,134.84 138.66,134.75 C 138.68,134.64 138.73,134.55 138.75,134.44 C 138.76,134.39 138.74,134.33 138.75,134.28 C 138.78,134.15 138.81,134.01 138.84,133.88 C 138.85,133.84 138.87,133.82 138.88,133.78 C 138.9,133.69 138.94,133.59 138.97,133.5 C 139.05,133.23 139.15,132.95 139.25,132.69 C 139.38,132.35 139.49,132.02 139.63,131.69 C 139.67,131.57 139.73,131.46 139.78,131.34 C 139.87,131.13 139.96,130.9 140.06,130.75 C 140.11,130.68 140.15,130.63 140.22,130.56 C 140.42,130.37 140.83,130.09 141.44,130.0 z M 147.88,154.75 C 147.91,154.74 147.94,154.75 147.97,154.78 C 148.76,155.83 149.53,156.88 150.31,157.94 C 150.36,158.0 150.38,158.05 150.34,158.13 C 150.18,158.44 150.12,158.71 150.19,159.06 C 150.2,159.14 150.18,159.2 150.13,159.25 L 148.0,160.97 C 147.97,160.99 147.94,160.99 147.91,160.97 C 147.89,160.96 147.86,160.95 147.84,160.94 C 147.81,160.92 147.81,160.92 147.81,160.88 L 147.81,154.81 C 147.81,154.77 147.84,154.76 147.88,154.75 z"
		 />
		 <path style="fill:#f00;stroke:none;"
		 d="M 141.37,141.91 C 141.32,141.99 141.28,142.06 141.23,142.14 C 141.2,142.2 141.16,142.26 141.13,142.32 C 141.04,142.47 140.96,142.63 140.88,142.79 C 140.84,142.88 140.8,142.97 140.76,143.07 C 140.73,143.15 140.7,143.23 140.67,143.31 C 140.74,143.09 140.81,142.86 140.84,142.63 C 140.89,142.24 140.85,141.85 140.81,141.46 C 140.76,141.04 140.7,140.63 140.76,140.23 C 140.81,139.81 140.99,139.41 141.15,139.01 C 141.26,138.74 141.36,138.47 141.47,138.2 C 141.51,138.11 141.56,138.02 141.6,137.93 C 141.65,137.85 141.7,137.76 141.74,137.67 C 141.85,137.48 141.96,137.27 142.06,137.07 C 141.93,137.41 141.85,137.78 141.86,138.14 C 141.87,138.75 142.12,139.36 142.1,139.97 C 142.09,140.34 141.97,140.7 141.83,141.05 C 141.72,141.3 141.6,141.55 141.46,141.78 C 141.43,141.82 141.4,141.87 141.37,141.91 z M 143.4,139.99 C 143.59,139.73 143.73,139.42 143.8,139.11 C 143.86,138.78 143.85,138.44 143.79,138.12 C 143.71,137.73 143.57,137.36 143.47,136.97 C 143.33,136.39 143.31,135.77 143.42,135.18 C 143.51,134.92 143.57,134.65 143.63,134.38 C 143.64,134.34 143.64,134.3 143.65,134.27 C 143.71,133.97 143.73,133.68 143.74,133.38 C 143.75,133.75 143.83,134.13 143.96,134.48 C 144.12,134.93 144.36,135.35 144.55,135.79 C 144.69,136.13 144.81,136.5 144.83,136.87 C 144.87,137.51 144.64,138.18 144.3,138.73 C 144.18,138.92 144.06,139.08 143.93,139.26 C 143.8,139.44 143.66,139.63 143.53,139.82 C 143.48,139.87 143.44,139.93 143.4,139.99 z M 135.39,134.77 C 135.41,134.77 135.42,134.77 135.44,134.77 C 135.52,134.76 135.59,134.74 135.62,134.69 C 135.66,134.64 135.65,134.57 135.61,134.5 C 135.57,134.44 135.51,134.38 135.45,134.33 C 135.19,134.1 134.96,133.91 134.77,133.68 C 134.6,133.48 134.46,133.26 134.4,133.0 C 134.33,132.68 134.38,132.3 134.57,132.0 C 134.82,131.61 135.29,131.34 135.79,131.23 C 136.34,131.11 136.92,131.18 137.31,131.46 C 137.53,131.62 137.68,131.84 137.8,132.09 C 137.95,132.42 138.02,132.79 138.05,133.12 C 138.07,133.38 138.07,133.61 138.11,133.84 C 138.14,134.04 138.19,134.24 138.29,134.28 C 138.4,134.32 138.55,134.19 138.68,134.01 C 138.66,134.11 138.64,134.2 138.62,134.3 C 138.6,134.39 138.58,134.48 138.56,134.57 C 138.52,134.64 138.47,134.7 138.41,134.75 C 138.32,134.84 138.22,134.9 138.09,134.91 C 137.99,134.92 137.87,134.89 137.78,134.81 C 137.61,134.67 137.57,134.35 137.53,134.09 C 137.48,133.8 137.42,133.57 137.33,133.34 C 137.22,133.03 137.06,132.73 136.81,132.53 C 136.62,132.38 136.37,132.3 136.12,132.3 C 135.88,132.3 135.64,132.38 135.46,132.54 C 135.31,132.68 135.21,132.87 135.2,133.06 C 135.19,133.32 135.37,133.58 135.54,133.79 C 135.69,133.98 135.84,134.13 135.97,134.34 C 136.04,134.45 136.11,134.58 136.09,134.69 C 136.08,134.76 136.04,134.82 135.98,134.86 C 135.89,134.93 135.77,134.96 135.64,134.96 C 135.62,134.95 135.6,134.93 135.57,134.91 C 135.51,134.87 135.45,134.82 135.39,134.77 z M 158.99,142.51 C 157.09,141.16 154.88,140.03 152.53,139.63 C 151.39,139.44 150.15,139.41 149.01,139.71 C 147.84,140.02 146.81,140.69 145.9,141.43 C 144.23,142.77 142.28,144.89 141.13,146.71 C 140.82,147.21 140.54,147.73 140.31,148.28 C 140.28,148.34 140.25,148.41 140.23,148.48 C 140.21,148.52 140.2,148.55 140.19,148.58 C 140.18,148.6 140.17,148.62 140.17,148.64 C 140.16,148.65 140.16,148.65 140.16,148.66 C 140.16,148.67 140.15,148.67 140.15,148.68 C 140.15,148.68 140.16,148.69 140.15,148.69 C 140.13,148.68 140.11,148.67 140.1,148.67 C 140.07,148.66 140.09,148.64 140.1,148.62 C 140.11,148.59 140.12,148.55 140.14,148.52 C 140.16,148.45 140.19,148.38 140.22,148.31 C 140.33,148.04 140.45,147.77 140.59,147.5 C 141.13,146.42 141.82,145.47 142.56,144.52 C 143.81,142.92 145.84,140.66 147.7,139.65 C 148.8,139.05 149.9,138.81 151.14,138.78 C 152.35,138.75 153.49,138.92 154.65,139.25 C 155.82,139.58 156.9,140.05 157.96,140.63 C 158.49,140.92 158.99,141.23 159.49,141.57 C 159.52,141.59 159.55,141.61 159.58,141.63 C 159.59,141.64 159.62,141.67 159.63,141.66 C 159.64,141.65 159.66,141.64 159.68,141.63 C 159.74,141.59 159.81,141.56 159.88,141.53 C 160.02,141.47 160.17,141.43 160.32,141.41 C 160.61,141.38 160.86,141.42 161.13,141.54 C 162.36,142.1 162.34,143.85 161.11,144.39 C 159.89,144.92 158.6,143.78 158.99,142.51 z M 152.99,141.88 C 151.52,141.42 149.89,141.2 148.35,141.64 C 146.84,142.08 145.52,143.11 144.4,144.13 C 143.82,144.65 143.25,145.19 142.71,145.77 C 142.17,146.34 141.68,146.94 141.25,147.61 C 141.04,147.94 140.85,148.28 140.68,148.63 C 140.64,148.72 140.6,148.81 140.56,148.9 C 140.54,148.94 140.52,148.99 140.5,149.03 C 140.5,149.04 140.49,149.05 140.49,149.06 C 140.48,149.08 140.48,149.09 140.47,149.08 C 140.45,149.07 140.41,149.08 140.42,149.04 C 140.5,148.86 140.58,148.68 140.66,148.5 C 141.0,147.79 141.41,147.12 141.88,146.48 C 142.6,145.5 144.12,143.81 145.0,142.97 C 146.14,141.89 147.42,140.97 149.01,140.62 C 149.81,140.45 150.58,140.42 151.38,140.49 C 151.77,140.53 152.16,140.59 152.55,140.67 C 152.74,140.72 152.93,140.76 153.12,140.82 C 153.16,140.83 153.21,140.84 153.26,140.86 C 153.28,140.86 153.3,140.87 153.33,140.88 C 153.34,140.88 153.34,140.87 153.34,140.87 C 153.35,140.86 153.35,140.86 153.36,140.86 C 153.37,140.85 153.37,140.84 153.38,140.83 C 153.46,140.78 153.54,140.74 153.63,140.71 C 154.47,140.43 155.23,141.33 154.8,142.11 C 154.38,142.9 153.2,142.75 152.99,141.88 z M 155.35,145.53 C 155.36,145.49 155.32,145.49 155.3,145.47 C 155.28,145.46 155.26,145.44 155.23,145.42 C 155.19,145.38 155.14,145.35 155.1,145.31 C 155.01,145.24 154.91,145.17 154.82,145.1 C 154.63,144.97 154.44,144.83 154.25,144.71 C 153.86,144.45 153.46,144.22 153.05,144.01 C 152.21,143.59 151.36,143.29 150.43,143.15 C 148.34,142.84 146.9,143.43 145.25,144.6 C 143.85,145.59 142.3,147.02 141.35,148.5 C 141.23,148.69 141.11,148.89 141.01,149.09 C 140.95,149.19 140.9,149.29 140.85,149.4 C 140.84,149.42 140.83,149.45 140.82,149.47 C 140.81,149.5 140.79,149.47 140.78,149.47 C 140.78,149.47 140.77,149.46 140.76,149.46 C 140.76,149.46 140.75,149.46 140.75,149.45 C 140.78,149.39 140.8,149.34 140.83,149.29 C 141.03,148.87 141.26,148.48 141.52,148.09 C 142.04,147.32 142.64,146.62 143.28,145.95 C 143.92,145.29 144.59,144.68 145.31,144.11 C 146.06,143.53 146.82,143.03 147.73,142.72 C 149.5,142.1 151.47,142.35 153.14,143.03 C 154.02,143.38 154.83,143.84 155.6,144.39 C 155.69,144.46 155.79,144.53 155.88,144.6 C 155.93,144.63 155.98,144.67 156.02,144.7 C 156.03,144.71 156.04,144.72 156.06,144.72 C 156.07,144.71 156.08,144.7 156.1,144.7 C 156.13,144.68 156.15,144.67 156.18,144.66 C 156.4,144.58 156.62,144.55 156.86,144.58 C 157.31,144.64 157.7,144.91 157.91,145.31 C 158.39,146.21 157.79,147.3 156.78,147.37 C 155.78,147.44 155.03,146.48 155.35,145.53 z M 149.19,145.02 C 148.1,144.94 147.15,145.14 146.16,145.58 C 145.26,145.98 144.3,146.61 143.52,147.21 C 142.69,147.86 141.96,148.55 141.39,149.46 C 141.32,149.57 141.26,149.68 141.2,149.79 C 141.18,149.82 141.16,149.85 141.15,149.87 C 141.14,149.88 141.14,149.88 141.13,149.87 C 141.12,149.87 141.12,149.87 141.11,149.86 C 141.1,149.86 141.1,149.85 141.09,149.85 C 141.08,149.85 141.09,149.84 141.09,149.83 C 141.12,149.77 141.15,149.72 141.18,149.66 C 141.31,149.44 141.45,149.21 141.59,149.0 C 141.88,148.56 142.2,148.15 142.55,147.76 C 143.18,147.05 144.06,146.22 144.81,145.63 C 145.64,144.97 146.48,144.45 147.53,144.16 C 148.06,144.02 148.58,143.96 149.13,143.97 C 149.16,143.97 149.19,143.97 149.23,143.97 C 149.24,143.97 149.32,143.98 149.32,143.97 C 149.37,143.92 149.41,143.88 149.46,143.85 C 149.56,143.78 149.66,143.74 149.78,143.71 C 150.03,143.66 150.3,143.72 150.51,143.88 C 150.94,144.23 150.96,144.89 150.53,145.25 C 150.11,145.61 149.47,145.5 149.19,145.02 z M 151.58,148.01 C 150.56,147.19 149.36,146.62 148.01,146.57 C 146.65,146.52 145.45,147.01 144.32,147.67 C 143.75,148.0 143.22,148.37 142.73,148.81 C 142.49,149.03 142.26,149.26 142.05,149.51 C 141.94,149.63 141.84,149.76 141.74,149.89 C 141.7,149.95 141.65,150.02 141.6,150.09 C 141.58,150.12 141.56,150.16 141.53,150.19 C 141.52,150.21 141.51,150.22 141.5,150.24 C 141.49,150.26 141.49,150.29 141.46,150.27 C 141.45,150.26 141.45,150.26 141.44,150.25 C 141.43,150.25 141.41,150.25 141.42,150.24 C 141.43,150.22 141.44,150.2 141.45,150.18 C 141.47,150.15 141.5,150.12 141.52,150.08 C 141.56,150.01 141.61,149.95 141.66,149.88 C 141.75,149.75 141.85,149.62 141.95,149.49 C 142.15,149.24 142.37,148.99 142.6,148.76 C 143.06,148.29 143.56,147.88 144.09,147.49 C 145.14,146.73 146.28,146.08 147.62,145.9 C 148.94,145.72 150.23,146.01 151.39,146.65 C 151.69,146.82 151.97,147.01 152.25,147.21 C 152.26,147.23 152.28,147.24 152.3,147.23 C 152.32,147.23 152.34,147.22 152.36,147.21 C 152.4,147.2 152.44,147.19 152.48,147.18 C 152.56,147.16 152.64,147.15 152.72,147.15 C 152.88,147.14 153.03,147.16 153.17,147.21 C 153.81,147.44 154.16,148.13 153.95,148.77 C 153.74,149.43 153.04,149.79 152.38,149.58 C 151.73,149.37 151.37,148.67 151.58,148.01 z M 146.58,148.43 C 145.94,148.48 145.33,148.6 144.72,148.8 C 144.11,149.0 143.54,149.24 142.99,149.6 C 142.73,149.77 142.48,149.97 142.25,150.19 C 142.14,150.3 142.03,150.41 141.92,150.53 C 141.9,150.56 141.87,150.6 141.85,150.63 C 141.84,150.64 141.82,150.66 141.81,150.67 C 141.8,150.69 141.8,150.67 141.79,150.66 C 141.78,150.66 141.77,150.65 141.76,150.64 C 141.74,150.63 141.77,150.61 141.78,150.6 C 141.79,150.58 141.8,150.57 141.82,150.55 C 141.84,150.52 141.87,150.49 141.89,150.46 C 142.29,149.96 142.72,149.5 143.21,149.08 C 143.69,148.67 144.2,148.3 144.77,148.0 C 145.05,147.84 145.34,147.72 145.64,147.61 C 145.79,147.56 145.94,147.51 146.1,147.48 C 146.18,147.46 146.25,147.44 146.33,147.42 C 146.37,147.42 146.41,147.41 146.45,147.4 C 146.47,147.4 146.49,147.39 146.51,147.39 C 146.52,147.39 146.52,147.38 146.53,147.37 C 146.53,147.37 146.54,147.36 146.55,147.35 C 147.02,146.8 147.92,147.12 147.94,147.84 C 147.97,148.57 147.09,148.94 146.58,148.43 z M 148.16,150.37 C 146.72,149.55 144.96,149.45 143.44,150.17 C 143.07,150.35 142.74,150.56 142.42,150.82 C 142.34,150.89 142.27,150.96 142.19,151.03 C 142.18,151.03 142.17,151.04 142.16,151.05 C 142.16,151.06 142.15,151.06 142.15,151.07 C 142.15,151.07 142.14,151.08 142.14,151.08 C 142.13,151.07 142.12,151.06 142.11,151.05 C 142.1,151.04 142.08,151.04 142.09,151.02 C 142.13,150.99 142.17,150.95 142.2,150.91 C 142.36,150.77 142.51,150.64 142.67,150.51 C 143.32,149.98 144.0,149.58 144.8,149.32 C 145.61,149.05 146.37,148.96 147.22,149.07 C 147.65,149.12 148.05,149.23 148.46,149.39 C 148.51,149.41 148.55,149.43 148.6,149.46 C 148.63,149.47 148.65,149.48 148.68,149.49 C 148.69,149.49 148.7,149.5 148.71,149.51 C 148.73,149.51 148.74,149.51 148.75,149.5 C 148.84,149.45 148.93,149.42 149.03,149.4 C 149.22,149.36 149.39,149.37 149.57,149.43 C 150.45,149.71 150.61,150.88 149.84,151.38 C 149.08,151.89 148.07,151.28 148.16,150.37 z M 136.83,136.29 C 136.89,136.47 136.97,136.64 137.07,136.79 C 137.23,137.03 137.46,137.23 137.71,137.38 C 137.73,137.38 137.74,137.39 137.75,137.4 C 137.76,137.41 137.77,137.42 137.77,137.44 C 137.78,137.47 137.78,137.5 137.78,137.52 C 137.78,137.54 137.77,137.55 137.77,137.57 C 137.76,137.58 137.75,137.59 137.74,137.61 C 137.73,137.62 137.71,137.63 137.69,137.63 C 137.68,137.63 137.66,137.63 137.65,137.63 C 137.5,137.61 137.35,137.57 137.22,137.5 C 137.15,137.46 137.08,137.42 137.01,137.37 C 136.93,137.31 136.87,137.24 136.8,137.17 C 136.74,137.09 136.69,137.01 136.65,136.93 C 136.61,136.86 136.59,136.79 136.56,136.71 C 136.53,136.58 136.51,136.44 136.51,136.3 C 136.51,136.29 136.52,136.28 136.52,136.27 C 136.52,136.25 136.53,136.24 136.54,136.23 C 136.55,136.21 136.57,136.2 136.59,136.19 C 136.62,136.18 136.65,136.18 136.67,136.18 C 136.7,136.18 136.73,136.19 136.75,136.2 C 136.77,136.21 136.79,136.22 136.8,136.23 C 136.81,136.24 136.82,136.25 136.82,136.26 C 136.83,136.27 136.83,136.28 136.83,136.29 z M 136.51,132.98 C 136.55,133.04 136.58,133.12 136.59,133.2 C 136.6,133.29 136.58,133.38 136.54,133.45 C 136.48,133.55 136.37,133.62 136.26,133.63 C 136.09,133.65 135.91,133.53 135.84,133.37 C 135.78,133.25 135.79,133.1 135.87,132.98 C 135.93,132.88 136.05,132.8 136.17,132.79 C 136.3,132.79 136.43,132.87 136.51,132.98 z M 140.17,147.04 C 140.08,146.82 139.98,146.59 139.85,146.39 C 139.6,145.99 139.25,145.71 139.0,145.31 C 138.62,144.69 138.5,143.8 138.58,142.98 C 138.68,141.98 139.09,141.09 139.63,140.29 C 139.84,139.99 140.07,139.69 140.33,139.41 C 140.16,139.72 140.02,140.03 139.9,140.36 C 139.64,141.08 139.48,141.85 139.5,142.61 C 139.51,143.17 139.62,143.74 139.77,144.29 C 139.87,144.64 139.98,144.99 140.03,145.35 C 140.08,145.69 140.08,146.04 140.1,146.39 C 140.12,146.61 140.14,146.83 140.17,147.04 z M 138.16,137.17 C 138.03,137.07 137.9,136.96 137.79,136.84 C 137.65,136.7 137.53,136.53 137.43,136.35 C 137.34,136.17 137.29,135.98 137.24,135.79 C 137.22,135.72 137.21,135.65 137.21,135.58 C 137.21,135.53 137.23,135.48 137.25,135.44 C 137.28,135.4 137.33,135.36 137.38,135.34 C 137.42,135.33 137.47,135.33 137.52,135.34 C 137.58,135.35 137.63,135.39 137.66,135.43 C 137.68,135.46 137.69,135.49 137.7,135.52 C 137.72,135.59 137.72,135.65 137.73,135.71 C 137.75,135.89 137.83,136.05 137.92,136.2 C 138.06,136.43 138.25,136.62 138.46,136.78 C 138.7,136.96 138.98,137.11 139.22,137.26 C 139.44,137.39 139.62,137.52 139.88,137.72 C 140.31,138.06 140.95,138.59 140.86,138.62 C 140.8,138.64 140.33,138.37 139.95,138.17 C 139.53,137.95 139.25,137.84 138.93,137.66 C 138.78,137.58 138.63,137.48 138.48,137.39 C 138.37,137.32 138.26,137.25 138.16,137.17 z M 144.43,127.24 C 146.07,128.34 146.98,130.24 147.11,132.15 C 147.12,132.27 147.12,132.39 147.13,132.51 C 147.13,132.54 147.13,132.57 147.13,132.6 C 147.13,132.6 147.13,132.61 147.13,132.62 C 147.13,132.63 147.12,132.61 147.12,132.61 C 147.12,132.59 147.12,132.58 147.11,132.56 C 147.1,132.51 147.09,132.45 147.07,132.39 C 147.01,132.16 146.94,131.93 146.85,131.71 C 146.66,131.25 146.43,130.84 146.14,130.45 C 145.53,129.63 144.84,129.06 143.76,128.96 C 143.27,128.91 142.78,128.95 142.29,129.0 C 142.05,129.02 141.81,129.05 141.57,129.06 C 141.45,129.07 141.32,129.07 141.2,129.07 C 141.14,129.07 141.08,129.07 141.02,129.07 C 140.99,129.07 140.96,129.07 140.93,129.08 C 140.9,129.09 140.88,129.1 140.85,129.12 C 140.63,129.21 140.43,129.32 140.25,129.46 C 140.15,129.53 140.07,129.61 139.99,129.69 C 139.98,129.7 139.98,129.7 139.97,129.71 C 139.97,129.71 139.95,129.71 139.96,129.72 C 139.97,129.73 139.97,129.75 139.98,129.76 C 139.99,129.79 140.0,129.81 140.01,129.84 C 140.02,129.91 140.02,129.97 140.0,130.03 C 139.93,130.28 139.63,130.38 139.42,130.22 C 139.21,130.06 139.22,129.75 139.45,129.61 C 139.55,129.54 139.68,129.53 139.79,129.58 C 139.8,129.59 139.84,129.53 139.85,129.53 C 139.87,129.51 139.89,129.48 139.92,129.46 C 139.96,129.42 140.0,129.38 140.05,129.35 C 140.14,129.27 140.24,129.2 140.34,129.14 C 140.37,129.12 140.4,129.11 140.42,129.09 C 140.44,129.08 140.52,129.05 140.47,129.05 C 140.42,129.05 140.36,129.04 140.3,129.04 C 140.18,129.03 140.06,129.01 139.95,129.0 C 139.92,128.99 139.89,128.99 139.86,128.98 C 139.85,128.98 139.83,128.98 139.82,128.97 C 139.8,128.97 139.79,128.98 139.78,128.99 C 139.73,129.02 139.68,129.05 139.64,129.09 C 139.45,129.23 139.27,129.38 139.1,129.55 C 138.94,129.71 138.79,129.89 138.65,130.08 C 138.62,130.13 138.58,130.18 138.55,130.22 C 138.54,130.24 138.53,130.25 138.53,130.26 C 138.52,130.27 138.52,130.27 138.51,130.28 C 138.51,130.29 138.52,130.29 138.53,130.3 C 138.55,130.32 138.56,130.34 138.58,130.37 C 138.66,130.48 138.69,130.59 138.68,130.73 C 138.66,131.31 137.92,131.53 137.58,131.07 C 137.42,130.85 137.42,130.56 137.58,130.35 C 137.66,130.23 137.76,130.16 137.9,130.12 C 137.96,130.1 138.02,130.09 138.09,130.1 C 138.12,130.1 138.15,130.1 138.18,130.1 C 138.19,130.11 138.19,130.11 138.2,130.11 C 138.21,130.11 138.21,130.1 138.21,130.09 C 138.22,130.08 138.23,130.07 138.24,130.06 C 138.5,129.65 138.81,129.31 139.18,129.0 C 139.23,128.96 139.28,128.92 139.32,128.88 C 139.33,128.88 139.37,128.87 139.34,128.86 C 139.33,128.85 139.32,128.85 139.3,128.84 C 139.27,128.84 139.25,128.83 139.22,128.82 C 139.11,128.77 139.0,128.73 138.89,128.68 C 138.86,128.66 138.84,128.65 138.81,128.63 C 138.8,128.63 138.8,128.63 138.79,128.62 C 138.78,128.62 138.78,128.61 138.77,128.62 C 138.76,128.63 138.75,128.64 138.74,128.65 C 138.69,128.68 138.65,128.72 138.6,128.75 C 138.51,128.83 138.43,128.91 138.35,128.99 C 138.31,129.04 138.28,129.08 138.24,129.12 C 138.23,129.13 138.25,129.15 138.26,129.16 C 138.26,129.17 138.27,129.18 138.28,129.2 C 138.29,129.22 138.3,129.25 138.3,129.28 C 138.33,129.4 138.29,129.52 138.2,129.61 C 138.03,129.8 137.72,129.75 137.6,129.52 C 137.48,129.29 137.63,129.01 137.89,128.98 C 137.95,128.97 138.01,128.98 138.06,129.0 C 138.08,129.0 138.09,128.97 138.09,128.96 C 138.1,128.95 138.11,128.94 138.12,128.93 C 138.14,128.91 138.17,128.88 138.19,128.86 C 138.27,128.77 138.36,128.69 138.45,128.61 C 138.47,128.59 138.5,128.57 138.52,128.55 C 138.53,128.54 138.54,128.53 138.56,128.52 C 138.56,128.51 138.57,128.51 138.57,128.5 C 138.58,128.5 138.57,128.49 138.56,128.49 C 138.51,128.46 138.46,128.42 138.41,128.39 C 138.4,128.38 138.39,128.37 138.38,128.36 C 138.36,128.35 138.35,128.35 138.34,128.36 C 138.31,128.37 138.29,128.38 138.26,128.39 C 138.21,128.42 138.16,128.45 138.11,128.47 C 137.91,128.59 137.73,128.71 137.55,128.86 C 137.38,129.01 137.21,129.17 137.06,129.34 C 136.99,129.43 136.92,129.52 136.85,129.61 C 136.84,129.62 136.83,129.63 136.85,129.65 C 136.85,129.66 136.86,129.67 136.87,129.68 C 136.89,129.71 136.91,129.74 136.92,129.76 C 136.95,129.82 136.97,129.88 136.98,129.95 C 137.06,130.54 136.34,130.88 135.93,130.45 C 135.53,130.03 135.89,129.34 136.46,129.43 C 136.48,129.43 136.49,129.43 136.51,129.44 C 136.52,129.44 136.53,129.45 136.54,129.43 C 136.56,129.41 136.58,129.38 136.6,129.36 C 136.63,129.31 136.67,129.26 136.71,129.22 C 136.78,129.12 136.86,129.03 136.95,128.94 C 137.12,128.77 137.29,128.61 137.49,128.46 C 137.59,128.39 137.69,128.32 137.79,128.26 C 137.84,128.22 137.89,128.19 137.94,128.16 C 137.97,128.15 138.0,128.13 138.02,128.12 C 138.03,128.12 138.04,128.11 138.04,128.11 C 138.05,128.11 138.06,128.11 138.05,128.1 C 138.04,128.09 138.03,128.08 138.02,128.07 C 137.93,127.99 137.85,127.9 137.77,127.81 C 137.75,127.79 137.73,127.77 137.72,127.75 C 137.71,127.73 137.7,127.72 137.69,127.71 C 137.68,127.7 137.65,127.69 137.66,127.68 C 137.72,127.65 137.77,127.63 137.82,127.6 C 137.92,127.55 138.03,127.5 138.14,127.45 C 138.19,127.43 138.24,127.41 138.29,127.38 C 138.32,127.37 138.35,127.36 138.37,127.35 C 138.39,127.34 138.4,127.35 138.41,127.36 C 138.42,127.37 138.43,127.38 138.44,127.39 C 138.6,127.57 138.78,127.71 138.98,127.83 C 139.81,128.31 140.87,128.42 141.79,128.32 C 142.75,128.2 143.67,127.87 144.43,127.24 z M 138.75,127.2 C 138.87,127.15 139.0,127.11 139.13,127.07 C 139.58,126.92 140.04,126.81 140.5,126.71 C 140.77,126.66 141.04,126.62 141.31,126.58 C 141.57,126.55 141.83,126.53 142.09,126.53 C 142.3,126.53 142.52,126.54 142.73,126.57 C 142.85,126.59 142.98,126.61 143.1,126.64 C 142.92,126.81 142.73,126.95 142.54,127.09 C 142.17,127.35 141.76,127.55 141.25,127.66 C 141.05,127.7 140.83,127.73 140.61,127.74 C 140.41,127.75 140.2,127.75 140.01,127.72 C 139.64,127.67 139.31,127.56 139.0,127.37 C 138.92,127.32 138.83,127.26 138.75,127.2 z M 142.04,129.89 C 142.85,129.93 143.65,130.23 144.47,130.73 C 144.96,131.03 145.45,131.39 145.82,131.85 C 146.05,132.14 146.23,132.47 146.36,132.81 C 146.56,133.3 146.66,133.83 146.65,134.36 C 146.64,134.67 146.6,134.98 146.53,135.28 C 146.43,135.68 146.29,136.08 146.11,136.45 C 146.18,136.21 146.22,135.97 146.25,135.72 C 146.29,135.43 146.3,135.14 146.25,134.85 C 146.19,134.47 146.02,134.11 145.8,133.83 C 145.59,133.55 145.35,133.35 145.08,133.08 C 144.75,132.75 144.39,132.31 144.16,131.93 C 144.04,131.74 143.96,131.57 143.85,131.37 C 143.73,131.15 143.59,130.91 143.43,130.72 C 143.22,130.46 143.0,130.29 142.73,130.14 C 142.54,130.04 142.32,129.95 142.04,129.89 z M 144.21,164.2 C 144.36,164.09 144.5,163.97 144.64,163.86 C 144.71,163.8 144.79,163.74 144.86,163.68 C 144.87,163.67 144.89,163.65 144.91,163.64 C 144.93,163.62 144.92,163.66 144.92,163.67 C 144.92,163.71 144.92,163.75 144.92,163.78 C 144.92,164.14 144.92,164.49 144.92,164.84 C 144.92,165.2 144.92,165.55 144.92,165.91 C 144.92,166.08 144.92,166.26 144.92,166.44 C 144.92,166.53 144.92,166.62 144.92,166.7 C 144.92,166.75 144.92,166.79 144.92,166.84 C 144.92,166.86 144.92,166.88 144.92,166.9 C 144.92,166.91 144.92,166.92 144.92,166.94 C 144.92,166.94 144.92,166.95 144.92,166.95 C 144.92,166.96 144.93,166.96 144.92,166.97 C 144.78,167.08 144.64,167.19 144.5,167.31 C 144.43,167.36 144.36,167.42 144.29,167.48 C 144.27,167.49 144.26,167.5 144.24,167.52 C 144.23,167.52 144.23,167.53 144.22,167.53 C 144.22,167.53 144.21,167.55 144.21,167.54 C 144.21,167.53 144.21,167.52 144.21,167.51 C 144.21,167.47 144.21,167.43 144.21,167.39 C 144.21,167.03 144.21,166.68 144.21,166.33 C 144.21,165.62 144.21,164.91 144.21,164.2 z M 148.51,164.07 C 148.37,164.19 148.23,164.3 148.09,164.41 C 148.02,164.47 147.95,164.53 147.88,164.58 C 147.86,164.6 147.84,164.61 147.83,164.63 C 147.82,164.63 147.8,164.66 147.8,164.64 C 147.8,164.63 147.8,164.62 147.8,164.61 C 147.8,164.57 147.8,164.53 147.8,164.49 C 147.8,164.14 147.8,163.78 147.8,163.43 C 147.8,163.08 147.8,162.72 147.8,162.37 C 147.8,162.19 147.8,162.01 147.8,161.84 C 147.8,161.75 147.8,161.66 147.8,161.57 C 147.8,161.53 147.8,161.48 147.8,161.44 C 147.8,161.42 147.8,161.39 147.8,161.37 C 147.8,161.36 147.8,161.35 147.8,161.34 C 147.8,161.33 147.8,161.33 147.8,161.32 C 147.8,161.32 147.8,161.31 147.8,161.31 C 147.94,161.19 148.08,161.08 148.22,160.97 C 148.29,160.92 148.36,160.86 148.42,160.81 C 148.44,160.79 148.46,160.78 148.48,160.76 C 148.48,160.76 148.49,160.75 148.5,160.74 C 148.5,160.74 148.51,160.73 148.51,160.74 C 148.51,160.74 148.51,160.75 148.51,160.75 C 148.51,160.8 148.51,160.84 148.51,160.89 C 148.51,161.24 148.51,161.6 148.51,161.95 C 148.51,162.66 148.51,163.37 148.51,164.07 z"
		 />

		<!-- Prism Reference -->
		<cam mingh:cam="--verb EditSelectAll --verb ZoomSelection --verb FileSave " /> 
	 </g>

</svg>
