<svg
   xmlns:xlink="http://www.w3.org/1999/xlink"
   xmlns:svg="http://www.w3.org/2000/svg"
   xmlns="http://www.w3.org/2000/svg"
   xmlns:mingh="http://www.minghworld.com"
   width="300px"
   height="300px" >
	
	 <g>
		
		<!-- Paths -->
		<path style="fill:none;stroke:#000;stroke-width:0.25px;"
		 d="M 150.78,122.47 C 148.96,122.47 147.37,123.68 146.88,125.44 C 146.38,127.2 147.1,129.08 148.66,130.03 C 148.76,130.09 148.78,130.23 148.69,130.31 C 148.68,130.32 148.67,130.3 148.66,130.31 C 148.43,130.51 148.2,130.71 147.94,130.88 C 147.66,131.05 147.37,131.19 147.06,131.28 C 146.94,131.32 146.81,131.35 146.69,131.38 C 146.56,131.4 146.41,131.4 146.28,131.41 C 146.03,131.42 145.78,131.39 145.53,131.34 C 145.42,131.32 145.32,131.32 145.22,131.28 C 145.13,131.25 145.02,131.21 144.94,131.16 C 144.87,131.12 144.81,131.05 144.75,131.0 C 144.7,130.95 144.66,130.9 144.63,130.84 C 144.6,130.8 144.58,130.74 144.56,130.69 C 144.54,130.63 144.54,130.59 144.53,130.53 C 144.52,130.44 144.52,130.33 144.56,130.25 C 144.58,130.21 144.59,130.18 144.63,130.16 C 144.64,130.15 144.64,130.13 144.66,130.13 C 144.68,130.12 144.7,130.13 144.72,130.13 C 144.74,130.12 144.76,130.12 144.78,130.13 C 144.79,130.13 144.81,130.15 144.81,130.16 C 144.83,130.17 144.83,130.17 144.84,130.19 C 144.86,130.22 144.89,130.25 144.91,130.28 C 145.1,130.73 145.62,130.95 146.06,130.75 C 146.51,130.55 146.73,130.01 146.53,129.56 C 146.43,129.34 146.29,129.12 146.13,128.94 C 145.97,128.77 145.8,128.63 145.59,128.53 C 145.41,128.44 145.2,128.4 145.0,128.38 C 144.83,128.35 144.64,128.35 144.47,128.38 C 144.29,128.4 144.14,128.43 143.97,128.5 C 143.81,128.57 143.63,128.67 143.5,128.78 C 143.26,128.98 143.07,129.22 142.94,129.5 C 142.85,129.69 142.81,129.92 142.78,130.13 C 142.77,130.18 142.75,130.23 142.75,130.28 C 142.74,130.36 142.62,130.36 142.59,130.28 C 142.56,130.2 142.54,130.14 142.5,130.06 C 142.4,129.86 142.27,129.67 142.13,129.5 C 141.98,129.34 141.8,129.19 141.63,129.06 C 141.39,128.9 141.15,128.77 140.88,128.69 C 140.74,128.65 140.61,128.62 140.47,128.59 C 140.33,128.57 140.2,128.57 140.06,128.56 C 139.8,128.55 139.54,128.57 139.28,128.63 C 139.15,128.65 139.03,128.68 138.91,128.72 C 138.7,128.79 138.5,128.89 138.31,129.0 C 137.95,129.22 137.63,129.51 137.38,129.84 C 137.08,130.23 136.86,130.68 136.75,131.16 C 136.69,131.41 136.66,131.65 136.66,131.91 C 136.65,132.13 136.68,132.37 136.72,132.59 C 136.76,132.86 136.84,133.12 136.94,133.38 C 137.03,133.63 137.14,133.86 137.28,134.09 C 137.42,134.33 137.57,134.54 137.75,134.75 C 137.86,134.88 137.97,135.01 138.09,135.13 C 138.23,135.25 138.41,135.36 138.56,135.47 C 138.86,135.68 139.19,135.84 139.53,135.97 C 139.86,136.09 140.18,136.18 140.53,136.25 C 140.65,136.27 140.78,136.3 140.91,136.31 C 141.01,136.33 141.03,136.49 140.94,136.53 C 140.74,136.63 140.54,136.71 140.34,136.81 C 140.01,136.99 139.7,137.2 139.38,137.41 C 139.19,137.52 139.02,137.63 138.84,137.75 C 138.36,138.09 137.89,138.46 137.47,138.88 C 137.32,139.02 137.2,139.16 137.06,139.31 C 137.0,139.38 136.93,139.46 136.88,139.53 C 136.84,139.57 136.81,139.62 136.78,139.66 C 136.72,139.73 136.6,139.69 136.59,139.59 C 136.58,139.48 136.49,138.68 136.47,138.56 C 136.43,138.38 136.32,138.32 136.16,138.25 C 136.0,138.18 135.86,138.13 135.69,138.09 C 135.07,137.97 134.3,138.03 133.72,138.28 C 133.47,138.39 133.03,138.59 133.0,138.94 C 132.99,139.04 133.08,139.34 133.09,139.44 C 133.12,139.6 133.13,139.77 133.16,139.94 C 133.27,140.6 133.41,141.25 133.53,141.91 C 134.02,144.54 134.5,147.19 135.03,149.81 C 135.03,149.99 135.03,150.17 135.03,150.34 C 134.45,150.59 134.16,150.63 133.53,150.69 C 133.27,150.71 133.03,150.76 132.78,150.84 C 132.48,150.94 132.25,151.08 132.5,151.38 C 132.83,151.77 133.38,151.98 133.84,152.13 C 134.43,152.3 134.73,152.44 135.03,153.03 C 135.03,156.44 135.03,159.85 135.03,163.25 C 135.03,163.32 135.03,163.37 134.97,163.41 C 134.59,163.63 133.97,164.04 133.97,164.59 L 133.97,166.34 C 133.97,167.15 135.19,167.71 135.72,167.94 C 135.82,167.98 135.79,168.14 135.69,168.16 C 134.92,168.28 134.48,168.71 134.25,169.44 C 134.05,170.07 134.04,170.83 134.22,171.47 C 134.24,171.53 134.22,171.58 134.19,171.63 C 134.06,171.8 133.99,171.97 133.97,172.19 C 133.97,172.77 133.97,173.33 133.97,173.91 C 133.97,174.15 134.07,174.35 134.22,174.53 C 134.41,174.78 134.65,174.93 134.91,175.09 C 135.7,175.58 136.68,175.91 137.56,176.16 C 138.99,176.55 140.44,176.8 141.91,177.0 C 144.85,177.4 147.78,177.53 150.75,177.53 C 153.72,177.53 156.65,177.39 159.59,177.0 C 161.06,176.8 162.54,176.55 163.97,176.16 C 164.85,175.92 165.83,175.61 166.63,175.13 C 166.89,174.96 167.14,174.8 167.34,174.56 C 167.49,174.39 167.57,174.2 167.59,173.97 C 167.59,173.37 167.6,172.79 167.59,172.19 C 167.58,172.14 167.6,172.08 167.59,172.03 C 167.58,171.98 167.55,171.92 167.53,171.88 C 167.49,171.78 167.47,171.71 167.41,171.63 C 167.37,171.58 167.36,171.53 167.38,171.47 C 167.55,170.83 167.55,170.07 167.34,169.44 C 167.11,168.71 166.64,168.28 165.88,168.16 C 165.77,168.14 165.75,167.98 165.84,167.94 C 166.37,167.71 167.59,167.15 167.59,166.34 L 167.59,164.59 C 167.59,164.05 167.0,163.63 166.63,163.41 C 166.56,163.37 166.53,163.32 166.53,163.25 C 166.53,157.25 166.55,151.25 166.56,145.25 C 166.56,144.89 166.53,144.52 166.5,144.16 C 166.47,143.83 166.44,143.51 166.38,143.19 C 166.33,142.94 166.26,142.68 166.19,142.44 C 166.16,142.36 166.15,142.27 166.13,142.19 C 166.01,141.82 165.89,141.48 165.72,141.13 C 165.66,141.01 165.59,140.89 165.53,140.78 C 165.4,140.54 165.28,140.32 165.13,140.09 C 164.95,139.83 164.74,139.55 164.53,139.31 C 164.4,139.16 164.27,139.02 164.13,138.88 C 163.71,138.46 163.24,138.09 162.75,137.75 C 162.57,137.63 162.4,137.52 162.22,137.41 C 161.9,137.2 161.56,136.99 161.22,136.81 C 161.02,136.71 160.82,136.63 160.63,136.53 C 160.53,136.49 160.55,136.33 160.66,136.31 C 160.78,136.3 160.91,136.27 161.03,136.25 C 161.38,136.18 161.73,136.09 162.06,135.97 C 162.4,135.84 162.73,135.68 163.03,135.47 C 163.19,135.36 163.33,135.25 163.47,135.13 C 163.59,135.01 163.73,134.88 163.84,134.75 C 164.02,134.54 164.18,134.33 164.31,134.09 C 164.45,133.86 164.56,133.63 164.66,133.38 C 164.75,133.12 164.83,132.83 164.88,132.56 C 164.91,132.34 164.91,132.13 164.91,131.91 C 164.9,131.65 164.87,131.41 164.81,131.16 C 164.7,130.68 164.51,130.23 164.22,129.84 C 163.96,129.51 163.64,129.22 163.28,129.0 C 163.09,128.89 162.89,128.79 162.69,128.72 C 162.56,128.68 162.44,128.65 162.31,128.63 C 162.06,128.57 161.79,128.55 161.53,128.56 C 161.4,128.57 161.26,128.57 161.13,128.59 C 160.99,128.62 160.85,128.65 160.72,128.69 C 160.45,128.77 160.17,128.9 159.94,129.06 C 159.76,129.19 159.61,129.34 159.47,129.5 C 159.32,129.67 159.2,129.86 159.09,130.06 C 159.06,130.14 159.0,130.2 158.97,130.28 C 158.94,130.36 158.85,130.36 158.84,130.28 C 158.84,130.23 158.82,130.18 158.81,130.13 C 158.78,129.92 158.71,129.69 158.63,129.5 C 158.49,129.22 158.3,128.98 158.06,128.78 C 157.93,128.67 157.78,128.57 157.63,128.5 C 157.46,128.43 157.27,128.4 157.09,128.38 C 156.92,128.35 156.77,128.35 156.59,128.38 C 156.39,128.4 156.18,128.44 156.0,128.53 C 155.79,128.63 155.59,128.77 155.44,128.94 C 155.27,129.12 155.16,129.34 155.06,129.56 C 154.86,130.01 155.05,130.55 155.5,130.75 C 155.95,130.95 156.49,130.73 156.69,130.28 C 156.7,130.25 156.7,130.22 156.72,130.19 C 156.73,130.17 156.74,130.17 156.75,130.16 C 156.76,130.15 156.77,130.13 156.78,130.13 C 156.79,130.12 156.81,130.13 156.81,130.13 C 156.83,130.12 156.82,130.12 156.84,130.13 C 156.87,130.13 156.89,130.12 156.91,130.13 C 156.92,130.13 156.96,130.15 156.97,130.16 C 157.0,130.18 157.01,130.21 157.03,130.25 C 157.07,130.33 157.07,130.44 157.06,130.53 C 157.06,130.59 157.05,130.63 157.03,130.69 C 157.01,130.74 157.0,130.8 156.97,130.84 C 156.93,130.9 156.89,130.95 156.84,131.0 C 156.79,131.05 156.69,131.12 156.63,131.16 C 156.54,131.21 156.47,131.25 156.38,131.28 C 156.27,131.32 156.17,131.32 156.06,131.34 C 155.81,131.39 155.54,131.42 155.28,131.41 C 155.15,131.4 155.04,131.4 154.91,131.38 C 154.78,131.35 154.65,131.32 154.53,131.28 C 154.22,131.19 153.93,131.05 153.66,130.88 C 153.4,130.71 153.13,130.51 152.91,130.31 L 152.88,130.31 C 152.79,130.23 152.8,130.09 152.91,130.03 C 154.46,129.08 155.21,127.2 154.72,125.44 C 154.22,123.68 152.61,122.47 150.78,122.47 z M 150.78,124.59 C 151.86,124.59 152.75,125.45 152.75,126.53 C 152.75,127.61 151.86,128.5 150.78,128.5 C 149.7,128.5 148.84,127.61 148.84,126.53 C 148.84,125.45 149.7,124.59 150.78,124.59 z M 140.0,130.31 C 140.06,130.31 140.13,130.33 140.19,130.34 C 140.24,130.35 140.29,130.36 140.34,130.38 C 140.44,130.41 140.51,130.44 140.59,130.5 C 140.66,130.54 140.73,130.6 140.78,130.66 C 140.84,130.72 140.87,130.8 140.91,130.88 C 140.95,130.96 140.98,131.04 141.0,131.13 C 141.01,131.18 141.03,131.22 141.03,131.28 C 141.03,131.32 141.03,131.37 141.03,131.41 C 141.03,131.44 141.04,131.47 141.03,131.5 C 141.02,131.54 140.98,131.56 140.97,131.59 C 140.95,131.64 140.94,131.68 140.91,131.72 C 140.86,131.78 140.8,131.85 140.75,131.91 C 140.67,131.98 140.58,132.03 140.5,132.09 C 140.11,132.39 140.05,132.95 140.34,133.34 C 140.64,133.74 141.17,133.82 141.56,133.53 C 141.71,133.42 141.87,133.29 142.0,133.16 C 142.12,133.04 142.21,132.92 142.31,132.78 C 142.41,132.65 142.49,132.52 142.56,132.38 C 142.63,132.24 142.68,132.11 142.72,131.97 C 142.75,131.87 142.77,131.76 142.78,131.66 C 142.8,131.54 142.98,131.49 143.03,131.59 C 143.06,131.65 143.09,131.73 143.13,131.78 C 143.24,131.97 143.37,132.13 143.53,132.28 C 143.69,132.43 143.85,132.55 144.03,132.66 C 144.21,132.76 144.4,132.87 144.59,132.94 C 144.78,133.01 144.99,133.05 145.19,133.09 C 145.47,133.15 145.75,133.18 146.03,133.19 C 146.14,133.19 146.18,133.32 146.09,133.38 C 146.03,133.41 145.97,133.46 145.91,133.5 C 145.63,133.67 145.35,133.83 145.06,133.97 C 144.89,134.05 144.71,134.12 144.53,134.19 C 144.36,134.25 144.2,134.32 144.03,134.38 C 143.79,134.45 143.56,134.49 143.31,134.53 C 142.86,134.61 142.37,134.64 141.91,134.63 C 141.55,134.62 141.22,134.6 140.88,134.53 C 140.63,134.48 140.39,134.4 140.16,134.31 C 139.94,134.23 139.75,134.13 139.56,134.0 C 139.39,133.88 139.23,133.75 139.09,133.59 C 138.99,133.47 138.9,133.33 138.81,133.19 C 138.73,133.04 138.65,132.91 138.59,132.75 C 138.54,132.6 138.49,132.44 138.47,132.28 C 138.45,132.17 138.44,132.05 138.44,131.94 C 138.44,131.81 138.44,131.69 138.47,131.56 C 138.5,131.44 138.54,131.3 138.59,131.19 C 138.64,131.09 138.71,131.0 138.78,130.91 C 138.9,130.75 139.05,130.63 139.22,130.53 C 139.36,130.45 139.5,130.38 139.66,130.34 C 139.77,130.32 139.88,130.31 140.0,130.31 z M 161.56,130.31 C 161.68,130.31 161.82,130.32 161.94,130.34 C 162.09,130.38 162.24,130.45 162.38,130.53 C 162.54,130.63 162.7,130.75 162.81,130.91 C 162.88,131.0 162.92,131.09 162.97,131.19 C 163.02,131.3 163.07,131.44 163.09,131.56 C 163.12,131.69 163.15,131.81 163.16,131.94 C 163.16,132.05 163.14,132.17 163.13,132.28 C 163.1,132.44 163.06,132.6 163.0,132.75 C 162.94,132.91 162.87,133.04 162.78,133.19 C 162.7,133.33 162.61,133.47 162.5,133.59 C 162.36,133.75 162.2,133.88 162.03,134.0 C 161.84,134.13 161.65,134.23 161.44,134.31 C 161.21,134.4 160.96,134.48 160.72,134.53 C 160.37,134.6 160.01,134.62 159.66,134.63 C 159.19,134.64 158.74,134.61 158.28,134.53 C 158.04,134.49 157.8,134.45 157.56,134.38 C 157.39,134.32 157.23,134.25 157.06,134.19 C 156.88,134.12 156.7,134.05 156.53,133.97 C 156.24,133.83 155.96,133.67 155.69,133.5 C 155.63,133.46 155.56,133.41 155.5,133.38 C 155.41,133.32 155.46,133.19 155.56,133.19 C 155.85,133.18 156.13,133.15 156.41,133.09 C 156.61,133.05 156.81,133.01 157.0,132.94 C 157.19,132.87 157.35,132.76 157.53,132.66 C 157.71,132.55 157.91,132.43 158.06,132.28 C 158.22,132.13 158.35,131.97 158.47,131.78 C 158.5,131.73 158.53,131.65 158.56,131.59 C 158.62,131.49 158.77,131.54 158.78,131.66 C 158.79,131.76 158.82,131.87 158.84,131.97 C 158.88,132.11 158.93,132.24 159.0,132.38 C 159.07,132.52 159.16,132.65 159.25,132.78 C 159.35,132.92 159.47,133.04 159.59,133.16 C 159.73,133.29 159.85,133.42 160.0,133.53 C 160.39,133.82 160.96,133.74 161.25,133.34 C 161.54,132.95 161.46,132.39 161.06,132.09 C 160.98,132.03 160.89,131.98 160.81,131.91 C 160.76,131.85 160.73,131.78 160.69,131.72 C 160.66,131.68 160.62,131.64 160.59,131.59 C 160.58,131.56 160.57,131.54 160.56,131.5 C 160.55,131.47 160.53,131.44 160.53,131.41 C 160.53,131.37 160.53,131.32 160.53,131.28 C 160.54,131.22 160.55,131.18 160.56,131.13 C 160.58,131.04 160.61,130.96 160.66,130.88 C 160.69,130.8 160.76,130.72 160.81,130.66 C 160.86,130.6 160.91,130.54 160.97,130.5 C 161.05,130.44 161.15,130.41 161.25,130.38 C 161.3,130.36 161.35,130.35 161.41,130.34 C 161.46,130.33 161.51,130.31 161.56,130.31 z M 144.88,137.34 C 144.89,137.34 144.89,137.35 144.91,137.34 C 145.0,137.31 145.08,137.44 145.0,137.5 C 144.98,137.52 144.93,137.55 144.91,137.56 C 144.56,137.81 144.23,138.05 143.91,138.34 C 143.82,138.42 143.74,138.51 143.66,138.59 C 143.03,139.2 142.47,139.88 142.0,140.66 C 141.86,140.9 141.72,141.15 141.59,141.41 C 141.2,142.22 140.95,143.1 140.78,144.0 C 140.77,144.03 140.76,144.06 140.75,144.09 C 140.68,144.52 140.62,144.95 140.59,145.38 C 140.56,145.8 140.56,146.21 140.56,146.63 L 140.56,146.97 C 140.56,147.92 140.56,148.89 140.56,149.84 C 140.56,149.97 140.43,150.07 140.31,150.03 C 139.42,149.72 138.51,149.52 137.69,149.56 C 137.68,149.56 137.67,149.56 137.66,149.56 C 137.56,149.57 137.48,149.5 137.47,149.41 C 137.36,148.23 137.23,147.0 137.13,145.78 C 137.13,145.43 137.15,145.1 137.19,144.75 C 137.23,144.36 137.31,144.0 137.41,143.63 C 137.44,143.51 137.47,143.39 137.5,143.28 C 137.73,142.55 138.08,141.86 138.53,141.25 C 138.61,141.14 138.69,141.04 138.78,140.94 C 139.01,140.67 139.24,140.42 139.5,140.19 C 139.94,139.79 140.43,139.41 140.94,139.09 C 141.16,138.95 141.39,138.82 141.63,138.69 C 142.0,138.48 142.38,138.3 142.78,138.13 C 143.3,137.9 143.84,137.68 144.38,137.5 C 144.44,137.48 144.53,137.46 144.59,137.44 C 144.69,137.41 144.78,137.37 144.88,137.34 z M 156.66,137.34 C 156.67,137.35 156.68,137.34 156.69,137.34 C 156.78,137.37 156.9,137.41 157.0,137.44 C 157.07,137.46 157.12,137.48 157.19,137.5 C 157.73,137.68 158.26,137.9 158.78,138.13 C 159.18,138.3 159.59,138.48 159.97,138.69 C 160.2,138.82 160.43,138.95 160.66,139.09 C 161.16,139.41 161.62,139.79 162.06,140.19 C 162.32,140.42 162.59,140.67 162.81,140.94 C 162.9,141.04 162.98,141.14 163.06,141.25 C 163.52,141.86 163.86,142.55 164.09,143.28 C 164.13,143.39 164.16,143.51 164.19,143.63 C 164.29,144.0 164.33,144.36 164.38,144.75 C 164.42,145.13 164.44,145.52 164.44,145.91 C 164.44,146.02 164.44,146.11 164.44,146.22 C 164.43,147.51 164.44,148.83 164.44,150.13 C 164.44,150.2 164.38,150.26 164.31,150.28 C 164.16,150.34 164.0,150.39 163.84,150.44 C 163.48,150.56 163.1,150.68 162.69,150.78 C 162.28,150.88 161.86,150.97 161.41,151.06 C 161.35,151.07 161.27,151.08 161.22,151.09 C 161.11,151.11 161.03,151.02 161.03,150.91 C 161.03,149.6 161.03,148.28 161.03,146.97 L 161.03,146.63 C 161.03,146.21 161.03,145.8 161.0,145.38 C 160.97,144.95 160.92,144.52 160.84,144.09 C 160.84,144.06 160.82,144.03 160.81,144.0 C 160.65,143.1 160.39,142.22 160.0,141.41 C 159.88,141.15 159.74,140.9 159.59,140.66 C 159.13,139.88 158.56,139.2 157.94,138.59 C 157.85,138.51 157.75,138.42 157.66,138.34 C 157.34,138.05 157.0,137.81 156.66,137.56 C 156.63,137.55 156.62,137.52 156.59,137.5 C 156.51,137.44 156.56,137.31 156.66,137.34 z M 146.19,138.25 C 146.24,138.26 146.29,138.29 146.31,138.34 C 146.47,138.68 146.68,138.99 146.91,139.28 C 146.95,139.34 146.94,139.4 146.91,139.47 C 146.78,139.75 146.67,140.03 146.56,140.31 C 146.54,140.36 146.55,140.39 146.53,140.44 C 146.45,140.66 146.38,140.89 146.31,141.13 C 146.31,141.13 146.28,141.12 146.28,141.13 C 146.21,141.37 146.15,141.65 146.09,141.91 C 145.89,142.76 145.77,143.65 145.69,144.56 C 145.68,144.59 145.66,144.63 145.66,144.66 C 145.62,145.08 145.61,145.48 145.59,145.91 C 145.58,146.33 145.56,146.77 145.56,147.19 C 145.56,147.31 145.56,147.44 145.56,147.56 C 145.56,148.9 145.56,150.23 145.56,151.56 C 145.56,151.67 145.48,151.73 145.38,151.72 C 145.11,151.7 144.85,151.68 144.59,151.66 C 144.17,151.62 143.76,151.58 143.34,151.53 C 143.32,151.53 143.3,151.51 143.28,151.5 C 143.0,151.34 142.73,151.17 142.44,151.0 C 142.31,150.93 142.19,150.85 142.06,150.78 C 142.0,150.74 141.97,150.7 141.97,150.63 C 141.97,149.48 141.94,148.34 141.94,147.19 L 141.94,146.84 C 141.94,146.46 141.97,146.07 142.0,145.69 C 142.03,145.3 142.06,144.92 142.13,144.53 C 142.14,144.42 142.17,144.32 142.19,144.22 C 142.33,143.48 142.54,142.74 142.84,142.06 C 143.03,141.65 143.25,141.25 143.5,140.88 C 143.75,140.5 144.02,140.14 144.31,139.81 C 144.48,139.62 144.66,139.43 144.84,139.25 C 145.01,139.09 145.17,138.96 145.34,138.81 C 145.38,138.78 145.43,138.75 145.47,138.72 C 145.66,138.56 145.83,138.42 146.03,138.28 C 146.08,138.25 146.14,138.24 146.19,138.25 z M 155.38,138.25 C 155.42,138.24 155.49,138.25 155.53,138.28 C 155.73,138.42 155.94,138.56 156.13,138.72 C 156.16,138.75 156.18,138.78 156.22,138.81 C 156.39,138.96 156.56,139.09 156.72,139.25 C 156.9,139.43 157.08,139.62 157.25,139.81 C 157.54,140.14 157.81,140.5 158.06,140.88 C 158.31,141.25 158.53,141.65 158.72,142.06 C 159.03,142.74 159.26,143.48 159.41,144.22 C 159.43,144.32 159.45,144.42 159.47,144.53 C 159.53,144.92 159.57,145.3 159.59,145.69 C 159.62,146.07 159.63,146.46 159.63,146.84 L 159.63,147.19 C 159.62,148.52 159.63,149.85 159.63,151.19 C 159.62,151.28 159.56,151.36 159.47,151.38 C 159.16,151.42 158.85,151.46 158.53,151.5 C 158.03,151.56 157.49,151.61 156.97,151.66 C 156.71,151.68 156.45,151.7 156.19,151.72 C 156.08,151.73 156.0,151.67 156.0,151.56 C 156.0,150.23 156.0,148.9 156.0,147.56 C 156.0,147.44 156.0,147.31 156.0,147.19 C 156.0,146.77 156.02,146.33 156.0,145.91 C 155.98,145.48 155.94,145.08 155.91,144.66 C 155.9,144.63 155.91,144.59 155.91,144.56 C 155.82,143.65 155.7,142.76 155.5,141.91 C 155.44,141.65 155.35,141.37 155.28,141.13 C 155.21,140.89 155.14,140.66 155.06,140.44 C 155.05,140.39 155.02,140.36 155.0,140.31 C 154.9,140.03 154.78,139.75 154.66,139.47 C 154.62,139.4 154.64,139.34 154.69,139.28 C 154.92,138.99 155.12,138.68 155.28,138.34 C 155.3,138.29 155.33,138.26 155.38,138.25 z M 147.97,140.38 C 148.02,140.36 148.08,140.34 148.13,140.38 C 148.7,140.75 149.29,140.98 149.97,141.09 C 150.05,141.11 150.09,141.19 150.09,141.28 C 150.09,141.54 150.09,141.81 150.09,142.06 L 150.09,142.19 L 150.09,144.75 C 150.09,145.77 150.09,146.72 150.09,147.72 C 150.09,149.06 150.09,150.41 150.09,151.75 C 150.09,151.85 150.04,151.94 149.94,151.94 C 149.72,151.94 149.5,151.94 149.28,151.94 C 149.08,151.93 148.89,151.91 148.69,151.91 C 148.67,151.91 148.64,151.91 148.63,151.91 C 148.49,151.87 148.36,151.83 148.22,151.81 C 147.86,151.76 147.51,151.74 147.16,151.78 C 147.05,151.79 146.94,151.73 146.94,151.63 C 146.94,150.3 146.94,148.95 146.94,147.63 C 146.94,147.5 146.94,147.38 146.94,147.25 C 146.94,146.48 146.97,145.72 147.03,144.94 C 147.04,144.84 147.02,144.76 147.03,144.66 C 147.09,143.91 147.21,143.15 147.34,142.44 C 147.42,142.05 147.5,141.68 147.59,141.31 C 147.61,141.26 147.61,141.2 147.63,141.16 C 147.69,140.92 147.77,140.7 147.84,140.47 C 147.86,140.41 147.92,140.39 147.97,140.38 z M 153.47,140.38 C 153.57,140.31 153.68,140.36 153.72,140.47 C 153.8,140.7 153.87,140.92 153.94,141.16 C 153.95,141.2 153.99,141.26 154.0,141.31 C 154.1,141.68 154.18,142.05 154.25,142.44 C 154.39,143.15 154.47,143.91 154.53,144.66 C 154.54,144.76 154.56,144.84 154.56,144.94 C 154.62,145.72 154.63,146.48 154.63,147.25 C 154.62,147.38 154.63,147.5 154.63,147.63 C 154.62,148.97 154.63,150.31 154.63,151.66 C 154.62,151.75 154.56,151.84 154.47,151.84 C 154.27,151.85 154.05,151.87 153.84,151.88 C 153.33,151.9 152.83,151.93 152.31,151.94 C 152.1,151.94 151.87,151.93 151.66,151.94 C 151.56,151.94 151.47,151.85 151.47,151.75 L 151.47,147.72 L 151.47,144.75 C 151.47,143.88 151.47,143.01 151.47,142.19 L 151.47,142.06 L 151.47,141.28 C 151.47,141.19 151.54,141.11 151.63,141.09 C 152.3,140.98 152.89,140.75 153.47,140.38 z M 164.19,152.28 C 164.3,152.24 164.44,152.31 164.44,152.44 C 164.43,154.86 164.44,157.29 164.44,159.72 C 164.44,159.79 164.38,159.85 164.31,159.88 C 164.16,159.93 164.0,159.98 163.84,160.03 C 163.48,160.15 163.1,160.27 162.69,160.38 C 162.28,160.48 161.83,160.57 161.38,160.66 C 161.32,160.67 161.27,160.68 161.22,160.69 C 161.11,160.71 161.03,160.64 161.03,160.53 C 161.03,158.1 161.03,155.65 161.03,153.22 C 161.03,153.13 161.07,153.08 161.16,153.06 C 161.23,153.05 161.33,153.01 161.41,153.0 C 161.86,152.91 162.28,152.82 162.69,152.72 C 163.1,152.62 163.48,152.53 163.84,152.41 C 163.96,152.37 164.08,152.32 164.19,152.28 z M 150.75,153.25 C 150.76,153.25 150.77,153.25 150.78,153.25 C 151.3,153.25 151.83,153.35 152.31,153.5 C 152.65,153.6 152.98,153.74 153.28,153.91 C 153.49,154.02 153.66,154.14 153.84,154.28 C 154.55,154.81 155.08,155.5 155.41,156.31 C 155.51,156.58 155.6,156.87 155.66,157.16 C 155.68,157.3 155.7,157.45 155.72,157.59 C 155.73,157.74 155.75,157.91 155.75,158.06 C 155.75,158.21 155.73,158.35 155.72,158.5 C 155.71,158.65 155.68,158.79 155.66,158.94 C 155.6,159.23 155.52,159.53 155.41,159.81 C 155.31,160.05 155.22,160.28 155.09,160.5 C 154.78,161.05 154.34,161.54 153.84,161.94 C 153.38,162.3 152.87,162.6 152.31,162.78 C 151.82,162.94 151.29,163.0 150.78,163.0 C 150.27,163.0 149.77,162.94 149.28,162.78 C 148.94,162.67 148.62,162.52 148.31,162.34 C 148.11,162.23 147.9,162.08 147.72,161.94 C 147.02,161.38 146.48,160.65 146.16,159.81 C 146.05,159.53 145.96,159.23 145.91,158.94 C 145.88,158.79 145.86,158.65 145.84,158.5 C 145.83,158.36 145.84,158.23 145.84,158.09 C 145.84,158.05 145.83,158.02 145.88,158.0 C 145.89,157.99 145.92,157.98 145.94,157.97 C 146.32,157.76 146.7,157.5 147.13,157.44 C 147.45,157.39 147.79,157.45 148.13,157.53 C 148.38,157.6 148.64,157.7 148.84,157.81 C 149.1,157.96 149.28,158.16 149.53,158.41 C 149.92,158.79 150.47,159.29 150.66,159.22 C 150.89,159.14 150.57,158.2 150.44,157.53 C 150.34,157.02 150.34,156.64 150.44,156.25 C 150.57,155.69 150.89,155.08 150.91,154.47 C 150.92,154.11 150.82,153.74 150.66,153.41 C 150.62,153.34 150.67,153.25 150.75,153.25 z M 159.41,153.34 C 159.51,153.33 159.63,153.39 159.63,153.5 C 159.62,155.93 159.63,158.38 159.63,160.81 C 159.62,160.9 159.56,160.96 159.47,160.97 C 159.16,161.01 158.82,161.05 158.5,161.09 C 158.0,161.15 157.49,161.23 156.97,161.28 C 156.73,161.3 156.5,161.32 156.25,161.34 C 156.16,161.35 156.11,161.26 156.16,161.19 C 156.35,160.85 156.52,160.49 156.66,160.13 C 156.82,159.67 156.91,159.19 156.97,158.72 C 157.03,158.24 157.02,157.78 156.97,157.31 C 156.91,156.84 156.82,156.37 156.66,155.94 C 156.5,155.52 156.28,155.12 156.03,154.75 C 156.01,154.72 156.0,154.69 156.0,154.66 L 156.0,153.88 C 156.0,153.78 156.1,153.69 156.19,153.69 C 156.46,153.67 156.7,153.65 156.97,153.63 C 157.49,153.58 158.03,153.53 158.53,153.47 C 158.84,153.43 159.11,153.39 159.41,153.34 z M 137.22,157.06 C 137.25,157.05 137.28,157.03 137.31,157.06 C 137.4,157.13 137.5,157.21 137.59,157.28 C 137.85,157.47 138.1,157.62 138.38,157.78 C 138.42,157.81 138.46,157.85 138.47,157.91 C 138.58,158.52 138.69,159.18 138.88,160.22 C 138.89,160.29 138.82,160.36 138.75,160.34 C 138.4,160.25 138.07,160.13 137.75,160.03 C 137.59,159.98 137.43,159.93 137.28,159.88 C 137.21,159.85 137.16,159.79 137.16,159.72 C 137.16,158.86 137.16,158.01 137.16,157.16 C 137.16,157.11 137.18,157.08 137.22,157.06 z M 139.22,158.28 C 139.25,158.26 139.3,158.26 139.34,158.28 C 139.57,158.38 139.79,158.46 140.03,158.53 C 140.1,158.55 140.14,158.58 140.16,158.66 C 140.25,159.16 140.33,159.7 140.5,160.56 C 140.51,160.64 140.45,160.7 140.38,160.69 C 140.31,160.68 140.25,160.67 140.19,160.66 C 140.02,160.62 139.85,160.6 139.69,160.56 C 139.62,160.55 139.58,160.48 139.56,160.41 C 139.39,159.46 139.28,158.92 139.19,158.41 C 139.18,158.36 139.19,158.3 139.22,158.28 z M 144.38,158.63 C 144.48,158.59 144.58,158.64 144.59,158.75 C 144.65,159.2 144.75,159.66 144.91,160.09 C 145.04,160.47 145.23,160.84 145.44,161.19 C 145.48,161.26 145.43,161.35 145.34,161.34 C 145.1,161.32 144.83,161.3 144.59,161.28 C 144.07,161.23 143.56,161.15 143.06,161.09 C 142.74,161.05 142.44,161.01 142.13,160.97 C 142.04,160.96 141.97,160.9 141.97,160.81 C 141.97,160.23 141.97,159.64 141.97,159.06 C 141.97,158.96 142.06,158.87 142.16,158.88 C 142.67,158.89 143.16,158.87 143.66,158.78 C 143.9,158.74 144.14,158.69 144.38,158.63 z M 137.41,161.88 C 138.4,162.23 139.38,162.46 140.41,162.66 C 140.49,162.67 140.56,162.76 140.56,162.84 C 140.56,164.32 140.56,165.8 140.56,167.28 C 140.56,167.39 140.45,167.46 140.34,167.44 C 139.31,167.26 138.29,167.04 137.28,166.75 C 137.21,166.73 137.16,166.67 137.16,166.59 C 137.16,165.08 137.16,163.58 137.16,162.06 C 137.16,161.94 137.29,161.83 137.41,161.88 z M 164.19,161.88 C 164.3,161.83 164.44,161.94 164.44,162.06 C 164.44,163.58 164.44,165.08 164.44,166.59 C 164.44,166.67 164.36,166.73 164.28,166.75 C 163.27,167.04 162.26,167.26 161.22,167.44 C 161.11,167.46 161.0,167.39 161.0,167.28 C 161.0,165.8 161.03,164.32 161.03,162.84 C 161.03,162.76 161.07,162.67 161.16,162.66 C 162.18,162.46 163.2,162.23 164.19,161.88 z M 142.16,162.94 C 143.23,163.09 144.32,163.2 145.41,163.28 C 145.5,163.29 145.56,163.38 145.56,163.47 C 145.56,164.93 145.56,166.41 145.56,167.88 C 145.56,167.98 145.48,168.04 145.38,168.03 C 144.28,167.95 143.21,167.86 142.13,167.72 C 142.04,167.71 141.97,167.62 141.97,167.53 C 141.97,166.06 141.97,164.6 141.97,163.13 C 141.97,163.02 142.05,162.92 142.16,162.94 z M 159.41,162.94 C 159.51,162.92 159.63,163.02 159.63,163.13 C 159.62,164.6 159.63,166.06 159.63,167.53 C 159.63,167.62 159.56,167.71 159.47,167.72 C 158.38,167.86 157.28,167.95 156.19,168.03 C 156.08,168.04 156.0,167.98 156.0,167.88 C 156.0,166.41 156.0,164.93 156.0,163.47 C 156.0,163.38 156.06,163.29 156.16,163.28 C 157.24,163.2 158.33,163.09 159.41,162.94 z M 147.13,163.41 C 147.3,163.42 147.48,163.43 147.66,163.44 C 147.69,163.44 147.72,163.45 147.75,163.47 C 148.45,163.87 149.17,164.11 149.97,164.22 C 150.06,164.23 150.09,164.29 150.09,164.38 L 150.09,168.06 C 150.09,168.16 150.04,168.22 149.94,168.22 C 149.0,168.21 148.06,168.2 147.13,168.16 C 147.03,168.15 146.94,168.06 146.94,167.97 C 146.94,166.51 146.94,165.05 146.94,163.59 C 146.94,163.49 147.02,163.4 147.13,163.41 z M 154.44,163.41 C 154.54,163.4 154.63,163.49 154.63,163.59 C 154.62,165.05 154.63,166.51 154.63,167.97 C 154.63,168.06 154.56,168.15 154.47,168.16 C 153.53,168.2 152.59,168.21 151.66,168.22 C 151.56,168.22 151.47,168.16 151.47,168.06 C 151.47,166.84 151.47,165.6 151.47,164.38 C 151.47,164.29 151.54,164.23 151.63,164.22 C 152.42,164.11 153.14,163.87 153.84,163.47 C 153.87,163.45 153.88,163.44 153.91,163.44 C 154.08,163.43 154.26,163.42 154.44,163.41 z M 137.97,168.69 C 139.45,169.07 140.92,169.31 142.44,169.5 C 142.53,169.51 142.55,169.62 142.47,169.66 C 141.83,169.92 141.31,170.29 140.81,170.75 C 140.32,171.2 139.91,171.74 139.38,172.16 C 138.86,172.55 138.22,172.87 137.53,172.72 C 136.85,172.57 136.33,172.06 136.06,171.44 C 135.92,171.12 135.84,170.81 135.84,170.47 C 135.84,170.3 135.86,170.15 135.97,170.0 C 136.07,169.86 136.24,169.79 136.41,169.78 C 136.58,169.77 136.74,169.84 136.81,170.0 C 136.89,170.18 136.84,170.33 136.69,170.44 C 136.56,170.54 136.4,170.62 136.31,170.78 C 136.22,170.94 136.22,171.07 136.25,171.25 C 136.31,171.66 136.62,171.99 137.0,172.13 C 137.27,172.22 137.5,172.23 137.78,172.16 C 138.52,171.97 138.77,171.26 138.72,170.59 C 138.63,169.96 138.32,169.3 137.88,168.84 C 137.81,168.78 137.88,168.67 137.97,168.69 z M 163.63,168.69 C 163.71,168.67 163.78,168.78 163.72,168.84 C 163.27,169.3 162.97,169.96 162.88,170.59 C 162.82,171.26 163.04,171.97 163.78,172.16 C 164.06,172.23 164.32,172.22 164.59,172.13 C 164.97,171.99 165.28,171.66 165.34,171.25 C 165.37,171.07 165.34,170.94 165.25,170.78 C 165.16,170.62 165.04,170.54 164.91,170.44 C 164.76,170.33 164.67,170.18 164.75,170.0 C 164.82,169.84 164.99,169.77 165.16,169.78 C 165.32,169.79 165.5,169.86 165.59,170.0 C 165.7,170.15 165.72,170.3 165.72,170.47 C 165.72,170.81 165.67,171.12 165.53,171.44 C 165.26,172.06 164.74,172.57 164.06,172.72 C 163.37,172.87 162.71,172.55 162.19,172.16 C 161.65,171.74 161.27,171.2 160.78,170.75 C 160.28,170.29 159.73,169.92 159.09,169.66 C 159.01,169.62 159.03,169.51 159.13,169.5 C 160.64,169.31 162.14,169.07 163.63,168.69 z M 149.25,169.97 C 150.28,169.99 151.32,169.99 152.34,169.97 C 152.44,169.97 152.46,170.08 152.38,170.13 C 151.67,170.46 151.15,171.07 150.91,171.81 C 150.87,171.91 150.72,171.91 150.69,171.81 C 150.44,171.07 149.92,170.46 149.22,170.13 C 149.13,170.08 149.15,169.97 149.25,169.97 z M 144.16,170.47 C 144.25,170.43 144.33,170.56 144.25,170.63 C 143.52,171.22 142.97,172.11 143.0,173.09 C 143.02,174.05 143.5,174.95 144.41,175.38 C 144.45,175.39 144.48,175.43 144.47,175.47 C 144.45,175.51 144.42,175.53 144.38,175.53 C 144.31,175.53 144.25,175.51 144.19,175.5 C 144.06,175.49 143.91,175.48 143.78,175.47 C 143.52,175.44 143.29,175.4 143.03,175.38 C 142.51,175.32 141.99,175.26 141.47,175.19 C 140.43,175.04 139.39,174.87 138.38,174.63 C 138.32,174.61 138.32,174.51 138.38,174.5 C 139.6,174.38 140.64,173.59 141.44,172.78 C 142.34,171.87 142.9,171.02 144.16,170.47 z M 157.38,170.47 C 157.39,170.46 157.41,170.46 157.44,170.47 C 158.69,171.02 159.26,171.87 160.16,172.78 C 160.95,173.59 161.97,174.38 163.19,174.5 C 163.25,174.51 163.25,174.61 163.19,174.63 C 162.17,174.87 161.16,175.04 160.13,175.19 C 159.61,175.26 159.08,175.32 158.56,175.38 C 158.3,175.4 158.04,175.44 157.78,175.47 C 157.65,175.48 157.53,175.49 157.41,175.5 C 157.34,175.51 157.28,175.53 157.22,175.53 C 157.18,175.54 157.14,175.51 157.13,175.47 C 157.11,175.43 157.11,175.39 157.16,175.38 C 158.06,174.95 158.54,174.05 158.56,173.09 C 158.59,172.11 158.08,171.22 157.34,170.63 C 157.28,170.58 157.32,170.49 157.38,170.47 z M 147.28,171.09 C 147.76,171.11 148.32,171.15 148.75,171.44 C 149.17,171.72 149.43,172.24 149.41,172.75 C 149.4,172.81 149.42,172.88 149.38,172.94 C 149.34,172.99 149.26,172.98 149.22,172.94 C 149.17,172.89 149.16,172.84 149.13,172.78 C 149.09,172.73 149.04,172.67 149.0,172.63 C 148.83,172.43 148.59,172.32 148.34,172.31 C 147.79,172.3 147.46,172.79 147.47,173.31 C 147.48,173.83 147.8,174.33 148.25,174.56 C 148.69,174.8 149.25,174.82 149.72,174.63 C 150.19,174.42 150.55,174.01 150.72,173.53 C 150.75,173.45 150.85,173.45 150.88,173.53 C 151.11,174.21 151.69,174.73 152.44,174.75 C 153.17,174.77 153.86,174.36 154.06,173.63 C 154.16,173.28 154.11,172.91 153.88,172.63 C 153.64,172.34 153.27,172.26 152.94,172.38 C 152.76,172.44 152.64,172.53 152.53,172.69 C 152.48,172.76 152.46,172.83 152.41,172.91 C 152.35,172.99 152.22,173.0 152.19,172.91 C 152.14,172.78 152.16,172.49 152.19,172.38 C 152.23,172.2 152.3,172.03 152.41,171.88 C 152.86,171.2 153.65,171.11 154.34,171.09 C 155.02,171.08 155.74,171.17 156.34,171.53 C 156.96,171.9 157.41,172.56 157.19,173.31 C 157.09,173.64 156.86,174.0 156.53,174.16 C 156.36,174.24 156.22,174.26 156.03,174.22 C 155.86,174.18 155.69,174.03 155.69,173.84 C 155.68,173.76 155.71,173.68 155.78,173.63 C 155.86,173.57 155.95,173.56 156.03,173.53 C 156.22,173.46 156.34,173.35 156.41,173.16 C 156.53,172.8 156.48,172.45 156.13,172.25 C 155.82,172.08 155.43,172.1 155.13,172.25 C 154.79,172.42 154.57,172.73 154.44,173.06 C 154.17,173.72 154.23,174.52 154.75,175.06 C 154.87,175.19 155.0,175.29 155.16,175.38 C 155.23,175.42 155.3,175.44 155.38,175.47 C 155.42,175.48 155.46,175.5 155.5,175.53 C 155.54,175.56 155.54,175.63 155.5,175.66 C 155.46,175.68 155.39,175.65 155.34,175.66 C 155.3,175.66 155.26,175.65 155.22,175.66 C 155.13,175.66 155.06,175.68 154.97,175.69 C 154.79,175.7 154.59,175.71 154.41,175.72 C 152.99,175.79 151.6,175.79 150.19,175.78 C 149.47,175.78 148.74,175.78 148.03,175.75 C 147.68,175.74 147.32,175.71 146.97,175.69 C 146.79,175.68 146.61,175.67 146.44,175.66 C 146.35,175.65 146.27,175.66 146.19,175.66 C 146.14,175.65 146.1,175.67 146.06,175.63 C 146.03,175.59 146.05,175.52 146.09,175.5 C 147.18,175.14 147.58,174.05 147.16,173.03 C 146.96,172.55 146.56,172.15 146.0,172.13 C 145.76,172.11 145.5,172.18 145.31,172.34 C 145.1,172.54 145.07,172.77 145.13,173.03 C 145.19,173.35 145.36,173.47 145.66,173.56 C 145.8,173.61 145.89,173.65 145.91,173.81 C 145.92,173.94 145.82,174.05 145.72,174.13 C 145.52,174.27 145.23,174.23 145.03,174.13 C 144.78,174.0 144.62,173.83 144.5,173.59 C 144.25,173.1 144.29,172.58 144.59,172.13 C 144.88,171.71 145.32,171.43 145.78,171.28 C 146.27,171.12 146.77,171.08 147.28,171.09 z"
		 />
		 <path style="fill:#f00;stroke:none;"
		 d="M 142.83,130.3 C 142.81,130.62 142.85,130.91 142.95,131.22 C 142.97,131.28 143.0,131.34 143.02,131.4 C 143.04,131.43 143.05,131.46 143.06,131.49 C 143.07,131.5 143.07,131.5 143.07,131.51 C 143.08,131.51 143.08,131.52 143.08,131.52 C 143.08,131.53 143.08,131.52 143.07,131.51 C 143.05,131.48 143.03,131.46 142.99,131.44 C 142.85,131.35 142.67,131.42 142.61,131.58 C 142.61,131.59 142.61,131.59 142.6,131.6 C 142.6,131.61 142.6,131.61 142.6,131.61 C 142.6,131.6 142.6,131.6 142.6,131.6 C 142.6,131.59 142.6,131.58 142.61,131.57 C 142.61,131.55 142.61,131.54 142.61,131.52 C 142.61,131.48 142.61,131.44 142.62,131.41 C 142.62,131.33 142.62,131.26 142.61,131.18 C 142.6,131.03 142.57,130.88 142.54,130.73 C 142.52,130.66 142.5,130.59 142.48,130.53 C 142.47,130.5 142.46,130.46 142.45,130.43 C 142.44,130.42 142.44,130.4 142.43,130.38 C 142.43,130.38 142.42,130.36 142.43,130.37 C 142.44,130.39 142.45,130.41 142.47,130.43 C 142.6,130.54 142.8,130.47 142.83,130.3 z M 158.64,130.3 C 158.66,130.62 158.62,130.91 158.52,131.22 C 158.5,131.28 158.47,131.34 158.45,131.4 C 158.44,131.43 158.42,131.46 158.41,131.49 C 158.4,131.5 158.4,131.5 158.4,131.51 C 158.4,131.51 158.39,131.52 158.39,131.52 C 158.39,131.53 158.4,131.52 158.4,131.51 C 158.42,131.48 158.45,131.46 158.48,131.44 C 158.62,131.35 158.8,131.42 158.86,131.58 C 158.86,131.59 158.87,131.59 158.87,131.6 C 158.87,131.61 158.87,131.61 158.87,131.61 C 158.87,131.6 158.87,131.6 158.87,131.6 C 158.87,131.59 158.87,131.58 158.87,131.57 C 158.86,131.55 158.86,131.54 158.86,131.52 C 158.86,131.48 158.86,131.44 158.86,131.41 C 158.85,131.33 158.86,131.26 158.86,131.18 C 158.87,131.03 158.9,130.88 158.93,130.73 C 158.95,130.66 158.97,130.59 158.99,130.53 C 159.0,130.5 159.01,130.46 159.02,130.43 C 159.03,130.42 159.03,130.4 159.04,130.38 C 159.04,130.38 159.05,130.36 159.05,130.37 C 159.03,130.39 159.02,130.41 159.0,130.43 C 158.87,130.54 158.67,130.47 158.64,130.3 z M 155.86,132.95 C 155.92,132.96 155.89,133.02 155.83,133.02 C 155.79,133.03 155.75,133.03 155.71,133.03 C 155.62,133.04 155.54,133.04 155.45,133.04 C 155.37,133.04 155.28,133.04 155.2,133.04 C 155.12,133.03 155.06,133.01 155.0,133.08 C 154.95,133.13 154.96,133.19 155.0,133.24 C 155.05,133.31 155.13,133.34 155.19,133.39 C 155.27,133.43 155.34,133.48 155.41,133.52 C 155.44,133.55 155.48,133.57 155.52,133.59 C 155.54,133.61 155.62,133.63 155.59,133.68 C 155.56,133.72 155.5,133.67 155.48,133.65 C 155.44,133.63 155.4,133.61 155.37,133.59 C 155.29,133.55 155.22,133.51 155.15,133.46 C 155.0,133.37 154.86,133.28 154.72,133.19 C 154.44,133.0 154.17,132.79 153.9,132.57 C 153.01,131.83 151.89,130.66 151.22,129.7 C 151.12,129.56 151.03,129.42 150.95,129.28 C 150.9,129.21 150.86,129.14 150.82,129.07 C 150.8,129.03 150.78,129.0 150.76,128.96 C 150.75,128.95 150.74,128.91 150.73,128.93 C 150.72,128.95 150.71,128.97 150.7,128.99 C 150.54,129.27 150.36,129.55 150.17,129.82 C 149.78,130.35 149.35,130.84 148.9,131.32 C 148.44,131.8 147.97,132.25 147.45,132.67 C 147.2,132.87 146.93,133.07 146.66,133.25 C 146.52,133.34 146.38,133.43 146.24,133.51 C 146.17,133.55 146.1,133.59 146.03,133.63 C 145.99,133.65 145.96,133.68 145.92,133.69 C 145.86,133.7 145.87,133.64 145.91,133.61 C 146.06,133.53 146.2,133.44 146.34,133.34 C 146.4,133.3 146.47,133.28 146.5,133.19 C 146.52,133.13 146.49,133.08 146.43,133.05 C 146.35,133.01 146.28,133.04 146.2,133.04 C 146.12,133.04 146.04,133.04 145.95,133.04 C 145.87,133.04 145.78,133.03 145.7,133.03 C 145.68,133.03 145.59,133.03 145.58,133.0 C 145.57,132.94 145.65,132.95 145.68,132.94 C 146.46,132.85 146.92,132.49 147.46,132.0 C 147.95,131.56 148.43,131.11 148.87,130.62 C 149.31,130.13 149.72,129.61 150.08,129.06 C 150.17,128.93 150.26,128.79 150.34,128.65 C 150.35,128.63 150.36,128.61 150.37,128.6 C 150.38,128.59 150.4,128.6 150.4,128.6 C 150.42,128.6 150.43,128.61 150.44,128.61 C 150.48,128.61 150.52,128.62 150.57,128.62 C 150.65,128.63 150.74,128.63 150.83,128.63 C 150.92,128.62 151.0,128.61 151.09,128.6 C 151.11,128.59 151.15,128.68 151.16,128.69 C 151.18,128.73 151.2,128.76 151.22,128.8 C 151.31,128.93 151.4,129.07 151.49,129.2 C 151.86,129.74 152.26,130.25 152.7,130.73 C 153.14,131.21 153.62,131.65 154.1,132.09 C 154.62,132.55 155.12,132.88 155.86,132.95 z M 167.29,171.54 C 167.75,172.11 167.54,172.62 167.04,173.05 C 166.62,173.41 166.02,173.69 165.52,173.89 C 165.48,173.91 165.44,173.92 165.39,173.94 C 165.37,173.95 165.35,173.96 165.33,173.97 C 165.31,173.97 165.3,173.97 165.29,173.98 C 165.27,173.99 165.32,173.96 165.33,173.96 C 165.49,173.86 165.64,173.75 165.79,173.64 C 166.02,173.46 166.23,173.26 166.43,173.04 C 166.82,172.59 167.11,172.12 167.29,171.54 z M 134.19,171.54 C 133.72,172.11 133.93,172.62 134.43,173.05 C 134.85,173.41 135.45,173.69 135.95,173.89 C 135.99,173.91 136.03,173.92 136.08,173.94 C 136.1,173.95 136.12,173.96 136.14,173.97 C 136.16,173.97 136.17,173.97 136.18,173.98 C 136.21,173.99 136.15,173.96 136.14,173.96 C 135.98,173.86 135.83,173.75 135.68,173.64 C 135.45,173.46 135.24,173.26 135.04,173.04 C 134.65,172.59 134.36,172.12 134.19,171.54 z M 138.81,157.44 C 138.95,158.18 139.08,158.93 139.22,159.67 C 139.27,159.95 139.32,160.23 139.37,160.5 C 139.38,160.58 139.4,160.66 139.41,160.75 C 139.42,160.77 139.42,160.79 139.42,160.81 C 139.43,160.83 139.41,160.82 139.39,160.82 C 139.37,160.82 139.35,160.82 139.33,160.82 C 139.25,160.81 139.17,160.81 139.09,160.81 C 139.08,160.81 139.07,160.81 139.06,160.79 C 139.06,160.78 139.06,160.77 139.06,160.76 C 139.06,160.74 139.05,160.72 139.05,160.7 C 139.04,160.66 139.03,160.62 139.03,160.58 C 139.01,160.51 139.0,160.43 138.99,160.36 C 138.9,159.87 138.81,159.39 138.73,158.91 C 138.67,158.55 138.6,158.2 138.54,157.84 C 138.51,157.67 138.48,157.5 138.45,157.34 C 138.45,157.31 138.44,157.29 138.44,157.27 C 138.44,157.25 138.43,157.23 138.41,157.22 C 138.37,157.19 138.33,157.16 138.29,157.14 C 138.21,157.09 138.13,157.03 138.05,156.98 C 137.46,156.57 136.85,156.03 136.44,155.43 C 136.19,155.07 136.01,154.7 135.91,154.27 C 135.8,153.86 135.73,153.44 135.57,153.04 C 135.41,152.63 135.2,152.3 134.83,152.03 C 134.47,151.76 134.06,151.69 133.66,151.54 C 133.56,151.5 133.47,151.46 133.37,151.41 C 133.32,151.38 133.28,151.36 133.23,151.33 C 133.21,151.32 133.19,151.3 133.17,151.29 C 133.16,151.28 133.15,151.28 133.15,151.28 C 133.14,151.27 133.16,151.27 133.16,151.27 C 133.18,151.27 133.19,151.27 133.2,151.27 C 133.41,151.24 133.63,151.23 133.84,151.2 C 134.27,151.15 134.67,151.04 135.07,150.88 C 135.22,150.81 135.48,150.74 135.57,150.56 C 135.68,150.38 135.59,150.14 135.56,149.97 C 135.47,149.56 135.39,149.14 135.31,148.72 C 134.98,147.07 134.66,145.41 134.35,143.75 C 134.2,142.92 134.04,142.09 133.89,141.26 C 133.82,140.84 133.74,140.42 133.67,140.01 C 133.63,139.8 133.59,139.59 133.55,139.38 C 133.54,139.28 133.52,139.18 133.5,139.07 C 133.5,139.05 133.49,139.02 133.49,138.99 C 133.49,138.98 133.54,138.95 133.55,138.95 C 133.59,138.92 133.64,138.89 133.68,138.86 C 134.04,138.67 134.5,138.58 134.9,138.56 C 135.11,138.55 135.32,138.57 135.53,138.61 C 135.63,138.63 135.74,138.66 135.83,138.7 C 135.84,138.7 135.9,138.72 135.9,138.73 C 135.91,138.76 135.91,138.79 135.91,138.81 C 135.92,138.87 135.93,138.92 135.93,138.97 C 136.04,139.81 136.12,140.65 136.19,141.49 C 136.34,143.17 136.47,144.86 136.62,146.54 C 136.7,147.39 136.78,148.24 136.86,149.09 C 136.86,149.17 136.91,149.66 136.92,149.74 C 136.96,149.92 137.05,150.06 137.26,150.1 C 137.37,150.11 137.47,150.1 137.58,150.09 C 137.69,150.08 137.79,150.08 137.9,150.08 C 138.11,150.08 138.32,150.1 138.54,150.13 C 139.4,150.25 140.19,150.52 140.97,150.88 C 141.36,151.06 141.74,151.25 142.11,151.47 C 142.48,151.68 142.83,151.92 143.21,152.12 C 143.88,152.47 144.85,152.81 145.64,152.74 C 145.85,152.72 146.05,152.67 146.25,152.59 C 146.45,152.51 146.64,152.42 146.84,152.37 C 147.27,152.28 147.68,152.28 148.1,152.35 C 148.93,152.47 149.75,152.87 150.14,153.68 C 150.34,154.1 150.36,154.47 150.25,154.91 C 150.15,155.33 149.98,155.71 149.88,156.13 C 149.78,156.55 149.76,156.96 149.82,157.39 C 149.85,157.6 149.9,157.81 149.95,158.02 C 149.96,158.04 149.96,158.07 149.97,158.09 C 149.97,158.11 149.97,158.12 149.98,158.13 C 149.98,158.14 149.98,158.15 149.98,158.15 C 149.99,158.16 149.98,158.15 149.97,158.15 C 149.93,158.11 149.9,158.07 149.86,158.04 C 149.78,157.96 149.71,157.88 149.63,157.81 C 149.29,157.47 149.03,157.28 148.57,157.13 C 148.16,157.0 147.76,156.9 147.32,156.9 C 146.87,156.9 146.49,157.03 146.1,157.23 C 145.73,157.43 145.36,157.65 144.97,157.82 C 144.19,158.16 143.41,158.33 142.55,158.36 C 141.97,158.38 141.42,158.34 140.85,158.19 C 140.77,158.17 140.68,158.15 140.59,158.12 C 140.57,158.12 140.54,158.11 140.52,158.1 C 140.51,158.1 140.51,158.1 140.5,158.1 C 140.5,158.1 140.48,158.09 140.48,158.1 C 140.49,158.11 140.49,158.12 140.49,158.14 C 140.5,158.19 140.51,158.25 140.52,158.3 C 140.56,158.5 140.6,158.7 140.64,158.91 C 140.74,159.39 140.83,159.88 140.93,160.36 C 140.96,160.53 141.0,160.7 141.03,160.87 C 141.04,160.92 141.05,160.97 141.06,161.01 C 141.06,161.04 141.07,161.06 141.07,161.09 C 141.08,161.1 141.09,161.12 141.07,161.12 C 141.05,161.12 141.02,161.12 141.0,161.11 C 140.9,161.11 140.8,161.1 140.71,161.1 C 140.69,161.1 140.7,161.07 140.7,161.06 C 140.69,161.05 140.69,161.04 140.69,161.02 C 140.68,161.0 140.68,160.98 140.68,160.95 C 140.61,160.63 140.55,160.3 140.48,159.97 C 140.39,159.51 140.31,159.06 140.22,158.6 C 140.18,158.4 140.14,158.19 140.11,157.99 C 140.1,157.97 140.0,157.95 139.98,157.95 C 139.94,157.93 139.91,157.92 139.87,157.91 C 139.8,157.89 139.73,157.86 139.66,157.84 C 139.36,157.73 139.09,157.59 138.81,157.44 z M 150.62,132.31 C 150.41,132.32 150.2,132.34 150.0,132.38 C 149.97,132.38 149.95,132.39 149.92,132.39 C 149.91,132.4 149.9,132.4 149.88,132.4 C 149.88,132.4 149.87,132.41 149.87,132.41 C 149.85,132.41 149.87,132.4 149.88,132.39 C 149.91,132.35 149.94,132.31 149.97,132.27 C 150.04,132.19 150.1,132.11 150.16,132.03 C 150.29,131.86 150.41,131.69 150.52,131.52 C 150.57,131.43 150.63,131.34 150.68,131.25 C 150.69,131.23 150.71,131.21 150.72,131.18 C 150.73,131.18 150.73,131.15 150.74,131.17 C 150.75,131.18 150.75,131.19 150.76,131.2 C 150.79,131.25 150.81,131.29 150.84,131.33 C 151.05,131.69 151.29,132.03 151.56,132.35 C 151.57,132.36 151.57,132.37 151.58,132.38 C 151.59,132.38 151.59,132.39 151.6,132.39 C 151.6,132.4 151.62,132.41 151.61,132.41 C 151.58,132.4 151.56,132.4 151.53,132.39 C 151.48,132.38 151.43,132.37 151.38,132.36 C 151.27,132.34 151.17,132.33 151.07,132.32 C 151.02,132.32 150.97,132.31 150.91,132.31 C 150.89,132.31 150.86,132.32 150.84,132.29 C 150.83,132.27 150.81,132.25 150.8,132.23 C 150.78,132.21 150.77,132.19 150.75,132.17 C 150.75,132.16 150.74,132.14 150.73,132.15 C 150.72,132.16 150.72,132.17 150.71,132.18 C 150.68,132.23 150.65,132.27 150.62,132.31 z M 154.58,135.55 C 154.55,135.4 154.52,135.25 154.48,135.11 C 154.46,135.04 154.43,134.97 154.41,134.9 C 154.4,134.86 154.38,134.83 154.37,134.8 C 154.36,134.78 154.38,134.8 154.39,134.81 C 154.4,134.81 154.41,134.82 154.41,134.82 C 154.43,134.83 154.45,134.84 154.46,134.85 C 154.71,135.01 154.97,135.16 155.23,135.31 C 155.76,135.59 156.29,135.84 156.86,136.02 C 157.43,136.21 158.01,136.31 158.61,136.37 C 158.9,136.4 159.2,136.41 159.5,136.41 C 159.57,136.41 159.65,136.4 159.72,136.4 C 159.76,136.4 159.8,136.4 159.83,136.4 C 159.85,136.4 159.87,136.4 159.89,136.39 C 159.91,136.39 159.92,136.38 159.94,136.39 C 160.08,136.45 160.22,136.51 160.35,136.58 C 160.49,136.64 160.62,136.7 160.75,136.77 C 160.79,136.78 160.82,136.8 160.85,136.82 C 160.86,136.82 160.86,136.82 160.87,136.82 C 160.87,136.83 160.86,136.83 160.86,136.83 C 160.85,136.83 160.84,136.83 160.83,136.83 C 160.81,136.83 160.79,136.84 160.78,136.84 C 160.7,136.85 160.63,136.86 160.56,136.87 C 160.26,136.91 159.96,136.93 159.67,136.93 C 159.07,136.95 158.48,136.91 157.89,136.81 C 157.3,136.72 156.73,136.56 156.17,136.34 C 155.62,136.12 155.09,135.85 154.58,135.55 z M 147.1,134.79 C 147.05,134.93 147.0,135.07 146.97,135.22 C 146.95,135.29 146.93,135.36 146.91,135.44 C 146.91,135.47 146.9,135.51 146.89,135.55 C 146.89,135.56 146.88,135.56 146.87,135.56 C 146.86,135.56 146.85,135.57 146.85,135.57 C 146.83,135.58 146.81,135.59 146.8,135.6 C 146.54,135.75 146.28,135.89 146.01,136.02 C 145.48,136.29 144.93,136.5 144.35,136.65 C 143.22,136.94 141.96,137.01 140.81,136.86 C 140.77,136.85 140.73,136.85 140.7,136.84 C 140.68,136.84 140.66,136.83 140.64,136.83 C 140.63,136.83 140.62,136.83 140.61,136.83 C 140.61,136.83 140.6,136.83 140.61,136.82 C 140.61,136.82 140.61,136.82 140.62,136.82 C 140.68,136.78 140.75,136.75 140.82,136.72 C 140.95,136.65 141.09,136.59 141.22,136.53 C 141.29,136.5 141.36,136.47 141.42,136.44 C 141.46,136.42 141.49,136.41 141.53,136.39 C 141.55,136.38 141.56,136.39 141.58,136.39 C 141.6,136.4 141.62,136.4 141.64,136.4 C 141.79,136.4 141.93,136.41 142.08,136.41 C 142.68,136.4 143.27,136.34 143.85,136.22 C 145.06,135.97 146.08,135.45 147.1,134.79 z M 153.55,140.12 C 153.13,140.42 152.68,140.65 152.18,140.8 C 151.93,140.88 151.68,140.94 151.42,140.98 C 151.4,140.98 151.42,140.94 151.42,140.93 C 151.42,140.92 151.42,140.9 151.42,140.88 C 151.42,140.85 151.42,140.82 151.42,140.78 C 151.42,140.72 151.42,140.65 151.42,140.59 C 151.42,140.46 151.42,140.34 151.42,140.21 C 151.42,140.18 151.42,140.15 151.42,140.13 C 151.42,140.11 151.42,140.1 151.42,140.08 C 151.42,140.08 151.41,140.05 151.42,140.04 C 151.49,140.03 151.55,140.02 151.62,140.0 C 151.75,139.97 151.88,139.94 152.0,139.89 C 152.25,139.81 152.48,139.7 152.7,139.57 C 152.82,139.5 152.93,139.43 153.04,139.35 C 153.07,139.33 153.1,139.31 153.12,139.29 C 153.14,139.28 153.15,139.27 153.16,139.26 C 153.17,139.25 153.19,139.23 153.2,139.25 C 153.22,139.3 153.24,139.35 153.26,139.4 C 153.37,139.64 153.46,139.87 153.55,140.12 z M 146.97,139.21 C 146.76,138.94 146.57,138.66 146.42,138.35 C 146.38,138.27 146.34,138.19 146.31,138.11 C 146.3,138.1 146.28,138.07 146.3,138.06 C 146.32,138.04 146.33,138.03 146.35,138.02 C 146.39,138.0 146.42,137.98 146.46,137.95 C 146.6,137.86 146.75,137.77 146.9,137.69 C 146.93,137.67 146.97,137.65 147.01,137.63 C 147.02,137.62 147.04,137.61 147.06,137.6 C 147.07,137.59 147.08,137.59 147.09,137.58 C 147.1,137.58 147.09,137.59 147.09,137.59 C 147.1,137.6 147.1,137.6 147.1,137.61 C 147.13,137.69 147.17,137.77 147.2,137.85 C 147.24,137.93 147.28,138.01 147.32,138.08 C 147.34,138.12 147.36,138.16 147.38,138.19 C 147.39,138.21 147.41,138.23 147.42,138.25 C 147.42,138.25 147.46,138.29 147.45,138.3 C 147.28,138.6 147.12,138.9 146.97,139.21 z M 150.05,140.98 C 149.53,140.9 149.05,140.75 148.58,140.52 C 148.35,140.4 148.13,140.27 147.92,140.12 C 147.91,140.11 147.93,140.08 147.93,140.07 C 147.94,140.06 147.95,140.04 147.95,140.03 C 147.96,140.0 147.97,139.97 147.99,139.94 C 148.01,139.88 148.03,139.82 148.06,139.76 C 148.1,139.64 148.15,139.52 148.2,139.4 C 148.23,139.35 148.25,139.3 148.27,139.25 C 148.28,139.25 148.27,139.23 148.28,139.24 C 148.29,139.24 148.3,139.25 148.3,139.25 C 148.32,139.26 148.33,139.27 148.34,139.28 C 148.37,139.3 148.4,139.32 148.42,139.34 C 148.53,139.42 148.64,139.5 148.76,139.57 C 148.99,139.7 149.22,139.8 149.46,139.89 C 149.59,139.93 149.72,139.97 149.85,140.0 C 149.91,140.02 149.98,140.03 150.04,140.04 C 150.07,140.05 150.05,140.06 150.05,140.08 C 150.05,140.09 150.05,140.11 150.05,140.12 C 150.05,140.15 150.05,140.18 150.05,140.2 C 150.05,140.46 150.05,140.72 150.05,140.98 z M 155.18,138.06 C 155.05,138.38 154.89,138.68 154.69,138.96 C 154.64,139.04 154.58,139.11 154.52,139.18 C 154.52,139.19 154.51,139.2 154.5,139.21 C 154.49,139.22 154.49,139.2 154.49,139.19 C 154.48,139.17 154.47,139.16 154.46,139.14 C 154.45,139.1 154.43,139.07 154.41,139.03 C 154.34,138.88 154.26,138.73 154.17,138.58 C 154.14,138.51 154.1,138.44 154.06,138.37 C 154.05,138.35 154.04,138.34 154.03,138.32 C 154.01,138.29 154.04,138.28 154.05,138.26 C 154.07,138.22 154.1,138.18 154.12,138.13 C 154.21,137.98 154.28,137.83 154.35,137.67 C 154.36,137.65 154.37,137.63 154.37,137.61 C 154.38,137.6 154.37,137.57 154.39,137.58 C 154.4,137.59 154.41,137.59 154.42,137.6 C 154.45,137.62 154.49,137.64 154.53,137.66 C 154.6,137.7 154.67,137.74 154.75,137.79 C 154.89,137.88 155.04,137.97 155.18,138.06 z M 134.12,172.17 L 134.12,172.17"
		 />
		 <path style="fill:#00f;stroke:none;"
		 d="M 154.69,136.21 C 154.71,137.74 153.72,139.22 152.31,139.8 C 150.92,140.4 149.19,140.09 148.1,139.03 C 147.0,138.0 146.6,136.32 147.11,134.91 C 147.61,133.45 149.05,132.37 150.59,132.31 C 152.09,132.22 153.59,133.09 154.26,134.43 C 154.54,134.98 154.69,135.59 154.69,136.21 z"
		 />
		
		<!-- Prism Reference -->
		<cam mingh:cam="--verb EditSelectAll --verb ZoomSelection --verb FileSave " /> 
	 </g>

</svg>
