<svg
   xmlns:xlink="http://www.w3.org/1999/xlink"
   xmlns:svg="http://www.w3.org/2000/svg"
   xmlns="http://www.w3.org/2000/svg"
   xmlns:mingh="http://www.minghworld.com"
   width="300px"
   height="300px" >
	
	 <g>
		
		<!-- Paths -->
		<path transform="matrix(-1 0 0 1 300 0)" style="fill:#ff0;stroke:none;"
		 d="M 150.31,121.59 C 150.09,121.58 149.85,121.6 149.63,121.63 C 147.79,121.81 146.3,123.18 146.0,125.0 C 145.7,126.82 146.67,128.61 148.34,129.38 C 148.5,129.45 148.48,129.68 148.31,129.72 C 144.78,130.5 141.14,132.48 138.88,135.41 C 136.55,138.41 135.73,142.36 135.84,146.0 C 135.9,147.89 136.2,149.72 136.59,151.56 C 136.98,153.39 137.48,155.19 137.72,157.06 C 137.84,158.01 137.87,158.93 137.72,159.88 C 137.71,159.93 137.7,160.0 137.69,160.06 C 137.68,160.12 137.63,160.17 137.59,160.22 C 137.53,160.32 137.47,160.4 137.41,160.5 C 137.28,160.69 137.16,160.9 137.03,161.09 C 136.78,161.48 136.53,161.86 136.28,162.25 C 135.26,163.82 134.24,165.4 133.22,166.97 C 133.18,167.03 133.07,167.05 133.0,167.03 C 132.53,166.91 132.08,166.86 131.69,167.25 C 131.54,167.39 131.38,167.63 131.34,167.84 C 131.3,168.08 131.42,168.32 131.53,168.5 C 131.57,168.57 131.58,168.62 131.53,168.69 C 131.02,169.45 130.66,169.93 130.34,170.81 C 130.06,171.6 129.96,172.4 129.91,173.22 C 129.9,173.34 129.88,173.47 129.88,173.59 C 129.87,173.66 129.87,173.71 129.88,173.78 C 129.88,173.82 129.89,173.87 129.91,173.91 C 129.95,174.03 130.01,174.12 130.09,174.22 C 130.38,174.58 130.71,174.89 131.06,175.19 C 131.69,175.71 132.35,176.18 133.03,176.63 C 133.72,177.07 134.42,177.48 135.16,177.84 C 135.57,178.05 135.99,178.23 136.44,178.34 C 136.56,178.38 136.68,178.41 136.81,178.41 C 136.85,178.4 136.9,178.39 136.94,178.38 C 137.0,178.35 137.06,178.31 137.13,178.28 C 137.23,178.23 137.33,178.18 137.44,178.13 C 138.17,177.74 138.84,177.32 139.44,176.75 C 140.13,176.09 140.4,175.6 140.91,174.81 C 140.95,174.74 141.01,174.71 141.09,174.72 C 141.31,174.75 141.58,174.76 141.78,174.63 C 141.96,174.5 142.08,174.26 142.16,174.06 C 142.35,173.54 142.14,173.16 141.84,172.78 C 141.8,172.72 141.77,172.63 141.81,172.56 C 142.6,171.36 143.4,170.14 144.19,168.94 C 144.58,168.33 144.98,167.76 145.38,167.16 C 145.57,166.85 145.74,166.55 145.94,166.25 C 146.04,166.1 146.15,165.93 146.25,165.78 C 146.27,165.74 146.3,165.71 146.34,165.69 C 146.38,165.66 146.4,165.62 146.44,165.59 C 146.52,165.54 146.61,165.52 146.69,165.47 C 147.95,164.7 149.28,164.34 150.69,164.03 C 152.11,163.72 153.57,163.47 155.0,163.16 C 157.81,162.54 160.56,161.64 163.03,160.09 C 165.48,158.56 167.56,156.51 168.78,153.81 C 169.96,151.22 170.32,148.14 170.03,145.34 C 169.73,142.45 168.73,139.7 167.13,137.28 C 163.85,132.36 158.4,129.4 152.5,129.28 C 152.33,129.28 152.27,129.07 152.41,128.97 C 153.9,127.89 154.5,125.94 153.84,124.22 C 153.27,122.71 151.88,121.7 150.31,121.59 z M 150.03,123.72 C 151.11,123.72 151.97,124.58 151.97,125.66 C 151.97,126.73 151.11,127.63 150.03,127.63 C 148.95,127.63 148.09,126.73 148.09,125.66 C 148.09,124.58 148.95,123.72 150.03,123.72 z M 136.84,164.19 C 136.9,164.18 136.93,164.18 136.97,164.22 C 137.33,164.59 137.75,164.93 138.16,165.25 C 138.36,165.41 138.57,165.57 138.78,165.72 C 138.85,165.77 138.9,165.83 138.97,165.88 C 139.0,165.9 139.06,165.91 139.09,165.94 C 139.1,165.94 139.1,165.96 139.09,165.97 C 139.07,166.0 139.05,166.03 139.03,166.06 C 138.99,166.13 138.95,166.21 138.91,166.28 C 138.34,167.15 137.75,168.0 137.19,168.88 C 137.14,168.96 137.05,168.99 136.97,168.94 C 136.23,168.49 135.46,168.06 134.69,167.69 C 134.59,167.64 134.57,167.53 134.63,167.44 L 136.69,164.25 C 136.72,164.2 136.79,164.19 136.84,164.19 z M 140.38,166.84 C 140.42,166.83 140.46,166.82 140.5,166.84 C 141.17,167.24 142.04,167.76 142.78,168.03 C 142.89,168.07 142.94,168.19 142.88,168.28 C 142.18,169.34 141.5,170.41 140.81,171.47 C 140.75,171.56 140.64,171.57 140.56,171.5 C 139.91,170.94 139.21,170.43 138.5,169.94 C 138.42,169.88 138.39,169.77 138.44,169.69 C 139.04,168.76 139.65,167.83 140.25,166.91 C 140.28,166.87 140.33,166.85 140.38,166.84 z" />
		
		
		<text id="txtTwo" transform="matrix(1 0 0 1 150 160)" style="stroke:none;fill:#f00;font-family:'Eras Medium ITC';font-size:20px;text-anchor:middle"  >

		</text>
		<!-- Prism Reference -->
		<cam mingh:cam=" --verb EditSelectAll --verb ZoomSelection --verb FileSave"/> 
	 </g>

</svg>