<svg
   xmlns:xlink="http://www.w3.org/1999/xlink"
   xmlns:svg="http://www.w3.org/2000/svg"
   xmlns="http://www.w3.org/2000/svg"
   xmlns:mingh="http://www.minghworld.com"
   width="300px"
   height="300px" >
	
	 <g>
		
		<!-- Paths -->
		<path style="fill:none;stroke:#000;stroke-width:0.25px;"
		 d="M 150.0,129.38 C 148.08,129.38 146.4,130.72 146.0,132.59 C 145.6,134.47 146.56,136.37 148.31,137.16 C 148.43,137.21 148.46,137.35 148.38,137.44 C 146.25,139.58 144.12,142.44 144.84,146.16 C 145.05,147.24 145.49,148.4 145.97,149.25 C 146.01,149.33 145.94,149.39 145.88,149.44 C 145.81,149.48 145.75,149.54 145.69,149.47 C 145.03,148.76 144.06,147.97 143.09,147.44 C 138.98,145.16 134.76,147.49 131.88,149.09 C 131.79,149.14 131.77,149.23 131.81,149.31 C 133.2,152.31 135.23,156.67 139.91,157.25 C 141.0,157.39 142.23,157.31 143.19,157.13 C 143.28,157.11 143.32,157.18 143.34,157.25 C 143.37,157.32 143.4,157.43 143.31,157.47 C 142.43,157.88 141.37,158.53 140.56,159.28 C 137.12,162.49 138.05,167.23 138.69,170.47 C 138.71,170.56 138.78,170.64 138.88,170.63 C 142.15,170.23 146.95,169.64 148.94,165.38 C 149.4,164.38 149.7,163.15 149.81,162.19 C 149.82,162.09 149.93,162.09 150.0,162.09 C 150.07,162.09 150.15,162.09 150.16,162.19 C 150.27,163.15 150.6,164.38 151.06,165.38 C 153.05,169.64 157.85,170.23 161.13,170.63 C 161.22,170.64 161.29,170.56 161.31,170.47 C 161.95,167.23 162.88,162.49 159.44,159.28 C 158.63,158.53 157.57,157.88 156.69,157.47 C 156.6,157.43 156.63,157.32 156.66,157.25 C 156.68,157.18 156.72,157.11 156.81,157.13 C 157.77,157.31 159.0,157.39 160.09,157.25 C 164.77,156.67 166.8,152.31 168.19,149.31 C 168.23,149.23 168.21,149.14 168.13,149.09 C 165.24,147.49 161.02,145.16 156.91,147.44 C 155.94,147.97 154.97,148.76 154.31,149.47 C 154.25,149.54 154.15,149.48 154.09,149.44 C 154.03,149.39 153.99,149.33 154.03,149.25 C 154.51,148.4 154.95,147.24 155.16,146.16 C 155.88,142.44 153.75,139.58 151.63,137.44 C 151.54,137.35 151.57,137.21 151.69,137.16 C 153.44,136.37 154.37,134.47 153.97,132.59 C 153.56,130.72 151.92,129.38 150.0,129.38 z M 150.0,131.5 C 151.08,131.5 151.94,132.36 151.94,133.44 C 151.94,134.51 151.08,135.41 150.0,135.41 C 148.92,135.41 148.03,134.51 148.03,133.44 C 148.03,132.36 148.92,131.5 150.0,131.5 z M 149.91,148.06 C 149.98,148.02 150.12,148.05 150.13,148.13 C 150.29,149.07 150.63,149.96 150.88,150.88 C 151.16,151.94 151.17,152.65 150.91,153.72 C 150.89,153.8 150.96,153.85 151.03,153.81 C 151.97,153.23 152.62,153.03 153.72,152.97 C 154.67,152.92 155.64,152.95 156.59,152.81 C 156.7,152.79 156.75,153.02 156.66,153.06 C 155.8,153.51 155.08,154.14 154.28,154.66 C 153.36,155.26 152.69,155.45 151.59,155.53 C 151.51,155.54 151.5,155.64 151.56,155.69 C 152.4,156.4 152.79,156.97 153.19,158.0 C 153.53,158.89 153.76,159.79 154.19,160.66 C 154.24,160.75 154.07,160.89 154.0,160.81 C 153.31,160.14 152.49,159.63 151.75,159.03 C 150.89,158.34 150.48,157.77 150.06,156.75 C 150.03,156.68 149.94,156.68 149.91,156.75 C 149.49,157.77 149.11,158.34 148.25,159.03 C 147.51,159.63 146.69,160.14 146.0,160.81 C 145.93,160.89 145.76,160.75 145.81,160.66 C 146.24,159.79 146.47,158.89 146.81,158.0 C 147.21,156.97 147.6,156.4 148.44,155.69 C 148.5,155.64 148.45,155.54 148.38,155.53 C 147.28,155.45 146.64,155.26 145.72,154.66 C 144.92,154.14 144.2,153.51 143.34,153.06 C 143.25,153.02 143.3,152.79 143.41,152.81 C 144.36,152.95 145.3,152.92 146.25,152.97 C 147.35,153.03 148.0,153.23 148.94,153.81 C 149.0,153.85 149.11,153.8 149.09,153.72 C 148.83,152.65 148.84,151.94 149.13,150.88 C 149.37,149.96 149.71,149.07 149.88,148.13 C 149.88,148.1 149.88,148.08 149.91,148.06 z"
		 />
		 <path style="fill:#f00;stroke:none;"
		 d="M 157.2,149.04 C 156.43,150.01 156.13,151.27 156.36,152.48 C 156.37,152.52 156.38,152.56 156.39,152.6 C 156.39,152.62 156.4,152.64 156.4,152.66 C 156.41,152.68 156.43,152.7 156.4,152.71 C 156.32,152.72 156.25,152.72 156.17,152.73 C 156.02,152.74 155.87,152.75 155.72,152.76 C 155.42,152.78 155.11,152.78 154.81,152.79 C 154.2,152.8 153.59,152.79 152.98,152.88 C 152.71,152.93 152.44,152.99 152.18,153.08 C 152.16,153.09 152.19,153.06 152.2,153.05 C 152.22,153.04 152.23,153.02 152.25,153.01 C 152.27,152.98 152.3,152.95 152.33,152.92 C 152.39,152.86 152.45,152.8 152.51,152.74 C 152.63,152.63 152.75,152.51 152.88,152.4 C 153.32,151.98 153.77,151.57 154.24,151.17 C 155.17,150.37 156.11,149.62 157.2,149.04 z M 140.6,155.77 C 141.79,155.43 142.78,154.6 143.31,153.47 C 143.32,153.44 143.34,153.4 143.36,153.36 C 143.36,153.34 143.37,153.32 143.38,153.31 C 143.39,153.29 143.38,153.26 143.41,153.27 C 143.48,153.31 143.54,153.35 143.61,153.39 C 143.74,153.46 143.86,153.54 143.99,153.63 C 144.25,153.79 144.49,153.97 144.74,154.14 C 145.24,154.49 145.73,154.85 146.28,155.14 C 146.52,155.26 146.78,155.37 147.04,155.45 C 147.07,155.46 147.02,155.46 147.01,155.46 C 146.99,155.46 146.97,155.47 146.95,155.47 C 146.9,155.48 146.86,155.48 146.82,155.49 C 146.74,155.5 146.66,155.51 146.57,155.52 C 146.41,155.55 146.24,155.57 146.08,155.59 C 145.47,155.67 144.86,155.73 144.26,155.78 C 143.03,155.88 141.83,155.93 140.6,155.77 z M 142.79,149.04 C 143.88,149.62 144.82,150.37 145.75,151.17 C 146.22,151.57 146.67,151.98 147.11,152.4 C 147.24,152.51 147.36,152.63 147.48,152.74 C 147.54,152.8 147.6,152.86 147.66,152.92 C 147.69,152.95 147.72,152.98 147.75,153.01 C 147.76,153.02 147.78,153.04 147.79,153.05 C 147.8,153.06 147.84,153.09 147.81,153.08 C 147.55,152.99 147.28,152.93 147.01,152.88 C 146.4,152.79 145.79,152.8 145.18,152.79 C 144.88,152.78 144.58,152.78 144.27,152.76 C 144.12,152.75 143.97,152.74 143.82,152.73 C 143.74,152.72 143.67,152.72 143.59,152.71 C 143.56,152.7 143.59,152.68 143.59,152.66 C 143.59,152.64 143.6,152.62 143.6,152.6 C 143.61,152.56 143.62,152.52 143.63,152.48 C 143.86,151.27 143.56,150.01 142.79,149.04 z M 153.54,146.37 C 153.31,147.59 152.89,148.72 152.42,149.85 C 152.19,150.42 151.94,150.97 151.68,151.52 C 151.6,151.68 151.53,151.83 151.46,151.98 C 151.42,152.05 151.38,152.13 151.35,152.2 C 151.33,152.24 151.31,152.28 151.29,152.31 C 151.28,152.33 151.27,152.35 151.26,152.37 C 151.26,152.38 151.24,152.43 151.24,152.4 C 151.25,152.12 151.22,151.85 151.18,151.57 C 151.08,150.97 150.89,150.39 150.71,149.81 C 150.62,149.52 150.53,149.23 150.45,148.93 C 150.41,148.79 150.37,148.64 150.34,148.49 C 150.32,148.42 150.31,148.34 150.29,148.27 C 150.29,148.24 150.32,148.26 150.33,148.25 C 150.35,148.25 150.37,148.25 150.39,148.25 C 150.43,148.24 150.47,148.24 150.51,148.24 C 151.75,148.08 152.85,147.4 153.54,146.37 z M 146.46,146.37 C 147.14,147.4 148.25,148.08 149.48,148.24 C 149.52,148.24 149.56,148.24 149.6,148.25 C 149.62,148.25 149.64,148.25 149.66,148.25 C 149.67,148.26 149.7,148.24 149.7,148.27 C 149.68,148.35 149.67,148.42 149.65,148.49 C 149.62,148.64 149.58,148.79 149.54,148.93 C 149.46,149.23 149.37,149.52 149.28,149.81 C 149.1,150.39 148.91,150.97 148.81,151.57 C 148.77,151.85 148.75,152.12 148.75,152.4 C 148.75,152.42 148.74,152.38 148.73,152.37 C 148.72,152.35 148.71,152.33 148.7,152.31 C 148.68,152.28 148.66,152.24 148.65,152.2 C 148.61,152.13 148.57,152.05 148.53,151.98 C 148.46,151.83 148.39,151.68 148.32,151.52 C 148.05,150.97 147.81,150.42 147.57,149.85 C 147.1,148.72 146.68,147.59 146.46,146.37 z M 142.0,160.08 C 142.9,159.22 143.9,158.56 144.95,157.92 C 145.47,157.6 146.0,157.3 146.53,157.0 C 146.68,156.92 146.83,156.84 146.98,156.77 C 147.05,156.73 147.13,156.69 147.2,156.65 C 147.24,156.63 147.27,156.61 147.31,156.59 C 147.33,156.58 147.35,156.57 147.37,156.56 C 147.38,156.56 147.42,156.53 147.4,156.55 C 147.23,156.77 147.09,157.01 146.97,157.26 C 146.69,157.81 146.51,158.39 146.31,158.96 C 146.21,159.25 146.11,159.54 146.0,159.82 C 145.95,159.96 145.89,160.1 145.83,160.24 C 145.8,160.31 145.77,160.38 145.74,160.45 C 145.73,160.48 145.71,160.45 145.7,160.44 C 145.68,160.43 145.66,160.42 145.65,160.41 C 145.61,160.39 145.58,160.37 145.54,160.35 C 144.46,159.75 143.16,159.65 142.0,160.08 z M 147.73,164.24 C 147.78,163.0 147.29,161.8 146.38,160.96 C 146.35,160.93 146.32,160.9 146.29,160.88 C 146.28,160.86 146.26,160.85 146.25,160.84 C 146.23,160.83 146.2,160.82 146.22,160.8 C 146.28,160.75 146.33,160.7 146.39,160.65 C 146.51,160.55 146.62,160.45 146.74,160.35 C 146.98,160.16 147.22,159.98 147.46,159.8 C 147.95,159.43 148.44,159.08 148.88,158.65 C 149.08,158.45 149.26,158.24 149.42,158.02 C 149.43,158.0 149.42,158.04 149.42,158.05 C 149.41,158.07 149.41,158.09 149.41,158.11 C 149.4,158.16 149.39,158.2 149.38,158.24 C 149.37,158.32 149.36,158.4 149.34,158.48 C 149.31,158.65 149.28,158.81 149.25,158.98 C 149.14,159.58 149.01,160.18 148.87,160.77 C 148.59,161.96 148.27,163.13 147.73,164.24 z M 152.26,164.24 C 151.73,163.13 151.4,161.96 151.12,160.77 C 150.98,160.18 150.85,159.58 150.74,158.98 C 150.71,158.82 150.68,158.65 150.65,158.49 C 150.63,158.4 150.62,158.32 150.61,158.24 C 150.6,158.2 150.59,158.16 150.59,158.11 C 150.58,158.09 150.58,158.07 150.58,158.05 C 150.57,158.04 150.56,157.99 150.58,158.01 C 150.73,158.24 150.91,158.45 151.11,158.65 C 151.55,159.08 152.04,159.43 152.53,159.8 C 152.77,159.98 153.02,160.17 153.25,160.35 C 153.37,160.45 153.49,160.55 153.6,160.65 C 153.66,160.7 153.71,160.75 153.77,160.8 C 153.79,160.82 153.76,160.83 153.74,160.84 C 153.73,160.85 153.71,160.86 153.7,160.88 C 153.67,160.9 153.64,160.93 153.61,160.96 C 152.7,161.8 152.21,163.0 152.26,164.24 z M 157.99,160.08 C 156.83,159.65 155.53,159.75 154.45,160.35 C 154.41,160.37 154.38,160.39 154.35,160.41 C 154.33,160.42 154.31,160.43 154.29,160.44 C 154.28,160.45 154.26,160.48 154.25,160.45 C 154.22,160.38 154.19,160.31 154.16,160.24 C 154.1,160.1 154.04,159.96 153.99,159.82 C 153.88,159.54 153.78,159.25 153.68,158.96 C 153.48,158.39 153.3,157.81 153.03,157.26 C 152.9,157.01 152.76,156.77 152.59,156.55 C 152.57,156.53 152.61,156.56 152.62,156.56 C 152.64,156.57 152.66,156.58 152.68,156.59 C 152.72,156.61 152.75,156.63 152.79,156.65 C 152.87,156.69 152.94,156.73 153.01,156.77 C 153.16,156.84 153.31,156.92 153.46,157.0 C 153.99,157.3 154.52,157.6 155.04,157.92 C 156.09,158.56 157.09,159.22 157.99,160.08 z M 159.39,155.77 C 158.16,155.93 156.96,155.88 155.74,155.78 C 155.13,155.73 154.52,155.67 153.92,155.59 C 153.75,155.57 153.58,155.55 153.42,155.52 C 153.33,155.51 153.25,155.5 153.17,155.49 C 153.13,155.48 153.09,155.48 153.05,155.47 C 153.02,155.47 153.0,155.46 152.98,155.46 C 152.97,155.46 152.92,155.46 152.95,155.45 C 153.21,155.37 153.47,155.26 153.71,155.14 C 154.26,154.85 154.75,154.49 155.25,154.14 C 155.5,153.97 155.75,153.79 156.0,153.63 C 156.13,153.54 156.25,153.46 156.38,153.38 C 156.45,153.35 156.52,153.31 156.58,153.27 C 156.61,153.26 156.6,153.29 156.61,153.31 C 156.62,153.33 156.63,153.34 156.63,153.36 C 156.65,153.4 156.67,153.44 156.68,153.47 C 157.21,154.6 158.2,155.43 159.39,155.77 z"
		 />
		 <path style="fill:#00f;stroke:none;"
		 d="M 153.89,144.02 C 153.98,146.47 151.38,148.49 149.02,147.79 C 146.64,147.26 145.33,144.26 146.57,142.16 C 147.65,139.98 150.87,139.43 152.62,141.13 C 153.42,141.86 153.9,142.93 153.89,144.02 z M 143.35,151.67 C 143.44,154.13 140.83,156.15 138.48,155.45 C 136.1,154.92 134.79,151.92 136.03,149.82 C 137.11,147.63 140.33,147.09 142.07,148.79 C 142.88,149.52 143.36,150.59 143.35,151.67 z M 164.43,151.67 C 164.52,154.13 161.92,156.15 159.56,155.45 C 157.18,154.92 155.87,151.92 157.11,149.82 C 158.2,147.63 161.41,147.09 163.16,148.79 C 163.96,149.52 164.44,150.59 164.43,151.67 z M 160.41,164.07 C 160.5,166.52 157.89,168.54 155.54,167.84 C 153.15,167.31 151.84,164.31 153.08,162.21 C 154.17,160.03 157.39,159.48 159.13,161.18 C 159.94,161.91 160.42,162.98 160.41,164.07 z M 147.38,164.07 C 147.47,166.52 144.86,168.54 142.51,167.84 C 140.12,167.31 138.81,164.31 140.05,162.21 C 141.14,160.03 144.36,159.48 146.1,161.18 C 146.91,161.91 147.39,162.98 147.38,164.07 z"
		 />
		
		<!-- Prism Reference -->
		<cam mingh:cam="--verb EditSelectAll --verb ZoomSelection --verb FileSave " /> 
	 </g>

</svg>
