<svg
   xmlns:xlink="http://www.w3.org/1999/xlink"
   xmlns:svg="http://www.w3.org/2000/svg"
   xmlns="http://www.w3.org/2000/svg"
   xmlns:mingh="http://www.minghworld.com"
   width="300px"
   height="300px" >
	
	 <g>
		
		<!-- Paths -->
		<path transform="matrix(-1 0 0 1 300 0)" style="fill:#ff0;stroke:none;"
		 d="M 151.22,128.28 C 151.01,128.28 150.78,128.31 150.56,128.34 C 148.84,128.62 147.51,129.94 147.22,131.66 C 146.92,133.37 147.75,135.1 149.28,135.94 C 149.31,135.96 149.34,135.98 149.38,136.0 C 149.51,136.07 149.51,136.25 149.38,136.31 C 149.31,136.34 149.25,136.35 149.19,136.38 C 147.64,137.09 146.34,138.15 145.47,139.66 C 144.63,141.11 144.27,142.82 144.31,144.47 C 144.4,148.06 146.48,150.87 149.78,152.19 C 150.07,152.3 150.0,152.74 149.69,152.75 C 148.11,152.64 146.09,152.7 144.53,153.0 C 143.68,153.16 142.85,153.41 142.03,153.69 C 141.17,153.98 140.33,154.33 139.53,154.78 C 139.28,154.92 139.03,155.07 138.78,155.22 C 138.58,155.33 138.4,155.44 138.19,155.53 C 137.78,155.7 137.28,155.77 136.84,155.72 C 135.77,155.6 135.46,154.96 135.31,154.0 C 135.24,153.52 135.2,153.01 135.09,152.53 C 135.0,152.13 134.82,151.63 134.53,151.31 C 133.93,150.65 133.09,151.21 132.66,151.75 C 131.69,152.95 131.38,155.19 131.34,156.59 C 131.3,158.39 131.61,160.24 132.19,161.94 C 133.36,165.4 135.51,168.06 138.84,169.69 C 140.29,170.39 141.97,170.9 143.53,171.22 C 145.37,171.6 147.19,171.75 149.06,171.72 C 152.56,171.67 156.05,171.07 159.28,169.63 C 160.82,168.94 162.22,168.08 163.28,166.72 C 164.45,165.22 165.0,163.48 165.03,161.59 C 165.06,159.72 164.58,158.17 163.66,156.56 C 163.22,155.79 162.74,155.08 162.13,154.44 C 161.82,154.13 161.49,153.84 161.19,153.53 C 160.89,153.22 160.61,152.87 160.28,152.59 C 159.76,152.16 159.75,151.36 160.25,150.91 C 160.69,150.51 161.07,150.08 161.41,149.59 C 161.44,149.55 161.47,149.54 161.53,149.53 C 162.49,149.43 162.84,149.46 163.78,149.22 C 164.26,149.18 164.75,149.19 165.22,149.31 C 165.68,149.43 166.09,149.67 166.56,149.75 C 166.81,149.79 167.02,149.79 167.25,149.66 C 167.47,149.53 167.6,149.32 167.56,149.06 C 167.49,148.6 167.02,148.23 166.69,148.0 C 166.63,147.96 166.63,147.86 166.69,147.81 C 167.38,147.28 168.11,146.5 168.44,145.66 C 168.62,145.2 168.68,144.74 168.63,144.25 C 168.6,144.07 168.53,143.72 168.44,143.56 C 168.37,143.45 168.29,143.39 168.16,143.38 C 168.02,143.36 167.94,143.43 167.84,143.5 C 167.15,144.01 166.12,144.45 165.22,144.38 C 164.26,144.29 163.43,143.64 162.97,142.84 C 162.96,142.83 162.94,142.8 162.94,142.78 C 162.59,140.83 161.56,139.07 160.06,137.78 C 158.57,136.5 156.67,135.68 154.72,135.47 C 154.58,135.45 154.45,135.45 154.31,135.44 C 154.16,135.43 154.09,135.23 154.19,135.13 C 154.19,135.12 154.22,135.13 154.22,135.13 C 155.41,133.85 155.63,131.97 154.81,130.44 C 154.09,129.09 152.71,128.28 151.22,128.28 z M 151.09,130.41 C 151.3,130.39 151.49,130.42 151.69,130.47 C 152.53,130.67 153.2,131.47 153.19,132.34 C 153.19,132.37 153.16,132.41 153.16,132.44 C 153.14,133.22 152.61,133.93 151.88,134.19 C 151.13,134.46 150.22,134.2 149.72,133.59 C 149.18,132.97 149.13,132.04 149.56,131.34 C 149.88,130.81 150.48,130.45 151.09,130.41 z" />
		
		
		<text id="txtTwo" transform="matrix(1 0 0 1 150 160)" style="stroke:none;fill:#f00;font-family:'Eras Medium ITC';font-size:20px;text-anchor:middle"  >

		</text>
		<!-- Prism Reference -->
		<cam mingh:cam=" --verb EditSelectAll --verb ZoomSelection --verb FileSave "/> 
	 </g>

</svg>