<svg
   xmlns:xlink="http://www.w3.org/1999/xlink"
   xmlns:svg="http://www.w3.org/2000/svg"
   xmlns="http://www.w3.org/2000/svg"
   xmlns:mingh="http://www.minghworld.com"
   width="300px"
   height="300px" >
	
	 <g>
		
		<!-- Paths -->
		<path transform="matrix(-1 0 0 1 300 0)" style="fill:#ff0;stroke:none;"
		 d="M 150.0,129.38 C 148.08,129.38 146.4,130.72 146.0,132.59 C 145.6,134.47 146.56,136.37 148.31,137.16 C 148.43,137.21 148.46,137.35 148.38,137.44 C 146.25,139.58 144.12,142.44 144.84,146.16 C 145.05,147.24 145.49,148.4 145.97,149.25 C 146.01,149.33 145.94,149.39 145.88,149.44 C 145.81,149.48 145.75,149.54 145.69,149.47 C 145.03,148.76 144.06,147.97 143.09,147.44 C 138.98,145.16 134.76,147.49 131.88,149.09 C 131.79,149.14 131.77,149.23 131.81,149.31 C 133.2,152.31 135.23,156.67 139.91,157.25 C 141.0,157.39 142.23,157.31 143.19,157.13 C 143.28,157.11 143.32,157.18 143.34,157.25 C 143.37,157.32 143.4,157.43 143.31,157.47 C 142.43,157.88 141.37,158.53 140.56,159.28 C 137.12,162.49 138.05,167.23 138.69,170.47 C 138.71,170.56 138.78,170.64 138.88,170.63 C 142.15,170.23 146.95,169.64 148.94,165.38 C 149.4,164.38 149.7,163.15 149.81,162.19 C 149.82,162.09 149.93,162.09 150.0,162.09 C 150.07,162.09 150.15,162.09 150.16,162.19 C 150.27,163.15 150.6,164.38 151.06,165.38 C 153.05,169.64 157.85,170.23 161.13,170.63 C 161.22,170.64 161.29,170.56 161.31,170.47 C 161.95,167.23 162.88,162.49 159.44,159.28 C 158.63,158.53 157.57,157.88 156.69,157.47 C 156.6,157.43 156.63,157.32 156.66,157.25 C 156.68,157.18 156.72,157.11 156.81,157.13 C 157.77,157.31 159.0,157.39 160.09,157.25 C 164.77,156.67 166.8,152.31 168.19,149.31 C 168.23,149.23 168.21,149.14 168.13,149.09 C 165.24,147.49 161.02,145.16 156.91,147.44 C 155.94,147.97 154.97,148.76 154.31,149.47 C 154.25,149.54 154.15,149.48 154.09,149.44 C 154.03,149.39 153.99,149.33 154.03,149.25 C 154.51,148.4 154.95,147.24 155.16,146.16 C 155.88,142.44 153.75,139.58 151.63,137.44 C 151.54,137.35 151.57,137.21 151.69,137.16 C 153.44,136.37 154.37,134.47 153.97,132.59 C 153.56,130.72 151.92,129.38 150.0,129.38 z M 150.0,131.5 C 151.08,131.5 151.94,132.36 151.94,133.44 C 151.94,134.51 151.08,135.41 150.0,135.41 C 148.92,135.41 148.03,134.51 148.03,133.44 C 148.03,132.36 148.92,131.5 150.0,131.5 z M 149.91,148.06 C 149.98,148.02 150.12,148.05 150.13,148.13 C 150.29,149.07 150.63,149.96 150.88,150.88 C 151.16,151.94 151.17,152.65 150.91,153.72 C 150.89,153.8 150.96,153.85 151.03,153.81 C 151.97,153.23 152.62,153.03 153.72,152.97 C 154.67,152.92 155.64,152.95 156.59,152.81 C 156.7,152.79 156.75,153.02 156.66,153.06 C 155.8,153.51 155.08,154.14 154.28,154.66 C 153.36,155.26 152.69,155.45 151.59,155.53 C 151.51,155.54 151.5,155.64 151.56,155.69 C 152.4,156.4 152.79,156.97 153.19,158.0 C 153.53,158.89 153.76,159.79 154.19,160.66 C 154.24,160.75 154.07,160.89 154.0,160.81 C 153.31,160.14 152.49,159.63 151.75,159.03 C 150.89,158.34 150.48,157.77 150.06,156.75 C 150.03,156.68 149.94,156.68 149.91,156.75 C 149.49,157.77 149.11,158.34 148.25,159.03 C 147.51,159.63 146.69,160.14 146.0,160.81 C 145.93,160.89 145.76,160.75 145.81,160.66 C 146.24,159.79 146.47,158.89 146.81,158.0 C 147.21,156.97 147.6,156.4 148.44,155.69 C 148.5,155.64 148.45,155.54 148.38,155.53 C 147.28,155.45 146.64,155.26 145.72,154.66 C 144.92,154.14 144.2,153.51 143.34,153.06 C 143.25,153.02 143.3,152.79 143.41,152.81 C 144.36,152.95 145.3,152.92 146.25,152.97 C 147.35,153.03 148.0,153.23 148.94,153.81 C 149.0,153.85 149.11,153.8 149.09,153.72 C 148.83,152.65 148.84,151.94 149.13,150.88 C 149.37,149.96 149.71,149.07 149.88,148.13 C 149.88,148.1 149.88,148.08 149.91,148.06 z" />
		
		
		<text id="txtTwo" transform="matrix(1 0 0 1 150 160)" style="stroke:none;fill:#f00;font-family:'Eras Medium ITC';font-size:20px;text-anchor:middle"  >

		</text>
		<!-- Prism Reference -->
		<cam mingh:cam="--verb EditSelectAll --verb ZoomSelection --verb FileSave"/> 
	 </g>

</svg>