<svg
   xmlns:xlink="http://www.w3.org/1999/xlink"
   xmlns:svg="http://www.w3.org/2000/svg"
   xmlns="http://www.w3.org/2000/svg"
   xmlns:mingh="http://www.minghworld.com"
   width="300px"
   height="300px" >
	
	 <g>
		
		<!-- Paths -->
		<path style="fill:none;stroke:#000;stroke-width:0.25px;"
		 d="M 151.22,128.28 C 151.01,128.28 150.78,128.31 150.56,128.34 C 148.84,128.62 147.51,129.94 147.22,131.66 C 146.92,133.37 147.75,135.1 149.28,135.94 C 149.31,135.96 149.34,135.98 149.38,136.0 C 149.51,136.07 149.51,136.25 149.38,136.31 C 149.31,136.34 149.25,136.35 149.19,136.38 C 147.64,137.09 146.34,138.15 145.47,139.66 C 144.63,141.11 144.27,142.82 144.31,144.47 C 144.4,148.06 146.48,150.87 149.78,152.19 C 150.07,152.3 150.0,152.74 149.69,152.75 C 148.11,152.64 146.09,152.7 144.53,153.0 C 143.68,153.16 142.85,153.41 142.03,153.69 C 141.17,153.98 140.33,154.33 139.53,154.78 C 139.28,154.92 139.03,155.07 138.78,155.22 C 138.58,155.33 138.4,155.44 138.19,155.53 C 137.78,155.7 137.28,155.77 136.84,155.72 C 135.77,155.6 135.46,154.96 135.31,154.0 C 135.24,153.52 135.2,153.01 135.09,152.53 C 135.0,152.13 134.82,151.63 134.53,151.31 C 133.93,150.65 133.09,151.21 132.66,151.75 C 131.69,152.95 131.38,155.19 131.34,156.59 C 131.3,158.39 131.61,160.24 132.19,161.94 C 133.36,165.4 135.51,168.06 138.84,169.69 C 140.29,170.39 141.97,170.9 143.53,171.22 C 145.37,171.6 147.19,171.75 149.06,171.72 C 152.56,171.67 156.05,171.07 159.28,169.63 C 160.82,168.94 162.22,168.08 163.28,166.72 C 164.45,165.22 165.0,163.48 165.03,161.59 C 165.06,159.72 164.58,158.17 163.66,156.56 C 163.22,155.79 162.74,155.08 162.13,154.44 C 161.82,154.13 161.49,153.84 161.19,153.53 C 160.89,153.22 160.61,152.87 160.28,152.59 C 159.76,152.16 159.75,151.36 160.25,150.91 C 160.69,150.51 161.07,150.08 161.41,149.59 C 161.44,149.55 161.47,149.54 161.53,149.53 C 162.49,149.43 162.84,149.46 163.78,149.22 C 164.26,149.18 164.75,149.19 165.22,149.31 C 165.68,149.43 166.09,149.67 166.56,149.75 C 166.81,149.79 167.02,149.79 167.25,149.66 C 167.47,149.53 167.6,149.32 167.56,149.06 C 167.49,148.6 167.02,148.23 166.69,148.0 C 166.63,147.96 166.63,147.86 166.69,147.81 C 167.38,147.28 168.11,146.5 168.44,145.66 C 168.62,145.2 168.68,144.74 168.63,144.25 C 168.6,144.07 168.53,143.72 168.44,143.56 C 168.37,143.45 168.29,143.39 168.16,143.38 C 168.02,143.36 167.94,143.43 167.84,143.5 C 167.15,144.01 166.12,144.45 165.22,144.38 C 164.26,144.29 163.43,143.64 162.97,142.84 C 162.96,142.83 162.94,142.8 162.94,142.78 C 162.59,140.83 161.56,139.07 160.06,137.78 C 158.57,136.5 156.67,135.68 154.72,135.47 C 154.58,135.45 154.45,135.45 154.31,135.44 C 154.16,135.43 154.09,135.23 154.19,135.13 C 154.19,135.12 154.22,135.13 154.22,135.13 C 155.41,133.85 155.63,131.97 154.81,130.44 C 154.09,129.09 152.71,128.28 151.22,128.28 z M 151.09,130.41 C 151.3,130.39 151.49,130.42 151.69,130.47 C 152.53,130.67 153.2,131.47 153.19,132.34 C 153.19,132.37 153.16,132.41 153.16,132.44 C 153.14,133.22 152.61,133.93 151.88,134.19 C 151.13,134.46 150.22,134.2 149.72,133.59 C 149.18,132.97 149.13,132.04 149.56,131.34 C 149.88,130.81 150.48,130.45 151.09,130.41 z"
		 />
		 <path style="fill:#f00;stroke:none;"
		 d="M 141.09,160.25 C 141.02,160.22 140.96,160.19 140.89,160.19 C 140.82,160.19 140.74,160.22 140.71,160.31 C 140.68,160.4 140.7,160.55 140.74,160.7 C 140.83,161.12 141.0,161.51 141.19,161.76 C 141.32,161.9 141.47,162.01 141.62,162.12 C 142.56,162.77 143.99,163.16 145.22,163.33 C 146.44,163.5 147.46,163.45 148.58,163.22 C 149.05,163.13 149.55,163.0 150.02,162.84 C 149.74,163.04 149.48,163.27 149.19,163.46 C 148.47,163.96 147.64,164.19 146.73,164.21 C 145.72,164.25 144.6,164.04 143.62,163.56 C 142.92,163.22 142.3,162.75 141.81,162.37 C 141.74,162.32 141.67,162.26 141.58,162.22 C 141.47,162.17 141.32,162.12 141.23,162.19 C 141.19,162.23 141.15,162.29 141.14,162.36 C 141.08,162.59 141.21,162.87 141.32,163.11 C 141.58,163.64 141.8,163.9 142.18,164.17 C 142.38,164.31 142.63,164.45 142.85,164.54 C 143.17,164.67 143.45,164.8 143.74,164.92 C 144.77,165.35 145.84,165.57 147.0,165.62 C 148.34,165.68 149.8,165.53 151.24,164.85 C 150.54,165.42 150.01,165.77 149.46,166.0 C 148.69,166.31 147.87,166.42 146.97,166.35 C 145.85,166.27 144.62,165.93 143.76,165.32 C 143.41,165.07 143.12,164.77 142.6,164.57 C 142.53,164.54 142.47,164.53 142.41,164.52 C 142.19,164.49 141.93,164.52 142.0,164.88 C 142.04,165.05 142.16,165.31 142.28,165.52 C 142.7,166.26 143.1,166.49 143.47,166.67 C 144.21,167.04 144.83,167.23 145.55,167.37 C 147.02,167.66 148.94,167.73 150.81,167.52 C 152.16,167.36 153.47,167.06 154.75,166.55 C 155.94,166.08 157.09,165.44 157.94,164.51 C 158.71,163.67 159.23,162.58 159.41,161.4 C 159.55,160.44 159.48,159.4 159.09,158.49 C 158.77,157.72 158.24,157.04 157.62,156.53 C 156.95,155.98 156.18,155.63 155.32,155.47 C 154.78,155.37 154.19,155.34 153.56,155.39 C 152.68,155.46 151.91,155.7 151.21,156.05 C 150.44,156.42 149.75,156.92 149.04,157.37 C 148.36,157.8 147.67,158.17 146.92,158.45 C 146.22,158.71 145.47,158.88 144.72,158.93 C 144.18,158.96 143.63,158.92 143.1,158.8 C 142.51,158.66 141.93,158.42 141.37,158.15 C 141.15,158.05 140.93,157.94 140.69,157.81 C 140.58,157.74 140.47,157.67 140.38,157.7 C 140.33,157.71 140.28,157.76 140.26,157.85 C 140.23,158.03 140.31,158.34 140.37,158.58 C 140.46,158.93 140.53,159.13 140.59,159.29 C 140.59,159.32 140.6,159.34 140.61,159.37 C 140.62,159.38 140.62,159.39 140.63,159.41 C 140.71,159.57 140.8,159.72 140.91,159.85 C 141.42,160.43 142.36,160.76 143.21,160.97 C 144.53,161.31 145.62,161.37 146.78,161.16 C 147.71,160.99 148.68,160.64 149.56,160.19 C 149.08,160.58 148.61,161.03 148.07,161.37 C 147.1,161.98 145.93,162.22 144.73,162.04 C 143.49,161.85 142.22,161.21 141.48,160.52 C 141.41,160.46 141.35,160.4 141.29,160.35 C 141.22,160.31 141.15,160.28 141.09,160.25 z M 142.0,164.4 C 141.44,164.27 140.86,163.97 140.57,163.52 C 140.42,163.29 140.34,163.02 140.28,162.72 C 140.25,162.55 140.21,162.37 140.28,162.23 C 140.35,162.1 140.53,162.01 140.7,161.97 C 140.84,161.95 140.97,161.95 141.09,161.98 C 140.56,161.75 140.06,161.34 139.88,160.8 C 139.82,160.61 139.79,160.41 139.85,160.22 C 139.88,160.12 139.93,160.02 140.0,159.96 C 140.11,159.89 140.25,159.88 140.39,159.89 C 140.48,159.9 140.57,159.91 140.65,159.94 C 140.33,159.76 140.03,159.52 139.83,159.22 C 139.61,158.89 139.5,158.5 139.4,158.1 C 139.31,157.7 139.23,157.3 139.36,156.85 C 139.41,156.68 139.49,156.51 139.59,156.41 C 139.88,156.1 140.39,156.36 140.82,156.55 C 141.28,156.76 141.65,156.89 142.06,157.03 C 142.62,157.21 143.26,157.4 143.9,157.46 C 145.11,157.58 146.34,157.27 147.45,156.84 C 148.33,156.49 149.13,156.08 149.99,155.75 C 150.83,155.42 151.71,155.16 152.64,155.02 C 153.73,154.85 154.86,154.82 155.92,155.12 C 156.92,155.39 157.85,155.94 158.64,156.69 C 159.37,157.38 159.99,158.26 160.34,159.27 C 160.83,160.7 160.8,162.41 160.34,163.78 C 159.95,164.95 159.25,165.86 158.35,166.59 C 157.4,167.37 156.22,167.92 154.97,168.35 C 153.8,168.74 152.58,169.02 151.41,169.18 C 150.48,169.3 149.59,169.34 148.7,169.32 C 147.58,169.3 146.47,169.19 145.36,168.88 C 144.41,168.61 143.47,168.2 142.69,167.53 C 142.34,167.23 142.02,166.88 141.77,166.5 C 141.51,166.11 141.31,165.69 141.18,165.19 C 141.13,164.99 141.09,164.78 141.15,164.64 C 141.26,164.4 141.66,164.36 142.0,164.4 z M 158.33,145.07 C 158.66,145.02 158.83,144.7 158.91,144.42 C 159.0,144.11 159.0,143.82 158.95,143.51 C 158.89,143.2 158.79,142.92 158.61,142.66 C 158.44,142.43 158.17,142.19 157.84,142.24 C 157.51,142.3 157.33,142.62 157.25,142.89 C 157.16,143.2 157.16,143.49 157.22,143.81 C 157.27,144.12 157.37,144.39 157.56,144.66 C 157.73,144.89 158.0,145.13 158.33,145.07 z M 158.08,146.46 C 157.71,146.52 157.41,146.45 157.09,146.29 C 156.66,146.07 156.37,145.76 156.09,145.38 C 155.63,144.74 155.34,143.95 155.21,143.18 C 155.08,142.42 155.09,141.57 155.3,140.82 C 155.43,140.37 155.61,139.98 155.94,139.63 C 156.19,139.36 156.45,139.2 156.82,139.13 C 157.19,139.07 157.49,139.14 157.81,139.31 C 158.24,139.52 158.53,139.83 158.81,140.21 C 159.27,140.85 159.56,141.64 159.69,142.41 C 159.82,143.17 159.81,144.02 159.6,144.78 C 159.47,145.23 159.29,145.61 158.96,145.96 C 158.71,146.23 158.45,146.4 158.08,146.46 z M 150.08,152.33 C 152.02,153.05 154.12,153.21 156.14,152.77 C 157.17,152.55 158.11,152.2 159.02,151.7 C 159.22,151.59 159.41,151.47 159.6,151.36 C 159.7,151.3 159.79,151.24 159.88,151.17 C 159.89,151.17 159.88,151.19 159.87,151.19 C 159.87,151.2 159.87,151.21 159.86,151.22 C 159.85,151.24 159.85,151.26 159.84,151.27 C 159.82,151.31 159.81,151.35 159.8,151.39 C 159.78,151.46 159.76,151.54 159.75,151.63 C 159.74,151.79 159.75,151.95 159.8,152.11 C 159.83,152.19 159.86,152.26 159.89,152.34 C 159.91,152.37 159.93,152.4 159.95,152.44 C 159.97,152.46 159.91,152.48 159.9,152.49 C 159.71,152.6 159.52,152.71 159.33,152.82 C 157.52,153.81 155.45,154.27 153.39,154.13 C 152.35,154.06 151.36,153.85 150.38,153.49 C 149.98,153.35 149.59,153.18 149.21,152.99 C 149.17,152.96 149.12,152.94 149.07,152.91 C 149.05,152.9 149.03,152.89 149.0,152.88 C 148.99,152.87 148.98,152.87 148.97,152.86 C 148.95,152.85 148.99,152.86 149.01,152.86 C 149.14,152.86 149.27,152.87 149.41,152.88 C 149.56,152.88 149.71,152.93 149.87,152.85 C 150.06,152.75 150.15,152.53 150.08,152.33 z M 168.1,143.86 C 168.18,144.09 168.22,144.35 168.22,144.6 C 168.22,144.98 168.12,145.36 167.96,145.7 C 167.83,145.98 167.65,146.23 167.46,146.47 C 167.25,146.73 167.02,146.96 166.77,147.19 C 166.62,147.32 166.47,147.45 166.31,147.56 C 165.54,148.14 164.63,148.55 163.69,148.79 C 163.32,148.89 162.94,148.96 162.56,149.0 C 162.3,149.03 162.05,149.05 161.79,149.07 C 161.54,149.09 161.28,149.11 161.03,149.07 C 160.87,149.04 160.71,148.99 160.58,148.89 C 160.46,148.81 160.36,148.68 160.31,148.54 C 160.23,148.33 160.24,148.09 160.31,147.87 C 160.4,147.6 160.58,147.37 160.79,147.17 C 160.95,147.02 161.13,146.9 161.3,146.76 C 161.53,146.58 161.75,146.37 161.91,146.12 C 162.05,145.89 162.14,145.63 162.19,145.36 C 162.22,145.14 162.22,144.92 162.23,144.69 C 162.24,144.42 162.25,144.15 162.3,143.88 C 162.33,143.68 162.39,143.48 162.48,143.29 C 162.51,143.23 162.55,143.17 162.59,143.12 C 162.6,143.1 162.61,143.09 162.62,143.08 C 162.75,143.31 162.91,143.52 163.09,143.71 C 163.3,143.95 163.55,144.15 163.82,144.32 C 164.12,144.51 164.46,144.66 164.81,144.74 C 164.94,144.77 165.08,144.79 165.22,144.8 C 165.34,144.81 165.45,144.81 165.56,144.8 C 165.78,144.8 166.0,144.77 166.21,144.72 C 166.42,144.67 166.63,144.61 166.83,144.54 C 166.94,144.5 167.04,144.46 167.14,144.42 C 167.25,144.37 167.36,144.31 167.47,144.26 C 167.69,144.14 167.9,144.01 168.1,143.86 z"
		 />

		<!-- Prism Reference -->
		<cam mingh:cam="--verb EditSelectAll --verb ZoomSelection --verb FileSave " /> 
	 </g>

</svg>
