<svg
   xmlns:xlink="http://www.w3.org/1999/xlink"
   xmlns:svg="http://www.w3.org/2000/svg"
   xmlns="http://www.w3.org/2000/svg"
   xmlns:mingh="http://www.minghworld.com"
   width="300px"
   height="300px" >
	
	 <g>
		
		<!-- Paths -->
		<path style="fill:none;stroke:#000;stroke-width:0.25px;"
		 d="M 150.31,121.59 C 150.09,121.58 149.85,121.6 149.63,121.63 C 147.79,121.81 146.3,123.18 146.0,125.0 C 145.7,126.82 146.67,128.61 148.34,129.38 C 148.5,129.45 148.48,129.68 148.31,129.72 C 144.78,130.5 141.14,132.48 138.88,135.41 C 136.55,138.41 135.73,142.36 135.84,146.0 C 135.9,147.89 136.2,149.72 136.59,151.56 C 136.98,153.39 137.48,155.19 137.72,157.06 C 137.84,158.01 137.87,158.93 137.72,159.88 C 137.71,159.93 137.7,160.0 137.69,160.06 C 137.68,160.12 137.63,160.17 137.59,160.22 C 137.53,160.32 137.47,160.4 137.41,160.5 C 137.28,160.69 137.16,160.9 137.03,161.09 C 136.78,161.48 136.53,161.86 136.28,162.25 C 135.26,163.82 134.24,165.4 133.22,166.97 C 133.18,167.03 133.07,167.05 133.0,167.03 C 132.53,166.91 132.08,166.86 131.69,167.25 C 131.54,167.39 131.38,167.63 131.34,167.84 C 131.3,168.08 131.42,168.32 131.53,168.5 C 131.57,168.57 131.58,168.62 131.53,168.69 C 131.02,169.45 130.66,169.93 130.34,170.81 C 130.06,171.6 129.96,172.4 129.91,173.22 C 129.9,173.34 129.88,173.47 129.88,173.59 C 129.87,173.66 129.87,173.71 129.88,173.78 C 129.88,173.82 129.89,173.87 129.91,173.91 C 129.95,174.03 130.01,174.12 130.09,174.22 C 130.38,174.58 130.71,174.89 131.06,175.19 C 131.69,175.71 132.35,176.18 133.03,176.63 C 133.72,177.07 134.42,177.48 135.16,177.84 C 135.57,178.05 135.99,178.23 136.44,178.34 C 136.56,178.38 136.68,178.41 136.81,178.41 C 136.85,178.4 136.9,178.39 136.94,178.38 C 137.0,178.35 137.06,178.31 137.13,178.28 C 137.23,178.23 137.33,178.18 137.44,178.13 C 138.17,177.74 138.84,177.32 139.44,176.75 C 140.13,176.09 140.4,175.6 140.91,174.81 C 140.95,174.74 141.01,174.71 141.09,174.72 C 141.31,174.75 141.58,174.76 141.78,174.63 C 141.96,174.5 142.08,174.26 142.16,174.06 C 142.35,173.54 142.14,173.16 141.84,172.78 C 141.8,172.72 141.77,172.63 141.81,172.56 C 142.6,171.36 143.4,170.14 144.19,168.94 C 144.58,168.33 144.98,167.76 145.38,167.16 C 145.57,166.85 145.74,166.55 145.94,166.25 C 146.04,166.1 146.15,165.93 146.25,165.78 C 146.27,165.74 146.3,165.71 146.34,165.69 C 146.38,165.66 146.4,165.62 146.44,165.59 C 146.52,165.54 146.61,165.52 146.69,165.47 C 147.95,164.7 149.28,164.34 150.69,164.03 C 152.11,163.72 153.57,163.47 155.0,163.16 C 157.81,162.54 160.56,161.64 163.03,160.09 C 165.48,158.56 167.56,156.51 168.78,153.81 C 169.96,151.22 170.32,148.14 170.03,145.34 C 169.73,142.45 168.73,139.7 167.13,137.28 C 163.85,132.36 158.4,129.4 152.5,129.28 C 152.33,129.28 152.27,129.07 152.41,128.97 C 153.9,127.89 154.5,125.94 153.84,124.22 C 153.27,122.71 151.88,121.7 150.31,121.59 z M 150.03,123.72 C 151.11,123.72 151.97,124.58 151.97,125.66 C 151.97,126.73 151.11,127.63 150.03,127.63 C 148.95,127.63 148.09,126.73 148.09,125.66 C 148.09,124.58 148.95,123.72 150.03,123.72 z M 136.84,164.19 C 136.9,164.18 136.93,164.18 136.97,164.22 C 137.33,164.59 137.75,164.93 138.16,165.25 C 138.36,165.41 138.57,165.57 138.78,165.72 C 138.85,165.77 138.9,165.83 138.97,165.88 C 139.0,165.9 139.06,165.91 139.09,165.94 C 139.1,165.94 139.1,165.96 139.09,165.97 C 139.07,166.0 139.05,166.03 139.03,166.06 C 138.99,166.13 138.95,166.21 138.91,166.28 C 138.34,167.15 137.75,168.0 137.19,168.88 C 137.14,168.96 137.05,168.99 136.97,168.94 C 136.23,168.49 135.46,168.06 134.69,167.69 C 134.59,167.64 134.57,167.53 134.63,167.44 L 136.69,164.25 C 136.72,164.2 136.79,164.19 136.84,164.19 z M 140.38,166.84 C 140.42,166.83 140.46,166.82 140.5,166.84 C 141.17,167.24 142.04,167.76 142.78,168.03 C 142.89,168.07 142.94,168.19 142.88,168.28 C 142.18,169.34 141.5,170.41 140.81,171.47 C 140.75,171.56 140.64,171.57 140.56,171.5 C 139.91,170.94 139.21,170.43 138.5,169.94 C 138.42,169.88 138.39,169.77 138.44,169.69 C 139.04,168.76 139.65,167.83 140.25,166.91 C 140.28,166.87 140.33,166.85 140.38,166.84 z"
		 />
		 <path style="fill:#f00;stroke:none;"
		 d="M 169.01,153.12 C 169.06,152.88 169.09,152.66 169.13,152.37 C 169.15,152.2 169.17,152.0 169.2,151.78 C 169.23,151.56 169.27,151.3 169.32,151.02 C 169.4,150.63 169.52,150.19 169.62,149.96 C 169.69,149.79 169.75,149.73 169.78,149.76 C 169.82,149.8 169.83,149.94 169.82,150.14 C 169.82,150.16 169.82,150.17 169.81,150.18 C 169.68,150.95 169.5,151.71 169.25,152.46 C 169.17,152.68 169.09,152.9 169.01,153.12 z M 169.5,142.74 C 169.44,142.56 169.38,142.37 169.31,142.19 C 169.18,141.83 169.03,141.46 168.87,141.09 C 169.0,141.5 169.12,141.91 169.22,142.33 C 169.47,143.34 169.6,144.39 169.59,145.36 C 169.57,146.33 169.41,147.23 169.07,147.84 C 169.04,147.89 169.01,147.95 168.98,147.99 C 168.67,147.34 168.36,146.38 168.04,145.34 C 167.73,144.32 167.4,143.21 167.03,142.14 C 166.89,141.72 166.73,141.3 166.58,140.9 C 166.57,141.25 166.55,141.6 166.5,141.95 C 166.39,142.81 166.14,143.67 165.71,144.4 C 165.27,145.13 164.65,145.74 163.84,146.02 C 163.77,146.04 163.7,146.06 163.63,146.08 C 163.05,145.15 162.67,144.03 162.41,142.92 C 162.16,141.82 162.01,140.72 161.89,139.71 C 161.85,139.32 161.8,138.93 161.76,138.56 C 161.57,138.8 161.36,139.04 161.13,139.27 C 160.56,139.85 159.88,140.43 159.04,140.87 C 158.21,141.31 157.22,141.63 156.13,141.63 C 156.04,141.63 155.94,141.62 155.85,141.62 C 155.33,140.6 155.18,139.51 155.24,138.51 C 155.3,137.53 155.55,136.62 155.87,135.84 C 155.99,135.54 156.12,135.25 156.26,134.98 C 155.9,135.09 155.53,135.2 155.15,135.32 C 154.22,135.61 153.21,135.9 152.15,136.12 C 151.08,136.33 149.95,136.45 148.9,136.34 C 148.8,136.33 148.72,136.32 148.63,136.31 C 148.48,135.42 148.76,134.55 149.27,133.81 C 149.76,133.09 150.47,132.48 151.25,132.01 C 151.55,131.83 151.86,131.66 152.18,131.52 C 151.74,131.54 151.3,131.57 150.86,131.6 C 149.78,131.69 148.68,131.83 147.65,131.95 C 146.61,132.08 145.63,132.19 144.9,132.19 C 144.83,132.18 144.77,132.18 144.71,132.18 C 144.78,132.07 144.86,131.97 144.95,131.88 C 145.12,131.7 145.32,131.56 145.53,131.43 C 145.96,131.17 146.43,130.98 146.91,130.83 C 147.42,130.66 147.94,130.53 148.46,130.4 C 149.58,130.13 150.71,129.88 151.84,129.69 C 151.33,129.81 150.82,129.95 150.32,130.1 C 149.63,130.31 148.95,130.55 148.28,130.81 C 148.34,130.82 148.41,130.82 148.48,130.83 C 149.01,130.86 149.62,130.87 150.25,130.87 C 151.16,130.87 152.13,130.86 153.05,130.89 C 153.99,130.92 154.92,130.99 155.83,131.11 C 155.16,131.23 154.47,131.43 153.84,131.72 C 153.21,132.01 152.61,132.4 152.18,132.9 C 151.84,133.3 151.6,133.78 151.59,134.3 C 151.67,134.31 151.76,134.32 151.85,134.33 C 152.51,134.38 153.17,134.35 153.81,134.28 C 154.71,134.18 155.57,134.01 156.35,133.85 C 157.14,133.69 157.88,133.54 158.57,133.43 C 158.3,133.85 158.03,134.35 157.81,134.92 C 157.58,135.49 157.4,136.16 157.37,136.9 C 157.35,137.49 157.43,138.14 157.69,138.79 C 157.78,138.79 157.86,138.78 157.94,138.78 C 158.55,138.72 159.09,138.55 159.56,138.32 C 160.22,138.0 160.76,137.56 161.19,137.12 C 161.62,136.69 161.97,136.24 162.25,135.82 C 162.43,136.5 162.58,137.24 162.75,138.02 C 162.92,138.8 163.11,139.66 163.39,140.52 C 163.61,141.21 163.89,141.92 164.27,142.56 C 164.32,142.54 164.38,142.51 164.43,142.47 C 164.82,142.24 165.11,141.87 165.31,141.45 C 165.59,140.86 165.71,140.15 165.72,139.46 C 165.73,138.77 165.63,138.06 165.47,137.39 C 165.95,138.17 166.39,139.0 166.79,139.84 C 167.2,140.68 167.58,141.57 167.95,142.39 C 168.24,143.05 168.52,143.69 168.8,144.18 C 168.81,144.13 168.83,144.07 168.84,144.01 C 168.93,143.57 168.93,143.04 168.86,142.47 C 168.76,141.67 168.52,140.8 168.2,139.97 C 167.89,139.13 167.48,138.3 167.01,137.52 C 167.53,138.22 168.0,138.96 168.38,139.69 C 168.42,139.76 168.46,139.83 168.49,139.9 C 168.77,140.52 169.02,141.15 169.22,141.79 C 169.32,142.11 169.41,142.42 169.5,142.74 z M 130.64,170.3 C 130.68,170.44 130.75,170.54 130.82,170.65 C 130.94,170.83 131.08,170.99 131.22,171.14 C 131.66,171.6 132.14,172.01 132.63,172.4 C 133.4,173.01 134.19,173.56 135.01,174.09 C 135.84,174.62 136.67,175.11 137.55,175.54 C 138.05,175.78 138.55,176.01 139.1,176.17 C 139.26,176.22 139.42,176.26 139.6,176.27 C 139.66,176.28 139.71,176.28 139.77,176.27 C 139.78,176.27 139.78,176.27 139.79,176.27 C 139.81,176.27 139.78,176.29 139.77,176.29 C 139.74,176.34 139.7,176.38 139.66,176.42 C 139.59,176.5 139.51,176.57 139.43,176.65 C 139.39,176.69 139.36,176.75 139.28,176.75 C 139.26,176.75 139.23,176.75 139.2,176.75 C 139.12,176.75 139.05,176.74 138.98,176.73 C 138.78,176.69 138.59,176.63 138.4,176.56 C 137.82,176.36 137.28,176.1 136.74,175.82 C 135.87,175.36 135.04,174.86 134.23,174.32 C 133.42,173.78 132.63,173.22 131.88,172.58 C 131.48,172.24 131.08,171.89 130.74,171.48 C 130.63,171.35 130.53,171.22 130.46,171.07 C 130.44,171.05 130.39,170.94 130.4,170.91 C 130.47,170.7 130.55,170.5 130.64,170.3 z M 136.94,169.93 C 137.06,169.75 137.18,169.57 137.3,169.38 C 137.3,169.37 137.34,169.35 137.32,169.34 C 137.31,169.33 137.31,169.33 137.3,169.33 C 137.3,169.32 137.29,169.32 137.28,169.31 C 137.26,169.3 137.24,169.29 137.22,169.27 C 137.14,169.23 137.06,169.18 136.98,169.13 C 136.67,168.94 136.35,168.75 136.03,168.57 C 135.71,168.39 135.39,168.21 135.06,168.05 C 134.89,167.97 134.72,167.89 134.55,167.81 C 134.47,167.77 134.39,167.74 134.31,167.7 C 134.28,167.69 134.24,167.67 134.2,167.65 C 134.18,167.65 134.16,167.64 134.14,167.63 C 134.13,167.63 134.12,167.62 134.12,167.62 C 134.11,167.62 134.11,167.62 134.1,167.61 C 134.08,167.6 134.08,167.63 134.07,167.64 C 133.99,167.77 133.91,167.9 133.82,168.02 C 133.78,168.09 133.74,168.15 133.7,168.22 C 133.69,168.22 133.69,168.23 133.68,168.24 C 133.68,168.24 133.66,168.25 133.67,168.26 C 133.68,168.26 133.68,168.26 133.68,168.26 C 133.68,168.26 133.69,168.26 133.69,168.26 C 133.73,168.27 133.76,168.29 133.8,168.3 C 133.87,168.32 133.95,168.35 134.02,168.38 C 134.37,168.51 134.7,168.67 135.03,168.84 C 135.69,169.17 136.32,169.54 136.94,169.93 z M 140.45,172.67 C 140.57,172.48 140.7,172.29 140.82,172.1 C 140.84,172.07 140.85,172.05 140.87,172.02 C 140.87,172.02 140.86,172.02 140.86,172.01 C 140.85,172.01 140.84,172.0 140.84,171.99 C 140.82,171.98 140.81,171.97 140.8,171.96 C 140.74,171.9 140.68,171.85 140.63,171.8 C 140.35,171.55 140.07,171.31 139.78,171.08 C 139.21,170.62 138.61,170.19 138.0,169.78 C 138.0,169.78 137.99,169.78 137.99,169.77 C 137.97,169.76 137.97,169.78 137.96,169.79 C 137.93,169.84 137.9,169.89 137.86,169.94 C 137.8,170.04 137.74,170.14 137.67,170.24 C 137.65,170.26 137.64,170.29 137.62,170.31 C 137.61,170.32 137.61,170.34 137.6,170.35 C 137.6,170.35 137.6,170.36 137.6,170.36 C 137.61,170.36 137.62,170.37 137.63,170.38 C 137.65,170.39 137.67,170.4 137.68,170.41 C 137.76,170.46 137.83,170.51 137.9,170.56 C 138.21,170.77 138.5,170.99 138.8,171.21 C 139.38,171.66 139.95,172.11 140.45,172.67 z M 132.87,168.06 C 132.98,167.89 133.08,167.73 133.19,167.57 C 133.23,167.51 133.26,167.45 133.3,167.4 C 133.31,167.38 133.32,167.37 133.33,167.35 C 133.33,167.35 133.32,167.35 133.32,167.35 C 133.31,167.35 133.31,167.35 133.3,167.34 C 133.2,167.32 133.11,167.3 133.01,167.29 C 132.81,167.28 132.55,167.28 132.6,167.55 C 132.62,167.72 132.77,167.93 132.87,168.06 z M 141.41,172.62 C 141.3,172.78 141.2,172.94 141.09,173.11 C 141.06,173.16 141.02,173.22 140.98,173.28 C 140.97,173.29 140.96,173.31 140.95,173.32 C 140.95,173.33 140.96,173.32 140.96,173.32 C 140.97,173.33 140.98,173.33 140.99,173.33 C 141.08,173.35 141.17,173.37 141.27,173.38 C 141.47,173.4 141.73,173.39 141.69,173.12 C 141.66,172.95 141.51,172.74 141.41,172.62 z M 136.3,170.91 C 136.42,170.72 136.54,170.54 136.66,170.36 C 136.67,170.34 136.7,170.33 136.67,170.31 C 136.67,170.31 136.66,170.3 136.65,170.3 C 136.64,170.29 136.62,170.28 136.61,170.27 C 136.55,170.24 136.5,170.2 136.44,170.16 C 136.16,169.99 135.87,169.82 135.58,169.66 C 135.0,169.34 134.42,169.03 133.79,168.8 C 133.73,168.78 133.66,168.75 133.6,168.73 C 133.57,168.72 133.54,168.71 133.51,168.7 C 133.49,168.7 133.48,168.69 133.47,168.69 C 133.46,168.69 133.46,168.69 133.46,168.69 C 133.45,168.68 133.46,168.69 133.46,168.69 C 133.47,168.7 133.48,168.71 133.48,168.72 C 133.63,168.85 133.77,168.98 133.92,169.11 C 134.17,169.33 134.43,169.54 134.69,169.74 C 135.21,170.15 135.75,170.54 136.3,170.91 z M 140.14,173.04 C 139.76,172.59 139.14,172.07 138.67,171.71 C 138.41,171.5 138.15,171.31 137.88,171.12 C 137.78,171.05 137.68,170.98 137.59,170.91 C 137.54,170.88 137.49,170.85 137.44,170.81 C 137.42,170.8 137.39,170.78 137.37,170.76 C 137.36,170.76 137.36,170.76 137.35,170.75 C 137.35,170.75 137.35,170.75 137.34,170.75 C 137.33,170.74 137.33,170.76 137.33,170.76 C 137.32,170.77 137.32,170.78 137.31,170.79 C 137.26,170.87 137.21,170.95 137.15,171.03 C 137.11,171.1 137.06,171.17 137.02,171.24 C 137.01,171.26 137.0,171.27 136.99,171.29 C 136.98,171.3 136.97,171.31 136.97,171.32 C 136.97,171.32 136.95,171.33 136.96,171.33 C 136.97,171.34 136.97,171.34 136.98,171.35 C 137.0,171.36 137.03,171.38 137.05,171.39 C 137.1,171.42 137.15,171.45 137.2,171.48 C 137.3,171.55 137.4,171.61 137.5,171.67 C 137.78,171.84 138.07,172.01 138.36,172.17 C 138.94,172.49 139.53,172.79 140.14,173.04 z M 141.89,162.27 C 140.97,161.65 140.08,161.0 139.24,160.27 C 139.02,160.07 138.79,159.86 138.58,159.64 C 138.53,159.6 138.49,159.55 138.45,159.5 C 138.42,159.48 138.4,159.46 138.38,159.44 C 138.38,159.43 138.38,159.43 138.38,159.43 C 138.37,159.42 138.38,159.44 138.38,159.45 C 138.39,159.48 138.4,159.51 138.41,159.55 C 138.43,159.62 138.45,159.69 138.46,159.77 C 138.54,160.34 138.42,160.96 138.24,161.5 C 138.07,162.0 137.84,162.46 137.57,162.92 C 137.42,163.16 137.26,163.4 137.11,163.64 C 137.09,163.67 137.07,163.7 137.04,163.73 C 137.04,163.74 137.04,163.75 137.03,163.74 C 137.02,163.74 137.01,163.73 137.01,163.73 C 136.99,163.72 136.98,163.71 136.96,163.7 C 136.91,163.67 136.86,163.65 136.8,163.66 C 136.73,163.66 136.69,163.69 136.64,163.73 C 136.56,163.8 136.51,163.9 136.45,163.99 C 135.85,164.92 135.24,165.85 134.64,166.77 C 134.55,166.91 134.46,167.05 134.37,167.19 C 134.33,167.25 134.28,167.32 134.24,167.39 C 134.21,167.43 134.19,167.46 134.17,167.49 C 134.16,167.51 134.15,167.53 134.14,167.55 C 134.13,167.56 134.15,167.55 134.15,167.55 C 134.25,167.6 134.34,167.64 134.43,167.69 C 134.63,167.78 134.83,167.88 135.02,167.98 C 135.44,168.2 135.85,168.42 136.26,168.66 C 136.55,168.83 136.84,169.0 137.12,169.18 C 137.19,169.23 137.26,169.27 137.33,169.31 C 137.35,169.32 137.36,169.28 137.37,169.27 C 137.38,169.25 137.4,169.23 137.42,169.2 C 137.45,169.15 137.48,169.1 137.51,169.06 C 137.57,168.96 137.64,168.86 137.7,168.76 C 137.95,168.37 138.21,167.99 138.46,167.6 C 138.72,167.19 138.99,166.79 139.25,166.39 C 139.32,166.29 139.38,166.18 139.45,166.08 C 139.48,166.04 139.51,165.99 139.53,165.93 C 139.56,165.85 139.57,165.79 139.52,165.71 C 139.5,165.68 139.48,165.65 139.45,165.62 C 139.43,165.6 139.41,165.58 139.39,165.57 C 139.36,165.55 139.37,165.55 139.39,165.52 C 139.44,165.44 139.49,165.37 139.54,165.29 C 139.65,165.13 139.75,164.97 139.85,164.81 C 140.18,164.31 140.5,163.82 140.82,163.32 C 141.05,162.97 141.38,162.36 141.89,162.27 z M 146.63,164.8 C 146.16,164.65 145.72,164.45 145.28,164.24 C 144.72,163.97 144.18,163.67 143.64,163.36 C 143.36,163.19 143.08,163.02 142.8,162.85 C 142.76,162.83 142.73,162.81 142.69,162.78 C 142.68,162.77 142.66,162.76 142.64,162.75 C 142.63,162.75 142.63,162.74 142.62,162.74 C 142.61,162.73 142.61,162.73 142.6,162.73 C 142.59,162.72 142.61,162.74 142.61,162.75 C 142.61,162.75 142.61,162.76 142.61,162.77 C 142.65,162.99 142.6,163.18 142.52,163.38 C 142.38,163.71 141.95,164.31 141.76,164.61 C 141.49,165.03 141.22,165.45 140.94,165.87 C 140.87,165.97 140.8,166.08 140.74,166.18 C 140.7,166.23 140.67,166.29 140.63,166.34 C 140.63,166.34 140.62,166.37 140.61,166.37 C 140.6,166.36 140.58,166.35 140.57,166.34 C 140.54,166.33 140.51,166.31 140.48,166.3 C 140.37,166.27 140.29,166.29 140.2,166.37 C 140.13,166.44 140.09,166.53 140.04,166.61 C 139.95,166.74 139.86,166.87 139.78,167.01 C 139.47,167.48 139.15,167.96 138.84,168.44 C 138.69,168.68 138.53,168.92 138.38,169.16 C 138.3,169.27 138.22,169.39 138.14,169.51 C 138.1,169.57 138.07,169.63 138.03,169.69 C 138.02,169.71 137.98,169.74 138.0,169.75 C 138.02,169.76 138.03,169.77 138.04,169.77 C 138.96,170.39 139.85,171.04 140.69,171.77 C 140.73,171.8 140.77,171.84 140.81,171.87 C 140.83,171.89 140.85,171.91 140.87,171.92 C 140.88,171.93 140.89,171.94 140.9,171.95 C 140.92,171.97 140.94,171.92 140.95,171.9 C 141.13,171.62 141.31,171.35 141.49,171.07 C 141.85,170.52 142.2,169.97 142.56,169.42 C 142.72,169.18 142.87,168.95 143.03,168.71 C 143.1,168.59 143.18,168.47 143.26,168.35 C 143.3,168.29 143.35,168.22 143.38,168.15 C 143.41,168.06 143.42,167.99 143.37,167.9 C 143.34,167.86 143.31,167.83 143.27,167.81 C 143.26,167.8 143.25,167.79 143.24,167.79 C 143.23,167.78 143.22,167.78 143.22,167.78 C 143.21,167.77 143.22,167.76 143.22,167.76 C 143.24,167.74 143.25,167.71 143.27,167.69 C 143.5,167.34 143.72,166.99 143.97,166.65 C 144.3,166.23 144.65,165.84 145.07,165.51 C 145.46,165.2 146.09,164.83 146.63,164.8 z M 146.85,164.87 C 146.85,164.89 146.85,164.91 146.84,164.93 C 146.82,164.97 146.8,165.0 146.76,165.02 C 146.67,165.08 146.58,165.13 146.49,165.19 C 146.4,165.24 146.31,165.3 146.22,165.36 C 146.07,165.46 146.07,165.46 145.98,165.61 C 145.66,166.09 145.35,166.57 145.03,167.06 C 144.4,168.02 143.77,168.99 143.14,169.96 C 142.59,170.8 142.05,171.64 141.5,172.48 C 141.5,172.48 141.48,172.5 141.49,172.51 C 141.49,172.52 141.5,172.52 141.5,172.53 C 141.51,172.54 141.52,172.55 141.53,172.56 C 141.55,172.58 141.57,172.6 141.59,172.62 C 141.63,172.66 141.67,172.7 141.7,172.74 C 141.8,172.85 141.89,172.96 141.96,173.09 C 142.08,173.28 142.16,173.46 142.17,173.69 C 142.17,173.7 142.17,173.79 142.16,173.8 C 142.15,173.81 142.14,173.81 142.14,173.82 C 142.12,173.82 142.11,173.83 142.09,173.84 C 142.05,173.85 142.01,173.86 141.97,173.86 C 141.85,173.88 141.73,173.86 141.61,173.84 C 141.19,173.77 140.81,173.62 140.42,173.46 C 138.65,172.72 136.47,171.35 134.94,170.22 C 134.36,169.79 133.79,169.35 133.25,168.86 C 132.86,168.52 132.49,168.17 132.19,167.75 C 132.1,167.63 132.02,167.51 131.97,167.37 C 131.95,167.32 131.94,167.28 131.94,167.23 C 131.94,167.21 131.94,167.19 131.94,167.17 C 131.94,167.16 131.94,167.15 131.95,167.14 C 131.95,167.13 132.07,167.09 132.08,167.08 C 132.13,167.05 132.18,167.05 132.24,167.03 C 132.45,166.99 132.65,167.03 132.86,167.07 C 132.99,167.1 133.12,167.14 133.24,167.18 C 133.27,167.19 133.3,167.21 133.33,167.22 C 133.35,167.22 133.36,167.23 133.38,167.23 C 133.42,167.25 133.41,167.23 133.43,167.2 C 133.51,167.08 133.58,166.96 133.66,166.84 C 134.82,165.07 135.98,163.29 137.14,161.51 C 137.33,161.22 137.51,160.93 137.7,160.64 C 137.75,160.57 137.8,160.5 137.84,160.43 C 137.89,160.36 137.94,160.29 137.98,160.22 C 138.01,160.15 138.04,159.92 138.06,159.85 C 138.07,159.72 138.09,159.6 138.11,159.47 C 138.11,159.44 138.11,159.41 138.12,159.37 C 138.12,159.34 138.14,159.32 138.15,159.3 C 138.17,159.28 138.18,159.26 138.21,159.25 C 138.23,159.25 138.21,159.23 138.2,159.23 C 138.19,159.22 138.19,159.21 138.18,159.2 C 138.17,159.19 138.15,159.17 138.14,159.15 C 138.06,159.05 137.98,158.94 137.92,158.82 C 137.91,158.8 137.9,158.79 137.9,158.78 C 137.88,158.75 137.89,158.72 137.9,158.69 C 137.9,158.63 137.9,158.56 137.9,158.5 C 137.9,158.24 137.89,157.99 137.87,157.73 C 137.87,157.7 137.87,157.67 137.86,157.64 C 137.86,157.62 137.86,157.61 137.86,157.59 C 137.86,157.58 137.86,157.58 137.86,157.57 C 137.86,157.56 137.85,157.54 137.86,157.55 C 137.86,157.55 137.86,157.56 137.86,157.56 C 137.87,157.57 137.87,157.58 137.88,157.59 C 137.89,157.6 137.9,157.62 137.91,157.64 C 137.95,157.72 138.01,157.79 138.06,157.86 C 138.39,158.3 138.78,158.67 139.19,159.04 C 140.67,160.36 142.66,161.72 144.38,162.71 C 145.32,163.26 146.27,163.77 147.29,164.17 C 147.61,164.3 147.93,164.41 148.28,164.48 C 148.34,164.49 148.4,164.5 148.46,164.51 C 148.48,164.51 148.51,164.51 148.54,164.52 C 148.54,164.52 148.54,164.52 148.55,164.52 C 148.55,164.52 148.55,164.52 148.55,164.52 C 148.54,164.52 148.53,164.53 148.51,164.53 C 148.49,164.54 148.47,164.54 148.45,164.55 C 148.36,164.58 148.27,164.62 148.18,164.65 C 148.0,164.72 147.83,164.79 147.65,164.87 C 147.61,164.89 147.57,164.91 147.53,164.93 C 147.51,164.93 147.43,164.98 147.42,164.98 C 147.41,164.98 147.4,164.98 147.39,164.97 C 147.36,164.97 147.34,164.97 147.32,164.97 C 147.28,164.97 147.23,164.96 147.18,164.95 C 147.07,164.93 146.96,164.9 146.85,164.87 z M 138.18,146.04 C 138.41,147.56 138.76,149.05 139.21,150.53 C 139.29,150.77 139.36,151.01 139.44,151.24 C 139.48,151.36 139.52,151.48 139.56,151.6 C 139.58,151.65 139.6,151.71 139.62,151.77 C 139.63,151.8 139.64,151.83 139.65,151.86 C 139.65,151.87 139.65,151.87 139.66,151.88 C 139.66,151.89 139.65,151.9 139.66,151.9 C 139.67,151.89 139.68,151.89 139.69,151.88 C 139.92,151.74 140.16,151.6 140.41,151.47 C 141.09,151.11 141.8,150.8 142.52,150.54 C 142.68,150.48 142.85,150.42 143.01,150.36 C 143.06,150.35 143.1,150.33 143.14,150.32 C 143.16,150.31 143.18,150.31 143.2,150.3 C 143.23,150.29 143.19,150.28 143.18,150.28 C 143.17,150.27 143.16,150.26 143.15,150.25 C 143.07,150.19 142.99,150.13 142.91,150.07 C 142.59,149.83 142.27,149.58 141.95,149.33 C 141.95,149.33 141.94,149.32 141.94,149.32 C 141.93,149.31 141.93,149.3 141.92,149.31 C 141.91,149.31 141.89,149.32 141.88,149.32 C 141.86,149.33 141.83,149.34 141.81,149.35 C 141.76,149.37 141.71,149.39 141.66,149.41 C 141.57,149.44 141.48,149.48 141.38,149.52 C 141.2,149.59 141.02,149.67 140.84,149.75 C 140.67,149.82 140.51,149.9 140.34,149.98 C 140.26,150.02 140.18,150.06 140.1,150.1 C 140.06,150.12 140.02,150.14 139.99,150.16 C 139.97,150.17 139.95,150.18 139.93,150.19 C 139.92,150.2 139.91,150.2 139.9,150.21 C 139.88,150.22 139.88,150.18 139.88,150.17 C 139.66,149.43 139.46,148.69 139.29,147.94 C 139.23,147.7 139.18,147.46 139.13,147.22 C 139.12,147.17 139.11,147.11 139.09,147.05 C 139.09,147.03 139.07,146.89 139.05,146.88 C 138.99,146.82 138.93,146.76 138.87,146.7 C 138.63,146.48 138.4,146.26 138.18,146.04 z M 161.5,160.33 C 161.36,160.5 161.21,160.66 161.05,160.81 C 161.04,160.83 161.02,160.84 161.01,160.85 C 161.0,160.86 160.98,160.87 160.99,160.87 C 161.01,160.86 161.03,160.86 161.04,160.85 C 161.1,160.83 161.16,160.8 161.22,160.78 C 161.32,160.74 161.43,160.7 161.53,160.66 C 161.73,160.57 161.93,160.48 162.14,160.39 C 162.14,160.39 162.15,160.39 162.14,160.39 C 162.14,160.39 162.14,160.39 162.13,160.39 C 162.13,160.39 162.12,160.39 162.11,160.39 C 162.1,160.39 162.09,160.39 162.08,160.38 C 162.05,160.38 162.02,160.38 162.0,160.38 C 161.94,160.38 161.89,160.38 161.83,160.37 C 161.72,160.36 161.61,160.35 161.5,160.33 z M 157.5,149.48 C 157.48,149.49 157.46,149.49 157.44,149.5 C 157.41,149.84 157.4,150.19 157.41,150.52 C 157.43,151.06 157.5,151.59 157.62,152.08 C 157.65,152.2 157.68,152.31 157.72,152.42 C 158.06,153.46 158.7,154.33 159.6,154.77 C 159.67,154.8 159.74,154.83 159.81,154.86 C 160.68,155.21 161.7,155.17 162.65,154.82 C 162.76,154.78 162.87,154.73 162.98,154.68 C 163.44,154.47 163.88,154.19 164.28,153.86 C 164.53,153.65 164.77,153.42 164.99,153.17 C 164.99,153.15 164.99,153.13 164.98,153.11 C 164.73,153.35 164.46,153.56 164.18,153.73 C 163.74,153.99 163.27,154.18 162.8,154.3 C 162.63,154.34 162.47,154.38 162.3,154.4 C 161.62,154.5 160.92,154.44 160.3,154.19 C 160.23,154.16 160.16,154.13 160.09,154.1 C 159.42,153.77 158.87,153.21 158.45,152.53 C 158.36,152.38 158.27,152.23 158.19,152.06 C 157.96,151.6 157.78,151.09 157.65,150.56 C 157.57,150.21 157.52,149.85 157.5,149.48 z M 136.14,143.44 C 136.14,143.66 136.14,143.88 136.14,144.1 C 136.14,144.21 136.15,144.32 136.15,144.44 C 136.16,144.5 136.16,144.56 136.16,144.62 C 136.16,144.64 136.16,144.72 136.17,144.68 C 136.18,144.67 136.18,144.65 136.19,144.63 C 136.26,144.42 136.35,144.22 136.45,144.02 C 136.46,144.0 136.38,143.89 136.37,143.87 C 136.34,143.83 136.31,143.78 136.29,143.74 C 136.23,143.64 136.18,143.54 136.14,143.44 z M 160.18,158.57 C 160.73,158.11 161.24,157.61 161.73,157.09 C 161.99,156.82 162.24,156.55 162.49,156.28 C 162.61,156.14 162.73,156.0 162.86,155.86 C 163.0,155.73 163.14,155.61 163.29,155.49 C 163.84,154.99 164.31,154.43 164.72,153.81 C 164.82,153.65 164.92,153.49 165.02,153.33 C 165.03,153.31 165.01,153.23 165.0,153.22 C 165.0,153.19 164.98,153.24 164.97,153.25 C 164.96,153.27 164.94,153.29 164.93,153.31 C 164.87,153.38 164.82,153.45 164.76,153.52 C 164.53,153.8 164.29,154.07 164.02,154.32 C 162.98,155.33 161.62,156.06 160.09,155.95 C 158.47,155.84 157.45,154.69 157.14,153.17 C 157.0,152.45 157.04,151.77 157.12,151.06 C 157.17,150.69 157.23,150.32 157.3,149.95 C 157.32,149.86 157.33,149.76 157.35,149.67 C 157.36,149.63 157.37,149.58 157.38,149.53 C 157.38,149.53 157.38,149.52 157.38,149.52 C 157.38,149.51 157.38,149.51 157.37,149.51 C 157.36,149.52 157.35,149.52 157.34,149.52 C 157.31,149.53 157.29,149.53 157.27,149.54 C 157.24,149.55 157.24,149.57 157.23,149.59 C 157.22,149.61 157.21,149.64 157.2,149.66 C 157.19,149.7 157.17,149.75 157.15,149.79 C 157.11,149.88 157.08,149.97 157.04,150.06 C 156.82,150.63 156.5,151.58 156.37,152.18 C 156.26,152.66 156.21,152.75 155.95,153.17 C 155.76,153.47 155.56,153.77 155.35,154.06 C 155.12,154.36 154.89,154.65 154.65,154.95 C 154.53,155.09 154.42,155.23 154.3,155.37 C 154.24,155.44 154.18,155.51 154.12,155.58 C 154.11,155.59 154.11,155.6 154.1,155.61 C 154.09,155.62 154.1,155.62 154.11,155.63 C 154.13,155.64 154.15,155.65 154.17,155.66 C 154.21,155.68 154.25,155.7 154.29,155.73 C 154.92,156.07 155.55,156.41 156.19,156.74 C 157.49,157.41 158.81,158.04 160.18,158.57 z M 143.76,148.88 C 144.07,148.24 144.39,147.6 144.75,146.97 C 144.94,146.65 145.14,146.34 145.36,146.04 C 145.47,145.89 145.58,145.74 145.72,145.61 C 145.86,145.49 146.02,145.39 146.16,145.28 C 146.74,144.83 147.26,144.33 147.77,143.81 C 147.84,143.74 147.91,143.68 147.97,143.61 C 147.99,143.59 148.0,143.57 148.02,143.56 C 148.04,143.54 148.03,143.52 148.03,143.5 C 148.02,143.47 148.02,143.45 148.02,143.43 C 148.02,143.42 148.02,143.4 148.0,143.41 C 147.99,143.42 147.99,143.42 147.98,143.43 C 147.83,143.54 147.67,143.64 147.52,143.75 C 147.22,143.95 146.91,144.15 146.6,144.33 C 145.92,144.73 145.25,145.04 144.46,145.16 C 143.78,145.26 143.06,145.2 142.43,144.9 C 141.02,144.25 140.48,142.62 140.52,141.23 C 140.55,140.48 140.72,139.8 140.99,139.11 C 141.13,138.76 141.28,138.43 141.46,138.1 C 141.48,138.06 141.5,138.02 141.52,137.98 C 141.53,137.97 141.53,137.96 141.54,137.95 C 141.54,137.95 141.56,137.93 141.54,137.93 C 141.53,137.94 141.51,137.94 141.49,137.95 C 141.43,137.96 141.43,137.97 141.4,138.02 C 141.37,138.06 141.34,138.1 141.32,138.14 C 141.21,138.29 141.11,138.45 141.01,138.61 C 140.62,139.25 140.32,139.91 140.1,140.62 C 140.0,140.97 139.84,141.3 139.69,141.64 C 139.54,141.97 139.4,142.29 139.26,142.63 C 139.1,143.02 138.95,143.42 138.81,143.83 C 138.75,144.03 138.68,144.23 138.62,144.43 C 138.62,144.46 138.61,144.49 138.6,144.51 C 138.6,144.52 138.64,144.55 138.64,144.55 C 138.67,144.58 138.69,144.6 138.72,144.63 C 138.77,144.68 138.83,144.73 138.88,144.79 C 139.36,145.25 139.85,145.69 140.35,146.13 C 141.45,147.09 142.59,148.0 143.76,148.88 z M 139.84,147.58 C 139.91,147.89 139.98,148.19 140.06,148.5 C 140.08,148.58 140.1,148.66 140.12,148.74 C 140.13,148.78 140.14,148.82 140.15,148.86 C 140.16,148.87 140.16,148.88 140.16,148.89 C 140.16,148.9 140.16,148.9 140.16,148.91 C 140.17,148.91 140.16,148.92 140.17,148.92 C 140.18,148.91 140.19,148.91 140.2,148.9 C 140.35,148.83 140.49,148.77 140.64,148.71 C 140.7,148.67 140.77,148.64 140.84,148.62 C 140.88,148.6 140.92,148.59 140.95,148.57 C 140.96,148.57 140.97,148.56 140.98,148.56 C 140.98,148.56 140.99,148.56 140.99,148.55 C 140.98,148.55 140.98,148.55 140.97,148.54 C 140.95,148.53 140.94,148.51 140.92,148.5 C 140.8,148.4 140.68,148.3 140.56,148.2 C 140.31,147.99 140.07,147.79 139.84,147.58 z M 153.02,156.69 C 153.09,157.46 153.13,158.22 153.11,159.0 C 153.11,159.34 153.09,159.69 153.05,160.03 C 153.04,160.19 153.02,160.35 153.0,160.5 C 153.0,160.52 152.99,160.54 152.99,160.56 C 152.99,160.57 152.99,160.58 153.0,160.58 C 153.02,160.58 153.04,160.58 153.06,160.58 C 153.13,160.57 153.2,160.56 153.27,160.56 C 153.41,160.54 153.56,160.53 153.7,160.52 C 155.24,160.36 156.75,160.11 158.25,159.75 C 158.37,159.72 158.48,159.69 158.6,159.66 C 158.66,159.65 158.72,159.63 158.78,159.62 C 158.81,159.61 158.84,159.6 158.87,159.59 C 158.88,159.59 158.9,159.59 158.91,159.58 C 158.92,159.58 158.97,159.58 158.95,159.57 C 158.8,159.51 158.66,159.46 158.51,159.4 C 158.36,159.33 158.21,159.27 158.06,159.21 C 157.98,159.17 157.9,159.14 157.82,159.11 C 157.81,159.1 157.75,159.12 157.74,159.12 C 157.71,159.13 157.68,159.13 157.65,159.14 C 157.59,159.15 157.53,159.17 157.47,159.18 C 156.72,159.34 155.96,159.48 155.2,159.59 C 155.07,159.61 154.93,159.62 154.8,159.64 C 154.73,159.65 154.67,159.66 154.6,159.67 C 154.57,159.67 154.54,159.67 154.5,159.68 C 154.48,159.68 154.44,159.71 154.44,159.67 C 154.45,159.51 154.46,159.35 154.47,159.19 C 154.48,158.84 154.48,158.5 154.47,158.15 C 154.47,157.98 154.46,157.82 154.46,157.65 C 154.45,157.61 154.45,157.57 154.45,157.52 C 154.45,157.51 154.45,157.47 154.44,157.46 C 154.42,157.45 154.39,157.44 154.37,157.43 C 154.28,157.38 154.19,157.33 154.1,157.28 C 153.74,157.09 153.38,156.89 153.02,156.69 z M 147.24,153.15 C 147.33,153.5 147.42,153.85 147.52,154.2 C 147.53,154.24 147.54,154.28 147.55,154.33 C 147.55,154.34 147.55,154.35 147.57,154.35 C 147.58,154.35 147.59,154.34 147.6,154.34 C 147.62,154.34 147.64,154.34 147.67,154.33 C 147.76,154.32 147.85,154.31 147.94,154.29 C 148.11,154.26 148.29,154.24 148.47,154.21 C 148.56,154.19 148.66,154.18 148.75,154.16 C 148.76,154.16 148.77,154.16 148.78,154.16 C 148.8,154.15 148.77,154.15 148.76,154.14 C 148.74,154.13 148.72,154.12 148.71,154.11 C 148.67,154.08 148.63,154.06 148.6,154.04 C 148.45,153.94 148.29,153.84 148.14,153.74 C 147.84,153.55 147.54,153.35 147.24,153.15 z M 155.51,158.02 C 155.51,158.17 155.52,158.33 155.52,158.49 C 155.52,158.57 155.52,158.64 155.51,158.72 C 155.51,158.76 155.51,158.79 155.51,158.83 C 155.51,158.85 155.51,158.87 155.51,158.89 C 155.51,158.93 155.53,158.91 155.56,158.91 C 155.87,158.86 156.18,158.8 156.49,158.75 C 156.57,158.73 156.66,158.72 156.74,158.7 C 156.78,158.69 156.82,158.68 156.86,158.68 C 156.89,158.67 156.84,158.66 156.83,158.66 C 156.82,158.65 156.8,158.64 156.79,158.64 C 156.64,158.57 156.5,158.5 156.36,158.43 C 156.08,158.3 155.79,158.16 155.51,158.02 z M 148.0,143.35 C 148.0,143.33 147.99,143.31 147.99,143.29 C 147.65,143.42 147.29,143.52 146.95,143.58 C 146.41,143.69 145.86,143.72 145.35,143.7 C 145.17,143.69 144.99,143.67 144.82,143.65 C 144.11,143.55 143.44,143.32 142.9,142.92 C 142.84,142.88 142.78,142.83 142.72,142.78 C 142.15,142.3 141.76,141.62 141.55,140.88 C 141.51,140.72 141.47,140.55 141.44,140.39 C 141.36,139.91 141.35,139.4 141.41,138.89 C 141.45,138.57 141.53,138.24 141.65,137.91 C 141.63,137.91 141.61,137.92 141.59,137.92 C 141.45,138.23 141.34,138.54 141.25,138.85 C 141.1,139.35 141.03,139.87 141.02,140.38 C 141.02,140.5 141.02,140.61 141.03,140.73 C 141.1,141.82 141.54,142.85 142.3,143.5 C 142.36,143.55 142.42,143.59 142.48,143.64 C 143.23,144.18 144.21,144.38 145.22,144.28 C 145.33,144.26 145.45,144.25 145.56,144.23 C 146.07,144.14 146.58,143.99 147.08,143.79 C 147.39,143.66 147.7,143.52 148.0,143.35 z M 152.34,154.61 C 152.83,154.02 153.29,153.4 153.76,152.8 C 154.0,152.48 154.26,152.17 154.52,151.87 C 154.66,151.71 154.82,151.59 154.99,151.47 C 155.17,151.35 155.33,151.23 155.5,151.09 C 155.8,150.84 156.08,150.56 156.36,150.28 C 156.49,150.13 156.62,149.99 156.75,149.84 C 156.81,149.77 156.88,149.69 156.94,149.61 C 156.97,149.57 157.01,149.53 157.04,149.49 C 157.04,149.49 157.08,149.45 157.07,149.43 C 157.07,149.41 157.06,149.39 157.05,149.36 C 157.05,149.35 157.04,149.34 157.04,149.33 C 157.04,149.32 157.04,149.3 157.04,149.31 C 157.03,149.32 157.03,149.32 157.02,149.32 C 157.0,149.34 156.98,149.36 156.97,149.37 C 156.93,149.41 156.89,149.44 156.85,149.47 C 156.78,149.53 156.7,149.6 156.62,149.66 C 156.47,149.78 156.31,149.91 156.15,150.02 C 155.83,150.26 155.5,150.47 155.14,150.65 C 154.41,151.03 153.69,151.25 152.87,151.29 C 152.08,151.32 151.28,151.18 150.56,150.85 C 149.09,150.16 148.14,148.68 147.91,147.13 C 147.8,146.31 147.87,145.55 148.04,144.76 C 148.08,144.56 148.13,144.37 148.18,144.18 C 148.2,144.08 148.23,143.99 148.26,143.89 C 148.27,143.85 148.29,143.8 148.3,143.75 C 148.31,143.73 148.32,143.71 148.32,143.68 C 148.33,143.67 148.33,143.66 148.33,143.65 C 148.34,143.63 148.31,143.65 148.3,143.65 C 148.28,143.65 148.25,143.65 148.23,143.66 C 148.22,143.66 148.21,143.65 148.2,143.66 C 148.19,143.67 148.18,143.69 148.18,143.7 C 148.16,143.74 148.13,143.79 148.11,143.83 C 148.06,143.92 148.02,144.01 147.97,144.1 C 147.89,144.27 147.81,144.45 147.74,144.63 C 147.58,145.01 147.44,145.39 147.33,145.79 C 147.27,145.98 147.22,146.18 147.18,146.39 C 147.15,146.58 147.1,146.77 147.02,146.96 C 146.7,147.67 146.32,148.33 145.95,149.01 C 145.76,149.36 145.57,149.71 145.39,150.07 C 145.38,150.09 145.43,150.11 145.44,150.12 C 145.46,150.13 145.48,150.15 145.5,150.16 C 145.54,150.19 145.58,150.22 145.62,150.25 C 145.7,150.31 145.79,150.36 145.87,150.42 C 146.03,150.54 146.19,150.65 146.36,150.77 C 147.0,151.21 147.65,151.66 148.31,152.09 C 149.63,152.96 150.97,153.8 152.34,154.61 z M 148.46,143.63 C 148.43,143.63 148.41,143.63 148.39,143.64 C 148.32,143.98 148.28,144.32 148.27,144.67 C 148.25,145.22 148.3,145.79 148.42,146.33 C 148.45,146.46 148.49,146.58 148.52,146.71 C 148.87,147.88 149.6,148.95 150.64,149.62 C 150.71,149.67 150.79,149.72 150.87,149.77 C 151.86,150.33 153.04,150.52 154.16,150.38 C 154.29,150.36 154.42,150.34 154.54,150.32 C 155.09,150.21 155.62,150.03 156.12,149.78 C 156.43,149.63 156.74,149.46 157.02,149.26 C 157.01,149.24 157.01,149.22 157.0,149.19 C 156.67,149.37 156.32,149.5 155.97,149.59 C 155.42,149.74 154.83,149.81 154.26,149.81 C 154.06,149.81 153.86,149.8 153.66,149.78 C 152.85,149.71 152.04,149.48 151.32,149.07 C 151.24,149.03 151.17,148.98 151.09,148.93 C 150.32,148.43 149.71,147.72 149.27,146.92 C 149.17,146.74 149.08,146.56 149.0,146.38 C 148.77,145.86 148.6,145.3 148.51,144.73 C 148.46,144.37 148.43,144.0 148.46,143.63 z M 144.67,151.37 C 145.07,153.04 145.51,154.69 146.0,156.33 C 146.01,156.38 146.02,156.43 146.04,156.48 C 146.05,156.5 146.05,156.53 146.06,156.55 C 146.06,156.57 146.07,156.62 146.09,156.61 C 146.2,156.6 146.3,156.59 146.4,156.57 C 146.61,156.55 146.82,156.52 147.03,156.49 C 147.46,156.43 147.89,156.37 148.33,156.3 C 149.17,156.18 150.02,156.04 150.86,155.89 C 150.97,155.87 151.08,155.85 151.2,155.83 C 151.25,155.82 151.31,155.81 151.37,155.8 C 151.38,155.8 151.4,155.8 151.41,155.79 C 151.42,155.79 151.46,155.79 151.44,155.78 C 151.42,155.77 151.39,155.76 151.37,155.74 C 151.19,155.64 151.01,155.53 150.83,155.42 C 150.66,155.32 150.48,155.21 150.3,155.1 C 150.21,155.05 150.13,154.99 150.04,154.94 C 150.02,154.93 149.99,154.91 149.97,154.9 C 149.95,154.88 149.92,154.89 149.89,154.9 C 149.84,154.9 149.78,154.91 149.73,154.92 C 148.88,155.06 148.04,155.2 147.19,155.32 C 147.14,155.33 147.09,155.33 147.04,155.34 C 147.01,155.34 146.99,155.35 146.96,155.35 C 146.95,155.35 146.9,155.37 146.89,155.35 C 146.87,155.25 146.84,155.15 146.81,155.05 C 146.75,154.84 146.7,154.64 146.64,154.44 C 146.53,154.02 146.41,153.59 146.3,153.17 C 146.25,152.96 146.19,152.74 146.14,152.52 C 146.13,152.49 146.12,152.46 146.11,152.44 C 146.11,152.41 146.11,152.38 146.08,152.36 C 146.04,152.34 146.0,152.31 145.95,152.28 C 145.87,152.22 145.78,152.16 145.7,152.1 C 145.35,151.86 145.01,151.62 144.67,151.37 z M 157.83,162.35 C 157.48,162.44 157.12,162.53 156.76,162.6 C 156.75,162.61 156.74,162.61 156.73,162.61 C 156.72,162.61 156.71,162.61 156.71,162.61 C 156.7,162.62 156.68,162.62 156.69,162.62 C 156.7,162.61 156.72,162.61 156.73,162.6 C 156.75,162.59 156.78,162.58 156.8,162.57 C 156.85,162.54 156.9,162.52 156.95,162.49 C 157.04,162.45 157.13,162.39 157.23,162.34 C 157.59,162.13 157.93,161.89 158.24,161.6 C 158.56,161.31 158.82,160.99 159.06,160.63 C 159.18,160.45 159.28,160.26 159.38,160.07 C 159.4,160.02 159.43,159.97 159.45,159.92 C 159.46,159.89 159.47,159.86 159.49,159.84 C 159.49,159.83 159.5,159.81 159.5,159.8 C 159.51,159.79 159.51,159.79 159.51,159.78 C 159.52,159.76 159.49,159.79 159.48,159.79 C 159.3,159.84 159.11,159.89 158.92,159.94 C 157.42,160.35 155.9,160.63 154.36,160.81 C 153.97,160.86 153.59,160.9 153.2,160.94 C 153.01,160.95 152.82,160.97 152.63,160.98 C 152.53,160.99 152.43,161.0 152.34,161.0 C 152.29,161.01 152.24,161.01 152.19,161.01 C 152.18,161.01 152.19,161.0 152.19,160.99 C 152.2,160.99 152.2,160.98 152.2,160.98 C 152.2,160.96 152.2,160.95 152.2,160.94 C 152.28,160.52 152.33,160.1 152.35,159.67 C 152.42,158.61 152.38,157.56 152.27,156.51 C 152.26,156.43 152.25,156.36 152.24,156.28 C 152.24,156.27 152.24,156.26 152.24,156.25 C 152.24,156.23 152.22,156.25 152.21,156.25 C 152.18,156.26 152.16,156.26 152.14,156.27 C 152.09,156.27 152.05,156.28 152.0,156.29 C 151.81,156.33 151.63,156.36 151.45,156.39 C 151.08,156.46 150.72,156.52 150.36,156.58 C 149.66,156.7 148.96,156.81 148.27,156.91 C 147.61,157.01 146.96,157.1 146.31,157.18 C 146.15,157.2 145.99,157.22 145.84,157.24 C 145.8,157.24 145.76,157.25 145.72,157.25 C 145.7,157.26 145.68,157.26 145.66,157.26 C 145.65,157.26 145.65,157.22 145.64,157.21 C 145.62,157.14 145.6,157.06 145.58,156.99 C 145.48,156.68 145.39,156.38 145.3,156.07 C 144.92,154.73 144.56,153.39 144.22,152.04 C 144.17,151.84 144.12,151.64 144.07,151.44 C 144.05,151.34 144.02,151.24 144.0,151.13 C 143.99,151.08 143.98,151.03 143.96,150.98 C 143.96,150.96 143.95,150.93 143.95,150.91 C 143.94,150.89 143.94,150.88 143.94,150.87 C 143.94,150.86 143.93,150.85 143.93,150.85 C 143.93,150.84 143.93,150.83 143.92,150.84 C 143.61,150.93 143.3,151.04 143.0,151.15 C 142.44,151.34 141.9,151.56 141.37,151.81 C 140.91,152.02 140.46,152.25 140.03,152.52 C 139.94,152.57 139.84,152.63 139.75,152.7 C 139.7,152.73 139.65,152.76 139.61,152.79 C 139.6,152.79 139.6,152.8 139.59,152.8 C 139.58,152.81 139.58,152.78 139.58,152.77 C 139.57,152.74 139.56,152.72 139.55,152.69 C 139.53,152.64 139.51,152.59 139.5,152.54 C 139.35,152.14 139.21,151.74 139.08,151.33 C 138.55,149.69 138.14,148.04 137.87,146.34 C 137.83,146.13 137.8,145.92 137.77,145.71 C 137.77,145.68 137.77,145.65 137.76,145.63 C 137.76,145.62 137.77,145.6 137.76,145.61 C 137.76,145.61 137.75,145.61 137.75,145.62 C 137.75,145.62 137.74,145.63 137.74,145.63 C 137.71,145.66 137.69,145.68 137.67,145.7 C 137.63,145.75 137.59,145.79 137.55,145.84 C 137.4,146.03 137.25,146.22 137.13,146.42 C 136.87,146.82 136.69,147.24 136.55,147.69 C 136.41,148.15 136.34,148.6 136.31,149.07 C 136.31,149.13 136.31,149.19 136.3,149.25 C 136.3,149.26 136.3,149.28 136.3,149.29 C 136.3,149.3 136.3,149.34 136.3,149.32 C 136.29,149.27 136.28,149.22 136.27,149.17 C 136.23,148.98 136.19,148.78 136.15,148.58 C 136.08,148.16 136.04,147.74 136.0,147.32 C 135.99,147.1 135.97,146.89 135.96,146.67 C 135.96,146.64 135.96,146.62 135.95,146.59 C 135.95,146.58 135.95,146.56 135.95,146.55 C 135.95,146.54 135.95,146.56 135.95,146.57 C 135.95,146.57 135.95,146.58 135.96,146.58 C 135.96,146.63 135.97,146.68 135.97,146.73 C 135.98,146.83 135.99,146.93 136.0,147.03 C 136.05,147.43 136.11,147.83 136.18,148.23 C 136.19,148.24 136.19,148.22 136.19,148.21 C 136.19,148.2 136.19,148.2 136.19,148.19 C 136.19,148.17 136.19,148.16 136.19,148.14 C 136.2,148.11 136.2,148.09 136.2,148.06 C 136.21,148.0 136.21,147.94 136.22,147.88 C 136.24,147.77 136.26,147.65 136.28,147.54 C 136.32,147.31 136.38,147.08 136.46,146.86 C 136.61,146.41 136.81,146.0 137.08,145.61 C 137.15,145.51 137.22,145.41 137.29,145.31 C 137.31,145.29 137.33,145.27 137.35,145.24 C 137.36,145.23 137.37,145.22 137.38,145.21 C 137.39,145.19 137.37,145.19 137.36,145.18 C 137.33,145.13 137.29,145.09 137.25,145.05 C 137.12,144.89 136.98,144.73 136.86,144.57 C 136.84,144.55 136.83,144.53 136.81,144.51 C 136.81,144.51 136.81,144.5 136.8,144.5 C 136.79,144.49 136.79,144.51 136.79,144.51 C 136.78,144.52 136.77,144.54 136.77,144.55 C 136.73,144.6 136.7,144.65 136.68,144.7 C 136.62,144.8 136.56,144.91 136.51,145.01 C 136.41,145.22 136.32,145.44 136.25,145.66 C 136.21,145.77 136.18,145.88 136.15,145.99 C 136.14,146.05 136.12,146.11 136.11,146.16 C 136.11,146.18 136.1,146.19 136.1,146.21 C 136.1,146.23 136.1,146.19 136.1,146.18 C 136.1,146.17 136.09,146.15 136.09,146.14 C 136.09,146.09 136.08,146.04 136.08,145.99 C 136.04,145.6 136.01,145.2 135.99,144.8 C 135.96,143.77 136.0,143.21 136.16,142.2 C 136.2,141.97 136.24,141.75 136.29,141.52 C 136.29,141.49 136.3,141.46 136.3,141.44 C 136.31,141.42 136.31,141.33 136.32,141.37 C 136.32,141.38 136.32,141.4 136.32,141.41 C 136.33,141.43 136.34,141.46 136.34,141.48 C 136.37,141.6 136.42,141.71 136.47,141.82 C 136.6,142.12 136.78,142.39 136.97,142.66 C 137.1,142.83 137.22,143.0 137.36,143.16 C 137.43,143.25 137.51,143.34 137.59,143.43 C 137.63,143.48 137.67,143.52 137.71,143.57 C 137.73,143.59 137.73,143.54 137.73,143.53 C 137.74,143.5 137.75,143.48 137.76,143.45 C 137.77,143.4 137.79,143.35 137.8,143.29 C 138.05,142.46 138.34,141.65 138.75,140.87 C 138.95,140.49 139.15,140.13 139.45,139.82 C 139.74,139.52 140.02,139.21 140.31,138.91 C 140.62,138.59 140.93,138.28 141.24,137.98 C 141.26,137.96 141.28,137.94 141.3,137.92 C 141.31,137.91 141.32,137.9 141.33,137.89 C 141.34,137.88 141.36,137.88 141.36,137.86 C 141.36,137.83 141.37,137.81 141.37,137.79 C 141.37,137.78 141.37,137.76 141.38,137.75 C 141.38,137.73 141.36,137.76 141.35,137.77 C 141.26,137.83 141.18,137.9 141.09,137.96 C 140.93,138.09 140.76,138.22 140.59,138.35 C 140.05,138.77 139.41,139.3 138.82,139.65 C 137.95,140.17 137.12,140.3 137.22,139.08 C 137.24,138.78 137.31,138.49 137.4,138.21 C 137.51,137.85 137.64,137.5 137.82,137.17 C 137.93,136.97 138.04,136.77 138.16,136.58 C 138.22,136.48 138.28,136.38 138.35,136.29 C 138.36,136.26 138.38,136.23 138.4,136.21 C 138.41,136.19 138.42,136.18 138.43,136.17 C 138.43,136.16 138.45,136.13 138.44,136.14 C 138.42,136.19 138.39,136.23 138.37,136.27 C 138.2,136.57 138.04,136.88 137.92,137.21 C 137.63,137.98 137.41,139.16 138.55,139.02 C 139.1,138.96 139.68,138.66 140.14,138.42 C 140.48,138.24 140.81,138.05 141.13,137.85 C 141.18,137.83 141.22,137.8 141.27,137.77 C 141.29,137.76 141.31,137.75 141.33,137.73 C 141.35,137.72 141.38,137.72 141.39,137.69 C 141.39,137.67 141.39,137.66 141.39,137.65 C 141.4,137.63 141.38,137.65 141.37,137.66 C 141.34,137.67 141.32,137.68 141.3,137.69 C 141.26,137.71 141.21,137.73 141.17,137.75 C 141.0,137.83 140.83,137.9 140.66,137.96 C 140.17,138.15 138.52,138.73 138.17,137.95 C 137.99,137.56 138.15,137.04 138.28,136.69 C 138.38,136.4 138.52,136.13 138.67,135.86 C 138.77,135.7 138.87,135.54 138.99,135.39 C 139.07,135.29 139.14,135.19 139.22,135.1 C 139.26,135.05 139.3,135.0 139.34,134.96 C 139.35,134.94 139.4,134.89 139.38,134.92 C 139.37,134.93 139.36,134.95 139.35,134.96 C 139.04,135.41 138.8,135.85 138.67,136.39 C 138.6,136.7 138.53,137.16 138.87,137.39 C 139.17,137.61 139.72,137.6 140.04,137.6 C 140.32,137.6 140.59,137.58 140.86,137.56 C 141.02,137.54 141.17,137.52 141.33,137.49 C 141.35,137.49 141.37,137.49 141.39,137.48 C 141.4,137.48 141.41,137.48 141.42,137.48 C 141.43,137.48 141.43,137.47 141.43,137.46 C 141.43,137.46 141.43,137.45 141.43,137.45 C 141.44,137.4 141.45,137.36 141.46,137.31 C 141.47,137.22 141.49,137.13 141.51,137.04 C 141.66,136.32 141.84,135.58 142.37,134.99 C 142.64,134.69 143.02,134.43 143.42,134.33 C 143.68,134.26 144.03,134.28 144.1,134.61 C 144.17,134.92 143.94,135.31 143.78,135.53 C 143.72,135.62 143.65,135.7 143.58,135.78 C 143.57,135.79 143.56,135.8 143.55,135.81 C 143.54,135.82 143.57,135.8 143.58,135.8 C 143.6,135.78 143.63,135.77 143.65,135.75 C 143.7,135.73 143.75,135.7 143.8,135.68 C 143.98,135.59 144.18,135.52 144.38,135.49 C 144.68,135.44 145.09,135.47 145.27,135.78 C 145.46,136.1 145.24,136.51 145.05,136.75 C 144.52,137.42 143.57,137.59 142.84,137.7 C 142.66,137.73 142.48,137.75 142.3,137.78 C 142.21,137.8 142.12,137.81 142.04,137.83 C 141.99,137.84 141.95,137.85 141.9,137.85 C 141.88,137.86 141.86,137.86 141.84,137.87 C 141.83,137.87 141.82,137.87 141.81,137.87 C 141.79,137.88 141.8,137.89 141.8,137.9 C 141.77,138.27 141.78,138.63 141.82,138.99 C 141.91,139.66 142.14,140.44 142.47,141.04 C 142.86,141.73 143.33,142.18 144.06,142.49 C 144.99,142.9 146.43,143.11 147.43,143.11 C 147.58,143.11 147.74,143.11 147.89,143.1 C 147.91,143.1 147.93,143.09 147.95,143.09 C 147.96,143.09 147.95,143.08 147.95,143.07 C 147.95,143.06 147.95,143.05 147.95,143.04 C 147.94,143.0 147.93,142.97 147.93,142.93 C 147.92,142.85 147.9,142.77 147.89,142.7 C 147.84,142.4 147.78,142.1 147.73,141.79 C 147.66,141.26 147.6,140.54 147.88,140.02 C 148.15,139.49 148.84,139.13 149.43,139.35 C 150.03,139.57 150.24,140.2 150.12,140.78 C 150.09,140.94 150.04,141.08 149.97,141.21 C 149.96,141.22 149.96,141.23 149.95,141.24 C 149.95,141.26 149.97,141.23 149.98,141.22 C 149.99,141.21 150.01,141.2 150.02,141.19 C 150.06,141.16 150.09,141.14 150.12,141.12 C 150.19,141.08 150.26,141.04 150.33,141.01 C 150.63,140.87 150.92,140.81 151.26,140.85 C 151.89,140.93 152.4,141.42 152.29,142.09 C 152.19,142.8 151.6,143.12 151.01,143.28 C 150.39,143.46 149.75,143.48 149.12,143.55 C 149.04,143.56 148.96,143.57 148.88,143.58 C 148.84,143.58 148.81,143.59 148.77,143.59 C 148.75,143.59 148.73,143.59 148.71,143.6 C 148.7,143.6 148.69,143.6 148.68,143.6 C 148.67,143.6 148.65,143.59 148.65,143.61 C 148.69,143.76 148.74,143.91 148.78,144.06 C 148.88,144.36 149.0,144.65 149.13,144.94 C 149.39,145.52 149.7,146.06 150.07,146.59 C 150.86,147.72 151.74,148.42 153.09,148.79 C 154.2,149.09 155.71,149.2 156.85,149.02 C 156.87,149.02 156.89,149.01 156.92,149.01 C 156.92,149.01 156.93,149.01 156.93,149.01 C 156.94,149.01 156.95,149.01 156.94,149.0 C 156.94,148.99 156.94,148.98 156.93,148.97 C 156.92,148.93 156.91,148.89 156.9,148.85 C 156.87,148.77 156.85,148.69 156.82,148.61 C 156.77,148.45 156.72,148.28 156.66,148.12 C 156.55,147.8 156.45,147.48 156.37,147.14 C 156.23,146.55 156.12,145.75 156.64,145.23 C 157.17,144.71 157.9,144.81 158.33,145.39 C 158.53,145.66 158.63,146.01 158.64,146.34 C 158.64,146.52 158.63,146.68 158.58,146.85 C 158.58,146.87 158.6,146.83 158.61,146.82 C 158.62,146.81 158.64,146.79 158.65,146.77 C 158.68,146.74 158.71,146.71 158.74,146.69 C 158.8,146.63 158.86,146.58 158.92,146.53 C 159.44,146.15 160.18,146.11 160.61,146.67 C 160.81,146.93 160.86,147.29 160.82,147.6 C 160.77,147.96 160.63,148.21 160.36,148.45 C 159.89,148.87 159.16,149.07 158.59,149.21 C 158.43,149.25 158.27,149.29 158.11,149.33 C 158.03,149.35 157.95,149.37 157.87,149.39 C 157.83,149.4 157.79,149.41 157.75,149.42 C 157.74,149.42 157.73,149.43 157.72,149.43 C 157.71,149.43 157.69,149.42 157.69,149.44 C 157.7,149.46 157.71,149.48 157.72,149.5 C 157.83,149.81 157.97,150.1 158.12,150.4 C 158.59,151.31 159.42,152.6 160.36,153.17 C 161.32,153.77 162.58,153.71 163.6,153.47 C 163.87,153.41 164.13,153.33 164.39,153.23 C 164.52,153.18 164.64,153.12 164.77,153.06 C 164.8,153.04 164.83,153.02 164.86,153.01 C 164.88,153.0 164.89,152.99 164.91,152.98 C 164.92,152.98 164.95,152.97 164.95,152.96 C 164.94,152.89 164.92,152.82 164.91,152.76 C 164.78,152.2 164.59,151.66 164.5,151.09 C 164.4,150.46 164.41,149.78 164.86,149.24 C 165.27,148.75 165.78,148.86 166.03,149.44 C 166.11,149.64 166.15,149.84 166.16,150.06 C 166.16,150.18 166.16,150.3 166.15,150.41 C 166.14,150.44 166.14,150.47 166.13,150.5 C 166.13,150.51 166.13,150.52 166.13,150.52 C 166.13,150.53 166.14,150.51 166.14,150.51 C 166.14,150.5 166.15,150.48 166.16,150.47 C 166.18,150.42 166.2,150.37 166.23,150.31 C 166.37,150.04 166.64,149.62 166.99,149.54 C 167.36,149.45 167.51,149.81 167.55,150.1 C 167.61,150.55 167.5,151.02 167.29,151.41 C 166.9,152.15 166.22,152.62 165.58,153.07 C 165.56,153.08 165.54,153.09 165.52,153.11 C 165.51,153.11 165.47,153.14 165.47,153.15 C 165.48,153.2 165.49,153.24 165.5,153.28 C 165.53,153.37 165.55,153.45 165.57,153.53 C 165.62,153.68 165.67,153.83 165.72,153.98 C 165.82,154.24 165.93,154.49 166.05,154.74 C 166.19,155.01 166.43,155.51 166.83,155.53 C 167.27,155.55 167.73,155.12 167.98,154.86 C 168.19,154.64 168.36,154.41 168.52,154.16 C 168.54,154.13 168.57,154.1 168.59,154.06 C 168.6,154.05 168.61,154.03 168.62,154.01 C 168.62,154.0 168.63,153.99 168.63,153.99 C 168.64,153.98 168.64,153.98 168.64,153.97 C 168.64,153.97 168.64,153.97 168.65,153.97 C 168.65,153.96 168.64,153.97 168.64,153.98 C 168.59,154.08 168.54,154.19 168.48,154.3 C 168.38,154.5 168.28,154.69 168.15,154.87 C 167.83,155.34 167.4,155.87 166.88,156.15 C 165.81,156.74 165.52,155.57 165.4,154.7 C 165.35,154.35 165.32,153.99 165.32,153.64 C 165.32,153.53 165.32,153.43 165.33,153.33 C 165.33,153.31 165.33,153.28 165.33,153.25 C 165.33,153.25 165.34,153.23 165.33,153.24 C 165.32,153.24 165.32,153.24 165.31,153.25 C 165.31,153.25 165.3,153.26 165.3,153.26 C 165.29,153.26 165.28,153.26 165.28,153.27 C 165.27,153.32 165.27,153.38 165.26,153.43 C 165.23,153.64 165.2,153.85 165.18,154.06 C 165.12,154.68 165.05,155.45 165.15,156.08 C 165.34,157.35 166.16,157.11 166.97,156.39 C 167.24,156.15 167.47,155.89 167.69,155.61 C 167.75,155.53 167.81,155.46 167.86,155.38 C 167.87,155.37 167.88,155.36 167.88,155.34 C 167.89,155.34 167.89,155.33 167.9,155.33 C 167.9,155.32 167.89,155.34 167.89,155.34 C 167.87,155.37 167.86,155.39 167.84,155.42 C 167.81,155.47 167.77,155.52 167.74,155.57 C 167.6,155.78 167.46,155.97 167.32,156.17 C 166.91,156.71 166.33,157.29 165.72,157.62 C 164.64,158.22 164.41,157.45 164.53,156.43 C 164.61,155.74 164.84,154.95 165.0,154.29 C 165.05,154.09 165.1,153.88 165.15,153.68 C 165.18,153.58 165.2,153.47 165.22,153.37 C 165.23,153.36 165.23,153.34 165.23,153.33 C 165.24,153.32 165.26,153.28 165.24,153.3 C 165.22,153.31 165.2,153.32 165.18,153.33 C 165.17,153.34 165.16,153.35 165.15,153.35 C 165.13,153.36 165.14,153.38 165.13,153.39 C 165.12,153.42 165.11,153.44 165.1,153.47 C 164.95,153.88 164.79,154.29 164.63,154.69 C 164.47,155.08 164.3,155.47 164.14,155.85 C 164.07,156.04 163.98,156.22 163.87,156.39 C 163.75,156.57 163.61,156.75 163.48,156.92 C 162.93,157.61 162.32,158.21 161.65,158.77 C 161.57,158.84 161.49,158.91 161.4,158.98 C 161.4,158.99 161.38,159.0 161.39,159.0 C 161.4,159.0 161.41,159.01 161.41,159.01 C 161.43,159.01 161.44,159.02 161.46,159.02 C 161.49,159.03 161.52,159.04 161.55,159.05 C 161.66,159.08 161.77,159.12 161.89,159.15 C 162.09,159.21 162.3,159.26 162.5,159.3 C 162.83,159.37 163.15,159.43 163.48,159.43 C 163.6,159.43 163.72,159.43 163.84,159.41 C 163.87,159.41 163.89,159.4 163.92,159.4 C 163.93,159.4 163.94,159.39 163.96,159.39 C 164.0,159.38 163.92,159.42 163.9,159.44 C 163.71,159.57 163.52,159.7 163.33,159.83 C 162.47,160.39 161.98,160.66 161.02,161.04 C 160.63,161.2 160.23,161.35 159.83,161.48 C 159.78,161.49 159.73,161.51 159.68,161.52 C 159.67,161.53 159.65,161.53 159.64,161.54 C 159.64,161.54 159.63,161.54 159.64,161.54 C 159.64,161.53 159.64,161.53 159.64,161.53 C 159.66,161.52 159.67,161.51 159.68,161.5 C 159.73,161.47 159.78,161.43 159.83,161.39 C 159.93,161.31 160.02,161.23 160.11,161.15 C 160.29,160.98 160.46,160.8 160.62,160.61 C 160.7,160.51 160.77,160.42 160.85,160.31 C 160.86,160.29 160.88,160.26 160.9,160.24 C 160.91,160.23 160.92,160.21 160.9,160.21 C 160.89,160.2 160.88,160.2 160.87,160.2 C 160.82,160.18 160.77,160.17 160.72,160.16 C 160.5,160.1 160.28,160.04 160.07,159.97 C 160.05,159.96 160.04,159.95 160.03,159.97 C 160.02,159.98 160.02,160.0 160.01,160.01 C 159.99,160.04 159.98,160.07 159.96,160.1 C 159.93,160.15 159.9,160.21 159.87,160.27 C 159.81,160.38 159.74,160.48 159.67,160.59 C 159.38,161.0 159.05,161.36 158.66,161.67 C 158.47,161.83 158.27,161.97 158.06,162.1 C 158.0,162.13 157.95,162.17 157.9,162.2 C 157.87,162.21 157.84,162.23 157.82,162.24 C 157.8,162.25 157.79,162.26 157.77,162.27 C 157.77,162.27 157.76,162.27 157.75,162.28 C 157.74,162.28 157.77,162.27 157.78,162.27 C 157.98,162.22 158.19,162.17 158.4,162.11 C 158.61,162.05 158.81,161.99 159.02,161.93 C 159.12,161.9 159.22,161.87 159.32,161.83 C 159.33,161.83 159.34,161.83 159.36,161.82 C 159.36,161.82 159.37,161.82 159.38,161.82 C 159.38,161.81 159.38,161.81 159.38,161.81 C 159.39,161.81 159.38,161.81 159.37,161.82 C 159.35,161.83 159.32,161.84 159.29,161.85 C 159.24,161.87 159.19,161.89 159.13,161.91 C 158.7,162.06 158.27,162.21 157.83,162.35 z M 143.32,156.62 C 143.16,156.06 143.0,155.5 142.85,154.94 C 142.81,154.8 142.77,154.65 142.73,154.51 C 142.71,154.43 142.69,154.36 142.67,154.28 C 142.66,154.27 142.66,154.25 142.65,154.23 C 142.65,154.22 142.65,154.21 142.64,154.21 C 142.63,154.22 142.63,154.22 142.62,154.22 C 142.6,154.23 142.57,154.25 142.55,154.26 C 142.28,154.38 142.02,154.5 141.76,154.64 C 141.63,154.7 141.51,154.77 141.38,154.84 C 141.32,154.88 141.26,154.91 141.2,154.95 C 141.18,154.96 141.17,154.97 141.15,154.97 C 141.14,154.98 141.1,154.99 141.12,155.0 C 141.15,155.03 141.18,155.05 141.22,155.08 C 141.45,155.25 141.68,155.43 141.91,155.6 C 142.38,155.95 142.85,156.29 143.32,156.62 z M 138.24,152.56 C 138.08,152.08 137.93,151.58 137.78,151.09 C 137.71,150.84 137.64,150.59 137.58,150.34 C 137.54,150.19 137.5,150.04 137.46,149.88 C 137.45,149.86 137.45,149.84 137.44,149.82 C 137.44,149.82 137.44,149.81 137.44,149.81 C 137.44,149.81 137.44,149.79 137.44,149.8 C 137.43,149.8 137.43,149.81 137.43,149.81 C 137.42,149.83 137.41,149.85 137.41,149.87 C 137.39,149.91 137.38,149.95 137.36,149.99 C 137.27,150.23 137.2,150.48 137.15,150.73 C 137.11,150.87 137.09,151.01 137.07,151.16 C 137.06,151.19 137.06,151.23 137.05,151.26 C 137.05,151.28 137.04,151.29 137.05,151.31 C 137.06,151.32 137.07,151.33 137.08,151.34 C 137.11,151.38 137.14,151.41 137.17,151.45 C 137.51,151.84 137.87,152.21 138.24,152.56 z M 154.59,162.73 C 155.04,162.46 155.44,162.15 155.8,161.78 C 155.83,161.75 155.76,161.78 155.74,161.78 C 155.71,161.78 155.68,161.79 155.64,161.8 C 155.58,161.81 155.52,161.82 155.45,161.83 C 155.32,161.85 155.19,161.87 155.06,161.89 C 154.81,161.93 154.55,161.96 154.3,162.0 C 154.04,162.03 153.79,162.06 153.53,162.09 C 153.37,162.11 153.21,162.12 153.05,162.14 C 153.03,162.14 153.0,162.14 152.98,162.15 C 152.97,162.15 152.96,162.15 152.95,162.15 C 152.95,162.15 152.96,162.15 152.97,162.15 C 152.99,162.16 153.0,162.17 153.02,162.18 C 153.06,162.19 153.1,162.21 153.13,162.22 C 153.61,162.42 154.09,162.59 154.59,162.73 z M 149.57,160.51 C 149.6,160.22 149.63,159.93 149.64,159.64 C 149.65,159.5 149.66,159.35 149.66,159.21 C 149.66,159.14 149.66,159.07 149.66,158.99 C 149.67,158.96 149.67,158.92 149.67,158.88 C 149.67,158.86 149.67,158.85 149.67,158.83 C 149.67,158.81 149.68,158.78 149.65,158.79 C 149.08,158.88 148.5,158.96 147.93,159.04 C 147.77,159.06 147.62,159.08 147.47,159.1 C 147.4,159.11 147.32,159.12 147.25,159.13 C 147.23,159.13 147.21,159.14 147.19,159.14 C 147.18,159.14 147.2,159.15 147.21,159.15 C 147.21,159.15 147.22,159.16 147.23,159.16 C 147.25,159.18 147.28,159.19 147.3,159.21 C 147.55,159.36 147.8,159.5 148.05,159.65 C 148.55,159.94 149.06,160.23 149.57,160.51 z M 136.42,150.39 C 136.48,150.5 136.54,150.61 136.61,150.71 C 136.62,150.73 136.63,150.74 136.63,150.76 C 136.64,150.76 136.64,150.76 136.64,150.77 C 136.65,150.77 136.65,150.76 136.65,150.75 C 136.65,150.74 136.65,150.72 136.65,150.7 C 136.65,150.63 136.65,150.57 136.66,150.5 C 136.67,150.36 136.68,150.23 136.69,150.09 C 136.76,149.55 136.89,149.04 137.11,148.54 C 137.16,148.41 137.22,148.29 137.28,148.17 C 137.31,148.11 137.35,148.05 137.38,147.99 C 137.4,147.96 137.42,147.93 137.43,147.9 C 137.44,147.89 137.45,147.87 137.46,147.86 C 137.46,147.85 137.47,147.84 137.47,147.84 C 137.48,147.83 137.48,147.84 137.48,147.85 C 137.48,147.85 137.48,147.86 137.48,147.87 C 137.58,148.36 137.69,148.84 137.81,149.33 C 138.05,150.29 138.33,151.24 138.64,152.19 C 138.72,152.41 138.79,152.64 138.87,152.86 C 138.91,152.98 138.95,153.09 138.99,153.2 C 139.02,153.26 139.01,153.27 139.06,153.31 C 139.09,153.34 139.11,153.36 139.14,153.38 C 139.35,153.56 139.56,153.74 139.77,153.92 C 139.88,154.01 139.99,154.1 140.1,154.2 C 140.12,154.21 140.17,154.17 140.18,154.16 C 140.21,154.14 140.23,154.12 140.26,154.11 C 140.31,154.07 140.36,154.04 140.42,154.01 C 140.64,153.86 140.87,153.73 141.11,153.6 C 141.64,153.32 142.19,153.06 142.75,152.84 C 142.83,152.81 142.9,152.77 142.98,152.74 C 143.02,152.73 143.06,152.71 143.1,152.7 C 143.12,152.69 143.14,152.68 143.16,152.68 C 143.17,152.67 143.18,152.66 143.18,152.68 C 143.19,152.69 143.19,152.7 143.19,152.72 C 143.25,152.93 143.3,153.15 143.36,153.36 C 143.47,153.78 143.58,154.2 143.7,154.62 C 143.89,155.33 144.09,156.03 144.29,156.73 C 144.34,156.89 144.39,157.06 144.44,157.23 C 144.46,157.27 144.47,157.31 144.48,157.35 C 144.49,157.37 144.49,157.39 144.5,157.41 C 144.5,157.43 144.52,157.44 144.53,157.45 C 144.59,157.49 144.64,157.52 144.7,157.56 C 144.92,157.71 145.14,157.85 145.36,158.0 C 145.47,158.07 145.59,158.14 145.7,158.21 C 145.75,158.25 145.81,158.28 145.87,158.32 C 145.9,158.34 145.92,158.36 145.95,158.37 C 145.99,158.4 146.03,158.38 146.07,158.37 C 146.42,158.33 146.76,158.29 147.11,158.24 C 147.84,158.14 148.58,158.04 149.31,157.93 C 149.74,157.86 150.17,157.79 150.6,157.72 C 150.66,157.71 150.71,157.7 150.77,157.69 C 150.79,157.68 150.82,157.68 150.85,157.68 C 150.88,157.67 150.87,157.71 150.87,157.73 C 150.87,157.81 150.87,157.89 150.88,157.98 C 150.88,158.14 150.89,158.3 150.89,158.46 C 150.9,159.05 150.88,159.63 150.82,160.22 C 150.79,160.47 150.76,160.73 150.72,160.98 C 150.71,161.01 150.71,161.04 150.7,161.07 C 150.7,161.08 150.7,161.09 150.7,161.09 C 150.7,161.11 150.71,161.11 150.72,161.11 C 150.73,161.12 150.75,161.13 150.77,161.13 C 150.83,161.17 150.89,161.2 150.96,161.23 C 151.08,161.29 151.21,161.36 151.34,161.42 C 151.46,161.48 151.59,161.54 151.71,161.6 C 151.77,161.62 151.83,161.65 151.89,161.68 C 151.91,161.69 151.92,161.7 151.94,161.7 C 151.95,161.71 151.96,161.72 151.98,161.72 C 152.04,161.72 152.1,161.72 152.16,161.71 C 152.63,161.68 153.11,161.64 153.58,161.59 C 154.57,161.48 155.55,161.34 156.53,161.16 C 156.77,161.11 157.02,161.06 157.26,161.01 C 157.32,161.0 157.38,160.98 157.44,160.97 C 157.47,160.96 157.5,160.96 157.53,160.95 C 157.55,160.95 157.56,160.94 157.58,160.94 C 157.58,160.94 157.59,160.94 157.59,160.94 C 157.59,160.95 157.58,160.95 157.58,160.95 C 157.54,161.01 157.5,161.07 157.46,161.12 C 157.3,161.34 157.12,161.54 156.93,161.73 C 156.54,162.11 156.11,162.42 155.63,162.69 C 155.51,162.75 155.39,162.81 155.27,162.87 C 155.26,162.88 155.25,162.88 155.24,162.88 C 155.24,162.89 155.25,162.89 155.25,162.89 C 155.26,162.89 155.27,162.89 155.28,162.89 C 155.29,162.89 155.31,162.9 155.33,162.9 C 155.36,162.9 155.39,162.91 155.43,162.91 C 155.49,162.92 155.55,162.93 155.61,162.93 C 155.62,162.93 155.64,162.93 155.65,162.94 C 155.66,162.94 155.66,162.94 155.67,162.94 C 155.68,162.94 155.66,162.94 155.65,162.94 C 155.64,162.95 155.62,162.95 155.61,162.95 C 155.49,162.98 155.37,163.01 155.24,163.04 C 154.9,163.12 154.56,163.19 154.22,163.26 C 154.05,163.29 153.88,163.33 153.7,163.36 C 153.61,163.38 153.52,163.41 153.42,163.4 C 153.24,163.38 153.07,163.34 152.9,163.3 C 152.43,163.19 151.97,163.03 151.52,162.85 C 150.21,162.33 148.97,161.69 147.75,161.01 C 145.5,159.75 143.08,158.16 141.03,156.6 C 139.97,155.78 138.95,154.94 138.01,153.98 C 137.69,153.66 137.39,153.33 137.12,152.96 C 137.07,152.89 137.02,152.82 136.98,152.75 C 136.96,152.72 136.94,152.68 136.92,152.65 C 136.87,152.57 136.86,152.49 136.84,152.4 C 136.69,151.74 136.54,151.07 136.42,150.39 z M 166.45,136.46 C 166.58,136.85 166.24,136.88 165.93,136.83 C 165.61,136.79 165.31,136.69 165.0,136.58 C 164.55,136.41 164.12,136.21 163.69,136.0 C 162.72,135.52 161.8,134.98 160.89,134.39 C 159.98,133.81 159.1,133.19 158.25,132.52 C 157.71,132.09 157.18,131.65 156.7,131.15 C 156.54,130.97 156.39,130.8 156.25,130.61 C 156.16,130.48 156.08,130.36 156.03,130.21 C 156.0,130.1 155.98,129.97 156.1,129.89 C 156.14,129.86 156.24,129.82 156.3,129.84 C 157.17,130.04 158.01,130.31 158.84,130.64 C 159.85,131.04 160.8,131.53 161.72,132.1 C 163.56,133.26 165.15,134.72 166.45,136.46 z M 131.63,168.55 C 132.55,169.78 134.92,171.44 136.16,172.23 C 136.98,172.76 137.82,173.26 138.69,173.71 C 139.16,173.95 139.63,174.17 140.12,174.37 C 140.31,174.45 140.5,174.52 140.7,174.58 C 140.78,174.6 140.86,174.63 140.95,174.65 C 140.96,174.65 140.98,174.66 141.0,174.66 C 141.02,174.66 140.99,174.66 140.98,174.67 C 140.97,174.67 140.97,174.67 140.96,174.68 C 140.94,174.68 140.93,174.69 140.92,174.7 C 140.89,174.72 140.87,174.74 140.85,174.77 C 140.83,174.81 140.81,174.85 140.78,174.88 C 140.77,174.9 140.75,174.96 140.73,174.96 C 140.6,174.99 140.47,174.98 140.35,174.96 C 140.14,174.92 139.94,174.86 139.74,174.79 C 139.13,174.58 138.56,174.31 137.99,174.01 C 137.12,173.56 136.29,173.05 135.47,172.51 C 134.66,171.97 133.87,171.4 133.11,170.78 C 132.66,170.4 132.22,170.02 131.84,169.56 C 131.73,169.43 131.62,169.29 131.54,169.13 C 131.51,169.08 131.49,169.02 131.47,168.97 C 131.47,168.95 131.46,168.94 131.46,168.93 C 131.46,168.91 131.47,168.9 131.48,168.89 C 131.5,168.87 131.51,168.84 131.53,168.82 C 131.59,168.73 131.65,168.67 131.63,168.55 z M 142.38,132.31 C 142.39,132.3 142.4,132.29 142.41,132.29 C 142.59,132.2 142.73,132.15 142.77,132.17 C 142.82,132.19 142.78,132.27 142.66,132.39 C 142.49,132.58 142.13,132.86 141.81,133.09 C 141.57,133.26 141.36,133.4 141.16,133.51 C 140.97,133.63 140.8,133.73 140.65,133.82 C 140.4,133.96 140.21,134.08 140.02,134.23 C 140.73,133.51 141.52,132.87 142.38,132.31 z M 137.66,177.93 C 137.34,177.92 136.99,177.79 136.71,177.68 C 136.2,177.48 135.71,177.23 135.23,176.97 C 134.46,176.56 133.72,176.1 132.99,175.6 C 132.27,175.11 131.57,174.59 130.92,174.0 C 130.61,173.72 130.31,173.44 130.08,173.09 C 130.06,173.07 129.99,172.95 129.99,172.92 C 130.01,172.69 130.04,172.47 130.07,172.24 C 130.08,172.22 130.08,172.19 130.09,172.16 C 130.09,172.14 130.09,172.08 130.1,172.11 C 130.1,172.13 130.11,172.14 130.12,172.15 C 130.13,172.18 130.14,172.21 130.16,172.23 C 130.2,172.3 130.24,172.36 130.29,172.42 C 131.09,173.51 133.28,175.01 134.38,175.69 C 135.12,176.15 135.88,176.58 136.67,176.95 C 137.07,177.14 137.46,177.31 137.88,177.42 C 138.01,177.46 138.14,177.49 138.28,177.49 C 138.31,177.5 138.33,177.5 138.36,177.5 C 138.36,177.5 138.36,177.5 138.37,177.5 C 138.38,177.5 138.36,177.5 138.35,177.51 C 138.33,177.52 138.31,177.53 138.29,177.55 C 138.25,177.58 138.21,177.6 138.17,177.63 C 138.0,177.73 137.83,177.83 137.66,177.93 z"
		 />

		<!-- Prism Reference -->
		<cam mingh:cam="--verb EditSelectAll --verb ZoomSelection --verb FileSave" /> 
	 </g>

</svg>
