<svg
   xmlns:xlink="http://www.w3.org/1999/xlink"
   xmlns:svg="http://www.w3.org/2000/svg"
   xmlns="http://www.w3.org/2000/svg"
   xmlns:mingh="http://www.minghworld.com"
   width="300px"
   height="300px" >
	
	 <g>
		
		<!-- Paths -->
		<path transform="matrix(-1 0 0 1 300 0)" style="fill:#ff0;stroke:none;"
		 d="M 127.75,132.03 C 127.62,132.08 127.52,132.2 127.5,132.34 C 127.48,132.49 127.56,132.62 127.59,132.75 C 127.75,133.27 127.88,133.8 128.03,134.31 C 128.34,135.35 128.63,136.37 128.94,137.41 C 129.55,139.48 130.17,141.55 130.78,143.63 C 130.81,143.71 130.77,143.78 130.69,143.81 C 130.39,143.94 130.26,144.19 130.28,144.5 C 130.3,144.78 130.34,145.07 130.38,145.34 C 130.39,145.44 130.32,145.52 130.22,145.53 C 128.12,145.81 126.04,146.13 123.94,146.41 C 122.89,146.54 121.83,146.66 120.78,146.81 C 120.52,146.85 120.26,146.89 120.0,146.94 C 119.87,146.96 119.76,146.98 119.63,147.0 C 119.49,147.02 119.37,147.04 119.25,147.13 C 119.13,147.21 119.08,147.34 119.13,147.47 C 119.17,147.6 119.28,147.69 119.38,147.78 C 119.56,147.97 119.76,148.12 119.97,148.28 C 120.52,148.69 120.74,148.81 121.38,149.06 C 121.5,149.11 121.62,149.17 121.75,149.19 C 121.88,149.21 121.99,149.19 122.13,149.19 C 122.39,149.19 122.67,149.19 122.94,149.19 C 124.0,149.18 125.04,149.15 126.09,149.13 C 128.21,149.07 130.32,149.06 132.44,149.03 C 132.49,149.03 132.53,149.06 132.56,149.09 C 135.9,152.17 139.34,154.49 143.34,156.59 C 143.46,156.65 143.48,156.83 143.38,156.91 C 143.36,156.92 143.36,156.93 143.34,156.94 C 142.88,157.14 142.42,157.35 141.94,157.5 C 141.5,157.64 141.07,157.75 140.63,157.88 C 139.69,158.13 138.78,158.38 137.84,158.63 C 135.98,159.11 134.09,159.58 132.22,160.06 C 131.02,160.37 129.82,160.66 128.63,160.97 C 128.45,161.02 128.02,161.15 127.88,161.31 C 127.61,161.63 127.91,162.22 128.06,162.47 C 128.4,163.03 128.85,163.48 129.31,163.94 C 129.53,164.15 129.74,164.36 129.97,164.56 C 130.18,164.75 130.38,164.93 130.66,165.03 C 131.01,165.16 131.67,165.18 132.03,165.16 C 132.27,165.14 132.51,165.09 132.75,165.06 C 140.42,164.19 148.05,163.04 155.69,162.0 C 155.72,162.0 155.75,162.02 155.78,162.03 C 159.61,163.68 163.47,165.11 167.5,166.22 C 169.51,166.77 171.51,167.23 173.56,167.59 C 175.2,167.88 178.02,168.33 179.72,167.5 C 180.2,167.26 180.57,166.94 180.75,166.41 C 180.91,165.93 180.92,165.35 180.81,164.88 C 180.69,164.35 180.44,163.9 180.13,163.47 C 179.82,163.05 179.46,162.68 179.09,162.31 C 178.91,162.13 178.73,161.95 178.53,161.78 C 178.34,161.61 178.12,161.47 177.97,161.25 C 177.8,161.01 177.33,160.13 177.19,159.88 C 176.63,158.85 176.26,158.19 175.31,157.44 C 174.48,156.78 173.54,156.35 172.59,155.91 C 171.65,155.47 170.71,155.04 169.75,154.66 C 167.82,153.88 165.85,153.21 163.88,152.56 C 163.78,152.53 163.74,152.41 163.78,152.31 C 164.66,150.31 165.56,148.32 166.44,146.31 C 166.66,145.81 166.87,145.31 167.09,144.81 C 167.15,144.69 167.2,144.56 167.25,144.44 C 167.32,144.29 167.36,144.23 167.28,144.06 C 167.16,143.81 166.86,143.63 166.63,143.53 C 165.7,143.15 164.42,142.95 163.44,142.88 C 163.38,142.87 163.32,142.9 163.28,142.94 C 160.89,145.34 158.51,147.72 156.13,150.13 C 156.07,150.18 156.01,150.21 155.94,150.19 C 154.36,149.74 152.79,149.28 151.22,148.84 C 151.07,148.8 151.05,148.61 151.19,148.53 C 152.59,147.7 153.34,146.12 153.13,144.5 C 152.91,142.88 151.76,141.53 150.19,141.09 C 148.61,140.66 146.92,141.22 145.91,142.5 C 144.89,143.78 144.75,145.53 145.53,146.97 C 145.61,147.11 145.46,147.26 145.31,147.22 C 144.61,147.03 143.92,146.85 143.22,146.66 C 143.21,146.65 143.17,146.63 143.16,146.63 C 142.03,146.05 140.95,145.43 139.84,144.81 C 139.76,144.76 139.73,144.65 139.78,144.56 C 140.15,143.94 140.51,143.32 140.91,142.72 C 141.02,142.54 141.4,142.01 141.44,141.78 C 141.47,141.59 141.42,141.41 141.28,141.28 C 141.22,141.22 141.14,141.15 141.06,141.09 C 140.99,141.04 140.92,140.99 140.84,140.94 C 140.55,140.72 140.26,140.52 139.94,140.34 C 139.71,140.22 139.2,140.0 138.91,140.13 C 138.82,140.16 138.73,140.23 138.66,140.28 C 138.58,140.33 138.51,140.39 138.44,140.44 C 138.28,140.53 138.12,140.62 137.97,140.72 C 137.67,140.92 137.39,141.13 137.09,141.34 C 137.01,141.4 136.9,141.4 136.84,141.31 C 136.55,140.86 136.29,140.4 136.0,139.94 C 135.71,139.48 135.42,139.02 135.13,138.56 C 134.54,137.65 133.95,136.76 133.38,135.84 C 133.09,135.39 132.82,134.93 132.53,134.47 C 132.39,134.24 132.26,133.99 132.13,133.75 C 131.99,133.51 131.82,133.32 131.59,133.16 C 131.2,132.88 130.53,132.69 130.09,132.56 C 129.58,132.41 129.06,132.25 128.53,132.13 C 128.36,132.08 127.95,131.95 127.75,132.03 z M 131.09,139.0 C 131.28,138.96 131.52,139.03 131.75,139.16 C 131.95,139.27 132.13,139.42 132.25,139.59 C 132.32,139.7 132.37,139.8 132.41,139.88 C 132.42,139.91 132.49,139.91 132.5,139.88 C 132.51,139.85 132.49,139.81 132.5,139.78 C 132.51,139.74 132.54,139.72 132.56,139.69 C 132.64,139.57 132.76,139.48 132.94,139.47 C 133.14,139.45 133.41,139.51 133.63,139.66 C 133.81,139.79 133.96,139.97 134.06,140.16 C 134.31,140.61 134.34,141.06 134.28,141.47 C 134.17,142.24 133.78,142.93 133.22,143.53 C 133.15,143.61 133.01,143.61 132.94,143.53 C 132.08,142.52 131.4,141.52 131.0,140.59 C 130.79,140.12 130.66,139.63 130.78,139.28 C 130.83,139.14 130.93,139.04 131.09,139.0 z M 149.09,143.09 C 150.17,143.09 151.06,143.95 151.06,145.03 C 151.06,146.11 150.17,146.97 149.09,146.97 C 148.02,146.97 147.16,146.11 147.16,145.03 C 147.16,143.95 148.02,143.09 149.09,143.09 z" />
		
		
		<text id="txtTwo" transform="matrix(1 0 0 1 150 160)" style="stroke:none;fill:#f00;font-family:'Eras Medium ITC';font-size:20px;text-anchor:middle"  >

		</text>
		<!-- Prism Reference -->
		<cam mingh:cam=" --verb EditSelectAll --verb ZoomSelection --verb FileSave"/> 
	 </g>

</svg>