<svg
   xmlns:xlink="http://www.w3.org/1999/xlink"
   xmlns:svg="http://www.w3.org/2000/svg"
   xmlns="http://www.w3.org/2000/svg"
   xmlns:mingh="http://www.minghworld.com"
   width="300px"
   height="300px" >
	
	 <g>
		
		<!-- Paths -->
		<path style="fill:none;stroke:#000;stroke-width:0.25px;"
		 d="M 151.81,122.84 C 151.17,122.8 150.55,122.92 149.94,123.19 C 148.31,123.91 147.32,125.63 147.53,127.41 C 147.74,129.18 149.09,130.61 150.84,130.94 C 151.01,130.97 151.05,131.17 150.91,131.25 C 150.49,131.49 150.07,131.75 149.69,132.03 C 149.46,132.2 149.24,132.37 149.03,132.56 C 148.83,132.75 148.64,132.96 148.47,133.19 C 148.32,133.38 148.19,133.59 148.09,133.81 C 148.04,133.94 148.01,134.08 147.97,134.22 C 147.89,134.48 147.83,134.76 147.81,135.03 C 147.8,135.19 147.82,135.34 147.81,135.5 C 147.81,135.64 147.8,135.77 147.78,135.91 C 147.76,136.04 147.74,136.16 147.69,136.28 C 147.63,136.42 147.53,136.54 147.44,136.66 C 147.37,136.75 147.3,136.83 147.22,136.91 C 147.19,136.93 147.16,136.96 147.13,136.97 C 146.91,137.0 146.69,137.02 146.47,137.06 C 146.14,137.13 145.82,137.21 145.5,137.31 C 145.31,137.38 145.09,137.45 144.91,137.53 C 144.75,137.6 144.62,137.67 144.47,137.75 C 144.23,137.87 144.01,138.02 143.78,138.16 C 143.72,138.2 143.66,138.19 143.59,138.16 C 143.37,138.03 143.13,137.92 142.91,137.81 C 142.22,137.48 141.53,137.22 140.78,137.06 C 140.5,137.0 140.19,136.96 139.91,136.94 C 139.62,136.91 139.35,136.91 139.06,136.94 C 138.95,136.95 138.83,136.95 138.72,136.97 C 138.64,136.98 138.58,136.97 138.53,136.91 C 138.42,136.76 138.32,136.6 138.19,136.47 C 138.11,136.39 138.02,136.32 137.94,136.25 C 137.86,136.19 137.8,136.12 137.72,136.06 C 137.62,135.99 137.49,135.91 137.38,135.84 C 137.15,135.71 136.93,135.59 136.69,135.5 C 136.45,135.4 136.19,135.35 135.94,135.28 C 135.68,135.21 135.42,135.14 135.16,135.09 C 134.88,135.05 134.62,135.02 134.34,135.0 C 133.78,134.96 133.19,135.0 132.63,135.09 C 131.97,135.21 131.32,135.41 130.72,135.69 C 130.43,135.82 130.15,135.99 129.88,136.16 C 129.68,136.28 129.47,136.39 129.28,136.53 C 128.91,136.81 128.57,137.14 128.28,137.5 C 128.12,137.7 127.98,137.9 127.84,138.13 C 127.71,138.35 127.59,138.58 127.47,138.81 C 127.35,139.05 127.22,139.3 127.09,139.53 C 127.01,139.68 126.92,139.82 126.84,139.97 C 126.71,140.21 126.6,140.46 126.53,140.72 C 126.5,140.84 126.48,140.94 126.47,141.06 C 126.46,141.17 126.44,141.3 126.44,141.41 C 126.43,141.62 126.42,141.82 126.44,142.03 C 126.44,142.13 126.45,142.22 126.47,142.31 C 126.47,142.33 126.47,142.36 126.47,142.38 C 126.48,142.41 126.49,142.43 126.5,142.47 C 126.51,142.51 126.54,142.56 126.56,142.59 C 126.59,142.64 126.61,142.69 126.66,142.72 C 126.71,142.75 126.78,142.77 126.84,142.78 C 126.9,142.79 126.94,142.78 127.0,142.78 C 127.08,142.78 127.14,142.79 127.22,142.78 C 127.39,142.76 127.55,142.73 127.72,142.69 C 127.8,142.67 127.88,142.64 127.97,142.63 C 128.06,142.61 128.16,142.57 128.25,142.56 C 128.43,142.54 128.61,142.55 128.78,142.59 C 128.9,142.63 129.02,142.69 129.13,142.75 C 129.19,142.78 129.25,142.81 129.31,142.84 C 129.38,142.88 129.43,142.91 129.5,142.94 C 129.58,142.97 129.67,143.0 129.75,143.03 C 130.09,143.15 130.46,143.23 130.81,143.28 C 131.03,143.31 131.25,143.35 131.47,143.38 C 131.71,143.4 131.95,143.42 132.19,143.44 C 132.67,143.48 133.14,143.49 133.63,143.47 C 134.14,143.45 134.68,143.39 135.19,143.28 C 135.55,143.21 135.9,143.13 136.25,143.0 C 136.33,142.97 136.42,143.0 136.47,143.06 C 136.51,143.13 136.54,143.19 136.59,143.25 C 136.64,143.3 136.7,143.36 136.75,143.41 C 136.81,143.46 136.87,143.52 136.94,143.56 C 137.01,143.61 137.11,143.66 137.19,143.69 C 137.23,143.7 137.26,143.71 137.31,143.72 C 137.36,143.73 137.42,143.72 137.47,143.72 C 137.51,143.72 137.55,143.74 137.59,143.75 C 137.62,143.75 137.63,143.74 137.66,143.75 C 137.69,143.76 137.72,143.79 137.75,143.81 C 137.82,143.86 137.89,143.91 137.94,143.97 C 137.97,144.01 138.0,144.05 138.03,144.09 C 138.07,144.15 138.09,144.19 138.06,144.25 C 137.9,144.66 137.76,145.08 137.66,145.5 C 137.41,146.5 137.31,147.52 137.34,148.53 C 137.35,148.58 137.35,148.62 137.31,148.66 C 137.2,148.78 137.09,148.89 136.97,149.0 C 136.9,149.06 136.82,149.13 136.75,149.19 C 136.68,149.24 136.61,149.29 136.53,149.34 C 136.43,149.41 136.3,149.47 136.19,149.53 C 135.96,149.66 135.74,149.77 135.5,149.88 C 135.26,149.98 135.03,150.09 134.78,150.19 C 134.64,150.24 134.49,150.29 134.34,150.34 C 134.16,150.42 133.97,150.49 133.78,150.56 C 133.41,150.71 133.05,150.86 132.69,151.03 C 132.03,151.34 131.37,151.68 130.75,152.06 C 130.28,152.35 129.85,152.67 129.44,153.03 C 129.18,153.25 128.95,153.48 128.72,153.72 C 128.29,154.17 127.89,154.68 127.53,155.19 C 127.16,155.71 126.81,156.24 126.47,156.78 C 126.12,157.34 125.79,157.91 125.44,158.47 C 125.06,159.07 124.68,159.67 124.31,160.28 C 124.05,160.72 123.8,161.16 123.59,161.63 C 123.46,161.91 123.35,162.23 123.25,162.53 C 123.22,162.61 123.18,162.7 123.16,162.78 C 123.15,162.81 123.13,162.84 123.13,162.88 C 123.11,162.94 123.1,162.99 123.09,163.06 C 123.08,163.13 123.08,163.21 123.09,163.28 C 123.11,163.34 123.12,163.39 123.16,163.44 C 123.19,163.48 123.24,163.53 123.28,163.56 C 123.32,163.59 123.36,163.6 123.41,163.63 C 123.43,163.64 123.45,163.65 123.47,163.66 C 123.57,163.69 123.68,163.74 123.78,163.75 C 123.91,163.77 124.03,163.76 124.16,163.75 C 124.29,163.74 124.43,163.74 124.56,163.72 C 124.64,163.71 124.71,163.67 124.78,163.66 C 124.96,163.63 125.14,163.6 125.31,163.56 C 125.66,163.49 126.0,163.44 126.34,163.34 C 126.68,163.25 127.01,163.12 127.34,163.0 C 127.61,162.9 127.87,162.81 128.13,162.69 C 128.39,162.56 128.65,162.4 128.91,162.25 C 129.04,162.17 129.18,162.08 129.31,162.0 C 129.55,161.86 129.77,161.74 130.0,161.59 C 130.46,161.31 130.93,160.98 131.38,160.66 C 131.81,160.34 132.24,160.03 132.66,159.69 C 133.07,159.36 133.45,159.0 133.88,158.69 C 134.28,158.39 134.71,158.11 135.16,157.88 C 135.36,157.77 135.57,157.69 135.78,157.59 C 135.98,157.51 136.18,157.4 136.38,157.31 C 136.56,157.22 136.73,157.14 136.91,157.03 C 136.99,156.98 137.1,156.91 137.19,156.84 C 137.28,156.77 137.36,156.71 137.44,156.63 C 137.61,156.46 137.77,156.26 137.91,156.06 C 138.04,155.86 138.16,155.65 138.28,155.44 C 138.36,155.3 138.42,155.17 138.5,155.03 C 138.56,154.93 138.7,154.95 138.75,155.06 C 138.94,155.5 139.15,155.9 139.38,156.31 C 139.7,156.9 140.07,157.46 140.47,158.0 C 140.87,158.55 141.3,159.11 141.75,159.63 C 142.23,160.17 142.73,160.68 143.25,161.19 C 143.77,161.7 144.31,162.2 144.88,162.66 C 145.43,163.11 146.02,163.52 146.63,163.91 C 147.21,164.27 147.83,164.6 148.47,164.88 C 148.95,165.08 149.44,165.23 149.94,165.38 C 150.4,165.5 150.84,165.63 151.31,165.72 C 151.39,165.73 151.45,165.77 151.47,165.84 C 151.52,166.03 151.54,166.22 151.56,166.41 C 151.57,166.53 151.59,166.63 151.59,166.75 C 151.6,166.96 151.62,167.16 151.63,167.38 C 151.64,167.99 151.67,168.61 151.75,169.22 C 151.79,169.52 151.83,169.83 151.91,170.13 C 151.99,170.46 152.11,170.81 152.25,171.13 C 152.53,171.78 152.92,172.39 153.38,172.94 C 153.6,173.2 153.84,173.45 154.09,173.69 C 154.33,173.9 154.58,174.12 154.84,174.31 C 155.36,174.69 155.9,175.01 156.47,175.31 C 156.71,175.44 156.94,175.57 157.19,175.69 C 157.41,175.8 157.64,175.9 157.88,176.0 C 158.33,176.2 158.8,176.4 159.28,176.56 C 159.7,176.7 160.13,176.81 160.56,176.91 C 160.77,176.96 160.97,177.02 161.19,177.06 C 161.32,177.09 161.46,177.11 161.59,177.13 C 161.77,177.15 161.95,177.16 162.13,177.16 C 162.22,177.15 162.29,177.14 162.38,177.13 C 162.39,177.12 162.42,177.13 162.44,177.13 C 162.47,177.12 162.47,177.1 162.5,177.09 C 162.53,177.08 162.56,177.08 162.59,177.06 C 162.63,177.05 162.66,177.02 162.69,177.0 C 162.72,176.97 162.73,176.94 162.75,176.91 C 162.77,176.87 162.77,176.85 162.78,176.81 C 162.79,176.78 162.81,176.75 162.81,176.72 C 162.81,176.67 162.79,176.64 162.78,176.59 C 162.77,176.53 162.77,176.47 162.75,176.41 C 162.73,176.35 162.71,176.28 162.69,176.22 C 162.64,176.08 162.59,175.95 162.53,175.81 C 162.43,175.56 162.3,175.31 162.19,175.06 C 162.12,174.91 162.06,174.75 162.0,174.59 C 161.92,174.4 161.83,174.19 161.75,174.0 C 161.59,173.61 161.44,173.24 161.25,172.88 C 161.04,172.46 160.79,172.04 160.53,171.66 C 160.27,171.27 160.0,170.88 159.72,170.5 C 159.41,170.09 159.08,169.7 158.78,169.28 C 158.54,168.94 158.31,168.57 158.09,168.22 C 157.91,167.91 157.72,167.6 157.56,167.28 C 157.42,166.99 157.28,166.71 157.16,166.41 C 157.12,166.31 157.18,166.19 157.28,166.19 C 157.88,166.19 158.47,166.19 159.06,166.16 C 159.4,166.14 159.76,166.12 160.09,166.09 C 160.33,166.07 160.55,166.03 160.78,166.0 C 161.06,165.97 161.32,165.95 161.59,165.91 C 162.14,165.82 162.69,165.69 163.22,165.53 C 163.74,165.37 164.27,165.17 164.75,164.91 C 164.87,164.84 164.98,164.76 165.09,164.69 C 165.18,164.63 165.26,164.59 165.34,164.53 C 165.45,164.46 165.56,164.36 165.66,164.28 C 165.85,164.12 166.04,163.96 166.22,163.78 C 166.39,163.6 166.54,163.39 166.69,163.19 C 166.89,162.91 167.07,162.63 167.22,162.31 C 167.43,161.87 167.61,161.39 167.72,160.91 C 167.83,160.42 167.88,159.93 167.91,159.44 C 167.95,158.72 167.95,157.99 167.88,157.28 C 167.86,157.17 167.96,157.11 168.06,157.16 C 168.23,157.23 168.42,157.28 168.59,157.34 C 168.76,157.4 168.92,157.46 169.09,157.5 C 169.35,157.57 169.61,157.61 169.88,157.66 C 170.15,157.71 170.42,157.76 170.69,157.81 C 170.95,157.86 171.21,157.91 171.47,157.97 C 172.0,158.08 172.52,158.22 173.03,158.41 C 173.46,158.56 173.87,158.74 174.31,158.88 C 174.42,158.91 174.54,158.94 174.66,158.97 C 174.72,158.98 174.78,158.99 174.84,159.0 C 174.91,159.01 174.96,159.05 175.03,159.06 C 175.09,159.08 175.16,159.07 175.22,159.09 C 175.28,159.12 175.35,159.15 175.41,159.19 C 175.47,159.23 175.53,159.27 175.59,159.31 C 175.66,159.36 175.74,159.39 175.81,159.44 C 175.89,159.49 175.98,159.56 176.06,159.59 C 176.15,159.63 176.25,159.64 176.34,159.66 C 176.4,159.66 176.45,159.69 176.5,159.69 C 176.53,159.69 176.56,159.66 176.59,159.66 C 176.63,159.65 176.68,159.67 176.72,159.66 C 176.76,159.64 176.81,159.63 176.84,159.59 C 176.89,159.56 176.89,159.49 176.91,159.44 C 176.92,159.39 176.91,159.33 176.91,159.28 C 176.9,159.24 176.91,159.23 176.91,159.19 C 176.88,159.06 176.85,158.91 176.81,158.78 C 176.78,158.66 176.73,158.55 176.69,158.44 C 176.67,158.38 176.65,158.34 176.63,158.28 C 176.57,158.14 176.5,157.99 176.44,157.84 C 176.27,157.46 176.1,157.06 175.91,156.69 C 175.71,156.3 175.5,155.93 175.28,155.56 C 175.07,155.2 174.84,154.84 174.59,154.5 C 174.35,154.17 174.09,153.86 173.81,153.56 C 173.54,153.27 173.23,152.99 172.91,152.75 C 172.54,152.48 172.16,152.26 171.75,152.06 C 171.34,151.86 170.91,151.7 170.47,151.56 C 170.06,151.44 169.66,151.31 169.25,151.22 C 168.92,151.14 168.56,151.09 168.22,151.03 C 167.87,150.97 167.54,150.91 167.19,150.84 C 167.03,150.81 166.87,150.78 166.72,150.75 C 166.62,150.73 166.51,150.71 166.41,150.69 C 166.33,150.67 166.3,150.63 166.28,150.56 C 166.01,149.66 165.69,148.74 165.31,147.88 C 164.95,147.02 164.52,146.19 164.03,145.41 C 163.54,144.62 162.99,143.88 162.38,143.19 C 161.69,142.41 160.94,141.71 160.13,141.06 C 159.31,140.42 158.44,139.82 157.53,139.31 C 156.4,138.69 155.2,138.18 153.97,137.78 C 153.88,137.75 153.83,137.68 153.84,137.59 C 153.87,137.44 153.93,137.27 153.97,137.13 C 154.05,136.86 154.13,136.62 154.25,136.38 C 154.4,136.06 154.58,135.75 154.78,135.47 C 154.95,135.22 155.15,135.01 155.34,134.78 C 155.55,134.53 155.75,134.27 155.97,134.03 C 156.22,133.77 156.48,133.52 156.75,133.28 C 157.0,133.07 157.24,132.88 157.5,132.69 C 157.85,132.42 158.23,132.16 158.56,131.88 C 158.79,131.69 158.98,131.49 159.19,131.28 C 159.39,131.08 159.58,130.86 159.75,130.63 C 159.99,130.3 160.21,129.95 160.34,129.56 C 160.41,129.38 160.44,129.19 160.47,129.0 C 160.48,128.91 160.49,128.81 160.5,128.72 C 160.5,128.65 160.5,128.6 160.5,128.53 C 160.5,128.46 160.49,128.38 160.47,128.31 C 160.44,128.23 160.4,128.19 160.34,128.13 C 160.27,128.04 160.2,127.98 160.09,127.94 C 160.03,127.91 159.97,127.88 159.91,127.88 C 159.84,127.87 159.76,127.87 159.69,127.88 C 159.62,127.88 159.57,127.89 159.5,127.91 C 159.41,127.93 159.31,127.97 159.22,128.0 C 158.96,128.09 158.69,128.18 158.44,128.28 C 158.28,128.34 158.15,128.41 158.0,128.47 C 157.8,128.54 157.58,128.59 157.38,128.66 C 157.15,128.72 156.94,128.78 156.72,128.84 C 156.42,128.93 156.14,129.03 155.84,129.13 C 155.65,129.19 155.44,129.25 155.25,129.31 C 155.09,129.37 154.98,129.2 155.06,129.06 C 156.0,127.54 155.83,125.59 154.66,124.25 C 153.92,123.41 152.88,122.91 151.81,122.84 z M 151.59,124.97 C 152.67,124.97 153.53,125.83 153.53,126.91 C 153.53,127.98 152.67,128.88 151.59,128.88 C 150.52,128.88 149.63,127.98 149.63,126.91 C 149.63,125.83 150.52,124.97 151.59,124.97 z"
		 />
		 <path style="fill:#f00;stroke:none;"
		 d="M 133.93,137.79 C 133.77,137.79 133.61,137.79 133.48,137.89 C 133.43,137.93 133.39,137.99 133.38,138.04 C 133.37,138.1 133.4,138.16 133.44,138.2 C 133.52,138.29 133.65,138.33 133.77,138.37 C 133.98,138.44 134.18,138.53 134.28,138.69 C 134.35,138.82 134.37,139.0 134.38,139.19 C 134.38,139.31 134.38,139.43 134.44,139.48 C 134.48,139.52 134.56,139.52 134.63,139.5 C 134.71,139.47 134.78,139.42 134.83,139.35 C 134.92,139.24 134.97,139.1 135.0,138.95 C 135.03,138.76 135.04,138.57 134.99,138.38 C 134.92,138.17 134.76,137.97 134.57,137.87 C 134.38,137.78 134.16,137.78 133.93,137.79 z M 133.1,141.77 C 132.9,141.81 132.6,141.77 132.57,141.89 C 132.55,141.97 132.61,142.09 132.69,142.17 C 132.85,142.32 133.08,142.3 133.28,142.26 C 133.49,142.2 133.66,142.12 133.82,141.94 C 133.95,141.8 134.06,141.61 133.98,141.48 C 133.94,141.42 133.85,141.37 133.77,141.37 C 133.63,141.36 133.52,141.49 133.41,141.59 C 133.32,141.68 133.23,141.74 133.1,141.77 z M 130.02,141.51 C 129.91,141.6 129.83,141.77 129.9,141.85 C 129.97,141.93 130.16,141.93 130.33,141.95 C 130.72,141.98 131.0,142.09 131.36,142.02 C 131.48,142.0 131.61,141.96 131.66,141.89 C 131.74,141.78 131.61,141.61 131.47,141.52 C 131.25,141.38 130.98,141.4 130.69,141.4 C 130.44,141.4 130.19,141.38 130.02,141.51 z M 129.43,141.6 C 129.42,141.54 129.38,141.48 129.32,141.45 C 129.16,141.34 128.85,141.4 128.6,141.45 C 128.42,141.48 128.27,141.52 128.14,141.62 C 128.05,141.7 127.98,141.81 128.0,141.86 C 128.05,141.93 128.33,141.87 128.55,141.86 C 128.8,141.84 128.97,141.88 129.17,141.84 C 129.27,141.83 129.36,141.79 129.41,141.74 C 129.44,141.7 129.44,141.65 129.43,141.6 z M 127.93,140.02 C 127.95,140.05 127.96,140.08 127.98,140.12 C 128.01,140.17 128.06,140.22 128.12,140.24 C 128.18,140.26 128.26,140.23 128.32,140.2 C 128.41,140.16 128.47,140.1 128.54,140.05 C 128.62,139.98 128.71,139.9 128.78,139.82 C 128.83,139.77 128.88,139.71 128.91,139.65 C 128.94,139.6 128.95,139.55 128.95,139.49 C 128.95,139.43 128.93,139.37 128.89,139.34 C 128.84,139.29 128.75,139.27 128.68,139.27 C 128.58,139.27 128.48,139.29 128.39,139.32 C 128.29,139.35 128.19,139.39 128.09,139.45 C 128.0,139.51 127.91,139.6 127.88,139.7 C 127.86,139.8 127.9,139.91 127.93,140.02 z M 129.66,138.04 C 129.68,138.15 129.7,138.28 129.78,138.34 C 129.86,138.4 129.97,138.41 130.08,138.4 C 130.23,138.38 130.36,138.34 130.47,138.27 C 130.56,138.21 130.64,138.13 130.72,138.04 C 130.77,137.98 130.81,137.92 130.82,137.86 C 130.84,137.76 130.77,137.66 130.69,137.57 C 130.6,137.46 130.5,137.38 130.37,137.34 C 130.24,137.29 130.08,137.3 129.95,137.36 C 129.82,137.43 129.74,137.56 129.69,137.7 C 129.66,137.81 129.65,137.92 129.66,138.04 z M 131.07,137.35 C 131.0,137.48 130.97,137.62 131.01,137.73 C 131.03,137.8 131.08,137.86 131.14,137.87 C 131.24,137.9 131.38,137.85 131.51,137.79 C 131.72,137.7 131.9,137.62 132.09,137.53 C 132.3,137.42 132.54,137.31 132.66,137.13 C 132.72,137.05 132.75,136.97 132.74,136.9 C 132.74,136.8 132.66,136.72 132.57,136.65 C 132.51,136.6 132.45,136.56 132.38,136.56 C 132.3,136.55 132.21,136.58 132.12,136.61 C 131.97,136.67 131.83,136.75 131.69,136.82 C 131.52,136.92 131.35,137.01 131.23,137.14 C 131.16,137.2 131.11,137.28 131.07,137.35 z M 130.36,136.35 C 130.23,136.44 130.11,136.53 130.05,136.65 C 130.01,136.74 130.0,136.83 130.04,136.89 C 130.11,136.96 130.27,136.95 130.42,136.93 C 130.72,136.89 130.98,136.81 131.25,136.7 C 131.54,136.58 131.84,136.43 132.09,136.25 C 132.24,136.14 132.37,136.02 132.45,135.88 C 132.51,135.77 132.55,135.65 132.49,135.59 C 132.45,135.55 132.36,135.53 132.28,135.53 C 132.14,135.53 132.0,135.57 131.86,135.61 C 131.57,135.71 131.28,135.83 131.01,135.97 C 130.78,136.09 130.57,136.21 130.36,136.35 z M 135.46,137.72 C 135.39,137.83 135.34,137.95 135.31,138.07 C 135.28,138.23 135.32,138.39 135.38,138.57 C 135.41,138.68 135.46,138.79 135.52,138.82 C 135.61,138.86 135.74,138.76 135.86,138.68 C 136.08,138.55 136.28,138.5 136.45,138.37 C 136.55,138.3 136.64,138.21 136.68,138.1 C 136.73,137.98 136.74,137.84 136.72,137.72 C 136.69,137.51 136.61,137.34 136.48,137.13 C 136.39,136.98 136.27,136.82 136.16,136.81 C 136.02,136.81 135.9,137.05 135.78,137.23 C 135.67,137.43 135.56,137.56 135.46,137.72 z M 134.21,137.1 C 134.18,137.14 134.17,137.17 134.17,137.19 C 134.17,137.34 134.53,137.51 134.74,137.63 C 134.78,137.66 134.82,137.68 134.86,137.68 C 134.92,137.67 134.99,137.61 135.05,137.55 C 135.16,137.43 135.25,137.32 135.35,137.21 C 135.46,137.1 135.58,136.98 135.62,136.82 C 135.63,136.77 135.64,136.72 135.62,136.67 C 135.6,136.61 135.54,136.57 135.48,136.53 C 135.38,136.46 135.29,136.38 135.17,136.35 C 135.13,136.34 135.08,136.34 135.02,136.36 C 134.92,136.4 134.77,136.5 134.63,136.63 C 134.45,136.79 134.28,137.0 134.21,137.1 z M 134.2,135.38 C 134.01,135.33 133.82,135.34 133.61,135.34 C 133.48,135.35 133.34,135.36 133.24,135.44 C 133.19,135.47 133.15,135.53 133.13,135.59 C 133.1,135.67 133.11,135.75 133.13,135.84 C 133.16,135.96 133.2,136.08 133.25,136.18 C 133.3,136.31 133.37,136.42 133.45,136.55 C 133.52,136.66 133.6,136.79 133.7,136.81 C 133.81,136.83 133.94,136.7 134.06,136.59 C 134.22,136.45 134.35,136.35 134.5,136.25 C 134.61,136.19 134.72,136.13 134.8,136.03 C 134.85,135.96 134.88,135.89 134.87,135.82 C 134.86,135.75 134.79,135.69 134.73,135.64 C 134.63,135.57 134.54,135.51 134.44,135.47 C 134.37,135.43 134.29,135.4 134.2,135.38 z M 135.63,135.62 C 135.59,135.62 135.54,135.63 135.51,135.66 C 135.46,135.7 135.45,135.77 135.45,135.84 C 135.45,135.9 135.46,135.95 135.49,136.0 C 135.54,136.11 135.64,136.19 135.73,136.3 C 135.79,136.36 135.84,136.44 135.92,136.45 C 135.98,136.47 136.06,136.44 136.13,136.42 C 136.29,136.37 136.42,136.35 136.57,136.26 C 136.63,136.22 136.7,136.17 136.7,136.11 C 136.7,136.06 136.66,136.01 136.61,135.96 C 136.47,135.84 136.33,135.8 136.18,135.74 C 136.0,135.68 135.83,135.6 135.63,135.62 z M 137.27,136.3 C 137.18,136.3 137.08,136.34 137.0,136.4 C 136.91,136.46 136.84,136.54 136.8,136.64 C 136.79,136.69 136.78,136.74 136.79,136.79 C 136.8,136.9 136.86,137.0 136.94,137.07 C 137.05,137.16 137.18,137.22 137.32,137.22 C 137.42,137.23 137.51,137.21 137.6,137.17 C 137.71,137.11 137.81,137.03 137.84,136.92 C 137.87,136.85 137.87,136.77 137.84,136.7 C 137.8,136.55 137.64,136.44 137.49,136.36 C 137.42,136.33 137.34,136.3 137.27,136.3 z M 133.35,140.73 C 133.31,140.86 133.28,141.0 133.35,141.09 C 133.38,141.12 133.43,141.15 133.48,141.16 C 133.63,141.21 133.79,141.14 133.94,141.07 C 134.11,140.97 134.26,140.87 134.37,140.7 C 134.47,140.54 134.53,140.32 134.45,140.18 C 134.38,140.05 134.21,139.98 134.05,139.98 C 133.86,139.98 133.69,140.11 133.57,140.25 C 133.46,140.39 133.4,140.54 133.35,140.73 z M 134.62,140.89 C 134.57,141.07 134.51,141.25 134.42,141.41 C 134.35,141.55 134.26,141.67 134.28,141.83 C 134.29,141.9 134.32,141.98 134.37,142.02 C 134.5,142.14 134.73,141.93 134.93,141.77 C 135.2,141.56 135.42,141.45 135.53,141.22 C 135.61,141.05 135.64,140.82 135.58,140.63 C 135.54,140.5 135.48,140.39 135.39,140.31 C 135.32,140.25 135.24,140.21 135.15,140.19 C 135.01,140.16 134.85,140.2 134.77,140.29 C 134.68,140.38 134.68,140.53 134.66,140.66 C 134.65,140.74 134.63,140.82 134.62,140.89 z M 133.26,139.12 C 133.26,139.0 133.14,138.97 133.06,138.94 C 132.92,138.89 132.79,138.85 132.65,138.82 C 132.35,138.74 132.05,138.71 131.74,138.72 C 131.21,138.74 130.64,138.88 130.18,139.17 C 129.68,139.47 129.39,139.9 129.07,140.35 C 128.92,140.56 128.78,140.76 128.53,140.87 C 128.4,140.92 128.27,140.95 128.13,140.96 C 128.05,140.97 127.93,140.95 127.97,141.06 C 127.99,141.14 128.12,141.14 128.17,141.15 C 128.44,141.19 128.69,141.18 128.95,141.09 C 129.22,141.0 129.46,140.87 129.77,140.89 C 130.05,140.91 130.3,140.99 130.57,141.06 C 130.84,141.12 131.1,141.17 131.38,141.18 C 131.91,141.2 132.49,141.07 132.89,140.67 C 133.1,140.45 133.18,140.21 133.19,139.91 C 133.2,139.77 133.2,139.62 133.21,139.48 C 133.21,139.41 133.22,139.34 133.24,139.27 C 133.25,139.22 133.26,139.17 133.26,139.12 z M 140.62,139.4 C 140.47,139.4 140.3,139.46 140.19,139.59 C 140.12,139.69 140.07,139.82 140.1,139.92 C 140.13,140.05 140.29,140.14 140.44,140.19 C 140.56,140.23 140.68,140.25 140.78,140.22 C 140.9,140.2 141.0,140.11 141.07,139.99 C 141.15,139.87 141.2,139.73 141.15,139.63 C 141.12,139.55 141.02,139.5 140.92,139.46 C 140.82,139.42 140.72,139.4 140.62,139.4 z M 140.52,137.93 C 140.35,138.01 140.23,138.13 140.08,138.27 C 140.0,138.34 139.92,138.4 139.91,138.49 C 139.89,138.57 139.93,138.66 139.99,138.73 C 140.09,138.84 140.24,138.9 140.38,138.91 C 140.58,138.93 140.77,138.85 140.98,138.74 C 141.17,138.64 141.38,138.53 141.4,138.34 C 141.4,138.28 141.39,138.21 141.36,138.16 C 141.28,138.01 141.09,137.94 140.92,137.9 C 140.85,137.89 140.78,137.87 140.71,137.88 C 140.64,137.89 140.58,137.9 140.52,137.93 z M 142.04,138.08 C 141.89,137.98 141.78,137.95 141.61,137.97 C 141.56,137.97 141.5,137.98 141.47,138.01 C 141.42,138.06 141.53,138.2 141.63,138.27 C 141.75,138.35 141.85,138.35 141.99,138.33 C 142.08,138.32 142.19,138.3 142.2,138.26 C 142.22,138.21 142.12,138.14 142.04,138.08 z M 141.32,138.77 C 141.22,138.84 141.12,138.92 141.09,139.03 C 141.08,139.08 141.08,139.15 141.11,139.2 C 141.16,139.3 141.3,139.33 141.43,139.32 C 141.61,139.31 141.75,139.22 141.89,139.14 C 142.07,139.05 142.25,138.98 142.43,138.8 C 142.5,138.73 142.58,138.64 142.57,138.58 C 142.55,138.51 142.4,138.48 142.27,138.47 C 142.07,138.45 141.92,138.45 141.78,138.5 C 141.62,138.56 141.47,138.66 141.32,138.77 z M 137.93,138.68 C 137.86,138.82 137.85,139.02 137.95,139.14 C 138.04,139.25 138.23,139.29 138.37,139.24 C 138.5,139.2 138.59,139.08 138.64,138.93 C 138.69,138.81 138.72,138.68 138.67,138.58 C 138.61,138.47 138.42,138.41 138.27,138.43 C 138.12,138.45 138.0,138.54 137.93,138.68 z M 138.66,139.62 C 138.56,139.62 138.45,139.66 138.39,139.74 C 138.31,139.83 138.29,139.97 138.33,140.07 C 138.38,140.2 138.52,140.28 138.67,140.32 C 138.81,140.36 138.96,140.36 139.08,140.27 C 139.14,140.22 139.19,140.15 139.2,140.09 C 139.2,139.99 139.11,139.9 139.02,139.82 C 138.91,139.71 138.79,139.62 138.66,139.62 z M 138.74,140.87 C 138.73,140.89 138.72,140.9 138.71,140.92 C 138.7,140.99 138.77,141.06 138.84,141.08 C 138.91,141.1 138.97,141.08 139.03,141.03 C 139.11,140.95 139.14,140.81 139.08,140.73 C 139.04,140.68 138.97,140.65 138.91,140.66 C 138.83,140.68 138.79,140.78 138.74,140.87 z M 139.28,141.46 C 139.23,141.56 139.16,141.68 139.21,141.75 C 139.25,141.81 139.35,141.84 139.43,141.82 C 139.52,141.8 139.56,141.72 139.62,141.63 C 139.68,141.54 139.75,141.43 139.72,141.36 C 139.68,141.29 139.55,141.24 139.46,141.26 C 139.38,141.28 139.33,141.37 139.28,141.46 z M 139.4,138.49 C 139.49,138.44 139.57,138.35 139.67,138.28 C 139.8,138.19 139.97,138.14 140.04,138.0 C 140.07,137.93 140.08,137.83 140.06,137.77 C 140.0,137.56 139.67,137.56 139.4,137.55 C 139.17,137.55 138.98,137.54 138.82,137.65 C 138.7,137.73 138.6,137.85 138.59,137.98 C 138.57,138.11 138.66,138.25 138.78,138.35 C 138.96,138.5 139.21,138.57 139.4,138.49 z M 139.33,140.71 C 139.32,140.77 139.32,140.83 139.35,140.88 C 139.38,140.95 139.46,141.0 139.55,141.02 C 139.67,141.06 139.79,141.04 139.9,140.99 C 140.05,140.92 140.19,140.77 140.19,140.6 C 140.2,140.47 140.11,140.33 139.99,140.27 C 139.85,140.19 139.67,140.22 139.54,140.31 C 139.41,140.4 139.35,140.55 139.33,140.71 z M 138.94,139.07 C 138.9,139.14 138.87,139.22 138.89,139.29 C 138.91,139.39 139.06,139.46 139.2,139.5 C 139.35,139.55 139.49,139.58 139.63,139.52 C 139.74,139.47 139.85,139.38 139.86,139.28 C 139.88,139.16 139.77,139.04 139.65,138.95 C 139.52,138.85 139.37,138.79 139.24,138.82 C 139.12,138.85 139.02,138.95 138.94,139.07 z M 138.39,143.81 C 138.26,143.62 138.14,143.42 138.05,143.2 C 137.85,142.72 137.8,142.19 137.8,141.66 C 137.8,141.01 137.89,140.37 138.08,139.77 C 137.8,140.25 137.58,140.77 137.44,141.32 C 137.35,141.67 137.3,142.02 137.28,142.38 C 137.22,142.41 137.16,142.44 137.09,142.47 C 137.0,142.33 136.92,142.18 136.85,142.02 C 136.53,141.36 136.37,140.61 136.42,139.87 C 136.46,139.24 136.65,138.63 136.94,138.08 C 136.6,138.45 136.34,138.9 136.19,139.37 C 135.93,140.15 135.95,140.99 136.13,141.81 C 136.17,142.0 136.22,142.19 136.28,142.37 C 136.26,142.33 136.22,142.3 136.18,142.27 C 136.06,142.19 135.89,142.17 135.79,142.23 C 135.69,142.29 135.65,142.42 135.57,142.54 C 135.53,142.61 135.48,142.67 135.42,142.69 C 135.33,142.71 135.23,142.65 135.13,142.59 C 134.86,142.41 134.64,142.27 134.33,142.24 C 134.06,142.22 133.74,142.27 133.62,142.46 C 133.54,142.58 133.55,142.74 133.52,142.91 C 133.5,142.99 133.47,143.08 133.42,143.11 C 133.34,143.16 133.21,143.12 133.12,143.05 C 132.98,142.95 132.94,142.78 132.83,142.69 C 132.71,142.59 132.5,142.61 132.31,142.64 C 132.04,142.69 131.82,142.78 131.58,142.83 C 131.14,142.91 130.66,142.85 130.2,142.79 C 129.86,142.75 129.54,142.71 129.21,142.64 C 129.09,142.57 128.96,142.51 128.82,142.47 C 128.8,142.46 128.78,142.46 128.76,142.45 C 129.13,142.41 129.46,142.45 129.74,142.49 C 130.06,142.53 130.32,142.57 130.67,142.61 C 130.99,142.66 131.4,142.71 131.91,142.54 C 132.18,142.45 132.49,142.29 132.5,142.24 C 132.52,142.17 132.19,142.22 131.93,142.25 C 131.44,142.29 131.15,142.25 130.79,142.19 C 130.49,142.15 130.14,142.1 129.81,142.06 C 129.53,142.03 129.25,142.01 128.97,142.0 C 128.71,141.99 128.44,141.99 128.18,142.02 C 128.02,142.03 127.86,142.05 127.7,142.08 C 127.57,142.11 127.44,142.15 127.3,142.21 C 127.21,142.25 127.11,142.3 127.03,142.26 C 127.0,142.25 126.96,142.22 126.95,142.19 C 126.94,142.14 126.97,142.08 127.0,142.04 C 127.09,141.92 127.2,141.85 127.31,141.78 C 127.47,141.68 127.63,141.56 127.74,141.41 C 127.83,141.28 127.89,141.12 127.9,140.96 C 127.91,140.73 127.83,140.5 127.75,140.28 C 127.7,140.13 127.66,139.98 127.66,139.82 C 127.65,139.64 127.7,139.45 127.81,139.33 C 127.93,139.2 128.12,139.17 128.3,139.12 C 128.54,139.07 128.76,139.0 128.95,138.87 C 129.14,138.73 129.3,138.52 129.39,138.28 C 129.47,138.08 129.51,137.86 129.45,137.67 C 129.4,137.54 129.31,137.43 129.21,137.34 C 129.09,137.24 128.95,137.17 128.81,137.13 C 129.18,136.78 129.6,136.48 130.04,136.22 C 130.96,135.68 131.97,135.31 133.01,135.18 C 133.86,135.07 134.74,135.14 135.6,135.33 C 136.39,135.51 137.18,135.8 137.79,136.31 C 138.08,136.55 138.33,136.84 138.55,137.15 C 137.94,137.29 137.26,137.84 136.95,139.14 C 137.92,137.56 138.75,137.35 139.94,137.34 C 140.63,137.33 141.44,137.39 142.05,137.58 C 142.32,137.69 142.59,137.81 142.86,137.94 C 143.14,138.07 143.42,138.22 143.68,138.38 C 143.5,138.5 143.31,138.62 143.13,138.74 C 141.82,139.61 140.8,140.36 139.92,141.39 C 139.33,142.09 138.8,142.92 138.39,143.81 z M 151.7,149.46 C 151.4,149.64 151.05,149.71 150.7,149.72 C 150.61,149.73 150.52,149.73 150.43,149.73 C 150.35,149.72 150.26,149.72 150.18,149.72 C 150.01,149.7 149.84,149.68 149.66,149.64 C 149.45,149.58 149.22,149.51 149.01,149.41 C 148.79,149.31 148.59,149.2 148.39,149.05 C 148.03,148.79 147.71,148.43 147.36,148.1 C 146.98,147.75 146.56,147.42 146.14,147.12 C 146.68,147.15 147.24,147.18 147.8,147.18 C 148.31,147.18 148.83,147.15 149.3,147.23 C 149.55,147.28 149.79,147.35 150.02,147.44 C 150.24,147.53 150.45,147.65 150.64,147.78 C 150.79,147.88 150.93,148.0 151.05,148.12 C 151.17,148.23 151.27,148.36 151.35,148.49 C 151.44,148.62 151.51,148.77 151.57,148.93 C 151.63,149.1 151.68,149.28 151.7,149.46 z M 171.28,153.37 C 171.16,153.21 171.03,153.06 170.84,152.98 C 170.61,152.9 170.3,152.91 170.18,153.07 C 170.1,153.19 170.13,153.4 170.2,153.57 C 170.29,153.81 170.47,153.98 170.72,154.06 C 170.91,154.12 171.15,154.12 171.3,153.98 C 171.39,153.9 171.44,153.76 171.42,153.64 C 171.4,153.54 171.34,153.45 171.28,153.37 z M 172.19,154.46 C 172.24,154.49 172.28,154.53 172.34,154.55 C 172.48,154.61 172.68,154.57 172.77,154.45 C 172.84,154.36 172.84,154.22 172.8,154.11 C 172.73,153.92 172.53,153.82 172.31,153.75 C 172.12,153.69 171.92,153.65 171.8,153.76 C 171.71,153.85 171.67,154.01 171.7,154.12 C 171.76,154.3 172.01,154.35 172.19,154.46 z M 171.01,155.29 C 170.81,155.16 170.58,155.09 170.31,155.06 C 170.12,155.04 169.91,155.03 169.8,155.12 C 169.63,155.25 169.7,155.61 169.76,155.92 C 169.84,156.34 169.91,156.65 170.08,156.99 C 170.16,157.13 170.26,157.28 170.38,157.37 C 170.54,157.5 170.74,157.52 170.99,157.58 C 171.24,157.64 171.55,157.73 171.66,157.6 C 171.74,157.51 171.72,157.32 171.71,157.15 C 171.68,156.82 171.64,156.56 171.58,156.28 C 171.53,156.05 171.47,155.8 171.33,155.59 C 171.24,155.47 171.13,155.37 171.01,155.29 z M 169.35,155.64 C 169.27,155.25 169.13,154.85 168.84,154.58 C 168.72,154.47 168.58,154.38 168.42,154.35 C 168.2,154.32 167.94,154.39 167.8,154.55 C 167.65,154.71 167.62,154.95 167.62,155.17 C 167.63,155.51 167.74,155.81 167.85,156.13 C 167.91,156.33 167.97,156.53 168.09,156.68 C 168.19,156.81 168.34,156.9 168.51,156.98 C 168.83,157.13 169.24,157.25 169.44,157.04 C 169.52,156.96 169.56,156.84 169.58,156.72 C 169.6,156.51 169.51,156.32 169.45,156.12 C 169.41,155.96 169.38,155.8 169.35,155.64 z M 168.6,153.24 C 168.43,153.0 168.15,152.88 167.81,152.78 C 167.64,152.74 167.47,152.7 167.37,152.77 C 167.27,152.84 167.26,153.03 167.27,153.2 C 167.29,153.46 167.36,153.7 167.53,153.82 C 167.65,153.91 167.82,153.93 168.01,153.96 C 168.24,153.99 168.49,154.03 168.62,153.9 C 168.69,153.82 168.73,153.7 168.73,153.58 C 168.73,153.46 168.67,153.34 168.6,153.24 z M 168.33,151.97 C 168.25,151.8 168.06,151.7 167.84,151.65 C 167.65,151.6 167.43,151.58 167.33,151.7 C 167.24,151.79 167.24,151.99 167.29,152.14 C 167.37,152.35 167.55,152.47 167.76,152.52 C 167.95,152.57 168.17,152.56 168.28,152.44 C 168.36,152.35 168.38,152.21 168.37,152.09 C 168.36,152.05 168.35,152.01 168.33,151.97 z M 169.67,153.28 C 169.78,153.19 169.86,153.06 169.86,152.95 C 169.85,152.83 169.76,152.73 169.68,152.62 C 169.54,152.44 169.41,152.27 169.22,152.17 C 169.09,152.1 168.94,152.07 168.8,152.12 C 168.62,152.18 168.48,152.37 168.48,152.54 C 168.47,152.74 168.65,152.9 168.81,153.07 C 168.95,153.21 169.08,153.35 169.25,153.39 C 169.38,153.42 169.54,153.37 169.67,153.28 z M 170.24,154.01 C 170.06,153.85 169.86,153.74 169.6,153.68 C 169.44,153.64 169.25,153.63 169.15,153.73 C 169.04,153.83 169.03,154.03 169.07,154.18 C 169.15,154.43 169.42,154.52 169.71,154.6 C 169.96,154.66 170.23,154.71 170.36,154.55 C 170.42,154.47 170.44,154.34 170.41,154.24 C 170.38,154.15 170.31,154.08 170.24,154.01 z M 170.66,152.48 C 170.55,152.31 170.4,152.22 170.2,152.19 C 170.07,152.18 169.92,152.19 169.86,152.26 C 169.78,152.37 169.95,152.62 170.12,152.73 C 170.27,152.82 170.43,152.82 170.58,152.74 C 170.64,152.7 170.7,152.66 170.71,152.61 C 170.72,152.57 170.69,152.52 170.66,152.48 z M 171.85,153.13 C 171.72,153.04 171.61,152.82 171.48,152.85 C 171.42,152.86 171.35,152.93 171.32,153.0 C 171.24,153.17 171.37,153.36 171.58,153.46 C 171.76,153.55 172.01,153.57 172.05,153.45 C 172.07,153.38 172.02,153.26 171.95,153.2 C 171.92,153.17 171.88,153.16 171.85,153.13 z M 171.96,154.78 C 171.84,154.6 171.65,154.45 171.42,154.4 C 171.26,154.37 171.07,154.4 170.96,154.52 C 170.87,154.61 170.83,154.74 170.84,154.85 C 170.85,155.11 171.16,155.23 171.51,155.34 C 171.75,155.41 172.02,155.48 172.09,155.36 C 172.14,155.28 172.12,155.12 172.07,155.0 C 172.05,154.91 172.01,154.84 171.96,154.78 z M 173.62,155.39 C 173.52,155.17 173.45,154.99 173.3,154.88 C 173.18,154.79 173.02,154.73 172.83,154.74 C 172.66,154.74 172.47,154.8 172.41,154.92 C 172.34,155.05 172.41,155.25 172.5,155.41 C 172.65,155.68 172.88,155.79 173.21,155.9 C 173.42,155.97 173.68,156.04 173.76,155.96 C 173.84,155.87 173.72,155.6 173.62,155.39 z M 173.46,157.25 C 173.41,156.83 173.24,156.44 172.87,156.1 C 172.64,155.89 172.33,155.7 172.12,155.82 C 172.0,155.88 171.92,156.03 171.88,156.18 C 171.76,156.56 171.88,156.94 172.06,157.26 C 172.2,157.51 172.38,157.71 172.62,157.92 C 172.84,158.1 173.12,158.29 173.35,158.19 C 173.46,158.14 173.56,158.03 173.58,157.91 C 173.61,157.77 173.54,157.63 173.5,157.48 C 173.48,157.4 173.47,157.33 173.46,157.25 z M 175.26,157.89 C 174.95,157.28 174.28,156.09 173.92,156.49 C 173.85,156.56 173.8,156.69 173.77,156.81 C 173.68,157.13 173.74,157.41 173.81,157.73 C 173.88,158.02 173.96,158.33 174.17,158.48 C 174.32,158.59 174.54,158.63 174.75,158.65 C 174.95,158.68 175.14,158.7 175.34,158.62 C 175.4,158.59 175.46,158.56 175.48,158.51 C 175.51,158.44 175.48,158.35 175.44,158.27 C 175.38,158.13 175.33,158.03 175.26,157.89 z M 174.43,158.77 C 173.97,158.64 173.53,158.44 173.08,158.28 C 172.4,158.03 171.68,157.85 170.96,157.72 C 170.26,157.59 169.56,157.49 168.88,157.29 C 168.46,157.16 168.06,157.0 167.66,156.81 C 167.47,155.42 167.11,154.08 166.75,152.73 C 166.57,152.08 166.39,151.42 166.2,150.78 C 166.41,150.82 166.62,150.87 166.83,150.91 C 167.07,150.96 167.31,151.0 167.55,151.05 C 168.54,151.29 169.5,151.65 170.41,152.08 C 171.6,152.64 172.7,153.34 173.58,154.35 C 174.29,155.15 174.85,156.15 175.25,157.18 C 175.41,157.59 175.54,158.0 175.69,158.36 C 175.75,158.49 175.81,158.62 175.78,158.69 C 175.77,158.72 175.74,158.74 175.69,158.76 C 175.46,158.85 174.78,158.84 174.43,158.77 z M 155.64,132.7 C 155.74,132.78 155.83,132.88 155.95,132.94 C 156.13,133.05 156.37,133.09 156.58,133.03 C 156.75,132.98 156.9,132.87 156.98,132.73 C 157.07,132.56 157.06,132.35 157.04,132.15 C 157.01,131.94 156.96,131.75 156.83,131.58 C 156.74,131.45 156.6,131.35 156.45,131.31 C 156.28,131.28 156.09,131.35 155.92,131.43 C 155.72,131.53 155.55,131.66 155.38,131.81 C 155.31,131.87 155.24,131.95 155.22,132.03 C 155.19,132.12 155.21,132.23 155.26,132.32 C 155.34,132.48 155.5,132.58 155.64,132.7 z M 154.46,134.18 C 154.54,134.23 154.63,134.27 154.72,134.31 C 154.85,134.35 154.98,134.38 155.11,134.35 C 155.23,134.33 155.35,134.24 155.46,134.15 C 155.59,134.05 155.72,133.95 155.8,133.81 C 155.85,133.72 155.89,133.61 155.9,133.5 C 155.91,133.41 155.9,133.32 155.87,133.24 C 155.8,133.05 155.59,132.93 155.39,132.81 C 155.14,132.66 154.91,132.52 154.65,132.45 C 154.49,132.4 154.32,132.38 154.15,132.41 C 154.03,132.44 153.91,132.49 153.79,132.56 C 153.6,132.66 153.42,132.78 153.33,132.97 C 153.29,133.07 153.27,133.19 153.3,133.29 C 153.34,133.45 153.48,133.57 153.62,133.68 C 153.9,133.88 154.17,134.04 154.46,134.18 z M 152.01,135.08 C 152.32,135.24 152.56,135.36 152.82,135.47 C 153.13,135.61 153.47,135.74 153.82,135.74 C 153.92,135.74 154.02,135.73 154.11,135.69 C 154.21,135.65 154.29,135.57 154.38,135.49 C 154.54,135.35 154.71,135.21 154.75,135.02 C 154.76,134.93 154.75,134.83 154.72,134.75 C 154.65,134.57 154.47,134.46 154.3,134.37 C 154.03,134.22 153.77,134.1 153.49,134.05 C 153.31,134.03 153.13,134.03 152.94,134.05 C 152.76,134.08 152.58,134.12 152.42,134.19 C 152.22,134.28 152.04,134.41 151.89,134.61 C 151.82,134.7 151.76,134.81 151.78,134.89 C 151.8,134.97 151.91,135.03 152.01,135.08 z M 150.36,136.67 C 150.37,136.74 150.4,136.8 150.44,136.85 C 150.5,136.93 150.6,136.99 150.71,137.03 C 151.14,137.21 151.6,137.23 152.06,137.28 C 152.46,137.32 152.87,137.39 153.26,137.29 C 153.41,137.25 153.56,137.19 153.67,137.08 C 153.81,136.95 153.89,136.75 153.88,136.55 C 153.86,136.38 153.77,136.21 153.65,136.09 C 153.36,135.79 152.9,135.76 152.47,135.68 C 152.0,135.6 151.56,135.47 151.13,135.59 C 150.87,135.66 150.61,135.83 150.46,136.08 C 150.35,136.26 150.31,136.47 150.36,136.67 z M 149.01,136.55 C 149.0,136.65 149.0,136.76 149.06,136.82 C 149.13,136.88 149.27,136.88 149.37,136.85 C 149.58,136.79 149.67,136.61 149.83,136.43 C 150.0,136.23 150.26,136.02 150.19,135.82 C 150.16,135.72 150.05,135.63 149.93,135.59 C 149.71,135.52 149.48,135.66 149.32,135.82 C 149.12,136.02 149.03,136.25 149.01,136.55 z M 148.71,136.61 C 148.86,136.49 148.95,136.33 148.89,136.19 C 148.86,136.12 148.79,136.05 148.74,136.03 C 148.6,135.99 148.51,136.24 148.49,136.48 C 148.48,136.58 148.48,136.67 148.52,136.69 C 148.57,136.71 148.64,136.66 148.71,136.61 z M 149.27,134.61 C 149.15,134.61 149.05,134.63 148.98,134.69 C 148.86,134.79 148.85,134.97 148.81,135.16 C 148.79,135.33 148.74,135.51 148.84,135.59 C 148.91,135.64 149.04,135.66 149.12,135.63 C 149.28,135.57 149.3,135.37 149.39,135.18 C 149.48,135.01 149.62,134.86 149.57,134.75 C 149.54,134.67 149.39,134.62 149.27,134.61 z M 149.98,134.38 C 149.93,134.5 149.9,134.63 149.92,134.75 C 149.95,134.87 150.05,134.98 150.18,135.05 C 150.37,135.16 150.62,135.17 150.77,135.08 C 150.91,134.99 150.97,134.82 151.07,134.67 C 151.16,134.53 151.27,134.41 151.27,134.27 C 151.26,134.16 151.18,134.04 151.09,133.96 C 150.99,133.89 150.88,133.85 150.76,133.84 C 150.62,133.83 150.48,133.86 150.36,133.93 C 150.19,134.03 150.06,134.19 149.98,134.38 z M 149.49,133.77 C 149.37,133.83 149.24,133.84 149.18,133.94 C 149.15,134.0 149.14,134.1 149.18,134.15 C 149.23,134.26 149.39,134.24 149.54,134.21 C 149.77,134.16 149.98,134.05 149.98,133.85 C 149.97,133.77 149.93,133.66 149.87,133.63 C 149.77,133.58 149.64,133.71 149.49,133.77 z M 149.99,132.95 C 149.88,133.03 149.82,133.18 149.86,133.3 C 149.9,133.44 150.09,133.54 150.25,133.53 C 150.37,133.52 150.48,133.44 150.54,133.33 C 150.6,133.22 150.61,133.07 150.54,132.97 C 150.44,132.83 150.16,132.82 149.99,132.95 z M 150.53,132.35 C 150.42,132.34 150.32,132.42 150.28,132.52 C 150.25,132.59 150.25,132.67 150.28,132.72 C 150.34,132.82 150.51,132.84 150.64,132.78 C 150.73,132.74 150.79,132.66 150.79,132.57 C 150.79,132.46 150.65,132.35 150.53,132.35 z M 151.18,132.86 C 151.12,132.91 151.07,132.98 151.03,133.05 C 150.98,133.15 150.95,133.28 150.98,133.37 C 151.02,133.55 151.26,133.63 151.47,133.72 C 151.66,133.8 151.84,133.87 151.98,133.84 C 152.15,133.81 152.27,133.64 152.43,133.47 C 152.55,133.35 152.7,133.23 152.68,133.12 C 152.66,133.02 152.53,132.93 152.41,132.86 C 152.19,132.74 152.0,132.68 151.78,132.68 C 151.57,132.67 151.33,132.72 151.18,132.86 z M 151.29,131.89 C 151.23,131.89 151.18,131.89 151.12,131.9 C 151.02,131.92 150.92,132.0 150.89,132.09 C 150.86,132.2 150.92,132.34 151.01,132.42 C 151.15,132.54 151.34,132.53 151.54,132.47 C 151.68,132.43 151.82,132.36 151.85,132.24 C 151.87,132.13 151.79,131.97 151.68,131.91 C 151.56,131.85 151.42,131.88 151.29,131.89 z M 153.47,132.04 C 153.41,131.93 153.14,132.0 152.93,132.01 C 152.74,132.03 152.61,131.99 152.43,132.02 C 152.36,132.03 152.28,132.06 152.24,132.1 C 152.2,132.18 152.26,132.31 152.33,132.39 C 152.45,132.52 152.58,132.56 152.73,132.61 C 152.86,132.66 152.99,132.72 153.1,132.7 C 153.23,132.67 153.33,132.53 153.4,132.36 C 153.46,132.24 153.5,132.11 153.47,132.04 z M 152.41,131.72 C 152.51,131.66 152.54,131.55 152.55,131.43 C 152.55,131.34 152.53,131.24 152.48,131.19 C 152.4,131.11 152.19,131.23 152.06,131.39 C 151.97,131.5 151.92,131.63 151.97,131.71 C 152.03,131.81 152.28,131.81 152.41,131.72 z M 153.47,131.49 C 153.62,131.37 153.72,131.15 153.67,130.98 C 153.64,130.89 153.57,130.82 153.49,130.77 C 153.28,130.66 152.97,130.75 152.82,130.93 C 152.72,131.06 152.69,131.24 152.74,131.41 C 152.78,131.52 152.86,131.63 152.96,131.66 C 153.05,131.69 153.17,131.64 153.27,131.6 C 153.35,131.57 153.41,131.54 153.47,131.49 z M 154.16,131.3 C 154.08,131.26 154.02,131.22 153.96,131.22 C 153.86,131.22 153.77,131.33 153.72,131.44 C 153.66,131.57 153.65,131.72 153.7,131.82 C 153.77,131.95 153.93,132.02 154.09,132.06 C 154.28,132.11 154.48,132.11 154.63,131.98 C 154.74,131.88 154.83,131.7 154.8,131.59 C 154.76,131.41 154.4,131.41 154.16,131.3 z M 154.55,130.27 C 154.31,130.18 154.05,130.17 153.94,130.34 C 153.87,130.45 153.88,130.65 153.96,130.75 C 154.06,130.88 154.29,130.86 154.5,130.75 C 154.67,130.67 154.82,130.53 154.79,130.43 C 154.77,130.36 154.66,130.3 154.55,130.27 z M 155.4,130.62 C 155.27,130.54 155.13,130.48 154.99,130.51 C 154.85,130.54 154.72,130.7 154.68,130.86 C 154.64,131.02 154.7,131.19 154.81,131.31 C 154.9,131.43 155.03,131.51 155.16,131.51 C 155.33,131.52 155.5,131.39 155.58,131.22 C 155.66,131.08 155.67,130.89 155.58,130.77 C 155.54,130.71 155.47,130.66 155.4,130.62 z M 156.05,130.98 C 155.95,130.95 155.83,130.96 155.8,131.03 C 155.77,131.08 155.8,131.17 155.85,131.22 C 155.97,131.31 156.22,131.22 156.23,131.13 C 156.23,131.07 156.14,131.01 156.05,130.98 z M 156.04,130.25 C 156.0,130.26 155.96,130.27 155.92,130.29 C 155.85,130.33 155.77,130.4 155.76,130.47 C 155.74,130.58 155.93,130.65 156.11,130.72 C 156.29,130.8 156.46,130.87 156.53,130.79 C 156.59,130.73 156.59,130.58 156.54,130.47 C 156.45,130.29 156.22,130.23 156.04,130.25 z M 155.16,129.84 C 154.99,129.91 154.85,130.02 154.87,130.11 C 154.89,130.18 155.03,130.24 155.16,130.26 C 155.37,130.3 155.57,130.26 155.67,130.1 C 155.71,130.02 155.74,129.92 155.72,129.86 C 155.68,129.71 155.4,129.73 155.16,129.84 z M 157.84,130.25 C 157.86,130.28 157.9,130.3 157.93,130.31 C 158.03,130.35 158.13,130.33 158.23,130.28 C 158.34,130.22 158.46,130.13 158.45,130.06 C 158.45,129.97 158.24,129.92 158.06,129.98 C 157.91,130.03 157.78,130.16 157.84,130.25 z M 156.7,130.21 C 156.7,130.3 156.79,130.41 156.89,130.48 C 157.05,130.59 157.24,130.56 157.42,130.45 C 157.52,130.39 157.62,130.3 157.62,130.22 C 157.62,130.13 157.45,130.07 157.26,130.04 C 156.99,130.01 156.7,130.06 156.7,130.21 z M 156.19,129.65 C 156.13,129.68 156.06,129.73 156.04,129.8 C 156.01,129.87 156.02,129.96 156.07,130.02 C 156.15,130.14 156.33,130.12 156.52,130.04 C 156.68,129.97 156.84,129.86 156.8,129.78 C 156.78,129.73 156.7,129.69 156.63,129.66 C 156.47,129.6 156.33,129.59 156.19,129.65 z M 157.54,129.55 C 157.48,129.54 157.43,129.52 157.37,129.54 C 157.29,129.56 157.18,129.63 157.18,129.7 C 157.17,129.77 157.27,129.83 157.37,129.87 C 157.51,129.93 157.65,129.95 157.74,129.86 C 157.79,129.81 157.82,129.72 157.8,129.66 C 157.77,129.59 157.64,129.57 157.54,129.55 z M 158.28,129.66 C 158.37,129.72 158.46,129.71 158.58,129.71 C 158.74,129.69 158.94,129.69 158.98,129.57 C 159.0,129.49 158.95,129.38 158.89,129.32 C 158.78,129.22 158.62,129.29 158.44,129.36 C 158.32,129.4 158.19,129.44 158.19,129.52 C 158.2,129.57 158.24,129.62 158.28,129.66 z M 147.23,137.09 C 147.54,137.02 147.84,136.87 148.06,136.64 C 148.32,136.37 148.45,135.98 148.51,135.59 C 148.57,135.16 148.55,134.73 148.68,134.34 C 148.82,133.89 149.16,133.5 149.51,133.13 C 149.98,132.62 150.46,132.14 151.01,131.75 C 151.86,131.12 152.88,130.7 153.88,130.28 C 154.62,129.97 155.36,129.66 156.14,129.49 C 156.91,129.32 157.72,129.28 158.44,129.15 C 158.68,129.1 158.91,129.05 159.2,128.99 C 159.32,128.97 159.46,128.95 159.54,129.02 C 159.59,129.06 159.62,129.15 159.63,129.23 C 159.65,129.39 159.59,129.54 159.52,129.67 C 159.41,129.88 159.27,130.05 159.12,130.29 C 159.04,130.43 158.96,130.58 158.83,130.57 C 158.8,130.57 158.76,130.55 158.72,130.54 C 158.63,130.5 158.53,130.48 158.43,130.47 C 158.21,130.46 157.98,130.54 157.79,130.66 C 157.61,130.77 157.47,130.9 157.35,131.06 C 157.22,131.25 157.15,131.48 157.17,131.72 C 157.18,131.89 157.25,132.07 157.37,132.18 C 157.46,132.28 157.6,132.33 157.72,132.34 C 157.4,132.59 157.07,132.83 156.76,133.09 C 156.34,133.45 155.94,133.86 155.57,134.28 C 155.26,134.62 154.98,134.97 154.71,135.34 C 154.4,135.79 154.13,136.26 153.94,136.77 C 153.81,137.11 153.72,137.47 153.67,137.84 C 153.1,137.66 152.52,137.51 151.94,137.39 C 150.37,137.06 148.75,136.91 147.23,137.09 z M 154.27,170.41 C 154.42,170.26 154.37,170.02 154.33,169.76 C 154.29,169.52 154.25,169.25 154.12,169.19 C 153.96,169.12 153.67,169.33 153.49,169.55 C 153.4,169.66 153.34,169.77 153.34,169.89 C 153.34,170.03 153.43,170.17 153.54,170.29 C 153.65,170.41 153.8,170.51 153.96,170.52 C 154.03,170.53 154.11,170.52 154.18,170.49 C 154.21,170.47 154.24,170.44 154.27,170.41 z M 153.67,168.81 C 153.67,168.7 153.65,168.59 153.62,168.51 C 153.59,168.43 153.54,168.37 153.47,168.29 C 153.4,168.2 153.29,168.07 153.18,168.05 C 153.1,168.04 153.02,168.08 152.97,168.13 C 152.83,168.29 152.97,168.6 153.06,168.83 C 153.11,168.96 153.14,169.06 153.27,169.14 C 153.31,169.17 153.36,169.19 153.41,169.2 C 153.46,169.2 153.51,169.18 153.55,169.15 C 153.62,169.09 153.66,169.0 153.67,168.92 C 153.67,168.88 153.67,168.84 153.67,168.81 z M 154.61,171.41 C 154.52,171.18 154.42,170.96 154.19,170.89 C 154.07,170.86 153.92,170.86 153.83,170.93 C 153.69,171.04 153.75,171.31 153.84,171.55 C 153.92,171.79 154.03,172.01 154.24,172.04 C 154.39,172.06 154.59,171.99 154.66,171.86 C 154.73,171.74 154.68,171.57 154.61,171.41 z M 155.55,171.51 C 155.63,171.29 155.54,171.07 155.45,170.85 C 155.34,170.61 155.24,170.38 154.98,170.23 C 154.86,170.17 154.71,170.12 154.63,170.15 C 154.5,170.21 154.59,170.52 154.66,170.77 C 154.76,171.14 154.8,171.4 155.09,171.58 C 155.21,171.66 155.37,171.72 155.47,171.65 C 155.51,171.62 155.54,171.57 155.55,171.51 z M 155.83,173.53 C 155.96,173.4 156.0,173.2 155.99,173.01 C 155.99,172.76 155.91,172.51 155.78,172.29 C 155.69,172.14 155.58,172.0 155.42,171.94 C 155.28,171.88 155.1,171.89 154.98,171.96 C 154.78,172.09 154.75,172.44 154.81,172.68 C 154.87,172.91 155.03,173.05 155.18,173.26 C 155.32,173.44 155.47,173.68 155.64,173.65 C 155.71,173.63 155.78,173.59 155.83,173.53 z M 156.92,173.75 C 157.06,173.65 157.01,173.4 156.94,173.19 C 156.88,172.99 156.81,172.81 156.65,172.74 C 156.52,172.69 156.35,172.69 156.25,172.77 C 156.1,172.87 156.09,173.13 156.14,173.34 C 156.19,173.52 156.27,173.68 156.4,173.76 C 156.5,173.81 156.61,173.83 156.73,173.82 C 156.8,173.81 156.87,173.79 156.92,173.75 z M 157.03,174.35 C 156.9,174.15 156.73,174.01 156.54,174.05 C 156.45,174.07 156.36,174.12 156.32,174.19 C 156.21,174.37 156.52,174.64 156.82,174.72 C 156.95,174.75 157.07,174.76 157.11,174.7 C 157.17,174.64 157.11,174.48 157.03,174.35 z M 158.0,174.22 C 158.07,174.07 157.94,173.87 157.78,173.76 C 157.64,173.67 157.48,173.64 157.37,173.71 C 157.27,173.78 157.22,173.94 157.25,174.09 C 157.29,174.29 157.49,174.47 157.67,174.45 C 157.75,174.44 157.83,174.4 157.89,174.34 C 157.94,174.31 157.98,174.27 158.0,174.22 z M 158.34,175.14 C 158.31,174.97 158.2,174.85 158.05,174.78 C 157.91,174.71 157.74,174.69 157.62,174.77 C 157.55,174.82 157.5,174.91 157.49,174.99 C 157.48,175.17 157.71,175.3 157.95,175.36 C 158.1,175.4 158.26,175.42 158.32,175.34 C 158.35,175.29 158.35,175.21 158.34,175.14 z M 160.44,175.84 C 160.4,175.63 160.14,175.41 160.05,175.48 C 159.99,175.52 160.01,175.71 160.11,175.85 C 160.2,175.99 160.35,176.08 160.41,176.02 C 160.44,175.99 160.45,175.92 160.44,175.84 z M 159.62,175.73 C 159.39,175.57 159.02,175.58 158.99,175.7 C 158.97,175.79 159.12,175.94 159.3,176.03 C 159.51,176.13 159.76,176.16 159.8,176.05 C 159.83,175.98 159.75,175.82 159.62,175.73 z M 159.3,175.07 C 159.21,174.87 158.99,174.72 158.76,174.75 C 158.63,174.77 158.5,174.84 158.46,174.93 C 158.38,175.1 158.57,175.33 158.79,175.44 C 158.95,175.53 159.13,175.54 159.24,175.44 C 159.3,175.39 159.33,175.31 159.34,175.24 C 159.34,175.18 159.33,175.12 159.3,175.07 z M 158.95,174.02 C 158.83,173.88 158.73,173.7 158.57,173.7 C 158.47,173.71 158.35,173.78 158.3,173.87 C 158.25,174.0 158.35,174.15 158.46,174.28 C 158.58,174.41 158.7,174.52 158.85,174.49 C 158.96,174.46 159.07,174.36 159.08,174.26 C 159.09,174.18 159.01,174.11 158.95,174.02 z M 158.11,172.9 C 158.05,172.68 157.88,172.5 157.66,172.47 C 157.54,172.45 157.4,172.49 157.32,172.57 C 157.22,172.68 157.21,172.88 157.28,173.03 C 157.34,173.18 157.46,173.28 157.63,173.32 C 157.81,173.36 158.04,173.31 158.11,173.17 C 158.15,173.1 158.14,173.0 158.11,172.9 z M 157.23,171.86 C 157.0,171.7 156.74,171.73 156.4,171.75 C 156.2,171.77 155.97,171.78 155.93,171.9 C 155.88,172.0 155.99,172.2 156.12,172.32 C 156.34,172.52 156.61,172.5 156.9,172.44 C 157.07,172.41 157.24,172.36 157.32,172.22 C 157.36,172.14 157.37,172.04 157.33,171.96 C 157.31,171.92 157.27,171.89 157.23,171.86 z M 156.67,170.97 C 156.59,170.73 156.5,170.51 156.28,170.4 C 156.15,170.34 155.99,170.31 155.88,170.38 C 155.79,170.43 155.75,170.56 155.73,170.7 C 155.68,170.96 155.73,171.22 155.9,171.4 C 156.0,171.51 156.15,171.59 156.3,171.58 C 156.47,171.57 156.65,171.47 156.71,171.33 C 156.74,171.22 156.71,171.1 156.67,170.97 z M 155.81,169.66 C 155.81,169.41 155.73,169.1 155.54,168.96 C 155.42,168.87 155.26,168.84 155.09,168.86 C 154.91,168.88 154.71,168.96 154.66,169.08 C 154.61,169.21 154.7,169.38 154.77,169.54 C 154.89,169.77 154.99,169.97 155.22,170.09 C 155.34,170.16 155.51,170.21 155.62,170.15 C 155.71,170.1 155.75,169.97 155.78,169.86 C 155.8,169.79 155.8,169.72 155.81,169.66 z M 154.53,168.16 C 154.43,167.95 154.34,167.74 154.18,167.63 C 154.06,167.56 153.91,167.53 153.74,167.55 C 153.6,167.57 153.44,167.62 153.4,167.73 C 153.37,167.81 153.43,167.93 153.5,168.03 C 153.65,168.27 153.85,168.36 154.08,168.56 C 154.2,168.68 154.34,168.84 154.47,168.79 C 154.53,168.77 154.59,168.71 154.62,168.64 C 154.69,168.48 154.6,168.32 154.53,168.16 z M 152.84,166.11 C 152.76,166.09 152.68,166.07 152.59,166.08 C 152.51,166.09 152.43,166.11 152.38,166.16 C 152.24,166.28 152.34,166.55 152.44,166.76 C 152.56,166.99 152.68,167.15 152.89,167.28 C 153.06,167.38 153.28,167.46 153.44,167.38 C 153.54,167.33 153.61,167.22 153.64,167.11 C 153.7,166.93 153.63,166.74 153.52,166.58 C 153.35,166.35 153.11,166.19 152.84,166.11 z M 155.28,167.56 C 155.23,167.45 155.18,167.33 155.07,167.25 C 154.94,167.15 154.72,167.12 154.6,167.23 C 154.53,167.28 154.49,167.37 154.48,167.45 C 154.45,167.66 154.58,167.83 154.71,168.05 C 154.83,168.25 154.93,168.49 155.1,168.48 C 155.22,168.48 155.36,168.36 155.41,168.24 C 155.48,168.09 155.42,167.93 155.37,167.78 C 155.34,167.7 155.31,167.63 155.28,167.56 z M 154.54,166.64 C 154.51,166.51 154.42,166.4 154.28,166.34 C 154.16,166.29 153.99,166.29 153.9,166.36 C 153.8,166.45 153.82,166.64 153.88,166.82 C 153.93,166.98 154.01,167.13 154.15,167.16 C 154.27,167.18 154.42,167.11 154.5,167.0 C 154.55,166.92 154.57,166.84 154.57,166.75 C 154.56,166.71 154.56,166.67 154.54,166.64 z M 159.75,171.99 C 159.39,171.89 158.99,171.82 158.64,171.98 C 158.47,172.06 158.31,172.18 158.25,172.33 C 158.15,172.58 158.3,172.89 158.48,173.14 C 158.69,173.42 158.95,173.61 159.24,173.7 C 159.52,173.8 159.82,173.8 160.13,173.81 C 160.39,173.82 160.66,173.83 160.89,173.69 C 161.01,173.62 161.12,173.52 161.15,173.4 C 161.17,173.28 161.11,173.15 161.05,173.02 C 160.93,172.75 160.81,172.48 160.6,172.32 C 160.43,172.2 160.21,172.14 160.0,172.07 C 159.91,172.04 159.83,172.02 159.75,171.99 z M 157.49,170.04 C 157.28,170.19 157.04,170.31 156.91,170.54 C 156.87,170.62 156.84,170.71 156.84,170.79 C 156.85,170.94 156.97,171.07 157.08,171.21 C 157.27,171.44 157.45,171.68 157.7,171.77 C 157.87,171.83 158.08,171.81 158.28,171.78 C 158.57,171.74 158.84,171.66 159.15,171.66 C 159.37,171.67 159.61,171.71 159.77,171.58 C 159.86,171.5 159.92,171.37 159.91,171.26 C 159.89,171.16 159.83,171.08 159.76,171.0 C 159.55,170.74 159.37,170.5 159.15,170.26 C 159.0,170.11 158.84,169.95 158.65,169.87 C 158.51,169.81 158.35,169.79 158.19,169.8 C 158.01,169.8 157.83,169.82 157.68,169.91 C 157.61,169.95 157.55,169.99 157.49,170.04 z M 156.15,168.17 C 156.01,168.24 155.89,168.37 155.85,168.5 C 155.79,168.69 155.89,168.9 155.97,169.1 C 156.08,169.36 156.17,169.61 156.37,169.79 C 156.49,169.9 156.64,169.98 156.78,169.99 C 156.97,170.0 157.16,169.89 157.34,169.8 C 157.6,169.67 157.85,169.58 158.06,169.37 C 158.15,169.27 158.24,169.15 158.23,169.04 C 158.23,168.91 158.14,168.79 158.07,168.68 C 157.97,168.53 157.91,168.38 157.8,168.25 C 157.7,168.14 157.58,168.05 157.44,168.0 C 157.25,167.93 157.03,167.94 156.83,167.98 C 156.69,168.0 156.56,168.04 156.43,168.08 C 156.34,168.1 156.24,168.12 156.15,168.17 z M 155.58,167.53 C 155.68,167.66 155.81,167.77 155.95,167.83 C 156.12,167.89 156.32,167.86 156.51,167.83 C 156.69,167.8 156.86,167.76 157.01,167.66 C 157.12,167.58 157.23,167.46 157.24,167.33 C 157.25,167.2 157.18,167.07 157.1,166.95 C 156.97,166.78 156.81,166.65 156.64,166.55 C 156.43,166.42 156.19,166.34 155.92,166.26 C 155.77,166.22 155.61,166.17 155.47,166.23 C 155.38,166.28 155.3,166.37 155.26,166.47 C 155.19,166.63 155.23,166.81 155.28,166.97 C 155.34,167.18 155.44,167.36 155.58,167.53 z M 162.01,174.97 C 161.85,174.64 161.61,174.32 161.29,174.13 C 160.97,173.94 160.57,173.87 160.22,174.01 C 160.03,174.09 159.86,174.23 159.8,174.4 C 159.73,174.59 159.78,174.83 159.89,175.02 C 160.09,175.39 160.49,175.58 160.86,175.76 C 161.03,175.84 161.19,175.93 161.28,176.1 C 161.31,176.15 161.33,176.22 161.32,176.27 C 161.29,176.34 161.2,176.38 161.12,176.41 C 160.84,176.51 160.6,176.5 160.36,176.47 C 160.03,176.42 159.7,176.35 159.37,176.24 C 158.48,175.97 157.66,175.54 156.89,175.02 C 156.19,174.54 155.53,173.99 154.92,173.38 C 154.36,172.81 153.84,172.2 153.5,171.5 C 153.19,170.89 153.02,170.22 152.9,169.54 C 152.8,169.05 152.74,168.56 152.67,168.06 C 152.64,167.79 152.6,167.52 152.53,167.26 C 152.43,166.93 152.29,166.61 152.1,166.31 C 151.94,166.05 151.75,165.81 151.53,165.6 C 152.18,165.71 152.82,165.79 153.48,165.85 C 154.59,165.97 155.73,166.04 156.88,166.05 C 157.01,166.42 157.16,166.78 157.33,167.14 C 157.61,167.72 157.94,168.28 158.31,168.82 C 158.8,169.56 159.35,170.26 159.87,170.97 C 160.36,171.63 160.82,172.3 161.19,173.04 C 161.5,173.68 161.75,174.37 162.01,174.97 z M 136.58,151.35 C 136.68,151.46 136.79,151.56 136.94,151.67 C 137.05,151.75 137.18,151.84 137.27,151.86 C 137.35,151.87 137.39,151.83 137.42,151.74 C 137.55,151.4 137.5,150.35 137.34,150.11 C 137.3,150.06 137.25,150.05 137.19,150.07 C 137.12,150.1 137.04,150.16 136.96,150.21 C 136.8,150.32 136.65,150.4 136.49,150.54 C 136.39,150.64 136.27,150.75 136.27,150.87 C 136.27,150.98 136.36,151.08 136.43,151.18 C 136.48,151.24 136.53,151.3 136.58,151.35 z M 135.42,151.63 C 135.27,151.81 135.12,151.98 135.05,152.2 C 135.0,152.37 135.0,152.58 135.1,152.72 C 135.18,152.85 135.34,152.93 135.49,152.94 C 135.7,152.96 135.9,152.82 136.09,152.68 C 136.28,152.55 136.45,152.43 136.58,152.24 C 136.63,152.16 136.67,152.07 136.67,151.98 C 136.67,151.86 136.57,151.75 136.48,151.63 C 136.36,151.49 136.25,151.35 136.09,151.3 C 135.98,151.27 135.84,151.29 135.73,151.34 C 135.6,151.41 135.51,151.52 135.42,151.63 z M 134.4,152.6 C 134.53,152.5 134.66,152.4 134.77,152.28 C 134.85,152.18 134.93,152.06 134.93,151.92 C 134.93,151.86 134.91,151.8 134.88,151.77 C 134.8,151.68 134.63,151.75 134.48,151.81 C 134.27,151.9 134.14,151.99 133.97,152.07 C 133.83,152.13 133.67,152.19 133.6,152.32 C 133.55,152.4 133.53,152.51 133.56,152.6 C 133.61,152.73 133.79,152.81 133.94,152.81 C 134.12,152.81 134.26,152.71 134.4,152.6 z M 133.43,153.91 C 133.44,153.99 133.48,154.08 133.54,154.12 C 133.66,154.22 133.86,154.14 134.02,154.06 C 134.27,153.91 134.4,153.73 134.61,153.56 C 134.72,153.46 134.85,153.37 134.87,153.24 C 134.89,153.16 134.86,153.06 134.8,152.99 C 134.7,152.87 134.53,152.84 134.38,152.86 C 134.24,152.89 134.12,152.96 134.01,153.05 C 133.84,153.19 133.7,153.34 133.57,153.53 C 133.49,153.65 133.41,153.77 133.43,153.91 z M 132.17,154.0 C 132.39,154.02 132.61,154.04 132.81,153.96 C 132.96,153.91 133.1,153.79 133.22,153.66 C 133.35,153.5 133.46,153.32 133.46,153.11 C 133.47,152.96 133.43,152.81 133.34,152.71 C 133.18,152.55 132.88,152.57 132.64,152.63 C 132.43,152.67 132.26,152.75 132.06,152.8 C 131.84,152.86 131.6,152.89 131.45,153.06 C 131.37,153.15 131.32,153.3 131.33,153.44 C 131.35,153.62 131.47,153.79 131.63,153.88 C 131.79,153.97 131.98,153.99 132.17,154.0 z M 131.13,155.14 C 131.12,155.25 131.11,155.36 131.15,155.47 C 131.18,155.54 131.23,155.62 131.29,155.65 C 131.42,155.72 131.59,155.63 131.73,155.53 C 131.98,155.38 132.16,155.23 132.38,155.12 C 132.58,155.02 132.81,154.95 132.95,154.76 C 133.0,154.7 133.04,154.62 133.03,154.55 C 133.02,154.46 132.94,154.38 132.85,154.33 C 132.65,154.21 132.43,154.24 132.2,154.24 C 132.02,154.24 131.83,154.23 131.67,154.3 C 131.55,154.35 131.45,154.45 131.37,154.56 C 131.24,154.73 131.17,154.93 131.13,155.14 z M 130.44,153.71 C 130.28,153.84 130.12,153.98 129.95,154.1 C 129.8,154.19 129.64,154.27 129.55,154.42 C 129.49,154.51 129.45,154.63 129.47,154.73 C 129.48,154.86 129.56,154.97 129.65,155.08 C 129.74,155.19 129.84,155.3 129.96,155.35 C 130.08,155.39 130.22,155.38 130.36,155.35 C 130.55,155.3 130.72,155.21 130.85,155.07 C 130.98,154.92 131.06,154.72 131.12,154.52 C 131.17,154.37 131.2,154.21 131.22,154.04 C 131.23,153.88 131.23,153.71 131.13,153.61 C 131.07,153.55 130.97,153.52 130.87,153.52 C 130.78,153.52 130.68,153.54 130.6,153.59 C 130.54,153.62 130.49,153.66 130.44,153.71 z M 129.78,155.93 C 129.61,156.11 129.41,156.31 129.32,156.48 C 129.26,156.58 129.24,156.66 129.3,156.74 C 129.34,156.8 129.44,156.85 129.54,156.89 C 129.76,156.98 130.02,157.04 130.2,157.01 C 130.28,157.0 130.34,156.97 130.4,156.93 C 130.54,156.83 130.66,156.64 130.79,156.48 C 130.88,156.36 130.99,156.26 131.03,156.12 C 131.06,156.03 131.06,155.93 131.0,155.86 C 130.93,155.77 130.75,155.73 130.59,155.69 C 130.43,155.66 130.28,155.62 130.16,155.64 C 130.0,155.66 129.9,155.79 129.78,155.93 z M 128.37,155.67 C 128.27,155.8 128.18,155.94 128.06,156.08 C 127.94,156.21 127.79,156.32 127.79,156.49 C 127.79,156.57 127.83,156.66 127.89,156.71 C 127.96,156.75 128.05,156.74 128.14,156.74 C 128.35,156.73 128.54,156.74 128.72,156.68 C 128.87,156.62 129.01,156.51 129.13,156.39 C 129.29,156.23 129.4,156.05 129.49,155.84 C 129.53,155.75 129.56,155.66 129.56,155.56 C 129.55,155.45 129.49,155.33 129.42,155.23 C 129.37,155.17 129.32,155.11 129.24,155.07 C 129.17,155.03 129.08,155.01 129.01,155.02 C 128.88,155.05 128.8,155.18 128.7,155.3 C 128.59,155.44 128.47,155.54 128.37,155.67 z M 127.63,157.35 C 127.66,157.25 127.71,157.15 127.67,157.06 C 127.64,156.96 127.52,156.88 127.41,156.88 C 127.29,156.88 127.19,156.98 127.11,157.08 C 126.99,157.24 126.95,157.41 126.85,157.6 C 126.78,157.74 126.69,157.89 126.74,158.0 C 126.78,158.07 126.87,158.13 126.97,158.14 C 127.09,158.16 127.21,158.08 127.3,157.99 C 127.47,157.81 127.54,157.59 127.63,157.35 z M 129.08,157.14 C 129.05,157.03 128.9,156.98 128.76,156.95 C 128.57,156.91 128.39,156.91 128.24,156.99 C 128.09,157.06 127.98,157.21 127.87,157.35 C 127.72,157.53 127.57,157.71 127.53,157.94 C 127.51,158.05 127.52,158.18 127.58,158.28 C 127.64,158.38 127.74,158.45 127.84,158.48 C 127.98,158.51 128.14,158.44 128.27,158.36 C 128.49,158.24 128.67,158.1 128.81,157.91 C 128.94,157.74 129.04,157.54 129.08,157.3 C 129.09,157.25 129.1,157.19 129.08,157.14 z M 129.11,158.15 C 129.28,158.18 129.41,158.04 129.56,157.93 C 129.74,157.8 129.92,157.72 130.02,157.54 C 130.05,157.48 130.07,157.42 130.06,157.37 C 130.05,157.26 129.94,157.18 129.83,157.14 C 129.7,157.09 129.55,157.12 129.45,157.18 C 129.3,157.27 129.25,157.44 129.12,157.62 C 129.02,157.77 128.88,157.93 128.95,158.05 C 128.98,158.09 129.05,158.13 129.11,158.15 z M 127.58,159.11 C 127.56,159.15 127.55,159.18 127.54,159.22 C 127.54,159.28 127.54,159.35 127.57,159.4 C 127.61,159.49 127.7,159.56 127.8,159.6 C 127.93,159.65 128.07,159.64 128.19,159.59 C 128.35,159.51 128.45,159.33 128.55,159.17 C 128.63,159.05 128.72,158.95 128.75,158.81 C 128.77,158.72 128.76,158.61 128.71,158.55 C 128.64,158.48 128.48,158.5 128.35,158.54 C 128.22,158.58 128.11,158.64 128.01,158.71 C 127.84,158.81 127.66,158.93 127.58,159.11 z M 127.14,159.24 C 127.26,159.1 127.4,158.97 127.43,158.79 C 127.45,158.72 127.44,158.63 127.4,158.57 C 127.34,158.48 127.22,158.46 127.11,158.43 C 126.92,158.39 126.74,158.34 126.58,158.4 C 126.43,158.45 126.3,158.6 126.19,158.74 C 126.09,158.88 126.0,159.02 125.96,159.2 C 125.92,159.33 125.91,159.48 125.97,159.58 C 126.04,159.7 126.21,159.77 126.37,159.78 C 126.51,159.78 126.64,159.74 126.75,159.66 C 126.91,159.55 127.01,159.39 127.14,159.24 z M 126.43,160.43 C 126.38,160.49 126.33,160.56 126.32,160.64 C 126.3,160.72 126.34,160.83 126.41,160.89 C 126.49,160.95 126.6,160.97 126.69,160.95 C 126.84,160.93 126.95,160.81 127.06,160.7 C 127.21,160.55 127.35,160.42 127.5,160.25 C 127.57,160.16 127.65,160.07 127.65,159.98 C 127.64,159.89 127.56,159.8 127.47,159.75 C 127.38,159.69 127.27,159.68 127.18,159.7 C 127.05,159.73 126.94,159.86 126.84,159.97 C 126.7,160.13 126.56,160.27 126.43,160.43 z M 125.85,160.95 C 125.96,160.84 126.03,160.71 126.11,160.57 C 126.18,160.44 126.26,160.31 126.24,160.16 C 126.24,160.09 126.21,160.03 126.16,159.98 C 126.09,159.91 125.98,159.88 125.88,159.89 C 125.77,159.9 125.66,159.97 125.58,160.05 C 125.45,160.17 125.37,160.32 125.29,160.51 C 125.22,160.67 125.14,160.85 125.22,160.98 C 125.26,161.06 125.37,161.12 125.47,161.13 C 125.61,161.15 125.75,161.06 125.85,160.95 z M 125.59,161.38 C 125.5,161.42 125.4,161.44 125.31,161.5 C 125.26,161.54 125.22,161.59 125.21,161.65 C 125.2,161.72 125.24,161.8 125.29,161.87 C 125.36,161.93 125.44,161.98 125.52,161.99 C 125.67,162.02 125.83,161.94 125.97,161.85 C 126.1,161.78 126.21,161.7 126.32,161.6 C 126.39,161.55 126.45,161.48 126.48,161.4 C 126.51,161.34 126.51,161.26 126.48,161.21 C 126.44,161.14 126.35,161.11 126.26,161.11 C 126.13,161.1 126.01,161.16 125.9,161.22 C 125.8,161.28 125.7,161.34 125.59,161.38 z M 129.34,161.13 C 129.23,160.95 129.09,160.8 128.95,160.64 C 128.84,160.52 128.74,160.4 128.6,160.31 C 128.53,160.27 128.45,160.23 128.36,160.22 C 128.27,160.22 128.18,160.24 128.09,160.28 C 127.89,160.36 127.72,160.5 127.56,160.65 C 127.33,160.85 127.13,161.07 126.91,161.31 C 126.79,161.46 126.65,161.61 126.62,161.79 C 126.59,161.93 126.62,162.07 126.68,162.21 C 126.74,162.34 126.81,162.46 126.92,162.52 C 127.05,162.59 127.21,162.59 127.36,162.58 C 127.51,162.57 127.65,162.56 127.79,162.51 C 128.01,162.44 128.21,162.31 128.41,162.2 C 128.66,162.06 128.92,161.96 129.18,161.8 C 129.3,161.72 129.42,161.64 129.45,161.52 C 129.47,161.45 129.45,161.37 129.43,161.3 C 129.41,161.24 129.38,161.18 129.34,161.13 z M 131.53,159.15 C 131.42,158.98 131.31,158.8 131.21,158.63 C 131.1,158.46 131.0,158.29 130.87,158.12 C 130.8,158.03 130.72,157.94 130.62,157.9 C 130.52,157.87 130.4,157.89 130.29,157.92 C 130.1,157.99 129.95,158.1 129.79,158.22 C 129.52,158.44 129.25,158.68 129.03,158.95 C 128.92,159.09 128.81,159.25 128.74,159.43 C 128.71,159.51 128.68,159.58 128.69,159.66 C 128.7,159.75 128.75,159.84 128.81,159.92 C 128.99,160.19 129.17,160.41 129.38,160.63 C 129.51,160.76 129.64,160.88 129.8,160.95 C 129.91,160.99 130.04,161.01 130.15,161.0 C 130.28,160.99 130.4,160.95 130.52,160.89 C 130.72,160.8 130.91,160.68 131.09,160.55 C 131.25,160.44 131.42,160.32 131.55,160.17 C 131.62,160.08 131.68,159.98 131.71,159.87 C 131.74,159.75 131.74,159.62 131.71,159.5 C 131.67,159.37 131.6,159.27 131.53,159.15 z M 133.57,157.35 C 133.45,157.13 133.32,156.9 133.21,156.66 C 133.1,156.43 133.02,156.18 132.84,155.99 C 132.76,155.89 132.65,155.82 132.54,155.78 C 132.42,155.74 132.28,155.74 132.16,155.77 C 131.97,155.82 131.81,155.95 131.66,156.07 C 131.5,156.21 131.34,156.34 131.18,156.48 C 131.06,156.58 130.94,156.7 130.87,156.84 C 130.82,156.94 130.8,157.06 130.81,157.17 C 130.82,157.37 130.92,157.56 131.03,157.75 C 131.16,157.99 131.28,158.22 131.41,158.45 C 131.53,158.65 131.66,158.86 131.82,159.05 C 131.9,159.14 131.99,159.23 132.1,159.27 C 132.21,159.31 132.35,159.29 132.47,159.26 C 132.68,159.19 132.86,159.07 133.03,158.95 C 133.2,158.82 133.37,158.69 133.54,158.54 C 133.64,158.44 133.74,158.34 133.8,158.21 C 133.83,158.14 133.85,158.05 133.85,157.97 C 133.84,157.87 133.79,157.77 133.74,157.67 C 133.68,157.56 133.63,157.46 133.57,157.35 z M 135.33,155.76 C 135.19,155.55 134.99,155.33 134.81,155.08 C 134.71,154.92 134.61,154.76 134.47,154.64 C 134.4,154.58 134.31,154.54 134.22,154.5 C 134.13,154.47 134.03,154.46 133.93,154.47 C 133.81,154.48 133.7,154.53 133.6,154.59 C 133.42,154.69 133.27,154.82 133.15,154.98 C 133.08,155.08 133.02,155.19 133.0,155.31 C 132.98,155.44 133.0,155.57 133.03,155.68 C 133.07,155.85 133.12,155.97 133.2,156.14 C 133.42,156.61 133.9,157.4 134.22,157.68 C 134.28,157.74 134.34,157.77 134.43,157.8 C 134.52,157.82 134.64,157.84 134.75,157.82 C 134.93,157.79 135.07,157.68 135.23,157.59 C 135.4,157.49 135.58,157.41 135.74,157.28 C 135.82,157.21 135.9,157.13 135.93,157.05 C 135.96,156.98 135.95,156.91 135.92,156.83 C 135.84,156.58 135.61,156.2 135.47,155.97 C 135.42,155.89 135.38,155.82 135.33,155.76 z M 137.25,154.54 C 137.08,154.26 136.89,154.0 136.69,153.74 C 136.61,153.63 136.52,153.52 136.41,153.43 C 136.33,153.37 136.23,153.32 136.13,153.3 C 136.01,153.27 135.89,153.28 135.77,153.3 C 135.62,153.33 135.47,153.38 135.33,153.46 C 135.19,153.55 135.06,153.67 134.99,153.82 C 134.95,153.9 134.92,153.99 134.91,154.08 C 134.9,154.2 134.93,154.32 134.96,154.44 C 135.01,154.6 135.09,154.76 135.16,154.91 C 135.35,155.31 135.53,155.72 135.8,156.05 C 135.94,156.22 136.1,156.36 136.26,156.53 C 136.35,156.63 136.44,156.74 136.56,156.78 C 136.66,156.81 136.77,156.79 136.87,156.75 C 137.03,156.69 137.14,156.58 137.24,156.45 C 137.36,156.29 137.44,156.11 137.48,155.92 C 137.54,155.7 137.53,155.46 137.5,155.22 C 137.47,155.04 137.43,154.86 137.35,154.71 C 137.32,154.65 137.29,154.59 137.25,154.54 z M 137.48,152.47 C 137.44,152.45 137.41,152.43 137.36,152.42 C 137.31,152.41 137.25,152.41 137.19,152.43 C 137.03,152.46 136.9,152.55 136.78,152.67 C 136.73,152.72 136.68,152.78 136.66,152.85 C 136.64,152.92 136.64,152.99 136.65,153.05 C 136.67,153.14 136.71,153.22 136.76,153.29 C 136.93,153.58 137.19,153.94 137.41,154.31 C 137.54,154.52 137.66,154.74 137.82,154.89 C 137.88,154.94 137.95,154.99 138.02,155.01 C 138.11,155.04 138.21,155.05 138.29,154.99 C 138.4,154.92 138.49,154.75 138.58,154.58 C 138.62,154.51 138.66,154.44 138.69,154.39 C 138.71,154.32 138.72,154.27 138.71,154.22 C 138.7,154.13 138.66,154.02 138.61,153.91 C 138.48,153.64 138.31,153.41 138.12,153.16 C 137.92,152.89 137.71,152.62 137.48,152.47 z M 138.68,154.46 C 138.6,154.59 138.52,154.73 138.44,154.86 C 138.06,155.52 137.7,156.23 137.14,156.7 C 136.65,157.1 136.0,157.32 135.4,157.61 C 134.64,157.97 133.97,158.44 133.32,158.95 C 132.66,159.46 132.02,160.01 131.35,160.51 C 130.64,161.03 129.9,161.48 129.15,161.93 C 128.75,162.17 128.36,162.41 127.93,162.61 C 127.27,162.92 126.55,163.15 125.8,163.32 C 126.06,163.22 126.17,163.16 126.27,163.09 C 126.39,162.99 126.48,162.89 126.51,162.74 C 126.54,162.61 126.53,162.45 126.45,162.32 C 126.39,162.22 126.29,162.15 126.18,162.11 C 126.08,162.08 125.97,162.09 125.87,162.12 C 125.73,162.15 125.61,162.23 125.49,162.29 C 125.37,162.35 125.26,162.4 125.13,162.41 C 125.04,162.42 124.94,162.42 124.86,162.38 C 124.77,162.34 124.7,162.28 124.66,162.19 C 124.58,162.02 124.63,161.8 124.69,161.59 C 124.77,161.28 124.86,161.0 124.96,160.71 C 125.1,160.31 125.27,159.91 125.46,159.53 C 125.71,159.02 125.99,158.54 126.26,158.05 C 126.43,157.74 126.61,157.43 126.8,157.13 C 127.08,156.69 127.4,156.27 127.73,155.86 C 128.04,155.47 128.36,155.08 128.71,154.71 C 129.12,154.27 129.58,153.87 130.05,153.54 C 130.72,153.08 131.43,152.77 132.23,152.48 C 132.9,152.23 133.62,152.01 134.24,151.72 C 134.61,151.54 134.94,151.34 135.28,151.12 C 135.62,150.9 135.97,150.66 136.29,150.4 C 136.62,150.14 136.92,149.85 137.14,149.5 C 137.28,149.26 137.39,148.98 137.5,148.66 C 137.51,149.07 137.55,149.48 137.63,149.94 C 137.96,151.65 139.05,153.96 138.68,154.46 z M 143.91,161.49 C 144.09,161.59 144.23,161.64 144.37,161.68 C 144.52,161.73 144.66,161.76 144.82,161.79 C 144.97,161.81 145.12,161.83 145.28,161.84 C 145.43,161.84 145.59,161.83 145.74,161.82 C 146.36,161.74 146.97,161.48 147.47,161.07 C 147.55,161.85 147.79,162.66 148.19,163.34 C 148.58,164.03 149.12,164.6 149.73,164.97 C 151.09,164.97 152.5,164.29 153.15,163.15 C 153.83,164.5 155.26,165.45 156.69,165.84 C 157.33,165.66 157.94,165.35 158.38,164.89 C 158.82,164.43 159.09,163.82 159.15,163.13 C 160.32,164.3 162.06,165.13 163.54,165.14 C 164.04,164.71 164.39,164.02 164.5,163.2 C 164.55,162.79 164.55,162.34 164.49,161.89 C 164.43,161.44 164.32,160.99 164.16,160.55 C 164.9,160.9 165.71,160.99 166.34,160.75 C 166.97,160.5 167.42,159.92 167.61,159.21 C 167.34,157.36 166.38,155.56 165.25,154.43 C 165.71,154.26 166.02,153.83 166.17,153.25 C 166.31,152.66 166.29,151.91 166.19,151.19 C 165.88,150.5 165.46,149.83 164.94,149.29 C 164.42,148.74 163.81,148.32 163.19,148.07 C 163.75,147.24 163.7,145.74 163.14,144.5 C 162.87,144.25 162.57,144.01 162.23,143.8 C 162.07,143.7 161.89,143.6 161.72,143.51 C 161.54,143.43 161.36,143.35 161.18,143.27 C 160.99,143.2 160.8,143.14 160.61,143.07 C 160.41,143.01 160.21,142.96 160.01,142.92 C 159.62,142.83 159.26,142.81 158.92,142.83 C 158.96,142.28 158.78,141.63 158.38,140.98 C 157.98,140.34 157.36,139.7 156.63,139.18 C 155.77,138.93 154.88,138.85 154.11,138.95 C 153.34,139.05 152.7,139.34 152.29,139.75 C 151.89,139.18 151.25,138.62 150.46,138.17 C 149.68,137.73 148.73,137.4 147.81,137.27 C 147.42,137.4 147.05,137.57 146.72,137.8 C 146.56,137.91 146.41,138.04 146.28,138.19 C 146.15,138.33 146.03,138.48 145.93,138.64 C 145.73,138.96 145.58,139.29 145.5,139.61 C 145.41,139.93 145.38,140.24 145.41,140.53 C 145.04,140.39 144.63,140.29 144.2,140.23 C 143.76,140.18 143.31,140.18 142.85,140.23 C 142.4,140.28 141.94,140.38 141.5,140.54 C 141.39,140.58 141.28,140.63 141.17,140.67 C 141.07,140.72 140.96,140.77 140.86,140.81 C 140.68,140.9 140.53,140.96 140.36,141.06 C 140.11,141.61 140.03,142.25 140.15,142.88 C 140.28,143.51 140.6,144.12 141.06,144.62 C 140.32,144.71 139.58,144.98 138.99,145.4 C 138.7,145.61 138.44,145.86 138.23,146.14 C 138.02,146.41 137.85,146.71 137.73,147.01 C 137.87,147.71 138.17,148.44 138.61,149.07 C 139.06,149.69 139.65,150.21 140.29,150.5 C 139.2,151.33 138.66,152.82 138.89,154.43 C 139.38,155.19 140.04,155.8 140.73,156.17 C 141.43,156.54 142.17,156.68 142.81,156.59 C 142.6,157.3 142.58,158.14 142.78,159.0 C 142.87,159.43 143.03,159.86 143.22,160.28 C 143.41,160.7 143.64,161.1 143.91,161.49 z M 143.13,138.74 C 143.66,138.39 144.24,138.02 144.78,137.76 C 145.29,137.51 145.77,137.36 146.27,137.25 C 148.05,136.86 150.03,136.98 151.94,137.39 C 153.87,137.8 155.73,138.49 157.45,139.45 C 159.25,140.45 160.9,141.74 162.26,143.28 C 163.48,144.66 164.47,146.25 165.19,147.94 C 165.86,149.48 166.31,151.11 166.75,152.73 C 167.23,154.54 167.71,156.34 167.79,158.24 C 167.85,159.81 167.64,161.44 166.83,162.75 C 166.42,163.42 165.85,164.0 165.21,164.45 C 163.8,165.43 162.01,165.76 160.27,165.92 C 157.93,166.14 155.67,166.07 153.48,165.85 C 151.78,165.69 150.12,165.43 148.51,164.74 C 146.07,163.69 143.72,161.65 141.85,159.52 C 140.94,158.48 140.14,157.42 139.5,156.25 C 138.44,154.32 137.84,152.11 137.59,149.9 C 137.43,148.44 137.43,146.98 137.78,145.55 C 138.16,144.02 138.95,142.54 139.92,141.39 C 140.8,140.36 141.82,139.61 143.13,138.74 z M 153.7,158.5 C 153.76,158.41 153.82,158.34 153.88,158.26 C 154.13,157.99 154.43,157.77 154.78,157.64 C 154.99,157.57 155.21,157.52 155.45,157.5 C 155.68,157.48 155.92,157.49 156.16,157.53 C 156.4,157.57 156.63,157.63 156.87,157.73 C 157.11,157.82 157.35,157.94 157.58,158.09 C 157.59,157.98 157.6,157.87 157.62,157.76 C 157.7,157.37 157.85,157.0 158.08,156.69 C 158.21,156.51 158.36,156.35 158.54,156.22 C 158.71,156.08 158.91,155.97 159.12,155.89 C 159.32,155.81 159.54,155.76 159.76,155.73 C 159.99,155.7 160.23,155.71 160.49,155.74 C 160.44,155.61 160.4,155.49 160.37,155.36 C 160.23,154.91 160.13,154.48 160.1,154.07 C 160.08,153.83 160.09,153.61 160.12,153.39 C 160.15,153.18 160.21,152.99 160.28,152.81 C 160.35,152.64 160.44,152.49 160.55,152.36 C 160.66,152.23 160.8,152.12 160.95,152.04 C 160.85,151.94 160.76,151.84 160.68,151.75 C 160.35,151.38 160.05,150.98 159.81,150.57 C 159.67,150.33 159.55,150.08 159.45,149.85 C 159.35,149.61 159.28,149.38 159.23,149.15 C 159.18,148.94 159.15,148.73 159.15,148.54 C 159.15,148.34 159.17,148.15 159.22,147.98 C 159.11,147.93 159.0,147.88 158.9,147.83 C 158.49,147.62 158.08,147.35 157.69,147.05 C 157.46,146.87 157.24,146.68 157.04,146.48 C 156.84,146.28 156.65,146.07 156.48,145.86 C 156.31,145.66 156.16,145.44 156.05,145.25 C 155.94,145.05 155.88,144.88 155.83,144.69 C 155.73,144.7 155.63,144.7 155.53,144.71 C 155.15,144.71 154.74,144.67 154.33,144.58 C 154.09,144.53 153.85,144.46 153.61,144.37 C 153.37,144.29 153.13,144.19 152.9,144.07 C 152.69,143.96 152.47,143.84 152.27,143.71 C 152.07,143.58 151.88,143.43 151.7,143.27 C 151.64,143.33 151.58,143.39 151.51,143.44 C 151.27,143.64 150.96,143.8 150.62,143.91 C 150.41,143.98 150.2,144.03 149.97,144.06 C 149.74,144.1 149.5,144.12 149.26,144.12 C 149.03,144.12 148.79,144.1 148.55,144.08 C 148.3,144.06 148.04,144.02 147.79,143.97 C 147.78,144.06 147.77,144.15 147.76,144.24 C 147.7,144.58 147.58,144.91 147.38,145.22 C 147.27,145.4 147.13,145.58 146.97,145.74 C 146.81,145.91 146.63,146.06 146.44,146.2 C 146.26,146.33 146.06,146.45 145.86,146.55 C 145.64,146.66 145.42,146.74 145.19,146.81 C 145.24,146.89 145.3,146.98 145.34,147.07 C 145.52,147.39 145.63,147.76 145.66,148.13 C 145.68,148.35 145.67,148.58 145.64,148.8 C 145.61,149.03 145.56,149.25 145.48,149.46 C 145.41,149.67 145.32,149.87 145.21,150.06 C 145.1,150.26 144.96,150.45 144.81,150.62 C 144.9,150.67 144.99,150.72 145.08,150.78 C 145.4,150.99 145.69,151.27 145.91,151.59 C 146.04,151.78 146.15,151.99 146.24,152.21 C 146.33,152.42 146.4,152.65 146.44,152.89 C 146.49,153.11 146.51,153.34 146.52,153.57 C 146.52,153.81 146.5,154.05 146.46,154.29 C 146.51,154.28 146.56,154.29 146.61,154.29 C 146.66,154.29 146.7,154.29 146.75,154.29 C 146.93,154.31 147.11,154.34 147.3,154.4 C 147.49,154.47 147.7,154.57 147.89,154.68 C 148.12,154.82 148.33,154.97 148.52,155.15 C 148.72,155.33 148.9,155.53 149.06,155.75 C 149.22,155.96 149.36,156.18 149.47,156.41 C 149.59,156.64 149.69,156.89 149.75,157.14 C 149.84,157.1 149.94,157.06 150.03,157.03 C 150.38,156.91 150.77,156.87 151.16,156.92 C 151.4,156.95 151.64,157.01 151.87,157.09 C 152.11,157.18 152.34,157.3 152.56,157.44 C 152.77,157.57 152.97,157.73 153.16,157.9 C 153.36,158.08 153.54,158.28 153.7,158.5 z M 141.42,151.37 C 141.46,151.35 141.5,151.33 141.54,151.31 C 142.14,151.01 142.92,150.71 143.5,150.24 C 143.89,149.92 144.19,149.52 144.32,149.06 C 144.47,148.53 144.39,147.91 144.05,147.47 C 143.75,147.07 143.24,146.8 142.79,146.73 C 142.27,146.64 141.81,146.79 141.53,147.05 C 141.25,147.32 141.15,147.71 141.38,147.75 C 141.48,147.77 141.66,147.72 141.88,147.73 C 142.11,147.73 142.39,147.78 142.55,147.95 C 142.7,148.11 142.74,148.39 142.67,148.64 C 142.59,148.91 142.37,149.14 142.09,149.28 C 141.65,149.51 141.07,149.54 140.62,149.41 C 140.25,149.31 139.96,149.11 139.73,148.83 C 139.39,148.41 139.18,147.82 139.22,147.28 C 139.25,146.97 139.36,146.68 139.55,146.46 C 139.65,146.35 139.76,146.26 139.87,146.19 C 140.4,145.84 141.0,145.77 141.67,145.79 C 141.69,145.79 141.72,145.79 141.74,145.79 C 141.77,145.8 141.79,145.8 141.81,145.8 C 142.54,145.84 143.42,145.98 144.21,145.88 C 144.74,145.81 145.24,145.63 145.62,145.33 C 146.07,144.97 146.37,144.45 146.33,143.96 C 146.3,143.52 146.01,143.09 145.63,142.84 C 145.21,142.54 144.67,142.46 144.25,142.54 C 143.81,142.62 143.48,142.87 143.67,143.0 C 143.76,143.06 143.96,143.1 144.17,143.19 C 144.38,143.29 144.61,143.45 144.66,143.65 C 144.7,143.85 144.57,144.08 144.36,144.24 C 144.13,144.41 143.79,144.49 143.45,144.48 C 142.91,144.45 142.35,144.22 141.99,143.93 C 141.69,143.7 141.51,143.42 141.44,143.12 C 141.33,142.67 141.46,142.15 141.82,141.78 C 141.92,141.67 142.04,141.58 142.18,141.5 C 142.32,141.42 142.48,141.36 142.65,141.31 C 142.74,141.28 142.82,141.26 142.91,141.25 C 143.0,141.23 143.08,141.22 143.16,141.22 C 143.94,141.16 144.56,141.36 145.17,141.67 C 145.19,141.68 145.22,141.69 145.24,141.7 C 145.26,141.72 145.28,141.73 145.3,141.74 C 145.95,142.09 146.68,142.58 147.45,142.87 C 147.97,143.06 148.52,143.17 149.03,143.15 C 149.63,143.12 150.2,142.92 150.49,142.57 C 150.75,142.25 150.8,141.82 150.67,141.45 C 150.53,141.04 150.15,140.71 149.74,140.55 C 149.31,140.38 148.84,140.4 148.91,140.6 C 148.94,140.69 149.08,140.81 149.19,140.99 C 149.29,141.16 149.38,141.39 149.28,141.55 C 149.18,141.71 148.91,141.81 148.63,141.82 C 148.3,141.83 147.96,141.72 147.67,141.55 C 147.21,141.28 146.87,140.85 146.76,140.46 C 146.66,140.13 146.71,139.83 146.88,139.55 C 147.01,139.34 147.21,139.14 147.46,138.98 C 147.71,138.83 148.01,138.72 148.33,138.67 C 148.7,138.63 149.1,138.67 149.46,138.79 C 149.63,138.85 149.78,138.93 149.92,139.01 C 150.58,139.39 150.92,139.86 151.19,140.39 C 151.2,140.41 151.21,140.43 151.22,140.45 C 151.22,140.47 151.23,140.49 151.24,140.51 C 151.51,141.09 151.75,141.79 152.22,142.36 C 152.53,142.75 152.93,143.08 153.43,143.31 C 153.99,143.58 154.67,143.72 155.21,143.63 C 155.68,143.56 156.05,143.31 156.2,143.02 C 156.37,142.69 156.28,142.31 156.02,142.0 C 155.76,141.69 155.33,141.45 155.25,141.6 C 155.21,141.67 155.24,141.81 155.2,141.98 C 155.17,142.14 155.07,142.32 154.86,142.37 C 154.65,142.43 154.33,142.36 154.07,142.22 C 153.77,142.07 153.55,141.83 153.43,141.57 C 153.23,141.16 153.28,140.71 153.48,140.4 C 153.65,140.15 153.91,140.0 154.27,139.94 C 154.79,139.84 155.51,139.94 156.13,140.22 C 156.48,140.38 156.81,140.6 157.04,140.85 C 157.14,140.97 157.23,141.09 157.3,141.21 C 157.61,141.76 157.58,142.2 157.44,142.65 C 157.44,142.67 157.43,142.69 157.43,142.7 C 157.42,142.72 157.42,142.73 157.41,142.75 C 157.32,142.99 157.21,143.24 157.12,143.51 C 157.03,143.79 156.96,144.07 156.97,144.36 C 156.97,144.46 156.98,144.56 157.0,144.66 C 157.02,144.77 157.06,144.87 157.11,144.98 C 157.16,145.09 157.22,145.21 157.29,145.32 C 157.37,145.43 157.45,145.54 157.54,145.65 C 157.95,146.15 158.59,146.64 159.19,146.87 C 159.71,147.08 160.22,147.09 160.53,146.96 C 160.89,146.81 161.0,146.48 160.93,146.13 C 160.87,145.78 160.61,145.42 160.43,145.48 C 160.36,145.5 160.29,145.62 160.16,145.71 C 160.03,145.8 159.83,145.88 159.59,145.81 C 159.35,145.73 159.07,145.51 158.9,145.28 C 158.71,145.02 158.65,144.75 158.7,144.52 C 158.78,144.16 159.15,143.91 159.56,143.83 C 159.89,143.76 160.24,143.8 160.61,143.92 C 161.14,144.11 161.7,144.49 162.08,144.96 C 162.29,145.22 162.45,145.51 162.51,145.79 C 162.53,145.92 162.54,146.04 162.54,146.16 C 162.52,146.69 162.28,147.01 161.92,147.29 C 161.91,147.3 161.89,147.31 161.88,147.32 C 161.87,147.33 161.85,147.34 161.84,147.35 C 161.44,147.63 160.87,147.9 160.59,148.36 C 160.39,148.68 160.33,149.07 160.46,149.55 C 160.6,150.11 161.0,150.77 161.52,151.26 C 161.97,151.69 162.51,151.99 162.91,152.06 C 163.35,152.15 163.62,151.96 163.7,151.66 C 163.78,151.35 163.68,150.93 163.48,150.89 C 163.39,150.87 163.29,150.93 163.11,150.94 C 162.94,150.94 162.69,150.9 162.49,150.72 C 162.28,150.54 162.11,150.24 162.05,149.99 C 161.98,149.7 162.06,149.47 162.23,149.32 C 162.48,149.09 162.94,149.05 163.35,149.15 C 163.68,149.23 163.97,149.41 164.25,149.67 C 164.65,150.06 165.02,150.64 165.21,151.21 C 165.32,151.55 165.38,151.88 165.35,152.15 C 165.33,152.28 165.3,152.39 165.26,152.48 C 165.08,152.93 164.72,153.08 164.22,153.08 C 164.2,153.08 164.18,153.08 164.16,153.08 C 164.15,153.08 164.13,153.08 164.11,153.08 C 163.56,153.07 162.81,152.93 162.25,153.09 C 161.87,153.19 161.57,153.42 161.44,153.82 C 161.29,154.28 161.35,154.96 161.66,155.63 C 161.93,156.21 162.4,156.78 162.83,157.12 C 163.32,157.5 163.78,157.59 164.07,157.44 C 164.36,157.3 164.46,156.92 164.24,156.74 C 164.15,156.67 163.98,156.63 163.77,156.51 C 163.55,156.39 163.29,156.19 163.14,155.92 C 162.99,155.66 162.96,155.34 163.03,155.13 C 163.12,154.88 163.33,154.77 163.6,154.77 C 164.01,154.77 164.55,155.03 164.97,155.37 C 165.31,155.65 165.57,155.99 165.79,156.39 C 166.1,156.98 166.3,157.73 166.25,158.33 C 166.23,158.68 166.11,158.99 165.91,159.16 C 165.82,159.24 165.7,159.29 165.58,159.32 C 165.04,159.47 164.45,159.22 163.8,158.8 C 163.78,158.79 163.76,158.77 163.73,158.76 C 163.71,158.74 163.69,158.73 163.66,158.71 C 163.32,158.48 162.94,158.2 162.55,157.93 C 162.35,157.8 162.15,157.67 161.95,157.57 C 161.75,157.46 161.54,157.37 161.33,157.3 C 161.06,157.2 160.79,157.15 160.54,157.14 C 160.28,157.13 160.04,157.17 159.83,157.27 C 159.34,157.49 158.99,158.0 158.95,158.62 C 158.91,159.17 159.12,159.8 159.42,160.27 C 159.76,160.8 160.21,161.14 160.62,161.24 C 161.04,161.35 161.41,161.23 161.26,160.97 C 161.2,160.86 161.02,160.72 160.85,160.49 C 160.67,160.27 160.49,159.97 160.48,159.71 C 160.48,159.45 160.65,159.23 160.88,159.15 C 161.14,159.05 161.48,159.14 161.81,159.33 C 162.33,159.64 162.82,160.24 163.1,160.8 C 163.32,161.25 163.41,161.69 163.38,162.09 C 163.34,162.68 163.04,163.2 162.58,163.43 C 162.31,163.56 161.99,163.59 161.67,163.5 C 161.51,163.46 161.36,163.4 161.22,163.33 C 160.55,163.0 160.07,162.5 159.59,161.88 C 159.57,161.86 159.55,161.83 159.53,161.81 C 159.52,161.79 159.5,161.77 159.48,161.75 C 158.98,161.07 158.4,160.2 157.72,159.61 C 157.26,159.21 156.75,158.94 156.25,158.88 C 155.67,158.81 155.11,159.04 154.8,159.49 C 154.54,159.89 154.47,160.47 154.57,160.94 C 154.68,161.48 154.99,161.9 155.35,162.13 C 155.72,162.36 156.13,162.4 156.09,162.16 C 156.07,162.05 155.96,161.89 155.88,161.66 C 155.8,161.43 155.74,161.14 155.85,160.94 C 155.95,160.75 156.21,160.66 156.47,160.7 C 156.77,160.75 157.07,160.96 157.31,161.24 C 157.69,161.68 157.92,162.3 157.97,162.79 C 158.0,163.18 157.91,163.49 157.72,163.74 C 157.44,164.11 156.94,164.35 156.4,164.36 C 156.09,164.37 155.77,164.3 155.48,164.15 C 155.35,164.08 155.22,163.99 155.11,163.89 C 154.58,163.45 154.3,162.92 154.08,162.26 C 154.07,162.24 154.06,162.22 154.05,162.19 C 154.05,162.17 154.04,162.15 154.03,162.12 C 153.81,161.41 153.61,160.51 153.2,159.76 C 152.92,159.25 152.54,158.82 152.07,158.56 C 151.54,158.26 150.9,158.2 150.42,158.46 C 150.01,158.69 149.72,159.16 149.62,159.62 C 149.51,160.14 149.64,160.65 149.89,160.99 C 150.14,161.35 150.52,161.54 150.57,161.3 C 150.6,161.2 150.56,161.01 150.58,160.78 C 150.59,160.54 150.66,160.26 150.84,160.13 C 151.01,160.01 151.3,160.03 151.54,160.17 C 151.8,160.33 152.01,160.62 152.12,160.95 C 152.31,161.47 152.28,162.07 152.13,162.5 C 152.0,162.86 151.79,163.11 151.51,163.28 C 151.09,163.53 150.52,163.61 150.01,163.45 C 149.71,163.36 149.43,163.19 149.22,162.94 C 149.13,162.82 149.04,162.69 148.98,162.56 C 148.66,161.94 148.6,161.31 148.65,160.62 C 148.65,160.59 148.65,160.57 148.65,160.54 C 148.65,160.52 148.66,160.49 148.66,160.47 C 148.72,159.72 148.88,158.84 148.77,158.0 C 148.7,157.44 148.5,156.91 148.14,156.48 C 148.04,156.35 147.93,156.24 147.8,156.14 C 147.68,156.04 147.55,155.95 147.41,155.88 C 147.14,155.73 146.83,155.64 146.55,155.65 C 146.31,155.66 146.09,155.75 145.89,155.87 C 145.69,156.0 145.52,156.16 145.39,156.34 C 145.25,156.55 145.17,156.78 145.13,157.01 C 145.1,157.24 145.12,157.47 145.18,157.68 C 145.3,158.11 145.6,158.45 145.73,158.26 C 145.78,158.17 145.81,157.98 145.9,157.77 C 145.99,157.57 146.15,157.34 146.36,157.31 C 146.58,157.27 146.84,157.42 147.02,157.65 C 147.22,157.9 147.31,158.25 147.31,158.6 C 147.3,159.15 147.06,159.69 146.77,160.04 C 146.65,160.18 146.53,160.29 146.39,160.37 C 146.26,160.45 146.11,160.5 145.96,160.52 C 145.73,160.56 145.49,160.53 145.25,160.46 C 145.13,160.42 145.01,160.37 144.9,160.31 C 144.78,160.24 144.68,160.17 144.57,160.07 C 144.44,159.96 144.31,159.82 144.2,159.66 C 144.09,159.51 144.0,159.35 143.94,159.18 C 143.88,159.02 143.84,158.85 143.81,158.69 C 143.69,157.96 143.84,157.37 144.12,156.78 C 144.13,156.76 144.15,156.74 144.16,156.72 C 144.17,156.7 144.18,156.68 144.19,156.66 C 144.51,156.04 144.99,155.35 145.22,154.61 C 145.38,154.11 145.43,153.59 145.3,153.11 C 145.15,152.54 144.76,152.02 144.25,151.78 C 143.8,151.56 143.24,151.56 142.83,151.71 C 142.37,151.88 142.09,152.25 142.0,152.63 C 141.92,153.03 142.05,153.45 142.26,153.38 C 142.35,153.34 142.47,153.21 142.65,153.1 C 142.83,152.98 143.08,152.89 143.3,152.97 C 143.51,153.04 143.69,153.28 143.76,153.55 C 143.83,153.84 143.77,154.17 143.62,154.45 C 143.39,154.89 142.94,155.22 142.52,155.36 C 142.17,155.46 141.83,155.43 141.5,155.28 C 141.01,155.06 140.53,154.58 140.28,154.02 C 140.13,153.69 140.06,153.34 140.1,153.02 C 140.12,152.87 140.16,152.73 140.21,152.6 C 140.45,152.01 140.87,151.66 141.42,151.37 z M 152.84,151.04 C 153.58,151.44 154.04,152.14 154.27,152.94 C 154.41,153.44 154.46,153.97 154.39,154.47 C 154.32,154.95 154.13,155.39 153.98,155.86 C 153.81,156.36 153.69,156.9 153.59,157.43 C 153.38,156.87 153.14,156.28 152.87,155.72 C 152.61,155.2 152.31,154.71 152.13,154.21 C 151.93,153.68 151.86,153.15 151.88,152.67 C 151.91,151.91 152.19,151.3 152.84,151.04 z M 131.39,140.2 C 131.42,140.23 131.46,140.25 131.49,140.27 C 131.61,140.37 131.72,140.5 131.7,140.58 C 131.66,140.69 131.33,140.67 131.09,140.64 C 130.88,140.61 130.73,140.56 130.54,140.51 C 130.4,140.47 130.23,140.44 130.15,140.34 C 130.11,140.3 130.09,140.24 130.09,140.18 C 130.09,140.14 130.11,140.09 130.12,140.04 C 130.17,139.92 130.24,139.82 130.32,139.71 C 130.36,139.66 130.39,139.62 130.45,139.6 C 130.5,139.59 130.56,139.6 130.61,139.62 C 130.68,139.64 130.74,139.69 130.78,139.73 C 130.88,139.81 130.95,139.86 131.04,139.92 C 131.15,140.01 131.28,140.12 131.39,140.2 z M 153.56,149.65 C 153.48,149.29 153.52,148.97 153.65,148.68 C 153.69,148.61 153.73,148.54 153.77,148.47 C 153.82,148.41 153.88,148.34 153.93,148.28 C 153.99,148.22 154.04,148.17 154.1,148.12 C 154.15,148.08 154.2,148.04 154.26,148.0 C 154.3,147.98 154.33,147.96 154.37,147.94 C 154.41,147.92 154.45,147.9 154.5,147.88 C 154.58,147.84 154.67,147.81 154.77,147.79 C 154.96,147.74 155.18,147.71 155.41,147.71 C 155.64,147.72 155.88,147.75 156.13,147.8 C 156.37,147.84 156.63,147.89 156.88,147.94 C 157.42,148.04 157.95,148.11 158.45,148.16 C 158.16,148.41 157.87,148.67 157.63,148.98 C 157.4,149.26 157.21,149.57 156.93,149.78 C 156.79,149.89 156.62,149.97 156.44,150.02 C 156.35,150.05 156.26,150.07 156.15,150.09 C 156.05,150.1 155.94,150.13 155.82,150.14 C 155.63,150.17 155.43,150.19 155.23,150.19 C 155.04,150.19 154.85,150.17 154.66,150.13 C 154.29,150.05 153.91,149.9 153.56,149.65 z M 159.54,154.95 C 158.98,154.67 158.39,154.41 157.81,154.21 C 157.27,154.02 156.74,153.89 156.24,153.66 C 155.72,153.41 155.23,153.06 154.83,152.68 C 154.18,152.07 153.72,151.38 153.68,150.65 C 154.28,150.32 155.07,150.43 155.87,150.82 C 156.37,151.06 156.87,151.41 157.29,151.86 C 157.68,152.28 158.0,152.8 158.35,153.32 C 158.72,153.87 159.13,154.41 159.54,154.95 z M 147.14,153.64 C 147.41,153.2 147.68,152.74 147.92,152.27 C 148.03,152.06 148.14,151.84 148.25,151.63 C 148.37,151.43 148.49,151.23 148.63,151.05 C 148.78,150.87 148.95,150.71 149.13,150.57 C 149.31,150.43 149.51,150.32 149.71,150.23 C 149.87,150.16 150.04,150.1 150.21,150.07 C 150.38,150.04 150.56,150.03 150.75,150.05 C 150.94,150.07 151.13,150.12 151.32,150.19 C 151.51,150.26 151.69,150.34 151.86,150.46 C 152.03,151.2 151.75,151.81 151.24,152.29 C 150.92,152.59 150.52,152.83 150.06,152.97 C 149.84,153.03 149.6,153.07 149.36,153.1 C 149.12,153.13 148.87,153.16 148.62,153.19 C 148.35,153.23 148.08,153.29 147.84,153.36 C 147.59,153.44 147.36,153.54 147.14,153.64 z M 152.56,149.06 C 152.37,148.96 152.18,148.84 152.02,148.72 C 151.94,148.65 151.86,148.59 151.8,148.53 C 151.73,148.46 151.68,148.4 151.63,148.34 C 151.52,148.21 151.45,148.08 151.37,147.94 C 151.3,147.79 151.24,147.63 151.19,147.47 C 151.16,147.37 151.14,147.27 151.12,147.17 C 151.11,147.06 151.09,146.96 151.09,146.85 C 151.08,146.75 151.08,146.64 151.09,146.53 C 151.1,146.43 151.12,146.32 151.15,146.21 C 151.18,146.11 151.21,146.01 151.24,145.92 C 151.27,145.83 151.3,145.74 151.32,145.66 C 151.35,145.58 151.38,145.5 151.42,145.41 C 151.45,145.33 151.48,145.24 151.51,145.16 C 151.65,144.79 151.75,144.41 151.84,144.03 C 152.07,144.44 152.32,144.86 152.6,145.27 C 152.73,145.46 152.86,145.64 152.99,145.83 C 153.11,146.02 153.23,146.21 153.31,146.39 C 153.4,146.59 153.45,146.77 153.49,146.97 C 153.51,147.07 153.53,147.17 153.55,147.27 C 153.57,147.37 153.58,147.47 153.59,147.57 C 153.6,147.65 153.6,147.72 153.59,147.8 C 153.57,147.88 153.55,147.97 153.53,148.05 C 153.5,148.12 153.47,148.2 153.43,148.28 C 153.4,148.35 153.36,148.42 153.31,148.48 C 153.14,148.74 152.89,148.94 152.56,149.06 z"
		 />

		<!-- Prism Reference -->
		<cam mingh:cam="--verb EditSelectAll --verb ZoomSelection --verb FileSave " /> 
	 </g>

</svg>
