<svg
   xmlns:xlink="http://www.w3.org/1999/xlink"
   xmlns:svg="http://www.w3.org/2000/svg"
   xmlns="http://www.w3.org/2000/svg"
   xmlns:mingh="http://www.minghworld.com"
   width="300px"
   height="300px" >
	
	 <g>
		<!-- Paths -->
		<path style="fill:none;stroke:#000;stroke-width:0.25px;"
		 d="M 127.75,132.03 C 127.62,132.08 127.52,132.2 127.5,132.34 C 127.48,132.49 127.56,132.62 127.59,132.75 C 127.75,133.27 127.88,133.8 128.03,134.31 C 128.34,135.35 128.63,136.37 128.94,137.41 C 129.55,139.48 130.17,141.55 130.78,143.63 C 130.81,143.71 130.77,143.78 130.69,143.81 C 130.39,143.94 130.26,144.19 130.28,144.5 C 130.3,144.78 130.34,145.07 130.38,145.34 C 130.39,145.44 130.32,145.52 130.22,145.53 C 128.12,145.81 126.04,146.13 123.94,146.41 C 122.89,146.54 121.83,146.66 120.78,146.81 C 120.52,146.85 120.26,146.89 120.0,146.94 C 119.87,146.96 119.76,146.98 119.63,147.0 C 119.49,147.02 119.37,147.04 119.25,147.13 C 119.13,147.21 119.08,147.34 119.13,147.47 C 119.17,147.6 119.28,147.69 119.38,147.78 C 119.56,147.97 119.76,148.12 119.97,148.28 C 120.52,148.69 120.74,148.81 121.38,149.06 C 121.5,149.11 121.62,149.17 121.75,149.19 C 121.88,149.21 121.99,149.19 122.13,149.19 C 122.39,149.19 122.67,149.19 122.94,149.19 C 124.0,149.18 125.04,149.15 126.09,149.13 C 128.21,149.07 130.32,149.06 132.44,149.03 C 132.49,149.03 132.53,149.06 132.56,149.09 C 135.9,152.17 139.34,154.49 143.34,156.59 C 143.46,156.65 143.48,156.83 143.38,156.91 C 143.36,156.92 143.36,156.93 143.34,156.94 C 142.88,157.14 142.42,157.35 141.94,157.5 C 141.5,157.64 141.07,157.75 140.63,157.88 C 139.69,158.13 138.78,158.38 137.84,158.63 C 135.98,159.11 134.09,159.58 132.22,160.06 C 131.02,160.37 129.82,160.66 128.63,160.97 C 128.45,161.02 128.02,161.15 127.88,161.31 C 127.61,161.63 127.91,162.22 128.06,162.47 C 128.4,163.03 128.85,163.48 129.31,163.94 C 129.53,164.15 129.74,164.36 129.97,164.56 C 130.18,164.75 130.38,164.93 130.66,165.03 C 131.01,165.16 131.67,165.18 132.03,165.16 C 132.27,165.14 132.51,165.09 132.75,165.06 C 140.42,164.19 148.05,163.04 155.69,162.0 C 155.72,162.0 155.75,162.02 155.78,162.03 C 159.61,163.68 163.47,165.11 167.5,166.22 C 169.51,166.77 171.51,167.23 173.56,167.59 C 175.2,167.88 178.02,168.33 179.72,167.5 C 180.2,167.26 180.57,166.94 180.75,166.41 C 180.91,165.93 180.92,165.35 180.81,164.88 C 180.69,164.35 180.44,163.9 180.13,163.47 C 179.82,163.05 179.46,162.68 179.09,162.31 C 178.91,162.13 178.73,161.95 178.53,161.78 C 178.34,161.61 178.12,161.47 177.97,161.25 C 177.8,161.01 177.33,160.13 177.19,159.88 C 176.63,158.85 176.26,158.19 175.31,157.44 C 174.48,156.78 173.54,156.35 172.59,155.91 C 171.65,155.47 170.71,155.04 169.75,154.66 C 167.82,153.88 165.85,153.21 163.88,152.56 C 163.78,152.53 163.74,152.41 163.78,152.31 C 164.66,150.31 165.56,148.32 166.44,146.31 C 166.66,145.81 166.87,145.31 167.09,144.81 C 167.15,144.69 167.2,144.56 167.25,144.44 C 167.32,144.29 167.36,144.23 167.28,144.06 C 167.16,143.81 166.86,143.63 166.63,143.53 C 165.7,143.15 164.42,142.95 163.44,142.88 C 163.38,142.87 163.32,142.9 163.28,142.94 C 160.89,145.34 158.51,147.72 156.13,150.13 C 156.07,150.18 156.01,150.21 155.94,150.19 C 154.36,149.74 152.79,149.28 151.22,148.84 C 151.07,148.8 151.05,148.61 151.19,148.53 C 152.59,147.7 153.34,146.12 153.13,144.5 C 152.91,142.88 151.76,141.53 150.19,141.09 C 148.61,140.66 146.92,141.22 145.91,142.5 C 144.89,143.78 144.75,145.53 145.53,146.97 C 145.61,147.11 145.46,147.26 145.31,147.22 C 144.61,147.03 143.92,146.85 143.22,146.66 C 143.21,146.65 143.17,146.63 143.16,146.63 C 142.03,146.05 140.95,145.43 139.84,144.81 C 139.76,144.76 139.73,144.65 139.78,144.56 C 140.15,143.94 140.51,143.32 140.91,142.72 C 141.02,142.54 141.4,142.01 141.44,141.78 C 141.47,141.59 141.42,141.41 141.28,141.28 C 141.22,141.22 141.14,141.15 141.06,141.09 C 140.99,141.04 140.92,140.99 140.84,140.94 C 140.55,140.72 140.26,140.52 139.94,140.34 C 139.71,140.22 139.2,140.0 138.91,140.13 C 138.82,140.16 138.73,140.23 138.66,140.28 C 138.58,140.33 138.51,140.39 138.44,140.44 C 138.28,140.53 138.12,140.62 137.97,140.72 C 137.67,140.92 137.39,141.13 137.09,141.34 C 137.01,141.4 136.9,141.4 136.84,141.31 C 136.55,140.86 136.29,140.4 136.0,139.94 C 135.71,139.48 135.42,139.02 135.13,138.56 C 134.54,137.65 133.95,136.76 133.38,135.84 C 133.09,135.39 132.82,134.93 132.53,134.47 C 132.39,134.24 132.26,133.99 132.13,133.75 C 131.99,133.51 131.82,133.32 131.59,133.16 C 131.2,132.88 130.53,132.69 130.09,132.56 C 129.58,132.41 129.06,132.25 128.53,132.13 C 128.36,132.08 127.95,131.95 127.75,132.03 z M 131.09,139.0 C 131.28,138.96 131.52,139.03 131.75,139.16 C 131.95,139.27 132.13,139.42 132.25,139.59 C 132.32,139.7 132.37,139.8 132.41,139.88 C 132.42,139.91 132.49,139.91 132.5,139.88 C 132.51,139.85 132.49,139.81 132.5,139.78 C 132.51,139.74 132.54,139.72 132.56,139.69 C 132.64,139.57 132.76,139.48 132.94,139.47 C 133.14,139.45 133.41,139.51 133.63,139.66 C 133.81,139.79 133.96,139.97 134.06,140.16 C 134.31,140.61 134.34,141.06 134.28,141.47 C 134.17,142.24 133.78,142.93 133.22,143.53 C 133.15,143.61 133.01,143.61 132.94,143.53 C 132.08,142.52 131.4,141.52 131.0,140.59 C 130.79,140.12 130.66,139.63 130.78,139.28 C 130.83,139.14 130.93,139.04 131.09,139.0 z M 149.09,143.09 C 150.17,143.09 151.06,143.95 151.06,145.03 C 151.06,146.11 150.17,146.97 149.09,146.97 C 148.02,146.97 147.16,146.11 147.16,145.03 C 147.16,143.95 148.02,143.09 149.09,143.09 z"
		 />
		 <path style="fill:#f00;stroke:none;"
		 d="M 141.1,150.7 C 141.19,150.74 141.28,150.8 141.34,150.87 C 141.4,150.93 141.45,151.01 141.5,151.09 C 141.54,151.16 141.57,151.24 141.6,151.32 C 141.62,151.4 141.65,151.48 141.66,151.57 C 141.66,151.61 141.66,151.65 141.66,151.7 C 141.66,151.75 141.66,151.79 141.66,151.84 C 141.64,151.93 141.61,152.03 141.56,152.11 C 141.53,152.16 141.49,152.2 141.45,152.24 C 141.41,152.28 141.36,152.31 141.3,152.33 C 141.25,152.35 141.18,152.36 141.12,152.35 C 141.07,152.35 141.01,152.33 140.96,152.31 C 140.91,152.29 140.86,152.26 140.82,152.23 C 140.78,152.2 140.75,152.16 140.72,152.13 C 140.67,152.06 140.62,151.99 140.57,151.92 C 140.53,151.84 140.5,151.77 140.47,151.69 C 140.44,151.61 140.42,151.52 140.41,151.44 C 140.4,151.39 140.4,151.35 140.4,151.3 C 140.4,151.26 140.4,151.21 140.41,151.17 C 140.42,151.07 140.45,150.97 140.51,150.89 C 140.53,150.84 140.57,150.8 140.61,150.77 C 140.66,150.73 140.71,150.69 140.77,150.68 C 140.82,150.66 140.88,150.65 140.95,150.66 C 141.0,150.66 141.05,150.68 141.1,150.7 z M 128.63,162.93 C 128.37,162.62 128.16,162.3 128.04,162.02 C 128.12,162.18 128.16,162.26 128.22,162.34 C 128.41,162.63 128.73,162.95 129.16,163.21 C 129.41,163.36 129.7,163.49 130.07,163.58 C 130.29,163.64 130.54,163.67 130.66,163.69 C 130.7,163.7 130.73,163.7 130.74,163.7 C 130.75,163.7 130.76,163.7 130.76,163.7 C 130.89,163.71 131.7,163.58 132.76,163.4 C 133.81,163.22 135.11,163.0 136.73,162.73 C 138.35,162.46 140.29,162.14 142.97,161.69 C 145.65,161.25 149.07,160.68 152.91,160.05 C 150.19,159.03 147.6,157.93 145.23,156.72 C 144.8,156.75 144.38,156.77 143.98,156.8 C 143.98,156.8 143.98,156.79 143.98,156.79 C 144.38,156.61 144.8,156.43 145.23,156.24 C 147.3,157.34 149.28,158.2 151.24,158.96 C 152.92,159.6 154.58,160.17 155.84,160.57 C 155.88,160.58 155.91,160.59 155.97,160.61 C 156.09,160.66 156.3,160.77 156.46,160.89 C 156.66,161.06 156.77,161.27 156.83,161.4 C 156.87,161.49 156.89,161.54 156.93,161.72 C 156.54,161.77 156.18,161.82 155.83,161.86 C 155.79,161.68 155.77,161.63 155.74,161.54 C 155.68,161.41 155.57,161.2 155.37,161.03 C 155.24,160.92 155.09,160.84 154.95,160.78 C 151.99,161.36 148.83,161.88 146.1,162.31 C 144.29,162.6 142.67,162.85 141.21,163.06 C 139.65,163.29 138.27,163.48 136.97,163.66 C 135.25,163.91 133.69,164.15 131.56,164.42 C 131.45,164.43 131.34,164.44 131.23,164.44 C 131.09,164.44 130.95,164.41 130.81,164.37 C 130.58,164.3 130.35,164.19 130.11,164.07 C 129.72,163.86 129.32,163.61 128.94,163.26 C 128.84,163.15 128.73,163.04 128.63,162.93 z M 150.74,148.61 C 150.69,148.63 150.65,148.66 150.63,148.71 C 150.62,148.75 150.63,148.79 150.58,148.82 C 150.55,148.84 150.51,148.85 150.47,148.87 C 150.43,148.88 150.4,148.9 150.35,148.89 C 150.3,148.87 150.24,148.86 150.18,148.84 C 149.95,148.78 149.71,148.71 149.48,148.65 C 149.02,148.52 148.57,148.39 148.11,148.27 C 147.65,148.14 147.2,148.01 146.74,147.89 C 146.5,147.83 146.27,147.76 146.04,147.7 C 146.0,147.69 145.89,147.54 145.88,147.52 C 145.86,147.47 145.9,147.44 145.9,147.4 C 145.91,147.3 145.8,147.17 145.76,147.11 C 145.75,147.09 145.75,147.08 145.74,147.07 C 145.73,147.05 145.76,147.07 145.77,147.07 C 145.8,147.08 145.83,147.09 145.86,147.1 C 145.91,147.11 145.97,147.13 146.03,147.14 C 146.14,147.17 146.26,147.21 146.37,147.24 C 146.6,147.3 146.83,147.36 147.06,147.43 C 147.52,147.55 147.97,147.68 148.43,147.8 C 148.89,147.93 149.35,148.06 149.8,148.19 C 150.03,148.25 150.26,148.31 150.49,148.38 C 150.61,148.41 150.72,148.44 150.84,148.47 C 150.86,148.48 150.89,148.49 150.92,148.5 C 150.93,148.5 150.94,148.5 150.94,148.5 C 150.95,148.51 150.94,148.51 150.93,148.51 C 150.92,148.52 150.9,148.53 150.89,148.53 C 150.84,148.56 150.79,148.58 150.74,148.61 z M 138.94,144.03 C 138.94,144.04 138.95,144.05 138.96,144.06 C 138.99,144.09 139.03,144.12 139.06,144.15 C 139.1,144.18 139.15,144.22 139.19,144.25 C 139.28,144.32 139.36,144.38 139.45,144.44 C 139.5,144.48 139.55,144.53 139.61,144.57 C 139.58,144.62 139.55,144.67 139.52,144.72 C 139.51,144.71 139.51,144.71 139.5,144.71 C 139.45,144.67 139.39,144.62 139.34,144.58 C 139.25,144.52 139.17,144.46 139.08,144.39 C 139.03,144.36 138.99,144.32 138.94,144.28 C 138.9,144.25 138.87,144.21 138.84,144.18 C 138.79,144.14 138.75,144.09 138.71,144.05 C 138.65,143.98 138.59,143.91 138.54,143.85 C 138.45,143.74 138.37,143.63 138.28,143.53 C 138.03,143.19 137.78,142.86 137.55,142.51 C 137.34,142.22 137.14,141.93 136.95,141.63 C 137.0,141.6 137.04,141.56 137.09,141.53 C 137.29,141.83 137.49,142.13 137.7,142.42 C 137.9,142.72 138.11,143.01 138.33,143.3 C 139.03,142.48 139.74,141.65 140.44,140.83 C 140.64,140.97 140.84,141.12 140.97,141.22 C 140.29,142.15 139.61,143.09 138.94,144.03 z M 176.66,161.36 C 177.1,161.96 177.54,162.57 177.98,163.17 C 177.96,163.18 177.94,163.19 177.93,163.2 C 177.65,163.34 177.24,163.38 176.9,163.39 C 176.54,163.4 176.25,163.38 175.96,163.34 C 175.77,163.32 175.58,163.3 175.39,163.26 C 175.43,162.69 175.47,162.11 175.51,161.54 C 175.7,161.54 175.89,161.53 176.09,161.5 C 176.29,161.48 176.49,161.44 176.66,161.36 z M 173.77,161.35 C 173.92,161.38 174.06,161.4 174.2,161.42 C 174.47,161.46 174.75,161.5 175.03,161.52 C 174.99,162.07 174.95,162.63 174.91,163.18 C 174.49,163.11 174.06,163.01 173.63,162.91 C 173.68,162.39 173.73,161.87 173.77,161.35 z M 171.79,160.98 C 172.24,161.08 172.69,161.17 173.14,161.25 C 173.09,161.75 173.05,162.25 173.0,162.75 C 172.94,162.74 172.88,162.72 172.82,162.71 C 172.3,162.57 171.79,162.43 171.28,162.27 C 171.45,161.84 171.62,161.41 171.79,160.98 z M 178.24,162.93 C 177.81,162.34 177.38,161.75 176.96,161.15 C 177.21,160.85 177.22,160.3 177.06,159.92 C 177.09,159.98 177.12,160.04 177.15,160.09 C 177.2,160.18 177.25,160.27 177.29,160.35 C 177.33,160.43 177.38,160.51 177.42,160.59 C 177.46,160.67 177.51,160.75 177.55,160.83 C 177.58,160.89 177.62,160.95 177.65,161.01 C 177.69,161.07 177.72,161.13 177.75,161.18 C 177.78,161.22 177.8,161.26 177.82,161.29 C 177.85,161.32 177.87,161.35 177.89,161.38 C 177.91,161.4 177.93,161.42 177.94,161.45 C 177.96,161.47 177.98,161.48 178.0,161.5 C 178.28,161.78 178.39,162.02 178.41,162.34 C 178.41,162.5 178.39,162.68 178.29,162.85 C 178.28,162.88 178.26,162.91 178.24,162.93 z M 166.48,143.63 C 166.69,143.72 166.81,143.94 166.77,144.17 C 166.75,144.26 166.52,144.68 166.48,144.76 C 166.28,145.15 166.08,145.54 165.88,145.93 C 165.47,146.71 165.06,147.5 164.66,148.28 C 164.25,149.06 163.85,149.84 163.44,150.62 C 163.24,151.01 163.03,151.4 162.83,151.79 C 162.78,151.89 162.73,151.99 162.68,152.09 C 162.65,152.14 162.63,152.18 162.6,152.23 C 162.59,152.26 162.59,152.29 162.55,152.28 C 162.53,152.27 162.5,152.26 162.47,152.26 C 162.26,152.19 162.05,152.12 161.84,152.06 C 161.79,152.04 161.74,152.03 161.69,152.01 C 161.67,152.01 161.66,152.0 161.65,152.0 C 161.64,152.0 161.62,152.0 161.63,151.98 C 161.64,151.96 161.65,151.93 161.67,151.91 C 161.72,151.81 161.77,151.72 161.83,151.62 C 161.94,151.43 162.04,151.24 162.15,151.04 C 162.37,150.66 162.58,150.28 162.8,149.89 C 163.23,149.12 163.66,148.36 164.1,147.59 C 164.53,146.82 164.96,146.06 165.39,145.29 C 165.61,144.9 165.82,144.52 166.04,144.14 C 166.06,144.09 166.18,143.89 166.19,143.85 C 166.22,143.74 166.19,143.62 166.11,143.54 C 166.09,143.52 166.07,143.51 166.04,143.49 C 166.03,143.49 166.02,143.48 166.01,143.48 C 166.0,143.47 165.97,143.47 165.99,143.47 C 165.99,143.47 166.0,143.47 166.01,143.48 C 166.06,143.49 166.11,143.51 166.16,143.52 C 166.27,143.56 166.37,143.6 166.48,143.63 z M 129.77,132.61 C 129.86,132.64 129.95,132.66 130.05,132.69 C 130.19,132.73 130.34,132.78 130.48,132.83 C 130.56,132.85 130.64,132.88 130.71,132.9 C 130.98,133.3 131.26,133.71 131.53,134.11 C 131.74,134.42 131.94,134.72 132.14,135.03 C 133.53,137.17 134.61,139.24 136.33,141.88 C 137.1,143.06 137.99,144.35 138.35,144.83 C 138.39,144.88 138.42,144.93 138.48,144.98 C 138.59,145.09 138.77,145.23 138.94,145.34 C 139.18,145.51 139.37,145.62 139.6,145.74 C 140.2,146.06 141.07,146.48 141.56,146.68 C 141.65,146.71 141.73,146.74 141.88,146.79 C 142.06,146.85 142.34,146.94 142.56,146.96 C 142.8,146.98 142.96,146.93 142.91,146.81 C 142.87,146.71 142.7,146.57 142.55,146.48 C 142.63,146.51 142.7,146.55 142.77,146.59 C 142.83,146.62 142.88,146.65 142.95,146.68 C 143.0,146.71 143.06,146.74 143.12,146.78 C 143.3,146.9 143.46,147.1 143.4,147.24 C 143.37,147.3 143.3,147.36 143.23,147.39 C 143.08,147.47 142.94,147.47 142.79,147.46 C 142.5,147.43 142.19,147.37 141.76,147.23 C 140.86,146.95 139.44,146.34 138.67,145.92 C 138.38,145.76 138.18,145.62 137.99,145.4 C 137.79,145.18 137.6,144.87 137.4,144.57 C 137.08,144.1 136.76,143.64 136.44,143.17 C 136.1,142.67 135.77,142.16 135.44,141.64 C 134.51,140.16 133.65,138.65 132.74,137.16 C 132.14,136.19 131.53,135.24 130.9,134.29 C 130.53,133.73 130.15,133.17 129.77,132.61 z M 120.65,148.58 C 120.65,148.58 120.64,148.57 120.63,148.57 C 120.45,148.46 120.25,148.32 120.06,148.18 C 124.68,147.82 129.3,147.46 133.92,147.11 C 134.2,147.28 134.47,147.45 134.63,147.55 C 134.69,147.59 134.73,147.62 134.78,147.67 C 134.79,147.69 134.81,147.7 134.82,147.72 C 130.1,148.01 125.38,148.29 120.65,148.58 z M 130.84,145.27 C 130.85,145.35 130.86,145.46 130.88,145.59 C 130.78,145.61 130.67,145.62 130.57,145.63 C 130.52,145.33 130.49,145.02 130.45,144.71 C 130.43,144.54 130.41,144.37 130.45,144.25 C 130.5,144.11 130.6,144.02 130.72,143.96 C 130.81,143.92 130.9,143.9 131.0,143.89 C 131.11,144.26 131.22,144.64 131.33,145.01 C 132.94,145.39 138.76,146.9 140.7,147.4 C 141.16,147.52 141.4,147.58 141.87,147.67 C 142.14,147.72 142.5,147.78 142.78,147.82 C 142.94,147.85 143.08,147.86 143.29,147.85 C 143.48,147.84 143.73,147.8 143.84,147.71 C 143.88,147.68 143.9,147.64 143.91,147.61 C 143.93,147.54 143.92,147.48 143.9,147.42 C 143.83,147.23 143.66,147.06 143.14,146.78 C 143.32,146.83 143.5,146.88 143.68,146.93 C 143.78,146.96 143.88,147.0 143.97,147.06 C 144.11,147.16 144.24,147.29 144.3,147.46 C 144.33,147.56 144.34,147.67 144.31,147.76 C 144.28,147.87 144.2,147.97 144.11,148.04 C 143.94,148.17 143.71,148.21 143.49,148.23 C 143.28,148.24 143.07,148.22 142.87,148.2 C 142.27,148.12 141.67,148.0 141.08,147.86 C 140.22,147.66 139.36,147.42 138.51,147.2 C 137.68,146.98 136.85,146.77 136.02,146.56 C 135.04,146.31 134.05,146.06 133.07,145.81 C 132.44,145.65 131.82,145.48 131.18,145.34 C 131.07,145.32 130.95,145.29 130.84,145.27 z M 139.16,149.85 C 139.24,149.89 139.32,149.94 139.39,150.01 C 139.45,150.08 139.5,150.15 139.54,150.23 C 139.58,150.3 139.62,150.37 139.64,150.45 C 139.67,150.53 139.69,150.61 139.7,150.69 C 139.72,150.78 139.72,150.87 139.7,150.96 C 139.69,151.06 139.65,151.15 139.6,151.24 C 139.57,151.28 139.53,151.32 139.49,151.36 C 139.45,151.39 139.4,151.42 139.34,151.44 C 139.28,151.46 139.22,151.46 139.17,151.46 C 139.11,151.45 139.05,151.44 139.0,151.41 C 138.96,151.39 138.91,151.36 138.87,151.33 C 138.84,151.3 138.81,151.27 138.78,151.23 C 138.72,151.17 138.67,151.1 138.63,151.03 C 138.59,150.96 138.55,150.88 138.52,150.81 C 138.49,150.73 138.47,150.65 138.46,150.56 C 138.44,150.47 138.44,150.38 138.46,150.29 C 138.47,150.2 138.51,150.1 138.56,150.02 C 138.59,149.97 138.63,149.93 138.67,149.9 C 138.72,149.86 138.77,149.83 138.83,149.82 C 138.89,149.8 138.95,149.8 139.0,149.81 C 139.06,149.81 139.11,149.83 139.16,149.85 z M 166.61,163.16 C 166.48,161.86 166.63,160.7 167.16,159.48 C 167.22,159.34 167.3,159.2 167.37,159.06 C 167.4,158.99 167.43,158.92 167.47,158.85 C 167.52,158.78 167.56,158.73 167.63,158.69 C 167.79,158.59 167.93,158.63 168.09,158.66 C 168.24,158.69 168.4,158.73 168.55,158.77 C 168.85,158.85 169.15,158.95 169.44,159.06 C 169.52,159.08 169.59,159.11 169.66,159.14 C 169.74,159.17 169.8,159.2 169.85,159.28 C 169.93,159.4 169.93,159.59 169.86,159.72 C 169.56,160.28 169.29,160.83 169.12,161.45 C 168.97,161.98 168.89,162.77 168.89,163.31 C 168.89,163.47 168.9,163.62 168.91,163.78 C 168.91,163.8 168.9,163.88 168.93,163.89 C 168.97,163.9 169.0,163.91 169.04,163.92 C 169.12,163.94 169.19,163.97 169.27,163.99 C 169.57,164.08 169.87,164.16 170.17,164.24 C 170.78,164.41 171.39,164.56 172.0,164.71 C 173.21,164.99 174.43,165.22 175.69,165.31 C 176.31,165.35 176.93,165.37 177.55,165.3 C 178.05,165.24 178.91,165.06 179.25,164.57 C 179.62,164.06 179.49,163.25 179.22,162.76 C 179.06,162.48 178.85,162.26 178.62,162.04 C 178.56,161.99 178.5,161.94 178.44,161.89 C 178.44,161.89 178.44,161.88 178.44,161.88 C 178.44,161.88 178.44,161.89 178.44,161.89 C 178.45,161.89 178.45,161.89 178.46,161.9 C 178.46,161.9 178.47,161.91 178.48,161.92 C 178.49,161.93 178.51,161.94 178.52,161.96 C 178.55,161.98 178.58,162.01 178.61,162.03 C 178.73,162.14 178.84,162.24 178.95,162.35 C 179.17,162.57 179.39,162.79 179.58,163.04 C 179.78,163.3 179.91,163.56 179.95,163.89 C 180.0,164.23 179.95,164.51 179.79,164.81 C 179.62,165.11 179.39,165.28 179.09,165.42 C 178.03,165.92 176.48,165.93 175.38,165.84 C 174.12,165.74 172.9,165.49 171.68,165.19 C 169.41,164.62 166.7,163.77 164.49,163.01 C 160.39,161.59 154.48,159.21 150.47,157.55 C 146.48,155.89 140.62,153.3 136.86,151.15 C 135.71,150.49 134.61,149.78 133.55,149.0 C 133.51,148.97 133.48,148.95 133.45,148.93 C 133.43,148.91 133.41,148.9 133.4,148.89 C 133.37,148.87 133.42,148.88 133.44,148.88 C 133.52,148.88 133.6,148.88 133.69,148.88 C 133.85,148.87 134.01,148.87 134.18,148.87 C 134.22,148.87 134.26,148.87 134.3,148.87 C 134.32,148.86 134.34,148.85 134.36,148.87 C 134.38,148.88 134.4,148.89 134.41,148.9 C 134.48,148.95 134.55,149.0 134.61,149.05 C 134.75,149.15 134.88,149.24 135.02,149.34 C 135.29,149.52 135.56,149.71 135.84,149.89 C 135.97,149.98 136.11,150.07 136.25,150.15 C 136.32,150.2 136.39,150.24 136.46,150.28 C 136.5,150.3 136.53,150.33 136.57,150.35 C 136.59,150.36 136.58,150.32 136.57,150.31 C 136.57,150.29 136.57,150.27 136.57,150.25 C 136.55,149.96 136.53,149.67 136.51,149.38 C 136.51,149.3 136.5,149.23 136.5,149.16 C 136.5,149.12 136.49,149.08 136.5,149.04 C 136.51,149.01 136.53,148.97 136.55,148.94 C 136.61,148.81 136.67,148.67 136.73,148.54 C 136.75,148.49 136.88,148.19 136.93,148.15 C 137.0,148.11 137.09,148.15 137.14,148.18 C 137.21,148.21 137.28,148.24 137.34,148.26 C 137.48,148.32 137.61,148.38 137.75,148.44 C 137.81,148.47 137.88,148.49 137.95,148.52 C 138.02,148.55 138.09,148.58 138.16,148.62 C 138.23,148.66 138.24,148.72 138.21,148.8 C 138.19,148.87 138.16,148.94 138.14,149.01 C 138.09,149.15 138.04,149.29 137.99,149.42 C 137.97,149.49 137.94,149.56 137.92,149.63 C 137.91,149.67 137.89,149.7 137.88,149.73 C 137.87,149.77 137.88,149.81 137.88,149.84 C 137.89,149.99 137.9,150.14 137.91,150.28 C 137.92,150.43 137.92,150.57 137.93,150.72 C 137.94,150.79 137.94,150.87 137.94,150.94 C 137.95,150.98 137.95,151.01 137.95,151.05 C 137.95,151.07 137.95,151.09 137.95,151.1 C 137.95,151.12 137.95,151.14 137.97,151.15 C 138.26,151.31 138.55,151.46 138.84,151.62 C 140.7,152.58 143.72,154.01 145.63,154.87 C 147.92,155.9 150.23,156.86 152.55,157.82 C 156.86,159.58 162.18,161.7 166.61,163.16 z M 142.99,151.49 C 143.04,151.51 143.09,151.54 143.13,151.57 C 143.18,151.6 143.21,151.64 143.25,151.68 C 143.28,151.72 143.31,151.76 143.33,151.8 C 143.36,151.84 143.38,151.88 143.4,151.92 C 143.42,151.96 143.44,152.0 143.45,152.04 C 143.47,152.08 143.48,152.12 143.49,152.17 C 143.51,152.21 143.52,152.26 143.53,152.3 C 143.53,152.35 143.54,152.39 143.54,152.44 C 143.55,152.48 143.55,152.53 143.54,152.58 C 143.54,152.63 143.53,152.68 143.52,152.73 C 143.51,152.78 143.49,152.82 143.47,152.87 C 143.45,152.92 143.42,152.97 143.38,153.01 C 143.35,153.06 143.3,153.1 143.25,153.13 C 143.19,153.16 143.13,153.18 143.06,153.19 C 143.0,153.19 142.93,153.18 142.87,153.16 C 142.81,153.14 142.76,153.11 142.72,153.07 C 142.68,153.04 142.64,153.0 142.61,152.96 C 142.58,152.92 142.55,152.89 142.53,152.85 C 142.48,152.77 142.44,152.69 142.41,152.61 C 142.37,152.52 142.35,152.43 142.33,152.35 C 142.32,152.3 142.32,152.26 142.31,152.21 C 142.31,152.16 142.31,152.11 142.31,152.06 C 142.31,152.02 142.32,151.97 142.33,151.92 C 142.34,151.87 142.36,151.82 142.38,151.78 C 142.41,151.72 142.44,151.66 142.48,151.61 C 142.52,151.56 142.57,151.52 142.63,151.49 C 142.69,151.47 142.75,151.45 142.81,151.45 C 142.87,151.46 142.93,151.47 142.99,151.49 z M 144.88,152.25 C 144.94,152.27 144.99,152.3 145.04,152.33 C 145.08,152.37 145.12,152.4 145.15,152.44 C 145.19,152.48 145.22,152.52 145.24,152.56 C 145.27,152.6 145.29,152.65 145.31,152.69 C 145.33,152.73 145.35,152.77 145.37,152.82 C 145.38,152.86 145.4,152.9 145.41,152.95 C 145.42,152.99 145.43,153.04 145.44,153.08 C 145.45,153.13 145.46,153.18 145.46,153.22 C 145.46,153.27 145.46,153.32 145.46,153.37 C 145.45,153.42 145.45,153.47 145.43,153.52 C 145.42,153.57 145.4,153.62 145.38,153.67 C 145.36,153.72 145.33,153.77 145.3,153.81 C 145.26,153.86 145.21,153.9 145.16,153.93 C 145.1,153.97 145.04,153.99 144.97,154.0 C 144.91,154.0 144.84,153.99 144.78,153.97 C 144.72,153.95 144.66,153.92 144.61,153.88 C 144.57,153.85 144.54,153.81 144.5,153.77 C 144.47,153.73 144.45,153.69 144.42,153.65 C 144.37,153.57 144.33,153.49 144.29,153.4 C 144.26,153.32 144.23,153.23 144.21,153.14 C 144.21,153.09 144.2,153.04 144.2,153.0 C 144.19,152.95 144.19,152.9 144.2,152.85 C 144.2,152.8 144.21,152.75 144.22,152.7 C 144.23,152.65 144.25,152.6 144.27,152.55 C 144.29,152.49 144.33,152.44 144.37,152.39 C 144.41,152.34 144.46,152.29 144.52,152.26 C 144.57,152.23 144.64,152.22 144.7,152.22 C 144.76,152.22 144.83,152.23 144.88,152.25 z M 164.7,158.86 C 164.78,158.88 164.85,158.92 164.92,158.96 C 164.97,159.0 165.03,159.05 165.08,159.1 C 165.12,159.15 165.16,159.2 165.19,159.26 C 165.23,159.31 165.26,159.36 165.28,159.42 C 165.31,159.47 165.33,159.52 165.35,159.58 C 165.37,159.63 165.39,159.69 165.41,159.74 C 165.44,159.85 165.46,159.97 165.48,160.08 C 165.49,160.2 165.49,160.32 165.48,160.44 C 165.47,160.51 165.46,160.57 165.45,160.63 C 165.43,160.69 165.42,160.75 165.39,160.81 C 165.37,160.87 165.34,160.93 165.31,160.98 C 165.29,161.01 165.27,161.04 165.25,161.07 C 165.23,161.1 165.2,161.13 165.18,161.15 C 165.12,161.21 165.05,161.26 164.98,161.29 C 164.94,161.31 164.9,161.32 164.86,161.33 C 164.82,161.34 164.78,161.35 164.74,161.35 C 164.69,161.35 164.65,161.34 164.61,161.34 C 164.58,161.33 164.56,161.32 164.53,161.31 C 164.48,161.29 164.43,161.27 164.38,161.23 C 164.35,161.21 164.32,161.19 164.3,161.16 C 164.28,161.14 164.26,161.12 164.24,161.1 C 164.21,161.07 164.19,161.04 164.16,161.01 C 164.12,160.96 164.09,160.9 164.06,160.85 C 164.0,160.75 163.95,160.64 163.91,160.53 C 163.87,160.42 163.84,160.31 163.82,160.19 C 163.81,160.12 163.8,160.05 163.8,159.98 C 163.79,159.92 163.79,159.86 163.8,159.8 C 163.8,159.74 163.81,159.68 163.82,159.62 C 163.83,159.56 163.85,159.5 163.87,159.44 C 163.89,159.38 163.91,159.32 163.94,159.26 C 163.95,159.23 163.97,159.2 163.98,159.18 C 164.0,159.14 164.02,159.11 164.05,159.09 C 164.07,159.06 164.1,159.03 164.13,159.0 C 164.16,158.97 164.19,158.95 164.22,158.93 C 164.26,158.91 164.3,158.89 164.34,158.88 C 164.38,158.86 164.42,158.85 164.46,158.85 C 164.54,158.84 164.62,158.84 164.7,158.86 z M 161.7,157.95 C 161.77,157.97 161.84,158.01 161.9,158.05 C 161.96,158.08 162.01,158.13 162.06,158.18 C 162.1,158.23 162.14,158.28 162.17,158.33 C 162.21,158.38 162.23,158.43 162.26,158.48 C 162.29,158.53 162.31,158.59 162.33,158.64 C 162.35,158.69 162.37,158.74 162.39,158.8 C 162.42,158.9 162.44,159.02 162.46,159.13 C 162.47,159.25 162.47,159.36 162.46,159.48 C 162.45,159.54 162.44,159.6 162.43,159.66 C 162.41,159.72 162.39,159.77 162.37,159.83 C 162.35,159.89 162.32,159.95 162.29,160.0 C 162.27,160.03 162.25,160.06 162.23,160.09 C 162.2,160.11 162.18,160.14 162.15,160.17 C 162.1,160.22 162.03,160.26 161.96,160.3 C 161.92,160.31 161.89,160.32 161.85,160.33 C 161.81,160.34 161.76,160.35 161.72,160.35 C 161.68,160.35 161.64,160.34 161.6,160.33 C 161.57,160.33 161.55,160.32 161.53,160.31 C 161.47,160.3 161.43,160.27 161.38,160.24 C 161.35,160.22 161.32,160.19 161.3,160.17 C 161.28,160.15 161.26,160.13 161.24,160.11 C 161.21,160.08 161.19,160.05 161.16,160.02 C 161.13,159.97 161.09,159.92 161.06,159.87 C 161.0,159.77 160.96,159.67 160.92,159.56 C 160.88,159.45 160.85,159.34 160.83,159.23 C 160.82,159.17 160.81,159.1 160.81,159.03 C 160.8,158.97 160.8,158.91 160.81,158.85 C 160.81,158.8 160.82,158.74 160.83,158.68 C 160.84,158.62 160.85,158.56 160.87,158.5 C 160.89,158.44 160.92,158.39 160.94,158.33 C 160.96,158.3 160.97,158.27 160.99,158.25 C 161.01,158.21 161.03,158.19 161.05,158.16 C 161.08,158.13 161.1,158.1 161.13,158.08 C 161.16,158.05 161.2,158.03 161.23,158.01 C 161.27,157.99 161.3,157.97 161.34,157.96 C 161.38,157.95 161.42,157.94 161.46,157.93 C 161.54,157.93 161.62,157.93 161.7,157.95 z M 158.77,157.03 C 158.84,157.05 158.91,157.09 158.97,157.13 C 159.02,157.16 159.07,157.21 159.12,157.25 C 159.16,157.3 159.2,157.35 159.23,157.4 C 159.26,157.45 159.29,157.49 159.32,157.54 C 159.34,157.59 159.36,157.64 159.38,157.69 C 159.4,157.74 159.42,157.79 159.44,157.84 C 159.47,157.95 159.49,158.06 159.51,158.16 C 159.52,158.28 159.52,158.39 159.51,158.5 C 159.5,158.56 159.49,158.62 159.48,158.67 C 159.47,158.73 159.45,158.79 159.42,158.84 C 159.4,158.9 159.37,158.95 159.34,159.01 C 159.32,159.04 159.3,159.06 159.28,159.09 C 159.26,159.12 159.24,159.14 159.21,159.17 C 159.15,159.22 159.09,159.26 159.02,159.29 C 158.98,159.3 158.95,159.31 158.91,159.32 C 158.87,159.33 158.83,159.33 158.79,159.33 C 158.75,159.33 158.71,159.33 158.67,159.32 C 158.64,159.31 158.62,159.31 158.6,159.3 C 158.55,159.28 158.5,159.26 158.46,159.22 C 158.41,159.19 158.36,159.15 158.32,159.1 C 158.3,159.07 158.27,159.04 158.25,159.01 C 158.21,158.97 158.18,158.92 158.15,158.87 C 158.1,158.77 158.05,158.68 158.01,158.57 C 157.97,158.47 157.94,158.37 157.93,158.26 C 157.91,158.2 157.91,158.13 157.9,158.07 C 157.9,158.01 157.9,157.95 157.9,157.9 C 157.91,157.84 157.91,157.78 157.92,157.73 C 157.93,157.67 157.95,157.61 157.97,157.56 C 157.99,157.5 158.01,157.44 158.04,157.39 C 158.05,157.36 158.07,157.33 158.08,157.31 C 158.1,157.28 158.12,157.25 158.14,157.22 C 158.17,157.19 158.2,157.17 158.22,157.14 C 158.25,157.12 158.28,157.1 158.32,157.08 C 158.35,157.06 158.39,157.04 158.43,157.03 C 158.47,157.02 158.51,157.01 158.55,157.01 C 158.62,157.0 158.7,157.01 158.77,157.03 z M 153.35,155.29 C 153.44,155.32 153.52,155.37 153.59,155.43 C 153.63,155.46 153.67,155.5 153.7,155.54 C 153.75,155.6 153.79,155.66 153.83,155.73 C 153.9,155.86 153.95,156.0 153.98,156.14 C 154.02,156.29 154.04,156.44 154.02,156.59 C 154.02,156.68 154.0,156.77 153.97,156.86 C 153.94,156.94 153.9,157.01 153.86,157.08 C 153.83,157.12 153.8,157.15 153.77,157.19 C 153.73,157.22 153.69,157.25 153.65,157.27 C 153.6,157.3 153.55,157.32 153.5,157.33 C 153.45,157.34 153.4,157.35 153.34,157.34 C 153.29,157.34 153.24,157.32 153.19,157.31 C 153.15,157.29 153.1,157.26 153.06,157.23 C 153.03,157.2 153.0,157.17 152.97,157.14 C 152.93,157.1 152.89,157.05 152.85,157.0 C 152.77,156.88 152.7,156.75 152.66,156.61 C 152.61,156.47 152.58,156.32 152.57,156.18 C 152.57,156.1 152.57,156.02 152.58,155.95 C 152.59,155.87 152.61,155.79 152.64,155.72 C 152.66,155.66 152.68,155.61 152.71,155.56 C 152.74,155.52 152.76,155.48 152.79,155.44 C 152.83,155.41 152.87,155.37 152.91,155.34 C 152.95,155.32 153.0,155.3 153.05,155.28 C 153.1,155.27 153.16,155.27 153.21,155.27 C 153.26,155.27 153.31,155.28 153.35,155.29 z M 151.05,154.5 C 151.13,154.52 151.21,154.57 151.28,154.63 C 151.32,154.66 151.35,154.7 151.38,154.73 C 151.43,154.79 151.47,154.86 151.5,154.92 C 151.57,155.05 151.62,155.18 151.65,155.31 C 151.69,155.46 151.71,155.6 151.7,155.75 C 151.69,155.83 151.67,155.92 151.64,156.01 C 151.61,156.08 151.58,156.16 151.53,156.22 C 151.51,156.26 151.48,156.3 151.45,156.33 C 151.41,156.36 151.37,156.39 151.33,156.41 C 151.28,156.44 151.24,156.46 151.19,156.47 C 151.14,156.48 151.08,156.48 151.03,156.48 C 150.98,156.47 150.93,156.46 150.89,156.44 C 150.84,156.42 150.8,156.4 150.76,156.37 C 150.73,156.34 150.69,156.31 150.67,156.28 C 150.63,156.24 150.59,156.19 150.56,156.15 C 150.48,156.03 150.42,155.9 150.37,155.77 C 150.32,155.63 150.29,155.49 150.28,155.35 C 150.28,155.28 150.28,155.2 150.29,155.13 C 150.3,155.05 150.32,154.98 150.35,154.91 C 150.37,154.85 150.39,154.8 150.42,154.75 C 150.45,154.71 150.47,154.67 150.5,154.64 C 150.53,154.6 150.57,154.57 150.61,154.54 C 150.66,154.52 150.71,154.5 150.76,154.48 C 150.8,154.47 150.86,154.47 150.91,154.47 C 150.95,154.47 151.0,154.48 151.05,154.5 z M 149.01,153.77 C 149.05,153.78 149.09,153.8 149.13,153.83 C 149.17,153.85 149.21,153.88 149.24,153.91 C 149.28,153.94 149.31,153.98 149.35,154.03 C 149.39,154.09 149.43,154.15 149.46,154.22 C 149.53,154.35 149.57,154.48 149.6,154.62 C 149.63,154.76 149.64,154.91 149.62,155.05 C 149.61,155.13 149.59,155.21 149.56,155.28 C 149.53,155.36 149.49,155.43 149.43,155.5 C 149.4,155.54 149.37,155.57 149.33,155.6 C 149.28,155.63 149.24,155.65 149.19,155.67 C 149.14,155.68 149.09,155.69 149.04,155.69 C 148.98,155.69 148.93,155.68 148.88,155.67 C 148.83,155.65 148.79,155.63 148.75,155.6 C 148.71,155.58 148.68,155.55 148.64,155.51 C 148.61,155.48 148.58,155.44 148.55,155.39 C 148.5,155.34 148.47,155.27 148.43,155.21 C 148.37,155.08 148.32,154.95 148.29,154.81 C 148.26,154.67 148.25,154.52 148.27,154.37 C 148.28,154.3 148.3,154.22 148.33,154.15 C 148.36,154.07 148.4,153.99 148.45,153.93 C 148.48,153.89 148.52,153.85 148.56,153.82 C 148.61,153.79 148.66,153.77 148.71,153.76 C 148.76,153.74 148.81,153.74 148.86,153.74 C 148.91,153.74 148.96,153.75 149.01,153.77 z M 147.03,153.04 C 147.11,153.07 147.18,153.11 147.25,153.17 C 147.3,153.22 147.35,153.28 147.4,153.35 C 147.44,153.41 147.47,153.47 147.5,153.54 C 147.53,153.6 147.55,153.66 147.57,153.73 C 147.61,153.86 147.64,154.0 147.64,154.15 C 147.64,154.25 147.62,154.34 147.59,154.44 C 147.57,154.52 147.53,154.59 147.49,154.66 C 147.46,154.7 147.44,154.73 147.4,154.76 C 147.37,154.8 147.33,154.82 147.29,154.85 C 147.24,154.87 147.19,154.89 147.14,154.9 C 147.09,154.91 147.04,154.91 146.99,154.9 C 146.94,154.9 146.89,154.88 146.84,154.86 C 146.8,154.84 146.76,154.81 146.72,154.78 C 146.69,154.76 146.66,154.73 146.63,154.7 C 146.6,154.65 146.56,154.6 146.53,154.55 C 146.45,154.44 146.39,154.31 146.35,154.18 C 146.33,154.11 146.31,154.05 146.3,153.98 C 146.29,153.93 146.29,153.88 146.28,153.84 C 146.28,153.76 146.28,153.69 146.29,153.62 C 146.3,153.54 146.32,153.47 146.35,153.39 C 146.38,153.32 146.42,153.24 146.48,153.18 C 146.51,153.14 146.55,153.11 146.59,153.08 C 146.63,153.05 146.68,153.03 146.73,153.02 C 146.78,153.01 146.83,153.0 146.88,153.01 C 146.93,153.01 146.98,153.02 147.03,153.04 z"
		 />

		<!-- Prism Reference -->
		<cam mingh:cam="--verb EditSelectAll --verb ZoomSelection --verb FileSave " /> 
	 </g>

</svg>
