<svg
   xmlns:xlink="http://www.w3.org/1999/xlink"
   xmlns:svg="http://www.w3.org/2000/svg"
   xmlns="http://www.w3.org/2000/svg"
   xmlns:mingh="http://www.minghworld.com"
   width="300px"
   height="300px" >
	
	 <g>
		
		<!-- Paths -->
		<path transform="matrix(-1 0 0 1 300 0)" style="fill:#ff0;stroke:none;"
		 d="M 150.0,128.81 C 149.47,128.81 148.93,128.92 148.44,129.13 C 147.94,129.33 147.5,129.62 147.13,130.0 C 146.75,130.38 146.45,130.82 146.25,131.31 C 146.15,131.55 146.05,131.81 146.0,132.06 C 145.99,132.13 145.95,132.18 145.88,132.19 C 145.81,132.2 145.72,132.23 145.66,132.25 C 145.54,132.28 145.45,132.29 145.34,132.34 C 145.24,132.39 145.13,132.47 145.03,132.53 C 145.0,132.55 144.96,132.58 144.94,132.59 C 144.87,132.64 144.78,132.58 144.78,132.5 C 144.78,132.37 144.75,132.22 144.72,132.09 C 144.69,131.97 144.65,131.84 144.59,131.72 C 144.54,131.6 144.46,131.51 144.38,131.41 C 144.29,131.31 144.2,131.21 144.09,131.13 C 143.99,131.04 143.89,130.97 143.78,130.91 C 143.67,130.84 143.56,130.8 143.44,130.75 C 143.32,130.7 143.19,130.66 143.06,130.63 C 142.94,130.59 142.82,130.55 142.69,130.53 C 142.56,130.51 142.44,130.5 142.31,130.5 C 142.18,130.5 142.03,130.51 141.91,130.53 C 141.84,130.54 141.78,130.55 141.72,130.56 C 141.63,130.59 141.53,130.56 141.5,130.47 C 141.48,130.42 141.47,130.36 141.44,130.31 C 141.35,130.19 141.18,130.12 141.03,130.06 C 140.88,130.01 140.75,129.99 140.59,129.97 C 140.44,129.94 140.28,129.92 140.13,129.91 C 139.97,129.89 139.84,129.87 139.69,129.88 C 139.53,129.88 139.37,129.89 139.22,129.91 C 139.07,129.92 138.9,129.94 138.75,129.97 C 138.6,129.99 138.46,130.03 138.31,130.06 C 138.16,130.1 137.99,130.11 137.84,130.16 C 137.7,130.2 137.55,130.26 137.41,130.31 C 137.26,130.36 137.11,130.41 136.97,130.47 C 136.82,130.52 136.7,130.57 136.56,130.63 C 136.42,130.68 136.26,130.75 136.13,130.81 C 135.99,130.88 135.86,130.96 135.72,131.03 C 135.58,131.1 135.45,131.17 135.31,131.25 C 135.18,131.33 135.04,131.42 134.91,131.5 C 134.78,131.58 134.66,131.66 134.53,131.75 C 134.4,131.84 134.28,131.91 134.16,132.0 C 134.03,132.09 133.9,132.18 133.78,132.28 C 133.66,132.38 133.55,132.49 133.44,132.59 C 133.32,132.69 133.18,132.77 133.06,132.88 C 132.95,132.98 132.86,133.11 132.75,133.22 C 132.64,133.32 132.52,133.42 132.41,133.53 C 132.3,133.64 132.2,133.73 132.09,133.84 C 131.99,133.96 131.88,134.07 131.78,134.19 C 131.68,134.3 131.57,134.44 131.47,134.56 C 131.37,134.68 131.28,134.78 131.19,134.91 C 131.1,135.03 131.01,135.18 130.94,135.31 C 130.86,135.45 130.81,135.6 130.78,135.75 C 130.75,135.9 130.74,136.04 130.78,136.19 C 130.83,136.33 130.91,136.46 131.03,136.56 C 131.11,136.63 131.22,136.71 131.31,136.75 C 131.4,136.79 131.4,136.9 131.34,136.97 C 131.3,137.02 131.26,137.04 131.22,137.09 C 131.14,137.19 131.08,137.3 131.0,137.41 C 130.92,137.51 130.85,137.61 130.78,137.72 C 130.71,137.82 130.63,137.92 130.56,138.03 C 130.49,138.14 130.41,138.26 130.34,138.38 C 130.28,138.49 130.22,138.61 130.16,138.72 C 130.1,138.83 130.06,138.95 130.0,139.06 C 129.94,139.18 129.87,139.29 129.81,139.41 C 129.76,139.52 129.71,139.63 129.66,139.75 C 129.6,139.87 129.55,139.98 129.5,140.09 C 129.45,140.21 129.39,140.35 129.34,140.47 C 129.29,140.59 129.27,140.69 129.22,140.81 C 129.17,140.93 129.11,141.07 129.06,141.19 C 129.01,141.31 128.98,141.41 128.94,141.53 C 128.89,141.65 128.85,141.78 128.81,141.91 C 128.78,142.03 128.74,142.15 128.72,142.28 C 128.69,142.41 128.66,142.53 128.66,142.66 C 128.65,142.79 128.68,142.91 128.72,143.03 C 128.76,143.16 128.82,143.28 128.91,143.38 C 129.0,143.47 129.09,143.53 129.22,143.56 C 129.34,143.59 129.5,143.59 129.63,143.56 C 129.75,143.53 129.85,143.47 129.97,143.41 C 129.97,143.4 129.99,143.41 130.0,143.41 C 130.08,143.36 130.18,143.44 130.16,143.53 C 130.13,143.61 130.09,143.67 130.06,143.75 C 130.03,143.87 130.0,144.01 129.97,144.13 C 129.93,144.24 129.91,144.35 129.88,144.47 C 129.84,144.58 129.79,144.7 129.75,144.81 C 129.71,144.93 129.69,145.04 129.66,145.16 C 129.62,145.27 129.57,145.38 129.53,145.5 C 129.5,145.62 129.47,145.73 129.44,145.84 C 129.4,145.96 129.38,146.07 129.34,146.19 C 129.31,146.3 129.28,146.45 129.25,146.56 C 129.22,146.68 129.18,146.79 129.16,146.91 C 129.13,147.02 129.08,147.13 129.06,147.25 C 129.04,147.37 129.04,147.5 129.03,147.63 C 129.02,147.75 129.04,147.88 129.06,148.0 C 129.08,148.12 129.09,148.21 129.16,148.31 C 129.22,148.42 129.33,148.54 129.44,148.59 C 129.54,148.65 129.66,148.65 129.78,148.66 C 129.9,148.66 130.01,148.65 130.13,148.63 C 130.24,148.6 130.36,148.55 130.47,148.5 C 130.58,148.45 130.68,148.38 130.78,148.31 C 130.83,148.28 130.89,148.25 130.94,148.22 C 131.03,148.15 131.15,148.2 131.16,148.31 C 131.16,148.38 131.18,148.46 131.19,148.53 C 131.21,148.74 131.22,148.94 131.25,149.16 C 131.28,149.37 131.3,149.57 131.34,149.78 C 131.38,149.99 131.45,150.2 131.5,150.41 C 131.55,150.61 131.6,150.83 131.66,151.03 C 131.72,151.24 131.77,151.45 131.84,151.66 C 131.91,151.86 131.98,152.05 132.06,152.25 C 132.14,152.45 132.23,152.65 132.31,152.84 C 132.4,153.04 132.5,153.21 132.59,153.41 C 132.69,153.6 132.78,153.81 132.88,154.0 C 132.97,154.19 133.08,154.38 133.19,154.56 C 133.29,154.75 133.39,154.94 133.5,155.13 C 133.61,155.31 133.71,155.47 133.81,155.66 C 133.92,155.84 134.02,156.03 134.13,156.22 C 134.23,156.4 134.36,156.6 134.47,156.78 C 134.58,156.97 134.68,157.16 134.78,157.34 C 134.89,157.53 134.99,157.72 135.09,157.91 C 135.2,158.09 135.3,158.28 135.41,158.47 C 135.51,158.66 135.62,158.84 135.72,159.03 C 135.82,159.22 135.9,159.4 136.0,159.59 C 136.1,159.78 136.21,159.97 136.31,160.16 C 136.41,160.35 136.49,160.53 136.59,160.72 C 136.7,160.91 136.82,161.1 136.94,161.28 C 137.05,161.46 137.18,161.63 137.34,161.78 C 137.51,161.93 137.71,162.04 137.91,162.03 C 138.11,162.03 138.29,161.88 138.44,161.72 C 138.57,161.57 138.66,161.42 138.75,161.25 C 138.81,161.13 138.98,161.11 139.06,161.22 C 139.29,161.52 139.53,161.81 139.78,162.09 C 140.18,162.54 140.62,162.97 141.06,163.38 C 141.59,163.86 142.12,164.31 142.66,164.78 C 143.12,165.18 143.56,165.57 144.03,165.97 C 144.6,166.45 145.17,166.95 145.72,167.47 C 146.31,168.04 146.88,168.67 147.34,169.31 C 147.58,169.64 147.79,169.95 148.03,170.31 C 148.28,170.69 148.56,171.13 148.97,171.19 C 149.09,171.21 149.22,171.19 149.34,171.16 C 149.47,171.13 149.61,171.07 149.72,171.0 C 149.78,170.96 149.82,170.93 149.88,170.88 C 149.94,170.81 150.06,170.81 150.13,170.88 C 150.18,170.93 150.22,170.96 150.28,171.0 C 150.39,171.07 150.53,171.13 150.66,171.16 C 150.78,171.19 150.91,171.21 151.03,171.19 C 151.44,171.13 151.72,170.69 151.97,170.31 C 152.21,169.95 152.42,169.64 152.66,169.31 C 153.12,168.67 153.69,168.04 154.28,167.47 C 154.83,166.95 155.4,166.45 155.97,165.97 C 156.44,165.57 156.88,165.18 157.34,164.78 C 157.88,164.31 158.41,163.86 158.94,163.38 C 159.38,162.97 159.82,162.54 160.22,162.09 C 160.47,161.81 160.71,161.52 160.94,161.22 C 161.02,161.11 161.19,161.13 161.25,161.25 C 161.34,161.42 161.43,161.57 161.56,161.72 C 161.71,161.88 161.89,162.03 162.09,162.03 C 162.29,162.04 162.49,161.93 162.66,161.78 C 162.82,161.63 162.95,161.46 163.06,161.28 C 163.18,161.1 163.3,160.91 163.41,160.72 C 163.51,160.53 163.59,160.35 163.69,160.16 C 163.79,159.97 163.9,159.78 164.0,159.59 C 164.1,159.4 164.18,159.22 164.28,159.03 C 164.38,158.84 164.49,158.66 164.59,158.47 C 164.7,158.28 164.8,158.09 164.91,157.91 C 165.01,157.72 165.11,157.53 165.22,157.34 C 165.32,157.16 165.42,156.97 165.53,156.78 C 165.64,156.6 165.77,156.4 165.88,156.22 C 165.98,156.03 166.08,155.84 166.19,155.66 C 166.29,155.47 166.39,155.31 166.5,155.13 C 166.61,154.94 166.71,154.75 166.81,154.56 C 166.92,154.38 167.03,154.19 167.13,154.0 C 167.22,153.81 167.31,153.6 167.41,153.41 C 167.5,153.21 167.6,153.04 167.69,152.84 C 167.77,152.65 167.86,152.45 167.94,152.25 C 168.02,152.05 168.09,151.86 168.16,151.66 C 168.23,151.45 168.28,151.24 168.34,151.03 C 168.4,150.83 168.45,150.61 168.5,150.41 C 168.55,150.2 168.62,149.99 168.66,149.78 C 168.7,149.57 168.72,149.37 168.75,149.16 C 168.78,148.94 168.79,148.74 168.81,148.53 C 168.82,148.46 168.84,148.38 168.84,148.31 C 168.85,148.2 168.97,148.15 169.06,148.22 C 169.11,148.25 169.17,148.28 169.22,148.31 C 169.32,148.38 169.42,148.45 169.53,148.5 C 169.64,148.55 169.76,148.6 169.88,148.63 C 169.99,148.65 170.1,148.66 170.22,148.66 C 170.34,148.65 170.46,148.65 170.56,148.59 C 170.67,148.54 170.78,148.42 170.84,148.31 C 170.91,148.21 170.92,148.12 170.94,148.0 C 170.96,147.88 170.98,147.75 170.97,147.63 C 170.96,147.5 170.96,147.37 170.94,147.25 C 170.92,147.13 170.87,147.02 170.84,146.91 C 170.82,146.79 170.78,146.68 170.75,146.56 C 170.72,146.45 170.69,146.3 170.66,146.19 C 170.62,146.07 170.6,145.96 170.56,145.84 C 170.53,145.73 170.5,145.62 170.47,145.5 C 170.43,145.38 170.38,145.27 170.34,145.16 C 170.31,145.04 170.29,144.93 170.25,144.81 C 170.21,144.7 170.16,144.58 170.13,144.47 C 170.09,144.35 170.07,144.24 170.03,144.13 C 170.0,144.01 169.97,143.87 169.94,143.75 C 169.91,143.67 169.87,143.61 169.84,143.53 C 169.82,143.44 169.92,143.36 170.0,143.41 C 170.01,143.41 170.03,143.4 170.03,143.41 C 170.15,143.47 170.25,143.53 170.38,143.56 C 170.5,143.59 170.66,143.59 170.78,143.56 C 170.91,143.53 171.0,143.47 171.09,143.38 C 171.18,143.28 171.24,143.16 171.28,143.03 C 171.32,142.91 171.35,142.79 171.34,142.66 C 171.34,142.53 171.31,142.41 171.28,142.28 C 171.26,142.15 171.22,142.03 171.19,141.91 C 171.15,141.78 171.11,141.65 171.06,141.53 C 171.02,141.41 170.99,141.31 170.94,141.19 C 170.89,141.07 170.83,140.93 170.78,140.81 C 170.73,140.69 170.71,140.59 170.66,140.47 C 170.61,140.35 170.55,140.21 170.5,140.09 C 170.45,139.98 170.4,139.87 170.34,139.75 C 170.29,139.63 170.24,139.52 170.19,139.41 C 170.13,139.29 170.06,139.18 170.0,139.06 C 169.94,138.95 169.9,138.83 169.84,138.72 C 169.78,138.61 169.72,138.49 169.66,138.38 C 169.59,138.26 169.51,138.14 169.44,138.03 C 169.37,137.92 169.29,137.82 169.22,137.72 C 169.15,137.61 169.08,137.51 169.0,137.41 C 168.92,137.3 168.86,137.19 168.78,137.09 C 168.74,137.04 168.7,137.02 168.66,136.97 C 168.6,136.9 168.6,136.79 168.69,136.75 C 168.78,136.71 168.89,136.63 168.97,136.56 C 169.09,136.46 169.17,136.33 169.22,136.19 C 169.26,136.04 169.25,135.9 169.22,135.75 C 169.19,135.6 169.14,135.45 169.06,135.31 C 168.99,135.18 168.9,135.03 168.81,134.91 C 168.72,134.78 168.63,134.68 168.53,134.56 C 168.43,134.44 168.32,134.3 168.22,134.19 C 168.12,134.07 168.01,133.96 167.91,133.84 C 167.8,133.73 167.7,133.64 167.59,133.53 C 167.48,133.42 167.36,133.32 167.25,133.22 C 167.14,133.11 167.05,132.98 166.94,132.88 C 166.82,132.77 166.68,132.69 166.56,132.59 C 166.45,132.49 166.34,132.38 166.22,132.28 C 166.1,132.18 165.97,132.09 165.84,132.0 C 165.72,131.91 165.6,131.84 165.47,131.75 C 165.34,131.66 165.22,131.58 165.09,131.5 C 164.96,131.42 164.82,131.33 164.69,131.25 C 164.55,131.17 164.42,131.1 164.28,131.03 C 164.14,130.96 164.01,130.88 163.88,130.81 C 163.74,130.75 163.58,130.68 163.44,130.63 C 163.3,130.57 163.18,130.52 163.03,130.47 C 162.89,130.41 162.74,130.36 162.59,130.31 C 162.45,130.26 162.3,130.2 162.16,130.16 C 162.01,130.11 161.84,130.1 161.69,130.06 C 161.54,130.03 161.4,129.99 161.25,129.97 C 161.1,129.94 160.93,129.92 160.78,129.91 C 160.63,129.89 160.47,129.88 160.31,129.88 C 160.16,129.87 160.03,129.89 159.88,129.91 C 159.72,129.92 159.56,129.94 159.41,129.97 C 159.25,129.99 159.12,130.01 158.97,130.06 C 158.82,130.11 158.65,130.19 158.56,130.31 C 158.53,130.36 158.52,130.42 158.5,130.47 C 158.47,130.56 158.37,130.59 158.28,130.56 C 158.22,130.55 158.16,130.54 158.09,130.53 C 157.97,130.51 157.82,130.5 157.69,130.5 C 157.56,130.5 157.44,130.51 157.31,130.53 C 157.18,130.55 157.06,130.59 156.94,130.63 C 156.81,130.66 156.68,130.7 156.56,130.75 C 156.44,130.8 156.33,130.84 156.22,130.91 C 156.11,130.97 156.01,131.04 155.91,131.13 C 155.8,131.21 155.71,131.31 155.63,131.41 C 155.54,131.51 155.46,131.6 155.41,131.72 C 155.35,131.84 155.31,131.97 155.28,132.09 C 155.25,132.22 155.22,132.37 155.22,132.5 C 155.22,132.58 155.13,132.64 155.06,132.59 C 155.04,132.58 155.0,132.55 154.97,132.53 C 154.87,132.47 154.76,132.39 154.66,132.34 C 154.55,132.29 154.46,132.28 154.34,132.25 C 154.28,132.23 154.19,132.2 154.13,132.19 C 154.05,132.18 154.01,132.13 154.0,132.06 C 153.95,131.81 153.85,131.55 153.75,131.31 C 153.55,130.82 153.25,130.38 152.88,130.0 C 152.5,129.62 152.06,129.33 151.56,129.13 C 151.07,128.92 150.53,128.81 150.0,128.81 z M 150.0,130.94 C 151.09,130.91 152.09,131.96 151.94,133.06 C 151.88,134.24 150.57,135.15 149.44,134.75 C 148.45,134.48 147.84,133.36 148.13,132.38 C 148.32,131.53 149.16,130.94 150.0,130.94 z M 147.03,144.0 C 148.0,143.95 148.98,144.38 149.63,145.09 C 149.78,145.49 150.18,145.6 150.34,145.16 C 150.76,144.63 151.37,144.28 152.0,144.09 C 152.95,143.83 154.07,144.03 154.78,144.75 C 155.41,145.35 155.75,146.26 155.66,147.13 C 155.62,148.52 154.76,149.73 153.84,150.72 C 152.75,151.78 151.5,152.69 150.19,153.47 C 149.71,153.6 149.33,153.14 148.94,152.94 C 147.43,151.88 145.86,150.73 144.94,149.09 C 144.49,148.18 144.17,147.15 144.41,146.13 C 144.7,144.95 145.79,143.98 147.03,144.0 z" />
		
		
		<text id="txtTwo" transform="matrix(1 0 0 1 150 160)" style="stroke:none;fill:#f00;font-family:'Eras Medium ITC';font-size:20px;text-anchor:middle"  >

		</text>
		<!-- Prism Reference -->
		<cam mingh:cam="--verb EditSelectAll --verb ZoomSelection --verb FileSave"/> 
	 </g>

</svg>