<svg
   xmlns:xlink="http://www.w3.org/1999/xlink"
   xmlns:svg="http://www.w3.org/2000/svg"
   xmlns="http://www.w3.org/2000/svg"
   xmlns:mingh="http://www.minghworld.com"
   width="300px"
   height="300px" >
	
	 <g>
		
		<!-- Paths -->
		<path style="fill:none;stroke:#000;stroke-width:0.25px;"
		 d="M 150.0,129.97 C 149.47,129.97 148.93,130.08 148.44,130.28 C 147.94,130.49 147.5,130.78 147.13,131.16 C 146.75,131.53 146.45,131.98 146.25,132.47 C 146.05,132.96 145.94,133.5 145.94,134.03 C 145.94,134.56 146.05,135.1 146.25,135.59 C 146.45,136.09 146.75,136.56 147.13,136.94 C 147.37,137.18 147.64,137.39 147.94,137.56 C 148.01,137.61 148.02,137.71 147.94,137.75 C 145.4,138.92 144.33,141.93 145.56,144.44 C 145.61,144.54 145.5,144.62 145.41,144.56 C 144.43,143.9 143.12,143.68 141.94,143.59 C 141.85,143.59 141.77,143.63 141.75,143.72 C 141.47,144.87 141.29,146.18 141.63,147.31 C 141.66,147.42 141.55,147.48 141.47,147.41 C 140.9,146.86 140.28,146.49 139.53,146.25 C 136.49,145.26 133.34,147.35 133.06,150.53 C 132.79,153.71 135.56,156.33 138.72,155.88 C 138.83,155.86 138.87,156.0 138.78,156.06 C 137.85,156.78 137.23,157.94 136.78,159.03 C 136.75,159.11 136.77,159.2 136.84,159.25 C 137.85,159.87 139.04,160.44 140.22,160.47 C 140.33,160.47 140.38,160.64 140.28,160.69 C 139.59,161.05 139.03,161.52 138.56,162.16 C 136.69,164.74 137.72,168.38 140.66,169.63 C 143.6,170.87 146.92,169.05 147.47,165.91 C 147.49,165.8 147.65,165.8 147.69,165.91 C 148.08,167.02 148.97,167.95 149.88,168.72 C 149.94,168.77 150.06,168.77 150.13,168.72 C 151.03,167.95 151.92,167.02 152.31,165.91 C 152.35,165.8 152.51,165.8 152.53,165.91 C 152.67,166.68 152.94,167.36 153.41,168.0 C 155.28,170.58 159.06,170.73 161.16,168.31 C 163.25,165.9 162.54,162.18 159.72,160.69 C 159.62,160.64 159.67,160.47 159.78,160.47 C 160.96,160.44 162.15,159.87 163.16,159.25 C 163.23,159.2 163.25,159.11 163.22,159.03 C 162.77,157.94 162.15,156.78 161.22,156.06 C 161.13,156.0 161.17,155.86 161.28,155.88 C 162.06,155.99 162.78,155.93 163.53,155.69 C 166.57,154.7 167.9,151.14 166.25,148.41 C 164.6,145.67 160.82,145.18 158.53,147.41 C 158.45,147.48 158.34,147.42 158.38,147.31 C 158.71,146.18 158.53,144.87 158.25,143.72 C 158.23,143.63 158.15,143.59 158.06,143.59 C 156.88,143.68 155.57,143.9 154.59,144.56 C 154.5,144.62 154.39,144.54 154.44,144.44 C 154.78,143.73 154.97,143.04 154.97,142.25 C 154.97,140.31 153.82,138.56 152.06,137.75 C 151.98,137.71 151.99,137.61 152.06,137.56 C 152.36,137.39 152.63,137.18 152.88,136.94 C 153.25,136.56 153.55,136.09 153.75,135.59 C 153.95,135.1 154.06,134.56 154.06,134.03 C 154.06,133.5 153.95,132.96 153.75,132.47 C 153.55,131.98 153.25,131.53 152.88,131.16 C 152.5,130.78 152.06,130.49 151.56,130.28 C 151.07,130.08 150.53,129.97 150.0,129.97 z M 150.0,132.09 C 150.26,132.09 150.51,132.15 150.75,132.25 C 150.99,132.35 151.19,132.48 151.38,132.66 C 151.56,132.84 151.71,133.05 151.81,133.28 C 151.91,133.52 151.94,133.78 151.94,134.03 C 151.94,134.29 151.91,134.55 151.81,134.78 C 151.71,135.02 151.56,135.23 151.38,135.41 C 151.19,135.59 150.99,135.75 150.75,135.84 C 150.51,135.94 150.26,136.0 150.0,136.0 C 149.74,136.0 149.49,135.94 149.25,135.84 C 149.01,135.75 148.81,135.59 148.63,135.41 C 148.44,135.23 148.29,135.02 148.19,134.78 C 148.09,134.55 148.06,134.29 148.06,134.03 C 148.06,133.78 148.09,133.52 148.19,133.28 C 148.29,133.05 148.44,132.84 148.63,132.66 C 148.81,132.48 149.01,132.35 149.25,132.25 C 149.49,132.15 149.74,132.09 150.0,132.09 z M 146.88,146.16 C 146.9,146.14 146.91,146.13 146.94,146.16 C 147.08,146.27 147.25,146.37 147.41,146.47 C 147.43,146.48 147.45,146.51 147.47,146.53 C 148.98,148.67 149.58,151.2 149.41,153.78 C 149.4,153.89 149.26,154.0 149.16,153.97 C 146.65,153.34 144.41,151.98 142.84,149.88 C 142.83,149.86 142.82,149.84 142.81,149.81 C 142.77,149.63 142.72,149.45 142.66,149.28 C 142.63,149.21 142.73,149.16 142.78,149.22 C 143.14,149.59 143.54,149.91 143.97,150.19 C 145.01,150.87 146.19,151.26 147.41,151.44 C 147.46,151.45 147.52,151.4 147.53,151.34 C 147.74,150.13 147.73,148.89 147.41,147.69 C 147.27,147.19 147.09,146.7 146.84,146.25 C 146.83,146.22 146.85,146.18 146.88,146.16 z M 153.03,146.16 C 153.09,146.11 153.19,146.18 153.16,146.25 C 152.91,146.7 152.73,147.19 152.59,147.69 C 152.27,148.89 152.26,150.13 152.47,151.34 C 152.48,151.4 152.51,151.45 152.56,151.44 C 153.78,151.26 154.99,150.87 156.03,150.19 C 156.46,149.91 156.86,149.59 157.22,149.22 C 157.27,149.16 157.37,149.21 157.34,149.28 C 157.28,149.45 157.23,149.63 157.19,149.81 C 157.18,149.84 157.17,149.86 157.16,149.88 C 155.59,151.98 153.32,153.34 150.81,153.97 C 150.71,154.0 150.6,153.89 150.59,153.78 C 150.42,151.2 151.02,148.67 152.53,146.53 C 152.55,146.51 152.57,146.48 152.59,146.47 C 152.75,146.37 152.89,146.27 153.03,146.16 z M 144.13,154.25 C 145.71,154.21 147.28,154.52 148.78,155.13 C 148.88,155.17 148.93,155.28 148.88,155.38 C 147.5,157.56 145.51,159.28 143.03,160.13 C 143.01,160.13 142.99,160.13 142.97,160.13 C 142.79,160.11 142.59,160.12 142.41,160.13 C 142.33,160.13 142.31,160.0 142.38,159.97 C 142.84,159.75 143.29,159.48 143.69,159.16 C 144.65,158.38 145.4,157.36 145.94,156.25 C 145.96,156.2 145.96,156.15 145.91,156.13 C 144.82,155.55 143.61,155.16 142.38,155.09 C 141.86,155.07 141.35,155.1 140.84,155.19 C 140.77,155.2 140.72,155.11 140.78,155.06 C 140.93,154.96 141.08,154.87 141.22,154.75 C 141.24,154.73 141.26,154.73 141.28,154.72 C 142.22,154.43 143.17,154.27 144.13,154.25 z M 154.91,154.25 C 156.17,154.17 157.47,154.33 158.72,154.72 C 158.74,154.73 158.76,154.73 158.78,154.75 C 158.92,154.87 159.07,154.96 159.22,155.06 C 159.28,155.11 159.23,155.2 159.16,155.19 C 158.65,155.1 158.14,155.07 157.63,155.09 C 156.39,155.16 155.18,155.55 154.09,156.13 C 154.04,156.15 154.04,156.2 154.06,156.25 C 154.6,157.36 155.35,158.38 156.31,159.16 C 156.71,159.48 157.16,159.75 157.63,159.97 C 157.69,160.0 157.64,160.13 157.56,160.13 C 157.38,160.12 157.21,160.11 157.03,160.13 C 157.01,160.13 156.99,160.13 156.97,160.13 C 154.49,159.28 152.5,157.56 151.13,155.38 C 151.07,155.28 151.12,155.17 151.22,155.13 C 152.42,154.64 153.64,154.33 154.91,154.25 z M 150.0,156.03 C 150.05,156.03 150.09,156.05 150.13,156.09 C 151.78,158.08 152.81,160.47 152.84,163.09 C 152.84,163.12 152.82,163.16 152.81,163.19 C 152.74,163.36 152.71,163.51 152.66,163.69 C 152.63,163.76 152.51,163.76 152.5,163.69 C 152.43,163.18 152.31,162.67 152.13,162.19 C 151.68,161.03 150.95,160.01 150.06,159.16 C 150.02,159.12 149.98,159.12 149.94,159.16 C 149.05,160.01 148.32,161.03 147.88,162.19 C 147.69,162.67 147.57,163.18 147.5,163.69 C 147.49,163.76 147.37,163.76 147.34,163.69 C 147.29,163.51 147.23,163.36 147.16,163.19 C 147.15,163.16 147.16,163.12 147.16,163.09 C 147.19,160.47 148.22,158.08 149.88,156.09 C 149.91,156.05 149.95,156.03 150.0,156.03 z"
		 />
		 <path style="fill:#f00;stroke:none;"
		 d="M 140.89,154.09 C 141.86,153.2 142.36,151.9 142.24,150.59 C 142.22,150.44 142.2,150.29 142.18,150.15 C 142.17,150.14 142.17,150.14 142.17,150.14 C 142.17,150.13 142.18,150.14 142.18,150.15 C 142.19,150.15 142.19,150.16 142.2,150.17 C 142.21,150.19 142.22,150.21 142.24,150.22 C 142.26,150.26 142.29,150.29 142.31,150.32 C 142.36,150.39 142.41,150.46 142.46,150.52 C 142.67,150.78 142.89,151.04 143.12,151.28 C 143.57,151.75 144.05,152.18 144.57,152.57 C 145.1,152.96 145.64,153.3 146.22,153.6 C 146.26,153.62 146.29,153.64 146.33,153.66 C 146.35,153.66 146.37,153.67 146.38,153.68 C 146.39,153.69 146.4,153.69 146.41,153.7 C 146.42,153.7 146.42,153.7 146.42,153.7 C 146.43,153.71 146.41,153.7 146.41,153.7 C 146.33,153.69 146.25,153.67 146.17,153.66 C 146.01,153.64 145.85,153.62 145.69,153.6 C 145.36,153.56 145.04,153.54 144.72,153.53 C 143.39,153.5 142.15,153.67 140.89,154.09 z M 147.92,145.96 C 149.07,146.6 150.46,146.68 151.67,146.16 C 151.81,146.1 151.94,146.04 152.07,145.97 C 152.07,145.96 152.07,145.96 152.08,145.96 C 152.09,145.96 152.07,145.97 152.07,145.97 C 152.06,145.98 152.06,145.99 152.05,146.0 C 152.04,146.01 152.03,146.03 152.02,146.05 C 151.99,146.08 151.97,146.12 151.94,146.15 C 151.89,146.22 151.85,146.29 151.8,146.36 C 151.61,146.64 151.44,146.92 151.28,147.22 C 150.97,147.79 150.71,148.38 150.5,148.99 C 150.29,149.61 150.14,150.24 150.03,150.88 C 150.03,150.92 150.02,150.96 150.01,151.0 C 150.01,151.02 150.01,151.04 150.01,151.06 C 150.0,151.07 150.0,151.08 150.0,151.09 C 150.0,151.1 150.0,151.1 150.0,151.11 C 150.0,151.12 150.0,151.1 150.0,151.09 C 149.99,151.01 149.97,150.93 149.96,150.85 C 149.93,150.69 149.9,150.53 149.87,150.37 C 149.8,150.06 149.72,149.74 149.63,149.43 C 149.26,148.16 148.7,147.03 147.92,145.96 z M 157.83,150.13 C 157.57,151.43 157.92,152.77 158.79,153.76 C 158.89,153.87 158.99,153.98 159.1,154.08 C 159.1,154.08 159.11,154.09 159.11,154.09 C 159.12,154.1 159.1,154.09 159.1,154.09 C 159.09,154.08 159.08,154.08 159.07,154.08 C 159.05,154.07 159.03,154.06 159.01,154.06 C 158.97,154.04 158.93,154.03 158.89,154.02 C 158.81,154.0 158.73,153.97 158.65,153.95 C 158.32,153.86 158.0,153.78 157.67,153.72 C 157.03,153.6 156.39,153.54 155.74,153.53 C 155.09,153.52 154.44,153.57 153.8,153.67 C 153.76,153.67 153.72,153.68 153.68,153.69 C 153.66,153.69 153.64,153.69 153.62,153.7 C 153.61,153.7 153.6,153.7 153.59,153.7 C 153.58,153.7 153.58,153.7 153.57,153.7 C 153.56,153.7 153.58,153.7 153.59,153.7 C 153.66,153.66 153.73,153.62 153.8,153.59 C 153.95,153.51 154.09,153.43 154.23,153.35 C 154.51,153.19 154.79,153.02 155.05,152.84 C 156.15,152.09 157.05,151.21 157.83,150.13 z M 156.92,160.85 C 155.61,161.0 154.44,161.75 153.76,162.89 C 153.69,163.01 153.62,163.14 153.56,163.28 C 153.56,163.28 153.55,163.29 153.55,163.29 C 153.55,163.3 153.55,163.28 153.55,163.28 C 153.55,163.27 153.55,163.26 153.55,163.25 C 153.55,163.22 153.55,163.2 153.55,163.18 C 153.55,163.14 153.55,163.1 153.55,163.06 C 153.55,162.97 153.55,162.89 153.54,162.81 C 153.53,162.47 153.5,162.14 153.46,161.81 C 153.37,161.16 153.24,160.53 153.04,159.91 C 152.85,159.29 152.61,158.69 152.31,158.11 C 152.29,158.07 152.28,158.04 152.26,158.0 C 152.25,157.98 152.24,157.96 152.23,157.95 C 152.22,157.94 152.22,157.93 152.22,157.92 C 152.21,157.91 152.21,157.91 152.21,157.91 C 152.2,157.9 152.22,157.91 152.22,157.92 C 152.28,157.97 152.33,158.03 152.39,158.09 C 152.51,158.2 152.62,158.31 152.74,158.42 C 152.98,158.64 153.23,158.85 153.49,159.05 C 154.54,159.86 155.65,160.44 156.92,160.85 z M 146.45,163.29 C 145.9,162.09 144.82,161.22 143.53,160.92 C 143.39,160.89 143.24,160.87 143.1,160.85 C 143.09,160.85 143.09,160.85 143.08,160.85 C 143.07,160.85 143.09,160.84 143.1,160.84 C 143.11,160.84 143.12,160.84 143.13,160.83 C 143.15,160.83 143.17,160.82 143.19,160.81 C 143.22,160.8 143.26,160.79 143.3,160.77 C 143.38,160.75 143.46,160.72 143.54,160.69 C 143.85,160.57 144.16,160.44 144.47,160.3 C 145.05,160.02 145.61,159.69 146.14,159.32 C 146.67,158.94 147.17,158.53 147.63,158.07 C 147.66,158.04 147.69,158.01 147.72,157.98 C 147.73,157.97 147.74,157.95 147.76,157.94 C 147.76,157.93 147.77,157.92 147.78,157.92 C 147.78,157.91 147.79,157.91 147.79,157.91 C 147.8,157.9 147.79,157.91 147.78,157.92 C 147.75,157.99 147.71,158.06 147.67,158.13 C 147.6,158.28 147.53,158.43 147.46,158.57 C 147.33,158.87 147.21,159.17 147.1,159.48 C 146.66,160.73 146.44,161.96 146.45,163.29 z"
		 />
		 <path style="fill:#00f;stroke:none;"
		 d="M 141.9,150.97 C 141.9,153.12 140.16,154.86 138.0,154.86 C 135.85,154.86 134.1,153.12 134.1,150.97 C 134.1,148.81 135.85,147.07 138.0,147.07 C 140.16,147.07 141.9,148.81 141.9,150.97 z M 146.48,165.07 C 146.48,167.22 144.74,168.97 142.58,168.97 C 140.43,168.97 138.69,167.22 138.69,165.07 C 138.69,162.92 140.43,161.17 142.58,161.17 C 144.74,161.17 146.48,162.92 146.48,165.07 z M 161.31,165.07 C 161.31,167.22 159.57,168.97 157.41,168.97 C 155.26,168.97 153.52,167.22 153.52,165.07 C 153.52,162.92 155.26,161.17 157.41,161.17 C 159.57,161.17 161.31,162.92 161.31,165.07 z M 165.89,150.97 C 165.89,153.12 164.15,154.86 162.0,154.86 C 159.84,154.86 158.1,153.12 158.1,150.97 C 158.1,148.81 159.84,147.07 162.0,147.07 C 164.15,147.07 165.89,148.81 165.89,150.97 z M 153.9,142.25 C 153.9,144.4 152.15,146.15 150.0,146.15 C 147.85,146.15 146.1,144.4 146.1,142.25 C 146.1,140.1 147.85,138.35 150.0,138.35 C 152.15,138.35 153.9,140.1 153.9,142.25 z"
		 />
		
		<!-- Prism Reference -->
		<cam mingh:cam="--verb EditSelectAll --verb ZoomSelection --verb FileSave" /> 
	 </g>

</svg>
