<svg
   xmlns:xlink="http://www.w3.org/1999/xlink"
   xmlns:svg="http://www.w3.org/2000/svg"
   xmlns="http://www.w3.org/2000/svg"
   xmlns:mingh="http://www.minghworld.com"
   width="300px"
   height="300px" >
	
	 <g>
		<!-- Paths -->
		<path style="fill:none;stroke:#000;stroke-width:0.25px;"
		 d="M 135.47,129.19 C 135.45,129.19 135.41,129.23 135.41,129.25 L 135.41,129.28 C 135.22,130.26 135.49,131.08 135.81,131.75 C 136.14,132.43 136.54,132.98 137.06,133.47 C 137.1,133.5 137.08,133.57 137.03,133.56 C 136.57,133.49 136.11,133.39 135.66,133.31 C 135.14,133.22 134.61,133.15 134.09,133.03 C 133.55,132.91 133.04,132.75 132.5,132.59 C 131.93,132.43 131.35,132.25 130.78,132.06 C 130.19,131.87 129.59,131.67 129.0,131.47 C 128.48,131.3 127.95,131.14 127.44,130.97 C 126.49,130.66 125.57,130.37 124.63,130.06 C 124.61,130.06 124.61,130.03 124.59,130.03 C 124.55,130.02 124.52,130.08 124.53,130.13 C 124.54,130.14 124.53,130.14 124.53,130.16 C 125.15,131.81 126.23,133.38 127.69,134.41 C 128.33,134.86 129.07,135.19 129.81,135.44 C 129.87,135.46 129.87,135.55 129.81,135.56 C 129.32,135.64 128.8,135.74 128.31,135.84 C 127.9,135.93 127.5,136.02 127.09,136.13 C 126.44,136.3 125.79,136.5 125.16,136.75 C 124.53,137.0 123.92,137.31 123.34,137.66 C 122.89,137.93 122.47,138.22 122.06,138.56 C 121.71,138.86 121.35,139.19 121.03,139.53 C 120.72,139.87 120.43,140.22 120.16,140.59 C 120.14,140.61 120.14,140.64 120.13,140.66 C 120.09,140.7 120.14,140.74 120.19,140.72 C 120.21,140.71 120.23,140.73 120.25,140.72 C 122.77,139.63 125.47,138.91 128.22,138.66 C 128.26,138.65 128.28,138.65 128.28,138.69 C 128.28,138.72 128.28,138.78 128.28,138.81 C 128.29,138.97 128.3,139.12 128.31,139.28 C 128.32,139.36 128.34,139.42 128.34,139.5 C 128.34,139.58 128.32,139.67 128.31,139.75 C 128.3,139.88 128.3,140.0 128.28,140.13 C 128.28,140.14 128.27,140.15 128.25,140.16 C 127.96,140.3 127.67,140.43 127.38,140.56 C 127.18,140.65 126.95,140.76 126.75,140.84 C 126.51,140.95 126.27,141.06 126.03,141.16 C 125.56,141.35 125.1,141.55 124.63,141.75 C 124.18,141.94 123.74,142.14 123.31,142.38 C 123.3,142.38 123.26,142.4 123.25,142.41 C 123.21,142.43 123.23,142.49 123.28,142.5 L 123.31,142.5 C 124.64,142.74 126.02,142.86 127.38,142.81 C 127.41,142.81 127.45,142.84 127.44,142.88 C 127.29,143.2 127.09,143.51 126.91,143.81 C 126.82,143.96 126.73,144.12 126.66,144.28 C 126.62,144.36 126.59,144.42 126.56,144.5 C 126.53,144.58 126.49,144.7 126.47,144.78 C 126.45,144.86 126.44,144.92 126.44,145.0 C 126.43,145.05 126.44,145.1 126.44,145.16 C 126.44,145.23 126.43,145.33 126.44,145.41 C 126.45,145.5 126.46,145.57 126.47,145.66 C 126.48,145.73 126.47,145.8 126.47,145.88 C 126.47,145.94 126.47,146.0 126.47,146.06 C 126.46,146.1 126.48,146.15 126.47,146.19 C 126.46,146.21 126.45,146.23 126.44,146.25 C 126.42,146.29 126.4,146.34 126.38,146.38 C 126.34,146.44 126.32,146.5 126.28,146.56 C 126.24,146.63 126.17,146.68 126.13,146.75 C 126.08,146.82 126.07,146.89 126.03,146.97 C 126.01,147.01 125.98,147.05 125.97,147.09 C 125.95,147.14 125.95,147.21 125.94,147.25 C 125.91,147.34 125.88,147.41 125.88,147.5 C 125.87,147.61 125.87,147.71 125.88,147.81 C 125.88,147.96 125.9,148.13 125.91,148.28 C 125.91,148.38 125.91,148.47 125.91,148.56 C 125.9,148.72 125.88,148.87 125.88,149.03 C 125.87,149.18 125.86,149.35 125.88,149.5 C 125.89,149.66 125.93,149.81 125.97,149.97 C 126.01,150.12 126.07,150.29 126.13,150.44 C 126.18,150.61 126.22,150.77 126.28,150.94 C 126.38,151.21 126.46,151.47 126.53,151.75 C 126.6,152.03 126.65,152.31 126.69,152.59 C 126.71,152.78 126.73,152.97 126.75,153.16 C 126.77,153.32 126.78,153.5 126.81,153.66 C 126.83,153.75 126.85,153.82 126.88,153.91 C 126.9,153.98 126.94,154.06 126.97,154.13 C 127.0,154.2 127.02,154.27 127.06,154.34 C 127.13,154.47 127.21,154.59 127.28,154.72 C 127.33,154.8 127.37,154.88 127.41,154.97 C 127.42,155.01 127.43,155.05 127.44,155.09 C 127.45,155.12 127.46,155.16 127.47,155.19 C 127.48,155.24 127.47,155.26 127.47,155.31 C 127.47,155.39 127.47,155.49 127.47,155.56 C 127.47,155.65 127.5,155.72 127.5,155.81 C 127.5,155.9 127.48,156.01 127.5,156.09 C 127.51,156.14 127.55,156.17 127.56,156.22 C 127.57,156.25 127.55,156.29 127.56,156.31 C 127.58,156.36 127.63,156.4 127.66,156.44 C 127.69,156.49 127.71,156.55 127.75,156.59 C 127.81,156.66 127.89,156.7 127.97,156.75 C 128.04,156.8 128.11,156.86 128.19,156.91 C 128.33,156.99 128.48,157.07 128.63,157.16 C 128.74,157.22 128.84,157.29 128.94,157.38 C 129.12,157.52 129.29,157.67 129.47,157.81 C 129.51,157.84 129.56,157.88 129.59,157.91 C 129.72,158.0 129.82,158.09 129.94,158.19 C 129.99,158.23 130.04,158.26 130.09,158.31 C 130.13,158.35 130.19,158.42 130.22,158.47 C 130.25,158.52 130.26,158.57 130.28,158.63 C 130.3,158.68 130.33,158.73 130.34,158.78 C 130.36,158.86 130.36,158.92 130.38,159.0 C 130.39,159.09 130.42,159.19 130.44,159.28 C 130.46,159.37 130.46,159.45 130.5,159.53 C 130.54,159.62 130.6,159.71 130.66,159.78 C 130.72,159.86 130.8,159.91 130.88,159.97 C 130.9,159.99 130.91,160.01 130.94,160.03 C 130.97,160.05 131.0,160.07 130.97,160.09 L 130.94,160.13 C 130.93,160.13 130.92,160.12 130.91,160.13 C 130.87,160.15 130.89,160.24 130.94,160.25 C 130.95,160.25 130.95,160.25 130.97,160.25 C 131.92,160.44 132.89,160.5 133.91,160.41 C 133.96,160.4 133.99,160.47 133.94,160.5 C 132.05,161.52 130.72,162.84 129.97,164.5 C 129.96,164.51 129.97,164.52 129.97,164.53 C 129.95,164.57 129.96,164.62 130.0,164.63 C 130.01,164.63 130.02,164.62 130.03,164.63 C 130.69,164.64 131.69,164.49 132.78,164.13 C 133.74,163.81 134.78,163.31 135.75,162.63 C 135.8,162.59 135.84,162.64 135.81,162.69 C 135.47,163.37 134.94,164.14 134.25,164.97 C 134.24,164.98 134.23,164.99 134.22,165.0 C 134.19,165.04 134.23,165.1 134.28,165.09 C 134.3,165.09 134.33,165.07 134.34,165.06 C 135.39,164.85 136.08,164.68 136.44,164.53 C 137.43,164.13 138.3,163.65 139.03,163.09 C 139.04,163.09 139.05,163.09 139.06,163.09 C 139.08,163.09 139.08,163.09 139.09,163.09 C 139.2,163.1 139.33,163.11 139.44,163.13 C 139.57,163.14 139.68,163.17 139.81,163.19 C 139.9,163.2 139.98,163.21 140.06,163.22 C 140.11,163.22 140.17,163.25 140.22,163.25 C 140.24,163.25 140.26,163.25 140.28,163.25 C 140.32,163.25 140.34,163.25 140.34,163.28 C 140.35,163.31 140.34,163.34 140.34,163.38 C 140.38,163.7 140.45,164.06 140.53,164.38 C 140.54,164.41 140.59,164.43 140.63,164.41 C 140.63,164.4 140.65,164.41 140.66,164.41 C 140.99,164.16 141.3,163.89 141.63,163.63 C 141.8,163.49 141.96,163.36 142.13,163.22 C 142.15,163.2 142.19,163.2 142.22,163.22 C 142.24,163.24 142.26,163.26 142.28,163.28 C 142.34,163.34 142.4,163.38 142.47,163.44 C 142.54,163.5 142.61,163.56 142.69,163.63 C 142.79,163.71 142.89,163.8 142.97,163.91 C 143.0,163.95 143.04,164.01 143.06,164.06 C 143.08,164.09 143.11,164.1 143.13,164.13 C 143.14,164.15 143.15,164.19 143.16,164.22 C 143.18,164.28 143.17,164.34 143.19,164.41 C 143.23,164.57 143.27,164.74 143.31,164.91 C 143.34,164.99 143.37,165.08 143.41,165.16 C 143.45,165.24 143.48,165.33 143.53,165.41 C 143.59,165.48 143.65,165.53 143.72,165.59 C 143.82,165.69 143.92,165.77 144.03,165.84 C 144.14,165.92 144.26,165.99 144.38,166.06 C 144.46,166.12 144.55,166.16 144.63,166.22 C 144.77,166.32 144.91,166.42 145.06,166.5 C 145.14,166.54 145.23,166.57 145.31,166.59 C 145.4,166.62 145.5,166.65 145.59,166.66 C 145.64,166.66 145.67,166.66 145.72,166.66 C 145.76,166.65 145.8,166.64 145.84,166.63 C 145.93,166.6 146.01,166.57 146.09,166.53 C 146.2,166.48 146.31,166.41 146.41,166.34 C 146.53,166.26 146.66,166.21 146.78,166.13 C 146.89,166.05 147.0,165.97 147.13,165.91 C 147.16,165.89 147.18,165.86 147.22,165.84 C 147.24,165.84 147.26,165.85 147.28,165.84 C 147.29,165.84 147.3,165.84 147.31,165.84 C 147.32,165.84 147.34,165.84 147.34,165.84 C 147.36,165.85 147.37,165.86 147.38,165.88 C 147.39,165.9 147.42,165.92 147.44,165.94 C 147.46,165.97 147.45,166.0 147.47,166.03 C 147.48,166.05 147.49,166.08 147.5,166.09 C 147.53,166.16 147.57,166.21 147.59,166.28 C 147.63,166.37 147.65,166.47 147.69,166.56 C 147.71,166.61 147.73,166.67 147.75,166.72 C 147.8,166.82 147.85,166.91 147.91,167.0 C 147.94,167.06 147.99,167.1 148.03,167.16 C 148.09,167.24 148.16,167.33 148.22,167.41 C 148.28,167.48 148.32,167.55 148.38,167.63 C 148.41,167.69 148.47,167.78 148.5,167.84 C 148.53,167.91 148.54,167.96 148.56,168.03 C 148.59,168.11 148.63,168.2 148.66,168.28 C 148.7,168.43 148.73,168.6 148.78,168.75 C 148.81,168.82 148.84,168.87 148.88,168.94 C 148.94,169.07 149.01,169.22 149.09,169.34 C 149.21,169.51 149.35,169.65 149.5,169.78 C 149.58,169.85 149.64,169.91 149.72,169.97 C 149.8,170.02 149.91,170.08 150.0,170.13 C 150.08,170.17 150.16,170.21 150.25,170.25 C 150.34,170.29 150.44,170.33 150.53,170.38 C 150.69,170.44 150.84,170.53 151.0,170.59 C 151.09,170.63 151.19,170.66 151.28,170.69 C 151.38,170.72 151.46,170.76 151.56,170.78 C 151.67,170.8 151.77,170.81 151.88,170.81 C 151.99,170.81 152.11,170.8 152.22,170.78 C 152.38,170.75 152.54,170.7 152.69,170.63 C 152.74,170.6 152.77,170.56 152.81,170.53 C 152.86,170.5 152.93,170.47 152.97,170.44 C 153.01,170.4 153.03,170.39 153.06,170.34 C 153.1,170.3 153.16,170.24 153.19,170.19 C 153.22,170.14 153.23,170.08 153.25,170.03 C 153.27,169.98 153.3,169.93 153.31,169.88 C 153.32,169.82 153.34,169.77 153.34,169.72 C 153.35,169.67 153.34,169.61 153.34,169.56 C 153.34,169.45 153.33,169.33 153.31,169.22 C 153.29,169.02 153.25,168.83 153.22,168.63 C 153.21,168.54 153.19,168.46 153.19,168.38 C 153.18,168.33 153.19,168.27 153.19,168.22 C 153.19,168.18 153.18,168.16 153.19,168.13 C 153.19,168.1 153.21,168.06 153.22,168.03 C 153.23,167.98 153.25,167.95 153.28,167.91 C 153.29,167.88 153.3,167.86 153.31,167.84 C 153.33,167.82 153.35,167.8 153.38,167.78 C 153.4,167.76 153.44,167.71 153.47,167.69 C 153.5,167.66 153.53,167.65 153.56,167.63 C 153.63,167.58 153.71,167.54 153.78,167.5 C 153.88,167.45 153.97,167.4 154.06,167.34 C 154.13,167.31 154.19,167.26 154.25,167.22 C 154.36,167.15 154.46,167.11 154.56,167.03 C 154.71,166.93 154.86,166.8 155.0,166.69 C 155.14,166.57 155.26,166.46 155.41,166.34 C 155.47,166.29 155.55,166.24 155.63,166.19 C 155.69,166.14 155.75,166.1 155.81,166.06 C 155.86,166.04 155.89,166.02 155.94,166.0 C 155.97,165.99 156.0,165.98 156.03,165.97 C 156.1,165.95 156.18,165.94 156.25,165.94 C 156.33,165.93 156.42,165.93 156.5,165.94 C 156.59,165.94 156.66,165.96 156.75,165.97 C 157.0,166.0 157.25,166.03 157.5,166.06 C 157.59,166.07 157.66,166.08 157.75,166.09 C 157.84,166.11 157.92,166.14 158.0,166.16 C 158.1,166.18 158.21,166.19 158.31,166.22 C 158.51,166.27 158.68,166.33 158.88,166.38 C 158.97,166.4 159.06,166.42 159.16,166.44 C 159.2,166.45 159.23,166.46 159.28,166.47 C 159.36,166.48 159.45,166.46 159.53,166.47 C 159.66,166.48 159.8,166.5 159.94,166.5 C 160.04,166.5 160.15,166.5 160.25,166.5 C 160.33,166.5 160.42,166.5 160.5,166.5 C 160.57,166.5 160.65,166.53 160.72,166.53 C 160.84,166.54 160.94,166.53 161.06,166.53 C 161.19,166.53 161.32,166.53 161.44,166.5 C 161.51,166.48 161.59,166.44 161.66,166.41 C 161.68,166.39 161.69,166.39 161.72,166.38 C 161.74,166.36 161.79,166.33 161.81,166.31 C 161.85,166.28 161.88,166.26 161.91,166.22 C 161.94,166.17 161.97,166.11 162.0,166.06 C 162.03,166.02 162.04,165.99 162.06,165.94 C 162.08,165.89 162.11,165.83 162.13,165.78 C 162.15,165.71 162.17,165.64 162.19,165.56 C 162.22,165.46 162.25,165.35 162.28,165.25 C 162.29,165.22 162.3,165.19 162.31,165.16 C 162.32,165.13 162.33,165.09 162.34,165.06 C 162.36,165.02 162.38,165.0 162.41,164.97 C 162.43,164.94 162.47,164.9 162.5,164.88 C 162.52,164.86 162.54,164.86 162.56,164.84 C 162.59,164.83 162.63,164.83 162.66,164.81 C 162.72,164.78 162.78,164.75 162.84,164.72 C 162.91,164.69 162.96,164.65 163.03,164.63 C 163.11,164.6 163.2,164.58 163.28,164.56 C 163.36,164.54 163.45,164.51 163.53,164.5 C 163.56,164.5 163.59,164.5 163.63,164.5 C 163.65,164.5 163.66,164.53 163.69,164.53 C 163.71,164.54 163.76,164.52 163.78,164.53 C 163.82,164.54 163.84,164.57 163.88,164.59 C 163.94,164.63 164.01,164.67 164.06,164.72 C 164.14,164.78 164.21,164.82 164.28,164.88 C 164.36,164.94 164.45,165.01 164.53,165.06 C 164.57,165.09 164.61,165.1 164.66,165.13 C 164.7,165.15 164.74,165.17 164.78,165.19 C 164.88,165.23 164.96,165.26 165.06,165.28 C 165.17,165.3 165.27,165.31 165.38,165.31 C 165.48,165.31 165.59,165.29 165.69,165.28 C 165.78,165.27 165.85,165.27 165.94,165.25 C 166.01,165.23 166.09,165.21 166.16,165.19 C 166.25,165.16 166.35,165.12 166.44,165.09 C 166.5,165.08 166.56,165.07 166.63,165.06 C 166.65,165.06 166.66,165.06 166.69,165.06 C 166.71,165.06 166.73,165.06 166.75,165.06 C 166.77,165.06 166.8,165.06 166.81,165.06 C 166.83,165.07 166.83,165.08 166.84,165.09 C 166.86,165.11 166.89,165.11 166.91,165.13 C 166.92,165.14 166.95,165.17 166.97,165.19 C 166.99,165.21 166.98,165.25 167.0,165.28 C 167.04,165.34 167.07,165.4 167.09,165.47 C 167.12,165.54 167.17,165.61 167.19,165.69 C 167.22,165.81 167.24,165.93 167.25,166.06 C 167.27,166.26 167.27,166.46 167.31,166.66 C 167.33,166.73 167.35,166.8 167.38,166.88 C 167.39,166.92 167.41,166.98 167.44,167.03 C 167.46,167.08 167.5,167.11 167.53,167.16 C 167.56,167.2 167.59,167.24 167.63,167.28 C 167.68,167.36 167.72,167.43 167.78,167.5 C 167.84,167.57 167.9,167.62 167.97,167.69 C 168.05,167.78 168.14,167.88 168.22,167.97 C 168.33,168.09 168.46,168.21 168.56,168.34 C 168.69,168.5 168.81,168.66 168.94,168.81 C 169.0,168.89 169.06,168.98 169.13,169.06 C 169.24,169.2 169.38,169.34 169.5,169.47 C 169.6,169.57 169.71,169.66 169.81,169.75 C 169.88,169.81 169.95,169.88 170.03,169.94 C 170.11,170.0 170.19,170.05 170.28,170.09 C 170.37,170.14 170.46,170.19 170.56,170.22 C 170.62,170.24 170.69,170.24 170.75,170.25 C 170.8,170.26 170.85,170.28 170.91,170.28 C 170.96,170.28 171.04,170.26 171.09,170.25 C 171.16,170.24 171.22,170.23 171.28,170.22 C 171.39,170.19 171.49,170.17 171.59,170.13 C 171.67,170.09 171.77,170.05 171.84,170.0 C 171.94,169.94 172.02,169.86 172.09,169.78 C 172.13,169.74 172.15,169.7 172.19,169.66 C 172.25,169.58 172.3,169.49 172.34,169.41 C 172.39,169.32 172.44,169.22 172.47,169.13 C 172.5,169.03 172.54,168.94 172.56,168.84 C 172.6,168.69 172.6,168.54 172.63,168.38 C 172.64,168.3 172.65,168.23 172.66,168.16 C 172.67,168.06 172.68,167.94 172.69,167.84 C 172.69,167.75 172.69,167.66 172.69,167.56 C 172.68,167.46 172.67,167.38 172.66,167.28 C 172.64,167.18 172.65,167.1 172.63,167.0 C 172.6,166.9 172.56,166.78 172.53,166.69 C 172.48,166.51 172.42,166.36 172.34,166.19 C 172.27,166.03 172.18,165.87 172.09,165.72 C 172.0,165.54 171.91,165.37 171.81,165.19 C 171.77,165.11 171.7,165.02 171.66,164.94 C 171.58,164.79 171.51,164.65 171.44,164.5 C 171.35,164.33 171.28,164.16 171.19,164.0 C 171.14,163.91 171.09,163.83 171.03,163.75 C 170.92,163.58 170.8,163.42 170.69,163.25 C 170.59,163.11 170.51,162.96 170.44,162.81 C 170.4,162.74 170.37,162.67 170.34,162.59 C 170.32,162.52 170.27,162.45 170.25,162.38 C 170.23,162.3 170.23,162.23 170.22,162.16 C 170.21,162.08 170.21,162.01 170.22,161.94 C 170.22,161.86 170.23,161.79 170.25,161.72 C 170.27,161.64 170.29,161.57 170.31,161.5 C 170.34,161.43 170.37,161.35 170.41,161.28 C 170.43,161.23 170.47,161.18 170.5,161.13 C 170.54,161.06 170.61,161.0 170.66,160.94 C 170.73,160.84 170.79,160.75 170.88,160.66 C 170.97,160.55 171.07,160.45 171.16,160.34 C 171.21,160.28 171.27,160.19 171.31,160.13 C 171.36,160.06 171.4,160.0 171.44,159.94 C 171.49,159.85 171.54,159.78 171.59,159.69 C 171.67,159.55 171.77,159.41 171.88,159.28 C 171.92,159.23 171.95,159.17 172.0,159.13 C 172.07,159.06 172.14,158.99 172.22,158.94 C 172.34,158.85 172.48,158.76 172.59,158.66 C 172.67,158.59 172.72,158.51 172.78,158.44 C 172.81,158.4 172.84,158.36 172.88,158.31 C 172.93,158.23 172.98,158.14 173.03,158.06 C 173.07,157.99 173.11,157.91 173.16,157.84 C 173.18,157.81 173.21,157.82 173.25,157.81 C 175.3,157.58 177.0,156.18 177.66,154.22 C 178.31,152.26 177.78,150.11 176.28,148.69 C 176.24,148.65 176.24,148.57 176.28,148.53 C 176.31,148.5 176.35,148.47 176.38,148.44 C 176.44,148.36 176.48,148.27 176.53,148.19 C 176.58,148.11 176.63,148.01 176.69,147.94 C 176.71,147.91 176.73,147.87 176.75,147.84 C 176.77,147.82 176.79,147.8 176.81,147.78 C 176.85,147.74 176.89,147.72 176.94,147.69 C 176.97,147.67 177.0,147.64 177.03,147.63 C 177.07,147.61 177.09,147.61 177.13,147.59 C 177.21,147.56 177.32,147.53 177.41,147.5 C 177.5,147.46 177.6,147.42 177.69,147.38 C 177.74,147.35 177.8,147.31 177.84,147.28 C 177.9,147.24 177.95,147.2 178.0,147.16 C 178.09,147.07 178.15,146.97 178.22,146.88 C 178.27,146.8 178.31,146.71 178.34,146.63 C 178.37,146.56 178.39,146.5 178.41,146.44 C 178.42,146.38 178.43,146.31 178.44,146.25 C 178.44,146.19 178.45,146.12 178.44,146.06 C 178.43,146.0 178.4,145.96 178.38,145.91 C 178.35,145.85 178.35,145.77 178.31,145.72 C 178.28,145.67 178.23,145.63 178.19,145.59 C 178.15,145.56 178.11,145.53 178.06,145.5 C 178.02,145.47 177.98,145.44 177.94,145.41 C 177.86,145.35 177.77,145.28 177.69,145.22 C 177.65,145.19 177.63,145.18 177.59,145.16 C 177.57,145.14 177.55,145.12 177.53,145.09 C 177.52,145.08 177.51,145.05 177.5,145.03 C 177.49,145.02 177.47,145.01 177.47,145.0 C 177.46,144.98 177.47,144.98 177.47,144.97 C 177.46,144.95 177.44,144.93 177.44,144.91 C 177.43,144.88 177.44,144.84 177.44,144.81 C 177.44,144.75 177.45,144.69 177.47,144.63 C 177.49,144.56 177.5,144.47 177.53,144.41 C 177.56,144.34 177.59,144.31 177.63,144.25 C 177.66,144.19 177.7,144.12 177.75,144.06 C 177.79,144.01 177.83,143.95 177.88,143.91 C 177.93,143.85 178.0,143.8 178.06,143.75 C 178.13,143.7 178.18,143.64 178.25,143.59 C 178.32,143.54 178.4,143.48 178.47,143.44 C 178.63,143.33 178.78,143.24 178.94,143.13 C 179.1,143.0 179.27,142.87 179.41,142.72 C 179.53,142.59 179.63,142.44 179.72,142.28 C 179.77,142.19 179.81,142.07 179.84,141.97 C 179.86,141.92 179.87,141.87 179.88,141.81 C 179.88,141.78 179.9,141.78 179.91,141.75 C 179.91,141.7 179.88,141.65 179.88,141.59 C 179.87,141.57 179.88,141.53 179.88,141.5 C 179.87,141.47 179.85,141.47 179.84,141.44 C 179.83,141.39 179.83,141.32 179.81,141.28 C 179.79,141.23 179.75,141.2 179.72,141.16 C 179.69,141.11 179.66,141.08 179.63,141.03 C 179.59,140.98 179.54,140.92 179.5,140.88 C 179.37,140.74 179.22,140.63 179.09,140.5 C 179.04,140.44 178.99,140.4 178.94,140.34 C 178.87,140.26 178.81,140.15 178.75,140.06 C 178.68,139.96 178.61,139.86 178.56,139.75 C 178.51,139.63 178.48,139.5 178.44,139.38 C 178.38,139.19 178.3,139.02 178.22,138.84 C 178.17,138.74 178.13,138.65 178.06,138.56 C 178.03,138.52 177.98,138.48 177.94,138.44 C 177.89,138.39 177.84,138.35 177.78,138.31 C 177.7,138.25 177.6,138.2 177.5,138.16 C 177.4,138.12 177.32,138.09 177.22,138.06 C 177.12,138.04 177.01,138.01 176.91,138.0 C 176.8,137.99 176.7,137.97 176.59,137.97 C 176.49,137.96 176.39,137.96 176.28,137.97 C 176.18,137.97 176.07,138.01 175.97,138.03 C 175.86,138.05 175.78,138.08 175.69,138.13 C 175.64,138.15 175.58,138.16 175.53,138.19 C 175.48,138.22 175.45,138.25 175.41,138.28 C 175.36,138.32 175.32,138.36 175.28,138.41 C 175.25,138.45 175.22,138.49 175.19,138.53 C 175.16,138.58 175.12,138.61 175.09,138.66 C 175.07,138.7 175.05,138.77 175.03,138.81 C 175.01,138.86 175.02,138.89 175.0,138.94 C 174.97,139.03 174.93,139.13 174.91,139.22 C 174.87,139.34 174.84,139.48 174.81,139.59 C 174.76,139.79 174.71,139.96 174.66,140.16 C 174.62,140.31 174.56,140.47 174.53,140.63 C 174.51,140.72 174.49,140.84 174.47,140.94 C 174.45,141.02 174.46,141.08 174.44,141.16 C 174.42,141.22 174.37,141.28 174.34,141.34 C 174.33,141.38 174.33,141.41 174.31,141.44 C 174.28,141.48 174.23,141.52 174.19,141.56 C 174.17,141.58 174.15,141.61 174.13,141.63 C 174.1,141.65 174.06,141.67 174.03,141.69 C 173.97,141.73 173.91,141.75 173.84,141.78 C 173.78,141.81 173.72,141.85 173.66,141.88 C 173.57,141.91 173.47,141.94 173.38,141.97 C 173.22,142.02 173.07,142.05 172.91,142.09 C 172.72,142.14 172.54,142.2 172.34,142.25 C 172.16,142.3 171.96,142.34 171.78,142.41 C 171.69,142.44 171.59,142.46 171.5,142.5 C 171.43,142.53 171.38,142.58 171.31,142.63 C 171.27,142.65 171.23,142.69 171.19,142.72 C 171.15,142.75 171.1,142.78 171.06,142.81 C 170.99,142.88 170.91,142.95 170.84,143.03 C 170.78,143.11 170.74,143.2 170.69,143.28 C 170.57,143.46 170.48,143.65 170.38,143.84 C 170.32,143.94 170.25,144.03 170.19,144.13 C 170.14,144.19 170.11,144.25 170.06,144.31 C 170.03,144.35 169.97,144.4 169.94,144.44 C 169.91,144.46 169.9,144.48 169.88,144.5 C 169.85,144.52 169.84,144.55 169.81,144.56 C 169.78,144.58 169.75,144.58 169.72,144.59 C 169.65,144.62 169.57,144.64 169.5,144.66 C 169.38,144.68 169.28,144.7 169.16,144.72 C 169.06,144.73 168.94,144.73 168.84,144.75 C 168.81,144.76 168.79,144.77 168.75,144.78 C 168.68,144.8 168.6,144.84 168.53,144.88 C 168.47,144.9 168.4,144.94 168.34,144.97 C 168.25,145.03 168.18,145.08 168.09,145.16 C 168.01,145.23 167.94,145.32 167.88,145.41 C 167.81,145.5 167.76,145.59 167.72,145.69 C 167.68,145.77 167.64,145.85 167.63,145.94 C 167.61,145.99 167.6,146.04 167.59,146.09 C 167.58,146.17 167.57,146.24 167.56,146.31 C 167.56,146.37 167.57,146.44 167.56,146.5 C 167.56,146.53 167.54,146.54 167.53,146.56 C 167.52,146.58 167.51,146.6 167.5,146.63 C 167.49,146.64 167.48,146.67 167.47,146.69 C 167.45,146.7 167.43,146.71 167.41,146.72 C 167.39,146.73 167.39,146.74 167.38,146.75 C 167.35,146.76 167.31,146.77 167.28,146.78 C 167.25,146.79 167.22,146.81 167.19,146.81 C 167.15,146.82 167.1,146.81 167.06,146.81 C 167.03,146.81 167.0,146.82 166.97,146.81 C 166.94,146.81 166.93,146.82 166.91,146.81 C 166.88,146.81 166.86,146.79 166.84,146.78 C 166.84,146.78 166.82,146.76 166.81,146.75 C 166.81,146.74 166.78,146.73 166.78,146.72 C 166.78,146.71 166.78,146.7 166.78,146.69 C 166.78,146.67 166.78,146.64 166.78,146.63 C 166.78,146.59 166.78,146.54 166.78,146.5 C 166.78,146.46 166.78,146.45 166.78,146.41 C 166.79,146.25 166.81,146.09 166.81,145.94 C 166.82,145.86 166.82,145.77 166.81,145.69 C 166.8,145.58 166.81,145.48 166.78,145.38 C 166.76,145.3 166.74,145.22 166.72,145.16 C 166.7,145.09 166.65,145.03 166.63,144.97 C 166.56,144.81 166.47,144.66 166.41,144.5 C 166.35,144.37 166.3,144.22 166.25,144.09 C 166.2,143.97 166.16,143.87 166.09,143.75 C 166.05,143.67 165.99,143.57 165.94,143.5 C 165.9,143.44 165.86,143.4 165.81,143.34 C 165.76,143.29 165.68,143.24 165.63,143.19 C 165.52,143.1 165.42,143.01 165.31,142.94 C 165.2,142.86 165.09,142.8 164.97,142.72 C 164.86,142.65 164.76,142.57 164.66,142.5 C 164.48,142.38 164.3,142.25 164.13,142.13 C 163.93,141.99 163.73,141.87 163.53,141.75 C 163.31,141.61 163.08,141.49 162.84,141.38 C 162.63,141.28 162.43,141.21 162.22,141.13 C 162.1,141.08 161.96,141.02 161.84,140.97 C 161.82,140.96 161.81,140.95 161.78,140.94 C 161.74,140.92 161.75,140.87 161.78,140.84 C 161.81,140.82 161.82,140.8 161.84,140.78 C 161.95,140.71 162.07,140.62 162.19,140.56 C 162.3,140.5 162.42,140.45 162.53,140.41 C 162.76,140.31 162.98,140.24 163.22,140.19 C 163.46,140.13 163.69,140.12 163.94,140.09 C 164.14,140.08 164.36,140.06 164.56,140.06 C 164.63,140.06 164.68,140.06 164.75,140.06 C 164.88,140.07 165.03,140.08 165.16,140.09 C 165.18,140.1 165.19,140.09 165.22,140.09 C 165.27,140.1 165.3,140.03 165.25,140.0 C 165.23,139.99 165.21,139.98 165.19,139.97 C 164.49,139.53 163.76,139.13 162.97,138.84 C 160.8,138.06 158.2,137.96 156.0,138.38 C 155.98,138.38 155.96,138.37 155.94,138.38 C 155.88,138.39 155.89,138.45 155.94,138.47 L 156.88,138.84 C 156.93,138.86 156.93,138.93 156.88,138.94 C 156.64,138.95 156.39,138.99 156.16,139.03 C 155.7,139.12 155.26,139.27 154.84,139.47 C 154.82,139.48 154.8,139.49 154.78,139.47 C 154.75,139.44 154.75,139.41 154.72,139.38 C 154.69,139.35 154.65,139.34 154.63,139.31 C 154.59,139.29 154.57,139.24 154.53,139.22 C 154.49,139.2 154.45,139.17 154.41,139.16 C 154.38,139.15 154.37,139.16 154.34,139.16 C 154.32,139.15 154.3,139.16 154.28,139.16 C 154.24,139.15 154.17,139.12 154.13,139.13 C 154.05,139.13 153.98,139.16 153.91,139.19 C 153.83,139.22 153.76,139.27 153.69,139.31 C 153.61,139.35 153.54,139.39 153.47,139.44 C 153.41,139.47 153.34,139.5 153.28,139.53 C 153.23,139.56 153.18,139.57 153.13,139.59 C 153.06,139.62 153.0,139.65 152.94,139.66 C 152.87,139.67 152.79,139.66 152.72,139.66 C 152.64,139.66 152.58,139.66 152.5,139.66 C 152.39,139.65 152.26,139.63 152.16,139.63 C 152.02,139.61 151.88,139.6 151.75,139.59 C 151.56,139.58 151.38,139.6 151.19,139.59 C 150.98,139.59 150.77,139.57 150.56,139.56 C 150.47,139.56 150.38,139.57 150.28,139.56 C 150.26,139.56 150.26,139.55 150.25,139.53 C 150.24,139.52 150.23,139.51 150.22,139.5 C 150.22,139.5 150.22,139.47 150.22,139.47 C 150.21,139.45 150.2,139.47 150.19,139.47 C 150.19,139.47 150.19,139.44 150.19,139.44 C 150.1,139.4 150.0,139.38 149.91,139.34 C 149.8,139.3 149.83,139.17 149.94,139.16 C 151.76,138.91 153.19,137.47 153.44,135.66 C 153.69,133.84 152.68,132.07 151.0,131.34 C 149.31,130.62 147.36,131.13 146.22,132.56 C 145.07,133.99 145.02,136.02 146.09,137.5 C 146.16,137.59 146.07,137.7 145.97,137.66 C 145.84,137.59 145.72,137.53 145.59,137.47 C 144.83,137.08 144.09,136.66 143.38,136.19 C 142.94,135.9 142.5,135.6 142.09,135.28 C 141.68,134.96 141.3,134.62 140.91,134.28 C 140.11,133.6 139.33,132.9 138.56,132.19 C 137.53,131.23 136.5,130.27 135.53,129.25 C 135.52,129.24 135.51,129.23 135.5,129.22 C 135.49,129.2 135.49,129.18 135.47,129.19 z M 149.38,133.16 C 150.45,133.16 151.34,134.02 151.34,135.09 C 151.34,136.17 150.45,137.06 149.38,137.06 C 148.3,137.06 147.44,136.17 147.44,135.09 C 147.44,134.02 148.3,133.16 149.38,133.16 z M 176.56,140.38 C 176.61,140.38 176.64,140.44 176.66,140.47 C 176.69,140.53 176.72,140.57 176.75,140.63 C 176.87,140.86 177.01,141.09 177.19,141.28 C 177.27,141.38 177.36,141.46 177.44,141.56 C 177.55,141.72 177.53,141.77 177.38,141.88 C 177.16,142.03 176.9,142.13 176.69,142.28 C 176.25,142.59 176.02,143.11 175.81,143.56 C 175.61,144.01 175.41,144.52 175.41,145.03 C 175.4,145.29 175.45,145.55 175.47,145.81 C 175.5,146.15 175.45,146.29 175.16,146.47 C 174.94,146.61 174.69,146.71 174.47,146.84 C 174.24,146.98 174.07,147.14 173.88,147.31 C 173.85,147.34 173.82,147.35 173.78,147.34 C 171.1,146.75 168.4,148.29 167.56,150.91 C 166.73,153.52 168.01,156.33 170.53,157.41 C 170.59,157.43 170.64,157.51 170.59,157.56 C 170.43,157.78 170.34,158.04 170.25,158.28 C 170.14,158.57 170.07,158.72 169.84,158.94 C 169.66,159.12 169.45,159.29 169.28,159.5 C 169.12,159.71 168.99,159.92 168.88,160.16 C 168.64,160.63 168.45,161.11 168.34,161.63 C 168.23,162.2 168.28,162.62 168.5,163.16 C 168.7,163.64 168.96,164.09 169.25,164.53 C 169.67,165.16 169.71,165.18 170.03,165.88 C 170.14,166.11 170.27,166.34 170.41,166.56 C 170.49,166.7 170.74,167.06 170.75,167.25 C 170.76,167.41 170.59,167.45 170.47,167.44 C 170.33,167.43 170.23,167.37 170.13,167.28 C 169.92,167.11 169.76,166.89 169.59,166.69 C 169.45,166.5 169.28,166.33 169.16,166.13 C 169.02,165.9 169.01,165.68 169.03,165.44 C 169.08,164.85 169.11,164.58 168.66,164.13 C 168.48,163.95 167.79,163.34 167.59,163.19 C 167.31,162.97 166.78,162.58 166.34,162.78 C 166.25,162.82 166.26,162.73 166.28,162.66 C 166.3,162.59 166.31,162.54 166.31,162.47 C 166.33,162.32 166.31,162.17 166.25,162.03 C 166.19,161.89 166.11,161.79 166.0,161.69 C 165.89,161.58 165.77,161.51 165.63,161.47 C 165.56,161.45 165.48,161.45 165.41,161.44 C 165.38,161.43 165.23,161.4 165.22,161.38 C 165.16,161.27 164.94,161.16 164.84,161.13 C 164.57,161.02 164.33,160.96 164.03,160.97 C 163.73,160.98 163.47,161.08 163.22,161.25 C 162.98,161.41 162.79,161.61 162.56,161.78 C 162.31,161.97 162.06,162.04 161.75,162.0 C 161.67,161.99 161.63,161.99 161.59,161.91 C 161.56,161.84 161.57,161.77 161.63,161.72 C 161.69,161.66 161.74,161.69 161.81,161.69 C 161.88,161.69 161.96,161.67 162.03,161.66 C 162.17,161.62 162.28,161.56 162.38,161.47 C 162.42,161.42 162.46,161.36 162.5,161.31 C 162.57,161.23 162.54,161.25 162.47,161.19 C 162.27,161.02 162.06,160.84 161.88,160.66 C 161.5,160.28 161.2,159.87 160.94,159.41 C 160.43,158.51 160.18,157.42 160.63,156.41 C 161.04,155.46 161.95,154.7 163.0,154.56 C 164.02,154.42 165.14,154.87 165.88,155.56 C 166.27,155.94 166.49,156.36 166.66,156.88 C 166.7,157.0 166.75,157.12 166.78,157.25 C 166.79,157.28 166.78,157.4 166.84,157.41 C 166.89,157.41 166.95,157.3 166.97,157.28 C 167.12,157.07 167.3,156.87 167.41,156.63 C 167.52,156.38 167.57,156.14 167.59,155.88 C 167.62,155.61 167.63,155.35 167.53,155.09 C 167.46,154.92 167.26,154.56 167.16,154.41 C 167.01,154.19 166.83,154.02 166.72,153.78 C 166.66,153.66 166.62,153.52 166.56,153.41 C 166.51,153.29 166.43,153.18 166.38,153.06 C 166.27,152.82 166.3,152.56 166.22,152.31 C 166.11,151.99 165.99,151.91 165.72,151.75 C 165.49,151.61 165.25,151.5 165.0,151.41 C 164.51,151.22 164.03,151.09 163.53,150.94 C 163.03,150.79 162.53,150.63 162.03,150.47 C 161.04,150.15 160.05,149.86 159.03,149.63 C 158.52,149.51 157.98,149.4 157.47,149.31 C 157.21,149.27 156.98,149.23 156.72,149.19 C 156.69,149.18 156.66,149.19 156.63,149.19 C 156.59,149.18 156.55,149.15 156.53,149.13 C 156.49,149.08 156.45,149.02 156.41,148.97 C 156.32,148.87 156.27,148.72 156.31,148.59 C 156.36,148.47 156.47,148.4 156.59,148.38 C 156.66,148.36 156.71,148.35 156.78,148.38 C 156.81,148.39 156.85,148.42 156.88,148.44 C 156.9,148.45 156.93,148.46 156.97,148.47 C 157.22,148.51 157.47,148.55 157.72,148.59 C 157.85,148.62 157.97,148.63 158.09,148.66 C 158.18,148.67 158.22,148.7 158.22,148.59 L 158.22,148.41 C 158.21,148.15 158.2,147.89 158.22,147.63 C 158.28,146.56 158.49,145.55 158.91,144.56 C 159.14,144.0 159.44,143.5 159.78,143.0 C 159.87,142.88 159.94,142.75 160.03,142.63 C 160.08,142.56 160.14,142.5 160.19,142.44 C 160.21,142.41 160.23,142.37 160.25,142.34 C 160.28,142.31 160.31,142.33 160.34,142.34 C 160.57,142.45 160.8,142.56 161.03,142.66 C 161.64,142.9 161.83,143.0 162.34,143.41 C 162.74,143.72 163.12,144.03 163.56,144.28 C 164.1,144.58 164.37,144.7 164.66,145.28 C 164.85,145.67 165.08,146.25 165.0,146.72 C 164.92,147.23 164.61,147.63 164.5,148.13 C 164.38,148.67 164.62,149.14 165.06,149.44 C 165.5,149.73 166.07,149.78 166.53,149.47 C 166.75,149.32 166.93,149.14 167.13,148.97 C 167.33,148.8 167.57,148.67 167.81,148.56 C 168.3,148.36 168.76,148.16 169.16,147.78 C 169.35,147.6 169.5,147.4 169.66,147.19 C 169.81,146.98 169.94,146.75 170.13,146.56 C 170.32,146.36 170.56,146.27 170.81,146.19 C 171.06,146.1 171.28,146.03 171.47,145.81 C 171.65,145.6 171.72,145.37 171.81,145.13 C 171.9,144.88 172.0,144.65 172.16,144.44 C 172.32,144.21 172.5,144.06 172.78,144.0 C 173.04,143.94 173.31,143.95 173.56,143.91 C 173.95,143.84 174.7,143.56 175.06,143.41 C 175.58,143.18 175.9,142.88 176.16,142.38 C 176.41,141.88 176.42,141.36 176.47,140.84 C 176.48,140.71 176.51,140.6 176.53,140.47 C 176.54,140.43 176.51,140.37 176.56,140.38 z M 135.06,140.88 C 135.12,140.85 135.13,140.93 135.09,140.97 C 134.32,141.81 133.1,142.62 131.94,143.19 C 131.04,143.62 130.19,143.89 129.13,144.22 C 129.0,144.26 128.91,144.14 128.97,144.03 C 129.0,143.98 129.03,143.93 129.06,143.88 C 129.09,143.81 129.13,143.75 129.16,143.69 C 129.18,143.63 129.19,143.56 129.22,143.5 C 129.32,143.24 129.42,142.95 129.5,142.69 C 129.5,142.67 129.5,142.67 129.5,142.66 C 129.51,142.63 129.53,142.6 129.56,142.59 C 131.46,142.29 133.34,141.71 135.06,140.88 z M 151.19,141.47 C 151.45,141.48 151.71,141.53 151.97,141.53 C 152.01,141.53 152.05,141.53 152.09,141.53 C 152.28,141.85 152.47,142.15 152.66,142.47 C 152.77,142.66 152.69,142.92 152.5,143.03 C 152.31,143.15 152.05,143.07 151.94,142.88 C 151.67,142.41 151.43,141.94 151.19,141.47 z M 139.63,142.94 C 139.68,142.91 139.73,142.96 139.69,143.0 C 139.43,143.22 139.17,143.45 138.91,143.66 C 138.57,143.93 138.22,144.18 137.88,144.44 C 137.87,144.44 137.85,144.46 137.84,144.47 C 137.81,144.49 137.83,144.55 137.88,144.56 C 137.89,144.57 137.9,144.56 137.91,144.56 C 138.88,144.9 139.87,145.2 140.88,145.44 C 141.66,145.62 142.48,145.76 143.28,145.88 C 143.32,145.88 143.34,145.94 143.31,145.97 C 143.15,146.16 142.97,146.34 142.81,146.53 C 142.49,146.92 142.18,147.34 141.88,147.75 C 141.85,147.78 141.84,147.82 141.88,147.84 C 141.88,147.85 141.9,147.84 141.91,147.84 C 142.26,148.08 142.65,148.27 143.06,148.41 C 143.34,148.5 143.62,148.56 143.91,148.59 C 143.96,148.6 143.98,148.66 143.94,148.69 C 143.88,148.72 143.83,148.75 143.78,148.78 C 143.42,148.99 143.07,149.27 142.78,149.59 C 142.78,149.6 142.75,149.59 142.75,149.59 C 142.72,149.62 142.75,149.66 142.78,149.69 C 143.09,149.96 143.42,150.22 143.78,150.44 C 144.06,150.6 144.36,150.74 144.66,150.88 C 144.69,150.89 144.69,150.94 144.66,150.97 C 144.36,151.18 144.07,151.49 143.91,151.84 C 143.89,151.87 143.88,151.89 143.91,151.91 C 144.28,152.22 144.65,152.43 145.13,152.66 C 145.16,152.67 145.15,152.69 145.13,152.72 C 143.18,154.33 141.63,154.98 140.13,155.41 C 139.33,155.63 138.56,155.8 137.66,155.81 L 137.63,155.81 C 137.58,155.81 137.53,155.87 137.56,155.91 C 137.57,155.92 137.58,155.93 137.59,155.94 C 138.04,156.44 138.59,156.87 139.19,157.19 C 139.41,157.31 139.63,157.41 139.88,157.5 C 139.93,157.52 139.93,157.59 139.88,157.59 C 138.05,157.81 136.24,158.16 134.47,158.63 C 134.37,158.65 134.29,158.66 134.19,158.69 C 134.17,158.69 134.14,158.7 134.13,158.69 C 134.08,158.66 134.05,158.65 134.0,158.63 C 133.87,158.57 133.7,158.51 133.56,158.5 C 133.42,158.48 133.3,158.51 133.16,158.5 C 133.09,158.5 133.03,158.48 132.97,158.47 C 132.89,158.46 132.79,158.43 132.72,158.41 C 132.62,158.37 132.52,158.34 132.44,158.28 C 132.35,158.22 132.26,158.12 132.19,158.03 C 132.11,157.94 132.07,157.85 132.0,157.75 C 131.93,157.63 131.85,157.49 131.78,157.38 C 131.71,157.26 131.62,157.14 131.53,157.03 C 131.45,156.92 131.38,156.84 131.28,156.75 C 131.08,156.56 130.84,156.39 130.63,156.22 C 130.42,156.06 130.22,155.89 130.03,155.72 C 129.86,155.57 129.7,155.4 129.56,155.22 C 129.49,155.13 129.43,155.04 129.38,154.94 C 129.31,154.83 129.27,154.74 129.22,154.63 C 129.11,154.39 129.0,154.13 128.94,153.88 C 128.88,153.63 128.83,153.38 128.78,153.13 C 128.77,153.06 128.77,153.0 128.75,152.94 C 128.73,152.87 128.71,152.81 128.69,152.75 C 128.65,152.62 128.6,152.5 128.56,152.38 C 128.52,152.26 128.5,152.12 128.47,152.0 C 128.45,151.92 128.45,151.83 128.44,151.75 C 128.42,151.62 128.42,151.51 128.41,151.38 C 128.4,151.24 128.37,151.1 128.34,150.97 C 128.33,150.9 128.31,150.85 128.28,150.78 C 128.26,150.72 128.22,150.63 128.19,150.56 C 128.13,150.44 128.06,150.34 128.0,150.22 C 127.95,150.11 127.9,149.99 127.88,149.88 C 127.85,149.76 127.87,149.65 127.88,149.53 C 127.88,149.4 127.89,149.26 127.91,149.13 C 127.91,149.06 127.91,149.01 127.91,148.94 C 127.91,148.87 127.91,148.79 127.91,148.72 C 127.89,148.58 127.84,148.45 127.81,148.31 C 127.79,148.19 127.78,148.06 127.78,147.94 C 127.78,147.88 127.8,147.83 127.81,147.78 C 127.83,147.73 127.85,147.68 127.88,147.63 C 127.9,147.57 127.91,147.52 127.94,147.47 C 127.97,147.41 128.03,147.34 128.06,147.28 C 128.14,147.16 128.2,147.04 128.25,146.91 C 128.28,146.84 128.3,146.76 128.31,146.69 C 128.33,146.62 128.34,146.57 128.34,146.5 C 128.35,146.36 128.32,146.2 128.31,146.06 C 128.3,145.91 128.3,145.77 128.31,145.63 C 128.32,145.5 128.31,145.4 128.34,145.28 C 128.37,145.16 128.42,145.02 128.47,144.91 C 128.52,144.79 128.59,144.7 128.66,144.59 C 128.66,144.59 128.66,144.56 128.66,144.56 C 128.69,144.5 128.71,144.49 128.78,144.5 C 130.3,144.67 131.88,144.69 133.44,144.53 C 135.57,144.31 137.67,143.76 139.63,142.94 z M 147.44,159.66 C 147.73,159.66 148.02,159.69 148.31,159.72 C 148.75,159.76 149.19,159.8 149.63,159.91 C 149.95,159.98 150.26,160.09 150.56,160.22 C 150.79,160.32 150.99,160.42 151.19,160.56 C 151.34,160.67 151.46,160.78 151.59,160.91 C 151.65,160.96 151.7,161.01 151.75,161.06 C 151.79,161.1 151.84,161.18 151.88,161.22 C 151.94,161.3 151.98,161.38 152.03,161.47 C 152.04,161.49 152.07,161.5 152.09,161.5 C 152.31,161.5 152.54,161.48 152.75,161.47 C 153.02,161.45 153.26,161.42 153.5,161.38 C 153.53,161.37 153.55,161.38 153.56,161.41 C 153.63,161.53 153.7,161.66 153.78,161.78 C 153.87,161.91 153.96,162.04 154.06,162.16 C 154.17,162.28 154.3,162.37 154.44,162.47 C 154.6,162.58 154.75,162.68 154.94,162.75 C 155.13,162.82 155.33,162.87 155.53,162.91 C 155.73,162.95 155.95,162.98 156.16,163.0 C 156.36,163.02 156.57,163.02 156.78,163.03 C 156.98,163.05 157.17,163.07 157.38,163.09 C 157.58,163.14 157.82,163.16 158.03,163.16 C 158.26,163.16 158.46,163.15 158.69,163.13 C 158.83,163.11 158.98,163.08 159.13,163.06 C 159.25,163.05 159.37,163.04 159.5,163.03 C 159.6,163.03 159.71,163.05 159.81,163.06 C 159.83,163.07 159.86,163.06 159.88,163.06 C 159.88,163.06 159.9,163.06 159.91,163.06 C 159.92,163.07 159.93,163.08 159.94,163.09 C 159.97,163.12 159.98,163.16 160.0,163.19 C 160.03,163.23 160.04,163.27 160.06,163.31 C 160.07,163.33 160.09,163.35 160.09,163.38 C 160.1,163.39 160.1,163.39 160.09,163.41 C 160.09,163.42 160.1,163.45 160.09,163.47 C 160.05,163.56 159.99,163.63 159.94,163.72 C 159.9,163.78 159.85,163.84 159.81,163.91 C 159.8,163.93 159.79,163.95 159.78,163.97 C 159.77,164.0 159.76,164.03 159.75,164.06 C 159.74,164.09 159.72,164.13 159.72,164.16 C 159.72,164.17 159.72,164.17 159.72,164.19 C 159.72,164.2 159.75,164.23 159.75,164.25 C 159.75,164.26 159.75,164.28 159.75,164.28 C 159.76,164.3 159.76,164.33 159.75,164.34 C 159.73,164.37 159.73,164.38 159.72,164.41 C 159.71,164.42 159.7,164.43 159.69,164.44 C 159.66,164.45 159.62,164.46 159.59,164.47 C 159.53,164.48 159.47,164.47 159.41,164.47 C 159.34,164.47 159.28,164.48 159.22,164.47 C 159.15,164.46 159.07,164.45 159.0,164.44 C 158.89,164.42 158.77,164.4 158.66,164.38 C 158.53,164.35 158.41,164.34 158.28,164.31 C 158.0,164.26 157.72,164.2 157.44,164.16 C 157.17,164.11 156.9,164.08 156.63,164.06 C 156.35,164.05 156.08,164.05 155.81,164.09 C 155.68,164.12 155.54,164.14 155.41,164.19 C 155.27,164.23 155.16,164.28 155.03,164.34 C 154.91,164.41 154.77,164.49 154.66,164.56 C 154.54,164.64 154.45,164.73 154.34,164.81 C 154.13,164.98 153.94,165.15 153.72,165.31 C 153.5,165.47 153.23,165.61 153.0,165.75 C 152.88,165.82 152.8,165.89 152.69,165.97 C 152.57,166.04 152.45,166.14 152.34,166.22 C 152.24,166.3 152.13,166.38 152.03,166.47 C 151.93,166.56 151.83,166.64 151.75,166.75 C 151.66,166.86 151.59,167.0 151.53,167.13 C 151.47,167.26 151.41,167.39 151.38,167.53 C 151.34,167.69 151.31,167.84 151.28,168.0 C 151.27,168.09 151.27,168.2 151.25,168.28 C 151.24,168.33 151.21,168.36 151.19,168.41 C 151.18,168.42 151.17,168.43 151.16,168.44 C 151.15,168.44 151.13,168.47 151.13,168.47 C 151.11,168.47 151.11,168.47 151.09,168.47 C 151.08,168.47 151.05,168.44 151.03,168.44 C 151.01,168.43 150.99,168.45 150.97,168.44 C 150.91,168.41 150.87,168.36 150.81,168.31 C 150.76,168.27 150.7,168.21 150.66,168.16 C 150.61,168.11 150.57,168.06 150.53,168.0 C 150.5,167.95 150.49,167.9 150.47,167.84 C 150.45,167.79 150.42,167.72 150.41,167.66 C 150.38,167.53 150.37,167.41 150.34,167.28 C 150.33,167.22 150.33,167.13 150.31,167.06 C 150.29,167.0 150.25,166.94 150.22,166.88 C 150.16,166.75 150.06,166.63 149.97,166.53 C 149.87,166.43 149.78,166.35 149.69,166.25 C 149.64,166.2 149.6,166.14 149.56,166.09 C 149.53,166.05 149.5,166.01 149.47,165.97 C 149.44,165.92 149.4,165.87 149.38,165.81 C 149.32,165.69 149.27,165.56 149.22,165.44 C 149.17,165.31 149.12,165.19 149.06,165.06 C 149.0,164.94 148.93,164.8 148.84,164.69 C 148.76,164.57 148.67,164.47 148.56,164.38 C 148.46,164.28 148.34,164.19 148.22,164.13 C 148.1,164.06 147.95,164.01 147.81,163.97 C 147.68,163.93 147.57,163.9 147.44,163.88 C 147.35,163.86 147.25,163.86 147.16,163.84 C 147.02,163.83 146.89,163.81 146.75,163.81 C 146.61,163.82 146.45,163.83 146.31,163.88 C 146.24,163.9 146.16,163.93 146.09,163.97 C 146.03,164.01 145.97,164.05 145.91,164.09 C 145.8,164.17 145.7,164.27 145.59,164.34 C 145.55,164.38 145.49,164.38 145.44,164.41 C 145.42,164.42 145.43,164.43 145.41,164.44 C 145.39,164.44 145.36,164.44 145.34,164.44 C 145.33,164.44 145.32,164.44 145.31,164.44 C 145.3,164.44 145.29,164.44 145.28,164.44 C 145.27,164.43 145.26,164.42 145.25,164.41 C 145.24,164.39 145.23,164.39 145.22,164.38 C 145.19,164.33 145.18,164.3 145.16,164.25 C 145.13,164.2 145.11,164.14 145.09,164.09 C 145.07,164.03 145.02,163.97 145.0,163.91 C 144.97,163.83 144.97,163.73 144.94,163.66 C 144.91,163.59 144.9,163.53 144.88,163.47 C 144.85,163.4 144.81,163.34 144.78,163.28 C 144.72,163.16 144.67,163.05 144.59,162.94 C 144.52,162.83 144.43,162.72 144.34,162.63 C 144.26,162.53 144.16,162.43 144.06,162.34 C 143.96,162.25 143.85,162.16 143.75,162.06 C 143.7,162.02 143.67,161.98 143.63,161.94 C 143.6,161.91 143.6,161.87 143.63,161.84 C 143.68,161.79 143.75,161.74 143.81,161.69 C 143.96,161.56 144.07,161.43 144.22,161.31 C 144.38,161.18 144.58,161.04 144.75,160.91 C 145.07,160.66 145.39,160.45 145.72,160.22 C 145.99,160.04 146.25,159.85 146.53,159.69 C 146.54,159.68 146.55,159.69 146.56,159.69 C 146.85,159.68 147.15,159.65 147.44,159.66 z M 165.22,162.09 C 165.45,162.11 165.75,162.21 165.88,162.44 C 165.94,162.55 165.95,162.68 165.97,162.81 C 165.98,162.92 165.96,162.91 165.88,162.97 C 165.83,163.0 165.8,163.06 165.75,163.09 C 165.71,163.12 165.62,163.02 165.59,163.0 C 165.57,162.98 165.55,162.97 165.53,162.94 C 165.52,162.91 165.52,162.87 165.5,162.84 C 165.46,162.76 165.29,162.64 165.22,162.59 C 165.17,162.56 165.12,162.53 165.06,162.5 C 165.04,162.48 164.99,162.49 164.97,162.47 C 164.95,162.44 164.94,162.39 164.97,162.38 C 165.02,162.34 165.09,162.31 165.13,162.25 C 165.14,162.22 165.17,162.09 165.22,162.09 z"
		 />
		 <path style="fill:#f00;stroke:none;"
		 d="M 150.37,139.84 C 148.14,139.84 145.92,139.84 143.69,139.84 C 143.6,139.84 143.51,139.84 143.42,139.84 C 143.4,139.84 143.37,139.84 143.35,139.84 C 143.35,139.84 143.35,139.84 143.35,139.83 C 143.35,139.83 143.35,139.82 143.35,139.82 C 143.35,139.8 143.35,139.79 143.35,139.77 C 143.35,139.73 143.35,139.7 143.35,139.67 C 143.35,139.6 143.35,139.53 143.35,139.46 C 143.35,139.33 143.35,139.19 143.35,139.05 C 143.35,138.78 143.35,138.51 143.35,138.24 C 143.35,138.17 143.35,138.1 143.35,138.03 C 143.35,138.01 143.35,138.0 143.35,137.98 C 143.35,137.98 143.35,137.97 143.35,137.97 C 143.35,137.95 143.37,137.96 143.38,137.96 C 143.47,137.96 143.56,137.96 143.65,137.96 C 144.01,137.96 144.37,137.96 144.73,137.96 C 145.09,137.96 145.45,137.96 145.81,137.96 C 145.99,137.96 146.17,137.96 146.35,137.96 C 146.38,137.96 146.41,137.95 146.45,137.97 C 146.46,137.97 146.47,137.98 146.48,137.98 C 146.56,138.02 146.64,138.05 146.72,138.09 C 147.04,138.24 147.36,138.38 147.69,138.52 C 148.11,138.7 148.53,138.88 148.95,139.05 C 149.17,139.14 149.38,139.22 149.59,139.3 C 149.62,139.31 149.65,139.33 149.67,139.34 C 149.69,139.34 149.7,139.33 149.71,139.35 C 149.73,139.38 149.75,139.41 149.77,139.43 C 149.83,139.49 149.9,139.5 149.97,139.53 C 150.0,139.54 150.03,139.55 150.05,139.56 C 150.07,139.56 150.08,139.57 150.09,139.57 C 150.1,139.58 150.1,139.58 150.1,139.59 C 150.12,139.62 150.13,139.64 150.15,139.65 C 150.22,139.72 150.3,139.7 150.38,139.71 C 150.49,139.71 150.6,139.72 150.72,139.72 C 150.78,139.72 150.83,139.73 150.89,139.73 C 150.91,139.73 150.91,139.74 150.92,139.75 C 150.92,139.77 150.93,139.78 150.94,139.79 C 150.95,139.82 150.96,139.84 150.97,139.87 C 151.07,140.08 151.17,140.29 151.27,140.5 C 151.32,140.6 151.37,140.7 151.43,140.81 C 151.45,140.86 151.48,140.91 151.5,140.96 C 151.52,140.99 151.53,141.01 151.54,141.04 C 151.55,141.04 151.55,141.05 151.55,141.06 C 151.56,141.07 151.57,141.06 151.58,141.06 C 151.6,141.04 151.63,141.03 151.66,141.01 C 151.72,140.98 151.79,140.94 151.86,140.91 C 151.97,140.85 152.07,140.8 152.18,140.75 C 152.21,140.73 152.23,140.72 152.26,140.71 C 152.28,140.7 152.29,140.69 152.3,140.69 C 152.32,140.68 152.28,140.68 152.28,140.68 C 152.25,140.68 152.22,140.68 152.19,140.67 C 152.16,140.67 152.21,140.66 152.22,140.65 C 152.23,140.64 152.24,140.63 152.26,140.62 C 152.28,140.6 152.3,140.59 152.33,140.57 C 152.38,140.53 152.42,140.49 152.47,140.46 C 152.57,140.38 152.66,140.31 152.76,140.24 C 153.15,139.94 153.52,139.64 153.93,139.38 C 154.06,139.3 154.09,139.26 154.26,139.28 C 154.38,139.3 154.47,139.35 154.56,139.43 C 154.6,139.47 154.64,139.51 154.67,139.55 C 154.78,139.67 154.87,139.63 154.99,139.57 C 155.09,139.53 155.19,139.48 155.29,139.44 C 155.5,139.36 155.7,139.3 155.92,139.24 C 156.13,139.19 156.34,139.15 156.56,139.12 C 156.62,139.11 156.85,139.1 156.91,139.09 C 157.02,139.06 157.08,138.95 157.05,138.84 C 157.02,138.76 156.97,138.73 156.9,138.7 C 156.85,138.68 156.8,138.66 156.74,138.64 C 156.64,138.6 156.54,138.57 156.43,138.53 C 156.38,138.51 156.33,138.49 156.28,138.47 C 156.26,138.46 156.3,138.46 156.31,138.46 C 156.32,138.46 156.33,138.45 156.35,138.45 C 156.37,138.45 156.4,138.44 156.43,138.44 C 156.65,138.4 156.87,138.38 157.1,138.35 C 159.25,138.13 161.63,138.37 163.64,139.27 C 163.93,139.4 164.21,139.54 164.48,139.7 C 164.55,139.73 164.62,139.77 164.69,139.81 C 164.7,139.82 164.7,139.82 164.71,139.83 C 164.72,139.83 164.72,139.83 164.73,139.83 C 164.75,139.85 164.69,139.84 164.68,139.84 C 164.51,139.84 164.35,139.84 164.19,139.84 C 163.86,139.84 163.53,139.84 163.2,139.84 C 161.9,139.84 160.59,139.84 159.28,139.84 C 157.76,139.84 156.24,139.84 154.71,139.84 C 154.62,139.84 154.52,139.84 154.43,139.84 C 154.38,139.84 154.33,139.84 154.29,139.84 C 154.26,139.84 154.24,139.84 154.22,139.84 C 154.21,139.84 154.2,139.84 154.2,139.84 C 154.18,139.85 154.16,139.87 154.14,139.88 C 154.1,139.9 154.06,139.93 154.02,139.96 C 153.94,140.01 153.87,140.06 153.79,140.12 C 153.76,140.15 153.72,140.17 153.68,140.2 C 153.66,140.22 153.64,140.23 153.63,140.25 C 153.62,140.25 153.62,140.25 153.61,140.26 C 153.61,140.26 153.59,140.26 153.6,140.27 C 153.61,140.27 153.62,140.27 153.63,140.27 C 153.73,140.28 153.82,140.29 153.91,140.29 C 154.09,140.31 154.28,140.33 154.46,140.34 C 154.6,140.36 154.73,140.37 154.87,140.38 C 154.94,140.39 155.0,140.39 155.07,140.4 C 155.11,140.4 155.14,140.4 155.17,140.41 C 155.18,140.41 155.19,140.41 155.2,140.41 C 155.21,140.41 155.19,140.41 155.18,140.41 C 155.17,140.41 155.15,140.42 155.13,140.42 C 154.86,140.45 154.59,140.5 154.32,140.56 C 153.77,140.68 153.25,140.85 152.74,141.07 C 152.62,141.13 152.49,141.18 152.37,141.24 C 152.31,141.27 152.24,141.3 152.18,141.34 C 152.15,141.35 152.13,141.38 152.09,141.38 C 152.06,141.38 152.02,141.38 151.99,141.38 C 151.71,141.37 151.43,141.35 151.16,141.34 C 151.14,141.34 151.12,141.33 151.1,141.33 C 151.1,141.33 151.08,141.29 151.08,141.29 C 151.06,141.26 151.04,141.23 151.03,141.19 C 150.99,141.13 150.96,141.07 150.93,141.0 C 150.87,140.87 150.8,140.74 150.74,140.62 C 150.61,140.36 150.49,140.1 150.37,139.84 z M 161.53,141.72 C 161.37,141.87 161.22,142.03 161.07,142.2 C 161.04,142.24 161.0,142.28 160.97,142.32 C 160.95,142.34 160.93,142.36 160.91,142.38 C 160.9,142.39 160.9,142.4 160.89,142.41 C 160.88,142.42 160.88,142.42 160.87,142.43 C 160.87,142.44 160.86,142.43 160.86,142.43 C 160.86,142.42 160.85,142.42 160.85,142.42 C 160.7,142.36 160.56,142.29 160.42,142.22 C 160.24,142.13 160.16,142.24 160.07,142.36 C 160.02,142.43 159.97,142.49 159.92,142.55 C 159.83,142.68 159.73,142.81 159.65,142.94 C 159.56,143.07 159.47,143.21 159.39,143.34 C 159.34,143.41 159.3,143.48 159.26,143.55 C 159.25,143.56 159.24,143.58 159.23,143.6 C 159.22,143.61 159.21,143.6 159.2,143.6 C 159.18,143.6 159.16,143.6 159.14,143.6 C 159.1,143.6 159.06,143.6 159.02,143.6 C 158.94,143.6 158.86,143.6 158.78,143.6 C 158.45,143.6 158.13,143.6 157.8,143.6 C 156.71,143.6 155.62,143.6 154.52,143.6 C 154.39,143.6 154.25,143.6 154.11,143.6 C 154.1,143.6 154.08,143.6 154.06,143.6 C 154.05,143.6 154.02,143.59 154.03,143.6 C 154.04,143.61 154.04,143.61 154.04,143.62 C 154.05,143.62 154.05,143.63 154.05,143.64 C 154.07,143.67 154.09,143.69 154.11,143.72 C 154.14,143.78 154.18,143.84 154.21,143.89 C 154.34,144.1 154.46,144.3 154.59,144.5 C 154.76,144.76 154.93,145.03 155.11,145.29 C 155.16,145.35 155.2,145.42 155.25,145.48 C 155.26,145.49 155.28,145.48 155.29,145.48 C 155.32,145.48 155.34,145.48 155.37,145.48 C 155.41,145.48 155.46,145.48 155.51,145.48 C 155.61,145.48 155.7,145.48 155.8,145.48 C 155.99,145.48 156.18,145.48 156.37,145.48 C 156.76,145.48 157.14,145.48 157.52,145.48 C 157.72,145.48 157.91,145.48 158.1,145.48 C 158.19,145.48 158.29,145.48 158.39,145.48 C 158.4,145.48 158.41,145.48 158.42,145.48 C 158.43,145.48 158.44,145.48 158.43,145.49 C 158.43,145.49 158.43,145.49 158.43,145.49 C 158.43,145.5 158.43,145.51 158.43,145.51 C 158.41,145.56 158.4,145.6 158.39,145.65 C 158.37,145.74 158.34,145.83 158.32,145.92 C 158.25,146.21 158.2,146.51 158.16,146.8 C 158.14,146.95 158.13,147.1 158.11,147.25 C 158.11,147.29 158.11,147.32 158.1,147.36 C 158.1,147.37 158.09,147.37 158.09,147.37 C 158.07,147.37 158.05,147.37 158.03,147.37 C 157.99,147.37 157.96,147.37 157.92,147.37 C 157.84,147.37 157.77,147.37 157.69,147.37 C 157.54,147.37 157.39,147.37 157.23,147.37 C 157.08,147.37 156.93,147.37 156.78,147.37 C 156.77,147.37 156.73,147.36 156.75,147.37 C 156.75,147.38 156.75,147.38 156.76,147.38 C 156.76,147.39 156.77,147.4 156.78,147.4 C 156.8,147.43 156.82,147.46 156.85,147.49 C 157.05,147.71 157.25,147.93 157.46,148.14 C 157.51,148.2 157.56,148.25 157.62,148.3 C 157.64,148.33 157.67,148.36 157.69,148.38 C 157.71,148.4 157.72,148.41 157.73,148.42 C 157.74,148.43 157.75,148.44 157.75,148.44 C 157.76,148.45 157.78,148.46 157.77,148.46 C 157.6,148.43 157.44,148.41 157.28,148.38 C 157.22,148.37 157.17,148.36 157.12,148.36 C 157.09,148.35 157.06,148.35 157.04,148.34 C 157.0,148.34 156.98,148.32 156.95,148.3 C 156.92,148.28 156.89,148.26 156.85,148.25 C 156.84,148.24 156.82,148.24 156.81,148.23 C 156.8,148.22 156.79,148.21 156.78,148.2 C 156.75,148.16 156.72,148.13 156.68,148.09 C 156.55,147.95 156.42,147.8 156.29,147.65 C 156.03,147.36 155.77,147.06 155.53,146.75 C 155.04,146.13 154.59,145.48 154.17,144.82 C 153.84,144.31 153.52,143.79 153.21,143.26 C 153.13,143.13 153.05,143.0 152.97,142.87 C 152.93,142.81 152.89,142.74 152.85,142.68 C 152.84,142.65 152.85,142.63 152.84,142.61 C 152.84,142.58 152.83,142.55 152.83,142.53 C 152.81,142.48 152.79,142.43 152.76,142.39 C 152.68,142.26 152.6,142.12 152.52,141.99 C 152.48,141.92 152.45,141.85 152.41,141.79 C 152.4,141.77 152.39,141.75 152.38,141.74 C 152.37,141.73 152.37,141.73 152.37,141.72 C 152.37,141.72 152.37,141.72 152.38,141.72 C 152.4,141.72 152.42,141.72 152.44,141.72 C 152.51,141.72 152.59,141.72 152.67,141.72 C 152.98,141.72 153.29,141.72 153.6,141.72 C 155.21,141.72 156.81,141.72 158.42,141.72 C 158.89,141.72 159.36,141.72 159.83,141.72 C 160.06,141.72 160.29,141.72 160.53,141.72 C 160.58,141.72 160.64,141.72 160.7,141.72 C 160.72,141.72 160.73,141.72 160.75,141.72 C 160.75,141.72 160.76,141.72 160.77,141.72 C 160.77,141.72 160.78,141.73 160.79,141.72 C 160.79,141.72 160.79,141.71 160.79,141.71 C 160.8,141.7 160.81,141.69 160.82,141.68 C 160.9,141.6 160.98,141.51 161.06,141.43 C 161.14,141.35 161.23,141.27 161.31,141.2 C 161.35,141.16 161.4,141.12 161.44,141.08 C 161.46,141.07 161.49,141.05 161.51,141.03 C 161.52,141.02 161.53,141.01 161.54,141.0 C 161.55,140.99 161.56,140.98 161.58,140.99 C 161.68,141.04 161.79,141.08 161.89,141.13 C 161.94,141.15 162.0,141.17 162.05,141.2 C 162.06,141.2 162.08,141.21 162.09,141.21 C 162.1,141.22 162.1,141.22 162.11,141.22 C 162.12,141.22 162.14,141.22 162.13,141.23 C 162.1,141.24 162.08,141.26 162.06,141.28 C 161.87,141.41 161.7,141.56 161.53,141.72 z M 131.58,162.42 C 131.93,162.06 132.31,161.74 132.71,161.44 C 132.92,161.28 133.14,161.14 133.36,161.0 C 133.48,160.93 133.6,160.86 133.71,160.79 C 133.77,160.75 133.83,160.72 133.89,160.69 C 133.92,160.67 133.95,160.65 133.98,160.64 C 134.01,160.62 134.04,160.61 134.06,160.58 C 134.07,160.57 134.08,160.56 134.09,160.55 C 134.09,160.54 134.09,160.54 134.1,160.54 C 134.11,160.54 134.13,160.54 134.14,160.54 C 134.17,160.54 134.2,160.54 134.23,160.54 C 134.35,160.54 134.47,160.54 134.59,160.54 C 135.81,160.54 137.03,160.54 138.24,160.54 C 139.46,160.54 140.68,160.54 141.9,160.54 C 142.89,160.54 143.88,160.54 144.88,160.54 C 144.91,160.54 144.94,160.54 144.97,160.54 C 144.98,160.54 145.01,160.53 145.0,160.54 C 144.99,160.54 144.99,160.55 144.99,160.55 C 144.98,160.55 144.97,160.56 144.97,160.56 C 144.96,160.57 144.94,160.58 144.93,160.59 C 144.91,160.61 144.88,160.63 144.86,160.64 C 144.76,160.72 144.66,160.79 144.56,160.87 C 144.29,161.09 144.02,161.31 143.75,161.54 C 143.69,161.6 143.62,161.65 143.56,161.71 C 143.52,161.74 143.49,161.77 143.47,161.82 C 143.44,161.91 143.46,161.97 143.53,162.03 C 143.56,162.06 143.59,162.09 143.62,162.12 C 143.68,162.18 143.75,162.24 143.81,162.3 C 143.85,162.33 143.88,162.36 143.91,162.39 C 143.92,162.4 143.93,162.41 143.93,162.41 C 143.94,162.41 143.94,162.42 143.94,162.42 C 143.95,162.43 143.93,162.42 143.92,162.42 C 143.9,162.42 143.88,162.42 143.85,162.42 C 143.77,162.42 143.68,162.42 143.59,162.42 C 143.24,162.42 142.89,162.42 142.54,162.42 C 141.32,162.42 140.1,162.42 138.89,162.42 C 136.45,162.42 134.01,162.42 131.58,162.42 z M 142.9,145.68 C 142.69,145.65 142.49,145.61 142.28,145.57 C 142.17,145.56 142.07,145.54 141.97,145.52 C 141.95,145.51 141.94,145.51 141.93,145.51 C 141.92,145.51 141.9,145.5 141.91,145.5 C 141.92,145.5 141.92,145.5 141.93,145.5 C 141.96,145.5 141.98,145.5 142.01,145.5 C 142.06,145.51 142.11,145.51 142.16,145.51 C 142.38,145.51 142.59,145.51 142.8,145.51 C 142.9,145.51 143.01,145.51 143.11,145.51 C 143.12,145.51 143.13,145.51 143.13,145.51 C 143.14,145.51 143.13,145.52 143.13,145.52 C 143.12,145.53 143.11,145.54 143.09,145.54 C 143.07,145.56 143.05,145.57 143.03,145.59 C 142.99,145.62 142.94,145.65 142.9,145.68 z M 141.12,145.34 C 140.94,145.3 140.76,145.26 140.58,145.21 C 140.49,145.19 140.4,145.17 140.32,145.14 C 140.27,145.13 140.23,145.12 140.18,145.11 C 140.16,145.1 140.14,145.1 140.11,145.09 C 140.1,145.09 140.09,145.09 140.1,145.08 C 140.1,145.06 140.1,145.05 140.11,145.04 C 140.22,144.7 140.34,144.35 140.46,144.0 C 140.49,143.91 140.52,143.82 140.54,143.74 C 140.55,143.72 140.56,143.69 140.57,143.67 C 140.57,143.66 140.58,143.6 140.59,143.63 C 140.6,143.67 140.61,143.72 140.63,143.76 C 140.68,143.94 140.74,144.11 140.79,144.29 C 140.9,144.64 141.01,144.99 141.12,145.34 z M 132.55,144.46 C 132.44,144.47 132.33,144.48 132.22,144.48 C 132.17,144.48 132.11,144.49 132.06,144.49 C 132.03,144.49 132.01,144.49 131.98,144.49 C 131.96,144.49 131.95,144.49 131.94,144.49 C 131.93,144.49 131.94,144.48 131.94,144.48 C 131.94,144.47 131.94,144.46 131.95,144.46 C 132.02,144.25 132.08,144.04 132.15,143.84 C 132.17,143.79 132.19,143.74 132.2,143.68 C 132.21,143.66 132.22,143.63 132.23,143.61 C 132.23,143.59 132.24,143.58 132.24,143.57 C 132.25,143.56 132.25,143.56 132.25,143.55 C 132.25,143.54 132.25,143.52 132.26,143.53 C 132.29,143.64 132.32,143.74 132.35,143.84 C 132.42,144.05 132.48,144.26 132.54,144.46 z M 135.26,144.11 C 135.3,143.97 135.35,143.83 135.4,143.68 C 135.41,143.65 135.43,143.61 135.44,143.57 C 135.45,143.55 135.37,143.51 135.36,143.5 C 135.3,143.46 135.24,143.41 135.18,143.37 C 134.93,143.19 134.69,143.01 134.44,142.82 C 134.32,142.73 134.2,142.64 134.08,142.55 C 134.01,142.51 133.95,142.46 133.89,142.42 C 133.88,142.41 133.88,142.41 133.87,142.4 C 133.87,142.4 133.85,142.39 133.86,142.39 C 133.86,142.39 133.87,142.39 133.87,142.39 C 133.89,142.39 133.91,142.39 133.93,142.39 C 133.97,142.39 134.01,142.39 134.04,142.39 C 134.35,142.4 134.65,142.4 134.96,142.41 C 135.11,142.41 135.26,142.41 135.41,142.41 C 135.49,142.41 135.57,142.41 135.64,142.42 C 135.68,142.42 135.72,142.42 135.76,142.42 C 135.77,142.42 135.79,142.42 135.81,142.42 C 135.84,142.42 135.84,142.39 135.84,142.38 C 135.94,142.09 136.03,141.8 136.13,141.51 C 136.23,141.22 136.32,140.93 136.42,140.64 C 136.42,140.63 136.43,140.61 136.44,140.59 C 136.44,140.58 136.44,140.57 136.45,140.56 C 136.45,140.56 136.45,140.55 136.45,140.55 C 136.45,140.54 136.45,140.56 136.45,140.56 C 136.47,140.6 136.48,140.63 136.49,140.67 C 136.51,140.74 136.53,140.82 136.56,140.89 C 136.6,141.03 136.65,141.18 136.69,141.32 C 136.78,141.61 136.87,141.91 136.96,142.2 C 136.99,142.27 137.01,142.34 137.03,142.41 C 137.04,142.44 137.06,142.43 137.08,142.43 C 137.1,142.43 137.11,142.43 137.13,142.43 C 137.17,142.43 137.21,142.43 137.25,142.43 C 137.4,142.43 137.55,142.43 137.7,142.44 C 138.01,142.44 138.31,142.44 138.62,142.44 C 138.69,142.44 138.77,142.44 138.85,142.44 C 138.88,142.44 138.92,142.44 138.96,142.45 C 138.97,142.45 139.02,142.44 139.0,142.45 C 138.98,142.46 138.97,142.47 138.95,142.48 C 138.83,142.57 138.7,142.66 138.58,142.75 C 138.33,142.93 138.08,143.1 137.83,143.28 C 137.7,143.37 137.58,143.45 137.45,143.54 C 137.39,143.59 137.32,143.6 137.25,143.62 C 137.17,143.65 137.1,143.67 137.03,143.69 C 136.44,143.85 135.85,144.0 135.26,144.11 z M 130.72,142.24 C 130.84,141.89 130.96,141.53 131.08,141.18 C 131.14,141.0 131.2,140.83 131.26,140.65 C 131.27,140.61 131.29,140.56 131.3,140.52 C 131.31,140.51 131.31,140.5 131.3,140.49 C 131.29,140.48 131.28,140.47 131.27,140.47 C 131.25,140.45 131.24,140.44 131.22,140.43 C 131.14,140.37 131.07,140.32 130.99,140.26 C 130.69,140.04 130.39,139.82 130.09,139.6 C 130.02,139.54 129.94,139.49 129.87,139.43 C 129.83,139.4 129.79,139.37 129.76,139.35 C 129.75,139.34 129.74,139.33 129.73,139.33 C 129.71,139.31 129.75,139.32 129.76,139.32 C 129.78,139.32 129.8,139.32 129.83,139.32 C 130.01,139.33 130.2,139.33 130.39,139.33 C 130.76,139.34 131.13,139.34 131.5,139.35 C 131.55,139.35 131.6,139.35 131.64,139.35 C 131.66,139.35 131.69,139.36 131.7,139.33 C 131.71,139.31 131.72,139.29 131.72,139.27 C 131.75,139.18 131.78,139.09 131.81,139.0 C 131.87,138.82 131.93,138.65 131.99,138.47 C 132.05,138.29 132.11,138.12 132.16,137.94 C 132.19,137.85 132.22,137.76 132.25,137.68 C 132.27,137.63 132.28,137.59 132.3,137.54 C 132.3,137.53 132.3,137.52 132.31,137.51 C 132.31,137.5 132.31,137.47 132.32,137.48 C 132.33,137.51 132.33,137.53 132.34,137.55 C 132.45,137.91 132.56,138.26 132.67,138.62 C 132.73,138.8 132.78,138.97 132.84,139.15 C 132.85,139.2 132.87,139.24 132.88,139.29 C 132.89,139.31 132.89,139.33 132.9,139.35 C 132.9,139.37 132.95,139.36 132.96,139.36 C 133.06,139.36 133.15,139.36 133.24,139.36 C 133.62,139.37 133.99,139.37 134.36,139.37 C 134.45,139.37 134.55,139.37 134.64,139.37 C 134.69,139.37 134.73,139.38 134.78,139.38 C 134.8,139.38 134.83,139.38 134.85,139.38 C 134.86,139.38 134.86,139.38 134.87,139.38 C 134.87,139.38 134.86,139.38 134.86,139.38 C 134.85,139.39 134.84,139.4 134.83,139.4 C 134.68,139.51 134.53,139.62 134.38,139.73 C 134.07,139.94 133.77,140.16 133.47,140.37 C 133.43,140.4 133.39,140.42 133.35,140.45 C 133.34,140.46 133.32,140.48 133.3,140.49 C 133.29,140.5 133.28,140.5 133.27,140.51 C 133.26,140.52 133.27,140.53 133.27,140.54 C 133.3,140.62 133.33,140.71 133.35,140.8 C 133.41,140.97 133.46,141.14 133.52,141.31 C 133.52,141.32 133.52,141.34 133.53,141.35 C 133.53,141.36 133.55,141.37 133.53,141.38 C 133.51,141.39 133.49,141.39 133.46,141.4 C 133.42,141.42 133.37,141.44 133.32,141.46 C 133.23,141.49 133.14,141.53 133.05,141.56 C 133.0,141.58 132.95,141.59 132.91,141.61 C 132.89,141.61 132.88,141.62 132.87,141.62 C 132.86,141.62 132.85,141.64 132.84,141.63 C 132.82,141.62 132.8,141.6 132.78,141.59 C 132.71,141.53 132.64,141.48 132.56,141.43 C 132.49,141.37 132.42,141.32 132.34,141.26 C 132.32,141.25 132.31,141.23 132.29,141.22 C 132.27,141.21 132.24,141.24 132.23,141.25 C 132.19,141.28 132.16,141.3 132.12,141.33 C 131.97,141.44 131.82,141.54 131.67,141.65 C 131.52,141.76 131.37,141.87 131.22,141.97 C 131.14,142.03 131.06,142.08 130.99,142.14 C 130.95,142.16 130.92,142.19 130.87,142.2 C 130.82,142.21 130.77,142.23 130.72,142.24 M 124.85,141.8 C 124.93,141.76 125.01,141.73 125.09,141.7 C 125.13,141.68 125.17,141.66 125.21,141.65 C 125.23,141.64 125.25,141.63 125.27,141.62 C 125.28,141.62 125.29,141.61 125.3,141.61 C 125.31,141.6 125.31,141.62 125.31,141.63 C 125.37,141.79 125.42,141.96 125.47,142.12 C 125.48,142.16 125.5,142.21 125.51,142.25 C 125.51,142.26 125.52,142.27 125.52,142.28 C 125.52,142.29 125.54,142.31 125.53,142.3 C 125.51,142.29 125.49,142.28 125.47,142.27 C 125.41,142.21 125.34,142.16 125.27,142.11 C 125.13,142.0 124.99,141.9 124.85,141.8 z M 124.53,139.13 C 123.8,139.3 123.08,139.51 122.38,139.74 C 122.33,139.76 122.29,139.77 122.24,139.79 C 122.22,139.79 122.2,139.8 122.18,139.81 C 122.17,139.81 122.12,139.77 122.12,139.77 C 122.04,139.72 121.97,139.66 121.89,139.61 C 121.82,139.55 121.74,139.49 121.67,139.44 C 121.63,139.41 121.59,139.38 121.56,139.36 C 121.54,139.34 121.52,139.33 121.5,139.31 C 121.49,139.31 121.48,139.3 121.47,139.29 C 121.46,139.29 121.48,139.28 121.48,139.28 C 121.48,139.28 121.49,139.27 121.49,139.27 C 121.51,139.25 121.52,139.24 121.55,139.24 C 121.57,139.24 121.59,139.24 121.62,139.24 C 121.66,139.24 121.71,139.24 121.76,139.24 C 121.85,139.24 121.94,139.24 122.04,139.25 C 122.22,139.25 122.41,139.25 122.6,139.25 C 122.78,139.26 122.97,139.26 123.16,139.26 C 123.2,139.26 123.25,139.26 123.3,139.26 C 123.31,139.26 123.32,139.26 123.33,139.26 C 123.34,139.26 123.36,139.27 123.37,139.26 C 123.37,139.24 123.38,139.22 123.39,139.19 C 123.42,139.11 123.45,139.02 123.48,138.93 C 123.6,138.58 123.71,138.22 123.83,137.87 C 123.86,137.78 123.89,137.69 123.92,137.6 C 123.94,137.56 123.95,137.51 123.96,137.47 C 123.97,137.44 124.0,137.43 124.01,137.45 C 124.01,137.48 124.02,137.5 124.03,137.52 C 124.08,137.7 124.14,137.88 124.19,138.06 C 124.31,138.41 124.42,138.77 124.53,139.13 z M 128.65,135.91 C 128.67,135.98 128.7,136.06 128.72,136.14 C 128.73,136.17 128.74,136.21 128.76,136.25 C 128.76,136.27 128.75,136.29 128.78,136.29 C 128.8,136.29 128.82,136.29 128.84,136.29 C 129.0,136.29 129.16,136.3 129.32,136.3 C 129.64,136.3 129.96,136.3 130.28,136.31 C 130.36,136.31 130.44,136.31 130.52,136.31 C 130.56,136.31 130.6,136.31 130.64,136.31 C 130.66,136.31 130.68,136.31 130.7,136.31 C 130.71,136.31 130.72,136.31 130.73,136.31 C 130.74,136.31 130.73,136.32 130.72,136.32 C 130.59,136.41 130.46,136.51 130.33,136.6 C 130.07,136.78 129.81,136.97 129.55,137.15 C 129.42,137.24 129.29,137.34 129.16,137.43 C 129.15,137.43 129.14,137.44 129.13,137.45 C 129.13,137.45 129.13,137.46 129.14,137.46 C 129.14,137.46 129.14,137.47 129.14,137.47 C 129.15,137.49 129.15,137.51 129.16,137.53 C 129.17,137.57 129.18,137.61 129.19,137.65 C 129.22,137.72 129.24,137.8 129.27,137.87 C 129.36,138.18 129.46,138.48 129.56,138.79 C 129.6,138.94 129.65,139.09 129.7,139.24 C 129.71,139.26 129.71,139.28 129.72,139.3 C 129.72,139.31 129.73,139.33 129.72,139.32 C 129.71,139.32 129.7,139.31 129.7,139.3 C 129.66,139.28 129.63,139.26 129.6,139.23 C 129.54,139.18 129.47,139.14 129.41,139.09 C 129.15,138.9 128.9,138.71 128.64,138.51 C 128.51,138.42 128.38,138.32 128.26,138.23 C 128.22,138.2 128.19,138.18 128.16,138.16 C 128.14,138.14 128.13,138.16 128.11,138.17 C 128.09,138.18 128.08,138.2 128.06,138.21 C 128.0,138.25 127.93,138.3 127.87,138.35 C 127.8,138.39 127.74,138.44 127.67,138.49 C 127.64,138.51 127.61,138.53 127.57,138.56 C 127.56,138.57 127.55,138.58 127.52,138.58 C 127.5,138.59 127.48,138.59 127.46,138.59 C 127.31,138.61 127.15,138.63 126.99,138.65 C 126.91,138.67 126.83,138.68 126.75,138.69 C 126.74,138.69 126.75,138.67 126.76,138.67 C 126.76,138.66 126.76,138.65 126.77,138.64 C 126.77,138.62 126.78,138.6 126.78,138.58 C 126.8,138.54 126.81,138.51 126.82,138.47 C 126.87,138.32 126.93,138.17 126.98,138.01 C 127.03,137.86 127.08,137.71 127.13,137.56 C 127.14,137.52 127.16,137.48 127.17,137.45 C 127.17,137.44 127.18,137.43 127.17,137.42 C 127.16,137.42 127.15,137.41 127.15,137.4 C 127.13,137.39 127.11,137.38 127.1,137.37 C 127.03,137.32 126.97,137.27 126.91,137.23 C 126.64,137.03 126.38,136.84 126.12,136.65 C 126.1,136.63 126.09,136.62 126.07,136.61 C 126.06,136.6 126.04,136.6 126.05,136.59 C 126.06,136.59 126.07,136.59 126.08,136.58 C 126.12,136.57 126.16,136.56 126.19,136.55 C 126.27,136.52 126.34,136.5 126.42,136.48 C 126.57,136.43 126.72,136.39 126.87,136.34 C 126.94,136.32 127.02,136.3 127.09,136.28 C 127.12,136.27 127.32,136.28 127.34,136.28 C 127.38,136.28 127.42,136.28 127.46,136.28 C 127.48,136.28 127.5,136.28 127.52,136.28 C 127.54,136.28 127.55,136.28 127.56,136.28 C 127.57,136.28 127.57,136.27 127.57,136.26 C 127.58,136.24 127.58,136.22 127.59,136.2 C 127.59,136.2 127.6,136.15 127.61,136.15 C 127.65,136.14 127.69,136.13 127.73,136.12 C 128.03,136.04 128.34,135.97 128.65,135.91 z M 128.15,134.53 C 128.16,134.5 128.17,134.46 128.18,134.43 C 128.18,134.43 128.18,134.41 128.19,134.42 C 128.19,134.43 128.19,134.43 128.2,134.44 C 128.2,134.46 128.21,134.48 128.21,134.49 C 128.22,134.51 128.22,134.52 128.23,134.54 C 128.23,134.55 128.26,134.6 128.23,134.58 C 128.21,134.57 128.18,134.55 128.15,134.53 z M 129.3,131.74 C 129.45,132.19 129.59,132.65 129.73,133.1 C 129.75,133.16 129.77,133.21 129.79,133.27 C 129.79,133.28 129.78,133.26 129.77,133.26 C 129.77,133.26 129.76,133.25 129.75,133.25 C 129.74,133.24 129.73,133.23 129.72,133.22 C 129.69,133.2 129.67,133.19 129.65,133.17 C 129.55,133.1 129.46,133.02 129.36,132.95 C 129.17,132.81 128.98,132.67 128.79,132.53 C 128.6,132.38 128.4,132.24 128.21,132.1 C 128.2,132.09 128.18,132.11 128.18,132.12 C 128.16,132.13 128.15,132.14 128.14,132.14 C 128.12,132.16 128.09,132.18 128.07,132.2 C 128.02,132.23 127.97,132.27 127.92,132.3 C 127.83,132.37 127.73,132.44 127.63,132.51 C 127.44,132.65 127.24,132.79 127.05,132.92 C 126.95,132.99 126.85,133.06 126.76,133.13 C 126.71,133.17 126.66,133.2 126.61,133.24 C 126.59,133.25 126.62,133.21 126.62,133.2 C 126.62,133.19 126.63,133.18 126.63,133.16 C 126.64,133.13 126.65,133.11 126.66,133.08 C 126.82,132.63 126.97,132.17 127.12,131.72 C 127.16,131.61 127.2,131.5 127.24,131.38 C 127.24,131.36 127.18,131.33 127.17,131.33 C 127.15,131.31 127.13,131.29 127.1,131.27 C 127.05,131.24 127.01,131.2 126.96,131.17 C 126.86,131.1 126.76,131.02 126.67,130.95 C 126.62,130.92 126.57,130.88 126.52,130.85 C 126.51,130.84 126.5,130.83 126.49,130.82 C 126.49,130.82 126.47,130.81 126.48,130.81 C 126.49,130.81 126.49,130.82 126.5,130.82 C 126.53,130.83 126.56,130.84 126.58,130.85 C 127.49,131.14 128.4,131.44 129.3,131.74 z M 134.92,133.34 C 134.62,133.55 134.31,133.77 134.01,133.98 C 133.86,134.09 133.71,134.19 133.56,134.3 C 133.48,134.35 133.41,134.41 133.33,134.46 C 133.32,134.47 133.34,134.52 133.35,134.53 C 133.35,134.55 133.36,134.57 133.37,134.59 C 133.38,134.64 133.4,134.68 133.41,134.73 C 133.52,135.08 133.63,135.43 133.75,135.79 C 133.8,135.96 133.86,136.14 133.91,136.32 C 133.92,136.32 133.92,136.34 133.91,136.34 C 133.9,136.33 133.89,136.32 133.89,136.32 C 133.87,136.3 133.85,136.29 133.83,136.27 C 133.79,136.25 133.76,136.22 133.72,136.19 C 133.64,136.13 133.57,136.08 133.5,136.02 C 133.2,135.8 132.9,135.58 132.6,135.36 C 132.53,135.3 132.45,135.25 132.38,135.19 C 132.37,135.19 132.36,135.18 132.35,135.17 C 132.34,135.16 132.33,135.17 132.32,135.18 C 132.31,135.19 132.29,135.2 132.27,135.22 C 132.23,135.24 132.19,135.27 132.15,135.3 C 132.0,135.41 131.85,135.51 131.7,135.62 C 131.4,135.84 131.1,136.05 130.8,136.27 C 130.78,136.28 130.76,136.3 130.74,136.31 C 130.73,136.32 130.74,136.3 130.74,136.29 C 130.75,136.29 130.75,136.28 130.75,136.28 C 130.75,136.26 130.76,136.25 130.76,136.24 C 130.78,136.2 130.79,136.16 130.81,136.11 C 130.84,136.02 130.87,135.94 130.9,135.85 C 130.96,135.67 131.01,135.5 131.07,135.32 C 131.13,135.15 131.19,134.97 131.25,134.79 C 131.28,134.71 131.31,134.62 131.34,134.53 C 131.35,134.51 131.36,134.49 131.36,134.46 C 131.37,134.45 131.37,134.44 131.36,134.44 C 131.35,134.43 131.34,134.42 131.33,134.42 C 131.3,134.39 131.26,134.36 131.22,134.33 C 130.92,134.11 130.63,133.89 130.33,133.67 C 130.18,133.56 130.03,133.45 129.88,133.34 C 129.86,133.33 129.84,133.31 129.82,133.3 C 129.81,133.29 129.8,133.29 129.8,133.28 C 129.79,133.27 129.81,133.27 129.81,133.27 C 129.86,133.27 129.91,133.27 129.95,133.28 C 130.05,133.28 130.14,133.28 130.23,133.28 C 130.6,133.28 130.97,133.29 131.34,133.29 C 131.44,133.29 131.53,133.3 131.63,133.3 C 131.65,133.3 131.67,133.3 131.7,133.3 C 131.71,133.3 131.76,133.31 131.76,133.29 C 131.78,133.24 131.79,133.2 131.81,133.16 C 131.87,132.98 131.92,132.8 131.98,132.62 C 131.99,132.6 132.03,132.62 132.04,132.62 C 132.06,132.63 132.09,132.64 132.11,132.64 C 132.15,132.66 132.19,132.67 132.24,132.68 C 132.32,132.71 132.41,132.73 132.5,132.76 C 132.58,132.78 132.67,132.81 132.76,132.83 C 132.77,132.83 132.78,132.84 132.79,132.84 C 132.8,132.84 132.82,132.83 132.82,132.85 C 132.83,132.87 132.84,132.9 132.84,132.92 C 132.86,132.96 132.87,133.01 132.89,133.05 C 132.9,133.1 132.91,133.14 132.93,133.19 C 132.93,133.21 132.94,133.23 132.95,133.25 C 132.95,133.26 132.96,133.31 132.97,133.31 C 133.07,133.31 133.16,133.31 133.25,133.31 C 133.44,133.31 133.62,133.32 133.81,133.32 C 134.0,133.32 134.18,133.32 134.37,133.32 C 134.44,133.32 134.84,133.32 134.92,133.34 z M 140.61,141.3 L 139.01,142.45 L 139.64,140.58 L 138.05,139.41 L 140.02,139.44 L 140.65,137.57 L 141.23,139.45 L 143.2,139.46 L 141.59,140.6 L 142.19,142.48 z M 136.48,138.23 L 134.87,139.38 L 135.51,137.51 L 133.92,136.34 L 135.89,136.37 L 136.51,134.5 L 137.1,136.38 L 139.07,136.39 L 137.46,137.53 L 138.05,139.41 z M 137.57,131.45 C 137.56,131.45 137.55,131.46 137.54,131.47 C 137.53,131.48 137.52,131.48 137.53,131.49 C 137.53,131.52 137.54,131.54 137.55,131.56 C 137.56,131.61 137.58,131.66 137.59,131.7 C 137.62,131.8 137.65,131.89 137.68,131.98 C 137.74,132.17 137.8,132.36 137.86,132.54 C 137.92,132.73 137.98,132.92 138.04,133.1 C 138.05,133.15 138.06,133.2 138.08,133.24 C 138.09,133.27 138.09,133.29 138.1,133.31 C 138.11,133.32 138.11,133.34 138.11,133.35 C 138.11,133.35 138.12,133.36 138.11,133.36 C 138.11,133.35 138.1,133.35 138.1,133.34 C 138.02,133.29 137.94,133.23 137.86,133.17 C 137.55,132.94 137.24,132.7 136.92,132.47 C 136.83,132.4 136.74,132.33 136.65,132.27 C 136.63,132.25 136.61,132.23 136.59,132.22 C 136.57,132.2 136.55,132.17 136.52,132.19 C 136.47,132.23 136.43,132.26 136.38,132.29 C 136.36,132.31 136.34,132.32 136.31,132.34 C 136.29,132.36 136.29,132.32 136.28,132.31 C 136.25,132.28 136.23,132.24 136.21,132.21 C 136.17,132.14 136.13,132.07 136.09,132.0 C 135.9,131.66 135.74,131.31 135.63,130.93 C 135.58,130.75 135.55,130.58 135.52,130.4 C 135.52,130.38 135.52,130.35 135.51,130.33 C 135.51,130.33 135.51,130.32 135.51,130.31 C 135.51,130.3 135.52,130.31 135.53,130.31 C 135.54,130.31 135.55,130.31 135.57,130.31 C 135.62,130.31 135.68,130.31 135.73,130.31 C 135.78,130.31 135.84,130.31 135.89,130.31 C 135.92,130.31 135.95,130.33 135.96,130.3 C 135.97,130.27 135.98,130.24 135.99,130.22 C 136.0,130.17 136.02,130.12 136.03,130.07 C 136.04,130.05 136.05,130.03 136.06,130.0 C 136.06,130.0 136.06,129.99 136.06,129.98 C 136.07,129.97 136.07,129.99 136.08,130.0 C 136.09,130.01 136.09,130.01 136.1,130.02 C 136.17,130.09 136.24,130.16 136.31,130.23 C 136.45,130.36 136.58,130.5 136.72,130.64 C 137.0,130.91 137.29,131.18 137.57,131.45 z M 141.89,135.3 C 141.98,135.57 142.06,135.84 142.15,136.11 C 142.17,136.17 142.19,136.24 142.21,136.31 C 142.22,136.34 142.23,136.38 142.24,136.41 C 142.26,136.46 142.2,136.39 142.18,136.38 C 142.07,136.29 141.95,136.21 141.84,136.12 C 141.61,135.95 141.39,135.78 141.16,135.62 C 141.05,135.53 140.94,135.45 140.82,135.36 C 140.79,135.34 140.77,135.32 140.74,135.3 C 140.72,135.29 140.71,135.28 140.69,135.27 C 140.69,135.26 140.68,135.26 140.67,135.25 C 140.66,135.24 140.66,135.26 140.65,135.26 C 140.59,135.3 140.54,135.34 140.48,135.39 C 140.02,135.71 139.56,136.04 139.1,136.37 C 139.09,136.38 139.06,136.41 139.07,136.38 C 139.08,136.37 139.08,136.35 139.09,136.33 C 139.1,136.3 139.11,136.27 139.12,136.23 C 139.15,136.17 139.17,136.1 139.19,136.03 C 139.24,135.9 139.28,135.77 139.33,135.63 C 139.42,135.37 139.51,135.1 139.6,134.83 C 139.62,134.76 139.64,134.7 139.67,134.63 C 139.68,134.6 139.69,134.56 139.7,134.53 C 139.7,134.52 139.69,134.52 139.69,134.52 C 139.69,134.52 139.68,134.52 139.68,134.51 C 139.67,134.51 139.67,134.5 139.66,134.5 C 139.64,134.49 139.63,134.48 139.62,134.47 C 139.5,134.38 139.39,134.3 139.28,134.22 C 139.05,134.05 138.82,133.88 138.59,133.71 C 138.48,133.63 138.37,133.54 138.25,133.46 C 138.23,133.44 138.2,133.42 138.17,133.4 C 138.15,133.39 138.14,133.38 138.13,133.37 C 138.11,133.35 138.15,133.36 138.16,133.36 C 138.23,133.36 138.3,133.36 138.37,133.36 C 138.65,133.37 138.93,133.37 139.22,133.37 C 139.29,133.37 139.36,133.37 139.43,133.38 C 139.47,133.38 139.51,133.38 139.54,133.38 C 139.56,133.38 139.58,133.38 139.6,133.38 C 139.62,133.38 139.63,133.37 139.65,133.38 C 139.75,133.48 139.86,133.57 139.96,133.66 C 140.17,133.85 140.38,134.04 140.59,134.22 C 141.01,134.59 141.45,134.95 141.89,135.3 z M 127.35,143.34 C 127.4,143.24 127.46,143.14 127.51,143.04 C 127.56,142.93 127.62,142.83 127.51,142.72 C 127.42,142.64 127.33,142.67 127.23,142.67 C 127.0,142.68 126.76,142.68 126.53,142.68 C 126.39,142.68 126.25,142.67 126.11,142.67 C 126.1,142.67 126.01,142.66 126.01,142.66 C 125.98,142.64 125.95,142.62 125.92,142.59 C 125.86,142.55 125.81,142.51 125.75,142.47 C 125.69,142.43 125.64,142.39 125.58,142.34 C 125.57,142.33 125.55,142.32 125.54,142.31 C 125.52,142.3 125.56,142.31 125.57,142.31 C 125.61,142.31 125.64,142.31 125.68,142.31 C 125.82,142.31 125.96,142.31 126.1,142.31 C 126.38,142.32 126.66,142.32 126.94,142.32 C 127.08,142.33 127.22,142.33 127.36,142.33 C 127.4,142.33 127.43,142.33 127.47,142.33 C 127.48,142.33 127.49,142.33 127.49,142.33 C 127.51,142.33 127.5,142.32 127.51,142.31 C 127.51,142.29 127.52,142.28 127.52,142.26 C 127.54,142.19 127.57,142.13 127.59,142.06 C 127.68,141.79 127.77,141.53 127.86,141.26 C 127.9,141.13 127.95,140.99 127.99,140.86 C 128.01,140.79 128.03,140.73 128.06,140.66 C 128.07,140.63 128.08,140.59 128.09,140.56 C 128.1,140.54 128.1,140.53 128.11,140.51 C 128.11,140.5 128.11,140.49 128.11,140.49 C 128.12,140.48 128.12,140.48 128.12,140.47 C 128.12,140.47 128.12,140.45 128.12,140.46 C 128.29,141.0 128.45,141.53 128.62,142.07 C 128.64,142.14 128.66,142.2 128.68,142.27 C 128.69,142.29 128.69,142.3 128.7,142.32 C 128.7,142.33 128.69,142.34 128.71,142.34 C 128.72,142.34 128.73,142.34 128.73,142.34 C 128.77,142.34 128.81,142.34 128.84,142.34 C 128.98,142.34 129.12,142.35 129.26,142.35 C 129.54,142.35 129.82,142.35 130.1,142.35 C 130.12,142.35 130.13,142.35 130.15,142.35 C 130.18,142.35 130.12,142.36 130.11,142.36 C 130.07,142.37 130.04,142.38 130.01,142.38 C 129.94,142.39 129.87,142.41 129.81,142.42 C 129.74,142.43 129.67,142.44 129.6,142.45 C 129.45,142.48 129.4,142.5 129.35,142.65 C 129.32,142.77 129.28,142.88 129.25,142.99 C 129.23,143.05 129.21,143.11 129.19,143.16 C 129.19,143.18 129.19,143.19 129.17,143.2 C 129.15,143.2 129.13,143.2 129.12,143.2 C 129.09,143.21 129.06,143.21 129.02,143.21 C 128.47,143.28 127.91,143.32 127.35,143.34 z M 166.17,162.42 C 166.12,162.42 166.08,162.42 166.04,162.42 C 166.03,162.42 166.01,162.44 166.0,162.42 C 166.0,162.41 166.0,162.41 165.99,162.4 C 165.99,162.39 165.98,162.38 165.98,162.37 C 165.97,162.36 165.96,162.34 165.95,162.32 C 165.92,162.29 165.9,162.26 165.87,162.23 C 165.81,162.17 165.74,162.12 165.67,162.08 C 165.6,162.05 165.52,162.02 165.44,162.0 C 165.4,161.99 165.36,161.98 165.32,161.97 C 165.24,161.96 165.17,161.94 165.09,162.01 C 165.03,162.06 165.03,162.12 164.99,162.18 C 164.95,162.24 164.87,162.26 164.83,162.33 C 164.82,162.35 164.81,162.37 164.81,162.39 C 164.81,162.4 164.81,162.41 164.81,162.42 C 164.81,162.43 164.77,162.42 164.76,162.42 C 164.74,162.42 164.72,162.42 164.7,162.42 C 164.53,162.42 164.37,162.42 164.2,162.42 C 163.87,162.42 163.54,162.42 163.21,162.42 C 162.88,162.42 162.55,162.42 162.22,162.42 C 162.21,162.42 162.2,162.43 162.19,162.44 C 162.18,162.45 162.18,162.45 162.17,162.46 C 162.04,162.56 161.91,162.62 161.74,162.62 C 161.57,162.61 161.42,162.57 161.26,162.52 C 161.18,162.49 161.1,162.46 161.03,162.43 C 161.02,162.43 161.02,162.42 161.01,162.42 C 160.99,162.41 160.96,162.42 160.93,162.42 C 160.89,162.42 160.85,162.42 160.81,162.42 C 160.65,162.42 160.48,162.42 160.32,162.42 C 159.98,162.42 159.65,162.42 159.32,162.42 C 158.66,162.42 158.0,162.42 157.34,162.42 C 156.68,162.42 156.02,162.42 155.36,162.42 C 155.19,162.42 155.03,162.42 154.86,162.42 C 154.78,162.42 154.7,162.42 154.61,162.42 C 154.61,162.42 154.6,162.42 154.59,162.41 C 154.57,162.4 154.56,162.39 154.54,162.38 C 154.47,162.33 154.4,162.28 154.34,162.23 C 154.22,162.12 154.11,162.0 154.01,161.87 C 153.94,161.77 153.87,161.67 153.81,161.57 C 153.78,161.52 153.75,161.47 153.73,161.42 C 153.66,161.3 153.61,161.21 153.45,161.23 C 153.22,161.28 152.98,161.31 152.74,161.33 C 152.61,161.33 152.48,161.34 152.35,161.34 C 152.29,161.34 152.22,161.34 152.15,161.34 C 152.13,161.34 152.13,161.33 152.12,161.32 C 152.11,161.31 152.1,161.29 152.09,161.28 C 152.08,161.26 152.06,161.23 152.04,161.21 C 151.91,161.01 151.75,160.84 151.57,160.69 C 151.52,160.65 151.48,160.61 151.43,160.58 C 151.42,160.57 151.41,160.56 151.4,160.55 C 151.36,160.52 151.44,160.54 151.46,160.54 C 151.58,160.54 151.7,160.54 151.82,160.54 C 152.29,160.54 152.76,160.54 153.24,160.54 C 154.18,160.54 155.13,160.54 156.08,160.54 C 156.55,160.54 157.02,160.54 157.49,160.54 C 157.73,160.54 157.97,160.54 158.2,160.54 C 158.32,160.54 158.44,160.54 158.56,160.54 C 158.62,160.54 158.68,160.54 158.74,160.54 C 158.75,160.54 158.77,160.54 158.78,160.54 C 158.79,160.54 158.82,160.55 158.81,160.54 C 158.81,160.54 158.81,160.54 158.81,160.53 C 158.65,160.35 158.51,160.17 158.37,159.98 C 158.09,159.59 157.85,159.19 157.62,158.78 C 157.6,158.74 157.58,158.71 157.57,158.68 C 157.56,158.67 157.56,158.67 157.56,158.66 C 157.56,158.66 157.56,158.66 157.55,158.66 C 157.52,158.66 157.48,158.66 157.44,158.66 C 157.28,158.66 157.13,158.66 156.97,158.66 C 156.66,158.66 156.35,158.66 156.03,158.66 C 154.79,158.66 153.54,158.66 152.29,158.66 C 149.8,158.66 147.31,158.66 144.81,158.66 C 142.56,158.66 140.31,158.66 138.06,158.66 C 137.5,158.66 136.93,158.66 136.37,158.66 C 136.09,158.66 135.81,158.66 135.53,158.66 C 135.38,158.66 135.24,158.66 135.1,158.66 C 135.03,158.66 134.96,158.66 134.89,158.66 C 134.89,158.66 134.86,158.66 134.87,158.66 C 134.87,158.66 134.88,158.66 134.88,158.65 C 134.95,158.64 135.02,158.62 135.1,158.6 C 135.39,158.53 135.68,158.46 135.97,158.4 C 136.56,158.27 137.15,158.15 137.74,158.05 C 138.43,157.93 139.12,157.83 139.82,157.75 C 139.93,157.73 140.02,157.73 140.05,157.6 C 140.08,157.53 140.05,157.44 139.99,157.39 C 139.96,157.37 139.93,157.36 139.89,157.35 C 139.81,157.31 139.73,157.28 139.65,157.25 C 139.49,157.18 139.33,157.1 139.18,157.02 C 139.11,156.97 139.03,156.93 138.96,156.88 C 138.92,156.86 138.88,156.84 138.85,156.81 C 138.83,156.8 138.81,156.79 138.79,156.78 C 138.78,156.77 138.81,156.78 138.82,156.78 C 138.83,156.78 138.84,156.78 138.85,156.78 C 138.87,156.78 138.89,156.78 138.91,156.78 C 138.95,156.78 138.99,156.78 139.03,156.78 C 139.12,156.78 139.2,156.78 139.28,156.78 C 139.45,156.78 139.61,156.78 139.78,156.78 C 142.41,156.78 145.05,156.78 147.69,156.78 C 150.37,156.78 153.05,156.78 155.73,156.78 C 157.07,156.78 158.41,156.78 159.75,156.78 C 159.92,156.78 160.08,156.78 160.25,156.78 C 160.27,156.78 160.29,156.78 160.31,156.78 C 160.32,156.78 160.33,156.78 160.35,156.78 C 160.35,156.78 160.36,156.77 160.36,156.78 C 160.35,156.78 160.35,156.78 160.35,156.78 C 160.35,156.79 160.35,156.8 160.35,156.8 C 160.34,156.82 160.34,156.84 160.33,156.86 C 160.32,156.9 160.32,156.94 160.31,156.98 C 160.21,157.48 160.24,157.93 160.37,158.41 C 160.38,158.47 160.4,158.53 160.42,158.59 C 160.42,158.6 160.42,158.62 160.43,158.63 C 160.43,158.64 160.43,158.64 160.44,158.65 C 160.44,158.65 160.44,158.66 160.44,158.66 C 160.44,158.67 160.42,158.66 160.41,158.66 C 160.4,158.66 160.38,158.66 160.37,158.66 C 160.3,158.66 160.24,158.66 160.18,158.66 C 159.94,158.66 159.7,158.66 159.46,158.66 C 159.4,158.66 159.34,158.66 159.28,158.66 C 159.27,158.66 159.23,158.65 159.24,158.66 C 159.25,158.67 159.25,158.68 159.26,158.68 C 159.33,158.78 159.4,158.88 159.47,158.97 C 159.62,159.16 159.77,159.35 159.93,159.53 C 160.24,159.9 160.57,160.24 160.95,160.55 C 161.13,160.71 161.32,160.86 161.53,160.98 C 161.63,161.04 161.74,161.08 161.87,161.08 C 161.93,161.09 161.99,161.08 162.05,161.08 C 162.06,161.07 162.12,161.06 162.13,161.08 C 162.16,161.1 162.18,161.12 162.2,161.14 C 162.25,161.17 162.29,161.21 162.34,161.25 C 162.35,161.26 162.37,161.26 162.36,161.28 C 162.35,161.29 162.34,161.31 162.33,161.32 C 162.31,161.34 162.29,161.36 162.27,161.38 C 162.17,161.47 162.07,161.51 161.95,161.53 C 161.89,161.54 161.83,161.54 161.77,161.54 C 161.71,161.53 161.65,161.54 161.6,161.57 C 161.56,161.59 161.53,161.56 161.49,161.55 C 161.35,161.5 161.23,161.43 161.11,161.34 C 160.65,161.03 160.25,160.66 159.86,160.26 C 159.24,159.6 158.73,158.87 158.21,158.12 C 158.1,157.96 157.98,157.79 157.86,157.63 C 157.8,157.54 157.74,157.45 157.65,157.37 C 157.65,157.36 157.62,157.34 157.61,157.35 C 157.59,157.36 157.6,157.39 157.6,157.4 C 157.62,157.52 157.66,157.63 157.71,157.73 C 157.88,158.17 158.1,158.57 158.34,158.97 C 158.67,159.5 159.03,160.0 159.45,160.46 C 159.81,160.85 160.43,161.43 160.87,161.73 C 161.0,161.82 161.14,161.9 161.29,161.96 C 161.33,161.98 161.36,161.99 161.4,162.01 C 161.42,162.01 161.44,162.02 161.46,162.02 C 161.49,162.03 161.51,162.06 161.54,162.08 C 161.64,162.16 161.74,162.16 161.86,162.16 C 162.24,162.17 162.5,162.04 162.78,161.8 C 163.04,161.58 163.26,161.33 163.6,161.2 C 163.95,161.07 164.25,161.1 164.6,161.19 C 164.76,161.24 164.92,161.28 165.06,161.4 C 165.1,161.44 165.12,161.49 165.17,161.51 C 165.2,161.53 165.23,161.53 165.27,161.54 C 165.31,161.55 165.35,161.56 165.39,161.57 C 165.47,161.59 165.55,161.6 165.63,161.63 C 165.81,161.69 165.92,161.79 166.02,161.94 C 166.13,162.09 166.18,162.24 166.17,162.42 z M 145.0,153.01 C 149.37,153.01 153.74,153.01 158.1,153.01 C 160.29,153.01 162.47,153.01 164.65,153.01 C 164.92,153.01 165.18,153.01 165.44,153.01 C 165.57,153.01 165.7,153.01 165.83,153.01 C 165.9,153.01 165.97,153.01 166.03,153.01 C 166.06,153.01 166.1,153.01 166.13,153.01 C 166.15,153.01 166.16,153.01 166.18,153.01 C 166.19,153.01 166.2,153.01 166.2,153.01 C 166.21,153.01 166.21,153.01 166.22,153.01 C 166.23,153.04 166.24,153.07 166.25,153.1 C 166.28,153.16 166.31,153.22 166.34,153.28 C 166.4,153.4 166.45,153.51 166.5,153.63 C 166.64,153.98 166.67,154.02 166.9,154.3 C 166.99,154.41 167.06,154.51 167.13,154.63 C 167.16,154.68 167.19,154.74 167.22,154.8 C 167.24,154.83 167.25,154.85 167.27,154.88 C 167.27,154.89 167.27,154.89 167.26,154.89 C 167.2,154.89 167.13,154.89 167.07,154.89 C 166.94,154.89 166.81,154.89 166.67,154.89 C 166.41,154.89 166.15,154.89 165.89,154.89 C 165.76,154.89 165.63,154.89 165.49,154.89 C 165.43,154.89 165.36,154.89 165.3,154.89 C 165.26,154.89 165.23,154.89 165.2,154.89 C 165.19,154.89 165.19,154.89 165.19,154.89 C 165.17,154.88 165.16,154.87 165.14,154.87 C 165.12,154.85 165.09,154.84 165.06,154.82 C 165.0,154.79 164.94,154.76 164.88,154.74 C 164.76,154.68 164.64,154.64 164.52,154.59 C 164.01,154.42 163.52,154.36 162.98,154.43 C 162.72,154.47 162.48,154.53 162.23,154.64 C 162.11,154.69 162.0,154.74 161.89,154.81 C 161.86,154.82 161.83,154.84 161.8,154.86 C 161.79,154.87 161.78,154.88 161.76,154.88 C 161.76,154.89 161.76,154.89 161.75,154.89 C 161.73,154.9 161.61,154.89 161.59,154.89 C 161.46,154.89 161.33,154.89 161.2,154.89 C 160.16,154.89 159.12,154.89 158.08,154.89 C 155.9,154.89 153.71,154.89 151.53,154.89 C 149.35,154.89 147.16,154.89 144.98,154.89 C 143.99,154.89 143.0,154.89 142.01,154.89 C 142.01,154.89 141.99,154.89 142.0,154.89 C 142.0,154.89 142.0,154.89 142.0,154.89 C 142.01,154.89 142.01,154.88 142.01,154.88 C 142.02,154.88 142.03,154.88 142.04,154.87 C 142.05,154.87 142.07,154.86 142.08,154.85 C 142.11,154.84 142.14,154.82 142.18,154.81 C 142.3,154.75 142.43,154.69 142.55,154.63 C 142.82,154.49 143.08,154.35 143.33,154.19 C 143.92,153.84 144.47,153.44 145.0,153.01 z M 155.87,149.25 C 155.49,148.92 154.97,148.26 154.66,147.88 C 154.56,147.76 154.47,147.64 154.37,147.52 C 154.35,147.49 154.32,147.46 154.3,147.43 C 154.29,147.41 154.28,147.4 154.26,147.38 C 154.25,147.37 154.23,147.37 154.21,147.37 C 154.13,147.37 154.06,147.37 153.98,147.37 C 153.36,147.37 152.74,147.37 152.12,147.37 C 149.64,147.37 147.15,147.37 144.67,147.37 C 144.38,147.37 144.1,147.37 143.81,147.37 C 143.67,147.37 143.52,147.37 143.38,147.37 C 143.37,147.37 143.35,147.38 143.35,147.36 C 143.35,147.36 143.35,147.35 143.35,147.35 C 143.35,147.34 143.35,147.34 143.35,147.33 C 143.35,147.27 143.35,147.22 143.35,147.17 C 143.35,147.06 143.35,146.95 143.35,146.84 C 143.35,146.62 143.35,146.41 143.35,146.19 C 143.35,146.17 143.35,146.16 143.35,146.15 C 143.35,146.13 143.36,146.12 143.37,146.11 C 143.43,146.04 143.48,145.98 143.44,145.88 C 143.43,145.84 143.42,145.82 143.39,145.79 C 143.38,145.78 143.37,145.77 143.35,145.76 C 143.35,145.76 143.35,145.76 143.35,145.75 C 143.35,145.74 143.35,145.73 143.35,145.71 C 143.35,145.68 143.35,145.66 143.35,145.63 C 143.35,145.6 143.35,145.58 143.35,145.55 C 143.35,145.54 143.35,145.52 143.35,145.51 C 143.35,145.5 143.35,145.49 143.35,145.49 C 143.35,145.48 143.36,145.48 143.37,145.48 C 143.38,145.48 143.4,145.48 143.42,145.48 C 143.45,145.48 143.49,145.48 143.53,145.48 C 144.1,145.48 144.67,145.48 145.25,145.48 C 147.54,145.48 149.84,145.48 152.13,145.48 C 152.33,145.48 152.53,145.48 152.73,145.48 C 152.75,145.48 152.78,145.48 152.8,145.48 C 152.81,145.48 152.83,145.48 152.84,145.48 C 152.85,145.48 152.88,145.5 152.87,145.48 C 152.86,145.48 152.86,145.48 152.86,145.47 C 152.85,145.46 152.85,145.45 152.84,145.45 C 152.82,145.41 152.79,145.38 152.77,145.35 C 152.72,145.28 152.68,145.21 152.63,145.15 C 152.54,145.01 152.45,144.88 152.36,144.74 C 152.17,144.46 151.98,144.18 151.82,143.88 C 151.77,143.8 151.72,143.71 151.68,143.62 C 151.68,143.62 151.68,143.61 151.67,143.61 C 151.67,143.6 151.66,143.6 151.65,143.6 C 151.62,143.6 151.6,143.6 151.57,143.6 C 151.47,143.6 151.37,143.6 151.27,143.6 C 151.08,143.6 150.88,143.6 150.68,143.6 C 150.28,143.6 149.88,143.6 149.49,143.6 C 147.9,143.6 146.31,143.6 144.72,143.6 C 144.33,143.6 143.93,143.6 143.53,143.6 C 143.48,143.6 143.43,143.6 143.38,143.6 C 143.37,143.6 143.35,143.61 143.35,143.59 C 143.35,143.58 143.35,143.57 143.35,143.56 C 143.35,143.54 143.35,143.53 143.35,143.51 C 143.35,143.43 143.35,143.36 143.35,143.28 C 143.35,143.13 143.35,142.98 143.35,142.83 C 143.35,142.48 143.35,142.14 143.35,141.79 C 143.35,141.77 143.35,141.75 143.35,141.73 C 143.35,141.71 143.36,141.72 143.37,141.72 C 143.4,141.72 143.42,141.72 143.45,141.72 C 143.51,141.72 143.57,141.72 143.62,141.72 C 143.74,141.72 143.85,141.72 143.97,141.72 C 144.43,141.72 144.88,141.72 145.34,141.72 C 146.25,141.72 147.17,141.72 148.08,141.72 C 149.0,141.72 149.91,141.72 150.83,141.72 C 150.89,141.72 150.94,141.72 151.0,141.72 C 151.03,141.72 151.06,141.72 151.09,141.72 C 151.1,141.72 151.13,141.71 151.14,141.73 C 151.15,141.74 151.16,141.75 151.16,141.76 C 151.18,141.79 151.19,141.82 151.2,141.84 C 151.23,141.9 151.26,141.95 151.29,142.0 C 151.4,142.21 151.52,142.42 151.64,142.63 C 151.7,142.74 151.75,142.84 151.81,142.94 C 151.85,143.01 151.9,143.07 151.96,143.12 C 151.99,143.14 152.02,143.15 152.04,143.18 C 152.05,143.21 152.07,143.23 152.08,143.26 C 152.31,143.64 152.55,144.02 152.79,144.4 C 153.32,145.23 153.89,146.04 154.5,146.82 C 154.8,147.21 155.1,147.59 155.42,147.97 C 155.58,148.16 155.74,148.35 155.9,148.53 C 155.98,148.62 156.07,148.71 156.15,148.81 C 156.18,148.84 156.18,148.89 156.2,148.93 C 156.21,148.97 156.24,149.01 156.27,149.05 C 156.31,149.11 156.36,149.16 156.41,149.21 C 156.46,149.26 156.5,149.3 156.58,149.32 C 156.61,149.32 156.64,149.32 156.67,149.33 C 156.73,149.34 156.79,149.35 156.85,149.36 C 156.97,149.37 157.1,149.39 157.22,149.41 C 157.46,149.45 157.7,149.49 157.95,149.54 C 158.43,149.63 158.91,149.73 159.39,149.85 C 160.35,150.08 161.29,150.38 162.23,150.68 C 162.58,150.79 162.92,150.9 163.27,151.0 C 163.36,151.03 163.44,151.06 163.53,151.08 C 163.57,151.1 163.62,151.11 163.66,151.12 C 163.67,151.13 163.67,151.13 163.68,151.13 C 163.68,151.13 163.67,151.13 163.67,151.13 C 163.62,151.13 163.58,151.13 163.53,151.13 C 163.35,151.13 163.17,151.13 162.98,151.13 C 162.62,151.13 162.25,151.13 161.89,151.13 C 158.97,151.13 156.06,151.13 153.14,151.13 C 150.93,151.13 148.71,151.13 146.49,151.13 C 145.94,151.13 145.38,151.13 144.83,151.13 C 144.79,151.13 144.76,151.13 144.72,151.13 C 144.72,151.13 144.69,151.14 144.7,151.13 C 144.71,151.12 144.71,151.12 144.72,151.12 C 144.72,151.11 144.73,151.1 144.74,151.1 C 144.8,151.06 144.82,151.02 144.83,150.95 C 144.84,150.82 144.77,150.78 144.67,150.74 C 144.64,150.72 144.61,150.71 144.58,150.7 C 144.32,150.58 144.08,150.45 143.84,150.3 C 143.6,150.16 143.38,150.0 143.16,149.83 C 143.11,149.79 143.06,149.74 143.01,149.7 C 142.98,149.68 142.96,149.65 142.93,149.63 C 142.92,149.63 142.94,149.63 142.94,149.62 C 142.94,149.62 142.95,149.61 142.95,149.61 C 142.96,149.6 142.96,149.6 142.97,149.59 C 142.98,149.57 143.0,149.56 143.01,149.55 C 143.07,149.49 143.13,149.43 143.19,149.38 C 143.22,149.35 143.25,149.33 143.28,149.3 C 143.29,149.29 143.31,149.28 143.32,149.26 C 143.34,149.25 143.36,149.25 143.39,149.25 C 143.53,149.25 143.67,149.25 143.8,149.25 C 147.82,149.25 151.84,149.25 155.87,149.25 z M 165.84,163.19 C 166.06,163.07 166.32,162.85 166.62,162.87 C 166.63,162.87 166.65,162.87 166.67,162.88 C 166.68,162.88 166.69,162.88 166.7,162.88 C 166.71,162.88 166.7,162.89 166.69,162.9 C 166.68,162.94 166.67,162.97 166.66,163.0 C 166.63,163.07 166.6,163.13 166.57,163.2 C 166.56,163.21 166.56,163.23 166.55,163.25 C 166.54,163.27 166.55,163.28 166.56,163.29 C 166.57,163.33 166.59,163.36 166.6,163.39 C 166.62,163.46 166.64,163.53 166.65,163.6 C 166.7,163.9 166.66,164.16 166.54,164.44 C 166.48,164.57 166.41,164.69 166.32,164.8 C 166.27,164.86 166.22,164.91 166.17,164.96 C 166.15,164.99 166.12,165.01 166.1,165.04 C 166.07,165.06 166.04,165.07 166.0,165.08 C 165.85,165.12 165.7,165.15 165.54,165.16 C 165.47,165.16 165.39,165.17 165.31,165.16 C 165.27,165.16 165.24,165.16 165.2,165.15 C 165.15,165.15 165.14,165.12 165.12,165.09 C 164.93,164.79 165.1,164.61 165.14,164.34 C 165.15,164.33 165.15,164.31 165.15,164.3 C 165.15,164.26 165.14,164.27 165.11,164.28 C 165.04,164.3 164.96,164.31 164.88,164.31 C 164.72,164.31 164.58,164.26 164.45,164.17 C 164.38,164.13 164.33,164.07 164.27,164.02 C 164.22,163.97 164.17,163.9 164.1,163.86 C 163.99,163.79 163.78,163.77 163.65,163.76 C 163.37,163.75 163.08,163.77 162.8,163.81 C 162.78,163.81 162.61,163.84 162.59,163.85 C 162.54,163.9 162.48,163.94 162.42,163.98 C 162.31,164.07 162.19,164.15 162.08,164.24 C 161.96,164.32 161.85,164.41 161.73,164.49 C 161.68,164.53 161.62,164.58 161.56,164.62 C 161.54,164.64 161.51,164.67 161.48,164.69 C 161.47,164.7 161.45,164.71 161.45,164.73 C 161.44,164.75 161.44,164.76 161.43,164.78 C 161.36,165.06 161.18,165.3 160.9,165.41 C 160.88,165.42 160.86,165.42 160.85,165.43 C 160.82,165.44 160.86,165.45 160.87,165.46 C 160.89,165.49 160.92,165.52 160.94,165.55 C 160.98,165.6 161.03,165.64 161.06,165.7 C 161.12,165.83 161.14,165.95 161.1,166.09 C 161.06,166.22 161.0,166.31 160.88,166.39 C 160.86,166.4 160.79,166.39 160.77,166.39 C 160.74,166.39 160.7,166.39 160.66,166.38 C 160.59,166.38 160.51,166.37 160.44,166.37 C 160.37,166.36 160.29,166.36 160.22,166.36 C 160.18,166.36 160.14,166.36 160.11,166.36 C 160.07,166.36 160.03,166.35 160.0,166.34 C 159.86,166.28 159.73,166.21 159.61,166.12 C 159.35,165.94 159.18,165.72 159.08,165.42 C 159.03,165.28 159.01,165.14 159.01,165.0 C 159.01,164.93 159.02,164.85 159.03,164.78 C 159.03,164.75 159.04,164.71 159.05,164.68 C 159.05,164.66 159.06,164.64 159.06,164.63 C 159.06,164.62 159.07,164.61 159.07,164.6 C 159.07,164.59 159.08,164.6 159.09,164.6 C 159.23,164.62 159.37,164.63 159.52,164.62 C 159.55,164.62 159.59,164.61 159.62,164.61 C 159.64,164.6 159.62,164.62 159.62,164.63 C 159.62,164.63 159.61,164.64 159.61,164.65 C 159.61,164.67 159.6,164.68 159.59,164.7 C 159.57,164.77 159.56,164.84 159.55,164.91 C 159.52,165.21 159.65,165.48 159.88,165.66 C 159.99,165.75 160.11,165.82 160.25,165.86 C 160.32,165.89 160.39,165.9 160.46,165.92 C 160.49,165.93 160.53,165.94 160.56,165.94 C 160.57,165.95 160.59,165.96 160.58,165.95 C 160.58,165.94 160.57,165.93 160.56,165.93 C 160.55,165.91 160.54,165.9 160.53,165.89 C 160.35,165.68 160.15,165.44 160.22,165.13 C 160.23,165.05 160.26,164.99 160.29,164.93 C 160.3,164.91 160.31,164.89 160.32,164.88 C 160.32,164.87 160.33,164.84 160.35,164.85 C 160.38,164.86 160.41,164.88 160.44,164.9 C 160.58,164.96 160.73,164.94 160.83,164.82 C 160.93,164.71 160.92,164.56 161.0,164.43 C 161.09,164.31 161.2,164.23 161.31,164.14 C 161.54,163.97 161.77,163.81 162.0,163.63 C 162.12,163.55 162.23,163.46 162.34,163.37 C 162.4,163.32 162.47,163.33 162.54,163.31 C 162.61,163.3 162.68,163.29 162.75,163.28 C 163.04,163.24 163.32,163.22 163.61,163.23 C 163.87,163.24 164.19,163.27 164.42,163.44 C 164.54,163.52 164.62,163.64 164.74,163.72 C 164.88,163.82 165.01,163.78 165.13,163.67 C 165.15,163.65 165.17,163.62 165.2,163.59 C 165.22,163.56 165.27,163.62 165.28,163.63 C 165.34,163.67 165.4,163.72 165.45,163.77 C 165.55,163.87 165.63,163.98 165.66,164.13 C 165.7,164.28 165.68,164.41 165.64,164.55 C 165.62,164.62 165.6,164.69 165.58,164.76 C 165.58,164.77 165.58,164.78 165.57,164.79 C 165.57,164.79 165.57,164.8 165.57,164.79 C 165.58,164.79 165.58,164.79 165.58,164.78 C 165.6,164.77 165.61,164.76 165.62,164.75 C 165.65,164.72 165.68,164.7 165.7,164.68 C 165.93,164.47 166.09,164.28 166.13,163.96 C 166.17,163.65 166.06,163.4 165.84,163.19 z M 143.48,161.98 C 143.54,162.04 143.6,162.11 143.67,162.17 C 143.7,162.2 143.73,162.23 143.77,162.26 C 143.78,162.27 143.8,162.29 143.82,162.3 C 143.82,162.31 143.83,162.32 143.84,162.33 C 143.85,162.33 143.87,162.34 143.86,162.35 C 143.72,162.47 143.59,162.59 143.46,162.72 C 143.33,162.84 143.2,162.96 143.07,163.08 C 143.0,163.14 142.93,163.2 142.87,163.26 C 142.83,163.29 142.8,163.32 142.77,163.35 C 142.75,163.37 142.73,163.38 142.72,163.4 C 142.71,163.41 142.68,163.44 142.67,163.43 C 142.6,163.37 142.53,163.31 142.46,163.25 C 142.43,163.22 142.39,163.19 142.36,163.16 C 142.34,163.15 142.33,163.13 142.31,163.12 C 142.3,163.11 142.26,163.1 142.28,163.07 C 142.42,162.95 142.55,162.83 142.68,162.71 C 142.95,162.47 143.21,162.22 143.48,161.98 z M 140.32,163.1 C 140.31,163.1 140.3,163.1 140.29,163.1 C 140.23,163.1 140.18,163.1 140.13,163.09 C 140.07,163.09 140.01,163.08 139.95,163.08 C 139.84,163.06 139.74,163.04 139.63,163.02 C 139.52,163.0 139.4,162.98 139.29,162.97 C 139.26,162.97 139.23,162.97 139.21,162.96 C 139.63,162.62 140.02,162.25 140.35,161.86 C 140.3,162.27 140.29,162.69 140.32,163.1 z M 132.79,158.58 C 133.08,158.65 133.38,158.62 133.67,158.67 C 133.74,158.68 133.81,158.69 133.88,158.72 C 133.9,158.72 133.91,158.73 133.93,158.74 C 133.94,158.74 133.94,158.75 133.95,158.75 C 133.96,158.75 133.95,158.76 133.94,158.76 C 133.9,158.77 133.87,158.78 133.83,158.79 C 133.68,158.83 133.54,158.88 133.39,158.93 C 132.83,159.12 132.29,159.35 131.76,159.63 C 131.62,159.71 131.47,159.79 131.33,159.87 C 131.3,159.89 131.26,159.92 131.23,159.94 C 131.21,159.95 131.19,159.96 131.17,159.97 C 131.16,159.98 131.16,159.97 131.15,159.96 C 131.14,159.96 131.14,159.96 131.13,159.96 C 131.08,159.93 131.03,159.9 130.98,159.87 C 130.88,159.81 130.8,159.73 130.73,159.63 C 130.72,159.61 130.76,159.6 130.77,159.59 C 130.79,159.58 130.81,159.57 130.83,159.56 C 130.87,159.53 130.91,159.51 130.95,159.49 C 131.02,159.44 131.1,159.39 131.18,159.35 C 131.7,159.05 132.23,158.8 132.79,158.58 z"
		 />
		 <path style="fill:#00f;stroke:none;"
		 d="M 176.52,152.53 C 176.52,154.68 174.77,156.42 172.62,156.42 C 170.47,156.42 168.72,154.68 168.72,152.53 C 168.72,150.37 170.47,148.63 172.62,148.63 C 174.77,148.63 176.52,150.37 176.52,152.53 z"
		 />
		
		<!-- Prism Reference -->
		<cam mingh:cam="--verb EditSelectAll --verb ZoomSelection --verb FileSave " /> 
	 </g>

</svg>
