<svg
   xmlns:xlink="http://www.w3.org/1999/xlink"
   xmlns:svg="http://www.w3.org/2000/svg"
   xmlns="http://www.w3.org/2000/svg"
   xmlns:mingh="http://www.minghworld.com"
   width="300px"
   height="300px" >
	 <g>
		<path id="back" style="stroke:none;fill:#ff0;"
			d="M 150.28,130.66 C 145.68,130.61 141.04,132.16 137.53,135.19 C 131.74,139.94 129.23,148.23 131.41,155.41 C 133.43,162.7 140.1,168.38 147.63,169.22 C 155.13,170.24 162.98,166.34 166.72,159.75 C 168.44,156.81 169.37,153.4 169.38,150.0 C 169.45,142.67 164.94,135.57 158.28,132.5 C 155.78,131.28 153.04,130.68 150.28,130.66 z M 150.0,132.53 C 150.89,132.53 151.63,133.24 151.63,134.13 C 151.63,135.01 150.89,135.75 150.0,135.75 C 149.11,135.75 148.41,135.01 148.41,134.13 C 148.41,133.24 149.11,132.53 150.0,132.53 z" />

		<!-- Text -->
		<text id="txtTwo" dy="2.8" transform="matrix(1 0 0 1 150 160)" style="stroke:none;fill:#f00;font-family:'Eras Medium ITC';font-size:10px;text-anchor:middle" >
			
		</text>
		<!-- Prism Reference -->
		<cam mingh:cam=" --verb EditSelectAll --verb SelectionGroup --verb ZoomSelection --verb FileSave"/> 
	 </g>

</svg>