<svg
   xmlns:xlink="http://www.w3.org/1999/xlink"
   xmlns:svg="http://www.w3.org/2000/svg"
   xmlns="http://www.w3.org/2000/svg"
   xmlns:mingh="http://www.minghworld.com"
   width="300px"
   height="300px" >
	
	 <g>
		
		<!-- Paths -->
		<path transform="matrix(-1 0 0 1 300 0)" style="fill:#ff0;stroke:none;"
		 d="M 152.75,124.06 C 150.5,124.06 148.65,125.87 148.66,128.13 C 148.66,128.16 148.63,128.22 148.59,128.22 C 146.76,128.2 144.92,128.18 143.09,128.19 C 142.17,128.19 141.26,128.21 140.34,128.22 C 139.88,128.22 139.43,128.24 138.97,128.25 C 138.85,128.25 138.74,128.25 138.63,128.25 C 138.57,128.25 138.49,128.25 138.44,128.25 L 138.41,128.25 C 138.39,128.25 138.41,128.27 138.41,128.28 C 138.4,128.31 138.41,128.35 138.41,128.38 C 138.39,128.6 138.38,128.84 138.38,129.06 C 138.29,131.42 138.21,137.67 138.19,140.03 C 138.17,141.86 138.14,143.7 138.13,145.53 C 138.12,145.98 138.13,146.4 138.13,146.84 L 138.13,147.53 L 138.13,147.84 C 138.12,147.9 138.13,147.98 138.13,148.03 C 138.12,148.17 138.1,148.16 137.97,148.16 C 137.05,148.16 136.13,148.15 135.22,148.16 L 124.25,148.22 C 124.16,148.22 124.07,148.28 124.06,148.38 C 124.04,148.57 124.06,148.73 124.16,148.91 C 124.27,149.13 124.43,149.32 124.63,149.47 C 124.72,149.54 124.84,149.58 124.94,149.66 C 125.03,149.73 125.1,149.82 125.19,149.91 C 125.36,150.08 125.52,150.27 125.66,150.47 C 125.76,150.62 125.98,150.91 126.16,151.0 C 126.38,151.11 126.53,151.25 126.72,151.41 C 127.09,151.71 127.46,152.05 127.81,152.38 C 128.17,152.7 128.53,153.01 128.91,153.31 C 129.17,153.52 129.2,153.55 129.5,153.72 C 129.71,153.84 129.9,154.0 130.09,154.16 C 130.37,154.38 130.91,154.86 131.06,155.22 C 131.09,155.27 131.11,155.32 131.13,155.38 C 131.14,155.43 131.16,155.48 131.19,155.53 C 131.23,155.64 131.29,155.77 131.34,155.88 C 131.46,156.09 131.57,156.27 131.66,156.5 C 131.74,156.73 131.78,156.95 131.78,157.19 C 131.79,157.43 131.86,157.66 131.97,157.88 C 132.08,158.09 132.18,158.27 132.31,158.47 C 132.44,158.67 132.59,158.85 132.75,159.03 C 133.38,159.74 134.25,160.27 135.06,160.69 C 135.69,161.01 137.03,161.64 137.72,161.84 C 137.84,161.88 137.94,161.9 138.06,161.91 C 138.09,161.91 138.13,161.91 138.16,161.91 C 138.19,161.9 138.18,161.88 138.19,161.84 C 138.2,161.78 138.25,161.74 138.28,161.69 C 138.43,161.49 138.61,161.32 138.78,161.16 C 139.14,160.8 139.27,160.39 139.44,159.94 C 139.55,159.63 139.67,159.31 139.78,159.0 C 139.81,158.93 139.85,158.88 139.88,158.81 C 139.89,158.78 139.89,158.72 139.91,158.69 C 139.93,158.61 139.92,158.6 140.0,158.59 L 140.47,158.53 C 140.65,158.51 140.8,158.48 140.97,158.41 C 141.07,158.36 141.14,158.32 141.22,158.25 C 141.3,158.17 141.38,158.1 141.5,158.09 C 141.64,158.09 142.02,158.2 142.16,158.22 C 142.37,158.26 142.57,158.28 142.78,158.31 C 143.24,158.38 143.7,158.42 144.16,158.47 C 144.3,158.49 144.45,158.51 144.59,158.53 C 144.64,158.54 144.68,158.54 144.72,158.56 C 144.75,158.58 144.78,158.6 144.81,158.63 C 144.87,158.68 144.92,158.73 144.97,158.78 L 145.63,159.38 C 145.94,159.68 146.25,160.01 146.56,160.31 C 147.44,161.16 147.48,161.23 147.97,162.34 C 148.29,163.06 148.82,164.24 149.25,164.91 C 149.61,165.46 149.75,165.48 150.16,166.0 C 150.3,166.19 150.45,166.38 150.56,166.59 C 150.67,166.81 150.82,166.97 150.97,167.16 C 151.12,167.34 151.26,167.52 151.44,167.69 C 151.53,167.77 151.62,167.84 151.72,167.91 C 151.74,167.92 151.78,167.96 151.81,167.97 C 151.84,167.98 151.88,167.96 151.91,167.97 C 151.97,167.99 151.99,168.05 152.03,168.09 C 152.17,168.26 152.27,168.55 152.31,168.75 C 152.36,168.99 152.33,169.2 152.34,169.44 C 152.37,169.92 152.44,170.37 152.66,170.81 C 152.76,171.03 152.9,171.21 153.03,171.41 C 153.16,171.61 153.27,171.82 153.38,172.03 C 153.48,172.24 153.54,172.47 153.63,172.69 C 153.67,172.8 153.73,172.89 153.78,173.0 C 153.83,173.11 153.9,173.22 153.97,173.31 C 154.14,173.53 154.36,173.56 154.59,173.63 C 154.83,173.69 155.04,173.76 155.25,173.88 C 155.36,173.93 155.46,174.0 155.56,174.06 C 155.67,174.12 155.76,174.17 155.88,174.22 C 156.1,174.31 156.35,174.32 156.56,174.44 C 156.67,174.5 156.75,174.62 156.84,174.69 C 156.94,174.76 157.04,174.8 157.16,174.84 C 157.38,174.93 157.6,174.97 157.84,175.0 C 158.03,175.02 159.1,175.09 159.28,175.13 C 159.56,175.18 159.71,175.28 159.91,175.47 C 160.01,175.56 160.33,175.85 160.47,175.91 C 160.65,175.98 161.01,175.89 161.16,175.81 C 161.21,175.78 161.26,175.72 161.31,175.69 C 161.36,175.66 161.41,175.65 161.47,175.63 C 161.52,175.6 161.57,175.57 161.63,175.56 C 161.69,175.55 161.75,175.53 161.78,175.47 C 161.88,175.31 161.8,174.93 161.78,174.78 C 161.75,174.55 161.7,174.32 161.66,174.09 C 161.56,173.63 161.46,173.18 161.34,172.72 C 161.23,172.26 161.11,171.81 161.03,171.34 C 160.87,170.35 160.97,169.48 161.38,168.56 C 161.57,168.13 161.81,167.71 162.06,167.31 C 162.32,166.91 162.63,166.56 162.97,166.22 C 163.66,165.52 164.45,164.99 165.28,164.5 C 165.69,164.26 166.12,164.02 166.53,163.78 C 166.94,163.55 167.35,163.32 167.75,163.06 C 168.55,162.55 169.31,162.02 170.06,161.44 C 170.44,161.15 170.81,160.85 171.16,160.53 C 171.51,160.21 171.93,159.95 172.34,159.72 C 172.76,159.49 173.18,159.26 173.63,159.09 C 173.85,159.01 174.07,158.93 174.31,158.91 C 174.43,158.89 174.57,158.92 174.69,158.91 C 174.72,158.9 174.72,158.88 174.75,158.88 C 174.78,158.87 174.82,158.89 174.81,158.84 C 174.81,158.79 174.8,158.74 174.78,158.69 C 174.71,158.46 174.55,158.22 174.69,157.94 C 174.75,157.82 174.8,157.7 174.88,157.59 C 174.95,157.49 175.03,157.36 175.09,157.25 C 175.23,157.02 175.35,156.81 175.38,156.53 C 175.39,156.4 175.36,156.28 175.31,156.16 C 175.27,156.03 175.21,155.92 175.22,155.78 C 175.22,155.71 175.26,155.63 175.28,155.56 C 175.3,155.5 175.33,155.47 175.34,155.41 C 175.36,155.34 175.35,155.25 175.31,155.19 C 175.28,155.12 175.3,155.07 175.31,155.0 C 175.36,154.73 175.48,154.52 175.59,154.28 C 175.86,153.74 175.91,153.37 175.94,152.78 C 175.97,152.09 175.86,151.86 175.59,151.25 C 175.49,151.01 175.35,150.79 175.22,150.56 C 175.19,150.51 175.16,150.46 175.13,150.41 C 175.11,150.38 175.1,150.33 175.06,150.31 C 175.03,150.3 174.99,150.31 174.97,150.28 C 174.88,150.18 174.91,150.02 174.94,149.91 C 175.0,149.6 174.88,149.38 174.72,149.16 C 174.59,148.98 174.45,148.82 174.31,148.66 C 174.19,148.52 174.06,148.39 173.94,148.25 C 173.93,148.24 173.94,148.23 173.94,148.22 C 173.92,148.19 173.94,148.15 173.94,148.13 L 173.94,148.03 L 173.94,147.91 L 173.94,147.59 L 173.94,146.97 L 173.94,145.78 L 173.94,143.34 L 173.94,141.63 L 173.94,141.41 L 173.94,141.28 C 173.94,141.25 173.89,141.28 173.88,141.28 C 173.86,141.28 173.86,141.28 173.84,141.28 L 173.41,141.22 C 173.29,141.21 173.15,141.2 173.03,141.19 C 172.82,141.16 172.64,141.16 172.44,141.06 C 172.39,141.04 172.35,141.01 172.31,140.97 C 172.27,140.93 172.23,140.87 172.19,140.84 C 172.1,140.78 172.0,140.76 171.91,140.72 C 171.71,140.63 171.51,140.57 171.31,140.5 C 170.93,140.37 170.55,140.21 170.19,140.03 C 170.01,139.94 169.83,139.85 169.66,139.75 C 169.59,139.72 169.19,139.5 169.09,139.53 C 169.04,139.55 169.0,139.59 168.97,139.63 C 168.94,139.66 168.92,139.69 168.88,139.72 C 168.78,139.78 168.7,139.81 168.59,139.81 C 168.38,139.82 168.19,139.75 168.0,139.69 C 167.76,139.6 167.64,139.63 167.41,139.72 C 167.22,139.79 167.02,139.9 166.81,139.94 C 166.74,139.95 166.67,139.95 166.59,139.94 C 166.52,139.92 166.48,139.85 166.41,139.84 C 166.25,139.83 166.11,139.89 165.97,139.94 C 165.72,140.03 165.49,140.14 165.25,140.25 C 165.16,140.29 165.06,140.36 164.97,140.41 C 164.94,140.42 164.84,140.47 164.81,140.47 C 164.77,140.47 164.68,140.39 164.66,140.38 C 164.44,140.21 164.23,140.02 164.0,139.88 C 163.92,139.82 163.74,139.7 163.63,139.72 C 163.55,139.73 163.5,139.82 163.44,139.84 C 163.37,139.87 163.29,139.88 163.22,139.88 C 163.07,139.86 162.94,139.8 162.81,139.72 C 162.75,139.68 162.7,139.66 162.66,139.59 C 162.61,139.52 162.55,139.51 162.47,139.53 C 162.33,139.57 162.25,139.65 162.16,139.75 C 162.1,139.81 162.05,139.87 162.0,139.94 C 161.95,140.01 161.9,140.08 161.84,140.16 C 161.83,140.17 161.83,140.2 161.81,140.22 C 161.79,140.25 161.75,140.27 161.72,140.28 C 161.67,140.3 161.63,140.27 161.63,140.22 C 161.62,140.19 161.63,140.15 161.63,140.13 C 161.63,140.0 161.64,139.9 161.63,139.78 C 161.62,139.77 161.62,139.75 161.59,139.75 C 161.58,139.75 161.58,139.75 161.56,139.75 C 161.53,139.75 161.5,139.74 161.47,139.75 C 161.4,139.76 161.31,139.76 161.25,139.78 C 161.12,139.81 161.0,139.89 160.88,139.94 C 160.65,140.03 160.33,139.73 160.19,139.63 C 159.91,139.42 159.76,139.34 159.44,139.53 C 159.32,139.6 159.24,139.68 159.13,139.75 C 159.07,139.79 158.99,139.81 158.94,139.84 C 158.9,139.87 158.81,139.94 158.75,139.91 C 158.69,139.87 158.64,139.71 158.63,139.66 C 158.6,139.56 158.6,139.44 158.47,139.41 C 158.37,139.38 158.26,139.42 158.16,139.38 C 158.04,139.32 158.04,139.24 158.03,139.13 C 158.01,138.84 158.05,138.77 157.72,138.72 C 157.51,138.69 157.33,138.7 157.13,138.72 C 157.02,138.73 156.91,138.73 156.81,138.75 C 156.71,138.77 156.61,138.81 156.5,138.81 C 156.4,138.81 156.32,138.79 156.22,138.75 C 156.12,138.71 156.04,138.68 155.94,138.66 C 155.54,138.57 155.12,138.55 154.72,138.5 C 154.41,138.46 153.73,138.41 153.56,138.03 C 153.54,137.98 153.55,137.93 153.53,137.88 C 153.52,137.82 153.5,137.76 153.47,137.72 C 153.41,137.62 153.34,137.56 153.25,137.5 C 153.0,137.32 152.92,137.35 152.66,137.44 C 152.23,137.58 151.79,137.57 151.41,137.28 C 151.13,137.07 150.99,136.82 150.81,136.53 C 150.76,136.45 150.7,136.36 150.66,136.28 C 150.64,136.26 150.64,136.24 150.63,136.22 C 150.61,136.19 150.59,136.16 150.59,136.13 C 150.59,136.08 150.59,136.05 150.59,136.0 C 150.59,135.81 150.59,135.62 150.59,135.44 C 150.59,135.07 150.59,134.68 150.59,134.31 C 150.59,133.45 150.6,132.58 150.59,131.72 C 150.59,131.66 150.64,131.63 150.69,131.66 C 151.95,132.39 153.52,132.38 154.78,131.66 C 156.04,130.93 156.81,129.58 156.81,128.13 C 156.81,125.87 155.0,124.06 152.75,124.06 z M 152.75,126.19 C 153.83,126.19 154.69,127.05 154.69,128.13 C 154.69,129.2 153.83,130.09 152.75,130.09 C 151.67,130.09 150.78,129.2 150.78,128.13 C 150.78,127.05 151.67,126.19 152.75,126.19 z" />
		
		
		<text id="txtTwo" transform="matrix(1 0 0 1 150 160)" style="stroke:none;fill:#f00;font-family:'Eras Medium ITC';font-size:20px;text-anchor:middle"  >

		</text>
		<!-- Prism Reference -->
		<cam mingh:cam="--verb EditSelectAll --verb ZoomSelection --verb FileSave "/> 
	 </g>

</svg>