<svg
   xmlns:xlink="http://www.w3.org/1999/xlink"
   xmlns:svg="http://www.w3.org/2000/svg"
   xmlns="http://www.w3.org/2000/svg"
   xmlns:mingh="http://www.minghworld.com"
   width="300px"
   height="300px" >
	
	 <g>
		
		<!-- Paths -->
		<path transform="matrix(-1 0 0 1 300 0)" style="fill:#ff0;stroke:none;"
		 d="M 148.09,124.81 C 147.74,124.83 147.38,124.91 147.03,125.03 C 146.33,125.28 145.74,125.67 145.28,126.25 C 144.81,126.83 144.55,127.48 144.47,128.22 C 144.38,128.95 144.49,129.67 144.81,130.34 C 144.86,130.44 144.95,130.6 145.06,130.81 C 145.17,131.01 145.26,131.2 145.31,131.31 C 145.5,131.72 145.54,132.07 145.44,132.38 C 145.42,132.44 145.37,132.44 145.31,132.41 C 144.96,132.24 144.71,132.12 144.53,132.03 C 144.48,132.01 144.43,132.04 144.41,132.09 C 143.44,134.27 142.9,136.37 142.81,138.44 C 142.65,142.08 143.73,145.77 146.06,149.5 C 146.1,149.55 146.08,149.59 146.03,149.63 C 144.15,150.6 142.37,151.69 140.66,152.88 C 138.33,154.49 136.13,156.31 134.06,158.34 C 132.98,159.41 131.92,160.54 130.94,161.69 C 130.9,161.73 130.9,161.75 130.94,161.78 C 132.49,163.3 134.13,164.74 135.81,166.09 C 135.85,166.12 135.86,166.15 135.84,166.19 C 135.39,167.38 134.7,169.19 133.81,171.56 C 133.7,171.88 133.96,172.33 134.56,172.97 C 134.91,173.34 135.32,173.72 135.81,174.06 C 136.31,174.4 136.78,174.67 137.25,174.88 C 138.06,175.23 138.59,175.28 138.84,175.06 C 141.89,172.45 143.35,171.21 143.19,171.34 C 143.22,171.32 143.24,171.32 143.28,171.34 C 145.14,172.46 147.02,173.49 148.97,174.44 C 149.02,174.46 149.07,174.45 149.09,174.41 C 150.36,172.16 151.48,169.82 152.41,167.41 C 152.41,167.41 152.44,167.4 152.44,167.41 C 152.52,167.66 152.7,167.86 152.94,168.0 C 153.18,168.14 153.43,168.16 153.69,168.13 C 153.92,168.1 154.18,168.05 154.44,167.94 C 154.63,167.86 154.86,167.73 155.13,167.56 C 155.14,167.56 155.14,167.55 155.16,167.56 C 155.17,167.58 155.19,167.61 155.19,167.63 C 154.89,168.24 154.75,168.82 154.81,169.41 C 154.89,170.06 155.18,170.61 155.66,171.03 C 156.11,171.43 156.68,171.61 157.38,171.59 C 158.03,171.58 158.6,171.38 159.09,171.0 C 160.06,170.26 160.5,169.17 160.38,167.69 C 160.34,167.21 160.2,166.61 160.0,165.88 C 159.77,165.01 159.6,164.42 159.5,164.09 C 159.47,164.01 159.5,163.96 159.59,163.97 C 160.08,164.01 160.45,164.07 160.69,164.09 C 160.73,164.09 160.74,164.05 160.75,164.0 C 161.36,161.39 161.42,158.79 160.91,156.16 C 160.39,153.53 159.36,151.12 157.81,148.94 C 157.91,148.66 158.06,148.22 158.25,147.66 C 158.44,147.1 158.59,146.69 158.69,146.41 C 158.71,146.36 158.74,146.34 158.78,146.34 C 159.6,146.47 160.4,146.45 161.22,146.28 C 161.24,146.27 161.29,146.29 161.31,146.31 C 162.13,146.99 162.83,147.45 163.47,147.72 C 164.17,148.02 165.0,148.02 165.97,147.75 C 166.03,147.74 166.06,147.72 166.03,147.66 C 165.73,146.96 165.54,146.21 165.44,145.41 C 165.29,144.22 165.47,143.3 165.97,142.66 C 166.15,142.43 166.56,142.05 167.19,141.5 C 167.78,140.99 168.2,140.57 168.44,140.22 C 168.8,139.7 169.0,139.09 169.06,138.44 C 169.13,137.8 169.05,137.2 168.81,136.63 C 168.42,135.67 167.64,134.92 166.5,134.38 C 165.77,134.03 165.16,133.89 164.63,133.94 C 164.37,133.96 164.1,134.01 163.84,134.13 C 163.81,134.14 163.81,134.14 163.78,134.13 C 163.76,134.11 163.72,134.07 163.72,134.03 C 163.74,133.75 163.72,133.49 163.66,133.25 C 163.51,132.74 163.16,132.22 162.59,131.66 C 161.7,130.76 160.72,130.29 159.69,130.25 C 159.06,130.22 158.45,130.35 157.88,130.63 C 157.29,130.9 156.83,131.3 156.47,131.81 C 156.21,132.16 155.96,132.7 155.69,133.44 C 155.39,134.22 155.16,134.72 155.0,134.97 C 154.56,135.65 153.75,136.14 152.59,136.41 C 151.8,136.6 151.04,136.67 150.28,136.63 C 150.22,136.62 150.18,136.65 150.19,136.72 C 150.26,137.73 150.57,138.51 151.09,139.06 C 151.57,139.57 152.24,140.07 153.16,140.59 C 153.18,140.61 153.18,140.65 153.19,140.69 C 153.3,141.51 153.57,142.28 153.97,143.0 C 153.99,143.05 154.01,143.06 153.97,143.09 C 153.75,143.27 153.41,143.55 152.97,143.91 C 152.53,144.26 152.21,144.51 152.0,144.69 C 151.96,144.72 151.91,144.72 151.88,144.69 C 150.36,143.48 149.39,141.92 148.97,139.97 C 148.58,138.13 148.75,136.28 149.47,134.44 C 149.49,134.39 149.49,134.37 149.44,134.34 C 149.35,134.3 149.21,134.24 149.03,134.16 C 148.86,134.07 148.72,134.01 148.63,133.97 C 148.57,133.94 148.57,133.9 148.59,133.84 C 148.77,133.46 148.87,133.26 148.91,133.22 C 149.02,133.06 149.14,132.93 149.31,132.88 C 149.44,132.83 149.63,132.79 149.84,132.78 C 149.99,132.78 150.22,132.8 150.56,132.81 C 151.62,132.87 152.45,132.82 153.06,132.66 C 153.6,132.52 153.97,132.34 154.16,132.09 C 154.44,131.73 154.49,131.33 154.28,130.91 C 154.11,130.54 153.78,130.29 153.31,130.16 C 153.23,130.13 153.11,130.1 152.97,130.09 C 152.78,130.07 152.48,130.07 152.06,130.06 C 151.98,130.06 151.94,130.02 151.97,129.94 C 152.21,129.23 152.26,128.54 152.09,127.81 C 151.93,127.09 151.59,126.46 151.06,125.94 C 150.54,125.42 149.91,125.08 149.19,124.91 C 148.83,124.82 148.45,124.79 148.09,124.81 z M 148.22,126.75 C 148.38,126.74 148.56,126.75 148.72,126.78 C 148.8,126.8 148.89,126.84 148.97,126.88 C 149.54,127.08 149.99,127.54 150.16,128.13 C 150.39,128.84 150.16,129.67 149.59,130.16 C 149.04,130.64 148.2,130.78 147.53,130.47 C 146.92,130.21 146.49,129.59 146.41,128.94 C 146.32,128.35 146.53,127.77 146.94,127.34 C 147.28,126.99 147.73,126.77 148.22,126.75 z M 155.22,157.53 C 155.24,157.53 155.25,157.54 155.25,157.56 C 155.35,158.06 155.42,158.56 155.47,159.06 C 155.61,160.51 155.52,161.98 155.22,163.47 C 155.21,163.53 155.25,163.59 155.31,163.59 C 155.57,163.62 155.91,163.65 156.38,163.69 C 156.43,163.69 156.47,163.72 156.47,163.78 C 156.42,164.33 156.28,164.69 156.06,164.84 C 155.96,164.92 155.79,164.99 155.53,165.06 C 155.31,165.13 155.12,165.17 154.97,165.22 C 154.04,165.51 153.34,165.86 152.88,166.25 C 152.86,166.26 152.86,166.26 152.84,166.25 C 152.82,166.24 152.81,166.24 152.81,166.22 C 153.25,165.0 153.6,163.9 153.88,162.88 C 153.91,162.73 154.22,161.53 154.75,159.31 C 154.89,158.73 155.04,158.15 155.19,157.56 C 155.19,157.54 155.2,157.53 155.22,157.53 z" />
		
		
		<text id="txtTwo" transform="matrix(1 0 0 1 150 160)" style="stroke:none;fill:#f00;font-family:'Eras Medium ITC';font-size:20px;text-anchor:middle"  >

		</text>
		<!-- Prism Reference -->
		<cam mingh:cam=" --verb EditSelectAll --verb ZoomSelection --verb FileSave "/> 
	 </g>

</svg>