<svg
   xmlns:xlink="http://www.w3.org/1999/xlink"
   xmlns:svg="http://www.w3.org/2000/svg"
   xmlns="http://www.w3.org/2000/svg"
   xmlns:mingh="http://www.minghworld.com"
   width="300px"
   height="300px" >
	
	 <g>
		
		<!-- Paths -->
		<path style="fill:none;stroke:#000;stroke-width:0.25px;"
		 d="M 149.38,118.16 C 148.21,118.25 147.08,118.85 146.34,119.91 C 146.26,120.02 146.19,120.12 146.13,120.25 C 146.09,120.31 146.07,120.42 145.97,120.41 C 145.93,120.4 145.81,120.27 145.78,120.25 C 145.59,120.09 145.29,119.88 145.06,119.78 C 144.9,119.71 144.73,119.68 144.56,119.78 C 144.48,119.84 144.42,119.91 144.38,120.0 C 144.34,120.08 144.34,120.14 144.34,120.22 C 144.35,120.38 144.4,120.51 144.44,120.66 C 144.48,120.8 144.5,120.97 144.5,121.13 C 144.5,121.84 143.88,122.23 143.38,122.53 C 142.81,122.87 142.34,123.21 142.03,123.84 C 141.77,124.39 141.7,125.1 142.0,125.66 C 142.16,125.96 142.4,126.14 142.69,126.31 C 142.76,126.36 142.83,126.4 142.91,126.44 C 142.98,126.47 143.07,126.49 143.06,126.59 C 143.06,126.63 143.04,126.68 143.03,126.72 C 143.02,126.76 143.01,126.77 142.97,126.78 C 142.89,126.8 142.8,126.77 142.72,126.78 C 142.38,126.81 142.09,126.96 141.94,127.28 C 141.86,127.44 141.85,127.62 141.84,127.78 C 141.84,127.94 141.82,128.09 141.84,128.25 C 141.89,128.58 142.08,128.88 142.41,129.0 C 142.48,129.03 142.58,129.05 142.66,129.06 C 142.72,129.07 142.81,129.03 142.84,129.13 C 142.87,129.2 142.78,129.3 142.75,129.34 C 142.71,129.41 142.66,129.46 142.63,129.53 C 142.42,129.96 142.43,130.78 142.47,131.22 C 142.52,131.73 142.66,132.43 142.88,132.91 C 142.94,133.04 143.01,133.17 143.06,133.31 C 143.12,133.45 143.12,133.58 143.13,133.72 C 143.13,134.0 143.16,134.31 143.19,134.59 C 143.25,135.16 143.27,135.71 143.28,136.28 C 143.3,137.04 143.31,137.28 143.59,138.0 C 143.72,138.33 143.75,138.53 143.75,138.88 C 143.75,139.18 143.72,139.49 143.66,139.78 C 143.52,140.37 143.29,140.9 143.19,141.5 C 143.1,141.97 143.08,142.52 143.34,142.97 C 143.46,143.17 143.59,143.34 143.75,143.5 C 143.95,143.71 144.14,143.93 144.28,144.19 C 144.44,144.47 144.56,144.73 144.59,145.06 C 144.63,145.38 144.55,145.67 144.47,145.97 C 144.38,146.3 144.36,146.54 144.63,146.81 C 144.89,147.09 145.08,147.07 145.31,147.41 C 145.5,147.67 145.58,147.95 145.56,148.28 C 145.54,148.6 145.45,148.87 145.34,149.16 C 145.11,149.79 145.0,150.26 144.94,150.94 C 144.88,151.56 144.91,152.15 145.13,152.75 C 145.23,153.05 145.36,153.28 145.59,153.5 C 145.64,153.55 145.71,153.61 145.69,153.69 C 145.66,153.76 145.62,153.86 145.59,153.94 C 145.54,154.08 145.51,154.23 145.47,154.38 C 145.32,154.97 145.26,155.55 145.22,156.16 C 145.1,157.74 145.23,158.24 145.31,159.81 C 145.38,161.03 145.28,162.23 145.19,163.44 C 145.09,164.65 145.01,165.85 144.97,167.06 C 144.95,167.67 144.94,168.3 144.97,168.91 C 144.98,169.24 145.06,170.38 145.03,170.72 C 144.97,171.38 144.66,171.85 144.28,172.34 C 144.1,172.59 143.93,172.79 143.84,173.09 C 143.8,173.24 143.81,173.41 143.81,173.56 C 143.81,173.6 143.79,173.62 143.78,173.66 C 143.77,173.7 143.76,173.74 143.72,173.75 C 143.68,173.76 143.66,173.77 143.63,173.78 C 143.59,173.79 143.54,173.8 143.5,173.81 C 143.19,173.93 143.0,174.15 142.94,174.47 C 142.88,174.76 142.93,175.08 143.09,175.34 C 143.18,175.48 143.26,175.59 143.41,175.66 C 143.44,175.67 143.5,175.68 143.53,175.69 C 143.57,175.7 143.58,175.77 143.53,175.78 C 143.49,175.79 143.47,175.78 143.44,175.78 C 143.4,175.78 143.35,175.78 143.31,175.78 C 143.01,175.8 142.71,175.81 142.41,175.84 C 141.12,175.98 140.12,176.24 138.91,176.69 C 138.67,176.77 137.48,177.27 137.25,177.38 C 136.96,177.51 136.73,177.69 136.63,178.0 C 136.57,178.15 136.59,178.28 136.59,178.44 C 136.6,178.59 136.59,178.76 136.59,178.91 C 136.59,179.16 136.55,180.47 136.59,180.72 C 136.7,181.33 137.26,181.79 137.88,181.84 C 138.13,181.87 138.51,181.76 138.75,181.72 C 139.05,181.67 139.36,181.64 139.66,181.59 C 140.25,181.51 140.84,181.43 141.44,181.38 C 143.52,181.19 146.58,181.28 148.66,181.28 C 149.86,181.28 151.08,181.26 152.28,181.25 C 153.49,181.24 154.7,181.23 155.91,181.25 C 157.11,181.27 158.3,181.33 159.5,181.47 C 160.1,181.54 160.69,181.62 161.28,181.75 C 161.9,181.88 162.45,181.94 162.97,181.44 C 163.5,180.92 163.41,180.37 163.41,179.75 C 163.4,179.45 163.4,179.14 163.41,178.84 C 163.42,178.54 163.46,178.24 163.34,177.94 C 163.22,177.61 162.99,177.47 162.69,177.34 C 162.41,177.22 162.12,177.11 161.84,177.0 C 161.29,176.77 160.73,176.55 160.16,176.38 C 158.99,176.01 157.81,175.84 156.59,175.78 C 156.56,175.78 156.54,175.78 156.5,175.78 C 156.46,175.78 156.4,175.76 156.44,175.72 C 156.45,175.7 156.48,175.69 156.5,175.69 C 156.52,175.68 156.51,175.66 156.53,175.66 C 156.57,175.64 156.62,175.64 156.66,175.63 C 156.79,175.54 156.86,175.43 156.94,175.28 C 157.07,175.01 157.1,174.69 157.03,174.41 C 156.95,174.1 156.71,173.86 156.41,173.78 C 156.37,173.77 156.35,173.76 156.31,173.75 C 156.28,173.75 156.22,173.77 156.19,173.75 C 156.11,173.71 156.13,173.59 156.13,173.53 C 156.12,173.38 156.11,173.24 156.09,173.09 C 156.03,172.5 155.87,171.92 155.72,171.34 C 155.57,170.77 155.42,170.22 155.38,169.63 C 155.33,169.02 155.4,168.43 155.5,167.84 C 155.6,167.26 155.72,166.69 155.75,166.09 C 155.77,165.7 155.75,164.7 155.72,164.31 C 155.71,164.16 155.69,164.02 155.66,163.88 C 155.62,163.73 155.56,163.58 155.53,163.44 C 155.42,162.93 155.74,163.01 156.06,162.84 C 156.36,162.69 156.43,162.43 156.47,162.13 C 156.51,161.82 156.5,161.52 156.47,161.22 C 156.41,160.63 156.36,160.06 156.28,159.47 C 156.2,158.88 156.12,158.28 156.09,157.69 C 156.08,157.39 156.05,157.11 156.09,156.81 C 156.11,156.66 156.17,156.51 156.25,156.38 C 156.33,156.23 156.42,156.18 156.56,156.13 C 156.88,156.01 157.09,155.93 157.25,155.59 C 157.38,155.31 157.44,155.01 157.5,154.72 C 157.64,154.08 157.74,153.62 158.13,153.06 C 158.46,152.57 158.91,152.18 159.28,151.72 C 159.59,151.34 160.05,150.67 159.81,150.09 C 159.78,150.02 159.71,149.96 159.75,149.88 C 159.79,149.79 159.86,149.73 159.91,149.66 C 160.01,149.5 160.12,149.32 160.22,149.16 L 160.81,148.19 C 160.84,148.14 160.9,148.03 160.91,147.97 C 160.92,147.88 160.89,147.83 160.81,147.78 C 160.69,147.7 160.56,147.64 160.44,147.56 C 160.18,147.41 159.94,147.25 159.69,147.09 L 158.19,146.16 C 158.06,146.08 157.91,146.01 157.78,145.94 C 157.74,145.91 157.46,145.73 157.41,145.72 C 157.25,145.7 157.18,145.91 157.13,146.0 C 157.05,146.13 156.95,146.25 156.88,146.38 C 156.58,146.89 156.3,147.42 155.91,147.88 C 155.81,147.99 155.67,148.06 155.5,148.03 C 155.33,148.0 155.29,147.84 155.25,147.72 C 155.15,147.44 155.06,147.13 155.0,146.84 C 154.88,146.26 154.83,145.7 154.66,145.13 C 154.57,144.84 154.49,144.55 154.28,144.31 C 154.09,144.08 153.85,143.91 153.59,143.75 C 153.32,143.58 153.08,143.42 152.81,143.25 C 152.51,143.05 152.25,142.89 152.22,142.47 C 152.21,142.31 152.21,142.15 152.22,142.0 C 152.22,141.85 152.24,141.68 152.25,141.53 C 152.27,141.19 152.33,141.02 152.5,140.72 C 152.67,140.42 152.86,140.13 153.0,139.81 C 153.07,139.64 153.12,139.46 153.16,139.28 C 153.18,139.19 153.21,139.09 153.22,139.0 C 153.22,138.92 153.21,138.86 153.22,138.78 C 153.27,138.43 153.6,138.38 153.88,138.34 C 154.14,138.31 154.39,138.3 154.66,138.28 C 155.34,138.23 156.04,138.2 156.72,138.16 C 156.96,138.14 157.23,138.08 157.41,137.88 C 157.51,137.76 157.53,137.61 157.47,137.47 C 157.42,137.36 157.3,137.24 157.19,137.19 C 157.09,137.14 156.97,137.14 156.88,137.13 C 156.75,137.11 156.63,137.1 156.5,137.09 C 156.18,137.07 155.85,137.06 155.53,137.03 C 155.19,137.0 154.87,136.96 154.53,136.94 C 154.38,136.93 154.21,136.91 154.06,136.91 C 154.03,136.9 154.0,136.91 153.97,136.88 C 153.94,136.85 153.94,136.81 153.97,136.78 C 153.99,136.76 154.16,136.7 154.19,136.69 C 154.43,136.58 154.67,136.46 154.91,136.34 C 155.25,136.17 155.57,136.0 155.91,135.81 C 156.09,135.71 156.37,135.61 156.47,135.38 C 156.53,135.23 156.49,135.07 156.38,134.97 C 156.25,134.85 156.13,134.83 155.97,134.84 C 155.66,134.87 155.38,134.96 155.09,135.06 C 154.81,135.16 154.53,135.27 154.25,135.38 C 153.97,135.48 153.68,135.58 153.41,135.69 C 153.27,135.74 153.14,135.79 153.0,135.84 C 152.97,135.86 152.94,135.87 152.91,135.88 C 152.87,135.88 152.82,135.85 152.81,135.81 C 152.81,135.77 152.89,135.65 152.91,135.63 C 153.24,135.13 153.65,134.67 154.0,134.19 C 154.15,133.98 154.35,133.66 154.31,133.38 C 154.29,133.21 154.15,133.1 154.0,133.06 C 153.83,133.02 153.73,133.07 153.59,133.16 C 153.32,133.32 152.41,134.05 152.16,134.25 C 151.92,134.44 151.68,134.63 151.44,134.81 C 151.38,134.86 151.31,134.9 151.25,134.94 C 151.21,134.96 151.12,135.05 151.06,135.0 C 150.96,134.92 150.9,134.7 150.88,134.59 C 150.74,134.01 150.73,133.41 150.66,132.81 C 150.64,132.66 150.59,132.52 150.56,132.38 C 150.53,132.23 150.53,132.08 150.47,131.94 C 150.34,131.63 150.01,131.51 149.75,131.75 C 149.57,131.92 149.47,132.36 149.44,132.56 C 149.39,132.86 149.37,133.17 149.34,133.47 C 149.31,133.77 149.27,134.05 149.22,134.34 C 149.19,134.49 149.17,134.64 149.13,134.78 C 149.1,134.85 149.09,134.91 149.03,134.97 C 148.96,135.04 148.87,134.97 148.81,134.94 C 148.65,134.83 147.56,133.96 147.41,133.84 C 147.17,133.66 146.93,133.49 146.69,133.31 C 146.55,133.21 146.3,132.97 146.13,133.16 C 145.95,133.35 146.05,133.75 146.13,133.94 C 146.24,134.22 146.45,134.45 146.63,134.69 C 146.85,134.99 147.07,135.28 147.28,135.59 C 147.34,135.68 147.4,135.74 147.44,135.84 C 147.49,135.98 147.38,136.09 147.25,136.06 C 147.1,136.03 146.96,135.96 146.81,135.91 C 146.73,135.87 146.65,135.85 146.56,135.81 C 146.5,135.79 146.36,135.75 146.31,135.69 C 146.26,135.62 146.27,135.54 146.25,135.47 C 146.23,135.4 146.21,135.32 146.19,135.25 C 146.11,134.96 146.03,134.67 145.97,134.38 C 145.86,133.88 145.76,133.11 145.78,132.59 C 145.8,132.15 146.01,131.27 146.09,130.84 C 146.15,130.55 146.2,130.24 146.16,129.94 C 146.14,129.79 146.1,129.64 146.03,129.5 C 146.0,129.43 145.95,129.37 145.91,129.31 C 145.87,129.27 145.76,129.2 145.78,129.13 C 145.79,129.08 145.83,129.07 145.88,129.06 C 145.91,129.05 145.96,129.04 146.0,129.03 C 146.08,129.02 146.14,129.0 146.22,128.97 C 146.38,128.9 146.5,128.83 146.59,128.69 C 146.81,128.38 146.76,128.08 146.75,127.75 C 146.75,127.59 146.74,127.43 146.66,127.28 C 146.57,127.13 146.46,126.99 146.31,126.91 C 146.17,126.82 146.01,126.79 145.84,126.78 C 145.82,126.78 145.65,126.79 145.63,126.78 C 145.56,126.75 145.55,126.62 145.56,126.56 C 145.58,126.48 145.69,126.48 145.75,126.47 C 145.82,126.45 145.9,126.43 145.97,126.41 C 146.11,126.35 146.25,126.27 146.38,126.19 C 146.63,126.02 146.81,125.82 146.97,125.56 C 147.0,125.51 147.04,125.4 147.13,125.41 C 147.17,125.41 147.25,125.51 147.28,125.53 C 147.4,125.62 147.53,125.71 147.66,125.78 C 147.92,125.93 148.18,126.03 148.47,126.13 C 149.63,126.49 150.92,126.33 151.94,125.66 C 154.07,124.26 154.4,121.25 152.63,119.41 C 151.73,118.48 150.54,118.07 149.38,118.16 z M 149.59,120.28 C 149.72,120.27 149.84,120.29 149.97,120.31 C 150.22,120.35 150.47,120.43 150.69,120.56 C 150.91,120.69 151.1,120.86 151.25,121.06 C 151.4,121.27 151.53,121.5 151.59,121.75 C 151.66,122.0 151.66,122.25 151.63,122.5 C 151.59,122.75 151.5,123.0 151.38,123.22 C 151.25,123.44 151.08,123.63 150.88,123.78 C 150.67,123.93 150.43,124.06 150.19,124.13 C 149.94,124.19 149.69,124.19 149.44,124.16 C 149.18,124.12 148.94,124.04 148.72,123.91 C 148.5,123.78 148.28,123.61 148.13,123.41 C 147.97,123.2 147.88,122.97 147.81,122.72 C 147.75,122.47 147.71,122.22 147.75,121.97 C 147.79,121.72 147.87,121.47 148.0,121.25 C 148.13,121.03 148.33,120.84 148.53,120.69 C 148.73,120.53 148.97,120.41 149.22,120.34 C 149.34,120.31 149.47,120.29 149.59,120.28 z"
		 />
		 <path style="fill:#f00;stroke:none;"
		 d="M 143.95,174.21 C 146.28,174.21 148.6,174.21 150.93,174.21 C 152.09,174.21 153.25,174.21 154.41,174.21 C 154.73,174.21 155.05,174.21 155.37,174.21 C 155.53,174.21 155.69,174.21 155.85,174.21 C 155.98,174.21 156.11,174.19 156.24,174.28 C 156.38,174.38 156.46,174.56 156.5,174.71 C 156.53,174.81 156.55,174.9 156.56,175.0 C 156.56,175.02 156.56,175.05 156.56,175.07 C 156.56,175.08 156.56,175.09 156.56,175.11 C 156.56,175.11 156.56,175.11 156.56,175.11 C 156.56,175.11 156.56,175.11 156.56,175.1 C 156.56,175.08 156.56,175.06 156.55,175.04 C 156.5,174.82 156.24,174.71 156.04,174.71 C 153.72,174.71 151.39,174.71 149.07,174.71 C 147.91,174.71 146.74,174.71 145.58,174.71 C 145.26,174.71 144.94,174.71 144.62,174.71 C 144.46,174.71 144.3,174.71 144.15,174.71 C 144.01,174.71 143.89,174.7 143.75,174.74 C 143.64,174.78 143.56,174.83 143.49,174.93 C 143.46,174.98 143.45,175.02 143.44,175.06 C 143.44,175.07 143.44,175.08 143.43,175.1 C 143.43,175.1 143.43,175.11 143.43,175.11 C 143.43,175.13 143.43,175.1 143.43,175.09 C 143.43,175.04 143.44,174.99 143.44,174.94 C 143.47,174.7 143.61,174.21 143.95,174.21 z M 162.41,178.8 C 161.84,178.68 161.26,178.57 160.67,178.47 C 160.07,178.37 159.45,178.27 158.83,178.21 C 158.12,178.14 157.4,178.1 156.67,178.08 C 155.94,178.06 155.2,178.06 154.46,178.06 C 151.48,178.06 148.5,178.06 145.52,178.06 C 144.78,178.06 144.05,178.06 143.31,178.08 C 142.59,178.1 141.87,178.14 141.16,178.21 C 140.53,178.27 139.92,178.37 139.31,178.47 C 138.73,178.57 138.15,178.68 137.57,178.8 C 138.15,178.49 138.73,178.18 139.31,177.91 C 139.92,177.63 140.53,177.38 141.16,177.2 C 141.87,177.01 142.59,176.91 143.31,176.86 C 144.05,176.8 144.78,176.8 145.52,176.8 C 148.5,176.8 151.48,176.8 154.46,176.8 C 155.2,176.8 155.94,176.8 156.67,176.86 C 157.4,176.91 158.12,177.01 158.83,177.2 C 159.45,177.38 160.07,177.63 160.67,177.91 C 161.26,178.18 161.84,178.49 162.41,178.8 z M 144.57,129.16 C 144.58,129.13 144.73,129.21 144.88,129.38 C 145.09,129.63 145.31,130.08 145.35,130.48 C 145.41,131.19 144.87,131.71 144.76,132.06 C 144.74,132.14 144.74,132.21 144.74,132.31 C 144.76,132.46 144.79,132.67 144.82,132.88 C 144.97,133.81 145.03,134.68 145.05,135.41 C 145.07,135.88 145.07,136.29 145.03,137.08 C 145.03,137.19 145.02,137.31 145.01,137.31 C 145.0,137.31 144.97,137.2 144.95,137.09 C 144.78,136.27 144.71,135.83 144.63,135.31 C 144.54,134.77 144.45,134.15 144.34,133.47 C 144.24,132.92 144.13,132.34 144.15,131.98 C 144.17,131.79 144.23,131.66 144.37,131.47 C 144.52,131.29 144.75,131.05 144.85,130.68 C 144.94,130.3 144.89,129.8 144.77,129.5 C 144.69,129.29 144.57,129.18 144.57,129.16 z M 145.96,124.93 C 145.85,125.22 145.77,125.37 145.66,125.52 C 145.54,125.68 145.39,125.84 145.19,125.95 C 144.73,126.19 144.03,126.16 143.62,125.83 C 143.34,125.6 143.19,125.22 143.17,124.87 C 143.14,124.55 143.21,124.24 143.36,123.95 C 143.53,123.59 143.81,123.25 144.09,122.96 C 144.22,122.82 144.36,122.69 144.5,122.57 C 144.62,122.46 144.75,122.35 144.86,122.21 C 144.94,122.1 145.01,121.97 145.05,121.85 C 145.11,121.69 145.14,121.54 145.1,121.31 C 145.06,121.04 144.93,120.66 144.99,120.7 C 145.03,120.73 145.12,120.89 145.18,121.02 C 145.24,121.14 145.27,121.23 145.29,121.34 C 145.33,121.5 145.34,121.69 145.3,121.9 C 145.26,122.1 145.16,122.31 145.05,122.47 C 144.96,122.61 144.86,122.72 144.76,122.82 C 144.56,123.03 144.38,123.25 144.25,123.48 C 144.13,123.71 144.07,123.94 144.08,124.21 C 144.09,124.39 144.13,124.59 144.25,124.75 C 144.4,124.93 144.65,125.05 144.87,125.1 C 145.05,125.13 145.21,125.11 145.37,125.06 C 145.5,125.02 145.63,124.95 145.77,124.82 C 145.9,124.7 146.04,124.54 146.07,124.56 C 146.09,124.59 146.02,124.78 145.96,124.93 z M 145.93,128.1 C 145.93,128.2 145.81,128.26 145.74,128.3 C 145.56,128.38 145.37,128.42 145.18,128.45 C 144.89,128.5 144.6,128.52 144.3,128.52 C 144.01,128.52 143.72,128.5 143.43,128.45 C 143.24,128.42 143.05,128.38 142.87,128.3 C 142.8,128.26 142.68,128.2 142.68,128.1 C 142.68,128.0 142.8,127.94 142.87,127.91 C 143.05,127.82 143.24,127.78 143.43,127.75 C 143.72,127.7 144.01,127.69 144.3,127.69 C 144.6,127.69 144.89,127.7 145.18,127.75 C 145.37,127.78 145.56,127.82 145.74,127.91 C 145.81,127.94 145.93,128.0 145.93,128.1 z M 154.57,145.81 C 154.5,145.51 154.38,145.24 154.23,144.96 C 154.11,144.74 153.97,144.53 153.74,144.39 C 153.55,144.27 153.31,144.2 153.07,144.14 C 152.64,144.03 152.22,143.96 151.86,143.9 C 151.34,143.82 150.93,143.75 150.53,143.68 C 150.3,143.64 150.07,143.6 149.83,143.46 C 149.71,143.39 149.59,143.3 149.51,143.18 C 149.36,142.97 149.36,142.68 149.35,142.4 C 149.34,142.27 149.33,142.14 149.34,142.0 C 149.44,142.34 149.63,142.7 149.88,142.9 C 150.13,143.1 150.44,143.15 150.81,143.22 C 151.39,143.31 152.12,143.44 152.68,143.59 C 153.02,143.69 153.3,143.79 153.57,143.94 C 153.77,144.05 153.96,144.18 154.1,144.36 C 154.21,144.52 154.28,144.72 154.35,144.92 C 154.45,145.22 154.53,145.51 154.57,145.81 z M 152.53,151.86 C 152.72,151.64 152.94,151.41 153.11,150.37 C 153.37,148.76 153.5,145.19 153.61,144.51 C 153.7,143.89 153.77,145.75 153.86,147.34 C 154.29,154.54 155.25,156.28 154.79,158.43 C 154.64,159.1 154.36,159.8 154.54,160.23 C 154.59,160.37 154.7,160.48 154.96,160.72 C 155.24,160.99 155.71,161.42 155.85,161.76 C 155.98,162.03 155.88,162.24 155.74,162.38 C 155.35,162.72 154.58,162.53 153.93,162.57 C 152.62,162.65 151.75,163.63 150.94,164.47 C 151.21,163.97 151.54,163.51 151.96,163.11 C 152.35,162.73 152.82,162.4 153.62,162.29 C 154.22,162.21 155.01,162.25 154.98,161.9 C 154.97,161.74 154.79,161.49 154.64,161.26 C 153.88,160.05 154.07,159.13 154.12,158.17 C 154.22,156.25 153.79,154.18 153.7,152.32 C 153.68,151.91 153.68,151.52 153.63,150.94 C 153.62,150.77 153.6,150.58 153.57,150.5 C 153.52,150.32 153.45,150.64 153.3,150.94 C 153.12,151.31 152.82,151.64 152.53,151.86 z M 144.87,171.74 C 145.02,171.5 145.12,171.16 145.24,170.81 C 145.56,169.92 145.98,169.04 146.65,168.27 C 147.36,167.44 148.34,166.74 149.33,166.24 C 149.83,165.99 150.32,165.79 150.89,165.64 C 151.03,165.6 151.18,165.57 151.24,165.53 C 151.53,165.34 149.61,165.08 149.37,164.5 C 149.22,164.13 149.73,163.64 150.12,163.17 C 151.16,161.92 151.33,160.82 151.46,159.68 C 151.73,157.36 151.82,154.85 152.02,151.84 C 152.26,148.45 152.64,144.44 152.69,144.39 C 152.74,144.35 152.62,148.31 152.52,151.58 C 152.43,154.31 152.34,156.56 152.14,158.7 C 152.01,160.1 151.83,161.45 151.18,162.92 C 150.95,163.45 150.65,164.0 150.9,164.44 C 151.21,165.0 152.34,165.41 152.26,165.74 C 152.22,165.9 151.89,166.04 151.55,166.17 C 150.84,166.44 150.09,166.62 149.45,166.89 C 149.06,167.05 148.71,167.25 148.35,167.48 C 147.87,167.79 147.38,168.18 146.93,168.58 C 146.52,168.96 146.15,169.35 145.87,169.78 C 145.38,170.52 145.16,171.35 144.87,171.74 z M 145.34,163.51 C 145.38,163.11 145.4,162.71 145.42,162.31 C 145.46,161.65 145.48,161.02 145.48,160.34 C 145.47,158.92 145.35,157.29 145.53,155.77 C 145.69,154.52 146.06,153.34 146.4,152.39 C 146.69,151.6 146.96,150.97 147.55,150.24 C 148.01,149.67 148.66,149.04 149.29,148.51 C 149.93,147.97 150.56,147.53 151.01,146.93 C 151.32,146.53 151.54,146.05 151.68,145.55 C 151.79,145.13 151.84,144.69 151.82,144.25 C 152.01,145.2 152.03,146.22 151.71,147.14 C 151.47,147.85 151.02,148.51 150.44,149.08 C 149.82,149.68 149.05,150.18 148.47,150.7 C 147.6,151.48 147.14,152.3 146.76,153.29 C 146.38,154.29 146.09,155.45 145.95,156.76 C 145.84,157.7 145.81,158.73 145.78,159.68 C 145.74,161.07 145.69,162.31 145.34,163.51 z M 151.44,143.96 C 151.26,144.57 151.06,145.42 150.66,145.96 C 150.41,146.29 150.07,146.5 149.62,146.7 C 149.32,146.83 148.97,146.96 148.62,147.09 C 148.1,147.28 147.57,147.47 147.21,147.71 C 146.94,147.89 146.76,148.1 146.6,148.32 C 146.21,148.85 145.96,149.39 145.79,149.98 C 145.62,150.54 145.52,151.16 145.51,151.73 C 145.51,152.07 145.54,152.4 145.69,152.87 C 145.75,153.03 145.82,153.22 146.07,153.35 C 145.81,153.3 145.61,153.16 145.46,152.72 C 145.37,152.48 145.3,152.17 145.3,151.78 C 145.3,151.62 145.31,151.45 145.32,151.28 C 145.44,149.69 145.7,148.73 146.0,148.09 C 146.37,147.32 146.8,147.01 147.59,146.69 C 148.41,146.36 149.63,146.02 150.44,145.26 C 150.82,144.89 151.12,144.44 151.44,143.96 z M 145.19,170.13 C 145.19,170.09 145.19,170.06 145.19,170.02 C 145.11,168.67 144.97,167.02 145.29,165.83 C 145.52,164.97 145.99,164.35 146.52,163.58 C 147.02,162.85 147.57,161.99 148.01,161.21 C 148.37,160.57 148.66,159.98 148.83,159.29 C 149.04,158.4 149.04,157.33 149.1,156.27 C 149.16,155.09 149.29,153.93 149.69,153.13 C 150.07,152.34 150.72,151.9 151.1,150.91 C 151.28,150.46 151.39,149.89 151.51,148.91 C 151.62,149.91 151.67,150.95 151.47,151.76 C 151.4,152.04 151.31,152.29 151.12,152.52 C 150.8,152.92 150.22,153.24 149.93,153.82 C 149.58,154.52 149.65,155.6 149.73,156.53 C 149.87,158.45 150.02,159.8 149.47,161.02 C 149.08,161.9 148.33,162.71 147.61,163.56 C 147.08,164.2 146.56,164.86 146.18,165.59 C 145.82,166.3 145.6,167.08 145.44,167.86 C 145.29,168.58 145.19,169.3 145.19,170.03 C 145.19,170.06 145.19,170.1 145.19,170.13 z M 144.98,173.24 C 145.4,173.01 145.73,172.89 146.06,172.78 C 146.84,172.53 147.57,172.35 148.03,172.16 C 148.28,172.06 148.44,171.95 148.54,171.83 C 148.59,171.77 148.63,171.7 148.66,171.63 C 148.78,171.34 148.85,170.96 148.94,170.31 C 149.02,169.72 149.11,168.91 149.27,167.9 C 149.49,169.47 149.47,170.39 149.39,171.78 C 149.37,172.0 149.36,172.22 149.34,172.38 C 149.32,172.55 149.29,172.63 149.2,172.7 C 149.13,172.74 149.03,172.78 148.91,172.81 C 148.78,172.85 148.62,172.87 148.46,172.88 C 148.21,172.88 147.97,172.85 147.69,172.85 C 146.81,172.84 145.62,173.07 144.98,173.24 z M 155.37,173.12 C 155.27,173.08 155.17,173.04 155.06,173.0 C 154.92,172.95 154.78,172.88 154.53,172.85 C 154.15,172.81 153.54,172.85 153.2,172.84 C 153.07,172.84 152.98,172.83 152.9,172.79 C 152.82,172.75 152.77,172.68 152.73,172.6 C 152.66,172.46 152.66,172.3 152.67,172.14 C 152.7,171.82 152.81,171.5 152.9,171.18 C 153.77,168.26 153.78,165.41 153.93,162.59 C 154.07,163.6 154.17,164.5 154.24,165.54 C 154.31,166.69 154.34,168.03 154.06,169.81 C 153.95,170.53 153.79,171.32 153.82,171.78 C 153.83,171.89 153.85,171.98 153.91,172.07 C 153.96,172.13 154.03,172.19 154.13,172.24 C 154.27,172.31 154.46,172.36 154.63,172.44 C 154.8,172.53 154.93,172.65 155.06,172.77 C 155.17,172.89 155.28,173.02 155.37,173.12 z M 147.43,140.77 C 147.38,140.9 147.32,141.06 147.26,141.22 C 147.09,141.71 147.03,142.14 147.03,142.61 C 147.03,143.42 147.19,144.35 147.07,145.1 C 146.99,145.64 146.76,146.08 146.37,146.37 C 146.15,146.54 145.87,146.66 145.54,146.69 C 145.34,146.71 145.11,146.68 144.92,146.59 C 144.82,146.53 144.72,146.45 144.65,146.36 C 144.68,146.37 144.7,146.39 144.73,146.4 C 144.83,146.45 144.94,146.48 145.05,146.48 C 145.25,146.49 145.46,146.44 145.63,146.34 C 145.97,146.16 146.18,145.85 146.28,145.54 C 146.33,145.36 146.36,145.19 146.37,144.96 C 146.39,144.56 146.36,144.0 146.37,143.56 C 146.38,142.97 146.44,142.59 146.53,142.24 C 146.57,142.1 146.61,141.96 146.67,141.81 C 146.74,141.65 146.84,141.47 146.95,141.31 C 147.09,141.11 147.25,140.93 147.43,140.77 z M 147.1,140.5 C 146.84,140.77 146.74,140.92 146.67,141.06 C 146.36,141.64 146.39,142.03 146.28,142.4 C 146.21,142.63 146.08,142.85 145.93,143.03 C 145.58,143.44 145.06,143.63 144.51,143.58 C 144.22,143.55 143.92,143.45 143.7,143.23 C 143.53,143.06 143.4,142.82 143.34,142.56 C 143.26,142.23 143.27,141.86 143.33,141.55 C 143.42,141.11 143.62,140.79 143.81,140.45 C 143.83,140.41 143.85,140.37 143.87,140.34 C 143.74,140.62 143.64,140.91 143.63,141.25 C 143.62,141.44 143.64,141.63 143.7,141.8 C 143.79,142.05 143.96,142.24 144.18,142.38 C 144.42,142.52 144.74,142.59 145.01,142.55 C 145.23,142.52 145.42,142.43 145.58,142.28 C 145.91,141.98 146.09,141.46 146.33,141.12 C 146.53,140.83 146.78,140.68 147.1,140.5 z M 147.14,146.34 C 147.39,146.14 147.55,145.94 147.69,145.66 C 147.78,145.48 147.86,145.27 147.97,145.07 C 148.15,144.78 148.4,144.54 148.63,144.37 C 148.74,144.29 148.85,144.22 148.98,144.17 C 149.22,144.05 149.53,143.96 149.83,143.91 C 149.61,144.04 149.37,144.17 149.17,144.32 C 148.9,144.52 148.71,144.74 148.56,144.99 C 148.44,145.21 148.34,145.44 148.14,145.66 C 147.89,145.94 147.5,146.19 147.14,146.34 z M 150.1,138.89 C 149.89,138.99 149.62,139.0 149.4,138.9 C 149.16,138.8 149.1,138.7 149.21,138.59 C 149.36,138.46 149.85,138.37 150.08,138.43 C 150.26,138.47 150.28,138.5 150.28,138.64 C 150.28,138.76 150.25,138.81 150.1,138.89 z M 143.88,135.63 C 143.88,135.92 143.91,136.21 143.94,136.51 C 143.96,136.64 143.98,136.78 144.0,136.92 C 144.03,137.11 144.08,137.3 144.13,137.49 C 144.18,137.68 144.24,137.87 144.31,138.06 C 144.37,138.26 144.44,138.47 144.5,138.67 C 144.58,138.95 144.65,139.23 144.73,139.51 C 144.81,139.76 144.89,140.03 145.09,140.2 C 145.19,140.28 145.32,140.35 145.45,140.35 C 145.67,140.35 145.87,140.15 145.99,139.94 C 146.2,139.61 146.23,139.25 146.23,138.89 C 146.23,138.56 146.2,138.23 146.15,137.9 C 146.06,137.24 145.9,136.58 145.79,135.91 C 145.7,135.36 145.64,134.81 145.59,134.25 C 145.66,134.58 145.74,134.9 145.82,135.22 C 145.89,135.51 145.95,135.79 146.02,136.08 C 146.1,136.45 146.19,136.83 146.3,137.2 C 146.45,137.72 146.66,138.22 146.67,138.74 C 146.68,138.93 146.65,139.13 146.61,139.32 C 146.53,139.7 146.39,140.05 146.23,140.41 C 146.07,140.78 145.9,141.15 145.57,141.41 C 145.45,141.52 145.3,141.6 145.15,141.6 C 144.98,141.6 144.82,141.48 144.69,141.34 C 144.54,141.17 144.45,140.97 144.38,140.77 C 144.28,140.46 144.23,140.14 144.21,139.82 C 144.19,139.5 144.21,139.18 144.21,138.86 C 144.21,138.64 144.2,138.43 144.16,138.22 C 144.13,138.05 144.08,137.88 144.04,137.71 C 144.0,137.55 143.97,137.39 143.94,137.22 C 143.91,136.97 143.9,136.72 143.89,136.46 C 143.88,136.18 143.87,135.91 143.88,135.63 z M 144.64,119.89 C 144.76,119.83 144.88,119.87 144.98,119.92 C 145.14,119.98 145.26,120.05 145.38,120.13 C 145.51,120.22 145.64,120.32 145.76,120.42 C 145.83,120.48 145.89,120.54 145.96,120.61 C 146.15,120.82 146.31,121.07 146.38,121.34 C 146.43,121.58 146.41,121.84 146.36,122.09 C 146.32,122.32 146.26,122.54 146.16,122.74 C 146.06,122.95 145.92,123.14 145.76,123.32 C 145.67,123.44 145.57,123.55 145.48,123.67 C 145.42,123.73 145.38,123.8 145.32,123.87 C 145.27,123.95 145.21,124.03 145.23,124.12 C 145.24,124.18 145.28,124.26 145.34,124.27 C 145.37,124.28 145.41,124.27 145.44,124.25 C 145.52,124.22 145.58,124.16 145.63,124.09 C 145.68,124.01 145.73,123.92 145.79,123.85 C 145.83,123.81 145.86,123.77 145.9,123.73 C 146.06,123.6 146.25,123.5 146.46,123.5 C 146.59,123.5 146.72,123.54 146.82,123.61 C 147.01,123.75 147.08,124.02 147.11,124.28 C 147.15,124.63 147.11,124.97 146.97,125.27 C 146.89,125.44 146.78,125.61 146.65,125.75 C 146.53,125.89 146.39,126.0 146.24,126.1 C 146.32,126.04 146.39,125.97 146.45,125.89 C 146.61,125.69 146.72,125.45 146.77,125.21 C 146.81,125.01 146.82,124.82 146.79,124.59 C 146.77,124.31 146.7,123.97 146.47,123.92 C 146.47,123.92 146.46,123.92 146.46,123.92 C 146.44,123.92 146.42,123.92 146.41,123.92 C 146.31,123.92 146.22,123.94 146.15,123.99 C 146.06,124.05 146.01,124.15 145.96,124.23 C 145.91,124.32 145.85,124.39 145.77,124.46 C 145.65,124.56 145.49,124.64 145.34,124.63 C 145.21,124.62 145.09,124.56 145.01,124.47 C 144.91,124.37 144.87,124.23 144.87,124.11 C 144.88,123.92 144.98,123.74 145.1,123.57 C 145.32,123.27 145.6,123.02 145.78,122.71 C 145.94,122.43 146.03,122.1 146.02,121.77 C 146.02,121.45 145.91,121.12 145.76,120.85 C 145.63,120.61 145.47,120.41 145.23,120.2 C 145.19,120.16 145.15,120.13 145.1,120.09 C 144.96,119.97 144.8,119.86 144.64,119.89 z M 159.35,151.37 C 159.11,151.73 158.64,152.26 158.27,152.51 C 158.05,152.66 157.82,152.75 157.55,152.76 C 157.36,152.77 157.34,152.76 157.22,152.92 C 157.15,153.01 157.08,153.1 157.01,153.19 C 156.81,153.45 156.72,153.55 156.43,153.32 C 156.27,153.2 156.13,153.06 155.99,152.91 C 155.87,152.78 155.75,152.64 155.62,152.5 C 155.61,152.48 155.58,152.43 155.58,152.46 C 155.58,152.47 155.58,152.48 155.58,152.49 C 155.58,152.5 155.58,152.52 155.58,152.54 C 155.58,152.57 155.58,152.6 155.59,152.64 C 155.62,153.4 155.68,154.16 155.71,154.93 C 155.75,155.9 155.84,156.87 155.94,157.84 C 155.95,157.9 155.95,157.97 155.96,158.03 C 155.96,158.06 155.97,158.09 155.97,158.12 C 155.97,158.14 155.96,158.1 155.96,158.09 C 155.96,158.08 155.96,158.07 155.95,158.05 C 155.93,157.95 155.91,157.84 155.89,157.74 C 155.85,157.52 155.81,157.31 155.78,157.1 C 155.7,156.67 155.63,156.25 155.57,155.82 C 155.44,154.97 155.33,154.11 155.24,153.25 C 155.06,151.52 154.97,149.79 154.95,148.04 C 154.95,147.83 154.95,147.61 154.95,147.39 C 154.95,147.37 154.96,147.41 154.96,147.42 C 154.96,147.43 154.97,147.45 154.97,147.46 C 154.98,147.49 154.98,147.51 154.99,147.54 C 155.0,147.59 155.02,147.64 155.03,147.7 C 155.06,147.8 155.08,147.91 155.11,148.01 C 155.21,148.44 155.3,148.86 155.36,149.29 C 155.37,149.31 155.37,149.28 155.38,149.28 C 155.38,149.27 155.38,149.27 155.39,149.26 C 155.4,149.25 155.4,149.24 155.41,149.23 C 155.43,149.21 155.44,149.19 155.46,149.16 C 155.49,149.12 155.52,149.07 155.55,149.03 C 155.61,148.94 155.68,148.85 155.74,148.76 C 155.86,148.58 155.99,148.41 156.11,148.23 C 156.24,148.05 156.36,147.87 156.49,147.69 C 156.52,147.65 156.55,147.61 156.58,147.56 C 156.59,147.55 156.57,147.57 156.57,147.58 C 156.57,147.58 156.56,147.59 156.56,147.6 C 156.56,147.61 156.55,147.62 156.54,147.63 C 156.53,147.66 156.52,147.68 156.51,147.71 C 156.46,147.8 156.41,147.9 156.36,148.0 C 156.14,148.45 155.92,148.91 155.69,149.37 C 155.64,149.48 155.58,149.59 155.53,149.71 C 155.5,149.76 155.47,149.82 155.44,149.88 C 155.43,149.9 155.44,149.91 155.45,149.92 C 155.45,149.94 155.45,149.96 155.45,149.97 C 155.45,150.0 155.46,150.03 155.46,150.07 C 155.48,150.3 155.5,150.53 155.51,150.76 C 155.53,151.07 155.53,151.39 155.54,151.71 C 155.55,151.77 155.55,151.83 155.55,151.89 C 155.55,151.9 155.55,151.9 155.55,151.91 C 155.55,151.93 155.57,151.93 155.58,151.94 C 155.61,151.96 155.63,151.98 155.66,152.0 C 155.71,152.04 155.76,152.08 155.81,152.12 C 156.01,152.27 156.21,152.43 156.42,152.57 C 156.5,152.62 156.57,152.67 156.66,152.71 C 156.72,152.73 156.77,152.67 156.81,152.64 C 156.97,152.48 157.18,152.18 157.29,151.98 C 157.4,151.77 157.5,151.49 157.5,151.25 C 157.5,151.07 157.48,150.91 157.55,150.74 C 157.74,150.25 158.29,150.13 158.71,150.05 C 158.9,150.01 159.09,149.98 159.28,149.9 C 159.38,149.86 159.48,149.82 159.58,149.77 C 159.58,149.76 159.58,149.76 159.59,149.76 C 159.59,149.76 159.58,149.77 159.58,149.77 C 159.58,149.77 159.57,149.78 159.57,149.78 C 159.56,149.79 159.55,149.8 159.54,149.81 C 159.52,149.84 159.51,149.86 159.49,149.88 C 159.45,149.92 159.41,149.96 159.37,149.99 C 159.03,150.31 158.6,150.41 158.22,150.62 C 157.76,150.87 157.91,151.1 157.88,151.51 C 157.87,151.65 157.83,151.79 157.77,151.92 C 157.73,152.03 157.68,152.12 157.62,152.22 C 157.62,152.22 157.61,152.23 157.61,152.24 C 157.61,152.24 157.59,152.25 157.6,152.26 C 157.61,152.26 157.61,152.26 157.62,152.26 C 157.63,152.26 157.64,152.26 157.65,152.27 C 157.68,152.27 157.71,152.27 157.74,152.27 C 157.98,152.28 158.18,152.24 158.39,152.14 C 158.79,151.96 159.09,151.72 159.35,151.37 z M 149.36,141.44 C 149.71,141.53 150.09,141.57 150.45,141.54 C 150.66,141.52 150.87,141.48 151.08,141.43 C 151.13,141.41 151.18,141.4 151.22,141.37 C 151.25,141.34 151.27,141.31 151.29,141.28 C 151.34,141.19 151.38,141.1 151.42,141.01 C 151.47,140.85 151.51,140.69 151.55,140.53 C 151.59,140.39 151.63,140.25 151.69,140.11 C 151.77,139.92 151.86,139.74 151.96,139.56 C 152.05,139.41 152.14,139.27 152.21,139.11 C 152.24,139.06 152.26,139.0 152.26,138.94 C 152.26,138.92 152.25,138.9 152.24,138.89 C 152.23,138.88 152.21,138.88 152.19,138.87 C 152.12,138.87 152.05,138.9 151.99,138.92 C 151.91,138.96 151.83,138.99 151.74,139.0 C 151.69,139.01 151.63,139.01 151.57,139.0 C 151.49,138.98 151.42,138.95 151.34,138.92 C 151.28,138.9 151.22,138.88 151.14,138.87 C 151.13,138.87 151.12,138.87 151.11,138.88 C 151.1,138.88 151.1,138.91 151.09,138.93 C 151.09,138.97 151.08,139.0 151.07,139.03 C 151.05,139.1 151.04,139.18 151.03,139.26 C 151.02,139.35 151.01,139.44 151.03,139.53 C 151.04,139.6 151.08,139.67 151.11,139.74 C 151.15,139.83 151.2,139.92 151.23,140.01 C 151.24,140.05 151.26,140.08 151.26,140.13 C 151.26,140.15 151.26,140.17 151.25,140.19 C 151.24,140.2 151.22,140.2 151.21,140.2 C 151.18,140.21 151.15,140.21 151.12,140.21 C 151.02,140.21 150.93,140.21 150.83,140.18 C 150.75,140.16 150.67,140.12 150.63,140.06 C 150.57,139.99 150.58,139.88 150.59,139.78 C 150.59,139.58 150.59,139.41 150.59,139.24 C 150.6,139.09 150.62,138.94 150.62,138.79 C 150.62,138.74 150.63,138.7 150.64,138.66 C 150.65,138.64 150.66,138.62 150.68,138.61 C 150.69,138.59 150.71,138.58 150.73,138.57 C 150.82,138.52 150.91,138.47 151.0,138.43 C 151.09,138.38 151.18,138.35 151.28,138.31 C 151.37,138.27 151.46,138.24 151.55,138.23 C 151.61,138.22 151.67,138.22 151.73,138.23 C 151.81,138.25 151.88,138.27 151.96,138.29 C 152.06,138.32 152.16,138.36 152.28,138.38 C 152.34,138.39 152.39,138.4 152.43,138.37 C 152.45,138.36 152.47,138.32 152.48,138.29 C 152.5,138.23 152.51,138.17 152.51,138.11 C 152.5,138.01 152.47,137.91 152.44,137.81 C 152.38,137.63 152.3,137.45 152.19,137.3 C 152.1,137.18 152.0,137.08 151.89,136.99 C 151.71,136.85 151.52,136.74 151.3,136.68 C 151.11,136.63 150.9,136.63 150.69,136.63 C 150.36,136.63 150.03,136.63 149.71,136.7 C 149.38,136.78 149.05,136.93 148.77,137.14 C 148.53,137.32 148.32,137.54 148.17,137.8 C 148.1,137.93 148.04,138.06 148.03,138.2 C 148.03,138.26 148.04,138.32 148.05,138.39 C 148.07,138.48 148.08,138.57 148.08,138.67 C 148.07,138.74 148.06,138.81 148.03,138.87 C 148.0,138.96 147.96,139.04 147.93,139.12 C 147.89,139.19 147.87,139.27 147.88,139.39 C 147.89,139.48 147.92,139.6 147.95,139.58 C 147.96,139.57 147.98,139.53 147.99,139.49 C 148.01,139.42 148.02,139.37 148.03,139.31 C 148.05,139.24 148.06,139.16 148.09,139.08 C 148.13,138.99 148.19,138.91 148.23,138.82 C 148.24,138.8 148.25,138.78 148.26,138.75 C 148.26,138.71 148.25,138.66 148.27,138.62 C 148.28,138.58 148.32,138.55 148.35,138.52 C 148.45,138.44 148.54,138.36 148.63,138.28 C 148.9,138.05 149.21,137.85 149.51,137.66 C 149.72,137.51 149.94,137.37 150.16,137.23 C 150.21,137.2 150.27,137.17 150.32,137.15 C 150.39,137.12 150.46,137.11 150.53,137.1 C 150.61,137.1 150.69,137.11 150.77,137.14 C 150.88,137.17 150.97,137.21 151.05,137.29 C 151.1,137.33 151.14,137.38 151.13,137.43 C 151.13,137.47 151.1,137.51 151.06,137.53 C 151.0,137.57 150.93,137.56 150.86,137.55 C 150.76,137.54 150.67,137.52 150.59,137.53 C 150.51,137.54 150.43,137.57 150.35,137.61 C 150.25,137.67 150.15,137.74 150.06,137.81 C 149.93,137.91 149.81,138.01 149.68,138.12 C 149.49,138.27 149.3,138.44 149.12,138.61 C 149.02,138.7 148.92,138.79 148.83,138.9 C 148.77,138.96 148.72,139.03 148.69,139.11 C 148.65,139.2 148.65,139.29 148.65,139.38 C 148.66,139.63 148.72,139.86 148.78,140.09 C 148.86,140.42 148.96,140.75 148.97,141.09 C 149.0,141.55 148.89,142.01 148.71,142.45 C 148.53,142.89 148.28,143.3 147.99,143.69 C 147.85,143.87 147.71,144.04 147.55,144.21 C 147.69,143.82 147.8,143.41 147.9,143.01 C 148.02,142.56 148.13,142.1 148.14,141.62 C 148.16,141.2 148.1,140.77 147.94,140.44 C 147.85,140.23 147.72,140.06 147.7,139.74 C 147.69,139.59 147.7,139.4 147.65,139.36 C 147.59,139.31 147.45,139.45 147.38,139.48 C 147.23,139.56 147.42,139.12 147.5,138.81 C 147.52,138.73 147.53,138.66 147.51,138.58 C 147.47,138.48 147.36,138.37 147.13,138.2 C 146.98,138.09 146.78,137.95 146.67,137.85 C 146.43,137.63 146.59,137.57 146.81,137.55 C 147.29,137.5 148.07,137.6 148.0,137.44 C 147.96,137.32 147.44,137.05 147.13,136.82 C 146.99,136.71 146.89,136.61 146.86,136.55 C 146.81,136.4 147.15,136.44 147.65,136.6 C 147.96,136.69 148.33,136.84 148.44,136.77 C 148.57,136.7 148.32,136.32 148.12,135.99 C 147.91,135.63 147.75,135.32 147.8,135.22 C 147.87,135.08 148.38,135.36 148.79,135.69 C 149.03,135.88 149.23,136.08 149.35,136.13 C 149.5,136.18 149.5,135.96 149.55,135.67 C 149.63,135.24 149.83,134.63 150.02,134.63 C 150.03,134.63 150.03,134.63 150.03,134.63 C 150.03,134.63 150.04,134.63 150.04,134.63 C 150.24,134.63 150.43,135.24 150.59,135.59 C 150.7,135.83 150.78,135.95 150.91,135.92 C 151.01,135.9 151.13,135.79 151.33,135.63 C 151.69,135.35 152.32,134.94 152.37,135.12 C 152.4,135.24 152.14,135.65 151.95,135.98 C 151.78,136.28 151.66,136.52 151.84,136.56 C 151.99,136.59 152.34,136.49 152.63,136.43 C 153.07,136.32 153.34,136.32 153.31,136.45 C 153.3,136.51 153.23,136.6 153.13,136.69 C 152.91,136.88 152.52,137.09 152.47,137.23 C 152.4,137.4 152.9,137.43 153.3,137.53 C 153.47,137.57 153.63,137.63 153.48,137.83 C 153.41,137.92 153.27,138.05 153.18,138.13 C 153.05,138.26 153.03,138.3 153.04,138.38 C 153.04,138.44 153.05,138.52 153.06,138.61 C 153.08,138.92 153.03,139.24 152.93,139.48 C 152.89,139.6 152.83,139.69 152.77,139.78 C 152.72,139.86 152.66,139.94 152.61,140.03 C 152.5,140.21 152.4,140.45 152.29,140.65 C 152.12,140.98 151.91,141.23 151.75,141.43 C 151.56,141.67 151.42,141.84 150.96,141.99 C 150.55,142.12 149.9,142.23 149.36,141.44 z"
		 />

		<!-- Prism Reference -->
		<cam mingh:cam="--verb EditSelectAll --verb ZoomSelection --verb FileSave " /> 
	 </g>

</svg>
