<svg
   xmlns:xlink="http://www.w3.org/1999/xlink"
   xmlns:svg="http://www.w3.org/2000/svg"
   xmlns="http://www.w3.org/2000/svg"
   xmlns:mingh="http://www.minghworld.com"
   width="300px"
   height="300px" >
	
	 <g>
		
		<!-- Paths -->
		<path style="fill:none;stroke:#000;stroke-width:0.25px;"
		 d="M 150.0,129.91 C 148.19,129.91 146.6,131.08 146.09,132.81 C 145.58,134.55 146.26,136.43 147.78,137.41 C 147.87,137.47 147.92,137.58 147.84,137.66 C 147.73,137.78 147.6,137.93 147.5,138.06 C 147.19,138.47 146.93,138.89 146.69,139.34 C 146.44,139.79 146.23,140.28 146.03,140.75 C 145.84,141.22 145.67,141.69 145.53,142.19 C 145.45,142.5 145.37,142.81 145.31,143.13 C 145.29,143.26 145.13,143.31 145.03,143.22 C 143.79,142.06 142.27,141.27 140.63,140.84 C 140.54,140.82 140.44,140.88 140.44,140.97 C 140.33,142.66 140.62,144.33 141.34,145.88 C 141.4,146.0 141.33,146.14 141.19,146.13 C 140.87,146.08 140.54,146.08 140.22,146.06 C 139.7,146.04 139.2,146.02 138.69,146.06 C 138.18,146.1 137.66,146.19 137.16,146.28 C 136.65,146.37 136.17,146.49 135.69,146.66 C 135.21,146.83 134.73,147.06 134.34,147.38 C 133.96,147.69 133.65,148.09 133.5,148.56 C 133.35,149.03 133.34,149.55 133.47,150.03 C 133.59,150.52 133.83,150.99 134.13,151.41 C 134.42,151.83 134.74,152.19 135.09,152.56 C 135.45,152.93 135.83,153.29 136.22,153.63 C 136.61,153.96 137.04,154.28 137.47,154.56 C 137.74,154.74 138.0,154.91 138.28,155.06 C 138.4,155.13 138.4,155.31 138.28,155.38 C 136.79,156.2 135.53,157.38 134.63,158.81 C 134.58,158.89 134.64,158.97 134.72,159.0 C 136.3,159.62 138.0,159.86 139.69,159.66 C 139.83,159.64 139.9,159.78 139.84,159.91 C 139.71,160.19 139.58,160.51 139.47,160.81 C 139.29,161.29 139.15,161.78 139.03,162.28 C 138.91,162.78 138.82,163.27 138.75,163.78 C 138.68,164.29 138.64,164.8 138.66,165.31 C 138.67,165.82 138.72,166.31 138.91,166.78 C 139.09,167.25 139.41,167.68 139.81,167.97 C 140.21,168.26 140.69,168.41 141.19,168.44 C 141.69,168.47 142.2,168.4 142.69,168.25 C 143.18,168.1 143.63,167.91 144.09,167.69 C 144.56,167.47 145.03,167.21 145.47,166.94 C 145.91,166.67 146.32,166.38 146.72,166.06 C 146.97,165.86 147.21,165.66 147.44,165.44 C 147.54,165.34 147.72,165.39 147.75,165.53 C 148.07,167.2 148.83,168.72 149.91,170.03 C 149.96,170.1 150.04,170.1 150.09,170.03 C 151.17,168.72 151.93,167.2 152.25,165.53 C 152.28,165.39 152.46,165.34 152.56,165.44 C 152.79,165.66 153.03,165.86 153.28,166.06 C 153.68,166.38 154.09,166.67 154.53,166.94 C 154.97,167.21 155.41,167.47 155.88,167.69 C 156.34,167.91 156.82,168.1 157.31,168.25 C 157.8,168.4 158.31,168.47 158.81,168.44 C 159.31,168.41 159.79,168.26 160.19,167.97 C 160.59,167.68 160.91,167.25 161.09,166.78 C 161.28,166.31 161.33,165.82 161.34,165.31 C 161.36,164.8 161.32,164.29 161.25,163.78 C 161.18,163.27 161.09,162.78 160.97,162.28 C 160.85,161.78 160.71,161.29 160.53,160.81 C 160.42,160.51 160.29,160.19 160.16,159.91 C 160.1,159.78 160.17,159.64 160.31,159.66 C 162.0,159.86 163.7,159.62 165.28,159.0 C 165.36,158.97 165.42,158.89 165.38,158.81 C 164.47,157.38 163.21,156.2 161.72,155.38 C 161.6,155.31 161.6,155.13 161.72,155.06 C 162.0,154.91 162.26,154.74 162.53,154.56 C 162.96,154.28 163.39,153.96 163.78,153.63 C 164.17,153.29 164.55,152.93 164.91,152.56 C 165.26,152.19 165.59,151.83 165.88,151.41 C 166.17,150.99 166.41,150.52 166.53,150.03 C 166.66,149.55 166.65,149.03 166.5,148.56 C 166.35,148.09 166.04,147.69 165.66,147.38 C 165.27,147.06 164.79,146.83 164.31,146.66 C 163.83,146.49 163.35,146.37 162.84,146.28 C 162.34,146.19 161.82,146.1 161.31,146.06 C 160.8,146.02 160.3,146.04 159.78,146.06 C 159.46,146.08 159.13,146.08 158.81,146.13 C 158.67,146.14 158.6,146.0 158.66,145.88 C 159.38,144.33 159.67,142.66 159.56,140.97 C 159.56,140.88 159.46,140.82 159.38,140.84 C 157.73,141.27 156.21,142.06 154.97,143.22 C 154.87,143.31 154.71,143.26 154.69,143.13 C 154.63,142.81 154.55,142.5 154.47,142.19 C 154.33,141.69 154.16,141.22 153.97,140.75 C 153.77,140.28 153.56,139.79 153.31,139.34 C 153.07,138.89 152.81,138.47 152.5,138.06 C 152.4,137.93 152.27,137.78 152.16,137.66 C 152.08,137.58 152.13,137.47 152.22,137.41 C 153.74,136.43 154.42,134.55 153.91,132.81 C 153.4,131.08 151.81,129.91 150.0,129.91 z M 150.0,132.03 C 151.08,132.03 151.94,132.89 151.94,133.97 C 151.94,135.05 151.08,135.94 150.0,135.94 C 148.92,135.94 148.06,135.05 148.06,133.97 C 148.06,132.89 148.92,132.03 150.0,132.03 z M 145.53,147.75 C 145.58,147.72 145.61,147.76 145.66,147.78 C 145.74,147.81 145.83,147.81 145.91,147.84 C 146.53,148.1 147.11,148.43 147.66,148.81 C 148.19,149.18 148.66,149.58 149.09,150.06 C 149.3,150.3 149.48,150.55 149.66,150.81 C 149.74,150.94 149.83,151.06 149.91,151.19 C 149.95,151.26 150.05,151.29 150.09,151.22 C 150.73,150.15 151.62,149.25 152.66,148.59 C 153.21,148.25 153.77,147.98 154.38,147.75 C 154.46,147.72 154.54,147.79 154.53,147.88 C 154.52,148.04 154.52,148.18 154.5,148.34 C 154.47,148.67 154.41,149.0 154.34,149.31 C 154.09,150.56 153.58,151.72 152.78,152.72 C 152.73,152.78 152.71,152.85 152.66,152.91 C 152.63,152.94 152.59,152.97 152.56,153.0 C 152.55,153.02 152.54,153.01 152.53,153.03 C 152.5,153.15 152.64,153.17 152.72,153.19 C 153.02,153.26 153.31,153.36 153.59,153.47 C 154.19,153.69 154.76,153.98 155.28,154.34 C 155.81,154.7 156.28,155.1 156.72,155.56 C 156.83,155.68 156.93,155.82 157.03,155.94 C 157.08,156.0 157.14,156.06 157.19,156.13 C 157.22,156.17 157.25,156.19 157.25,156.25 C 157.25,156.29 157.25,156.32 157.22,156.34 C 157.17,156.37 157.08,156.39 157.03,156.41 C 156.88,156.45 156.72,156.47 156.56,156.5 C 155.34,156.75 154.06,156.77 152.84,156.47 C 152.54,156.39 152.23,156.3 151.94,156.19 C 151.87,156.16 151.79,156.12 151.72,156.09 C 151.67,156.07 151.65,156.07 151.59,156.09 C 151.55,156.11 151.54,156.11 151.53,156.16 C 151.52,156.23 151.53,156.31 151.53,156.38 C 151.58,157.02 151.55,157.65 151.44,158.28 C 151.32,158.94 151.11,159.55 150.84,160.16 C 150.71,160.46 150.55,160.74 150.38,161.03 C 150.29,161.18 150.22,161.33 150.13,161.47 C 150.08,161.54 149.97,161.59 149.91,161.5 C 149.19,160.42 148.68,159.23 148.5,157.94 C 148.46,157.63 148.44,157.34 148.44,157.03 C 148.43,156.88 148.43,156.71 148.44,156.56 C 148.44,156.52 148.48,156.21 148.47,156.16 C 148.43,156.04 148.33,156.09 148.25,156.13 C 148.11,156.18 147.96,156.23 147.81,156.28 C 147.52,156.38 147.24,156.47 146.94,156.53 C 145.71,156.8 144.44,156.75 143.22,156.47 C 143.16,156.45 142.84,156.38 142.78,156.34 C 142.68,156.28 142.76,156.19 142.81,156.13 C 143.01,155.87 143.24,155.64 143.47,155.41 C 143.91,154.96 144.37,154.56 144.91,154.22 C 145.44,153.87 145.99,153.61 146.59,153.41 C 146.74,153.36 146.88,153.29 147.03,153.25 C 147.1,153.23 147.18,153.24 147.25,153.22 C 147.29,153.21 147.34,153.2 147.38,153.19 C 147.4,153.18 147.42,153.17 147.44,153.16 C 147.54,153.08 147.43,153.0 147.38,152.94 C 147.28,152.82 147.19,152.68 147.09,152.56 C 146.32,151.54 145.81,150.35 145.59,149.09 C 145.54,148.76 145.52,148.43 145.5,148.09 C 145.49,148.01 145.47,147.93 145.47,147.84 C 145.47,147.8 145.49,147.77 145.53,147.75 z"
		 />
		 <path style="fill:#f00;stroke:none;"
		 d="M 145.88,147.7 C 145.77,147.66 145.66,147.61 145.55,147.57 C 145.45,147.54 145.35,147.51 145.33,147.65 C 145.32,147.69 145.34,147.95 145.34,148.0 C 145.34,148.02 145.34,148.05 145.34,148.08 C 145.35,148.1 145.33,148.07 145.32,148.06 C 145.31,148.05 145.3,148.04 145.29,148.04 C 145.26,148.0 145.22,147.96 145.18,147.93 C 144.88,147.64 144.56,147.39 144.21,147.17 C 143.47,146.71 142.7,146.43 141.85,146.25 C 141.8,146.24 141.74,146.23 141.68,146.21 C 141.64,146.21 141.65,146.17 141.64,146.15 C 141.63,146.1 141.6,146.06 141.58,146.02 C 141.47,145.8 141.38,145.59 141.29,145.37 C 141.11,144.93 140.96,144.48 140.85,144.02 C 140.65,143.19 140.55,142.36 140.56,141.5 C 140.56,141.4 140.57,141.29 140.57,141.19 C 140.57,141.13 140.57,141.08 140.58,141.03 C 140.58,141.02 140.58,141.0 140.58,140.99 C 140.58,140.98 140.58,140.98 140.58,140.97 C 140.58,140.96 140.59,140.97 140.6,140.97 C 140.62,140.98 140.65,140.99 140.67,140.99 C 140.88,141.05 141.08,141.11 141.28,141.17 C 141.68,141.31 142.08,141.47 142.46,141.65 C 143.23,142.02 143.93,142.47 144.58,143.03 C 144.72,143.15 144.85,143.27 144.98,143.39 C 145.05,143.45 145.1,143.51 145.17,143.57 C 145.18,143.58 145.2,143.6 145.22,143.61 C 145.25,143.62 145.23,143.64 145.23,143.66 C 145.21,143.84 145.19,144.02 145.18,144.2 C 145.16,144.56 145.16,144.92 145.19,145.27 C 145.26,146.14 145.48,146.92 145.88,147.7 z M 154.65,148.09 C 154.66,147.97 154.67,147.85 154.67,147.74 C 154.68,147.63 154.67,147.53 154.54,147.55 C 154.49,147.55 154.25,147.65 154.21,147.66 C 154.18,147.68 154.15,147.69 154.12,147.7 C 154.1,147.7 154.13,147.68 154.13,147.67 C 154.14,147.66 154.15,147.64 154.15,147.63 C 154.18,147.59 154.2,147.54 154.22,147.49 C 154.4,147.12 154.53,146.73 154.64,146.33 C 154.85,145.49 154.88,144.67 154.79,143.81 C 154.78,143.75 154.78,143.69 154.77,143.63 C 154.76,143.59 154.8,143.6 154.82,143.58 C 154.86,143.55 154.89,143.51 154.93,143.48 C 155.09,143.31 155.27,143.15 155.45,143.0 C 155.81,142.7 156.19,142.42 156.6,142.17 C 157.33,141.72 158.08,141.37 158.9,141.11 C 159.0,141.08 159.11,141.05 159.21,141.02 C 159.26,141.01 159.31,141.0 159.36,140.98 C 159.37,140.98 159.39,140.98 159.4,140.97 C 159.4,140.97 159.41,140.97 159.42,140.97 C 159.43,140.97 159.42,140.98 159.42,140.99 C 159.42,141.01 159.42,141.04 159.42,141.06 C 159.44,141.28 159.44,141.49 159.44,141.7 C 159.44,142.12 159.41,142.54 159.35,142.97 C 159.23,143.82 159.02,144.62 158.69,145.41 C 158.63,145.58 158.55,145.74 158.48,145.9 C 158.44,145.98 158.4,146.06 158.36,146.13 C 158.35,146.15 158.35,146.17 158.34,146.2 C 158.34,146.23 158.31,146.22 158.29,146.22 C 158.11,146.25 157.94,146.29 157.76,146.34 C 157.41,146.43 157.08,146.54 156.75,146.68 C 155.95,147.02 155.27,147.47 154.65,148.09 z M 149.67,161.4 C 149.73,161.49 149.8,161.59 149.86,161.69 C 149.92,161.78 149.98,161.86 150.08,161.76 C 150.12,161.73 150.26,161.51 150.28,161.47 C 150.3,161.45 150.31,161.42 150.33,161.4 C 150.34,161.38 150.33,161.42 150.34,161.43 C 150.34,161.44 150.34,161.46 150.34,161.47 C 150.35,161.52 150.36,161.57 150.37,161.62 C 150.45,162.03 150.56,162.42 150.72,162.8 C 151.04,163.61 151.49,164.29 152.07,164.93 C 152.11,164.98 152.16,165.02 152.2,165.07 C 152.22,165.09 152.19,165.12 152.19,165.14 C 152.17,165.19 152.17,165.24 152.16,165.29 C 152.12,165.52 152.07,165.75 152.02,165.98 C 151.9,166.44 151.76,166.89 151.58,167.33 C 151.25,168.12 150.84,168.85 150.33,169.53 C 150.27,169.62 150.2,169.7 150.14,169.79 C 150.11,169.83 150.07,169.87 150.04,169.91 C 150.03,169.92 150.02,169.93 150.01,169.94 C 150.01,169.94 150.01,169.95 150.0,169.95 C 149.99,169.96 149.99,169.95 149.99,169.94 C 149.97,169.92 149.96,169.9 149.94,169.88 C 149.81,169.72 149.68,169.55 149.55,169.38 C 149.31,169.03 149.08,168.67 148.88,168.3 C 148.47,167.54 148.18,166.77 147.97,165.93 C 147.93,165.76 147.89,165.59 147.86,165.41 C 147.85,165.32 147.83,165.24 147.82,165.16 C 147.81,165.13 147.81,165.11 147.8,165.09 C 147.78,165.06 147.81,165.06 147.82,165.04 C 147.95,164.91 148.07,164.78 148.18,164.63 C 148.41,164.36 148.62,164.07 148.8,163.77 C 149.25,163.02 149.54,162.26 149.67,161.4 z M 142.8,155.92 C 142.72,156.01 142.65,156.1 142.58,156.2 C 142.51,156.28 142.46,156.37 142.58,156.43 C 142.62,156.45 142.87,156.52 142.91,156.53 C 142.94,156.54 142.97,156.54 143.0,156.55 C 143.02,156.56 142.98,156.56 142.97,156.57 C 142.96,156.57 142.95,156.58 142.94,156.59 C 142.89,156.61 142.84,156.64 142.8,156.66 C 142.44,156.86 142.1,157.09 141.78,157.35 C 141.11,157.91 140.61,158.55 140.18,159.3 C 140.15,159.36 140.12,159.41 140.09,159.46 C 140.07,159.5 140.04,159.47 140.02,159.47 C 139.97,159.48 139.92,159.49 139.87,159.5 C 139.64,159.53 139.4,159.55 139.17,159.57 C 138.69,159.61 138.22,159.61 137.75,159.57 C 136.89,159.51 136.08,159.34 135.26,159.07 C 135.16,159.03 135.06,159.0 134.96,158.96 C 134.92,158.94 134.87,158.93 134.82,158.91 C 134.8,158.9 134.79,158.9 134.78,158.89 C 134.77,158.89 134.77,158.89 134.76,158.88 C 134.75,158.88 134.77,158.87 134.77,158.87 C 134.78,158.85 134.8,158.82 134.81,158.8 C 134.93,158.62 135.05,158.45 135.17,158.28 C 135.43,157.94 135.7,157.62 135.99,157.31 C 136.58,156.69 137.23,156.16 137.96,155.71 C 138.11,155.62 138.27,155.53 138.42,155.44 C 138.5,155.4 138.58,155.37 138.65,155.32 C 138.67,155.31 138.69,155.3 138.7,155.28 C 138.73,155.26 138.74,155.29 138.76,155.3 C 138.92,155.37 139.09,155.45 139.26,155.51 C 139.59,155.64 139.93,155.75 140.28,155.83 C 141.13,156.03 141.94,156.06 142.8,155.92 z M 157.0,156.55 C 157.11,156.52 157.22,156.49 157.34,156.46 C 157.44,156.43 157.53,156.4 157.47,156.27 C 157.45,156.23 157.29,156.03 157.26,156.0 C 157.24,155.97 157.22,155.95 157.2,155.93 C 157.19,155.91 157.22,155.93 157.23,155.93 C 157.25,155.93 157.26,155.93 157.27,155.93 C 157.33,155.94 157.38,155.95 157.43,155.96 C 157.84,156.01 158.25,156.02 158.66,155.99 C 159.53,155.93 160.32,155.71 161.11,155.36 C 161.16,155.33 161.21,155.31 161.27,155.28 C 161.3,155.27 161.31,155.3 161.33,155.32 C 161.38,155.34 161.42,155.36 161.47,155.39 C 161.67,155.5 161.88,155.61 162.08,155.74 C 162.48,155.99 162.86,156.26 163.23,156.57 C 163.88,157.13 164.44,157.74 164.94,158.44 C 165.0,158.52 165.06,158.61 165.12,158.7 C 165.15,158.74 165.18,158.79 165.21,158.83 C 165.21,158.84 165.22,158.85 165.23,158.87 C 165.23,158.87 165.24,158.88 165.24,158.88 C 165.25,158.89 165.23,158.89 165.22,158.89 C 165.2,158.9 165.17,158.91 165.15,158.92 C 164.95,158.99 164.75,159.06 164.55,159.13 C 164.15,159.26 163.74,159.36 163.32,159.43 C 162.47,159.59 161.65,159.63 160.79,159.57 C 160.61,159.55 160.43,159.54 160.25,159.51 C 160.17,159.5 160.09,159.49 160.0,159.48 C 159.98,159.47 159.96,159.47 159.93,159.48 C 159.9,159.48 159.91,159.45 159.9,159.43 C 159.81,159.28 159.72,159.12 159.62,158.97 C 159.43,158.67 159.22,158.38 158.98,158.11 C 158.41,157.45 157.78,156.95 157.0,156.55 z"
		 />
		 <path style="fill:#00f;stroke:none;"
		 d="M 148.35,161.57 C 148.43,163.95 145.98,165.94 143.67,165.39 C 141.33,164.99 139.86,162.2 140.86,160.05 C 141.71,157.84 144.71,156.95 146.63,158.34 C 147.69,159.04 148.36,160.29 148.35,161.57 z M 144.92,151.01 C 145.0,153.39 142.55,155.39 140.24,154.83 C 137.9,154.43 136.44,151.65 137.43,149.5 C 138.28,147.29 141.28,146.39 143.2,147.78 C 144.26,148.49 144.93,149.74 144.92,151.01 z M 162.87,151.01 C 162.96,153.39 160.51,155.39 158.19,154.83 C 155.85,154.43 154.39,151.65 155.39,149.5 C 156.23,147.29 159.24,146.39 161.16,147.78 C 162.22,148.49 162.89,149.74 162.87,151.01 z M 159.45,161.57 C 159.53,163.95 157.08,165.94 154.76,165.39 C 152.43,164.99 150.96,162.2 151.96,160.05 C 152.81,157.84 155.81,156.95 157.73,158.34 C 158.79,159.04 159.46,160.29 159.45,161.57 z M 153.9,144.49 C 153.98,146.87 151.53,148.87 149.21,148.31 C 146.88,147.91 145.41,145.13 146.41,142.98 C 147.26,140.77 150.26,139.87 152.18,141.26 C 153.24,141.97 153.91,143.22 153.9,144.49 z"
		 />
		
		<!-- Prism Reference -->
		<cam mingh:cam="--verb EditSelectAll --verb ZoomSelection --verb FileSave " /> 
	 </g>

</svg>
