<svg
   xmlns:xlink="http://www.w3.org/1999/xlink"
   xmlns:svg="http://www.w3.org/2000/svg"
   xmlns="http://www.w3.org/2000/svg"
   xmlns:mingh="http://www.minghworld.com"
   width="300px"
   height="300px" >
	
	 <g>
		<!-- Paths -->
		<path style="fill:none;stroke:#000;stroke-width:0.25px;"
		 d="M 147.88,127.38 C 146.06,127.39 144.46,128.6 143.97,130.34 C 143.48,132.09 144.18,133.94 145.72,134.91 C 145.86,135.0 145.83,135.2 145.66,135.22 C 140.72,135.67 136.7,137.38 133.06,140.78 C 131.39,142.34 129.84,144.27 128.69,146.25 C 127.48,148.32 126.71,150.44 126.31,152.81 C 126.31,152.84 126.3,152.88 126.31,152.91 C 126.95,153.82 127.58,154.74 128.22,155.66 C 128.23,155.67 128.25,155.67 128.25,155.69 C 128.51,158.33 128.83,160.05 129.47,162.0 C 130.06,163.8 130.91,165.81 132.13,167.69 C 132.14,167.72 132.17,167.75 132.16,167.78 L 131.75,169.06 C 131.74,169.1 131.73,169.13 131.75,169.16 C 131.75,169.16 131.78,169.15 131.78,169.16 C 131.92,169.36 132.07,169.55 132.22,169.75 C 132.84,170.56 133.51,171.31 134.25,172.0 C 134.42,172.16 134.58,172.31 134.75,172.47 C 134.79,172.5 134.83,172.52 134.88,172.5 C 135.08,172.4 135.29,172.28 135.5,172.19 C 135.94,171.98 136.39,171.81 136.84,171.66 C 137.11,171.57 137.39,171.51 137.66,171.44 C 138.19,171.3 138.73,171.19 139.28,171.13 C 139.87,171.06 140.44,171.04 141.03,171.06 C 141.36,171.08 141.7,171.12 142.03,171.16 C 142.43,171.21 142.82,171.27 143.22,171.34 L 143.25,171.34 C 143.31,171.35 143.35,171.33 143.38,171.28 C 143.53,170.98 143.69,170.71 143.84,170.41 C 143.87,170.36 143.92,170.32 143.97,170.34 C 147.93,171.86 152.12,172.4 156.34,171.75 C 156.38,171.74 156.42,171.72 156.44,171.69 C 156.86,170.89 157.21,170.07 157.5,169.22 C 157.52,169.17 157.54,169.12 157.59,169.13 C 157.97,169.14 158.37,169.14 158.75,169.13 C 159.22,169.11 159.69,169.08 160.16,169.03 C 160.34,169.01 160.53,168.99 160.72,168.97 C 160.77,168.96 160.79,168.98 160.81,169.03 C 160.82,169.05 160.84,169.05 160.84,169.06 C 160.98,169.36 161.13,169.65 161.28,169.94 C 161.4,170.15 161.53,170.35 161.66,170.56 C 161.77,170.75 161.87,170.95 162.0,171.13 C 162.08,171.24 162.16,171.36 162.25,171.47 C 162.32,171.55 162.39,171.61 162.47,171.69 C 162.54,171.76 162.64,171.84 162.72,171.91 C 162.8,171.98 162.88,172.04 162.97,172.09 C 163.06,172.15 163.15,172.2 163.25,172.25 C 163.33,172.29 163.42,172.34 163.5,172.38 C 163.66,172.44 163.83,172.49 164.0,172.53 C 164.11,172.56 164.2,172.58 164.31,172.59 C 164.37,172.6 164.44,172.59 164.5,172.59 C 164.64,172.61 164.77,172.62 164.91,172.63 C 164.98,172.63 165.05,172.63 165.13,172.63 C 165.21,172.62 165.32,172.61 165.41,172.59 C 165.51,172.58 165.59,172.56 165.69,172.53 C 165.81,172.5 165.95,172.48 166.06,172.44 C 166.27,172.36 166.46,172.26 166.66,172.16 C 166.77,172.1 166.89,172.06 167.0,172.0 C 167.13,171.93 167.25,171.83 167.38,171.75 C 167.64,171.59 167.92,171.45 168.19,171.28 C 168.48,171.1 168.74,170.91 169.03,170.72 C 169.31,170.53 169.6,170.32 169.88,170.13 C 170.1,169.97 170.34,169.85 170.56,169.69 C 170.74,169.56 170.92,169.41 171.09,169.28 C 171.24,169.17 171.39,169.06 171.53,168.94 C 171.66,168.83 171.78,168.71 171.91,168.59 C 171.97,168.53 172.06,168.44 172.13,168.38 C 172.19,168.3 172.25,168.26 172.31,168.19 C 172.42,168.07 172.53,167.93 172.63,167.81 C 172.79,167.61 172.96,167.41 173.09,167.19 C 173.19,167.03 173.27,166.83 173.34,166.66 C 173.46,166.38 173.56,166.11 173.63,165.81 C 173.65,165.67 173.67,165.55 173.69,165.41 C 173.7,165.27 173.72,165.11 173.72,164.97 C 173.72,164.83 173.7,164.7 173.69,164.56 C 173.67,164.43 173.62,164.29 173.59,164.16 C 173.55,163.99 173.52,163.82 173.47,163.66 C 173.42,163.51 173.37,163.39 173.31,163.25 C 173.21,162.98 173.09,162.7 172.97,162.44 C 172.74,161.91 172.5,161.4 172.25,160.88 C 172.01,160.37 171.74,159.88 171.5,159.38 C 171.33,159.02 171.17,158.64 171.0,158.28 C 170.74,157.74 170.11,157.5 169.56,157.75 C 168.84,158.08 168.09,158.36 167.34,158.63 C 166.53,158.91 165.71,159.16 164.88,159.38 C 164.57,159.45 164.28,159.53 163.97,159.59 C 163.92,159.6 163.86,159.58 163.84,159.53 C 163.81,159.43 163.76,159.35 163.72,159.25 C 163.62,159.02 163.51,158.79 163.41,158.56 C 163.28,158.3 163.16,158.04 163.03,157.78 C 162.86,157.44 162.68,157.09 162.5,156.75 C 162.25,156.29 161.98,155.83 161.72,155.38 C 161.48,154.97 161.25,154.58 161.0,154.19 C 160.78,153.84 160.55,153.47 160.31,153.13 C 160.25,153.04 160.18,152.96 160.13,152.88 C 160.09,152.83 160.11,152.79 160.16,152.75 C 160.73,152.27 161.29,151.79 161.97,151.44 C 162.31,151.26 162.66,151.16 163.03,151.09 C 163.4,151.03 163.78,150.98 164.16,150.94 C 164.53,150.9 164.88,150.85 165.25,150.81 C 165.62,150.78 166.0,150.77 166.38,150.72 C 166.75,150.66 167.1,150.59 167.44,150.38 C 167.79,150.15 167.93,149.82 168.0,149.44 C 168.01,149.4 168.03,149.39 168.06,149.38 C 168.38,149.21 168.67,149.04 168.97,148.84 C 169.47,148.51 169.62,147.82 169.28,147.31 C 168.95,146.81 168.29,146.67 167.78,147.0 C 167.73,147.04 167.65,147.09 167.59,147.13 C 167.54,147.16 167.47,147.11 167.44,147.06 C 167.31,146.83 167.18,146.63 167.03,146.41 C 167.0,146.35 167.04,146.28 167.09,146.25 C 167.28,146.16 167.45,146.07 167.63,145.97 C 168.28,145.61 168.52,144.78 168.16,144.13 C 167.8,143.47 166.96,143.26 166.31,143.63 C 166.14,143.72 165.97,143.79 165.78,143.88 C 165.68,143.92 165.57,143.96 165.47,144.0 C 165.41,144.02 165.38,144.02 165.34,143.97 C 163.49,141.5 161.51,139.4 158.81,137.78 C 156.15,136.19 153.24,135.42 150.19,135.19 C 150.02,135.17 149.98,134.97 150.13,134.88 C 151.64,133.89 152.33,132.02 151.81,130.28 C 151.29,128.55 149.69,127.36 147.88,127.38 z M 147.91,129.5 C 148.16,129.5 148.42,129.56 148.66,129.66 C 148.89,129.75 149.1,129.88 149.28,130.06 C 149.46,130.24 149.59,130.48 149.69,130.72 C 149.79,130.95 149.84,131.18 149.84,131.44 C 149.84,131.69 149.79,131.95 149.69,132.19 C 149.59,132.42 149.46,132.66 149.28,132.84 C 149.1,133.02 148.89,133.15 148.66,133.25 C 148.42,133.35 148.16,133.41 147.91,133.41 C 147.65,133.41 147.39,133.35 147.16,133.25 C 146.92,133.15 146.71,133.02 146.53,132.84 C 146.35,132.66 146.19,132.42 146.09,132.19 C 146.0,131.95 145.94,131.69 145.94,131.44 C 145.94,131.18 146.0,130.95 146.09,130.72 C 146.19,130.48 146.35,130.24 146.53,130.06 C 146.71,129.88 146.92,129.75 147.16,129.66 C 147.39,129.56 147.65,129.5 147.91,129.5 z M 143.25,137.81 C 143.34,137.8 143.44,137.79 143.53,137.81 C 144.17,138.0 144.83,138.22 145.53,138.41 C 145.76,138.47 145.92,138.59 145.91,138.72 C 145.9,138.85 145.7,138.96 145.47,139.0 C 144.16,139.25 143.05,139.74 142.06,140.28 C 140.81,140.97 139.76,141.78 138.75,142.81 C 137.7,143.89 136.68,145.17 135.78,146.63 C 135.13,147.69 134.53,148.84 134.0,149.94 C 133.94,150.06 133.82,150.15 133.69,150.19 C 133.56,150.22 133.44,150.21 133.34,150.13 C 133.31,150.09 133.27,150.05 133.25,150.0 C 132.72,148.88 132.17,147.57 131.59,146.22 C 131.52,146.06 131.52,145.82 131.63,145.69 C 131.86,145.35 132.12,145.02 132.38,144.69 C 133.01,143.87 133.71,143.08 134.44,142.41 C 135.16,141.74 135.92,141.16 136.69,140.63 C 137.44,140.1 138.21,139.61 139.06,139.19 C 139.89,138.78 140.78,138.41 141.75,138.13 C 142.22,137.98 142.74,137.89 143.25,137.81 z M 154.5,138.19 C 154.6,138.18 154.95,138.31 155.03,138.34 C 155.21,138.41 155.41,138.49 155.59,138.56 C 157.05,139.15 158.34,139.93 159.56,140.91 C 159.86,141.15 160.16,141.39 160.44,141.66 C 160.59,141.8 160.57,142.03 160.41,142.16 C 160.32,142.22 160.25,142.21 160.16,142.22 C 160.06,142.23 159.94,142.24 159.84,142.25 C 159.07,142.3 158.3,142.35 157.53,142.41 C 157.32,142.42 157.18,142.21 157.06,142.09 C 156.93,141.95 156.8,141.82 156.66,141.69 C 156.38,141.42 156.11,141.15 155.81,140.91 C 155.21,140.41 154.57,139.99 153.88,139.63 C 153.71,139.54 153.54,139.48 153.38,139.41 C 153.29,139.37 153.21,139.32 153.13,139.28 C 153.04,139.25 152.96,139.23 152.88,139.19 C 152.69,139.08 152.66,138.81 152.81,138.66 C 152.89,138.57 152.96,138.56 153.06,138.53 L 153.38,138.47 C 153.56,138.42 153.75,138.36 153.94,138.31 C 154.03,138.29 154.13,138.27 154.22,138.25 C 154.31,138.23 154.4,138.2 154.5,138.19 z M 149.0,144.22 C 149.26,144.22 149.51,144.25 149.75,144.34 C 149.99,144.44 150.19,144.6 150.38,144.78 C 150.56,144.96 150.71,145.17 150.81,145.41 C 150.91,145.64 150.97,145.9 150.97,146.16 C 150.97,146.41 150.91,146.67 150.81,146.91 C 150.71,147.14 150.56,147.35 150.38,147.53 C 150.19,147.71 149.99,147.87 149.75,147.97 C 149.51,148.07 149.26,148.09 149.0,148.09 C 148.74,148.09 148.49,148.07 148.25,147.97 C 148.01,147.87 147.81,147.71 147.63,147.53 C 147.44,147.35 147.32,147.14 147.22,146.91 C 147.12,146.67 147.06,146.41 147.06,146.16 C 147.06,145.9 147.12,145.64 147.22,145.41 C 147.32,145.17 147.44,144.96 147.63,144.78 C 147.81,144.6 148.01,144.44 148.25,144.34 C 148.49,144.25 148.74,144.22 149.0,144.22 z M 158.44,154.34 C 158.47,154.35 158.48,154.35 158.5,154.38 C 158.81,154.82 159.12,155.29 159.41,155.75 C 159.78,156.37 160.13,156.99 160.47,157.63 C 160.72,158.08 160.96,158.56 161.19,159.03 C 161.27,159.21 161.35,159.39 161.44,159.56 C 161.48,159.65 161.52,159.73 161.56,159.81 C 161.59,159.88 161.54,159.96 161.47,159.97 C 161.22,159.99 161.0,159.99 160.75,160.0 C 160.22,160.02 159.68,160.04 159.16,160.0 C 158.87,159.98 158.57,159.94 158.28,159.91 C 158.23,159.9 158.2,159.86 158.19,159.81 C 157.86,158.6 157.18,157.41 156.47,156.41 C 156.44,156.36 156.44,156.33 156.47,156.28 C 156.84,155.74 157.88,154.82 158.34,154.38 C 158.37,154.35 158.41,154.34 158.44,154.34 z M 142.19,157.16 C 142.26,157.14 142.36,157.16 142.47,157.19 C 144.13,157.61 145.8,158.39 147.22,159.31 C 147.36,159.41 147.48,159.52 147.59,159.66 C 148.2,160.38 148.74,161.23 149.06,162.13 C 149.16,162.39 149.04,162.58 148.75,162.56 C 147.81,162.51 146.8,162.24 145.94,161.88 C 145.78,161.81 145.66,161.74 145.53,161.63 C 144.24,160.53 142.97,159.15 142.09,157.69 C 141.92,157.4 141.96,157.2 142.19,157.16 z M 169.38,160.22 C 169.43,160.2 169.48,160.23 169.5,160.28 C 169.57,160.43 169.65,160.57 169.72,160.72 C 169.99,161.28 170.27,161.81 170.53,162.38 C 170.53,162.38 170.53,162.4 170.53,162.41 C 170.55,162.46 170.55,162.5 170.5,162.53 C 170.36,162.62 170.21,162.7 170.06,162.78 C 169.74,162.97 169.42,163.16 169.09,163.34 C 168.77,163.52 168.45,163.68 168.13,163.84 C 167.8,164.01 167.49,164.17 167.16,164.31 C 166.9,164.42 166.63,164.52 166.38,164.63 C 166.11,164.73 165.86,164.84 165.59,164.94 C 165.12,165.12 164.64,165.29 164.16,165.44 C 163.46,165.65 162.77,165.85 162.06,166.0 C 162.01,166.01 161.96,165.99 161.94,165.94 C 161.91,165.84 161.87,165.75 161.84,165.66 C 161.8,165.52 161.75,165.39 161.72,165.25 C 161.7,165.18 161.67,165.08 161.66,165.0 C 161.64,164.92 161.65,164.86 161.66,164.78 C 161.66,164.76 161.65,164.71 161.66,164.69 C 161.66,164.67 161.68,164.65 161.69,164.63 C 161.7,164.57 161.72,164.52 161.75,164.47 C 161.77,164.42 161.78,164.36 161.81,164.31 C 161.87,164.22 161.93,164.15 162.0,164.06 C 162.07,163.97 162.14,163.87 162.22,163.78 C 162.29,163.7 162.37,163.64 162.44,163.56 C 162.59,163.4 162.75,163.23 162.91,163.06 C 163.05,162.92 163.18,162.78 163.31,162.63 C 163.41,162.51 163.53,162.37 163.63,162.25 C 163.71,162.14 163.77,162.03 163.84,161.91 C 163.86,161.88 163.9,161.85 163.94,161.84 C 163.96,161.84 163.98,161.85 164.0,161.84 C 164.48,161.75 164.96,161.62 165.44,161.5 C 166.33,161.27 167.2,161.02 168.06,160.72 C 168.5,160.57 168.94,160.39 169.38,160.22 z M 134.75,160.69 C 134.9,160.69 135.04,160.72 135.19,160.75 C 135.49,160.82 135.78,160.95 136.03,161.13 C 136.28,161.3 136.52,161.52 136.69,161.78 C 136.85,162.04 136.95,162.32 137.0,162.63 C 137.05,162.93 137.07,163.23 137.0,163.53 C 136.93,163.83 136.8,164.12 136.63,164.38 C 136.45,164.63 136.23,164.83 135.97,165.0 C 135.71,165.17 135.4,165.29 135.09,165.34 C 134.79,165.4 134.49,165.38 134.19,165.31 C 133.89,165.25 133.6,165.14 133.34,164.97 C 133.09,164.79 132.88,164.57 132.72,164.31 C 132.55,164.05 132.43,163.74 132.38,163.44 C 132.32,163.14 132.34,162.83 132.41,162.53 C 132.47,162.23 132.61,161.94 132.78,161.69 C 132.96,161.44 133.18,161.23 133.44,161.06 C 133.7,160.9 133.98,160.77 134.28,160.72 C 134.43,160.69 134.6,160.68 134.75,160.69 z M 158.66,162.16 C 158.77,162.17 158.88,162.18 159.0,162.19 C 159.48,162.22 159.96,162.23 160.44,162.22 C 160.53,162.22 160.59,162.31 160.53,162.38 C 160.47,162.45 160.4,162.55 160.34,162.63 C 160.24,162.75 160.15,162.87 160.06,163.0 C 160.0,163.09 159.96,163.19 159.91,163.28 C 159.86,163.36 159.82,163.42 159.78,163.5 C 159.73,163.61 159.67,163.73 159.63,163.84 C 159.58,163.96 159.56,164.1 159.53,164.22 C 159.5,164.34 159.48,164.47 159.47,164.59 C 159.46,164.72 159.43,164.81 159.44,164.94 C 159.44,165.04 159.45,165.18 159.47,165.28 C 159.5,165.48 159.54,165.65 159.59,165.84 C 159.63,165.98 159.68,166.12 159.72,166.25 C 159.74,166.31 159.69,166.37 159.63,166.38 C 159.23,166.41 158.84,166.43 158.44,166.44 C 158.41,166.44 158.37,166.44 158.34,166.44 C 158.28,166.44 158.24,166.38 158.25,166.31 C 158.49,164.96 158.58,163.62 158.53,162.25 C 158.53,162.19 158.59,162.15 158.66,162.16 z M 171.31,165.16 C 171.39,165.11 171.48,165.19 171.47,165.28 C 171.46,165.33 171.45,165.39 171.44,165.44 C 171.41,165.54 171.38,165.65 171.34,165.75 C 171.3,165.87 171.25,165.96 171.19,166.06 C 171.13,166.16 171.07,166.26 171.0,166.34 C 170.92,166.45 170.84,166.56 170.75,166.66 C 170.62,166.8 170.46,166.93 170.31,167.06 C 170.18,167.19 170.05,167.33 169.91,167.44 C 169.71,167.59 169.52,167.73 169.31,167.88 C 169.0,168.09 168.69,168.32 168.38,168.53 C 168.0,168.78 167.63,169.01 167.25,169.25 C 167.06,169.37 166.88,169.51 166.69,169.63 C 166.54,169.72 166.37,169.82 166.22,169.91 C 166.08,169.99 165.95,170.05 165.81,170.13 C 165.76,170.15 165.71,170.19 165.66,170.22 C 165.57,170.26 165.5,170.31 165.41,170.34 C 165.34,170.37 165.25,170.39 165.19,170.41 C 165.15,170.42 165.1,170.4 165.06,170.41 C 165.02,170.41 164.98,170.44 164.94,170.44 C 164.9,170.44 164.88,170.44 164.84,170.44 C 164.78,170.44 164.72,170.41 164.66,170.41 C 164.59,170.4 164.53,170.39 164.47,170.38 C 164.4,170.36 164.34,170.33 164.28,170.31 C 164.25,170.3 164.22,170.3 164.19,170.28 C 164.17,170.27 164.17,170.26 164.16,170.25 C 164.13,170.23 164.09,170.18 164.06,170.16 C 164.01,170.1 163.95,170.06 163.91,170.0 C 163.87,169.95 163.85,169.89 163.81,169.84 C 163.75,169.75 163.69,169.66 163.63,169.56 C 163.48,169.33 163.32,169.09 163.19,168.84 C 163.15,168.78 163.13,168.72 163.09,168.66 C 163.06,168.59 163.09,168.52 163.16,168.5 C 163.19,168.49 163.24,168.48 163.28,168.47 C 163.73,168.36 164.18,168.25 164.63,168.13 C 165.14,167.97 165.62,167.81 166.13,167.63 C 166.53,167.48 166.94,167.32 167.34,167.16 C 167.59,167.06 167.82,166.95 168.06,166.84 C 168.24,166.76 168.44,166.68 168.63,166.59 C 168.81,166.51 168.98,166.43 169.16,166.34 C 169.55,166.15 169.93,165.96 170.31,165.75 C 170.65,165.56 170.98,165.35 171.31,165.16 z"
		 />
		 <path style="fill:#f00;stroke:none;"
		 d="M 132.26,168.86 C 132.34,168.58 132.42,168.31 132.49,168.03 C 132.53,167.89 132.56,167.76 132.59,167.62 C 132.61,167.55 132.62,167.48 132.63,167.41 C 132.64,167.39 132.64,167.37 132.64,167.35 C 132.65,167.35 132.65,167.3 132.66,167.3 C 132.7,167.29 132.74,167.28 132.78,167.27 C 133.4,167.1 134.03,166.97 134.66,166.88 C 135.88,166.71 137.08,166.68 138.31,166.79 C 139.6,166.91 140.65,167.17 141.89,167.54 C 142.42,167.71 142.95,167.88 143.49,168.03 C 143.8,168.12 144.1,168.21 144.41,168.28 C 144.49,168.31 144.57,168.33 144.65,168.35 C 144.67,168.35 144.69,168.36 144.72,168.36 C 144.73,168.37 144.71,168.38 144.71,168.39 C 144.7,168.4 144.69,168.41 144.69,168.41 C 144.66,168.45 144.64,168.49 144.62,168.52 C 144.52,168.67 144.43,168.81 144.34,168.96 C 144.01,169.47 143.68,169.99 143.35,170.5 C 143.31,170.56 143.26,170.63 143.22,170.69 C 143.21,170.71 143.2,170.72 143.19,170.74 C 143.19,170.75 143.19,170.76 143.17,170.76 C 143.17,170.76 143.16,170.75 143.15,170.75 C 143.11,170.75 143.07,170.74 143.03,170.73 C 142.88,170.71 142.73,170.68 142.58,170.66 C 142.28,170.61 141.98,170.57 141.67,170.55 C 140.44,170.43 139.25,170.5 138.03,170.76 C 137.5,170.87 136.97,171.02 136.45,171.2 C 136.19,171.29 135.94,171.39 135.68,171.5 C 135.56,171.56 135.43,171.61 135.31,171.67 C 135.28,171.68 135.25,171.69 135.23,171.71 C 135.17,171.73 135.11,171.76 135.05,171.79 C 135.02,171.8 134.99,171.81 134.96,171.83 C 134.96,171.83 134.93,171.85 134.92,171.85 C 134.92,171.85 134.92,171.84 134.92,171.84 C 134.89,171.82 134.86,171.79 134.83,171.76 C 134.78,171.71 134.72,171.66 134.66,171.61 C 133.76,170.77 132.97,169.86 132.26,168.86 z M 152.3,159.09 C 152.3,159.63 151.87,160.07 151.33,160.07 C 150.79,160.07 150.35,159.63 150.35,159.09 C 150.35,158.55 150.79,158.11 151.33,158.11 C 151.87,158.11 152.3,158.55 152.3,159.09 z M 150.76,156.12 C 150.76,156.65 150.32,157.09 149.78,157.09 C 149.24,157.09 148.8,156.65 148.8,156.12 C 148.8,155.58 149.24,155.14 149.78,155.14 C 150.32,155.14 150.76,155.58 150.76,156.12 z M 126.45,152.84 C 127.41,152.69 128.38,152.62 129.35,152.61 C 130.9,152.6 132.45,152.75 133.94,153.13 C 134.64,153.31 135.32,153.55 135.98,153.83 C 136.86,154.2 137.71,154.65 138.5,155.17 C 138.9,155.43 139.29,155.71 139.66,156.0 C 138.81,155.72 137.94,155.51 137.06,155.37 C 135.93,155.2 134.78,155.16 133.64,155.18 C 131.87,155.19 130.12,155.32 128.38,155.62 C 127.74,154.69 127.09,153.76 126.45,152.84 z M 154.11,155.02 C 154.65,154.27 155.65,153.38 156.34,152.79 C 156.54,152.61 156.74,152.44 156.94,152.27 C 156.99,152.23 157.04,152.19 157.09,152.15 C 157.12,152.12 157.14,152.1 157.17,152.08 C 157.18,152.07 157.19,152.06 157.2,152.05 C 157.21,152.04 157.24,152.03 157.23,152.02 C 157.15,151.91 157.07,151.81 156.99,151.71 C 156.67,151.29 156.35,150.87 156.03,150.45 C 155.99,150.39 155.96,150.34 155.92,150.29 C 155.9,150.26 155.88,150.23 155.86,150.21 C 155.85,150.2 155.85,150.19 155.84,150.19 C 155.84,150.18 155.83,150.19 155.83,150.2 C 155.81,150.21 155.8,150.22 155.79,150.23 C 155.69,150.32 155.6,150.42 155.5,150.51 C 155.31,150.69 155.12,150.87 154.93,151.05 C 154.55,151.42 154.17,151.78 153.83,152.19 C 153.66,152.39 153.49,152.59 153.37,152.83 C 153.31,152.96 153.31,153.07 153.34,153.21 C 153.36,153.34 153.4,153.47 153.45,153.59 C 153.63,154.09 153.87,154.55 154.11,155.02 z M 162.19,160.29 C 161.94,159.62 161.29,158.34 160.95,157.71 C 160.51,156.87 160.04,156.04 159.53,155.23 C 159.28,154.83 159.01,154.43 158.74,154.04 C 158.61,153.85 158.47,153.65 158.33,153.46 C 158.26,153.36 158.19,153.27 158.12,153.17 C 158.11,153.16 158.1,153.15 158.09,153.16 C 158.08,153.17 158.07,153.18 158.05,153.19 C 158.03,153.21 158.01,153.23 157.99,153.24 C 157.94,153.28 157.89,153.32 157.85,153.36 C 157.12,153.98 156.4,154.59 155.74,155.29 C 155.48,155.56 155.04,156.05 154.95,156.46 C 154.9,156.72 154.99,156.93 155.08,157.15 C 155.16,157.37 155.24,157.6 155.32,157.83 C 155.47,158.28 155.59,158.74 155.65,159.21 C 155.67,159.33 155.68,159.45 155.68,159.57 C 155.68,159.63 155.68,159.69 155.68,159.75 C 155.68,159.75 155.67,159.79 155.68,159.79 C 155.7,159.79 155.71,159.8 155.73,159.8 C 155.76,159.81 155.79,159.82 155.81,159.82 C 156.04,159.88 156.28,159.94 156.51,159.99 C 158.41,160.41 160.25,160.52 162.19,160.29 z M 160.37,166.93 C 160.19,166.44 160.01,165.95 159.9,165.43 C 159.79,164.89 159.82,164.42 160.02,163.9 C 160.22,163.39 160.53,162.99 160.88,162.59 C 161.05,162.39 161.23,162.2 161.41,162.01 C 161.45,161.96 161.5,161.92 161.54,161.87 C 161.57,161.84 161.59,161.82 161.61,161.8 C 161.62,161.79 161.66,161.77 161.63,161.77 C 161.62,161.77 161.6,161.77 161.58,161.77 C 161.45,161.78 161.32,161.79 161.19,161.8 C 160.14,161.86 159.11,161.82 158.06,161.69 C 157.54,161.63 157.03,161.55 156.51,161.44 C 156.26,161.39 156.0,161.33 155.75,161.27 C 155.62,161.24 155.5,161.2 155.37,161.17 C 155.36,161.17 155.33,161.15 155.32,161.16 C 155.32,161.18 155.31,161.19 155.3,161.21 C 155.29,161.24 155.28,161.27 155.26,161.3 C 155.23,161.35 155.2,161.41 155.17,161.47 C 154.76,162.24 153.87,163.33 153.37,164.03 C 153.21,164.25 153.08,164.46 153.0,164.72 C 152.94,164.94 152.91,165.27 152.97,165.5 C 153.08,165.91 153.88,166.3 154.18,166.43 C 156.06,167.21 158.45,167.18 160.37,166.93 z M 171.73,164.19 C 170.85,164.72 169.96,165.22 169.05,165.69 C 168.14,166.15 167.2,166.54 166.24,166.9 C 165.28,167.26 164.31,167.56 163.31,167.81 C 163.06,167.87 162.82,167.93 162.57,167.98 C 162.5,168.0 162.44,168.01 162.38,168.02 C 162.37,168.03 162.35,168.02 162.36,168.03 C 162.36,168.04 162.37,168.05 162.37,168.05 C 162.38,168.07 162.38,168.08 162.39,168.1 C 162.4,168.13 162.42,168.15 162.43,168.18 C 162.48,168.3 162.54,168.41 162.6,168.53 C 162.82,168.99 163.06,169.44 163.34,169.86 C 163.48,170.08 163.62,170.29 163.81,170.47 C 163.99,170.65 164.26,170.74 164.5,170.78 C 164.72,170.82 165.04,170.83 165.26,170.78 C 165.51,170.72 165.74,170.61 165.97,170.49 C 166.68,170.11 167.89,169.31 168.56,168.86 C 168.98,168.57 169.4,168.28 169.82,167.98 C 170.24,167.68 170.62,167.36 170.97,166.97 C 171.32,166.59 171.62,166.21 171.78,165.69 C 171.96,165.1 171.93,164.77 171.73,164.19 z M 171.18,162.87 C 170.73,161.88 170.24,160.9 169.78,159.92 C 169.75,159.86 169.72,159.79 169.69,159.73 C 169.68,159.72 169.67,159.7 169.67,159.69 C 169.66,159.66 169.64,159.69 169.63,159.69 C 169.59,159.71 169.56,159.72 169.53,159.73 C 169.41,159.78 169.28,159.83 169.15,159.88 C 168.9,159.99 168.65,160.08 168.39,160.18 C 167.88,160.36 167.36,160.54 166.84,160.7 C 165.8,161.02 164.75,161.3 163.67,161.49 C 163.62,161.5 163.62,161.49 163.6,161.54 C 163.58,161.58 163.57,161.61 163.55,161.64 C 163.52,161.7 163.49,161.76 163.45,161.81 C 163.38,161.93 163.3,162.04 163.21,162.14 C 163.04,162.35 162.85,162.55 162.66,162.75 C 162.29,163.14 161.9,163.52 161.59,163.98 C 161.18,164.56 161.19,164.86 161.39,165.52 C 161.47,165.78 161.55,166.04 161.65,166.29 C 161.69,166.42 161.74,166.55 161.79,166.68 C 161.79,166.68 161.79,166.7 161.8,166.7 C 161.81,166.69 161.82,166.69 161.83,166.69 C 161.84,166.69 161.86,166.68 161.88,166.68 C 161.91,166.67 161.94,166.67 161.98,166.66 C 162.04,166.65 162.11,166.63 162.18,166.62 C 163.25,166.39 164.29,166.09 165.32,165.73 C 166.35,165.36 167.35,164.96 168.33,164.46 C 168.82,164.22 169.29,163.95 169.77,163.69 C 170.24,163.42 170.71,163.15 171.18,162.87 z M 163.61,160.06 C 164.9,159.81 166.14,159.45 167.38,159.03 C 168.0,158.82 168.6,158.59 169.2,158.33 C 169.35,158.27 169.5,158.2 169.65,158.14 C 169.78,158.08 169.9,158.04 170.05,158.04 C 170.36,158.06 170.56,158.25 170.68,158.51 C 171.24,159.69 171.82,160.86 172.36,162.04 C 172.64,162.63 172.9,163.23 173.11,163.85 C 173.33,164.53 173.38,165.06 173.22,165.77 C 173.08,166.42 172.81,166.97 172.39,167.49 C 171.99,168.0 171.54,168.44 171.03,168.84 C 170.31,169.41 168.62,170.53 167.85,171.02 C 167.31,171.36 166.77,171.7 166.17,171.96 C 165.54,172.23 164.96,172.3 164.29,172.18 C 163.61,172.06 163.09,171.82 162.63,171.28 C 162.21,170.79 161.89,170.24 161.59,169.67 C 161.44,169.38 161.29,169.1 161.16,168.81 C 161.09,168.66 161.02,168.52 160.96,168.37 C 160.95,168.35 160.94,168.33 160.93,168.31 C 160.93,168.31 160.92,168.3 160.92,168.29 C 160.92,168.28 160.91,168.29 160.91,168.29 C 160.9,168.29 160.9,168.29 160.89,168.29 C 160.85,168.3 160.81,168.3 160.77,168.31 C 160.69,168.32 160.61,168.33 160.53,168.34 C 159.9,168.42 159.26,168.48 158.61,168.5 C 157.31,168.54 156.06,168.46 154.79,168.12 C 154.16,167.96 153.57,167.76 153.0,167.43 C 152.48,167.13 151.91,166.68 151.67,166.08 C 151.44,165.5 151.49,164.76 151.68,164.19 C 151.9,163.56 152.31,163.07 152.69,162.56 C 153.08,162.05 153.48,161.55 153.81,160.99 C 153.98,160.71 154.12,160.43 154.2,160.12 C 154.24,159.96 154.27,159.8 154.27,159.64 C 154.26,159.48 154.24,159.32 154.21,159.16 C 153.99,158.02 153.33,156.59 152.81,155.59 C 152.51,155.01 152.22,154.45 152.03,153.83 C 151.82,153.14 151.84,152.6 152.23,151.98 C 152.57,151.42 153.0,150.96 153.46,150.51 C 153.92,150.05 154.39,149.61 154.85,149.17 C 155.65,148.42 156.95,147.22 157.82,146.56 C 158.93,145.71 160.02,145.21 161.45,145.12 C 162.11,145.08 162.77,145.12 163.43,145.09 C 164.1,145.05 164.73,144.94 165.37,144.72 C 165.68,144.62 165.99,144.49 166.28,144.35 C 166.42,144.28 166.55,144.19 166.7,144.13 C 166.84,144.08 166.96,144.06 167.11,144.09 C 167.72,144.22 167.89,145.02 167.37,145.37 C 167.2,145.49 166.71,145.72 166.53,145.8 C 166.23,145.92 165.93,146.03 165.62,146.13 C 165.0,146.32 164.38,146.44 163.73,146.49 C 163.09,146.54 162.45,146.5 161.8,146.52 C 161.15,146.54 160.54,146.64 159.93,146.92 C 159.33,147.19 158.82,147.56 158.32,147.97 C 158.07,148.17 157.83,148.38 157.58,148.59 C 157.46,148.7 157.34,148.8 157.22,148.91 C 157.16,148.96 157.1,149.02 157.04,149.07 C 157.01,149.1 156.98,149.13 156.95,149.15 C 156.94,149.17 156.92,149.18 156.91,149.19 C 156.9,149.2 156.89,149.21 156.89,149.21 C 156.88,149.22 156.89,149.22 156.9,149.23 C 156.9,149.23 156.9,149.23 156.9,149.24 C 157.29,149.75 157.67,150.27 158.06,150.78 C 158.11,150.84 158.16,150.9 158.21,150.97 C 158.24,151.0 158.26,151.03 158.29,151.06 C 158.3,151.08 158.31,151.09 158.32,151.11 C 158.34,151.13 158.35,151.1 158.37,151.09 C 158.49,150.99 158.62,150.89 158.74,150.79 C 158.99,150.59 159.24,150.38 159.5,150.19 C 160.03,149.79 160.58,149.44 161.19,149.17 C 161.81,148.89 162.43,148.73 163.1,148.65 C 163.75,148.58 164.42,148.57 165.07,148.47 C 165.73,148.36 166.35,148.18 166.96,147.9 C 167.26,147.76 167.55,147.6 167.83,147.42 C 167.96,147.35 168.07,147.26 168.21,147.23 C 168.36,147.19 168.49,147.2 168.64,147.26 C 168.9,147.36 169.07,147.61 169.08,147.88 C 169.09,148.04 169.06,148.16 168.98,148.29 C 168.9,148.42 168.78,148.5 168.66,148.57 C 167.54,149.3 166.3,149.75 164.97,149.91 C 163.48,150.09 162.65,149.93 161.24,150.73 C 160.68,151.05 160.18,151.45 159.68,151.85 C 159.56,151.95 159.43,152.05 159.31,152.15 C 159.28,152.18 159.25,152.2 159.21,152.23 C 159.21,152.24 159.19,152.24 159.2,152.25 C 159.2,152.26 159.21,152.27 159.22,152.27 C 159.23,152.29 159.24,152.31 159.25,152.32 C 159.3,152.39 159.35,152.45 159.39,152.52 C 159.58,152.78 159.77,153.04 159.95,153.3 C 160.69,154.36 161.35,155.46 161.96,156.59 C 162.39,157.38 163.34,159.2 163.61,160.06 z"
		 />

		<!-- Prism Reference -->
		<cam mingh:cam="--verb EditSelectAll --verb ZoomSelection --verb FileSave" /> 
	 </g>

</svg>
