<svg
   xmlns:xlink="http://www.w3.org/1999/xlink"
   xmlns:svg="http://www.w3.org/2000/svg"
   xmlns="http://www.w3.org/2000/svg"
   xmlns:mingh="http://www.minghworld.com"
   width="300px"
   height="300px" >
	
	 <g>
		
		<!-- Paths -->
		<path style="fill:none;stroke:#000;stroke-width:0.25px;"
		 d="M 150.97,124.19 C 150.43,124.19 149.88,124.3 149.38,124.53 C 148.7,124.84 148.16,125.31 147.75,125.94 C 147.35,126.56 147.14,127.26 147.13,128.0 C 147.11,128.74 147.3,129.42 147.69,130.06 C 147.75,130.15 147.83,130.29 147.97,130.5 C 148.1,130.69 148.18,130.86 148.25,130.97 C 148.47,131.36 148.57,131.69 148.5,132.0 C 148.49,132.07 148.43,132.08 148.38,132.06 C 148.19,132.0 147.91,131.92 147.53,131.78 C 147.48,131.76 147.46,131.76 147.44,131.81 C 146.94,132.93 146.51,134.07 146.19,135.25 C 145.84,136.54 145.63,137.87 145.5,139.19 C 145.37,140.52 145.34,141.83 145.44,143.16 C 145.53,144.42 145.71,145.68 146.0,146.91 C 146.01,146.93 146.01,146.95 146.0,146.97 C 144.77,148.72 143.29,150.82 141.59,153.25 C 141.59,153.26 141.58,153.24 141.56,153.25 C 137.81,155.51 135.51,156.92 134.66,157.44 C 133.2,158.32 132.04,159.02 131.16,159.56 C 130.86,159.74 130.59,159.92 130.31,160.09 C 129.84,160.39 129.57,160.55 129.5,160.63 C 129.1,161.0 128.99,161.6 129.19,162.47 C 129.57,164.04 130.29,165.31 131.38,166.25 C 131.89,166.69 132.41,166.84 132.91,166.72 C 133.03,166.69 133.32,166.56 133.78,166.34 C 134.07,166.21 134.37,166.07 134.72,165.91 C 136.29,165.16 138.69,164.0 141.97,162.41 C 142.63,162.09 142.99,161.9 143.06,161.88 C 143.34,161.76 143.56,161.73 143.69,161.78 C 143.87,161.87 143.93,162.22 143.88,162.84 C 143.81,163.46 143.74,164.3 143.63,165.38 C 143.5,166.57 143.4,167.41 143.34,167.91 C 143.15,169.88 143.02,171.34 142.94,172.28 C 142.9,172.65 142.87,172.98 142.84,173.28 C 142.82,173.61 142.84,173.9 142.94,174.13 C 143.13,174.56 143.63,174.93 144.38,175.22 C 145.96,175.85 147.4,175.96 148.69,175.59 C 149.29,175.42 149.66,175.09 149.81,174.56 C 149.84,174.47 149.91,174.15 150.03,173.59 C 150.1,173.27 150.17,172.93 150.25,172.56 C 150.43,171.67 150.93,169.04 151.78,164.66 C 151.79,164.62 151.81,164.6 151.84,164.63 C 152.05,164.81 152.37,164.92 152.75,164.97 C 153.0,165.0 153.29,165.01 153.69,165.0 C 153.71,165.0 153.74,165.02 153.75,165.03 C 153.76,165.05 153.74,165.06 153.72,165.06 C 153.17,165.46 152.78,165.92 152.56,166.47 C 152.32,167.07 152.29,167.68 152.5,168.28 C 152.71,168.85 153.13,169.31 153.75,169.63 C 154.34,169.92 154.95,170.04 155.56,169.94 C 156.76,169.76 157.65,168.99 158.25,167.63 C 158.45,167.19 158.64,166.58 158.81,165.84 C 159.02,164.97 159.15,164.37 159.22,164.03 C 159.23,163.95 159.27,163.92 159.34,163.97 C 159.81,164.28 160.12,164.48 160.25,164.56 C 160.3,164.6 160.34,164.61 160.38,164.56 C 160.77,163.92 161.06,163.31 161.28,162.78 C 161.85,161.44 162.19,159.82 162.28,157.88 C 162.42,154.97 161.97,152.38 160.94,150.09 C 160.44,148.99 159.7,147.85 158.72,146.72 C 158.7,146.69 158.68,146.68 158.69,146.66 C 158.8,146.22 158.95,145.74 159.09,145.22 C 159.11,145.17 159.11,145.15 159.16,145.16 C 161.03,145.35 162.69,144.81 164.09,143.56 C 164.11,143.55 164.13,143.56 164.16,143.56 L 165.94,143.63 C 165.98,143.63 166.0,143.6 166.0,143.56 C 165.97,142.57 165.98,141.82 165.97,141.31 C 165.97,141.3 165.97,141.29 165.97,141.28 C 166.01,141.16 166.08,140.99 166.16,140.75 C 166.24,140.51 166.3,140.31 166.34,140.19 C 166.36,140.15 166.37,140.13 166.41,140.13 C 167.7,140.05 168.66,140.01 169.31,139.97 C 169.38,139.97 169.42,139.93 169.38,139.88 C 169.06,139.49 168.47,138.79 167.59,137.75 C 167.57,137.72 167.57,137.7 167.59,137.69 C 168.33,137.39 169.42,136.95 170.88,136.38 C 170.9,136.36 170.91,136.34 170.91,136.31 C 170.9,136.29 170.89,136.29 170.88,136.28 L 166.59,134.88 C 166.57,134.87 166.55,134.84 166.56,134.81 C 166.73,134.47 166.96,133.97 167.28,133.28 C 167.6,132.59 167.87,132.09 168.03,131.75 C 168.04,131.72 168.02,131.71 168.0,131.69 C 167.98,131.67 167.96,131.65 167.94,131.66 C 167.55,131.85 167.06,132.08 166.44,132.38 C 165.64,132.75 165.12,133.02 164.91,133.13 C 164.87,133.14 164.84,133.11 164.81,133.09 C 164.64,132.96 164.41,132.79 164.13,132.56 C 164.11,132.55 164.1,132.53 164.09,132.5 C 163.94,131.58 163.69,130.19 163.38,128.34 C 163.36,128.27 163.33,128.26 163.28,128.31 C 161.8,129.91 160.91,130.88 160.63,131.19 C 160.61,131.21 160.61,131.21 160.59,131.19 C 160.35,130.84 159.96,130.31 159.47,129.63 C 158.98,128.93 158.62,128.44 158.38,128.09 C 158.36,128.07 158.37,128.06 158.34,128.06 C 158.32,128.06 158.29,128.07 158.28,128.09 C 157.77,130.02 157.39,131.47 157.13,132.44 C 157.12,132.46 157.11,132.48 157.09,132.47 C 156.53,132.24 156.0,132.01 155.5,131.81 C 155.49,131.81 155.5,131.8 155.5,131.78 C 155.5,131.77 155.51,131.76 155.53,131.75 C 156.09,131.62 156.51,131.44 156.81,131.22 C 157.27,130.89 157.43,130.5 157.28,130.0 C 157.15,129.54 156.82,129.24 156.28,129.09 C 156.11,129.05 155.86,129.04 155.56,129.06 C 155.39,129.07 155.17,129.07 154.88,129.09 C 154.8,129.1 154.77,129.05 154.78,128.97 C 154.96,128.25 154.92,127.55 154.69,126.84 C 154.45,126.14 154.04,125.54 153.47,125.06 C 152.89,124.59 152.24,124.32 151.5,124.22 C 151.32,124.2 151.15,124.19 150.97,124.19 z M 151.03,126.06 C 151.2,126.05 151.36,126.06 151.53,126.09 C 151.84,126.16 152.13,126.32 152.38,126.53 C 152.92,126.97 153.19,127.72 153.03,128.41 C 152.88,129.23 152.12,129.89 151.28,129.94 C 150.61,129.99 149.9,129.66 149.53,129.09 C 149.03,128.4 149.09,127.39 149.66,126.75 C 149.99,126.35 150.52,126.09 151.03,126.06 z M 153.16,132.0 C 153.19,132.0 153.21,132.0 153.22,132.03 C 153.28,132.49 153.33,132.96 153.41,133.41 C 153.57,134.42 153.75,135.4 153.94,136.41 C 153.22,138.16 153.29,139.91 154.13,141.63 C 154.15,141.67 154.14,141.69 154.09,141.72 C 154.0,141.79 153.83,141.89 153.63,142.03 C 153.42,142.17 153.29,142.3 153.19,142.38 C 153.14,142.41 153.1,142.4 153.06,142.34 C 152.25,141.04 151.81,139.6 151.75,138.06 C 151.69,136.53 152.02,135.09 152.72,133.72 C 152.75,133.65 152.72,133.61 152.66,133.59 C 152.29,133.46 152.03,133.35 151.84,133.28 C 151.79,133.26 151.76,133.25 151.78,133.19 C 151.96,132.69 152.11,132.39 152.22,132.28 C 152.38,132.13 152.69,132.03 153.16,132.0 z M 155.78,156.28 C 155.79,156.28 155.81,156.29 155.81,156.31 C 156.24,158.05 156.21,159.77 155.72,161.47 C 155.71,161.51 155.71,161.54 155.75,161.56 C 155.83,161.61 155.98,161.72 156.22,161.88 C 156.41,162.01 156.55,162.11 156.66,162.19 C 156.71,162.22 156.72,162.27 156.69,162.31 C 156.52,162.56 156.42,162.73 156.34,162.81 C 156.19,162.98 156.01,163.06 155.81,163.06 C 155.68,163.07 155.49,163.03 155.22,162.97 C 155.0,162.92 154.8,162.88 154.63,162.84 C 153.72,162.67 152.89,162.67 152.19,162.81 C 152.15,162.82 152.15,162.81 152.16,162.78 C 152.24,162.37 152.34,161.76 152.5,160.94 C 152.5,160.92 152.52,160.92 152.53,160.91 C 153.96,158.87 155.03,157.33 155.75,156.31 C 155.77,156.29 155.77,156.28 155.78,156.28 z"
		 />
		 <path style="fill:#00f;stroke:none;"
		 d="M 156.14,149.98 C 156.16,148.48 155.21,147.02 153.83,146.43 C 152.59,145.85 151.04,146.04 149.95,146.86 C 148.66,147.8 148.05,149.58 148.54,151.1 C 148.95,152.5 150.21,153.59 151.64,153.81 C 153.12,154.06 154.71,153.36 155.51,152.1 C 155.92,151.47 156.14,150.73 156.14,149.98 z"
		 />
		
		<!-- Prism Reference -->
		<cam mingh:cam="--verb EditSelectAll --verb ZoomSelection --verb FileSave" /> 
	 </g>

</svg>
