<svg
   xmlns:xlink="http://www.w3.org/1999/xlink"
   xmlns:svg="http://www.w3.org/2000/svg"
   xmlns="http://www.w3.org/2000/svg"
   xmlns:mingh="http://www.minghworld.com"
   width="300px"
   height="300px" >
	
	 <g>
		
		<!-- Paths -->
		<path style="fill:none;stroke:#000;stroke-width:0.25px;"
		 d="M 136.59,124.13 C 135.84,124.13 135.13,124.21 134.44,124.47 C 133.84,124.69 133.27,125.04 132.88,125.53 C 132.52,125.97 132.29,126.54 132.28,127.09 C 132.27,127.47 132.36,127.85 132.53,128.19 C 132.68,128.48 132.9,128.74 133.16,128.94 C 133.34,129.07 133.54,129.19 133.75,129.28 C 134.02,129.4 134.31,129.5 134.72,129.69 C 135.07,129.85 135.52,130.07 135.75,130.28 C 136.09,130.6 135.97,130.9 135.84,131.13 C 135.68,131.41 135.51,131.59 135.31,131.78 C 135.25,131.84 135.19,131.87 135.13,131.94 C 134.59,132.45 134.08,133.04 133.66,133.69 C 132.71,135.12 132.16,136.82 131.78,138.41 C 131.2,140.83 131.01,143.05 131.22,145.16 C 131.39,146.85 131.81,148.47 132.66,149.94 C 133.49,151.38 134.75,152.67 136.81,153.75 C 136.85,153.77 136.84,153.78 136.84,153.81 C 136.95,154.4 137.19,154.99 137.5,155.5 C 138.18,156.61 139.28,157.43 140.44,158.06 C 140.98,158.36 141.52,158.62 142.09,158.84 C 142.15,158.87 142.19,158.91 142.16,158.97 C 141.84,159.5 141.59,160.09 141.53,160.69 C 141.44,161.55 141.76,162.48 142.38,163.06 C 142.99,163.65 143.9,163.87 144.78,164.06 C 144.81,164.07 144.84,164.09 144.88,164.09 C 144.96,164.11 144.96,164.22 144.91,164.28 C 144.81,164.38 144.72,164.49 144.63,164.59 C 144.03,165.26 143.5,165.97 143.0,166.72 C 142.44,167.56 141.92,168.45 141.56,169.41 C 141.22,170.32 141.04,171.3 141.19,172.25 C 141.29,172.9 141.54,173.54 141.91,174.03 C 142.12,174.32 142.39,174.55 142.72,174.72 C 143.07,174.9 143.5,174.99 143.97,174.94 C 144.34,174.89 144.73,174.75 145.09,174.75 C 145.56,174.76 145.97,175.03 146.31,175.22 C 146.57,175.36 146.81,175.45 147.06,175.53 C 147.67,175.73 148.5,175.85 149.28,175.88 C 149.95,175.9 150.57,175.86 151.19,175.75 C 151.64,175.67 152.09,175.52 152.47,175.28 C 152.66,175.16 152.82,175.02 152.97,174.84 C 153.29,174.46 153.46,173.94 153.56,173.44 C 153.75,172.52 153.73,171.6 153.63,170.69 C 153.55,170.07 153.44,169.47 153.28,168.88 C 153.06,168.07 152.74,167.31 152.38,166.56 C 152.11,166.03 151.82,165.5 151.5,165.0 C 151.45,164.93 151.51,164.84 151.59,164.84 C 151.93,164.84 152.28,164.83 152.63,164.81 C 153.52,164.77 154.42,164.64 155.13,164.16 C 155.83,163.67 156.34,162.8 156.44,161.94 C 156.47,161.65 156.45,161.35 156.41,161.06 C 156.4,161.0 156.46,160.94 156.53,160.94 C 158.22,160.99 159.89,160.95 161.56,160.59 C 162.48,160.4 163.39,160.1 164.16,159.69 C 165.33,159.06 166.17,158.15 166.75,157.25 C 167.81,155.61 168.05,154.02 168.28,151.81 C 168.42,150.5 168.57,148.96 168.75,146.0 C 168.83,144.64 168.91,142.99 168.81,141.97 C 168.77,141.53 168.7,141.22 168.5,141.0 C 168.37,140.86 168.19,140.76 168.0,140.72 C 167.79,140.67 167.55,140.7 167.34,140.78 C 167.31,140.8 167.29,140.79 167.25,140.81 C 167.17,140.85 167.08,140.8 167.09,140.72 C 167.13,140.39 167.14,140.05 167.16,139.72 C 167.18,139.16 167.14,138.61 167.06,138.06 C 166.97,137.44 166.84,136.81 166.63,136.22 C 166.45,135.75 166.24,135.3 165.97,134.88 C 165.69,134.43 165.33,134.01 164.94,133.66 C 164.55,133.31 164.11,133.05 163.63,132.88 C 163.25,132.74 162.84,132.66 162.44,132.66 C 162.03,132.66 161.64,132.73 161.25,132.84 C 160.79,132.99 160.35,133.19 159.94,133.44 C 159.4,133.76 158.9,134.17 158.44,134.59 C 157.96,135.04 157.53,135.52 157.13,136.03 C 156.74,136.52 156.4,137.05 156.03,137.56 C 155.66,138.09 155.27,138.62 154.75,139.0 C 154.31,139.32 153.76,139.51 153.22,139.63 C 152.78,139.72 152.35,139.77 151.91,139.78 C 151.08,139.8 150.25,139.73 149.44,139.56 C 149.25,139.51 149.27,139.24 149.47,139.22 C 151.29,139.01 152.75,137.6 153.03,135.78 C 153.31,133.97 152.36,132.19 150.69,131.44 C 149.01,130.69 147.04,131.15 145.88,132.56 C 144.71,133.98 144.63,136.0 145.69,137.5 C 145.81,137.67 145.6,137.88 145.44,137.75 C 145.19,137.55 144.93,137.33 144.72,137.09 C 144.07,136.39 143.73,135.67 143.38,134.91 C 143.04,134.19 142.68,133.43 142.31,132.72 C 142.11,132.33 141.9,131.95 141.59,131.59 C 141.52,131.5 141.45,131.4 141.38,131.31 C 141.13,131.04 140.9,130.82 140.97,130.44 C 140.99,130.32 141.01,130.21 141.09,130.09 C 141.24,129.9 141.52,129.76 141.75,129.59 C 142.03,129.39 142.28,129.15 142.44,128.88 C 142.89,128.1 142.67,126.97 142.16,126.16 C 141.2,124.65 139.18,124.25 137.34,124.16 C 137.09,124.14 136.84,124.12 136.59,124.13 z M 149.0,133.22 C 149.13,133.22 149.28,133.23 149.41,133.25 C 149.66,133.3 149.88,133.39 150.09,133.53 C 150.31,133.67 150.48,133.85 150.63,134.06 C 150.77,134.27 150.89,134.53 150.94,134.78 C 150.99,135.03 150.99,135.28 150.94,135.53 C 150.89,135.78 150.77,136.04 150.63,136.25 C 150.48,136.46 150.31,136.64 150.09,136.78 C 149.88,136.92 149.66,137.01 149.41,137.06 C 149.16,137.11 148.88,137.11 148.63,137.06 C 148.37,137.01 148.15,136.92 147.94,136.78 C 147.73,136.64 147.55,136.46 147.41,136.25 C 147.26,136.04 147.14,135.78 147.09,135.53 C 147.04,135.28 147.04,135.03 147.09,134.78 C 147.14,134.53 147.26,134.27 147.41,134.06 C 147.55,133.85 147.73,133.67 147.94,133.53 C 148.15,133.39 148.37,133.3 148.63,133.25 C 148.75,133.23 148.87,133.22 149.0,133.22 z M 146.91,164.59 C 146.94,164.6 146.96,164.62 146.97,164.66 C 147.12,165.21 147.24,165.75 147.34,166.28 C 147.49,167.08 147.6,167.85 147.66,168.69 C 147.7,169.37 147.71,170.1 147.66,170.84 C 147.62,171.38 147.53,171.93 147.25,172.44 C 147.05,172.8 146.75,173.13 146.44,173.19 C 146.22,173.23 146.02,173.14 145.81,173.06 C 145.56,172.97 145.33,172.9 145.09,172.91 C 144.69,172.92 144.24,173.17 143.88,173.03 C 143.73,172.98 143.6,172.86 143.5,172.72 C 143.4,172.58 143.32,172.4 143.28,172.22 C 143.23,171.98 143.23,171.73 143.25,171.47 C 143.29,171.02 143.4,170.58 143.53,170.16 C 143.7,169.62 143.94,169.12 144.19,168.63 C 144.45,168.09 144.73,167.57 145.03,167.06 C 145.3,166.61 145.6,166.17 145.91,165.75 C 146.19,165.36 146.47,164.98 146.78,164.63 C 146.81,164.59 146.87,164.59 146.91,164.59 z"
		 />
		 <path style="fill:#f00;stroke:none;"
		 d="M 136.88,152.52 C 136.47,152.32 136.09,152.09 135.73,151.82 C 135.34,151.53 134.99,151.21 134.68,150.85 C 134.31,150.43 133.99,149.97 133.72,149.48 C 133.32,148.74 133.02,147.95 132.8,147.14 C 132.55,146.19 132.42,145.21 132.37,144.22 C 132.3,142.96 132.35,141.69 132.5,140.44 C 132.67,139.15 132.94,137.89 133.35,136.62 C 133.61,135.83 133.92,135.03 134.53,134.45 C 134.89,134.11 135.35,133.85 135.84,133.83 C 136.27,133.8 136.72,133.96 137.05,134.22 C 137.57,134.65 137.79,135.35 137.94,136.03 C 138.21,137.23 138.26,138.38 138.2,139.54 C 138.09,141.51 137.64,143.49 137.31,145.47 C 137.2,146.16 137.1,146.86 137.02,147.56 C 136.96,148.11 136.91,148.67 136.88,149.23 C 136.84,149.95 136.82,150.67 136.83,151.4 C 136.84,151.77 136.85,152.14 136.88,152.52 z M 136.91,131.74 C 137.04,131.69 137.19,131.67 137.28,131.71 C 137.33,131.74 137.36,131.77 137.37,131.82 C 137.39,131.86 137.38,131.91 137.37,131.95 C 137.36,132.0 137.33,132.05 137.3,132.09 C 137.26,132.14 137.21,132.18 137.15,132.22 C 137.1,132.26 137.03,132.28 136.97,132.3 C 136.91,132.32 136.85,132.33 136.79,132.33 C 136.64,132.35 136.49,132.38 136.34,132.43 C 136.19,132.47 136.05,132.53 135.91,132.6 C 135.64,132.74 135.39,132.93 135.18,133.12 C 135.13,133.16 135.08,133.2 135.04,133.24 C 135.0,133.28 134.95,133.32 134.92,133.35 C 134.85,133.41 134.81,133.45 134.81,133.45 C 134.81,133.45 134.81,133.44 134.83,133.42 C 134.85,133.4 134.88,133.36 134.91,133.32 C 134.95,133.28 134.99,133.23 135.04,133.17 C 135.09,133.12 135.14,133.07 135.2,133.02 C 135.69,132.52 136.24,132.03 136.91,131.74 z M 139.99,133.11 C 140.05,133.21 140.07,133.35 140.04,133.49 C 140.02,133.56 139.99,133.63 139.96,133.68 C 139.92,133.74 139.88,133.78 139.83,133.82 C 139.79,133.86 139.74,133.89 139.68,133.91 C 139.63,133.93 139.57,133.94 139.52,133.94 C 139.47,133.93 139.42,133.92 139.38,133.9 C 139.36,133.89 139.35,133.87 139.33,133.85 C 139.32,133.84 139.3,133.82 139.29,133.8 C 139.24,133.71 139.18,133.61 139.11,133.52 C 139.05,133.42 138.98,133.33 138.9,133.25 C 138.83,133.16 138.75,133.08 138.66,133.0 C 138.57,132.92 138.48,132.85 138.38,132.78 C 138.36,132.76 138.34,132.75 138.32,132.73 C 138.3,132.71 138.28,132.69 138.27,132.67 C 138.23,132.62 138.2,132.57 138.18,132.51 C 138.16,132.45 138.14,132.38 138.14,132.32 C 138.14,132.26 138.14,132.21 138.16,132.15 C 138.18,132.1 138.2,132.05 138.24,132.0 C 138.28,131.96 138.34,131.91 138.4,131.89 C 138.46,131.86 138.53,131.85 138.6,131.85 C 138.63,131.85 138.67,131.85 138.7,131.86 C 138.73,131.87 138.76,131.88 138.79,131.9 C 138.92,131.96 139.05,132.04 139.17,132.13 C 139.29,132.22 139.4,132.32 139.5,132.42 C 139.69,132.63 139.85,132.87 139.99,133.11 z M 139.98,128.73 C 139.99,128.59 140.02,128.44 140.07,128.31 C 140.16,128.12 140.33,127.97 140.45,127.77 C 140.57,127.59 140.64,127.36 140.64,127.15 C 140.64,126.75 140.37,126.41 140.06,126.15 C 139.55,125.72 138.92,125.49 138.3,125.33 C 137.99,125.26 137.69,125.2 137.38,125.18 C 137.78,125.13 138.17,125.13 138.58,125.15 C 139.18,125.18 139.84,125.25 140.38,125.53 C 140.77,125.73 141.1,126.05 141.23,126.46 C 141.35,126.82 141.31,127.26 141.15,127.63 C 141.05,127.89 140.89,128.12 140.66,128.24 C 140.52,128.31 140.35,128.34 140.22,128.43 C 140.12,128.5 140.04,128.61 139.98,128.73 z M 141.59,156.5 C 141.68,156.54 141.75,156.63 141.77,156.75 C 141.78,156.81 141.78,156.88 141.76,156.94 C 141.75,157.01 141.73,157.07 141.69,157.12 C 141.66,157.18 141.62,157.23 141.57,157.28 C 141.52,157.32 141.46,157.36 141.39,157.39 C 141.33,157.41 141.26,157.43 141.2,157.42 C 141.17,157.42 141.14,157.42 141.11,157.41 C 141.08,157.4 141.06,157.39 141.03,157.38 C 140.91,157.32 140.79,157.26 140.67,157.19 C 140.55,157.12 140.44,157.06 140.32,156.98 C 140.2,156.91 140.09,156.84 139.97,156.76 C 139.85,156.68 139.74,156.59 139.63,156.51 C 139.61,156.49 139.59,156.47 139.57,156.45 C 139.55,156.43 139.54,156.4 139.52,156.38 C 139.5,156.32 139.49,156.26 139.49,156.2 C 139.49,156.13 139.51,156.07 139.54,156.01 C 139.57,155.95 139.61,155.9 139.66,155.86 C 139.71,155.82 139.76,155.78 139.82,155.75 C 139.88,155.72 139.95,155.7 140.02,155.68 C 140.08,155.67 140.15,155.68 140.21,155.69 C 140.23,155.69 140.26,155.7 140.28,155.71 C 140.31,155.72 140.33,155.74 140.35,155.75 C 140.44,155.82 140.54,155.89 140.64,155.95 C 140.74,156.02 140.84,156.08 140.94,156.14 C 141.15,156.27 141.37,156.39 141.59,156.5 z M 139.33,154.73 C 139.38,154.8 139.41,154.92 139.37,155.04 C 139.36,155.1 139.33,155.16 139.29,155.22 C 139.25,155.27 139.21,155.31 139.15,155.35 C 139.1,155.39 139.05,155.42 138.98,155.44 C 138.92,155.47 138.85,155.48 138.78,155.47 C 138.71,155.47 138.64,155.45 138.59,155.42 C 138.56,155.4 138.54,155.39 138.51,155.37 C 138.49,155.35 138.47,155.32 138.46,155.3 C 138.38,155.19 138.3,155.07 138.23,154.95 C 138.16,154.83 138.09,154.71 138.03,154.58 C 137.97,154.46 137.92,154.33 137.88,154.2 C 137.83,154.06 137.79,153.93 137.77,153.8 C 137.76,153.77 137.76,153.74 137.76,153.71 C 137.76,153.68 137.76,153.65 137.77,153.62 C 137.78,153.55 137.82,153.49 137.86,153.43 C 137.9,153.37 137.96,153.31 138.02,153.27 C 138.08,153.23 138.14,153.21 138.2,153.19 C 138.27,153.17 138.33,153.16 138.4,153.16 C 138.46,153.16 138.52,153.17 138.58,153.19 C 138.63,153.22 138.68,153.25 138.71,153.29 C 138.73,153.31 138.74,153.33 138.75,153.35 C 138.76,153.37 138.77,153.4 138.77,153.42 C 138.8,153.53 138.83,153.65 138.86,153.77 C 138.9,153.88 138.94,153.99 138.99,154.1 C 139.08,154.32 139.19,154.53 139.33,154.73 z M 138.73,151.98 C 138.73,152.07 138.66,152.19 138.56,152.28 C 138.51,152.33 138.44,152.37 138.38,152.41 C 138.31,152.44 138.25,152.46 138.19,152.47 C 138.12,152.48 138.06,152.49 138.0,152.48 C 137.94,152.47 137.88,152.45 137.83,152.41 C 137.78,152.38 137.74,152.33 137.72,152.28 C 137.71,152.25 137.7,152.22 137.7,152.2 C 137.7,152.17 137.7,152.14 137.7,152.11 C 137.71,151.98 137.72,151.84 137.73,151.7 C 137.75,151.56 137.76,151.42 137.78,151.28 C 137.8,151.14 137.81,151.01 137.83,150.87 C 137.85,150.73 137.87,150.59 137.89,150.46 C 137.9,150.43 137.9,150.4 137.91,150.37 C 137.92,150.34 137.94,150.32 137.95,150.29 C 137.99,150.24 138.04,150.19 138.09,150.15 C 138.15,150.12 138.22,150.09 138.29,150.08 C 138.35,150.07 138.42,150.08 138.48,150.09 C 138.55,150.1 138.61,150.12 138.67,150.15 C 138.73,150.18 138.79,150.22 138.83,150.27 C 138.88,150.31 138.91,150.36 138.93,150.41 C 138.94,150.44 138.94,150.46 138.95,150.49 C 138.95,150.51 138.94,150.54 138.94,150.56 C 138.93,150.68 138.91,150.8 138.89,150.92 C 138.87,151.03 138.85,151.15 138.83,151.27 C 138.79,151.51 138.76,151.74 138.73,151.98 z M 139.19,149.06 C 139.17,149.16 139.1,149.27 138.99,149.33 C 138.93,149.36 138.86,149.38 138.8,149.39 C 138.73,149.4 138.66,149.39 138.6,149.38 C 138.54,149.37 138.48,149.35 138.42,149.31 C 138.36,149.28 138.3,149.24 138.26,149.19 C 138.21,149.14 138.18,149.08 138.17,149.02 C 138.16,148.99 138.15,148.97 138.15,148.94 C 138.15,148.91 138.16,148.89 138.16,148.86 C 138.18,148.74 138.2,148.61 138.22,148.48 C 138.25,148.35 138.27,148.23 138.29,148.1 C 138.31,147.97 138.33,147.85 138.35,147.72 C 138.37,147.59 138.39,147.46 138.42,147.34 C 138.42,147.31 138.43,147.29 138.44,147.26 C 138.44,147.24 138.46,147.21 138.47,147.19 C 138.51,147.14 138.55,147.1 138.61,147.07 C 138.67,147.04 138.73,147.02 138.8,147.01 C 138.86,147.0 138.93,147.0 138.99,147.01 C 139.05,147.02 139.11,147.04 139.17,147.07 C 139.23,147.1 139.29,147.14 139.33,147.19 C 139.37,147.24 139.4,147.3 139.42,147.36 C 139.43,147.39 139.44,147.41 139.44,147.44 C 139.44,147.47 139.43,147.5 139.43,147.52 C 139.42,147.65 139.39,147.78 139.37,147.91 C 139.35,148.03 139.33,148.16 139.31,148.29 C 139.27,148.55 139.23,148.8 139.19,149.06 z M 139.66,145.96 C 139.65,146.06 139.58,146.17 139.47,146.24 C 139.42,146.27 139.35,146.29 139.28,146.3 C 139.22,146.31 139.16,146.31 139.09,146.3 C 139.03,146.29 138.97,146.27 138.91,146.24 C 138.85,146.21 138.79,146.17 138.75,146.12 C 138.7,146.07 138.67,146.01 138.65,145.96 C 138.64,145.93 138.64,145.9 138.64,145.87 C 138.64,145.85 138.64,145.82 138.64,145.79 C 138.65,145.67 138.67,145.54 138.69,145.41 C 138.71,145.29 138.73,145.16 138.74,145.03 C 138.76,144.9 138.78,144.78 138.79,144.65 C 138.81,144.52 138.83,144.39 138.85,144.27 C 138.85,144.24 138.85,144.22 138.86,144.19 C 138.87,144.16 138.88,144.14 138.9,144.12 C 138.93,144.07 138.98,144.02 139.04,143.99 C 139.09,143.96 139.16,143.93 139.22,143.92 C 139.29,143.91 139.35,143.91 139.42,143.92 C 139.48,143.93 139.54,143.95 139.61,143.98 C 139.67,144.01 139.72,144.05 139.77,144.09 C 139.81,144.14 139.85,144.2 139.86,144.25 C 139.87,144.28 139.88,144.31 139.88,144.34 C 139.88,144.36 139.88,144.39 139.88,144.42 C 139.86,144.54 139.85,144.67 139.83,144.8 C 139.81,144.93 139.79,145.06 139.77,145.19 C 139.74,145.45 139.7,145.7 139.66,145.96 z M 140.09,142.85 C 140.07,142.95 140.01,143.06 139.89,143.13 C 139.84,143.17 139.77,143.19 139.71,143.21 C 139.64,143.22 139.58,143.22 139.51,143.21 C 139.45,143.2 139.39,143.18 139.33,143.15 C 139.26,143.13 139.21,143.09 139.16,143.04 C 139.12,142.99 139.08,142.94 139.06,142.88 C 139.05,142.86 139.05,142.83 139.05,142.8 C 139.05,142.78 139.05,142.75 139.05,142.72 C 139.06,142.6 139.08,142.48 139.1,142.35 C 139.11,142.23 139.13,142.1 139.14,141.98 C 139.16,141.85 139.18,141.73 139.19,141.6 C 139.21,141.47 139.22,141.35 139.24,141.23 C 139.24,141.2 139.24,141.17 139.25,141.15 C 139.26,141.12 139.27,141.1 139.29,141.07 C 139.32,141.02 139.37,140.98 139.42,140.94 C 139.48,140.9 139.55,140.87 139.61,140.85 C 139.68,140.83 139.74,140.82 139.81,140.82 C 139.87,140.82 139.94,140.84 140.0,140.86 C 140.06,140.88 140.12,140.91 140.16,140.96 C 140.21,141.0 140.24,141.05 140.26,141.11 C 140.27,141.13 140.28,141.16 140.28,141.19 C 140.28,141.22 140.28,141.24 140.28,141.27 C 140.27,141.4 140.25,141.53 140.23,141.66 C 140.22,141.79 140.2,141.93 140.18,142.06 C 140.15,142.32 140.12,142.58 140.08,142.85 z M 140.46,139.67 C 140.45,139.78 140.39,139.9 140.27,139.98 C 140.22,140.03 140.15,140.06 140.08,140.08 C 140.02,140.1 139.95,140.11 139.89,140.11 C 139.82,140.11 139.76,140.1 139.7,140.09 C 139.63,140.07 139.57,140.03 139.53,139.99 C 139.48,139.96 139.44,139.91 139.42,139.86 C 139.41,139.83 139.4,139.81 139.4,139.78 C 139.4,139.75 139.4,139.73 139.4,139.7 C 139.41,139.58 139.42,139.45 139.44,139.33 C 139.45,139.2 139.46,139.08 139.47,138.95 C 139.48,138.82 139.49,138.7 139.5,138.57 C 139.51,138.45 139.52,138.32 139.53,138.2 C 139.53,138.17 139.53,138.14 139.54,138.12 C 139.55,138.09 139.56,138.06 139.57,138.04 C 139.6,137.98 139.64,137.93 139.7,137.88 C 139.75,137.84 139.81,137.8 139.88,137.77 C 139.94,137.74 140.01,137.72 140.07,137.72 C 140.14,137.71 140.2,137.71 140.26,137.72 C 140.33,137.74 140.39,137.76 140.44,137.8 C 140.49,137.83 140.53,137.88 140.55,137.93 C 140.56,137.96 140.57,137.98 140.57,138.01 C 140.58,138.04 140.58,138.06 140.58,138.09 C 140.57,138.22 140.56,138.35 140.56,138.48 C 140.55,138.62 140.54,138.75 140.53,138.88 C 140.51,139.15 140.48,139.41 140.46,139.67 z M 140.6,136.48 C 140.6,136.58 140.55,136.71 140.45,136.82 C 140.4,136.87 140.34,136.91 140.28,136.94 C 140.21,136.97 140.15,136.99 140.09,137.0 C 140.02,137.01 139.96,137.01 139.89,137.0 C 139.83,136.99 139.77,136.97 139.72,136.94 C 139.67,136.9 139.63,136.86 139.6,136.81 C 139.59,136.79 139.58,136.77 139.57,136.74 C 139.57,136.72 139.56,136.69 139.56,136.66 C 139.56,136.54 139.55,136.41 139.55,136.28 C 139.54,136.16 139.53,136.03 139.52,135.91 C 139.51,135.78 139.5,135.66 139.49,135.55 C 139.48,135.43 139.46,135.32 139.45,135.21 C 139.44,135.18 139.44,135.16 139.44,135.13 C 139.44,135.11 139.45,135.08 139.46,135.05 C 139.48,135.0 139.51,134.94 139.55,134.88 C 139.59,134.82 139.64,134.77 139.7,134.72 C 139.75,134.67 139.81,134.64 139.87,134.61 C 139.93,134.58 139.99,134.56 140.05,134.56 C 140.12,134.55 140.18,134.56 140.24,134.58 C 140.3,134.61 140.34,134.65 140.38,134.69 C 140.4,134.72 140.41,134.74 140.42,134.77 C 140.43,134.8 140.44,134.83 140.44,134.86 C 140.47,134.99 140.49,135.14 140.51,135.28 C 140.52,135.42 140.54,135.56 140.55,135.69 C 140.58,135.96 140.59,136.22 140.6,136.48 z M 166.43,151.02 C 166.43,150.92 166.5,150.8 166.61,150.73 C 166.66,150.69 166.73,150.67 166.79,150.65 C 166.86,150.64 166.92,150.63 166.99,150.64 C 167.05,150.64 167.11,150.66 167.17,150.68 C 167.24,150.71 167.29,150.75 167.34,150.79 C 167.39,150.84 167.42,150.89 167.44,150.95 C 167.45,150.98 167.46,151.0 167.46,151.03 C 167.47,151.06 167.47,151.08 167.46,151.11 C 167.45,151.23 167.44,151.37 167.43,151.5 C 167.41,151.63 167.4,151.76 167.39,151.89 C 167.37,152.02 167.36,152.16 167.34,152.29 C 167.33,152.43 167.31,152.56 167.29,152.69 C 167.29,152.72 167.28,152.75 167.28,152.78 C 167.27,152.8 167.25,152.83 167.24,152.86 C 167.21,152.91 167.16,152.95 167.1,152.98 C 167.05,153.01 166.98,153.03 166.92,153.04 C 166.85,153.05 166.79,153.04 166.73,153.03 C 166.66,153.01 166.6,152.99 166.54,152.96 C 166.48,152.92 166.43,152.88 166.38,152.83 C 166.34,152.78 166.31,152.72 166.29,152.67 C 166.28,152.64 166.27,152.61 166.27,152.59 C 166.27,152.56 166.27,152.54 166.27,152.51 C 166.28,152.4 166.3,152.27 166.31,152.15 C 166.32,152.03 166.34,151.9 166.35,151.78 C 166.38,151.53 166.4,151.27 166.43,151.02 z M 166.68,147.93 C 166.69,147.83 166.75,147.71 166.85,147.64 C 166.91,147.6 166.97,147.57 167.04,147.55 C 167.1,147.53 167.17,147.53 167.23,147.53 C 167.29,147.53 167.36,147.54 167.42,147.57 C 167.48,147.59 167.54,147.63 167.59,147.67 C 167.64,147.71 167.67,147.77 167.69,147.82 C 167.71,147.85 167.71,147.87 167.72,147.9 C 167.72,147.93 167.72,147.95 167.72,147.98 C 167.71,148.11 167.7,148.24 167.69,148.37 C 167.68,148.5 167.67,148.63 167.66,148.76 C 167.65,148.89 167.64,149.02 167.63,149.15 C 167.62,149.28 167.61,149.41 167.6,149.54 C 167.6,149.56 167.59,149.59 167.59,149.62 C 167.58,149.64 167.57,149.67 167.55,149.69 C 167.52,149.74 167.48,149.79 167.43,149.83 C 167.37,149.87 167.31,149.9 167.24,149.91 C 167.18,149.93 167.11,149.93 167.05,149.93 C 166.98,149.92 166.92,149.91 166.86,149.88 C 166.8,149.85 166.74,149.82 166.69,149.77 C 166.64,149.73 166.61,149.67 166.59,149.62 C 166.57,149.59 166.57,149.57 166.56,149.54 C 166.56,149.51 166.56,149.49 166.56,149.46 C 166.57,149.34 166.58,149.21 166.59,149.08 C 166.6,148.95 166.61,148.82 166.62,148.69 C 166.64,148.44 166.66,148.18 166.68,147.93 z M 166.88,144.84 C 166.88,144.74 166.94,144.62 167.04,144.54 C 167.1,144.5 167.16,144.46 167.23,144.44 C 167.29,144.42 167.35,144.41 167.42,144.41 C 167.48,144.41 167.55,144.42 167.61,144.44 C 167.67,144.47 167.73,144.5 167.78,144.54 C 167.83,144.58 167.87,144.63 167.89,144.68 C 167.9,144.71 167.91,144.74 167.92,144.76 C 167.92,144.79 167.92,144.82 167.92,144.85 C 167.92,144.97 167.91,145.1 167.9,145.23 C 167.89,145.36 167.89,145.49 167.88,145.62 C 167.87,145.75 167.86,145.88 167.85,146.01 C 167.85,146.15 167.84,146.28 167.83,146.4 C 167.83,146.43 167.82,146.46 167.82,146.48 C 167.81,146.51 167.8,146.54 167.78,146.56 C 167.75,146.61 167.71,146.66 167.66,146.7 C 167.6,146.74 167.54,146.77 167.47,146.79 C 167.41,146.81 167.34,146.82 167.28,146.81 C 167.22,146.81 167.15,146.8 167.09,146.78 C 167.03,146.76 166.97,146.72 166.92,146.68 C 166.87,146.64 166.84,146.58 166.81,146.53 C 166.8,146.5 166.79,146.48 166.79,146.45 C 166.79,146.43 166.79,146.4 166.79,146.37 C 166.79,146.25 166.8,146.12 166.81,145.99 C 166.82,145.86 166.83,145.73 166.83,145.61 C 166.85,145.35 166.86,145.09 166.88,144.84 z M 164.81,156.63 C 164.87,156.56 164.97,156.5 165.1,156.5 C 165.17,156.49 165.23,156.5 165.3,156.53 C 165.36,156.55 165.42,156.58 165.47,156.61 C 165.52,156.65 165.57,156.7 165.61,156.75 C 165.65,156.81 165.68,156.87 165.69,156.94 C 165.71,157.0 165.71,157.07 165.7,157.13 C 165.69,157.16 165.68,157.19 165.67,157.21 C 165.66,157.24 165.64,157.26 165.62,157.28 C 165.54,157.39 165.45,157.49 165.36,157.59 C 165.27,157.7 165.18,157.79 165.08,157.89 C 164.98,157.98 164.88,158.08 164.78,158.17 C 164.67,158.26 164.57,158.35 164.46,158.42 C 164.44,158.44 164.42,158.46 164.39,158.47 C 164.36,158.48 164.33,158.49 164.3,158.5 C 164.24,158.51 164.17,158.51 164.1,158.49 C 164.04,158.48 163.97,158.45 163.91,158.41 C 163.85,158.38 163.8,158.33 163.76,158.28 C 163.72,158.23 163.68,158.18 163.66,158.12 C 163.64,158.06 163.62,157.99 163.62,157.93 C 163.62,157.87 163.64,157.81 163.66,157.76 C 163.67,157.74 163.69,157.72 163.7,157.7 C 163.72,157.68 163.74,157.67 163.76,157.65 C 163.85,157.58 163.95,157.5 164.05,157.42 C 164.14,157.34 164.23,157.26 164.32,157.18 C 164.49,157.01 164.66,156.82 164.81,156.63 z M 166.03,153.97 C 166.05,153.88 166.12,153.79 166.23,153.74 C 166.29,153.72 166.35,153.71 166.42,153.7 C 166.48,153.7 166.55,153.71 166.61,153.73 C 166.67,153.75 166.73,153.78 166.79,153.82 C 166.84,153.86 166.9,153.91 166.94,153.97 C 166.98,154.03 167.0,154.09 167.01,154.16 C 167.02,154.19 167.02,154.22 167.02,154.25 C 167.02,154.28 167.02,154.3 167.01,154.33 C 166.98,154.46 166.95,154.59 166.91,154.72 C 166.87,154.86 166.83,154.99 166.79,155.11 C 166.74,155.24 166.7,155.37 166.65,155.5 C 166.59,155.63 166.54,155.75 166.48,155.87 C 166.47,155.9 166.46,155.92 166.44,155.95 C 166.42,155.97 166.4,155.99 166.38,156.01 C 166.33,156.04 166.28,156.07 166.21,156.08 C 166.15,156.09 166.08,156.09 166.02,156.08 C 165.95,156.06 165.89,156.04 165.84,156.0 C 165.78,155.97 165.73,155.93 165.69,155.88 C 165.64,155.82 165.61,155.76 165.58,155.7 C 165.55,155.64 165.54,155.58 165.54,155.52 C 165.54,155.49 165.54,155.46 165.55,155.44 C 165.55,155.41 165.56,155.39 165.57,155.36 C 165.62,155.25 165.67,155.14 165.71,155.03 C 165.76,154.91 165.8,154.8 165.83,154.68 C 165.91,154.45 165.97,154.21 166.03,153.97 z M 136.59,125.27 C 136.25,125.28 135.89,125.33 135.56,125.5 C 135.27,125.66 135.01,125.92 134.85,126.16 C 134.63,126.5 134.61,126.82 134.68,127.15 C 134.74,127.42 134.86,127.69 135.04,127.9 C 135.25,128.14 135.53,128.29 135.92,128.39 C 136.29,128.48 136.77,128.52 137.25,128.51 C 137.98,128.48 138.74,128.32 139.28,128.48 C 139.55,128.57 139.76,128.73 139.83,128.99 C 139.87,129.14 139.86,129.33 139.82,129.5 C 139.77,129.72 139.67,129.92 139.54,130.09 C 139.54,130.04 139.58,129.78 139.54,129.59 C 139.47,129.3 139.2,129.17 138.94,129.13 C 138.55,129.08 138.16,129.24 137.76,129.33 C 137.3,129.43 136.83,129.43 136.36,129.4 C 135.89,129.36 135.42,129.28 134.96,129.12 C 134.5,128.96 134.05,128.72 133.74,128.36 C 133.42,128.0 133.24,127.52 133.28,127.01 C 133.32,126.54 133.56,126.05 133.94,125.69 C 134.18,125.47 134.48,125.3 134.77,125.21 C 134.91,125.16 135.06,125.13 135.2,125.12 C 135.66,125.07 136.18,125.15 136.59,125.27 z M 159.57,158.93 C 159.66,158.92 159.79,158.96 159.9,159.05 C 159.95,159.1 160.0,159.15 160.04,159.21 C 160.08,159.27 160.11,159.33 160.12,159.39 C 160.14,159.46 160.15,159.52 160.15,159.58 C 160.15,159.65 160.13,159.71 160.1,159.77 C 160.08,159.82 160.03,159.87 159.99,159.9 C 159.96,159.91 159.94,159.93 159.91,159.93 C 159.88,159.94 159.86,159.95 159.83,159.95 C 159.7,159.97 159.56,159.98 159.42,159.99 C 159.29,160.0 159.15,160.01 159.01,160.02 C 158.88,160.03 158.74,160.04 158.61,160.04 C 158.47,160.05 158.34,160.06 158.21,160.06 C 158.19,160.06 158.16,160.06 158.13,160.05 C 158.1,160.05 158.08,160.04 158.05,160.03 C 157.99,160.0 157.94,159.96 157.89,159.91 C 157.84,159.86 157.8,159.8 157.78,159.74 C 157.75,159.67 157.73,159.61 157.73,159.55 C 157.72,159.48 157.72,159.42 157.74,159.35 C 157.75,159.29 157.78,159.23 157.81,159.18 C 157.85,159.13 157.89,159.08 157.94,159.06 C 157.97,159.04 157.99,159.03 158.02,159.03 C 158.04,159.02 158.07,159.02 158.1,159.02 C 158.22,159.01 158.35,159.01 158.47,159.01 C 158.6,159.0 158.72,158.99 158.84,158.99 C 159.08,158.97 159.33,158.96 159.57,158.93 z M 167.61,141.93 C 167.62,141.85 167.67,141.74 167.74,141.65 C 167.77,141.6 167.81,141.55 167.84,141.51 C 167.88,141.48 167.92,141.45 167.95,141.42 C 167.99,141.4 168.02,141.39 168.05,141.39 C 168.09,141.38 168.12,141.39 168.14,141.42 C 168.16,141.45 168.18,141.48 168.19,141.53 C 168.2,141.55 168.2,141.58 168.2,141.61 C 168.2,141.63 168.2,141.66 168.2,141.69 C 168.19,141.82 168.18,141.96 168.17,142.09 C 168.15,142.23 168.14,142.36 168.12,142.49 C 168.1,142.62 168.08,142.75 168.05,142.88 C 168.03,143.01 168.01,143.14 167.99,143.26 C 167.99,143.29 167.98,143.32 167.98,143.34 C 167.97,143.37 167.96,143.4 167.95,143.43 C 167.93,143.48 167.91,143.54 167.87,143.58 C 167.84,143.63 167.79,143.66 167.74,143.69 C 167.69,143.71 167.64,143.72 167.58,143.73 C 167.53,143.73 167.47,143.72 167.42,143.7 C 167.37,143.69 167.31,143.66 167.27,143.62 C 167.23,143.58 167.21,143.53 167.2,143.48 C 167.19,143.46 167.19,143.43 167.19,143.41 C 167.19,143.38 167.2,143.36 167.2,143.33 C 167.23,143.21 167.27,143.09 167.31,142.97 C 167.35,142.85 167.38,142.73 167.42,142.61 C 167.49,142.38 167.56,142.15 167.61,141.93 z M 162.46,158.35 C 162.54,158.32 162.68,158.32 162.81,158.37 C 162.87,158.4 162.94,158.44 163.0,158.48 C 163.05,158.53 163.1,158.58 163.13,158.63 C 163.17,158.68 163.2,158.74 163.22,158.8 C 163.24,158.86 163.24,158.93 163.23,158.99 C 163.22,159.05 163.2,159.11 163.16,159.15 C 163.15,159.17 163.13,159.19 163.1,159.21 C 163.08,159.22 163.06,159.23 163.03,159.24 C 162.91,159.3 162.78,159.34 162.65,159.39 C 162.52,159.43 162.39,159.47 162.26,159.51 C 162.13,159.55 162.0,159.58 161.86,159.62 C 161.73,159.65 161.6,159.68 161.47,159.7 C 161.44,159.71 161.41,159.71 161.38,159.71 C 161.35,159.71 161.32,159.71 161.29,159.7 C 161.22,159.69 161.16,159.66 161.09,159.62 C 161.03,159.58 160.98,159.53 160.93,159.47 C 160.89,159.41 160.86,159.35 160.83,159.29 C 160.81,159.23 160.79,159.17 160.79,159.11 C 160.79,159.04 160.8,158.98 160.82,158.92 C 160.84,158.87 160.87,158.82 160.91,158.79 C 160.93,158.77 160.95,158.76 160.97,158.75 C 160.99,158.74 161.02,158.73 161.04,158.73 C 161.16,158.7 161.28,158.68 161.4,158.65 C 161.52,158.63 161.64,158.6 161.76,158.57 C 161.99,158.51 162.23,158.44 162.46,158.35 z M 161.22,158.1 L 160.32,155.7 L 157.79,155.34 L 159.79,153.75 L 159.35,151.23 L 161.49,152.65 L 163.75,151.45 L 163.06,153.91 L 164.9,155.69 L 162.34,155.8 z M 153.34,154.26 L 155.04,153.86 L 155.5,152.17 L 156.41,153.66 L 158.15,153.58 L 157.01,154.91 L 157.63,156.54 L 156.02,155.87 L 154.66,156.96 L 154.8,155.22 z M 164.95,152.01 L 164.03,150.91 L 162.63,151.19 L 163.39,149.97 L 162.69,148.73 L 164.08,149.08 L 165.05,148.02 L 165.14,149.45 L 166.45,150.05 L 165.12,150.58 z M 134.27,133.1 C 134.68,132.58 135.15,132.1 135.63,131.64 C 135.95,131.34 136.27,131.05 136.64,130.82 C 137.07,130.55 137.55,130.38 138.06,130.32 C 138.58,130.25 139.13,130.29 139.63,130.45 C 140.3,130.65 140.89,131.04 141.36,131.56 C 141.96,132.24 142.35,133.13 142.43,134.04 C 142.48,134.58 142.42,135.12 142.31,135.65 C 142.17,136.34 141.94,137.02 141.72,137.69 C 141.51,138.35 141.29,139.0 141.09,139.65 C 140.93,140.18 140.77,140.71 140.62,141.24 C 140.47,141.77 140.33,142.3 140.19,142.83 C 140.33,142.2 140.47,141.57 140.61,140.94 C 140.76,140.21 140.92,139.48 141.11,138.75 C 141.28,138.08 141.48,137.42 141.64,136.74 C 141.81,136.06 141.93,135.36 141.92,134.65 C 141.92,133.84 141.75,133.02 141.33,132.34 C 141.02,131.83 140.57,131.39 140.03,131.12 C 139.49,130.85 138.87,130.75 138.27,130.79 C 137.63,130.84 137.02,131.07 136.45,131.37 C 135.94,131.64 135.47,131.97 135.04,132.35 C 134.76,132.58 134.51,132.84 134.27,133.1 z M 148.91,160.41 C 148.73,160.38 148.6,160.42 148.46,160.54 C 148.31,160.66 148.27,160.81 148.25,160.99 C 148.21,161.33 148.17,161.66 148.12,161.99 C 148.11,162.12 148.09,162.25 148.08,162.38 C 148.07,162.46 148.06,162.53 148.06,162.61 C 148.08,162.74 148.12,162.85 148.22,162.95 C 148.35,163.09 148.49,163.12 148.67,163.14 C 148.83,163.16 149.0,163.18 149.17,163.2 C 149.35,163.23 149.48,163.19 149.62,163.07 C 149.77,162.94 149.81,162.8 149.83,162.61 C 149.87,162.28 149.91,161.95 149.96,161.62 C 149.97,161.49 149.99,161.36 150.0,161.23 C 150.01,161.15 150.02,161.08 150.02,161.0 C 150.0,160.86 149.96,160.76 149.86,160.66 C 149.73,160.52 149.59,160.49 149.41,160.47 C 149.25,160.45 149.08,160.43 148.91,160.41 z M 149.84,163.77 C 149.86,163.79 149.87,163.82 149.89,163.84 C 149.9,163.86 149.91,163.87 149.92,163.88 C 149.92,163.89 149.94,163.89 149.95,163.89 C 149.99,163.89 150.03,163.9 150.07,163.9 C 150.15,163.9 150.24,163.91 150.32,163.91 C 150.48,163.92 150.65,163.93 150.82,163.93 C 151.15,163.94 151.48,163.95 151.81,163.95 C 152.43,163.94 153.25,163.92 153.86,163.76 C 154.57,163.57 155.05,163.21 155.34,162.52 C 155.61,161.86 155.6,161.13 155.34,160.48 C 155.07,159.82 154.63,159.3 154.22,158.76 C 153.8,158.22 153.4,157.67 153.07,157.07 C 152.4,155.86 152.1,154.51 152.17,153.13 C 152.18,152.94 152.19,152.75 152.22,152.56 C 152.22,152.52 152.23,152.47 152.23,152.42 C 152.24,152.4 152.24,152.38 152.24,152.35 C 152.25,152.33 152.21,152.34 152.2,152.34 C 152.11,152.34 152.03,152.34 151.95,152.35 C 151.87,152.35 151.79,152.35 151.71,152.35 C 151.67,152.35 151.62,152.35 151.58,152.35 C 151.58,152.35 151.57,152.35 151.57,152.35 C 151.56,152.35 151.55,152.34 151.55,152.35 C 151.55,152.36 151.55,152.37 151.55,152.38 C 151.55,152.4 151.54,152.42 151.54,152.44 C 151.52,152.61 151.51,152.78 151.49,152.95 C 151.45,153.62 151.49,154.28 151.62,154.95 C 151.76,155.64 151.99,156.27 152.32,156.89 C 152.64,157.49 153.03,158.04 153.38,158.62 C 153.76,159.26 154.02,159.88 154.06,160.64 C 154.1,161.39 153.85,161.87 153.17,162.22 C 152.67,162.47 152.17,162.53 151.64,162.57 C 151.38,162.59 151.13,162.6 150.87,162.61 C 150.81,162.61 150.75,162.61 150.69,162.61 C 150.66,162.61 150.62,162.61 150.59,162.61 C 150.59,162.61 150.58,162.61 150.57,162.61 C 150.57,162.61 150.56,162.61 150.56,162.61 C 150.55,162.61 150.55,162.6 150.55,162.61 C 150.54,162.66 150.53,162.71 150.53,162.76 C 150.47,163.19 150.23,163.57 149.84,163.77 z M 147.29,160.2 C 147.12,160.18 146.95,160.16 146.79,160.14 C 146.61,160.12 146.46,160.12 146.31,160.22 C 146.19,160.29 146.12,160.38 146.07,160.51 C 146.05,160.58 146.04,160.66 146.03,160.73 C 146.01,160.86 146.0,160.99 145.98,161.13 C 145.94,161.46 145.9,161.79 145.86,162.12 C 145.83,162.3 145.84,162.46 145.96,162.62 C 146.06,162.76 146.18,162.83 146.36,162.86 C 146.53,162.88 146.69,162.9 146.86,162.92 C 147.03,162.94 147.18,162.94 147.34,162.84 C 147.45,162.76 147.53,162.68 147.57,162.55 C 147.6,162.47 147.61,162.4 147.62,162.33 C 147.63,162.19 147.65,162.06 147.66,161.93 C 147.71,161.6 147.75,161.27 147.79,160.94 C 147.81,160.75 147.81,160.6 147.69,160.44 C 147.58,160.29 147.47,160.23 147.29,160.2 z M 146.84,151.6 C 146.45,152.87 146.17,153.76 145.6,154.97 C 145.08,156.06 144.5,157.1 143.79,158.08 C 143.1,159.04 142.28,159.92 142.48,161.31 C 142.7,162.84 143.94,163.04 145.14,163.25 C 145.27,163.28 145.4,163.3 145.53,163.32 C 145.59,163.33 145.65,163.35 145.72,163.36 C 145.73,163.36 145.71,163.35 145.71,163.35 C 145.7,163.34 145.69,163.34 145.68,163.33 C 145.67,163.32 145.65,163.31 145.64,163.3 C 145.61,163.27 145.58,163.25 145.55,163.22 C 145.49,163.16 145.43,163.1 145.39,163.04 C 145.19,162.77 145.1,162.44 145.14,162.12 C 145.15,162.04 145.16,161.96 145.17,161.89 C 145.17,161.87 145.14,161.87 145.14,161.87 C 145.13,161.87 145.11,161.87 145.1,161.86 C 145.06,161.85 145.01,161.83 144.96,161.81 C 144.62,161.69 144.29,161.49 144.1,161.16 C 143.8,160.64 143.93,159.89 144.09,159.39 C 144.26,158.8 144.57,158.31 144.9,157.81 C 145.55,156.79 146.08,155.73 146.54,154.61 C 146.77,154.05 146.97,153.49 147.14,152.91 C 147.23,152.62 147.31,152.33 147.39,152.04 C 147.41,151.97 147.43,151.89 147.45,151.82 C 147.45,151.8 147.42,151.8 147.41,151.8 C 147.39,151.79 147.37,151.79 147.35,151.78 C 147.32,151.77 147.28,151.76 147.25,151.75 C 147.11,151.7 146.97,151.65 146.83,151.6 z M 147.33,155.01 C 147.12,155.52 146.91,156.02 146.66,156.5 C 146.42,156.99 146.13,157.45 145.86,157.92 C 145.58,158.4 145.33,158.87 145.16,159.39 C 145.07,159.66 145.01,159.92 145.03,160.21 C 145.05,160.33 145.07,160.43 145.13,160.54 C 145.16,160.58 145.19,160.63 145.22,160.67 C 145.24,160.69 145.26,160.71 145.28,160.73 C 145.29,160.74 145.3,160.75 145.31,160.76 C 145.32,160.77 145.31,160.75 145.31,160.75 C 145.31,160.74 145.31,160.73 145.32,160.73 C 145.32,160.71 145.32,160.7 145.32,160.68 C 145.32,160.66 145.33,160.63 145.33,160.6 C 145.4,160.03 145.77,159.58 146.34,159.45 C 146.44,159.43 146.54,159.42 146.64,159.42 C 146.67,159.42 146.69,159.42 146.72,159.42 C 146.73,159.42 146.74,159.42 146.75,159.42 C 146.76,159.42 146.76,159.42 146.77,159.43 C 146.78,159.43 146.78,159.43 146.78,159.42 C 146.79,159.39 146.79,159.36 146.8,159.33 C 146.81,159.21 146.83,159.09 146.84,158.97 C 146.87,158.73 146.9,158.49 146.93,158.25 C 147.06,157.17 147.2,156.09 147.33,155.01 z M 148.06,151.98 C 147.75,154.48 147.45,156.97 147.14,159.47 C 147.36,159.5 147.58,159.53 147.8,159.55 C 148.11,157.07 148.41,154.59 148.72,152.11 C 148.5,152.08 148.28,152.03 148.06,151.98 z M 149.5,152.23 C 149.19,154.7 148.88,157.18 148.58,159.65 C 148.8,159.68 149.02,159.7 149.24,159.73 C 149.55,157.25 149.85,154.77 150.16,152.29 C 149.94,152.28 149.72,152.26 149.5,152.23 z M 150.52,152.32 C 150.29,154.13 150.07,155.93 149.84,157.74 C 149.79,158.15 149.74,158.55 149.69,158.96 C 149.67,159.16 149.64,159.36 149.62,159.56 C 149.61,159.62 149.6,159.67 149.6,159.72 C 149.6,159.73 149.6,159.74 149.59,159.75 C 149.59,159.76 149.59,159.77 149.59,159.77 C 149.59,159.78 149.6,159.78 149.6,159.78 C 149.61,159.78 149.61,159.78 149.62,159.78 C 149.66,159.78 149.7,159.79 149.74,159.8 C 149.92,159.85 150.07,159.92 150.22,160.03 C 150.55,160.28 150.74,160.67 150.73,161.09 C 150.72,161.28 150.69,161.47 150.67,161.65 C 150.66,161.67 150.63,161.75 150.67,161.75 C 150.68,161.75 150.7,161.75 150.71,161.75 C 150.74,161.75 150.77,161.75 150.8,161.75 C 151.03,161.75 151.26,161.73 151.49,161.68 C 151.93,161.6 152.43,161.4 152.75,161.06 C 153.1,160.69 153.09,160.29 152.95,159.84 C 152.72,159.07 152.01,158.13 151.63,157.46 C 151.16,156.65 150.87,155.82 150.71,154.9 C 150.64,154.45 150.6,154.0 150.59,153.55 C 150.59,153.32 150.6,153.1 150.61,152.87 C 150.62,152.76 150.63,152.65 150.64,152.53 C 150.65,152.48 150.65,152.42 150.66,152.37 C 150.66,152.36 150.66,152.35 150.66,152.34 C 150.66,152.34 150.67,152.33 150.66,152.32 C 150.65,152.32 150.63,152.32 150.61,152.32 C 150.58,152.32 150.55,152.32 150.52,152.32 z M 144.97,147.11 C 145.06,147.52 145.21,147.91 145.41,148.26 C 145.78,148.89 146.34,149.4 146.95,149.77 C 147.56,150.14 148.21,150.37 148.9,150.54 C 149.59,150.7 150.32,150.81 151.05,150.86 C 151.79,150.9 152.52,150.88 153.25,150.82 C 153.98,150.75 154.71,150.64 155.43,150.48 C 156.16,150.33 156.88,150.13 157.57,149.86 C 158.26,149.59 158.92,149.25 159.53,148.85 C 160.15,148.45 160.71,147.98 161.24,147.47 C 161.77,146.96 162.25,146.4 162.68,145.81 C 163.12,145.22 163.5,144.59 163.82,143.93 C 164.14,143.27 164.39,142.58 164.56,141.86 C 164.72,141.15 164.79,140.41 164.75,139.68 C 164.71,138.94 164.56,138.22 164.27,137.54 C 163.98,136.86 163.56,136.22 162.97,135.79 C 162.38,135.37 161.63,135.17 160.9,135.22 C 160.18,135.27 159.48,135.58 158.86,135.98 C 158.24,136.38 157.69,136.88 157.2,137.42 C 156.78,137.9 156.39,138.41 155.98,138.9 C 156.25,138.9 156.52,138.94 156.78,139.01 C 157.16,138.51 157.57,138.04 158.01,137.6 C 158.49,137.12 159.01,136.68 159.62,136.36 C 160.24,136.04 160.94,135.83 161.59,135.95 C 162.23,136.07 162.82,136.52 163.22,137.07 C 163.62,137.63 163.84,138.29 163.95,138.96 C 164.07,139.63 164.08,140.32 163.99,140.99 C 163.9,141.67 163.72,142.33 163.48,142.96 C 163.25,143.59 162.97,144.19 162.63,144.77 C 162.3,145.34 161.91,145.88 161.49,146.4 C 161.07,146.91 160.62,147.4 160.11,147.83 C 159.6,148.27 159.03,148.65 158.46,148.97 C 157.88,149.29 157.31,149.55 156.68,149.75 C 156.04,149.96 155.34,150.11 154.7,150.24 C 154.06,150.36 153.48,150.46 152.82,150.52 C 152.16,150.57 151.41,150.58 150.64,150.53 C 149.87,150.49 149.08,150.39 148.35,150.19 C 147.62,149.99 146.96,149.69 146.4,149.24 C 145.83,148.79 145.37,148.2 145.11,147.55 C 145.06,147.41 145.01,147.26 144.97,147.11 z M 145.19,164.16 C 145.21,164.04 145.12,164.01 145.02,163.99 C 144.93,163.96 144.83,163.94 144.73,163.92 C 144.53,163.88 144.34,163.83 144.14,163.78 C 143.75,163.68 143.37,163.56 143.01,163.36 C 142.26,162.95 141.83,162.26 141.69,161.44 C 141.53,160.55 141.8,159.88 142.23,159.14 C 142.25,159.1 142.35,158.94 142.36,158.89 C 142.36,158.85 142.36,158.82 142.33,158.79 C 142.33,158.78 142.29,158.76 142.3,158.75 C 142.31,158.73 142.32,158.72 142.33,158.7 C 142.41,158.57 142.49,158.45 142.58,158.32 C 142.62,158.25 142.66,158.19 142.7,158.13 C 142.71,158.12 142.71,158.11 142.72,158.1 C 142.72,158.1 142.71,158.1 142.71,158.1 C 142.7,158.09 142.69,158.09 142.69,158.09 C 142.66,158.08 142.64,158.07 142.61,158.06 C 142.57,158.04 142.52,158.03 142.47,158.0 C 142.26,157.88 142.26,157.59 142.36,157.39 C 142.45,157.21 142.69,157.01 142.92,157.07 C 143.01,157.09 143.1,157.13 143.18,157.16 C 143.21,157.17 143.23,157.17 143.25,157.18 C 143.26,157.19 143.3,157.21 143.31,157.2 C 143.34,157.17 143.36,157.13 143.38,157.1 C 143.54,156.85 143.7,156.6 143.85,156.35 C 144.16,155.84 144.45,155.31 144.72,154.78 C 145.25,153.69 145.62,152.56 145.97,151.41 C 145.98,151.37 145.99,151.34 146.0,151.3 C 146.0,151.28 146.01,151.27 146.01,151.25 C 146.02,151.24 146.03,151.23 146.02,151.23 C 146.01,151.22 146.0,151.22 146.0,151.22 C 145.94,151.19 145.89,151.16 145.84,151.13 C 145.73,151.07 145.63,151.01 145.53,150.95 C 145.33,150.82 145.13,150.68 144.94,150.53 C 144.56,150.23 144.23,149.9 143.95,149.5 C 143.39,148.7 143.17,147.75 143.13,146.81 C 143.04,145.01 143.58,142.85 143.94,141.15 C 144.13,140.21 144.31,139.28 144.33,138.31 C 144.34,137.83 144.31,137.36 144.22,136.89 C 144.2,136.83 144.19,136.77 144.18,136.72 C 144.17,136.69 144.16,136.66 144.15,136.63 C 144.15,136.62 144.15,136.62 144.14,136.61 C 144.14,136.6 144.15,136.62 144.15,136.63 C 144.16,136.64 144.16,136.65 144.16,136.67 C 144.2,136.78 144.23,136.89 144.26,137.0 C 144.31,137.22 144.35,137.45 144.37,137.67 C 144.57,139.44 144.12,141.43 143.87,143.13 C 143.63,144.74 143.34,146.92 144.19,148.53 C 144.62,149.34 145.33,150.0 146.09,150.48 C 146.88,150.98 147.71,151.29 148.63,151.5 C 150.36,151.89 152.64,151.89 154.38,151.68 C 156.37,151.44 158.1,150.87 159.8,149.79 C 161.39,148.77 162.87,147.36 163.98,145.84 C 165.12,144.27 165.9,142.48 166.08,140.52 C 166.25,138.72 165.87,136.52 164.63,135.07 C 163.98,134.3 163.18,133.82 162.14,133.79 C 161.14,133.76 160.23,134.14 159.43,134.66 C 158.6,135.2 157.93,135.86 157.31,136.62 C 156.7,137.37 156.18,138.18 155.49,138.87 C 155.47,138.89 155.45,138.91 155.43,138.93 C 155.41,138.95 155.46,138.93 155.48,138.93 C 155.5,138.92 155.53,138.92 155.56,138.92 C 155.58,138.92 155.61,138.91 155.64,138.91 C 155.65,138.91 155.66,138.91 155.68,138.91 C 155.69,138.91 155.7,138.92 155.72,138.9 C 155.75,138.87 155.79,138.83 155.82,138.79 C 155.97,138.63 156.1,138.47 156.24,138.3 C 156.5,137.97 156.76,137.63 157.03,137.31 C 157.57,136.64 158.14,136.04 158.84,135.54 C 159.51,135.06 160.31,134.65 161.15,134.53 C 162.03,134.41 162.83,134.61 163.54,135.17 C 164.37,135.84 164.89,136.83 165.16,137.82 C 165.46,138.88 165.51,139.88 165.37,140.96 C 165.09,143.09 164.06,145.01 162.71,146.61 C 161.38,148.19 159.62,149.58 157.7,150.39 C 155.76,151.2 153.57,151.47 151.5,151.4 C 149.52,151.33 147.19,150.93 145.63,149.44 C 144.79,148.64 144.41,147.79 144.27,146.66 C 144.14,145.58 144.27,144.55 144.42,143.5 C 144.56,142.46 144.74,141.42 144.79,140.36 C 144.81,139.84 144.8,139.32 144.73,138.79 C 144.64,138.13 144.57,137.91 144.39,137.27 C 144.38,137.2 144.36,137.14 144.35,137.08 C 144.34,137.05 144.34,137.01 144.34,136.98 C 144.33,136.97 144.35,136.99 144.35,137.0 C 144.36,137.0 144.36,137.01 144.37,137.02 C 144.38,137.03 144.39,137.04 144.4,137.05 C 144.48,137.15 144.55,137.26 144.62,137.37 C 144.76,137.59 144.9,137.82 145.02,138.05 C 145.28,138.51 145.48,138.98 145.61,139.5 C 145.88,140.56 145.84,141.57 145.73,142.64 C 145.65,143.35 145.54,144.05 145.47,144.76 C 145.41,145.48 145.37,146.17 145.54,146.89 C 145.91,148.44 147.14,149.24 148.56,149.6 C 149.84,149.92 151.51,149.97 152.81,149.88 C 154.26,149.78 155.62,149.51 156.98,148.95 C 159.61,147.85 161.77,145.63 162.81,142.98 C 163.32,141.68 163.57,140.19 163.16,138.79 C 162.74,137.33 161.65,136.22 160.02,136.68 C 159.33,136.87 158.71,137.28 158.19,137.73 C 157.91,137.97 157.67,138.22 157.44,138.49 C 157.32,138.63 157.21,138.77 157.1,138.91 C 157.08,138.95 157.05,138.99 157.02,139.02 C 157.01,139.04 157.0,139.06 156.98,139.08 C 156.98,139.08 156.99,139.08 157.0,139.08 C 157.0,139.08 157.01,139.09 157.01,139.09 C 157.02,139.09 157.03,139.1 157.05,139.1 C 157.09,139.11 157.13,139.13 157.17,139.15 C 157.17,139.15 157.18,139.17 157.19,139.15 C 157.19,139.15 157.19,139.15 157.2,139.14 C 157.2,139.14 157.21,139.13 157.21,139.12 C 157.53,138.62 157.91,138.21 158.39,137.86 C 159.32,137.16 160.57,136.85 161.57,137.69 C 162.49,138.47 162.75,139.76 162.67,140.85 C 162.59,141.97 162.16,143.17 161.63,144.14 C 160.58,146.06 158.94,147.59 156.94,148.49 C 154.97,149.37 152.68,149.64 150.56,149.44 C 149.59,149.34 148.33,149.16 147.45,148.6 C 146.42,147.96 146.04,146.99 146.01,145.84 C 145.99,144.99 146.25,143.43 146.32,142.6 C 146.42,141.52 146.39,140.42 146.0,139.38 C 145.81,138.86 145.53,138.41 145.2,137.97 C 145.04,137.75 144.87,137.54 144.7,137.33 C 144.62,137.22 144.53,137.12 144.45,137.01 C 144.43,136.99 144.41,136.96 144.39,136.93 C 144.38,136.92 144.38,136.92 144.37,136.91 C 144.37,136.91 144.37,136.9 144.36,136.9 C 144.36,136.9 144.37,136.91 144.37,136.91 C 144.38,136.92 144.4,136.94 144.41,136.96 C 144.46,137.02 144.51,137.08 144.57,137.14 C 144.92,137.55 145.31,137.92 145.63,138.36 C 145.92,138.77 146.15,139.2 146.33,139.67 C 146.69,140.65 146.7,141.59 146.62,142.6 C 146.54,143.61 146.4,144.61 146.38,145.62 C 146.36,146.14 146.39,146.61 146.6,147.1 C 146.81,147.6 147.11,147.95 147.56,148.25 C 148.36,148.78 149.53,148.97 150.44,149.07 C 152.27,149.26 154.66,149.11 156.41,148.41 C 157.72,147.89 158.88,147.04 159.8,145.98 C 160.68,144.96 161.44,143.62 161.85,142.33 C 162.06,141.65 162.17,140.98 162.14,140.26 C 162.11,139.59 161.92,138.83 161.46,138.3 C 160.98,137.75 160.22,137.59 159.54,137.74 C 158.85,137.89 158.23,138.33 157.79,138.84 C 157.67,138.98 157.57,139.12 157.47,139.26 C 157.46,139.27 157.46,139.28 157.45,139.29 C 157.44,139.3 157.46,139.3 157.46,139.3 C 157.47,139.3 157.48,139.31 157.48,139.31 C 157.5,139.32 157.51,139.33 157.52,139.33 C 157.57,139.36 157.62,139.39 157.66,139.43 C 157.76,139.49 157.85,139.57 157.94,139.65 C 158.12,139.82 158.27,140.02 158.39,140.24 C 158.93,141.18 159.01,142.36 158.77,143.39 C 158.64,143.92 158.44,144.41 158.15,144.87 C 158.0,145.1 157.84,145.31 157.66,145.52 C 157.64,145.54 157.62,145.56 157.6,145.59 C 157.59,145.6 157.6,145.58 157.6,145.57 C 157.6,145.56 157.6,145.55 157.61,145.54 C 157.61,145.52 157.62,145.5 157.63,145.49 C 157.65,145.41 157.67,145.33 157.69,145.26 C 157.73,145.11 157.77,144.97 157.8,144.82 C 157.99,143.94 158.01,142.88 157.72,142.01 C 157.45,141.19 156.92,140.63 156.15,140.28 C 155.3,139.89 154.22,139.8 153.31,139.83 C 153.19,139.83 153.07,139.84 152.94,139.85 C 152.91,139.85 152.88,139.85 152.85,139.85 C 152.84,139.85 152.82,139.85 152.81,139.86 C 152.81,139.86 152.79,139.86 152.8,139.86 C 152.8,139.86 152.81,139.86 152.81,139.85 C 152.86,139.85 152.9,139.84 152.94,139.84 C 153.1,139.81 153.26,139.78 153.42,139.74 C 153.73,139.66 154.03,139.56 154.32,139.42 C 154.86,139.15 155.26,138.77 155.63,138.32 C 155.98,137.89 156.29,137.43 156.61,136.97 C 156.93,136.52 157.25,136.08 157.61,135.66 C 158.3,134.85 159.18,134.04 160.11,133.51 C 161.05,132.97 162.16,132.61 163.28,132.92 C 164.39,133.22 165.23,134.0 165.82,134.94 C 166.75,136.4 167.11,138.29 167.01,139.98 C 166.91,141.77 166.3,143.43 165.39,144.94 C 164.5,146.42 163.29,147.81 161.99,148.94 C 160.63,150.12 159.21,151.02 157.47,151.58 C 156.63,151.85 155.78,152.03 154.9,152.14 C 154.47,152.2 154.03,152.24 153.59,152.27 C 153.48,152.28 153.37,152.29 153.27,152.3 C 153.24,152.3 153.21,152.3 153.18,152.3 C 153.13,152.3 153.14,152.32 153.14,152.36 C 153.13,152.43 153.12,152.5 153.11,152.56 C 153.07,152.84 153.05,153.11 153.04,153.39 C 153.02,154.55 153.26,155.54 153.8,156.57 C 154.05,157.06 154.37,157.51 154.7,157.95 C 154.87,158.16 155.04,158.38 155.21,158.6 C 155.29,158.71 155.37,158.82 155.45,158.93 C 155.46,158.95 155.47,158.96 155.48,158.97 C 155.5,159.0 155.52,158.98 155.54,158.98 C 155.59,158.99 155.63,158.99 155.68,158.99 C 155.77,158.99 155.86,159.0 155.95,159.0 C 156.13,159.01 156.32,159.01 156.5,159.02 C 156.73,159.02 156.88,159.15 156.97,159.36 C 157.04,159.55 157.03,159.81 156.87,159.97 C 156.79,160.04 156.72,160.06 156.61,160.06 C 156.52,160.06 156.43,160.06 156.33,160.06 C 156.29,160.06 156.24,160.05 156.19,160.05 C 156.17,160.05 156.15,160.05 156.12,160.05 C 156.11,160.05 156.1,160.05 156.1,160.06 C 156.11,160.07 156.11,160.07 156.11,160.08 C 156.14,160.15 156.17,160.21 156.19,160.27 C 156.24,160.4 156.28,160.54 156.32,160.67 C 156.33,160.7 156.34,160.74 156.34,160.77 C 156.35,160.78 156.36,160.81 156.35,160.81 C 156.33,160.82 156.31,160.82 156.3,160.83 C 156.22,160.89 156.24,160.95 156.25,161.03 C 156.29,161.21 156.31,161.39 156.31,161.58 C 156.31,162.32 156.02,163.06 155.53,163.61 C 155.0,164.21 154.33,164.45 153.58,164.57 C 153.21,164.63 152.84,164.66 152.47,164.68 C 152.29,164.68 152.1,164.69 151.92,164.69 C 151.83,164.69 151.73,164.69 151.64,164.69 C 151.62,164.69 151.39,164.69 151.37,164.7 C 151.32,164.71 151.3,164.73 151.27,164.77 C 151.27,164.78 151.27,164.79 151.26,164.8 C 151.26,164.81 151.26,164.81 151.26,164.82 C 151.26,164.82 151.27,164.83 151.26,164.83 C 151.24,164.83 151.23,164.83 151.21,164.83 C 151.14,164.83 151.07,164.83 151.0,164.83 C 150.87,164.82 150.73,164.82 150.59,164.81 C 150.58,164.81 150.56,164.81 150.54,164.81 C 150.53,164.81 150.52,164.81 150.52,164.81 C 150.5,164.81 150.51,164.82 150.52,164.83 C 150.54,164.87 150.57,164.91 150.59,164.95 C 150.64,165.03 150.68,165.11 150.73,165.19 C 150.82,165.35 150.91,165.51 151.0,165.67 C 151.72,167.0 152.27,168.34 152.59,169.82 C 152.8,170.77 152.97,172.06 152.9,173.04 C 152.86,173.6 152.78,174.1 152.46,174.59 C 152.15,175.05 151.69,175.38 151.17,175.56 C 150.63,175.73 150.11,175.74 149.56,175.72 C 149.49,175.72 149.42,175.72 149.36,175.72 C 149.34,175.72 149.32,175.71 149.3,175.71 C 149.3,175.71 149.29,175.71 149.28,175.71 C 149.27,175.71 149.25,175.72 149.26,175.71 C 149.28,175.69 149.31,175.66 149.33,175.64 C 149.43,175.54 149.52,175.44 149.6,175.34 C 149.77,175.12 149.91,174.9 150.03,174.65 C 150.51,173.72 150.74,172.55 150.83,171.53 C 151.02,169.37 150.63,167.18 149.85,165.18 C 149.8,165.05 149.75,164.93 149.7,164.8 C 149.69,164.79 149.68,164.76 149.67,164.76 C 149.66,164.76 149.65,164.76 149.64,164.76 C 149.61,164.76 149.59,164.76 149.56,164.75 C 149.51,164.75 149.46,164.75 149.41,164.74 C 149.21,164.73 149.01,164.72 148.81,164.7 C 148.78,164.7 148.76,164.69 148.73,164.69 C 148.72,164.69 148.71,164.69 148.7,164.69 C 148.69,164.69 148.67,164.68 148.68,164.69 C 148.68,164.7 148.68,164.7 148.69,164.71 C 148.72,164.77 148.74,164.83 148.77,164.9 C 148.83,165.02 148.88,165.14 148.93,165.27 C 149.03,165.52 149.13,165.77 149.22,166.03 C 149.57,167.06 149.82,168.1 149.93,169.19 C 150.04,170.28 150.02,171.34 149.82,172.42 C 149.66,173.27 149.22,174.76 148.26,175.19 C 147.78,175.41 147.22,175.38 146.74,175.22 C 146.48,175.13 146.25,175.0 146.01,174.88 C 145.99,174.87 145.98,174.86 145.96,174.86 C 145.95,174.85 145.95,174.85 145.94,174.84 C 145.94,174.84 145.93,174.84 145.93,174.84 C 145.92,174.84 145.91,174.83 145.92,174.83 C 145.95,174.85 145.98,174.86 146.01,174.87 C 146.07,174.9 146.14,174.92 146.2,174.95 C 146.33,174.99 146.46,175.03 146.59,175.06 C 147.87,175.34 148.66,174.54 149.03,173.42 C 149.34,172.47 149.48,171.2 149.46,170.21 C 149.44,169.12 149.27,168.07 148.97,167.02 C 148.82,166.49 148.65,165.98 148.44,165.48 C 148.34,165.23 148.23,164.98 148.11,164.74 C 148.1,164.71 148.09,164.68 148.07,164.65 C 148.05,164.62 148.03,164.62 148.0,164.62 C 147.95,164.62 147.9,164.61 147.85,164.6 C 147.75,164.59 147.65,164.58 147.55,164.57 C 146.76,164.47 145.97,164.33 145.19,164.17 z"
		 />

		<!-- Prism Reference -->
		<cam mingh:cam="--verb EditSelectAll --verb ZoomSelection --verb FileSave" /> 
	 </g>

</svg>
