<svg
   xmlns:xlink="http://www.w3.org/1999/xlink"
   xmlns:svg="http://www.w3.org/2000/svg"
   xmlns="http://www.w3.org/2000/svg"
   xmlns:mingh="http://www.minghworld.com"
   width="300px"
   height="300px" >
	
	 <g>
		
		<!-- Paths -->
		<path transform="matrix(-1 0 0 1 300 0)" style="fill:#ff0;stroke:none;"
		 d="M 149.38,118.16 C 148.21,118.25 147.08,118.85 146.34,119.91 C 146.26,120.02 146.19,120.12 146.13,120.25 C 146.09,120.31 146.07,120.42 145.97,120.41 C 145.93,120.4 145.81,120.27 145.78,120.25 C 145.59,120.09 145.29,119.88 145.06,119.78 C 144.9,119.71 144.73,119.68 144.56,119.78 C 144.48,119.84 144.42,119.91 144.38,120.0 C 144.34,120.08 144.34,120.14 144.34,120.22 C 144.35,120.38 144.4,120.51 144.44,120.66 C 144.48,120.8 144.5,120.97 144.5,121.13 C 144.5,121.84 143.88,122.23 143.38,122.53 C 142.81,122.87 142.34,123.21 142.03,123.84 C 141.77,124.39 141.7,125.1 142.0,125.66 C 142.16,125.96 142.4,126.14 142.69,126.31 C 142.76,126.36 142.83,126.4 142.91,126.44 C 142.98,126.47 143.07,126.49 143.06,126.59 C 143.06,126.63 143.04,126.68 143.03,126.72 C 143.02,126.76 143.01,126.77 142.97,126.78 C 142.89,126.8 142.8,126.77 142.72,126.78 C 142.38,126.81 142.09,126.96 141.94,127.28 C 141.86,127.44 141.85,127.62 141.84,127.78 C 141.84,127.94 141.82,128.09 141.84,128.25 C 141.89,128.58 142.08,128.88 142.41,129.0 C 142.48,129.03 142.58,129.05 142.66,129.06 C 142.72,129.07 142.81,129.03 142.84,129.13 C 142.87,129.2 142.78,129.3 142.75,129.34 C 142.71,129.41 142.66,129.46 142.63,129.53 C 142.42,129.96 142.43,130.78 142.47,131.22 C 142.52,131.73 142.66,132.43 142.88,132.91 C 142.94,133.04 143.01,133.17 143.06,133.31 C 143.12,133.45 143.12,133.58 143.13,133.72 C 143.13,134.0 143.16,134.31 143.19,134.59 C 143.25,135.16 143.27,135.71 143.28,136.28 C 143.3,137.04 143.31,137.28 143.59,138.0 C 143.72,138.33 143.75,138.53 143.75,138.88 C 143.75,139.18 143.72,139.49 143.66,139.78 C 143.52,140.37 143.29,140.9 143.19,141.5 C 143.1,141.97 143.08,142.52 143.34,142.97 C 143.46,143.17 143.59,143.34 143.75,143.5 C 143.95,143.71 144.14,143.93 144.28,144.19 C 144.44,144.47 144.56,144.73 144.59,145.06 C 144.63,145.38 144.55,145.67 144.47,145.97 C 144.38,146.3 144.36,146.54 144.63,146.81 C 144.89,147.09 145.08,147.07 145.31,147.41 C 145.5,147.67 145.58,147.95 145.56,148.28 C 145.54,148.6 145.45,148.87 145.34,149.16 C 145.11,149.79 145.0,150.26 144.94,150.94 C 144.88,151.56 144.91,152.15 145.13,152.75 C 145.23,153.05 145.36,153.28 145.59,153.5 C 145.64,153.55 145.71,153.61 145.69,153.69 C 145.66,153.76 145.62,153.86 145.59,153.94 C 145.54,154.08 145.51,154.23 145.47,154.38 C 145.32,154.97 145.26,155.55 145.22,156.16 C 145.1,157.74 145.23,158.24 145.31,159.81 C 145.38,161.03 145.28,162.23 145.19,163.44 C 145.09,164.65 145.01,165.85 144.97,167.06 C 144.95,167.67 144.94,168.3 144.97,168.91 C 144.98,169.24 145.06,170.38 145.03,170.72 C 144.97,171.38 144.66,171.85 144.28,172.34 C 144.1,172.59 143.93,172.79 143.84,173.09 C 143.8,173.24 143.81,173.41 143.81,173.56 C 143.81,173.6 143.79,173.62 143.78,173.66 C 143.77,173.7 143.76,173.74 143.72,173.75 C 143.68,173.76 143.66,173.77 143.63,173.78 C 143.59,173.79 143.54,173.8 143.5,173.81 C 143.19,173.93 143.0,174.15 142.94,174.47 C 142.88,174.76 142.93,175.08 143.09,175.34 C 143.18,175.48 143.26,175.59 143.41,175.66 C 143.44,175.67 143.5,175.68 143.53,175.69 C 143.57,175.7 143.58,175.77 143.53,175.78 C 143.49,175.79 143.47,175.78 143.44,175.78 C 143.4,175.78 143.35,175.78 143.31,175.78 C 143.01,175.8 142.71,175.81 142.41,175.84 C 141.12,175.98 140.12,176.24 138.91,176.69 C 138.67,176.77 137.48,177.27 137.25,177.38 C 136.96,177.51 136.73,177.69 136.63,178.0 C 136.57,178.15 136.59,178.28 136.59,178.44 C 136.6,178.59 136.59,178.76 136.59,178.91 C 136.59,179.16 136.55,180.47 136.59,180.72 C 136.7,181.33 137.26,181.79 137.88,181.84 C 138.13,181.87 138.51,181.76 138.75,181.72 C 139.05,181.67 139.36,181.64 139.66,181.59 C 140.25,181.51 140.84,181.43 141.44,181.38 C 143.52,181.19 146.58,181.28 148.66,181.28 C 149.86,181.28 151.08,181.26 152.28,181.25 C 153.49,181.24 154.7,181.23 155.91,181.25 C 157.11,181.27 158.3,181.33 159.5,181.47 C 160.1,181.54 160.69,181.62 161.28,181.75 C 161.9,181.88 162.45,181.94 162.97,181.44 C 163.5,180.92 163.41,180.37 163.41,179.75 C 163.4,179.45 163.4,179.14 163.41,178.84 C 163.42,178.54 163.46,178.24 163.34,177.94 C 163.22,177.61 162.99,177.47 162.69,177.34 C 162.41,177.22 162.12,177.11 161.84,177.0 C 161.29,176.77 160.73,176.55 160.16,176.38 C 158.99,176.01 157.81,175.84 156.59,175.78 C 156.56,175.78 156.54,175.78 156.5,175.78 C 156.46,175.78 156.4,175.76 156.44,175.72 C 156.45,175.7 156.48,175.69 156.5,175.69 C 156.52,175.68 156.51,175.66 156.53,175.66 C 156.57,175.64 156.62,175.64 156.66,175.63 C 156.79,175.54 156.86,175.43 156.94,175.28 C 157.07,175.01 157.1,174.69 157.03,174.41 C 156.95,174.1 156.71,173.86 156.41,173.78 C 156.37,173.77 156.35,173.76 156.31,173.75 C 156.28,173.75 156.22,173.77 156.19,173.75 C 156.11,173.71 156.13,173.59 156.13,173.53 C 156.12,173.38 156.11,173.24 156.09,173.09 C 156.03,172.5 155.87,171.92 155.72,171.34 C 155.57,170.77 155.42,170.22 155.38,169.63 C 155.33,169.02 155.4,168.43 155.5,167.84 C 155.6,167.26 155.72,166.69 155.75,166.09 C 155.77,165.7 155.75,164.7 155.72,164.31 C 155.71,164.16 155.69,164.02 155.66,163.88 C 155.62,163.73 155.56,163.58 155.53,163.44 C 155.42,162.93 155.74,163.01 156.06,162.84 C 156.36,162.69 156.43,162.43 156.47,162.13 C 156.51,161.82 156.5,161.52 156.47,161.22 C 156.41,160.63 156.36,160.06 156.28,159.47 C 156.2,158.88 156.12,158.28 156.09,157.69 C 156.08,157.39 156.05,157.11 156.09,156.81 C 156.11,156.66 156.17,156.51 156.25,156.38 C 156.33,156.23 156.42,156.18 156.56,156.13 C 156.88,156.01 157.09,155.93 157.25,155.59 C 157.38,155.31 157.44,155.01 157.5,154.72 C 157.64,154.08 157.74,153.62 158.13,153.06 C 158.46,152.57 158.91,152.18 159.28,151.72 C 159.59,151.34 160.05,150.67 159.81,150.09 C 159.78,150.02 159.71,149.96 159.75,149.88 C 159.79,149.79 159.86,149.73 159.91,149.66 C 160.01,149.5 160.12,149.32 160.22,149.16 L 160.81,148.19 C 160.84,148.14 160.9,148.03 160.91,147.97 C 160.92,147.88 160.89,147.83 160.81,147.78 C 160.69,147.7 160.56,147.64 160.44,147.56 C 160.18,147.41 159.94,147.25 159.69,147.09 L 158.19,146.16 C 158.06,146.08 157.91,146.01 157.78,145.94 C 157.74,145.91 157.46,145.73 157.41,145.72 C 157.25,145.7 157.18,145.91 157.13,146.0 C 157.05,146.13 156.95,146.25 156.88,146.38 C 156.58,146.89 156.3,147.42 155.91,147.88 C 155.81,147.99 155.67,148.06 155.5,148.03 C 155.33,148.0 155.29,147.84 155.25,147.72 C 155.15,147.44 155.06,147.13 155.0,146.84 C 154.88,146.26 154.83,145.7 154.66,145.13 C 154.57,144.84 154.49,144.55 154.28,144.31 C 154.09,144.08 153.85,143.91 153.59,143.75 C 153.32,143.58 153.08,143.42 152.81,143.25 C 152.51,143.05 152.25,142.89 152.22,142.47 C 152.21,142.31 152.21,142.15 152.22,142.0 C 152.22,141.85 152.24,141.68 152.25,141.53 C 152.27,141.19 152.33,141.02 152.5,140.72 C 152.67,140.42 152.86,140.13 153.0,139.81 C 153.07,139.64 153.12,139.46 153.16,139.28 C 153.18,139.19 153.21,139.09 153.22,139.0 C 153.22,138.92 153.21,138.86 153.22,138.78 C 153.27,138.43 153.6,138.38 153.88,138.34 C 154.14,138.31 154.39,138.3 154.66,138.28 C 155.34,138.23 156.04,138.2 156.72,138.16 C 156.96,138.14 157.23,138.08 157.41,137.88 C 157.51,137.76 157.53,137.61 157.47,137.47 C 157.42,137.36 157.3,137.24 157.19,137.19 C 157.09,137.14 156.97,137.14 156.88,137.13 C 156.75,137.11 156.63,137.1 156.5,137.09 C 156.18,137.07 155.85,137.06 155.53,137.03 C 155.19,137.0 154.87,136.96 154.53,136.94 C 154.38,136.93 154.21,136.91 154.06,136.91 C 154.03,136.9 154.0,136.91 153.97,136.88 C 153.94,136.85 153.94,136.81 153.97,136.78 C 153.99,136.76 154.16,136.7 154.19,136.69 C 154.43,136.58 154.67,136.46 154.91,136.34 C 155.25,136.17 155.57,136.0 155.91,135.81 C 156.09,135.71 156.37,135.61 156.47,135.38 C 156.53,135.23 156.49,135.07 156.38,134.97 C 156.25,134.85 156.13,134.83 155.97,134.84 C 155.66,134.87 155.38,134.96 155.09,135.06 C 154.81,135.16 154.53,135.27 154.25,135.38 C 153.97,135.48 153.68,135.58 153.41,135.69 C 153.27,135.74 153.14,135.79 153.0,135.84 C 152.97,135.86 152.94,135.87 152.91,135.88 C 152.87,135.88 152.82,135.85 152.81,135.81 C 152.81,135.77 152.89,135.65 152.91,135.63 C 153.24,135.13 153.65,134.67 154.0,134.19 C 154.15,133.98 154.35,133.66 154.31,133.38 C 154.29,133.21 154.15,133.1 154.0,133.06 C 153.83,133.02 153.73,133.07 153.59,133.16 C 153.32,133.32 152.41,134.05 152.16,134.25 C 151.92,134.44 151.68,134.63 151.44,134.81 C 151.38,134.86 151.31,134.9 151.25,134.94 C 151.21,134.96 151.12,135.05 151.06,135.0 C 150.96,134.92 150.9,134.7 150.88,134.59 C 150.74,134.01 150.73,133.41 150.66,132.81 C 150.64,132.66 150.59,132.52 150.56,132.38 C 150.53,132.23 150.53,132.08 150.47,131.94 C 150.34,131.63 150.01,131.51 149.75,131.75 C 149.57,131.92 149.47,132.36 149.44,132.56 C 149.39,132.86 149.37,133.17 149.34,133.47 C 149.31,133.77 149.27,134.05 149.22,134.34 C 149.19,134.49 149.17,134.64 149.13,134.78 C 149.1,134.85 149.09,134.91 149.03,134.97 C 148.96,135.04 148.87,134.97 148.81,134.94 C 148.65,134.83 147.56,133.96 147.41,133.84 C 147.17,133.66 146.93,133.49 146.69,133.31 C 146.55,133.21 146.3,132.97 146.13,133.16 C 145.95,133.35 146.05,133.75 146.13,133.94 C 146.24,134.22 146.45,134.45 146.63,134.69 C 146.85,134.99 147.07,135.28 147.28,135.59 C 147.34,135.68 147.4,135.74 147.44,135.84 C 147.49,135.98 147.38,136.09 147.25,136.06 C 147.1,136.03 146.96,135.96 146.81,135.91 C 146.73,135.87 146.65,135.85 146.56,135.81 C 146.5,135.79 146.36,135.75 146.31,135.69 C 146.26,135.62 146.27,135.54 146.25,135.47 C 146.23,135.4 146.21,135.32 146.19,135.25 C 146.11,134.96 146.03,134.67 145.97,134.38 C 145.86,133.88 145.76,133.11 145.78,132.59 C 145.8,132.15 146.01,131.27 146.09,130.84 C 146.15,130.55 146.2,130.24 146.16,129.94 C 146.14,129.79 146.1,129.64 146.03,129.5 C 146.0,129.43 145.95,129.37 145.91,129.31 C 145.87,129.27 145.76,129.2 145.78,129.13 C 145.79,129.08 145.83,129.07 145.88,129.06 C 145.91,129.05 145.96,129.04 146.0,129.03 C 146.08,129.02 146.14,129.0 146.22,128.97 C 146.38,128.9 146.5,128.83 146.59,128.69 C 146.81,128.38 146.76,128.08 146.75,127.75 C 146.75,127.59 146.74,127.43 146.66,127.28 C 146.57,127.13 146.46,126.99 146.31,126.91 C 146.17,126.82 146.01,126.79 145.84,126.78 C 145.82,126.78 145.65,126.79 145.63,126.78 C 145.56,126.75 145.55,126.62 145.56,126.56 C 145.58,126.48 145.69,126.48 145.75,126.47 C 145.82,126.45 145.9,126.43 145.97,126.41 C 146.11,126.35 146.25,126.27 146.38,126.19 C 146.63,126.02 146.81,125.82 146.97,125.56 C 147.0,125.51 147.04,125.4 147.13,125.41 C 147.17,125.41 147.25,125.51 147.28,125.53 C 147.4,125.62 147.53,125.71 147.66,125.78 C 147.92,125.93 148.18,126.03 148.47,126.13 C 149.63,126.49 150.92,126.33 151.94,125.66 C 154.07,124.26 154.4,121.25 152.63,119.41 C 151.73,118.48 150.54,118.07 149.38,118.16 z M 149.59,120.28 C 149.72,120.27 149.84,120.29 149.97,120.31 C 150.22,120.35 150.47,120.43 150.69,120.56 C 150.91,120.69 151.1,120.86 151.25,121.06 C 151.4,121.27 151.53,121.5 151.59,121.75 C 151.66,122.0 151.66,122.25 151.63,122.5 C 151.59,122.75 151.5,123.0 151.38,123.22 C 151.25,123.44 151.08,123.63 150.88,123.78 C 150.67,123.93 150.43,124.06 150.19,124.13 C 149.94,124.19 149.69,124.19 149.44,124.16 C 149.18,124.12 148.94,124.04 148.72,123.91 C 148.5,123.78 148.28,123.61 148.13,123.41 C 147.97,123.2 147.88,122.97 147.81,122.72 C 147.75,122.47 147.71,122.22 147.75,121.97 C 147.79,121.72 147.87,121.47 148.0,121.25 C 148.13,121.03 148.33,120.84 148.53,120.69 C 148.73,120.53 148.97,120.41 149.22,120.34 C 149.34,120.31 149.47,120.29 149.59,120.28 z" />
		
		
		<text id="txtTwo" transform="matrix(1 0 0 1 150 160)" style="stroke:none;fill:#f00;font-family:'Eras Medium ITC';font-size:20px;text-anchor:middle"  >

		</text>
		<!-- Prism Reference -->
	<cam mingh:cam=" --verb EditSelectAll --verb ZoomSelection --verb FileSave "/> 
	 </g>

</svg>