<svg
   xmlns:xlink="http://www.w3.org/1999/xlink"
   xmlns:svg="http://www.w3.org/2000/svg"
   xmlns="http://www.w3.org/2000/svg"
   xmlns:mingh="http://www.minghworld.com"
   width="300px"
   height="300px" >
	
	 <g>
		
		<!-- Paths -->
		<path transform="matrix(-1 0 0 1 300 0)" style="fill:#ff0;stroke:none;"
		 d="M 150.0,129.91 C 148.19,129.91 146.6,131.08 146.09,132.81 C 145.58,134.55 146.26,136.43 147.78,137.41 C 147.87,137.47 147.92,137.58 147.84,137.66 C 147.73,137.78 147.6,137.93 147.5,138.06 C 147.19,138.47 146.93,138.89 146.69,139.34 C 146.44,139.79 146.23,140.28 146.03,140.75 C 145.84,141.22 145.67,141.69 145.53,142.19 C 145.45,142.5 145.37,142.81 145.31,143.13 C 145.29,143.26 145.13,143.31 145.03,143.22 C 143.79,142.06 142.27,141.27 140.63,140.84 C 140.54,140.82 140.44,140.88 140.44,140.97 C 140.33,142.66 140.62,144.33 141.34,145.88 C 141.4,146.0 141.33,146.14 141.19,146.13 C 140.87,146.08 140.54,146.08 140.22,146.06 C 139.7,146.04 139.2,146.02 138.69,146.06 C 138.18,146.1 137.66,146.19 137.16,146.28 C 136.65,146.37 136.17,146.49 135.69,146.66 C 135.21,146.83 134.73,147.06 134.34,147.38 C 133.96,147.69 133.65,148.09 133.5,148.56 C 133.35,149.03 133.34,149.55 133.47,150.03 C 133.59,150.52 133.83,150.99 134.13,151.41 C 134.42,151.83 134.74,152.19 135.09,152.56 C 135.45,152.93 135.83,153.29 136.22,153.63 C 136.61,153.96 137.04,154.28 137.47,154.56 C 137.74,154.74 138.0,154.91 138.28,155.06 C 138.4,155.13 138.4,155.31 138.28,155.38 C 136.79,156.2 135.53,157.38 134.63,158.81 C 134.58,158.89 134.64,158.97 134.72,159.0 C 136.3,159.62 138.0,159.86 139.69,159.66 C 139.83,159.64 139.9,159.78 139.84,159.91 C 139.71,160.19 139.58,160.51 139.47,160.81 C 139.29,161.29 139.15,161.78 139.03,162.28 C 138.91,162.78 138.82,163.27 138.75,163.78 C 138.68,164.29 138.64,164.8 138.66,165.31 C 138.67,165.82 138.72,166.31 138.91,166.78 C 139.09,167.25 139.41,167.68 139.81,167.97 C 140.21,168.26 140.69,168.41 141.19,168.44 C 141.69,168.47 142.2,168.4 142.69,168.25 C 143.18,168.1 143.63,167.91 144.09,167.69 C 144.56,167.47 145.03,167.21 145.47,166.94 C 145.91,166.67 146.32,166.38 146.72,166.06 C 146.97,165.86 147.21,165.66 147.44,165.44 C 147.54,165.34 147.72,165.39 147.75,165.53 C 148.07,167.2 148.83,168.72 149.91,170.03 C 149.96,170.1 150.04,170.1 150.09,170.03 C 151.17,168.72 151.93,167.2 152.25,165.53 C 152.28,165.39 152.46,165.34 152.56,165.44 C 152.79,165.66 153.03,165.86 153.28,166.06 C 153.68,166.38 154.09,166.67 154.53,166.94 C 154.97,167.21 155.41,167.47 155.88,167.69 C 156.34,167.91 156.82,168.1 157.31,168.25 C 157.8,168.4 158.31,168.47 158.81,168.44 C 159.31,168.41 159.79,168.26 160.19,167.97 C 160.59,167.68 160.91,167.25 161.09,166.78 C 161.28,166.31 161.33,165.82 161.34,165.31 C 161.36,164.8 161.32,164.29 161.25,163.78 C 161.18,163.27 161.09,162.78 160.97,162.28 C 160.85,161.78 160.71,161.29 160.53,160.81 C 160.42,160.51 160.29,160.19 160.16,159.91 C 160.1,159.78 160.17,159.64 160.31,159.66 C 162.0,159.86 163.7,159.62 165.28,159.0 C 165.36,158.97 165.42,158.89 165.38,158.81 C 164.47,157.38 163.21,156.2 161.72,155.38 C 161.6,155.31 161.6,155.13 161.72,155.06 C 162.0,154.91 162.26,154.74 162.53,154.56 C 162.96,154.28 163.39,153.96 163.78,153.63 C 164.17,153.29 164.55,152.93 164.91,152.56 C 165.26,152.19 165.59,151.83 165.88,151.41 C 166.17,150.99 166.41,150.52 166.53,150.03 C 166.66,149.55 166.65,149.03 166.5,148.56 C 166.35,148.09 166.04,147.69 165.66,147.38 C 165.27,147.06 164.79,146.83 164.31,146.66 C 163.83,146.49 163.35,146.37 162.84,146.28 C 162.34,146.19 161.82,146.1 161.31,146.06 C 160.8,146.02 160.3,146.04 159.78,146.06 C 159.46,146.08 159.13,146.08 158.81,146.13 C 158.67,146.14 158.6,146.0 158.66,145.88 C 159.38,144.33 159.67,142.66 159.56,140.97 C 159.56,140.88 159.46,140.82 159.38,140.84 C 157.73,141.27 156.21,142.06 154.97,143.22 C 154.87,143.31 154.71,143.26 154.69,143.13 C 154.63,142.81 154.55,142.5 154.47,142.19 C 154.33,141.69 154.16,141.22 153.97,140.75 C 153.77,140.28 153.56,139.79 153.31,139.34 C 153.07,138.89 152.81,138.47 152.5,138.06 C 152.4,137.93 152.27,137.78 152.16,137.66 C 152.08,137.58 152.13,137.47 152.22,137.41 C 153.74,136.43 154.42,134.55 153.91,132.81 C 153.4,131.08 151.81,129.91 150.0,129.91 z M 150.0,132.03 C 151.08,132.03 151.94,132.89 151.94,133.97 C 151.94,135.05 151.08,135.94 150.0,135.94 C 148.92,135.94 148.06,135.05 148.06,133.97 C 148.06,132.89 148.92,132.03 150.0,132.03 z M 145.53,147.75 C 145.58,147.72 145.61,147.76 145.66,147.78 C 145.74,147.81 145.83,147.81 145.91,147.84 C 146.53,148.1 147.11,148.43 147.66,148.81 C 148.19,149.18 148.66,149.58 149.09,150.06 C 149.3,150.3 149.48,150.55 149.66,150.81 C 149.74,150.94 149.83,151.06 149.91,151.19 C 149.95,151.26 150.05,151.29 150.09,151.22 C 150.73,150.15 151.62,149.25 152.66,148.59 C 153.21,148.25 153.77,147.98 154.38,147.75 C 154.46,147.72 154.54,147.79 154.53,147.88 C 154.52,148.04 154.52,148.18 154.5,148.34 C 154.47,148.67 154.41,149.0 154.34,149.31 C 154.09,150.56 153.58,151.72 152.78,152.72 C 152.73,152.78 152.71,152.85 152.66,152.91 C 152.63,152.94 152.59,152.97 152.56,153.0 C 152.55,153.02 152.54,153.01 152.53,153.03 C 152.5,153.15 152.64,153.17 152.72,153.19 C 153.02,153.26 153.31,153.36 153.59,153.47 C 154.19,153.69 154.76,153.98 155.28,154.34 C 155.81,154.7 156.28,155.1 156.72,155.56 C 156.83,155.68 156.93,155.82 157.03,155.94 C 157.08,156.0 157.14,156.06 157.19,156.13 C 157.22,156.17 157.25,156.19 157.25,156.25 C 157.25,156.29 157.25,156.32 157.22,156.34 C 157.17,156.37 157.08,156.39 157.03,156.41 C 156.88,156.45 156.72,156.47 156.56,156.5 C 155.34,156.75 154.06,156.77 152.84,156.47 C 152.54,156.39 152.23,156.3 151.94,156.19 C 151.87,156.16 151.79,156.12 151.72,156.09 C 151.67,156.07 151.65,156.07 151.59,156.09 C 151.55,156.11 151.54,156.11 151.53,156.16 C 151.52,156.23 151.53,156.31 151.53,156.38 C 151.58,157.02 151.55,157.65 151.44,158.28 C 151.32,158.94 151.11,159.55 150.84,160.16 C 150.71,160.46 150.55,160.74 150.38,161.03 C 150.29,161.18 150.22,161.33 150.13,161.47 C 150.08,161.54 149.97,161.59 149.91,161.5 C 149.19,160.42 148.68,159.23 148.5,157.94 C 148.46,157.63 148.44,157.34 148.44,157.03 C 148.43,156.88 148.43,156.71 148.44,156.56 C 148.44,156.52 148.48,156.21 148.47,156.16 C 148.43,156.04 148.33,156.09 148.25,156.13 C 148.11,156.18 147.96,156.23 147.81,156.28 C 147.52,156.38 147.24,156.47 146.94,156.53 C 145.71,156.8 144.44,156.75 143.22,156.47 C 143.16,156.45 142.84,156.38 142.78,156.34 C 142.68,156.28 142.76,156.19 142.81,156.13 C 143.01,155.87 143.24,155.64 143.47,155.41 C 143.91,154.96 144.37,154.56 144.91,154.22 C 145.44,153.87 145.99,153.61 146.59,153.41 C 146.74,153.36 146.88,153.29 147.03,153.25 C 147.1,153.23 147.18,153.24 147.25,153.22 C 147.29,153.21 147.34,153.2 147.38,153.19 C 147.4,153.18 147.42,153.17 147.44,153.16 C 147.54,153.08 147.43,153.0 147.38,152.94 C 147.28,152.82 147.19,152.68 147.09,152.56 C 146.32,151.54 145.81,150.35 145.59,149.09 C 145.54,148.76 145.52,148.43 145.5,148.09 C 145.49,148.01 145.47,147.93 145.47,147.84 C 145.47,147.8 145.49,147.77 145.53,147.75 z" />
		
		
		<text id="txtTwo" transform="matrix(1 0 0 1 150 160)" style="stroke:none;fill:#f00;font-family:'Eras Medium ITC';font-size:20px;text-anchor:middle"  >

		</text>
		<!-- Prism Reference -->
		<cam mingh:cam="--verb EditSelectAll --verb ZoomSelection --verb FileSave "/> 
	 </g>

</svg>