<svg
   xmlns:xlink="http://www.w3.org/1999/xlink"
   xmlns:svg="http://www.w3.org/2000/svg"
   xmlns="http://www.w3.org/2000/svg"
   xmlns:mingh="http://www.minghworld.com"
   width="300px"
   height="300px" >
	
	 	<g>
			<!-- Paths -->
			<g id="shape">
				<path id="base" style="fill:none;stroke:#000;stroke-width:0.25px"
					d="M 150.28,130.66 C 145.68,130.61 141.04,132.16 137.53,135.19 C 131.74,139.94 129.23,148.23 131.41,155.41 C 133.43,162.7 140.1,168.38 147.63,169.22 C 155.13,170.24 162.98,166.34 166.72,159.75 C 168.44,156.81 169.37,153.4 169.38,150.0 C 169.45,142.67 164.94,135.57 158.28,132.5 C 155.78,131.28 153.04,130.68 150.28,130.66 z M 150.0,132.53 C 150.89,132.53 151.63,133.24 151.63,134.13 C 151.63,135.01 150.89,135.75 150.0,135.75 C 149.11,135.75 148.41,135.01 148.41,134.13 C 148.41,133.24 149.11,132.53 150.0,132.53 z" />
				<path id="baseFill" style="fill:#f00;stroke:none"
					d="M 162.69,135.56 C 162.69,135.57 162.69,135.59 162.69,135.59 C 162.67,135.63 162.66,135.68 162.66,135.72 C 162.64,135.8 162.64,135.86 162.63,135.94 C 162.53,136.47 162.47,137.11 162.47,137.84 C 162.46,138.63 162.61,139.4 162.88,140.19 C 163.06,140.73 163.32,141.33 163.66,142.0 C 163.7,142.09 163.73,142.19 163.78,142.28 C 163.78,142.29 163.81,142.31 163.81,142.31 C 163.82,142.33 163.82,142.34 163.81,142.34 L 163.78,142.34 C 163.76,142.36 163.71,142.37 163.69,142.38 C 163.6,142.41 163.52,142.46 163.44,142.5 C 163.26,142.58 163.07,142.65 162.91,142.75 C 162.4,141.59 161.93,140.71 161.44,140.06 C 161.11,139.61 160.68,139.18 160.16,138.78 C 159.17,138.01 158.24,137.46 157.38,137.19 C 155.99,136.74 154.79,136.71 153.78,137.06 C 153.24,137.25 152.89,137.57 152.75,138.0 C 152.62,138.42 152.66,138.94 152.84,139.59 C 153.14,140.61 153.64,141.53 154.38,142.34 C 154.9,142.91 155.61,143.47 156.53,144.03 C 157.01,144.32 157.49,144.54 157.94,144.69 C 158.56,144.9 159.32,145.04 160.25,145.13 C 160.51,145.15 160.8,145.17 161.09,145.19 C 161.13,145.19 161.18,145.19 161.22,145.19 C 161.24,145.19 161.23,145.21 161.22,145.22 L 161.22,145.25 C 161.21,145.28 161.23,145.3 161.22,145.34 C 161.21,145.41 161.19,145.49 161.19,145.56 C 161.17,145.7 161.16,145.83 161.16,145.97 C 161.16,146.04 161.16,146.12 161.16,146.19 C 161.16,146.19 161.15,146.19 161.13,146.19 C 161.11,146.19 161.08,146.19 161.06,146.19 C 161.01,146.18 160.96,146.16 160.94,146.16 C 160.87,146.15 160.79,146.16 160.72,146.16 C 159.69,146.05 158.83,146.04 158.13,146.13 C 157.53,146.19 156.89,146.35 156.22,146.63 C 155.61,146.87 155.1,147.12 154.69,147.38 C 153.55,148.05 152.67,148.97 152.06,150.13 C 151.7,150.8 151.57,151.36 151.63,151.84 C 151.67,152.35 151.97,152.74 152.53,153.03 C 153.59,153.58 154.86,153.71 156.38,153.41 C 157.16,153.26 158.02,152.9 158.97,152.38 C 159.48,152.1 159.91,151.82 160.25,151.53 C 160.74,151.1 161.27,150.53 161.81,149.78 C 161.96,149.57 162.12,149.33 162.28,149.09 C 162.32,149.04 162.36,148.97 162.41,148.91 C 162.42,148.88 162.41,148.87 162.41,148.88 L 162.44,148.88 C 162.46,148.89 162.49,148.89 162.5,148.91 C 162.55,148.95 162.6,149.02 162.66,149.06 C 162.77,149.15 162.88,149.21 163.0,149.28 C 163.06,149.32 163.12,149.37 163.19,149.41 C 163.18,149.41 163.2,149.39 163.22,149.41 C 163.23,149.41 163.22,149.44 163.22,149.44 C 163.2,149.46 163.18,149.47 163.16,149.5 C 163.11,149.57 163.07,149.63 163.03,149.69 C 162.41,150.55 161.95,151.34 161.66,152.0 C 161.44,152.49 161.28,153.01 161.19,153.56 C 161.1,154.05 161.06,154.5 161.03,154.94 C 160.95,156.24 161.2,157.49 161.75,158.63 C 162.1,159.34 162.48,159.86 162.91,160.22 C 163.38,160.61 163.87,160.73 164.38,160.56 C 164.89,160.39 165.4,159.96 165.91,159.31 C 166.32,158.79 166.65,158.25 166.91,157.66 C 167.3,156.73 167.52,155.58 167.53,154.19 C 167.54,153.63 167.46,153.08 167.34,152.59 C 167.19,151.92 166.9,151.15 166.47,150.25 C 166.4,150.13 166.35,150.01 166.28,149.88 C 166.27,149.84 166.24,149.81 166.22,149.78 L 166.22,149.72 C 166.21,149.71 166.19,149.69 166.19,149.69 L 166.19,149.66 C 166.22,149.65 166.25,149.64 166.28,149.63 C 166.42,149.58 166.53,149.53 166.66,149.47 C 166.79,149.41 166.91,149.33 167.03,149.25 C 167.04,149.24 167.06,149.25 167.06,149.25 C 167.07,149.24 167.09,149.25 167.09,149.25 C 167.11,149.28 167.11,149.34 167.13,149.38 C 167.16,149.44 167.19,149.5 167.22,149.56 C 167.28,149.69 167.35,149.81 167.41,149.94 C 167.82,150.82 168.23,151.52 168.66,152.06 C 168.75,152.18 168.84,152.3 168.94,152.41 C 168.96,152.43 168.97,152.44 169.0,152.47 C 169.01,152.48 169.02,152.52 169.03,152.53 L 169.06,152.53 C 169.06,152.52 169.06,152.5 169.06,152.5 C 169.07,152.45 169.06,152.4 169.06,152.34 C 169.09,152.14 169.11,151.95 169.13,151.75 C 169.14,151.55 169.17,151.36 169.19,151.16 C 169.19,151.06 169.19,150.94 169.19,150.84 C 169.19,150.8 169.21,150.77 169.22,150.72 L 169.22,150.63 C 169.22,150.61 169.22,150.59 169.22,150.59 C 169.2,150.57 169.18,150.56 169.19,150.56 C 168.97,150.38 168.72,150.16 168.44,149.88 C 168.28,149.71 168.1,149.53 167.91,149.31 C 167.81,149.2 167.69,149.07 167.56,148.94 C 167.54,148.91 167.54,148.91 167.53,148.91 L 167.56,148.88 C 167.57,148.88 167.58,148.86 167.59,148.84 C 167.61,148.83 167.61,148.83 167.63,148.81 C 167.68,148.75 167.75,148.69 167.81,148.63 C 167.94,148.49 168.06,148.36 168.16,148.22 C 168.26,148.08 168.33,147.91 168.41,147.75 C 168.45,147.67 168.49,147.61 168.53,147.53 C 168.54,147.49 168.57,147.45 168.59,147.41 C 168.6,147.38 168.59,147.38 168.59,147.38 C 168.6,147.38 168.64,147.37 168.66,147.38 C 168.72,147.4 168.78,147.43 168.88,147.47 C 168.91,147.48 168.95,147.49 169.0,147.5 C 169.05,147.53 169.05,147.54 169.03,147.53 C 169.04,147.53 169.06,147.54 169.06,147.53 C 169.06,147.52 169.06,147.51 169.06,147.5 C 169.03,147.3 169.0,147.11 168.97,146.91 C 168.96,146.87 168.97,146.83 168.97,146.81 C 168.97,146.81 168.94,146.81 168.94,146.81 C 168.93,146.81 168.92,146.81 168.91,146.81 C 168.91,146.81 168.88,146.81 168.84,146.81 C 168.83,146.81 168.81,146.81 168.78,146.81 C 168.76,146.81 168.75,146.82 168.75,146.81 C 168.77,146.74 168.81,146.67 168.81,146.59 C 168.85,146.38 168.85,146.25 168.84,146.19 C 168.8,145.98 168.74,145.77 168.69,145.56 C 168.59,145.15 168.47,144.73 168.34,144.31 C 168.31,144.21 168.29,144.1 168.25,144.0 C 168.23,143.93 168.16,143.82 168.06,143.69 C 168.04,143.65 168.03,143.63 168.0,143.59 C 168.01,143.6 168.0,143.56 168.0,143.56 C 168.01,143.56 168.0,143.53 168.0,143.53 C 168.01,143.52 168.02,143.53 168.03,143.53 L 168.06,143.5 C 168.07,143.49 168.07,143.46 168.06,143.44 C 167.99,143.23 167.93,143.05 167.84,142.84 C 167.84,142.84 167.82,142.82 167.81,142.81 C 167.81,142.82 167.79,142.8 167.78,142.81 C 167.77,142.83 167.76,142.86 167.75,142.88 C 167.72,142.93 167.7,142.99 167.66,143.06 C 167.64,143.09 167.59,143.12 167.56,143.16 C 167.56,143.16 167.56,143.14 167.53,143.13 C 167.51,143.1 167.49,143.08 167.47,143.06 C 167.36,142.97 167.24,142.86 167.13,142.78 C 167.06,142.74 167.0,142.73 166.94,142.69 C 166.9,142.67 166.88,142.64 166.84,142.63 C 166.83,142.62 166.8,142.61 166.78,142.59 C 166.77,142.59 166.76,142.58 166.78,142.56 C 166.96,142.32 167.12,142.07 167.28,141.84 C 167.29,141.82 167.32,141.81 167.34,141.78 C 167.36,141.77 167.34,141.76 167.34,141.75 C 167.34,141.75 167.35,141.73 167.34,141.72 C 167.33,141.69 167.33,141.68 167.31,141.66 C 167.29,141.61 167.28,141.55 167.25,141.5 C 167.2,141.4 167.15,141.29 167.09,141.19 C 167.04,141.08 166.99,140.97 166.94,140.88 C 166.91,140.82 166.87,140.8 166.84,140.75 C 166.83,140.72 166.8,140.68 166.78,140.66 C 166.78,140.64 166.79,140.63 166.78,140.63 L 166.75,140.59 C 166.67,140.94 166.53,141.39 166.34,141.97 C 166.32,142.04 166.31,142.13 166.28,142.22 L 166.25,142.34 C 166.25,142.32 166.23,142.32 166.22,142.34 L 166.19,142.34 C 166.17,142.34 166.18,142.33 166.16,142.31 C 166.11,142.3 166.04,142.29 166.0,142.28 C 165.65,142.18 165.32,142.15 164.97,142.16 C 164.79,142.16 164.61,142.16 164.44,142.19 C 164.42,142.19 164.4,142.21 164.38,142.22 C 164.37,142.22 164.37,142.2 164.38,142.19 C 164.37,142.16 164.35,142.14 164.34,142.13 C 164.34,142.08 164.35,142.01 164.34,141.97 C 164.32,141.8 164.3,141.64 164.28,141.5 C 164.12,140.4 164.08,139.52 164.19,138.81 C 164.25,138.43 164.35,138.09 164.47,137.81 C 164.5,137.73 164.53,137.66 164.56,137.59 C 164.58,137.57 164.59,137.58 164.59,137.56 C 164.61,137.54 164.61,137.53 164.59,137.5 C 164.54,137.44 164.49,137.37 164.44,137.31 C 164.23,137.08 164.03,136.85 163.81,136.63 C 163.59,136.4 163.35,136.18 163.13,135.97 C 163.01,135.86 162.9,135.73 162.78,135.63 L 162.75,135.63 L 162.72,135.59 C 162.72,135.59 162.73,135.58 162.72,135.56 C 162.71,135.56 162.69,135.56 162.69,135.56 z M 158.09,140.31 C 158.6,140.25 159.14,140.4 159.78,140.75 C 160.5,141.14 161.41,141.93 162.47,143.13 C 162.01,143.52 161.67,144.0 161.44,144.56 C 161.42,144.59 161.41,144.61 161.41,144.63 C 161.4,144.64 161.38,144.63 161.38,144.63 C 161.36,144.62 161.36,144.63 161.34,144.63 C 161.33,144.62 161.32,144.63 161.31,144.63 C 161.27,144.61 161.21,144.58 161.16,144.56 C 161.08,144.53 161.02,144.5 160.94,144.47 C 160.78,144.4 160.64,144.33 160.5,144.28 C 160.25,144.18 160.0,144.09 159.81,144.0 C 158.36,143.32 157.5,142.54 157.25,141.63 C 157.15,141.27 157.18,140.98 157.31,140.75 C 157.46,140.52 157.73,140.36 158.09,140.31 z M 165.06,143.34 C 165.58,143.35 166.05,143.5 166.5,143.81 C 167.1,144.23 167.46,144.81 167.59,145.53 C 167.73,146.25 167.6,146.9 167.19,147.5 C 166.76,148.11 166.18,148.49 165.47,148.63 C 164.75,148.76 164.11,148.6 163.5,148.19 C 162.89,147.77 162.51,147.19 162.38,146.47 C 162.24,145.75 162.4,145.11 162.81,144.5 C 163.23,143.89 163.81,143.51 164.53,143.38 C 164.71,143.34 164.89,143.34 165.06,143.34 z M 161.22,146.75 C 161.34,147.35 161.59,147.9 161.97,148.38 C 161.98,148.39 161.99,148.42 162.0,148.44 C 161.99,148.44 162.0,148.47 162.0,148.47 C 161.99,148.48 161.98,148.46 161.97,148.47 C 161.96,148.48 161.94,148.49 161.94,148.5 C 161.91,148.52 161.89,148.55 161.84,148.59 C 161.77,148.65 161.68,148.7 161.63,148.75 C 161.49,148.85 161.36,148.95 161.25,149.03 C 161.03,149.2 160.86,149.35 160.69,149.47 C 159.38,150.39 158.26,150.73 157.34,150.5 C 156.99,150.41 156.75,150.27 156.63,150.03 C 156.49,149.79 156.49,149.49 156.63,149.16 C 156.82,148.69 157.23,148.25 157.84,147.88 C 158.54,147.45 159.66,147.07 161.22,146.75 z M 163.78,149.66 C 164.35,149.85 164.93,149.9 165.53,149.81 C 165.55,149.81 165.57,149.81 165.59,149.81 C 165.61,149.81 165.62,149.81 165.63,149.81 C 165.62,149.82 165.62,149.86 165.63,149.91 C 165.64,149.96 165.65,150.0 165.66,150.03 C 165.67,150.12 165.67,150.23 165.69,150.31 C 165.71,150.48 165.73,150.61 165.75,150.75 C 165.79,151.03 165.82,151.3 165.84,151.5 C 165.98,153.1 165.72,154.23 165.06,154.91 C 164.8,155.17 164.54,155.29 164.28,155.28 C 164.01,155.27 163.76,155.13 163.53,154.84 C 163.23,154.44 163.05,153.85 163.03,153.13 C 163.01,152.31 163.28,151.17 163.78,149.66 z M 147.94,157.38 C 147.79,157.39 147.63,157.44 147.47,157.53 C 146.84,157.89 146.36,158.43 146.03,159.19 C 145.73,159.88 145.59,160.56 145.63,161.22 C 145.64,161.47 145.68,161.76 145.75,162.06 C 145.79,162.23 145.82,162.4 145.88,162.59 C 145.89,162.64 145.92,162.67 145.94,162.72 C 145.94,162.75 145.93,162.79 145.94,162.81 C 145.95,162.85 145.98,162.88 145.97,162.88 C 145.92,162.88 145.86,162.87 145.81,162.88 C 145.71,162.9 145.62,162.94 145.53,162.97 L 145.47,163.0 C 145.46,163.01 145.44,162.99 145.44,162.97 C 145.43,162.92 145.42,162.87 145.41,162.81 C 145.38,162.71 145.37,162.62 145.34,162.53 C 145.25,162.19 145.14,161.9 145.03,161.66 C 144.87,161.29 144.62,160.9 144.28,160.53 C 143.99,160.21 143.69,159.96 143.41,159.78 C 143.05,159.54 142.69,159.35 142.25,159.25 C 141.72,159.11 141.31,159.13 141.0,159.25 C 140.68,159.38 140.51,159.67 140.5,160.13 C 140.49,160.54 140.59,160.97 140.78,161.44 C 141.05,162.1 141.53,162.7 142.25,163.25 C 142.54,163.47 142.92,163.66 143.34,163.81 C 143.61,163.91 143.9,164.01 144.25,164.09 C 144.22,164.08 144.23,164.07 144.31,164.09 C 144.34,164.1 144.35,164.11 144.34,164.13 C 144.34,164.14 144.33,164.17 144.31,164.19 C 144.3,164.23 144.29,164.27 144.28,164.31 C 144.26,164.4 144.23,164.48 144.22,164.56 C 144.22,164.57 144.22,164.59 144.22,164.59 L 144.19,164.59 L 144.16,164.59 C 144.12,164.58 144.08,164.58 144.03,164.56 C 143.95,164.54 143.87,164.49 143.78,164.47 C 143.62,164.43 143.46,164.41 143.31,164.38 C 143.05,164.32 142.82,164.29 142.59,164.28 C 142.3,164.27 141.99,164.3 141.63,164.38 C 140.95,164.52 140.37,164.73 139.94,165.03 C 139.64,165.23 139.41,165.48 139.19,165.75 C 139.17,165.77 139.14,165.79 139.13,165.81 C 139.11,165.84 139.12,165.84 139.13,165.84 C 139.18,165.88 139.22,165.93 139.28,165.97 C 139.39,166.04 139.51,166.11 139.63,166.19 C 139.85,166.33 140.08,166.49 140.31,166.63 C 140.79,166.9 141.29,167.14 141.78,167.38 C 141.9,167.43 142.03,167.51 142.16,167.56 C 142.22,167.59 142.29,167.6 142.34,167.63 C 142.4,167.65 142.4,167.66 142.41,167.66 C 142.43,167.64 142.46,167.66 142.47,167.66 C 142.64,167.6 142.8,167.52 142.91,167.47 C 143.25,167.32 143.6,167.11 143.97,166.78 C 144.08,166.68 144.19,166.55 144.31,166.44 C 144.37,166.37 144.43,166.32 144.5,166.25 C 144.53,166.21 144.56,166.19 144.59,166.16 C 144.61,166.14 144.65,166.11 144.66,166.13 L 144.66,166.16 C 144.71,166.23 144.78,166.28 144.84,166.34 C 144.88,166.38 144.93,166.41 144.97,166.44 C 145.0,166.46 145.01,166.49 145.0,166.5 C 144.96,166.53 144.94,166.56 144.91,166.59 C 144.42,167.06 144.07,167.47 143.84,167.84 C 143.8,167.93 143.76,168.02 143.72,168.09 C 143.71,168.11 143.69,168.14 143.69,168.16 C 143.69,168.16 143.71,168.16 143.72,168.16 L 143.72,168.19 C 143.73,168.19 143.76,168.18 143.78,168.19 C 143.85,168.21 143.91,168.23 143.97,168.25 L 144.34,168.38 C 144.42,168.4 144.47,168.42 144.53,168.44 L 144.56,168.44 L 144.56,168.41 C 144.56,168.39 144.56,168.38 144.56,168.38 C 144.61,168.04 144.72,167.69 144.91,167.31 C 144.96,167.19 145.06,167.03 145.16,166.84 C 145.18,166.79 145.19,166.76 145.22,166.72 C 145.21,166.74 145.22,166.7 145.25,166.66 C 145.26,166.64 145.29,166.64 145.31,166.66 L 145.47,166.75 C 145.68,166.84 145.89,166.89 146.13,166.91 L 146.16,166.91 C 146.17,166.91 146.19,166.91 146.19,166.91 L 146.22,166.91 L 146.22,167.0 C 146.22,167.02 146.22,167.02 146.22,167.03 C 146.22,167.09 146.22,167.14 146.22,167.19 C 146.21,167.29 146.19,167.39 146.19,167.47 C 146.17,167.63 146.16,167.76 146.16,167.88 C 146.14,168.06 146.11,168.26 146.06,168.44 C 146.04,168.53 146.03,168.61 146.0,168.69 C 145.99,168.71 145.98,168.73 145.97,168.75 C 145.97,168.76 145.98,168.77 145.97,168.78 C 145.96,168.79 145.96,168.81 145.97,168.81 C 146.09,168.84 146.21,168.85 146.34,168.88 C 146.47,168.9 146.62,168.92 146.75,168.94 C 146.79,168.94 146.82,168.96 146.84,168.97 C 146.84,168.97 146.84,168.94 146.84,168.94 C 146.84,168.93 146.84,168.91 146.84,168.91 C 146.84,168.86 146.84,168.83 146.84,168.78 C 146.85,168.58 146.85,168.36 146.81,168.13 C 146.77,167.86 146.72,167.55 146.63,167.22 C 146.61,167.13 146.56,167.03 146.53,166.94 C 146.52,166.9 146.53,166.87 146.53,166.88 C 146.54,166.87 146.55,166.88 146.56,166.88 C 146.59,166.87 146.61,166.88 146.63,166.88 C 146.72,166.86 146.82,166.84 146.91,166.81 C 146.93,166.81 146.94,166.79 146.97,166.78 C 146.98,166.77 146.99,166.75 147.0,166.75 C 147.01,166.74 147.03,166.75 147.03,166.75 C 147.03,166.75 147.02,166.77 147.03,166.78 C 147.05,166.88 147.07,166.97 147.09,167.06 C 147.14,167.23 147.2,167.38 147.25,167.53 C 147.34,167.8 147.43,168.04 147.53,168.25 C 147.67,168.54 147.87,168.84 148.13,169.13 C 148.13,169.13 148.14,169.15 148.19,169.16 C 148.23,169.16 148.29,169.16 148.31,169.16 C 148.38,169.16 148.44,169.16 148.5,169.16 C 148.62,169.17 148.72,169.18 148.84,169.19 C 149.09,169.2 149.35,169.21 149.59,169.22 C 150.08,169.23 150.55,169.21 151.03,169.19 C 151.27,169.17 151.5,169.18 151.75,169.16 C 151.81,169.16 151.87,169.14 151.94,169.13 C 151.94,169.12 151.94,169.1 151.94,169.09 C 151.94,169.09 151.94,169.08 151.94,169.06 C 151.94,169.04 151.94,169.03 151.94,169.0 C 151.92,168.92 151.87,168.81 151.84,168.72 C 151.75,168.38 151.64,168.09 151.47,167.81 C 151.18,167.34 150.75,166.91 150.22,166.5 C 149.93,166.28 149.56,166.06 149.13,165.91 C 148.85,165.82 148.55,165.74 148.19,165.66 L 148.13,165.63 C 148.13,165.61 148.15,165.61 148.16,165.59 C 148.16,165.57 148.15,165.55 148.16,165.53 C 148.17,165.49 148.17,165.45 148.19,165.41 C 148.21,165.32 148.24,165.22 148.25,165.13 C 149.02,165.35 149.67,165.48 150.16,165.47 C 150.46,165.46 150.82,165.4 151.25,165.28 C 152.04,165.07 152.68,164.68 153.19,164.13 C 153.52,163.76 153.71,163.42 153.75,163.13 C 153.79,162.81 153.65,162.54 153.31,162.31 C 152.67,161.89 151.9,161.73 151.0,161.84 C 150.26,161.94 149.63,162.18 149.09,162.53 C 148.9,162.66 148.69,162.83 148.47,163.03 C 148.35,163.14 148.19,163.24 148.06,163.38 C 147.99,163.45 147.95,163.55 147.88,163.63 C 147.87,163.63 147.85,163.62 147.84,163.63 L 147.84,163.59 C 147.84,163.59 147.82,163.58 147.81,163.56 C 147.79,163.54 147.76,163.55 147.75,163.53 C 147.68,163.46 147.64,163.38 147.56,163.31 C 147.54,163.3 147.52,163.29 147.5,163.28 C 147.49,163.27 147.48,163.23 147.5,163.22 C 147.51,163.2 147.54,163.21 147.56,163.19 C 147.64,163.12 147.72,163.03 147.78,162.97 C 148.03,162.71 148.24,162.5 148.41,162.28 C 148.64,161.96 148.81,161.6 148.94,161.22 C 149.06,160.87 149.14,160.58 149.19,160.31 C 149.32,159.58 149.26,158.86 148.97,158.19 C 148.71,157.58 148.37,157.32 147.94,157.38 z M 147.31,160.09 C 147.54,160.04 147.71,160.19 147.84,160.47 C 148.05,160.92 147.97,161.51 147.63,162.28 C 147.58,162.39 147.54,162.49 147.47,162.63 C 147.44,162.69 147.38,162.77 147.34,162.84 C 147.32,162.88 147.31,162.92 147.28,162.97 C 147.27,162.98 147.27,163.03 147.25,163.06 C 147.25,163.07 147.23,163.06 147.22,163.06 C 147.22,163.07 147.22,163.08 147.19,163.06 C 146.91,162.91 146.61,162.84 146.28,162.84 C 146.3,162.0 146.38,161.37 146.53,160.97 C 146.67,160.61 146.84,160.36 147.06,160.22 C 147.15,160.17 147.24,160.11 147.31,160.09 z M 143.19,161.28 C 143.45,161.29 143.73,161.42 144.03,161.66 C 144.37,161.93 144.75,162.41 145.19,163.13 C 144.91,163.29 144.7,163.51 144.53,163.78 C 144.51,163.81 144.48,163.82 144.47,163.81 C 144.47,163.81 144.46,163.83 144.44,163.81 C 144.4,163.8 144.39,163.76 144.38,163.75 C 144.34,163.72 144.32,163.71 144.28,163.69 C 144.2,163.64 144.12,163.61 144.06,163.56 C 143.93,163.48 143.83,163.4 143.75,163.34 C 143.06,162.86 142.68,162.38 142.63,161.88 C 142.59,161.46 142.78,161.27 143.19,161.28 z M 149.97,163.13 C 150.08,163.12 150.18,163.11 150.28,163.13 C 150.41,163.14 150.54,163.2 150.66,163.25 C 151.04,163.42 151.12,163.65 150.91,164.0 C 150.76,164.22 150.49,164.42 150.13,164.56 C 149.73,164.72 149.13,164.79 148.28,164.81 C 148.27,164.49 148.18,164.19 148.03,163.91 C 148.02,163.88 148.02,163.88 148.03,163.88 C 148.05,163.87 148.06,163.84 148.06,163.84 C 148.08,163.83 148.09,163.83 148.13,163.81 C 148.16,163.79 148.21,163.77 148.25,163.75 C 148.33,163.71 148.4,163.66 148.47,163.63 C 148.6,163.56 148.71,163.51 148.81,163.47 C 149.24,163.27 149.63,163.15 149.97,163.13 z M 146.25,163.47 C 146.63,163.47 146.97,163.6 147.25,163.88 C 147.52,164.15 147.66,164.49 147.66,164.88 C 147.66,165.27 147.52,165.6 147.25,165.88 C 146.98,166.15 146.63,166.27 146.25,166.28 C 145.86,166.28 145.52,166.15 145.25,165.88 C 144.98,165.6 144.84,165.27 144.84,164.88 C 144.84,164.49 144.98,164.15 145.25,163.88 C 145.52,163.6 145.86,163.47 146.25,163.47 z M 144.22,164.91 C 144.23,165.23 144.29,165.53 144.44,165.81 C 144.46,165.84 144.45,165.87 144.44,165.88 C 144.4,165.89 144.36,165.93 144.34,165.94 C 144.3,165.96 144.26,165.98 144.22,166.0 C 144.15,166.05 144.07,166.06 144.0,166.09 C 143.87,166.17 143.75,166.24 143.66,166.28 C 142.89,166.63 142.3,166.7 141.84,166.5 C 141.47,166.32 141.38,166.06 141.59,165.72 C 141.74,165.49 141.99,165.32 142.34,165.19 C 142.75,165.02 143.38,164.93 144.22,164.91 z M 148.0,165.91 L 148.03,165.94 C 148.04,165.95 148.07,165.96 148.09,165.97 C 148.13,165.99 148.17,166.04 148.22,166.06 C 148.29,166.11 148.37,166.15 148.44,166.19 C 148.56,166.27 148.66,166.34 148.75,166.41 C 149.44,166.89 149.8,167.38 149.84,167.88 C 149.89,168.29 149.72,168.49 149.31,168.47 C 149.05,168.46 148.77,168.33 148.47,168.09 C 148.14,167.82 147.72,167.34 147.28,166.63 C 147.55,166.46 147.79,166.21 147.97,165.94 C 147.98,165.91 147.99,165.9 148.0,165.91 z M 141.06,132.97 C 141.06,132.98 141.05,132.99 141.03,133.0 L 141.0,133.03 C 140.93,133.07 140.85,133.09 140.78,133.13 C 140.65,133.2 140.51,133.3 140.38,133.38 C 139.83,133.69 139.31,134.02 138.81,134.38 C 138.56,134.56 138.31,134.74 138.06,134.94 C 138.0,134.98 137.94,135.04 137.88,135.09 C 137.84,135.12 137.81,135.13 137.78,135.16 C 137.77,135.16 137.76,135.2 137.75,135.25 C 137.72,135.35 137.68,135.46 137.66,135.56 C 137.57,135.94 137.51,136.35 137.47,136.84 C 137.43,137.38 137.5,137.95 137.66,138.53 C 137.76,138.92 137.89,139.36 138.09,139.84 C 138.11,139.88 138.14,139.9 138.16,139.94 L 138.16,140.0 C 138.12,140.01 138.06,140.02 138.03,140.03 C 137.97,140.05 137.91,140.07 137.84,140.09 C 137.79,140.11 137.72,140.15 137.66,140.19 C 137.62,140.2 137.59,140.21 137.56,140.22 C 137.54,140.23 137.54,140.24 137.53,140.25 C 137.53,140.25 137.51,140.24 137.5,140.22 C 137.49,140.2 137.51,140.17 137.5,140.16 C 137.27,139.51 137.02,138.99 136.78,138.56 C 136.59,138.22 136.4,137.94 136.16,137.69 C 136.07,137.59 135.97,137.49 135.84,137.38 C 135.79,137.32 135.74,137.26 135.69,137.22 L 135.66,137.19 L 135.63,137.22 C 135.61,137.24 135.61,137.26 135.59,137.28 C 135.55,137.32 135.53,137.37 135.5,137.41 C 135.23,137.71 134.97,138.02 134.72,138.34 C 134.72,138.35 134.74,138.34 134.75,138.34 C 134.76,138.35 134.74,138.38 134.75,138.38 C 134.77,138.38 134.79,138.38 134.81,138.38 C 134.85,138.39 134.87,138.39 134.91,138.41 C 134.97,138.43 135.05,138.47 135.13,138.5 C 135.26,138.57 135.39,138.63 135.53,138.72 C 135.8,138.9 136.05,139.1 136.28,139.34 C 136.42,139.49 136.56,139.68 136.75,139.91 C 136.85,140.03 136.97,140.18 137.09,140.34 C 137.12,140.38 137.15,140.42 137.19,140.47 C 137.18,140.47 137.16,140.49 137.16,140.5 C 137.15,140.51 137.14,140.52 137.13,140.53 C 137.11,140.54 137.08,140.54 137.06,140.56 C 137.02,140.6 136.98,140.65 136.94,140.69 C 136.78,140.84 136.65,141.01 136.53,141.19 C 136.48,141.28 136.42,141.37 136.38,141.47 C 136.36,141.46 136.34,141.46 136.34,141.47 C 136.31,141.45 136.31,141.43 136.31,141.44 C 136.28,141.42 136.26,141.41 136.25,141.41 C 136.15,141.36 136.05,141.32 135.97,141.28 C 135.81,141.2 135.65,141.13 135.53,141.06 C 135.31,140.95 135.13,140.85 134.97,140.75 C 134.69,140.56 134.46,140.35 134.25,140.13 C 134.13,140.01 134.02,139.9 133.94,139.78 L 133.88,139.69 C 133.86,139.67 133.85,139.64 133.84,139.63 C 133.84,139.63 133.82,139.62 133.81,139.63 C 133.71,139.79 133.6,139.96 133.5,140.13 C 133.43,140.25 133.35,140.38 133.28,140.5 C 133.25,140.57 133.22,140.63 133.19,140.69 C 133.17,140.71 133.17,140.72 133.16,140.75 C 133.14,140.77 133.13,140.8 133.13,140.81 C 133.12,140.83 133.12,140.84 133.13,140.84 C 133.32,140.98 133.49,141.1 133.66,141.19 C 134.13,141.43 134.74,141.62 135.5,141.75 C 135.72,141.79 135.96,141.81 136.22,141.84 C 136.23,141.84 136.22,141.86 136.22,141.88 C 136.22,141.89 136.23,141.92 136.22,141.94 C 136.21,141.97 136.19,141.97 136.19,142.0 C 136.17,142.07 136.17,142.13 136.16,142.19 L 136.13,142.38 L 136.13,142.47 C 136.12,142.48 136.13,142.49 136.13,142.5 L 136.13,142.53 C 136.16,142.54 136.13,142.54 136.06,142.53 C 135.81,142.48 135.57,142.43 135.34,142.41 C 134.6,142.3 133.98,142.29 133.47,142.38 C 133.14,142.43 132.72,142.55 132.25,142.72 C 132.22,142.73 132.19,142.74 132.19,142.75 C 132.18,142.78 132.18,142.81 132.16,142.84 C 132.13,142.91 132.11,142.97 132.09,143.03 C 132.04,143.15 131.98,143.28 131.94,143.41 C 131.85,143.65 131.77,143.9 131.69,144.16 C 131.37,145.15 131.12,146.18 130.97,147.22 C 131.91,147.38 132.84,147.3 133.78,146.94 C 134.3,146.73 134.72,146.51 135.03,146.31 C 135.53,145.98 136.07,145.43 136.66,144.69 C 136.7,144.64 136.74,144.59 136.78,144.53 C 136.8,144.51 136.85,144.5 136.88,144.47 C 136.88,144.48 136.9,144.46 136.91,144.47 C 136.96,144.51 137.01,144.58 137.06,144.63 C 137.16,144.72 137.26,144.8 137.38,144.88 L 137.41,144.88 L 137.38,144.94 C 137.35,144.96 137.3,144.97 137.28,145.0 L 137.16,145.16 C 137.07,145.26 136.98,145.37 136.91,145.47 C 136.76,145.66 136.64,145.82 136.53,146.0 C 136.17,146.53 135.92,147.06 135.78,147.59 C 135.52,148.62 135.47,149.51 135.63,150.28 C 135.72,150.77 135.88,151.24 136.13,151.69 C 136.44,152.29 136.82,152.64 137.22,152.69 C 137.62,152.74 138.07,152.51 138.56,152.03 C 138.92,151.67 139.23,151.28 139.47,150.84 C 139.87,150.11 140.09,149.2 140.13,148.13 C 140.15,147.55 140.03,146.92 139.78,146.19 C 139.7,145.96 139.64,145.7 139.53,145.44 C 139.51,145.37 139.46,145.32 139.44,145.25 C 139.42,145.22 139.43,145.19 139.44,145.19 C 139.45,145.19 139.46,145.19 139.47,145.19 C 139.48,145.19 139.48,145.19 139.5,145.19 C 139.57,145.17 139.65,145.12 139.72,145.09 C 139.78,145.07 139.84,145.06 139.91,145.03 C 139.94,145.02 139.97,144.99 140.0,144.97 C 140.02,144.96 140.05,144.98 140.06,144.97 C 140.06,144.98 140.09,145.01 140.09,145.03 C 140.19,145.31 140.28,145.55 140.38,145.78 C 140.71,146.58 141.11,147.21 141.56,147.66 C 141.95,148.04 142.33,148.36 142.72,148.63 C 143.17,148.93 143.66,149.14 144.19,149.28 C 144.86,149.46 145.46,149.5 145.97,149.41 C 146.53,149.3 146.86,149.01 146.94,148.53 C 147.02,148.08 146.9,147.51 146.63,146.84 C 146.25,145.94 145.58,145.14 144.59,144.44 C 144.14,144.11 143.65,143.87 143.16,143.72 C 142.8,143.61 142.39,143.52 141.91,143.44 C 141.78,143.42 141.64,143.39 141.5,143.38 C 141.47,143.37 141.45,143.38 141.41,143.38 C 141.4,143.38 141.38,143.38 141.38,143.38 C 141.37,143.38 141.38,143.35 141.38,143.34 C 141.38,143.31 141.39,143.25 141.41,143.22 C 141.44,143.08 141.46,142.95 141.47,142.81 C 141.48,142.78 141.47,142.75 141.47,142.72 L 141.47,142.69 C 141.5,142.69 141.55,142.68 141.59,142.69 C 141.74,142.71 141.87,142.73 142.0,142.75 C 142.25,142.8 142.47,142.86 142.69,142.88 C 143.08,142.91 143.44,142.9 143.75,142.88 C 144.15,142.85 144.64,142.73 145.19,142.53 C 146.16,142.2 146.94,141.71 147.53,141.03 C 147.93,140.57 148.19,140.14 148.31,139.72 C 148.46,139.26 148.36,138.87 148.06,138.59 C 147.46,138.02 146.5,137.78 145.22,137.91 C 144.8,137.95 144.39,138.06 143.94,138.22 C 143.45,138.4 143.04,138.62 142.72,138.81 C 142.22,139.11 141.69,139.55 141.16,140.19 C 141.08,140.29 141.02,140.4 140.94,140.5 C 140.9,140.56 140.86,140.6 140.81,140.66 C 140.79,140.69 140.77,140.72 140.75,140.75 C 140.74,140.76 140.71,140.74 140.69,140.72 C 140.59,140.62 140.49,140.55 140.38,140.47 C 140.32,140.43 140.28,140.38 140.22,140.34 C 140.21,140.34 140.21,140.33 140.22,140.31 C 140.24,140.29 140.26,140.25 140.28,140.22 L 140.41,140.06 C 140.57,139.86 140.74,139.66 140.88,139.47 C 141.31,138.88 141.59,138.34 141.75,137.81 C 141.87,137.4 141.98,136.96 142.03,136.5 C 142.15,135.5 141.97,134.57 141.53,133.69 C 141.41,133.44 141.3,133.21 141.16,133.03 C 141.14,133.01 141.11,132.99 141.09,132.97 C 141.09,132.97 141.07,132.96 141.06,132.97 z M 139.78,136.19 C 139.98,136.2 140.16,136.36 140.31,136.63 C 140.64,137.18 140.63,137.98 140.28,139.03 C 140.23,139.17 140.16,139.32 140.09,139.5 C 140.05,139.59 140.01,139.7 139.97,139.81 C 139.95,139.86 139.93,139.93 139.91,140.0 C 139.89,140.03 139.89,140.06 139.88,140.09 L 139.84,140.13 C 139.84,140.14 139.82,140.14 139.78,140.13 C 139.39,139.97 138.99,139.9 138.56,139.94 C 138.47,138.84 138.51,138.02 138.66,137.47 C 138.79,136.98 138.98,136.63 139.25,136.41 C 139.35,136.32 139.47,136.25 139.56,136.22 C 139.63,136.19 139.71,136.18 139.78,136.19 z M 143.84,139.81 C 144.02,139.82 144.19,139.82 144.34,139.88 C 144.86,140.05 144.99,140.4 144.75,140.88 C 144.59,141.19 144.29,141.45 143.84,141.69 C 143.34,141.95 142.53,142.14 141.44,142.28 C 141.39,141.86 141.23,141.48 141.0,141.13 C 140.98,141.09 140.99,141.07 141.0,141.06 C 141.01,141.06 141.01,141.04 141.03,141.03 C 141.06,141.02 141.1,140.99 141.13,140.97 C 141.18,140.93 141.24,140.91 141.28,140.88 C 141.38,140.81 141.45,140.74 141.53,140.69 C 141.69,140.58 141.85,140.48 141.97,140.41 C 142.69,139.98 143.32,139.8 143.84,139.81 z M 138.97,140.75 C 139.33,140.78 139.67,140.94 139.97,141.19 C 140.36,141.51 140.57,141.9 140.63,142.41 C 140.68,142.91 140.54,143.35 140.22,143.75 C 139.89,144.15 139.48,144.39 138.97,144.44 C 138.47,144.49 138.02,144.35 137.63,144.03 C 137.23,143.71 137.02,143.29 136.97,142.78 C 136.92,142.27 137.06,141.83 137.38,141.44 C 137.69,141.04 138.09,140.83 138.59,140.78 C 138.72,140.77 138.85,140.74 138.97,140.75 z M 136.16,142.94 C 136.21,143.35 136.33,143.74 136.56,144.09 C 136.59,144.13 136.61,144.14 136.59,144.16 C 136.57,144.17 136.57,144.18 136.56,144.19 C 136.52,144.21 136.48,144.21 136.47,144.22 C 136.41,144.26 136.36,144.31 136.31,144.34 C 136.21,144.41 136.12,144.45 136.03,144.5 C 135.87,144.61 135.76,144.71 135.63,144.78 C 134.67,145.35 133.87,145.52 133.25,145.31 C 132.74,145.14 132.61,144.82 132.84,144.34 C 133.0,144.03 133.3,143.77 133.75,143.53 C 134.26,143.27 135.06,143.07 136.16,142.94 z M 141.22,143.75 C 141.24,143.76 141.27,143.74 141.28,143.75 C 141.31,143.76 141.34,143.8 141.38,143.81 C 141.43,143.84 141.47,143.84 141.53,143.88 C 141.64,143.92 141.72,143.99 141.81,144.03 C 141.99,144.12 142.16,144.21 142.28,144.28 C 143.25,144.82 143.78,145.39 143.91,146.03 C 144.02,146.57 143.81,146.87 143.28,146.91 C 142.93,146.93 142.55,146.77 142.13,146.5 C 141.64,146.19 141.08,145.63 140.41,144.75 C 140.74,144.5 141.0,144.16 141.19,143.78 C 141.21,143.74 141.21,143.74 141.22,143.75 z M 137.75,145.06 C 138.14,145.23 138.55,145.28 138.97,145.25 C 139.01,145.25 139.03,145.27 139.03,145.28 C 139.03,145.29 139.03,145.32 139.03,145.34 C 139.03,145.36 139.02,145.39 139.03,145.44 C 139.04,145.5 139.06,145.57 139.06,145.63 C 139.08,145.74 139.09,145.83 139.09,145.94 C 139.1,146.13 139.09,146.29 139.09,146.44 C 139.11,147.54 138.87,148.31 138.38,148.75 C 137.96,149.11 137.61,149.09 137.31,148.66 C 137.12,148.36 137.04,147.95 137.06,147.44 C 137.09,146.87 137.32,146.08 137.75,145.06 z" />
			</g>	
			
			<path id="A" style="fill:#fff;stroke:#000;stroke-width:0.25px;"	
				d="M 149.07,149.64 C 149.1,149.72 149.1,149.79 149.07,149.87 C 148.92,150.24 148.71,150.73 148.46,151.32 L 147.26,154.11 C 146.66,155.53 146.29,156.41 146.14,156.74 C 145.99,157.09 145.73,157.34 145.37,157.49 C 145.01,157.63 144.66,157.63 144.31,157.47 C 143.95,157.32 143.7,157.07 143.55,156.71 C 143.41,156.35 143.41,155.99 143.56,155.63 C 143.77,155.15 144.4,153.69 145.45,151.24 C 146.21,149.44 146.84,147.98 147.32,146.84 C 147.38,146.72 147.47,146.66 147.6,146.66 C 147.73,146.66 147.82,146.72 147.87,146.84 C 148.01,147.15 148.21,147.62 148.47,148.24 C 148.73,148.86 148.94,149.33 149.07,149.64 z M 153.21,155.23 C 153.2,155.2 153.17,155.18 153.13,155.18 L 149.01,155.18 C 148.9,155.18 148.82,155.13 148.76,155.05 C 148.7,154.96 148.69,154.86 148.74,154.77 C 148.82,154.58 148.94,154.29 149.1,153.91 C 149.26,153.53 149.38,153.25 149.46,153.06 C 149.51,152.93 149.61,152.87 149.74,152.87 L 152.07,152.87 C 152.16,152.87 152.19,152.83 152.16,152.75 L 148.49,144.18 C 148.48,144.15 148.48,144.13 148.49,144.11 L 148.71,143.59 C 148.95,143.03 149.38,142.74 150.0,142.74 C 150.61,142.74 151.04,143.03 151.29,143.59 C 152.89,147.34 154.6,151.36 156.43,155.63 C 156.58,155.99 156.59,156.35 156.45,156.71 C 156.3,157.07 156.04,157.32 155.69,157.47 C 155.34,157.63 154.98,157.63 154.62,157.49 C 154.26,157.34 154.01,157.09 153.86,156.74 C 153.77,156.55 153.67,156.3 153.54,155.99 C 153.37,155.61 153.26,155.36 153.21,155.23 z" />
			<path id="B" style="fill:#fff;stroke:#000;stroke-width:0.25px;"	
				d="M 150.29,157.59 C 150.21,157.59 150.14,157.49 150.07,157.3 C 150.04,157.21 150.01,157.09 149.98,156.94 C 149.94,156.71 149.92,156.46 149.92,156.19 C 149.92,155.92 149.94,155.67 149.98,155.44 C 150.01,155.3 150.04,155.17 150.07,155.07 C 150.14,154.88 150.21,154.79 150.29,154.79 L 151.44,154.79 C 151.88,154.79 152.31,154.77 152.71,154.71 C 153.23,154.62 153.62,154.48 153.9,154.28 C 154.25,154.02 154.47,153.68 154.55,153.23 C 154.65,152.76 154.58,152.35 154.34,152.02 C 154.13,151.74 153.77,151.52 153.27,151.38 C 152.89,151.27 152.47,151.21 152.01,151.21 L 150.29,151.21 C 150.21,151.21 150.14,151.12 150.07,150.93 C 150.04,150.83 150.01,150.71 149.98,150.57 C 149.94,150.34 149.92,150.09 149.92,149.81 C 149.92,149.55 149.94,149.3 149.98,149.07 C 150.01,148.93 150.04,148.81 150.07,148.71 C 150.14,148.52 150.21,148.43 150.29,148.43 L 151.04,148.43 C 151.35,148.43 151.72,148.4 152.15,148.33 C 152.64,148.25 152.98,148.12 153.18,147.96 C 153.48,147.71 153.62,147.39 153.6,147.0 C 153.59,146.63 153.42,146.32 153.11,146.05 C 152.86,145.86 152.53,145.72 152.09,145.63 C 151.75,145.57 151.39,145.54 151.0,145.55 L 150.29,145.55 C 150.21,145.55 150.14,145.45 150.07,145.26 C 150.04,145.16 150.01,145.04 149.98,144.89 C 149.94,144.66 149.92,144.41 149.92,144.14 C 149.92,143.87 149.94,143.62 149.98,143.39 C 150.01,143.25 150.04,143.13 150.07,143.03 C 150.14,142.84 150.21,142.74 150.29,142.74 L 150.96,142.74 C 151.49,142.74 152.06,142.8 152.67,142.94 C 153.28,143.08 153.82,143.28 154.29,143.53 C 154.85,143.82 155.3,144.18 155.62,144.6 C 155.93,145.02 156.16,145.55 156.3,146.17 C 156.43,146.78 156.44,147.35 156.34,147.88 C 156.22,148.47 155.97,148.98 155.59,149.41 C 155.55,149.47 155.55,149.51 155.61,149.55 C 156.22,149.95 156.69,150.47 156.99,151.08 C 157.27,151.67 157.4,152.35 157.36,153.13 C 157.34,153.88 157.16,154.55 156.84,155.13 C 156.5,155.73 156.03,156.22 155.41,156.61 C 154.89,156.94 154.24,157.19 153.46,157.36 C 152.75,157.52 152.06,157.59 151.39,157.59 z M 147.87,154.79 C 147.96,154.79 148.05,154.88 148.13,155.06 C 148.16,155.16 148.2,155.28 148.22,155.42 C 148.27,155.65 148.29,155.91 148.29,156.19 C 148.29,156.46 148.27,156.72 148.22,156.95 C 148.2,157.1 148.16,157.22 148.13,157.32 C 148.05,157.5 147.96,157.59 147.87,157.59 L 145.69,157.59 C 145.3,157.59 144.97,157.45 144.71,157.18 C 144.43,156.9 144.3,156.58 144.3,156.19 L 144.3,144.14 C 144.3,143.76 144.43,143.43 144.71,143.15 C 144.97,142.88 145.3,142.74 145.69,142.74 L 147.87,142.74 C 147.96,142.74 148.05,142.83 148.13,143.01 C 148.16,143.11 148.2,143.24 148.22,143.38 C 148.27,143.61 148.29,143.87 148.29,144.14 C 148.29,144.42 148.27,144.67 148.22,144.9 C 148.2,145.05 148.16,145.18 148.13,145.27 C 148.05,145.46 147.96,145.55 147.87,145.55 L 147.18,145.55 C 147.12,145.55 147.09,145.58 147.09,145.63 L 147.09,148.34 C 147.09,148.4 147.12,148.43 147.18,148.43 L 147.87,148.43 C 147.96,148.43 148.05,148.52 148.13,148.69 C 148.16,148.8 148.2,148.92 148.22,149.06 C 148.27,149.29 148.29,149.54 148.29,149.81 C 148.29,150.09 148.27,150.35 148.22,150.58 C 148.2,150.72 148.16,150.84 148.13,150.94 C 148.05,151.12 147.96,151.21 147.87,151.21 L 147.18,151.21 C 147.12,151.21 147.09,151.24 147.09,151.3 L 147.09,154.7 C 147.09,154.76 147.12,154.79 147.18,154.79 z" />
			<path id="C" style="fill:#fff;stroke:#000;stroke-width:0.25px;"	
				d="M 152.99,143.08 C 154.1,143.43 155.09,144.07 155.96,145.0 C 155.98,145.03 156.01,145.06 156.04,145.09 C 156.13,145.24 156.2,145.39 156.25,145.54 C 156.3,145.71 156.32,145.89 156.31,146.06 C 156.29,146.25 156.23,146.43 156.12,146.59 C 156.04,146.74 155.92,146.87 155.78,146.98 C 155.65,147.09 155.51,147.18 155.36,147.24 C 155.2,147.3 155.03,147.33 154.86,147.32 C 154.69,147.32 154.53,147.29 154.38,147.22 C 154.23,147.16 154.07,147.06 153.92,146.91 C 153.71,146.69 153.49,146.5 153.27,146.33 C 153.06,146.17 152.84,146.04 152.61,145.93 C 152.5,145.88 152.38,145.83 152.27,145.79 C 152.19,145.76 152.11,145.74 152.02,145.71 C 151.97,145.7 151.91,145.68 151.86,145.66 C 151.76,145.66 151.68,145.57 151.6,145.39 C 151.56,145.29 151.53,145.17 151.5,145.02 C 151.46,144.79 151.44,144.53 151.44,144.25 C 151.44,143.97 151.46,143.71 151.5,143.47 C 151.53,143.32 151.56,143.2 151.6,143.1 C 151.68,142.91 151.76,142.82 151.86,142.82 C 152.24,142.88 152.62,142.97 152.99,143.08 z M 154.07,153.06 C 154.19,152.93 154.31,152.82 154.44,152.73 C 154.6,152.64 154.76,152.59 154.93,152.57 C 155.1,152.54 155.27,152.56 155.44,152.61 C 155.59,152.65 155.74,152.71 155.89,152.81 C 156.04,152.91 156.17,153.02 156.27,153.15 C 156.39,153.3 156.46,153.47 156.5,153.65 C 156.54,153.82 156.55,154.0 156.51,154.19 C 156.49,154.35 156.43,154.51 156.35,154.67 C 156.33,154.69 156.32,154.72 156.3,154.75 C 155.99,155.19 155.63,155.58 155.22,155.92 C 154.81,156.26 154.37,156.55 153.9,156.79 C 153.89,156.79 153.89,156.79 153.89,156.79 C 153.36,157.03 152.82,157.23 152.27,157.36 C 152.13,157.4 151.99,157.43 151.86,157.46 C 151.76,157.46 151.68,157.37 151.6,157.18 C 151.56,157.07 151.53,156.95 151.49,156.81 C 151.46,156.57 151.44,156.31 151.44,156.03 C 151.44,155.74 151.46,155.48 151.49,155.23 C 151.53,155.09 151.56,154.97 151.6,154.86 C 151.68,154.67 151.76,154.58 151.86,154.58 C 152.13,154.5 152.4,154.39 152.67,154.27 C 152.95,154.13 153.2,153.96 153.44,153.77 C 153.65,153.59 153.86,153.35 154.07,153.06 z M 149.38,145.71 C 149.29,145.74 149.21,145.77 149.12,145.8 C 148.88,145.89 148.66,145.99 148.45,146.1 C 148.02,146.34 147.64,146.66 147.3,147.05 C 147.14,147.25 146.99,147.46 146.86,147.68 C 146.73,147.89 146.63,148.12 146.54,148.36 C 146.45,148.61 146.38,148.87 146.34,149.14 C 146.29,149.41 146.26,149.7 146.25,150.0 C 146.26,150.38 146.3,150.74 146.37,151.07 C 146.43,151.41 146.52,151.72 146.64,152.01 C 146.75,152.29 146.88,152.55 147.04,152.79 C 147.2,153.03 147.39,153.26 147.61,153.49 C 147.82,153.7 148.05,153.89 148.29,154.05 C 148.52,154.22 148.76,154.35 149.0,154.45 C 149.13,154.51 149.25,154.55 149.38,154.59 C 149.48,154.59 149.56,154.68 149.63,154.87 C 149.67,154.98 149.7,155.1 149.74,155.24 C 149.78,155.49 149.8,155.75 149.8,156.03 C 149.8,156.31 149.78,156.57 149.74,156.81 C 149.7,156.96 149.67,157.08 149.63,157.19 C 149.56,157.38 149.48,157.47 149.38,157.47 C 149.32,157.46 149.26,157.44 149.21,157.43 C 148.75,157.34 148.32,157.2 147.9,157.02 C 147.49,156.85 147.09,156.63 146.71,156.37 C 146.32,156.1 145.96,155.8 145.63,155.46 C 145.27,155.11 144.97,154.73 144.71,154.34 C 144.44,153.93 144.22,153.5 144.03,153.05 C 143.86,152.59 143.72,152.11 143.62,151.6 C 143.53,151.1 143.47,150.57 143.46,150.02 L 143.46,149.99 C 143.46,149.53 143.51,149.08 143.58,148.65 C 143.66,148.22 143.76,147.81 143.91,147.41 C 144.05,147.01 144.23,146.63 144.44,146.27 C 144.65,145.9 144.9,145.56 145.18,145.23 C 145.45,144.92 145.75,144.62 146.06,144.36 C 146.38,144.1 146.72,143.86 147.07,143.66 C 147.43,143.46 147.8,143.29 148.19,143.15 C 148.57,143.02 148.97,142.92 149.38,142.84 C 149.48,142.84 149.56,142.94 149.63,143.13 C 149.67,143.23 149.7,143.35 149.74,143.5 C 149.78,143.74 149.8,144.0 149.8,144.28 C 149.8,144.56 149.78,144.82 149.74,145.06 C 149.7,145.21 149.67,145.34 149.63,145.44 C 149.56,145.62 149.48,145.71 149.38,145.71 z" />
			<path id="D" style="fill:#fff;stroke:#000;stroke-width:0.25px;"	
				d="M 150.14,142.77 C 152.17,142.94 153.74,143.72 154.85,145.12 C 155.98,146.54 156.54,148.23 156.54,150.17 C 156.54,152.11 155.98,153.79 154.85,155.21 C 153.74,156.61 152.17,157.4 150.14,157.56 C 150.05,157.56 149.96,157.47 149.89,157.29 C 149.85,157.19 149.81,157.07 149.79,156.92 C 149.74,156.69 149.72,156.43 149.72,156.15 C 149.72,155.88 149.74,155.63 149.79,155.39 C 149.81,155.24 149.85,155.12 149.89,155.02 C 149.96,154.84 150.05,154.75 150.14,154.75 C 150.32,154.73 150.49,154.7 150.66,154.67 C 150.96,154.6 151.24,154.51 151.49,154.39 C 151.73,154.29 151.94,154.17 152.12,154.02 C 152.3,153.88 152.48,153.7 152.65,153.49 C 152.82,153.27 152.97,153.03 153.12,152.76 C 153.26,152.5 153.38,152.23 153.47,151.96 C 153.56,151.7 153.63,151.41 153.67,151.11 C 153.72,150.81 153.74,150.49 153.74,150.17 C 153.74,149.84 153.72,149.52 153.67,149.22 C 153.63,148.92 153.56,148.63 153.47,148.36 C 153.38,148.09 153.26,147.83 153.12,147.57 C 152.98,147.3 152.82,147.06 152.65,146.85 C 152.48,146.63 152.3,146.45 152.12,146.31 C 151.94,146.17 151.73,146.04 151.49,145.93 C 151.24,145.82 150.96,145.73 150.65,145.66 C 150.49,145.63 150.32,145.6 150.14,145.58 C 150.05,145.58 149.96,145.49 149.89,145.31 C 149.85,145.21 149.81,145.08 149.79,144.94 C 149.74,144.71 149.72,144.45 149.72,144.17 C 149.72,143.9 149.74,143.64 149.79,143.41 C 149.81,143.26 149.85,143.14 149.89,143.04 C 149.96,142.86 150.05,142.77 150.14,142.77 z M 147.67,154.79 C 147.76,154.79 147.84,154.88 147.91,155.06 C 147.96,155.16 147.99,155.28 148.02,155.42 C 148.06,155.65 148.09,155.91 148.09,156.19 C 148.09,156.46 148.06,156.72 148.02,156.95 C 147.99,157.1 147.96,157.22 147.91,157.32 C 147.84,157.5 147.76,157.59 147.67,157.59 L 144.85,157.59 C 144.47,157.59 144.14,157.45 143.87,157.18 C 143.59,156.9 143.46,156.58 143.46,156.19 L 143.46,144.14 C 143.46,143.76 143.59,143.43 143.87,143.15 C 144.14,142.88 144.47,142.74 144.85,142.74 L 147.67,142.74 C 147.76,142.74 147.84,142.83 147.91,143.01 C 147.96,143.11 147.99,143.24 148.02,143.38 C 148.06,143.61 148.09,143.87 148.09,144.14 C 148.09,144.42 148.06,144.67 148.02,144.9 C 147.99,145.05 147.96,145.17 147.91,145.27 C 147.84,145.45 147.76,145.54 147.67,145.54 L 146.34,145.54 C 146.28,145.54 146.25,145.57 146.25,145.63 L 146.25,154.7 C 146.25,154.76 146.28,154.79 146.34,154.79 z" />
			<path id="E" style="fill:#fff;stroke:#000;stroke-width:0.25px;"	
				d="M 149.57,157.59 C 149.37,157.59 149.24,157.27 149.18,156.64 C 149.14,156.27 149.15,155.91 149.2,155.57 C 149.24,155.31 149.29,155.12 149.37,154.98 C 149.4,154.92 149.43,154.87 149.47,154.83 C 149.51,154.8 149.6,154.79 149.75,154.79 L 155.15,154.79 C 155.53,154.79 155.86,154.92 156.13,155.2 C 156.41,155.47 156.54,155.8 156.54,156.19 C 156.54,156.58 156.41,156.9 156.13,157.18 C 155.86,157.45 155.53,157.59 155.15,157.59 z M 149.57,151.62 C 149.52,151.62 149.48,151.59 149.42,151.53 C 149.38,151.47 149.33,151.38 149.29,151.26 C 149.21,151.01 149.17,150.69 149.16,150.32 C 149.15,150.04 149.17,149.77 149.21,149.52 C 149.26,149.25 149.33,149.05 149.41,148.94 C 149.45,148.89 149.48,148.86 149.52,148.84 C 149.54,148.83 149.56,148.83 149.57,148.83 L 153.0,148.83 C 153.41,148.83 153.64,148.83 153.67,148.83 C 154.19,148.87 154.57,149.12 154.81,149.58 C 155.06,150.05 155.05,150.51 154.78,150.96 C 154.5,151.4 154.1,151.62 153.57,151.62 z M 154.73,142.74 C 155.15,142.74 155.5,142.9 155.78,143.22 C 156.06,143.54 156.17,143.91 156.11,144.33 C 156.06,144.75 155.86,145.08 155.5,145.31 C 155.26,145.46 154.88,145.54 154.36,145.54 L 149.57,145.54 C 149.38,145.54 149.25,145.24 149.18,144.65 C 149.14,144.3 149.14,143.96 149.18,143.62 C 149.25,143.04 149.39,142.74 149.59,142.74 z M 146.25,154.7 C 146.25,154.76 146.28,154.79 146.34,154.79 L 147.12,154.79 C 147.21,154.79 147.29,154.88 147.36,155.06 C 147.41,155.16 147.44,155.28 147.47,155.42 C 147.52,155.65 147.54,155.91 147.54,156.19 C 147.54,156.46 147.52,156.72 147.47,156.95 C 147.44,157.1 147.41,157.22 147.36,157.32 C 147.29,157.5 147.21,157.59 147.12,157.59 L 144.85,157.59 C 144.47,157.59 144.14,157.45 143.87,157.18 C 143.59,156.9 143.46,156.58 143.46,156.19 L 143.46,144.14 C 143.46,143.76 143.59,143.43 143.87,143.15 C 144.14,142.88 144.47,142.74 144.85,142.74 L 147.12,142.74 C 147.21,142.74 147.29,142.83 147.36,143.01 C 147.41,143.11 147.44,143.24 147.47,143.38 C 147.52,143.61 147.54,143.87 147.54,144.14 C 147.54,144.42 147.52,144.67 147.47,144.9 C 147.44,145.05 147.41,145.17 147.36,145.27 C 147.29,145.45 147.21,145.54 147.12,145.54 L 146.34,145.54 C 146.28,145.54 146.25,145.57 146.25,145.63 L 146.25,148.74 C 146.25,148.8 146.28,148.83 146.34,148.83 L 147.12,148.83 C 147.21,148.83 147.29,148.92 147.36,149.09 C 147.41,149.2 147.44,149.32 147.47,149.46 C 147.52,149.7 147.54,149.95 147.54,150.22 C 147.54,150.5 147.52,150.76 147.47,150.99 C 147.44,151.13 147.41,151.25 147.36,151.36 C 147.29,151.53 147.21,151.62 147.12,151.62 L 146.34,151.62 C 146.28,151.62 146.25,151.65 146.25,151.71 z" />
			<path id="F" style="fill:#fff;stroke:#000;stroke-width:0.25px;"
				d="M 149.18,152.59 C 149.11,152.59 149.05,152.54 148.99,152.45 C 148.94,152.35 148.88,152.2 148.84,152.01 C 148.76,151.64 148.74,151.23 148.78,150.79 C 148.81,150.43 148.88,150.15 148.98,149.96 C 149.03,149.88 149.08,149.82 149.13,149.8 C 149.14,149.8 149.16,149.79 149.17,149.79 L 152.82,149.79 C 153.29,149.79 153.62,149.85 153.82,149.95 C 154.12,150.1 154.34,150.33 154.47,150.63 C 154.6,150.95 154.62,151.26 154.53,151.58 C 154.43,151.91 154.24,152.17 153.95,152.36 C 153.81,152.45 153.66,152.52 153.51,152.56 C 153.4,152.58 153.25,152.59 153.05,152.59 z M 149.18,146.06 C 149.09,146.06 149.01,145.98 148.94,145.8 C 148.9,145.7 148.86,145.57 148.83,145.43 C 148.78,145.2 148.76,144.95 148.76,144.67 C 148.76,144.39 148.78,144.14 148.83,143.91 C 148.86,143.76 148.9,143.64 148.94,143.54 C 149.01,143.36 149.09,143.27 149.18,143.27 L 155.89,143.27 C 156.39,143.27 156.78,143.48 157.06,143.91 C 157.33,144.33 157.37,144.77 157.17,145.23 C 156.97,145.7 156.62,145.97 156.12,146.04 C 156.04,146.06 155.82,146.06 155.44,146.06 z M 147.04,143.27 C 147.1,143.27 147.13,143.3 147.13,143.36 L 147.13,155.85 C 147.13,156.5 147.13,156.86 147.12,156.93 C 147.06,157.29 146.89,157.58 146.61,157.8 C 146.33,158.03 146.01,158.13 145.65,158.12 C 145.3,158.1 145.0,157.96 144.75,157.71 C 144.47,157.44 144.34,157.12 144.34,156.74 L 144.34,144.73 C 144.34,144.64 144.34,144.57 144.35,144.52 C 144.35,144.41 144.37,144.3 144.41,144.19 C 144.51,143.96 144.65,143.76 144.83,143.59 C 145.02,143.44 145.24,143.34 145.48,143.29 C 145.56,143.28 145.73,143.27 145.99,143.27 z" />
			<path id="G" style="fill:#fff;stroke:#000;stroke-width:0.25px;"	
				d="M 153.71,146.73 C 153.54,146.53 153.35,146.37 153.14,146.23 C 152.95,146.1 152.71,145.98 152.44,145.88 C 152.14,145.76 151.83,145.68 151.51,145.63 C 151.36,145.6 151.21,145.58 151.05,145.57 C 150.96,145.57 150.88,145.48 150.8,145.29 C 150.76,145.2 150.73,145.07 150.69,144.92 C 150.65,144.69 150.62,144.44 150.63,144.16 C 150.62,143.88 150.65,143.63 150.69,143.4 C 150.73,143.25 150.76,143.13 150.8,143.03 C 150.88,142.85 150.96,142.75 151.05,142.75 C 151.86,142.8 152.64,142.97 153.4,143.25 C 154.36,143.6 155.16,144.14 155.8,144.87 C 156.06,145.16 156.18,145.49 156.15,145.88 C 156.13,146.27 155.97,146.59 155.68,146.85 C 155.4,147.1 155.06,147.22 154.67,147.2 C 154.28,147.17 153.96,147.01 153.71,146.73 z M 143.46,150.04 C 143.46,149.6 143.5,149.17 143.57,148.75 C 143.65,148.33 143.76,147.93 143.91,147.55 C 144.04,147.16 144.22,146.78 144.42,146.42 C 144.63,146.05 144.87,145.7 145.15,145.37 C 145.42,145.04 145.71,144.74 146.03,144.46 C 146.34,144.19 146.67,143.95 147.03,143.73 C 147.38,143.52 147.75,143.33 148.14,143.18 C 148.4,143.08 148.67,142.99 148.95,142.92 C 149.04,142.92 149.12,143.02 149.2,143.21 C 149.24,143.32 149.27,143.45 149.3,143.6 C 149.34,143.84 149.37,144.11 149.37,144.4 C 149.37,144.69 149.34,144.96 149.3,145.21 C 149.27,145.35 149.24,145.48 149.2,145.59 C 149.12,145.78 149.04,145.88 148.95,145.88 C 148.78,145.95 148.63,146.03 148.48,146.12 C 148.26,146.25 148.06,146.4 147.86,146.57 C 147.67,146.74 147.48,146.93 147.31,147.14 C 146.97,147.56 146.71,148.01 146.53,148.5 C 146.45,148.74 146.38,148.99 146.34,149.25 C 146.29,149.51 146.26,149.78 146.25,150.06 C 146.26,150.43 146.29,150.78 146.35,151.1 C 146.4,151.43 146.48,151.73 146.59,152.01 C 146.7,152.29 146.82,152.54 146.97,152.77 C 147.13,153.01 147.31,153.25 147.52,153.47 C 147.73,153.68 147.95,153.87 148.18,154.03 C 148.41,154.2 148.65,154.33 148.89,154.43 C 148.91,154.45 148.93,154.46 148.95,154.46 C 149.04,154.46 149.12,154.56 149.2,154.75 C 149.24,154.85 149.27,154.98 149.3,155.14 C 149.34,155.38 149.37,155.64 149.37,155.93 C 149.37,156.21 149.34,156.48 149.3,156.72 C 149.27,156.87 149.24,157.0 149.2,157.11 C 149.12,157.3 149.04,157.39 148.95,157.39 C 148.54,157.29 148.14,157.16 147.76,157.0 C 147.35,156.82 146.95,156.6 146.57,156.33 C 146.19,156.06 145.83,155.76 145.51,155.41 C 145.16,155.06 144.86,154.68 144.61,154.29 C 144.36,153.88 144.14,153.46 143.97,153.01 C 143.81,152.56 143.68,152.09 143.58,151.59 C 143.5,151.1 143.46,150.58 143.46,150.04 z M 153.74,151.75 C 153.74,151.69 153.71,151.66 153.65,151.66 L 150.82,151.66 C 150.44,151.66 150.11,151.52 149.83,151.25 C 149.56,150.98 149.42,150.65 149.42,150.26 C 149.42,149.87 149.56,149.54 149.83,149.27 C 150.11,148.99 150.44,148.86 150.82,148.86 L 155.1,148.86 C 155.2,148.86 155.3,148.87 155.4,148.89 C 155.5,148.9 155.6,148.92 155.68,148.96 C 155.9,149.03 156.08,149.15 156.22,149.32 C 156.33,149.45 156.42,149.62 156.47,149.8 C 156.52,149.97 156.54,150.14 156.54,150.32 L 156.54,153.74 C 156.54,153.92 156.52,154.1 156.47,154.28 C 156.42,154.5 156.32,154.7 156.16,154.87 C 155.49,155.76 154.65,156.44 153.64,156.9 C 152.81,157.29 151.95,157.51 151.05,157.57 C 150.96,157.57 150.88,157.48 150.8,157.3 C 150.76,157.2 150.73,157.08 150.69,156.93 C 150.65,156.7 150.62,156.45 150.63,156.17 C 150.62,155.89 150.65,155.63 150.69,155.4 C 150.73,155.26 150.76,155.13 150.8,155.03 C 150.88,154.85 150.96,154.77 151.05,154.77 C 151.13,154.76 151.2,154.75 151.28,154.74 C 151.52,154.7 151.76,154.64 151.99,154.55 C 152.11,154.51 152.23,154.47 152.34,154.41 C 152.42,154.38 152.5,154.35 152.57,154.31 C 152.68,154.25 152.79,154.2 152.89,154.13 C 153.2,153.94 153.47,153.71 153.72,153.44 C 153.73,153.42 153.74,153.4 153.74,153.38 z" />
			<path id="H" style="fill:#fff;stroke:#000;stroke-width:0.25px;"	
				d="M 153.74,151.85 C 153.74,151.79 153.71,151.76 153.65,151.76 L 148.68,151.76 C 148.49,151.76 148.36,151.47 148.29,150.89 C 148.25,150.56 148.25,150.22 148.28,149.88 C 148.31,149.63 148.35,149.42 148.42,149.26 C 148.48,149.1 148.55,149.0 148.63,148.96 C 148.65,148.96 148.69,148.96 148.78,148.96 L 153.65,148.96 C 153.71,148.96 153.74,148.93 153.74,148.87 L 153.74,144.19 C 153.74,143.85 153.83,143.56 154.01,143.32 C 154.2,143.05 154.45,142.88 154.77,142.79 C 155.08,142.71 155.38,142.73 155.68,142.85 C 155.99,142.98 156.22,143.19 156.38,143.49 C 156.49,143.69 156.54,143.98 156.54,144.36 L 156.54,155.59 C 156.54,156.09 156.53,156.4 156.5,156.49 C 156.43,156.82 156.27,157.08 156.01,157.29 C 155.76,157.49 155.47,157.59 155.15,157.59 C 154.83,157.59 154.54,157.49 154.29,157.29 C 154.02,157.09 153.85,156.82 153.78,156.49 C 153.75,156.4 153.74,156.09 153.74,155.59 z M 146.25,148.87 C 146.25,148.93 146.28,148.96 146.34,148.96 L 146.57,148.96 C 146.67,148.96 146.76,149.05 146.84,149.25 C 146.87,149.36 146.91,149.49 146.93,149.65 C 146.98,149.9 147.0,150.18 146.99,150.47 C 146.99,150.78 146.95,151.05 146.88,151.29 C 146.84,151.46 146.78,151.59 146.72,151.67 C 146.69,151.71 146.66,151.74 146.63,151.75 C 146.61,151.75 146.6,151.76 146.58,151.76 L 146.34,151.76 C 146.28,151.76 146.25,151.79 146.25,151.85 L 146.25,155.59 C 146.25,156.09 146.24,156.4 146.22,156.49 C 146.14,156.82 145.97,157.09 145.71,157.29 C 145.46,157.49 145.17,157.59 144.84,157.59 C 144.52,157.59 144.24,157.49 143.98,157.29 C 143.72,157.08 143.56,156.82 143.49,156.49 C 143.47,156.4 143.46,156.09 143.46,155.59 L 143.46,144.36 C 143.46,143.98 143.51,143.69 143.62,143.49 C 143.78,143.19 144.01,142.98 144.32,142.85 C 144.62,142.73 144.92,142.71 145.23,142.79 C 145.54,142.88 145.79,143.05 145.99,143.32 C 146.16,143.56 146.25,143.85 146.25,144.19 z" />
			<path id="I" style="fill:#fff;stroke:#000;stroke-width:0.25px;"	
				d="M 151.4,154.7 C 151.4,154.76 151.43,154.79 151.48,154.79 L 155.15,154.79 C 155.53,154.79 155.86,154.92 156.13,155.2 C 156.41,155.47 156.54,155.8 156.54,156.19 C 156.54,156.58 156.41,156.9 156.13,157.18 C 155.86,157.45 155.53,157.59 155.15,157.59 L 144.85,157.59 C 144.47,157.59 144.14,157.45 143.87,157.18 C 143.59,156.9 143.46,156.58 143.46,156.19 C 143.46,155.8 143.59,155.47 143.87,155.2 C 144.14,154.92 144.47,154.79 144.85,154.79 L 148.51,154.79 C 148.56,154.79 148.59,154.76 148.59,154.7 L 148.59,145.63 C 148.59,145.57 148.56,145.54 148.51,145.54 L 144.85,145.54 C 144.47,145.54 144.14,145.4 143.87,145.13 C 143.59,144.85 143.46,144.52 143.46,144.14 C 143.46,143.76 143.59,143.43 143.87,143.15 C 144.14,142.88 144.47,142.74 144.85,142.74 L 155.15,142.74 C 155.53,142.74 155.86,142.88 156.13,143.15 C 156.41,143.43 156.54,143.76 156.54,144.14 C 156.54,144.52 156.41,144.85 156.13,145.13 C 155.86,145.4 155.53,145.54 155.15,145.54 L 151.48,145.54 C 151.43,145.54 151.4,145.57 151.4,145.63 z" />
			<path id="J" style="fill:#fff;stroke:#000;stroke-width:0.25px;"	
				d="M 147.29,157.2 C 147.28,157.2 147.26,157.2 147.24,157.2 C 146.72,157.01 146.23,156.75 145.77,156.44 C 144.33,155.43 143.55,154.16 143.46,152.61 L 143.46,152.58 C 143.46,152.21 143.58,151.89 143.82,151.62 C 144.07,151.35 144.37,151.2 144.74,151.18 C 145.11,151.13 145.44,151.23 145.73,151.47 C 146.0,151.7 146.17,151.99 146.25,152.35 C 146.27,153.09 146.65,153.69 147.4,154.16 C 147.6,154.43 147.69,154.94 147.68,155.7 C 147.68,155.99 147.65,156.25 147.61,156.49 C 147.54,156.92 147.43,157.15 147.29,157.2 z M 149.36,157.58 C 149.28,157.57 149.21,157.5 149.14,157.36 C 149.07,157.21 149.02,157.01 148.98,156.77 C 148.91,156.27 148.93,155.79 149.02,155.35 C 149.07,155.13 149.13,154.97 149.21,154.87 C 149.25,154.83 149.28,154.8 149.32,154.79 C 149.34,154.78 149.37,154.78 149.41,154.78 C 149.54,154.78 149.66,154.79 149.78,154.79 C 150.76,154.79 151.63,154.54 152.38,154.06 C 153.09,153.62 153.52,153.11 153.67,152.54 C 153.71,152.39 153.73,152.24 153.74,152.09 C 153.74,152.07 153.74,151.68 153.74,150.93 L 153.74,145.86 C 153.74,145.71 153.74,145.63 153.74,145.63 C 153.73,145.58 153.69,145.56 153.62,145.56 L 149.7,145.56 C 149.5,145.56 149.38,145.56 149.36,145.56 C 149.25,145.55 149.15,145.53 149.05,145.51 C 148.86,145.45 148.69,145.35 148.54,145.21 C 148.21,144.91 148.05,144.56 148.05,144.17 C 148.05,143.76 148.2,143.4 148.52,143.11 C 148.67,142.96 148.84,142.85 149.03,142.79 C 149.13,142.76 149.23,142.74 149.34,142.73 C 149.37,142.73 149.48,142.73 149.67,142.73 L 154.96,142.73 C 155.08,142.73 155.19,142.75 155.29,142.77 C 155.51,142.82 155.7,142.91 155.88,143.05 C 156.1,143.22 156.26,143.38 156.36,143.54 C 156.47,143.75 156.53,144.16 156.53,144.79 L 156.53,152.01 C 156.53,152.5 156.48,152.93 156.39,153.31 C 156.17,154.12 155.72,154.86 155.04,155.53 C 153.56,156.98 151.67,157.66 149.36,157.58 z" />
			<path id="K" style="fill:#fff;stroke:#000;stroke-width:0.25px;"	
				d="M 147.86,148.42 C 147.86,148.17 147.96,147.97 148.16,147.82 C 149.86,146.54 151.9,144.99 154.3,143.18 C 154.6,142.96 154.95,142.87 155.33,142.92 C 155.72,142.97 156.03,143.15 156.26,143.46 C 156.49,143.77 156.58,144.11 156.52,144.49 C 156.47,144.88 156.29,145.19 155.99,145.42 C 155.56,145.75 154.62,146.45 153.18,147.54 C 152.02,148.41 151.09,149.11 150.39,149.65 C 150.19,149.8 150.09,150.0 150.09,150.24 C 150.09,150.49 150.19,150.69 150.39,150.84 L 155.99,155.07 C 156.29,155.3 156.47,155.61 156.52,156.0 C 156.58,156.38 156.49,156.73 156.26,157.03 C 156.03,157.34 155.72,157.52 155.33,157.58 C 154.95,157.63 154.6,157.54 154.3,157.3 C 152.6,156.02 150.55,154.48 148.16,152.67 C 147.96,152.52 147.86,152.32 147.86,152.07 z M 143.46,144.14 C 143.46,143.76 143.59,143.43 143.87,143.15 C 144.14,142.88 144.47,142.74 144.85,142.74 C 145.24,142.74 145.57,142.88 145.84,143.15 C 146.11,143.43 146.25,143.76 146.25,144.14 L 146.25,156.19 C 146.25,156.58 146.11,156.9 145.84,157.18 C 145.57,157.45 145.24,157.59 144.85,157.59 C 144.47,157.59 144.14,157.45 143.87,157.18 C 143.59,156.9 143.46,156.58 143.46,156.19 z" />
			<path id="L" style="fill:#fff;stroke:#000;stroke-width:0.25px;"	
				d="M 151.05,157.59 C 150.94,157.59 150.86,157.55 150.81,157.47 C 150.75,157.37 150.69,157.24 150.65,157.06 C 150.57,156.72 150.54,156.33 150.57,155.9 C 150.59,155.51 150.65,155.22 150.75,155.01 C 150.8,154.91 150.85,154.85 150.9,154.81 C 150.92,154.79 150.95,154.79 150.98,154.79 L 154.4,154.79 C 154.91,154.79 155.26,154.83 155.44,154.91 C 155.74,155.04 155.96,155.26 156.11,155.56 C 156.26,155.85 156.3,156.16 156.23,156.47 C 156.17,156.8 156.0,157.07 155.74,157.28 C 155.49,157.48 155.2,157.59 154.86,157.59 z M 148.88,154.79 C 148.88,154.79 148.89,154.79 148.91,154.79 C 148.93,154.79 148.96,154.81 148.98,154.83 C 149.04,154.89 149.1,154.98 149.15,155.11 C 149.25,155.38 149.3,155.73 149.3,156.15 C 149.3,156.58 149.26,156.93 149.16,157.21 C 149.11,157.35 149.06,157.45 149.0,157.52 C 148.98,157.55 148.95,157.57 148.93,157.58 C 148.91,157.58 148.9,157.59 148.88,157.59 L 146.69,157.59 C 146.47,157.59 146.29,157.57 146.16,157.53 C 145.77,157.41 145.49,157.17 145.31,156.81 C 145.21,156.61 145.17,156.26 145.17,155.74 L 145.17,144.14 C 145.17,143.96 145.2,143.79 145.26,143.62 C 145.41,143.25 145.68,142.99 146.05,142.84 C 146.42,142.7 146.78,142.71 147.14,142.86 C 147.49,143.02 147.73,143.29 147.87,143.65 C 147.93,143.81 147.96,144.17 147.96,144.74 L 147.96,154.7 C 147.96,154.76 147.99,154.79 148.05,154.79 z" />	
			<path id="M" style="fill:#fff;stroke:#000;stroke-width:0.25px;"	
				d="M 146.25,156.19 C 146.25,156.58 146.11,156.9 145.84,157.18 C 145.57,157.45 145.24,157.59 144.85,157.59 C 144.47,157.59 144.14,157.45 143.87,157.18 C 143.59,156.9 143.46,156.58 143.46,156.19 L 143.46,148.82 C 143.46,148.67 143.53,148.57 143.67,148.54 C 143.82,148.5 143.93,148.54 144.0,148.67 C 144.28,149.13 144.65,149.75 145.11,150.53 C 145.64,151.42 146.01,152.04 146.21,152.38 C 146.24,152.43 146.25,152.48 146.25,152.53 z M 153.74,143.78 C 153.74,143.77 153.75,143.75 153.76,143.74 C 153.77,143.71 153.83,143.6 153.95,143.41 C 154.11,143.14 154.34,142.95 154.63,142.84 C 154.92,142.72 155.22,142.71 155.52,142.79 C 155.82,142.88 156.07,143.05 156.26,143.3 C 156.45,143.55 156.54,143.83 156.54,144.14 L 156.54,156.19 C 156.54,156.58 156.41,156.9 156.13,157.18 C 155.86,157.45 155.53,157.59 155.15,157.59 C 154.76,157.59 154.42,157.45 154.15,157.18 C 153.88,156.9 153.74,156.58 153.74,156.19 z M 143.47,144.55 C 143.46,144.53 143.46,144.51 143.46,144.5 L 143.46,144.14 C 143.46,143.83 143.55,143.55 143.74,143.3 C 143.93,143.05 144.17,142.88 144.47,142.79 C 144.78,142.71 145.07,142.72 145.36,142.84 C 145.65,142.95 145.88,143.14 146.04,143.42 C 147.77,146.32 149.06,148.49 149.92,149.94 C 149.94,149.97 149.97,149.98 150.0,149.98 C 150.03,149.98 150.06,149.97 150.08,149.94 C 150.21,149.71 150.7,148.88 151.55,147.45 C 151.63,147.32 151.74,147.28 151.88,147.31 C 152.03,147.35 152.11,147.45 152.11,147.61 L 152.11,151.91 C 152.11,151.97 152.09,152.02 152.06,152.07 C 151.8,152.51 151.51,153.0 151.2,153.53 C 150.93,153.98 150.53,154.21 150.0,154.21 C 149.47,154.21 149.07,153.98 148.8,153.53 C 148.51,153.05 148.09,152.33 147.52,151.38 C 146.96,150.43 146.54,149.71 146.25,149.24 C 145.94,148.72 145.48,147.94 144.86,146.89 C 144.24,145.85 143.77,145.07 143.47,144.55 z" />
			<path id="N" style="fill:#fff;stroke:#000;stroke-width:0.25px;"	
				d="M 156.54,152.34 C 156.54,152.48 156.48,152.57 156.35,152.62 C 156.22,152.67 156.11,152.64 156.02,152.54 C 155.0,151.35 154.27,150.49 153.82,149.96 C 153.77,149.9 153.74,149.84 153.74,149.77 L 153.74,144.14 C 153.74,143.76 153.88,143.43 154.15,143.15 C 154.42,142.88 154.76,142.74 155.15,142.74 C 155.53,142.74 155.86,142.88 156.13,143.15 C 156.41,143.43 156.54,143.76 156.54,144.14 z M 146.25,156.19 C 146.25,156.58 146.11,156.9 145.84,157.18 C 145.57,157.45 145.24,157.59 144.85,157.59 C 144.47,157.59 144.14,157.45 143.87,157.18 C 143.59,156.9 143.46,156.58 143.46,156.19 L 143.46,147.99 C 143.46,147.85 143.52,147.76 143.65,147.71 C 143.78,147.66 143.89,147.69 143.97,147.79 C 144.22,148.08 144.59,148.51 145.08,149.08 C 145.57,149.65 145.93,150.08 146.18,150.37 C 146.23,150.43 146.25,150.49 146.25,150.57 z M 156.54,156.19 C 156.54,156.84 156.24,157.27 155.63,157.5 C 155.01,157.73 154.5,157.59 154.08,157.1 C 150.6,153.02 147.99,149.97 146.25,147.93 C 145.94,147.57 145.48,147.03 144.86,146.31 C 144.24,145.59 143.78,145.04 143.48,144.68 C 143.46,144.66 143.46,144.65 143.46,144.63 L 143.46,144.14 C 143.46,143.49 143.76,143.05 144.37,142.83 C 144.98,142.6 145.49,142.74 145.92,143.23 C 147.91,145.56 150.52,148.62 153.74,152.39 C 154.09,152.81 154.55,153.35 155.13,154.02 C 155.85,154.86 156.32,155.4 156.52,155.64 C 156.54,155.66 156.54,155.68 156.54,155.7 z" />
			<path id="O" style="fill:#fff;stroke:#000;stroke-width:0.25px;"	
				d="M 150.81,157.53 C 150.72,157.53 150.64,157.44 150.57,157.26 C 150.52,157.16 150.49,157.03 150.46,156.88 C 150.41,156.65 150.39,156.39 150.39,156.11 C 150.39,155.83 150.41,155.58 150.46,155.34 C 150.49,155.19 150.52,155.07 150.57,154.96 C 150.64,154.78 150.72,154.69 150.81,154.69 C 151.01,154.64 151.19,154.58 151.36,154.5 C 151.56,154.41 151.75,154.29 151.94,154.15 C 152.15,154.0 152.34,153.83 152.52,153.63 C 152.71,153.42 152.87,153.21 153.01,152.98 C 153.15,152.73 153.27,152.46 153.38,152.17 C 153.49,151.86 153.57,151.52 153.63,151.15 C 153.69,150.78 153.73,150.38 153.74,149.96 C 153.73,149.65 153.71,149.35 153.66,149.06 C 153.62,148.78 153.55,148.51 153.47,148.25 C 153.38,148.01 153.28,147.78 153.16,147.56 C 153.05,147.34 152.91,147.14 152.75,146.94 C 152.6,146.75 152.44,146.58 152.27,146.43 C 152.1,146.28 151.92,146.15 151.74,146.04 C 151.46,145.87 151.15,145.74 150.81,145.64 C 150.72,145.64 150.64,145.55 150.57,145.37 C 150.52,145.27 150.49,145.14 150.46,144.99 C 150.41,144.76 150.39,144.5 150.39,144.22 C 150.39,143.94 150.41,143.68 150.46,143.45 C 150.49,143.3 150.52,143.17 150.57,143.07 C 150.64,142.88 150.72,142.79 150.81,142.79 C 150.87,142.8 150.93,142.81 150.99,142.81 C 151.0,142.82 151.01,142.82 151.02,142.82 C 151.41,142.89 151.78,143.0 152.15,143.13 C 152.51,143.27 152.86,143.44 153.18,143.64 C 153.51,143.84 153.82,144.07 154.12,144.33 C 154.41,144.59 154.69,144.89 154.94,145.21 C 155.2,145.52 155.43,145.87 155.63,146.23 C 155.82,146.59 155.99,146.97 156.12,147.36 C 156.25,147.76 156.35,148.18 156.43,148.61 C 156.5,149.04 156.54,149.49 156.54,149.95 C 156.54,149.96 156.54,149.97 156.54,149.98 C 156.53,150.55 156.48,151.1 156.4,151.61 C 156.31,152.13 156.18,152.62 156.03,153.09 C 155.86,153.56 155.65,154.0 155.42,154.39 C 155.19,154.8 154.91,155.17 154.59,155.52 C 154.29,155.85 153.96,156.15 153.6,156.41 C 153.26,156.67 152.9,156.88 152.52,157.05 C 152.14,157.22 151.74,157.35 151.33,157.44 C 151.16,157.48 150.99,157.51 150.81,157.53 z M 143.46,149.95 C 143.46,149.51 143.49,149.08 143.55,148.66 C 143.62,148.24 143.71,147.83 143.84,147.44 C 144.09,146.65 144.45,145.93 144.93,145.28 C 145.18,144.95 145.45,144.65 145.73,144.38 C 146.02,144.12 146.32,143.88 146.65,143.67 C 146.98,143.47 147.32,143.3 147.7,143.15 C 148.06,143.01 148.44,142.9 148.85,142.82 C 148.86,142.82 148.87,142.82 148.88,142.81 C 148.98,142.8 149.08,142.79 149.18,142.78 C 149.27,142.78 149.36,142.87 149.43,143.06 C 149.47,143.15 149.51,143.28 149.53,143.43 C 149.58,143.66 149.6,143.92 149.6,144.2 C 149.6,144.48 149.58,144.74 149.53,144.97 C 149.51,145.11 149.47,145.24 149.43,145.34 C 149.36,145.52 149.27,145.62 149.18,145.62 C 148.85,145.69 148.54,145.81 148.27,145.97 C 148.12,146.05 147.97,146.15 147.82,146.27 C 147.68,146.39 147.54,146.52 147.41,146.67 C 147.22,146.89 147.04,147.14 146.88,147.41 C 146.77,147.61 146.68,147.81 146.6,148.02 C 146.54,148.16 146.49,148.31 146.46,148.48 C 146.33,148.93 146.26,149.43 146.25,149.96 C 146.26,150.4 146.3,150.81 146.36,151.19 C 146.42,151.56 146.5,151.9 146.61,152.22 C 146.71,152.51 146.83,152.78 146.97,153.02 C 147.11,153.25 147.27,153.46 147.44,153.66 C 147.62,153.84 147.81,154.01 148.01,154.16 C 148.2,154.3 148.4,154.41 148.6,154.5 C 148.79,154.58 148.98,154.64 149.18,154.69 C 149.27,154.69 149.36,154.78 149.43,154.96 C 149.47,155.07 149.51,155.19 149.53,155.33 C 149.58,155.57 149.6,155.83 149.6,156.11 C 149.6,156.39 149.58,156.65 149.53,156.88 C 149.51,157.03 149.47,157.15 149.43,157.26 C 149.36,157.44 149.27,157.53 149.18,157.53 C 149.02,157.51 148.87,157.48 148.71,157.45 C 148.28,157.36 147.87,157.23 147.48,157.07 C 147.1,156.9 146.73,156.69 146.37,156.43 C 146.01,156.17 145.68,155.88 145.38,155.55 C 145.07,155.2 144.79,154.83 144.56,154.43 C 144.32,154.03 144.12,153.59 143.96,153.12 C 143.8,152.65 143.68,152.16 143.59,151.63 C 143.51,151.11 143.46,150.56 143.46,149.98 z" />
			<path id="P" style="fill:#fff;stroke:#000;stroke-width:0.25px;"	
				d="M 149.91,150.71 C 150.32,150.71 150.7,150.68 151.04,150.63 C 151.38,150.58 151.68,150.52 151.94,150.44 C 152.19,150.36 152.41,150.27 152.59,150.18 C 152.75,150.09 152.9,149.99 153.03,149.87 C 153.14,149.77 153.25,149.65 153.35,149.51 C 153.45,149.39 153.52,149.26 153.57,149.14 C 153.63,149.02 153.67,148.89 153.7,148.75 C 153.73,148.59 153.74,148.42 153.74,148.24 C 153.74,148.07 153.73,147.9 153.7,147.75 C 153.67,147.6 153.62,147.46 153.56,147.33 C 153.51,147.19 153.42,147.04 153.32,146.89 C 153.22,146.74 153.1,146.6 152.97,146.46 C 152.83,146.33 152.69,146.21 152.53,146.12 C 152.44,146.07 152.35,146.02 152.26,145.98 C 152.15,145.93 152.04,145.89 151.92,145.85 C 151.66,145.76 151.38,145.69 151.06,145.63 C 150.73,145.58 150.37,145.55 149.97,145.54 L 149.49,145.54 C 149.4,145.54 149.32,145.45 149.25,145.27 C 149.2,145.17 149.17,145.05 149.14,144.9 C 149.1,144.67 149.07,144.42 149.07,144.14 C 149.07,143.87 149.1,143.61 149.14,143.38 C 149.17,143.24 149.2,143.11 149.25,143.01 C 149.32,142.83 149.4,142.74 149.49,142.74 C 150.03,142.74 150.47,142.76 150.8,142.78 C 151.21,142.82 151.6,142.88 151.98,142.96 C 152.88,143.16 153.65,143.48 154.28,143.93 C 154.95,144.41 155.5,145.03 155.92,145.78 C 156.32,146.51 156.53,147.31 156.54,148.17 C 156.56,150.0 155.81,151.42 154.3,152.41 C 153.18,153.15 151.58,153.52 149.49,153.52 C 149.4,153.52 149.32,153.42 149.25,153.24 C 149.2,153.14 149.17,153.02 149.14,152.88 C 149.1,152.65 149.07,152.39 149.07,152.11 C 149.07,151.84 149.1,151.58 149.14,151.35 C 149.17,151.2 149.2,151.08 149.25,150.99 C 149.32,150.8 149.4,150.71 149.49,150.71 z M 146.34,153.52 C 146.28,153.52 146.25,153.54 146.25,153.6 L 146.25,155.98 C 146.25,156.24 146.23,156.44 146.2,156.56 C 146.15,156.76 146.05,156.93 145.92,157.09 C 145.65,157.42 145.31,157.58 144.88,157.59 C 144.49,157.59 144.14,157.46 143.86,157.18 C 143.73,157.04 143.63,156.88 143.55,156.7 C 143.49,156.54 143.46,156.32 143.46,156.04 L 143.46,144.14 C 143.46,143.76 143.59,143.43 143.87,143.15 C 144.14,142.88 144.47,142.74 144.85,142.74 L 147.02,142.74 C 147.11,142.74 147.19,142.83 147.27,143.01 C 147.31,143.11 147.35,143.24 147.37,143.38 C 147.42,143.61 147.44,143.87 147.44,144.14 C 147.44,144.42 147.42,144.67 147.37,144.9 C 147.35,145.05 147.31,145.17 147.27,145.27 C 147.19,145.45 147.11,145.54 147.02,145.54 L 146.34,145.54 C 146.28,145.54 146.25,145.57 146.25,145.63 L 146.25,150.63 C 146.25,150.69 146.28,150.72 146.35,150.72 C 146.43,150.72 146.52,150.71 146.62,150.71 L 147.02,150.71 C 147.11,150.71 147.19,150.8 147.27,150.99 C 147.31,151.08 147.35,151.2 147.37,151.35 C 147.42,151.58 147.44,151.84 147.44,152.11 C 147.44,152.39 147.42,152.65 147.37,152.88 C 147.35,153.02 147.31,153.14 147.27,153.24 C 147.19,153.42 147.11,153.52 147.02,153.52 z" />
			<path id="Q" style="fill:#fff;stroke:#000;stroke-width:0.25px;"	
				d="M 155.47,154.39 C 155.74,154.73 155.99,155.03 156.22,155.29 C 156.47,155.59 156.57,155.93 156.53,156.32 C 156.5,156.7 156.33,157.02 156.04,157.27 C 155.74,157.51 155.39,157.62 155.01,157.58 C 154.63,157.55 154.31,157.38 154.06,157.08 C 153.87,156.84 153.7,156.64 153.57,156.49 C 153.54,156.45 153.5,156.44 153.46,156.47 C 153.06,156.75 152.63,156.98 152.18,157.16 C 151.87,157.28 151.56,157.38 151.23,157.45 C 151.14,157.45 151.06,157.36 150.99,157.17 C 150.94,157.06 150.9,156.93 150.88,156.78 C 150.83,156.54 150.81,156.27 150.81,155.99 C 150.81,155.7 150.83,155.44 150.88,155.2 C 150.9,155.04 150.94,154.91 150.99,154.8 C 151.06,154.62 151.14,154.52 151.23,154.52 C 151.31,154.49 151.39,154.45 151.46,154.41 C 151.52,154.38 151.58,154.35 151.64,154.32 C 151.7,154.28 151.71,154.24 151.66,154.18 C 151.54,154.04 151.35,153.82 151.11,153.53 C 150.87,153.23 150.76,152.88 150.8,152.5 C 150.83,152.12 151.0,151.8 151.3,151.55 C 151.59,151.31 151.93,151.2 152.32,151.23 C 152.71,151.27 153.02,151.44 153.26,151.74 C 153.27,151.75 153.31,151.79 153.36,151.85 C 153.38,151.87 153.41,151.88 153.45,151.88 C 153.48,151.87 153.5,151.85 153.51,151.81 C 153.66,151.25 153.73,150.64 153.74,149.96 C 153.73,149.66 153.71,149.38 153.66,149.1 C 153.62,148.83 153.55,148.57 153.47,148.32 C 153.39,148.08 153.29,147.85 153.16,147.63 C 153.05,147.4 152.91,147.18 152.74,146.98 C 152.59,146.78 152.42,146.6 152.25,146.44 C 152.08,146.29 151.9,146.16 151.72,146.04 C 151.57,145.95 151.41,145.86 151.23,145.79 C 151.14,145.79 151.06,145.7 150.99,145.51 C 150.94,145.4 150.9,145.28 150.88,145.13 C 150.83,144.89 150.81,144.62 150.81,144.33 C 150.81,144.04 150.83,143.78 150.88,143.54 C 150.9,143.39 150.94,143.26 150.99,143.15 C 151.06,142.96 151.14,142.86 151.23,142.86 C 151.54,142.94 151.85,143.03 152.14,143.14 C 152.51,143.28 152.86,143.45 153.19,143.66 C 153.53,143.86 153.84,144.1 154.13,144.37 C 154.42,144.63 154.7,144.93 154.95,145.26 C 155.21,145.59 155.44,145.93 155.63,146.3 C 155.82,146.66 155.99,147.03 156.12,147.42 C 156.25,147.81 156.35,148.22 156.43,148.64 C 156.5,149.06 156.54,149.49 156.54,149.93 L 156.54,149.95 C 156.54,150.93 156.42,151.83 156.18,152.66 C 156.01,153.26 155.77,153.81 155.47,154.29 C 155.44,154.33 155.44,154.36 155.47,154.39 z M 148.76,154.57 C 148.85,154.57 148.94,154.66 149.01,154.85 C 149.05,154.96 149.09,155.08 149.11,155.23 C 149.16,155.47 149.18,155.73 149.18,156.02 C 149.18,156.3 149.16,156.57 149.11,156.81 C 149.09,156.96 149.05,157.08 149.01,157.19 C 148.94,157.37 148.85,157.46 148.76,157.46 C 148.74,157.46 148.72,157.46 148.69,157.45 C 148.27,157.37 147.86,157.24 147.48,157.07 C 147.1,156.9 146.73,156.69 146.38,156.44 C 146.02,156.18 145.69,155.88 145.39,155.56 C 145.07,155.21 144.79,154.84 144.56,154.44 C 144.33,154.04 144.13,153.6 143.96,153.13 C 143.8,152.66 143.68,152.16 143.59,151.63 C 143.51,151.11 143.46,150.55 143.46,149.96 L 143.46,149.94 C 143.46,149.49 143.49,149.06 143.55,148.63 C 143.61,148.21 143.7,147.8 143.83,147.41 C 143.95,147.02 144.1,146.64 144.28,146.28 C 144.45,145.92 144.66,145.58 144.89,145.25 C 145.13,144.93 145.4,144.63 145.68,144.37 C 145.96,144.1 146.27,143.86 146.6,143.65 C 146.93,143.45 147.28,143.28 147.65,143.14 C 148.0,143.01 148.37,142.9 148.76,142.82 C 148.85,142.82 148.94,142.92 149.01,143.11 C 149.05,143.21 149.09,143.34 149.11,143.49 C 149.16,143.72 149.18,143.98 149.18,144.27 C 149.18,144.55 149.16,144.81 149.11,145.05 C 149.09,145.2 149.05,145.33 149.01,145.43 C 148.94,145.62 148.85,145.71 148.76,145.71 C 148.72,145.73 148.68,145.74 148.64,145.75 C 148.44,145.83 148.25,145.92 148.08,146.04 C 147.91,146.14 147.75,146.26 147.6,146.41 C 147.44,146.55 147.29,146.72 147.16,146.9 C 147.01,147.1 146.89,147.31 146.78,147.53 C 146.67,147.75 146.58,147.99 146.5,148.23 C 146.43,148.49 146.36,148.76 146.32,149.04 C 146.28,149.33 146.26,149.63 146.25,149.94 C 146.26,150.49 146.32,150.99 146.41,151.46 C 146.5,151.9 146.62,152.3 146.78,152.65 C 146.93,152.97 147.11,153.26 147.31,153.52 C 147.52,153.76 147.75,153.97 148.02,154.16 C 148.14,154.25 148.26,154.33 148.39,154.39 C 148.51,154.46 148.63,154.52 148.76,154.57 z" />
			<path id="R" style="fill:#fff;stroke:#000;stroke-width:0.25px;"	
				d="M 153.48,152.44 C 153.78,152.75 154.23,153.22 154.81,153.83 C 155.41,154.45 155.86,154.92 156.15,155.21 C 156.42,155.49 156.55,155.83 156.54,156.21 C 156.54,156.6 156.39,156.93 156.11,157.2 C 155.83,157.46 155.5,157.59 155.12,157.59 C 154.73,157.58 154.4,157.44 154.13,157.16 C 153.13,156.12 151.64,154.57 149.64,152.49 C 149.5,152.16 149.44,151.72 149.46,151.16 C 149.47,150.91 149.5,150.68 149.54,150.49 C 149.57,150.36 149.61,150.25 149.65,150.17 C 149.72,150.02 149.8,149.94 149.88,149.94 L 151.61,149.94 C 152.15,149.94 152.62,149.78 153.05,149.45 C 153.11,149.41 153.18,149.35 153.24,149.29 C 153.31,149.21 153.38,149.13 153.44,149.06 C 153.53,148.94 153.6,148.8 153.64,148.64 C 153.7,148.47 153.73,148.27 153.74,148.05 C 153.75,147.88 153.74,147.73 153.72,147.59 C 153.7,147.47 153.68,147.36 153.64,147.26 C 153.61,147.15 153.57,147.05 153.52,146.96 C 153.46,146.86 153.4,146.76 153.32,146.66 C 153.15,146.45 152.95,146.27 152.71,146.12 C 152.59,146.04 152.45,145.97 152.29,145.91 C 152.12,145.84 151.92,145.77 151.71,145.72 C 151.48,145.67 151.24,145.63 150.99,145.6 C 150.72,145.56 150.43,145.54 150.12,145.54 L 149.88,145.54 C 149.79,145.54 149.71,145.45 149.63,145.27 C 149.59,145.17 149.55,145.05 149.52,144.9 C 149.48,144.67 149.46,144.42 149.46,144.14 C 149.46,143.87 149.48,143.61 149.52,143.38 C 149.55,143.24 149.59,143.11 149.63,143.01 C 149.71,142.83 149.79,142.74 149.88,142.74 L 150.14,142.74 C 151.54,142.74 152.75,143.0 153.77,143.51 C 154.97,144.1 155.79,145.0 156.24,146.19 C 156.7,147.43 156.68,148.65 156.18,149.84 C 155.7,151.0 154.81,151.81 153.51,152.29 C 153.43,152.33 153.42,152.38 153.48,152.44 z M 146.25,156.19 C 146.25,156.58 146.11,156.91 145.84,157.19 C 145.56,157.46 145.22,157.59 144.83,157.59 C 144.44,157.58 144.11,157.44 143.85,157.16 C 143.57,156.88 143.44,156.54 143.46,156.15 L 143.46,144.14 C 143.46,143.76 143.59,143.43 143.87,143.15 C 144.14,142.88 144.47,142.74 144.85,142.74 L 147.77,142.74 C 147.86,142.74 147.95,142.83 148.02,143.01 C 148.06,143.11 148.1,143.24 148.13,143.38 C 148.17,143.61 148.19,143.87 148.19,144.14 C 148.19,144.42 148.17,144.67 148.13,144.9 C 148.1,145.05 148.06,145.17 148.02,145.27 C 147.95,145.45 147.86,145.54 147.77,145.54 L 146.34,145.54 C 146.28,145.54 146.25,145.57 146.25,145.63 L 146.25,149.85 C 146.25,149.91 146.28,149.94 146.34,149.94 L 147.77,149.94 C 147.86,149.94 147.95,150.03 148.02,150.21 C 148.06,150.31 148.1,150.43 148.13,150.58 C 148.17,150.81 148.19,151.06 148.19,151.34 C 148.19,151.62 148.17,151.87 148.13,152.1 C 148.1,152.25 148.06,152.37 148.02,152.47 C 147.95,152.65 147.86,152.73 147.77,152.73 L 146.34,152.73 C 146.28,152.73 146.25,152.77 146.25,152.83 z" />
			<path id="S" style="fill:#fff;stroke:#000;stroke-width:0.25px;"	
				d="M 151.16,154.67 C 151.28,154.65 151.4,154.63 151.51,154.6 C 151.54,154.6 151.56,154.6 151.58,154.59 C 152.39,154.41 152.97,154.15 153.32,153.81 C 153.63,153.51 153.77,153.19 153.76,152.85 C 153.75,152.62 153.66,152.43 153.51,152.27 C 153.27,152.02 152.74,151.84 151.92,151.71 C 151.08,151.57 150.26,151.48 149.46,151.43 C 148.45,151.36 147.86,151.32 147.68,151.3 C 146.73,151.18 145.96,150.93 145.35,150.56 C 144.65,150.13 144.13,149.56 143.81,148.86 C 143.57,148.36 143.46,147.81 143.46,147.22 C 143.46,146.73 143.54,146.27 143.7,145.84 C 143.92,145.24 144.28,144.72 144.77,144.28 C 145.38,143.72 146.23,143.3 147.29,143.04 C 147.66,142.95 148.03,142.88 148.42,142.83 C 148.62,142.83 148.78,143.03 148.9,143.42 C 148.97,143.65 149.0,143.91 149.0,144.2 C 149.01,144.49 148.98,144.75 148.92,144.99 C 148.82,145.36 148.68,145.58 148.51,145.64 C 148.22,145.69 147.94,145.75 147.68,145.83 C 147.02,146.03 146.6,146.31 146.42,146.67 C 146.23,147.03 146.22,147.39 146.4,147.72 C 146.52,147.96 146.74,148.15 147.07,148.3 C 147.4,148.45 147.99,148.54 148.85,148.57 C 149.6,148.61 150.5,148.69 151.56,148.83 C 152.56,148.96 153.32,149.12 153.85,149.32 C 154.65,149.6 155.28,150.01 155.71,150.54 C 156.25,151.19 156.53,151.97 156.54,152.88 C 156.55,153.66 156.34,154.4 155.91,155.09 C 155.65,155.5 155.33,155.85 154.94,156.15 C 154.53,156.47 154.01,156.75 153.37,156.98 C 152.8,157.19 152.22,157.34 151.61,157.44 C 151.48,157.47 151.35,157.49 151.23,157.5 C 151.11,157.51 151.01,157.44 150.91,157.29 C 150.84,157.2 150.78,157.07 150.74,156.92 C 150.66,156.68 150.62,156.42 150.63,156.12 C 150.62,155.83 150.66,155.56 150.72,155.31 C 150.83,154.92 150.97,154.71 151.16,154.67 z M 148.4,157.5 C 147.69,157.41 147.02,157.25 146.39,157.02 C 145.83,156.82 145.35,156.57 144.94,156.28 C 143.94,155.56 143.44,154.77 143.46,153.91 C 143.46,153.8 143.47,153.71 143.49,153.62 C 143.5,153.54 143.52,153.47 143.54,153.39 C 143.58,153.32 143.61,153.26 143.64,153.19 C 143.73,153.04 143.84,152.92 143.97,152.81 C 144.18,152.65 144.41,152.55 144.67,152.52 C 144.99,152.47 145.27,152.53 145.53,152.68 C 145.72,152.79 145.92,153.01 146.13,153.34 C 146.41,153.75 146.61,154.01 146.74,154.12 C 146.95,154.28 147.29,154.42 147.77,154.52 C 148.01,154.57 148.25,154.62 148.47,154.66 C 148.66,154.69 148.8,154.9 148.91,155.29 C 148.97,155.54 149.0,155.81 149.0,156.11 C 149.0,156.41 148.97,156.67 148.9,156.91 C 148.85,157.07 148.8,157.2 148.73,157.29 C 148.63,157.44 148.52,157.51 148.4,157.5 z M 151.22,142.83 C 151.35,142.85 151.48,142.86 151.6,142.88 C 151.67,142.89 151.73,142.9 151.8,142.91 C 152.65,143.06 153.37,143.3 153.95,143.62 C 154.41,143.89 154.82,144.23 155.19,144.64 C 155.45,144.94 155.67,145.27 155.85,145.63 C 155.97,145.87 156.04,146.09 156.06,146.28 C 156.08,146.46 156.06,146.64 156.0,146.83 C 155.95,146.98 155.89,147.11 155.8,147.23 C 155.68,147.39 155.54,147.52 155.36,147.62 C 155.18,147.72 154.98,147.78 154.77,147.79 C 154.53,147.81 154.31,147.77 154.09,147.68 C 153.9,147.59 153.75,147.47 153.62,147.32 C 153.56,147.25 153.5,147.17 153.44,147.07 C 153.24,146.72 153.14,146.56 153.16,146.58 C 153.05,146.42 152.89,146.27 152.7,146.14 C 152.45,145.98 152.13,145.85 151.75,145.75 C 151.67,145.73 151.59,145.71 151.5,145.69 C 151.39,145.67 151.27,145.65 151.14,145.63 C 150.95,145.58 150.81,145.37 150.71,144.99 C 150.65,144.74 150.62,144.48 150.62,144.19 C 150.62,143.9 150.66,143.63 150.73,143.4 C 150.78,143.25 150.83,143.13 150.9,143.03 C 151.0,142.88 151.1,142.82 151.22,142.83 z" />
			<path id="T" style="fill:#fff;stroke:#000;stroke-width:0.25px;"	
				d="M 155.15,142.74 C 155.53,142.74 155.86,142.88 156.13,143.15 C 156.41,143.43 156.54,143.76 156.54,144.14 C 156.54,144.52 156.41,144.85 156.13,145.13 C 155.86,145.4 155.53,145.54 155.15,145.54 L 152.45,145.54 C 152.36,145.54 152.28,145.45 152.2,145.27 C 152.16,145.17 152.13,145.05 152.1,144.9 C 152.05,144.67 152.03,144.42 152.03,144.14 C 152.03,143.87 152.05,143.61 152.1,143.38 C 152.13,143.24 152.16,143.11 152.2,143.01 C 152.28,142.83 152.36,142.74 152.45,142.74 z M 147.55,142.74 C 147.64,142.74 147.72,142.83 147.79,143.01 C 147.84,143.11 147.87,143.24 147.9,143.38 C 147.95,143.61 147.97,143.87 147.97,144.14 C 147.97,144.42 147.95,144.67 147.9,144.9 C 147.87,145.05 147.84,145.17 147.79,145.27 C 147.72,145.45 147.64,145.54 147.55,145.54 L 144.85,145.54 C 144.47,145.54 144.14,145.4 143.87,145.13 C 143.59,144.85 143.46,144.52 143.46,144.14 C 143.46,143.76 143.59,143.43 143.87,143.15 C 144.14,142.88 144.47,142.74 144.85,142.74 z M 151.4,156.19 C 151.4,156.58 151.26,156.9 150.99,157.18 C 150.71,157.45 150.38,157.59 150.0,157.59 C 149.61,157.59 149.28,157.45 149.0,157.18 C 148.73,156.9 148.59,156.58 148.59,156.19 L 148.59,144.14 C 148.59,143.87 148.62,143.61 148.66,143.38 C 148.69,143.24 148.73,143.11 148.77,143.01 C 148.85,142.83 148.93,142.74 149.02,142.74 L 150.98,142.74 C 151.07,142.74 151.15,142.83 151.22,143.01 C 151.27,143.11 151.3,143.24 151.33,143.38 C 151.37,143.61 151.4,143.87 151.4,144.14 z" />
			<path id="U" style="fill:#fff;stroke:#000;stroke-width:0.25px;"	
				d="M 153.4,156.56 C 153.2,156.4 153.08,155.82 153.05,154.81 C 153.03,154.11 153.07,153.51 153.17,153.02 C 153.55,152.41 153.74,151.75 153.74,151.04 L 153.74,144.14 C 153.74,143.76 153.88,143.43 154.15,143.15 C 154.42,142.88 154.76,142.74 155.15,142.74 C 155.53,142.74 155.86,142.88 156.13,143.15 C 156.41,143.43 156.54,143.76 156.54,144.14 L 156.54,151.04 C 156.54,152.16 156.27,153.22 155.73,154.2 C 155.19,155.18 154.45,155.97 153.51,156.57 C 153.47,156.59 153.43,156.59 153.4,156.56 z M 151.04,157.5 C 149.05,157.82 147.29,157.33 145.75,156.03 C 144.22,154.72 143.46,153.06 143.46,151.04 L 143.46,144.14 C 143.46,143.76 143.59,143.43 143.87,143.15 C 144.14,142.88 144.47,142.74 144.85,142.74 C 145.24,142.74 145.57,142.88 145.84,143.15 C 146.11,143.43 146.25,143.76 146.25,144.14 L 146.25,151.04 C 146.25,152.28 146.74,153.27 147.72,154.02 C 148.71,154.77 149.8,154.98 151.0,154.65 C 151.09,154.65 151.17,154.74 151.24,154.92 C 151.29,155.03 151.32,155.15 151.35,155.29 C 151.39,155.53 151.42,155.78 151.42,156.06 C 151.42,156.34 151.4,156.59 151.36,156.83 C 151.28,157.24 151.17,157.46 151.04,157.5 z" />
			<path id="V" style="fill:#fff;stroke:#000;stroke-width:0.25px;"	
				d="M 148.58,151.67 C 147.35,149.98 146.43,148.71 145.82,147.87 C 145.73,147.73 145.27,147.1 144.44,145.97 C 144.37,145.86 144.25,145.7 144.1,145.49 C 143.95,145.27 143.83,145.11 143.76,145.01 C 143.51,144.66 143.41,144.29 143.48,143.91 C 143.54,143.5 143.75,143.18 144.1,142.96 C 144.46,142.74 144.84,142.68 145.23,142.79 C 145.55,142.88 145.85,143.13 146.13,143.52 C 146.22,143.65 146.45,143.96 146.82,144.47 C 147.43,145.32 148.35,146.59 149.58,148.27 C 149.81,148.6 149.93,148.77 149.93,148.76 C 149.98,148.82 150.03,148.82 150.09,148.73 C 150.11,148.71 150.14,148.67 150.18,148.6 C 150.21,148.56 150.24,148.52 150.26,148.49 C 150.3,148.45 150.33,148.42 150.35,148.42 C 150.41,148.4 150.49,148.42 150.61,148.48 C 150.83,148.61 151.07,148.85 151.35,149.21 C 151.61,149.56 151.8,149.9 151.93,150.23 C 152.01,150.4 152.04,150.54 152.05,150.65 C 152.05,150.71 152.05,150.75 152.04,150.79 C 152.03,150.8 152.03,150.82 152.02,150.83 C 152.01,150.84 152.0,150.86 151.98,150.89 C 151.9,151.0 151.85,151.08 151.81,151.13 L 151.46,151.61 C 151.42,151.67 151.4,151.75 151.4,151.86 L 151.4,155.7 C 151.4,156.25 151.34,156.62 151.24,156.83 C 151.04,157.21 150.74,157.45 150.31,157.55 C 149.91,157.65 149.54,157.57 149.2,157.33 C 148.86,157.1 148.67,156.78 148.61,156.37 C 148.6,156.31 148.59,155.92 148.59,155.2 L 148.59,151.93 C 148.59,151.78 148.59,151.69 148.58,151.67 z M 153.54,148.74 C 153.44,148.87 153.25,148.8 152.95,148.52 C 152.66,148.26 152.39,147.91 152.14,147.49 C 151.96,147.18 151.85,146.92 151.8,146.7 C 151.77,146.6 151.76,146.51 151.78,146.45 C 151.78,146.41 151.79,146.39 151.81,146.37 C 151.81,146.37 151.87,146.28 151.99,146.1 C 151.97,146.14 152.07,146.01 152.28,145.72 L 153.45,144.09 C 153.83,143.56 154.03,143.29 154.03,143.28 C 154.25,143.01 154.53,142.84 154.87,142.77 C 155.21,142.7 155.53,142.75 155.84,142.93 C 156.14,143.1 156.35,143.35 156.46,143.68 C 156.58,144.01 156.58,144.34 156.45,144.67 C 156.4,144.77 156.31,144.91 156.18,145.09 L 155.89,145.5 C 155.04,146.66 154.26,147.74 153.54,148.74 z" />
			<path id="W" style="fill:#fff;stroke:#000;stroke-width:0.25px;"	
				d="M 154.28,156.13 C 154.28,156.15 154.28,156.16 154.28,156.17 C 154.26,156.3 154.24,156.39 154.23,156.45 C 154.16,156.77 154.01,157.04 153.76,157.26 C 153.51,157.47 153.21,157.58 152.88,157.59 C 152.55,157.59 152.25,157.5 151.99,157.29 C 151.73,157.09 151.57,156.83 151.49,156.51 C 151.12,154.94 150.65,152.96 150.09,150.58 C 150.07,150.53 150.05,150.51 150.0,150.51 C 149.95,150.51 149.93,150.53 149.91,150.58 C 149.85,150.84 149.79,151.08 149.75,151.29 C 149.7,151.51 149.58,151.62 149.38,151.61 C 149.18,151.61 149.06,151.5 149.02,151.27 C 148.7,149.56 148.38,147.87 148.07,146.22 C 148.13,145.94 148.32,145.14 148.63,143.82 C 148.71,143.51 148.88,143.25 149.13,143.05 C 149.38,142.85 149.67,142.74 150.0,142.74 C 150.33,142.74 150.62,142.85 150.87,143.05 C 151.12,143.25 151.29,143.51 151.36,143.82 z M 148.32,156.2 C 148.33,156.21 148.33,156.23 148.32,156.24 L 148.26,156.51 C 148.18,156.83 148.01,157.09 147.75,157.29 C 147.49,157.5 147.2,157.59 146.87,157.59 C 146.53,157.58 146.24,157.47 146.0,157.26 C 145.74,157.04 145.58,156.77 145.52,156.45 L 143.23,144.4 C 143.16,144.03 143.23,143.68 143.45,143.35 C 143.66,143.03 143.96,142.84 144.35,142.76 C 144.72,142.69 145.07,142.77 145.39,142.99 C 145.71,143.2 145.9,143.5 145.98,143.88 C 147.02,149.35 147.8,153.46 148.32,156.2 z M 153.58,146.2 C 153.58,146.19 153.58,146.18 153.58,146.16 C 153.68,145.65 153.82,144.89 154.01,143.88 C 154.09,143.5 154.28,143.2 154.6,142.99 C 154.92,142.77 155.27,142.69 155.65,142.76 C 156.03,142.84 156.33,143.03 156.54,143.35 C 156.76,143.68 156.84,144.03 156.77,144.4 C 156.48,145.91 156.05,148.17 155.48,151.18 C 155.44,151.4 155.32,151.52 155.13,151.52 C 154.93,151.53 154.81,151.42 154.77,151.2 C 154.51,150.09 154.11,148.42 153.58,146.2 z" />
			<path id="X" style="fill:#fff;stroke:#000;stroke-width:0.25px;"	
				d="M 151.84,150.17 C 152.19,150.58 152.92,151.43 154.02,152.72 C 154.93,153.79 155.66,154.64 156.21,155.28 C 156.46,155.58 156.57,155.91 156.53,156.3 C 156.51,156.68 156.35,157.0 156.05,157.26 C 155.76,157.5 155.42,157.61 155.03,157.58 C 154.65,157.55 154.33,157.39 154.08,157.1 C 153.17,156.04 151.81,154.44 150.0,152.31 C 149.59,151.84 148.97,151.12 148.15,150.17 C 148.32,150.36 146.87,148.66 143.79,145.05 C 143.54,144.76 143.42,144.42 143.46,144.03 C 143.49,143.65 143.65,143.33 143.95,143.08 C 144.24,142.83 144.58,142.72 144.96,142.74 C 145.35,142.78 145.66,142.94 145.92,143.23 C 146.37,143.77 147.05,144.56 147.96,145.63 C 148.86,146.69 149.54,147.48 150.0,148.01 C 150.35,148.42 150.96,149.14 151.84,150.17 z M 148.76,153.39 C 148.86,153.52 148.86,153.65 148.76,153.77 C 148.44,154.14 147.97,154.7 147.33,155.44 C 146.7,156.18 146.23,156.73 145.92,157.1 C 145.66,157.39 145.35,157.55 144.96,157.58 C 144.58,157.61 144.24,157.5 143.95,157.26 C 143.65,157.0 143.49,156.68 143.46,156.3 C 143.42,155.91 143.54,155.58 143.79,155.28 C 144.57,154.37 145.59,153.17 146.86,151.69 C 146.91,151.62 146.99,151.58 147.08,151.58 C 147.17,151.58 147.25,151.62 147.3,151.69 C 147.95,152.44 148.43,153.01 148.76,153.39 z M 153.14,148.64 C 153.09,148.71 153.01,148.74 152.92,148.74 C 152.82,148.74 152.74,148.71 152.69,148.64 C 152.37,148.26 151.88,147.7 151.24,146.94 C 151.13,146.81 151.13,146.68 151.24,146.55 C 151.53,146.21 152.01,145.66 152.66,144.89 C 153.27,144.18 153.74,143.62 154.08,143.23 C 154.33,142.94 154.65,142.78 155.03,142.74 C 155.42,142.72 155.76,142.83 156.05,143.08 C 156.35,143.33 156.51,143.65 156.53,144.03 C 156.57,144.42 156.46,144.76 156.21,145.05 z" />	
			<path id="Y" style="fill:#fff;stroke:#000;stroke-width:0.25px;"	
				d="M 151.84,150.17 C 152.19,150.58 152.92,151.43 154.02,152.72 C 154.93,153.79 155.66,154.64 156.21,155.28 C 156.46,155.58 156.57,155.91 156.53,156.3 C 156.51,156.68 156.35,157.0 156.05,157.26 C 155.76,157.5 155.42,157.61 155.03,157.58 C 154.65,157.55 154.33,157.39 154.08,157.1 C 153.17,156.04 151.81,154.44 150.0,152.31 C 149.59,151.84 148.97,151.12 148.15,150.17 C 148.32,150.36 146.87,148.66 143.79,145.05 C 143.54,144.76 143.42,144.42 143.46,144.03 C 143.49,143.65 143.65,143.33 143.95,143.08 C 144.24,142.83 144.58,142.72 144.96,142.74 C 145.35,142.78 145.66,142.94 145.92,143.23 C 146.37,143.77 147.05,144.56 147.96,145.63 C 148.86,146.69 149.54,147.48 150.0,148.01 C 150.35,148.42 150.96,149.14 151.84,150.17 z M 148.76,153.39 C 148.86,153.52 148.86,153.65 148.76,153.77 C 148.44,154.14 147.97,154.7 147.33,155.44 C 146.7,156.18 146.23,156.73 145.92,157.1 C 145.66,157.39 145.35,157.55 144.96,157.58 C 144.58,157.61 144.24,157.5 143.95,157.26 C 143.65,157.0 143.49,156.68 143.46,156.3 C 143.42,155.91 143.54,155.58 143.79,155.28 C 144.57,154.37 145.59,153.17 146.86,151.69 C 146.91,151.62 146.99,151.58 147.08,151.58 C 147.17,151.58 147.25,151.62 147.3,151.69 C 147.95,152.44 148.43,153.01 148.76,153.39 z M 153.14,148.64 C 153.09,148.71 153.01,148.74 152.92,148.74 C 152.82,148.74 152.74,148.71 152.69,148.64 C 152.37,148.26 151.88,147.7 151.24,146.94 C 151.13,146.81 151.13,146.68 151.24,146.55 C 151.53,146.21 152.01,145.66 152.66,144.89 C 153.27,144.18 153.74,143.62 154.08,143.23 C 154.33,142.94 154.65,142.78 155.03,142.74 C 155.42,142.72 155.76,142.83 156.05,143.08 C 156.35,143.33 156.51,143.65 156.53,144.03 C 156.57,144.42 156.46,144.76 156.21,145.05 z" />
			<path id="Z" style="fill:#fff;stroke:#000;stroke-width:0.25px;"	
				d="M 149.95,154.89 C 150.01,154.82 150.08,154.79 150.18,154.79 L 155.15,154.79 C 155.53,154.79 155.86,154.92 156.13,155.2 C 156.41,155.47 156.54,155.8 156.54,156.19 C 156.54,156.58 156.41,156.9 156.13,157.18 C 155.86,157.45 155.53,157.59 155.15,157.59 L 148.3,157.59 C 148.17,157.59 148.08,157.53 148.03,157.41 C 147.98,157.29 147.99,157.19 148.08,157.1 C 148.49,156.6 149.12,155.87 149.95,154.89 z M 150.04,145.44 C 149.98,145.5 149.91,145.54 149.81,145.54 L 144.85,145.54 C 144.47,145.54 144.14,145.4 143.87,145.13 C 143.59,144.85 143.46,144.52 143.46,144.14 C 143.46,143.76 143.59,143.43 143.87,143.15 C 144.14,142.88 144.47,142.74 144.85,142.74 L 151.7,142.74 C 151.82,142.74 151.91,142.8 151.96,142.92 C 152.02,143.03 152.01,143.13 151.92,143.23 C 151.44,143.79 150.81,144.53 150.04,145.44 z M 155.15,142.74 C 155.74,142.74 156.16,143.01 156.42,143.55 C 156.66,144.1 156.6,144.59 156.21,145.05 C 155.83,145.49 154.45,147.12 152.05,149.92 C 150.36,151.89 148.98,153.52 147.89,154.79 C 147.03,155.79 146.23,156.73 145.5,157.59 L 144.85,157.59 C 144.25,157.59 143.83,157.32 143.58,156.78 C 143.33,156.23 143.4,155.73 143.79,155.28 C 147.21,151.27 149.99,148.02 152.11,145.54 C 152.68,144.87 153.47,143.94 154.5,142.74 z" />

			<!-- Prism Reference -->
			<cam mingh:cam="--verb EditSelectAll --verb SelectionUnGroup --verb SelectionUnGroup --verb EditSelectAll --verb ObjectToPath --verb EditSelectAll --verb SelectionGroup --verb ZoomSelection --verb FileSave " /> 
		</g>

</svg>
