<svg
   xmlns:xlink="http://www.w3.org/1999/xlink"
   xmlns:svg="http://www.w3.org/2000/svg"
   xmlns="http://www.w3.org/2000/svg"
   xmlns:mingh="http://www.minghworld.com"
   width="300px"
   height="300px" >
	
	 <g>
		
		<!-- Paths -->
		<path style="fill:none;stroke:#000;stroke-width:0.25px;"
			d="M 145.19,124.88 C 143.84,124.85 142.54,125.52 141.75,126.69 C 140.7,128.25 140.86,130.3 142.13,131.69 C 142.26,131.83 142.13,132.06 141.94,132.03 C 141.77,132.01 141.6,132.0 141.44,132.0 C 141.18,131.99 140.93,132.0 140.66,132.03 C 140.44,132.05 140.21,132.08 140.03,132.19 C 139.92,132.25 139.84,132.34 139.78,132.47 C 139.78,132.47 139.78,132.5 139.78,132.5 C 139.75,132.58 139.71,132.59 139.63,132.59 C 139.37,132.6 139.1,132.61 138.84,132.63 C 138.57,132.64 138.3,132.67 138.03,132.69 C 137.95,132.69 137.87,132.64 137.84,132.56 C 137.83,132.52 137.83,132.47 137.81,132.44 C 137.74,132.32 137.61,132.25 137.47,132.19 C 137.32,132.13 137.16,132.09 137.0,132.06 C 136.74,132.02 136.5,132.01 136.25,132.0 C 135.94,131.99 135.61,132.0 135.28,132.03 C 135.03,132.05 134.78,132.08 134.56,132.19 C 134.43,132.25 134.29,132.34 134.22,132.47 C 134.19,132.52 134.17,132.57 134.16,132.63 C 134.15,132.65 134.13,132.69 134.13,132.72 C 134.11,132.79 134.07,132.82 134.0,132.84 C 133.94,132.86 133.9,132.89 133.84,132.91 C 133.44,133.06 133.11,133.35 132.91,133.72 C 132.63,134.22 132.59,134.84 132.53,135.47 C 132.43,136.69 132.32,137.96 132.25,139.28 C 132.11,141.85 132.03,144.58 132.09,147.44 C 132.15,149.63 132.27,151.92 132.56,154.16 C 132.58,154.31 132.6,154.44 132.63,154.59 C 132.63,154.61 132.63,154.64 132.63,154.66 C 132.54,154.98 132.48,155.3 132.41,155.63 C 132.13,156.88 131.9,158.16 131.75,159.44 C 131.63,160.5 131.54,161.56 131.5,162.53 C 131.48,162.73 131.5,162.92 131.5,163.13 C 131.5,163.32 131.51,163.55 131.53,163.75 C 131.58,164.16 131.71,164.55 131.84,164.94 C 131.89,165.06 131.93,165.16 131.97,165.28 C 132.26,166.06 132.54,166.82 132.72,167.63 C 132.77,167.87 132.84,168.13 132.88,168.38 C 132.88,168.43 132.89,168.47 132.94,168.5 C 134.12,169.21 135.32,169.91 136.5,170.63 C 136.54,170.65 136.58,170.66 136.63,170.66 C 137.19,170.55 137.75,170.45 138.31,170.34 C 138.38,170.33 138.46,170.35 138.5,170.41 C 138.72,170.73 138.93,171.08 139.16,171.41 C 139.38,171.72 139.6,172.02 139.84,172.31 C 140.12,172.64 140.45,172.96 140.75,173.25 C 141.1,173.58 141.42,173.85 141.78,174.09 C 141.96,174.22 142.16,174.34 142.38,174.44 C 142.6,174.54 142.86,174.64 143.13,174.72 C 143.64,174.86 144.16,174.94 144.69,175.0 C 144.95,175.03 145.2,175.04 145.47,175.06 C 145.75,175.08 146.03,175.12 146.31,175.13 C 146.87,175.14 147.41,175.14 147.97,175.13 C 148.18,175.12 148.42,175.1 148.63,175.09 C 149.43,175.07 150.23,175.0 151.03,174.88 C 152.27,174.68 153.49,174.37 154.72,174.0 C 155.62,173.73 156.54,173.42 157.31,173.06 C 157.52,172.97 157.7,172.88 157.91,172.72 C 157.97,172.67 158.05,172.6 158.09,172.53 C 158.14,172.45 158.16,172.35 158.16,172.25 C 158.16,172.14 158.14,172.03 158.09,171.97 C 158.06,171.93 158.02,171.92 157.97,171.91 C 157.9,171.89 157.82,171.88 157.72,171.88 C 157.69,171.87 157.67,171.87 157.63,171.88 C 157.55,171.88 157.46,171.82 157.44,171.75 C 157.34,171.51 157.13,171.08 156.97,170.78 C 156.88,170.62 156.82,170.49 156.72,170.38 C 156.59,170.22 156.39,170.07 156.19,169.97 C 156.02,169.88 155.84,169.81 155.66,169.75 C 155.19,169.61 154.7,169.49 154.22,169.38 C 153.66,169.24 153.12,169.12 152.59,168.91 C 151.97,168.65 151.41,168.29 150.88,167.88 C 150.26,167.4 149.71,166.85 149.19,166.28 C 149.04,166.12 148.89,165.95 148.75,165.78 C 148.66,165.67 148.73,165.48 148.88,165.47 C 149.62,165.42 150.35,165.39 151.09,165.34 C 151.17,165.34 151.26,165.29 151.28,165.22 C 151.48,164.53 151.65,163.84 151.84,163.16 C 151.87,163.07 151.97,163.02 152.06,163.03 C 152.44,163.09 152.74,163.15 153.03,163.25 C 153.41,163.38 153.74,163.56 154.09,163.75 C 154.68,164.06 155.31,164.41 155.97,164.72 C 156.89,165.15 157.83,165.52 158.91,165.63 C 159.54,165.69 160.24,165.66 160.91,165.56 C 162.38,165.34 163.75,164.75 165.06,164.06 C 165.76,163.7 166.45,163.31 167.06,162.91 C 167.5,162.62 167.9,162.33 168.25,161.97 C 168.36,161.86 168.46,161.73 168.5,161.56 C 168.53,161.42 168.49,161.24 168.44,161.09 C 168.39,160.95 168.32,160.83 168.22,160.75 C 168.18,160.72 168.16,160.71 168.16,160.66 C 168.14,160.48 168.11,160.31 168.06,160.19 C 168.0,160.03 167.92,159.94 167.81,159.88 C 167.61,159.75 167.32,159.66 167.03,159.59 C 166.49,159.47 165.98,159.44 165.47,159.41 C 165.17,159.39 164.87,159.36 164.56,159.34 C 163.9,159.31 163.2,159.3 162.5,159.28 C 161.82,159.26 161.14,159.24 160.47,159.25 C 160.08,159.26 159.67,159.29 159.28,159.31 C 159.24,159.31 159.22,159.3 159.19,159.28 C 158.95,159.12 158.71,158.91 158.5,158.72 C 157.78,158.06 157.15,157.27 156.72,156.38 C 156.33,155.57 156.13,154.69 156.0,153.81 C 155.78,152.3 155.83,150.79 156.0,149.28 C 156.01,149.19 156.02,149.09 156.03,149.0 C 156.24,147.25 156.58,145.54 156.78,143.78 C 156.94,142.43 157.03,141.04 156.97,139.69 C 156.97,139.62 156.94,139.57 156.94,139.5 C 156.8,135.9 156.52,135.18 155.97,134.59 C 155.79,134.4 155.6,134.23 155.25,134.03 C 154.9,133.84 154.4,133.63 153.94,133.47 C 153.1,133.17 152.35,133.02 151.56,132.94 L 151.5,132.94 C 151.41,132.93 151.35,132.87 151.34,132.78 C 151.33,132.64 151.33,132.54 151.31,132.53 C 151.24,132.42 151.07,132.38 150.94,132.34 C 150.83,132.32 150.72,132.29 150.63,132.28 C 150.42,132.25 150.24,132.25 150.0,132.25 C 149.66,132.25 149.22,132.27 148.88,132.31 C 148.69,132.34 148.53,132.36 148.38,132.41 C 148.32,132.42 148.29,132.46 148.22,132.5 C 148.21,132.5 148.19,132.5 148.19,132.5 C 148.17,132.51 148.16,132.52 148.16,132.53 C 148.16,132.53 148.16,132.56 148.16,132.56 C 148.13,132.62 148.11,132.76 148.09,132.94 C 148.08,133.01 148.04,133.08 147.97,133.09 C 147.94,133.1 147.9,133.09 147.88,133.09 C 147.32,133.2 146.78,133.36 146.25,133.56 C 146.12,133.61 145.97,133.69 145.84,133.75 C 145.63,133.85 145.38,133.73 145.31,133.5 C 145.25,133.27 145.39,133.03 145.63,133.0 C 147.49,132.77 148.97,131.27 149.19,129.41 C 149.4,127.54 148.29,125.78 146.53,125.13 C 146.09,124.96 145.64,124.88 145.19,124.88 z M 145.13,127.0 C 145.38,127.0 145.64,127.06 145.88,127.16 C 146.11,127.25 146.32,127.38 146.5,127.56 C 146.68,127.74 146.84,127.98 146.94,128.22 C 147.04,128.45 147.06,128.68 147.06,128.94 C 147.06,129.19 147.04,129.45 146.94,129.69 C 146.84,129.92 146.68,130.13 146.5,130.31 C 146.32,130.49 146.11,130.65 145.88,130.75 C 145.64,130.85 145.38,130.91 145.13,130.91 C 144.87,130.91 144.61,130.85 144.38,130.75 C 144.14,130.65 143.93,130.49 143.75,130.31 C 143.57,130.13 143.41,129.92 143.31,129.69 C 143.21,129.45 143.19,129.19 143.19,128.94 C 143.19,128.68 143.21,128.45 143.31,128.22 C 143.41,127.98 143.57,127.74 143.75,127.56 C 143.93,127.38 144.14,127.25 144.38,127.16 C 144.61,127.06 144.87,127.0 145.13,127.0 z"
		 />
		 <path style="fill:#f00;stroke:none;"
			d="M 153.28,144.14 C 153.21,144.02 153.13,143.91 153.04,143.82 C 152.74,143.5 152.26,143.37 151.88,143.13 C 151.75,143.05 151.63,142.95 151.53,142.83 C 151.32,142.57 151.19,142.21 151.27,141.84 C 151.34,141.5 151.58,141.15 151.89,140.95 C 152.13,140.79 152.42,140.72 152.68,140.77 C 152.92,140.82 153.14,140.97 153.25,141.18 C 153.34,141.37 153.35,141.59 153.26,141.8 C 153.2,141.94 153.1,142.08 152.96,142.16 C 152.8,142.24 152.61,142.26 152.47,142.18 C 152.39,142.14 152.33,142.07 152.33,141.99 C 152.33,141.91 152.38,141.82 152.33,141.76 C 152.31,141.73 152.27,141.71 152.24,141.71 C 152.17,141.7 152.11,141.75 152.07,141.81 C 151.97,141.94 151.97,142.09 152.0,142.23 C 152.03,142.4 152.11,142.54 152.22,142.65 C 152.33,142.75 152.46,142.82 152.59,142.89 C 152.86,143.05 153.13,143.24 153.3,143.51 C 153.47,143.77 153.55,144.09 153.73,144.36 C 153.84,144.54 153.99,144.7 154.17,144.82 C 154.27,144.9 154.38,144.96 154.5,145.01 C 154.5,145.01 154.5,145.01 154.5,145.01 C 154.18,144.95 153.85,144.83 153.61,144.6 C 153.56,144.55 153.52,144.49 153.47,144.44 C 153.38,144.34 153.27,144.25 153.15,144.17 C 152.86,144.0 152.45,143.89 152.05,143.97 C 151.92,144.0 151.78,144.05 151.65,144.15 C 151.55,144.24 151.46,144.36 151.4,144.51 C 151.36,144.61 151.33,144.72 151.35,144.83 C 151.38,144.97 151.48,145.12 151.58,145.05 C 151.64,145.01 151.69,144.9 151.77,144.83 C 151.84,144.77 151.92,144.73 152.0,144.71 C 152.15,144.68 152.28,144.73 152.36,144.8 C 152.44,144.86 152.47,144.94 152.47,145.02 C 152.49,145.14 152.46,145.27 152.4,145.37 C 152.3,145.55 152.12,145.66 151.92,145.7 C 151.68,145.76 151.41,145.73 151.21,145.6 C 151.1,145.52 151.02,145.41 150.96,145.29 C 150.84,145.04 150.85,144.74 150.96,144.47 C 151.05,144.24 151.21,144.04 151.41,143.91 C 151.69,143.73 152.05,143.69 152.34,143.71 C 152.62,143.73 152.85,143.8 153.04,143.93 C 153.12,143.99 153.21,144.06 153.28,144.14 z M 156.06,147.82 C 155.79,148.45 155.49,149.19 155.17,149.83 C 154.96,150.25 154.74,150.63 154.53,150.97 C 154.32,151.3 154.12,151.59 153.92,151.84 C 153.59,152.26 153.28,152.54 152.95,152.83 C 152.62,153.11 152.27,153.38 151.98,153.72 C 151.61,154.15 151.33,154.68 151.1,155.2 C 151.19,154.55 151.33,153.86 151.45,153.15 C 151.52,152.67 151.58,152.18 151.66,151.69 C 151.74,151.2 151.83,150.71 152.0,150.22 C 152.26,149.47 152.69,148.73 153.27,148.25 C 153.34,148.19 153.42,148.13 153.49,148.08 C 153.38,148.12 153.26,148.17 153.14,148.22 C 152.94,148.33 152.75,148.46 152.58,148.62 C 152.32,148.86 152.12,149.16 151.89,149.4 C 151.66,149.65 151.38,149.84 151.11,149.99 C 150.98,150.06 150.86,150.12 150.75,150.21 C 150.63,150.32 150.54,150.47 150.46,150.65 C 150.4,150.79 150.35,150.95 150.39,151.09 C 150.41,151.15 150.44,151.21 150.5,151.21 C 150.53,151.21 150.57,151.19 150.6,151.17 C 150.66,151.11 150.65,151.01 150.68,150.92 C 150.7,150.84 150.77,150.77 150.85,150.73 C 150.99,150.66 151.17,150.69 151.28,150.79 C 151.38,150.88 151.43,151.04 151.44,151.21 C 151.45,151.44 151.37,151.67 151.22,151.84 C 151.05,152.03 150.79,152.15 150.55,152.17 C 150.3,152.18 150.06,152.09 149.92,151.91 C 149.73,151.69 149.67,151.34 149.74,151.0 C 149.81,150.62 150.01,150.24 150.23,149.99 C 150.34,149.87 150.45,149.78 150.57,149.7 C 150.93,149.47 151.4,149.38 151.78,149.09 C 151.9,149.0 152.01,148.89 152.12,148.77 C 152.02,148.85 151.92,148.92 151.81,148.97 C 151.6,149.08 151.37,149.13 151.13,149.12 C 150.87,149.11 150.6,149.03 150.43,148.83 C 150.31,148.68 150.25,148.47 150.25,148.24 C 150.25,147.97 150.34,147.69 150.53,147.47 C 150.62,147.36 150.74,147.27 150.86,147.21 C 151.08,147.11 151.32,147.1 151.51,147.18 C 151.67,147.24 151.78,147.36 151.8,147.53 C 151.82,147.63 151.79,147.75 151.74,147.86 C 151.7,147.93 151.65,148.0 151.56,148.05 C 151.47,148.1 151.33,148.14 151.22,148.09 C 151.16,148.07 151.1,148.02 151.06,147.96 C 151.02,147.88 151.01,147.77 150.98,147.73 C 150.92,147.66 150.78,147.79 150.71,147.92 C 150.65,148.02 150.63,148.13 150.63,148.23 C 150.63,148.38 150.66,148.51 150.71,148.6 C 150.78,148.73 150.87,148.79 150.98,148.83 C 151.28,148.95 151.68,148.89 152.0,148.75 C 152.15,148.68 152.29,148.6 152.42,148.5 C 152.47,148.46 152.52,148.43 152.57,148.39 C 152.85,148.2 153.19,148.12 153.5,148.07 C 153.5,148.07 153.5,148.07 153.51,148.07 C 153.23,147.97 152.98,147.78 152.74,147.58 C 152.48,147.36 152.21,147.12 151.92,146.93 C 151.55,146.67 151.14,146.5 150.72,146.31 C 151.21,146.19 151.69,146.08 152.17,145.9 C 152.54,145.76 152.91,145.57 153.28,145.4 C 153.65,145.22 154.01,145.06 154.37,145.02 C 154.41,145.02 154.46,145.02 154.5,145.02 C 154.36,144.88 154.22,144.72 154.1,144.55 C 153.71,143.99 153.51,143.23 153.46,142.51 C 153.43,142.04 153.46,141.59 153.5,141.14 C 153.54,140.68 153.59,140.23 153.58,139.74 C 153.56,139.02 153.39,138.22 153.11,137.36 C 153.59,138.13 153.94,138.83 154.32,139.4 C 154.62,139.84 154.93,140.21 155.24,140.56 C 155.56,140.92 155.89,141.26 156.15,141.7 C 156.41,142.13 156.61,142.65 156.68,143.29 C 156.67,143.44 156.65,143.6 156.63,143.75 C 156.62,143.84 156.61,143.92 156.6,144.01 C 156.57,143.58 156.48,143.19 156.36,142.86 C 156.2,142.46 155.99,142.14 155.74,141.91 C 155.37,141.56 154.9,141.42 154.57,141.0 C 154.5,140.92 154.44,140.82 154.38,140.73 C 154.41,141.06 154.42,141.4 154.4,141.73 C 154.39,142.05 154.35,142.36 154.34,142.69 C 154.32,143.3 154.4,143.97 154.65,144.49 C 154.95,145.11 155.48,145.53 155.91,145.84 C 156.04,145.94 156.17,146.03 156.3,146.15 C 156.3,146.17 156.3,146.2 156.29,146.22 C 156.18,146.14 156.08,146.07 155.99,146.02 C 156.08,146.15 156.17,146.28 156.26,146.41 C 156.26,146.44 156.25,146.48 156.25,146.51 C 156.08,146.33 155.9,146.08 155.7,145.89 C 155.24,145.47 154.65,145.37 154.09,145.63 C 153.66,145.82 153.26,146.21 152.81,146.37 C 152.73,146.41 152.64,146.43 152.55,146.45 C 152.62,146.49 152.7,146.53 152.77,146.57 C 153.11,146.79 153.31,147.23 153.62,147.48 C 154.03,147.81 154.65,147.81 155.3,147.47 C 155.6,147.32 155.92,147.1 156.18,146.94 C 156.18,146.97 156.18,147.0 156.17,147.03 C 156.05,147.1 155.93,147.19 155.81,147.28 C 155.91,147.26 156.02,147.23 156.15,147.19 C 156.14,147.21 156.14,147.23 156.14,147.24 C 155.91,147.34 155.72,147.39 155.5,147.46 C 154.96,147.63 154.25,147.9 153.72,148.44 C 153.28,148.9 152.98,149.56 152.8,150.22 C 152.7,150.57 152.64,150.92 152.56,151.27 C 152.47,151.64 152.37,152.01 152.27,152.36 C 152.34,152.28 152.42,152.19 152.5,152.12 C 152.9,151.75 153.24,151.74 153.64,151.46 C 154.17,151.09 154.82,150.26 155.35,149.2 C 155.62,148.67 155.87,148.08 156.08,147.63 C 156.08,147.69 156.07,147.76 156.06,147.82 z M 148.71,139.7 C 148.6,139.59 148.64,139.41 148.64,139.3 C 148.64,139.16 148.64,139.01 148.64,138.87 C 148.64,138.59 148.65,138.31 148.65,138.03 C 148.65,137.46 148.66,136.9 148.67,136.33 C 148.68,135.77 148.72,135.2 148.71,134.64 C 148.71,134.5 148.71,134.35 148.7,134.21 C 148.7,134.2 148.71,134.17 148.69,134.17 C 148.67,134.17 148.66,134.17 148.64,134.18 C 148.6,134.18 148.57,134.18 148.53,134.19 C 148.46,134.2 148.39,134.2 148.32,134.21 C 148.04,134.25 147.77,134.3 147.49,134.38 C 147.22,134.45 146.96,134.55 146.7,134.68 C 146.58,134.75 146.46,134.82 146.34,134.9 C 146.31,134.92 146.28,134.94 146.26,134.96 C 146.24,134.97 146.23,134.98 146.21,134.99 C 146.21,135.0 146.17,135.01 146.18,135.03 C 146.2,135.09 146.23,135.16 146.25,135.23 C 146.44,135.76 146.59,136.3 146.69,136.86 C 146.89,137.99 146.91,139.1 146.84,140.24 C 146.76,141.37 146.6,142.49 146.43,143.61 C 146.26,144.72 146.11,145.84 146.01,146.97 C 145.75,150.15 145.81,150.55 145.14,153.68 C 144.9,154.79 144.68,155.89 144.62,157.03 C 144.62,157.05 144.62,157.07 144.62,157.08 C 144.62,157.1 144.63,157.12 144.64,157.13 C 144.66,157.17 144.67,157.2 144.69,157.23 C 144.72,157.29 144.75,157.36 144.78,157.42 C 144.85,157.54 144.92,157.67 145.0,157.78 C 145.16,158.02 145.33,158.23 145.57,158.41 C 146.06,158.77 146.61,158.82 147.18,158.69 C 147.46,158.62 147.71,158.5 147.96,158.36 C 148.08,158.29 148.2,158.21 148.31,158.13 C 148.34,158.11 148.37,158.08 148.4,158.06 C 148.41,158.06 148.47,158.01 148.47,157.99 C 148.48,157.92 148.48,157.85 148.48,157.78 C 148.49,157.22 148.47,156.65 148.42,156.09 C 148.29,154.57 148.19,154.24 148.27,152.71 C 148.39,150.71 148.9,147.96 149.23,146.0 C 149.41,144.93 149.59,143.86 149.74,142.79 C 149.78,142.52 149.82,142.26 149.85,141.99 C 149.87,141.85 149.89,141.72 149.91,141.59 C 149.92,141.52 149.92,141.45 149.93,141.39 C 149.94,141.35 149.94,141.32 149.94,141.28 C 149.95,141.26 149.89,141.2 149.88,141.19 C 149.49,140.69 149.1,140.2 148.71,139.7 z M 151.32,133.48 C 151.33,133.52 151.33,133.57 151.34,133.61 C 151.35,133.77 151.36,133.92 151.37,134.08 C 151.38,134.39 151.39,134.71 151.38,135.03 C 151.38,135.27 151.36,135.52 151.35,135.76 C 151.34,136.05 151.34,136.34 151.33,136.63 C 151.33,136.94 151.32,137.26 151.32,137.57 C 151.32,138.14 151.31,138.7 151.31,139.27 C 151.02,139.62 150.74,139.98 150.45,140.34 C 150.17,139.99 149.89,139.63 149.61,139.28 C 149.62,138.71 149.62,138.15 149.63,137.58 C 149.63,137.27 149.63,136.95 149.64,136.64 C 149.64,136.35 149.65,136.06 149.66,135.77 C 149.67,135.53 149.68,135.28 149.69,135.04 C 149.69,134.72 149.69,134.4 149.67,134.09 C 149.67,133.93 149.66,133.78 149.64,133.62 C 149.64,133.58 149.64,133.55 149.63,133.51 C 149.63,133.51 149.62,133.51 149.62,133.51 C 149.47,133.53 149.33,133.55 149.2,133.6 C 149.2,133.62 149.2,133.64 149.2,133.66 C 149.21,133.77 149.22,133.88 149.22,133.99 C 149.23,134.12 149.24,134.24 149.24,134.37 C 149.25,134.59 149.25,134.81 149.24,135.03 C 149.24,135.21 149.23,135.4 149.22,135.58 C 149.22,135.71 149.21,135.84 149.21,135.97 C 149.2,136.19 149.2,136.41 149.19,136.63 C 149.18,137.56 149.18,138.49 149.17,139.43 C 149.6,139.97 150.03,140.51 150.46,141.05 C 150.89,140.51 151.32,139.97 151.75,139.42 C 151.76,138.49 151.76,137.56 151.77,136.63 C 151.78,136.41 151.78,136.18 151.79,135.96 C 151.79,135.83 151.8,135.7 151.8,135.57 C 151.81,135.39 151.82,135.21 151.82,135.02 C 151.83,134.81 151.83,134.59 151.82,134.37 C 151.82,134.24 151.81,134.11 151.81,133.99 C 151.8,133.88 151.79,133.77 151.78,133.66 C 151.78,133.64 151.78,133.62 151.78,133.6 C 151.77,133.6 151.77,133.59 151.77,133.59 C 151.76,133.58 151.74,133.58 151.73,133.57 C 151.7,133.56 151.68,133.55 151.66,133.55 C 151.63,133.54 151.61,133.53 151.58,133.53 C 151.49,133.51 151.41,133.49 151.32,133.48 z M 151.1,133.19 C 151.1,133.18 151.1,133.16 151.1,133.15 C 151.1,133.06 151.09,132.98 151.09,132.9 C 151.08,132.84 151.08,132.78 151.07,132.72 C 151.07,132.7 151.06,132.68 151.06,132.66 C 151.06,132.66 151.06,132.66 151.06,132.66 C 151.05,132.65 151.03,132.64 151.02,132.64 C 151.0,132.63 150.97,132.62 150.95,132.61 C 150.92,132.6 150.9,132.6 150.87,132.59 C 150.78,132.57 150.69,132.55 150.59,132.54 C 150.58,132.54 150.56,132.54 150.55,132.54 C 150.62,132.63 150.63,132.74 150.64,132.85 C 150.65,132.96 150.65,133.07 150.66,133.18 C 150.81,133.18 150.95,133.18 151.1,133.19 z M 148.92,132.57 C 148.92,132.57 148.91,132.57 148.91,132.57 C 148.76,132.59 148.62,132.62 148.49,132.66 C 148.49,132.7 148.49,132.74 148.5,132.78 C 148.51,132.87 148.51,132.97 148.52,133.06 C 148.53,133.26 148.53,133.45 148.54,133.65 C 148.55,133.65 148.57,133.65 148.59,133.65 C 148.64,133.64 148.69,133.64 148.74,133.63 C 148.74,133.61 148.75,133.6 148.75,133.58 C 148.76,133.56 148.76,133.54 148.77,133.53 C 148.77,133.51 148.78,133.5 148.79,133.49 C 148.8,133.48 148.81,133.47 148.83,133.46 C 148.86,133.45 148.88,133.44 148.91,133.42 C 148.93,133.41 148.95,133.4 148.97,133.39 C 148.97,133.39 148.97,133.38 148.97,133.38 C 148.97,133.22 148.96,133.07 148.95,132.92 C 148.95,132.82 148.94,132.73 148.93,132.63 C 148.93,132.61 148.92,132.59 148.92,132.57 z M 137.63,132.88 C 137.63,132.82 137.63,132.76 137.62,132.71 C 137.61,132.67 137.6,132.64 137.59,132.61 C 137.58,132.59 137.57,132.57 137.56,132.56 C 137.54,132.55 137.53,132.54 137.52,132.53 C 137.51,132.52 137.49,132.51 137.48,132.51 C 137.47,132.5 137.46,132.5 137.44,132.5 C 137.44,132.5 137.44,132.5 137.43,132.5 C 137.43,132.51 137.42,132.51 137.41,132.52 C 137.4,132.53 137.39,132.53 137.38,132.54 C 137.36,132.56 137.34,132.58 137.33,132.6 C 137.32,132.62 137.31,132.65 137.3,132.67 C 137.28,132.71 137.27,132.74 137.27,132.77 C 137.26,132.78 137.26,132.79 137.26,132.8 C 137.38,132.83 137.51,132.85 137.63,132.88 z M 141.65,134.19 C 141.66,133.93 141.68,133.67 141.71,133.41 C 141.73,133.25 141.76,133.08 141.79,132.91 C 141.8,132.82 141.82,132.73 141.84,132.63 C 141.85,132.59 141.86,132.55 141.87,132.51 C 141.89,132.47 141.9,132.42 141.92,132.38 C 141.93,132.36 141.94,132.34 141.96,132.31 C 141.91,132.31 141.86,132.3 141.81,132.3 C 141.71,132.28 141.6,132.28 141.49,132.27 C 141.47,132.31 141.46,132.35 141.45,132.38 C 141.41,132.49 141.39,132.6 141.37,132.71 C 141.33,132.92 141.3,133.14 141.27,133.35 C 141.25,133.56 141.23,133.78 141.22,134.0 C 141.36,134.06 141.51,134.12 141.65,134.19 z M 140.28,133.64 C 140.29,133.49 140.31,133.35 140.33,133.21 C 140.36,133.08 140.38,132.94 140.41,132.81 C 140.45,132.64 140.5,132.48 140.57,132.31 C 140.49,132.32 140.41,132.34 140.34,132.36 C 140.29,132.37 140.25,132.39 140.21,132.41 C 140.19,132.42 140.16,132.44 140.14,132.45 C 140.1,132.48 140.07,132.51 140.05,132.54 C 140.04,132.56 140.03,132.58 140.02,132.59 C 140.01,132.6 140.01,132.61 140.01,132.62 C 140.0,132.64 139.99,132.67 139.99,132.69 C 139.98,132.72 139.97,132.75 139.96,132.78 C 139.95,132.85 139.93,132.92 139.92,132.99 C 139.91,133.05 139.9,133.12 139.89,133.18 C 139.88,133.23 139.88,133.29 139.87,133.34 C 139.86,133.39 139.86,133.44 139.85,133.49 C 139.95,133.52 140.05,133.56 140.15,133.59 C 140.19,133.61 140.24,133.62 140.28,133.64 z M 136.6,139.41 C 136.55,137.98 136.46,136.54 136.48,135.1 C 136.5,134.38 136.53,133.67 136.68,132.95 C 136.71,132.78 136.75,132.6 136.82,132.43 C 136.83,132.41 136.84,132.39 136.85,132.37 C 136.85,132.36 136.86,132.35 136.87,132.34 C 136.87,132.34 136.89,132.32 136.88,132.32 C 136.83,132.31 136.79,132.31 136.74,132.3 C 136.65,132.29 136.56,132.29 136.47,132.28 C 136.45,132.28 136.43,132.28 136.41,132.28 C 136.4,132.28 136.39,132.3 136.39,132.31 C 136.39,132.32 136.38,132.33 136.38,132.34 C 136.36,132.38 136.35,132.42 136.34,132.47 C 136.31,132.55 136.29,132.64 136.27,132.73 C 136.23,132.9 136.2,133.08 136.17,133.26 C 135.98,134.52 136.03,136.32 136.08,137.57 C 136.09,137.92 136.11,138.27 136.13,138.62 C 136.13,138.73 136.13,138.84 136.14,138.94 C 136.14,139.0 136.14,139.06 136.15,139.12 C 136.15,139.15 136.15,139.18 136.15,139.21 C 136.15,139.22 136.16,139.24 136.15,139.25 C 136.14,139.26 136.14,139.27 136.13,139.28 C 136.02,139.4 135.91,139.52 135.8,139.64 C 135.69,139.76 135.58,139.89 135.47,140.01 C 135.46,140.02 135.45,140.06 135.43,140.04 C 135.42,140.02 135.4,140.01 135.39,139.99 C 135.36,139.96 135.34,139.93 135.31,139.9 C 135.25,139.84 135.2,139.78 135.14,139.72 C 135.03,139.6 134.93,139.47 134.82,139.35 C 134.79,139.32 134.76,139.29 134.73,139.26 C 134.72,139.24 134.71,139.23 134.71,139.2 C 134.7,139.17 134.7,139.14 134.7,139.11 C 134.7,138.99 134.69,138.87 134.69,138.76 C 134.63,137.32 134.55,135.89 134.61,134.44 C 134.63,134.03 134.66,133.62 134.72,133.21 C 134.75,133.01 134.79,132.81 134.84,132.6 C 134.85,132.55 134.86,132.5 134.87,132.45 C 134.88,132.43 134.89,132.4 134.89,132.38 C 134.9,132.37 134.9,132.37 134.9,132.36 C 134.9,132.35 134.89,132.36 134.89,132.36 C 134.87,132.36 134.86,132.37 134.85,132.37 C 134.75,132.4 134.65,132.43 134.57,132.49 C 134.47,132.56 134.44,132.65 134.41,132.75 C 134.39,132.83 134.37,132.9 134.35,132.98 C 134.33,133.11 134.3,133.23 134.28,133.36 C 134.24,133.66 134.21,133.96 134.19,134.27 C 134.15,134.87 134.14,135.46 134.15,136.07 C 134.16,136.9 134.2,137.74 134.23,138.58 C 134.24,138.72 134.24,138.85 134.25,138.99 C 134.25,139.06 134.26,139.13 134.26,139.2 C 134.26,139.24 134.26,139.28 134.26,139.31 C 134.26,139.32 134.27,139.4 134.27,139.41 C 134.39,139.54 134.5,139.66 134.61,139.78 C 134.83,140.03 135.05,140.28 135.27,140.52 C 135.33,140.59 135.38,140.65 135.44,140.71 C 135.44,140.72 135.44,140.7 135.45,140.7 C 135.45,140.7 135.45,140.69 135.46,140.69 C 135.47,140.68 135.47,140.67 135.48,140.67 C 135.49,140.65 135.51,140.63 135.52,140.62 C 135.55,140.59 135.58,140.56 135.6,140.53 C 135.71,140.4 135.82,140.28 135.94,140.16 C 136.16,139.91 136.38,139.66 136.6,139.41 z M 141.49,146.94 C 141.51,146.94 141.48,146.93 141.48,146.93 C 141.47,146.92 141.47,146.92 141.46,146.91 C 141.45,146.91 141.44,146.9 141.43,146.89 C 141.41,146.87 141.38,146.85 141.36,146.83 C 141.32,146.79 141.28,146.75 141.24,146.71 C 141.15,146.63 141.07,146.54 141.0,146.45 C 140.84,146.28 140.7,146.09 140.57,145.89 C 140.31,145.47 140.12,145.03 139.96,144.56 C 139.65,143.64 139.55,142.69 139.44,141.74 C 139.33,140.62 139.24,139.95 138.88,138.88 C 138.72,138.39 138.54,137.91 138.35,137.43 C 138.32,137.37 138.3,137.31 138.27,137.25 C 138.26,137.22 138.25,137.19 138.24,137.16 C 138.22,137.13 138.27,137.19 138.28,137.21 C 138.35,137.31 138.42,137.4 138.5,137.5 C 138.64,137.69 138.79,137.87 138.93,138.06 C 139.51,138.79 140.11,139.47 140.8,140.09 C 141.46,140.68 142.18,141.19 142.82,141.81 C 143.52,142.49 143.99,143.23 144.26,144.19 C 144.33,144.44 144.38,144.7 144.42,144.97 C 144.44,145.11 144.45,145.25 144.46,145.39 C 144.46,145.46 144.46,145.54 144.46,145.61 C 144.47,145.65 144.47,145.68 144.47,145.72 C 144.47,145.74 144.47,145.7 144.47,145.69 C 144.47,145.68 144.47,145.67 144.48,145.66 C 144.52,145.36 144.56,145.06 144.6,144.76 C 144.67,144.31 144.73,143.85 144.8,143.4 C 144.83,143.17 144.86,142.95 144.89,142.72 C 144.91,142.6 144.92,142.49 144.94,142.38 C 144.95,142.32 144.96,142.26 144.96,142.21 C 144.97,142.15 144.96,142.09 144.95,142.03 C 144.86,141.12 144.71,140.21 144.53,139.31 C 144.35,138.47 144.11,137.47 143.67,136.71 C 143.22,135.94 142.46,135.24 141.7,134.82 C 140.99,134.43 139.9,134.05 139.13,133.82 C 138.91,133.75 138.69,133.69 138.47,133.63 C 138.25,133.57 138.02,133.53 137.8,133.46 C 137.69,133.43 137.58,133.41 137.47,133.39 C 137.41,133.38 137.35,133.36 137.3,133.35 C 137.27,133.35 137.24,133.34 137.21,133.33 C 137.2,133.33 137.19,133.33 137.17,133.33 C 137.16,133.32 137.15,133.31 137.15,133.32 C 137.15,133.33 137.15,133.34 137.15,133.34 C 137.11,133.57 137.09,133.8 137.07,134.03 C 136.99,134.95 137.0,135.86 137.03,136.78 C 137.04,137.25 137.06,137.71 137.08,138.18 C 137.1,138.46 137.11,138.75 137.12,139.04 C 137.12,139.09 137.14,139.49 137.13,139.54 C 137.13,139.61 137.1,139.66 137.06,139.7 C 137.02,139.74 136.98,139.79 136.94,139.83 C 136.63,140.18 136.32,140.52 136.01,140.87 C 135.99,140.89 135.96,140.9 135.96,140.94 C 135.96,140.97 135.96,141.0 135.97,141.03 C 135.97,141.09 135.97,141.15 135.98,141.2 C 135.98,141.32 135.99,141.44 136.0,141.55 C 136.01,141.79 136.03,142.02 136.04,142.25 C 136.08,143.19 136.1,144.12 136.08,145.05 C 136.02,147.08 135.74,148.62 135.48,150.62 C 135.21,152.65 135.12,154.16 135.17,156.21 C 135.18,157.14 135.23,158.07 135.3,159.0 C 135.33,159.47 135.37,159.93 135.4,160.4 C 135.42,160.63 135.43,160.87 135.44,161.1 C 135.44,161.22 135.44,161.33 135.44,161.45 C 135.44,161.51 135.44,161.57 135.44,161.62 C 135.44,161.64 135.44,161.65 135.43,161.67 C 135.43,161.68 135.42,161.7 135.44,161.71 C 135.46,161.73 135.48,161.75 135.5,161.77 C 136.15,162.39 136.79,162.95 137.68,163.23 C 138.08,163.36 138.57,163.43 138.99,163.39 C 139.52,163.35 139.79,163.14 139.97,162.64 C 140.27,161.79 140.03,160.82 139.63,160.08 C 139.57,159.98 139.52,159.89 139.46,159.8 C 139.4,159.7 139.38,159.62 139.38,159.51 C 139.38,159.3 139.5,159.12 139.69,159.03 C 139.79,158.99 139.89,158.99 139.99,158.98 C 140.1,158.98 140.21,158.97 140.32,158.94 C 140.54,158.9 140.74,158.84 140.93,158.7 C 141.28,158.43 141.36,157.87 141.26,157.48 C 141.24,157.37 141.2,157.27 141.15,157.17 C 141.11,157.09 141.07,157.01 141.07,156.92 C 141.06,156.73 141.14,156.56 141.3,156.45 C 141.46,156.34 141.63,156.23 141.78,156.1 C 141.93,155.98 142.08,155.84 142.22,155.7 C 142.5,155.4 142.73,155.08 142.93,154.73 C 142.98,154.64 143.02,154.56 143.1,154.49 C 143.14,154.46 143.18,154.44 143.23,154.41 C 143.24,154.41 143.25,154.35 143.25,154.34 C 143.25,154.31 143.26,154.29 143.26,154.26 C 143.29,154.04 143.32,153.82 143.35,153.6 C 143.42,153.16 143.48,152.73 143.54,152.29 C 143.57,152.07 143.6,151.85 143.63,151.63 C 143.64,151.58 143.65,151.52 143.65,151.47 C 143.66,151.45 143.66,151.44 143.66,151.43 C 143.66,151.42 143.67,151.4 143.66,151.41 C 143.66,151.42 143.65,151.44 143.65,151.45 C 143.63,151.51 143.62,151.56 143.6,151.62 C 143.53,151.85 143.46,152.07 143.39,152.3 C 143.13,153.14 142.84,153.95 142.38,154.7 C 141.76,155.7 141.11,156.27 140.12,156.87 C 139.4,157.3 138.81,157.64 138.25,158.31 C 137.99,158.62 137.77,158.95 137.57,159.3 C 137.52,159.39 137.48,159.47 137.43,159.56 C 137.42,159.57 137.42,159.58 137.41,159.59 C 137.4,159.61 137.41,159.57 137.42,159.56 C 137.42,159.53 137.43,159.5 137.44,159.46 C 137.46,159.4 137.47,159.34 137.49,159.27 C 137.56,159.01 137.63,158.74 137.7,158.48 C 138.1,156.95 138.12,156.6 138.39,155.04 C 138.59,153.89 138.88,152.7 139.64,151.72 C 139.81,151.49 140.0,151.29 140.23,151.11 C 140.28,151.07 140.34,151.02 140.4,150.98 C 140.43,150.96 140.46,150.95 140.48,150.93 C 140.49,150.92 140.5,150.92 140.51,150.91 C 140.51,150.91 140.53,150.9 140.52,150.9 C 140.51,150.9 140.5,150.91 140.49,150.91 C 140.4,150.93 140.31,150.96 140.22,150.99 C 139.86,151.12 139.56,151.3 139.28,151.57 C 139.01,151.83 138.81,152.15 138.52,152.4 C 138.24,152.64 137.93,152.79 137.58,152.91 C 137.2,153.04 136.93,153.07 136.65,153.4 C 136.54,153.53 136.41,153.73 136.37,153.91 C 136.36,154.01 136.36,154.1 136.4,154.2 C 136.45,154.3 136.54,154.35 136.64,154.28 C 136.72,154.23 136.73,154.05 136.76,153.98 C 136.81,153.88 136.92,153.81 137.03,153.79 C 137.25,153.75 137.49,153.87 137.6,154.07 C 137.82,154.45 137.68,155.04 137.35,155.32 C 137.02,155.61 136.55,155.6 136.19,155.39 C 135.8,155.15 135.58,154.72 135.55,154.28 C 135.51,153.8 135.69,153.36 136.0,153.02 C 136.29,152.68 136.63,152.51 137.06,152.39 C 137.44,152.28 137.84,152.23 138.21,152.04 C 138.4,151.95 138.55,151.83 138.71,151.69 C 138.73,151.67 138.75,151.66 138.77,151.64 C 138.77,151.63 138.8,151.61 138.79,151.62 C 138.77,151.63 138.76,151.64 138.75,151.64 C 138.71,151.67 138.66,151.7 138.62,151.72 C 138.53,151.77 138.44,151.81 138.34,151.84 C 137.94,151.96 137.47,151.9 137.1,151.74 C 136.63,151.54 136.35,151.19 136.3,150.67 C 136.25,150.17 136.48,149.66 136.97,149.47 C 137.41,149.3 138.11,149.45 138.23,149.96 C 138.29,150.23 138.19,150.54 137.91,150.62 C 137.68,150.69 137.45,150.61 137.33,150.41 C 137.24,150.27 137.22,149.97 137.0,150.15 C 136.71,150.38 136.77,150.82 136.91,151.1 C 137.04,151.34 137.22,151.46 137.47,151.55 C 137.89,151.7 138.39,151.67 138.8,151.5 C 139.36,151.26 139.29,151.11 139.92,150.97 C 140.11,150.93 140.31,150.91 140.51,150.9 C 140.51,150.9 140.52,150.9 140.52,150.9 C 140.54,150.9 140.51,150.9 140.51,150.89 C 140.5,150.89 140.49,150.88 140.48,150.88 C 140.45,150.87 140.43,150.86 140.41,150.85 C 140.37,150.83 140.33,150.8 140.29,150.78 C 140.2,150.73 140.12,150.68 140.04,150.62 C 139.71,150.39 139.41,150.11 139.1,149.85 C 138.39,149.23 137.97,148.96 137.1,148.57 C 137.01,148.53 136.92,148.49 136.83,148.45 C 136.79,148.43 136.74,148.41 136.69,148.4 C 136.68,148.39 136.67,148.39 136.66,148.38 C 136.64,148.37 136.68,148.37 136.69,148.37 C 136.71,148.37 136.74,148.36 136.76,148.36 C 136.96,148.32 137.15,148.28 137.35,148.24 C 137.74,148.16 138.13,148.08 138.51,147.95 C 138.9,147.83 139.28,147.66 139.65,147.5 C 140.03,147.33 140.41,147.15 140.81,147.04 C 141.0,146.99 141.19,146.95 141.4,146.94 C 141.42,146.94 141.44,146.94 141.47,146.94 C 141.47,146.94 141.48,146.94 141.49,146.94 C 141.5,146.94 141.48,146.94 141.47,146.94 C 141.46,146.93 141.45,146.93 141.43,146.93 C 141.38,146.92 141.33,146.9 141.27,146.89 C 141.16,146.86 141.06,146.83 140.95,146.79 C 140.74,146.71 140.55,146.61 140.37,146.48 C 140.19,146.34 140.06,146.17 139.88,146.02 C 139.51,145.71 139.03,145.51 138.54,145.47 C 138.28,145.44 138.04,145.45 137.79,145.57 C 137.5,145.7 137.32,145.98 137.26,146.28 C 137.23,146.47 137.26,146.67 137.4,146.81 C 137.6,147.02 137.69,146.73 137.81,146.61 C 137.99,146.42 138.26,146.4 138.48,146.5 C 138.65,146.58 138.74,146.68 138.78,146.87 C 138.83,147.13 138.74,147.39 138.52,147.54 C 138.3,147.69 138.0,147.73 137.75,147.71 C 137.19,147.65 136.74,147.27 136.66,146.7 C 136.59,146.22 136.8,145.66 137.22,145.38 C 137.61,145.13 138.16,145.1 138.58,145.17 C 139.02,145.23 139.35,145.41 139.67,145.7 C 139.69,145.72 139.73,145.77 139.71,145.74 C 139.7,145.72 139.68,145.7 139.67,145.67 C 139.63,145.63 139.6,145.59 139.57,145.55 C 139.51,145.47 139.44,145.39 139.37,145.32 C 139.22,145.18 139.05,145.06 138.87,144.96 C 138.5,144.74 138.1,144.59 137.73,144.38 C 137.3,144.14 136.96,143.85 136.68,143.44 C 136.38,143.01 136.16,142.48 136.21,141.94 C 136.26,141.42 136.54,140.95 136.99,140.68 C 137.48,140.37 138.01,140.38 138.49,140.7 C 138.94,141.01 139.23,141.5 139.21,142.06 C 139.2,142.29 139.14,142.56 138.98,142.74 C 138.81,142.93 138.55,142.99 138.32,142.93 C 138.18,142.9 138.07,142.84 137.98,142.74 C 137.88,142.63 137.85,142.52 137.85,142.38 C 137.84,142.23 137.81,142.12 137.64,142.08 C 137.5,142.04 137.42,142.16 137.38,142.27 C 137.23,142.68 137.65,143.32 137.91,143.57 C 138.07,143.72 138.26,143.82 138.45,143.93 C 138.64,144.04 138.83,144.15 139.01,144.28 C 139.36,144.53 139.63,144.82 139.85,145.19 C 140.06,145.55 140.22,145.93 140.51,146.24 C 140.79,146.56 141.1,146.78 141.49,146.94 z M 145.89,135.83 C 145.65,135.01 145.36,134.37 144.59,133.88 C 143.96,133.48 143.05,133.22 142.34,133.07 C 142.29,133.06 142.23,133.05 142.17,133.04 C 142.15,133.03 142.12,133.03 142.09,133.02 C 142.07,133.02 142.06,133.02 142.04,133.01 C 142.03,133.01 142.03,133.03 142.03,133.04 C 142.02,133.11 142.01,133.19 142.0,133.27 C 141.97,133.45 141.96,133.62 141.94,133.8 C 141.93,133.89 141.93,133.99 141.92,134.08 C 141.92,134.13 141.91,134.18 141.91,134.23 C 141.91,134.26 141.91,134.29 141.91,134.31 C 141.91,134.33 141.92,134.33 141.93,134.34 C 141.94,134.35 141.95,134.35 141.97,134.36 C 142.17,134.47 142.37,134.6 142.55,134.74 C 143.18,135.19 143.77,135.82 144.16,136.5 C 144.56,137.21 144.77,137.97 144.95,138.76 C 145.04,139.15 145.12,139.54 145.19,139.93 C 145.22,140.13 145.26,140.33 145.29,140.53 C 145.3,140.62 145.32,140.72 145.33,140.82 C 145.34,140.83 145.34,140.84 145.34,140.83 C 145.34,140.83 145.34,140.82 145.34,140.81 C 145.35,140.8 145.35,140.79 145.35,140.78 C 145.36,140.75 145.36,140.73 145.37,140.71 C 145.38,140.66 145.39,140.61 145.41,140.56 C 145.6,139.78 145.78,139.0 145.91,138.21 C 145.98,137.82 146.02,137.42 146.03,137.02 C 146.03,136.61 145.98,136.22 145.89,135.83 z M 142.39,132.54 C 142.52,132.56 142.64,132.59 142.76,132.62 C 142.77,132.62 142.79,132.62 142.8,132.63 C 142.76,132.51 142.7,132.41 142.64,132.34 C 142.58,132.26 142.5,132.22 142.42,132.24 C 142.36,132.25 142.29,132.31 142.24,132.37 C 142.21,132.41 142.18,132.45 142.16,132.49 C 142.24,132.51 142.31,132.52 142.39,132.54 z M 144.42,154.52 C 144.26,153.86 144.24,153.19 144.22,152.52 C 144.21,152.18 144.21,151.85 144.2,151.51 C 144.2,151.49 144.2,151.39 144.2,151.44 C 144.19,151.46 144.19,151.48 144.19,151.5 C 144.18,151.54 144.18,151.57 144.17,151.61 C 144.16,151.69 144.15,151.77 144.14,151.85 C 144.12,152.01 144.09,152.17 144.07,152.32 C 143.98,152.99 143.88,153.65 143.79,154.32 C 143.78,154.36 143.78,154.41 143.77,154.45 C 143.77,154.46 143.77,154.46 143.77,154.47 C 143.77,154.47 143.76,154.48 143.77,154.49 C 143.78,154.49 143.78,154.5 143.79,154.51 C 143.81,154.52 143.82,154.53 143.84,154.55 C 143.89,154.61 143.92,154.69 143.96,154.76 C 144.02,154.91 144.1,155.06 144.18,155.2 C 144.2,155.23 144.22,155.27 144.24,155.3 C 144.25,155.31 144.25,155.31 144.26,155.32 C 144.26,155.33 144.27,155.35 144.27,155.34 C 144.28,155.32 144.28,155.3 144.28,155.27 C 144.3,155.19 144.31,155.11 144.33,155.02 C 144.36,154.85 144.39,154.69 144.42,154.52 z M 144.0,149.01 C 143.75,148.74 143.49,148.39 143.2,148.13 C 142.54,147.53 141.72,147.41 140.99,147.73 C 140.45,147.96 139.96,148.44 139.4,148.61 C 139.29,148.64 139.18,148.66 139.06,148.69 C 139.17,148.74 139.27,148.79 139.36,148.86 C 139.85,149.18 140.16,149.76 140.6,150.12 C 141.19,150.6 141.99,150.67 142.82,150.26 C 143.2,150.08 143.58,149.79 143.92,149.6 C 143.93,149.55 143.93,149.5 143.94,149.45 C 143.75,149.52 143.52,149.59 143.3,149.64 C 142.55,149.82 141.85,149.74 141.29,149.37 C 141.09,149.24 140.91,149.08 140.75,148.92 C 140.96,148.8 141.18,148.69 141.42,148.61 C 142.07,148.39 142.79,148.47 143.45,148.83 C 143.64,148.94 143.82,149.06 143.98,149.17 C 143.99,149.12 143.99,149.07 144.0,149.01 z M 143.46,150.03 C 143.58,150.01 143.72,149.98 143.87,149.94 C 143.88,149.87 143.89,149.8 143.9,149.72 C 143.76,149.82 143.61,149.93 143.46,150.03 z M 143.81,150.4 C 143.66,150.72 143.47,151.17 143.27,151.58 C 142.69,152.71 141.97,153.59 141.26,154.06 C 141.02,154.23 140.77,154.35 140.53,154.45 C 140.67,154.02 140.81,153.57 141.0,153.15 C 141.47,152.09 142.24,151.2 143.03,150.66 C 143.32,150.46 143.62,150.31 143.84,150.17 C 143.85,150.12 143.85,150.07 143.86,150.03 C 143.58,150.13 143.34,150.19 143.07,150.26 C 142.38,150.45 141.5,150.76 140.87,151.43 C 140.34,151.99 139.99,152.81 139.77,153.64 C 139.65,154.08 139.57,154.53 139.46,154.96 C 139.35,155.42 139.2,155.87 139.05,156.3 C 139.14,156.21 139.24,156.12 139.34,156.04 C 139.83,155.65 140.38,155.73 140.96,155.46 C 141.35,155.28 141.75,154.95 142.12,154.49 C 142.5,154.02 142.85,153.43 143.13,152.72 C 143.36,152.14 143.55,151.48 143.73,150.91 C 143.76,150.74 143.78,150.57 143.81,150.4 z M 144.27,150.9 C 144.28,151.03 144.29,151.18 144.29,151.32 C 144.31,151.87 144.32,152.48 144.39,153.02 C 144.42,153.33 144.48,153.61 144.55,153.86 C 144.6,153.62 144.66,153.37 144.71,153.13 C 144.76,152.91 144.8,152.7 144.84,152.49 C 144.75,152.25 144.67,151.99 144.6,151.71 C 144.48,151.24 144.41,150.72 144.35,150.37 C 144.32,150.54 144.3,150.72 144.27,150.9 z M 144.37,150.19 C 144.58,150.31 144.87,150.41 145.15,150.57 C 145.15,150.57 145.16,150.57 145.16,150.58 C 145.18,150.42 145.2,150.27 145.22,150.11 C 144.94,150.1 144.68,150.09 144.4,150.01 C 144.39,150.07 144.38,150.13 144.37,150.19 z M 145.28,149.45 C 145.25,149.45 145.21,149.45 145.17,149.45 C 144.93,149.45 144.68,149.42 144.49,149.39 C 144.48,149.44 144.47,149.49 144.46,149.54 C 144.71,149.65 144.97,149.81 145.24,149.93 C 145.25,149.77 145.27,149.61 145.28,149.45 z M 144.53,149.1 C 144.74,148.93 145.0,148.73 145.26,148.55 C 145.3,148.52 145.33,148.5 145.36,148.48 C 145.38,148.33 145.39,148.18 145.4,148.03 C 145.1,148.34 144.82,148.66 144.55,148.94 C 144.54,149.0 144.53,149.05 144.53,149.1 z M 145.42,147.71 C 145.43,147.58 145.44,147.45 145.45,147.32 C 145.16,147.65 144.88,147.95 144.65,148.22 C 144.64,148.28 144.63,148.35 144.62,148.42 C 144.9,148.13 145.15,147.93 145.42,147.71 z M 145.92,143.43 C 146.01,142.78 146.11,142.13 146.19,141.48 C 146.24,140.98 146.29,140.49 146.32,139.99 C 146.34,139.6 146.35,139.21 146.34,138.82 C 146.33,138.85 146.33,138.89 146.32,138.92 C 146.28,139.12 146.24,139.32 146.19,139.52 C 146.15,139.7 146.11,139.89 146.07,140.08 C 145.9,140.8 145.72,141.52 145.5,142.23 C 145.34,143.35 145.18,144.46 145.02,145.58 C 145.11,145.29 145.19,145.01 145.29,144.74 C 145.47,144.27 145.68,143.84 145.92,143.43 z M 144.09,148.36 C 143.94,148.16 143.75,147.94 143.56,147.69 C 142.99,146.92 142.47,145.88 142.24,144.78 C 142.15,144.35 142.11,143.9 142.07,143.48 C 142.32,143.66 142.57,143.85 142.8,144.09 C 143.45,144.77 143.91,145.79 144.09,147.0 C 144.13,147.27 144.16,147.54 144.17,147.8 C 144.23,147.37 144.29,146.95 144.35,146.52 C 144.35,146.34 144.35,146.16 144.34,145.98 C 144.25,144.55 143.66,143.41 142.85,142.79 C 142.25,142.32 141.51,142.15 140.92,141.59 C 140.81,141.47 140.69,141.35 140.58,141.22 C 140.71,141.68 140.82,142.14 140.87,142.6 C 140.92,143.03 140.93,143.46 140.97,143.9 C 141.04,144.72 141.24,145.58 141.64,146.26 C 142.11,147.07 142.87,147.63 143.47,148.06 C 143.68,148.21 143.87,148.34 144.07,148.53 C 144.08,148.47 144.09,148.42 144.09,148.36 z M 145.81,144.14 C 145.56,144.58 145.34,145.06 145.16,145.56 C 145.06,145.85 144.98,146.15 144.9,146.46 C 144.84,146.87 144.78,147.28 144.72,147.7 C 144.84,147.37 144.97,146.99 145.12,146.63 C 145.27,146.27 145.44,145.92 145.62,145.59 C 145.63,145.44 145.65,145.28 145.67,145.13 C 145.72,144.8 145.76,144.47 145.81,144.14 z M 144.41,149.92 C 144.58,149.93 144.73,149.93 144.87,149.93 C 144.73,149.84 144.59,149.74 144.45,149.66 C 144.44,149.75 144.42,149.83 144.41,149.92 z M 144.57,148.79 C 144.8,148.52 145.04,148.24 145.28,147.96 C 145.09,148.1 144.88,148.27 144.61,148.51 C 144.6,148.6 144.58,148.7 144.57,148.79 z M 144.06,148.62 C 143.88,148.48 143.72,148.38 143.59,148.29 C 143.73,148.49 143.88,148.69 144.02,148.87 C 144.03,148.79 144.05,148.7 144.06,148.62 z M 132.52,152.45 C 132.73,153.59 133.17,156.06 133.42,157.2 C 133.47,157.44 133.52,157.68 133.58,157.92 C 133.59,157.99 133.61,158.06 133.63,158.12 C 133.63,158.16 133.64,158.2 133.65,158.23 C 133.65,158.25 133.66,158.27 133.66,158.28 C 133.66,158.3 133.69,158.36 133.67,158.33 C 133.59,158.21 133.5,158.09 133.43,157.96 C 133.19,157.57 133.0,157.17 132.84,156.74 C 132.83,156.69 132.81,156.64 132.79,156.59 C 132.78,156.57 132.79,156.61 132.78,156.62 C 132.78,156.64 132.78,156.65 132.78,156.66 C 132.78,156.68 132.77,156.71 132.77,156.73 C 132.76,156.83 132.75,156.93 132.74,157.03 C 132.72,157.23 132.71,157.43 132.7,157.63 C 132.68,158.02 132.67,158.42 132.69,158.82 C 132.71,159.22 132.75,159.61 132.83,160.0 C 132.88,160.3 133.02,160.87 133.19,161.13 C 133.42,161.48 133.89,161.56 134.26,161.52 C 134.29,161.52 134.31,161.52 134.34,161.51 C 134.35,161.51 134.36,161.51 134.37,161.51 C 134.38,161.51 134.38,161.48 134.38,161.47 C 134.38,161.42 134.38,161.37 134.38,161.32 C 134.38,161.22 134.37,161.12 134.37,161.03 C 134.36,160.83 134.35,160.63 134.34,160.43 C 134.2,158.59 134.11,157.51 134.09,155.66 C 134.08,154.07 134.17,152.49 134.37,150.9 C 134.57,149.32 134.84,147.75 134.96,146.16 C 135.07,144.57 135.02,142.99 134.92,141.39 C 134.92,141.3 134.91,141.2 134.9,141.1 C 134.9,141.05 134.9,141.0 134.89,140.95 C 134.89,140.92 134.89,140.9 134.88,140.88 C 134.86,140.86 134.84,140.84 134.83,140.82 C 134.69,140.68 134.56,140.53 134.43,140.38 C 134.29,140.23 134.16,140.08 134.03,139.93 C 133.96,139.86 133.9,139.79 133.83,139.71 C 133.72,139.59 133.74,139.51 133.73,139.37 C 133.68,138.26 133.63,137.14 133.62,136.02 C 133.61,135.25 133.62,134.47 133.7,133.69 C 133.72,133.54 133.74,133.39 133.76,133.23 C 133.77,133.2 133.78,133.16 133.78,133.13 C 133.8,133.05 133.81,133.07 133.87,133.04 C 133.92,133.02 133.97,133.01 134.02,132.99 C 134.07,132.98 134.12,132.97 134.17,132.96 C 134.27,132.92 134.27,132.77 134.29,132.7 C 134.33,132.6 134.36,132.51 134.45,132.43 C 134.6,132.29 134.84,132.24 135.03,132.21 C 135.54,132.13 137.01,132.08 137.52,132.37 C 137.62,132.42 137.68,132.49 137.72,132.6 C 137.75,132.69 137.72,132.79 137.84,132.83 C 137.85,132.83 137.9,132.83 137.9,132.84 C 137.9,132.87 137.9,132.9 137.9,132.93 C 137.9,132.94 137.91,132.94 137.92,132.95 C 137.94,132.95 137.95,132.95 137.96,132.96 C 137.99,132.96 138.01,132.97 138.04,132.97 C 138.14,133.0 138.24,133.02 138.34,133.05 C 138.75,133.15 139.15,133.27 139.56,133.39 C 139.56,133.4 139.57,133.4 139.57,133.4 C 139.58,133.4 139.59,133.42 139.59,133.4 C 139.59,133.39 139.59,133.39 139.6,133.38 C 139.6,133.36 139.6,133.34 139.6,133.32 C 139.61,133.28 139.61,133.25 139.62,133.21 C 139.63,133.14 139.64,133.07 139.65,133.0 C 139.66,132.93 139.68,132.86 139.69,132.79 C 139.69,132.77 139.69,132.76 139.7,132.75 C 139.7,132.73 139.72,132.74 139.73,132.74 C 139.75,132.74 139.77,132.74 139.8,132.73 C 139.84,132.7 139.86,132.67 139.88,132.62 C 140.01,132.18 140.63,132.17 140.96,132.15 C 141.17,132.14 141.38,132.14 141.59,132.15 C 141.69,132.16 141.8,132.17 141.9,132.18 C 142.08,132.21 142.25,132.11 142.3,131.94 C 142.3,131.91 142.31,131.89 142.31,131.87 C 142.31,131.86 142.3,131.84 142.32,131.85 C 142.32,131.85 142.33,131.85 142.34,131.85 C 142.36,131.86 142.39,131.87 142.41,131.88 C 142.46,131.89 142.51,131.91 142.56,131.94 C 142.65,131.99 142.74,132.04 142.81,132.12 C 142.96,132.29 143.04,132.47 143.09,132.68 C 143.09,132.71 143.12,132.71 143.15,132.72 C 143.17,132.73 143.2,132.73 143.22,132.74 C 143.27,132.75 143.32,132.77 143.37,132.78 C 143.47,132.81 143.57,132.85 143.67,132.88 C 143.87,132.95 144.07,133.02 144.26,133.11 C 144.45,133.19 144.64,133.29 144.82,133.4 C 144.91,133.45 144.99,133.51 145.08,133.58 C 145.12,133.61 145.16,133.64 145.2,133.67 C 145.24,133.71 145.28,133.74 145.32,133.78 C 145.36,133.81 145.4,133.84 145.44,133.88 C 145.48,133.92 145.51,133.96 145.55,134.0 C 145.62,134.07 145.68,134.15 145.75,134.24 C 145.81,134.32 145.87,134.41 145.92,134.5 C 145.92,134.51 145.93,134.51 145.93,134.52 C 145.93,134.52 145.93,134.54 145.94,134.54 C 145.95,134.53 145.96,134.52 145.97,134.51 C 145.99,134.5 146.02,134.48 146.04,134.47 C 146.08,134.44 146.12,134.41 146.17,134.38 C 146.53,134.15 146.91,133.99 147.32,133.87 C 147.52,133.82 147.73,133.77 147.93,133.74 C 148.04,133.72 148.14,133.7 148.24,133.69 C 148.26,133.69 148.27,133.69 148.27,133.67 C 148.27,133.66 148.27,133.64 148.27,133.63 C 148.27,133.6 148.27,133.57 148.27,133.54 C 148.27,133.47 148.26,133.41 148.26,133.35 C 148.26,133.28 148.26,133.21 148.25,133.14 C 148.25,133.13 148.25,133.11 148.25,133.09 C 148.25,133.08 148.25,133.07 148.25,133.06 C 148.25,133.06 148.26,133.04 148.25,133.04 C 148.24,133.04 148.23,133.05 148.23,133.04 C 148.23,133.03 148.23,133.03 148.23,133.02 C 148.23,133.01 148.24,132.99 148.24,132.98 C 148.25,132.88 148.26,132.77 148.28,132.67 C 148.29,132.64 148.28,132.62 148.31,132.6 C 148.33,132.59 148.36,132.58 148.38,132.57 C 148.43,132.55 148.48,132.53 148.53,132.52 C 148.63,132.49 148.74,132.47 148.84,132.46 C 149.26,132.4 149.68,132.38 150.1,132.39 C 150.31,132.39 150.52,132.4 150.73,132.44 C 150.83,132.45 150.93,132.47 151.03,132.51 C 151.19,132.56 151.18,132.58 151.2,132.74 C 151.2,132.8 151.2,132.97 151.25,133.02 C 151.27,133.04 151.29,133.05 151.31,133.06 C 151.33,133.06 151.36,133.05 151.36,133.09 C 151.36,133.12 151.37,133.16 151.37,133.19 C 151.37,133.19 151.37,133.2 151.37,133.2 C 151.37,133.21 151.36,133.21 151.37,133.22 C 151.38,133.22 151.38,133.22 151.39,133.22 C 151.4,133.22 151.42,133.22 151.43,133.22 C 151.64,133.25 151.85,133.27 152.05,133.34 C 152.13,133.37 152.26,133.43 152.29,133.53 C 152.29,133.54 152.3,133.55 152.3,133.56 C 152.3,133.58 152.3,133.59 152.31,133.59 C 152.34,133.6 152.37,133.6 152.39,133.61 C 152.44,133.62 152.5,133.63 152.55,133.64 C 152.75,133.68 152.96,133.73 153.16,133.79 C 153.83,133.99 154.87,134.41 155.46,134.8 C 155.82,135.04 156.11,135.31 156.33,135.69 C 156.36,135.73 156.47,135.93 156.48,135.97 C 156.5,136.08 156.52,136.18 156.54,136.28 C 156.57,136.49 156.6,136.7 156.63,136.91 C 156.73,137.74 156.77,138.58 156.8,139.42 C 156.82,139.84 156.84,140.26 156.83,140.68 C 156.83,140.79 156.83,140.89 156.83,141.0 C 156.83,141.02 156.83,141.05 156.83,141.07 C 156.83,141.11 156.82,141.04 156.82,141.02 C 156.82,140.97 156.81,140.92 156.81,140.87 C 156.79,140.66 156.77,140.45 156.75,140.24 C 156.73,140.03 156.71,139.82 156.69,139.61 C 156.67,139.4 156.66,139.19 156.64,138.99 C 156.6,138.57 156.54,138.15 156.46,137.74 C 156.38,137.33 156.28,136.93 156.14,136.54 C 155.99,136.14 155.82,135.79 155.49,135.5 C 154.99,135.04 153.91,134.59 153.29,134.39 C 153.09,134.32 152.89,134.26 152.69,134.22 C 152.59,134.19 152.49,134.17 152.39,134.15 C 152.38,134.14 152.36,134.14 152.35,134.14 C 152.33,134.14 152.34,134.16 152.34,134.17 C 152.35,134.2 152.35,134.22 152.35,134.25 C 152.35,134.3 152.35,134.35 152.35,134.4 C 152.36,134.82 152.35,135.23 152.33,135.64 C 152.3,136.47 152.3,137.3 152.29,138.12 C 152.29,138.54 152.28,138.95 152.28,139.37 C 152.28,139.47 152.3,139.57 152.23,139.67 C 152.17,139.77 152.08,139.85 152.01,139.94 C 151.86,140.13 151.71,140.32 151.56,140.51 C 151.41,140.7 151.26,140.89 151.11,141.08 C 151.08,141.13 151.03,141.16 151.02,141.23 C 151.02,141.28 151.01,141.33 151.0,141.38 C 150.99,141.48 150.98,141.59 150.96,141.69 C 150.91,142.1 150.85,142.51 150.8,142.92 C 150.56,144.56 150.28,146.19 150.0,147.82 C 149.72,149.45 149.44,151.08 149.34,152.74 C 149.28,153.71 149.3,154.25 149.4,155.22 C 149.49,156.04 149.55,156.86 149.54,157.69 C 149.54,157.75 149.54,157.8 149.54,157.85 C 149.54,157.87 149.54,157.9 149.54,157.93 C 149.54,157.94 149.53,157.99 149.55,158.0 C 149.64,158.05 149.73,158.1 149.82,158.15 C 150.0,158.25 150.18,158.34 150.38,158.42 C 150.76,158.58 151.16,158.69 151.57,158.77 C 152.27,158.9 153.31,158.95 154.01,158.64 C 154.85,158.27 155.07,157.34 154.87,156.53 C 154.76,156.11 154.55,155.78 154.28,155.45 C 154.16,155.29 154.01,155.15 153.9,154.98 C 153.8,154.84 153.78,154.66 153.83,154.5 C 153.86,154.42 153.9,154.36 153.97,154.3 C 154.04,154.23 154.12,154.16 154.19,154.09 C 154.34,153.93 154.47,153.77 154.59,153.59 C 154.85,153.21 154.98,152.87 154.91,152.4 C 154.88,152.21 154.81,151.96 154.68,151.81 C 154.57,151.67 154.53,151.49 154.59,151.32 C 154.61,151.24 154.65,151.17 154.71,151.11 C 154.79,151.03 154.86,150.96 154.93,150.88 C 155.08,150.72 155.22,150.56 155.35,150.4 C 155.48,150.23 155.61,150.07 155.73,149.89 C 155.76,149.85 155.79,149.8 155.82,149.76 C 155.83,149.74 155.82,149.77 155.82,149.78 C 155.82,149.79 155.81,149.81 155.81,149.82 C 155.81,149.85 155.81,149.87 155.81,149.9 C 155.8,150.01 155.79,150.11 155.78,150.22 C 155.74,150.64 155.72,151.06 155.71,151.49 C 155.7,151.91 155.71,152.33 155.73,152.76 C 155.75,152.97 155.76,153.18 155.79,153.39 C 155.8,153.49 155.81,153.6 155.82,153.7 C 155.83,153.76 155.84,153.81 155.85,153.86 C 155.86,153.93 155.82,153.96 155.79,154.01 C 155.69,154.19 155.57,154.37 155.44,154.53 C 155.41,154.58 155.37,154.62 155.34,154.66 C 155.33,154.67 155.32,154.68 155.31,154.69 C 155.31,154.69 155.31,154.7 155.3,154.7 C 155.3,154.71 155.28,154.71 155.29,154.72 C 155.31,154.74 155.32,154.76 155.34,154.78 C 155.4,154.86 155.47,154.95 155.53,155.04 C 155.78,155.39 155.95,155.76 156.06,156.18 C 156.27,156.99 156.2,157.9 155.78,158.65 C 154.85,160.26 152.7,160.26 151.21,159.96 C 150.79,159.88 150.39,159.76 149.99,159.6 C 149.79,159.52 149.6,159.44 149.41,159.34 C 149.32,159.29 149.22,159.24 149.13,159.19 C 149.11,159.18 149.09,159.16 149.06,159.15 C 149.05,159.14 149.04,159.13 149.03,159.14 C 149.02,159.15 149.01,159.15 149.0,159.16 C 148.95,159.19 148.91,159.22 148.87,159.25 C 148.15,159.74 147.37,160.03 146.48,159.99 C 146.04,159.97 145.65,159.87 145.26,159.67 C 145.21,159.65 145.16,159.62 145.12,159.59 C 145.1,159.58 145.07,159.57 145.05,159.55 C 145.04,159.55 145.04,159.55 145.03,159.54 C 145.02,159.54 145.04,159.55 145.04,159.56 C 145.05,159.57 145.05,159.58 145.06,159.6 C 145.11,159.69 145.16,159.78 145.22,159.87 C 145.33,160.05 145.45,160.23 145.57,160.4 C 145.97,160.99 146.35,161.58 146.67,162.22 C 146.7,162.28 146.72,162.33 146.75,162.39 C 146.76,162.4 146.82,162.39 146.83,162.39 C 146.85,162.38 146.88,162.38 146.91,162.38 C 146.96,162.38 147.01,162.38 147.06,162.38 C 147.28,162.37 147.49,162.36 147.7,162.35 C 148.12,162.33 148.55,162.31 148.97,162.29 C 149.82,162.26 150.66,162.21 151.51,162.25 C 152.44,162.29 153.12,162.45 153.98,162.8 C 154.76,163.12 155.51,163.52 156.3,163.84 C 157.76,164.43 159.28,164.72 160.87,164.44 C 162.46,164.16 163.81,163.47 165.21,162.75 C 165.56,162.57 165.91,162.38 166.26,162.21 C 166.64,162.02 167.31,161.72 167.67,161.48 C 167.85,161.35 168.0,161.22 168.11,161.02 C 168.12,161.0 168.13,160.98 168.14,160.95 C 168.14,160.94 168.15,160.93 168.15,160.92 C 168.15,160.92 168.15,160.91 168.15,160.91 C 168.15,160.9 168.16,160.91 168.16,160.91 C 168.2,160.94 168.23,160.98 168.25,161.02 C 168.31,161.11 168.34,161.19 168.35,161.29 C 168.38,161.52 168.32,161.66 168.17,161.82 C 168.04,161.97 167.89,162.1 167.74,162.22 C 166.79,163.02 164.84,164.07 163.71,164.56 C 162.29,165.18 160.76,165.6 159.17,165.5 C 157.59,165.4 156.14,164.68 154.79,163.98 C 154.1,163.62 153.45,163.2 152.67,163.01 C 152.48,162.96 152.29,162.92 152.1,162.89 C 152.05,162.89 151.89,162.85 151.83,162.88 C 151.79,162.9 151.77,162.93 151.76,162.97 C 151.75,162.99 151.74,162.99 151.73,162.99 C 151.72,162.98 151.7,162.98 151.69,162.98 C 151.66,162.98 151.63,162.97 151.6,162.97 C 151.54,162.96 151.47,162.96 151.41,162.95 C 151.39,162.95 151.37,162.95 151.36,162.95 C 151.34,162.95 151.31,162.93 151.32,162.95 C 151.32,162.98 151.32,163.0 151.33,163.03 C 151.34,163.12 151.36,163.22 151.37,163.31 C 151.4,163.5 151.43,163.69 151.46,163.89 C 151.47,163.91 151.47,163.93 151.47,163.96 C 151.48,163.98 151.46,164.0 151.46,164.03 C 151.45,164.07 151.43,164.12 151.42,164.17 C 151.39,164.26 151.37,164.35 151.34,164.44 C 151.29,164.63 151.23,164.81 151.18,165.0 C 151.17,165.04 151.15,165.09 151.14,165.14 C 151.14,165.15 151.13,165.19 151.11,165.2 C 151.09,165.2 151.07,165.2 151.04,165.2 C 150.95,165.21 150.85,165.21 150.76,165.22 C 150.73,165.22 150.74,165.17 150.74,165.16 C 150.73,165.13 150.73,165.11 150.72,165.08 C 150.72,165.03 150.71,164.99 150.7,164.94 C 150.68,164.84 150.67,164.74 150.65,164.65 C 150.59,164.26 150.53,163.87 150.47,163.49 C 150.45,163.39 150.44,163.3 150.42,163.2 C 150.42,163.15 150.41,163.11 150.4,163.06 C 150.4,163.03 150.39,163.01 150.39,162.99 C 150.39,162.97 150.39,162.96 150.38,162.95 C 150.38,162.94 150.38,162.94 150.38,162.93 C 150.38,162.91 150.36,162.92 150.35,162.92 C 149.52,162.93 148.68,162.97 147.85,163.01 C 147.68,163.02 147.51,163.03 147.35,163.04 C 147.3,163.04 147.26,163.04 147.22,163.04 C 147.19,163.04 147.17,163.05 147.15,163.05 C 147.14,163.05 147.13,163.05 147.11,163.05 C 147.11,163.05 147.09,163.04 147.09,163.05 C 147.1,163.06 147.1,163.06 147.1,163.07 C 147.12,163.1 147.13,163.12 147.14,163.15 C 147.17,163.2 147.2,163.25 147.23,163.3 C 147.28,163.4 147.34,163.5 147.4,163.6 C 147.52,163.81 147.64,164.02 147.76,164.23 C 147.9,164.46 148.04,164.69 148.17,164.92 C 148.25,165.05 148.33,165.18 148.4,165.3 C 148.41,165.32 148.42,165.34 148.43,165.35 C 148.44,165.36 148.44,165.37 148.45,165.38 C 148.46,165.39 148.44,165.39 148.43,165.4 C 148.39,165.44 148.37,165.47 148.38,165.53 C 148.39,165.58 148.54,165.74 148.57,165.78 C 148.84,166.11 149.12,166.43 149.42,166.73 C 149.57,166.89 149.72,167.04 149.87,167.19 C 149.91,167.22 149.95,167.26 149.99,167.3 C 150.01,167.32 150.03,167.33 150.05,167.35 C 150.06,167.36 150.07,167.37 150.08,167.38 C 150.08,167.39 150.07,167.37 150.06,167.37 C 150.06,167.37 150.05,167.36 150.05,167.36 C 150.04,167.35 150.03,167.35 150.02,167.34 C 149.88,167.24 149.75,167.14 149.62,167.03 C 149.03,166.55 148.47,165.89 148.01,165.29 C 147.5,164.64 147.05,163.96 146.64,163.24 C 146.21,162.49 145.83,161.73 145.35,161.02 C 144.81,160.22 144.41,159.75 144.2,158.75 C 144.11,158.33 144.08,157.91 144.08,157.48 C 144.08,157.37 144.08,157.27 144.09,157.16 C 144.09,157.13 144.09,157.11 144.09,157.08 C 144.09,157.04 144.06,157.04 144.04,157.02 C 144.0,156.98 143.96,156.94 143.92,156.9 C 143.77,156.74 143.62,156.56 143.48,156.38 C 143.47,156.36 143.45,156.34 143.43,156.32 C 143.42,156.3 143.42,156.29 143.41,156.28 C 143.4,156.28 143.4,156.27 143.4,156.26 C 143.39,156.26 143.39,156.24 143.38,156.25 C 143.35,156.3 143.31,156.34 143.27,156.38 C 143.2,156.47 143.12,156.55 143.04,156.63 C 142.89,156.79 142.72,156.94 142.54,157.08 C 142.52,157.1 142.5,157.12 142.48,157.13 C 142.47,157.14 142.46,157.15 142.46,157.17 C 142.46,157.18 142.47,157.19 142.47,157.2 C 142.48,157.26 142.5,157.31 142.5,157.36 C 142.52,157.47 142.54,157.57 142.54,157.68 C 142.55,157.89 142.54,158.1 142.5,158.32 C 142.41,158.76 142.25,159.12 141.94,159.45 C 141.79,159.61 141.63,159.74 141.44,159.85 C 141.35,159.9 141.25,159.95 141.15,159.99 C 141.1,160.01 141.05,160.03 141.0,160.05 C 141.0,160.05 140.99,160.05 140.98,160.05 C 140.97,160.06 140.99,160.06 140.99,160.07 C 140.99,160.08 141.0,160.1 141.0,160.11 C 141.01,160.13 141.02,160.16 141.03,160.18 C 141.33,160.98 141.44,161.86 141.24,162.7 C 141.04,163.56 140.55,164.28 139.65,164.53 C 138.86,164.76 137.87,164.62 137.13,164.36 C 136.72,164.21 136.35,164.01 135.99,163.78 C 135.81,163.66 135.64,163.54 135.47,163.4 C 135.43,163.37 135.39,163.34 135.35,163.3 C 135.33,163.28 135.3,163.27 135.28,163.25 C 135.27,163.24 135.26,163.23 135.25,163.22 C 135.24,163.21 135.24,163.24 135.24,163.25 C 135.22,163.35 135.21,163.46 135.19,163.56 C 135.05,164.55 135.11,165.14 135.42,166.08 C 135.44,166.13 135.46,166.18 135.48,166.23 C 135.49,166.26 135.49,166.28 135.5,166.31 C 135.52,166.34 135.54,166.34 135.57,166.35 C 135.66,166.4 135.76,166.45 135.85,166.5 C 136.04,166.6 136.22,166.71 136.4,166.82 C 136.77,167.05 137.11,167.31 137.41,167.61 C 138.02,168.2 138.47,168.89 138.93,169.58 C 139.39,170.27 139.84,170.97 140.39,171.6 C 141.59,173.0 142.88,173.65 144.7,173.87 C 146.12,174.05 148.25,174.0 149.68,173.91 C 151.54,173.78 152.78,173.58 154.58,173.05 C 154.97,172.93 155.37,172.81 155.76,172.67 C 156.16,172.53 156.54,172.38 156.92,172.21 C 157.02,172.17 157.11,172.13 157.2,172.08 C 157.25,172.05 157.29,172.02 157.34,171.99 C 157.35,171.98 157.36,171.98 157.37,171.97 C 157.38,171.95 157.39,171.98 157.39,171.98 C 157.41,172.0 157.43,172.01 157.45,172.01 C 157.5,172.02 157.55,172.01 157.6,172.01 C 157.65,172.01 157.7,172.01 157.75,172.02 C 157.8,172.02 157.85,172.02 157.91,172.03 C 157.93,172.04 157.96,172.04 157.97,172.07 C 157.99,172.09 158.0,172.11 158.0,172.14 C 158.02,172.25 158.03,172.34 157.98,172.45 C 157.93,172.55 157.84,172.6 157.76,172.66 C 157.59,172.79 157.4,172.88 157.21,172.96 C 155.95,173.53 153.8,174.15 152.46,174.45 C 150.67,174.85 149.36,174.96 147.52,174.98 C 146.08,175.0 144.0,174.94 142.6,174.39 C 141.85,174.09 141.16,173.47 140.61,172.92 C 140.02,172.33 139.52,171.68 139.05,170.99 C 138.93,170.82 138.81,170.65 138.7,170.48 C 138.67,170.44 138.64,170.39 138.61,170.35 C 138.58,170.31 138.56,170.26 138.53,170.23 C 138.49,170.19 138.45,170.17 138.4,170.18 C 138.39,170.19 138.34,170.2 138.33,170.18 C 138.32,170.16 138.3,170.14 138.29,170.12 C 138.05,169.77 137.81,169.43 137.57,169.09 C 137.31,168.72 137.08,168.33 136.73,168.01 C 136.71,168.0 136.69,167.98 136.67,167.96 C 136.66,167.96 136.66,167.95 136.65,167.94 C 136.63,167.93 136.64,167.96 136.64,167.97 C 136.65,168.02 136.65,168.07 136.65,168.12 C 136.66,168.23 136.67,168.33 136.68,168.43 C 136.7,168.64 136.72,168.85 136.75,169.05 C 136.8,169.46 136.87,169.87 136.95,170.28 C 136.96,170.33 136.97,170.38 136.98,170.43 C 136.98,170.44 136.99,170.45 136.98,170.45 C 136.97,170.45 136.97,170.45 136.96,170.45 C 136.95,170.45 136.93,170.46 136.92,170.46 C 136.9,170.46 136.87,170.47 136.85,170.47 C 136.8,170.48 136.75,170.49 136.7,170.5 C 136.65,170.51 136.61,170.54 136.55,170.5 C 136.38,170.4 136.21,170.29 136.03,170.19 C 136.01,170.18 135.99,170.17 135.98,170.14 C 135.98,170.11 135.97,170.09 135.97,170.06 C 135.96,170.01 135.95,169.96 135.94,169.91 C 135.93,169.81 135.91,169.7 135.89,169.6 C 135.86,169.4 135.83,169.19 135.81,168.98 C 135.76,168.57 135.73,168.16 135.71,167.74 C 135.7,167.64 135.7,167.54 135.69,167.43 C 135.69,167.38 135.69,167.33 135.69,167.28 C 135.69,167.27 135.69,167.27 135.69,167.26 C 135.69,167.25 135.69,167.25 135.68,167.24 C 135.67,167.23 135.66,167.23 135.64,167.22 C 135.62,167.2 135.59,167.19 135.56,167.17 C 135.32,167.04 135.07,166.92 134.82,166.81 C 134.42,166.62 134.01,166.44 133.6,166.25 C 133.31,166.11 133.02,165.97 132.75,165.79 C 132.6,165.69 132.46,165.59 132.33,165.48 C 132.29,165.44 132.25,165.41 132.22,165.38 C 132.18,165.34 132.14,165.31 132.12,165.26 C 132.08,165.16 132.05,165.06 132.01,164.97 C 131.87,164.57 131.74,164.18 131.68,163.77 C 131.67,163.72 131.67,163.67 131.66,163.61 C 131.66,163.59 131.66,163.56 131.65,163.54 C 131.65,163.52 131.66,163.56 131.66,163.57 C 131.66,163.58 131.67,163.59 131.67,163.61 C 131.69,163.71 131.72,163.81 131.75,163.91 C 131.82,164.11 131.91,164.29 132.06,164.45 C 132.29,164.7 132.82,164.98 133.1,165.14 C 133.46,165.34 133.82,165.54 134.2,165.71 C 134.2,165.71 134.21,165.72 134.21,165.71 C 134.21,165.7 134.21,165.7 134.2,165.69 C 134.2,165.68 134.2,165.67 134.19,165.65 C 134.19,165.63 134.18,165.6 134.18,165.58 C 134.17,165.53 134.16,165.48 134.15,165.43 C 134.13,165.32 134.11,165.22 134.1,165.12 C 134.07,164.91 134.05,164.71 134.05,164.5 C 134.05,164.08 134.1,163.67 134.16,163.26 C 134.18,163.16 134.19,163.06 134.21,162.95 C 134.22,162.9 134.23,162.85 134.23,162.8 C 134.24,162.79 134.25,162.77 134.23,162.77 C 134.22,162.77 134.2,162.77 134.19,162.77 C 134.16,162.77 134.14,162.77 134.11,162.77 C 133.9,162.78 133.7,162.76 133.5,162.71 C 133.07,162.61 132.73,162.44 132.41,162.13 C 132.26,161.98 132.15,161.82 132.05,161.63 C 132.0,161.54 131.96,161.44 131.92,161.35 C 131.9,161.3 131.88,161.25 131.86,161.2 C 131.86,161.19 131.87,161.06 131.87,161.05 C 131.88,160.94 131.89,160.84 131.89,160.74 C 131.9,160.68 131.87,160.63 131.86,160.58 C 131.85,160.53 131.84,160.48 131.83,160.43 C 131.81,160.38 131.81,160.33 131.81,160.28 C 131.82,160.23 131.82,160.18 131.83,160.12 C 131.84,160.02 131.85,159.92 131.86,159.81 C 131.95,158.99 132.06,158.17 132.2,157.35 C 132.35,156.53 132.51,155.72 132.71,154.91 C 132.72,154.88 132.78,154.65 132.78,154.61 C 132.76,154.51 132.75,154.41 132.73,154.3 C 132.71,154.1 132.68,153.89 132.66,153.69 C 132.61,153.27 132.56,152.86 132.52,152.45 z M 159.88,159.42 C 160.27,159.65 160.68,159.78 161.13,159.87 C 161.57,159.95 162.01,160.0 162.47,160.0 C 162.52,160.0 162.58,160.0 162.63,160.0 C 162.65,160.0 162.62,160.0 162.61,160.0 C 162.61,160.01 162.6,160.01 162.59,160.01 C 162.58,160.01 162.57,160.02 162.55,160.02 C 162.53,160.03 162.5,160.04 162.47,160.04 C 162.36,160.07 162.26,160.1 162.14,160.11 C 161.92,160.15 161.7,160.17 161.48,160.17 C 161.02,160.17 160.59,160.11 160.15,160.0 C 159.2,159.76 158.56,159.3 158.01,158.49 C 157.97,158.45 157.94,158.4 157.91,158.35 C 157.9,158.34 157.9,158.33 157.89,158.32 C 157.88,158.31 157.88,158.3 157.88,158.3 C 157.88,158.3 157.87,158.29 157.87,158.29 C 157.87,158.29 157.88,158.3 157.88,158.3 C 157.9,158.32 157.92,158.34 157.94,158.36 C 158.01,158.44 158.09,158.52 158.17,158.6 C 158.33,158.76 158.49,158.91 158.66,159.05 C 158.72,159.1 159.12,159.43 159.2,159.44 C 159.26,159.45 159.32,159.44 159.37,159.44 C 159.43,159.44 159.48,159.43 159.54,159.43 C 159.65,159.43 159.76,159.42 159.88,159.42 z M 156.12,147.41 C 155.99,147.65 155.81,148.03 155.61,148.39 C 155.13,149.23 154.57,149.94 154.01,150.37 C 153.81,150.52 153.61,150.64 153.42,150.75 C 153.52,150.4 153.64,150.05 153.79,149.71 C 154.18,148.88 154.83,148.18 155.46,147.75 C 155.71,147.58 155.95,147.46 156.13,147.33 C 156.12,147.36 156.12,147.38 156.12,147.41 z M 156.2,146.84 C 156.05,146.9 155.88,146.96 155.71,147.01 C 155.13,147.16 154.6,147.13 154.2,146.88 C 154.06,146.79 153.93,146.67 153.82,146.55 C 153.99,146.46 154.17,146.36 154.35,146.3 C 154.86,146.12 155.38,146.17 155.86,146.41 C 155.99,146.48 156.12,146.57 156.23,146.64 C 156.22,146.71 156.21,146.77 156.2,146.84 z M 156.32,146.01 C 156.22,145.88 156.1,145.73 155.99,145.56 C 155.6,145.0 155.26,144.19 155.17,143.36 C 155.14,143.03 155.14,142.7 155.15,142.39 C 155.3,142.52 155.46,142.67 155.61,142.85 C 156.02,143.36 156.31,144.13 156.4,145.03 C 156.41,145.14 156.41,145.25 156.42,145.36 C 156.39,145.57 156.36,145.79 156.32,146.01 z"
		 />

		<!-- Prism Reference -->
		<cam mingh:cam="--verb EditSelectAll --verb ZoomSelection --verb FileSave " />  
	 </g>

</svg>
