<svg
   xmlns:xlink="http://www.w3.org/1999/xlink"
   xmlns:svg="http://www.w3.org/2000/svg"
   xmlns="http://www.w3.org/2000/svg"
   xmlns:mingh="http://www.minghworld.com"
   width="300px"
   height="300px" >
	
	 <g>
		
		<!-- Paths -->
		<path transform="matrix(-1 0 0 1 300 0)" style="fill:#ff0;stroke:none;"
		 d="M 149.72,122.22 C 149.29,122.25 148.85,122.33 148.44,122.5 C 146.78,123.19 145.76,124.9 145.94,126.69 C 146.12,128.47 147.46,129.94 149.22,130.28 C 149.58,130.35 149.63,130.83 149.28,130.97 L 130.13,138.5 C 129.4,138.79 129.03,139.62 129.31,140.34 C 134.1,152.53 138.87,164.72 143.66,176.91 C 143.94,177.63 144.77,178.0 145.5,177.72 C 153.63,174.53 161.75,171.32 169.88,168.13 C 170.6,167.84 170.97,167.01 170.69,166.28 L 156.34,129.75 C 156.06,129.02 155.23,128.65 154.5,128.94 C 154.3,129.01 154.1,129.08 153.91,129.16 C 153.51,129.31 153.17,128.88 153.41,128.53 C 154.4,127.04 154.3,125.07 153.16,123.69 C 152.3,122.65 151.01,122.12 149.72,122.22 z M 150.0,124.31 C 151.08,124.31 151.94,125.2 151.94,126.28 C 151.94,127.36 151.08,128.22 150.0,128.22 C 148.92,128.22 148.06,127.36 148.06,126.28 C 148.06,125.2 148.92,124.31 150.0,124.31 z" />
		
		
		<text id="txtTwo" transform="matrix(1 0 0 1 150 160)" style="stroke:none;fill:#f00;font-family:'Eras Medium ITC';font-size:20px;text-anchor:middle"  >

		</text>
		<!-- Prism Reference -->
		<cam mingh:cam=" --verb EditSelectAll --verb ZoomSelection --verb FileSave "/> 
	 </g>

</svg>