<svg
   xmlns:xlink="http://www.w3.org/1999/xlink"
   xmlns:svg="http://www.w3.org/2000/svg"
   xmlns="http://www.w3.org/2000/svg"
   xmlns:mingh="http://www.minghworld.com"
   width="300px"
   height="300px" >
	
	 <g>
		
		<!-- Paths -->
		<path style="fill:none;stroke:#000;stroke-width:0.25px;"
			d="M 165.72,122.41 C 165.17,122.42 164.66,122.61 164.25,123.03 C 160.94,126.48 157.62,129.96 154.31,133.41 C 154.21,133.51 154.05,133.46 154.03,133.31 C 153.78,131.79 152.69,130.52 151.22,130.06 C 149.74,129.61 148.13,130.04 147.06,131.16 C 145.99,132.27 145.64,133.89 146.16,135.34 C 146.67,136.8 147.97,137.81 149.5,138.0 C 149.64,138.02 149.73,138.21 149.63,138.31 C 140.98,147.33 132.33,156.35 123.69,165.38 C 122.88,166.22 122.9,167.56 123.75,168.38 C 126.75,171.26 129.75,174.15 132.75,177.03 C 133.6,177.84 134.94,177.82 135.75,176.97 C 149.27,162.86 162.79,148.73 176.31,134.63 C 177.13,133.78 177.1,132.44 176.25,131.63 C 173.25,128.74 170.25,125.85 167.25,122.97 C 166.83,122.56 166.26,122.39 165.72,122.41 z M 165.5,129.19 C 165.57,129.17 165.62,129.17 165.69,129.19 C 165.97,129.25 166.15,129.5 166.09,129.78 C 165.92,130.58 165.76,131.39 165.59,132.19 C 165.58,132.24 165.51,132.29 165.47,132.25 C 165.22,132.01 164.97,131.74 164.72,131.5 C 164.7,131.48 164.68,131.47 164.69,131.44 L 165.09,129.59 C 165.14,129.39 165.3,129.23 165.5,129.19 z M 166.56,131.38 L 170.28,132.53 C 170.55,132.61 170.71,132.89 170.63,133.16 C 170.54,133.43 170.24,133.58 169.97,133.5 C 168.75,133.12 167.56,132.75 166.34,132.38 C 166.3,132.36 166.27,132.33 166.28,132.28 C 166.34,131.99 166.41,131.7 166.47,131.41 C 166.48,131.37 166.52,131.36 166.56,131.38 z M 163.22,131.41 C 163.25,131.38 163.28,131.38 163.31,131.41 L 168.0,135.91 C 168.03,135.93 168.06,135.97 168.03,136.0 C 167.44,136.61 166.84,137.23 166.25,137.84 C 166.22,137.87 166.18,137.87 166.16,137.84 L 161.47,133.34 C 161.44,133.32 161.44,133.28 161.47,133.25 C 162.06,132.64 162.63,132.02 163.22,131.41 z M 150.0,132.0 C 151.08,132.0 151.94,132.89 151.94,133.97 C 151.94,135.05 151.08,135.91 150.0,135.91 C 148.92,135.91 148.06,135.05 148.06,133.97 C 148.06,132.89 148.92,132.0 150.0,132.0 z M 161.0,135.16 C 161.23,135.16 161.46,135.22 161.69,135.28 C 161.91,135.34 162.14,135.42 162.34,135.53 C 162.54,135.65 162.71,135.78 162.88,135.94 C 163.21,136.26 163.48,136.69 163.63,137.13 C 163.77,137.56 163.8,138.01 163.72,138.47 C 163.71,138.52 163.7,138.6 163.69,138.66 C 163.67,138.72 163.73,138.75 163.78,138.72 C 163.98,138.61 164.16,138.48 164.34,138.34 C 164.57,138.2 164.9,138.25 165.06,138.47 C 165.22,138.69 165.18,139.01 164.97,139.19 C 164.32,139.66 163.65,139.96 162.88,140.16 C 162.85,140.16 162.83,140.18 162.81,140.16 C 162.57,139.93 162.33,139.7 162.09,139.47 C 162.06,139.44 162.06,139.37 162.09,139.34 C 162.14,139.31 162.18,139.26 162.22,139.22 C 162.26,139.17 162.3,139.14 162.34,139.09 C 162.38,139.04 162.4,138.99 162.44,138.94 C 162.47,138.88 162.53,138.81 162.56,138.75 C 162.59,138.69 162.6,138.66 162.63,138.59 C 162.65,138.53 162.67,138.44 162.69,138.38 C 162.7,138.31 162.71,138.25 162.72,138.19 C 162.73,138.12 162.72,138.04 162.72,137.97 C 162.72,137.87 162.7,137.79 162.69,137.69 C 162.68,137.63 162.67,137.56 162.66,137.5 C 162.64,137.46 162.64,137.42 162.63,137.38 C 162.6,137.3 162.57,137.22 162.53,137.16 C 162.49,137.09 162.45,137.03 162.41,136.97 C 162.34,136.87 162.24,136.77 162.16,136.69 C 162.1,136.64 162.06,136.58 162.0,136.53 C 161.94,136.49 161.87,136.47 161.81,136.44 C 161.75,136.4 161.72,136.37 161.66,136.34 C 161.6,136.32 161.53,136.3 161.47,136.28 C 161.41,136.26 161.32,136.23 161.25,136.22 C 161.18,136.21 161.13,136.19 161.06,136.19 C 160.99,136.18 160.91,136.18 160.84,136.19 C 160.78,136.19 160.72,136.21 160.66,136.22 C 160.6,136.23 160.53,136.24 160.47,136.25 C 160.39,136.27 160.33,136.31 160.25,136.34 C 160.17,136.38 160.07,136.39 160.0,136.44 C 159.95,136.47 159.89,136.5 159.84,136.53 C 159.78,136.57 159.72,136.64 159.66,136.69 C 159.58,136.74 159.54,136.78 159.47,136.84 C 159.43,136.87 159.41,136.88 159.38,136.84 C 159.16,136.64 158.93,136.46 158.72,136.25 C 158.69,136.22 158.69,136.15 158.72,136.13 C 158.91,135.96 159.1,135.8 159.31,135.66 C 159.44,135.57 159.58,135.5 159.72,135.44 C 159.91,135.34 160.1,135.26 160.31,135.22 C 160.54,135.17 160.77,135.15 161.0,135.16 z M 158.0,136.88 C 158.03,136.85 158.07,136.85 158.09,136.88 C 159.66,138.37 161.22,139.88 162.78,141.38 C 162.81,141.4 162.81,141.44 162.78,141.47 C 162.19,142.08 161.62,142.7 161.03,143.31 C 161.0,143.34 160.97,143.34 160.94,143.31 L 156.22,138.81 C 156.19,138.79 156.19,138.75 156.22,138.72 C 156.81,138.11 157.41,137.49 158.0,136.88 z M 155.78,140.78 C 156.57,140.81 157.36,141.1 157.97,141.69 C 159.19,142.86 159.34,144.78 158.31,146.13 C 158.29,146.16 158.22,146.15 158.19,146.13 C 157.97,145.92 157.78,145.71 157.56,145.5 C 157.53,145.47 157.51,145.44 157.53,145.41 C 158.18,144.48 158.07,143.22 157.25,142.44 C 156.43,141.65 155.18,141.59 154.28,142.28 C 154.25,142.31 154.22,142.31 154.19,142.28 C 153.97,142.08 153.75,141.86 153.53,141.66 C 153.5,141.63 153.5,141.56 153.53,141.53 C 154.18,140.99 154.99,140.75 155.78,140.78 z M 152.91,142.31 C 152.93,142.31 152.95,142.3 152.97,142.31 C 154.5,143.78 156.03,145.25 157.56,146.72 C 157.6,146.75 157.57,146.82 157.53,146.84 C 156.23,147.73 154.51,147.59 153.38,146.5 C 152.24,145.41 152.01,143.68 152.84,142.34 C 152.86,142.32 152.89,142.32 152.91,142.31 z M 150.66,144.81 C 150.85,144.83 151.02,144.95 151.09,145.13 C 151.15,145.25 151.16,145.52 151.19,145.66 C 151.25,146.02 151.31,146.39 151.38,146.75 C 151.38,146.8 151.36,146.85 151.31,146.84 C 151.0,146.8 150.68,146.76 150.38,146.72 C 150.34,146.71 150.32,146.69 150.31,146.66 C 150.25,146.29 150.19,145.93 150.13,145.56 C 150.09,145.37 150.06,145.21 150.19,145.03 C 150.29,144.87 150.47,144.79 150.66,144.81 z M 148.03,147.28 C 149.19,147.44 150.37,147.59 151.53,147.75 C 151.57,147.76 151.59,147.78 151.59,147.81 C 151.74,148.64 151.88,149.46 152.03,150.28 C 152.04,150.33 151.99,150.38 151.94,150.38 C 149.95,150.1 147.99,149.84 146.0,149.56 C 145.94,149.55 145.9,149.48 145.94,149.44 C 146.62,148.73 147.32,148.02 148.0,147.31 C 148.02,147.29 148.01,147.28 148.03,147.28 z M 145.28,150.34 C 145.33,150.34 145.38,150.33 145.44,150.34 C 145.69,150.42 145.74,150.63 145.81,150.84 C 145.88,151.05 145.96,151.23 146.03,151.44 C 146.17,151.84 146.33,152.25 146.47,152.66 C 146.49,152.71 146.43,152.77 146.38,152.75 C 146.03,152.65 145.69,152.54 145.34,152.44 C 145.32,152.43 145.29,152.4 145.28,152.38 L 144.84,151.19 C 144.77,150.97 144.72,150.78 144.88,150.56 C 144.97,150.43 145.12,150.35 145.28,150.34 z M 151.19,151.19 C 151.2,151.17 151.23,151.18 151.25,151.19 C 151.56,151.23 151.85,151.27 152.16,151.31 C 152.19,151.32 152.21,151.34 152.22,151.38 L 152.31,151.78 C 152.34,151.92 152.35,152.04 152.34,152.19 C 152.32,152.48 152.07,152.69 151.78,152.66 C 151.63,152.64 151.53,152.59 151.44,152.47 C 151.34,152.35 151.34,152.2 151.31,152.06 C 151.26,151.79 151.21,151.52 151.16,151.25 C 151.15,151.23 151.17,151.2 151.19,151.19 z M 143.0,152.66 C 144.28,153.03 145.57,153.44 146.84,153.81 C 146.87,153.82 146.87,153.82 146.88,153.84 C 147.22,154.82 147.56,155.8 147.91,156.78 C 147.93,156.84 147.87,156.9 147.81,156.88 C 146.49,156.37 145.16,155.85 143.84,155.34 C 143.82,155.34 143.82,155.33 143.81,155.31 C 143.52,154.46 143.2,153.6 142.91,152.75 C 142.89,152.7 142.94,152.64 143.0,152.66 z M 140.5,155.09 C 140.52,155.07 140.56,155.08 140.59,155.09 C 141.87,155.57 143.13,156.05 144.41,156.53 C 144.43,156.54 144.46,156.54 144.47,156.56 C 144.79,157.5 145.11,158.44 145.44,159.38 C 145.46,159.43 145.4,159.49 145.34,159.47 C 143.17,158.65 140.99,157.82 138.81,157.0 C 138.76,156.98 138.75,156.91 138.78,156.88 C 139.35,156.28 139.93,155.69 140.5,155.09 z M 138.28,157.75 C 138.38,157.77 138.46,157.83 138.53,157.91 C 138.68,158.05 138.73,158.24 138.66,158.44 C 138.6,158.57 138.37,158.81 138.28,158.91 C 138.0,159.2 137.72,159.49 137.44,159.78 C 137.41,159.81 137.37,159.81 137.34,159.78 L 136.72,159.16 C 136.69,159.13 136.69,159.09 136.72,159.06 C 137.0,158.77 137.25,158.48 137.53,158.19 C 137.64,158.07 137.74,157.94 137.88,157.84 C 137.91,157.82 137.96,157.8 138.0,157.78 C 138.1,157.74 138.18,157.73 138.28,157.75 z M 139.47,158.81 C 139.63,158.78 139.79,158.82 139.91,158.94 C 140.07,159.09 140.1,159.33 140.0,159.53 C 139.95,159.64 139.67,159.95 139.59,160.03 C 139.3,160.34 138.99,160.66 138.69,160.97 C 138.66,161.0 138.62,161.0 138.59,160.97 C 138.38,160.76 138.15,160.55 137.94,160.34 C 137.91,160.32 137.91,160.28 137.94,160.25 C 138.24,159.94 138.55,159.62 138.84,159.31 C 138.96,159.19 139.07,159.09 139.19,158.97 C 139.2,158.96 139.21,158.95 139.22,158.94 C 139.24,158.92 139.28,158.89 139.31,158.88 C 139.36,158.85 139.42,158.82 139.47,158.81 z M 136.0,159.81 C 136.03,159.78 136.07,159.79 136.09,159.81 C 137.66,161.31 139.22,162.81 140.78,164.31 C 140.81,164.34 140.81,164.38 140.78,164.41 C 140.19,165.02 139.62,165.63 139.03,166.25 C 139.0,166.28 138.97,166.28 138.94,166.25 C 137.37,164.75 135.78,163.25 134.22,161.75 C 134.19,161.72 134.19,161.68 134.22,161.66 C 134.81,161.04 135.41,160.43 136.0,159.81 z M 142.53,161.38 C 142.64,161.39 142.76,161.45 142.84,161.53 C 143.02,161.7 143.06,161.95 142.94,162.16 C 142.88,162.25 142.54,162.58 142.47,162.66 C 142.15,162.99 141.82,163.32 141.5,163.66 C 141.47,163.68 141.43,163.68 141.41,163.66 C 141.19,163.45 140.99,163.27 140.78,163.06 C 140.75,163.04 140.72,163.0 140.75,162.97 C 141.07,162.64 141.4,162.3 141.72,161.97 C 141.85,161.83 141.99,161.67 142.13,161.53 C 142.13,161.52 142.15,161.51 142.16,161.5 C 142.18,161.48 142.2,161.48 142.22,161.47 C 142.32,161.4 142.42,161.36 142.53,161.38 z M 133.59,162.56 C 133.72,162.57 133.84,162.63 133.94,162.72 C 134.41,163.17 134.88,163.61 135.34,164.06 C 135.38,164.1 135.36,164.14 135.31,164.16 C 134.99,164.25 134.67,164.37 134.34,164.47 C 134.32,164.48 134.27,164.46 134.25,164.44 L 133.72,163.91 C 133.63,163.82 133.53,163.74 133.44,163.66 C 133.35,163.57 133.23,163.48 133.16,163.38 C 133.0,163.16 133.05,162.86 133.25,162.69 C 133.35,162.6 133.47,162.56 133.59,162.56 z M 136.03,164.75 C 136.06,164.74 136.07,164.76 136.09,164.78 L 138.28,166.88 C 138.32,166.91 138.3,166.95 138.25,166.97 C 135.99,167.7 133.73,168.46 131.47,169.19 C 131.44,169.2 131.43,169.18 131.41,169.16 L 129.22,167.06 C 129.18,167.03 129.17,166.95 129.22,166.94 C 131.48,166.21 133.77,165.48 136.03,164.75 z M 133.16,169.47 C 133.18,169.46 133.2,169.48 133.22,169.5 C 133.52,169.79 133.82,170.06 134.13,170.34 C 134.28,170.49 134.42,170.62 134.41,170.88 C 134.4,171.09 134.27,171.28 134.06,171.34 C 133.93,171.39 133.82,171.37 133.69,171.31 C 133.61,171.28 133.56,171.24 133.5,171.19 C 133.35,171.04 133.18,170.89 133.03,170.75 C 132.73,170.46 132.46,170.16 132.16,169.88 C 132.12,169.84 132.1,169.77 132.16,169.75 C 132.48,169.65 132.83,169.57 133.16,169.47 z"
		 />
		 <path style="fill:#f00;stroke:none;"
			d="M 163.81,125.19 C 163.61,125.25 163.55,125.82 163.38,126.0 C 159.21,130.34 155.04,134.69 150.88,139.03 C 142.55,147.72 134.23,156.41 125.91,165.09 C 126.47,165.5 126.81,166.15 126.81,166.84 C 126.81,167.2 126.75,167.52 126.59,167.84 C 126.51,168.0 126.39,168.12 126.28,168.25 C 126.23,168.31 126.19,168.38 126.13,168.44 C 126.09,168.47 126.06,168.5 126.03,168.53 C 125.8,168.72 126.2,168.77 126.31,168.88 L 129.28,171.72 L 132.25,174.59 C 132.31,174.65 132.38,174.69 132.44,174.75 C 132.44,174.75 132.47,174.75 132.47,174.75 C 132.47,174.74 132.49,174.76 132.5,174.75 C 132.53,174.72 132.57,174.66 132.59,174.63 C 132.65,174.56 132.69,174.53 132.75,174.47 C 132.88,174.35 133.03,174.24 133.19,174.16 C 133.5,173.98 133.8,173.89 134.16,173.88 C 134.51,173.86 134.83,173.94 135.16,174.09 C 135.32,174.17 135.46,174.23 135.59,174.34 C 135.66,174.4 135.72,174.47 135.78,174.53 C 135.81,174.56 135.85,174.59 135.88,174.63 C 135.89,174.64 135.89,174.64 135.91,174.66 C 136.33,175.16 136.4,174.24 136.63,174.0 C 140.79,169.66 144.96,165.31 149.13,160.97 C 157.45,152.28 165.77,143.59 174.09,134.91 C 174.1,134.9 174.07,134.91 174.06,134.91 C 174.06,134.9 174.07,134.88 174.06,134.88 C 174.05,134.87 174.04,134.88 174.03,134.88 C 174.01,134.86 173.96,134.83 173.94,134.81 C 173.89,134.77 173.86,134.73 173.81,134.69 C 173.73,134.6 173.66,134.51 173.59,134.41 C 173.45,134.2 173.35,133.96 173.28,133.72 C 173.15,133.25 173.16,132.76 173.34,132.31 C 173.44,132.08 173.58,131.87 173.75,131.69 C 173.83,131.6 173.91,131.51 174.0,131.44 C 174.03,131.42 173.98,131.42 173.97,131.41 L 173.88,131.28 C 173.8,131.21 173.73,131.16 173.66,131.09 C 173.58,131.02 173.49,130.92 173.41,130.84 C 173.3,130.74 173.2,130.66 173.09,130.56 C 172.26,129.77 171.45,128.95 170.63,128.16 C 169.8,127.36 168.95,126.58 168.13,125.78 C 168.02,125.68 167.92,125.6 167.81,125.5 C 167.76,125.45 167.71,125.39 167.66,125.34 C 167.63,125.32 167.62,125.27 167.59,125.25 C 167.58,125.24 167.54,125.23 167.53,125.22 C 167.46,125.32 167.37,125.42 167.28,125.5 C 167.1,125.68 166.92,125.8 166.69,125.91 C 166.24,126.11 165.73,126.18 165.25,126.06 C 165.0,126.0 164.81,125.92 164.59,125.78 C 164.49,125.71 164.37,125.65 164.28,125.56 C 164.24,125.52 164.2,125.48 164.16,125.44 C 164.14,125.42 164.11,125.37 164.09,125.34 C 164.08,125.33 164.1,125.32 164.09,125.31 C 163.99,125.18 163.88,125.17 163.81,125.19 z M 167.41,127.13 C 167.42,127.12 167.46,127.13 167.47,127.13 C 167.49,127.11 167.49,127.14 167.5,127.16 C 167.53,127.18 167.54,127.19 167.56,127.22 C 167.66,127.32 167.77,127.4 167.88,127.5 C 168.08,127.69 168.27,127.9 168.47,128.09 C 168.87,128.48 169.28,128.86 169.69,129.25 C 170.5,130.03 171.32,130.82 172.13,131.59 C 172.13,131.6 172.13,131.62 172.13,131.63 C 172.12,131.63 172.1,131.65 172.09,131.66 C 172.08,131.68 172.07,131.67 172.06,131.69 C 172.05,131.73 172.05,131.77 172.03,131.81 C 172.0,131.89 171.96,131.98 171.94,132.06 C 171.88,132.23 171.84,132.42 171.81,132.59 C 171.75,132.95 171.76,133.29 171.81,133.66 C 171.86,134.01 171.94,134.33 172.09,134.66 C 172.11,134.7 172.14,134.74 172.16,134.78 C 172.17,134.81 172.22,134.84 172.19,134.88 C 172.16,134.9 172.12,134.91 172.09,134.94 C 172.04,134.99 171.99,135.04 171.94,135.09 L 170.69,136.41 C 169.85,137.28 169.03,138.16 168.19,139.03 C 166.51,140.78 164.83,142.53 163.16,144.28 C 159.36,148.24 155.55,152.2 151.75,156.16 C 147.95,160.12 144.17,164.07 140.38,168.03 C 139.38,169.07 138.37,170.12 137.38,171.16 C 136.88,171.68 136.37,172.2 135.88,172.72 C 135.86,172.74 135.86,172.77 135.84,172.78 C 135.83,172.8 135.82,172.83 135.78,172.81 C 135.69,172.77 135.6,172.72 135.5,172.69 C 135.3,172.61 135.08,172.57 134.88,172.53 C 134.44,172.45 134.06,172.42 133.63,172.5 C 133.42,172.54 133.2,172.61 133.0,172.69 C 132.9,172.72 132.81,172.74 132.72,172.78 C 132.67,172.8 132.64,172.85 132.59,172.88 C 132.58,172.88 132.57,172.87 132.56,172.88 C 132.54,172.89 132.51,172.89 132.5,172.88 C 132.48,172.85 132.46,172.83 132.44,172.81 C 132.35,172.73 132.28,172.62 132.19,172.53 C 130.75,171.16 129.31,169.78 127.88,168.41 C 128.17,167.79 128.3,167.12 128.22,166.44 C 128.18,166.1 128.07,165.79 127.94,165.47 C 127.91,165.39 127.88,165.29 127.84,165.22 C 127.83,165.2 127.82,165.21 127.81,165.19 C 127.81,165.18 127.81,165.16 127.81,165.16 C 127.82,165.15 127.83,165.13 127.84,165.13 C 127.86,165.11 127.86,165.08 127.88,165.06 C 128.02,164.91 128.17,164.77 128.31,164.63 C 128.88,164.03 129.46,163.44 130.03,162.84 L 136.84,155.72 C 140.64,151.76 144.45,147.8 148.25,143.84 C 152.05,139.88 155.83,135.93 159.63,131.97 C 161.0,130.53 162.37,129.09 163.75,127.66 C 163.84,127.57 163.91,127.46 164.0,127.38 C 164.04,127.33 164.11,127.29 164.16,127.25 C 164.17,127.24 164.18,127.23 164.19,127.22 C 164.19,127.21 164.21,127.18 164.22,127.19 C 164.23,127.19 164.24,127.18 164.25,127.19 C 164.27,127.2 164.29,127.21 164.31,127.22 C 164.36,127.24 164.39,127.26 164.44,127.28 C 164.63,127.36 164.83,127.43 165.03,127.47 C 165.45,127.56 165.83,127.56 166.25,127.5 C 166.66,127.44 167.04,127.32 167.41,127.13 z"
		 />

		<!-- Prism Reference -->
		<cam mingh:cam="--verb EditSelectAll --verb ZoomSelection --verb FileSave " /> 
	 </g>

</svg>
