<svg
   xmlns:xlink="http://www.w3.org/1999/xlink"
   xmlns:svg="http://www.w3.org/2000/svg"
   xmlns="http://www.w3.org/2000/svg"
   xmlns:mingh="http://www.minghworld.com"
   width="300px"
   height="300px" >
	
	 <g>
		
		<!-- Paths -->
		<path transform="matrix(-1 0 0 1 300 0)" style="fill:#ff0;stroke:none;"
		 d="M 145.19,124.88 C 143.84,124.85 142.54,125.52 141.75,126.69 C 140.7,128.25 140.86,130.3 142.13,131.69 C 142.26,131.83 142.13,132.06 141.94,132.03 C 141.77,132.01 141.6,132.0 141.44,132.0 C 141.18,131.99 140.93,132.0 140.66,132.03 C 140.44,132.05 140.21,132.08 140.03,132.19 C 139.92,132.25 139.84,132.34 139.78,132.47 C 139.78,132.47 139.78,132.5 139.78,132.5 C 139.75,132.58 139.71,132.59 139.63,132.59 C 139.37,132.6 139.1,132.61 138.84,132.63 C 138.57,132.64 138.3,132.67 138.03,132.69 C 137.95,132.69 137.87,132.64 137.84,132.56 C 137.83,132.52 137.83,132.47 137.81,132.44 C 137.74,132.32 137.61,132.25 137.47,132.19 C 137.32,132.13 137.16,132.09 137.0,132.06 C 136.74,132.02 136.5,132.01 136.25,132.0 C 135.94,131.99 135.61,132.0 135.28,132.03 C 135.03,132.05 134.78,132.08 134.56,132.19 C 134.43,132.25 134.29,132.34 134.22,132.47 C 134.19,132.52 134.17,132.57 134.16,132.63 C 134.15,132.65 134.13,132.69 134.13,132.72 C 134.11,132.79 134.07,132.82 134.0,132.84 C 133.94,132.86 133.9,132.89 133.84,132.91 C 133.44,133.06 133.11,133.35 132.91,133.72 C 132.63,134.22 132.59,134.84 132.53,135.47 C 132.43,136.69 132.32,137.96 132.25,139.28 C 132.11,141.85 132.03,144.58 132.09,147.44 C 132.15,149.63 132.27,151.92 132.56,154.16 C 132.58,154.31 132.6,154.44 132.63,154.59 C 132.63,154.61 132.63,154.64 132.63,154.66 C 132.54,154.98 132.48,155.3 132.41,155.63 C 132.13,156.88 131.9,158.16 131.75,159.44 C 131.63,160.5 131.54,161.56 131.5,162.53 C 131.48,162.73 131.5,162.92 131.5,163.13 C 131.5,163.32 131.51,163.55 131.53,163.75 C 131.58,164.16 131.71,164.55 131.84,164.94 C 131.89,165.06 131.93,165.16 131.97,165.28 C 132.26,166.06 132.54,166.82 132.72,167.63 C 132.77,167.87 132.84,168.13 132.88,168.38 C 132.88,168.43 132.89,168.47 132.94,168.5 C 134.12,169.21 135.32,169.91 136.5,170.63 C 136.54,170.65 136.58,170.66 136.63,170.66 C 137.19,170.55 137.75,170.45 138.31,170.34 C 138.38,170.33 138.46,170.35 138.5,170.41 C 138.72,170.73 138.93,171.08 139.16,171.41 C 139.38,171.72 139.6,172.02 139.84,172.31 C 140.12,172.64 140.45,172.96 140.75,173.25 C 141.1,173.58 141.42,173.85 141.78,174.09 C 141.96,174.22 142.16,174.34 142.38,174.44 C 142.6,174.54 142.86,174.64 143.13,174.72 C 143.64,174.86 144.16,174.94 144.69,175.0 C 144.95,175.03 145.2,175.04 145.47,175.06 C 145.75,175.08 146.03,175.12 146.31,175.13 C 146.87,175.14 147.41,175.14 147.97,175.13 C 148.18,175.12 148.42,175.1 148.63,175.09 C 149.43,175.07 150.23,175.0 151.03,174.88 C 152.27,174.68 153.49,174.37 154.72,174.0 C 155.62,173.73 156.54,173.42 157.31,173.06 C 157.52,172.97 157.7,172.88 157.91,172.72 C 157.97,172.67 158.05,172.6 158.09,172.53 C 158.14,172.45 158.16,172.35 158.16,172.25 C 158.16,172.14 158.14,172.03 158.09,171.97 C 158.06,171.93 158.02,171.92 157.97,171.91 C 157.9,171.89 157.82,171.88 157.72,171.88 C 157.69,171.87 157.67,171.87 157.63,171.88 C 157.55,171.88 157.46,171.82 157.44,171.75 C 157.34,171.51 157.13,171.08 156.97,170.78 C 156.88,170.62 156.82,170.49 156.72,170.38 C 156.59,170.22 156.39,170.07 156.19,169.97 C 156.02,169.88 155.84,169.81 155.66,169.75 C 155.19,169.61 154.7,169.49 154.22,169.38 C 153.66,169.24 153.12,169.12 152.59,168.91 C 151.97,168.65 151.41,168.29 150.88,167.88 C 150.26,167.4 149.71,166.85 149.19,166.28 C 149.04,166.12 148.89,165.95 148.75,165.78 C 148.66,165.67 148.73,165.48 148.88,165.47 C 149.62,165.42 150.35,165.39 151.09,165.34 C 151.17,165.34 151.26,165.29 151.28,165.22 C 151.48,164.53 151.65,163.84 151.84,163.16 C 151.87,163.07 151.97,163.02 152.06,163.03 C 152.44,163.09 152.74,163.15 153.03,163.25 C 153.41,163.38 153.74,163.56 154.09,163.75 C 154.68,164.06 155.31,164.41 155.97,164.72 C 156.89,165.15 157.83,165.52 158.91,165.63 C 159.54,165.69 160.24,165.66 160.91,165.56 C 162.38,165.34 163.75,164.75 165.06,164.06 C 165.76,163.7 166.45,163.31 167.06,162.91 C 167.5,162.62 167.9,162.33 168.25,161.97 C 168.36,161.86 168.46,161.73 168.5,161.56 C 168.53,161.42 168.49,161.24 168.44,161.09 C 168.39,160.95 168.32,160.83 168.22,160.75 C 168.18,160.72 168.16,160.71 168.16,160.66 C 168.14,160.48 168.11,160.31 168.06,160.19 C 168.0,160.03 167.92,159.94 167.81,159.88 C 167.61,159.75 167.32,159.66 167.03,159.59 C 166.49,159.47 165.98,159.44 165.47,159.41 C 165.17,159.39 164.87,159.36 164.56,159.34 C 163.9,159.31 163.2,159.3 162.5,159.28 C 161.82,159.26 161.14,159.24 160.47,159.25 C 160.08,159.26 159.67,159.29 159.28,159.31 C 159.24,159.31 159.22,159.3 159.19,159.28 C 158.95,159.12 158.71,158.91 158.5,158.72 C 157.78,158.06 157.15,157.27 156.72,156.38 C 156.33,155.57 156.13,154.69 156.0,153.81 C 155.78,152.3 155.83,150.79 156.0,149.28 C 156.01,149.19 156.02,149.09 156.03,149.0 C 156.24,147.25 156.58,145.54 156.78,143.78 C 156.94,142.43 157.03,141.04 156.97,139.69 C 156.97,139.62 156.94,139.57 156.94,139.5 C 156.8,135.9 156.52,135.18 155.97,134.59 C 155.79,134.4 155.6,134.23 155.25,134.03 C 154.9,133.84 154.4,133.63 153.94,133.47 C 153.1,133.17 152.35,133.02 151.56,132.94 L 151.5,132.94 C 151.41,132.93 151.35,132.87 151.34,132.78 C 151.33,132.64 151.33,132.54 151.31,132.53 C 151.24,132.42 151.07,132.38 150.94,132.34 C 150.83,132.32 150.72,132.29 150.63,132.28 C 150.42,132.25 150.24,132.25 150.0,132.25 C 149.66,132.25 149.22,132.27 148.88,132.31 C 148.69,132.34 148.53,132.36 148.38,132.41 C 148.32,132.42 148.29,132.46 148.22,132.5 C 148.21,132.5 148.19,132.5 148.19,132.5 C 148.17,132.51 148.16,132.52 148.16,132.53 C 148.16,132.53 148.16,132.56 148.16,132.56 C 148.13,132.62 148.11,132.76 148.09,132.94 C 148.08,133.01 148.04,133.08 147.97,133.09 C 147.94,133.1 147.9,133.09 147.88,133.09 C 147.32,133.2 146.78,133.36 146.25,133.56 C 146.12,133.61 145.97,133.69 145.84,133.75 C 145.63,133.85 145.38,133.73 145.31,133.5 C 145.25,133.27 145.39,133.03 145.63,133.0 C 147.49,132.77 148.97,131.27 149.19,129.41 C 149.4,127.54 148.29,125.78 146.53,125.13 C 146.09,124.96 145.64,124.88 145.19,124.88 z M 145.13,127.0 C 145.38,127.0 145.64,127.06 145.88,127.16 C 146.11,127.25 146.32,127.38 146.5,127.56 C 146.68,127.74 146.84,127.98 146.94,128.22 C 147.04,128.45 147.06,128.68 147.06,128.94 C 147.06,129.19 147.04,129.45 146.94,129.69 C 146.84,129.92 146.68,130.13 146.5,130.31 C 146.32,130.49 146.11,130.65 145.88,130.75 C 145.64,130.85 145.38,130.91 145.13,130.91 C 144.87,130.91 144.61,130.85 144.38,130.75 C 144.14,130.65 143.93,130.49 143.75,130.31 C 143.57,130.13 143.41,129.92 143.31,129.69 C 143.21,129.45 143.19,129.19 143.19,128.94 C 143.19,128.68 143.21,128.45 143.31,128.22 C 143.41,127.98 143.57,127.74 143.75,127.56 C 143.93,127.38 144.14,127.25 144.38,127.16 C 144.61,127.06 144.87,127.0 145.13,127.0 z" />
		
		
		<text id="txtTwo" transform="matrix(1 0 0 1 150 160)" style="stroke:none;fill:#f00;font-family:'Eras Medium ITC';font-size:20px;text-anchor:middle"  >

		</text>
		<!-- Prism Reference -->
			<cam mingh:cam="--verb EditSelectAll --verb ZoomSelection --verb FileSave"/> 
	 </g>

</svg>