<svg
   xmlns:xlink="http://www.w3.org/1999/xlink"
   xmlns:svg="http://www.w3.org/2000/svg"
   xmlns="http://www.w3.org/2000/svg"
   xmlns:mingh="http://www.minghworld.com"
   width="300px"
   height="300px" >
	
	 <g>
		
		<!-- Paths -->
		<path style="fill:none;stroke:#000;stroke-width:0.25px;"
		 d="M 150.0,128.31 C 148.18,128.31 146.56,129.52 146.06,131.28 C 145.57,133.04 146.32,134.92 147.88,135.88 C 148.1,136.02 148.02,136.37 147.75,136.41 C 138.48,137.59 131.72,145.76 132.31,155.09 C 132.9,164.42 140.65,171.69 150.0,171.69 C 159.35,171.69 167.1,164.42 167.69,155.09 C 168.28,145.76 161.52,137.59 152.25,136.41 C 151.98,136.37 151.9,136.02 152.13,135.88 C 153.68,134.92 154.43,133.04 153.94,131.28 C 153.44,129.52 151.82,128.31 150.0,128.31 z M 150.0,130.44 C 151.08,130.44 151.94,131.33 151.94,132.41 C 151.94,133.48 151.08,134.34 150.0,134.34 C 148.92,134.34 148.06,133.48 148.06,132.41 C 148.06,131.33 148.92,130.44 150.0,130.44 z"
		 />
		 <path style="fill:#f00;stroke:none;"
		 d="M 152.1,136.5 C 152.19,136.54 152.53,136.57 152.62,136.59 C 152.64,136.59 152.66,136.59 152.68,136.6 C 152.7,136.6 152.73,136.59 152.72,136.62 C 152.71,136.66 152.7,136.7 152.69,136.74 C 152.67,136.82 152.65,136.91 152.63,136.99 C 152.54,137.31 152.45,137.63 152.35,137.95 C 152.35,137.96 152.34,137.97 152.34,137.98 C 152.34,137.99 152.33,137.97 152.33,137.97 C 152.32,137.96 152.31,137.95 152.3,137.94 C 152.29,137.92 152.27,137.9 152.25,137.88 C 152.22,137.84 152.19,137.8 152.16,137.76 C 152.09,137.68 152.03,137.6 151.96,137.52 C 151.83,137.36 151.7,137.2 151.57,137.04 C 151.44,136.88 151.31,136.72 151.18,136.55 C 151.12,136.47 151.05,136.39 150.99,136.31 C 150.95,136.27 150.91,136.21 150.86,136.18 C 150.78,136.13 150.67,136.13 150.59,136.19 C 150.51,136.24 150.48,136.34 150.5,136.43 C 150.51,136.5 150.56,136.55 150.6,136.6 C 150.67,136.68 150.73,136.76 150.8,136.84 C 150.93,137.0 151.06,137.16 151.19,137.33 C 151.45,137.65 151.71,137.97 151.97,138.29 C 152.03,138.37 152.1,138.45 152.16,138.53 C 152.17,138.54 152.16,138.55 152.16,138.56 C 152.15,138.57 152.15,138.58 152.15,138.59 C 152.14,138.61 152.13,138.63 152.13,138.65 C 152.11,138.69 152.1,138.73 152.09,138.77 C 152.06,138.85 152.03,138.92 152.0,139.0 C 151.89,139.32 151.78,139.63 151.65,139.94 C 151.65,139.96 151.64,139.98 151.63,140.0 C 151.63,140.01 151.62,140.02 151.62,140.03 C 151.62,140.04 151.61,140.02 151.61,140.02 C 151.59,140.0 151.58,139.98 151.57,139.96 C 151.54,139.91 151.51,139.87 151.48,139.83 C 151.42,139.74 151.36,139.66 151.3,139.57 C 151.18,139.4 151.07,139.23 150.95,139.06 C 150.83,138.89 150.72,138.72 150.6,138.55 C 150.54,138.47 150.48,138.38 150.42,138.29 C 150.39,138.25 150.37,138.21 150.33,138.16 C 150.27,138.09 150.17,138.05 150.08,138.08 C 149.99,138.1 149.92,138.18 149.91,138.27 C 149.89,138.36 149.93,138.42 149.97,138.49 C 150.03,138.57 150.09,138.66 150.15,138.74 C 150.27,138.91 150.38,139.08 150.5,139.26 C 150.74,139.6 150.97,139.94 151.2,140.28 C 151.26,140.36 151.32,140.45 151.38,140.53 C 151.39,140.54 151.39,140.55 151.4,140.56 C 151.41,140.58 151.4,140.58 151.39,140.59 C 151.39,140.6 151.38,140.61 151.38,140.62 C 151.36,140.66 151.35,140.7 151.33,140.74 C 151.3,140.81 151.26,140.89 151.23,140.97 C 151.1,141.27 150.96,141.58 150.81,141.88 C 150.79,141.92 150.77,141.95 150.76,141.99 C 150.75,142.0 150.75,142.01 150.74,142.02 C 150.74,142.03 150.74,142.01 150.73,142.01 C 150.73,141.99 150.72,141.98 150.71,141.97 C 150.69,141.93 150.66,141.88 150.64,141.84 C 150.58,141.75 150.53,141.66 150.48,141.57 C 150.38,141.39 150.27,141.21 150.17,141.03 C 150.07,140.85 149.96,140.67 149.86,140.5 C 149.81,140.41 149.76,140.32 149.71,140.23 C 149.64,140.12 149.59,139.97 149.43,139.95 C 149.22,139.92 149.1,140.14 149.2,140.32 C 149.26,140.41 149.31,140.5 149.36,140.59 C 149.46,140.77 149.57,140.94 149.67,141.12 C 149.88,141.48 150.08,141.84 150.29,142.2 C 150.34,142.29 150.39,142.38 150.44,142.47 C 150.46,142.49 150.47,142.51 150.48,142.53 C 150.49,142.55 150.48,142.55 150.47,142.56 C 150.47,142.57 150.46,142.58 150.46,142.59 C 150.45,142.61 150.44,142.63 150.43,142.64 C 150.39,142.72 150.35,142.79 150.31,142.87 C 150.15,143.16 149.99,143.45 149.82,143.74 C 149.8,143.78 149.78,143.82 149.76,143.86 C 149.75,143.87 149.74,143.89 149.72,143.91 C 149.72,143.92 149.72,143.94 149.71,143.93 C 149.71,143.92 149.7,143.92 149.7,143.91 C 149.68,143.86 149.65,143.82 149.63,143.77 C 149.59,143.67 149.54,143.58 149.49,143.48 C 149.4,143.29 149.31,143.09 149.22,142.9 C 149.13,142.71 149.03,142.52 148.94,142.32 C 148.9,142.23 148.85,142.13 148.8,142.03 C 148.78,141.99 148.76,141.94 148.73,141.89 C 148.69,141.8 148.59,141.75 148.49,141.76 C 148.39,141.77 148.31,141.84 148.29,141.94 C 148.27,142.03 148.3,142.09 148.33,142.16 C 148.38,142.26 148.42,142.35 148.47,142.45 C 148.56,142.64 148.65,142.84 148.75,143.03 C 148.93,143.41 149.11,143.8 149.3,144.18 C 149.32,144.23 149.34,144.28 149.37,144.33 C 149.38,144.35 149.39,144.38 149.4,144.4 C 149.42,144.45 149.39,144.47 149.37,144.5 C 149.28,144.64 149.18,144.79 149.09,144.93 C 149.0,145.08 148.9,145.22 148.8,145.37 C 148.76,145.44 148.71,145.51 148.66,145.58 C 148.63,145.62 148.61,145.65 148.58,145.69 C 148.57,145.7 148.56,145.72 148.55,145.74 C 148.54,145.75 148.54,145.77 148.53,145.75 C 148.53,145.75 148.53,145.74 148.52,145.74 C 148.37,145.34 148.22,144.94 148.06,144.54 C 147.99,144.34 147.91,144.14 147.84,143.94 C 147.8,143.84 147.76,143.74 147.72,143.64 C 147.63,143.44 147.34,143.45 147.27,143.66 C 147.23,143.78 147.32,143.94 147.36,144.04 C 147.39,144.14 147.43,144.23 147.47,144.33 C 147.55,144.53 147.62,144.73 147.7,144.93 C 147.85,145.33 148.01,145.73 148.16,146.13 C 148.17,146.15 148.18,146.18 148.19,146.2 C 148.21,146.25 148.17,146.27 148.15,146.3 C 148.09,146.37 148.04,146.44 147.99,146.5 C 147.89,146.64 147.78,146.78 147.68,146.92 C 147.57,147.05 147.46,147.19 147.35,147.32 C 147.32,147.35 147.3,147.39 147.27,147.42 C 147.26,147.44 147.24,147.45 147.23,147.47 C 147.22,147.48 147.22,147.49 147.21,147.48 C 147.21,147.47 147.21,147.47 147.21,147.46 C 147.19,147.41 147.18,147.36 147.16,147.31 C 147.04,146.9 146.92,146.49 146.8,146.08 C 146.74,145.88 146.68,145.67 146.62,145.47 C 146.6,145.41 146.59,145.36 146.57,145.31 C 146.53,145.21 146.44,145.15 146.34,145.15 C 146.25,145.15 146.16,145.21 146.12,145.3 C 146.09,145.38 146.11,145.45 146.13,145.52 C 146.25,145.93 146.38,146.34 146.5,146.75 C 146.56,146.96 146.62,147.16 146.68,147.37 C 146.71,147.47 146.74,147.57 146.77,147.67 C 146.78,147.72 146.8,147.78 146.81,147.83 C 146.82,147.85 146.83,147.88 146.84,147.9 C 146.84,147.92 146.84,147.93 146.83,147.95 C 146.81,147.96 146.8,147.98 146.79,147.99 C 146.56,148.26 146.33,148.51 146.09,148.76 C 146.03,148.83 145.97,148.89 145.91,148.95 C 145.88,148.98 145.85,149.02 145.82,149.05 C 145.81,149.06 145.79,149.08 145.78,149.09 C 145.77,149.1 145.77,149.11 145.76,149.1 C 145.76,149.09 145.76,149.08 145.76,149.08 C 145.74,148.97 145.72,148.87 145.69,148.76 C 145.6,148.35 145.52,147.93 145.43,147.51 C 145.38,147.31 145.34,147.1 145.3,146.89 C 145.25,146.68 144.97,146.64 144.86,146.82 C 144.79,146.94 144.85,147.11 144.87,147.21 C 144.96,147.62 145.05,148.03 145.13,148.44 C 145.18,148.65 145.22,148.86 145.27,149.06 C 145.29,149.17 145.31,149.27 145.33,149.37 C 145.34,149.4 145.34,149.42 145.35,149.45 C 145.35,149.48 145.38,149.5 145.35,149.53 C 145.29,149.59 145.23,149.65 145.16,149.71 C 144.92,149.95 144.67,150.18 144.42,150.41 C 144.35,150.47 144.29,150.52 144.23,150.58 C 144.22,150.59 144.2,150.62 144.19,150.59 C 144.19,150.58 144.19,150.57 144.19,150.55 C 144.19,150.53 144.18,150.5 144.18,150.47 C 144.16,150.37 144.15,150.27 144.14,150.16 C 144.08,149.74 144.03,149.33 143.97,148.91 C 143.96,148.8 143.94,148.7 143.93,148.59 C 143.92,148.5 143.91,148.31 143.83,148.23 C 143.68,148.08 143.42,148.19 143.42,148.4 C 143.42,148.51 143.45,148.62 143.46,148.73 C 143.52,149.14 143.57,149.56 143.63,149.98 C 143.66,150.19 143.68,150.4 143.71,150.61 C 143.72,150.71 143.74,150.82 143.75,150.92 C 143.75,150.93 143.76,150.95 143.76,150.96 C 143.76,150.98 143.75,150.99 143.74,151.0 C 143.71,151.03 143.67,151.06 143.64,151.08 C 143.58,151.14 143.51,151.19 143.44,151.25 C 143.18,151.46 142.91,151.67 142.64,151.88 C 142.61,151.91 142.57,151.93 142.54,151.96 C 142.53,151.96 142.52,151.97 142.51,151.98 C 142.5,151.98 142.51,151.97 142.51,151.96 C 142.51,151.95 142.51,151.93 142.51,151.92 C 142.5,151.87 142.5,151.82 142.5,151.76 C 142.49,151.66 142.49,151.55 142.48,151.45 C 142.46,151.03 142.44,150.6 142.42,150.18 C 142.41,150.08 142.41,149.97 142.4,149.87 C 142.4,149.81 142.4,149.76 142.39,149.7 C 142.38,149.6 142.3,149.52 142.21,149.5 C 142.11,149.48 142.01,149.52 141.96,149.6 C 141.91,149.67 141.91,149.74 141.92,149.81 C 141.92,149.92 141.93,150.03 141.93,150.13 C 141.95,150.55 141.98,150.97 142.0,151.39 C 142.01,151.6 142.02,151.81 142.03,152.03 C 142.03,152.08 142.04,152.13 142.04,152.18 C 142.04,152.21 142.04,152.24 142.04,152.26 C 142.04,152.28 142.04,152.29 142.05,152.3 C 142.05,152.32 142.03,152.33 142.02,152.34 C 141.88,152.44 141.74,152.54 141.6,152.63 C 141.32,152.83 141.03,153.02 140.75,153.2 C 140.74,153.2 140.72,153.23 140.72,153.21 C 140.72,153.2 140.72,153.2 140.72,153.19 C 140.72,153.18 140.72,153.16 140.72,153.15 C 140.73,153.13 140.73,153.1 140.73,153.07 C 140.73,153.02 140.73,152.97 140.73,152.91 C 140.73,152.81 140.74,152.7 140.74,152.6 C 140.75,152.18 140.76,151.76 140.77,151.33 C 140.77,151.23 140.78,151.12 140.78,151.02 C 140.78,150.94 140.78,150.87 140.73,150.8 C 140.66,150.72 140.56,150.69 140.47,150.72 C 140.38,150.75 140.31,150.83 140.3,150.93 C 140.3,150.99 140.3,151.04 140.3,151.09 C 140.29,151.2 140.29,151.31 140.29,151.41 C 140.28,151.84 140.27,152.27 140.26,152.7 C 140.25,152.91 140.24,153.12 140.24,153.34 C 140.24,153.39 140.24,153.45 140.23,153.5 C 140.23,153.52 140.22,153.53 140.2,153.54 C 140.19,153.55 140.17,153.56 140.15,153.57 C 140.11,153.59 140.07,153.61 140.04,153.64 C 139.89,153.72 139.74,153.81 139.59,153.9 C 139.44,153.98 139.28,154.07 139.13,154.15 C 139.06,154.19 138.98,154.23 138.9,154.28 C 138.88,154.29 138.86,154.3 138.85,154.31 C 138.83,154.31 138.85,154.29 138.85,154.29 C 138.85,154.28 138.85,154.27 138.85,154.27 C 138.85,154.24 138.85,154.21 138.86,154.19 C 138.88,153.97 138.9,153.76 138.92,153.55 C 138.97,153.12 139.01,152.7 139.06,152.27 C 139.07,152.16 139.12,151.98 139.02,151.88 C 138.87,151.71 138.62,151.81 138.6,152.02 C 138.58,152.24 138.56,152.45 138.53,152.66 C 138.49,153.09 138.44,153.51 138.4,153.94 C 138.39,154.05 138.38,154.15 138.37,154.26 C 138.36,154.31 138.35,154.37 138.35,154.42 C 138.35,154.45 138.34,154.47 138.34,154.5 C 138.34,154.51 138.34,154.57 138.32,154.58 C 138.01,154.73 137.7,154.88 137.38,155.03 C 137.22,155.1 137.07,155.17 136.91,155.24 C 136.9,155.24 136.89,155.25 136.89,155.24 C 136.89,155.23 136.89,155.23 136.89,155.22 C 136.89,155.21 136.9,155.19 136.9,155.18 C 136.9,155.16 136.91,155.13 136.91,155.1 C 136.92,155.05 136.93,155.0 136.94,154.94 C 136.98,154.73 137.02,154.52 137.06,154.31 C 137.14,153.89 137.22,153.47 137.29,153.05 C 137.33,152.84 137.15,152.67 136.95,152.77 C 136.81,152.84 136.81,153.02 136.79,153.14 C 136.75,153.35 136.71,153.56 136.67,153.77 C 136.59,154.19 136.52,154.61 136.44,155.03 C 136.42,155.14 136.4,155.24 136.38,155.35 C 136.37,155.37 136.37,155.4 136.36,155.43 C 136.36,155.44 136.36,155.45 136.36,155.47 C 136.35,155.48 136.34,155.48 136.33,155.48 C 136.32,155.48 136.31,155.49 136.3,155.49 C 136.22,155.53 136.14,155.56 136.06,155.59 C 135.74,155.72 135.41,155.84 135.09,155.95 C 135.04,155.97 135.0,155.98 134.96,156.0 C 134.94,156.0 134.92,156.01 134.9,156.02 C 134.89,156.02 134.86,156.04 134.86,156.02 C 134.88,155.97 134.89,155.91 134.91,155.86 C 134.93,155.76 134.96,155.66 134.99,155.55 C 135.04,155.35 135.1,155.14 135.16,154.93 C 135.21,154.72 135.27,154.52 135.32,154.31 C 135.35,154.21 135.38,154.1 135.4,154.0 C 135.42,153.95 135.43,153.9 135.45,153.84 C 135.47,153.74 135.43,153.64 135.34,153.59 C 135.26,153.53 135.16,153.54 135.07,153.59 C 135.0,153.64 134.98,153.71 134.96,153.79 C 134.94,153.89 134.91,154.0 134.88,154.1 C 134.83,154.31 134.77,154.52 134.71,154.72 C 134.6,155.14 134.49,155.55 134.38,155.96 C 134.36,156.03 134.35,156.09 134.33,156.16 C 134.33,156.17 134.32,156.19 134.32,156.21 C 134.31,156.22 134.3,156.22 134.29,156.22 C 134.27,156.23 134.26,156.23 134.25,156.23 C 134.19,156.25 134.14,156.27 134.09,156.28 C 133.88,156.35 133.68,156.41 133.47,156.47 C 133.26,156.53 133.05,156.59 132.84,156.64 C 132.82,156.65 132.77,156.68 132.78,156.64 C 132.79,156.63 132.8,156.61 132.8,156.59 C 132.81,156.56 132.82,156.53 132.83,156.5 C 132.86,156.44 132.88,156.37 132.9,156.31 C 133.08,155.8 133.26,155.3 133.44,154.79 C 133.48,154.68 133.6,154.46 133.51,154.32 C 133.44,154.21 133.31,154.17 133.19,154.23 C 133.1,154.29 133.08,154.37 133.05,154.46 C 132.96,154.71 132.87,154.97 132.78,155.22 C 132.69,155.47 132.6,155.73 132.51,155.98 C 132.5,155.99 132.5,156.01 132.49,156.03 C 132.49,156.04 132.49,156.01 132.49,156.01 C 132.49,156.0 132.49,155.99 132.49,155.98 C 132.48,155.95 132.48,155.92 132.47,155.88 C 132.47,155.82 132.46,155.75 132.45,155.68 C 132.44,155.55 132.43,155.42 132.42,155.28 C 132.41,155.15 132.4,155.01 132.39,154.88 C 132.39,154.85 132.39,154.81 132.39,154.78 C 132.39,154.72 132.42,154.68 132.43,154.64 C 132.47,154.53 132.51,154.43 132.54,154.33 C 132.57,154.25 132.59,154.18 132.63,154.1 C 132.77,153.81 133.09,153.65 133.41,153.69 C 133.73,153.74 133.98,153.97 134.05,154.28 C 134.09,154.46 134.05,154.62 133.99,154.78 C 133.92,154.99 133.85,155.19 133.78,155.4 C 133.74,155.5 133.7,155.6 133.67,155.7 C 133.65,155.76 133.63,155.81 133.61,155.86 C 133.61,155.87 133.6,155.89 133.61,155.88 C 133.63,155.88 133.64,155.88 133.65,155.87 C 133.68,155.86 133.7,155.86 133.73,155.85 C 133.78,155.83 133.83,155.82 133.89,155.8 C 133.9,155.8 133.89,155.79 133.89,155.78 C 133.89,155.78 133.9,155.77 133.9,155.76 C 133.9,155.75 133.9,155.74 133.91,155.72 C 133.91,155.7 133.92,155.67 133.93,155.64 C 133.96,155.54 133.98,155.43 134.01,155.33 C 134.13,154.91 134.24,154.49 134.35,154.07 C 134.38,153.96 134.41,153.86 134.43,153.75 C 134.45,153.7 134.46,153.65 134.48,153.6 C 134.56,153.29 134.81,153.07 135.13,153.03 C 135.44,153.0 135.74,153.16 135.89,153.44 C 136.0,153.65 135.99,153.83 135.93,154.05 C 135.9,154.15 135.87,154.26 135.85,154.36 C 135.79,154.57 135.73,154.78 135.68,154.99 C 135.66,155.04 135.65,155.1 135.64,155.15 C 135.63,155.16 135.63,155.18 135.62,155.19 C 135.62,155.19 135.62,155.2 135.63,155.2 C 135.63,155.2 135.64,155.19 135.65,155.19 C 135.67,155.18 135.7,155.17 135.72,155.16 C 135.77,155.14 135.82,155.12 135.87,155.1 C 135.91,155.09 135.9,155.06 135.91,155.04 C 135.91,155.01 135.92,154.98 135.92,154.96 C 136.0,154.53 136.08,154.1 136.16,153.68 C 136.2,153.46 136.24,153.25 136.28,153.03 C 136.29,152.98 136.3,152.93 136.31,152.87 C 136.36,152.59 136.51,152.38 136.78,152.28 C 137.07,152.16 137.41,152.24 137.62,152.47 C 137.74,152.59 137.8,152.73 137.82,152.9 C 137.83,152.99 137.82,153.07 137.8,153.16 C 137.74,153.5 137.67,153.85 137.61,154.19 C 137.6,154.23 137.59,154.28 137.59,154.32 C 137.58,154.33 137.58,154.34 137.58,154.35 C 137.58,154.36 137.59,154.35 137.6,154.35 C 137.62,154.34 137.64,154.33 137.66,154.32 C 137.7,154.3 137.74,154.28 137.78,154.26 C 137.8,154.25 137.82,154.25 137.84,154.24 C 137.85,154.23 137.85,154.19 137.85,154.18 C 137.87,154.0 137.89,153.83 137.91,153.66 C 137.94,153.31 137.98,152.96 138.02,152.61 C 138.03,152.44 138.05,152.27 138.07,152.09 C 138.1,151.79 138.16,151.56 138.45,151.38 C 138.92,151.1 139.51,151.39 139.59,151.93 C 139.61,152.07 139.59,152.2 139.57,152.34 C 139.56,152.43 139.56,152.51 139.55,152.6 C 139.53,152.77 139.51,152.95 139.49,153.12 C 139.49,153.16 139.48,153.21 139.48,153.25 C 139.48,153.27 139.47,153.29 139.47,153.32 C 139.47,153.33 139.45,153.38 139.48,153.36 C 139.55,153.32 139.63,153.27 139.7,153.23 C 139.73,153.21 139.72,153.19 139.72,153.17 C 139.72,153.15 139.72,153.13 139.72,153.11 C 139.72,153.06 139.73,153.02 139.73,152.98 C 139.73,152.89 139.73,152.8 139.73,152.71 C 139.74,152.37 139.75,152.02 139.76,151.67 C 139.77,151.49 139.77,151.32 139.77,151.14 C 139.78,150.99 139.77,150.83 139.83,150.68 C 140.03,150.17 140.68,150.02 141.07,150.4 C 141.29,150.62 141.3,150.84 141.3,151.12 C 141.29,151.21 141.29,151.3 141.29,151.38 C 141.28,151.56 141.28,151.73 141.28,151.91 C 141.27,151.99 141.27,152.08 141.27,152.17 C 141.27,152.18 141.27,152.19 141.27,152.2 C 141.27,152.21 141.26,152.24 141.27,152.23 C 141.29,152.22 141.31,152.2 141.32,152.19 C 141.36,152.17 141.4,152.14 141.43,152.12 C 141.45,152.1 141.47,152.09 141.48,152.08 C 141.49,152.07 141.51,152.08 141.51,152.06 C 141.51,152.05 141.51,152.04 141.51,152.03 C 141.51,151.98 141.5,151.94 141.5,151.89 C 141.5,151.81 141.49,151.72 141.49,151.63 C 141.47,151.28 141.45,150.94 141.43,150.59 C 141.42,150.41 141.41,150.24 141.4,150.06 C 141.4,149.98 141.4,149.89 141.39,149.8 C 141.38,149.58 141.42,149.41 141.58,149.23 C 141.74,149.05 141.99,148.95 142.24,148.98 C 142.5,149.01 142.72,149.17 142.83,149.41 C 142.89,149.53 142.9,149.64 142.91,149.77 C 142.92,149.86 142.92,149.95 142.93,150.03 C 142.93,150.21 142.94,150.38 142.95,150.56 C 142.96,150.64 142.96,150.73 142.97,150.82 C 142.97,150.86 142.97,150.9 142.97,150.95 C 142.97,150.96 142.99,150.94 142.99,150.94 C 143.0,150.93 143.01,150.92 143.02,150.92 C 143.04,150.9 143.05,150.89 143.07,150.88 C 143.1,150.85 143.14,150.82 143.17,150.79 C 143.18,150.79 143.19,150.78 143.2,150.77 C 143.21,150.76 143.2,150.75 143.2,150.74 C 143.2,150.72 143.19,150.7 143.19,150.68 C 143.18,150.59 143.17,150.5 143.16,150.42 C 143.11,150.07 143.06,149.72 143.02,149.38 C 143.0,149.21 142.97,149.03 142.95,148.86 C 142.94,148.77 142.93,148.69 142.92,148.6 C 142.91,148.52 142.89,148.43 142.9,148.35 C 142.92,148.09 143.07,147.85 143.3,147.73 C 143.75,147.48 144.31,147.75 144.41,148.26 C 144.42,148.36 144.43,148.45 144.44,148.54 C 144.47,148.71 144.49,148.88 144.51,149.05 C 144.52,149.13 144.53,149.22 144.54,149.3 C 144.55,149.34 144.55,149.38 144.56,149.43 C 144.56,149.45 144.57,149.47 144.57,149.49 C 144.57,149.5 144.57,149.51 144.57,149.52 C 144.57,149.53 144.57,149.56 144.58,149.55 C 144.64,149.49 144.7,149.43 144.76,149.37 C 144.77,149.36 144.78,149.35 144.79,149.35 C 144.8,149.34 144.79,149.33 144.78,149.32 C 144.78,149.3 144.77,149.28 144.77,149.26 C 144.76,149.21 144.75,149.17 144.74,149.13 C 144.6,148.47 144.46,147.8 144.32,147.14 C 144.28,146.95 144.29,146.79 144.37,146.61 C 144.48,146.39 144.69,146.24 144.93,146.2 C 145.18,146.16 145.43,146.24 145.6,146.42 C 145.72,146.54 145.78,146.68 145.81,146.84 C 145.85,147.0 145.88,147.17 145.92,147.34 C 145.95,147.5 145.99,147.67 146.02,147.83 C 146.03,147.88 146.04,147.92 146.05,147.96 C 146.05,147.98 146.06,148.0 146.06,148.02 C 146.06,148.03 146.07,148.01 146.07,148.01 C 146.08,148.01 146.08,148.0 146.08,148.0 C 146.09,147.99 146.1,147.98 146.1,147.97 C 146.13,147.94 146.16,147.91 146.19,147.88 C 146.2,147.86 146.22,147.85 146.23,147.83 C 146.24,147.82 146.26,147.81 146.25,147.78 C 146.06,147.13 145.87,146.48 145.68,145.83 C 145.64,145.72 145.6,145.61 145.59,145.5 C 145.51,144.98 145.96,144.55 146.48,144.64 C 146.72,144.69 146.93,144.85 147.03,145.09 C 147.06,145.15 147.08,145.21 147.1,145.28 C 147.12,145.36 147.15,145.44 147.17,145.52 C 147.22,145.68 147.27,145.85 147.31,146.01 C 147.34,146.09 147.36,146.17 147.39,146.25 C 147.4,146.29 147.41,146.33 147.42,146.38 C 147.43,146.39 147.44,146.37 147.44,146.36 C 147.45,146.35 147.45,146.35 147.46,146.34 C 147.47,146.32 147.49,146.3 147.5,146.29 C 147.52,146.25 147.55,146.22 147.57,146.19 C 147.59,146.17 147.61,146.16 147.6,146.13 C 147.59,146.11 147.58,146.09 147.58,146.07 C 147.55,145.99 147.52,145.91 147.48,145.84 C 147.42,145.68 147.36,145.52 147.3,145.36 C 147.18,145.04 147.06,144.73 146.94,144.41 C 146.91,144.33 146.88,144.25 146.85,144.17 C 146.77,143.98 146.7,143.8 146.75,143.58 C 146.86,143.06 147.45,142.81 147.9,143.09 C 148.11,143.22 148.18,143.41 148.26,143.62 C 148.38,143.94 148.51,144.25 148.63,144.57 C 148.64,144.59 148.64,144.61 148.65,144.63 C 148.66,144.66 148.67,144.61 148.68,144.6 C 148.71,144.56 148.73,144.53 148.75,144.49 C 148.76,144.48 148.82,144.4 148.81,144.38 C 148.79,144.35 148.77,144.31 148.76,144.27 C 148.68,144.12 148.61,143.96 148.54,143.81 C 148.39,143.5 148.25,143.2 148.1,142.89 C 148.03,142.75 147.96,142.6 147.89,142.45 C 147.78,142.23 147.71,142.03 147.79,141.76 C 147.95,141.29 148.51,141.09 148.93,141.36 C 149.11,141.48 149.19,141.64 149.27,141.82 C 149.31,141.9 149.34,141.97 149.38,142.04 C 149.45,142.19 149.52,142.33 149.59,142.48 C 149.62,142.55 149.66,142.63 149.69,142.7 C 149.71,142.74 149.73,142.77 149.74,142.81 C 149.75,142.82 149.75,142.8 149.75,142.8 C 149.75,142.79 149.76,142.79 149.76,142.78 C 149.76,142.77 149.77,142.77 149.77,142.76 C 149.78,142.74 149.79,142.72 149.8,142.7 C 149.82,142.67 149.84,142.63 149.86,142.6 C 149.86,142.59 149.89,142.55 149.88,142.54 C 149.87,142.53 149.86,142.51 149.85,142.49 C 149.81,142.42 149.77,142.35 149.73,142.28 C 149.57,142.0 149.41,141.72 149.24,141.44 C 149.08,141.16 148.92,140.88 148.76,140.6 C 148.67,140.44 148.62,140.3 148.64,140.11 C 148.66,139.88 148.8,139.67 149.0,139.54 C 149.2,139.42 149.44,139.39 149.66,139.47 C 149.85,139.54 149.97,139.66 150.07,139.83 C 150.15,139.97 150.23,140.11 150.31,140.25 C 150.39,140.39 150.48,140.53 150.56,140.67 C 150.6,140.74 150.64,140.81 150.68,140.88 C 150.68,140.89 150.68,140.89 150.69,140.89 C 150.69,140.9 150.69,140.89 150.69,140.89 C 150.7,140.88 150.7,140.87 150.7,140.86 C 150.71,140.84 150.72,140.82 150.73,140.8 C 150.74,140.77 150.76,140.73 150.78,140.69 C 150.8,140.64 150.82,140.64 150.78,140.59 C 150.76,140.55 150.73,140.52 150.71,140.49 C 150.66,140.42 150.62,140.35 150.57,140.29 C 150.48,140.15 150.39,140.02 150.3,139.89 C 150.11,139.62 149.93,139.35 149.75,139.09 C 149.7,139.02 149.66,138.95 149.61,138.89 C 149.51,138.73 149.4,138.6 149.38,138.4 C 149.32,137.91 149.74,137.49 150.24,137.56 C 150.54,137.6 150.68,137.76 150.84,137.99 C 151.02,138.25 151.2,138.52 151.39,138.79 C 151.41,138.82 151.43,138.85 151.46,138.89 C 151.46,138.9 151.47,138.9 151.47,138.91 C 151.48,138.92 151.48,138.9 151.48,138.89 C 151.49,138.88 151.5,138.86 151.5,138.84 C 151.52,138.8 151.53,138.76 151.54,138.72 C 151.55,138.7 151.56,138.68 151.56,138.67 C 151.57,138.66 151.57,138.66 151.57,138.65 C 151.57,138.65 151.58,138.64 151.57,138.64 C 151.57,138.63 151.56,138.62 151.55,138.61 C 151.45,138.49 151.35,138.36 151.25,138.24 C 151.05,137.98 150.84,137.73 150.64,137.48 C 150.54,137.36 150.43,137.23 150.33,137.1 C 150.28,137.04 150.23,136.98 150.18,136.92 C 150.11,136.83 150.04,136.74 150.01,136.63 C 149.93,136.4 149.96,136.15 150.1,135.95 C 150.38,135.54 150.96,135.51 151.29,135.87 C 151.35,135.94 151.41,136.01 151.46,136.08 C 151.57,136.21 151.67,136.34 151.77,136.46 C 151.87,136.59 151.97,136.71 152.07,136.84 C 152.08,136.85 152.09,136.85 152.09,136.86 C 152.1,136.87 152.11,136.89 152.11,136.88 C 152.12,136.86 152.12,136.84 152.13,136.82 C 152.14,136.78 152.15,136.74 152.16,136.7 C 152.16,136.68 152.17,136.66 152.17,136.64 C 152.18,136.62 152.19,136.61 152.17,136.59 C 152.15,136.56 152.12,136.53 152.09,136.5 z M 146.64,148.97 C 146.76,148.84 146.88,148.71 146.99,148.58 C 147.05,148.51 147.11,148.45 147.17,148.38 C 147.18,148.36 147.19,148.35 147.21,148.33 C 147.22,148.32 147.23,148.3 147.25,148.3 C 147.28,148.31 147.3,148.31 147.33,148.31 C 147.54,148.34 147.75,148.37 147.96,148.4 C 148.38,148.45 148.8,148.51 149.22,148.56 C 149.33,148.58 149.43,148.59 149.54,148.61 C 149.65,148.62 149.81,148.66 149.93,148.61 C 150.11,148.51 150.15,148.26 150.0,148.12 C 149.9,148.03 149.73,148.03 149.62,148.01 C 149.2,147.96 148.78,147.9 148.36,147.84 C 148.15,147.82 147.94,147.79 147.73,147.76 C 147.72,147.76 147.68,147.77 147.7,147.75 C 147.71,147.73 147.73,147.72 147.74,147.7 C 147.77,147.67 147.79,147.63 147.82,147.6 C 147.88,147.53 147.93,147.46 147.99,147.39 C 148.1,147.26 148.2,147.12 148.31,146.98 C 148.36,146.91 148.42,146.84 148.47,146.77 C 148.5,146.73 148.52,146.7 148.55,146.66 C 148.56,146.64 148.57,146.63 148.59,146.61 C 148.6,146.59 148.6,146.57 148.63,146.57 C 148.73,146.58 148.84,146.58 148.94,146.59 C 149.16,146.6 149.37,146.61 149.58,146.62 C 150.0,146.64 150.43,146.67 150.85,146.69 C 150.96,146.69 151.07,146.71 151.18,146.7 C 151.38,146.7 151.52,146.49 151.45,146.3 C 151.41,146.19 151.35,146.14 151.24,146.11 C 151.18,146.1 151.12,146.1 151.06,146.1 C 150.95,146.09 150.85,146.09 150.74,146.08 C 150.32,146.06 149.89,146.04 149.47,146.01 C 149.36,146.01 149.26,146.0 149.15,146.0 C 149.13,146.0 149.1,145.99 149.07,145.99 C 149.06,145.99 149.05,145.99 149.03,145.99 C 149.01,145.99 149.04,145.97 149.05,145.97 C 149.05,145.96 149.06,145.95 149.07,145.94 C 149.12,145.87 149.17,145.8 149.21,145.72 C 149.41,145.43 149.6,145.14 149.79,144.84 C 149.8,144.82 149.81,144.8 149.83,144.79 C 149.83,144.78 149.84,144.77 149.84,144.76 C 149.85,144.75 149.84,144.74 149.86,144.74 C 149.89,144.74 149.91,144.73 149.94,144.73 C 149.99,144.73 150.05,144.73 150.1,144.73 C 150.21,144.73 150.31,144.72 150.42,144.72 C 150.63,144.72 150.84,144.71 151.05,144.71 C 151.48,144.69 151.9,144.68 152.33,144.67 C 152.4,144.67 152.47,144.67 152.55,144.63 C 152.64,144.57 152.68,144.5 152.69,144.39 C 152.7,144.17 152.54,144.07 152.34,144.07 C 152.13,144.08 151.92,144.08 151.71,144.09 C 151.28,144.1 150.86,144.11 150.43,144.12 C 150.38,144.12 150.33,144.12 150.27,144.12 C 150.26,144.13 150.25,144.13 150.23,144.13 C 150.21,144.13 150.24,144.09 150.25,144.08 C 150.27,144.04 150.3,144.01 150.32,143.97 C 150.41,143.82 150.49,143.66 150.58,143.51 C 150.66,143.35 150.75,143.2 150.83,143.05 C 150.87,142.97 150.91,142.89 150.95,142.81 C 150.96,142.79 150.97,142.81 150.99,142.81 C 151.0,142.8 151.01,142.8 151.03,142.8 C 151.05,142.8 151.08,142.8 151.11,142.79 C 151.53,142.75 151.95,142.7 152.37,142.66 C 152.58,142.64 152.79,142.62 152.99,142.6 C 153.1,142.58 153.2,142.57 153.31,142.56 C 153.45,142.55 153.58,142.57 153.69,142.42 C 153.81,142.26 153.74,142.03 153.54,141.96 C 153.45,141.93 153.27,141.96 153.18,141.97 C 152.97,141.99 152.77,142.02 152.56,142.04 C 152.14,142.08 151.73,142.12 151.31,142.17 C 151.3,142.17 151.29,142.17 151.28,142.17 C 151.26,142.17 151.28,142.16 151.28,142.15 C 151.28,142.14 151.29,142.13 151.29,142.12 C 151.31,142.09 151.33,142.05 151.35,142.01 C 151.39,141.93 151.42,141.85 151.46,141.77 C 151.53,141.62 151.6,141.46 151.67,141.3 C 151.74,141.15 151.81,140.99 151.88,140.83 C 151.88,140.82 151.89,140.8 151.91,140.8 C 151.92,140.8 151.94,140.8 151.95,140.79 C 151.97,140.79 152.0,140.78 152.03,140.78 C 152.08,140.77 152.13,140.76 152.18,140.75 C 152.59,140.67 153.0,140.6 153.41,140.52 C 153.61,140.48 153.82,140.45 154.02,140.41 C 154.13,140.39 154.23,140.37 154.33,140.35 C 154.41,140.34 154.48,140.32 154.54,140.27 C 154.62,140.19 154.65,140.12 154.63,140.01 C 154.61,139.8 154.43,139.72 154.24,139.76 C 154.14,139.78 154.04,139.8 153.93,139.81 C 153.73,139.85 153.52,139.89 153.32,139.93 C 153.11,139.97 152.91,140.0 152.71,140.04 C 152.6,140.06 152.5,140.08 152.4,140.1 C 152.35,140.11 152.3,140.12 152.24,140.13 C 152.22,140.13 152.19,140.14 152.17,140.14 C 152.14,140.15 152.17,140.11 152.18,140.1 C 152.18,140.08 152.19,140.06 152.2,140.04 C 152.32,139.72 152.44,139.39 152.55,139.07 C 152.58,138.99 152.61,138.91 152.64,138.82 C 152.64,138.8 152.65,138.78 152.66,138.76 C 152.66,138.75 152.66,138.73 152.69,138.73 C 152.71,138.72 152.74,138.71 152.76,138.71 C 152.86,138.68 152.96,138.65 153.06,138.63 C 153.47,138.52 153.87,138.41 154.27,138.3 C 154.47,138.25 154.67,138.19 154.87,138.14 C 154.95,138.12 155.14,138.08 155.21,138.04 C 155.38,137.93 155.4,137.68 155.24,137.55 C 155.09,137.43 154.97,137.49 154.82,137.53 C 154.72,137.56 154.62,137.59 154.52,137.61 C 154.32,137.67 154.12,137.72 153.92,137.78 C 153.71,137.83 153.51,137.88 153.31,137.94 C 153.21,137.96 153.11,137.99 153.01,138.02 C 152.98,138.02 152.96,138.03 152.93,138.04 C 152.92,138.04 152.91,138.04 152.9,138.05 C 152.87,138.05 152.89,138.02 152.9,138.01 C 152.92,137.93 152.95,137.85 152.97,137.76 C 153.07,137.43 153.16,137.1 153.24,136.77 C 153.25,136.75 153.25,136.72 153.26,136.7 C 153.26,136.69 153.26,136.68 153.26,136.67 C 153.27,136.67 153.27,136.66 153.27,136.66 C 153.27,136.65 153.27,136.64 153.27,136.65 C 153.3,136.65 153.32,136.66 153.35,136.66 C 153.4,136.67 153.45,136.68 153.5,136.69 C 153.61,136.71 153.71,136.73 153.81,136.76 C 153.91,136.78 154.01,136.8 154.11,136.83 C 154.13,136.83 154.14,136.83 154.15,136.84 C 154.16,136.84 154.18,136.84 154.17,136.84 C 154.16,136.84 154.15,136.85 154.14,136.85 C 154.1,136.86 154.06,136.88 154.02,136.89 C 153.94,136.92 153.87,136.95 153.79,136.98 C 153.73,137.0 153.72,136.98 153.71,137.05 C 153.69,137.09 153.68,137.14 153.67,137.18 C 153.66,137.22 153.65,137.26 153.64,137.31 C 153.63,137.32 153.65,137.31 153.66,137.3 C 153.67,137.3 153.68,137.3 153.69,137.3 C 153.71,137.29 153.73,137.29 153.75,137.28 C 153.91,137.24 154.07,137.2 154.23,137.15 C 154.39,137.11 154.55,137.07 154.71,137.02 C 154.74,137.01 154.78,137.0 154.81,137.01 C 154.84,137.02 154.86,137.02 154.89,137.03 C 154.94,137.05 154.99,137.06 155.04,137.08 C 155.24,137.14 155.44,137.2 155.64,137.26 C 155.65,137.27 155.66,137.27 155.67,137.28 C 155.72,137.29 155.73,137.33 155.75,137.37 C 155.87,137.56 155.89,137.73 155.85,137.95 C 155.81,138.16 155.68,138.35 155.5,138.47 C 155.4,138.53 155.3,138.57 155.19,138.59 C 155.03,138.64 154.86,138.68 154.7,138.73 C 154.37,138.81 154.04,138.9 153.71,138.99 C 153.55,139.03 153.39,139.08 153.22,139.12 C 153.18,139.13 153.14,139.14 153.1,139.15 C 153.09,139.16 153.08,139.15 153.07,139.17 C 153.07,139.18 153.06,139.19 153.06,139.2 C 153.05,139.22 153.05,139.24 153.04,139.26 C 153.02,139.3 153.01,139.35 152.99,139.39 C 152.99,139.41 152.98,139.43 152.97,139.45 C 152.96,139.48 153.0,139.46 153.02,139.46 C 153.35,139.39 153.68,139.33 154.02,139.27 C 154.21,139.24 154.39,139.2 154.58,139.26 C 155.0,139.4 155.24,139.83 155.13,140.26 C 155.07,140.47 154.93,140.65 154.74,140.76 C 154.64,140.82 154.53,140.84 154.42,140.87 C 154.33,140.88 154.25,140.9 154.17,140.91 C 153.83,140.97 153.5,141.04 153.17,141.1 C 153.0,141.13 152.83,141.16 152.66,141.19 C 152.58,141.21 152.5,141.22 152.41,141.24 C 152.37,141.24 152.33,141.25 152.29,141.26 C 152.28,141.26 152.27,141.25 152.26,141.27 C 152.25,141.28 152.25,141.29 152.24,141.3 C 152.24,141.32 152.23,141.34 152.22,141.36 C 152.2,141.4 152.18,141.44 152.16,141.48 C 152.15,141.5 152.15,141.52 152.14,141.54 C 152.13,141.55 152.13,141.56 152.13,141.56 C 152.13,141.57 152.14,141.56 152.14,141.56 C 152.16,141.56 152.17,141.56 152.18,141.56 C 152.26,141.55 152.35,141.54 152.43,141.53 C 152.6,141.51 152.77,141.49 152.94,141.48 C 153.02,141.47 153.11,141.46 153.19,141.45 C 153.38,141.43 153.55,141.41 153.74,141.48 C 154.15,141.64 154.36,142.09 154.23,142.5 C 154.16,142.71 154.01,142.88 153.81,142.98 C 153.7,143.04 153.59,143.06 153.47,143.07 C 153.13,143.11 152.79,143.14 152.46,143.18 C 152.12,143.21 151.78,143.25 151.44,143.28 C 151.4,143.29 151.36,143.29 151.32,143.3 C 151.31,143.3 151.3,143.3 151.28,143.3 C 151.27,143.3 151.27,143.32 151.27,143.33 C 151.26,143.35 151.25,143.37 151.24,143.39 C 151.21,143.43 151.19,143.47 151.17,143.51 C 151.16,143.53 151.15,143.55 151.14,143.57 C 151.14,143.57 151.14,143.58 151.13,143.58 C 151.13,143.59 151.14,143.58 151.14,143.58 C 151.15,143.58 151.16,143.58 151.17,143.58 C 151.34,143.58 151.51,143.57 151.68,143.57 C 151.85,143.56 152.02,143.56 152.19,143.56 C 152.38,143.55 152.55,143.54 152.73,143.62 C 153.13,143.8 153.32,144.26 153.15,144.67 C 153.07,144.88 152.92,145.04 152.71,145.13 C 152.6,145.18 152.48,145.19 152.35,145.19 C 152.27,145.19 152.18,145.2 152.1,145.2 C 151.93,145.2 151.76,145.21 151.59,145.21 C 151.25,145.22 150.91,145.23 150.57,145.24 C 150.48,145.24 150.4,145.24 150.31,145.25 C 150.27,145.25 150.23,145.25 150.19,145.25 C 150.18,145.25 150.17,145.25 150.16,145.25 C 150.14,145.25 150.14,145.27 150.13,145.27 C 150.12,145.29 150.11,145.31 150.1,145.33 C 150.07,145.37 150.05,145.41 150.03,145.44 C 150.01,145.46 150.0,145.48 149.99,145.5 C 149.98,145.51 149.97,145.52 149.98,145.52 C 150.0,145.52 150.01,145.52 150.02,145.52 C 150.1,145.53 150.19,145.53 150.27,145.54 C 150.43,145.55 150.59,145.55 150.75,145.56 C 150.84,145.57 150.92,145.57 151.0,145.58 C 151.11,145.58 151.22,145.58 151.32,145.6 C 151.73,145.68 152.02,146.05 151.99,146.47 C 151.96,146.88 151.62,147.21 151.2,147.23 C 151.02,147.23 150.84,147.21 150.66,147.2 C 150.34,147.18 150.02,147.17 149.69,147.15 C 149.53,147.14 149.37,147.13 149.21,147.12 C 149.13,147.12 149.05,147.12 148.97,147.11 C 148.95,147.11 148.93,147.11 148.91,147.11 C 148.89,147.11 148.87,147.1 148.85,147.12 C 148.83,147.16 148.8,147.19 148.78,147.23 C 148.75,147.26 148.72,147.3 148.7,147.33 C 148.69,147.34 148.69,147.35 148.68,147.35 C 148.67,147.36 148.69,147.36 148.69,147.37 C 148.71,147.37 148.73,147.37 148.75,147.37 C 148.83,147.38 148.91,147.39 148.99,147.41 C 149.15,147.43 149.31,147.45 149.47,147.47 C 149.55,147.48 149.63,147.49 149.71,147.5 C 149.86,147.52 150.0,147.53 150.13,147.59 C 150.51,147.76 150.7,148.19 150.58,148.59 C 150.45,148.98 150.08,149.2 149.68,149.15 C 149.04,149.07 148.4,148.98 147.76,148.9 C 147.68,148.89 147.6,148.88 147.52,148.87 C 147.45,148.86 147.46,148.84 147.41,148.9 C 147.38,148.93 147.35,148.96 147.32,148.99 C 147.3,149.02 147.27,149.05 147.24,149.09 C 147.22,149.11 147.26,149.1 147.28,149.11 C 147.3,149.11 147.32,149.11 147.33,149.12 C 147.41,149.14 147.49,149.15 147.57,149.17 C 147.73,149.2 147.89,149.24 148.05,149.27 C 148.12,149.29 148.2,149.3 148.28,149.32 C 148.46,149.36 148.63,149.39 148.78,149.51 C 149.11,149.77 149.19,150.23 148.97,150.58 C 148.86,150.78 148.71,150.89 148.49,150.95 C 148.35,150.99 148.21,150.98 148.06,150.95 C 147.91,150.92 147.75,150.89 147.59,150.85 C 147.27,150.78 146.96,150.72 146.64,150.65 C 146.48,150.62 146.33,150.58 146.17,150.55 C 146.09,150.53 146.01,150.52 145.93,150.5 C 145.91,150.49 145.89,150.48 145.88,150.5 C 145.86,150.52 145.84,150.53 145.83,150.55 C 145.8,150.57 145.77,150.6 145.74,150.63 C 145.72,150.65 145.71,150.66 145.69,150.68 C 145.68,150.69 145.64,150.71 145.67,150.72 C 145.71,150.73 145.75,150.74 145.78,150.75 C 145.86,150.77 145.94,150.8 146.02,150.82 C 146.17,150.87 146.33,150.91 146.48,150.96 C 146.77,151.04 147.05,151.08 147.26,151.35 C 147.51,151.68 147.48,152.14 147.19,152.43 C 147.03,152.59 146.86,152.66 146.63,152.67 C 146.52,152.67 146.42,152.65 146.31,152.62 C 146.0,152.53 145.69,152.44 145.39,152.34 C 145.06,152.25 144.74,152.15 144.42,152.06 C 144.38,152.05 144.34,152.03 144.3,152.02 C 144.28,152.02 144.26,152.01 144.24,152.0 C 144.23,152.0 144.22,152.0 144.21,151.99 C 144.2,151.99 144.2,152.0 144.19,152.01 C 144.19,152.01 144.18,152.01 144.18,152.02 C 144.11,152.07 144.04,152.13 143.97,152.18 C 143.97,152.19 143.96,152.2 143.97,152.2 C 143.98,152.21 143.99,152.21 144.0,152.21 C 144.02,152.22 144.04,152.23 144.06,152.24 C 144.09,152.25 144.13,152.27 144.17,152.28 C 144.25,152.31 144.33,152.34 144.41,152.37 C 144.57,152.43 144.72,152.49 144.88,152.55 C 144.96,152.58 145.04,152.61 145.11,152.64 C 145.52,152.8 145.73,153.24 145.6,153.66 C 145.47,154.07 145.04,154.31 144.62,154.2 C 144.51,154.18 144.41,154.13 144.31,154.09 C 144.15,154.03 144.0,153.97 143.84,153.91 C 143.53,153.79 143.21,153.67 142.9,153.55 C 142.74,153.49 142.59,153.43 142.43,153.37 C 142.4,153.36 142.39,153.38 142.37,153.39 C 142.35,153.4 142.34,153.42 142.32,153.43 C 142.28,153.46 142.24,153.48 142.21,153.51 C 142.19,153.52 142.17,153.53 142.15,153.54 C 142.14,153.55 142.17,153.55 142.17,153.56 C 142.18,153.56 142.19,153.57 142.2,153.57 C 142.24,153.59 142.28,153.61 142.31,153.63 C 142.62,153.77 142.92,153.92 143.23,154.06 C 143.36,154.12 143.47,154.2 143.56,154.31 C 143.69,154.48 143.75,154.7 143.73,154.91 C 143.68,155.35 143.31,155.66 142.87,155.64 C 142.69,155.63 142.55,155.56 142.4,155.48 C 142.32,155.45 142.24,155.41 142.17,155.37 C 141.86,155.23 141.56,155.08 141.26,154.94 C 141.11,154.87 140.95,154.8 140.8,154.72 C 140.73,154.69 140.65,154.65 140.58,154.61 C 140.56,154.61 140.54,154.6 140.52,154.59 C 140.51,154.58 140.51,154.59 140.5,154.6 C 140.5,154.6 140.49,154.6 140.49,154.6 C 140.48,154.61 140.47,154.61 140.46,154.62 C 140.42,154.64 140.38,154.67 140.35,154.69 C 140.33,154.7 140.31,154.71 140.29,154.72 C 140.28,154.73 140.23,154.74 140.25,154.75 C 140.29,154.78 140.32,154.8 140.36,154.82 C 140.43,154.86 140.5,154.9 140.58,154.94 C 140.72,155.03 140.87,155.11 141.01,155.2 C 141.09,155.24 141.16,155.28 141.23,155.32 C 141.3,155.36 141.37,155.4 141.43,155.45 C 141.6,155.59 141.7,155.79 141.72,156.0 C 141.76,156.43 141.47,156.82 141.04,156.89 C 140.78,156.93 140.59,156.84 140.38,156.72 C 139.79,156.39 139.21,156.05 138.63,155.71 C 138.61,155.7 138.59,155.69 138.57,155.68 C 138.56,155.67 138.54,155.65 138.52,155.67 C 138.48,155.68 138.44,155.7 138.4,155.72 C 138.36,155.74 138.32,155.76 138.28,155.78 C 138.27,155.79 138.26,155.79 138.25,155.8 C 138.23,155.8 138.26,155.81 138.27,155.81 C 138.28,155.82 138.3,155.84 138.32,155.85 C 138.46,155.94 138.59,156.04 138.73,156.13 C 138.87,156.23 139.01,156.32 139.15,156.42 C 139.34,156.55 139.5,156.68 139.58,156.92 C 139.72,157.33 139.51,157.77 139.11,157.94 C 138.72,158.09 138.48,157.95 138.18,157.74 C 138.08,157.68 137.98,157.61 137.89,157.54 C 137.69,157.41 137.5,157.28 137.3,157.14 C 137.11,157.01 136.91,156.87 136.72,156.74 C 136.67,156.71 136.62,156.67 136.57,156.64 C 136.55,156.62 136.52,156.6 136.5,156.59 C 136.48,156.58 136.48,156.57 136.46,156.58 C 136.44,156.58 136.43,156.59 136.41,156.59 C 136.36,156.62 136.3,156.64 136.24,156.66 C 136.22,156.67 136.21,156.67 136.19,156.68 C 136.19,156.68 136.18,156.68 136.17,156.69 C 136.16,156.69 136.18,156.69 136.19,156.7 C 136.21,156.72 136.23,156.74 136.25,156.75 C 136.44,156.9 136.62,157.05 136.81,157.2 C 136.9,157.28 136.99,157.35 137.08,157.43 C 137.25,157.56 137.36,157.7 137.42,157.91 C 137.48,158.2 137.39,158.5 137.18,158.7 C 136.95,158.91 136.63,158.98 136.35,158.88 C 136.22,158.83 136.11,158.75 136.01,158.67 C 135.92,158.59 135.83,158.52 135.73,158.45 C 135.55,158.3 135.37,158.15 135.18,158.0 C 135.0,157.85 134.81,157.7 134.63,157.55 C 134.54,157.48 134.45,157.4 134.36,157.33 C 134.34,157.32 134.33,157.32 134.31,157.33 C 134.3,157.33 134.28,157.34 134.27,157.34 C 134.24,157.35 134.21,157.36 134.18,157.37 C 134.15,157.38 134.12,157.39 134.09,157.39 C 134.07,157.4 134.06,157.4 134.04,157.41 C 134.02,157.41 134.05,157.43 134.06,157.43 C 134.23,157.6 134.4,157.76 134.57,157.92 C 134.66,158.0 134.74,158.09 134.83,158.17 C 134.91,158.24 134.98,158.3 135.04,158.39 C 135.22,158.64 135.24,158.97 135.09,159.24 C 134.96,159.5 134.7,159.67 134.4,159.68 C 134.14,159.69 133.96,159.6 133.77,159.42 C 133.69,159.34 133.6,159.26 133.51,159.18 C 133.43,159.1 133.34,159.02 133.26,158.94 C 133.21,158.9 133.17,158.85 133.13,158.81 C 133.11,158.8 133.03,158.72 133.02,158.69 C 132.94,158.41 132.87,158.12 132.8,157.83 C 132.8,157.81 132.79,157.79 132.79,157.77 C 132.79,157.76 132.79,157.78 132.8,157.78 C 132.8,157.79 132.8,157.79 132.81,157.79 C 132.81,157.8 132.82,157.8 132.83,157.81 C 132.86,157.84 132.88,157.86 132.91,157.89 C 132.96,157.94 133.02,157.99 133.07,158.04 C 133.18,158.14 133.29,158.25 133.4,158.35 C 133.61,158.55 133.83,158.76 134.04,158.96 C 134.11,159.03 134.16,159.1 134.25,159.13 C 134.37,159.19 134.52,159.15 134.61,159.04 C 134.69,158.93 134.69,158.77 134.6,158.66 C 134.54,158.6 134.48,158.56 134.43,158.5 C 134.21,158.3 133.99,158.09 133.78,157.89 C 133.56,157.68 133.35,157.48 133.13,157.27 C 133.1,157.25 133.08,157.22 133.05,157.19 C 133.04,157.19 133.04,157.18 133.03,157.17 C 133.03,157.17 133.02,157.17 133.02,157.16 C 133.02,157.16 133.0,157.16 133.01,157.16 C 133.04,157.15 133.07,157.14 133.1,157.13 C 133.22,157.1 133.34,157.07 133.46,157.04 C 133.69,156.97 133.93,156.9 134.17,156.83 C 134.22,156.81 134.28,156.79 134.34,156.77 C 134.37,156.76 134.4,156.76 134.43,156.75 C 134.44,156.74 134.45,156.74 134.46,156.75 C 134.47,156.75 134.48,156.76 134.48,156.76 C 134.54,156.81 134.6,156.86 134.66,156.9 C 134.77,157.0 134.89,157.09 135.0,157.18 C 135.24,157.37 135.47,157.56 135.7,157.75 C 135.86,157.88 136.03,158.01 136.19,158.15 C 136.28,158.21 136.36,158.29 136.45,158.35 C 136.61,158.47 136.85,158.39 136.91,158.19 C 136.94,158.08 136.92,158.0 136.85,157.91 C 136.81,157.87 136.76,157.83 136.71,157.79 C 136.63,157.73 136.55,157.66 136.47,157.6 C 136.3,157.46 136.14,157.33 135.97,157.2 C 135.81,157.06 135.64,156.93 135.48,156.8 C 135.4,156.73 135.31,156.66 135.23,156.6 C 135.21,156.58 135.19,156.56 135.17,156.55 C 135.16,156.54 135.15,156.53 135.14,156.52 C 135.12,156.5 135.16,156.5 135.17,156.5 C 135.25,156.47 135.34,156.44 135.42,156.41 C 135.75,156.29 136.08,156.17 136.4,156.04 C 136.44,156.02 136.48,156.01 136.52,155.99 C 136.54,155.98 136.58,156.01 136.59,156.02 C 136.64,156.05 136.68,156.08 136.72,156.11 C 136.81,156.17 136.9,156.23 136.99,156.29 C 137.33,156.53 137.68,156.77 138.03,157.01 C 138.21,157.13 138.38,157.25 138.56,157.37 C 138.61,157.41 138.66,157.45 138.74,157.47 C 138.85,157.49 138.92,157.47 139.01,157.39 C 139.16,157.25 139.12,157.03 138.96,156.92 C 138.61,156.68 138.26,156.44 137.91,156.2 C 137.74,156.08 137.56,155.96 137.39,155.84 C 137.34,155.81 137.3,155.78 137.26,155.75 C 137.25,155.74 137.23,155.74 137.22,155.73 C 137.22,155.72 137.21,155.72 137.21,155.72 C 137.2,155.71 137.18,155.71 137.19,155.71 C 137.23,155.69 137.27,155.67 137.31,155.65 C 137.47,155.58 137.63,155.51 137.79,155.44 C 137.95,155.36 138.11,155.29 138.27,155.21 C 138.35,155.17 138.42,155.13 138.5,155.09 C 138.51,155.09 138.52,155.08 138.53,155.08 C 138.54,155.08 138.54,155.06 138.56,155.07 C 138.57,155.08 138.58,155.08 138.59,155.09 C 138.61,155.1 138.64,155.12 138.66,155.13 C 138.84,155.24 139.03,155.34 139.21,155.45 C 139.58,155.66 139.94,155.87 140.31,156.08 C 140.4,156.14 140.49,156.19 140.58,156.24 C 140.69,156.3 140.82,156.4 140.96,156.37 C 141.17,156.33 141.27,156.1 141.16,155.93 C 141.1,155.83 140.94,155.75 140.86,155.7 C 140.49,155.49 140.12,155.28 139.76,155.07 C 139.57,154.96 139.39,154.86 139.21,154.75 C 139.2,154.75 139.19,154.75 139.19,154.74 C 139.17,154.73 139.2,154.73 139.21,154.73 C 139.23,154.72 139.25,154.71 139.27,154.7 C 139.3,154.68 139.34,154.66 139.38,154.63 C 139.46,154.59 139.53,154.55 139.61,154.51 C 139.76,154.42 139.92,154.34 140.07,154.25 C 140.14,154.2 140.22,154.16 140.29,154.12 C 140.33,154.09 140.37,154.07 140.41,154.05 C 140.42,154.04 140.44,154.03 140.46,154.02 C 140.48,154.01 140.49,154.0 140.51,154.0 C 140.6,154.05 140.7,154.1 140.79,154.14 C 140.99,154.23 141.18,154.32 141.37,154.42 C 141.75,154.6 142.13,154.78 142.51,154.96 C 142.61,155.01 142.71,155.06 142.81,155.1 C 143.0,155.17 143.21,155.04 143.21,154.83 C 143.22,154.72 143.19,154.65 143.09,154.58 C 143.04,154.54 142.99,154.52 142.93,154.5 C 142.84,154.45 142.74,154.41 142.64,154.36 C 142.26,154.18 141.87,153.99 141.49,153.81 C 141.39,153.76 141.3,153.72 141.2,153.67 C 141.18,153.66 141.15,153.65 141.13,153.64 C 141.12,153.63 141.09,153.63 141.1,153.62 C 141.12,153.6 141.14,153.59 141.16,153.58 C 141.23,153.53 141.31,153.48 141.38,153.44 C 141.67,153.24 141.97,153.04 142.25,152.84 C 142.27,152.83 142.29,152.81 142.31,152.8 C 142.32,152.79 142.33,152.77 142.35,152.78 C 142.38,152.79 142.4,152.8 142.43,152.81 C 142.48,152.83 142.53,152.85 142.58,152.87 C 142.68,152.91 142.78,152.95 142.88,152.98 C 143.08,153.06 143.28,153.14 143.48,153.21 C 143.87,153.37 144.27,153.52 144.67,153.67 C 144.86,153.74 145.04,153.7 145.11,153.5 C 145.14,153.39 145.13,153.31 145.05,153.22 C 145.0,153.16 144.94,153.13 144.86,153.1 C 144.66,153.03 144.46,152.95 144.27,152.87 C 143.87,152.72 143.47,152.57 143.07,152.41 C 143.02,152.4 142.97,152.38 142.92,152.36 C 142.91,152.35 142.92,152.35 142.93,152.34 C 142.94,152.33 142.95,152.33 142.96,152.32 C 142.97,152.31 142.99,152.3 143.01,152.28 C 143.04,152.26 143.08,152.23 143.11,152.2 C 143.25,152.09 143.39,151.98 143.53,151.87 C 143.67,151.76 143.81,151.65 143.94,151.54 C 143.97,151.51 144.01,151.48 144.04,151.45 C 144.05,151.45 144.06,151.44 144.07,151.43 C 144.07,151.43 144.08,151.41 144.09,151.42 C 144.1,151.42 144.12,151.43 144.13,151.43 C 144.18,151.44 144.23,151.46 144.28,151.47 C 144.69,151.6 145.1,151.72 145.51,151.84 C 145.72,151.9 145.92,151.96 146.12,152.02 C 146.23,152.05 146.33,152.08 146.43,152.11 C 146.5,152.13 146.56,152.16 146.63,152.15 C 146.75,152.14 146.81,152.1 146.87,152.0 C 146.97,151.82 146.87,151.62 146.68,151.56 C 146.58,151.53 146.47,151.5 146.37,151.47 C 146.17,151.41 145.96,151.35 145.76,151.29 C 145.55,151.22 145.35,151.16 145.14,151.1 C 145.04,151.07 144.94,151.04 144.84,151.01 C 144.79,151.0 144.73,150.98 144.68,150.97 C 144.67,150.96 144.66,150.96 144.64,150.96 C 144.64,150.95 144.62,150.96 144.63,150.95 C 144.63,150.94 144.64,150.93 144.65,150.93 C 144.68,150.9 144.72,150.87 144.75,150.84 C 145.01,150.6 145.27,150.36 145.52,150.12 C 145.59,150.06 145.65,149.99 145.71,149.93 C 145.73,149.92 145.78,149.93 145.79,149.94 C 145.82,149.94 145.84,149.95 145.87,149.95 C 145.97,149.98 146.08,150.0 146.18,150.02 C 146.6,150.11 147.02,150.2 147.44,150.29 C 147.65,150.33 147.85,150.38 148.06,150.42 C 148.22,150.45 148.35,150.51 148.49,150.36 C 148.63,150.21 148.58,149.96 148.39,149.88 C 148.33,149.86 148.27,149.85 148.21,149.84 C 148.16,149.83 148.11,149.82 148.06,149.8 C 147.95,149.78 147.85,149.76 147.74,149.74 C 147.53,149.69 147.32,149.65 147.12,149.6 C 146.91,149.56 146.7,149.52 146.49,149.47 C 146.44,149.46 146.38,149.45 146.33,149.44 C 146.31,149.43 146.28,149.43 146.25,149.42 C 146.25,149.42 146.24,149.42 146.23,149.42 C 146.23,149.42 146.23,149.42 146.22,149.42 C 146.22,149.41 146.23,149.41 146.23,149.41 C 146.25,149.39 146.26,149.37 146.28,149.36 C 146.4,149.23 146.52,149.1 146.64,148.97 z M 165.98,151.63 C 166.37,151.94 166.76,152.26 167.15,152.58 C 167.25,152.66 167.35,152.73 167.45,152.81 C 167.5,152.85 167.54,152.89 167.59,152.93 C 167.61,152.95 167.6,152.91 167.59,152.89 C 167.59,152.88 167.59,152.86 167.59,152.85 C 167.59,152.82 167.59,152.78 167.59,152.75 C 167.58,152.64 167.57,152.53 167.56,152.42 C 167.55,152.36 167.55,152.31 167.54,152.25 C 167.54,152.24 167.54,152.22 167.53,152.21 C 167.51,152.2 167.49,152.18 167.48,152.17 C 167.44,152.14 167.41,152.11 167.37,152.08 C 167.32,152.04 167.27,152.0 167.22,151.96 C 167.2,151.94 167.18,151.92 167.15,151.91 C 167.14,151.9 167.13,151.89 167.12,151.88 C 167.11,151.87 167.07,151.85 167.1,151.85 C 167.16,151.83 167.22,151.82 167.28,151.8 C 167.31,151.79 167.34,151.79 167.37,151.78 C 167.38,151.78 167.4,151.8 167.4,151.81 C 167.42,151.82 167.43,151.83 167.44,151.84 C 167.46,151.86 167.47,151.87 167.49,151.89 C 167.5,151.89 167.51,151.91 167.51,151.9 C 167.5,151.89 167.5,151.88 167.5,151.87 C 167.5,151.84 167.5,151.81 167.49,151.78 C 167.48,151.72 167.48,151.67 167.47,151.61 C 167.45,151.49 167.44,151.37 167.42,151.25 C 167.42,151.24 167.42,151.23 167.4,151.23 C 167.39,151.24 167.37,151.24 167.36,151.24 C 167.32,151.25 167.29,151.26 167.26,151.27 C 167.2,151.28 167.14,151.3 167.08,151.32 C 166.95,151.35 166.83,151.38 166.71,151.42 C 166.46,151.48 166.22,151.55 165.98,151.63 z M 154.86,158.2 C 155.26,158.28 155.66,158.37 156.06,158.45 C 156.26,158.5 156.46,158.54 156.66,158.58 C 156.76,158.6 156.86,158.62 156.96,158.65 C 157.01,158.66 157.07,158.66 157.13,158.69 C 157.21,158.73 157.27,158.82 157.26,158.92 C 157.25,159.01 157.19,159.1 157.11,159.13 C 157.03,159.16 156.97,159.14 156.9,159.12 C 156.8,159.1 156.7,159.08 156.6,159.06 C 156.4,159.02 156.2,158.98 156.0,158.93 C 155.6,158.85 155.2,158.76 154.8,158.68 C 154.7,158.66 154.6,158.64 154.5,158.61 C 154.49,158.61 154.48,158.61 154.47,158.61 C 154.44,158.6 154.44,158.62 154.42,158.63 C 154.4,158.66 154.37,158.69 154.34,158.72 C 154.28,158.78 154.22,158.84 154.17,158.9 C 153.94,159.14 153.71,159.38 153.49,159.63 C 153.46,159.66 153.44,159.69 153.41,159.72 C 153.39,159.73 153.38,159.75 153.37,159.77 C 153.35,159.78 153.38,159.77 153.39,159.78 C 153.44,159.78 153.5,159.79 153.55,159.8 C 153.65,159.81 153.75,159.82 153.85,159.84 C 154.05,159.86 154.25,159.89 154.46,159.92 C 154.66,159.94 154.86,159.97 155.06,160.0 C 155.16,160.01 155.26,160.02 155.37,160.04 C 155.44,160.05 155.64,160.06 155.71,160.11 C 155.88,160.24 155.82,160.5 155.61,160.54 C 155.55,160.55 155.34,160.52 155.28,160.51 C 155.08,160.48 154.87,160.46 154.67,160.43 C 154.27,160.38 153.86,160.32 153.46,160.27 C 153.36,160.26 153.26,160.24 153.15,160.23 C 153.1,160.22 153.05,160.22 153.0,160.21 C 152.98,160.21 152.98,160.22 152.96,160.23 C 152.95,160.25 152.94,160.26 152.92,160.28 C 152.9,160.31 152.87,160.34 152.85,160.37 C 152.63,160.63 152.43,160.89 152.22,161.15 C 152.17,161.21 152.12,161.28 152.07,161.34 C 152.05,161.38 152.02,161.41 152.0,161.44 C 151.98,161.47 152.03,161.46 152.06,161.46 C 152.16,161.46 152.26,161.47 152.36,161.48 C 152.56,161.49 152.77,161.5 152.97,161.51 C 153.38,161.53 153.79,161.55 154.19,161.57 C 154.28,161.58 154.35,161.58 154.41,161.65 C 154.47,161.72 154.49,161.82 154.46,161.9 C 154.42,161.99 154.33,162.05 154.24,162.05 C 154.18,162.06 154.13,162.05 154.08,162.05 C 153.87,162.04 153.67,162.02 153.47,162.01 C 153.06,161.99 152.65,161.97 152.24,161.95 C 152.14,161.94 152.04,161.94 151.94,161.93 C 151.89,161.93 151.84,161.93 151.79,161.93 C 151.76,161.92 151.74,161.92 151.71,161.92 C 151.68,161.92 151.66,161.91 151.63,161.94 C 151.44,162.21 151.25,162.48 151.07,162.75 C 150.98,162.89 150.89,163.03 150.8,163.17 C 150.79,163.19 150.78,163.2 150.77,163.22 C 150.76,163.23 150.74,163.24 150.76,163.24 C 150.76,163.24 150.77,163.24 150.78,163.24 C 150.8,163.24 150.83,163.24 150.85,163.24 C 150.9,163.24 150.96,163.24 151.01,163.24 C 151.21,163.23 151.41,163.22 151.62,163.22 C 152.03,163.21 152.43,163.2 152.84,163.19 C 152.97,163.18 153.13,163.15 153.22,163.29 C 153.33,163.47 153.2,163.66 153.0,163.66 C 152.8,163.67 152.59,163.67 152.39,163.68 C 151.98,163.69 151.57,163.7 151.17,163.71 C 150.96,163.72 150.76,163.72 150.56,163.73 C 150.53,163.73 150.5,163.73 150.48,163.73 C 150.43,163.73 150.43,163.77 150.41,163.8 C 150.37,163.87 150.33,163.94 150.28,164.01 C 150.2,164.15 150.12,164.29 150.04,164.44 C 149.95,164.58 149.87,164.73 149.79,164.87 C 149.76,164.95 149.72,165.02 149.68,165.09 C 149.67,165.1 149.67,165.11 149.66,165.12 C 149.66,165.13 149.67,165.12 149.68,165.12 C 149.69,165.12 149.71,165.12 149.72,165.11 C 149.74,165.11 149.77,165.11 149.79,165.11 C 150.0,165.08 150.2,165.06 150.4,165.04 C 150.81,165.0 151.21,164.96 151.62,164.91 C 151.72,164.9 151.83,164.88 151.93,164.88 C 152.14,164.88 152.25,165.13 152.11,165.28 C 152.03,165.38 151.85,165.37 151.75,165.38 C 151.65,165.39 151.55,165.4 151.45,165.42 C 151.04,165.46 150.64,165.5 150.23,165.54 C 150.03,165.56 149.82,165.59 149.62,165.61 C 149.57,165.61 149.52,165.62 149.47,165.62 C 149.46,165.62 149.4,165.63 149.39,165.64 C 149.38,165.67 149.36,165.71 149.34,165.75 C 149.27,165.9 149.19,166.04 149.12,166.19 C 149.05,166.34 148.98,166.49 148.91,166.64 C 148.88,166.72 148.85,166.79 148.81,166.87 C 148.8,166.91 148.78,166.95 148.76,166.98 C 148.75,167.0 148.75,167.02 148.74,167.04 C 148.73,167.05 148.71,167.08 148.73,167.08 C 148.93,167.04 149.13,167.0 149.33,166.96 C 149.74,166.89 150.14,166.82 150.54,166.74 C 150.64,166.72 150.74,166.7 150.84,166.69 C 150.9,166.67 150.96,166.65 151.03,166.67 C 151.12,166.68 151.2,166.75 151.22,166.85 C 151.24,166.94 151.21,167.03 151.13,167.09 C 151.07,167.14 151.01,167.14 150.94,167.15 C 150.84,167.17 150.74,167.19 150.64,167.21 C 150.24,167.28 149.84,167.36 149.44,167.43 C 149.24,167.47 149.04,167.51 148.84,167.54 C 148.74,167.56 148.64,167.58 148.54,167.6 C 148.53,167.6 148.52,167.6 148.52,167.6 C 148.51,167.61 148.5,167.6 148.5,167.61 C 148.49,167.63 148.48,167.65 148.47,167.67 C 148.46,167.7 148.44,167.74 148.43,167.78 C 148.4,167.86 148.37,167.93 148.34,168.01 C 148.22,168.32 148.1,168.63 147.99,168.94 C 147.98,168.98 147.97,169.02 147.95,169.06 C 147.95,169.07 147.92,169.11 147.94,169.1 C 147.96,169.1 147.97,169.1 147.98,169.09 C 148.03,169.08 148.08,169.07 148.13,169.05 C 148.23,169.03 148.32,169.0 148.42,168.97 C 148.82,168.87 149.21,168.76 149.61,168.66 C 149.75,168.62 149.9,168.58 150.04,168.54 C 150.17,168.51 150.27,168.48 150.37,168.6 C 150.46,168.71 150.43,168.88 150.31,168.96 C 150.26,168.99 149.9,169.08 149.84,169.09 C 149.7,169.13 149.55,169.17 149.4,169.21 C 149.11,169.29 148.82,169.37 148.53,169.44 C 148.38,169.48 148.23,169.52 148.09,169.56 C 148.01,169.58 147.94,169.6 147.87,169.62 C 147.83,169.63 147.8,169.64 147.76,169.65 C 147.75,169.65 147.75,169.66 147.75,169.67 C 147.75,169.67 147.74,169.68 147.74,169.69 C 147.74,169.7 147.73,169.72 147.73,169.73 C 147.72,169.76 147.71,169.79 147.7,169.82 C 147.63,170.05 147.56,170.29 147.49,170.52 C 147.46,170.64 147.42,170.76 147.39,170.88 C 147.38,170.94 147.36,171.0 147.35,171.06 C 147.34,171.09 147.33,171.12 147.32,171.15 C 147.32,171.15 147.32,171.16 147.32,171.17 C 147.32,171.17 147.3,171.19 147.31,171.18 C 147.32,171.18 147.33,171.18 147.34,171.18 C 147.63,171.07 147.91,170.97 148.2,170.87 C 148.48,170.77 148.77,170.67 149.05,170.57 C 149.11,170.55 149.45,170.42 149.51,170.42 C 149.66,170.41 149.77,170.54 149.76,170.68 C 149.75,170.83 149.65,170.87 149.53,170.91 C 149.24,171.01 148.96,171.11 148.67,171.21 C 148.53,171.26 148.39,171.32 148.24,171.37 C 148.17,171.39 148.1,171.42 148.03,171.44 C 148.01,171.45 147.99,171.45 147.98,171.46 C 147.97,171.46 147.96,171.47 147.95,171.47 C 147.95,171.47 147.93,171.47 147.94,171.47 C 147.94,171.47 147.95,171.47 147.95,171.48 C 147.99,171.48 148.03,171.48 148.07,171.49 C 148.37,171.52 148.67,171.55 148.97,171.56 C 149.05,171.57 149.12,171.57 149.2,171.58 C 149.23,171.58 149.25,171.56 149.28,171.55 C 149.31,171.54 149.34,171.53 149.37,171.52 C 149.42,171.5 149.48,171.48 149.54,171.46 C 149.85,171.35 150.11,171.27 150.24,170.91 C 150.36,170.57 150.22,170.19 149.91,170.01 C 149.67,169.86 149.46,169.87 149.2,169.96 C 148.97,170.05 148.74,170.13 148.51,170.21 C 148.39,170.25 148.28,170.29 148.16,170.33 C 148.15,170.34 148.13,170.34 148.12,170.35 C 148.11,170.35 148.11,170.35 148.1,170.36 C 148.09,170.36 148.08,170.37 148.08,170.36 C 148.09,170.33 148.1,170.3 148.11,170.27 C 148.12,170.21 148.14,170.15 148.16,170.09 C 148.17,170.08 148.18,170.07 148.19,170.07 C 148.21,170.07 148.22,170.06 148.24,170.06 C 148.27,170.05 148.3,170.04 148.33,170.04 C 148.39,170.02 148.45,170.0 148.51,169.99 C 148.62,169.96 148.74,169.92 148.86,169.89 C 149.1,169.83 149.34,169.77 149.57,169.7 C 149.81,169.64 150.05,169.58 150.28,169.51 C 150.48,169.46 150.65,169.39 150.78,169.21 C 151.0,168.93 150.99,168.53 150.75,168.25 C 150.62,168.1 150.48,168.03 150.28,168.0 C 150.17,167.98 150.06,168.0 149.95,168.03 C 149.89,168.04 149.83,168.06 149.77,168.08 C 149.53,168.14 149.29,168.2 149.06,168.27 C 149.0,168.28 148.94,168.3 148.88,168.31 C 148.85,168.32 148.82,168.33 148.79,168.34 C 148.78,168.34 148.78,168.34 148.77,168.34 C 148.76,168.35 148.77,168.33 148.77,168.33 C 148.78,168.31 148.78,168.3 148.79,168.28 C 148.81,168.23 148.83,168.17 148.86,168.11 C 148.86,168.1 148.87,168.08 148.87,168.07 C 148.88,168.06 148.89,168.07 148.89,168.06 C 148.9,168.06 148.91,168.06 148.92,168.06 C 148.95,168.05 148.98,168.05 149.01,168.04 C 149.63,167.93 150.25,167.81 150.88,167.7 C 150.96,167.68 151.03,167.67 151.11,167.65 C 151.57,167.57 151.85,167.12 151.71,166.68 C 151.64,166.45 151.47,166.28 151.25,166.19 C 151.1,166.13 150.96,166.14 150.8,166.16 C 150.72,166.18 150.65,166.19 150.57,166.21 C 150.26,166.27 149.94,166.32 149.63,166.38 C 149.62,166.38 149.6,166.4 149.61,166.38 C 149.61,166.37 149.62,166.36 149.62,166.36 C 149.63,166.34 149.64,166.32 149.65,166.3 C 149.66,166.27 149.68,166.23 149.7,166.2 C 149.71,166.18 149.72,166.16 149.72,166.14 C 149.73,166.13 149.73,166.12 149.74,166.12 C 149.75,166.12 149.76,166.12 149.77,166.12 C 149.81,166.11 149.85,166.11 149.89,166.1 C 150.05,166.09 150.2,166.07 150.36,166.05 C 150.68,166.02 150.99,165.99 151.31,165.95 C 151.46,165.94 151.62,165.92 151.78,165.9 C 151.87,165.9 151.95,165.89 152.04,165.88 C 152.51,165.81 152.81,165.33 152.65,164.87 C 152.57,164.65 152.39,164.47 152.17,164.4 C 152.04,164.36 151.92,164.36 151.79,164.37 C 151.71,164.38 151.63,164.39 151.56,164.4 C 151.4,164.42 151.24,164.43 151.08,164.45 C 150.93,164.47 150.77,164.48 150.61,164.5 C 150.58,164.5 150.62,164.47 150.62,164.46 C 150.63,164.44 150.64,164.42 150.65,164.41 C 150.67,164.37 150.69,164.34 150.71,164.3 C 150.72,164.29 150.73,164.27 150.74,164.25 C 150.75,164.24 150.79,164.24 150.8,164.24 C 150.84,164.24 150.88,164.24 150.92,164.24 C 151.24,164.23 151.55,164.22 151.87,164.21 C 152.19,164.21 152.5,164.2 152.82,164.19 C 152.93,164.19 153.04,164.19 153.15,164.17 C 153.62,164.09 153.9,163.59 153.72,163.14 C 153.64,162.92 153.45,162.76 153.22,162.69 C 153.12,162.66 153.02,162.66 152.92,162.67 C 152.84,162.67 152.76,162.67 152.68,162.67 C 152.52,162.68 152.37,162.68 152.21,162.68 C 152.13,162.69 152.05,162.69 151.97,162.69 C 151.93,162.69 151.89,162.69 151.85,162.69 C 151.83,162.69 151.81,162.69 151.79,162.7 C 151.78,162.7 151.77,162.7 151.76,162.7 C 151.75,162.7 151.73,162.7 151.74,162.69 C 151.79,162.63 151.83,162.56 151.88,162.5 C 151.88,162.49 151.9,162.45 151.91,162.45 C 151.93,162.46 151.95,162.46 151.97,162.46 C 152.01,162.46 152.05,162.46 152.09,162.46 C 152.25,162.47 152.41,162.48 152.57,162.49 C 152.88,162.5 153.2,162.52 153.52,162.54 C 153.67,162.55 153.83,162.55 153.99,162.56 C 154.13,162.57 154.26,162.59 154.39,162.56 C 154.87,162.45 155.12,161.95 154.93,161.5 C 154.83,161.28 154.62,161.12 154.38,161.07 C 154.31,161.05 154.24,161.05 154.17,161.05 C 154.09,161.05 154.0,161.04 153.92,161.04 C 153.76,161.03 153.59,161.02 153.43,161.01 C 153.35,161.01 153.26,161.0 153.18,161.0 C 153.14,161.0 153.1,160.99 153.06,160.99 C 153.05,160.99 153.04,160.99 153.03,160.99 C 153.02,160.99 153.01,160.99 153.01,160.99 C 153.02,160.98 153.02,160.98 153.02,160.98 C 153.04,160.96 153.05,160.94 153.06,160.93 C 153.09,160.9 153.12,160.86 153.14,160.83 C 153.15,160.82 153.17,160.8 153.18,160.78 C 153.19,160.78 153.19,160.77 153.2,160.76 C 153.21,160.75 153.21,160.76 153.22,160.76 C 153.22,160.76 153.23,160.76 153.23,160.76 C 153.31,160.77 153.39,160.79 153.48,160.8 C 154.13,160.88 154.78,160.97 155.44,161.05 C 155.64,161.08 155.8,161.06 155.97,160.95 C 156.17,160.82 156.3,160.61 156.33,160.37 C 156.35,160.13 156.25,159.89 156.07,159.73 C 155.94,159.62 155.8,159.57 155.63,159.55 C 155.46,159.52 155.3,159.5 155.13,159.48 C 154.97,159.46 154.81,159.44 154.64,159.42 C 154.6,159.41 154.56,159.41 154.52,159.4 C 154.5,159.4 154.48,159.39 154.46,159.39 C 154.45,159.39 154.44,159.39 154.43,159.39 C 154.43,159.39 154.42,159.39 154.42,159.38 C 154.43,159.38 154.43,159.38 154.43,159.37 C 154.49,159.31 154.55,159.25 154.6,159.19 C 154.61,159.19 154.61,159.17 154.63,159.17 C 154.64,159.17 154.65,159.18 154.66,159.18 C 154.68,159.18 154.7,159.19 154.72,159.19 C 154.76,159.2 154.8,159.21 154.84,159.22 C 154.92,159.23 155.0,159.25 155.08,159.27 C 155.24,159.3 155.4,159.34 155.56,159.37 C 155.89,159.44 156.21,159.51 156.53,159.58 C 156.61,159.6 156.69,159.61 156.77,159.63 C 156.86,159.65 156.95,159.67 157.04,159.66 C 157.29,159.66 157.51,159.53 157.65,159.33 C 157.93,158.91 157.74,158.34 157.26,158.18 C 157.16,158.15 157.05,158.13 156.95,158.11 C 156.63,158.04 156.31,157.98 155.98,157.91 C 155.97,157.9 155.96,157.9 155.95,157.9 C 155.94,157.9 155.96,157.89 155.96,157.88 C 155.98,157.87 155.99,157.86 156.01,157.84 C 156.04,157.81 156.07,157.79 156.1,157.76 C 156.12,157.75 156.13,157.73 156.15,157.72 C 156.15,157.71 156.16,157.7 156.17,157.7 C 156.18,157.71 156.19,157.71 156.2,157.71 C 156.24,157.72 156.28,157.74 156.32,157.75 C 156.48,157.79 156.64,157.84 156.79,157.89 C 157.11,157.98 157.43,158.08 157.74,158.17 C 157.9,158.22 158.06,158.26 158.22,158.31 C 158.45,158.38 158.66,158.43 158.9,158.31 C 159.36,158.09 159.48,157.49 159.14,157.11 C 159.0,156.95 158.82,156.9 158.63,156.85 C 158.55,156.82 158.47,156.8 158.39,156.78 C 158.23,156.73 158.07,156.68 157.92,156.63 C 157.84,156.61 157.76,156.59 157.68,156.56 C 157.66,156.56 157.64,156.55 157.62,156.55 C 157.61,156.54 157.6,156.54 157.59,156.54 C 157.57,156.53 157.6,156.53 157.6,156.52 C 157.64,156.5 157.67,156.47 157.7,156.45 C 157.74,156.42 157.77,156.4 157.8,156.37 C 157.82,156.36 157.84,156.36 157.86,156.37 C 157.88,156.38 157.89,156.39 157.91,156.39 C 157.99,156.42 158.07,156.45 158.14,156.48 C 158.45,156.6 158.76,156.72 159.07,156.84 C 159.35,156.95 159.63,157.05 159.92,157.16 C 160.06,157.22 160.2,157.24 160.35,157.22 C 160.58,157.18 160.77,157.05 160.88,156.85 C 161.12,156.46 160.95,155.95 160.53,155.77 C 160.38,155.71 160.23,155.65 160.08,155.6 C 159.94,155.54 159.8,155.49 159.66,155.43 C 159.59,155.41 159.52,155.38 159.45,155.35 C 159.41,155.34 159.37,155.33 159.34,155.31 C 159.34,155.31 159.33,155.31 159.33,155.31 C 159.32,155.3 159.33,155.3 159.34,155.3 C 159.34,155.29 159.35,155.29 159.36,155.28 C 159.38,155.27 159.39,155.26 159.41,155.25 C 159.44,155.23 159.47,155.21 159.5,155.19 C 159.52,155.18 159.54,155.17 159.55,155.16 C 159.56,155.16 159.56,155.14 159.58,155.15 C 159.58,155.15 159.59,155.15 159.6,155.16 C 159.67,155.19 159.74,155.22 159.81,155.26 C 159.94,155.32 160.08,155.39 160.22,155.45 C 160.49,155.58 160.76,155.71 161.04,155.84 C 161.17,155.91 161.31,155.98 161.45,156.04 C 161.54,156.08 161.62,156.13 161.72,156.16 C 162.15,156.31 162.61,156.05 162.71,155.61 C 162.76,155.39 162.71,155.15 162.57,154.98 C 162.48,154.87 162.37,154.8 162.25,154.74 C 162.18,154.7 162.11,154.67 162.04,154.64 C 161.91,154.57 161.77,154.51 161.63,154.44 C 161.5,154.38 161.36,154.31 161.22,154.25 C 161.21,154.24 161.19,154.23 161.17,154.22 C 161.17,154.22 161.16,154.22 161.16,154.22 C 161.15,154.21 161.16,154.21 161.17,154.21 C 161.18,154.21 161.19,154.2 161.19,154.2 C 161.23,154.18 161.26,154.16 161.29,154.14 C 161.33,154.12 161.36,154.11 161.39,154.09 C 161.44,154.06 161.46,154.1 161.49,154.12 C 162.02,154.42 162.54,154.73 163.07,155.03 C 163.29,155.16 163.5,155.32 163.78,155.32 C 164.24,155.32 164.6,154.91 164.53,154.46 C 164.49,154.14 164.32,154.0 164.07,153.85 C 163.81,153.7 163.54,153.55 163.28,153.4 C 163.22,153.36 163.15,153.32 163.08,153.28 C 163.08,153.28 163.08,153.28 163.07,153.27 C 163.07,153.27 163.08,153.27 163.08,153.27 C 163.09,153.26 163.1,153.26 163.11,153.26 C 163.12,153.25 163.14,153.24 163.16,153.23 C 163.19,153.22 163.23,153.2 163.26,153.19 C 163.3,153.17 163.32,153.14 163.36,153.17 C 163.4,153.19 163.43,153.21 163.46,153.24 C 163.52,153.28 163.58,153.32 163.65,153.36 C 163.9,153.54 164.15,153.71 164.4,153.88 C 164.64,154.05 164.89,154.22 165.14,154.39 C 165.19,154.43 165.24,154.46 165.29,154.49 C 165.49,154.6 165.72,154.61 165.93,154.53 C 166.36,154.37 166.55,153.86 166.32,153.46 C 166.23,153.3 166.1,153.2 165.95,153.11 C 165.89,153.06 165.83,153.02 165.77,152.98 C 165.64,152.89 165.51,152.8 165.38,152.71 C 165.32,152.67 165.26,152.63 165.19,152.58 C 165.16,152.56 165.13,152.54 165.1,152.52 C 165.09,152.51 165.08,152.51 165.07,152.5 C 165.07,152.49 165.03,152.49 165.05,152.48 C 165.07,152.48 165.09,152.47 165.11,152.46 C 165.18,152.44 165.25,152.41 165.32,152.39 C 165.33,152.39 165.37,152.42 165.37,152.42 C 165.39,152.43 165.4,152.44 165.42,152.46 C 165.45,152.48 165.48,152.51 165.51,152.53 C 165.63,152.63 165.75,152.72 165.87,152.82 C 166.11,153.02 166.35,153.21 166.59,153.41 C 166.71,153.5 166.83,153.6 166.95,153.7 C 167.04,153.77 167.13,153.85 167.24,153.91 C 167.34,153.96 167.44,153.99 167.56,154.0 C 167.57,154.0 167.59,154.0 167.6,154.0 C 167.61,154.0 167.63,154.01 167.63,153.99 C 167.63,153.99 167.63,153.99 167.63,153.98 C 167.63,153.98 167.63,153.97 167.63,153.97 C 167.63,153.94 167.63,153.92 167.63,153.89 C 167.63,153.8 167.62,153.7 167.62,153.61 C 167.62,153.58 167.62,153.56 167.62,153.54 C 167.62,153.52 167.62,153.51 167.62,153.5 C 167.62,153.49 167.62,153.49 167.62,153.48 C 167.62,153.47 167.61,153.47 167.6,153.47 C 167.52,153.48 167.46,153.45 167.4,153.4 C 167.25,153.28 167.11,153.16 166.96,153.04 C 166.66,152.8 166.36,152.55 166.07,152.31 C 165.92,152.19 165.77,152.07 165.62,151.95 C 165.59,151.92 165.55,151.89 165.51,151.86 C 165.49,151.85 165.47,151.83 165.46,151.82 C 165.42,151.79 165.4,151.81 165.37,151.82 C 165.22,151.87 165.07,151.92 164.93,151.97 C 164.64,152.08 164.35,152.18 164.06,152.3 C 164.02,152.31 163.98,152.33 163.95,152.34 C 163.94,152.34 163.93,152.34 163.94,152.35 C 163.94,152.35 163.95,152.36 163.95,152.36 C 163.96,152.37 163.97,152.37 163.98,152.38 C 164.02,152.41 164.06,152.43 164.1,152.46 C 164.18,152.52 164.26,152.57 164.34,152.62 C 164.65,152.84 164.97,153.06 165.28,153.27 C 165.44,153.38 165.59,153.49 165.75,153.6 C 165.81,153.64 165.87,153.68 165.89,153.76 C 165.91,153.84 165.89,153.93 165.83,153.99 C 165.76,154.06 165.67,154.08 165.58,154.05 C 165.53,154.03 165.48,154.0 165.44,153.96 C 164.81,153.53 164.18,153.1 163.55,152.67 C 163.51,152.64 163.47,152.61 163.43,152.58 C 163.42,152.58 163.41,152.57 163.4,152.56 C 163.39,152.56 163.38,152.57 163.38,152.57 C 163.37,152.58 163.36,152.58 163.35,152.59 C 163.31,152.6 163.28,152.62 163.24,152.63 C 163.1,152.69 162.96,152.75 162.82,152.82 C 162.54,152.94 162.25,153.07 161.98,153.21 C 161.97,153.21 161.96,153.22 161.95,153.22 C 161.94,153.23 161.95,153.23 161.96,153.23 C 161.97,153.24 161.98,153.24 161.99,153.25 C 162.01,153.26 162.03,153.27 162.05,153.29 C 162.09,153.31 162.13,153.33 162.17,153.36 C 162.26,153.41 162.34,153.45 162.42,153.5 C 162.59,153.6 162.75,153.69 162.92,153.79 C 163.08,153.88 163.25,153.98 163.41,154.07 C 163.5,154.12 163.58,154.17 163.66,154.22 C 163.75,154.27 163.84,154.31 163.92,154.36 C 164.07,154.47 164.05,154.71 163.87,154.78 C 163.72,154.85 163.63,154.75 163.52,154.69 C 163.35,154.59 163.19,154.5 163.02,154.4 C 162.69,154.21 162.36,154.02 162.03,153.83 C 161.86,153.73 161.7,153.64 161.53,153.54 C 161.51,153.53 161.49,153.52 161.47,153.51 C 161.46,153.5 161.45,153.49 161.44,153.49 C 161.42,153.48 161.41,153.49 161.4,153.5 C 161.33,153.54 161.26,153.57 161.19,153.61 C 161.06,153.68 160.92,153.75 160.78,153.83 C 160.64,153.91 160.5,153.99 160.36,154.07 C 160.29,154.11 160.22,154.15 160.15,154.19 C 160.11,154.21 160.08,154.23 160.04,154.25 C 160.03,154.26 160.05,154.26 160.06,154.27 C 160.07,154.27 160.08,154.28 160.09,154.29 C 160.28,154.37 160.46,154.46 160.64,154.54 C 161.0,154.72 161.36,154.89 161.72,155.06 C 161.81,155.11 161.9,155.15 161.99,155.19 C 162.06,155.22 162.12,155.24 162.16,155.3 C 162.22,155.38 162.22,155.48 162.18,155.56 C 162.13,155.64 162.05,155.69 161.95,155.68 C 161.88,155.68 161.83,155.65 161.78,155.62 C 161.69,155.58 161.59,155.53 161.5,155.49 C 161.14,155.32 160.78,155.14 160.42,154.97 C 160.24,154.89 160.06,154.8 159.88,154.71 C 159.78,154.67 159.69,154.63 159.6,154.58 C 159.6,154.58 159.55,154.55 159.53,154.56 C 159.5,154.58 159.47,154.6 159.43,154.62 C 159.36,154.66 159.29,154.71 159.23,154.75 C 158.95,154.93 158.68,155.11 158.41,155.29 C 158.35,155.34 158.28,155.38 158.21,155.43 C 158.2,155.44 158.23,155.44 158.24,155.45 C 158.25,155.45 158.26,155.45 158.27,155.46 C 158.3,155.47 158.32,155.48 158.34,155.49 C 158.44,155.52 158.53,155.56 158.62,155.59 C 159.0,155.74 159.37,155.88 159.75,156.03 C 159.93,156.1 160.12,156.17 160.31,156.24 C 160.49,156.31 160.53,156.56 160.36,156.67 C 160.23,156.76 160.09,156.67 159.98,156.63 C 159.61,156.49 159.23,156.34 158.86,156.2 C 158.67,156.13 158.48,156.05 158.29,155.98 C 158.2,155.95 158.11,155.91 158.01,155.87 C 157.97,155.86 157.92,155.84 157.87,155.82 C 157.86,155.82 157.75,155.76 157.73,155.78 C 157.47,155.97 157.21,156.16 156.96,156.37 C 156.83,156.47 156.7,156.57 156.58,156.67 C 156.54,156.7 156.51,156.72 156.48,156.75 C 156.47,156.75 156.49,156.75 156.5,156.76 C 156.5,156.76 156.51,156.76 156.51,156.76 C 156.53,156.76 156.54,156.77 156.55,156.77 C 156.6,156.79 156.65,156.8 156.69,156.81 C 157.08,156.93 157.46,157.04 157.85,157.16 C 158.04,157.21 158.23,157.27 158.42,157.33 C 158.5,157.35 158.68,157.39 158.75,157.46 C 158.89,157.6 158.8,157.85 158.59,157.86 C 158.53,157.87 158.03,157.71 157.98,157.7 C 157.79,157.64 157.59,157.58 157.4,157.52 C 157.02,157.41 156.63,157.3 156.25,157.18 C 156.2,157.17 156.15,157.15 156.1,157.14 C 156.09,157.14 156.04,157.12 156.03,157.13 C 156.0,157.16 155.97,157.18 155.94,157.21 C 155.82,157.32 155.69,157.42 155.57,157.53 C 155.33,157.75 155.09,157.97 154.86,158.2 z M 155.0,157.33 C 155.13,157.21 155.26,157.09 155.39,156.97 C 155.45,156.92 155.52,156.86 155.59,156.8 C 155.6,156.79 155.62,156.77 155.63,156.76 C 155.65,156.75 155.67,156.74 155.66,156.72 C 155.66,156.69 155.66,156.66 155.65,156.64 C 155.62,156.43 155.6,156.22 155.57,156.01 C 155.51,155.59 155.46,155.16 155.4,154.74 C 155.39,154.64 155.38,154.53 155.36,154.43 C 155.35,154.32 155.3,154.15 155.36,154.04 C 155.45,153.85 155.7,153.81 155.85,153.97 C 155.94,154.06 155.94,154.23 155.96,154.34 C 156.01,154.76 156.07,155.19 156.12,155.61 C 156.15,155.82 156.18,156.03 156.21,156.24 C 156.21,156.25 156.2,156.28 156.22,156.27 C 156.23,156.26 156.25,156.24 156.27,156.23 C 156.3,156.2 156.33,156.17 156.37,156.14 C 156.44,156.09 156.5,156.03 156.57,155.98 C 156.71,155.87 156.85,155.76 156.99,155.66 C 157.06,155.6 157.13,155.55 157.2,155.5 C 157.23,155.47 157.27,155.45 157.3,155.42 C 157.32,155.41 157.34,155.39 157.36,155.38 C 157.37,155.37 157.4,155.37 157.4,155.34 C 157.39,155.24 157.39,155.13 157.38,155.02 C 157.37,154.81 157.36,154.6 157.35,154.39 C 157.32,153.96 157.3,153.54 157.28,153.12 C 157.27,153.01 157.26,152.9 157.26,152.79 C 157.27,152.58 157.47,152.44 157.67,152.51 C 157.78,152.55 157.83,152.61 157.85,152.73 C 157.87,152.79 157.87,152.85 157.87,152.91 C 157.88,153.01 157.88,153.12 157.89,153.22 C 157.91,153.65 157.93,154.07 157.95,154.5 C 157.96,154.6 157.96,154.71 157.97,154.81 C 157.97,154.84 157.97,154.87 157.97,154.89 C 157.97,154.91 157.97,154.92 157.98,154.93 C 157.98,154.95 157.99,154.93 158.0,154.92 C 158.01,154.91 158.02,154.91 158.03,154.9 C 158.1,154.85 158.17,154.8 158.24,154.75 C 158.53,154.55 158.83,154.36 159.13,154.18 C 159.14,154.16 159.16,154.15 159.18,154.14 C 159.19,154.14 159.2,154.13 159.21,154.12 C 159.22,154.12 159.23,154.12 159.23,154.11 C 159.23,154.08 159.23,154.05 159.23,154.03 C 159.23,153.97 159.24,153.92 159.24,153.87 C 159.24,153.76 159.24,153.66 159.25,153.55 C 159.25,153.34 159.26,153.12 159.26,152.91 C 159.27,152.49 159.28,152.06 159.29,151.64 C 159.3,151.56 159.3,151.49 159.34,151.42 C 159.4,151.32 159.47,151.28 159.58,151.28 C 159.79,151.26 159.9,151.43 159.9,151.62 C 159.89,151.84 159.88,152.05 159.88,152.26 C 159.87,152.69 159.86,153.11 159.85,153.53 C 159.84,153.59 159.84,153.64 159.84,153.69 C 159.84,153.71 159.84,153.72 159.84,153.73 C 159.84,153.76 159.87,153.72 159.89,153.72 C 159.92,153.69 159.96,153.67 160.0,153.65 C 160.15,153.56 160.3,153.48 160.46,153.39 C 160.61,153.31 160.77,153.22 160.92,153.14 C 161.0,153.1 161.08,153.06 161.15,153.02 C 161.17,153.01 161.16,152.99 161.16,152.98 C 161.16,152.97 161.16,152.95 161.17,152.94 C 161.17,152.91 161.17,152.89 161.17,152.86 C 161.22,152.44 161.26,152.02 161.31,151.59 C 161.33,151.39 161.35,151.18 161.37,150.97 C 161.38,150.87 161.39,150.76 161.4,150.66 C 161.42,150.52 161.4,150.38 161.54,150.28 C 161.71,150.16 161.94,150.23 162.0,150.42 C 162.04,150.52 162.0,150.7 161.99,150.79 C 161.97,150.99 161.95,151.2 161.93,151.41 C 161.89,151.82 161.84,152.24 161.8,152.65 C 161.8,152.66 161.8,152.68 161.79,152.69 C 161.79,152.7 161.81,152.69 161.81,152.69 C 161.82,152.68 161.83,152.68 161.84,152.67 C 161.88,152.66 161.92,152.64 161.96,152.62 C 162.04,152.58 162.11,152.54 162.19,152.51 C 162.35,152.43 162.51,152.36 162.66,152.29 C 162.82,152.22 162.98,152.16 163.14,152.09 C 163.15,152.08 163.16,152.08 163.17,152.06 C 163.17,152.04 163.17,152.03 163.17,152.02 C 163.18,151.99 163.18,151.97 163.19,151.94 C 163.2,151.89 163.21,151.84 163.22,151.79 C 163.29,151.38 163.37,150.97 163.44,150.56 C 163.48,150.35 163.52,150.15 163.56,149.94 C 163.58,149.84 163.6,149.74 163.61,149.64 C 163.63,149.56 163.64,149.49 163.7,149.43 C 163.78,149.35 163.85,149.32 163.96,149.33 C 164.17,149.36 164.24,149.53 164.21,149.73 C 164.19,149.83 164.17,149.93 164.15,150.03 C 164.11,150.24 164.08,150.44 164.04,150.65 C 164.0,150.85 163.96,151.06 163.92,151.26 C 163.91,151.36 163.89,151.47 163.87,151.57 C 163.86,151.62 163.85,151.67 163.84,151.72 C 163.83,151.75 163.83,151.77 163.82,151.8 C 163.82,151.83 163.85,151.8 163.87,151.79 C 163.89,151.78 163.91,151.78 163.93,151.77 C 164.25,151.64 164.57,151.53 164.9,151.41 C 164.98,151.38 165.06,151.36 165.14,151.33 C 165.16,151.32 165.18,151.32 165.2,151.31 C 165.22,151.3 165.24,151.3 165.24,151.28 C 165.25,151.26 165.25,151.23 165.26,151.21 C 165.29,151.11 165.31,151.0 165.34,150.9 C 165.45,150.5 165.56,150.1 165.67,149.7 C 165.72,149.5 165.77,149.29 165.83,149.09 C 165.85,149.02 165.89,148.83 165.93,148.76 C 166.04,148.59 166.28,148.57 166.41,148.73 C 166.54,148.87 166.47,149.0 166.43,149.15 C 166.41,149.25 166.38,149.35 166.35,149.45 C 166.3,149.65 166.25,149.85 166.19,150.05 C 166.14,150.25 166.08,150.45 166.03,150.66 C 166.0,150.76 165.98,150.86 165.95,150.96 C 165.94,150.98 165.94,151.01 165.93,151.03 C 165.93,151.05 165.92,151.06 165.92,151.07 C 165.91,151.09 165.94,151.07 165.96,151.07 C 166.04,151.05 166.12,151.02 166.2,151.0 C 166.53,150.9 166.87,150.81 167.2,150.73 C 167.22,150.72 167.24,150.72 167.26,150.71 C 167.27,150.71 167.28,150.71 167.29,150.7 C 167.3,150.7 167.3,150.7 167.31,150.7 C 167.31,150.7 167.32,150.7 167.32,150.69 C 167.32,150.67 167.31,150.64 167.31,150.62 C 167.3,150.57 167.29,150.51 167.28,150.46 C 167.25,150.36 167.23,150.26 167.21,150.16 C 167.19,150.06 167.16,149.95 167.14,149.85 C 167.14,149.84 167.13,149.83 167.13,149.81 C 167.13,149.81 167.13,149.79 167.13,149.8 C 167.12,149.81 167.12,149.82 167.12,149.83 C 167.1,149.87 167.09,149.91 167.07,149.94 C 167.05,150.02 167.02,150.1 166.99,150.18 C 166.97,150.24 166.98,150.24 166.92,150.26 C 166.87,150.27 166.83,150.28 166.79,150.29 C 166.75,150.31 166.7,150.32 166.66,150.33 C 166.65,150.33 166.66,150.31 166.66,150.31 C 166.66,150.3 166.67,150.29 166.67,150.28 C 166.67,150.26 166.68,150.24 166.69,150.22 C 166.73,150.06 166.77,149.9 166.81,149.74 C 166.86,149.58 166.9,149.42 166.94,149.26 C 166.95,149.22 166.97,149.19 166.96,149.15 C 166.95,149.13 166.94,149.1 166.94,149.08 C 166.92,149.03 166.91,148.98 166.89,148.93 C 166.83,148.73 166.77,148.53 166.7,148.33 C 166.7,148.32 166.69,148.31 166.69,148.29 C 166.67,148.25 166.64,148.23 166.6,148.21 C 166.41,148.1 166.24,148.07 166.02,148.12 C 165.81,148.16 165.62,148.29 165.5,148.47 C 165.43,148.57 165.4,148.67 165.37,148.78 C 165.33,148.94 165.29,149.1 165.24,149.27 C 165.15,149.6 165.07,149.93 164.98,150.25 C 164.93,150.42 164.89,150.58 164.85,150.75 C 164.83,150.79 164.82,150.83 164.81,150.87 C 164.81,150.88 164.82,150.89 164.8,150.9 C 164.79,150.9 164.78,150.9 164.77,150.91 C 164.75,150.91 164.73,150.92 164.71,150.93 C 164.66,150.94 164.62,150.96 164.58,150.97 C 164.56,150.98 164.54,150.99 164.51,151.0 C 164.49,151.01 164.51,150.97 164.51,150.95 C 164.57,150.62 164.63,150.28 164.7,149.95 C 164.73,149.76 164.77,149.58 164.7,149.38 C 164.57,148.97 164.13,148.73 163.71,148.84 C 163.5,148.89 163.32,149.03 163.21,149.22 C 163.15,149.33 163.12,149.43 163.1,149.55 C 163.09,149.63 163.07,149.72 163.05,149.8 C 162.99,150.13 162.93,150.47 162.87,150.8 C 162.84,150.97 162.81,151.14 162.78,151.3 C 162.76,151.39 162.75,151.47 162.73,151.55 C 162.72,151.59 162.71,151.64 162.71,151.68 C 162.7,151.69 162.72,151.7 162.7,151.71 C 162.69,151.71 162.68,151.72 162.67,151.72 C 162.65,151.73 162.63,151.74 162.61,151.75 C 162.57,151.77 162.52,151.78 162.48,151.8 C 162.46,151.81 162.44,151.82 162.42,151.83 C 162.42,151.83 162.41,151.84 162.41,151.84 C 162.4,151.84 162.41,151.83 162.41,151.82 C 162.41,151.81 162.41,151.8 162.41,151.79 C 162.42,151.71 162.43,151.62 162.44,151.54 C 162.45,151.37 162.47,151.2 162.49,151.03 C 162.5,150.95 162.51,150.86 162.52,150.78 C 162.54,150.59 162.56,150.41 162.49,150.23 C 162.33,149.82 161.88,149.6 161.46,149.74 C 161.26,149.81 161.08,149.96 160.98,150.15 C 160.93,150.26 160.91,150.38 160.9,150.5 C 160.86,150.84 160.83,151.17 160.79,151.51 C 160.75,151.85 160.72,152.19 160.68,152.52 C 160.68,152.57 160.67,152.61 160.67,152.65 C 160.67,152.66 160.67,152.67 160.67,152.68 C 160.67,152.7 160.65,152.69 160.64,152.7 C 160.62,152.71 160.6,152.72 160.58,152.73 C 160.54,152.75 160.5,152.77 160.46,152.79 C 160.44,152.81 160.42,152.82 160.4,152.83 C 160.4,152.83 160.39,152.83 160.39,152.83 C 160.38,152.84 160.38,152.83 160.38,152.82 C 160.38,152.81 160.38,152.8 160.38,152.79 C 160.39,152.62 160.39,152.45 160.4,152.28 C 160.4,152.11 160.41,151.94 160.41,151.77 C 160.42,151.59 160.42,151.42 160.34,151.24 C 160.16,150.84 159.7,150.65 159.3,150.81 C 159.09,150.89 158.93,151.05 158.84,151.25 C 158.79,151.37 158.78,151.49 158.77,151.62 C 158.77,151.7 158.77,151.79 158.77,151.87 C 158.76,152.04 158.76,152.21 158.75,152.38 C 158.74,152.72 158.74,153.06 158.73,153.4 C 158.72,153.48 158.72,153.57 158.72,153.65 C 158.72,153.69 158.72,153.74 158.72,153.78 C 158.72,153.79 158.72,153.8 158.72,153.81 C 158.72,153.83 158.7,153.83 158.69,153.83 C 158.67,153.84 158.65,153.86 158.64,153.87 C 158.6,153.89 158.56,153.92 158.52,153.94 C 158.5,153.95 158.48,153.97 158.47,153.98 C 158.46,153.98 158.45,154.0 158.44,153.98 C 158.44,153.97 158.44,153.96 158.44,153.95 C 158.44,153.87 158.43,153.78 158.43,153.7 C 158.42,153.53 158.41,153.37 158.4,153.21 C 158.4,153.13 158.39,153.05 158.39,152.97 C 158.39,152.86 158.39,152.75 158.37,152.64 C 158.29,152.23 157.92,151.95 157.5,151.98 C 157.08,152.01 156.76,152.35 156.74,152.76 C 156.73,152.95 156.76,153.13 156.77,153.31 C 156.78,153.63 156.8,153.95 156.82,154.27 C 156.83,154.44 156.83,154.6 156.84,154.76 C 156.85,154.84 156.85,154.92 156.85,155.0 C 156.86,155.02 156.86,155.04 156.86,155.06 C 156.86,155.08 156.86,155.1 156.84,155.11 C 156.81,155.14 156.77,155.16 156.74,155.19 C 156.71,155.22 156.67,155.24 156.64,155.27 C 156.63,155.27 156.62,155.28 156.61,155.29 C 156.6,155.29 156.6,155.28 156.6,155.27 C 156.6,155.25 156.6,155.23 156.59,155.21 C 156.58,155.13 156.57,155.05 156.56,154.97 C 156.54,154.81 156.52,154.65 156.5,154.49 C 156.49,154.41 156.48,154.33 156.47,154.25 C 156.45,154.11 156.44,153.97 156.38,153.83 C 156.2,153.45 155.78,153.26 155.38,153.39 C 154.99,153.51 154.76,153.89 154.82,154.29 C 154.9,154.93 154.98,155.57 155.07,156.21 C 155.08,156.29 155.09,156.37 155.1,156.45 C 155.11,156.51 155.12,156.51 155.07,156.56 C 155.04,156.59 155.01,156.61 154.98,156.64 C 154.94,156.67 154.91,156.7 154.88,156.73 C 154.86,156.75 154.86,156.71 154.86,156.69 C 154.86,156.67 154.85,156.65 154.85,156.63 C 154.83,156.55 154.81,156.47 154.8,156.4 C 154.76,156.24 154.73,156.08 154.7,155.92 C 154.68,155.84 154.66,155.76 154.65,155.68 C 154.61,155.51 154.57,155.34 154.45,155.19 C 154.2,154.86 153.74,154.78 153.38,154.99 C 153.19,155.11 153.08,155.25 153.02,155.47 C 152.98,155.62 152.98,155.76 153.02,155.9 C 153.05,156.06 153.08,156.22 153.12,156.38 C 153.18,156.69 153.25,157.01 153.32,157.33 C 153.35,157.48 153.38,157.64 153.42,157.8 C 153.44,157.88 153.45,157.96 153.47,158.04 C 153.47,158.06 153.49,158.07 153.47,158.09 C 153.45,158.11 153.44,158.12 153.42,158.14 C 153.39,158.17 153.36,158.2 153.33,158.23 C 153.32,158.25 153.3,158.26 153.29,158.28 C 153.28,158.29 153.26,158.33 153.25,158.3 C 153.24,158.26 153.23,158.22 153.22,158.18 C 153.19,158.11 153.17,158.03 153.15,157.95 C 153.1,157.8 153.06,157.64 153.01,157.49 C 152.93,157.2 152.89,156.92 152.62,156.71 C 152.29,156.45 151.83,156.49 151.53,156.78 C 151.37,156.94 151.3,157.11 151.3,157.33 C 151.29,157.45 151.32,157.55 151.35,157.65 C 151.44,157.96 151.53,158.27 151.62,158.58 C 151.72,158.9 151.81,159.23 151.91,159.55 C 151.92,159.59 151.93,159.63 151.95,159.67 C 151.95,159.69 151.96,159.71 151.96,159.73 C 151.97,159.74 151.97,159.75 151.97,159.76 C 151.98,159.77 151.97,159.77 151.96,159.77 C 151.96,159.78 151.96,159.78 151.95,159.79 C 151.9,159.85 151.84,159.92 151.78,159.99 C 151.78,160.0 151.77,160.01 151.77,160.0 C 151.76,159.99 151.76,159.98 151.75,159.97 C 151.75,159.95 151.74,159.93 151.73,159.91 C 151.72,159.87 151.7,159.83 151.69,159.79 C 151.66,159.72 151.63,159.64 151.6,159.56 C 151.54,159.4 151.48,159.24 151.42,159.09 C 151.38,159.01 151.35,158.93 151.32,158.85 C 151.17,158.45 150.72,158.23 150.31,158.36 C 149.9,158.5 149.66,158.93 149.76,159.35 C 149.79,159.46 149.84,159.55 149.88,159.66 C 149.94,159.81 150.0,159.97 150.06,160.13 C 150.18,160.44 150.3,160.75 150.42,161.07 C 150.48,161.22 150.54,161.38 150.6,161.54 C 150.61,161.57 150.59,161.58 150.58,161.59 C 150.56,161.61 150.55,161.63 150.54,161.65 C 150.51,161.69 150.49,161.72 150.46,161.76 C 150.45,161.78 150.44,161.8 150.42,161.81 C 150.41,161.83 150.41,161.8 150.41,161.79 C 150.4,161.79 150.4,161.78 150.4,161.77 C 150.38,161.73 150.36,161.69 150.34,161.65 C 150.2,161.35 150.05,161.05 149.91,160.74 C 149.84,160.61 149.77,160.5 149.66,160.41 C 149.49,160.27 149.27,160.21 149.05,160.24 C 148.62,160.29 148.31,160.66 148.33,161.09 C 148.34,161.27 148.41,161.42 148.48,161.57 C 148.52,161.65 148.56,161.72 148.59,161.8 C 148.74,162.1 148.88,162.41 149.03,162.71 C 149.1,162.86 149.17,163.01 149.24,163.16 C 149.28,163.24 149.32,163.32 149.35,163.39 C 149.36,163.41 149.37,163.43 149.38,163.45 C 149.38,163.46 149.38,163.46 149.37,163.46 C 149.37,163.47 149.37,163.47 149.36,163.48 C 149.36,163.49 149.35,163.5 149.35,163.51 C 149.32,163.54 149.3,163.58 149.28,163.62 C 149.27,163.64 149.26,163.66 149.25,163.68 C 149.24,163.69 149.23,163.74 149.21,163.72 C 149.19,163.68 149.17,163.64 149.15,163.61 C 149.11,163.54 149.07,163.46 149.02,163.39 C 148.94,163.24 148.86,163.1 148.77,162.95 C 148.73,162.88 148.69,162.81 148.64,162.73 C 148.61,162.67 148.57,162.6 148.52,162.54 C 148.38,162.37 148.18,162.27 147.97,162.25 C 147.54,162.2 147.15,162.5 147.08,162.93 C 147.03,163.19 147.12,163.38 147.24,163.59 C 147.58,164.17 147.92,164.76 148.25,165.34 C 148.26,165.36 148.27,165.37 148.28,165.39 C 148.29,165.41 148.31,165.42 148.3,165.45 C 148.28,165.49 148.26,165.53 148.24,165.57 C 148.22,165.61 148.2,165.65 148.19,165.69 C 148.18,165.7 148.18,165.71 148.17,165.72 C 148.16,165.73 148.16,165.71 148.15,165.7 C 148.14,165.68 148.13,165.67 148.12,165.65 C 148.02,165.51 147.93,165.37 147.83,165.23 C 147.74,165.1 147.64,164.96 147.55,164.82 C 147.41,164.63 147.29,164.47 147.05,164.39 C 146.64,164.25 146.19,164.46 146.03,164.86 C 145.87,165.24 146.02,165.49 146.22,165.79 C 146.29,165.89 146.36,165.98 146.42,166.08 C 146.56,166.28 146.69,166.47 146.83,166.67 C 146.96,166.86 147.09,167.06 147.23,167.25 C 147.26,167.3 147.29,167.35 147.33,167.4 C 147.35,167.42 147.36,167.45 147.38,167.47 C 147.39,167.48 147.4,167.49 147.39,167.51 C 147.39,167.52 147.38,167.54 147.37,167.55 C 147.35,167.61 147.33,167.67 147.31,167.73 C 147.3,167.74 147.29,167.76 147.29,167.77 C 147.29,167.78 147.28,167.79 147.28,167.79 C 147.28,167.81 147.27,167.79 147.27,167.78 C 147.25,167.76 147.23,167.74 147.21,167.71 C 147.06,167.53 146.91,167.34 146.76,167.16 C 146.69,167.07 146.62,166.98 146.54,166.89 C 146.41,166.72 146.27,166.6 146.05,166.55 C 145.77,166.48 145.46,166.57 145.26,166.79 C 145.05,167.01 144.99,167.33 145.09,167.62 C 145.13,167.75 145.21,167.85 145.3,167.96 C 145.37,168.05 145.45,168.14 145.52,168.23 C 145.67,168.42 145.82,168.6 145.97,168.78 C 146.12,168.97 146.27,169.15 146.42,169.34 C 146.49,169.43 146.56,169.52 146.64,169.61 C 146.65,169.63 146.64,169.64 146.64,169.65 C 146.64,169.67 146.63,169.68 146.63,169.7 C 146.62,169.73 146.61,169.76 146.6,169.79 C 146.59,169.82 146.58,169.85 146.57,169.88 C 146.57,169.89 146.56,169.91 146.56,169.92 C 146.55,169.94 146.54,169.92 146.53,169.91 C 146.37,169.74 146.21,169.57 146.04,169.39 C 145.96,169.31 145.88,169.22 145.8,169.14 C 145.73,169.06 145.66,168.99 145.58,168.93 C 145.33,168.75 145.0,168.73 144.73,168.87 C 144.47,169.01 144.3,169.27 144.29,169.56 C 144.28,169.83 144.36,170.01 144.54,170.19 C 144.62,170.28 144.71,170.37 144.79,170.45 C 144.87,170.54 144.95,170.62 145.03,170.71 C 145.07,170.75 145.11,170.8 145.15,170.84 C 145.17,170.86 145.24,170.94 145.27,170.95 C 145.56,171.03 145.85,171.1 146.14,171.17 C 146.16,171.17 146.18,171.17 146.19,171.18 C 146.2,171.18 146.19,171.17 146.18,171.17 C 146.18,171.17 146.18,171.16 146.17,171.16 C 146.17,171.15 146.16,171.15 146.16,171.14 C 146.13,171.11 146.1,171.08 146.08,171.06 C 146.03,171.0 145.98,170.95 145.92,170.9 C 145.82,170.79 145.72,170.68 145.62,170.57 C 145.41,170.36 145.21,170.14 145.0,169.92 C 144.94,169.86 144.87,169.81 144.83,169.72 C 144.78,169.59 144.81,169.44 144.93,169.36 C 145.04,169.27 145.2,169.28 145.3,169.37 C 145.36,169.42 145.41,169.48 145.47,169.54 C 145.67,169.76 145.88,169.97 146.08,170.19 C 146.29,170.4 146.49,170.62 146.7,170.84 C 146.72,170.86 146.75,170.89 146.77,170.92 C 146.78,170.92 146.79,170.93 146.79,170.94 C 146.79,170.94 146.8,170.94 146.8,170.95 C 146.8,170.95 146.81,170.97 146.81,170.96 C 146.82,170.93 146.83,170.9 146.84,170.87 C 146.87,170.75 146.9,170.63 146.93,170.51 C 147.0,170.27 147.07,170.04 147.14,169.8 C 147.16,169.74 147.18,169.68 147.19,169.63 C 147.2,169.6 147.21,169.57 147.22,169.54 C 147.23,169.53 147.23,169.52 147.22,169.5 C 147.22,169.5 147.21,169.49 147.2,169.48 C 147.16,169.43 147.11,169.37 147.06,169.31 C 146.97,169.19 146.88,169.08 146.78,168.96 C 146.6,168.73 146.41,168.5 146.22,168.27 C 146.09,168.1 145.95,167.94 145.82,167.77 C 145.75,167.69 145.68,167.61 145.62,167.52 C 145.5,167.35 145.58,167.12 145.78,167.06 C 145.89,167.03 145.96,167.04 146.05,167.12 C 146.1,167.16 146.13,167.21 146.17,167.26 C 146.24,167.34 146.31,167.42 146.37,167.5 C 146.51,167.67 146.64,167.83 146.77,168.0 C 146.91,168.16 147.04,168.32 147.17,168.49 C 147.24,168.57 147.31,168.65 147.37,168.74 C 147.39,168.76 147.41,168.78 147.42,168.8 C 147.43,168.81 147.44,168.82 147.45,168.83 C 147.46,168.85 147.46,168.81 147.47,168.8 C 147.5,168.71 147.53,168.63 147.56,168.55 C 147.67,168.22 147.8,167.89 147.93,167.57 C 147.95,167.53 147.96,167.49 147.98,167.45 C 147.99,167.43 147.95,167.39 147.94,167.37 C 147.91,167.33 147.88,167.29 147.85,167.24 C 147.8,167.16 147.74,167.07 147.68,166.98 C 147.44,166.63 147.2,166.28 146.96,165.94 C 146.84,165.76 146.72,165.59 146.6,165.41 C 146.56,165.36 146.51,165.3 146.5,165.23 C 146.47,165.12 146.49,165.04 146.57,164.96 C 146.72,164.81 146.94,164.85 147.05,165.01 C 147.29,165.36 147.53,165.71 147.77,166.06 C 147.89,166.23 148.01,166.41 148.13,166.58 C 148.16,166.62 148.19,166.67 148.22,166.71 C 148.22,166.72 148.23,166.73 148.24,166.74 C 148.24,166.75 148.25,166.75 148.25,166.76 C 148.25,166.77 148.26,166.78 148.26,166.77 C 148.28,166.73 148.3,166.69 148.32,166.65 C 148.39,166.49 148.46,166.33 148.53,166.17 C 148.61,166.02 148.68,165.86 148.76,165.7 C 148.8,165.62 148.83,165.54 148.87,165.47 C 148.88,165.46 148.88,165.45 148.89,165.44 C 148.89,165.43 148.91,165.42 148.9,165.41 C 148.89,165.4 148.88,165.39 148.88,165.38 C 148.86,165.35 148.85,165.33 148.84,165.31 C 148.73,165.12 148.63,164.94 148.52,164.76 C 148.31,164.39 148.1,164.03 147.89,163.66 C 147.83,163.57 147.78,163.48 147.73,163.38 C 147.67,163.28 147.56,163.15 147.59,163.01 C 147.63,162.8 147.86,162.7 148.04,162.8 C 148.14,162.86 148.21,163.03 148.26,163.11 C 148.47,163.48 148.69,163.84 148.9,164.21 C 149.0,164.39 149.11,164.58 149.22,164.76 C 149.22,164.77 149.22,164.77 149.23,164.78 C 149.23,164.79 149.24,164.77 149.24,164.76 C 149.25,164.74 149.26,164.72 149.27,164.7 C 149.29,164.66 149.31,164.62 149.33,164.59 C 149.37,164.51 149.42,164.43 149.46,164.36 C 149.54,164.2 149.63,164.05 149.72,163.9 C 149.76,163.82 149.81,163.75 149.85,163.67 C 149.87,163.64 149.9,163.6 149.92,163.56 C 149.93,163.54 149.94,163.52 149.95,163.51 C 149.96,163.49 149.97,163.48 149.96,163.46 C 149.92,163.36 149.87,163.27 149.83,163.17 C 149.73,162.98 149.64,162.79 149.55,162.6 C 149.37,162.22 149.19,161.84 149.01,161.45 C 148.96,161.36 148.9,161.26 148.87,161.16 C 148.79,160.97 148.93,160.76 149.13,160.75 C 149.25,160.75 149.32,160.78 149.39,160.87 C 149.42,160.92 149.45,160.98 149.47,161.04 C 149.52,161.13 149.56,161.23 149.61,161.32 C 149.79,161.71 149.98,162.09 150.16,162.48 C 150.21,162.57 150.25,162.67 150.3,162.77 C 150.31,162.79 150.32,162.82 150.33,162.84 C 150.34,162.85 150.34,162.88 150.35,162.86 C 150.36,162.85 150.37,162.83 150.39,162.81 C 150.43,162.73 150.48,162.66 150.53,162.59 C 150.72,162.29 150.92,162.0 151.13,161.71 C 151.14,161.7 151.15,161.68 151.17,161.66 C 151.18,161.65 151.19,161.64 151.18,161.61 C 151.17,161.59 151.17,161.56 151.16,161.54 C 151.14,161.49 151.12,161.44 151.1,161.39 C 151.06,161.29 151.02,161.19 150.98,161.09 C 150.91,160.89 150.83,160.69 150.75,160.49 C 150.6,160.09 150.45,159.69 150.29,159.3 C 150.22,159.11 150.26,158.92 150.47,158.86 C 150.58,158.83 150.66,158.84 150.75,158.91 C 150.81,158.96 150.84,159.03 150.86,159.1 C 150.94,159.3 151.02,159.5 151.09,159.7 C 151.25,160.1 151.4,160.5 151.55,160.9 C 151.57,160.95 151.59,161.0 151.61,161.05 C 151.61,161.06 151.62,161.04 151.63,161.04 C 151.63,161.03 151.64,161.02 151.65,161.01 C 151.66,160.99 151.67,160.98 151.69,160.96 C 151.71,160.92 151.74,160.89 151.77,160.85 C 151.87,160.71 151.98,160.57 152.09,160.44 C 152.2,160.3 152.32,160.16 152.43,160.03 C 152.46,159.99 152.48,159.96 152.51,159.93 C 152.52,159.92 152.53,159.91 152.53,159.9 C 152.54,159.89 152.55,159.89 152.55,159.88 C 152.55,159.86 152.54,159.85 152.54,159.84 C 152.52,159.79 152.51,159.74 152.49,159.68 C 152.37,159.28 152.25,158.87 152.13,158.46 C 152.07,158.25 152.01,158.05 151.95,157.84 C 151.92,157.74 151.89,157.64 151.86,157.54 C 151.84,157.47 151.81,157.41 151.82,157.34 C 151.82,157.22 151.87,157.15 151.97,157.1 C 152.15,156.99 152.35,157.1 152.41,157.29 C 152.44,157.39 152.47,157.49 152.5,157.6 C 152.56,157.8 152.62,158.0 152.68,158.21 C 152.74,158.41 152.8,158.62 152.86,158.82 C 152.89,158.93 152.92,159.03 152.96,159.13 C 152.97,159.18 152.99,159.23 153.0,159.28 C 153.0,159.3 153.01,159.31 153.01,159.32 C 153.01,159.33 153.01,159.35 153.02,159.34 C 153.03,159.33 153.03,159.32 153.04,159.32 C 153.07,159.28 153.1,159.25 153.13,159.22 C 153.36,158.95 153.61,158.7 153.85,158.44 C 153.91,158.38 153.97,158.32 154.03,158.26 C 154.05,158.24 154.03,158.19 154.03,158.18 C 154.02,158.15 154.02,158.12 154.01,158.1 C 153.99,157.99 153.97,157.89 153.95,157.78 C 153.86,157.37 153.77,156.95 153.68,156.53 C 153.64,156.32 153.59,156.11 153.55,155.9 C 153.51,155.75 153.46,155.61 153.61,155.48 C 153.76,155.33 154.0,155.39 154.09,155.58 C 154.11,155.63 154.12,155.7 154.13,155.76 C 154.14,155.81 154.15,155.86 154.16,155.91 C 154.19,156.02 154.21,156.12 154.23,156.23 C 154.27,156.43 154.32,156.64 154.36,156.85 C 154.41,157.06 154.45,157.27 154.5,157.48 C 154.51,157.53 154.52,157.58 154.53,157.63 C 154.54,157.66 154.54,157.69 154.55,157.71 C 154.55,157.72 154.55,157.73 154.55,157.73 C 154.55,157.74 154.55,157.74 154.55,157.74 C 154.55,157.75 154.56,157.74 154.56,157.74 C 154.58,157.72 154.59,157.71 154.61,157.69 C 154.74,157.57 154.87,157.45 155.0,157.33 z"
		 />

		<!-- Prism Reference -->
		<cam mingh:cam="--verb EditSelectAll --verb ZoomSelection --verb FileSave " /> 
	 </g>

</svg>
