<svg
   xmlns:xlink="http://www.w3.org/1999/xlink"
   xmlns:svg="http://www.w3.org/2000/svg"
   xmlns="http://www.w3.org/2000/svg"
   xmlns:mingh="http://www.minghworld.com"
   width="300px"
   height="300px" >
	
	 <g>
		
		<!-- Paths -->
		<path transform="matrix(-1 0 0 1 300 0)" style="fill:#ff0;stroke:none;"
		 d="M 149.78,128.09 C 148.44,128.24 147.23,129.06 146.59,130.31 C 145.74,131.98 146.15,134.02 147.56,135.25 C 148.98,136.48 151.03,136.58 152.56,135.5 C 152.65,135.44 152.76,135.53 152.72,135.63 C 152.54,136.07 152.4,136.51 152.25,136.97 C 152.1,137.41 151.98,137.87 151.84,138.31 C 151.82,138.38 151.75,138.41 151.69,138.38 C 151.48,138.25 151.26,138.12 151.03,138.03 C 150.71,137.91 150.37,137.82 150.03,137.78 C 149.69,137.74 149.34,137.75 149.0,137.81 C 148.83,137.84 148.67,137.88 148.5,137.94 C 148.36,137.99 148.2,138.05 148.06,138.13 C 147.86,138.24 147.67,138.38 147.5,138.53 C 147.34,138.68 147.19,138.85 147.06,139.03 C 147.03,139.07 146.98,139.09 146.94,139.06 C 146.51,138.85 146.03,138.66 145.56,138.56 C 145.28,138.5 145.01,138.47 144.72,138.47 C 144.37,138.46 144.03,138.52 143.69,138.59 C 143.35,138.67 143.0,138.78 142.69,138.94 C 142.54,139.01 142.39,139.09 142.25,139.19 C 142.13,139.27 142.02,139.35 141.91,139.44 C 141.88,139.46 141.85,139.48 141.81,139.47 C 141.61,139.43 141.4,139.39 141.19,139.38 C 141.0,139.36 140.82,139.37 140.63,139.38 C 140.28,139.39 139.93,139.44 139.59,139.53 C 139.26,139.62 138.94,139.73 138.63,139.88 C 138.24,140.06 137.9,140.31 137.56,140.56 C 136.84,141.11 136.24,141.8 135.81,142.59 C 135.8,142.62 135.78,142.65 135.75,142.66 C 135.45,142.75 135.14,142.85 134.84,142.97 C 133.82,143.39 132.86,143.98 132.03,144.75 C 131.93,144.85 131.82,144.96 131.72,145.06 C 131.31,145.49 130.94,145.97 130.63,146.47 C 130.31,146.97 130.06,147.51 129.84,148.06 C 129.62,148.62 129.43,149.17 129.28,149.75 C 129.14,150.33 129.05,150.94 128.97,151.53 C 128.8,152.78 128.78,154.06 128.91,155.31 C 129.03,156.55 129.3,157.76 129.72,158.94 C 130.18,160.24 130.81,161.49 131.59,162.63 C 131.6,162.64 131.59,162.64 131.59,162.66 C 131.75,163.24 131.95,163.82 132.19,164.38 C 132.43,164.94 132.72,165.49 133.06,166.0 C 133.24,166.26 133.42,166.51 133.63,166.75 C 133.83,166.99 134.05,167.23 134.28,167.44 C 134.7,167.81 135.16,168.14 135.66,168.41 C 136.14,168.66 136.66,168.86 137.19,169.0 C 137.72,169.14 138.26,169.22 138.81,169.22 C 139.04,169.22 139.27,169.21 139.5,169.19 C 139.54,169.18 139.58,169.16 139.63,169.16 C 139.69,169.15 139.75,169.14 139.81,169.13 C 139.85,169.12 139.88,169.13 139.91,169.16 C 140.19,169.47 140.52,169.77 140.84,170.03 C 141.19,170.31 141.55,170.56 141.94,170.78 C 142.46,171.09 142.99,171.34 143.56,171.53 C 144.13,171.72 144.74,171.83 145.34,171.88 C 145.92,171.91 146.5,171.89 147.06,171.78 C 147.62,171.68 148.16,171.51 148.69,171.28 C 149.13,171.09 149.56,170.86 149.97,170.59 C 150.02,170.56 150.05,170.56 150.09,170.59 C 150.26,170.74 150.46,170.86 150.66,170.97 C 150.76,171.03 150.84,171.1 150.94,171.16 C 151.22,171.3 151.52,171.4 151.81,171.5 C 152.13,171.61 152.45,171.72 152.78,171.78 C 153.09,171.84 153.41,171.89 153.72,171.91 C 153.88,171.92 154.05,171.9 154.22,171.91 C 154.44,171.91 154.65,171.92 154.88,171.91 C 155.32,171.88 155.76,171.81 156.19,171.72 C 156.62,171.63 157.06,171.51 157.47,171.34 C 157.87,171.18 158.26,170.99 158.63,170.75 C 158.97,170.53 159.29,170.25 159.59,169.97 C 159.9,169.69 160.18,169.39 160.44,169.06 C 160.65,168.79 160.88,168.52 161.06,168.22 C 161.1,168.16 161.12,168.09 161.16,168.03 C 161.21,167.93 161.26,167.85 161.31,167.75 C 161.34,167.7 161.35,167.68 161.41,167.69 C 161.58,167.7 161.76,167.69 161.94,167.69 C 162.12,167.68 162.29,167.68 162.47,167.66 C 162.64,167.63 162.83,167.6 163.0,167.56 C 163.29,167.5 163.56,167.44 163.84,167.34 C 164.14,167.25 164.43,167.11 164.72,166.97 C 165.0,166.83 165.28,166.68 165.53,166.5 C 165.75,166.35 165.96,166.21 166.16,166.03 C 166.33,165.88 166.47,165.7 166.63,165.53 C 166.95,165.19 167.27,164.83 167.53,164.44 C 167.8,164.04 168.03,163.64 168.25,163.22 C 168.39,162.95 168.53,162.68 168.66,162.41 C 168.87,161.92 169.06,161.41 169.22,160.91 C 169.54,159.9 169.75,158.84 169.84,157.78 C 169.85,157.74 169.84,157.7 169.84,157.66 C 169.84,157.65 169.87,157.63 169.88,157.63 C 170.11,157.02 170.29,156.4 170.47,155.78 C 170.65,155.15 170.82,154.53 170.94,153.88 C 171.05,153.23 171.12,152.56 171.16,151.91 C 171.18,151.51 171.2,151.11 171.19,150.72 C 171.17,150.07 171.09,149.42 170.97,148.78 C 170.85,148.15 170.7,147.53 170.47,146.94 C 170.35,146.64 170.21,146.38 170.06,146.09 C 169.87,145.73 169.65,145.36 169.41,145.03 C 169.08,144.58 168.74,144.16 168.34,143.78 C 167.95,143.4 167.52,143.07 167.06,142.75 C 166.62,142.44 166.14,142.17 165.66,141.94 C 165.23,141.73 164.79,141.52 164.34,141.38 C 163.45,141.08 162.51,140.93 161.56,140.91 C 161.48,140.9 161.4,140.88 161.31,140.88 C 161.29,140.88 161.24,140.89 161.22,140.88 C 160.45,140.25 159.59,139.73 158.66,139.38 C 158.29,139.23 157.92,139.1 157.53,139.03 C 157.33,138.99 157.14,138.98 156.94,138.97 C 156.73,138.96 156.52,138.97 156.31,139.0 C 156.19,139.02 156.06,139.03 155.94,139.06 C 155.86,139.08 155.79,139.02 155.81,138.94 C 155.97,138.34 156.18,137.77 156.47,137.22 C 156.62,136.93 156.8,136.64 157.0,136.38 C 157.19,136.12 157.41,135.89 157.66,135.69 C 157.89,135.5 158.15,135.36 158.44,135.25 C 158.61,135.18 158.78,135.12 158.97,135.09 C 159.13,135.07 159.28,135.03 159.44,135.0 C 159.5,134.99 159.55,134.94 159.53,134.88 C 159.48,134.72 159.45,134.56 159.41,134.41 C 159.33,134.18 159.22,133.94 159.13,133.72 C 159.02,133.48 158.92,133.28 158.78,133.06 C 158.64,132.84 158.46,132.6 158.28,132.41 C 157.95,132.04 157.56,131.74 157.13,131.5 C 156.69,131.26 156.21,131.1 155.72,131.0 C 155.63,130.98 155.55,130.96 155.47,130.94 C 155.42,130.93 155.4,130.93 155.38,130.97 C 155.32,131.04 155.27,131.12 155.22,131.19 C 155.0,131.46 154.79,131.75 154.59,132.03 C 154.56,132.08 154.53,132.11 154.5,132.16 C 154.44,132.24 154.31,132.2 154.31,132.09 C 154.29,130.22 152.98,128.61 151.16,128.19 C 150.7,128.08 150.23,128.05 149.78,128.09 z M 150.22,130.22 C 150.47,130.22 150.73,130.25 150.97,130.34 C 151.2,130.44 151.41,130.6 151.59,130.78 C 151.77,130.96 151.93,131.17 152.03,131.41 C 152.13,131.64 152.19,131.9 152.19,132.16 C 152.19,132.41 152.13,132.67 152.03,132.91 C 151.93,133.14 151.77,133.35 151.59,133.53 C 151.41,133.71 151.2,133.87 150.97,133.97 C 150.73,134.07 150.47,134.09 150.22,134.09 C 149.96,134.09 149.7,134.07 149.47,133.97 C 149.23,133.87 149.02,133.71 148.84,133.53 C 148.66,133.35 148.54,133.14 148.44,132.91 C 148.34,132.67 148.28,132.41 148.28,132.16 C 148.28,131.9 148.34,131.64 148.44,131.41 C 148.54,131.17 148.66,130.96 148.84,130.78 C 149.02,130.6 149.23,130.44 149.47,130.34 C 149.7,130.25 149.96,130.22 150.22,130.22 z M 158.09,148.44 C 158.14,148.42 158.2,148.45 158.22,148.5 C 158.42,148.9 158.59,149.34 158.69,149.78 C 158.88,150.66 158.77,151.57 158.31,152.28 C 157.87,152.98 157.11,153.46 156.19,153.66 C 155.38,153.82 154.46,153.77 153.69,153.41 C 153.52,153.33 153.36,153.23 153.22,153.13 C 153.02,152.98 152.83,152.8 152.72,152.59 C 152.54,152.27 152.51,151.87 152.56,151.5 C 152.57,151.45 152.67,151.42 152.69,151.47 C 152.78,151.69 152.92,151.9 153.09,152.09 C 153.29,152.32 153.52,152.52 153.81,152.59 C 154.05,152.65 154.31,152.64 154.53,152.56 C 154.77,152.48 154.99,152.3 155.09,152.09 C 155.17,151.94 155.19,151.77 155.16,151.59 C 155.12,151.38 154.99,151.18 154.84,151.0 C 154.72,150.85 154.58,150.71 154.44,150.59 C 154.39,150.55 154.39,150.48 154.44,150.44 C 155.06,149.91 155.76,149.43 156.5,149.06 C 157.01,148.81 157.54,148.6 158.09,148.44 z M 144.66,148.5 C 145.19,148.67 145.7,148.87 146.22,149.13 C 146.95,149.49 147.65,149.97 148.28,150.5 C 148.33,150.54 148.33,150.61 148.28,150.66 C 148.13,150.78 148.0,150.91 147.88,151.06 C 147.72,151.24 147.61,151.44 147.56,151.66 C 147.53,151.83 147.54,152.0 147.63,152.16 C 147.73,152.36 147.94,152.54 148.19,152.63 C 148.42,152.71 148.7,152.72 148.94,152.66 C 149.23,152.58 149.48,152.38 149.69,152.16 C 149.86,151.96 150.0,151.75 150.09,151.53 C 150.12,151.48 150.18,151.51 150.19,151.56 C 150.24,151.93 150.22,152.33 150.03,152.66 C 149.84,153.0 149.47,153.28 149.06,153.47 C 148.28,153.83 147.32,153.89 146.47,153.72 C 145.49,153.53 144.63,153.04 144.13,152.34 C 143.61,151.63 143.49,150.72 143.81,149.84 C 143.98,149.4 144.24,148.93 144.53,148.53 C 144.56,148.49 144.6,148.48 144.66,148.5 z M 162.22,152.47 C 162.63,152.46 163.07,152.63 163.44,152.84 C 163.87,153.1 164.23,153.43 164.5,153.84 C 164.92,154.5 165.13,155.33 165.0,156.09 C 164.89,156.73 164.52,157.32 164.16,157.88 C 163.63,158.66 163.07,159.39 162.5,160.13 C 161.73,161.1 160.93,162.08 160.03,162.94 C 159.35,163.58 158.61,164.15 157.84,164.69 C 157.81,164.71 157.77,164.7 157.75,164.66 C 157.45,163.97 157.04,163.35 156.56,162.78 C 156.22,162.37 155.83,161.99 155.41,161.66 C 155.37,161.63 155.34,161.62 155.31,161.66 C 154.75,162.25 154.24,162.87 153.72,163.5 C 153.33,163.97 152.93,164.45 152.56,164.94 C 152.53,164.98 152.46,164.96 152.44,164.91 C 152.18,164.35 151.89,163.81 151.59,163.28 C 151.29,162.75 150.97,162.25 150.63,161.75 C 150.6,161.71 150.56,161.71 150.53,161.75 C 150.32,162.12 150.09,162.49 149.91,162.88 C 149.65,163.43 149.44,163.98 149.25,164.56 C 149.23,164.62 149.16,164.65 149.13,164.59 C 148.69,163.87 148.2,163.14 147.69,162.47 C 147.36,162.04 147.01,161.63 146.66,161.22 C 146.63,161.18 146.59,161.18 146.56,161.22 C 146.38,161.5 146.22,161.81 146.09,162.13 C 145.98,162.42 145.88,162.72 145.81,163.03 C 145.73,163.42 145.69,163.82 145.69,164.22 C 145.69,164.27 145.64,164.31 145.59,164.28 C 144.78,163.78 143.99,163.25 143.25,162.66 C 142.64,162.17 142.06,161.63 141.5,161.09 C 140.84,160.45 140.22,159.78 139.63,159.06 C 139.11,158.44 138.59,157.78 138.28,157.03 C 138.03,156.42 137.93,155.74 138.03,155.09 C 138.1,154.62 138.29,154.15 138.56,153.75 C 138.88,153.28 139.3,152.89 139.84,152.66 C 140.26,152.48 140.72,152.4 141.09,152.59 C 141.26,152.68 141.42,152.82 141.53,152.97 C 141.57,153.02 141.53,153.07 141.47,153.06 C 141.37,153.05 141.26,153.08 141.16,153.09 C 141.02,153.12 140.87,153.15 140.75,153.22 C 140.56,153.33 140.43,153.51 140.31,153.69 C 140.12,153.98 140.0,154.33 139.97,154.69 C 139.93,155.12 139.99,155.54 140.16,155.94 C 140.36,156.42 140.75,156.84 141.16,157.19 C 141.58,157.55 142.02,157.85 142.5,158.13 C 143.05,158.44 143.63,158.74 144.22,158.97 C 144.7,159.16 145.21,159.27 145.72,159.38 C 145.78,159.39 145.84,159.35 145.84,159.28 C 145.85,159.05 145.88,158.82 145.94,158.59 C 145.97,158.46 146.01,158.32 146.06,158.19 C 146.08,158.13 146.16,158.14 146.19,158.19 C 146.38,158.52 146.58,158.82 146.81,159.13 C 147.19,159.63 147.63,160.11 148.09,160.53 C 148.39,160.8 148.71,161.04 149.03,161.28 C 149.08,161.32 149.16,161.28 149.16,161.22 C 149.13,160.92 149.12,160.62 149.13,160.31 C 149.14,159.83 149.19,159.33 149.34,158.88 C 149.39,158.75 149.41,158.65 149.47,158.53 C 149.49,158.48 149.56,158.45 149.59,158.5 C 149.82,158.86 150.05,159.23 150.31,159.56 C 150.72,160.09 151.19,160.58 151.69,161.03 C 151.92,161.25 152.15,161.46 152.41,161.66 C 152.44,161.69 152.47,161.69 152.5,161.66 C 153.03,161.09 153.55,160.5 154.0,159.88 C 154.32,159.43 154.63,158.95 154.91,158.47 C 154.94,158.41 155.01,158.44 155.03,158.5 C 155.08,158.66 155.1,158.83 155.13,159.0 C 155.16,159.24 155.19,159.47 155.19,159.72 C 155.19,159.75 155.2,159.77 155.22,159.78 C 155.24,159.8 155.26,159.79 155.28,159.78 C 155.55,159.67 155.81,159.57 156.06,159.44 C 156.58,159.17 157.1,158.83 157.53,158.44 C 157.85,158.15 158.13,157.82 158.38,157.47 C 158.4,157.43 158.47,157.43 158.5,157.47 C 158.67,157.73 158.82,157.99 158.94,158.28 C 159.06,158.56 159.15,158.86 159.22,159.16 C 159.23,159.23 159.31,159.25 159.38,159.22 C 159.63,159.08 159.88,158.94 160.13,158.78 C 160.48,158.54 160.8,158.28 161.13,158.0 C 161.57,157.62 161.99,157.18 162.31,156.69 C 162.68,156.12 162.96,155.45 162.94,154.78 C 162.92,154.42 162.82,154.09 162.63,153.78 C 162.42,153.47 162.1,153.22 161.75,153.13 C 161.59,153.08 161.42,153.08 161.25,153.09 C 161.19,153.1 161.15,153.02 161.19,152.97 C 161.22,152.92 161.27,152.86 161.31,152.81 C 161.45,152.68 161.63,152.59 161.81,152.53 C 161.94,152.49 162.08,152.47 162.22,152.47 z M 151.59,153.34 C 151.61,153.34 151.64,153.34 151.66,153.34 C 152.04,153.48 152.39,153.67 152.72,153.91 C 153.5,154.47 154.04,155.36 154.28,156.25 C 154.3,156.3 154.24,156.36 154.19,156.34 C 153.42,156.09 152.63,155.91 151.81,155.88 C 150.77,155.83 149.69,155.99 148.69,156.31 C 148.63,156.33 148.58,156.27 148.59,156.22 C 148.75,155.59 149.05,154.96 149.53,154.47 C 150.07,153.93 150.81,153.56 151.59,153.34 z" />
		
		
		<text id="txtTwo" transform="matrix(1 0 0 1 150 160)" style="stroke:none;fill:#f00;font-family:'Eras Medium ITC';font-size:20px;text-anchor:middle"  >

		</text>
		<!-- Prism Reference -->
		<cam mingh:cam=" --verb EditSelectAll --verb ZoomSelection --verb FileSave "/> 
	 </g>

</svg>