<svg
   xmlns:xlink="http://www.w3.org/1999/xlink"
   xmlns:svg="http://www.w3.org/2000/svg"
   xmlns="http://www.w3.org/2000/svg"
   xmlns:mingh="http://www.minghworld.com"
   width="300px"
   height="300px" >
	
	 <g>
		
		<!-- Paths -->
		<path transform="matrix(-1 0 0 1 300 0)" style="fill:#ff0;stroke:none;"
		 d="M 149.56,125.94 C 148.46,126.06 147.41,126.63 146.72,127.56 C 145.61,129.06 145.67,131.12 146.84,132.56 C 146.96,132.7 146.82,132.9 146.66,132.84 C 144.43,132.13 141.46,131.57 139.09,131.63 C 138.46,131.64 137.84,131.69 137.22,131.88 C 136.64,132.05 136.17,132.32 135.69,132.66 C 135.24,132.97 134.69,133.41 134.31,133.81 C 133.88,134.28 133.59,134.8 133.34,135.38 C 132.47,137.45 132.07,140.49 132.0,142.69 C 131.92,145.21 132.21,147.64 132.81,150.09 C 134.01,154.93 136.3,159.5 139.53,163.31 C 142.66,167.0 146.93,170.28 151.44,172.13 C 153.76,173.07 156.35,173.72 158.84,173.97 C 159.97,174.08 161.46,174.13 162.59,173.84 C 163.17,173.7 163.67,173.45 164.16,173.13 C 164.66,172.79 165.13,172.43 165.56,172.0 C 166.42,171.16 166.86,169.86 167.16,168.78 C 167.49,167.55 167.71,166.29 167.84,165.03 C 168.12,162.5 168.03,160.07 167.59,157.56 C 166.75,152.73 164.64,147.87 161.72,143.94 C 158.81,140.02 154.75,136.56 150.38,134.38 C 150.22,134.3 150.26,134.08 150.44,134.06 C 152.29,133.86 153.77,132.41 154.03,130.56 C 154.29,128.72 153.25,126.92 151.53,126.22 C 150.88,125.95 150.22,125.86 149.56,125.94 z M 150.0,128.06 C 151.08,128.06 151.94,128.92 151.94,130.0 C 151.94,131.08 151.08,131.94 150.0,131.94 C 148.92,131.94 148.03,131.08 148.03,130.0 C 148.03,128.92 148.92,128.06 150.0,128.06 z" />
		
		
		<text id="txtTwo" transform="matrix(1 0 0 1 150 160)" style="stroke:none;fill:#f00;font-family:'Eras Medium ITC';font-size:20px;text-anchor:middle"  >

		</text>
		<!-- Prism Reference -->
		<cam mingh:cam="--verb EditSelectAll --verb ZoomSelection --verb FileSave "/> 
	 </g>

</svg>