<svg
   xmlns:xlink="http://www.w3.org/1999/xlink"
   xmlns:svg="http://www.w3.org/2000/svg"
   xmlns="http://www.w3.org/2000/svg"
   xmlns:mingh="http://www.minghworld.com"
   width="300px"
   height="300px" >
	
	 <g>
		
		<!-- Paths -->
		<path style="fill:none;stroke:#000;stroke-width:0.25px;"
			d="M 149.78,128.09 C 148.44,128.24 147.23,129.06 146.59,130.31 C 145.74,131.98 146.15,134.02 147.56,135.25 C 148.98,136.48 151.03,136.58 152.56,135.5 C 152.65,135.44 152.76,135.53 152.72,135.63 C 152.54,136.07 152.4,136.51 152.25,136.97 C 152.1,137.41 151.98,137.87 151.84,138.31 C 151.82,138.38 151.75,138.41 151.69,138.38 C 151.48,138.25 151.26,138.12 151.03,138.03 C 150.71,137.91 150.37,137.82 150.03,137.78 C 149.69,137.74 149.34,137.75 149.0,137.81 C 148.83,137.84 148.67,137.88 148.5,137.94 C 148.36,137.99 148.2,138.05 148.06,138.13 C 147.86,138.24 147.67,138.38 147.5,138.53 C 147.34,138.68 147.19,138.85 147.06,139.03 C 147.03,139.07 146.98,139.09 146.94,139.06 C 146.51,138.85 146.03,138.66 145.56,138.56 C 145.28,138.5 145.01,138.47 144.72,138.47 C 144.37,138.46 144.03,138.52 143.69,138.59 C 143.35,138.67 143.0,138.78 142.69,138.94 C 142.54,139.01 142.39,139.09 142.25,139.19 C 142.13,139.27 142.02,139.35 141.91,139.44 C 141.88,139.46 141.85,139.48 141.81,139.47 C 141.61,139.43 141.4,139.39 141.19,139.38 C 141.0,139.36 140.82,139.37 140.63,139.38 C 140.28,139.39 139.93,139.44 139.59,139.53 C 139.26,139.62 138.94,139.73 138.63,139.88 C 138.24,140.06 137.9,140.31 137.56,140.56 C 136.84,141.11 136.24,141.8 135.81,142.59 C 135.8,142.62 135.78,142.65 135.75,142.66 C 135.45,142.75 135.14,142.85 134.84,142.97 C 133.82,143.39 132.86,143.98 132.03,144.75 C 131.93,144.85 131.82,144.96 131.72,145.06 C 131.31,145.49 130.94,145.97 130.63,146.47 C 130.31,146.97 130.06,147.51 129.84,148.06 C 129.62,148.62 129.43,149.17 129.28,149.75 C 129.14,150.33 129.05,150.94 128.97,151.53 C 128.8,152.78 128.78,154.06 128.91,155.31 C 129.03,156.55 129.3,157.76 129.72,158.94 C 130.18,160.24 130.81,161.49 131.59,162.63 C 131.6,162.64 131.59,162.64 131.59,162.66 C 131.75,163.24 131.95,163.82 132.19,164.38 C 132.43,164.94 132.72,165.49 133.06,166.0 C 133.24,166.26 133.42,166.51 133.63,166.75 C 133.83,166.99 134.05,167.23 134.28,167.44 C 134.7,167.81 135.16,168.14 135.66,168.41 C 136.14,168.66 136.66,168.86 137.19,169.0 C 137.72,169.14 138.26,169.22 138.81,169.22 C 139.04,169.22 139.27,169.21 139.5,169.19 C 139.54,169.18 139.58,169.16 139.63,169.16 C 139.69,169.15 139.75,169.14 139.81,169.13 C 139.85,169.12 139.88,169.13 139.91,169.16 C 140.19,169.47 140.52,169.77 140.84,170.03 C 141.19,170.31 141.55,170.56 141.94,170.78 C 142.46,171.09 142.99,171.34 143.56,171.53 C 144.13,171.72 144.74,171.83 145.34,171.88 C 145.92,171.91 146.5,171.89 147.06,171.78 C 147.62,171.68 148.16,171.51 148.69,171.28 C 149.13,171.09 149.56,170.86 149.97,170.59 C 150.02,170.56 150.05,170.56 150.09,170.59 C 150.26,170.74 150.46,170.86 150.66,170.97 C 150.76,171.03 150.84,171.1 150.94,171.16 C 151.22,171.3 151.52,171.4 151.81,171.5 C 152.13,171.61 152.45,171.72 152.78,171.78 C 153.09,171.84 153.41,171.89 153.72,171.91 C 153.88,171.92 154.05,171.9 154.22,171.91 C 154.44,171.91 154.65,171.92 154.88,171.91 C 155.32,171.88 155.76,171.81 156.19,171.72 C 156.62,171.63 157.06,171.51 157.47,171.34 C 157.87,171.18 158.26,170.99 158.63,170.75 C 158.97,170.53 159.29,170.25 159.59,169.97 C 159.9,169.69 160.18,169.39 160.44,169.06 C 160.65,168.79 160.88,168.52 161.06,168.22 C 161.1,168.16 161.12,168.09 161.16,168.03 C 161.21,167.93 161.26,167.85 161.31,167.75 C 161.34,167.7 161.35,167.68 161.41,167.69 C 161.58,167.7 161.76,167.69 161.94,167.69 C 162.12,167.68 162.29,167.68 162.47,167.66 C 162.64,167.63 162.83,167.6 163.0,167.56 C 163.29,167.5 163.56,167.44 163.84,167.34 C 164.14,167.25 164.43,167.11 164.72,166.97 C 165.0,166.83 165.28,166.68 165.53,166.5 C 165.75,166.35 165.96,166.21 166.16,166.03 C 166.33,165.88 166.47,165.7 166.63,165.53 C 166.95,165.19 167.27,164.83 167.53,164.44 C 167.8,164.04 168.03,163.64 168.25,163.22 C 168.39,162.95 168.53,162.68 168.66,162.41 C 168.87,161.92 169.06,161.41 169.22,160.91 C 169.54,159.9 169.75,158.84 169.84,157.78 C 169.85,157.74 169.84,157.7 169.84,157.66 C 169.84,157.65 169.87,157.63 169.88,157.63 C 170.11,157.02 170.29,156.4 170.47,155.78 C 170.65,155.15 170.82,154.53 170.94,153.88 C 171.05,153.23 171.12,152.56 171.16,151.91 C 171.18,151.51 171.2,151.11 171.19,150.72 C 171.17,150.07 171.09,149.42 170.97,148.78 C 170.85,148.15 170.7,147.53 170.47,146.94 C 170.35,146.64 170.21,146.38 170.06,146.09 C 169.87,145.73 169.65,145.36 169.41,145.03 C 169.08,144.58 168.74,144.16 168.34,143.78 C 167.95,143.4 167.52,143.07 167.06,142.75 C 166.62,142.44 166.14,142.17 165.66,141.94 C 165.23,141.73 164.79,141.52 164.34,141.38 C 163.45,141.08 162.51,140.93 161.56,140.91 C 161.48,140.9 161.4,140.88 161.31,140.88 C 161.29,140.88 161.24,140.89 161.22,140.88 C 160.45,140.25 159.59,139.73 158.66,139.38 C 158.29,139.23 157.92,139.1 157.53,139.03 C 157.33,138.99 157.14,138.98 156.94,138.97 C 156.73,138.96 156.52,138.97 156.31,139.0 C 156.19,139.02 156.06,139.03 155.94,139.06 C 155.86,139.08 155.79,139.02 155.81,138.94 C 155.97,138.34 156.18,137.77 156.47,137.22 C 156.62,136.93 156.8,136.64 157.0,136.38 C 157.19,136.12 157.41,135.89 157.66,135.69 C 157.89,135.5 158.15,135.36 158.44,135.25 C 158.61,135.18 158.78,135.12 158.97,135.09 C 159.13,135.07 159.28,135.03 159.44,135.0 C 159.5,134.99 159.55,134.94 159.53,134.88 C 159.48,134.72 159.45,134.56 159.41,134.41 C 159.33,134.18 159.22,133.94 159.13,133.72 C 159.02,133.48 158.92,133.28 158.78,133.06 C 158.64,132.84 158.46,132.6 158.28,132.41 C 157.95,132.04 157.56,131.74 157.13,131.5 C 156.69,131.26 156.21,131.1 155.72,131.0 C 155.63,130.98 155.55,130.96 155.47,130.94 C 155.42,130.93 155.4,130.93 155.38,130.97 C 155.32,131.04 155.27,131.12 155.22,131.19 C 155.0,131.46 154.79,131.75 154.59,132.03 C 154.56,132.08 154.53,132.11 154.5,132.16 C 154.44,132.24 154.31,132.2 154.31,132.09 C 154.29,130.22 152.98,128.61 151.16,128.19 C 150.7,128.08 150.23,128.05 149.78,128.09 z M 150.22,130.22 C 150.47,130.22 150.73,130.25 150.97,130.34 C 151.2,130.44 151.41,130.6 151.59,130.78 C 151.77,130.96 151.93,131.17 152.03,131.41 C 152.13,131.64 152.19,131.9 152.19,132.16 C 152.19,132.41 152.13,132.67 152.03,132.91 C 151.93,133.14 151.77,133.35 151.59,133.53 C 151.41,133.71 151.2,133.87 150.97,133.97 C 150.73,134.07 150.47,134.09 150.22,134.09 C 149.96,134.09 149.7,134.07 149.47,133.97 C 149.23,133.87 149.02,133.71 148.84,133.53 C 148.66,133.35 148.54,133.14 148.44,132.91 C 148.34,132.67 148.28,132.41 148.28,132.16 C 148.28,131.9 148.34,131.64 148.44,131.41 C 148.54,131.17 148.66,130.96 148.84,130.78 C 149.02,130.6 149.23,130.44 149.47,130.34 C 149.7,130.25 149.96,130.22 150.22,130.22 z M 158.09,148.44 C 158.14,148.42 158.2,148.45 158.22,148.5 C 158.42,148.9 158.59,149.34 158.69,149.78 C 158.88,150.66 158.77,151.57 158.31,152.28 C 157.87,152.98 157.11,153.46 156.19,153.66 C 155.38,153.82 154.46,153.77 153.69,153.41 C 153.52,153.33 153.36,153.23 153.22,153.13 C 153.02,152.98 152.83,152.8 152.72,152.59 C 152.54,152.27 152.51,151.87 152.56,151.5 C 152.57,151.45 152.67,151.42 152.69,151.47 C 152.78,151.69 152.92,151.9 153.09,152.09 C 153.29,152.32 153.52,152.52 153.81,152.59 C 154.05,152.65 154.31,152.64 154.53,152.56 C 154.77,152.48 154.99,152.3 155.09,152.09 C 155.17,151.94 155.19,151.77 155.16,151.59 C 155.12,151.38 154.99,151.18 154.84,151.0 C 154.72,150.85 154.58,150.71 154.44,150.59 C 154.39,150.55 154.39,150.48 154.44,150.44 C 155.06,149.91 155.76,149.43 156.5,149.06 C 157.01,148.81 157.54,148.6 158.09,148.44 z M 144.66,148.5 C 145.19,148.67 145.7,148.87 146.22,149.13 C 146.95,149.49 147.65,149.97 148.28,150.5 C 148.33,150.54 148.33,150.61 148.28,150.66 C 148.13,150.78 148.0,150.91 147.88,151.06 C 147.72,151.24 147.61,151.44 147.56,151.66 C 147.53,151.83 147.54,152.0 147.63,152.16 C 147.73,152.36 147.94,152.54 148.19,152.63 C 148.42,152.71 148.7,152.72 148.94,152.66 C 149.23,152.58 149.48,152.38 149.69,152.16 C 149.86,151.96 150.0,151.75 150.09,151.53 C 150.12,151.48 150.18,151.51 150.19,151.56 C 150.24,151.93 150.22,152.33 150.03,152.66 C 149.84,153.0 149.47,153.28 149.06,153.47 C 148.28,153.83 147.32,153.89 146.47,153.72 C 145.49,153.53 144.63,153.04 144.13,152.34 C 143.61,151.63 143.49,150.72 143.81,149.84 C 143.98,149.4 144.24,148.93 144.53,148.53 C 144.56,148.49 144.6,148.48 144.66,148.5 z M 162.22,152.47 C 162.63,152.46 163.07,152.63 163.44,152.84 C 163.87,153.1 164.23,153.43 164.5,153.84 C 164.92,154.5 165.13,155.33 165.0,156.09 C 164.89,156.73 164.52,157.32 164.16,157.88 C 163.63,158.66 163.07,159.39 162.5,160.13 C 161.73,161.1 160.93,162.08 160.03,162.94 C 159.35,163.58 158.61,164.15 157.84,164.69 C 157.81,164.71 157.77,164.7 157.75,164.66 C 157.45,163.97 157.04,163.35 156.56,162.78 C 156.22,162.37 155.83,161.99 155.41,161.66 C 155.37,161.63 155.34,161.62 155.31,161.66 C 154.75,162.25 154.24,162.87 153.72,163.5 C 153.33,163.97 152.93,164.45 152.56,164.94 C 152.53,164.98 152.46,164.96 152.44,164.91 C 152.18,164.35 151.89,163.81 151.59,163.28 C 151.29,162.75 150.97,162.25 150.63,161.75 C 150.6,161.71 150.56,161.71 150.53,161.75 C 150.32,162.12 150.09,162.49 149.91,162.88 C 149.65,163.43 149.44,163.98 149.25,164.56 C 149.23,164.62 149.16,164.65 149.13,164.59 C 148.69,163.87 148.2,163.14 147.69,162.47 C 147.36,162.04 147.01,161.63 146.66,161.22 C 146.63,161.18 146.59,161.18 146.56,161.22 C 146.38,161.5 146.22,161.81 146.09,162.13 C 145.98,162.42 145.88,162.72 145.81,163.03 C 145.73,163.42 145.69,163.82 145.69,164.22 C 145.69,164.27 145.64,164.31 145.59,164.28 C 144.78,163.78 143.99,163.25 143.25,162.66 C 142.64,162.17 142.06,161.63 141.5,161.09 C 140.84,160.45 140.22,159.78 139.63,159.06 C 139.11,158.44 138.59,157.78 138.28,157.03 C 138.03,156.42 137.93,155.74 138.03,155.09 C 138.1,154.62 138.29,154.15 138.56,153.75 C 138.88,153.28 139.3,152.89 139.84,152.66 C 140.26,152.48 140.72,152.4 141.09,152.59 C 141.26,152.68 141.42,152.82 141.53,152.97 C 141.57,153.02 141.53,153.07 141.47,153.06 C 141.37,153.05 141.26,153.08 141.16,153.09 C 141.02,153.12 140.87,153.15 140.75,153.22 C 140.56,153.33 140.43,153.51 140.31,153.69 C 140.12,153.98 140.0,154.33 139.97,154.69 C 139.93,155.12 139.99,155.54 140.16,155.94 C 140.36,156.42 140.75,156.84 141.16,157.19 C 141.58,157.55 142.02,157.85 142.5,158.13 C 143.05,158.44 143.63,158.74 144.22,158.97 C 144.7,159.16 145.21,159.27 145.72,159.38 C 145.78,159.39 145.84,159.35 145.84,159.28 C 145.85,159.05 145.88,158.82 145.94,158.59 C 145.97,158.46 146.01,158.32 146.06,158.19 C 146.08,158.13 146.16,158.14 146.19,158.19 C 146.38,158.52 146.58,158.82 146.81,159.13 C 147.19,159.63 147.63,160.11 148.09,160.53 C 148.39,160.8 148.71,161.04 149.03,161.28 C 149.08,161.32 149.16,161.28 149.16,161.22 C 149.13,160.92 149.12,160.62 149.13,160.31 C 149.14,159.83 149.19,159.33 149.34,158.88 C 149.39,158.75 149.41,158.65 149.47,158.53 C 149.49,158.48 149.56,158.45 149.59,158.5 C 149.82,158.86 150.05,159.23 150.31,159.56 C 150.72,160.09 151.19,160.58 151.69,161.03 C 151.92,161.25 152.15,161.46 152.41,161.66 C 152.44,161.69 152.47,161.69 152.5,161.66 C 153.03,161.09 153.55,160.5 154.0,159.88 C 154.32,159.43 154.63,158.95 154.91,158.47 C 154.94,158.41 155.01,158.44 155.03,158.5 C 155.08,158.66 155.1,158.83 155.13,159.0 C 155.16,159.24 155.19,159.47 155.19,159.72 C 155.19,159.75 155.2,159.77 155.22,159.78 C 155.24,159.8 155.26,159.79 155.28,159.78 C 155.55,159.67 155.81,159.57 156.06,159.44 C 156.58,159.17 157.1,158.83 157.53,158.44 C 157.85,158.15 158.13,157.82 158.38,157.47 C 158.4,157.43 158.47,157.43 158.5,157.47 C 158.67,157.73 158.82,157.99 158.94,158.28 C 159.06,158.56 159.15,158.86 159.22,159.16 C 159.23,159.23 159.31,159.25 159.38,159.22 C 159.63,159.08 159.88,158.94 160.13,158.78 C 160.48,158.54 160.8,158.28 161.13,158.0 C 161.57,157.62 161.99,157.18 162.31,156.69 C 162.68,156.12 162.96,155.45 162.94,154.78 C 162.92,154.42 162.82,154.09 162.63,153.78 C 162.42,153.47 162.1,153.22 161.75,153.13 C 161.59,153.08 161.42,153.08 161.25,153.09 C 161.19,153.1 161.15,153.02 161.19,152.97 C 161.22,152.92 161.27,152.86 161.31,152.81 C 161.45,152.68 161.63,152.59 161.81,152.53 C 161.94,152.49 162.08,152.47 162.22,152.47 z M 151.59,153.34 C 151.61,153.34 151.64,153.34 151.66,153.34 C 152.04,153.48 152.39,153.67 152.72,153.91 C 153.5,154.47 154.04,155.36 154.28,156.25 C 154.3,156.3 154.24,156.36 154.19,156.34 C 153.42,156.09 152.63,155.91 151.81,155.88 C 150.77,155.83 149.69,155.99 148.69,156.31 C 148.63,156.33 148.58,156.27 148.59,156.22 C 148.75,155.59 149.05,154.96 149.53,154.47 C 150.07,153.93 150.81,153.56 151.59,153.34 z"
		 />
		 <path style="fill:#f00;stroke:none;"
			d="M 140.57,152.34 C 140.57,152.34 140.56,152.34 140.56,152.34 C 140.54,152.34 140.52,152.34 140.5,152.35 C 140.64,150.71 141.38,149.13 142.52,147.81 C 142.8,147.48 143.1,147.17 143.43,146.89 C 143.29,146.72 143.14,146.56 142.97,146.41 C 142.32,145.84 141.47,145.52 140.59,145.43 C 138.94,145.25 137.21,145.91 135.92,146.99 C 137.04,146.01 138.4,145.28 139.82,144.93 C 140.44,144.78 141.07,144.71 141.69,144.78 C 142.4,144.86 143.09,145.14 143.64,145.59 C 143.88,145.79 144.09,146.02 144.27,146.27 C 144.59,146.08 144.93,145.91 145.28,145.79 C 146.15,145.49 147.11,145.45 148.01,145.67 C 149.29,145.99 150.43,146.81 151.37,147.87 C 152.34,146.91 153.5,146.16 154.84,145.95 C 156.02,145.76 157.35,146.01 158.37,146.65 C 159.41,147.3 160.12,148.35 160.61,149.59 C 160.28,149.04 159.85,148.54 159.35,148.14 C 158.47,147.43 157.34,147.01 156.2,146.96 C 155.32,146.93 154.43,147.11 153.69,147.53 C 153.09,147.87 152.58,148.37 152.16,148.93 C 151.91,149.27 151.69,149.62 151.5,149.99 C 150.98,149.03 150.23,148.17 149.31,147.57 C 148.72,147.18 148.05,146.9 147.36,146.81 C 146.66,146.72 145.94,146.83 145.28,147.08 C 144.22,147.47 143.32,148.22 142.56,149.08 C 141.7,150.05 141.02,151.15 140.57,152.34 z M 161.37,161.73 C 161.56,161.51 161.75,161.28 161.94,161.06 C 161.97,162.03 161.94,162.89 161.85,163.74 C 161.78,164.35 161.68,164.96 161.53,165.56 C 162.19,165.67 162.89,165.65 163.49,165.44 C 164.39,165.11 165.1,164.34 165.68,163.54 C 166.2,162.83 166.62,162.09 166.94,161.31 C 167.47,160.04 167.73,158.63 167.86,157.23 C 168.0,155.62 167.97,154.0 167.63,152.45 C 167.28,150.83 166.6,149.28 165.67,147.88 C 164.98,146.86 164.15,145.91 163.1,145.31 C 162.58,145.02 162.0,144.8 161.41,144.73 C 160.56,144.61 159.69,144.77 158.87,145.05 C 158.31,145.25 157.77,145.49 157.27,145.81 C 158.07,145.13 159.01,144.59 160.01,144.26 C 160.24,144.18 160.48,144.12 160.72,144.07 C 161.25,143.96 161.8,143.94 162.33,144.02 C 163.27,144.17 164.15,144.64 164.87,145.26 C 165.85,146.09 166.54,147.18 167.14,148.31 C 167.86,149.66 168.45,151.05 168.84,152.52 C 169.29,154.21 169.47,156.0 169.32,157.74 C 169.17,159.37 168.74,160.96 168.03,162.46 C 167.4,163.79 166.55,165.05 165.5,165.88 C 164.78,166.44 163.97,166.8 162.97,167.02 C 162.39,167.15 161.74,167.23 161.02,167.09 C 160.89,167.39 160.74,167.68 160.57,167.96 C 159.93,169.04 158.99,169.95 157.94,170.53 C 156.76,171.18 155.44,171.42 154.1,171.38 C 153.19,171.36 152.26,171.2 151.24,170.7 C 150.84,170.5 150.41,170.24 150.1,169.86 C 149.6,170.23 149.06,170.54 148.48,170.79 C 147.5,171.21 146.43,171.43 145.38,171.36 C 144.27,171.28 143.18,170.89 142.2,170.31 C 141.39,169.84 140.65,169.24 140.08,168.53 C 139.86,168.59 139.64,168.63 139.41,168.65 C 137.84,168.83 136.15,168.27 134.91,167.27 C 133.25,165.94 132.39,163.84 131.93,161.71 C 131.33,158.95 131.39,156.14 132.15,153.51 C 132.61,151.92 133.31,150.4 134.21,149.02 C 133.4,150.71 132.85,152.54 132.63,154.4 C 132.42,156.22 132.53,158.07 132.89,159.88 C 133.16,161.2 133.56,162.51 134.18,163.7 C 134.73,164.77 135.46,165.76 136.55,166.4 C 137.13,166.75 137.82,166.99 138.49,167.0 C 138.71,167.0 138.92,166.97 139.13,166.93 C 138.78,166.1 138.58,165.2 138.45,164.34 C 138.26,163.01 138.26,161.74 138.43,160.62 C 138.54,159.89 138.73,159.23 138.96,158.45 C 139.05,158.58 139.14,158.7 139.24,158.81 C 139.24,159.79 139.29,160.65 139.38,161.54 C 139.55,163.22 139.85,165.01 140.94,166.69 C 141.59,167.7 142.54,168.67 143.7,169.17 C 144.64,169.57 145.73,169.66 146.75,169.46 C 147.97,169.23 149.1,168.6 150.01,167.78 C 150.91,168.8 152.1,169.64 153.41,169.91 C 154.53,170.14 155.74,169.94 156.78,169.45 C 158.29,168.75 159.46,167.42 160.19,166.02 C 160.68,165.08 160.97,164.11 161.18,163.01 C 161.25,162.6 161.32,162.18 161.37,161.73 z M 142.16,144.32 C 142.06,144.3 141.96,144.28 141.86,144.27 C 141.63,144.24 141.39,144.22 141.15,144.23 C 140.92,144.23 140.68,144.25 140.45,144.28 C 140.18,144.31 139.91,144.36 139.64,144.43 C 138.99,144.59 138.36,144.83 137.76,145.12 C 137.31,145.34 136.88,145.6 136.48,145.88 C 136.16,146.1 135.85,146.33 135.57,146.59 C 135.13,146.98 134.73,147.42 134.37,147.88 C 134.19,148.11 134.02,148.34 133.86,148.58 C 133.57,149.01 133.3,149.45 133.05,149.9 C 132.5,150.9 132.05,151.96 131.72,153.06 C 131.36,154.26 131.13,155.5 131.04,156.76 C 131.0,157.4 130.99,158.04 131.01,158.68 C 131.03,159.18 131.07,159.68 131.13,160.17 C 131.16,160.47 131.21,160.77 131.26,161.06 C 130.84,160.33 130.49,159.56 130.21,158.76 C 129.4,156.5 129.17,154.05 129.49,151.59 C 129.79,149.31 130.57,147.02 132.1,145.42 C 132.19,145.33 132.28,145.24 132.38,145.15 C 131.09,147.17 130.31,149.48 130.24,152.67 C 130.23,153.12 130.23,153.59 130.26,154.01 C 130.29,154.59 130.37,155.06 130.46,155.06 C 130.61,155.06 130.79,153.86 131.0,152.94 C 131.23,151.94 131.49,151.26 131.83,150.48 C 132.23,149.58 132.75,148.53 133.43,147.67 C 134.06,146.87 134.82,146.22 135.68,145.68 C 136.28,145.3 136.93,144.97 137.54,144.63 C 137.82,144.48 138.09,144.32 138.37,144.1 C 138.42,144.06 138.48,144.02 138.49,143.96 C 138.5,143.91 138.48,143.84 138.45,143.79 C 138.38,143.67 138.25,143.62 138.13,143.57 C 137.89,143.48 137.67,143.41 137.43,143.37 C 136.66,143.21 135.82,143.25 135.05,143.47 C 135.49,143.29 135.94,143.14 136.41,143.01 C 137.54,142.71 138.73,142.57 139.82,142.87 C 140.51,143.06 141.17,143.43 141.73,143.9 C 141.88,144.03 142.02,144.17 142.16,144.32 z M 143.08,144.62 C 142.81,144.25 142.53,143.89 142.23,143.56 C 142.47,143.57 142.69,143.52 142.86,143.42 C 143.1,143.29 143.23,143.07 143.25,142.82 C 143.29,142.35 142.93,141.76 142.51,141.37 C 142.09,140.98 141.62,140.8 141.09,140.74 C 140.01,140.63 138.72,141.07 137.71,141.65 C 137.19,141.96 136.75,142.3 136.35,142.7 C 136.87,141.8 137.65,141.02 138.58,140.51 C 139.31,140.11 140.13,139.88 140.96,139.9 C 141.71,139.92 142.48,140.13 143.06,140.56 C 143.71,141.04 144.12,141.79 144.67,142.4 C 145.25,143.05 145.98,143.54 146.79,143.91 C 146.73,144.13 146.7,144.35 146.7,144.58 C 146.7,144.72 146.7,144.86 146.72,145.0 C 146.17,145.01 145.62,145.11 145.1,145.29 C 144.86,145.37 144.63,145.47 144.4,145.59 C 144.27,145.44 144.13,145.3 143.98,145.18 C 143.7,144.95 143.4,144.76 143.08,144.62 z M 153.77,145.67 C 153.75,145.68 153.72,145.69 153.69,145.7 C 153.18,145.89 152.69,146.15 152.24,146.46 C 152.17,146.51 152.09,146.56 152.02,146.61 C 152.02,146.39 152.02,146.16 152.03,145.93 C 152.05,145.07 152.09,144.21 152.21,143.36 C 152.35,142.32 152.61,141.29 152.92,140.27 C 153.26,139.17 153.65,138.08 154.18,137.05 C 154.59,136.25 155.07,135.48 155.66,134.82 C 155.96,134.48 156.29,134.17 156.63,133.88 C 156.24,134.28 155.88,134.71 155.57,135.17 C 155.09,135.86 154.72,136.62 154.41,137.4 C 154.04,138.36 153.75,139.35 153.57,140.34 C 153.46,140.99 153.39,141.64 153.36,142.29 C 153.32,143.03 153.32,143.78 153.45,144.5 C 153.52,144.9 153.64,145.29 153.77,145.67 z M 147.91,145.11 C 148.17,145.0 148.42,144.87 148.66,144.72 C 149.01,144.51 149.33,144.26 149.62,143.98 C 149.88,143.74 150.12,143.48 150.33,143.2 C 150.64,142.78 150.9,142.32 151.12,141.84 C 151.29,141.47 151.44,141.1 151.58,140.73 C 151.8,140.17 151.99,139.6 152.17,139.02 C 152.36,138.39 152.54,137.76 152.75,137.13 C 152.98,136.42 153.25,135.73 153.55,135.04 C 153.92,134.2 154.34,133.37 154.84,132.6 C 155.09,132.22 155.35,131.86 155.62,131.51 C 156.06,131.61 156.48,131.76 156.87,131.98 C 157.26,132.19 157.6,132.46 157.9,132.78 C 158.21,133.12 158.46,133.53 158.65,133.95 C 158.74,134.15 158.82,134.36 158.88,134.57 C 158.66,134.6 158.45,134.66 158.24,134.74 C 157.9,134.87 157.59,135.06 157.31,135.29 C 156.76,135.73 156.34,136.34 156.01,136.97 C 155.52,137.91 155.22,138.94 155.06,140.0 C 154.89,141.08 154.85,142.2 155.14,143.23 C 155.22,143.51 155.32,143.78 155.44,144.04 C 155.26,144.3 155.09,144.56 154.94,144.84 C 154.83,144.65 154.72,144.46 154.63,144.25 C 154.47,143.88 154.35,143.46 154.27,143.0 C 154.15,142.23 154.15,141.33 154.25,140.6 C 154.33,139.91 154.5,139.36 154.69,138.8 C 154.84,138.34 155.01,137.87 155.21,137.42 C 155.5,136.8 155.86,136.22 156.29,135.69 C 156.62,135.29 156.99,134.92 157.38,134.61 C 157.47,134.54 157.56,134.47 157.66,134.41 C 157.69,134.39 157.71,134.38 157.72,134.35 C 157.73,134.33 157.73,134.31 157.73,134.29 C 157.72,134.26 157.71,134.24 157.69,134.21 C 157.6,134.09 157.51,133.98 157.41,133.87 C 157.24,133.69 157.04,133.52 156.84,133.37 C 156.72,133.28 156.61,133.2 156.47,133.14 C 156.38,133.1 156.27,133.08 156.17,133.08 C 156.07,133.08 155.98,133.11 155.89,133.14 C 155.77,133.18 155.65,133.23 155.54,133.3 C 155.37,133.41 155.24,133.58 155.12,133.76 C 154.83,134.18 154.55,134.59 154.31,135.02 C 153.82,135.87 153.44,136.81 153.12,137.75 C 152.8,138.69 152.53,139.63 152.29,140.59 C 152.04,141.58 151.83,142.59 151.67,143.6 C 151.54,144.37 151.44,145.15 151.39,145.92 C 151.36,146.3 151.35,146.68 151.34,147.06 C 151.09,146.82 150.83,146.59 150.56,146.37 C 150.13,146.04 149.66,145.74 149.16,145.52 C 148.91,145.4 148.66,145.31 148.4,145.23 C 148.24,145.18 148.07,145.14 147.91,145.11 z M 147.47,139.36 C 147.7,139.02 148.04,138.74 148.42,138.56 C 149.28,138.14 150.31,138.25 151.15,138.68 C 151.32,138.76 151.48,138.86 151.63,138.97 C 151.58,139.11 151.54,139.25 151.49,139.39 C 151.12,139.27 150.72,139.22 150.33,139.28 C 149.89,139.35 149.46,139.58 149.16,139.92 C 149.04,140.07 148.94,140.24 148.86,140.42 C 148.66,140.23 148.46,140.05 148.24,139.89 C 148.01,139.71 147.77,139.54 147.51,139.38 C 147.5,139.38 147.49,139.37 147.47,139.36 z M 144.47,141.29 C 144.36,141.16 144.26,141.03 144.16,140.9 C 144.03,140.75 143.9,140.6 143.76,140.47 C 143.62,140.32 143.47,140.19 143.3,140.08 C 143.15,139.97 142.98,139.88 142.82,139.8 C 142.71,139.75 142.61,139.7 142.51,139.66 C 142.56,139.63 142.61,139.59 142.66,139.56 C 143.36,139.14 144.21,138.96 145.01,139.03 C 145.86,139.1 146.66,139.46 147.37,139.92 C 147.87,140.25 148.33,140.62 148.74,141.05 C 148.96,141.29 149.16,141.53 149.35,141.79 C 149.59,142.1 149.8,142.43 149.99,142.76 C 149.88,142.93 149.75,143.08 149.61,143.23 C 149.36,142.78 149.06,142.35 148.74,141.98 C 148.35,141.52 147.93,141.15 147.42,140.85 C 146.92,140.56 146.34,140.34 145.67,140.36 C 145.33,140.38 144.95,140.46 144.73,140.7 C 144.59,140.86 144.5,141.07 144.47,141.29 z M 158.96,141.29 C 158.43,140.78 157.64,140.44 156.9,140.37 C 156.42,140.33 155.96,140.39 155.52,140.53 C 155.52,140.51 155.52,140.49 155.53,140.47 C 155.55,140.28 155.58,140.08 155.61,139.89 C 155.62,139.84 155.63,139.78 155.64,139.73 C 155.88,139.63 156.13,139.56 156.38,139.53 C 157.07,139.43 157.79,139.61 158.47,139.87 C 159.17,140.14 159.83,140.49 160.43,140.92 C 160.27,140.94 160.11,140.97 159.95,141.0 C 159.61,141.07 159.28,141.17 158.96,141.29 z M 168.1,149.03 C 168.09,148.88 168.07,148.73 168.05,148.57 C 167.84,147.19 167.22,145.87 166.29,144.81 C 165.23,143.59 163.76,142.71 162.17,142.4 C 160.97,142.16 159.7,142.23 158.56,142.67 C 157.25,143.17 156.12,144.15 155.31,145.28 C 155.62,144.68 156.01,144.11 156.46,143.61 C 157.0,143.02 157.64,142.52 158.35,142.14 C 158.8,141.9 159.27,141.71 159.77,141.59 C 160.35,141.45 160.95,141.41 161.55,141.42 C 162.97,141.46 164.38,141.85 165.67,142.52 C 167.16,143.3 168.47,144.46 169.33,145.86 C 171.06,148.68 170.92,152.49 169.89,155.92 C 169.84,154.73 169.66,153.54 169.35,152.38 C 169.05,151.25 168.63,150.16 168.13,149.1 C 168.12,149.08 168.11,149.06 168.1,149.03 z"
		 />

		<!-- Prism Reference -->
		<cam mingh:cam="--verb EditSelectAll --verb ZoomSelection --verb FileSave " />  
	 </g>

</svg>
