<svg
   xmlns:xlink="http://www.w3.org/1999/xlink"
   xmlns:svg="http://www.w3.org/2000/svg"
   xmlns="http://www.w3.org/2000/svg"
   xmlns:mingh="http://www.minghworld.com"
   width="300px"
   height="300px" >

	 <g>	
		<!-- Shape -->
		<path id="shape" style="fill:none;stroke:#000;stroke-width:0.25px;"
			d="M 149.5,123.19 C 148.42,123.19 147.37,123.65 146.59,124.47 C 145.35,125.79 145.11,127.75 146.03,129.31 C 146.96,130.87 148.81,131.65 150.56,131.19 C 150.88,131.1 151.2,131.28 151.28,131.59 C 151.39,132.02 151.22,132.2 150.81,132.31 C 150.33,132.45 149.49,132.49 148.94,132.66 C 148.59,132.76 148.36,132.91 148.28,133.13 C 148.18,133.38 148.3,133.71 148.66,134.06 C 149.05,134.46 149.76,134.88 150.19,135.22 C 150.49,135.46 150.67,135.66 150.69,135.88 C 150.7,136.01 150.63,136.13 150.56,136.25 C 150.47,136.4 150.35,136.52 150.22,136.63 C 149.84,136.94 149.44,137.22 149.06,137.53 C 148.01,138.41 147.15,139.57 146.56,140.88 C 146.08,141.96 145.78,143.15 145.72,144.38 C 145.67,145.32 145.74,146.28 145.78,146.91 C 145.8,147.3 145.82,147.54 145.72,147.97 C 145.69,148.07 145.66,148.19 145.63,148.31 C 145.59,148.44 145.54,148.57 145.5,148.69 C 145.42,148.9 145.34,149.04 145.25,149.16 C 145.17,149.26 145.1,149.33 145.0,149.34 C 144.91,149.36 144.8,149.34 144.72,149.25 C 144.62,149.14 144.57,148.92 144.56,148.69 C 144.54,148.27 144.67,147.78 144.69,147.31 C 144.7,146.94 144.63,146.58 144.44,146.22 C 144.38,146.11 144.32,146.01 144.22,145.94 C 144.1,145.86 143.96,145.81 143.81,145.81 C 143.37,145.82 143.11,146.29 142.91,146.56 C 142.57,147.03 142.42,147.01 142.06,146.63 C 141.78,146.33 141.37,145.81 140.97,145.38 C 140.64,145.02 140.31,144.72 139.94,144.81 C 139.78,144.85 139.64,144.96 139.56,145.09 C 139.51,145.19 139.5,145.3 139.5,145.41 C 139.5,145.8 139.52,146.19 139.63,146.59 C 139.71,146.92 139.85,147.25 139.94,147.5 C 140.0,147.7 140.02,147.86 139.97,147.94 C 139.91,148.03 139.74,148.01 139.47,148.0 C 139.09,147.98 138.56,147.99 138.06,147.97 C 137.63,147.95 137.22,147.93 136.91,148.13 C 136.81,148.18 136.73,148.25 136.69,148.34 C 136.64,148.43 136.64,148.53 136.66,148.63 C 136.7,148.83 136.82,149.01 136.97,149.19 C 137.15,149.41 137.32,149.65 137.53,149.84 C 137.75,150.05 138.02,150.2 138.25,150.38 C 138.43,150.51 138.6,150.67 138.66,150.75 C 138.72,150.84 138.65,150.87 138.47,150.84 C 138.23,150.81 137.76,150.66 137.34,150.56 C 136.59,150.39 136.04,150.34 135.31,150.47 C 135.04,150.52 134.76,150.56 134.72,150.75 C 134.68,150.92 134.84,151.19 135.0,151.41 C 135.52,152.11 135.98,152.41 136.63,152.72 C 136.96,152.88 137.34,153.06 137.41,153.22 C 137.47,153.36 137.28,153.47 137.06,153.63 C 136.85,153.78 136.61,153.97 136.47,154.25 C 136.36,154.46 136.32,154.74 136.41,154.91 C 136.46,155.02 136.57,155.07 136.69,155.13 C 136.93,155.23 137.16,155.3 137.41,155.31 C 137.87,155.34 138.42,155.24 138.91,155.25 C 138.97,155.25 139.03,155.24 139.09,155.25 C 139.21,155.26 139.35,155.3 139.47,155.34 C 139.64,155.4 139.79,155.48 139.88,155.63 C 139.95,155.76 139.96,155.97 139.91,156.13 C 139.84,156.32 139.7,156.45 139.56,156.59 C 139.34,156.82 139.11,157.07 138.91,157.31 C 138.43,157.89 137.97,158.47 137.56,159.09 C 136.96,160.01 136.49,160.98 136.09,162.0 C 135.58,163.33 135.25,164.75 135.16,166.19 C 135.06,167.7 135.24,169.24 135.78,170.66 C 136.39,172.25 137.47,173.67 138.81,174.72 C 140.15,175.76 141.73,176.43 143.38,176.69 C 144.97,176.94 146.62,176.81 148.09,176.09 C 149.34,175.49 150.46,174.46 151.25,173.28 C 151.89,172.31 152.31,171.22 152.5,170.09 C 152.64,169.24 152.68,168.38 152.5,167.53 C 152.34,166.8 152.04,166.09 151.63,165.47 C 151.2,164.83 150.64,164.28 150.0,163.88 C 149.32,163.45 148.55,163.18 147.75,163.09 C 147.15,163.03 146.55,163.06 145.97,163.22 C 145.62,163.31 145.28,163.44 144.97,163.63 C 144.87,163.68 144.78,163.75 144.69,163.81 C 144.64,163.84 144.6,163.89 144.56,163.91 C 144.05,164.15 143.23,163.08 143.47,162.5 C 143.5,162.43 143.51,162.37 143.56,162.31 C 143.74,162.13 143.96,161.95 144.16,161.78 C 144.98,161.09 145.95,160.6 146.97,160.25 C 147.79,159.97 148.64,159.78 149.5,159.69 C 150.02,159.63 150.54,159.62 151.06,159.59 C 151.48,159.57 151.9,159.54 152.31,159.5 C 152.59,159.47 152.88,159.46 153.16,159.41 C 153.46,159.35 153.73,159.27 154.03,159.19 C 154.74,158.98 155.44,158.67 156.06,158.28 C 156.87,157.77 157.58,157.1 158.13,156.31 C 158.69,155.49 159.07,154.54 159.25,153.53 C 159.43,152.52 159.41,151.45 159.19,150.44 C 159.0,149.6 158.69,148.81 158.28,148.06 C 157.79,147.15 157.16,146.29 156.56,145.44 C 156.24,144.98 155.91,144.5 155.59,144.03 C 155.27,143.55 154.96,143.07 154.78,142.53 C 154.66,142.18 154.6,141.82 154.69,141.47 C 154.76,141.18 154.9,140.92 155.06,140.72 C 155.22,140.52 155.38,140.38 155.56,140.22 C 155.66,140.13 155.79,140.05 155.84,140.06 C 155.88,140.07 155.9,140.11 155.91,140.19 C 155.92,140.29 155.91,140.44 155.91,140.59 C 155.9,140.88 155.89,141.19 155.94,141.5 C 156.0,141.91 156.15,142.29 156.38,142.59 C 156.64,142.95 157.0,143.19 157.44,143.44 C 158.05,143.78 158.82,144.13 159.41,144.41 C 159.86,144.62 160.22,144.8 160.53,145.13 C 160.73,145.34 160.92,145.64 161.09,145.94 C 161.27,146.24 161.42,146.52 161.56,146.84 C 161.67,147.09 161.78,147.37 161.97,147.56 C 162.25,147.86 162.75,147.98 163.41,147.72 C 163.72,147.59 164.07,147.4 164.38,147.19 C 164.67,146.99 164.93,146.77 165.09,146.53 C 165.3,146.23 165.35,145.89 165.25,145.63 C 165.16,145.37 164.91,145.2 164.72,145.06 C 164.31,144.77 164.17,144.58 164.0,144.31 C 163.67,143.78 163.26,142.94 162.97,142.09 C 162.64,141.16 162.45,140.24 162.31,139.25 C 162.26,138.85 162.2,138.42 162.19,138.0 C 162.17,137.35 162.24,136.7 162.22,136.03 C 162.19,135.19 162.04,134.32 161.59,133.5 C 161.32,132.99 160.92,132.49 160.53,132.19 C 160.36,132.06 160.18,131.96 160.16,131.81 C 160.14,131.71 160.2,131.56 160.31,131.41 C 160.4,131.28 160.52,131.13 160.66,130.94 C 160.73,130.82 160.83,130.72 160.91,130.59 C 161.04,130.38 161.16,130.18 161.19,129.97 C 161.24,129.6 160.99,129.18 160.5,129.41 C 160.4,129.45 160.29,129.55 160.19,129.63 C 159.51,130.09 159.18,130.41 158.97,130.5 C 158.84,130.56 158.77,130.53 158.75,130.41 C 158.73,130.31 158.77,130.14 158.78,129.91 C 158.8,129.62 158.79,129.21 158.75,128.91 C 158.73,128.74 158.71,128.6 158.63,128.5 C 158.48,128.31 158.17,128.22 157.94,128.25 C 157.59,128.29 157.37,128.6 157.22,128.84 C 156.99,129.21 156.85,129.46 156.59,129.59 C 156.44,129.67 156.25,129.7 156.09,129.63 C 155.98,129.57 155.9,129.46 155.78,129.25 C 155.59,128.9 155.35,128.28 155.03,127.88 C 154.82,127.6 154.55,127.43 154.28,127.5 C 154.09,127.55 153.89,127.74 153.78,127.97 C 153.75,128.03 153.74,128.06 153.72,128.13 C 153.68,128.28 153.44,128.25 153.47,128.09 C 153.84,126.32 153.01,124.5 151.41,123.66 C 150.81,123.34 150.15,123.18 149.5,123.19 z M 149.53,125.31 C 150.6,125.31 151.47,126.18 151.47,127.25 C 151.47,128.32 150.6,129.19 149.53,129.19 C 148.46,129.19 147.59,128.32 147.59,127.25 C 147.59,126.18 148.46,125.31 149.53,125.31 z M 142.28,164.84 C 142.48,164.83 142.71,164.88 142.88,164.94 C 143.15,165.04 143.52,165.28 143.38,165.63 C 143.1,166.38 143.11,167.29 143.63,167.94 C 143.92,168.4 144.45,168.83 145.03,168.66 C 145.5,168.47 145.57,167.78 145.25,167.44 C 144.72,166.81 145.11,165.82 145.78,165.47 C 147.01,164.79 148.74,165.4 149.28,166.69 C 149.83,167.97 149.71,169.48 149.03,170.69 C 148.35,171.94 147.07,172.99 145.59,173.0 C 144.26,173.02 142.89,172.36 142.25,171.16 C 141.25,169.34 141.21,167.1 141.84,165.16 C 141.92,164.95 142.08,164.86 142.28,164.84 z" />
			
		<path id="shapeMark" style="fill:#f00;stroke:none;"
			d="M 157.45,137.97 C 157.53,137.98 157.59,138.05 157.59,138.13 C 157.58,138.23 157.51,138.25 157.44,138.28 C 157.3,138.32 157.17,138.38 157.05,138.43 C 156.76,138.57 156.5,138.72 156.25,138.9 C 156.0,139.06 155.78,139.25 155.56,139.45 C 155.52,139.48 155.29,139.72 155.24,139.74 C 155.16,139.77 155.1,139.77 155.03,139.73 C 154.95,139.69 154.87,139.65 154.78,139.6 C 153.67,139.01 152.82,138.29 152.18,137.17 C 152.09,137.03 151.83,136.53 151.78,136.36 C 151.74,136.21 151.85,136.05 152.01,136.05 C 152.1,136.05 152.15,136.1 152.21,136.15 C 152.27,136.2 152.33,136.25 152.39,136.3 C 152.86,136.7 153.37,136.99 153.93,137.23 C 155.01,137.68 156.29,137.92 157.45,137.97 z M 157.84,148.4 C 157.73,148.57 157.6,148.71 157.44,148.83 C 157.29,148.94 157.12,149.02 156.94,149.08 C 156.76,149.13 156.56,149.17 156.35,149.19 C 156.14,149.21 156.0,149.12 155.93,148.93 C 155.86,148.74 155.81,148.55 155.78,148.36 C 155.75,148.17 155.71,147.98 155.65,147.8 C 155.59,147.61 155.53,147.44 155.46,147.26 C 155.4,147.09 155.32,146.9 155.24,146.68 C 155.15,146.47 155.23,146.34 155.47,146.29 C 155.71,146.25 155.92,146.17 156.1,146.06 C 156.29,145.94 156.44,145.93 156.55,146.03 C 156.66,146.13 156.77,146.27 156.86,146.43 C 156.96,146.6 157.07,146.76 157.18,146.92 C 157.29,147.07 157.39,147.23 157.49,147.4 C 157.58,147.56 157.69,147.72 157.82,147.89 C 157.94,148.05 157.95,148.22 157.84,148.4 z M 154.38,142.62 C 154.46,142.62 154.53,142.7 154.57,142.88 C 154.62,143.06 154.68,143.22 154.76,143.36 C 154.84,143.49 154.93,143.63 155.01,143.76 C 155.1,143.9 155.19,144.04 155.28,144.17 C 155.37,144.3 155.46,144.43 155.55,144.57 C 155.64,144.7 155.72,144.84 155.79,144.99 C 155.86,145.15 155.85,145.3 155.75,145.43 C 155.65,145.57 155.52,145.68 155.36,145.75 C 155.21,145.82 155.06,145.8 154.93,145.7 C 154.8,145.59 154.7,145.46 154.64,145.31 C 154.59,145.16 154.54,145.0 154.49,144.85 C 154.44,144.7 154.4,144.54 154.36,144.38 C 154.33,144.23 154.31,144.07 154.29,143.91 C 154.27,143.75 154.26,143.59 154.26,143.43 C 154.26,143.27 154.26,143.1 154.26,142.92 C 154.26,142.73 154.3,142.63 154.38,142.62 z M 158.81,153.16 C 158.63,153.36 158.41,153.44 158.14,153.4 C 157.88,153.35 157.63,153.26 157.42,153.13 C 157.2,153.0 156.99,152.85 156.79,152.69 C 156.59,152.53 156.41,152.36 156.23,152.17 C 156.05,151.98 155.94,151.76 155.9,151.5 C 155.86,151.24 155.86,150.99 155.88,150.74 C 155.9,150.49 155.95,150.23 156.03,149.97 C 156.11,149.71 156.29,149.62 156.57,149.71 C 156.85,149.79 157.11,149.79 157.35,149.71 C 157.58,149.62 157.81,149.48 158.03,149.27 C 158.26,149.07 158.42,149.11 158.52,149.4 C 158.63,149.69 158.71,149.95 158.77,150.19 C 158.84,150.43 158.89,150.67 158.93,150.93 C 158.98,151.18 159.0,151.43 159.01,151.69 C 159.02,151.94 159.04,152.2 159.05,152.46 C 159.07,152.72 158.99,152.95 158.81,153.16 z M 149.61,139.39 C 149.46,139.29 149.34,139.18 149.24,139.05 C 149.13,138.92 149.04,138.78 148.96,138.62 C 148.88,138.47 148.88,138.31 148.96,138.16 C 149.04,138.01 149.15,137.89 149.28,137.79 C 149.41,137.69 149.55,137.59 149.68,137.48 C 149.8,137.38 149.93,137.28 150.07,137.19 C 150.2,137.09 150.33,136.98 150.46,136.84 C 150.59,136.71 150.72,136.69 150.85,136.79 C 150.98,136.89 151.06,137.03 151.11,137.19 C 151.15,137.35 151.23,137.51 151.32,137.65 C 151.42,137.79 151.47,137.94 151.45,138.09 C 151.44,138.24 151.36,138.36 151.21,138.46 C 151.06,138.55 150.92,138.65 150.8,138.76 C 150.68,138.87 150.56,138.99 150.45,139.11 C 150.34,139.23 150.21,139.33 150.05,139.41 C 149.9,139.49 149.76,139.48 149.61,139.39 z M 148.08,142.28 C 147.9,142.29 147.72,142.28 147.55,142.24 C 147.38,142.2 147.22,142.13 147.07,142.04 C 146.92,141.94 146.81,141.81 146.75,141.64 C 146.69,141.48 146.7,141.32 146.79,141.15 C 146.87,140.99 146.95,140.84 147.03,140.68 C 147.1,140.52 147.18,140.37 147.27,140.22 C 147.36,140.07 147.45,139.92 147.53,139.77 C 147.62,139.62 147.74,139.49 147.89,139.39 C 148.04,139.29 148.16,139.33 148.26,139.51 C 148.36,139.69 148.47,139.83 148.6,139.93 C 148.73,140.04 148.89,140.13 149.07,140.21 C 149.25,140.29 149.29,140.41 149.19,140.58 C 149.09,140.75 149.0,140.91 148.92,141.06 C 148.83,141.21 148.75,141.36 148.68,141.52 C 148.61,141.68 148.54,141.84 148.47,142.0 C 148.39,142.17 148.26,142.26 148.08,142.28 z M 147.73,145.57 C 147.58,145.7 147.41,145.78 147.23,145.82 C 147.04,145.87 146.86,145.86 146.68,145.79 C 146.5,145.73 146.34,145.62 146.2,145.49 C 146.06,145.35 146.01,145.19 146.02,144.99 C 146.04,144.79 146.05,144.6 146.06,144.41 C 146.06,144.23 146.08,144.04 146.1,143.85 C 146.12,143.67 146.14,143.48 146.16,143.29 C 146.18,143.1 146.25,142.92 146.36,142.76 C 146.47,142.61 146.61,142.6 146.78,142.75 C 146.94,142.89 147.12,142.98 147.3,143.0 C 147.48,143.02 147.68,143.03 147.88,143.04 C 148.09,143.04 148.17,143.15 148.13,143.36 C 148.08,143.58 148.05,143.78 148.03,143.96 C 148.01,144.14 147.99,144.33 147.97,144.51 C 147.95,144.7 147.95,144.89 147.95,145.09 C 147.95,145.29 147.88,145.45 147.73,145.57 z M 147.55,148.41 C 147.41,148.48 147.27,148.51 147.12,148.52 C 146.98,148.53 146.84,148.51 146.71,148.45 C 146.57,148.39 146.45,148.31 146.33,148.21 C 146.21,148.11 146.15,147.99 146.14,147.85 C 146.12,147.7 146.12,147.55 146.13,147.41 C 146.15,147.26 146.15,147.12 146.13,146.97 C 146.12,146.83 146.13,146.68 146.18,146.53 C 146.22,146.38 146.32,146.34 146.47,146.41 C 146.62,146.48 146.76,146.53 146.9,146.56 C 147.05,146.58 147.19,146.56 147.32,146.49 C 147.46,146.42 147.6,146.41 147.73,146.46 C 147.87,146.51 147.93,146.61 147.91,146.77 C 147.89,146.94 147.87,147.09 147.87,147.23 C 147.87,147.37 147.87,147.52 147.86,147.66 C 147.86,147.81 147.84,147.96 147.81,148.1 C 147.78,148.25 147.69,148.35 147.55,148.41 z M 148.51,147.95 C 148.46,147.57 148.58,147.29 148.87,147.12 C 149.15,146.95 149.47,146.96 149.81,147.15 C 150.15,147.34 150.49,147.47 150.83,147.56 C 151.17,147.65 151.52,147.7 151.87,147.71 C 152.23,147.73 152.58,147.7 152.92,147.63 C 153.27,147.56 153.62,147.46 153.99,147.34 C 154.36,147.21 154.63,147.32 154.8,147.66 C 154.98,148.0 155.11,148.3 155.19,148.56 C 155.27,148.83 155.21,149.1 155.01,149.39 C 154.81,149.68 154.52,149.85 154.15,149.9 C 153.78,149.95 153.42,149.99 153.07,150.02 C 152.72,150.05 152.37,150.04 152.02,149.99 C 151.66,149.94 151.32,149.86 150.98,149.75 C 150.64,149.64 150.29,149.51 149.92,149.34 C 149.56,149.18 149.24,149.0 148.98,148.81 C 148.71,148.62 148.56,148.33 148.51,147.95 z M 148.92,145.67 C 148.68,145.49 148.57,145.24 148.59,144.93 C 148.61,144.62 148.68,144.32 148.8,144.04 C 148.93,143.76 149.14,143.65 149.45,143.71 C 149.75,143.77 150.03,143.87 150.28,144.03 C 150.52,144.18 150.79,144.3 151.07,144.38 C 151.35,144.46 151.64,144.52 151.93,144.56 C 152.21,144.6 152.51,144.6 152.82,144.55 C 153.12,144.5 153.38,144.58 153.59,144.78 C 153.8,144.97 153.95,145.23 154.04,145.54 C 154.13,145.85 154.06,146.1 153.84,146.3 C 153.61,146.51 153.35,146.63 153.06,146.68 C 152.77,146.72 152.47,146.76 152.18,146.77 C 151.89,146.79 151.6,146.77 151.31,146.72 C 151.02,146.68 150.74,146.6 150.47,146.51 C 150.19,146.41 149.92,146.29 149.66,146.16 C 149.41,146.02 149.16,145.86 148.92,145.67 z M 149.23,141.95 C 149.32,141.71 149.45,141.5 149.61,141.31 C 149.77,141.12 149.97,141.05 150.22,141.11 C 150.46,141.17 150.68,141.28 150.86,141.43 C 151.05,141.58 151.26,141.71 151.47,141.81 C 151.69,141.92 151.9,142.02 152.13,142.1 C 152.35,142.19 152.58,142.25 152.83,142.29 C 153.07,142.33 153.27,142.45 153.42,142.65 C 153.56,142.85 153.62,143.07 153.59,143.33 C 153.56,143.59 153.43,143.78 153.21,143.9 C 153.0,144.02 152.77,144.07 152.53,144.03 C 152.28,144.0 152.04,143.96 151.81,143.92 C 151.57,143.88 151.34,143.82 151.12,143.74 C 150.89,143.65 150.67,143.56 150.46,143.45 C 150.25,143.34 150.04,143.22 149.83,143.09 C 149.63,142.97 149.45,142.8 149.31,142.6 C 149.16,142.4 149.14,142.18 149.23,141.95 z M 151.04,139.47 C 151.18,139.34 151.33,139.2 151.49,139.08 C 151.64,138.95 151.82,138.9 152.02,138.92 C 152.22,138.94 152.39,139.02 152.53,139.16 C 152.68,139.3 152.82,139.43 152.98,139.54 C 153.14,139.65 153.3,139.76 153.47,139.85 C 153.64,139.95 153.8,140.06 153.96,140.18 C 154.11,140.31 154.19,140.47 154.19,140.67 C 154.19,140.88 154.14,141.06 154.04,141.24 C 153.94,141.42 153.8,141.54 153.62,141.62 C 153.43,141.69 153.24,141.7 153.06,141.62 C 152.87,141.55 152.69,141.48 152.51,141.41 C 152.33,141.33 152.16,141.25 151.99,141.16 C 151.82,141.06 151.65,140.96 151.48,140.86 C 151.32,140.76 151.17,140.64 151.02,140.5 C 150.88,140.36 150.81,140.19 150.81,139.98 C 150.82,139.78 150.9,139.61 151.04,139.47 z M 160.7,144.45 C 160.59,144.24 161.18,144.57 161.64,144.88 C 161.86,145.03 162.04,145.17 162.22,145.32 C 162.74,145.75 163.21,146.29 163.36,146.68 C 163.42,146.84 163.43,146.98 163.28,147.11 C 163.14,147.23 162.86,147.34 162.66,147.32 C 162.47,147.31 162.34,147.18 162.25,147.02 C 162.1,146.75 162.02,146.4 161.92,146.11 C 161.8,145.77 161.63,145.53 161.24,145.09 C 161.03,144.86 160.76,144.57 160.7,144.45 z M 153.77,134.43 C 153.67,134.76 152.64,134.87 151.64,134.68 C 150.42,134.46 149.26,133.79 149.41,133.42 C 149.54,133.07 150.77,132.97 151.88,133.24 C 152.93,133.5 153.87,134.09 153.77,134.43 z M 153.96,132.46 C 153.8,132.66 153.01,132.3 152.43,131.77 C 151.74,131.14 151.33,130.25 151.53,130.05 C 151.74,129.84 152.61,130.39 153.27,131.12 C 153.75,131.66 154.11,132.29 153.96,132.46 z M 155.97,131.29 C 155.83,131.44 155.11,130.97 154.69,130.3 C 154.25,129.61 154.13,128.71 154.3,128.58 C 154.49,128.43 155.01,129.19 155.45,129.96 C 155.8,130.55 156.1,131.16 155.97,131.29 z M 158.29,131.11 C 158.32,131.19 158.34,131.27 158.31,131.28 C 158.28,131.29 158.18,131.22 158.1,131.15 C 157.91,130.99 157.82,130.82 157.75,130.64 C 157.61,130.26 157.53,129.77 157.74,129.29 C 157.82,129.09 157.96,128.89 158.04,128.87 C 158.21,128.81 158.11,129.67 158.11,130.19 C 158.12,130.61 158.2,130.82 158.29,131.11 z M 159.23,132.17 C 159.14,132.16 159.05,132.07 159.0,131.96 C 158.83,131.58 159.16,130.92 159.62,130.52 C 159.9,130.28 160.22,130.13 160.33,130.16 C 160.53,130.22 160.09,130.8 159.79,131.39 C 159.58,131.8 159.43,132.2 159.23,132.17 z M 141.09,154.3 C 141.08,154.46 140.79,154.47 140.31,154.47 C 140.09,154.47 139.83,154.46 139.58,154.49 C 139.08,154.54 138.59,154.7 138.19,154.75 C 137.77,154.8 137.46,154.72 137.43,154.54 C 137.4,154.35 137.67,154.06 138.1,153.89 C 138.45,153.76 138.9,153.71 139.36,153.68 C 139.68,153.66 140.01,153.65 140.28,153.7 C 140.79,153.8 141.1,154.13 141.09,154.3 z M 141.82,153.39 C 141.73,153.56 141.36,153.59 140.76,153.42 C 140.56,153.36 140.33,153.28 140.1,153.2 C 139.03,152.84 137.97,152.62 137.25,152.34 C 136.61,152.08 136.24,151.77 136.31,151.53 C 136.37,151.3 136.86,151.14 137.53,151.2 C 138.28,151.26 139.25,151.58 140.24,152.03 C 140.53,152.16 140.82,152.3 141.05,152.45 C 141.66,152.81 141.92,153.2 141.82,153.39 z M 142.72,152.76 C 142.54,152.94 142.18,152.82 141.65,152.29 C 141.27,151.9 140.8,151.29 140.29,150.83 C 139.73,150.32 139.13,149.98 138.7,149.67 C 138.17,149.29 137.9,148.95 137.99,148.76 C 138.1,148.55 138.68,148.53 139.36,148.82 C 140.05,149.12 140.85,149.75 141.6,150.52 C 141.91,150.83 142.2,151.17 142.41,151.46 C 142.87,152.12 142.89,152.58 142.72,152.76 z M 143.38,152.02 C 143.26,152.07 143.09,151.89 142.75,151.27 C 142.53,150.88 142.25,150.32 141.98,149.82 C 141.47,148.89 140.96,148.13 140.66,147.53 C 140.33,146.86 140.27,146.39 140.47,146.27 C 140.68,146.14 141.17,146.39 141.63,146.99 C 142.08,147.57 142.51,148.46 142.91,149.52 C 143.1,150.01 143.28,150.54 143.39,150.94 C 143.58,151.68 143.51,151.97 143.38,152.02 z M 144.32,150.54 C 144.22,150.72 143.84,150.82 143.57,150.34 C 143.38,150.0 143.24,149.37 143.14,148.9 C 142.95,148.01 142.91,147.66 143.23,147.21 C 143.38,146.97 143.64,146.71 143.78,146.79 C 143.88,146.84 143.93,147.06 143.96,147.29 C 144.08,148.18 143.94,149.13 144.13,149.76 C 144.23,150.11 144.43,150.37 144.32,150.54 z M 157.65,139.15 C 157.81,139.05 157.91,139.02 158.02,139.01 C 158.77,138.94 159.41,139.76 159.89,140.9 C 160.0,141.14 160.09,141.4 160.3,141.68 C 160.57,142.06 161.03,142.5 161.55,142.92 C 162.05,143.34 162.6,143.75 163.08,144.19 C 163.42,144.51 163.73,144.85 164.05,145.12 C 164.19,145.25 164.33,145.36 164.48,145.47 C 164.61,145.57 164.74,145.67 164.76,145.8 C 164.78,145.89 164.75,146.0 164.7,146.08 C 164.67,146.12 164.63,146.15 164.57,146.2 C 164.42,146.32 164.18,146.56 163.98,146.55 C 163.9,146.54 163.82,146.5 163.76,146.45 C 163.7,146.39 163.66,146.33 163.61,146.25 C 163.5,146.07 163.33,145.77 163.16,145.54 C 162.91,145.18 162.67,144.98 162.41,144.75 C 162.23,144.6 162.05,144.44 161.86,144.3 C 161.64,144.13 161.4,143.99 161.16,143.85 C 160.68,143.57 160.18,143.32 159.56,143.16 C 159.01,143.02 158.36,142.96 157.87,142.74 C 157.33,142.5 156.96,142.06 156.83,141.45 C 156.73,141.01 156.76,140.47 156.92,140.05 C 157.1,139.61 157.43,139.3 157.65,139.15 z M 154.75,135.79 C 155.14,135.79 155.56,135.76 155.98,135.75 C 156.75,135.73 157.5,135.77 158.06,136.03 C 158.23,136.12 158.39,136.23 158.58,136.38 C 158.65,136.25 158.72,136.12 158.78,135.99 C 158.98,135.53 159.09,135.05 159.08,134.59 C 159.07,134.05 158.88,133.55 158.5,133.12 C 158.26,132.84 157.94,132.59 157.69,132.3 C 157.4,131.97 157.18,131.59 157.01,131.2 C 157.45,132.21 157.81,133.04 158.11,133.7 C 157.65,133.56 156.65,133.01 155.13,132.07 C 156.5,133.18 157.33,133.9 157.63,134.21 C 157.08,134.23 156.01,134.04 154.41,133.66 C 156.0,134.34 157.07,134.8 157.63,135.03 C 156.88,135.01 155.92,135.27 154.75,135.79 z M 157.32,132.85 C 156.91,132.31 156.61,131.58 156.7,130.9 C 156.74,130.54 156.9,130.19 157.1,129.88 C 157.1,130.16 157.14,130.45 157.23,130.72 C 157.34,131.04 157.52,131.33 157.75,131.58 C 158.05,131.91 158.44,132.15 158.79,132.47 C 159.29,132.94 159.7,133.57 159.78,134.23 C 159.85,134.8 159.69,135.39 159.5,135.95 C 159.26,136.67 159.0,137.35 158.61,137.98 C 158.5,137.71 158.35,137.46 158.15,137.24 C 157.79,136.83 157.27,136.55 156.74,136.39 C 156.15,136.21 155.53,136.19 154.92,136.14 C 154.66,136.12 154.39,136.09 154.13,136.07 C 153.92,136.06 153.71,136.06 153.5,136.06 C 153.83,135.77 154.2,135.53 154.58,135.33 C 155.02,135.11 155.48,134.95 155.95,134.85 C 155.33,134.7 154.72,134.41 154.24,133.98 C 153.99,133.76 153.78,133.51 153.6,133.24 C 154.04,133.24 154.47,133.27 154.9,133.33 C 155.43,133.4 155.95,133.52 156.45,133.67 C 155.85,133.36 155.3,132.94 154.85,132.43 C 154.53,132.07 154.27,131.66 154.06,131.23 C 154.67,131.41 155.26,131.64 155.82,131.92 C 156.35,132.19 156.85,132.5 157.32,132.85 z M 159.95,136.95 C 160.39,136.47 161.02,135.91 161.28,136.31 C 161.43,136.55 161.46,137.12 161.46,137.56 C 161.48,138.69 161.38,139.05 161.37,139.67 C 161.37,139.78 161.37,139.9 161.38,140.02 C 161.45,141.02 162.01,141.92 162.01,142.0 C 162.01,142.08 161.35,141.17 160.82,140.3 C 160.74,140.17 160.66,140.03 160.56,139.89 C 160.09,139.22 159.17,138.43 159.47,137.63 C 159.55,137.41 159.73,137.19 159.95,136.95 z M 158.48,154.31 C 158.73,154.39 158.77,154.55 158.6,154.81 C 158.43,155.07 158.3,155.31 158.19,155.53 C 158.08,155.75 157.96,155.97 157.82,156.2 C 157.68,156.43 157.48,156.56 157.21,156.6 C 156.95,156.63 156.7,156.58 156.47,156.47 C 156.24,156.35 156.01,156.23 155.79,156.1 C 155.57,155.98 155.35,155.84 155.15,155.69 C 154.95,155.53 154.77,155.34 154.61,155.12 C 154.46,154.89 154.48,154.67 154.69,154.47 C 154.89,154.27 155.04,154.06 155.14,153.84 C 155.24,153.61 155.32,153.35 155.38,153.03 C 155.44,152.71 155.58,152.66 155.8,152.88 C 156.02,153.09 156.22,153.28 156.41,153.45 C 156.59,153.61 156.79,153.76 157.02,153.89 C 157.24,154.02 157.48,154.1 157.74,154.14 C 157.99,154.17 158.24,154.23 158.48,154.31 z M 147.17,150.49 C 147.03,150.53 146.9,150.55 146.76,150.56 C 146.62,150.56 146.49,150.54 146.36,150.49 C 146.23,150.45 146.11,150.38 146.01,150.28 C 145.9,150.19 145.81,150.09 145.73,149.97 C 145.66,149.85 145.64,149.72 145.68,149.59 C 145.72,149.45 145.76,149.32 145.8,149.19 C 145.84,149.07 145.89,148.93 145.93,148.78 C 145.97,148.63 146.06,148.58 146.2,148.63 C 146.34,148.67 146.46,148.74 146.57,148.82 C 146.69,148.89 146.81,148.94 146.95,148.95 C 147.09,148.96 147.23,148.94 147.38,148.89 C 147.53,148.84 147.62,148.89 147.67,149.02 C 147.71,149.16 147.72,149.3 147.68,149.43 C 147.64,149.57 147.61,149.7 147.58,149.84 C 147.55,149.97 147.51,150.1 147.46,150.23 C 147.4,150.36 147.31,150.45 147.17,150.49 z M 155.13,151.4 C 155.1,151.72 155.03,152.06 154.92,152.44 C 154.82,152.82 154.57,153.02 154.18,153.05 C 153.79,153.08 153.41,153.08 153.05,153.06 C 152.69,153.04 152.33,152.99 151.97,152.92 C 151.61,152.84 151.26,152.74 150.92,152.6 C 150.58,152.47 150.25,152.31 149.93,152.12 C 149.62,151.93 149.31,151.72 149.01,151.51 C 148.71,151.29 148.47,151.02 148.3,150.69 C 148.12,150.37 148.15,150.08 148.4,149.82 C 148.65,149.57 148.95,149.54 149.3,149.74 C 149.64,149.95 149.98,150.13 150.3,150.29 C 150.63,150.45 150.97,150.58 151.32,150.68 C 151.67,150.78 152.03,150.84 152.4,150.88 C 152.77,150.91 153.13,150.9 153.49,150.84 C 153.85,150.78 154.22,150.78 154.61,150.84 C 154.99,150.89 155.17,151.08 155.13,151.4 z M 144.13,167.35 C 144.11,167.42 143.96,167.3 143.84,167.04 C 143.78,166.9 143.73,166.74 143.71,166.55 C 143.7,166.37 143.73,166.18 143.77,166.0 C 143.83,165.73 143.92,165.47 144.02,165.27 C 144.07,165.17 144.13,165.08 144.19,164.99 C 144.25,164.91 144.31,164.82 144.38,164.74 C 144.52,164.58 144.68,164.41 144.85,164.3 C 145.01,164.18 145.18,164.12 145.29,164.12 C 145.34,164.11 145.38,164.13 145.42,164.14 C 145.46,164.16 145.49,164.19 145.53,164.23 C 145.69,164.38 145.87,164.65 145.84,164.73 C 145.84,164.74 145.83,164.75 145.82,164.75 C 145.8,164.76 145.79,164.76 145.77,164.77 C 145.66,164.8 145.44,164.87 145.2,165.01 C 144.96,165.15 144.71,165.35 144.52,165.56 C 144.38,165.73 144.28,165.91 144.2,166.09 C 144.13,166.27 144.08,166.46 144.06,166.67 C 144.06,166.81 144.07,166.97 144.09,167.09 C 144.11,167.22 144.14,167.31 144.13,167.35 z M 140.72,174.22 C 140.74,174.38 140.71,174.54 140.64,174.68 C 140.61,174.75 140.56,174.81 140.51,174.87 C 140.45,174.92 140.39,174.97 140.31,175.0 C 140.24,175.04 140.17,175.06 140.09,175.06 C 140.02,175.07 139.94,175.05 139.87,175.02 C 139.8,174.99 139.73,174.95 139.66,174.91 C 139.59,174.87 139.52,174.82 139.46,174.78 C 139.33,174.69 139.2,174.6 138.92,174.37 C 138.79,174.25 138.61,174.1 138.5,174.0 C 138.38,173.89 138.32,173.83 138.27,173.78 C 138.21,173.72 138.15,173.66 138.09,173.61 C 138.03,173.55 137.97,173.5 137.91,173.44 C 137.85,173.38 137.8,173.32 137.76,173.25 C 137.73,173.18 137.7,173.1 137.7,173.02 C 137.69,172.95 137.7,172.87 137.74,172.82 C 137.77,172.8 137.79,172.78 137.83,172.76 C 137.86,172.75 137.91,172.74 137.95,172.73 C 138.0,172.71 138.04,172.7 138.08,172.69 C 138.13,172.67 138.16,172.65 138.2,172.62 C 138.26,172.57 138.31,172.5 138.36,172.42 C 138.38,172.38 138.4,172.34 138.42,172.3 C 138.45,172.27 138.47,172.25 138.5,172.23 C 138.56,172.2 138.63,172.2 138.71,172.22 C 138.78,172.24 138.85,172.28 138.91,172.32 C 138.98,172.37 139.03,172.43 139.08,172.5 C 139.12,172.56 139.17,172.63 139.28,172.76 C 139.39,172.89 139.56,173.07 139.68,173.19 C 139.8,173.31 139.86,173.36 139.92,173.41 C 139.98,173.46 140.04,173.51 140.1,173.56 C 140.16,173.61 140.22,173.66 140.29,173.7 C 140.32,173.73 140.35,173.75 140.38,173.77 C 140.42,173.79 140.45,173.82 140.48,173.84 C 140.52,173.86 140.55,173.89 140.57,173.91 C 140.6,173.94 140.62,173.97 140.64,174.0 C 140.68,174.07 140.71,174.14 140.72,174.22 z M 143.86,175.36 C 143.94,175.49 143.98,175.63 143.97,175.78 C 143.97,175.85 143.96,175.92 143.94,175.98 C 143.92,176.05 143.89,176.11 143.85,176.17 C 143.81,176.23 143.76,176.28 143.7,176.31 C 143.64,176.34 143.58,176.36 143.51,176.36 C 143.38,176.38 143.24,176.36 143.1,176.34 C 143.03,176.32 142.96,176.31 142.8,176.27 C 142.65,176.22 142.4,176.16 142.25,176.12 C 142.09,176.07 142.02,176.05 141.96,176.02 C 141.89,176.0 141.82,175.98 141.76,175.95 C 141.69,175.93 141.62,175.9 141.55,175.88 C 141.48,175.86 141.41,175.84 141.34,175.81 C 141.28,175.79 141.21,175.76 141.15,175.72 C 141.1,175.68 141.05,175.62 141.01,175.56 C 140.98,175.5 140.96,175.44 140.97,175.38 C 140.98,175.35 140.99,175.32 141.02,175.3 C 141.04,175.27 141.07,175.25 141.1,175.22 C 141.13,175.2 141.16,175.18 141.18,175.15 C 141.21,175.12 141.23,175.09 141.24,175.06 C 141.26,175.02 141.27,174.99 141.28,174.95 C 141.28,174.92 141.28,174.88 141.28,174.84 C 141.28,174.8 141.28,174.76 141.29,174.73 C 141.3,174.69 141.31,174.66 141.32,174.64 C 141.36,174.59 141.41,174.56 141.48,174.54 C 141.54,174.52 141.61,174.52 141.68,174.53 C 141.75,174.54 141.81,174.57 141.88,174.6 C 141.94,174.63 142.01,174.66 142.15,174.72 C 142.29,174.78 142.5,174.87 142.64,174.91 C 142.79,174.96 142.85,174.98 142.92,174.99 C 142.99,175.0 143.06,175.02 143.12,175.03 C 143.19,175.05 143.26,175.06 143.33,175.08 C 143.36,175.08 143.4,175.09 143.43,175.1 C 143.47,175.1 143.5,175.11 143.54,175.12 C 143.57,175.13 143.61,175.14 143.64,175.15 C 143.67,175.16 143.7,175.18 143.72,175.2 C 143.78,175.24 143.83,175.3 143.86,175.36 z M 146.92,173.36 C 146.99,173.46 147.02,173.58 147.04,173.69 C 147.04,173.75 147.04,173.81 147.03,173.86 C 147.02,173.91 147.0,173.96 146.97,174.0 C 146.95,174.04 146.91,174.08 146.87,174.11 C 146.83,174.14 146.79,174.16 146.74,174.18 C 146.69,174.19 146.64,174.21 146.59,174.22 C 146.54,174.24 146.49,174.26 146.34,174.29 C 146.19,174.32 145.94,174.36 145.79,174.39 C 145.64,174.41 145.59,174.41 145.53,174.42 C 145.48,174.42 145.43,174.43 145.38,174.43 C 145.33,174.44 145.27,174.45 145.22,174.45 C 145.17,174.46 145.12,174.46 145.06,174.45 C 145.01,174.45 144.96,174.43 144.91,174.41 C 144.81,174.37 144.72,174.29 144.66,174.19 C 144.61,174.09 144.58,173.98 144.59,173.86 C 144.6,173.75 144.63,173.64 144.69,173.55 C 144.75,173.46 144.83,173.39 144.93,173.36 C 144.98,173.35 145.04,173.34 145.09,173.34 C 145.14,173.34 145.19,173.34 145.24,173.35 C 145.29,173.36 145.35,173.37 145.48,173.36 C 145.62,173.36 145.84,173.35 145.97,173.33 C 146.11,173.32 146.16,173.31 146.21,173.3 C 146.26,173.29 146.31,173.28 146.36,173.27 C 146.41,173.26 146.46,173.25 146.51,173.24 C 146.53,173.24 146.56,173.23 146.59,173.23 C 146.61,173.22 146.64,173.22 146.67,173.21 C 146.7,173.21 146.72,173.21 146.75,173.21 C 146.77,173.22 146.79,173.22 146.81,173.23 C 146.86,173.26 146.89,173.31 146.92,173.36 z M 147.59,175.25 C 147.63,175.34 147.66,175.43 147.66,175.51 C 147.67,175.6 147.65,175.67 147.62,175.74 C 147.59,175.81 147.55,175.88 147.49,175.92 C 147.43,175.97 147.35,176.0 147.28,176.02 C 147.2,176.05 147.11,176.07 147.03,176.09 C 146.95,176.11 146.88,176.14 146.8,176.16 C 146.72,176.18 146.65,176.21 146.57,176.23 C 146.49,176.25 146.41,176.27 146.33,176.29 C 146.17,176.32 146.01,176.35 145.85,176.38 C 145.77,176.39 145.68,176.4 145.6,176.41 C 145.52,176.43 145.45,176.44 145.36,176.45 C 145.28,176.46 145.2,176.46 145.12,176.46 C 145.07,176.46 145.03,176.46 144.98,176.45 C 144.94,176.45 144.89,176.44 144.85,176.43 C 144.8,176.42 144.76,176.41 144.73,176.39 C 144.7,176.38 144.68,176.35 144.66,176.33 C 144.65,176.3 144.64,176.27 144.64,176.23 C 144.64,176.2 144.65,176.16 144.66,176.11 C 144.68,176.07 144.69,176.02 144.7,175.98 C 144.71,175.93 144.71,175.88 144.71,175.84 C 144.7,175.75 144.66,175.65 144.63,175.56 C 144.61,175.47 144.59,175.4 144.61,175.34 C 144.63,175.29 144.7,175.26 144.78,175.24 C 144.86,175.22 144.95,175.21 145.04,175.2 C 145.12,175.19 145.2,175.18 145.28,175.18 C 145.36,175.17 145.44,175.17 145.52,175.16 C 145.6,175.15 145.68,175.14 145.76,175.13 C 145.84,175.12 145.92,175.11 146.0,175.09 C 146.08,175.08 146.16,175.07 146.24,175.05 C 146.32,175.04 146.4,175.02 146.48,175.0 C 146.52,174.99 146.55,174.97 146.59,174.96 C 146.63,174.95 146.67,174.93 146.71,174.92 C 146.74,174.9 146.78,174.89 146.82,174.88 C 146.86,174.87 146.9,174.87 146.94,174.87 C 146.98,174.87 147.02,174.87 147.07,174.88 C 147.11,174.88 147.16,174.89 147.2,174.91 C 147.37,174.96 147.51,175.09 147.59,175.25 z M 149.79,173.14 C 149.86,173.1 149.91,173.07 150.0,173.08 C 150.04,173.08 150.09,173.09 150.15,173.1 C 150.2,173.12 150.26,173.14 150.31,173.16 C 150.37,173.19 150.42,173.22 150.46,173.25 C 150.51,173.28 150.54,173.31 150.56,173.35 C 150.61,173.41 150.62,173.49 150.6,173.57 C 150.58,173.65 150.55,173.73 150.51,173.8 C 150.47,173.86 150.43,173.91 150.39,173.96 C 150.3,174.07 150.18,174.19 150.07,174.3 C 149.85,174.52 149.64,174.71 149.41,174.9 C 149.3,174.99 149.18,175.08 149.07,175.16 C 149.02,175.19 148.97,175.23 148.9,175.28 C 148.87,175.3 148.83,175.33 148.79,175.35 C 148.76,175.38 148.72,175.41 148.68,175.44 C 148.64,175.46 148.61,175.48 148.58,175.49 C 148.55,175.49 148.53,175.49 148.51,175.47 C 148.49,175.45 148.48,175.43 148.47,175.39 C 148.47,175.35 148.47,175.3 148.47,175.24 C 148.47,175.19 148.46,175.13 148.45,175.08 C 148.44,175.02 148.41,174.98 148.38,174.93 C 148.35,174.89 148.31,174.85 148.26,174.81 C 148.22,174.77 148.15,174.74 148.1,174.71 C 148.04,174.67 147.99,174.65 147.95,174.62 C 147.91,174.59 147.9,174.57 147.89,174.55 C 147.87,174.51 147.89,174.5 147.93,174.48 C 148.07,174.4 148.4,174.22 148.58,174.1 C 148.63,174.07 148.66,174.05 148.7,174.02 C 148.75,173.99 148.79,173.96 148.85,173.92 C 149.09,173.74 149.53,173.31 149.79,173.14 z M 148.43,172.17 C 148.51,172.11 148.61,172.06 148.71,172.05 C 148.77,172.04 148.83,172.05 148.89,172.06 C 148.95,172.07 149.02,172.09 149.09,172.12 C 149.16,172.14 149.22,172.17 149.27,172.2 C 149.33,172.22 149.37,172.25 149.4,172.28 C 149.47,172.34 149.49,172.4 149.48,172.46 C 149.47,172.5 149.45,172.53 149.44,172.57 C 149.42,172.61 149.4,172.64 149.38,172.68 C 149.33,172.76 149.27,172.85 149.2,172.94 C 149.12,173.02 149.04,173.11 148.97,173.18 C 148.89,173.26 148.81,173.32 148.73,173.39 C 148.66,173.45 148.58,173.51 148.5,173.57 C 148.46,173.6 148.43,173.63 148.39,173.66 C 148.35,173.69 148.31,173.73 148.27,173.76 C 148.2,173.81 148.12,173.85 148.03,173.84 C 147.95,173.84 147.86,173.8 147.78,173.74 C 147.73,173.71 147.69,173.67 147.65,173.63 C 147.61,173.6 147.58,173.56 147.54,173.52 C 147.47,173.45 147.41,173.36 147.36,173.28 C 147.31,173.2 147.28,173.13 147.27,173.07 C 147.26,173.01 147.28,172.97 147.31,172.94 C 147.34,172.91 147.38,172.88 147.43,172.84 C 147.48,172.81 147.54,172.77 147.6,172.73 C 147.67,172.69 147.73,172.65 147.8,172.61 C 147.86,172.57 147.92,172.53 147.99,172.49 C 148.05,172.45 148.12,172.41 148.19,172.35 C 148.27,172.3 148.34,172.23 148.43,172.17 z M 151.29,170.55 C 151.33,170.49 151.38,170.43 151.45,170.41 C 151.49,170.39 151.53,170.39 151.57,170.39 C 151.62,170.38 151.66,170.39 151.71,170.4 C 151.76,170.4 151.81,170.42 151.85,170.43 C 151.89,170.45 151.92,170.47 151.95,170.49 C 152.0,170.54 152.03,170.61 152.04,170.68 C 152.05,170.75 152.05,170.83 152.04,170.91 C 152.03,170.98 152.01,171.05 151.99,171.1 C 151.98,171.15 151.97,171.18 151.95,171.23 C 151.86,171.47 151.58,172.14 151.46,172.36 C 151.44,172.41 151.42,172.44 151.39,172.49 C 151.37,172.53 151.33,172.6 151.3,172.67 C 151.26,172.73 151.22,172.8 151.18,172.87 C 151.16,172.91 151.14,172.94 151.12,172.98 C 151.1,173.01 151.08,173.05 151.06,173.09 C 151.04,173.12 151.02,173.15 151.0,173.16 C 150.98,173.18 150.96,173.18 150.94,173.18 C 150.92,173.17 150.9,173.15 150.88,173.12 C 150.85,173.09 150.83,173.04 150.81,172.99 C 150.79,172.95 150.76,172.9 150.73,172.86 C 150.69,172.81 150.65,172.78 150.61,172.75 C 150.57,172.73 150.52,172.7 150.47,172.69 C 150.43,172.67 150.39,172.66 150.35,172.64 C 150.31,172.63 150.27,172.62 150.25,172.61 C 150.22,172.6 150.21,172.58 150.2,172.56 C 150.19,172.52 150.23,172.46 150.27,172.42 C 150.28,172.39 150.3,172.37 150.32,172.35 C 150.37,172.29 150.42,172.24 150.47,172.15 C 150.66,171.88 150.96,171.3 151.06,171.06 C 151.08,171.01 151.09,170.97 151.11,170.92 C 151.14,170.83 151.2,170.68 151.29,170.55 z M 149.71,170.15 C 149.75,170.07 149.81,170.0 149.89,169.95 C 149.94,169.93 149.99,169.91 150.05,169.9 C 150.11,169.89 150.18,169.88 150.24,169.87 C 150.31,169.86 150.38,169.86 150.43,169.86 C 150.49,169.87 150.54,169.87 150.58,169.88 C 150.65,169.9 150.69,169.94 150.71,170.0 C 150.73,170.05 150.73,170.12 150.72,170.2 C 150.72,170.28 150.7,170.36 150.68,170.46 C 150.65,170.56 150.62,170.66 150.57,170.78 C 150.55,170.84 150.53,170.91 150.5,170.97 C 150.47,171.04 150.44,171.11 150.4,171.18 C 150.37,171.25 150.34,171.32 150.3,171.38 C 150.27,171.45 150.24,171.51 150.21,171.56 C 150.16,171.67 150.12,171.76 150.07,171.84 C 150.03,171.91 149.98,171.97 149.91,171.99 C 149.85,172.02 149.76,172.02 149.67,171.99 C 149.62,171.98 149.57,171.97 149.52,171.95 C 149.48,171.93 149.43,171.92 149.39,171.9 C 149.3,171.86 149.22,171.81 149.15,171.76 C 149.07,171.71 149.02,171.66 148.98,171.62 C 148.95,171.57 148.94,171.54 148.96,171.49 C 148.97,171.45 149.0,171.4 149.04,171.33 C 149.06,171.29 149.08,171.25 149.11,171.2 C 149.14,171.16 149.17,171.1 149.2,171.05 C 149.23,171.0 149.26,170.94 149.29,170.9 C 149.32,170.85 149.34,170.8 149.37,170.76 C 149.41,170.68 149.45,170.61 149.49,170.56 C 149.52,170.5 149.56,170.44 149.59,170.37 C 149.63,170.31 149.66,170.22 149.71,170.15 z M 151.35,167.27 C 151.35,167.19 151.37,167.11 151.41,167.04 C 151.43,167.01 151.46,166.98 151.49,166.95 C 151.52,166.92 151.56,166.9 151.6,166.88 C 151.64,166.85 151.68,166.84 151.72,166.83 C 151.76,166.82 151.79,166.81 151.82,166.82 C 151.89,166.83 151.95,166.87 152.0,166.93 C 152.05,166.99 152.09,167.07 152.13,167.14 C 152.16,167.21 152.18,167.28 152.19,167.36 C 152.21,167.43 152.22,167.51 152.23,167.59 C 152.24,167.66 152.25,167.74 152.26,167.82 C 152.27,167.89 152.28,167.97 152.29,168.04 C 152.3,168.12 152.31,168.2 152.32,168.27 C 152.32,168.35 152.33,168.43 152.33,168.5 C 152.33,168.58 152.34,168.66 152.34,168.73 C 152.34,168.81 152.34,168.89 152.34,168.96 C 152.34,169.04 152.33,169.11 152.33,169.18 C 152.32,169.26 152.32,169.33 152.32,169.41 C 152.32,169.44 152.32,169.48 152.32,169.52 C 152.32,169.56 152.32,169.61 152.32,169.64 C 152.33,169.68 152.32,169.72 152.32,169.74 C 152.31,169.77 152.29,169.79 152.27,169.8 C 152.26,169.81 152.23,169.81 152.2,169.8 C 152.17,169.79 152.14,169.78 152.1,169.76 C 152.06,169.74 152.02,169.72 151.98,169.71 C 151.93,169.69 151.89,169.68 151.85,169.68 C 151.77,169.67 151.68,169.68 151.59,169.7 C 151.55,169.71 151.51,169.72 151.48,169.72 C 151.44,169.72 151.42,169.71 151.4,169.7 C 151.37,169.67 151.37,169.61 151.39,169.54 C 151.4,169.47 151.42,169.39 151.43,169.31 C 151.44,169.23 151.45,169.16 151.44,169.09 C 151.44,169.02 151.44,168.94 151.44,168.87 C 151.44,168.79 151.44,168.72 151.44,168.64 C 151.44,168.49 151.44,168.34 151.43,168.19 C 151.42,168.04 151.4,167.89 151.38,167.74 C 151.36,167.58 151.34,167.43 151.35,167.27 z M 149.96,168.02 C 149.97,167.95 149.99,167.88 150.05,167.81 C 150.08,167.78 150.11,167.74 150.16,167.71 C 150.2,167.68 150.26,167.64 150.31,167.61 C 150.36,167.58 150.42,167.55 150.47,167.53 C 150.52,167.51 150.56,167.5 150.59,167.49 C 150.67,167.48 150.72,167.49 150.75,167.52 C 150.79,167.56 150.82,167.61 150.84,167.67 C 150.86,167.73 150.89,167.8 150.9,167.87 C 150.92,167.95 150.94,168.04 150.94,168.14 C 150.95,168.23 150.96,168.34 150.96,168.45 C 150.96,168.55 150.96,168.66 150.96,168.75 C 150.96,168.84 150.97,168.92 150.96,168.99 C 150.96,169.06 150.95,169.12 150.9,169.16 C 150.86,169.21 150.78,169.24 150.7,169.26 C 150.61,169.28 150.52,169.29 150.43,169.3 C 150.34,169.3 150.25,169.3 150.17,169.3 C 150.09,169.29 150.02,169.28 149.97,169.26 C 149.92,169.24 149.9,169.22 149.89,169.18 C 149.88,169.15 149.88,169.11 149.89,169.04 C 149.89,168.98 149.9,168.9 149.9,168.82 C 149.91,168.74 149.91,168.65 149.92,168.58 C 149.93,168.51 149.93,168.46 149.94,168.4 C 149.94,168.35 149.95,168.29 149.95,168.23 C 149.96,168.17 149.95,168.1 149.96,168.02 z M 146.19,163.99 C 146.16,163.98 146.12,163.97 146.1,163.93 C 146.09,163.92 146.08,163.9 146.07,163.88 C 146.06,163.85 146.06,163.83 146.05,163.8 C 146.05,163.77 146.05,163.75 146.05,163.72 C 146.05,163.7 146.05,163.67 146.06,163.65 C 146.08,163.61 146.11,163.58 146.14,163.55 C 146.18,163.53 146.21,163.5 146.25,163.49 C 146.29,163.47 146.32,163.47 146.35,163.46 C 146.36,163.46 146.37,163.46 146.38,163.46 C 146.4,163.46 146.41,163.45 146.43,163.45 C 146.52,163.44 146.73,163.41 147.0,163.4 C 147.27,163.39 147.58,163.41 147.85,163.44 C 147.96,163.46 148.06,163.47 148.16,163.49 C 148.25,163.51 148.33,163.53 148.4,163.54 C 148.5,163.56 148.57,163.58 148.61,163.59 C 148.63,163.59 148.64,163.59 148.65,163.6 C 148.68,163.61 148.72,163.66 148.71,163.69 C 148.71,163.7 148.7,163.71 148.69,163.72 C 148.67,163.78 148.67,163.99 148.65,164.08 C 148.65,164.1 148.65,164.12 148.64,164.13 C 148.63,164.15 148.62,164.16 148.61,164.17 C 148.58,164.18 148.55,164.18 148.48,164.16 C 148.45,164.15 148.42,164.14 148.37,164.13 C 148.33,164.12 148.29,164.11 148.24,164.09 C 147.91,164.01 147.52,163.95 147.17,163.94 C 146.82,163.93 146.52,163.96 146.37,163.98 C 146.33,163.99 146.29,163.99 146.27,164.0 C 146.24,164.0 146.22,163.99 146.19,163.99 z M 149.29,164.28 C 149.23,164.17 149.18,164.06 149.19,164.01 C 149.19,163.98 149.21,163.97 149.24,163.97 C 149.27,163.96 149.31,163.96 149.36,163.97 C 149.4,163.98 149.45,163.99 149.5,164.01 C 149.55,164.02 149.59,164.03 149.63,164.05 C 149.71,164.08 149.79,164.12 149.86,164.16 C 149.93,164.2 150.0,164.25 150.07,164.3 C 150.13,164.35 150.2,164.4 150.27,164.45 C 150.34,164.5 150.41,164.55 150.47,164.6 C 150.54,164.66 150.6,164.71 150.67,164.77 C 150.73,164.83 150.79,164.89 150.85,164.95 C 150.91,165.01 150.97,165.08 151.02,165.14 C 151.08,165.21 151.14,165.27 151.19,165.34 C 151.24,165.41 151.29,165.47 151.35,165.54 C 151.4,165.61 151.44,165.68 151.49,165.76 C 151.52,165.8 151.54,165.84 151.57,165.88 C 151.59,165.92 151.62,165.96 151.64,166.0 C 151.66,166.04 151.68,166.08 151.69,166.12 C 151.7,166.16 151.69,166.19 151.68,166.23 C 151.67,166.26 151.65,166.29 151.62,166.32 C 151.59,166.35 151.55,166.37 151.5,166.4 C 151.46,166.42 151.41,166.44 151.37,166.46 C 151.33,166.47 151.29,166.49 151.26,166.5 C 151.2,166.52 151.16,166.52 151.13,166.51 C 151.12,166.51 151.11,166.5 151.1,166.49 C 151.08,166.48 151.07,166.47 151.05,166.45 C 151.02,166.41 150.99,166.35 150.96,166.28 C 150.92,166.22 150.89,166.15 150.85,166.08 C 150.8,166.01 150.76,165.94 150.71,165.87 C 150.61,165.74 150.51,165.6 150.4,165.47 C 150.29,165.34 150.18,165.21 150.06,165.08 C 150.0,165.02 149.94,164.95 149.88,164.9 C 149.82,164.85 149.75,164.81 149.68,164.75 C 149.55,164.65 149.4,164.48 149.29,164.28 z M 148.99,165.68 C 148.94,165.6 148.89,165.51 148.88,165.43 C 148.86,165.35 148.87,165.26 148.9,165.19 C 148.93,165.12 148.97,165.06 149.03,165.04 C 149.09,165.01 149.16,165.01 149.24,165.04 C 149.32,165.07 149.41,165.11 149.5,165.17 C 149.58,165.23 149.67,165.31 149.76,165.4 C 149.85,165.48 149.94,165.59 150.03,165.7 C 150.07,165.76 150.11,165.81 150.15,165.88 C 150.2,165.94 150.24,166.01 150.28,166.07 C 150.32,166.14 150.35,166.2 150.38,166.26 C 150.41,166.32 150.44,166.37 150.47,166.42 C 150.51,166.52 150.56,166.58 150.58,166.64 C 150.6,166.7 150.61,166.74 150.59,166.79 C 150.57,166.84 150.52,166.89 150.46,166.94 C 150.4,166.99 150.33,167.03 150.25,167.08 C 150.18,167.12 150.11,167.15 150.04,167.18 C 149.97,167.21 149.9,167.23 149.86,167.23 C 149.81,167.24 149.79,167.23 149.77,167.21 C 149.75,167.18 149.73,167.14 149.7,167.07 C 149.69,167.04 149.67,166.99 149.65,166.95 C 149.64,166.9 149.61,166.84 149.59,166.79 C 149.57,166.73 149.54,166.67 149.52,166.62 C 149.49,166.56 149.47,166.51 149.45,166.46 C 149.4,166.37 149.35,166.28 149.3,166.2 C 149.26,166.11 149.21,166.03 149.16,165.95 C 149.1,165.86 149.05,165.77 148.99,165.68 z M 146.55,164.87 C 146.5,164.87 146.47,164.85 146.45,164.81 C 146.44,164.8 146.42,164.77 146.41,164.74 C 146.4,164.71 146.39,164.68 146.38,164.64 C 146.37,164.6 146.37,164.56 146.36,164.53 C 146.36,164.5 146.36,164.47 146.36,164.45 C 146.36,164.42 146.37,164.4 146.37,164.38 C 146.38,164.37 146.38,164.36 146.4,164.34 C 146.41,164.33 146.44,164.32 146.48,164.31 C 146.52,164.3 146.58,164.28 146.66,164.27 C 146.73,164.25 146.83,164.24 146.93,164.24 C 146.99,164.23 147.05,164.23 147.11,164.23 C 147.17,164.23 147.24,164.23 147.31,164.23 C 147.38,164.24 147.45,164.24 147.51,164.25 C 147.58,164.26 147.64,164.26 147.69,164.27 C 147.8,164.29 147.9,164.31 147.98,164.33 C 148.06,164.35 148.12,164.37 148.17,164.38 C 148.22,164.39 148.25,164.41 148.27,164.41 C 148.3,164.42 148.32,164.43 148.33,164.44 C 148.35,164.44 148.37,164.45 148.39,164.46 C 148.43,164.47 148.48,164.48 148.52,164.49 C 148.55,164.51 148.58,164.53 148.6,164.56 C 148.61,164.59 148.6,164.64 148.58,164.69 C 148.57,164.74 148.54,164.8 148.52,164.85 C 148.49,164.91 148.46,164.96 148.43,165.0 C 148.4,165.05 148.37,165.09 148.35,165.11 C 148.32,165.14 148.3,165.14 148.28,165.15 C 148.25,165.15 148.23,165.14 148.21,165.13 C 148.19,165.13 148.18,165.12 148.17,165.12 C 148.15,165.11 148.14,165.11 148.12,165.1 C 148.1,165.1 148.08,165.09 148.04,165.07 C 148.0,165.06 147.95,165.04 147.89,165.02 C 147.83,165.0 147.75,164.98 147.66,164.95 C 147.57,164.93 147.46,164.91 147.35,164.9 C 147.25,164.88 147.14,164.87 147.04,164.87 C 146.95,164.86 146.87,164.86 146.8,164.86 C 146.67,164.86 146.59,164.87 146.55,164.87 z M 143.88,173.61 C 143.84,173.73 143.77,173.83 143.69,173.92 C 143.65,173.97 143.61,174.01 143.56,174.05 C 143.51,174.09 143.46,174.13 143.41,174.16 C 143.36,174.19 143.31,174.21 143.25,174.22 C 143.19,174.23 143.13,174.23 143.07,174.22 C 143.01,174.21 142.95,174.19 142.89,174.17 C 142.84,174.16 142.78,174.14 142.72,174.12 C 142.6,174.09 142.49,174.05 142.37,174.01 C 142.32,173.99 142.26,173.97 142.2,173.94 C 142.15,173.92 142.09,173.89 142.04,173.85 C 141.99,173.82 141.94,173.78 141.91,173.73 C 141.87,173.68 141.85,173.62 141.83,173.56 C 141.82,173.5 141.82,173.43 141.83,173.37 C 141.84,173.31 141.86,173.26 141.9,173.21 C 141.93,173.15 141.97,173.1 142.01,173.06 C 142.05,173.01 142.1,172.97 142.14,172.93 C 142.19,172.88 142.23,172.84 142.28,172.8 C 142.32,172.75 142.36,172.7 142.4,172.65 C 142.44,172.6 142.48,172.56 142.53,172.53 C 142.58,172.5 142.64,172.49 142.71,172.48 C 142.77,172.48 142.83,172.48 142.89,172.5 C 142.94,172.52 143.0,172.55 143.05,172.58 C 143.1,172.62 143.14,172.66 143.19,172.69 C 143.24,172.73 143.3,172.76 143.35,172.79 C 143.4,172.82 143.45,172.85 143.51,172.88 C 143.56,172.9 143.62,172.93 143.67,172.96 C 143.72,172.99 143.77,173.03 143.81,173.07 C 143.85,173.12 143.88,173.17 143.9,173.24 C 143.92,173.3 143.93,173.36 143.92,173.42 C 143.92,173.49 143.91,173.55 143.88,173.61 z M 141.09,165.04 C 141.07,165.15 141.04,165.26 141.02,165.37 C 141.0,165.47 140.99,165.58 140.97,165.69 C 140.97,165.74 140.96,165.8 140.95,165.85 C 140.94,165.9 140.92,165.95 140.9,166.01 C 140.86,166.11 140.82,166.22 140.75,166.31 C 140.69,166.41 140.62,166.5 140.54,166.57 C 140.46,166.64 140.36,166.69 140.26,166.73 C 140.21,166.74 140.15,166.76 140.1,166.78 C 140.05,166.79 140.0,166.8 139.94,166.82 C 139.84,166.84 139.74,166.86 139.63,166.88 C 139.53,166.89 139.43,166.9 139.33,166.9 C 139.23,166.9 139.13,166.9 139.03,166.89 C 138.93,166.88 138.83,166.86 138.73,166.84 C 138.63,166.83 138.53,166.81 138.44,166.78 C 138.34,166.75 138.26,166.71 138.19,166.65 C 138.12,166.59 138.06,166.52 138.02,166.43 C 137.98,166.35 137.95,166.25 137.94,166.16 C 137.93,166.06 137.94,165.96 137.95,165.86 C 137.97,165.76 137.99,165.66 138.0,165.55 C 138.02,165.45 138.03,165.35 138.04,165.25 C 138.06,165.15 138.08,165.06 138.11,164.96 C 138.12,164.91 138.14,164.86 138.15,164.81 C 138.17,164.76 138.19,164.71 138.21,164.66 C 138.26,164.56 138.32,164.48 138.39,164.4 C 138.47,164.33 138.57,164.27 138.67,164.22 C 138.77,164.17 138.88,164.14 138.99,164.13 C 139.04,164.13 139.09,164.13 139.14,164.14 C 139.18,164.14 139.23,164.15 139.28,164.17 C 139.33,164.18 139.38,164.2 139.42,164.21 C 139.47,164.22 139.52,164.23 139.57,164.24 C 139.67,164.26 139.77,164.27 139.87,164.28 C 139.97,164.29 140.07,164.29 140.18,164.29 C 140.28,164.29 140.39,164.28 140.5,164.28 C 140.6,164.28 140.7,164.28 140.78,164.32 C 140.83,164.33 140.86,164.36 140.9,164.39 C 140.94,164.41 140.97,164.45 141.0,164.49 C 141.03,164.52 141.05,164.57 141.07,164.61 C 141.09,164.65 141.1,164.7 141.11,164.74 C 141.13,164.83 141.11,164.94 141.09,165.04 z M 147.87,158.48 C 147.98,158.57 148.07,158.69 148.15,158.79 C 148.19,158.85 148.23,158.9 148.28,158.95 C 148.32,159.01 148.38,159.08 148.42,159.14 C 148.46,159.2 148.48,159.26 148.46,159.32 C 148.43,159.37 148.36,159.42 148.28,159.47 C 148.2,159.51 148.1,159.55 148.01,159.59 C 147.92,159.62 147.84,159.64 147.75,159.65 C 147.67,159.67 147.58,159.69 147.49,159.71 C 147.41,159.73 147.32,159.75 147.23,159.78 C 147.15,159.81 147.07,159.83 146.99,159.86 C 146.92,159.88 146.85,159.9 146.79,159.92 C 146.73,159.95 146.68,159.97 146.63,159.99 C 146.6,160.0 146.58,160.01 146.56,160.03 C 146.54,160.04 146.52,160.05 146.5,160.06 C 146.48,160.08 146.46,160.09 146.44,160.1 C 146.41,160.1 146.39,160.11 146.37,160.11 C 146.32,160.11 146.26,160.09 146.2,160.07 C 146.17,160.06 146.14,160.05 146.11,160.04 C 146.08,160.02 146.05,160.01 146.02,160.0 C 145.99,159.99 145.96,159.98 145.92,159.98 C 145.89,159.97 145.85,159.96 145.82,159.95 C 145.76,159.93 145.7,159.9 145.66,159.86 C 145.63,159.84 145.62,159.81 145.6,159.78 C 145.59,159.75 145.58,159.71 145.57,159.67 C 145.56,159.63 145.56,159.59 145.56,159.56 C 145.56,159.53 145.57,159.49 145.58,159.47 C 145.59,159.41 145.63,159.37 145.68,159.34 C 145.71,159.32 145.73,159.31 145.76,159.29 C 145.79,159.28 145.81,159.26 145.84,159.24 C 145.89,159.21 145.95,159.17 146.02,159.12 C 146.08,159.08 146.15,159.04 146.23,158.99 C 146.31,158.95 146.39,158.91 146.48,158.87 C 146.56,158.83 146.64,158.79 146.72,158.76 C 146.81,158.72 146.89,158.69 146.96,158.66 C 147.04,158.62 147.12,158.59 147.2,158.55 C 147.25,158.54 147.29,158.52 147.33,158.5 C 147.37,158.48 147.42,158.45 147.46,158.43 C 147.5,158.42 147.54,158.4 147.58,158.39 C 147.62,158.38 147.66,158.38 147.69,158.38 C 147.76,158.39 147.82,158.43 147.87,158.48 z M 145.78,153.15 C 145.61,153.19 145.44,153.2 145.27,153.19 C 145.19,153.18 145.11,153.16 145.03,153.14 C 144.95,153.12 144.88,153.08 144.81,153.04 C 144.68,152.96 144.57,152.85 144.48,152.72 C 144.44,152.66 144.4,152.59 144.37,152.51 C 144.35,152.44 144.34,152.36 144.34,152.27 C 144.33,152.19 144.35,152.11 144.38,152.03 C 144.4,151.94 144.45,151.87 144.51,151.79 C 144.56,151.72 144.62,151.64 144.67,151.56 C 144.73,151.49 144.77,151.41 144.82,151.34 C 144.86,151.26 144.91,151.18 144.95,151.09 C 144.98,151.05 145.0,151.01 145.02,150.96 C 145.04,150.91 145.07,150.86 145.09,150.82 C 145.11,150.77 145.14,150.73 145.16,150.7 C 145.19,150.67 145.21,150.65 145.24,150.63 C 145.27,150.62 145.3,150.61 145.34,150.61 C 145.37,150.62 145.4,150.63 145.44,150.65 C 145.48,150.66 145.51,150.69 145.55,150.71 C 145.58,150.73 145.61,150.76 145.65,150.78 C 145.68,150.8 145.71,150.83 145.74,150.86 C 145.77,150.88 145.8,150.91 145.83,150.94 C 145.88,151.0 145.95,151.05 146.01,151.08 C 146.08,151.12 146.16,151.14 146.24,151.15 C 146.28,151.16 146.32,151.16 146.36,151.16 C 146.4,151.17 146.44,151.17 146.49,151.17 C 146.53,151.17 146.57,151.17 146.62,151.17 C 146.67,151.17 146.71,151.16 146.76,151.16 C 146.8,151.16 146.84,151.16 146.88,151.17 C 146.91,151.17 146.93,151.19 146.95,151.21 C 146.97,151.23 146.98,151.26 146.98,151.3 C 146.98,151.33 146.98,151.38 146.97,151.42 C 146.96,151.47 146.94,151.52 146.93,151.56 C 146.91,151.61 146.89,151.66 146.88,151.7 C 146.84,151.78 146.8,151.87 146.76,151.94 C 146.72,152.02 146.67,152.1 146.62,152.17 C 146.58,152.25 146.53,152.33 146.49,152.4 C 146.44,152.48 146.4,152.56 146.35,152.63 C 146.32,152.67 146.3,152.71 146.27,152.75 C 146.25,152.79 146.22,152.83 146.2,152.87 C 146.15,152.94 146.09,153.01 146.02,153.06 C 145.95,153.1 145.87,153.13 145.78,153.15 z M 144.41,159.62 C 144.31,159.75 144.2,159.86 144.08,159.99 C 144.05,160.02 144.02,160.05 143.99,160.08 C 143.95,160.12 143.92,160.15 143.87,160.18 C 143.83,160.21 143.79,160.24 143.74,160.28 C 143.7,160.31 143.65,160.34 143.6,160.37 C 143.51,160.43 143.41,160.47 143.31,160.5 C 143.25,160.51 143.2,160.52 143.15,160.52 C 143.09,160.53 143.04,160.53 142.98,160.52 C 142.93,160.52 142.87,160.51 142.81,160.51 C 142.76,160.5 142.7,160.49 142.65,160.49 C 142.54,160.47 142.43,160.45 142.33,160.43 C 142.22,160.41 142.12,160.38 142.02,160.35 C 141.92,160.32 141.83,160.28 141.74,160.24 C 141.64,160.19 141.56,160.14 141.47,160.09 C 141.39,160.03 141.31,159.97 141.24,159.9 C 141.17,159.83 141.12,159.75 141.09,159.67 C 141.07,159.58 141.07,159.48 141.09,159.38 C 141.11,159.29 141.15,159.19 141.2,159.1 C 141.26,159.01 141.33,158.93 141.4,158.85 C 141.48,158.77 141.56,158.69 141.64,158.61 C 141.72,158.52 141.79,158.43 141.87,158.34 C 141.95,158.24 142.02,158.15 142.11,158.05 C 142.15,158.01 142.19,157.96 142.24,157.91 C 142.28,157.87 142.33,157.82 142.37,157.78 C 142.42,157.74 142.46,157.7 142.51,157.66 C 142.56,157.63 142.61,157.6 142.66,157.58 C 142.76,157.54 142.86,157.53 142.97,157.54 C 143.07,157.54 143.16,157.57 143.24,157.62 C 143.28,157.65 143.32,157.68 143.35,157.71 C 143.39,157.75 143.42,157.79 143.45,157.83 C 143.48,157.87 143.51,157.91 143.54,157.95 C 143.57,157.99 143.61,158.03 143.64,158.06 C 143.71,158.13 143.79,158.19 143.87,158.24 C 143.95,158.3 144.03,158.35 144.11,158.41 C 144.19,158.46 144.27,158.52 144.34,158.59 C 144.41,158.66 144.47,158.74 144.51,158.83 C 144.53,158.87 144.55,158.92 144.56,158.97 C 144.57,159.02 144.58,159.07 144.58,159.12 C 144.59,159.17 144.58,159.23 144.58,159.27 C 144.57,159.32 144.57,159.37 144.55,159.41 C 144.52,159.49 144.47,159.56 144.41,159.62 z M 145.61,160.34 C 145.61,160.4 145.59,160.46 145.55,160.5 C 145.54,160.52 145.52,160.54 145.49,160.56 C 145.47,160.57 145.44,160.59 145.41,160.6 C 145.38,160.61 145.34,160.63 145.31,160.64 C 145.28,160.65 145.24,160.67 145.21,160.69 C 145.14,160.72 145.07,160.76 144.99,160.81 C 144.91,160.86 144.82,160.91 144.73,160.97 C 144.65,161.02 144.56,161.08 144.48,161.13 C 144.4,161.19 144.33,161.24 144.25,161.3 C 144.17,161.36 144.1,161.41 144.03,161.47 C 143.95,161.53 143.88,161.6 143.8,161.66 C 143.73,161.72 143.66,161.79 143.59,161.86 C 143.52,161.92 143.45,161.99 143.39,162.06 C 143.36,162.09 143.32,162.13 143.29,162.16 C 143.26,162.19 143.23,162.23 143.2,162.26 C 143.17,162.29 143.14,162.33 143.11,162.36 C 143.08,162.4 143.05,162.44 143.01,162.48 C 142.99,162.5 142.98,162.52 142.96,162.54 C 142.94,162.56 142.93,162.58 142.92,162.59 C 142.91,162.61 142.9,162.62 142.89,162.63 C 142.82,162.71 142.77,162.74 142.75,162.74 C 142.75,162.74 142.75,162.74 142.75,162.73 C 142.76,162.72 142.76,162.71 142.77,162.7 C 142.78,162.68 142.79,162.67 142.8,162.65 C 142.81,162.64 142.82,162.62 142.82,162.61 C 142.83,162.59 142.84,162.58 142.85,162.57 C 142.86,162.55 142.87,162.54 142.87,162.53 C 142.89,162.5 142.91,162.47 142.92,162.45 C 142.93,162.42 142.95,162.4 142.96,162.38 C 142.99,162.33 143.01,162.29 143.04,162.25 C 143.06,162.21 143.08,162.17 143.11,162.14 C 143.13,162.1 143.15,162.06 143.18,162.03 C 143.2,161.99 143.22,161.95 143.25,161.92 C 143.3,161.84 143.35,161.77 143.41,161.69 C 143.46,161.61 143.52,161.54 143.58,161.47 C 143.63,161.39 143.69,161.32 143.75,161.25 C 143.87,161.11 143.99,160.97 144.13,160.84 C 144.2,160.77 144.27,160.7 144.34,160.63 C 144.42,160.56 144.49,160.5 144.55,160.44 C 144.58,160.41 144.6,160.38 144.63,160.35 C 144.66,160.33 144.68,160.3 144.71,160.28 C 144.74,160.25 144.76,160.23 144.79,160.21 C 144.82,160.19 144.84,160.17 144.87,160.15 C 144.93,160.11 144.99,160.08 145.07,160.07 C 145.15,160.06 145.25,160.06 145.34,160.08 C 145.43,160.09 145.51,160.12 145.56,160.17 C 145.6,160.21 145.62,160.27 145.61,160.34 z M 143.84,156.95 C 143.79,156.83 143.75,156.71 143.76,156.58 C 143.77,156.46 143.83,156.34 143.91,156.23 C 143.99,156.11 144.09,156.0 144.19,155.89 C 144.29,155.79 144.4,155.7 144.5,155.61 C 144.61,155.53 144.72,155.44 144.82,155.35 C 144.87,155.3 144.92,155.25 144.97,155.2 C 145.02,155.15 145.07,155.09 145.12,155.04 C 145.17,154.98 145.22,154.93 145.28,154.88 C 145.33,154.83 145.39,154.79 145.45,154.75 C 145.52,154.72 145.58,154.68 145.65,154.66 C 145.72,154.63 145.8,154.6 145.87,154.59 C 145.94,154.57 146.01,154.56 146.08,154.56 C 146.15,154.56 146.21,154.57 146.27,154.59 C 146.32,154.61 146.38,154.63 146.42,154.67 C 146.47,154.71 146.52,154.75 146.56,154.81 C 146.6,154.86 146.64,154.91 146.68,154.97 C 146.72,155.02 146.76,155.07 146.8,155.12 C 146.88,155.22 146.96,155.32 147.05,155.41 C 147.13,155.5 147.22,155.59 147.31,155.68 C 147.4,155.76 147.5,155.84 147.6,155.92 C 147.7,156.0 147.81,156.08 147.92,156.15 C 147.97,156.18 148.03,156.22 148.09,156.25 C 148.15,156.28 148.21,156.32 148.27,156.35 C 148.33,156.38 148.38,156.42 148.43,156.46 C 148.47,156.5 148.5,156.55 148.53,156.6 C 148.56,156.65 148.58,156.71 148.58,156.77 C 148.59,156.83 148.59,156.89 148.59,156.96 C 148.58,157.03 148.56,157.09 148.54,157.16 C 148.52,157.22 148.49,157.27 148.45,157.32 C 148.37,157.42 148.26,157.5 148.12,157.56 C 148.05,157.59 147.97,157.61 147.89,157.64 C 147.82,157.66 147.74,157.69 147.67,157.72 C 147.53,157.77 147.38,157.81 147.24,157.86 C 147.1,157.91 146.95,157.96 146.81,158.02 C 146.74,158.05 146.67,158.08 146.59,158.11 C 146.52,158.14 146.45,158.18 146.38,158.21 C 146.31,158.24 146.24,158.27 146.17,158.3 C 146.1,158.32 146.03,158.34 145.96,158.34 C 145.89,158.35 145.82,158.36 145.75,158.35 C 145.68,158.35 145.62,158.34 145.55,158.32 C 145.49,158.3 145.43,158.28 145.37,158.26 C 145.3,158.24 145.24,158.22 145.19,158.19 C 145.07,158.14 144.96,158.09 144.85,158.03 C 144.74,157.97 144.64,157.91 144.54,157.83 C 144.45,157.76 144.36,157.68 144.27,157.59 C 144.1,157.41 143.94,157.19 143.84,156.95 z M 136.97,166.83 C 136.81,166.98 136.61,167.08 136.41,167.12 C 136.35,167.13 136.3,167.13 136.25,167.14 C 136.2,167.14 136.15,167.14 136.1,167.14 C 136.05,167.13 136.0,167.13 135.95,167.12 C 135.9,167.11 135.85,167.09 135.8,167.08 C 135.75,167.06 135.71,167.04 135.67,167.01 C 135.63,166.99 135.6,166.96 135.57,166.93 C 135.52,166.86 135.49,166.77 135.48,166.68 C 135.47,166.58 135.47,166.48 135.48,166.38 C 135.48,166.28 135.48,166.18 135.49,166.09 C 135.5,165.89 135.52,165.7 135.54,165.51 C 135.56,165.41 135.57,165.31 135.58,165.22 C 135.6,165.12 135.61,165.02 135.63,164.93 C 135.65,164.83 135.66,164.74 135.68,164.64 C 135.69,164.59 135.69,164.54 135.7,164.49 C 135.71,164.44 135.71,164.39 135.72,164.34 C 135.73,164.29 135.74,164.25 135.75,164.2 C 135.76,164.15 135.78,164.11 135.8,164.07 C 135.84,163.98 135.9,163.89 135.97,163.82 C 136.04,163.75 136.12,163.7 136.2,163.69 C 136.24,163.69 136.28,163.69 136.32,163.71 C 136.37,163.73 136.41,163.75 136.45,163.78 C 136.5,163.81 136.54,163.83 136.59,163.85 C 136.64,163.88 136.69,163.89 136.74,163.89 C 136.84,163.9 136.96,163.88 137.07,163.85 C 137.13,163.83 137.19,163.82 137.24,163.81 C 137.29,163.8 137.33,163.8 137.36,163.81 C 137.44,163.83 137.49,163.89 137.52,163.96 C 137.56,164.03 137.57,164.12 137.57,164.22 C 137.56,164.31 137.54,164.4 137.51,164.5 C 137.48,164.6 137.45,164.7 137.42,164.8 C 137.4,164.9 137.38,165.0 137.36,165.1 C 137.34,165.2 137.33,165.29 137.31,165.39 C 137.3,165.49 137.28,165.59 137.27,165.69 C 137.26,165.79 137.25,165.88 137.24,165.99 C 137.24,166.04 137.23,166.09 137.23,166.14 C 137.23,166.19 137.23,166.24 137.23,166.29 C 137.23,166.34 137.23,166.39 137.22,166.44 C 137.21,166.49 137.19,166.54 137.17,166.58 C 137.13,166.67 137.05,166.76 136.97,166.83 z M 147.29,152.39 C 147.39,152.27 147.51,152.18 147.64,152.15 C 147.71,152.13 147.78,152.13 147.86,152.15 C 147.94,152.16 148.02,152.19 148.11,152.23 C 148.19,152.27 148.28,152.31 148.36,152.36 C 148.44,152.41 148.52,152.45 148.6,152.5 C 148.67,152.55 148.75,152.6 148.82,152.66 C 148.89,152.71 148.96,152.77 149.03,152.83 C 149.1,152.89 149.17,152.94 149.24,153.0 C 149.31,153.05 149.38,153.11 149.46,153.16 C 149.6,153.26 149.76,153.35 149.92,153.43 C 150.08,153.51 150.24,153.59 150.41,153.66 C 150.58,153.73 150.75,153.79 150.92,153.85 C 151.1,153.9 151.27,153.95 151.45,153.99 C 151.54,154.01 151.63,154.02 151.72,154.03 C 151.81,154.04 151.9,154.05 151.99,154.06 C 152.18,154.08 152.36,154.11 152.54,154.15 C 152.73,154.19 152.92,154.24 153.09,154.31 C 153.18,154.35 153.26,154.39 153.33,154.43 C 153.39,154.47 153.44,154.52 153.46,154.57 C 153.52,154.68 153.51,154.81 153.45,154.94 C 153.4,155.08 153.3,155.22 153.18,155.34 C 153.06,155.46 152.92,155.57 152.76,155.68 C 152.6,155.79 152.43,155.89 152.26,155.99 C 152.17,156.05 152.09,156.1 152.0,156.15 C 151.91,156.21 151.83,156.26 151.74,156.31 C 151.65,156.36 151.57,156.41 151.48,156.44 C 151.39,156.47 151.3,156.5 151.21,156.51 C 151.12,156.53 151.03,156.53 150.94,156.53 C 150.84,156.52 150.75,156.51 150.66,156.49 C 150.56,156.47 150.47,156.44 150.38,156.42 C 150.29,156.39 150.2,156.37 150.11,156.34 C 149.93,156.29 149.75,156.23 149.58,156.17 C 149.41,156.11 149.24,156.04 149.08,155.97 C 148.92,155.89 148.76,155.81 148.6,155.71 C 148.45,155.62 148.3,155.52 148.16,155.42 C 148.03,155.31 147.9,155.2 147.77,155.08 C 147.65,154.96 147.53,154.83 147.4,154.7 C 147.27,154.57 147.14,154.44 147.03,154.3 C 146.92,154.16 146.83,154.01 146.79,153.85 C 146.77,153.77 146.77,153.69 146.78,153.6 C 146.78,153.52 146.8,153.43 146.82,153.34 C 146.85,153.25 146.88,153.16 146.91,153.08 C 146.95,152.99 146.98,152.91 147.02,152.83 C 147.1,152.67 147.19,152.52 147.29,152.39 z M 142.5,161.84 C 142.45,161.93 142.39,162.02 142.33,162.12 C 142.28,162.21 142.23,162.3 142.18,162.4 C 142.12,162.49 142.06,162.6 142.0,162.7 C 141.97,162.76 141.94,162.81 141.91,162.86 C 141.88,162.92 141.85,162.97 141.82,163.02 C 141.79,163.07 141.75,163.13 141.71,163.17 C 141.67,163.22 141.63,163.26 141.58,163.29 C 141.49,163.37 141.38,163.42 141.26,163.46 C 141.2,163.48 141.14,163.49 141.08,163.51 C 141.02,163.52 140.96,163.53 140.9,163.54 C 140.78,163.56 140.66,163.58 140.55,163.58 C 140.43,163.58 140.32,163.58 140.21,163.57 C 140.09,163.56 139.99,163.55 139.88,163.52 C 139.77,163.5 139.67,163.47 139.57,163.44 C 139.46,163.41 139.36,163.37 139.26,163.32 C 139.17,163.28 139.09,163.22 139.03,163.15 C 138.97,163.07 138.93,162.98 138.91,162.89 C 138.89,162.79 138.89,162.68 138.91,162.58 C 138.93,162.48 138.97,162.38 139.02,162.28 C 139.07,162.18 139.13,162.08 139.19,161.98 C 139.25,161.88 139.3,161.78 139.35,161.68 C 139.41,161.59 139.46,161.49 139.52,161.39 C 139.54,161.34 139.57,161.29 139.6,161.23 C 139.62,161.18 139.65,161.13 139.68,161.08 C 139.71,161.03 139.74,160.98 139.77,160.94 C 139.8,160.89 139.84,160.85 139.88,160.8 C 139.96,160.72 140.06,160.64 140.17,160.58 C 140.27,160.51 140.39,160.47 140.49,160.46 C 140.55,160.45 140.6,160.45 140.65,160.46 C 140.71,160.46 140.76,160.48 140.81,160.5 C 140.87,160.51 140.92,160.54 140.97,160.56 C 141.02,160.58 141.07,160.6 141.12,160.62 C 141.22,160.66 141.32,160.71 141.42,160.75 C 141.51,160.79 141.61,160.83 141.72,160.87 C 141.77,160.88 141.82,160.9 141.88,160.91 C 141.94,160.92 142.0,160.93 142.05,160.94 C 142.16,160.96 142.26,161.0 142.35,161.05 C 142.39,161.08 142.42,161.12 142.45,161.15 C 142.48,161.19 142.51,161.24 142.53,161.28 C 142.55,161.33 142.57,161.37 142.58,161.42 C 142.59,161.47 142.59,161.51 142.59,161.56 C 142.58,161.65 142.54,161.75 142.5,161.84 z M 154.13,158.77 C 154.01,158.78 153.89,158.77 153.77,158.75 C 153.72,158.74 153.66,158.72 153.61,158.7 C 153.55,158.68 153.5,158.66 153.45,158.63 C 153.4,158.6 153.35,158.57 153.3,158.55 C 153.25,158.52 153.2,158.49 153.15,158.46 C 153.05,158.4 152.95,158.35 152.85,158.29 C 152.75,158.23 152.66,158.17 152.57,158.11 C 152.47,158.05 152.39,157.98 152.3,157.92 C 152.21,157.85 152.13,157.78 152.03,157.7 C 151.94,157.62 151.83,157.54 151.75,157.45 C 151.67,157.37 151.61,157.28 151.62,157.2 C 151.64,157.13 151.73,157.05 151.84,156.98 C 151.95,156.91 152.08,156.85 152.2,156.79 C 152.32,156.72 152.43,156.67 152.54,156.61 C 152.64,156.55 152.75,156.48 152.85,156.41 C 152.9,156.37 152.95,156.33 152.99,156.29 C 153.04,156.24 153.09,156.19 153.14,156.15 C 153.19,156.1 153.23,156.06 153.28,156.03 C 153.33,155.99 153.38,155.97 153.44,155.96 C 153.54,155.93 153.65,155.94 153.76,155.97 C 153.82,155.99 153.88,156.02 153.93,156.04 C 153.99,156.07 154.04,156.1 154.09,156.13 C 154.19,156.19 154.27,156.26 154.36,156.33 C 154.44,156.41 154.53,156.48 154.62,156.55 C 154.71,156.62 154.8,156.69 154.9,156.75 C 155.0,156.81 155.1,156.86 155.2,156.91 C 155.3,156.96 155.4,157.01 155.5,157.06 C 155.61,157.1 155.71,157.15 155.83,157.2 C 155.94,157.25 156.07,157.31 156.18,157.38 C 156.28,157.44 156.36,157.51 156.36,157.58 C 156.36,157.65 156.28,157.74 156.18,157.82 C 156.07,157.9 155.94,157.98 155.82,158.05 C 155.7,158.12 155.6,158.18 155.49,158.24 C 155.39,158.3 155.28,158.35 155.17,158.41 C 155.06,158.46 154.95,158.52 154.84,158.57 C 154.73,158.62 154.61,158.66 154.49,158.7 C 154.37,158.73 154.25,158.76 154.13,158.77 z M 137.73,162.94 C 137.5,163.02 137.27,163.04 137.05,163.01 C 137.0,163.0 136.94,162.98 136.89,162.97 C 136.84,162.95 136.79,162.93 136.75,162.91 C 136.7,162.89 136.65,162.87 136.61,162.84 C 136.57,162.81 136.52,162.78 136.49,162.74 C 136.45,162.71 136.42,162.67 136.39,162.63 C 136.37,162.59 136.35,162.55 136.34,162.51 C 136.33,162.42 136.35,162.32 136.39,162.22 C 136.42,162.12 136.47,162.01 136.52,161.91 C 136.57,161.81 136.61,161.71 136.65,161.61 C 136.73,161.42 136.82,161.23 136.91,161.03 C 136.96,160.94 137.01,160.83 137.07,160.73 C 137.12,160.63 137.18,160.53 137.24,160.42 C 137.3,160.32 137.36,160.22 137.42,160.11 C 137.44,160.05 137.47,160.0 137.5,159.94 C 137.53,159.89 137.56,159.83 137.59,159.77 C 137.62,159.72 137.65,159.67 137.68,159.62 C 137.72,159.58 137.75,159.54 137.79,159.51 C 137.87,159.44 137.96,159.41 138.06,159.39 C 138.11,159.39 138.16,159.39 138.21,159.39 C 138.25,159.4 138.3,159.41 138.34,159.42 C 138.38,159.44 138.43,159.46 138.47,159.49 C 138.51,159.51 138.55,159.55 138.59,159.58 C 138.63,159.62 138.67,159.65 138.71,159.68 C 138.76,159.71 138.81,159.73 138.87,159.74 C 138.92,159.76 138.98,159.77 139.04,159.78 C 139.11,159.78 139.18,159.78 139.24,159.78 C 139.31,159.78 139.37,159.78 139.42,159.79 C 139.47,159.79 139.5,159.81 139.52,159.84 C 139.56,159.89 139.54,159.98 139.5,160.09 C 139.46,160.19 139.39,160.3 139.33,160.41 C 139.27,160.52 139.21,160.61 139.15,160.71 C 139.08,160.8 139.02,160.9 138.96,161.0 C 138.9,161.09 138.84,161.19 138.79,161.29 C 138.73,161.39 138.68,161.49 138.63,161.59 C 138.58,161.69 138.52,161.78 138.48,161.88 C 138.43,161.97 138.38,162.07 138.33,162.17 C 138.31,162.23 138.29,162.28 138.27,162.33 C 138.25,162.38 138.23,162.44 138.21,162.49 C 138.19,162.54 138.16,162.59 138.14,162.64 C 138.11,162.69 138.07,162.73 138.03,162.76 C 137.95,162.84 137.84,162.9 137.73,162.94 z M 142.97,155.92 C 142.78,155.91 142.6,155.86 142.45,155.78 C 142.37,155.73 142.3,155.68 142.23,155.62 C 142.17,155.55 142.12,155.47 142.08,155.39 C 142.04,155.3 142.01,155.22 141.99,155.13 C 141.97,155.04 141.97,154.96 141.99,154.87 C 142.0,154.78 142.04,154.69 142.09,154.61 C 142.14,154.53 142.2,154.46 142.27,154.4 C 142.34,154.33 142.41,154.27 142.49,154.2 C 142.56,154.13 142.62,154.06 142.69,154.0 C 142.75,153.93 142.81,153.86 142.87,153.79 C 142.94,153.72 143.01,153.65 143.08,153.57 C 143.12,153.53 143.16,153.48 143.2,153.44 C 143.24,153.4 143.28,153.36 143.32,153.32 C 143.36,153.27 143.4,153.23 143.44,153.19 C 143.48,153.14 143.52,153.09 143.57,153.05 C 143.61,153.0 143.65,152.97 143.69,152.94 C 143.73,152.92 143.77,152.91 143.8,152.9 C 143.84,152.9 143.87,152.92 143.9,152.94 C 143.94,152.96 143.96,153.0 143.99,153.04 C 144.01,153.06 144.02,153.09 144.03,153.11 C 144.05,153.13 144.06,153.15 144.08,153.17 C 144.11,153.22 144.14,153.25 144.17,153.29 C 144.2,153.33 144.23,153.36 144.26,153.4 C 144.3,153.43 144.33,153.46 144.37,153.49 C 144.44,153.55 144.52,153.59 144.62,153.62 C 144.66,153.63 144.72,153.64 144.77,153.65 C 144.83,153.65 144.89,153.65 144.95,153.65 C 145.01,153.66 145.06,153.66 145.1,153.67 C 145.15,153.68 145.18,153.7 145.2,153.73 C 145.22,153.75 145.23,153.78 145.23,153.82 C 145.23,153.86 145.22,153.9 145.21,153.95 C 145.19,154.0 145.17,154.04 145.14,154.09 C 145.11,154.14 145.09,154.18 145.06,154.22 C 145.0,154.31 144.92,154.39 144.84,154.46 C 144.8,154.49 144.76,154.53 144.72,154.57 C 144.68,154.6 144.64,154.64 144.6,154.68 C 144.52,154.75 144.44,154.82 144.37,154.89 C 144.29,154.96 144.22,155.02 144.15,155.09 C 144.07,155.15 144.0,155.21 143.92,155.28 C 143.85,155.35 143.77,155.41 143.7,155.48 C 143.66,155.52 143.63,155.55 143.59,155.59 C 143.55,155.62 143.51,155.66 143.48,155.7 C 143.44,155.74 143.4,155.77 143.36,155.8 C 143.32,155.83 143.28,155.86 143.24,155.87 C 143.15,155.91 143.06,155.92 142.97,155.92 z M 140.03,159.19 C 139.83,159.24 139.62,159.25 139.42,159.22 C 139.23,159.18 139.05,159.11 138.91,159.0 C 138.87,158.97 138.84,158.94 138.81,158.9 C 138.78,158.87 138.76,158.83 138.74,158.8 C 138.7,158.72 138.68,158.63 138.68,158.54 C 138.68,158.45 138.69,158.36 138.73,158.28 C 138.77,158.19 138.83,158.11 138.9,158.04 C 138.97,157.96 139.05,157.89 139.12,157.81 C 139.19,157.74 139.26,157.66 139.32,157.59 C 139.39,157.51 139.46,157.43 139.54,157.33 C 139.63,157.24 139.72,157.13 139.83,157.02 C 139.93,156.9 140.05,156.77 140.15,156.64 C 140.21,156.58 140.26,156.52 140.31,156.46 C 140.36,156.4 140.4,156.34 140.45,156.28 C 140.5,156.22 140.56,156.17 140.61,156.12 C 140.66,156.06 140.71,156.02 140.77,155.98 C 140.88,155.9 140.99,155.84 141.09,155.81 C 141.2,155.78 141.28,155.79 141.34,155.84 C 141.36,155.86 141.38,155.89 141.4,155.94 C 141.41,155.99 141.42,156.04 141.42,156.1 C 141.43,156.16 141.44,156.22 141.45,156.27 C 141.47,156.31 141.5,156.35 141.53,156.38 C 141.56,156.41 141.59,156.44 141.64,156.45 C 141.68,156.47 141.73,156.48 141.78,156.48 C 141.83,156.49 141.88,156.49 141.93,156.51 C 141.97,156.52 142.0,156.54 142.03,156.56 C 142.09,156.62 142.13,156.69 142.14,156.78 C 142.15,156.83 142.15,156.88 142.14,156.92 C 142.14,156.97 142.12,157.02 142.1,157.06 C 142.06,157.16 141.98,157.25 141.89,157.34 C 141.8,157.43 141.7,157.52 141.61,157.62 C 141.52,157.71 141.44,157.81 141.36,157.9 C 141.28,158.0 141.2,158.09 141.13,158.17 C 141.06,158.26 140.99,158.34 140.92,158.41 C 140.85,158.49 140.78,158.56 140.72,158.64 C 140.69,158.68 140.66,158.72 140.63,158.76 C 140.59,158.8 140.56,158.84 140.53,158.88 C 140.5,158.92 140.47,158.96 140.43,158.99 C 140.4,159.02 140.36,159.05 140.32,159.08 C 140.23,159.13 140.13,159.17 140.03,159.19 z M 152.53,158.84 C 152.6,158.9 152.64,158.96 152.62,159.01 C 152.6,159.07 152.52,159.11 152.42,159.14 C 152.32,159.17 152.19,159.2 152.09,159.22 C 151.98,159.24 151.88,159.24 151.78,159.25 C 151.69,159.25 151.59,159.25 151.5,159.26 C 151.4,159.26 151.31,159.27 151.21,159.27 C 151.11,159.28 151.02,159.29 150.92,159.29 C 150.82,159.3 150.72,159.31 150.62,159.31 C 150.51,159.32 150.41,159.32 150.3,159.33 C 150.25,159.33 150.19,159.34 150.14,159.34 C 150.08,159.35 150.03,159.35 149.97,159.36 C 149.92,159.36 149.86,159.36 149.82,159.36 C 149.77,159.35 149.72,159.34 149.68,159.33 C 149.64,159.31 149.6,159.29 149.56,159.27 C 149.53,159.25 149.49,159.22 149.46,159.19 C 149.43,159.15 149.4,159.12 149.37,159.09 C 149.34,159.05 149.31,159.02 149.28,158.99 C 149.23,158.93 149.17,158.87 149.11,158.8 C 149.06,158.74 149.01,158.68 148.95,158.6 C 148.9,158.53 148.84,158.45 148.8,158.37 C 148.77,158.29 148.75,158.22 148.78,158.15 C 148.82,158.09 148.9,158.04 149.0,157.99 C 149.1,157.94 149.21,157.9 149.31,157.87 C 149.41,157.83 149.5,157.81 149.6,157.78 C 149.69,157.75 149.78,157.73 149.88,157.69 C 149.93,157.68 149.97,157.66 150.02,157.64 C 150.07,157.62 150.12,157.6 150.17,157.58 C 150.21,157.57 150.26,157.55 150.31,157.54 C 150.35,157.54 150.4,157.53 150.44,157.54 C 150.48,157.54 150.53,157.55 150.57,157.57 C 150.61,157.59 150.65,157.61 150.68,157.64 C 150.72,157.67 150.76,157.7 150.8,157.73 C 150.83,157.75 150.87,157.78 150.91,157.81 C 150.98,157.86 151.05,157.92 151.13,157.97 C 151.2,158.02 151.27,158.07 151.35,158.12 C 151.42,158.17 151.5,158.22 151.58,158.26 C 151.65,158.31 151.73,158.36 151.81,158.4 C 151.89,158.44 151.97,158.48 152.05,158.52 C 152.13,158.56 152.21,158.61 152.29,158.66 C 152.38,158.71 152.47,158.78 152.53,158.84 z M 138.01,170.88 C 138.04,170.99 138.07,171.09 138.06,171.2 C 138.05,171.25 138.03,171.3 138.01,171.35 C 137.99,171.41 137.96,171.46 137.92,171.51 C 137.89,171.56 137.85,171.61 137.8,171.65 C 137.76,171.69 137.72,171.73 137.67,171.76 C 137.62,171.8 137.57,171.82 137.51,171.85 C 137.46,171.87 137.4,171.89 137.34,171.91 C 137.28,171.92 137.22,171.93 137.17,171.93 C 137.11,171.93 137.06,171.93 137.01,171.91 C 136.91,171.88 136.83,171.82 136.75,171.74 C 136.68,171.66 136.61,171.56 136.56,171.47 C 136.5,171.37 136.45,171.27 136.4,171.17 C 136.31,170.96 136.23,170.75 136.15,170.54 C 136.11,170.44 136.07,170.33 136.03,170.22 C 135.99,170.12 135.95,170.01 135.92,169.9 C 135.89,169.79 135.86,169.68 135.83,169.57 C 135.8,169.47 135.78,169.36 135.75,169.26 C 135.73,169.15 135.71,169.04 135.68,168.94 C 135.66,168.88 135.65,168.83 135.63,168.77 C 135.61,168.71 135.59,168.65 135.58,168.6 C 135.56,168.54 135.55,168.48 135.55,168.44 C 135.55,168.39 135.55,168.34 135.57,168.31 C 135.58,168.27 135.61,168.23 135.64,168.21 C 135.67,168.18 135.71,168.15 135.76,168.14 C 135.81,168.12 135.86,168.1 135.91,168.08 C 135.96,168.07 136.01,168.05 136.07,168.03 C 136.17,168.0 136.29,167.97 136.4,167.95 C 136.51,167.93 136.62,167.91 136.73,167.9 C 136.84,167.88 136.94,167.87 137.03,167.88 C 137.12,167.89 137.2,167.92 137.24,167.98 C 137.29,168.05 137.3,168.15 137.31,168.27 C 137.32,168.38 137.32,168.51 137.33,168.63 C 137.34,168.75 137.36,168.86 137.39,168.96 C 137.41,169.07 137.44,169.18 137.47,169.28 C 137.5,169.39 137.53,169.5 137.56,169.61 C 137.62,169.83 137.69,170.04 137.77,170.25 C 137.85,170.46 137.94,170.67 138.01,170.88 z M 139.21,170.73 C 139.0,170.71 138.82,170.62 138.69,170.47 C 138.56,170.32 138.48,170.1 138.41,169.9 C 138.34,169.69 138.28,169.49 138.23,169.29 C 138.2,169.19 138.17,169.08 138.14,168.98 C 138.13,168.93 138.12,168.88 138.11,168.82 C 138.09,168.77 138.08,168.72 138.07,168.66 C 138.06,168.61 138.05,168.56 138.05,168.51 C 138.05,168.45 138.05,168.4 138.06,168.35 C 138.09,168.24 138.13,168.14 138.19,168.04 C 138.25,167.94 138.33,167.85 138.42,167.79 C 138.46,167.76 138.51,167.73 138.56,167.71 C 138.61,167.69 138.66,167.68 138.72,167.67 C 138.77,167.66 138.83,167.65 138.88,167.65 C 138.94,167.64 138.99,167.63 139.05,167.63 C 139.15,167.62 139.26,167.61 139.37,167.61 C 139.48,167.61 139.58,167.6 139.69,167.58 C 139.8,167.56 139.91,167.53 140.02,167.51 C 140.13,167.48 140.24,167.47 140.33,167.48 C 140.38,167.49 140.43,167.51 140.48,167.53 C 140.52,167.56 140.57,167.58 140.61,167.62 C 140.65,167.65 140.69,167.69 140.72,167.74 C 140.76,167.78 140.79,167.82 140.81,167.87 C 140.86,167.96 140.88,168.07 140.9,168.17 C 140.91,168.28 140.92,168.38 140.94,168.49 C 140.95,168.59 140.97,168.69 141.0,168.79 C 141.02,168.9 141.04,169.0 141.07,169.1 C 141.08,169.15 141.09,169.2 141.1,169.26 C 141.11,169.31 141.12,169.36 141.13,169.41 C 141.14,169.47 141.15,169.52 141.15,169.57 C 141.15,169.62 141.14,169.67 141.12,169.72 C 141.1,169.82 141.05,169.91 140.98,170.0 C 140.94,170.05 140.9,170.09 140.86,170.13 C 140.82,170.17 140.78,170.21 140.74,170.25 C 140.7,170.28 140.65,170.32 140.61,170.35 C 140.56,170.38 140.51,170.41 140.47,170.43 C 140.27,170.54 140.07,170.61 139.86,170.66 C 139.65,170.72 139.42,170.76 139.21,170.73 z M 142.05,172.07 C 141.98,172.21 141.89,172.34 141.78,172.44 C 141.68,172.55 141.56,172.64 141.43,172.71 C 141.3,172.79 141.16,172.85 141.02,172.9 C 140.95,172.92 140.87,172.94 140.8,172.95 C 140.73,172.95 140.66,172.94 140.59,172.93 C 140.52,172.91 140.45,172.88 140.39,172.84 C 140.33,172.81 140.27,172.76 140.22,172.7 C 140.17,172.65 140.11,172.6 140.06,172.54 C 140.01,172.49 139.95,172.44 139.9,172.39 C 139.85,172.33 139.8,172.28 139.76,172.22 C 139.72,172.15 139.68,172.09 139.66,172.01 C 139.64,171.94 139.63,171.87 139.63,171.79 C 139.64,171.72 139.66,171.64 139.69,171.57 C 139.73,171.5 139.77,171.43 139.83,171.38 C 139.88,171.32 139.95,171.29 140.02,171.26 C 140.09,171.22 140.16,171.2 140.24,171.17 C 140.31,171.14 140.38,171.11 140.45,171.08 C 140.52,171.04 140.59,171.01 140.66,170.97 C 140.72,170.93 140.79,170.88 140.85,170.84 C 140.91,170.79 140.98,170.75 141.05,170.73 C 141.12,170.7 141.2,170.69 141.27,170.69 C 141.35,170.7 141.42,170.71 141.49,170.74 C 141.55,170.77 141.6,170.82 141.65,170.88 C 141.69,170.93 141.74,170.99 141.78,171.06 C 141.82,171.12 141.85,171.18 141.89,171.25 C 141.92,171.31 141.96,171.38 141.99,171.44 C 142.01,171.48 142.02,171.51 142.04,171.55 C 142.05,171.58 142.07,171.62 142.08,171.65 C 142.1,171.69 142.11,171.72 142.12,171.76 C 142.12,171.79 142.13,171.83 142.12,171.86 C 142.12,171.93 142.09,172.0 142.05,172.07 z M 143.26,162.66 C 143.25,162.73 143.25,162.81 143.27,162.89 C 143.28,162.98 143.31,163.07 143.34,163.15 C 143.37,163.24 143.41,163.32 143.46,163.4 C 143.51,163.48 143.56,163.56 143.62,163.63 C 143.68,163.71 143.74,163.77 143.81,163.83 C 143.88,163.89 143.95,163.94 144.03,163.99 C 144.07,164.01 144.11,164.03 144.16,164.05 C 144.2,164.06 144.24,164.07 144.28,164.08 C 144.31,164.09 144.33,164.09 144.35,164.09 C 144.26,164.18 144.17,164.27 144.09,164.37 C 143.93,164.55 143.8,164.75 143.68,164.96 C 143.62,165.06 143.57,165.16 143.52,165.26 C 143.52,165.26 143.52,165.25 143.51,165.24 C 143.47,165.16 143.41,165.09 143.35,165.03 C 143.21,164.9 143.03,164.82 142.85,164.76 C 142.76,164.73 142.66,164.7 142.56,164.69 C 142.47,164.68 142.37,164.67 142.28,164.68 C 142.19,164.69 142.1,164.71 142.01,164.74 C 142.0,164.75 141.99,164.75 141.98,164.76 C 142.19,164.24 142.45,163.74 142.77,163.28 C 142.92,163.07 143.08,162.86 143.26,162.66 z" />
			
		<!-- Prism Reference -->
		<cam mingh:cam="--verb EditSelectAll --verb ZoomSelection --verb FileSave " />  
	 </g>

</svg>
