<svg
   xmlns:xlink="http://www.w3.org/1999/xlink"
   xmlns:svg="http://www.w3.org/2000/svg"
   xmlns="http://www.w3.org/2000/svg"
   xmlns:mingh="http://www.minghworld.com"
   width="300px"
   height="300px" >
    
	 <g>
		<!-- Paths -->
		<path id="shape" transform="matrix(-1 0 0 1 300 0)" style="fill:#ff0;stroke:none;"
			d="M 128.5,128.84 C 128.47,128.87 128.43,128.91 128.41,129.0 C 128.38,129.12 128.38,129.25 128.38,129.38 L 128.38,129.88 C 128.28,129.77 128.19,129.64 128.09,129.53 C 128.01,129.43 127.94,129.36 127.81,129.31 C 127.64,129.24 127.62,129.36 127.59,129.5 C 127.54,129.75 127.55,130.0 127.56,130.25 C 127.58,130.75 127.63,131.26 127.72,131.75 C 127.78,132.08 127.85,132.42 127.91,132.75 C 127.66,133.03 127.41,133.31 127.16,133.59 C 126.93,133.85 126.32,134.52 126.06,134.75 C 125.81,134.98 125.75,135.16 125.75,135.5 C 125.75,135.87 125.57,136.09 125.34,136.34 C 124.18,137.46 122.86,138.41 121.69,139.38 C 121.5,139.54 121.13,139.8 121.19,140.13 C 121.24,140.42 121.63,140.64 121.84,140.75 C 122.17,140.9 122.47,141.08 122.75,141.25 C 123.22,141.59 124.19,141.47 124.66,141.28 C 124.78,141.23 124.93,141.18 125.06,141.16 C 125.1,141.15 125.2,141.12 125.22,141.19 C 125.23,141.25 125.21,141.33 125.19,141.38 C 125.1,141.54 124.82,141.9 124.69,142.03 C 124.03,141.54 124.28,142.06 124.38,142.41 C 124.29,142.74 124.18,142.74 124.09,142.84 C 124.01,143.0 124.12,142.96 124.09,143.13 C 124.06,143.3 124.05,143.45 124.09,143.63 C 124.11,143.67 124.12,143.76 124.19,143.75 C 124.22,143.74 124.23,143.74 124.25,143.72 C 124.32,143.66 124.37,143.58 124.41,143.5 C 124.5,143.32 124.59,143.27 124.78,143.38 C 125.14,143.57 125.5,143.5 125.84,143.38 C 126.2,143.25 126.55,143.08 126.88,142.91 C 127.27,142.7 128.09,142.26 128.59,142.31 C 128.76,142.33 128.88,142.38 129.0,142.5 C 129.12,142.62 129.17,142.74 129.19,142.91 C 129.22,143.22 129.18,143.54 129.16,143.84 C 129.14,144.08 129.12,144.3 129.13,144.53 C 129.09,144.69 129.14,145.08 129.41,144.94 C 129.48,144.89 129.68,144.75 129.75,144.91 C 129.8,145.02 129.81,145.23 129.81,145.34 C 129.81,145.58 129.86,145.83 129.91,146.06 C 129.93,146.21 129.95,146.62 130.13,146.44 C 130.16,146.39 130.19,146.33 130.22,146.28 C 130.28,146.14 130.41,145.91 130.5,146.13 C 130.56,146.28 130.57,146.43 130.56,146.59 C 130.56,146.88 130.47,147.25 130.22,147.44 C 130.1,147.52 130.0,147.67 130.19,147.69 C 130.32,147.7 130.44,147.67 130.56,147.63 C 130.64,147.59 130.75,147.52 130.84,147.53 C 130.93,147.54 130.94,147.62 130.97,147.69 C 131.04,147.85 131.11,148.01 131.13,148.19 C 131.16,148.56 131.01,148.83 130.88,149.16 C 130.81,149.25 130.83,149.36 130.81,149.44 C 130.84,149.5 130.96,149.5 131.0,149.5 C 131.11,149.49 131.23,149.47 131.34,149.47 C 131.4,149.47 131.45,149.46 131.5,149.5 C 131.67,149.67 131.6,149.97 131.66,150.19 C 131.75,150.15 131.84,150.06 131.91,150.0 L 132.19,149.72 C 132.27,149.85 132.35,149.99 132.44,150.13 C 132.71,150.57 132.98,151.62 132.88,152.16 C 132.87,152.19 132.82,152.4 132.84,152.44 C 132.93,152.47 133.05,152.38 133.13,152.34 C 133.22,152.28 133.3,152.2 133.41,152.16 C 133.49,152.12 133.51,152.17 133.5,152.25 C 133.5,152.31 133.48,152.35 133.47,152.41 C 133.41,152.64 133.35,152.86 133.22,153.06 C 133.13,153.15 133.13,153.3 133.13,153.31 C 133.18,153.33 133.38,153.32 133.44,153.31 C 133.58,153.3 133.79,153.24 133.84,153.44 C 133.88,153.6 133.87,153.78 133.88,153.94 C 133.89,154.52 133.6,154.55 133.38,154.84 C 133.5,154.91 133.74,154.85 133.88,154.84 C 134.03,154.83 134.38,154.78 134.53,154.72 C 134.72,154.64 134.73,154.69 134.72,154.88 C 134.74,155.26 134.6,155.59 134.5,155.94 C 134.42,155.97 134.36,156.11 134.38,156.19 C 134.39,156.29 134.52,156.3 134.59,156.31 C 134.78,156.34 134.97,156.34 135.16,156.31 C 135.56,156.25 135.83,156.06 136.09,155.75 C 136.19,155.64 136.31,155.55 136.41,155.44 C 136.43,155.59 136.44,155.72 136.47,155.88 C 136.53,156.22 136.53,156.4 136.31,156.69 C 136.2,156.81 136.14,156.94 136.06,157.06 C 136.05,157.09 136.05,157.14 136.09,157.16 C 136.46,157.28 136.62,157.15 136.97,156.94 C 137.06,156.88 137.34,156.68 137.41,156.63 C 137.51,156.53 137.61,156.44 137.72,156.34 C 137.81,156.73 137.88,157.11 137.97,157.5 C 138.14,158.25 138.37,159.01 138.59,159.75 C 139.13,161.51 139.28,162.51 139.31,164.34 C 139.32,164.92 139.33,165.51 139.34,166.09 C 139.2,166.38 139.02,166.68 138.88,166.97 C 138.73,167.26 138.58,167.55 138.44,167.84 C 138.0,167.83 137.62,167.86 137.22,167.88 C 137.03,167.91 136.86,167.98 136.72,168.09 C 136.49,168.28 136.18,168.62 136.03,168.88 L 135.81,169.22 C 135.95,169.27 136.11,169.33 136.25,169.38 L 136.66,169.53 C 136.54,169.69 136.4,169.84 136.28,170.0 C 136.19,170.13 136.02,170.4 135.97,170.56 C 135.89,170.84 136.18,170.85 136.38,170.88 C 136.65,170.92 136.92,170.98 137.19,171.06 C 137.5,171.16 138.41,171.19 138.72,171.19 C 138.97,171.19 139.22,171.18 139.47,171.09 C 139.71,171.01 139.9,170.9 140.13,170.78 C 140.35,170.66 140.58,170.53 140.78,170.38 C 140.99,170.21 141.12,170.03 141.22,169.78 C 141.36,169.42 141.5,168.69 141.59,168.31 C 141.65,168.09 141.7,167.88 141.75,167.66 C 141.94,167.67 142.13,167.77 142.31,167.78 C 142.45,167.79 142.58,167.81 142.72,167.78 C 142.93,167.73 142.93,167.64 142.75,167.53 C 142.66,167.48 142.44,167.3 142.44,167.22 C 142.44,167.06 142.56,166.91 142.72,166.97 C 142.82,166.95 142.97,166.99 143.0,167.0 C 142.93,166.85 142.81,166.68 142.72,166.53 C 143.11,166.49 143.56,166.35 143.59,166.09 C 143.62,166.07 143.69,166.01 143.66,165.97 C 143.42,165.94 143.19,165.76 143.03,165.69 C 143.0,165.63 142.97,165.55 143.03,165.5 C 143.09,165.45 143.15,165.44 143.22,165.44 C 143.34,165.44 143.51,165.37 143.59,165.28 C 143.74,165.12 143.64,165.08 143.47,165.03 C 143.38,165.0 143.28,164.96 143.19,164.94 C 143.49,164.88 143.71,164.62 143.91,164.5 C 143.93,164.46 143.96,164.45 143.97,164.41 C 143.99,164.24 143.74,164.25 143.66,164.19 C 143.58,164.17 143.42,164.12 143.38,164.03 C 143.34,163.97 143.41,163.93 143.47,163.91 C 143.52,163.89 143.57,163.88 143.63,163.88 C 143.99,163.94 143.67,163.71 143.69,163.66 C 143.62,163.58 143.54,163.51 143.5,163.41 C 143.56,163.24 143.84,163.47 143.97,163.5 C 144.0,163.51 144.02,163.51 144.03,163.47 C 144.05,163.41 143.93,163.2 143.91,163.16 C 143.83,163.01 143.78,162.88 143.75,162.72 C 143.73,162.64 143.73,162.55 143.75,162.47 C 143.77,162.37 143.8,162.34 143.91,162.38 C 144.04,162.43 144.11,162.23 144.13,162.13 C 144.14,162.03 144.13,161.91 144.13,161.81 C 144.13,161.52 144.24,161.03 144.31,160.75 C 144.35,160.62 144.54,159.91 144.69,159.81 C 144.93,159.49 145.12,159.04 145.28,158.72 C 145.33,158.61 145.62,158.02 145.66,157.75 C 145.68,157.61 145.62,157.26 145.88,157.34 C 145.96,157.37 146.06,157.5 146.09,157.56 C 146.2,157.76 146.27,157.97 146.31,158.19 C 146.34,158.34 146.38,158.5 146.41,158.66 C 146.51,158.54 146.61,158.4 146.72,158.28 C 146.91,158.07 147.09,157.88 147.25,157.66 C 147.29,157.6 147.33,157.52 147.38,157.47 C 147.44,157.4 147.46,157.39 147.53,157.47 C 147.63,157.58 147.72,157.7 147.75,157.84 C 147.79,158.04 147.78,158.49 147.56,158.63 C 147.54,158.64 147.47,158.65 147.47,158.69 C 147.47,158.74 147.55,158.77 147.59,158.78 C 147.69,158.8 147.76,158.78 147.84,158.75 C 148.01,158.7 148.13,158.61 148.28,158.53 C 148.52,158.4 148.95,158.16 149.13,157.94 C 149.18,157.87 149.21,157.81 149.28,157.75 C 149.38,157.67 149.41,157.75 149.44,157.84 C 149.48,158.02 149.49,158.2 149.47,158.38 C 149.45,158.49 149.42,158.58 149.47,158.69 C 149.49,158.75 149.53,158.77 149.59,158.78 C 149.64,158.79 149.73,158.8 149.75,158.75 C 149.77,158.7 150.09,158.46 150.13,158.44 C 150.25,158.34 150.37,158.22 150.5,158.13 C 150.88,157.85 151.45,157.34 151.78,157.0 C 151.87,156.91 151.97,156.84 152.06,156.75 C 152.11,156.71 152.14,156.67 152.19,156.63 C 152.23,156.59 152.32,156.51 152.34,156.59 C 152.39,156.77 152.31,157.19 152.25,157.34 C 152.15,157.61 152.22,157.6 152.22,157.66 C 152.3,157.67 152.38,157.59 152.44,157.56 C 152.59,157.46 152.71,157.32 152.84,157.19 C 153.26,156.81 153.54,156.35 153.78,155.91 C 153.78,156.15 153.81,156.4 153.81,156.63 C 154.0,156.42 154.19,156.26 154.38,156.09 C 154.51,156.02 154.53,156.13 154.5,156.25 C 154.45,156.44 154.36,156.6 154.28,156.78 C 154.2,156.95 154.14,157.11 154.06,157.28 L 154.31,157.16 C 154.79,156.91 155.59,156.3 155.91,155.84 C 155.97,155.73 156.05,155.68 156.13,155.59 C 156.16,155.56 156.18,155.52 156.22,155.56 C 156.3,155.66 156.32,155.92 156.28,156.03 C 156.24,156.14 156.27,156.17 156.38,156.13 C 156.45,156.09 156.5,156.05 156.56,156.0 C 156.68,155.9 156.81,155.78 156.91,155.66 C 156.98,155.56 157.02,155.48 157.13,155.41 C 157.2,155.36 157.25,155.4 157.28,155.47 C 157.32,155.57 157.34,155.68 157.38,155.78 C 157.41,155.84 157.44,155.79 157.47,155.75 C 157.89,154.91 158.43,155.0 159.22,155.06 C 159.55,155.11 159.78,155.22 160.0,155.47 C 160.2,155.7 160.33,155.98 160.47,156.25 C 161.26,157.83 161.49,158.14 162.97,159.16 C 164.03,159.89 165.68,161.08 166.5,162.13 C 167.04,162.82 167.19,163.38 167.06,164.25 C 166.95,165.03 166.67,165.72 166.31,166.41 C 166.17,166.67 166.05,166.95 165.91,167.22 L 165.13,167.19 C 164.92,167.18 164.55,167.15 164.34,167.25 C 164.16,167.33 163.88,167.65 163.75,167.78 C 163.57,167.97 163.41,168.16 163.25,168.38 C 163.17,168.48 163.09,168.57 163.03,168.69 C 162.94,168.86 162.93,168.92 163.13,169.0 C 163.27,169.05 163.39,169.11 163.5,169.22 C 163.7,169.41 165.11,169.44 165.31,169.44 C 165.87,169.44 166.56,169.48 167.09,169.16 C 167.6,168.84 167.94,168.21 168.19,167.72 C 168.46,167.17 168.68,166.6 168.91,166.03 C 169.0,165.79 169.09,165.55 169.19,165.31 C 169.23,165.18 169.32,165.09 169.38,164.97 C 169.44,164.98 169.59,165.21 169.63,165.25 C 169.69,165.33 169.81,165.48 169.91,165.53 C 170.13,165.59 170.16,165.21 170.25,165.09 C 170.37,165.19 170.41,165.47 170.47,165.59 C 170.56,165.96 170.75,166.19 170.91,166.5 C 170.93,166.52 171.01,166.62 171.03,166.56 C 171.04,166.44 171.08,166.21 171.09,166.09 C 171.11,166.03 171.14,165.96 171.22,166.0 C 171.31,166.05 171.38,166.23 171.41,166.31 C 171.51,166.6 171.91,167.06 172.13,167.25 C 172.31,167.42 172.5,167.61 172.69,167.78 C 172.7,167.65 172.71,167.51 172.72,167.38 L 172.75,166.97 C 172.88,167.16 173.03,167.37 173.16,167.56 C 173.28,167.76 173.4,167.93 173.53,168.13 C 173.54,167.91 173.57,167.73 173.59,167.53 C 173.61,167.46 173.63,167.32 173.72,167.38 C 173.81,167.43 173.95,167.67 174.0,167.75 C 174.05,167.87 174.13,167.94 174.19,168.03 C 174.27,168.04 174.26,167.92 174.28,167.88 C 174.33,167.59 174.41,167.51 174.63,167.72 C 174.73,167.82 175.14,167.87 175.25,167.88 C 175.69,167.87 175.74,167.85 175.81,167.75 C 175.75,167.52 175.28,166.84 175.16,166.66 C 174.72,166.02 174.35,165.38 174.03,164.69 C 173.87,164.34 173.73,164.01 173.66,163.63 C 173.62,163.46 173.55,163.13 173.81,163.16 C 174.01,163.18 174.18,163.25 174.34,163.34 C 174.98,163.69 175.59,164.31 175.91,164.97 C 176.23,165.63 176.28,166.48 176.31,167.19 C 176.33,167.64 176.35,168.11 176.38,168.56 L 175.97,168.56 C 175.4,168.56 175.0,168.96 174.66,169.31 C 174.47,169.5 174.28,169.67 174.16,169.91 C 174.01,170.19 174.04,170.46 174.41,170.47 C 174.57,170.47 174.83,170.55 174.97,170.66 C 175.03,170.7 175.08,170.7 175.16,170.72 C 175.28,170.75 175.41,170.77 175.53,170.78 C 175.87,170.82 176.2,170.84 176.53,170.84 C 176.94,170.85 177.35,170.84 177.75,170.78 C 177.88,170.76 178.02,170.75 178.13,170.66 C 178.26,170.53 178.34,170.37 178.44,170.22 C 178.64,169.88 178.69,169.6 178.72,169.22 C 178.76,168.69 178.77,168.13 178.78,167.59 C 178.8,166.53 178.82,165.47 178.81,164.41 C 178.81,163.87 178.82,163.35 178.75,162.81 C 178.64,162.07 178.42,161.94 177.75,161.72 C 176.68,161.36 175.65,160.52 174.94,159.69 C 174.55,159.24 174.21,158.75 173.94,158.22 C 173.78,157.92 173.74,157.71 173.72,157.38 C 173.7,157.08 173.72,156.79 173.72,156.5 C 173.72,155.97 173.67,155.46 173.63,154.94 C 173.56,154.28 173.47,153.62 173.38,152.97 C 173.28,152.33 173.18,151.7 173.06,151.06 C 172.96,150.53 172.83,149.98 172.66,149.47 C 172.26,148.31 171.66,147.36 170.81,146.47 C 170.44,146.08 170.04,145.72 169.63,145.38 C 169.46,145.24 169.3,145.12 169.13,145.0 C 168.77,144.75 168.38,144.54 168.0,144.34 C 166.95,143.79 165.89,143.29 164.81,142.78 C 164.41,142.59 164.0,142.4 163.59,142.22 C 163.32,142.1 163.06,141.98 162.78,141.88 C 162.62,141.82 162.45,141.77 162.28,141.75 C 162.01,141.72 161.74,141.7 161.47,141.69 C 159.53,141.59 156.27,141.68 154.34,141.75 C 153.67,141.77 152.98,141.81 152.31,141.81 C 151.64,141.82 150.98,141.79 150.31,141.69 C 150.25,141.68 150.21,141.67 150.16,141.66 C 149.98,141.63 149.96,141.38 150.13,141.31 C 151.65,140.71 152.64,139.23 152.59,137.59 C 152.55,135.96 151.46,134.51 149.91,134.0 C 148.35,133.49 146.64,133.99 145.63,135.28 C 144.61,136.57 144.5,138.36 145.38,139.75 C 145.47,139.9 145.32,140.07 145.16,140.0 C 144.69,139.78 144.21,139.57 143.72,139.41 C 143.11,139.2 142.15,138.74 141.59,138.41 C 141.28,138.22 140.39,137.7 140.03,137.59 C 139.76,137.51 139.07,136.98 138.88,136.81 C 138.69,136.66 138.52,136.5 138.34,136.34 C 138.26,136.26 138.17,136.18 138.09,136.09 C 138.04,136.03 137.98,135.98 137.94,135.91 C 137.92,135.88 137.92,135.84 137.97,135.84 C 138.06,135.84 138.09,135.73 138.09,135.66 C 138.09,135.57 138.03,135.49 137.94,135.5 C 137.77,135.52 137.61,135.52 137.44,135.5 C 137.29,135.48 137.08,135.43 137.03,135.25 C 137.0,135.14 136.91,135.0 136.78,135.0 C 136.64,135.0 136.55,134.94 136.44,134.88 C 136.38,134.84 136.33,134.82 136.28,134.78 C 136.23,134.74 136.15,134.66 136.25,134.66 C 136.44,134.65 136.47,134.54 136.31,134.44 C 136.21,134.37 136.11,134.35 136.0,134.31 C 135.67,134.19 134.95,133.65 134.69,133.44 C 133.98,132.93 133.8,132.86 133.19,132.34 C 133.07,132.27 132.77,132.2 132.66,132.16 C 132.62,132.13 132.15,131.87 132.19,131.81 C 132.22,131.76 132.14,131.55 132.09,131.53 C 132.05,131.52 132.01,131.53 131.97,131.53 C 131.77,131.53 131.75,131.43 131.75,131.25 C 131.75,131.14 131.71,131.04 131.66,130.94 C 131.52,130.74 131.27,130.98 131.09,130.84 C 130.84,130.61 130.57,130.41 130.28,130.22 C 129.99,130.03 129.5,129.58 129.25,129.34 C 129.07,129.17 128.88,129.0 128.66,128.88 C 128.57,128.83 128.53,128.82 128.5,128.84 z M 148.56,135.75 C 149.64,135.64 150.66,136.61 150.63,137.69 C 150.67,138.68 149.79,139.57 148.81,139.63 C 147.8,139.73 146.84,138.91 146.75,137.91 C 146.61,136.86 147.51,135.8 148.56,135.75 z M 142.06,145.19 C 142.7,145.13 143.39,145.35 143.88,145.75 C 144.2,145.92 144.48,146.75 144.88,146.28 C 145.52,145.38 146.77,144.91 147.81,145.34 C 148.72,145.76 149.12,146.87 149.03,147.81 C 148.92,149.07 147.99,150.06 147.06,150.81 C 146.17,151.51 145.29,152.23 144.63,153.16 C 144.41,152.88 144.17,152.6 143.94,152.34 C 142.86,151.16 141.31,150.44 140.56,148.97 C 139.99,147.91 140.08,146.42 141.0,145.59 C 141.31,145.34 141.68,145.22 142.06,145.19 z" />

		<!-- Text -->
		<text id="txtTwo" dy="2.8" transform="matrix(1 0 0 1 150 150)" style="stroke:none;fill:#f00;font-family:'Eras Medium ITC';font-size:10px;text-anchor:middle" >

		</text>
		<!-- Prism Reference -->
		<cam mingh:cam="--verb EditSelectAll --verb ZoomSelection --verb FileSave"/> 
	 </g>

</svg>