<svg
   xmlns:xlink="http://www.w3.org/1999/xlink"
   xmlns:svg="http://www.w3.org/2000/svg"
   xmlns="http://www.w3.org/2000/svg"
   xmlns:mingh="http://www.minghworld.com"
   width="300px"
   height="300px" >
    
	 <g>
		<!-- Paths -->
		<path id="shape" transform="matrix(-1 0 0 1 300 0)" style="fill:#ff0;stroke:none;"
			d="M 148.44,123.09 C 148.04,123.11 147.63,123.2 147.25,123.34 C 145.72,123.92 144.73,125.4 144.75,127.03 C 144.75,127.17 144.59,127.28 144.47,127.22 C 143.57,126.74 142.67,126.52 141.66,126.47 C 140.75,126.42 139.63,126.49 138.75,126.69 C 137.84,126.89 136.82,127.28 136.28,128.16 C 136.02,128.57 135.89,129.07 135.94,129.56 C 135.99,130.08 136.22,130.49 136.5,130.91 C 135.74,130.83 135.04,131.35 134.66,131.94 C 134.28,132.51 134.08,133.38 134.34,134.06 C 133.61,134.18 132.91,134.3 132.16,134.19 C 131.79,134.13 131.42,133.99 131.06,133.91 C 130.67,133.82 130.36,133.87 130.06,134.16 C 129.51,134.69 129.66,135.63 130.06,136.19 C 130.53,136.84 131.25,137.02 132.0,137.0 C 131.63,137.18 131.18,137.51 131.03,137.94 C 130.88,138.38 131.08,138.89 131.47,139.13 C 131.85,139.36 132.41,139.35 132.81,139.34 C 133.27,139.34 133.7,139.31 134.16,139.25 C 133.94,140.11 133.59,140.63 132.94,141.22 C 132.35,141.74 131.72,142.2 131.19,142.78 C 130.75,143.26 130.11,144.15 130.34,144.91 C 130.55,145.58 131.41,146.24 132.0,146.5 C 130.06,146.72 128.93,148.82 129.81,150.56 C 128.15,151.25 128.09,153.58 129.72,154.34 C 129.15,154.79 128.92,155.54 129.16,156.22 C 129.39,156.9 130.06,157.35 130.78,157.34 C 130.43,157.8 130.42,158.43 130.78,158.88 C 131.14,159.32 131.76,159.47 132.28,159.22 C 132.02,159.96 132.66,160.69 133.44,160.56 C 133.42,161.65 133.4,162.73 133.38,163.81 C 131.89,163.67 130.85,165.27 131.59,166.56 C 130.97,166.48 130.35,166.87 130.16,167.47 C 129.96,168.07 130.25,168.7 130.81,169.0 C 130.45,169.45 130.24,170.14 130.44,170.72 C 130.62,171.26 131.27,171.69 131.75,171.88 C 131.37,171.96 131.0,172.02 130.63,172.13 C 130.42,172.18 130.29,172.27 130.19,172.47 C 130.1,172.65 130.07,172.84 130.16,173.03 C 130.33,173.43 130.78,173.53 131.16,173.5 C 131.47,173.47 131.97,173.24 132.25,173.13 C 131.74,173.87 132.44,174.86 133.31,174.63 C 132.99,174.9 132.93,174.92 132.53,175.06 C 132.22,175.17 131.96,175.31 131.81,175.63 C 131.69,175.89 131.72,176.27 132.0,176.44 C 132.3,176.61 132.61,176.4 132.75,176.13 C 132.77,176.3 132.74,176.48 132.84,176.66 C 132.94,176.82 133.14,176.9 133.31,176.91 C 133.49,176.91 133.68,176.84 133.81,176.72 C 133.96,176.59 133.99,176.41 134.06,176.25 C 134.17,176.57 134.42,176.85 134.78,176.88 C 135.13,176.9 135.45,176.68 135.59,176.38 C 135.76,176.02 135.54,175.71 135.56,175.38 C 135.59,175.01 135.88,174.8 136.19,174.69 C 136.84,175.48 138.12,174.92 138.0,173.91 C 138.4,174.31 139.05,174.32 139.47,173.94 C 139.89,173.55 139.93,172.91 139.56,172.47 C 139.88,172.47 140.09,172.38 140.31,172.16 C 140.5,171.97 140.68,171.69 140.75,171.44 C 140.92,170.83 140.45,170.33 139.88,170.22 C 141.05,169.53 140.83,167.78 139.53,167.38 C 139.9,166.94 139.94,166.3 139.59,165.84 C 139.25,165.39 138.64,165.26 138.13,165.5 L 138.56,162.16 C 139.12,162.72 140.05,162.69 140.53,162.06 C 141.03,163.22 142.68,163.22 143.19,162.06 C 144.08,163.2 145.88,162.88 146.31,161.5 C 147.53,162.22 149.08,161.48 149.31,160.09 C 151.34,160.12 152.84,158.25 152.38,156.28 C 153.02,156.45 153.54,156.37 154.13,156.06 C 154.7,155.76 155.15,155.54 155.81,155.44 C 156.47,155.34 156.97,155.42 157.5,155.84 C 157.99,156.22 158.27,156.77 158.38,157.38 C 158.48,158.0 158.38,158.56 158.25,159.16 C 158.12,159.76 158.03,160.29 158.28,160.91 C 158.52,161.51 158.93,161.89 159.41,162.28 C 159.72,162.54 160.54,163.15 160.88,163.38 C 159.46,163.94 159.03,165.73 160.03,166.88 C 159.74,167.16 159.54,167.47 159.47,167.88 C 159.4,168.27 159.44,168.62 159.53,169.0 C 159.73,169.81 160.25,170.34 161.03,170.63 C 160.6,170.52 159.75,170.5 159.34,170.78 C 159.14,170.92 158.88,171.25 158.97,171.53 C 159.01,171.67 159.12,171.76 159.25,171.81 C 159.4,171.87 159.54,171.87 159.69,171.81 C 159.56,171.93 159.35,172.14 159.34,172.34 C 159.34,172.58 159.67,172.7 159.84,172.72 C 160.27,172.77 160.73,172.47 160.97,172.16 C 161.03,172.39 161.09,172.59 161.31,172.75 C 161.5,172.88 161.74,172.94 161.97,172.88 C 162.42,172.74 162.69,172.21 162.72,171.78 C 162.73,172.36 162.91,172.83 163.28,173.28 C 163.61,173.68 164.07,174.05 164.53,174.28 C 163.96,174.18 163.29,174.3 162.88,174.75 C 162.72,174.92 162.47,175.28 162.66,175.53 C 162.87,175.81 163.19,175.72 163.44,175.56 C 163.22,175.72 163.03,175.98 163.13,176.28 C 163.22,176.59 163.46,176.68 163.75,176.69 C 164.0,176.69 164.34,176.64 164.56,176.53 C 164.83,176.4 165.0,176.21 165.13,175.94 C 164.95,176.38 165.17,176.66 165.63,176.72 C 165.94,176.76 166.42,176.8 166.72,176.59 C 167.08,176.35 167.14,175.98 167.16,175.59 C 167.18,175.11 167.21,174.94 167.41,174.5 C 167.93,174.92 168.69,174.94 169.25,174.56 C 169.81,174.19 170.04,173.49 169.84,172.84 C 170.59,172.63 171.21,172.09 171.41,171.31 C 171.6,170.53 171.16,169.79 170.56,169.34 C 171.03,168.87 171.17,168.12 171.03,167.5 C 170.73,166.89 170.08,166.57 169.41,166.66 C 169.56,166.23 169.44,165.58 168.97,165.41 C 168.74,165.32 168.47,165.38 168.25,165.44 C 168.01,165.5 167.78,165.55 167.56,165.66 C 167.85,165.35 167.85,164.87 167.56,164.56 C 167.5,164.38 167.33,164.31 167.16,164.31 C 166.96,164.31 166.8,164.38 166.66,164.5 C 166.95,163.92 166.82,163.22 166.31,162.81 C 166.12,162.58 165.81,162.49 165.53,162.5 C 165.22,162.51 164.99,162.62 164.75,162.81 C 164.43,161.93 164.05,160.45 163.97,159.38 C 163.89,158.33 164.1,157.67 164.38,157.0 C 164.66,156.33 164.99,155.65 165.34,154.91 C 165.69,154.18 166.08,153.41 166.28,152.59 C 166.44,151.94 166.49,151.27 166.34,150.56 C 166.18,149.74 165.74,148.88 165.16,148.28 C 165.02,148.14 164.9,148.02 164.75,147.91 C 164.65,147.83 164.65,147.66 164.75,147.59 C 165.43,147.14 165.86,146.26 165.75,145.44 C 165.74,145.33 165.83,145.22 165.94,145.22 C 166.66,145.24 167.25,144.69 167.25,143.97 C 168.89,143.45 169.33,141.33 168.03,140.19 C 168.51,139.72 168.66,139.22 168.59,138.56 C 168.54,137.99 168.33,137.35 168.0,136.88 C 167.69,136.42 167.17,135.96 166.59,135.84 C 165.98,135.72 165.38,135.99 165.03,136.5 C 164.84,135.82 164.21,135.41 163.53,135.72 C 162.92,136.0 162.53,136.61 162.44,137.25 C 160.95,137.16 160.06,138.88 161.0,140.03 C 159.9,141.2 160.45,143.14 162.0,143.56 C 161.71,144.22 162.15,144.96 162.88,145.0 C 162.99,145.01 163.09,145.11 163.06,145.22 C 162.95,145.64 162.5,145.95 162.09,146.0 C 162.05,146.01 162.04,145.99 162.0,145.97 C 161.31,145.52 160.4,145.53 159.72,146.0 C 159.8,145.33 159.47,144.68 158.88,144.38 C 158.28,144.07 157.56,144.14 157.06,144.59 C 156.7,144.03 156.01,143.8 155.38,144.0 C 154.74,144.2 154.29,144.77 154.31,145.44 C 154.04,145.25 153.61,145.27 153.41,145.56 C 153.22,145.84 153.25,146.29 153.38,146.56 C 152.99,146.33 152.61,146.32 152.22,146.56 C 152.79,146.04 152.96,145.2 152.63,144.5 C 152.28,143.8 151.52,143.4 150.75,143.53 C 152.1,142.58 151.76,140.5 150.19,140.0 C 151.03,138.82 150.69,137.15 149.44,136.41 C 150.35,135.22 149.56,133.49 148.06,133.44 C 148.21,132.63 148.07,131.82 147.81,131.06 C 147.77,130.94 147.87,130.82 148.0,130.84 C 149.62,131.11 151.23,130.33 152.03,128.91 C 152.83,127.48 152.66,125.68 151.59,124.44 C 150.79,123.51 149.62,123.03 148.44,123.09 z M 148.41,125.03 C 148.53,125.02 148.66,125.02 148.78,125.03 C 149.75,125.09 150.64,126.01 150.59,127.0 C 150.63,128.08 149.58,129.05 148.5,128.94 C 147.44,128.89 146.53,127.84 146.69,126.78 C 146.77,125.91 147.54,125.13 148.41,125.03 z M 136.88,148.28 C 137.51,148.23 138.2,148.47 138.69,148.88 C 139.01,149.04 139.29,149.85 139.69,149.38 C 140.33,148.48 141.58,148.0 142.63,148.44 C 143.53,148.86 143.93,149.96 143.84,150.91 C 143.73,152.16 142.81,153.15 141.88,153.91 C 140.98,154.6 140.11,155.32 139.44,156.25 C 139.23,155.97 138.99,155.72 138.75,155.47 C 137.68,154.28 136.13,153.53 135.38,152.06 C 134.8,151.01 134.89,149.55 135.81,148.72 C 136.12,148.47 136.49,148.31 136.88,148.28 z" />

		<!-- Text -->
		<text id="txtTwo" dy="2.8" transform="matrix(1 0 0 1 150 150)" style="stroke:none;fill:#f00;font-family:'Eras Medium ITC';font-size:10px;text-anchor:middle" >
		
		</text>
		<!-- Prism Reference -->
		<cam mingh:cam=" --verb EditSelectAll --verb ZoomSelection --verb FileSave"/> 
	 </g>

</svg>