<svg
   xmlns:xlink="http://www.w3.org/1999/xlink"
   xmlns:svg="http://www.w3.org/2000/svg"
   xmlns="http://www.w3.org/2000/svg"
   xmlns:mingh="http://www.minghworld.com"
   width="300px"
   height="300px" >
    
	 <g>
		<!-- Paths -->
		<path id="shape" transform="matrix(-1 0 0 1 300 0)" style="fill:#ff0;stroke:none;"
			d="M 150.16,121.38 C 149.93,121.37 149.7,121.38 149.47,121.41 C 147.62,121.65 146.19,123.12 145.97,124.97 C 145.86,125.89 146.07,126.81 146.56,127.59 C 146.81,127.98 147.08,128.3 147.44,128.59 C 147.52,128.66 147.6,128.72 147.69,128.78 C 147.78,128.84 147.89,128.89 147.94,129.0 C 148.04,129.22 147.9,129.48 147.66,129.5 C 140.37,130.2 133.78,134.1 129.66,140.16 C 125.53,146.21 124.33,153.74 126.34,160.78 C 128.35,167.82 133.37,173.58 140.06,176.53 C 146.75,179.48 154.39,179.31 160.94,176.06 C 167.49,172.81 172.28,166.81 173.97,159.69 C 175.65,152.57 174.07,145.1 169.69,139.25 C 167.44,136.26 164.55,133.83 161.22,132.13 C 159.63,131.31 158.01,130.67 156.28,130.22 C 155.46,130.0 154.62,129.82 153.78,129.69 C 153.37,129.62 152.97,129.57 152.56,129.53 C 152.46,129.52 152.35,129.55 152.25,129.5 C 152.15,129.45 152.05,129.33 152.03,129.22 C 152.01,129.11 152.05,128.99 152.13,128.91 C 152.2,128.83 152.32,128.78 152.41,128.72 C 153.91,127.62 154.47,125.67 153.78,123.94 C 153.18,122.42 151.74,121.43 150.16,121.38 z M 150.0,123.5 C 151.08,123.5 151.94,124.36 151.94,125.44 C 151.94,126.51 151.08,127.38 150.0,127.38 C 148.92,127.38 148.06,126.51 148.06,125.44 C 148.06,124.36 148.92,123.5 150.0,123.5 z M 149.88,132.06 C 150.34,132.06 150.78,132.07 151.25,132.09 C 151.49,132.11 151.73,132.13 151.97,132.16 C 152.09,132.17 152.22,132.17 152.34,132.19 C 152.4,132.19 152.44,132.18 152.5,132.19 C 152.51,132.19 152.55,132.22 152.56,132.22 C 152.56,132.25 152.56,132.29 152.56,132.31 C 152.57,132.55 152.82,132.68 153.0,132.75 C 153.28,132.86 153.59,132.89 153.88,132.97 C 154.31,133.09 154.83,133.24 155.16,133.63 C 155.19,133.66 155.22,133.71 155.25,133.75 C 155.26,133.77 155.27,133.79 155.28,133.81 C 155.25,133.79 155.19,133.77 155.16,133.75 C 154.87,133.6 154.59,133.48 154.28,133.38 C 154.13,133.32 153.22,132.99 153.06,133.22 C 153.0,133.31 153.06,133.48 153.09,133.56 C 153.14,133.7 153.21,133.83 153.25,133.97 C 153.31,134.16 153.32,134.38 153.44,134.56 C 153.66,134.9 154.23,135.18 154.53,135.38 C 154.9,135.61 155.37,135.91 155.66,136.25 C 155.92,136.55 156.01,136.91 156.09,137.28 C 156.18,137.68 156.24,138.05 156.25,138.47 C 156.25,138.52 156.25,138.6 156.25,138.66 C 156.25,138.68 156.25,138.69 156.25,138.72 C 156.22,138.62 156.16,138.5 156.13,138.41 C 156.05,138.21 155.96,138.03 155.88,137.84 C 155.7,137.47 155.52,137.12 155.28,136.78 C 154.74,136.0 154.07,135.49 153.25,135.06 C 152.53,134.69 151.49,134.2 150.69,134.0 C 149.68,133.75 148.6,133.8 147.59,133.91 C 147.04,133.97 146.49,134.05 145.94,134.13 C 145.72,134.16 144.77,134.22 144.72,134.59 C 144.7,134.72 144.75,134.78 144.81,134.88 C 144.92,135.04 145.05,135.21 145.19,135.34 C 145.34,135.5 145.5,135.63 145.66,135.78 C 145.77,135.89 145.86,135.99 145.97,136.09 C 146.29,136.4 146.69,136.44 147.09,136.41 C 147.31,136.39 147.53,136.35 147.75,136.31 C 147.97,136.28 148.22,136.24 148.44,136.22 C 148.55,136.21 148.64,136.2 148.75,136.19 C 148.8,136.18 148.85,136.19 148.91,136.19 C 148.74,136.26 148.58,136.36 148.41,136.44 C 148.29,136.49 147.77,136.71 147.66,136.78 C 147.39,136.95 147.54,137.12 147.69,137.31 C 147.9,137.57 148.25,138.0 148.63,138.09 C 148.86,138.15 149.04,138.11 149.25,138.03 C 149.5,137.94 149.73,137.8 149.97,137.69 C 150.47,137.46 150.96,137.33 151.5,137.25 C 150.96,137.42 150.62,137.67 150.22,138.06 C 150.11,138.17 150.01,138.27 149.94,138.41 C 149.88,138.51 149.86,138.58 149.97,138.66 C 150.08,138.74 150.22,138.77 150.34,138.81 C 150.48,138.86 150.58,138.91 150.69,139.0 C 150.86,139.15 151.0,139.35 151.28,139.31 C 151.51,139.28 151.81,139.11 152.0,139.0 C 152.51,138.71 152.75,138.57 153.34,138.47 C 153.41,138.46 153.47,138.45 153.53,138.44 C 153.53,138.44 153.53,138.47 153.53,138.47 C 153.5,138.5 153.5,138.51 153.47,138.53 C 153.35,138.64 153.22,138.75 153.09,138.84 C 152.87,139.01 152.62,139.13 152.41,139.31 C 152.28,139.42 152.04,139.7 152.13,139.91 C 152.21,140.1 152.54,140.17 152.69,140.22 C 153.15,140.36 153.59,140.51 154.03,140.72 C 154.34,140.86 154.71,141.08 154.94,141.34 C 154.96,141.37 154.98,141.38 155.0,141.41 C 155.01,141.42 155.02,141.45 155.03,141.47 C 155.04,141.48 155.0,141.5 155.0,141.5 C 154.99,141.51 154.98,141.52 154.97,141.53 C 154.89,141.62 154.83,141.72 154.75,141.81 C 154.59,141.99 154.41,142.16 154.25,142.34 C 153.93,142.71 153.62,143.09 153.31,143.47 C 153.16,143.66 153.03,143.84 152.88,144.03 C 152.8,144.13 152.7,144.22 152.63,144.31 C 152.6,144.35 152.56,144.37 152.53,144.41 C 152.53,144.38 152.53,144.34 152.53,144.31 C 152.53,143.82 151.94,143.33 151.66,143.06 C 150.94,142.4 150.24,141.81 149.31,141.44 C 148.41,141.07 147.38,140.92 146.41,140.97 C 145.51,141.01 144.74,141.22 143.94,141.63 C 143.75,141.72 143.56,141.83 143.38,141.94 C 143.28,141.99 143.19,142.04 143.09,142.09 C 143.05,142.12 142.98,142.16 142.94,142.19 C 142.91,142.2 142.9,142.21 142.88,142.22 C 143.13,141.88 143.17,141.36 142.78,141.09 C 142.59,140.96 142.38,140.92 142.16,140.88 C 142.12,140.87 142.17,140.85 142.19,140.84 C 142.21,140.83 142.26,140.82 142.28,140.81 C 142.33,140.79 142.39,140.74 142.44,140.72 C 142.55,140.67 142.64,140.65 142.75,140.59 C 143.26,140.35 143.73,140.04 143.91,139.44 C 143.99,139.17 144.04,138.68 143.91,138.41 C 143.77,138.11 143.44,138.29 143.25,138.41 C 142.98,138.58 142.74,138.79 142.47,138.97 C 142.36,139.04 142.27,139.12 142.16,139.19 C 142.14,139.2 142.11,139.18 142.09,139.19 C 142.25,139.03 142.38,138.87 142.53,138.72 C 142.7,138.55 142.91,138.38 143.06,138.19 C 143.27,137.93 143.36,137.67 143.41,137.34 C 143.44,137.07 143.46,136.57 143.25,136.31 C 143.05,136.07 142.65,136.22 142.44,136.31 C 142.13,136.45 141.86,136.62 141.59,136.81 C 141.54,136.85 141.49,136.9 141.44,136.94 C 141.43,136.94 141.41,136.93 141.41,136.94 C 141.42,136.91 141.43,136.9 141.44,136.88 C 141.48,136.78 141.54,136.68 141.59,136.59 C 141.7,136.42 141.81,136.29 141.97,136.16 C 142.26,135.91 142.58,135.72 142.72,135.31 C 142.85,134.93 142.82,134.12 142.66,133.75 C 142.61,133.65 142.54,133.56 142.44,133.5 C 142.39,133.47 142.36,133.48 142.31,133.47 C 142.31,133.47 142.3,133.44 142.31,133.44 L 142.34,133.44 C 142.37,133.43 142.41,133.41 142.44,133.41 C 142.63,133.34 142.81,133.28 143.0,133.22 C 143.38,133.09 143.74,132.95 144.13,132.84 C 146.02,132.32 147.91,132.07 149.88,132.06 z M 157.59,133.41 C 160.48,134.46 163.11,136.14 165.31,138.28 C 164.0,137.86 162.53,137.72 161.22,138.22 C 160.24,138.58 159.34,139.18 158.53,139.84 C 158.9,138.34 159.06,136.7 158.53,135.22 C 158.31,134.57 157.99,133.96 157.59,133.41 z M 140.38,134.28 C 139.03,135.47 138.31,137.21 137.97,138.94 C 137.74,140.06 137.66,141.21 137.66,142.34 C 136.56,141.43 135.1,141.21 133.72,141.13 C 133.21,141.1 132.69,141.1 132.19,141.19 C 134.29,138.26 137.13,135.86 140.38,134.28 z M 161.0,140.97 C 161.19,141.04 161.19,141.29 161.19,141.44 C 161.18,141.88 161.09,141.97 161.53,142.22 C 161.75,142.35 161.97,142.46 162.22,142.53 C 162.39,142.58 162.68,142.62 162.78,142.41 C 162.9,142.02 162.71,141.62 162.63,141.28 C 162.86,141.77 163.18,142.31 163.44,142.75 C 163.68,143.1 164.05,143.27 164.38,143.5 C 164.63,143.68 164.86,143.89 165.13,144.06 C 165.27,144.16 165.51,144.34 165.72,144.28 C 165.93,144.22 165.94,143.93 165.94,143.78 C 165.88,143.12 165.69,142.5 165.53,141.91 C 165.58,141.48 166.35,143.33 166.53,143.72 C 166.63,143.96 166.74,144.19 166.84,144.44 C 166.94,144.67 167.03,144.87 167.28,145.0 C 167.46,145.09 167.8,145.18 168.0,145.22 C 168.58,145.33 168.81,145.23 168.88,144.63 C 168.9,143.95 168.68,143.07 168.59,142.59 C 168.64,142.15 169.54,144.0 169.88,144.69 C 170.27,145.52 170.59,146.38 170.88,147.25 C 173.3,154.74 171.56,162.91 166.28,168.75 C 163.27,171.61 159.81,173.89 156.5,174.97 C 155.48,173.39 154.94,171.54 154.41,169.91 C 153.82,168.08 153.24,166.25 152.63,164.44 C 151.66,161.52 150.59,159.08 149.25,156.53 C 149.51,155.73 149.84,154.89 150.13,154.16 C 150.5,153.24 150.91,152.3 151.28,151.56 C 151.36,151.61 151.4,151.69 151.44,151.75 C 151.47,151.88 151.44,152.0 151.47,152.13 C 151.52,152.39 151.73,152.52 151.94,152.63 C 152.05,152.68 152.79,153.05 152.91,153.09 C 153.17,153.2 153.32,153.18 153.34,152.88 C 153.37,152.55 153.25,152.11 153.16,151.81 C 152.94,151.06 152.53,150.39 152.22,149.84 C 152.68,149.04 153.23,148.26 153.72,147.56 C 154.29,146.76 154.87,145.98 155.5,145.22 C 155.68,145.0 155.92,144.73 156.06,144.56 C 156.08,144.65 156.06,144.76 156.06,144.84 C 156.03,145.22 155.86,145.5 155.69,145.81 C 155.57,146.03 155.44,146.23 155.38,146.47 C 155.31,146.71 155.32,146.92 155.38,147.16 C 155.51,147.66 155.64,148.12 155.78,148.63 C 155.89,148.86 156.1,148.93 156.34,148.94 C 157.03,148.94 157.71,148.67 158.22,148.47 C 158.46,148.5 157.41,149.02 157.13,149.19 C 156.95,149.28 156.75,149.37 156.59,149.5 C 156.48,149.59 156.46,149.7 156.44,149.84 C 156.44,150.31 156.39,150.75 156.38,151.19 C 156.41,151.43 156.79,151.32 156.94,151.28 C 157.29,151.19 157.65,151.07 158.0,150.97 C 158.27,150.89 158.54,150.84 158.81,150.78 C 158.93,150.76 159.18,150.67 159.25,150.66 C 159.04,150.87 158.7,151.09 158.47,151.25 C 158.23,151.38 157.98,151.47 157.72,151.53 C 157.53,151.57 157.2,151.62 157.06,151.81 C 156.94,151.99 156.96,152.36 156.97,152.53 C 156.98,152.78 156.99,153.03 157.03,153.28 C 157.05,153.42 157.07,153.78 157.28,153.81 C 157.42,153.83 157.54,153.77 157.66,153.72 C 157.81,153.64 157.95,153.57 158.09,153.47 C 158.38,153.27 158.63,153.03 158.91,152.81 C 159.01,152.73 159.12,152.65 159.22,152.56 C 159.26,152.52 159.33,152.51 159.38,152.47 C 159.37,152.48 159.35,152.52 159.34,152.53 C 159.34,152.56 159.32,152.6 159.31,152.63 C 159.17,153.09 158.99,153.48 158.66,153.84 C 158.31,154.23 157.98,154.43 157.75,154.94 C 157.52,155.45 157.7,155.79 157.94,156.22 C 158.07,156.45 158.17,156.69 158.28,156.94 C 158.36,157.1 158.51,157.37 158.72,157.44 C 159.06,157.54 159.78,156.95 159.97,156.78 C 160.66,156.17 161.15,155.31 161.47,154.47 C 162.19,152.56 161.99,150.77 161.28,148.94 C 160.6,147.18 159.51,145.61 158.19,144.28 C 158.95,144.35 159.55,144.2 160.22,144.13 C 160.09,144.19 159.76,144.39 159.66,144.47 C 159.48,144.6 159.4,144.71 159.41,144.94 C 159.41,145.43 160.0,146.02 160.41,146.19 C 160.83,146.36 161.19,146.11 161.53,145.97 C 161.87,145.82 162.16,145.72 162.5,145.59 C 162.26,145.93 161.92,146.22 161.66,146.47 C 161.48,146.62 161.29,146.76 161.13,146.94 C 161.01,147.06 160.92,147.19 160.97,147.38 C 161.16,148.0 161.44,148.45 161.97,148.91 C 162.35,149.14 162.78,148.42 163.16,148.03 C 163.12,148.39 163.07,148.77 163.03,149.09 C 162.97,149.72 163.05,150.0 163.38,150.53 C 163.52,150.77 163.66,150.99 163.81,151.22 C 163.93,151.39 164.07,151.61 164.31,151.63 C 164.83,151.65 165.0,150.73 165.06,150.41 C 165.16,149.87 165.27,149.14 165.28,148.59 C 165.29,148.49 165.28,148.41 165.28,148.31 C 165.36,148.42 165.41,148.63 165.47,148.75 C 165.56,148.99 165.65,149.24 165.69,149.5 C 165.72,149.75 165.69,150.0 165.66,150.25 C 165.62,150.5 165.57,150.72 165.53,150.97 C 165.47,151.39 165.44,151.98 165.78,152.34 C 166.11,152.7 166.74,152.85 167.19,152.84 C 167.68,152.83 168.09,152.66 168.28,152.16 C 168.45,151.7 168.4,151.08 168.34,150.63 C 168.22,149.65 167.87,148.78 167.47,147.91 C 167.06,147.02 166.6,146.21 166.0,145.44 C 164.73,143.82 163.15,142.98 161.25,142.38 C 160.54,142.14 159.89,141.99 159.22,141.84 C 159.76,141.34 160.28,140.89 161.0,140.97 z M 146.13,143.59 C 146.22,144.18 146.76,144.81 147.41,144.72 C 147.95,144.6 148.47,144.46 149.03,144.47 C 149.83,144.45 150.66,144.5 151.41,144.81 C 151.6,144.95 152.12,144.93 152.16,144.97 C 151.45,145.93 150.81,146.94 150.22,147.97 C 149.15,147.11 147.93,146.43 146.63,146.0 C 145.39,145.6 144.09,145.22 142.78,145.25 C 143.33,144.76 143.85,144.25 144.31,143.69 C 144.19,143.98 144.14,144.49 144.56,144.56 C 144.98,144.65 145.51,144.61 145.75,144.19 C 145.89,144.04 146.04,143.51 146.13,143.59 z M 131.66,144.16 C 131.43,144.37 131.36,144.87 131.69,145.03 C 132.18,145.2 132.68,144.9 133.13,144.72 C 134.0,144.35 134.96,144.19 135.91,144.31 C 136.28,144.37 136.67,144.47 137.0,144.66 C 135.58,144.73 134.21,145.18 132.88,145.63 C 132.28,145.82 131.61,145.94 131.16,146.41 C 130.96,146.7 131.3,146.98 131.44,147.22 C 131.59,147.44 131.76,147.64 131.97,147.81 C 131.39,147.57 130.79,147.37 130.22,147.13 C 129.86,147.04 129.5,147.24 129.16,147.34 C 128.94,147.41 129.26,146.94 129.25,146.81 C 129.51,146.05 129.81,145.32 130.16,144.59 C 130.68,144.58 131.19,144.37 131.66,144.16 z M 142.38,147.53 C 142.78,147.89 143.26,148.16 143.81,148.22 C 144.24,148.29 144.67,148.25 145.09,148.28 C 145.34,148.49 145.02,148.86 145.0,149.13 C 144.89,149.56 145.24,150.01 145.63,150.16 C 145.99,150.23 146.09,149.77 146.25,149.53 C 146.4,149.25 146.58,148.96 146.78,148.72 C 146.65,149.32 146.46,149.92 146.47,150.53 C 146.51,151.02 147.02,151.28 147.41,151.47 C 147.73,151.72 148.09,151.51 148.25,151.19 C 148.47,150.87 148.71,150.57 148.97,150.28 C 148.42,151.38 147.91,152.49 147.44,153.63 C 145.96,151.42 144.25,149.4 142.38,147.53 z M 137.13,147.72 C 136.05,149.24 135.65,151.0 135.38,152.75 C 135.25,153.74 135.26,154.8 135.56,155.78 C 135.71,156.27 135.93,156.74 136.09,157.22 C 136.3,157.83 136.36,158.26 136.38,158.91 C 136.38,159.17 136.39,159.51 136.56,159.75 C 136.72,159.98 137.01,160.1 137.28,160.09 C 137.61,160.09 137.87,159.93 138.09,159.72 C 138.33,159.49 138.52,159.25 138.69,158.97 C 138.97,158.48 139.05,158.02 138.97,157.47 C 138.9,156.95 138.76,156.45 138.56,155.97 C 138.76,156.13 138.93,156.34 139.09,156.53 C 139.18,156.64 139.45,156.99 139.66,156.97 C 139.89,156.95 140.05,156.36 140.09,156.22 C 140.17,155.98 140.3,155.68 140.28,155.41 C 140.27,155.15 140.14,154.98 139.97,154.81 C 139.84,154.69 139.7,154.58 139.56,154.47 C 139.45,154.39 139.37,154.29 139.28,154.19 C 139.15,154.05 139.05,153.8 138.97,153.69 C 139.2,153.86 139.47,153.93 139.72,154.03 C 139.94,154.12 140.1,154.3 140.28,154.44 C 140.49,154.59 140.6,154.51 140.72,154.31 C 140.83,154.13 140.96,153.8 140.94,153.56 C 140.92,153.37 140.84,153.21 140.72,153.06 C 140.34,152.62 139.88,152.25 139.47,151.91 C 139.29,151.76 139.08,151.61 138.94,151.5 C 139.04,151.49 139.15,151.5 139.25,151.5 C 139.75,151.53 140.1,151.78 140.5,152.03 C 140.71,152.17 141.1,152.43 141.28,152.09 C 141.4,151.88 141.41,151.48 141.44,151.25 C 141.45,150.76 141.03,150.22 140.78,149.84 C 142.9,151.81 144.74,154.54 146.19,156.91 C 144.62,161.33 143.41,166.14 142.16,170.0 C 141.67,171.46 141.23,172.58 140.56,173.84 C 140.37,173.76 140.17,173.65 140.0,173.56 C 139.52,173.32 139.05,173.06 138.59,172.78 C 136.69,171.62 135.04,170.26 133.56,168.59 C 130.67,165.33 128.83,161.29 128.25,156.97 C 127.97,154.92 127.98,152.92 128.28,150.88 C 128.32,150.61 128.37,150.27 128.41,150.09 C 128.64,150.01 129.11,149.95 129.34,150.13 C 129.58,150.3 129.31,150.71 129.22,150.88 C 129.16,150.98 129.04,151.1 129.13,151.25 C 129.22,151.42 129.47,151.55 129.63,151.63 C 129.83,151.72 130.05,151.8 130.28,151.81 C 130.41,151.82 130.51,151.79 130.59,151.69 C 130.97,151.23 131.33,150.73 131.66,150.28 C 131.78,150.11 131.79,149.98 131.97,150.19 C 132.32,150.7 132.71,151.12 133.09,151.53 C 133.19,151.61 133.33,151.68 133.47,151.66 C 133.66,151.62 133.97,151.36 134.09,151.25 C 134.34,151.03 134.59,150.8 134.81,150.56 C 135.67,149.61 136.32,148.71 137.13,147.72 z M 148.09,160.59 C 149.1,163.06 149.82,165.65 150.22,168.28 C 150.5,170.32 150.57,172.44 150.03,174.44 C 149.87,174.98 149.64,175.52 149.28,175.97 C 148.57,175.93 147.83,175.93 147.16,175.78 C 146.75,174.81 146.63,173.75 146.53,172.72 C 146.37,170.3 146.77,167.88 147.13,165.5 C 147.39,163.86 147.7,162.21 148.09,160.59 z" />

		<!-- Text -->
		<text id="txtTwo" dy="2.8" transform="matrix(1 0 0 1 150 150)" style="stroke:none;fill:#f00;font-family:'Eras Medium ITC';font-size:10px;text-anchor:middle" >

		</text>
		<!-- Prism Reference -->
		<cam mingh:cam="--verb EditSelectAll --verb ZoomSelection --verb FileSave"/> 
	 </g>

</svg>