<svg
   xmlns:xlink="http://www.w3.org/1999/xlink"
   xmlns:svg="http://www.w3.org/2000/svg"
   xmlns="http://www.w3.org/2000/svg"
   xmlns:mingh="http://www.minghworld.com"
   width="300px"
   height="300px" >
    
	 <g>
		<!-- Paths -->
		<path id="shape" transform="matrix(-1 0 0 1 300 0)" style="fill:#ff0;stroke:none;"
			d="M 150.13,126.09 C 148.16,126.19 146.52,127.63 146.19,129.56 C 145.85,131.5 146.9,133.41 148.72,134.16 C 148.83,134.2 148.86,134.35 148.78,134.44 C 148.63,134.6 148.51,134.76 148.38,134.94 C 147.96,135.49 147.59,136.09 147.31,136.72 C 146.95,137.54 146.73,138.4 146.53,139.25 C 146.39,139.84 146.26,140.44 146.16,141.03 C 146.14,141.12 146.06,141.17 145.97,141.16 C 145.92,141.15 145.86,141.16 145.81,141.16 C 145.62,141.15 145.44,141.15 145.25,141.19 C 145.08,141.22 144.91,141.28 144.75,141.34 C 144.6,141.41 144.47,141.47 144.34,141.56 C 144.22,141.66 144.1,141.79 144.0,141.91 C 143.89,142.04 143.8,142.16 143.72,142.31 C 143.63,142.48 143.55,142.66 143.5,142.84 C 143.45,143.04 143.42,143.23 143.41,143.44 C 143.4,143.48 143.41,143.52 143.41,143.56 C 143.4,143.67 143.29,143.76 143.19,143.75 C 142.4,143.65 141.62,143.6 140.81,143.56 C 139.91,143.52 138.97,143.49 138.09,143.69 C 137.42,143.84 136.79,144.13 136.19,144.47 C 135.71,144.74 135.29,145.05 134.94,145.5 C 134.51,146.05 134.22,146.81 134.41,147.41 C 134.58,147.98 135.17,148.4 135.75,148.75 C 136.36,149.12 136.95,149.41 137.56,149.66 C 137.65,149.69 137.71,149.76 137.69,149.84 C 137.58,150.22 137.45,150.62 137.38,151.0 C 137.3,151.35 137.26,151.68 137.22,152.03 C 137.21,152.12 137.15,152.18 137.06,152.19 C 136.54,152.22 136.0,152.25 135.47,152.25 C 134.93,152.25 134.38,152.24 133.88,152.09 C 133.51,151.99 133.17,151.79 132.84,151.59 C 132.35,151.3 131.9,150.97 131.38,150.75 C 130.93,150.57 130.42,150.47 129.94,150.5 C 129.41,150.54 128.91,150.73 128.44,151.03 C 128.01,151.3 127.62,151.67 127.5,152.13 C 127.41,152.46 127.48,152.86 127.63,153.19 C 127.78,153.53 127.99,153.8 128.25,154.06 C 128.58,154.4 128.93,154.71 129.16,155.13 C 129.25,155.29 129.33,155.47 129.34,155.66 C 129.37,155.95 129.27,156.28 129.16,156.56 C 129.04,156.85 128.89,157.12 128.75,157.41 C 128.58,157.76 128.38,158.15 128.41,158.53 C 128.43,158.81 128.56,159.07 128.75,159.28 C 129.04,159.6 129.47,159.76 129.91,159.84 C 130.38,159.93 130.86,159.94 131.31,159.81 C 131.69,159.7 132.05,159.5 132.34,159.25 C 132.63,159.01 132.89,158.69 133.09,158.38 C 133.32,158.03 133.5,157.67 133.75,157.34 C 133.88,157.18 134.02,157.04 134.19,156.91 C 134.29,156.83 134.39,156.76 134.47,156.72 C 134.61,156.64 134.64,156.6 134.69,156.59 C 135.17,156.49 135.74,156.35 137.41,156.22 C 137.49,156.21 137.57,156.27 137.59,156.34 C 137.72,156.73 137.88,157.1 138.06,157.47 C 138.35,158.06 138.69,158.63 139.09,159.16 C 139.42,159.58 139.77,159.98 140.16,160.34 C 140.52,160.69 140.88,160.98 141.28,161.28 C 141.48,161.43 141.7,161.58 141.91,161.72 C 142.05,161.81 142.2,161.91 142.34,162.0 C 142.47,162.08 142.59,162.17 142.72,162.25 C 142.8,162.3 142.82,162.39 142.78,162.47 C 142.75,162.52 142.75,162.57 142.72,162.63 C 142.3,163.46 141.91,164.28 141.34,165.19 C 141.19,165.43 141.01,165.69 140.78,165.88 C 140.63,166.0 140.46,166.11 140.28,166.19 C 139.94,166.35 139.6,166.43 139.25,166.56 C 138.75,166.74 138.25,166.98 137.84,167.31 C 137.3,167.75 136.9,168.38 136.72,169.06 C 136.58,169.59 136.57,170.15 136.78,170.66 C 136.92,170.97 137.15,171.25 137.44,171.41 C 137.77,171.59 138.19,171.62 138.59,171.59 C 138.96,171.57 139.32,171.52 139.66,171.44 C 139.91,171.38 140.14,171.29 140.41,171.28 C 140.56,171.28 140.73,171.3 140.84,171.38 C 141.0,171.47 141.09,171.64 141.19,171.81 C 141.39,172.17 141.63,172.48 141.88,172.78 C 142.14,173.1 142.39,173.41 142.75,173.63 C 143.12,173.85 143.58,173.95 144.0,173.88 C 144.44,173.79 144.85,173.52 145.13,173.16 C 145.44,172.75 145.6,172.24 145.66,171.75 C 145.72,171.22 145.65,170.71 145.53,170.19 C 145.43,169.76 145.28,169.34 145.25,168.91 C 145.23,168.62 145.28,168.31 145.31,168.06 C 145.36,167.71 145.43,167.47 145.59,167.09 C 145.7,166.84 145.85,166.55 146.03,166.19 C 146.07,166.11 146.17,166.06 146.25,166.09 C 146.27,166.1 146.29,166.12 146.31,166.13 C 146.41,166.16 146.52,166.17 146.63,166.19 C 146.73,166.21 146.83,166.24 146.94,166.25 C 147.14,166.26 147.33,166.26 147.53,166.25 C 147.72,166.24 147.91,166.23 148.09,166.22 C 148.24,166.21 148.39,166.2 148.53,166.22 C 148.63,166.23 148.72,166.25 148.81,166.28 C 148.92,166.32 149.0,166.38 149.09,166.44 C 149.19,166.49 149.29,166.55 149.38,166.63 C 149.46,166.7 149.55,166.78 149.63,166.88 C 149.66,166.92 149.69,166.96 149.75,167.06 C 149.81,167.16 149.91,167.31 150.0,167.47 C 150.11,167.67 150.23,167.9 150.34,168.09 C 150.46,168.31 150.56,168.51 150.63,168.63 C 150.67,168.7 150.72,168.74 150.75,168.78 C 150.8,168.86 150.84,168.94 150.91,169.0 C 150.99,169.07 151.09,169.11 151.19,169.16 C 151.25,169.18 151.34,169.2 151.41,169.22 C 151.47,169.23 151.53,169.25 151.59,169.25 C 151.71,169.26 151.82,169.26 151.94,169.25 C 152.01,169.24 152.11,169.23 152.19,169.22 C 152.38,169.2 152.56,169.16 152.75,169.13 C 152.93,169.09 153.11,169.07 153.28,169.03 C 153.45,168.99 153.62,168.93 153.78,168.88 C 153.94,168.83 154.12,168.78 154.28,168.72 C 154.36,168.69 154.42,168.65 154.5,168.63 C 154.73,168.54 154.98,168.46 155.19,168.38 C 155.77,168.14 156.18,167.95 156.59,167.75 C 157.62,167.25 158.6,166.69 159.56,166.06 C 159.95,165.81 160.34,165.54 160.84,165.16 C 161.03,165.01 161.24,164.85 161.44,164.69 C 161.5,164.63 161.59,164.59 161.66,164.53 C 161.79,164.42 161.91,164.3 162.03,164.19 C 162.16,164.07 162.29,163.97 162.41,163.84 C 162.53,163.72 162.66,163.57 162.78,163.44 C 162.91,163.29 163.01,163.12 163.13,162.97 C 163.17,162.9 163.23,162.85 163.28,162.78 C 163.35,162.68 163.42,162.6 163.47,162.5 C 163.5,162.44 163.51,162.37 163.53,162.31 C 163.56,162.24 163.58,162.16 163.59,162.09 C 163.61,161.98 163.61,161.89 163.59,161.78 C 163.58,161.69 163.54,161.59 163.5,161.5 C 163.48,161.45 163.45,161.42 163.41,161.34 C 163.34,161.23 163.24,161.04 163.13,160.84 C 163.02,160.67 162.91,160.48 162.81,160.31 C 162.65,160.04 162.55,159.79 162.47,159.63 C 162.39,159.46 162.36,159.37 162.34,159.25 C 162.32,159.14 162.31,159.02 162.31,158.91 C 162.31,158.8 162.32,158.7 162.34,158.59 C 162.35,158.54 162.36,158.49 162.38,158.44 C 162.39,158.39 162.42,158.33 162.44,158.28 C 162.46,158.22 162.47,158.18 162.5,158.13 C 162.54,158.06 162.58,157.97 162.63,157.91 C 162.72,157.75 162.84,157.62 162.94,157.47 C 163.05,157.3 163.16,157.11 163.25,156.94 C 163.3,156.84 163.34,156.75 163.38,156.66 C 163.41,156.56 163.45,156.45 163.47,156.34 C 163.47,156.32 163.46,156.3 163.47,156.28 C 163.48,156.19 163.57,156.15 163.66,156.16 C 164.06,156.18 164.42,156.19 164.69,156.22 C 165.1,156.27 165.33,156.34 165.66,156.47 C 165.89,156.56 166.17,156.68 166.41,156.84 C 166.76,157.09 167.03,157.45 167.34,157.75 C 167.73,158.12 168.17,158.44 168.66,158.66 C 169.11,158.86 169.62,158.97 170.13,158.91 C 170.58,158.85 171.02,158.65 171.31,158.31 C 171.59,157.99 171.75,157.55 171.75,157.13 C 171.75,156.7 171.58,156.29 171.44,155.91 C 171.31,155.54 171.2,155.17 171.0,154.81 C 170.9,154.64 170.78,154.47 170.78,154.28 C 170.78,154.14 170.83,154.0 170.91,153.88 C 171.05,153.65 171.26,153.5 171.44,153.31 C 171.68,153.06 171.89,152.8 172.09,152.5 C 172.32,152.16 172.55,151.79 172.56,151.41 C 172.57,151.08 172.42,150.74 172.22,150.47 C 171.89,150.03 171.4,149.74 170.88,149.59 C 170.19,149.41 169.44,149.45 168.78,149.69 C 168.29,149.87 167.85,150.17 167.44,150.5 C 167.15,150.74 166.87,150.98 166.56,151.19 C 166.4,151.3 166.24,151.4 166.06,151.47 C 165.79,151.57 165.48,151.59 165.19,151.59 C 164.12,151.62 163.21,151.54 162.28,151.47 C 162.22,151.46 162.18,151.47 162.13,151.47 C 162.03,151.46 161.94,151.37 161.94,151.28 C 161.94,151.13 161.94,150.96 161.94,150.81 C 161.93,150.64 161.92,150.48 161.91,150.31 C 161.89,150.06 161.87,149.81 161.84,149.56 C 161.79,149.07 161.71,148.58 161.59,148.09 C 161.54,147.85 161.48,147.61 161.41,147.38 C 161.32,147.11 161.23,146.85 161.13,146.59 C 160.88,145.98 160.58,145.39 160.22,144.84 C 159.99,144.5 159.74,144.15 159.47,143.84 C 159.42,143.78 159.42,143.69 159.47,143.63 C 160.43,142.26 160.82,141.86 161.16,141.5 C 161.19,141.47 161.23,141.46 161.38,141.38 C 161.45,141.33 161.57,141.27 161.69,141.22 C 161.88,141.14 162.1,141.09 162.31,141.06 C 162.72,141.02 163.12,141.05 163.53,141.03 C 163.91,141.02 164.27,140.97 164.63,140.84 C 165.0,140.72 165.37,140.52 165.66,140.25 C 166.0,139.93 166.24,139.52 166.41,139.06 C 166.56,138.65 166.63,138.19 166.5,137.78 C 166.41,137.51 166.23,137.25 166.0,137.09 C 165.68,136.88 165.27,136.84 164.88,136.81 C 164.56,136.79 164.25,136.76 163.94,136.72 C 163.63,136.68 163.33,136.61 163.09,136.44 C 162.94,136.33 162.82,136.16 162.72,136.0 C 162.48,135.6 162.37,135.14 162.25,134.69 C 162.15,134.33 162.03,133.99 161.81,133.69 C 161.6,133.39 161.31,133.13 160.97,133.03 C 160.52,132.9 160.01,133.06 159.56,133.28 C 159.07,133.53 158.64,133.88 158.34,134.31 C 158.07,134.71 157.88,135.18 157.81,135.66 C 157.73,136.22 157.81,136.8 157.81,137.38 C 157.82,137.76 157.78,138.13 157.69,138.5 C 157.56,139.01 157.31,139.51 157.03,139.97 C 156.89,140.21 156.75,140.45 156.59,140.69 C 156.54,140.77 156.43,140.81 156.34,140.75 C 156.13,140.6 155.89,140.5 155.66,140.41 C 155.27,140.26 154.85,140.14 154.47,139.97 C 154.14,139.82 153.81,139.61 153.63,139.31 C 153.43,139.0 153.4,138.59 153.34,138.19 C 153.27,137.64 153.18,137.13 153.06,136.63 C 152.92,136.02 152.76,135.42 152.5,134.81 C 152.42,134.61 152.32,134.41 152.22,134.22 C 152.17,134.13 152.19,134.05 152.28,134.0 C 154.02,133.08 154.86,131.08 154.34,129.19 C 153.82,127.3 152.09,126.0 150.13,126.09 z M 150.31,128.28 C 151.42,128.28 152.31,129.17 152.31,130.28 C 152.31,131.39 151.42,132.28 150.31,132.28 C 149.21,132.28 148.31,131.39 148.31,130.28 C 148.31,129.17 149.21,128.28 150.31,128.28 z M 158.66,151.5 C 158.83,151.5 158.99,151.53 159.16,151.59 C 159.56,151.76 159.91,152.13 160.09,152.56 C 160.37,153.2 160.3,153.94 160.09,154.59 C 159.88,155.28 159.51,155.89 159.09,156.47 C 158.53,157.26 157.87,158.02 157.13,158.66 C 157.06,158.71 157.01,158.72 156.94,158.69 C 156.05,158.28 155.23,157.74 154.47,157.13 C 153.91,156.68 153.4,156.17 153.0,155.56 C 152.63,154.99 152.35,154.32 152.44,153.63 C 152.5,153.16 152.72,152.7 153.06,152.44 C 153.61,152.01 154.5,152.1 155.22,152.34 C 155.54,152.45 155.83,152.6 156.09,152.78 C 156.17,152.83 156.29,152.82 156.34,152.75 C 156.55,152.5 156.78,152.29 157.06,152.09 C 157.53,151.77 158.12,151.5 158.66,151.5 z M 148.56,155.09 C 148.9,155.05 149.27,155.11 149.59,155.25 C 150.24,155.53 150.67,156.11 150.97,156.72 C 151.29,157.37 151.46,158.07 151.56,158.78 C 151.7,159.75 151.72,160.72 151.63,161.69 C 151.62,161.77 151.61,161.82 151.53,161.84 C 150.61,162.16 149.63,162.35 148.66,162.44 C 147.94,162.5 147.24,162.51 146.53,162.34 C 145.87,162.19 145.2,161.87 144.78,161.31 C 144.5,160.94 144.34,160.43 144.41,160.0 C 144.51,159.31 145.22,158.79 145.91,158.47 C 146.22,158.32 146.53,158.21 146.84,158.16 C 146.93,158.14 146.97,158.06 146.97,157.97 C 146.95,157.65 146.99,157.34 147.06,157.0 C 147.22,156.26 147.57,155.45 148.22,155.19 C 148.32,155.15 148.45,155.11 148.56,155.09 z M 154.13,159.88 C 154.17,159.85 154.2,159.86 154.25,159.88 C 155.11,160.16 156.19,160.77 156.81,161.44 C 157.1,161.74 157.52,162.29 157.31,162.78 C 157.21,163.02 156.97,163.2 156.72,163.22 C 156.43,163.24 156.25,163.13 156.03,162.97 C 155.93,162.89 155.8,162.96 155.81,163.09 C 155.84,163.36 155.82,163.58 155.66,163.81 C 155.51,164.02 155.25,164.16 155.0,164.13 C 154.47,164.05 154.21,163.4 154.09,163.0 C 153.83,162.12 153.84,160.88 154.03,160.0 C 154.04,159.95 154.08,159.9 154.13,159.88 z" />

		<!-- Text -->
		<text id="txtTwo" dy="2.8" transform="matrix(1 0 0 1 150 150)" style="stroke:none;fill:#f00;font-family:'Eras Medium ITC';font-size:10px;text-anchor:middle" >

		</text>
		<!-- Prism Reference -->
		<cam mingh:cam=" --verb EditSelectAll --verb ZoomSelection --verb FileSave "/> 
	 </g>

</svg>