<svg
   xmlns:xlink="http://www.w3.org/1999/xlink"
   xmlns:svg="http://www.w3.org/2000/svg"
   xmlns="http://www.w3.org/2000/svg"
   xmlns:mingh="http://www.minghworld.com"
   width="300px"
   height="300px" >
	
	 <g>	
		<!-- Shape -->
		<path id="shape" style="fill:none;stroke:#000;stroke-width:0.25px;"
			d="M 147.91,126.5 C 146.87,126.51 145.84,126.93 145.09,127.72 C 143.9,128.98 143.7,130.91 144.59,132.41 C 143.97,132.24 143.74,132.25 143.16,132.47 C 142.48,132.72 142.4,132.68 140.41,132.19 C 138.6,131.74 138.21,131.6 137.53,131.03 C 137.11,130.67 136.72,130.37 136.66,130.34 C 136.54,130.3 135.1,131.19 134.75,131.53 C 134.65,131.62 134.35,132.01 134.06,132.41 C 133.58,133.07 133.54,133.17 133.78,133.41 C 134.02,133.64 134.11,133.59 134.63,133.03 C 134.94,132.69 135.25,132.44 135.34,132.44 C 135.73,132.44 135.45,133.06 134.78,133.72 C 134.38,134.11 133.99,134.64 133.91,134.88 C 133.06,137.17 133.06,137.16 132.34,137.34 C 130.99,137.7 130.94,137.81 130.94,139.56 C 130.94,141.68 130.89,141.62 133.72,143.19 C 134.04,143.36 134.94,143.71 135.75,143.97 C 136.56,144.23 137.27,144.53 137.34,144.63 C 137.42,144.72 137.45,145.18 137.41,145.66 C 137.34,146.34 137.08,146.97 136.19,148.59 C 134.41,151.83 134.3,152.21 134.78,153.34 C 134.92,153.68 135.3,155.24 135.63,156.81 C 136.16,159.4 136.21,159.94 136.22,162.38 C 136.23,165.37 136.25,165.35 134.78,167.59 C 134.46,168.09 134.19,168.67 134.19,168.88 C 134.19,169.4 134.95,169.72 136.13,169.72 C 137.2,169.72 138.0,169.34 138.38,168.59 C 138.82,167.72 139.27,165.47 139.59,162.56 C 139.75,161.18 140.32,158.4 140.59,157.69 C 140.81,157.11 141.57,157.32 143.25,158.47 L 144.75,159.5 C 145.3,159.53 145.83,159.57 146.38,159.59 L 148.03,159.66 C 148.18,159.9 148.32,160.16 148.47,160.41 C 148.77,160.9 148.98,161.55 149.09,162.38 C 149.41,164.63 149.65,168.02 149.53,168.63 C 149.47,168.95 149.02,169.81 148.53,170.56 C 147.77,171.73 147.63,172.06 147.63,172.72 L 147.63,173.5 L 148.94,173.5 C 150.31,173.5 150.97,173.27 151.88,172.5 C 152.01,172.38 152.14,172.27 152.28,172.16 C 152.31,169.69 152.35,167.21 152.38,164.75 C 152.4,162.29 152.44,159.84 152.47,157.38 L 152.94,157.38 C 153.31,157.38 153.53,157.51 153.81,157.94 C 154.33,158.71 154.3,159.94 153.75,161.31 C 153.52,161.89 153.38,162.44 153.44,162.53 C 153.59,162.79 155.27,162.72 155.81,162.44 C 156.18,162.25 156.35,162.0 156.53,161.34 C 156.91,160.0 156.99,159.05 156.75,158.66 C 156.04,157.49 155.66,156.59 155.66,156.16 C 155.66,154.47 158.18,154.67 160.66,156.56 C 163.46,158.7 165.81,162.0 165.81,163.81 C 165.81,164.04 165.68,164.62 165.53,165.09 C 165.27,165.92 165.28,165.97 165.56,166.28 C 165.94,166.7 167.44,166.76 168.41,166.38 C 169.01,166.13 169.06,166.05 169.06,165.5 C 169.06,165.15 168.91,164.68 168.69,164.34 C 168.33,163.81 167.62,161.68 167.03,159.5 C 166.89,158.96 166.7,157.78 166.63,156.88 C 166.52,155.49 166.41,155.0 165.91,153.88 C 165.57,153.14 165.35,152.46 165.41,152.38 C 165.46,152.29 165.81,152.22 166.22,152.22 C 166.99,152.22 167.72,151.95 168.09,151.5 C 168.3,151.25 168.23,151.22 167.19,151.31 C 166.19,151.4 165.97,151.36 165.41,151.03 C 164.73,150.64 164.19,150.01 163.13,148.31 C 162.17,146.79 160.76,145.36 159.81,144.94 C 157.83,144.06 157.45,143.97 154.84,143.88 C 152.43,143.79 152.24,143.77 151.22,143.28 C 149.7,142.56 148.58,141.24 147.06,138.31 C 146.9,138.01 146.75,137.68 146.59,137.38 L 147.22,136.63 C 148.14,135.58 148.56,134.78 148.34,134.44 C 148.32,134.39 148.27,134.35 148.19,134.28 C 149.93,134.17 151.39,132.89 151.75,131.19 C 152.11,129.48 151.29,127.75 149.75,126.94 C 149.17,126.63 148.53,126.5 147.91,126.5 z M 147.91,128.44 C 148.95,128.39 149.9,129.37 149.88,130.41 C 149.89,130.94 149.63,131.45 149.25,131.81 C 148.67,132.39 147.75,132.51 147.03,132.13 C 146.28,131.76 145.85,130.84 146.0,130.03 C 146.14,129.13 147.01,128.44 147.91,128.44 z M 147.94,146.84 C 148.21,146.85 148.49,146.92 148.75,147.03 C 149.66,147.45 150.05,148.56 149.97,149.5 C 149.86,150.75 148.93,151.71 148.0,152.47 C 147.11,153.17 146.23,153.92 145.56,154.84 C 145.35,154.57 145.14,154.29 144.91,154.03 C 143.83,152.84 142.25,152.09 141.5,150.63 C 140.93,149.57 141.05,148.11 141.97,147.28 C 142.79,146.61 144.04,146.79 144.81,147.44 C 145.14,147.6 145.42,148.41 145.81,147.94 C 146.29,147.27 147.11,146.83 147.94,146.84 z" />
		
		<!-- Prism Reference -->
		<cam mingh:cam="--verb EditSelectAll --verb ZoomSelection --verb FileSave " /> 
	 </g>

</svg>
