<svg
   xmlns:xlink="http://www.w3.org/1999/xlink"
   xmlns:svg="http://www.w3.org/2000/svg"
   xmlns="http://www.w3.org/2000/svg"
   xmlns:mingh="http://www.minghworld.com"
   width="300px"
   height="300px" >

	 <g>	
		<!-- Shape -->
		<path id="shape" style="fill:none;stroke:#000;stroke-width:0.25px;"
			d="M 149.66,124.03 C 147.74,124.06 146.09,125.43 145.72,127.31 C 145.35,129.19 146.36,131.06 148.13,131.81 C 148.25,131.87 148.27,132.05 148.16,132.13 C 147.89,132.3 147.66,132.49 147.47,132.69 C 147.15,133.01 146.92,133.33 146.66,133.75 C 146.28,134.37 145.84,135.23 145.41,136.25 C 144.88,137.48 144.36,138.95 144.0,140.31 C 143.7,141.45 143.51,142.49 143.47,144.03 C 143.44,145.01 143.48,146.17 143.22,146.72 C 143.11,146.94 142.96,147.05 142.75,147.13 C 142.47,147.23 142.09,147.28 141.72,147.31 C 140.54,147.42 139.47,147.53 138.34,147.66 C 136.47,147.87 134.41,148.12 131.47,148.78 C 129.57,149.26 128.75,149.71 128.22,150.09 C 127.89,150.33 127.68,150.55 127.47,150.97 C 127.28,151.35 127.07,151.89 127.06,152.41 C 127.05,152.97 127.27,153.51 127.56,153.97 C 128.08,154.78 128.9,155.37 129.72,155.75 C 130.92,156.31 132.09,156.48 133.81,156.75 C 135.71,157.05 138.27,157.47 139.25,158.13 C 139.59,158.35 139.74,158.61 139.69,159.03 C 139.59,159.81 138.8,161.13 138.19,162.28 C 137.41,163.73 136.94,164.91 136.63,166.16 C 136.22,167.77 136.06,169.52 136.31,171.22 C 136.44,172.08 136.68,172.94 137.25,173.59 C 137.58,173.97 138.05,174.26 138.56,174.41 C 139.07,174.55 139.64,174.56 140.13,174.41 C 140.79,174.2 141.3,173.75 141.78,173.22 C 142.48,172.45 143.12,171.5 143.81,170.47 C 145.19,168.42 146.71,166.07 148.41,164.91 C 148.94,164.54 149.49,164.28 150.0,164.16 C 150.51,164.04 150.97,164.08 151.59,164.41 C 152.2,164.73 152.99,165.34 153.66,165.94 C 155.24,167.35 156.28,168.6 157.31,170.06 C 158.33,171.51 159.34,173.18 160.16,174.38 C 160.51,174.9 160.83,175.34 161.38,175.63 C 161.78,175.84 162.31,175.97 162.81,175.97 C 163.39,175.97 163.93,175.79 164.38,175.47 C 164.91,175.09 165.3,174.51 165.5,173.88 C 165.75,173.07 165.68,172.2 165.59,171.34 C 165.4,169.53 165.07,167.81 164.53,166.09 C 163.99,164.37 163.21,162.66 162.16,160.38 C 161.82,159.65 161.47,158.85 161.47,158.28 C 161.47,158.03 161.53,157.81 161.63,157.63 C 161.98,156.95 162.72,156.57 163.47,156.25 C 164.41,155.85 165.35,155.6 166.53,155.31 C 167.7,155.03 169.11,154.72 170.16,154.44 C 170.54,154.34 170.88,154.23 171.25,154.03 C 171.69,153.79 172.18,153.41 172.5,152.94 C 172.77,152.54 172.92,152.09 172.94,151.59 C 172.95,151.15 172.85,150.67 172.69,150.28 C 172.35,149.49 171.73,149.0 171.06,148.66 C 170.24,148.24 169.34,148.02 168.44,147.84 C 166.94,147.55 165.44,147.36 163.91,147.22 C 162.54,147.09 161.15,147.01 159.84,146.97 C 159.0,146.94 158.2,146.94 157.25,146.97 C 156.97,146.98 156.67,146.99 156.41,146.94 C 156.14,146.88 155.9,146.76 155.69,146.59 C 155.32,146.29 155.04,145.85 154.81,145.41 C 154.42,144.66 154.18,143.91 153.97,143.13 C 153.7,142.1 153.48,140.98 153.34,139.97 C 153.17,138.72 153.13,137.63 153.03,136.44 C 152.97,135.66 152.89,134.84 152.75,134.16 C 152.68,133.82 152.59,133.51 152.44,133.22 C 152.21,132.78 151.81,132.36 151.38,132.06 C 151.26,131.99 151.28,131.81 151.41,131.75 C 153.14,130.95 154.08,129.05 153.66,127.19 C 153.23,125.32 151.57,124.0 149.66,124.03 z M 149.72,126.16 C 150.79,126.16 151.66,127.02 151.66,128.09 C 151.66,129.16 150.79,130.03 149.72,130.03 C 148.65,130.03 147.78,129.16 147.78,128.09 C 147.78,127.02 148.65,126.16 149.72,126.16 z" />
			
		<path id="shapemark" style="fill:#f00;stroke:none;"
			d="M 149.56,132.66 C 149.41,132.68 149.24,132.75 149.09,132.81 C 148.94,132.88 148.82,132.94 148.69,133.03 C 148.56,133.12 148.43,133.23 148.31,133.34 C 148.19,133.47 148.08,133.58 147.97,133.72 C 147.87,133.84 147.77,133.96 147.69,134.09 C 147.63,134.19 147.56,134.31 147.5,134.41 C 147.32,134.7 147.16,134.98 147.0,135.28 C 146.81,135.65 146.64,136.03 146.47,136.41 C 146.24,136.92 146.04,137.45 145.84,137.97 C 145.63,138.55 145.46,139.1 145.28,139.69 C 145.19,139.97 145.11,140.27 145.03,140.56 C 145.0,140.68 144.97,140.79 144.94,140.91 C 144.88,141.13 144.83,141.36 144.78,141.59 C 144.73,141.83 144.69,142.08 144.66,142.31 C 144.58,142.86 144.55,143.42 144.53,143.97 C 144.52,144.44 144.52,144.91 144.5,145.38 C 144.49,145.64 144.47,145.89 144.44,146.16 C 144.42,146.27 144.4,146.39 144.38,146.5 C 144.35,146.62 144.35,146.73 144.31,146.84 C 144.28,146.96 144.21,147.08 144.16,147.19 C 144.11,147.29 144.06,147.38 144.0,147.47 C 143.93,147.56 143.86,147.64 143.78,147.72 C 143.7,147.79 143.59,147.88 143.5,147.94 C 143.42,147.99 143.34,148.02 143.25,148.06 C 143.16,148.1 143.07,148.16 142.97,148.19 C 142.78,148.25 142.57,148.28 142.38,148.31 C 142.19,148.34 142.0,148.36 141.81,148.38 C 140.6,148.49 139.37,148.58 138.16,148.72 C 137.7,148.77 137.27,148.84 136.81,148.91 C 136.31,148.97 135.81,149.04 135.31,149.13 C 134.11,149.32 132.91,149.55 131.72,149.81 C 131.4,149.89 131.09,150.0 130.78,150.09 C 130.54,150.17 130.3,150.25 130.06,150.34 C 129.88,150.41 129.68,150.48 129.5,150.56 C 129.37,150.62 129.25,150.68 129.13,150.75 C 129.03,150.81 128.94,150.87 128.84,150.94 C 128.8,150.97 128.76,151.0 128.72,151.03 C 128.69,151.06 128.65,151.1 128.63,151.13 C 128.6,151.15 128.58,151.16 128.56,151.19 C 128.54,151.22 128.52,151.25 128.5,151.28 C 128.47,151.33 128.43,151.39 128.41,151.44 C 128.34,151.56 128.29,151.69 128.25,151.81 C 128.2,151.95 128.18,152.08 128.16,152.22 C 128.15,152.28 128.13,152.34 128.13,152.41 C 128.12,152.47 128.12,152.53 128.13,152.59 C 128.14,152.73 128.17,152.84 128.22,152.97 C 128.27,153.11 128.33,153.25 128.41,153.38 C 128.55,153.6 128.74,153.79 128.94,153.97 C 129.16,154.17 129.4,154.35 129.66,154.5 C 129.97,154.68 130.29,154.84 130.63,154.97 C 130.84,155.05 131.06,155.13 131.28,155.19 C 131.51,155.25 131.73,155.29 131.97,155.34 C 132.23,155.4 132.51,155.45 132.78,155.5 C 133.09,155.55 133.38,155.61 133.69,155.66 C 134.13,155.73 134.59,155.8 135.03,155.88 C 135.45,155.95 135.86,156.01 136.28,156.09 C 136.63,156.16 136.97,156.23 137.31,156.31 C 137.51,156.36 137.74,156.41 137.94,156.47 C 138.13,156.52 138.31,156.56 138.5,156.63 C 138.61,156.66 138.71,156.71 138.81,156.75 C 138.98,156.81 139.15,156.86 139.31,156.94 C 139.47,157.01 139.63,157.12 139.78,157.22 C 139.9,157.29 140.02,157.35 140.13,157.44 C 140.23,157.53 140.32,157.66 140.41,157.78 C 140.45,157.84 140.49,157.9 140.53,157.97 C 140.57,158.04 140.63,158.11 140.66,158.19 C 140.69,158.26 140.7,158.33 140.72,158.41 C 140.74,158.48 140.74,158.58 140.75,158.66 C 140.77,158.8 140.76,158.94 140.75,159.09 C 140.74,159.2 140.71,159.3 140.69,159.41 C 140.66,159.53 140.63,159.66 140.59,159.78 C 140.55,159.9 140.52,160.04 140.47,160.16 C 140.42,160.28 140.37,160.38 140.31,160.5 C 140.17,160.82 140.01,161.13 139.84,161.44 C 139.57,161.94 139.27,162.46 139.0,162.97 C 138.74,163.46 138.5,163.95 138.28,164.47 C 138.09,164.92 137.95,165.38 137.81,165.84 C 137.73,166.13 137.66,166.4 137.59,166.69 C 137.46,167.29 137.36,167.91 137.31,168.53 C 137.26,169.15 137.23,169.79 137.28,170.41 C 137.3,170.65 137.34,170.89 137.38,171.13 C 137.39,171.2 137.39,171.27 137.41,171.34 C 137.43,171.49 137.49,171.64 137.53,171.78 C 137.57,171.91 137.58,172.03 137.63,172.16 C 137.67,172.27 137.72,172.39 137.78,172.5 C 137.84,172.6 137.9,172.69 137.97,172.78 C 138.06,172.9 138.17,173.0 138.28,173.09 C 138.38,173.17 138.48,173.26 138.59,173.31 C 138.65,173.34 138.69,173.36 138.75,173.38 C 138.81,173.39 138.88,173.43 138.94,173.44 C 139.07,173.46 139.18,173.47 139.31,173.47 C 139.45,173.47 139.59,173.44 139.72,173.41 C 139.79,173.39 139.87,173.37 139.94,173.34 C 140.01,173.31 140.09,173.26 140.16,173.22 C 140.32,173.12 140.46,173.03 140.59,172.91 C 140.68,172.83 140.77,172.74 140.84,172.66 C 141.01,172.48 141.16,172.28 141.31,172.09 C 141.58,171.77 141.85,171.44 142.09,171.09 C 142.36,170.71 142.61,170.32 142.88,169.94 C 143.47,169.05 144.05,168.17 144.69,167.31 C 145.07,166.8 145.48,166.29 145.91,165.81 C 146.23,165.44 146.57,165.08 146.94,164.75 C 147.32,164.41 147.72,164.08 148.16,163.81 C 148.4,163.66 148.67,163.52 148.94,163.41 C 149.19,163.3 149.45,163.22 149.72,163.16 C 149.87,163.12 150.0,163.08 150.16,163.06 C 150.31,163.04 150.47,163.03 150.63,163.03 C 150.79,163.03 150.94,163.06 151.09,163.09 C 151.26,163.12 151.44,163.16 151.59,163.22 C 151.76,163.28 151.91,163.36 152.06,163.44 C 152.21,163.51 152.36,163.6 152.5,163.69 C 152.65,163.79 152.79,163.89 152.94,164.0 C 153.09,164.11 153.26,164.23 153.41,164.34 C 153.56,164.46 153.7,164.56 153.84,164.69 C 153.99,164.81 154.11,164.94 154.25,165.06 C 154.77,165.52 155.27,166.0 155.75,166.5 C 156.27,167.04 156.75,167.6 157.22,168.19 C 157.44,168.47 157.66,168.74 157.88,169.03 C 158.03,169.25 158.19,169.47 158.34,169.69 C 158.76,170.29 159.17,170.89 159.56,171.5 C 159.8,171.86 160.02,172.26 160.25,172.63 C 160.42,172.89 160.58,173.14 160.75,173.41 C 160.86,173.58 160.98,173.74 161.09,173.91 C 161.15,173.99 161.22,174.07 161.28,174.16 C 161.33,174.22 161.41,174.28 161.47,174.34 C 161.52,174.4 161.54,174.45 161.59,174.5 C 161.64,174.54 161.7,174.59 161.75,174.63 C 161.8,174.66 161.88,174.69 161.94,174.72 C 162.05,174.77 162.16,174.81 162.28,174.84 C 162.41,174.88 162.55,174.9 162.69,174.91 C 162.78,174.91 162.88,174.91 162.97,174.91 C 163.1,174.9 163.25,174.86 163.38,174.81 C 163.5,174.77 163.61,174.73 163.72,174.66 C 163.79,174.61 163.84,174.56 163.91,174.5 C 164.03,174.38 164.16,174.24 164.25,174.09 C 164.35,173.94 164.41,173.8 164.47,173.63 C 164.54,173.4 164.58,173.14 164.59,172.91 C 164.62,172.62 164.61,172.35 164.59,172.06 C 164.58,171.9 164.58,171.75 164.56,171.59 C 164.54,171.38 164.53,171.15 164.5,170.94 C 164.46,170.59 164.4,170.25 164.34,169.91 C 164.24,169.23 164.1,168.57 163.94,167.91 C 163.8,167.32 163.66,166.76 163.47,166.19 C 163.25,165.51 162.96,164.82 162.69,164.16 C 162.37,163.39 162.03,162.63 161.69,161.88 C 161.51,161.48 161.34,161.08 161.16,160.69 C 161.09,160.54 161.0,160.4 160.94,160.25 C 160.87,160.09 160.81,159.91 160.75,159.75 C 160.71,159.65 160.66,159.54 160.63,159.44 C 160.6,159.35 160.59,159.27 160.56,159.19 C 160.54,159.1 160.49,159.02 160.47,158.94 C 160.43,158.75 160.41,158.56 160.41,158.38 C 160.4,158.28 160.4,158.19 160.41,158.09 C 160.41,158.01 160.42,157.93 160.44,157.84 C 160.47,157.69 160.5,157.55 160.56,157.41 C 160.63,157.25 160.72,157.08 160.81,156.94 C 160.93,156.75 161.06,156.57 161.22,156.41 C 161.36,156.26 161.52,156.12 161.69,156.0 C 161.82,155.9 161.96,155.83 162.09,155.75 C 162.26,155.65 162.42,155.55 162.59,155.47 C 162.76,155.39 162.92,155.32 163.09,155.25 C 163.3,155.17 163.51,155.07 163.72,155.0 C 164.13,154.85 164.55,154.71 164.97,154.59 C 165.42,154.47 165.86,154.36 166.31,154.25 C 166.93,154.1 167.57,153.99 168.19,153.84 C 168.66,153.73 169.13,153.62 169.59,153.5 C 169.79,153.45 169.99,153.37 170.19,153.31 C 170.3,153.28 170.39,153.26 170.5,153.22 C 170.61,153.17 170.71,153.12 170.81,153.06 C 170.95,152.98 171.1,152.88 171.22,152.78 C 171.28,152.73 171.35,152.68 171.41,152.63 C 171.46,152.57 171.52,152.5 171.56,152.44 C 171.62,152.37 171.65,152.29 171.69,152.22 C 171.74,152.12 171.78,152.04 171.81,151.94 C 171.84,151.83 171.87,151.71 171.88,151.59 C 171.88,151.53 171.88,151.47 171.88,151.41 C 171.87,151.29 171.84,151.18 171.81,151.06 C 171.79,150.95 171.76,150.83 171.72,150.72 C 171.68,150.63 171.64,150.55 171.59,150.47 C 171.54,150.38 171.47,150.29 171.41,150.22 C 171.34,150.14 171.26,150.07 171.19,150.0 C 171.11,149.93 171.03,149.87 170.94,149.81 C 170.72,149.67 170.49,149.54 170.25,149.44 C 169.96,149.31 169.65,149.24 169.34,149.16 C 169.02,149.07 168.71,148.97 168.38,148.91 C 168.18,148.87 167.97,148.85 167.78,148.81 C 167.49,148.76 167.2,148.7 166.91,148.66 C 166.32,148.56 165.74,148.48 165.16,148.41 C 164.05,148.27 162.93,148.19 161.81,148.13 C 161.28,148.09 160.78,148.08 160.25,148.06 C 159.87,148.05 159.47,148.04 159.09,148.03 C 158.77,148.02 158.45,148.0 158.13,148.0 C 157.95,148.0 157.77,148.0 157.59,148.0 C 157.47,148.0 157.37,148.03 157.25,148.03 C 157.12,148.03 156.98,148.03 156.84,148.03 C 156.69,148.03 156.53,148.02 156.38,148.0 C 156.2,147.98 156.01,147.93 155.84,147.88 C 155.68,147.82 155.53,147.75 155.38,147.66 C 155.3,147.61 155.22,147.58 155.16,147.53 C 155.08,147.48 155.01,147.41 154.94,147.34 C 154.73,147.17 154.57,146.97 154.41,146.75 C 154.26,146.55 154.12,146.34 154.0,146.13 C 153.92,145.99 153.85,145.86 153.78,145.72 C 153.62,145.4 153.5,145.09 153.38,144.75 C 153.26,144.43 153.16,144.08 153.06,143.75 C 153.01,143.58 152.95,143.39 152.91,143.22 C 152.85,143.0 152.8,142.81 152.75,142.59 C 152.65,142.16 152.55,141.72 152.47,141.28 C 152.39,140.85 152.34,140.41 152.28,139.97 C 152.22,139.48 152.17,138.99 152.13,138.5 C 152.08,137.99 152.04,137.48 152.0,136.97 C 151.97,136.61 151.94,136.26 151.91,135.91 C 151.88,135.62 151.85,135.32 151.81,135.03 C 151.78,134.8 151.74,134.57 151.69,134.34 C 151.68,134.29 151.67,134.24 151.66,134.19 C 151.63,134.09 151.59,134.0 151.56,133.91 C 151.53,133.83 151.51,133.73 151.47,133.66 C 151.42,133.57 151.38,133.49 151.31,133.41 C 151.24,133.32 151.15,133.23 151.06,133.16 C 150.98,133.08 150.91,133.0 150.81,132.94 C 150.72,132.88 150.6,132.83 150.5,132.78 C 150.41,132.74 150.34,132.71 150.25,132.69 C 150.18,132.67 150.11,132.66 150.03,132.66 C 149.88,132.64 149.71,132.63 149.56,132.66 z M 149.75,134.25 C 149.79,134.24 149.83,134.24 149.88,134.25 C 150.2,134.35 150.24,135.04 150.0,136.34 C 149.76,137.64 149.63,138.85 149.59,139.94 C 149.56,141.02 149.6,142.12 149.69,143.25 C 149.78,144.38 150.02,145.62 150.41,147.03 C 150.79,148.44 151.11,149.81 151.38,151.13 C 151.5,151.75 151.77,152.16 152.19,152.34 C 152.65,152.55 153.21,152.55 153.88,152.38 C 155.14,152.05 156.37,151.76 157.56,151.53 C 158.75,151.31 159.91,151.14 161.03,151.0 C 162.15,150.86 163.33,150.75 164.56,150.63 C 165.79,150.5 167.06,150.54 168.38,150.72 C 169.69,150.9 170.32,151.12 170.28,151.41 C 170.24,151.69 169.63,151.85 168.44,151.84 C 167.24,151.84 166.03,151.93 164.81,152.13 C 163.59,152.32 162.44,152.51 161.34,152.75 C 160.27,152.99 158.7,153.39 156.63,153.94 C 156.59,153.95 156.56,153.96 156.53,153.97 C 154.99,154.39 154.09,154.93 153.81,155.56 C 153.54,156.2 153.95,157.07 155.06,158.22 C 156.18,159.37 157.17,160.47 158.0,161.5 C 158.83,162.53 159.5,163.52 160.03,164.47 C 160.56,165.42 161.07,166.43 161.56,167.47 C 162.06,168.51 162.46,169.71 162.75,171.09 C 163.04,172.48 163.08,173.24 162.84,173.34 C 162.61,173.45 162.26,172.84 161.81,171.53 C 161.37,170.22 160.88,169.08 160.34,168.09 C 159.81,167.11 159.25,166.11 158.66,165.16 C 158.06,164.2 157.29,163.21 156.38,162.16 C 155.46,161.1 154.42,160.07 153.22,159.09 C 152.02,158.11 151.16,157.63 150.63,157.66 C 150.09,157.69 149.22,158.23 148.0,159.28 C 146.78,160.33 145.73,161.28 144.91,162.09 C 144.08,162.91 143.37,163.78 142.78,164.75 C 142.19,165.72 141.73,166.72 141.38,167.72 C 141.02,168.72 140.55,169.84 139.94,171.06 C 139.64,171.66 139.42,171.93 139.28,171.88 C 139.13,171.82 139.11,171.47 139.22,170.84 C 139.42,169.62 139.69,168.44 140.06,167.34 C 140.43,166.25 140.88,165.18 141.41,164.19 C 141.94,163.19 142.63,162.23 143.5,161.28 C 144.37,160.33 145.27,159.3 146.19,158.19 C 147.11,157.08 147.47,156.24 147.31,155.63 C 147.15,155.01 145.84,154.42 143.34,153.88 C 143.3,153.87 143.25,153.88 143.22,153.88 C 141.24,153.55 139.7,153.31 138.53,153.19 C 137.35,153.07 136.09,152.97 134.78,152.91 C 133.47,152.84 132.3,152.82 131.28,152.84 C 130.26,152.87 129.74,152.72 129.72,152.41 C 129.7,152.09 130.17,151.89 131.13,151.75 C 132.08,151.61 133.25,151.53 134.66,151.5 C 136.06,151.47 137.34,151.5 138.47,151.56 C 139.6,151.63 140.77,151.73 141.97,151.88 C 143.17,152.02 144.55,152.3 146.09,152.72 C 147.1,152.99 147.89,152.82 148.5,152.22 C 148.83,151.9 148.98,151.51 148.94,151.06 C 148.82,149.79 148.62,148.49 148.34,147.16 C 148.07,145.83 147.93,144.58 147.94,143.41 C 147.94,142.24 147.98,141.09 148.03,139.97 C 148.09,138.85 148.33,137.59 148.75,136.19 C 149.12,134.96 149.45,134.33 149.75,134.25 z M 147.69,135.16 C 147.74,135.15 147.82,135.17 147.88,135.19 C 148.11,135.26 148.23,135.52 148.16,135.75 C 148.08,135.98 147.83,136.11 147.59,136.03 C 147.36,135.96 147.24,135.7 147.31,135.47 C 147.37,135.29 147.52,135.17 147.69,135.16 z M 151.22,135.31 C 151.41,135.33 151.55,135.52 151.53,135.72 C 151.51,135.91 151.35,136.05 151.16,136.03 C 150.96,136.01 150.79,135.82 150.81,135.63 C 150.83,135.43 151.02,135.29 151.22,135.31 z M 147.19,136.31 C 147.26,136.3 147.33,136.33 147.41,136.34 C 147.7,136.42 147.89,136.7 147.81,137.0 C 147.74,137.3 147.42,137.48 147.13,137.41 C 146.83,137.33 146.64,137.05 146.72,136.75 C 146.77,136.53 146.97,136.35 147.19,136.31 z M 151.22,136.38 C 151.49,136.42 151.67,136.69 151.63,136.97 C 151.58,137.24 151.34,137.42 151.06,137.38 C 150.79,137.33 150.61,137.09 150.66,136.81 C 150.7,136.54 150.94,136.33 151.22,136.38 z M 146.63,137.72 C 146.71,137.7 146.81,137.7 146.91,137.72 C 147.28,137.78 147.56,138.15 147.5,138.53 C 147.44,138.91 147.07,139.15 146.69,139.09 C 146.31,139.03 146.06,138.69 146.13,138.31 C 146.17,138.03 146.36,137.78 146.63,137.72 z M 151.16,137.75 C 151.52,137.79 151.79,138.13 151.75,138.5 C 151.71,138.87 151.37,139.1 151.0,139.06 C 150.63,139.02 150.4,138.71 150.44,138.34 C 150.48,137.98 150.79,137.71 151.16,137.75 z M 146.31,139.41 C 146.43,139.39 146.54,139.4 146.66,139.44 C 147.14,139.58 147.42,140.11 147.28,140.59 C 147.14,141.08 146.64,141.33 146.16,141.19 C 145.67,141.05 145.39,140.55 145.53,140.06 C 145.64,139.7 145.96,139.45 146.31,139.41 z M 151.16,139.44 C 151.61,139.45 151.95,139.82 151.94,140.28 C 151.93,140.74 151.55,141.1 151.09,141.09 C 150.64,141.08 150.3,140.71 150.31,140.25 C 150.32,139.79 150.7,139.43 151.16,139.44 z M 151.28,141.44 C 151.83,141.41 152.31,141.83 152.34,142.38 C 152.37,142.92 151.92,143.38 151.38,143.41 C 150.83,143.44 150.37,143.02 150.34,142.47 C 150.31,141.92 150.73,141.47 151.28,141.44 z M 146.13,141.56 C 146.76,141.57 147.26,142.09 147.25,142.72 C 147.24,143.35 146.72,143.85 146.09,143.84 C 145.46,143.84 144.96,143.32 144.97,142.69 C 144.98,142.06 145.49,141.55 146.13,141.56 z M 151.59,143.75 C 152.23,143.62 152.84,144.02 152.97,144.66 C 153.1,145.29 152.66,145.9 152.03,146.03 C 151.4,146.16 150.78,145.76 150.66,145.13 C 150.53,144.49 150.96,143.88 151.59,143.75 z M 145.91,144.22 C 145.99,144.21 146.07,144.22 146.16,144.22 C 146.85,144.25 147.37,144.81 147.34,145.5 C 147.32,146.19 146.76,146.75 146.06,146.72 C 145.37,146.69 144.82,146.1 144.84,145.41 C 144.87,144.8 145.33,144.31 145.91,144.22 z M 152.19,146.38 C 152.33,146.35 152.48,146.37 152.63,146.41 C 153.2,146.56 153.52,147.15 153.38,147.72 C 153.23,148.29 152.63,148.62 152.06,148.47 C 151.49,148.32 151.16,147.73 151.31,147.16 C 151.42,146.73 151.77,146.44 152.19,146.38 z M 146.72,146.97 C 147.09,146.94 147.47,147.15 147.66,147.5 C 147.9,147.97 147.72,148.54 147.25,148.78 C 146.78,149.03 146.21,148.84 145.97,148.38 C 145.72,147.91 145.88,147.34 146.34,147.09 C 146.46,147.03 146.59,146.98 146.72,146.97 z M 144.69,147.63 C 144.91,147.62 145.14,147.71 145.31,147.88 C 145.65,148.2 145.67,148.75 145.34,149.09 C 145.02,149.44 144.47,149.42 144.13,149.09 C 143.78,148.77 143.77,148.25 144.09,147.91 C 144.26,147.74 144.47,147.63 144.69,147.63 z M 154.47,147.72 C 154.64,147.68 154.81,147.71 154.97,147.81 C 155.29,148.02 155.39,148.43 155.19,148.75 C 154.98,149.07 154.57,149.17 154.25,148.97 C 153.93,148.77 153.83,148.35 154.03,148.03 C 154.13,147.87 154.3,147.76 154.47,147.72 z M 158.91,148.38 C 159.52,148.39 160.01,148.89 160.0,149.5 C 159.99,150.11 159.49,150.6 158.88,150.59 C 158.26,150.58 157.77,150.08 157.78,149.47 C 157.79,148.86 158.29,148.36 158.91,148.38 z M 161.16,148.47 C 161.65,148.41 162.1,148.75 162.16,149.25 C 162.21,149.75 161.84,150.19 161.34,150.25 C 160.85,150.31 160.4,149.97 160.34,149.47 C 160.29,148.97 160.66,148.53 161.16,148.47 z M 163.28,148.59 C 163.68,148.63 164.0,148.97 163.97,149.38 C 163.94,149.78 163.59,150.06 163.19,150.03 C 162.79,150.0 162.47,149.65 162.5,149.25 C 162.53,148.85 162.88,148.56 163.28,148.59 z M 141.72,148.75 C 142.37,148.82 142.82,149.41 142.75,150.06 C 142.68,150.71 142.09,151.17 141.44,151.09 C 140.79,151.02 140.33,150.43 140.41,149.78 C 140.48,149.13 141.07,148.68 141.72,148.75 z M 164.72,148.75 C 164.79,148.73 164.89,148.74 164.97,148.75 C 165.28,148.79 165.5,149.06 165.47,149.38 C 165.43,149.69 165.13,149.91 164.81,149.88 C 164.5,149.84 164.28,149.56 164.31,149.25 C 164.34,149.02 164.51,148.81 164.72,148.75 z M 156.5,148.91 C 156.77,148.93 157.03,149.06 157.22,149.28 C 157.6,149.73 157.54,150.4 157.09,150.78 C 156.65,151.16 155.97,151.1 155.59,150.66 C 155.22,150.21 155.27,149.53 155.72,149.16 C 155.94,148.97 156.23,148.88 156.5,148.91 z M 166.16,148.94 C 166.21,148.92 166.28,148.93 166.34,148.94 C 166.6,148.97 166.76,149.19 166.72,149.44 C 166.68,149.69 166.44,149.88 166.19,149.84 C 165.94,149.81 165.78,149.56 165.81,149.31 C 165.84,149.12 165.98,148.98 166.16,148.94 z M 139.16,149.0 C 139.68,149.04 140.07,149.48 140.03,150.0 C 140.0,150.52 139.55,150.91 139.03,150.88 C 138.51,150.84 138.09,150.4 138.13,149.88 C 138.16,149.35 138.63,148.96 139.16,149.0 z M 153.31,149.06 C 153.94,149.06 154.52,149.49 154.66,150.13 C 154.81,150.85 154.32,151.57 153.59,151.72 C 152.86,151.87 152.15,151.42 152.0,150.69 C 151.85,149.96 152.33,149.24 153.06,149.09 C 153.15,149.07 153.22,149.06 153.31,149.06 z M 167.38,149.13 C 167.42,149.11 167.48,149.12 167.53,149.13 C 167.74,149.16 167.88,149.35 167.84,149.56 C 167.81,149.78 167.62,149.94 167.41,149.91 C 167.19,149.87 167.06,149.65 167.09,149.44 C 167.12,149.28 167.23,149.16 167.38,149.13 z M 137.03,149.22 C 137.46,149.23 137.79,149.6 137.78,150.03 C 137.77,150.46 137.43,150.79 137.0,150.78 C 136.57,150.77 136.21,150.43 136.22,150.0 C 136.23,149.57 136.6,149.21 137.03,149.22 z M 146.63,149.25 C 147.08,149.21 147.54,149.4 147.84,149.78 C 148.34,150.4 148.24,151.29 147.63,151.78 C 147.01,152.27 146.12,152.18 145.63,151.56 C 145.13,150.95 145.23,150.06 145.84,149.56 C 146.08,149.38 146.35,149.27 146.63,149.25 z M 168.47,149.34 C 168.51,149.34 168.58,149.33 168.63,149.34 C 168.81,149.38 168.92,149.56 168.88,149.75 C 168.83,149.94 168.66,150.04 168.47,150.0 C 168.28,149.96 168.18,149.78 168.22,149.59 C 168.25,149.45 168.34,149.37 168.47,149.34 z M 135.22,149.5 C 135.57,149.5 135.87,149.77 135.88,150.13 C 135.88,150.48 135.6,150.78 135.25,150.78 C 134.9,150.78 134.6,150.51 134.59,150.16 C 134.59,149.8 134.86,149.5 135.22,149.5 z M 143.81,149.59 C 143.93,149.57 144.06,149.57 144.19,149.59 C 144.7,149.7 145.04,150.2 144.94,150.72 C 144.84,151.24 144.33,151.57 143.81,151.47 C 143.3,151.37 142.96,150.86 143.06,150.34 C 143.14,149.96 143.45,149.67 143.81,149.59 z M 133.72,149.78 C 134.01,149.77 134.24,149.99 134.25,150.28 C 134.26,150.57 134.04,150.8 133.75,150.81 C 133.46,150.82 133.23,150.6 133.22,150.31 C 133.21,150.02 133.43,149.79 133.72,149.78 z M 132.41,150.03 C 132.64,150.01 132.86,150.2 132.88,150.44 C 132.89,150.67 132.7,150.89 132.47,150.91 C 132.23,150.92 132.02,150.74 132.0,150.5 C 131.98,150.26 132.17,150.05 132.41,150.03 z M 131.28,150.31 C 131.47,150.29 131.63,150.43 131.66,150.63 C 131.68,150.82 131.57,150.98 131.38,151.0 C 131.18,151.02 130.99,150.88 130.97,150.69 C 130.95,150.5 131.09,150.34 131.28,150.31 z M 167.91,152.53 C 168.17,152.53 168.4,152.76 168.41,153.03 C 168.41,153.3 168.21,153.53 167.94,153.53 C 167.67,153.54 167.44,153.3 167.44,153.03 C 167.43,152.76 167.64,152.54 167.91,152.53 z M 169.09,152.53 C 169.29,152.52 169.46,152.68 169.47,152.88 C 169.48,153.07 169.32,153.24 169.13,153.25 C 168.93,153.26 168.76,153.1 168.75,152.91 C 168.74,152.71 168.9,152.54 169.09,152.53 z M 166.44,152.63 C 166.77,152.6 167.06,152.85 167.09,153.19 C 167.12,153.52 166.87,153.81 166.53,153.84 C 166.19,153.87 165.9,153.62 165.88,153.28 C 165.85,152.94 166.1,152.65 166.44,152.63 z M 164.72,152.84 C 165.11,152.78 165.47,153.05 165.53,153.44 C 165.59,153.83 165.33,154.19 164.94,154.25 C 164.55,154.31 164.19,154.04 164.13,153.66 C 164.06,153.27 164.33,152.91 164.72,152.84 z M 162.84,153.19 C 163.3,153.1 163.72,153.39 163.81,153.84 C 163.9,154.3 163.61,154.72 163.16,154.81 C 162.7,154.9 162.24,154.61 162.16,154.16 C 162.07,153.7 162.39,153.28 162.84,153.19 z M 131.13,153.56 C 131.45,153.56 131.75,153.83 131.75,154.16 C 131.75,154.48 131.48,154.75 131.16,154.75 C 130.83,154.75 130.57,154.48 130.56,154.16 C 130.56,153.83 130.8,153.57 131.13,153.56 z M 132.88,153.56 C 133.32,153.57 133.69,153.93 133.69,154.38 C 133.68,154.82 133.32,155.16 132.88,155.16 C 132.43,155.15 132.06,154.78 132.06,154.34 C 132.07,153.9 132.43,153.56 132.88,153.56 z M 134.72,153.66 C 134.84,153.63 134.97,153.64 135.09,153.66 C 135.6,153.74 135.96,154.21 135.88,154.72 C 135.79,155.23 135.29,155.55 134.78,155.47 C 134.27,155.39 133.95,154.91 134.03,154.41 C 134.09,154.03 134.37,153.74 134.72,153.66 z M 160.97,153.66 C 161.41,153.73 161.79,154.06 161.91,154.53 C 162.06,155.15 161.65,155.79 161.03,155.94 C 160.41,156.09 159.81,155.69 159.66,155.06 C 159.51,154.44 159.88,153.84 160.5,153.69 C 160.66,153.65 160.82,153.63 160.97,153.66 z M 137.38,153.78 C 137.96,153.83 138.39,154.35 138.34,154.94 C 138.29,155.52 137.77,155.96 137.19,155.91 C 136.6,155.86 136.17,155.34 136.22,154.75 C 136.27,154.16 136.79,153.73 137.38,153.78 z M 139.97,154.09 C 140.14,154.1 140.33,154.14 140.5,154.22 C 141.16,154.52 141.45,155.27 141.16,155.94 C 140.86,156.6 140.07,156.89 139.41,156.59 C 138.74,156.3 138.45,155.54 138.75,154.88 C 138.97,154.38 139.46,154.08 139.97,154.09 z M 158.34,154.25 C 158.87,154.25 159.28,154.67 159.28,155.19 C 159.28,155.71 158.87,156.13 158.34,156.13 C 157.82,156.12 157.4,155.71 157.41,155.19 C 157.41,154.67 157.82,154.25 158.34,154.25 z M 142.84,154.5 C 143.42,154.59 143.81,155.14 143.72,155.72 C 143.63,156.29 143.07,156.69 142.5,156.59 C 141.93,156.5 141.53,155.95 141.63,155.38 C 141.72,154.8 142.27,154.41 142.84,154.5 z M 155.97,154.97 C 156.47,154.96 156.94,155.23 157.16,155.72 C 157.45,156.37 157.15,157.15 156.5,157.44 C 155.85,157.73 155.1,157.43 154.81,156.78 C 154.52,156.13 154.82,155.35 155.47,155.06 C 155.63,154.99 155.8,154.97 155.97,154.97 z M 145.22,155.16 C 145.69,155.18 146.14,155.49 146.31,155.97 C 146.54,156.6 146.2,157.3 145.56,157.53 C 144.93,157.76 144.23,157.41 144.0,156.78 C 143.77,156.15 144.12,155.45 144.75,155.22 C 144.91,155.16 145.06,155.15 145.22,155.16 z M 159.31,156.22 C 159.43,156.21 159.54,156.24 159.66,156.28 C 160.11,156.44 160.35,156.95 160.19,157.41 C 160.03,157.86 159.55,158.1 159.09,157.94 C 158.64,157.78 158.4,157.27 158.56,156.81 C 158.68,156.47 158.97,156.24 159.31,156.22 z M 141.69,156.72 C 141.8,156.72 141.89,156.73 142.0,156.78 C 142.42,156.97 142.63,157.48 142.44,157.91 C 142.25,158.33 141.74,158.5 141.31,158.31 C 140.89,158.12 140.71,157.61 140.91,157.19 C 141.05,156.87 141.36,156.71 141.69,156.72 z M 157.66,157.44 C 157.79,157.45 157.91,157.47 158.03,157.53 C 158.52,157.78 158.72,158.39 158.47,158.88 C 158.22,159.36 157.61,159.56 157.13,159.31 C 156.64,159.06 156.47,158.46 156.72,157.97 C 156.91,157.6 157.27,157.41 157.66,157.44 z M 143.5,157.47 C 143.9,157.41 144.31,157.57 144.53,157.94 C 144.83,158.42 144.67,159.07 144.19,159.38 C 143.7,159.68 143.08,159.52 142.78,159.03 C 142.48,158.54 142.61,157.93 143.09,157.63 C 143.22,157.55 143.37,157.49 143.5,157.47 z M 150.5,158.47 C 150.99,158.39 151.5,158.61 151.78,159.06 C 152.16,159.66 151.98,160.47 151.38,160.84 C 150.77,161.22 149.97,161.04 149.59,160.44 C 149.22,159.84 149.4,159.03 150.0,158.66 C 150.15,158.56 150.34,158.49 150.5,158.47 z M 159.44,159.09 C 159.73,159.12 160.02,159.26 160.22,159.5 C 160.61,159.99 160.52,160.7 160.03,161.09 C 159.54,161.49 158.83,161.43 158.44,160.94 C 158.04,160.45 158.1,159.71 158.59,159.31 C 158.84,159.11 159.15,159.06 159.44,159.09 z M 141.88,159.22 C 142.16,159.2 142.46,159.3 142.69,159.5 C 143.14,159.9 143.18,160.57 142.78,161.03 C 142.38,161.49 141.68,161.56 141.22,161.16 C 140.76,160.75 140.72,160.05 141.13,159.59 C 141.33,159.37 141.59,159.24 141.88,159.22 z M 148.44,160.19 C 148.58,160.19 148.74,160.19 148.88,160.25 C 149.43,160.48 149.67,161.13 149.44,161.69 C 149.21,162.24 148.58,162.48 148.03,162.25 C 147.48,162.02 147.21,161.4 147.44,160.84 C 147.61,160.43 148.02,160.19 148.44,160.19 z M 152.97,160.19 C 153.42,160.19 153.85,160.46 154.03,160.91 C 154.27,161.5 154.0,162.16 153.41,162.41 C 152.82,162.65 152.15,162.37 151.91,161.78 C 151.66,161.19 151.94,160.52 152.53,160.28 C 152.68,160.22 152.82,160.19 152.97,160.19 z M 150.66,161.38 C 151.02,161.38 151.32,161.67 151.31,162.03 C 151.3,162.4 150.99,162.7 150.63,162.69 C 150.26,162.68 149.96,162.4 149.97,162.03 C 149.98,161.67 150.29,161.37 150.66,161.38 z M 160.34,161.41 C 160.68,161.34 161.05,161.48 161.25,161.78 C 161.52,162.18 161.4,162.7 161.0,162.97 C 160.6,163.24 160.05,163.15 159.78,162.75 C 159.51,162.35 159.63,161.8 160.03,161.53 C 160.13,161.46 160.23,161.43 160.34,161.41 z M 140.84,161.44 C 140.95,161.45 141.05,161.48 141.16,161.53 C 141.57,161.76 141.73,162.27 141.5,162.69 C 141.27,163.1 140.76,163.26 140.34,163.03 C 139.93,162.81 139.77,162.29 140.0,161.88 C 140.17,161.57 140.51,161.4 140.84,161.44 z M 146.59,161.91 C 146.89,161.91 147.18,162.02 147.41,162.25 C 147.85,162.71 147.84,163.46 147.38,163.91 C 146.91,164.35 146.19,164.34 145.75,163.88 C 145.31,163.41 145.32,162.66 145.78,162.22 C 146.01,162.0 146.3,161.9 146.59,161.91 z M 154.75,162.13 C 155.08,162.1 155.42,162.21 155.69,162.44 C 156.23,162.89 156.3,163.71 155.84,164.25 C 155.39,164.79 154.57,164.86 154.03,164.41 C 153.49,163.95 153.42,163.14 153.88,162.59 C 154.1,162.32 154.42,162.15 154.75,162.13 z M 139.81,163.25 C 139.92,163.26 140.02,163.26 140.13,163.31 C 140.53,163.51 140.7,164.0 140.5,164.41 C 140.3,164.81 139.81,165.01 139.41,164.81 C 139.0,164.61 138.83,164.1 139.03,163.69 C 139.18,163.38 139.49,163.23 139.81,163.25 z M 161.38,163.25 C 161.67,163.22 161.94,163.38 162.09,163.66 C 162.29,164.02 162.18,164.46 161.81,164.66 C 161.45,164.86 160.98,164.74 160.78,164.38 C 160.58,164.01 160.7,163.54 161.06,163.34 C 161.15,163.29 161.28,163.26 161.38,163.25 z M 144.63,163.88 C 144.89,163.83 145.17,163.89 145.41,164.06 C 145.88,164.4 146.0,165.06 145.66,165.53 C 145.32,166.01 144.66,166.12 144.19,165.78 C 143.71,165.44 143.6,164.79 143.94,164.31 C 144.11,164.08 144.36,163.92 144.63,163.88 z M 156.69,164.34 C 156.96,164.35 157.26,164.44 157.47,164.66 C 157.88,165.08 157.86,165.77 157.44,166.19 C 157.01,166.6 156.32,166.58 155.91,166.16 C 155.49,165.73 155.51,165.07 155.94,164.66 C 156.15,164.45 156.41,164.34 156.69,164.34 z M 162.13,164.94 C 162.38,164.92 162.66,165.07 162.78,165.31 C 162.95,165.64 162.83,166.02 162.5,166.19 C 162.17,166.35 161.76,166.23 161.59,165.91 C 161.43,165.58 161.55,165.2 161.88,165.03 C 161.96,164.99 162.04,164.94 162.13,164.94 z M 138.94,165.06 C 139.04,165.05 139.15,165.09 139.25,165.13 C 139.67,165.26 139.89,165.71 139.75,166.13 C 139.61,166.54 139.17,166.76 138.75,166.63 C 138.33,166.49 138.11,166.04 138.25,165.63 C 138.35,165.31 138.63,165.09 138.94,165.06 z M 143.53,165.94 C 143.65,165.94 143.76,165.95 143.88,166.0 C 144.32,166.22 144.53,166.77 144.31,167.22 C 144.09,167.67 143.54,167.87 143.09,167.66 C 142.64,167.44 142.47,166.89 142.69,166.44 C 142.85,166.1 143.18,165.92 143.53,165.94 z M 158.16,166.38 C 158.38,166.4 158.6,166.5 158.75,166.69 C 159.05,167.06 159.0,167.63 158.63,167.94 C 158.25,168.24 157.68,168.19 157.38,167.81 C 157.07,167.44 157.12,166.87 157.5,166.56 C 157.69,166.41 157.93,166.35 158.16,166.38 z M 162.75,166.5 C 162.97,166.49 163.18,166.63 163.28,166.84 C 163.41,167.12 163.28,167.43 163.0,167.56 C 162.72,167.69 162.41,167.59 162.28,167.31 C 162.15,167.03 162.28,166.69 162.56,166.56 C 162.63,166.53 162.68,166.5 162.75,166.5 z M 138.31,166.97 C 138.4,166.95 138.5,166.95 138.59,166.97 C 138.98,167.03 139.25,167.39 139.19,167.78 C 139.12,168.17 138.76,168.44 138.38,168.38 C 137.99,168.31 137.72,167.92 137.78,167.53 C 137.83,167.24 138.04,167.03 138.31,166.97 z M 142.53,167.84 C 142.62,167.84 142.72,167.87 142.81,167.91 C 143.17,168.04 143.35,168.42 143.22,168.78 C 143.09,169.14 142.7,169.32 142.34,169.19 C 141.99,169.06 141.77,168.67 141.91,168.31 C 142.01,168.04 142.26,167.86 142.53,167.84 z M 163.25,167.91 C 163.43,167.92 163.59,168.04 163.66,168.22 C 163.74,168.46 163.62,168.73 163.38,168.81 C 163.13,168.9 162.87,168.78 162.78,168.53 C 162.7,168.29 162.82,168.02 163.06,167.94 C 163.12,167.92 163.19,167.9 163.25,167.91 z M 158.97,168.19 C 159.25,168.13 159.57,168.22 159.75,168.47 C 159.99,168.8 159.9,169.26 159.56,169.5 C 159.23,169.74 158.77,169.68 158.53,169.34 C 158.3,169.01 158.38,168.55 158.72,168.31 C 158.8,168.25 158.87,168.21 158.97,168.19 z M 138.22,168.69 C 138.54,168.69 138.79,168.96 138.78,169.28 C 138.77,169.6 138.51,169.85 138.19,169.84 C 137.87,169.84 137.62,169.6 137.63,169.28 C 137.63,168.96 137.9,168.68 138.22,168.69 z M 163.56,169.16 C 163.72,169.18 163.86,169.31 163.91,169.47 C 163.97,169.68 163.84,169.91 163.63,169.97 C 163.41,170.03 163.18,169.9 163.13,169.69 C 163.07,169.47 163.19,169.25 163.41,169.19 C 163.46,169.17 163.51,169.15 163.56,169.16 z M 141.84,169.41 C 141.91,169.41 141.96,169.41 142.03,169.44 C 142.3,169.55 142.43,169.86 142.31,170.13 C 142.2,170.39 141.89,170.52 141.63,170.41 C 141.36,170.29 141.23,169.99 141.34,169.72 C 141.43,169.52 141.64,169.4 141.84,169.41 z M 159.88,169.78 C 160.11,169.74 160.36,169.85 160.5,170.06 C 160.68,170.35 160.6,170.72 160.31,170.91 C 160.03,171.09 159.65,171.0 159.47,170.72 C 159.29,170.44 159.37,170.06 159.66,169.88 C 159.73,169.83 159.8,169.8 159.88,169.78 z M 163.66,170.31 C 163.85,170.27 164.05,170.37 164.09,170.56 C 164.14,170.75 164.0,170.96 163.81,171.0 C 163.62,171.04 163.45,170.91 163.41,170.72 C 163.36,170.53 163.47,170.35 163.66,170.31 z M 141.22,170.63 C 141.27,170.63 141.32,170.66 141.38,170.69 C 141.58,170.79 141.66,171.02 141.56,171.22 C 141.46,171.42 141.2,171.5 141.0,171.41 C 140.8,171.31 140.71,171.08 140.81,170.88 C 140.89,170.72 141.06,170.62 141.22,170.63 z M 160.53,171.22 C 160.71,171.19 160.9,171.24 161.0,171.41 C 161.14,171.62 161.09,171.92 160.88,172.06 C 160.66,172.2 160.36,172.12 160.22,171.91 C 160.08,171.69 160.16,171.42 160.38,171.28 C 160.43,171.25 160.47,171.23 160.53,171.22 z M 163.84,171.34 C 164.02,171.32 164.19,171.45 164.22,171.63 C 164.25,171.8 164.11,171.94 163.94,171.97 C 163.77,172.0 163.62,171.89 163.59,171.72 C 163.57,171.55 163.67,171.37 163.84,171.34 z M 161.0,172.38 C 161.17,172.31 161.37,172.39 161.44,172.56 C 161.51,172.73 161.42,172.93 161.25,173.0 C 161.08,173.07 160.88,172.98 160.81,172.81 C 160.74,172.64 160.83,172.44 161.0,172.38 z" />

		<!-- Prism Reference -->
		<cam mingh:cam="--verb EditSelectAll --verb ZoomSelection --verb FileSave " /> 
 
	 </g>

</svg>
