<svg
   xmlns:xlink="http://www.w3.org/1999/xlink"
   xmlns:svg="http://www.w3.org/2000/svg"
   xmlns="http://www.w3.org/2000/svg"
   xmlns:mingh="http://www.minghworld.com"
   width="300px"
   height="300px" >
    
	 <g>
		<!-- Paths -->
		<path id="shape" transform="matrix(-1 0 0 1 300 0)" style="fill:#ff0;stroke:none;"
			d="M 150.0,122.19 C 148.55,122.18 147.2,122.96 146.47,124.25 C 145.63,125.72 145.77,127.57 146.84,128.88 C 147.38,129.52 148.1,129.96 148.91,130.19 C 149.05,130.23 149.33,130.25 149.44,130.41 C 149.57,130.58 149.53,130.86 149.34,130.97 C 149.25,131.02 149.16,131.03 149.06,131.06 C 148.97,131.1 148.88,131.15 148.78,131.19 C 148.59,131.26 148.38,131.33 148.19,131.41 L 143.63,133.22 C 140.57,134.42 137.5,135.61 134.44,136.81 C 133.04,137.36 131.62,137.92 130.22,138.47 C 129.85,138.61 129.57,138.79 129.38,139.16 C 129.19,139.5 129.16,139.91 129.28,140.28 C 129.41,140.69 129.59,141.04 129.75,141.44 C 129.91,141.84 130.06,142.25 130.22,142.66 C 131.48,145.87 132.74,149.1 134.0,152.31 C 136.4,158.43 138.82,164.54 141.22,170.66 C 141.88,172.33 142.53,174.01 143.19,175.69 C 143.35,176.1 143.51,176.52 143.69,176.94 C 143.84,177.31 144.15,177.59 144.53,177.72 C 144.95,177.86 145.27,177.81 145.66,177.66 L 146.75,177.22 C 149.68,176.07 152.61,174.93 155.53,173.78 C 158.55,172.6 161.58,171.4 164.59,170.22 C 166.1,169.63 167.62,169.03 169.13,168.44 C 169.35,168.35 169.98,168.12 170.19,167.97 C 170.53,167.72 170.76,167.3 170.78,166.88 C 170.79,166.67 170.76,166.5 170.69,166.31 C 170.61,166.1 170.52,165.87 170.44,165.66 C 170.27,165.22 170.11,164.81 169.94,164.38 C 167.54,158.26 165.12,152.15 162.72,146.03 C 161.5,142.92 160.28,139.8 159.06,136.69 C 158.45,135.13 157.83,133.59 157.22,132.03 C 156.91,131.26 156.64,130.45 156.31,129.69 C 156.01,128.98 155.22,128.66 154.5,128.94 C 154.31,129.01 154.13,129.08 153.94,129.16 C 153.74,129.23 153.49,129.19 153.38,129.0 C 153.24,128.77 153.35,128.63 153.47,128.44 C 153.57,128.27 153.67,128.09 153.75,127.91 C 154.09,127.13 154.17,126.27 154.0,125.44 C 153.65,123.78 152.3,122.51 150.63,122.25 C 150.42,122.22 150.21,122.19 150.0,122.19 z M 150.0,124.31 C 151.08,124.31 151.94,125.2 151.94,126.28 C 151.94,127.36 151.08,128.22 150.0,128.22 C 148.92,128.22 148.06,127.36 148.06,126.28 C 148.06,125.2 148.92,124.31 150.0,124.31 z" />

		<!-- Text -->
		<text id="txtTwo" dy="2.8" transform="matrix(1 0 0 1 150 150)" style="stroke:none;fill:#f00;font-family:'Eras Medium ITC';font-size:10px;text-anchor:middle" >

		</text>
		<!-- Prism Reference -->
		<cam mingh:cam="--verb EditSelectAll --verb ZoomSelection --verb FileSave "/> 
	 </g>

</svg>