<svg
   xmlns:xlink="http://www.w3.org/1999/xlink"
   xmlns:svg="http://www.w3.org/2000/svg"
   xmlns="http://www.w3.org/2000/svg"
   xmlns:mingh="http://www.minghworld.com"
   width="300px"
   height="300px" >
    
	 <g>
		<!-- Paths -->
		<path id="shape" transform="matrix(-1 0 0 1 300 0)" style="fill:#ff0;stroke:none;"
			d="M 147.69,129.41 C 146.59,129.32 145.47,129.68 144.59,130.5 C 143.8,131.25 143.34,132.29 143.31,133.38 C 143.3,133.95 143.38,134.47 143.59,135.0 C 143.69,135.24 143.83,135.47 143.97,135.69 C 144.04,135.8 144.1,135.91 144.06,136.06 C 144.03,136.2 143.95,136.32 143.81,136.34 C 143.67,136.37 143.54,136.31 143.41,136.28 C 143.28,136.25 143.13,136.22 143.0,136.19 C 142.74,136.13 142.48,136.05 142.22,136.0 C 141.7,135.9 141.18,135.83 140.66,135.78 C 140.14,135.73 139.64,135.73 139.13,135.72 C 139.09,135.72 139.06,135.72 139.03,135.72 C 139.01,135.72 139.03,135.74 139.03,135.75 L 139.0,135.81 C 138.98,135.9 138.98,135.98 138.97,136.06 C 138.94,136.23 138.9,136.43 138.88,136.59 C 138.82,136.93 138.76,137.26 138.72,137.59 C 138.56,138.96 138.54,140.32 138.63,141.69 C 138.63,141.77 138.62,141.85 138.63,141.94 C 138.63,141.98 138.65,142.02 138.66,142.06 C 138.66,142.08 138.65,142.1 138.66,142.13 C 138.66,142.14 138.63,142.13 138.63,142.13 C 138.62,142.12 138.6,142.1 138.59,142.09 C 138.47,142.04 138.37,141.99 138.25,141.94 C 138.0,141.83 137.75,141.72 137.5,141.63 C 137.0,141.43 136.49,141.24 135.97,141.09 C 134.92,140.79 133.84,140.6 132.75,140.5 C 132.21,140.45 131.67,140.41 131.13,140.41 C 130.86,140.41 130.61,140.42 130.34,140.44 C 130.31,140.44 130.25,140.44 130.22,140.44 C 130.2,140.44 130.16,140.44 130.16,140.47 C 130.14,140.55 130.11,140.63 130.09,140.72 C 130.07,140.89 130.05,141.05 130.03,141.22 C 129.87,142.62 129.86,144.0 129.97,145.41 C 130.02,146.1 130.13,146.78 130.25,147.47 C 130.26,147.51 130.24,147.55 130.25,147.59 C 130.25,147.61 130.28,147.67 130.25,147.66 C 130.23,147.65 130.23,147.63 130.22,147.63 C 130.15,147.6 130.1,147.59 130.03,147.56 C 129.9,147.52 129.76,147.48 129.63,147.44 C 129.36,147.35 129.11,147.26 128.84,147.19 C 127.76,146.89 126.68,146.72 125.56,146.66 C 125.01,146.62 124.46,146.6 123.91,146.63 C 123.63,146.64 123.34,146.66 123.06,146.69 C 123.03,146.69 123.0,146.68 122.97,146.69 C 122.91,146.69 122.94,146.74 122.94,146.78 C 122.93,146.87 122.91,146.98 122.91,147.06 C 122.89,147.24 122.89,147.39 122.88,147.56 C 122.79,148.97 122.85,150.36 123.06,151.75 C 123.11,152.09 123.18,152.44 123.25,152.78 C 123.27,152.87 123.26,152.95 123.28,153.03 C 123.29,153.07 123.18,153.14 123.16,153.16 C 123.06,153.23 122.97,153.3 122.88,153.38 C 122.49,153.66 122.11,153.92 121.81,154.31 C 121.33,154.96 121.14,155.84 121.56,156.59 C 121.77,156.96 122.06,157.15 122.44,157.31 C 122.63,157.4 122.83,157.43 123.03,157.47 C 123.3,157.52 123.57,157.58 123.84,157.63 C 123.88,157.63 123.9,157.62 123.94,157.63 C 123.97,157.63 123.92,157.65 123.91,157.66 C 123.89,157.67 123.89,157.68 123.88,157.69 C 123.82,157.73 123.77,157.77 123.72,157.81 C 123.61,157.91 123.49,158.02 123.41,158.13 C 123.23,158.35 123.1,158.58 123.0,158.84 C 122.81,159.35 122.77,159.97 122.91,160.5 C 123.21,161.68 124.36,162.3 125.31,162.72 C 125.57,162.83 125.83,162.92 126.09,163.03 C 126.35,163.14 126.6,163.22 126.84,163.38 C 127.07,163.52 127.31,163.76 127.31,164.06 C 127.31,164.4 127.19,164.58 126.91,164.75 C 126.44,165.04 125.73,164.99 125.25,164.81 C 124.58,164.56 124.5,164.07 124.34,163.5 C 124.18,162.91 123.86,162.46 123.19,162.44 C 122.59,162.42 122.09,162.85 122.0,163.44 C 121.9,164.04 122.14,164.66 122.44,165.16 C 122.49,165.24 122.53,165.36 122.59,165.44 C 122.57,165.43 122.54,165.44 122.53,165.44 C 122.5,165.43 122.44,165.41 122.41,165.41 C 122.27,165.38 122.14,165.37 122.0,165.38 C 121.69,165.4 121.49,165.48 121.28,165.72 C 121.08,165.96 121.0,166.2 121.0,166.5 C 121.0,166.78 121.0,167.06 121.03,167.34 C 121.07,167.66 121.18,167.87 121.44,168.06 C 121.68,168.24 121.94,168.27 122.22,168.31 C 123.35,168.5 124.49,168.68 125.63,168.84 C 134.68,170.14 143.67,170.7 152.81,170.56 C 157.37,170.49 161.93,170.24 166.47,169.81 C 168.74,169.6 170.99,169.34 173.25,169.03 C 174.38,168.88 175.53,168.74 176.66,168.56 C 176.94,168.52 177.22,168.45 177.5,168.41 C 177.78,168.36 178.02,168.33 178.25,168.13 C 178.49,167.91 178.61,167.69 178.63,167.38 C 178.64,167.1 178.63,166.81 178.63,166.53 C 178.63,165.98 178.2,165.55 177.66,165.5 C 177.06,165.57 176.36,165.64 175.72,165.75 C 175.71,165.75 175.69,165.77 175.69,165.75 C 175.69,165.73 175.69,165.7 175.69,165.69 C 175.69,165.65 175.69,165.63 175.69,165.59 C 175.58,164.71 175.43,163.77 175.28,162.78 L 175.28,162.69 C 175.27,162.63 175.29,162.57 175.31,162.53 C 175.87,161.33 176.55,159.92 177.16,158.59 C 177.26,158.35 177.35,158.12 177.34,157.84 C 177.34,157.78 177.32,157.69 177.31,157.63 C 177.31,157.59 177.29,157.56 177.28,157.53 C 177.28,157.52 177.29,157.52 177.28,157.5 C 177.27,157.47 177.3,157.47 177.31,157.47 C 177.42,157.45 177.52,157.43 177.63,157.41 C 177.8,157.36 177.97,157.31 178.13,157.22 C 178.78,156.83 179.09,156.12 178.97,155.38 C 178.82,154.42 178.16,153.89 177.47,153.38 C 177.38,153.31 177.28,153.25 177.19,153.19 C 177.18,153.18 177.17,153.16 177.16,153.16 C 177.14,153.14 177.15,153.11 177.16,153.09 L 177.19,153.0 C 177.19,152.94 177.18,152.88 177.19,152.81 C 177.21,152.55 177.26,152.29 177.28,152.03 C 177.33,151.51 177.37,150.99 177.41,150.47 C 177.44,149.95 177.47,149.43 177.5,148.91 C 177.5,148.87 177.42,148.91 177.41,148.91 C 177.37,148.9 177.34,148.88 177.31,148.88 C 177.25,148.87 177.19,148.85 177.13,148.84 C 177.0,148.83 176.85,148.82 176.72,148.81 C 176.46,148.79 176.23,148.79 175.97,148.78 C 174.91,148.74 173.85,148.79 172.81,148.97 C 171.67,149.16 170.6,149.49 169.53,149.94 C 169.5,149.95 169.47,149.95 169.44,149.97 C 169.42,149.98 169.42,149.99 169.41,150.0 C 169.39,150.0 169.37,150.02 169.38,150.0 C 169.38,149.93 169.37,149.85 169.38,149.78 C 169.39,149.64 169.42,149.49 169.44,149.34 C 169.47,149.06 169.5,148.78 169.53,148.5 C 169.59,147.93 169.67,147.35 169.72,146.78 C 169.77,146.21 169.8,145.66 169.84,145.09 C 169.86,144.81 169.89,144.5 169.91,144.22 C 169.91,144.08 169.93,143.96 169.94,143.81 C 169.94,143.79 169.94,143.77 169.94,143.75 C 169.94,143.73 169.97,143.69 169.94,143.69 C 169.9,143.68 169.85,143.69 169.81,143.69 C 169.74,143.68 169.69,143.66 169.63,143.66 C 168.49,143.52 167.38,143.51 166.25,143.63 C 163.93,143.87 161.69,144.66 159.72,145.91 C 158.75,146.52 157.87,147.22 157.06,148.03 C 156.97,148.13 156.88,148.24 156.78,148.34 C 156.73,148.39 156.7,148.42 156.66,148.47 C 156.63,148.49 156.59,148.54 156.56,148.56 C 156.55,148.58 156.54,148.58 156.53,148.59 C 156.52,148.61 156.51,148.65 156.5,148.63 C 156.42,148.37 156.34,148.13 156.25,147.88 C 156.06,147.36 155.86,146.84 155.63,146.34 C 154.63,144.23 153.34,142.46 151.66,140.84 C 150.81,140.03 149.92,139.33 148.94,138.69 C 148.69,138.53 148.44,138.37 148.19,138.22 C 148.06,138.15 147.92,138.1 147.88,137.94 C 147.84,137.8 147.88,137.65 148.0,137.56 C 148.12,137.47 148.24,137.47 148.38,137.44 C 148.51,137.4 148.65,137.36 148.78,137.31 C 149.05,137.21 149.29,137.09 149.53,136.94 C 151.58,135.66 152.08,132.88 150.59,130.97 C 149.86,130.02 148.79,129.49 147.69,129.41 z M 147.38,131.53 C 148.45,131.53 149.31,132.39 149.31,133.47 C 149.31,134.55 148.45,135.44 147.38,135.44 C 146.3,135.44 145.44,134.55 145.44,133.47 C 145.44,132.39 146.3,131.53 147.38,131.53 z M 174.88,157.88 C 174.89,157.87 174.92,157.85 174.91,157.88 C 174.9,157.89 174.91,157.9 174.91,157.91 C 174.9,157.93 174.88,157.95 174.88,157.97 C 174.55,158.72 174.19,159.55 173.81,160.41 C 173.79,160.45 173.77,160.49 173.75,160.53 C 173.72,160.5 173.68,160.47 173.66,160.44 C 173.09,159.74 172.54,159.09 171.91,158.31 C 172.8,158.19 173.89,158.03 174.88,157.88 z M 129.44,158.44 L 129.53,158.44 C 129.58,158.44 129.61,158.46 129.66,158.47 C 129.74,158.48 129.82,158.49 129.91,158.5 C 130.08,158.52 130.26,158.54 130.44,158.56 C 130.79,158.61 131.15,158.65 131.5,158.69 C 131.55,158.69 131.6,158.71 131.66,158.72 C 131.67,158.72 131.67,158.72 131.69,158.72 C 131.71,158.72 131.69,158.74 131.69,158.75 C 131.68,158.78 131.69,158.79 131.69,158.81 C 131.67,158.92 131.67,159.05 131.69,159.16 C 131.72,159.38 131.79,159.58 131.88,159.78 C 131.99,160.06 132.12,160.32 132.25,160.59 C 132.71,161.53 133.23,162.59 133.75,163.59 C 133.78,163.64 133.79,163.7 133.81,163.75 C 133.82,163.77 133.81,163.79 133.81,163.81 C 133.81,163.83 133.81,163.82 133.81,163.84 C 133.73,164.7 133.65,165.5 133.56,166.44 C 133.55,166.52 133.56,166.63 133.56,166.72 C 133.56,166.76 133.56,166.8 133.56,166.84 C 133.57,166.91 133.5,166.88 133.47,166.88 C 133.29,166.86 133.11,166.83 132.94,166.81 C 132.59,166.78 132.23,166.73 131.88,166.69 C 131.17,166.61 130.48,166.55 129.78,166.47 C 129.45,166.43 129.12,166.39 128.78,166.34 C 128.75,166.34 128.64,166.35 128.69,166.31 C 128.72,166.29 128.75,166.25 128.78,166.22 C 128.85,166.17 128.91,166.12 128.97,166.06 C 129.09,165.94 129.21,165.83 129.31,165.69 C 129.74,165.09 129.92,164.32 129.84,163.59 C 129.68,161.98 128.16,161.34 126.97,160.84 C 126.62,160.7 126.25,160.54 125.91,160.38 C 125.71,160.28 125.53,160.19 125.38,160.03 C 124.99,159.65 125.29,159.27 125.75,159.13 C 126.11,159.02 126.6,159.07 126.94,159.19 C 127.33,159.33 127.46,159.62 127.59,159.97 C 127.72,160.3 127.8,160.64 128.09,160.91 C 128.35,161.13 128.77,161.21 129.09,161.13 C 129.43,161.04 129.7,160.75 129.84,160.44 C 130.14,159.79 129.82,158.97 129.44,158.47 C 129.43,158.46 129.44,158.45 129.44,158.44 z M 169.53,158.59 C 169.57,158.59 169.56,158.63 169.56,158.66 C 169.57,158.76 169.56,158.87 169.59,158.97 C 169.72,159.38 169.99,159.68 170.25,160.0 C 170.79,160.67 171.35,161.31 171.91,161.97 C 172.2,162.31 172.49,162.66 172.78,163.0 C 172.81,163.04 172.81,163.09 172.81,163.13 C 172.93,164.01 173.04,164.86 173.19,165.84 C 173.2,165.92 173.22,166.02 173.25,166.09 C 173.27,166.15 173.19,166.12 173.16,166.13 C 173.12,166.13 173.07,166.12 173.03,166.13 C 171.86,166.28 170.59,166.45 169.34,166.59 C 169.33,166.6 169.31,166.62 169.31,166.59 C 169.31,166.57 169.31,166.55 169.31,166.53 C 169.31,166.49 169.29,166.45 169.28,166.41 C 169.26,166.24 169.22,166.08 169.13,165.94 C 168.93,165.64 168.62,165.49 168.28,165.47 C 168.03,165.45 167.78,165.51 167.53,165.53 C 166.48,165.64 165.27,165.74 164.09,165.84 C 164.09,165.84 164.06,165.86 164.06,165.84 C 164.02,165.28 163.96,164.6 163.94,164.0 C 164.16,163.98 164.4,163.96 164.63,163.94 C 165.22,163.89 165.81,163.84 166.41,163.78 C 166.7,163.75 166.99,163.72 167.28,163.69 C 167.43,163.67 167.58,163.65 167.72,163.59 C 168.31,163.36 168.53,162.67 168.22,162.13 C 167.85,161.46 167.12,161.63 166.56,161.69 C 166.03,161.74 165.5,161.8 164.97,161.84 C 164.7,161.87 164.45,161.88 164.19,161.91 C 164.05,161.92 163.91,161.93 163.78,161.94 C 163.73,161.94 163.75,161.87 163.75,161.84 C 163.72,161.42 163.66,160.95 163.63,160.5 C 163.62,160.48 163.63,160.47 163.66,160.47 C 163.69,160.47 163.72,160.47 163.75,160.47 C 163.81,160.46 163.88,160.44 163.94,160.44 C 164.99,160.35 166.06,160.25 167.25,160.13 C 167.65,160.08 168.04,159.94 168.22,159.53 C 168.31,159.33 168.35,159.15 168.31,158.94 C 168.3,158.89 168.3,158.83 168.28,158.78 C 168.28,158.77 168.26,158.75 168.28,158.75 L 168.31,158.75 C 168.68,158.71 169.04,158.67 169.44,158.63 C 169.46,158.62 169.51,158.6 169.53,158.59 z M 134.09,158.97 C 134.12,158.97 134.13,158.97 134.16,158.97 C 134.2,158.97 134.27,159.0 134.31,159.0 C 134.49,159.02 134.66,159.01 134.84,159.03 C 135.57,159.1 136.3,159.16 137.03,159.22 C 136.61,159.82 136.18,160.41 135.75,161.0 C 135.64,161.15 135.52,161.29 135.41,161.44 C 135.38,161.47 135.37,161.53 135.34,161.56 C 135.31,161.61 135.29,161.5 135.28,161.47 C 135.24,161.39 135.2,161.3 135.16,161.22 C 135.0,160.89 134.84,160.58 134.69,160.25 C 134.53,159.92 134.37,159.58 134.22,159.25 C 134.18,159.17 134.13,159.08 134.09,159.0 C 134.09,158.99 134.1,158.97 134.09,158.97 z M 161.19,159.38 C 161.22,159.37 161.19,159.45 161.19,159.47 C 161.18,159.49 161.16,159.5 161.16,159.53 C 161.12,159.73 161.14,159.95 161.16,160.16 C 161.3,162.29 161.44,164.47 161.59,166.72 C 161.61,166.91 161.65,167.1 161.72,167.28 C 161.29,167.31 160.84,167.35 160.41,167.38 C 160.19,167.39 159.97,167.39 159.75,167.41 C 159.64,167.41 159.55,167.43 159.44,167.44 C 159.38,167.44 159.34,167.43 159.28,167.44 C 159.26,167.44 159.21,167.48 159.22,167.44 C 159.22,167.41 159.22,167.37 159.22,167.34 C 159.25,167.09 159.23,166.85 159.22,166.59 C 159.11,164.58 158.99,162.47 158.88,160.34 C 158.86,160.08 158.87,159.82 158.81,159.56 C 158.81,159.55 158.82,159.54 158.81,159.53 C 158.81,159.51 158.83,159.53 158.84,159.53 C 158.87,159.53 158.88,159.53 158.91,159.53 C 158.96,159.53 159.04,159.53 159.09,159.53 C 159.2,159.53 159.3,159.51 159.41,159.5 C 159.62,159.49 159.85,159.48 160.06,159.47 C 160.28,159.46 160.47,159.42 160.69,159.41 C 160.8,159.4 160.92,159.41 161.03,159.41 C 161.09,159.4 161.13,159.38 161.19,159.38 z M 139.38,159.41 C 139.79,159.43 140.18,159.44 140.59,159.47 C 140.7,159.47 140.8,159.49 140.91,159.5 C 140.93,159.5 140.97,159.5 141.0,159.5 L 141.03,159.5 C 141.05,159.5 141.04,159.52 141.03,159.53 C 141.01,159.58 140.98,159.64 140.97,159.69 C 140.72,161.83 140.73,164.08 140.56,166.38 C 140.55,166.66 140.5,166.96 140.53,167.25 C 140.54,167.3 140.55,167.35 140.56,167.41 C 140.57,167.43 140.54,167.41 140.53,167.41 C 140.52,167.41 140.51,167.41 140.5,167.41 C 140.47,167.4 140.43,167.41 140.41,167.41 C 140.3,167.4 140.2,167.38 140.09,167.38 C 139.65,167.35 139.19,167.34 138.75,167.31 C 138.27,167.28 137.82,167.22 137.34,167.19 C 137.11,167.17 136.86,167.18 136.63,167.16 C 136.51,167.15 136.4,167.13 136.28,167.13 C 136.22,167.12 136.15,167.1 136.09,167.09 C 136.08,167.09 136.05,167.09 136.03,167.09 C 136.01,167.09 136.03,167.07 136.03,167.06 C 136.04,167.03 136.06,167.0 136.06,166.97 C 136.17,166.03 136.23,165.13 136.31,164.13 L 136.31,164.0 C 136.32,163.94 136.37,163.92 136.41,163.88 C 136.48,163.78 136.55,163.69 136.63,163.59 C 136.77,163.4 136.94,163.19 137.09,163.0 C 137.39,162.61 137.67,162.23 137.97,161.84 C 138.34,161.35 138.72,160.86 139.06,160.34 C 139.26,160.05 139.4,159.78 139.38,159.41 z M 156.5,159.63 C 156.52,159.62 156.57,159.63 156.56,159.66 C 156.56,159.67 156.53,159.7 156.53,159.72 C 156.55,161.03 156.63,162.73 156.69,164.16 C 155.74,162.8 154.69,161.3 153.69,159.78 C 153.68,159.77 153.66,159.76 153.66,159.75 C 153.65,159.74 153.63,159.72 153.66,159.72 C 154.08,159.71 154.49,159.7 154.91,159.69 C 155.44,159.67 155.97,159.65 156.5,159.63 z M 147.44,159.75 C 147.45,159.75 147.48,159.75 147.5,159.75 C 148.63,159.77 149.82,159.76 151.0,159.75 C 151.01,159.75 150.99,159.78 151.0,159.78 C 150.99,159.83 150.98,159.89 150.97,159.94 C 150.95,160.05 150.94,160.14 150.94,160.25 C 150.93,162.31 150.96,164.47 150.97,166.66 C 150.97,167.0 150.94,167.34 151.0,167.69 C 149.89,167.69 148.58,167.68 147.38,167.66 C 147.57,167.47 147.79,167.3 147.97,167.06 C 148.3,166.66 148.52,166.25 148.69,165.75 C 148.98,164.86 149.05,163.67 148.94,162.75 C 148.82,161.75 148.46,160.81 147.75,160.06 C 147.66,159.97 147.56,159.89 147.47,159.81 C 147.45,159.8 147.46,159.77 147.44,159.75 z M 143.31,160.94 C 143.92,160.96 144.56,160.98 145.16,161.13 C 145.8,161.24 146.23,161.83 146.34,162.44 C 146.49,163.27 146.47,164.18 146.25,165.0 C 146.08,165.61 145.65,166.23 144.97,166.31 C 144.35,166.34 143.71,166.31 143.09,166.28 C 143.17,164.5 143.24,162.72 143.31,160.94 z M 153.34,163.31 C 153.63,163.72 154.12,164.47 154.5,165.03 C 154.78,165.44 155.98,167.17 156.28,167.56 C 155.39,167.59 154.34,167.64 153.41,167.63 C 153.42,167.56 153.4,167.5 153.41,167.44 C 153.39,166.11 153.37,164.8 153.34,163.31 z" />

		<!-- Text -->
		<text id="txtTwo" dy="2.8" transform="matrix(1 0 0 1 150 150)" style="stroke:none;fill:#f00;font-family:'Eras Medium ITC';font-size:10px;text-anchor:middle" >

		</text>
		<!-- Prism Reference -->
		<cam mingh:cam="--verb EditSelectAll --verb ZoomSelection --verb FileSave "/> 
	 </g>

</svg>