<svg
   xmlns:xlink="http://www.w3.org/1999/xlink"
   xmlns:svg="http://www.w3.org/2000/svg"
   xmlns="http://www.w3.org/2000/svg"
   xmlns:mingh="http://www.minghworld.com"
   width="300px"
   height="300px" >
    
	 <g>
		<!-- Paths -->
		<path id="shape" transform="matrix(-1 0 0 1 300 0)" style="fill:#ff0;stroke:none;"
			d="M 161.13,124.69 C 159.53,124.6 158.02,125.45 157.28,126.91 C 156.86,127.74 156.71,128.68 156.91,129.59 C 157.0,130.04 157.17,130.45 157.41,130.84 C 157.43,130.89 157.53,131.06 157.53,131.13 C 157.53,131.26 157.43,131.31 157.31,131.28 C 157.09,131.23 156.88,131.17 156.66,131.13 C 153.59,130.45 149.04,130.0 145.94,129.66 C 142.34,129.26 138.78,128.85 135.16,128.81 C 133.38,128.79 131.61,128.87 129.84,129.09 C 129.04,129.2 128.01,129.38 127.25,129.72 C 126.37,130.12 125.83,130.79 125.59,131.72 C 125.36,132.66 125.6,133.68 126.06,134.5 C 126.56,135.38 127.23,135.89 128.09,136.34 C 129.52,137.11 131.56,137.55 133.09,137.91 C 136.51,138.71 139.96,139.4 143.41,140.06 C 145.26,140.42 147.1,140.76 148.94,141.19 C 150.73,141.6 152.44,142.08 154.09,142.94 C 155.74,143.79 157.06,144.86 158.19,146.34 C 159.29,147.81 160.02,149.38 160.63,151.09 C 161.43,153.39 162.93,159.25 163.56,161.59 C 164.14,163.71 165.73,169.49 166.59,171.53 C 167.33,173.28 168.43,174.96 170.56,175.28 C 171.5,175.42 172.45,175.19 173.19,174.56 C 173.93,173.93 174.17,173.03 174.31,172.16 C 174.56,170.65 174.52,168.28 174.44,166.78 C 174.34,164.98 174.16,163.19 173.91,161.41 C 173.55,158.89 172.5,153.21 172.03,150.72 C 171.42,147.47 170.64,143.41 169.09,140.38 C 168.26,138.73 167.24,137.28 165.94,135.97 C 165.3,135.33 164.61,134.75 163.88,134.22 C 163.51,133.96 163.14,133.7 162.75,133.47 C 162.56,133.35 162.35,133.27 162.16,133.16 C 162.11,133.13 161.91,133.02 161.88,132.97 C 161.81,132.87 161.85,132.72 161.97,132.69 C 163.77,132.2 165.0,130.55 164.97,128.69 C 164.93,126.82 163.63,125.2 161.81,124.78 C 161.58,124.73 161.35,124.7 161.13,124.69 z M 160.84,126.81 C 161.92,126.78 162.81,127.61 162.84,128.69 C 162.88,129.76 162.04,130.68 160.97,130.72 C 159.89,130.75 158.97,129.89 158.94,128.81 C 158.9,127.74 159.77,126.85 160.84,126.81 z" />

		<!-- Text -->
		<text id="txtTwo" dy="2.8" transform="matrix(1 0 0 1 150 150)" style="stroke:none;fill:#f00;font-family:'Eras Medium ITC';font-size:10px;text-anchor:middle" >

		</text>
		<!-- Prism Reference -->
		<cam mingh:cam=" --verb EditSelectAll --verb ZoomSelection --verb FileSave "/> 
	 </g>

</svg>