<svg
   xmlns:xlink="http://www.w3.org/1999/xlink"
   xmlns:svg="http://www.w3.org/2000/svg"
   xmlns="http://www.w3.org/2000/svg"
   xmlns:mingh="http://www.minghworld.com"
   width="300px"
   height="300px" >
   
	 <g>	
		<!-- Shape -->
		<path id="shape" style="fill:none;stroke:#000;stroke-width:0.25px;"
			d="M 161.13,124.69 C 159.53,124.6 158.02,125.45 157.28,126.91 C 156.86,127.74 156.71,128.68 156.91,129.59 C 157.0,130.04 157.17,130.45 157.41,130.84 C 157.43,130.89 157.53,131.06 157.53,131.13 C 157.53,131.26 157.43,131.31 157.31,131.28 C 157.09,131.23 156.88,131.17 156.66,131.13 C 153.59,130.45 149.04,130.0 145.94,129.66 C 142.34,129.26 138.78,128.85 135.16,128.81 C 133.38,128.79 131.61,128.87 129.84,129.09 C 129.04,129.2 128.01,129.38 127.25,129.72 C 126.37,130.12 125.83,130.79 125.59,131.72 C 125.36,132.66 125.6,133.68 126.06,134.5 C 126.56,135.38 127.23,135.89 128.09,136.34 C 129.52,137.11 131.56,137.55 133.09,137.91 C 136.51,138.71 139.96,139.4 143.41,140.06 C 145.26,140.42 147.1,140.76 148.94,141.19 C 150.73,141.6 152.44,142.08 154.09,142.94 C 155.74,143.79 157.06,144.86 158.19,146.34 C 159.29,147.81 160.02,149.38 160.63,151.09 C 161.43,153.39 162.93,159.25 163.56,161.59 C 164.14,163.71 165.73,169.49 166.59,171.53 C 167.33,173.28 168.43,174.96 170.56,175.28 C 171.5,175.42 172.45,175.19 173.19,174.56 C 173.93,173.93 174.17,173.03 174.31,172.16 C 174.56,170.65 174.52,168.28 174.44,166.78 C 174.34,164.98 174.16,163.19 173.91,161.41 C 173.55,158.89 172.5,153.21 172.03,150.72 C 171.42,147.47 170.64,143.41 169.09,140.38 C 168.26,138.73 167.24,137.28 165.94,135.97 C 165.3,135.33 164.61,134.75 163.88,134.22 C 163.51,133.96 163.14,133.7 162.75,133.47 C 162.56,133.35 162.35,133.27 162.16,133.16 C 162.11,133.13 161.91,133.02 161.88,132.97 C 161.81,132.87 161.85,132.72 161.97,132.69 C 163.77,132.2 165.0,130.55 164.97,128.69 C 164.93,126.82 163.63,125.2 161.81,124.78 C 161.58,124.73 161.35,124.7 161.13,124.69 z M 160.84,126.81 C 161.92,126.78 162.81,127.61 162.84,128.69 C 162.88,129.76 162.04,130.68 160.97,130.72 C 159.89,130.75 158.97,129.89 158.94,128.81 C 158.9,127.74 159.77,126.85 160.84,126.81 z" />
			
		<path id="shape" style="fill:#f00;stroke:none;"
			d="M 137.78,132.92 C 137.73,132.81 137.57,132.81 137.51,132.92 C 137.45,133.03 137.58,133.17 137.62,133.24 C 137.72,133.49 137.72,133.8 137.61,134.04 C 137.38,134.59 136.78,134.58 136.54,134.04 C 136.42,133.77 136.41,133.55 136.51,133.28 C 136.53,133.21 136.65,133.05 136.61,132.95 C 136.56,132.85 136.43,132.83 136.35,132.92 C 136.32,132.97 136.3,133.03 136.27,133.08 C 136.23,133.13 136.19,133.18 136.14,133.22 C 136.05,133.31 135.95,133.38 135.83,133.44 C 135.61,133.53 135.33,133.57 135.1,133.44 C 134.9,133.32 134.82,133.1 134.87,132.87 C 134.93,132.61 135.13,132.4 135.36,132.28 C 135.49,132.21 135.62,132.17 135.76,132.16 C 135.88,132.15 136.02,132.18 136.01,132.01 C 136.01,131.83 135.87,131.87 135.75,131.87 C 135.62,131.86 135.5,131.83 135.37,131.78 C 134.96,131.59 134.56,131.01 134.99,130.66 C 135.4,130.32 136.08,130.63 136.29,131.05 C 136.35,131.16 136.5,131.16 136.56,131.05 C 136.62,130.94 136.49,130.8 136.46,130.73 C 136.35,130.48 136.35,130.17 136.46,129.93 C 136.7,129.37 137.3,129.39 137.54,129.93 C 137.65,130.2 137.66,130.42 137.56,130.69 C 137.54,130.76 137.42,130.92 137.46,131.02 C 137.51,131.12 137.65,131.14 137.72,131.05 C 137.76,131.0 137.77,130.94 137.81,130.89 C 137.84,130.84 137.88,130.79 137.93,130.75 C 138.02,130.66 138.12,130.59 138.24,130.53 C 138.46,130.44 138.75,130.4 138.97,130.53 C 139.18,130.65 139.25,130.87 139.2,131.1 C 139.14,131.36 138.94,131.57 138.72,131.69 C 138.59,131.76 138.46,131.8 138.31,131.81 C 138.19,131.82 138.05,131.79 138.06,131.96 C 138.07,132.14 138.2,132.1 138.32,132.1 C 138.45,132.11 138.58,132.14 138.7,132.19 C 139.12,132.38 139.51,132.96 139.08,133.31 C 138.67,133.65 138.0,133.34 137.78,132.92 z M 145.73,137.84 C 145.69,137.73 145.54,137.7 145.47,137.8 C 145.39,137.9 145.5,138.06 145.52,138.14 C 145.59,138.4 145.55,138.7 145.41,138.93 C 145.09,139.44 144.5,139.34 144.34,138.77 C 144.27,138.49 144.29,138.27 144.42,138.02 C 144.46,137.95 144.6,137.81 144.57,137.71 C 144.54,137.6 144.4,137.56 144.32,137.64 C 144.28,137.68 144.25,137.74 144.21,137.78 C 144.17,137.83 144.12,137.87 144.07,137.91 C 143.97,137.99 143.86,138.04 143.73,138.07 C 143.5,138.14 143.21,138.13 143.01,137.97 C 142.82,137.82 142.78,137.59 142.86,137.38 C 142.96,137.13 143.19,136.95 143.43,136.86 C 143.56,136.81 143.7,136.79 143.84,136.8 C 143.96,136.81 144.1,136.86 144.11,136.69 C 144.13,136.52 143.99,136.53 143.88,136.51 C 143.74,136.49 143.63,136.44 143.51,136.37 C 143.13,136.13 142.82,135.49 143.3,135.21 C 143.75,134.93 144.38,135.33 144.53,135.78 C 144.57,135.89 144.72,135.92 144.79,135.82 C 144.87,135.72 144.76,135.56 144.74,135.48 C 144.67,135.22 144.71,134.92 144.85,134.69 C 145.17,134.18 145.76,134.28 145.92,134.85 C 146.0,135.13 145.97,135.35 145.84,135.61 C 145.8,135.67 145.66,135.81 145.69,135.91 C 145.72,136.02 145.86,136.06 145.94,135.98 C 145.98,135.94 146.01,135.88 146.05,135.84 C 146.09,135.79 146.14,135.75 146.19,135.71 C 146.29,135.64 146.41,135.58 146.53,135.55 C 146.76,135.48 147.05,135.49 147.25,135.65 C 147.44,135.8 147.48,136.03 147.4,136.24 C 147.3,136.49 147.07,136.67 146.83,136.76 C 146.7,136.81 146.56,136.83 146.42,136.82 C 146.3,136.81 146.17,136.76 146.15,136.94 C 146.13,137.11 146.27,137.09 146.38,137.11 C 146.52,137.13 146.63,137.18 146.75,137.25 C 147.13,137.49 147.44,138.13 146.96,138.42 C 146.51,138.69 145.89,138.29 145.73,137.84 z M 154.33,135.56 C 154.3,135.43 154.14,135.37 154.04,135.47 C 153.94,135.57 154.03,135.76 154.04,135.86 C 154.07,136.16 153.96,136.49 153.76,136.72 C 153.32,137.23 152.68,137.01 152.6,136.34 C 152.57,136.02 152.64,135.77 152.84,135.51 C 152.89,135.45 153.07,135.32 153.06,135.2 C 153.04,135.07 152.9,135.0 152.79,135.08 C 152.73,135.11 152.7,135.17 152.64,135.21 C 152.59,135.26 152.53,135.29 152.46,135.33 C 152.33,135.39 152.2,135.43 152.05,135.45 C 151.78,135.48 151.47,135.42 151.27,135.2 C 151.09,135.0 151.08,134.74 151.21,134.51 C 151.37,134.25 151.66,134.09 151.94,134.04 C 152.1,134.01 152.25,134.01 152.42,134.05 C 152.55,134.09 152.69,134.16 152.74,133.97 C 152.79,133.79 152.63,133.78 152.51,133.73 C 152.36,133.68 152.24,133.61 152.13,133.51 C 151.74,133.17 151.52,132.4 152.1,132.17 C 152.65,131.95 153.28,132.51 153.37,133.04 C 153.39,133.17 153.55,133.23 153.65,133.14 C 153.76,133.04 153.66,132.84 153.66,132.75 C 153.63,132.44 153.73,132.12 153.93,131.89 C 154.38,131.38 155.02,131.6 155.09,132.27 C 155.12,132.59 155.06,132.83 154.86,133.09 C 154.81,133.16 154.63,133.28 154.64,133.41 C 154.65,133.53 154.8,133.6 154.9,133.53 C 154.96,133.49 155.0,133.43 155.05,133.39 C 155.11,133.35 155.17,133.31 155.23,133.28 C 155.36,133.21 155.5,133.17 155.64,133.16 C 155.91,133.13 156.23,133.19 156.43,133.4 C 156.61,133.6 156.61,133.87 156.48,134.09 C 156.33,134.35 156.04,134.51 155.76,134.56 C 155.59,134.59 155.44,134.59 155.28,134.55 C 155.15,134.52 155.01,134.44 154.96,134.63 C 154.9,134.82 155.06,134.83 155.19,134.87 C 155.33,134.92 155.45,134.99 155.57,135.09 C 155.95,135.44 156.18,136.2 155.59,136.43 C 155.04,136.65 154.41,136.09 154.33,135.56 z M 166.31,146.75 C 166.45,146.76 166.52,146.92 166.43,147.03 C 166.34,147.14 166.14,147.06 166.04,147.06 C 165.74,147.05 165.42,147.18 165.2,147.39 C 164.72,147.87 164.99,148.5 165.66,148.52 C 165.99,148.53 166.22,148.45 166.47,148.23 C 166.53,148.18 166.65,147.99 166.77,147.99 C 166.89,148.0 166.97,148.14 166.91,148.25 C 166.87,148.31 166.82,148.35 166.78,148.41 C 166.74,148.47 166.71,148.53 166.68,148.59 C 166.62,148.73 166.59,148.87 166.59,149.01 C 166.58,149.28 166.66,149.6 166.89,149.78 C 167.1,149.94 167.36,149.93 167.58,149.78 C 167.83,149.61 167.97,149.31 168.0,149.03 C 168.02,148.86 168.0,148.71 167.95,148.55 C 167.91,148.42 167.83,148.29 168.01,148.23 C 168.19,148.16 168.22,148.32 168.27,148.44 C 168.33,148.58 168.41,148.69 168.52,148.8 C 168.88,149.16 169.66,149.34 169.85,148.73 C 170.03,148.17 169.43,147.58 168.9,147.53 C 168.76,147.52 168.7,147.36 168.78,147.26 C 168.88,147.14 169.07,147.22 169.17,147.23 C 169.48,147.23 169.79,147.11 170.01,146.89 C 170.49,146.41 170.22,145.79 169.55,145.76 C 169.23,145.75 168.99,145.83 168.75,146.05 C 168.68,146.1 168.57,146.29 168.45,146.29 C 168.32,146.28 168.24,146.15 168.31,146.04 C 168.34,145.98 168.39,145.93 168.43,145.88 C 168.47,145.82 168.51,145.76 168.53,145.69 C 168.59,145.55 168.62,145.42 168.63,145.27 C 168.64,145.0 168.56,144.69 168.33,144.51 C 168.11,144.34 167.85,144.35 167.63,144.5 C 167.39,144.67 167.25,144.97 167.22,145.26 C 167.2,145.42 167.21,145.57 167.26,145.73 C 167.3,145.86 167.39,145.99 167.2,146.06 C 167.02,146.12 167.0,145.97 166.95,145.84 C 166.89,145.7 166.81,145.59 166.7,145.48 C 166.33,145.12 165.55,144.95 165.36,145.55 C 165.18,146.11 165.78,146.7 166.31,146.75 z M 164.64,155.48 C 164.75,155.51 164.79,155.66 164.7,155.74 C 164.6,155.82 164.44,155.72 164.35,155.71 C 164.09,155.66 163.79,155.72 163.57,155.88 C 163.08,156.23 163.22,156.81 163.81,156.93 C 164.09,156.99 164.31,156.95 164.55,156.8 C 164.62,156.76 164.74,156.61 164.85,156.63 C 164.96,156.66 165.01,156.79 164.93,156.87 C 164.9,156.92 164.84,156.95 164.8,157.0 C 164.76,157.04 164.72,157.09 164.69,157.14 C 164.62,157.25 164.57,157.37 164.54,157.5 C 164.49,157.73 164.52,158.01 164.69,158.21 C 164.86,158.38 165.09,158.41 165.3,158.31 C 165.54,158.2 165.7,157.96 165.77,157.71 C 165.81,157.57 165.82,157.44 165.8,157.29 C 165.78,157.17 165.73,157.05 165.9,157.02 C 166.07,156.99 166.07,157.12 166.09,157.24 C 166.12,157.37 166.18,157.48 166.26,157.59 C 166.53,157.96 167.18,158.23 167.44,157.73 C 167.67,157.26 167.23,156.66 166.78,156.54 C 166.66,156.51 166.63,156.36 166.72,156.28 C 166.81,156.2 166.98,156.3 167.06,156.31 C 167.32,156.36 167.62,156.3 167.84,156.14 C 168.33,155.79 168.19,155.21 167.61,155.09 C 167.33,155.03 167.1,155.07 166.86,155.22 C 166.8,155.26 166.67,155.41 166.56,155.39 C 166.45,155.37 166.41,155.23 166.48,155.15 C 166.52,155.1 166.57,155.07 166.61,155.03 C 166.66,154.98 166.69,154.93 166.73,154.88 C 166.8,154.77 166.84,154.65 166.87,154.53 C 166.92,154.29 166.89,154.01 166.72,153.82 C 166.56,153.64 166.33,153.61 166.12,153.71 C 165.88,153.82 165.71,154.06 165.64,154.31 C 165.6,154.45 165.59,154.58 165.61,154.73 C 165.63,154.85 165.68,154.98 165.51,155.01 C 165.34,155.04 165.35,154.9 165.32,154.78 C 165.29,154.65 165.23,154.54 165.15,154.43 C 164.89,154.06 164.23,153.8 163.98,154.29 C 163.74,154.76 164.18,155.36 164.64,155.48 z M 170.1,163.07 C 170.21,163.12 170.22,163.27 170.12,163.34 C 170.01,163.41 169.87,163.29 169.78,163.26 C 169.53,163.17 169.23,163.19 168.99,163.32 C 168.45,163.59 168.51,164.19 169.07,164.39 C 169.34,164.49 169.56,164.48 169.83,164.37 C 169.9,164.34 170.04,164.21 170.14,164.24 C 170.25,164.28 170.28,164.42 170.19,164.5 C 170.15,164.54 170.09,164.56 170.04,164.6 C 169.99,164.64 169.95,164.68 169.91,164.73 C 169.82,164.83 169.76,164.93 169.72,165.06 C 169.63,165.28 169.62,165.57 169.77,165.78 C 169.9,165.98 170.12,166.04 170.35,165.97 C 170.6,165.9 170.8,165.68 170.9,165.45 C 170.96,165.31 170.99,165.18 170.99,165.04 C 170.99,164.91 170.96,164.78 171.13,164.77 C 171.3,164.77 171.28,164.91 171.29,165.02 C 171.3,165.16 171.34,165.28 171.4,165.4 C 171.61,165.8 172.22,166.15 172.55,165.7 C 172.85,165.27 172.5,164.61 172.06,164.43 C 171.95,164.38 171.94,164.23 172.04,164.16 C 172.15,164.1 172.3,164.22 172.38,164.24 C 172.63,164.33 172.93,164.31 173.17,164.19 C 173.71,163.91 173.65,163.31 173.09,163.11 C 172.82,163.01 172.6,163.02 172.33,163.14 C 172.27,163.17 172.12,163.3 172.02,163.26 C 171.91,163.22 171.88,163.08 171.97,163.01 C 172.01,162.97 172.07,162.94 172.12,162.91 C 172.17,162.87 172.21,162.82 172.25,162.78 C 172.34,162.68 172.4,162.57 172.44,162.45 C 172.53,162.22 172.54,161.94 172.39,161.72 C 172.26,161.53 172.04,161.47 171.81,161.53 C 171.56,161.61 171.36,161.83 171.26,162.06 C 171.2,162.19 171.17,162.32 171.17,162.47 C 171.17,162.59 171.2,162.72 171.03,162.73 C 170.86,162.73 170.88,162.6 170.87,162.48 C 170.86,162.35 170.82,162.23 170.76,162.11 C 170.55,161.7 169.94,161.35 169.61,161.8 C 169.31,162.23 169.66,162.89 170.1,163.07 z M 164.29,136.9 C 163.83,136.88 163.51,136.98 163.2,137.34 C 163.07,137.5 162.97,137.67 162.88,137.86 C 162.84,137.95 162.81,138.05 162.78,138.15 C 162.77,138.16 162.74,138.21 162.77,138.22 C 162.79,138.23 162.81,138.24 162.83,138.26 C 162.87,138.28 162.91,138.31 162.95,138.34 C 162.98,138.38 163.01,138.41 163.04,138.45 C 163.06,138.47 163.07,138.49 163.08,138.51 C 163.09,138.54 163.14,138.5 163.15,138.5 C 163.25,138.46 163.35,138.42 163.44,138.37 C 163.62,138.28 163.78,138.16 163.93,138.02 C 164.27,137.69 164.35,137.36 164.29,136.9 z M 164.98,136.17 C 165.02,136.64 165.21,137.07 165.06,137.57 C 164.93,138.03 164.57,138.42 164.11,138.56 C 163.88,138.62 163.65,138.64 163.41,138.64 C 163.35,138.64 163.3,138.64 163.24,138.65 C 163.21,138.65 163.18,138.65 163.15,138.65 C 163.12,138.65 163.15,138.67 163.15,138.68 C 163.15,138.7 163.16,138.71 163.16,138.73 C 163.18,138.85 163.18,138.96 163.14,139.08 C 162.97,139.58 162.36,139.74 161.98,139.38 C 161.6,139.03 161.71,138.4 162.19,138.2 C 162.31,138.16 162.42,138.14 162.55,138.16 C 162.57,138.16 162.58,138.16 162.6,138.16 C 162.61,138.17 162.63,138.19 162.63,138.16 C 162.63,138.13 162.63,138.11 162.63,138.08 C 162.62,138.02 162.62,137.96 162.62,137.9 C 162.6,137.66 162.6,137.43 162.65,137.2 C 162.76,136.72 163.12,136.35 163.57,136.18 C 164.06,136.0 164.51,136.16 164.98,136.17 z M 158.1,143.53 C 158.57,143.56 158.88,143.46 159.19,143.1 C 159.33,142.94 159.43,142.77 159.51,142.58 C 159.55,142.49 159.59,142.39 159.62,142.29 C 159.62,142.28 159.65,142.23 159.63,142.22 C 159.61,142.21 159.58,142.19 159.56,142.18 C 159.52,142.16 159.48,142.13 159.45,142.09 C 159.41,142.06 159.38,142.03 159.35,141.99 C 159.34,141.96 159.32,141.94 159.31,141.92 C 159.3,141.9 159.25,141.93 159.24,141.94 C 159.14,141.97 159.05,142.01 158.96,142.06 C 158.77,142.16 158.61,142.27 158.46,142.42 C 158.12,142.75 158.04,143.07 158.1,143.53 z M 157.42,144.27 C 157.37,143.8 157.19,143.36 157.33,142.86 C 157.47,142.41 157.82,142.02 158.28,141.88 C 158.51,141.81 158.74,141.8 158.98,141.79 C 159.04,141.79 159.1,141.79 159.16,141.79 C 159.19,141.79 159.22,141.79 159.25,141.79 C 159.27,141.79 159.25,141.77 159.24,141.76 C 159.24,141.74 159.24,141.73 159.23,141.71 C 159.21,141.59 159.22,141.47 159.26,141.35 C 159.42,140.86 160.04,140.7 160.42,141.06 C 160.8,141.41 160.68,142.04 160.2,142.23 C 160.08,142.28 159.97,142.3 159.84,142.28 C 159.83,142.28 159.81,142.28 159.8,142.27 C 159.79,142.27 159.76,142.25 159.76,142.27 C 159.76,142.3 159.77,142.33 159.77,142.36 C 159.77,142.42 159.78,142.48 159.78,142.54 C 159.79,142.77 159.79,143.0 159.74,143.24 C 159.64,143.71 159.27,144.09 158.83,144.25 C 158.34,144.44 157.89,144.28 157.42,144.27 z M 160.8,139.22 C 160.81,138.92 160.83,138.62 160.88,138.32 C 160.99,137.63 161.25,136.96 161.32,136.25 C 161.37,135.75 161.33,135.23 161.18,134.74 C 161.16,134.78 161.14,134.81 161.13,134.85 C 160.85,135.4 160.59,135.91 160.46,136.47 C 160.24,137.36 160.35,138.4 160.8,139.22 z M 162.22,140.54 C 163.07,140.94 164.11,140.97 164.98,140.7 C 165.54,140.53 166.02,140.23 166.56,139.92 C 166.59,139.9 166.63,139.88 166.67,139.86 C 166.17,139.74 165.64,139.74 165.14,139.82 C 164.45,139.94 163.8,140.24 163.11,140.4 C 162.82,140.47 162.52,140.52 162.22,140.54 z M 161.59,141.21 C 161.59,141.52 161.56,141.82 161.52,142.12 C 161.4,142.81 161.15,143.48 161.07,144.18 C 161.02,144.69 161.07,145.21 161.21,145.7 C 161.23,145.66 161.25,145.62 161.27,145.59 C 161.54,145.03 161.8,144.53 161.94,143.96 C 162.15,143.07 162.04,142.04 161.59,141.21 z M 160.18,139.89 C 159.33,139.5 158.28,139.46 157.41,139.74 C 156.86,139.91 156.37,140.21 155.84,140.52 C 155.8,140.54 155.76,140.56 155.73,140.58 C 156.23,140.69 156.75,140.7 157.25,140.61 C 157.95,140.49 158.6,140.19 159.28,140.03 C 159.57,139.96 159.87,139.92 160.18,139.89 z M 161.46,139.93 C 161.99,139.92 162.52,139.88 163.03,139.76 C 163.72,139.6 164.37,139.3 165.06,139.18 C 165.71,139.07 166.4,139.11 167.01,139.34 C 167.52,139.52 167.97,139.83 168.35,140.2 C 168.28,140.17 168.21,140.15 168.14,140.14 C 167.66,140.05 167.18,140.32 166.73,140.58 C 166.19,140.89 165.71,141.19 165.15,141.36 C 164.25,141.64 163.17,141.6 162.3,141.17 C 162.23,141.13 162.16,141.09 162.09,141.05 C 162.13,141.12 162.18,141.19 162.22,141.25 C 162.71,142.09 162.83,143.17 162.61,144.09 C 162.48,144.65 162.21,145.16 161.94,145.71 C 161.71,146.18 161.48,146.68 161.6,147.15 C 161.62,147.22 161.64,147.29 161.67,147.36 C 161.28,147.0 160.94,146.57 160.72,146.08 C 160.45,145.48 160.36,144.8 160.43,144.15 C 160.5,143.44 160.75,142.78 160.87,142.08 C 160.95,141.57 160.96,141.03 160.93,140.5 C 160.4,140.51 159.87,140.55 159.36,140.68 C 158.68,140.84 158.03,141.14 157.33,141.26 C 156.68,141.37 156.0,141.33 155.38,141.1 C 154.88,140.91 154.42,140.61 154.04,140.24 C 154.11,140.26 154.18,140.28 154.25,140.3 C 154.74,140.38 155.22,140.11 155.67,139.85 C 156.2,139.55 156.69,139.25 157.24,139.07 C 158.14,138.79 159.23,138.84 160.09,139.27 C 160.16,139.31 160.24,139.34 160.31,139.39 C 160.26,139.32 160.22,139.25 160.18,139.18 C 159.69,138.35 159.56,137.27 159.78,136.35 C 159.92,135.78 160.18,135.28 160.45,134.73 C 160.68,134.26 160.91,133.76 160.79,133.29 C 160.78,133.22 160.75,133.15 160.72,133.08 C 161.12,133.43 161.45,133.87 161.67,134.35 C 161.94,134.95 162.03,135.64 161.97,136.29 C 161.9,136.99 161.64,137.66 161.53,138.35 C 161.44,138.87 161.44,139.4 161.46,139.93 z M 157.71,136.96 C 157.69,137.22 157.73,137.48 157.85,137.69 C 157.96,137.9 158.14,138.07 158.34,138.2 C 158.67,138.41 159.04,138.53 159.42,138.56 C 159.37,138.18 159.22,137.82 158.99,137.51 C 158.84,137.32 158.66,137.15 158.45,137.05 C 158.22,136.95 157.96,136.93 157.71,136.96 M 159.45,138.59 C 159.29,138.6 159.14,138.61 158.98,138.62 C 158.55,138.65 158.1,138.69 157.72,138.5 C 157.34,138.32 157.02,137.92 156.94,137.51 C 156.86,137.15 156.95,136.77 156.97,136.4 C 156.97,136.36 156.97,136.32 156.97,136.28 C 157.02,136.27 157.06,136.27 157.1,136.27 C 157.47,136.22 157.83,136.1 158.2,136.15 C 158.62,136.21 159.04,136.5 159.25,136.87 C 159.45,137.24 159.45,137.69 159.45,138.12 C 159.45,138.28 159.46,138.43 159.45,138.59 z M 164.68,143.47 C 164.7,143.22 164.66,142.96 164.55,142.74 C 164.44,142.54 164.25,142.37 164.05,142.24 C 163.73,142.03 163.35,141.9 162.98,141.88 C 163.03,142.25 163.18,142.62 163.41,142.93 C 163.55,143.12 163.73,143.29 163.95,143.39 C 164.17,143.48 164.43,143.5 164.68,143.47 M 162.95,141.85 C 163.1,141.83 163.25,141.82 163.41,141.81 C 163.84,141.79 164.29,141.75 164.68,141.93 C 165.06,142.11 165.37,142.51 165.46,142.93 C 165.54,143.29 165.44,143.66 165.42,144.03 C 165.42,144.07 165.42,144.12 165.42,144.16 C 165.38,144.16 165.34,144.17 165.29,144.17 C 164.93,144.22 164.56,144.33 164.2,144.28 C 163.78,144.22 163.36,143.94 163.15,143.57 C 162.94,143.2 162.94,142.75 162.94,142.32 C 162.94,142.16 162.94,142.0 162.95,141.85 z M 172.17,171.45 C 172.17,172.05 171.68,172.54 171.07,172.54 C 170.47,172.54 169.98,172.05 169.98,171.45 C 169.98,170.84 170.47,170.35 171.07,170.35 C 171.68,170.35 172.17,170.84 172.17,171.45 z M 171.47,168.99 C 171.47,169.59 170.98,170.08 170.37,170.08 C 169.77,170.08 169.28,169.59 169.28,168.99 C 169.28,168.39 169.77,167.9 170.37,167.9 C 170.98,167.9 171.47,168.39 171.47,168.99 z M 130.3,132.56 C 130.3,133.16 129.81,133.65 129.21,133.65 C 128.6,133.65 128.11,133.16 128.11,132.56 C 128.11,131.96 128.6,131.47 129.21,131.47 C 129.81,131.47 130.3,131.96 130.3,132.56 z M 132.83,132.96 C 132.83,133.56 132.34,134.05 131.74,134.05 C 131.13,134.05 130.64,133.56 130.64,132.96 C 130.64,132.35 131.13,131.86 131.74,131.86 C 132.34,131.86 132.83,132.35 132.83,132.96 z M 134.7,134.84 C 134.7,135.44 134.21,135.93 133.61,135.93 C 133.0,135.93 132.51,135.44 132.51,134.84 C 132.51,134.24 133.0,133.75 133.61,133.75 C 134.21,133.75 134.7,134.24 134.7,134.84 z M 136.93,136.24 C 136.93,136.84 136.44,137.33 135.84,137.33 C 135.24,137.33 134.75,136.84 134.75,136.24 C 134.75,135.63 135.24,135.14 135.84,135.14 C 136.44,135.14 136.93,135.63 136.93,136.24 z M 139.53,136.19 C 139.53,136.8 139.04,137.29 138.44,137.29 C 137.84,137.29 137.35,136.8 137.35,136.19 C 137.35,135.59 137.84,135.1 138.44,135.1 C 139.04,135.1 139.53,135.59 139.53,136.19 z M 141.79,134.81 C 141.79,135.41 141.3,135.9 140.69,135.9 C 140.09,135.9 139.6,135.41 139.6,134.81 C 139.6,134.2 140.09,133.72 140.69,133.72 C 141.3,133.72 141.79,134.2 141.79,134.81 z M 143.88,133.17 C 143.88,133.77 143.39,134.26 142.78,134.26 C 142.18,134.26 141.69,133.77 141.69,133.17 C 141.69,132.56 142.18,132.07 142.78,132.07 C 143.39,132.07 143.88,132.56 143.88,133.17 z M 146.38,132.41 C 146.38,133.01 145.89,133.5 145.29,133.5 C 144.68,133.5 144.19,133.01 144.19,132.41 C 144.19,131.8 144.68,131.31 145.29,131.31 C 145.89,131.31 146.38,131.8 146.38,132.41 z M 148.82,133.33 C 148.82,133.94 148.33,134.43 147.72,134.43 C 147.12,134.43 146.63,133.94 146.63,133.33 C 146.63,132.73 147.12,132.24 147.72,132.24 C 148.33,132.24 148.82,132.73 148.82,133.33 z M 150.5,135.37 C 150.5,135.98 150.01,136.47 149.41,136.47 C 148.8,136.47 148.31,135.98 148.31,135.37 C 148.31,134.77 148.8,134.28 149.41,134.28 C 150.01,134.28 150.5,134.77 150.5,135.37 z M 151.93,137.61 C 151.93,138.22 151.44,138.71 150.84,138.71 C 150.23,138.71 149.74,138.22 149.74,137.61 C 149.74,137.01 150.23,136.52 150.84,136.52 C 151.44,136.52 151.93,137.01 151.93,137.61 z M 153.73,139.55 C 153.73,140.16 153.24,140.65 152.63,140.65 C 152.03,140.65 151.54,140.16 151.54,139.55 C 151.54,138.95 152.03,138.46 152.63,138.46 C 153.24,138.46 153.73,138.95 153.73,139.55 z M 163.45,148.59 C 163.45,149.2 162.96,149.69 162.35,149.69 C 161.75,149.69 161.26,149.2 161.26,148.59 C 161.26,147.99 161.75,147.5 162.35,147.5 C 162.96,147.5 163.45,147.99 163.45,148.59 z M 165.47,150.29 C 165.47,150.9 164.98,151.39 164.38,151.39 C 163.78,151.39 163.29,150.9 163.29,150.29 C 163.29,149.69 163.78,149.2 164.38,149.2 C 164.98,149.2 165.47,149.69 165.47,150.29 z M 167.8,151.57 C 167.8,152.17 167.31,152.66 166.71,152.66 C 166.1,152.66 165.61,152.17 165.61,151.57 C 165.61,150.97 166.1,150.48 166.71,150.48 C 167.31,150.48 167.8,150.97 167.8,151.57 z M 169.98,153.07 C 169.98,153.68 169.49,154.17 168.89,154.17 C 168.28,154.17 167.8,153.68 167.8,153.07 C 167.8,152.47 168.28,151.98 168.89,151.98 C 169.49,151.98 169.98,152.47 169.98,153.07 z M 171.17,155.4 C 171.17,156.0 170.68,156.49 170.07,156.49 C 169.47,156.49 168.98,156.0 168.98,155.4 C 168.98,154.79 169.47,154.3 170.07,154.3 C 170.68,154.3 171.17,154.79 171.17,155.4 z M 170.67,157.96 C 170.67,158.57 170.18,159.06 169.58,159.06 C 168.98,159.06 168.49,158.57 168.49,157.96 C 168.49,157.36 168.98,156.87 169.58,156.87 C 170.18,156.87 170.67,157.36 170.67,157.96 z M 169.19,160.17 C 169.19,160.77 168.7,161.26 168.1,161.26 C 167.5,161.26 167.01,160.77 167.01,160.17 C 167.01,159.57 167.5,159.08 168.1,159.08 C 168.7,159.08 169.19,159.57 169.19,160.17 z M 167.92,162.49 C 167.92,163.1 167.43,163.59 166.83,163.59 C 166.23,163.59 165.74,163.1 165.74,162.49 C 165.74,161.89 166.23,161.4 166.83,161.4 C 167.43,161.4 167.92,161.89 167.92,162.49 z M 167.95,165.09 C 167.95,165.7 167.47,166.19 166.86,166.19 C 166.26,166.19 165.77,165.7 165.77,165.09 C 165.77,164.49 166.26,164.0 166.86,164.0 C 167.47,164.0 167.95,164.49 167.95,165.09 z M 169.45,167.27 C 169.45,167.87 168.96,168.36 168.35,168.36 C 167.75,168.36 167.26,167.87 167.26,167.27 C 167.26,166.66 167.75,166.17 168.35,166.17 C 168.96,166.17 169.45,166.66 169.45,167.27 z" />
			
		<!-- Prism Reference -->
		<cam mingh:cam="--verb EditSelectAll --verb ZoomSelection --verb FileSave " /> 
	 </g>

</svg>
