<svg
   xmlns:xlink="http://www.w3.org/1999/xlink"
   xmlns:svg="http://www.w3.org/2000/svg"
   xmlns="http://www.w3.org/2000/svg"
   xmlns:mingh="http://www.minghworld.com"
   width="300px"
   height="300px" >
   
	 <g>	
		<!-- Shape -->
		<path id="shape" style="fill:none;stroke:#000;stroke-width:0.25px;"
			d="M 153.44,123.97 C 152.09,124.05 150.85,124.8 150.16,126.03 C 149.7,126.85 149.53,127.8 149.69,128.72 C 149.77,129.18 149.9,129.59 150.13,130.0 C 150.18,130.09 150.25,130.19 150.31,130.28 C 150.38,130.38 150.46,130.45 150.34,130.56 C 150.24,130.67 150.13,130.61 150.03,130.53 C 149.79,130.35 149.58,130.23 149.28,130.16 C 148.99,130.09 148.7,130.1 148.41,130.16 C 148.0,130.24 148.0,130.3 147.56,130.19 C 147.28,130.12 147.02,130.02 146.72,130.03 C 146.24,130.05 145.63,130.32 145.53,130.88 C 145.49,131.12 145.58,131.39 145.69,131.59 C 145.85,131.9 145.89,131.99 145.72,132.31 C 145.6,132.54 145.47,132.78 145.38,133.03 C 145.29,133.28 145.26,133.53 145.19,133.78 C 145.14,133.95 144.99,134.36 144.88,134.5 C 144.71,134.71 144.42,134.72 144.19,134.69 C 143.69,134.62 143.25,134.13 142.91,133.88 C 142.47,133.54 142.07,133.3 141.47,133.41 C 141.01,133.48 140.43,133.81 140.09,134.09 C 139.62,134.49 139.46,134.79 139.16,135.31 C 138.93,135.7 138.65,136.29 138.19,136.53 C 137.95,136.65 137.71,136.65 137.47,136.75 C 137.22,136.85 136.99,136.99 136.78,137.16 C 136.33,137.53 136.16,137.9 136.09,138.47 C 136.06,138.73 136.0,138.98 135.88,139.22 C 135.75,139.45 135.61,139.65 135.44,139.84 C 135.27,140.04 135.07,140.23 134.88,140.41 C 134.68,140.58 134.5,140.76 134.28,140.91 C 133.77,141.26 133.4,141.32 132.81,141.41 C 132.3,141.49 131.79,141.52 131.28,141.63 C 130.77,141.73 130.28,141.87 129.78,142.03 C 127.82,142.66 125.86,143.63 125.34,145.97 C 125.23,146.49 125.17,146.96 125.31,147.5 C 125.38,147.76 125.48,148.0 125.63,148.22 C 125.8,148.5 125.9,148.55 125.88,148.91 C 125.81,149.66 125.76,149.71 125.84,150.47 C 125.9,150.99 125.99,151.5 126.13,152.0 C 126.27,152.51 126.46,152.98 126.72,153.44 C 127.02,153.97 127.19,154.25 127.28,154.88 C 127.35,155.38 127.19,155.9 127.47,156.41 C 127.53,156.52 127.6,156.62 127.69,156.72 C 127.77,156.82 127.89,156.92 127.97,157.03 C 128.05,157.14 128.07,157.24 128.06,157.38 C 128.06,157.51 128.04,157.62 128.03,157.75 C 128.0,158.01 127.98,158.27 128.03,158.53 C 128.07,158.71 128.09,159.09 128.0,159.28 C 127.94,159.41 127.84,159.47 127.72,159.53 C 127.6,159.59 127.5,159.68 127.41,159.78 C 127.22,159.99 127.14,160.19 127.13,160.47 C 127.1,160.99 127.34,161.53 127.84,161.75 C 128.08,161.86 128.35,161.93 128.59,162.03 C 128.83,162.14 129.05,162.29 129.28,162.41 C 130.26,162.89 131.38,162.62 132.25,162.13 C 132.48,162.0 132.66,161.84 132.88,161.69 C 133.09,161.54 133.31,161.38 133.53,161.25 C 134.01,160.96 134.48,160.89 135.03,160.91 C 136.01,160.94 137.04,161.35 138.06,160.78 C 138.62,160.47 138.82,160.23 139.25,159.78 C 139.62,159.4 140.04,159.14 140.47,158.84 C 140.68,158.7 140.89,158.53 141.16,158.47 C 141.49,158.39 141.61,158.45 141.94,158.5 C 142.48,158.58 142.96,158.48 143.47,158.31 C 143.72,158.23 143.95,158.1 144.19,158.0 C 144.43,157.9 144.65,157.81 144.91,157.75 C 145.42,157.63 145.91,157.57 146.44,157.56 C 146.96,157.56 147.48,157.57 148.0,157.59 C 148.26,157.61 148.52,157.63 148.78,157.66 C 149.04,157.69 149.3,157.73 149.53,157.88 C 149.76,158.02 149.92,158.21 150.06,158.44 C 150.2,158.66 150.24,158.9 150.38,159.13 C 150.51,159.36 150.7,159.56 150.91,159.72 C 151.11,159.88 151.33,160.01 151.47,160.25 C 151.56,160.4 151.58,160.56 151.63,160.72 C 151.67,160.88 151.71,161.03 151.78,161.19 C 151.92,161.51 152.06,161.8 152.34,162.03 C 152.63,162.26 152.94,162.34 153.28,162.41 C 153.77,162.51 153.72,162.77 153.91,163.09 C 154.22,163.63 154.93,164.14 155.59,163.91 C 155.91,163.79 156.07,163.47 156.44,163.41 C 156.79,163.35 157.05,163.75 157.16,164.0 C 157.29,164.32 157.33,164.66 157.34,165.0 C 157.36,165.42 157.31,165.59 157.47,166.0 C 157.72,166.64 158.28,167.1 158.94,167.28 C 159.27,167.37 159.57,167.44 159.91,167.47 C 160.32,167.51 160.52,167.55 160.88,167.78 C 160.95,167.83 161.0,167.88 161.06,167.94 C 161.34,168.16 161.65,168.24 162.0,168.28 C 162.26,168.32 162.52,168.32 162.75,168.5 C 162.97,168.67 163.09,168.89 163.19,169.16 C 163.4,169.73 163.14,170.17 163.06,170.69 C 162.97,171.3 163.27,171.69 163.53,172.16 C 163.88,172.78 163.85,173.01 163.94,173.69 C 164.05,174.61 164.59,175.9 165.72,176.03 C 166.14,176.08 166.55,175.94 166.88,175.66 C 167.2,175.37 167.41,175.01 167.69,174.69 C 167.97,174.36 168.22,174.03 168.34,173.59 C 168.46,173.18 168.48,172.77 168.5,172.34 C 168.52,171.91 168.52,171.51 168.34,171.09 C 168.18,170.69 167.79,170.43 167.63,170.03 C 167.35,169.36 167.45,168.19 167.81,167.56 C 168.31,166.71 169.35,166.82 170.0,166.38 C 170.5,166.03 170.65,165.61 170.69,165.03 C 170.71,164.76 170.71,164.49 170.72,164.22 C 170.74,163.1 170.88,162.1 171.47,161.09 C 171.75,160.62 172.12,160.23 172.5,159.84 C 172.88,159.45 173.24,159.06 173.5,158.56 C 173.97,157.68 174.11,156.35 174.25,155.41 C 174.32,154.89 174.42,154.38 174.56,153.88 C 174.72,153.31 174.84,152.95 174.72,152.34 C 174.62,151.83 174.4,151.35 174.28,150.84 C 174.16,150.32 174.29,149.83 174.25,149.31 C 174.13,147.9 173.48,147.65 172.56,146.88 C 172.16,146.53 171.81,146.16 171.59,145.66 C 171.49,145.42 171.48,145.15 171.38,144.91 C 171.27,144.65 171.12,144.49 170.88,144.34 C 170.76,144.28 170.66,144.23 170.53,144.19 C 170.41,144.15 170.28,144.11 170.16,144.06 C 169.9,143.96 169.72,143.79 169.56,143.56 C 169.41,143.34 169.34,143.1 169.28,142.84 C 169.23,142.59 169.14,142.36 169.03,142.13 C 168.53,141.02 167.62,140.68 166.69,140.19 C 165.59,139.61 165.37,138.68 165.16,137.63 C 165.01,136.91 164.78,135.31 164.28,134.66 C 163.85,134.1 163.59,134.12 163.09,133.66 C 162.9,133.47 162.8,133.28 162.78,133.0 C 162.76,132.74 162.69,132.5 162.59,132.25 C 162.5,132.01 162.38,131.78 162.31,131.53 C 162.24,131.28 162.21,131.03 162.13,130.78 C 161.95,130.27 161.37,130.04 160.91,130.0 C 160.62,129.98 160.4,130.05 160.19,130.25 C 159.97,130.45 159.94,130.68 159.91,130.94 C 159.83,131.45 159.79,131.96 159.75,132.47 C 159.66,133.49 159.61,134.51 159.44,135.53 C 159.35,136.04 159.26,136.54 159.09,137.03 C 159.01,137.28 158.95,137.52 158.75,137.72 C 158.55,137.92 158.35,138.01 158.06,138.03 C 157.6,138.07 157.0,137.65 156.72,137.38 C 156.34,137.01 155.93,136.71 155.47,136.47 C 155.01,136.23 154.51,136.07 154.03,135.88 C 153.79,135.78 153.57,135.73 153.38,135.53 C 153.17,135.33 153.08,135.13 153.06,134.84 C 153.04,134.32 153.31,133.81 153.69,133.47 C 153.88,133.3 154.03,133.11 154.16,132.88 C 154.22,132.76 154.28,132.66 154.31,132.53 C 154.33,132.47 154.33,132.41 154.34,132.34 C 154.36,132.22 154.31,132.07 154.5,132.03 C 156.34,131.66 157.71,130.07 157.78,128.19 C 157.85,126.31 156.62,124.64 154.81,124.13 C 154.36,124.0 153.89,123.94 153.44,123.97 z M 153.72,126.09 C 154.8,126.09 155.66,126.95 155.66,128.03 C 155.66,129.11 154.8,129.97 153.72,129.97 C 152.64,129.97 151.75,129.11 151.75,128.03 C 151.75,126.95 152.64,126.09 153.72,126.09 z M 148.91,133.97 C 148.95,133.96 148.97,133.96 149.03,134.0 C 149.17,134.09 149.49,134.41 149.53,134.59 C 149.56,134.72 149.56,134.84 149.56,134.97 C 149.56,135.1 149.55,135.22 149.56,135.34 C 149.58,135.6 149.64,135.85 149.72,136.09 C 150.02,137.09 150.57,137.94 151.44,138.53 C 151.86,138.82 152.34,139.0 152.81,139.19 C 153.28,139.38 153.74,139.5 154.16,139.84 C 154.55,140.17 154.94,140.51 155.38,140.78 C 155.81,141.05 156.25,141.26 156.75,141.41 C 157.75,141.7 158.76,141.65 159.72,141.25 C 160.2,141.05 160.61,140.78 161.0,140.44 C 161.19,140.27 161.4,140.07 161.56,139.88 C 161.64,139.78 161.7,139.69 161.78,139.59 C 161.8,139.57 161.89,139.41 161.94,139.44 C 162.02,139.48 162.05,139.72 162.06,139.78 C 162.1,139.91 162.14,140.0 162.19,140.13 C 162.28,140.36 162.38,140.59 162.5,140.81 C 162.74,141.26 163.03,141.66 163.38,142.03 C 163.72,142.41 164.11,142.75 164.53,143.03 C 164.74,143.17 164.95,143.31 165.19,143.41 C 165.35,143.48 165.71,143.59 165.81,143.78 C 165.88,143.9 165.89,144.0 165.94,144.13 C 165.98,144.24 166.02,144.38 166.06,144.5 C 166.16,144.73 166.25,144.94 166.38,145.16 C 166.62,145.6 166.91,146.02 167.28,146.38 C 167.46,146.55 167.69,146.68 167.91,146.81 C 168.21,146.99 168.25,147.02 168.44,147.31 C 168.57,147.52 168.7,147.76 168.84,147.97 C 168.98,148.18 169.12,148.4 169.28,148.59 C 169.55,148.93 169.85,149.2 170.19,149.47 C 170.57,149.77 170.73,150.1 170.72,150.59 C 170.71,151.03 170.75,151.45 170.88,151.88 C 170.94,152.08 171.03,152.26 171.09,152.47 C 171.19,152.75 171.17,152.82 171.09,153.09 C 170.88,153.93 170.79,154.78 170.66,155.63 C 170.61,155.9 170.52,156.61 170.38,156.88 C 170.27,157.07 170.09,157.22 169.94,157.38 C 169.86,157.45 169.79,157.52 169.72,157.59 C 169.7,157.61 169.68,157.64 169.66,157.66 C 169.57,157.75 169.41,157.6 169.34,157.56 C 169.24,157.49 169.13,157.42 169.03,157.34 C 168.69,157.11 168.37,156.87 168.06,156.59 C 167.4,156.01 166.82,155.36 166.25,154.69 C 165.58,153.89 164.98,153.08 164.5,152.16 C 164.0,151.19 163.65,150.19 163.34,149.16 C 163.05,148.17 162.85,147.16 162.28,146.25 C 161.64,145.24 160.52,144.3 159.53,143.69 C 158.42,143.01 157.27,142.56 156.0,142.28 C 154.51,141.95 153.1,141.91 151.59,142.22 C 149.25,142.7 148.26,143.8 146.09,144.59 C 145.04,144.98 144.3,145.21 143.19,144.72 C 142.71,144.51 142.3,144.25 141.97,143.84 C 141.65,143.45 141.38,143.03 140.91,142.78 C 140.8,142.72 140.87,142.67 140.91,142.59 C 140.94,142.52 140.97,142.45 141.0,142.38 C 141.05,142.22 141.06,142.04 141.06,141.88 C 141.07,141.54 140.96,141.23 140.91,140.91 C 140.83,140.46 140.97,140.35 141.03,139.94 C 141.09,139.53 140.62,139.48 140.31,139.59 C 140.03,139.7 139.71,139.99 139.53,140.22 C 139.48,140.28 139.5,140.4 139.38,140.38 C 139.29,140.36 139.26,140.3 139.28,140.22 C 139.29,140.2 139.31,140.21 139.31,140.19 C 139.33,140.11 139.31,140.01 139.34,139.94 C 139.42,139.78 139.55,139.75 139.69,139.69 C 139.83,139.62 139.99,139.57 140.13,139.5 C 140.57,139.28 141.18,138.67 141.47,138.28 C 141.57,138.15 141.63,138.0 141.69,137.84 C 141.74,137.7 141.79,137.6 141.97,137.66 C 142.26,137.75 142.53,137.9 142.81,138.0 C 143.41,138.21 143.99,138.28 144.63,138.25 C 145.66,138.2 146.62,137.81 147.34,137.06 C 148.11,136.28 148.42,135.35 148.69,134.34 C 148.72,134.22 148.78,134.01 148.91,133.97 z M 138.09,142.19 C 138.12,142.17 138.14,142.17 138.19,142.19 C 138.23,142.2 138.32,142.32 138.34,142.34 C 138.39,142.4 138.42,142.45 138.47,142.5 C 138.52,142.55 138.6,142.61 138.66,142.66 C 138.72,142.71 138.7,142.8 138.63,142.84 C 138.33,143.0 138.09,143.18 137.88,143.44 C 137.67,143.69 137.57,143.99 137.44,144.28 C 137.3,144.59 137.11,144.78 136.84,144.97 C 136.59,145.15 136.29,145.27 136.13,145.59 C 135.97,145.91 136.22,146.25 136.47,146.41 C 136.74,146.57 137.08,146.59 137.38,146.53 C 137.68,146.47 137.95,146.27 138.28,146.25 C 138.6,146.23 138.9,146.28 139.22,146.28 C 139.53,146.28 139.82,146.24 140.13,146.38 C 140.42,146.51 140.68,146.72 140.94,146.91 C 141.65,147.43 141.71,147.52 142.34,148.13 C 142.87,148.62 143.2,148.86 143.84,149.19 C 144.29,149.41 145.21,149.8 145.59,150.16 C 145.66,150.22 145.68,150.29 145.69,150.38 C 145.7,150.48 145.74,150.58 145.75,150.69 C 145.78,150.97 145.78,151.25 145.75,151.53 C 145.72,151.82 145.65,152.11 145.66,152.41 C 145.67,152.65 145.77,152.8 145.97,152.94 C 146.22,153.11 146.51,153.21 146.78,153.34 C 146.96,153.43 147.41,153.7 147.56,153.84 C 147.62,153.9 147.6,154.0 147.53,154.03 C 147.51,154.04 147.49,154.03 147.47,154.03 C 147.45,154.03 147.45,154.03 147.44,154.03 C 147.4,154.03 147.38,154.03 147.34,154.03 C 147.08,154.02 146.8,154.03 146.53,154.03 C 146.0,154.03 145.46,154.04 144.94,154.13 C 144.31,154.22 143.69,154.39 143.09,154.63 C 142.97,154.67 142.35,154.91 142.22,154.94 C 141.89,155.0 141.6,154.91 141.28,154.91 C 140.69,154.9 139.96,155.1 139.44,155.34 C 138.86,155.62 138.33,155.97 137.81,156.34 C 137.55,156.53 137.32,156.73 137.09,156.97 C 136.81,157.27 136.83,157.49 136.31,157.47 C 135.99,157.46 135.67,157.4 135.34,157.38 C 135.02,157.35 134.7,157.35 134.38,157.38 C 133.72,157.42 133.11,157.55 132.5,157.81 C 132.35,157.88 132.2,157.94 132.06,158.03 C 131.94,158.11 131.85,158.21 131.69,158.22 C 131.53,158.23 131.55,158.04 131.56,157.94 C 131.58,157.77 131.59,157.61 131.59,157.44 C 131.59,156.78 131.52,156.18 131.19,155.59 C 131.03,155.32 130.9,155.04 130.84,154.72 C 130.79,154.41 130.72,154.09 130.66,153.78 C 130.52,153.15 130.26,152.57 129.97,152.0 C 129.62,151.32 129.44,151.0 129.38,150.22 C 129.32,149.58 129.47,148.95 129.41,148.31 C 129.37,147.99 129.29,147.7 129.16,147.41 C 129.05,147.15 128.86,146.82 128.94,146.5 C 129.05,146.05 130.19,145.64 130.5,145.53 C 131.1,145.32 131.71,145.13 132.34,145.03 C 132.9,144.94 133.45,144.89 134.0,144.78 C 134.56,144.67 135.09,144.51 135.59,144.25 C 136.1,143.99 136.54,143.64 136.97,143.28 C 137.18,143.1 137.39,142.91 137.59,142.72 C 137.69,142.62 137.78,142.54 137.88,142.44 C 137.92,142.39 137.98,142.33 138.03,142.28 C 138.06,142.25 138.07,142.21 138.09,142.19 z M 159.16,148.28 C 159.2,148.27 159.26,148.27 159.31,148.28 C 159.5,148.32 159.94,148.56 160.09,148.66 C 160.46,148.87 160.79,149.1 161.03,149.47 C 161.27,149.83 161.27,150.23 161.34,150.63 C 161.42,151.03 161.54,151.43 161.69,151.81 C 162.29,153.4 163.36,154.83 164.56,156.0 C 165.21,156.63 165.9,157.2 166.66,157.69 C 166.99,157.9 167.32,158.09 167.69,158.25 C 167.87,158.33 168.06,158.44 168.25,158.5 C 168.35,158.53 168.46,158.56 168.56,158.59 C 168.62,158.61 168.67,158.59 168.72,158.63 C 168.78,158.67 168.79,158.72 168.75,158.78 C 168.25,159.5 167.89,160.26 167.63,161.09 C 167.5,161.51 167.4,161.92 167.34,162.34 C 167.32,162.54 167.29,163.4 167.0,163.53 C 166.91,163.57 166.81,163.55 166.72,163.56 C 166.63,163.58 166.53,163.59 166.44,163.63 C 166.26,163.68 166.12,163.78 165.97,163.88 C 165.81,163.97 165.66,164.06 165.47,164.09 C 165.42,164.1 165.39,164.12 165.34,164.13 C 165.25,164.13 165.23,164.02 165.19,163.97 C 165.13,163.89 165.07,163.85 165.0,163.78 C 164.86,163.65 164.72,163.52 164.63,163.34 C 164.42,162.98 164.41,162.61 164.41,162.22 C 164.4,161.84 164.44,161.47 164.44,161.09 C 164.44,159.91 164.2,159.68 163.88,158.59 C 163.67,157.91 163.59,156.77 163.59,156.06 C 163.59,155.52 163.48,155.28 163.0,155.0 C 162.63,154.78 162.22,154.65 161.84,154.44 C 161.31,154.14 160.19,153.44 159.72,153.03 C 159.12,152.51 158.6,151.72 158.34,150.97 C 158.21,150.58 158.12,150.23 158.19,149.81 C 158.25,149.39 158.51,148.81 158.81,148.5 C 158.91,148.4 159.01,148.31 159.16,148.28 z M 152.44,150.34 C 152.46,150.34 152.46,150.36 152.47,150.38 C 152.48,150.4 152.49,150.44 152.5,150.47 C 152.57,150.68 152.63,150.86 152.72,151.06 C 153.23,152.14 153.92,152.64 154.94,153.16 C 155.84,153.61 156.79,153.96 157.72,154.34 C 158.7,154.75 159.61,155.23 160.47,155.88 C 161.37,156.55 161.89,157.05 162.22,158.19 C 162.5,159.18 162.5,160.18 162.59,161.19 C 162.64,161.72 162.74,162.24 162.94,162.75 C 163.03,162.99 163.15,163.23 163.31,163.44 C 163.39,163.53 163.48,163.6 163.56,163.69 C 163.6,163.73 163.67,163.75 163.69,163.81 C 163.71,163.88 163.66,163.96 163.59,163.97 C 163.34,163.99 163.09,164.03 162.84,164.13 C 162.61,164.22 162.37,164.33 162.09,164.31 C 161.96,164.3 161.84,164.27 161.72,164.25 C 161.59,164.23 161.47,164.21 161.34,164.19 C 160.99,164.14 160.92,164.15 160.78,163.78 C 160.69,163.54 160.63,163.31 160.56,163.06 C 160.49,162.81 160.4,162.57 160.28,162.34 C 160.05,161.88 159.74,161.46 159.38,161.09 C 158.75,160.46 157.66,159.79 156.69,159.84 C 156.43,159.86 156.19,159.87 155.94,159.75 C 155.82,159.69 155.71,159.62 155.59,159.56 C 155.48,159.5 155.37,159.45 155.25,159.41 C 154.91,159.27 154.84,159.29 154.69,158.94 C 154.59,158.7 154.51,158.44 154.38,158.22 C 154.24,158.0 154.09,157.81 153.91,157.63 C 153.73,157.44 153.5,157.33 153.34,157.13 C 153.18,156.92 153.1,156.66 152.97,156.44 C 152.84,156.21 152.7,156.03 152.53,155.84 C 151.84,155.08 150.95,154.5 149.94,154.25 C 149.64,154.18 149.36,154.16 149.06,154.13 C 148.99,154.12 148.92,154.1 148.84,154.09 C 148.83,154.09 148.8,154.1 148.78,154.09 C 148.65,154.08 148.58,153.99 148.69,153.91 C 148.9,153.74 149.17,153.38 149.19,153.09 C 149.2,152.91 149.16,152.77 149.0,152.66 C 148.84,152.55 148.67,152.6 148.59,152.78 C 148.55,152.9 148.54,153.15 148.34,153.16 C 148.19,153.16 148.02,152.97 147.94,152.88 C 147.67,152.6 147.65,152.43 147.72,152.06 C 147.75,151.91 147.79,151.78 147.81,151.63 C 147.83,151.49 147.84,151.33 147.84,151.19 C 147.84,151.08 147.84,150.98 147.84,150.88 C 147.84,150.81 147.84,150.75 147.84,150.69 C 147.84,150.65 147.84,150.6 147.84,150.56 L 147.84,150.5 C 147.84,150.48 147.81,150.47 147.84,150.47 C 148.01,150.48 148.18,150.48 148.34,150.5 C 148.57,150.52 148.81,150.55 149.03,150.56 C 149.46,150.58 149.86,150.56 150.28,150.53 C 150.71,150.5 151.14,150.46 151.56,150.44 C 151.77,150.42 151.98,150.4 152.19,150.38 C 152.24,150.37 152.29,150.38 152.34,150.38 C 152.37,150.37 152.41,150.35 152.44,150.34 z" />
			
		<path id="shape" style="fill:#f00;stroke:none;"
			d="M 138.85,140.42 C 138.71,140.3 138.64,140.14 138.57,139.98 C 138.5,139.82 138.47,139.65 138.35,139.52 C 138.24,139.4 138.17,139.59 138.13,139.68 C 138.06,139.84 138.0,140.0 137.96,140.17 C 137.81,140.75 137.89,141.48 138.14,142.02 C 138.17,142.08 138.2,142.14 138.24,142.2 C 138.24,142.2 138.21,142.18 138.19,142.17 C 138.15,142.15 138.11,142.2 138.08,142.21 C 137.96,142.36 137.81,142.5 137.68,142.63 C 137.65,142.6 137.62,142.55 137.6,142.51 C 137.47,142.28 137.37,142.04 137.31,141.78 C 137.14,141.14 137.12,140.55 137.3,139.91 C 137.38,139.6 137.46,139.3 137.69,139.05 C 137.9,138.8 138.24,138.7 138.55,138.82 C 138.74,138.89 138.86,139.0 138.97,139.16 C 139.06,139.31 139.12,139.47 139.19,139.63 C 139.21,139.69 139.24,139.76 139.27,139.82 C 139.29,139.86 139.35,139.91 139.36,139.93 C 139.35,139.95 139.35,139.97 139.34,139.99 C 139.33,140.04 139.32,140.08 139.31,140.13 C 139.29,140.22 139.21,140.32 139.35,140.37 C 139.42,140.4 139.44,140.33 139.48,140.32 C 139.43,140.41 139.41,140.52 139.38,140.61 C 139.35,140.77 139.35,140.92 139.37,141.08 C 139.38,141.45 139.54,141.76 139.63,142.06 C 139.61,142.02 139.56,141.95 139.54,141.91 C 139.5,141.84 139.46,141.77 139.43,141.7 C 139.36,141.55 139.31,141.4 139.27,141.25 C 139.17,140.88 139.17,140.7 138.85,140.42 z M 161.84,168.27 C 162.38,168.35 162.94,168.16 163.35,167.8 C 163.58,167.64 163.83,167.41 164.13,167.52 C 164.58,167.65 164.79,168.09 165.05,168.43 C 165.31,168.72 165.77,168.78 166.08,168.55 C 166.59,168.26 166.89,167.73 167.23,167.27 C 167.57,166.92 168.08,166.8 168.55,166.77 C 168.76,166.76 168.98,166.74 169.18,166.7 C 168.68,166.85 168.11,167.03 167.85,167.53 C 167.55,168.15 167.41,168.87 167.51,169.56 C 167.55,170.02 167.83,170.4 168.12,170.74 C 168.2,170.84 168.35,171.09 168.18,170.85 C 167.96,170.55 167.55,170.55 167.24,170.7 C 166.72,170.91 166.23,171.33 165.64,171.27 C 165.28,171.17 165.07,170.81 164.74,170.64 C 164.32,170.39 163.77,170.29 163.32,170.51 C 163.1,170.56 163.05,170.99 163.03,170.98 C 163.02,170.38 163.43,169.79 163.21,169.19 C 163.06,168.72 162.65,168.3 162.14,168.31 C 162.04,168.3 161.94,168.29 161.84,168.27 z M 169.61,157.73 C 169.78,157.55 169.95,157.37 170.11,157.2 C 170.56,157.46 171.01,157.72 171.41,158.01 C 171.85,158.32 171.94,158.56 171.95,158.71 C 171.97,158.79 171.97,158.86 171.96,158.93 C 171.95,159.04 171.92,159.14 171.87,159.23 C 171.84,159.29 171.79,159.35 171.74,159.4 C 171.7,159.44 171.66,159.48 171.61,159.51 C 171.53,159.58 171.42,159.59 171.33,159.63 C 171.15,159.68 170.96,159.66 170.79,159.67 C 170.69,159.67 170.6,159.66 170.51,159.65 C 170.32,159.64 170.13,159.61 169.94,159.58 C 169.41,159.52 168.91,159.4 168.43,159.28 C 168.55,159.06 168.71,158.85 168.84,158.66 C 169.12,158.73 169.43,158.79 169.78,158.84 C 170.42,158.95 171.2,159.03 171.25,158.88 C 171.31,158.72 170.54,158.29 169.93,157.92 C 169.82,157.86 169.71,157.79 169.61,157.73 z M 165.23,164.11 C 165.25,164.11 165.27,164.12 165.28,164.12 C 165.43,164.13 165.56,164.1 165.69,164.03 C 165.77,163.99 165.85,163.95 165.93,163.9 C 165.93,163.94 165.94,163.97 165.94,164.01 C 165.95,164.09 165.94,164.18 165.92,164.26 C 165.89,164.42 165.8,164.55 165.7,164.65 C 165.61,164.73 165.52,164.8 165.42,164.85 C 165.33,164.89 165.23,164.92 165.13,164.94 C 165.03,164.96 164.92,164.97 164.81,164.97 C 164.67,164.98 164.54,164.96 164.41,164.95 C 164.25,164.93 164.1,164.89 163.95,164.84 C 163.82,164.79 163.7,164.72 163.58,164.64 C 163.32,164.48 163.14,164.27 162.95,164.09 C 163.24,163.97 163.55,163.98 163.84,163.95 C 163.94,164.04 164.05,164.11 164.18,164.17 C 164.28,164.21 164.4,164.24 164.56,164.25 C 164.77,164.28 165.06,164.28 165.19,164.15 C 165.21,164.14 165.22,164.13 165.23,164.11 M 146.52,154.02 C 147.5,154.02 148.47,154.07 149.43,154.16 C 149.39,154.22 149.34,154.27 149.28,154.32 C 149.21,154.4 149.13,154.47 149.04,154.52 C 148.93,154.6 148.81,154.65 148.68,154.7 C 148.55,154.74 148.42,154.76 148.28,154.77 C 148.15,154.78 148.01,154.77 147.88,154.74 C 147.58,154.71 147.32,154.52 147.09,154.38 C 146.96,154.29 146.83,154.21 146.71,154.12 C 146.65,154.08 146.58,154.05 146.52,154.02 z" />
			
		<!-- Prism Reference -->
		<cam mingh:cam="--verb EditSelectAll --verb ZoomSelection --verb FileSave " />  
	 </g>

</svg>
