<svg
   xmlns:xlink="http://www.w3.org/1999/xlink"
   xmlns:svg="http://www.w3.org/2000/svg"
   xmlns="http://www.w3.org/2000/svg"
   xmlns:mingh="http://www.minghworld.com"
   width="300px"
   height="300px" >
    
	 <g>
		<!-- Paths -->
		<path id="shape" transform="matrix(-1 0 0 1 300 0)" style="fill:#ff0;stroke:none;"
			d="M 150.06,123.41 C 149.68,123.4 149.29,123.46 148.91,123.56 C 147.36,123.99 146.21,125.29 145.97,126.88 C 145.72,128.47 146.43,130.04 147.78,130.91 C 148.16,131.15 148.23,131.71 147.91,132.03 C 147.81,132.12 147.7,132.17 147.59,132.25 C 147.4,132.4 147.23,132.57 147.03,132.72 C 146.64,133.02 146.23,133.32 145.84,133.63 C 145.07,134.24 144.32,134.86 143.56,135.5 C 140.53,138.05 137.67,140.73 134.97,143.63 C 133.35,145.35 131.8,147.16 130.31,149.0 C 129.57,149.92 128.87,150.84 128.16,151.78 C 127.94,152.07 127.69,152.34 127.5,152.66 C 127.43,152.76 127.39,152.88 127.34,153.0 C 127.15,153.49 127.15,154.04 127.34,154.53 C 127.39,154.65 127.43,154.74 127.5,154.84 C 127.7,155.16 127.93,155.45 128.16,155.75 C 128.86,156.7 129.6,157.64 130.34,158.56 C 134.28,163.45 138.56,167.84 143.34,171.91 C 144.81,173.15 147.21,175.08 148.78,176.19 C 149.2,176.48 149.71,176.62 150.22,176.56 C 150.48,176.53 150.71,176.47 150.94,176.34 C 151.12,176.25 151.28,176.12 151.44,176.0 C 151.91,175.65 152.41,175.3 152.88,174.94 C 154.75,173.5 156.57,172.01 158.34,170.44 C 163.04,166.28 167.23,161.78 171.06,156.81 C 171.42,156.34 171.77,155.88 172.13,155.41 C 172.27,155.21 172.41,155.02 172.53,154.81 C 172.66,154.58 172.75,154.35 172.78,154.09 C 172.85,153.58 172.73,153.05 172.44,152.63 C 172.16,152.21 171.86,151.83 171.56,151.44 C 171.21,150.97 170.83,150.5 170.47,150.03 C 169.74,149.1 169.01,148.18 168.25,147.28 C 166.72,145.47 165.12,143.73 163.47,142.03 C 161.61,140.12 159.7,138.29 157.69,136.53 C 156.68,135.65 155.66,134.8 154.63,133.97 C 154.11,133.55 153.59,133.13 153.06,132.72 C 152.8,132.52 152.52,132.33 152.25,132.13 C 152.17,132.07 152.09,132.01 152.03,131.94 C 151.85,131.7 151.84,131.38 152.0,131.13 C 152.08,131.0 152.2,130.92 152.31,130.84 C 152.42,130.77 152.52,130.68 152.63,130.59 C 153.08,130.21 153.43,129.79 153.69,129.25 C 154.37,127.81 154.15,126.1 153.13,124.88 C 152.35,123.96 151.22,123.43 150.06,123.41 z M 150.0,125.53 C 150.25,125.53 150.5,125.58 150.75,125.69 C 151.74,126.1 152.23,127.26 151.81,128.25 C 151.4,129.24 150.24,129.7 149.25,129.28 C 148.26,128.87 147.77,127.74 148.19,126.75 C 148.5,126.01 149.24,125.53 150.0,125.53 z M 149.91,144.16 C 150.61,144.11 151.32,144.17 152.0,144.34 C 152.69,144.52 153.35,144.82 153.94,145.22 C 154.55,145.63 155.09,146.16 155.53,146.75 C 155.81,147.12 156.05,147.5 156.28,147.91 C 156.35,148.03 156.41,148.16 156.47,148.28 C 156.52,148.37 156.57,148.44 156.63,148.53 C 156.67,148.6 156.72,148.67 156.78,148.72 C 156.86,148.79 156.94,148.83 157.03,148.88 C 157.33,149.01 157.65,149.13 157.97,149.19 C 158.44,149.28 158.92,149.29 159.38,149.16 C 159.8,149.03 160.2,148.77 160.53,148.47 C 160.65,148.36 160.77,148.24 160.88,148.13 C 161.0,147.99 161.13,147.87 161.19,147.69 C 161.2,147.64 161.2,147.58 161.19,147.53 C 161.18,147.49 161.16,147.44 161.13,147.41 C 161.06,147.35 160.96,147.37 160.88,147.34 C 160.66,147.29 160.45,147.14 160.28,147.0 C 160.05,146.81 159.83,146.61 159.69,146.34 C 159.55,146.08 159.5,145.75 159.44,145.47 C 159.41,145.34 159.38,145.23 159.38,145.06 C 159.37,144.97 159.36,144.87 159.41,144.84 C 159.46,144.81 159.57,144.87 159.66,144.91 C 159.89,145.01 160.06,145.02 160.25,145.09 C 160.57,145.21 160.92,145.42 161.22,145.66 C 161.47,145.85 161.69,146.09 161.91,146.34 C 162.02,146.48 162.14,146.62 162.25,146.78 C 162.32,146.89 162.38,147.0 162.47,147.09 C 162.58,147.21 162.71,147.28 162.84,147.34 C 163.04,147.44 163.23,147.51 163.41,147.59 C 163.63,147.7 163.84,147.82 164.03,147.97 C 164.2,148.1 164.38,148.26 164.53,148.41 C 164.77,148.63 164.99,148.86 165.25,149.06 C 165.44,149.21 165.66,149.35 165.88,149.47 C 166.09,149.59 166.3,149.69 166.5,149.84 C 166.6,149.92 166.7,150.0 166.75,150.13 C 166.79,150.23 166.8,150.37 166.75,150.47 C 166.72,150.53 166.66,150.57 166.56,150.63 C 166.46,150.68 166.32,150.73 166.28,150.81 C 166.25,150.88 166.3,150.97 166.31,151.03 C 166.32,151.07 166.33,151.1 166.31,151.13 C 166.23,151.26 165.96,151.3 165.72,151.31 C 165.29,151.33 164.93,151.22 164.56,151.13 C 164.16,151.02 163.73,150.95 163.31,150.91 C 163.09,150.88 162.86,150.86 162.63,150.84 C 162.38,150.83 162.12,150.82 161.91,150.91 C 161.72,150.98 161.55,151.13 161.41,151.31 C 161.2,151.58 161.05,151.93 160.94,152.22 C 160.73,152.75 160.68,153.07 160.44,153.34 C 160.25,153.55 159.95,153.71 159.59,153.81 C 159.25,153.91 158.85,153.97 158.44,154.0 C 158.25,154.01 158.07,154.02 157.91,154.09 C 157.71,154.18 157.55,154.35 157.41,154.53 C 157.11,154.89 156.86,155.25 156.59,155.63 C 156.29,156.05 155.96,156.51 155.78,156.75 C 155.74,156.81 155.72,156.86 155.66,156.94 C 155.62,156.98 155.58,157.03 155.53,157.06 C 155.41,157.15 155.24,157.15 155.09,157.16 C 154.79,157.17 154.55,157.17 154.28,157.13 C 154.08,157.09 153.86,157.03 153.75,156.84 C 153.69,156.74 153.67,156.59 153.69,156.44 C 153.7,156.27 153.75,156.12 153.88,156.03 C 153.97,155.96 154.11,155.94 154.22,155.94 C 154.36,155.94 154.44,155.96 154.59,156.0 C 154.7,156.03 154.85,156.05 154.94,156.06 C 154.99,156.07 155.01,156.08 155.03,156.06 C 155.05,156.05 155.06,156.03 155.06,156.0 C 155.15,155.63 155.32,154.89 155.44,154.5 C 155.47,154.4 155.51,154.3 155.53,154.19 C 155.54,154.11 155.55,154.03 155.5,153.97 C 155.46,153.92 155.4,153.9 155.31,153.88 C 155.15,153.82 154.9,153.78 154.69,153.75 C 154.39,153.71 154.15,153.68 153.88,153.66 C 153.64,153.64 153.37,153.63 153.16,153.63 C 152.97,153.62 152.84,153.64 152.69,153.69 C 152.5,153.75 152.33,153.88 152.19,154.03 C 152.11,154.12 152.05,154.21 152.0,154.31 C 151.95,154.41 151.89,154.51 151.88,154.63 C 151.83,154.89 151.86,155.17 151.88,155.44 C 151.91,156.17 151.81,156.89 151.84,157.63 C 151.87,158.38 152.05,159.12 152.31,159.81 C 152.44,160.14 152.57,160.47 152.69,160.81 C 152.74,160.97 152.81,161.13 152.91,161.25 C 153.02,161.39 153.17,161.48 153.34,161.56 C 153.55,161.65 153.74,161.72 153.94,161.81 C 154.18,161.92 154.44,162.03 154.69,162.13 C 155.06,162.26 155.45,162.31 155.84,162.34 C 156.38,162.39 156.9,162.41 157.44,162.5 C 157.82,162.56 158.21,162.68 158.56,162.84 C 158.88,163.0 159.18,163.2 159.44,163.44 C 159.64,163.63 159.84,163.84 160.09,163.97 C 160.21,164.03 160.36,164.08 160.44,164.19 C 160.49,164.26 160.5,164.36 160.47,164.44 C 160.44,164.51 160.39,164.57 160.31,164.59 C 160.26,164.61 160.17,164.62 160.13,164.59 C 160.09,164.57 160.07,164.53 160.03,164.53 C 160.0,164.53 159.94,164.54 159.91,164.56 C 159.78,164.64 159.66,164.67 159.53,164.69 C 159.21,164.74 158.89,164.81 158.56,164.84 C 158.3,164.87 158.03,164.88 157.78,164.81 C 157.48,164.74 157.19,164.58 156.91,164.44 C 156.48,164.22 156.05,164.04 155.59,163.88 C 155.19,163.73 154.76,163.61 154.34,163.5 C 153.73,163.33 153.1,163.21 152.47,163.09 C 152.08,163.02 151.69,162.95 151.31,162.81 C 151.12,162.74 150.93,162.67 150.78,162.53 C 150.63,162.39 150.55,162.2 150.5,162.0 C 150.45,161.79 150.46,161.56 150.47,161.34 C 150.49,160.91 150.48,160.46 150.44,160.03 C 150.39,159.47 150.28,158.9 150.16,158.34 C 150.05,157.86 149.95,157.36 149.84,156.88 C 149.74,156.41 149.64,155.95 149.41,155.53 C 149.32,155.37 149.2,155.21 149.06,155.09 C 148.81,154.87 148.46,154.81 148.13,154.72 C 147.66,154.59 147.21,154.44 146.78,154.25 C 146.33,154.05 145.89,153.8 145.5,153.5 C 145.13,153.22 144.81,152.89 144.41,152.63 C 144.24,152.52 144.06,152.42 143.88,152.41 C 143.67,152.39 143.44,152.47 143.25,152.56 C 143.05,152.66 142.9,152.78 142.72,152.91 C 142.25,153.24 141.78,153.58 141.31,153.94 C 140.69,154.41 140.07,154.9 139.56,155.31 C 139.08,155.71 138.69,156.06 138.09,156.38 C 137.45,156.72 136.56,157.05 135.75,157.13 C 134.99,157.2 134.28,157.04 133.66,156.81 C 133.15,156.62 132.69,156.37 132.34,156.03 C 132.11,155.8 131.93,155.56 131.78,155.28 C 131.43,154.64 131.23,153.95 131.44,153.06 C 131.49,152.81 131.6,152.56 131.75,152.56 C 131.93,152.57 132.2,152.98 132.41,153.31 C 132.73,153.84 132.89,154.19 133.13,154.5 C 133.27,154.68 133.44,154.85 133.66,154.97 C 134.16,155.25 134.87,155.28 135.5,155.13 C 136.89,154.79 137.83,153.64 138.88,152.5 C 139.65,151.66 140.49,150.8 141.34,149.97 C 142.29,149.05 143.23,148.15 144.19,147.22 C 144.95,146.47 145.72,145.7 146.63,145.16 C 147.4,144.69 148.31,144.36 149.22,144.22 C 149.45,144.18 149.67,144.17 149.91,144.16 z" />

		<!-- Text -->
		<text id="txtTwo" dy="2.8" transform="matrix(1 0 0 1 150 150)" style="stroke:none;fill:#f00;font-family:'Eras Medium ITC';font-size:10px;text-anchor:middle" >

		</text>
		<!-- Prism Reference -->
		<cam mingh:cam=" --verb EditSelectAll --verb ZoomSelection --verb FileSave"/> 
	 </g>

</svg>