<svg
   xmlns:xlink="http://www.w3.org/1999/xlink"
   xmlns:svg="http://www.w3.org/2000/svg"
   xmlns="http://www.w3.org/2000/svg"
   xmlns:mingh="http://www.minghworld.com"
   width="300px"
   height="300px" >
   
	 <g>	
		<!-- Shape -->
		<path id="shape" style="fill:none;stroke:#000;stroke-width:0.25px;"
			d="M 147.69,129.41 C 146.59,129.32 145.47,129.68 144.59,130.5 C 143.8,131.25 143.34,132.29 143.31,133.38 C 143.3,133.95 143.38,134.47 143.59,135.0 C 143.69,135.24 143.83,135.47 143.97,135.69 C 144.04,135.8 144.1,135.91 144.06,136.06 C 144.03,136.2 143.95,136.32 143.81,136.34 C 143.67,136.37 143.54,136.31 143.41,136.28 C 143.28,136.25 143.13,136.22 143.0,136.19 C 142.74,136.13 142.48,136.05 142.22,136.0 C 141.7,135.9 141.18,135.83 140.66,135.78 C 140.14,135.73 139.64,135.73 139.13,135.72 C 139.09,135.72 139.06,135.72 139.03,135.72 C 139.01,135.72 139.03,135.74 139.03,135.75 L 139.0,135.81 C 138.98,135.9 138.98,135.98 138.97,136.06 C 138.94,136.23 138.9,136.43 138.88,136.59 C 138.82,136.93 138.76,137.26 138.72,137.59 C 138.56,138.96 138.54,140.32 138.63,141.69 C 138.63,141.77 138.62,141.85 138.63,141.94 C 138.63,141.98 138.65,142.02 138.66,142.06 C 138.66,142.08 138.65,142.1 138.66,142.13 C 138.66,142.14 138.63,142.13 138.63,142.13 C 138.62,142.12 138.6,142.1 138.59,142.09 C 138.47,142.04 138.37,141.99 138.25,141.94 C 138.0,141.83 137.75,141.72 137.5,141.63 C 137.0,141.43 136.49,141.24 135.97,141.09 C 134.92,140.79 133.84,140.6 132.75,140.5 C 132.21,140.45 131.67,140.41 131.13,140.41 C 130.86,140.41 130.61,140.42 130.34,140.44 C 130.31,140.44 130.25,140.44 130.22,140.44 C 130.2,140.44 130.16,140.44 130.16,140.47 C 130.14,140.55 130.11,140.63 130.09,140.72 C 130.07,140.89 130.05,141.05 130.03,141.22 C 129.87,142.62 129.86,144.0 129.97,145.41 C 130.02,146.1 130.13,146.78 130.25,147.47 C 130.26,147.51 130.24,147.55 130.25,147.59 C 130.25,147.61 130.28,147.67 130.25,147.66 C 130.23,147.65 130.23,147.63 130.22,147.63 C 130.15,147.6 130.1,147.59 130.03,147.56 C 129.9,147.52 129.76,147.48 129.63,147.44 C 129.36,147.35 129.11,147.26 128.84,147.19 C 127.76,146.89 126.68,146.72 125.56,146.66 C 125.01,146.62 124.46,146.6 123.91,146.63 C 123.63,146.64 123.34,146.66 123.06,146.69 C 123.03,146.69 123.0,146.68 122.97,146.69 C 122.91,146.69 122.94,146.74 122.94,146.78 C 122.93,146.87 122.91,146.98 122.91,147.06 C 122.89,147.24 122.89,147.39 122.88,147.56 C 122.79,148.97 122.85,150.36 123.06,151.75 C 123.11,152.09 123.18,152.44 123.25,152.78 C 123.27,152.87 123.26,152.95 123.28,153.03 C 123.29,153.07 123.18,153.14 123.16,153.16 C 123.06,153.23 122.97,153.3 122.88,153.38 C 122.49,153.66 122.11,153.92 121.81,154.31 C 121.33,154.96 121.14,155.84 121.56,156.59 C 121.77,156.96 122.06,157.15 122.44,157.31 C 122.63,157.4 122.83,157.43 123.03,157.47 C 123.3,157.52 123.57,157.58 123.84,157.63 C 123.88,157.63 123.9,157.62 123.94,157.63 C 123.97,157.63 123.92,157.65 123.91,157.66 C 123.89,157.67 123.89,157.68 123.88,157.69 C 123.82,157.73 123.77,157.77 123.72,157.81 C 123.61,157.91 123.49,158.02 123.41,158.13 C 123.23,158.35 123.1,158.58 123.0,158.84 C 122.81,159.35 122.77,159.97 122.91,160.5 C 123.21,161.68 124.36,162.3 125.31,162.72 C 125.57,162.83 125.83,162.92 126.09,163.03 C 126.35,163.14 126.6,163.22 126.84,163.38 C 127.07,163.52 127.31,163.76 127.31,164.06 C 127.31,164.4 127.19,164.58 126.91,164.75 C 126.44,165.04 125.73,164.99 125.25,164.81 C 124.58,164.56 124.5,164.07 124.34,163.5 C 124.18,162.91 123.86,162.46 123.19,162.44 C 122.59,162.42 122.09,162.85 122.0,163.44 C 121.9,164.04 122.14,164.66 122.44,165.16 C 122.49,165.24 122.53,165.36 122.59,165.44 C 122.57,165.43 122.54,165.44 122.53,165.44 C 122.5,165.43 122.44,165.41 122.41,165.41 C 122.27,165.38 122.14,165.37 122.0,165.38 C 121.69,165.4 121.49,165.48 121.28,165.72 C 121.08,165.96 121.0,166.2 121.0,166.5 C 121.0,166.78 121.0,167.06 121.03,167.34 C 121.07,167.66 121.18,167.87 121.44,168.06 C 121.68,168.24 121.94,168.27 122.22,168.31 C 123.35,168.5 124.49,168.68 125.63,168.84 C 134.68,170.14 143.67,170.7 152.81,170.56 C 157.37,170.49 161.93,170.24 166.47,169.81 C 168.74,169.6 170.99,169.34 173.25,169.03 C 174.38,168.88 175.53,168.74 176.66,168.56 C 176.94,168.52 177.22,168.45 177.5,168.41 C 177.78,168.36 178.02,168.33 178.25,168.13 C 178.49,167.91 178.61,167.69 178.63,167.38 C 178.64,167.1 178.63,166.81 178.63,166.53 C 178.63,165.98 178.2,165.55 177.66,165.5 C 177.06,165.57 176.36,165.64 175.72,165.75 C 175.71,165.75 175.69,165.77 175.69,165.75 C 175.69,165.73 175.69,165.7 175.69,165.69 C 175.69,165.65 175.69,165.63 175.69,165.59 C 175.58,164.71 175.43,163.77 175.28,162.78 L 175.28,162.69 C 175.27,162.63 175.29,162.57 175.31,162.53 C 175.87,161.33 176.55,159.92 177.16,158.59 C 177.26,158.35 177.35,158.12 177.34,157.84 C 177.34,157.78 177.32,157.69 177.31,157.63 C 177.31,157.59 177.29,157.56 177.28,157.53 C 177.28,157.52 177.29,157.52 177.28,157.5 C 177.27,157.47 177.3,157.47 177.31,157.47 C 177.42,157.45 177.52,157.43 177.63,157.41 C 177.8,157.36 177.97,157.31 178.13,157.22 C 178.78,156.83 179.09,156.12 178.97,155.38 C 178.82,154.42 178.16,153.89 177.47,153.38 C 177.38,153.31 177.28,153.25 177.19,153.19 C 177.18,153.18 177.17,153.16 177.16,153.16 C 177.14,153.14 177.15,153.11 177.16,153.09 L 177.19,153.0 C 177.19,152.94 177.18,152.88 177.19,152.81 C 177.21,152.55 177.26,152.29 177.28,152.03 C 177.33,151.51 177.37,150.99 177.41,150.47 C 177.44,149.95 177.47,149.43 177.5,148.91 C 177.5,148.87 177.42,148.91 177.41,148.91 C 177.37,148.9 177.34,148.88 177.31,148.88 C 177.25,148.87 177.19,148.85 177.13,148.84 C 177.0,148.83 176.85,148.82 176.72,148.81 C 176.46,148.79 176.23,148.79 175.97,148.78 C 174.91,148.74 173.85,148.79 172.81,148.97 C 171.67,149.16 170.6,149.49 169.53,149.94 C 169.5,149.95 169.47,149.95 169.44,149.97 C 169.42,149.98 169.42,149.99 169.41,150.0 C 169.39,150.0 169.37,150.02 169.38,150.0 C 169.38,149.93 169.37,149.85 169.38,149.78 C 169.39,149.64 169.42,149.49 169.44,149.34 C 169.47,149.06 169.5,148.78 169.53,148.5 C 169.59,147.93 169.67,147.35 169.72,146.78 C 169.77,146.21 169.8,145.66 169.84,145.09 C 169.86,144.81 169.89,144.5 169.91,144.22 C 169.91,144.08 169.93,143.96 169.94,143.81 C 169.94,143.79 169.94,143.77 169.94,143.75 C 169.94,143.73 169.97,143.69 169.94,143.69 C 169.9,143.68 169.85,143.69 169.81,143.69 C 169.74,143.68 169.69,143.66 169.63,143.66 C 168.49,143.52 167.38,143.51 166.25,143.63 C 163.93,143.87 161.69,144.66 159.72,145.91 C 158.75,146.52 157.87,147.22 157.06,148.03 C 156.97,148.13 156.88,148.24 156.78,148.34 C 156.73,148.39 156.7,148.42 156.66,148.47 C 156.63,148.49 156.59,148.54 156.56,148.56 C 156.55,148.58 156.54,148.58 156.53,148.59 C 156.52,148.61 156.51,148.65 156.5,148.63 C 156.42,148.37 156.34,148.13 156.25,147.88 C 156.06,147.36 155.86,146.84 155.63,146.34 C 154.63,144.23 153.34,142.46 151.66,140.84 C 150.81,140.03 149.92,139.33 148.94,138.69 C 148.69,138.53 148.44,138.37 148.19,138.22 C 148.06,138.15 147.92,138.1 147.88,137.94 C 147.84,137.8 147.88,137.65 148.0,137.56 C 148.12,137.47 148.24,137.47 148.38,137.44 C 148.51,137.4 148.65,137.36 148.78,137.31 C 149.05,137.21 149.29,137.09 149.53,136.94 C 151.58,135.66 152.08,132.88 150.59,130.97 C 149.86,130.02 148.79,129.49 147.69,129.41 z M 147.38,131.53 C 148.45,131.53 149.31,132.39 149.31,133.47 C 149.31,134.55 148.45,135.44 147.38,135.44 C 146.3,135.44 145.44,134.55 145.44,133.47 C 145.44,132.39 146.3,131.53 147.38,131.53 z M 174.88,157.88 C 174.89,157.87 174.92,157.85 174.91,157.88 C 174.9,157.89 174.91,157.9 174.91,157.91 C 174.9,157.93 174.88,157.95 174.88,157.97 C 174.55,158.72 174.19,159.55 173.81,160.41 C 173.79,160.45 173.77,160.49 173.75,160.53 C 173.72,160.5 173.68,160.47 173.66,160.44 C 173.09,159.74 172.54,159.09 171.91,158.31 C 172.8,158.19 173.89,158.03 174.88,157.88 z M 129.44,158.44 L 129.53,158.44 C 129.58,158.44 129.61,158.46 129.66,158.47 C 129.74,158.48 129.82,158.49 129.91,158.5 C 130.08,158.52 130.26,158.54 130.44,158.56 C 130.79,158.61 131.15,158.65 131.5,158.69 C 131.55,158.69 131.6,158.71 131.66,158.72 C 131.67,158.72 131.67,158.72 131.69,158.72 C 131.71,158.72 131.69,158.74 131.69,158.75 C 131.68,158.78 131.69,158.79 131.69,158.81 C 131.67,158.92 131.67,159.05 131.69,159.16 C 131.72,159.38 131.79,159.58 131.88,159.78 C 131.99,160.06 132.12,160.32 132.25,160.59 C 132.71,161.53 133.23,162.59 133.75,163.59 C 133.78,163.64 133.79,163.7 133.81,163.75 C 133.82,163.77 133.81,163.79 133.81,163.81 C 133.81,163.83 133.81,163.82 133.81,163.84 C 133.73,164.7 133.65,165.5 133.56,166.44 C 133.55,166.52 133.56,166.63 133.56,166.72 C 133.56,166.76 133.56,166.8 133.56,166.84 C 133.57,166.91 133.5,166.88 133.47,166.88 C 133.29,166.86 133.11,166.83 132.94,166.81 C 132.59,166.78 132.23,166.73 131.88,166.69 C 131.17,166.61 130.48,166.55 129.78,166.47 C 129.45,166.43 129.12,166.39 128.78,166.34 C 128.75,166.34 128.64,166.35 128.69,166.31 C 128.72,166.29 128.75,166.25 128.78,166.22 C 128.85,166.17 128.91,166.12 128.97,166.06 C 129.09,165.94 129.21,165.83 129.31,165.69 C 129.74,165.09 129.92,164.32 129.84,163.59 C 129.68,161.98 128.16,161.34 126.97,160.84 C 126.62,160.7 126.25,160.54 125.91,160.38 C 125.71,160.28 125.53,160.19 125.38,160.03 C 124.99,159.65 125.29,159.27 125.75,159.13 C 126.11,159.02 126.6,159.07 126.94,159.19 C 127.33,159.33 127.46,159.62 127.59,159.97 C 127.72,160.3 127.8,160.64 128.09,160.91 C 128.35,161.13 128.77,161.21 129.09,161.13 C 129.43,161.04 129.7,160.75 129.84,160.44 C 130.14,159.79 129.82,158.97 129.44,158.47 C 129.43,158.46 129.44,158.45 129.44,158.44 z M 169.53,158.59 C 169.57,158.59 169.56,158.63 169.56,158.66 C 169.57,158.76 169.56,158.87 169.59,158.97 C 169.72,159.38 169.99,159.68 170.25,160.0 C 170.79,160.67 171.35,161.31 171.91,161.97 C 172.2,162.31 172.49,162.66 172.78,163.0 C 172.81,163.04 172.81,163.09 172.81,163.13 C 172.93,164.01 173.04,164.86 173.19,165.84 C 173.2,165.92 173.22,166.02 173.25,166.09 C 173.27,166.15 173.19,166.12 173.16,166.13 C 173.12,166.13 173.07,166.12 173.03,166.13 C 171.86,166.28 170.59,166.45 169.34,166.59 C 169.33,166.6 169.31,166.62 169.31,166.59 C 169.31,166.57 169.31,166.55 169.31,166.53 C 169.31,166.49 169.29,166.45 169.28,166.41 C 169.26,166.24 169.22,166.08 169.13,165.94 C 168.93,165.64 168.62,165.49 168.28,165.47 C 168.03,165.45 167.78,165.51 167.53,165.53 C 166.48,165.64 165.27,165.74 164.09,165.84 C 164.09,165.84 164.06,165.86 164.06,165.84 C 164.02,165.28 163.96,164.6 163.94,164.0 C 164.16,163.98 164.4,163.96 164.63,163.94 C 165.22,163.89 165.81,163.84 166.41,163.78 C 166.7,163.75 166.99,163.72 167.28,163.69 C 167.43,163.67 167.58,163.65 167.72,163.59 C 168.31,163.36 168.53,162.67 168.22,162.13 C 167.85,161.46 167.12,161.63 166.56,161.69 C 166.03,161.74 165.5,161.8 164.97,161.84 C 164.7,161.87 164.45,161.88 164.19,161.91 C 164.05,161.92 163.91,161.93 163.78,161.94 C 163.73,161.94 163.75,161.87 163.75,161.84 C 163.72,161.42 163.66,160.95 163.63,160.5 C 163.62,160.48 163.63,160.47 163.66,160.47 C 163.69,160.47 163.72,160.47 163.75,160.47 C 163.81,160.46 163.88,160.44 163.94,160.44 C 164.99,160.35 166.06,160.25 167.25,160.13 C 167.65,160.08 168.04,159.94 168.22,159.53 C 168.31,159.33 168.35,159.15 168.31,158.94 C 168.3,158.89 168.3,158.83 168.28,158.78 C 168.28,158.77 168.26,158.75 168.28,158.75 L 168.31,158.75 C 168.68,158.71 169.04,158.67 169.44,158.63 C 169.46,158.62 169.51,158.6 169.53,158.59 z M 134.09,158.97 C 134.12,158.97 134.13,158.97 134.16,158.97 C 134.2,158.97 134.27,159.0 134.31,159.0 C 134.49,159.02 134.66,159.01 134.84,159.03 C 135.57,159.1 136.3,159.16 137.03,159.22 C 136.61,159.82 136.18,160.41 135.75,161.0 C 135.64,161.15 135.52,161.29 135.41,161.44 C 135.38,161.47 135.37,161.53 135.34,161.56 C 135.31,161.61 135.29,161.5 135.28,161.47 C 135.24,161.39 135.2,161.3 135.16,161.22 C 135.0,160.89 134.84,160.58 134.69,160.25 C 134.53,159.92 134.37,159.58 134.22,159.25 C 134.18,159.17 134.13,159.08 134.09,159.0 C 134.09,158.99 134.1,158.97 134.09,158.97 z M 161.19,159.38 C 161.22,159.37 161.19,159.45 161.19,159.47 C 161.18,159.49 161.16,159.5 161.16,159.53 C 161.12,159.73 161.14,159.95 161.16,160.16 C 161.3,162.29 161.44,164.47 161.59,166.72 C 161.61,166.91 161.65,167.1 161.72,167.28 C 161.29,167.31 160.84,167.35 160.41,167.38 C 160.19,167.39 159.97,167.39 159.75,167.41 C 159.64,167.41 159.55,167.43 159.44,167.44 C 159.38,167.44 159.34,167.43 159.28,167.44 C 159.26,167.44 159.21,167.48 159.22,167.44 C 159.22,167.41 159.22,167.37 159.22,167.34 C 159.25,167.09 159.23,166.85 159.22,166.59 C 159.11,164.58 158.99,162.47 158.88,160.34 C 158.86,160.08 158.87,159.82 158.81,159.56 C 158.81,159.55 158.82,159.54 158.81,159.53 C 158.81,159.51 158.83,159.53 158.84,159.53 C 158.87,159.53 158.88,159.53 158.91,159.53 C 158.96,159.53 159.04,159.53 159.09,159.53 C 159.2,159.53 159.3,159.51 159.41,159.5 C 159.62,159.49 159.85,159.48 160.06,159.47 C 160.28,159.46 160.47,159.42 160.69,159.41 C 160.8,159.4 160.92,159.41 161.03,159.41 C 161.09,159.4 161.13,159.38 161.19,159.38 z M 139.38,159.41 C 139.79,159.43 140.18,159.44 140.59,159.47 C 140.7,159.47 140.8,159.49 140.91,159.5 C 140.93,159.5 140.97,159.5 141.0,159.5 L 141.03,159.5 C 141.05,159.5 141.04,159.52 141.03,159.53 C 141.01,159.58 140.98,159.64 140.97,159.69 C 140.72,161.83 140.73,164.08 140.56,166.38 C 140.55,166.66 140.5,166.96 140.53,167.25 C 140.54,167.3 140.55,167.35 140.56,167.41 C 140.57,167.43 140.54,167.41 140.53,167.41 C 140.52,167.41 140.51,167.41 140.5,167.41 C 140.47,167.4 140.43,167.41 140.41,167.41 C 140.3,167.4 140.2,167.38 140.09,167.38 C 139.65,167.35 139.19,167.34 138.75,167.31 C 138.27,167.28 137.82,167.22 137.34,167.19 C 137.11,167.17 136.86,167.18 136.63,167.16 C 136.51,167.15 136.4,167.13 136.28,167.13 C 136.22,167.12 136.15,167.1 136.09,167.09 C 136.08,167.09 136.05,167.09 136.03,167.09 C 136.01,167.09 136.03,167.07 136.03,167.06 C 136.04,167.03 136.06,167.0 136.06,166.97 C 136.17,166.03 136.23,165.13 136.31,164.13 L 136.31,164.0 C 136.32,163.94 136.37,163.92 136.41,163.88 C 136.48,163.78 136.55,163.69 136.63,163.59 C 136.77,163.4 136.94,163.19 137.09,163.0 C 137.39,162.61 137.67,162.23 137.97,161.84 C 138.34,161.35 138.72,160.86 139.06,160.34 C 139.26,160.05 139.4,159.78 139.38,159.41 z M 156.5,159.63 C 156.52,159.62 156.57,159.63 156.56,159.66 C 156.56,159.67 156.53,159.7 156.53,159.72 C 156.55,161.03 156.63,162.73 156.69,164.16 C 155.74,162.8 154.69,161.3 153.69,159.78 C 153.68,159.77 153.66,159.76 153.66,159.75 C 153.65,159.74 153.63,159.72 153.66,159.72 C 154.08,159.71 154.49,159.7 154.91,159.69 C 155.44,159.67 155.97,159.65 156.5,159.63 z M 147.44,159.75 C 147.45,159.75 147.48,159.75 147.5,159.75 C 148.63,159.77 149.82,159.76 151.0,159.75 C 151.01,159.75 150.99,159.78 151.0,159.78 C 150.99,159.83 150.98,159.89 150.97,159.94 C 150.95,160.05 150.94,160.14 150.94,160.25 C 150.93,162.31 150.96,164.47 150.97,166.66 C 150.97,167.0 150.94,167.34 151.0,167.69 C 149.89,167.69 148.58,167.68 147.38,167.66 C 147.57,167.47 147.79,167.3 147.97,167.06 C 148.3,166.66 148.52,166.25 148.69,165.75 C 148.98,164.86 149.05,163.67 148.94,162.75 C 148.82,161.75 148.46,160.81 147.75,160.06 C 147.66,159.97 147.56,159.89 147.47,159.81 C 147.45,159.8 147.46,159.77 147.44,159.75 z M 143.31,160.94 C 143.92,160.96 144.56,160.98 145.16,161.13 C 145.8,161.24 146.23,161.83 146.34,162.44 C 146.49,163.27 146.47,164.18 146.25,165.0 C 146.08,165.61 145.65,166.23 144.97,166.31 C 144.35,166.34 143.71,166.31 143.09,166.28 C 143.17,164.5 143.24,162.72 143.31,160.94 z M 153.34,163.31 C 153.63,163.72 154.12,164.47 154.5,165.03 C 154.78,165.44 155.98,167.17 156.28,167.56 C 155.39,167.59 154.34,167.64 153.41,167.63 C 153.42,167.56 153.4,167.5 153.41,167.44 C 153.39,166.11 153.37,164.8 153.34,163.31 z" />
			
		<path id="shape" style="fill:#f00;stroke:none;"
			d="M 166.81,156.65 C 166.99,154.66 167.07,152.67 167.06,150.66 C 167.05,149.66 167.03,148.66 166.97,147.66 C 166.96,147.41 166.94,147.16 166.93,146.91 C 166.92,146.79 166.91,146.66 166.9,146.54 C 166.9,146.51 166.9,146.48 166.9,146.45 C 166.89,146.4 166.85,146.43 166.82,146.43 C 166.76,146.44 166.7,146.44 166.64,146.45 C 166.14,146.5 165.65,146.56 165.16,146.65 C 163.15,147.03 161.34,147.7 159.57,148.73 C 158.7,149.24 157.88,149.81 157.1,150.47 C 157.08,150.49 157.06,150.51 157.03,150.53 C 157.02,150.54 157.01,150.57 157.0,150.55 C 157.0,150.53 157.0,150.51 156.99,150.5 C 156.98,150.44 156.97,150.37 156.95,150.31 C 156.93,150.19 156.9,150.07 156.87,149.94 C 156.85,149.84 156.86,149.85 156.92,149.78 C 156.96,149.74 157.0,149.69 157.04,149.64 C 157.12,149.55 157.2,149.46 157.28,149.37 C 157.6,149.0 157.94,148.65 158.31,148.32 C 159.79,146.96 161.54,145.94 163.45,145.31 C 164.42,145.0 165.4,144.79 166.42,144.69 C 166.9,144.64 167.39,144.62 167.87,144.62 C 168.11,144.62 168.35,144.63 168.59,144.64 C 168.64,144.64 168.7,144.65 168.76,144.65 C 168.78,144.65 168.79,144.65 168.81,144.65 C 168.82,144.65 168.81,144.67 168.81,144.68 C 168.81,144.68 168.8,144.69 168.8,144.7 C 168.8,144.73 168.8,144.77 168.8,144.8 C 168.79,144.94 168.78,145.07 168.77,145.2 C 168.63,147.2 168.41,149.18 168.13,151.16 C 167.99,152.16 167.83,153.16 167.65,154.16 C 167.56,154.66 167.47,155.16 167.37,155.66 C 167.32,155.91 167.27,156.16 167.22,156.41 C 167.21,156.47 167.2,156.53 167.19,156.59 C 167.18,156.62 167.17,156.66 167.17,156.69 C 167.16,156.72 167.13,156.71 167.11,156.7 C 167.01,156.68 166.91,156.67 166.81,156.65 z M 155.92,155.19 C 155.7,149.91 153.09,145.01 148.83,141.88 C 146.72,140.33 144.3,139.28 141.73,138.8 C 141.65,138.79 141.58,138.77 141.5,138.76 C 141.44,138.75 141.44,138.8 141.43,138.83 C 141.41,138.87 141.39,138.91 141.37,138.94 C 141.3,139.09 141.23,139.25 141.17,139.4 C 141.03,139.71 140.92,140.02 140.81,140.34 C 140.61,140.98 140.46,141.63 140.37,142.3 C 140.33,142.54 140.33,142.75 140.3,142.98 C 140.3,143.0 140.31,143.04 140.29,143.02 C 140.22,142.98 140.15,142.94 140.07,142.89 C 140.0,142.85 139.93,142.81 139.86,142.76 C 139.74,142.7 139.77,142.7 139.76,142.58 C 139.74,142.42 139.73,142.27 139.71,142.12 C 139.66,141.5 139.64,140.88 139.64,140.26 C 139.64,139.6 139.67,138.93 139.73,138.27 C 139.77,137.75 139.84,137.32 139.9,136.85 C 139.91,136.83 139.89,136.8 139.92,136.8 C 140.08,136.81 140.23,136.82 140.38,136.83 C 141.67,136.94 142.91,137.19 144.15,137.58 C 146.64,138.37 148.92,139.71 150.82,141.5 C 152.72,143.29 154.2,145.49 155.14,147.93 C 155.63,149.2 155.96,150.49 156.14,151.84 C 156.23,152.48 156.28,153.12 156.3,153.76 C 156.31,154.08 156.3,154.39 156.3,154.7 C 156.29,154.85 156.28,155.01 156.28,155.16 C 156.27,155.18 156.27,155.2 156.27,155.22 C 156.27,155.25 156.24,155.22 156.23,155.22 C 156.19,155.22 156.16,155.21 156.12,155.21 C 156.06,155.2 155.99,155.2 155.92,155.19 z M 131.89,148.38 C 131.76,148.31 131.62,148.24 131.48,148.17 C 131.35,147.76 131.29,147.29 131.22,146.9 C 131.13,146.34 131.07,145.77 131.03,145.2 C 130.94,144.1 130.95,143.0 131.04,141.9 C 131.06,141.76 131.07,141.62 131.08,141.49 C 131.09,141.46 131.11,141.48 131.13,141.48 C 131.14,141.48 131.16,141.48 131.18,141.48 C 131.21,141.48 131.24,141.48 131.28,141.48 C 131.34,141.48 131.41,141.48 131.48,141.48 C 131.75,141.49 132.02,141.5 132.29,141.52 C 132.85,141.56 133.4,141.63 133.95,141.72 C 135.11,141.93 136.21,142.24 137.29,142.68 C 141.54,144.42 144.86,147.86 146.43,152.18 C 146.61,152.69 146.77,153.21 146.91,153.75 C 146.97,154.01 147.03,154.27 147.09,154.53 C 147.09,154.56 147.1,154.59 147.11,154.63 C 147.11,154.65 147.13,154.69 147.09,154.69 C 147.03,154.69 146.98,154.69 146.92,154.69 C 146.89,154.68 146.86,154.68 146.84,154.68 C 146.82,154.68 146.76,154.7 146.75,154.68 C 146.73,154.61 146.71,154.54 146.68,154.47 C 146.29,153.33 145.78,152.27 145.15,151.24 C 143.96,149.31 142.4,147.63 140.55,146.32 C 138.7,145.01 136.6,144.09 134.38,143.61 C 133.85,143.49 133.31,143.4 132.76,143.34 C 132.73,143.34 132.72,143.41 132.72,143.42 C 132.71,143.46 132.7,143.49 132.69,143.53 C 132.67,143.6 132.65,143.66 132.64,143.73 C 132.6,143.87 132.56,144.01 132.53,144.15 C 132.46,144.43 132.4,144.7 132.34,144.98 C 132.11,146.11 131.96,147.23 131.89,148.38 z M 169.28,166.75 C 170.54,166.61 171.79,166.45 173.05,166.28 C 173.13,166.27 173.21,166.26 173.28,166.25 C 173.31,166.25 173.34,166.33 173.35,166.34 C 173.36,166.38 173.38,166.41 173.41,166.44 C 173.5,166.58 173.61,166.69 173.75,166.78 C 174.02,166.95 174.36,167.0 174.68,166.94 C 175.02,166.88 175.26,166.74 175.46,166.44 C 175.55,166.3 175.61,166.16 175.64,166.0 C 175.65,165.98 175.65,165.91 175.68,165.9 C 175.72,165.9 175.76,165.89 175.8,165.89 C 175.88,165.87 175.95,165.86 176.03,165.85 C 176.35,165.8 176.66,165.75 176.97,165.7 C 177.26,165.66 177.53,165.57 177.84,165.67 C 178.53,165.9 178.56,166.78 177.88,167.04 C 177.69,167.11 176.2,167.32 176.01,167.35 C 175.37,167.44 174.73,167.54 174.09,167.63 C 169.09,168.33 164.08,168.81 159.03,169.07 C 148.9,169.59 138.91,169.23 128.84,167.97 C 127.59,167.82 126.34,167.65 125.09,167.46 C 124.46,167.37 123.84,167.28 123.21,167.18 C 122.9,167.13 122.59,167.08 122.28,167.03 C 122.0,166.98 121.72,166.98 121.48,166.76 C 121.24,166.55 121.18,166.2 121.33,165.91 C 121.47,165.66 121.76,165.52 122.03,165.51 C 122.18,165.5 122.32,165.54 122.46,165.56 C 122.53,165.57 122.61,165.58 122.69,165.6 C 122.71,165.6 122.73,165.59 122.74,165.61 C 122.76,165.63 122.78,165.65 122.8,165.67 C 122.84,165.71 122.88,165.75 122.92,165.79 C 123.18,166.05 123.46,166.24 123.78,166.41 C 124.81,166.94 126.38,167.14 127.51,166.85 C 127.82,166.77 128.12,166.66 128.4,166.5 C 128.42,166.49 128.43,166.48 128.45,166.47 C 128.47,166.46 128.48,166.44 128.5,166.44 C 128.54,166.45 128.58,166.45 128.62,166.46 C 128.7,166.47 128.77,166.48 128.85,166.49 C 129.01,166.51 129.16,166.53 129.32,166.54 C 129.94,166.62 130.56,166.69 131.18,166.76 C 131.8,166.83 132.42,166.9 133.05,166.96 C 133.2,166.98 133.36,166.99 133.51,167.01 C 133.53,167.01 133.55,167.01 133.57,167.01 C 133.6,167.02 133.58,167.05 133.59,167.06 C 133.6,167.1 133.61,167.14 133.62,167.18 C 133.64,167.25 133.67,167.33 133.71,167.4 C 133.89,167.71 134.11,167.87 134.45,167.96 C 134.79,168.06 135.08,168.04 135.4,167.88 C 135.54,167.81 135.66,167.72 135.77,167.59 C 135.82,167.53 135.87,167.47 135.9,167.4 C 135.92,167.36 135.94,167.33 135.96,167.29 C 135.97,167.27 135.97,167.26 135.98,167.24 C 135.99,167.22 136.0,167.23 136.01,167.23 C 136.02,167.24 136.03,167.24 136.04,167.24 C 136.66,167.29 137.28,167.34 137.91,167.38 C 138.53,167.43 139.15,167.47 139.78,167.51 C 139.93,167.52 140.09,167.53 140.25,167.53 C 140.32,167.54 140.4,167.54 140.48,167.55 C 140.52,167.55 140.56,167.55 140.6,167.55 C 140.62,167.56 140.64,167.64 140.65,167.65 C 140.8,167.99 141.02,168.14 141.36,168.25 C 141.75,168.37 142.14,168.35 142.53,168.37 C 143.0,168.39 143.47,168.41 143.94,168.43 C 144.48,168.44 145.01,168.46 145.54,168.39 C 145.97,168.34 146.36,168.23 146.74,168.05 C 146.83,168.0 146.93,167.95 147.01,167.9 C 147.06,167.87 147.1,167.85 147.14,167.82 C 147.22,167.77 147.29,167.8 147.36,167.8 C 147.69,167.81 148.02,167.81 148.36,167.81 C 149.02,167.82 149.68,167.82 150.34,167.82 C 150.51,167.82 150.67,167.82 150.84,167.82 C 150.88,167.82 150.92,167.82 150.96,167.82 C 150.98,167.82 151.0,167.82 151.02,167.82 C 151.05,167.82 151.04,167.85 151.05,167.87 C 151.08,167.95 151.11,168.02 151.15,168.1 C 151.32,168.4 151.6,168.61 151.94,168.67 C 152.28,168.73 152.64,168.67 152.92,168.47 C 153.06,168.36 153.16,168.24 153.25,168.09 C 153.29,168.01 153.32,167.94 153.34,167.86 C 153.35,167.84 153.35,167.82 153.36,167.8 C 153.36,167.78 153.38,167.79 153.39,167.79 C 153.4,167.79 153.41,167.79 153.42,167.79 C 153.46,167.79 153.5,167.79 153.54,167.79 C 154.2,167.78 154.87,167.76 155.53,167.74 C 155.78,167.73 156.03,167.72 156.28,167.71 C 156.31,167.71 156.35,167.71 156.38,167.71 C 156.39,167.71 156.4,167.71 156.41,167.72 C 156.42,167.74 156.43,167.75 156.44,167.76 C 156.5,167.83 156.55,167.9 156.61,167.96 C 157.01,168.39 157.4,168.57 157.99,168.53 C 158.54,168.49 158.98,168.22 159.16,167.67 C 159.16,167.66 159.16,167.59 159.19,167.58 C 159.22,167.58 159.25,167.58 159.28,167.58 C 159.34,167.58 159.41,167.57 159.47,167.57 C 159.6,167.56 159.72,167.55 159.85,167.55 C 160.1,167.53 160.35,167.52 160.6,167.5 C 160.85,167.49 161.11,167.47 161.36,167.46 C 161.48,167.45 161.61,167.44 161.73,167.43 C 161.77,167.43 161.78,167.45 161.8,167.48 C 161.81,167.51 161.83,167.54 161.85,167.56 C 161.89,167.61 161.93,167.66 161.97,167.71 C 162.17,167.91 162.39,167.99 162.66,168.03 C 163.08,168.09 163.47,168.02 163.88,167.99 C 165.26,167.88 166.64,167.75 168.02,167.6 C 168.56,167.55 169.14,167.39 169.28,166.75 z M 177.24,157.39 C 177.04,156.96 176.59,156.72 176.13,156.75 C 175.65,156.78 175.39,156.97 175.15,157.38 C 175.11,157.44 175.08,157.51 175.04,157.58 C 175.03,157.61 175.01,157.65 175.0,157.69 C 174.99,157.7 174.98,157.72 174.97,157.74 C 173.92,157.94 172.81,158.07 171.83,158.2 C 171.76,158.11 171.69,158.03 171.61,157.95 C 171.46,157.78 171.31,157.63 171.08,157.56 C 170.67,157.42 170.16,157.55 169.86,157.86 C 169.7,158.04 169.6,158.21 169.56,158.45 C 169.56,158.47 169.56,158.48 169.56,158.49 C 169.55,158.52 169.53,158.5 169.52,158.5 C 169.1,158.55 168.65,158.6 168.25,158.65 C 168.21,158.65 168.21,158.63 168.19,158.6 C 168.18,158.58 168.17,158.55 168.15,158.53 C 168.12,158.48 168.09,158.44 168.05,158.4 C 167.97,158.31 167.88,158.25 167.78,158.2 C 167.57,158.09 167.37,158.07 167.14,158.09 C 166.62,158.12 166.12,158.19 165.61,158.24 C 165.04,158.29 164.48,158.34 163.91,158.39 C 163.39,158.44 162.87,158.46 162.36,158.52 C 161.91,158.57 161.49,158.73 161.27,159.17 C 161.26,159.2 161.25,159.22 161.24,159.25 C 161.23,159.28 161.2,159.28 161.18,159.28 C 160.37,159.34 159.57,159.39 158.79,159.43 C 158.75,159.43 158.72,159.31 158.71,159.29 C 158.3,158.39 156.98,158.42 156.63,159.35 C 156.62,159.37 156.6,159.53 156.55,159.53 C 155.55,159.57 154.55,159.6 153.58,159.62 C 153.56,159.62 153.57,159.61 153.56,159.6 C 153.56,159.59 153.55,159.58 153.55,159.57 C 153.38,159.33 153.22,159.11 152.95,158.95 C 152.54,158.72 152.11,158.74 151.7,158.94 C 151.44,159.08 151.26,159.25 151.12,159.52 C 151.1,159.55 151.09,159.58 151.07,159.61 C 151.07,159.62 151.06,159.64 151.05,159.65 C 151.05,159.68 151.03,159.66 151.01,159.66 C 149.78,159.66 148.58,159.65 147.4,159.63 C 147.36,159.63 147.33,159.63 147.29,159.63 C 147.25,159.63 147.23,159.6 147.21,159.58 C 147.15,159.54 147.09,159.5 147.03,159.47 C 146.01,158.81 144.64,158.89 143.56,158.84 C 143.18,158.83 142.81,158.81 142.43,158.79 C 142.15,158.78 141.89,158.79 141.62,158.91 C 141.49,158.96 141.38,159.04 141.28,159.14 C 141.23,159.19 141.19,159.24 141.15,159.3 C 141.13,159.33 141.11,159.36 141.1,159.39 C 141.08,159.41 141.01,159.4 141.0,159.4 C 140.71,159.38 140.43,159.37 140.15,159.35 C 140.01,159.34 139.87,159.33 139.73,159.32 C 139.66,159.32 139.58,159.31 139.51,159.31 C 139.48,159.31 139.44,159.3 139.41,159.3 C 139.4,159.3 139.39,159.3 139.38,159.3 C 139.37,159.3 139.36,159.31 139.36,159.3 C 139.35,159.28 139.35,159.26 139.35,159.25 C 139.28,158.94 139.14,158.75 138.89,158.57 C 138.41,158.23 137.8,158.33 137.41,158.75 C 137.34,158.81 137.28,158.88 137.22,158.96 C 137.19,159.0 137.16,159.04 137.14,159.08 C 137.12,159.09 137.11,159.11 137.1,159.13 C 137.08,159.15 137.07,159.13 137.05,159.13 C 137.03,159.13 137.02,159.13 137.0,159.12 C 136.96,159.12 136.93,159.12 136.89,159.12 C 136.33,159.07 135.77,159.02 135.2,158.97 C 134.96,158.94 134.71,158.92 134.46,158.9 C 134.34,158.89 134.21,158.87 134.09,158.86 C 133.99,158.85 134.01,158.84 133.97,158.76 C 133.94,158.7 133.91,158.65 133.88,158.59 C 133.61,158.1 133.33,157.85 132.73,157.88 C 132.46,157.9 132.26,157.98 132.06,158.15 C 131.97,158.23 131.89,158.31 131.82,158.42 C 131.79,158.47 131.76,158.53 131.74,158.59 C 131.72,158.63 131.6,158.59 131.57,158.59 C 131.08,158.53 130.58,158.47 130.09,158.41 C 129.84,158.38 129.6,158.35 129.35,158.32 C 129.32,158.31 129.24,158.22 129.22,158.2 C 129.18,158.16 129.13,158.11 129.09,158.07 C 129.0,157.99 128.9,157.92 128.81,157.84 C 128.4,157.56 127.98,157.37 127.5,157.25 C 126.63,157.02 125.54,156.96 124.66,157.27 C 124.54,157.31 124.43,157.36 124.32,157.41 C 124.27,157.44 124.21,157.47 124.16,157.5 C 124.13,157.51 124.11,157.53 124.08,157.55 C 124.04,157.57 124.02,157.54 123.99,157.54 C 123.75,157.5 123.5,157.45 123.26,157.41 C 123.02,157.37 122.78,157.37 122.56,157.23 C 122.34,157.09 122.19,156.86 122.16,156.6 C 122.09,156.08 122.48,155.61 123.0,155.59 C 123.25,155.58 123.48,155.65 123.72,155.69 C 124.26,155.79 124.74,155.86 125.3,155.95 C 125.27,155.87 125.24,155.79 125.21,155.73 C 125.17,155.62 125.12,155.5 125.08,155.39 C 124.91,154.93 124.76,154.46 124.63,154.0 C 124.37,153.08 124.18,152.16 124.06,151.21 C 123.93,150.26 123.88,149.3 123.9,148.34 C 123.91,148.12 123.92,147.93 123.93,147.73 C 123.93,147.72 123.91,147.69 123.93,147.69 C 123.95,147.69 123.96,147.69 123.98,147.69 C 124.22,147.68 124.45,147.67 124.69,147.68 C 125.17,147.68 125.65,147.7 126.13,147.75 C 128.16,147.96 129.97,148.53 131.76,149.51 C 133.52,150.48 134.95,151.68 136.21,153.26 C 136.51,153.63 136.78,154.01 137.04,154.41 C 137.11,154.51 137.17,154.61 137.24,154.71 C 137.25,154.74 137.27,154.76 137.28,154.79 C 137.29,154.8 137.3,154.82 137.31,154.83 C 137.32,154.84 137.29,154.84 137.28,154.84 C 137.24,154.84 137.19,154.84 137.14,154.85 C 137.09,154.85 137.05,154.85 137.0,154.85 C 136.97,154.85 136.95,154.86 136.93,154.86 C 136.89,154.86 136.88,154.83 136.86,154.81 C 136.77,154.71 136.68,154.62 136.59,154.53 C 135.86,153.81 135.08,153.15 134.24,152.56 C 132.62,151.43 130.94,150.63 129.04,150.1 C 128.07,149.82 127.09,149.64 126.08,149.53 C 125.96,149.52 125.83,149.5 125.7,149.49 C 125.61,149.82 125.58,150.24 125.54,150.56 C 125.48,151.04 125.45,151.53 125.43,152.02 C 125.4,153.01 125.45,153.99 125.56,154.97 C 125.6,155.34 125.66,155.64 125.71,155.98 C 125.71,155.99 125.7,156.01 125.73,156.02 C 126.34,156.11 127.01,156.21 127.55,156.29 C 129.46,156.56 131.37,156.79 133.28,157.0 C 141.07,157.82 148.81,158.07 156.64,157.76 C 160.54,157.6 164.42,157.3 168.29,156.86 C 170.64,156.58 172.73,156.3 174.79,155.99 C 174.82,155.98 174.85,155.98 174.88,155.97 C 174.89,155.97 174.92,155.98 174.91,155.96 C 174.91,155.94 174.91,155.93 174.91,155.91 C 174.91,155.85 174.9,155.79 174.9,155.73 C 174.89,155.61 174.88,155.49 174.87,155.36 C 174.8,154.36 174.68,153.37 174.57,152.44 C 174.54,152.2 174.5,151.96 174.47,151.72 C 174.47,151.69 174.46,151.66 174.46,151.62 C 174.45,151.61 174.44,151.62 174.43,151.62 C 174.43,151.62 174.42,151.62 174.41,151.62 C 174.4,151.62 174.38,151.62 174.37,151.62 C 174.31,151.61 174.24,151.61 174.18,151.6 C 174.06,151.6 173.94,151.59 173.82,151.58 C 172.81,151.54 171.81,151.58 170.81,151.72 C 170.31,151.79 169.82,151.88 169.33,151.99 C 169.27,152.01 169.21,152.02 169.14,152.04 C 169.12,152.04 169.07,152.07 169.08,152.03 C 169.08,152.0 169.09,151.97 169.09,151.94 C 169.11,151.81 169.13,151.69 169.15,151.56 C 169.16,151.5 169.17,151.44 169.17,151.38 C 169.18,151.35 169.18,151.32 169.19,151.29 C 169.19,151.25 169.22,151.24 169.25,151.23 C 169.35,151.17 169.46,151.12 169.57,151.07 C 171.33,150.28 173.07,149.87 175.0,149.82 C 175.44,149.81 175.88,149.82 176.32,149.85 C 176.33,149.85 176.34,149.85 176.36,149.85 C 176.38,149.85 176.37,149.87 176.37,149.89 C 176.37,149.92 176.36,149.95 176.36,149.98 C 176.36,150.04 176.35,150.1 176.35,150.16 C 176.34,150.29 176.33,150.41 176.32,150.54 C 176.3,150.78 176.28,151.03 176.26,151.28 C 176.14,152.86 175.97,154.26 175.78,155.71 C 175.78,155.74 175.78,155.77 175.77,155.8 C 175.77,155.82 175.77,155.83 175.79,155.83 C 175.8,155.83 175.82,155.82 175.83,155.82 C 176.26,155.75 176.72,155.68 177.12,155.61 C 177.65,155.52 178.14,155.87 178.18,156.41 C 178.19,156.67 178.1,156.93 177.91,157.11 C 177.71,157.3 177.49,157.34 177.24,157.39 z" />
			
		<!-- Prism Reference -->
		<cam mingh:cam="--verb EditSelectAll --verb ZoomSelection --verb FileSave " />  
	 </g>

</svg>
