<svg
   xmlns:xlink="http://www.w3.org/1999/xlink"
   xmlns:svg="http://www.w3.org/2000/svg"
   xmlns="http://www.w3.org/2000/svg"
   xmlns:mingh="http://www.minghworld.com"
   width="300px"
   height="300px" >
    
	 <g>
		<!-- Paths -->
		<path id="shape" transform="matrix(-1 0 0 1 300 0)" style="fill:#ff0;stroke:none;"
			d="M 148.06,131.75 C 147.48,131.8 146.89,131.99 146.34,132.31 C 144.19,133.58 143.67,136.44 145.25,138.38 C 144.34,138.02 142.84,137.54 141.84,137.47 C 141.55,137.45 141.26,137.47 140.97,137.5 C 140.82,137.52 140.68,137.54 140.53,137.53 C 140.38,137.53 140.24,137.51 140.09,137.56 C 139.87,137.64 139.59,137.98 139.44,138.13 C 139.22,138.33 138.97,138.47 138.78,138.72 C 138.61,138.95 138.52,139.28 138.66,139.56 C 138.79,139.85 139.16,139.95 139.41,140.0 C 139.7,140.06 139.98,140.08 140.28,140.09 C 140.3,140.09 140.33,140.09 140.34,140.09 C 140.36,140.09 140.34,140.12 140.34,140.13 C 140.34,140.13 140.34,140.15 140.34,140.16 C 140.34,140.19 140.35,140.21 140.34,140.25 C 140.33,140.32 140.33,140.4 140.31,140.47 C 140.28,140.61 140.23,140.76 140.19,140.91 C 140.03,141.47 139.93,142.04 139.88,142.63 C 139.85,142.92 139.82,143.21 139.81,143.5 C 139.81,143.65 139.78,143.79 139.78,143.94 C 139.78,144.01 139.78,144.08 139.78,144.16 C 139.78,144.19 139.78,144.24 139.78,144.28 C 139.78,144.3 139.8,144.32 139.78,144.31 C 139.76,144.3 139.74,144.29 139.72,144.28 C 137.57,143.19 135.39,142.59 133.03,142.25 C 132.45,142.17 131.87,142.08 131.28,142.03 C 131.1,142.02 129.71,141.96 129.53,141.97 C 129.21,141.98 128.96,142.04 128.75,142.31 C 128.58,142.53 128.48,142.85 128.63,143.13 C 128.7,143.27 128.8,143.34 128.94,143.41 C 129.0,143.44 129.09,143.47 129.16,143.5 C 129.23,143.53 129.28,143.56 129.28,143.66 C 129.29,143.88 129.06,144.28 129.0,144.47 C 128.9,144.79 129.0,145.08 129.31,145.22 C 129.61,145.35 129.86,145.29 130.16,145.28 C 130.3,145.27 130.48,145.28 130.63,145.28 C 130.66,145.28 130.68,145.28 130.72,145.28 C 130.76,145.28 130.72,145.35 130.72,145.38 C 130.71,145.45 130.73,145.52 130.72,145.59 C 130.69,145.89 130.65,146.17 130.66,146.47 C 130.67,147.06 130.73,147.63 130.78,148.22 C 130.81,148.51 130.84,148.8 130.88,149.09 C 130.89,149.24 130.91,149.39 130.94,149.53 C 130.94,149.56 130.92,149.54 130.91,149.53 C 130.89,149.52 130.86,149.51 130.84,149.5 C 130.81,149.49 130.78,149.48 130.75,149.47 C 130.68,149.44 130.6,149.43 130.53,149.41 C 129.4,149.03 128.27,148.83 127.09,148.72 C 127.02,148.71 126.95,148.73 126.88,148.72 C 126.82,148.71 126.85,148.66 126.84,148.63 C 126.84,148.59 126.82,148.54 126.81,148.5 C 126.79,148.35 126.79,148.21 126.75,148.06 C 126.67,147.76 126.58,147.54 126.31,147.34 C 125.86,147.0 125.08,147.09 124.63,147.31 C 124.34,147.45 124.14,147.62 124.0,147.91 C 123.93,148.04 123.88,148.17 123.84,148.31 C 123.82,148.38 123.83,148.46 123.81,148.53 C 123.81,148.56 123.77,148.53 123.75,148.53 L 123.69,148.53 C 123.65,148.53 123.63,148.53 123.59,148.53 C 123.3,148.52 123.01,148.5 122.72,148.53 C 122.41,148.57 122.12,148.7 122.13,149.06 C 122.13,149.21 122.2,149.35 122.19,149.5 C 122.18,149.65 122.14,149.79 122.13,149.94 C 122.1,150.31 122.18,150.45 122.31,150.78 C 122.43,151.07 122.54,151.3 122.88,151.41 C 123.17,151.5 123.45,151.51 123.75,151.5 C 123.77,151.5 123.79,151.5 123.81,151.5 C 123.84,151.5 123.84,151.51 123.84,151.53 C 123.85,151.57 123.84,151.62 123.84,151.66 C 123.85,151.73 123.87,151.8 123.88,151.88 C 123.89,152.02 123.91,152.17 123.94,152.31 C 123.99,152.6 124.03,152.87 124.09,153.16 C 124.16,153.44 124.24,153.75 124.31,154.03 C 124.33,154.1 124.36,154.18 124.38,154.25 C 124.38,154.29 124.4,154.31 124.41,154.34 C 124.41,154.37 124.36,154.34 124.34,154.34 C 124.33,154.34 124.33,154.34 124.31,154.34 C 124.17,154.34 123.99,154.36 123.84,154.38 C 122.67,154.48 121.51,154.95 120.59,155.69 C 119.61,156.48 118.99,157.5 118.69,158.72 C 118.37,159.96 118.41,161.29 119.0,162.47 C 119.54,163.54 120.47,164.41 121.53,164.94 C 122.61,165.47 123.7,165.66 124.88,165.78 C 126.04,165.9 127.21,165.98 128.38,166.06 C 128.52,166.07 129.11,166.09 129.25,166.13 C 129.48,166.18 129.66,166.31 129.69,166.56 C 129.71,166.7 129.7,166.84 129.66,166.97 C 129.61,167.12 129.57,167.24 129.69,167.38 C 129.86,167.58 130.28,167.58 130.5,167.59 C 131.08,167.62 131.64,167.61 132.22,167.63 C 132.8,167.64 133.39,167.67 133.97,167.72 C 135.12,167.81 136.26,167.91 137.41,168.0 C 139.9,168.19 142.4,168.29 144.91,168.25 C 145.59,168.24 147.93,168.23 148.56,167.63 C 148.69,167.5 148.74,167.38 148.69,167.19 C 148.67,167.11 148.62,167.06 148.56,167.0 C 148.55,166.99 148.55,166.98 148.53,166.97 C 148.52,166.96 148.55,166.94 148.56,166.94 C 148.6,166.94 148.65,166.94 148.69,166.94 C 149.0,166.94 149.31,166.96 149.63,166.97 C 150.26,166.98 150.87,166.99 151.5,167.0 C 154.03,167.05 156.56,167.12 159.09,167.16 C 160.13,167.17 161.18,167.19 162.22,167.13 C 162.69,167.09 163.16,167.03 163.63,166.94 C 163.93,166.88 164.35,166.78 164.59,166.53 C 164.8,166.32 164.82,166.03 164.63,165.81 C 164.33,165.49 163.83,165.63 163.56,165.22 C 163.32,164.84 163.49,164.34 163.91,164.19 C 164.12,164.11 164.57,164.15 164.78,164.16 C 165.09,164.17 165.41,164.2 165.72,164.22 C 168.21,164.33 170.69,164.55 173.19,164.53 C 174.51,164.52 175.82,164.44 177.13,164.16 C 178.42,163.87 179.65,163.39 180.5,162.25 C 181.27,161.22 181.66,159.82 181.41,158.53 C 181.15,157.25 180.32,156.22 179.25,155.56 C 178.74,155.25 178.18,155.05 177.59,154.91 C 177.56,154.9 177.54,154.88 177.5,154.88 C 177.48,154.87 177.4,154.88 177.41,154.84 C 177.41,154.77 177.43,154.7 177.44,154.63 C 177.45,154.47 177.45,154.28 177.47,154.13 C 177.48,154.05 177.49,153.99 177.5,153.91 C 177.51,153.87 177.53,153.82 177.53,153.78 C 177.53,153.76 177.5,153.75 177.53,153.75 C 177.55,153.75 177.58,153.72 177.59,153.72 C 177.74,153.71 177.89,153.7 178.03,153.69 C 178.32,153.66 178.59,153.65 178.88,153.59 C 179.17,153.54 179.45,153.48 179.72,153.34 C 179.93,153.24 180.13,153.09 180.13,152.81 C 180.12,152.6 179.98,152.19 179.91,152.0 C 179.56,151.11 179.16,151.44 178.47,151.44 C 178.32,151.44 178.18,151.42 178.03,151.41 C 177.99,151.4 177.97,151.41 177.94,151.41 C 177.92,151.4 177.87,151.4 177.88,151.38 C 177.88,151.36 177.87,151.36 177.88,151.34 C 177.88,151.27 177.91,151.2 177.91,151.13 C 177.91,150.83 177.92,150.54 177.88,150.25 C 177.84,150.03 177.67,149.56 177.38,149.53 C 177.24,149.52 177.09,149.66 177.0,149.72 C 176.87,149.81 176.75,149.86 176.59,149.88 C 176.3,149.9 176.02,149.82 175.72,149.91 C 175.43,149.99 175.21,150.23 175.13,150.5 C 175.08,150.64 175.07,150.79 175.06,150.94 C 175.06,151.01 175.03,151.08 175.03,151.16 C 175.03,151.19 175.06,151.24 175.06,151.28 C 175.06,151.34 175.0,151.31 174.97,151.31 C 174.68,151.34 174.38,151.39 174.09,151.44 C 173.51,151.54 172.95,151.65 172.38,151.81 C 172.07,151.9 171.77,152.02 171.47,152.13 C 171.31,152.18 171.13,152.22 170.97,152.28 C 170.89,152.31 170.8,152.37 170.72,152.41 C 170.7,152.41 170.68,152.4 170.66,152.41 C 170.64,152.41 170.62,152.47 170.63,152.44 C 170.63,152.4 170.62,152.35 170.63,152.31 C 170.67,152.03 170.71,151.76 170.75,151.47 C 170.76,151.4 170.77,151.32 170.78,151.25 C 170.79,151.19 170.84,151.22 170.88,151.22 C 170.91,151.22 170.96,151.22 171.0,151.22 C 171.15,151.23 171.29,151.24 171.44,151.25 C 171.59,151.26 171.73,151.26 171.88,151.22 C 172.03,151.18 172.17,151.12 172.28,151.0 C 172.5,150.78 172.45,150.42 172.41,150.16 C 172.34,149.79 172.15,149.69 171.81,149.63 C 171.67,149.6 171.52,149.56 171.38,149.56 C 171.3,149.56 171.23,149.56 171.16,149.56 C 171.12,149.56 171.1,149.56 171.06,149.56 C 171.03,149.56 170.96,149.58 170.97,149.53 C 170.99,149.24 171.02,148.95 171.03,148.66 C 171.04,148.51 171.06,148.36 171.06,148.22 C 171.07,148.15 171.06,148.1 171.06,148.03 C 171.06,147.99 171.06,147.94 171.06,147.91 L 171.06,147.84 C 171.06,147.83 171.09,147.84 171.09,147.84 C 171.1,147.84 171.12,147.84 171.13,147.84 C 171.44,147.81 171.64,147.73 171.81,147.44 C 171.89,147.31 172.01,147.24 172.13,147.16 C 172.26,147.06 172.33,146.96 172.31,146.78 C 172.3,146.6 172.21,146.54 172.09,146.44 C 171.9,146.26 172.02,146.23 171.97,146.03 C 171.88,145.69 171.53,145.6 171.25,145.56 C 171.18,145.55 171.11,145.57 171.03,145.56 C 171.0,145.56 170.97,145.49 170.97,145.47 C 170.96,145.43 170.98,145.38 170.97,145.34 C 170.94,145.2 170.89,145.08 170.84,144.94 C 170.75,144.64 170.64,144.4 170.41,144.19 C 169.98,143.81 169.26,143.62 168.72,143.88 C 168.15,144.15 168.05,144.9 168.03,145.41 C 168.03,145.44 168.03,145.49 168.03,145.53 C 168.03,145.58 167.97,145.56 167.94,145.56 C 167.86,145.57 167.79,145.58 167.72,145.59 C 167.57,145.61 167.43,145.63 167.28,145.66 C 166.99,145.7 166.69,145.77 166.41,145.84 C 165.83,145.98 165.28,146.14 164.72,146.34 C 163.61,146.75 162.57,147.26 161.56,147.88 C 160.59,148.46 159.71,149.1 158.91,149.91 C 158.49,150.32 158.09,150.76 157.72,151.22 C 157.67,151.28 157.64,151.35 157.59,151.41 C 157.58,151.42 157.57,151.42 157.56,151.44 C 157.55,151.46 157.53,151.42 157.53,151.41 C 157.52,151.37 157.51,151.35 157.5,151.31 C 157.46,151.17 157.42,151.02 157.38,150.88 C 157.29,150.59 157.22,150.31 157.13,150.03 C 156.37,147.79 155.23,145.64 153.66,143.84 C 152.87,142.95 152.01,142.18 151.06,141.47 C 150.59,141.11 150.13,140.78 149.63,140.47 C 149.37,140.31 149.1,140.15 148.84,140.0 C 148.78,139.96 148.72,139.94 148.66,139.91 C 148.65,139.9 148.6,139.88 148.63,139.88 C 148.64,139.87 148.67,139.88 148.69,139.88 C 148.72,139.87 148.75,139.88 148.78,139.88 C 148.92,139.86 149.05,139.84 149.19,139.81 C 151.66,139.32 153.1,136.73 152.22,134.38 C 151.55,132.6 149.82,131.6 148.06,131.75 z M 148.44,133.84 C 149.21,133.86 149.93,134.35 150.22,135.13 C 150.6,136.13 150.1,137.24 149.09,137.63 C 148.09,138.01 146.98,137.51 146.59,136.5 C 146.21,135.49 146.71,134.38 147.72,134.0 C 147.84,133.95 147.97,133.9 148.09,133.88 C 148.21,133.86 148.33,133.84 148.44,133.84 z M 142.59,140.56 C 142.84,140.71 143.09,140.88 143.34,141.06 C 143.89,141.46 144.43,141.96 144.91,142.47 C 145.49,143.1 145.97,143.75 146.34,144.34 C 147.12,145.57 147.47,146.59 147.75,147.66 C 148.22,149.43 148.53,151.27 148.03,153.53 C 147.91,153.21 147.79,152.9 147.66,152.59 C 147.46,152.14 147.24,151.72 147.0,151.28 C 146.55,150.45 146.02,149.65 145.44,148.91 C 144.9,148.21 144.31,147.56 143.66,146.97 C 143.39,146.73 143.13,146.51 142.84,146.28 C 142.56,146.05 142.24,145.8 141.94,145.59 C 141.93,145.28 141.94,144.97 141.94,144.66 C 141.94,144.17 141.95,143.7 142.0,143.22 C 142.02,143.05 142.03,142.85 142.06,142.69 C 142.09,142.55 142.12,142.42 142.16,142.28 C 142.19,142.15 142.22,142.03 142.25,141.91 C 142.3,141.7 142.35,141.49 142.41,141.28 C 142.47,141.04 142.52,140.8 142.59,140.56 z M 147.34,142.34 C 148.07,142.84 148.69,143.48 149.19,144.16 C 150.21,145.54 150.74,147.05 150.97,148.66 C 151.08,149.42 151.12,150.19 151.13,150.94 C 151.13,151.47 151.11,152.0 151.09,152.63 C 151.09,152.87 151.08,153.12 151.22,153.25 C 151.33,153.35 151.53,153.38 151.72,153.38 C 151.97,153.37 152.22,153.32 152.34,153.16 C 152.43,153.04 152.45,152.86 152.47,152.69 C 152.54,151.93 152.53,151.25 152.53,150.56 C 152.53,149.38 152.46,148.17 152.16,147.0 C 152.05,146.61 151.93,146.22 151.78,145.84 C 152.41,146.67 152.97,147.59 153.44,148.5 C 154.25,150.08 154.83,151.67 155.22,153.31 C 155.32,153.75 155.42,154.19 155.5,154.63 C 154.99,155.1 154.48,155.59 154.03,156.13 C 153.8,156.4 153.61,156.69 153.41,156.97 C 153.2,157.26 152.99,157.56 152.78,157.88 C 152.65,158.07 152.5,158.28 152.5,158.5 C 152.5,158.66 152.57,158.82 152.69,158.94 C 152.84,159.09 153.08,159.17 153.28,159.13 C 153.45,159.09 153.58,158.96 153.69,158.81 C 153.79,158.66 153.86,158.5 153.94,158.34 C 154.1,158.0 154.32,157.68 154.56,157.38 C 154.51,157.61 154.49,157.85 154.59,158.06 C 154.66,158.2 154.8,158.32 154.94,158.38 C 155.14,158.46 155.39,158.44 155.56,158.31 C 155.68,158.23 155.74,158.09 155.81,157.97 C 155.82,158.29 155.85,158.62 155.84,158.94 C 155.84,159.54 155.8,160.15 155.75,160.75 C 154.73,160.69 153.82,160.61 152.84,160.53 C 151.57,160.42 150.15,160.28 148.78,160.19 C 148.21,160.15 147.65,160.13 147.09,160.09 C 146.93,160.08 146.76,160.06 146.59,160.09 C 146.44,160.12 146.31,160.2 146.22,160.41 C 146.15,160.57 146.12,160.82 146.16,161.0 C 146.19,161.17 146.28,161.25 146.38,161.31 C 146.47,161.38 146.58,161.44 146.69,161.47 C 147.03,161.57 147.37,161.6 147.72,161.66 C 147.9,161.68 148.1,161.72 148.28,161.75 C 148.25,161.75 148.19,161.75 148.16,161.75 C 147.32,161.73 146.48,161.71 145.56,161.72 C 145.16,161.72 144.77,161.73 144.5,161.78 C 144.43,161.79 144.37,161.81 144.31,161.84 C 144.23,161.9 144.16,161.99 144.13,162.13 C 144.09,162.27 144.1,162.44 144.16,162.56 C 144.21,162.68 144.3,162.73 144.41,162.78 C 144.65,162.89 145.0,162.91 145.34,162.94 C 145.89,162.98 146.42,163.04 146.94,163.09 C 148.77,163.28 150.63,163.41 152.47,163.53 C 153.41,163.59 154.34,163.66 155.28,163.72 C 155.25,163.89 155.22,164.07 155.19,164.25 C 153.37,164.19 151.64,164.12 149.81,164.0 C 144.15,163.64 137.54,162.86 131.53,162.09 C 129.63,161.85 127.76,161.59 125.91,161.25 C 125.23,161.13 124.55,160.99 123.84,160.81 C 123.13,160.63 122.39,160.41 121.94,160.03 C 121.68,159.82 121.52,159.54 121.44,159.19 C 121.36,158.86 121.37,158.46 121.47,158.06 C 121.54,157.78 121.65,157.52 121.81,157.31 C 121.92,157.18 122.04,157.05 122.16,156.94 C 122.65,156.51 123.25,156.23 123.84,156.06 C 124.17,155.97 124.49,155.93 124.84,155.88 C 124.97,156.28 125.11,156.66 125.25,157.06 C 125.51,157.81 125.79,158.55 126.09,159.28 C 126.14,159.39 126.2,159.52 126.25,159.63 C 126.29,159.72 126.33,159.82 126.38,159.91 C 126.39,159.94 126.42,159.97 126.44,160.0 C 126.45,160.03 126.48,160.04 126.5,160.06 C 126.53,160.1 126.58,160.13 126.63,160.16 C 126.66,160.18 126.68,160.18 126.72,160.19 C 126.76,160.2 126.8,160.22 126.84,160.22 C 126.92,160.22 127.02,160.21 127.09,160.19 C 127.18,160.16 127.24,160.11 127.31,160.06 C 127.36,160.03 127.4,159.98 127.44,159.94 C 127.48,159.89 127.53,159.84 127.56,159.78 C 127.62,159.68 127.69,159.56 127.72,159.44 C 127.73,159.39 127.71,159.33 127.72,159.28 C 127.72,159.25 127.75,159.25 127.75,159.22 C 127.75,159.17 127.72,159.14 127.72,159.09 C 127.71,159.05 127.73,159.01 127.72,158.97 C 127.7,158.88 127.65,158.8 127.63,158.72 C 127.59,158.6 127.54,158.46 127.5,158.34 C 127.47,158.26 127.46,158.18 127.44,158.09 C 127.33,157.75 127.24,157.38 127.16,157.03 C 126.98,156.32 126.84,155.6 126.75,154.88 C 126.67,154.29 126.63,153.71 126.63,153.13 C 126.62,152.86 126.61,152.58 126.63,152.31 C 126.64,152.04 126.66,151.8 126.69,151.53 C 126.85,151.55 127.0,151.54 127.16,151.56 C 127.63,151.62 128.1,151.71 128.56,151.81 C 128.81,151.87 129.07,151.93 129.31,152.0 C 129.62,152.09 129.92,152.17 130.22,152.28 C 130.89,152.52 131.55,152.81 132.19,153.13 C 132.51,153.28 132.81,153.46 133.13,153.63 C 133.42,153.79 133.71,153.95 134.0,154.13 C 134.56,154.46 135.11,154.82 135.63,155.22 C 135.93,155.45 136.22,155.68 136.5,155.94 C 136.83,156.24 137.14,156.57 137.44,156.91 C 138.05,157.59 138.59,158.35 139.09,159.13 C 139.15,159.21 139.19,159.29 139.25,159.38 C 139.29,159.43 139.33,159.49 139.38,159.53 C 139.42,159.58 139.47,159.62 139.53,159.66 C 139.61,159.7 139.7,159.73 139.78,159.75 C 139.88,159.78 139.99,159.79 140.09,159.78 C 140.16,159.78 140.22,159.77 140.28,159.75 C 140.33,159.74 140.39,159.74 140.44,159.72 C 140.49,159.7 140.52,159.66 140.56,159.63 C 140.61,159.59 140.66,159.55 140.69,159.5 C 140.72,159.45 140.74,159.4 140.75,159.34 C 140.76,159.25 140.74,159.15 140.72,159.06 C 140.68,158.93 140.6,158.78 140.53,158.66 C 140.41,158.42 140.31,158.2 140.19,157.97 C 140.06,157.73 139.92,157.49 139.78,157.25 C 139.53,156.81 139.25,156.37 138.94,155.97 C 138.62,155.55 138.27,155.17 137.91,154.78 C 137.54,154.38 137.17,154.0 136.78,153.63 C 136.46,153.31 136.11,152.99 135.78,152.69 C 135.3,152.26 134.82,151.86 134.31,151.47 C 133.79,151.07 133.26,150.7 132.69,150.38 C 132.67,150.36 132.64,150.35 132.63,150.34 C 132.6,150.11 132.58,149.86 132.56,149.63 C 132.54,149.35 132.53,149.08 132.53,148.81 C 132.53,148.52 132.54,148.26 132.56,147.97 C 132.6,147.45 132.65,146.92 132.72,146.41 C 132.76,146.1 132.81,145.78 132.84,145.47 C 133.41,145.54 133.97,145.63 134.53,145.75 C 134.94,145.84 135.38,145.95 135.78,146.06 C 136.31,146.21 136.8,146.4 137.31,146.59 C 138.22,146.95 139.12,147.34 139.97,147.81 C 139.98,147.94 139.99,148.09 140.0,148.22 C 140.03,148.47 140.06,148.72 140.09,148.97 C 140.12,149.15 140.15,149.32 140.19,149.5 C 140.2,149.58 140.2,149.64 140.22,149.72 C 140.24,149.8 140.28,149.89 140.31,149.97 C 140.32,150.0 140.33,150.04 140.34,150.06 C 140.36,150.09 140.38,150.1 140.41,150.13 C 140.43,150.15 140.44,150.17 140.47,150.19 C 140.49,150.2 140.51,150.21 140.53,150.22 C 140.69,150.3 140.86,150.4 141.03,150.47 C 141.11,150.5 141.17,150.53 141.25,150.56 C 141.29,150.58 141.33,150.58 141.38,150.59 C 141.45,150.62 141.52,150.65 141.59,150.66 C 141.63,150.66 141.68,150.66 141.72,150.66 C 141.76,150.66 141.8,150.67 141.84,150.66 C 141.87,150.65 141.88,150.64 141.91,150.63 C 141.92,150.62 141.95,150.6 141.97,150.59 C 142.0,150.57 142.01,150.56 142.03,150.53 C 142.05,150.5 142.08,150.47 142.09,150.44 C 142.11,150.4 142.12,150.35 142.13,150.31 C 142.13,150.25 142.13,150.19 142.13,150.13 C 142.13,150.05 142.13,149.95 142.13,149.88 C 142.12,149.77 142.13,149.66 142.13,149.56 C 142.12,149.44 142.1,149.31 142.09,149.19 C 142.21,149.27 142.35,149.35 142.47,149.44 C 142.71,149.62 142.95,149.8 143.19,150.0 C 143.42,150.2 143.63,150.41 143.84,150.63 C 144.06,150.85 144.27,151.07 144.47,151.31 C 144.65,151.53 144.81,151.77 144.97,152.0 C 145.15,152.27 145.34,152.53 145.5,152.81 C 145.69,153.15 145.87,153.49 146.03,153.84 C 146.23,154.26 146.4,154.69 146.56,155.13 C 146.72,155.54 146.86,155.93 147.0,156.34 C 146.9,156.53 146.8,156.75 146.69,156.94 C 146.57,157.12 146.46,157.27 146.38,157.47 C 146.23,157.81 146.18,158.22 146.31,158.38 C 146.5,158.6 147.04,158.32 147.47,157.94 C 147.48,157.93 147.49,157.92 147.5,157.91 C 147.51,157.94 147.52,157.97 147.53,158.0 C 147.56,158.1 147.59,158.21 147.63,158.31 C 147.65,158.39 147.69,158.48 147.72,158.56 C 147.74,158.61 147.75,158.67 147.78,158.72 C 147.8,158.76 147.84,158.78 147.88,158.81 C 147.9,158.84 147.94,158.86 147.97,158.88 C 148.0,158.89 148.03,158.9 148.06,158.91 C 148.11,158.92 148.17,158.93 148.22,158.94 C 148.31,158.95 148.38,158.97 148.47,158.97 C 148.57,158.96 148.69,158.92 148.78,158.91 C 148.86,158.89 148.93,158.9 149.0,158.88 C 149.06,158.86 149.12,158.83 149.19,158.81 C 149.21,158.81 149.23,158.79 149.25,158.78 C 149.27,158.78 149.27,158.79 149.28,158.78 C 149.31,158.77 149.35,158.74 149.38,158.72 C 149.4,158.7 149.42,158.68 149.44,158.66 C 149.45,158.63 149.46,158.62 149.47,158.59 C 149.48,158.56 149.47,158.53 149.47,158.5 C 149.47,158.46 149.47,158.42 149.47,158.38 C 149.46,158.33 149.48,158.27 149.47,158.22 C 149.46,158.17 149.45,158.11 149.44,158.06 C 149.41,157.96 149.37,157.85 149.34,157.75 C 149.27,157.48 149.2,157.23 149.13,156.97 C 149.04,156.68 148.96,156.38 148.88,156.09 L 148.84,156.03 C 149.41,154.97 149.73,153.96 149.91,153.0 C 150.3,150.92 150.12,149.16 149.69,147.47 C 149.36,146.2 148.89,144.97 148.28,143.84 C 148.0,143.32 147.69,142.82 147.34,142.34 z M 168.28,147.88 C 168.33,148.26 168.38,148.65 168.41,149.03 C 168.42,149.21 168.43,149.38 168.44,149.56 C 168.22,149.57 167.99,149.58 167.78,149.59 C 166.73,149.64 165.69,149.73 164.66,149.94 C 163.33,150.2 162.02,150.61 160.78,151.16 C 160.41,151.32 160.02,151.5 159.66,151.69 C 159.9,151.43 160.15,151.2 160.41,150.97 C 161.24,150.21 162.18,149.56 163.19,149.09 C 164.35,148.55 165.64,148.23 166.94,148.03 C 167.39,147.96 167.82,147.91 168.28,147.88 z M 168.47,151.22 C 168.47,151.59 168.45,151.97 168.44,152.34 C 168.42,152.77 168.4,153.17 168.38,153.59 C 168.29,153.65 168.21,153.7 168.13,153.75 C 167.92,153.86 167.72,153.97 167.5,154.06 C 167.23,154.17 166.95,154.25 166.81,154.47 C 166.72,154.62 166.68,154.84 166.69,155.03 C 166.7,155.32 166.77,155.57 166.91,155.84 C 167.0,156.04 167.14,156.24 167.31,156.31 C 167.46,156.37 167.64,156.32 167.81,156.28 C 167.91,156.26 168.0,156.25 168.09,156.22 C 168.08,156.28 168.07,156.34 168.06,156.41 C 168.01,156.7 167.95,156.99 167.88,157.28 C 167.72,157.94 167.54,158.6 167.34,159.25 C 167.3,159.4 167.24,159.55 167.19,159.69 C 167.17,159.74 167.15,159.79 167.13,159.84 C 167.11,159.89 167.08,159.93 167.06,159.97 C 167.04,160.03 166.99,160.09 166.97,160.16 C 166.96,160.18 166.97,160.19 166.97,160.22 C 166.96,160.24 166.97,160.26 166.97,160.28 C 166.97,160.31 166.96,160.34 166.97,160.38 C 166.97,160.42 166.98,160.43 167.0,160.47 C 167.02,160.51 167.05,160.56 167.09,160.59 C 167.13,160.62 167.18,160.64 167.22,160.66 C 167.26,160.67 167.27,160.65 167.31,160.66 C 167.36,160.66 167.39,160.69 167.44,160.69 C 167.47,160.69 167.53,160.69 167.56,160.69 C 167.58,160.69 167.6,160.68 167.63,160.69 C 167.63,160.69 167.65,160.71 167.66,160.72 C 167.67,160.73 167.67,160.73 167.69,160.75 C 167.71,160.78 167.73,160.81 167.75,160.84 C 167.77,160.88 167.79,160.93 167.81,160.97 C 167.83,161.01 167.85,161.03 167.88,161.06 C 167.89,161.09 167.91,161.13 167.94,161.16 C 167.96,161.18 167.97,161.2 168.0,161.22 C 168.03,161.24 168.06,161.24 168.09,161.25 C 168.13,161.26 168.18,161.26 168.22,161.25 C 168.25,161.24 168.28,161.23 168.31,161.22 C 168.35,161.2 168.38,161.18 168.41,161.16 C 168.43,161.13 168.45,161.12 168.47,161.09 C 168.49,161.07 168.48,161.03 168.5,161.0 C 168.58,160.88 168.66,160.76 168.72,160.63 C 168.79,160.47 168.85,160.29 168.91,160.13 C 169.01,159.84 169.1,159.54 169.19,159.25 C 169.25,159.03 169.32,158.82 169.38,158.59 C 169.4,158.48 169.44,158.37 169.47,158.25 C 169.56,157.87 169.63,157.48 169.72,157.09 C 169.85,156.49 169.97,155.89 170.09,155.28 C 170.19,155.23 170.31,155.2 170.41,155.16 C 171.52,154.65 172.46,154.34 173.41,154.16 C 174.06,154.03 174.74,153.97 175.41,153.91 C 175.45,154.16 175.46,154.41 175.5,154.66 C 175.5,154.68 175.53,154.69 175.53,154.72 L 175.44,154.72 C 175.15,154.72 174.86,154.72 174.56,154.75 C 174.51,154.76 174.46,154.76 174.41,154.78 C 174.3,154.83 174.23,154.96 174.19,155.13 C 174.12,155.4 174.14,155.81 174.25,156.03 C 174.31,156.14 174.38,156.21 174.47,156.25 C 174.7,156.37 175.0,156.3 175.28,156.28 C 175.43,156.27 175.6,156.27 175.75,156.28 C 175.78,156.53 175.8,156.79 175.81,157.03 C 175.83,157.42 175.81,157.81 175.81,158.19 C 175.82,158.71 175.84,159.22 175.75,159.69 C 175.68,160.05 175.56,160.37 175.31,160.75 C 175.21,160.91 175.09,161.08 175.13,161.22 C 175.16,161.37 175.37,161.5 175.56,161.53 C 176.12,161.62 176.44,160.96 176.66,160.38 C 176.92,159.66 177.04,159.04 177.13,158.41 C 177.2,157.84 177.24,157.26 177.28,156.69 C 177.28,156.68 177.28,156.66 177.28,156.66 C 177.52,156.74 177.77,156.84 177.97,156.97 C 178.47,157.3 178.8,157.84 179.0,158.31 C 179.15,158.66 179.21,158.99 179.16,159.34 C 179.08,159.88 178.76,160.48 178.25,160.91 C 177.68,161.38 176.88,161.65 176.09,161.78 C 175.25,161.92 174.42,161.92 173.59,161.91 C 172.43,161.89 171.26,161.86 170.09,161.81 C 168.35,161.64 166.32,161.48 164.59,161.34 C 161.92,161.14 159.97,161.01 158.41,160.91 C 158.48,160.3 158.49,159.71 158.5,159.09 C 158.53,157.53 158.38,155.78 158.09,154.06 C 158.45,153.83 158.84,153.61 159.22,153.41 C 160.44,152.75 161.72,152.24 163.06,151.91 C 164.21,151.62 165.39,151.45 166.53,151.34 C 167.17,151.28 167.81,151.25 168.47,151.22 z M 121.19,161.28 C 121.57,161.59 122.05,161.84 122.56,162.03 C 123.6,162.41 124.81,162.61 126.0,162.81 C 128.08,163.16 130.09,163.48 132.31,163.75 C 135.45,164.13 138.99,164.44 141.97,164.69 C 142.59,164.74 143.17,164.77 143.75,164.81 C 142.78,164.79 141.81,164.8 140.84,164.78 C 138.03,164.73 135.23,164.68 132.41,164.53 C 130.62,164.44 128.81,164.3 127.06,164.06 C 125.94,163.91 124.83,163.73 123.69,163.41 C 123.07,163.23 122.45,163.03 121.97,162.56 C 121.64,162.24 121.36,161.78 121.19,161.28 z" />

		<!-- Text -->
		<text id="txtTwo" dy="2.8" transform="matrix(1 0 0 1 150 150)" style="stroke:none;fill:#f00;font-family:'Eras Medium ITC';font-size:10px;text-anchor:middle" >

		</text>
		<!-- Prism Reference -->
		<cam mingh:cam=" --verb EditSelectAll --verb ZoomSelection --verb FileSave "/> 
	 </g>

</svg>