<svg
   xmlns:xlink="http://www.w3.org/1999/xlink"
   xmlns:svg="http://www.w3.org/2000/svg"
   xmlns="http://www.w3.org/2000/svg"
   xmlns:mingh="http://www.minghworld.com"
   width="300px"
   height="300px" >
    
	 <g>
		<!-- Paths -->
		<path id="shape" transform="matrix(-1 0 0 1 300 0)" style="fill:#ff0;stroke:none;"
			d="M 149.25,124.56 C 148.98,124.57 148.71,124.59 148.44,124.66 C 146.26,125.17 144.91,127.35 145.41,129.53 C 145.62,130.47 146.14,131.29 146.91,131.88 C 146.93,131.9 147.17,132.06 147.19,132.09 C 147.19,132.25 147.19,132.49 147.19,132.66 C 146.82,132.35 146.45,132.02 146.06,131.78 C 145.63,131.51 144.7,131.01 144.22,130.84 C 143.47,130.59 143.2,130.71 143.25,131.53 C 143.29,132.17 143.65,132.8 143.97,133.31 C 144.72,134.52 145.2,134.69 146.34,135.41 C 146.82,135.7 147.26,136.04 147.69,136.41 C 148.12,136.75 148.48,137.16 148.81,137.5 C 148.86,137.73 148.91,137.91 148.97,138.13 C 148.84,138.03 148.71,137.93 148.59,137.84 C 147.25,136.83 145.75,135.78 144.47,134.91 C 143.35,134.15 142.92,133.47 142.25,132.34 C 141.68,131.41 141.16,130.62 140.59,129.84 C 140.52,129.73 140.43,129.66 140.34,129.56 C 140.31,129.53 140.13,129.66 140.06,129.69 C 139.86,129.81 139.68,129.95 139.53,130.13 C 138.92,130.85 138.41,132.29 138.13,133.16 C 137.73,134.38 137.48,135.59 137.41,136.88 C 137.4,137.05 137.38,137.23 137.38,137.41 C 137.37,137.5 137.38,137.57 137.38,137.66 C 137.87,138.02 138.5,138.27 139.0,138.5 C 138.43,138.41 138.02,138.63 137.56,138.91 C 137.09,139.19 136.6,139.45 136.16,139.78 C 135.3,140.42 135.1,141.46 135.03,142.41 C 134.99,142.93 134.99,143.45 135.09,143.97 C 135.15,144.24 135.25,144.48 135.28,144.75 C 135.3,144.89 135.31,145.02 135.31,145.16 C 135.32,145.31 135.25,145.43 135.16,145.53 C 134.97,145.73 134.74,145.89 134.56,146.09 C 134.38,146.3 134.22,146.52 134.06,146.75 C 133.74,147.23 133.5,147.72 133.28,148.25 C 132.81,149.38 132.28,151.38 132.5,152.66 C 132.56,152.98 132.7,153.3 132.75,153.63 C 132.78,153.79 132.8,154.18 132.72,154.34 C 132.6,154.56 132.18,154.64 132.0,154.69 C 131.74,154.76 131.48,154.85 131.25,155.0 C 130.32,155.59 129.84,156.74 130.0,157.81 C 130.09,158.43 130.38,158.91 130.72,159.41 C 131.07,159.91 131.39,160.4 131.5,161.03 C 131.62,161.69 131.38,162.99 132.41,162.47 C 132.61,162.36 132.92,162.43 133.06,162.63 C 133.17,162.77 133.18,162.94 133.25,163.09 C 133.37,163.34 133.53,163.39 133.75,163.22 C 133.96,163.05 134.11,162.81 134.38,162.69 C 134.59,162.59 134.93,162.62 135.06,162.84 C 135.22,163.1 135.14,163.2 135.41,163.41 C 135.55,163.52 135.74,163.6 135.91,163.47 C 136.19,163.24 136.35,162.39 136.5,162.13 C 136.67,161.83 136.9,161.73 137.19,161.63 C 137.49,161.52 138.09,161.29 138.31,161.0 C 138.41,160.87 138.46,160.75 138.47,160.59 C 138.47,160.08 138.49,159.52 138.5,159.06 C 138.98,159.19 139.5,159.25 139.94,159.31 C 140.4,159.37 140.85,159.44 141.31,159.44 C 141.53,159.44 141.75,159.42 141.97,159.41 C 142.2,159.39 142.42,159.35 142.66,159.34 C 142.93,159.33 143.16,159.35 143.41,159.5 C 143.61,159.62 143.82,159.79 144.0,159.94 C 144.13,160.04 144.23,160.13 144.34,160.25 C 144.38,160.29 144.54,160.41 144.44,160.41 C 144.28,160.4 144.14,160.38 144.0,160.31 C 143.84,160.24 143.68,160.13 143.5,160.09 C 143.2,160.04 143.01,160.31 142.84,160.47 C 142.29,160.98 141.93,161.17 141.69,161.97 C 141.48,162.73 141.6,163.29 141.78,163.91 C 141.49,164.4 141.18,164.99 141.06,165.47 C 140.92,165.93 140.87,166.4 140.84,166.88 C 140.8,167.82 140.62,168.74 140.63,169.69 C 140.63,170.21 140.75,170.68 140.91,171.09 C 140.92,171.12 140.89,171.14 140.88,171.16 C 140.78,171.26 140.7,171.35 140.63,171.47 C 140.45,171.72 140.33,171.99 140.25,172.28 C 140.09,172.87 140.1,173.57 140.41,174.13 C 140.56,174.41 140.77,174.66 140.94,174.94 C 141.02,175.08 141.11,175.21 141.25,175.31 C 141.41,175.42 141.54,175.43 141.72,175.38 C 141.9,175.32 141.98,175.18 142.09,175.06 C 142.23,174.92 142.34,174.9 142.53,174.94 C 142.72,174.97 142.81,175.08 142.91,175.22 C 143.01,175.37 143.11,175.45 143.31,175.44 C 143.51,175.42 143.57,175.3 143.66,175.16 C 143.74,175.01 143.85,174.91 144.03,174.88 C 144.22,174.84 144.36,174.91 144.53,174.97 C 144.64,175.01 144.83,175.1 144.97,175.03 C 145.14,174.95 145.19,174.79 145.28,174.66 C 145.37,174.51 145.45,174.37 145.53,174.22 C 145.6,174.08 145.64,173.94 145.63,173.78 C 145.61,173.64 145.56,173.56 145.53,173.47 C 146.09,173.33 146.73,173.26 147.25,173.19 C 147.53,173.13 147.79,173.07 148.06,173.0 C 148.33,172.93 148.58,172.9 148.84,173.0 C 149.1,173.1 149.3,173.26 149.53,173.41 C 150.41,173.98 151.26,174.63 152.31,174.94 C 153.39,175.25 154.41,175.23 155.5,175.09 C 157.7,174.82 159.55,173.89 160.94,172.09 C 161.61,171.22 162.05,170.32 162.31,169.25 C 162.44,168.73 162.53,168.22 162.56,167.69 C 162.58,167.33 162.57,167.01 162.56,166.69 C 162.73,166.61 162.87,166.47 163.0,166.38 C 164.5,165.26 165.74,163.75 166.22,161.88 C 166.52,160.68 166.42,159.69 165.91,158.56 C 165.87,158.5 165.86,158.42 165.84,158.38 C 165.87,158.39 165.91,158.42 165.94,158.44 C 166.88,159.2 167.94,159.98 168.81,160.66 C 169.12,160.15 169.28,159.52 169.44,159.03 C 169.68,158.09 169.81,157.12 169.91,156.16 C 169.94,155.69 169.99,155.25 170.03,154.81 C 167.94,153.15 165.7,151.32 163.81,149.84 C 163.92,149.32 163.88,148.75 163.41,148.41 C 163.17,148.24 162.95,148.15 162.66,148.19 C 162.63,148.19 162.58,148.23 162.56,148.19 C 162.55,147.97 162.34,147.75 162.25,147.69 C 161.7,147.28 161.18,147.37 160.88,147.56 C 159.05,146.16 157.17,144.68 155.53,143.41 C 155.89,143.04 156.18,142.67 156.47,142.34 C 156.62,142.13 156.74,141.83 156.59,141.56 C 156.36,141.15 156.02,141.32 155.72,141.53 C 155.64,141.59 155.48,141.69 155.47,141.53 C 155.46,141.35 155.61,141.16 155.69,141.03 C 155.78,140.88 155.88,140.73 155.84,140.53 C 155.82,140.37 155.76,140.26 155.63,140.16 C 155.25,139.86 154.98,140.17 154.72,140.41 C 154.63,140.48 154.44,140.67 154.28,140.63 C 154.11,140.58 154.21,140.29 154.25,140.19 C 154.41,139.83 154.62,139.52 154.22,139.19 C 154.0,139.01 153.78,139.03 153.56,139.19 C 152.97,139.6 152.57,140.15 152.19,140.69 C 152.01,140.6 151.84,140.42 151.69,140.31 C 151.23,139.6 151.11,138.71 151.0,137.97 C 151.01,137.5 151.05,137.13 151.16,136.75 C 152.23,136.04 153.3,135.06 153.69,134.03 C 153.89,133.48 153.99,132.92 154.22,132.38 C 154.5,131.69 154.93,131.14 155.41,130.59 C 155.63,130.34 155.88,130.08 156.09,129.81 C 156.18,129.7 156.37,129.46 156.34,129.28 C 156.32,129.12 156.05,129.13 155.94,129.13 C 155.62,129.12 155.33,129.18 155.03,129.25 C 154.65,129.34 154.28,129.46 153.91,129.59 C 153.82,129.62 153.55,129.77 153.44,129.69 C 153.31,129.6 153.36,129.42 153.38,129.31 C 153.47,128.77 153.47,128.25 153.34,127.72 C 152.91,125.79 151.15,124.51 149.25,124.56 z M 149.38,126.69 C 150.45,126.69 151.31,127.55 151.31,128.63 C 151.31,129.7 150.45,130.56 149.38,130.56 C 148.3,130.56 147.44,129.7 147.44,128.63 C 147.44,127.55 148.3,126.69 149.38,126.69 z M 142.22,139.91 C 142.33,139.99 143.13,140.36 143.53,140.56 C 144.03,140.82 144.53,141.1 145.0,141.41 C 145.91,142.0 146.7,142.71 147.5,143.44 C 147.9,143.83 148.3,144.18 148.66,144.5 C 148.73,144.56 148.77,144.64 148.81,144.72 C 149.03,145.13 149.27,145.56 149.47,145.94 C 149.73,146.47 149.91,147.0 149.97,147.59 C 150.0,147.87 150.02,148.15 149.97,148.44 C 149.91,148.78 149.74,148.7 149.53,148.5 C 148.74,147.76 148.12,146.87 147.38,146.09 C 147.06,145.76 146.74,145.47 146.38,145.19 C 145.87,144.81 145.3,144.54 144.72,144.31 C 144.41,144.19 144.09,144.11 143.78,144.0 C 143.56,143.92 143.23,143.82 143.09,143.78 C 143.16,143.73 143.22,143.67 143.28,143.63 C 143.59,143.34 143.71,142.89 143.75,142.5 C 143.78,142.17 143.78,141.83 143.69,141.5 C 143.62,141.28 143.52,141.12 143.38,140.94 C 143.24,140.76 143.1,140.59 142.91,140.47 C 142.78,140.39 142.64,140.33 142.5,140.28 C 142.34,140.22 142.25,140.16 142.22,139.97 C 142.22,139.95 142.19,139.89 142.22,139.91 z M 142.06,145.97 C 142.4,145.95 142.67,146.14 142.84,146.41 C 143.03,146.7 143.08,146.98 143.06,147.31 C 143.05,147.64 142.96,147.96 142.81,148.25 C 142.69,148.49 142.46,148.83 142.13,148.81 C 141.52,148.6 141.1,148.0 141.06,147.38 C 141.03,146.79 141.38,146.0 142.06,145.97 z M 142.19,150.38 C 142.34,150.37 142.53,150.39 142.72,150.41 C 143.2,150.44 143.8,150.5 144.31,150.63 C 144.73,150.73 145.09,150.87 145.25,151.19 C 145.43,151.54 145.35,152.11 145.13,152.59 C 144.97,152.93 144.72,153.22 144.44,153.31 C 144.11,153.42 143.73,153.25 143.34,153.06 C 142.91,152.85 142.5,152.59 142.19,152.38 C 141.93,152.2 141.73,152.07 141.56,151.91 C 141.42,151.77 141.31,151.6 141.28,151.38 C 141.27,151.26 141.28,151.12 141.31,151.0 C 141.39,150.72 141.56,150.56 141.78,150.47 C 141.91,150.41 142.03,150.38 142.19,150.38 z M 155.69,150.5 C 155.69,150.5 155.71,150.49 155.72,150.5 C 155.78,150.55 155.82,150.61 155.88,150.66 C 155.98,150.74 156.08,150.82 156.19,150.91 C 156.37,151.05 156.57,151.17 156.75,151.31 C 157.51,151.92 158.27,152.53 159.03,153.13 C 159.07,153.15 159.2,153.23 159.22,153.28 L 159.25,153.38 C 159.27,153.43 159.29,153.48 159.31,153.53 C 159.35,153.63 159.37,153.71 159.41,153.81 C 159.44,153.91 159.47,154.02 159.5,154.13 C 159.53,154.23 159.59,154.33 159.5,154.44 C 159.28,154.69 158.95,154.51 158.75,154.34 C 158.59,154.21 158.43,154.07 158.28,153.94 C 157.57,153.28 156.82,152.68 156.09,152.03 C 155.99,151.56 155.85,151.09 155.72,150.63 C 155.71,150.6 155.68,150.51 155.69,150.5 z M 140.09,153.06 C 140.25,153.07 140.41,153.1 140.56,153.16 C 140.83,153.36 140.81,153.77 140.75,154.03 C 140.68,154.35 140.54,154.64 140.34,154.91 C 140.14,155.18 139.92,155.36 139.59,155.47 C 139.29,155.57 138.94,155.54 138.69,155.31 C 138.18,154.86 138.42,154.02 138.81,153.59 C 139.13,153.25 139.62,153.05 140.09,153.06 z M 145.44,165.31 C 145.54,165.31 145.63,165.33 145.72,165.38 C 145.87,165.45 145.98,165.62 146.03,165.78 C 146.09,165.96 146.08,166.16 145.97,166.38 C 145.87,166.58 145.68,166.78 145.5,166.81 C 145.32,166.84 145.14,166.68 145.03,166.5 C 144.87,166.25 144.83,165.96 144.91,165.72 C 144.95,165.58 145.03,165.44 145.16,165.38 C 145.24,165.33 145.34,165.31 145.44,165.31 z M 146.72,167.19 C 146.87,167.17 147.02,167.18 147.19,167.19 C 147.44,167.2 147.7,167.25 147.88,167.41 C 148.04,167.55 148.13,167.79 148.16,168.03 C 148.2,168.4 148.08,168.77 147.81,169.0 C 147.66,169.13 147.48,169.23 147.28,169.25 C 147.09,169.27 146.9,169.24 146.72,169.19 C 146.4,169.1 146.1,168.92 145.81,168.75 C 145.61,168.63 145.4,168.49 145.22,168.34 C 145.15,168.29 145.08,168.23 145.03,168.16 C 144.98,168.07 144.96,167.96 144.97,167.88 C 144.99,167.7 145.18,167.59 145.38,167.5 C 145.68,167.36 145.96,167.3 146.25,167.25 C 146.4,167.22 146.56,167.2 146.72,167.19 z M 145.25,169.38 C 145.29,169.37 145.33,169.36 145.38,169.38 C 145.55,169.42 145.73,169.66 145.81,169.88 C 145.9,170.1 145.91,170.3 145.84,170.47 C 145.78,170.63 145.66,170.78 145.5,170.84 C 145.32,170.92 145.09,170.89 144.94,170.78 C 144.82,170.7 144.72,170.58 144.69,170.44 C 144.63,170.19 144.73,169.89 144.91,169.66 C 145.0,169.53 145.12,169.4 145.25,169.38 z" />

		<!-- Text -->
		<text id="txtTwo" dy="2.8" transform="matrix(1 0 0 1 150 150)" style="stroke:none;fill:#f00;font-family:'Eras Medium ITC';font-size:10px;text-anchor:middle" >

		</text>
		<!-- Prism Reference -->
		<cam mingh:cam=" --verb EditSelectAll --verb ZoomSelection --verb FileSave"/> 
	 </g>

</svg>