<svg
   xmlns:xlink="http://www.w3.org/1999/xlink"
   xmlns:svg="http://www.w3.org/2000/svg"
   xmlns="http://www.w3.org/2000/svg"
   xmlns:mingh="http://www.minghworld.com"
   width="300px"
   height="300px" >
   
	 <g>	
		<!-- Shape -->
		<path id="shape" style="fill:none;stroke:#000;stroke-width:0.25px;"
			d="M 149.25,124.56 C 148.98,124.57 148.71,124.59 148.44,124.66 146.26,125.17 144.83,127.37 145.41,129.53 145.73,130.73 146.33,131.43 147.19,132.09 L 147.19,132.66 C 146.82,132.35 146.45,132.02 146.06,131.78 145.63,131.51 144.7,131.01 144.22,130.84 143.47,130.59 143.2,130.71 143.25,131.53 143.29,132.17 143.65,132.8 143.97,133.31 144.72,134.52 145.2,134.69 146.34,135.41 146.82,135.7 147.01,135.91 147.44,136.28 L 146.91,136.63 C 145.9,135.9 145.39,135.54 144.47,134.91 143.35,134.15 142.92,133.47 142.25,132.34 141.63,131.3 140.99,130.39 140.34,129.56 140.08,129.35 139.75,129.89 139.53,130.13 138.92,130.85 138.41,132.29 138.13,133.16 137.63,134.78 137.44,136.16 137.38,137.66 137.87,138.02 138.5,138.27 139.0,138.5 138.43,138.41 138.02,138.63 137.56,138.91 137.09,139.19 136.6,139.45 136.16,139.78 135.3,140.42 135.1,141.46 135.03,142.41 134.99,142.93 134.95,143.46 135.09,143.97 135.21,144.4 135.31,144.76 135.31,145.16 135.31,145.59 134.83,145.84 134.56,146.09 133.99,146.73 133.61,147.56 133.28,148.25 132.81,149.38 132.28,151.38 132.5,152.66 132.56,152.98 132.7,153.29 132.75,153.63 132.78,153.79 132.8,154.18 132.72,154.34 132.6,154.56 132.18,154.64 132.0,154.69 131.74,154.76 131.48,154.85 131.25,155.0 130.32,155.59 129.84,156.74 130.0,157.81 130.09,158.43 130.38,158.91 130.72,159.41 131.07,159.91 131.39,160.4 131.5,161.03 131.62,161.69 131.38,162.99 132.41,162.47 132.61,162.36 132.92,162.43 133.06,162.63 133.17,162.76 133.18,162.94 133.25,163.09 133.37,163.34 133.53,163.39 133.75,163.22 133.96,163.05 134.1,162.81 134.38,162.69 134.59,162.59 134.93,162.62 135.06,162.84 135.22,163.1 135.14,163.2 135.41,163.41 135.55,163.52 135.74,163.6 135.91,163.47 136.19,163.24 136.35,162.39 136.5,162.13 136.67,161.82 136.9,161.73 137.19,161.63 137.49,161.51 138.09,161.29 138.31,161.0 138.41,160.87 138.46,160.75 138.47,160.59 138.47,160.08 138.49,159.52 138.5,159.06 138.98,159.19 139.5,159.25 139.94,159.31 140.66,159.45 141.29,159.43 141.97,159.41 142.2,159.4 142.42,159.35 142.66,159.34 143.46,159.34 143.88,159.77 144.44,160.41 144.1,160.27 143.79,160.21 143.5,160.09 143.2,160.04 143.01,160.31 142.84,160.47 142.29,160.98 141.93,161.17 141.69,161.97 141.48,162.73 141.6,163.29 141.78,163.91 141.49,164.4 141.18,164.99 141.06,165.47 140.92,165.93 140.87,166.4 140.84,166.88 140.8,167.82 140.62,168.74 140.63,169.69 140.63,170.21 140.75,170.68 140.91,171.09 140.33,171.78 139.96,172.73 140.22,173.63 140.34,174.15 140.7,174.55 140.97,175.0 141.12,175.3 141.5,175.53 141.81,175.34 142.02,175.17 142.2,174.84 142.53,174.94 142.85,174.97 142.91,175.37 143.19,175.44 143.61,175.55 143.62,175.01 143.94,174.91 144.27,174.76 144.56,175.07 144.88,175.06 145.19,174.99 145.27,174.62 145.44,174.38 145.62,174.12 145.7,173.76 145.53,173.47 146.09,173.33 146.73,173.26 147.25,173.19 147.53,173.13 147.79,173.07 148.06,173.0 148.33,172.93 148.58,172.9 148.84,173.0 149.1,173.1 149.3,173.26 149.53,173.41 150.41,173.98 151.26,174.63 152.31,174.94 153.39,175.25 154.41,175.23 155.5,175.09 157.7,174.82 159.55,173.89 160.94,172.09 162.21,170.4 162.63,168.62 162.56,166.69 164.22,165.41 165.84,163.59 166.22,161.88 166.52,160.54 166.28,159.41 165.84,158.38 166.85,159.16 167.91,159.95 168.81,160.66 169.12,160.15 169.28,159.52 169.44,159.03 169.68,158.09 169.81,157.12 169.91,156.16 169.94,155.69 169.99,155.25 170.03,154.81 167.94,153.15 165.7,151.32 163.81,149.84 163.92,149.32 163.88,148.75 163.41,148.41 163.14,148.16 162.78,148.19 162.56,148.19 162.55,147.97 162.34,147.75 162.25,147.69 161.7,147.28 161.18,147.37 160.88,147.56 159.04,146.16 157.17,144.68 155.53,143.41 155.89,143.04 156.18,142.67 156.47,142.34 156.62,142.13 156.74,141.83 156.59,141.56 156.36,141.15 156.02,141.32 155.72,141.53 155.64,141.59 155.48,141.69 155.47,141.53 155.46,141.35 155.61,141.16 155.69,141.03 155.78,140.88 155.88,140.73 155.84,140.53 155.82,140.37 155.76,140.26 155.63,140.16 155.25,139.86 154.98,140.17 154.72,140.41 154.63,140.48 154.44,140.67 154.28,140.63 154.11,140.57 154.21,140.29 154.25,140.19 154.41,139.83 154.62,139.52 154.22,139.19 154.0,139.01 153.78,139.03 153.56,139.19 152.97,139.6 152.57,140.15 152.19,140.69 152.01,140.6 151.84,140.42 151.69,140.31 151.23,139.6 151.11,138.71 151.0,137.97 151.01,137.5 151.05,137.13 151.16,136.75 152.23,136.04 153.3,135.06 153.69,134.03 153.89,133.48 153.99,132.92 154.22,132.38 154.5,131.69 154.93,131.14 155.41,130.59 155.63,130.34 155.88,130.08 156.09,129.81 156.18,129.7 156.37,129.46 156.34,129.28 156.32,129.12 156.05,129.13 155.94,129.13 155.62,129.12 155.33,129.18 155.03,129.25 154.65,129.34 154.28,129.46 153.91,129.59 153.82,129.62 153.55,129.77 153.44,129.69 153.31,129.6 153.35,129.42 153.38,129.31 153.47,128.77 153.47,128.25 153.34,127.72 152.91,125.79 151.15,124.51 149.25,124.56 z M 149.38,126.69 C 150.45,126.69 151.31,127.55 151.31,128.63 151.31,129.7 150.45,130.56 149.38,130.56 148.29,130.56 147.44,129.7 147.44,128.63 147.44,127.55 148.29,126.69 149.38,126.69 z M 142.44,140.06 C 144.39,140.85 146.08,142.15 147.5,143.44 147.9,143.83 148.3,144.18 148.66,144.5 148.73,144.56 148.77,144.64 148.81,144.72 149.03,145.13 149.27,145.56 149.47,145.94 149.73,146.47 149.91,147.0 149.97,147.59 150.0,147.87 150.02,148.15 149.97,148.44 149.91,148.78 149.74,148.7 149.53,148.5 148.74,147.76 148.12,146.87 147.38,146.09 147.06,145.76 146.74,145.47 146.38,145.19 145.32,144.45 144.28,144.16 143.09,143.78 143.79,143.13 143.86,142.42 143.67,141.63 143.52,140.97 142.91,140.57 142.44,140.06 z M 142.06,145.97 C 142.4,145.95 142.67,146.14 142.84,146.41 143.03,146.7 143.08,146.98 143.06,147.31 143.05,147.64 142.96,147.96 142.81,148.25 142.69,148.49 142.46,148.83 142.13,148.81 141.51,148.6 141.1,148.0 141.06,147.38 141.03,146.79 141.38,146.0 142.06,145.97 z M 142.19,150.38 C 143.09,150.43 144.03,150.46 144.88,150.81 145.19,150.96 145.37,151.31 145.34,151.66 145.33,152.19 145.13,152.75 144.75,153.13 144.52,153.32 144.19,153.4 143.91,153.28 143.27,153.07 142.68,152.71 142.13,152.34 141.9,152.18 141.66,152.03 141.47,151.81 141.19,151.49 141.2,150.96 141.5,150.66 141.67,150.46 141.94,150.38 142.19,150.38 z M 155.69,150.5 C 156.79,151.34 157.95,152.31 158.94,153.06 159.19,153.18 159.31,153.5 159.38,153.75 159.45,153.98 159.58,154.17 159.53,154.41 159.33,154.71 158.93,154.51 158.72,154.31 157.97,153.65 157.2,152.99 156.44,152.34 156.19,152.17 156.12,152.01 156.0,151.66 155.9,151.27 155.79,150.88 155.69,150.5 z M 140.09,153.06 C 140.27,153.08 140.48,153.1 140.63,153.22 140.84,153.45 140.82,153.77 140.75,154.06 140.64,154.51 140.39,154.95 140.03,155.25 139.72,155.49 139.29,155.6 138.91,155.44 138.57,155.3 138.38,154.93 138.41,154.56 138.44,154.03 138.74,153.52 139.22,153.28 139.48,153.14 139.79,153.06 140.09,153.06 z M 145.44,165.31 C 145.54,165.31 145.63,165.33 145.72,165.38 145.87,165.45 145.98,165.62 146.03,165.78 146.09,165.96 146.08,166.16 145.97,166.38 145.87,166.58 145.68,166.78 145.5,166.81 145.32,166.84 145.14,166.68 145.03,166.5 144.87,166.25 144.83,165.96 144.91,165.72 144.95,165.58 145.03,165.44 145.16,165.38 145.24,165.33 145.34,165.31 145.44,165.31 z M 146.59,167.19 C 146.8,167.18 147.0,167.19 147.19,167.19 147.43,167.19 147.7,167.25 147.88,167.41 148.04,167.55 148.13,167.79 148.16,168.03 148.2,168.4 148.08,168.77 147.81,169.0 147.66,169.13 147.48,169.23 147.28,169.25 147.09,169.27 146.9,169.24 146.72,169.19 146.06,168.98 145.47,168.62 145.0,168.19 144.92,168.12 144.92,167.95 144.97,167.88 145.32,167.36 145.97,167.22 146.59,167.19 z M 145.25,169.38 C 145.29,169.37 145.32,169.36 145.38,169.38 145.54,169.42 145.73,169.66 145.81,169.88 145.9,170.1 145.91,170.3 145.84,170.47 145.78,170.63 145.66,170.78 145.5,170.84 145.32,170.92 145.09,170.89 144.94,170.78 144.82,170.7 144.72,170.58 144.69,170.44 144.63,170.19 144.73,169.89 144.91,169.66 145.0,169.53 145.12,169.4 145.25,169.38 z" />
			
		<path id="shapeMark" style="fill:#f00;stroke:none;"
			d="M 143.57,173.63 C 143.18,173.31 143.03,172.92 143.13,172.42 143.22,171.98 143.51,171.57 143.91,171.36 144.78,170.88 145.78,171.53 146.02,172.42 146.07,172.62 146.12,172.87 146.11,173.07 146.11,173.07 145.51,173.22 145.48,173.22 145.38,172.88 145.15,172.56 144.94,172.35 144.61,172.02 144.01,171.98 143.7,172.37 143.4,172.75 143.43,173.2 143.57,173.63 z M 160.79,147.83 C 161.65,147.31 162.4,147.94 162.36,148.45 163.33,148.22 163.81,148.97 163.57,149.99 163.17,151.47 163.13,152.85 163.48,154.38 164.0,156.18 165.34,157.43 165.86,159.24 166.34,160.72 166.0,162.29 165.08,163.67 165.35,162.6 165.42,161.39 164.79,160.44 163.88,158.91 162.65,157.8 161.94,156.14 161.36,154.53 161.77,153.0 162.35,151.49 162.56,150.86 163.02,150.05 162.51,149.46 161.99,148.99 161.54,150.17 161.44,150.17 161.66,149.58 161.98,148.46 160.99,148.62 160.56,148.72 160.39,149.31 160.25,149.57 160.36,149.02 160.54,147.68 159.58,148.1 158.75,148.52 158.66,149.57 158.6,150.39 158.55,151.18 158.69,151.71 158.69,152.5 158.41,152.29 158.13,152.08 157.85,151.87 157.85,150.67 157.86,149.69 158.34,148.58 158.7,147.77 159.74,147.29 160.55,147.67 160.63,147.72 160.71,147.77 160.79,147.83 z M 140.88,169.67 C 141.9,169.53 142.95,169.74 143.38,170.49 142.55,170.36 141.73,170.58 141.12,170.96 140.97,170.52 140.84,170.19 140.88,169.67 z M 141.91,164.08 C 142.07,164.21 142.12,164.29 142.24,164.38 142.75,164.72 143.46,164.82 144.04,164.8 144.12,164.8 144.2,164.79 144.28,164.78 144.32,164.78 144.36,164.77 144.4,164.77 144.41,164.77 144.42,164.77 144.43,164.77 144.43,164.76 144.47,164.75 144.45,164.76 144.43,164.77 144.42,164.78 144.4,164.79 144.27,164.86 144.13,164.93 143.98,164.98 143.69,165.1 143.4,165.18 143.08,165.22 142.51,165.29 141.99,165.23 141.45,165.06 M 147.64,164.25 C 148.15,164.34 148.66,164.63 149.03,164.9 149.79,165.46 150.26,166.28 150.49,167.16 150.72,168.02 150.73,168.93 150.49,169.8 150.18,170.96 149.42,172.04 148.42,172.67 L 147.88,172.78 C 148.07,172.62 148.26,172.46 148.42,172.27 149.27,171.33 149.69,170.01 149.74,168.72 149.76,168.02 149.67,167.32 149.43,166.67 149.27,166.22 149.03,165.8 148.71,165.46 148.4,165.12 148.0,164.87 147.68,164.54 147.64,164.5 147.61,164.46 147.58,164.41 147.48,164.27 147.62,164.25 147.64,164.25 z M 144.63,160.43 C 144.92,160.45 145.46,160.51 145.74,160.58 146.4,160.74 147.08,161.14 147.38,161.75 147.73,162.87 147.3,163.63 146.49,164.07 145.94,164.3 145.28,164.24 144.73,163.98 144.4,163.83 144.1,163.61 143.94,163.29 143.81,163.04 143.76,162.73 143.85,162.46 143.91,162.24 144.05,162.05 144.24,161.95 144.43,161.85 144.67,161.83 144.87,161.91 144.99,161.97 145.1,162.08 145.16,162.21 145.21,162.35 145.22,162.51 145.16,162.62 145.11,162.71 145.03,162.78 144.96,162.87 144.91,162.93 144.87,163.01 144.87,163.09 144.87,163.18 144.94,163.28 145.01,163.35 145.17,163.51 145.38,163.58 145.59,163.61 145.86,163.64 146.14,163.59 146.37,163.46 146.53,163.37 146.66,163.24 146.76,163.08 146.9,162.86 146.95,162.57 146.91,162.31 146.87,161.92 146.65,161.57 146.36,161.31 145.92,160.91 145.14,160.7 144.58,160.53 z M 155.49,143.74 C 155.49,143.74 155.35,143.94 155.3,144.03 155.1,144.36 154.98,144.7 154.9,145.08 154.74,145.85 154.52,146.58 154.64,147.34 154.87,148.86 155.42,150.28 155.77,151.76 156.16,153.41 156.23,154.67 154.9,156.0 153.85,157.05 152.46,157.64 151.05,157.81 150.68,157.86 150.51,157.84 150.22,157.86 150.11,157.38 150.22,156.85 150.27,156.44 150.37,156.06 150.52,155.73 150.74,155.4 150.83,155.27 150.83,155.31 150.97,155.28 152.07,155.13 152.99,154.6 153.6,153.93 154.17,153.31 154.35,152.46 154.29,151.64 154.24,150.88 154.06,150.15 153.93,149.41 153.81,148.64 153.73,147.88 153.76,147.11 153.81,145.63 154.26,144.51 155.23,143.56 z M 151.1,130.1 C 151.06,130.41 150.99,130.74 150.96,130.93 151.56,130.11 152.32,129.7 153.09,129.44 153.03,129.63 153.11,129.77 153.28,129.95 152.69,130.32 151.93,130.92 151.53,131.45 151.01,132.13 150.79,132.86 150.6,133.66 150.46,134.22 150.35,134.86 150.22,135.42 L 150.1,135.42 C 150.09,135.32 150.09,135.24 150.08,135.14 150.04,134.34 150.05,133.53 150.08,132.73 150.11,132.0 150.18,131.38 150.28,130.66 150.59,130.55 150.73,130.36 151.1,130.1 z M 147.91,130.23 148.06,130.35 C 148.04,130.45 148.04,130.52 148.03,130.61 147.92,131.54 148.11,132.65 148.37,133.52 148.49,133.92 148.63,134.31 148.79,134.7 L 148.73,134.74 C 148.3,134.07 147.82,133.47 147.4,132.97 147.34,131.97 147.55,130.75 147.91,130.23 z M 149.02,144.62 C 149.54,144.74 149.9,144.92 150.34,145.21 150.22,143.6 150.74,142.37 151.6,141.28 151.7,141.16 151.81,141.04 151.93,140.93 L 152.01,141.02 C 151.45,142.13 151.11,143.37 151.07,144.61 151.05,145.28 151.24,145.86 151.46,146.47 151.69,147.11 151.95,147.73 152.12,148.39 152.41,149.46 152.68,151.24 151.46,152.01 150.66,152.51 150.03,152.48 149.38,152.47 149.29,153.06 149.11,153.68 148.95,154.21 148.0,157.11 146.59,158.61 143.52,159.21 L 143.11,159.09 C 143.37,159.0 143.62,158.89 143.87,158.77 145.07,158.16 146.02,157.23 146.74,156.11 147.95,153.78 148.67,151.12 148.42,148.52 148.34,148.09 148.28,147.75 148.1,147.36 L 148.85,148.19 C 149.16,148.92 149.27,149.28 149.47,149.92 149.85,149.91 150.14,149.84 150.39,149.52 150.6,149.25 150.7,148.97 150.75,148.65 150.84,148.1 150.74,147.33 150.42,146.86 150.26,146.62 150.14,146.44 149.91,146.29 149.82,146.05 149.53,145.48 149.02,144.62 z M 139.3,141.6 C 138.36,140.42 138.64,139.47 139.22,138.31 L 138.16,137.82 C 138.3,137.78 138.43,137.75 138.58,137.73 138.87,137.7 139.14,137.74 139.42,137.81 139.54,137.84 139.64,137.91 139.78,137.88 139.91,137.85 140.02,137.81 140.14,137.76 140.37,137.68 140.6,137.58 140.85,137.53 141.12,137.47 141.33,137.48 141.57,137.63 141.88,137.83 141.89,138.11 141.91,138.26 142.51,138.27 142.76,138.74 142.83,139.25 142.84,139.35 142.84,139.43 142.85,139.53 142.98,139.58 143.15,139.68 143.27,139.75 143.49,139.89 143.64,140.05 143.81,140.24 143.9,140.34 143.98,140.44 144.05,140.55 L 142.3,139.68 C 142.3,139.51 142.13,139.57 142.03,139.58 141.56,139.66 141.13,140.02 140.92,140.42 140.73,140.77 140.69,141.1 140.59,141.43 140.24,140.75 140.38,140.02 140.55,139.49 140.59,139.37 140.66,139.24 140.71,139.13 140.76,139.02 140.84,138.89 140.79,138.78 140.73,138.68 140.59,138.67 140.45,138.72 140.33,138.77 140.22,138.81 140.12,138.88 139.22,139.45 139.17,140.73 139.3,141.6 z M 132.14,162.34 C 132.01,161.41 132.12,160.77 132.34,159.85 132.43,159.44 132.55,159.13 132.72,158.74 132.64,160.12 133.12,161.58 133.77,162.51 133.82,162.58 133.87,162.63 133.91,162.7 133.83,162.79 133.69,162.93 133.64,163.0 133.47,163.13 133.43,162.94 133.36,162.73 133.29,162.55 133.19,162.38 132.99,162.26 132.86,162.17 132.63,162.17 132.48,162.19 132.35,162.21 132.14,162.34 132.14,162.34 z M 134.7,158.87 C 134.91,160.19 135.35,161.41 136.15,162.3 136.15,162.3 136.0,162.69 135.94,162.85 135.84,163.08 135.87,163.26 135.63,163.19 135.42,163.13 135.38,162.88 135.28,162.71 135.07,162.35 134.74,162.35 134.44,162.41 L 134.38,162.25 C 134.04,161.13 134.26,159.79 134.7,158.87 z M 155.14,163.02 C 154.98,164.31 154.48,165.36 153.63,165.95 154.55,164.54 154.57,162.75 153.93,161.39 153.7,160.93 153.45,160.55 153.01,160.25 152.6,159.97 152.06,159.82 151.56,159.99 151.3,160.08 151.14,160.24 151.18,160.54 151.21,160.84 151.37,160.97 151.63,161.09 152.07,161.3 152.56,161.35 152.78,161.93 153.16,162.96 152.15,163.89 151.43,164.36 151.01,164.62 150.57,164.83 150.1,165.02 150.03,165.06 149.95,164.95 149.87,164.92 150.28,164.64 150.67,164.36 151.02,164.01 151.35,163.68 151.71,163.26 151.67,162.73 151.63,162.18 151.2,161.88 150.76,161.68 150.31,161.47 149.87,161.27 149.51,160.89 148.76,160.11 148.78,158.95 149.74,158.34 150.61,157.79 151.77,157.97 152.59,158.46 153.41,158.94 154.12,159.81 154.54,160.64 154.73,160.98 154.83,161.32 154.95,161.65 154.96,160.98 155.31,160.38 155.64,160.02 156.32,159.27 157.59,159.23 158.49,159.49 160.44,160.05 161.42,162.09 161.9,163.84 162.37,165.52 162.36,167.9 161.85,169.61 161.55,170.66 160.99,171.55 160.27,172.38 159.63,173.13 158.92,173.55 158.2,174.03 159.44,172.66 160.5,170.32 160.68,168.91 160.93,166.95 160.69,164.9 159.81,163.14 159.38,162.28 158.98,161.43 158.18,160.85 157.74,160.53 157.32,160.33 156.74,160.37 156.2,160.4 155.73,160.65 155.47,161.15 155.23,161.6 155.22,162.11 155.42,162.58 155.63,163.05 155.97,163.4 156.26,163.8 156.82,164.58 157.22,165.4 157.06,166.43 156.88,167.52 156.13,168.18 155.15,168.53 154.42,168.79 153.81,168.82 153.12,168.72 154.21,168.07 155.32,166.98 155.58,165.9 155.81,164.94 155.37,163.87 155.14,163.02 z" />
			
		<!-- Prism Reference -->
		<cam mingh:cam="--verb EditSelectAll --verb ZoomSelection --verb FileSave " />  
	 </g>

</svg>
