<svg xmlns="http://www.w3.org/2000/svg" 
xmlns:mingh="http://www.minghworld.com" 
xmlns:svg="http://www.w3.org/2000/svg" 
xmlns:xlink="http://www.w3.org/1999/xlink" 
height="300px" width="300px">
    
	 <g>
		<!-- Paths -->
		<path d="M 150.0 127.72 C 149.26 127.71 148.52 127.95 147.91 128.38 C 146.66 129.17 145.97 130.69 146.19 132.16 C 138.35 133.58 131.77 140.15 130.25 148.0 C 128.56 155.73 132.02 164.22 138.53 168.66 C 144.95 173.27 154.05 173.46 160.69 169.19 C 167.48 165.04 171.26 156.58 169.88 148.72 C 168.62 140.52 161.98 133.62 153.84 132.16 C 153.9 131.86 153.9 131.56 153.88 131.25 C 153.74 129.8 152.68 128.48 151.31 128.0 C 150.9 127.84 150.44 127.72 150.0 127.72 z M 150.0 129.78 C 151.02 129.78 151.84 130.6 151.84 131.63 C 151.84 132.65 151.02 133.47 150.0 133.47 C 148.98 133.47 148.19 132.65 148.19 131.63 C 148.19 130.6 148.98 129.78 150.0 129.78 z M 143.94 139.88 C 144.46 139.85 144.94 140.24 145.22 140.66 C 145.92 141.7 146.13 142.99 146.22 144.22 C 146.29 145.72 146.13 147.3 145.44 148.66 C 145.14 149.21 144.68 149.82 144.0 149.84 C 143.69 149.84 143.41 149.67 143.19 149.47 C 142.42 148.72 142.1 147.65 141.91 146.63 C 141.63 144.93 141.71 143.11 142.34 141.5 C 142.62 140.85 143.05 140.15 143.75 139.91 C 143.83 139.88 143.86 139.88 143.94 139.88 z M 155.97 139.88 C 156.49 139.85 156.97 140.24 157.25 140.66 C 157.95 141.7 158.16 142.99 158.25 144.22 C 158.33 145.72 158.16 147.3 157.47 148.66 C 157.17 149.21 156.72 149.82 156.03 149.84 C 155.72 149.84 155.41 149.67 155.19 149.47 C 154.42 148.72 154.1 147.65 153.91 146.63 C 153.63 144.93 153.74 143.11 154.38 141.5 C 154.66 140.85 155.01 140.15 155.72 139.91 C 155.79 139.88 155.89 139.88 155.97 139.88 z M 137.84 153.88 C 137.86 153.88 137.87 153.91 137.88 153.94 C 137.83 154.15 137.67 154.29 137.56 154.47 C 137.41 154.7 137.37 155.04 137.53 155.28 C 138.88 156.92 140.9 157.78 142.88 158.41 C 147.26 159.61 151.95 159.64 156.38 158.63 C 158.58 158.04 160.85 157.16 162.41 155.41 C 162.57 155.26 162.64 155.03 162.59 154.81 C 162.55 154.54 162.36 154.32 162.22 154.09 C 162.18 154.04 162.09 153.82 162.22 153.88 C 162.5 154.02 162.72 154.28 162.91 154.53 C 163.11 154.81 163.36 155.03 163.63 155.25 C 163.81 155.41 164.02 155.6 164.09 155.84 C 164.13 155.95 164.06 156.09 163.94 156.06 C 163.81 156.03 163.74 155.88 163.66 155.78 C 163.53 155.61 163.35 155.45 163.13 155.44 C 162.95 155.43 162.84 155.56 162.78 155.72 C 162.64 156.25 162.44 156.78 162.22 157.28 C 160.67 160.77 157.22 163.0 153.66 164.0 C 149.62 165.17 145.15 164.21 141.72 161.84 C 139.54 160.39 137.9 158.17 137.22 155.63 C 137.17 155.53 137.1 155.46 137.0 155.44 C 136.78 155.39 136.56 155.55 136.44 155.72 C 136.34 155.83 136.26 156.0 136.13 156.06 C 136.02 156.1 135.89 155.98 135.91 155.88 C 135.94 155.68 136.11 155.51 136.25 155.38 C 136.52 155.13 136.78 154.92 137.0 154.63 C 137.18 154.38 137.4 154.17 137.66 154.0 C 137.7 153.98 137.79 153.87 137.84 153.88 z" id="shape" style="fill:#ff0;stroke:none;" transform="matrix(-1 0 0 1 300 0)"/>

		<!-- Text -->
		<text dy="2.8" id="txtTwo" style="stroke:none;fill:#f00;font-family:'Eras Medium ITC';font-size:10px;text-anchor:middle" transform="matrix(1 0 0 1 150 150)">

		</text>
		<!-- Prism Reference -->
		<cam mingh:cam="--verb EditSelectAll --verb ZoomSelection --verb FileSave "/> 
	 </g>

</svg>
