<svg
   xmlns:xlink="http://www.w3.org/1999/xlink"
   xmlns:svg="http://www.w3.org/2000/svg"
   xmlns="http://www.w3.org/2000/svg"
   xmlns:mingh="http://www.minghworld.com"
   width="300px"
   height="300px" >
   
	 <g>	
		<!-- Shape -->
		<path id="shape" style="fill:none;stroke:#000;stroke-width:0.25px;"
			d="M 149.94,128.38 C 149.75,128.39 149.57,128.4 149.38,128.44 C 146.25,129.05 145.0,132.85 147.16,135.19 C 147.23,135.26 147.16,135.4 147.06,135.38 C 146.98,135.35 146.87,135.31 146.78,135.28 C 146.61,135.23 146.45,135.17 146.28,135.13 C 145.94,135.03 145.6,134.95 145.25,134.88 C 144.55,134.72 143.84,134.6 143.13,134.53 C 141.67,134.39 140.27,134.45 138.84,134.75 C 137.5,135.04 136.04,135.54 135.03,136.59 C 134.07,137.6 133.43,139.12 133.06,140.41 C 132.24,143.26 132.43,146.12 133.06,148.94 C 133.75,152.0 134.64,154.19 136.22,156.91 C 137.68,159.43 139.44,161.64 141.5,163.69 C 143.39,165.56 145.98,167.56 148.34,168.81 C 150.69,170.05 153.8,171.21 156.47,171.53 C 157.91,171.71 159.31,171.67 160.75,171.41 C 162.08,171.16 163.62,170.73 164.69,169.78 C 165.75,168.84 166.4,167.34 166.81,166.06 C 167.26,164.67 167.46,163.3 167.47,161.84 C 167.49,159.17 166.77,155.92 165.84,153.44 C 165.59,152.77 165.31,152.11 165.0,151.47 C 164.84,151.15 164.67,150.85 164.5,150.53 C 164.42,150.37 164.34,150.19 164.25,150.03 C 164.21,149.95 164.17,149.89 164.13,149.81 C 164.1,149.77 164.08,149.73 164.06,149.69 C 164.05,149.67 164.04,149.64 164.03,149.63 C 164.03,149.62 164.01,149.6 164.0,149.59 C 163.99,149.58 163.98,149.58 164.0,149.56 C 164.29,149.32 164.42,149.01 164.38,148.63 C 164.33,148.26 164.15,147.94 163.81,147.78 C 163.45,147.61 163.12,147.64 162.75,147.72 C 162.73,147.72 162.71,147.74 162.69,147.75 C 162.67,147.76 162.68,147.73 162.69,147.72 C 162.7,147.71 162.71,147.7 162.72,147.69 C 162.75,147.66 162.78,147.63 162.81,147.59 C 162.88,147.53 162.95,147.48 163.0,147.41 C 163.11,147.26 163.19,147.09 163.22,146.91 C 163.27,146.55 163.14,146.18 162.88,145.94 C 162.59,145.67 162.24,145.6 161.88,145.66 C 161.85,145.66 161.83,145.68 161.81,145.69 C 161.8,145.69 161.79,145.69 161.78,145.69 C 161.77,145.69 161.74,145.7 161.75,145.69 C 161.78,145.65 161.79,145.6 161.81,145.56 C 161.86,145.48 161.88,145.43 161.91,145.34 C 161.96,145.16 161.98,144.96 161.94,144.78 C 161.85,144.42 161.61,144.15 161.25,144.03 C 160.9,143.92 160.5,144.03 160.19,144.16 C 160.18,144.16 160.17,144.15 160.16,144.16 C 160.16,144.15 160.15,144.13 160.16,144.13 C 160.18,144.09 160.2,144.04 160.22,144.0 C 160.26,143.92 160.31,143.83 160.34,143.75 C 160.41,143.58 160.45,143.41 160.44,143.22 C 160.4,142.42 159.53,142.01 158.84,142.38 C 158.83,142.38 158.84,142.35 158.84,142.34 C 158.85,142.33 158.84,142.32 158.84,142.31 C 158.85,142.29 158.87,142.27 158.88,142.25 C 158.89,142.21 158.9,142.17 158.91,142.13 C 158.93,142.04 158.94,141.93 158.94,141.84 C 158.94,141.66 158.9,141.51 158.81,141.34 C 158.64,141.03 158.32,140.79 157.97,140.75 C 157.55,140.7 157.26,140.87 156.97,141.13 C 156.96,141.13 156.94,141.12 156.94,141.13 C 156.95,141.08 156.99,141.04 157.0,141.0 C 157.03,140.91 157.05,140.81 157.06,140.72 C 157.1,140.54 157.1,140.37 157.06,140.19 C 156.92,139.42 156.0,139.11 155.38,139.56 C 155.34,139.59 155.31,139.6 155.28,139.63 C 155.27,139.64 155.23,139.6 155.22,139.59 C 155.2,139.58 155.21,139.58 155.19,139.56 C 155.12,139.51 155.04,139.46 154.97,139.41 C 154.82,139.3 154.68,139.2 154.53,139.09 C 154.24,138.89 153.95,138.67 153.66,138.47 C 153.06,138.07 152.44,137.71 151.81,137.38 C 151.5,137.21 151.2,137.03 150.88,136.88 C 150.79,136.84 150.71,136.82 150.63,136.78 C 150.59,136.76 150.43,136.68 150.41,136.63 C 150.36,136.5 150.46,136.51 150.56,136.5 C 150.65,136.49 150.73,136.45 150.81,136.44 C 152.28,136.2 153.51,135.19 154.0,133.78 C 154.98,130.99 152.77,128.21 149.94,128.38 z M 150.16,130.47 C 151.23,130.47 152.09,131.36 152.09,132.44 C 152.09,133.51 151.23,134.38 150.16,134.38 C 149.08,134.38 148.19,133.51 148.19,132.44 C 148.19,131.36 149.08,130.47 150.16,130.47 z" />
			
		<path id="shape" style="fill:#f00;stroke:none;"
			d="M 159.3,145.05 C 159.3,145.06 159.3,145.06 159.3,145.06 C 159.13,145.18 158.96,145.31 158.8,145.44 C 158.69,145.53 158.59,145.61 158.49,145.7 C 158.47,145.69 158.46,145.67 158.44,145.65 C 158.44,145.65 158.44,145.65 158.44,145.65 C 158.44,145.65 158.44,145.65 158.44,145.65 C 158.42,145.63 158.41,145.62 158.4,145.6 C 158.5,145.51 158.6,145.42 158.7,145.33 C 158.85,145.18 159.0,145.03 159.14,144.88 C 159.14,144.88 159.15,144.88 159.15,144.88 C 159.17,144.91 159.2,144.94 159.22,144.97 C 159.25,145.0 159.28,145.03 159.3,145.05 z M 157.19,144.06 C 157.2,144.05 157.21,144.04 157.22,144.03 C 157.37,143.87 157.53,143.71 157.67,143.54 C 157.67,143.53 157.68,143.53 157.68,143.53 C 157.68,143.54 157.69,143.54 157.7,143.55 C 157.73,143.6 157.77,143.65 157.81,143.69 C 157.66,143.85 157.51,144.0 157.37,144.15 C 157.35,144.17 157.33,144.19 157.31,144.21 C 157.27,144.16 157.23,144.11 157.19,144.06 z M 156.47,147.38 C 156.53,147.39 156.58,147.39 156.64,147.4 C 156.73,147.42 156.83,147.45 156.92,147.47 C 157.07,147.51 157.22,147.56 157.36,147.62 C 157.56,147.69 157.74,147.79 157.93,147.89 C 158.1,147.99 158.26,148.1 158.41,148.22 C 158.56,148.34 158.71,148.46 158.85,148.59 C 159.05,148.77 159.25,148.97 159.44,149.17 C 159.67,149.4 159.89,149.65 160.11,149.9 C 160.32,150.14 160.53,150.39 160.74,150.64 C 160.9,150.84 161.07,151.04 161.24,151.24 C 161.36,151.38 161.47,151.52 161.6,151.66 C 161.69,151.75 161.78,151.84 161.88,151.91 C 161.93,151.95 161.98,151.99 162.04,152.02 C 162.09,152.04 162.13,152.06 162.19,152.08 C 162.23,152.1 162.28,152.1 162.33,152.11 C 162.37,152.11 162.41,152.11 162.44,152.1 C 162.47,152.1 162.5,152.1 162.53,152.09 C 162.55,152.08 162.58,152.07 162.59,152.06 C 162.61,152.05 162.62,152.04 162.63,152.03 C 162.64,152.01 162.65,151.99 162.66,151.97 C 162.67,151.94 162.68,151.9 162.69,151.87 C 162.7,151.83 162.7,151.78 162.7,151.74 C 162.7,151.66 162.69,151.58 162.68,151.5 C 162.66,151.38 162.62,151.27 162.58,151.16 C 162.53,151.04 162.48,150.92 162.42,150.8 C 162.35,150.64 162.27,150.49 162.18,150.33 C 162.16,150.3 162.15,150.27 162.13,150.24 C 162.31,150.15 162.49,150.06 162.67,149.97 C 162.81,149.9 162.95,149.83 163.09,149.76 C 163.09,149.76 163.1,149.76 163.1,149.75 C 163.22,149.89 163.34,150.01 163.49,150.13 C 163.69,150.29 163.93,150.43 164.07,150.34 C 164.12,150.32 164.15,150.26 164.17,150.19 C 164.27,150.37 164.36,150.54 164.45,150.72 C 164.42,150.75 164.39,150.77 164.35,150.8 C 164.28,150.84 164.2,150.87 164.12,150.89 C 164.05,150.9 163.98,150.9 163.91,150.9 C 163.85,150.89 163.8,150.88 163.75,150.87 C 163.7,150.85 163.65,150.84 163.6,150.82 C 163.52,150.78 163.45,150.74 163.38,150.7 C 163.31,150.65 163.24,150.61 163.18,150.56 C 163.13,150.52 163.08,150.48 163.04,150.44 C 163.05,150.46 163.06,150.48 163.06,150.49 C 163.13,150.63 163.19,150.77 163.25,150.92 C 163.3,151.06 163.35,151.21 163.37,151.36 C 163.4,151.49 163.41,151.62 163.41,151.75 C 163.41,151.84 163.4,151.92 163.39,152.0 C 163.37,152.08 163.35,152.16 163.32,152.24 C 163.28,152.32 163.24,152.39 163.19,152.46 C 163.13,152.53 163.06,152.6 162.99,152.65 C 162.92,152.69 162.84,152.73 162.76,152.76 C 162.68,152.78 162.61,152.8 162.53,152.81 C 162.45,152.82 162.37,152.82 162.29,152.81 C 162.18,152.81 162.08,152.79 161.98,152.76 C 161.88,152.73 161.79,152.69 161.7,152.64 C 161.62,152.59 161.53,152.54 161.45,152.48 C 161.33,152.38 161.21,152.27 161.09,152.15 C 160.96,152.01 160.83,151.85 160.7,151.7 C 160.32,151.24 159.94,150.78 159.55,150.34 C 159.34,150.1 159.13,149.86 158.91,149.63 C 158.73,149.45 158.55,149.28 158.37,149.11 C 158.24,148.99 158.11,148.88 157.98,148.78 C 157.84,148.68 157.71,148.58 157.56,148.5 C 157.41,148.41 157.26,148.34 157.1,148.27 C 156.98,148.23 156.86,148.19 156.73,148.15 C 156.66,148.13 156.58,148.12 156.5,148.1 C 156.43,148.09 156.36,148.08 156.29,148.07 C 156.23,148.07 156.18,148.07 156.12,148.07 C 155.95,148.09 155.78,148.11 155.61,148.13 C 155.65,147.97 155.69,147.8 155.74,147.64 C 155.75,147.58 155.76,147.52 155.76,147.47 C 155.76,147.4 155.76,147.32 155.76,147.25 C 155.76,147.17 155.75,147.09 155.74,147.02 C 155.72,146.89 155.7,146.77 155.67,146.64 C 155.62,146.47 155.57,146.31 155.5,146.15 C 155.44,146.0 155.36,145.85 155.28,145.7 C 155.2,145.56 155.1,145.41 155.01,145.27 C 154.86,145.07 154.71,144.87 154.55,144.67 C 154.36,144.42 154.15,144.18 153.94,143.94 C 153.55,143.49 153.14,143.06 152.74,142.62 C 152.6,142.48 152.47,142.33 152.34,142.17 C 152.28,142.1 152.22,142.02 152.17,141.94 C 152.13,141.88 152.1,141.83 152.07,141.77 C 152.02,141.69 151.97,141.6 151.94,141.51 C 151.9,141.41 151.88,141.31 151.86,141.21 C 151.84,141.11 151.84,141.01 151.84,140.9 C 151.85,140.82 151.86,140.74 151.88,140.66 C 151.9,140.59 151.93,140.51 151.96,140.44 C 152.0,140.37 152.04,140.29 152.1,140.23 C 152.16,140.16 152.23,140.1 152.31,140.06 C 152.38,140.01 152.46,139.98 152.55,139.96 C 152.63,139.94 152.71,139.92 152.79,139.92 C 153.01,139.91 153.22,139.95 153.42,140.01 C 153.57,140.06 153.71,140.13 153.85,140.2 C 153.98,140.27 154.12,140.35 154.25,140.44 C 154.26,140.45 154.28,140.46 154.29,140.47 C 154.26,140.42 154.23,140.37 154.2,140.31 C 154.16,140.24 154.12,140.17 154.08,140.1 C 154.05,140.02 154.02,139.94 154.0,139.86 C 153.98,139.81 153.97,139.76 153.96,139.71 C 153.96,139.66 153.95,139.6 153.96,139.54 C 153.96,139.47 153.97,139.41 153.99,139.34 C 154.02,139.26 154.06,139.19 154.11,139.12 C 154.14,139.09 154.17,139.06 154.2,139.03 C 154.37,139.14 154.53,139.26 154.69,139.38 C 154.62,139.39 154.56,139.41 154.53,139.46 C 154.43,139.58 154.53,139.84 154.66,140.06 C 154.76,140.22 154.87,140.36 154.98,140.5 C 154.98,140.5 154.98,140.5 154.97,140.51 C 154.89,140.64 154.8,140.77 154.71,140.9 C 154.6,141.06 154.49,141.23 154.38,141.4 C 154.35,141.38 154.32,141.35 154.29,141.33 C 154.15,141.23 154.01,141.13 153.86,141.03 C 153.75,140.96 153.64,140.89 153.52,140.83 C 153.42,140.77 153.31,140.72 153.2,140.69 C 153.12,140.66 153.04,140.64 152.96,140.63 C 152.92,140.63 152.88,140.63 152.83,140.63 C 152.8,140.63 152.76,140.63 152.73,140.64 C 152.71,140.65 152.69,140.66 152.67,140.67 C 152.66,140.67 152.64,140.69 152.63,140.7 C 152.62,140.71 152.61,140.73 152.6,140.75 C 152.58,140.78 152.57,140.81 152.57,140.84 C 152.56,140.88 152.55,140.91 152.55,140.95 C 152.55,141.0 152.55,141.05 152.56,141.1 C 152.57,141.15 152.58,141.2 152.6,141.25 C 152.62,141.31 152.65,141.37 152.68,141.42 C 152.75,141.53 152.82,141.63 152.9,141.73 C 153.02,141.88 153.14,142.01 153.27,142.15 C 153.44,142.34 153.62,142.53 153.8,142.72 C 154.02,142.96 154.24,143.2 154.45,143.44 C 154.67,143.69 154.88,143.94 155.09,144.2 C 155.26,144.42 155.43,144.64 155.58,144.86 C 155.69,145.02 155.8,145.18 155.89,145.34 C 155.99,145.51 156.08,145.69 156.15,145.87 C 156.23,146.06 156.3,146.26 156.35,146.47 C 156.39,146.62 156.42,146.77 156.44,146.92 C 156.45,147.02 156.46,147.11 156.47,147.21 C 156.47,147.27 156.47,147.32 156.47,147.38 M 162.02,148.31 C 161.92,148.36 161.82,148.4 161.72,148.45 C 161.54,148.54 161.35,148.63 161.17,148.73 C 161.16,148.72 161.16,148.71 161.15,148.7 C 161.11,148.64 161.07,148.58 161.02,148.52 C 161.23,148.39 161.43,148.25 161.63,148.11 C 161.68,148.08 161.72,148.05 161.77,148.02 C 161.85,148.11 161.94,148.21 162.02,148.31 M 159.73,146.96 C 159.75,146.94 159.77,146.93 159.79,146.91 C 159.99,146.77 160.19,146.61 160.39,146.46 C 160.44,146.52 160.48,146.57 160.53,146.63 C 160.5,146.65 160.47,146.67 160.44,146.69 C 160.25,146.81 160.07,146.94 159.89,147.08 C 159.88,147.08 159.87,147.09 159.86,147.1 C 159.82,147.05 159.77,147.01 159.73,146.96 z M 156.27,141.76 C 156.36,141.85 156.45,141.95 156.53,142.05 C 156.49,142.09 156.46,142.13 156.42,142.17 C 156.26,142.35 156.09,142.53 155.93,142.72 C 155.88,142.67 155.83,142.62 155.77,142.57 C 155.77,142.56 155.76,142.55 155.75,142.54 C 155.87,142.38 155.98,142.21 156.1,142.03 C 156.16,141.94 156.21,141.85 156.27,141.76 M 157.74,143.45 C 157.79,143.51 157.84,143.56 157.89,143.61 C 157.87,143.64 157.84,143.67 157.81,143.69 C 157.77,143.65 157.73,143.6 157.7,143.55 C 157.69,143.54 157.68,143.54 157.68,143.53 C 157.7,143.5 157.72,143.48 157.74,143.45 z M 160.04,144.82 C 159.89,144.9 159.76,144.99 159.62,145.09 C 159.35,145.27 159.09,145.47 158.83,145.69 C 158.68,145.81 158.53,145.94 158.41,146.1 C 158.31,146.22 158.22,146.37 158.21,146.52 C 158.2,146.68 158.28,146.85 158.4,146.95 C 158.56,147.1 158.79,147.13 159.01,147.09 C 159.25,147.04 159.46,146.89 159.66,146.74 C 159.98,146.51 160.28,146.28 160.57,146.06 C 160.65,145.99 160.74,145.92 160.83,145.84 C 160.91,145.78 160.99,145.71 161.07,145.64 C 161.22,145.5 161.38,145.34 161.42,145.15 C 161.45,144.99 161.4,144.81 161.3,144.69 C 161.23,144.61 161.14,144.55 161.05,144.53 C 160.87,144.49 160.66,144.54 160.47,144.61 C 160.32,144.67 160.17,144.74 160.04,144.82 z M 159.48,144.18 C 159.38,144.31 159.27,144.43 159.16,144.55 C 158.93,144.8 158.7,145.03 158.46,145.26 C 158.32,145.39 158.17,145.52 158.0,145.63 C 157.86,145.71 157.7,145.78 157.55,145.77 C 157.39,145.75 157.24,145.65 157.15,145.52 C 157.03,145.35 157.02,145.11 157.09,144.9 C 157.17,144.67 157.34,144.48 157.52,144.3 C 157.79,144.02 158.06,143.75 158.32,143.49 C 158.4,143.41 158.48,143.33 158.56,143.25 C 158.64,143.19 158.71,143.12 158.8,143.05 C 158.96,142.92 159.14,142.78 159.33,142.77 C 159.49,142.76 159.66,142.83 159.77,142.94 C 159.84,143.02 159.88,143.12 159.89,143.22 C 159.91,143.39 159.84,143.6 159.74,143.78 C 159.66,143.92 159.58,144.05 159.48,144.18 z M 162.61,148.31 C 162.45,148.36 162.29,148.42 162.13,148.49 C 161.85,148.62 161.56,148.76 161.28,148.91 C 161.12,149.0 160.96,149.09 160.81,149.22 C 160.69,149.32 160.59,149.44 160.55,149.59 C 160.52,149.74 160.57,149.92 160.66,150.05 C 160.79,150.22 161.01,150.31 161.22,150.31 C 161.45,150.31 161.68,150.21 161.9,150.11 C 162.24,149.95 162.56,149.79 162.87,149.63 C 162.98,149.58 163.08,149.53 163.19,149.47 C 163.27,149.42 163.34,149.38 163.42,149.33 C 163.58,149.23 163.76,149.1 163.83,148.93 C 163.89,148.78 163.86,148.6 163.79,148.46 C 163.74,148.37 163.67,148.3 163.58,148.25 C 163.42,148.18 163.21,148.18 163.02,148.21 C 162.88,148.23 162.74,148.26 162.61,148.31 z M 161.34,146.4 C 161.17,146.48 161.02,146.57 160.86,146.67 C 160.59,146.84 160.31,147.03 160.04,147.23 C 159.89,147.34 159.74,147.46 159.6,147.61 C 159.5,147.74 159.41,147.88 159.39,148.04 C 159.38,148.2 159.46,148.37 159.57,148.49 C 159.73,148.65 159.97,148.71 160.19,148.68 C 160.43,148.65 160.65,148.51 160.86,148.37 C 161.19,148.16 161.5,147.95 161.79,147.74 C 161.89,147.67 161.98,147.61 162.07,147.54 C 162.15,147.48 162.23,147.41 162.32,147.34 C 162.47,147.21 162.64,147.06 162.68,146.87 C 162.72,146.71 162.67,146.52 162.57,146.39 C 162.51,146.3 162.42,146.24 162.32,146.2 C 162.15,146.15 161.93,146.18 161.73,146.24 C 161.59,146.28 161.46,146.34 161.34,146.4 z M 158.08,142.68 C 157.98,142.84 157.87,142.98 157.75,143.12 C 157.54,143.37 157.32,143.62 157.09,143.86 C 156.96,144.0 156.82,144.13 156.65,144.24 C 156.51,144.33 156.36,144.4 156.2,144.4 C 156.04,144.39 155.88,144.29 155.77,144.16 C 155.64,143.98 155.61,143.74 155.67,143.53 C 155.73,143.29 155.9,143.09 156.06,142.9 C 156.31,142.6 156.57,142.32 156.81,142.05 C 156.89,141.97 156.97,141.89 157.05,141.81 C 157.12,141.73 157.19,141.66 157.27,141.59 C 157.42,141.45 157.6,141.31 157.79,141.29 C 157.96,141.27 158.14,141.35 158.25,141.46 C 158.33,141.53 158.38,141.63 158.4,141.73 C 158.43,141.91 158.37,142.12 158.29,142.31 C 158.23,142.44 158.16,142.57 158.08,142.68 z M 156.36,141.17 C 156.28,141.32 156.2,141.47 156.11,141.62 C 155.94,141.89 155.77,142.15 155.58,142.41 C 155.47,142.56 155.36,142.71 155.22,142.84 C 155.1,142.94 154.96,143.03 154.81,143.04 C 154.66,143.06 154.49,142.99 154.38,142.88 C 154.22,142.73 154.16,142.5 154.19,142.29 C 154.21,142.06 154.34,141.85 154.47,141.64 C 154.68,141.33 154.88,141.03 155.07,140.74 C 155.14,140.64 155.21,140.54 155.28,140.44 C 155.33,140.38 155.38,140.31 155.44,140.24 C 155.57,140.09 155.71,139.93 155.89,139.88 C 156.05,139.84 156.23,139.89 156.35,139.98 C 156.44,140.04 156.5,140.12 156.53,140.22 C 156.59,140.39 156.56,140.59 156.5,140.78 C 156.46,140.92 156.41,141.05 156.36,141.17 z M 163.19,170.56 C 161.25,170.98 159.35,170.77 157.49,170.21 C 155.53,169.63 153.44,168.59 151.69,167.57 C 148.34,165.6 145.01,162.63 142.46,159.73 C 139.92,156.83 137.39,153.15 135.87,149.57 C 135.08,147.72 134.31,145.49 133.98,143.49 C 133.66,141.57 133.69,139.66 134.33,137.79 C 134.38,137.64 134.47,137.53 134.55,137.41 C 134.59,137.34 134.64,137.28 134.69,137.22 C 134.71,137.19 134.73,137.15 134.76,137.12 C 134.76,137.12 134.77,137.1 134.77,137.11 C 134.77,137.12 134.76,137.12 134.76,137.13 C 134.76,137.14 134.76,137.15 134.75,137.17 C 134.71,137.36 134.67,137.56 134.65,137.76 C 134.59,138.18 134.57,138.59 134.57,139.01 C 134.59,139.97 134.76,140.88 135.0,141.79 C 135.54,143.82 136.56,146.03 137.53,147.87 C 139.32,151.3 141.97,154.91 144.51,157.8 C 147.04,160.69 150.27,163.8 153.42,166.04 C 155.11,167.24 157.19,168.55 159.12,169.36 C 159.99,169.73 160.87,170.02 161.82,170.17 C 162.24,170.24 162.65,170.27 163.08,170.28 C 163.28,170.28 163.48,170.27 163.68,170.25 C 163.7,170.25 163.73,170.25 163.75,170.24 C 163.77,170.24 163.84,170.23 163.81,170.25 C 163.74,170.28 163.67,170.32 163.6,170.36 C 163.47,170.43 163.33,170.5 163.19,170.56 z M 161.83,166.87 C 161.62,167.06 161.4,167.19 161.17,167.25 C 161.06,167.28 160.94,167.3 160.83,167.29 C 160.72,167.29 160.61,167.26 160.51,167.22 C 160.41,167.17 160.31,167.11 160.22,167.03 C 160.17,166.99 160.13,166.94 160.08,166.89 C 160.04,166.84 160.0,166.79 159.96,166.72 C 159.94,166.69 159.92,166.65 159.9,166.61 C 159.88,166.58 159.86,166.54 159.85,166.5 C 159.81,166.43 159.79,166.35 159.76,166.28 C 159.74,166.2 159.73,166.12 159.72,166.05 C 159.72,166.01 159.72,165.97 159.72,165.93 C 159.72,165.91 159.72,165.89 159.72,165.87 C 159.72,165.85 159.72,165.83 159.72,165.81 C 159.72,165.79 159.72,165.78 159.73,165.77 C 159.73,165.75 159.73,165.74 159.73,165.72 C 159.74,165.69 159.74,165.67 159.75,165.64 C 159.76,165.58 159.77,165.52 159.79,165.46 C 159.83,165.34 159.87,165.22 159.94,165.1 C 159.97,165.04 160.0,164.98 160.03,164.93 C 160.07,164.87 160.1,164.82 160.14,164.77 C 160.17,164.72 160.21,164.68 160.25,164.63 C 160.27,164.61 160.29,164.59 160.31,164.57 C 160.32,164.56 160.33,164.55 160.34,164.54 C 160.35,164.53 160.36,164.52 160.37,164.52 C 160.37,164.51 160.38,164.5 160.38,164.5 C 160.39,164.5 160.4,164.49 160.4,164.49 C 160.41,164.48 160.43,164.47 160.44,164.46 C 160.46,164.44 160.49,164.43 160.51,164.42 C 160.56,164.39 160.61,164.38 160.66,164.38 C 160.7,164.37 160.75,164.38 160.78,164.4 C 160.8,164.41 160.82,164.42 160.83,164.43 C 160.85,164.45 160.86,164.47 160.87,164.49 C 160.89,164.52 160.9,164.56 160.91,164.6 C 160.91,164.64 160.9,164.68 160.89,164.73 C 160.88,164.77 160.86,164.82 160.83,164.88 C 160.8,164.93 160.77,164.99 160.72,165.05 C 160.7,165.09 160.68,165.12 160.65,165.16 C 160.63,165.19 160.61,165.23 160.59,165.26 C 160.55,165.33 160.52,165.39 160.49,165.45 C 160.46,165.51 160.44,165.57 160.42,165.63 C 160.41,165.69 160.4,165.76 160.4,165.82 C 160.4,165.88 160.4,165.95 160.42,166.01 C 160.43,166.04 160.44,166.08 160.46,166.11 C 160.46,166.13 160.47,166.14 160.48,166.16 C 160.49,166.17 160.5,166.19 160.51,166.21 C 160.52,166.22 160.53,166.25 160.55,166.27 C 160.56,166.29 160.58,166.31 160.59,166.33 C 160.62,166.36 160.66,166.39 160.69,166.41 C 160.73,166.44 160.76,166.46 160.8,166.47 C 160.84,166.49 160.88,166.5 160.92,166.5 C 160.97,166.51 161.01,166.51 161.05,166.5 C 161.09,166.5 161.13,166.49 161.17,166.47 C 161.21,166.46 161.25,166.44 161.29,166.41 C 161.31,166.4 161.33,166.39 161.35,166.37 C 161.37,166.36 161.39,166.34 161.41,166.33 C 161.44,166.29 161.47,166.27 161.49,166.24 C 161.52,166.21 161.54,166.18 161.56,166.15 C 161.6,166.09 161.63,166.03 161.66,165.97 C 161.68,165.9 161.69,165.83 161.7,165.77 C 161.7,165.7 161.71,165.64 161.7,165.57 C 161.7,165.53 161.69,165.5 161.69,165.46 C 161.68,165.42 161.67,165.38 161.67,165.34 C 161.66,165.3 161.65,165.25 161.64,165.2 C 161.64,165.18 161.63,165.16 161.63,165.13 C 161.62,165.11 161.62,165.09 161.61,165.06 C 161.61,165.03 161.6,164.99 161.59,164.95 C 161.59,164.92 161.58,164.88 161.57,164.85 C 161.56,164.79 161.56,164.72 161.55,164.66 C 161.54,164.59 161.54,164.53 161.53,164.47 C 161.53,164.41 161.53,164.35 161.53,164.3 C 161.53,164.18 161.55,164.07 161.57,163.96 C 161.6,163.85 161.63,163.73 161.68,163.62 C 161.73,163.51 161.8,163.41 161.88,163.3 C 161.92,163.25 161.96,163.2 162.01,163.15 C 162.05,163.1 162.11,163.05 162.16,163.0 C 162.26,162.91 162.36,162.84 162.46,162.78 C 162.57,162.72 162.67,162.68 162.77,162.66 C 162.87,162.64 162.97,162.64 163.06,162.66 C 163.16,162.67 163.25,162.71 163.33,162.77 C 163.37,162.79 163.41,162.83 163.45,162.86 C 163.49,162.9 163.53,162.94 163.56,162.99 C 163.6,163.03 163.63,163.08 163.66,163.14 C 163.68,163.16 163.69,163.19 163.71,163.22 C 163.72,163.25 163.74,163.29 163.75,163.32 C 163.76,163.34 163.77,163.37 163.78,163.39 C 163.79,163.42 163.8,163.44 163.81,163.47 C 163.83,163.52 163.84,163.57 163.85,163.62 C 163.88,163.72 163.89,163.81 163.9,163.91 C 163.91,164.11 163.89,164.3 163.85,164.47 C 163.81,164.64 163.75,164.79 163.67,164.93 C 163.6,165.06 163.51,165.16 163.43,165.24 C 163.38,165.28 163.34,165.31 163.3,165.33 C 163.25,165.35 163.2,165.36 163.16,165.36 C 163.12,165.36 163.07,165.36 163.04,165.34 C 163.01,165.32 162.98,165.28 162.96,165.25 C 162.94,165.21 162.93,165.17 162.93,165.13 C 162.92,165.1 162.93,165.06 162.94,165.02 C 162.95,164.98 162.97,164.94 162.99,164.89 C 163.0,164.86 163.02,164.83 163.03,164.8 C 163.04,164.79 163.05,164.77 163.06,164.76 C 163.06,164.74 163.07,164.73 163.08,164.71 C 163.09,164.69 163.11,164.67 163.12,164.65 C 163.13,164.62 163.14,164.6 163.15,164.58 C 163.18,164.54 163.19,164.5 163.21,164.46 C 163.25,164.38 163.28,164.3 163.29,164.22 C 163.31,164.15 163.31,164.07 163.3,163.99 C 163.3,163.95 163.29,163.91 163.27,163.86 C 163.26,163.82 163.24,163.77 163.22,163.73 C 163.18,163.64 163.13,163.58 163.08,163.53 C 163.03,163.48 162.97,163.45 162.9,163.43 C 162.87,163.42 162.84,163.42 162.81,163.42 C 162.77,163.42 162.74,163.43 162.71,163.44 C 162.68,163.45 162.65,163.46 162.62,163.48 C 162.6,163.49 162.59,163.5 162.57,163.51 C 162.56,163.52 162.54,163.54 162.53,163.55 C 162.52,163.56 162.51,163.56 162.5,163.57 C 162.49,163.58 162.48,163.59 162.48,163.6 C 162.46,163.62 162.45,163.63 162.43,163.65 C 162.4,163.69 162.38,163.73 162.36,163.77 C 162.35,163.81 162.33,163.85 162.32,163.9 C 162.31,163.94 162.3,163.99 162.3,164.03 C 162.29,164.08 162.29,164.13 162.29,164.17 C 162.29,164.21 162.3,164.25 162.3,164.3 C 162.31,164.34 162.31,164.39 162.32,164.46 C 162.33,164.49 162.33,164.52 162.34,164.56 C 162.35,164.6 162.35,164.64 162.36,164.69 C 162.37,164.71 162.37,164.74 162.38,164.77 C 162.38,164.8 162.39,164.82 162.39,164.85 C 162.4,164.91 162.41,164.96 162.41,165.01 C 162.43,165.11 162.44,165.22 162.45,165.31 C 162.46,165.41 162.46,165.51 162.46,165.6 C 162.45,165.69 162.44,165.78 162.43,165.87 C 162.4,166.04 162.34,166.21 162.24,166.38 C 162.15,166.55 162.01,166.71 161.83,166.87 z M 162.14,161.79 C 161.89,161.31 161.64,160.82 161.38,160.35 C 161.06,160.63 160.74,160.92 160.41,161.21 C 160.47,161.32 160.53,161.43 160.6,161.54 C 160.66,161.65 160.72,161.76 160.78,161.86 C 160.81,161.92 160.84,161.97 160.87,162.03 C 160.9,162.08 160.93,162.14 160.96,162.19 C 160.98,162.22 160.99,162.24 161.01,162.27 C 161.02,162.3 161.04,162.33 161.05,162.35 C 161.07,162.38 161.08,162.41 161.1,162.43 C 161.11,162.45 161.11,162.46 161.12,162.48 C 161.12,162.48 161.13,162.49 161.13,162.5 C 161.14,162.5 161.14,162.51 161.14,162.52 C 161.15,162.52 161.15,162.52 161.15,162.52 C 161.15,162.52 161.15,162.52 161.15,162.52 C 161.15,162.53 161.15,162.53 161.15,162.53 C 161.16,162.54 161.16,162.55 161.16,162.55 C 161.16,162.56 161.17,162.56 161.17,162.57 C 161.17,162.58 161.17,162.58 161.18,162.59 C 161.18,162.6 161.18,162.61 161.19,162.62 C 161.19,162.64 161.19,162.65 161.19,162.66 C 161.2,162.68 161.2,162.71 161.19,162.73 C 161.19,162.76 161.19,162.78 161.18,162.8 C 161.18,162.83 161.17,162.85 161.16,162.87 C 161.15,162.89 161.13,162.92 161.12,162.94 C 161.09,162.98 161.05,163.02 161.01,163.06 C 160.97,163.1 160.92,163.13 160.88,163.15 C 160.86,163.16 160.84,163.17 160.82,163.17 C 160.8,163.18 160.78,163.18 160.76,163.18 C 160.74,163.18 160.72,163.18 160.7,163.18 C 160.68,163.17 160.66,163.16 160.65,163.15 C 160.64,163.14 160.63,163.14 160.62,163.13 C 160.61,163.12 160.6,163.12 160.6,163.11 C 160.59,163.1 160.59,163.1 160.58,163.09 C 160.58,163.09 160.58,163.08 160.57,163.08 C 160.57,163.07 160.57,163.07 160.56,163.06 C 160.56,163.06 160.56,163.06 160.56,163.05 C 160.56,163.05 160.56,163.05 160.55,163.05 C 160.55,163.05 160.55,163.05 160.55,163.04 C 160.55,163.04 160.55,163.03 160.54,163.02 C 160.54,163.02 160.53,163.01 160.53,163.0 C 160.52,162.99 160.51,162.98 160.51,162.96 C 160.49,162.94 160.47,162.91 160.46,162.88 C 160.44,162.86 160.43,162.83 160.41,162.8 C 160.4,162.77 160.38,162.75 160.37,162.72 C 160.33,162.67 160.3,162.61 160.27,162.56 C 160.24,162.51 160.21,162.45 160.18,162.4 C 160.12,162.29 160.05,162.19 159.99,162.08 C 159.93,161.97 159.86,161.87 159.8,161.76 C 159.4,162.11 159.0,162.47 158.6,162.83 C 158.67,162.95 158.75,163.06 158.82,163.18 C 158.9,163.3 158.97,163.41 159.05,163.53 C 159.09,163.59 159.12,163.65 159.16,163.7 C 159.2,163.76 159.23,163.82 159.27,163.88 C 159.29,163.91 159.31,163.94 159.33,163.97 C 159.34,164.0 159.36,164.03 159.38,164.06 C 159.4,164.09 159.42,164.11 159.44,164.14 C 159.45,164.16 159.45,164.17 159.46,164.19 C 159.47,164.2 159.47,164.2 159.48,164.21 C 159.48,164.22 159.49,164.23 159.49,164.23 C 159.49,164.24 159.49,164.24 159.49,164.24 C 159.49,164.24 159.5,164.24 159.5,164.24 C 159.5,164.24 159.5,164.25 159.5,164.25 C 159.51,164.26 159.51,164.26 159.51,164.27 C 159.51,164.27 159.52,164.28 159.52,164.29 C 159.52,164.29 159.53,164.3 159.53,164.3 C 159.53,164.32 159.54,164.33 159.54,164.34 C 159.54,164.35 159.55,164.36 159.55,164.38 C 159.55,164.4 159.55,164.43 159.55,164.45 C 159.55,164.48 159.55,164.5 159.54,164.53 C 159.53,164.55 159.52,164.57 159.51,164.6 C 159.5,164.62 159.49,164.65 159.47,164.67 C 159.44,164.72 159.4,164.76 159.35,164.8 C 159.31,164.85 159.26,164.88 159.21,164.9 C 159.19,164.91 159.17,164.92 159.14,164.93 C 159.12,164.93 159.1,164.94 159.08,164.94 C 159.05,164.94 159.03,164.94 159.01,164.93 C 158.99,164.93 158.97,164.92 158.95,164.91 C 158.94,164.9 158.93,164.9 158.93,164.89 C 158.92,164.88 158.91,164.87 158.9,164.87 C 158.9,164.86 158.89,164.86 158.89,164.85 C 158.88,164.85 158.88,164.84 158.87,164.84 C 158.87,164.83 158.87,164.83 158.86,164.82 C 158.86,164.82 158.86,164.82 158.86,164.81 C 158.86,164.81 158.85,164.81 158.85,164.81 C 158.85,164.81 158.85,164.81 158.85,164.81 C 158.85,164.8 158.84,164.79 158.83,164.78 C 158.83,164.77 158.82,164.76 158.82,164.75 C 158.81,164.74 158.8,164.72 158.78,164.7 C 158.76,164.67 158.74,164.64 158.72,164.6 C 158.7,164.57 158.67,164.54 158.65,164.5 C 158.63,164.47 158.61,164.44 158.58,164.4 C 158.54,164.34 158.5,164.27 158.45,164.2 C 158.41,164.13 158.36,164.07 158.32,164.0 C 158.27,163.93 158.23,163.87 158.18,163.8 C 158.14,163.73 158.09,163.66 158.05,163.6 C 158.02,163.56 158.0,163.53 157.98,163.5 C 157.96,163.46 157.93,163.43 157.91,163.4 C 157.89,163.36 157.87,163.33 157.84,163.3 C 157.83,163.28 157.82,163.26 157.81,163.25 C 157.8,163.24 157.8,163.23 157.79,163.22 C 157.79,163.21 157.78,163.2 157.78,163.2 C 157.77,163.19 157.77,163.19 157.77,163.19 C 157.77,163.19 157.77,163.19 157.77,163.19 C 157.76,163.18 157.76,163.18 157.76,163.17 C 157.75,163.16 157.75,163.16 157.75,163.15 C 157.74,163.14 157.74,163.13 157.73,163.12 C 157.73,163.12 157.73,163.11 157.72,163.1 C 157.72,163.08 157.71,163.07 157.71,163.05 C 157.7,163.04 157.7,163.02 157.69,163.0 C 157.69,162.97 157.69,162.94 157.69,162.91 C 157.69,162.87 157.7,162.84 157.71,162.81 C 157.72,162.77 157.74,162.74 157.76,162.71 C 157.77,162.69 157.78,162.67 157.79,162.65 C 157.81,162.63 157.82,162.62 157.83,162.6 C 157.85,162.58 157.86,162.56 157.88,162.54 C 157.9,162.52 157.92,162.5 157.94,162.48 C 157.94,162.47 157.95,162.46 157.96,162.45 C 157.97,162.44 157.98,162.43 158.0,162.42 C 158.0,162.42 158.01,162.41 158.01,162.41 C 158.02,162.4 158.02,162.4 158.03,162.39 C 158.03,162.39 158.04,162.38 158.04,162.38 C 158.05,162.37 158.05,162.37 158.05,162.37 C 158.06,162.37 158.06,162.37 158.06,162.37 C 158.06,162.36 158.06,162.37 158.06,162.36 C 158.07,162.36 158.08,162.35 158.09,162.34 C 158.1,162.33 158.1,162.32 158.11,162.32 C 158.13,162.3 158.15,162.29 158.16,162.27 C 158.2,162.24 158.23,162.21 158.26,162.18 C 158.29,162.15 158.33,162.12 158.36,162.09 C 158.39,162.06 158.43,162.04 158.46,162.01 C 158.53,161.95 158.59,161.89 158.66,161.83 C 158.72,161.77 158.79,161.71 158.86,161.65 C 158.99,161.54 159.12,161.42 159.25,161.31 C 159.38,161.19 159.5,161.07 159.63,160.96 C 159.76,160.85 159.89,160.73 160.02,160.62 C 160.14,160.51 160.27,160.39 160.4,160.28 C 160.46,160.22 160.52,160.17 160.58,160.11 C 160.65,160.06 160.71,160.0 160.77,159.95 C 160.8,159.92 160.83,159.89 160.86,159.86 C 160.9,159.83 160.93,159.81 160.96,159.78 C 160.99,159.75 161.02,159.72 161.05,159.7 C 161.07,159.68 161.08,159.67 161.1,159.66 C 161.1,159.65 161.11,159.64 161.12,159.63 C 161.13,159.63 161.14,159.62 161.14,159.61 C 161.15,159.61 161.15,159.61 161.15,159.61 C 161.15,159.61 161.15,159.61 161.15,159.61 C 161.15,159.61 161.15,159.61 161.15,159.6 C 161.16,159.6 161.16,159.6 161.16,159.6 C 161.17,159.59 161.17,159.59 161.18,159.59 C 161.18,159.58 161.18,159.58 161.19,159.58 C 161.19,159.57 161.2,159.57 161.21,159.56 C 161.21,159.55 161.22,159.55 161.23,159.54 C 161.24,159.53 161.25,159.52 161.27,159.51 C 161.28,159.5 161.29,159.49 161.3,159.49 C 161.32,159.48 161.33,159.47 161.34,159.46 C 161.35,159.45 161.37,159.45 161.38,159.44 C 161.4,159.43 161.42,159.41 161.45,159.41 C 161.47,159.4 161.49,159.39 161.51,159.38 C 161.53,159.38 161.55,159.38 161.57,159.37 C 161.59,159.37 161.6,159.37 161.62,159.38 C 161.64,159.38 161.65,159.39 161.67,159.39 C 161.69,159.4 161.7,159.41 161.72,159.42 C 161.73,159.43 161.75,159.45 161.76,159.46 C 161.77,159.47 161.77,159.48 161.78,159.48 C 161.79,159.49 161.79,159.5 161.8,159.51 C 161.8,159.52 161.81,159.52 161.81,159.53 C 161.81,159.53 161.82,159.54 161.82,159.54 C 161.82,159.55 161.83,159.55 161.83,159.56 C 161.83,159.56 161.83,159.56 161.83,159.57 C 161.83,159.57 161.84,159.57 161.84,159.57 C 161.84,159.57 161.84,159.57 161.84,159.57 C 161.84,159.58 161.85,159.59 161.85,159.6 C 161.86,159.61 161.86,159.62 161.87,159.63 C 161.87,159.64 161.88,159.66 161.89,159.68 C 161.91,159.72 161.93,159.75 161.95,159.79 C 161.97,159.82 161.99,159.86 162.0,159.89 C 162.02,159.93 162.04,159.96 162.06,160.0 C 162.1,160.07 162.13,160.14 162.17,160.21 C 162.21,160.28 162.24,160.35 162.28,160.43 C 162.31,160.5 162.35,160.57 162.39,160.64 C 162.42,160.71 162.46,160.78 162.49,160.85 C 162.51,160.89 162.53,160.93 162.55,160.96 C 162.57,161.0 162.58,161.03 162.6,161.07 C 162.62,161.11 162.64,161.14 162.65,161.18 C 162.66,161.2 162.67,161.21 162.68,161.23 C 162.68,161.24 162.69,161.25 162.69,161.26 C 162.7,161.27 162.7,161.28 162.71,161.29 C 162.71,161.29 162.71,161.29 162.71,161.29 C 162.71,161.29 162.71,161.29 162.71,161.29 C 162.71,161.3 162.71,161.3 162.72,161.3 C 162.72,161.31 162.72,161.32 162.72,161.32 C 162.73,161.33 162.73,161.34 162.73,161.34 C 162.73,161.35 162.74,161.36 162.74,161.36 C 162.74,161.38 162.75,161.39 162.75,161.4 C 162.75,161.41 162.75,161.43 162.75,161.44 C 162.76,161.46 162.76,161.49 162.76,161.51 C 162.75,161.54 162.75,161.56 162.74,161.59 C 162.74,161.61 162.73,161.63 162.72,161.66 C 162.71,161.68 162.7,161.7 162.68,161.72 C 162.65,161.77 162.62,161.81 162.58,161.84 C 162.54,161.88 162.5,161.91 162.45,161.93 C 162.41,161.95 162.37,161.95 162.34,161.95 C 162.26,161.95 162.19,161.89 162.14,161.79 z M 160.07,157.54 C 159.07,158.43 158.04,159.36 156.95,160.32 C 157.02,160.42 157.09,160.52 157.16,160.62 C 157.23,160.72 157.3,160.82 157.37,160.92 C 157.4,160.97 157.44,161.02 157.47,161.07 C 157.5,161.12 157.54,161.17 157.57,161.22 C 157.59,161.24 157.61,161.27 157.62,161.29 C 157.64,161.32 157.66,161.34 157.67,161.37 C 157.69,161.39 157.71,161.42 157.72,161.44 C 157.73,161.46 157.74,161.47 157.75,161.48 C 157.75,161.49 157.76,161.49 157.76,161.5 C 157.77,161.51 157.77,161.51 157.78,161.52 C 157.78,161.52 157.78,161.52 157.78,161.52 C 157.78,161.52 157.78,161.53 157.78,161.53 C 157.78,161.53 157.78,161.53 157.79,161.54 C 157.79,161.54 157.79,161.55 157.8,161.55 C 157.8,161.56 157.8,161.57 157.81,161.57 C 157.81,161.58 157.81,161.59 157.81,161.59 C 157.82,161.6 157.82,161.62 157.83,161.63 C 157.83,161.64 157.83,161.66 157.84,161.67 C 157.84,161.69 157.84,161.72 157.84,161.75 C 157.84,161.78 157.83,161.8 157.82,161.83 C 157.81,161.86 157.8,161.89 157.79,161.91 C 157.78,161.94 157.76,161.96 157.75,161.99 C 157.71,162.04 157.67,162.09 157.62,162.14 C 157.57,162.18 157.51,162.22 157.46,162.24 C 157.44,162.26 157.41,162.27 157.39,162.27 C 157.36,162.28 157.33,162.29 157.31,162.29 C 157.28,162.29 157.26,162.29 157.24,162.29 C 157.21,162.28 157.19,162.27 157.17,162.26 C 157.16,162.26 157.15,162.25 157.14,162.24 C 157.13,162.24 157.12,162.23 157.11,162.22 C 157.11,162.22 157.1,162.21 157.1,162.21 C 157.09,162.2 157.09,162.2 157.08,162.19 C 157.08,162.19 157.07,162.18 157.07,162.17 C 157.07,162.17 157.07,162.17 157.06,162.17 C 157.06,162.16 157.06,162.16 157.06,162.16 C 157.06,162.16 157.06,162.16 157.06,162.16 C 157.05,162.15 157.05,162.14 157.04,162.14 C 157.04,162.13 157.03,162.12 157.03,162.11 C 157.02,162.1 157.01,162.08 157.0,162.07 C 156.97,162.04 156.95,162.01 156.93,161.98 C 156.91,161.95 156.89,161.92 156.87,161.89 C 156.85,161.86 156.83,161.83 156.81,161.8 C 156.77,161.74 156.73,161.69 156.68,161.63 C 156.64,161.57 156.6,161.51 156.56,161.45 C 156.52,161.39 156.48,161.33 156.43,161.27 C 156.39,161.22 156.35,161.16 156.31,161.1 C 156.29,161.07 156.27,161.04 156.24,161.01 C 156.22,160.98 156.2,160.95 156.18,160.92 C 156.16,160.89 156.14,160.86 156.12,160.83 C 156.11,160.82 156.1,160.81 156.09,160.79 C 156.08,160.78 156.08,160.78 156.07,160.77 C 156.06,160.76 156.06,160.75 156.05,160.75 C 156.05,160.74 156.05,160.74 156.05,160.74 C 156.05,160.74 156.05,160.74 156.05,160.74 C 156.04,160.73 156.04,160.73 156.04,160.72 C 156.03,160.72 156.03,160.71 156.02,160.7 C 156.02,160.69 156.01,160.68 156.01,160.68 C 156.01,160.67 156.0,160.66 156.0,160.65 C 155.99,160.64 155.99,160.62 155.98,160.6 C 155.98,160.59 155.97,160.57 155.97,160.55 C 155.96,160.52 155.96,160.49 155.97,160.46 C 155.97,160.42 155.98,160.39 155.99,160.36 C 156.0,160.32 156.02,160.29 156.04,160.25 C 156.05,160.23 156.06,160.21 156.08,160.2 C 156.09,160.18 156.11,160.16 156.12,160.14 C 156.14,160.12 156.15,160.1 156.17,160.08 C 156.18,160.07 156.19,160.06 156.2,160.05 C 156.21,160.04 156.22,160.03 156.23,160.02 C 156.24,160.01 156.25,160.0 156.26,159.99 C 156.27,159.98 156.28,159.96 156.29,159.95 C 156.3,159.95 156.3,159.94 156.31,159.94 C 156.31,159.93 156.32,159.93 156.33,159.92 C 156.33,159.92 156.34,159.91 156.34,159.91 C 156.35,159.9 156.35,159.9 156.35,159.9 C 156.35,159.9 156.36,159.89 156.36,159.89 C 156.36,159.89 156.36,159.89 156.36,159.89 C 156.37,159.88 156.38,159.87 156.39,159.87 C 156.4,159.86 156.41,159.85 156.42,159.84 C 156.43,159.83 156.45,159.81 156.47,159.79 C 156.51,159.76 156.54,159.73 156.58,159.7 C 156.61,159.66 156.65,159.63 156.69,159.6 C 156.72,159.57 156.76,159.54 156.79,159.5 C 156.87,159.44 156.94,159.38 157.01,159.31 C 157.08,159.25 157.15,159.19 157.22,159.12 C 157.29,159.06 157.36,159.0 157.44,158.94 C 157.51,158.87 157.58,158.81 157.65,158.75 C 157.79,158.62 157.93,158.5 158.07,158.38 C 158.2,158.25 158.34,158.13 158.48,158.01 C 158.62,157.89 158.75,157.76 158.89,157.64 C 158.96,157.58 159.03,157.52 159.09,157.46 C 159.16,157.4 159.23,157.34 159.3,157.28 C 159.33,157.25 159.36,157.22 159.4,157.19 C 159.43,157.16 159.47,157.13 159.5,157.1 C 159.53,157.07 159.57,157.04 159.6,157.01 C 159.62,157.0 159.63,156.98 159.65,156.97 C 159.66,156.96 159.66,156.96 159.67,156.95 C 159.68,156.94 159.69,156.93 159.7,156.92 C 159.7,156.92 159.7,156.92 159.7,156.92 C 159.7,156.92 159.71,156.92 159.71,156.92 C 159.71,156.92 159.71,156.91 159.71,156.91 C 159.72,156.91 159.73,156.9 159.73,156.9 C 159.74,156.89 159.74,156.89 159.75,156.88 C 159.75,156.88 159.76,156.88 159.76,156.87 C 159.77,156.86 159.78,156.85 159.79,156.85 C 159.8,156.84 159.81,156.83 159.82,156.82 C 159.84,156.81 159.86,156.8 159.88,156.78 C 159.9,156.77 159.92,156.76 159.93,156.75 C 159.95,156.74 159.97,156.73 159.99,156.72 C 160.0,156.71 160.02,156.7 160.04,156.7 C 160.07,156.68 160.1,156.68 160.13,156.67 C 160.16,156.67 160.19,156.67 160.21,156.67 C 160.24,156.67 160.26,156.68 160.28,156.69 C 160.31,156.69 160.32,156.71 160.34,156.72 C 160.36,156.74 160.38,156.76 160.39,156.78 C 160.42,156.83 160.43,156.88 160.43,156.94 C 160.44,156.99 160.42,157.06 160.4,157.12 C 160.38,157.19 160.34,157.25 160.28,157.32 C 160.23,157.4 160.16,157.47 160.07,157.54 z M 155.47,155.68 C 155.65,155.52 155.84,155.36 156.02,155.2 C 156.11,155.12 156.2,155.04 156.29,154.96 C 156.38,154.88 156.47,154.8 156.56,154.72 C 156.65,154.64 156.74,154.56 156.83,154.48 C 156.92,154.4 157.01,154.33 157.1,154.25 C 157.14,154.21 157.18,154.17 157.23,154.13 C 157.27,154.09 157.32,154.05 157.36,154.01 C 157.38,153.99 157.4,153.98 157.43,153.96 C 157.45,153.94 157.47,153.92 157.49,153.9 C 157.51,153.88 157.54,153.86 157.56,153.84 C 157.57,153.83 157.58,153.82 157.59,153.81 C 157.6,153.8 157.62,153.79 157.62,153.78 C 157.63,153.78 157.63,153.78 157.63,153.77 C 157.63,153.77 157.64,153.77 157.64,153.77 C 157.65,153.76 157.65,153.76 157.66,153.75 C 157.66,153.75 157.67,153.74 157.67,153.74 C 157.68,153.73 157.68,153.73 157.69,153.73 C 157.7,153.72 157.71,153.71 157.72,153.7 C 157.73,153.69 157.74,153.68 157.75,153.68 C 157.77,153.66 157.79,153.65 157.81,153.63 C 157.83,153.62 157.85,153.61 157.87,153.6 C 157.89,153.58 157.91,153.57 157.93,153.56 C 157.94,153.56 157.96,153.55 157.98,153.54 C 158.01,153.53 158.05,153.52 158.08,153.51 C 158.11,153.5 158.14,153.5 158.17,153.5 C 158.19,153.5 158.22,153.51 158.24,153.52 C 158.29,153.53 158.33,153.56 158.36,153.61 C 158.39,153.65 158.41,153.7 158.41,153.76 C 158.41,153.79 158.41,153.82 158.4,153.85 C 158.4,153.88 158.39,153.91 158.38,153.94 C 158.36,153.97 158.35,154.01 158.33,154.04 C 158.32,154.06 158.31,154.08 158.29,154.1 C 158.28,154.11 158.27,154.13 158.25,154.15 C 158.24,154.17 158.22,154.19 158.21,154.2 C 158.19,154.22 158.17,154.24 158.16,154.26 C 158.15,154.27 158.14,154.28 158.13,154.29 C 158.12,154.3 158.11,154.31 158.1,154.32 C 158.09,154.32 158.09,154.33 158.08,154.33 C 158.08,154.34 158.07,154.34 158.07,154.35 C 158.06,154.35 158.06,154.36 158.05,154.36 C 158.05,154.36 158.05,154.37 158.04,154.37 C 158.04,154.37 158.04,154.37 158.04,154.37 C 158.04,154.37 158.04,154.37 158.03,154.38 C 158.03,154.38 158.02,154.38 158.02,154.39 C 158.01,154.4 158.01,154.4 158.0,154.4 C 157.99,154.41 157.98,154.42 157.97,154.43 C 157.95,154.45 157.92,154.47 157.9,154.49 C 157.88,154.51 157.86,154.53 157.83,154.55 C 157.81,154.57 157.79,154.59 157.77,154.61 C 157.72,154.65 157.68,154.69 157.63,154.73 C 157.59,154.77 157.54,154.81 157.5,154.85 C 157.41,154.93 157.32,155.01 157.22,155.09 C 157.13,155.17 157.04,155.25 156.95,155.33 C 156.86,155.41 156.77,155.49 156.68,155.58 C 156.58,155.66 156.49,155.74 156.4,155.82 C 156.35,155.86 156.31,155.9 156.26,155.95 C 156.21,155.99 156.17,156.03 156.12,156.07 C 156.1,156.09 156.07,156.11 156.05,156.13 C 156.03,156.15 156.0,156.17 155.98,156.19 C 155.96,156.21 155.93,156.24 155.91,156.26 C 155.9,156.27 155.89,156.28 155.87,156.29 C 155.86,156.3 155.85,156.31 155.84,156.32 C 155.83,156.32 155.83,156.33 155.83,156.33 C 155.82,156.33 155.82,156.34 155.81,156.34 C 155.81,156.35 155.8,156.35 155.79,156.36 C 155.78,156.37 155.77,156.37 155.77,156.38 C 155.76,156.39 155.75,156.4 155.74,156.4 C 155.73,156.42 155.71,156.43 155.7,156.44 C 155.68,156.46 155.67,156.47 155.65,156.49 C 155.63,156.51 155.6,156.54 155.57,156.57 C 155.54,156.59 155.52,156.62 155.49,156.65 C 155.47,156.67 155.44,156.7 155.42,156.72 C 155.39,156.75 155.37,156.77 155.35,156.8 C 155.31,156.85 155.27,156.9 155.23,156.95 C 155.19,156.99 155.16,157.04 155.13,157.09 C 155.1,157.13 155.07,157.18 155.05,157.23 C 155.01,157.32 154.98,157.41 154.96,157.5 C 154.95,157.59 154.95,157.67 154.97,157.76 C 154.99,157.8 155.0,157.84 155.02,157.88 C 155.04,157.9 155.05,157.93 155.06,157.95 C 155.07,157.97 155.08,157.98 155.1,158.01 C 155.11,158.02 155.12,158.03 155.13,158.05 C 155.14,158.06 155.16,158.07 155.17,158.08 C 155.19,158.11 155.21,158.13 155.24,158.15 C 155.29,158.19 155.34,158.21 155.39,158.23 C 155.44,158.25 155.5,158.26 155.56,158.26 C 155.62,158.26 155.68,158.25 155.75,158.23 C 155.82,158.21 155.89,158.18 155.96,158.14 C 156.03,158.11 156.11,158.06 156.19,158.01 C 156.23,157.98 156.27,157.96 156.32,157.93 C 156.36,157.9 156.4,157.86 156.45,157.83 C 156.47,157.81 156.49,157.79 156.51,157.77 C 156.54,157.76 156.56,157.74 156.58,157.72 C 156.61,157.7 156.63,157.68 156.65,157.66 C 156.67,157.65 156.68,157.64 156.69,157.63 C 156.7,157.62 156.7,157.62 156.71,157.61 C 156.71,157.61 156.72,157.6 156.73,157.6 C 156.73,157.59 156.75,157.58 156.76,157.57 C 156.77,157.55 156.78,157.54 156.8,157.53 C 156.82,157.51 156.84,157.49 156.86,157.47 C 156.91,157.43 156.96,157.39 157.0,157.35 C 157.05,157.31 157.1,157.27 157.14,157.23 C 157.19,157.19 157.23,157.14 157.28,157.1 C 157.37,157.02 157.46,156.94 157.56,156.86 C 157.65,156.78 157.74,156.7 157.83,156.62 C 157.92,156.54 158.01,156.46 158.1,156.38 C 158.19,156.3 158.28,156.22 158.37,156.14 C 158.41,156.1 158.46,156.06 158.5,156.02 C 158.55,155.98 158.59,155.94 158.63,155.9 C 158.66,155.88 158.68,155.86 158.7,155.84 C 158.72,155.82 158.75,155.81 158.77,155.79 C 158.79,155.77 158.81,155.75 158.83,155.73 C 158.85,155.72 158.86,155.71 158.87,155.7 C 158.87,155.69 158.88,155.69 158.88,155.68 C 158.89,155.68 158.9,155.67 158.9,155.67 C 158.9,155.67 158.9,155.67 158.9,155.66 C 158.91,155.66 158.91,155.66 158.91,155.66 C 158.91,155.66 158.91,155.66 158.92,155.65 C 158.92,155.65 158.93,155.64 158.93,155.64 C 158.94,155.64 158.94,155.63 158.95,155.63 C 158.95,155.62 158.96,155.62 158.96,155.61 C 158.98,155.6 158.99,155.6 159.0,155.59 C 159.01,155.58 159.02,155.57 159.03,155.56 C 159.05,155.55 159.07,155.53 159.09,155.52 C 159.11,155.51 159.13,155.5 159.14,155.48 C 159.16,155.47 159.18,155.46 159.2,155.45 C 159.22,155.45 159.23,155.44 159.25,155.43 C 159.28,155.42 159.31,155.41 159.34,155.4 C 159.37,155.4 159.4,155.4 159.43,155.4 C 159.46,155.4 159.48,155.4 159.5,155.41 C 159.55,155.43 159.58,155.47 159.61,155.51 C 159.64,155.55 159.66,155.61 159.66,155.66 C 159.66,155.69 159.66,155.72 159.65,155.75 C 159.65,155.78 159.64,155.81 159.63,155.85 C 159.61,155.88 159.6,155.91 159.58,155.95 C 159.57,155.96 159.56,155.98 159.54,156.0 C 159.53,156.02 159.52,156.03 159.51,156.05 C 159.49,156.07 159.48,156.09 159.46,156.11 C 159.44,156.12 159.43,156.14 159.41,156.16 C 159.4,156.17 159.39,156.18 159.38,156.19 C 159.37,156.2 159.36,156.21 159.35,156.22 C 159.35,156.22 159.34,156.23 159.34,156.23 C 159.33,156.24 159.33,156.24 159.32,156.25 C 159.32,156.25 159.31,156.26 159.31,156.26 C 159.3,156.26 159.3,156.27 159.3,156.27 C 159.3,156.27 159.3,156.27 159.29,156.28 C 159.28,156.28 159.27,156.29 159.26,156.3 C 159.25,156.31 159.24,156.32 159.23,156.33 C 159.21,156.35 159.19,156.37 159.16,156.39 C 159.14,156.41 159.12,156.43 159.1,156.44 C 159.08,156.46 159.06,156.48 159.04,156.5 C 158.99,156.54 158.95,156.58 158.91,156.61 C 158.87,156.65 158.82,156.69 158.78,156.73 C 158.7,156.8 158.61,156.88 158.52,156.96 C 158.44,157.03 158.35,157.11 158.26,157.19 C 158.18,157.26 158.09,157.34 158.0,157.42 C 157.92,157.5 157.83,157.57 157.74,157.65 C 157.7,157.69 157.65,157.73 157.61,157.77 C 157.56,157.81 157.52,157.85 157.48,157.89 C 157.43,157.93 157.39,157.97 157.34,158.0 C 157.32,158.02 157.3,158.04 157.28,158.06 C 157.26,158.07 157.25,158.08 157.24,158.09 C 157.23,158.1 157.22,158.12 157.21,158.12 C 157.2,158.13 157.2,158.13 157.19,158.14 C 157.19,158.14 157.18,158.15 157.18,158.15 C 157.16,158.16 157.15,158.17 157.14,158.18 C 157.12,158.2 157.1,158.22 157.08,158.24 C 157.06,158.25 157.04,158.27 157.02,158.29 C 157.0,158.31 156.98,158.32 156.95,158.34 C 156.91,158.38 156.87,158.41 156.83,158.44 C 156.79,158.47 156.75,158.5 156.72,158.53 C 156.64,158.59 156.56,158.65 156.49,158.7 C 156.42,158.75 156.35,158.8 156.28,158.84 C 156.21,158.88 156.15,158.92 156.08,158.95 C 156.01,158.99 155.94,159.02 155.88,159.04 C 155.81,159.07 155.74,159.09 155.67,159.11 C 155.64,159.12 155.6,159.13 155.57,159.13 C 155.54,159.14 155.5,159.15 155.47,159.15 C 155.41,159.16 155.35,159.17 155.3,159.17 C 155.25,159.17 155.19,159.17 155.14,159.16 C 155.04,159.15 154.95,159.13 154.86,159.09 C 154.77,159.05 154.69,159.0 154.61,158.94 C 154.57,158.91 154.53,158.87 154.5,158.83 C 154.46,158.79 154.43,158.75 154.39,158.7 C 154.37,158.68 154.35,158.65 154.33,158.62 C 154.31,158.6 154.29,158.57 154.28,158.54 C 154.24,158.49 154.21,158.43 154.19,158.38 C 154.14,158.27 154.1,158.15 154.08,158.04 C 154.06,157.93 154.05,157.81 154.07,157.69 C 154.08,157.58 154.11,157.46 154.15,157.33 C 154.24,157.09 154.4,156.83 154.62,156.56 C 154.84,156.28 155.12,155.99 155.47,155.68 z M 156.09,152.18 C 155.96,152.01 155.82,151.83 155.69,151.66 C 155.28,152.01 154.87,152.38 154.45,152.74 C 154.52,152.83 154.59,152.91 154.65,152.99 C 154.69,153.04 154.72,153.08 154.75,153.12 C 154.77,153.14 154.79,153.16 154.8,153.18 C 154.82,153.2 154.84,153.23 154.85,153.25 C 154.88,153.28 154.91,153.31 154.93,153.34 C 154.96,153.37 154.99,153.4 155.02,153.42 C 155.07,153.47 155.12,153.51 155.18,153.54 C 155.23,153.57 155.29,153.59 155.35,153.6 C 155.41,153.6 155.47,153.6 155.54,153.58 C 155.6,153.57 155.67,153.54 155.74,153.5 C 155.78,153.48 155.81,153.45 155.85,153.42 C 155.87,153.41 155.89,153.39 155.91,153.38 C 155.93,153.36 155.95,153.35 155.96,153.33 C 156.0,153.3 156.03,153.27 156.05,153.25 C 156.08,153.22 156.11,153.19 156.13,153.16 C 156.18,153.1 156.21,153.04 156.25,152.98 C 156.28,152.92 156.3,152.86 156.31,152.8 C 156.33,152.75 156.33,152.69 156.33,152.63 C 156.33,152.6 156.32,152.58 156.31,152.55 C 156.3,152.51 156.28,152.48 156.26,152.44 C 156.23,152.37 156.17,152.28 156.09,152.18 z M 153.94,153.53 C 153.88,153.47 153.83,153.4 153.78,153.34 C 153.65,153.45 153.52,153.56 153.4,153.67 C 153.27,153.79 153.14,153.9 153.01,154.01 C 152.95,154.07 152.88,154.13 152.82,154.18 C 152.75,154.24 152.69,154.3 152.62,154.35 C 152.59,154.38 152.56,154.41 152.53,154.44 C 152.49,154.47 152.46,154.5 152.43,154.53 C 152.4,154.55 152.36,154.58 152.33,154.61 C 152.31,154.63 152.3,154.64 152.28,154.66 C 152.27,154.66 152.26,154.67 152.26,154.68 C 152.25,154.69 152.24,154.69 152.23,154.7 C 152.23,154.7 152.22,154.71 152.22,154.71 C 152.22,154.71 152.22,154.71 152.21,154.72 C 152.21,154.72 152.2,154.73 152.19,154.73 C 152.18,154.74 152.17,154.75 152.16,154.76 C 152.14,154.77 152.13,154.78 152.12,154.79 C 152.11,154.8 152.09,154.81 152.08,154.82 C 152.06,154.84 152.03,154.86 152.01,154.87 C 151.99,154.89 151.97,154.91 151.94,154.92 C 151.9,154.95 151.86,154.97 151.82,154.99 C 151.78,155.01 151.74,155.02 151.71,155.03 C 151.67,155.04 151.64,155.04 151.61,155.04 C 151.58,155.05 151.55,155.04 151.52,155.04 C 151.47,155.03 151.42,155.0 151.39,154.96 C 151.37,154.94 151.36,154.91 151.35,154.89 C 151.34,154.86 151.33,154.84 151.33,154.81 C 151.33,154.78 151.33,154.75 151.34,154.72 C 151.35,154.69 151.36,154.65 151.37,154.62 C 151.39,154.58 151.41,154.55 151.43,154.51 C 151.44,154.49 151.46,154.47 151.47,154.45 C 151.49,154.44 151.5,154.42 151.52,154.4 C 151.53,154.38 151.55,154.36 151.57,154.34 C 151.58,154.33 151.59,154.32 151.6,154.31 C 151.61,154.3 151.62,154.29 151.63,154.28 C 151.64,154.27 151.65,154.25 151.66,154.24 C 151.67,154.23 151.68,154.22 151.69,154.21 C 151.7,154.21 151.7,154.2 151.71,154.2 C 151.72,154.19 151.72,154.19 151.73,154.18 C 151.73,154.18 151.73,154.18 151.74,154.17 C 151.74,154.17 151.74,154.17 151.75,154.16 C 151.75,154.16 151.75,154.16 151.76,154.16 C 151.76,154.16 151.76,154.15 151.76,154.15 C 151.76,154.15 151.76,154.15 151.76,154.15 C 151.76,154.15 151.76,154.15 151.76,154.15 C 151.77,154.15 151.77,154.14 151.78,154.14 C 151.78,154.13 151.79,154.13 151.79,154.12 C 151.8,154.11 151.81,154.11 151.82,154.1 C 151.84,154.08 151.86,154.06 151.88,154.05 C 151.9,154.03 151.92,154.01 151.94,153.99 C 151.96,153.98 151.98,153.96 152.0,153.94 C 152.04,153.91 152.08,153.87 152.11,153.84 C 152.15,153.81 152.19,153.77 152.23,153.74 C 152.31,153.67 152.39,153.6 152.46,153.53 C 152.54,153.47 152.62,153.4 152.69,153.33 C 152.77,153.26 152.85,153.2 152.92,153.13 C 153.0,153.06 153.07,153.0 153.15,152.93 C 153.3,152.8 153.45,152.67 153.6,152.53 C 153.75,152.4 153.9,152.27 154.05,152.14 C 154.12,152.08 154.2,152.01 154.27,151.95 C 154.34,151.88 154.42,151.82 154.49,151.75 C 154.56,151.69 154.63,151.62 154.71,151.56 C 154.78,151.5 154.85,151.43 154.93,151.37 C 154.96,151.34 155.0,151.31 155.03,151.27 C 155.07,151.24 155.11,151.21 155.14,151.18 C 155.18,151.15 155.21,151.12 155.25,151.08 C 155.27,151.07 155.29,151.05 155.3,151.04 C 155.31,151.03 155.32,151.02 155.33,151.01 C 155.34,151.0 155.35,150.99 155.36,150.99 C 155.36,150.98 155.36,150.99 155.36,150.99 C 155.36,150.98 155.36,150.98 155.37,150.98 C 155.37,150.98 155.37,150.98 155.38,150.97 C 155.38,150.97 155.39,150.96 155.39,150.96 C 155.4,150.95 155.41,150.95 155.41,150.94 C 155.42,150.94 155.42,150.93 155.43,150.93 C 155.44,150.92 155.45,150.91 155.46,150.9 C 155.47,150.89 155.49,150.88 155.5,150.87 C 155.51,150.87 155.52,150.86 155.53,150.85 C 155.54,150.84 155.55,150.84 155.56,150.83 C 155.58,150.81 155.6,150.8 155.62,150.79 C 155.65,150.78 155.66,150.77 155.68,150.76 C 155.7,150.75 155.72,150.74 155.74,150.73 C 155.78,150.72 155.81,150.71 155.84,150.7 C 155.88,150.69 155.91,150.69 155.94,150.7 C 155.97,150.7 156.0,150.71 156.03,150.72 C 156.04,150.73 156.05,150.73 156.07,150.74 C 156.08,150.75 156.09,150.76 156.11,150.77 C 156.12,150.78 156.13,150.79 156.15,150.81 C 156.15,150.81 156.16,150.82 156.17,150.83 C 156.17,150.83 156.17,150.84 156.17,150.84 C 156.18,150.84 156.18,150.84 156.18,150.85 C 156.19,150.86 156.2,150.87 156.21,150.88 C 156.21,150.89 156.22,150.9 156.23,150.91 C 156.24,150.93 156.26,150.94 156.27,150.96 C 156.3,151.0 156.33,151.04 156.36,151.08 C 156.39,151.12 156.42,151.16 156.45,151.19 C 156.48,151.23 156.51,151.27 156.54,151.31 C 156.57,151.35 156.6,151.39 156.63,151.43 C 156.66,151.46 156.69,151.5 156.72,151.54 C 156.75,151.58 156.78,151.62 156.81,151.66 C 156.83,151.68 156.84,151.7 156.86,151.72 C 156.86,151.73 156.87,151.73 156.88,151.74 C 156.89,151.76 156.9,151.77 156.9,151.77 C 156.91,151.78 156.91,151.78 156.91,151.79 C 156.91,151.79 156.92,151.79 156.92,151.8 C 156.92,151.81 156.93,151.81 156.94,151.82 C 156.95,151.84 156.96,151.85 156.97,151.87 C 156.98,151.88 156.99,151.9 157.0,151.91 C 157.01,151.93 157.02,151.94 157.03,151.96 C 157.05,151.99 157.07,152.02 157.08,152.05 C 157.1,152.07 157.11,152.1 157.12,152.13 C 157.15,152.18 157.17,152.24 157.18,152.29 C 157.2,152.35 157.21,152.41 157.21,152.47 C 157.21,152.6 157.19,152.76 157.14,152.93 C 157.11,153.01 157.08,153.09 157.03,153.17 C 156.99,153.25 156.94,153.34 156.88,153.42 C 156.86,153.46 156.83,153.5 156.79,153.54 C 156.76,153.58 156.73,153.61 156.69,153.65 C 156.68,153.67 156.66,153.69 156.64,153.71 C 156.62,153.73 156.6,153.75 156.59,153.76 C 156.57,153.78 156.55,153.8 156.53,153.82 C 156.52,153.83 156.51,153.84 156.5,153.85 C 156.49,153.85 156.49,153.86 156.48,153.86 C 156.48,153.86 156.48,153.87 156.47,153.87 C 156.46,153.88 156.45,153.89 156.44,153.9 C 156.43,153.91 156.42,153.92 156.41,153.93 C 156.39,153.94 156.37,153.96 156.35,153.98 C 156.31,154.01 156.27,154.04 156.22,154.07 C 156.18,154.1 156.14,154.13 156.11,154.15 C 156.07,154.18 156.03,154.2 155.99,154.22 C 155.91,154.27 155.83,154.3 155.76,154.33 C 155.68,154.36 155.61,154.38 155.53,154.4 C 155.39,154.43 155.24,154.43 155.1,154.4 C 154.96,154.37 154.82,154.32 154.68,154.23 C 154.67,154.32 154.66,154.42 154.63,154.53 C 154.6,154.64 154.56,154.75 154.51,154.87 C 154.46,155.0 154.4,155.12 154.34,155.25 C 154.28,155.37 154.21,155.5 154.14,155.62 C 154.07,155.74 154.0,155.86 153.93,155.97 C 153.86,156.08 153.79,156.18 153.73,156.27 C 153.67,156.36 153.61,156.44 153.56,156.5 C 153.51,156.56 153.47,156.6 153.44,156.63 C 153.41,156.66 153.37,156.69 153.34,156.71 C 153.3,156.73 153.26,156.75 153.22,156.77 C 153.18,156.78 153.14,156.79 153.1,156.8 C 153.06,156.8 153.03,156.81 152.99,156.8 C 152.92,156.79 152.87,156.76 152.82,156.71 C 152.8,156.68 152.78,156.64 152.77,156.6 C 152.76,156.56 152.77,156.52 152.77,156.48 C 152.78,156.43 152.8,156.39 152.81,156.34 C 152.83,156.29 152.86,156.24 152.88,156.19 C 152.9,156.16 152.91,156.14 152.93,156.11 C 152.95,156.07 152.97,156.04 152.99,156.0 C 153.01,155.97 153.03,155.93 153.05,155.89 C 153.07,155.87 153.08,155.84 153.09,155.82 C 153.1,155.81 153.11,155.8 153.11,155.79 C 153.12,155.78 153.13,155.77 153.13,155.75 C 153.14,155.74 153.15,155.72 153.16,155.7 C 153.17,155.68 153.18,155.67 153.19,155.65 C 153.21,155.62 153.23,155.58 153.25,155.55 C 153.29,155.48 153.33,155.42 153.37,155.35 C 153.45,155.22 153.52,155.08 153.6,154.95 C 153.64,154.88 153.69,154.81 153.72,154.74 C 153.76,154.68 153.79,154.61 153.83,154.56 C 153.89,154.44 153.93,154.34 153.97,154.26 C 154.01,154.17 154.03,154.09 154.05,154.02 C 154.06,153.96 154.07,153.9 154.07,153.84 C 154.06,153.73 154.02,153.63 153.94,153.53 z M 153.8,149.4 C 153.44,149.0 153.07,148.6 152.7,148.2 C 152.33,148.52 151.96,148.85 151.58,149.18 C 151.66,149.27 151.75,149.37 151.83,149.46 C 151.92,149.55 152.0,149.64 152.09,149.73 C 152.13,149.78 152.17,149.83 152.21,149.87 C 152.25,149.92 152.29,149.96 152.34,150.01 C 152.36,150.03 152.38,150.06 152.4,150.08 C 152.42,150.1 152.44,150.13 152.46,150.15 C 152.48,150.17 152.5,150.2 152.52,150.22 C 152.53,150.23 152.54,150.24 152.55,150.26 C 152.56,150.26 152.56,150.27 152.57,150.27 C 152.58,150.28 152.58,150.29 152.59,150.29 C 152.59,150.29 152.59,150.29 152.59,150.29 C 152.59,150.29 152.59,150.3 152.59,150.3 C 152.6,150.3 152.6,150.3 152.6,150.31 C 152.6,150.31 152.61,150.32 152.61,150.32 C 152.61,150.33 152.62,150.33 152.62,150.34 C 152.63,150.34 152.63,150.35 152.63,150.35 C 152.64,150.36 152.64,150.38 152.65,150.39 C 152.65,150.4 152.66,150.41 152.66,150.42 C 152.66,150.44 152.67,150.46 152.67,150.49 C 152.66,150.51 152.66,150.54 152.65,150.56 C 152.65,150.58 152.64,150.61 152.63,150.63 C 152.61,150.66 152.6,150.68 152.58,150.7 C 152.55,150.75 152.5,150.8 152.45,150.84 C 152.4,150.89 152.35,150.93 152.3,150.95 C 152.27,150.97 152.25,150.98 152.22,150.99 C 152.19,151.0 152.17,151.0 152.14,151.01 C 152.12,151.01 152.09,151.01 152.07,151.01 C 152.05,151.01 152.02,151.01 152.0,151.0 C 151.99,150.99 151.98,150.99 151.97,150.98 C 151.96,150.98 151.95,150.97 151.94,150.96 C 151.93,150.96 151.93,150.96 151.92,150.95 C 151.92,150.95 151.91,150.94 151.91,150.94 C 151.9,150.94 151.9,150.93 151.89,150.93 C 151.89,150.92 151.89,150.92 151.89,150.92 C 151.88,150.92 151.88,150.92 151.88,150.91 C 151.88,150.91 151.88,150.91 151.88,150.91 C 151.87,150.91 151.87,150.9 151.86,150.89 C 151.86,150.89 151.85,150.88 151.85,150.88 C 151.84,150.86 151.83,150.85 151.82,150.84 C 151.8,150.82 151.77,150.79 151.75,150.77 C 151.73,150.75 151.71,150.72 151.69,150.7 C 151.67,150.68 151.65,150.65 151.63,150.63 C 151.59,150.58 151.55,150.54 151.5,150.49 C 151.46,150.45 151.42,150.4 151.38,150.35 C 151.29,150.26 151.21,150.17 151.13,150.08 C 151.04,149.98 150.96,149.89 150.87,149.8 C 150.42,150.2 149.95,150.6 149.48,151.02 C 149.58,151.12 149.67,151.22 149.77,151.33 C 149.86,151.43 149.95,151.54 150.05,151.64 C 150.09,151.69 150.14,151.74 150.19,151.8 C 150.24,151.85 150.28,151.9 150.33,151.95 C 150.35,151.98 150.38,152.01 150.4,152.03 C 150.42,152.06 150.45,152.09 150.47,152.11 C 150.49,152.14 150.51,152.16 150.54,152.19 C 150.55,152.2 150.56,152.22 150.57,152.23 C 150.58,152.24 150.58,152.24 150.59,152.25 C 150.6,152.26 150.6,152.27 150.61,152.27 C 150.61,152.27 150.61,152.27 150.61,152.27 C 150.61,152.27 150.61,152.28 150.61,152.28 C 150.62,152.28 150.62,152.28 150.62,152.29 C 150.63,152.29 150.63,152.3 150.63,152.3 C 150.64,152.31 150.64,152.31 150.64,152.32 C 150.65,152.32 150.65,152.33 150.65,152.34 C 150.66,152.35 150.67,152.36 150.67,152.37 C 150.67,152.38 150.68,152.39 150.68,152.41 C 150.69,152.43 150.69,152.45 150.69,152.48 C 150.68,152.5 150.68,152.53 150.67,152.56 C 150.66,152.58 150.65,152.61 150.64,152.64 C 150.62,152.66 150.61,152.69 150.59,152.71 C 150.57,152.74 150.55,152.77 150.53,152.79 C 150.5,152.82 150.47,152.85 150.44,152.87 C 150.39,152.92 150.33,152.96 150.27,152.99 C 150.25,153.01 150.22,153.02 150.19,153.03 C 150.16,153.04 150.14,153.05 150.11,153.05 C 150.08,153.06 150.05,153.06 150.03,153.06 C 150.0,153.05 149.98,153.05 149.96,153.04 C 149.94,153.04 149.93,153.03 149.92,153.03 C 149.91,153.02 149.9,153.01 149.89,153.01 C 149.89,153.0 149.88,153.0 149.87,152.99 C 149.87,152.99 149.86,152.99 149.86,152.98 C 149.85,152.98 149.85,152.97 149.85,152.97 C 149.84,152.96 149.84,152.96 149.84,152.96 C 149.84,152.96 149.83,152.96 149.83,152.96 C 149.83,152.96 149.83,152.96 149.83,152.95 C 149.83,152.95 149.82,152.94 149.81,152.93 C 149.8,152.92 149.8,152.91 149.79,152.91 C 149.78,152.89 149.76,152.87 149.75,152.86 C 149.72,152.83 149.7,152.8 149.67,152.77 C 149.64,152.74 149.61,152.71 149.59,152.68 C 149.56,152.64 149.53,152.61 149.51,152.58 C 149.45,152.52 149.4,152.46 149.34,152.4 C 149.29,152.34 149.23,152.28 149.18,152.22 C 149.12,152.16 149.07,152.09 149.01,152.03 C 148.96,151.97 148.9,151.91 148.85,151.85 C 148.82,151.82 148.79,151.79 148.77,151.76 C 148.74,151.73 148.71,151.7 148.68,151.67 C 148.66,151.64 148.63,151.61 148.6,151.58 C 148.59,151.56 148.57,151.55 148.56,151.53 C 148.55,151.53 148.55,151.52 148.54,151.51 C 148.53,151.5 148.52,151.49 148.52,151.49 C 148.51,151.48 148.51,151.48 148.51,151.48 C 148.51,151.48 148.51,151.48 148.51,151.48 C 148.5,151.47 148.5,151.47 148.5,151.47 C 148.49,151.46 148.49,151.45 148.48,151.44 C 148.48,151.44 148.47,151.43 148.47,151.42 C 148.46,151.41 148.46,151.41 148.45,151.4 C 148.44,151.38 148.44,151.37 148.43,151.35 C 148.43,151.34 148.42,151.32 148.42,151.31 C 148.41,151.28 148.41,151.24 148.41,151.21 C 148.41,151.18 148.42,151.15 148.43,151.11 C 148.45,151.08 148.46,151.04 148.49,151.01 C 148.5,150.99 148.51,150.97 148.52,150.95 C 148.54,150.93 148.55,150.91 148.57,150.89 C 148.58,150.87 148.6,150.85 148.62,150.83 C 148.63,150.82 148.64,150.81 148.65,150.8 C 148.66,150.79 148.67,150.78 148.68,150.76 C 148.69,150.75 148.7,150.74 148.72,150.73 C 148.73,150.72 148.74,150.71 148.75,150.7 C 148.76,150.69 148.76,150.69 148.77,150.68 C 148.78,150.68 148.78,150.67 148.79,150.66 C 148.79,150.66 148.79,150.66 148.8,150.66 C 148.8,150.65 148.8,150.65 148.81,150.65 C 148.81,150.64 148.81,150.64 148.82,150.64 C 148.82,150.64 148.82,150.64 148.82,150.63 C 148.82,150.63 148.82,150.64 148.83,150.63 C 148.83,150.63 148.84,150.61 148.86,150.61 C 148.87,150.6 148.87,150.59 148.88,150.58 C 148.9,150.56 148.92,150.55 148.94,150.53 C 148.96,150.51 148.98,150.5 149.0,150.48 C 149.02,150.46 149.04,150.45 149.05,150.43 C 149.09,150.4 149.13,150.37 149.17,150.33 C 149.21,150.3 149.24,150.27 149.28,150.23 C 149.36,150.17 149.43,150.1 149.51,150.04 C 149.58,149.97 149.66,149.91 149.73,149.84 C 149.81,149.78 149.88,149.71 149.95,149.65 C 150.03,149.58 150.1,149.52 150.18,149.45 C 150.32,149.32 150.47,149.19 150.62,149.07 C 150.76,148.94 150.91,148.81 151.05,148.69 C 151.12,148.62 151.19,148.56 151.27,148.5 C 151.34,148.44 151.41,148.37 151.48,148.31 C 151.55,148.25 151.62,148.19 151.69,148.12 C 151.77,148.06 151.84,148.0 151.91,147.94 C 151.94,147.91 151.98,147.88 152.01,147.85 C 152.05,147.82 152.08,147.79 152.12,147.76 C 152.15,147.72 152.19,147.69 152.22,147.66 C 152.24,147.65 152.26,147.63 152.28,147.62 C 152.28,147.61 152.29,147.6 152.3,147.59 C 152.31,147.59 152.32,147.58 152.33,147.57 C 152.33,147.57 152.33,147.57 152.33,147.57 C 152.33,147.57 152.33,147.57 152.33,147.57 C 152.34,147.56 152.34,147.56 152.34,147.56 C 152.34,147.56 152.35,147.55 152.35,147.55 C 152.36,147.55 152.36,147.54 152.36,147.54 C 152.37,147.54 152.37,147.53 152.38,147.53 C 152.38,147.52 152.39,147.52 152.4,147.51 C 152.41,147.5 152.42,147.5 152.42,147.49 C 152.43,147.49 152.44,147.48 152.45,147.47 C 152.45,147.47 152.46,147.46 152.47,147.46 C 152.48,147.45 152.5,147.44 152.51,147.43 C 152.53,147.42 152.54,147.41 152.56,147.4 C 152.57,147.39 152.58,147.38 152.6,147.37 C 152.62,147.35 152.65,147.34 152.68,147.33 C 152.7,147.32 152.73,147.31 152.75,147.3 C 152.78,147.29 152.8,147.28 152.82,147.28 C 152.85,147.27 152.87,147.27 152.89,147.27 C 152.91,147.27 152.93,147.27 152.95,147.28 C 152.98,147.28 153.0,147.29 153.02,147.29 C 153.04,147.3 153.05,147.31 153.07,147.32 C 153.08,147.33 153.09,147.33 153.1,147.34 C 153.11,147.35 153.12,147.35 153.13,147.36 C 153.13,147.36 153.14,147.37 153.14,147.37 C 153.15,147.37 153.15,147.38 153.16,147.38 C 153.16,147.39 153.17,147.39 153.17,147.4 C 153.17,147.4 153.17,147.4 153.18,147.4 C 153.18,147.4 153.18,147.41 153.18,147.41 C 153.18,147.41 153.18,147.4 153.18,147.41 C 153.19,147.41 153.2,147.42 153.2,147.43 C 153.21,147.44 153.22,147.45 153.23,147.45 C 153.24,147.47 153.25,147.48 153.27,147.5 C 153.29,147.52 153.32,147.55 153.35,147.58 C 153.38,147.61 153.4,147.64 153.43,147.67 C 153.46,147.7 153.48,147.73 153.51,147.75 C 153.57,147.81 153.62,147.87 153.67,147.93 C 153.73,147.99 153.78,148.04 153.84,148.1 C 153.89,148.16 153.94,148.22 154.0,148.28 C 154.05,148.34 154.1,148.4 154.16,148.45 C 154.18,148.48 154.21,148.51 154.24,148.54 C 154.26,148.57 154.29,148.6 154.31,148.63 C 154.34,148.66 154.37,148.69 154.39,148.72 C 154.41,148.73 154.42,148.75 154.43,148.76 C 154.44,148.77 154.45,148.78 154.45,148.79 C 154.46,148.79 154.47,148.8 154.47,148.81 C 154.48,148.81 154.48,148.81 154.48,148.81 C 154.48,148.81 154.48,148.82 154.48,148.82 C 154.48,148.82 154.48,148.82 154.49,148.82 C 154.49,148.83 154.49,148.84 154.5,148.84 C 154.5,148.85 154.51,148.85 154.51,148.86 C 154.51,148.86 154.52,148.87 154.52,148.87 C 154.53,148.89 154.53,148.9 154.54,148.91 C 154.54,148.92 154.55,148.93 154.55,148.94 C 154.56,148.96 154.56,148.99 154.56,149.01 C 154.56,149.03 154.56,149.06 154.55,149.08 C 154.54,149.11 154.53,149.13 154.52,149.15 C 154.51,149.18 154.5,149.2 154.48,149.22 C 154.45,149.27 154.41,149.32 154.36,149.36 C 154.31,149.4 154.26,149.44 154.21,149.46 C 154.16,149.49 154.11,149.51 154.06,149.51 C 153.96,149.52 153.87,149.49 153.8,149.4 z M 147.7,149.61 C 148.01,149.33 148.33,149.06 148.64,148.79 C 148.8,148.65 148.95,148.52 149.11,148.38 C 149.26,148.25 149.41,148.11 149.57,147.98 C 149.72,147.85 149.87,147.72 150.02,147.59 C 150.09,147.52 150.17,147.46 150.24,147.39 C 150.32,147.32 150.39,147.26 150.47,147.19 C 150.54,147.13 150.62,147.07 150.69,147.0 C 150.77,146.94 150.84,146.87 150.91,146.81 C 150.95,146.78 150.99,146.74 151.02,146.71 C 151.06,146.68 151.1,146.65 151.13,146.62 C 151.17,146.58 151.21,146.55 151.24,146.52 C 151.26,146.5 151.28,146.49 151.3,146.47 C 151.31,146.47 151.31,146.46 151.32,146.45 C 151.33,146.44 151.35,146.43 151.35,146.43 C 151.36,146.42 151.36,146.42 151.36,146.42 C 151.36,146.42 151.36,146.42 151.36,146.42 C 151.36,146.42 151.37,146.41 151.37,146.41 C 151.37,146.41 151.38,146.4 151.39,146.4 C 151.39,146.39 151.4,146.39 151.4,146.38 C 151.41,146.38 151.41,146.37 151.42,146.37 C 151.43,146.36 151.44,146.35 151.45,146.34 C 151.46,146.33 151.47,146.33 151.48,146.32 C 151.49,146.31 151.5,146.3 151.52,146.3 C 151.53,146.29 151.54,146.28 151.55,146.27 C 151.57,146.26 151.59,146.25 151.61,146.24 C 151.63,146.22 151.65,146.21 151.67,146.2 C 151.68,146.19 151.7,146.18 151.72,146.18 C 151.76,146.16 151.79,146.15 151.83,146.14 C 151.86,146.13 151.9,146.13 151.93,146.13 C 151.96,146.12 151.98,146.13 152.01,146.13 C 152.06,146.14 152.11,146.17 152.15,146.2 C 152.17,146.22 152.18,146.24 152.19,146.26 C 152.21,146.29 152.21,146.31 152.22,146.34 C 152.22,146.36 152.22,146.39 152.22,146.42 C 152.22,146.44 152.21,146.47 152.2,146.5 C 152.19,146.54 152.18,146.57 152.16,146.6 C 152.15,146.62 152.14,146.63 152.13,146.65 C 152.11,146.67 152.1,146.69 152.09,146.7 C 152.07,146.72 152.06,146.74 152.04,146.76 C 152.03,146.77 152.02,146.78 152.02,146.79 C 152.01,146.8 152.0,146.81 151.99,146.82 C 151.98,146.82 151.97,146.83 151.96,146.84 C 151.95,146.85 151.94,146.86 151.93,146.87 C 151.92,146.88 151.92,146.88 151.91,146.89 C 151.91,146.89 151.9,146.9 151.9,146.9 C 151.89,146.91 151.89,146.91 151.88,146.92 C 151.88,146.92 151.88,146.92 151.87,146.92 C 151.87,146.93 151.87,146.93 151.87,146.93 C 151.87,146.93 151.87,146.93 151.86,146.93 C 151.86,146.94 151.85,146.95 151.84,146.96 C 151.83,146.97 151.82,146.97 151.81,146.98 C 151.79,147.0 151.77,147.01 151.75,147.03 C 151.72,147.06 151.68,147.09 151.64,147.12 C 151.61,147.16 151.57,147.19 151.53,147.22 C 151.5,147.25 151.46,147.28 151.42,147.32 C 151.35,147.38 151.28,147.45 151.2,147.51 C 151.13,147.58 151.05,147.64 150.98,147.71 C 150.9,147.77 150.83,147.84 150.75,147.9 C 150.68,147.97 150.6,148.03 150.53,148.1 C 150.38,148.23 150.22,148.36 150.07,148.5 C 149.92,148.63 149.76,148.76 149.61,148.9 C 149.53,148.97 149.45,149.03 149.38,149.1 C 149.3,149.17 149.22,149.24 149.14,149.31 C 149.06,149.38 148.99,149.44 148.91,149.51 C 148.83,149.58 148.75,149.65 148.67,149.72 C 148.63,149.75 148.59,149.79 148.55,149.82 C 148.51,149.86 148.47,149.89 148.43,149.93 C 148.41,149.94 148.39,149.96 148.37,149.98 C 148.35,150.0 148.33,150.01 148.31,150.03 C 148.29,150.05 148.27,150.07 148.25,150.08 C 148.24,150.09 148.23,150.1 148.22,150.11 C 148.22,150.11 148.21,150.12 148.21,150.12 C 148.2,150.13 148.2,150.13 148.19,150.14 C 148.19,150.14 148.19,150.14 148.19,150.14 C 148.19,150.14 148.19,150.14 148.19,150.14 C 148.19,150.14 148.18,150.14 148.18,150.14 C 148.18,150.15 148.18,150.15 148.17,150.15 C 148.17,150.15 148.17,150.16 148.16,150.16 C 148.16,150.16 148.16,150.17 148.16,150.17 C 148.15,150.17 148.14,150.18 148.14,150.18 C 148.13,150.19 148.12,150.19 148.12,150.2 C 148.11,150.21 148.09,150.22 148.08,150.23 C 148.07,150.24 148.06,150.25 148.05,150.25 C 148.03,150.26 148.02,150.27 148.01,150.28 C 148.0,150.29 147.99,150.3 147.98,150.3 C 147.95,150.32 147.93,150.34 147.91,150.35 C 147.89,150.36 147.87,150.37 147.85,150.39 C 147.82,150.4 147.8,150.41 147.78,150.42 C 147.74,150.44 147.71,150.45 147.67,150.46 C 147.63,150.47 147.6,150.47 147.57,150.48 C 147.53,150.48 147.5,150.48 147.48,150.47 C 147.45,150.47 147.42,150.46 147.4,150.45 C 147.38,150.43 147.35,150.42 147.34,150.4 C 147.3,150.36 147.28,150.32 147.28,150.26 C 147.27,150.21 147.29,150.15 147.31,150.08 C 147.34,150.01 147.39,149.94 147.45,149.86 C 147.51,149.78 147.6,149.7 147.7,149.61 z M 148.15,148.35 C 147.87,148.59 147.57,148.78 147.27,148.9 C 147.12,148.96 146.96,149.0 146.81,149.02 C 146.67,149.04 146.52,149.04 146.38,149.02 C 146.24,149.0 146.11,148.96 145.99,148.9 C 145.93,148.87 145.87,148.83 145.81,148.79 C 145.79,148.77 145.76,148.75 145.73,148.72 C 145.71,148.7 145.68,148.68 145.65,148.65 C 145.62,148.62 145.59,148.59 145.57,148.55 C 145.54,148.52 145.51,148.49 145.49,148.46 C 145.45,148.39 145.41,148.32 145.38,148.25 C 145.35,148.18 145.33,148.11 145.32,148.03 C 145.31,148.0 145.31,147.96 145.3,147.92 C 145.3,147.88 145.3,147.84 145.3,147.81 C 145.3,147.77 145.3,147.75 145.31,147.72 C 145.31,147.69 145.32,147.66 145.32,147.63 C 145.33,147.57 145.35,147.52 145.37,147.46 C 145.4,147.34 145.46,147.21 145.52,147.09 C 145.56,147.03 145.59,146.96 145.63,146.91 C 145.67,146.85 145.71,146.79 145.75,146.74 C 145.79,146.69 145.83,146.64 145.88,146.59 C 145.9,146.57 145.92,146.54 145.94,146.52 C 145.96,146.51 145.97,146.5 145.98,146.49 C 145.99,146.48 146.01,146.47 146.02,146.46 C 146.03,146.45 146.03,146.44 146.04,146.44 C 146.04,146.43 146.05,146.43 146.06,146.42 C 146.07,146.41 146.09,146.4 146.1,146.39 C 146.13,146.37 146.16,146.35 146.19,146.34 C 146.25,146.31 146.31,146.28 146.37,146.27 C 146.43,146.26 146.49,146.25 146.54,146.26 C 146.56,146.27 146.59,146.28 146.61,146.29 C 146.63,146.3 146.65,146.31 146.66,146.33 C 146.69,146.35 146.71,146.38 146.72,146.42 C 146.72,146.45 146.72,146.5 146.71,146.54 C 146.7,146.59 146.68,146.64 146.65,146.69 C 146.62,146.75 146.58,146.81 146.53,146.88 C 146.5,146.92 146.47,146.96 146.45,147.0 C 146.42,147.04 146.4,147.07 146.37,147.11 C 146.33,147.18 146.29,147.24 146.26,147.31 C 146.23,147.37 146.2,147.43 146.19,147.49 C 146.17,147.55 146.16,147.62 146.17,147.68 C 146.17,147.74 146.18,147.8 146.21,147.86 C 146.22,147.89 146.24,147.92 146.26,147.94 C 146.27,147.96 146.28,147.97 146.29,147.99 C 146.31,148.0 146.32,148.01 146.33,148.03 C 146.35,148.04 146.37,148.06 146.39,148.08 C 146.41,148.1 146.43,148.11 146.45,148.12 C 146.5,148.15 146.54,148.17 146.59,148.19 C 146.64,148.2 146.68,148.22 146.74,148.22 C 146.79,148.23 146.84,148.23 146.9,148.22 C 146.96,148.21 147.01,148.2 147.07,148.19 C 147.12,148.17 147.18,148.15 147.23,148.13 C 147.28,148.11 147.34,148.08 147.39,148.04 C 147.41,148.03 147.44,148.01 147.47,147.99 C 147.49,147.97 147.52,147.95 147.54,147.93 C 147.58,147.89 147.62,147.86 147.65,147.82 C 147.68,147.79 147.71,147.76 147.73,147.72 C 147.78,147.66 147.82,147.59 147.84,147.52 C 147.87,147.45 147.88,147.39 147.88,147.32 C 147.89,147.26 147.88,147.2 147.87,147.13 C 147.86,147.1 147.85,147.07 147.84,147.04 C 147.83,147.0 147.82,146.97 147.8,146.93 C 147.79,146.89 147.77,146.85 147.75,146.81 C 147.75,146.79 147.74,146.77 147.73,146.75 C 147.72,146.73 147.71,146.71 147.7,146.68 C 147.69,146.65 147.67,146.62 147.66,146.59 C 147.65,146.56 147.64,146.53 147.63,146.5 C 147.6,146.44 147.58,146.38 147.57,146.33 C 147.55,146.27 147.54,146.21 147.53,146.16 C 147.51,146.11 147.5,146.06 147.5,146.0 C 147.49,145.9 147.49,145.79 147.51,145.69 C 147.53,145.58 147.56,145.47 147.61,145.36 C 147.66,145.25 147.73,145.14 147.82,145.03 C 147.86,144.98 147.91,144.92 147.97,144.87 C 148.02,144.81 148.08,144.76 148.14,144.7 C 148.26,144.6 148.39,144.51 148.51,144.43 C 148.64,144.36 148.77,144.3 148.9,144.25 C 149.04,144.21 149.17,144.18 149.3,144.17 C 149.43,144.16 149.56,144.16 149.68,144.19 C 149.74,144.2 149.81,144.22 149.87,144.24 C 149.93,144.26 149.98,144.28 150.04,144.31 C 150.1,144.34 150.16,144.37 150.21,144.41 C 150.24,144.43 150.26,144.45 150.29,144.47 C 150.32,144.49 150.34,144.51 150.37,144.53 C 150.39,144.56 150.41,144.57 150.43,144.59 C 150.44,144.61 150.46,144.63 150.48,144.65 C 150.51,144.68 150.54,144.72 150.57,144.76 C 150.62,144.84 150.66,144.92 150.69,145.0 C 150.74,145.17 150.75,145.34 150.72,145.51 C 150.69,145.67 150.62,145.83 150.53,145.97 C 150.45,146.11 150.34,146.24 150.23,146.33 C 150.17,146.38 150.11,146.42 150.05,146.46 C 149.99,146.49 149.93,146.51 149.86,146.53 C 149.8,146.54 149.74,146.55 149.69,146.54 C 149.64,146.53 149.6,146.51 149.57,146.48 C 149.53,146.46 149.52,146.42 149.51,146.39 C 149.5,146.36 149.5,146.32 149.51,146.28 C 149.52,146.24 149.54,146.2 149.56,146.15 C 149.58,146.12 149.59,146.09 149.61,146.06 C 149.62,146.04 149.62,146.03 149.63,146.01 C 149.64,146.0 149.65,145.98 149.66,145.96 C 149.68,145.94 149.69,145.92 149.71,145.89 C 149.72,145.87 149.73,145.85 149.75,145.82 C 149.77,145.78 149.79,145.74 149.81,145.7 C 149.85,145.61 149.87,145.54 149.88,145.46 C 149.89,145.39 149.89,145.32 149.86,145.25 C 149.84,145.22 149.82,145.19 149.8,145.15 C 149.77,145.12 149.74,145.08 149.7,145.05 C 149.63,144.99 149.56,144.94 149.48,144.91 C 149.4,144.89 149.31,144.87 149.22,144.88 C 149.17,144.88 149.13,144.89 149.08,144.9 C 149.04,144.91 149.0,144.92 148.96,144.94 C 148.92,144.96 148.88,144.98 148.84,145.0 C 148.82,145.01 148.8,145.03 148.78,145.04 C 148.76,145.05 148.74,145.07 148.73,145.08 C 148.71,145.1 148.7,145.1 148.69,145.11 C 148.69,145.12 148.68,145.13 148.67,145.14 C 148.65,145.16 148.63,145.18 148.61,145.2 C 148.58,145.24 148.56,145.28 148.54,145.32 C 148.52,145.36 148.51,145.4 148.5,145.45 C 148.49,145.49 148.49,145.53 148.49,145.58 C 148.49,145.62 148.5,145.66 148.5,145.7 C 148.51,145.74 148.52,145.77 148.53,145.81 C 148.54,145.85 148.56,145.89 148.58,145.95 C 148.59,145.97 148.61,146.01 148.62,146.04 C 148.63,146.07 148.65,146.1 148.67,146.15 C 148.68,146.17 148.69,146.19 148.7,146.22 C 148.71,146.24 148.72,146.26 148.73,146.29 C 148.75,146.33 148.76,146.38 148.78,146.43 C 148.81,146.52 148.84,146.61 148.86,146.7 C 148.88,146.78 148.9,146.87 148.91,146.96 C 148.91,147.04 148.91,147.13 148.9,147.22 C 148.87,147.39 148.81,147.57 148.69,147.76 C 148.57,147.94 148.39,148.14 148.15,148.35 z M 145.76,146.03 C 145.49,146.27 145.19,146.45 144.9,146.56 C 144.75,146.62 144.6,146.66 144.45,146.68 C 144.3,146.7 144.16,146.7 144.02,146.68 C 143.88,146.66 143.75,146.62 143.62,146.56 C 143.56,146.53 143.5,146.49 143.45,146.45 C 143.39,146.41 143.34,146.37 143.28,146.31 C 143.25,146.29 143.22,146.26 143.19,146.22 C 143.17,146.19 143.14,146.16 143.12,146.13 C 143.07,146.07 143.03,146.0 143.0,145.93 C 142.97,145.86 142.94,145.8 142.93,145.72 C 142.92,145.69 142.91,145.65 142.91,145.62 C 142.91,145.58 142.9,145.54 142.9,145.51 C 142.9,145.47 142.9,145.45 142.91,145.42 C 142.91,145.4 142.91,145.37 142.92,145.34 C 142.93,145.29 142.94,145.23 142.95,145.17 C 142.98,145.06 143.03,144.94 143.09,144.82 C 143.12,144.76 143.16,144.71 143.19,144.65 C 143.23,144.59 143.26,144.54 143.3,144.49 C 143.34,144.44 143.38,144.4 143.42,144.35 C 143.44,144.33 143.47,144.31 143.49,144.29 C 143.5,144.27 143.51,144.26 143.52,144.25 C 143.53,144.24 143.55,144.23 143.55,144.22 C 143.56,144.22 143.57,144.21 143.58,144.21 C 143.58,144.2 143.59,144.2 143.6,144.19 C 143.61,144.18 143.62,144.17 143.64,144.16 C 143.66,144.14 143.69,144.12 143.72,144.11 C 143.78,144.08 143.84,144.06 143.9,144.05 C 143.96,144.03 144.02,144.03 144.06,144.04 C 144.09,144.04 144.11,144.05 144.13,144.06 C 144.15,144.07 144.17,144.09 144.19,144.1 C 144.22,144.13 144.24,144.15 144.25,144.19 C 144.26,144.22 144.26,144.26 144.25,144.31 C 144.24,144.35 144.22,144.4 144.19,144.45 C 144.16,144.5 144.13,144.56 144.08,144.63 C 144.06,144.66 144.03,144.7 144.0,144.74 C 143.98,144.77 143.96,144.81 143.94,144.84 C 143.9,144.91 143.86,144.97 143.83,145.03 C 143.8,145.09 143.78,145.15 143.77,145.21 C 143.76,145.27 143.75,145.33 143.76,145.39 C 143.76,145.45 143.78,145.51 143.8,145.56 C 143.82,145.59 143.84,145.62 143.86,145.64 C 143.87,145.66 143.88,145.67 143.89,145.68 C 143.91,145.7 143.92,145.71 143.93,145.72 C 143.95,145.74 143.97,145.76 143.99,145.77 C 144.02,145.79 144.04,145.8 144.06,145.82 C 144.1,145.84 144.15,145.86 144.19,145.88 C 144.24,145.89 144.29,145.9 144.34,145.91 C 144.4,145.91 144.45,145.91 144.51,145.91 C 144.56,145.9 144.62,145.89 144.67,145.88 C 144.73,145.86 144.78,145.85 144.83,145.82 C 144.88,145.8 144.93,145.77 144.98,145.74 C 145.01,145.72 145.03,145.71 145.06,145.69 C 145.08,145.67 145.11,145.65 145.13,145.63 C 145.17,145.59 145.2,145.56 145.23,145.53 C 145.26,145.5 145.29,145.47 145.32,145.43 C 145.36,145.37 145.4,145.3 145.42,145.24 C 145.44,145.17 145.45,145.11 145.45,145.05 C 145.45,144.99 145.44,144.93 145.42,144.87 C 145.41,144.81 145.38,144.75 145.35,144.67 C 145.33,144.64 145.32,144.6 145.3,144.56 C 145.29,144.54 145.28,144.52 145.27,144.5 C 145.26,144.48 145.25,144.46 145.24,144.44 C 145.22,144.41 145.21,144.38 145.19,144.35 C 145.18,144.32 145.17,144.29 145.16,144.26 C 145.13,144.21 145.11,144.15 145.09,144.1 C 145.07,144.05 145.06,143.99 145.04,143.94 C 145.03,143.89 145.02,143.84 145.01,143.79 C 144.99,143.69 144.99,143.59 145.0,143.49 C 145.02,143.39 145.04,143.29 145.09,143.18 C 145.13,143.08 145.2,142.98 145.28,142.87 C 145.32,142.82 145.37,142.77 145.42,142.71 C 145.47,142.66 145.53,142.61 145.59,142.56 C 145.7,142.46 145.82,142.37 145.94,142.3 C 146.07,142.23 146.19,142.17 146.32,142.13 C 146.45,142.09 146.59,142.06 146.71,142.05 C 146.84,142.04 146.97,142.04 147.1,142.06 C 147.16,142.07 147.23,142.09 147.29,142.11 C 147.35,142.13 147.41,142.15 147.47,142.17 C 147.53,142.2 147.59,142.23 147.64,142.27 C 147.67,142.28 147.7,142.3 147.73,142.32 C 147.76,142.34 147.79,142.36 147.81,142.38 C 147.83,142.4 147.85,142.42 147.87,142.43 C 147.89,142.45 147.91,142.47 147.93,142.49 C 147.97,142.52 148.0,142.56 148.03,142.6 C 148.08,142.67 148.13,142.74 148.16,142.82 C 148.22,142.98 148.23,143.14 148.21,143.3 C 148.19,143.46 148.13,143.61 148.05,143.74 C 147.97,143.88 147.86,144.0 147.76,144.09 C 147.7,144.14 147.65,144.18 147.59,144.21 C 147.53,144.24 147.46,144.27 147.4,144.28 C 147.34,144.3 147.28,144.3 147.23,144.3 C 147.17,144.29 147.13,144.27 147.1,144.24 C 147.07,144.21 147.04,144.18 147.03,144.15 C 147.02,144.12 147.02,144.09 147.03,144.05 C 147.04,144.01 147.06,143.97 147.08,143.92 C 147.09,143.89 147.1,143.87 147.12,143.84 C 147.13,143.82 147.14,143.81 147.14,143.79 C 147.15,143.78 147.16,143.76 147.17,143.74 C 147.18,143.72 147.2,143.7 147.21,143.68 C 147.23,143.65 147.24,143.63 147.25,143.61 C 147.27,143.57 147.29,143.53 147.31,143.49 C 147.34,143.41 147.36,143.34 147.37,143.27 C 147.38,143.2 147.37,143.13 147.33,143.07 C 147.32,143.04 147.3,143.0 147.27,142.97 C 147.24,142.94 147.2,142.91 147.17,142.88 C 147.09,142.82 147.02,142.78 146.93,142.75 C 146.85,142.72 146.76,142.71 146.67,142.72 C 146.63,142.72 146.58,142.73 146.54,142.74 C 146.49,142.75 146.45,142.76 146.41,142.78 C 146.37,142.79 146.33,142.81 146.3,142.84 C 146.28,142.85 146.26,142.86 146.24,142.87 C 146.22,142.89 146.2,142.9 146.19,142.92 C 146.18,142.93 146.17,142.93 146.16,142.94 C 146.15,142.95 146.14,142.96 146.13,142.97 C 146.11,142.99 146.1,143.01 146.08,143.03 C 146.05,143.06 146.03,143.1 146.01,143.14 C 146.0,143.18 145.99,143.22 145.98,143.26 C 145.97,143.3 145.97,143.34 145.98,143.38 C 145.98,143.42 145.99,143.46 146.0,143.5 C 146.0,143.54 146.01,143.57 146.03,143.61 C 146.04,143.64 146.06,143.68 146.09,143.73 C 146.1,143.76 146.11,143.79 146.13,143.82 C 146.14,143.85 146.16,143.88 146.18,143.93 C 146.19,143.95 146.2,143.97 146.21,143.99 C 146.23,144.01 146.24,144.04 146.25,144.06 C 146.27,144.1 146.29,144.15 146.31,144.19 C 146.34,144.28 146.38,144.36 146.4,144.45 C 146.43,144.53 146.45,144.61 146.46,144.7 C 146.47,144.78 146.47,144.86 146.46,144.94 C 146.44,145.11 146.38,145.28 146.27,145.46 C 146.16,145.64 145.99,145.83 145.76,146.03 z M 141.34,141.42 C 141.5,141.28 141.66,141.14 141.82,141.0 C 141.98,140.87 142.13,140.73 142.29,140.6 C 142.37,140.53 142.45,140.46 142.53,140.39 C 142.6,140.33 142.68,140.26 142.76,140.19 C 142.8,140.16 142.84,140.13 142.88,140.09 C 142.91,140.06 142.95,140.03 142.99,139.99 C 143.03,139.96 143.07,139.93 143.11,139.9 C 143.13,139.88 143.15,139.86 143.16,139.85 C 143.17,139.84 143.18,139.83 143.19,139.82 C 143.2,139.81 143.22,139.8 143.22,139.8 C 143.23,139.79 143.23,139.79 143.23,139.79 C 143.23,139.79 143.23,139.79 143.24,139.78 C 143.24,139.78 143.25,139.78 143.25,139.77 C 143.26,139.76 143.27,139.76 143.28,139.75 C 143.29,139.74 143.3,139.73 143.31,139.73 C 143.32,139.72 143.33,139.71 143.34,139.71 C 143.36,139.69 143.37,139.68 143.39,139.67 C 143.41,139.66 143.43,139.64 143.45,139.63 C 143.48,139.61 143.52,139.6 143.55,139.58 C 143.59,139.57 143.62,139.56 143.65,139.55 C 143.69,139.54 143.72,139.54 143.75,139.54 C 143.78,139.53 143.81,139.53 143.84,139.54 C 143.89,139.55 143.94,139.57 143.99,139.59 C 144.03,139.62 144.07,139.66 144.08,139.7 C 144.09,139.73 144.1,139.75 144.1,139.77 C 144.1,139.79 144.1,139.82 144.09,139.85 C 144.08,139.87 144.07,139.9 144.06,139.93 C 144.05,139.94 144.04,139.96 144.04,139.97 C 144.03,139.99 144.02,140.0 144.0,140.02 C 143.99,140.03 143.98,140.05 143.97,140.06 C 143.95,140.08 143.94,140.09 143.92,140.11 C 143.91,140.12 143.91,140.13 143.9,140.13 C 143.89,140.14 143.88,140.15 143.87,140.16 C 143.86,140.17 143.85,140.18 143.84,140.18 C 143.84,140.19 143.84,140.19 143.83,140.2 C 143.83,140.2 143.82,140.2 143.82,140.2 C 143.82,140.2 143.82,140.2 143.82,140.21 C 143.81,140.22 143.8,140.23 143.79,140.24 C 143.77,140.25 143.76,140.25 143.76,140.26 C 143.74,140.28 143.72,140.3 143.7,140.31 C 143.65,140.35 143.61,140.38 143.57,140.42 C 143.53,140.45 143.49,140.49 143.45,140.52 C 143.41,140.56 143.37,140.59 143.33,140.63 C 143.25,140.69 143.17,140.76 143.09,140.83 C 143.01,140.9 142.93,140.98 142.84,141.05 C 142.76,141.12 142.68,141.19 142.6,141.26 C 142.52,141.33 142.43,141.4 142.35,141.47 C 142.31,141.51 142.27,141.54 142.22,141.58 C 142.18,141.62 142.14,141.65 142.1,141.69 C 142.06,141.72 142.02,141.76 141.97,141.79 C 141.95,141.81 141.93,141.83 141.91,141.85 C 141.9,141.86 141.89,141.87 141.88,141.88 C 141.87,141.89 141.86,141.9 141.85,141.9 C 141.84,141.91 141.84,141.91 141.84,141.91 C 141.84,141.91 141.83,141.92 141.83,141.92 C 141.82,141.93 141.81,141.93 141.81,141.94 C 141.79,141.95 141.78,141.96 141.76,141.98 C 141.75,141.99 141.74,142.0 141.72,142.01 C 141.71,142.02 141.7,142.04 141.69,142.05 C 141.66,142.07 141.64,142.1 141.61,142.12 C 141.59,142.14 141.57,142.16 141.54,142.19 C 141.5,142.23 141.46,142.28 141.42,142.32 C 141.38,142.36 141.35,142.4 141.32,142.44 C 141.29,142.48 141.26,142.53 141.24,142.56 C 141.22,142.6 141.2,142.64 141.18,142.68 C 141.15,142.76 141.13,142.84 141.13,142.91 C 141.13,142.98 141.15,143.06 141.19,143.13 C 141.21,143.16 141.23,143.2 141.26,143.23 C 141.28,143.25 141.29,143.26 141.31,143.28 C 141.32,143.3 141.34,143.31 141.36,143.33 C 141.38,143.35 141.41,143.37 141.44,143.39 C 141.47,143.41 141.5,143.43 141.53,143.44 C 141.58,143.47 141.64,143.49 141.7,143.5 C 141.76,143.52 141.82,143.52 141.89,143.52 C 141.95,143.51 142.02,143.5 142.08,143.48 C 142.15,143.46 142.22,143.43 142.29,143.4 C 142.37,143.36 142.44,143.32 142.52,143.27 C 142.56,143.25 142.6,143.22 142.65,143.19 C 142.69,143.16 142.73,143.13 142.77,143.1 C 142.79,143.09 142.81,143.07 142.84,143.05 C 142.86,143.03 142.88,143.02 142.9,143.0 C 142.92,142.98 142.95,142.96 142.97,142.95 C 142.98,142.94 142.99,142.93 143.0,142.92 C 143.01,142.91 143.01,142.91 143.02,142.9 C 143.02,142.9 143.03,142.89 143.03,142.89 C 143.04,142.88 143.06,142.87 143.07,142.86 C 143.08,142.85 143.09,142.84 143.1,142.83 C 143.12,142.81 143.14,142.79 143.17,142.77 C 143.21,142.74 143.25,142.7 143.3,142.66 C 143.34,142.62 143.38,142.59 143.43,142.55 C 143.47,142.51 143.51,142.47 143.56,142.44 C 143.64,142.36 143.73,142.29 143.82,142.21 C 143.9,142.14 143.99,142.07 144.07,141.99 C 144.16,141.92 144.24,141.85 144.33,141.77 C 144.41,141.7 144.5,141.63 144.58,141.55 C 144.62,141.52 144.67,141.48 144.71,141.44 C 144.75,141.41 144.79,141.37 144.83,141.34 C 144.85,141.32 144.88,141.3 144.9,141.28 C 144.92,141.26 144.94,141.25 144.96,141.23 C 144.98,141.21 145.0,141.19 145.02,141.17 C 145.03,141.17 145.04,141.16 145.05,141.15 C 145.06,141.14 145.08,141.13 145.08,141.12 C 145.09,141.12 145.09,141.12 145.09,141.11 C 145.09,141.11 145.1,141.11 145.1,141.11 C 145.1,141.1 145.11,141.1 145.11,141.09 C 145.12,141.09 145.12,141.09 145.13,141.08 C 145.13,141.08 145.14,141.07 145.15,141.07 C 145.16,141.06 145.17,141.05 145.18,141.05 C 145.19,141.04 145.2,141.03 145.21,141.02 C 145.22,141.01 145.24,141.0 145.26,140.98 C 145.28,140.97 145.3,140.96 145.32,140.95 C 145.34,140.94 145.36,140.93 145.38,140.92 C 145.39,140.91 145.41,140.9 145.43,140.89 C 145.46,140.88 145.5,140.87 145.53,140.86 C 145.57,140.85 145.6,140.85 145.63,140.84 C 145.66,140.84 145.69,140.84 145.72,140.85 C 145.77,140.86 145.82,140.88 145.87,140.91 C 145.91,140.94 145.94,140.98 145.96,141.02 C 145.96,141.04 145.97,141.07 145.97,141.09 C 145.97,141.12 145.96,141.14 145.96,141.17 C 145.95,141.2 145.94,141.23 145.92,141.26 C 145.92,141.27 145.91,141.29 145.9,141.3 C 145.89,141.32 145.88,141.33 145.86,141.35 C 145.85,141.36 145.84,141.38 145.82,141.4 C 145.81,141.41 145.79,141.43 145.78,141.45 C 145.77,141.46 145.76,141.46 145.75,141.47 C 145.74,141.48 145.73,141.49 145.72,141.5 C 145.72,141.51 145.71,141.52 145.7,141.53 C 145.69,141.53 145.69,141.53 145.68,141.54 C 145.68,141.54 145.67,141.54 145.67,141.55 C 145.67,141.55 145.67,141.55 145.66,141.55 C 145.66,141.56 145.65,141.57 145.63,141.58 C 145.62,141.59 145.61,141.6 145.6,141.61 C 145.58,141.62 145.56,141.64 145.54,141.66 C 145.5,141.69 145.46,141.73 145.42,141.76 C 145.38,141.8 145.34,141.84 145.3,141.87 C 145.25,141.91 145.21,141.94 145.17,141.98 C 145.09,142.05 145.01,142.12 144.92,142.19 C 144.84,142.26 144.76,142.34 144.67,142.41 C 144.59,142.48 144.51,142.55 144.42,142.63 C 144.34,142.7 144.25,142.77 144.17,142.84 C 144.13,142.88 144.08,142.92 144.04,142.95 C 144.0,142.99 143.96,143.03 143.91,143.06 C 143.87,143.1 143.83,143.14 143.79,143.18 C 143.76,143.19 143.74,143.21 143.72,143.23 C 143.71,143.24 143.7,143.25 143.69,143.26 C 143.68,143.27 143.66,143.28 143.66,143.29 C 143.65,143.29 143.65,143.3 143.64,143.3 C 143.64,143.3 143.63,143.31 143.63,143.31 C 143.61,143.32 143.6,143.33 143.59,143.34 C 143.57,143.36 143.55,143.37 143.53,143.39 C 143.51,143.41 143.49,143.43 143.47,143.44 C 143.45,143.46 143.43,143.48 143.41,143.49 C 143.37,143.52 143.33,143.56 143.29,143.59 C 143.25,143.62 143.22,143.65 143.18,143.67 C 143.1,143.73 143.03,143.78 142.96,143.83 C 142.88,143.88 142.82,143.92 142.75,143.96 C 142.68,144.01 142.61,144.04 142.54,144.08 C 142.48,144.11 142.41,144.14 142.34,144.17 C 142.27,144.19 142.2,144.22 142.13,144.24 C 142.09,144.25 142.06,144.26 142.02,144.26 C 141.99,144.27 141.95,144.28 141.92,144.29 C 141.85,144.3 141.79,144.3 141.74,144.31 C 141.68,144.31 141.63,144.31 141.57,144.31 C 141.46,144.31 141.36,144.29 141.26,144.26 C 141.17,144.23 141.07,144.19 140.98,144.14 C 140.94,144.11 140.89,144.08 140.85,144.05 C 140.81,144.02 140.76,143.99 140.72,143.95 C 140.7,143.93 140.67,143.9 140.65,143.88 C 140.62,143.86 140.6,143.83 140.58,143.81 C 140.54,143.77 140.5,143.72 140.47,143.67 C 140.4,143.58 140.34,143.49 140.3,143.39 C 140.27,143.3 140.25,143.2 140.24,143.1 C 140.23,143.0 140.24,142.9 140.27,142.8 C 140.32,142.59 140.44,142.38 140.62,142.15 C 140.79,141.92 141.03,141.68 141.34,141.42 z M 139.08,139.86 C 139.37,140.06 139.65,140.27 139.93,140.48 C 140.32,139.92 140.68,139.38 141.03,138.85 C 140.38,139.19 139.73,139.52 139.08,139.86 z M 139.12,141.64 C 139.25,141.46 139.37,141.28 139.5,141.1 C 139.12,140.81 138.74,140.52 138.36,140.23 C 138.16,140.34 137.95,140.44 137.74,140.55 C 137.73,140.55 137.73,140.56 137.72,140.56 C 137.71,140.56 137.7,140.57 137.7,140.57 C 137.68,140.58 137.67,140.59 137.65,140.59 C 137.62,140.61 137.6,140.62 137.57,140.63 C 137.52,140.66 137.47,140.68 137.43,140.7 C 137.34,140.74 137.28,140.77 137.22,140.78 C 137.17,140.79 137.12,140.8 137.07,140.79 C 137.05,140.78 137.03,140.78 137.01,140.76 C 136.98,140.75 136.96,140.74 136.94,140.72 C 136.91,140.7 136.89,140.66 136.87,140.62 C 136.86,140.58 136.86,140.54 136.87,140.49 C 136.88,140.44 136.89,140.39 136.92,140.34 C 136.93,140.32 136.95,140.3 136.97,140.28 C 136.97,140.27 136.98,140.26 136.99,140.25 C 137.0,140.24 137.02,140.23 137.02,140.22 C 137.03,140.21 137.04,140.21 137.04,140.2 C 137.05,140.2 137.06,140.19 137.06,140.19 C 137.08,140.18 137.09,140.17 137.11,140.16 C 137.12,140.15 137.14,140.14 137.15,140.13 C 137.17,140.12 137.18,140.11 137.2,140.1 C 137.22,140.09 137.24,140.08 137.26,140.07 C 137.27,140.06 137.28,140.06 137.29,140.05 C 137.3,140.05 137.31,140.04 137.32,140.04 C 137.33,140.03 137.35,140.02 137.36,140.02 C 137.37,140.01 137.39,140.0 137.4,140.0 C 137.41,139.99 137.41,139.99 137.42,139.99 C 137.43,139.98 137.43,139.98 137.44,139.98 C 137.45,139.97 137.45,139.97 137.45,139.97 C 137.46,139.97 137.46,139.97 137.46,139.97 C 137.47,139.96 137.47,139.96 137.48,139.96 C 137.48,139.96 137.48,139.96 137.48,139.96 C 137.48,139.96 137.48,139.96 137.48,139.96 C 137.48,139.96 137.48,139.96 137.49,139.95 C 137.49,139.95 137.5,139.95 137.51,139.94 C 137.52,139.94 137.53,139.93 137.54,139.93 C 137.55,139.92 137.57,139.91 137.58,139.91 C 137.62,139.89 137.65,139.87 137.68,139.86 C 137.71,139.84 137.75,139.83 137.78,139.81 C 137.81,139.8 137.84,139.78 137.88,139.76 C 137.94,139.73 138.01,139.7 138.07,139.67 C 138.14,139.64 138.2,139.61 138.27,139.57 C 138.4,139.51 138.53,139.45 138.65,139.39 C 138.78,139.32 138.91,139.26 139.04,139.2 C 139.17,139.13 139.3,139.07 139.43,139.01 C 139.56,138.94 139.69,138.88 139.82,138.82 C 139.88,138.79 139.95,138.76 140.01,138.73 C 140.08,138.69 140.14,138.66 140.21,138.63 C 140.24,138.62 140.27,138.6 140.3,138.58 C 140.34,138.57 140.37,138.55 140.4,138.54 C 140.43,138.52 140.46,138.51 140.5,138.49 C 140.51,138.48 140.53,138.47 140.55,138.47 C 140.55,138.46 140.56,138.46 140.57,138.46 C 140.58,138.45 140.59,138.45 140.59,138.44 C 140.6,138.44 140.6,138.44 140.6,138.44 C 140.6,138.44 140.6,138.44 140.6,138.44 C 140.6,138.44 140.6,138.44 140.6,138.44 C 140.61,138.44 140.61,138.44 140.61,138.44 C 140.61,138.43 140.62,138.43 140.62,138.43 C 140.62,138.43 140.63,138.43 140.63,138.43 C 140.63,138.42 140.64,138.42 140.65,138.42 C 140.65,138.42 140.66,138.41 140.66,138.41 C 140.68,138.4 140.69,138.4 140.7,138.39 C 140.71,138.39 140.73,138.38 140.74,138.37 C 140.75,138.37 140.77,138.36 140.78,138.35 C 140.8,138.35 140.81,138.34 140.82,138.33 C 140.85,138.32 140.88,138.3 140.91,138.29 C 140.94,138.27 140.97,138.26 141.0,138.25 C 141.03,138.23 141.06,138.22 141.09,138.21 C 141.14,138.19 141.2,138.17 141.25,138.15 C 141.29,138.14 141.34,138.12 141.39,138.12 C 141.44,138.11 141.49,138.11 141.53,138.11 C 141.58,138.11 141.63,138.12 141.67,138.13 C 141.72,138.15 141.77,138.17 141.81,138.19 C 141.85,138.22 141.88,138.25 141.91,138.28 C 141.94,138.31 141.96,138.34 141.97,138.38 C 141.98,138.41 141.98,138.45 141.98,138.48 C 141.98,138.52 141.97,138.55 141.96,138.59 C 141.94,138.63 141.93,138.67 141.91,138.7 C 141.9,138.72 141.89,138.74 141.88,138.76 C 141.87,138.78 141.86,138.8 141.85,138.82 C 141.83,138.84 141.82,138.86 141.81,138.88 C 141.8,138.89 141.79,138.9 141.79,138.91 C 141.78,138.93 141.77,138.94 141.76,138.95 C 141.75,138.96 141.75,138.98 141.74,138.99 C 141.73,139.0 141.72,139.02 141.71,139.03 C 141.71,139.04 141.7,139.05 141.7,139.05 C 141.69,139.06 141.69,139.07 141.68,139.08 C 141.68,139.08 141.68,139.08 141.68,139.09 C 141.67,139.09 141.67,139.1 141.67,139.1 C 141.67,139.1 141.66,139.11 141.66,139.11 C 141.66,139.11 141.66,139.11 141.66,139.12 C 141.66,139.12 141.65,139.12 141.65,139.12 C 141.65,139.12 141.65,139.12 141.65,139.12 C 141.65,139.13 141.64,139.14 141.64,139.14 C 141.64,139.15 141.63,139.16 141.63,139.16 C 141.62,139.18 141.61,139.19 141.6,139.2 C 141.59,139.23 141.57,139.26 141.55,139.28 C 141.53,139.31 141.52,139.34 141.5,139.36 C 141.48,139.39 141.47,139.42 141.45,139.45 C 141.42,139.5 141.38,139.55 141.35,139.61 C 141.31,139.66 141.28,139.72 141.24,139.77 C 141.17,139.88 141.1,139.99 141.03,140.1 C 140.96,140.21 140.89,140.32 140.81,140.44 C 140.74,140.55 140.67,140.66 140.59,140.78 C 140.52,140.89 140.44,141.0 140.37,141.12 C 140.33,141.18 140.29,141.23 140.25,141.29 C 140.22,141.35 140.18,141.41 140.14,141.46 C 140.12,141.49 140.1,141.52 140.08,141.55 C 140.06,141.58 140.04,141.61 140.02,141.64 C 140.0,141.67 139.98,141.7 139.96,141.73 C 139.95,141.74 139.94,141.76 139.93,141.77 C 139.93,141.78 139.92,141.79 139.92,141.79 C 139.91,141.8 139.91,141.81 139.9,141.82 C 139.9,141.82 139.9,141.82 139.9,141.82 C 139.9,141.82 139.9,141.82 139.9,141.83 C 139.9,141.83 139.89,141.83 139.89,141.84 C 139.89,141.84 139.88,141.85 139.88,141.86 C 139.87,141.86 139.87,141.87 139.87,141.87 C 139.86,141.88 139.86,141.89 139.85,141.89 C 139.84,141.91 139.84,141.92 139.83,141.93 C 139.82,141.94 139.81,141.95 139.8,141.97 C 139.79,141.99 139.77,142.01 139.75,142.03 C 139.74,142.05 139.72,142.07 139.71,142.09 C 139.69,142.11 139.68,142.12 139.67,142.14 C 139.65,142.16 139.64,142.17 139.63,142.19 C 139.6,142.22 139.58,142.24 139.55,142.26 C 139.53,142.28 139.5,142.3 139.48,142.32 C 139.45,142.33 139.42,142.35 139.4,142.36 C 139.34,142.39 139.27,142.41 139.21,142.42 C 139.15,142.43 139.09,142.43 139.04,142.42 C 139.01,142.42 138.99,142.41 138.97,142.4 C 138.94,142.39 138.92,142.37 138.91,142.36 C 138.89,142.35 138.89,142.34 138.88,142.33 C 138.87,142.32 138.86,142.31 138.86,142.3 C 138.84,142.28 138.84,142.26 138.83,142.24 C 138.83,142.22 138.83,142.19 138.83,142.17 C 138.84,142.14 138.84,142.12 138.85,142.09 C 138.86,142.06 138.88,142.04 138.9,142.0 C 138.92,141.96 138.94,141.92 138.97,141.88 C 139.0,141.83 139.02,141.79 139.05,141.75 C 139.08,141.71 139.1,141.67 139.12,141.64 z M 163.93,151.25 C 164.66,152.64 165.26,154.06 165.72,155.56 C 166.18,157.06 166.53,158.56 166.73,160.12 C 166.93,161.69 166.95,163.21 166.69,164.78 C 166.57,165.54 166.38,166.28 166.12,167.02 C 166.0,167.39 165.85,167.75 165.69,168.11 C 165.61,168.29 165.53,168.47 165.44,168.65 C 165.39,168.74 165.36,168.83 165.3,168.91 C 165.27,168.95 165.24,168.99 165.21,169.03 C 165.2,169.04 165.17,169.08 165.18,169.06 C 165.19,169.04 165.2,169.01 165.21,168.99 C 166.67,166.02 166.78,163.02 166.17,159.87 C 165.88,158.33 165.45,156.84 164.92,155.37 C 164.65,154.64 164.35,153.93 164.02,153.23 C 163.93,153.05 163.85,152.88 163.76,152.71 C 163.72,152.62 163.67,152.53 163.63,152.45 C 163.62,152.43 163.66,152.32 163.67,152.31 C 163.69,152.26 163.7,152.22 163.71,152.17 C 163.76,151.97 163.77,151.78 163.76,151.58 C 163.75,151.48 163.74,151.39 163.72,151.29 C 163.72,151.28 163.72,151.27 163.71,151.26 C 163.71,151.24 163.69,151.22 163.71,151.22 C 163.74,151.23 163.76,151.23 163.78,151.24 C 163.83,151.25 163.88,151.25 163.93,151.25 z M 152.4,139.63 C 151.11,138.74 149.77,137.98 148.34,137.32 C 146.92,136.67 145.48,136.1 143.96,135.72 C 142.43,135.33 140.92,135.14 139.33,135.25 C 138.57,135.31 137.82,135.43 137.08,135.62 C 136.89,135.67 136.71,135.72 136.52,135.78 C 136.43,135.81 136.34,135.84 136.25,135.87 C 136.2,135.88 136.15,135.9 136.11,135.91 C 136.07,135.93 136.14,135.89 136.16,135.88 C 136.18,135.87 136.2,135.86 136.22,135.84 C 136.42,135.73 137.18,135.51 137.39,135.45 C 140.55,134.58 143.55,134.95 146.57,135.96 C 148.06,136.46 149.49,137.05 150.87,137.79 C 151.56,138.15 152.22,138.55 152.87,138.98 C 153.04,139.08 153.2,139.19 153.36,139.3 C 153.44,139.36 153.52,139.41 153.6,139.47 C 153.63,139.49 153.6,139.52 153.6,139.54 C 153.6,139.56 153.6,139.59 153.6,139.61 C 153.6,139.64 153.6,139.66 153.6,139.69 C 153.61,139.72 153.57,139.69 153.55,139.68 C 153.16,139.55 152.81,139.5 152.4,139.63 z" />
			
		<!-- Prism Reference -->
		<cam mingh:cam="--verb EditSelectAll --verb ZoomSelection --verb FileSave" />  
	 </g>

</svg>
