<svg
   xmlns:xlink="http://www.w3.org/1999/xlink"
   xmlns:svg="http://www.w3.org/2000/svg"
   xmlns="http://www.w3.org/2000/svg"
   xmlns:mingh="http://www.minghworld.com"
   width="300px"
   height="300px" >
    
	 <g>
		<!-- Paths -->
		<path id="shape" transform="matrix(-1 0 0 1 300 0)" style="fill:#ff0;stroke:none;"
			d="M 150.13,123.19 C 148.38,123.13 146.8,124.21 146.19,125.84 C 145.58,127.45 146.04,129.26 147.34,130.38 C 147.43,130.45 147.51,130.49 147.59,130.56 C 147.68,130.63 147.68,130.77 147.59,130.84 C 147.5,130.92 147.41,130.89 147.31,130.91 C 147.22,130.92 147.13,130.93 147.03,130.94 C 146.64,130.99 146.26,131.05 145.88,131.13 C 145.09,131.27 144.3,131.43 143.53,131.66 C 141.92,132.13 140.41,132.75 138.94,133.56 C 135.9,135.23 133.26,137.56 131.25,140.38 C 127.28,145.93 126.01,152.92 127.72,159.53 C 129.43,166.13 133.97,171.64 140.13,174.56 C 146.28,177.49 153.4,177.56 159.59,174.72 C 165.8,171.88 170.42,166.42 172.22,159.84 C 174.02,153.26 172.8,146.23 168.91,140.63 C 166.93,137.78 164.36,135.42 161.34,133.72 C 159.88,132.89 158.36,132.24 156.75,131.75 C 155.98,131.51 155.2,131.31 154.41,131.16 C 154.02,131.08 153.64,131.02 153.25,130.97 C 153.06,130.94 152.88,130.93 152.69,130.91 C 152.59,130.89 152.49,130.9 152.41,130.81 C 152.33,130.74 152.32,130.63 152.41,130.56 C 153.79,129.54 154.39,127.77 153.91,126.13 C 153.41,124.44 151.88,123.25 150.13,123.19 z M 150.0,125.31 C 151.08,125.31 151.94,126.2 151.94,127.28 C 151.94,128.36 151.08,129.22 150.0,129.22 C 148.92,129.22 148.06,128.36 148.06,127.28 C 148.06,126.2 148.92,125.31 150.0,125.31 z M 147.13,137.38 C 147.54,137.3 147.95,137.54 148.09,137.94 C 148.17,138.15 148.15,138.32 148.06,138.53 C 147.98,138.74 147.85,138.87 147.69,139.0 C 147.05,139.51 146.4,139.98 145.72,140.44 C 144.36,141.35 142.95,142.16 141.5,142.91 C 140.77,143.28 140.02,143.62 139.28,143.97 C 138.91,144.14 138.56,144.34 138.19,144.5 C 137.93,144.61 137.63,144.73 137.34,144.84 C 137.33,144.85 137.19,144.87 137.19,144.91 C 137.19,144.96 137.19,145.01 137.19,145.06 C 137.18,146.69 137.2,148.34 137.25,149.97 C 137.34,153.24 137.59,156.44 138.31,159.66 C 138.67,161.27 139.13,162.86 139.69,164.41 C 139.97,165.18 140.25,165.94 140.59,166.69 C 140.76,167.04 140.98,167.48 141.19,167.88 C 141.2,167.89 141.22,167.92 141.19,167.91 C 140.91,167.72 140.63,167.55 140.34,167.34 C 134.87,163.45 132.27,156.65 133.75,150.09 C 135.23,143.54 140.51,138.54 147.13,137.38 z M 152.59,137.38 C 152.69,137.36 152.77,137.36 152.88,137.38 C 159.49,138.54 164.77,143.54 166.25,150.09 C 167.73,156.65 165.13,163.45 159.66,167.34 C 159.4,167.52 159.1,167.73 158.81,167.91 C 158.94,167.65 159.23,167.07 159.41,166.69 C 159.75,165.94 160.03,165.18 160.31,164.41 C 160.87,162.86 161.33,161.27 161.69,159.66 C 162.41,156.44 162.66,153.24 162.75,149.97 C 162.8,148.34 162.82,146.69 162.81,145.06 C 162.81,145.01 162.81,144.96 162.81,144.91 C 162.81,144.87 162.67,144.85 162.66,144.84 C 162.0,144.56 161.4,144.29 160.72,143.97 C 159.98,143.62 159.23,143.28 158.5,142.91 C 157.05,142.16 155.64,141.35 154.28,140.44 C 153.6,139.98 152.95,139.51 152.31,139.0 C 152.15,138.87 152.02,138.74 151.94,138.53 C 151.85,138.32 151.83,138.15 151.91,137.94 C 152.01,137.64 152.3,137.43 152.59,137.38 z M 150.0,143.34 C 150.52,143.45 151.02,143.74 151.38,144.13 C 151.55,144.32 151.73,144.55 151.78,144.81 C 151.59,145.35 151.12,145.77 150.63,146.03 C 151.18,147.48 151.28,148.94 151.34,150.69 C 150.5,150.68 149.56,150.69 148.66,150.69 C 148.73,149.22 148.78,147.54 149.34,146.03 C 148.86,145.75 148.39,145.33 148.22,144.78 C 148.37,144.36 148.71,144.04 149.06,143.78 C 149.35,143.58 149.65,143.39 150.0,143.34 z M 147.97,151.75 C 148.64,151.74 149.31,151.75 150.0,151.75 C 150.69,151.75 151.36,151.74 152.03,151.75 C 152.78,151.76 153.51,151.81 154.34,151.88 C 154.77,151.91 155.25,151.93 155.5,152.13 C 155.69,152.27 155.75,152.49 155.75,152.72 C 155.76,153.02 155.64,153.32 155.38,153.5 C 155.05,153.71 154.54,153.76 154.03,153.78 C 153.08,153.82 152.22,153.81 151.34,153.81 L 150.0,153.81 L 148.66,153.81 C 147.78,153.81 146.92,153.82 145.97,153.78 C 145.46,153.76 144.95,153.71 144.63,153.5 C 144.36,153.32 144.24,153.02 144.25,152.72 C 144.25,152.49 144.31,152.27 144.5,152.13 C 144.75,151.93 145.23,151.91 145.66,151.88 C 146.49,151.81 147.22,151.76 147.97,151.75 z M 147.91,155.22 C 148.19,155.22 148.55,155.22 148.88,155.22 C 148.86,156.04 148.84,156.92 148.84,157.81 C 148.85,159.44 148.89,161.16 148.94,162.84 C 148.98,164.44 149.06,166.0 149.16,167.41 C 149.25,168.53 149.31,169.72 149.72,170.84 L 149.34,171.16 C 148.92,170.1 148.69,168.96 148.56,167.81 C 148.32,165.7 148.14,163.59 148.09,161.41 C 148.02,160.01 147.97,158.6 147.94,157.25 C 147.92,156.55 147.91,155.87 147.91,155.22 z M 151.13,155.22 C 151.44,155.22 151.75,155.22 152.09,155.22 C 152.09,155.87 152.08,156.55 152.06,157.25 C 152.03,158.6 151.98,160.01 151.91,161.41 C 151.81,163.24 151.69,165.36 151.5,167.34 C 151.45,167.85 151.37,168.33 151.28,168.88 C 151.21,169.24 151.17,169.62 151.06,170.0 C 150.95,170.35 150.85,170.79 150.66,171.16 C 150.53,171.05 150.41,170.95 150.28,170.84 C 150.41,170.51 150.49,170.15 150.56,169.78 C 150.65,169.37 150.73,168.92 150.78,168.47 C 150.82,168.13 150.82,167.77 150.84,167.41 C 150.94,166.0 151.02,164.44 151.06,162.84 C 151.11,161.16 151.15,159.44 151.16,157.81 C 151.16,156.92 151.14,156.04 151.13,155.22 z" />

		<!-- Text -->
		<text id="txtTwo" dy="2.8" transform="matrix(1 0 0 1 150 150)" style="stroke:none;fill:#f00;font-family:'Eras Medium ITC';font-size:10px;text-anchor:middle" >

		</text>
		<!-- Prism Reference -->
		<cam mingh:cam="--verb EditSelectAll --verb SelectionUnGroup --verb EditDeselect  --verb EditSelectAll --verb ZoomSelection --verb FileSave  "/> 
	 </g>

</svg>