<svg
   xmlns:xlink="http://www.w3.org/1999/xlink"
   xmlns:svg="http://www.w3.org/2000/svg"
   xmlns="http://www.w3.org/2000/svg"
   xmlns:mingh="http://www.minghworld.com"
   width="300px"
   height="300px" >
    
	 <g>
		<!-- Paths -->
		<path id="shape" transform="matrix(-1 0 0 1 300 0)" style="fill:#ff0;stroke:none;"
			d="M 150.09,128.5 C 148.61,128.46 147.14,129.25 146.38,130.75 C 145.74,132.0 145.78,133.48 146.5,134.69 C 146.58,134.83 146.68,134.96 146.78,135.09 C 146.85,135.18 147.02,135.35 147.0,135.5 C 146.98,135.71 146.8,135.76 146.63,135.72 C 146.46,135.68 146.29,135.66 146.13,135.63 C 145.45,135.5 144.78,135.4 144.09,135.34 C 141.5,135.14 138.42,135.55 136.13,137.0 C 134.91,137.77 134.08,138.71 133.38,139.94 C 132.67,141.15 132.25,142.38 132.0,143.75 C 131.51,146.44 131.88,149.34 132.69,151.91 C 134.3,157.06 137.98,161.77 142.0,165.16 C 146.01,168.53 151.38,171.31 156.84,171.47 C 159.57,171.55 162.34,171.02 164.53,169.16 C 166.68,167.33 167.81,164.75 168.13,162.03 C 168.76,156.61 166.01,150.86 162.94,146.84 C 161.26,144.64 159.38,142.73 157.22,141.0 C 156.15,140.14 155.02,139.36 153.84,138.66 C 153.25,138.31 152.68,137.96 152.06,137.66 C 151.75,137.5 151.44,137.36 151.13,137.22 C 151.04,137.18 150.75,137.06 150.69,136.97 C 150.59,136.81 150.66,136.6 150.84,136.56 C 153.78,135.93 155.06,132.46 153.22,130.09 C 152.42,129.06 151.25,128.53 150.09,128.5 z M 149.78,130.66 C 150.28,130.61 150.8,130.75 151.22,131.09 C 152.05,131.77 152.18,132.98 151.5,133.81 C 150.82,134.65 149.58,134.77 148.75,134.09 C 147.92,133.41 147.79,132.18 148.47,131.34 C 148.81,130.93 149.29,130.71 149.78,130.66 z" />

		<!-- Text -->
		<text id="txtTwo" dy="2.8" transform="matrix(1 0 0 1 150 150)" style="stroke:none;fill:#f00;font-family:'Eras Medium ITC';font-size:10px;text-anchor:middle" >

		</text>
		<!-- Prism Reference -->
		<cam mingh:cam=" --verb EditSelectAll --verb ZoomSelection --verb FileSave"/> 
	 </g>

</svg>