<svg
   xmlns:xlink="http://www.w3.org/1999/xlink"
   xmlns:svg="http://www.w3.org/2000/svg"
   xmlns="http://www.w3.org/2000/svg"
   xmlns:mingh="http://www.minghworld.com"
   width="300px"
   height="300px" >
    
	 <g>
		<!-- Paths -->
		<path id="shape" transform="matrix(-1 0 0 1 300 0)" style="fill:#ff0;stroke:none;"
			d="M 147.78,129.56 C 147.38,129.58 146.9,129.82 146.47,130.0 C 145.15,130.54 144.25,130.66 143.59,130.97 C 143.05,131.22 142.67,131.62 142.5,132.28 C 142.31,133.02 142.38,134.11 142.63,134.97 C 142.78,135.52 143.01,135.98 143.38,136.47 C 143.79,137.02 144.37,137.61 144.97,138.19 C 146.6,139.48 147.62,140.77 148.47,142.41 C 148.46,142.41 148.45,142.41 148.44,142.41 C 148.43,142.4 148.42,142.42 148.41,142.41 C 148.14,142.16 147.85,141.91 147.53,141.69 C 147.21,141.47 146.86,141.27 146.5,141.09 C 145.79,140.74 145.0,140.47 144.19,140.28 C 143.16,140.05 142.1,139.94 141.03,139.97 C 139.97,140.0 138.91,140.17 137.94,140.44 C 136.17,140.92 134.65,141.74 133.5,142.81 C 132.58,143.67 131.9,144.69 131.44,145.81 C 130.0,149.26 130.71,153.88 132.03,157.78 C 133.26,161.41 134.98,164.39 137.03,166.5 C 137.91,167.41 138.86,168.15 140.28,168.91 C 140.89,169.23 141.58,169.55 142.31,169.75 C 143.65,170.11 145.11,170.02 146.31,169.84 C 147.19,169.71 147.91,169.55 148.59,169.38 C 149.41,169.16 150.13,168.95 150.84,169.09 C 151.44,169.21 152.03,169.57 152.84,169.84 C 153.79,170.16 155.01,170.38 156.0,170.44 C 156.87,170.49 157.56,170.41 158.28,170.16 C 160.34,169.43 162.77,167.17 164.56,164.84 C 166.52,162.3 167.73,159.67 168.5,156.97 C 169.07,154.99 169.41,152.97 169.38,150.94 C 169.35,149.39 169.11,147.84 168.38,146.53 C 167.59,145.13 166.23,143.99 164.25,143.19 C 162.17,142.34 159.4,141.85 157.09,142.31 C 156.0,142.53 155.01,142.98 154.16,143.47 C 153.56,143.81 153.08,144.16 152.63,144.5 L 152.63,144.44 C 153.15,142.44 155.16,142.26 157.22,141.56 C 158.96,140.98 160.69,140.17 161.88,139.13 C 162.73,138.37 163.32,137.49 163.78,136.53 C 164.24,135.57 164.55,134.53 164.69,133.31 C 164.73,132.98 164.77,132.64 164.72,132.44 C 164.69,132.34 164.64,132.27 164.59,132.22 C 164.46,132.07 164.29,132.06 164.09,132.16 C 163.87,132.26 163.62,132.49 163.25,132.72 C 162.79,133.0 162.19,133.29 161.53,133.47 C 160.13,133.84 158.53,133.81 156.81,134.19 C 156.12,134.34 155.43,134.53 154.75,134.81 C 154.29,134.18 153.64,133.65 152.91,133.28 C 152.18,132.91 151.34,132.7 150.53,132.69 C 149.72,132.68 148.93,132.86 148.19,133.22 C 147.45,133.58 146.79,134.13 146.31,134.75 C 146.22,134.3 146.37,133.18 146.94,132.22 C 147.29,131.62 147.81,131.08 148.22,130.47 C 148.38,130.23 148.53,130.0 148.41,129.81 C 148.36,129.74 148.25,129.67 148.16,129.63 C 148.04,129.58 147.92,129.56 147.78,129.56 z M 162.91,134.59 C 162.71,135.24 162.45,135.64 161.97,136.06 C 161.3,136.65 160.2,137.25 159.19,137.69 C 158.18,138.12 157.27,138.38 156.41,138.69 C 155.82,138.9 155.23,139.15 154.69,139.47 C 154.07,139.84 153.48,140.28 153.0,140.84 C 152.69,141.21 152.43,141.6 152.22,142.06 C 152.16,142.2 152.08,142.36 152.03,142.5 L 151.97,142.34 C 152.18,141.51 152.54,140.7 152.88,140.16 C 153.06,139.85 153.25,139.61 153.53,139.34 C 153.85,139.05 154.28,138.72 154.88,138.47 C 155.49,138.21 156.04,138.06 156.66,137.88 C 157.88,137.52 159.45,137.12 160.56,136.59 C 161.04,136.37 161.42,136.11 161.78,135.81 C 162.2,135.46 162.61,135.05 162.91,134.59 z M 150.34,135.09 C 150.63,135.08 150.91,135.12 151.19,135.19 C 151.75,135.33 152.27,135.63 152.63,136.03 C 151.53,136.92 150.9,138.08 150.53,139.5 C 150.42,139.93 150.34,140.37 150.31,140.91 C 150.31,140.93 150.28,140.96 150.25,140.97 C 150.24,140.97 150.23,140.98 150.22,140.97 C 150.21,140.97 150.19,140.97 150.19,140.97 C 150.18,140.96 150.19,140.94 150.19,140.94 C 150.13,140.84 150.09,140.75 150.03,140.66 C 149.98,140.56 149.91,140.5 149.84,140.41 C 149.72,140.22 149.59,140.03 149.44,139.84 C 148.92,139.24 148.19,138.62 147.59,137.88 C 147.61,137.34 147.82,136.75 148.16,136.28 C 148.49,135.81 148.97,135.47 149.5,135.28 C 149.77,135.18 150.06,135.11 150.34,135.09 z" />

		<!-- Text -->
		<text id="txtTwo" dy="2.8" transform="matrix(1 0 0 1 150 150)" style="stroke:none;fill:#f00;font-family:'Eras Medium ITC';font-size:10px;text-anchor:middle" >

		</text>
		<!-- Prism Reference -->
		<cam mingh:cam=" --verb EditSelectAll --verb ZoomSelection --verb FileSave"/> 
	 </g>

</svg>