<svg
   xmlns:xlink="http://www.w3.org/1999/xlink"
   xmlns:svg="http://www.w3.org/2000/svg"
   xmlns="http://www.w3.org/2000/svg"
   xmlns:mingh="http://www.minghworld.com"
   width="300px"
   height="300px" >
   
	 <g>	
		<!-- Shape -->
		<path id="shape" style="fill:none;stroke:#000;stroke-width:0.25px;"
			d="M 149.97,127.56 C 149.28,127.57 148.56,127.76 147.91,128.16 C 145.26,129.74 145.25,133.58 147.91,135.16 C 147.98,135.2 148.03,135.29 148.0,135.38 C 147.96,135.48 147.87,135.49 147.78,135.5 C 147.62,135.52 147.47,135.54 147.31,135.56 C 146.99,135.61 146.69,135.66 146.38,135.72 C 145.72,135.85 145.07,136.02 144.44,136.22 C 143.1,136.64 141.86,137.17 140.66,137.88 C 138.14,139.34 135.99,141.4 134.41,143.84 C 131.32,148.63 130.61,154.55 132.47,159.94 C 134.32,165.32 138.55,169.54 143.94,171.41 C 149.32,173.27 155.24,172.55 160.03,169.47 C 164.82,166.38 167.94,161.27 168.47,155.59 C 169.0,149.92 166.89,144.36 162.75,140.44 C 160.65,138.45 158.11,136.99 155.34,136.16 C 154.7,135.96 154.07,135.78 153.41,135.66 C 153.08,135.6 152.76,135.54 152.44,135.5 C 152.32,135.49 152.03,135.52 152.0,135.34 C 151.97,135.18 152.23,135.06 152.31,135.0 C 153.48,134.19 154.15,132.83 154.06,131.41 C 153.93,129.12 152.03,127.54 149.97,127.56 z M 150.0,129.69 C 151.08,129.69 151.94,130.58 151.94,131.66 C 151.94,132.73 151.08,133.59 150.0,133.59 C 148.92,133.59 148.06,132.73 148.06,131.66 C 148.06,130.58 148.92,129.69 150.0,129.69 z" />
			
		<path id="shape" style="fill:#f00;stroke:none;"
			d="M 136.2,161.55 C 136.94,160.57 137.38,159.06 137.61,157.91 C 137.74,157.26 137.83,156.61 137.89,155.96 C 137.92,155.65 137.94,155.33 137.96,155.02 C 137.96,154.98 137.96,154.94 137.96,154.9 C 137.96,154.86 138.0,154.89 138.02,154.89 C 138.04,154.89 138.06,154.89 138.08,154.89 C 138.17,154.89 138.26,154.89 138.34,154.89 C 138.37,154.89 138.39,154.89 138.41,154.89 C 138.44,154.89 138.43,154.91 138.43,154.93 C 138.43,154.97 138.43,155.02 138.42,155.06 C 138.42,155.14 138.41,155.23 138.41,155.31 C 138.33,156.63 138.17,157.92 137.84,159.2 C 137.67,159.84 137.47,160.46 137.19,161.06 C 137.06,161.33 136.93,161.6 136.77,161.85 C 136.73,161.91 136.69,161.96 136.66,162.02 C 136.64,162.05 136.62,162.07 136.6,162.1 C 136.59,162.11 136.58,162.12 136.57,162.14 C 136.56,162.16 136.54,162.13 136.54,162.12 C 136.42,161.93 136.31,161.74 136.2,161.55 z M 138.45,143.13 C 139.61,143.54 141.19,143.49 142.35,143.35 C 143.0,143.27 143.65,143.15 144.29,143.01 C 144.6,142.94 144.9,142.87 145.21,142.78 C 145.25,142.77 145.28,142.76 145.32,142.75 C 145.36,142.74 145.34,142.78 145.35,142.8 C 145.36,142.82 145.36,142.84 145.37,142.86 C 145.4,142.95 145.42,143.03 145.45,143.11 C 145.46,143.13 145.46,143.16 145.47,143.18 C 145.48,143.2 145.45,143.2 145.44,143.21 C 145.4,143.22 145.35,143.23 145.31,143.24 C 145.23,143.26 145.15,143.28 145.07,143.31 C 143.79,143.64 142.51,143.88 141.19,143.96 C 140.53,144.0 139.88,144.0 139.23,143.92 C 138.93,143.89 138.63,143.84 138.34,143.76 C 138.27,143.75 138.21,143.73 138.15,143.71 C 138.12,143.7 138.09,143.69 138.06,143.68 C 138.04,143.68 138.03,143.67 138.01,143.67 C 137.98,143.66 138.01,143.64 138.02,143.63 C 138.16,143.46 138.3,143.29 138.45,143.13 z M 136.56,145.63 C 137.31,146.62 137.74,148.1 137.99,149.27 C 138.13,149.91 138.23,150.55 138.31,151.21 C 138.34,151.53 138.37,151.85 138.39,152.18 C 138.4,152.34 138.41,152.49 138.42,152.65 C 138.42,152.69 138.43,152.73 138.43,152.77 C 138.43,152.8 138.43,152.82 138.43,152.84 C 138.43,152.85 138.43,152.86 138.43,152.87 C 138.43,152.88 138.45,152.89 138.43,152.89 C 138.34,152.89 138.25,152.89 138.16,152.89 C 138.11,152.89 138.06,152.89 138.01,152.89 C 137.99,152.89 137.97,152.9 137.96,152.87 C 137.96,152.85 137.96,152.83 137.96,152.81 C 137.96,152.73 137.95,152.65 137.95,152.57 C 137.94,152.41 137.93,152.25 137.92,152.09 C 137.89,151.77 137.86,151.45 137.82,151.12 C 137.73,150.47 137.61,149.83 137.46,149.19 C 137.3,148.55 137.11,147.93 136.83,147.33 C 136.71,147.05 136.58,146.79 136.41,146.54 C 136.38,146.49 136.34,146.43 136.3,146.38 C 136.28,146.35 136.26,146.32 136.24,146.3 C 136.22,146.27 136.19,146.25 136.21,146.21 C 136.32,146.02 136.44,145.82 136.56,145.63 z M 133.51,145.74 C 133.78,145.32 134.17,144.88 134.68,144.72 C 134.71,144.71 134.73,144.7 134.76,144.69 C 134.77,144.69 134.81,144.67 134.8,144.69 C 134.77,144.73 134.75,144.76 134.73,144.8 C 134.64,144.95 134.55,145.1 134.46,145.26 C 134.43,145.31 134.43,145.38 134.35,145.4 C 134.33,145.41 134.3,145.42 134.28,145.43 C 134.23,145.45 134.18,145.48 134.13,145.51 C 134.02,145.56 133.93,145.63 133.84,145.71 C 133.42,146.08 133.18,146.53 132.95,147.01 C 132.94,147.03 132.93,147.05 132.92,147.07 C 132.91,147.08 132.9,147.12 132.9,147.1 C 132.91,147.08 132.92,147.06 132.92,147.05 C 132.95,146.98 132.98,146.92 133.0,146.85 C 133.06,146.72 133.11,146.59 133.17,146.46 C 133.28,146.22 133.39,145.98 133.51,145.74 z M 136.54,142.28 C 136.48,141.78 136.75,141.27 137.02,140.9 C 137.17,140.69 137.35,140.53 137.54,140.36 C 137.72,140.19 137.91,140.02 138.1,139.86 C 138.1,139.86 138.12,139.84 138.11,139.85 C 138.11,139.86 138.1,139.86 138.09,139.87 C 138.08,139.88 138.07,139.89 138.06,139.9 C 138.04,139.93 138.01,139.95 137.99,139.97 C 137.95,140.02 137.9,140.06 137.86,140.11 C 137.78,140.2 137.7,140.29 137.63,140.38 C 137.48,140.58 137.34,140.78 137.24,141.01 C 137.19,141.13 137.15,141.24 137.12,141.37 C 137.11,141.42 137.1,141.48 137.09,141.53 C 137.09,141.56 137.09,141.59 137.09,141.61 C 137.09,141.63 137.09,141.64 137.09,141.65 C 137.09,141.69 137.06,141.7 137.04,141.72 C 136.87,141.91 136.7,142.09 136.54,142.28 z M 136.04,142.9 C 135.81,143.2 135.58,143.51 135.36,143.82 C 135.33,143.87 135.27,144.01 135.19,144.03 C 135.15,144.03 135.12,144.04 135.08,144.05 C 135.0,144.07 134.93,144.1 134.86,144.13 C 134.7,144.21 134.55,144.31 134.42,144.42 C 134.3,144.52 134.2,144.63 134.1,144.74 C 134.04,144.81 133.99,144.87 133.94,144.94 C 133.92,144.96 133.91,144.98 133.9,145.0 C 133.88,145.02 133.91,144.97 133.92,144.95 C 133.93,144.93 133.94,144.91 133.95,144.9 C 133.99,144.82 134.04,144.75 134.08,144.68 C 134.27,144.34 134.47,144.02 134.69,143.7 C 135.11,143.06 135.58,142.45 136.08,141.86 C 136.17,141.76 136.26,141.66 136.35,141.56 C 136.39,141.51 136.44,141.46 136.49,141.41 C 136.5,141.4 136.51,141.38 136.52,141.37 C 136.53,141.36 136.51,141.38 136.51,141.39 C 136.5,141.41 136.49,141.42 136.48,141.44 C 136.4,141.55 136.33,141.67 136.27,141.79 C 136.09,142.12 135.96,142.5 136.04,142.9 z M 145.81,144.22 C 143.5,145.22 141.62,147.02 140.52,149.29 C 139.96,150.45 139.63,151.6 139.51,152.88 C 139.51,152.92 139.42,152.89 139.4,152.89 C 139.36,152.89 139.32,152.89 139.28,152.89 C 139.2,152.89 139.12,152.89 139.03,152.89 C 138.99,152.89 138.95,152.89 138.91,152.89 C 138.89,152.89 138.87,152.9 138.87,152.87 C 138.87,152.85 138.87,152.84 138.87,152.82 C 138.87,152.74 138.86,152.66 138.86,152.58 C 138.84,152.28 138.82,151.98 138.8,151.67 C 138.75,151.05 138.67,150.43 138.57,149.82 C 138.36,148.58 138.09,147.38 137.57,146.22 C 137.45,145.95 137.31,145.68 137.15,145.42 C 137.08,145.31 137.01,145.2 136.93,145.09 C 136.91,145.07 136.98,144.99 136.99,144.97 C 137.02,144.93 137.05,144.89 137.08,144.85 C 137.13,144.77 137.19,144.68 137.25,144.6 C 137.31,144.52 137.37,144.44 137.43,144.36 C 137.46,144.32 137.49,144.28 137.52,144.24 C 137.54,144.22 137.55,144.2 137.57,144.18 C 137.58,144.16 137.6,144.18 137.61,144.19 C 137.73,144.22 137.86,144.26 137.98,144.29 C 138.27,144.35 138.56,144.4 138.85,144.43 C 140.12,144.57 141.34,144.47 142.58,144.28 C 143.2,144.18 143.81,144.06 144.42,143.92 C 144.73,143.85 145.04,143.77 145.34,143.69 C 145.42,143.67 145.49,143.65 145.57,143.63 C 145.58,143.62 145.61,143.59 145.62,143.62 C 145.62,143.64 145.63,143.66 145.63,143.68 C 145.65,143.71 145.66,143.75 145.67,143.79 C 145.72,143.93 145.76,144.08 145.81,144.22 z M 140.1,152.28 C 140.39,150.49 141.16,148.81 142.33,147.42 C 142.93,146.72 143.58,146.12 144.34,145.61 C 144.73,145.34 145.13,145.11 145.55,144.9 C 145.65,144.85 145.75,144.8 145.86,144.75 C 145.89,144.74 145.91,144.73 145.94,144.72 C 145.95,144.71 145.96,144.69 145.97,144.71 C 145.98,144.73 145.98,144.74 145.98,144.75 C 146.0,144.8 146.02,144.85 146.03,144.9 C 146.06,145.0 146.1,145.1 146.13,145.2 C 146.13,145.21 146.14,145.22 146.14,145.24 C 146.14,145.25 146.17,145.26 146.15,145.27 C 146.13,145.28 146.1,145.29 146.08,145.31 C 146.03,145.33 145.98,145.35 145.93,145.37 C 144.29,146.16 142.91,147.4 141.96,148.95 C 141.47,149.74 141.13,150.55 140.89,151.43 C 140.77,151.86 140.69,152.28 140.63,152.72 C 140.63,152.77 140.62,152.83 140.62,152.88 C 140.61,152.91 140.55,152.89 140.54,152.89 C 140.51,152.89 140.48,152.89 140.45,152.89 C 140.33,152.89 140.21,152.89 140.09,152.89 C 140.07,152.89 140.01,152.91 140.02,152.88 C 140.02,152.85 140.02,152.82 140.03,152.79 C 140.03,152.74 140.04,152.68 140.05,152.62 C 140.06,152.51 140.08,152.39 140.1,152.28 z M 145.41,162.81 C 143.79,161.98 142.43,160.73 141.47,159.18 C 140.99,158.4 140.63,157.6 140.37,156.72 C 140.24,156.27 140.14,155.81 140.07,155.35 C 140.06,155.23 140.04,155.12 140.03,155.0 C 140.03,154.98 140.02,154.95 140.02,154.92 C 140.02,154.91 140.01,154.89 140.03,154.89 C 140.04,154.89 140.05,154.89 140.07,154.89 C 140.12,154.89 140.17,154.89 140.22,154.89 C 140.33,154.89 140.43,154.89 140.54,154.89 C 140.55,154.89 140.56,154.89 140.58,154.89 C 140.59,154.89 140.61,154.86 140.61,154.89 C 140.62,154.92 140.62,154.94 140.62,154.97 C 140.63,155.02 140.64,155.08 140.64,155.13 C 140.88,156.94 141.64,158.63 142.82,160.02 C 143.41,160.72 144.08,161.3 144.85,161.8 C 145.21,162.04 145.59,162.25 145.99,162.44 C 146.04,162.46 146.09,162.48 146.14,162.51 C 146.17,162.52 146.13,162.57 146.13,162.58 C 146.12,162.61 146.11,162.64 146.1,162.67 C 146.07,162.78 146.03,162.89 145.99,163.01 C 145.99,163.02 145.99,163.09 145.96,163.07 C 145.93,163.06 145.9,163.05 145.88,163.04 C 145.82,163.01 145.77,162.99 145.72,162.96 C 145.61,162.92 145.51,162.86 145.41,162.81 z M 139.51,154.89 C 139.75,157.4 140.88,159.74 142.7,161.49 C 143.62,162.38 144.62,163.04 145.8,163.55 C 145.83,163.57 145.78,163.64 145.78,163.66 C 145.77,163.7 145.75,163.74 145.74,163.78 C 145.72,163.86 145.69,163.93 145.66,164.01 C 145.65,164.05 145.64,164.09 145.63,164.13 C 145.62,164.15 145.62,164.17 145.59,164.16 C 145.58,164.16 145.56,164.15 145.54,164.15 C 145.46,164.12 145.39,164.1 145.32,164.08 C 145.02,164.01 144.73,163.93 144.43,163.86 C 143.82,163.71 143.21,163.6 142.6,163.5 C 141.35,163.32 140.13,163.21 138.87,163.35 C 138.57,163.38 138.27,163.42 137.98,163.5 C 137.85,163.53 137.72,163.56 137.59,163.61 C 137.56,163.61 137.51,163.52 137.5,163.51 C 137.47,163.47 137.44,163.43 137.41,163.39 C 137.35,163.31 137.29,163.23 137.23,163.15 C 137.17,163.07 137.11,162.98 137.05,162.9 C 137.02,162.86 137.0,162.82 136.97,162.78 C 136.95,162.76 136.94,162.74 136.92,162.71 C 136.91,162.69 136.93,162.69 136.94,162.67 C 137.02,162.57 137.09,162.46 137.15,162.35 C 137.31,162.1 137.44,161.84 137.56,161.57 C 138.08,160.41 138.37,159.22 138.57,157.97 C 138.67,157.36 138.74,156.74 138.79,156.11 C 138.82,155.8 138.84,155.48 138.86,155.17 C 138.86,155.09 138.86,155.01 138.87,154.93 C 138.87,154.92 138.85,154.89 138.88,154.89 C 138.9,154.89 138.92,154.89 138.94,154.89 C 138.98,154.89 139.01,154.89 139.05,154.89 C 139.2,154.89 139.36,154.89 139.51,154.89 z M 135.23,163.77 C 135.45,164.09 135.67,164.4 135.9,164.7 C 135.94,164.75 136.05,164.85 136.04,164.93 C 136.04,164.97 136.03,165.0 136.03,165.04 C 136.03,165.12 136.03,165.2 136.04,165.28 C 136.06,165.45 136.11,165.62 136.18,165.78 C 136.24,165.93 136.31,166.06 136.39,166.19 C 136.43,166.26 136.48,166.33 136.53,166.4 C 136.54,166.42 136.55,166.44 136.56,166.46 C 136.58,166.48 136.54,166.43 136.53,166.42 C 136.52,166.41 136.5,166.39 136.49,166.37 C 136.43,166.31 136.37,166.25 136.32,166.19 C 136.06,165.9 135.81,165.61 135.57,165.31 C 135.09,164.7 134.66,164.07 134.26,163.41 C 134.19,163.3 134.12,163.18 134.05,163.06 C 134.02,163.0 133.99,162.95 133.95,162.89 C 133.94,162.87 133.94,162.86 133.93,162.84 C 133.92,162.83 133.94,162.85 133.94,162.86 C 133.95,162.87 133.96,162.89 133.98,162.9 C 134.06,163.01 134.15,163.12 134.25,163.21 C 134.51,163.48 134.83,163.73 135.23,163.77 z M 134.8,163.1 C 134.31,163.01 133.91,162.59 133.63,162.22 C 133.48,162.02 133.38,161.79 133.28,161.56 C 133.18,161.34 133.08,161.11 132.98,160.88 C 132.98,160.87 132.97,160.85 132.98,160.86 C 132.98,160.87 132.98,160.88 132.99,160.88 C 132.99,160.9 133.0,160.91 133.01,160.93 C 133.02,160.96 133.04,160.98 133.05,161.01 C 133.08,161.07 133.11,161.12 133.14,161.18 C 133.2,161.28 133.26,161.38 133.33,161.48 C 133.47,161.69 133.62,161.88 133.81,162.05 C 133.9,162.13 134.0,162.21 134.11,162.27 C 134.16,162.3 134.21,162.33 134.26,162.35 C 134.28,162.36 134.31,162.37 134.33,162.38 C 134.35,162.38 134.36,162.39 134.37,162.39 C 134.41,162.4 134.41,162.43 134.42,162.46 C 134.55,162.68 134.67,162.89 134.8,163.1 z M 137.15,167.06 C 136.84,166.67 136.54,166.17 136.54,165.63 C 136.54,165.6 136.54,165.57 136.54,165.54 C 136.54,165.53 136.53,165.49 136.55,165.51 C 136.58,165.54 136.61,165.57 136.64,165.61 C 136.75,165.74 136.87,165.87 136.99,166.0 C 137.03,166.05 137.09,166.07 137.09,166.15 C 137.09,166.18 137.09,166.2 137.1,166.23 C 137.1,166.29 137.11,166.34 137.12,166.39 C 137.14,166.51 137.18,166.62 137.23,166.73 C 137.45,167.25 137.8,167.61 138.19,167.99 C 138.2,168.0 138.22,168.02 138.23,168.03 C 138.24,168.04 138.27,168.07 138.26,168.05 C 138.24,168.04 138.23,168.03 138.22,168.02 C 138.16,167.97 138.11,167.93 138.05,167.88 C 137.94,167.79 137.84,167.69 137.73,167.6 C 137.53,167.42 137.34,167.24 137.15,167.06 z M 137.99,164.12 C 139.17,163.72 140.71,163.76 141.89,163.88 C 142.55,163.95 143.19,164.05 143.84,164.18 C 144.15,164.25 144.47,164.32 144.78,164.4 C 144.94,164.44 145.09,164.48 145.25,164.52 C 145.29,164.53 145.32,164.54 145.36,164.55 C 145.38,164.56 145.4,164.56 145.42,164.57 C 145.43,164.57 145.44,164.57 145.45,164.58 C 145.46,164.58 145.48,164.57 145.48,164.59 C 145.45,164.67 145.42,164.76 145.39,164.85 C 145.38,164.89 145.36,164.94 145.35,164.99 C 145.34,165.01 145.34,165.03 145.31,165.02 C 145.29,165.02 145.27,165.01 145.25,165.01 C 145.17,164.99 145.1,164.97 145.02,164.95 C 144.87,164.91 144.71,164.87 144.56,164.83 C 144.24,164.75 143.92,164.68 143.6,164.62 C 142.96,164.5 142.31,164.42 141.65,164.37 C 141.0,164.32 140.35,164.31 139.69,164.38 C 139.39,164.42 139.1,164.46 138.81,164.54 C 138.75,164.56 138.69,164.58 138.62,164.6 C 138.59,164.61 138.56,164.62 138.53,164.63 C 138.5,164.64 138.47,164.67 138.43,164.63 C 138.28,164.47 138.14,164.3 137.99,164.12 z M 157.07,161.02 C 155.78,162.3 154.16,163.2 152.4,163.63 C 151.51,163.85 150.63,163.95 149.71,163.92 C 149.24,163.91 148.78,163.86 148.32,163.78 C 148.21,163.76 148.09,163.74 147.98,163.72 C 147.95,163.71 147.92,163.71 147.89,163.7 C 147.88,163.7 147.86,163.7 147.87,163.68 C 147.87,163.67 147.87,163.66 147.88,163.65 C 147.89,163.6 147.91,163.55 147.93,163.5 C 147.96,163.4 147.99,163.3 148.02,163.2 C 148.03,163.19 148.03,163.17 148.04,163.16 C 148.04,163.15 148.02,163.12 148.05,163.13 C 148.08,163.13 148.1,163.14 148.13,163.14 C 148.18,163.15 148.24,163.16 148.29,163.17 C 150.08,163.5 151.93,163.31 153.61,162.62 C 154.46,162.26 155.21,161.81 155.93,161.24 C 156.27,160.96 156.59,160.67 156.89,160.35 C 156.93,160.31 156.96,160.27 157.0,160.23 C 157.02,160.2 157.06,160.25 157.07,160.26 C 157.09,160.28 157.12,160.29 157.14,160.31 C 157.24,160.38 157.34,160.45 157.43,160.52 C 157.45,160.53 157.51,160.55 157.48,160.58 C 157.46,160.6 157.44,160.62 157.42,160.64 C 157.39,160.68 157.35,160.73 157.31,160.77 C 157.23,160.85 157.15,160.94 157.07,161.02 z M 147.71,164.18 C 150.17,164.73 152.75,164.37 154.97,163.18 C 156.1,162.58 157.04,161.83 157.89,160.88 C 157.92,160.85 157.97,160.91 157.99,160.93 C 158.02,160.95 158.06,160.97 158.09,161.0 C 158.15,161.05 158.22,161.09 158.29,161.14 C 158.32,161.17 158.35,161.19 158.39,161.21 C 158.4,161.23 158.42,161.23 158.41,161.26 C 158.4,161.27 158.39,161.29 158.37,161.3 C 158.33,161.37 158.29,161.43 158.25,161.5 C 158.08,161.75 157.92,162.01 157.76,162.27 C 157.43,162.8 157.13,163.35 156.85,163.9 C 156.29,165.03 155.81,166.16 155.55,167.4 C 155.49,167.7 155.44,167.99 155.42,168.29 C 155.41,168.43 155.4,168.56 155.4,168.7 C 155.4,168.73 155.3,168.75 155.28,168.75 C 155.24,168.77 155.19,168.79 155.14,168.8 C 155.05,168.84 154.95,168.87 154.86,168.9 C 154.76,168.93 154.66,168.96 154.57,168.99 C 154.52,169.0 154.47,169.02 154.42,169.03 C 154.4,169.04 154.38,169.05 154.35,169.05 C 154.33,169.06 154.33,169.04 154.32,169.02 C 154.24,168.92 154.16,168.82 154.08,168.72 C 153.88,168.5 153.68,168.3 153.46,168.1 C 152.52,167.24 151.47,166.6 150.35,166.03 C 149.79,165.74 149.23,165.48 148.65,165.24 C 148.36,165.11 148.07,165.0 147.77,164.88 C 147.7,164.86 147.63,164.83 147.55,164.8 C 147.54,164.8 147.5,164.8 147.51,164.77 C 147.52,164.76 147.52,164.74 147.53,164.72 C 147.54,164.68 147.55,164.65 147.56,164.61 C 147.61,164.47 147.66,164.32 147.71,164.18 z M 154.83,170.99 C 155.2,170.88 155.56,170.77 155.93,170.64 C 155.98,170.62 156.11,170.54 156.18,170.58 C 156.22,170.59 156.25,170.61 156.29,170.62 C 156.36,170.65 156.44,170.67 156.51,170.69 C 156.69,170.72 156.86,170.73 157.04,170.71 C 157.19,170.7 157.34,170.67 157.49,170.64 C 157.57,170.62 157.65,170.6 157.74,170.57 C 157.76,170.57 157.78,170.56 157.8,170.55 C 157.83,170.54 157.77,170.57 157.75,170.57 C 157.73,170.58 157.72,170.59 157.7,170.6 C 157.62,170.64 157.54,170.67 157.47,170.71 C 157.11,170.86 156.76,171.01 156.4,171.14 C 155.68,171.41 154.94,171.63 154.19,171.8 C 154.06,171.84 153.93,171.86 153.8,171.89 C 153.73,171.91 153.66,171.92 153.6,171.93 C 153.58,171.94 153.56,171.94 153.55,171.94 C 153.53,171.95 153.56,171.94 153.57,171.94 C 153.59,171.93 153.6,171.92 153.62,171.92 C 153.75,171.87 153.87,171.82 154.0,171.76 C 154.33,171.59 154.67,171.36 154.83,170.99 z M 154.07,171.19 C 153.82,171.63 153.3,171.89 152.87,172.03 C 152.62,172.11 152.38,172.14 152.13,172.16 C 151.88,172.19 151.63,172.22 151.38,172.24 C 151.38,172.24 151.36,172.24 151.37,172.24 C 151.38,172.24 151.38,172.23 151.39,172.23 C 151.41,172.23 151.42,172.23 151.44,172.23 C 151.47,172.22 151.51,172.22 151.54,172.21 C 151.6,172.2 151.66,172.19 151.72,172.18 C 151.84,172.15 151.95,172.12 152.07,172.09 C 152.31,172.02 152.54,171.94 152.76,171.81 C 152.87,171.75 152.97,171.68 153.06,171.6 C 153.1,171.56 153.14,171.52 153.18,171.48 C 153.2,171.46 153.21,171.44 153.23,171.41 C 153.24,171.4 153.25,171.39 153.26,171.38 C 153.28,171.35 153.31,171.36 153.34,171.35 C 153.58,171.3 153.82,171.25 154.07,171.19 z M 158.55,170.18 C 158.09,170.36 157.51,170.49 157.0,170.32 C 156.98,170.31 156.95,170.3 156.92,170.29 C 156.91,170.29 156.87,170.28 156.89,170.27 C 156.93,170.26 156.97,170.24 157.01,170.22 C 157.18,170.15 157.34,170.08 157.5,170.01 C 157.55,169.99 157.59,169.93 157.67,169.96 C 157.7,169.96 157.72,169.97 157.75,169.98 C 157.8,169.99 157.86,170.0 157.91,170.0 C 158.03,170.02 158.15,170.02 158.27,170.01 C 158.82,169.96 159.28,169.74 159.75,169.48 C 159.77,169.47 159.79,169.46 159.81,169.45 C 159.82,169.45 159.86,169.43 159.84,169.44 C 159.82,169.45 159.81,169.46 159.79,169.46 C 159.73,169.5 159.67,169.54 159.61,169.58 C 159.49,169.65 159.37,169.72 159.25,169.8 C 159.02,169.93 158.79,170.06 158.55,170.18 z M 156.02,168.48 C 156.0,167.23 156.52,165.78 157.0,164.69 C 157.26,164.09 157.56,163.51 157.88,162.93 C 158.04,162.65 158.21,162.37 158.38,162.1 C 158.47,161.97 158.55,161.83 158.64,161.7 C 158.66,161.66 158.68,161.63 158.71,161.6 C 158.72,161.58 158.73,161.56 158.74,161.54 C 158.75,161.54 158.75,161.53 158.76,161.52 C 158.76,161.51 158.76,161.49 158.77,161.5 C 158.85,161.55 158.92,161.6 159.0,161.66 C 159.04,161.69 159.08,161.72 159.12,161.75 C 159.13,161.76 159.15,161.77 159.14,161.79 C 159.13,161.81 159.12,161.83 159.1,161.84 C 159.06,161.91 159.02,161.98 158.98,162.04 C 158.89,162.18 158.8,162.31 158.72,162.45 C 158.55,162.73 158.39,163.01 158.23,163.29 C 157.92,163.87 157.63,164.46 157.39,165.07 C 157.14,165.68 156.93,166.29 156.79,166.94 C 156.73,167.23 156.69,167.52 156.67,167.82 C 156.67,167.89 156.67,167.95 156.67,168.02 C 156.67,168.05 156.67,168.09 156.67,168.12 C 156.67,168.15 156.69,168.19 156.64,168.21 C 156.44,168.3 156.23,168.39 156.02,168.48 z M 153.02,169.38 C 152.32,168.38 151.02,167.49 149.99,166.92 C 149.42,166.6 148.83,166.31 148.23,166.05 C 147.94,165.93 147.64,165.81 147.35,165.69 C 147.31,165.68 147.28,165.67 147.24,165.65 C 147.21,165.64 147.24,165.62 147.24,165.6 C 147.25,165.58 147.26,165.56 147.26,165.54 C 147.29,165.45 147.32,165.37 147.35,165.28 C 147.35,165.26 147.36,165.24 147.37,165.22 C 147.38,165.19 147.4,165.21 147.41,165.22 C 147.45,165.23 147.49,165.25 147.53,165.26 C 147.61,165.29 147.69,165.32 147.77,165.35 C 149.0,165.84 150.17,166.39 151.29,167.1 C 151.85,167.46 152.37,167.84 152.86,168.29 C 153.08,168.49 153.29,168.71 153.48,168.94 C 153.52,168.99 153.57,169.04 153.61,169.1 C 153.63,169.12 153.64,169.15 153.66,169.17 C 153.67,169.18 153.68,169.2 153.69,169.21 C 153.71,169.23 153.68,169.23 153.66,169.24 C 153.45,169.29 153.24,169.34 153.02,169.38 z M 158.96,149.37 C 159.78,151.0 160.14,152.81 160.01,154.62 C 159.94,155.54 159.76,156.4 159.45,157.27 C 159.29,157.71 159.11,158.13 158.89,158.55 C 158.84,158.65 158.78,158.75 158.72,158.85 C 158.71,158.88 158.69,158.9 158.68,158.93 C 158.67,158.94 158.67,158.96 158.65,158.95 C 158.64,158.94 158.63,158.93 158.62,158.92 C 158.58,158.89 158.54,158.86 158.5,158.83 C 158.41,158.77 158.33,158.71 158.24,158.65 C 158.23,158.64 158.22,158.63 158.21,158.62 C 158.2,158.62 158.17,158.62 158.18,158.6 C 158.19,158.58 158.21,158.55 158.22,158.53 C 158.25,158.48 158.28,158.44 158.3,158.39 C 159.17,156.79 159.55,154.97 159.41,153.16 C 159.34,152.24 159.15,151.38 158.82,150.52 C 158.66,150.11 158.48,149.72 158.27,149.33 C 158.24,149.29 158.21,149.24 158.19,149.19 C 158.17,149.17 158.23,149.14 158.24,149.14 C 158.27,149.12 158.29,149.1 158.31,149.08 C 158.41,149.01 158.51,148.94 158.6,148.87 C 158.62,148.86 158.65,148.81 158.67,148.84 C 158.69,148.87 158.7,148.89 158.71,148.92 C 158.74,148.97 158.77,149.02 158.8,149.07 C 158.86,149.17 158.91,149.27 158.96,149.37 z M 159.07,159.25 C 160.36,157.08 160.82,154.52 160.37,152.04 C 160.15,150.78 159.73,149.65 159.08,148.54 C 159.06,148.51 159.14,148.48 159.16,148.47 C 159.19,148.44 159.23,148.42 159.26,148.4 C 159.33,148.35 159.39,148.3 159.46,148.25 C 159.49,148.23 159.52,148.2 159.56,148.18 C 159.57,148.17 159.59,148.15 159.6,148.17 C 159.61,148.19 159.63,148.2 159.64,148.22 C 159.69,148.28 159.73,148.34 159.78,148.4 C 159.97,148.64 160.17,148.87 160.37,149.1 C 160.77,149.58 161.2,150.03 161.64,150.47 C 162.54,151.35 163.46,152.15 164.57,152.79 C 164.83,152.94 165.09,153.07 165.37,153.19 C 165.5,153.24 165.62,153.29 165.75,153.33 C 165.78,153.34 165.77,153.44 165.77,153.46 C 165.77,153.51 165.77,153.56 165.77,153.61 C 165.77,153.71 165.77,153.81 165.77,153.91 C 165.77,154.01 165.77,154.11 165.77,154.21 C 165.77,154.26 165.77,154.31 165.77,154.36 C 165.77,154.39 165.77,154.41 165.77,154.44 C 165.76,154.46 165.74,154.46 165.73,154.46 C 165.61,154.5 165.49,154.55 165.37,154.6 C 165.1,154.71 164.84,154.85 164.58,154.99 C 163.48,155.62 162.54,156.42 161.65,157.31 C 161.21,157.75 160.78,158.21 160.37,158.68 C 160.17,158.92 159.97,159.16 159.77,159.41 C 159.72,159.47 159.67,159.53 159.62,159.59 C 159.61,159.6 159.61,159.64 159.58,159.62 C 159.57,159.61 159.55,159.6 159.54,159.59 C 159.51,159.57 159.47,159.54 159.44,159.52 C 159.32,159.43 159.2,159.34 159.07,159.25 z M 167.75,154.58 C 167.77,154.2 167.77,153.82 167.76,153.43 C 167.76,153.37 167.72,153.22 167.78,153.17 C 167.81,153.14 167.83,153.11 167.86,153.08 C 167.91,153.02 167.95,152.96 167.99,152.89 C 168.07,152.73 168.13,152.57 168.17,152.39 C 168.21,152.25 168.23,152.1 168.24,151.94 C 168.25,151.86 168.25,151.77 168.26,151.69 C 168.26,151.67 168.26,151.64 168.26,151.62 C 168.26,151.59 168.26,151.66 168.26,151.67 C 168.27,151.69 168.27,151.71 168.27,151.74 C 168.28,151.82 168.29,151.9 168.3,151.99 C 168.34,152.37 168.37,152.75 168.38,153.14 C 168.41,153.91 168.4,154.67 168.33,155.44 C 168.32,155.58 168.31,155.71 168.29,155.84 C 168.29,155.91 168.28,155.98 168.27,156.05 C 168.27,156.06 168.27,156.08 168.27,156.1 C 168.26,156.11 168.26,156.08 168.26,156.07 C 168.26,156.06 168.26,156.04 168.26,156.02 C 168.26,155.88 168.25,155.75 168.23,155.61 C 168.17,155.24 168.06,154.85 167.75,154.58 z M 167.71,155.37 C 168.05,155.74 168.14,156.31 168.14,156.77 C 168.14,157.03 168.09,157.27 168.04,157.51 C 167.99,157.76 167.93,158.0 167.88,158.24 C 167.87,158.25 167.87,158.27 167.87,158.26 C 167.87,158.25 167.87,158.24 167.88,158.24 C 167.88,158.22 167.88,158.2 167.88,158.19 C 167.89,158.16 167.89,158.12 167.9,158.09 C 167.91,158.03 167.92,157.97 167.92,157.9 C 167.94,157.79 167.95,157.67 167.95,157.55 C 167.96,157.3 167.95,157.05 167.9,156.81 C 167.87,156.68 167.83,156.57 167.78,156.45 C 167.76,156.4 167.74,156.35 167.71,156.3 C 167.69,156.28 167.68,156.26 167.66,156.23 C 167.66,156.22 167.65,156.21 167.64,156.2 C 167.62,156.17 167.64,156.15 167.64,156.12 C 167.67,155.87 167.69,155.62 167.71,155.37 z M 168.13,150.79 C 168.16,151.29 168.11,151.88 167.79,152.31 C 167.77,152.33 167.76,152.35 167.74,152.38 C 167.73,152.38 167.71,152.43 167.71,152.4 C 167.71,152.36 167.7,152.31 167.7,152.27 C 167.68,152.09 167.67,151.92 167.65,151.74 C 167.64,151.68 167.6,151.63 167.65,151.56 C 167.66,151.54 167.68,151.52 167.69,151.49 C 167.72,151.45 167.75,151.4 167.77,151.35 C 167.82,151.24 167.86,151.12 167.88,151.01 C 168.01,150.47 167.94,149.96 167.84,149.43 C 167.84,149.41 167.84,149.39 167.83,149.37 C 167.83,149.36 167.82,149.32 167.83,149.34 C 167.83,149.35 167.83,149.37 167.84,149.39 C 167.86,149.46 167.87,149.53 167.89,149.6 C 167.92,149.73 167.95,149.87 167.98,150.01 C 168.04,150.27 168.09,150.53 168.13,150.79 z M 165.73,152.67 C 164.54,152.31 163.32,151.37 162.43,150.57 C 161.94,150.14 161.48,149.67 161.04,149.19 C 160.82,148.95 160.61,148.71 160.4,148.46 C 160.3,148.33 160.2,148.21 160.09,148.09 C 160.07,148.06 160.04,148.02 160.02,147.99 C 160.01,147.98 159.99,147.96 159.98,147.94 C 159.97,147.94 159.97,147.93 159.96,147.92 C 159.96,147.91 159.93,147.91 159.95,147.9 C 160.02,147.84 160.09,147.79 160.17,147.74 C 160.21,147.71 160.25,147.68 160.29,147.65 C 160.3,147.64 160.32,147.62 160.34,147.64 C 160.35,147.66 160.36,147.67 160.38,147.69 C 160.43,147.75 160.48,147.81 160.53,147.88 C 160.63,148.0 160.73,148.12 160.83,148.24 C 161.04,148.49 161.26,148.73 161.48,148.97 C 161.94,149.44 162.41,149.9 162.91,150.32 C 163.42,150.75 163.94,151.14 164.51,151.46 C 164.77,151.61 165.03,151.74 165.31,151.85 C 165.37,151.87 165.44,151.9 165.5,151.92 C 165.53,151.93 165.56,151.94 165.59,151.95 C 165.62,151.96 165.67,151.95 165.67,152.0 C 165.7,152.22 165.72,152.45 165.73,152.67 z M 165.67,155.81 C 164.49,156.16 163.25,157.12 162.39,157.92 C 161.9,158.37 161.45,158.84 161.02,159.34 C 160.81,159.57 160.6,159.81 160.41,160.06 C 160.38,160.09 160.36,160.12 160.33,160.15 C 160.31,160.18 160.3,160.14 160.28,160.13 C 160.26,160.12 160.25,160.1 160.23,160.09 C 160.16,160.04 160.09,159.99 160.02,159.94 C 160.0,159.92 159.98,159.91 159.96,159.9 C 159.94,159.88 159.96,159.87 159.97,159.85 C 160.0,159.82 160.03,159.79 160.05,159.75 C 160.11,159.69 160.16,159.62 160.21,159.56 C 161.05,158.53 161.94,157.59 162.96,156.75 C 163.47,156.33 164.0,155.95 164.58,155.62 C 164.84,155.48 165.11,155.34 165.39,155.23 C 165.45,155.21 165.51,155.18 165.57,155.16 C 165.61,155.15 165.64,155.14 165.67,155.13 C 165.68,155.12 165.7,155.12 165.71,155.12 C 165.74,155.11 165.73,155.13 165.73,155.15 C 165.71,155.37 165.69,155.59 165.67,155.81 z M 148.47,143.97 C 150.27,143.7 152.11,143.91 153.79,144.6 C 154.64,144.95 155.4,145.39 156.13,145.95 C 156.5,146.23 156.85,146.54 157.17,146.88 C 157.26,146.96 157.34,147.04 157.41,147.13 C 157.43,147.15 157.45,147.17 157.47,147.19 C 157.48,147.2 157.5,147.21 157.48,147.22 C 157.47,147.23 157.46,147.24 157.45,147.25 C 157.41,147.28 157.37,147.31 157.33,147.34 C 157.24,147.4 157.16,147.46 157.07,147.52 C 157.06,147.53 157.05,147.54 157.04,147.55 C 157.03,147.55 157.03,147.58 157.01,147.57 C 156.99,147.55 156.97,147.53 156.95,147.51 C 156.92,147.47 156.88,147.43 156.84,147.39 C 155.59,146.07 153.98,145.14 152.21,144.71 C 151.32,144.5 150.44,144.42 149.52,144.46 C 149.08,144.49 148.65,144.54 148.22,144.62 C 148.17,144.63 148.11,144.64 148.06,144.65 C 148.03,144.66 148.03,144.6 148.02,144.58 C 148.02,144.56 148.01,144.53 148.0,144.5 C 147.96,144.39 147.92,144.27 147.89,144.16 C 147.88,144.14 147.84,144.09 147.88,144.08 C 147.91,144.08 147.93,144.07 147.96,144.07 C 148.02,144.05 148.08,144.04 148.13,144.03 C 148.25,144.01 148.36,143.99 148.47,143.97 z M 157.9,146.92 C 156.23,145.03 153.94,143.8 151.44,143.45 C 150.17,143.28 148.97,143.33 147.72,143.6 C 147.68,143.61 147.68,143.52 147.67,143.5 C 147.66,143.46 147.65,143.43 147.64,143.39 C 147.61,143.31 147.59,143.23 147.56,143.15 C 147.55,143.12 147.53,143.08 147.52,143.04 C 147.52,143.02 147.5,143.0 147.53,142.99 C 147.55,142.99 147.57,142.98 147.58,142.97 C 147.66,142.95 147.73,142.92 147.8,142.89 C 148.08,142.78 148.37,142.67 148.65,142.55 C 149.23,142.31 149.79,142.05 150.34,141.76 C 151.46,141.18 152.51,140.55 153.45,139.7 C 153.68,139.5 153.89,139.28 154.08,139.05 C 154.17,138.95 154.25,138.85 154.33,138.74 C 154.35,138.71 154.45,138.76 154.46,138.76 C 154.51,138.78 154.56,138.79 154.61,138.8 C 154.7,138.83 154.8,138.86 154.89,138.9 C 154.99,138.93 155.09,138.96 155.18,138.99 C 155.23,139.01 155.27,139.02 155.32,139.04 C 155.35,139.05 155.37,139.06 155.39,139.07 C 155.42,139.08 155.4,139.09 155.4,139.11 C 155.4,139.24 155.41,139.37 155.42,139.5 C 155.45,139.79 155.49,140.08 155.55,140.37 C 155.81,141.61 156.28,142.74 156.85,143.87 C 157.13,144.43 157.44,144.97 157.76,145.51 C 157.92,145.78 158.09,146.04 158.26,146.31 C 158.31,146.37 158.35,146.44 158.39,146.5 C 158.4,146.52 158.44,146.53 158.41,146.55 C 158.4,146.56 158.38,146.57 158.36,146.58 C 158.33,146.6 158.3,146.63 158.27,146.65 C 158.15,146.74 158.03,146.83 157.9,146.92 z M 156.15,137.22 C 155.78,137.09 155.42,136.97 155.05,136.86 C 155.0,136.84 154.84,136.83 154.81,136.76 C 154.79,136.72 154.77,136.69 154.75,136.66 C 154.71,136.59 154.66,136.53 154.6,136.48 C 154.48,136.34 154.34,136.24 154.19,136.14 C 154.06,136.07 153.93,136.0 153.79,135.94 C 153.71,135.91 153.63,135.88 153.55,135.85 C 153.53,135.84 153.51,135.83 153.48,135.83 C 153.45,135.82 153.52,135.83 153.53,135.84 C 153.56,135.84 153.58,135.84 153.6,135.85 C 153.68,135.87 153.76,135.88 153.84,135.9 C 154.22,135.98 154.59,136.07 154.96,136.18 C 155.71,136.38 156.43,136.64 157.14,136.94 C 157.26,136.99 157.39,137.04 157.51,137.1 C 157.57,137.12 157.63,137.15 157.7,137.18 C 157.71,137.19 157.73,137.19 157.74,137.2 C 157.76,137.21 157.73,137.2 157.72,137.2 C 157.7,137.19 157.69,137.19 157.67,137.18 C 157.54,137.14 157.4,137.11 157.27,137.09 C 156.9,137.03 156.49,137.02 156.15,137.22 z M 156.88,137.51 C 157.34,137.29 157.91,137.39 158.35,137.53 C 158.59,137.61 158.8,137.73 159.02,137.86 C 159.24,137.98 159.45,138.11 159.66,138.24 C 159.67,138.24 159.69,138.25 159.68,138.25 C 159.67,138.24 159.66,138.24 159.66,138.23 C 159.64,138.23 159.63,138.22 159.61,138.21 C 159.58,138.2 159.55,138.18 159.53,138.17 C 159.47,138.14 159.41,138.11 159.36,138.09 C 159.25,138.04 159.14,137.99 159.03,137.95 C 158.79,137.86 158.55,137.8 158.3,137.77 C 158.18,137.76 158.06,137.76 157.93,137.77 C 157.88,137.78 157.82,137.78 157.77,137.8 C 157.74,137.8 157.71,137.81 157.69,137.82 C 157.67,137.82 157.66,137.82 157.65,137.83 C 157.61,137.84 157.59,137.82 157.57,137.8 C 157.34,137.7 157.11,137.6 156.88,137.51 z M 152.66,135.69 C 153.14,135.82 153.68,136.05 153.99,136.48 C 154.01,136.51 154.02,136.53 154.04,136.55 C 154.05,136.57 154.08,136.59 154.06,136.59 C 154.01,136.58 153.97,136.57 153.93,136.56 C 153.76,136.52 153.58,136.48 153.41,136.44 C 153.35,136.43 153.29,136.45 153.24,136.39 C 153.22,136.37 153.2,136.34 153.19,136.32 C 153.15,136.28 153.11,136.24 153.07,136.2 C 152.98,136.12 152.89,136.06 152.78,135.99 C 152.31,135.71 151.81,135.62 151.27,135.54 C 151.25,135.54 151.23,135.54 151.21,135.54 C 151.2,135.53 151.16,135.53 151.18,135.53 C 151.2,135.53 151.21,135.53 151.23,135.54 C 151.3,135.54 151.37,135.55 151.44,135.55 C 151.59,135.56 151.73,135.57 151.87,135.59 C 152.13,135.62 152.4,135.65 152.66,135.69 z M 153.7,138.55 C 152.99,139.57 151.72,140.44 150.69,141.04 C 150.12,141.37 149.54,141.67 148.94,141.94 C 148.64,142.08 148.35,142.2 148.04,142.32 C 147.9,142.38 147.75,142.44 147.6,142.5 C 147.56,142.51 147.52,142.53 147.49,142.54 C 147.47,142.55 147.45,142.56 147.43,142.56 C 147.42,142.57 147.41,142.57 147.4,142.57 C 147.39,142.58 147.38,142.6 147.37,142.58 C 147.34,142.49 147.32,142.41 147.29,142.32 C 147.27,142.27 147.26,142.23 147.24,142.18 C 147.24,142.16 147.23,142.14 147.25,142.13 C 147.27,142.12 147.29,142.11 147.31,142.11 C 147.38,142.08 147.46,142.05 147.53,142.02 C 147.68,141.96 147.83,141.9 147.98,141.84 C 148.28,141.72 148.57,141.59 148.87,141.45 C 149.46,141.17 150.04,140.86 150.6,140.51 C 151.16,140.16 151.69,139.79 152.18,139.34 C 152.4,139.14 152.6,138.93 152.79,138.7 C 152.83,138.65 152.87,138.59 152.91,138.54 C 152.93,138.52 152.95,138.49 152.97,138.46 C 152.99,138.43 152.99,138.39 153.04,138.4 C 153.26,138.45 153.48,138.5 153.7,138.55 z M 156.67,139.58 C 156.64,140.81 157.17,142.29 157.66,143.36 C 157.94,143.96 158.25,144.53 158.58,145.1 C 158.74,145.37 158.91,145.64 159.08,145.9 C 159.1,145.93 159.13,145.97 159.15,146.0 C 159.17,146.03 159.13,146.03 159.11,146.04 C 159.09,146.05 159.08,146.07 159.06,146.08 C 158.99,146.13 158.92,146.18 158.84,146.23 C 158.83,146.25 158.81,146.26 158.79,146.27 C 158.77,146.29 158.76,146.26 158.75,146.25 C 158.73,146.21 158.7,146.18 158.68,146.14 C 158.63,146.07 158.59,146.0 158.54,145.93 C 157.83,144.82 157.21,143.68 156.72,142.44 C 156.48,141.83 156.28,141.21 156.15,140.56 C 156.09,140.27 156.05,139.97 156.03,139.67 C 156.03,139.6 156.02,139.54 156.02,139.47 C 156.02,139.44 156.02,139.41 156.02,139.38 C 156.02,139.36 156.02,139.34 156.02,139.33 C 156.02,139.3 156.04,139.32 156.06,139.32 C 156.26,139.4 156.46,139.49 156.67,139.58 z M 143.6,154.6 C 144.47,156.0 145.4,157.34 146.42,158.63 C 146.68,158.95 146.94,159.27 147.2,159.58 C 147.48,159.92 147.75,160.17 148.22,160.22 C 148.55,160.26 149.12,160.09 149.42,160.01 C 149.82,159.91 150.21,159.8 150.6,159.69 C 151.39,159.45 152.17,159.2 152.94,158.92 C 153.33,158.79 153.71,158.64 154.09,158.49 C 154.4,158.37 154.93,158.19 155.19,157.95 C 155.53,157.62 155.58,157.25 155.61,156.82 C 155.64,156.41 155.66,156.0 155.68,155.6 C 155.71,154.78 155.72,153.96 155.71,153.14 C 155.69,152.32 155.67,151.51 155.59,150.69 C 155.56,150.27 155.32,149.89 154.97,149.66 C 154.8,149.56 154.02,149.26 153.84,149.19 C 152.31,148.6 150.75,148.11 149.16,147.7 C 148.75,147.6 148.39,147.47 147.95,147.62 C 147.51,147.77 147.29,148.09 147.03,148.41 C 146.5,149.04 146.0,149.68 145.52,150.34 C 145.03,151.0 144.57,151.67 144.12,152.36 C 144.01,152.53 143.56,153.21 143.49,153.41 C 143.34,153.8 143.38,154.24 143.6,154.6 z M 144.4,140.76 C 143.56,140.72 142.73,140.71 141.9,140.76 C 141.05,140.82 140.26,140.89 139.49,141.36 C 138.42,142.02 136.84,144.09 136.19,145.1 C 135.84,145.63 135.24,146.67 135.0,147.27 C 134.84,147.67 134.75,148.07 134.74,148.5 C 134.73,148.93 134.8,149.33 134.89,149.75 C 135.08,150.56 135.32,151.36 135.6,152.15 C 135.75,152.54 135.85,152.92 136.22,153.21 C 136.6,153.5 136.98,153.49 137.41,153.49 C 138.24,153.49 139.08,153.49 139.91,153.49 C 140.33,153.49 140.75,153.49 141.17,153.49 C 141.59,153.49 141.98,153.51 142.38,153.28 C 142.78,153.06 142.96,152.7 143.18,152.35 C 143.41,152.0 143.63,151.65 143.87,151.3 C 144.33,150.61 144.82,149.93 145.33,149.26 C 145.58,148.93 145.84,148.6 146.11,148.27 C 146.19,148.17 146.82,147.42 146.89,147.3 C 147.1,146.93 147.16,146.5 147.04,146.09 C 146.93,145.69 146.79,145.3 146.66,144.9 C 146.4,144.11 146.14,143.31 145.89,142.52 C 145.81,142.29 145.6,141.57 145.46,141.36 C 145.22,141.0 144.83,140.78 144.4,140.76 z M 135.78,155.16 C 135.48,155.94 135.22,156.73 135.01,157.54 C 134.8,158.37 134.63,159.14 134.84,160.01 C 135.13,161.24 136.61,163.38 137.37,164.31 C 137.77,164.8 138.57,165.7 139.06,166.11 C 139.4,166.39 139.75,166.59 140.16,166.74 C 140.56,166.89 140.97,166.94 141.39,166.98 C 142.22,167.06 143.06,167.07 143.89,167.04 C 144.31,167.03 144.71,167.05 145.09,166.79 C 145.49,166.52 145.6,166.15 145.73,165.74 C 145.99,164.95 146.25,164.15 146.5,163.36 C 146.63,162.96 146.76,162.57 146.89,162.17 C 147.02,161.77 147.16,161.4 147.07,160.95 C 146.98,160.5 146.7,160.22 146.43,159.9 C 146.16,159.58 145.9,159.25 145.64,158.92 C 145.13,158.26 144.63,157.59 144.16,156.9 C 143.92,156.56 143.68,156.21 143.46,155.86 C 143.38,155.74 142.87,154.92 142.77,154.81 C 142.49,154.5 142.09,154.31 141.67,154.29 C 141.25,154.27 140.84,154.29 140.42,154.29 C 139.59,154.29 138.75,154.29 137.91,154.29 C 137.67,154.29 136.92,154.27 136.68,154.34 C 136.26,154.46 135.93,154.76 135.78,155.16 z M 146.81,167.81 C 147.46,168.33 148.13,168.83 148.84,169.27 C 149.56,169.73 150.24,170.13 151.14,170.2 C 152.4,170.3 154.89,169.56 156.0,169.13 C 156.6,168.89 157.7,168.41 158.24,168.07 C 158.61,167.84 158.91,167.56 159.18,167.22 C 159.44,166.88 159.62,166.51 159.79,166.12 C 160.12,165.35 160.39,164.57 160.62,163.77 C 160.74,163.36 160.88,162.99 160.75,162.54 C 160.62,162.09 160.3,161.87 159.95,161.61 C 159.28,161.12 158.6,160.63 157.93,160.14 C 157.59,159.9 157.25,159.65 156.91,159.41 C 156.57,159.16 156.27,158.91 155.81,158.86 C 155.35,158.81 155.0,158.99 154.61,159.15 C 154.22,159.3 153.83,159.45 153.44,159.59 C 152.65,159.88 151.86,160.14 151.06,160.38 C 150.66,160.5 150.25,160.62 149.85,160.72 C 149.71,160.76 148.78,161.0 148.64,161.05 C 148.26,161.22 147.95,161.54 147.81,161.94 C 147.66,162.33 147.55,162.73 147.42,163.13 C 147.16,163.92 146.9,164.71 146.65,165.51 C 146.57,165.74 146.32,166.45 146.31,166.7 C 146.29,167.13 146.48,167.54 146.81,167.81 z M 162.25,161.22 C 162.95,160.77 163.63,160.28 164.27,159.75 C 164.93,159.2 165.52,158.68 165.87,157.85 C 166.35,156.68 166.41,154.08 166.34,152.89 C 166.31,152.25 166.19,151.06 166.03,150.43 C 165.93,150.01 165.76,149.64 165.52,149.28 C 165.28,148.93 164.97,148.65 164.66,148.37 C 164.03,147.81 163.37,147.31 162.67,146.84 C 162.32,146.6 162.02,146.35 161.55,146.34 C 161.07,146.33 160.77,146.56 160.42,146.81 C 159.75,147.3 159.07,147.79 158.39,148.29 C 158.06,148.53 157.72,148.78 157.38,149.02 C 157.04,149.27 156.71,149.48 156.52,149.9 C 156.33,150.32 156.4,150.71 156.42,151.13 C 156.45,151.55 156.47,151.97 156.49,152.38 C 156.52,153.22 156.52,154.05 156.5,154.89 C 156.49,155.31 156.47,155.73 156.45,156.15 C 156.45,156.29 156.38,157.25 156.39,157.39 C 156.43,157.82 156.65,158.2 156.98,158.47 C 157.3,158.72 157.65,158.96 157.99,159.2 C 158.66,159.69 159.34,160.18 160.01,160.67 C 160.21,160.82 160.8,161.27 161.04,161.36 C 161.45,161.51 161.89,161.46 162.25,161.22 z M 160.76,144.5 C 160.54,143.7 160.29,142.91 159.98,142.13 C 159.67,141.34 159.35,140.61 158.67,140.03 C 157.71,139.21 155.25,138.34 154.1,138.04 C 153.48,137.87 152.31,137.62 151.67,137.58 C 151.23,137.55 150.83,137.59 150.41,137.71 C 150.0,137.83 149.64,138.03 149.27,138.24 C 148.55,138.67 147.87,139.15 147.21,139.66 C 146.88,139.92 146.55,140.13 146.39,140.57 C 146.23,141.02 146.36,141.38 146.49,141.79 C 146.75,142.59 147.0,143.38 147.26,144.18 C 147.39,144.57 147.52,144.97 147.65,145.37 C 147.78,145.77 147.88,146.15 148.22,146.46 C 148.56,146.76 148.95,146.83 149.36,146.93 C 149.76,147.03 150.17,147.14 150.57,147.26 C 151.37,147.49 152.17,147.74 152.96,148.02 C 153.35,148.16 153.75,148.3 154.14,148.45 C 154.27,148.5 155.17,148.86 155.31,148.89 C 155.72,148.99 156.16,148.9 156.51,148.67 C 156.85,148.44 157.18,148.18 157.52,147.94 C 158.19,147.45 158.87,146.96 159.54,146.46 C 159.74,146.32 160.36,145.9 160.52,145.7 C 160.78,145.36 160.87,144.92 160.76,144.5 z M 142.41,137.13 C 141.9,137.45 141.45,137.82 141.06,138.29 C 140.87,138.52 140.69,138.77 140.55,139.03 C 140.4,139.3 140.29,139.58 140.19,139.86 C 140.16,139.94 140.17,140.0 140.23,140.07 C 140.31,140.14 140.38,140.13 140.47,140.11 C 140.77,140.07 141.06,140.04 141.36,140.01 C 141.96,139.95 142.55,139.93 143.15,139.93 C 143.75,139.93 144.35,139.95 144.95,139.99 C 145.2,140.01 145.43,140.07 145.67,139.89 C 145.9,139.71 146.12,139.51 146.35,139.32 C 147.29,138.57 148.26,137.88 149.31,137.3 C 149.44,137.24 149.57,137.18 149.69,137.1 C 149.77,137.05 149.79,137.0 149.78,136.91 C 149.76,136.8 149.68,136.76 149.6,136.71 C 149.48,136.62 149.35,136.54 149.22,136.47 C 148.68,136.17 148.13,135.99 147.52,135.91 C 147.22,135.87 146.92,135.85 146.62,135.86 C 146.55,135.86 146.48,135.86 146.4,135.87 C 146.36,135.87 146.33,135.87 146.29,135.87 C 146.26,135.88 146.32,135.87 146.34,135.86 C 146.35,135.86 146.37,135.86 146.39,135.85 C 146.53,135.82 146.67,135.8 146.81,135.77 C 147.08,135.73 147.34,135.67 147.62,135.68 C 147.8,135.68 147.99,135.69 148.17,135.7 C 148.65,135.75 149.08,135.89 149.52,136.08 C 149.73,136.17 149.92,136.27 150.11,136.39 C 150.21,136.45 150.3,136.51 150.39,136.57 C 150.54,136.68 150.67,136.81 150.85,136.87 C 150.93,136.89 151.65,136.97 151.73,136.98 C 152.02,137.01 152.31,137.05 152.6,137.1 C 153.19,137.2 153.76,137.33 154.33,137.48 C 155.49,137.79 156.59,138.2 157.66,138.73 C 157.92,138.86 158.19,138.99 158.45,139.14 C 158.7,139.28 158.94,139.44 159.21,139.57 C 159.41,139.68 159.61,139.65 159.81,139.65 C 159.92,139.65 160.03,139.65 160.14,139.66 C 160.58,139.69 161.0,139.78 161.42,139.92 C 161.63,139.99 161.85,140.08 162.05,140.19 C 162.19,140.26 162.33,140.35 162.46,140.44 C 162.55,140.5 162.64,140.56 162.72,140.62 C 162.84,140.7 162.94,140.81 163.04,140.91 C 163.15,141.02 163.26,141.13 163.36,141.24 C 163.41,141.3 163.47,141.36 163.52,141.41 C 163.53,141.43 163.55,141.44 163.56,141.46 C 163.57,141.46 163.57,141.47 163.58,141.48 C 163.58,141.48 163.61,141.51 163.6,141.5 C 163.57,141.47 163.54,141.45 163.51,141.43 C 163.29,141.24 163.05,141.07 162.8,140.92 C 162.28,140.62 161.75,140.41 161.16,140.3 C 160.88,140.24 160.59,140.21 160.3,140.22 C 160.21,140.23 160.16,140.26 160.13,140.34 C 160.08,140.43 160.12,140.5 160.16,140.58 C 160.42,141.11 160.65,141.64 160.86,142.19 C 161.06,142.74 161.24,143.29 161.41,143.85 C 161.49,144.14 161.56,144.42 161.63,144.7 C 161.67,144.84 161.7,144.98 161.74,145.12 C 161.77,145.23 161.83,145.31 161.91,145.39 C 162.0,145.46 162.53,145.79 162.62,145.85 C 162.86,146.01 163.1,146.17 163.34,146.33 C 163.82,146.67 164.29,147.02 164.74,147.39 C 164.97,147.57 165.19,147.76 165.4,147.96 C 165.51,148.06 165.61,148.16 165.72,148.26 C 165.79,148.33 165.84,148.43 165.96,148.45 C 166.2,148.49 166.23,148.17 166.27,148.02 C 166.35,147.74 166.39,147.45 166.41,147.16 C 166.44,146.56 166.37,146.0 166.21,145.42 C 166.17,145.28 166.12,145.14 166.07,145.01 C 166.05,144.94 166.02,144.87 165.99,144.8 C 165.99,144.8 165.99,144.8 165.99,144.79 C 165.99,144.78 165.99,144.8 166.0,144.8 C 166.0,144.81 166.0,144.82 166.01,144.83 C 166.02,144.84 166.03,144.86 166.04,144.88 C 166.06,144.91 166.07,144.94 166.09,144.97 C 166.24,145.24 166.38,145.5 166.51,145.77 C 166.6,145.96 166.64,146.16 166.69,146.36 C 166.73,146.51 166.76,146.65 166.78,146.79 C 166.81,147.01 166.82,147.23 166.81,147.46 C 166.81,147.9 166.76,148.32 166.64,148.75 C 166.61,148.85 166.58,148.95 166.54,149.06 C 166.42,149.4 166.44,149.47 166.52,149.82 C 166.65,150.4 166.75,150.97 166.82,151.56 C 166.97,152.74 167.01,153.91 166.93,155.1 C 166.89,155.69 166.83,156.28 166.73,156.86 C 166.69,157.15 166.63,157.44 166.57,157.73 C 166.51,158.01 166.39,158.27 166.49,158.59 C 166.67,159.13 166.75,159.36 166.8,159.94 C 166.84,160.43 166.82,160.89 166.71,161.37 C 166.66,161.57 166.6,161.76 166.54,161.95 C 166.5,162.05 166.17,162.67 166.12,162.76 C 166.08,162.83 166.04,162.9 166.0,162.97 C 166.0,162.97 165.99,162.98 165.99,162.99 C 165.98,163.01 166.0,162.98 166.0,162.97 C 166.01,162.95 166.01,162.93 166.02,162.92 C 166.03,162.88 166.05,162.85 166.06,162.81 C 166.11,162.67 166.16,162.53 166.2,162.39 C 166.28,162.1 166.34,161.81 166.38,161.51 C 166.45,160.9 166.43,160.33 166.27,159.73 C 166.22,159.58 166.18,159.27 165.94,159.34 C 165.84,159.37 165.75,159.49 165.68,159.56 C 165.57,159.66 165.46,159.76 165.35,159.86 C 164.46,160.67 163.51,161.37 162.5,162.01 C 162.35,162.1 161.95,162.33 161.83,162.48 C 161.72,162.64 161.64,163.08 161.59,163.25 C 161.44,163.83 161.27,164.4 161.08,164.97 C 160.89,165.53 160.68,166.09 160.43,166.63 C 160.37,166.77 160.31,166.9 160.24,167.04 C 160.2,167.12 160.11,167.26 160.11,167.36 C 160.11,167.61 160.4,167.56 160.56,167.56 C 161.18,167.53 161.74,167.38 162.3,167.12 C 162.57,166.99 162.83,166.85 163.07,166.68 C 163.2,166.6 163.32,166.51 163.43,166.42 C 163.46,166.4 163.49,166.37 163.52,166.35 C 163.54,166.34 163.55,166.32 163.56,166.31 C 163.57,166.31 163.58,166.3 163.59,166.29 C 163.59,166.29 163.59,166.29 163.6,166.29 C 163.6,166.28 163.59,166.29 163.59,166.3 C 163.53,166.35 163.48,166.41 163.43,166.47 C 163.19,166.72 162.97,166.98 162.69,167.19 C 162.52,167.31 162.34,167.43 162.16,167.54 C 161.92,167.68 161.66,167.78 161.4,167.87 C 160.91,168.03 160.43,168.12 159.91,168.13 C 159.72,168.14 159.52,168.1 159.32,168.16 C 159.16,168.22 159.02,168.32 158.88,168.4 C 158.73,168.49 158.58,168.57 158.43,168.66 C 157.83,168.99 157.21,169.28 156.57,169.54 C 155.28,170.07 153.98,170.45 152.6,170.68 C 152.27,170.74 151.93,170.78 151.59,170.82 C 151.32,170.85 150.86,170.85 150.61,171.04 C 150.4,171.21 150.18,171.36 149.95,171.49 C 149.49,171.74 149.03,171.92 148.52,172.03 C 148.36,172.06 148.2,172.08 148.04,172.09 C 147.8,172.11 147.56,172.13 147.32,172.09 C 147.0,172.04 146.68,171.99 146.36,171.92 C 146.34,171.92 146.32,171.92 146.3,171.91 C 146.27,171.91 146.32,171.91 146.34,171.91 C 146.38,171.92 146.42,171.92 146.47,171.92 C 146.55,171.92 146.63,171.93 146.72,171.93 C 146.89,171.93 147.06,171.92 147.23,171.91 C 147.93,171.85 148.56,171.68 149.18,171.34 C 149.33,171.26 149.47,171.17 149.61,171.07 C 149.7,171.01 149.79,170.97 149.78,170.83 C 149.77,170.7 149.68,170.67 149.59,170.63 C 149.44,170.55 149.29,170.47 149.14,170.38 C 148.11,169.8 147.17,169.12 146.25,168.38 C 146.17,168.31 145.69,167.9 145.6,167.85 C 145.49,167.79 145.4,167.76 145.28,167.77 C 145.14,167.77 144.99,167.79 144.85,167.8 C 144.26,167.83 143.68,167.86 143.09,167.85 C 142.5,167.85 141.92,167.83 141.33,167.77 C 141.04,167.74 140.75,167.71 140.46,167.67 C 140.29,167.64 140.12,167.74 140.19,167.92 C 140.29,168.2 140.39,168.47 140.54,168.74 C 140.68,168.99 140.85,169.23 141.04,169.46 C 141.42,169.93 141.85,170.3 142.36,170.62 C 142.37,170.63 142.39,170.63 142.4,170.64 C 142.41,170.65 142.41,170.65 142.41,170.65 C 142.42,170.66 142.41,170.65 142.4,170.65 C 142.39,170.64 142.39,170.64 142.38,170.63 C 142.34,170.62 142.31,170.6 142.27,170.59 C 142.21,170.56 142.14,170.52 142.07,170.49 C 141.93,170.43 141.8,170.36 141.67,170.29 C 141.54,170.23 141.41,170.17 141.3,170.08 C 141.21,170.02 141.13,169.96 141.05,169.89 C 140.82,169.72 140.62,169.53 140.44,169.31 C 140.15,168.97 139.92,168.62 139.72,168.22 C 139.63,168.02 139.55,167.82 139.48,167.61 C 139.42,167.4 139.37,167.2 139.19,167.04 C 138.97,166.84 138.75,166.65 138.54,166.44 C 137.67,165.62 136.89,164.73 136.2,163.76 C 135.5,162.78 134.91,161.76 134.41,160.67 C 134.34,160.52 134.13,160.01 134.01,159.88 C 133.9,159.76 133.75,159.69 133.62,159.6 C 133.45,159.46 133.28,159.32 133.13,159.17 C 132.81,158.85 132.54,158.51 132.32,158.13 C 132.16,157.85 132.05,157.57 131.95,157.27 C 131.86,157.02 131.83,156.76 131.79,156.5 C 131.77,156.36 131.75,156.22 131.73,156.08 C 131.73,156.05 131.73,156.01 131.72,155.98 C 131.72,155.96 131.72,155.94 131.72,155.93 C 131.71,155.91 131.72,155.94 131.72,155.95 C 131.72,155.96 131.73,155.97 131.73,155.98 C 131.75,156.05 131.77,156.12 131.79,156.19 C 131.95,156.77 132.19,157.29 132.54,157.78 C 132.71,158.03 132.9,158.25 133.11,158.46 C 133.2,158.55 133.56,158.91 133.72,158.93 C 133.97,158.96 133.96,158.65 133.99,158.49 C 134.04,158.2 134.1,157.92 134.17,157.63 C 134.31,157.06 134.47,156.49 134.66,155.93 C 134.84,155.37 135.05,154.82 135.27,154.28 C 135.39,153.98 135.43,153.89 135.3,153.58 C 135.19,153.31 135.08,153.03 134.98,152.76 C 134.56,151.65 134.22,150.53 134.0,149.37 C 133.99,149.28 133.97,149.03 133.92,148.95 C 133.86,148.86 133.8,148.83 133.69,148.86 C 133.52,148.91 133.08,149.35 132.97,149.46 C 132.49,149.98 132.16,150.54 131.92,151.2 C 131.86,151.36 131.81,151.52 131.76,151.68 C 131.75,151.72 131.74,151.76 131.73,151.8 C 131.73,151.82 131.71,151.88 131.72,151.85 C 131.72,151.83 131.72,151.81 131.72,151.79 C 131.73,151.71 131.74,151.63 131.75,151.55 C 131.79,151.23 131.81,150.92 131.91,150.61 C 132.03,150.26 132.15,149.93 132.35,149.61 C 132.61,149.17 132.93,148.79 133.31,148.44 C 133.41,148.36 133.5,148.28 133.6,148.2 C 133.76,148.08 133.93,148.0 134.06,147.84 C 134.12,147.77 134.46,147.0 134.49,146.92 C 134.64,146.61 134.8,146.3 134.96,146.0 C 135.62,144.78 136.4,143.66 137.31,142.61 C 137.77,142.09 138.25,141.6 138.75,141.14 C 138.88,141.02 139.01,140.91 139.14,140.79 C 139.27,140.68 139.37,140.56 139.42,140.38 C 139.47,140.25 139.5,140.11 139.55,139.97 C 139.73,139.49 139.98,139.06 140.29,138.65 C 140.47,138.42 140.66,138.21 140.88,138.02 C 141.07,137.86 141.25,137.71 141.47,137.59 C 141.78,137.43 142.1,137.27 142.41,137.13 z" />
			
		<!-- Prism Reference -->
		<cam mingh:cam="--verb EditSelectAll --verb ZoomSelection --verb FileSave" />  
	 </g>

</svg>
