<svg
   xmlns:xlink="http://www.w3.org/1999/xlink"
   xmlns:svg="http://www.w3.org/2000/svg"
   xmlns="http://www.w3.org/2000/svg"
   xmlns:mingh="http://www.minghworld.com"
   width="300px"
   height="300px" >
    
	 <g>
		<!-- Paths -->
		<path id="shape" transform="matrix(-1 0 0 1 300 0)" style="fill:#ff0;stroke:none;"
			d="M 149.97,127.56 C 149.28,127.57 148.56,127.76 147.91,128.16 C 145.26,129.74 145.25,133.58 147.91,135.16 C 147.98,135.2 148.03,135.29 148.0,135.38 C 147.96,135.48 147.87,135.49 147.78,135.5 C 147.62,135.52 147.47,135.54 147.31,135.56 C 146.99,135.61 146.69,135.66 146.38,135.72 C 145.72,135.85 145.07,136.02 144.44,136.22 C 143.1,136.64 141.86,137.17 140.66,137.88 C 138.14,139.34 135.99,141.4 134.41,143.84 C 131.32,148.63 130.61,154.55 132.47,159.94 C 134.32,165.32 138.55,169.54 143.94,171.41 C 149.32,173.27 155.24,172.55 160.03,169.47 C 164.82,166.38 167.94,161.27 168.47,155.59 C 169.0,149.92 166.89,144.36 162.75,140.44 C 160.65,138.45 158.11,136.99 155.34,136.16 C 154.7,135.96 154.07,135.78 153.41,135.66 C 153.08,135.6 152.76,135.54 152.44,135.5 C 152.32,135.49 152.03,135.52 152.0,135.34 C 151.97,135.18 152.23,135.06 152.31,135.0 C 153.48,134.19 154.15,132.83 154.06,131.41 C 153.93,129.12 152.03,127.54 149.97,127.56 z M 150.0,129.69 C 151.08,129.69 151.94,130.58 151.94,131.66 C 151.94,132.73 151.08,133.59 150.0,133.59 C 148.92,133.59 148.06,132.73 148.06,131.66 C 148.06,130.58 148.92,129.69 150.0,129.69 z" />

		<!-- Text -->
		<text id="txtTwo" dy="2.8" transform="matrix(1 0 0 1 150 150)" style="stroke:none;fill:#f00;font-family:'Eras Medium ITC';font-size:10px;text-anchor:middle" >

		</text>
		<!-- Prism Reference -->
		<cam mingh:cam=" --verb EditSelectAll --verb ZoomSelection --verb FileSave "/> 
	 </g>

</svg>