<svg
   xmlns:xlink="http://www.w3.org/1999/xlink"
   xmlns:svg="http://www.w3.org/2000/svg"
   xmlns="http://www.w3.org/2000/svg"
   xmlns:mingh="http://www.minghworld.com"
   width="300px"
   height="300px" >
	 <g>
		
		<!-- Paths -->
		<path transform="matrix(-1 0 0 1 300 0)" style="fill:#ff0;stroke:none;"
		 d="M 149.5 122.38 C 148.0 122.52 146.66 123.59 146.16 125.0 C 145.52 126.63 146.12 128.65 147.53 129.69 C 146.95 129.61 146.44 130.02 146.16 130.5 C 146.07 130.64 146.01 130.77 145.91 130.94 C 145.63 130.94 145.35 131.03 145.13 131.19 C 144.72 131.46 144.51 131.95 144.56 132.44 C 144.06 132.22 143.53 132.01 143.03 131.78 C 142.11 131.3 141.13 130.91 140.25 130.34 C 139.73 130.04 139.33 129.59 139.03 129.06 C 138.9 128.67 138.42 128.32 138.03 128.63 C 137.58 129.08 137.35 129.72 137.22 130.34 C 136.86 131.78 137.26 133.38 138.28 134.47 C 138.57 134.82 138.99 135.02 139.38 135.25 C 139.3 135.36 139.2 135.45 139.13 135.56 C 137.5 137.94 136.53 140.88 136.91 143.78 C 137.2 145.5 137.77 147.25 138.97 148.56 C 139.07 148.65 139.13 148.73 139.19 148.78 C 139.25 148.84 139.26 148.92 139.28 149.0 C 139.29 149.18 139.21 149.38 139.06 149.47 C 138.87 149.5 138.67 149.57 138.5 149.66 C 138.12 149.84 137.87 150.21 137.94 150.69 C 137.94 150.69 137.51 150.68 137.28 150.78 C 136.95 150.94 136.67 151.29 136.56 151.63 C 136.5 151.79 136.61 151.96 136.63 152.13 C 136.63 152.31 136.5 152.51 136.31 152.56 C 135.99 152.7 135.6 153.2 135.41 153.72 C 135.32 153.92 135.21 154.18 135.25 154.41 C 135.27 154.51 135.33 154.59 135.34 154.75 C 135.38 154.9 135.3 155.04 135.19 155.13 C 135.0 155.25 134.84 155.44 134.75 155.66 C 134.65 155.92 134.55 156.22 134.63 156.5 C 134.66 156.67 134.8 156.77 134.91 156.91 C 135.0 157.01 135.01 157.16 134.94 157.28 C 134.92 157.37 134.87 157.43 134.81 157.5 C 134.66 157.67 134.54 157.9 134.5 158.13 C 134.46 158.3 134.5 158.5 134.59 158.66 C 134.65 158.74 134.69 158.83 134.69 158.94 C 134.67 159.07 134.7 159.24 134.59 159.34 C 134.31 159.52 134.29 159.78 134.25 160.06 C 134.21 160.31 134.19 160.57 134.41 160.75 C 134.48 160.8 134.55 160.86 134.59 160.94 C 134.67 161.09 134.58 161.27 134.47 161.38 C 134.37 161.52 134.27 161.67 134.22 161.84 C 134.13 162.08 134.21 162.35 134.38 162.53 C 134.47 162.67 134.67 162.72 134.75 162.88 C 134.84 163.03 134.85 163.22 134.78 163.38 C 134.67 163.66 134.6 163.98 134.69 164.28 C 134.78 164.61 135.03 164.83 135.31 165.0 C 135.44 165.05 135.58 165.11 135.63 165.25 C 135.67 165.4 135.54 165.52 135.5 165.66 C 135.48 165.74 135.47 165.82 135.47 165.91 C 135.49 166.18 135.63 166.44 135.78 166.66 C 135.94 166.81 135.92 167.04 136.03 167.22 C 136.12 167.42 136.22 167.63 136.38 167.78 C 136.56 167.99 136.82 168.08 137.06 168.22 C 136.9 168.64 136.78 169.11 136.84 169.56 C 136.92 170.27 137.46 170.84 138.09 171.13 C 138.87 171.45 139.73 171.59 140.56 171.66 C 140.96 171.71 141.35 171.63 141.75 171.63 C 141.32 171.88 140.93 172.22 140.59 172.59 C 139.94 173.32 139.56 174.37 139.78 175.34 C 139.91 175.9 140.27 176.46 140.84 176.63 C 141.33 176.74 141.82 176.44 142.19 176.16 C 142.13 176.5 142.07 176.9 142.44 177.25 C 142.76 177.48 143.2 177.51 143.56 177.38 C 143.94 177.21 144.26 176.91 144.44 176.53 C 144.79 177.05 145.06 177.46 145.72 177.63 C 146.22 177.75 146.75 177.45 147.06 177.06 C 147.16 176.91 147.28 176.77 147.34 176.59 C 147.68 176.73 148.01 176.84 148.44 176.63 C 148.7 176.46 148.84 176.2 149.0 175.94 C 149.07 176.2 149.14 176.31 149.28 176.47 C 149.46 176.66 149.75 176.73 150.0 176.72 C 150.35 176.73 150.72 176.55 150.88 176.22 L 151.0 175.94 C 151.0 175.94 151.09 176.1 151.16 176.22 C 151.3 176.45 151.51 176.66 151.78 176.72 C 152.07 176.78 152.36 176.69 152.63 176.59 C 152.64 176.57 152.64 176.73 152.69 176.75 C 152.93 177.19 153.35 177.5 153.84 177.59 C 154.14 177.67 154.47 177.6 154.72 177.44 C 155.06 177.21 155.34 176.89 155.53 176.53 C 155.65 176.73 155.8 176.91 155.97 177.06 C 156.22 177.3 156.56 177.44 156.91 177.44 C 157.22 177.43 157.55 177.31 157.72 177.03 C 157.87 176.77 157.87 176.44 157.81 176.16 C 158.16 176.43 158.57 176.69 159.03 176.63 C 159.61 176.51 160.04 175.99 160.19 175.44 C 160.42 174.53 160.12 173.59 159.59 172.84 C 159.24 172.35 158.73 171.98 158.25 171.63 C 158.33 171.62 158.58 171.65 158.72 171.66 C 159.68 171.66 160.63 171.53 161.56 171.28 C 162.4 171.06 163.07 170.3 163.16 169.44 C 163.15 169.11 163.13 168.6 162.91 168.22 C 163.08 168.13 163.25 168.03 163.41 167.91 C 163.71 167.69 163.92 167.39 164.0 167.03 C 164.03 166.88 164.09 166.71 164.22 166.63 C 164.32 166.47 164.4 166.3 164.47 166.13 C 164.55 165.93 164.54 165.71 164.44 165.53 C 164.4 165.42 164.27 165.36 164.34 165.22 C 164.41 165.08 164.55 165.04 164.69 165.0 C 164.85 164.91 164.98 164.8 165.09 164.66 C 165.21 164.51 165.32 164.37 165.34 164.19 C 165.38 163.95 165.34 163.69 165.25 163.47 C 165.17 163.29 165.14 163.05 165.25 162.88 C 165.31 162.74 165.43 162.69 165.53 162.59 C 165.76 162.41 165.85 162.09 165.75 161.81 C 165.68 161.54 165.4 161.38 165.38 161.09 C 165.38 160.87 165.59 160.74 165.69 160.56 C 165.83 160.22 165.75 159.84 165.56 159.53 C 165.54 159.49 165.5 159.46 165.47 159.44 C 165.31 159.33 165.25 159.09 165.28 158.91 C 165.29 158.79 165.39 158.72 165.44 158.63 C 165.59 158.23 165.43 157.75 165.13 157.47 C 164.99 157.33 164.95 157.08 165.06 156.91 C 165.17 156.79 165.29 156.68 165.34 156.53 C 165.45 156.22 165.34 155.87 165.19 155.59 C 165.1 155.42 164.99 155.27 164.84 155.16 C 164.67 155.02 164.56 154.77 164.69 154.56 C 164.75 154.47 164.81 154.36 164.75 154.25 C 164.73 154.09 164.67 153.93 164.59 153.78 C 164.49 153.56 164.33 153.35 164.19 153.16 C 164.04 152.97 163.92 152.73 163.72 152.59 C 163.58 152.56 163.46 152.44 163.41 152.31 C 163.31 152.14 163.45 151.96 163.47 151.78 C 163.47 151.62 163.37 151.47 163.28 151.34 C 163.13 151.12 162.91 150.96 162.66 150.88 C 162.48 150.79 162.25 150.84 162.09 150.72 C 161.99 150.59 162.07 150.42 162.0 150.28 C 161.91 150.07 161.77 149.86 161.59 149.72 C 161.47 149.6 161.3 149.53 161.13 149.5 C 160.91 149.48 160.7 149.31 160.69 149.09 C 160.69 149.0 160.68 148.87 160.78 148.81 C 161.62 147.94 162.22 146.85 162.63 145.72 C 163.55 143.14 163.18 140.26 162.09 137.78 C 161.69 136.86 161.17 136.04 160.59 135.22 C 160.96 135.1 161.29 134.86 161.56 134.59 C 162.56 133.67 163.0 132.27 162.84 130.94 C 162.74 130.23 162.59 129.49 162.16 128.91 C 161.94 128.5 161.36 128.34 161.09 128.78 C 160.81 129.39 160.37 129.94 159.81 130.31 C 158.43 131.17 156.92 131.77 155.44 132.44 C 155.45 132.17 155.4 131.9 155.28 131.66 C 155.14 131.39 154.91 131.17 154.63 131.06 C 154.42 130.98 154.22 130.91 154.0 130.88 C 153.99 130.8 153.94 130.68 153.91 130.59 C 153.74 130.2 153.41 129.89 153.0 129.75 C 152.89 129.71 152.44 129.69 152.44 129.69 C 153.89 128.65 154.47 126.58 153.81 124.94 C 153.18 123.24 151.28 122.16 149.5 122.38 z M 150.0 124.47 C 151.06 124.47 151.94 125.37 151.94 126.44 C 151.94 127.54 151.06 128.38 150.0 128.38 C 148.9 128.38 148.06 127.54 148.06 126.44 C 148.06 125.37 148.9 124.47 150.0 124.47 z" />
		
		
		<text id="txtTwo" transform="matrix(1 0 0 1 150 160)" style="stroke:none;fill:#f00;font-family:'Eras Medium ITC';font-size:20px;text-anchor:middle"  >

		</text>
		<!-- Prism Reference -->
		<cam mingh:cam=" --verb EditSelectAll --verb ZoomSelection --verb FileSave "/> 
	 </g>

</svg>