<svg
   xmlns:xlink="http://www.w3.org/1999/xlink"
   xmlns:svg="http://www.w3.org/2000/svg"
   xmlns="http://www.w3.org/2000/svg"
   xmlns:mingh="http://www.minghworld.com"
   width="300px"
   height="300px" >
	 <g>
		<!-- Paths -->
		<path transform="matrix(-1 0 0 1 300 0)" style="fill:#ff0;stroke:none;"
		 d="M 147.5 124.69 C 146.32 124.65 145.11 125.13 144.25 126.16 C 143.36 127.21 143.07 128.65 143.47 129.97 C 143.69 130.69 144.04 131.24 144.59 131.75 C 144.86 132.0 145.15 132.2 145.47 132.38 C 145.62 132.46 145.77 132.53 145.94 132.59 C 146.02 132.62 146.1 132.66 146.19 132.69 C 146.21 132.69 146.23 132.68 146.25 132.69 C 146.28 132.7 146.3 132.73 146.31 132.75 C 146.45 133.02 146.57 133.29 146.69 133.56 C 146.75 133.7 146.85 133.83 146.84 134.0 C 146.84 134.16 146.7 134.27 146.56 134.31 C 146.41 134.36 146.25 134.32 146.09 134.31 C 145.94 134.3 145.78 134.27 145.63 134.28 C 145.32 134.29 145.02 134.33 144.72 134.34 C 144.11 134.37 143.51 134.42 142.91 134.47 C 141.7 134.57 140.52 134.66 139.34 135.03 C 139.09 135.11 138.82 135.17 138.59 135.34 C 138.37 135.51 138.24 135.78 138.34 136.06 C 138.44 136.33 138.74 136.45 138.97 136.53 C 139.22 136.63 139.46 136.7 139.72 136.78 C 140.23 136.95 140.72 137.19 141.22 137.38 C 141.41 137.45 141.79 137.58 141.78 137.88 C 141.77 138.2 141.4 138.27 141.19 138.34 C 140.93 138.43 140.71 138.54 140.47 138.66 C 140.23 138.77 139.96 138.86 139.72 138.97 C 139.23 139.18 138.74 139.41 138.25 139.63 C 137.76 139.84 137.27 140.03 136.78 140.25 C 136.53 140.36 136.29 140.49 136.09 140.69 C 135.9 140.88 135.79 141.13 135.91 141.41 C 136.03 141.68 136.3 141.77 136.56 141.81 C 136.83 141.86 137.08 141.89 137.34 141.94 C 137.87 142.03 138.39 142.16 138.91 142.31 C 139.16 142.39 139.44 142.44 139.69 142.53 C 139.82 142.58 139.92 142.62 140.0 142.75 C 140.07 142.86 140.07 143.02 140.0 143.13 C 139.92 143.25 139.77 143.31 139.66 143.38 C 139.54 143.44 139.45 143.52 139.34 143.59 C 139.12 143.75 138.88 143.89 138.66 144.03 C 137.76 144.61 136.85 145.15 135.97 145.75 C 135.53 146.05 135.09 146.36 134.69 146.72 C 134.44 146.93 133.77 147.58 133.66 147.94 C 133.57 148.21 133.68 148.49 133.94 148.63 C 134.2 148.76 134.45 148.73 134.72 148.72 C 134.99 148.71 135.23 148.71 135.5 148.72 C 135.63 148.73 135.77 148.75 135.91 148.75 C 136.04 148.75 136.18 148.72 136.31 148.75 C 136.61 148.82 136.71 149.14 136.5 149.38 C 136.4 149.48 136.28 149.51 136.16 149.56 C 136.03 149.61 135.93 149.69 135.81 149.75 C 135.34 150.01 134.89 150.27 134.44 150.56 C 133.92 150.9 132.35 152.06 132.0 152.63 C 131.63 153.22 131.99 153.67 132.66 153.66 C 133.19 153.64 133.72 153.6 134.25 153.59 C 134.55 153.59 135.55 153.62 135.84 153.78 C 135.99 153.86 136.04 153.94 136.03 154.09 C 136.02 154.26 135.9 154.33 135.78 154.41 C 135.59 154.52 135.4 154.59 135.22 154.72 C 135.09 154.81 134.96 154.93 134.84 155.03 C 134.64 155.21 134.45 155.38 134.25 155.56 C 133.72 156.04 133.21 156.54 132.69 157.03 C 132.22 157.47 131.77 157.9 131.31 158.34 C 131.05 158.6 130.67 158.93 130.59 159.34 C 130.54 159.63 130.72 159.87 130.97 159.97 C 131.23 160.07 131.48 160.03 131.75 160.06 C 132.02 160.09 132.3 160.14 132.56 160.19 C 132.78 160.23 133.13 160.21 133.31 160.44 C 133.51 160.7 133.25 160.92 133.09 161.09 C 132.91 161.3 132.75 161.53 132.59 161.75 C 132.44 161.96 132.26 162.14 132.13 162.38 C 132.01 162.58 131.9 162.91 132.0 163.16 C 132.1 163.41 132.43 163.49 132.66 163.5 C 132.93 163.51 133.2 163.42 133.47 163.44 C 133.83 163.45 133.96 163.58 133.81 163.94 C 133.71 164.2 133.54 164.38 133.38 164.59 C 133.04 165.03 132.78 165.45 132.66 166.0 C 132.6 166.25 132.55 166.55 132.72 166.78 C 132.92 167.07 133.14 167.04 133.44 166.97 C 133.7 166.9 133.94 166.78 134.19 166.69 C 134.47 166.58 134.75 166.72 134.72 167.03 C 134.68 167.39 134.38 168.21 134.63 168.63 C 134.78 168.88 135.09 168.89 135.34 168.81 C 135.6 168.74 135.78 168.53 136.09 168.63 C 136.37 168.71 136.35 169.11 136.34 169.31 C 136.33 169.58 136.34 169.86 136.34 170.13 C 136.35 170.54 136.35 171.31 136.53 171.72 C 136.66 172.01 136.84 172.11 137.16 172.06 C 137.26 172.05 137.35 171.99 137.44 171.94 C 137.57 171.86 137.68 171.79 137.81 171.72 C 138.1 171.57 138.42 171.43 138.72 171.28 C 138.81 171.23 138.89 171.21 139.0 171.22 C 139.12 171.23 139.22 171.25 139.31 171.34 C 139.39 171.42 139.37 171.5 139.38 171.59 C 139.39 171.75 139.4 171.91 139.41 172.06 C 139.42 172.42 139.44 172.77 139.47 173.13 C 139.48 173.32 139.46 173.59 139.69 173.72 C 139.95 173.86 140.2 173.82 140.47 173.81 C 141.11 173.8 141.39 173.75 142.03 173.94 C 142.73 174.14 144.44 174.48 145.16 174.63 C 146.21 174.83 147.28 175.01 148.34 175.13 C 150.49 175.35 152.57 175.37 154.72 175.13 C 155.78 175.0 156.84 174.82 157.88 174.53 C 158.83 174.26 160.05 173.93 160.28 172.69 C 160.39 172.13 160.18 171.61 159.75 171.25 C 159.54 171.08 159.34 170.93 159.09 170.81 C 158.95 170.74 158.51 170.59 158.5 170.34 C 158.49 170.12 158.77 169.8 158.88 169.66 C 159.04 169.44 159.2 169.22 159.34 169.0 C 159.64 168.55 159.89 168.07 160.13 167.59 C 160.6 166.62 160.93 165.63 161.13 164.56 C 161.22 164.03 161.29 163.5 161.31 162.97 C 161.33 162.7 161.35 162.46 161.34 162.19 C 161.34 162.07 161.3 161.5 161.34 161.38 C 161.43 161.13 161.86 161.09 162.03 161.06 C 162.3 161.02 162.56 160.94 162.81 160.84 C 163.32 160.65 163.78 160.42 164.22 160.09 C 165.03 159.5 165.81 158.56 166.25 157.66 C 166.7 156.71 166.92 155.56 166.53 154.53 C 166.08 153.35 165.0 152.95 163.97 153.75 C 163.55 154.08 163.19 154.47 162.75 154.78 C 162.53 154.94 162.31 155.08 162.06 155.19 C 161.9 155.26 161.47 155.42 161.28 155.25 C 161.09 155.07 161.18 154.69 161.19 154.5 C 161.2 154.23 161.16 153.96 161.16 153.69 C 161.15 153.15 161.15 152.63 161.22 152.09 C 161.29 151.55 161.41 151.07 161.75 150.63 C 162.08 150.19 162.5 149.87 162.94 149.56 C 164.04 148.79 164.54 148.54 165.56 147.66 C 166.38 146.95 167.1 146.19 167.69 145.28 C 168.29 144.35 168.67 143.4 168.84 142.31 C 168.89 142.04 168.89 141.77 168.88 141.5 C 168.86 141.23 168.86 141.02 169.06 140.78 C 169.15 140.68 169.26 140.57 169.31 140.44 C 169.37 140.31 169.39 140.2 169.41 140.06 C 169.44 139.79 169.4 139.51 169.31 139.25 C 168.95 138.14 167.77 137.61 166.75 138.25 C 166.29 138.54 166.03 139.02 165.53 139.28 C 165.0 139.56 164.5 139.42 164.0 139.22 C 163.5 139.02 163.03 138.78 162.53 138.56 C 162.04 138.35 161.57 138.14 161.06 137.97 C 160.91 137.92 160.72 137.9 160.56 137.84 C 160.41 137.79 160.29 137.67 160.28 137.5 C 160.27 137.33 160.46 137.18 160.56 137.09 C 160.69 136.99 160.79 136.89 160.91 136.78 C 161.39 136.34 161.81 135.87 162.16 135.31 C 162.51 134.76 162.8 134.17 162.97 133.53 C 163.05 133.23 163.09 132.87 162.81 132.63 C 162.54 132.37 162.2 132.48 161.94 132.69 C 161.67 132.89 161.45 133.11 161.22 133.34 C 161.09 133.48 160.73 133.93 160.47 133.84 C 160.28 133.78 160.2 133.66 160.19 133.47 C 160.18 133.31 160.2 133.16 160.19 133.0 C 160.16 132.68 160.11 132.35 160.06 132.03 C 160.0 131.62 159.8 130.51 159.63 130.13 C 159.5 129.85 159.2 129.61 158.88 129.72 C 158.58 129.82 158.33 130.21 158.19 130.44 C 158.01 130.72 157.84 130.98 157.69 131.28 C 157.6 131.45 157.57 131.65 157.47 131.81 C 157.46 131.82 157.44 131.83 157.44 131.84 C 157.42 131.86 157.39 131.86 157.38 131.88 C 157.34 131.91 157.33 131.92 157.28 131.94 C 157.09 132.0 156.89 131.9 156.81 131.72 C 156.66 131.38 156.52 131.05 156.34 130.72 C 155.99 130.06 155.59 129.45 155.06 128.91 C 154.53 128.35 153.94 127.95 153.25 127.63 C 152.91 127.47 152.58 127.34 152.22 127.25 C 152.04 127.21 151.84 127.15 151.66 127.13 C 151.47 127.1 151.29 127.04 151.13 127.22 C 150.47 125.63 149.01 124.74 147.5 124.69 z M 147.38 126.81 C 148.45 126.81 149.31 127.7 149.31 128.78 C 149.31 129.86 148.45 130.72 147.38 130.72 C 146.3 130.72 145.41 129.86 145.41 128.78 C 145.41 127.7 146.3 126.81 147.38 126.81 z M 151.34 127.88 C 151.58 128.06 151.81 128.26 152.0 128.5 C 152.66 129.33 152.98 130.39 153.0 131.44 C 152.99 131.78 152.99 132.14 152.91 132.47 C 152.87 132.67 152.65 132.75 152.47 132.69 C 151.67 132.38 150.82 132.11 150.0 131.88 C 150.1 131.79 150.22 131.69 150.31 131.59 C 151.15 130.73 151.55 129.5 151.41 128.31 C 151.39 128.17 151.36 127.99 151.34 127.88 z M 155.06 133.03 C 155.47 133.28 155.84 133.55 156.19 133.88 C 156.53 134.2 156.85 134.58 157.13 134.97 C 156.71 134.84 156.29 134.69 155.88 134.56 C 155.8 135.08 155.7 135.61 155.63 136.13 C 155.4 135.6 155.25 135.03 155.16 134.47 C 155.08 133.99 155.05 133.51 155.06 133.03 z M 146.66 135.63 C 146.41 136.02 146.15 136.39 145.91 136.78 L 146.97 137.97 C 146.35 137.86 145.73 137.71 145.13 137.53 C 144.55 137.36 144.02 137.14 143.47 136.91 C 143.86 136.61 144.27 136.36 144.72 136.16 C 145.33 135.88 145.99 135.71 146.66 135.63 z M 152.59 137.88 C 152.92 137.9 153.25 137.95 153.56 138.03 C 153.19 138.25 152.81 138.47 152.44 138.69 C 152.74 139.09 153.07 139.48 153.38 139.88 C 152.78 139.71 152.19 139.46 151.66 139.16 C 151.18 138.89 150.75 138.58 150.34 138.22 C 150.76 138.06 151.18 137.96 151.63 137.91 C 151.95 137.87 152.27 137.85 152.59 137.88 z M 156.19 138.53 C 157.18 138.78 158.17 139.15 159.16 139.44 C 159.4 139.5 159.3 139.77 159.09 139.81 C 158.3 140.28 158.0 141.27 158.03 142.16 C 158.01 143.3 159.26 144.23 160.34 143.81 C 161.64 143.42 162.2 141.74 161.53 140.59 C 161.43 140.44 161.63 140.28 161.78 140.38 C 162.07 140.5 162.37 140.65 162.66 140.78 C 163.68 141.32 164.91 141.6 166.03 141.22 C 166.25 141.53 166.58 141.75 166.94 141.84 C 166.82 143.07 166.21 144.18 165.41 145.09 C 164.19 146.52 162.51 147.42 161.06 148.56 C 159.89 149.49 159.24 150.96 159.22 152.44 C 159.22 153.99 159.2 155.51 159.19 157.06 C 159.21 157.18 159.29 157.33 159.41 157.34 C 160.66 157.46 162.0 157.34 163.13 156.72 C 163.71 156.42 164.29 155.95 164.78 155.59 C 164.78 156.23 164.52 156.84 164.19 157.38 C 163.22 158.89 161.3 159.45 159.59 159.47 C 159.17 159.45 159.23 159.89 159.25 160.19 C 159.41 161.73 159.46 163.3 159.09 164.81 C 158.39 167.47 156.65 169.79 154.5 171.47 C 154.2 171.72 154.44 172.16 154.81 172.09 C 155.13 172.04 155.43 172.01 155.75 172.0 C 156.07 171.99 156.4 172.02 156.72 172.06 C 156.9 172.09 157.03 172.12 157.09 172.31 C 157.14 172.47 157.08 172.64 156.94 172.72 C 156.75 172.83 155.26 173.1 155.06 173.13 C 153.79 173.31 152.53 173.37 151.25 173.34 C 149.96 173.32 148.68 173.21 147.41 173.06 C 146.4 172.94 145.24 172.78 144.16 172.56 C 145.03 172.41 145.91 172.31 146.78 172.13 C 149.33 171.71 151.53 169.98 152.63 167.66 C 154.24 164.34 154.32 160.55 154.44 156.94 C 154.53 153.51 154.02 150.11 153.63 146.72 C 153.33 143.81 153.9 140.55 156.19 138.53 z M 147.81 141.72 C 147.41 142.17 147.02 142.64 146.63 143.09 C 147.1 143.38 147.58 143.65 148.06 143.94 C 147.43 144.01 146.79 144.03 146.16 143.97 C 145.53 143.91 144.91 143.78 144.31 143.59 C 144.71 143.25 145.12 142.96 145.56 142.69 C 146.27 142.27 147.02 141.93 147.81 141.72 z M 141.44 145.34 C 141.04 145.8 140.65 146.24 140.25 146.69 C 140.73 146.97 141.21 147.28 141.69 147.56 C 141.05 147.64 140.42 147.65 139.78 147.59 C 139.15 147.54 138.54 147.4 137.94 147.22 C 138.33 146.88 138.74 146.58 139.19 146.31 C 139.89 145.89 140.65 145.56 141.44 145.34 z M 152.0 146.13 C 151.77 146.52 151.54 146.91 151.31 147.31 C 151.7 147.67 152.08 148.04 152.47 148.41 C 151.88 148.34 151.32 148.21 150.75 148.03 C 150.23 147.87 149.73 147.66 149.25 147.41 C 149.6 147.15 149.96 146.95 150.34 146.75 C 150.87 146.48 151.43 146.27 152.0 146.13 z M 148.22 150.31 C 148.02 150.74 147.85 151.19 147.66 151.63 L 149.0 152.28 C 148.39 152.46 147.76 152.58 147.13 152.63 C 146.42 152.67 145.69 152.64 145.0 152.53 C 145.34 152.13 145.74 151.76 146.16 151.44 C 146.78 150.96 147.48 150.57 148.22 150.31 z M 140.34 151.84 C 140.18 152.28 140.04 152.75 139.88 153.19 C 140.38 153.38 140.87 153.56 141.38 153.75 C 140.77 153.87 140.15 153.92 139.53 153.94 C 139.03 153.95 138.5 153.94 138.0 153.88 C 138.22 153.53 138.49 153.19 138.78 152.91 C 139.24 152.46 139.77 152.1 140.34 151.84 z M 151.28 155.59 C 151.09 155.97 150.91 156.34 150.72 156.72 C 151.34 156.88 151.94 157.03 152.56 157.19 C 151.85 157.31 151.13 157.37 150.41 157.38 C 149.96 157.38 149.51 157.35 149.06 157.31 C 149.33 156.99 149.62 156.7 149.94 156.44 C 150.35 156.1 150.8 155.82 151.28 155.59 z M 136.16 156.28 L 135.88 157.56 C 136.46 157.77 137.07 157.95 137.66 158.16 C 136.95 158.38 136.21 158.53 135.47 158.59 C 134.96 158.64 134.45 158.66 133.94 158.63 C 134.12 158.2 134.35 157.76 134.66 157.41 C 135.07 156.93 135.59 156.55 136.16 156.28 z M 144.72 157.53 C 144.53 157.88 144.32 158.22 144.13 158.56 L 145.44 159.13 C 144.88 159.29 144.3 159.39 143.72 159.41 C 143.16 159.42 142.6 159.37 142.06 159.25 C 142.41 158.88 142.79 158.53 143.22 158.25 C 143.68 157.95 144.2 157.71 144.72 157.53 z M 138.59 162.44 L 138.59 163.75 C 139.06 163.85 139.51 163.96 139.97 164.06 C 139.39 164.36 138.8 164.63 138.19 164.84 C 137.6 165.05 137.01 165.19 136.41 165.31 C 136.62 164.79 136.88 164.3 137.22 163.84 C 137.6 163.32 138.08 162.83 138.59 162.44 z M 150.5 163.13 C 150.81 163.1 151.13 163.1 151.44 163.13 C 151.09 163.44 150.72 163.74 150.38 164.06 C 150.73 164.45 151.08 164.86 151.44 165.25 C 150.82 165.12 150.21 164.92 149.63 164.69 C 149.13 164.49 148.65 164.24 148.19 163.97 C 148.62 163.67 149.09 163.46 149.59 163.31 C 149.89 163.23 150.19 163.15 150.5 163.13 z M 144.56 163.16 C 144.53 163.44 144.51 163.75 144.47 164.03 C 145.03 164.1 145.57 164.15 146.13 164.22 C 145.54 164.41 144.92 164.55 144.31 164.63 C 143.82 164.69 143.34 164.73 142.84 164.72 C 143.0 164.45 143.16 164.19 143.38 163.97 C 143.71 163.63 144.13 163.35 144.56 163.16 z M 148.75 167.06 C 148.72 167.45 148.69 167.83 148.66 168.22 L 150.25 168.44 C 149.72 168.72 149.15 168.93 148.56 169.06 C 148.12 169.16 147.67 169.24 147.22 169.25 C 147.37 168.89 147.56 168.52 147.78 168.19 C 148.06 167.77 148.38 167.39 148.75 167.06 z M 143.0 167.59 L 143.03 168.91 L 144.56 168.66 C 144.13 169.03 143.67 169.36 143.16 169.63 C 142.73 169.85 142.28 170.02 141.81 170.16 C 141.92 169.69 142.08 169.24 142.28 168.81 C 142.48 168.38 142.71 167.97 143.0 167.59 z" />
		<text id="txtTwo" transform="matrix(1 0 0 1 150 160)" style="stroke:none;fill:#f00;font-family:'Eras Medium ITC';font-size:20px;text-anchor:middle"  >
		</text>
		<!-- Prism Reference -->
		<cam mingh:cam="--verb EditSelectAll --verb ZoomSelection --verb FileSave"/> 
	 </g>

</svg>