<svg
   xmlns:xlink="http://www.w3.org/1999/xlink"
   xmlns:svg="http://www.w3.org/2000/svg"
   xmlns="http://www.w3.org/2000/svg"
   xmlns:mingh="http://www.minghworld.com"
   width="300px"
   height="300px" >
	 <g>
		<!-- Paths -->
		<path transform="matrix(-1 0 0 1 300 0)" style="fill:#b4b4b4;stroke:none;"
		 d="M 150.0,171.02 C 150.0,164.31 150.0,157.59 150.0,150.88 150.0,148.53 147.16,147.35 145.5,149.01 144.98,149.53 144.26,149.79 143.35,149.79 141.2,149.79 140.13,148.32 140.13,145.37 140.13,142.43 141.2,140.95 143.35,140.95 144.26,140.95 144.98,141.21 145.5,141.74 147.16,143.39 150.0,142.21 150.0,139.87 150.0,139.42 150.0,138.96 150.0,138.51 M 135.06,124.13 C 132.51,124.14 129.97,124.72 127.72,125.91 124.07,127.84 121.21,131.42 119.94,135.38 118.4,140.15 119.21,145.48 121.09,150.16 122.79,154.36 125.37,158.05 128.38,161.31 131.29,164.47 134.6,167.23 138.09,169.75 140.66,171.61 143.32,173.33 146.13,174.78 146.79,175.13 147.44,175.44 148.13,175.75 149.0,176.15 150.0,175.52 150.0,174.56 150.0,175.52 151.0,176.15 151.88,175.75 152.56,175.44 153.24,175.13 153.91,174.78 156.71,173.33 159.37,171.61 161.94,169.75 165.43,167.23 168.74,164.47 171.66,161.31 174.66,158.05 177.21,154.36 178.91,150.16 180.79,145.48 181.63,140.15 180.09,135.38 178.82,131.42 175.93,127.84 172.28,125.91 170.03,124.72 167.49,124.14 164.94,124.13 162.58,124.11 160.21,124.56 158.09,125.56 155.9,126.61 153.97,128.27 152.5,130.22 151.41,131.66 150.58,133.28 150.0,134.97 149.42,133.28 148.59,131.66 147.5,130.22 146.03,128.27 144.1,126.61 141.91,125.56 139.79,124.56 137.42,124.11 135.06,124.13 z M 132.69,127.22 C 133.57,127.22 134.28,127.93 134.28,128.81 134.28,129.69 133.57,130.41 132.69,130.41 131.81,130.41 131.09,129.69 131.09,128.81 131.09,127.93 131.81,127.22 132.69,127.22 z M 167.34,127.22 C 168.22,127.22 168.94,127.93 168.94,128.81 168.94,129.69 168.22,130.41 167.34,130.41 166.46,130.41 165.75,129.69 165.75,128.81 165.75,127.93 166.46,127.22 167.34,127.22 z" />
		<text id="txtTwo" transform="matrix(1 0 0 1 150 160)" style="stroke:none;fill:#f00;font-family:'Eras Medium ITC';font-size:20px;text-anchor:middle"  />
		<!-- Prism Reference -->
		<cam mingh:cam="--verb EditSelectAll --verb SelectionUnGroup --verb EditDeselect --select=txtOne --verb SelectionUnion --verb EditDeselect  --verb EditSelectAll --verb SelectionUnGroup --verb EditDeselect --verb EditSelectAll --verb ZoomSelection --verb SelectionGroup  --verb FileSave "/> 
	 </g>

</svg>