<svg
   xmlns:xlink="http://www.w3.org/1999/xlink"
   xmlns:svg="http://www.w3.org/2000/svg"
   xmlns="http://www.w3.org/2000/svg"
   xmlns:mingh="http://www.minghworld.com"
   width="300px"
   height="300px" >
   
	 <g>
		<!-- Paths -->
		<path style="fill:none;stroke:#000;stroke-width:0.25px;"
			d="M 149.5 122.38 C 148.0 122.52 146.66 123.59 146.16 125.0 C 145.52 126.63 146.12 128.65 147.53 129.69 C 146.95 129.61 146.44 130.02 146.16 130.5 C 146.07 130.64 146.01 130.77 145.91 130.94 C 145.63 130.94 145.35 131.03 145.13 131.19 C 144.72 131.46 144.51 131.95 144.56 132.44 C 144.06 132.22 143.53 132.01 143.03 131.78 C 142.11 131.3 141.13 130.91 140.25 130.34 C 139.73 130.04 139.33 129.59 139.03 129.06 C 138.9 128.67 138.42 128.32 138.03 128.63 C 137.58 129.08 137.35 129.72 137.22 130.34 C 136.86 131.78 137.26 133.38 138.28 134.47 C 138.57 134.82 138.99 135.02 139.38 135.25 C 139.3 135.36 139.2 135.45 139.13 135.56 C 137.5 137.94 136.53 140.88 136.91 143.78 C 137.2 145.5 137.77 147.25 138.97 148.56 C 139.07 148.65 139.13 148.73 139.19 148.78 C 139.25 148.84 139.26 148.92 139.28 149.0 C 139.29 149.18 139.21 149.38 139.06 149.47 C 138.87 149.5 138.67 149.57 138.5 149.66 C 138.12 149.84 137.87 150.21 137.94 150.69 C 137.94 150.69 137.51 150.68 137.28 150.78 C 136.95 150.94 136.67 151.29 136.56 151.63 C 136.5 151.79 136.61 151.96 136.63 152.13 C 136.63 152.31 136.5 152.51 136.31 152.56 C 135.99 152.7 135.6 153.2 135.41 153.72 C 135.32 153.92 135.21 154.18 135.25 154.41 C 135.27 154.51 135.33 154.59 135.34 154.75 C 135.38 154.9 135.3 155.04 135.19 155.13 C 135.0 155.25 134.84 155.44 134.75 155.66 C 134.65 155.92 134.55 156.22 134.63 156.5 C 134.66 156.67 134.8 156.77 134.91 156.91 C 135.0 157.01 135.01 157.16 134.94 157.28 C 134.92 157.37 134.87 157.43 134.81 157.5 C 134.66 157.67 134.54 157.9 134.5 158.13 C 134.46 158.3 134.5 158.5 134.59 158.66 C 134.65 158.74 134.69 158.83 134.69 158.94 C 134.67 159.07 134.7 159.24 134.59 159.34 C 134.31 159.52 134.29 159.78 134.25 160.06 C 134.21 160.31 134.19 160.57 134.41 160.75 C 134.48 160.8 134.55 160.86 134.59 160.94 C 134.67 161.09 134.58 161.27 134.47 161.38 C 134.37 161.52 134.27 161.67 134.22 161.84 C 134.13 162.08 134.21 162.35 134.38 162.53 C 134.47 162.67 134.67 162.72 134.75 162.88 C 134.84 163.03 134.85 163.22 134.78 163.38 C 134.67 163.66 134.6 163.98 134.69 164.28 C 134.78 164.61 135.03 164.83 135.31 165.0 C 135.44 165.05 135.58 165.11 135.63 165.25 C 135.67 165.4 135.54 165.52 135.5 165.66 C 135.48 165.74 135.47 165.82 135.47 165.91 C 135.49 166.18 135.63 166.44 135.78 166.66 C 135.94 166.81 135.92 167.04 136.03 167.22 C 136.12 167.42 136.22 167.63 136.38 167.78 C 136.56 167.99 136.82 168.08 137.06 168.22 C 136.9 168.64 136.78 169.11 136.84 169.56 C 136.92 170.27 137.46 170.84 138.09 171.13 C 138.87 171.45 139.73 171.59 140.56 171.66 C 140.96 171.71 141.35 171.63 141.75 171.63 C 141.32 171.88 140.93 172.22 140.59 172.59 C 139.94 173.32 139.56 174.37 139.78 175.34 C 139.91 175.9 140.27 176.46 140.84 176.63 C 141.33 176.74 141.82 176.44 142.19 176.16 C 142.13 176.5 142.07 176.9 142.44 177.25 C 142.76 177.48 143.2 177.51 143.56 177.38 C 143.94 177.21 144.26 176.91 144.44 176.53 C 144.79 177.05 145.06 177.46 145.72 177.63 C 146.22 177.75 146.75 177.45 147.06 177.06 C 147.16 176.91 147.28 176.77 147.34 176.59 C 147.68 176.73 148.01 176.84 148.44 176.63 C 148.7 176.46 148.84 176.2 149.0 175.94 C 149.07 176.2 149.14 176.31 149.28 176.47 C 149.46 176.66 149.75 176.73 150.0 176.72 C 150.35 176.73 150.72 176.55 150.88 176.22 L 151.0 175.94 C 151.0 175.94 151.09 176.1 151.16 176.22 C 151.3 176.45 151.51 176.66 151.78 176.72 C 152.07 176.78 152.36 176.69 152.63 176.59 C 152.64 176.57 152.64 176.73 152.69 176.75 C 152.93 177.19 153.35 177.5 153.84 177.59 C 154.14 177.67 154.47 177.6 154.72 177.44 C 155.06 177.21 155.34 176.89 155.53 176.53 C 155.65 176.73 155.8 176.91 155.97 177.06 C 156.22 177.3 156.56 177.44 156.91 177.44 C 157.22 177.43 157.55 177.31 157.72 177.03 C 157.87 176.77 157.87 176.44 157.81 176.16 C 158.16 176.43 158.57 176.69 159.03 176.63 C 159.61 176.51 160.04 175.99 160.19 175.44 C 160.42 174.53 160.12 173.59 159.59 172.84 C 159.24 172.35 158.73 171.98 158.25 171.63 C 158.33 171.62 158.58 171.65 158.72 171.66 C 159.68 171.66 160.63 171.53 161.56 171.28 C 162.4 171.06 163.07 170.3 163.16 169.44 C 163.15 169.11 163.13 168.6 162.91 168.22 C 163.08 168.13 163.25 168.03 163.41 167.91 C 163.71 167.69 163.92 167.39 164.0 167.03 C 164.03 166.88 164.09 166.71 164.22 166.63 C 164.32 166.47 164.4 166.3 164.47 166.13 C 164.55 165.93 164.54 165.71 164.44 165.53 C 164.4 165.42 164.27 165.36 164.34 165.22 C 164.41 165.08 164.55 165.04 164.69 165.0 C 164.85 164.91 164.98 164.8 165.09 164.66 C 165.21 164.51 165.32 164.37 165.34 164.19 C 165.38 163.95 165.34 163.69 165.25 163.47 C 165.17 163.29 165.14 163.05 165.25 162.88 C 165.31 162.74 165.43 162.69 165.53 162.59 C 165.76 162.41 165.85 162.09 165.75 161.81 C 165.68 161.54 165.4 161.38 165.38 161.09 C 165.38 160.87 165.59 160.74 165.69 160.56 C 165.83 160.22 165.75 159.84 165.56 159.53 C 165.54 159.49 165.5 159.46 165.47 159.44 C 165.31 159.33 165.25 159.09 165.28 158.91 C 165.29 158.79 165.39 158.72 165.44 158.63 C 165.59 158.23 165.43 157.75 165.13 157.47 C 164.99 157.33 164.95 157.08 165.06 156.91 C 165.17 156.79 165.29 156.68 165.34 156.53 C 165.45 156.22 165.34 155.87 165.19 155.59 C 165.1 155.42 164.99 155.27 164.84 155.16 C 164.67 155.02 164.56 154.77 164.69 154.56 C 164.75 154.47 164.81 154.36 164.75 154.25 C 164.73 154.09 164.67 153.93 164.59 153.78 C 164.49 153.56 164.33 153.35 164.19 153.16 C 164.04 152.97 163.92 152.73 163.72 152.59 C 163.58 152.56 163.46 152.44 163.41 152.31 C 163.31 152.14 163.45 151.96 163.47 151.78 C 163.47 151.62 163.37 151.47 163.28 151.34 C 163.13 151.12 162.91 150.96 162.66 150.88 C 162.48 150.79 162.25 150.84 162.09 150.72 C 161.99 150.59 162.07 150.42 162.0 150.28 C 161.91 150.07 161.77 149.86 161.59 149.72 C 161.47 149.6 161.3 149.53 161.13 149.5 C 160.91 149.48 160.7 149.31 160.69 149.09 C 160.69 149.0 160.68 148.87 160.78 148.81 C 161.62 147.94 162.22 146.85 162.63 145.72 C 163.55 143.14 163.18 140.26 162.09 137.78 C 161.69 136.86 161.17 136.04 160.59 135.22 C 160.96 135.1 161.29 134.86 161.56 134.59 C 162.56 133.67 163.0 132.27 162.84 130.94 C 162.74 130.23 162.59 129.49 162.16 128.91 C 161.94 128.5 161.36 128.34 161.09 128.78 C 160.81 129.39 160.37 129.94 159.81 130.31 C 158.43 131.17 156.92 131.77 155.44 132.44 C 155.45 132.17 155.4 131.9 155.28 131.66 C 155.14 131.39 154.91 131.17 154.63 131.06 C 154.42 130.98 154.22 130.91 154.0 130.88 C 153.99 130.8 153.94 130.68 153.91 130.59 C 153.74 130.2 153.41 129.89 153.0 129.75 C 152.89 129.71 152.44 129.69 152.44 129.69 C 153.89 128.65 154.47 126.58 153.81 124.94 C 153.18 123.24 151.28 122.16 149.5 122.38 z M 150.0 124.47 C 151.06 124.47 151.94 125.37 151.94 126.44 C 151.94 127.54 151.06 128.38 150.0 128.38 C 148.9 128.38 148.06 127.54 148.06 126.44 C 148.06 125.37 148.9 124.47 150.0 124.47 z"
		 />
		 <path style="fill:#f00;stroke:none;"
			d="M 138.09,128.75 C 137.94,128.91 137.82,129.08 137.72,129.28 137.83,129.56 137.98,129.85 138.13,130.13 138.67,130.84 139.49,131.37 140.34,131.66 140.41,131.66 140.48,131.53 140.41,131.53 139.84,131.28 139.3,130.9 138.91,130.47 138.63,130.15 138.4,129.81 138.25,129.41 138.17,129.2 138.13,128.97 138.09,128.75 z M 161.88,128.75 C 161.84,128.97 161.79,129.19 161.72,129.41 161.59,129.8 161.37,130.17 161.09,130.47 160.69,130.92 160.13,131.28 159.56,131.53 159.49,131.53 159.6,131.66 159.63,131.66 160.48,131.37 161.32,130.85 161.84,130.13 162.02,129.88 162.14,129.6 162.25,129.34 162.19,129.23 162.14,129.11 162.06,129.0 L 162.06,128.97 C 162.02,128.88 161.95,128.8 161.88,128.75 z M 147.53,129.72 147.5,129.81 C 146.99,129.74 146.54,130.11 146.28,130.56 L 146.25,130.56 C 146.17,130.69 146.13,130.82 146.03,131.0 L 145.97,131.06 145.91,131.06 C 145.65,131.06 145.42,131.14 145.22,131.28 L 145.19,131.28 C 144.82,131.52 144.64,131.99 144.69,132.44 L 144.69,132.53 C 145.25,132.78 145.81,133.02 146.38,133.28 147.44,133.72 148.44,134.33 149.31,135.09 149.53,135.28 149.86,135.59 150.0,135.72 L 150.59,135.13 C 151.16,134.56 151.88,134.18 152.56,133.78 153.46,133.32 154.38,132.9 155.31,132.5 L 155.31,132.44 C 155.32,132.19 155.27,131.94 155.16,131.72 155.03,131.47 154.84,131.29 154.59,131.19 154.39,131.11 154.17,131.03 153.97,131.0 L 153.88,131.0 153.88,130.91 C 153.87,130.86 153.81,130.72 153.78,130.63 153.63,130.27 153.34,130.0 152.97,129.88 152.96,129.87 152.9,129.85 152.84,129.84 152.79,129.84 152.72,129.85 152.66,129.84 152.53,129.83 152.44,129.81 152.44,129.81 L 152.25,129.81 C 151.58,130.25 150.8,130.51 150.0,130.5 149.34,130.51 148.68,130.32 148.09,130.03 147.88,129.97 147.74,129.78 147.53,129.72 z M 137.5,129.78 C 137.46,129.91 137.44,130.06 137.41,130.19 137.61,130.92 137.94,131.62 138.44,132.16 138.97,132.69 139.67,133.09 140.34,133.38 141.16,133.73 142.0,133.93 142.81,134.22 143.84,134.61 144.89,135.07 145.88,135.56 146.79,136.06 147.68,136.58 148.53,137.22 148.99,137.57 149.39,137.96 149.78,138.38 149.85,138.45 149.93,138.52 150.0,138.59 150.04,138.52 150.12,138.45 150.19,138.38 150.58,137.96 151.01,137.57 151.47,137.22 152.32,136.58 153.21,136.06 154.13,135.56 155.13,135.07 156.13,134.61 157.16,134.22 157.98,133.93 158.82,133.73 159.63,133.38 160.29,133.09 161.0,132.69 161.53,132.16 162.03,131.63 162.37,130.94 162.56,130.22 162.53,130.08 162.51,129.94 162.47,129.81 162.22,130.34 161.85,130.84 161.47,131.25 160.94,131.78 160.36,132.21 159.69,132.53 158.98,132.88 158.19,133.09 157.44,133.34 156.63,133.63 155.79,133.9 154.97,134.25 154.02,134.68 153.08,135.15 152.19,135.72 151.59,136.11 151.01,136.53 150.47,137.06 150.33,137.24 150.15,137.42 150.0,137.63 149.83,137.42 149.67,137.24 149.5,137.06 148.97,136.53 148.38,136.11 147.78,135.72 146.9,135.15 145.95,134.68 145.0,134.25 144.18,133.9 143.38,133.63 142.53,133.34 141.78,133.09 140.99,132.88 140.28,132.53 139.61,132.21 139.03,131.78 138.53,131.25 138.11,130.83 137.77,130.32 137.5,129.78 z M 147.16,130.63 C 147.4,130.63 147.59,130.82 147.59,131.03 147.59,131.28 147.4,131.47 147.16,131.47 146.94,131.47 146.75,131.28 146.75,131.06 146.75,130.81 146.94,130.63 147.16,130.63 z M 152.81,130.63 C 153.06,130.63 153.22,130.81 153.22,131.06 153.22,131.28 153.06,131.47 152.81,131.47 152.56,131.47 152.38,131.28 152.38,131.03 152.38,130.82 152.6,130.63 152.81,130.63 z M 150.0,130.75 C 150.18,130.75 150.31,130.89 150.31,131.06 150.31,131.24 150.18,131.38 150.0,131.38 149.82,131.38 149.66,131.24 149.66,131.06 149.66,130.89 149.82,130.75 150.0,130.75 z M 148.5,131.13 C 148.68,131.13 148.88,131.18 149.09,131.25 149.24,131.36 149.41,131.47 149.41,131.69 149.41,131.9 149.24,132.05 149.09,132.16 148.92,132.26 148.71,132.31 148.5,132.31 148.29,132.31 148.11,132.26 147.94,132.16 147.76,132.09 147.63,131.96 147.63,131.75 147.63,131.54 147.76,131.35 147.94,131.28 148.11,131.17 148.29,131.13 148.5,131.13 z M 151.5,131.13 C 151.68,131.13 151.85,131.17 152.06,131.28 152.2,131.35 152.38,131.54 152.38,131.75 152.34,131.96 152.21,132.09 152.03,132.16 151.85,132.26 151.68,132.31 151.47,132.31 151.29,132.31 151.09,132.26 150.88,132.16 150.73,132.05 150.56,131.9 150.56,131.69 150.56,131.47 150.76,131.36 150.94,131.25 151.11,131.18 151.29,131.13 151.5,131.13 z M 146.25,131.41 C 146.45,131.4 146.67,131.47 146.84,131.59 147.16,131.81 147.4,132.27 147.16,132.66 146.91,133.01 146.38,132.96 146.06,132.75 145.71,132.54 145.5,132.08 145.75,131.69 145.87,131.49 146.05,131.42 146.25,131.41 z M 153.72,131.41 C 153.92,131.42 154.09,131.49 154.22,131.69 154.47,132.08 154.26,132.54 153.94,132.75 153.58,132.96 153.09,133.01 152.84,132.66 152.6,132.27 152.81,131.81 153.13,131.59 153.29,131.47 153.52,131.4 153.72,131.41 z M 150.0,131.84 C 150.35,131.84 150.69,132.14 150.69,132.53 150.69,132.92 150.35,133.19 150.0,133.19 149.61,133.19 149.28,132.92 149.28,132.53 149.28,132.14 149.61,131.84 150.0,131.84 z M 152.13,132.47 C 152.35,132.48 152.57,132.6 152.69,132.81 152.9,133.17 152.64,133.57 152.28,133.78 151.96,133.96 151.46,134.01 151.25,133.63 151.0,133.24 151.31,132.79 151.63,132.63 151.7,132.57 151.81,132.52 151.91,132.5 151.98,132.48 152.05,132.47 152.13,132.47 z M 147.78,132.5 C 147.98,132.48 148.18,132.51 148.34,132.63 148.7,132.79 148.96,133.24 148.75,133.63 148.54,134.01 148.01,133.96 147.69,133.78 147.33,133.57 147.07,133.17 147.28,132.81 147.41,132.62 147.59,132.52 147.78,132.5 z M 150.0,133.53 C 150.39,133.53 150.69,133.86 150.69,134.25 150.69,134.64 150.39,134.94 150.0,134.94 149.61,134.94 149.28,134.64 149.28,134.25 149.28,133.86 149.61,133.53 150.0,133.53 z M 139.5,135.28 139.47,135.31 C 139.42,135.39 139.38,135.44 139.34,135.5 139.66,135.6 139.97,135.72 140.25,135.81 139.97,136.17 139.69,136.49 139.44,136.88 138.91,137.62 138.52,138.42 138.28,139.31 137.89,140.69 137.84,142.22 138.16,143.63 138.34,144.45 138.63,145.26 139.13,145.94 139.66,146.72 140.4,147.35 141.25,147.81 142.1,148.27 143.07,148.5 144.06,148.5 145.12,148.53 146.22,148.26 147.0,147.63 147.39,147.35 147.69,146.93 147.94,146.5 148.08,146.61 148.2,146.7 148.34,146.81 148.62,146.98 148.92,147.19 149.09,147.47 149.16,147.61 149.19,147.74 149.22,147.88 148.98,148.09 148.73,148.29 148.44,148.47 147.77,148.93 147.03,149.2 146.25,149.44 145.33,149.73 144.37,149.95 143.38,150.06 142.6,150.13 141.84,150.13 141.13,149.91 140.46,149.75 139.89,149.41 139.41,148.97 L 139.41,149.0 C 139.41,149.13 139.38,149.26 139.31,149.38 139.42,149.51 139.55,149.67 139.69,149.78 139.94,149.89 140.22,149.91 140.44,150.06 140.65,150.2 140.85,150.45 140.88,150.69 140.95,150.87 140.91,151.07 140.94,151.25 141.01,151.5 141.14,151.73 141.31,151.91 141.49,152.12 141.53,152.31 141.53,152.56 141.56,153.02 141.63,153.53 141.63,154.03 141.63,155.12 141.55,156.21 141.44,157.31 141.33,158.52 141.17,159.77 140.88,160.97 140.7,161.64 140.51,162.28 140.19,162.88 139.87,163.51 139.48,164.08 139.13,164.72 138.84,165.18 138.58,165.72 138.41,166.25 138.27,166.71 138.16,167.16 138.16,167.69 138.09,168.37 138.18,169.19 138.53,169.72 138.85,170.15 139.35,170.36 139.84,170.5 140.48,170.64 141.08,170.69 141.69,170.69 141.44,170.48 141.16,170.3 140.91,170.09 141.05,169.91 141.15,169.71 141.25,169.5 141.36,169.82 141.55,170.16 141.72,170.44 141.83,170.62 141.92,170.79 142.03,170.94 142.35,171.36 142.73,171.77 143.16,172.09 142.98,172.33 142.78,172.59 142.63,172.84 142.42,173.27 142.26,173.7 142.13,174.16 141.99,174.59 141.83,175.04 141.72,175.5 142.08,174.75 142.54,174.04 143.03,173.41 143.28,173.12 143.53,172.81 143.81,172.53 143.92,172.6 144.03,172.63 144.13,172.66 144.34,172.77 144.59,172.84 144.84,172.91 144.7,173.23 144.57,173.56 144.5,173.91 144.4,174.48 144.37,175.06 144.44,175.66 144.69,175.13 144.95,174.57 145.19,174.03 145.37,173.68 145.51,173.33 145.69,172.97 146.08,172.94 146.45,172.89 146.84,172.78 146.8,173.24 146.84,173.7 146.88,174.13 146.95,174.73 147.11,175.31 147.25,175.88 147.21,175.27 147.2,174.73 147.28,174.13 147.31,173.66 147.34,173.18 147.44,172.72 147.55,172.69 147.68,172.66 147.78,172.63 L 147.88,172.53 C 148.44,173.13 148.86,173.71 149.0,174.53 149.07,174.9 149.04,175.31 149.0,175.69 L 149.03,175.63 149.13,175.91 C 149.3,176.46 149.54,176.58 150.03,176.58 150.38,176.61 150.68,176.36 150.78,176.12 L 150.88,175.91 150.98,175.64 C 150.92,175.27 150.93,174.9 150.97,174.53 151.11,173.71 151.53,173.13 152.09,172.53 152.13,172.57 152.18,172.59 152.25,172.63 152.32,172.66 152.42,172.69 152.53,172.72 152.64,173.18 152.65,173.66 152.72,174.13 152.76,174.73 152.76,175.27 152.72,175.88 152.9,175.31 153.02,174.73 153.09,174.13 153.12,173.7 153.17,173.24 153.13,172.78 153.51,172.89 153.89,172.94 154.28,172.97 154.46,173.33 154.64,173.68 154.78,174.03 155.03,174.57 155.28,175.13 155.53,175.66 155.6,175.06 155.58,174.48 155.47,173.91 155.4,173.56 155.26,173.23 155.13,172.91 155.38,172.84 155.63,172.77 155.88,172.66 155.95,172.63 156.05,172.6 156.16,172.53 156.44,172.81 156.69,173.12 156.94,173.41 157.43,174.04 157.9,174.75 158.25,175.5 158.14,175.04 157.99,174.59 157.84,174.16 157.7,173.7 157.55,173.27 157.34,172.84 157.2,172.59 157.02,172.33 156.81,172.09 157.23,171.77 157.62,171.36 157.94,170.94 158.05,170.79 158.14,170.62 158.25,170.44 158.46,170.16 158.6,169.82 158.75,169.5 158.82,169.71 158.92,169.91 159.06,170.09 158.82,170.3 158.53,170.48 158.28,170.69 158.92,170.69 159.53,170.64 160.13,170.5 160.62,170.36 161.16,170.15 161.44,169.72 161.79,169.19 161.87,168.37 161.84,167.69 161.8,167.16 161.71,166.71 161.56,166.25 161.39,165.72 161.12,165.18 160.84,164.72 160.48,164.08 160.1,163.51 159.78,162.88 159.5,162.28 159.31,161.64 159.13,160.97 158.85,159.77 158.64,158.52 158.53,157.31 158.43,156.21 158.38,155.12 158.38,154.03 158.38,153.53 158.4,153.02 158.44,152.56 158.47,152.31 158.48,152.09 158.66,151.91 158.84,151.73 158.99,151.5 159.03,151.25 159.06,151.07 159.09,150.87 159.13,150.69 159.17,150.45 159.31,150.2 159.53,150.06 159.74,149.91 160.03,149.89 160.28,149.78 160.44,149.66 160.58,149.49 160.69,149.34 160.63,149.27 160.57,149.19 160.56,149.09 160.56,149.07 160.56,149.02 160.56,148.97 160.08,149.41 159.54,149.75 158.88,149.91 158.21,150.13 157.41,150.13 156.63,150.06 155.64,149.95 154.64,149.73 153.75,149.44 152.93,149.2 152.2,148.93 151.53,148.47 151.24,148.29 151.0,148.09 150.75,147.88 150.78,147.74 150.84,147.61 150.91,147.47 151.06,147.19 151.34,146.98 151.66,146.81 151.77,146.7 151.93,146.61 152.03,146.5 152.28,146.93 152.58,147.35 152.97,147.63 153.78,148.26 154.85,148.53 155.91,148.5 156.9,148.5 157.87,148.27 158.72,147.81 159.57,147.35 160.3,146.72 160.84,145.94 161.33,145.26 161.66,144.45 161.84,143.63 162.16,142.22 162.08,140.69 161.69,139.31 161.44,138.42 161.06,137.62 160.56,136.88 160.28,136.49 160.01,136.17 159.72,135.81 160.04,135.72 160.34,135.6 160.66,135.5 160.61,135.43 160.55,135.35 160.5,135.28 160.24,135.37 160.0,135.47 159.75,135.53 158.9,135.85 158.04,136.24 157.19,136.63 156.97,136.73 156.77,136.83 156.56,136.97 156.31,136.94 156.09,136.94 155.84,136.94 155.17,136.97 154.55,137.16 153.91,137.44 153.17,137.8 152.48,138.25 151.88,138.81 151.46,139.2 151.08,139.63 150.72,140.13 150.55,140.37 150.35,140.68 150.31,141.0 150.31,141.17 150.37,141.39 150.47,141.56 150.58,141.74 150.79,141.86 150.97,142.0 151.25,142.25 151.46,142.55 151.63,142.84 151.85,143.23 151.99,143.61 152.13,144.0 152.26,144.42 152.41,144.88 152.31,145.31 152.2,145.59 152.02,145.89 151.78,146.13 151.35,146.56 150.83,146.82 150.47,147.28 150.33,147.46 150.17,147.73 150.06,147.94 150.28,148.15 150.51,148.36 150.72,148.53 150.97,148.75 151.25,148.91 151.5,149.09 151.57,149.09 151.6,149.13 151.63,149.16 151.53,149.3 151.42,149.44 151.28,149.59 151.1,149.76 150.9,149.88 150.72,150.06 150.37,150.41 150.15,150.99 150.0,151.41 149.83,150.99 149.6,150.41 149.28,150.06 149.07,149.88 148.87,149.76 148.69,149.59 148.55,149.44 148.45,149.3 148.38,149.16 148.42,149.13 148.43,149.09 148.47,149.09 148.75,148.91 149.0,148.75 149.25,148.53 149.5,148.36 149.69,148.15 149.91,147.94 149.8,147.73 149.64,147.46 149.5,147.28 149.14,146.82 148.61,146.56 148.19,146.13 147.97,145.89 147.76,145.59 147.69,145.31 147.55,144.88 147.7,144.42 147.84,144.0 147.98,143.61 148.13,143.23 148.34,142.84 148.52,142.55 148.72,142.25 149.0,142.0 149.18,141.86 149.39,141.74 149.5,141.56 149.6,141.39 149.66,141.17 149.66,141.0 149.62,140.68 149.43,140.37 149.25,140.13 148.9,139.63 148.52,139.2 148.09,138.81 147.52,138.25 146.8,137.8 146.06,137.44 145.46,137.16 144.79,136.97 144.13,136.94 143.88,136.94 143.65,136.94 143.44,136.97 143.19,136.83 142.99,136.73 142.78,136.63 141.96,136.24 141.11,135.85 140.22,135.53 139.98,135.47 139.75,135.37 139.5,135.28 z M 140.91,136.06 C 141.44,136.27 141.97,136.53 142.47,136.78 142.64,136.85 142.82,136.96 143.0,137.06 142.68,137.13 142.34,137.24 142.06,137.38 141.38,137.74 140.83,138.29 140.44,138.97 139.87,139.82 139.66,140.88 139.69,141.91 139.73,142.69 139.99,143.46 140.38,144.16 140.73,144.8 141.24,145.42 141.88,145.81 142.66,146.31 143.67,146.51 144.59,146.41 145.34,146.3 146.06,145.99 146.63,145.53 146.84,145.35 147.07,145.13 147.25,144.88 147.21,145.06 147.25,145.24 147.25,145.41 147.32,145.7 147.42,145.95 147.56,146.16 147.59,146.19 147.59,146.18 147.59,146.22 147.31,146.54 146.98,146.84 146.63,147.09 145.92,147.59 145.07,147.87 144.22,147.94 143.05,148.05 141.83,147.71 140.84,147.03 139.99,146.47 139.29,145.7 138.88,144.78 138.17,143.32 138.05,141.62 138.44,140.03 138.69,138.93 139.2,137.91 139.91,137.03 140.19,136.67 140.55,136.34 140.91,136.06 z M 159.13,136.06 C 159.48,136.34 159.77,136.67 160.06,137.03 160.77,137.91 161.28,138.93 161.56,140.03 161.92,141.62 161.79,143.32 161.13,144.78 160.67,145.7 160.01,146.47 159.16,147.03 158.16,147.71 156.96,148.05 155.75,147.94 154.9,147.87 154.05,147.59 153.34,147.09 152.99,146.84 152.66,146.54 152.38,146.22 152.38,146.18 152.41,146.19 152.41,146.16 152.59,145.95 152.69,145.7 152.72,145.41 152.76,145.24 152.78,145.06 152.78,144.88 152.95,145.13 153.13,145.35 153.34,145.53 153.95,145.99 154.64,146.3 155.38,146.41 156.29,146.51 157.31,146.31 158.09,145.81 158.73,145.42 159.26,144.8 159.63,144.16 160.01,143.46 160.24,142.69 160.28,141.91 160.35,140.88 160.09,139.82 159.56,138.97 159.14,138.29 158.61,137.74 157.91,137.38 157.62,137.24 157.33,137.13 156.97,137.06 157.15,136.96 157.35,136.85 157.53,136.78 158.06,136.53 158.6,136.27 159.13,136.06 z M 144.19,137.63 C 144.36,137.62 144.54,137.64 144.72,137.66 145.54,137.81 146.26,138.21 146.88,138.81 147.41,139.38 147.8,140.06 147.94,140.81 148.04,141.38 147.98,141.93 147.84,142.5 147.74,143.07 147.51,143.57 147.19,144.03 146.84,144.56 146.35,145.03 145.75,145.31 145.11,145.63 144.4,145.73 143.72,145.63 143.12,145.56 142.53,145.26 142.03,144.91 141.71,144.66 141.4,144.39 141.16,144.03 140.84,143.57 140.61,143.03 140.47,142.5 140.29,141.61 140.41,140.62 140.84,139.81 141.23,139.03 141.84,138.39 142.66,138.0 143.14,137.79 143.66,137.65 144.19,137.63 z M 155.78,137.63 C 156.3,137.65 156.84,137.79 157.31,138.0 158.13,138.39 158.8,139.03 159.19,139.81 159.58,140.62 159.68,141.61 159.5,142.5 159.39,143.03 159.16,143.57 158.84,144.03 158.59,144.39 158.26,144.66 157.94,144.91 157.44,145.26 156.88,145.56 156.28,145.63 155.57,145.73 154.86,145.63 154.22,145.31 153.65,145.03 153.13,144.56 152.78,144.03 152.46,143.57 152.26,143.07 152.13,142.5 151.99,141.93 151.96,141.38 152.03,140.81 152.18,140.06 152.55,139.38 153.09,138.81 153.69,138.21 154.47,137.81 155.28,137.66 155.45,137.64 155.61,137.62 155.78,137.63 z M 144.25,139.03 C 143.69,138.99 143.09,139.18 142.63,139.5 142.14,139.82 141.76,140.35 141.63,140.91 141.45,141.55 141.58,142.31 141.97,142.84 142.36,143.41 143.01,143.74 143.69,143.81 144.4,143.88 145.16,143.63 145.66,143.13 146.12,142.71 146.38,142.13 146.41,141.53 146.45,140.89 146.24,140.21 145.78,139.75 145.39,139.32 144.82,139.06 144.25,139.03 z M 155.72,139.03 C 155.15,139.06 154.58,139.32 154.19,139.75 153.77,140.21 153.52,140.89 153.56,141.53 153.59,142.13 153.88,142.71 154.34,143.13 154.83,143.63 155.57,143.88 156.28,143.81 156.95,143.74 157.65,143.41 158.0,142.84 158.39,142.31 158.52,141.55 158.34,140.91 158.2,140.35 157.83,139.82 157.34,139.5 156.88,139.18 156.29,138.99 155.72,139.03 z M 144.19,139.66 C 144.62,139.7 145.02,139.9 145.34,140.22 145.55,140.46 145.68,140.74 145.75,141.06 145.68,140.84 145.56,140.67 145.38,140.53 145.17,140.35 144.91,140.25 144.66,140.22 144.34,140.18 143.97,140.28 143.72,140.53 143.51,140.74 143.44,141.06 143.44,141.38 143.44,141.66 143.56,141.98 143.78,142.19 143.99,142.4 144.31,142.46 144.63,142.5 144.91,142.5 145.19,142.43 145.41,142.25 145.55,142.14 145.65,141.99 145.72,141.81 145.65,142.13 145.47,142.45 145.22,142.66 144.83,143.02 144.31,143.23 143.81,143.19 143.28,143.16 142.79,142.86 142.5,142.44 142.25,142.05 142.17,141.52 142.28,141.06 142.39,140.63 142.64,140.28 143.03,140.03 143.35,139.78 143.77,139.66 144.19,139.66 z M 155.78,139.66 C 156.2,139.66 156.62,139.78 156.97,140.03 157.33,140.28 157.59,140.63 157.69,141.06 157.83,141.52 157.72,142.05 157.47,142.44 157.19,142.86 156.69,143.16 156.19,143.19 155.66,143.23 155.13,143.02 154.78,142.66 154.53,142.45 154.35,142.13 154.25,141.81 154.32,141.99 154.45,142.14 154.63,142.25 154.81,142.43 155.06,142.5 155.34,142.5 155.66,142.46 155.98,142.4 156.19,142.19 156.41,141.98 156.53,141.66 156.53,141.38 156.57,141.06 156.46,140.74 156.25,140.53 156.04,140.28 155.66,140.18 155.34,140.22 155.06,140.25 154.83,140.35 154.66,140.53 154.48,140.67 154.29,140.84 154.22,141.06 154.29,140.74 154.44,140.46 154.69,140.22 154.97,139.9 155.35,139.7 155.78,139.66 z M 144.75,140.56 C 144.93,140.6 145.08,140.68 145.22,140.78 145.36,140.89 145.47,141.02 145.5,141.16 145.57,141.3 145.54,141.48 145.5,141.66 145.43,141.8 145.35,141.9 145.25,141.97 145.1,142.11 144.9,142.16 144.72,142.16 144.51,142.16 144.31,142.08 144.13,141.91 143.99,141.8 143.91,141.59 143.91,141.38 143.91,141.13 143.99,140.92 144.13,140.78 144.26,140.64 144.5,140.53 144.75,140.56 z M 155.25,140.56 C 155.46,140.53 155.7,140.64 155.84,140.78 155.98,140.92 156.06,141.13 156.06,141.38 156.06,141.59 155.98,141.8 155.84,141.91 155.7,142.08 155.46,142.16 155.25,142.16 155.07,142.16 154.86,142.11 154.72,141.97 154.61,141.9 154.54,141.8 154.5,141.66 154.43,141.48 154.43,141.3 154.47,141.16 154.54,141.02 154.61,140.89 154.75,140.78 154.89,140.68 155.07,140.6 155.25,140.56 z M 147.5,149.56 C 147.68,149.88 147.82,150.16 148.03,150.34 148.03,150.34 147.97,150.38 147.97,150.41 147.8,150.94 147.59,151.48 147.31,151.91 147.03,152.33 146.73,152.66 146.41,152.88 146.27,152.98 146.15,153.02 145.97,153.09 145.83,153.13 145.67,153.16 145.56,153.16 145.42,153.16 145.3,153.13 145.19,153.09 145.05,153.02 144.95,152.98 144.84,152.88 144.59,152.66 144.45,152.33 144.38,151.91 144.31,151.48 144.32,150.97 144.47,150.44 144.96,150.33 145.48,150.23 145.97,150.09 146.51,149.95 147.0,149.77 147.5,149.56 z M 152.47,149.56 C 152.97,149.77 153.5,149.95 154.0,150.09 154.49,150.23 155.0,150.33 155.5,150.44 155.64,150.97 155.66,151.48 155.63,151.91 155.56,152.33 155.4,152.66 155.19,152.88 155.08,152.98 154.92,153.02 154.81,153.09 154.67,153.13 154.55,153.16 154.44,153.16 154.3,153.16 154.14,153.13 154.0,153.09 153.86,153.02 153.7,152.98 153.56,152.88 153.27,152.66 152.94,152.33 152.66,151.91 152.41,151.48 152.18,150.94 152.0,150.41 152.0,150.38 151.98,150.34 151.94,150.34 152.16,150.16 152.33,149.88 152.47,149.56 z M 161.06,149.59 C 161.05,149.63 161.05,149.65 161.03,149.69 160.93,149.98 160.75,150.14 160.47,150.28 160.22,150.39 159.96,150.42 159.75,150.63 159.54,150.85 159.56,151.13 159.53,151.38 159.49,151.7 159.33,151.87 159.16,152.09 158.98,152.33 158.98,152.59 158.94,152.88 158.91,153.41 158.91,153.91 158.91,154.44 158.94,155.54 159.01,156.6 159.13,157.66 159.24,158.76 159.38,159.85 159.63,160.88 159.94,162.12 160.27,162.75 160.94,163.81 161.19,164.28 161.47,164.73 161.72,165.22 161.93,165.72 162.1,166.22 162.31,166.72 162.38,167.0 162.49,167.25 162.59,167.5 162.63,167.61 162.69,167.74 162.72,167.84 L 162.78,168.06 C 162.82,168.06 162.84,168.09 162.84,168.13 163.01,168.04 163.19,167.93 163.34,167.81 163.62,167.61 163.8,167.33 163.88,167.0 163.88,166.96 163.92,166.92 163.94,166.88 163.84,166.91 163.76,166.9 163.63,166.84 163.24,166.66 163.65,166.4 163.72,166.19 163.79,166.01 163.6,165.59 163.78,165.41 163.85,165.3 164.03,165.25 164.13,165.28 164.15,165.29 164.17,165.3 164.19,165.31 164.18,165.26 164.19,165.21 164.22,165.16 164.24,165.11 164.28,165.09 164.31,165.06 164.24,165.04 164.21,165.0 164.19,164.91 164.12,164.63 164.45,164.4 164.56,164.22 164.73,163.9 164.63,163.76 164.63,163.44 164.63,163.14 164.89,162.94 165.09,163.13 165.1,163.03 165.11,162.93 165.16,162.84 165.16,162.84 165.15,162.82 165.16,162.81 165.18,162.78 165.2,162.75 165.22,162.72 165.12,162.7 165.06,162.59 165.03,162.5 165.03,162.36 165.1,162.24 165.13,162.09 165.2,161.81 164.97,161.66 165.0,161.38 165.04,161.26 165.11,161.12 165.25,161.16 165.25,161.14 165.25,161.12 165.25,161.09 165.25,161.02 165.28,160.94 165.31,160.88 165.22,160.89 165.13,160.91 165.06,160.88 164.96,160.85 165.0,160.61 165.0,160.53 165.04,160.39 165.03,160.24 165.03,160.09 164.99,159.95 164.97,159.78 164.97,159.63 164.97,159.53 164.95,159.28 165.09,159.28 165.15,159.28 165.18,159.3 165.22,159.31 165.17,159.2 165.15,159.08 165.16,158.97 165.15,158.97 165.14,159.0 165.13,159.0 165.1,159.03 165.04,159.09 164.97,159.09 164.82,159.16 164.7,159.14 164.59,159.03 164.38,158.78 164.46,158.54 164.53,158.25 164.53,158.11 164.53,157.95 164.5,157.84 164.46,157.74 164.34,157.58 164.38,157.47 164.45,157.33 164.65,157.28 164.75,157.25 164.82,157.25 164.84,157.28 164.91,157.28 164.88,157.16 164.89,157.05 164.94,156.94 164.92,156.94 164.89,156.94 164.88,156.94 164.49,157.05 164.59,156.63 164.63,156.38 164.66,156.14 164.73,155.88 164.56,155.63 164.49,155.51 164.41,155.36 164.38,155.22 164.34,155.03 164.44,155.04 164.59,155.09 164.57,155.05 164.55,154.99 164.53,154.94 164.5,154.82 164.51,154.69 164.56,154.56 164.54,154.56 164.53,154.56 164.5,154.56 164.35,154.56 164.23,154.56 164.13,154.41 163.95,154.2 164.02,153.87 163.88,153.63 163.76,153.41 163.5,153.29 163.47,152.97 163.43,152.88 163.42,152.7 163.5,152.59 163.42,152.53 163.35,152.46 163.31,152.38 163.31,152.37 163.32,152.35 163.31,152.34 163.26,152.23 163.26,152.09 163.28,152.0 163.23,152.01 163.18,152.03 163.13,152.03 162.85,152.07 162.62,151.8 162.44,151.66 162.33,151.55 162.23,151.48 162.16,151.38 162.05,151.24 162.05,151.12 162.09,150.94 162.09,150.9 162.11,150.9 162.13,150.88 162.09,150.86 162.04,150.84 162.0,150.81 L 162.0,150.78 C 161.96,150.73 161.95,150.67 161.94,150.63 161.76,150.78 161.46,150.78 161.28,150.72 161.14,150.68 161.01,150.61 160.94,150.47 160.87,150.37 160.84,150.23 160.94,150.09 160.98,150.06 161.02,150.03 161.09,150.0 161.17,149.96 161.16,149.88 161.19,149.81 161.22,149.74 161.26,149.71 161.31,149.69 161.25,149.66 161.19,149.64 161.13,149.63 161.12,149.62 161.1,149.63 161.09,149.63 L 161.09,149.59 C 161.08,149.59 161.07,149.6 161.06,149.59 z M 138.94,149.66 C 138.86,149.68 138.79,149.69 138.72,149.72 138.75,149.75 138.79,149.79 138.81,149.84 138.81,149.91 138.84,149.96 138.91,150.0 138.95,150.07 139.03,150.06 139.06,150.13 139.14,150.26 139.1,150.42 139.03,150.53 138.92,150.63 138.8,150.68 138.66,150.72 138.48,150.77 138.22,150.8 138.06,150.69 L 138.09,150.81 137.94,150.81 C 137.94,150.81 137.85,150.81 137.75,150.81 137.82,150.81 137.84,150.85 137.88,150.88 137.95,151.01 137.91,151.2 137.84,151.31 137.77,151.45 137.66,151.51 137.56,151.63 137.41,151.73 137.19,152.03 136.94,152.03 136.87,152.06 136.8,152.04 136.72,152.0 136.73,152.04 136.74,152.08 136.75,152.13 136.75,152.32 136.64,152.49 136.47,152.59 136.54,152.67 136.53,152.88 136.53,152.94 136.49,153.33 136.31,153.34 136.13,153.63 135.99,153.87 136.04,154.17 135.88,154.41 135.79,154.56 135.64,154.56 135.5,154.56 135.48,154.56 135.46,154.56 135.44,154.56 135.46,154.62 135.46,154.65 135.47,154.72 135.47,154.73 135.47,154.74 135.47,154.75 135.49,154.87 135.46,155.0 135.41,155.09 135.54,155.06 135.63,155.04 135.59,155.22 135.56,155.36 135.48,155.51 135.41,155.63 135.23,155.88 135.31,156.14 135.34,156.38 135.38,156.63 135.49,157.05 135.13,156.94 135.09,156.94 135.06,156.92 135.03,156.91 135.1,157.03 135.13,157.19 135.06,157.31 135.12,157.28 135.16,157.25 135.22,157.25 135.32,157.25 135.52,157.33 135.56,157.44 135.63,157.54 135.54,157.71 135.5,157.78 135.47,157.92 135.44,158.07 135.44,158.22 135.51,158.46 135.58,158.71 135.41,159.0 135.22,159.21 134.99,159.11 134.81,158.97 134.81,159.02 134.82,159.07 134.81,159.16 134.81,159.19 134.79,159.24 134.78,159.28 134.99,159.24 135.03,159.39 135.03,159.53 135.03,159.7 135.01,159.83 134.97,159.97 134.93,160.14 134.94,160.3 134.94,160.47 134.98,160.54 135.02,160.78 134.94,160.88 134.89,160.92 134.79,160.9 134.69,160.88 134.74,160.96 134.73,161.07 134.72,161.16 134.83,161.12 134.93,161.24 134.97,161.38 135.04,161.66 134.77,161.81 134.84,162.13 134.87,162.24 134.94,162.39 134.94,162.53 134.92,162.61 134.86,162.71 134.78,162.75 134.8,162.77 134.83,162.78 134.84,162.81 134.89,162.9 134.92,163.0 134.94,163.09 135.11,162.92 135.34,163.26 135.34,163.5 135.31,163.78 135.26,164.03 135.44,164.28 135.58,164.45 135.93,164.62 135.78,164.94 135.75,165.03 135.73,165.08 135.69,165.09 135.72,165.13 135.73,165.17 135.75,165.22 135.76,165.25 135.75,165.28 135.75,165.31 135.78,165.29 135.84,165.28 135.88,165.28 135.98,165.25 136.15,165.3 136.22,165.44 136.4,165.69 136.14,165.94 136.25,166.22 136.35,166.47 136.76,166.7 136.34,166.84 136.22,166.9 136.11,166.9 136.0,166.84 136.01,166.87 136.03,166.89 136.03,166.91 136.06,167.01 136.08,167.09 136.13,167.16 L 136.16,167.16 C 136.25,167.35 136.33,167.56 136.47,167.69 136.62,167.87 136.87,167.98 137.13,168.13 L 137.16,168.13 C 137.32,167.66 137.52,167.19 137.72,166.72 137.9,166.22 138.06,165.72 138.28,165.22 138.7,164.23 139.38,163.37 139.84,162.38 140.3,161.35 140.52,160.34 140.66,159.28 140.84,158.18 140.93,157.1 141.0,156.03 141.07,154.94 141.1,153.87 141.03,152.81 140.99,152.53 140.96,152.28 140.78,152.03 140.64,151.82 140.44,151.66 140.44,151.34 140.4,151.09 140.44,150.8 140.22,150.59 139.98,150.38 139.72,150.37 139.47,150.22 139.19,150.12 139.04,149.94 138.94,149.66 z M 139.59,150.47 C 139.73,150.51 139.9,150.55 140.0,150.69 140.07,150.77 140.16,150.86 140.16,150.97 140.2,151.07 140.16,151.18 140.13,151.25 140.06,151.36 139.95,151.44 139.88,151.47 139.74,151.51 139.55,151.51 139.44,151.44 139.34,151.44 139.26,151.41 139.19,151.34 139.12,151.27 139.1,151.2 139.06,151.13 138.99,151.01 138.99,150.88 139.03,150.81 139.03,150.7 139.12,150.6 139.22,150.56 139.33,150.49 139.44,150.47 139.59,150.47 z M 160.38,150.47 C 160.51,150.47 160.64,150.49 160.75,150.56 160.86,150.6 160.96,150.7 161.0,150.81 161.03,150.88 160.98,151.01 160.94,151.13 160.91,151.2 160.85,151.27 160.78,151.34 160.7,151.41 160.63,151.44 160.56,151.44 160.42,151.51 160.23,151.51 160.13,151.47 160.01,151.44 159.91,151.36 159.88,151.25 159.81,151.18 159.81,151.07 159.81,150.97 159.84,150.86 159.89,150.77 160.0,150.69 160.1,150.55 160.23,150.51 160.38,150.47 z M 143.13,150.59 C 142.99,150.69 142.88,150.78 142.78,150.81 142.63,150.85 142.52,150.88 142.41,150.88 142.3,150.88 142.23,150.85 142.16,150.81 142.13,150.78 142.06,150.7 142.06,150.63 L 142.41,150.63 C 142.66,150.63 142.92,150.62 143.13,150.59 z M 156.09,150.59 C 156.09,150.62 156.13,150.63 156.13,150.63 156.35,150.85 156.59,151.05 156.84,151.19 156.98,151.3 157.12,151.38 157.22,151.41 157.36,151.48 157.48,151.5 157.59,151.53 157.69,151.57 157.8,151.59 157.91,151.59 158.12,151.59 158.26,151.52 158.38,151.41 158.41,151.41 158.44,151.38 158.44,151.34 158.29,151.7 158.16,152.05 158.09,152.44 158.09,152.55 158.06,152.64 158.06,152.75 158.02,153.42 157.98,154.14 157.94,154.81 157.8,154.64 157.62,154.4 157.44,154.19 157.16,153.77 156.88,153.26 156.59,152.72 156.49,152.48 156.38,152.21 156.28,152.0 156.31,151.68 156.27,151.32 156.19,151.0 156.16,150.86 156.12,150.73 156.09,150.59 z M 156.84,150.59 C 157.09,150.62 157.31,150.63 157.56,150.63 L 157.94,150.63 C 157.91,150.7 157.88,150.78 157.81,150.81 157.74,150.85 157.67,150.88 157.56,150.88 157.45,150.88 157.33,150.85 157.22,150.81 157.12,150.78 156.98,150.69 156.84,150.59 z M 143.88,150.63 C 143.85,150.75 143.81,150.87 143.78,151.0 143.71,151.32 143.69,151.68 143.69,152.0 143.58,152.21 143.48,152.48 143.38,152.72 143.13,153.26 142.85,153.77 142.53,154.19 142.35,154.4 142.21,154.64 142.03,154.81 142.03,154.14 141.99,153.42 141.91,152.75 141.91,152.64 141.91,152.55 141.88,152.44 141.84,152.05 141.67,151.7 141.53,151.34 141.53,151.38 141.59,151.41 141.63,151.41 141.73,151.52 141.84,151.59 142.06,151.59 142.16,151.59 142.26,151.57 142.38,151.53 142.48,151.5 142.64,151.48 142.75,151.41 142.89,151.38 142.99,151.3 143.13,151.19 143.38,151.05 143.64,150.85 143.88,150.63 z M 148.53,150.63 C 148.6,150.7 148.65,150.74 148.75,150.81 149.14,151.16 149.51,151.98 150.0,152.69 150.46,151.98 150.83,151.16 151.25,150.81 151.32,150.74 151.4,150.7 151.5,150.63 151.54,150.78 151.55,150.86 151.59,151.0 151.69,151.32 151.86,151.68 152.03,152.0 152.03,152.21 152.03,152.48 152.0,152.72 151.93,153.26 151.77,153.77 151.59,154.19 151.38,154.62 151.09,154.95 150.81,155.16 150.67,155.27 150.53,155.35 150.38,155.38 150.24,155.45 150.15,155.44 150.0,155.44 149.86,155.44 149.73,155.45 149.59,155.38 149.45,155.35 149.3,155.27 149.16,155.16 148.88,154.95 148.59,154.62 148.41,154.19 148.2,153.77 148.04,153.26 147.97,152.72 147.97,152.48 147.94,152.21 147.94,152.0 148.12,151.68 148.28,151.32 148.38,151.0 148.45,150.86 148.49,150.78 148.53,150.63 z M 138.28,151.44 C 138.35,151.43 138.44,151.44 138.5,151.47 138.68,151.58 138.81,151.77 138.84,151.94 138.88,152.26 138.49,152.49 138.06,152.63 137.78,152.7 137.49,152.74 137.34,152.56 137.27,152.49 137.25,152.36 137.28,152.22 137.32,152.01 137.49,151.86 137.66,151.72 137.84,151.58 138.07,151.45 138.28,151.44 z M 161.69,151.44 C 161.9,151.45 162.13,151.58 162.31,151.72 162.52,151.86 162.65,152.01 162.69,152.22 162.72,152.36 162.7,152.49 162.63,152.56 162.51,152.74 162.19,152.7 161.91,152.63 161.52,152.49 161.12,152.26 161.16,151.94 161.16,151.77 161.33,151.58 161.47,151.47 161.54,151.44 161.62,151.43 161.69,151.44 z M 139.78,151.72 C 139.86,151.71 139.91,151.72 139.97,151.72 140.07,151.72 140.12,151.73 140.22,151.84 140.29,151.94 140.43,152.08 140.53,152.25 140.67,152.4 140.77,152.53 140.69,152.63 140.62,152.76 140.23,152.76 139.88,152.63 139.67,152.56 139.48,152.46 139.41,152.28 139.34,152.14 139.42,151.89 139.56,151.78 139.63,151.73 139.71,151.72 139.78,151.72 z M 159.88,151.72 C 159.91,151.71 159.96,151.72 160.0,151.72 160.1,151.72 160.3,151.68 160.41,151.78 160.55,151.89 160.67,152.14 160.56,152.28 160.53,152.46 160.3,152.56 160.09,152.63 159.74,152.76 159.35,152.76 159.28,152.63 159.24,152.53 159.33,152.4 159.44,152.25 159.55,152.08 159.68,151.94 159.78,151.84 159.82,151.79 159.84,151.73 159.88,151.72 z M 138.59,152.84 C 138.7,152.86 138.81,152.92 138.88,152.97 139.09,153.08 139.2,153.35 139.16,153.56 139.16,153.88 138.97,154.13 138.69,154.31 138.41,154.45 138.03,154.52 137.78,154.34 137.6,154.2 137.5,153.91 137.5,153.66 137.53,153.45 137.64,153.24 137.81,153.09 137.92,152.99 138.1,152.91 138.28,152.88 138.39,152.85 138.49,152.83 138.59,152.84 z M 161.38,152.84 C 161.48,152.83 161.58,152.85 161.69,152.88 161.86,152.91 162.05,152.99 162.19,153.09 162.33,153.24 162.47,153.45 162.47,153.66 162.5,153.91 162.37,154.2 162.19,154.34 161.94,154.52 161.6,154.45 161.28,154.31 161.03,154.13 160.81,153.88 160.81,153.56 160.81,153.35 160.92,153.08 161.09,152.97 161.18,152.92 161.27,152.86 161.38,152.84 z M 143.91,152.88 C 143.91,152.88 143.91,152.94 143.94,152.94 144.05,153.15 144.2,153.36 144.38,153.5 144.49,153.57 144.58,153.65 144.69,153.72 144.79,153.79 144.95,153.8 145.09,153.84 145.19,153.87 145.34,153.88 145.44,153.88 145.73,153.88 146.0,153.82 146.25,153.72 146.39,153.65 146.52,153.57 146.66,153.5 146.77,153.43 146.9,153.35 146.97,153.28 147.11,153.17 147.2,153.04 147.31,152.94 147.35,152.94 147.34,152.88 147.34,152.88 147.34,153.01 147.38,153.16 147.38,153.31 147.45,153.63 147.55,154.0 147.66,154.28 147.62,154.53 147.6,154.78 147.53,155.03 147.39,155.56 147.16,156.04 146.91,156.47 146.66,156.9 146.34,157.22 146.06,157.44 145.88,157.54 145.76,157.59 145.63,157.66 145.49,157.7 145.3,157.75 145.16,157.75 145.02,157.75 144.87,157.7 144.72,157.66 144.58,157.59 144.4,157.54 144.25,157.44 143.97,157.22 143.71,156.9 143.53,156.47 143.32,156.04 143.19,155.56 143.16,155.03 L 143.16,154.28 C 143.37,154.0 143.54,153.63 143.72,153.31 143.79,153.16 143.87,153.01 143.91,152.88 z M 152.63,152.88 152.66,152.94 C 152.77,153.04 152.88,153.17 153.03,153.28 153.13,153.35 153.2,153.43 153.31,153.5 153.45,153.57 153.58,153.65 153.72,153.72 153.97,153.82 154.25,153.88 154.53,153.88 154.67,153.88 154.8,153.87 154.94,153.84 155.05,153.8 155.18,153.79 155.28,153.72 155.39,153.65 155.52,153.57 155.59,153.5 155.8,153.36 155.96,153.15 156.06,152.94 L 156.06,152.88 C 156.13,153.01 156.21,153.16 156.25,153.31 156.43,153.63 156.59,154.0 156.81,154.28 156.81,154.53 156.84,154.78 156.81,155.03 156.77,155.56 156.66,156.04 156.44,156.47 156.27,156.9 156.0,157.22 155.72,157.44 155.58,157.54 155.42,157.59 155.25,157.66 155.11,157.7 154.95,157.75 154.81,157.75 154.67,157.75 154.56,157.7 154.38,157.66 154.24,157.59 154.09,157.54 153.91,157.44 153.63,157.22 153.31,156.9 153.06,156.47 152.81,156.04 152.62,155.56 152.47,155.03 152.4,154.78 152.34,154.53 152.31,154.28 152.45,154.0 152.52,153.63 152.59,153.31 152.59,153.16 152.63,153.01 152.63,152.88 z M 139.91,152.94 C 140.03,152.92 140.15,152.92 140.25,152.94 140.46,153.01 140.59,153.09 140.66,153.31 140.77,153.52 140.76,153.81 140.72,154.06 140.68,154.24 140.64,154.34 140.5,154.41 140.28,154.56 139.91,154.59 139.66,154.38 139.48,154.24 139.37,154.03 139.34,153.78 139.3,153.53 139.41,153.2 139.59,153.06 139.68,152.99 139.79,152.96 139.91,152.94 z M 159.72,152.94 C 159.93,152.9 160.2,152.92 160.38,153.06 160.59,153.2 160.67,153.53 160.63,153.78 160.6,154.03 160.49,154.24 160.31,154.38 160.07,154.59 159.69,154.56 159.47,154.41 159.37,154.34 159.29,154.24 159.25,154.06 159.22,153.81 159.24,153.52 159.31,153.31 159.38,153.09 159.55,153.01 159.72,152.94 z M 136.78,153.25 C 136.95,153.21 137.18,153.24 137.28,153.34 137.39,153.48 137.32,153.78 137.25,154.03 137.14,154.34 137.04,154.67 136.72,154.78 136.57,154.81 136.36,154.76 136.22,154.69 136.01,154.51 136.08,154.13 136.22,153.81 136.33,153.53 136.49,153.32 136.78,153.25 z M 162.94,153.25 C 163.03,153.23 163.13,153.23 163.22,153.25 163.47,153.32 163.64,153.53 163.78,153.81 163.88,154.13 163.96,154.51 163.75,154.69 163.65,154.76 163.39,154.81 163.25,154.78 162.96,154.67 162.83,154.34 162.72,154.03 162.65,153.78 162.58,153.48 162.72,153.34 162.75,153.29 162.84,153.27 162.94,153.25 z M 139.06,154.69 C 139.24,154.69 139.42,154.79 139.53,154.94 139.74,155.15 139.73,155.47 139.66,155.75 139.55,156.07 139.34,156.37 139.09,156.41 138.88,156.48 138.58,156.36 138.44,156.19 138.16,155.94 138.16,155.51 138.34,155.16 138.48,154.88 138.78,154.65 139.06,154.69 z M 160.91,154.69 C 161.19,154.65 161.48,154.88 161.66,155.16 161.84,155.51 161.81,155.94 161.56,156.19 161.39,156.36 161.12,156.48 160.91,156.41 160.62,156.37 160.42,156.07 160.31,155.75 160.24,155.47 160.25,155.15 160.47,154.94 160.57,154.79 160.73,154.69 160.91,154.69 z M 140.53,154.78 C 140.59,154.81 140.62,154.86 140.66,154.94 140.77,155.08 140.78,155.35 140.78,155.59 140.82,155.88 140.8,156.14 140.69,156.28 140.59,156.42 140.4,156.39 140.22,156.25 139.98,156.03 139.81,155.65 139.88,155.34 139.95,155.09 140.16,154.85 140.34,154.81 140.41,154.78 140.48,154.75 140.53,154.78 z M 159.47,154.78 C 159.53,154.75 159.6,154.78 159.69,154.81 159.83,154.85 160.02,155.09 160.09,155.34 160.2,155.65 160.0,156.03 159.78,156.25 159.61,156.39 159.42,156.42 159.28,156.28 159.21,156.14 159.16,155.88 159.19,155.59 159.19,155.35 159.24,155.08 159.31,154.94 159.35,154.86 159.41,154.81 159.47,154.78 z M 137.22,154.84 C 137.4,154.8 137.64,154.83 137.78,154.97 137.96,155.15 137.95,155.5 137.88,155.75 137.84,155.93 137.79,156.07 137.72,156.25 137.54,156.46 137.31,156.69 137.06,156.69 136.92,156.69 136.8,156.58 136.69,156.47 136.48,156.19 136.51,155.82 136.66,155.47 136.76,155.18 136.94,154.91 137.22,154.84 z M 162.47,154.84 C 162.57,154.82 162.68,154.82 162.78,154.84 163.03,154.91 163.23,155.18 163.34,155.47 163.48,155.82 163.49,156.19 163.28,156.47 163.21,156.58 163.05,156.69 162.91,156.69 162.66,156.69 162.45,156.46 162.31,156.25 162.2,156.07 162.12,155.93 162.09,155.75 162.02,155.5 162.02,155.15 162.19,154.97 162.26,154.9 162.36,154.87 162.47,154.84 z M 136.03,155.09 C 136.09,155.07 136.16,155.07 136.22,155.09 136.36,155.12 136.43,155.3 136.47,155.44 136.5,155.73 136.44,155.91 136.41,156.16 136.37,156.41 136.34,156.65 136.19,156.72 136.05,156.79 135.87,156.76 135.72,156.69 135.48,156.52 135.43,156.16 135.47,155.88 135.54,155.63 135.66,155.4 135.88,155.22 135.93,155.16 135.97,155.12 136.03,155.09 z M 163.75,155.09 C 163.86,155.05 164.02,155.11 164.13,155.22 164.34,155.4 164.46,155.63 164.5,155.88 164.53,156.16 164.5,156.52 164.25,156.69 164.11,156.76 163.92,156.79 163.81,156.72 163.64,156.65 163.64,156.41 163.56,156.16 163.53,155.91 163.46,155.73 163.53,155.44 163.53,155.3 163.65,155.12 163.75,155.09 z M 142.5,155.19 C 142.54,155.34 142.53,155.49 142.53,155.59 142.6,155.95 142.67,156.27 142.78,156.59 142.74,156.83 142.7,157.04 142.63,157.28 142.49,157.82 142.3,158.36 142.09,158.75 141.99,159.0 141.89,159.16 141.75,159.34 141.89,158.42 141.96,157.45 142.0,156.5 142.03,156.21 142.03,155.95 142.03,155.63 142.21,155.51 142.36,155.37 142.5,155.19 z M 148.19,155.19 C 148.29,155.34 148.42,155.45 148.53,155.56 148.63,155.66 148.7,155.74 148.81,155.81 148.95,155.88 149.05,155.93 149.19,156.0 149.44,156.11 149.72,156.16 150.0,156.16 150.11,156.16 150.24,156.16 150.38,156.13 150.53,156.09 150.68,156.03 150.78,156.0 150.92,155.93 151.06,155.88 151.16,155.81 151.41,155.63 151.6,155.44 151.78,155.19 L 151.81,155.19 C 151.85,155.34 151.87,155.49 151.91,155.59 152.01,155.95 152.17,156.27 152.31,156.59 152.27,156.83 152.23,157.04 152.19,157.28 152.08,157.82 151.91,158.36 151.66,158.75 151.41,159.17 151.13,159.51 150.84,159.72 150.7,159.83 150.58,159.91 150.44,159.94 150.26,159.98 150.15,160.0 150.0,160.0 149.86,160.0 149.73,159.98 149.59,159.94 149.45,159.91 149.26,159.83 149.13,159.72 148.84,159.51 148.56,159.17 148.31,158.75 148.1,158.36 147.89,157.82 147.78,157.28 147.75,157.04 147.69,156.83 147.66,156.59 147.83,156.27 147.96,155.95 148.06,155.59 148.14,155.49 148.15,155.34 148.19,155.19 z M 157.47,155.19 C 157.61,155.37 157.8,155.51 157.94,155.63 157.94,155.95 157.93,156.21 157.97,156.5 158.0,157.45 158.12,158.42 158.22,159.34 158.12,159.16 157.99,159.0 157.88,158.75 157.67,158.36 157.48,157.82 157.34,157.28 157.3,157.04 157.22,156.83 157.19,156.59 157.29,156.27 157.41,155.95 157.44,155.59 157.44,155.49 157.47,155.34 157.47,155.19 z M 140.25,156.56 C 140.35,156.57 140.43,156.62 140.5,156.69 140.64,156.87 140.66,157.15 140.66,157.44 140.66,157.61 140.66,157.83 140.59,158.0 140.52,158.25 140.34,158.46 140.16,158.5 140.02,158.54 139.83,158.39 139.69,158.22 139.48,157.97 139.35,157.63 139.38,157.31 139.45,156.99 139.69,156.76 139.94,156.63 140.04,156.59 140.15,156.55 140.25,156.56 z M 159.72,156.56 C 159.82,156.55 159.93,156.59 160.03,156.63 160.28,156.76 160.55,156.99 160.59,157.31 160.66,157.63 160.49,157.97 160.28,158.22 160.14,158.39 159.99,158.54 159.81,158.5 159.63,158.46 159.45,158.25 159.38,158.0 159.31,157.83 159.31,157.61 159.31,157.44 159.31,157.15 159.37,156.87 159.47,156.69 159.54,156.62 159.62,156.57 159.72,156.56 z M 138.16,156.78 C 138.41,156.78 138.67,156.92 138.81,157.13 138.98,157.34 139.01,157.63 138.94,157.91 138.94,158.09 138.91,158.24 138.81,158.38 138.67,158.6 138.35,158.73 138.06,158.69 137.81,158.66 137.6,158.49 137.5,158.28 137.32,158.03 137.31,157.72 137.41,157.44 137.56,157.12 137.84,156.81 138.16,156.78 z M 161.81,156.78 C 162.13,156.81 162.42,157.12 162.56,157.44 162.66,157.72 162.64,158.03 162.5,158.28 162.36,158.49 162.16,158.66 161.91,158.69 161.63,158.73 161.33,158.6 161.16,158.38 161.08,158.24 161.03,158.09 161.03,157.91 161.0,157.63 160.98,157.34 161.16,157.13 161.3,156.92 161.6,156.78 161.81,156.78 z M 136.22,157.13 C 136.43,157.09 136.64,157.14 136.81,157.28 137.03,157.5 137.06,157.81 137.03,158.13 136.95,158.48 136.82,158.83 136.5,158.94 136.36,158.98 136.17,158.99 136.03,158.91 135.71,158.77 135.59,158.29 135.66,157.88 135.73,157.49 135.9,157.16 136.22,157.13 z M 163.44,157.13 C 163.54,157.1 163.66,157.1 163.75,157.13 164.07,157.16 164.24,157.49 164.31,157.88 164.38,158.29 164.29,158.77 163.94,158.91 163.8,158.99 163.61,158.98 163.47,158.94 163.18,158.83 163.01,158.48 162.97,158.13 162.9,157.81 162.95,157.5 163.16,157.28 163.25,157.21 163.33,157.16 163.44,157.13 z M 156.69,157.47 C 156.73,157.61 156.77,157.74 156.81,157.88 156.91,158.2 157.02,158.53 157.16,158.84 157.13,159.09 157.1,159.35 157.03,159.56 156.89,160.09 156.67,160.61 156.38,161.03 156.13,161.46 155.81,161.78 155.53,162.0 155.35,162.1 155.2,162.18 155.06,162.22 154.92,162.29 154.8,162.28 154.66,162.28 154.51,162.28 154.36,162.29 154.22,162.22 154.08,162.18 153.93,162.1 153.78,162.0 153.5,161.78 153.24,161.46 153.03,161.03 152.81,160.61 152.64,160.09 152.53,159.56 152.49,159.35 152.45,159.09 152.41,158.84 152.59,158.53 152.71,158.2 152.81,157.88 152.85,157.75 152.87,157.63 152.91,157.5 153.02,157.6 153.15,157.74 153.25,157.84 153.36,157.91 153.49,157.99 153.59,158.06 153.7,158.14 153.83,158.21 153.97,158.28 154.26,158.38 154.53,158.44 154.81,158.44 154.95,158.44 155.11,158.41 155.25,158.41 155.39,158.37 155.52,158.35 155.66,158.28 155.8,158.21 155.92,158.14 156.06,158.06 156.31,157.92 156.48,157.71 156.66,157.5 z M 143.31,157.5 C 143.48,157.71 143.7,157.92 143.91,158.06 144.05,158.14 144.2,158.21 144.34,158.28 144.45,158.35 144.58,158.37 144.72,158.41 144.87,158.41 145.02,158.44 145.16,158.44 145.44,158.44 145.72,158.38 146.0,158.28 146.14,158.21 146.26,158.14 146.38,158.06 146.49,157.99 146.61,157.91 146.72,157.84 146.86,157.74 146.96,157.6 147.06,157.5 147.1,157.63 147.12,157.75 147.16,157.88 147.27,158.2 147.38,158.53 147.56,158.84 147.52,159.09 147.48,159.35 147.44,159.56 147.34,160.09 147.18,160.61 146.97,161.03 146.75,161.46 146.47,161.78 146.19,162.0 146.08,162.1 145.88,162.18 145.78,162.22 145.64,162.29 145.51,162.28 145.38,162.28 145.24,162.28 145.09,162.29 144.91,162.22 144.77,162.18 144.61,162.1 144.47,162.0 144.15,161.78 143.84,161.46 143.59,161.03 143.31,160.61 143.08,160.09 142.94,159.56 142.91,159.35 142.85,159.09 142.81,158.84 142.95,158.53 143.08,158.2 143.16,157.88 143.22,157.74 143.28,157.63 143.31,157.5 z M 139.22,158.81 C 139.31,158.81 139.38,158.8 139.47,158.81 139.75,158.84 140.01,158.99 140.13,159.16 140.16,159.27 140.16,159.42 140.16,159.56 140.13,159.78 140.07,160.09 139.97,160.34 139.82,160.66 139.67,160.92 139.38,160.88 139.1,160.85 138.71,160.51 138.53,160.13 138.36,159.78 138.35,159.34 138.56,159.09 138.72,158.91 138.96,158.83 139.22,158.81 z M 160.53,158.81 C 160.85,158.77 161.2,158.84 161.41,159.09 161.63,159.34 161.62,159.78 161.44,160.13 161.26,160.51 160.87,160.85 160.59,160.88 160.3,160.92 160.14,160.66 160.0,160.34 159.92,160.09 159.84,159.78 159.81,159.56 159.81,159.42 159.81,159.27 159.84,159.16 159.95,158.99 160.21,158.84 160.53,158.81 z M 137.34,159.0 C 137.59,158.96 137.93,159.02 138.0,159.16 138.07,159.3 138.03,159.48 138.03,159.66 138.03,159.87 138.12,160.09 138.09,160.34 138.05,160.55 137.88,160.78 137.66,160.88 137.41,160.95 137.12,160.84 136.94,160.66 136.66,160.38 136.55,159.92 136.69,159.56 136.8,159.28 136.99,159.07 137.34,159.0 z M 162.28,159.0 C 162.41,158.97 162.54,158.98 162.66,159.0 162.98,159.07 163.17,159.28 163.28,159.56 163.42,159.92 163.35,160.38 163.03,160.66 162.86,160.84 162.56,160.95 162.31,160.88 162.1,160.78 161.91,160.55 161.91,160.34 161.87,160.09 161.94,159.87 161.94,159.66 161.94,159.48 161.9,159.3 161.97,159.16 162.02,159.09 162.16,159.03 162.28,159.0 z M 135.63,159.25 C 135.73,159.22 135.84,159.25 135.91,159.28 136.05,159.35 136.1,159.52 136.13,159.66 136.17,159.84 136.16,159.99 136.16,160.13 L 136.16,160.38 C 136.16,160.48 136.16,160.62 136.09,160.72 135.95,160.86 135.62,160.89 135.44,160.78 135.19,160.64 135.13,160.41 135.13,160.13 135.1,159.85 135.17,159.59 135.34,159.41 135.43,159.34 135.52,159.28 135.63,159.25 z M 164.34,159.25 C 164.45,159.28 164.54,159.34 164.63,159.41 164.84,159.59 164.88,159.85 164.88,160.13 164.84,160.41 164.78,160.64 164.53,160.78 164.35,160.89 164.05,160.86 163.94,160.72 163.87,160.62 163.81,160.48 163.81,160.38 L 163.81,160.13 C 163.81,159.99 163.84,159.84 163.88,159.66 163.91,159.52 163.95,159.35 164.06,159.28 164.13,159.25 164.24,159.22 164.34,159.25 z M 142.31,159.78 C 142.35,159.88 142.38,160.02 142.41,160.16 142.55,160.48 142.7,160.84 142.88,161.16 142.88,161.37 142.84,161.63 142.84,161.88 142.77,162.41 142.7,162.88 142.56,163.31 142.42,163.73 142.24,164.06 142.03,164.28 141.92,164.38 141.83,164.43 141.72,164.5 141.62,164.54 141.48,164.59 141.38,164.59 141.26,164.59 141.11,164.54 141.0,164.5 140.86,164.43 140.73,164.38 140.59,164.28 140.48,164.17 140.33,164.05 140.19,163.91 140.29,163.77 140.39,163.64 140.5,163.5 140.82,163.04 141.07,162.45 141.25,161.88 141.39,161.42 141.49,160.93 141.56,160.47 141.63,160.44 141.71,160.41 141.75,160.34 141.96,160.2 142.14,159.99 142.31,159.78 z M 148.16,159.78 C 148.27,159.92 148.38,160.01 148.53,160.13 148.6,160.2 148.7,160.27 148.81,160.34 148.95,160.45 149.05,160.5 149.19,160.53 149.44,160.64 149.72,160.72 150.0,160.72 150.11,160.72 150.24,160.72 150.38,160.69 150.53,160.65 150.68,160.61 150.78,160.53 150.92,160.5 151.06,160.45 151.16,160.34 151.41,160.2 151.63,159.99 151.81,159.78 L 151.84,159.78 C 151.84,159.88 151.87,160.02 151.91,160.16 152.01,160.48 152.14,160.84 152.28,161.16 152.25,161.37 152.2,161.63 152.13,161.88 151.99,162.41 151.81,162.88 151.56,163.31 151.31,163.73 151.07,164.06 150.78,164.28 150.64,164.38 150.49,164.43 150.38,164.5 150.24,164.54 150.11,164.59 150.0,164.59 149.86,164.59 149.74,164.54 149.63,164.5 149.49,164.43 149.33,164.38 149.19,164.28 148.94,164.06 148.66,163.73 148.41,163.31 148.16,162.88 147.98,162.41 147.84,161.88 147.77,161.63 147.73,161.37 147.69,161.16 147.83,160.84 147.96,160.48 148.06,160.16 148.1,160.02 148.13,159.88 148.16,159.78 z M 157.66,159.78 157.69,159.78 C 157.83,159.99 158.01,160.2 158.22,160.34 158.29,160.38 158.34,160.44 158.41,160.47 158.48,160.93 158.58,161.42 158.72,161.88 158.9,162.45 159.16,163.04 159.47,163.5 159.58,163.64 159.68,163.77 159.78,163.91 159.64,164.05 159.49,164.17 159.38,164.28 159.24,164.38 159.11,164.43 158.97,164.5 158.86,164.54 158.74,164.59 158.63,164.59 158.53,164.59 158.39,164.54 158.28,164.5 158.14,164.43 158.05,164.38 157.94,164.28 157.76,164.06 157.55,163.73 157.44,163.31 157.3,162.88 157.2,162.41 157.16,161.88 157.13,161.63 157.13,161.37 157.13,161.16 157.29,160.84 157.45,160.48 157.56,160.16 157.6,160.02 157.62,159.88 157.66,159.78 z M 138.25,161.0 C 138.53,160.96 138.84,161.08 139.13,161.22 139.37,161.36 139.59,161.54 139.59,161.78 139.62,162.07 139.45,162.43 139.28,162.72 139.03,163.04 138.7,163.19 138.38,163.16 138.13,163.16 137.86,163.0 137.72,162.75 137.54,162.47 137.49,162.08 137.59,161.72 137.7,161.41 137.97,161.07 138.25,161.0 z M 161.72,161.0 C 162.01,161.07 162.26,161.41 162.38,161.72 162.49,162.08 162.47,162.47 162.25,162.75 162.11,163.0 161.84,163.16 161.59,163.16 161.27,163.19 161.0,163.04 160.75,162.72 160.54,162.43 160.34,162.07 160.38,161.78 160.38,161.54 160.59,161.36 160.84,161.22 161.12,161.08 161.44,160.96 161.72,161.0 z M 136.63,161.13 C 136.69,161.12 136.75,161.14 136.81,161.16 137.03,161.19 137.18,161.32 137.25,161.5 137.39,161.75 137.32,162.02 137.25,162.31 137.21,162.45 137.17,162.61 137.06,162.72 136.92,162.86 136.71,162.92 136.53,162.88 136.21,162.81 136.04,162.5 135.97,162.22 135.94,161.94 135.99,161.68 136.13,161.47 136.26,161.3 136.43,161.15 136.63,161.13 z M 163.34,161.13 C 163.54,161.15 163.74,161.3 163.88,161.47 164.02,161.68 164.04,161.94 164.0,162.22 163.93,162.5 163.75,162.81 163.47,162.88 163.26,162.92 163.05,162.86 162.91,162.72 162.84,162.61 162.78,162.45 162.75,162.31 162.68,162.02 162.58,161.75 162.72,161.5 162.79,161.32 162.98,161.19 163.16,161.16 163.22,161.14 163.28,161.12 163.34,161.13 z M 135.38,161.19 C 135.49,161.16 135.64,161.26 135.75,161.38 135.96,161.63 135.88,161.89 135.84,162.25 135.8,162.49 135.76,162.77 135.63,162.84 135.49,162.87 135.26,162.74 135.13,162.56 134.92,162.32 134.95,161.99 135.06,161.63 135.13,161.42 135.2,161.19 135.38,161.19 z M 164.59,161.19 C 164.77,161.19 164.88,161.42 164.91,161.63 165.02,161.99 165.05,162.32 164.84,162.56 164.73,162.74 164.49,162.87 164.38,162.84 164.24,162.77 164.22,162.49 164.19,162.25 164.12,161.89 164.05,161.63 164.22,161.38 164.33,161.26 164.49,161.16 164.59,161.19 z M 143.53,162.03 C 143.74,162.28 143.94,162.45 144.19,162.63 144.33,162.7 144.49,162.77 144.59,162.84 144.73,162.87 144.86,162.91 145.0,162.94 145.14,162.98 145.3,163.0 145.41,163.0 145.69,163.0 145.97,162.94 146.22,162.84 146.33,162.77 146.45,162.7 146.56,162.63 146.66,162.54 146.73,162.45 146.84,162.38 146.95,162.26 147.05,162.17 147.16,162.03 147.19,162.17 147.24,162.27 147.31,162.41 147.42,162.77 147.55,163.1 147.69,163.41 147.69,163.63 147.67,163.89 147.63,164.13 147.56,164.66 147.42,165.16 147.28,165.59 147.1,166.01 146.88,166.36 146.63,166.53 146.51,166.64 146.42,166.75 146.28,166.78 146.18,166.82 146.08,166.84 145.94,166.84 145.83,166.84 145.67,166.82 145.53,166.78 145.39,166.75 145.28,166.64 145.13,166.53 144.85,166.36 144.5,166.01 144.22,165.59 143.93,165.16 143.65,164.66 143.47,164.13 143.37,163.89 143.32,163.66 143.25,163.41 143.35,163.1 143.4,162.77 143.44,162.41 143.47,162.27 143.49,162.17 143.53,162.03 z M 152.81,162.03 C 152.92,162.17 153.03,162.26 153.13,162.38 153.24,162.45 153.3,162.54 153.41,162.63 153.51,162.7 153.64,162.77 153.78,162.84 154.0,162.94 154.28,163.0 154.56,163.0 154.71,163.0 154.83,162.98 154.97,162.94 155.12,162.91 155.24,162.87 155.38,162.84 155.51,162.77 155.64,162.7 155.78,162.63 156.03,162.45 156.23,162.28 156.44,162.03 L 156.5,162.03 C 156.5,162.17 156.5,162.27 156.53,162.41 156.57,162.77 156.64,163.1 156.75,163.41 156.68,163.63 156.6,163.89 156.5,164.13 156.32,164.66 156.04,165.16 155.75,165.59 155.47,166.01 155.16,166.36 154.88,166.53 154.74,166.64 154.58,166.75 154.44,166.78 154.3,166.82 154.17,166.84 154.03,166.84 153.93,166.84 153.79,166.82 153.69,166.78 153.55,166.75 153.45,166.64 153.34,166.53 153.1,166.36 152.86,166.01 152.72,165.59 152.54,165.16 152.41,164.66 152.34,164.13 152.31,163.89 152.28,163.66 152.28,163.41 152.46,163.1 152.54,162.77 152.69,162.41 152.72,162.27 152.78,162.17 152.81,162.03 z M 135.88,163.0 C 135.92,162.98 135.96,162.99 136.0,163.0 136.17,163.0 136.33,163.17 136.47,163.34 136.65,163.63 136.75,163.88 136.72,164.19 136.65,164.41 136.56,164.64 136.38,164.72 136.17,164.75 135.87,164.55 135.72,164.34 135.51,164.05 135.4,163.76 135.5,163.44 135.58,163.25 135.73,163.07 135.88,163.0 z M 163.97,163.0 C 164.15,162.96 164.36,163.19 164.47,163.44 164.58,163.76 164.5,164.05 164.28,164.34 164.11,164.55 163.83,164.75 163.66,164.72 163.48,164.64 163.32,164.41 163.28,164.19 163.21,163.88 163.33,163.63 163.5,163.34 163.65,163.17 163.8,163.0 163.97,163.0 z M 137.59,163.16 C 137.71,163.17 137.82,163.23 137.91,163.28 138.12,163.42 138.24,163.6 138.31,163.81 138.42,164.13 138.45,164.44 138.31,164.69 138.2,164.87 138.02,165.0 137.84,165.0 137.59,165.0 137.36,164.84 137.19,164.59 137.01,164.31 136.87,164.01 136.94,163.69 136.97,163.51 137.11,163.3 137.28,163.19 137.37,163.15 137.48,163.14 137.59,163.16 z M 162.38,163.16 C 162.49,163.14 162.6,163.15 162.69,163.19 162.87,163.3 163.0,163.51 163.03,163.69 163.1,164.01 163.0,164.31 162.78,164.59 162.61,164.84 162.38,165.0 162.13,165.0 161.95,165.0 161.77,164.87 161.66,164.69 161.52,164.44 161.55,164.13 161.66,163.81 161.73,163.6 161.85,163.42 162.06,163.28 162.15,163.23 162.26,163.17 162.38,163.16 z M 151.69,164.31 C 151.69,164.45 151.74,164.57 151.78,164.72 151.85,165.03 151.93,165.37 152.03,165.69 152.0,165.94 151.95,166.17 151.88,166.38 151.74,166.91 151.56,167.45 151.31,167.88 151.1,168.3 150.88,168.62 150.63,168.84 150.53,168.94 150.42,169.02 150.31,169.09 150.21,169.13 150.11,169.16 150.0,169.16 149.9,169.16 149.8,169.13 149.69,169.09 149.55,169.02 149.45,168.94 149.34,168.84 149.09,168.62 148.87,168.3 148.66,167.88 148.44,167.45 148.23,166.91 148.09,166.38 148.02,166.17 147.97,165.94 147.94,165.69 148.04,165.37 148.12,165.03 148.19,164.72 148.22,164.58 148.28,164.47 148.31,164.34 148.42,164.44 148.53,164.56 148.63,164.66 148.74,164.77 148.8,164.84 148.91,164.91 149.01,164.98 149.14,165.05 149.25,165.13 149.5,165.23 149.76,165.28 150.0,165.28 150.11,165.28 150.24,165.26 150.38,165.22 150.48,165.22 150.62,165.16 150.72,165.13 150.86,165.05 150.95,164.98 151.06,164.91 151.27,164.74 151.48,164.55 151.66,164.34 151.66,164.3 151.66,164.31 151.69,164.31 z M 139.88,164.34 C 139.99,164.44 140.12,164.56 140.22,164.66 140.29,164.77 140.39,164.84 140.5,164.91 140.6,164.98 140.74,165.05 140.88,165.13 141.09,165.23 141.31,165.28 141.53,165.28 141.63,165.28 141.74,165.26 141.84,165.22 141.95,165.22 142.06,165.16 142.16,165.13 142.27,165.05 142.36,164.98 142.47,164.91 142.64,164.74 142.78,164.55 142.88,164.34 142.94,164.47 143.0,164.58 143.06,164.72 143.2,165.03 143.38,165.37 143.59,165.69 143.63,165.94 143.63,166.17 143.66,166.38 143.7,166.91 143.7,167.45 143.63,167.88 143.59,168.3 143.48,168.62 143.34,168.84 143.27,168.94 143.2,169.02 143.13,169.09 143.06,169.13 142.94,169.16 142.84,169.16 142.77,169.16 142.67,169.13 142.53,169.09 142.42,169.02 142.26,168.94 142.13,168.84 141.84,168.62 141.55,168.3 141.19,167.88 140.87,167.45 140.53,166.91 140.25,166.38 140.11,166.1 139.99,165.79 139.88,165.47 139.88,165.22 139.88,164.95 139.84,164.66 L 139.84,164.41 C 139.84,164.38 139.86,164.37 139.88,164.34 z M 157.09,164.34 C 157.23,164.55 157.38,164.74 157.53,164.91 157.63,164.98 157.7,165.05 157.81,165.13 157.92,165.16 158.01,165.22 158.13,165.22 158.23,165.26 158.33,165.28 158.44,165.28 158.65,165.28 158.92,165.23 159.13,165.13 159.26,165.05 159.37,164.98 159.47,164.91 159.58,164.84 159.68,164.77 159.75,164.66 159.89,164.56 159.99,164.44 160.09,164.34 160.11,164.36 160.13,164.38 160.13,164.38 L 160.13,164.66 C 160.13,164.95 160.09,165.22 160.09,165.47 159.99,165.79 159.86,166.1 159.72,166.38 159.44,166.91 159.1,167.45 158.78,167.88 158.46,168.3 158.13,168.62 157.84,168.84 157.7,168.94 157.55,169.02 157.44,169.09 157.34,169.13 157.23,169.16 157.13,169.16 157.01,169.16 156.95,169.13 156.84,169.09 156.77,169.02 156.7,168.94 156.63,168.84 156.49,168.62 156.37,168.3 156.34,167.88 156.3,167.45 156.28,166.91 156.31,166.38 156.35,166.17 156.35,165.94 156.38,165.69 156.59,165.37 156.77,165.03 156.91,164.72 156.97,164.58 157.03,164.47 157.09,164.34 z M 137.13,165.09 C 137.18,165.09 137.23,165.11 137.28,165.13 137.53,165.16 137.71,165.28 137.78,165.5 137.85,165.71 137.82,166.0 137.72,166.25 137.61,166.5 137.42,166.71 137.25,166.75 137.0,166.78 136.67,166.54 136.53,166.22 136.39,165.91 136.42,165.5 136.63,165.28 136.76,165.15 136.95,165.09 137.13,165.09 z M 162.88,165.09 C 163.06,165.09 163.27,165.15 163.38,165.28 163.59,165.5 163.58,165.91 163.44,166.22 163.3,166.54 163.0,166.78 162.75,166.75 162.54,166.71 162.38,166.5 162.31,166.25 162.2,166.0 162.15,165.71 162.22,165.5 162.25,165.28 162.44,165.16 162.69,165.13 162.74,165.11 162.81,165.09 162.88,165.09 z M 139.38,165.25 139.38,165.59 C 139.35,166.01 139.29,166.35 139.22,166.56 139.19,166.63 139.2,166.71 139.16,166.75 L 139.16,166.44 C 139.16,166.12 139.21,165.76 139.31,165.44 139.31,165.37 139.35,165.32 139.38,165.25 z M 160.63,165.25 C 160.63,165.28 160.66,165.37 160.66,165.44 160.77,165.76 160.81,166.12 160.81,166.44 160.81,166.54 160.84,166.64 160.84,166.75 160.8,166.71 160.79,166.63 160.75,166.56 160.68,166.35 160.63,166.01 160.63,165.59 160.6,165.48 160.6,165.35 160.63,165.25 z M 139.84,166.47 C 139.92,166.65 140.01,166.83 140.13,167.0 140.34,167.36 140.53,167.71 140.78,168.03 140.92,168.21 141.05,168.33 141.19,168.47 141.19,168.51 141.22,168.55 141.25,168.59 141.22,168.77 141.14,168.99 141.03,169.16 140.92,169.41 140.81,169.66 140.63,169.84 140.49,169.73 140.37,169.58 140.22,169.47 139.91,169.12 139.59,168.77 139.41,168.34 139.3,168.09 139.26,167.88 139.22,167.63 139.36,167.63 139.49,167.52 139.56,167.41 139.6,167.34 139.66,167.27 139.66,167.16 139.69,167.09 139.72,167.04 139.72,166.97 139.75,166.83 139.81,166.7 139.81,166.56 139.81,166.52 139.84,166.51 139.84,166.47 z M 160.13,166.47 C 160.16,166.51 160.16,166.52 160.16,166.56 160.16,166.7 160.22,166.83 160.25,166.97 160.25,167.04 160.28,167.09 160.31,167.16 160.35,167.27 160.38,167.34 160.41,167.41 160.52,167.52 160.64,167.63 160.75,167.63 L 160.78,167.63 C 160.74,167.88 160.67,168.09 160.56,168.34 160.39,168.77 160.1,169.12 159.75,169.47 159.64,169.58 159.51,169.73 159.38,169.84 159.2,169.66 159.05,169.41 158.94,169.16 158.84,168.99 158.79,168.77 158.72,168.59 158.76,168.55 158.78,168.51 158.78,168.47 158.92,168.33 159.08,168.21 159.19,168.03 159.44,167.71 159.63,167.36 159.84,167.0 159.95,166.83 160.06,166.65 160.13,166.47 z M 144.25,166.59 144.31,166.59 C 144.52,166.81 144.72,167.02 144.97,167.16 145.08,167.27 145.23,167.35 145.34,167.38 145.48,167.45 145.57,167.49 145.72,167.53 145.82,167.56 145.92,167.56 146.06,167.56 146.27,167.56 146.54,167.49 146.72,167.38 146.82,167.35 146.92,167.27 147.03,167.16 L 147.25,166.97 C 147.36,166.86 147.43,166.74 147.5,166.59 L 147.53,166.59 C 147.57,166.7 147.59,166.86 147.63,167.0 147.76,167.36 147.91,167.71 148.09,168.03 148.05,168.49 148.01,168.98 147.97,169.44 147.94,169.97 147.88,170.47 147.84,171.03 147.81,171.35 147.77,171.71 147.56,171.88 147.38,172.06 147.1,172.1 146.81,172.06 146.35,172.03 146.04,171.75 145.72,171.47 145.22,170.97 144.91,170.33 144.66,169.66 144.45,169.16 144.29,168.62 144.22,168.06 L 144.22,168.03 C 144.25,167.71 144.31,167.36 144.31,167.0 144.31,166.86 144.29,166.7 144.25,166.59 z M 152.44,166.59 152.47,166.59 C 152.54,166.74 152.62,166.86 152.72,166.97 L 152.94,167.16 C 153.05,167.27 153.15,167.35 153.25,167.38 153.47,167.49 153.69,167.56 153.94,167.56 154.04,167.56 154.14,167.56 154.25,167.53 154.39,167.49 154.51,167.45 154.66,167.38 154.8,167.35 154.88,167.27 155.03,167.16 155.24,167.02 155.45,166.81 155.66,166.59 L 155.72,166.59 C 155.72,166.7 155.66,166.86 155.66,167.0 155.66,167.36 155.72,167.71 155.75,168.03 L 155.75,168.06 C 155.68,168.62 155.52,169.16 155.31,169.66 155.06,170.33 154.74,170.97 154.25,171.47 153.96,171.75 153.62,172.03 153.19,172.06 152.91,172.1 152.59,172.06 152.41,171.88 152.2,171.71 152.17,171.35 152.13,171.03 152.09,170.47 152.07,169.97 152.03,169.44 151.96,168.98 151.94,168.49 151.91,168.03 152.05,167.71 152.2,167.36 152.34,167.0 152.38,166.86 152.4,166.7 152.44,166.59 z M 141.5,168.84 C 141.5,168.87 141.53,168.87 141.53,168.91 141.67,169.01 141.77,169.11 141.91,169.22 142.02,169.32 142.11,169.4 142.22,169.47 142.32,169.54 142.46,169.62 142.56,169.69 142.78,169.79 142.98,169.88 143.16,169.88 143.26,169.88 143.34,169.84 143.41,169.84 143.52,169.8 143.59,169.76 143.66,169.69 143.7,169.62 143.77,169.54 143.84,169.47 143.94,169.3 144.02,169.12 144.09,168.91 144.13,169.74 144.42,170.55 144.88,171.28 145.16,171.74 145.55,172.13 145.97,172.41 145.48,172.49 144.93,172.42 144.47,172.25 144.01,172.07 143.58,171.73 143.19,171.41 142.8,171.09 142.41,170.77 142.13,170.38 141.81,169.99 141.62,169.5 141.44,169.0 141.47,168.97 141.5,168.91 141.5,168.84 z M 158.47,168.84 C 158.51,168.91 158.5,168.97 158.53,169.0 158.39,169.5 158.16,169.99 157.84,170.38 157.56,170.77 157.17,171.09 156.78,171.41 156.39,171.73 155.99,172.07 155.5,172.25 155.04,172.42 154.49,172.49 154.0,172.41 154.46,172.13 154.84,171.74 155.13,171.28 155.58,170.55 155.83,169.74 155.88,168.91 155.95,169.12 156.03,169.3 156.13,169.47 L 156.34,169.69 C 156.41,169.76 156.49,169.8 156.56,169.84 156.63,169.84 156.74,169.88 156.81,169.88 156.98,169.88 157.2,169.79 157.41,169.69 157.55,169.62 157.65,169.54 157.75,169.47 157.86,169.4 157.99,169.32 158.06,169.22 158.2,169.11 158.29,169.01 158.44,168.91 158.44,168.87 158.47,168.87 158.47,168.84 z M 148.59,168.91 C 148.69,169.01 148.76,169.11 148.88,169.22 148.95,169.32 149.01,169.4 149.13,169.47 149.2,169.54 149.3,169.62 149.41,169.69 149.59,169.79 149.79,169.88 150.0,169.88 150.07,169.88 150.17,169.84 150.28,169.84 150.38,169.8 150.45,169.76 150.56,169.69 150.67,169.62 150.76,169.54 150.88,169.47 151.06,169.3 151.23,169.12 151.38,168.91 151.41,169.56 151.5,170.18 151.5,170.88 L 151.5,171.41 C 151.43,171.45 151.39,171.49 151.31,171.53 151.1,171.64 150.9,171.77 150.69,171.84 150.47,171.91 150.22,171.94 150.0,171.94 149.76,171.94 149.5,171.91 149.28,171.84 149.07,171.77 148.87,171.64 148.66,171.53 148.62,171.49 148.54,171.45 148.47,171.41 L 148.47,170.88 C 148.47,170.18 148.59,169.56 148.59,168.91 z M 148.38,171.94 C 148.84,172.26 149.44,172.5 150.0,172.5 150.57,172.5 151.13,172.26 151.59,171.94 151.62,172.02 151.66,172.09 151.69,172.16 151.3,172.55 151.0,173.06 150.78,173.56 150.57,174.09 150.44,174.43 150.47,175.03 150.47,175.32 150.53,175.66 150.38,175.91 150.31,176.05 150.15,176.13 150.0,176.13 149.83,176.13 149.68,176.05 149.59,175.91 149.44,175.66 149.5,175.32 149.53,175.03 149.57,174.43 149.4,174.09 149.19,173.56 148.98,173.06 148.67,172.55 148.28,172.16 148.31,172.09 148.35,172.02 148.38,171.94 z"
		 />
		<!-- Prism Reference -->
		<cam mingh:cam="--verb EditSelectAll --verb ZoomSelection --verb FileSave " /> 
	 </g>
</svg>
