<svg
   xmlns:xlink="http://www.w3.org/1999/xlink"
   xmlns:svg="http://www.w3.org/2000/svg"
   xmlns="http://www.w3.org/2000/svg"
   xmlns:mingh="http://www.minghworld.com"
   width="300px"
   height="300px" >
   
	 <g>
		<!-- Paths -->
		<path style="fill:none;stroke:#000;stroke-width:0.25px;"
		 d="M 146.44,129.81 C 144.84,129.92 143.41,131.1 142.94,132.63 142.43,134.1 142.86,135.84 144.03,136.88 138.43,137.13 133.01,140.34 130.09,145.13 127.83,148.77 127.26,153.35 128.44,157.44 L 130.69,157.47 C 131.53,159.92 132.92,162.22 134.78,164.03 L 133.97,166.19 C 135.66,167.68 137.65,168.86 139.84,169.53 145.31,171.24 151.46,169.49 155.66,165.72 159.25,162.61 161.35,157.82 161.03,153.06 163.75,151.72 165.81,148.92 165.91,145.84 L 168.38,145.66 C 168.68,146.05 169.07,146.41 169.56,146.53 170.54,146.84 171.71,146.26 172.03,145.28 172.43,144.27 171.84,143.01 170.81,142.66 169.87,142.3 168.74,142.82 168.31,143.72 L 165.78,143.88 C 165.56,142.72 165.1,141.65 164.47,140.66 163.94,139.83 163.21,139.16 162.47,138.53 L 163.69,136.34 C 164.02,136.36 164.36,136.28 164.66,136.13 165.35,135.79 165.76,135.01 165.72,134.25 165.7,133.49 165.22,132.74 164.5,132.47 163.84,132.19 163.04,132.31 162.47,132.75 161.87,133.19 161.57,133.95 161.69,134.69 161.73,134.95 161.88,135.24 161.97,135.41 L 160.72,137.59 C 160.08,137.33 159.43,137.13 158.75,137.03 156.82,136.73 154.77,137.16 153.09,138.16 152.77,138.35 152.44,138.58 152.13,138.84 151.8,138.68 151.4,138.45 151.06,138.28 150.32,137.94 149.57,137.65 148.78,137.44 149.3,137.14 149.75,136.74 150.09,136.25 151.02,134.99 151.08,133.19 150.31,131.84 149.57,130.48 147.98,129.68 146.44,129.81 z M 146.78,131.94 C 147.28,131.94 147.8,132.11 148.19,132.5 148.93,133.24 148.93,134.51 148.19,135.25 147.41,136.03 146.15,136.03 145.41,135.25 144.63,134.51 144.63,133.24 145.41,132.5 145.78,132.11 146.28,131.94 146.78,131.94 z"
		 />
		 <path style="fill:#f00;stroke:none;"
		 d="M 144.38,138.41 C 141.82,138.45 139.25,139.21 136.88,140.63 131.49,143.85 128.41,149.59 129.72,155.94 135.17,155.74 142.06,153.43 147.13,150.75 147.07,150.43 146.99,150.15 146.97,149.81 146.94,149.42 146.99,149.01 147.09,148.66 147.31,148.02 147.71,147.53 148.34,147.28 149.02,147.03 149.77,147.14 150.41,147.47 150.76,147.65 151.11,147.89 151.44,148.22 153.03,147.26 156.53,145.0 156.53,145.0 156.16,144.47 155.78,143.95 155.31,143.44 154.8,142.88 154.29,142.34 153.72,141.84 150.95,139.47 147.67,138.35 144.38,138.41 z M 145.59,139.13 C 145.89,139.11 146.17,139.15 146.47,139.19 147.11,139.22 147.66,139.4 148.19,139.72 148.68,140.0 149.2,140.48 149.13,141.16 149.05,141.79 148.44,142.14 147.91,142.31 147.34,142.53 146.73,142.57 146.13,142.5 145.52,142.43 144.94,142.26 144.41,141.94 143.95,141.65 143.43,141.17 143.5,140.53 143.57,139.86 144.19,139.49 144.72,139.31 145.02,139.21 145.3,139.14 145.59,139.13 z M 139.84,143.56 C 141.72,143.49 143.12,145.16 143.16,146.97 143.23,148.78 141.94,150.52 140.03,150.59 138.12,150.63 136.76,148.96 136.69,147.16 136.65,145.35 137.93,143.6 139.84,143.56 z M 157.38,146.34 152.28,149.56 C 152.37,149.91 152.46,150.22 152.5,150.63 152.55,151.34 152.4,152.06 151.91,152.59 150.81,153.76 149.15,153.27 148.16,152.31 143.51,155.68 138.7,160.26 135.97,165.5 135.93,165.57 135.84,165.75 135.84,165.75 136.35,166.11 136.9,166.51 137.5,166.84 138.14,167.2 138.82,167.53 139.53,167.81 140.98,168.34 142.41,168.59 143.97,168.63 147.02,168.7 149.95,167.72 152.5,166.13 157.81,162.72 160.62,156.9 159.09,150.59 158.77,149.28 158.17,147.77 157.38,146.34 z M 132.47,147.53 C 132.67,147.54 132.87,147.61 133.03,147.75 133.59,148.17 133.78,148.9 133.81,149.56 133.84,150.6 133.61,151.68 132.94,152.5 132.62,152.89 132.15,153.21 131.63,153.13 131.49,153.1 131.37,153.07 131.25,153.0 130.69,152.64 130.47,151.94 130.41,151.31 130.33,150.49 130.47,149.66 130.81,148.91 131.05,148.41 131.38,147.92 131.88,147.66 132.06,147.56 132.26,147.52 132.47,147.53 z M 143.03,154.41 C 138.89,155.99 135.57,156.86 131.09,157.47 131.52,158.74 132.13,159.93 132.88,161.06 133.5,161.99 134.24,162.99 135.09,163.84 137.05,160.71 140.07,157.29 143.03,154.41 z M 157.19,154.69 C 157.33,154.67 157.47,154.67 157.63,154.72 158.23,154.93 158.46,155.66 158.53,156.19 158.6,156.83 158.49,157.4 158.28,157.97 158.07,158.57 157.77,159.04 157.34,159.47 156.95,159.89 156.35,160.31 155.75,160.09 155.11,159.85 154.91,159.16 154.88,158.59 154.8,157.99 154.91,157.41 155.13,156.81 155.3,156.25 155.57,155.74 156.03,155.28 156.32,154.99 156.75,154.73 157.19,154.69 z M 147.84,157.13 C 148.5,157.09 149.18,157.24 149.78,157.56 151.41,158.38 152.29,160.33 151.41,162.03 150.56,163.73 148.44,164.13 146.84,163.28 145.21,162.47 144.3,160.51 145.19,158.81 145.72,157.75 146.76,157.18 147.84,157.13 z M 141.06,164.25 C 141.5,164.22 141.95,164.27 142.41,164.41 143.01,164.58 143.5,164.82 144.0,165.25 144.43,165.6 144.83,166.17 144.66,166.81 144.48,167.45 143.82,167.71 143.25,167.78 142.65,167.89 142.07,167.8 141.47,167.63 140.87,167.48 140.37,167.24 139.88,166.81 139.45,166.46 139.04,165.89 139.22,165.25 139.4,164.61 140.06,164.35 140.63,164.28 140.78,164.25 140.92,164.26 141.06,164.25 z M 163.13,144.06 C 162.94,144.1 162.88,144.7 162.88,144.84 162.88,145.13 162.95,145.65 163.16,145.9 163.23,146.02 163.44,145.97 163.59,145.97 164.28,145.93 164.95,145.89 165.65,145.84 L 165.61,146.23 C 165.61,146.23 164.02,146.34 163.22,146.38 163.01,146.38 162.88,146.26 162.77,146.08 162.46,145.62 162.41,144.66 162.56,144.17 162.63,143.96 162.71,143.82 162.95,143.71 163.1,143.64 163.27,143.65 163.45,143.64 L 165.47,143.52 165.54,143.89 z M 161.15,140.84 C 161.55,140.13 161.95,139.4 162.3,138.77 162.38,138.82 162.54,138.93 162.63,139.0 L 162.6,139.07 C 162.18,139.81 161.78,140.66 161.36,141.19 161.22,141.37 160.98,141.35 160.79,141.3 160.27,141.16 159.41,140.77 159.13,140.31 159.02,140.13 158.98,139.95 159.05,139.78 159.45,139.05 159.86,138.34 160.23,137.68 L 160.61,137.83 C 160.18,138.57 159.81,139.25 159.44,139.92 159.41,139.95 159.42,140.01 159.42,140.05 159.57,140.33 160.05,140.61 160.33,140.73 160.45,140.79 161.04,141.05 161.15,140.84 z"
		 />
		<!-- Prism Reference -->
		<cam mingh:cam="--verb EditSelectAll --verb ZoomSelection --verb FileSave " /> 
	 </g>

</svg>
