<svg
   xmlns:xlink="http://www.w3.org/1999/xlink"
   xmlns:svg="http://www.w3.org/2000/svg"
   xmlns="http://www.w3.org/2000/svg"
   xmlns:mingh="http://www.minghworld.com"
   width="300px"
   height="300px" >
    
	 <g>
		<!-- Paths -->
		<path id="shape" transform="matrix(-1 0 0 1 300 0)" style="fill:#ff0;stroke:none;"
			d="M 137.0 126.13 C 134.6 126.01 132.15 127.07 130.69 129.0 C 129.02 131.03 128.88 133.93 129.53 136.38 C 126.95 136.51 124.85 138.37 123.88 140.69 C 122.5 143.45 122.94 147.16 125.56 149.03 C 128.42 151.11 132.2 150.56 135.5 150.25 C 138.55 149.72 141.39 151.31 143.66 153.19 C 146.51 155.53 149.91 157.12 152.78 159.44 C 155.37 161.67 154.59 165.42 155.69 168.34 C 156.77 172.97 162.88 175.46 166.81 172.72 C 169.57 171.05 169.8 167.43 169.13 164.59 C 171.79 164.5 174.2 162.89 175.66 160.72 C 177.62 157.98 177.15 153.9 174.69 151.63 C 172.7 149.61 169.69 149.2 167.0 149.56 C 164.73 149.88 162.37 149.74 160.25 148.81 C 156.31 147.09 152.64 144.73 149.38 141.94 C 150.97 142.1 152.61 141.21 153.34 139.78 C 154.16 138.31 153.9 136.35 152.75 135.13 C 151.64 133.87 149.73 133.42 148.19 134.09 C 146.63 134.72 145.58 136.38 145.69 138.06 C 144.55 136.16 144.37 133.9 143.75 131.81 C 143.22 129.51 141.57 127.49 139.34 126.66 C 138.6 126.34 137.8 126.16 137.0 126.13 z M 149.75 135.91 C 150.83 135.91 151.69 136.8 151.69 137.88 C 151.69 138.95 150.83 139.81 149.75 139.81 C 148.67 139.81 147.81 138.95 147.81 137.88 C 147.81 136.8 148.67 135.91 149.75 135.91 z" />

		<!-- Text -->
		<text id="txtTwo" dy="2.8" transform="matrix(1 0 0 1 150 150)" style="stroke:none;fill:#f00;font-family:'Eras Medium ITC';font-size:10px;text-anchor:middle" >
			</text>
		<!-- Prism Reference -->
		<cam mingh:cam=" --verb EditSelectAll --verb SelectionGroup --verb ZoomSelection --verb FileSave "/> 
	 </g>

</svg>