<svg
   xmlns:xlink="http://www.w3.org/1999/xlink"
   xmlns:svg="http://www.w3.org/2000/svg"
   xmlns="http://www.w3.org/2000/svg"
   xmlns:mingh="http://www.minghworld.com"
   width="300px"
   height="300px" >
   
	 <g>
		<!-- Paths -->
		<path id="left" style="fill:none;stroke:none" class="shape"
			d="M 128.56,130.01 C 125.87,132.09 123.89,135.25 123.63,138.68 122.83,144.19 124.64,149.82 127.94,154.23 132.54,160.41 138.76,165.17 145.22,169.24 146.61,170.11 148.02,170.94 149.45,171.74" />
		<path id="right" style="fill:none;stroke:none" class="shape"
			d="M 150.45,171.79 C 151.91,170.97 153.35,170.13 154.77,169.24 161.24,165.17 167.46,160.41 172.06,154.23 175.35,149.82 177.16,144.19 176.36,138.68 176.11,135.25 174.13,132.09 171.43,130.01" />
			
		<path class="shape" style="stroke:#000;stroke-width:0.25px;" fill="none"
			d="M 150.0,171.02 C 150.0,164.31 150.0,157.59 150.0,150.88 150.0,148.53 147.16,147.35 145.5,149.01 144.98,149.53 144.26,149.79 143.35,149.79 141.2,149.79 140.13,148.32 140.13,145.37 140.13,142.43 141.2,140.95 143.35,140.95 144.26,140.95 144.98,141.21 145.5,141.74 147.16,143.39 150.0,142.21 150.0,139.87 150.0,139.42 150.0,138.96 150.0,138.51 M 135.06,124.13 C 132.51,124.14 129.97,124.72 127.72,125.91 124.07,127.84 121.21,131.42 119.94,135.38 118.4,140.15 119.21,145.48 121.09,150.16 122.79,154.36 125.37,158.05 128.38,161.31 131.29,164.47 134.6,167.23 138.09,169.75 140.66,171.61 143.32,173.33 146.13,174.78 146.79,175.13 147.44,175.44 148.13,175.75 149.0,176.15 150.0,175.52 150.0,174.56 150.0,175.52 151.0,176.15 151.88,175.75 152.56,175.44 153.24,175.13 153.91,174.78 156.71,173.33 159.37,171.61 161.94,169.75 165.43,167.23 168.74,164.47 171.66,161.31 174.66,158.05 177.21,154.36 178.91,150.16 180.79,145.48 181.63,140.15 180.09,135.38 178.82,131.42 175.93,127.84 172.28,125.91 170.03,124.72 167.49,124.14 164.94,124.13 162.58,124.11 160.21,124.56 158.09,125.56 155.9,126.61 153.97,128.27 152.5,130.22 151.41,131.66 150.58,133.28 150.0,134.97 149.42,133.28 148.59,131.66 147.5,130.22 146.03,128.27 144.1,126.61 141.91,125.56 139.79,124.56 137.42,124.11 135.06,124.13 z M 132.69,127.22 C 133.57,127.22 134.28,127.93 134.28,128.81 134.28,129.69 133.57,130.41 132.69,130.41 131.81,130.41 131.09,129.69 131.09,128.81 131.09,127.93 131.81,127.22 132.69,127.22 z M 167.34,127.22 C 168.22,127.22 168.94,127.93 168.94,128.81 168.94,129.69 168.22,130.41 167.34,130.41 166.46,130.41 165.75,129.69 165.75,128.81 165.75,127.93 166.46,127.22 167.34,127.22 z" />
		 <path  class="shape" style="fill:none;stroke:#f0f;stroke-width:0.25px" 
			d="M 150.0,134.97 C 150.0,136.15 150.0,137.33 150.0,138.51 M 150.0,174.56 C 150.0,173.38 150.0,172.2 150.0,171.02" />
			
		 <path class="birth" style="fill:#00f;stroke:none;"
			d="M 144.01,134.34 C 144.01,136.59 142.18,138.41 139.93,138.41 137.68,138.41 135.86,136.59 135.86,134.34 135.86,132.09 137.68,130.26 139.93,130.26 142.18,130.26 144.01,132.09 144.01,134.34 z" />
		 <path class="birth" style="fill:#00f;stroke:none;"
			d="M 164.14,134.34 C 164.14,136.59 162.31,138.41 160.06,138.41 157.81,138.41 155.99,136.59 155.99,134.34 155.99,132.09 157.81,130.26 160.06,130.26 162.31,130.26 164.14,132.09 164.14,134.34 z" />
		 
		 <path class="diamond" style="fill:none;stroke:#000;stroke-width:0.25px;"
			d="M 142.77,134.34 C 142.77,135.9 141.5,137.17 139.93,137.17 138.37,137.17 137.1,135.9 137.1,134.34 137.1,132.77 138.37,131.5 139.93,131.5 141.5,131.5 142.77,132.77 142.77,134.34 z" />
		 <path class="diamond" style="fill:none;stroke:#000;stroke-width:0.25px;"
			d="M 162.9,134.34 C 162.9,135.9 161.63,137.17 160.06,137.17 158.5,137.17 157.23,135.9 157.23,134.34 157.23,132.77 158.5,131.5 160.06,131.5 161.63,131.5 162.9,132.77 162.9,134.34 z" />
		 
		 <text style="font-size:10px;font-family:'z_corsiva';fill:#f00;text-anchor:end" class="txt" >
			<textPath xlink:href="#left" startOffset="90%" />
		 </text>
		 
		 <text style="font-size:10px;font-family:'z_corsiva';fill:#f00;text-anchor:start" class="txt" >
			<textPath xlink:href="#right" startOffset="5%" />
		 </text>
		 
		<!-- Prism Reference -->
		<cam mingh:cam="--verb EditSelectAll --verb SelectionUnGroup --verb SelectionUnGroup --verb EditSelectAll --verb ObjectToPath --verb EditDeselect --select=left --select=right --verb EditDelete --verb EditSelectAll --verb ZoomSelection --verb SelectionGroup --verb FileSave" /> 
	 </g>

</svg>
