<svg
   xmlns:xlink="http://www.w3.org/1999/xlink"
   xmlns:svg="http://www.w3.org/2000/svg"
   xmlns="http://www.w3.org/2000/svg"
   xmlns:mingh="http://www.minghworld.com"
   width="300px"
   height="300px" >
	
	 <g>
		
		<!-- Paths -->
		<path transform="matrix(-1 0 0 1 300 0)" style="fill:#b4b4b4;stroke:none;"
		 d="M 152.21,139.6 C 152.2,141.24 152.23,142.89 152.19,144.53 152.04,146.25 150.06,147.46 148.46,146.81 147.58,146.52 147.09,145.57 146.13,145.44 144.78,145.11 143.11,145.49 142.43,146.8 141.63,148.33 141.67,150.15 141.92,151.82 142.12,153.12 143.03,154.44 144.42,154.62 145.59,154.85 146.89,154.56 147.7,153.64 148.96,152.59 151.07,153.0 151.84,154.45 152.41,155.45 152.15,156.63 152.21,157.72 152.21,158.62 152.21,159.52 152.21,160.42 M 135.44,122.88 C 134.5,122.88 133.56,123.03 132.69,123.34 131.29,123.83 130.61,125.41 130.84,126.81 130.87,127.93 131.83,128.62 132.25,129.56 132.94,131.15 131.81,133.11 130.09,133.31 127.39,133.38 124.65,133.33 121.94,133.34 121.55,133.34 121.16,133.34 120.78,133.44 119.62,133.72 118.73,134.83 118.75,136.03 118.74,138.36 118.75,140.71 118.75,143.03 118.76,143.76 118.66,144.5 118.94,145.19 119.44,146.55 121.08,147.32 122.44,146.81 123.17,146.61 123.61,145.93 124.28,145.63 125.31,145.2 126.55,145.2 127.53,145.75 128.72,146.46 129.06,147.93 129.16,149.22 129.23,150.64 129.18,152.17 128.41,153.41 127.7,154.54 126.21,154.85 124.97,154.63 124.23,154.53 123.69,154.03 123.16,153.56 121.97,152.67 120.12,152.97 119.28,154.19 118.69,154.93 118.72,155.92 118.75,156.81 118.75,159.19 118.74,161.59 118.75,163.97 118.73,164.93 119.28,165.85 120.13,166.31 120.78,166.71 121.57,166.68 122.31,166.66 L 127.28,166.66 C 128.4,166.71 129.54,166.54 130.63,166.84 132.38,167.41 133.06,169.84 131.84,171.22 131.0,171.97 130.68,173.13 130.84,174.22 130.95,175.53 132.01,176.59 133.28,176.84 134.93,177.23 136.74,177.24 138.34,176.63 139.78,176.09 140.33,174.44 140.09,173.0 139.94,172.06 139.23,171.45 138.78,170.69 137.93,169.07 139.11,166.84 140.94,166.69 143.58,166.62 146.23,166.67 148.88,166.66 148.99,166.66 149.1,166.69 149.22,166.69 149.91,166.72 150.64,166.56 151.19,166.13 151.84,165.62 152.23,164.8 152.22,163.97 152.21,164.97 152.82,165.94 153.72,166.38 154.41,166.74 155.21,166.66 155.97,166.66 156.21,166.65 156.45,166.65 156.69,166.66 157.79,166.7 158.93,166.51 159.97,166.97 161.53,167.7 162.0,169.93 160.84,171.22 159.99,172.0 159.72,173.23 159.91,174.34 160.03,175.67 161.19,176.63 162.44,176.88 164.12,177.23 165.97,177.26 167.56,176.56 169.01,175.93 169.44,174.16 169.09,172.72 168.85,171.72 167.86,171.16 167.66,170.16 167.17,168.56 168.44,166.79 170.09,166.69 172.75,166.66 175.41,166.66 178.06,166.66 178.45,166.66 178.87,166.69 179.25,166.59 180.41,166.31 181.3,165.17 181.28,163.97 181.29,161.64 181.28,159.33 181.28,157.0 181.27,156.27 181.37,155.5 181.09,154.81 180.59,153.45 178.92,152.68 177.56,153.19 176.83,153.39 176.42,154.1 175.75,154.41 174.72,154.83 173.48,154.8 172.5,154.25 171.31,153.54 170.97,152.1 170.88,150.81 170.8,149.39 170.85,147.83 171.63,146.59 172.33,145.46 173.79,145.18 175.03,145.41 175.77,145.5 176.34,146.0 176.88,146.47 178.06,147.36 179.92,147.03 180.75,145.81 181.34,145.07 181.31,144.08 181.28,143.19 L 181.28,138.84 C 181.27,137.84 181.29,136.82 181.25,135.81 181.18,134.62 180.21,133.56 179.03,133.38 L 178.88,133.38 C 176.77,133.34 174.64,133.35 172.53,133.34 171.43,133.29 170.27,133.52 169.22,133.13 167.58,132.47 167.02,130.15 168.19,128.81 169.13,127.97 169.39,126.6 169.09,125.41 168.85,124.1 167.62,123.26 166.38,123.06 164.78,122.78 163.04,122.79 161.53,123.44 159.67,124.25 159.23,127.01 160.53,128.41 161.57,129.52 161.83,131.28 160.78,132.41 160.01,133.36 158.72,133.41 157.59,133.34 156.46,133.38 155.34,133.25 154.22,133.44 153.76,133.56 153.33,133.81 153.0,134.16 152.5,134.65 152.22,135.36 152.22,136.06 152.22,135.78 152.18,135.48 152.09,135.22 151.82,134.33 151.04,133.61 150.13,133.41 L 149.97,133.38 C 148.09,133.3 146.2,133.36 144.31,133.34 143.04,133.3 141.72,133.45 140.47,133.22 138.69,132.75 137.91,130.34 139.06,128.91 139.75,128.23 140.2,127.32 140.16,126.34 140.24,125.04 139.44,123.74 138.19,123.31 137.31,123.02 136.37,122.87 135.44,122.88 z M 123.97,136.0 C 124.85,136.0 125.56,136.71 125.56,137.59 125.56,138.47 124.85,139.19 123.97,139.19 123.09,139.19 122.38,138.47 122.38,137.59 122.38,136.71 123.09,136.0 123.97,136.0 z M 176.03,136.0 C 176.91,136.0 177.63,136.71 177.63,137.59 177.63,138.47 176.91,139.19 176.03,139.19 175.15,139.19 174.44,138.47 174.44,137.59 174.44,136.71 175.15,136.0 176.03,136.0 z" />
		<text id="txtTwo" transform="matrix(1 0 0 1 150 160)" style="stroke:none;fill:#f00;font-family:'Eras Medium ITC';font-size:20px;text-anchor:middle"  />
		<!-- Prism Reference -->
		<cam mingh:cam=" --verb EditSelectAll --verb SelectionUnGroup --verb EditDeselect --select=txtOne --verb SelectionUnion --verb EditDeselect --verb EditSelectAll --verb SelectionUnGroup --verb EditDeselect --verb EditSelectAll --verb ZoomSelection --verb SelectionGroup  --verb FileSave"/> 
	 </g>

</svg>