<svg 
	xmlns="http://www.w3.org/2000/svg" 
	xmlns:mingh="http://www.minghworld.com" 
	xmlns:svg="http://www.w3.org/2000/svg" 
	xmlns:xlink="http://www.w3.org/1999/xlink" 
	height="300px" 
	width="300px" >
	
	 <g>
		<!-- Paths -->
		<path d="M 124.06 128.94 C 123.61 128.94 123.15 128.96 122.69 129.0 C 119.05 129.3 115.99 130.8 113.53 133.5 C 108.15 139.37 105.16 146.26 104.53 154.19 C 104.28 157.18 104.95 159.96 106.5 162.53 C 108.06 165.11 110.21 167.01 112.97 168.19 C 119.67 171.05 126.56 171.75 133.69 170.31 C 137.08 169.63 139.84 167.92 141.97 165.19 C 144.09 162.46 145.08 159.36 144.91 155.91 C 144.68 151.19 143.44 146.76 141.28 142.56 C 139.11 138.38 136.18 134.82 132.47 131.91 C 129.95 129.94 127.16 128.95 124.06 128.94 z M 124.72 130.84 C 125.81 130.84 126.69 131.75 126.69 132.84 C 126.69 133.94 125.81 134.81 124.72 134.81 C 123.63 134.81 122.75 133.94 122.75 132.84 C 122.75 131.75 123.63 130.84 124.72 130.84 z" style="fill:none;stroke:#000;stroke-width:0.25px;"/>
		 
		<path d="M 127.93,148.93 C 128.44,149.26 128.77,149.82 128.87,150.43 128.95,150.13 129.08,151.08 128.88,151.26 128.72,151.78 128.31,152.19 128.1,152.7 128.04,152.57 127.74,153.22 127.66,153.45 127.54,153.79 127.48,154.15 127.5,154.52 127.3,154.26 127.54,155.07 127.32,155.1 127.38,155.56 127.24,155.48 127.21,156.0 127.07,156.09 127.16,156.53 126.78,156.61 126.51,156.68 125.84,156.75 125.79,156.7 125.66,156.64 125.15,156.61 124.95,156.37 124.72,156.19 124.58,155.61 124.48,155.59 124.43,155.43 124.33,154.92 124.3,155.06 124.18,154.23 124.06,153.38 124.14,152.55 124.26,152.75 124.4,152.16 124.61,152.1 124.75,151.8 125.16,151.78 125.26,151.44 125.43,151.25 125.38,150.45 125.55,150.68 125.58,150.29 125.7,150.34 125.89,149.88 126.26,149.54 126.65,149.13 127.18,149.08 126.87,149.0 127.88,148.96 127.93,148.93 z M 122.22,144.31 C 122.22,144.78 122.07,144.33 122.17,145.05 121.83,145.19 121.28,145.15 120.86,145.23 120.22,145.24 120.82,145.35 120.15,145.37 119.92,145.52 119.92,146.12 120.13,146.32 120.3,146.8 120.39,146.77 120.55,147.11 120.66,147.46 120.79,147.44 120.94,147.92 121.08,147.81 121.25,148.61 121.33,148.51 121.52,148.98 121.55,148.88 121.73,149.29 121.89,149.53 121.95,149.59 122.18,150.02 122.34,150.5 122.42,150.48 122.58,150.81 122.68,151.08 123.14,151.73 122.53,151.59 122.24,151.5 121.99,151.26 121.74,151.06 121.57,150.74 121.35,150.4 121.32,150.3 121.09,150.06 120.98,149.49 120.86,149.4 120.68,148.82 120.39,148.27 120.29,147.67 120.15,147.91 120.13,147.16 120.01,147.16 119.98,146.85 119.66,146.54 119.54,146.45 119.4,146.36 118.61,146.64 118.9,146.04 118.94,145.65 119.06,145.63 119.11,145.43 119.22,144.75 120.0,144.61 120.58,144.57 121.45,144.54 120.29,144.45 121.09,144.41 121.46,144.36 121.84,144.34 122.22,144.31 z M 125.75,143.17 C 125.26,143.34 126.29,143.16 126.5,143.22 126.49,143.26 126.77,143.32 127.27,143.24 127.15,143.44 128.01,143.28 128.04,143.35 127.75,143.43 128.73,143.34 128.62,143.45 129.11,143.45 129.59,143.59 130.05,143.73 130.29,144.12 129.89,144.04 129.87,144.1 129.43,144.15 128.91,144.28 128.51,144.14 128.35,143.67 127.96,144.2 127.65,144.23 127.92,144.37 127.03,144.24 127.15,144.11 127.07,143.7 126.92,143.88 126.85,143.71 126.43,143.63 126.06,143.65 125.9,143.6 125.6,143.67 124.84,143.44 124.99,143.94 125.05,144.6 125.47,145.13 125.98,145.51 126.19,145.76 126.59,145.78 126.8,145.95 127.38,145.93 127.99,145.82 128.55,145.91 128.9,146.21 128.85,146.36 129.24,146.23 129.32,145.79 129.83,145.94 130.21,145.93 130.57,145.98 130.2,146.41 130.05,146.55 129.77,146.87 129.69,147.47 130.09,147.71 130.34,147.82 130.71,148.17 130.26,148.29 129.67,148.26 130.07,148.79 130.28,149.03 130.48,149.33 130.68,149.66 130.81,149.82 131.13,150.31 130.48,150.04 130.27,149.88 130.0,149.78 129.57,149.5 129.64,149.47 129.3,149.39 129.07,149.08 128.74,148.97 128.54,148.76 128.21,148.66 128.12,148.35 127.79,148.06 127.82,148.08 127.74,147.66 127.67,147.21 127.63,146.75 127.59,146.3 127.05,146.39 127.31,146.21 126.74,146.17 126.07,146.07 125.51,145.68 125.02,145.25 124.5,144.8 124.54,143.98 124.51,143.34 124.83,143.14 125.36,143.21 125.75,143.17 z M 123.74,142.53 C 124.44,142.53 123.09,142.69 124.02,142.62 124.49,142.62 124.45,142.59 124.77,142.79 124.85,143.14 124.17,143.02 124.18,143.49 124.01,143.76 124.01,143.79 123.52,143.99 123.07,144.1 123.37,144.71 123.33,145.05 123.38,145.71 123.47,145.13 123.52,145.86 123.59,146.54 123.69,146.05 123.75,146.62 123.8,147.12 123.92,147.2 123.98,147.7 124.09,147.89 124.11,148.26 124.28,148.55 124.34,148.93 124.84,148.98 124.76,149.42 124.22,149.55 123.96,148.92 123.91,148.48 123.8,148.58 123.68,147.95 123.61,147.73 123.55,147.18 123.46,147.31 123.38,146.81 123.28,146.55 123.21,146.2 123.16,145.78 123.01,146.02 123.04,145.11 122.94,144.91 122.9,145.57 122.86,144.2 122.7,144.44 122.63,144.23 122.22,143.72 122.17,143.9 122.03,143.44 122.56,143.14 122.88,142.92 123.3,142.71 123.46,142.6 123.74,142.53 z M 128.34,142.15 C 128.65,142.26 128.96,142.41 129.11,142.72 129.44,142.95 129.47,143.47 128.97,143.19 128.32,143.13 128.85,142.97 128.79,142.68 128.7,142.52 128.08,142.27 128.34,142.15 z M 126.07,141.48 C 126.15,141.57 126.78,141.5 126.86,141.59 127.08,141.59 128.03,141.52 127.8,141.6 127.28,141.69 128.47,141.51 127.92,141.97 127.75,142.25 127.04,142.29 126.99,142.23 127.35,142.11 126.31,142.17 126.2,142.44 125.88,142.77 125.06,142.5 125.3,141.95 125.39,141.68 126.17,141.59 125.92,141.51 125.84,141.5 126.06,141.49 126.07,141.48 z M 124.93,162.63 C 124.83,162.57 124.95,162.96 124.93,162.63 z M 124.98,162.63 C 124.99,162.44 124.87,162.68 124.98,162.63 z M 125.68,141.05 C 125.02,141.23 124.87,142.03 124.23,142.23 123.94,142.4 123.38,142.29 123.0,142.42 122.46,142.46 122.26,143.09 121.87,143.39 121.61,143.69 121.39,144.02 120.98,144.1 120.95,144.25 119.86,144.23 120.25,144.32 120.07,144.39 119.51,144.41 119.4,144.54 119.12,144.63 119.15,144.69 118.76,144.99 118.67,145.1 118.48,145.38 118.41,145.74 118.3,145.74 118.36,146.5 117.94,146.45 118.33,146.62 116.94,146.5 117.37,146.68 117.0,146.73 116.5,146.83 116.37,147.26 116.21,147.66 116.14,147.71 116.0,147.98 115.69,148.68 115.47,149.43 115.07,150.09 114.95,150.44 114.65,150.72 114.77,151.15 114.81,151.7 114.93,151.56 115.0,152.09 115.13,151.85 115.2,152.66 115.3,152.85 115.46,153.09 115.49,153.91 115.6,153.81 115.69,154.14 115.73,154.83 115.82,154.94 115.93,155.26 115.97,155.8 116.03,156.21 116.1,155.67 116.13,156.75 116.24,156.94 116.35,156.75 116.4,157.47 116.54,157.69 116.59,157.75 116.88,158.18 116.97,158.53 117.11,158.47 117.37,159.0 117.57,159.18 117.73,159.48 118.12,159.57 118.21,159.91 118.53,160.18 118.5,160.14 118.79,160.48 119.05,160.88 119.45,161.19 119.56,161.69 119.68,161.38 119.83,162.19 119.96,162.37 120.09,162.78 120.32,163.17 120.33,163.61 120.51,163.3 120.39,164.15 120.63,164.15 120.7,164.58 120.8,164.68 120.88,165.17 120.99,165.11 121.11,165.82 121.18,166.12 121.39,167.15 121.6,168.19 121.81,169.22 122.44,169.29 123.08,169.4 123.71,169.45 123.36,168.02 123.01,166.58 122.64,165.15 122.54,165.14 122.47,164.15 122.4,164.55 122.32,164.25 122.26,163.54 122.21,163.47 122.2,164.13 122.1,163.08 122.04,162.86 121.95,162.74 121.87,162.34 121.8,162.25 121.74,161.9 121.7,161.52 122.0,161.28 121.68,160.93 121.12,160.97 120.78,160.61 120.44,160.28 119.93,160.06 119.73,159.63 119.56,159.4 118.98,159.35 118.73,159.06 118.22,158.99 117.85,158.57 117.57,158.18 117.33,157.91 117.18,157.43 117.11,157.44 117.03,157.15 116.88,156.88 116.79,156.74 116.72,156.27 116.58,156.23 116.54,155.75 116.45,155.61 116.38,155.24 116.29,154.96 116.16,154.66 116.14,153.92 116.08,154.28 116.03,153.79 115.88,153.6 115.83,153.23 115.77,152.71 115.68,152.6 115.64,152.47 115.59,152.28 115.49,151.24 115.45,151.73 115.33,151.3 115.37,150.83 115.41,150.41 115.53,150.49 115.68,149.86 115.71,149.61 115.84,149.68 115.81,149.19 115.95,149.23 116.0,148.7 116.35,148.29 116.46,147.77 116.57,147.95 116.67,147.11 117.09,147.18 117.25,147.03 117.51,147.03 117.99,147.0 118.46,147.02 118.98,146.83 119.41,147.05 119.69,146.86 119.49,147.51 119.18,147.57 118.78,147.74 118.36,147.72 118.22,147.83 117.71,147.88 117.92,148.53 118.0,148.87 118.12,149.16 118.38,149.56 118.51,149.59 118.71,149.94 119.17,150.04 119.33,150.41 119.45,150.19 119.59,151.24 119.69,150.99 119.78,151.55 120.14,152.01 120.61,152.29 121.07,152.44 120.78,152.93 120.85,152.63 120.44,152.66 120.29,152.53 119.9,152.35 119.72,152.15 119.51,151.95 119.33,151.74 118.9,151.38 118.73,150.79 118.32,150.38 118.1,149.85 117.99,150.04 117.77,149.6 117.41,149.27 117.54,149.29 117.14,149.04 116.91,149.2 117.19,149.81 117.17,150.15 117.23,149.58 117.5,150.85 116.88,150.49 116.17,150.62 116.78,150.31 116.16,150.5 115.84,150.72 116.46,151.08 116.55,151.35 116.73,151.78 116.82,151.6 117.06,152.03 117.3,152.57 117.39,152.38 117.44,152.92 117.52,153.28 117.41,153.58 117.12,153.79 116.91,154.06 116.99,154.57 117.42,154.43 117.54,154.37 117.88,154.16 118.26,154.02 118.85,153.91 118.62,153.82 118.99,153.75 119.1,153.88 119.41,153.8 119.75,154.02 120.0,154.15 119.85,154.61 120.19,154.84 120.64,154.88 121.0,154.51 121.36,154.28 121.65,153.95 122.12,154.12 122.37,154.39 122.7,154.61 123.25,154.91 123.05,155.41 122.98,155.73 122.69,155.93 122.58,156.25 122.2,156.57 121.83,156.9 121.51,157.3 121.1,157.54 120.85,157.95 120.53,158.28 120.47,158.73 121.13,158.55 121.2,158.64 121.88,158.61 122.57,158.64 123.24,158.56 123.44,158.94 122.98,158.99 122.79,159.27 122.52,159.71 123.48,159.76 123.29,159.87 123.65,159.89 124.07,159.92 124.15,160.05 124.67,159.99 124.48,160.59 124.06,160.51 124.22,160.62 123.49,160.73 123.42,161.04 123.75,161.27 123.82,161.19 124.08,161.25 124.57,161.24 124.72,161.12 125.13,161.05 125.48,160.94 125.96,160.88 126.01,160.79 126.43,160.63 126.81,160.78 126.35,161.13 126.11,161.58 125.58,161.7 125.3,162.11 125.03,162.4 124.77,162.35 125.29,162.5 125.88,162.65 124.61,162.43 125.02,163.01 124.9,162.98 124.76,163.64 124.8,163.93 124.86,164.41 125.4,164.5 125.75,164.69 126.07,164.96 126.08,165.5 126.28,165.87 126.72,167.09 127.16,168.32 127.61,169.54 129.87,169.39 132.14,169.15 134.33,168.55 133.36,166.39 132.37,164.23 131.47,162.04 131.4,161.98 131.29,161.56 131.19,161.33 131.11,160.89 131.04,160.99 130.91,160.46 130.8,159.88 130.71,160.21 130.62,159.67 130.51,159.52 130.46,159.1 130.33,158.77 130.22,158.4 130.1,158.12 130.13,157.66 130.13,157.14 130.26,157.28 130.33,156.81 130.53,156.53 130.64,156.03 130.73,155.99 130.87,155.75 131.02,155.18 131.12,155.24 131.27,154.85 131.34,154.56 131.4,154.41 131.48,154.05 131.44,153.6 131.54,153.61 131.47,153.08 131.57,152.95 131.57,152.61 131.52,152.14 131.65,152.28 131.63,151.73 131.72,151.65 131.72,151.45 131.83,151.16 131.97,150.97 132.1,150.2 132.23,150.36 132.26,149.97 132.63,149.74 132.54,149.4 132.5,148.98 132.45,148.56 132.4,148.14 132.18,147.84 132.12,147.7 132.06,147.3 131.96,147.12 131.94,147.14 131.88,146.53 131.82,146.23 131.8,145.48 131.67,145.61 131.62,144.83 131.11,144.19 130.48,143.78 130.26,143.65 130.02,143.19 129.92,143.19 129.82,143.08 129.51,142.63 129.36,142.53 129.23,142.19 128.86,142.03 128.66,141.74 128.38,141.52 128.09,141.31 127.71,141.32 127.91,141.12 126.89,141.31 127.11,141.16 126.59,141.18 126.46,141.16 126.15,141.12 125.98,141.13 125.84,141.06 125.68,141.05 z" style="fill:#0f0;stroke:none;"/>
			
		<path d="M 175.88 128.94 C 175.41 128.92 174.95 128.94 174.5 128.97 C 171.41 129.16 168.68 130.29 166.28 132.41 C 162.75 135.53 160.05 139.26 158.13 143.56 C 156.21 147.88 155.23 152.37 155.28 157.09 C 155.31 160.55 156.47 163.59 158.75 166.19 C 161.04 168.79 163.89 170.33 167.31 170.81 C 174.51 171.83 181.35 170.75 187.88 167.5 C 190.56 166.16 192.59 164.14 194.0 161.47 C 195.4 158.81 195.89 156.0 195.47 153.03 C 194.38 145.15 191.0 138.45 185.28 132.91 C 182.67 130.35 179.53 129.02 175.88 128.94 z M 174.09 130.91 C 175.19 130.91 176.06 131.81 176.06 132.91 C 176.06 134.0 175.19 134.88 174.09 134.88 C 173.0 134.88 172.13 134.0 172.13 132.91 C 172.13 131.81 173.0 130.91 174.09 130.91 z" style="fill:#B4B4B4;stroke:none;"/>
			
		<path d="M 172.67,138.86 C 172.84,138.8 173.02,138.93 172.84,139.06 172.74,139.23 172.94,139.39 173.07,139.49 173.2,139.67 173.45,139.45 173.54,139.67 173.61,139.9 173.84,139.79 174.01,139.87 174.17,140.01 174.35,139.9 174.45,139.75 174.39,139.48 174.63,139.65 174.78,139.71 175.01,139.73 175.24,139.77 175.47,139.81 175.65,139.88 175.81,139.67 175.94,139.74 176.08,139.77 176.37,139.78 176.25,139.98 176.17,140.12 176.13,140.35 176.28,140.45 176.5,140.65 176.5,141.01 176.76,141.18 176.81,141.37 176.78,141.63 177.0,141.72 177.17,141.83 177.18,142.07 177.33,142.2 177.47,142.38 177.74,142.43 177.85,142.63 177.8,142.97 178.28,143.08 178.52,142.92 178.68,142.82 178.88,142.82 179.05,142.76 179.05,142.98 178.95,143.16 178.85,143.34 178.75,143.75 178.45,144.07 178.16,144.35 177.97,144.49 177.76,144.65 177.7,144.88 177.51,145.0 177.4,145.21 177.29,145.4 177.22,145.58 177.29,145.76 177.3,145.92 177.28,146.14 177.39,146.32 177.46,146.51 177.44,146.7 177.47,146.88 177.44,147.06 177.31,147.22 177.15,147.33 176.95,147.36 176.87,147.52 176.76,147.63 176.61,147.72 176.48,147.83 176.43,148.06 176.53,148.2 176.58,148.39 176.54,148.59 176.32,148.6 176.09,148.62 176.1,148.85 176.08,149.0 176.09,149.2 175.88,149.2 175.81,149.37 175.63,149.59 175.4,149.82 175.12,149.89 174.84,149.93 174.56,149.93 174.3,150.04 174.09,149.94 174.28,149.75 174.17,149.6 174.0,149.45 174.0,149.21 173.84,149.06 173.69,148.89 173.77,148.63 173.63,148.45 173.64,148.24 173.58,148.03 173.42,147.87 173.3,147.64 173.09,147.4 173.24,147.13 173.32,146.83 173.69,146.58 173.48,146.25 173.44,146.12 173.52,145.9 173.38,145.75 173.26,145.63 173.29,145.43 173.15,145.32 173.0,145.17 172.88,144.99 172.73,144.84 172.85,144.65 172.83,144.4 172.9,144.19 172.84,144.0 172.72,143.86 172.54,143.77 172.37,143.77 172.14,143.9 172.11,143.67 171.85,143.33 171.36,143.47 171.05,143.65 170.79,143.75 170.49,143.54 170.23,143.67 170.05,143.76 169.92,143.83 169.81,143.61 169.69,143.39 169.29,143.41 169.31,143.1 169.2,142.91 169.05,142.74 168.92,142.57 168.8,142.46 168.85,142.24 168.82,142.12 168.92,141.85 169.08,141.6 169.03,141.3 169.02,141.09 169.02,140.85 169.22,140.73 169.42,140.63 169.36,140.37 169.56,140.32 169.67,140.17 169.75,139.99 169.95,139.98 170.14,139.9 170.27,139.78 170.31,139.57 170.31,139.36 170.53,139.33 170.67,139.23 170.79,139.07 170.89,138.96 171.11,139.08 171.37,139.12 171.62,138.98 171.88,138.95 172.13,138.86 172.39,138.97 172.64,138.87 172.65,138.87 172.66,138.87 172.67,138.86 z" style="fill:#f00;stroke:none;"/>
		
		<!-- Prism Reference -->
		<cam mingh:cam="--verb EditSelectAll --verb ZoomSelection --verb FileSave" />   
	 </g>

</svg>
