<svg
   xmlns:xlink="http://www.w3.org/1999/xlink"
   xmlns:svg="http://www.w3.org/2000/svg"
   xmlns="http://www.w3.org/2000/svg"
   xmlns:mingh="http://www.minghworld.com"
   width="300px"
   height="300px" >
   
	<g>
		<!-- text path -->
		<path id="txtPath" style="fill:#0f0;stroke:none;" class="shape"
         d="M 141.75,122.66 C 130.88,126.14 123,136.34 123,148.38 123,163.29 135.09,175.38 150,175.38 164.91,175.38 177,163.29 177,148.38 L 177,148.38 C 177,136.34 169.12,126.14 158.25,122.66" /> 
	
		<!-- Shape -->
		<path id="shape" style="fill:none;stroke:#000;stroke-width:0.25px;" class="shape"
			d="M 136.81,122.38 C 136.45,122.39 136.07,122.49 135.72,122.69 135.48,122.82 135.24,122.98 135.0,123.13 134.52,123.41 134.06,123.72 133.59,124.03 129.61,126.72 126.34,130.35 124.09,134.59 120.13,142.07 119.58,150.85 122.59,158.75 125.61,166.65 131.88,172.88 139.81,175.81 147.74,178.75 156.54,178.13 163.97,174.09 171.4,170.06 176.73,163.03 178.59,154.78 180.46,146.53 178.67,137.9 173.69,131.06 172.18,128.99 170.49,127.18 168.5,125.56 167.55,124.79 166.56,124.08 165.53,123.44 165.04,123.13 164.55,122.83 164.03,122.56 163.71,122.38 163.3,122.33 162.94,122.38 161.81,122.53 160.9,123.42 160.41,124.41 159.93,125.38 159.74,126.64 160.34,127.59 160.55,127.98 160.98,128.12 161.28,128.41 162.06,129.3 161.01,130.6 159.97,130.03 153.96,126.69 146.26,126.66 140.22,129.94 140.03,130.06 139.82,130.14 139.59,130.16 139.22,130.19 138.82,130.01 138.63,129.69 138.38,129.31 138.38,128.78 138.69,128.44 138.78,128.32 138.91,128.23 139.03,128.16 139.77,127.72 140.08,126.82 140.03,126.0 139.94,124.61 139.1,123.25 137.84,122.63 137.51,122.45 137.17,122.36 136.81,122.38 z M 150.0,129.44 C 151.08,129.44 151.94,130.33 151.94,131.41 151.94,132.48 151.08,133.34 150.0,133.34 148.92,133.34 148.06,132.48 148.06,131.41 148.06,130.33 148.92,129.44 150.0,129.44 z M 136.44,130.22 C 136.84,130.28 137.2,130.59 137.31,131.0 137.4,131.31 137.35,131.54 137.19,131.81 137.05,132.05 136.82,132.17 136.63,132.34 131.2,136.8 128.38,144.18 129.38,151.13 129.45,151.7 129.15,152.21 128.56,152.34 128.0,152.47 127.46,152.15 127.31,151.59 126.1,143.85 129.27,135.61 135.34,130.66 135.55,130.48 135.75,130.32 136.03,130.25 136.17,130.22 136.3,130.2 136.44,130.22 z M 163.84,130.22 C 164.14,130.25 164.35,130.39 164.56,130.56 167.27,132.78 169.44,135.62 170.88,138.81 172.67,142.77 173.31,147.17 172.72,151.47 172.64,152.04 172.14,152.44 171.56,152.38 170.99,152.31 170.58,151.79 170.63,151.22 170.69,150.66 170.75,150.12 170.78,149.56 171.16,143.83 169.01,137.99 165.0,133.88 164.35,133.16 163.54,132.59 162.88,131.91 162.65,131.68 162.61,131.44 162.66,131.13 162.74,130.56 163.27,130.16 163.84,130.22 z M 154.06,138.97 C 155.12,138.87 156.09,139.86 156.03,140.91 156.04,142.0 154.9,142.86 153.84,142.66 152.57,142.51 151.88,140.84 152.63,139.81 152.94,139.32 153.49,139.0 154.06,138.97 z M 152.84,143.44 C 153.06,143.43 153.26,143.44 153.47,143.5 154.43,143.69 155.26,144.69 154.97,145.69 154.4,147.71 153.51,149.62 152.91,151.63 153.76,152.43 154.59,153.28 155.44,154.09 155.77,154.46 156.18,154.75 156.5,155.13 156.85,155.71 156.54,156.4 156.38,157.0 156.0,158.6 155.55,160.2 155.25,161.81 155.22,162.01 155.19,162.19 155.09,162.41 155.0,162.62 154.84,162.85 154.69,162.84 154.54,162.83 154.42,162.57 154.38,162.34 154.33,162.12 154.37,161.92 154.41,161.72 154.71,159.86 154.76,157.98 155.03,156.13 154.08,155.26 153.09,154.44 152.0,153.75 151.37,153.33 150.58,153.02 150.25,152.28 149.92,151.56 150.28,150.8 150.47,150.09 150.85,148.56 151.13,147.0 151.53,145.47 150.47,145.58 149.4,145.69 148.34,145.84 148.16,146.29 147.98,146.75 147.78,147.19 147.56,147.67 147.34,148.16 147.16,148.66 147.11,148.78 147.07,148.92 147.0,149.03 146.91,149.17 146.76,149.29 146.59,149.31 146.47,149.32 146.38,149.2 146.34,149.09 146.27,148.89 146.32,148.67 146.38,148.47 146.66,147.63 146.82,146.77 147.03,145.91 147.21,145.38 147.21,144.57 147.88,144.41 148.91,144.23 149.91,144.02 150.94,143.81 151.57,143.74 152.21,143.46 152.84,143.44 z M 156.03,146.28 C 156.39,146.76 156.77,147.24 157.13,147.72 157.75,147.56 158.37,147.4 159.0,147.25 159.37,147.17 159.73,147.05 160.09,146.94 160.25,146.9 160.4,146.88 160.56,146.91 160.69,146.92 160.82,146.97 160.88,147.09 160.92,147.19 160.87,147.29 160.81,147.38 160.68,147.56 160.46,147.68 160.25,147.75 159.16,148.12 158.14,148.69 157.06,149.09 156.77,149.24 156.43,149.15 156.19,148.94 155.92,148.66 155.7,148.35 155.44,148.06 155.64,147.47 155.83,146.87 156.03,146.28 z M 149.16,152.78 C 149.43,153.39 149.94,153.85 150.5,154.19 149.76,155.01 149.0,155.81 148.25,156.63 147.97,156.98 147.68,157.4 147.19,157.47 145.94,157.65 144.66,157.73 143.41,157.81 142.5,157.86 141.59,157.95 140.69,158.06 140.44,158.08 140.19,158.02 140.0,157.84 139.93,157.79 139.89,157.7 139.94,157.63 140.07,157.4 140.35,157.27 140.59,157.22 142.55,156.94 144.43,156.42 146.38,156.09 147.31,155.0 148.24,153.89 149.16,152.78 z M 129.13,154.03 C 129.2,154.02 129.29,154.02 129.38,154.03 129.69,154.06 130.0,154.27 130.13,154.56 130.46,155.51 130.82,156.44 131.25,157.34 134.26,163.78 140.83,168.37 147.91,169.03 148.14,169.05 148.39,169.07 148.59,169.19 149.05,169.43 149.23,170.06 149.03,170.53 148.86,170.98 148.34,171.21 147.88,171.16 142.47,170.68 137.3,168.21 133.53,164.31 131.05,161.74 129.11,158.57 128.16,155.13 128.15,154.56 128.57,154.09 129.13,154.03 z M 170.66,154.06 C 171.3,153.97 171.93,154.48 171.88,155.13 171.6,156.31 171.1,157.44 170.56,158.53 167.16,165.56 159.9,170.5 152.13,171.16 151.47,171.22 150.88,170.78 150.88,170.09 150.88,169.78 151.01,169.48 151.25,169.28 151.51,169.06 151.79,169.06 152.09,169.03 155.93,168.66 159.63,167.16 162.69,164.81 166.08,162.25 168.49,158.56 169.88,154.56 169.98,154.26 170.34,154.11 170.66,154.06 z" />
		
		<path id="shapeMark" style="fill:#f00;stroke:none;" class="shape"
			d="M 132.53,145.74 C 136.17,145.75 139.8,145.74 143.44,145.75 143.93,145.77 144.07,146.52 143.63,146.74 143.33,146.86 142.99,146.78 142.68,146.81 139.31,146.8 135.94,146.81 132.57,146.8 132.02,146.88 131.78,146.04 132.27,145.8 132.35,145.76 132.44,145.74 132.53,145.74 z M 157.66,160.01 C 159.58,160.01 161.3,160.01 163.07,160.01 163.17,160.01 163.28,160.01 163.38,160.05 163.57,160.11 163.66,160.21 163.71,160.41 163.81,160.74 163.55,161.08 163.2,161.08 161.28,161.08 159.56,161.08 157.79,161.08 157.67,161.08 157.55,161.08 157.43,161.03 157.26,160.95 157.18,160.84 157.14,160.66 157.07,160.32 157.32,160.01 157.66,160.01 z M 137.83,160.01 C 142.87,160.01 147.38,160.01 152.12,160.01 152.28,160.01 152.43,159.99 152.59,160.06 152.77,160.13 152.86,160.23 152.91,160.42 152.99,160.76 152.73,161.08 152.39,161.08 147.08,161.06 142.46,161.1 137.75,161.07 137.1,160.98 137.17,160.01 137.83,160.01 z M 138.29,144.12 C 137.89,144.14 137.62,143.64 137.84,143.31 138.04,142.98 138.48,143.06 138.81,143.05 141.06,143.05 143.31,143.05 145.57,143.05 145.96,143.06 146.2,143.57 145.97,143.88 145.8,144.16 145.46,144.12 145.18,144.12 142.89,144.12 140.59,144.12 138.29,144.12 z M 136.52,148.43 C 139.08,148.43 141.5,148.43 143.72,148.43 143.92,148.43 144.09,148.44 144.24,148.61 144.53,148.96 144.29,149.49 143.83,149.49 141.44,149.49 139.3,149.49 137.1,149.49 136.9,149.49 136.41,149.54 136.21,149.39 135.79,149.09 136.01,148.43 136.52,148.43 z" />
		
		<text  style="stroke:none;fill:#f00;font-family:z_ariola;font-size:5px;text-anchor:middle;" dy="0.5" >
			<textPath xlink:href="#txtPath" startOffset="50%" id="txt1"></textPath>
		</text>

		<!-- Prism Reference -->
		<cam mingh:cam="--verb EditSelectAll --verb SelectionUnGroup --verb EditSelectAll --verb ObjectToPath --verb EditDeselect --select=txtPath --verb EditDelete --verb EditSelectAll --verb SelectionGroup --verb ZoomSelection --verb FileSave " /> 
	</g>

</svg>
