<svg
   xmlns:xlink="http://www.w3.org/1999/xlink"
   xmlns:svg="http://www.w3.org/2000/svg"
   xmlns="http://www.w3.org/2000/svg"
   xmlns:mingh="http://www.minghworld.com"
   width="300px"
   height="300px" >
    
	 <g>
		<!-- Paths -->
		<path id="shape" transform="matrix(-1 0 0 1 300 0)" style="fill:#ff0;stroke:none;"
			d="M 170.66,154.06 C 171.3,153.97 171.93,154.48 171.88,155.13 171.6,156.31 171.1,157.44 170.56,158.53 167.16,165.56 159.9,170.5 152.13,171.16 151.47,171.22 150.88,170.78 150.88,170.09 150.88,169.78 151.01,169.48 151.25,169.28 151.51,169.06 151.79,169.06 152.09,169.03 155.93,168.66 159.63,167.16 162.69,164.81 166.08,162.25 168.49,158.56 169.88,154.56 169.98,154.26 170.34,154.11 170.66,154.06 z M 129.13,154.03 C 129.2,154.02 129.29,154.02 129.38,154.03 129.69,154.06 130,154.27 130.13,154.56 130.46,155.51 130.82,156.44 131.25,157.34 134.26,163.78 140.83,168.37 147.91,169.03 148.14,169.05 148.39,169.07 148.59,169.19 149.05,169.43 149.23,170.06 149.03,170.53 148.86,170.98 148.34,171.21 147.88,171.16 142.47,170.68 137.3,168.21 133.53,164.31 131.05,161.74 129.11,158.58 128.16,155.13 128.15,154.56 128.58,154.09 129.13,154.03 z M 163.84,130.22 C 164.14,130.25 164.35,130.39 164.56,130.56 167.27,132.78 169.44,135.62 170.88,138.81 172.67,142.77 173.31,147.17 172.72,151.47 172.64,152.04 172.14,152.44 171.56,152.38 170.99,152.31 170.58,151.79 170.63,151.22 170.69,150.66 170.75,150.12 170.78,149.56 171.16,143.83 169.01,137.99 165,133.88 164.35,133.16 163.55,132.59 162.88,131.91 162.65,131.68 162.61,131.44 162.66,131.13 162.74,130.56 163.27,130.16 163.84,130.22 z M 136.44,130.22 C 136.84,130.28 137.2,130.59 137.31,131 137.4,131.31 137.35,131.54 137.19,131.81 137.05,132.05 136.83,132.17 136.63,132.34 131.2,136.8 128.38,144.18 129.38,151.13 129.45,151.7 129.15,152.21 128.56,152.34 128,152.47 127.46,152.15 127.31,151.59 126.1,143.85 129.27,135.61 135.34,130.66 135.55,130.48 135.75,130.32 136.03,130.25 136.17,130.22 136.3,130.2 136.44,130.22 z M 150,129.44 C 151.08,129.44 151.94,130.33 151.94,131.41 151.94,132.48 151.08,133.34 150,133.34 148.92,133.34 148.06,132.48 148.06,131.41 148.06,130.33 148.92,129.44 150,129.44 z M 136.81,122.38 C 136.45,122.39 136.07,122.49 135.72,122.69 135.48,122.82 135.24,122.98 135,123.13 134.52,123.41 134.06,123.72 133.59,124.03 129.61,126.72 126.34,130.35 124.09,134.59 120.13,142.07 119.58,150.85 122.59,158.75 125.61,166.65 131.88,172.88 139.81,175.81 147.74,178.75 156.54,178.13 163.97,174.09 171.4,170.06 176.73,163.03 178.59,154.78 180.46,146.53 178.67,137.9 173.69,131.06 172.18,128.99 170.49,127.18 168.5,125.56 167.55,124.79 166.56,124.08 165.53,123.44 165.04,123.13 164.55,122.83 164.03,122.56 163.71,122.38 163.3,122.33 162.94,122.38 161.81,122.53 160.9,123.42 160.41,124.41 159.93,125.38 159.74,126.64 160.34,127.59 160.55,127.98 160.98,128.12 161.28,128.41 162.06,129.3 161.01,130.6 159.97,130.03 153.96,126.69 146.26,126.66 140.22,129.94 140.03,130.06 139.82,130.14 139.59,130.16 139.22,130.19 138.82,130.01 138.63,129.69 138.38,129.31 138.38,128.78 138.69,128.44 138.78,128.32 138.91,128.23 139.03,128.16 139.77,127.72 140.08,126.82 140.03,126 139.94,124.61 139.1,123.25 137.84,122.63 137.51,122.45 137.17,122.36 136.81,122.38 z M 140.7,160.64 C 140.65,160.36 140.74,160.09 140.84,159.84 141.64,158.12 142.21,156.31 142.96,154.57 143.06,153.25 142.93,151.92 142.92,150.59 142.97,149.85 142.71,149.1 142.92,148.38 143.7,146.43 144.26,144.41 145.01,142.45 145.24,141.59 146.16,140.99 147.03,141.19 147.8,141.31 148.15,142.02 148.51,142.6 149.26,143.47 149.99,144.37 150.83,145.15 151.93,145.67 152.99,146.29 154.12,146.76 154.22,146.82 154.31,146.87 154.39,146.95 154.5,147.04 154.59,147.19 154.57,147.34 154.55,147.44 154.45,147.5 154.36,147.53 154.17,147.59 153.97,147.54 153.79,147.49 153.75,147.48 153.71,147.46 153.67,147.45 153.13,147.25 152.58,147.05 152.02,146.91 151.5,146.78 151.01,146.57 150.49,146.44 150.15,146.37 149.79,146.31 149.55,146.03 149.08,145.53 148.58,145.07 148.08,144.6 147.98,144.48 147.8,144.48 147.74,144.64 147.16,145.88 146.5,147.1 145.93,148.35 145.84,148.49 145.75,148.74 145.98,148.8 146.85,149.14 147.71,149.5 148.57,149.86 149.21,150.14 149.88,150.35 150.5,150.66 150.92,150.89 150.92,151.41 150.92,151.82 151.1,153.18 151.17,154.55 151.3,155.91 151.33,156.55 151.48,157.18 151.52,157.81 151.52,157.89 151.51,157.96 151.5,158.03 151.48,158.18 151.44,158.32 151.34,158.44 151.28,158.52 151.14,158.52 151.05,158.47 150.88,158.34 150.78,158.13 150.71,157.92 150.45,156.42 150.09,154.95 149.75,153.46 149.6,153.02 149.63,152.52 149.41,152.1 148,151.55 146.55,151.09 145.13,150.57 145.01,150.51 144.85,150.55 144.84,150.7 144.8,151.89 144.76,153.07 144.75,154.26 144.83,154.72 144.42,155 144.22,155.36 143.63,156.49 142.99,157.6 142.37,158.72 142.04,159.27 141.8,159.88 141.48,160.44 141.42,160.55 141.34,160.65 141.25,160.73 141.15,160.83 140.99,160.9 140.85,160.86 140.75,160.83 140.71,160.73 140.7,160.64 z M 145.54,138.15 C 145.61,137.12 146.49,136.35 147.52,136.42 148.54,136.49 149.31,137.38 149.24,138.4 149.17,139.42 148.28,140.19 147.26,140.12 146.24,140.05 145.47,139.17 145.54,138.15 z M 143.49,141.16 C 143.52,141.39 143.4,141.6 143.31,141.8 142.7,143.36 142.09,144.92 141.48,146.48 141.43,146.69 141.25,146.87 141.03,146.89 140.78,146.9 140.56,146.77 140.33,146.68 140.11,146.64 139.9,146.46 139.87,146.23 139.84,146 139.96,145.8 140.04,145.59 140.66,144.04 141.26,142.48 141.87,140.92 141.92,140.71 142.1,140.53 142.32,140.5 142.57,140.48 143.03,140.71 143.03,140.71 143.25,140.77 143.45,140.93 143.49,141.16 z M 158.32,162.76 C 153.58,165.54 147.46,165.72 142.57,163.24 143.93,163.39 145.28,163.55 146.64,163.68 146.89,163.71 147.16,163.75 147.41,163.69 148.39,162.84 149.53,161.86 150.67,160.85 150.81,160.74 150.94,160.6 151.09,160.49 152.8,160.08 154.52,159.69 156.23,159.26 156.46,159.21 156.93,159.06 156.93,159.06 156.97,159.04 156.99,158.98 157,158.94 157.1,158.35 157.21,157.79 157.32,157.21 157.4,156.8 157.45,156.39 157.55,155.98 157.93,155.85 158.3,155.71 158.68,155.57 158.83,155.5 159.07,155.5 159.13,155.3 159.37,154.19 159.6,153.07 159.83,151.96 159.98,151.96 160.13,151.97 160.27,151.98 161.33,152 162.38,152.19 163.44,152.16 164.37,151.64 165.46,150.99 166.55,150.4 165.93,155.5 162.8,160.23 158.32,162.76 z" />

		<!-- Text -->
		<text id="txtTwo" dy="2.8" transform="matrix(1 0 0 1 150 150)" style="stroke:none;fill:#f00;font-family:'Eras Medium ITC';font-size:10px;text-anchor:middle" >

		</text>
		<!-- Prism Reference -->
		<cam mingh:cam=" --verb EditSelectAll --verb SelectionGroup --verb ZoomSelection --verb FileSave "/> 
	 </g>

</svg>