<svg
   xmlns:xlink="http://www.w3.org/1999/xlink"
   xmlns:svg="http://www.w3.org/2000/svg"
   xmlns="http://www.w3.org/2000/svg"
   xmlns:mingh="http://www.minghworld.com"
   width="300px"
   height="300px" >
   
	<g>
		<!-- text path -->
		<path id="txtPath" style="fill:none;stroke:#b4b4b4;stroke-width:0.25px;" class="shape"
			d="M 141.75,122.66 C 130.88,126.14 123,136.34 123,148.38 123,163.29 135.09,175.38 150,175.38 164.91,175.38 177,163.29 177,148.38 L 177,148.38 C 177,136.34 169.12,126.14 158.25,122.66" /> 

		<!-- Shape -->
		<path id="shape" style="fill:none;stroke:#000;stroke-width:0.25px;" class="shape"
			d="M 170.66,154.06 C 171.3,153.97 171.93,154.48 171.88,155.13 171.6,156.31 171.1,157.44 170.56,158.53 167.16,165.56 159.9,170.5 152.13,171.16 151.47,171.22 150.88,170.78 150.88,170.09 150.88,169.78 151.01,169.48 151.25,169.28 151.51,169.06 151.79,169.06 152.09,169.03 155.93,168.66 159.63,167.16 162.69,164.81 166.08,162.25 168.49,158.56 169.88,154.56 169.98,154.26 170.34,154.11 170.66,154.06 z M 129.13,154.03 C 129.2,154.02 129.29,154.02 129.38,154.03 129.69,154.06 130,154.27 130.13,154.56 130.46,155.51 130.82,156.44 131.25,157.34 134.26,163.78 140.83,168.37 147.91,169.03 148.14,169.05 148.39,169.07 148.59,169.19 149.05,169.43 149.23,170.06 149.03,170.53 148.86,170.98 148.34,171.21 147.88,171.16 142.47,170.68 137.3,168.21 133.53,164.31 131.05,161.74 129.11,158.58 128.16,155.13 128.15,154.56 128.58,154.09 129.13,154.03 z M 163.84,130.22 C 164.14,130.25 164.35,130.39 164.56,130.56 167.27,132.78 169.44,135.62 170.88,138.81 172.67,142.77 173.31,147.17 172.72,151.47 172.64,152.04 172.14,152.44 171.56,152.38 170.99,152.31 170.58,151.79 170.63,151.22 170.69,150.66 170.75,150.12 170.78,149.56 171.16,143.83 169.01,137.99 165,133.88 164.35,133.16 163.55,132.59 162.88,131.91 162.65,131.68 162.61,131.44 162.66,131.13 162.74,130.56 163.27,130.16 163.84,130.22 z M 136.44,130.22 C 136.84,130.28 137.2,130.59 137.31,131 137.4,131.31 137.35,131.54 137.19,131.81 137.05,132.05 136.83,132.17 136.63,132.34 131.2,136.8 128.38,144.18 129.38,151.13 129.45,151.7 129.15,152.21 128.56,152.34 128,152.47 127.46,152.15 127.31,151.59 126.1,143.85 129.27,135.61 135.34,130.66 135.55,130.48 135.75,130.32 136.03,130.25 136.17,130.22 136.3,130.2 136.44,130.22 z M 150,129.44 C 151.08,129.44 151.94,130.33 151.94,131.41 151.94,132.48 151.08,133.34 150,133.34 148.92,133.34 148.06,132.48 148.06,131.41 148.06,130.33 148.92,129.44 150,129.44 z M 136.81,122.38 C 136.45,122.39 136.07,122.49 135.72,122.69 135.48,122.82 135.24,122.98 135,123.13 134.52,123.41 134.06,123.72 133.59,124.03 129.61,126.72 126.34,130.35 124.09,134.59 120.13,142.07 119.58,150.85 122.59,158.75 125.61,166.65 131.88,172.88 139.81,175.81 147.74,178.75 156.54,178.13 163.97,174.09 171.4,170.06 176.73,163.03 178.59,154.78 180.46,146.53 178.67,137.9 173.69,131.06 172.18,128.99 170.49,127.18 168.5,125.56 167.55,124.79 166.56,124.08 165.53,123.44 165.04,123.13 164.55,122.83 164.03,122.56 163.71,122.38 163.3,122.33 162.94,122.38 161.81,122.53 160.9,123.42 160.41,124.41 159.93,125.38 159.74,126.64 160.34,127.59 160.55,127.98 160.98,128.12 161.28,128.41 162.06,129.3 161.01,130.6 159.97,130.03 153.96,126.69 146.26,126.66 140.22,129.94 140.03,130.06 139.82,130.14 139.59,130.16 139.22,130.19 138.82,130.01 138.63,129.69 138.38,129.31 138.38,128.78 138.69,128.44 138.78,128.32 138.91,128.23 139.03,128.16 139.77,127.72 140.08,126.82 140.03,126 139.94,124.61 139.1,123.25 137.84,122.63 137.51,122.45 137.17,122.36 136.81,122.38 z M 153,144.27 C 153.65,144.25 154.31,144.28 154.97,144.23 155.07,144.21 155.17,144.2 155.27,144.23 155.34,144.25 155.42,144.28 155.46,144.35 155.48,144.4 155.45,144.45 155.41,144.48 155.28,144.58 155.11,144.6 154.95,144.61 154.65,144.64 154.35,144.7 154.05,144.76 153.66,144.85 153.25,144.91 152.85,144.98 152.65,145.04 152.41,144.99 152.28,144.81 151.96,144.38 151.63,143.95 151.3,143.54 151.23,143.45 151.16,143.35 151.09,143.34 151.01,143.33 150.92,143.41 150.86,143.49 150.79,143.56 150.75,143.65 150.7,143.73 150.27,144.38 149.81,145.01 149.39,145.67 149.33,145.75 149.27,145.83 149.23,145.93 149.21,145.98 149.2,146.05 149.24,146.1 149.33,146.2 149.47,146.23 149.59,146.27 150.12,146.47 150.65,146.7 151.19,146.89 151.46,146.99 151.8,147.07 151.93,147.36 152,147.68 151.74,147.94 151.54,148.15 150.89,148.93 150.17,149.66 149.51,150.44 149.28,150.67 149.12,150.98 148.84,151.16 148.81,151.17 148.78,151.18 148.75,151.2 148.71,151.21 148.64,151.22 148.61,151.17 148.55,151.11 148.6,150.93 148.71,150.79 149.18,150.16 149.63,149.52 150.06,148.87 150.18,148.5 150.9,147.86 150.55,147.73 149.95,147.53 149.35,147.34 148.75,147.14 148.35,146.92 147.79,146.98 147.52,146.57 147.2,146.05 147.54,145.47 147.82,145.02 148.37,143.98 148.87,142.92 149.41,141.88 149.69,141.31 150.52,141.08 151.01,141.51 151.48,142.01 151.79,142.62 152.18,143.18 152.45,143.54 152.63,144.02 153,144.27 z M 162.55,159.01 C 162.9,159.39 163.38,159.67 163.66,160.12 163.59,160.15 163.52,160.17 163.45,160.17 163.28,160.19 163.12,160.2 162.96,160.19 162.84,160.2 162.75,160.1 162.7,160 162.58,159.74 162.44,159.49 162.23,159.29 162.12,159.18 161.98,159.1 161.84,159.03 161.27,158.8 161,158.21 160.6,157.77 160.01,157.13 159.38,156.52 158.76,155.91 157.95,155.14 157.15,154.35 156.26,153.66 156.15,153.58 156.03,153.49 155.9,153.43 155.68,153.31 155.43,153.22 155.18,153.29 154.98,153.36 154.86,153.57 154.84,153.77 154.8,154.02 154.92,154.25 155.02,154.46 155.29,155.09 155.64,155.68 155.93,156.3 156.05,156.53 156.19,156.84 155.99,157.07 155.73,157.3 155.42,157.47 155.13,157.67 154.74,157.88 154.44,158.25 154.01,158.38 153.25,158.55 152.46,158.55 151.68,158.61 151.85,158.35 152.01,158.07 152.26,157.88 152.54,158.06 152.79,158.44 153.18,158.3 153.6,158.14 154.01,157.93 154.43,157.77 154.79,157.59 155.22,157.46 155.46,157.11 155.65,156.81 155.38,156.5 155.17,156.3 154.49,155.62 153.81,154.94 153.04,154.37 152.69,154.16 152.62,153.69 152.23,153.53 151.75,153.35 151.22,153.39 150.72,153.32 149.38,153.15 148.05,152.83 146.8,152.3 146.68,152.24 146.55,152.18 146.41,152.17 146.33,152.16 146.23,152.18 146.17,152.25 146.08,152.4 146.07,152.58 146.06,152.75 145.99,153.37 145.96,154 145.93,154.62 145.9,155.45 145.79,156.33 146.12,157.12 146.54,157.95 147.37,158.42 148.01,159.06 148.66,159.71 149.33,160.36 149.85,161.12 149.57,161.15 149.26,161.19 148.98,161.12 148.75,160.99 148.72,160.69 148.54,160.51 147.62,159.4 146.57,158.41 145.44,157.51 145.23,157.36 144.96,157.23 144.92,156.94 144.75,156.01 144.77,155.04 144.46,154.14 144.38,153.92 144.26,153.67 144.08,153.69 144,153.7 143.89,153.77 143.8,153.83 143.25,154.1 142.7,154.38 142.15,154.65 141.02,155.24 139.78,155.73 138.95,156.73 138.38,157.36 138.04,158.2 137.35,158.72 136.88,159.02 136.43,159.37 135.93,159.62 135.98,159.32 135.78,158.92 136.21,158.81 136.74,158.76 137.24,158.5 137.57,158.1 137.98,157.57 138.35,157.02 138.7,156.45 138.93,156.11 139.12,155.73 139.25,155.34 139.37,154.99 139.72,154.79 140.05,154.67 140.37,154.55 140.71,154.45 141.01,154.27 141.29,154.08 141.63,153.89 141.72,153.54 141.8,153.15 141.71,152.75 141.68,152.36 141.63,151.81 141.34,151.3 141.35,150.74 141.37,150.11 141.32,149.41 141.68,148.85 141.84,148.6 142.09,148.4 142.2,148.12 142.08,147.97 141.82,147.84 141.6,147.7 141.11,147.43 140.5,147.44 140,147.66 139.05,148.08 138.26,148.76 137.41,149.33 136.87,149.71 136.16,149.72 135.54,149.56 134.8,149.41 134.17,148.94 133.71,148.36 134.09,148.53 134.52,148.62 134.93,148.53 135.84,148.25 136.6,147.64 137.42,147.18 138.2,146.74 139.09,146.25 140.01,146.49 140.84,146.67 141.46,147.25 142.18,147.64 142.68,147.93 143.21,147.57 143.68,147.4 144.5,147.02 145.43,147.12 146.3,147.24 146.51,147.63 146.89,147.92 147.3,148.12 147.71,148.32 148.15,148.42 148.58,148.56 148.2,149.21 147.62,149.73 147.34,150.44 147.01,151.14 147.31,152.06 147.98,152.43 148.64,152.8 149.48,152.54 149.98,152.03 150.8,151.04 151.69,150.11 152.54,149.15 153.01,148.64 153.44,147.97 153.32,147.24 153.46,147.2 153.62,147.18 153.73,147.08 154.03,146.74 154.31,146.4 154.62,146.07 154.99,146.01 155.38,146 155.74,145.87 156.47,145.64 156.98,144.84 156.84,144.07 157.54,143.64 158.3,143.31 159.09,143.07 159.48,142.97 159.86,142.79 160.13,142.48 160.37,142.23 160.48,141.88 160.71,141.62 160.71,141.9 160.8,142.18 160.94,142.44 161.08,142.69 161.27,142.91 161.46,143.12 161.66,143.33 161.87,143.53 162.01,143.78 162.09,143.9 162.15,144.03 162.22,144.15 162.29,144.27 162.38,144.38 162.47,144.5 162.65,144.72 162.83,144.94 163.01,145.16 163.19,145.39 163.38,145.6 163.53,145.85 163.61,145.97 163.68,146.1 163.71,146.23 163.74,146.37 163.74,146.52 163.71,146.66 163.69,146.8 163.64,146.93 163.57,147.06 163.5,147.2 163.4,147.33 163.27,147.35 162.28,147 161.5,146.16 160.45,145.95 159.94,145.87 159.27,145.68 158.91,146.19 158.34,146.97 157.87,147.84 157.6,148.77 157.36,149.83 157.57,150.92 157.66,151.99 157.74,153 158.25,153.89 158.77,154.74 159.72,156.41 161.16,157.7 162.55,159.01 z M 152.51,139.63 C 152.51,140.25 152.01,140.75 151.39,140.75 150.77,140.75 150.26,140.25 150.26,139.63 150.26,139.01 150.77,138.5 151.39,138.5 152.01,138.5 152.51,139.01 152.51,139.63 z" />
		
		<path id="shapeMark" style="fill:#f00;stroke:none;" class="shape"
			d="M 141.34,135.59 C 141.29,135.72 141.07,135.93 140.87,136.07 140.55,136.28 140.51,136.28 140.54,135.99 140.57,135.72 140.52,135.67 140.23,135.66 140.04,135.65 139.64,135.75 139.34,135.88 139.0,136.03 138.56,136.07 138.16,135.98 137.7,135.87 137.62,135.82 137.87,135.78 138.06,135.76 138.55,135.62 138.96,135.47 139.37,135.32 139.92,135.23 140.17,135.27 140.54,135.33 140.66,135.29 140.72,135.08 140.78,134.88 141.19,134.59 142.13,134.05 143.63,133.2 143.56,133.49 142.01,134.55 141.36,135.0 141.13,135.21 141.26,135.27 141.36,135.32 141.4,135.46 141.34,135.59 z M 143.1,139.62 C 142.62,139.98 142.04,140.16 141.46,140.27 140.89,140.31 141.69,139.66 141.61,139.36 141.47,138.89 140.77,139.07 140.37,139.05 139.51,139.12 138.63,139.48 137.79,139.16 137.05,138.93 136.32,138.61 135.7,138.15 136.14,138.31 136.63,138.41 137.11,138.38 138.22,138.37 139.3,137.99 140.42,138.02 141.05,138.07 141.64,138.36 142.07,138.83 142.11,138.32 142.32,137.8 142.81,137.56 143.88,136.97 145.16,137.02 146.28,136.56 146.94,136.34 147.57,136.02 148.19,135.71 148.37,135.78 147.8,136.14 147.68,136.28 146.82,136.96 145.73,137.2 144.76,137.69 144.14,137.99 143.48,138.26 142.95,138.71 142.65,139.14 143.74,138.44 143.47,138.9 143.4,139.16 143.28,139.42 143.1,139.62 z" />
		
		<text  style="stroke:none;fill:#f00;font-family:z_ariola;font-size:5px;text-anchor:middle;" dy="0.5" >
			<textPath xlink:href="#txtPath" startOffset="50%" id="txt1"></textPath>
		</text>

		<!-- Prism Reference -->
		<cam mingh:cam="--verb EditSelectAll --verb SelectionUnGroup --verb EditSelectAll --verb ObjectToPath --verb EditDeselect --select=txtPath --verb EditDelete --verb EditSelectAll --verb SelectionGroup --verb ZoomSelection --verb FileSave " /> 
	</g>

</svg>
