<svg
   xmlns:xlink="http://www.w3.org/1999/xlink"
   xmlns:svg="http://www.w3.org/2000/svg"
   xmlns="http://www.w3.org/2000/svg"
   xmlns:mingh="http://www.minghworld.com"
   width="300px"
   height="300px" >
   
	<defs>
		<!-- text path -->
		<path id="txtPath" style="fill:#0f0;stroke:none;" class="shape"
         d="M 141.75,122.66 C 130.88,126.14 123,136.34 123,148.38 123,163.29 135.09,175.38 150,175.38 164.91,175.38 177,163.29 177,148.38 L 177,148.38 C 177,136.34 169.12,126.14 158.25,122.66" /> 
	</defs>	
	
	<g>	
		<!-- Shape -->
		<path id="shape" style="fill:none;stroke:#000;stroke-width:0.25px;" class="shape"
			d="M 170.66,154.06 C 171.3,153.97 171.93,154.48 171.88,155.13 171.6,156.31 171.1,157.44 170.56,158.53 167.16,165.56 159.9,170.5 152.13,171.16 151.47,171.22 150.88,170.78 150.88,170.09 150.88,169.78 151.01,169.48 151.25,169.28 151.51,169.06 151.79,169.06 152.09,169.03 155.93,168.66 159.63,167.16 162.69,164.81 166.08,162.25 168.49,158.56 169.88,154.56 169.98,154.26 170.34,154.11 170.66,154.06 z M 129.13,154.03 C 129.2,154.02 129.29,154.02 129.38,154.03 129.69,154.06 130,154.27 130.13,154.56 130.46,155.51 130.82,156.44 131.25,157.34 134.26,163.78 140.83,168.37 147.91,169.03 148.14,169.05 148.39,169.07 148.59,169.19 149.05,169.43 149.23,170.06 149.03,170.53 148.86,170.98 148.34,171.21 147.88,171.16 142.47,170.68 137.3,168.21 133.53,164.31 131.05,161.74 129.11,158.58 128.16,155.13 128.15,154.56 128.58,154.09 129.13,154.03 z M 163.84,130.22 C 164.14,130.25 164.35,130.39 164.56,130.56 167.27,132.78 169.44,135.62 170.88,138.81 172.67,142.77 173.31,147.17 172.72,151.47 172.64,152.04 172.14,152.44 171.56,152.38 170.99,152.31 170.58,151.79 170.63,151.22 170.69,150.66 170.75,150.12 170.78,149.56 171.16,143.83 169.01,137.99 165,133.88 164.35,133.16 163.55,132.59 162.88,131.91 162.65,131.68 162.61,131.44 162.66,131.13 162.74,130.56 163.27,130.16 163.84,130.22 z M 136.44,130.22 C 136.84,130.28 137.2,130.59 137.31,131 137.4,131.31 137.35,131.54 137.19,131.81 137.05,132.05 136.83,132.17 136.63,132.34 131.2,136.8 128.38,144.18 129.38,151.13 129.45,151.7 129.15,152.21 128.56,152.34 128,152.47 127.46,152.15 127.31,151.59 126.1,143.85 129.27,135.61 135.34,130.66 135.55,130.48 135.75,130.32 136.03,130.25 136.17,130.22 136.3,130.2 136.44,130.22 z M 150,129.44 C 151.08,129.44 151.94,130.33 151.94,131.41 151.94,132.48 151.08,133.34 150,133.34 148.92,133.34 148.06,132.48 148.06,131.41 148.06,130.33 148.92,129.44 150,129.44 z M 136.81,122.38 C 136.45,122.39 136.07,122.49 135.72,122.69 135.48,122.82 135.24,122.98 135,123.13 134.52,123.41 134.06,123.72 133.59,124.03 129.61,126.72 126.34,130.35 124.09,134.59 120.13,142.07 119.58,150.85 122.59,158.75 125.61,166.65 131.88,172.88 139.81,175.81 147.74,178.75 156.54,178.13 163.97,174.09 171.4,170.06 176.73,163.03 178.59,154.78 180.46,146.53 178.67,137.9 173.69,131.06 172.18,128.99 170.49,127.18 168.5,125.56 167.55,124.79 166.56,124.08 165.53,123.44 165.04,123.13 164.55,122.83 164.03,122.56 163.71,122.38 163.3,122.33 162.94,122.38 161.81,122.53 160.9,123.42 160.41,124.41 159.93,125.38 159.74,126.64 160.34,127.59 160.55,127.98 160.98,128.12 161.28,128.41 162.06,129.3 161.01,130.6 159.97,130.03 153.96,126.69 146.26,126.66 140.22,129.94 140.03,130.06 139.82,130.14 139.59,130.16 139.22,130.19 138.82,130.01 138.63,129.69 138.38,129.31 138.38,128.78 138.69,128.44 138.78,128.32 138.91,128.23 139.03,128.16 139.77,127.72 140.08,126.82 140.03,126 139.94,124.61 139.1,123.25 137.84,122.63 137.51,122.45 137.17,122.36 136.81,122.38 z M 141.53,159.56 C 142.9,159.9 144.3,160.16 145.7,160.36 150.27,163.44 156.16,164.2 161.44,162.79 160.84,163.17 160.21,163.52 159.57,163.85 153.5,167.01 145.7,166.91 139.99,163 132.54,158.11 130.59,146.91 135.61,139.64 137.85,136.23 141.72,133.96 145.82,133.85 143.46,134.62 141.27,136.11 139.96,138.25 136.88,144.19 137.88,151.91 142.08,157.07 141.92,157.13 141.76,157.17 141.61,157.23 141.2,157.35 140.86,157.66 140.74,158.07 140.54,158.67 140.91,159.39 141.53,159.56 z M 150.07,156.53 C 150.08,156.5 150.08,156.46 150.09,156.43 M 159.1,158.09 C 159.58,157.7 159.75,157.02 159.66,156.43 160.32,156.53 160.87,156.6 161.55,156.79 161.8,156.86 162.04,156.93 162.27,157.04 162.38,157.09 162.49,157.15 162.6,157.22 162.72,157.31 162.78,157.39 162.68,157.52 162.45,157.81 161.64,158.11 161.34,158.22 160.86,158.39 160.38,158.5 159.88,158.61 157.9,159.05 155.92,159.34 153.89,159.48 149.95,159.74 146.18,159.44 142.35,158.55 142.2,158.51 142.05,158.47 141.9,158.44 141.87,158.44 141.84,158.4 141.88,158.39 142.03,158.34 142.18,158.29 142.33,158.23 143.78,157.74 145.27,157.31 146.77,157 146.76,157.3 146.76,157.61 146.86,157.89 147.05,158.48 147.62,158.91 148.23,158.95 148.93,159.02 149.64,158.55 149.85,157.88 149.99,157.44 149.99,156.92 150.08,156.42 152.15,156.12 154.24,156.08 156.31,156.17 156.4,156.51 156.44,156.86 156.54,157.19 156.67,157.69 157.02,158.12 157.49,158.32 158.02,158.56 158.66,158.46 159.1,158.09 z M 141.5,141.18 C 143.12,139.98 145.2,139.52 147.19,139.7 146.96,139.79 146.73,139.89 146.51,140 144.83,140.77 143.43,142.07 142.47,143.65 141.27,145.62 140.49,147.84 140.11,150.11 139.5,147.74 139.43,145.25 139.85,142.84 140.31,142.21 140.87,141.65 141.5,141.18 z M 154.76,141.91 C 154.58,142.92 153.61,143.59 152.6,143.4 151.59,143.21 150.92,142.24 151.11,141.23 151.3,140.22 152.27,139.56 153.28,139.75 154.29,139.94 154.95,140.91 154.76,141.91 z M 144.96,147.89 C 145.07,147.71 145.23,147.58 145.38,147.45 146.05,146.9 146.65,146.28 147.29,145.69 147.67,145.42 147.94,144.92 148.44,144.87 150.02,144.79 151.59,144.56 153.16,144.48 154.74,144.47 156.32,144.62 157.9,144.66 158.4,144.66 158.54,143.99 158.9,143.71 159.36,143.16 159.77,142.58 160.18,142 160.28,141.89 160.4,141.79 160.54,141.74 160.65,141.7 160.77,141.74 160.84,141.83 160.94,141.95 160.94,142.11 160.89,142.25 160.88,142.3 160.86,142.35 160.84,142.4 160.31,143.27 159.85,144.17 159.37,145.07 159.12,145.52 158.89,146.12 158.29,146.15 157.56,146.18 156.81,146.17 156.08,146.22 155.64,146.34 155.03,146.11 154.7,146.43 154.64,147.27 154.53,148.1 154.43,148.94 154.45,149.39 154.16,149.93 154.43,150.32 155.27,150.75 156.1,151.23 156.93,151.67 157.31,151.96 157.91,151.98 158.12,152.45 158.32,153.79 158.28,155.15 158.47,156.48 158.5,156.69 158.54,156.91 158.44,157.08 158.39,157.16 158.3,157.24 158.2,157.26 158.1,157.29 157.99,157.27 157.91,157.21 157.74,157.11 157.69,156.9 157.64,156.69 157.51,156.04 157.33,155.4 157.14,154.77 156.97,154.34 156.98,153.78 156.57,153.5 155.82,153.08 155.01,152.77 154.24,152.4 153.8,152.27 153.37,151.82 152.91,152.11 152.03,152.58 151.16,153.04 150.28,153.51 149.91,153.75 149.35,153.88 149.29,154.4 149.09,155.3 148.91,156.2 148.81,157.12 148.78,157.32 148.76,157.54 148.62,157.68 148.54,157.75 148.44,157.79 148.34,157.79 148.24,157.79 148.14,157.73 148.07,157.66 147.94,157.52 147.94,157.29 147.95,157.08 148.01,156.07 147.93,155.05 147.91,154.03 147.97,153.58 147.72,152.99 148.15,152.67 148.91,152.25 149.64,151.77 150.38,151.32 150.74,151.02 151.28,150.91 151.52,150.49 151.54,149.55 151.45,148.61 151.4,147.67 151.27,147.25 151.55,146.57 151.16,146.32 150.55,146.32 149.93,146.32 149.32,146.33 148.84,146.34 148.32,146.29 147.97,146.7 147.17,147.19 146.38,147.7 145.63,148.28 145.45,148.39 145.22,148.49 145.05,148.41 144.97,148.37 144.9,148.28 144.88,148.18 144.87,148.09 144.91,147.98 144.96,147.89 z" />
		
		<path id="shapeMark" style="fill:#f00;stroke:none;" class="shape"
			d="M 164.88,153.16 C 164.81,152.51 164.72,151.83 164.99,151.21 165.18,150.73 165.6,150.27 166.15,150.26 166.69,150.29 167.08,150.76 167.23,151.24 167.45,151.96 167.29,152.73 166.99,153.4 166.64,154.12 166.05,154.69 165.37,155.09 164.85,155.43 164.28,155.71 163.66,155.83 163.55,155.92 163.13,155.89 163.37,155.71 163.65,155.58 163.93,155.45 164.15,155.23 164.72,154.72 164.97,153.91 164.88,153.16 z M 164.28,152.44 C 164.63,153.04 164.58,153.79 164.31,154.4 164.22,154.63 164.12,154.86 163.96,155.05 163.77,155.08 163.96,154.84 163.94,154.74 163.98,154.33 163.89,153.87 163.56,153.6 163.3,153.37 162.95,153.32 162.63,153.25 162.24,153.15 161.86,152.89 161.77,152.49 161.69,152.23 161.79,151.93 162.02,151.78 162.39,151.5 162.91,151.44 163.34,151.64 163.72,151.81 164.07,152.08 164.28,152.44 z M 163.73,149.08 C 164.35,149.62 164.71,150.47 164.58,151.3 164.53,151.49 164.56,151.75 164.44,151.91 164.32,151.78 164.28,151.57 164.14,151.44 163.79,151.05 163.28,150.81 162.75,150.81 162.44,150.81 162.11,150.85 161.81,150.74 161.45,150.63 161.17,150.32 161.09,149.95 160.96,149.4 161.24,148.75 161.77,148.53 162.22,148.34 162.73,148.48 163.14,148.68 163.35,148.79 163.55,148.92 163.73,149.08 z" />
		
		<text  style="stroke:none;fill:#f00;font-family:z_ariola;font-size:5px;text-anchor:middle;" dy="0.5" >
			<textPath xlink:href="#txtPath" startOffset="50%" id="txt1"></textPath>
		</text>

		<!-- Prism Reference -->
		<cam mingh:cam="--verb EditSelectAll --verb SelectionUnGroup --verb EditSelectAll --verb ObjectToPath --verb EditDeselect --select=txtPath --verb EditDelete --verb EditSelectAll --verb SelectionGroup --verb ZoomSelection --verb FileSave " /> 
	</g>

</svg>
