<svg
   xmlns:xlink="http://www.w3.org/1999/xlink"
   xmlns:svg="http://www.w3.org/2000/svg"
   xmlns="http://www.w3.org/2000/svg"
   xmlns:mingh="http://www.minghworld.com"
   width="300px"
   height="300px" >
	
	 <g>
		<!-- Paths -->
		<path style="fill:none;stroke:#000;stroke-width:0.25px;"
			d="M 151.03 120.66 C 150.25 120.69 149.48 120.94 148.84 121.41 C 147.56 122.3 146.89 124.0 147.22 125.53 C 147.48 126.88 148.46 128.04 149.75 128.53 C 148.01 129.27 146.62 130.69 145.75 132.34 C 144.95 133.92 144.49 135.67 144.34 137.44 C 144.25 138.79 144.31 139.07 143.75 140.34 C 143.35 141.25 142.92 142.16 142.5 143.06 C 142.08 143.97 141.64 144.87 141.25 145.78 C 140.27 148.09 140.13 149.03 138.91 151.25 C 137.95 152.99 136.87 154.66 136.25 156.59 C 135.67 158.42 135.37 160.59 135.47 162.5 C 135.52 163.5 135.7 164.48 136.03 165.44 C 136.2 165.92 136.4 166.34 136.66 166.78 C 136.91 167.2 137.2 167.65 137.75 167.75 C 138.28 167.85 138.79 167.61 139.13 167.22 C 139.46 166.83 139.57 166.3 139.59 165.81 C 139.61 165.56 139.59 165.32 139.56 165.06 C 139.47 164.24 139.37 163.42 139.38 162.59 C 139.39 162.33 139.32 162.03 139.44 161.78 C 139.67 161.38 139.87 160.97 140.03 160.53 C 140.14 162.9 140.13 165.34 140.72 167.66 C 141.13 169.07 141.53 170.52 142.38 171.75 C 143.02 172.74 144.1 173.49 145.31 173.5 C 145.38 173.69 145.35 174.0 145.34 174.22 C 145.2 174.72 144.87 175.14 144.53 175.53 C 143.86 176.23 143.19 176.9 142.63 177.69 C 142.4 178.03 142.13 178.51 142.38 178.91 C 142.69 179.35 143.33 179.45 143.81 179.22 C 144.15 179.11 144.43 178.78 144.81 178.88 C 145.39 179.09 146.04 179.34 146.66 179.13 C 147.14 179.0 147.35 178.43 147.84 178.34 C 148.56 178.29 149.11 178.93 149.81 178.91 C 150.12 178.89 150.45 178.95 150.66 178.34 C 150.96 178.61 151.39 178.66 151.78 178.63 C 152.16 178.58 152.59 178.53 152.91 178.31 C 153.28 178.01 153.27 178.39 153.5 178.5 C 153.89 178.68 154.34 178.63 154.75 178.59 C 155.06 178.58 155.27 178.35 155.5 178.19 C 156.09 178.41 156.76 178.47 157.38 178.31 C 157.83 178.23 158.14 177.63 157.81 177.25 C 157.23 176.55 156.51 175.97 155.84 175.34 C 155.61 175.1 155.31 174.89 155.19 174.56 C 155.17 174.24 155.19 173.89 155.19 173.56 C 155.51 173.5 155.83 173.42 156.13 173.28 C 157.24 172.77 157.79 171.61 158.22 170.53 C 158.98 168.47 159.39 166.26 159.53 164.06 C 159.57 163.55 159.55 162.97 159.59 162.5 C 160.02 163.27 160.71 163.95 160.94 164.81 C 161.06 166.06 161.27 167.73 162.72 168.09 C 164.08 168.34 164.67 166.72 164.53 165.63 C 164.6 162.41 164.08 159.14 162.63 156.25 C 161.37 153.92 159.7 151.84 158.41 149.53 C 156.92 146.95 155.38 144.38 154.25 141.63 C 153.67 140.37 154.17 139.05 154.94 138.0 C 155.84 136.8 156.07 135.28 156.75 133.97 C 157.34 133.08 158.46 132.86 159.44 132.66 C 160.06 132.58 160.58 132.18 160.91 131.66 C 161.12 131.27 161.48 130.78 161.22 130.34 C 160.56 129.66 159.53 129.32 158.59 129.53 C 158.42 129.57 158.29 129.62 158.13 129.69 C 157.76 129.88 157.35 129.93 156.94 129.94 C 156.65 129.94 156.34 130.0 156.09 129.81 C 155.26 129.12 154.3 128.54 153.25 128.25 C 154.33 127.64 155.09 126.54 155.25 125.31 C 155.5 123.71 154.69 122.02 153.28 121.22 C 152.61 120.81 151.81 120.62 151.03 120.66 z M 151.22 122.78 C 152.3 122.78 153.16 123.64 153.16 124.72 C 153.16 125.8 152.3 126.69 151.22 126.69 C 150.14 126.69 149.25 125.8 149.25 124.72 C 149.25 123.64 150.14 122.78 151.22 122.78 z M 150.03 172.22 C 150.2 172.2 150.39 172.19 150.56 172.22 C 151.44 172.36 152.14 172.99 152.94 173.34 C 153.16 173.45 153.09 173.78 153.09 174.0 C 152.89 174.94 152.26 175.74 151.59 176.41 C 151.22 176.8 150.78 177.13 150.53 177.63 C 150.2 177.18 149.8 176.82 149.41 176.44 C 148.78 175.86 148.09 175.32 147.63 174.59 C 147.34 174.24 147.35 173.74 147.41 173.31 C 147.84 173.2 148.25 173.01 148.63 172.78 C 149.06 172.51 149.52 172.28 150.03 172.22 z"
		 />
		 
		 <path style="fill:#f00;stroke:none;"
			d="M 155.21,173.57 C 155.2,173.57 155.19,173.56 155.19,173.58 M 153.44086,128.41986 C 154.09086,128.62986 154.69086,128.94986 155.26086,129.31986 155.04086,129.80986 154.59,130.3 153.99,130.09 153.1,129.72 152.16,130.19 151.45,130.73 149.84,132.1 149.04,134.34 149.33,136.42 149.46,137.35 150.09,138.37 151.1,138.47 152.02,138.44 152.68,137.67 153.26,137.05 154.04,136.18 154.69086,135.22 155.65086,134.56 156.02086,134.35 156.54672,134.14528 156.261,134.72771 155.881,135.67771 155.53261,136.92316 155.00801,137.656 154.51272,138.34789 154.19415,138.82471 153.97329,139.63686 153.04329,139.59686 152.62,140.43 151.99,140.96 151.13,141.75 150.27,142.7 149.09,142.97 148.35,143.14 147.71,142.58 147.4,141.96 146.72,140.62 146.65,139.07 146.67,137.59 146.76,135.65 147.22,133.69 148.2,132.01 148.91,130.79 150.29,130.29 151.49,129.69 152.21,129.34 153.05086,129.19986 153.44086,128.41986 z M 153.29,131.71 C 152.89,131.72 152.64,131.35 152.63,130.99 152.62,130.64 152.85,130.25 153.24,130.24 153.63,130.23 153.89,130.6 153.9,130.95 153.91,131.31 153.68,131.69 153.29,131.71 z M 158.71,153.1 C 158.03,151.33 156.86,149.76 155.5,148.46 153.8,146.94 151.17,146.45 149.14,147.57 147.18,148.66 145.83,150.55 144.64,152.4 142.91,155.24 141.81,158.41 141.03,161.63 141.47,157.49 142.6,153.38 144.63,149.74 145.8,147.74 147.3,145.75 149.48,144.8 151.9,143.73 154.88,144.88 156.25,147.06 157.47,148.88 158.26,150.97 158.71,153.1 z M 155.6,162.59 C 155.57,164.19 155.29,165.84 154.39,167.19 154.04,167.79 153.52,168.31 152.86,168.54 152.69,168.09 153.5,167.58 153.63,167.07 154.08,166.19 154.25,165.15 154.05,164.18 153.8,164.61 153.78,165.17 153.57,165.63 152.98,166.99 151.9,168.09 150.7,168.92 150.3,169.25 149.45,169.53 149.23,169.69 150.13,169.82 151.05,169.52 151.86,169.14 152.09,168.98 152.76,168.53 152.38,169.13 151.94,169.89 151.22,170.56 150.31,170.65 148.78,170.84 147.19,170.62 145.79,169.99 144.65,169.47 143.72,168.55 143.17,167.43 142.86,166.92 142.67,166.34 142.37,165.83 142.18,166.18 142.36,166.71 142.43,167.12 142.68,168.25 143.07,169.44 144,170.2 145.18,171.27 146.8,171.78 148.38,171.62 149.63,171.49 150.88,171.33 152.1,171.02 153.77,170.59 155.01,169.13 155.43,167.5 155.84,165.91 155.86,164.21 155.6,162.59 z M 153.64,161.94 C 153.19,161 153.29,159.69 154.15,159.01 154.9,158.44 156.02,158.74 156.54,159.48 157.44,160.62 157.49,162.16 157.49,163.56 157.46,165.97 156.65,168.48 154.88,170.18 153.96,171.05 152.75,171.51 151.53,171.72 153.22,172.05 155.07,171.45 156.2,170.13 157.49,168.63 158.23,166.72 158.56,164.78 158.85,162.78 158.61,160.55 157.29,158.93 156.58,158.07 155.4,157.4 154.26,157.77 152.93,158.18 152.26,159.8 152.7,161.08 152.85,161.5 153.2,161.84 153.64,161.94 z M 154.91,156.75 C 154.1,156.32 153.07,156.24 152.25,156.68 151.63,157 151.18,157.6 151,158.27 150.81,158.9 150.83,159.62 151.18,160.2 151.23,160.3 151.28,160.38 151.27,160.21 151.37,159.5 151.5,158.76 151.94,158.16 152.29,157.65 152.87,157.36 153.44,157.14 153.92,156.96 154.41,156.8 154.91,156.75 z M 152.8,155.68 C 152.5,155.49 152.16,155.39 151.8,155.4 151.33,155.42 150.83,155.64 150.48,156.07 150.18,156.44 149.99,156.96 149.94,157.47 149.91,157.69 149.91,157.9 149.93,158.11 150.15,157.51 150.46,156.94 150.87,156.53 151.42,155.97 152.14,155.71 152.8,155.68 z M 150.7,162.83 C 149.95,162.34 150.68,161.21 150.7,161.01 149.55,160.91 148.61,161.91 148.3,162.93 147.79,161.83 148.39,160.52 149.33,159.86 148.05,159.61 147.23,160.84 146.7,161.82 146.04,160.64 146.91,159.3 147.87,158.6 146.57,158.46 145.64,159.58 145.29,160.71 145.13,161.17 145.1,161.93 144.84,161.06 144.04,159.07 145.55,156.9 147.39,156.15 147.94,155.94 149.27,155.53 148.64,156.58 148.42,157.11 148.65,159.09 148.89,157.65 149.22,156.46 149.72,155.2 150.9,154.61 151.28,154.26 152.87,154.04 151.65,153.92 150.5,153.78 149.51,154.66 148.94,155.56 148.88,154.29 149.57,152.93 150.88,152.59 152.78,151.9 154.75,152.92 156.12,154.21 158.02,155.86 158.85,158.36 159.07,160.8 159.3,163.66 158.95,166.56 158.17,169.32 157.7,170.69 157.22,172.38 155.74,172.97 154.43,173.54 153.01,173.04 151.9,172.26 150.91,171.58 149.57,171.61 148.58,172.3 147.32,173.14 145.64,173.3 144.22,172.81 142.43,171.91 141.85,169.81 141.29,168.04 141.46,163.11 142.8,158.22 145.17,153.91 146.35,152 147.69,150.03 149.67,148.88 151.15,147.98 153.06,148.3 154.38,149.34 156.36,150.75 157.55,152.96 158.25,155.24 158.43,155.77 158.93,157.3 158.48,156.02 157.41,153.27 155.21,150.76 152.29,149.96 150.39,149.61 148.64,150.84 147.28,152.03 144.18,154.97 142.54,159.36 142.75,163.62 142.86,165.91 144.37,168.26 146.73,168.73 148.71,169.21 151.07,168.41 151.95,166.46 152.6,165.12 152.95,163.36 152.07,162.04 151.52,161.28 150.42,161.98 150.7,162.83 z"
		 />

		<!-- Prism Reference -->
		<cam mingh:cam="--verb EditSelectAll --verb ZoomSelection --verb FileSave" /> 
	 </g>

</svg>
