<svg
   xmlns:xlink="http://www.w3.org/1999/xlink"
   xmlns:svg="http://www.w3.org/2000/svg"
   xmlns="http://www.w3.org/2000/svg"
   xmlns:mingh="http://www.minghworld.com"
   width="300px"
   height="300px" >
   
	<g>
		<!-- text path -->
		<path id="txtPath" style="fill:#0f0;stroke:none;" class="shape"
         d="M 141.75,122.66 C 130.88,126.14 123,136.34 123,148.38 123,163.29 135.09,175.38 150,175.38 164.91,175.38 177,163.29 177,148.38 L 177,148.38 C 177,136.34 169.12,126.14 158.25,122.66" /> 
	
		<!-- Shape -->
		<path id="shape" style="fill:none;stroke:#000;stroke-width:0.25px;" class="shape"
			d="M 170.66,154.06 C 171.3,153.97 171.93,154.48 171.88,155.13 171.6,156.31 171.1,157.44 170.56,158.53 167.16,165.56 159.9,170.5 152.13,171.16 151.47,171.22 150.88,170.78 150.88,170.09 150.88,169.78 151.01,169.48 151.25,169.28 151.51,169.06 151.79,169.06 152.09,169.03 155.93,168.66 159.63,167.16 162.69,164.81 166.08,162.25 168.49,158.56 169.88,154.56 169.98,154.26 170.34,154.11 170.66,154.06 z M 129.13,154.03 C 129.2,154.02 129.29,154.02 129.38,154.03 129.69,154.06 130,154.27 130.13,154.56 130.46,155.51 130.82,156.44 131.25,157.34 134.26,163.78 140.83,168.37 147.91,169.03 148.14,169.05 148.39,169.07 148.59,169.19 149.05,169.43 149.23,170.06 149.03,170.53 148.86,170.98 148.34,171.21 147.88,171.16 142.47,170.68 137.3,168.21 133.53,164.31 131.05,161.74 129.11,158.58 128.16,155.13 128.15,154.56 128.58,154.09 129.13,154.03 z M 163.84,130.22 C 164.14,130.25 164.35,130.39 164.56,130.56 167.27,132.78 169.44,135.62 170.88,138.81 172.67,142.77 173.31,147.17 172.72,151.47 172.64,152.04 172.14,152.44 171.56,152.38 170.99,152.31 170.58,151.79 170.63,151.22 170.69,150.66 170.75,150.12 170.78,149.56 171.16,143.83 169.01,137.99 165,133.88 164.35,133.16 163.55,132.59 162.88,131.91 162.65,131.68 162.61,131.44 162.66,131.13 162.74,130.56 163.27,130.16 163.84,130.22 z M 136.44,130.22 C 136.84,130.28 137.2,130.59 137.31,131 137.4,131.31 137.35,131.54 137.19,131.81 137.05,132.05 136.83,132.17 136.63,132.34 131.2,136.8 128.38,144.18 129.38,151.13 129.45,151.7 129.15,152.21 128.56,152.34 128,152.47 127.46,152.15 127.31,151.59 126.1,143.85 129.27,135.61 135.34,130.66 135.55,130.48 135.75,130.32 136.03,130.25 136.17,130.22 136.3,130.2 136.44,130.22 z M 150,129.44 C 151.08,129.44 151.94,130.33 151.94,131.41 151.94,132.48 151.08,133.34 150,133.34 148.92,133.34 148.06,132.48 148.06,131.41 148.06,130.33 148.92,129.44 150,129.44 z M 136.81,122.38 C 136.45,122.39 136.07,122.49 135.72,122.69 135.48,122.82 135.24,122.98 135,123.13 134.52,123.41 134.06,123.72 133.59,124.03 129.61,126.72 126.34,130.35 124.09,134.59 120.13,142.07 119.58,150.85 122.59,158.75 125.61,166.65 131.88,172.88 139.81,175.81 147.74,178.75 156.54,178.13 163.97,174.09 171.4,170.06 176.73,163.03 178.59,154.78 180.46,146.53 178.67,137.9 173.69,131.06 172.18,128.99 170.49,127.18 168.5,125.56 167.55,124.79 166.56,124.08 165.53,123.44 165.04,123.13 164.55,122.83 164.03,122.56 163.71,122.38 163.3,122.33 162.94,122.38 161.81,122.53 160.9,123.42 160.41,124.41 159.93,125.38 159.74,126.64 160.34,127.59 160.55,127.98 160.98,128.12 161.28,128.41 162.06,129.3 161.01,130.6 159.97,130.03 153.96,126.69 146.26,126.66 140.22,129.94 140.03,130.06 139.82,130.14 139.59,130.16 139.22,130.19 138.82,130.01 138.63,129.69 138.38,129.31 138.38,128.78 138.69,128.44 138.78,128.32 138.91,128.23 139.03,128.16 139.77,127.72 140.08,126.82 140.03,126 139.94,124.61 139.1,123.25 137.84,122.63 137.51,122.45 137.17,122.36 136.81,122.38 z M 145.42,142.91 C 145.05,142.02 145.46,141 146.35,140.63 147.23,140.26 148.25,140.68 148.62,141.56 148.99,142.45 148.58,143.46 147.69,143.83 146.81,144.21 145.79,143.79 145.42,142.91 z M 143.09,161.96 C 143.13,161.83 143.19,161.72 143.26,161.6 143.44,161.32 143.63,161.04 143.82,160.76 145.21,158.47 146.52,156.13 147.95,153.85 148.36,153.1 148.96,152.43 149.24,151.62 148.91,150.57 148.44,149.57 148.06,148.54 147.81,147.72 147.28,146.91 147.45,146.03 147.66,145.17 148.6,144.71 149.43,144.85 151.43,144.61 153.41,144.25 155.41,144.12 155.53,144.1 155.66,144.09 155.78,144.07 155.95,144.09 156.2,143.97 156.11,143.77 155.95,143.6 155.74,143.5 155.55,143.36 152.24,141.19 148.93,139.02 145.62,136.85 145.43,136.72 145.28,136.6 145.12,136.85 145.07,136.93 145.01,137.01 144.96,137.08 144.81,137.27 144.7,137.48 144.54,137.65 144.45,137.76 144.29,137.79 144.17,137.73 143.98,137.66 143.91,137.42 144,137.26 144.37,136.73 144.74,136.22 145.11,135.7 149.03,138.27 152.96,140.85 156.89,143.43 157.05,143.52 157.23,143.61 157.34,143.78 157.46,143.98 157.41,144.28 157.21,144.43 157.02,144.57 156.78,144.62 156.56,144.68 155.84,144.87 155.14,145.1 154.43,145.32 153.28,145.69 152.09,145.93 150.93,146.25 150.85,146.26 150.75,146.27 150.7,146.35 150.62,146.44 150.66,146.57 150.71,146.67 151.13,148.24 151.5,149.83 151.86,151.41 152.25,152.93 152.32,154.49 152.54,156.03 152.69,156.69 152.56,157.37 152.37,158.01 152.09,159.36 151.64,160.66 151.44,162.03 151.4,162.22 151.33,162.42 151.19,162.57 151.1,162.68 150.92,162.71 150.8,162.61 150.68,162.46 150.66,162.26 150.66,162.07 150.66,162.02 150.66,161.97 150.67,161.92 150.84,160.77 150.93,159.62 151.03,158.46 151.13,157.09 150.83,155.72 150.59,154.38 150.5,153.89 150.41,153.45 150.17,153.74 149.86,154.15 149.57,154.59 149.27,155.01 148.66,155.92 148.01,156.8 147.33,157.65 146.25,159.08 145.05,160.42 144.01,161.89 143.93,162 143.85,162.1 143.76,162.2 143.67,162.29 143.56,162.37 143.43,162.43 143.37,162.47 143.3,162.49 143.24,162.48 143.18,162.47 143.13,162.41 143.09,162.36 143.03,162.24 143.05,162.1 143.09,161.96 z" />
			
		<path id="shapeMark" style="fill:#f00;stroke:none;" class="shape"
			d="M 163.62,156.52 C 163.44,156.81 163.01,156.82 162.82,156.53 162.61,156.19 162.88,155.92 163.03,155.67 163.34,155.15 163.61,154.6 163.85,154.04 164.35,152.88 164.68,151.7 164.87,150.44 165.23,147.96 164.94,145.43 164.02,143.09 163.1,140.76 161.59,138.71 159.64,137.14 158.64,136.34 157.59,135.7 156.42,135.19 155.86,134.94 155.28,134.73 154.69,134.55 154.4,134.47 154.11,134.39 153.81,134.32 153.48,134.25 153.28,133.91 153.47,133.6 153.68,133.25 154.01,133.39 154.3,133.46 154.59,133.53 154.88,133.61 155.18,133.7 155.77,133.89 156.34,134.11 156.91,134.36 158.08,134.89 159.14,135.53 160.15,136.33 162.11,137.88 163.66,139.89 164.67,142.19 166.72,146.84 166.33,152.21 163.62,156.52 z M 141.24,160.53 C 137.89,157.97 135.68,153.99 135.33,149.79 135.31,149.11 136.35,149.2 136.3,149.86 136.66,153.78 138.78,157.48 141.92,159.85 142.29,160.22 141.72,160.91 141.29,160.56 141.29,160.56 141.26,160.54 141.24,160.53 z M 142.36,158.44 C 140.25,156.73 138.71,154.33 138.01,151.7 137.9,151.32 138.38,150.96 138.71,151.18 139.01,151.35 138.98,151.73 139.1,152.01 139.8,154.25 141.18,156.26 143.0,157.73 143.29,157.99 143.09,158.53 142.7,158.54 142.58,158.56 142.46,158.52 142.36,158.44 z M 163.04,152.18 C 162.87,152.79 161.87,152.44 162.15,151.81 163.06,148.82 162.74,145.49 161.27,142.73 160.07,140.42 158.07,138.53 155.71,137.43 155.13,137.13 155.61,136.27 156.22,136.62 159.45,138.15 161.98,141.07 163.02,144.49 163.8,146.98 163.81,149.69 163.04,152.18 z" />
		
		<text  style="stroke:none;fill:#f00;font-family:z_ariola;font-size:5px;text-anchor:middle;" dy="0.5" >
			<textPath xlink:href="#txtPath" startOffset="50%" id="txt1"></textPath>
		</text>

		<!-- Prism Reference -->
		<cam mingh:cam="--verb EditSelectAll --verb SelectionUnGroup --verb EditSelectAll --verb ObjectToPath --verb EditDeselect --select=txtPath --verb EditDelete --verb EditSelectAll --verb SelectionGroup --verb ZoomSelection --verb FileSave " /> 
	</g>

</svg>
