<svg
   xmlns:xlink="http://www.w3.org/1999/xlink"
   xmlns:svg="http://www.w3.org/2000/svg"
   xmlns="http://www.w3.org/2000/svg"
   xmlns:mingh="http://www.minghworld.com"
   width="300px"
   height="300px" >
	 <g>
		<!-- Paths -->
		<path id="shape" transform="matrix(-1 0 0 1 300 0)" style="fill:#ff0;stroke:none;"
			d="M 150.0,129.19 C 138.5,129.19 129.19,138.5 129.19,150.0 129.19,161.5 138.5,170.81 150.0,170.81 161.5,170.81 170.81,161.5 170.81,150.0 170.81,138.5 161.5,129.19 150.0,129.19 z M 150.0,131.13 C 151.08,131.13 151.94,132.02 151.94,133.09 151.94,134.17 151.08,135.03 150.0,135.03 148.92,135.03 148.06,134.17 148.06,133.09 148.06,132.02 148.92,131.13 150.0,131.13 z M 144.99,148.34 C 145.49,149.31 146.14,150.19 146.73,151.12 146.77,151.2 146.85,151.26 146.93,151.26 147.05,151.26 147.15,151.2 147.24,151.13 147.77,150.68 148.27,150.19 148.8,149.74 148.98,149.56 149.21,149.42 149.37,149.22 149.64,148.23 149.83,147.22 150.04,146.22 150.41,146.87 150.83,147.5 151.25,148.11 151.09,148.61 150.97,149.13 150.81,149.62 150.75,149.89 150.51,150.05 150.28,150.18 149.46,150.71 148.6,151.16 147.8,151.72 147.58,151.87 147.38,152.05 147.13,152.15 146.98,152.21 146.79,152.23 146.66,152.13 146.49,151.97 146.41,151.76 146.28,151.58 145.85,150.88 145.4,150.2 144.98,149.49 144.6,148.8 144.09,148.18 143.41,147.75 142.67,147.17 141.76,146.89 140.93,146.49 139.84,145.98 139.26,144.81 139.07,143.68 138.92,142.74 139.07,141.59 139.92,141.02 140.75,140.46 141.84,140.69 142.63,141.19 142.78,141.29 142.93,141.39 143.08,141.51 143.98,142.23 144.65,143.31 144.56,144.48 144.45,145.77 144.37,147.17 144.99,148.34 z M 153.2,150.89 C 153.55,151.42 153.85,151.98 154.22,152.49 153.65,152.91 153.07,153.33 152.5,153.75 152.33,153.93 152.0,154.02 151.94,154.28 152.13,155.51 152.25,156.74 152.39,157.98 152.46,158.66 152.58,159.33 152.69,160.0 152.71,160.18 152.73,160.36 152.67,160.53 152.63,160.65 152.56,160.77 152.45,160.83 152.37,160.88 152.28,160.85 152.21,160.79 152.0,160.6 151.89,160.33 151.84,160.06 151.65,159.08 151.4,158.1 151.14,157.13 150.84,156.07 150.61,154.99 150.31,153.93 150.16,153.49 150.46,153.08 150.79,152.83 151.63,152.23 152.39,151.53 153.2,150.89 z M 140.09,150.92 C 140.69,150.51 141.5,150.68 141.9,151.28 142.3,151.88 142.14,152.69 141.54,153.09 140.94,153.49 140.13,153.33 139.73,152.73 139.33,152.13 139.49,151.32 140.09,150.92 z M 151.78,139.87 C 152.16,140.82 151.69,141.9 150.74,142.28 149.78,142.65 148.71,142.19 148.33,141.23 147.95,140.28 148.42,139.2 149.37,138.82 150.32,138.45 151.4,138.91 151.78,139.87 z M 162.9,161.22 C 162.62,161.08 162.44,160.81 162.28,160.56 161.54,159.44 160.67,158.42 159.88,157.34 158.49,155.38 156.67,153.78 155.23,151.87 154.44,150.65 153.65,149.42 152.81,148.23 152.25,147.28 151.41,146.51 150.99,145.49 150.52,144.19 151.61,142.87 152.8,142.5 153.95,142.22 155.14,142.29 156.31,142.16 157.07,142.21 157.87,141.87 158.59,142.13 159.51,142.87 160.2,143.85 161.05,144.66 161.21,144.82 161.39,144.96 161.52,145.15 161.62,145.29 161.69,145.47 161.63,145.64 161.56,145.77 161.39,145.81 161.25,145.78 160.99,145.72 160.79,145.53 160.6,145.35 160.23,145.02 159.83,144.73 159.43,144.43 159.08,144.16 158.72,143.91 158.39,143.63 158.21,143.45 157.94,143.55 157.72,143.58 156.79,143.69 155.86,143.86 155.31,143.96 154.77,144.05 154.6,144.03 154.44,144.08 154.35,144.11 154.26,144.21 154.29,144.31 154.4,144.5 154.52,144.69 154.61,144.89 155.54,146.65 156.39,148.44 157.37,150.18 158.03,151.57 158.86,152.87 159.67,154.19 160.81,156.2 161.83,158.28 163.08,160.22 163.2,160.42 163.32,160.63 163.37,160.86 163.4,161.01 163.36,161.2 163.22,161.28 163.11,161.33 162.99,161.27 162.9,161.22 z" />

		<!-- Text -->
		<text id="txtTwo" dy="2.8" transform="matrix(1 0 0 1 150 150)" style="stroke:none;fill:#f00;font-family:'Eras Medium ITC';font-size:10px;text-anchor:middle" >
		</text>
		<!-- Prism Reference -->
		<cam mingh:cam=" --verb EditSelectAll --verb ZoomSelection --verb FileSave"/> 
	 </g>

</svg>