<svg
   xmlns:xlink="http://www.w3.org/1999/xlink"
   xmlns:svg="http://www.w3.org/2000/svg"
   xmlns="http://www.w3.org/2000/svg"
   xmlns:mingh="http://www.minghworld.com"
   width="300px"
   height="300px" >
   
	<g>	
		<!-- Shape -->
		<path id="shape" style="fill:none;stroke:#000;stroke-width:0.25px;"
			d="M 150.0,129.19 C 138.5,129.19 129.19,138.5 129.19,150.0 129.19,161.5 138.5,170.81 150.0,170.81 161.5,170.81 170.81,161.5 170.81,150.0 170.81,138.5 161.5,129.19 150.0,129.19 z M 150.0,131.13 C 151.08,131.13 151.94,132.02 151.94,133.09 151.94,134.17 151.08,135.03 150.0,135.03 148.92,135.03 148.06,134.17 148.06,133.09 148.06,132.02 148.92,131.13 150.0,131.13 z M 149.01,152.06 C 149.4,151.55 149.74,151.02 150.1,150.5 150.21,150.15 150.88,149.75 150.55,149.42 149.93,149.2 149.3,149.01 148.68,148.8 148.29,148.58 147.7,148.65 147.48,148.19 147.21,147.65 147.59,147.1 147.86,146.64 148.38,145.62 148.88,144.58 149.41,143.56 149.69,142.99 150.52,142.76 151.01,143.19 151.48,143.69 151.79,144.31 152.18,144.87 152.45,145.22 152.63,145.71 152.99,145.96 153.65,145.93 154.31,145.97 154.97,145.91 155.1,145.89 155.24,145.88 155.36,145.95 155.43,145.98 155.51,146.07 155.44,146.14 155.31,146.26 155.12,146.28 154.95,146.29 154.18,146.38 153.42,146.6 152.65,146.69 152.17,146.62 152.03,146.04 151.7,145.74 151.45,145.55 151.25,144.82 150.88,145.14 150.49,145.72 150.11,146.29 149.71,146.87 149.6,147.18 149.05,147.53 149.32,147.85 149.95,148.1 150.58,148.35 151.22,148.59 151.65,148.66 152.2,149.08 151.81,149.53 150.99,150.53 150.07,151.43 149.25,152.43 149.16,152.54 149.08,152.65 148.98,152.74 148.89,152.82 148.78,152.89 148.67,152.89 148.57,152.86 148.61,152.73 148.63,152.66 148.7,152.43 148.88,152.25 149.01,152.06 z M 151.43,140.17 C 152.06,140.18 152.58,140.78 152.52,141.4 152.5,142.02 151.89,142.51 151.28,142.45 150.55,142.41 150.04,141.56 150.33,140.9 150.49,140.45 150.96,140.15 151.43,140.17 z M 133.71,150.05 C 134.08,150.19 134.49,150.33 134.89,150.22 135.75,150.0 136.46,149.41 137.22,148.98 137.96,148.56 138.75,148.08 139.63,148.12 140.55,148.18 141.3,148.79 142.05,149.25 142.33,149.45 142.69,149.51 143.0,149.35 143.53,149.16 144.05,148.9 144.61,148.83 145.18,148.77 145.74,148.86 146.3,148.92 146.51,149.32 146.89,149.61 147.3,149.8 147.71,150.0 148.15,150.1 148.58,150.24 148.18,150.92 147.56,151.47 147.3,152.23 147.03,152.92 147.35,153.76 147.98,154.11 148.66,154.5 149.53,154.21 150.03,153.67 150.81,152.71 151.68,151.82 152.49,150.88 152.98,150.36 153.44,149.68 153.32,148.92 153.46,148.88 153.62,148.86 153.74,148.76 154.03,148.43 154.31,148.08 154.62,147.76 154.79,147.73 154.96,147.71 155.12,147.69 155.56,147.64 156.01,147.51 156.34,147.2 156.72,146.84 156.94,146.28 156.84,145.76 157.54,145.32 158.3,144.99 159.09,144.75 159.48,144.65 159.86,144.47 160.13,144.16 160.37,143.91 160.48,143.57 160.71,143.31 160.71,143.63 160.83,143.94 161.0,144.21 161.28,144.7 161.75,145.03 162.04,145.51 162.18,145.8 162.36,146.06 162.57,146.31 162.9,146.74 163.29,147.13 163.57,147.6 163.8,147.94 163.77,148.4 163.57,148.75 163.5,148.88 163.4,149.02 163.27,149.03 163.05,148.97 162.86,148.86 162.67,148.75 161.93,148.38 161.29,147.79 160.45,147.64 159.94,147.55 159.27,147.37 158.91,147.87 158.34,148.65 157.87,149.52 157.6,150.45 157.36,151.51 157.57,152.61 157.66,153.67 157.74,154.68 158.25,155.58 158.77,156.42 159.72,158.09 161.16,159.39 162.55,160.69 162.9,161.08 163.38,161.36 163.66,161.81 163.44,161.89 163.21,161.87 162.99,161.88 162.85,161.9 162.74,161.78 162.69,161.67 162.58,161.44 162.47,161.21 162.29,161.04 162.13,160.87 161.94,160.75 161.73,160.66 161.33,160.46 161.09,160.08 160.83,159.73 160.78,159.67 160.73,159.61 160.68,159.55 159.73,158.52 158.72,157.55 157.7,156.59 157.09,156.05 156.51,155.44 155.79,155.06 155.33,154.74 154.68,155.14 154.85,155.7 155.14,156.55 155.64,157.31 156.0,158.14 156.35,158.68 155.68,159.0 155.3,159.24 154.86,159.48 154.51,159.87 154.04,160.05 153.27,160.24 152.47,160.23 151.68,160.3 151.85,160.03 152.01,159.76 152.26,159.56 152.43,159.67 152.56,159.83 152.74,159.93 153.34,160.17 153.9,159.57 154.48,159.44 154.97,159.25 155.9,158.78 155.34,158.17 154.66,157.44 153.94,156.76 153.16,156.14 152.65,155.81 152.45,155.02 151.7,155.09 149.99,154.98 148.29,154.62 146.71,153.94 145.98,153.55 146.05,154.58 146.0,155.02 145.96,156.07 145.81,157.14 145.95,158.19 146.05,159.15 146.89,159.76 147.57,160.35 148.39,161.1 149.2,161.89 149.85,162.81 L 149.69,162.84 C 149.06,162.95 148.74,162.77 148.56,162.23 147.59,161.06 146.49,159.99 145.27,159.08 144.78,158.82 144.89,158.17 144.8,157.71 144.68,156.95 144.69,156.11 144.26,155.45 143.82,155.29 143.37,155.82 142.94,155.94 141.76,156.57 140.49,157.05 139.45,157.9 138.64,158.57 138.24,159.6 137.48,160.31 136.97,160.65 136.47,161.02 135.93,161.31 135.97,161.06 135.88,160.68 136.12,160.52 136.72,160.45 137.31,160.18 137.66,159.67 138.26,158.82 138.92,157.98 139.27,156.98 139.56,156.33 140.38,156.33 140.93,156.0 141.49,155.75 141.92,155.2 141.73,154.56 141.71,153.96 141.53,153.38 141.38,152.8 141.34,152.18 141.33,151.53 141.5,150.92 141.52,150.43 142.6,149.91 141.94,149.56 141.82,149.5 141.71,149.44 141.6,149.39 141.11,149.12 140.5,149.12 140.0,149.34 139.05,149.76 138.26,150.45 137.41,151.02 136.85,151.41 136.13,151.4 135.49,151.23 134.77,151.08 134.16,150.61 133.71,150.05 z" />
			
		<path id="shapeMark" style="fill:#f00;stroke:none;"
			d="M 143.1,141.31 C 142.87,141.55 141.8,141.95 141.37,141.96 141.17,141.97 141.17,141.95 141.36,141.63 141.68,141.11 141.7,140.87 141.43,140.8 141.0,140.68 140.31,140.7 139.57,140.86 139.16,140.94 138.61,141.0 138.36,140.97 137.81,140.92 136.7,140.49 136.06,140.08 135.6,139.78 135.6,139.78 135.95,139.91 136.51,140.12 137.36,140.12 138.63,139.89 139.27,139.78 139.98,139.69 140.2,139.69 140.78,139.7 141.4,139.91 141.76,140.23 141.86,140.32 141.97,140.42 142.07,140.51 142.1,140.37 142.12,140.24 142.15,140.1 142.3,139.35 143.06,138.95 144.9,138.63 145.72,138.49 147.04,138.01 147.86,137.55 148.47,137.21 148.4,137.37 147.68,137.96 147.28,138.28 146.93,138.47 145.93,138.87 144.48,139.45 143.16,140.13 142.95,140.4 142.81,140.57 142.82,140.58 143.16,140.49 143.28,140.46 143.4,140.43 143.52,140.4 143.48,140.51 143.45,140.63 143.42,140.74 143.36,140.92 143.22,141.18 143.1,141.31 z M 141.34,137.27 C 141.28,137.4 141.07,137.62 140.87,137.75 140.55,137.97 140.51,137.96 140.54,137.68 140.57,137.41 140.52,137.35 140.22,137.34 140.04,137.33 139.63,137.44 139.34,137.57 139.0,137.72 138.56,137.75 138.16,137.66 137.7,137.55 137.62,137.5 137.87,137.47 138.06,137.45 138.55,137.3 138.96,137.15 139.37,137.0 139.92,136.92 140.17,136.96 140.54,137.02 140.65,136.98 140.72,136.76 140.78,136.57 141.18,136.27 142.13,135.74 143.63,134.89 143.56,135.17 142.01,136.24 141.36,136.68 141.13,136.9 141.26,136.96 141.36,137.0 141.4,137.15 141.34,137.27 z" />
			
		<!-- Prism Reference -->
		<cam mingh:cam="--verb EditSelectAll --verb ZoomSelection --verb FileSave" /> 
	</g>

</svg>
