<svg
   xmlns:xlink="http://www.w3.org/1999/xlink"
   xmlns:svg="http://www.w3.org/2000/svg"
   xmlns="http://www.w3.org/2000/svg"
   xmlns:mingh="http://www.minghworld.com"
   width="300px"
   height="300px" >

	<g>	
		<!-- Shape -->
		<path id="shape" style="stroke:#000;stroke-width:0.25px;" fill="none"
			d="M 148.06,132.8 C 146.23,132.8 144.74,134.29 144.74,136.11 144.74,136.93 145.06,137.66 145.56,138.23 144.84,138.35 144.56,138.43 143.74,138.73 143.39,138.41 143.23,138.43 141.9,138.73 140.41,139.09 138.81,139.9 136.84,140.61 134.02,141.63 130.89,142.68 130.12,144.08 129.3,145.82 129.55,146.8 129.65,147.52 129.91,149.51 129.87,150.73 129.4,152.39 130.24,153.28 130.28,153.75 130.52,154.52 129.12,155.46 128.05,156.22 127.09,157.2 126.4,157.91 125.62,158.83 125.15,160.02 124.53,161.59 124.79,163.13 125.93,164.3 126.65,165.03 127.56,165.58 128.65,165.98 130.88,166.81 133.19,167.2 135.71,167.2 137.02,167.2 138.39,167.08 139.81,166.86 142.48,166.44 144.85,165.45 146.81,164.55 149.18,163.45 151.63,162.38 153.99,161.33 L 155.46,160.67 C 155.92,160.87 156.38,161.06 156.84,161.27 157.74,161.66 158.67,162.06 159.62,162.42 162.43,163.49 165.07,164.02 167.68,164.02 168.07,164.02 168.45,164.01 168.84,163.98 170.02,163.91 171.14,163.64 172.15,163.14 173.77,162.33 174.86,160.88 175.12,159.17 175.38,157.49 174.78,155.75 173.52,154.55 172.56,153.62 171.46,153.08 170.52,152.67 168.5,151.79 166.54,151.36 164.62,151.36 164.38,151.36 164.14,151.38 163.9,151.39 163.9,150.19 163.84,149.1 163.65,148.14 162.85,144.05 160.35,141.37 156.37,140.3 156.14,140.24 155.93,140.19 155.71,140.14 155.18,140.02 154.73,139.92 154.34,139.7 153.21,139.08 151.9,138.64 150.43,138.36 151.0,137.77 151.34,137.0 151.34,136.11 151.34,134.29 149.88,132.8 148.06,132.8 z M 148.06,134.45 C 148.97,134.45 149.71,135.2 149.71,136.11 149.71,137.02 148.97,137.73 148.06,137.73 147.14,137.73 146.4,137.02 146.4,136.11 146.4,135.2 147.14,134.45 148.06,134.45 z" />
			
		<path id="shape" style="fill:#f00;stroke:none;"
			d="M 132.02,157.74 C 132.16,157.81 132.3,157.87 132.43,157.93 133.46,158.37 134.56,158.62 135.71,158.77 137.42,159.01 139.12,159.2 140.71,159.37 141.01,159.4 141.29,159.38 141.59,159.4 141.61,159.4 141.63,159.43 141.65,159.43 141.85,159.49 142.45,159.59 144.37,159.71 145.42,159.78 146.48,159.68 147.4,159.68 147.24,159.74 145.88,160.49 145.71,160.56 143.34,161.45 140.94,162.28 138.43,162.68 136.83,162.94 135.23,163.1 133.62,162.81 133.36,162.76 133.28,162.68 133.37,162.43 133.47,162.15 133.56,161.87 133.65,161.59 133.62,161.57 133.58,161.54 133.56,161.52 133.36,161.8 133.12,162.07 132.96,162.37 132.79,162.68 132.6,162.56 132.37,162.49 132.1,162.42 132.16,162.25 132.21,162.09 132.34,161.64 132.49,161.19 132.62,160.74 132.65,160.64 132.69,160.55 132.68,160.43 132.14,160.9 131.82,161.51 131.49,162.12 131.1,162.03 131.02,161.94 131.12,161.59 131.3,160.91 131.52,160.23 131.71,159.56 131.75,159.44 131.77,159.35 131.77,159.21 131.2,159.76 130.81,160.4 130.37,161.12 130.16,160.74 130.16,160.43 130.24,160.09 130.7,159.19 131.32,158.42 132.02,157.74 z M 164.68,156.21 C 166.3,156.09 167.79,156.4 169.12,157.59 169.48,157.91 169.75,158.27 169.59,158.77 169.42,159.27 169.03,159.58 168.52,159.68 168.27,159.73 168.01,159.74 167.65,159.77 167.83,159.56 167.95,159.4 168.06,159.27 167.59,159.36 167.13,159.51 166.68,159.52 166.44,159.53 166.19,159.35 165.9,159.24 166.2,158.98 166.45,158.75 166.71,158.52 166.7,158.5 166.7,158.48 166.68,158.46 166.37,158.56 166.05,158.65 165.74,158.77 165.27,158.97 164.94,158.76 164.62,158.43 164.9,158.19 165.19,157.95 165.46,157.71 165.45,157.68 165.42,157.64 165.4,157.62 165.16,157.71 164.92,157.81 164.68,157.9 164.2,158.07 164.17,158.07 163.87,157.68 163.58,157.31 163.33,156.91 163.02,156.46 163.59,156.34 164.14,156.25 164.68,156.21 z M 148.68,154.49 C 147.47,155.44 146.35,157.03 146.09,158.24 L 144.84,158.71 C 145.03,158.07 145.36,156.97 145.56,156.43 145.84,155.84 146.44,155.14 147.21,154.56 147.45,154.54 148.52,154.5 148.68,154.49 z M 165.09,153.62 C 167.55,153.53 169.79,154.21 171.71,155.96 172.23,156.43 172.64,157.01 172.87,157.68 173.25,158.8 172.87,159.99 171.9,160.84 171.26,161.39 170.49,161.61 169.68,161.71 166.4,162.12 163.27,161.56 160.27,160.21 159.61,159.91 158.98,159.52 158.34,159.18 158.35,159.15 158.36,159.15 158.37,159.12 158.73,159.09 159.06,159.04 159.43,159.21 161.53,160.22 163.75,160.94 166.09,161.12 167.23,161.21 168.39,161.16 169.52,160.93 170.12,160.81 170.66,160.58 171.09,160.12 171.85,159.29 171.82,157.96 170.99,157.21 169.71,156.05 168.24,155.22 166.49,154.99 165.41,154.85 164.36,155.1 163.31,155.31 160.66,155.83 158.21,156.87 155.87,158.18 153.49,159.52 150.98,160.51 148.43,161.46 146.31,162.25 144.15,162.99 141.99,163.68 140.04,164.3 138.03,164.51 135.99,164.62 134.32,164.7 132.65,164.64 131.02,164.21 130.0,163.94 129.02,163.58 128.15,162.96 127.19,162.29 126.93,161.27 127.43,160.21 127.77,159.48 128.36,158.94 128.93,158.4 129.9,157.38 130.89,156.55 131.93,155.81 131.93,156.04 131.93,156.27 131.93,156.52 131.93,156.6 131.93,156.69 131.93,156.77 131.57,157.07 131.21,157.35 130.9,157.65 130.45,158.09 129.78,158.88 129.46,159.43 128.73,160.71 129.02,161.83 130.24,162.65 131.06,163.2 132.0,163.48 132.96,163.62 136.41,164.11 139.75,163.68 143.02,162.52 145.78,161.55 148.41,160.27 151.06,159.06 154.09,157.66 157.08,156.23 160.12,154.84 161.35,154.27 162.67,153.88 164.02,153.71 164.38,153.67 164.74,153.63 165.09,153.62 z M 144.68,153.37 C 144.68,153.46 144.71,153.56 144.74,153.65 144.76,153.7 144.78,153.73 144.81,153.77 144.83,153.82 144.9,153.86 144.93,153.9 145.07,154.05 145.24,154.13 145.43,154.15 145.62,154.17 145.82,154.14 145.99,154.02 146.04,154.0 146.08,153.97 146.12,153.93 146.16,153.89 146.21,153.85 146.24,153.81 146.3,153.72 146.31,153.64 146.34,153.56 L 144.68,153.37 z M 145.34,152.52 C 145.24,152.55 145.17,152.59 145.09,152.65 145.04,152.68 145.0,152.71 144.96,152.74 144.92,152.78 144.87,152.83 144.84,152.87 144.78,152.95 144.74,153.03 144.71,153.12 L 146.37,153.31 C 146.37,153.22 146.37,153.12 146.34,153.02 146.32,152.98 146.27,152.94 146.24,152.9 146.22,152.86 146.18,152.81 146.15,152.77 146.01,152.62 145.84,152.55 145.65,152.52 145.55,152.51 145.43,152.5 145.34,152.52 z M 131.9,152.02 C 131.9,152.11 131.93,152.21 131.96,152.31 131.98,152.35 132.0,152.39 132.02,152.43 132.05,152.47 132.08,152.52 132.12,152.56 132.26,152.71 132.42,152.81 132.62,152.84 132.81,152.86 133.04,152.8 133.21,152.68 133.26,152.65 133.3,152.62 133.34,152.59 133.37,152.55 133.4,152.5 133.43,152.46 133.49,152.38 133.53,152.3 133.56,152.21 L 131.9,152.02 z M 132.56,151.18 C 132.46,151.2 132.36,151.25 132.27,151.31 132.23,151.33 132.19,151.36 132.15,151.4 132.11,151.44 132.08,151.48 132.06,151.52 132.0,151.61 131.96,151.69 131.93,151.77 L 133.59,151.96 C 133.58,151.87 133.56,151.77 133.52,151.68 133.51,151.63 133.49,151.6 133.46,151.56 133.43,151.51 133.4,151.47 133.37,151.43 133.23,151.28 133.03,151.2 132.84,151.18 132.74,151.17 132.65,151.16 132.56,151.18 z M 147.93,141.99 C 148.02,141.96 148.15,142.02 148.24,142.09 150.37,143.65 151.91,145.65 152.93,148.09 153.62,149.73 153.94,151.45 154.06,153.21 154.08,153.55 154.01,153.76 153.68,153.87 153.53,153.92 153.37,154.0 153.18,154.09 153.1,153.66 153.03,153.29 152.96,152.9 152.93,152.89 152.93,152.87 152.9,152.87 152.87,152.95 152.82,153.03 152.81,153.12 152.75,153.43 152.72,153.77 152.68,154.09 152.65,154.34 152.53,154.5 152.21,154.52 152.13,154.08 152.05,153.66 151.96,153.21 151.93,153.21 151.9,153.21 151.87,153.21 151.81,153.6 151.74,153.98 151.68,154.37 151.66,154.49 151.68,154.61 151.62,154.71 151.56,154.81 151.43,154.88 151.34,154.96 151.29,154.88 151.23,154.8 151.21,154.71 151.14,154.33 151.06,153.94 150.99,153.56 150.96,153.55 150.93,153.56 150.9,153.56 150.87,153.64 150.85,153.72 150.84,153.81 150.77,154.21 150.72,154.62 150.65,155.02 150.61,155.29 150.56,155.33 150.24,155.37 150.16,154.86 150.08,154.35 149.99,153.84 149.96,153.84 149.93,153.84 149.9,153.84 149.82,154.34 149.71,154.83 149.65,155.34 149.62,155.58 149.53,155.71 149.31,155.77 L 147.21,156.93 C 147.46,156.51 147.75,156.11 148.06,155.77 148.56,155.22 149.14,154.73 149.71,154.24 L 149.56,153.96 C 149.28,153.45 149.41,152.56 149.71,151.62 150.02,150.68 150.44,149.85 150.52,149.68 150.83,149.07 151.14,148.31 150.99,147.02 150.83,145.64 150.08,144.73 149.31,143.87 148.83,143.34 148.16,142.77 147.43,142.24 L 147.74,142.02 147.93,141.99 z M 154.9,141.74 C 157.78,142.28 160.07,143.62 161.34,146.4 161.52,146.8 161.61,147.16 161.24,147.49 161.13,147.59 161.05,147.74 160.93,147.9 159.7,145.05 157.56,143.13 154.9,141.74 z M 148.59,141.71 C 148.73,141.8 148.89,141.89 149.02,141.99 150.6,143.16 151.87,144.59 152.87,146.27 154.24,148.57 154.91,151.05 154.93,153.71 154.94,154.49 154.86,155.25 154.84,156.02 154.83,156.26 154.74,156.42 154.46,156.46 154.48,156.22 154.51,156.0 154.52,155.77 154.73,153.03 154.44,150.35 153.4,147.77 152.44,145.4 150.91,143.48 148.81,142.02 148.72,141.96 148.61,141.9 148.52,141.84 148.55,141.8 148.57,141.75 148.59,141.71 z M 153.4,141.65 C 154.82,142.23 156.09,143.03 157.24,144.02 159.13,145.66 160.51,147.63 160.99,150.12 161.16,150.98 161.16,151.86 161.21,152.74 161.23,152.95 161.14,153.1 160.84,153.06 160.84,152.94 160.83,152.85 160.84,152.74 160.93,149.76 159.81,147.23 157.84,145.06 156.62,143.72 155.18,142.7 153.62,141.81 153.54,141.76 153.48,141.69 153.4,141.65 z M 149.4,141.56 C 149.59,141.51 149.74,141.6 149.9,141.71 151.8,143.04 153.34,144.69 154.49,146.71 155.77,148.95 156.31,151.38 156.34,153.93 156.34,154.32 156.27,154.73 156.27,155.12 156.28,155.41 156.17,155.59 155.9,155.71 155.74,155.78 155.61,155.88 155.4,155.99 155.4,155.85 155.39,155.77 155.4,155.68 155.63,152.49 155.08,149.45 153.56,146.62 152.55,144.74 151.15,143.19 149.46,141.9 149.37,141.83 149.29,141.73 149.18,141.65 149.25,141.6 149.34,141.57 149.4,141.56 z M 152.31,141.49 C 152.36,141.51 152.44,141.5 152.49,141.52 154.94,142.73 157.09,144.27 158.65,146.56 159.72,148.11 160.31,149.84 160.34,151.74 160.34,152.17 160.32,152.57 160.31,152.99 160.3,153.09 160.29,153.21 160.27,153.31 160.24,153.31 160.21,153.3 160.18,153.31 160.14,147.64 157.17,143.95 152.31,141.49 z M 150.81,141.46 C 151.27,141.46 151.7,141.59 152.12,141.81 154.18,142.88 156.0,144.24 157.43,146.09 158.28,147.18 158.92,148.4 159.31,149.74 159.37,149.96 159.32,150.15 159.18,150.34 158.84,150.78 158.5,151.22 157.99,151.49 157.9,151.54 157.81,151.56 157.68,151.62 157.35,150.52 157.08,149.43 156.34,148.56 156.31,148.57 156.28,148.57 156.24,148.59 156.27,148.69 156.31,148.79 156.34,148.9 156.55,149.82 156.76,150.75 156.96,151.68 156.98,151.77 156.9,151.87 156.81,151.96 156.18,147.53 154.16,143.97 150.34,141.49 150.51,141.46 150.65,141.46 150.81,141.46 z M 140.81,140.9 C 142.72,142.25 144.7,143.52 146.59,144.9 147.11,145.36 147.7,145.79 148.06,146.4 148.45,146.99 148.48,147.72 148.4,148.4 148.12,149.62 147.24,150.39 146.99,151.62 146.81,152.43 146.81,153.29 146.87,154.12 145.91,154.78 145.13,155.7 144.77,156.77 144.53,157.44 144.38,158.13 144.18,158.81 143.04,158.99 141.89,158.95 140.74,158.87 138.75,158.68 136.78,158.39 134.81,158.09 134.03,157.95 133.24,157.71 132.52,157.4 132.53,156.87 132.51,156.34 132.56,155.81 132.55,155.03 132.42,154.23 132.09,153.52 131.83,153.07 131.54,152.62 131.21,152.21 131.87,150.7 131.94,149.25 131.52,147.68 131.32,146.74 131.3,145.67 131.93,144.87 132.75,143.79 134.16,143.4 135.4,142.9 137.21,142.25 139.0,141.56 140.81,140.9 z M 143.02,140.34 C 143.12,140.39 144.19,140.89 145.4,141.65 146.67,142.44 147.99,143.45 148.71,144.24 149.47,145.08 150.17,145.92 150.31,147.12 150.44,148.26 150.15,148.94 149.9,149.43 149.06,150.93 148.66,152.36 148.93,153.99 148.93,153.99 147.78,153.99 147.4,154.02 147.32,153.0 147.49,152.1 147.71,151.37 147.87,150.84 148.11,150.38 148.37,149.87 148.64,149.33 148.92,149.01 149.02,148.4 149.08,148.08 149.07,147.75 149.02,147.43 148.95,146.88 148.76,146.35 148.4,145.87 148.06,145.4 147.59,145.0 147.15,144.65 146.55,144.17 146.05,143.84 145.49,143.46 144.49,142.78 143.15,141.83 141.49,140.68 141.49,140.68 142.85,140.35 143.02,140.34 z M 149.02,140.18 C 149.34,140.17 149.65,140.17 149.96,140.18 151.44,140.21 152.8,140.45 153.59,140.96 150.59,140.58 149.17,140.36 146.87,141.87 146.48,141.6 146.1,141.36 145.71,141.12 145.61,141.05 145.51,140.99 145.4,140.93 146.68,140.5 148.2,140.19 149.02,140.18 z M 147.46,139.52 C 148.36,139.49 149.25,139.56 150.18,139.74 148.79,139.64 147.3,139.8 145.96,140.18 145.57,140.3 145.17,140.44 144.77,140.59 144.55,140.47 144.32,140.33 144.09,140.21 145.23,139.8 146.45,139.57 147.46,139.52 z M 147.52,139.15 C 146.33,139.15 144.79,139.44 143.49,139.9 143.41,139.85 143.33,139.82 143.24,139.77 142.44,139.93 141.45,140.11 140.9,140.27 138.49,141.18 136.92,141.76 135.59,142.24 134.95,142.48 134.36,142.71 133.65,143.02 133.13,143.26 132.52,143.53 132.06,143.9 131.58,144.28 131.28,144.76 131.06,145.27 130.93,145.57 130.84,145.86 130.81,146.18 130.74,146.79 130.88,147.44 130.99,148.02 131.1,148.59 131.17,148.85 131.18,149.4 131.19,150.25 130.98,151.18 130.52,152.31 131.35,153.22 131.73,154.02 131.87,154.77 131.87,154.81 131.86,154.84 131.87,154.87 130.45,155.77 129.09,156.75 127.9,157.96 127.2,158.67 126.58,159.42 126.21,160.37 125.76,161.5 125.87,162.54 126.74,163.43 127.38,164.09 128.18,164.56 129.02,164.87 132.48,166.14 136.02,166.24 139.62,165.68 141.97,165.32 144.16,164.46 146.31,163.46 149.24,162.1 152.23,160.81 155.18,159.49 155.32,159.43 155.51,159.44 155.65,159.49 157.11,160.1 158.55,160.78 160.02,161.34 162.83,162.4 165.75,162.99 168.77,162.81 169.77,162.74 170.71,162.51 171.62,162.06 174.42,160.66 174.74,157.29 172.71,155.34 171.94,154.59 170.99,154.1 170.02,153.68 167.81,152.71 165.51,152.23 163.09,152.56 162.79,152.6 162.73,152.51 162.74,152.24 162.79,150.93 162.78,149.63 162.52,148.34 161.82,144.68 159.67,142.34 156.06,141.37 155.28,141.16 154.52,141.06 153.77,140.65 152.35,139.85 150.75,139.44 149.12,139.24 148.58,139.18 148.05,139.15 147.52,139.15 z" />
			
		<text id="txt" style="stroke:none;fill:#f00;font-family:z_ariola;font-size:10px;text-anchor:middle;" transform="matrix(0.99 0.09 -0.09 0.99 139 152.5)" />

		<!-- Prism Reference -->
		<cam mingh:cam="--verb EditSelectAll --verb SelectionUnGroup --verb EditSelectAll --verb ObjectToPath --verb EditSelectAll --verb SelectionGroup --verb ZoomSelection --verb FileSave" /> 
	</g>

</svg>
