<svg
   xmlns:xlink="http://www.w3.org/1999/xlink"
   xmlns:svg="http://www.w3.org/2000/svg"
   xmlns="http://www.w3.org/2000/svg"
   xmlns:mingh="http://www.minghworld.com"
   width="300px"
   height="300px" >
   
	 <g>
		<!-- Paths -->
		<path style="stroke:#000;stroke-width:0.25px;" fill="none"
		 d="M 150,127.63 C 137.65,127.63 127.63,137.65 127.63,150 127.63,162.35 137.65,172.38 150,172.38 162.35,172.38 172.38,162.35 172.38,150 172.38,137.65 162.35,127.63 150,127.63 z M 150,129.59 C 151.01,129.59 151.81,130.4 151.81,131.41 151.81,132.41 151.01,133.25 150,133.25 148.99,133.25 148.19,132.41 148.19,131.41 148.19,130.4 148.99,129.59 150,129.59 z M 146.38,131.53 C 146.43,133.12 147.53,134.44 149,134.84 148.95771,134.93311 148.98002,135.03318 148.97,135.13 148.17,135.18 147.22,135.73 146.66,136.31 145.59,137.44 145.00368,139.17048 145.5,140.66 145.8196,141.61915 146.53635,142.23775 147.19,142.81 146.99,143.04 146.84,143.22 146.63,143.47 146.16,144.15 145.6,144.96 145.16,145.81 144.96,145.69 144.81,145.58 144.59,145.47 144.29,145.24 143.88,144.97 143.59,144.63 143.32,144.13 142.91,143.73 142.44,143.41 142.37,143.38 142.31,143.34 142.28,143.28 142.25,143.22 142.25,143.14 142.25,143.09 142.25,142.99 142.28,142.92 142.28,142.91 142.14,142.28 141.93,141.63 141.78,141 141.65,140.44 141.54,139.73 141.09,139.19 140.62,138.61 139.66912,138.56771 139.06,138.88 138.40732,139.21461 137.87,140.07 138.06,140.84 L 138.94,143.81 C 138.87,144.06 138.76,144.32 138.69,144.59 138.47,145.33 138.8,146.12 139.38,146.63 139.81,147.1 139.82,147.79 140,148.28 140.17,148.68 140.17,149.08 140.19,149.47 140.21,149.86 140.26,150.24 140.44,150.56 140.91,151.68 141.06,152.87 141.34,154 141.65,155.04 141.75,156.35 142.22,157.56 142.81,159.62 143.22,161.71 143.88,164.13 143.45,164.37 143.02,164.65 142.5,164.88 142.18,165.01 141.52,165.07 141.06,165.06 140.32,165.05 140.02,165.6 139.88,165.91 134.64,162.56 131.16,156.69 131.16,150 131.16,140.91 137.59,133.33 146.16,131.56 146.23,131.55 146.31,131.53 146.38,131.53 z M 156.28,132.25 C 156.45,132.3 156.6,132.35 156.75,132.41 163.83,135.12 168.84,141.97 168.84,150 168.84,155.78 166.23,160.95 162.13,164.41 162.05,164.47 161.99,164.54 161.94,164.59 161.43,164.48 160.86,164.56 160.34,164.75 159.7,164.91 158.89,165.22 158.03,164.75 158.14,164.3 158.25,163.83 158.22,163.34 158.15,162.8 157.95,162.11 157.94,161.44 157.98,160.72 158.03,159.87 157.75,159.03 157.66802,158.4568 157.85304,157.98308 158,157.47 158.96334,158.12073 160.11126,158.49442 161,158.25 162.03,158.01 162.63,156.79 162.25,155.81 161.92,155.08 161.82,154.12 161.59,153.19 161.44,152.39 161.21,151.49 160.81,150.69 160.62,149.84 160.72,149 160.72,148.19 160.72,147.07 160.08,145.86 159.13,144.94 158.79,144.04 158.58,142.92 158.5,141.78 158.79,141.03 159.01,140.24 159,139.44 159.04,138.31 158.41,136.78 157.44,136.06 157.48,135.55 157.57,134.98 157.44,134.41 157.33,133.92 156.89,132.73 156.28,132.25 z"
		 />
		 
		<path style="fill:#f00;stroke:none;"
		 d="M 153.62,132.47 C 153.41,132.48 153.19,132.52 152.97,132.57 151.54,132.94 150.67,134.47 150.98,135.8 151.01,135.92 150.98,136.01 150.98,136.14 148.7,135.6 147.25,136.85 146.69,138.03 146.35,138.74 146.29,139.45 146.48,140.23 146.79,141.5 147.64,142.29 148.88,142.77 148.53,143.05 148.24,143.28 147.96,143.52 147.8,143.66 147.59,143.79 147.51,143.97 147.22,144.63 146.72,145.17 146.38,145.79 146.11,146.28 145.79,146.62 145.28,146.82 145.1,146.89 144.94,146.91 144.77,146.78 144.28,146.43 143.78,146.1 143.29,145.75 143.02,145.57 142.81,145.36 142.64,145.07 142.39,144.66 142.05,144.29 141.64,144.04 141.45,143.92 141.33,143.75 141.3,143.52 141.28,143.39 141.26,143.27 141.23,143.15 141.01,142.2 140.8,141.24 140.58,140.3 140.48,139.88 140.26,139.71 139.86,139.75 139.39,139.79 139.07,140.07 139.07,140.47 139.07,140.66 139.12,140.83 139.17,141.02 139.45,141.97 139.71,142.94 139.99,143.9 139.89,144 139.76,144.09 139.69,144.21 139.61,144.34 139.52,144.51 139.55,144.66 139.67,145.35 139.86,146.02 140.48,146.47 140.55,146.53 140.62,146.65 140.65,146.75 140.78,147.25 140.89,147.76 141.02,148.26 141.14,148.7 141.21,149.14 141.2,149.6 141.19,149.78 141.27,149.96 141.33,150.15 141.44,150.49 141.62,150.83 141.71,151.18 141.92,151.99 142.1,152.83 142.29,153.65 142.42,154.19 142.56,154.69 142.67,155.23 142.79,155.77 142.84,156.33 143.05,156.87 143.39,157.75 143.61,158.67 143.84,159.59 144.37,161.66 144.87,163.75 145.38,165.83 145.41,165.94 145.38,166.05 145.38,166.18 144.85,166.41 144.34,166.27 143.74,166.14 143.95,166.34 144.19,166.44 144.42,166.52 144.7,166.61 144.95,166.66 145.25,166.66 145.25,166.69 145.25,166.73 145.25,166.76 144.86,166.87 144.48,166.95 144.04,167.07 144.32,167.11 144.55,167.18 144.77,167.17 144.99,167.17 145.19,167.09 145.42,167.07 145.56,167.05 145.73,167.04 145.86,167.07 146.17,167.13 146.45,167.22 146.76,167.28 146.98,167.32 147.33,167.18 147.51,167 147.37,167.01 147.21,167.04 147.07,167.03 146.41,167.02 146,166.71 145.83,166.07 145.74,165.74 145.67,165.41 145.59,165.08 144.9,162.34 144.27,159.58 143.46,156.87 143.41,156.72 143.41,156.56 143.32,156.43 143.17,156.2 143.13,155.94 143.15,155.67 143.16,155.56 143.11,155.44 143.08,155.33 142.85,154.38 142.64,153.46 142.4,152.52 142.17,151.62 142.03,150.68 141.61,149.84 141.57,149.76 141.57,149.66 141.57,149.56 141.61,149.07 141.49,148.59 141.37,148.12 141.23,147.61 141.11,147.08 140.99,146.61 141.15,146.44 141.27,146.31 141.37,146.17 141.46,146.03 141.53,145.88 141.61,145.69 141.31,145.32 140.96,144.89 140.37,144.79 140.28,144.78 140.18,144.67 140.03,144.55 140.6,144.38 141.03,144.62 141.47,144.79 141.48,144.67 141.49,144.55 141.5,144.45 141.91,144.58 142.1,144.91 142.29,145.24 142.49,145.55 142.72,145.82 143.02,146.03 143.56,146.41 144.09,146.82 144.66,147.16 145.22,147.5 145.57,147.99 145.69,148.6 145.77,148.98 145.8,149.35 145.83,149.74 145.84,149.82 145.75,149.93 145.73,150.01 145.43,150.07 145.23,149.91 145.04,149.77 144.51,149.39 144.05,148.93 143.63,148.43 143.12,147.82 142.57,147.22 142.05,146.61 141.91,146.44 141.77,146.38 141.5,146.41 141.57,146.61 141.63,146.79 141.68,146.99 141.79,147.45 141.87,147.9 141.99,148.36 142.05,148.63 142.13,148.9 142.33,149.12 142.49,149.3 142.51,149.53 142.43,149.77 142.4,149.87 142.41,149.97 142.43,150.08 142.5,150.41 142.59,150.74 142.67,151.07 142.94,152.21 143.21,153.37 143.5,154.51 143.6,154.91 143.65,155.33 143.94,155.67 144,155.75 144,155.87 144.01,155.98 144.02,156.22 143.97,156.47 144.01,156.7 144.06,156.97 144.18,157.23 144.25,157.49 144.97,160.31 145.67,163.15 146.38,165.97 146.42,166.14 146.44,166.29 146.48,166.49 L 146.17,166.49 C 146.72,166.97 147.29,166.84 147.85,166.69 147.97,167.2 147.97,167.7 147.92,168.2 147.5,168.53 147.04,168.56 146.58,168.34 146.23,168.17 145.94,168.22 145.66,168.44 146.22,168.57 146.79,168.69 147.34,168.82 148.32,169.06 149.27,169.03 150.15,168.48 150.31,168.38 150.47,168.4 150.64,168.44 151.49,168.67 152.34,168.7 153.14,168.3 153.97,168.65 154.39,168.65 154.72,168.24 154.34,168.37 153.98,168.35 153.66,168.2 153.36,168.07 153.12,168.1 152.83,168.17 151.94,168.38 151.05,168.32 150.19,167.96 150.19,167.72 150.2,167.5 150.22,167.28 150.24,167.08 150.26,166.89 150.29,166.73 150.73,166.8 151.15,166.9 151.56,166.93 151.99,166.97 152.38,166.84 152.73,166.49 152.49,166.53 152.3,166.58 152.11,166.59 151.59,166.62 151.07,166.58 150.6,166.28 150.4,166.15 150.37,166.01 150.43,165.8 150.49,165.58 150.57,165.37 150.6,165.15 150.66,164.78 150.66,164.41 150.7,164.05 151.08,163.89 151.41,163.95 151.73,164.19 152.02,164.39 152.36,164.56 152.69,164.67 152.9,164.73 153.12,164.66 153.35,164.67 153.65,164.67 153.88,164.81 154,165.11 154.24,165.73 154.5,166.35 154.75,166.97 154.82,167.12 154.9,167.29 154.99,167.52 154.41,167.48 153.91,167.32 153.48,167.03 152.94,167.43 152.38,167.63 151.7,167.65 152.24,167.97 152.91,167.86 153.52,167.55 153.91,167.66 154.28,167.75 154.69,167.86 154.57,167.88 154.49,167.92 154.41,167.93 154.34,167.94 154.27,167.92 154.2,167.93 155.41,168.25 156.61,168.47 157.67,167.58 158.62,167.94 158.6,167.96 159.15,167.76 158.55,167.72 158.07,167.45 157.64,167.14 157.44,167.29 157.29,167.43 157.09,167.58 157.06,167.44 157.05,167.35 157.05,167.28 157.05,166.97 157.02,166.66 157.02,166.38 157.39,166.17 157.42,166.18 157.71,166.28 157.83,166.32 157.96,166.36 158.08,166.38 158.56,166.46 159,166.48 159.35,166.07 158.66,166.25 158.06,166.06 157.43,165.76 157.32,165.81 157.18,165.84 157.05,165.9 156.97,165.58 157.01,165.33 157.12,165.04 157.35,164.47 157.54,163.85 157.33,163.22 157.27,163.04 157.17,162.86 157.12,162.68 157.04,162.37 156.85,162.03 156.92,161.75 157.11,160.92 157.11,160.16 156.78,159.38 156.64,159.06 156.63,158.73 156.71,158.39 156.88,157.64 157,156.9 157.16,156.15 157.18,156.06 157.24,155.98 157.29,155.85 157.58,156.05 157.87,156.23 158.12,156.43 158.53,156.76 158.95,157 159.46,157.15 159.84,157.26 160.23,157.42 160.66,157.29 161.29,157.09 161.49,156.65 161.24,156.05 161.08,155.66 160.95,155.26 160.86,154.85 160.71,154.15 160.61,153.46 160.49,152.76 160.41,152.32 160.32,151.86 160.07,151.49 159.79,151.05 159.7,150.59 159.7,150.08 159.7,149.41 159.69,148.72 159.7,148.05 159.71,147.37 159.46,146.78 159.01,146.27 158.87,146.11 158.73,145.96 158.56,145.82 158.26,145.57 158.15,145.23 158.05,144.86 157.92,144.43 157.77,143.99 157.64,143.56 157.59,143.41 157.54,143.26 157.57,143.11 157.66,142.55 157.69,141.99 157.43,141.46 157.5,141.36 157.58,141.29 157.64,141.19 158.02,140.47 158.26,139.7 158.05,138.89 157.78,137.84 157.32,136.89 156.4,136.25 156.45,135.99 156.52,135.75 156.54,135.49 156.55,135.23 156.52,134.99 156.47,134.74 156.24,133.44 155.08,132.41 153.62,132.47 z M 144.42,166.52 C 143.69,166.73 143.04,166.58 142.4,166.21 141.78,166.74 141.04,166.74 140.2,166.69 140.9,167.08 141.51,167.01 142.12,166.79 142.31,166.73 142.47,166.64 142.67,166.76 143.03,166.97 143.42,166.91 143.8,166.9 144.02,166.89 144.18,166.76 144.42,166.52 z M 153.59,132.99 C 154.18,132.94 154.78,133.11 155.3,133.57 155.59,133.82 155.84,134.26 155.96,134.74 156.07,135.2 156.05,135.71 155.89,136.11 155.64,136.07 155.4,136 155.17,135.83 155.54,135.43 155.33,134.96 155.23,134.56 155.16,134.26 154.93,133.96 154.69,133.74 154.48,133.56 154.17,133.44 153.9,133.4 153.2,133.29 152.59,133.55 152.18,134.12 152.02,134.34 151.97,134.64 151.87,134.91 151.86,134.95 151.85,135.01 151.87,135.04 152.11,135.34 152.15,135.71 152.32,136.04 152.45,136.3 152.7,136.31 152.97,136.45 152.65,136.73 152.45,137.07 152.04,137.1 152.01,137.07 151.97,137.06 151.97,137.04 152.06,136.56 151.85,136.12 151.63,135.73 151.6,135.67 151.52,135.64 151.46,135.59 151.46,135.61 151.47,135.58 151.46,135.56 151.42,135.38 151.43,135.12 151.46,134.94 151.51,134.56 151.65,134.12 151.97,133.77 152.42,133.31 153,133.04 153.59,132.99 z M 153.14,133.71 153.69,133.71 C 153.54,133.85 153.41,133.96 153.21,134.15 153.18,133.97 153.17,133.87 153.14,133.71 z M 154.2,133.88 154.44,133.95 C 154.35,133.97 154.25,134.04 154.1,134.08 154.15,133.98 154.18,133.93 154.2,133.88 z M 153.93,133.95 C 153.78,134.11 153.63,134.31 153.52,134.43 153.35,134.15 153.45,134.01 153.93,133.95 z M 152.73,134.01 C 152.76,134.07 152.8,134.13 152.83,134.19 152.84,134.21 152.84,134.24 152.83,134.26 152.79,134.33 152.74,134.39 152.69,134.46 152.64,134.41 152.57,134.38 152.52,134.32 152.49,134.29 152.48,134.23 152.45,134.19 152.54,134.13 152.65,134.07 152.73,134.01 z M 154.41,134.29 C 154.49,134.31 154.53,134.37 154.69,134.46 154.53,134.48 154.36,134.61 154.2,134.5 154.17,134.55 154.14,134.61 154.1,134.67 154.08,134.65 153.98,134.59 153.96,134.56 154.02,134.53 154.11,134.46 154.17,134.43 154.13,134.38 154.14,134.37 154.1,134.32 154.25,134.3 154.33,134.27 154.41,134.29 z M 152.63,134.53 C 152.65,134.52 152.66,134.58 152.69,134.6 152.65,134.64 152.65,134.75 152.59,134.8 152.55,134.76 152.45,134.66 152.42,134.63 152.46,134.6 152.58,134.55 152.63,134.53 z M 153.52,134.56 C 153.77,134.67 154.02,134.76 154.27,134.84 154.49,134.9 154.56,135.26 154.93,135.08 154.8,135.56 154.79,136.03 154.58,136.45 154.41,136.78 153.8,136.87 153.45,136.62 153.33,136.54 153.27,136.41 153.14,136.28 153.25,136.19 153.33,136.11 153.42,136.04 153.38,135.94 153.31,135.89 153.28,135.83 153.17,135.94 153.15,136.04 153.11,136.04 152.98,136.05 152.84,136.03 152.87,135.83 152.74,135.68 152.58,135.5 152.45,135.35 152.57,135.22 152.65,135.14 152.73,135.04 152.95892,135.12457 153.16532,135.04333 153.24,134.87 153.33,134.78 153.41,134.69 153.52,134.56 z M 152.91297,135.80656 153.19554,135.76431 C 153.07554,135.56431 153.12297,135.60656 152.91297,135.80656 z M 154.99,134.63 C 154.94,134.75 154.91,134.79 154.89,134.84 L 154.65,134.84 154.62,134.8 C 154.72,134.76 154.83,134.7 154.99,134.63 z M 153.83,135.15 C 153.67,135.13 153.54,135.22 153.55,135.35 153.57,135.47 153.62,135.67 153.79,135.66 153.88,135.66 153.95,135.51 154.03,135.42 154.05,135.41 154.06,135.38 154.07,135.32 153.99,135.29 153.94906,135.27219 153.86906,135.24219 153.94906,135.34219 153.97,135.43 153.76,135.49 153.68,135.38 153.69219,135.32 153.82219,135.25 153.82219,135.22 153.83,135.18 153.83,135.15 z M 151.32,135.9 C 151.41,136.03 151.5,136.16 151.6,136.28 151.76,136.48 151.71,136.72 151.66,136.93 151.61,137.22 151.61,137.44 151.87,137.62 152.06,137.75 152.16,137.95 152.15,138.2 151.83,138.03 151.34,137.53 151.18,137.21 150.92,137.07 150.86,136.97 151.05,136.66 151.08,136.85 151.22,137.17 151.22,137.17 151.61,137.02 151.57,137.04 151.56,136.49 151.28,136.22 151.29,136.24 151.32,135.9 z M 153.47344,136.05562 C 153.48344,136.09562 153.5,136.17 153.52,136.21 153.56953,136.18391 153.61344,136.16344 153.63953,136.09828 153.59953,136.07828 153.51344,136.07562 153.47344,136.05562 z M 154.03,136.21 C 153.97,136.28 153.89,136.35 153.83,136.42 L 154,136.42 C 154.02,136.37 154.05,136.33 154.07,136.28 154.05,136.27 154.05,136.23 154.03,136.21 z M 154.96,136.28 C 155.02,136.65 155.05,136.98 154.86,137.31 154.59,137.78 154.21,137.8 153.93,137.34 153.88,137.27 153.88,137.15 153.83,137.04 154.43,136.88 154.4,137.1 154.96,136.28 z M 151.18,136.42 C 151.23,136.4 151.29,136.41 151.39,136.49 151.57,136.64 151.47,136.76 151.32,136.9 151.31,136.81 151.29,136.75 151.29,136.69 151.31,136.64 151.33,136.57 151.36,136.52 151.29,136.55 151.25,136.6 151.18,136.62 151.15,136.62 151.15,136.59 151.12,136.59 151.14,136.5 151.15,136.43 151.18,136.42 z M 155.37,136.42 C 155.99,136.42 156.47,136.68 156.81,137.14 157.22,137.69 157.56,138.32 157.71,138.99 157.86,139.69 157.61,140.33 157.26,140.95 157.29,140.74 157.35,140.54 157.36,140.33 157.4,139.81 157.36,139.31 156.74,139.03 156.91,138.97 157,138.94 157.16,138.89 156.99,138.81 156.88,138.75 156.74,138.68 156.83,138.59 156.93,138.5 157.02,138.41 156.91,138.39 156.81,138.36 156.71,138.34 156.72,138.19 156.73,138.05 156.74,137.86 156.64,137.98 156.56,138.06 156.47,138.17 156.45,138 156.46,137.86 156.44,137.72 156.39,137.73 156.34,137.74 156.33,137.76 156.28,137.87 156.21,137.99 156.13,138.17 156.04,138 155.98,137.88 155.92,137.76 155.82,137.84 155.85,138.09 155.58,138.03 155.62,137.93 155.66,137.84 155.71,137.72 155.66,137.67 155.58,137.6 155.47,137.52 155.41,137.58 155.32,137.67 155.23,137.76 155.29,137.82 155.36,137.86 155.37,137.93 155.38,137.99 155.32,138.09 155.27,138.13 155.09,138.27 154.92,138.38 154.72,138.51 154.66,138.31 154.64,138.06 154.82,137.89 155.24,137.5 155.41,137.02 155.37,136.42 z M 149.47,136.66 C 149.85,136.61 150.24,136.67 150.67,136.73 150.65,136.81 150.66,136.84 150.64,136.93 150.53,136.92 150.44,136.92 150.36,136.9 149.69,136.69 149.21,136.98 148.78,137.45 148.65,137.59 148.55,137.77 148.4,137.89 148.15,138.1 147.98,138.34 147.92,138.65 147.84,139.09 147.72,139.56 147.75,140.02 147.77,140.21 147.7,140.38 147.72,140.57 147.73,140.77 147.73,141.09 147.85,141.19 148.01,141.38 148.04,141.46 148.16,141.67 147.64,141.39 147.13,140.65 147.03,139.85 146.87,138.53 147.51,137.54 148.27,137.07 148.7,136.82 149.08,136.7 149.47,136.66 z M 153.31,136.8 C 153.49,136.87 153.47,137.06 153.52,137.21 153.61,137.48 153.72,137.71 153.96,137.86 154.21,138.01 154.37,138.21 154.41,138.48 154.44,138.65 154.51,138.71 154.65,138.72 154.63,138.93 154.64,139.16 154.62,139.37 154.6,139.5 154.58,139.62 154.41,139.64 154.4,139.67 154.4,139.7 154.38,139.71 154.15,139.82 153.93,139.94 153.69,140.06 153.36,139.95 153.27,139.66 153.14,139.27 153.37,139.43 153.49,139.55 153.62,139.64 153.42,139.16 153.28,138.67 153.31,138.13 153.33,137.73 153.13,137.43 152.76,137.24 152.97,136.93 152.97,136.93 153.31,136.8 z M 150.02,137.14 C 150.09,137.14 150.19,137.2 150.22,137.28 150.05,137.28 149.81,137.31 149.64,137.31 149.7,137.2 149.92,137.14 150.02,137.14 z M 150.6,137.28 150.5,137.45 C 150.47,137.43 150.39,137.33 150.36,137.31 150.4,137.31 150.57,137.27 150.6,137.28 z M 152.42,137.38 C 152.57,137.4 152.67,137.41 152.73,137.45 152.91,137.59 153.02,137.79 153.04,138.03 153.09,138.62 153.04,139.17 152.66,139.75 152.52,139.39 152.42,139.12 152.32,138.82 152.3,138.76 152.32,138.66 152.35,138.58 152.46,138.26 152.49,137.94 152.28,137.62 152.62,137.75 152.61,137.78 152.8,138.2 152.9,137.86 152.72,137.63 152.42,137.38 z M 149.78,137.69 C 149.95,137.92 150.11,138.12 150.46,138.1 150.45,137.99 150.44,137.91 150.43,137.82 150.71,137.65 151.25,137.81 151.7,138.2 151.64,138.27 151.55,138.31 151.49,138.37 151.22,138.68 151.23,138.95 151.53,139.23 151.72,139.41 151.94,139.58 152.15,139.75 152.09,139.99 151.9,140.05 151.73,140.12 151.53,140.21 151.45,140.35 151.49,140.64 151.57,140.49 151.62,140.39 151.66,140.3 151.69,140.32 151.74,140.34 151.77,140.36 151.73,140.65 151.71,140.92 151.66,141.26 151.32,141.5 150.92,141.36 150.57,141.22 150.44,141.18 150.34,141.08 150.22,141.02 150.06,140.82 149.87,140.63 149.71,140.43 149.75305,140.23031 149.61724,140.02723 149.54,139.95 149.51,139.8 149.54,139.6 149.33,139.54 149.33,139.38 149.09,139.3 149.23,139.09 149.23,139.09 149.12,138.98 149.06,138.96 148.94,138.92 148.9,138.86 148.92,138.75 148.89,138.71 148.88,138.69 148.85,138.65 148.87,138.64 148.9,138.62 148.92,138.61 148.93,138.66 148.98,138.67 148.99,138.72 149.33,138.85 149.27,138.89 149.4,138.55 149.41,138.51 149.44,138.5 149.47,138.48 149.55,138.41 149.62,138.34 149.71,138.27 149.79,138.23 149.88,138.17 149.95,138.13 149.89,137.97 149.83,137.84 149.78,137.69 z M 153.55,138.13 C 153.54,138.58 153.66,138.99 153.9,139.37 154.02,139.57 154.11,139.63 154.34,139.61 153.98,139.16 153.68,138.72 153.55,138.13 z M 155.54,138.27 C 155.63,138.26 155.69744,138.28799 155.78,138.31 156.14793,138.40812 156.35,138.64 156.33,139.13 156.22,138.98 156.13,138.89 156.06,138.79 155.78,138.78 155.82,139.02 155.71,139.16 155.44,139.05 155.31,138.69 154.93,138.82 155.09,138.49 155.3,138.31 155.54,138.27 z M 148.58,138.37 C 148.57,138.42 148.45,138.57 148.44,138.61 148.48,138.61 148.3,138.58 148.3,138.58 148.3,138.58 148.55,138.41 148.58,138.37 z M 151.77,138.51 C 151.81,138.51 151.84,138.52 151.9,138.55 151.79,138.63 151.71,138.65 151.56,138.75 151.61,138.59 151.65,138.51 151.77,138.51 z M 148.3,138.82 C 148.32,138.82 148.32,138.82 148.34,138.82 L 148.34,139.34 C 148.28,139.36 148.23,139.38 148.16,139.4 148.2,139.19 148.26,139.02 148.3,138.82 z M 151.9,138.92 C 152.13,139.03 152.31,139.17 152.25,139.54 152.05,139.39 151.89,139.24 151.7,139.09 151.77,139.03 151.83,138.99 151.9,138.92 z M 155.06,138.99 C 155.44,138.99 155.5,139.38 155.82,139.4 155.87,139.27 155.94,139.13 155.99,138.99 L 156.06,138.99 C 156.08,139.15 156.1,139.31 156.13,139.51 156.22,139.46 156.26,139.43 156.33,139.4 156.55,139.31 156.66,139.36 156.78,139.54 156.89,139.71 156.9,139.81 156.74,139.95 156.58,140.1 156.38,140.19 156.16,140.16 155.84,140.12 155.52,140.07 155.2,140.02 155.17,140.02 155.12,139.99 155.1,139.95 155.13,139.89 155.12581,139.82657 155.15581,139.76657 154.97581,139.77657 154.91,139.64 154.79,139.44 154.94,139.49 155.02,139.51 155.1,139.54 L 155.06484,139.38687 C 154.96484,139.34687 154.9,139.27 154.72,139.2 154.97,139.14 155.08344,139.25297 155.12344,139.38297 L 155.54,139.58 C 155.56,139.56 155.57,139.55 155.58,139.54 155.42,139.37 155.26,139.21 155.06,138.99 z M 155.13906,139.57125 C 155.16906,139.64125 155.17257,139.67582 155.20257,139.74582 155.25257,139.72582 155.29,139.71 155.41,139.68 155.26,139.61 155.21906,139.61125 155.13906,139.57125 z M 151.01,139.03 C 150.53,139.08 150.29,139.32 150.22,139.75 150.32,139.88 150.43,139.99 150.53,140.12 150.61,140.08 150.69,140.03 150.77,139.99 150.7,139.92 150.65,139.88 150.53,139.78 150.75,139.8 150.86,139.8 151.05,139.82 151.03,139.54 151.03,139.33 151.01,139.03 z M 150.74,139.3 C 150.74,139.3 150.83,139.45 150.84,139.47 150.79,139.48 150.48,139.54 150.43,139.54 150.47,139.51 150.74,139.3 150.74,139.3 z M 153.04,139.82 C 153.15,139.94 153.22,140.05 153.31,140.16 153.22,140.34 153.12,140.36 152.97,140.23 152.81,140.09 152.82,139.97 153.04,139.82 z M 148.2,139.99 C 148.24,140.13 148.33,140.39 148.37,140.54 148.1,140.48 148.16,140.16 148.2,139.99 z M 149.4,140.09 C 149.4,140.12 149.44,140.23 149.43,140.26 149.42,140.26 149.21,140.27 149.19,140.26 z M 154.31,140.09 C 154.39,140.09 154.46,140.08 154.55,140.09 154.27,140.2 154,140.33 153.72,140.43 L 153.48,140.67 C 153.45,140.46 153.55,140.41 153.72,140.43 153.86,140.2 154.07,140.1 154.31,140.09 z M 139.86,140.12 C 140.04,140.11 140.19,140.17 140.23,140.36 140.53,141.59 140.81,142.81 141.09,144.04 141.11,144.11 141.07,144.19 141.06,144.31 140.65,144.27 140.47,144.11 140.37,143.76 140.09,142.77 139.77,141.77 139.48,140.78 139.36,140.36 139.5,140.16 139.86,140.12 z M 152.35,140.23 C 152.38,140.26 152.4,140.26 152.42,140.3 152.32,140.36 152.22,140.44 152.11,140.5 152.09,140.48 152.06,140.43 152.04,140.4 152.14,140.33 152.25,140.29 152.35,140.23 z M 156.92,140.23 C 156.85,140.51 156.83,140.66 156.78,140.88 156.5,140.48 156.5,140.45 156.92,140.23 z M 155.06,140.3 C 155.21,140.29 155.36,140.32 155.51,140.33 155.73,140.35 155.89,140.47 156.09,140.67 155.95,140.69 155.9,140.72 155.82,140.71 154.95,140.57 154.19,140.81 153.62,141.5 153.75,141.43 153.88,141.36 154,141.29 154.76,140.84 155.52,140.76 156.3,141.26 156.42,141.34 156.57,141.42 156.71,141.43 157.13,141.45 157.21,141.78 157.26,142.08 157.3,142.35 157.26,142.63 157.26,142.9 157.23,142.92 157.19,142.95 157.16,142.97 157.08,142.83 157,142.67 156.92,142.53 L 156.78,142.6 C 157.11,143.21 157.15,143.86 156.88,144.48 156.76,144.77 156.53,144.97 156.2,145.1 156.18,144.82 156.18,144.56 156.16,144.31 156.07,144.88 155.91,145.44 155.54,145.89 155.02,145.6 154.82,145.23 154.93,144.48 155.05,144.83 155.14,145.05 155.23,145.31 155.36,144.8 155.18,144.35 154.96,143.9 155.33,143.9 155.44,144.13 155.51,145 155.65,144.22 155.54,143.89 154.93,143.21 155.37,143.17 155.6,143.4 155.82,144.14 155.88,143.76 155.75,143.32 155.47,143.08 155.16,142.79 154.74,142.75 154.27,142.66 154.58,142.45 154.87,142.6 155.13,142.56 154.94,142.39 154.93,142.38 154.44,142.36 154.76,142.14 155.12,142.16 155.44,142.08 155.2,141.96 154.93,141.97 154.69,142.01 154.2,142.1 153.77,142.28 153.38,142.6 152.99,142.91 152.78,143.35 152.76,143.83 152.75,144.29 152.77,144.71 152.63,145.17 152.72,145.1 152.79,145.05 152.9,144.96 152.93,145.08 152.97,145.16 153,145.27 152.77,145.54 152.53,145.78 152.08,145.69 152.07,145.55 152.05,145.4 152.08,145.27 152.21,144.65 152.34,144.04 152.49,143.42 152.59,142.97 152.88,142.66 153.24,142.39 153.42,142.26 153.58,142.09 153.72,141.91 153.48,142.02 153.23,142.13 152.97,142.25 152.92,141.97 153.03,141.76 153.21,141.57 153.33,141.44 153.44,141.32 153.48,141.15 153.54,140.96 153.65,140.85 153.79,140.74 154.18,140.44 154.61,140.31 155.06,140.3 z M 152.69,140.47 C 152.63,140.53 152.56,140.62 152.49,140.67 152.42,140.73 152.4,140.76 152.32,140.81 152.38,140.85 152.41,140.86 152.45,140.91 152.5,140.97 152.54,141.08 152.52,141.12 152.49,141.19 152.4,141.27 152.32,141.29 152.27,141.31 152.18,141.24 152.15,141.19 152.05,141.04 152.06,140.87 152.28,140.81 152.28,140.55 152.47,140.5 152.69,140.47 z M 147.99,140.5 C 148.02,140.5 148.17,140.51 148.2,140.5 L 148.13,140.88 C 148.11,140.79 148.02,140.59 147.99,140.5 z M 152.83,140.64 C 152.87,140.71 152.9,140.78 152.93,140.85 L 152.87,140.88 C 152.84,140.81 152.79,140.74 152.76,140.67 152.79,140.66 152.83,140.64 152.83,140.64 z M 149.74,140.74 C 149.76,140.76 149.79,140.76 149.81,140.78 149.75,140.85 149.7,140.94 149.64,141.02 L 149.57,140.95 C 149.63,140.88 149.68,140.81 149.74,140.74 z M 148.27,141.02 C 148.58,141.03 148.63,141.32 148.71,141.53 148.76,141.67 148.78,141.75 148.78,141.91 148.82,141.94 148.81,142.06 148.85,142.08 148.88,142.11 148.92,142.12 148.95,142.15 149,142.1 149.03,142.08 149.06,142.05 149.18,142.18 149.3,142.32 149.43,142.46 149.2,142.5 149.00922,142.38609 148.86922,142.21609 148.72462,142.11824 148.69513,141.96114 148.60875,141.84391 148.57875,141.51391 148.47,141.26 148.27,141.02 z M 150.26,141.33 C 150.29,141.34 150.32,141.35 150.33,141.36 150.38,141.43 150.44,141.5 150.5,141.57 150.42,141.6 150.31,141.66 150.26,141.63 150.01,141.54 149.94,141.69 149.91,141.88 149.85,141.84 149.81,141.8 149.71,141.74 149.92,141.58 150.09,141.45 150.26,141.33 z M 155.68,141.53 C 155.54,141.52 155.36,141.54 155.17,141.57 155.65,141.68 156.07,141.87 156.4,142.29 156.31,141.81 156.11,141.57 155.68,141.53 z M 150.77,141.91 C 150.83,141.91 150.91,141.91 150.98,141.94 151.45,142.17 151.9,142.06 152.39,142.05 152.45,142.04 152.52,142.05 152.59,142.05 152.69,142.28 152.68,142.5 152.52,142.66 152.28,142.93 152.19,143.24 152.08,143.56 151.97,143.88 151.95,143.91 151.63,143.93 151.11,143.97 150.63,143.8 150.15,143.49 150.21,143.34 150.29,143.21 150.36,143.01 150.48,143.14 150.56,143.23 150.7,143.39 150.64,142.97 150.58,142.65 150.53,142.32 150.5,142.09 150.6,141.92 150.77,141.91 z M 150.15,142.01 150.29,142.08 150.12,142.32 z M 156.16,142.42 C 156.23,142.85 156.33,143.27 156.33,143.69 156.33,143.96 156.34,144.2 156.5,144.52 156.78,143.69 156.55,143.04 156.16,142.42 z M 153.79,142.66 C 153.62,142.91 153.44,143.04 153.38,143.21 153.32,143.41 153.35,143.64 153.42,143.87 153.44,143.78 153.49,143.68 153.48,143.59 153.45,143.17 153.69,142.95 154.14,142.73 154.01,142.99 153.87,143.14 153.83,143.32 153.78,143.5 153.83,143.7 153.86,143.9 154.04,143.52 154.14,143.11 154.62,142.9 154.49,143.36 154.14,143.73 154.31,144.24 154.53,144.1 154.5,143.9 154.51,143.73 154.52,143.57 154.5,143.42 154.75,143.35 154.87,143.62 154.82,143.87 154.79,144.14 154.75,144.44 154.73,144.76 154.69,145.07 154.65,145.32 154.76,145.53 154.93,145.69 155.16,145.9 155.4,146.11 155.68,146.27 156.16,146.54 156.68,146.75 157.16,147.02 157.45,147.19 157.72,147.42 157.98,147.64 158.2,147.84 158.26,148.11 158.22,148.4 158.17,148.76 157.97,148.92 157.6,148.95 157.18,148.97 156.83,148.87 156.47,148.64 155.39,147.94 154.55,146.99 153.76,145.99 153.29,145.41 153.09,144.75 152.97,144.04 152.94,143.87 152.97,143.7 152.97,143.52 152.99,143.52 152.98,143.52 153,143.52 153.03,143.64 153.07,143.75 153.11,143.93 153.21,142.98 153.21,142.99 153.79,142.66 z M 149.3,143.18 C 149.22,143.76 149.16,144.25 149.09,144.76 148.71,144.13 148.75,143.68 149.3,143.18 z M 150.09,143.8 C 150.68,144.09 151.24,144.26 151.84,144.24 151.24,144.48 150.5,144.3 150.09,143.8 z M 148.44,143.87 C 148.42,144.18 148.42,144.41 148.4,144.69 148.15,144.76 147.98,144.7 147.85,144.45 147.99,144.21 148.11,143.97 148.44,143.87 z M 150.26,144.45 C 150.31,144.45 150.39,144.53 150.39,144.59 150.44,144.92 150.45,145.28 150.5,145.62 150.61,146.39 150.74,147.14 151.08,147.85 151.02,147.56 150.95,147.28 150.91,146.99 150.83,146.44 150.76,145.92 150.7,145.38 150.69,145.22 150.7,145.05 150.74,144.9 150.76,144.8 150.89,144.65 150.94,144.66 151.07,144.68 151.21,144.76 151.25,144.86 151.33,145.05 151.35,145.27 151.39,145.48 151.48,146.02 151.56,146.56 151.73,147.09 151.69,146.64 151.67,146.18 151.63,145.72 151.61,145.53 151.56,145.33 151.56,145.14 151.56,144.95 151.62,144.76 151.8,144.66 152.01,144.76 151.98,144.97 151.97,145.14 151.95,145.95 151.98,146.76 152.25,147.54 152.46,148.17 152.75,148.78 153,149.39 153.05,149.51 153.11,149.63 153.17,149.77 152.86,149.89 152.73,149.69 152.63,149.53 152.41,149.2 152.23,148.84 152.04,148.5 151.98,148.39 151.93,148.27 151.87,148.16 151.87,148.62 152.11,149.03 152.25,149.46 152.27,149.54 152.35,149.59 152.35,149.67 152.36,149.75 152.34,149.89 152.28,149.94 152.23,149.99 152.08,150.01 152.01,149.98 151.85,149.9 151.7,149.78 151.56,149.67 151.08,149.25 150.91,148.68 150.7,148.12 150.32,147.1 150.12,146.02 150.02,144.93 150.01,144.8 150.01,144.67 150.05,144.55 150.07,144.49 150.2,144.45 150.26,144.45 z M 157.5,144.62 C 157.58,144.87 157.63,145.06 157.71,145.31 157.59,145.31 157.53,145.32 157.47,145.31 157.41,145.3 157.37,145.26 157.29,145.24 157.36,145.05 157.4,144.88 157.5,144.62 z M 139.96,144.9 C 140.31,145.01 140.59,145.11 140.89,145.2 140.66,145.4 140.42,145.34 140.2,145.31 140.05,145.28 139.96,145.17 139.96,144.9 z M 140.13,145.44 C 140.49,145.48 140.77,145.49 141.06,145.51 140.82,145.79 140.5,145.78 140.13,145.44 z M 147.65,145.48 C 147.86,145.42 148.08,145.46 148.27,145.58 148.55,145.77 148.74,146.03 148.85,146.34 149.09,147.01 149.28,147.68 149.5,148.36 149.51,148.4 149.49,148.47 149.47,148.57 149.21,147.99 148.99,147.45 148.75,146.92 148.49,146.35 148.32,146.28 147.72,146.51 147.46,146.61 147.19,146.73 146.89,146.68 146.97,146.61 147.04,146.53 147.13,146.47 147.44,146.3 147.75,146.18 148.03,145.86 147.7,145.72 147.43,145.81 147.13,145.89 147.25,145.68 147.44,145.54 147.65,145.48 z M 157.23,145.58 C 157.58,145.61 157.96,145.74 158.22,146.1 158.24,146.12 158.22,146.17 158.22,146.2 158.04,146.13 157.86,146.05 157.67,145.99 157.31,145.88 156.93,145.85 156.57,146.03 156.42,146.1 156.43,146.09 156.2,145.96 156.23,145.91 156.25,145.85 156.3,145.82 156.53,145.67 156.87,145.56 157.23,145.58 z M 153,145.75 C 153.13,146.3 153.13,146.6 153,146.85 152.45,146.21 152.46,146.1 153,145.75 z M 141.13,145.79 C 141,146.12 140.77,146.18 140.41,145.89 140.65,145.86 140.89,145.81 141.13,145.79 z M 153.28,145.86 C 153.67,146.12 153.9,146.45 153.96,146.75 154.03,147.06 153.85,147.39 153.69,147.74 153.65,147.67 153.63,147.62 153.59,147.54 153.56,147.57 153.51,147.61 153.48,147.64 153.43,147.58 153.43,147.49 153.38,147.44 153.37,147.46 153.29,147.51 153.28,147.54 153.26,147.51 153.26,147.49 153.24,147.47 153.19,147.44 153.13,147.42 153.04,147.37 153.3,146.93 153.41,146.44 153.28,145.86 z M 140.65,146.17 141.09,146.17 C 141.03,146.33 140.97,146.38 140.65,146.17 z M 157.19,146.41 C 157.79,146.42 158.33,146.74 158.56,147.26 158.69,147.56 158.75,147.87 158.8,148.19 158.87,148.57 158.81,148.96 158.6,149.29 158.44,149.54 158.32,149.77 158.15,150.01 158.05,150.15 157.92,150.32 157.77,150.42 157.33,150.75 156.92,150.67 156.64,150.18 156.42,149.79 156.27,149.33 156.16,148.84 156.51,148.98 156.83,149.11 157.19,149.25 157.12,149.42 157.08,149.58 156.98,149.8 156.8,149.54 156.65,149.33 156.47,149.08 156.44,149.5 156.62,149.78 156.81,150.01 156.93,150.15 157.06,150.15 157.19,150.01 157.5,149.7 157.82,149.37 158.12,149.05 158.6,148.52 158.64,148.07 158.25,147.47 157.99,147.06 157.58,146.86 157.16,146.68 157.01,146.62 156.86,146.59 156.61,146.51 156.81,146.44 156.99,146.4 157.19,146.41 z M 149.57,146.68 C 149.66,147.03 149.79,147.38 149.91,147.68 150.39,148.97 150.89,150.27 151.7,151.42 152.11,152 152.52,152.56 153.07,153.03 153.28,153.21 153.51,153.39 153.76,153.51 154.49,153.86 155.03,153.78 155.61,153.06 156,152.58 156.13,152.01 156.02,151.38 155.98,151.2 156.1,151.02 156.13,150.83 156.21,151.03 156.19,151.28 156.23,151.49 156.35,152.2 156.36,152.93 155.82,153.51 155.53,153.82 155.18,154.06 154.75,154.16 154.61,154.2 154.46,154.27 154.31,154.33 154.62,154.76 155.03,154.84 155.37,154.54 155.61,154.33 155.79,154.07 155.99,153.82 156.06,153.73 156.1,153.64 156.16,153.55 156.14,153.68 156.12,153.81 156.06,153.92 155.88,154.23 155.73,154.57 155.51,154.85 155.03,155.46 154.31,155.45 153.76,154.99 153.02,154.37 152.4,153.66 151.87,152.86 151.86,152.84 151.87,152.79 151.87,152.76 152.11,152.98 152.35,153.22 152.59,153.44 152.71,153.55 152.81,153.62 152.93,153.72 152.88,153.62 152.83,153.52 152.76,153.44 151.62,152.13 150.81,150.64 150.22,149.01 150.02,148.47 149.85,147.92 149.67,147.37 149.54,147.13 149.56,146.87 149.57,146.68 z M 152.49,146.89 C 152.81,147.21 152.83,147.66 153.04,148.02 153.25,148.38 153.29,148.79 153.62,149.19 153.81,148.8 153.62,148.43 153.93,148.16 154.15,148.23 154.14,148.43 154.14,148.6 154.14,149.08 153.96,149.43 153.62,149.7 153.41,149.68 153.26,149.54 153.17,149.36 152.82,148.6 152.59,147.81 152.45,146.99 152.45,146.96 152.46,146.95 152.49,146.89 z M 146.93,146.99 C 147.59,146.94 148.15,147.27 148.4,147.78 148.92,148.83 149.51,149.85 150.02,150.9 150.99,152.91 151.91,154.95 152.9,156.94 153.44,158.02 154.11,159 154.89,159.93 155.21,160.3 155.4,160.31 155.65,159.9 155.75,159.72 155.86,159.53 155.96,159.35 156.03,159.89 155.87,160.35 155.65,160.82 155.5,161.14 155.26,161.2 155.03,160.93 154.65,160.48 154.27,160.01 153.96,159.52 153.45269,158.65728 153.00382,157.78464 152.56,157.05 152.73,157.55 152.86,158.07 153.07,158.56 153.58,159.74 154.18,160.89 154.86,161.99 154.87,162.01 154.86,162.05 154.86,162.13 154.32,161.68 153.94,161.14 153.66,160.55 153.19,159.58 152.75,158.59 152.35,157.6 151.46,155.38 150.63,153.14 149.71,150.94 149.28,149.92 148.76,148.93 148.23,147.95 147.97,147.46 147.54,147.15 146.93,147.16 146.72,147.17 146.49,147.16 146.24,147.16 146.48,147.05 146.71,147.01 146.93,146.99 z M 154.24,147.02 C 154.43,147.24 154.56,147.43 154.72,147.61 154.64,147.64 154.5,147.73 154.48,147.71 154.29,147.5 154.33,147.8 154.24,147.81 154.22,147.77 154.19,147.7 154.17,147.64 L 154,147.85 C 153.97,147.83 153.96,147.83 153.93,147.81 154.03,147.57 154.13,147.31 154.24,147.02 z M 142.23,147.44 C 142.73,148.01 143.24,148.54 143.74,149.12 143.88,149.28 143.96,149.47 143.98,149.7 144.04,150.59 144.12,151.48 144.35,152.34 144.64,153.43 144.58,154.52 144.42,155.64 144.02,155.29 143.99,154.81 143.87,154.37 143.53,153.05 143.2,151.75 142.88,150.42 142.81,150.16 142.81,149.88 142.84,149.6 142.87,149.39 142.8,149.11 142.67,148.95 142.51,148.74 142.43,148.52 142.36,148.29 142.28,148.02 142.22,147.75 142.16,147.47 z M 145.83,147.54 C 146.1,147.63 146.32,147.75 146.45,148.02 146.83,148.79 147.21,149.58 147.58,150.35 147.73,150.67 147.75,150.7 147.48,150.94 147.1,151.27 146.7,151.58 146.31,151.9 146.16,152.02 146.02,152 145.86,151.9 145.42,151.61 145.15,151.16 144.94,150.7 144.83,150.47 144.81,150.23 144.73,149.94 145.13,150.12 145.38,150.39 145.62,150.66 145.73,150.78 145.76,150.92 145.8,151.07 145.81,151.15 145.72,151.27 145.66,151.42 145.74,151.49 145.83,151.57 145.93,151.66 145.98,151.62 146.06,151.59 146.07,151.55 146.12,151.38 146.17,151.22 146.17,151.04 146.21,150.18 146.2,149.3 145.9,148.47 145.88,148.42 145.9,148.38 145.9,148.33 146.27,148.68 146.38,148.95 146.41,149.6 146.43,149.97 146.49,150.36 146.58,150.73 146.6,150.2 146.65,149.65 146.62,149.12 146.59,148.57 146.29,148.13 145.83,147.81 145.78,147.78 145.74,147.76 145.69,147.71 145.67,147.69 145.66,147.64 145.62,147.57 145.7,147.55 145.78,147.52 145.83,147.54 z M 159.11,147.64 C 159.14,147.65 159.33,147.71 159.35,147.71 159.34,147.76 159.27,148.04 159.25,148.09 159.24,148.03 159.12,147.7 159.11,147.64 z M 146.72,147.81 C 146.75,147.83 146.77,147.83 146.79,147.85 147.11,148 147.28,148.3 147.48,148.57 148.05,149.36 148.35,150.26 148.64,151.18 149.18,152.85 149.68,154.53 150.26,156.19 150.63,157.28 151.08,158.37 151.56,159.41 152.04,160.47 152.7,161.42 153.55,162.23 153.62,162.3 153.66,162.36 153.72,162.44 153.6,162.37 153.49,162.32 153.38,162.23 152.18,161.2 151.34,159.91 150.77,158.45 150.28,157.2 149.84,155.92 149.4,154.64 149.11,153.82 148.89,152.97 148.61,152.14 148.23,151.03 147.97,149.9 147.37,148.88 147.18,148.54 146.96,148.21 146.76,147.88 146.74,147.86 146.74,147.83 146.72,147.81 z M 154.82,147.92 C 154.89,147.91 154.98,147.92 155.06,147.95 155.16,147.98 155.23,148.07 155.27,148.16 155.41,148.52 155.11,149.49 154.79,149.74 154.75,149.76 154.71,149.76 154.58,149.8 154.67,149.23 155,148.79 154.96,148.23 154.66,148.71 154.63,149.32 154.14,149.7 154.22,149.23 154.28,148.76 154.38,148.33 154.44,148.07 154.61,147.93 154.82,147.92 z M 159.32,148.4 C 159.35,148.51 159.4,148.63 159.39,148.74 159.34,149.39 159.28,150.05 159.22,150.7 158.93,150.44 158.99,150.12 159.04,149.8 159.13,149.34 159.24,148.86 159.32,148.4 z M 154.82,150.08 C 155.13,150.15 155.31,150.33 155.41,150.56 155.54,150.89 155.68,151.24 155.75,151.59 155.83,152 155.44,152.41 154.99,152.45 154.82,152.46 154.65,152.46 154.48,152.41 153.9,152.26 153.4,151.93 152.97,151.52 152.9,151.46 152.84,151.36 152.83,151.28 152.82,150.98 152.83,150.67 152.83,150.28 153.23,150.69 153.26,151.19 153.52,151.59 153.48,151.21 153.45,150.83 153.42,150.42 153.71,150.56 153.69,150.56 154.1,151.49 154.04,151.11 154,150.75 153.93,150.28 154.43,150.74 154.47,151.27 154.72,151.76 154.67,151.49 154.65,151.23 154.58,150.97 154.52,150.73 154.35,150.52 154.38,150.22 154.87,150.55 155.09,151.01 155.23,151.83 155.39,151.16 155.09,150.62 154.82,150.08 z M 152.39,150.39 C 152.44,150.41 152.47,150.47 152.49,150.52 152.54,150.68 152.56,150.84 152.59,151.01 152.55,151.02 152.53,151.03 152.49,151.04 152.39,150.91 152.25,150.8 152.18,150.66 152.15,150.6 152.17,150.46 152.21,150.42 152.27,150.38 152.34,150.37 152.39,150.39 z M 158.43,150.42 C 158.44,150.43 158.48,150.45 158.5,150.46 L 158.5,152.76 C 158.17,152.2 157.95,151.66 158.12,151.04 158.13,151.15 158.16,151.26 158.19,151.45 158.28,151.06 158.35,150.74 158.43,150.42 z M 156.47,150.9 C 156.53989,151.06518 156.68599,151.18566 156.78,151.31 157.52,152.7 158.13,154.15 158.63,155.64 158.67,155.76 158.7,155.91 158.74,156.09 158.29,155.86 158.04,155.52 157.95,155.12 157.61,153.78 157.14,152.5 156.57,151.25 156.55214,151.12701 156.50131,151.00958 156.47,150.9 z M 151.87,151.01 C 152.09,151.22 152.34,151.44 152.56,151.66 153.07,152.16 153.59,152.66 154.31,152.86 154.49,152.91 154.67,152.94 154.93,153 154.48,153.11 154.1,153.1 153.76,152.93 152.9,152.51 152.29,151.86 151.87,151.01 z M 158.98,151.01 C 159.23,151.3 159.41,151.54 159.63,151.79 159.36,152.05 159.15,152.29 158.87,152.55 158.79,152.03 158.85,151.55 158.98,151.01 z M 147.48,151.66 C 147.54,151.73 147.63,151.81 147.65,151.9 147.73,152.24 147.83,152.58 147.85,152.93 147.92,153.89 147.72,154.83 147.61,155.78 147.57,156.18 147.58,156.61 147.55,157.08 147.38,156.66 147.36,156.29 147.41,155.91 147.48,155.37 147.53,154.81 147.55,154.27 147.56,153.77 147.7,153.26 147.58,152.76 147.52,152.51 147.49,152.25 147.44,152 147.42,151.9 147.39,151.79 147.37,151.69 z M 144.83,151.97 C 145.06,152.29 145.15,152.61 145.21,152.93 145.28,153.26 145.31,153.62 145.35,153.96 145.38,154.28 145.4,154.59 145.42,154.92 145.44,155.25 145.36,155.59 145.45,155.91 145.5,155.92 145.57,155.94 145.62,155.95 145.69,155.79 145.76,155.63 145.8,155.47 145.92,154.94 145.83,154.42 145.76,153.89 145.68,153.33 145.58,152.76 145.49,152.14 145.79,152.31 145.95,152.55 146,152.82 146.16,153.64 146.34,154.45 146.48,155.26 146.57,155.75 146.48,155.84 146,156.02 145.83,156.08 145.68,156.11 145.52,156.19 145.36,156.27 145.19,156.4 145.01,156.53 144.97,156.37 144.92,156.19 144.9,156.02 144.89,155.84 144.88,155.68 144.9,155.5 145,154.67 144.96,153.82 144.9,153 144.88,152.68 144.87,152.36 144.83,151.97 z M 147.1,152.24 C 147.41,152.85 147.38,154.92 147.07,155.4 147.08,154.37 147.08,153.3 147.1,152.24 z M 159.83,152.28 C 160.21,152.75 160.04,153.27 160.21,153.82 159.91,153.58 159.68,153.42 159.46,153.24 159.25,153.07 159.21,152.9 159.39,152.69 159.51,152.54 159.68,152.43 159.83,152.28 z M 146.58,152.38 C 146.87,153.09 146.73,153.81 146.76,154.54 146.54,154.2 146.51,153.82 146.45,153.44 146.38,153.07 146.28,152.71 146.58,152.38 z M 157.98,152.76 C 158.12,152.98 158.27,153.21 158.39,153.44 158.89,154.43 159.32,155.44 159.7,156.5 159.38,156.39 159.25,156.27 159.11,155.95 158.99,155.65 158.88,155.33 158.77,155.02 158.53,154.38 158.29,153.74 158.05,153.1 158.01,152.99 158.01,152.87 157.98,152.76 z M 156.88,152.93 C 156.97,153.19 157.07,153.39 157.12,153.58 157.25,154.06 157.34,154.53 157.47,155.06 157.03,154.72 156.81,153.92 156.88,152.93 z M 159.11,153.55 C 159.73,153.86 160.05,154.38 160.18,155.02 160.28,155.53 160.36,156.04 160.69,156.53 160.44,156.51 160.33,156.41 160.25,156.26 160.09,155.97 159.96,155.66 159.83,155.36 159.58,154.78 159.35,154.2 159.11,153.61 159.11,153.6 159.11,153.57 159.11,153.55 z M 148.68,154.33 C 148.9,154.35 148.95,154.5 148.95,154.64 148.95,155.02 148.95,155.38 148.88,155.74 148.79,156.3 148.63,156.87 148.51,157.42 148.49,157.51 148.47,157.59 148.44,157.77 148.75,157.42 148.83,157.07 148.95,156.74 149.07,156.43 149.12,156.11 149.23,155.71 149.96,156.97 149.75,158.15 149.33,159.35 149.7,158.99 149.88,158.55 150.05,158.08 150.21,158.19 150.26,158.37 150.33,158.52 150.88,159.89 151.69,161.1 152.63,162.23 152.85,162.5 153.07,162.76 153.31,163.02 152.87,162.93 152.47,162.75 152.15,162.4 152.01,162.25 151.79,162.15 151.6,162.09 151.26,162 151.05,161.76 150.81,161.54 150.32,161.09 149.81,160.63 149.3,160.2 148.82,159.82 148.29,159.89 147.75,160.07 147.46,160.16 147.3,160.39 147.27,160.68 147.26,160.79 147.28,160.89 147.27,161.06 147.02,160.8 146.93,160.57 147.07,160.27 147.26,159.85 147.46,159.41 147.61,158.97 147.86,158.26 147.92,157.52 147.92,156.77 147.92,155.97 148.14,155.24 148.51,154.54 148.55,154.46 148.63,154.4 148.68,154.33 z M 156.61,154.47 C 156.75,155.86 156.67,157.21 155.89,158.42 155.78,158.58 155.64,158.75 155.54,158.87 155.52,158.86 155.53,158.84 155.51,158.83 155.6,158.62 155.7,158.38 155.78,158.18 156.26,156.99 156.55,155.75 156.61,154.47 z M 150.29,154.51 C 150.29,154.51 150.59,155.07 150.7,155.36 151.41,157.19 152.22,158.99 153.14,160.72 153.3,161.03 153.46,161.34 153.62,161.65 153.11,161.25 152.82,160.7 152.49,160.17 151.95,159.31 151.54,158.38 151.22,157.42 150.95,156.61 150.67,155.8 150.39,154.99 z M 152.83,154.99 C 153.09,155.25 153.35,155.53 153.62,155.78 153.84,155.97 154.06,156.15 154.31,156.29 154.89,156.61 155.32,156.52 155.71,155.98 155.75,155.93 155.78,155.87 155.82,155.81 155.86,156.17 155.66,156.7 155.41,156.87 155.23,157 155.04,157.07 154.82,156.98 154.66,156.91 154.49,156.84 154.34,156.74 153.75,156.34 153.27,155.83 152.9,155.23 152.86,155.16 152.85,155.06 152.83,154.99 z M 146.93,156.12 C 146.94,156.14 146.96,156.14 146.96,156.15 147.01,157.01 147.07,157.84 147.1,158.69 147.11,158.88 147.04,159.06 146.96,159.24 146.98,158.19 146.57,157.17 146.93,156.12 z M 144.32,156.15 C 144.36,156.15 144.38,156.16 144.42,156.15 144.42,156.29 144.45,156.43 144.46,156.57 144.61,156.73 144.72,156.92 144.9,157.05 145.15,157.22 145.24,157.42 145.21,157.7 145.15,158.29 145.39,158.74 145.83,159.11 145.99,159.24 146.14,159.41 146.28,159.55 146.23,159.82 146.17,160.03 146.14,160.27 146.08,160.69 146.19,161.08 146.58,161.3 147.25,161.68 147.42,162.28 147.41,162.98 147.4,163.91 147.53,164.82 147.72,165.73 147.76,165.92 147.79,166.13 147.82,166.31 147.21,166.6 146.88,166.46 146.72,165.83 146.39,164.55 146.09,163.24 145.76,161.95 145.33,160.27 144.88,158.59 144.46,156.91 144.43,156.8 144.4,156.68 144.39,156.57 144.35,156.43 144.36,156.29 144.32,156.15 z M 146.07,156.43 C 146.08,156.66 146.09,156.83 146.1,157.08 145.94,156.89 145.84,156.77 145.69,156.6 145.82,156.55 145.91,156.49 146.07,156.43 z M 145.69,157.25 C 145.95,157.44 145.94,157.67 145.93,157.87 145.93,158.09 145.91,158.3 145.9,158.52 145.73,158.47 145.7,158.33 145.69,158.18 145.68,157.89 145.69,157.59 145.69,157.25 z M 155.96,159 C 155.92703,159.00437 156.11,159.02 156.13,159.04 156.11,159.06 156.01781,159.22484 155.99781,159.24484 156.00781,159.20484 155.95,159.04 155.96,159 z M 156.26,160.07 C 156.49,160.49 156.54,161.32 156.37,161.71 156.25,161.97 156.12,162.02 155.65,161.99 156.34,161.46 156.25,160.76 156.26,160.07 z M 148.2,160.27 C 148.53,160.24 148.84,160.29 149.12,160.48 149.31,160.6 149.5,160.74 149.67,160.89 149.93,161.11 150.06,161.38 149.91,161.71 149.8,161.98 149.88,162.21 149.95,162.47 150.11,163.13 150.33,163.77 150.29,164.46 150.28,164.72 150.25,165 150.19,165.25 149.96,166.17 149.82,167.08 149.81,168.03 149.81,168.08 149.79,168.15 149.78,168.24 149.32,168.43 148.9,168.64 148.37,168.48 148.36,168.31 148.34,168.15 148.34,168 148.32,167.2 148.22,166.41 148.06,165.63 147.92,164.93 147.77,164.2 147.79,163.5 147.8,162.95 147.72,162.44 147.61,161.92 147.55,161.6 147.53,161.28 147.55,160.96 147.56,160.54 147.79,160.32 148.2,160.27 z M 150.43,162.23 C 150.54,162.28 150.62,162.31 150.7,162.37 150.98,162.57 151.24,162.75 151.6,162.81 151.69,162.83 151.81,162.88 151.87,162.95 152.11,163.22 152.43,163.32 152.76,163.4 153.21,163.5 153.27,163.6 153.31,164.15 152.98,164.27 152.72,164.15 152.45,164.05 152.31,163.99 152.18,163.9 152.04,163.81 151.74,163.61 151.39,163.47 151.01,163.5 150.67,163.53 150.67,163.5 150.57,163.16 150.48,162.87 150.31,162.6 150.43,162.23 z M 156.47,162.54 C 156.75,162.95 156.8,163.36 156.78,163.77 156.77,164 156.63,164.08 156.4,164.01 156.13,163.93 155.92,163.75 155.78,163.5 155.85,163.51 155.89,163.52 155.96,163.53 156.32,163.62 156.51,163.55 156.54,163.19 156.56,163 156.49,162.79 156.47,162.54 z M 153.93,163.4 C 154.76,163.81 155.52,164.2 156.23,164.7 156.52,164.91 156.69,165.21 156.68,165.59 156.65,166.16 156.68,166.74 156.68,167.31 156.68,167.81 156.59,167.87 155.99,167.82 156.07,167.78 156.15,167.76 156.23,167.72 155.61,167.77 155.56,167.74 155.3,167.24 154.69,166.04 154.24,164.77 153.93,163.4 z M 160.52,165.01 C 159.9,165.54 159.17,165.54 158.32,165.49 159.03,165.88 159.63,165.81 160.25,165.59 160.43,165.53 160.6,165.44 160.79,165.56 161.15,165.77 161.54,165.71 161.93,165.7 162.15,165.69 162.31,165.56 162.55,165.32 161.81,165.53 161.16,165.38 160.52,165.01 z M 143.26,165.25 C 142.73,165.7 142.08,165.71 141.37,165.66 141.97,165.99 142.49,165.92 143.02,165.73 143.17,165.67 143.33,165.6 143.5,165.7 143.8,165.88 144.13,165.85 144.46,165.83 144.64,165.83 144.77,165.73 144.97,165.52 144.35,165.71 143.8,165.56 143.26,165.25 z M 159.39,166.42 C 158.77,166.95 158.03,166.95 157.19,166.9 157.89,167.28 158.5,167.22 159.11,167 159.3,166.93 159.46,166.85 159.66,166.97 160.02,167.18 160.44,167.12 160.83,167.1 161.05,167.09 161.21,166.97 161.45,166.73 160.71,166.94 160.03,166.78 159.39,166.42 z M 145.14,167.34 C 144.52,167.88 143.79,167.84 142.95,167.79 143.65,168.18 144.29,168.11 144.9,167.89 145.09,167.83 145.25,167.74 145.45,167.86 145.81,168.07 146.2,168.01 146.58,168 146.8,167.99 146.96,167.86 147.2,167.62 146.47,167.83 145.78,167.71 145.14,167.34 z"
		 />
		
		<!-- Prism Reference -->
		<cam mingh:cam="--verb EditSelectAll --verb EditSelectAll --verb ZoomSelection --verb FileSave " /> 
	 </g>

</svg>
