<svg
   xmlns:xlink="http://www.w3.org/1999/xlink"
   xmlns:svg="http://www.w3.org/2000/svg"
   xmlns="http://www.w3.org/2000/svg"
   xmlns:mingh="http://www.minghworld.com"
   width="300px"
   height="300px" >
	
	 <g>
		
		<!-- Paths -->
		<path transform="matrix(-1 0 0 1 300 0)" style="fill:#ff0;stroke:none;"
		 d="M 128.09,128.75 C 127.37,128.78 126.67,128.92 125.97,129.19 125.8,129.25 125.65,129.29 125.47,129.31 125.0,129.38 124.73,129.63 124.66,130.09 124.58,130.56 124.22,130.74 123.81,130.78 123.52,130.81 123.23,130.76 122.94,130.75 122.76,130.74 122.58,130.7 122.41,130.72 121.68,130.79 120.97,130.88 120.25,130.97 119.83,131.02 119.68,131.16 119.69,131.59 119.69,131.98 119.73,132.37 119.72,132.75 119.7,133.28 119.87,133.74 120.25,134.09 120.83,134.63 121.43,135.14 122.06,135.63 122.31,135.82 122.63,135.94 123.0,136.13 122.68,136.2 122.45,136.22 122.25,136.31 121.92,136.46 121.5,136.55 121.34,136.81 121.04,137.34 120.63,137.74 120.19,138.13 120.17,138.14 120.19,138.19 120.19,138.25 120.34,138.44 120.55,138.51 120.78,138.44 120.99,138.37 121.16,138.26 121.38,138.19 121.74,139.07 122.37,139.53 123.31,139.44 123.54,139.42 123.78,139.38 124.0,139.34 124.69,139.23 125.4,139.09 126.09,139.0 126.62,138.93 126.99,139.15 127.22,139.66 127.66,140.65 128.12,141.68 128.59,142.66 128.77,143.02 128.93,143.4 129.22,143.66 129.94,144.29 130.03,145.13 129.97,145.97 129.87,147.29 130.0,148.53 130.53,149.75 131.02,150.87 131.79,151.82 132.56,152.75 133.42,153.78 134.3,154.8 134.81,156.06 135.13,156.84 135.4,157.6 135.72,158.38 136.06,159.2 136.34,160.07 136.41,160.97 136.44,161.46 136.56,161.94 136.63,162.44 136.71,163.09 136.82,163.72 136.84,164.38 136.87,164.96 136.82,165.56 136.59,166.13 136.44,166.5 136.22,166.71 135.78,166.72 135.47,166.72 135.13,166.82 134.84,166.94 134.29,167.18 134.05,167.89 134.28,168.44 134.34,168.57 134.46,168.75 134.56,168.75 135.19,168.77 135.84,168.76 136.47,168.72 136.62,168.71 136.72,168.56 136.84,168.44 137.03,168.56 137.08,168.77 137.06,168.91 136.96,168.95 136.92,168.92 136.81,168.94 136.68,168.95 136.55,169.02 136.44,169.09 135.94,169.41 135.55,169.79 135.56,170.44 135.57,170.82 135.69,170.97 136.06,171.06 136.84,171.27 137.65,171.29 138.44,171.19 138.93,171.12 139.45,171.02 139.69,170.47 139.74,170.36 139.85,170.25 139.97,170.19 140.56,169.88 140.79,169.36 140.84,168.75 140.91,168.05 141.16,167.45 141.5,166.84 141.67,166.54 141.82,166.16 141.84,165.81 141.92,164.8 141.91,163.77 141.94,162.75 141.95,162.45 141.95,162.17 141.94,161.88 141.91,161.1 141.87,160.3 141.88,159.53 141.88,158.51 142.11,157.52 142.69,156.72 143.15,156.08 143.14,155.41 143.22,154.72 143.23,154.61 143.24,154.51 143.25,154.41 143.67,155.41 143.51,156.39 143.06,157.38 143.2,157.43 143.3,157.48 143.41,157.5 144.29,157.7 145.14,157.86 146.06,157.84 146.69,157.83 147.38,157.68 147.91,158.22 147.93,158.25 148.0,158.3 148.03,158.28 148.34,158.11 148.47,158.33 148.66,158.47 148.69,158.49 148.75,158.49 148.81,158.5 148.88,158.38 148.96,158.24 149.06,158.06 149.19,158.23 149.31,158.36 149.41,158.5 149.58,158.36 149.69,158.26 149.81,158.16 149.95,158.26 150.04,158.35 150.16,158.44 150.47,158.13 150.77,157.87 151.09,157.56 151.15,157.75 151.2,157.83 151.25,158.0 151.9,157.65 152.43,157.17 153.16,156.94 153.11,157.16 153.09,157.34 153.06,157.5 153.51,157.3 153.89,157.09 154.31,156.94 154.4,156.91 154.57,157.01 154.78,157.09 155.74,156.62 156.82,156.27 157.88,155.78 158.21,156.72 158.84,157.54 159.59,158.03 160.24,158.45 160.95,158.86 161.63,159.22 161.82,159.32 162.15,159.24 162.28,159.38 162.57,159.69 162.92,159.74 163.28,159.84 164.71,160.25 165.91,161.0 166.72,162.28 166.99,162.71 167.08,163.13 166.97,163.63 166.81,164.31 166.7,165.01 166.53,165.72 166.23,165.84 165.97,165.91 165.75,166.03 165.23,166.32 164.84,166.67 164.88,167.34 164.89,167.58 164.96,167.73 165.19,167.81 165.85,168.04 166.54,168.13 167.19,167.84 167.95,167.51 168.67,167.06 168.69,166.09 168.7,165.38 168.89,164.68 169.06,164.0 169.17,163.56 169.29,163.16 169.38,162.72 169.42,162.5 169.42,162.38 169.34,162.28 L 169.75,161.84 C 170.75,162.58 171.37,163.57 171.34,164.91 171.33,165.52 171.2,166.14 171.13,166.75 171.08,167.09 170.94,167.32 170.56,167.41 170.01,167.53 169.7,167.95 169.47,168.44 169.2,168.99 169.33,169.28 169.91,169.47 170.06,169.52 170.19,169.55 170.34,169.56 171.12,169.61 171.88,169.54 172.63,169.31 173.27,169.12 173.73,168.71 173.78,168.03 173.85,167.2 173.89,166.33 173.84,165.5 173.77,164.12 173.63,162.72 173.53,161.34 173.5,160.84 173.31,160.43 172.94,160.09 172.7,159.88 172.46,159.67 172.22,159.47 171.96,159.25 171.67,159.08 171.47,158.81 170.87,158.03 170.45,157.13 170.25,156.16 170.13,155.56 170.04,154.95 169.97,154.34 169.9,153.82 169.82,153.3 169.5,152.88 169.17,152.43 169.07,151.93 169.03,151.41 168.95,150.31 168.74,149.29 168.38,148.25 168.24,147.85 168.08,147.44 167.94,147.03 168.47,146.96 168.82,147.27 169.22,147.53 169.5,147.72 169.85,147.82 170.16,147.97 170.51,147.67 170.8,147.99 171.13,148.03 171.28,148.05 171.45,148.03 171.59,148.06 171.94,148.15 172.2,147.89 172.53,147.91 172.87,147.92 173.22,147.9 173.56,147.91 173.67,147.91 173.82,147.94 173.88,147.88 174.18,147.51 174.6,147.66 174.97,147.63 175.26,147.6 175.55,147.64 175.78,147.41 175.75,147.27 175.71,147.13 175.69,147.0 176.16,146.93 176.62,146.88 177.06,146.78 177.44,146.69 177.81,146.57 177.91,146.09 177.93,145.98 178.08,145.88 178.19,145.81 178.49,145.62 178.8,145.45 179.13,145.28 179.48,145.1 179.86,144.94 180.31,144.72 180.0,144.51 179.8,144.34 179.56,144.22 178.34,143.6 177.02,143.45 175.69,143.72 174.95,143.87 174.26,144.09 173.53,144.25 172.77,144.42 172.0,144.5 171.25,144.22 170.63,143.99 170.03,143.71 169.41,143.5 167.56,142.88 165.72,142.22 163.84,141.69 162.58,141.33 161.27,141.11 159.97,140.97 158.36,140.8 156.73,140.96 155.13,141.09 153.86,141.2 152.58,141.28 151.31,141.34 151.09,141.36 150.83,141.36 150.5,141.38 151.93,140.69 152.81,139.16 152.66,137.53 152.51,135.91 151.33,134.53 149.75,134.13 148.16,133.72 146.49,134.3 145.56,135.66 144.63,137.01 144.65,138.83 145.59,140.13 144.7,139.71 143.74,139.25 143.03,138.56 142.58,138.12 142.04,137.89 141.47,137.66 140.43,137.23 139.41,136.72 138.59,135.94 138.13,135.5 137.72,135.02 137.28,134.56 136.59,133.84 135.92,133.1 135.06,132.56 134.29,132.1 134.33,131.72 133.72,130.88 133.43,130.58 133.1,130.29 132.78,130.03 132.05,129.43 131.23,129.01 130.28,128.88 129.56,128.77 128.81,128.72 128.09,128.75 z M 148.53,135.94 C 149.6,135.76 150.68,136.67 150.72,137.75 150.82,138.74 150.01,139.69 149.03,139.81 148.03,139.98 147.0,139.21 146.84,138.22 146.64,137.18 147.49,136.06 148.53,135.94 z M 142.13,144.13 C 142.37,144.13 142.64,144.21 142.88,144.31 143.71,144.7 144.07,145.73 144.0,146.59 143.9,147.75 143.05,148.61 142.19,149.31 141.37,149.96 140.56,150.65 139.94,151.5 139.74,151.25 139.52,150.99 139.31,150.75 138.32,149.65 136.88,148.97 136.19,147.63 135.66,146.65 135.78,145.3 136.63,144.53 137.38,143.91 138.66,144.1 139.25,144.69 139.49,144.92 139.8,145.56 140.16,145.13 140.6,144.51 141.36,144.12 142.13,144.13 z" />
		
		
		<text id="txtTwo" transform="matrix(1 0 0 1 150 160)" style="stroke:none;fill:#f00;font-family:'Eras Medium ITC';font-size:20px;text-anchor:middle"  >

		</text>
		<!-- Prism Reference -->
		<cam mingh:cam="--verb EditSelectAll --verb ZoomSelection --verb FileSave "/> 
	 </g>

</svg>