<svg
   xmlns:xlink="http://www.w3.org/1999/xlink"
   xmlns:svg="http://www.w3.org/2000/svg"
   xmlns="http://www.w3.org/2000/svg"
   xmlns:mingh="http://www.minghworld.com"
   width="300px"
   height="300px" >
    
	 <g>
		<!-- Paths -->
		<path id="shape" transform="matrix(-1 0 0 1 300 0)" style="fill:#b4b4b4;stroke:none;"
			d="M 148.06,132.8 C 146.23,132.8 144.74,134.29 144.74,136.11 144.74,136.93 145.06,137.66 145.56,138.23 144.84,138.35 144.56,138.43 143.74,138.73 143.39,138.41 143.23,138.43 141.9,138.73 140.41,139.09 138.81,139.9 136.84,140.61 134.02,141.63 130.89,142.68 130.12,144.08 129.3,145.82 129.55,146.8 129.65,147.52 129.91,149.51 129.87,150.73 129.4,152.39 130.24,153.28 130.28,153.75 130.52,154.52 129.12,155.46 128.05,156.22 127.09,157.2 126.4,157.91 125.62,158.83 125.15,160.02 124.53,161.59 124.79,163.13 125.93,164.3 126.65,165.03 127.56,165.58 128.65,165.98 130.88,166.81 133.19,167.2 135.71,167.2 137.02,167.2 138.39,167.08 139.81,166.86 142.48,166.44 144.85,165.45 146.81,164.55 149.18,163.45 151.63,162.38 153.99,161.33 L 155.46,160.67 C 155.92,160.87 156.38,161.06 156.84,161.27 157.74,161.66 158.67,162.06 159.62,162.42 162.43,163.49 165.07,164.02 167.68,164.02 168.07,164.02 168.45,164.01 168.84,163.98 170.02,163.91 171.14,163.64 172.15,163.14 173.77,162.33 174.86,160.88 175.12,159.17 175.38,157.49 174.78,155.75 173.52,154.55 172.56,153.62 171.46,153.08 170.52,152.67 168.5,151.79 166.54,151.36 164.62,151.36 164.38,151.36 164.14,151.38 163.9,151.39 163.9,150.19 163.84,149.1 163.65,148.14 162.85,144.05 160.35,141.37 156.37,140.3 156.14,140.24 155.93,140.19 155.71,140.14 155.18,140.02 154.73,139.92 154.34,139.7 153.21,139.08 151.9,138.64 150.43,138.36 151.0,137.77 151.34,137.0 151.34,136.11 151.34,134.29 149.88,132.8 148.06,132.8 z M 148.06,134.45 C 148.97,134.45 149.71,135.2 149.71,136.11 149.71,137.02 148.97,137.73 148.06,137.73 147.14,137.73 146.4,137.02 146.4,136.11 146.4,135.2 147.14,134.45 148.06,134.45 z" />
		
		<!-- Text -->
		<text id="txt" transform="matrix(1 0 0 1 152 153)" style="stroke:none;fill:#f00;font-family:'Eras Medium ITC';font-size:10px;text-anchor:middle" />
		
		<!-- Prism Reference -->
		<cam mingh:cam=" --verb EditSelectAll --verb SelectionGroup --verb ZoomSelection --verb FileSave"/> 
	 </g>

</svg>