<svg
   xmlns:xlink="http://www.w3.org/1999/xlink"
   xmlns:svg="http://www.w3.org/2000/svg"
   xmlns="http://www.w3.org/2000/svg"
   xmlns:mingh="http://www.minghworld.com"
   width="300px"
   height="300px" >
   
	<g>	
		<!-- Shape -->
		<path id="shape" style="fill:none;stroke:#000;stroke-width:0.25px;"
			d="M 150.0,129.19 C 138.5,129.19 129.19,138.5 129.19,150.0 129.19,161.5 138.5,170.81 150.0,170.81 161.5,170.81 170.81,161.5 170.81,150.0 170.81,138.5 161.5,129.19 150.0,129.19 z M 150.0,131.13 C 151.08,131.13 151.94,132.02 151.94,133.09 151.94,134.17 151.08,135.03 150.0,135.03 148.92,135.03 148.06,134.17 148.06,133.09 148.06,132.02 148.92,131.13 150.0,131.13 z M 160.81,162.69 C 155.88,166.99 148.35,167.95 142.54,164.94 143.81,165.09 145.09,165.2 146.36,165.36 146.7,165.39 147.05,165.48 147.4,165.43 147.81,165.04 148.26,164.69 148.68,164.31 149.47,163.58 150.29,162.89 151.08,162.17 152.94,161.76 154.96,161.25 156.93,160.79 157.11,159.82 157.33,158.86 157.49,157.88 157.52,157.75 157.54,157.69 157.67,157.64 157.82,157.58 158.02,157.53 158.19,157.46 158.54,157.33 158.92,157.3 159.11,156.98 159.33,155.87 159.6,154.78 159.8,153.67 160.57,153.69 161.33,153.77 162.1,153.82 162.57,153.82 163.04,153.97 163.5,153.81 164.03,153.52 164.57,153.22 165.11,152.92 165.57,152.64 166.02,152.37 166.52,152.12 166.0,156.19 163.93,160.03 160.81,162.69 z M 140.17,148.35 C 139.88,148.24 139.78,147.91 139.88,147.63 140.52,146.01 141.14,144.39 141.87,142.61 141.97,142.29 142.32,142.13 142.61,142.24 142.84,142.34 143.07,142.43 143.29,142.55 143.56,142.76 143.45,143.13 143.33,143.4 142.77,144.86 142.15,146.42 141.54,147.98 141.47,148.22 141.36,148.5 141.1,148.59 140.77,148.64 140.51,148.48 140.17,148.35 z M 145.52,139.85 C 145.59,138.82 146.47,138.04 147.5,138.11 148.53,138.18 149.31,139.07 149.24,140.1 149.17,141.12 148.28,141.9 147.25,141.83 146.23,141.76 145.45,140.88 145.52,139.85 z M 140.82,162.55 C 140.62,162.42 140.65,162.1 140.7,161.89 140.81,161.51 141.01,161.16 141.16,160.79 141.78,159.25 142.39,157.7 142.96,156.15 142.99,154.88 142.92,153.58 142.9,152.31 142.98,151.56 142.69,150.81 142.9,150.09 143.74,148.07 144.28,145.95 145.09,143.92 145.43,142.93 146.76,142.55 147.6,143.14 148.15,143.47 148.26,144.14 148.7,144.57 149.38,145.35 150.07,146.14 150.8,146.86 151.92,147.35 152.96,148.01 154.12,148.48 154.52,148.64 154.66,148.94 154.5,149.15 154.3,149.34 154.01,149.24 153.77,149.2 152.57,148.72 151.32,148.4 150.08,148.04 149.24,147.71 148.77,146.84 148.07,146.3 147.93,146.16 147.79,146.19 147.71,146.37 147.4,147.01 147.08,147.64 146.76,148.28 146.44,148.92 146.12,149.56 145.84,150.19 145.77,150.34 145.8,150.44 145.98,150.51 146.68,150.79 147.37,151.12 148.07,151.38 148.79,151.66 149.49,151.98 150.23,152.21 150.52,152.35 150.78,152.55 150.85,152.89 151.11,155.09 151.21,157.31 151.51,159.51 151.51,159.61 151.5,159.71 151.48,159.8 151.45,160.0 151.31,160.26 151.08,160.19 150.86,160.08 150.77,159.84 150.69,159.6 150.43,158.01 150.0,156.48 149.69,154.93 149.54,154.56 149.59,153.89 149.34,153.77 148.0,153.3 146.57,152.81 145.13,152.29 144.92,152.21 144.81,152.29 144.81,152.46 144.79,153.2 144.78,154.09 144.74,154.91 144.72,155.31 144.76,155.7 144.73,156.1 144.73,156.48 144.41,156.72 144.22,157.02 143.67,158.05 143.12,159.08 142.54,160.09 142.11,160.73 141.86,161.47 141.48,162.14 141.43,162.21 141.38,162.28 141.32,162.34 141.2,162.48 141.01,162.62 140.82,162.55 z" />
		
		<path id="shapeMark" style="fill:#f00;stroke:none;"
			d="M 154.91,159.12 153.74,150.76 C 153.67,150.22 153.78,150.05 154.16,149.95 154.48,149.86 154.8,150.09 154.87,150.44 L 156.04,159.05 C 156.04,159.16 156.01,159.23 155.97,159.3 155.9,159.48 155.79,159.55 155.62,159.58 155.26,159.69 154.94,159.44 154.91,159.12 z M 158.06,135.17 C 159.26,135.82 160.38,136.63 161.38,137.56 161.84,137.96 162.25,138.42 162.67,138.86 162.12,139.73 161.09,140.27 160.06,140.21 158.99,140.17 157.98,139.5 157.51,138.54 157.03,137.6 157.14,136.4 157.76,135.54 157.85,135.41 157.95,135.29 158.06,135.17 z M 155.9,134.29 C 156.11,134.39 156.32,134.5 156.54,134.64 156.71,134.71 157.0,134.85 157.1,135.06 157.35,135.56 156.82,136.09 156.32,135.81 156.11,135.7 155.9,135.6 155.69,135.45 155.51,135.38 155.23,135.24 155.12,135.03 154.87,134.53 155.4,134.0 155.9,134.29 z M 155.01,137.72 155.72,137.58 C 155.9,137.55 156.22,137.44 156.43,137.55 156.93,137.76 156.86,138.5 156.32,138.61 L 155.62,138.79 C 155.4,138.82 155.12,138.89 154.91,138.82 154.38,138.61 154.45,137.83 155.01,137.72 z M 156.54,140.95 C 156.71,140.73 156.86,140.5 157.04,140.28 157.16,140.11 157.31,139.92 157.53,139.88 157.78,139.82 158.06,139.96 158.17,140.19 158.27,140.4 158.23,140.65 158.08,140.82 157.89,141.07 157.69,141.31 157.5,141.55 157.37,141.7 157.21,141.85 157.01,141.86 156.73,141.89 156.46,141.67 156.42,141.4 156.39,141.24 156.43,141.07 156.54,140.95 z M 159.76,142.44 159.73,141.69 C 159.73,141.51 159.69,141.19 159.83,141.02 160.12,140.52 160.86,140.73 160.86,141.3 L 160.9,142.01 C 160.9,142.22 160.93,142.54 160.79,142.72 160.51,143.18 159.76,143.0 159.76,142.44 z M 163.2,141.48 C 163.02,141.3 162.88,141.12 162.7,140.95 162.56,140.81 162.35,140.59 162.31,140.34 162.24,139.81 162.95,139.49 163.31,139.92 163.48,140.1 163.62,140.27 163.8,140.45 163.91,140.59 164.16,140.81 164.19,141.05 164.26,141.58 163.55,141.9 163.2,141.48 z" />
			
		<!-- Prism Reference -->
		<cam mingh:cam="--verb EditSelectAll --verb ZoomSelection --verb FileSave" /> 
	</g>

</svg>
