<svg
   xmlns:xlink="http://www.w3.org/1999/xlink"
   xmlns:svg="http://www.w3.org/2000/svg"
   xmlns="http://www.w3.org/2000/svg"
   xmlns:mingh="http://www.minghworld.com"
   width="300px"
   height="300px" > 
   
	<g>	
		<!-- Shape -->
		<path id="shape" style="fill:none;stroke:#000;stroke-width:0.25px;"
			d="M 150.0,129.19 C 138.5,129.19 129.19,138.5 129.19,150.0 129.19,161.5 138.5,170.81 150.0,170.81 161.5,170.81 170.81,161.5 170.81,150.0 170.81,138.5 161.5,129.19 150.0,129.19 z M 150.0,131.13 C 151.08,131.13 151.94,132.02 151.94,133.09 151.94,134.17 151.08,135.03 150.0,135.03 148.92,135.03 148.06,134.17 148.06,133.09 148.06,132.02 148.92,131.13 150.0,131.13 z M 150.51,155.88 C 149.84,156.62 149.15,157.33 148.48,158.07 148.09,158.45 147.81,159.02 147.24,159.16 145.26,159.45 143.26,159.43 141.28,159.67 141.02,159.71 140.75,159.76 140.48,159.74 140.29,159.72 140.1,159.66 139.97,159.52 139.92,159.47 139.91,159.38 139.94,159.32 140.02,159.17 140.16,159.06 140.31,159.0 140.58,158.88 140.88,158.86 141.16,158.82 142.92,158.54 144.63,158.07 146.39,157.78 147.32,156.69 148.25,155.59 149.16,154.48 149.44,155.08 149.95,155.54 150.51,155.88 z M 155.07,140.89 C 155.94,141.33 156.28,142.55 155.8,143.39 155.36,144.29 154.11,144.64 153.25,144.13 152.33,143.66 152.02,142.33 152.61,141.49 153.1,140.68 154.26,140.42 155.07,140.89 z M 155.25,163.48 C 155.22,163.7 155.18,163.93 155.08,164.13 155.01,164.26 154.92,164.41 154.79,164.49 154.73,164.53 154.64,164.53 154.58,164.48 154.47,164.38 154.41,164.23 154.37,164.09 154.31,163.87 154.35,163.64 154.4,163.42 154.7,161.56 154.76,159.68 155.04,157.82 154.09,156.95 153.1,156.11 152.01,155.43 151.38,155.01 150.57,154.72 150.24,153.98 149.91,153.25 150.27,152.48 150.46,151.77 150.84,150.24 151.12,148.68 151.52,147.15 150.46,147.26 149.4,147.37 148.35,147.53 148.17,147.98 147.97,148.42 147.77,148.86 147.54,149.34 147.35,149.84 147.16,150.33 147.09,150.53 147.01,150.73 146.86,150.87 146.74,150.98 146.54,151.04 146.41,150.91 146.24,150.69 146.3,150.4 146.37,150.16 146.66,149.32 146.82,148.44 147.03,147.58 147.21,147.05 147.19,146.26 147.86,146.09 149.27,145.85 150.67,145.54 152.07,145.26 152.77,145.05 153.56,145.08 154.18,145.5 154.84,145.9 155.18,146.74 154.94,147.48 154.37,149.46 153.5,151.34 152.9,153.31 153.75,154.12 154.58,154.95 155.43,155.77 155.76,156.14 156.17,156.42 156.49,156.8 156.84,157.39 156.55,158.08 156.38,158.68 156.0,160.28 155.56,161.87 155.25,163.48 z M 156.03,147.96 C 156.39,148.44 156.75,148.92 157.11,149.41 157.74,149.24 158.37,149.1 158.99,148.95 159.36,148.86 159.72,148.75 160.08,148.63 160.27,148.58 160.48,148.55 160.67,148.6 160.78,148.64 160.88,148.74 160.89,148.86 160.88,148.97 160.82,149.07 160.74,149.15 160.61,149.29 160.43,149.36 160.25,149.42 160.07,149.49 159.89,149.55 159.71,149.62 158.8,149.99 157.92,150.46 156.99,150.8 156.69,150.91 156.36,150.8 156.14,150.59 155.9,150.31 155.68,150.01 155.43,149.74 155.63,149.14 155.83,148.55 156.03,147.96 z" />
		
		<path id="shapeMark" style="fill:#f00;stroke:none;"
			d="M 136.52,150.12 C 139.08,150.12 141.49,150.12 143.72,150.12 143.92,150.12 144.09,150.13 144.24,150.3 144.53,150.64 144.29,151.18 143.83,151.18 141.44,151.18 139.3,151.18 137.09,151.18 136.89,151.18 136.4,151.22 136.21,151.08 135.79,150.77 136.0,150.12 136.52,150.12 z M 138.29,145.8 C 137.77,145.8 137.56,145.12 137.99,144.83 138.19,144.7 138.65,144.74 138.85,144.74 141.09,144.74 143.47,144.74 145.53,144.74 145.97,144.74 146.22,145.25 145.94,145.6 145.8,145.78 145.64,145.8 145.43,145.8 145.28,145.8 145.12,145.8 144.97,145.8 142.73,145.8 140.35,145.8 138.29,145.8 z M 137.83,161.7 C 142.87,161.7 147.38,161.7 152.11,161.7 152.28,161.7 152.43,161.67 152.59,161.74 152.77,161.81 152.86,161.92 152.91,162.11 152.99,162.44 152.73,162.76 152.39,162.76 147.64,162.76 143.41,162.76 138.98,162.76 138.83,162.76 137.9,162.78 137.75,162.76 137.1,162.66 137.17,161.7 137.83,161.7 z M 157.66,161.7 C 159.58,161.7 161.3,161.7 163.07,161.7 163.17,161.7 163.28,161.69 163.38,161.73 163.57,161.8 163.66,161.9 163.71,162.09 163.81,162.43 163.55,162.76 163.2,162.76 161.28,162.76 159.56,162.76 157.79,162.76 157.67,162.76 157.55,162.77 157.43,162.71 157.26,162.63 157.18,162.53 157.14,162.34 157.07,162.01 157.32,161.7 157.66,161.7 z M 132.53,147.43 C 136.36,147.43 139.69,147.43 143.06,147.43 143.19,147.43 143.31,147.41 143.44,147.43 144.1,147.52 144.03,148.49 143.37,148.49 139.74,148.49 136.37,148.49 133.2,148.49 133.12,148.49 132.5,148.49 132.42,148.48 131.8,148.35 131.89,147.43 132.53,147.43 z" />
			
		<!-- Prism Reference -->
		<cam mingh:cam="--verb EditSelectAll --verb ZoomSelection --verb FileSave" /> 
	</g>

</svg>
