<svg
   xmlns:xlink="http://www.w3.org/1999/xlink"
   xmlns:svg="http://www.w3.org/2000/svg"
   xmlns="http://www.w3.org/2000/svg"
   xmlns:mingh="http://www.minghworld.com"
   width="300px"
   height="300px" >
	 <g>
		<!-- Paths -->
		<path id="shape" transform="matrix(-1 0 0 1 300 0)" style="fill:#ff0;stroke:none;"
			d="M 150.0,129.19 C 138.5,129.19 129.19,138.5 129.19,150.0 129.19,161.5 138.5,170.81 150.0,170.81 161.5,170.81 170.81,161.5 170.81,150.0 170.81,138.5 161.5,129.19 150.0,129.19 z M 150.0,131.13 C 151.08,131.13 151.94,132.02 151.94,133.09 151.94,134.17 151.08,135.03 150.0,135.03 148.92,135.03 148.06,134.17 148.06,133.09 148.06,132.02 148.92,131.13 150.0,131.13 z M 151.86,153.1 C 152.25,154.61 152.31,156.17 152.54,157.71 152.67,158.34 152.58,158.99 152.39,159.6 152.14,160.85 151.72,162.06 151.51,163.32 151.49,163.46 151.47,163.6 151.43,163.74 151.38,163.94 151.31,164.15 151.15,164.29 151.04,164.39 150.85,164.38 150.76,164.25 150.61,163.97 150.66,163.65 150.7,163.35 150.83,162.51 150.9,161.65 150.97,160.8 151.19,159.24 150.9,157.68 150.61,156.16 150.57,156.01 150.55,155.85 150.53,155.7 150.54,155.52 150.4,155.29 150.2,155.4 150.05,155.53 149.97,155.72 149.84,155.87 149.61,156.2 149.38,156.53 149.15,156.86 148.57,157.74 147.93,158.58 147.27,159.41 146.2,160.82 145.03,162.13 144.01,163.57 143.84,163.81 143.65,164.04 143.37,164.15 143.3,164.18 143.21,164.17 143.15,164.12 143.04,164.01 143.03,163.85 143.07,163.71 143.14,163.43 143.32,163.19 143.48,162.95 143.59,162.78 143.71,162.62 143.82,162.45 145.23,160.13 146.55,157.75 148.0,155.45 148.4,154.73 148.97,154.08 149.24,153.3 148.91,152.26 148.44,151.25 148.06,150.22 147.81,149.41 147.28,148.6 147.45,147.72 147.66,146.86 148.6,146.4 149.43,146.53 151.42,146.29 153.4,145.94 155.41,145.8 155.58,145.78 155.76,145.77 155.93,145.74 156.06,145.72 156.18,145.57 156.1,145.45 155.94,145.28 155.73,145.18 155.55,145.05 152.29,142.91 149.04,140.78 145.79,138.64 145.67,138.58 145.58,138.49 145.46,138.43 145.39,138.39 145.29,138.36 145.22,138.41 145.1,138.55 145.0,138.71 144.89,138.86 144.81,138.97 144.74,139.08 144.66,139.19 144.57,139.3 144.48,139.41 144.36,139.44 144.24,139.46 144.08,139.4 144.01,139.29 143.94,139.17 143.95,139.01 144.02,138.91 144.38,138.4 144.75,137.89 145.11,137.38 148.81,139.81 152.51,142.24 156.21,144.67 156.81,145.06 157.58,145.36 157.34,145.97 156.9,146.44 156.17,146.43 155.58,146.65 154.13,147.17 152.62,147.51 151.12,147.88 151.0,147.93 150.87,147.93 150.75,147.98 150.62,148.06 150.65,148.24 150.7,148.36 151.13,149.93 151.5,151.51 151.86,153.1 z M 145.42,144.59 C 145.05,143.71 145.46,142.69 146.35,142.32 147.23,141.95 148.25,142.36 148.62,143.25 148.99,144.13 148.57,145.15 147.69,145.52 146.81,145.89 145.79,145.47 145.42,144.59 z" />
		<!-- Text -->
		<text id="txtTwo" dy="2.8" transform="matrix(1 0 0 1 150 150)" style="stroke:none;fill:#f00;font-family:'Eras Medium ITC';font-size:10px;text-anchor:middle" >
		</text>
		<!-- Prism Reference -->
		<cam mingh:cam="--verb EditSelectAll --verb ZoomSelection --verb FileSave"/> 
	 </g>
</svg>