<svg
   xmlns:xlink="http://www.w3.org/1999/xlink"
   xmlns:svg="http://www.w3.org/2000/svg"
   xmlns="http://www.w3.org/2000/svg"
   xmlns:mingh="http://www.minghworld.com"
   width="300px"
   height="300px" >
	
	 <g>
		<!-- Paths -->
		<path id="shape" style="stroke:#000;stroke-width:0.25px;" fill="none"
			d="M 152.38,125.75 C 152.19,125.75 152.0,125.75 151.81,125.78 C 150.4,125.98 149.19,126.94 148.69,128.28 C 148.43,128.97 148.38,129.62 148.5,130.34 C 148.53,130.52 148.47,130.69 148.34,130.81 C 148.24,130.91 148.11,130.92 147.97,130.94 C 147.74,130.96 147.36,131.16 147.09,131.0 C 146.94,130.9 146.82,130.75 146.69,130.63 C 146.57,130.51 146.44,130.44 146.31,130.34 C 146.0,130.1 146.13,130.01 146.38,129.78 C 146.67,129.5 146.59,129.45 146.53,129.09 C 146.51,128.98 146.53,128.89 146.56,128.78 C 146.59,128.7 146.63,128.59 146.63,128.5 C 146.61,128.21 145.95,128.2 145.78,128.19 C 145.4,128.16 145.03,128.19 144.66,128.28 C 144.25,128.39 143.93,128.46 143.5,128.44 C 142.81,128.41 142.57,128.31 141.88,128.44 C 141.33,128.54 140.83,128.76 140.31,128.94 C 139.79,129.12 139.32,129.15 138.78,129.03 C 138.55,128.98 138.32,128.91 138.09,128.84 C 137.92,128.79 137.78,128.73 137.59,128.75 C 137.35,128.78 137.2,129.01 137.09,129.19 C 136.95,129.43 136.83,129.66 136.59,129.84 C 136.28,130.08 135.91,130.0 135.59,130.22 C 135.19,130.49 135.02,131.08 134.94,131.5 C 134.85,131.91 134.81,132.24 134.38,132.47 C 133.96,132.69 133.51,132.73 133.09,132.91 C 132.65,133.1 132.63,133.37 132.47,133.75 C 132.29,134.16 132.13,134.14 131.78,134.31 C 131.41,134.5 131.38,134.88 131.28,135.19 C 131.15,135.6 130.87,135.8 130.56,136.03 C 130.25,136.27 129.8,136.63 129.75,137.09 C 129.72,137.37 129.79,137.63 129.81,137.91 C 129.83,138.1 129.79,138.28 129.75,138.47 C 129.71,138.63 129.7,138.8 129.72,138.97 C 129.74,139.18 129.8,139.35 129.81,139.56 C 129.83,139.8 129.74,139.97 129.63,140.16 C 129.52,140.34 129.4,140.53 129.38,140.75 C 129.32,141.24 129.38,141.25 128.97,141.56 C 128.82,141.68 128.68,141.75 128.75,141.97 C 128.82,142.19 129.0,142.39 129.06,142.63 C 129.12,142.83 129.02,142.98 128.97,143.16 C 128.93,143.3 128.9,143.42 129.0,143.56 C 129.15,143.78 129.38,143.89 129.56,144.06 C 129.8,144.29 129.86,144.59 130.03,144.84 C 130.2,145.09 130.45,145.22 130.66,145.41 C 130.87,145.6 130.93,145.81 130.94,146.09 C 130.96,146.7 130.91,146.9 131.53,147.19 C 132.06,147.43 132.56,147.66 132.97,148.13 C 133.25,148.44 133.47,148.79 133.84,149.03 C 134.34,149.34 134.57,149.09 134.94,148.81 C 135.48,148.4 136.07,148.37 136.69,148.56 C 137.21,148.73 137.59,148.96 138.19,148.78 C 138.61,148.65 138.96,148.4 139.34,148.22 C 139.79,148.0 140.25,147.89 140.75,147.88 C 141.12,147.86 141.97,147.93 142.22,148.34 C 142.33,148.54 142.32,148.74 142.38,148.94 C 142.46,149.25 142.66,149.27 142.94,149.25 C 143.25,149.23 143.54,149.15 143.84,149.09 C 144.06,149.06 144.26,149.04 144.47,149.13 C 144.77,149.25 145.15,149.69 145.28,149.97 C 145.51,150.45 145.13,150.85 145.06,151.25 C 145.02,151.49 145.05,151.73 144.97,151.97 C 144.9,152.17 144.75,152.34 144.66,152.53 C 144.56,152.71 144.58,152.83 144.69,153.0 C 144.8,153.18 144.95,153.34 145.09,153.5 C 145.43,153.88 145.69,154.28 146.03,154.66 C 146.23,154.87 146.47,155.06 146.66,155.28 C 146.82,155.48 146.88,155.68 146.84,155.94 C 146.8,156.25 146.8,156.29 147.09,156.44 C 147.48,156.63 147.59,157.14 147.63,157.5 C 147.64,157.66 147.64,157.81 147.53,157.94 C 147.46,158.02 147.36,158.08 147.31,158.19 C 147.25,158.32 147.43,158.46 147.5,158.53 C 147.65,158.68 147.8,158.81 147.84,159.03 C 147.93,159.46 147.7,159.99 147.47,160.31 C 147.14,160.77 146.89,160.86 146.78,161.47 C 146.74,161.71 146.71,161.95 146.63,162.19 C 146.53,162.46 146.42,162.72 146.44,163.03 C 146.47,163.54 146.85,164.14 147.09,164.53 C 147.39,165.03 147.65,165.57 148.0,166.03 C 148.12,166.19 148.25,166.33 148.28,166.53 C 148.32,166.76 148.23,166.97 148.22,167.19 C 148.21,167.41 148.28,167.57 148.38,167.75 C 148.48,167.95 148.57,168.15 148.59,168.38 C 148.65,168.95 148.6,169.19 148.94,169.72 C 149.14,170.03 149.42,170.26 149.59,170.59 C 149.75,170.89 149.79,171.22 150.0,171.5 C 150.19,171.75 150.46,171.93 150.56,172.28 C 150.62,172.46 150.58,172.57 150.5,172.72 C 150.43,172.85 150.32,172.95 150.38,173.13 C 150.42,173.26 150.53,173.35 150.59,173.47 C 150.66,173.58 150.69,173.73 150.75,173.84 C 150.96,174.24 151.53,174.31 151.91,174.22 C 152.34,174.11 152.71,173.82 153.19,173.78 C 153.4,173.76 153.58,173.8 153.78,173.81 C 153.99,173.83 154.18,173.78 154.38,173.72 C 154.54,173.66 154.72,173.62 154.91,173.63 C 155.05,173.63 155.2,173.66 155.34,173.63 C 155.6,173.57 155.77,173.43 155.97,173.28 C 156.31,173.03 156.69,172.78 157.03,172.53 C 157.55,172.15 157.74,171.81 158.06,171.28 C 158.19,171.07 158.33,170.88 158.56,170.75 C 158.71,170.67 158.87,170.64 159.0,170.53 C 159.19,170.38 159.15,170.09 159.16,169.91 C 159.16,169.84 159.17,169.75 159.19,169.69 C 159.2,169.65 159.21,169.63 159.22,169.59 C 159.22,169.59 159.24,169.53 159.25,169.53 C 159.28,169.51 159.29,169.47 159.31,169.44 C 159.37,169.37 159.48,169.27 159.47,169.16 C 159.46,169.06 159.41,168.99 159.38,168.91 C 159.29,168.69 159.44,168.57 159.59,168.47 C 159.8,168.34 160.05,168.28 160.28,168.25 C 160.47,168.23 160.63,168.2 160.78,168.06 C 161.09,167.78 161.14,167.37 161.16,167.0 C 161.18,166.47 161.17,166.24 160.91,165.75 C 160.74,165.44 160.72,165.19 160.97,164.91 C 161.23,164.6 161.63,164.55 161.94,164.34 C 162.19,164.17 162.26,163.94 162.38,163.69 C 162.48,163.46 162.62,163.32 162.88,163.28 C 163.15,163.24 163.4,163.24 163.66,163.09 C 164.03,162.89 164.23,162.57 164.47,162.25 C 164.61,162.06 164.76,161.89 164.84,161.66 C 164.92,161.43 164.89,161.25 164.84,161.03 C 164.77,160.7 164.77,160.43 164.81,160.09 C 164.86,159.76 164.91,159.47 164.81,159.13 C 164.77,158.97 164.71,158.83 164.63,158.69 C 164.42,158.33 164.13,158.04 164.13,157.56 C 164.12,157.34 164.21,157.14 164.28,156.94 C 164.33,156.8 164.37,156.64 164.25,156.5 C 164.1,156.33 163.99,156.34 163.97,156.06 C 163.95,155.79 164.01,155.4 164.16,155.16 C 164.29,154.93 164.49,154.78 164.63,154.56 C 164.72,154.42 164.73,154.26 164.75,154.09 C 164.76,153.98 164.79,153.87 164.88,153.78 C 165.03,153.62 165.23,153.6 165.41,153.5 C 165.64,153.37 165.72,153.2 165.81,152.97 C 165.86,152.85 165.89,152.74 165.94,152.63 C 166.01,152.46 166.13,152.32 166.25,152.19 C 166.53,151.9 166.87,151.7 167.19,151.47 C 167.5,151.24 167.74,151.0 168.0,150.72 C 168.46,150.23 168.91,149.7 169.34,149.19 C 169.77,148.68 169.92,148.47 170.06,147.81 C 170.24,147.01 170.4,146.88 170.78,146.19 C 170.99,145.82 171.11,145.46 171.13,145.03 C 171.14,144.59 171.19,144.5 171.25,144.06 C 171.27,143.95 171.36,143.54 171.16,143.5 C 170.97,143.46 170.23,143.88 170.09,143.94 C 169.71,144.09 169.29,144.01 168.91,144.16 C 168.73,144.22 168.57,144.34 168.41,144.44 C 168.23,144.54 168.07,144.6 167.88,144.66 C 167.54,144.75 166.98,144.82 166.66,144.59 C 166.4,144.42 166.32,144.16 166.44,143.88 C 166.48,143.78 166.53,143.71 166.47,143.59 C 166.39,143.45 166.12,143.32 166.0,143.25 C 165.78,143.12 165.64,142.94 165.47,142.75 C 165.3,142.57 165.12,142.46 164.91,142.34 C 164.46,142.12 164.04,141.91 163.78,141.44 C 163.56,141.03 163.52,140.57 163.22,140.19 C 163.08,140.01 162.91,139.89 162.72,139.78 C 162.55,139.69 162.37,139.64 162.25,139.47 C 162.12,139.28 162.13,138.98 162.13,138.78 C 162.12,138.55 162.11,138.33 162.06,138.09 C 161.93,137.48 161.46,137.45 161.19,137.0 C 161.12,136.89 160.89,136.28 160.84,136.16 C 160.62,135.62 160.36,135.15 159.94,134.75 C 159.82,134.64 159.54,134.42 159.53,134.22 C 159.53,134.09 159.59,134.05 159.66,133.97 C 159.76,133.85 159.89,133.71 159.97,133.56 C 160.06,133.39 160.1,133.23 160.09,133.03 C 160.08,132.78 159.87,132.16 159.69,131.97 C 159.56,131.83 159.44,131.86 159.28,131.91 C 159.08,131.97 158.91,132.02 158.69,131.94 C 158.5,131.86 158.11,131.53 157.88,131.53 C 157.66,131.53 157.4,131.77 157.25,131.88 C 157.06,132.0 156.89,132.06 156.66,132.06 C 156.56,132.06 156.44,132.05 156.34,132.03 C 156.22,132.01 156.1,132.0 156.0,131.91 C 155.83,131.75 155.78,131.49 155.88,131.28 C 157.09,128.66 155.14,125.75 152.38,125.75 z M 152.34,127.69 C 152.6,127.69 152.86,127.75 153.09,127.84 C 153.33,127.94 153.54,128.07 153.72,128.25 C 153.9,128.43 154.03,128.67 154.13,128.91 C 154.22,129.14 154.28,129.4 154.28,129.66 C 154.28,129.91 154.22,130.14 154.13,130.38 C 154.03,130.61 153.9,130.85 153.72,131.03 C 153.54,131.21 153.33,131.34 153.09,131.44 C 152.86,131.54 152.6,131.59 152.34,131.59 C 152.09,131.59 151.83,131.54 151.59,131.44 C 151.36,131.34 151.15,131.21 150.97,131.03 C 150.79,130.85 150.63,130.61 150.53,130.38 C 150.43,130.14 150.41,129.91 150.41,129.66 C 150.41,129.4 150.43,129.14 150.53,128.91 C 150.63,128.67 150.79,128.43 150.97,128.25 C 151.15,128.07 151.36,127.94 151.59,127.84 C 151.83,127.75 152.09,127.69 152.34,127.69 z" />
		 
		<text id="txt" style="fill:#F00;stroke:none;font-family:z_swan;font-size:15px;text-anchor:middle" transform="matrix(0.96 0.29 -0.29 0.96 150 147)"  />
		 
		<!-- Prism Reference -->
		<cam mingh:cam="--verb EditSelectAll --verb SelectionUngroup --verb EditSelectAll --verb ObjectToPath --verb EditSelectAll --verb SelectionGroup --verb ZoomSelection --verb FileSave"  /> 
	 </g>

</svg>
