<svg
   xmlns:xlink="http://www.w3.org/1999/xlink"
   xmlns:svg="http://www.w3.org/2000/svg"
   xmlns="http://www.w3.org/2000/svg"
   xmlns:mingh="http://www.minghworld.com"
   width="300px"
   height="300px" >
	
	 <g>
		
		<!-- Paths -->
		<path style="stroke:#000;stroke-width:0.25px;" fill="none"
			d="M 149.94,123.22 C 148.48,123.32 147.12,124.24 146.53,125.59 145.82,127.12 146.2,129.07 147.44,130.22 146.79,130.09 146.12,129.95 145.47,129.81 144.92,129.72 144.37,129.49 143.81,129.63 143.33,129.75 143.06,130.22 142.91,130.66 138.35,142.13 133.78,153.59 129.22,165.06 129.09,165.39 128.97,165.71 128.84,166.03 128.78,166.26 128.6,166.47 128.66,166.72 128.87,167.22 129.19,167.68 129.5,168.13 130.01,168.84 130.53,169.55 131.09,170.22 131.86,171.13 132.58,172.2 133.69,172.72 140.47,174.03 147.22,175.37 154.0,176.69 154.21,176.73 154.44,176.76 154.66,176.78 155.38,176.87 156.11,176.6 156.63,176.09 156.93,175.82 157.1,175.43 157.25,175.06 161.75,164.43 166.22,153.78 170.72,143.16 171.05,142.48 171.37,141.8 171.34,141.03 171.37,139.54 170.22,138.51 169.31,137.47 168.14,136.12 166.84,134.69 165.09,134.13 160.6,133.07 156.08,132.14 151.56,131.13 152.0,130.98 152.42,130.76 152.78,130.47 154.04,129.51 154.59,127.77 154.19,126.25 153.79,124.61 152.28,123.34 150.59,123.22 150.38,123.2 150.15,123.2 149.94,123.22 z M 150.16,125.31 C 151.06,125.28 151.9,125.9 152.13,126.81 152.38,127.86 151.73,128.9 150.69,129.16 149.64,129.41 148.6,128.77 148.34,127.72 148.09,126.67 148.73,125.63 149.78,125.38 149.91,125.34 150.03,125.32 150.16,125.31 z" />
		 
		<path style="fill:#f00;stroke:none;"
			d="M 137.88,146.64 C 137.69,146.71 137.59,146.9 137.51,147.07 L 136.81,148.9 C 137.57,149.93 138.43,150.99 139.4,152.08 139.7,151.41 140.11,150.57 140.22,149.79 140.29,149.39 140.14,149.0 139.95,148.65 139.79,148.4 139.64,148.13 139.37,148.0 139.17,147.91 138.93,148.05 138.82,148.22 138.89,147.76 138.75,147.27 138.45,146.92 138.32,146.76 138.1,146.58 137.88,146.64 z M 138.0,147.97 C 138.06,147.93 138.14,147.98 138.18,148.03 138.31,148.17 138.35,148.37 138.3,148.56 138.24,148.75 138.16,148.92 138.09,149.11 137.95,148.94 137.83,148.79 137.69,148.62 137.75,148.48 137.79,148.33 137.85,148.18 137.88,148.11 137.92,148.02 138.0,147.97 z M 139.03,149.11 C 139.08,149.11 139.15,149.1 139.19,149.14 139.36,149.29 139.42,149.54 139.37,149.76 139.3,149.97 139.2,150.18 139.12,150.38 138.97,150.19 138.79,150.01 138.64,149.82 L 138.67,149.79 C 138.75,149.59 138.81,149.39 138.91,149.2 138.94,149.15 138.98,149.12 139.03,149.11 z M 144.76,136.33 C 144.99,136.59 145.22,136.84 145.46,137.1 145.11,137.96 144.77,138.82 144.42,139.68 143.44,138.63 142.56,137.55 141.73,136.48 142.07,135.63 142.41,134.77 142.76,133.91 142.93,134.15 143.12,134.39 143.32,134.63 143.11,135.13 142.91,135.63 142.71,136.13 142.83,136.28 142.96,136.43 143.08,136.58 143.24,136.18 143.4,135.78 143.56,135.38 143.76,135.62 143.97,135.87 144.18,136.11 144.02,136.51 143.86,136.91 143.7,137.31 143.84,137.48 144.0,137.67 144.16,137.84 144.36,137.34 144.56,136.84 144.76,136.33 z M 143.41,139.61 C 143.64,139.88 143.88,140.14 144.13,140.41 143.81,141.21 143.49,142.01 143.16,142.81 142.18,141.76 141.31,140.67 140.49,139.6 140.63,139.24 140.77,138.89 140.91,138.53 141.5,139.31 142.17,140.12 142.88,140.94 143.06,140.5 143.24,140.06 143.41,139.61 z M 140.13,140.97 C 139.93,141.04 139.83,141.24 139.75,141.41 L 139.03,143.25 C 139.81,144.29 140.69,145.37 141.69,146.47 142.0,145.79 142.42,144.94 142.53,144.16 142.6,143.75 142.45,143.35 142.25,143.0 142.09,142.75 141.94,142.47 141.66,142.34 141.45,142.25 141.21,142.39 141.09,142.56 141.17,142.1 141.03,141.6 140.72,141.25 140.58,141.09 140.35,140.91 140.13,140.97 z M 140.25,142.31 C 140.31,142.27 140.39,142.33 140.44,142.38 140.57,142.52 140.61,142.72 140.56,142.91 140.5,143.1 140.42,143.28 140.34,143.47 140.2,143.29 140.07,143.14 139.94,142.97 140.0,142.82 140.04,142.67 140.09,142.53 140.13,142.45 140.17,142.36 140.25,142.31 z M 141.31,143.47 C 141.37,143.46 141.43,143.46 141.47,143.5 141.64,143.65 141.71,143.91 141.66,144.13 141.59,144.34 141.48,144.54 141.41,144.75 141.24,144.56 141.06,144.37 140.91,144.19 L 140.94,144.16 C 141.02,143.95 141.08,143.75 141.19,143.56 141.21,143.51 141.26,143.47 141.31,143.47 z M 138.66,144.18 C 139.51,145.34 140.44,146.41 141.32,147.41 141.17,147.76 141.03,148.12 140.89,148.48 139.91,147.42 139.05,146.32 138.23,145.25 138.38,144.89 138.52,144.53 138.66,144.18 z M 167.87,136.19 C 168.58,137.0 169.33,137.81 170.02,138.62 168.51,138.68 167.07,138.15 165.6,137.9 160.24,136.77 154.88,135.64 149.54,134.45 148.29,134.0 147.43,132.91 146.65,131.89 146.26,131.3 146.42,131.11 147.12,131.24 152.86,132.52 158.63,133.74 164.36,135.1 165.54,135.4 166.72,135.74 167.87,136.19 z M 136.53,156.77 C 136.75,157.04 136.98,157.31 137.23,157.58 136.9,158.38 136.58,159.19 136.26,159.99 135.31,158.91 134.46,157.8 133.66,156.71 133.8,156.35 133.95,156.0 134.09,155.64 134.65,156.44 135.31,157.26 135.99,158.1 136.17,157.66 136.35,157.21 136.53,156.77 z M 133.38,158.34 C 133.22,158.36 133.07,158.44 132.97,158.56 132.69,158.88 132.58,159.28 132.5,159.69 132.35,160.69 132.69,161.73 133.34,162.5 133.64,162.84 134.02,163.21 134.5,163.19 134.9,163.17 135.18,162.82 135.31,162.47 135.4,162.25 135.45,162.04 135.47,161.81 135.51,161.03 135.28,160.23 134.88,159.56 134.6,159.13 134.29,158.69 133.84,158.44 133.71,158.36 133.53,158.33 133.38,158.34 z M 133.44,159.66 C 133.61,159.72 133.75,159.87 133.88,160.0 134.12,160.29 134.34,160.6 134.53,160.94 134.66,161.17 134.76,161.46 134.66,161.72 134.62,161.82 134.52,161.91 134.41,161.88 134.22,161.83 134.1,161.69 133.97,161.56 133.71,161.27 133.45,160.95 133.28,160.59 133.17,160.35 133.08,160.04 133.19,159.78 133.22,159.68 133.33,159.62 133.44,159.66 z M 131.72,161.57 C 132.54,162.75 133.45,163.85 134.3,164.86 134.15,165.22 134.01,165.58 133.87,165.94 133.48,165.49 133.13,165.06 132.78,164.62 132.68,164.88 132.58,165.13 132.47,165.39 132.82,165.83 133.17,166.26 133.56,166.7 133.41,167.06 133.27,167.42 133.13,167.78 132.19,166.69 131.35,165.57 130.56,164.47 130.71,164.12 130.85,163.76 130.99,163.4 131.25,163.79 131.55,164.18 131.85,164.58 131.95,164.32 132.05,164.07 132.15,163.81 131.85,163.42 131.56,163.02 131.3,162.64 131.44,162.28 131.58,161.92 131.72,161.57 z M 136.04,150.73 C 136.34,151.69 136.69,152.67 137.06,153.65 137.44,154.11 137.83,154.57 138.25,155.04 138.1,155.4 137.96,155.76 137.81,156.12 137.39,155.65 137.01,155.19 136.63,154.72 135.97,154.48 135.32,154.23 134.74,154.01 134.89,153.62 135.05,153.24 135.2,152.85 135.53,152.99 135.88,153.14 136.24,153.28 136.04,152.74 135.85,152.19 135.68,151.65 135.8,151.35 135.92,151.04 136.04,150.73 z M 147.69,136.95 C 147.82,136.62 147.79,136.31 147.66,135.98 147.49,135.57 147.16,135.32 146.89,135.01 145.47,133.42 143.97,131.92 143.3,130.51 143.42,130.24 143.54,130.1 143.67,130.01 144.31,131.07 145.08,131.94 145.88,132.88 146.44,133.52 147.07,134.15 147.71,134.71 148.03,135.0 148.38,135.3 148.81,135.39 149.2,135.48 149.6,135.56 150.0,135.65 155.98,136.94 161.97,138.25 167.96,139.54 168.89,139.73 169.85,139.89 170.8,139.79 171.06,140.31 171.12,140.91 171.07,141.48 170.99,142.07 170.69,142.59 170.47,143.13 170.52,141.67 169.94,140.89 168.82,140.6 162.97,139.25 156.73,137.95 151.35,136.79 150.83,136.68 150.29,136.49 149.76,136.62 149.2,136.76 148.71,137.17 148.5,137.72 L 135.04,171.11 C 134.71,171.88 135.49,172.62 136.01,172.89 135.29,172.75 134.6,172.59 133.88,172.43 133.58,172.39 133.35,172.17 133.12,171.99 132.8,171.7 132.47,171.42 132.18,171.1 132.52,171.31 132.84,171.48 133.23,171.45 133.52,171.43 133.72,171.27 133.88,171.05 134.03,170.86 134.1,170.66 134.19,170.45 138.92,158.67 147.69,136.95 147.69,136.95 z M 150.25,137.69 C 149.91,137.73 149.57,137.94 149.41,138.25 145.05,148.98 140.72,159.73 136.38,170.47 136.3,170.65 136.3,170.85 136.38,171.03 136.46,171.23 136.61,171.38 136.81,171.44 142.73,172.6 148.65,173.75 154.56,174.91 154.66,174.93 154.77,174.92 154.88,174.91 155.25,174.86 155.6,174.63 155.75,174.28 160.21,163.72 164.67,153.13 169.13,142.56 169.2,142.38 169.2,142.18 169.13,142.0 169.04,141.8 168.86,141.65 168.66,141.59 162.63,140.29 156.62,139.02 150.59,137.72 150.48,137.69 150.36,137.67 150.25,137.69 z M 150.19,138.41 C 150.89,138.56 151.58,138.69 152.28,138.84 151.84,139.0 151.46,139.48 151.5,139.97 151.57,140.38 152.12,140.52 152.44,140.28 152.68,140.16 152.61,139.88 152.59,139.66 152.6,139.37 152.89,139.2 153.16,139.19 153.81,139.15 154.47,139.31 155.09,139.5 156.09,139.84 157.12,139.99 158.16,140.13 157.6,140.07 156.95,140.04 156.28,140.03 155.53,140.02 154.79,140.0 154.19,140.09 153.23,140.24 152.59,140.62 151.97,141.69 150.72,141.59 150.07,141.9 149.41,142.59 148.99,143.03 148.56,143.6 148.16,144.22 147.79,144.77 147.45,145.33 147.19,145.81 147.44,145.31 147.71,144.8 147.94,144.28 148.24,143.64 148.38,142.97 148.63,142.31 148.8,141.9 148.99,141.44 149.31,141.13 149.51,140.93 149.84,140.96 150.03,141.16 150.18,141.32 150.44,141.33 150.63,141.22 150.97,141.06 151.08,140.51 150.75,140.28 150.35,140.02 149.79,140.07 149.41,140.34 L 150.19,138.41 z M 159.28,140.34 C 159.64,141.26 160.06,142.11 160.53,142.91 160.34,142.81 160.12,142.74 159.88,142.75 159.57,142.77 159.26,142.91 158.97,143.13 158.77,143.27 158.58,143.44 158.53,143.63 158.48,143.81 158.57,143.99 158.75,144.06 158.92,144.13 159.16,144.11 159.34,144.0 159.53,143.88 159.67,143.68 159.84,143.59 160.06,143.48 160.35,143.54 160.59,143.66 161.1,143.91 161.4,144.38 161.75,144.81 162.37,145.57 163.18,146.21 163.91,146.84 162.94,146.31 161.93,145.78 160.91,145.38 159.81,144.94 158.68,144.64 157.13,145.56 156.52,144.19 155.38,144.0 154.13,143.94 152.95,143.88 151.69,143.92 150.47,144.0 151.56,143.75 152.74,143.55 153.84,143.16 154.47,142.93 155.07,142.64 155.69,142.63 155.98,142.62 156.28,142.66 156.38,142.84 156.45,142.98 156.4,143.2 156.47,143.38 156.54,143.54 156.71,143.68 156.91,143.69 157.11,143.69 157.34,143.55 157.44,143.38 157.54,143.2 157.52,142.98 157.47,142.78 157.39,142.49 157.21,142.26 156.97,142.13 156.78,142.02 156.55,141.99 156.31,142.0 157.31,141.52 158.28,140.97 159.28,140.34 z M 160.41,140.59 C 160.95,140.76 161.48,140.93 162.03,141.06 162.79,141.27 163.57,141.3 164.34,141.47 164.71,141.56 165.11,141.63 165.41,141.88 165.63,142.05 165.5,142.36 165.31,142.5 165.12,142.63 164.97,142.92 165.16,143.13 165.38,143.37 165.77,143.33 166.03,143.16 166.42,142.88 166.6,142.27 166.28,141.88 L 168.38,142.31 C 168.1,142.96 167.83,143.61 167.56,144.25 167.52,144.13 167.44,144.0 167.34,143.91 167.0,143.61 166.42,143.56 166.06,143.88 165.86,144.04 165.74,144.38 165.97,144.59 166.17,144.8 166.45,144.61 166.69,144.63 166.95,144.61 167.12,144.88 167.06,145.13 166.97,145.75 166.7,146.32 166.41,146.88 165.91,147.74 165.58,148.68 165.28,149.63 165.42,149.12 165.58,148.53 165.69,147.94 165.81,147.27 165.89,146.61 165.88,146.09 165.84,145.26 165.53,144.76 164.41,144.34 164.69,143.21 164.44,142.66 163.75,142.16 163.32,141.84 162.7,141.56 162.06,141.28 161.49,141.03 160.91,140.77 160.41,140.59 z M 149.53,144.19 C 150.32,146.59 151.12,148.98 151.91,151.38 150.71,149.16 149.52,146.95 148.31,144.72 148.73,144.54 149.12,144.36 149.53,144.19 z M 152.66,144.69 C 152.62,146.12 152.57,147.54 152.53,148.97 152.25,147.63 151.94,146.28 151.66,144.94 151.98,144.86 152.33,144.77 152.66,144.69 z M 156.66,146.06 C 156.74,146.06 156.82,146.08 156.91,146.09 157.29,146.16 157.66,146.43 157.78,146.81 157.91,147.21 157.74,147.63 157.47,147.94 157.73,147.99 157.99,148.13 158.16,148.34 158.39,148.63 158.42,149.07 158.28,149.41 158.0,150.08 157.21,150.49 156.5,150.34 155.89,151.83 155.4,153.0 155.03,153.88 155.79,154.03 156.82,154.24 158.09,154.5 158.28,153.92 158.85,153.54 159.44,153.47 159.85,153.42 160.33,153.53 160.59,153.88 160.83,154.17 160.84,154.66 160.69,155.0 161.01,154.96 161.33,155.0 161.59,155.19 161.88,155.38 162.06,155.75 162.03,156.09 161.99,156.59 161.62,157.0 161.19,157.22 160.74,157.45 160.18,157.49 159.75,157.22 159.51,157.8 158.9,158.18 158.28,158.19 157.88,158.2 157.43,158.0 157.22,157.66 157.01,157.34 157.04,156.92 157.22,156.59 155.94,156.33 154.92,156.13 154.16,155.97 153.21,158.24 152.12,160.94 150.81,164.09 151.08,164.15 151.31,164.28 151.47,164.5 151.7,164.79 151.74,165.23 151.59,165.56 151.31,166.23 150.52,166.64 149.81,166.5 149.79,166.61 149.78,166.78 149.72,166.91 149.45,167.59 148.66,168.01 147.94,167.88 147.57,167.81 147.24,167.52 147.13,167.16 147.0,166.75 147.13,166.31 147.41,166.0 147.14,165.96 146.89,165.83 146.72,165.63 146.47,165.34 146.43,164.94 146.56,164.59 146.83,163.9 147.62,163.48 148.34,163.63 149.64,160.47 150.78,157.75 151.72,155.47 150.96,155.31 149.93,155.11 148.66,154.84 148.47,155.42 147.93,155.8 147.34,155.88 146.93,155.93 146.46,155.84 146.19,155.5 145.94,155.2 145.91,154.76 146.06,154.41 145.71,154.45 145.34,154.36 145.06,154.13 144.81,153.91 144.68,153.58 144.72,153.25 144.77,152.77 145.09,152.38 145.5,152.16 145.95,151.92 146.53,151.88 146.97,152.16 147.19,151.56 147.84,151.16 148.47,151.16 148.87,151.15 149.28,151.31 149.5,151.66 149.71,151.98 149.71,152.42 149.53,152.75 150.81,153.01 151.8,153.22 152.56,153.38 152.93,152.49 153.42,151.3 154.03,149.81 153.78,149.76 153.54,149.64 153.38,149.44 153.13,149.15 153.08,148.75 153.22,148.41 153.48,147.71 154.31,147.29 155.03,147.44 155.03,147.44 155.06,147.17 155.13,147.06 155.32,146.54 155.84,146.19 156.38,146.09 156.46,146.08 156.57,146.06 156.66,146.06 z M 161.56,146.56 C 161.78,146.76 161.97,146.96 162.19,147.16 160.92,148.17 159.67,149.2 158.41,150.22 159.45,149.01 160.51,147.77 161.56,146.56 z M 147.72,146.66 C 148.45,147.81 149.17,148.97 149.91,150.13 148.89,149.16 147.86,148.19 146.84,147.22 147.13,147.04 147.43,146.84 147.72,146.66 z M 164.56,147.34 C 164.78,147.65 165.01,147.97 165.22,148.28 162.52,149.67 159.81,151.07 157.13,152.47 159.6,150.76 162.08,149.04 164.56,147.34 z M 164.22,150.13 C 164.32,150.39 164.43,150.65 164.53,150.91 162.94,151.32 161.34,151.77 159.75,152.19 161.24,151.5 162.73,150.8 164.22,150.13 z M 150.19,157.22 C 147.24,159.34 144.31,161.45 141.38,163.59 141.17,163.3 140.95,163.01 140.75,162.72 143.89,160.87 147.03,159.05 150.19,157.22 z M 147.34,157.53 C 145.64,158.29 143.95,159.05 142.25,159.81 142.2,159.6 142.14,159.4 142.09,159.19 143.84,158.64 145.59,158.08 147.34,157.53 z M 154.13,158.03 C 155.4,160.76 156.65,163.45 157.91,166.16 157.51,166.33 157.11,166.52 156.72,166.69 155.86,163.81 155.0,160.93 154.13,158.03 z M 156.25,159.38 C 157.32,160.49 158.41,161.61 159.47,162.72 159.27,162.88 159.05,163.03 158.84,163.19 157.98,161.92 157.11,160.65 156.25,159.38 z M 148.88,159.66 C 147.45,161.37 146.02,163.06 144.59,164.78 144.34,164.61 144.09,164.46 143.84,164.28 145.52,162.74 147.19,161.19 148.88,159.66 z M 153.38,160.56 C 153.63,162.49 153.88,164.4 154.13,166.31 153.78,166.37 153.44,166.41 153.09,166.47 153.19,164.5 153.28,162.54 153.38,160.56 z M 140.09,163.28 C 139.96,163.79 139.86,164.4 139.75,165.0 139.63,165.67 139.51,166.35 139.53,166.88 139.56,167.71 139.9,168.2 141.0,168.59 140.72,169.73 140.98,170.26 141.66,170.75 142.08,171.05 142.66,171.36 143.28,171.63 143.84,171.86 144.44,172.09 144.94,172.25 144.41,172.1 143.88,171.93 143.34,171.81 142.59,171.62 141.79,171.62 141.03,171.47 140.67,171.38 140.29,171.33 140.0,171.09 139.78,170.92 139.91,170.58 140.09,170.44 140.29,170.3 140.44,170.05 140.25,169.84 140.02,169.59 139.62,169.65 139.38,169.84 139.01,170.14 138.85,170.74 139.16,171.13 138.47,170.99 137.78,170.85 137.09,170.72 137.36,170.07 137.61,169.4 137.88,168.75 137.91,168.86 137.98,168.98 138.06,169.06 138.39,169.38 138.99,169.44 139.34,169.13 139.56,168.96 139.7,168.59 139.47,168.38 139.28,168.19 139.0,168.33 138.78,168.34 138.52,168.39 138.33,168.16 138.38,167.91 138.45,167.27 138.75,166.69 139.03,166.13 139.52,165.23 139.8,164.25 140.09,163.28 z M 158.03,166.88 C 157.8,167.32 157.56,167.77 157.34,168.22 157.06,168.8 156.89,169.42 156.69,170.03 156.51,170.53 156.29,171.03 155.94,171.44 155.76,171.65 155.41,171.73 155.19,171.53 155.03,171.35 154.8,171.3 154.59,171.44 154.25,171.59 154.11,172.11 154.44,172.34 154.84,172.6 155.37,172.55 155.75,172.28 155.48,172.92 155.24,173.54 154.97,174.19 154.28,174.05 153.59,173.95 152.91,173.81 153.35,173.65 153.72,173.18 153.69,172.69 153.62,172.28 153.08,172.17 152.78,172.41 152.54,172.53 152.58,172.78 152.59,173.0 152.58,173.29 152.3,173.49 152.03,173.5 151.39,173.55 150.77,173.4 150.16,173.22 149.18,172.9 148.14,172.77 147.13,172.66 147.67,172.7 148.34,172.72 149.0,172.72 149.74,172.72 150.44,172.7 151.03,172.59 151.98,172.43 152.62,172.06 153.25,171.0 154.49,171.07 155.15,170.79 155.81,170.09 156.23,169.66 156.62,169.08 157.03,168.47 157.4,167.93 157.76,167.35 158.03,166.88 z M 141.13,166.97 C 142.09,167.45 143.1,167.91 144.13,168.28 145.22,168.67 146.31,168.97 147.78,168.19 148.43,169.39 149.59,169.56 150.81,169.63 151.96,169.69 153.19,169.64 154.38,169.59 153.28,169.81 152.16,169.98 151.09,170.31 150.4,170.53 149.68,170.87 148.94,170.72 148.66,170.69 148.58,170.38 148.56,170.16 148.47,169.8 147.98,169.7 147.72,169.94 147.46,170.12 147.53,170.48 147.66,170.72 147.85,171.13 148.32,171.3 148.75,171.28 147.8,171.69 146.88,172.15 145.94,172.69 145.55,171.89 145.09,171.16 144.59,170.47 144.97,170.65 145.43,170.64 145.81,170.47 146.08,170.34 146.37,170.19 146.5,169.91 146.63,169.57 146.22,169.34 145.94,169.44 145.6,169.48 145.43,169.86 145.09,169.91 144.53,169.93 144.08,169.58 143.72,169.19 142.98,168.32 142.03,167.65 141.13,166.97 z" />

		<!-- Prism Reference -->
		<cam mingh:cam="--verb EditSelectAll --verb ZoomSelection --verb FileSave" /> 
	 </g>

</svg>
