<svg
   xmlns:xlink="http://www.w3.org/1999/xlink"
   xmlns:svg="http://www.w3.org/2000/svg"
   xmlns="http://www.w3.org/2000/svg"
   xmlns:mingh="http://www.minghworld.com"
   width="300px"
   height="300px" >
	
	 <g>
		<!-- Paths -->
		<path transform="matrix(-1 0 0 1 300 0)" style="fill:#b4b4b4;stroke:none;"
			d="M 150.0,129.25 C 138.54,129.25 129.25,138.54 129.25,150.0 129.25,161.46 138.54,170.75 150.0,170.75 161.46,170.75 170.75,161.46 170.75,150.0 170.75,138.54 161.46,129.25 150.0,129.25 z M 150.0,131.16 C 151.01,131.16 151.84,131.99 151.84,133.0 151.84,134.01 151.01,134.81 150.0,134.81 148.99,134.81 148.16,134.01 148.16,133.0 148.16,131.99 148.99,131.16 150.0,131.16 z M 137.59,142.38 C 137.82,142.38 137.88,142.41 137.88,142.47 137.99,142.93 138.27,143.33 138.75,143.47 139.64,143.65 140.56,143.71 141.47,143.78 142.28,143.85 143.15,144.07 143.63,144.78 144.26,145.72 144.41,146.92 144.5,148.03 144.63,149.56 144.54,151.05 144.19,152.53 143.9,153.74 142.96,154.9 141.84,155.56 141.57,155.27 141.38,154.92 141.22,154.56 141.41,154.39 141.61,154.22 141.78,154.03 142.31,153.56 142.59,152.89 142.66,152.19 142.7,151.54 142.82,150.77 142.34,150.25 142.07,150.0 141.63,149.99 141.28,149.91 140.02,149.74 138.57,149.66 137.66,148.78 136.89,148.05 136.56,146.88 136.56,145.81 136.64,144.67 136.83,143.49 137.31,142.44 137.34,142.41 137.43,142.38 137.59,142.38 z M 149.47,142.5 C 149.6,142.5 149.74,142.5 149.88,142.53 149.91,142.54 149.97,142.58 149.97,142.63 150.07,143.1 150.37,143.62 150.91,143.66 153.66,143.74 156.4,143.68 159.16,143.72 159.99,143.8 160.98,143.54 161.66,144.19 162.37,145.1 162.21,146.32 162.22,147.41 162.29,148.52 161.48,149.35 160.88,150.19 160.11,151.15 160.11,152.44 160.25,153.59 160.52,155.12 161.01,156.65 160.97,158.22 161.05,160.01 159.79,161.61 158.19,162.28 158.04,162.15 157.92,162.01 157.81,161.84 157.77,161.79 157.71,161.72 157.75,161.66 157.94,161.15 157.94,160.57 157.97,160.03 157.96,157.72 157.64,155.42 158.03,153.13 158.2,151.94 158.67,150.8 159.34,149.81 157.25,149.77 155.16,149.79 153.06,149.78 152.55,150.38 152.21,151.1 152.06,151.88 151.85,153.21 151.99,154.57 152.09,155.91 152.15,157.22 152.33,158.6 151.81,159.84 151.31,161.04 150.24,162.0 148.97,162.28 148.77,162.14 148.63,161.93 148.47,161.75 148.73,161.38 148.93,160.95 149.0,160.5 149.09,158.52 148.92,156.5 149.19,154.53 149.4,153.06 149.74,151.54 150.63,150.31 150.72,150.19 150.94,149.97 150.94,149.97 151.0,149.91 151.07,149.81 150.75,149.72 150.41,149.63 150.1,149.5 149.81,149.31 149.2,148.95 148.76,148.34 148.56,147.66 148.17,145.91 148.5,144.0 149.47,142.5 z" />

		<text id="txt" transform="matrix(1 0 0 1 150 160)" style="stroke:none;fill:#f00;font-family:'Eras Medium ITC';font-size:20px;text-anchor:middle"  ></text>
		
		<!-- Prism Reference -->
		<cam mingh:cam="--verb EditSelectAll --verb ZoomSelection --verb FileSave"/> 
	 </g>

</svg>