<svg
   xmlns:xlink="http://www.w3.org/1999/xlink"
   xmlns:svg="http://www.w3.org/2000/svg"
   xmlns="http://www.w3.org/2000/svg"
   xmlns:mingh="http://www.minghworld.com"
   width="300px"
   height="300px" >
	
	 <g>
		
		<!-- Paths -->
		<path transform="matrix(-1 0 0 1 300 0)" style="fill:#b4b4b4;stroke:none;"
			d="M 150.0,129.25 C 138.54,129.25 129.25,138.54 129.25,150.0 129.25,161.46 138.54,170.75 150.0,170.75 161.46,170.75 170.75,161.46 170.75,150.0 170.75,138.54 161.46,129.25 150.0,129.25 z M 150.0,131.16 C 151.01,131.16 151.84,131.99 151.84,133.0 151.84,134.01 151.01,134.81 150.0,134.81 148.99,134.81 148.16,134.01 148.16,133.0 148.16,131.99 148.99,131.16 150.0,131.16 z M 150.03,139.03 C 150.11,139.04 150.2,139.08 150.28,139.13 150.45,139.21 150.51,139.35 150.59,139.5 151.29,140.7 152.08,141.87 152.94,142.97 153.01,143.06 153.05,143.14 153.13,143.22 153.19,143.3 153.22,143.4 153.19,143.5 153.16,143.6 153.1,143.7 153.0,143.72 152.85,143.74 152.68,143.72 152.53,143.72 L 151.81,143.72 C 151.51,143.72 151.21,143.73 150.91,143.72 150.7,143.71 150.48,143.58 150.38,143.41 150.25,143.18 150.14,142.95 150.0,142.72 148.57,145.0 147.27,147.39 146.16,149.84 146.09,150.0 146.04,150.16 145.97,150.31 145.9,150.47 145.86,150.68 145.63,150.69 145.42,150.7 145.34,150.58 145.25,150.44 145.16,150.29 145.09,150.14 145.0,150.0 144.82,149.71 144.64,149.41 144.47,149.13 144.25,148.76 144.14,148.6 144.38,148.19 145.72,145.84 147.06,143.5 148.41,141.16 148.74,140.57 149.1,139.99 149.44,139.41 149.53,139.25 149.6,139.16 149.78,139.09 149.87,139.06 149.95,139.03 150.03,139.03 z M 143.88,145.0 C 143.95,145.01 144.02,145.06 144.06,145.13 144.17,145.25 144.11,145.41 144.03,145.53 143.73,146.06 143.43,146.6 143.13,147.13 143.03,147.32 142.84,147.48 142.63,147.5 142.34,147.51 142.04,147.49 141.75,147.5 143.09,150.03 144.63,152.47 146.31,154.78 146.42,154.92 146.58,155.04 146.47,155.25 146.38,155.43 146.23,155.43 146.06,155.44 145.56,155.45 145.04,155.46 144.53,155.47 144.11,155.48 143.93,155.51 143.69,155.09 142.33,152.76 140.98,150.4 139.63,148.06 139.29,147.48 138.93,146.93 138.59,146.34 138.51,146.21 138.47,146.04 138.5,145.88 138.52,145.73 138.6,145.59 138.72,145.5 138.83,145.41 138.95,145.35 139.09,145.34 139.32,145.34 139.55,145.35 139.78,145.34 141.0,145.32 142.23,145.23 143.44,145.06 143.51,145.05 143.58,145.04 143.66,145.03 143.72,145.01 143.8,144.99 143.88,145.0 z M 160.81,145.31 C 160.95,145.31 161.07,145.34 161.19,145.41 161.35,145.5 161.48,145.69 161.5,145.88 161.53,146.06 161.44,146.22 161.34,146.38 160.65,147.58 160.03,148.84 159.5,150.13 159.45,150.23 159.42,150.36 159.38,150.47 159.31,150.65 159.06,150.71 158.91,150.59 158.78,150.48 158.71,150.33 158.63,150.19 158.36,149.72 158.1,149.26 157.81,148.75 157.71,148.57 157.74,148.34 157.84,148.16 157.98,147.93 158.09,147.7 158.22,147.47 155.36,147.36 152.5,147.48 149.66,147.78 149.48,147.8 149.29,147.86 149.16,147.66 149.05,147.49 149.11,147.36 149.19,147.22 149.43,146.77 149.69,146.35 149.94,145.91 150.14,145.54 150.21,145.35 150.69,145.34 154.06,145.33 157.44,145.31 160.81,145.31 z M 155.47,149.0 C 155.89,148.99 156.07,148.96 156.31,149.38 157.67,151.71 159.02,154.07 160.38,156.41 160.71,156.99 161.07,157.57 161.41,158.16 161.5,158.31 161.53,158.44 161.5,158.63 161.47,158.81 161.38,158.93 161.22,159.03 161.06,159.13 160.92,159.12 160.75,159.13 159.28,159.13 157.8,159.23 156.34,159.44 156.26,159.45 156.17,159.49 156.09,159.47 155.94,159.43 155.84,159.24 155.88,159.09 155.93,158.95 156.02,158.82 156.09,158.69 156.35,158.25 156.62,157.81 156.88,157.38 156.97,157.19 157.14,157.04 157.34,157.0 157.64,156.98 157.94,157.0 158.25,157.0 156.91,154.49 155.37,152.02 153.69,149.72 153.58,149.58 153.42,149.43 153.53,149.22 153.62,149.04 153.77,149.04 153.94,149.03 154.44,149.02 154.96,149.01 155.47,149.0 z M 154.31,153.81 C 154.39,153.78 154.47,153.8 154.59,153.88 154.9,154.31 155.15,154.77 155.44,155.22 155.65,155.52 155.9,155.94 155.63,156.28 153.95,159.21 152.25,162.14 150.56,165.06 150.47,165.22 150.4,165.34 150.22,165.41 150.04,165.47 149.89,165.46 149.72,165.38 149.55,165.29 149.49,165.15 149.41,165.0 148.67,163.73 147.85,162.5 146.94,161.34 146.88,161.28 146.83,161.21 146.81,161.13 146.77,160.98 146.85,160.82 147.0,160.78 147.15,160.75 147.31,160.75 147.47,160.75 L 148.06,160.75 C 148.82,160.76 149.15,160.72 149.28,160.78 149.49,160.84 149.88,161.48 150.0,161.75 151.44,159.46 152.73,157.06 153.84,154.59 153.97,154.37 154.07,153.91 154.31,153.81 z M 140.91,153.84 C 140.99,153.84 141.07,153.85 141.13,153.91 141.23,154.03 141.3,154.18 141.38,154.31 141.54,154.61 141.71,154.89 141.88,155.19 141.96,155.33 142.04,155.48 142.13,155.63 142.21,155.78 142.28,155.91 142.25,156.09 142.22,156.27 142.12,156.42 142.03,156.56 141.95,156.71 141.87,156.85 141.78,157.0 144.64,157.11 147.5,157.02 150.34,156.72 150.52,156.7 150.71,156.61 150.84,156.81 150.95,156.98 150.89,157.11 150.81,157.25 150.57,157.7 150.31,158.15 150.06,158.59 149.86,158.96 149.79,159.12 149.31,159.13 145.94,159.14 142.56,159.16 139.19,159.16 139.01,159.16 138.86,159.12 138.72,159.0 138.57,158.88 138.51,158.75 138.5,158.56 138.49,158.37 138.57,158.24 138.66,158.09 139.35,156.89 139.97,155.63 140.5,154.34 140.52,154.29 140.54,154.24 140.56,154.19 140.6,154.1 140.62,154.01 140.69,153.94 140.74,153.88 140.83,153.85 140.91,153.84 z" />

		<text id="txt" transform="matrix(1 0 0 1 150 160)" style="stroke:none;fill:#f00;font-family:'Eras Medium ITC';font-size:20px;text-anchor:middle"  ></text>
		
		<!-- Prism Reference -->
		<cam mingh:cam=" --verb EditSelectAll --verb ZoomSelection --verb FileSave"/> 
	 </g>

</svg>