<svg
   xmlns:xlink="http://www.w3.org/1999/xlink"
   xmlns:svg="http://www.w3.org/2000/svg"
   xmlns="http://www.w3.org/2000/svg"
   xmlns:mingh="http://www.minghworld.com"
   width="300px"
   height="300px" >
	
	 <g>
		<!-- Paths -->
		<path style="fill:none;stroke:#000;stroke-width:0.25px;"
			d="M 152.24,131.63 C 150.15,131.63 148.46,133.33 148.46,135.42 148.46,136.81 149.21,138.01 150.33,138.67 147.74,138.77 145.3,138.96 143.39,139.54 142.86,139.7 142.46,140.27 142.11,140.63 141.34,141.53 140.45,142.88 139.24,144.82 137.07,145.1 134.85,145.48 132.89,145.76 129.14,146.11 124.18,146.68 119.99,147.42 119.07,147.63 118.27,147.96 117.64,148.6 117.33,148.91 117.17,149.31 117.08,149.67 116.75,151.0 117.31,152.38 117.83,153.42 117.48,153.53 117.11,153.6 116.83,153.82 116.19,154.33 116.04,155.11 116.11,155.67 116.35,157.59 117.59,159.0 118.99,159.6 119.19,159.92 119.42,160.34 119.99,160.67 121.26,161.22 122.74,161.65 123.99,162.1 130.06,164.29 139.39,166.49 141.25,165.55 141.25,165.55 141.51,166.74 142.6,167.45 144.5,168.51 146.73,168.66 148.53,168.13 151.62,167.24 153.11,165.37 153.92,162.51 L 168.89,158.23 C 168.89,158.23 169.76,159.2 169.96,159.23 170.98,159.36 171.36,159.41 172.21,159.45 172.72,159.45 173.16,159.5 173.61,159.42 174.11,159.33 174.53,159.12 174.86,158.88 175.59,158.35 175.99,157.63 176.3,156.79 176.43,156.38 176.55,155.94 176.64,155.54 177.01,155.63 177.56,155.56 177.8,155.51 178.7,155.08 179.66,154.53 180.46,154.07 181.44,154.01 182.21,153.51 182.86,153.04 183.24,152.68 183.55,152.14 183.55,151.45 183.51,150.99 183.23,150.6 183.05,150.26 183.02,150.1 182.98,149.92 182.96,149.79 183.11,149.19 183.21,148.54 182.86,147.92 182.71,147.62 182.46,147.47 182.27,147.32 182.78,146.67 183.32,146.02 183.71,145.42 183.99,144.8 183.91,144.26 183.64,143.76 183.27,143.29 182.64,143.11 181.99,143.07 181.71,143.06 181.44,143.11 181.17,143.13 179.3,143.46 177.38,143.81 175.71,144.17 174.97,144.12 174.18,144.02 173.52,143.95 172.27,141.99 170.38,140.06 168.08,139.54 167.49,139.42 165.69,139.17 164.8,139.1 161.62,138.86 157.86,138.63 154.21,138.6 155.28,137.94 155.99,136.77 155.99,135.42 155.99,133.33 154.32,131.63 152.24,131.63 z M 152.21,133.76 C 153.11,133.76 153.86,134.47 153.86,135.38 153.86,136.29 153.11,137.04 152.21,137.04 151.3,137.04 150.58,136.29 150.58,135.38 150.58,134.47 151.3,133.76 152.21,133.76 z"
		 />
		 
		<path style="fill:#f00;stroke:none;"
			d="M 168.44,141.65 C 167.83,141.41 166.46,141.15 164.93,140.99 162.98,140.77 160.88,140.67 159.22,140.59 155.84,140.57 152.41,140.39 149.05,140.64 150.12,140.69 151.14,140.71 152.31,140.76 153.68,140.82 155.05,140.91 156.41,141.06 157.27,141.15 157.98,141.35 158.73,141.56 160.89,141.25 162.97,141.17 165.23,141.34 167.36,141.56 168.53,141.73 170.08,142.7 169.65,142.24 169.03,141.92 168.44,141.65 z M 164.29,144.92 C 164.26,144.26 164.2,143.77 164.14,143.15 162.96,143.17 161.75,143.25 160.74,143.32 160.75,143.84 160.75,144.35 160.76,144.87 162.04,144.89 163.06,144.95 164.29,144.92 z M 158.68,144.92 C 158.8,144.92 158.82,144.91 158.85,144.81 158.89,144.69 158.98,143.72 158.98,143.41 158.98,143.22 158.96,143.14 158.88,142.98 158.72,142.64 158.26,142.26 157.98,142.29 157.05,142.47 156.48,142.91 155.86,143.56 155.67,144.1 155.79,144.69 155.93,145.02 156.89,144.97 157.73,144.95 158.68,144.92 z M 154.28,145.54 C 154.25,144.86 153.96,144.21 153.74,143.65 153.37,142.87 153.0,142.56 152.33,142.45 151.48,142.27 150.64,142.2 149.94,142.23 149.47,143.32 149.05,144.59 148.7,145.59 148.66,145.71 148.63,145.84 148.64,145.85 150.53,145.8 152.62,145.61 154.28,145.54 z M 172.48,146.01 C 172.65,145.95 172.67,145.88 172.52,145.85 172.39,145.82 172.39,145.82 172.24,145.53 171.86,144.82 171.05,143.64 170.95,143.64 170.82,143.64 171.05,144.5 171.32,145.04 171.67,145.74 171.83,146.0 171.95,146.06 172.03,146.12 172.26,146.09 172.48,146.01 z M 146.93,145.98 C 147.19,145.96 147.49,145.99 147.59,145.8 148.0,144.62 148.42,143.47 148.84,142.38 148.94,142.15 148.73,142.22 148.35,142.2 147.24,142.21 146.13,142.23 145.02,142.3 144.76,142.32 144.78,142.66 144.67,142.84 144.28,143.88 143.9,144.93 143.55,145.98 143.5,146.24 143.77,146.17 144.02,146.17 145.0,146.11 146.06,146.04 146.93,145.98 z M 144.38,142.66 C 143.59,143.9 142.88,144.99 142.27,146.14 L 143.09,146.23 C 143.52,145.03 144.06,143.61 144.38,142.66 z M 172.16,146.6 C 172.62,146.48 173.91,146.18 174.3,146.1 174.66,146.03 174.77,145.98 174.69,145.94 174.11,145.88 173.54,145.86 172.96,145.83 172.93,146.12 172.61,146.2 172.45,146.28 172.28,146.34 172.22,146.37 172.01,146.5 171.91,146.57 171.87,146.65 171.94,146.65 171.96,146.65 172.06,146.63 172.16,146.6 z M 171.51,146.73 C 171.52,146.7 171.52,146.65 171.5,146.62 170.85,145.54 170.14,144.4 169.36,143.39 168.67,142.54 167.61,142.22 165.31,142.17 163.49,142.15 161.91,142.25 160.13,142.37 160.0,142.39 159.97,142.44 160.06,142.51 160.11,142.56 160.33,142.55 162.56,142.41 163.43,142.35 165.93,142.36 166.44,142.41 167.07,142.48 167.79,142.62 168.07,142.74 168.6,142.95 168.89,143.15 169.16,143.48 169.7,144.16 170.51,145.35 171.02,146.22 171.18,146.48 171.32,146.72 171.34,146.74 171.38,146.8 171.49,146.79 171.51,146.73 z M 160.57,147.96 C 160.64,146.17 160.61,145.03 160.57,143.31 L 160.47,143.31 C 160.39,143.31 160.35,143.33 160.32,143.39 160.27,143.48 160.24,147.91 160.29,147.98 160.33,148.02 160.51,148.01 160.57,147.96 z M 154.74,148.05 C 154.85,147.99 154.98,147.85 155.07,147.69 155.18,147.5 155.17,147.11 155.07,146.9 154.84,146.45 154.3,146.32 153.92,146.62 153.79,146.72 153.62,147.04 153.63,147.16 153.64,147.23 153.65,147.24 153.75,147.24 153.81,147.24 154.0,147.23 154.16,147.23 154.57,147.21 154.57,147.21 154.56,147.71 154.55,148.13 154.56,148.14 154.74,148.05 z M 153.49,148.06 C 153.49,148.02 153.3,147.96 152.8,147.88 152.63,147.86 152.46,147.83 151.84,147.72 149.12,147.26 145.19,146.79 142.44,146.43 140.79,146.21 140.5,146.21 140.48,146.3 140.47,146.37 140.43,146.4 141.07,146.47 145.25,146.95 148.98,147.54 153.02,148.14 153.43,148.23 153.49,148.1 153.49,148.06 z M 155.36,147.98 C 155.61,147.73 155.72,147.24 155.58,146.94 155.5,146.77 155.44,146.69 155.29,146.58 155.18,146.5 154.94,146.43 154.94,146.47 155.28,146.81 155.42,147.17 155.26,147.67 155.2,147.85 154.96,148.13 154.96,148.13 155.01,148.13 155.26,148.07 155.36,147.98 z M 158.06,148.63 C 158.39,148.62 158.73,148.5 158.94,148.41 159.07,148.36 159.07,148.35 159.2,147.96 159.4,147.33 159.58,146.66 159.68,146.19 159.92,145.05 159.98,144.65 160.04,143.89 160.09,143.24 160.06,143.0 159.89,142.71 159.74,142.46 159.62,142.34 159.32,142.15 158.44,141.57 156.94,141.27 154.22,141.1 151.79,140.95 150.9,140.92 148.97,140.89 146.62,140.85 144.74,140.97 144.24,141.18 147.58,141.0 150.56,141.11 153.59,141.28 156.96,141.47 158.71,141.97 159.14,142.9 159.2,143.05 159.22,143.13 159.23,143.43 159.25,143.97 159.11,145.02 158.91,145.88 158.71,146.75 158.65,146.96 158.5,147.47 158.43,147.71 158.35,147.98 158.33,148.06 158.28,148.21 158.28,148.28 157.79,148.33 156.74,148.46 155.66,148.36 154.71,148.28 155.97,148.61 157.02,148.66 158.06,148.63 z M 154.43,149.18 C 154.43,149.18 154.41,149.06 154.38,148.96 154.2,148.35 154.11,147.82 154.16,147.61 154.23,147.39 154.23,147.39 153.95,147.42 153.71,147.44 153.64,147.48 153.59,147.55 153.55,147.6 153.56,147.75 153.61,147.88 153.75,148.39 153.87,148.74 154.03,149.2 z M 129.08,150.87 C 132.02,151.11 134.96,150.68 137.88,150.37 141.45,149.94 145.01,149.45 148.57,149.01 148.85,148.97 149.35,148.92 149.41,148.88 149.08,148.87 148.89,148.87 148.63,148.86 147.47,148.86 146.32,148.78 145.18,148.6 144.36,148.44 143.48,148.25 142.86,147.66 142.65,147.46 142.46,147.22 142.46,147.22 138.88,147.94 135.31,148.69 131.74,149.45 130.58,149.7 129.43,150.0 128.28,150.33 128.12,150.18 128.79,149.89 129.06,149.79 129.97,149.45 130.93,149.25 131.88,149.04 135.39,148.28 138.93,147.63 141.97,147.08 141.12,146.82 140.2,146.84 139.32,146.83 137.54,146.81 135.8,147.23 134.06,147.47 131.06,147.98 128.04,148.44 125.13,149.34 124.42,149.56 123.75,149.84 123.25,150.15 125.19,150.34 127.14,150.59 129.08,150.87 z M 123.31,149.82 C 125.19,148.95 127.2,148.51 128.94,148.12 126.71,148.34 124.37,148.72 122.46,149.01 121.98,149.11 121.49,149.14 121.03,149.29 120.57,149.46 120.45,150.09 120.76,150.44 120.99,150.77 121.26,151.09 121.46,151.36 121.83,150.61 122.6,150.19 123.31,149.82 z M 178.99,147.75 C 175.17,148.36 171.35,148.95 167.56,149.68 166.58,149.9 165.56,150.11 164.65,150.55 164.24,150.71 163.67,151.11 163.69,151.19 163.65,151.25 163.91,151.27 164.44,151.22 164.95,151.18 165.14,151.21 165.34,151.38 165.43,151.46 165.47,151.47 165.55,151.46 171.02,150.4 176.47,149.5 181.21,148.86 180.8,148.09 179.97,147.57 178.99,147.75 z M 181.01,152.18 C 181.32,152.03 181.55,151.82 181.68,151.58 181.75,151.43 181.76,151.41 181.72,151.31 181.7,151.25 181.59,151.14 181.47,151.03 L 181.26,150.82 181.29,150.67 C 181.33,150.39 181.32,150.32 181.27,150.33 L 180.55,150.78 180.49,151.06 C 180.43,151.42 180.3,151.71 180.19,152.03 180.08,152.32 180.09,152.34 180.45,152.32 180.72,152.31 180.77,152.3 181.01,152.18 z M 120.9,152.98 C 121.01,152.9 121.16,152.68 121.16,152.6 121.16,152.5 121.13,152.5 121.05,152.58 121.02,152.62 120.93,152.69 120.85,152.73 120.64,152.85 120.61,152.79 120.77,152.58 120.96,152.32 121.07,152.11 121.06,152.04 121.05,152.0 121.0,151.94 120.92,151.9 120.79,151.83 120.65,151.63 120.65,151.52 120.65,151.39 120.43,151.49 120.24,151.7 120.17,151.78 120.1,151.84 120.09,151.82 120.06,151.79 120.07,151.4 120.11,151.24 120.13,151.16 120.17,151.05 120.21,151.01 120.26,150.94 120.26,150.91 120.23,150.85 120.13,150.66 119.98,150.96 119.95,151.42 119.91,152.06 120.14,152.72 120.49,152.96 120.62,153.05 120.79,153.06 120.9,152.98 z M 121.04,154.43 C 120.9,153.84 121.03,153.27 121.38,152.97 121.53,152.85 121.54,152.83 121.51,152.76 121.49,152.72 121.46,152.68 121.45,152.68 121.44,152.68 121.38,152.76 121.33,152.85 121.18,153.11 120.92,153.29 120.7,153.29 120.45,153.29 120.13,153.03 119.93,152.66 119.84,152.5 119.75,152.16 119.72,151.88 119.67,151.45 119.72,151.06 119.87,150.73 119.93,150.59 119.91,150.54 119.71,150.45 119.48,150.34 119.3,150.3 119.26,150.34 119.2,150.39 119.23,150.99 119.3,151.29 119.34,151.43 119.41,151.66 119.46,151.79 119.88,152.77 120.43,153.68 121.0,154.58 121.07,154.66 121.08,154.6 121.04,154.43 z M 122.02,155.24 C 122.1,155.14 122.16,155.0 122.13,154.98 122.11,154.97 122.06,154.97 122.0,154.99 121.95,155.01 121.88,155.02 121.85,155.02 121.8,155.01 121.82,154.97 121.97,154.81 122.07,154.7 122.16,154.59 122.16,154.55 122.16,154.51 122.11,154.43 122.06,154.37 121.96,154.24 121.92,154.12 121.92,153.89 121.91,153.66 121.83,153.66 121.58,153.89 121.51,153.95 121.44,153.99 121.43,153.98 121.28,153.7 121.4,153.45 121.62,153.24 121.72,153.18 121.72,153.12 121.62,153.1 121.53,153.09 121.37,153.29 121.3,153.5 121.22,153.75 121.24,154.27 121.34,154.58 121.43,154.85 121.51,155.01 121.68,155.19 121.81,155.33 121.92,155.35 122.02,155.24 z M 173.56,155.54 C 173.68,155.46 173.8,155.27 173.89,155.01 173.96,154.8 173.98,154.67 173.93,154.67 173.88,154.82 173.74,155.01 173.64,155.1 173.25,155.3 173.04,154.27 173.34,153.61 173.47,153.31 173.64,153.23 173.75,153.41 174.0,153.82 174.01,154.52 174.01,154.52 174.01,154.52 174.05,153.74 173.99,153.39 173.92,153.13 173.85,152.99 173.72,152.89 173.58,152.79 173.58,152.78 173.07,153.78 172.95,154.01 172.92,154.1 172.91,154.29 172.87,154.76 173.03,155.37 173.24,155.53 173.35,155.62 173.43,155.62 173.56,155.54 z M 164.43,151.69 C 165.09,151.59 165.2,151.56 165.2,151.5 165.2,151.48 165.17,151.42 165.07,151.41 164.59,151.33 163.89,151.48 163.62,151.4 163.47,151.37 163.28,151.17 163.05,150.84 162.72,150.34 162.62,150.02 162.77,149.89 164.01,149.29 165.37,148.96 166.68,148.53 170.31,147.39 174.05,146.68 177.76,145.81 178.82,145.55 179.91,145.35 180.96,145.06 179.91,145.13 178.88,145.4 177.85,145.56 173.56,146.38 169.31,147.4 165.12,148.64 164.06,149.0 162.66,149.45 162.01,149.91 161.73,150.15 162.13,150.73 162.37,151.04 162.56,151.27 162.67,151.36 162.67,151.41 162.67,151.53 162.65,151.54 161.91,151.66 155.95,152.69 149.66,153.76 144.34,154.77 143.26,154.97 142.37,155.22 141.87,155.48 141.7,155.57 141.65,155.62 141.67,155.68 141.69,155.74 141.73,155.74 142.25,155.68 142.79,155.61 143.24,155.54 144.11,155.36 151.43,154.01 158.03,152.84 164.43,151.69 z M 122.24,155.62 C 122.47,155.44 122.59,155.12 122.59,154.69 122.59,154.43 122.58,154.38 122.5,154.23 122.4,154.05 122.32,153.96 122.32,154.03 122.32,154.06 122.34,154.16 122.37,154.26 122.49,154.74 122.37,155.3 122.1,155.49 121.9,155.62 121.64,155.59 121.35,155.38 121.07,155.19 120.25,153.92 119.67,152.8 119.15,151.78 118.98,151.29 118.98,150.58 118.94,150.15 119.09,150.03 119.29,150.07 120.44,150.44 121.19,151.78 121.71,152.54 121.47,151.79 121.05,151.18 120.71,150.75 120.25,150.16 119.86,149.94 119.21,149.88 118.84,149.87 118.85,150.08 118.81,150.31 118.77,150.79 118.84,151.32 119.01,151.73 119.16,152.12 119.35,152.49 119.53,152.88 119.95,153.76 120.46,154.59 121.05,155.36 121.35,155.76 121.93,155.85 122.24,155.62 z M 173.49,156.24 C 173.74,156.13 173.96,155.78 174.16,155.26 174.43,154.56 174.46,153.28 174.23,152.62 174.13,152.33 174.1,152.31 173.95,152.43 L 173.86,152.51 173.94,152.68 C 174.16,153.12 174.24,153.82 174.15,154.5 174.04,155.34 173.54,156.13 173.18,155.97 172.65,155.74 172.69,155.34 172.49,154.89 172.49,154.89 172.5,155.41 172.67,155.77 172.78,156.01 172.93,156.19 173.09,156.25 173.24,156.32 173.32,156.31 173.49,156.24 z M 169.22,145.31 C 169.24,145.28 168.98,144.89 168.6,144.39 168.19,143.83 167.64,143.41 167.13,143.26 166.49,143.14 166.02,143.16 165.42,143.16 L 165.49,144.98 C 165.49,144.98 168.1,145.21 169.22,145.31 z M 165.4,147.53 C 165.24,146.01 165.23,145.13 165.15,143.55 L 165.13,143.0 165.37,142.99 C 166.0,142.96 166.99,143.05 167.49,143.18 168.07,143.32 168.77,143.92 169.5,144.92 169.75,145.25 170.25,146.01 170.3,146.11 170.39,146.34 170.29,146.71 170.09,146.86 169.94,146.98 169.76,147.02 169.32,147.07 167.96,147.24 166.57,147.43 165.4,147.53 z M 164.68,144.9 C 164.72,145.75 164.8,146.6 164.81,147.45 164.83,147.64 164.49,147.63 164.18,147.69 162.58,147.87 160.98,148.08 159.38,148.27 159.32,148.38 159.24,148.49 159.18,148.59 158.7,148.83 158.3,148.91 157.53,148.89 156.61,148.86 155.78,148.77 155.1,148.62 154.67,148.53 154.55,148.56 154.55,148.75 154.55,148.9 154.6,148.93 154.87,148.93 155.02,148.93 155.13,148.94 155.16,148.97 155.21,149.02 155.2,149.17 155.15,149.21 155.05,149.3 154.76,149.35 154.35,149.36 L 153.93,149.36 C 153.83,149.17 153.78,148.98 153.69,148.8 153.65,148.72 153.63,148.7 153.33,148.73 152.2,148.84 151.28,148.93 150.16,149.05 147.05,149.43 144.56,149.82 141.58,150.35 140.08,150.62 138.42,150.99 137.07,151.35 136.38,151.53 134.53,152.12 134.33,152.22 134.28,152.25 134.18,152.3 134.18,152.32 135.23,152.72 136.41,152.72 137.48,152.41 137.72,152.34 137.95,152.25 138.18,152.16 139.54,151.6 141.01,151.41 142.45,151.1 145.1,150.58 147.78,150.17 150.46,149.88 151.78,149.72 153.36,149.59 154.46,149.57 153.02,149.82 151.79,150.01 150.66,150.19 147.02,150.78 143.4,151.41 139.81,152.25 139.17,152.4 138.53,152.64 137.97,153.01 138.7,153.55 139.06,154.24 139.21,154.93 139.3,155.35 139.25,155.67 139.24,156.13 139.24,156.48 139.44,156.73 139.88,156.95 140.12,157.07 140.29,157.1 140.32,157.05 140.26,156.85 140.23,156.66 140.28,156.45 140.36,155.86 140.84,155.64 141.48,155.42 141.67,155.38 141.73,155.34 141.91,155.18 142.41,154.75 143.03,154.43 143.65,154.3 149.86,152.98 156.37,152.04 162.01,150.91 161.86,150.63 161.55,150.24 161.74,149.92 161.99,149.52 162.61,149.3 163.11,149.1 164.42,148.58 165.85,148.24 167.21,147.87 168.47,147.52 169.75,147.22 171.01,146.87 171.04,146.87 171.05,146.84 171.07,146.82 171.07,146.7 170.23,145.33 169.66,144.53 169.34,144.09 168.87,143.49 168.74,143.37 168.45,143.11 167.88,142.89 167.16,142.76 165.05,142.51 162.97,142.61 160.94,142.76 L 160.23,142.81 160.25,142.94 C 160.29,143.21 160.27,143.2 160.56,143.18 162.34,143.05 164.49,142.98 164.56,143.04 164.64,143.66 164.63,144.28 164.68,144.9 z M 173.77,157.07 C 173.98,156.94 174.18,156.73 174.35,156.44 174.5,156.19 174.67,155.81 174.73,155.62 175.03,154.56 174.98,153.39 174.82,152.42 174.75,152.16 174.71,152.13 174.57,152.19 174.48,152.22 174.47,152.24 174.49,152.3 174.66,152.87 174.7,153.24 174.7,153.78 174.73,154.37 174.6,155.03 174.46,155.49 174.2,156.29 173.75,156.8 173.33,156.73 172.68,156.63 172.57,156.04 172.35,155.46 172.34,155.42 172.33,155.36 172.3,155.31 172.24,155.22 172.2,155.27 172.19,155.45 172.26,156.2 172.42,156.72 172.97,157.07 173.15,157.18 173.6,157.17 173.77,157.07 z M 172.06,153.82 C 172.29,153.36 172.5,152.89 172.76,152.44 173.12,151.8 173.88,151.32 174.58,151.17 175.69,150.95 176.27,150.9 176.66,151.0 177.15,151.11 177.65,151.63 177.76,152.13 177.79,152.26 177.82,152.28 177.94,152.23 178.65,152.03 179.38,151.81 180.11,151.59 L 180.2,151.21 C 180.32,150.65 180.35,150.61 180.68,150.41 180.97,150.22 181.03,150.15 180.97,150.01 180.93,149.87 180.77,149.79 180.6,149.81 172.81,150.63 165.12,152.1 157.43,153.5 155.98,153.79 154.51,154.02 153.08,154.34 153.32,154.54 153.49,154.64 153.68,154.82 154.16,155.25 154.51,155.8 154.85,156.35 155.15,156.87 155.44,157.41 155.68,157.97 M 132.73,157.96 C 132.94,157.91 133.11,157.75 133.25,157.49 133.3,157.39 133.35,157.29 133.35,157.27 133.35,157.23 133.18,157.18 132.74,157.12 130.14,156.72 127.78,156.46 125.4,155.79 125.12,155.63 124.74,155.15 124.94,155.21 127.64,155.93 130.58,156.28 132.96,156.64 133.15,156.66 133.35,156.7 133.4,156.71 133.49,156.73 133.51,156.72 133.56,156.65 133.59,156.6 133.61,156.53 133.6,156.49 133.59,156.42 133.56,156.42 133.19,156.36 130.23,155.85 127.38,155.52 125.0,154.93 124.91,154.91 124.77,154.87 124.7,154.85 124.6,154.82 124.53,154.78 124.44,154.66 124.3,154.48 124.19,154.28 124.22,154.25 124.23,154.24 124.38,154.27 124.55,154.32 127.44,155.1 130.6,155.45 133.22,155.86 133.32,155.87 133.48,155.89 133.57,155.9 133.74,155.9 133.75,155.9 133.78,155.81 133.83,155.69 133.77,155.62 133.6,155.6 133.52,155.58 133.29,155.55 133.08,155.52 130.05,155.04 127.35,154.71 124.67,154.04 124.25,153.94 123.98,153.86 123.93,153.81 123.84,153.74 123.64,153.35 123.67,153.32 123.7,153.3 123.96,153.36 124.66,153.55 127.65,154.33 130.06,154.61 132.96,155.03 133.22,155.07 133.52,155.11 133.62,155.13 133.73,155.14 133.82,155.14 133.84,155.13 133.88,155.11 133.87,154.87 133.82,154.84 133.78,154.81 133.55,154.76 132.98,154.68 129.58,154.2 126.64,153.76 123.55,152.94 123.46,152.92 123.43,152.89 123.33,152.69 123.27,152.56 123.22,152.44 123.22,152.42 123.22,152.37 123.29,152.37 123.49,152.43 125.89,153.05 128.6,153.47 130.93,153.88 132.07,154.08 133.4,154.24 133.43,154.21 133.52,154.13 133.05,153.89 132.71,153.84 130.78,153.42 129.12,153.16 127.31,152.78 125.67,152.45 123.31,152.0 122.45,151.99 122.32,152.02 122.28,152.08 122.31,152.17 122.33,152.21 122.39,152.39 122.45,152.57 122.79,153.56 123.34,154.43 123.85,155.24 124.19,155.74 124.7,156.26 124.81,156.3 127.08,157.31 129.19,157.76 131.47,158.01 131.95,158.04 132.53,158.02 132.73,157.96 z M 130.85,158.2 C 128.7,157.98 126.57,157.35 124.61,156.47 123.98,155.97 123.61,155.3 123.18,154.64 122.7,153.85 122.27,153.01 122.06,152.11 122.02,151.55 122.69,151.68 123.48,151.76 126.39,152.21 129.29,152.73 132.16,153.39 132.73,153.54 133.36,153.63 133.78,154.11 134.21,154.59 134.24,155.26 134.08,155.84 133.89,156.63 133.77,157.53 133.13,158.09 132.33,158.35 131.59,158.23 130.85,158.2 z M 132.95,158.35 C 133.73,158.25 134.09,157.45 134.3,156.79 134.53,155.99 134.8,155.14 134.67,154.29 134.48,153.44 133.88,152.88 132.88,152.66 129.75,151.9 126.58,151.29 123.38,150.86 122.84,150.84 122.06,150.69 121.78,151.3 121.61,151.84 121.93,152.36 122.09,152.86 122.64,154.1 123.3,155.31 124.19,156.33 124.7,156.78 125.39,156.94 126.0,157.2 128.04,157.95 130.21,158.41 132.39,158.43 132.58,158.42 132.77,158.4 132.95,158.35 z M 145.78,158.26 C 146.07,157.23 146.97,156.13 147.88,155.5 146.09,155.84 144.03,156.34 142.25,156.77 L 142.13,158.99 C 142.13,158.99 144.7,158.41 145.78,158.26 z M 138.32,156.69 C 138.38,156.58 138.36,156.56 138.15,156.56 138.03,156.56 137.93,156.55 137.92,156.52 137.91,156.5 137.96,156.43 138.07,156.34 138.23,156.2 138.55,155.76 138.55,155.68 138.14,155.54 138.11,155.23 138.08,154.91 L 137.9,154.9 C 137.76,154.89 137.69,154.91 137.54,154.99 137.44,155.04 137.34,155.08 137.33,155.07 137.27,155.04 137.3,154.82 137.37,154.7 137.49,154.47 137.74,154.45 138.14,154.62 138.24,154.66 138.29,154.67 138.34,154.64 138.44,154.6 138.44,154.58 138.32,154.42 138.15,154.18 137.79,154.07 137.57,154.18 137.22,154.36 137.08,154.71 137.12,155.29 137.15,155.86 137.43,156.4 137.81,156.64 138.01,156.77 138.27,156.79 138.32,156.69 z M 138.19,157.03 C 138.19,157.02 138.11,156.99 138.01,156.96 137.79,156.89 137.44,156.67 137.3,156.51 137.01,156.18 136.87,155.74 136.87,155.18 136.87,154.69 136.97,154.39 137.21,154.16 137.37,154.0 137.52,153.92 137.72,153.91 137.82,153.9 137.87,153.88 137.87,153.85 137.87,153.79 137.55,153.52 137.46,153.49 137.36,153.47 137.22,153.62 136.95,154.07 136.48,154.86 135.84,156.2 135.9,156.26 136.68,155.95 136.91,156.19 137.18,156.5 137.49,156.86 137.64,157.42 137.77,157.88 137.95,157.63 138.06,157.33 138.19,157.03 z M 137.03,158.93 C 137.12,158.9 137.3,158.75 137.3,158.7 137.3,158.69 137.18,158.68 137.04,158.68 136.9,158.68 136.78,158.67 136.77,158.65 136.76,158.63 136.82,158.56 136.9,158.5 137.07,158.36 137.34,157.99 137.31,157.94 137.3,157.92 137.26,157.91 137.22,157.91 137.07,157.91 136.88,157.64 136.88,157.43 136.88,157.2 136.85,157.17 136.59,157.17 136.38,157.17 136.11,157.25 136.06,157.33 136.02,157.4 135.95,157.32 135.95,157.21 135.95,157.03 136.07,156.85 136.22,156.79 136.36,156.74 136.55,156.77 136.83,156.9 136.99,156.98 137.16,156.99 137.19,156.92 137.23,156.81 136.84,156.46 136.59,156.39 136.18,156.27 135.84,156.56 135.76,157.12 135.68,157.65 135.86,158.25 136.23,158.65 136.49,158.93 136.77,159.03 137.03,158.93 z M 136.41,159.18 C 135.71,158.94 135.47,158.11 135.45,157.42 135.44,156.86 135.56,156.32 135.79,155.81 136.17,154.97 136.57,154.12 137.13,153.38 137.63,153.03 138.04,153.69 138.33,154.01 138.83,154.62 138.96,155.47 138.72,156.22 138.41,157.2 137.98,158.16 137.35,158.97 137.12,159.25 136.74,159.33 136.41,159.18 z M 137.22,159.33 C 137.6,159.07 137.82,158.64 138.06,158.26 138.46,157.52 138.81,156.74 138.98,155.92 139.15,154.99 138.73,154.04 138.05,153.42 137.86,153.24 137.64,153.03 137.35,153.08 136.98,153.12 136.82,153.5 136.64,153.77 136.12,154.62 135.67,155.51 135.35,156.46 135.23,156.9 135.18,157.36 135.27,157.8 135.36,158.39 135.62,159.03 136.19,159.29 136.51,159.44 136.9,159.5 137.22,159.33 z M 138.98,159.64 C 139.59,158.86 140.8,157.59 141.11,157.47 141.32,157.37 141.42,157.38 141.41,157.49 141.41,157.58 141.35,158.29 141.31,158.74 141.29,158.91 141.29,159.06 141.31,159.08 141.5,159.11 141.63,159.06 141.83,159.05 141.92,158.36 141.93,157.67 141.96,156.98 141.96,156.71 141.96,156.71 141.89,156.72 141.58,156.76 140.68,157.16 140.48,157.34 140.35,157.46 139.67,158.22 139.39,158.57 138.96,159.1 138.48,159.77 138.5,159.8 138.52,159.84 138.92,159.7 138.98,159.64 z M 172.08,155.09 C 172.71,154.0 173.03,152.65 173.83,152.25 174.52,151.89 175.57,151.62 176.31,151.62 176.58,151.62 176.65,151.63 176.8,151.7 177.02,151.81 177.23,152.04 177.32,152.27 177.41,152.52 177.49,152.88 177.49,153.1 177.49,153.32 177.53,153.41 177.58,153.28 177.73,152.88 177.69,152.51 177.44,151.96 177.29,151.63 176.99,151.36 176.68,151.25 175.65,151.1 174.65,151.37 173.83,151.74 173.51,151.88 173.09,152.33 172.95,152.57 172.54,153.45 171.9,154.82 171.63,155.18 171.51,155.31 171.28,155.44 171.01,155.52 166.7,156.81 162.38,158.0 158.24,159.18 157.71,159.34 157.09,159.51 156.79,159.58 156.55,159.64 156.18,159.49 156.02,159.28 155.97,159.22 155.88,159.04 155.82,158.89 155.68,158.54 155.68,158.54 155.52,158.2 155.08,157.23 154.76,156.66 154.19,155.81 153.67,155.04 152.99,154.52 152.21,154.25 151.89,154.14 151.82,154.13 151.58,154.17 148.8,154.68 145.8,155.19 143.39,155.66 142.97,155.74 142.47,155.81 142.06,155.84 141.68,155.87 141.67,155.87 141.56,155.79 141.45,155.71 141.4,155.71 141.25,155.78 140.49,156.14 140.6,156.52 140.6,156.95 141.01,156.75 141.5,156.59 141.86,156.47 142.15,156.39 142.2,156.39 142.27,156.45 142.32,156.49 142.45,156.47 143.26,156.26 145.77,155.66 147.96,155.14 150.35,154.86 150.91,154.79 151.74,154.77 152.04,154.8 152.84,154.87 153.65,155.64 154.45,157.11 154.82,157.78 155.14,158.54 155.42,159.22 155.59,159.69 155.7,159.83 155.95,159.95 156.15,160.04 156.41,160.05 156.73,159.96 161.15,158.76 165.47,157.55 169.52,156.4 170.43,156.14 171.39,155.82 171.5,155.75 171.66,155.65 171.92,155.34 172.08,155.09 z M 137.51,160.39 C 137.69,160.34 137.95,160.17 137.96,160.09 137.97,160.05 137.89,160.03 137.58,159.98 134.18,159.34 130.47,158.68 127.55,157.96 125.73,157.49 123.8,156.89 122.27,156.33 121.8,156.14 121.19,155.83 121.14,155.76 121.11,155.7 121.07,155.73 121.07,155.79 121.07,155.97 121.4,156.32 121.69,156.47 123.63,157.21 125.24,157.58 127.16,158.07 130.58,158.9 134.22,159.76 137.09,160.43 137.17,160.45 137.36,160.44 137.51,160.39 z M 139.56,163.81 C 140.46,163.72 141.24,163.58 142.06,163.36 142.53,163.24 143.12,162.96 143.35,162.74 143.53,162.57 143.84,162.12 144.05,161.74 144.27,161.32 144.39,161.18 144.97,160.66 145.35,160.31 145.64,159.93 145.88,159.46 146.02,159.18 146.05,159.08 146.05,158.95 146.05,158.77 146.0,158.67 145.86,158.6 145.71,158.52 145.57,158.54 144.74,158.72 143.51,158.98 142.24,159.24 141.16,159.47 140.39,159.65 139.31,160.04 139.0,160.24 138.9,160.31 138.61,160.56 138.36,160.81 137.73,161.4 137.42,161.6 137.12,161.6 136.99,161.6 136.63,161.54 136.29,161.46 134.01,160.94 131.54,160.33 129.49,159.76 129.09,159.58 128.75,159.48 128.03,159.4 127.93,159.39 127.81,159.37 127.75,159.35 126.85,159.08 126.09,158.88 125.17,158.66 124.72,158.56 124.51,158.63 124.28,158.71 124.22,158.59 124.16,158.48 124.09,158.35 124.02,158.28 123.86,158.21 123.69,158.17 123.56,158.13 122.39,157.76 121.76,157.49 120.85,157.11 120.09,156.69 119.77,156.4 119.52,156.17 119.45,156.03 119.47,155.77 119.49,155.51 119.63,155.27 119.95,154.99 120.08,154.88 120.19,154.77 120.19,154.76 120.21,154.72 119.86,154.73 119.4,154.78 118.77,154.86 118.43,154.94 118.21,155.15 117.83,155.51 117.97,155.91 118.1,156.25 118.38,156.93 118.81,157.33 119.44,157.61 121.06,158.19 122.37,158.64 124.04,159.16 124.06,159.16 124.24,159.09 124.43,159.0 124.7,158.87 124.8,158.84 124.88,158.85 126.01,159.13 126.6,159.26 127.96,159.69 127.99,159.72 128.13,159.89 128.27,160.08 128.55,160.46 128.48,160.42 129.02,160.54 129.31,160.6 129.8,160.71 130.22,160.81 132.44,161.32 134.14,161.7 136.09,162.14 136.88,162.33 137.12,162.37 137.47,162.37 137.9,162.36 138.36,162.25 138.74,162.19 140.5,161.87 142.0,161.62 143.64,161.3 143.74,161.28 143.82,161.28 143.84,161.3 143.87,161.33 143.57,161.66 143.28,161.91 142.96,162.2 142.74,162.27 141.66,162.5 140.57,162.75 139.61,162.92 138.6,163.03 138.34,163.05 137.32,162.97 137.1,162.91 131.11,161.54 125.28,160.02 120.52,158.45 120.49,158.43 120.44,158.42 120.41,158.43 120.34,158.46 120.38,158.53 120.61,158.78 120.79,158.98 120.96,159.08 121.28,159.19 123.49,159.98 125.89,160.82 127.93,161.44 131.24,162.43 134.44,163.23 137.23,163.72 138.18,163.84 138.92,163.87 139.56,163.81 z M 148.49,162.2 C 148.21,162.06 148.08,161.74 148.04,161.45 147.98,160.93 148.11,160.35 148.5,159.98 148.64,159.82 148.85,159.71 149.07,159.74 149.29,159.75 149.47,159.9 149.57,160.09 149.81,160.51 149.77,161.04 149.6,161.48 149.48,161.81 149.24,162.13 148.89,162.24 148.76,162.28 148.61,162.27 148.49,162.2 z M 148.89,162.86 C 149.35,162.62 149.62,162.15 149.8,161.68 150.05,160.98 150.06,160.15 149.68,159.49 149.47,159.17 149.07,158.93 148.68,159.03 148.3,159.12 148.0,159.41 147.8,159.73 147.34,160.46 147.19,161.41 147.5,162.22 147.64,162.57 147.91,162.92 148.31,162.96 148.51,162.98 148.71,162.94 148.89,162.86 z M 147.76,163.52 C 147.33,163.35 147.04,162.93 146.93,162.49 146.77,161.98 146.77,161.44 146.82,160.91 146.94,160.06 147.31,159.21 147.98,158.66 148.39,158.35 149.03,158.28 149.42,158.64 149.91,159.06 150.11,159.73 150.11,160.35 150.16,161.21 149.93,162.08 149.44,162.79 149.14,163.21 148.67,163.61 148.12,163.61 148.0,163.61 147.87,163.58 147.76,163.52 z M 148.72,163.97 C 149.8,163.51 150.36,162.33 150.55,161.23 150.66,160.24 150.61,159.1 149.86,158.35 149.37,157.81 148.52,157.82 147.96,158.24 146.97,158.96 146.52,160.24 146.49,161.42 146.48,162.33 146.74,163.41 147.58,163.9 147.93,164.09 148.35,164.09 148.72,163.97 z M 147.9,164.71 C 147.13,164.49 146.68,163.74 146.48,163.02 146.24,162.14 146.27,161.19 146.48,160.31 146.74,159.27 147.27,158.23 148.19,157.62 148.71,157.27 149.44,157.21 149.96,157.59 150.7,158.11 150.99,159.05 151.06,159.92 151.15,161.1 150.89,162.32 150.27,163.33 149.81,164.08 149.05,164.81 148.11,164.74 148.04,164.73 147.97,164.72 147.9,164.71 z M 148.79,165.27 C 149.8,165.02 150.49,164.15 150.94,163.27 151.61,161.95 151.78,160.39 151.42,158.97 151.19,158.13 150.66,157.27 149.79,157.0 149.42,156.93 149.02,156.94 148.66,157.05 147.6,157.45 146.91,158.47 146.5,159.49 145.98,160.83 145.87,162.38 146.4,163.74 146.7,164.52 147.37,165.25 148.24,165.31 148.43,165.32 148.61,165.31 148.79,165.27 z M 145.8,166.62 C 145.3,166.53 145.03,166.45 144.33,166.19 143.63,165.86 143.52,165.82 143.12,165.21 143.07,165.12 142.52,163.56 142.52,163.56 138.74,164.65 135.46,163.94 127.48,161.57 125.17,160.88 123.07,160.18 120.78,159.24 120.55,159.1 120.38,158.94 120.21,158.67 120.05,158.43 120.0,158.38 119.75,158.31 119.33,158.18 119.07,158.02 118.72,157.66 118.41,157.35 118.17,157.01 117.97,156.61 117.77,156.21 117.7,155.95 117.7,155.66 117.7,155.38 117.77,155.18 117.94,155.01 118.33,154.62 119.3,154.52 120.1,154.46 119.68,153.76 119.26,152.9 118.93,152.22 118.61,151.39 118.56,151.18 118.55,150.61 118.55,150.1 118.59,149.94 118.77,149.76 119.06,149.48 119.74,149.14 120.33,148.99 121.93,148.59 123.5,148.42 125.01,148.21 126.89,147.95 128.46,147.8 130.18,147.64 132.23,147.5 132.52,147.47 133.16,147.36 134.31,147.16 135.44,146.99 136.61,146.81 137.78,146.63 138.92,146.47 140.11,146.31 141.24,144.8 142.14,143.06 143.32,141.67 143.61,141.33 143.86,141.09 144.01,141.02 144.13,140.95 144.47,140.86 144.64,140.83 145.75,140.66 146.91,140.55 147.78,140.48 149.72,140.33 151.66,140.27 154.47,140.27 156.42,140.27 159.36,140.33 159.93,140.38 162.5,140.49 165.65,140.76 167.78,141.21 168.37,141.35 168.56,141.42 168.97,141.63 169.8,142.06 170.53,142.68 171.31,143.65 171.8,144.27 172.2,144.93 172.56,145.59 L 172.9,145.59 C 173.63,145.59 174.47,145.66 175.29,145.77 175.57,145.81 175.64,145.81 175.84,145.77 177.88,145.33 180.05,144.96 182.0,144.66 182.06,144.66 182.2,144.77 182.2,144.82 182.2,144.83 182.15,144.9 182.09,144.97 181.67,145.42 181.26,145.93 180.89,146.4 180.46,146.96 180.18,147.4 180.18,147.54 180.18,147.59 180.23,147.63 180.37,147.71 180.83,147.97 181.23,148.33 181.39,148.64 181.58,149.06 181.41,149.49 181.33,149.89 181.6,150.14 181.54,150.47 181.53,150.74 L 181.68,150.88 C 181.87,151.03 181.98,151.24 181.98,151.43 181.98,151.73 181.58,152.23 181.24,152.35 181.14,152.39 180.99,152.46 180.89,152.51 180.68,152.61 180.44,152.64 180.17,152.58 180.06,152.56 179.96,152.54 179.94,152.55 179.13,152.96 178.26,153.4 177.42,153.82 177.35,153.85 177.28,153.86 177.26,153.85 177.25,153.84 177.23,153.75 177.23,153.64 177.23,153.31 177.06,152.61 176.93,152.41 176.79,152.24 175.86,152.16 175.18,152.14 175.22,152.59 175.27,153.11 175.3,153.59 175.3,154.54 175.16,155.33 174.83,156.24 174.59,156.93 174.33,157.3 173.89,157.62 173.55,157.87 173.26,157.92 172.24,157.92 171.45,157.92 171.38,157.94 170.92,157.87 170.49,157.81 170.37,157.56 170.14,157.35 169.92,157.14 169.6,156.63 169.6,156.63 165.0,157.99 159.58,159.42 155.09,160.85 154.74,160.95 154.55,160.88 154.35,160.83 L 152.66,160.11 C 152.59,161.73 152.3,162.71 151.52,164.23 150.68,165.58 149.52,166.25 147.98,166.59 147.18,166.76 146.57,166.7 145.8,166.62 z M 169.0,142.57 C 167.51,141.6 164.48,141.58 162.87,141.61 161.46,141.64 160.68,141.7 159.42,141.89 L 159.76,142.15 C 160.86,142.08 161.98,142.0 162.94,141.94 163.83,141.89 165.71,141.93 166.2,141.96 167.74,142.08 168.96,142.55 169.0,142.57 z"
		 />
		 
		<!-- Prism Reference -->
		<cam mingh:cam="--verb EditSelectAll --verb ZoomSelection --verb FileSave" /> 
	 </g>

</svg>
