<svg
   xmlns:xlink="http://www.w3.org/1999/xlink"
   xmlns:svg="http://www.w3.org/2000/svg"
   xmlns="http://www.w3.org/2000/svg"
   xmlns:mingh="http://www.minghworld.com"
   width="300px"
   height="300px" >
	
	 <g>
		
		<!-- Paths -->
		<path transform="matrix(-1 0 0 1 300 0)" style="fill:#b4b4b4;stroke:none;"
		 d="M 155.19,132.38 C 155.19,133.29 154.46,134.03 153.55,134.03 152.64,134.03 151.9,133.29 151.9,132.38 151.9,131.47 152.64,130.74 153.55,130.74 154.46,130.74 155.19,131.47 155.19,132.38 z M 153.54,128.62 C 151.46,128.62 149.76,130.31 149.76,132.4 149.76,133.74 150.48,134.92 151.54,135.58 148.92,135.64 146.21,135.73 144.05,135.87 141.27,136.02 140.94,136.87 140.57,137.77 140.13,138.97 139.7,140.17 139.26,141.37 138.95,141.36 138.46,141.34 137.95,141.43 136.94,141.6 136.38,142.49 136.35,143.37 136.31,143.81 136.36,144.61 136.38,145.15 134.35,145.93 133.24,146.94 132.66,148.05 131.54,148.22 130.32,148.28 129.26,148.58 128.21,148.9 127.55,149.69 127.16,150.55 126.66,151.68 126.44,152.88 126.52,154.03 126.56,154.58 126.98,154.9 127.38,155.02 126.69,155.59 126.64,156.28 126.57,156.9 124.93,160.74 125.42,164.66 127.73,167.46 129.1,169.12 131.22,169.71 133.1,169.83 135.0,169.96 136.83,169.55 138.2,168.77 139.85,167.83 140.83,166.1 141.38,164.52 141.51,164.53 141.63,164.55 141.94,164.71 142.25,164.88 142.75,165.21 143.32,165.37 L 143.35,165.37 C 144.04,165.51 144.67,165.38 145.16,165.15 145.63,164.92 146.0,164.77 146.48,164.58 146.65,164.54 146.65,164.55 146.82,164.55 149.11,164.52 151.44,164.63 153.41,164.65 153.63,164.96 153.92,165.01 154.16,165.02 154.43,166.12 154.69,167.21 155.46,168.5 156.22,169.78 157.59,170.74 159.1,171.15 163.15,171.95 167.04,170.52 168.23,166.43 168.42,165.84 168.53,165.27 168.66,164.74 169.37,165.04 170.27,164.86 170.98,164.77 172.23,164.54 173.25,163.78 173.54,162.68 174.2,160.17 174.15,157.55 173.98,155.27 174.58,153.36 174.48,151.38 174.4,150.11 174.31,148.84 173.84,148.46 173.1,147.96 172.72,144.8 172.35,141.38 171.6,138.71 171.6,138.71 171.5,138.33 171.41,138.18 171.03,137.54 170.24,137.29 169.48,136.99 168.71,136.69 167.89,136.41 167.32,136.21 165.32,135.52 163.29,135.39 161.35,135.4 159.37,135.43 157.53,135.47 155.7,135.49 156.68,134.81 157.32,133.68 157.32,132.4 157.32,130.31 155.62,128.62 153.54,128.62 z" />
		
		
		<text id="txt1" transform="matrix(1 0 0 1 150 160)" style="stroke:none;fill:#f00;font-family:'Eras Medium ITC';font-size:20px;text-anchor:middle"  />
		
		<!-- Prism Reference -->
		<cam mingh:cam=" --verb EditSelectAll --verb ZoomSelection --verb FileSave"/> 
	 </g>

</svg>