<svg
   xmlns:xlink="http://www.w3.org/1999/xlink"
   xmlns:svg="http://www.w3.org/2000/svg"
   xmlns="http://www.w3.org/2000/svg"
   xmlns:mingh="http://www.minghworld.com"
   width="300px"
   height="300px" >
	
	 <g>
		
		<!-- Paths -->
		<path transform="matrix(-1 0 0 1 300 0)" style="fill:#b4b4b4;stroke:none;"
		 d="M 148.99,127.12 C 146.91,127.12 145.21,128.82 145.21,130.9 145.21,131.78 145.54,132.57 146.05,133.21 146.07,133.24 146.07,133.28 146.08,133.31 144.01,132.84 141.83,132.58 139.74,133.15 137.76,133.64 136.05,134.94 134.83,136.56 134.47,137.02 134.12,137.51 133.83,138.02 132.4,137.77 131.02,138.15 129.87,139.18 129.11,139.85 128.56,140.63 128.15,141.27 127.38,141.67 126.88,142.46 126.77,143.31 126.7,143.77 126.67,144.27 126.68,144.74 126.72,145.1 126.88,145.46 127.12,145.74 126.69,146.99 126.41,148.32 126.62,149.65 126.77,150.74 127.45,151.73 128.4,152.31 129.52,153.04 130.96,153.3 132.24,152.81 134.14,154.93 136.12,157.14 137.74,158.96 137.89,159.54 138.15,159.96 138.46,160.46 138.74,160.84 139.58,160.88 140.02,160.84 139.59,162.68 139.54,164.68 140.15,166.49 140.59,167.8 141.69,168.81 142.93,169.37 143.75,169.74 144.59,170.02 145.49,170.15 146.62,170.27 147.71,169.69 148.46,168.87 148.77,168.55 149.03,168.21 149.27,167.84 151.55,168.97 153.9,169.96 156.37,170.59 158.05,171.05 159.79,171.35 161.49,171.71 162.75,172.38 164.12,172.98 165.58,172.87 166.6,172.84 167.55,172.36 168.33,171.77 169.58,171.69 170.94,171.88 172.08,171.27 173.01,170.69 173.21,169.46 173.43,168.46 173.55,167.75 173.21,167.06 172.68,166.59 173.19,165.45 173.54,163.57 173.05,162.34 172.85,160.73 172.15,159.14 170.99,157.99 170.88,157.42 170.48,157.0 170.02,156.68 169.57,156.35 169.06,156.08 168.52,155.96 167.9,154.39 166.86,153.0 165.68,151.81 165.31,151.42 164.93,151.06 164.52,150.71 164.59,148.26 164.61,145.66 163.43,143.43 162.44,141.8 160.93,140.52 159.4,139.4 156.55,137.35 153.41,135.77 150.15,134.49 150.17,134.48 150.18,134.45 150.21,134.43 151.69,133.92 152.77,132.55 152.77,130.9 152.77,128.82 151.07,127.12 148.99,127.12 z M 148.99,129.24 C 149.9,129.24 150.65,129.99 150.65,130.9 150.65,131.81 149.9,132.52 148.99,132.52 148.08,132.52 147.33,131.81 147.33,130.9 147.33,129.99 148.08,129.24 148.99,129.24 z" />
		
		<text id="txtTwo" transform="matrix(1 0 0 1 150 160)" style="stroke:none;fill:#f00;font-family:'Eras Medium ITC';font-size:20px;text-anchor:middle"  >

		</text>
		<!-- Prism Reference -->
		<cam mingh:cam=" --verb EditSelectAll --verb ZoomSelection --verb FileSave "/> 
	 </g>

</svg>