<svg
   xmlns:xlink="http://www.w3.org/1999/xlink"
   xmlns:svg="http://www.w3.org/2000/svg"
   xmlns="http://www.w3.org/2000/svg"
   xmlns:mingh="http://www.minghworld.com"
   width="300px"
   height="300px" >
	
	 <g>
		<!-- Paths -->
		<path style="stroke:#000;stroke-width:0.25px;" fill="none"
			d="M 148.99,127.12 C 146.91,127.12 145.21,128.82 145.21,130.9 145.21,131.78 145.54,132.57 146.05,133.21 146.07,133.24 146.07,133.28 146.08,133.31 144.01,132.84 141.83,132.58 139.74,133.15 137.76,133.64 136.05,134.94 134.83,136.56 134.47,137.02 134.12,137.51 133.83,138.02 132.4,137.77 131.02,138.15 129.87,139.18 129.11,139.85 128.56,140.63 128.15,141.27 127.38,141.67 126.88,142.46 126.77,143.31 126.7,143.77 126.67,144.27 126.68,144.74 126.72,145.1 126.88,145.46 127.12,145.74 126.69,146.99 126.41,148.32 126.62,149.65 126.77,150.74 127.45,151.73 128.4,152.31 129.52,153.04 130.96,153.3 132.24,152.81 134.14,154.93 136.12,157.14 137.74,158.96 137.89,159.54 138.15,159.96 138.46,160.46 138.74,160.84 139.58,160.88 140.02,160.84 139.59,162.68 139.54,164.68 140.15,166.49 140.59,167.8 141.69,168.81 142.93,169.37 143.75,169.74 144.59,170.02 145.49,170.15 146.62,170.27 147.71,169.69 148.46,168.87 148.77,168.55 149.03,168.21 149.27,167.84 151.55,168.97 153.9,169.96 156.37,170.59 158.05,171.05 159.79,171.35 161.49,171.71 162.75,172.38 164.12,172.98 165.58,172.87 166.6,172.84 167.55,172.36 168.33,171.77 169.58,171.69 170.94,171.88 172.08,171.27 173.01,170.69 173.21,169.46 173.43,168.46 173.55,167.75 173.21,167.06 172.68,166.59 173.19,165.45 173.54,163.57 173.05,162.34 172.85,160.73 172.15,159.14 170.99,157.99 170.88,157.42 170.48,157.0 170.02,156.68 169.57,156.35 169.06,156.08 168.52,155.96 167.9,154.39 166.86,153.0 165.68,151.81 165.31,151.42 164.93,151.06 164.52,150.71 164.59,148.26 164.61,145.66 163.43,143.43 162.44,141.8 160.93,140.52 159.4,139.4 156.55,137.35 153.41,135.77 150.15,134.49 150.17,134.48 150.18,134.45 150.21,134.43 151.69,133.92 152.77,132.55 152.77,130.9 152.77,128.82 151.07,127.12 148.99,127.12 z M 148.99,129.24 C 149.9,129.24 150.65,129.99 150.65,130.9 150.65,131.81 149.9,132.52 148.99,132.52 148.08,132.52 147.33,131.81 147.33,130.9 147.33,129.99 148.08,129.24 148.99,129.24 z" />
		
		<path style="fill:#f00;stroke:none;"
			d="M 130.17,148.53 C 130.24,148.61 130.27,148.7 130.31,148.79 130.24,148.81 130.14,148.9 130.1,148.88 130.03,148.83 130.0,148.74 129.9,148.6 130.03,148.56 130.15,148.51 130.17,148.53 z M 130.88,144.69 C 131.13,144.64 131.22,144.8 131.3,144.97 131.48,145.43 131.43,145.91 131.33,146.37 131.17,147.04 130.98,147.69 130.47,148.2 130.23,148.44 130.1,148.44 129.84,148.28 130.82,147.87 131.4,145.84 130.88,144.69 z M 145.73,158.62 C 145.74,158.56 146.01,158.48 146.04,158.51 146.12,158.61 146.19,158.76 146.16,158.89 146.16,158.96 145.98,159.01 145.83,159.09 145.78,158.89 145.72,158.75 145.73,158.62 z M 145.5,159.18 C 145.63,159.65 145.73,160.14 145.73,160.61 145.73,161.64 145.45,162.63 144.85,163.48 144.72,163.66 144.56,163.83 144.38,163.97 144.15,164.13 143.89,164.18 143.63,163.98 144.8,163.42 145.02,162.3 145.21,161.22 145.39,160.28 145.22,159.52 144.86,158.75 145.16,158.71 145.42,158.88 145.5,159.18 z M 155.26,158.95 C 154.96,158.5 154.38,158.29 153.78,158.42 152.44,158.7 151.51,160.35 151.94,161.7 151.97,161.82 152.04,161.93 152.09,162.07 151.53,160.32 153.45,158.03 155.26,158.95 M 152.54,161.72 C 152.64,162.31 153.17,162.63 153.78,162.56 154.83,162.4 155.71,161.13 155.48,160.09 155.32,159.46 154.79,159.11 154.15,159.24 152.95,159.6 152.63,160.46 152.54,161.72 z M 155.96,161.53 C 155.63,162.33 155.13,162.86 154.43,163.19 153.23,163.75 151.97,163.2 151.53,161.96 151.0,160.47 151.85,158.65 153.34,158.08 154.5,157.63 155.74,158.25 156.09,159.45 156.3,160.19 156.25,160.9 155.96,161.53 M 138.99,142.91 C 139.06,143.01 139.06,143.19 139.09,143.42 138.88,143.2 138.76,143.06 138.63,142.92 138.63,142.9 138.63,142.86 138.62,142.83 138.74,142.86 138.93,142.82 138.99,142.91 z M 145.53,144.55 C 145.59,144.35 145.54,144.19 145.35,144.08 145.16,143.97 144.97,143.83 144.75,143.74 144.57,143.65 144.52,143.53 144.61,143.35 145.28,141.94 146.0,140.41 146.54,139.27 146.71,139.49 146.85,139.69 146.9,139.93 147.05,140.49 147.04,141.11 146.94,141.66 146.75,142.64 146.44,143.58 146.15,144.53 146.02,144.92 145.78,145.0 145.41,144.87 145.45,144.75 145.49,144.65 145.53,144.55 z M 135.72,138.16 C 136.68,136.76 137.84,135.57 139.49,134.94 140.95,134.41 142.46,134.37 143.97,134.6 146.16,134.92 148.3,135.49 150.35,136.34 153.35,137.59 156.22,139.09 158.84,141.04 159.8,141.76 160.69,142.57 161.46,143.49 162.22,144.39 162.51,145.47 162.7,146.59 162.92,148.02 162.9,149.47 162.85,150.9 162.84,151.31 162.96,151.57 163.28,151.84 164.72,153.01 165.94,154.39 166.75,156.08 166.92,156.41 167.04,156.78 167.16,157.14 167.25,157.44 167.4,157.54 167.74,157.54 168.35,157.54 168.86,157.84 169.31,158.24 169.36,158.27 169.4,158.36 169.39,158.41 169.36,158.79 169.64,158.96 169.84,159.18 170.75,160.11 171.2,161.25 171.38,162.52 171.4,162.65 171.41,162.79 171.46,162.91 171.78,163.63 171.7,164.33 171.4,165.04 171.26,165.37 171.21,165.74 171.12,166.07 171.05,166.35 170.96,166.62 170.87,166.88 170.79,167.07 170.85,167.19 171.0,167.32 172.01,168.13 171.84,167.99 171.59,169.01 171.36,169.86 171.32,169.92 170.43,170.0 169.59,170.08 168.75,170.08 167.9,170.09 167.71,170.09 167.57,170.13 167.41,170.28 166.43,171.29 165.24,171.39 163.98,170.98 163.52,170.84 163.07,170.65 162.67,170.41 162.17,170.11 161.65,169.99 161.1,169.9 157.93,169.34 154.82,168.59 151.9,167.2 150.91,166.74 149.9,166.26 148.91,165.78 148.7,165.67 148.58,165.67 148.45,165.92 148.07,166.68 147.63,167.42 146.98,167.99 146.48,168.41 145.97,168.58 145.32,168.42 144.37,168.18 143.45,167.9 142.66,167.26 142.0,166.72 141.67,165.99 141.52,165.18 141.2,163.49 141.42,161.84 141.93,160.23 142.14,159.58 142.14,159.58 141.57,159.18 141.39,159.06 141.19,158.94 140.98,158.84 140.67,158.69 140.37,158.73 140.12,158.99 140.05,159.07 139.95,159.16 139.86,159.18 139.77,159.2 139.6,159.17 139.55,159.1 139.44,158.92 139.38,158.68 139.32,158.47 139.25,158.32 139.22,158.14 139.13,158.03 136.82,155.44 134.54,152.89 132.56,150.7 131.26,151.59 130.09,151.45 129.17,150.82 128.32,150.24 128.14,149.42 128.2,148.48 128.27,147.44 128.56,146.43 129.0,145.49 129.04,145.36 129.06,145.23 129.1,145.12 128.91,145.01 128.72,144.91 128.53,144.78 128.46,144.73 128.35,144.64 128.35,144.56 128.36,144.18 128.37,143.79 128.46,143.41 128.54,143.04 128.76,142.74 129.17,142.64 129.26,142.62 129.33,142.51 129.38,142.43 129.84,141.69 130.33,141.0 130.98,140.43 132.01,139.51 133.17,139.38 134.42,139.92 134.49,139.96 134.6,139.99 134.66,140.01 135.02,139.38 135.32,138.74 135.72,138.16 z M 134.98,149.0 C 134.75,149.51 134.66,150.09 134.51,150.62 134.44,150.87 134.54,151.04 134.72,151.22 136.82,153.13 138.58,154.84 140.49,156.51 L 142.46,154.01 C 142.52,153.93 142.57,153.84 142.61,153.73 142.89,152.99 143.15,152.22 143.45,151.49 144.03,150.06 144.69,148.67 145.56,147.38 145.49,147.32 145.44,147.26 145.36,147.21 143.11,145.58 140.87,143.96 138.63,142.34 138.39,142.16 138.26,142.2 138.17,142.46 138.13,142.55 138.09,142.65 138.07,142.72 138.18,142.85 138.27,142.95 138.37,143.04 L 137.97,142.96 C 137.97,142.96 138.67,143.7 139.0,143.97 L 138.25,143.61 138.35,144.05 C 138.12,143.86 137.89,143.67 137.57,143.41 136.7,145.3 135.82,147.15 134.98,149.0 z M 151.71,154.21 C 151.52,153.98 151.41,153.61 151.39,153.29 151.35,153.06 151.29,152.97 151.1,152.91 150.4,152.73 149.7,152.49 148.99,152.38 146.84,152.03 144.85,152.43 143.12,153.84 141.61,155.21 140.63,156.96 139.72,158.47 L 139.9,158.59 C 140.64,157.54 141.34,156.63 141.98,155.81 142.56,155.04 143.19,154.3 144.0,153.76 145.03,153.08 146.0,153.11 146.98,153.88 147.78,154.54 148.12,155.43 148.17,156.42 148.25,157.59 148.2,158.78 148.2,159.95 148.2,160.9 148.21,161.82 148.52,162.72 148.55,162.84 148.66,162.98 148.76,163.01 150.45,163.59 152.16,164.15 153.86,164.69 154.51,164.9 155.18,165.09 155.87,165.29 155.88,164.9 156.04,164.47 156.27,164.5 156.6,164.57 156.51,165.05 156.48,165.44 156.51,165.44 156.55,165.46 156.6,165.46 156.76,164.83 156.86,164.16 156.94,163.6 157.02,163.17 157.09,162.72 157.05,162.31 156.77,160.16 156.08,158.15 154.94,156.3 154.6,155.72 153.84,154.6 153.84,154.6 L 153.66,155.07 C 152.92,154.96 152.21,154.81 151.71,154.21 z M 151.14,148.61 C 152.19,149.62 153.3,150.57 154.32,151.63 156.36,153.76 157.98,156.21 159.03,158.99 159.46,160.16 159.75,161.39 160.13,162.59 160.16,162.72 160.25,162.9 160.35,162.94 161.14,163.23 161.48,164.06 161.28,164.9 161.23,165.09 161.3,165.22 161.46,165.23 161.65,165.24 161.9,165.23 162.02,165.13 162.22,164.91 162.4,164.64 162.49,164.36 162.83,163.46 162.87,162.49 162.92,161.55 163.05,158.24 162.28,155.2 160.16,152.57 159.38,151.6 158.54,150.71 157.5,150.02 155.55,148.74 153.36,148.13 151.11,147.64 149.83,147.44 150.68,148.09 151.14,148.61 z M 163.66,158.78 C 163.02,155.15 161.18,152.25 158.47,149.87 157.86,149.33 157.23,148.81 156.46,148.57 154.65,148.02 152.84,147.45 151.04,146.94 150.09,146.68 149.11,146.48 148.12,146.57 147.79,146.6 147.45,146.7 147.17,146.87 146.74,147.15 146.76,147.64 147.19,147.94 148.66,148.99 150.03,150.14 151.35,151.36 152.12,152.08 152.74,152.97 153.7,153.5 153.77,153.53 153.8,153.67 153.82,153.76 153.89,153.92 153.9,154.09 153.98,154.2 155.06,155.57 155.96,157.06 156.53,158.7 157.16,160.56 157.63,162.33 158.11,163.96 158.58,163.26 159.17,162.9 159.93,162.85 159.64,161.41 159.23,160.07 158.7,158.76 157.49,155.82 155.69,153.27 153.42,151.03 152.55,150.18 151.63,149.37 150.74,148.53 150.58,148.38 150.41,148.2 150.3,148.01 150.07,147.63 150.22,147.38 150.67,147.36 150.83,147.36 151.02,147.38 151.21,147.41 153.01,147.81 154.79,148.28 156.44,149.13 159.35,150.65 161.27,153.04 162.4,156.07 163.19,158.19 163.3,160.41 163.09,162.63 163.0,163.41 162.91,164.19 162.53,164.9 162.26,165.38 161.83,165.7 161.3,165.44 161.24,165.41 161.1,165.44 161.06,165.48 160.92,165.65 160.83,165.83 160.67,166.07 160.96,166.22 161.22,166.44 161.52,166.51 162.22,166.7 162.97,166.77 163.67,167.01 164.5,167.29 164.98,166.92 165.48,166.31 166.45,165.1 166.99,163.7 167.29,162.2 167.54,160.89 167.59,159.58 167.34,158.26 167.31,158.14 167.25,158.05 167.22,157.95 167.4,159.78 167.15,161.53 166.55,163.24 166.19,164.27 165.67,165.22 164.8,165.93 164.13,166.42 163.9,166.36 163.51,165.5 163.44,165.69 163.35,165.86 163.32,166.04 163.25,166.46 162.97,166.51 162.62,166.6 162.46,166.22 162.56,165.71 162.81,165.56 163.3,165.25 163.47,164.53 163.2,164.04 163.14,163.91 163.23,163.68 163.25,163.5 163.38,163.51 163.49,163.54 163.65,163.56 163.86,162.25 163.89,160.13 163.66,158.78 z M 162.41,150.59 C 162.15,150.53 161.93,150.52 161.74,150.44 160.27,149.78 158.9,149.09 157.41,148.48 155.62,147.77 153.67,147.18 151.7,146.71 150.63,146.46 149.6,146.26 148.53,146.01 147.72,145.82 147.37,145.28 147.52,144.47 147.69,143.61 147.84,142.81 148.08,141.97 148.27,141.33 148.5,140.67 148.87,140.14 149.45,139.33 150.35,139.29 151.24,139.46 152.94,139.79 154.56,140.39 156.15,141.04 157.54,141.6 158.89,142.26 160.21,142.85 159.09,141.83 157.81,140.84 156.72,140.13 154.12,138.47 151.37,137.09 148.43,136.13 146.58,135.5 144.67,135.06 142.73,134.92 142.29,134.89 141.87,134.91 141.45,134.91 L 141.59,135.08 C 142.37,135.46 143.18,135.8 143.94,136.2 145.0,136.79 146.01,137.45 146.86,138.34 147.63,139.12 147.99,140.02 147.72,141.1 147.24,143.01 146.72,144.92 146.23,146.82 146.12,147.24 146.15,147.34 146.61,147.46 146.71,146.68 147.26,146.36 147.94,146.36 148.75,146.34 149.55,146.42 150.32,146.6 151.88,146.9 153.29,147.3 154.75,147.74 157.02,148.46 159.04,149.36 161.01,150.54 161.46,150.81 161.89,151.09 162.4,151.41 162.41,151.07 162.41,150.8 162.41,150.59 M 160.76,151.91 C 162.49,154.04 163.61,156.45 163.96,159.2 164.17,160.91 163.99,162.61 163.84,164.31 163.8,164.76 163.81,165.19 163.86,165.62 163.91,165.98 164.13,166.04 164.44,165.88 164.6,165.79 164.78,165.69 164.88,165.55 165.28,165.0 165.7,164.46 166.01,163.87 166.48,163.0 166.7,162.05 166.85,161.08 167.12,159.38 167.1,157.72 166.25,156.17 165.54,154.9 164.66,153.76 163.63,152.75 162.59,151.74 161.36,151.0 160.11,150.29 159.59,150.0 159.04,149.73 158.47,149.42 159.27,150.29 160.06,151.05 160.76,151.91 z M 152.11,152.68 C 152.05,152.59 151.98,152.53 151.91,152.45 150.25,150.75 148.41,149.23 146.44,147.9 145.72,147.4 145.88,147.29 145.36,148.13 144.34,149.98 143.47,151.78 142.94,153.55 143.68,153.05 144.55,152.59 145.27,152.31 147.33,151.57 149.41,151.94 151.39,152.72 151.62,152.8 151.86,152.8 152.14,152.86 152.12,152.72 152.12,152.69 152.11,152.68 z M 134.96,148.44 C 135.96,146.36 136.99,144.31 138.02,142.26 138.12,142.06 138.11,141.95 137.93,141.83 137.14,141.34 136.38,140.85 135.59,140.38 135.44,140.28 135.27,140.24 135.1,140.15 135.05,140.28 134.99,140.38 134.98,140.47 134.85,141.13 134.79,141.78 134.63,142.41 134.1,144.7 133.55,147.01 133.01,149.31 132.99,149.4 132.99,149.56 133.04,149.62 133.41,149.98 133.79,150.33 134.16,150.7 134.44,149.9 134.63,149.14 134.96,148.44 z M 156.66,142.58 C 156.69,142.5 156.6,142.34 156.51,142.3 156.13,142.12 155.74,141.97 155.34,141.83 154.43,141.55 153.52,141.41 152.59,141.74 151.99,141.97 151.53,142.32 151.3,142.93 150.97,143.81 151.24,144.53 152.07,144.94 153.33,145.54 154.43,146.08 155.63,146.56 156.0,145.2 156.37,143.76 156.66,142.58 z M 160.02,149.12 C 160.05,149.08 160.07,149.06 160.07,149.05 160.34,147.72 160.61,146.4 160.87,145.07 160.87,144.98 160.85,144.87 160.8,144.81 159.96,143.88 158.89,143.29 157.74,142.82 157.69,142.92 157.65,142.99 157.64,143.06 157.35,144.52 157.07,145.99 156.78,147.46 156.74,147.67 156.83,147.77 157.02,147.85 157.92,148.23 158.84,148.63 159.75,149.03 159.84,149.06 159.93,149.08 160.02,149.12 M 132.64,149.41 C 133.16,147.48 133.68,145.4 134.06,143.71 134.28,142.76 134.4,141.78 134.57,140.81 134.61,140.57 134.54,140.43 134.3,140.36 134.0,140.22 133.72,140.14 133.42,140.1 132.52,139.93 131.48,140.41 130.96,141.09 131.22,141.23 131.59,141.34 131.83,141.55 132.34,141.94 132.45,142.54 132.5,143.14 132.57,144.24 132.31,145.29 132.06,146.34 131.87,147.18 131.58,148.0 131.31,148.83 131.17,149.3 131.21,149.37 131.68,149.65 131.94,149.35 132.23,149.18 132.64,149.41 z M 147.29,141.34 C 147.6,140.15 147.27,139.19 146.38,138.39 145.48,137.56 144.46,136.9 143.38,136.33 142.55,135.89 142.54,135.9 141.91,136.64 140.64,138.19 139.62,139.94 138.59,141.67 138.4,141.99 138.64,142.02 138.82,142.2 L 145.73,147.13 C 145.87,146.74 145.97,146.38 146.07,146.03 145.49,146.1 145.45,146.06 145.51,145.4 145.21,145.49 144.89,145.64 144.61,145.56 144.05,145.36 143.5,145.12 142.97,144.86 142.7,144.64 142.5,144.33 142.32,144.08 141.51,143.53 140.69,142.99 139.9,142.44 139.18,141.94 139.07,141.55 139.52,140.8 140.27,139.51 141.06,138.25 141.84,137.0 142.17,136.5 142.45,136.42 143.01,136.65 144.06,137.09 145.0,137.73 145.87,138.48 146.42,138.95 146.42,138.96 146.11,139.6 146.09,139.64 146.07,139.69 146.06,139.72 145.51,140.89 144.95,142.06 144.42,143.23 144.32,143.41 144.23,143.42 144.06,143.33 143.89,143.24 143.72,143.14 143.52,143.11 143.41,143.1 143.22,143.16 143.16,143.25 143.02,143.47 142.92,143.71 142.8,143.95 142.64,144.28 142.7,144.54 143.02,144.69 143.57,144.95 144.13,145.19 144.69,145.4 144.78,145.44 144.99,145.38 145.03,145.3 145.18,145.03 145.4,145.02 145.64,145.11 145.84,145.19 146.02,145.3 146.24,145.4 146.63,144.02 146.96,142.54 147.29,141.34 z M 149.73,164.07 C 151.41,164.74 153.08,165.43 154.79,166.03 157.02,166.81 159.31,167.42 161.61,167.89 164.28,168.43 166.97,168.77 169.7,168.68 170.16,168.66 170.62,168.59 171.06,168.51 171.34,168.45 171.38,168.26 171.19,168.07 171.01,167.89 170.81,167.75 170.58,167.56 170.51,167.94 170.25,167.93 170.0,167.96 169.75,167.99 169.5,168.04 169.26,168.13 168.8,168.31 168.37,168.32 167.92,168.09 167.76,168.01 167.58,167.94 167.4,167.93 165.22,167.72 163.06,167.4 160.94,166.84 160.4,166.7 159.88,166.46 159.29,166.6 159.15,166.63 158.96,166.58 158.81,166.54 158.33,166.41 157.86,166.28 157.37,166.14 154.37,165.2 151.75,164.46 149.06,163.59 149.06,163.59 149.55,163.97 149.73,164.07 z M 145.07,164.21 C 145.18,163.83 145.73,163.55 145.36,163.05 145.35,163.03 145.37,162.93 145.4,162.9 145.54,162.7 145.46,162.33 145.87,162.35 145.9,162.35 145.95,162.25 145.96,162.2 146.05,161.86 146.15,161.53 146.21,161.19 146.23,161.11 146.18,161.0 146.12,160.94 146.01,160.77 146.0,160.13 146.15,160.07 146.47,159.95 146.4,159.69 146.39,159.48 146.37,159.08 146.32,158.68 146.28,158.28 146.23,157.96 146.01,157.82 145.7,157.81 145.23,157.77 144.89,158.01 144.6,158.33 143.66,159.32 143.24,160.55 143.02,161.86 142.88,162.68 142.85,163.52 143.15,164.33 143.29,164.72 143.48,165.06 143.92,165.18 144.39,165.28 144.64,164.96 144.8,164.63 L 144.9,164.45 C 144.69,164.55 144.48,164.67 144.42,164.39 144.38,164.31 144.44,164.15 144.51,164.08 144.74,163.89 144.98,164.2 145.07,164.21 z M 169.13,159.54 C 168.65,159.32 168.16,159.09 167.68,158.85 167.68,158.92 167.69,159.02 167.69,159.12 167.83,161.03 167.53,162.85 166.79,164.62 166.6,165.05 166.42,165.51 166.28,165.97 166.15,166.41 166.08,166.87 165.98,167.3 166.28,167.44 166.45,167.38 166.51,167.09 166.53,167.0 166.54,166.88 166.6,166.82 166.67,166.74 166.79,166.72 166.88,166.65 166.93,166.74 167.02,166.86 167.02,166.95 167.01,167.1 166.95,167.25 166.9,167.44 167.07,167.46 167.21,167.47 167.37,167.48 167.16,166.68 167.36,166.02 167.91,165.46 167.96,165.39 167.97,165.25 167.95,165.16 167.82,164.45 167.97,163.79 168.35,163.2 168.83,162.4 169.78,161.79 170.73,162.17 170.76,162.19 170.79,162.16 170.85,162.14 170.64,161.13 170.23,160.24 169.56,159.55 169.36,159.55 169.23,159.59 169.13,159.54 z M 129.93,149.34 C 130.28,149.03 130.74,148.79 130.71,148.19 130.7,148.05 130.83,147.8 130.92,147.78 131.24,147.71 131.29,147.49 131.31,147.25 131.4,146.79 131.47,146.32 131.69,145.87 131.78,145.68 131.86,145.44 131.63,145.23 131.58,145.2 131.63,144.94 131.71,144.91 131.96,144.75 131.91,144.58 131.81,144.39 131.67,144.16 131.45,144.13 131.24,144.25 131.1,144.33 130.97,144.47 130.84,144.56 130.74,144.64 130.65,144.69 130.56,144.75 130.88,144.18 131.08,144.07 131.68,143.99 131.57,143.7 131.34,143.58 131.05,143.77 130.78,143.96 130.52,144.19 130.32,144.45 129.65,145.33 129.26,146.34 129.1,147.43 129.02,147.91 129.04,148.41 129.06,148.91 129.07,149.13 129.19,149.35 129.47,149.42 129.26,148.28 129.26,147.71 129.48,147.38 129.56,148.06 129.3,148.77 129.75,149.41 129.82,149.37 129.88,149.36 129.93,149.34 z M 153.44,165.85 C 153.53,165.89 153.66,166.02 153.65,166.08 153.63,166.3 153.77,166.31 153.9,166.36 154.7,166.62 155.49,166.9 156.32,167.11 158.37,167.62 160.41,168.15 162.48,168.59 165.0,169.13 167.57,169.38 170.15,169.36 170.61,169.35 170.68,169.29 170.7,168.8 164.42,169.16 158.53,167.53 152.69,165.52 152.94,165.62 153.2,165.72 153.44,165.85 z M 145.87,139.14 C 145.03,138.33 144.1,137.64 143.04,137.16 142.84,137.06 142.68,137.11 142.57,137.3 142.36,137.64 142.17,138.01 141.95,138.35 141.82,138.58 141.87,138.72 142.12,138.82 143.07,139.26 144.02,139.7 144.94,140.15 145.53,140.43 145.51,140.45 145.77,139.87 146.01,139.31 145.98,139.28 145.87,139.14 z M 139.67,156.98 C 137.04,154.31 134.8,151.92 132.43,149.55 132.38,149.49 132.23,149.47 132.15,149.5 132.05,149.54 132.0,149.64 131.91,149.73 131.99,149.79 132.05,149.88 132.14,149.93 132.28,150.05 132.43,150.15 132.57,150.28 135.02,152.89 137.34,155.4 139.6,157.85 140.04,157.45 140.05,157.38 139.67,156.98 z M 160.73,165.11 C 160.92,164.67 160.97,164.08 160.63,163.69 160.39,163.38 159.96,163.24 159.57,163.36 158.98,163.52 158.47,164.02 158.33,164.62 158.23,165.05 158.25,165.56 158.59,165.88 158.87,166.17 159.32,166.23 159.7,166.08 160.16,165.92 160.55,165.57 160.73,165.11 z M 161.19,145.47 C 160.96,146.74 160.72,148.01 160.48,149.28 160.47,149.35 160.49,149.46 160.54,149.48 161.0,149.72 161.44,149.92 161.95,150.17 162.0,149.79 162.03,149.5 162.06,149.21 162.13,148.2 162.13,147.2 161.78,146.22 161.67,145.94 161.53,145.65 161.31,145.36 161.23,145.44 161.2,145.45 161.19,145.47 z M 139.77,138.07 C 140.18,138.16 140.39,138.06 140.58,137.73 140.82,137.28 141.11,136.85 141.39,136.41 139.88,135.83 138.17,136.39 137.47,137.73 138.26,137.84 139.02,137.91 139.77,138.07 z M 167.83,167.35 C 168.02,167.74 168.51,167.91 168.9,167.76 169.55,167.58 170.03,166.88 169.95,166.18 169.91,165.85 169.68,165.52 169.35,165.44 168.94,165.32 168.51,165.51 168.23,165.79 167.69,166.26 167.72,167.05 167.83,167.35 z M 144.88,157.28 C 144.6,157.44 144.32,157.68 144.11,157.92 143.47,158.66 143.11,159.53 142.82,160.44 142.48,161.56 142.27,162.71 142.41,163.88 142.47,164.3 142.61,164.74 142.8,165.13 143.01,165.53 143.41,165.62 143.81,165.42 143.16,165.13 142.88,164.57 142.78,163.93 142.49,161.87 142.98,160.0 144.25,158.34 144.65,157.84 145.16,157.47 145.91,157.58 145.68,157.16 145.28,157.03 144.88,157.28 z M 168.91,164.77 C 168.9,164.9 169.07,164.94 169.17,164.96 169.53,165.04 169.83,165.25 170.14,165.44 170.26,165.52 170.39,165.42 170.47,165.32 170.79,164.99 171.03,164.53 171.03,164.04 171.04,163.77 170.94,163.46 170.7,163.31 170.44,163.15 170.11,163.22 169.87,163.36 169.28,163.75 169.09,164.21 168.91,164.77 z M 142.05,137.0 C 141.15,138.33 140.36,139.63 139.62,140.92 139.29,141.51 139.37,141.87 139.93,142.26 140.82,142.87 141.7,143.46 142.55,144.03 142.84,143.72 142.57,143.62 142.41,143.49 141.68,143.01 140.97,142.54 140.26,142.04 139.8,141.73 139.74,141.51 139.95,141.03 140.72,139.56 141.68,138.02 142.46,136.74 142.46,136.74 142.13,136.94 142.05,137.0 z M 135.94,138.51 C 135.72,138.89 135.51,139.29 135.27,139.68 135.16,139.87 135.24,139.94 135.41,140.03 136.42,140.54 137.41,141.22 138.27,141.75 138.38,141.59 138.48,141.42 138.54,141.28 137.96,140.85 137.4,140.43 136.84,140.03 136.33,139.66 135.79,139.31 136.03,138.49 136.0,138.49 135.97,138.51 135.94,138.51 z M 150.92,165.09 C 150.58,164.95 150.54,165.23 150.44,165.41 150.32,165.61 150.46,165.7 150.63,165.75 151.35,166.03 152.07,166.31 152.78,166.58 153.22,166.74 153.31,166.68 153.43,166.23 153.45,166.17 153.37,166.02 153.31,165.99 152.51,165.65 151.71,165.38 150.92,165.09 z M 152.28,153.13 C 152.08,153.15 151.82,153.18 151.71,153.31 151.63,153.41 151.72,153.71 151.83,153.86 152.16,154.34 152.67,154.53 153.21,154.63 153.28,154.65 153.43,154.54 153.44,154.46 153.54,153.7 153.68,153.83 153.0,153.41 152.91,153.36 152.42,153.11 152.28,153.13 z M 152.5,166.77 C 154.65,167.61 156.91,168.05 159.17,168.49 L 158.94,168.32 C 157.31,167.85 155.63,167.42 153.98,166.95 153.71,166.87 153.45,166.63 153.16,166.87 153.12,166.88 153.05,166.84 152.98,166.82 152.83,166.76 152.68,166.72 152.54,166.64 152.53,166.68 152.51,166.74 152.5,166.77 z M 168.7,159.16 C 168.81,159.21 168.94,159.24 169.04,159.18 169.13,159.1 169.12,158.97 169.13,158.85 169.13,158.65 169.04,158.43 168.89,158.27 168.63,158.0 168.27,157.85 167.9,157.82 167.81,157.82 167.69,157.82 167.65,157.91 167.6,158.0 167.66,158.11 167.68,158.2 167.79,158.51 168.02,158.74 168.29,158.92 168.42,159.01 168.55,159.11 168.7,159.16 z M 157.09,165.44 C 157.08,165.48 157.16,165.61 157.21,165.61 157.44,165.69 157.68,165.74 157.89,165.78 157.87,165.44 157.81,165.14 157.84,164.85 157.91,164.29 157.61,163.84 157.53,163.34 157.36,163.98 157.19,164.86 157.09,165.44 z M 149.92,165.3 C 149.62,165.18 149.36,165.02 149.08,164.87 148.83,164.72 148.59,164.55 148.33,164.38 148.26,164.54 148.2,164.68 148.12,164.87 148.82,165.2 150.18,165.89 150.18,165.89 150.26,165.53 150.13,165.39 149.92,165.3 z M 169.93,162.53 C 168.97,162.68 168.25,163.98 168.41,164.71 168.8,163.55 169.37,162.66 170.76,162.78 170.58,162.56 170.29,162.47 169.93,162.53 z M 151.88,165.25 C 150.83,164.71 149.73,164.24 148.57,163.68 148.67,163.83 148.69,163.98 148.8,164.03 149.27,164.33 149.78,164.62 150.27,164.9 150.34,164.94 150.43,164.94 150.51,164.94 150.72,164.95 150.92,164.96 151.11,165.01 151.47,165.27 151.88,165.25 151.88,165.25 z M 142.1,136.09 C 142.17,136.02 142.24,135.92 142.33,135.82 141.26,135.2 140.05,134.94 139.32,135.53 140.33,135.35 141.26,135.43 142.1,136.09 z M 170.73,169.47 C 171.24,169.53 171.31,169.47 171.43,168.74 170.96,168.71 170.8,168.88 170.73,169.47 z M 150.55,165.94 C 151.1,166.17 151.65,166.42 152.19,166.65 152.19,166.64 152.21,166.62 152.21,166.6 151.67,166.37 151.11,166.13 150.57,165.89 150.55,165.9 150.55,165.93 150.55,165.94 z" />
		 
		<!-- Prism Reference -->
		<cam mingh:cam="--verb EditSelectAll --verb ZoomSelection --verb FileSave" /> 
	 </g>

</svg>
