<svg
   xmlns:xlink="http://www.w3.org/1999/xlink"
   xmlns:svg="http://www.w3.org/2000/svg"
   xmlns="http://www.w3.org/2000/svg"
   xmlns:mingh="http://www.minghworld.com"
   width="300px"
   height="300px" >
	
	 <g>
		<!-- Paths -->
		<path style="stroke:#000;stroke-width:0.25px;" fill="none"
			d="M 150.13,123.09 C 149.5,123.07 148.88,123.2 148.31,123.46 146.85,124.1 145.86,125.66 145.91,127.25 145.3,126.61 144.65,126.01 143.88,125.59 141.59,124.37 138.93,123.99 136.38,124.31 135.35,124.43 134.87,124.62 134.22,125.46 132.76,127.33 131.76,129.57 131.5,131.93 131.34,133.14 131.54,134.34 131.91,135.5 132.04,135.92 132.2,136.35 132.41,136.75 139.2,148.59 146.06,160.41 152.88,172.25 153.6,173.48 154.63,174.54 155.81,175.34 157.74,176.48 160.0,177.0 162.22,176.9 163.28,176.85 164.72,176.83 165.35,176.15 166.9,174.46 167.95,172.29 168.38,170.03 168.73,168.42 168.54,166.75 167.97,165.21 167.87,164.93 167.73,164.64 167.6,164.37 161.18,153.19 154.72,142.05 148.28,130.87 148.68,131.04 149.1,131.16 149.53,131.21 151.18,131.43 152.89,130.51 153.63,129.03 154.43,127.52 154.12,125.54 152.91,124.34 152.19,123.58 151.16,123.13 150.13,123.09 z M 150.0,125.21 C 151.08,125.21 151.94,126.11 151.94,127.18 151.94,128.26 151.08,129.12 150.0,129.12 148.93,129.12 148.03,128.26 148.03,127.18 148.03,126.11 148.93,125.21 150.0,125.21 z" />
		 
		<path style="fill:#f00;stroke:none;"
			d="M 134.99,131.78 C 134.9,130.84 134.97,129.89 135.07,128.96 135.12,128.5 135.19,128.04 135.27,127.6 135.37,128.71 135.64,129.79 135.97,130.85 136.12,131.37 136.27,131.91 136.26,132.45 136.24,132.71 136.17,132.99 135.95,133.14 135.7,133.24 135.44,133.05 135.3,132.85 135.12,132.53 135.04,132.15 134.99,131.78 z M 137.7,130.66 C 137.37,129.92 137.14,129.15 136.88,128.38 136.73,127.94 136.58,127.5 136.43,127.06 137.15,127.88 137.88,128.68 138.58,129.51 138.9,129.91 139.2,130.34 139.34,130.84 139.41,131.12 139.36,131.45 139.14,131.65 138.88,131.81 138.53,131.7 138.31,131.52 138.05,131.28 137.86,130.97 137.7,130.66 z M 140.34,128.96 C 139.74,128.35 139.17,127.71 138.52,127.15 138.19,126.86 137.83,126.58 137.48,126.33 138.64,126.74 139.76,127.25 140.82,127.88 141.25,128.15 141.68,128.47 141.97,128.9 142.1,129.11 142.15,129.41 142.01,129.63 141.81,129.8 141.51,129.74 141.29,129.66 140.93,129.49 140.62,129.23 140.34,128.96 z M 142.07,127.22 C 141.17,126.72 140.25,126.25 139.27,125.95 138.88,125.82 138.47,125.79 138.08,125.7 139.45,125.79 140.82,125.98 142.1,126.48 142.55,126.67 143.01,126.89 143.39,127.23 143.51,127.36 143.71,127.54 143.65,127.72 143.57,127.92 143.26,127.76 143.09,127.72 142.74,127.59 142.4,127.4 142.07,127.22 z M 133.06,131.98 C 133.21,130.63 133.69,129.33 134.25,128.11 134.29,128.03 134.46,127.78 134.46,127.8 134.07,128.99 133.78,130.24 133.77,131.49 133.75,132.05 133.76,132.61 133.68,133.16 133.63,133.33 133.61,133.54 133.44,133.64 133.22,133.59 133.15,133.32 133.09,133.12 133.02,132.75 133.03,132.36 133.06,131.98 z M 150.82,137.41 C 151.68,138.9 152.54,140.38 153.4,141.87 153.53,142.12 153.17,142.1 153.03,142.01 152.39,141.7 151.95,141.08 151.68,140.44 151.3,139.37 151.13,138.36 150.82,137.41 z M 155.03,144.7 C 155.89,146.19 156.75,147.67 157.6,149.16 157.74,149.41 157.38,149.39 157.24,149.29 156.59,148.99 156.16,148.37 155.89,147.72 155.5,146.65 155.33,145.65 155.03,144.7 z M 159.24,151.99 C 160.09,153.47 160.95,154.95 161.81,156.44 161.95,156.7 161.58,156.67 161.44,156.58 160.8,156.27 160.37,155.66 160.1,155.02 159.72,153.95 159.54,152.94 159.24,151.99 z M 140.76,149.12 C 139.91,147.65 139.06,146.17 138.2,144.7 138.46,145.08 138.82,145.36 139.15,145.67 139.84,146.3 140.55,146.96 140.9,147.84 141.05,148.23 141.15,148.68 141.04,149.09 141.01,149.27 140.82,149.3 140.76,149.12 z M 144.97,156.41 C 144.11,154.94 143.26,153.46 142.41,151.99 142.67,152.36 143.03,152.65 143.36,152.96 144.05,153.58 144.76,154.24 145.11,155.13 145.26,155.52 145.36,155.96 145.25,156.38 145.22,156.56 145.03,156.58 144.97,156.41 z M 149.17,163.7 C 148.32,162.22 147.47,160.75 146.62,159.27 146.86,159.64 147.21,159.91 147.52,160.2 148.21,160.83 148.93,161.49 149.3,162.37 149.46,162.78 149.57,163.25 149.45,163.68 149.41,163.86 149.24,163.86 149.17,163.7 z M 149.81,135.65 C 149.93,136.45 149.61,137.04 149.03,137.62 147.65,139.19 145.88,140.41 144.06,141.43 142.43,142.3 140.72,143.06 138.88,143.34 138.28,143.4 137.74,143.45 137.19,142.93 137.29,143.23 137.51,143.58 137.78,143.81 138.95,144.85 140.45,145.53 141.44,146.78 142.18,147.67 142.43,148.96 142.03,150.06 141.94,150.32 141.88,150.6 141.47,150.37 141.58,150.68 141.77,150.89 142.0,151.09 143.17,152.14 144.63,152.85 145.63,154.09 146.37,154.98 146.6,156.23 146.25,157.34 146.18,157.57 146.04,157.86 145.69,157.65 145.88,157.92 145.96,158.17 146.19,158.37 147.36,159.42 148.85,160.13 149.85,161.37 150.59,162.26 150.79,163.51 150.44,164.62 150.37,164.86 150.25,165.15 149.91,164.93 150.03,165.23 150.17,165.59 150.5,165.75 151.33,166.11 152.29,165.86 153.13,165.65 155.8,164.87 158.27,163.51 160.44,161.78 161.34,161.01 162.32,160.19 162.81,159.09 163.07,158.59 162.77,158.09 162.5,157.65 162.52,157.97 162.32,158.04 162.1,158.0 160.92,157.83 159.9,156.97 159.47,155.87 158.89,154.43 159.0,152.85 158.72,151.34 158.67,150.98 158.53,150.67 158.31,150.37 158.32,150.69 158.14,150.76 157.91,150.71 156.73,150.55 155.68,149.69 155.25,148.59 154.67,147.15 154.78,145.56 154.5,144.06 154.45,143.7 154.31,143.41 154.1,143.09 154.1,143.4 153.95,143.48 153.72,143.43 152.53,143.28 151.5,142.42 151.06,141.31 150.48,139.87 150.56,138.28 150.28,136.78 150.23,136.36 150.02,136.0 149.81,135.65 z M 148.13,138.96 C 148.7,138.9 149.08,139.59 148.53,140.18 148.89,139.93 149.19,140.09 149.35,140.37 149.51,140.67 149.51,141.13 149.22,141.37 149.97,140.83 150.46,142.07 149.91,142.53 150.66,141.99 151.12,143.26 150.56,143.71 151.31,143.18 151.81,144.41 151.25,144.87 152.0,144.33 152.46,145.57 151.91,146.03 152.66,145.49 153.15,146.76 152.6,147.21 153.35,146.68 153.84,147.91 153.28,148.37 154.03,147.83 154.49,149.1 153.94,149.56 154.69,149.02 155.18,150.26 154.63,150.71 155.38,150.18 155.84,151.45 155.28,151.9 156.03,151.37 156.52,152.6 155.97,153.06 156.72,152.52 157.21,153.76 156.66,154.21 157.41,153.68 157.87,154.95 157.31,155.4 158.06,154.87 158.56,156.1 158.0,156.56 158.75,156.02 159.21,157.29 158.66,157.75 159.41,157.21 159.9,158.45 159.35,158.9 160.1,158.37 160.59,159.6 160.03,160.06 161.08,159.49 161.21,161.22 160.35,161.53 156.07,154.12 151.81,146.71 147.53,139.31 147.74,139.09 147.94,138.98 148.13,138.96 z M 144.94,141.18 C 145.08,141.43 145.23,141.68 145.38,141.93 146.1,142.14 146.84,142.34 147.53,142.53 147.39,143.3 147.21,144.03 147.03,144.78 147.18,145.03 147.33,145.28 147.47,145.53 147.29,145.63 147.09,145.74 146.91,145.84 146.76,145.59 146.65,145.37 146.5,145.12 145.77,144.9 145.02,144.63 144.28,144.37 144.47,143.67 144.66,142.98 144.85,142.25 144.7,142.0 144.55,141.74 144.41,141.5 144.59,141.39 144.76,141.29 144.94,141.18 z M 141.5,142.81 C 145.78,150.21 150.04,157.59 154.31,165.0 154.2,165.04 154.08,165.08 153.97,165.12 153.74,165.22 153.47,165.19 153.25,165.06 153.04,164.93 152.87,164.72 152.88,164.46 152.88,164.25 153.03,164.07 153.22,164.0 152.96,164.07 152.68,163.98 152.47,163.81 152.3,163.67 152.2,163.47 152.22,163.25 152.24,163.05 152.39,162.91 152.56,162.84 152.31,162.91 152.02,162.82 151.81,162.65 151.65,162.51 151.51,162.31 151.53,162.09 151.55,161.89 151.7,161.72 151.88,161.65 151.62,161.73 151.33,161.67 151.13,161.5 150.96,161.36 150.82,161.13 150.85,160.9 150.86,160.71 151.04,160.56 151.22,160.5 150.96,160.57 150.68,160.48 150.47,160.31 150.3,160.17 150.17,159.97 150.19,159.75 150.21,159.55 150.36,159.38 150.53,159.31 150.28,159.38 149.99,159.32 149.78,159.15 149.61,159.01 149.48,158.78 149.5,158.56 149.52,158.36 149.67,158.22 149.85,158.15 149.59,158.23 149.3,158.13 149.1,157.96 148.93,157.83 148.82,157.63 148.85,157.4 148.86,157.21 149.01,157.03 149.19,156.96 148.93,157.04 148.64,156.98 148.44,156.81 148.27,156.67 148.13,156.44 148.16,156.21 148.18,156.02 148.33,155.88 148.5,155.81 148.24,155.88 147.96,155.82 147.75,155.65 147.58,155.51 147.45,155.28 147.47,155.06 147.49,154.86 147.67,154.72 147.85,154.65 147.59,154.73 147.3,154.63 147.1,154.46 146.93,154.33 146.79,154.13 146.81,153.9 146.83,153.71 146.98,153.53 147.16,153.46 146.9,153.54 146.61,153.48 146.41,153.31 146.24,153.17 146.1,152.94 146.13,152.71 146.14,152.52 146.29,152.38 146.47,152.31 146.21,152.38 145.93,152.29 145.72,152.12 145.55,151.98 145.45,151.78 145.47,151.56 145.49,151.36 145.64,151.19 145.81,151.12 145.56,151.2 145.27,151.13 145.06,150.96 144.9,150.83 144.76,150.59 144.78,150.37 144.8,150.18 144.95,150.03 145.13,149.96 144.87,150.04 144.58,149.95 144.38,149.78 144.21,149.64 144.07,149.44 144.1,149.21 144.11,149.02 144.29,148.84 144.47,148.78 144.21,148.85 143.89,148.79 143.69,148.62 143.52,148.48 143.42,148.28 143.44,148.06 143.46,147.86 143.61,147.69 143.78,147.62 143.53,147.7 143.24,147.63 143.03,147.46 142.86,147.33 142.73,147.09 142.75,146.87 142.77,146.68 142.92,146.53 143.1,146.46 142.84,146.54 142.55,146.45 142.35,146.28 142.18,146.14 142.07,145.94 142.1,145.71 142.11,145.52 142.26,145.34 142.44,145.28 142.18,145.35 141.86,145.29 141.66,145.12 141.49,144.98 141.38,144.75 141.41,144.53 141.43,144.33 141.58,144.19 141.75,144.12 141.49,144.2 141.21,144.11 141.0,143.93 140.84,143.79 140.69,143.56 140.72,143.34 140.74,143.16 140.9,143.03 141.06,142.96 141.21,142.91 141.36,142.86 141.5,142.81 z M 153.69,143.75 C 153.93,143.74 154.07,144.0 154.19,144.18 154.31,144.41 154.43,144.65 154.47,144.9 154.51,145.12 154.48,145.36 154.28,145.5 153.94,145.71 153.52,145.73 153.13,145.68 153.18,145.19 153.28,144.7 153.41,144.21 153.47,144.05 153.5,143.82 153.69,143.75 z M 148.53,145.56 C 148.72,145.54 148.92,145.62 149.03,145.78 149.28,146.11 149.07,146.61 148.72,146.78 148.42,146.95 147.97,146.84 147.85,146.5 147.69,146.07 148.11,145.6 148.53,145.56 z M 149.78,146.21 C 150.02,146.16 150.29,146.24 150.41,146.46 150.55,146.71 150.47,147.04 150.28,147.25 150.05,147.53 149.56,147.61 149.31,147.31 149.06,146.99 149.24,146.5 149.56,146.31 149.63,146.26 149.71,146.23 149.78,146.21 z M 146.94,146.46 C 147.01,146.45 147.06,146.46 147.13,146.46 147.44,146.47 147.74,146.77 147.69,147.09 147.63,147.59 146.98,147.87 146.56,147.59 146.29,147.43 146.24,147.02 146.44,146.78 146.56,146.61 146.74,146.5 146.94,146.46 z M 148.35,147.15 C 148.54,147.11 148.75,147.16 148.91,147.31 149.17,147.56 149.09,148.0 148.81,148.21 148.53,148.47 147.99,148.47 147.78,148.12 147.73,148.04 147.72,147.94 147.72,147.84 147.73,147.49 148.02,147.21 148.35,147.15 z M 149.75,147.81 C 149.88,147.78 150.0,147.81 150.13,147.87 150.45,148.01 150.53,148.44 150.35,148.71 150.26,148.86 150.1,148.96 149.94,149.03 149.63,149.16 149.22,149.02 149.13,148.68 149.02,148.28 149.37,147.88 149.75,147.81 z M 146.97,147.96 C 147.09,147.97 147.18,148.0 147.28,148.06 147.58,148.21 147.64,148.62 147.44,148.87 147.17,149.26 146.5,149.29 146.25,148.87 146.2,148.78 146.18,148.66 146.19,148.56 146.23,148.19 146.62,147.95 146.97,147.96 z M 148.38,148.68 C 148.63,148.7 148.91,148.86 148.97,149.12 149.07,149.54 148.66,149.94 148.25,149.93 148.0,149.94 147.72,149.8 147.63,149.56 147.49,149.2 147.78,148.8 148.13,148.71 148.21,148.69 148.29,148.68 148.38,148.68 z M 151.47,148.93 C 151.53,149.0 151.6,149.09 151.69,149.12 151.87,149.1 152.03,148.97 152.22,148.96 152.52,148.93 152.77,149.17 152.88,149.43 153.11,150.01 152.95,150.64 152.97,151.25 152.98,152.15 153.14,153.05 153.44,153.9 152.58,154.47 151.64,155.0 150.72,155.43 150.66,155.36 150.6,155.28 150.53,155.21 150.09,154.7 149.57,154.28 149.16,153.75 148.87,153.36 148.62,152.94 148.53,152.46 148.41,152.48 148.28,152.49 148.16,152.46 147.95,152.42 147.79,152.27 147.69,152.09 147.53,151.82 147.48,151.49 147.53,151.18 147.65,151.13 147.76,151.08 147.88,151.03 147.95,151.09 148.03,151.15 148.13,151.18 148.26,151.19 148.4,151.15 148.53,151.12 148.75,151.06 148.97,151.06 149.16,151.18 149.39,151.34 149.55,151.62 149.6,151.9 149.45,152.03 149.33,152.18 149.16,152.28 149.23,152.52 149.35,152.74 149.47,152.96 149.73,153.43 150.15,153.78 150.6,154.06 150.62,153.33 150.55,152.48 150.35,151.53 150.26,151.55 150.16,151.56 150.06,151.56 149.82,151.55 149.59,151.39 149.47,151.18 149.3,150.91 149.28,150.58 149.35,150.28 149.46,150.21 149.58,150.15 149.69,150.09 149.77,150.16 149.86,150.23 149.97,150.25 150.08,150.22 150.17,150.19 150.28,150.15 150.49,150.07 150.74,150.03 150.94,150.15 151.19,150.31 151.33,150.59 151.38,150.87 151.25,151.01 151.1,151.14 150.94,151.25 151.19,152.15 151.35,152.99 151.35,153.75 151.67,153.57 151.97,153.38 152.28,153.18 152.28,153.14 152.29,153.1 152.28,153.06 152.24,152.49 152.29,151.93 152.35,151.37 152.37,151.09 152.45,150.81 152.41,150.53 152.41,150.38 152.28,150.33 152.16,150.4 151.9,150.49 151.57,150.5 151.38,150.28 151.12,149.97 151.1,149.53 151.16,149.15 151.27,149.08 151.37,149.01 151.47,148.93 z M 142.31,150.31 C 142.48,150.26 142.65,150.3 142.81,150.34 143.29,150.47 143.77,150.64 144.22,150.84 144.19,150.93 144.14,151.01 144.1,151.09 143.95,151.33 143.78,151.57 143.53,151.71 143.4,151.8 143.21,151.79 143.06,151.71 142.76,151.55 142.55,151.28 142.38,151.0 142.31,150.87 142.22,150.73 142.19,150.59 142.16,150.48 142.2,150.35 142.31,150.31 z M 157.97,151.03 C 158.18,151.09 158.3,151.29 158.41,151.46 158.56,151.75 158.69,152.04 158.69,152.37 158.7,152.54 158.62,152.72 158.47,152.81 158.13,152.99 157.72,153.01 157.35,152.96 157.37,152.74 157.4,152.5 157.44,152.28 157.52,151.91 157.58,151.56 157.72,151.21 157.76,151.11 157.85,151.0 157.97,151.03 z M 153.94,154.93 C 154.13,154.91 154.32,154.99 154.44,155.15 154.69,155.48 154.48,155.95 154.13,156.12 153.83,156.29 153.38,156.22 153.25,155.87 153.1,155.44 153.51,154.97 153.94,154.93 z M 155.19,155.59 C 155.42,155.54 155.7,155.62 155.81,155.84 155.96,156.09 155.88,156.41 155.69,156.62 155.46,156.91 154.97,156.99 154.72,156.68 154.47,156.37 154.65,155.87 154.97,155.68 155.04,155.64 155.11,155.61 155.19,155.59 z M 152.35,155.84 C 152.41,155.83 152.5,155.83 152.56,155.84 152.88,155.85 153.15,156.12 153.1,156.43 153.04,156.93 152.38,157.21 151.97,156.93 151.7,156.77 151.65,156.39 151.85,156.15 151.97,155.99 152.14,155.87 152.35,155.84 z M 153.97,156.5 C 154.1,156.51 154.21,156.59 154.31,156.68 154.58,156.94 154.5,157.38 154.22,157.59 153.93,157.84 153.4,157.85 153.19,157.5 153.14,157.41 153.13,157.31 153.13,157.21 153.14,156.8 153.58,156.46 153.97,156.5 z M 155.35,157.15 C 155.41,157.16 155.47,157.19 155.53,157.21 155.85,157.36 155.93,157.81 155.75,158.09 155.67,158.24 155.5,158.34 155.35,158.4 155.04,158.54 154.62,158.4 154.53,158.06 154.42,157.65 154.77,157.26 155.16,157.18 155.22,157.17 155.28,157.15 155.35,157.15 z M 152.38,157.34 C 152.49,157.34 152.59,157.37 152.69,157.43 152.98,157.58 153.05,157.99 152.85,158.25 152.58,158.64 151.9,158.64 151.66,158.21 151.6,158.12 151.59,158.04 151.6,157.93 151.63,157.56 152.02,157.33 152.38,157.34 z M 146.56,157.59 C 146.72,157.57 146.88,157.62 147.03,157.65 147.5,157.78 147.96,157.92 148.41,158.12 148.36,158.24 148.32,158.36 148.25,158.46 148.1,158.69 147.91,158.91 147.66,159.03 147.51,159.1 147.33,159.05 147.19,158.96 146.92,158.8 146.72,158.54 146.56,158.28 146.48,158.13 146.42,157.98 146.41,157.81 146.39,157.7 146.45,157.6 146.56,157.59 z M 153.78,158.06 C 154.04,158.07 154.32,158.2 154.38,158.46 154.48,158.89 154.07,159.28 153.66,159.28 153.41,159.28 153.12,159.15 153.03,158.9 152.9,158.54 153.19,158.18 153.53,158.09 153.61,158.06 153.7,158.05 153.78,158.06 z M 155.28,159.06 C 155.43,159.31 155.58,159.56 155.72,159.81 156.45,160.02 157.15,160.22 157.85,160.4 157.7,161.17 157.55,161.94 157.38,162.68 157.52,162.93 157.64,163.18 157.78,163.43 157.6,163.54 157.44,163.64 157.25,163.75 157.11,163.5 156.96,163.24 156.81,163.0 156.08,162.77 155.33,162.54 154.6,162.28 154.78,161.58 154.98,160.85 155.16,160.12 155.01,159.87 154.86,159.62 154.72,159.37 154.9,159.27 155.1,159.17 155.28,159.06 z M 147.22,132.0 C 147.12,132.0 147.03,132.05 147.0,132.15 146.95,132.41 147.02,132.67 147.06,132.93 147.19,133.38 147.53,134.31 147.66,134.62 147.49,134.84 147.3,135.07 147.06,135.31 146.97,135.14 146.82,134.99 146.69,134.84 146.43,134.56 146.14,134.25 145.75,134.15 145.51,134.08 145.26,134.14 145.1,134.34 144.86,134.65 144.8,135.05 144.81,135.43 144.85,135.94 144.98,136.45 145.22,136.9 144.89,137.15 144.52,137.41 144.16,137.65 144.01,137.39 143.79,137.16 143.56,136.96 143.17,136.61 142.64,136.32 142.1,136.46 141.67,136.59 141.45,137.08 141.41,137.5 141.37,138.03 141.47,138.59 141.72,139.06 141.33,139.25 140.95,139.43 140.56,139.59 140.41,139.35 140.24,139.13 140.03,138.93 139.63,138.56 139.13,138.2 138.56,138.18 138.23,138.15 137.96,138.43 137.91,138.75 137.82,139.32 138.02,139.87 138.28,140.37 137.96,140.45 137.63,140.52 137.35,140.56 137.15,140.23 136.91,139.94 136.66,139.65 136.37,139.34 136.07,139.01 135.69,138.81 135.6,138.76 135.46,138.71 135.38,138.81 135.31,138.93 135.34,139.09 135.38,139.21 135.43,139.68 135.61,140.06 135.91,140.87 136.12,141.45 136.43,141.74 136.6,141.93 137.2,142.4 138.05,142.24 138.75,142.12 140.91,141.63 142.98,140.64 144.85,139.46 146.3,138.5 147.71,137.47 148.75,136.06 149.1,135.57 149.38,135.01 149.03,134.31 148.68,133.53 147.82,132.44 147.47,132.09 147.42,132.03 147.32,131.99 147.22,132.0 z M 148.31,134.37 C 148.42,134.35 148.65,134.37 148.75,134.4 148.76,134.51 148.62,134.67 148.63,134.78 148.65,135.09 148.75,135.4 148.69,135.71 148.67,135.83 148.59,135.92 148.5,136.0 148.4,136.1 148.23,136.1 148.1,136.12 148.03,136.15 148.09,136.09 148.1,136.06 148.19,135.83 148.19,135.61 148.19,135.37 148.18,135.24 148.16,135.1 148.16,134.96 148.15,134.82 148.12,134.67 148.16,134.53 148.19,134.46 148.24,134.4 148.31,134.37 z M 147.78,135.37 C 147.87,135.38 147.95,135.4 148.03,135.4 148.01,135.47 147.99,135.55 147.97,135.62 147.86,136.0 147.94,136.41 147.78,136.78 147.73,136.92 147.62,137.03 147.5,137.12 147.35,137.24 147.13,137.24 146.94,137.28 146.85,137.31 146.96,137.22 146.97,137.18 147.12,136.95 147.15,136.7 147.19,136.43 147.19,136.2 147.21,135.94 147.28,135.71 147.32,135.57 147.41,135.47 147.53,135.4 147.61,135.36 147.7,135.36 147.78,135.37 z M 146.47,136.5 C 146.63,136.47 146.81,136.53 146.97,136.53 146.93,136.62 146.89,136.72 146.85,136.81 146.68,137.17 146.68,137.59 146.47,137.93 146.39,138.09 146.24,138.19 146.1,138.28 145.9,138.41 145.67,138.43 145.44,138.46 145.33,138.5 145.45,138.41 145.47,138.37 145.65,138.15 145.74,137.86 145.81,137.59 145.84,137.36 145.87,137.12 145.97,136.9 146.03,136.74 146.17,136.64 146.31,136.56 146.37,136.53 146.42,136.5 146.47,136.5 z M 144.97,137.68 C 145.16,137.66 145.34,137.71 145.53,137.71 145.44,137.88 145.32,138.03 145.25,138.21 145.14,138.5 145.07,138.84 144.88,139.09 144.78,139.24 144.63,139.32 144.47,139.4 144.25,139.53 143.97,139.54 143.72,139.56 143.6,139.59 143.72,139.51 143.75,139.46 143.95,139.26 144.07,139.01 144.16,138.75 144.2,138.52 144.26,138.26 144.38,138.06 144.46,137.9 144.63,137.82 144.78,137.75 144.84,137.72 144.91,137.69 144.97,137.68 z M 143.22,138.81 C 143.43,138.79 143.64,138.83 143.85,138.84 143.81,138.88 143.78,138.92 143.75,138.96 143.65,139.1 143.54,139.25 143.47,139.4 143.35,139.66 143.29,139.91 143.1,140.12 142.98,140.26 142.82,140.37 142.66,140.43 142.42,140.54 142.16,140.53 141.91,140.53 141.79,140.55 141.91,140.47 141.94,140.43 142.14,140.25 142.25,139.99 142.35,139.75 142.39,139.53 142.47,139.33 142.6,139.15 142.69,139.0 142.84,138.9 143.0,138.84 143.07,138.81 143.15,138.81 143.22,138.81 z M 141.38,139.75 C 141.58,139.74 141.77,139.78 141.97,139.81 142.09,139.8 141.96,139.92 141.94,139.96 141.83,140.08 141.73,140.19 141.66,140.34 141.55,140.56 141.47,140.81 141.28,141.0 141.17,141.12 141.0,141.2 140.85,141.25 140.59,141.33 140.33,141.27 140.06,141.25 140.1,141.22 140.13,141.18 140.16,141.15 140.35,141.0 140.44,140.78 140.53,140.56 140.57,140.36 140.63,140.19 140.75,140.03 140.84,139.89 141.01,139.82 141.16,139.78 141.23,139.76 141.31,139.75 141.38,139.75 z M 139.6,140.46 C 139.78,140.47 139.95,140.55 140.13,140.59 140.28,140.6 140.16,140.69 140.1,140.75 139.9,140.92 139.84,141.18 139.72,141.4 139.63,141.58 139.46,141.74 139.25,141.78 138.99,141.84 138.72,141.75 138.47,141.68 138.67,141.58 138.77,141.35 138.85,141.15 138.88,140.96 138.93,140.77 139.06,140.62 139.21,140.49 139.41,140.45 139.6,140.46 z M 137.78,140.87 C 138.05,140.84 138.29,141.02 138.53,141.12 138.67,141.14 138.47,141.22 138.44,141.28 138.28,141.43 138.26,141.65 138.16,141.84 138.1,141.95 138.01,142.04 137.88,142.03 137.64,142.04 137.45,141.89 137.25,141.78 137.4,141.72 137.43,141.57 137.47,141.43 137.49,141.33 137.46,141.19 137.5,141.09 137.53,140.96 137.65,140.86 137.78,140.87 z M 136.5,140.93 C 136.55,140.92 136.61,140.92 136.66,140.93 136.86,141.01 137.01,141.19 137.19,141.31 137.25,141.32 137.23,141.38 137.19,141.4 137.11,141.46 137.11,141.56 137.1,141.65 137.08,141.74 137.06,141.85 137.0,141.93 136.97,141.98 136.92,141.96 136.88,141.93 136.71,141.85 136.59,141.67 136.47,141.53 136.54,141.51 136.5,141.42 136.5,141.37 136.5,141.28 136.48,141.18 136.47,141.09 136.47,141.03 136.44,140.97 136.5,140.93 z M 163.47,159.34 C 163.68,159.75 163.53,160.22 163.31,160.59 162.44,161.94 161.16,162.99 159.85,163.9 157.72,165.32 155.41,166.54 152.88,167.03 152.2,167.13 151.35,167.24 150.88,166.62 151.03,167.1 151.33,167.53 151.69,167.93 151.79,168.18 151.93,168.51 152.22,168.62 152.48,169.05 152.76,169.47 153.06,169.87 153.25,170.1 153.44,170.33 153.69,170.5 153.77,170.56 153.92,170.61 154.0,170.53 154.11,170.37 154.09,170.18 154.06,170.0 153.99,169.55 153.82,169.11 153.6,168.71 153.88,168.68 154.21,168.61 154.53,168.53 154.63,168.69 154.72,168.85 154.85,169.0 155.2,169.4 155.61,169.81 156.13,170.0 156.37,170.08 156.67,170.12 156.88,169.93 157.12,169.7 157.17,169.32 157.16,169.0 157.13,168.56 157.03,168.13 156.81,167.75 157.2,167.58 157.61,167.41 158.0,167.21 158.08,167.35 158.18,167.47 158.28,167.59 158.63,167.96 159.0,168.3 159.5,168.43 159.81,168.52 160.2,168.49 160.44,168.25 160.72,167.95 160.8,167.52 160.78,167.12 160.75,166.66 160.63,166.21 160.41,165.81 160.77,165.57 161.14,165.31 161.47,165.06 161.59,165.27 161.74,165.45 161.91,165.62 162.22,165.92 162.62,166.18 163.06,166.21 163.3,166.24 163.54,166.15 163.66,165.93 163.84,165.6 163.84,165.2 163.78,164.84 163.7,164.36 163.55,163.89 163.31,163.46 163.55,163.22 163.74,163.0 163.91,162.78 164.12,163.14 164.41,163.46 164.72,163.75 164.88,163.88 165.04,164.02 165.25,164.03 165.37,164.03 165.44,163.91 165.44,163.81 165.44,163.53 165.35,163.25 165.25,163.0 165.05,162.49 164.8,162.0 164.53,161.53 164.55,161.38 164.53,161.23 164.47,161.09 164.33,160.82 164.19,160.54 164.03,160.28 163.98,160.22 163.93,160.06 163.85,160.09 163.81,159.99 163.76,159.91 163.72,159.81 163.66,159.65 163.56,159.49 163.47,159.34 z M 163.72,160.25 C 163.75,160.24 163.79,160.26 163.81,160.28 163.91,160.5 164.03,160.77 164.13,161.03 164.04,160.94 163.94,160.89 163.81,160.87 163.76,160.85 163.71,160.9 163.66,160.9 163.66,160.85 163.66,160.8 163.66,160.75 163.64,160.6 163.61,160.45 163.66,160.31 163.67,160.28 163.69,160.25 163.72,160.25 z M 163.53,161.06 C 163.6,161.07 163.66,161.1 163.72,161.12 163.82,161.16 163.93,161.15 164.03,161.12 164.06,161.33 164.13,161.56 164.1,161.78 164.08,161.86 164.06,161.96 163.97,162.0 163.86,162.02 163.76,161.98 163.66,161.93 163.51,161.85 163.32,161.82 163.16,161.84 163.08,161.84 163.01,161.88 162.94,161.9 162.99,161.73 163.03,161.54 163.1,161.37 163.15,161.25 163.19,161.14 163.31,161.09 163.38,161.06 163.47,161.04 163.53,161.06 z M 163.44,162.09 C 163.42,162.23 163.45,162.36 163.44,162.5 163.43,162.66 163.37,162.84 163.25,162.96 163.16,163.07 163.01,163.11 162.88,163.09 162.72,163.08 162.57,162.97 162.41,162.96 162.19,162.93 161.98,162.96 161.78,163.06 161.87,162.88 161.93,162.7 162.03,162.53 162.13,162.38 162.24,162.22 162.41,162.15 162.6,162.08 162.81,162.13 163.0,162.15 163.16,162.18 163.29,162.13 163.44,162.09 z M 162.38,163.21 C 162.31,163.46 162.3,163.72 162.16,163.93 162.08,164.04 162.0,164.16 161.88,164.21 161.68,164.28 161.45,164.24 161.25,164.18 161.14,164.13 161.03,164.13 160.91,164.12 160.69,164.1 160.49,164.16 160.28,164.25 160.34,164.16 160.36,164.05 160.41,163.96 160.5,163.78 160.62,163.62 160.78,163.5 160.89,163.39 161.04,163.34 161.19,163.31 161.44,163.25 161.69,163.31 161.94,163.31 162.1,163.31 162.23,163.25 162.38,163.21 z M 160.94,164.4 C 160.85,164.63 160.83,164.86 160.69,165.06 160.59,165.19 160.46,165.3 160.31,165.37 160.09,165.45 159.85,165.41 159.63,165.34 159.52,165.29 159.4,165.29 159.28,165.28 159.04,165.25 158.8,165.27 158.56,165.34 158.75,165.1 158.85,164.86 159.13,164.68 159.26,164.58 159.42,164.49 159.6,164.46 159.93,164.4 160.26,164.51 160.6,164.46 160.72,164.44 160.82,164.43 160.94,164.4 z M 158.13,165.53 C 158.28,165.54 158.44,165.57 158.6,165.59 158.82,165.62 159.06,165.56 159.28,165.53 159.22,165.65 159.16,165.8 159.1,165.93 159.0,166.17 158.81,166.34 158.56,166.43 158.29,166.51 157.98,166.44 157.72,166.34 157.41,166.26 157.1,166.22 156.78,166.28 156.89,166.13 156.95,165.95 157.1,165.84 157.26,165.71 157.45,165.6 157.66,165.56 157.81,165.53 157.97,165.51 158.13,165.53 z M 156.0,166.4 C 156.26,166.41 156.5,166.48 156.75,166.53 156.99,166.58 157.24,166.54 157.47,166.53 157.4,166.65 157.35,166.78 157.28,166.9 157.18,167.13 156.96,167.28 156.72,167.34 156.43,167.38 156.14,167.27 155.88,167.15 155.58,167.05 155.26,166.99 154.94,167.03 155.04,166.92 155.11,166.78 155.22,166.68 155.37,166.56 155.57,166.48 155.75,166.43 155.84,166.42 155.92,166.4 156.0,166.4 z M 154.0,167.03 C 154.34,167.0 154.65,167.15 154.97,167.25 155.19,167.32 155.43,167.3 155.66,167.31 155.6,167.41 155.56,167.52 155.5,167.62 155.44,167.77 155.31,167.88 155.16,167.93 154.99,168.01 154.79,168.0 154.63,167.93 154.48,167.88 154.36,167.79 154.22,167.71 153.95,167.59 153.68,167.48 153.38,167.46 153.46,167.38 153.51,167.26 153.6,167.18 153.72,167.09 153.85,167.05 154.0,167.03 z M 151.41,167.21 C 151.55,167.22 151.65,167.29 151.75,167.37 152.01,167.57 152.23,167.83 152.53,167.96 152.57,168.0 152.69,168.0 152.66,168.06 152.63,168.15 152.63,168.26 152.56,168.34 152.49,168.39 152.38,168.39 152.31,168.34 152.14,168.22 152.01,168.06 151.88,167.9 151.73,167.75 151.66,167.57 151.41,167.21 z M 152.41,167.31 C 152.46,167.3 152.54,167.31 152.6,167.31 152.9,167.35 153.16,167.52 153.44,167.65 153.62,167.74 153.8,167.8 154.0,167.84 153.93,167.97 153.92,168.13 153.81,168.25 153.73,168.33 153.59,168.35 153.47,168.34 153.23,168.28 153.03,168.12 152.85,167.96 152.62,167.8 152.39,167.66 152.13,167.56 152.17,167.5 152.2,167.42 152.25,167.37 152.3,167.34 152.35,167.32 152.41,167.31 z M 162.97,175.79 C 162.74,175.82 162.5,175.83 162.27,175.8 161.53,175.73 160.79,175.55 160.12,175.23 159.88,175.11 159.63,174.96 159.48,174.73 159.38,174.56 159.51,174.32 159.7,174.28 159.95,174.24 160.21,174.31 160.45,174.39 160.93,174.58 161.33,174.91 161.73,175.22 162.1,175.49 162.52,175.71 162.97,175.79 z M 162.76,174.07 C 162.62,173.88 162.51,173.65 162.51,173.41 162.53,173.19 162.64,172.97 162.81,172.84 162.97,172.72 163.19,172.72 163.38,172.76 163.6,172.8 163.75,172.98 163.87,173.16 164.1,173.54 164.15,173.99 164.22,174.42 164.25,174.71 164.28,174.99 164.27,175.28 163.88,175.07 163.53,174.79 163.2,174.51 163.04,174.37 162.89,174.23 162.76,174.07 z M 165.58,174.1 C 165.52,174.19 165.41,174.36 165.38,174.39 165.57,173.85 165.53,173.26 165.44,172.71 165.38,172.29 165.34,171.86 165.43,171.44 165.49,171.19 165.56,170.93 165.76,170.76 165.92,170.65 166.17,170.74 166.23,170.93 166.35,171.3 166.31,171.71 166.25,172.09 166.13,172.79 165.91,173.47 165.58,174.1 z M 165.75,163.43 C 165.96,163.85 166.17,164.29 166.28,164.75 166.33,164.98 166.37,165.25 166.25,165.46 166.16,165.63 165.96,165.67 165.78,165.65 165.44,165.62 165.15,165.44 164.88,165.25 164.9,165.34 164.9,165.43 164.91,165.53 164.97,166.11 165.0,166.69 164.69,167.21 164.48,167.57 164.12,167.83 163.72,167.9 163.19,168.0 162.64,167.82 162.19,167.56 162.21,168.01 162.15,168.48 161.97,168.9 161.75,169.46 161.25,169.92 160.66,170.06 159.96,170.23 159.22,170.0 158.63,169.62 158.63,170.15 158.52,170.71 158.16,171.12 157.86,171.48 157.37,171.67 156.91,171.62 156.29,171.55 155.74,171.18 155.28,170.78 155.32,171.11 155.33,171.47 155.19,171.78 155.12,171.94 154.97,172.09 154.78,172.09 154.55,172.09 154.33,171.92 154.16,171.78 153.8,171.45 153.52,171.05 153.25,170.65 153.39,170.98 153.57,171.31 153.75,171.62 153.96,171.94 154.1,172.3 154.31,172.62 154.6,172.92 154.92,173.18 155.19,173.5 155.46,173.87 155.89,174.08 156.25,174.34 156.3,174.27 156.39,174.28 156.47,174.28 156.94,174.3 157.39,174.48 157.81,174.68 158.18,174.87 158.53,175.05 158.91,175.21 158.68,175.07 158.44,174.9 158.38,174.62 158.32,174.36 158.51,174.1 158.72,173.96 159.16,173.69 159.68,173.62 160.19,173.65 160.74,173.68 161.25,173.93 161.69,174.25 161.5,173.98 161.41,173.63 161.5,173.31 161.63,172.87 161.98,172.56 162.35,172.31 162.77,172.03 163.27,171.83 163.78,171.87 164.18,171.9 164.5,172.17 164.66,172.53 164.61,172.04 164.63,171.55 164.81,171.09 165.03,170.59 165.37,170.14 165.85,169.87 166.06,169.74 166.37,169.65 166.6,169.81 166.84,169.99 166.87,170.33 166.88,170.62 166.91,170.31 166.96,170.0 166.97,169.68 167.0,169.16 167.04,168.61 167.25,168.12 167.31,168.01 167.34,167.89 167.47,167.87 167.44,167.53 167.48,167.18 167.41,166.84 167.23,166.38 167.11,165.91 167.0,165.43 166.87,165.05 166.58,164.69 166.38,164.34 166.21,164.02 165.96,163.73 165.75,163.43 z M 166.69,165.93 C 166.73,165.91 166.8,165.91 166.85,165.93 167.0,166.07 167.06,166.27 167.13,166.46 167.22,166.75 167.28,167.07 167.28,167.37 167.28,167.49 167.29,167.61 167.22,167.71 167.18,167.81 167.06,167.81 167.0,167.75 166.82,167.53 166.72,167.26 166.66,167.0 166.6,166.69 166.55,166.36 166.63,166.06 166.63,166.01 166.65,165.96 166.69,165.93 z M 166.06,166.93 C 166.13,166.9 166.21,166.9 166.28,166.93 166.48,167.02 166.56,167.22 166.63,167.4 166.72,167.67 166.77,167.96 166.72,168.25 166.69,168.44 166.62,168.67 166.44,168.78 166.31,168.86 166.14,168.79 166.03,168.68 165.83,168.47 165.74,168.16 165.72,167.87 165.71,167.6 165.73,167.32 165.88,167.09 165.91,167.02 166.0,166.97 166.06,166.93 z M 165.03,168.03 C 165.09,168.01 165.13,168.02 165.19,168.03 165.42,168.06 165.61,168.26 165.69,168.46 165.82,168.8 165.79,169.21 165.63,169.53 165.52,169.74 165.31,169.9 165.06,169.9 164.83,169.9 164.66,169.76 164.56,169.56 164.38,169.18 164.4,168.69 164.63,168.34 164.72,168.2 164.87,168.06 165.03,168.03 z M 163.6,169.21 C 163.9,169.17 164.22,169.35 164.35,169.62 164.57,170.07 164.38,170.68 163.94,170.93 163.69,171.09 163.32,171.07 163.1,170.87 162.83,170.64 162.78,170.23 162.88,169.9 162.97,169.56 163.24,169.26 163.6,169.21 z M 162.0,170.34 C 162.28,170.36 162.55,170.5 162.69,170.75 162.87,171.04 162.84,171.45 162.63,171.71 162.38,172.03 161.9,172.16 161.53,172.0 161.24,171.87 161.03,171.57 161.03,171.25 161.03,170.84 161.33,170.47 161.72,170.37 161.81,170.35 161.91,170.33 162.0,170.34 z M 159.88,171.37 C 160.26,171.3 160.69,171.45 160.91,171.78 161.07,172.01 161.08,172.35 160.91,172.59 160.71,172.87 160.36,172.99 160.03,172.93 159.67,172.88 159.31,172.61 159.22,172.25 159.15,171.97 159.3,171.65 159.53,171.5 159.64,171.42 159.75,171.39 159.88,171.37 z M 158.19,172.12 C 158.55,172.13 158.9,172.3 159.13,172.59 159.28,172.78 159.35,173.05 159.22,173.28 159.1,173.49 158.86,173.6 158.63,173.59 158.24,173.58 157.85,173.37 157.63,173.06 157.5,172.87 157.44,172.61 157.56,172.4 157.69,172.19 157.96,172.11 158.19,172.12 z M 156.28,172.59 C 156.37,172.57 156.45,172.57 156.53,172.59 156.9,172.66 157.23,172.87 157.47,173.15 157.59,173.3 157.72,173.48 157.69,173.68 157.68,173.82 157.54,173.94 157.41,173.96 157.18,174.0 156.95,173.92 156.75,173.81 156.49,173.66 156.24,173.42 156.1,173.15 156.02,173.02 155.97,172.85 156.06,172.71 156.12,172.64 156.2,172.61 156.28,172.59 z M 154.97,172.71 C 155.09,172.69 155.21,172.73 155.31,172.78 155.61,172.93 155.87,173.16 156.1,173.4 156.21,173.53 156.32,173.65 156.38,173.81 156.4,173.88 156.4,173.99 156.31,174.03 156.21,174.06 156.1,174.04 156.0,174.0 155.72,173.85 155.47,173.63 155.25,173.4 155.11,173.25 154.98,173.1 154.91,172.9 154.88,172.83 154.88,172.74 154.97,172.71 z M 137.78,125.28 C 137.19,125.29 136.59,125.34 136.0,125.43 135.71,125.48 135.44,125.64 135.25,125.87 133.79,127.67 132.75,129.86 132.53,132.18 132.41,133.04 132.57,133.91 132.78,134.75 132.78,134.67 132.88,134.7 132.91,134.75 133.06,134.92 133.16,135.1 133.25,135.31 133.39,135.62 133.5,135.96 133.53,136.31 133.54,136.37 133.57,136.53 133.47,136.5 133.53,136.59 133.57,136.68 133.63,136.78 133.9,137.28 134.22,137.74 134.53,138.21 134.48,138.05 134.34,137.73 134.31,137.53 134.31,137.42 134.39,137.29 134.5,137.28 134.7,137.24 134.91,137.3 135.1,137.37 135.64,137.6 136.12,137.95 136.56,138.34 136.53,137.99 136.55,137.62 136.72,137.31 136.94,136.9 137.37,136.67 137.81,136.62 138.55,136.53 139.29,136.8 139.91,137.18 139.91,136.89 139.94,136.59 140.03,136.31 140.24,135.62 140.81,135.04 141.5,134.84 142.16,134.63 142.89,134.78 143.47,135.12 143.45,134.52 143.54,133.94 143.81,133.4 144.04,132.97 144.41,132.56 144.91,132.46 145.35,132.37 145.81,132.55 146.16,132.81 146.05,132.25 145.97,131.69 146.03,131.12 146.06,130.91 146.09,130.67 146.22,130.5 146.29,130.39 146.44,130.39 146.53,130.46 146.74,130.6 146.89,130.8 147.03,131.0 146.92,130.76 146.81,130.54 146.69,130.31 146.5,129.93 146.27,129.55 146.06,129.18 146.07,129.25 146.01,129.24 145.97,129.21 145.74,129.07 145.55,128.89 145.38,128.68 145.18,128.45 145.0,128.19 144.88,127.9 144.84,127.85 144.81,127.69 144.91,127.75 144.33,127.18 143.71,126.64 142.97,126.31 141.35,125.55 139.57,125.23 137.78,125.28 z M 138.06,125.56 C 139.94,125.53 141.91,125.82 143.47,126.68 143.58,126.75 143.69,126.85 143.78,126.93 144.09,127.2 144.35,127.55 144.38,127.96 144.4,128.2 144.3,128.47 144.06,128.56 143.79,128.67 143.48,128.57 143.22,128.46 142.9,128.31 142.59,128.14 142.28,127.96 142.59,128.21 142.87,128.52 143.0,128.9 143.16,129.35 143.01,129.88 142.69,130.21 142.3,130.64 141.68,130.82 141.13,130.62 140.72,130.47 140.38,130.2 140.06,129.9 140.27,130.22 140.45,130.58 140.47,130.96 140.51,131.5 140.17,132.0 139.75,132.31 139.29,132.65 138.69,132.83 138.13,132.65 137.64,132.49 137.32,132.07 137.1,131.62 137.19,132.02 137.24,132.43 137.19,132.84 137.13,133.34 136.78,133.77 136.31,133.96 135.85,134.17 135.27,134.15 134.88,133.81 134.53,133.5 134.38,133.04 134.31,132.59 134.32,132.81 134.3,133.03 134.28,133.25 134.27,133.57 134.26,133.92 134.1,134.21 133.99,134.4 133.79,134.52 133.56,134.5 133.28,134.46 133.06,134.26 132.91,134.03 132.71,133.71 132.61,133.36 132.6,133.0 132.62,130.61 133.9,128.09 135.31,126.21 135.42,126.07 135.56,125.93 135.72,125.84 135.88,125.74 136.07,125.7 136.25,125.68 136.83,125.61 137.44,125.57 138.06,125.56 z M 144.75,128.46 C 144.8,128.46 144.86,128.48 144.91,128.5 145.12,128.57 145.29,128.74 145.44,128.9 145.58,129.06 145.69,129.24 145.78,129.43 145.86,129.6 145.92,129.78 145.88,129.96 145.86,130.06 145.79,130.13 145.69,130.12 145.5,130.1 145.33,129.96 145.19,129.84 144.93,129.6 144.73,129.33 144.63,129.0 144.59,128.85 144.58,128.69 144.66,128.56 144.69,128.51 144.7,128.47 144.75,128.46 z M 144.31,129.4 C 144.57,129.44 144.78,129.61 144.94,129.81 145.08,129.99 145.2,130.21 145.25,130.43 145.3,130.65 145.29,130.89 145.13,131.06 144.99,131.2 144.77,131.19 144.6,131.12 144.27,130.98 144.04,130.69 143.91,130.37 143.82,130.14 143.79,129.85 143.91,129.62 143.98,129.47 144.15,129.38 144.31,129.4 z M 143.19,130.5 C 143.51,130.47 143.82,130.65 144.0,130.9 144.15,131.1 144.22,131.34 144.22,131.59 144.23,131.86 144.11,132.16 143.85,132.28 143.58,132.4 143.25,132.3 143.03,132.12 142.7,131.85 142.5,131.38 142.63,130.96 142.7,130.71 142.92,130.51 143.19,130.5 z M 141.72,131.62 C 142.08,131.55 142.43,131.75 142.63,132.06 142.71,132.18 142.79,132.32 142.81,132.46 142.88,132.78 142.77,133.14 142.5,133.34 142.26,133.53 141.9,133.54 141.63,133.4 141.21,133.2 140.96,132.73 141.06,132.28 141.13,131.96 141.4,131.68 141.72,131.62 z M 140.19,132.68 C 140.52,132.69 140.84,132.89 141.0,133.18 141.13,133.4 141.19,133.66 141.13,133.9 141.05,134.28 140.7,134.6 140.31,134.59 139.82,134.6 139.37,134.19 139.31,133.71 139.25,133.32 139.49,132.88 139.88,132.75 139.98,132.7 140.08,132.68 140.19,132.68 z M 138.19,133.65 C 138.61,133.57 139.04,133.84 139.22,134.21 139.36,134.5 139.38,134.84 139.22,135.12 139.07,135.4 138.72,135.54 138.41,135.5 137.86,135.42 137.47,134.85 137.56,134.31 137.61,133.99 137.87,133.71 138.19,133.65 z M 136.47,134.37 C 136.89,134.35 137.28,134.65 137.44,135.03 137.59,135.36 137.58,135.81 137.28,136.06 137.05,136.26 136.69,136.22 136.44,136.06 136.05,135.81 135.81,135.33 135.91,134.87 135.96,134.6 136.2,134.39 136.47,134.37 z M 134.88,134.81 C 134.92,134.81 134.99,134.82 135.03,134.84 135.39,134.95 135.65,135.25 135.78,135.59 135.88,135.85 135.92,136.15 135.78,136.4 135.69,136.59 135.44,136.66 135.25,136.59 134.91,136.46 134.69,136.14 134.56,135.81 134.47,135.56 134.41,135.27 134.53,135.03 134.57,134.93 134.66,134.87 134.75,134.84 134.8,134.82 134.83,134.81 134.88,134.81 z M 133.6,134.93 C 133.65,134.92 133.7,134.91 133.75,134.93 134.08,135.12 134.28,135.49 134.41,135.84 134.44,135.93 134.46,136.02 134.47,136.12 134.5,136.3 134.53,136.5 134.41,136.65 134.32,136.73 134.18,136.71 134.1,136.65 133.78,136.43 133.62,136.07 133.5,135.71 133.44,135.5 133.36,135.25 133.44,135.03 133.46,134.97 133.54,134.95 133.6,134.93 z" />

		<!-- Prism Reference -->
		<cam mingh:cam="--verb EditSelectAll --verb ZoomSelection --verb FileSave" /> 
	 </g>

</svg>
