<svg
   xmlns:xlink="http://www.w3.org/1999/xlink"
   xmlns:svg="http://www.w3.org/2000/svg"
   xmlns="http://www.w3.org/2000/svg"
   xmlns:mingh="http://www.minghworld.com"
   width="300px"
   height="300px" >
	
	 <g>
		<!-- Paths -->
		<path style="stroke:#000;stroke-width:0.25px;" fill="none"
			d="M 149.19,124.24 C 147.1,124.24 145.4,125.93 145.4,128.02 145.4,128.97 145.79,129.82 146.37,130.49 146.07,130.67 145.78,130.89 145.56,131.17 144.95,131.21 144.36,131.44 143.87,131.8 143.57,131.64 143.23,131.53 142.9,131.46 141.71,131.2 140.47,131.85 139.87,132.89 139.23,133.98 139.01,135.38 139.62,136.52 136.41,145.97 132.95,155.33 129.69,164.77 129.44,165.51 129.76,166.41 130.47,166.77 136.04,169.67 141.64,172.56 147.22,175.46 148.01,176.0 149.2,175.82 149.72,174.99 155.44,166.96 161.09,158.88 166.87,150.89 167.34,150.89 167.82,150.79 168.25,150.58 169.34,150.03 170.21,148.95 170.37,147.71 170.55,146.48 169.8,145.24 168.69,144.71 168.69,143.98 168.45,143.4 168.19,142.96 168.27,142.69 168.34,142.39 168.34,142.11 168.36,141.28 167.97,140.47 167.4,139.89 166.74,139.19 165.73,138.86 164.78,139.02 164.84,138.01 164.4,137.0 163.65,136.33 162.66,135.46 161.17,135.31 159.97,135.8 159.78,135.4 159.51,135.03 159.19,134.74 158.35,133.96 157.18,133.51 156.03,133.67 155.91,132.74 155.31,131.92 154.5,131.46 153.45,130.93 152.17,130.85 151.06,131.27 152.18,130.61 152.97,129.41 152.97,128.02 152.97,125.93 151.27,124.24 149.19,124.24 z M 149.19,126.36 C 150.09,126.36 150.84,127.11 150.84,128.02 150.84,128.93 150.09,129.67 149.19,129.67 148.28,129.67 147.53,128.93 147.53,128.02 147.53,127.11 148.28,126.36 149.19,126.36 z" />
		
		<path style="fill:#f00;stroke:none;"
			d="M 145.48,153.46 C 145.67,153.21 145.77,152.87 145.8,152.54 145.82,152.38 145.73,152.25 145.55,152.17 145.29,152.67 145.0,153.25 144.74,153.75 145.04,153.85 145.29,153.7 145.48,153.46 z M 146.13,154.14 C 145.74,154.6 145.1,154.72 144.57,154.51 144.38,154.44 144.37,154.44 144.28,154.63 144.28,154.63 143.97,155.23 143.83,155.5 143.5,155.46 143.15,155.21 142.99,155.06 142.99,155.06 144.41,152.31 145.01,151.16 145.06,151.05 145.12,151.01 145.23,151.05 145.54,151.17 145.84,151.31 146.11,151.52 146.34,151.7 146.52,151.91 146.65,152.16 146.77,152.41 146.79,152.66 146.74,152.93 146.68,153.43 146.34,153.89 146.13,154.14 z M 150.52,154.69 C 150.36,154.9 150.2,155.12 150.06,155.35 149.93,155.57 149.81,155.81 149.69,156.05 149.56,156.32 149.44,156.59 149.33,156.87 149.28,156.98 149.23,157.11 149.2,157.23 149.18,157.33 149.2,157.43 149.28,157.49 149.34,157.55 149.43,157.52 149.53,157.42 149.63,157.3 149.73,157.18 149.82,157.04 149.97,156.82 150.12,156.59 150.25,156.36 150.52,155.88 150.7,155.35 150.87,154.87 150.91,154.75 150.9,154.61 150.73,154.57 150.65,154.56 150.56,154.63 150.52,154.69 z M 150.43,157.87 C 150.18,158.14 149.88,158.34 149.49,158.35 149.02,158.36 148.62,158.07 148.41,157.77 148.28,157.57 148.24,157.35 148.26,157.12 148.27,156.79 148.35,156.47 148.49,156.17 148.73,155.69 148.97,155.2 149.24,154.74 149.41,154.45 149.63,154.18 149.91,153.99 150.22,153.76 150.56,153.72 150.94,153.83 151.08,153.87 151.21,153.94 151.33,154.03 151.35,154.05 151.38,154.08 151.41,154.1 151.72,154.35 151.83,154.68 151.78,155.06 151.73,155.47 151.6,155.85 151.44,156.24 151.17,156.91 150.81,157.43 150.43,157.87 z M 148.77,154.83 C 148.57,154.74 148.37,154.63 148.18,154.52 148.03,154.43 148.02,154.36 148.09,154.2 148.19,153.99 148.29,153.78 148.38,153.56 148.44,153.41 148.4,153.3 148.32,153.27 148.18,153.25 148.06,153.34 147.99,153.46 147.87,153.64 147.75,153.81 147.65,153.99 147.45,154.37 147.26,154.75 147.06,155.13 146.91,155.4 146.81,155.68 146.73,155.98 146.69,156.1 146.72,156.21 146.8,156.26 146.89,156.27 146.94,156.22 147.02,156.16 147.1,156.05 147.18,155.94 147.25,155.82 147.34,155.66 147.41,155.5 147.5,155.35 147.55,155.25 147.6,155.22 147.69,155.27 147.93,155.38 148.17,155.51 148.4,155.63 148.48,155.67 148.49,155.74 148.45,155.82 148.21,156.3 147.92,156.74 147.45,157.02 147.22,157.15 146.98,157.16 146.73,157.11 146.39,157.04 146.12,156.86 145.92,156.58 145.82,156.44 145.76,156.28 145.76,156.11 145.76,155.44 145.99,154.92 146.25,154.39 146.44,154.0 146.65,153.62 146.9,153.27 147.14,152.91 147.44,152.58 147.89,152.46 148.01,152.43 148.15,152.41 148.27,152.42 148.64,152.47 148.96,152.62 149.17,152.95 149.32,153.18 149.37,153.45 149.34,153.71 149.29,154.11 149.12,154.48 148.95,154.86 148.89,154.88 148.81,154.85 148.77,154.83 z M 143.49,150.98 C 143.58,150.78 143.29,150.65 143.18,150.83 142.62,151.52 142.24,152.4 141.92,153.14 141.84,153.32 141.67,153.63 141.88,153.75 142.06,153.85 142.19,153.56 142.29,153.43 142.85,152.65 143.2,151.8 143.49,150.98 z M 141.46,151.65 C 141.66,151.25 141.86,150.84 142.18,150.52 142.44,150.24 142.74,149.93 143.14,149.89 143.81,149.82 144.49,150.42 144.43,151.1 144.34,151.96 143.91,152.74 143.49,153.48 143.25,153.87 142.95,154.25 142.54,154.49 141.91,154.79 141.05,154.4 140.9,153.71 140.8,153.29 140.95,152.86 141.07,152.47 141.17,152.18 141.3,151.91 141.46,151.65 z M 152.92,157.09 C 153.14,156.86 153.26,156.58 153.32,156.28 153.37,156.04 153.26,155.89 153.03,155.84 152.8,156.27 152.58,156.71 152.35,157.14 152.34,157.17 152.35,157.2 152.35,157.23 152.61,157.31 152.75,157.28 152.92,157.09 z M 152.55,160.12 C 152.33,160.03 152.1,159.94 151.88,159.84 151.74,159.78 151.72,159.72 151.75,159.57 151.81,159.31 151.87,159.04 151.93,158.77 151.98,158.53 152.04,158.29 152.09,158.05 152.11,158.0 152.06,157.94 152.04,157.91 152.0,157.87 151.95,157.9 151.93,157.95 151.83,158.14 151.74,158.33 151.65,158.51 151.55,158.72 151.45,158.93 151.34,159.14 151.3,159.23 151.22,159.26 151.14,159.22 150.91,159.11 150.69,158.98 150.47,158.85 150.45,158.84 150.44,158.82 150.41,158.78 150.43,158.73 150.45,158.67 150.48,158.62 151.17,157.27 151.82,156.11 152.43,154.87 152.52,154.7 152.53,154.69 152.71,154.74 153.18,154.88 153.63,155.06 153.96,155.43 154.3,155.81 154.4,156.25 154.25,156.75 154.15,157.06 153.98,157.32 153.8,157.57 153.65,157.79 153.42,157.93 153.17,157.98 153.01,158.02 152.97,158.1 152.95,158.23 152.89,158.67 152.82,159.1 152.76,159.54 152.72,159.73 152.69,159.92 152.65,160.11 152.62,160.14 152.57,160.13 152.55,160.12 z M 156.25,156.9 C 156.29,156.79 156.33,156.68 156.46,156.62 156.68,156.7 156.89,156.83 157.11,156.95 157.17,156.98 157.18,157.04 157.16,157.1 157.13,157.16 157.1,157.22 157.07,157.27 156.36,158.61 155.71,159.94 155.13,161.21 155.05,161.36 154.99,161.38 154.83,161.31 154.67,161.25 154.52,161.19 154.36,161.13 154.2,161.06 154.18,161.02 154.21,160.85 154.35,160.13 154.48,159.41 154.62,158.7 154.64,158.59 154.67,158.48 154.65,158.36 154.28,158.98 153.99,159.66 153.72,160.27 153.69,160.32 153.66,160.38 153.63,160.45 153.57,160.43 153.51,160.42 153.47,160.4 153.3,160.32 153.13,160.23 152.97,160.14 152.83,160.06 152.82,160.03 152.89,159.87 153.04,159.59 153.19,159.3 153.34,159.01 153.86,158.01 154.33,157.12 154.78,156.21 154.85,156.09 154.89,156.07 155.0,156.12 155.16,156.18 155.33,156.25 155.49,156.33 155.67,156.41 155.69,156.46 155.65,156.67 155.47,157.51 155.22,159.17 155.22,159.17 z M 139.85,151.22 C 140.01,151.31 140.2,151.28 140.35,151.13 140.67,150.85 140.84,150.35 140.92,150.07 140.96,149.87 140.95,149.67 140.74,149.55 140.6,149.68 139.93,150.94 139.85,151.22 z M 139.51,151.98 C 139.36,152.27 139.17,152.6 139.0,152.91 138.7,152.81 138.41,152.68 138.11,152.5 138.8,151.08 139.6,149.61 140.28,148.38 140.79,148.54 141.26,148.76 141.6,149.19 141.82,149.49 141.93,149.82 141.89,150.18 141.84,150.62 141.67,151.02 141.4,151.37 141.28,151.52 141.16,151.66 141.03,151.78 140.74,152.06 140.37,152.17 139.98,152.11 139.76,152.07 139.64,152.03 139.51,151.98 z M 166.07,149.39 C 160.22,157.61 154.26,165.9 148.44,174.08 148.33,174.24 148.27,174.25 148.1,174.17 142.34,171.17 136.44,168.11 131.25,165.41 131.18,165.37 131.14,165.32 131.17,165.23 134.63,155.26 138.33,145.04 141.29,136.47 141.37,136.32 141.27,136.17 141.17,136.06 140.88,135.7 140.77,135.22 140.81,134.77 140.97,133.59 141.57,132.77 142.71,132.95 143.36,133.1 143.74,133.54 143.96,133.95 143.96,133.95 144.17,133.61 144.32,133.47 144.64,133.1 145.06,132.8 145.56,132.74 145.88,132.69 146.21,132.77 146.52,132.86 146.61,132.53 146.69,132.17 146.97,131.94 147.37,131.59 147.95,131.53 148.45,131.66 149.05,131.79 149.47,132.37 149.53,132.97 149.59,133.52 149.38,134.06 149.17,134.57 149.54,134.77 149.73,134.98 149.88,135.18 150.0,135.02 150.08,134.84 150.25,134.73 150.43,134.61 150.63,134.48 150.71,134.26 150.9,133.86 151.13,133.47 151.46,133.16 152.05,132.62 152.57,132.47 153.21,132.61 153.57,132.7 153.94,132.86 154.17,133.17 154.57,133.67 154.55,134.11 154.47,134.55 154.94,134.73 155.29,135.02 155.48,135.5 156.22,135.05 156.94,135.12 157.64,135.52 158.35,135.92 158.76,136.54 158.79,137.38 159.37,137.07 159.94,137.24 160.39,137.56 160.66,137.31 160.99,137.08 161.37,137.06 162.78,137.12 163.42,138.25 163.18,139.42 163.08,139.88 162.82,140.29 162.63,140.71 162.57,140.93 162.66,141.16 162.57,141.38 162.52,141.5 162.51,141.63 162.48,141.75 162.81,141.76 163.09,141.81 163.37,141.95 163.51,141.76 163.6,141.54 163.76,141.37 164.09,140.94 164.56,140.58 165.11,140.53 165.61,140.49 166.11,140.72 166.41,141.11 166.75,141.51 166.9,142.09 166.69,142.58 166.6,142.79 166.44,142.96 166.28,143.13 166.84,143.49 167.11,144.08 167.13,144.67 167.14,145.1 167.03,145.52 166.86,145.86 167.31,145.88 167.78,145.92 168.16,146.18 168.57,146.44 168.88,146.92 168.83,147.42 168.79,147.9 168.57,148.41 168.23,148.74 167.93,149.04 167.58,149.25 167.15,149.32 166.87,149.38 166.59,149.35 166.31,149.29 166.2,149.25 166.14,149.29 166.07,149.39 z M 144.71,160.42 C 147.56,161.93 150.93,162.81 154.14,162.11 155.86,161.72 157.54,160.42 157.73,158.57 157.98,156.31 156.66,154.22 155.18,152.63 152.37,149.67 148.48,147.72 144.42,147.31 142.47,147.17 140.29,147.4 138.78,148.75 137.3,150.04 137.29,152.28 138.05,153.94 139.36,156.84 141.94,158.98 144.71,160.42 z M 133.01,165.84 C 133.2,165.94 133.24,165.89 133.31,165.72 134.84,161.58 136.36,157.93 137.7,154.27 137.74,154.18 137.73,154.1 137.7,154.02 137.17,152.83 137.05,151.71 137.3,150.57 137.65,148.98 138.74,148.07 140.21,147.47 140.3,147.43 140.36,147.38 140.4,147.29 141.67,144.05 142.93,140.63 144.04,137.85 144.48,136.78 143.57,135.7 142.56,135.8 142.45,135.81 142.34,135.84 142.24,135.89 141.95,136.03 141.78,136.27 141.68,136.58 138.32,146.21 134.66,156.32 131.61,165.07 132.11,165.35 132.59,165.62 133.01,165.84 z M 157.83,156.11 C 159.72,153.38 161.71,150.3 163.4,147.79 163.72,147.36 163.62,146.72 163.25,146.39 163.03,146.18 162.79,146.06 162.5,145.99 161.9,145.84 161.24,146.14 160.97,146.64 159.4,149.16 157.94,151.48 156.52,153.65 157.09,154.4 157.53,155.35 157.83,156.11 z M 145.67,147.11 C 145.78,147.12 145.82,147.1 145.86,146.99 146.89,144.74 147.95,142.27 148.89,140.28 148.94,140.15 149.01,140.01 149.01,139.87 149.03,139.16 148.6,138.57 147.9,138.37 147.58,138.28 147.29,138.33 147.01,138.47 146.89,138.54 146.77,138.64 146.7,138.76 146.55,138.99 146.44,139.24 146.33,139.49 145.24,142.05 144.22,144.69 143.27,146.9 144.12,146.92 144.91,146.99 145.67,147.11 z M 153.41,162.65 C 152.57,162.76 151.74,162.75 150.95,162.7 150.86,162.7 150.8,162.74 150.76,162.82 148.78,165.89 146.76,169.2 145.04,171.83 144.94,172.01 144.94,172.04 145.12,172.13 145.63,172.4 146.1,172.64 146.56,172.87 148.84,169.45 153.41,162.65 153.41,162.65 z M 140.75,158.35 C 140.8,158.26 140.79,158.2 140.71,158.12 140.17,157.6 139.67,157.1 139.23,156.59 137.74,160.01 136.29,163.62 134.99,166.71 134.95,166.79 134.97,166.85 135.04,166.89 135.54,167.17 136.1,167.43 136.56,167.65 138.0,164.46 139.47,161.13 140.75,158.35 z M 158.61,145.18 C 158.83,144.8 158.74,144.22 158.39,143.87 158.15,143.62 157.86,143.49 157.53,143.42 157.1,143.34 156.48,143.55 156.24,143.97 155.11,146.0 153.86,148.16 152.84,150.12 153.54,150.58 154.15,151.12 154.76,151.67 156.1,149.49 157.42,147.18 158.61,145.18 z M 150.45,148.71 C 150.57,148.76 150.59,148.76 150.66,148.65 151.75,146.56 152.8,144.52 153.79,142.62 153.86,142.48 153.88,142.33 153.87,142.17 153.86,141.93 153.78,141.7 153.64,141.5 153.38,141.13 153.01,140.93 152.57,140.87 151.99,140.79 151.49,141.19 151.33,141.6 150.33,143.7 149.23,145.95 148.32,147.8 149.06,148.06 149.79,148.41 150.45,148.71 z M 141.71,170.11 C 141.62,170.26 141.61,170.28 141.77,170.37 142.2,170.61 142.65,170.84 143.09,171.07 143.19,171.12 143.23,171.1 143.29,171.0 144.96,168.06 147.0,164.96 148.42,162.29 147.68,162.1 147.09,161.87 146.41,161.65 144.8,164.47 143.12,167.57 141.71,170.11 z M 138.35,168.42 C 138.29,168.54 138.3,168.58 138.41,168.64 138.89,168.9 139.37,169.14 139.78,169.35 139.84,169.38 139.88,169.36 139.91,169.3 141.44,166.39 143.02,163.34 144.37,160.71 143.74,160.35 143.12,160.0 142.59,159.66 141.22,162.67 139.62,165.7 138.35,168.42 z M 159.12,144.42 C 159.94,144.11 160.97,144.48 161.37,145.26 161.44,145.4 161.48,145.56 161.54,145.7 161.86,145.54 162.19,145.61 162.5,145.56 162.62,145.03 162.81,144.5 163.16,144.06 163.31,143.86 163.53,143.67 163.55,143.4 163.6,143.08 163.57,142.7 163.31,142.47 163.05,142.23 162.67,142.18 162.33,142.2 162.13,142.22 161.93,142.21 161.73,142.23 161.72,142.05 161.9,141.94 161.97,141.79 162.14,141.45 162.31,141.04 162.15,140.67 161.98,140.27 161.51,140.11 161.1,140.15 160.68,140.19 160.3,140.4 159.98,140.67 159.57,141.02 159.27,141.56 159.39,142.11 159.43,142.38 159.59,142.61 159.68,142.87 159.6,142.96 159.38,142.91 159.15,142.91 158.77,142.93 158.43,143.05 158.17,143.23 158.61,143.5 158.97,143.92 159.12,144.42 z M 151.42,137.87 C 151.87,137.61 152.13,137.1 152.17,136.59 152.22,136.09 152.11,135.57 151.79,135.18 151.55,134.86 151.08,134.72 150.71,134.9 150.48,135.02 150.29,135.22 150.19,135.46 150.1,135.65 150.0,135.84 149.91,136.04 149.71,135.94 149.72,135.68 149.56,135.53 149.35,135.23 149.06,134.91 148.66,134.9 148.35,134.88 148.06,135.05 147.85,135.28 147.7,135.38 147.65,135.57 147.62,135.74 147.47,136.34 147.15,136.89 146.72,137.32 146.54,137.5 146.77,137.68 146.81,137.86 146.85,137.94 146.88,138.02 146.91,138.1 147.43,137.88 147.91,137.91 148.39,138.17 148.87,138.43 149.19,138.81 149.34,139.36 149.54,139.31 149.73,139.23 149.95,139.22 150.27,139.22 150.59,139.31 150.87,139.46 150.95,139.51 151.03,139.57 151.13,139.55 151.09,139.08 150.94,138.68 150.61,138.35 150.55,138.3 150.48,138.25 150.49,138.13 150.8,138.04 151.13,138.03 151.42,137.87 z M 157.21,139.51 C 157.39,139.16 157.72,138.91 157.85,138.53 157.99,138.2 158.2,137.91 158.36,137.59 158.45,137.13 158.29,136.62 157.96,136.28 157.51,135.77 156.78,135.48 156.1,135.65 155.89,135.72 155.65,135.82 155.54,136.03 155.45,136.44 155.36,136.87 155.09,137.22 154.88,137.49 154.89,137.86 154.72,138.16 154.63,138.39 154.45,138.58 154.32,138.78 154.3,138.81 154.29,138.85 154.27,138.88 154.51,139.04 154.76,139.2 154.96,139.41 155.1,139.56 155.21,139.74 155.3,139.93 155.35,140.03 155.47,139.99 155.56,139.99 155.96,139.95 156.37,140.01 156.73,140.18 156.79,140.2 156.86,140.23 156.92,140.26 157.03,140.01 157.09,139.75 157.21,139.51 z M 168.05,148.29 C 168.27,147.97 168.43,147.59 168.4,147.2 168.39,146.91 168.18,146.66 167.93,146.52 167.17,146.12 166.54,146.18 165.97,146.61 166.34,145.91 166.91,145.17 166.68,144.33 166.5,143.57 165.65,143.1 164.9,143.31 163.85,143.57 163.02,144.62 162.93,145.69 163.46,145.96 163.76,146.36 163.95,146.85 163.96,145.93 164.2,145.0 164.71,144.23 164.87,143.99 165.17,143.78 165.47,143.89 165.87,144.01 165.97,144.48 165.9,144.85 165.7,145.63 165.31,146.24 165.01,146.89 165.37,146.87 165.71,146.87 166.05,146.92 166.42,146.97 166.82,147.02 167.13,147.23 167.43,147.42 167.51,147.87 167.27,148.13 167.04,148.36 166.7,148.33 166.41,148.37 166.39,148.5 166.38,148.61 166.36,148.72 166.34,148.87 166.36,148.89 166.5,148.92 167.08,149.08 167.71,148.77 168.05,148.29 z M 145.96,136.91 C 146.21,137.05 146.33,137.16 146.55,136.92 146.84,136.56 147.1,136.17 147.21,135.72 147.41,135.04 147.39,134.24 146.93,133.67 146.52,133.16 145.73,132.94 145.15,133.29 144.6,133.62 144.19,134.19 144.01,134.81 143.96,134.98 143.81,135.19 143.78,134.92 143.75,134.4 143.53,133.84 143.06,133.57 142.73,133.33 142.27,133.26 141.9,133.46 141.37,133.71 141.17,134.36 141.19,134.91 141.2,135.28 141.32,135.64 141.57,135.92 141.71,135.8 141.9,135.73 141.98,135.55 142.03,135.43 141.93,135.34 141.89,135.24 141.8,134.99 141.89,134.66 142.14,134.54 142.38,134.42 142.67,134.48 142.89,134.61 143.14,134.76 143.33,134.98 143.53,135.19 143.78,135.5 143.99,135.8 144.19,136.08 144.37,135.76 144.54,135.45 144.67,135.11 144.84,134.77 145.07,134.46 145.32,134.17 145.52,133.96 145.81,133.77 146.12,133.85 146.38,133.9 146.61,134.14 146.58,134.41 146.5,135.34 145.74,136.03 145.18,136.65 145.46,136.7 145.73,136.74 145.96,136.91 z M 153.96,139.91 C 154.32,140.2 154.49,140.79 154.02,141.12 153.98,141.14 153.95,141.18 153.92,141.2 154.03,141.43 154.13,141.65 154.23,141.87 154.47,141.82 154.7,141.78 154.94,141.73 155.07,141.21 155.21,140.65 154.97,140.14 154.7,139.62 154.22,139.19 153.64,139.08 153.42,138.91 153.84,138.7 153.95,138.56 154.36,138.04 154.67,137.38 154.54,136.72 154.47,136.27 154.24,135.81 153.8,135.63 153.46,135.47 153.06,135.61 152.8,135.85 152.53,135.96 152.56,136.25 152.58,136.49 152.56,137.13 152.25,137.81 151.7,138.17 151.82,138.3 151.98,138.28 152.13,138.38 152.21,138.21 152.29,138.05 152.34,137.87 152.47,137.52 152.66,137.19 152.86,136.88 153.02,136.66 153.25,136.45 153.53,136.44 153.71,136.43 153.83,136.6 153.85,136.76 153.93,137.31 153.75,137.85 153.54,138.35 153.35,138.82 153.04,139.18 152.77,139.47 153.21,139.4 153.64,139.67 153.96,139.91 z M 155.11,136.18 C 155.2,135.8 155.06,135.36 154.72,135.15 154.49,134.99 154.26,134.96 154.03,134.82 153.97,134.73 154.11,134.51 154.09,134.27 154.09,133.41 153.61,133.04 152.8,132.98 152.26,132.96 151.8,133.33 151.5,133.74 151.37,133.92 151.24,134.1 151.13,134.29 151.12,134.32 151.11,134.36 151.12,134.4 151.45,134.48 151.81,134.56 152.03,134.85 152.21,135.05 152.32,135.32 152.48,135.55 152.69,135.43 152.88,135.31 153.08,135.23 153.48,135.07 153.87,135.14 154.22,135.39 154.58,135.65 154.8,136.02 154.9,136.47 154.91,136.51 154.94,136.54 154.96,136.58 155.07,136.5 155.06,136.3 155.11,136.18 z M 159.7,138.26 C 159.95,138.33 160.18,138.47 160.34,138.67 160.54,138.91 160.65,139.22 160.64,139.53 160.64,139.63 160.65,139.73 160.65,139.83 160.96,139.76 161.26,139.71 161.57,139.78 161.89,139.85 162.13,140.03 162.4,140.27 162.74,139.65 163.03,138.84 162.64,138.17 162.35,137.73 161.82,137.39 161.28,137.47 160.9,137.57 160.64,137.89 160.41,138.19 160.15,137.99 159.89,137.79 159.58,137.7 159.1,137.59 158.57,137.89 158.42,138.35 158.83,138.23 159.28,138.12 159.7,138.26 z M 160.08,138.97 C 159.76,138.6 159.2,138.52 158.76,138.69 158.28,138.83 157.88,139.17 157.63,139.6 157.41,139.93 157.33,140.32 157.29,140.7 157.28,140.87 157.18,140.93 157.0,140.79 156.7,140.53 156.3,140.43 155.92,140.38 155.77,140.37 155.62,140.37 155.48,140.42 155.49,140.67 155.5,140.91 155.51,141.19 155.71,141.04 155.99,141.02 156.22,141.1 156.57,141.2 156.87,141.43 157.13,141.68 157.18,141.73 157.24,141.78 157.29,141.83 157.36,141.22 157.69,140.68 157.97,140.2 158.23,139.85 158.54,139.53 158.94,139.35 159.12,139.28 159.36,139.38 159.39,139.58 159.49,139.96 159.34,140.35 159.16,140.68 158.95,141.07 158.73,141.41 158.54,141.72 158.71,141.81 158.79,141.94 158.99,141.95 158.92,141.51 159.09,141.15 159.31,140.81 159.53,140.46 159.86,140.22 160.22,140.01 160.21,139.66 160.3,139.27 160.08,138.97 z M 165.88,142.88 C 166.11,142.77 166.3,142.54 166.36,142.29 166.45,141.87 166.23,141.43 165.91,141.17 165.52,140.87 164.93,140.86 164.54,141.16 164.18,141.42 163.9,141.8 163.72,142.2 163.7,142.36 163.79,142.49 163.9,142.6 164.19,142.17 164.57,141.71 165.12,141.65 165.5,141.6 165.91,142.03 165.7,142.39 165.61,142.58 165.42,142.7 165.28,142.85 165.55,142.9 165.68,142.94 165.88,142.88 z M 147.49,132.83 C 147.72,132.58 148.16,132.62 148.35,132.89 148.53,133.14 148.57,133.47 148.53,133.77 148.49,134.05 148.41,134.26 148.34,134.53 148.82,134.58 148.87,134.23 148.98,133.95 149.15,133.53 149.2,133.03 149.02,132.61 148.81,132.19 148.32,131.97 147.87,132.0 147.52,132.01 147.16,132.2 147.02,132.54 146.94,132.71 146.91,132.92 146.98,133.11 147.07,133.27 147.22,133.38 147.33,133.52 147.43,133.3 147.33,133.02 147.49,132.83 z" />
		 
		<!-- Prism Reference -->
		<cam mingh:cam="--verb EditSelectAll --verb ZoomSelection --verb FileSave " /> 
	 </g>

</svg>
