<svg
   xmlns:xlink="http://www.w3.org/1999/xlink"
   xmlns:svg="http://www.w3.org/2000/svg"
   xmlns="http://www.w3.org/2000/svg"
   xmlns:mingh="http://www.minghworld.com"
   width="300px"
   height="300px" >
	
	 <g>
		
		<!-- Paths -->
		<path transform="matrix(-1 0 0 1 300 0)" style="fill:#b4b4b4;stroke:none;"
		 d="M 149.94,123.22 C 148.48,123.32 147.12,124.24 146.53,125.59 145.82,127.12 146.2,129.07 147.44,130.22 146.79,130.09 146.12,129.95 145.47,129.81 144.92,129.72 144.37,129.49 143.81,129.63 143.33,129.75 143.06,130.22 142.91,130.66 138.35,142.13 133.78,153.59 129.22,165.06 129.09,165.39 128.97,165.71 128.84,166.03 128.78,166.26 128.6,166.47 128.66,166.72 128.87,167.22 129.19,167.68 129.5,168.13 130.01,168.84 130.53,169.55 131.09,170.22 131.86,171.13 132.58,172.2 133.69,172.72 140.47,174.03 147.22,175.37 154.0,176.69 154.21,176.73 154.44,176.76 154.66,176.78 155.38,176.87 156.11,176.6 156.63,176.09 156.93,175.82 157.1,175.43 157.25,175.06 161.75,164.43 166.22,153.78 170.72,143.16 171.05,142.48 171.37,141.8 171.34,141.03 171.37,139.54 170.22,138.51 169.31,137.47 168.14,136.12 166.84,134.69 165.09,134.13 160.6,133.07 156.08,132.14 151.56,131.13 152.0,130.98 152.42,130.76 152.78,130.47 154.04,129.51 154.59,127.77 154.19,126.25 153.79,124.61 152.28,123.34 150.59,123.22 150.38,123.2 150.15,123.2 149.94,123.22 z M 150.16,125.31 C 151.06,125.28 151.9,125.9 152.13,126.81 152.38,127.86 151.73,128.9 150.69,129.16 149.64,129.41 148.6,128.77 148.34,127.72 148.09,126.67 148.73,125.63 149.78,125.38 149.91,125.34 150.03,125.32 150.16,125.31 z" />

		<text id="txt" transform="matrix(1 0 0 1 150 160)" style="stroke:none;fill:#f00;font-family:'Eras Medium ITC';font-size:20px;text-anchor:middle"  ></text>
		
		<!-- Prism Reference -->
		<cam mingh:cam="--verb EditSelectAll --verb ZoomSelection --verb FileSave "/> 
	 </g>

</svg>