<svg
   xmlns:xlink="http://www.w3.org/1999/xlink"
   xmlns:svg="http://www.w3.org/2000/svg"
   xmlns="http://www.w3.org/2000/svg"
   xmlns:mingh="http://www.minghworld.com"
   width="300px"
   height="300px" >
	
	 <g>	
		<!-- Shape -->
		<path id="shape" style="fill:none;stroke:#000;stroke-width:0.25px;" class="shape"
			d="M 136.63,122.5 C 136.42,122.52 136.23,122.56 136.03,122.66 129.87,126.01 125.0,131.66 122.59,138.25 119.04,147.68 120.86,158.88 127.28,166.66 132.6,173.32 140.97,177.42 149.5,177.5 158.8,177.74 168.05,173.16 173.5,165.63 178.46,159.01 180.32,150.26 178.56,142.19 176.84,133.97 171.33,126.67 163.97,122.66 163.58,122.46 163.14,122.47 162.72,122.53 161.96,122.69 161.28,123.17 160.81,123.78 160.52,124.21 160.24,124.65 160.09,125.16 159.82,126.02 159.85,127.07 160.44,127.81 160.64,128.22 161.2,128.27 161.38,128.69 161.66,129.17 161.45,129.85 160.94,130.09 160.62,130.31 160.25,130.23 159.91,130.13 154.05,126.84 146.59,126.75 140.63,129.81 140.39,129.93 140.16,130.11 139.91,130.19 139.51,130.36 139.06,130.18 138.78,129.88 138.38,129.5 138.41,128.81 138.78,128.44 139.1,128.18 139.51,128.0 139.72,127.63 140.01,127.19 140.08,126.67 140.06,126.16 140.04,125.54 139.85,124.91 139.53,124.38 139.27,123.85 138.9,123.38 138.44,123.03 137.93,122.66 137.26,122.43 136.63,122.5 z M 150.0,129.63 C 151.01,129.63 151.84,130.43 151.84,131.44 151.84,132.44 151.01,133.28 150.0,133.28 148.99,133.28 148.19,132.44 148.19,131.44 148.19,130.43 148.99,129.63 150.0,129.63 z M 163.66,130.25 C 163.82,130.25 164.0,130.31 164.16,130.41 165.88,131.76 167.41,133.32 168.66,135.13 169.61,136.47 170.41,137.95 171.06,139.47 172.21,142.2 172.79,145.16 172.84,148.13 172.83,149.24 172.76,150.36 172.63,151.47 172.59,151.78 172.4,152.04 172.13,152.19 171.94,152.3 171.72,152.39 171.5,152.38 171.34,152.35 171.17,152.29 171.03,152.22 170.78,152.09 170.63,151.84 170.56,151.56 170.53,151.42 170.52,151.3 170.53,151.16 171.2,146.69 170.25,142.02 168.03,138.09 166.72,135.76 164.91,133.76 162.88,132.03 162.64,131.84 162.57,131.51 162.63,131.22 162.67,130.9 162.86,130.56 163.16,130.41 163.34,130.3 163.49,130.25 163.66,130.25 z M 136.13,130.31 C 136.43,130.28 136.79,130.33 137.03,130.53 137.29,130.75 137.37,131.08 137.38,131.41 137.32,131.69 137.21,131.97 137.0,132.16 135.82,133.16 134.67,134.24 133.72,135.47 130.22,139.82 128.67,145.64 129.44,151.16 129.43,151.23 129.47,151.29 129.47,151.38 129.53,152.0 129.19,152.23 128.66,152.34 127.89,152.51 127.51,152.21 127.38,151.47 127.16,150.09 127.09,148.68 127.19,147.28 127.42,140.83 130.6,134.55 135.66,130.53 135.79,130.41 135.95,130.33 136.13,130.31 z M 147.81,141.28 C 147.94,141.26 148.09,141.27 148.22,141.28 149.25,141.35 150.01,142.22 149.94,143.25 149.87,144.27 149.0,145.07 147.97,145.0 146.95,144.93 146.15,144.03 146.22,143.0 146.28,142.09 146.95,141.39 147.81,141.28 z M 150.5,145.19 C 150.81,145.16 151.03,145.27 151.25,145.5 151.33,145.57 151.45,145.7 151.5,145.81 151.58,146.01 151.57,146.06 151.53,146.53 151.4,147.69 151.28,148.81 151.16,149.94 151.11,150.46 151.08,150.52 150.59,150.94 149.37,152.04 148.17,153.16 147.28,153.81 146.62,154.09 146.52,153.59 146.75,153.28 L 149.84,149.88 150.09,148.13 149.38,148.53 149.25,149.38 147.94,150.63 147.53,148.84 145.28,153.75 C 145.17,154.01 144.7,153.93 144.69,153.5 L 146.47,147.53 C 146.55,147.27 146.75,147.08 146.91,146.94 147.15,146.7 147.6,146.44 148.06,146.19 148.73,145.86 149.48,145.52 150.16,145.28 150.27,145.24 150.4,145.21 150.5,145.19 z M 151.84,150.78 C 151.84,150.78 153.89,154.15 155.16,156.38 155.25,156.78 154.9,156.99 154.72,157.03 154.44,157.08 154.27,156.88 153.91,156.56 L 152.09,155.0 C 151.95,155.05 151.95,155.1 151.81,155.16 151.81,155.16 151.62,156.84 152.0,158.06 152.4,159.35 153.8,161.31 154.31,162.34 154.53,162.97 154.06,163.28 153.72,162.91 153.07,162.1 151.19,160.07 150.56,158.78 149.69,156.97 149.46,154.87 149.06,153.59 149.84,152.87 150.46,152.38 151.47,151.53 L 151.84,150.78 z M 154.94,150.81 C 155.07,150.81 155.23,150.91 155.31,151.16 155.48,152.52 155.48,153.78 155.59,155.19 155.56,155.29 155.49,155.25 155.38,155.09 L 154.41,153.09 C 154.31,152.89 154.27,152.85 154.28,152.78 L 154.66,151.16 C 154.71,150.92 154.81,150.81 154.94,150.81 z M 129.28,154.0 C 129.51,153.99 129.66,154.07 129.81,154.19 130.02,154.34 130.18,154.56 130.28,154.78 130.7,156.15 131.34,157.41 132.03,158.66 132.9,160.22 134.02,161.64 135.28,162.91 138.67,166.39 143.33,168.54 148.16,169.0 148.37,169.02 148.46,169.05 148.59,169.13 148.86,169.28 149.06,169.54 149.09,169.84 149.14,170.13 149.04,170.41 148.91,170.66 148.68,170.95 148.29,171.09 147.94,171.06 145.37,170.86 142.87,170.15 140.53,169.09 134.74,166.54 130.25,161.41 128.25,155.44 128.18,155.22 128.17,154.97 128.25,154.75 128.38,154.42 128.69,154.17 129.03,154.06 129.13,154.03 129.2,154.01 129.28,154.0 z M 170.75,154.03 C 171.32,154.06 171.57,154.46 171.69,154.75 171.78,154.97 171.79,155.21 171.72,155.44 169.49,162.41 163.68,168.11 156.66,170.19 155.15,170.65 153.57,170.94 152.0,171.06 151.52,171.11 151.02,170.79 150.91,170.31 150.83,170.02 150.9,169.69 151.06,169.44 151.19,169.22 151.4,169.05 151.66,169.0 155.31,168.71 158.91,167.39 161.91,165.28 165.04,163.07 167.59,160.02 169.06,156.47 169.31,155.91 169.49,155.35 169.72,154.78 169.93,154.22 170.23,154.0 170.75,154.03 z" />
		
		<path id="shapeMark" style="fill:#f00;stroke:none" class="shape"
			d="M 151.32,142.08 C 151.23,141.85 151.24,138.7 151.33,138.14 151.5,137.09 152.21,136.3 153.22,136.03 153.82,135.88 160.12,135.88 160.72,136.03 161.73,136.3 162.44,137.09 162.61,138.14 162.7,138.72 162.7,141.95 162.61,142.13 162.53,142.27 162.24,142.31 162.16,142.18 162.13,142.13 162.1,141.19 162.09,140.09 162.08,138.19 162.08,138.08 161.93,137.74 161.84,137.54 161.72,137.33 161.64,137.26 161.51,137.15 161.51,137.18 161.51,139.11 161.51,140.74 161.5,141.09 161.41,141.16 161.27,141.27 161.08,141.22 160.99,141.03 160.94,140.94 160.76,140.72 160.58,140.53 L 160.25,140.2 159.99,140.48 C 159.78,140.71 159.74,140.79 159.8,140.86 159.91,140.99 159.82,141.06 159.69,140.95 159.61,140.88 159.56,140.88 159.48,140.95 159.34,141.07 159.26,140.99 159.38,140.85 159.46,140.75 159.43,140.7 159.2,140.47 L 158.91,140.21 158.66,140.46 C 158.43,140.7 158.4,140.75 158.48,140.85 158.6,140.98 158.51,141.07 158.36,140.98 158.28,140.92 158.21,140.92 158.13,140.98 157.97,141.07 157.89,140.99 158.0,140.85 158.08,140.75 158.05,140.7 157.83,140.47 L 157.56,140.19 157.3,140.44 C 157.09,140.66 157.06,140.71 157.13,140.82 157.23,140.98 157.14,141.07 157.01,140.95 156.92,140.88 156.88,140.88 156.8,140.95 156.66,141.07 156.58,140.98 156.67,140.82 156.74,140.71 156.71,140.66 156.5,140.44 L 156.24,140.19 155.97,140.47 C 155.75,140.7 155.72,140.75 155.8,140.85 155.91,140.98 155.84,141.07 155.7,140.96 155.63,140.89 155.57,140.89 155.46,140.96 155.28,141.08 155.2,140.99 155.34,140.83 155.45,140.71 155.44,140.69 155.18,140.43 L 154.9,140.17 154.63,140.44 C 154.41,140.65 154.36,140.75 154.39,140.87 154.43,141.03 154.36,141.07 154.24,140.95 154.18,140.89 154.15,140.89 154.12,140.95 154.03,141.08 153.94,141.02 153.98,140.87 154.01,140.75 153.96,140.65 153.77,140.47 L 153.53,140.24 153.26,140.5 C 153.11,140.64 152.97,140.85 152.95,140.95 152.91,141.17 152.68,141.28 152.53,141.16 152.44,141.09 152.43,140.74 152.43,139.11 152.43,137.29 152.42,137.16 152.31,137.24 152.25,137.3 152.13,137.49 152.04,137.68 151.88,138.02 151.88,138.08 151.88,139.97 151.88,141.06 151.85,141.98 151.81,142.08 151.76,142.21 151.69,142.26 151.57,142.26 151.44,142.26 151.37,142.21 151.32,142.08 z M 154.73,140.06 154.25,139.58 153.67,140.08 154.18,140.57 z M 155.56,139.5 C 155.38,139.69 155.2,139.87 155.01,140.05 155.19,140.24 155.55,140.57 155.55,140.57 L 156.1,140.06 C 156.1,140.06 155.74,139.69 155.56,139.5 z M 158.25,139.5 C 158.06,139.69 157.7,140.05 157.7,140.05 L 158.24,140.57 C 158.24,140.57 158.61,140.24 158.79,140.06 158.61,139.87 158.43,139.69 158.25,139.5 z M 160.06,140.04 159.59,139.55 159.08,140.03 159.58,140.57 z M 160.93,139.59 160.39,140.07 160.93,140.62 z M 157.41,140.05 156.9,139.54 156.39,140.05 156.9,140.57 z M 153.0,139.71 152.98,140.5 153.39,140.1 z M 153.59,138.89 153.04,139.4 153.55,139.92 154.1,139.4 z M 155.45,139.38 154.9,138.86 154.35,139.4 154.89,139.9 z M 156.21,138.87 155.7,139.37 156.24,139.92 156.76,139.4 z M 157.58,138.88 C 157.58,138.88 157.22,139.22 157.04,139.4 157.21,139.57 157.55,139.92 157.55,139.92 L 158.1,139.38 z M 159.45,139.4 C 159.26,139.22 158.9,138.86 158.9,138.86 L 158.38,139.38 158.9,139.92 C 158.9,139.92 159.24,139.6 159.45,139.4 z M 160.78,139.44 160.24,138.89 159.72,139.4 160.24,139.91 z M 160.96,138.24 160.41,138.77 160.94,139.3 z M 154.77,138.71 154.24,138.2 153.71,138.75 154.22,139.23 z M 156.09,138.73 155.56,138.2 155.04,138.71 155.58,139.21 z M 157.42,138.74 156.87,138.21 156.38,138.71 156.9,139.23 z M 158.76,138.71 C 158.59,138.54 158.24,138.2 158.24,138.2 L 157.7,138.75 158.21,139.23 C 158.21,139.23 158.55,138.91 158.76,138.71 z M 160.09,138.75 159.57,138.22 159.07,138.74 159.59,139.23 z M 152.98,138.3 152.98,139.19 153.42,138.75 z M 153.56,137.51 153.0,138.07 153.55,138.59 C 153.55,138.59 153.92,138.23 154.1,138.04 153.92,137.86 153.56,137.51 153.56,137.51 z M 156.25,137.51 C 156.25,137.51 155.88,137.88 155.7,138.06 155.88,138.24 156.06,138.43 156.24,138.61 156.43,138.43 156.79,138.06 156.79,138.06 z M 157.56,137.51 C 157.38,137.69 157.19,137.88 157.01,138.06 157.19,138.24 157.55,138.61 157.55,138.61 L 158.1,138.06 C 158.1,138.06 157.74,137.69 157.56,137.51 z M 158.9,137.55 C 158.73,137.72 158.56,137.89 158.38,138.06 158.57,138.24 158.75,138.43 158.93,138.62 159.1,138.44 159.27,138.27 159.44,138.1 159.26,137.91 159.08,137.73 158.9,137.55 z M 160.26,137.55 159.71,138.1 160.23,138.61 160.79,138.06 z M 155.42,138.06 154.9,137.55 154.39,138.06 154.9,138.54 z M 154.77,137.4 154.22,136.86 153.69,137.38 154.22,137.91 z M 155.59,136.86 155.04,137.4 155.55,137.93 156.11,137.37 z M 157.45,137.4 156.9,136.86 156.37,137.38 156.9,137.92 z M 158.21,136.86 C 158.04,137.03 157.87,137.2 157.7,137.37 157.88,137.55 158.06,137.74 158.24,137.92 158.41,137.75 158.59,137.58 158.76,137.41 158.58,137.23 158.39,137.04 158.21,136.86 z M 160.14,137.4 159.58,136.86 159.03,137.4 159.58,137.92 z M 160.93,136.9 160.38,137.37 160.93,137.9 z M 152.98,136.93 152.98,137.82 153.42,137.37 z M 154.06,136.74 C 153.79,136.48 153.34,136.55 153.08,136.68 L 153.58,137.21 z M 155.45,136.72 C 155.01,136.46 154.69,136.54 154.35,136.71 L 154.9,137.23 C 154.9,137.23 155.43,136.74 155.45,136.72 z M 156.74,136.71 C 156.35,136.47 155.89,136.62 155.76,136.72 L 156.24,137.21 z M 158.05,136.73 C 157.62,136.5 157.3,136.62 157.09,136.68 L 157.56,137.19 z M 159.42,136.71 C 159.14,136.53 158.69,136.5 158.37,136.69 L 158.9,137.23 z M 160.77,136.76 C 160.38,136.5 159.85,136.62 159.72,136.71 159.72,136.71 160.04,137.02 160.22,137.19 z M 140.97,150.74 C 140.59,151.25 140.29,151.83 140.13,152.49 139.84,153.66 140.01,154.86 140.52,155.87 140.65,156.07 140.93,155.87 140.83,155.67 140.37,154.74 140.23,153.66 140.5,152.58 140.64,151.98 140.91,151.45 141.26,150.98 141.36,150.79 141.08,150.6 140.97,150.74 z M 140.08,148.78 C 139.46,149.54 138.99,150.45 138.73,151.47 138.41,152.78 138.49,154.1 138.9,155.29 139.02,155.6 139.47,155.39 139.37,155.11 139.0,154.01 138.92,152.79 139.22,151.59 139.45,150.64 139.9,149.81 140.48,149.1 140.7,148.85 140.33,148.5 140.08,148.78 z M 143.92,162.67 C 143.31,162.42 143.02,161.59 143.35,161.02 143.66,160.44 144.51,160.27 145.03,160.67 145.56,161.04 145.64,161.88 145.21,162.36 144.9,162.72 144.36,162.84 143.92,162.67 z M 146.22,153.94 140.76,161.2 C 140.37,161.77 140.38,162.38 140.63,162.82 140.71,162.95 141.16,163.36 141.51,163.43 141.77,163.48 142.06,163.42 142.28,163.26 142.47,163.11 142.61,162.94 142.6,162.71 142.6,162.62 142.58,162.47 142.4,162.41 141.85,162.38 141.56,161.97 141.69,161.67 L 146.58,154.28 C 146.7,154.1 146.37,153.83 146.22,153.94 z" />
			
		<path id="txtPath" style="fill:none;stroke:#b4b4b4;stroke-width:0.25px;" class="shape"
			d="M 133.21,127.5 C 127.13,132.4 123.24,139.92 123.24,148.34 123.24,163.12 135.22,175.1 150.0,175.1 164.78,175.1 176.76,163.12 176.76,148.34 L 176.76,148.34 C 176.76,139.92 172.87,132.4 166.79,127.5" />
			
		<text dy="1" id="txt" style="stroke:none;fill:#f00;font-family:z_ariola;font-size:5.5px;text-anchor:middle;">
			<textPath startOffset="50%" xlink:href="#txtPath" ></textPath>
		</text>
		
		<!-- Prism Reference -->
		<cam mingh:cam="--verb EditSelectAll --verb SelectionUngroup --verb EditSelectAll --verb ObjectToPath --verb EditDeselect --select=txtPath --verb EditDelete --verb EditSelectAll --verb SelectionGroup --verb ZoomSelection --verb FileSave"  /> 
	 </g>
</svg>
