<svg
   xmlns:xlink="http://www.w3.org/1999/xlink"
   xmlns:svg="http://www.w3.org/2000/svg"
   xmlns="http://www.w3.org/2000/svg"
   xmlns:mingh="http://www.minghworld.com"
   width="300px"
   height="300px" >
	
	 <g>
		<!-- Paths -->
		<path transform="matrix(-1 0 0 1 300 0)" style="fill:#b4b4b4;stroke:none;"
			d="M 176.13 132.81 C 175.58 132.82 175.03 133.02 174.53 133.22 C 173.74 133.56 173.07 134.11 172.53 134.78 C 171.41 134.44 170.19 134.3 169.03 134.5 C 168.33 134.62 167.66 134.85 167.03 135.19 C 166.16 134.41 165.0 133.96 163.84 133.88 C 163.15 133.84 162.35 133.93 161.88 134.5 C 161.4 135.12 161.39 135.98 161.5 136.72 C 161.68 137.84 162.18 138.94 163.0 139.75 C 162.5 141.01 162.32 142.41 162.56 143.75 C 160.85 144.01 159.11 143.71 157.44 143.31 C 157.74 143.13 158.0 142.92 158.25 142.66 C 159.79 141.02 159.71 138.41 158.06 136.88 C 156.42 135.34 153.85 135.42 152.31 137.06 C 150.97 138.5 150.88 140.67 151.97 142.22 C 147.78 141.35 143.33 141.09 139.16 142.16 C 136.88 142.78 134.5 144.05 133.66 146.41 C 132.91 148.8 133.3 151.35 132.94 153.81 C 132.55 156.32 131.57 158.87 129.75 160.69 C 128.74 161.65 127.25 162.51 125.84 161.97 C 125.58 161.83 125.35 161.65 125.19 161.41 C 124.66 160.66 123.4 160.57 122.69 161.16 C 121.98 161.74 121.81 162.99 122.44 163.66 C 123.4 164.83 124.81 165.62 126.34 165.66 C 128.38 165.74 130.38 164.88 131.88 163.53 C 132.65 162.85 133.35 162.07 133.94 161.22 C 133.96 162.61 134.18 163.96 134.31 165.34 C 134.44 166.2 135.1 166.94 135.97 167.09 C 136.74 167.25 137.54 167.07 138.31 167.13 C 139.79 167.12 141.27 167.16 142.75 167.13 C 143.54 167.11 144.33 166.51 144.34 165.69 C 144.34 165.36 144.18 165.06 144.03 164.78 C 143.38 163.81 143.24 162.58 143.22 161.44 C 143.25 159.15 144.62 156.89 146.75 155.97 C 148.67 155.11 150.93 155.08 152.91 155.78 C 154.53 156.38 155.86 157.69 156.41 159.34 C 156.93 160.85 156.93 162.57 156.38 164.06 C 156.22 164.42 156.02 164.74 155.88 165.09 C 155.53 165.8 155.87 166.66 156.59 166.94 C 157.68 167.34 158.87 167.1 160.0 167.16 C 161.18 167.13 162.35 167.16 163.53 167.16 C 164.48 167.17 165.44 166.57 165.63 165.59 C 165.93 163.94 165.8 162.24 165.81 160.56 C 165.81 158.68 165.68 156.78 165.75 154.91 C 165.83 153.33 166.28 151.67 167.56 150.63 C 169.31 151.79 171.07 152.19 172.5 151.47 C 173.85 150.75 174.67 149.37 175.44 148.09 C 176.4 146.35 177.43 144.59 177.84 142.63 C 178.15 141.16 177.81 139.65 177.06 138.38 C 177.76 137.12 177.99 135.6 177.72 134.19 C 177.6 133.62 177.26 133.01 176.66 132.88 C 176.48 132.83 176.31 132.81 176.13 132.81 z M 155.25 137.91 C 156.32 137.91 157.22 138.76 157.22 139.84 C 157.22 140.92 156.32 141.81 155.25 141.81 C 154.17 141.81 153.31 140.92 153.31 139.84 C 153.31 138.76 154.17 137.91 155.25 137.91 z" />
		
		<text id="txt1" transform="matrix(1 0 0 1 150 160)" style="stroke:none;fill:#f00;font-family:'Eras Medium ITC';font-size:20px;text-anchor:middle"  />
		
		<!-- Prism Reference -->
		<cam mingh:cam="--verb EditSelectAll --verb ZoomSelection --verb FileSave "/> 
	 </g>

</svg>