<svg 
	xmlns="http://www.w3.org/2000/svg" 
	xmlns:mingh="http://www.minghworld.com" 
	xmlns:svg="http://www.w3.org/2000/svg" 
	xmlns:xlink="http://www.w3.org/1999/xlink" 
	height="300px" 
	width="300px" >
	
	<g>
		<path id="shapeMarkLine" style="fill:none;stroke:#fb0;stroke-width:0.25px;" class="shape"
			d="M 165.38,163.75 C 161.48,169.62 154.05,172.83 147.1,171.65 142.67,170.98 138.55,168.62 135.7,165.18 M 148.16,134.77 C 148.8,134.66 149.46,134.63 150.11,134.65" />
			
		<path id="shapeMark" style="fill:#f00;stroke:none;" class="shape"
			d="M 149.3,135.28 C 149.46,135.38 149.52,135.44 149.59,135.51 149.69,135.61 149.77,135.68 149.83,135.74 149.47,136.15 148.8,136.13 148.3,136.21 148.75,136.59 149.35,136.9 149.83,137.12 149.76,137.28 149.68,137.42 149.61,137.56 149.86,137.66 150.14,137.76 150.36,137.84 150.68,137.97 150.88,138.18 150.95,138.53 151.03,138.86 151.17,139.19 151.39,139.49 151.05,139.7 150.82,139.82 150.48,139.96 151.37,140.17 152.07,140.5 152.86,140.93 152.81,140.75 152.78,140.67 152.7,140.56 152.5,140.23 152.28,139.95 152.05,139.65 151.65,139.16 151.49,138.59 151.52,137.96 151.54,137.76 151.52,137.57 151.52,137.37 151.52,136.9 151.33,136.48 151.05,136.12 150.65,135.62 150.1,135.39 149.42,135.24 149.39,135.22 149.34,135.26 149.3,135.28 z M 157.45,150.84 157.23,150.93 C 157.23,150.93 157.33,151.39 157.36,151.62 157.41,152.05 157.37,152.44 157.17,152.78 156.97,153.11 156.65,153.36 156.36,153.49 155.99,153.66 155.62,153.82 155.23,153.93 153.84,154.34 152.59,155.03 151.42,155.87 151.19,156.03 151.01,156.21 150.89,156.41 L 150.93,156.58 C 151.72,156.29 152.58,156.02 153.27,155.78 154.25,155.45 155.27,155.15 156.27,154.81 156.75,154.64 157.18,154.4 157.58,154.06 157.89,153.79 158.11,153.46 158.14,153.06 158.17,152.23 157.81,151.42 157.45,150.84 z M 149.24,157.6 149.21,157.75 C 150.43,158.19 151.77,158.59 152.8,159.06 153.71,159.48 154.62,159.87 155.55,160.24 156.18,160.51 156.86,160.71 157.48,160.96 158.82,161.52 160.06,162.27 161.3,163.03 161.52,163.1 161.71,163.23 161.92,163.34 L 161.95,163.15 C 161.58,162.38 160.14,161.33 159.14,160.84 157.43,159.99 155.71,159.18 153.98,158.37 153.52,158.15 153.07,157.95 152.58,157.81 151.4,157.51 150.25,157.52 149.24,157.6 z M 142.8,160.21 142.61,160.37 C 143.05,160.93 143.67,161.16 144.23,161.34 144.91,161.55 145.75,161.53 146.7,161.56 148.53,161.62 150.92,161.95 153.52,162.93 L 153.61,162.71 C 151.64,161.54 149.03,160.82 146.86,160.78 145.94,160.76 145.1,160.79 144.42,160.74 143.74,160.7 143.21,160.56 142.8,160.21 z" /> 	
			
		<path id="shape" style="fill:none;stroke:#000;stroke-width:0.25px;" class="shape"
			d="M 150.0,124.88 C 147.92,124.88 146.25,126.54 146.25,128.63 146.25,129.59 146.64,130.46 147.25,131.13 147.46,131.32 147.42,131.58 147.19,131.59 136.45,132.98 128.16,142.16 128.16,153.28 128.16,165.35 137.93,175.13 150.0,175.13 162.07,175.13 171.84,165.35 171.84,153.28 171.84,142.2 163.63,133.02 152.94,131.59 152.67,131.59 152.58,131.3 152.75,131.16 153.37,130.49 153.78,129.6 153.78,128.63 153.78,126.54 152.08,124.88 150.0,124.88 z M 150.03,127.0 C 150.94,127.0 151.69,127.72 151.69,128.63 151.69,129.53 150.94,130.25 150.03,130.25 149.12,130.25 148.34,129.53 148.34,128.63 148.34,127.72 149.12,127.0 150.03,127.0 z M 150.0,134.66 C 160.28,134.66 168.63,143.0 168.63,153.28 168.63,157.17 167.41,160.77 165.38,163.75 165.11,163.38 164.8,163.02 164.41,162.66 163.8,162.16 163.18,161.64 162.56,161.16 162.09,160.8 161.56,160.51 161.0,160.31 160.45,160.11 160.01,159.74 159.69,159.28 159.31,158.75 158.83,158.65 158.25,158.72 158.08,158.75 157.66,158.81 157.66,158.81 158.48,157.85 158.83,156.65 158.88,155.41 158.91,154.4 158.79,153.4 158.63,152.41 158.43,151.21 158.19,149.98 158.0,148.78 157.84,147.78 157.84,146.78 157.94,145.78 157.98,145.3 158.0,144.82 157.97,144.34 157.91,143.44 157.18,142.65 156.25,142.41 156.07,142.37 155.87,142.36 155.69,142.34 155.29,142.31 154.95,142.18 154.69,141.88 154.47,141.63 154.27,141.35 154.06,141.09 153.65,140.57 153.24,140.04 152.81,139.53 152.4,139.04 152.17,138.49 152.22,137.84 152.25,137.37 152.23,136.89 152.03,136.47 151.66,135.67 151.1,134.96 150.0,134.66 z M 148.16,134.78 C 147.87,134.88 147.64,135.24 147.41,135.41 147.19,135.56 146.95,135.65 146.72,135.78 146.35,136.0 146.22,136.24 146.34,136.66 146.49,137.15 146.55,137.74 146.56,138.25 146.57,138.52 146.54,138.79 146.72,139.0 146.68,139.45 146.66,139.88 146.63,140.34 146.68,140.4 146.76,140.46 146.84,140.56 146.97,140.53 147.06,140.5 147.19,140.47 147.37,140.92 147.55,141.37 147.72,141.78 147.99,141.9 148.14,141.8 148.31,141.72 148.53,141.61 148.77,141.47 149.03,141.47 149.26,141.46 149.41,141.52 149.53,141.72 149.7,142.0 149.88,142.32 149.94,142.66 149.67,143.0 149.34,143.2 148.94,143.31 148.68,143.38 148.43,143.43 148.19,143.53 147.66,143.73 147.37,144.14 147.31,144.69 147.26,145.14 147.26,145.58 147.25,146.03 147.21,147.18 147.18,148.35 147.16,149.5 147.14,150.29 146.99,151.06 146.75,151.81 146.5,152.57 146.27,153.34 146.28,154.16 145.58,154.76 144.98,155.39 145.06,156.41 144.39,156.7 143.75,157.15 143.25,157.53 142.65,158.09 142.47,158.82 142.56,159.63 142.58,159.79 142.6,159.94 142.63,160.13 142.56,160.19 142.48,160.24 142.41,160.28 140.46,160.61 138.83,160.82 137.38,162.16 136.28,163.17 135.89,164.08 135.75,165.22 133.04,161.99 131.41,157.83 131.41,153.28 131.41,143.62 138.74,135.71 148.16,134.78 z M 149.53,149.56 150.16,149.63 C 150.64,150.58 151.18,151.46 151.44,152.5 150.66,153.16 149.7,153.37 148.69,153.5 148.85,152.14 149.05,150.85 149.53,149.56 z M 149.13,154.88 C 149.3,154.88 149.48,154.9 149.66,154.94 149.24,155.25 148.54,155.48 147.88,155.31 148.15,154.99 148.61,154.86 149.13,154.88 z" />

		<!-- Prism Reference -->
		<cam mingh:cam="--verb EditSelectAll --verb ZoomSelection --verb FileSave" /> 
	 </g>

</svg>
