<svg
   xmlns:xlink="http://www.w3.org/1999/xlink"
   xmlns:svg="http://www.w3.org/2000/svg"
   xmlns="http://www.w3.org/2000/svg"
   xmlns:mingh="http://www.minghworld.com"
   width="300px"
   height="300px" >
	
	 <g>
		<!-- Paths -->
		<path style="fill:none;stroke:#000;stroke-width:0.25px;"
			d="M 145.47,129.47 C 144.57,129.51 143.68,129.88 143.0,130.47 141.74,131.5 141.24,133.3 141.75,134.84 142.0,135.68 142.56,136.39 143.25,136.91 143.34,138.47 144.48,139.82 145.91,140.38 145.22,140.84 144.96,141.36 145.09,142.03 145.28,143.28 146.32,143.89 147.63,144.66 145.97,144.55 143.63,143.0 141.31,142.78 138.46,142.38 135.51,142.71 132.81,143.72 130.43,144.57 128.01,145.95 126.97,148.38 125.81,150.99 125.85,154.44 127.94,156.59 128.17,156.82 128.4,157.06 128.69,157.22 128.35,160.79 128.13,164.4 128.59,167.97 128.81,169.38 130.05,170.52 131.5,170.47 133.39,170.54 135.29,170.46 137.19,170.47 138.57,170.62 139.77,169.39 139.47,168.0 139.13,166.05 138.79,163.99 139.28,162.06 140.1,158.88 144.48,157.4 147.19,159.28 148.89,160.3 149.68,162.35 149.53,164.31 149.42,165.85 149.23,167.4 149.25,168.94 149.55,170.47 151.3,170.64 152.56,170.5 154.26,170.48 155.99,170.58 157.69,170.41 159.36,170.06 160.05,168.23 160.0,166.69 160.26,163.2 160.25,159.65 159.47,156.22 161.29,155.41 162.54,153.62 162.94,151.69 163.16,150.7 163.09,149.66 163.16,148.66 163.2,148.27 163.35,147.91 163.63,147.63 164.06,148.05 164.6,148.37 165.19,148.47 166.11,148.63 167.08,148.58 167.97,148.25 168.68,147.97 169.34,147.45 169.63,146.72 169.8,146.24 169.66,145.68 169.28,145.34 171.35,145.58 173.37,143.96 173.66,141.91 173.99,140.45 173.6,138.07 172.63,137.63 171.42,137.27 171.54,138.86 171.5,139.59 171.3,140.69 170.27,141.88 169.06,141.5 167.62,140.99 166.91,139.45 166.19,138.22 165.37,136.61 164.01,134.95 162.06,134.88 160.91,134.78 159.77,135.28 159.03,136.16 158.85,135.33 158.25,134.63 157.56,134.16 156.42,133.38 154.89,133.33 153.66,133.91 152.04,134.58 150.88,135.96 149.28,136.66 148.86,136.83 148.4,136.98 147.94,136.97 149.0,136.28 149.63,135.03 149.69,133.78 149.79,132.04 148.64,130.37 147.03,129.75 146.53,129.54 146.01,129.44 145.47,129.47 z M 145.63,131.66 C 146.7,131.66 147.59,132.51 147.59,133.59 147.59,134.67 146.7,135.56 145.63,135.56 144.55,135.56 143.69,134.67 143.69,133.59 143.69,132.51 144.55,131.66 145.63,131.66 z M 131.38,147.94 C 129.99,150.56 129.57,152.27 129.03,154.63 128.38,153.48 128.35,152.06 128.78,150.84 129.1,149.92 129.75,149.13 130.5,148.53 130.77,148.31 131.08,148.12 131.38,147.94 z"
		 />
		 
		<path style="fill:#f00;stroke:none;"
			d="M 159.53,157.73 C 155.91,158.58 151.7,157.72 149.69,154.77 148.65,153.22 148.15,151.24 148.54,149.39 148.74,148.41 149.21,147.48 149.83,146.77 149.14,148.26 148.78,149.94 149.14,151.55 149.46,153.18 150.59,154.81 152.13,155.51 154.53,156.6 157.02,157.11 159.24,156.26 159.35,156.79 159.44,157.27 159.53,157.73 z M 145.21,144.17 C 145.82,144.84 146.78,145.35 147.63,145.66 148.47,145.96 149.48,145.99 150.28,145.53 150.32,145.3 150.3,145.04 150.16,144.72 148.46,145.15 147.15,144.88 145.21,144.17 z M 154.22,140.93 C 155.97,141.2 157.24,140.56 158.33,139.45 158.58,140.51 159.35,141.38 160.22,142.0 161.14,142.62 162.37,142.64 163.35,142.18 163.82,141.98 164.44,141.92 164.81,142.34 165.2,142.84 165.53,143.4 166.02,143.82 166.85,144.59 167.9,145.16 169.04,145.31 169.26,145.5 169.46,145.73 169.53,146.02 169.58,146.24 169.57,146.46 169.5,146.67 167.97,146.49 166.41,145.86 165.41,144.66 164.94,144.14 164.75,143.44 164.33,142.89 163.9,142.48 163.36,142.98 162.9,143.07 161.86,143.48 160.67,143.16 159.82,142.48 159.05,141.89 158.55,141.02 158.19,140.13 157.26,141.04 156.03,141.79 154.69,141.73 153.88,141.72 153.11,141.36 152.56,140.78 152.23,140.48 151.85,139.88 151.34,140.21 150.7,140.64 150.13,141.21 149.39,141.49 148.05,141.99 146.54,141.93 145.19,141.5 145.37,140.89 145.75,140.61 146.07,140.44 147.73,140.92 149.67,140.51 150.6,139.86 151.53,139.18 152.16,139.41 152.57,139.85 152.99,140.3 153.54,140.75 154.22,140.93 z"
		 />
		 
		<!-- Prism Reference -->
		<cam mingh:cam="--verb EditSelectAll --verb ZoomSelection --verb FileSave " /> 
	 </g>

</svg>
