<svg 
	xmlns="http://www.w3.org/2000/svg" 
	xmlns:mingh="http://www.minghworld.com" 
	xmlns:svg="http://www.w3.org/2000/svg" 
	xmlns:xlink="http://www.w3.org/1999/xlink" 
	height="300px" 
	width="300px" >
	
	<g>
		<path id="shape" style="fill:none;stroke:#000;stroke-width:0.25px;" class="shape"
			d="M 141.6,126.07 C 141.43,126.07 141.26,126.09 141.1,126.1 138.87,126.31 137.04,128.1 136.79,130.48 136.54,132.81 137.99,134.93 140.1,135.63 140.66,136.5 140.69,137.25 140.2,138.23 138.85,139.37 138.05,140.97 138.01,142.73 137.94,145.1 138.61,147.26 139.98,149.2 140.57,150.04 141.36,150.74 141.98,151.57 143.74,153.93 143.65,156.5 141.76,158.7 141.2,159.35 140.54,159.91 139.91,160.51 139.08,161.3 138.29,162.12 137.82,163.2 136.97,165.15 137.0,167.14 137.63,169.13 138.62,172.24 140.77,173.75 143.7,173.91 146.18,174.05 148.42,173.26 150.54,172.01 152.78,170.7 154.32,168.73 155.63,166.57 158.3,162.2 159.83,157.46 160.54,151.82 160.56,151.19 160.68,149.98 160.6,148.79 160.54,147.79 160.33,146.85 160.04,145.95 160.13,145.1 160.43,144.51 161.04,143.91 161.22,144.03 161.41,144.11 161.63,144.13 162.41,144.23 163.12,143.61 163.23,142.76 163.34,141.84 162.71,140.98 161.88,140.88 161.23,140.81 160.62,141.22 160.38,141.85 159.76,141.54 159.5,141.14 159.45,140.45 160.39,140.48 161.21,139.73 161.32,138.7 161.44,137.55 160.62,136.46 159.6,136.35 158.63,136.26 157.78,137.02 157.66,138.1 157.65,138.22 157.63,138.36 157.63,138.48 156.86,138.27 156.52,137.88 156.35,137.1 157.32,136.78 157.95,135.75 157.85,134.57 157.75,133.27 156.78,132.3 155.57,132.29 154.5,132.28 153.6,133.18 153.48,134.38 153.46,134.49 153.45,134.59 153.45,134.7 153.44,135.04 153.48,135.36 153.6,135.66 152.66,135.67 152.03,135.37 151.41,134.66 152.24,134.12 152.76,133.11 152.66,131.95 152.54,130.4 151.35,129.21 149.91,129.2 148.64,129.18 147.6,130.26 147.45,131.7 147.43,131.82 147.42,131.94 147.41,132.07 147.4,132.59 147.53,133.07 147.76,133.51 147.01,134.05 146.45,134.0 145.79,133.38 146.09,132.83 146.28,132.23 146.35,131.57 146.64,128.86 144.75,126.4 142.1,126.1 141.94,126.08 141.77,126.07 141.6,126.07 z M 149.98,131.23 C 150.31,131.21 150.64,131.3 150.91,131.54 151.45,132.03 151.49,132.87 151.01,133.41 150.52,133.95 149.7,133.99 149.16,133.51 148.63,133.02 148.59,132.2 149.07,131.66 149.31,131.4 149.64,131.24 149.98,131.23 z" />
			
		<path id="shapeMark" style="fill:#f00;stroke:none" class="shape"
			d="M 159.89,145.93 C 160.0,144.9 160.38,144.34 160.99,143.75 160.44,143.3 160.29,142.83 160.42,142.06 159.74,141.72 159.3,141.29 159.28,140.33 158.36,140.18 157.79,139.48 157.73,138.67 156.91,138.51 156.39,138.09 156.17,137.04 155.03,137.36 154.06,136.68 153.75,135.85 152.49,135.84 151.78,135.44 151.2,134.69 149.86,135.66 148.41,134.66 147.92,133.6 147.15,134.15 146.48,134.27 145.62,133.45 143.98,135.39 142.33,136.34 140.23,135.54 140.87,136.48 140.82,137.34 140.33,138.31 140.97,137.77 141.57,137.41 142.43,137.11 147.25,135.41 153.33,136.24 157.4,141.42 158.54,142.87 159.33,144.23 159.89,145.93 z" />
		
		<path id="txtPath" style="fill:none;stroke:#b4b4b4;stroke-width:0.25px;" class="shape"
			d="M 143.09,171.07 C 158.06,165.08 157.72,146.32 151.39,141.66" />
			
		<path id="birth" style="fill:#00f;stroke:none"
			d="M 145.43,130.95 C 145.43,133.1 143.68,134.85 141.53,134.85 139.38,134.85 137.63,133.1 137.63,130.95 137.63,128.8 139.38,127.05 141.53,127.05 143.68,127.05 145.43,128.8 145.43,130.95" />		
	    <text id="txt" style="fill:#0ff;stroke:none;font-family:z_boli;font-size:8px;letter-spacing:1;text-anchor:middle">
			<textPath startOffset="50%" xlink:href="#txtPath" ></textPath>
		</text>
		 	
		<!-- Prism Reference -->
		<cam mingh:cam="--verb EditSelectAll --verb SelectionUnGroup --verb SelectionUnGroup --verb ObjectToPath --verb EditDeselect --select=txtPath --verb EditDelete --verb EditSelectAll --verb SelectionGroup --verb ZoomSelection --verb FileSave" /> 
	 </g>

</svg>
