<svg
   xmlns:xlink="http://www.w3.org/1999/xlink"
   xmlns:svg="http://www.w3.org/2000/svg"
   xmlns="http://www.w3.org/2000/svg"
   xmlns:mingh="http://www.minghworld.com"
   width="300px"
   height="300px" >
	
	 <g>
		<!-- Paths -->
		<path transform="matrix(-1 0 0 1 300 0)" style="fill:#b4b4b4;stroke:none;"
			d="M 150.0,125.16 C 147.86,125.16 146.13,126.86 146.13,129.0 146.13,130.4 146.86,131.6 147.97,132.28 148.01,132.3 147.99,132.39 148.0,132.44 137.19,133.44 128.75,142.52 128.75,153.59 128.75,165.34 138.26,174.84 150.0,174.84 161.74,174.84 171.25,165.34 171.25,153.59 171.25,142.52 162.81,133.44 152.0,132.44 L 152.03,132.28 C 153.12,131.6 153.84,130.39 153.84,129.0 153.84,126.86 152.14,125.16 150.0,125.16 z M 150.0,127.38 C 150.91,127.38 151.63,128.09 151.63,129.0 151.63,129.91 150.91,130.66 150.0,130.66 149.09,130.66 148.34,129.91 148.34,129.0 148.34,128.09 149.09,127.38 150.0,127.38 z M 149.88,134.81 C 149.73,135.88 150.04,136.94 150.38,137.91 148.73,137.34 148.16,135.78 148.06,134.94 148.72,134.86 149.2,134.82 149.88,134.81 z M 150.59,134.84 C 152.57,134.91 154.47,135.28 156.25,135.91 155.53,136.87 154.72,137.56 153.56,137.72 152.31,137.89 151.24,136.3 150.59,134.84 z M 147.34,135.03 C 147.16,136.67 147.69,138.41 149.03,139.44 146.86,140.09 145.05,141.75 144.13,143.81 142.22,147.16 140.75,150.93 137.66,153.41 135.85,154.75 133.34,154.98 131.25,154.22 130.83,147.13 135.09,140.11 141.41,136.94 143.27,135.98 145.27,135.33 147.34,135.03 z M 157.78,136.53 C 158.86,137.02 159.89,137.62 160.84,138.31 160.35,139.11 159.48,139.7 158.53,139.75 158.06,139.25 157.6,138.67 157.5,137.97 157.44,137.48 157.58,136.98 157.78,136.53 z M 161.69,138.94 C 162.61,139.65 163.22,140.23 164.0,141.09 161.73,142.06 160.0,141.93 158.56,141.03 160.15,140.83 161.17,140.21 161.69,138.94 z M 164.47,141.59 C 167.11,144.86 168.72,148.97 168.78,153.19 168.95,158.98 166.22,164.75 161.66,168.31 161.37,168.54 161.05,168.76 160.75,168.97 160.18,167.4 159.48,165.76 159.22,164.25 160.04,164.32 160.85,164.24 161.56,163.63 162.13,163.12 162.27,162.57 161.34,162.56 160.19,162.48 159.1,161.59 158.97,160.41 158.86,159.13 159.47,157.94 159.75,156.72 160.64,153.5 161.51,150.17 161.09,146.81 160.92,145.55 160.51,144.31 159.84,143.22 161.66,143.63 163.45,143.14 164.47,141.59 z M 131.31,155.5 C 133.16,157.43 135.24,157.89 137.63,157.47 136.5,159.15 134.99,160.75 133.19,161.91 132.21,159.94 131.54,157.78 131.31,155.5 z M 145.13,160.06 C 144.83,162.59 145.05,165.33 146.56,167.47 147.23,168.39 148.26,169.5 149.53,169.13 151.49,168.5 152.88,166.73 153.69,164.91 154.81,166.87 156.4,168.73 158.59,169.5 158.89,169.61 159.17,169.69 159.47,169.78 155.33,172.1 150.36,173.03 145.72,171.88 140.66,170.7 136.18,167.31 133.66,162.78 136.39,163.7 139.55,163.87 142.13,162.41 143.25,161.8 144.23,160.97 145.13,160.06 z" />
		
		<text id="txt1" transform="matrix(1 0 0 1 150 160)" style="stroke:none;fill:#f00;font-family:'Eras Medium ITC';font-size:20px;text-anchor:middle"  />
		
		<!-- Prism Reference -->
		<cam mingh:cam="--verb EditSelectAll --verb ZoomSelection --verb FileSave "/> 
	 </g>

</svg>