<svg
   xmlns:xlink="http://www.w3.org/1999/xlink"
   xmlns:svg="http://www.w3.org/2000/svg"
   xmlns="http://www.w3.org/2000/svg"
   xmlns:mingh="http://www.minghworld.com"
   width="300px"
   height="300px" >
	
	 <g>
		<!-- Paths -->
		<path style="fill:none;stroke:#000;stroke-width:0.25px;"
			d="M 153.89,136.19 C 153.89,137.1 153.15,137.83 152.24,137.83 151.33,137.83 150.6,137.1 150.6,136.19 150.6,135.28 151.33,134.54 152.24,134.54 153.15,134.54 153.89,135.28 153.89,136.19 z M 152.23,132.41 C 150.14,132.41 148.48,134.11 148.48,136.19 148.48,137.66 149.31,138.91 150.54,139.53 148.77,139.92 146.89,140.48 145.23,141.22 144.62,141.49 143.87,141.9 143.38,142.35 143.22,142.51 143.0,142.8 142.63,143.22 141.2,144.83 140.05,146.23 138.67,147.75 137.81,148.14 136.8,148.57 135.82,148.97 131.45,149.82 125.94,150.67 121.92,152.6 121.92,152.6 121.6,152.57 121.23,152.85 120.49,153.5 120.12,154.18 119.98,155.13 119.85,155.84 119.92,156.64 120.1,157.41 119.72,157.61 119.3,157.77 118.88,158.06 118.63,158.25 118.44,158.54 118.45,158.94 L 117.95,159.19 C 117.77,159.32 117.74,159.44 117.76,159.75 117.88,160.52 118.03,161.31 118.26,162.06 L 118.51,162.06 C 118.57,162.82 118.61,163.63 118.79,164.47 118.8,165.06 119.52,165.29 121.1,165.25 121.08,166.02 121.28,166.04 121.63,166.1 123.63,166.41 125.58,166.56 127.76,166.72 127.76,166.72 128.12,166.74 128.26,166.56 128.4,166.39 128.55,166.22 128.7,166.0 129.3,166.05 130.0,166.09 130.7,166.1 130.7,166.1 131.04,166.11 131.29,165.85 131.49,165.64 131.69,165.43 131.95,165.19 132.47,165.33 133.08,165.61 133.82,165.6 135.52,165.55 137.43,165.12 139.2,164.91 139.72,166.01 140.75,167.19 142.42,167.47 143.55,167.66 144.87,167.6 145.88,167.47 147.32,167.28 148.77,166.9 149.95,166.1 151.08,165.29 152.05,163.84 152.48,162.19 157.25,160.97 162.18,159.66 167.38,158.38 L 169.54,158.03 C 169.85,158.82 170.04,159.32 171.13,159.53 172.55,159.81 175.23,159.92 177.48,158.85 178.49,158.36 179.32,156.48 179.42,154.6 180.04,154.49 180.64,154.44 181.29,154.31 181.64,154.18 181.74,154.14 181.79,153.69 181.81,153.1 181.82,152.5 181.67,151.88 181.93,151.6 182.33,151.36 182.23,150.91 182.13,150.11 182.07,148.48 181.57,148.5 181.35,147.96 181.3,147.67 180.6,147.66 180.12,146.79 179.59,146.16 178.32,145.66 178.84,145.39 179.33,145.01 179.57,144.35 179.72,143.93 179.49,142.51 178.48,141.31 178.29,141.16 178.08,141.12 177.88,141.19 175.91,141.64 174.05,141.68 172.04,142.0 171.67,141.81 171.38,141.59 170.92,141.38 166.12,139.17 161.07,138.4 156.67,138.72 156.08,138.76 155.5,138.79 154.92,138.85 155.6,138.16 156.01,137.23 156.01,136.19 156.01,134.11 154.31,132.41 152.23,132.41 z"
		 />
		 
		<path style="fill:#f00;stroke:none;"
			d="M 122.74,154.34 C 122.98,154.38 123.15,154.61 123.19,154.96 123.11,154.9 123.01,154.82 123.01,154.82 122.96,154.93 123.07,155.16 123.1,155.35 123.1,155.36 123.04,155.36 122.97,155.33 122.82,155.27 122.8,155.26 122.65,155.37 122.5,155.48 122.47,155.48 122.3,155.46 L 122.17,155.44 122.14,155.63 121.97,155.58 C 121.78,155.52 121.75,155.53 121.72,155.64 121.71,155.69 121.73,155.69 122.09,155.81 L 122.45,155.95 122.44,156.03 C 122.42,156.1 122.43,156.13 122.52,156.25 122.57,156.33 122.61,156.42 122.61,156.45 122.6,156.58 122.43,156.7 122.19,156.77 122.07,156.8 122.04,156.8 121.83,156.73 121.58,156.65 121.58,156.64 121.62,156.81 121.66,156.95 121.75,157.05 121.9,157.09 122.17,157.18 122.44,157.06 122.72,156.71 122.86,156.53 122.87,156.54 122.72,156.76 122.57,156.98 122.41,157.13 122.25,157.2 122.14,157.25 122.11,157.26 121.97,157.23 121.81,157.19 121.74,157.11 121.65,156.93 121.53,156.69 121.49,156.25 121.56,155.87 121.63,155.51 121.81,155.08 121.97,154.82 122.1,154.63 122.34,154.42 122.49,154.37 122.58,154.34 122.66,154.32 122.74,154.34 z M 133.82,153.35 C 134.09,153.41 134.3,153.68 134.35,154.08 134.25,154.01 134.13,153.91 134.13,153.91 134.1,153.9 134.1,153.9 134.14,154.08 134.2,154.41 134.25,154.51 134.24,154.53 134.24,154.55 134.16,154.55 134.09,154.52 133.91,154.44 133.88,154.43 133.7,154.56 133.53,154.69 133.5,154.69 133.3,154.66 L 133.14,154.65 C 133.13,154.72 133.12,154.79 133.11,154.87 L 132.9,154.8 C 132.69,154.73 132.64,154.74 132.61,154.88 132.6,154.94 132.62,154.93 133.05,155.08 L 133.47,155.24 C 133.41,155.4 133.54,155.52 133.55,155.6 133.62,155.69 133.66,155.8 133.66,155.83 133.65,155.97 133.44,156.12 133.17,156.2 133.02,156.24 132.99,156.24 132.74,156.16 132.45,156.07 132.45,156.05 132.5,156.25 132.54,156.41 132.65,156.53 132.82,156.58 133.15,156.68 133.47,156.54 133.79,156.13 133.96,155.92 133.97,155.93 133.79,156.19 133.62,156.45 133.43,156.63 133.24,156.71 133.11,156.77 133.07,156.77 132.91,156.74 132.72,156.69 132.64,156.6 132.53,156.39 132.39,156.11 132.34,155.59 132.42,155.14 132.5,154.73 132.72,154.22 132.91,153.92 133.06,153.69 133.35,153.44 133.52,153.39 133.63,153.36 133.72,153.34 133.82,153.35 z M 152.9,140.64 C 150.16,141.03 147.65,141.66 145.79,142.66 144.99,143.01 144.59,143.31 144.46,143.44 144.17,143.73 140.89,147.57 140.63,147.95 140.59,148.01 140.37,147.88 140.25,148.01 140.12,148.13 140.16,148.35 140.16,148.35 139.96,148.55 139.83,148.8 139.67,149.03 138.53,149.5 137.39,149.97 136.25,150.44 132.38,151.18 125.47,152.67 122.73,153.74 122.72,153.74 122.69,153.84 122.68,153.84 122.49,153.9 122.27,153.98 122.12,154.1 121.7,154.41 120.85,156.05 121.49,157.38 L 121.63,158.36 C 121.22,158.57 120.01,159.17 119.74,159.37 119.42,159.6 119.58,160.07 119.58,160.07 L 119.38,160.18 119.6,161.07 119.81,161.2 C 119.81,161.2 119.81,161.54 119.86,161.61 119.92,161.68 121.51,162.01 121.51,162.01 L 119.95,162.24 120.15,163.59 121.01,163.74 121.93,163.51 121.87,163.07 122.17,163.03 C 122.27,163.61 122.39,164.18 122.5,164.76 123.21,164.95 127.38,165.16 127.38,165.16 L 127.95,164.46 130.28,164.59 130.85,163.98 130.78,163.27 131.54,163.19 C 132.13,163.8 132.91,163.9 133.67,164.0 136.71,163.88 140.01,163.16 140.01,163.16 140.21,163.49 140.5,164.11 140.5,164.11 140.83,164.82 141.69,165.73 142.61,165.88 144.23,166.15 147.29,165.51 147.29,165.51 149.23,165.18 150.65,163.41 151.01,161.16 151.72,160.97 152.04,160.79 152.18,160.68 157.19,159.61 162.1,157.84 167.14,156.84 168.18,156.7 169.4,156.54 170.36,156.31 170.75,157.59 171.8,157.98 171.8,157.98 172.82,158.11 174.18,158.07 175.21,157.91 L 175.21,157.91 C 175.23,157.9 175.25,157.9 175.27,157.9 176.94,157.66 178.04,155.63 177.9,153.22 178.08,153.2 178.25,153.17 178.43,153.15 L 180.23,152.89 C 180.23,152.89 180.26,152.07 180.07,151.76 179.86,151.81 179.8,151.8 179.8,151.8 L 179.75,151.45 180.36,150.93 180.45,150.66 180.63,150.53 180.53,149.78 180.31,149.7 180.14,149.29 179.69,149.36 179.37,149.28 C 179.24,148.88 179.14,148.33 179.06,147.97 178.95,147.51 176.55,146.59 175.5,146.19 175.5,145.93 175.55,145.39 175.8,144.82 177.4,144.52 177.97,144.11 178.07,143.83 178.17,143.54 177.57,142.8 177.57,142.8 L 171.75,143.63 170.25,142.81 C 165.67,140.74 160.85,139.94 156.72,140.24 155.43,140.34 154.14,140.46 152.9,140.64 z M 154.56,140.84 C 155.19,140.75 155.82,140.68 156.44,140.62 162.91,140.02 168.63,142.14 171.58,143.83 171.75,143.98 172.04,144.19 172.4,144.43 170.11,143.07 164.99,140.45 157.76,141.04 157.53,141.02 157.28,141.08 157.06,141.1 156.28,141.16 156.01,141.55 155.87,141.96 155.83,142.14 155.11,145.33 155.01,145.75 155.01,145.75 154.19,146.07 154.14,146.26 154.09,146.46 153.91,147.83 153.92,147.87 153.0,148.02 151.96,148.07 151.2,148.14 149.92,148.24 148.32,148.37 147.21,148.46 145.92,148.56 144.65,148.66 144.65,148.66 L 144.71,148.5 C 148.55,148.09 153.19,147.58 153.41,147.47 153.8,147.29 155.22,142.55 155.44,141.91 155.65,141.3 155.53,140.9 151.54,141.35 152.48,141.17 153.51,140.99 154.56,140.84 z M 146.98,143.83 147.53,143.89 147.59,144.65 C 147.59,144.65 148.67,144.57 149.1,144.43 149.54,144.3 149.29,144.42 149.35,143.81 149.94,143.62 152.33,143.84 152.33,143.84 152.33,143.84 151.33,146.58 151.19,146.52 150.84,146.26 149.96,146.36 149.37,146.6 148.79,146.59 145.89,147.28 145.89,147.28 L 144.79,147.17 145.87,144.12 146.28,144.16 146.85,144.08 z M 160.42,141.9 C 161.77,141.7 162.68,141.72 163.65,141.95 163.65,141.95 163.89,143.74 163.9,144.22 163.53,144.27 163.42,144.71 163.42,144.71 L 162.03,145.13 161.92,143.48 C 161.92,143.48 161.54,143.14 161.2,142.96 160.87,142.78 159.96,142.98 159.41,143.07 158.86,143.17 158.59,143.91 158.42,144.37 L 157.63,144.08 157.41,142.5 C 158.64,142.22 159.61,142.02 160.42,141.9 z M 145.53,144.19 144.18,147.24 C 143.79,147.31 142.68,147.64 142.14,147.82 L 145.02,144.26 z M 156.89,142.64 157.08,143.97 155.7,143.46 155.82,142.98 z M 165.22,141.76 C 169.42,142.62 171.83,144.21 173.04,144.96 173.12,145.01 174.83,146.12 174.9,146.16 176.98,146.99 178.27,147.48 178.75,148.01 178.62,148.06 178.46,148.13 178.42,148.18 178.38,148.24 178.28,149.01 178.35,149.35 L 178.35,149.35 178.4,149.75 178.6,149.7 178.91,151.43 178.04,151.35 C 178.04,151.35 178.21,152.48 178.18,152.97 L 177.99,153.01 C 178.05,152.84 177.81,146.99 174.37,147.8 172.91,148.14 172.1,149.19 171.62,150.46 171.13,151.72 171.03,153.18 170.95,154.15 168.91,154.39 167.25,154.63 165.59,155.01 166.24,154.21 166.53,152.41 166.74,150.6 166.95,148.78 167.17,146.9 165.92,146.26 166.12,146.24 166.36,146.27 166.64,146.24 168.08,146.07 170.26,145.81 171.0,145.96 L 171.04,145.87 C 170.28,145.72 168.25,145.87 166.8,146.04 166.63,146.06 166.32,146.05 166.04,146.04 167.72,145.75 169.12,145.49 169.55,145.36 170.8,144.99 171.11,144.39 169.92,143.65 168.53,142.8 167.07,142.26 165.22,141.76 z M 164.83,142.01 C 164.83,142.01 167.16,142.66 169.33,143.86 L 165.3,144.44 z M 153.09,144.06 154.3,144.37 154.23,144.52 C 154.23,144.52 153.7,144.5 153.45,144.63 153.2,144.76 152.75,146.3 152.75,146.3 L 152.42,146.17 z M 156.1,144.9 157.29,145.44 C 157.29,145.44 157.57,145.56 157.67,145.64 157.76,145.73 157.83,145.87 157.87,146.0 158.01,146.5 157.99,146.86 157.93,147.26 L 157.7,147.31 C 157.89,147.02 157.76,146.75 157.78,146.45 157.72,146.2 157.69,145.92 157.5,145.74 157.44,145.68 157.32,145.61 157.22,145.57 156.9,145.39 156.56,145.52 156.19,145.55 z M 144.06,147.54 C 143.88,147.85 143.73,148.23 143.73,148.23 L 141.53,148.46 C 141.53,148.46 142.8,147.78 144.06,147.54 z M 172.36,144.15 174.91,143.87 174.82,144.12 172.73,144.42 z M 140.62,148.95 140.72,149.28 C 140.19,149.36 139.69,149.44 139.3,149.51 L 139.37,149.97 140.82,149.77 140.95,150.01 141.74,149.9 141.78,149.61 144.06,148.83 C 144.06,148.83 142.83,148.98 141.43,149.18 L 141.16,148.88 C 141.97,148.79 143.04,148.68 144.2,148.55 L 144.31,148.94 C 144.31,148.94 146.34,148.72 147.93,148.52 147.93,148.52 148.65,148.47 149.55,148.42 146.46,149.04 141.47,150.38 137.92,151.34 136.18,151.81 135.1,152.02 134.14,152.38 L 133.59,152.67 C 133.1,152.85 132.54,153.56 132.33,154.18 132.11,154.82 132.02,155.44 132.11,156.11 131.75,156.39 129.53,158.03 129.09,158.49 128.58,158.52 124.61,158.75 122.41,158.54 122.89,158.05 124.84,156.09 127.23,154.6 128.8,153.62 131.05,152.6 132.96,151.8 135.51,150.85 138.07,149.9 140.62,148.95 z M 165.22,146.18 C 167.01,146.74 166.73,148.62 166.54,150.24 166.35,151.86 166.02,154.66 165.07,155.13 162.3,155.79 156.8,157.17 153.81,157.94 153.69,157.23 152.6,150.49 152.5,149.65 152.4,148.87 152.8,148.64 153.32,148.37 153.67,148.57 154.3,148.99 154.39,149.38 154.92,149.24 155.28,148.8 155.67,148.81 155.87,148.43 155.13,148.06 154.71,148.07 154.5,147.99 154.61,147.88 154.61,147.88 158.28,147.49 162.02,146.73 165.22,146.18 z M 151.19,148.33 C 151.99,148.29 152.7,148.26 152.98,148.27 152.53,148.52 152.15,148.86 152.25,149.68 152.35,150.53 153.48,157.43 153.57,158.0 153.14,158.12 152.77,158.21 152.48,158.29 151.78,155.22 150.49,151.96 146.73,152.1 143.61,152.22 141.99,154.67 141.03,156.13 140.85,156.39 140.7,156.62 140.57,156.8 139.2,157.19 137.65,157.39 136.43,157.61 134.83,157.88 132.26,158.14 130.63,158.31 130.28,158.35 129.89,158.4 129.57,158.44 130.05,157.95 131.83,156.51 132.14,156.26 132.17,156.42 132.21,156.59 132.26,156.75 132.28,156.88 132.44,157.82 133.35,157.69 134.11,157.58 135.27,156.43 135.52,154.85 135.64,154.08 135.56,152.95 134.95,152.37 134.95,152.37 135.94,154.66 134.86,155.07 135.43,154.16 134.76,152.79 134.46,152.44 135.23,152.19 136.37,151.88 137.95,151.46 142.0,150.37 148.3,148.77 151.19,148.33 z M 132.57,151.54 C 130.21,152.39 124.66,155.77 124.66,155.77 L 126.64,153.99 C 126.64,153.99 124.93,154.83 124.14,155.28 124.25,154.8 124.19,153.63 124.19,153.63 126.5,152.73 130.55,151.82 132.57,151.54 z M 173.01,145.78 172.62,145.94 C 173.67,146.42 174.5,146.87 175.55,147.36 174.59,147.17 173.72,147.32 172.97,147.79 171.71,148.58 171.19,150.1 171.05,150.79 L 171.13,150.81 C 171.27,150.14 171.81,148.66 173.03,147.9 173.83,147.39 174.88,147.31 175.92,147.57 L 175.92,147.41 C 175.73,147.33 173.55,146.01 173.01,145.78 z M 165.3,147.34 C 164.84,147.41 164.64,147.67 164.61,147.91 L 165.91,147.73 C 165.91,147.73 165.56,147.31 165.3,147.34 z M 131.89,152.53 C 129.98,153.27 125.97,156.86 125.77,156.99 125.57,157.11 124.59,156.8 124.59,156.8 L 123.54,157.66 C 123.54,157.66 125.36,157.68 125.81,157.34 126.27,157.0 128.85,154.51 131.89,152.53 z M 123.79,153.74 C 124.07,154.93 123.71,156.52 123.14,156.63 123.96,155.68 123.44,153.87 123.44,153.87 123.44,153.87 123.52,153.84 123.79,153.74 z M 122.98,153.92 C 123.29,154.35 123.48,155.42 123.0,156.4 122.45,157.49 121.9,157.76 121.61,157.49 120.96,156.15 121.82,154.53 122.24,154.22 122.45,154.05 122.84,153.95 122.98,153.92 z M 164.17,148.07 164.25,148.56 C 164.25,148.56 164.55,148.47 165.0,148.44 166.12,148.65 166.53,148.12 166.53,148.12 L 166.11,147.99 164.99,148.15 165.01,148.29 164.38,148.38 164.33,148.05 z M 133.86,152.78 C 133.94,152.77 134.01,152.78 134.08,152.8 134.51,153.07 134.87,153.83 134.52,155.11 134.09,156.66 133.01,157.51 132.47,157.05 132.11,156.02 132.18,155.09 132.46,154.26 132.69,153.58 133.33,152.85 133.86,152.78 z M 146.17,152.27 C 146.35,152.25 146.54,152.24 146.73,152.23 150.39,152.09 151.63,155.32 152.32,158.33 152.15,158.37 152.03,158.41 151.93,158.43 151.42,156.16 150.24,153.15 147.22,152.92 144.2,152.69 142.47,155.21 141.87,156.26 141.52,156.54 141.13,156.61 140.76,156.75 140.87,156.59 141.0,156.4 141.13,156.2 142.03,154.84 143.48,152.64 146.17,152.27 z M 178.93,148.12 179.19,149.26 178.53,149.33 C 178.49,149.07 178.43,148.44 178.58,148.31 178.67,148.2 178.82,148.18 178.93,148.12 z M 174.5,149.77 C 175.69,149.6 176.87,151.01 177.15,152.93 177.42,154.84 176.68,156.53 175.5,156.7 174.31,156.87 173.12,155.46 172.85,153.54 172.57,151.63 173.31,149.94 174.5,149.77 z M 174.49,150.1 C 173.43,150.26 172.77,151.78 173.02,153.51 173.27,155.23 174.33,156.51 175.39,156.36 176.45,156.2 177.11,154.68 176.86,152.95 176.61,151.23 175.55,149.95 174.49,150.1 z M 174.45,150.4 C 175.39,150.27 176.35,151.46 176.58,153.07 176.81,154.68 176.23,156.1 175.28,156.24 174.34,156.37 173.38,155.18 173.15,153.56 173.14,153.52 173.19,153.58 173.18,153.54 173.4,154.93 174.1,155.85 174.81,155.75 175.54,155.65 175.97,154.41 175.77,152.98 175.56,151.56 174.8,150.49 174.07,150.6 174.02,150.6 173.96,150.62 173.91,150.65 174.07,150.52 174.25,150.43 174.45,150.4 z M 121.43,158.68 C 123.41,159.16 128.66,158.76 129.5,158.64 129.84,158.6 132.57,158.34 133.68,158.21 133.68,158.21 135.17,158.01 136.14,157.82 L 136.17,158.0 C 133.75,158.7 127.69,159.19 125.52,159.26 123.29,159.32 121.45,159.17 120.78,159.02 121.0,158.9 121.23,158.78 121.43,158.68 z M 145.73,155.19 C 147.67,154.91 149.54,156.71 149.89,159.21 150.25,161.71 148.97,163.97 147.03,164.25 145.08,164.53 143.22,162.72 142.86,160.22 142.5,157.72 143.78,155.47 145.73,155.19 z M 120.44,159.2 C 121.15,159.35 123.37,159.52 125.63,159.46 127.16,159.42 130.58,159.11 133.35,158.71 133.35,158.71 135.06,158.5 136.2,158.19 L 136.29,158.82 C 136.29,158.82 134.9,159.16 133.34,159.43 131.77,159.69 126.55,160.22 124.07,160.22 122.08,160.22 120.46,160.13 119.85,160.09 119.8,159.97 119.72,159.67 119.85,159.54 119.89,159.5 120.13,159.36 120.44,159.2 z M 145.74,155.65 C 144.34,155.85 143.33,157.23 143.18,158.96 143.15,159.24 143.15,159.53 143.18,159.83 143.19,159.94 143.2,160.05 143.22,160.16 143.54,162.41 145.19,164.03 146.91,163.78 148.63,163.54 149.76,161.52 149.43,159.27 149.11,157.02 147.46,155.4 145.74,155.65 z M 173.97,151.8 C 174.45,151.73 174.94,152.31 175.05,153.11 175.17,153.9 174.87,154.6 174.38,154.67 173.9,154.74 173.42,154.15 173.31,153.36 173.19,152.56 173.49,151.86 173.97,151.8 z M 145.65,155.87 C 147.24,155.64 148.77,157.19 149.08,159.32 149.39,161.45 148.35,163.37 146.76,163.6 145.51,163.78 144.29,162.85 143.68,161.4 144.25,162.41 145.23,163.03 146.24,162.88 147.66,162.68 148.6,161.05 148.34,159.25 148.08,157.45 146.72,156.15 145.3,156.36 144.65,156.45 144.1,156.85 143.72,157.42 144.13,156.58 144.82,155.99 145.65,155.87 z M 136.07,159.11 136.05,160.21 C 135.25,160.61 131.27,161.07 129.54,161.24 L 129.4,160.29 C 129.4,160.29 132.05,159.92 133.58,159.64 135.3,159.32 136.07,159.11 136.07,159.11 z M 145.36,157.98 C 146.14,157.87 146.88,158.54 147.01,159.47 147.14,160.4 146.62,161.25 145.85,161.36 145.07,161.47 144.33,160.81 144.2,159.87 144.06,158.94 144.59,158.1 145.36,157.98 z M 168.6,154.7 C 169.95,154.51 171.02,154.44 171.5,154.42 171.54,154.55 171.57,154.67 171.62,154.8 171.53,154.82 171.44,154.84 171.35,154.86 167.71,155.08 155.14,158.3 152.13,159.44 152.09,159.2 152.04,158.94 151.98,158.67 153.25,158.33 162.8,155.9 165.93,155.18 166.88,154.97 167.79,154.81 168.6,154.7 z M 120.1,162.35 120.84,162.36 121.01,163.57 120.26,163.46 z M 122.28,162.26 126.78,162.41 127.12,164.77 122.66,164.43 z M 121.8,162.46 121.99,162.44 122.03,162.75 121.84,162.8 z M 138.14,160.85 C 138.13,161.65 137.77,162.6 137.67,162.61 136.61,162.85 132.74,164.0 132.1,162.1 132.1,162.1 137.01,161.1 138.14,160.85 z M 128.0,162.94 129.65,162.8 130.04,164.35 128.27,164.18 z"
		 />
		 
		<!-- Prism Reference -->
		<cam mingh:cam="--verb EditSelectAll --verb ZoomSelection --verb FileSave" /> 
	 </g>

</svg>
