<svg
   xmlns:xlink="http://www.w3.org/1999/xlink"
   xmlns:svg="http://www.w3.org/2000/svg"
   xmlns="http://www.w3.org/2000/svg"
   xmlns:mingh="http://www.minghworld.com"
   width="300px"
   height="300px" >
	
	 <g>
		<!-- Paths -->
		<path transform="matrix(-1 0 0 1 300 0)" style="fill:#b4b4b4;stroke:none;" 
			d="M 141.6,126.07 C 141.43,126.07 141.26,126.09 141.1,126.1 138.87,126.31 137.04,128.1 136.79,130.48 136.54,132.81 137.99,134.93 140.1,135.63 140.66,136.5 140.69,137.25 140.2,138.23 138.85,139.37 138.05,140.97 138.01,142.73 137.94,145.1 138.61,147.26 139.98,149.2 140.57,150.04 141.36,150.74 141.98,151.57 143.74,153.93 143.65,156.5 141.76,158.7 141.2,159.35 140.54,159.91 139.91,160.51 139.08,161.3 138.29,162.12 137.82,163.2 136.97,165.15 137.0,167.14 137.63,169.13 138.62,172.24 140.77,173.75 143.7,173.91 146.18,174.05 148.42,173.26 150.54,172.01 152.78,170.7 154.32,168.73 155.63,166.57 158.3,162.2 159.83,157.46 160.54,151.82 160.56,151.19 160.68,149.98 160.6,148.79 160.54,147.79 160.33,146.85 160.04,145.95 160.13,145.1 160.43,144.51 161.04,143.91 161.22,144.03 161.41,144.11 161.63,144.13 162.41,144.23 163.12,143.61 163.23,142.76 163.34,141.84 162.71,140.98 161.88,140.88 161.23,140.81 160.62,141.22 160.38,141.85 159.76,141.54 159.5,141.14 159.45,140.45 160.39,140.48 161.21,139.73 161.32,138.7 161.44,137.55 160.62,136.46 159.6,136.35 158.63,136.26 157.78,137.02 157.66,138.1 157.65,138.22 157.63,138.36 157.63,138.48 156.86,138.27 156.52,137.88 156.35,137.1 157.32,136.78 157.95,135.75 157.85,134.57 157.75,133.27 156.78,132.3 155.57,132.29 154.5,132.28 153.6,133.18 153.48,134.38 153.46,134.49 153.45,134.59 153.45,134.7 153.44,135.04 153.48,135.36 153.6,135.66 152.66,135.67 152.03,135.37 151.41,134.66 152.24,134.12 152.76,133.11 152.66,131.95 152.54,130.4 151.35,129.21 149.91,129.2 148.64,129.18 147.6,130.26 147.45,131.7 147.43,131.82 147.42,131.94 147.41,132.07 147.4,132.59 147.53,133.07 147.76,133.51 147.01,134.05 146.45,134.0 145.79,133.38 146.09,132.83 146.28,132.23 146.35,131.57 146.64,128.86 144.75,126.4 142.1,126.1 141.94,126.08 141.77,126.07 141.6,126.07 z M 149.98,131.23 C 150.31,131.21 150.64,131.3 150.91,131.54 151.45,132.03 151.49,132.87 151.01,133.41 150.52,133.95 149.7,133.99 149.16,133.51 148.63,133.02 148.59,132.2 149.07,131.66 149.31,131.4 149.64,131.24 149.98,131.23 z" />
	
		<text id="txt" transform="matrix(1 0 0 1 150 185)" style="stroke:none;fill:#f00;font-family:'Eras Medium ITC';font-size:10px;text-anchor:middle" />
		
		<!-- Prism Reference -->
		<cam mingh:cam="--verb EditSelectAll --verb ZoomSelection --verb FileSave" /> 
	 </g>

</svg>