<svg
   xmlns:xlink="http://www.w3.org/1999/xlink"
   xmlns:svg="http://www.w3.org/2000/svg"
   xmlns="http://www.w3.org/2000/svg"
   xmlns:mingh="http://www.minghworld.com"
   width="300px"
   height="300px" >
	
	 <g>
		<!-- Paths -->
		<path transform="matrix(-1 0 0 1 300 0)" style="fill:#b4b4b4;stroke:none;" 
			d="M 150.0,124.88 C 147.92,124.88 146.25,126.54 146.25,128.63 146.25,129.59 146.64,130.46 147.25,131.13 147.46,131.32 147.42,131.58 147.19,131.59 136.45,132.98 128.16,142.16 128.16,153.28 128.16,165.35 137.93,175.13 150.0,175.13 162.07,175.13 171.84,165.35 171.84,153.28 171.84,142.2 163.63,133.02 152.94,131.59 152.67,131.59 152.58,131.3 152.75,131.16 153.37,130.49 153.78,129.6 153.78,128.63 153.78,126.54 152.08,124.88 150.0,124.88 z M 150.03,127.0 C 150.94,127.0 151.69,127.72 151.69,128.63 151.69,129.53 150.94,130.25 150.03,130.25 149.12,130.25 148.34,129.53 148.34,128.63 148.34,127.72 149.12,127.0 150.03,127.0 z M 150.0,134.66 C 160.28,134.66 168.63,143.0 168.63,153.28 168.63,157.17 167.41,160.77 165.38,163.75 165.11,163.38 164.8,163.02 164.41,162.66 163.8,162.16 163.18,161.64 162.56,161.16 162.09,160.8 161.56,160.51 161.0,160.31 160.45,160.11 160.01,159.74 159.69,159.28 159.31,158.75 158.83,158.65 158.25,158.72 158.08,158.75 157.66,158.81 157.66,158.81 158.48,157.85 158.83,156.65 158.88,155.41 158.91,154.4 158.79,153.4 158.63,152.41 158.43,151.21 158.19,149.98 158.0,148.78 157.84,147.78 157.84,146.78 157.94,145.78 157.98,145.3 158.0,144.82 157.97,144.34 157.91,143.44 157.18,142.65 156.25,142.41 156.07,142.37 155.87,142.36 155.69,142.34 155.29,142.31 154.95,142.18 154.69,141.88 154.47,141.63 154.27,141.35 154.06,141.09 153.65,140.57 153.24,140.04 152.81,139.53 152.4,139.04 152.17,138.49 152.22,137.84 152.25,137.37 152.23,136.89 152.03,136.47 151.66,135.67 151.1,134.96 150.0,134.66 z M 148.16,134.78 C 147.87,134.88 147.64,135.24 147.41,135.41 147.19,135.56 146.95,135.65 146.72,135.78 146.35,136.0 146.22,136.24 146.34,136.66 146.49,137.15 146.55,137.74 146.56,138.25 146.57,138.52 146.54,138.79 146.72,139.0 146.68,139.45 146.66,139.88 146.63,140.34 146.68,140.4 146.76,140.46 146.84,140.56 146.97,140.53 147.06,140.5 147.19,140.47 147.37,140.92 147.55,141.37 147.72,141.78 147.99,141.9 148.14,141.8 148.31,141.72 148.53,141.61 148.77,141.47 149.03,141.47 149.26,141.46 149.41,141.52 149.53,141.72 149.7,142.0 149.88,142.32 149.94,142.66 149.67,143.0 149.34,143.2 148.94,143.31 148.68,143.38 148.43,143.43 148.19,143.53 147.66,143.73 147.37,144.14 147.31,144.69 147.26,145.14 147.26,145.58 147.25,146.03 147.21,147.18 147.18,148.35 147.16,149.5 147.14,150.29 146.99,151.06 146.75,151.81 146.5,152.57 146.27,153.34 146.28,154.16 145.58,154.76 144.98,155.39 145.06,156.41 144.39,156.7 143.75,157.15 143.25,157.53 142.65,158.09 142.47,158.82 142.56,159.63 142.58,159.79 142.6,159.94 142.63,160.13 142.56,160.19 142.48,160.24 142.41,160.28 140.46,160.61 138.83,160.82 137.38,162.16 136.28,163.17 135.89,164.08 135.75,165.22 133.04,161.99 131.41,157.83 131.41,153.28 131.41,143.62 138.74,135.71 148.16,134.78 z M 149.53,149.56 150.16,149.63 C 150.64,150.58 151.18,151.46 151.44,152.5 150.66,153.16 149.7,153.37 148.69,153.5 148.85,152.14 149.05,150.85 149.53,149.56 z M 149.13,154.88 C 149.3,154.88 149.48,154.9 149.66,154.94 149.24,155.25 148.54,155.48 147.88,155.31 148.15,154.99 148.61,154.86 149.13,154.88 z" />
	
		<text id="txt" transform="matrix(1 0 0 1 150 185)" style="stroke:none;fill:#f00;font-family:'Eras Medium ITC';font-size:10px;text-anchor:middle" />
		
		<!-- Prism Reference -->
		<cam mingh:cam="--verb EditSelectAll --verb ZoomSelection --verb FileSave" /> 
	 </g>

</svg>