<svg 
	xmlns="http://www.w3.org/2000/svg" 
	xmlns:mingh="http://www.minghworld.com" 
	xmlns:svg="http://www.w3.org/2000/svg" 
	xmlns:xlink="http://www.w3.org/1999/xlink" 
	height="300px" 
	width="300px" >
	
	<g>
		<path id="shapeMark" style="fill:#f00;stroke:none;" class="shape"
			d="M 151.33,143.72 C 151.24,143.49 151.25,140.34 151.34,139.78 151.51,138.73 152.22,137.94 153.23,137.67 153.83,137.52 160.13,137.52 160.73,137.67 161.74,137.94 162.45,138.73 162.62,139.78 162.71,140.36 162.71,143.59 162.62,143.77 162.54,143.91 162.25,143.95 162.17,143.82 162.14,143.77 162.11,142.83 162.1,141.73 162.09,139.83 162.09,139.72 161.94,139.38 161.85,139.18 161.73,138.97 161.65,138.9 161.52,138.79 161.52,138.82 161.52,140.75 161.52,142.38 161.51,142.73 161.42,142.8 161.28,142.91 161.09,142.86 161.0,142.67 160.95,142.58 160.77,142.36 160.59,142.17 L 160.26,141.84 160.0,142.12 C 159.79,142.35 159.75,142.43 159.81,142.5 159.92,142.63 159.83,142.7 159.7,142.59 159.62,142.52 159.57,142.52 159.49,142.59 159.35,142.71 159.27,142.63 159.39,142.49 159.47,142.39 159.44,142.34 159.21,142.11 L 158.92,141.85 158.67,142.1 C 158.44,142.34 158.41,142.39 158.49,142.49 158.61,142.62 158.52,142.71 158.37,142.62 158.29,142.56 158.22,142.56 158.14,142.62 157.98,142.71 157.9,142.63 158.01,142.49 158.09,142.39 158.06,142.34 157.84,142.11 L 157.57,141.83 157.31,142.08 C 157.1,142.3 157.07,142.35 157.14,142.46 157.24,142.62 157.15,142.71 157.02,142.59 156.93,142.52 156.89,142.52 156.81,142.59 156.67,142.71 156.59,142.62 156.68,142.46 156.75,142.35 156.72,142.3 156.51,142.08 L 156.25,141.83 155.98,142.11 C 155.76,142.34 155.73,142.39 155.81,142.49 155.92,142.62 155.85,142.71 155.71,142.6 155.64,142.53 155.58,142.53 155.47,142.6 155.29,142.72 155.21,142.63 155.35,142.47 155.46,142.35 155.45,142.33 155.19,142.07 L 154.91,141.81 154.64,142.08 C 154.42,142.29 154.37,142.39 154.4,142.51 154.44,142.67 154.37,142.71 154.25,142.59 154.19,142.53 154.16,142.53 154.13,142.59 154.04,142.72 153.95,142.66 153.99,142.51 154.02,142.39 153.97,142.29 153.78,142.11 L 153.54,141.88 153.27,142.14 C 153.12,142.28 152.98,142.49 152.96,142.59 152.92,142.81 152.69,142.92 152.54,142.8 152.45,142.73 152.44,142.38 152.44,140.75 152.44,138.93 152.43,138.8 152.32,138.88 152.26,138.94 152.14,139.13 152.05,139.32 151.89,139.66 151.89,139.72 151.89,141.61 151.89,142.7 151.86,143.62 151.82,143.72 151.77,143.85 151.7,143.9 151.58,143.9 151.45,143.9 151.38,143.85 151.33,143.72 z M 154.74,141.7 154.26,141.22 153.68,141.72 154.19,142.21 z M 155.57,141.14 C 155.39,141.33 155.21,141.51 155.02,141.69 155.2,141.88 155.56,142.21 155.56,142.21 L 156.11,141.7 C 156.11,141.7 155.75,141.33 155.57,141.14 z M 158.26,141.14 C 158.07,141.33 157.71,141.69 157.71,141.69 L 158.25,142.21 C 158.25,142.21 158.62,141.88 158.8,141.7 158.62,141.51 158.44,141.33 158.26,141.14 z M 160.07,141.68 159.6,141.19 159.09,141.67 159.59,142.21 z M 160.94,141.23 160.4,141.71 160.94,142.26 z M 157.42,141.69 156.91,141.18 156.4,141.69 156.91,142.21 z M 153.01,141.35 152.99,142.14 153.4,141.74 z M 153.6,140.53 153.05,141.04 153.56,141.56 154.11,141.04 z M 155.46,141.02 154.91,140.5 154.36,141.04 154.9,141.54 z M 156.22,140.51 155.71,141.01 156.25,141.56 156.77,141.04 z M 157.59,140.52 C 157.59,140.52 157.23,140.86 157.05,141.04 157.22,141.21 157.56,141.56 157.56,141.56 L 158.11,141.02 z M 159.46,141.04 C 159.27,140.86 158.91,140.5 158.91,140.5 L 158.39,141.02 158.91,141.56 C 158.91,141.56 159.25,141.24 159.46,141.04 z M 160.79,141.08 160.25,140.53 159.73,141.04 160.25,141.55 z M 160.97,139.88 160.42,140.41 160.95,140.94 z M 154.78,140.35 154.25,139.84 153.72,140.39 154.23,140.87 z M 156.1,140.37 155.57,139.84 155.05,140.35 155.59,140.85 z M 157.43,140.38 156.88,139.85 156.39,140.35 156.91,140.87 z M 158.77,140.35 C 158.6,140.18 158.25,139.84 158.25,139.84 L 157.71,140.39 158.22,140.87 C 158.22,140.87 158.56,140.55 158.77,140.35 z M 160.1,140.39 159.58,139.86 159.08,140.38 159.6,140.87 z M 152.99,139.94 152.99,140.83 153.43,140.39 z M 153.57,139.15 153.01,139.71 153.56,140.23 C 153.56,140.23 153.93,139.87 154.11,139.68 153.93,139.5 153.57,139.15 153.57,139.15 z M 156.26,139.15 C 156.26,139.15 155.89,139.52 155.71,139.7 155.89,139.88 156.07,140.07 156.25,140.25 156.44,140.07 156.8,139.7 156.8,139.7 z M 157.57,139.15 C 157.39,139.33 157.2,139.52 157.02,139.7 157.2,139.88 157.56,140.25 157.56,140.25 L 158.11,139.7 C 158.11,139.7 157.75,139.33 157.57,139.15 z M 158.91,139.19 C 158.74,139.36 158.57,139.53 158.39,139.7 158.58,139.88 158.76,140.07 158.94,140.26 159.11,140.08 159.28,139.91 159.45,139.74 159.27,139.55 159.09,139.37 158.91,139.19 z M 160.27,139.19 159.72,139.74 160.24,140.25 160.8,139.7 z M 155.43,139.7 154.91,139.19 154.4,139.7 154.91,140.18 z M 154.78,139.04 154.23,138.5 153.7,139.02 154.23,139.55 z M 155.6,138.5 155.05,139.04 155.56,139.57 156.12,139.01 z M 157.46,139.04 156.91,138.5 156.38,139.02 156.91,139.56 z M 158.22,138.5 C 158.05,138.67 157.88,138.84 157.71,139.01 157.89,139.19 158.07,139.38 158.25,139.56 158.42,139.39 158.6,139.22 158.77,139.05 158.59,138.87 158.4,138.68 158.22,138.5 z M 160.15,139.04 159.59,138.5 159.04,139.04 159.59,139.56 z M 160.94,138.54 160.39,139.01 160.94,139.54 z M 152.99,138.57 152.99,139.46 153.43,139.01 z M 154.07,138.38 C 153.8,138.12 153.35,138.19 153.09,138.32 L 153.59,138.85 z M 155.46,138.36 C 155.02,138.1 154.7,138.18 154.36,138.35 L 154.91,138.87 C 154.91,138.87 155.44,138.38 155.46,138.36 z M 156.75,138.35 C 156.36,138.11 155.9,138.26 155.77,138.36 L 156.25,138.85 z M 158.06,138.37 C 157.63,138.14 157.31,138.26 157.1,138.32 L 157.57,138.83 z M 159.43,138.35 C 159.15,138.17 158.7,138.14 158.38,138.33 L 158.91,138.87 z M 160.78,138.4 C 160.39,138.14 159.86,138.26 159.73,138.35 159.73,138.35 160.05,138.66 160.23,138.83 z M 140.98,152.38 C 140.6,152.89 140.3,153.47 140.14,154.13 139.85,155.3 140.02,156.5 140.53,157.51 140.66,157.71 140.94,157.51 140.84,157.31 140.38,156.38 140.24,155.3 140.51,154.22 140.65,153.62 140.92,153.09 141.27,152.62 141.37,152.43 141.09,152.24 140.98,152.38 z M 140.09,150.42 C 139.47,151.18 139.0,152.09 138.74,153.11 138.42,154.42 138.5,155.74 138.91,156.93 139.03,157.24 139.48,157.03 139.38,156.75 139.01,155.65 138.93,154.43 139.23,153.23 139.46,152.28 139.91,151.45 140.49,150.74 140.71,150.49 140.34,150.14 140.09,150.42 z M 143.93,164.31 C 143.32,164.06 143.03,163.23 143.36,162.66 143.67,162.08 144.52,161.91 145.04,162.31 145.57,162.68 145.65,163.52 145.22,164.0 144.91,164.36 144.37,164.48 143.93,164.31 z M 146.23,155.58 140.77,162.84 C 140.38,163.41 140.39,164.02 140.64,164.46 140.72,164.59 141.17,165.0 141.52,165.07 141.78,165.12 142.07,165.06 142.29,164.9 142.48,164.75 142.62,164.58 142.61,164.35 142.61,164.26 142.59,164.11 142.41,164.05 141.86,164.02 141.57,163.61 141.7,163.31 L 146.59,155.92 C 146.71,155.74 146.38,155.47 146.23,155.58 z" /> 	
			
		<path id="shape" style="fill:none;stroke:#000;stroke-width:0.25px;" class="shape"
			d="M 150.0,129.19 C 138.5,129.19 129.19,138.5 129.19,150.0 129.19,161.5 138.5,170.81 150.0,170.81 161.5,170.81 170.81,161.5 170.81,150.0 170.81,138.5 161.5,129.19 150.0,129.19 z M 150.0,131.13 C 151.08,131.13 151.94,132.02 151.94,133.09 151.94,134.17 151.08,135.03 150.0,135.03 148.92,135.03 148.06,134.17 148.06,133.09 148.06,132.02 148.92,131.13 150.0,131.13 z M 147.81,142.91 C 147.94,142.89 148.09,142.9 148.22,142.91 149.25,142.98 150.01,143.85 149.94,144.88 149.87,145.9 149.0,146.7 147.97,146.63 146.95,146.56 146.15,145.66 146.22,144.63 146.28,143.72 146.95,143.02 147.81,142.91 z M 150.5,146.84 C 150.81,146.81 151.03,146.9 151.25,147.13 151.33,147.2 151.45,147.36 151.5,147.47 151.58,147.67 151.57,147.69 151.53,148.16 151.4,149.32 151.28,150.46 151.16,151.59 151.11,152.11 151.08,152.17 150.59,152.59 149.37,153.69 148.17,154.82 147.28,155.47 146.62,155.75 146.52,155.25 146.75,154.94 L 149.84,151.53 150.09,149.78 149.38,150.16 149.25,151.03 147.94,152.28 147.53,150.5 145.28,155.38 C 145.17,155.64 144.7,155.56 144.69,155.13 L 146.47,149.16 C 146.55,148.9 146.75,148.73 146.91,148.59 147.15,148.35 147.6,148.09 148.06,147.84 148.73,147.51 149.48,147.18 150.16,146.94 150.27,146.9 150.4,146.86 150.5,146.84 z M 151.84,152.44 C 151.84,152.44 153.89,155.8 155.16,158.03 155.25,158.43 154.9,158.65 154.72,158.69 154.44,158.74 154.27,158.54 153.91,158.22 L 152.09,156.63 C 151.95,156.68 151.95,156.75 151.81,156.81 151.81,156.81 151.62,158.5 152.0,159.72 152.4,161.01 153.8,162.97 154.31,164.0 154.53,164.63 154.06,164.93 153.72,164.56 153.07,163.75 151.19,161.73 150.56,160.44 149.69,158.63 149.46,156.53 149.06,155.25 149.84,154.53 150.46,154.01 151.47,153.16 L 151.84,152.44 z M 154.94,152.47 C 155.07,152.47 155.23,152.56 155.31,152.81 155.48,154.17 155.48,155.43 155.59,156.84 155.56,156.94 155.49,156.91 155.38,156.75 L 154.41,154.75 C 154.31,154.55 154.27,154.48 154.28,154.41 L 154.66,152.81 C 154.71,152.57 154.81,152.47 154.94,152.47 z" />

		<!-- Prism Reference -->
		<cam mingh:cam="--verb EditSelectAll --verb ZoomSelection --verb FileSave" /> 
	 </g>

</svg>
