<svg
   xmlns:xlink="http://www.w3.org/1999/xlink"
   xmlns:svg="http://www.w3.org/2000/svg"
   xmlns="http://www.w3.org/2000/svg"
   xmlns:mingh="http://www.minghworld.com"
   width="300px"
   height="300px" >
	
	 <g>
		<!-- Paths -->
		<path style="stroke:#000;stroke-width:0.25px;" fill="none"
			d="M 150.0 129.91 C 148.19 129.91 146.6 131.08 146.09 132.81 C 145.58 134.55 146.26 136.43 147.78 137.41 C 147.87 137.47 147.92 137.58 147.84 137.66 C 147.73 137.78 147.6 137.93 147.5 138.06 C 146.59 139.3 145.97 140.72 145.53 142.19 C 145.45 142.5 145.37 142.81 145.31 143.13 C 145.29 143.26 145.13 143.31 145.03 143.22 C 143.79 142.06 142.26 141.27 140.63 140.84 C 140.54 140.82 140.44 140.88 140.44 140.97 C 140.33 142.66 140.62 144.32 141.34 145.88 C 141.4 146.0 141.33 146.14 141.19 146.13 C 140.87 146.07 140.54 146.08 140.22 146.06 C 138.59 145.96 136.94 146.22 135.41 146.78 C 134.52 147.13 133.65 147.8 133.44 148.78 C 133.2 149.86 133.7 150.94 134.38 151.75 C 135.24 152.84 136.3 153.79 137.47 154.56 C 137.74 154.74 138.0 154.91 138.28 155.06 C 138.4 155.13 138.4 155.31 138.28 155.38 C 136.79 156.2 135.53 157.38 134.63 158.81 C 134.57 158.89 134.64 158.97 134.72 159.0 C 136.3 159.62 138.0 159.86 139.69 159.66 C 139.83 159.64 139.9 159.78 139.84 159.91 C 139.71 160.19 139.58 160.51 139.47 160.81 C 138.9 162.45 138.53 164.2 138.69 165.94 C 138.8 166.9 139.37 167.89 140.31 168.25 C 141.39 168.69 142.6 168.36 143.63 167.91 C 144.73 167.42 145.78 166.82 146.72 166.06 C 146.97 165.86 147.21 165.66 147.44 165.44 C 147.54 165.34 147.72 165.39 147.75 165.53 C 148.07 167.2 148.83 168.72 149.91 170.03 C 149.96 170.1 150.04 170.1 150.09 170.03 C 151.17 168.72 151.93 167.2 152.25 165.53 C 152.28 165.39 152.46 165.34 152.56 165.44 C 152.79 165.66 153.03 165.86 153.28 166.06 C 154.68 167.14 156.25 168.07 158.0 168.41 C 158.95 168.56 160.04 168.33 160.66 167.53 C 161.34 166.68 161.39 165.51 161.31 164.47 C 161.23 163.22 160.95 161.99 160.53 160.81 C 160.42 160.51 160.29 160.19 160.16 159.91 C 160.1 159.78 160.17 159.64 160.31 159.66 C 162.0 159.86 163.7 159.62 165.28 159.0 C 165.36 158.97 165.42 158.89 165.38 158.81 C 164.47 157.38 163.21 156.2 161.72 155.38 C 161.6 155.31 161.6 155.13 161.72 155.06 C 162.0 154.91 162.26 154.74 162.53 154.56 C 163.87 153.67 165.07 152.54 166.0 151.22 C 166.55 150.37 166.87 149.24 166.41 148.28 C 165.93 147.3 164.85 146.8 163.84 146.53 C 162.52 146.17 161.15 145.97 159.78 146.06 C 159.46 146.08 159.13 146.07 158.81 146.13 C 158.67 146.14 158.6 146.0 158.66 145.88 C 159.38 144.32 159.67 142.66 159.56 140.97 C 159.56 140.88 159.46 140.82 159.38 140.84 C 157.73 141.27 156.21 142.06 154.97 143.22 C 154.87 143.31 154.71 143.26 154.69 143.13 C 154.63 142.81 154.55 142.5 154.47 142.19 C 154.18 141.17 153.78 140.21 153.28 139.28 C 153.05 138.86 152.79 138.44 152.5 138.06 C 152.4 137.93 152.27 137.78 152.16 137.66 C 152.08 137.58 152.13 137.47 152.22 137.41 C 153.74 136.43 154.42 134.55 153.91 132.81 C 153.4 131.08 151.81 129.91 150.0 129.91 z M 150.0 132.03 C 151.08 132.03 151.94 132.89 151.94 133.97 C 151.94 135.05 151.08 135.94 150.0 135.94 C 148.92 135.94 148.06 135.05 148.06 133.97 C 148.06 132.89 148.92 132.03 150.0 132.03 z M 145.53 147.75 C 146.32 147.91 147.06 148.45 147.66 148.81 C 148.19 149.18 148.66 149.58 149.09 150.06 C 149.42 150.44 149.65 150.81 149.91 151.19 C 149.95 151.26 150.05 151.29 150.09 151.22 C 150.73 150.15 151.62 149.25 152.66 148.59 C 153.21 148.25 153.76 147.98 154.38 147.75 C 154.46 147.72 154.54 147.79 154.53 147.88 C 154.53 148.36 154.42 148.87 154.34 149.31 C 154.09 150.56 153.55 151.7 152.78 152.72 C 152.7 152.83 152.59 152.95 152.53 153.03 C 152.5 153.15 152.64 153.17 152.72 153.19 C 153.02 153.26 153.31 153.36 153.59 153.47 C 154.19 153.69 154.76 153.98 155.28 154.34 C 155.81 154.7 156.29 155.09 156.72 155.56 C 156.89 155.75 157.04 155.94 157.19 156.13 C 157.22 156.17 157.25 156.19 157.25 156.25 C 157.25 156.29 157.25 156.32 157.22 156.34 C 155.81 156.76 154.1 156.76 152.84 156.47 C 152.54 156.39 152.23 156.3 151.94 156.19 C 151.81 156.14 151.68 156.12 151.59 156.09 C 151.55 156.11 151.54 156.11 151.53 156.16 C 151.52 156.23 151.53 156.31 151.53 156.38 C 151.58 157.01 151.55 157.65 151.44 158.28 C 151.32 158.94 151.11 159.55 150.84 160.16 C 150.71 160.46 150.54 160.74 150.38 161.03 C 150.29 161.18 150.22 161.33 150.13 161.47 C 150.07 161.54 149.97 161.59 149.91 161.5 C 149.19 160.42 148.68 159.23 148.5 157.94 C 148.41 157.32 148.44 156.72 148.47 156.16 C 148.43 156.04 148.33 156.09 148.25 156.13 C 147.82 156.29 147.34 156.44 146.94 156.53 C 145.71 156.82 144.44 156.75 143.22 156.47 C 143.16 156.45 142.84 156.38 142.78 156.34 C 142.68 156.28 142.76 156.19 142.81 156.13 C 143.01 155.87 143.24 155.64 143.47 155.41 C 143.91 154.96 144.37 154.56 144.91 154.22 C 145.44 153.87 146.01 153.64 146.59 153.41 C 146.9 153.3 147.18 153.23 147.44 153.16 C 147.54 153.08 147.43 153.0 147.38 152.94 C 147.28 152.82 147.19 152.68 147.09 152.56 C 146.01 150.99 145.52 149.51 145.47 147.84 C 145.47 147.8 145.49 147.77 145.53 147.75 z" />
		
		<path style="fill:#f00;stroke:none;"
			d="M 161.89,155.62 C 162.73,156.12 163.49,156.73 164.14,157.45 164.55,157.9 164.94,158.37 165.26,158.87 165.06,158.96 164.83,159.02 164.62,159.1 163.83,159.36 162.97,159.52 162.14,159.58 161.36,159.62 160.59,159.54 159.93,159.48 159.83,159.32 159.73,159.13 159.62,158.97 159.02,158.02 158.19,157.2 157.2,156.66 157.13,156.62 157.07,156.58 157.0,156.55 157.11,156.52 157.22,156.49 157.34,156.46 157.44,156.43 157.53,156.4 157.47,156.27 157.45,156.23 157.29,156.03 157.26,156.0 157.24,155.97 157.22,155.95 157.2,155.93 157.2,155.93 157.4,155.96 157.49,155.97 158.68,156.1 159.9,155.89 161.0,155.41 161.09,155.37 161.18,155.32 161.27,155.28 161.47,155.39 161.69,155.51 161.89,155.62 z M 142.72,156.71 C 142.01,157.11 141.38,157.64 140.88,158.27 140.58,158.64 140.32,159.08 140.09,159.5 138.26,159.77 136.1,159.48 134.75,158.86 135.75,157.23 137.17,156.11 138.68,155.27 138.86,155.33 139.07,155.45 139.26,155.51 140.33,155.94 141.51,156.11 142.66,155.94 142.71,155.93 142.75,155.93 142.8,155.92 142.72,156.01 142.65,156.1 142.58,156.2 142.51,156.28 142.46,156.37 142.58,156.43 142.62,156.45 142.87,156.52 142.91,156.53 142.94,156.54 142.97,156.54 143.0,156.55 142.93,156.6 142.8,156.65 142.72,156.71 z M 152.06,165.81 C 151.74,167.22 151.09,168.55 150.21,169.69 150.15,169.78 150.08,169.87 150.0,169.95 149.86,169.79 149.71,169.59 149.57,169.41 148.83,168.38 148.28,167.21 147.98,165.97 147.9,165.68 147.86,165.38 147.8,165.09 147.8,165.09 148.04,164.81 148.15,164.67 148.89,163.76 149.46,162.68 149.65,161.52 149.66,161.48 149.66,161.44 149.67,161.4 149.74,161.5 149.81,161.6 149.87,161.71 149.9,161.75 149.93,161.8 149.99,161.81 150.04,161.81 150.08,161.76 150.11,161.73 150.17,161.64 150.23,161.55 150.28,161.47 150.3,161.45 150.31,161.42 150.33,161.4 150.34,161.47 150.35,161.55 150.37,161.62 150.51,162.38 150.8,163.1 151.19,163.76 151.48,164.24 151.82,164.67 152.2,165.07 152.16,165.31 152.11,165.56 152.06,165.81 z M 159.31,143.21 C 159.16,144.19 158.85,145.15 158.41,146.05 158.38,146.1 158.34,146.2 158.34,146.2 158.34,146.2 157.92,146.3 157.76,146.34 157.41,146.43 157.08,146.54 156.75,146.68 155.95,147.02 155.27,147.47 154.65,148.09 154.66,147.94 154.68,147.78 154.67,147.63 154.66,147.56 154.57,147.53 154.52,147.55 154.38,147.59 154.25,147.65 154.12,147.7 154.16,147.61 154.23,147.49 154.27,147.39 154.6,146.64 154.8,145.83 154.83,145.02 154.85,144.56 154.83,144.09 154.77,143.63 154.89,143.51 155.04,143.37 155.17,143.25 156.29,142.23 157.65,141.48 159.1,141.05 159.21,141.02 159.31,141.0 159.42,140.97 159.46,141.72 159.44,142.47 159.31,143.21 z M 145.18,144.2 C 145.12,145.3 145.28,146.42 145.75,147.43 145.79,147.52 145.83,147.61 145.88,147.7 145.77,147.66 145.66,147.61 145.55,147.57 145.45,147.54 145.35,147.51 145.33,147.65 145.32,147.69 145.34,147.95 145.34,148.0 145.34,148.02 145.34,148.05 145.34,148.08 144.8,147.53 144.16,147.08 143.45,146.76 142.89,146.51 142.29,146.34 141.68,146.21 140.82,144.56 140.48,142.68 140.58,140.97 142.42,141.47 144.1,142.46 145.22,143.61 145.22,143.61 145.19,144.01 145.18,144.2 z" />
		
		<path style="fill:#00f;stroke:none;"
			d="M 148.35,161.57 C 148.43,163.95 145.98,165.94 143.67,165.39 C 141.33,164.99 139.86,162.2 140.86,160.05 C 141.71,157.84 144.71,156.95 146.63,158.34 C 147.69,159.04 148.36,160.29 148.35,161.57 z M 144.92,151.01 C 145.0,153.39 142.55,155.39 140.24,154.83 C 137.9,154.43 136.44,151.65 137.43,149.5 C 138.28,147.29 141.28,146.39 143.2,147.78 C 144.26,148.49 144.93,149.74 144.92,151.01 z M 162.87,151.01 C 162.96,153.39 160.51,155.39 158.19,154.83 C 155.85,154.43 154.39,151.65 155.39,149.5 C 156.23,147.29 159.24,146.39 161.16,147.78 C 162.22,148.49 162.89,149.74 162.87,151.01 z M 159.45,161.57 C 159.53,163.95 157.08,165.94 154.76,165.39 C 152.43,164.99 150.96,162.2 151.96,160.05 C 152.81,157.84 155.81,156.95 157.73,158.34 C 158.79,159.04 159.46,160.29 159.45,161.57 z M 153.9,144.49 C 153.98,146.87 151.53,148.87 149.21,148.31 C 146.88,147.91 145.41,145.13 146.41,142.98 C 147.26,140.77 150.26,139.87 152.18,141.26 C 153.24,141.97 153.91,143.22 153.9,144.49 z" />

		<!-- Prism Reference -->
		<cam mingh:cam="--verb EditSelectAll --verb SelectionGroup --verb ZoomSelection --verb FileSave" /> 
	 </g>

</svg>
