<svg
   xmlns:xlink="http://www.w3.org/1999/xlink"
   xmlns:svg="http://www.w3.org/2000/svg"
   xmlns="http://www.w3.org/2000/svg"
   xmlns:mingh="http://www.minghworld.com"
   width="300px"
   height="300px" >
	
	 <g>
		<!-- Paths -->
		<path transform="matrix(-1 0 0 1 300 0)" style="fill:#ff0;stroke:none;"
		 d="M 150.0,130.13 C 148.16,130.13 146.54,131.35 146.06,133.13 C 145.58,134.9 146.35,136.76 147.94,137.69 C 148.05,137.75 148.07,137.92 147.97,138.0 C 146.89,138.85 146.04,139.96 145.44,141.19 C 145.42,141.23 145.39,141.24 145.34,141.22 C 143.38,140.36 141.17,140.1 139.09,140.78 C 139.05,140.8 139.02,140.83 139.0,140.88 C 137.97,142.81 137.84,145.01 138.34,147.09 C 138.36,147.14 138.33,147.14 138.28,147.16 C 136.23,147.76 134.41,148.98 133.25,150.84 C 133.22,150.89 133.21,150.92 133.22,150.97 C 133.67,153.11 134.96,154.89 136.69,156.16 C 136.73,156.18 136.75,156.21 136.72,156.25 C 135.53,158.03 134.91,160.14 135.22,162.31 C 135.23,162.36 135.24,162.41 135.28,162.44 C 137.0,163.79 139.14,164.32 141.28,164.19 C 141.33,164.18 141.37,164.2 141.38,164.25 C 141.61,166.38 142.5,168.38 144.13,169.84 C 144.16,169.88 144.2,169.88 144.25,169.88 C 146.44,169.8 148.39,168.85 149.94,167.38 C 149.97,167.34 150.03,167.34 150.06,167.38 C 151.61,168.85 153.56,169.8 155.75,169.88 C 155.8,169.88 155.84,169.88 155.88,169.84 C 157.5,168.38 158.39,166.38 158.63,164.25 C 158.63,164.2 158.67,164.18 158.72,164.19 C 160.86,164.32 163.0,163.79 164.72,162.44 C 164.76,162.41 164.77,162.36 164.78,162.31 C 165.09,160.14 164.47,158.03 163.28,156.25 C 163.25,156.21 163.27,156.18 163.31,156.16 C 165.04,154.89 166.33,153.11 166.78,150.97 C 166.79,150.92 166.78,150.89 166.75,150.84 C 165.59,148.98 163.77,147.76 161.72,147.16 C 161.67,147.14 161.64,147.14 161.66,147.09 C 162.16,145.01 162.03,142.81 161.0,140.88 C 160.98,140.83 160.95,140.8 160.91,140.78 C 158.83,140.1 156.62,140.36 154.66,141.22 C 154.61,141.24 154.58,141.23 154.56,141.19 C 153.96,139.96 153.11,138.85 152.03,138.0 C 151.93,137.92 151.95,137.75 152.06,137.69 C 153.65,136.76 154.42,134.9 153.94,133.13 C 153.46,131.35 151.84,130.13 150.0,130.13 z M 150.0,132.25 C 151.08,132.25 151.94,133.11 151.94,134.19 C 151.94,135.26 151.08,136.13 150.0,136.13 C 148.92,136.13 148.06,135.26 148.06,134.19 C 148.06,133.11 148.92,132.25 150.0,132.25 z M 145.75,142.19 C 145.79,142.17 145.83,142.17 145.88,142.19 C 146.33,142.39 146.77,142.64 147.16,142.97 C 147.82,143.53 148.33,144.34 148.69,145.16 C 148.72,145.22 148.66,145.3 148.59,145.31 C 147.49,145.49 146.53,145.83 145.56,146.41 C 145.5,146.44 145.43,146.41 145.41,146.34 C 145.15,145.49 145.04,144.55 145.19,143.69 C 145.27,143.19 145.44,142.73 145.66,142.28 C 145.68,142.24 145.71,142.2 145.75,142.19 z M 154.13,142.19 C 154.21,142.15 154.3,142.2 154.34,142.28 C 154.56,142.73 154.73,143.19 154.81,143.69 C 154.96,144.55 154.85,145.49 154.59,146.34 C 154.57,146.41 154.5,146.44 154.44,146.41 C 153.47,145.83 152.51,145.49 151.41,145.31 C 151.34,145.3 151.28,145.22 151.31,145.16 C 151.67,144.34 152.18,143.53 152.84,142.97 C 153.23,142.64 153.67,142.39 154.13,142.19 z M 140.81,147.34 C 141.68,147.35 142.6,147.63 143.41,148.03 C 143.47,148.06 143.48,148.13 143.44,148.19 C 142.71,149.04 142.18,149.94 141.81,151.0 C 141.79,151.07 141.71,151.1 141.66,151.06 C 140.91,150.57 140.19,149.91 139.75,149.16 C 139.49,148.72 139.34,148.27 139.22,147.78 C 139.2,147.69 139.25,147.59 139.34,147.56 C 139.82,147.42 140.31,147.34 140.81,147.34 z M 159.19,147.34 C 159.69,147.34 160.18,147.42 160.66,147.56 C 160.75,147.59 160.8,147.69 160.78,147.78 C 160.66,148.27 160.51,148.72 160.25,149.16 C 159.81,149.91 159.09,150.57 158.34,151.06 C 158.29,151.1 158.21,151.07 158.19,151.0 C 157.82,149.94 157.29,149.04 156.56,148.19 C 156.52,148.13 156.53,148.06 156.59,148.03 C 157.4,147.63 158.32,147.35 159.19,147.34 z M 141.19,153.66 C 141.25,153.64 141.31,153.68 141.31,153.75 C 141.3,154.87 141.48,155.89 141.88,156.94 C 141.9,157.0 141.85,157.09 141.78,157.09 C 140.89,157.19 139.95,157.13 139.13,156.84 C 138.65,156.68 138.22,156.45 137.81,156.16 C 137.74,156.1 137.73,155.99 137.78,155.91 C 138.06,155.49 138.39,155.1 138.78,154.78 C 139.45,154.23 140.32,153.87 141.19,153.66 z M 158.72,153.66 C 158.74,153.64 158.78,153.65 158.81,153.66 C 159.68,153.87 160.55,154.23 161.22,154.78 C 161.61,155.1 161.94,155.49 162.22,155.91 C 162.27,155.99 162.26,156.1 162.19,156.16 C 161.78,156.45 161.35,156.68 160.88,156.84 C 160.05,157.13 159.11,157.19 158.22,157.09 C 158.15,157.09 158.1,157.0 158.13,156.94 C 158.52,155.89 158.7,154.87 158.69,153.75 C 158.69,153.72 158.69,153.68 158.72,153.66 z M 143.19,159.31 C 143.22,159.31 143.26,159.32 143.28,159.34 C 143.99,160.21 144.77,160.89 145.75,161.44 C 145.81,161.47 145.83,161.57 145.78,161.63 C 145.16,162.27 144.41,162.85 143.59,163.16 C 143.12,163.33 142.62,163.4 142.13,163.44 C 142.03,163.44 141.95,163.38 141.94,163.28 C 141.88,162.79 141.88,162.28 141.97,161.78 C 142.13,160.92 142.56,160.1 143.09,159.38 C 143.11,159.35 143.16,159.31 143.19,159.31 z M 156.81,159.31 C 156.84,159.31 156.89,159.35 156.91,159.38 C 157.44,160.1 157.87,160.92 158.03,161.78 C 158.12,162.28 158.12,162.79 158.06,163.28 C 158.05,163.38 157.97,163.44 157.88,163.44 C 157.38,163.4 156.88,163.33 156.41,163.16 C 155.59,162.85 154.84,162.27 154.22,161.63 C 154.17,161.57 154.19,161.47 154.25,161.44 C 155.23,160.89 156.01,160.21 156.72,159.34 C 156.74,159.32 156.78,159.31 156.81,159.31 z M 148.38,162.41 C 149.48,162.62 150.52,162.62 151.63,162.41 C 151.69,162.39 151.75,162.43 151.75,162.5 C 151.7,163.39 151.49,164.34 151.06,165.09 C 150.81,165.53 150.48,165.9 150.13,166.25 C 150.06,166.32 149.94,166.32 149.88,166.25 C 149.52,165.9 149.19,165.53 148.94,165.09 C 148.51,164.34 148.3,163.39 148.25,162.5 C 148.25,162.43 148.31,162.39 148.38,162.41 z" />
		
		
		<text id="txtTwo" transform="matrix(1 0 0 1 150 160)" style="stroke:none;fill:#f00;font-family:'Eras Medium ITC';font-size:20px;text-anchor:middle"  />

		<!-- Prism Reference -->
		<cam mingh:cam=" --verb EditSelectAll --verb SelectionUnGroup --verb EditDeselect --verb EditSelectAll --verb ZoomSelection --verb FileSave"/> 
	 </g>

</svg>